<svg xmlns="http://www.w3.org/2000/svg" version="1.1" viewBox="0 0 1024 1024">
  <g stroke="lightgray" stroke-dasharray="1,1" stroke-width="1" transform="scale(4, 4)">
    <line x1="0" y1="0" x2="256" y2="256" />
    <line x1="256" y1="0" x2="0" y2="256" />
    <line x1="128" y1="0" x2="128" y2="256" />
    <line x1="0" y1="128" x2="256" y2="128" />
  </g>
  <g transform="scale(1.0, -1.0) translate(0.0, -792.00)">
    <style type="text/css">
      
        @keyframes keyframes0 {
          from {
            stroke: blue;
            stroke-dashoffset: 528;
            stroke-width: 128;
          }
          63% {
            animation-timing-function: step-end;
            stroke: blue;
            stroke-dashoffset: 0;
            stroke-width: 128;
          }
          to {
            stroke: black;
            stroke-width: 1024;
          }
        }
        #make-me-a-hanzi-animation-0 {
          animation: keyframes0 0.6796875s both;
          animation-delay: 0s;
          animation-timing-function: linear;
        }
      
        @keyframes keyframes1 {
          from {
            stroke: blue;
            stroke-dashoffset: 572;
            stroke-width: 128;
          }
          65% {
            animation-timing-function: step-end;
            stroke: blue;
            stroke-dashoffset: 0;
            stroke-width: 128;
          }
          to {
            stroke: black;
            stroke-width: 1024;
          }
        }
        #make-me-a-hanzi-animation-1 {
          animation: keyframes1 0.7154947916666666s both;
          animation-delay: 0.6796875s;
          animation-timing-function: linear;
        }
      
        @keyframes keyframes2 {
          from {
            stroke: blue;
            stroke-dashoffset: 386;
            stroke-width: 128;
          }
          56% {
            animation-timing-function: step-end;
            stroke: blue;
            stroke-dashoffset: 0;
            stroke-width: 128;
          }
          to {
            stroke: black;
            stroke-width: 1024;
          }
        }
        #make-me-a-hanzi-animation-2 {
          animation: keyframes2 0.5641276041666666s both;
          animation-delay: 1.3951822916666665s;
          animation-timing-function: linear;
        }
      
        @keyframes keyframes3 {
          from {
            stroke: blue;
            stroke-dashoffset: 827;
            stroke-width: 128;
          }
          73% {
            animation-timing-function: step-end;
            stroke: blue;
            stroke-dashoffset: 0;
            stroke-width: 128;
          }
          to {
            stroke: black;
            stroke-width: 1024;
          }
        }
        #make-me-a-hanzi-animation-3 {
          animation: keyframes3 0.9230143229166666s both;
          animation-delay: 1.959309895833333s;
          animation-timing-function: linear;
        }
      
        @keyframes keyframes4 {
          from {
            stroke: blue;
            stroke-dashoffset: 763;
            stroke-width: 128;
          }
          71% {
            animation-timing-function: step-end;
            stroke: blue;
            stroke-dashoffset: 0;
            stroke-width: 128;
          }
          to {
            stroke: black;
            stroke-width: 1024;
          }
        }
        #make-me-a-hanzi-animation-4 {
          animation: keyframes4 0.8709309895833334s both;
          animation-delay: 2.8823242187499996s;
          animation-timing-function: linear;
        }
      
        @keyframes keyframes5 {
          from {
            stroke: blue;
            stroke-dashoffset: 515;
            stroke-width: 128;
          }
          63% {
            animation-timing-function: step-end;
            stroke: blue;
            stroke-dashoffset: 0;
            stroke-width: 128;
          }
          to {
            stroke: black;
            stroke-width: 1024;
          }
        }
        #make-me-a-hanzi-animation-5 {
          animation: keyframes5 0.6691080729166666s both;
          animation-delay: 3.753255208333333s;
          animation-timing-function: linear;
        }
      
        @keyframes keyframes6 {
          from {
            stroke: blue;
            stroke-dashoffset: 555;
            stroke-width: 128;
          }
          64% {
            animation-timing-function: step-end;
            stroke: blue;
            stroke-dashoffset: 0;
            stroke-width: 128;
          }
          to {
            stroke: black;
            stroke-width: 1024;
          }
        }
        #make-me-a-hanzi-animation-6 {
          animation: keyframes6 0.70166015625s both;
          animation-delay: 4.42236328125s;
          animation-timing-function: linear;
        }
      
        @keyframes keyframes7 {
          from {
            stroke: blue;
            stroke-dashoffset: 401;
            stroke-width: 128;
          }
          57% {
            animation-timing-function: step-end;
            stroke: blue;
            stroke-dashoffset: 0;
            stroke-width: 128;
          }
          to {
            stroke: black;
            stroke-width: 1024;
          }
        }
        #make-me-a-hanzi-animation-7 {
          animation: keyframes7 0.5763346354166666s both;
          animation-delay: 5.1240234375s;
          animation-timing-function: linear;
        }
      
        @keyframes keyframes8 {
          from {
            stroke: blue;
            stroke-dashoffset: 845;
            stroke-width: 128;
          }
          73% {
            animation-timing-function: step-end;
            stroke: blue;
            stroke-dashoffset: 0;
            stroke-width: 128;
          }
          to {
            stroke: black;
            stroke-width: 1024;
          }
        }
        #make-me-a-hanzi-animation-8 {
          animation: keyframes8 0.9376627604166666s both;
          animation-delay: 5.700358072916667s;
          animation-timing-function: linear;
        }
      
        @keyframes keyframes9 {
          from {
            stroke: blue;
            stroke-dashoffset: 717;
            stroke-width: 128;
          }
          70% {
            animation-timing-function: step-end;
            stroke: blue;
            stroke-dashoffset: 0;
            stroke-width: 128;
          }
          to {
            stroke: black;
            stroke-width: 1024;
          }
        }
        #make-me-a-hanzi-animation-9 {
          animation: keyframes9 0.83349609375s both;
          animation-delay: 6.638020833333334s;
          animation-timing-function: linear;
        }
      
        @keyframes keyframes10 {
          from {
            stroke: blue;
            stroke-dashoffset: 638;
            stroke-width: 128;
          }
          67% {
            animation-timing-function: step-end;
            stroke: blue;
            stroke-dashoffset: 0;
            stroke-width: 128;
          }
          to {
            stroke: black;
            stroke-width: 1024;
          }
        }
        #make-me-a-hanzi-animation-10 {
          animation: keyframes10 0.7692057291666666s both;
          animation-delay: 7.471516927083334s;
          animation-timing-function: linear;
        }
      
        @keyframes keyframes11 {
          from {
            stroke: blue;
            stroke-dashoffset: 659;
            stroke-width: 128;
          }
          68% {
            animation-timing-function: step-end;
            stroke: blue;
            stroke-dashoffset: 0;
            stroke-width: 128;
          }
          to {
            stroke: black;
            stroke-width: 1024;
          }
        }
        #make-me-a-hanzi-animation-11 {
          animation: keyframes11 0.7862955729166666s both;
          animation-delay: 8.24072265625s;
          animation-timing-function: linear;
        }
      
    </style>
    
      <path d="M 76 459 Q 63 459 63 450 Q 63 445 72 434 Q 87 416 94 384 Q 109 341 117 234 Q 120 192 143 190 Q 155 190 159 227 L 160 259 Q 159 311 144 416 L 136 443 Q 131 451 117 454 Q 101 459 76 459 Z" fill="lightgray" />
    
      <path d="M 261 281 Q 281 364 315 405 Q 336 432 336 438 Q 336 448 302 470 Q 268 490 252 490 Q 245 490 227 477 Q 200 460 136 443 C 107 435 115 410 144 416 Q 158 418 180 425 Q 210 434 219 434 Q 236 434 236 423 L 213 273 C 208 243 254 252 261 281 Z" fill="lightgray" />
    
      <path d="M 159 227 Q 162 226 168 226 Q 224 236 284 247 Q 296 252 296 259 Q 296 267 280 276 Q 271 280 261 281 L 213 273 Q 193 268 160 259 C 131 251 129 232 159 227 Z" fill="lightgray" />
    
      <path d="M 457 555 L 456 555 Q 395 538 372 538 Q 332 538 332 526 Q 332 522 353 510 Q 381 494 391 494 Q 395 494 403 500 Q 418 508 451 519 L 504 535 Q 519 538 527 538 Q 559 538 559 511 Q 559 471 549 420 Q 538 376 527 357 Q 523 350 515 350 Q 511 350 487 357 Q 470 362 468 362 Q 464 362 464 358 Q 489 312 503 286 Q 506 274 512 274 Q 528 274 547 292 Q 567 313 578 337 Q 593 371 615 488 Q 620 515 635 525 Q 643 531 643 534 Q 643 543 608 571 Q 573 595 563 595 Q 559 595 549 587 Q 540 579 511 570 L 457 555 Z" fill="lightgray" />
    
      <path d="M 443 710 Q 431 710 431 702 Q 431 696 439 686 Q 460 658 460 614 Q 460 584 457 555 L 451 519 Q 440 466 417 419 Q 380 343 323 295 Q 307 281 307 278 Q 307 274 324 274 Q 328 274 350 287 Q 408 324 458 409 Q 487 461 504 535 L 511 570 Q 513 582 515 597 Q 521 646 524 658 Q 527 667 527 671 Q 527 684 493 698 Q 458 710 443 710 Z" fill="lightgray" />
    
      <path d="M 651 587 Q 636 587 636 578 Q 636 574 643 562 Q 656 546 664 515 Q 677 474 683 373 Q 686 332 708 331 Q 719 331 723 376 L 724 404 Q 724 451 720 544 C 719 564 719 564 709 572 Q 705 578 693 581 Q 678 587 651 587 Z" fill="lightgray" />
    
      <path d="M 855 428 Q 887 507 913 524 Q 928 533 928 543 Q 928 564 892 588 Q 856 610 831 610 Q 827 610 818 605 Q 803 597 757 585 Q 728 576 709 572 C 680 565 691 536 720 544 Q 728 546 751 554 Q 779 562 792 562 Q 815 562 815 543 Q 806 456 800 435 L 798 423 C 793 393 844 400 855 428 Z" fill="lightgray" />
    
      <path d="M 723 376 Q 731 371 743 371 Q 806 381 871 391 Q 884 396 884 402 Q 884 414 865 424 Q 861 426 855 428 L 798 423 Q 772 417 724 404 C 695 396 696 389 723 376 Z" fill="lightgray" />
    
      <path d="M 792 198 L 833 197 Q 882 194 903 194 Q 934 195 936 211 Q 933 226 904 243 Q 877 259 855 259 Q 844 259 823 255 Q 790 250 754 246 Q 729 243 656 230 L 602 221 Q 563 215 512 206 Q 407 186 347 178 Q 336 176 336 171 Q 337 167 359 150 Q 378 138 391 138 Q 400 138 432 149 Q 495 167 571 178 L 667 191 Q 733 198 792 198 Z" fill="lightgray" />
    
      <path d="M 656 230 Q 659 251 664 274 Q 664 291 628 306 Q 601 318 588 318 Q 571 317 571 303 Q 571 299 589 268 Q 599 247 602 221 L 603 133 L 603 62 Q 603 8 593 -42 Q 580 -64 580 -74 Q 580 -89 594 -117 Q 611 -150 620 -150 Q 639 -150 646 -126 Q 650 -97 651 -58 L 651 169 L 656 230 Z" fill="lightgray" />
    
      <path d="M 571 178 Q 537 125 487 75 Q 398 -13 332 -42 Q 304 -52 303 -58 Q 303 -61 332 -62 Q 369 -60 419 -36 Q 480 -2 537 57 Q 570 90 603 133 C 645 187 595 215 571 178 Z" fill="lightgray" />
    
      <path d="M 651 169 Q 659 155 674 131 Q 755 -11 782 -39 Q 794 -49 800 -49 Q 836 -49 902 -38 Q 980 -28 980 -18 Q 980 -13 947 -5 Q 886 10 843 39 Q 781 77 686 172 Q 676 183 667 191 C 645 212 636 195 651 169 Z" fill="lightgray" />
    
    
      <clipPath id="make-me-a-hanzi-clip-0">
        <path d="M 76 459 Q 63 459 63 450 Q 63 445 72 434 Q 87 416 94 384 Q 109 341 117 234 Q 120 192 143 190 Q 155 190 159 227 L 160 259 Q 159 311 144 416 L 136 443 Q 131 451 117 454 Q 101 459 76 459 Z" />
      </clipPath>
      <path clip-path="url(#make-me-a-hanzi-clip-0)" d="M 73 450 L 111 425 L 115 415 L 135 300 L 141 201" fill="none" id="make-me-a-hanzi-animation-0" stroke-dasharray="400 800" stroke-linecap="round" />
    
      <clipPath id="make-me-a-hanzi-clip-1">
        <path d="M 261 281 Q 281 364 315 405 Q 336 432 336 438 Q 336 448 302 470 Q 268 490 252 490 Q 245 490 227 477 Q 200 460 136 443 C 107 435 115 410 144 416 Q 158 418 180 425 Q 210 434 219 434 Q 236 434 236 423 L 213 273 C 208 243 254 252 261 281 Z" />
      </clipPath>
      <path clip-path="url(#make-me-a-hanzi-clip-1)" d="M 148 424 L 157 433 L 234 455 L 256 455 L 280 432 L 242 302 L 218 280" fill="none" id="make-me-a-hanzi-animation-1" stroke-dasharray="444 888" stroke-linecap="round" />
    
      <clipPath id="make-me-a-hanzi-clip-2">
        <path d="M 159 227 Q 162 226 168 226 Q 224 236 284 247 Q 296 252 296 259 Q 296 267 280 276 Q 271 280 261 281 L 213 273 Q 193 268 160 259 C 131 251 129 232 159 227 Z" />
      </clipPath>
      <path clip-path="url(#make-me-a-hanzi-clip-2)" d="M 164 232 L 177 246 L 222 256 L 263 262 L 286 259" fill="none" id="make-me-a-hanzi-animation-2" stroke-dasharray="258 516" stroke-linecap="round" />
    
      <clipPath id="make-me-a-hanzi-clip-3">
        <path d="M 457 555 L 456 555 Q 395 538 372 538 Q 332 538 332 526 Q 332 522 353 510 Q 381 494 391 494 Q 395 494 403 500 Q 418 508 451 519 L 504 535 Q 519 538 527 538 Q 559 538 559 511 Q 559 471 549 420 Q 538 376 527 357 Q 523 350 515 350 Q 511 350 487 357 Q 470 362 468 362 Q 464 362 464 358 Q 489 312 503 286 Q 506 274 512 274 Q 528 274 547 292 Q 567 313 578 337 Q 593 371 615 488 Q 620 515 635 525 Q 643 531 643 534 Q 643 543 608 571 Q 573 595 563 595 Q 559 595 549 587 Q 540 579 511 570 L 457 555 Z" />
      </clipPath>
      <path clip-path="url(#make-me-a-hanzi-clip-3)" d="M 339 526 L 384 517 L 525 557 L 561 560 L 593 535 L 576 422 L 565 378 L 545 334 L 524 317 L 470 356" fill="none" id="make-me-a-hanzi-animation-3" stroke-dasharray="699 1398" stroke-linecap="round" />
    
      <clipPath id="make-me-a-hanzi-clip-4">
        <path d="M 443 710 Q 431 710 431 702 Q 431 696 439 686 Q 460 658 460 614 Q 460 584 457 555 L 451 519 Q 440 466 417 419 Q 380 343 323 295 Q 307 281 307 278 Q 307 274 324 274 Q 328 274 350 287 Q 408 324 458 409 Q 487 461 504 535 L 511 570 Q 513 582 515 597 Q 521 646 524 658 Q 527 667 527 671 Q 527 684 493 698 Q 458 710 443 710 Z" />
      </clipPath>
      <path clip-path="url(#make-me-a-hanzi-clip-4)" d="M 440 701 L 465 686 L 489 661 L 485 569 L 468 488 L 437 412 L 402 358 L 358 308 L 311 279" fill="none" id="make-me-a-hanzi-animation-4" stroke-dasharray="635 1270" stroke-linecap="round" />
    
      <clipPath id="make-me-a-hanzi-clip-5">
        <path d="M 651 587 Q 636 587 636 578 Q 636 574 643 562 Q 656 546 664 515 Q 677 474 683 373 Q 686 332 708 331 Q 719 331 723 376 L 724 404 Q 724 451 720 544 C 719 564 719 564 709 572 Q 705 578 693 581 Q 678 587 651 587 Z" />
      </clipPath>
      <path clip-path="url(#make-me-a-hanzi-clip-5)" d="M 645 577 L 680 556 L 689 540 L 706 341" fill="none" id="make-me-a-hanzi-animation-5" stroke-dasharray="387 774" stroke-linecap="round" />
    
      <clipPath id="make-me-a-hanzi-clip-6">
        <path d="M 855 428 Q 887 507 913 524 Q 928 533 928 543 Q 928 564 892 588 Q 856 610 831 610 Q 827 610 818 605 Q 803 597 757 585 Q 728 576 709 572 C 680 565 691 536 720 544 Q 728 546 751 554 Q 779 562 792 562 Q 815 562 815 543 Q 806 456 800 435 L 798 423 C 793 393 844 400 855 428 Z" />
      </clipPath>
      <path clip-path="url(#make-me-a-hanzi-clip-6)" d="M 716 567 L 729 562 L 786 578 L 826 579 L 839 575 L 862 551 L 834 456 L 805 428" fill="none" id="make-me-a-hanzi-animation-6" stroke-dasharray="427 854" stroke-linecap="round" />
    
      <clipPath id="make-me-a-hanzi-clip-7">
        <path d="M 723 376 Q 731 371 743 371 Q 806 381 871 391 Q 884 396 884 402 Q 884 414 865 424 Q 861 426 855 428 L 798 423 Q 772 417 724 404 C 695 396 696 389 723 376 Z" />
      </clipPath>
      <path clip-path="url(#make-me-a-hanzi-clip-7)" d="M 731 383 L 807 403 L 850 408 L 873 404" fill="none" id="make-me-a-hanzi-animation-7" stroke-dasharray="273 546" stroke-linecap="round" />
    
      <clipPath id="make-me-a-hanzi-clip-8">
        <path d="M 792 198 L 833 197 Q 882 194 903 194 Q 934 195 936 211 Q 933 226 904 243 Q 877 259 855 259 Q 844 259 823 255 Q 790 250 754 246 Q 729 243 656 230 L 602 221 Q 563 215 512 206 Q 407 186 347 178 Q 336 176 336 171 Q 337 167 359 150 Q 378 138 391 138 Q 400 138 432 149 Q 495 167 571 178 L 667 191 Q 733 198 792 198 Z" />
      </clipPath>
      <path clip-path="url(#make-me-a-hanzi-clip-8)" d="M 344 171 L 374 162 L 401 162 L 570 198 L 778 224 L 852 228 L 924 211" fill="none" id="make-me-a-hanzi-animation-8" stroke-dasharray="717 1434" stroke-linecap="round" />
    
      <clipPath id="make-me-a-hanzi-clip-9">
        <path d="M 656 230 Q 659 251 664 274 Q 664 291 628 306 Q 601 318 588 318 Q 571 317 571 303 Q 571 299 589 268 Q 599 247 602 221 L 603 133 L 603 62 Q 603 8 593 -42 Q 580 -64 580 -74 Q 580 -89 594 -117 Q 611 -150 620 -150 Q 639 -150 646 -126 Q 650 -97 651 -58 L 651 169 L 656 230 Z" />
      </clipPath>
      <path clip-path="url(#make-me-a-hanzi-clip-9)" d="M 584 304 L 622 274 L 628 257 L 625 -20 L 615 -76 L 623 -136" fill="none" id="make-me-a-hanzi-animation-9" stroke-dasharray="589 1178" stroke-linecap="round" />
    
      <clipPath id="make-me-a-hanzi-clip-10">
        <path d="M 571 178 Q 537 125 487 75 Q 398 -13 332 -42 Q 304 -52 303 -58 Q 303 -61 332 -62 Q 369 -60 419 -36 Q 480 -2 537 57 Q 570 90 603 133 C 645 187 595 215 571 178 Z" />
      </clipPath>
      <path clip-path="url(#make-me-a-hanzi-clip-10)" d="M 595 176 L 560 119 L 460 17 L 375 -38 L 307 -58" fill="none" id="make-me-a-hanzi-animation-10" stroke-dasharray="510 1020" stroke-linecap="round" />
    
      <clipPath id="make-me-a-hanzi-clip-11">
        <path d="M 651 169 Q 659 155 674 131 Q 755 -11 782 -39 Q 794 -49 800 -49 Q 836 -49 902 -38 Q 980 -28 980 -18 Q 980 -13 947 -5 Q 886 10 843 39 Q 781 77 686 172 Q 676 183 667 191 C 645 212 636 195 651 169 Z" />
      </clipPath>
      <path clip-path="url(#make-me-a-hanzi-clip-11)" d="M 661 183 L 712 111 L 814 0 L 911 -18 L 976 -18" fill="none" id="make-me-a-hanzi-animation-11" stroke-dasharray="531 1062" stroke-linecap="round" />
    
  </g>
</svg>