<svg xmlns="http://www.w3.org/2000/svg" version="1.1" viewBox="0 0 1024 1024">
  <g stroke="lightgray" stroke-dasharray="1,1" stroke-width="1" transform="scale(4, 4)">
    <line x1="0" y1="0" x2="256" y2="256" />
    <line x1="256" y1="0" x2="0" y2="256" />
    <line x1="128" y1="0" x2="128" y2="256" />
    <line x1="0" y1="128" x2="256" y2="128" />
  </g>
  <g transform="scale(1.0, -1.0) translate(0.0, -821.50)">
    <style type="text/css">
      
        @keyframes keyframes0 {
          from {
            stroke: blue;
            stroke-dashoffset: 378;
            stroke-width: 128;
          }
          55% {
            animation-timing-function: step-end;
            stroke: blue;
            stroke-dashoffset: 0;
            stroke-width: 128;
          }
          to {
            stroke: black;
            stroke-width: 1024;
          }
        }
        #make-me-a-hanzi-animation-0 {
          animation: keyframes0 0.5576171875s both;
          animation-delay: 0s;
          animation-timing-function: linear;
        }
      
        @keyframes keyframes1 {
          from {
            stroke: blue;
            stroke-dashoffset: 632;
            stroke-width: 128;
          }
          67% {
            animation-timing-function: step-end;
            stroke: blue;
            stroke-dashoffset: 0;
            stroke-width: 128;
          }
          to {
            stroke: black;
            stroke-width: 1024;
          }
        }
        #make-me-a-hanzi-animation-1 {
          animation: keyframes1 0.7643229166666666s both;
          animation-delay: 0.5576171875s;
          animation-timing-function: linear;
        }
      
        @keyframes keyframes2 {
          from {
            stroke: blue;
            stroke-dashoffset: 402;
            stroke-width: 128;
          }
          57% {
            animation-timing-function: step-end;
            stroke: blue;
            stroke-dashoffset: 0;
            stroke-width: 128;
          }
          to {
            stroke: black;
            stroke-width: 1024;
          }
        }
        #make-me-a-hanzi-animation-2 {
          animation: keyframes2 0.5771484375s both;
          animation-delay: 1.3219401041666665s;
          animation-timing-function: linear;
        }
      
        @keyframes keyframes3 {
          from {
            stroke: blue;
            stroke-dashoffset: 525;
            stroke-width: 128;
          }
          63% {
            animation-timing-function: step-end;
            stroke: blue;
            stroke-dashoffset: 0;
            stroke-width: 128;
          }
          to {
            stroke: black;
            stroke-width: 1024;
          }
        }
        #make-me-a-hanzi-animation-3 {
          animation: keyframes3 0.67724609375s both;
          animation-delay: 1.8990885416666665s;
          animation-timing-function: linear;
        }
      
        @keyframes keyframes4 {
          from {
            stroke: blue;
            stroke-dashoffset: 435;
            stroke-width: 128;
          }
          59% {
            animation-timing-function: step-end;
            stroke: blue;
            stroke-dashoffset: 0;
            stroke-width: 128;
          }
          to {
            stroke: black;
            stroke-width: 1024;
          }
        }
        #make-me-a-hanzi-animation-4 {
          animation: keyframes4 0.60400390625s both;
          animation-delay: 2.5763346354166665s;
          animation-timing-function: linear;
        }
      
        @keyframes keyframes5 {
          from {
            stroke: blue;
            stroke-dashoffset: 649;
            stroke-width: 128;
          }
          68% {
            animation-timing-function: step-end;
            stroke: blue;
            stroke-dashoffset: 0;
            stroke-width: 128;
          }
          to {
            stroke: black;
            stroke-width: 1024;
          }
        }
        #make-me-a-hanzi-animation-5 {
          animation: keyframes5 0.7781575520833334s both;
          animation-delay: 3.1803385416666665s;
          animation-timing-function: linear;
        }
      
        @keyframes keyframes6 {
          from {
            stroke: blue;
            stroke-dashoffset: 643;
            stroke-width: 128;
          }
          68% {
            animation-timing-function: step-end;
            stroke: blue;
            stroke-dashoffset: 0;
            stroke-width: 128;
          }
          to {
            stroke: black;
            stroke-width: 1024;
          }
        }
        #make-me-a-hanzi-animation-6 {
          animation: keyframes6 0.7732747395833334s both;
          animation-delay: 3.95849609375s;
          animation-timing-function: linear;
        }
      
        @keyframes keyframes7 {
          from {
            stroke: blue;
            stroke-dashoffset: 646;
            stroke-width: 128;
          }
          68% {
            animation-timing-function: step-end;
            stroke: blue;
            stroke-dashoffset: 0;
            stroke-width: 128;
          }
          to {
            stroke: black;
            stroke-width: 1024;
          }
        }
        #make-me-a-hanzi-animation-7 {
          animation: keyframes7 0.7757161458333334s both;
          animation-delay: 4.731770833333333s;
          animation-timing-function: linear;
        }
      
        @keyframes keyframes8 {
          from {
            stroke: blue;
            stroke-dashoffset: 384;
            stroke-width: 128;
          }
          56% {
            animation-timing-function: step-end;
            stroke: blue;
            stroke-dashoffset: 0;
            stroke-width: 128;
          }
          to {
            stroke: black;
            stroke-width: 1024;
          }
        }
        #make-me-a-hanzi-animation-8 {
          animation: keyframes8 0.5625s both;
          animation-delay: 5.507486979166666s;
          animation-timing-function: linear;
        }
      
        @keyframes keyframes9 {
          from {
            stroke: blue;
            stroke-dashoffset: 509;
            stroke-width: 128;
          }
          62% {
            animation-timing-function: step-end;
            stroke: blue;
            stroke-dashoffset: 0;
            stroke-width: 128;
          }
          to {
            stroke: black;
            stroke-width: 1024;
          }
        }
        #make-me-a-hanzi-animation-9 {
          animation: keyframes9 0.6642252604166666s both;
          animation-delay: 6.069986979166666s;
          animation-timing-function: linear;
        }
      
        @keyframes keyframes10 {
          from {
            stroke: blue;
            stroke-dashoffset: 511;
            stroke-width: 128;
          }
          62% {
            animation-timing-function: step-end;
            stroke: blue;
            stroke-dashoffset: 0;
            stroke-width: 128;
          }
          to {
            stroke: black;
            stroke-width: 1024;
          }
        }
        #make-me-a-hanzi-animation-10 {
          animation: keyframes10 0.6658528645833334s both;
          animation-delay: 6.734212239583333s;
          animation-timing-function: linear;
        }
      
        @keyframes keyframes11 {
          from {
            stroke: blue;
            stroke-dashoffset: 845;
            stroke-width: 128;
          }
          73% {
            animation-timing-function: step-end;
            stroke: blue;
            stroke-dashoffset: 0;
            stroke-width: 128;
          }
          to {
            stroke: black;
            stroke-width: 1024;
          }
        }
        #make-me-a-hanzi-animation-11 {
          animation: keyframes11 0.9376627604166666s both;
          animation-delay: 7.400065104166666s;
          animation-timing-function: linear;
        }
      
        @keyframes keyframes12 {
          from {
            stroke: blue;
            stroke-dashoffset: 445;
            stroke-width: 128;
          }
          59% {
            animation-timing-function: step-end;
            stroke: blue;
            stroke-dashoffset: 0;
            stroke-width: 128;
          }
          to {
            stroke: black;
            stroke-width: 1024;
          }
        }
        #make-me-a-hanzi-animation-12 {
          animation: keyframes12 0.6121419270833334s both;
          animation-delay: 8.337727864583332s;
          animation-timing-function: linear;
        }
      
        @keyframes keyframes13 {
          from {
            stroke: blue;
            stroke-dashoffset: 476;
            stroke-width: 128;
          }
          61% {
            animation-timing-function: step-end;
            stroke: blue;
            stroke-dashoffset: 0;
            stroke-width: 128;
          }
          to {
            stroke: black;
            stroke-width: 1024;
          }
        }
        #make-me-a-hanzi-animation-13 {
          animation: keyframes13 0.6373697916666666s both;
          animation-delay: 8.949869791666666s;
          animation-timing-function: linear;
        }
      
        @keyframes keyframes14 {
          from {
            stroke: blue;
            stroke-dashoffset: 809;
            stroke-width: 128;
          }
          72% {
            animation-timing-function: step-end;
            stroke: blue;
            stroke-dashoffset: 0;
            stroke-width: 128;
          }
          to {
            stroke: black;
            stroke-width: 1024;
          }
        }
        #make-me-a-hanzi-animation-14 {
          animation: keyframes14 0.9083658854166666s both;
          animation-delay: 9.587239583333332s;
          animation-timing-function: linear;
        }
      
        @keyframes keyframes15 {
          from {
            stroke: blue;
            stroke-dashoffset: 896;
            stroke-width: 128;
          }
          74% {
            animation-timing-function: step-end;
            stroke: blue;
            stroke-dashoffset: 0;
            stroke-width: 128;
          }
          to {
            stroke: black;
            stroke-width: 1024;
          }
        }
        #make-me-a-hanzi-animation-15 {
          animation: keyframes15 0.9791666666666666s both;
          animation-delay: 10.495605468749998s;
          animation-timing-function: linear;
        }
      
    </style>
    
      <path d="M 243 699 Q 265 683 291 662 Q 306 652 320 653 Q 330 654 334 668 Q 337 683 325 710 Q 313 735 234 744 Q 218 745 213 743 Q 209 739 211 727 Q 215 717 243 699 Z" fill="lightgray" />
    
      <path d="M 61 581 Q 49 580 46 572 Q 43 562 58 551 Q 94 524 134 538 Q 261 580 418 605 Q 434 606 435 614 Q 436 626 419 634 Q 394 646 372 640 Q 150 589 61 581 Z" fill="lightgray" />
    
      <path d="M 159 503 Q 146 506 131 506 Q 121 507 118 502 Q 114 495 123 482 Q 145 452 168 398 Q 172 382 185 372 Q 204 356 206 370 Q 207 377 206 390 L 199 420 L 185 477 C 180 499 180 499 159 503 Z" fill="lightgray" />
    
      <path d="M 368 449 Q 384 482 404 493 Q 417 509 405 524 Q 392 534 346 554 Q 331 561 273 535 Q 231 522 159 503 C 130 495 157 467 185 477 Q 189 478 199 482 L 306 508 Q 319 512 325 507 Q 332 500 323 452 C 318 422 354 422 368 449 Z" fill="lightgray" />
    
      <path d="M 206 390 Q 209 390 214 391 Q 266 406 380 421 Q 389 422 390 430 Q 390 437 368 449 L 323 452 L 322 452 Q 255 433 199 420 C 170 413 176 387 206 390 Z" fill="lightgray" />
    
      <path d="M 295 212 Q 388 281 419 288 Q 435 292 431 307 Q 430 320 373 355 Q 357 365 337 358 Q 285 339 204 318 Q 182 312 132 315 Q 113 316 119 298 Q 125 288 142 277 Q 167 261 197 278 Q 320 326 335 317 Q 345 311 341 300 Q 311 266 280 225 C 262 201 271 194 295 212 Z" fill="lightgray" />
    
      <path d="M 276 133 Q 288 61 265 16 Q 255 -2 230 5 L 184 17 Q 174 21 178 10 Q 181 3 195 -8 Q 225 -39 233 -62 Q 242 -78 256 -76 Q 268 -75 291 -52 Q 351 8 320 154 L 312 184 Q 303 205 295 212 L 280 225 Q 270 232 255 236 Q 236 242 228 236 Q 216 229 230 218 Q 255 200 267 170 L 276 133 Z" fill="lightgray" />
    
      <path d="M 320 154 Q 365 176 408 194 Q 430 201 444 213 Q 453 223 443 225 Q 431 226 312 184 L 267 170 Q 98 116 84 115 Q 71 112 68 105 Q 65 98 75 82 Q 90 66 109 53 Q 122 46 133 55 Q 217 109 276 133 L 320 154 Z" fill="lightgray" />
    
      <path d="M 549 653 Q 571 628 594 599 Q 604 586 619 584 Q 629 583 635 595 Q 641 608 637 636 Q 630 669 550 697 Q 537 703 530 701 Q 526 698 525 686 Q 526 676 549 653 Z" fill="lightgray" />
    
      <path d="M 801 662 Q 814 681 836 696 Q 854 711 839 725 Q 823 738 795 746 Q 770 753 758 748 Q 745 744 753 732 Q 763 708 689 570 L 669 533 C 655 507 673 514 693 536 Q 729 575 801 662 Z" fill="lightgray" />
    
      <path d="M 502 508 Q 493 512 476 515 Q 464 518 461 513 Q 454 507 462 492 Q 492 426 507 319 Q 508 288 527 265 Q 543 244 549 259 Q 552 269 553 282 L 551 311 Q 529 446 527 478 C 525 500 525 500 502 508 Z" fill="lightgray" />
    
      <path d="M 669 533 Q 639 530 610 524 Q 552 514 502 508 C 472 504 498 471 527 478 Q 564 488 615 495 L 663 503 Q 801 528 817 510 Q 827 495 826 482 Q 802 355 785 337 C 772 313 772 313 774 310 Q 790 285 807 275 Q 817 268 832 288 Q 845 310 876 432 Q 886 462 909 485 Q 922 497 911 511 Q 896 527 856 554 Q 841 561 767 547 Q 755 547 693 536 L 669 533 Z" fill="lightgray" />
    
      <path d="M 697 400 Q 727 406 754 409 Q 775 412 767 423 Q 757 436 735 440 Q 720 443 702 439 L 641 422 Q 604 415 572 405 Q 557 402 576 389 Q 583 382 602 385 Q 621 389 642 391 L 697 400 Z" fill="lightgray" />
    
      <path d="M 553 282 Q 557 281 567 282 Q 595 289 642 296 L 694 302 Q 730 306 774 310 C 804 313 806 316 785 337 Q 782 341 776 345 Q 758 355 694 336 L 642 325 Q 593 318 551 311 C 521 306 523 284 553 282 Z" fill="lightgray" />
    
      <path d="M 642 200 L 422 171 Q 401 170 417 153 Q 430 140 448 134 Q 467 130 484 134 Q 557 153 641 163 L 693 170 Q 768 179 953 179 Q 972 179 977 188 Q 983 198 966 212 Q 918 249 879 241 L 693 208 L 642 200 Z" fill="lightgray" />
    
      <path d="M 642 296 L 642 200 L 641 163 Q 632 -89 656 -127 Q 662 -134 669 -132 Q 687 -120 690 -65 Q 691 -35 693 170 L 693 208 Q 693 250 694 302 L 694 336 L 696 378 Q 696 391 697 400 L 702 439 Q 703 449 706 457 Q 709 475 695 484 Q 676 497 663 503 C 637 517 603 523 615 495 Q 615 486 629 468 Q 639 449 641 422 L 642 391 L 642 325 L 642 296 Z" fill="lightgray" />
    
    
      <clipPath id="make-me-a-hanzi-clip-0">
        <path d="M 243 699 Q 265 683 291 662 Q 306 652 320 653 Q 330 654 334 668 Q 337 683 325 710 Q 313 735 234 744 Q 218 745 213 743 Q 209 739 211 727 Q 215 717 243 699 Z" />
      </clipPath>
      <path clip-path="url(#make-me-a-hanzi-clip-0)" d="M 218 737 L 298 696 L 317 670" fill="none" id="make-me-a-hanzi-animation-0" stroke-dasharray="250 500" stroke-linecap="round" />
    
      <clipPath id="make-me-a-hanzi-clip-1">
        <path d="M 61 581 Q 49 580 46 572 Q 43 562 58 551 Q 94 524 134 538 Q 261 580 418 605 Q 434 606 435 614 Q 436 626 419 634 Q 394 646 372 640 Q 150 589 61 581 Z" />
      </clipPath>
      <path clip-path="url(#make-me-a-hanzi-clip-1)" d="M 57 568 L 88 560 L 120 561 L 365 619 L 425 617" fill="none" id="make-me-a-hanzi-animation-1" stroke-dasharray="504 1008" stroke-linecap="round" />
    
      <clipPath id="make-me-a-hanzi-clip-2">
        <path d="M 159 503 Q 146 506 131 506 Q 121 507 118 502 Q 114 495 123 482 Q 145 452 168 398 Q 172 382 185 372 Q 204 356 206 370 Q 207 377 206 390 L 199 420 L 185 477 C 180 499 180 499 159 503 Z" />
      </clipPath>
      <path clip-path="url(#make-me-a-hanzi-clip-2)" d="M 127 497 L 149 484 L 163 464 L 196 374" fill="none" id="make-me-a-hanzi-animation-2" stroke-dasharray="274 548" stroke-linecap="round" />
    
      <clipPath id="make-me-a-hanzi-clip-3">
        <path d="M 368 449 Q 384 482 404 493 Q 417 509 405 524 Q 392 534 346 554 Q 331 561 273 535 Q 231 522 159 503 C 130 495 157 467 185 477 Q 189 478 199 482 L 306 508 Q 319 512 325 507 Q 332 500 323 452 C 318 422 354 422 368 449 Z" />
      </clipPath>
      <path clip-path="url(#make-me-a-hanzi-clip-3)" d="M 168 504 L 190 496 L 310 530 L 337 530 L 364 506 L 353 476 L 331 462" fill="none" id="make-me-a-hanzi-animation-3" stroke-dasharray="397 794" stroke-linecap="round" />
    
      <clipPath id="make-me-a-hanzi-clip-4">
        <path d="M 206 390 Q 209 390 214 391 Q 266 406 380 421 Q 389 422 390 430 Q 390 437 368 449 L 323 452 L 322 452 Q 255 433 199 420 C 170 413 176 387 206 390 Z" />
      </clipPath>
      <path clip-path="url(#make-me-a-hanzi-clip-4)" d="M 209 399 L 224 411 L 302 429 L 360 435 L 381 430" fill="none" id="make-me-a-hanzi-animation-4" stroke-dasharray="307 614" stroke-linecap="round" />
    
      <clipPath id="make-me-a-hanzi-clip-5">
        <path d="M 295 212 Q 388 281 419 288 Q 435 292 431 307 Q 430 320 373 355 Q 357 365 337 358 Q 285 339 204 318 Q 182 312 132 315 Q 113 316 119 298 Q 125 288 142 277 Q 167 261 197 278 Q 320 326 335 317 Q 345 311 341 300 Q 311 266 280 225 C 262 201 271 194 295 212 Z" />
      </clipPath>
      <path clip-path="url(#make-me-a-hanzi-clip-5)" d="M 128 304 L 159 293 L 182 293 L 310 333 L 354 335 L 377 310 L 366 291 L 299 227 L 289 227" fill="none" id="make-me-a-hanzi-animation-5" stroke-dasharray="521 1042" stroke-linecap="round" />
    
      <clipPath id="make-me-a-hanzi-clip-6">
        <path d="M 276 133 Q 288 61 265 16 Q 255 -2 230 5 L 184 17 Q 174 21 178 10 Q 181 3 195 -8 Q 225 -39 233 -62 Q 242 -78 256 -76 Q 268 -75 291 -52 Q 351 8 320 154 L 312 184 Q 303 205 295 212 L 280 225 Q 270 232 255 236 Q 236 242 228 236 Q 216 229 230 218 Q 255 200 267 170 L 276 133 Z" />
      </clipPath>
      <path clip-path="url(#make-me-a-hanzi-clip-6)" d="M 232 227 L 265 212 L 288 180 L 305 102 L 299 25 L 288 -4 L 260 -31 L 186 9" fill="none" id="make-me-a-hanzi-animation-6" stroke-dasharray="515 1030" stroke-linecap="round" />
    
      <clipPath id="make-me-a-hanzi-clip-7">
        <path d="M 320 154 Q 365 176 408 194 Q 430 201 444 213 Q 453 223 443 225 Q 431 226 312 184 L 267 170 Q 98 116 84 115 Q 71 112 68 105 Q 65 98 75 82 Q 90 66 109 53 Q 122 46 133 55 Q 217 109 276 133 L 320 154 Z" />
      </clipPath>
      <path clip-path="url(#make-me-a-hanzi-clip-7)" d="M 79 101 L 121 88 L 259 150 L 441 219" fill="none" id="make-me-a-hanzi-animation-7" stroke-dasharray="518 1036" stroke-linecap="round" />
    
      <clipPath id="make-me-a-hanzi-clip-8">
        <path d="M 549 653 Q 571 628 594 599 Q 604 586 619 584 Q 629 583 635 595 Q 641 608 637 636 Q 630 669 550 697 Q 537 703 530 701 Q 526 698 525 686 Q 526 676 549 653 Z" />
      </clipPath>
      <path clip-path="url(#make-me-a-hanzi-clip-8)" d="M 534 691 L 595 644 L 620 600" fill="none" id="make-me-a-hanzi-animation-8" stroke-dasharray="256 512" stroke-linecap="round" />
    
      <clipPath id="make-me-a-hanzi-clip-9">
        <path d="M 801 662 Q 814 681 836 696 Q 854 711 839 725 Q 823 738 795 746 Q 770 753 758 748 Q 745 744 753 732 Q 763 708 689 570 L 669 533 C 655 507 673 514 693 536 Q 729 575 801 662 Z" />
      </clipPath>
      <path clip-path="url(#make-me-a-hanzi-clip-9)" d="M 759 739 L 773 732 L 790 708 L 717 586 L 686 544 L 674 538" fill="none" id="make-me-a-hanzi-animation-9" stroke-dasharray="381 762" stroke-linecap="round" />
    
      <clipPath id="make-me-a-hanzi-clip-10">
        <path d="M 502 508 Q 493 512 476 515 Q 464 518 461 513 Q 454 507 462 492 Q 492 426 507 319 Q 508 288 527 265 Q 543 244 549 259 Q 552 269 553 282 L 551 311 Q 529 446 527 478 C 525 500 525 500 502 508 Z" />
      </clipPath>
      <path clip-path="url(#make-me-a-hanzi-clip-10)" d="M 470 505 L 501 468 L 539 265" fill="none" id="make-me-a-hanzi-animation-10" stroke-dasharray="383 766" stroke-linecap="round" />
    
      <clipPath id="make-me-a-hanzi-clip-11">
        <path d="M 669 533 Q 639 530 610 524 Q 552 514 502 508 C 472 504 498 471 527 478 Q 564 488 615 495 L 663 503 Q 801 528 817 510 Q 827 495 826 482 Q 802 355 785 337 C 772 313 772 313 774 310 Q 790 285 807 275 Q 817 268 832 288 Q 845 310 876 432 Q 886 462 909 485 Q 922 497 911 511 Q 896 527 856 554 Q 841 561 767 547 Q 755 547 693 536 L 669 533 Z" />
      </clipPath>
      <path clip-path="url(#make-me-a-hanzi-clip-11)" d="M 510 506 L 533 496 L 781 535 L 820 534 L 846 524 L 865 498 L 825 351 L 809 313 L 813 293" fill="none" id="make-me-a-hanzi-animation-11" stroke-dasharray="717 1434" stroke-linecap="round" />
    
      <clipPath id="make-me-a-hanzi-clip-12">
        <path d="M 697 400 Q 727 406 754 409 Q 775 412 767 423 Q 757 436 735 440 Q 720 443 702 439 L 641 422 Q 604 415 572 405 Q 557 402 576 389 Q 583 382 602 385 Q 621 389 642 391 L 697 400 Z" />
      </clipPath>
      <path clip-path="url(#make-me-a-hanzi-clip-12)" d="M 573 397 L 711 422 L 738 424 L 759 418" fill="none" id="make-me-a-hanzi-animation-12" stroke-dasharray="317 634" stroke-linecap="round" />
    
      <clipPath id="make-me-a-hanzi-clip-13">
        <path d="M 553 282 Q 557 281 567 282 Q 595 289 642 296 L 694 302 Q 730 306 774 310 C 804 313 806 316 785 337 Q 782 341 776 345 Q 758 355 694 336 L 642 325 Q 593 318 551 311 C 521 306 523 284 553 282 Z" />
      </clipPath>
      <path clip-path="url(#make-me-a-hanzi-clip-13)" d="M 560 290 L 568 298 L 589 303 L 774 334" fill="none" id="make-me-a-hanzi-animation-13" stroke-dasharray="348 696" stroke-linecap="round" />
    
      <clipPath id="make-me-a-hanzi-clip-14">
        <path d="M 642 200 L 422 171 Q 401 170 417 153 Q 430 140 448 134 Q 467 130 484 134 Q 557 153 641 163 L 693 170 Q 768 179 953 179 Q 972 179 977 188 Q 983 198 966 212 Q 918 249 879 241 L 693 208 L 642 200 Z" />
      </clipPath>
      <path clip-path="url(#make-me-a-hanzi-clip-14)" d="M 419 162 L 475 155 L 605 178 L 889 211 L 930 206 L 965 194" fill="none" id="make-me-a-hanzi-animation-14" stroke-dasharray="681 1362" stroke-linecap="round" />
    
      <clipPath id="make-me-a-hanzi-clip-15">
        <path d="M 642 296 L 642 200 L 641 163 Q 632 -89 656 -127 Q 662 -134 669 -132 Q 687 -120 690 -65 Q 691 -35 693 170 L 693 208 Q 693 250 694 302 L 694 336 L 696 378 Q 696 391 697 400 L 702 439 Q 703 449 706 457 Q 709 475 695 484 Q 676 497 663 503 C 637 517 603 523 615 495 Q 615 486 629 468 Q 639 449 641 422 L 642 391 L 642 325 L 642 296 Z" />
      </clipPath>
      <path clip-path="url(#make-me-a-hanzi-clip-15)" d="M 622 491 L 649 479 L 670 459 L 665 -122" fill="none" id="make-me-a-hanzi-animation-15" stroke-dasharray="768 1536" stroke-linecap="round" />
    
  </g>
</svg>