<svg xmlns="http://www.w3.org/2000/svg" version="1.1" viewBox="0 0 1024 1024">
  <g stroke="lightgray" stroke-dasharray="1,1" stroke-width="1" transform="scale(4, 4)">
    <line x1="0" y1="0" x2="256" y2="256" />
    <line x1="256" y1="0" x2="0" y2="256" />
    <line x1="128" y1="0" x2="128" y2="256" />
    <line x1="0" y1="128" x2="256" y2="128" />
  </g>
  <g transform="scale(1.0, -1.0) translate(0.0, -814.00)">
    <style type="text/css">
      
        @keyframes keyframes0 {
          from {
            stroke: blue;
            stroke-dashoffset: 805;
            stroke-width: 128;
          }
          72% {
            animation-timing-function: step-end;
            stroke: blue;
            stroke-dashoffset: 0;
            stroke-width: 128;
          }
          to {
            stroke: black;
            stroke-width: 1024;
          }
        }
        #make-me-a-hanzi-animation-0 {
          animation: keyframes0 0.9051106770833334s both;
          animation-delay: 0s;
          animation-timing-function: linear;
        }
      
        @keyframes keyframes1 {
          from {
            stroke: blue;
            stroke-dashoffset: 804;
            stroke-width: 128;
          }
          72% {
            animation-timing-function: step-end;
            stroke: blue;
            stroke-dashoffset: 0;
            stroke-width: 128;
          }
          to {
            stroke: black;
            stroke-width: 1024;
          }
        }
        #make-me-a-hanzi-animation-1 {
          animation: keyframes1 0.904296875s both;
          animation-delay: 0.9051106770833334s;
          animation-timing-function: linear;
        }
      
        @keyframes keyframes2 {
          from {
            stroke: blue;
            stroke-dashoffset: 903;
            stroke-width: 128;
          }
          75% {
            animation-timing-function: step-end;
            stroke: blue;
            stroke-dashoffset: 0;
            stroke-width: 128;
          }
          to {
            stroke: black;
            stroke-width: 1024;
          }
        }
        #make-me-a-hanzi-animation-2 {
          animation: keyframes2 0.98486328125s both;
          animation-delay: 1.8094075520833335s;
          animation-timing-function: linear;
        }
      
        @keyframes keyframes3 {
          from {
            stroke: blue;
            stroke-dashoffset: 1333;
            stroke-width: 128;
          }
          81% {
            animation-timing-function: step-end;
            stroke: blue;
            stroke-dashoffset: 0;
            stroke-width: 128;
          }
          to {
            stroke: black;
            stroke-width: 1024;
          }
        }
        #make-me-a-hanzi-animation-3 {
          animation: keyframes3 1.3347981770833333s both;
          animation-delay: 2.7942708333333335s;
          animation-timing-function: linear;
        }
      
        @keyframes keyframes4 {
          from {
            stroke: blue;
            stroke-dashoffset: 540;
            stroke-width: 128;
          }
          64% {
            animation-timing-function: step-end;
            stroke: blue;
            stroke-dashoffset: 0;
            stroke-width: 128;
          }
          to {
            stroke: black;
            stroke-width: 1024;
          }
        }
        #make-me-a-hanzi-animation-4 {
          animation: keyframes4 0.689453125s both;
          animation-delay: 4.129069010416667s;
          animation-timing-function: linear;
        }
      
        @keyframes keyframes5 {
          from {
            stroke: blue;
            stroke-dashoffset: 541;
            stroke-width: 128;
          }
          64% {
            animation-timing-function: step-end;
            stroke: blue;
            stroke-dashoffset: 0;
            stroke-width: 128;
          }
          to {
            stroke: black;
            stroke-width: 1024;
          }
        }
        #make-me-a-hanzi-animation-5 {
          animation: keyframes5 0.6902669270833334s both;
          animation-delay: 4.818522135416667s;
          animation-timing-function: linear;
        }
      
        @keyframes keyframes6 {
          from {
            stroke: blue;
            stroke-dashoffset: 446;
            stroke-width: 128;
          }
          59% {
            animation-timing-function: step-end;
            stroke: blue;
            stroke-dashoffset: 0;
            stroke-width: 128;
          }
          to {
            stroke: black;
            stroke-width: 1024;
          }
        }
        #make-me-a-hanzi-animation-6 {
          animation: keyframes6 0.6129557291666666s both;
          animation-delay: 5.5087890625s;
          animation-timing-function: linear;
        }
      
        @keyframes keyframes7 {
          from {
            stroke: blue;
            stroke-dashoffset: 530;
            stroke-width: 128;
          }
          63% {
            animation-timing-function: step-end;
            stroke: blue;
            stroke-dashoffset: 0;
            stroke-width: 128;
          }
          to {
            stroke: black;
            stroke-width: 1024;
          }
        }
        #make-me-a-hanzi-animation-7 {
          animation: keyframes7 0.6813151041666666s both;
          animation-delay: 6.121744791666667s;
          animation-timing-function: linear;
        }
      
        @keyframes keyframes8 {
          from {
            stroke: blue;
            stroke-dashoffset: 423;
            stroke-width: 128;
          }
          58% {
            animation-timing-function: step-end;
            stroke: blue;
            stroke-dashoffset: 0;
            stroke-width: 128;
          }
          to {
            stroke: black;
            stroke-width: 1024;
          }
        }
        #make-me-a-hanzi-animation-8 {
          animation: keyframes8 0.59423828125s both;
          animation-delay: 6.803059895833334s;
          animation-timing-function: linear;
        }
      
        @keyframes keyframes9 {
          from {
            stroke: blue;
            stroke-dashoffset: 640;
            stroke-width: 128;
          }
          68% {
            animation-timing-function: step-end;
            stroke: blue;
            stroke-dashoffset: 0;
            stroke-width: 128;
          }
          to {
            stroke: black;
            stroke-width: 1024;
          }
        }
        #make-me-a-hanzi-animation-9 {
          animation: keyframes9 0.7708333333333334s both;
          animation-delay: 7.397298177083334s;
          animation-timing-function: linear;
        }
      
    </style>
    
      <path d="M 289 456 L 309 485 L 328 516 Q 342 539 351 556 L 375 600 L 388 622 Q 393 631 396 634 Q 399 638 404 642 Q 409 646 411 649 Q 413 652 413 656 Q 413 660 410 666 Q 406 675 390 686 L 364 704 Q 355 710 347 710 L 342 710 Q 336 710 334 708 Q 331 704 330 697 L 329 676 Q 328 664 324 644 Q 319 626 309 600 Q 299 574 286 548 Q 273 521 255 490 L 216 428 L 177 370 Q 159 345 145 328 L 111 292 Q 97 276 95 273 L 79 258 Q 76 255 76 252 Q 76 251 77 250 Q 78 248 81 248 Q 83 248 86 249 L 99 255 Q 111 260 129 274 Q 147 287 167 305 Q 185 322 208 348 Q 231 374 245 394 L 269 426 L 289 456 Z" fill="lightgray" />
    
      <path d="M 269 426 L 273 417 Q 278 403 278 364 Q 279 326 279 318 L 273 121 Q 271 103 270 77 Q 268 51 265 35 Q 263 19 258 2 Q 253 -14 253 -20 Q 253 -26 256 -40 Q 259 -52 262 -60 Q 264 -68 269 -78 Q 274 -89 280 -97 Q 287 -106 290 -106 Q 293 -106 298 -101 Q 303 -96 308 -86 Q 313 -76 317 -63 Q 321 -49 323 -37 Q 323 -30 322 -14 Q 321 1 320 41 Q 319 81 319 88 L 321 278 Q 321 288 323 326 Q 326 364 327 372 Q 328 380 331 388 Q 336 403 336 411 Q 336 413 335 415 Q 335 421 324 430 Q 314 440 305 446 Q 295 452 289 456 C 264 472 259 454 269 426 Z" fill="lightgray" />
    
      <path d="M 487 578 L 473 586 Q 465 592 439 594 Q 435 595 431 595 Q 425 595 423 592 Q 419 589 419 586 L 419 583 Q 419 578 423 570 Q 429 560 433 545 Q 437 530 441 510 Q 443 484 443 445 Q 443 406 442 364 L 437 200 L 433 147 L 425 98 Q 419 74 413 54 Q 407 33 407 26 L 407 20 Q 407 14 408 6 Q 410 -6 415 -18 Q 420 -31 428 -42 Q 439 -58 447 -58 Q 455 -58 460 -50 Q 465 -42 467 -29 L 469 -13 L 473 26 L 478 157 L 490 545 C 491 575 491 576 487 578 Z" fill="lightgray" />
    
      <path d="M 798 19 L 823 -16 Q 831 -27 840 -44 Q 849 -62 855 -68 Q 861 -74 867 -74 L 869 -74 Q 879 -74 893 -58 Q 909 -40 917 -21 Q 925 -2 927 31 L 923 147 L 924 408 Q 924 463 925 482 Q 925 500 929 520 Q 931 540 934 546 Q 937 553 943 562 Q 951 574 951 581 Q 951 587 945 594 Q 939 602 929 609 Q 920 616 904 626 Q 887 636 875 641 Q 864 644 855 644 L 850 644 Q 845 643 830 638 Q 815 634 782 626 L 735 616 Q 721 614 631 600 L 529 583 Q 515 581 487 578 C 457 575 460 541 490 545 L 529 550 L 645 570 L 765 585 Q 799 590 813 590 L 823 590 Q 844 590 851 583 Q 860 574 862 560 Q 864 546 865 508 L 867 462 L 863 172 L 861 100 L 861 76 Q 860 68 858 50 C 855 20 781 43 798 19 Z" fill="lightgray" />
    
      <path d="M 639 415 L 524 398 Q 518 398 517 393 L 517 391 Q 517 387 523 382 Q 531 376 547 376 L 571 376 Q 586 376 599 377 Q 613 378 635 380 L 685 388 L 785 402 Q 808 406 811 411 Q 812 414 812 417 Q 812 420 811 423 Q 807 430 791 436 Q 775 444 764 444 Q 755 444 738 439 L 693 426 L 639 415 Z" fill="lightgray" />
    
      <path d="M 635 380 L 621 273 C 617 243 656 250 662 279 L 685 388 L 693 426 L 698 448 Q 703 468 707 478 L 717 502 Q 720 507 720 510 L 720 511 Q 720 514 713 521 Q 707 528 698 534 Q 689 538 674 544 Q 659 550 649 550 Q 638 550 635 546 Q 634 543 634 541 L 634 538 Q 635 534 639 523 Q 643 512 645 494 Q 646 485 646 475 Q 646 466 645 457 L 639 415 L 635 380 Z" fill="lightgray" />
    
      <path d="M 588 268 L 575 273 L 553 278 Q 546 280 542 280 Q 539 280 537 279 Q 533 276 531 274 Q 531 271 539 262 Q 548 252 551 242 Q 553 232 555 217 Q 558 202 561 171 Q 564 139 566 127 Q 568 114 571 106 Q 575 98 579 95 Q 584 92 588 92 L 590 92 Q 596 94 597 100 L 597 114 L 597 148 L 595 241 C 594 266 594 266 588 268 Z" fill="lightgray" />
    
      <path d="M 621 273 L 588 268 C 558 264 566 235 595 241 L 609 244 L 649 253 L 691 260 Q 701 262 708 262 Q 712 262 715 261 Q 725 256 727 248 Q 728 245 728 241 Q 728 233 725 218 L 716 166 C 711 136 745 127 755 155 L 761 172 Q 763 178 773 198 Q 783 219 787 226 Q 792 234 799 240 Q 805 246 806 248 Q 809 252 809 258 Q 808 262 800 270 Q 792 277 777 284 Q 763 292 753 296 Q 743 299 737 299 L 725 296 L 711 291 Q 702 288 690 285 Q 678 282 662 279 L 621 273 Z" fill="lightgray" />
    
      <path d="M 597 114 L 741 132 L 763 134 Q 768 136 768 138 L 768 139 Q 768 141 762 148 L 755 155 C 740 170 740 170 716 166 L 597 148 C 567 144 567 110 597 114 Z" fill="lightgray" />
    
      <path d="M 469 -13 L 549 -9 Q 564 -8 607 -4 Q 651 0 689 5 L 798 19 C 828 23 885 36 858 50 L 835 62 Q 822 68 809 68 Q 804 69 799 69 Q 789 69 777 66 Q 758 64 745 62 Q 731 60 679 52 Q 627 44 603 40 Q 581 38 545 34 L 473 26 C 443 23 439 -14 469 -13 Z" fill="lightgray" />
    
    
      <clipPath id="make-me-a-hanzi-clip-0">
        <path d="M 289 456 L 309 485 L 328 516 Q 342 539 351 556 L 375 600 L 388 622 Q 393 631 396 634 Q 399 638 404 642 Q 409 646 411 649 Q 413 652 413 656 Q 413 660 410 666 Q 406 675 390 686 L 364 704 Q 355 710 347 710 L 342 710 Q 336 710 334 708 Q 331 704 330 697 L 329 676 Q 328 664 324 644 Q 319 626 309 600 Q 299 574 286 548 Q 273 521 255 490 L 216 428 L 177 370 Q 159 345 145 328 L 111 292 Q 97 276 95 273 L 79 258 Q 76 255 76 252 Q 76 251 77 250 Q 78 248 81 248 Q 83 248 86 249 L 99 255 Q 111 260 129 274 Q 147 287 167 305 Q 185 322 208 348 Q 231 374 245 394 L 269 426 L 289 456 Z" />
      </clipPath>
      <path clip-path="url(#make-me-a-hanzi-clip-0)" d="M 340 699 L 365 656 L 318 550 L 286 494 L 209 379 L 161 321 L 81 253" fill="none" id="make-me-a-hanzi-animation-0" stroke-dasharray="677 1354" stroke-linecap="round" />
    
      <clipPath id="make-me-a-hanzi-clip-1">
        <path d="M 269 426 L 273 417 Q 278 403 278 364 Q 279 326 279 318 L 273 121 Q 271 103 270 77 Q 268 51 265 35 Q 263 19 258 2 Q 253 -14 253 -20 Q 253 -26 256 -40 Q 259 -52 262 -60 Q 264 -68 269 -78 Q 274 -89 280 -97 Q 287 -106 290 -106 Q 293 -106 298 -101 Q 303 -96 308 -86 Q 313 -76 317 -63 Q 321 -49 323 -37 Q 323 -30 322 -14 Q 321 1 320 41 Q 319 81 319 88 L 321 278 Q 321 288 323 326 Q 326 364 327 372 Q 328 380 331 388 Q 336 403 336 411 Q 336 413 335 415 Q 335 421 324 430 Q 314 440 305 446 Q 295 452 289 456 C 264 472 259 454 269 426 Z" />
      </clipPath>
      <path clip-path="url(#make-me-a-hanzi-clip-1)" d="M 289 449 L 305 407 L 288 -14 L 290 -96" fill="none" id="make-me-a-hanzi-animation-1" stroke-dasharray="676 1352" stroke-linecap="round" />
    
      <clipPath id="make-me-a-hanzi-clip-2">
        <path d="M 487 578 L 473 586 Q 465 592 439 594 Q 435 595 431 595 Q 425 595 423 592 Q 419 589 419 586 L 419 583 Q 419 578 423 570 Q 429 560 433 545 Q 437 530 441 510 Q 443 484 443 445 Q 443 406 442 364 L 437 200 L 433 147 L 425 98 Q 419 74 413 54 Q 407 33 407 26 L 407 20 Q 407 14 408 6 Q 410 -6 415 -18 Q 420 -31 428 -42 Q 439 -58 447 -58 Q 455 -58 460 -50 Q 465 -42 467 -29 L 469 -13 L 473 26 L 478 157 L 490 545 C 491 575 491 576 487 578 Z" />
      </clipPath>
      <path clip-path="url(#make-me-a-hanzi-clip-2)" d="M 428 585 L 459 559 L 466 491 L 459 196 L 439 15 L 448 -45" fill="none" id="make-me-a-hanzi-animation-2" stroke-dasharray="775 1550" stroke-linecap="round" />
    
      <clipPath id="make-me-a-hanzi-clip-3">
        <path d="M 798 19 L 823 -16 Q 831 -27 840 -44 Q 849 -62 855 -68 Q 861 -74 867 -74 L 869 -74 Q 879 -74 893 -58 Q 909 -40 917 -21 Q 925 -2 927 31 L 923 147 L 924 408 Q 924 463 925 482 Q 925 500 929 520 Q 931 540 934 546 Q 937 553 943 562 Q 951 574 951 581 Q 951 587 945 594 Q 939 602 929 609 Q 920 616 904 626 Q 887 636 875 641 Q 864 644 855 644 L 850 644 Q 845 643 830 638 Q 815 634 782 626 L 735 616 Q 721 614 631 600 L 529 583 Q 515 581 487 578 C 457 575 460 541 490 545 L 529 550 L 645 570 L 765 585 Q 799 590 813 590 L 823 590 Q 844 590 851 583 Q 860 574 862 560 Q 864 546 865 508 L 867 462 L 863 172 L 861 100 L 861 76 Q 860 68 858 50 C 855 20 781 43 798 19 Z" />
      </clipPath>
      <path clip-path="url(#make-me-a-hanzi-clip-3)" d="M 496 551 L 513 565 L 844 615 L 874 606 L 902 576 L 895 502 L 892 37 L 872 1 L 807 17" fill="none" id="make-me-a-hanzi-animation-3" stroke-dasharray="1205 2410" stroke-linecap="round" />
    
      <clipPath id="make-me-a-hanzi-clip-4">
        <path d="M 639 415 L 524 398 Q 518 398 517 393 L 517 391 Q 517 387 523 382 Q 531 376 547 376 L 571 376 Q 586 376 599 377 Q 613 378 635 380 L 685 388 L 785 402 Q 808 406 811 411 Q 812 414 812 417 Q 812 420 811 423 Q 807 430 791 436 Q 775 444 764 444 Q 755 444 738 439 L 693 426 L 639 415 Z" />
      </clipPath>
      <path clip-path="url(#make-me-a-hanzi-clip-4)" d="M 523 392 L 553 388 L 627 395 L 767 422 L 803 415" fill="none" id="make-me-a-hanzi-animation-4" stroke-dasharray="412 824" stroke-linecap="round" />
    
      <clipPath id="make-me-a-hanzi-clip-5">
        <path d="M 635 380 L 621 273 C 617 243 656 250 662 279 L 685 388 L 693 426 L 698 448 Q 703 468 707 478 L 717 502 Q 720 507 720 510 L 720 511 Q 720 514 713 521 Q 707 528 698 534 Q 689 538 674 544 Q 659 550 649 550 Q 638 550 635 546 Q 634 543 634 541 L 634 538 Q 635 534 639 523 Q 643 512 645 494 Q 646 485 646 475 Q 646 466 645 457 L 639 415 L 635 380 Z" />
      </clipPath>
      <path clip-path="url(#make-me-a-hanzi-clip-5)" d="M 644 542 L 670 516 L 679 497 L 645 297 L 627 280" fill="none" id="make-me-a-hanzi-animation-5" stroke-dasharray="413 826" stroke-linecap="round" />
    
      <clipPath id="make-me-a-hanzi-clip-6">
        <path d="M 588 268 L 575 273 L 553 278 Q 546 280 542 280 Q 539 280 537 279 Q 533 276 531 274 Q 531 271 539 262 Q 548 252 551 242 Q 553 232 555 217 Q 558 202 561 171 Q 564 139 566 127 Q 568 114 571 106 Q 575 98 579 95 Q 584 92 588 92 L 590 92 Q 596 94 597 100 L 597 114 L 597 148 L 595 241 C 594 266 594 266 588 268 Z" />
      </clipPath>
      <path clip-path="url(#make-me-a-hanzi-clip-6)" d="M 539 271 L 570 252 L 581 124 L 589 100" fill="none" id="make-me-a-hanzi-animation-6" stroke-dasharray="318 636" stroke-linecap="round" />
    
      <clipPath id="make-me-a-hanzi-clip-7">
        <path d="M 621 273 L 588 268 C 558 264 566 235 595 241 L 609 244 L 649 253 L 691 260 Q 701 262 708 262 Q 712 262 715 261 Q 725 256 727 248 Q 728 245 728 241 Q 728 233 725 218 L 716 166 C 711 136 745 127 755 155 L 761 172 Q 763 178 773 198 Q 783 219 787 226 Q 792 234 799 240 Q 805 246 806 248 Q 809 252 809 258 Q 808 262 800 270 Q 792 277 777 284 Q 763 292 753 296 Q 743 299 737 299 L 725 296 L 711 291 Q 702 288 690 285 Q 678 282 662 279 L 621 273 Z" />
      </clipPath>
      <path clip-path="url(#make-me-a-hanzi-clip-7)" d="M 594 262 L 613 258 L 703 275 L 738 275 L 762 249 L 741 180 L 750 162" fill="none" id="make-me-a-hanzi-animation-7" stroke-dasharray="402 804" stroke-linecap="round" />
    
      <clipPath id="make-me-a-hanzi-clip-8">
        <path d="M 597 114 L 741 132 L 763 134 Q 768 136 768 138 L 768 139 Q 768 141 762 148 L 755 155 C 740 170 740 170 716 166 L 597 148 C 567 144 567 110 597 114 Z" />
      </clipPath>
      <path clip-path="url(#make-me-a-hanzi-clip-8)" d="M 604 120 L 622 135 L 711 147 L 764 139" fill="none" id="make-me-a-hanzi-animation-8" stroke-dasharray="295 590" stroke-linecap="round" />
    
      <clipPath id="make-me-a-hanzi-clip-9">
        <path d="M 469 -13 L 549 -9 Q 564 -8 607 -4 Q 651 0 689 5 L 798 19 C 828 23 885 36 858 50 L 835 62 Q 822 68 809 68 Q 804 69 799 69 Q 789 69 777 66 Q 758 64 745 62 Q 731 60 679 52 Q 627 44 603 40 Q 581 38 545 34 L 473 26 C 443 23 439 -14 469 -13 Z" />
      </clipPath>
      <path clip-path="url(#make-me-a-hanzi-clip-9)" d="M 475 -7 L 497 9 L 595 16 L 813 49 L 851 50" fill="none" id="make-me-a-hanzi-animation-9" stroke-dasharray="512 1024" stroke-linecap="round" />
    
  </g>
</svg>