<svg xmlns="http://www.w3.org/2000/svg" version="1.1" viewBox="0 0 1024 1024">
  <g stroke="lightgray" stroke-dasharray="1,1" stroke-width="1" transform="scale(4, 4)">
    <line x1="0" y1="0" x2="256" y2="256" />
    <line x1="256" y1="0" x2="0" y2="256" />
    <line x1="128" y1="0" x2="128" y2="256" />
    <line x1="0" y1="128" x2="256" y2="128" />
  </g>
  <g transform="scale(1.0, -1.0) translate(0.0, -801.50)">
    <style type="text/css">
      
        @keyframes keyframes0 {
          from {
            stroke: blue;
            stroke-dashoffset: 797;
            stroke-width: 128;
          }
          72% {
            animation-timing-function: step-end;
            stroke: blue;
            stroke-dashoffset: 0;
            stroke-width: 128;
          }
          to {
            stroke: black;
            stroke-width: 1024;
          }
        }
        #make-me-a-hanzi-animation-0 {
          animation: keyframes0 0.8986002604166666s both;
          animation-delay: 0s;
          animation-timing-function: linear;
        }
      
        @keyframes keyframes1 {
          from {
            stroke: blue;
            stroke-dashoffset: 736;
            stroke-width: 128;
          }
          71% {
            animation-timing-function: step-end;
            stroke: blue;
            stroke-dashoffset: 0;
            stroke-width: 128;
          }
          to {
            stroke: black;
            stroke-width: 1024;
          }
        }
        #make-me-a-hanzi-animation-1 {
          animation: keyframes1 0.8489583333333334s both;
          animation-delay: 0.8986002604166666s;
          animation-timing-function: linear;
        }
      
        @keyframes keyframes2 {
          from {
            stroke: blue;
            stroke-dashoffset: 396;
            stroke-width: 128;
          }
          56% {
            animation-timing-function: step-end;
            stroke: blue;
            stroke-dashoffset: 0;
            stroke-width: 128;
          }
          to {
            stroke: black;
            stroke-width: 1024;
          }
        }
        #make-me-a-hanzi-animation-2 {
          animation: keyframes2 0.572265625s both;
          animation-delay: 1.74755859375s;
          animation-timing-function: linear;
        }
      
        @keyframes keyframes3 {
          from {
            stroke: blue;
            stroke-dashoffset: 571;
            stroke-width: 128;
          }
          65% {
            animation-timing-function: step-end;
            stroke: blue;
            stroke-dashoffset: 0;
            stroke-width: 128;
          }
          to {
            stroke: black;
            stroke-width: 1024;
          }
        }
        #make-me-a-hanzi-animation-3 {
          animation: keyframes3 0.7146809895833334s both;
          animation-delay: 2.31982421875s;
          animation-timing-function: linear;
        }
      
        @keyframes keyframes4 {
          from {
            stroke: blue;
            stroke-dashoffset: 463;
            stroke-width: 128;
          }
          60% {
            animation-timing-function: step-end;
            stroke: blue;
            stroke-dashoffset: 0;
            stroke-width: 128;
          }
          to {
            stroke: black;
            stroke-width: 1024;
          }
        }
        #make-me-a-hanzi-animation-4 {
          animation: keyframes4 0.6267903645833334s both;
          animation-delay: 3.0345052083333335s;
          animation-timing-function: linear;
        }
      
        @keyframes keyframes5 {
          from {
            stroke: blue;
            stroke-dashoffset: 403;
            stroke-width: 128;
          }
          57% {
            animation-timing-function: step-end;
            stroke: blue;
            stroke-dashoffset: 0;
            stroke-width: 128;
          }
          to {
            stroke: black;
            stroke-width: 1024;
          }
        }
        #make-me-a-hanzi-animation-5 {
          animation: keyframes5 0.5779622395833334s both;
          animation-delay: 3.661295572916667s;
          animation-timing-function: linear;
        }
      
        @keyframes keyframes6 {
          from {
            stroke: blue;
            stroke-dashoffset: 677;
            stroke-width: 128;
          }
          69% {
            animation-timing-function: step-end;
            stroke: blue;
            stroke-dashoffset: 0;
            stroke-width: 128;
          }
          to {
            stroke: black;
            stroke-width: 1024;
          }
        }
        #make-me-a-hanzi-animation-6 {
          animation: keyframes6 0.8009440104166666s both;
          animation-delay: 4.2392578125s;
          animation-timing-function: linear;
        }
      
        @keyframes keyframes7 {
          from {
            stroke: blue;
            stroke-dashoffset: 486;
            stroke-width: 128;
          }
          61% {
            animation-timing-function: step-end;
            stroke: blue;
            stroke-dashoffset: 0;
            stroke-width: 128;
          }
          to {
            stroke: black;
            stroke-width: 1024;
          }
        }
        #make-me-a-hanzi-animation-7 {
          animation: keyframes7 0.6455078125s both;
          animation-delay: 5.040201822916667s;
          animation-timing-function: linear;
        }
      
        @keyframes keyframes8 {
          from {
            stroke: blue;
            stroke-dashoffset: 653;
            stroke-width: 128;
          }
          68% {
            animation-timing-function: step-end;
            stroke: blue;
            stroke-dashoffset: 0;
            stroke-width: 128;
          }
          to {
            stroke: black;
            stroke-width: 1024;
          }
        }
        #make-me-a-hanzi-animation-8 {
          animation: keyframes8 0.7814127604166666s both;
          animation-delay: 5.685709635416667s;
          animation-timing-function: linear;
        }
      
        @keyframes keyframes9 {
          from {
            stroke: blue;
            stroke-dashoffset: 493;
            stroke-width: 128;
          }
          62% {
            animation-timing-function: step-end;
            stroke: blue;
            stroke-dashoffset: 0;
            stroke-width: 128;
          }
          to {
            stroke: black;
            stroke-width: 1024;
          }
        }
        #make-me-a-hanzi-animation-9 {
          animation: keyframes9 0.6512044270833334s both;
          animation-delay: 6.467122395833334s;
          animation-timing-function: linear;
        }
      
        @keyframes keyframes10 {
          from {
            stroke: blue;
            stroke-dashoffset: 794;
            stroke-width: 128;
          }
          72% {
            animation-timing-function: step-end;
            stroke: blue;
            stroke-dashoffset: 0;
            stroke-width: 128;
          }
          to {
            stroke: black;
            stroke-width: 1024;
          }
        }
        #make-me-a-hanzi-animation-10 {
          animation: keyframes10 0.8961588541666666s both;
          animation-delay: 7.118326822916667s;
          animation-timing-function: linear;
        }
      
        @keyframes keyframes11 {
          from {
            stroke: blue;
            stroke-dashoffset: 741;
            stroke-width: 128;
          }
          71% {
            animation-timing-function: step-end;
            stroke: blue;
            stroke-dashoffset: 0;
            stroke-width: 128;
          }
          to {
            stroke: black;
            stroke-width: 1024;
          }
        }
        #make-me-a-hanzi-animation-11 {
          animation: keyframes11 0.85302734375s both;
          animation-delay: 8.014485677083334s;
          animation-timing-function: linear;
        }
      
    </style>
    
      <path d="M 215 390 L 222 399 Q 225 402 233 419 L 260 468 Q 279 500 293 531 L 311 572 Q 317 588 323 597 Q 329 607 335 613 L 343 623 Q 347 628 347 632 Q 347 635 345 642 Q 342 649 329 663 Q 317 678 305 684 Q 292 690 285 690 Q 279 690 275 687 Q 273 684 272 678 L 272 664 Q 272 654 271 640 Q 269 627 265 605 Q 259 583 251 559 Q 242 534 222 495 Q 202 456 188 431 L 152 372 Q 131 338 117 320 Q 103 300 87 280 Q 71 260 64 253 L 53 240 Q 44 230 44 225 Q 44 223 45 222 Q 46 221 49 221 Q 52 221 58 225 L 73 235 Q 83 242 103 260 Q 123 278 140 296 Q 157 314 169 330 Q 181 345 189 356 L 215 390 Z" fill="lightgray" />
    
      <path d="M 189 356 L 193 340 Q 193 338 194 322 Q 195 293 195 284 Q 195 274 194 252 L 189 172 Q 187 136 185 116 Q 183 96 180 72 Q 177 48 173 31 L 165 -2 Q 160 -18 159 -25 Q 159 -36 161 -43 Q 163 -50 168 -63 L 175 -82 Q 180 -94 187 -102 Q 194 -111 199 -111 Q 203 -110 209 -104 Q 213 -98 218 -87 Q 223 -76 226 -67 Q 229 -58 229 -51 Q 231 -44 232 24 L 237 260 Q 237 264 239 278 Q 241 292 242 308 Q 243 326 245 333 Q 249 347 249 354 L 249 356 Q 248 361 240 370 Q 232 378 226 382 Q 221 386 215 390 C 191 408 182 385 189 356 Z" fill="lightgray" />
    
      <path d="M 491 483 L 497 494 Q 498 498 500 510 Q 501 518 501 524 Q 501 535 498 543 Q 494 555 483 565 Q 471 576 457 585 Q 443 595 433 601 L 421 607 Q 414 611 410 611 L 409 611 Q 405 611 402 608 Q 401 607 401 605 Q 401 602 404 594 L 409 576 L 415 558 Q 419 546 428 522 Q 437 499 443 491 Q 449 482 457 474 C 476 455 477 457 491 483 Z" fill="lightgray" />
    
      <path d="M 457 474 L 438 468 L 389 456 L 343 446 Q 319 439 313 438 L 300 436 Q 294 436 292 432 L 292 430 Q 292 427 294 423 Q 298 418 308 415 Q 319 412 331 411 L 338 411 Q 345 411 353 412 Q 365 414 394 420 L 441 432 Q 467 438 498 446 Q 529 455 549 459 Q 569 462 576 465 L 594 471 Q 609 476 610 480 L 610 482 Q 610 485 608 488 Q 605 492 592 495 Q 579 498 566 499 Q 557 500 552 500 L 547 500 Q 541 500 528 495 Q 515 490 508 488 L 491 483 L 457 474 Z" fill="lightgray" />
    
      <path d="M 285 220 Q 280 214 280 210 Q 280 208 281 206 Q 283 203 287 203 Q 291 203 296 206 L 311 216 Q 321 222 337 236 Q 353 250 373 271 L 409 310 Q 419 320 429 325 Q 438 330 439 332 Q 440 334 440 336 Q 440 339 437 341 Q 434 345 429 349 L 405 369 Q 395 376 387 377 L 383 377 Q 377 377 374 375 Q 371 372 368 356 Q 365 340 359 328 Q 353 316 339 292 Q 324 268 318 260 Q 312 252 300 238 L 285 220 Z" fill="lightgray" />
    
      <path d="M 471 410 Q 468 411 466 411 Q 462 411 461 408 L 461 407 Q 461 405 465 400 L 472 392 L 487 378 Q 487 376 513 348 L 535 323 Q 549 308 556 302 Q 564 296 570 296 L 572 296 Q 579 297 583 302 Q 587 308 589 316 Q 590 321 590 328 L 590 336 Q 588 348 580 356 Q 572 364 558 372 Q 544 381 531 387 Q 519 394 503 400 Q 489 406 481 408 L 471 410 Z" fill="lightgray" />
    
      <path d="M 427 132 L 409 104 Q 401 92 380 67 Q 358 43 339 27 L 310 5 Q 291 -10 284 -14 L 269 -22 Q 261 -27 261 -34 L 261 -35 Q 261 -39 265 -39 Q 267 -39 270 -38 L 291 -30 Q 309 -24 324 -17 Q 340 -10 359 3 Q 379 16 401 37 Q 424 58 435 72 Q 447 86 457 100 L 483 146 L 499 180 Q 505 190 513 209 Q 521 228 523 234 L 533 249 Q 540 257 541 260 Q 541 264 535 271 Q 530 278 518 284 Q 506 290 497 293 Q 487 296 481 298 Q 473 298 471 297 Q 467 295 466 292 Q 464 289 464 279 L 464 262 Q 464 252 463 241 Q 461 224 459 215 L 454 198 Q 451 190 445 172 L 427 132 Z" fill="lightgray" />
    
      <path d="M 445 172 L 429 182 Q 401 198 391 202 L 371 212 Q 365 214 361 214 Q 356 214 355 211 Q 354 209 354 208 Q 354 204 359 200 L 371 187 L 388 170 Q 395 164 405 154 Q 415 143 427 132 L 457 100 L 473 82 L 501 50 Q 512 38 521 36 L 525 36 Q 533 36 539 42 Q 548 50 550 66 L 550 70 Q 550 83 544 94 Q 537 106 520 118 Q 503 130 483 146 L 445 172 Z" fill="lightgray" />
    
      <path d="M 681 403 L 704 458 Q 717 490 723 509 Q 729 527 737 554 Q 745 581 751 591 L 764 610 Q 772 618 773 623 L 773 627 Q 773 633 768 640 Q 762 649 741 662 Q 719 674 713 677 Q 707 680 699 680 Q 691 680 687 675 Q 685 672 685 665 L 685 659 Q 687 648 687 636 Q 687 624 686 612 Q 685 602 680 568 Q 675 535 671 516 Q 667 498 657 464 L 634 385 L 617 328 L 609 308 Q 607 304 607 302 Q 607 298 611 296 L 613 296 Q 618 296 625 304 L 642 328 Q 648 336 653 346 Q 659 354 669 376 L 681 403 Z" fill="lightgray" />
    
      <path d="M 746 380 L 771 385 L 801 392 Q 808 393 825 397 Q 843 400 851 402 L 887 406 Q 908 408 911 411 Q 915 414 916 419 L 916 420 Q 916 425 907 430 Q 898 436 881 442 Q 865 448 857 449 L 848 449 Q 840 449 833 448 Q 823 445 803 437 Q 783 429 756 422 Q 729 414 681 403 C 652 396 640 383 669 376 L 685 372 Q 688 372 695 371 Q 703 371 716 374 L 746 380 Z" fill="lightgray" />
    
      <path d="M 716 374 L 718 362 L 723 341 Q 725 330 727 312 Q 728 303 728 294 Q 728 285 727 276 Q 727 260 723 230 Q 719 201 717 188 Q 715 174 708 144 L 694 110 L 679 83 Q 675 73 652 51 Q 630 28 613 16 Q 595 3 578 -7 L 545 -24 L 521 -35 Q 515 -37 515 -42 L 515 -45 Q 517 -49 523 -49 Q 525 -49 529 -48 L 555 -43 Q 574 -40 603 -27 Q 633 -14 652 -4 Q 671 6 686 23 Q 702 40 709 49 Q 717 58 723 68 L 746 108 L 762 153 Q 765 160 771 193 Q 777 226 781 243 Q 784 261 785 280 Q 787 300 789 306 Q 791 313 796 320 Q 801 329 801 333 L 801 334 Q 801 338 796 344 Q 791 350 779 358 L 746 380 C 721 397 710 403 716 374 Z" fill="lightgray" />
    
      <path d="M 708 144 L 694 162 L 675 181 Q 659 195 650 204 Q 641 214 635 218 Q 629 222 620 226 Q 611 228 600 228 Q 589 228 586 224 Q 584 221 584 218 L 584 216 Q 585 212 587 210 Q 589 208 598 207 Q 607 205 615 200 Q 623 194 642 172 Q 662 150 672 138 L 694 110 L 723 68 L 751 32 L 780 -2 L 816 -44 Q 834 -62 848 -68 Q 860 -72 876 -72 L 883 -72 Q 899 -72 915 -70 Q 931 -67 954 -60 L 976 -54 Q 987 -50 988 -43 L 988 -40 Q 988 -35 981 -32 L 925 -12 Q 909 -6 884 7 Q 859 20 845 29 Q 830 38 811 51 Q 793 65 778 78 Q 763 90 746 108 L 708 144 Z" fill="lightgray" />
    
    
      <clipPath id="make-me-a-hanzi-clip-0">
        <path d="M 215 390 L 222 399 Q 225 402 233 419 L 260 468 Q 279 500 293 531 L 311 572 Q 317 588 323 597 Q 329 607 335 613 L 343 623 Q 347 628 347 632 Q 347 635 345 642 Q 342 649 329 663 Q 317 678 305 684 Q 292 690 285 690 Q 279 690 275 687 Q 273 684 272 678 L 272 664 Q 272 654 271 640 Q 269 627 265 605 Q 259 583 251 559 Q 242 534 222 495 Q 202 456 188 431 L 152 372 Q 131 338 117 320 Q 103 300 87 280 Q 71 260 64 253 L 53 240 Q 44 230 44 225 Q 44 223 45 222 Q 46 221 49 221 Q 52 221 58 225 L 73 235 Q 83 242 103 260 Q 123 278 140 296 Q 157 314 169 330 Q 181 345 189 356 L 215 390 Z" />
      </clipPath>
      <path clip-path="url(#make-me-a-hanzi-clip-0)" d="M 283 679 L 307 635 L 251 498 L 210 422 L 151 336 L 90 263 L 48 225" fill="none" id="make-me-a-hanzi-animation-0" stroke-dasharray="669 1338" stroke-linecap="round" />
    
      <clipPath id="make-me-a-hanzi-clip-1">
        <path d="M 189 356 L 193 340 Q 193 338 194 322 Q 195 293 195 284 Q 195 274 194 252 L 189 172 Q 187 136 185 116 Q 183 96 180 72 Q 177 48 173 31 L 165 -2 Q 160 -18 159 -25 Q 159 -36 161 -43 Q 163 -50 168 -63 L 175 -82 Q 180 -94 187 -102 Q 194 -111 199 -111 Q 203 -110 209 -104 Q 213 -98 218 -87 Q 223 -76 226 -67 Q 229 -58 229 -51 Q 231 -44 232 24 L 237 260 Q 237 264 239 278 Q 241 292 242 308 Q 243 326 245 333 Q 249 347 249 354 L 249 356 Q 248 361 240 370 Q 232 378 226 382 Q 221 386 215 390 C 191 408 182 385 189 356 Z" />
      </clipPath>
      <path clip-path="url(#make-me-a-hanzi-clip-1)" d="M 216 380 L 220 346 L 211 127 L 195 -27 L 198 -99" fill="none" id="make-me-a-hanzi-animation-1" stroke-dasharray="608 1216" stroke-linecap="round" />
    
      <clipPath id="make-me-a-hanzi-clip-2">
        <path d="M 491 483 L 497 494 Q 498 498 500 510 Q 501 518 501 524 Q 501 535 498 543 Q 494 555 483 565 Q 471 576 457 585 Q 443 595 433 601 L 421 607 Q 414 611 410 611 L 409 611 Q 405 611 402 608 Q 401 607 401 605 Q 401 602 404 594 L 409 576 L 415 558 Q 419 546 428 522 Q 437 499 443 491 Q 449 482 457 474 C 476 455 477 457 491 483 Z" />
      </clipPath>
      <path clip-path="url(#make-me-a-hanzi-clip-2)" d="M 408 604 L 463 533 L 468 509 L 460 485" fill="none" id="make-me-a-hanzi-animation-2" stroke-dasharray="268 536" stroke-linecap="round" />
    
      <clipPath id="make-me-a-hanzi-clip-3">
        <path d="M 457 474 L 438 468 L 389 456 L 343 446 Q 319 439 313 438 L 300 436 Q 294 436 292 432 L 292 430 Q 292 427 294 423 Q 298 418 308 415 Q 319 412 331 411 L 338 411 Q 345 411 353 412 Q 365 414 394 420 L 441 432 Q 467 438 498 446 Q 529 455 549 459 Q 569 462 576 465 L 594 471 Q 609 476 610 480 L 610 482 Q 610 485 608 488 Q 605 492 592 495 Q 579 498 566 499 Q 557 500 552 500 L 547 500 Q 541 500 528 495 Q 515 490 508 488 L 491 483 L 457 474 Z" />
      </clipPath>
      <path clip-path="url(#make-me-a-hanzi-clip-3)" d="M 298 431 L 316 425 L 344 428 L 539 478 L 605 481" fill="none" id="make-me-a-hanzi-animation-3" stroke-dasharray="443 886" stroke-linecap="round" />
    
      <clipPath id="make-me-a-hanzi-clip-4">
        <path d="M 285 220 Q 280 214 280 210 Q 280 208 281 206 Q 283 203 287 203 Q 291 203 296 206 L 311 216 Q 321 222 337 236 Q 353 250 373 271 L 409 310 Q 419 320 429 325 Q 438 330 439 332 Q 440 334 440 336 Q 440 339 437 341 Q 434 345 429 349 L 405 369 Q 395 376 387 377 L 383 377 Q 377 377 374 375 Q 371 372 368 356 Q 365 340 359 328 Q 353 316 339 292 Q 324 268 318 260 Q 312 252 300 238 L 285 220 Z" />
      </clipPath>
      <path clip-path="url(#make-me-a-hanzi-clip-4)" d="M 434 336 L 394 337 L 355 279 L 287 210" fill="none" id="make-me-a-hanzi-animation-4" stroke-dasharray="335 670" stroke-linecap="round" />
    
      <clipPath id="make-me-a-hanzi-clip-5">
        <path d="M 471 410 Q 468 411 466 411 Q 462 411 461 408 L 461 407 Q 461 405 465 400 L 472 392 L 487 378 Q 487 376 513 348 L 535 323 Q 549 308 556 302 Q 564 296 570 296 L 572 296 Q 579 297 583 302 Q 587 308 589 316 Q 590 321 590 328 L 590 336 Q 588 348 580 356 Q 572 364 558 372 Q 544 381 531 387 Q 519 394 503 400 Q 489 406 481 408 L 471 410 Z" />
      </clipPath>
      <path clip-path="url(#make-me-a-hanzi-clip-5)" d="M 465 408 L 558 339 L 571 311" fill="none" id="make-me-a-hanzi-animation-5" stroke-dasharray="275 550" stroke-linecap="round" />
    
      <clipPath id="make-me-a-hanzi-clip-6">
        <path d="M 427 132 L 409 104 Q 401 92 380 67 Q 358 43 339 27 L 310 5 Q 291 -10 284 -14 L 269 -22 Q 261 -27 261 -34 L 261 -35 Q 261 -39 265 -39 Q 267 -39 270 -38 L 291 -30 Q 309 -24 324 -17 Q 340 -10 359 3 Q 379 16 401 37 Q 424 58 435 72 Q 447 86 457 100 L 483 146 L 499 180 Q 505 190 513 209 Q 521 228 523 234 L 533 249 Q 540 257 541 260 Q 541 264 535 271 Q 530 278 518 284 Q 506 290 497 293 Q 487 296 481 298 Q 473 298 471 297 Q 467 295 466 292 Q 464 289 464 279 L 464 262 Q 464 252 463 241 Q 461 224 459 215 L 454 198 Q 451 190 445 172 L 427 132 Z" />
      </clipPath>
      <path clip-path="url(#make-me-a-hanzi-clip-6)" d="M 477 286 L 497 256 L 475 184 L 442 116 L 374 35 L 333 4 L 266 -34" fill="none" id="make-me-a-hanzi-animation-6" stroke-dasharray="549 1098" stroke-linecap="round" />
    
      <clipPath id="make-me-a-hanzi-clip-7">
        <path d="M 445 172 L 429 182 Q 401 198 391 202 L 371 212 Q 365 214 361 214 Q 356 214 355 211 Q 354 209 354 208 Q 354 204 359 200 L 371 187 L 388 170 Q 395 164 405 154 Q 415 143 427 132 L 457 100 L 473 82 L 501 50 Q 512 38 521 36 L 525 36 Q 533 36 539 42 Q 548 50 550 66 L 550 70 Q 550 83 544 94 Q 537 106 520 118 Q 503 130 483 146 L 445 172 Z" />
      </clipPath>
      <path clip-path="url(#make-me-a-hanzi-clip-7)" d="M 361 208 L 440 150 L 507 90 L 520 73 L 523 53" fill="none" id="make-me-a-hanzi-animation-7" stroke-dasharray="358 716" stroke-linecap="round" />
    
      <clipPath id="make-me-a-hanzi-clip-8">
        <path d="M 681 403 L 704 458 Q 717 490 723 509 Q 729 527 737 554 Q 745 581 751 591 L 764 610 Q 772 618 773 623 L 773 627 Q 773 633 768 640 Q 762 649 741 662 Q 719 674 713 677 Q 707 680 699 680 Q 691 680 687 675 Q 685 672 685 665 L 685 659 Q 687 648 687 636 Q 687 624 686 612 Q 685 602 680 568 Q 675 535 671 516 Q 667 498 657 464 L 634 385 L 617 328 L 609 308 Q 607 304 607 302 Q 607 298 611 296 L 613 296 Q 618 296 625 304 L 642 328 Q 648 336 653 346 Q 659 354 669 376 L 681 403 Z" />
      </clipPath>
      <path clip-path="url(#make-me-a-hanzi-clip-8)" d="M 697 668 L 726 625 L 686 474 L 646 365 L 612 301" fill="none" id="make-me-a-hanzi-animation-8" stroke-dasharray="525 1050" stroke-linecap="round" />
    
      <clipPath id="make-me-a-hanzi-clip-9">
        <path d="M 746 380 L 771 385 L 801 392 Q 808 393 825 397 Q 843 400 851 402 L 887 406 Q 908 408 911 411 Q 915 414 916 419 L 916 420 Q 916 425 907 430 Q 898 436 881 442 Q 865 448 857 449 L 848 449 Q 840 449 833 448 Q 823 445 803 437 Q 783 429 756 422 Q 729 414 681 403 C 652 396 640 383 669 376 L 685 372 Q 688 372 695 371 Q 703 371 716 374 L 746 380 Z" />
      </clipPath>
      <path clip-path="url(#make-me-a-hanzi-clip-9)" d="M 675 382 L 834 424 L 906 420" fill="none" id="make-me-a-hanzi-animation-9" stroke-dasharray="365 730" stroke-linecap="round" />
    
      <clipPath id="make-me-a-hanzi-clip-10">
        <path d="M 716 374 L 718 362 L 723 341 Q 725 330 727 312 Q 728 303 728 294 Q 728 285 727 276 Q 727 260 723 230 Q 719 201 717 188 Q 715 174 708 144 L 694 110 L 679 83 Q 675 73 652 51 Q 630 28 613 16 Q 595 3 578 -7 L 545 -24 L 521 -35 Q 515 -37 515 -42 L 515 -45 Q 517 -49 523 -49 Q 525 -49 529 -48 L 555 -43 Q 574 -40 603 -27 Q 633 -14 652 -4 Q 671 6 686 23 Q 702 40 709 49 Q 717 58 723 68 L 746 108 L 762 153 Q 765 160 771 193 Q 777 226 781 243 Q 784 261 785 280 Q 787 300 789 306 Q 791 313 796 320 Q 801 329 801 333 L 801 334 Q 801 338 796 344 Q 791 350 779 358 L 746 380 C 721 397 710 403 716 374 Z" />
      </clipPath>
      <path clip-path="url(#make-me-a-hanzi-clip-10)" d="M 725 369 L 741 358 L 761 328 L 744 188 L 722 113 L 690 59 L 648 17 L 591 -17 L 521 -43" fill="none" id="make-me-a-hanzi-animation-10" stroke-dasharray="666 1332" stroke-linecap="round" />
    
      <clipPath id="make-me-a-hanzi-clip-11">
        <path d="M 708 144 L 694 162 L 675 181 Q 659 195 650 204 Q 641 214 635 218 Q 629 222 620 226 Q 611 228 600 228 Q 589 228 586 224 Q 584 221 584 218 L 584 216 Q 585 212 587 210 Q 589 208 598 207 Q 607 205 615 200 Q 623 194 642 172 Q 662 150 672 138 L 694 110 L 723 68 L 751 32 L 780 -2 L 816 -44 Q 834 -62 848 -68 Q 860 -72 876 -72 L 883 -72 Q 899 -72 915 -70 Q 931 -67 954 -60 L 976 -54 Q 987 -50 988 -43 L 988 -40 Q 988 -35 981 -32 L 925 -12 Q 909 -6 884 7 Q 859 20 845 29 Q 830 38 811 51 Q 793 65 778 78 Q 763 90 746 108 L 708 144 Z" />
      </clipPath>
      <path clip-path="url(#make-me-a-hanzi-clip-11)" d="M 594 217 L 619 213 L 630 205 L 787 33 L 849 -20 L 907 -39 L 978 -41" fill="none" id="make-me-a-hanzi-animation-11" stroke-dasharray="613 1226" stroke-linecap="round" />
    
  </g>
</svg>