<svg version="1.1" viewBox="0 0 1024 1024" xmlns="http://www.w3.org/2000/svg">
  <g stroke="lightgray" stroke-dasharray="1,1" stroke-width="1" transform="scale(4, 4)">
    <line x1="0" y1="0" x2="256" y2="256"></line>
    <line x1="256" y1="0" x2="0" y2="256"></line>
    <line x1="128" y1="0" x2="128" y2="256"></line>
    <line x1="0" y1="128" x2="256" y2="128"></line>
  </g>
  <g transform="scale(0.92, -0.92) translate(60, -830)">
    <style type="text/css">
      
        @keyframes keyframes0 {
          from {
            stroke: blue;
            stroke-dashoffset: 604;
            stroke-width: 128;
          }
          66% {
            animation-timing-function: step-end;
            stroke: blue;
            stroke-dashoffset: 0;
            stroke-width: 128;
          }
          to {
            stroke: black;
            stroke-width: 1024;
          }
        }
        #make-me-a-hanzi-animation-0 {
          animation: keyframes0 0.7415364583333334s both;
          animation-delay: 0s;
          animation-timing-function: linear;
        }
      
        @keyframes keyframes1 {
          from {
            stroke: blue;
            stroke-dashoffset: 758;
            stroke-width: 128;
          }
          71% {
            animation-timing-function: step-end;
            stroke: blue;
            stroke-dashoffset: 0;
            stroke-width: 128;
          }
          to {
            stroke: black;
            stroke-width: 1024;
          }
        }
        #make-me-a-hanzi-animation-1 {
          animation: keyframes1 0.8668619791666666s both;
          animation-delay: 0.7415364583333334s;
          animation-timing-function: linear;
        }
      
        @keyframes keyframes2 {
          from {
            stroke: blue;
            stroke-dashoffset: 583;
            stroke-width: 128;
          }
          65% {
            animation-timing-function: step-end;
            stroke: blue;
            stroke-dashoffset: 0;
            stroke-width: 128;
          }
          to {
            stroke: black;
            stroke-width: 1024;
          }
        }
        #make-me-a-hanzi-animation-2 {
          animation: keyframes2 0.7244466145833334s both;
          animation-delay: 1.6083984375s;
          animation-timing-function: linear;
        }
      
        @keyframes keyframes3 {
          from {
            stroke: blue;
            stroke-dashoffset: 507;
            stroke-width: 128;
          }
          62% {
            animation-timing-function: step-end;
            stroke: blue;
            stroke-dashoffset: 0;
            stroke-width: 128;
          }
          to {
            stroke: black;
            stroke-width: 1024;
          }
        }
        #make-me-a-hanzi-animation-3 {
          animation: keyframes3 0.66259765625s both;
          animation-delay: 2.3328450520833335s;
          animation-timing-function: linear;
        }
      
        @keyframes keyframes4 {
          from {
            stroke: blue;
            stroke-dashoffset: 683;
            stroke-width: 128;
          }
          69% {
            animation-timing-function: step-end;
            stroke: blue;
            stroke-dashoffset: 0;
            stroke-width: 128;
          }
          to {
            stroke: black;
            stroke-width: 1024;
          }
        }
        #make-me-a-hanzi-animation-4 {
          animation: keyframes4 0.8058268229166666s both;
          animation-delay: 2.9954427083333335s;
          animation-timing-function: linear;
        }
      
        @keyframes keyframes5 {
          from {
            stroke: blue;
            stroke-dashoffset: 482;
            stroke-width: 128;
          }
          61% {
            animation-timing-function: step-end;
            stroke: blue;
            stroke-dashoffset: 0;
            stroke-width: 128;
          }
          to {
            stroke: black;
            stroke-width: 1024;
          }
        }
        #make-me-a-hanzi-animation-5 {
          animation: keyframes5 0.6422526041666666s both;
          animation-delay: 3.80126953125s;
          animation-timing-function: linear;
        }
      
        @keyframes keyframes6 {
          from {
            stroke: blue;
            stroke-dashoffset: 613;
            stroke-width: 128;
          }
          67% {
            animation-timing-function: step-end;
            stroke: blue;
            stroke-dashoffset: 0;
            stroke-width: 128;
          }
          to {
            stroke: black;
            stroke-width: 1024;
          }
        }
        #make-me-a-hanzi-animation-6 {
          animation: keyframes6 0.7488606770833334s both;
          animation-delay: 4.443522135416667s;
          animation-timing-function: linear;
        }
      
        @keyframes keyframes7 {
          from {
            stroke: blue;
            stroke-dashoffset: 1184;
            stroke-width: 128;
          }
          79% {
            animation-timing-function: step-end;
            stroke: blue;
            stroke-dashoffset: 0;
            stroke-width: 128;
          }
          to {
            stroke: black;
            stroke-width: 1024;
          }
        }
        #make-me-a-hanzi-animation-7 {
          animation: keyframes7 1.2135416666666667s both;
          animation-delay: 5.1923828125s;
          animation-timing-function: linear;
        }
      
    </style>
    
      <path d="M 380 538 L 412 548 L 459 566 L 496 580 Q 507 585 518 587 Q 529 590 533 592 Q 537 594 540 600 Q 541 602 541 604 Q 541 609 537 617 Q 532 627 515 640 Q 497 654 490 656 Q 483 659 479 660 L 475 660 Q 472 660 469 659 Q 465 658 460 650 Q 455 642 443 631 Q 431 620 411 606 Q 391 592 362 578 Q 334 563 309 552 Q 285 542 261 534 Q 238 526 221 522 L 205 518 Q 193 515 193 509 L 193 508 Q 195 502 203 502 L 229 504 Q 243 504 271 508 Q 298 512 315 517 Q 332 521 349 526 L 380 538 Z" fill="lightgray"></path>
    
      <path d="M 355 386 L 197 359 Q 176 355 155 354 L 112 350 Q 97 348 95 345 Q 94 344 94 342 Q 94 339 96 335 Q 98 328 119 316 L 149 300 Q 161 294 172 294 L 175 294 Q 179 295 192 300 Q 205 305 228 312 Q 251 319 265 322 L 351 339 L 409 349 L 489 363 Q 491 364 545 368 L 567 370 Q 585 372 594 376 Q 603 381 604 387 Q 604 392 597 398 Q 591 404 582 408 Q 573 413 563 417 Q 554 420 544 420 L 539 420 L 503 412 L 417 398 L 355 386 Z" fill="lightgray"></path>
    
      <path d="M 351 339 L 341 218 C 339 188 383 197 388 227 L 409 349 L 417 398 L 425 433 Q 429 458 435 472 Q 441 486 441 492 Q 441 498 438 505 Q 435 512 419 520 Q 405 528 380 538 C 352 549 340 554 349 526 L 358 497 Q 361 488 361 470 Q 361 460 359 434 Q 356 408 355 386 L 351 339 Z" fill="lightgray"></path>
    
      <path d="M 257 202 L 227 208 L 207 210 Q 199 210 197 206 L 197 204 Q 197 200 202 194 L 213 180 Q 223 167 225 157 Q 227 148 231 123 L 243 30 Q 248 -12 256 -24 Q 264 -34 271 -34 L 273 -34 Q 281 -33 284 -23 Q 287 -14 287 -4 L 287 2 L 289 35 L 273 170 C 270 199 270 199 257 202 Z" fill="lightgray"></path>
    
      <path d="M 341 218 L 257 202 C 228 196 245 159 273 170 L 289 176 Q 314 184 343 192 Q 373 200 403 204 Q 434 208 449 208 L 457 208 Q 469 208 473 206 Q 479 202 481 198 Q 483 194 484 190 Q 484 186 483 183 L 461 62 C 456 32 496 17 507 45 L 521 80 Q 541 131 547 141 Q 554 151 565 164 Q 577 178 580 184 Q 584 190 585 194 Q 585 202 575 212 Q 565 222 548 232 Q 531 242 523 245 Q 514 248 507 248 Q 503 248 481 243 Q 459 238 439 235 Q 419 233 388 227 L 341 218 Z" fill="lightgray"></path>
    
      <path d="M 287 2 L 501 21 Q 512 22 515 24 Q 518 26 519 30 L 519 31 Q 519 36 507 45 C 489 60 489 60 461 62 L 447 63 L 445 63 Q 440 63 425 59 Q 407 55 371 49 L 313 39 Q 305 38 289 35 C 259 30 257 -1 287 2 Z" fill="lightgray"></path>
    
      <path d="M 744 401 Q 744 418 749 433 Q 754 446 754 453 L 754 455 Q 753 462 748 466 Q 743 471 733 475 L 707 484 Q 696 487 690 487 Q 687 487 685 486 Q 679 483 678 479 L 678 477 Q 678 473 681 464 Q 685 454 689 433 L 692 401 L 693 270 Q 693 258 691 238 Q 690 218 689 211 Q 689 204 687 194 Q 686 185 686 179 L 686 174 Q 687 167 691 157 Q 696 148 705 134 Q 712 125 715 125 Q 719 126 723 129 Q 727 132 732 140 Q 736 148 739 158 Q 743 167 743 180 L 743 202 Q 742 213 742 221 L 742 230 L 743 248 L 744 401 Z" fill="lightgray"></path>
    
      <path d="M 759 -16 Q 755 -15 753 -15 Q 747 -15 745 -18 Q 744 -19 744 -21 Q 744 -23 747 -26 L 759 -40 L 785 -65 Q 801 -81 805 -86 Q 809 -90 827 -111 Q 845 -132 855 -140 Q 865 -149 872 -149 L 873 -149 Q 880 -149 887 -143 Q 895 -136 901 -122 Q 908 -107 911 -98 Q 916 -82 916 -63 L 916 -56 Q 916 -32 913 8 Q 909 48 909 71 L 911 510 L 915 572 Q 915 606 918 614 Q 921 622 929 638 Q 934 648 934 656 L 934 658 Q 933 666 922 677 Q 910 688 889 697 Q 867 706 849 712 Q 839 716 831 716 Q 827 716 823 714 Q 815 710 813 704 Q 812 701 812 698 Q 812 696 813 693 Q 815 688 823 674 Q 831 659 836 639 Q 841 620 846 592 Q 851 566 851 540 L 852 90 Q 852 13 849 -7 Q 845 -27 841 -30 Q 837 -34 829 -34 L 827 -34 Q 817 -34 793 -26 L 771 -20 L 759 -16 Z" fill="lightgray"></path>
    
    
      <clipPath id="make-me-a-hanzi-clip-0">
        <path d="M 380 538 L 412 548 L 459 566 L 496 580 Q 507 585 518 587 Q 529 590 533 592 Q 537 594 540 600 Q 541 602 541 604 Q 541 609 537 617 Q 532 627 515 640 Q 497 654 490 656 Q 483 659 479 660 L 475 660 Q 472 660 469 659 Q 465 658 460 650 Q 455 642 443 631 Q 431 620 411 606 Q 391 592 362 578 Q 334 563 309 552 Q 285 542 261 534 Q 238 526 221 522 L 205 518 Q 193 515 193 509 L 193 508 Q 195 502 203 502 L 229 504 Q 243 504 271 508 Q 298 512 315 517 Q 332 521 349 526 L 380 538 Z"></path>
      </clipPath>
      <path clip-path="url(#make-me-a-hanzi-clip-0)" d="M 525 606 L 483 616 L 399 569 L 317 535 L 200 509" fill="none" id="make-me-a-hanzi-animation-0" stroke-dasharray="476 952" stroke-linecap="round"></path>
    
      <clipPath id="make-me-a-hanzi-clip-1">
        <path d="M 355 386 L 197 359 Q 176 355 155 354 L 112 350 Q 97 348 95 345 Q 94 344 94 342 Q 94 339 96 335 Q 98 328 119 316 L 149 300 Q 161 294 172 294 L 175 294 Q 179 295 192 300 Q 205 305 228 312 Q 251 319 265 322 L 351 339 L 409 349 L 489 363 Q 491 364 545 368 L 567 370 Q 585 372 594 376 Q 603 381 604 387 Q 604 392 597 398 Q 591 404 582 408 Q 573 413 563 417 Q 554 420 544 420 L 539 420 L 503 412 L 417 398 L 355 386 Z"></path>
      </clipPath>
      <path clip-path="url(#make-me-a-hanzi-clip-1)" d="M 100 342 L 170 324 L 471 384 L 539 394 L 593 387" fill="none" id="make-me-a-hanzi-animation-1" stroke-dasharray="630 1260" stroke-linecap="round"></path>
    
      <clipPath id="make-me-a-hanzi-clip-2">
        <path d="M 351 339 L 341 218 C 339 188 383 197 388 227 L 409 349 L 417 398 L 425 433 Q 429 458 435 472 Q 441 486 441 492 Q 441 498 438 505 Q 435 512 419 520 Q 405 528 380 538 C 352 549 340 554 349 526 L 358 497 Q 361 488 361 470 Q 361 460 359 434 Q 356 408 355 386 L 351 339 Z"></path>
      </clipPath>
      <path clip-path="url(#make-me-a-hanzi-clip-2)" d="M 357 521 L 380 510 L 399 487 L 367 247 L 348 225" fill="none" id="make-me-a-hanzi-animation-2" stroke-dasharray="455 910" stroke-linecap="round"></path>
    
      <clipPath id="make-me-a-hanzi-clip-3">
        <path d="M 257 202 L 227 208 L 207 210 Q 199 210 197 206 L 197 204 Q 197 200 202 194 L 213 180 Q 223 167 225 157 Q 227 148 231 123 L 243 30 Q 248 -12 256 -24 Q 264 -34 271 -34 L 273 -34 Q 281 -33 284 -23 Q 287 -14 287 -4 L 287 2 L 289 35 L 273 170 C 270 199 270 199 257 202 Z"></path>
      </clipPath>
      <path clip-path="url(#make-me-a-hanzi-clip-3)" d="M 203 205 L 241 181 L 249 165 L 272 -22" fill="none" id="make-me-a-hanzi-animation-3" stroke-dasharray="379 758" stroke-linecap="round"></path>
    
      <clipPath id="make-me-a-hanzi-clip-4">
        <path d="M 341 218 L 257 202 C 228 196 245 159 273 170 L 289 176 Q 314 184 343 192 Q 373 200 403 204 Q 434 208 449 208 L 457 208 Q 469 208 473 206 Q 479 202 481 198 Q 483 194 484 190 Q 484 186 483 183 L 461 62 C 456 32 496 17 507 45 L 521 80 Q 541 131 547 141 Q 554 151 565 164 Q 577 178 580 184 Q 584 190 585 194 Q 585 202 575 212 Q 565 222 548 232 Q 531 242 523 245 Q 514 248 507 248 Q 503 248 481 243 Q 459 238 439 235 Q 419 233 388 227 L 341 218 Z"></path>
      </clipPath>
      <path clip-path="url(#make-me-a-hanzi-clip-4)" d="M 265 199 L 291 192 L 398 217 L 463 224 L 510 214 L 529 191 L 491 80 L 503 53" fill="none" id="make-me-a-hanzi-animation-4" stroke-dasharray="555 1110" stroke-linecap="round"></path>
    
      <clipPath id="make-me-a-hanzi-clip-5">
        <path d="M 287 2 L 501 21 Q 512 22 515 24 Q 518 26 519 30 L 519 31 Q 519 36 507 45 C 489 60 489 60 461 62 L 447 63 L 445 63 Q 440 63 425 59 Q 407 55 371 49 L 313 39 Q 305 38 289 35 C 259 30 257 -1 287 2 Z"></path>
      </clipPath>
      <path clip-path="url(#make-me-a-hanzi-clip-5)" d="M 294 7 L 305 20 L 436 39 L 512 31" fill="none" id="make-me-a-hanzi-animation-5" stroke-dasharray="354 708" stroke-linecap="round"></path>
    
      <clipPath id="make-me-a-hanzi-clip-6">
        <path d="M 744 401 Q 744 418 749 433 Q 754 446 754 453 L 754 455 Q 753 462 748 466 Q 743 471 733 475 L 707 484 Q 696 487 690 487 Q 687 487 685 486 Q 679 483 678 479 L 678 477 Q 678 473 681 464 Q 685 454 689 433 L 692 401 L 693 270 Q 693 258 691 238 Q 690 218 689 211 Q 689 204 687 194 Q 686 185 686 179 L 686 174 Q 687 167 691 157 Q 696 148 705 134 Q 712 125 715 125 Q 719 126 723 129 Q 727 132 732 140 Q 736 148 739 158 Q 743 167 743 180 L 743 202 Q 742 213 742 221 L 742 230 L 743 248 L 744 401 Z"></path>
      </clipPath>
      <path clip-path="url(#make-me-a-hanzi-clip-6)" d="M 686 478 L 719 446 L 715 135" fill="none" id="make-me-a-hanzi-animation-6" stroke-dasharray="485 970" stroke-linecap="round"></path>
    
      <clipPath id="make-me-a-hanzi-clip-7">
        <path d="M 759 -16 Q 755 -15 753 -15 Q 747 -15 745 -18 Q 744 -19 744 -21 Q 744 -23 747 -26 L 759 -40 L 785 -65 Q 801 -81 805 -86 Q 809 -90 827 -111 Q 845 -132 855 -140 Q 865 -149 872 -149 L 873 -149 Q 880 -149 887 -143 Q 895 -136 901 -122 Q 908 -107 911 -98 Q 916 -82 916 -63 L 916 -56 Q 916 -32 913 8 Q 909 48 909 71 L 911 510 L 915 572 Q 915 606 918 614 Q 921 622 929 638 Q 934 648 934 656 L 934 658 Q 933 666 922 677 Q 910 688 889 697 Q 867 706 849 712 Q 839 716 831 716 Q 827 716 823 714 Q 815 710 813 704 Q 812 701 812 698 Q 812 696 813 693 Q 815 688 823 674 Q 831 659 836 639 Q 841 620 846 592 Q 851 566 851 540 L 852 90 Q 852 13 849 -7 Q 845 -27 841 -30 Q 837 -34 829 -34 L 827 -34 Q 817 -34 793 -26 L 771 -20 L 759 -16 Z"></path>
      </clipPath>
      <path clip-path="url(#make-me-a-hanzi-clip-7)" d="M 828 699 L 868 665 L 881 645 L 880 -29 L 864 -76 L 828 -65 L 749 -21" fill="none" id="make-me-a-hanzi-animation-7" stroke-dasharray="1056 2112" stroke-linecap="round"></path>
    
  </g>
</svg>