<svg xmlns="http://www.w3.org/2000/svg" version="1.1" viewBox="0 0 1024 1024">
  <g stroke="lightgray" stroke-dasharray="1,1" stroke-width="1" transform="scale(4, 4)">
    <line x1="0" y1="0" x2="256" y2="256" />
    <line x1="256" y1="0" x2="0" y2="256" />
    <line x1="128" y1="0" x2="128" y2="256" />
    <line x1="0" y1="128" x2="256" y2="128" />
  </g>
  <g transform="scale(1.0, -1.0) translate(0.0, -820.00)">
    <style type="text/css">
      
        @keyframes keyframes0 {
          from {
            stroke: blue;
            stroke-dashoffset: 378;
            stroke-width: 128;
          }
          55% {
            animation-timing-function: step-end;
            stroke: blue;
            stroke-dashoffset: 0;
            stroke-width: 128;
          }
          to {
            stroke: black;
            stroke-width: 1024;
          }
        }
        #make-me-a-hanzi-animation-0 {
          animation: keyframes0 0.5576171875s both;
          animation-delay: 0s;
          animation-timing-function: linear;
        }
      
        @keyframes keyframes1 {
          from {
            stroke: blue;
            stroke-dashoffset: 452;
            stroke-width: 128;
          }
          60% {
            animation-timing-function: step-end;
            stroke: blue;
            stroke-dashoffset: 0;
            stroke-width: 128;
          }
          to {
            stroke: black;
            stroke-width: 1024;
          }
        }
        #make-me-a-hanzi-animation-1 {
          animation: keyframes1 0.6178385416666666s both;
          animation-delay: 0.5576171875s;
          animation-timing-function: linear;
        }
      
        @keyframes keyframes2 {
          from {
            stroke: blue;
            stroke-dashoffset: 776;
            stroke-width: 128;
          }
          72% {
            animation-timing-function: step-end;
            stroke: blue;
            stroke-dashoffset: 0;
            stroke-width: 128;
          }
          to {
            stroke: black;
            stroke-width: 1024;
          }
        }
        #make-me-a-hanzi-animation-2 {
          animation: keyframes2 0.8815104166666666s both;
          animation-delay: 1.1754557291666665s;
          animation-timing-function: linear;
        }
      
        @keyframes keyframes3 {
          from {
            stroke: blue;
            stroke-dashoffset: 441;
            stroke-width: 128;
          }
          59% {
            animation-timing-function: step-end;
            stroke: blue;
            stroke-dashoffset: 0;
            stroke-width: 128;
          }
          to {
            stroke: black;
            stroke-width: 1024;
          }
        }
        #make-me-a-hanzi-animation-3 {
          animation: keyframes3 0.60888671875s both;
          animation-delay: 2.056966145833333s;
          animation-timing-function: linear;
        }
      
        @keyframes keyframes4 {
          from {
            stroke: blue;
            stroke-dashoffset: 398;
            stroke-width: 128;
          }
          56% {
            animation-timing-function: step-end;
            stroke: blue;
            stroke-dashoffset: 0;
            stroke-width: 128;
          }
          to {
            stroke: black;
            stroke-width: 1024;
          }
        }
        #make-me-a-hanzi-animation-4 {
          animation: keyframes4 0.5738932291666666s both;
          animation-delay: 2.665852864583333s;
          animation-timing-function: linear;
        }
      
        @keyframes keyframes5 {
          from {
            stroke: blue;
            stroke-dashoffset: 466;
            stroke-width: 128;
          }
          60% {
            animation-timing-function: step-end;
            stroke: blue;
            stroke-dashoffset: 0;
            stroke-width: 128;
          }
          to {
            stroke: black;
            stroke-width: 1024;
          }
        }
        #make-me-a-hanzi-animation-5 {
          animation: keyframes5 0.6292317708333334s both;
          animation-delay: 3.2397460937499996s;
          animation-timing-function: linear;
        }
      
        @keyframes keyframes6 {
          from {
            stroke: blue;
            stroke-dashoffset: 824;
            stroke-width: 128;
          }
          73% {
            animation-timing-function: step-end;
            stroke: blue;
            stroke-dashoffset: 0;
            stroke-width: 128;
          }
          to {
            stroke: black;
            stroke-width: 1024;
          }
        }
        #make-me-a-hanzi-animation-6 {
          animation: keyframes6 0.9205729166666666s both;
          animation-delay: 3.868977864583333s;
          animation-timing-function: linear;
        }
      
        @keyframes keyframes7 {
          from {
            stroke: blue;
            stroke-dashoffset: 506;
            stroke-width: 128;
          }
          62% {
            animation-timing-function: step-end;
            stroke: blue;
            stroke-dashoffset: 0;
            stroke-width: 128;
          }
          to {
            stroke: black;
            stroke-width: 1024;
          }
        }
        #make-me-a-hanzi-animation-7 {
          animation: keyframes7 0.6617838541666666s both;
          animation-delay: 4.78955078125s;
          animation-timing-function: linear;
        }
      
        @keyframes keyframes8 {
          from {
            stroke: blue;
            stroke-dashoffset: 598;
            stroke-width: 128;
          }
          66% {
            animation-timing-function: step-end;
            stroke: blue;
            stroke-dashoffset: 0;
            stroke-width: 128;
          }
          to {
            stroke: black;
            stroke-width: 1024;
          }
        }
        #make-me-a-hanzi-animation-8 {
          animation: keyframes8 0.7366536458333334s both;
          animation-delay: 5.451334635416667s;
          animation-timing-function: linear;
        }
      
        @keyframes keyframes9 {
          from {
            stroke: blue;
            stroke-dashoffset: 1175;
            stroke-width: 128;
          }
          79% {
            animation-timing-function: step-end;
            stroke: blue;
            stroke-dashoffset: 0;
            stroke-width: 128;
          }
          to {
            stroke: black;
            stroke-width: 1024;
          }
        }
        #make-me-a-hanzi-animation-9 {
          animation: keyframes9 1.2062174479166667s both;
          animation-delay: 6.18798828125s;
          animation-timing-function: linear;
        }
      
    </style>
    
      <path d="M 198 614 Q 190 617 187 617 L 186 617 Q 183 616 181 614 Q 180 613 180 611 Q 180 607 184 600 L 190 586 Q 194 576 200 563 L 213 536 Q 220 523 232 510 Q 242 496 252 496 Q 262 496 270 508 Q 276 519 276 532 L 276 536 Q 276 552 270 564 Q 265 576 254 584 Q 244 592 231 600 Q 218 607 208 611 L 198 614 Z" fill="lightgray" />
    
      <path d="M 384 524 L 388 525 L 400 530 L 420 540 L 458 562 L 500 586 Q 514 594 529 598 Q 543 602 547 604 Q 552 606 554 612 Q 555 614 555 616 Q 555 623 547 633 Q 537 646 524 658 Q 512 668 504 673 Q 495 678 490 678 Q 488 678 487 677 Q 482 674 476 660 Q 470 646 463 636 Q 456 625 442 607 Q 428 590 416 577 Q 405 564 386 546 C 364 525 355 515 384 524 Z" fill="lightgray" />
    
      <path d="M 376 485 L 382 514 L 384 524 L 386 546 L 388 560 Q 390 587 391 620 Q 392 652 393 661 L 394 677 Q 394 683 398 690 L 400 697 Q 403 702 403 706 Q 403 707 402 709 Q 402 714 394 720 Q 386 726 368 731 Q 350 737 340 739 Q 336 740 333 740 Q 326 740 322 737 Q 316 734 316 729 Q 316 724 323 712 Q 330 700 333 679 Q 334 664 334 620 Q 332 577 331 551 Q 330 524 322 489 Q 314 454 298 426 Q 282 398 260 376 Q 237 355 217 343 Q 198 331 182 323 L 174 318 Q 170 317 170 313 L 170 310 Q 170 307 174 307 Q 176 307 180 308 L 192 310 L 235 322 Q 256 328 286 349 Q 316 369 336 395 Q 355 420 361 436 L 370 460 L 376 485 Z" fill="lightgray" />
    
      <path d="M 370 460 L 378 450 L 420 408 L 454 369 Q 471 350 484 339 Q 496 328 506 327 L 508 327 Q 517 327 523 333 Q 530 340 531 356 L 531 360 Q 531 374 525 388 Q 517 404 502 416 Q 488 428 462 443 Q 436 458 424 464 Q 412 470 404 473 Q 396 476 376 485 C 349 497 351 483 370 460 Z" fill="lightgray" />
    
      <path d="M 180 238 Q 173 240 169 240 L 167 240 Q 164 240 162 236 Q 161 235 161 234 Q 161 230 164 222 L 172 204 Q 174 196 182 182 L 200 150 Q 210 132 220 121 Q 232 104 242 104 Q 252 104 261 118 Q 270 130 271 150 L 271 156 Q 271 172 266 182 Q 260 194 246 204 Q 232 214 220 220 Q 208 226 192 233 L 180 238 Z" fill="lightgray" />
    
      <path d="M 374 138 L 384 141 L 402 150 Q 414 155 425 161 L 463 182 L 506 204 Q 521 212 530 215 L 550 220 Q 558 223 561 228 Q 562 230 562 232 Q 562 238 555 248 Q 546 261 532 274 Q 518 286 506 290 Q 501 291 498 291 Q 494 291 492 290 Q 488 287 483 275 Q 478 263 473 254 Q 468 245 447 222 Q 426 200 418 191 Q 410 182 396 171 L 379 157 C 356 138 346 129 374 138 Z" fill="lightgray" />
    
      <path d="M 362 98 L 368 116 Q 369 120 374 138 L 379 157 L 383 174 Q 384 178 388 200 Q 392 222 395 244 Q 398 266 400 275 Q 402 284 405 290 L 410 299 Q 414 306 414 313 L 414 315 Q 412 322 402 331 Q 392 340 378 346 Q 364 352 352 356 Q 346 358 342 358 Q 338 358 335 356 Q 330 354 329 350 L 329 349 Q 329 344 334 332 Q 340 318 341 290 L 341 279 Q 341 257 338 229 Q 334 193 328 161 Q 322 129 312 97 Q 301 65 282 32 Q 263 -2 244 -24 Q 226 -46 206 -64 Q 186 -82 168 -94 L 148 -108 Q 142 -113 142 -118 L 142 -120 Q 143 -123 147 -123 Q 149 -123 152 -122 L 172 -112 L 194 -101 Q 214 -92 236 -77 Q 258 -62 274 -46 Q 290 -30 308 -7 Q 324 16 332 30 Q 340 44 344 55 Q 350 66 356 80 L 362 98 Z" fill="lightgray" />
    
      <path d="M 356 80 L 364 71 L 390 44 L 416 17 Q 428 4 449 -23 Q 470 -50 474 -54 Q 477 -58 493 -75 Q 509 -92 515 -96 Q 526 -103 534 -103 Q 537 -103 540 -102 Q 549 -98 554 -87 Q 556 -81 556 -72 Q 556 -65 555 -56 Q 552 -36 544 -20 Q 537 -4 523 10 Q 509 24 491 37 Q 473 49 450 62 Q 426 75 410 82 Q 394 88 378 93 L 362 98 C 333 107 336 102 356 80 Z" fill="lightgray" />
    
      <path d="M 654 326 Q 653 309 652 295 Q 651 281 650 272 Q 649 262 648 253 Q 646 244 646 240 Q 646 230 650 220 Q 655 210 662 200 Q 672 186 677 186 Q 682 188 686 192 Q 690 197 695 206 Q 700 215 702 222 Q 704 230 705 239 Q 705 242 704 263 L 704 314 L 705 418 Q 705 426 707 452 Q 710 478 713 488 Q 717 500 717 506 L 717 508 Q 716 513 707 520 Q 698 527 680 532 Q 662 536 654 536 Q 644 536 641 532 Q 638 529 638 524 Q 638 519 642 508 Q 647 496 649 486 Q 652 476 653 458 Q 655 439 655 426 L 654 326 Z" fill="lightgray" />
    
      <path d="M 696 14 Q 694 15 692 15 Q 687 15 685 10 Q 684 9 684 7 Q 684 2 692 -4 L 702 -13 L 735 -45 Q 763 -73 776 -91 Q 788 -109 792 -112 Q 802 -124 810 -124 Q 818 -124 830 -114 Q 842 -103 848 -85 Q 854 -66 856 -51 Q 858 -36 858 -18 Q 858 -6 857 35 Q 856 62 856 90 L 856 118 L 860 526 Q 860 550 861 568 Q 862 586 864 602 Q 866 618 869 632 Q 872 645 878 658 Q 885 670 886 674 Q 886 682 878 692 Q 871 700 855 709 Q 838 718 823 724 Q 808 730 792 732 Q 781 732 776 728 Q 770 725 770 720 Q 769 717 769 715 Q 769 712 770 710 Q 772 704 781 687 Q 789 670 793 654 Q 796 638 800 599 Q 804 560 804 540 L 801 137 Q 800 110 797 75 Q 794 40 794 24 Q 793 8 788 1 Q 782 -6 772 -8 L 769 -8 Q 763 -8 752 -4 L 726 4 Q 710 9 709 10 L 696 14 Z" fill="lightgray" />
    
    
      <clipPath id="make-me-a-hanzi-clip-0">
        <path d="M 198 614 Q 190 617 187 617 L 186 617 Q 183 616 181 614 Q 180 613 180 611 Q 180 607 184 600 L 190 586 Q 194 576 200 563 L 213 536 Q 220 523 232 510 Q 242 496 252 496 Q 262 496 270 508 Q 276 519 276 532 L 276 536 Q 276 552 270 564 Q 265 576 254 584 Q 244 592 231 600 Q 218 607 208 611 L 198 614 Z" />
      </clipPath>
      <path clip-path="url(#make-me-a-hanzi-clip-0)" d="M 187 611 L 240 554 L 252 512" fill="none" id="make-me-a-hanzi-animation-0" stroke-dasharray="250 500" stroke-linecap="round" />
    
      <clipPath id="make-me-a-hanzi-clip-1">
        <path d="M 384 524 L 388 525 L 400 530 L 420 540 L 458 562 L 500 586 Q 514 594 529 598 Q 543 602 547 604 Q 552 606 554 612 Q 555 614 555 616 Q 555 623 547 633 Q 537 646 524 658 Q 512 668 504 673 Q 495 678 490 678 Q 488 678 487 677 Q 482 674 476 660 Q 470 646 463 636 Q 456 625 442 607 Q 428 590 416 577 Q 405 564 386 546 C 364 525 355 515 384 524 Z" />
      </clipPath>
      <path clip-path="url(#make-me-a-hanzi-clip-1)" d="M 543 617 L 502 628 L 385 529" fill="none" id="make-me-a-hanzi-animation-1" stroke-dasharray="324 648" stroke-linecap="round" />
    
      <clipPath id="make-me-a-hanzi-clip-2">
        <path d="M 376 485 L 382 514 L 384 524 L 386 546 L 388 560 Q 390 587 391 620 Q 392 652 393 661 L 394 677 Q 394 683 398 690 L 400 697 Q 403 702 403 706 Q 403 707 402 709 Q 402 714 394 720 Q 386 726 368 731 Q 350 737 340 739 Q 336 740 333 740 Q 326 740 322 737 Q 316 734 316 729 Q 316 724 323 712 Q 330 700 333 679 Q 334 664 334 620 Q 332 577 331 551 Q 330 524 322 489 Q 314 454 298 426 Q 282 398 260 376 Q 237 355 217 343 Q 198 331 182 323 L 174 318 Q 170 317 170 313 L 170 310 Q 170 307 174 307 Q 176 307 180 308 L 192 310 L 235 322 Q 256 328 286 349 Q 316 369 336 395 Q 355 420 361 436 L 370 460 L 376 485 Z" />
      </clipPath>
      <path clip-path="url(#make-me-a-hanzi-clip-2)" d="M 326 728 L 364 697 L 357 532 L 339 451 L 299 386 L 257 350 L 174 312" fill="none" id="make-me-a-hanzi-animation-2" stroke-dasharray="648 1296" stroke-linecap="round" />
    
      <clipPath id="make-me-a-hanzi-clip-3">
        <path d="M 370 460 L 378 450 L 420 408 L 454 369 Q 471 350 484 339 Q 496 328 506 327 L 508 327 Q 517 327 523 333 Q 530 340 531 356 L 531 360 Q 531 374 525 388 Q 517 404 502 416 Q 488 428 462 443 Q 436 458 424 464 Q 412 470 404 473 Q 396 476 376 485 C 349 497 351 483 370 460 Z" />
      </clipPath>
      <path clip-path="url(#make-me-a-hanzi-clip-3)" d="M 383 477 L 386 464 L 489 382 L 509 347" fill="none" id="make-me-a-hanzi-animation-3" stroke-dasharray="313 626" stroke-linecap="round" />
    
      <clipPath id="make-me-a-hanzi-clip-4">
        <path d="M 180 238 Q 173 240 169 240 L 167 240 Q 164 240 162 236 Q 161 235 161 234 Q 161 230 164 222 L 172 204 Q 174 196 182 182 L 200 150 Q 210 132 220 121 Q 232 104 242 104 Q 252 104 261 118 Q 270 130 271 150 L 271 156 Q 271 172 266 182 Q 260 194 246 204 Q 232 214 220 220 Q 208 226 192 233 L 180 238 Z" />
      </clipPath>
      <path clip-path="url(#make-me-a-hanzi-clip-4)" d="M 168 234 L 229 172 L 241 141 L 242 119" fill="none" id="make-me-a-hanzi-animation-4" stroke-dasharray="270 540" stroke-linecap="round" />
    
      <clipPath id="make-me-a-hanzi-clip-5">
        <path d="M 374 138 L 384 141 L 402 150 Q 414 155 425 161 L 463 182 L 506 204 Q 521 212 530 215 L 550 220 Q 558 223 561 228 Q 562 230 562 232 Q 562 238 555 248 Q 546 261 532 274 Q 518 286 506 290 Q 501 291 498 291 Q 494 291 492 290 Q 488 287 483 275 Q 478 263 473 254 Q 468 245 447 222 Q 426 200 418 191 Q 410 182 396 171 L 379 157 C 356 138 346 129 374 138 Z" />
      </clipPath>
      <path clip-path="url(#make-me-a-hanzi-clip-5)" d="M 550 233 L 509 246 L 378 142" fill="none" id="make-me-a-hanzi-animation-5" stroke-dasharray="338 676" stroke-linecap="round" />
    
      <clipPath id="make-me-a-hanzi-clip-6">
        <path d="M 362 98 L 368 116 Q 369 120 374 138 L 379 157 L 383 174 Q 384 178 388 200 Q 392 222 395 244 Q 398 266 400 275 Q 402 284 405 290 L 410 299 Q 414 306 414 313 L 414 315 Q 412 322 402 331 Q 392 340 378 346 Q 364 352 352 356 Q 346 358 342 358 Q 338 358 335 356 Q 330 354 329 350 L 329 349 Q 329 344 334 332 Q 340 318 341 290 L 341 279 Q 341 257 338 229 Q 334 193 328 161 Q 322 129 312 97 Q 301 65 282 32 Q 263 -2 244 -24 Q 226 -46 206 -64 Q 186 -82 168 -94 L 148 -108 Q 142 -113 142 -118 L 142 -120 Q 143 -123 147 -123 Q 149 -123 152 -122 L 172 -112 L 194 -101 Q 214 -92 236 -77 Q 258 -62 274 -46 Q 290 -30 308 -7 Q 324 16 332 30 Q 340 44 344 55 Q 350 66 356 80 L 362 98 Z" />
      </clipPath>
      <path clip-path="url(#make-me-a-hanzi-clip-6)" d="M 336 350 L 375 308 L 361 196 L 332 83 L 296 12 L 258 -37 L 204 -83 L 146 -119" fill="none" id="make-me-a-hanzi-animation-6" stroke-dasharray="696 1392" stroke-linecap="round" />
    
      <clipPath id="make-me-a-hanzi-clip-7">
        <path d="M 356 80 L 364 71 L 390 44 L 416 17 Q 428 4 449 -23 Q 470 -50 474 -54 Q 477 -58 493 -75 Q 509 -92 515 -96 Q 526 -103 534 -103 Q 537 -103 540 -102 Q 549 -98 554 -87 Q 556 -81 556 -72 Q 556 -65 555 -56 Q 552 -36 544 -20 Q 537 -4 523 10 Q 509 24 491 37 Q 473 49 450 62 Q 426 75 410 82 Q 394 88 378 93 L 362 98 C 333 107 336 102 356 80 Z" />
      </clipPath>
      <path clip-path="url(#make-me-a-hanzi-clip-7)" d="M 365 92 L 370 82 L 407 60 L 475 4 L 517 -48 L 534 -85" fill="none" id="make-me-a-hanzi-animation-7" stroke-dasharray="378 756" stroke-linecap="round" />
    
      <clipPath id="make-me-a-hanzi-clip-8">
        <path d="M 654 326 Q 653 309 652 295 Q 651 281 650 272 Q 649 262 648 253 Q 646 244 646 240 Q 646 230 650 220 Q 655 210 662 200 Q 672 186 677 186 Q 682 188 686 192 Q 690 197 695 206 Q 700 215 702 222 Q 704 230 705 239 Q 705 242 704 263 L 704 314 L 705 418 Q 705 426 707 452 Q 710 478 713 488 Q 717 500 717 506 L 717 508 Q 716 513 707 520 Q 698 527 680 532 Q 662 536 654 536 Q 644 536 641 532 Q 638 529 638 524 Q 638 519 642 508 Q 647 496 649 486 Q 652 476 653 458 Q 655 439 655 426 L 654 326 Z" />
      </clipPath>
      <path clip-path="url(#make-me-a-hanzi-clip-8)" d="M 651 524 L 681 497 L 678 195" fill="none" id="make-me-a-hanzi-animation-8" stroke-dasharray="470 940" stroke-linecap="round" />
    
      <clipPath id="make-me-a-hanzi-clip-9">
        <path d="M 696 14 Q 694 15 692 15 Q 687 15 685 10 Q 684 9 684 7 Q 684 2 692 -4 L 702 -13 L 735 -45 Q 763 -73 776 -91 Q 788 -109 792 -112 Q 802 -124 810 -124 Q 818 -124 830 -114 Q 842 -103 848 -85 Q 854 -66 856 -51 Q 858 -36 858 -18 Q 858 -6 857 35 Q 856 62 856 90 L 856 118 L 860 526 Q 860 550 861 568 Q 862 586 864 602 Q 866 618 869 632 Q 872 645 878 658 Q 885 670 886 674 Q 886 682 878 692 Q 871 700 855 709 Q 838 718 823 724 Q 808 730 792 732 Q 781 732 776 728 Q 770 725 770 720 Q 769 717 769 715 Q 769 712 770 710 Q 772 704 781 687 Q 789 670 793 654 Q 796 638 800 599 Q 804 560 804 540 L 801 137 Q 800 110 797 75 Q 794 40 794 24 Q 793 8 788 1 Q 782 -6 772 -8 L 769 -8 Q 763 -8 752 -4 L 726 4 Q 710 9 709 10 L 696 14 Z" />
      </clipPath>
      <path clip-path="url(#make-me-a-hanzi-clip-9)" d="M 782 715 L 815 692 L 835 668 L 825 8 L 819 -23 L 806 -48 L 760 -34 L 692 7" fill="none" id="make-me-a-hanzi-animation-9" stroke-dasharray="1047 2094" stroke-linecap="round" />
    
  </g>
</svg>