<svg xmlns="http://www.w3.org/2000/svg" version="1.1" viewBox="0 0 1024 1024">
  <g stroke="lightgray" stroke-dasharray="1,1" stroke-width="1" transform="scale(4, 4)">
    <line x1="0" y1="0" x2="256" y2="256" />
    <line x1="256" y1="0" x2="0" y2="256" />
    <line x1="128" y1="0" x2="128" y2="256" />
    <line x1="0" y1="128" x2="256" y2="128" />
  </g>
  <g transform="scale(1.0, -1.0) translate(0.0, -794.50)">
    <style type="text/css">
      
        @keyframes keyframes0 {
          from {
            stroke: blue;
            stroke-dashoffset: 847;
            stroke-width: 128;
          }
          73% {
            animation-timing-function: step-end;
            stroke: blue;
            stroke-dashoffset: 0;
            stroke-width: 128;
          }
          to {
            stroke: black;
            stroke-width: 1024;
          }
        }
        #make-me-a-hanzi-animation-0 {
          animation: keyframes0 0.9392903645833334s both;
          animation-delay: 0s;
          animation-timing-function: linear;
        }
      
        @keyframes keyframes1 {
          from {
            stroke: blue;
            stroke-dashoffset: 349;
            stroke-width: 128;
          }
          53% {
            animation-timing-function: step-end;
            stroke: blue;
            stroke-dashoffset: 0;
            stroke-width: 128;
          }
          to {
            stroke: black;
            stroke-width: 1024;
          }
        }
        #make-me-a-hanzi-animation-1 {
          animation: keyframes1 0.5340169270833334s both;
          animation-delay: 0.9392903645833334s;
          animation-timing-function: linear;
        }
      
        @keyframes keyframes2 {
          from {
            stroke: blue;
            stroke-dashoffset: 609;
            stroke-width: 128;
          }
          66% {
            animation-timing-function: step-end;
            stroke: blue;
            stroke-dashoffset: 0;
            stroke-width: 128;
          }
          to {
            stroke: black;
            stroke-width: 1024;
          }
        }
        #make-me-a-hanzi-animation-2 {
          animation: keyframes2 0.74560546875s both;
          animation-delay: 1.4733072916666667s;
          animation-timing-function: linear;
        }
      
        @keyframes keyframes3 {
          from {
            stroke: blue;
            stroke-dashoffset: 1055;
            stroke-width: 128;
          }
          77% {
            animation-timing-function: step-end;
            stroke: blue;
            stroke-dashoffset: 0;
            stroke-width: 128;
          }
          to {
            stroke: black;
            stroke-width: 1024;
          }
        }
        #make-me-a-hanzi-animation-3 {
          animation: keyframes3 1.1085611979166667s both;
          animation-delay: 2.218912760416667s;
          animation-timing-function: linear;
        }
      
        @keyframes keyframes4 {
          from {
            stroke: blue;
            stroke-dashoffset: 624;
            stroke-width: 128;
          }
          67% {
            animation-timing-function: step-end;
            stroke: blue;
            stroke-dashoffset: 0;
            stroke-width: 128;
          }
          to {
            stroke: black;
            stroke-width: 1024;
          }
        }
        #make-me-a-hanzi-animation-4 {
          animation: keyframes4 0.7578125s both;
          animation-delay: 3.327473958333334s;
          animation-timing-function: linear;
        }
      
        @keyframes keyframes5 {
          from {
            stroke: blue;
            stroke-dashoffset: 620;
            stroke-width: 128;
          }
          67% {
            animation-timing-function: step-end;
            stroke: blue;
            stroke-dashoffset: 0;
            stroke-width: 128;
          }
          to {
            stroke: black;
            stroke-width: 1024;
          }
        }
        #make-me-a-hanzi-animation-5 {
          animation: keyframes5 0.7545572916666666s both;
          animation-delay: 4.085286458333334s;
          animation-timing-function: linear;
        }
      
        @keyframes keyframes6 {
          from {
            stroke: blue;
            stroke-dashoffset: 536;
            stroke-width: 128;
          }
          64% {
            animation-timing-function: step-end;
            stroke: blue;
            stroke-dashoffset: 0;
            stroke-width: 128;
          }
          to {
            stroke: black;
            stroke-width: 1024;
          }
        }
        #make-me-a-hanzi-animation-6 {
          animation: keyframes6 0.6861979166666666s both;
          animation-delay: 4.839843750000001s;
          animation-timing-function: linear;
        }
      
        @keyframes keyframes7 {
          from {
            stroke: blue;
            stroke-dashoffset: 1186;
            stroke-width: 128;
          }
          79% {
            animation-timing-function: step-end;
            stroke: blue;
            stroke-dashoffset: 0;
            stroke-width: 128;
          }
          to {
            stroke: black;
            stroke-width: 1024;
          }
        }
        #make-me-a-hanzi-animation-7 {
          animation: keyframes7 1.2151692708333333s both;
          animation-delay: 5.526041666666668s;
          animation-timing-function: linear;
        }
      
        @keyframes keyframes8 {
          from {
            stroke: blue;
            stroke-dashoffset: 800;
            stroke-width: 128;
          }
          72% {
            animation-timing-function: step-end;
            stroke: blue;
            stroke-dashoffset: 0;
            stroke-width: 128;
          }
          to {
            stroke: black;
            stroke-width: 1024;
          }
        }
        #make-me-a-hanzi-animation-8 {
          animation: keyframes8 0.9010416666666666s both;
          animation-delay: 6.741210937500001s;
          animation-timing-function: linear;
        }
      
    </style>
    
      <path d="M 573 562 L 715 638 Q 729 645 751 652 Q 773 660 780 662 Q 787 665 789 672 Q 790 674 790 676 Q 790 680 787 685 Q 783 694 759 709 Q 735 725 731 728 Q 726 730 712 735 Q 698 740 689 740 Q 683 740 670 736 Q 657 732 631 726 L 609 720 Q 596 716 541 708 L 437 689 Q 413 685 389 684 L 351 680 L 322 680 Q 309 680 307 676 Q 306 674 306 671 Q 306 668 307 665 Q 310 659 329 649 Q 347 639 355 636 Q 359 635 366 635 Q 372 635 381 636 Q 391 638 421 646 Q 453 654 511 666 L 627 687 Q 638 689 646 689 L 652 689 Q 663 688 665 683 Q 666 682 666 680 Q 666 676 661 670 Q 657 661 627 636 L 559 581 C 536 562 547 548 573 562 Z" fill="lightgray" />
    
      <path d="M 575 537 L 575 548 Q 575 550 573 562 C 571 574 571 574 559 581 L 539 592 Q 532 595 516 600 Q 499 606 494 606 Q 490 606 489 604 Q 487 603 487 600 Q 486 598 486 597 Q 486 594 488 592 Q 490 587 497 576 Q 505 566 525 533 C 541 507 575 507 575 537 Z" fill="lightgray" />
    
      <path d="M 375 514 L 355 525 Q 349 528 327 532 L 323 532 Q 319 532 316 531 Q 313 529 312 525 L 312 524 Q 312 520 316 511 Q 321 500 324 488 Q 327 476 329 458 Q 330 436 330 411 Q 329 386 328 365 Q 327 344 325 328 Q 323 312 317 289 Q 311 266 311 258 L 311 240 Q 313 232 319 214 Q 325 196 334 188 Q 340 181 345 181 L 346 181 Q 350 182 359 198 Q 367 214 369 242 Q 371 270 373 306 L 373 332 L 375 393 L 377 418 L 379 481 C 380 511 380 511 375 514 Z" fill="lightgray" />
    
      <path d="M 745 344 L 741 296 Q 739 287 736 277 Q 733 267 729 265 Q 727 264 723 264 Q 719 264 714 265 Q 705 268 687 272 L 675 275 Q 671 276 668 276 Q 664 276 662 274 Q 661 273 661 271 Q 661 269 665 266 L 673 258 Q 691 242 701 230 L 727 196 Q 735 186 741 186 Q 743 185 745 185 Q 752 185 763 194 Q 776 206 785 223 Q 794 240 798 262 Q 802 284 805 322 L 811 438 Q 811 456 817 471 Q 823 486 829 496 Q 837 510 837 518 Q 837 526 823 536 Q 809 546 797 552 Q 785 559 772 564 Q 759 568 751 568 Q 749 567 739 563 Q 728 560 700 556 L 667 550 L 575 537 L 525 533 L 421 518 Q 417 518 375 514 C 345 511 349 477 379 481 L 403 484 Q 433 488 511 502 L 554 507 L 703 520 Q 709 521 715 521 Q 722 521 728 520 Q 741 518 745 514 Q 749 510 749 496 L 749 445 L 747 429 L 745 356 L 745 344 Z" fill="lightgray" />
    
      <path d="M 375 393 L 426 392 Q 430 391 436 391 Q 448 391 467 394 Q 493 398 517 401 L 575 406 L 661 415 L 700 420 Q 729 424 733 425 Q 737 426 747 429 C 773 436 773 436 749 445 L 727 453 Q 712 458 700 458 Q 688 458 636 450 L 577 440 L 517 432 L 483 428 Q 427 422 414 420 Q 400 420 377 418 C 347 416 345 394 375 393 Z" fill="lightgray" />
    
      <path d="M 567 319 L 657 330 Q 659 330 687 333 Q 715 336 724 338 Q 733 340 745 344 C 761 349 761 349 745 356 L 725 365 Q 715 370 697 370 Q 687 370 673 369 L 647 365 L 571 354 L 519 347 L 447 339 Q 435 338 373 332 C 343 329 343 306 373 306 L 394 306 Q 404 305 415 305 Q 427 305 441 306 Q 469 308 518 314 L 567 319 Z" fill="lightgray" />
    
      <path d="M 545 224 L 563 274 Q 565 280 567 319 L 571 354 L 575 406 L 577 440 L 581 455 L 590 480 Q 589 480 589 482 Q 587 484 582 490 Q 577 496 554 507 C 527 520 507 530 511 502 L 515 474 Q 515 465 517 432 L 517 401 L 519 347 L 518 314 L 519 280 L 519 277 Q 519 266 523 234 C 527 204 535 196 545 224 Z" fill="lightgray" />
    
      <path d="M 517 100 L 667 114 L 711 115 L 716 115 Q 726 115 731 112 Q 737 110 741 102 Q 744 96 744 88 L 744 84 Q 743 73 737 48 L 723 -12 Q 715 -36 704 -56 Q 693 -75 681 -82 Q 671 -88 661 -88 L 659 -88 Q 651 -88 634 -82 L 608 -71 L 593 -66 Q 590 -65 587 -65 Q 585 -65 584 -66 Q 583 -67 583 -68 Q 583 -69 585 -71 L 593 -80 Q 598 -88 610 -103 Q 621 -118 630 -132 L 645 -160 Q 651 -172 656 -174 Q 658 -175 660 -175 Q 668 -175 681 -168 Q 698 -160 711 -148 Q 724 -137 737 -120 Q 751 -102 760 -82 Q 769 -60 779 -29 L 799 46 Q 803 58 809 73 Q 816 88 824 96 Q 831 104 833 108 L 833 109 Q 833 115 824 124 Q 815 134 799 143 Q 783 152 773 157 Q 761 161 751 162 Q 741 162 718 156 L 679 148 Q 664 145 625 141 L 534 132 L 457 123 L 377 114 Q 352 112 311 110 Q 270 108 259 106 L 237 104 Q 230 103 229 98 Q 229 94 235 89 Q 241 84 254 78 L 278 67 Q 287 63 296 63 L 300 63 Q 307 63 320 68 Q 334 72 343 74 Q 353 76 375 80 L 444 90 L 517 100 Z" fill="lightgray" />
    
      <path d="M 444 90 L 427 60 Q 404 20 373 -14 Q 342 -48 307 -74 Q 273 -100 250 -115 Q 227 -130 209 -138 L 197 -144 Q 191 -146 191 -150 L 191 -152 Q 192 -156 197 -156 Q 199 -156 201 -155 L 221 -150 Q 233 -148 262 -137 Q 291 -125 325 -107 Q 359 -88 394 -58 Q 429 -28 455 6 Q 481 40 493 60 L 517 100 L 534 132 L 544 155 Q 548 165 553 173 Q 557 181 561 186 Q 565 190 567 194 Q 568 196 568 198 Q 568 200 567 202 Q 565 208 559 212 Q 555 216 545 224 L 523 234 L 487 246 Q 484 247 482 247 Q 479 247 477 246 Q 472 242 472 232 L 475 206 Q 475 196 471 177 Q 467 158 464 146 Q 461 135 457 123 L 444 90 Z" fill="lightgray" />
    
    
      <clipPath id="make-me-a-hanzi-clip-0">
        <path d="M 573 562 L 715 638 Q 729 645 751 652 Q 773 660 780 662 Q 787 665 789 672 Q 790 674 790 676 Q 790 680 787 685 Q 783 694 759 709 Q 735 725 731 728 Q 726 730 712 735 Q 698 740 689 740 Q 683 740 670 736 Q 657 732 631 726 L 609 720 Q 596 716 541 708 L 437 689 Q 413 685 389 684 L 351 680 L 322 680 Q 309 680 307 676 Q 306 674 306 671 Q 306 668 307 665 Q 310 659 329 649 Q 347 639 355 636 Q 359 635 366 635 Q 372 635 381 636 Q 391 638 421 646 Q 453 654 511 666 L 627 687 Q 638 689 646 689 L 652 689 Q 663 688 665 683 Q 666 682 666 680 Q 666 676 661 670 Q 657 661 627 636 L 559 581 C 536 562 547 548 573 562 Z" />
      </clipPath>
      <path clip-path="url(#make-me-a-hanzi-clip-0)" d="M 316 672 L 363 658 L 391 661 L 659 711 L 690 706 L 711 686 L 671 642 L 577 579 L 569 581" fill="none" id="make-me-a-hanzi-animation-0" stroke-dasharray="719 1438" stroke-linecap="round" />
    
      <clipPath id="make-me-a-hanzi-clip-1">
        <path d="M 575 537 L 575 548 Q 575 550 573 562 C 571 574 571 574 559 581 L 539 592 Q 532 595 516 600 Q 499 606 494 606 Q 490 606 489 604 Q 487 603 487 600 Q 486 598 486 597 Q 486 594 488 592 Q 490 587 497 576 Q 505 566 525 533 C 541 507 575 507 575 537 Z" />
      </clipPath>
      <path clip-path="url(#make-me-a-hanzi-clip-1)" d="M 492 597 L 568 543" fill="none" id="make-me-a-hanzi-animation-1" stroke-dasharray="221 442" stroke-linecap="round" />
    
      <clipPath id="make-me-a-hanzi-clip-2">
        <path d="M 375 514 L 355 525 Q 349 528 327 532 L 323 532 Q 319 532 316 531 Q 313 529 312 525 L 312 524 Q 312 520 316 511 Q 321 500 324 488 Q 327 476 329 458 Q 330 436 330 411 Q 329 386 328 365 Q 327 344 325 328 Q 323 312 317 289 Q 311 266 311 258 L 311 240 Q 313 232 319 214 Q 325 196 334 188 Q 340 181 345 181 L 346 181 Q 350 182 359 198 Q 367 214 369 242 Q 371 270 373 306 L 373 332 L 375 393 L 377 418 L 379 481 C 380 511 380 511 375 514 Z" />
      </clipPath>
      <path clip-path="url(#make-me-a-hanzi-clip-2)" d="M 319 525 L 348 500 L 354 458 L 350 340 L 340 254 L 346 187" fill="none" id="make-me-a-hanzi-animation-2" stroke-dasharray="481 962" stroke-linecap="round" />
    
      <clipPath id="make-me-a-hanzi-clip-3">
        <path d="M 745 344 L 741 296 Q 739 287 736 277 Q 733 267 729 265 Q 727 264 723 264 Q 719 264 714 265 Q 705 268 687 272 L 675 275 Q 671 276 668 276 Q 664 276 662 274 Q 661 273 661 271 Q 661 269 665 266 L 673 258 Q 691 242 701 230 L 727 196 Q 735 186 741 186 Q 743 185 745 185 Q 752 185 763 194 Q 776 206 785 223 Q 794 240 798 262 Q 802 284 805 322 L 811 438 Q 811 456 817 471 Q 823 486 829 496 Q 837 510 837 518 Q 837 526 823 536 Q 809 546 797 552 Q 785 559 772 564 Q 759 568 751 568 Q 749 567 739 563 Q 728 560 700 556 L 667 550 L 575 537 L 525 533 L 421 518 Q 417 518 375 514 C 345 511 349 477 379 481 L 403 484 Q 433 488 511 502 L 554 507 L 703 520 Q 709 521 715 521 Q 722 521 728 520 Q 741 518 745 514 Q 749 510 749 496 L 749 445 L 747 429 L 745 356 L 745 344 Z" />
      </clipPath>
      <path clip-path="url(#make-me-a-hanzi-clip-3)" d="M 384 487 L 395 499 L 408 502 L 520 518 L 711 540 L 755 540 L 767 534 L 789 509 L 765 262 L 747 232 L 666 271" fill="none" id="make-me-a-hanzi-animation-3" stroke-dasharray="927 1854" stroke-linecap="round" />
    
      <clipPath id="make-me-a-hanzi-clip-4">
        <path d="M 375 393 L 426 392 Q 430 391 436 391 Q 448 391 467 394 Q 493 398 517 401 L 575 406 L 661 415 L 700 420 Q 729 424 733 425 Q 737 426 747 429 C 773 436 773 436 749 445 L 727 453 Q 712 458 700 458 Q 688 458 636 450 L 577 440 L 517 432 L 483 428 Q 427 422 414 420 Q 400 420 377 418 C 347 416 345 394 375 393 Z" />
      </clipPath>
      <path clip-path="url(#make-me-a-hanzi-clip-4)" d="M 381 399 L 389 406 L 432 406 L 698 439 L 736 437 L 742 442" fill="none" id="make-me-a-hanzi-animation-4" stroke-dasharray="496 992" stroke-linecap="round" />
    
      <clipPath id="make-me-a-hanzi-clip-5">
        <path d="M 567 319 L 657 330 Q 659 330 687 333 Q 715 336 724 338 Q 733 340 745 344 C 761 349 761 349 745 356 L 725 365 Q 715 370 697 370 Q 687 370 673 369 L 647 365 L 571 354 L 519 347 L 447 339 Q 435 338 373 332 C 343 329 343 306 373 306 L 394 306 Q 404 305 415 305 Q 427 305 441 306 Q 469 308 518 314 L 567 319 Z" />
      </clipPath>
      <path clip-path="url(#make-me-a-hanzi-clip-5)" d="M 378 313 L 388 321 L 489 326 L 656 349 L 737 350" fill="none" id="make-me-a-hanzi-animation-5" stroke-dasharray="492 984" stroke-linecap="round" />
    
      <clipPath id="make-me-a-hanzi-clip-6">
        <path d="M 545 224 L 563 274 Q 565 280 567 319 L 571 354 L 575 406 L 577 440 L 581 455 L 590 480 Q 589 480 589 482 Q 587 484 582 490 Q 577 496 554 507 C 527 520 507 530 511 502 L 515 474 Q 515 465 517 432 L 517 401 L 519 347 L 518 314 L 519 280 L 519 277 Q 519 266 523 234 C 527 204 535 196 545 224 Z" />
      </clipPath>
      <path clip-path="url(#make-me-a-hanzi-clip-6)" d="M 519 496 L 550 470 L 536 246 L 542 232" fill="none" id="make-me-a-hanzi-animation-6" stroke-dasharray="408 816" stroke-linecap="round" />
    
      <clipPath id="make-me-a-hanzi-clip-7">
        <path d="M 517 100 L 667 114 L 711 115 L 716 115 Q 726 115 731 112 Q 737 110 741 102 Q 744 96 744 88 L 744 84 Q 743 73 737 48 L 723 -12 Q 715 -36 704 -56 Q 693 -75 681 -82 Q 671 -88 661 -88 L 659 -88 Q 651 -88 634 -82 L 608 -71 L 593 -66 Q 590 -65 587 -65 Q 585 -65 584 -66 Q 583 -67 583 -68 Q 583 -69 585 -71 L 593 -80 Q 598 -88 610 -103 Q 621 -118 630 -132 L 645 -160 Q 651 -172 656 -174 Q 658 -175 660 -175 Q 668 -175 681 -168 Q 698 -160 711 -148 Q 724 -137 737 -120 Q 751 -102 760 -82 Q 769 -60 779 -29 L 799 46 Q 803 58 809 73 Q 816 88 824 96 Q 831 104 833 108 L 833 109 Q 833 115 824 124 Q 815 134 799 143 Q 783 152 773 157 Q 761 161 751 162 Q 741 162 718 156 L 679 148 Q 664 145 625 141 L 534 132 L 457 123 L 377 114 Q 352 112 311 110 Q 270 108 259 106 L 237 104 Q 230 103 229 98 Q 229 94 235 89 Q 241 84 254 78 L 278 67 Q 287 63 296 63 L 300 63 Q 307 63 320 68 Q 334 72 343 74 Q 353 76 375 80 L 444 90 L 517 100 Z" />
      </clipPath>
      <path clip-path="url(#make-me-a-hanzi-clip-7)" d="M 236 96 L 298 86 L 715 136 L 752 133 L 775 116 L 781 103 L 778 86 L 744 -41 L 723 -85 L 699 -112 L 682 -123 L 664 -123 L 586 -68" fill="none" id="make-me-a-hanzi-animation-7" stroke-dasharray="1058 2116" stroke-linecap="round" />
    
      <clipPath id="make-me-a-hanzi-clip-8">
        <path d="M 444 90 L 427 60 Q 404 20 373 -14 Q 342 -48 307 -74 Q 273 -100 250 -115 Q 227 -130 209 -138 L 197 -144 Q 191 -146 191 -150 L 191 -152 Q 192 -156 197 -156 Q 199 -156 201 -155 L 221 -150 Q 233 -148 262 -137 Q 291 -125 325 -107 Q 359 -88 394 -58 Q 429 -28 455 6 Q 481 40 493 60 L 517 100 L 534 132 L 544 155 Q 548 165 553 173 Q 557 181 561 186 Q 565 190 567 194 Q 568 196 568 198 Q 568 200 567 202 Q 565 208 559 212 Q 555 216 545 224 L 523 234 L 487 246 Q 484 247 482 247 Q 479 247 477 246 Q 472 242 472 232 L 475 206 Q 475 196 471 177 Q 467 158 464 146 Q 461 135 457 123 L 444 90 Z" />
      </clipPath>
      <path clip-path="url(#make-me-a-hanzi-clip-8)" d="M 482 237 L 515 189 L 479 95 L 431 16 L 395 -26 L 332 -81 L 262 -123 L 196 -151" fill="none" id="make-me-a-hanzi-animation-8" stroke-dasharray="672 1344" stroke-linecap="round" />
    
  </g>
</svg>