<svg xmlns="http://www.w3.org/2000/svg" version="1.1" viewBox="0 0 1024 1024">
  <g stroke="lightgray" stroke-dasharray="1,1" stroke-width="1" transform="scale(4, 4)">
    <line x1="0" y1="0" x2="256" y2="256" />
    <line x1="256" y1="0" x2="0" y2="256" />
    <line x1="128" y1="0" x2="128" y2="256" />
    <line x1="0" y1="128" x2="256" y2="128" />
  </g>
  <g transform="scale(1.0, -1.0) translate(0.0, -848.50)">
    <style type="text/css">
      
        @keyframes keyframes0 {
          from {
            stroke: blue;
            stroke-dashoffset: 837;
            stroke-width: 128;
          }
          73% {
            animation-timing-function: step-end;
            stroke: blue;
            stroke-dashoffset: 0;
            stroke-width: 128;
          }
          to {
            stroke: black;
            stroke-width: 1024;
          }
        }
        #make-me-a-hanzi-animation-0 {
          animation: keyframes0 0.93115234375s both;
          animation-delay: 0s;
          animation-timing-function: linear;
        }
      
        @keyframes keyframes1 {
          from {
            stroke: blue;
            stroke-dashoffset: 439;
            stroke-width: 128;
          }
          59% {
            animation-timing-function: step-end;
            stroke: blue;
            stroke-dashoffset: 0;
            stroke-width: 128;
          }
          to {
            stroke: black;
            stroke-width: 1024;
          }
        }
        #make-me-a-hanzi-animation-1 {
          animation: keyframes1 0.6072591145833334s both;
          animation-delay: 0.93115234375s;
          animation-timing-function: linear;
        }
      
        @keyframes keyframes2 {
          from {
            stroke: blue;
            stroke-dashoffset: 483;
            stroke-width: 128;
          }
          61% {
            animation-timing-function: step-end;
            stroke: blue;
            stroke-dashoffset: 0;
            stroke-width: 128;
          }
          to {
            stroke: black;
            stroke-width: 1024;
          }
        }
        #make-me-a-hanzi-animation-2 {
          animation: keyframes2 0.64306640625s both;
          animation-delay: 1.5384114583333335s;
          animation-timing-function: linear;
        }
      
        @keyframes keyframes3 {
          from {
            stroke: blue;
            stroke-dashoffset: 612;
            stroke-width: 128;
          }
          67% {
            animation-timing-function: step-end;
            stroke: blue;
            stroke-dashoffset: 0;
            stroke-width: 128;
          }
          to {
            stroke: black;
            stroke-width: 1024;
          }
        }
        #make-me-a-hanzi-animation-3 {
          animation: keyframes3 0.748046875s both;
          animation-delay: 2.1814778645833335s;
          animation-timing-function: linear;
        }
      
        @keyframes keyframes4 {
          from {
            stroke: blue;
            stroke-dashoffset: 785;
            stroke-width: 128;
          }
          72% {
            animation-timing-function: step-end;
            stroke: blue;
            stroke-dashoffset: 0;
            stroke-width: 128;
          }
          to {
            stroke: black;
            stroke-width: 1024;
          }
        }
        #make-me-a-hanzi-animation-4 {
          animation: keyframes4 0.8888346354166666s both;
          animation-delay: 2.9295247395833335s;
          animation-timing-function: linear;
        }
      
        @keyframes keyframes5 {
          from {
            stroke: blue;
            stroke-dashoffset: 411;
            stroke-width: 128;
          }
          57% {
            animation-timing-function: step-end;
            stroke: blue;
            stroke-dashoffset: 0;
            stroke-width: 128;
          }
          to {
            stroke: black;
            stroke-width: 1024;
          }
        }
        #make-me-a-hanzi-animation-5 {
          animation: keyframes5 0.58447265625s both;
          animation-delay: 3.818359375s;
          animation-timing-function: linear;
        }
      
        @keyframes keyframes6 {
          from {
            stroke: blue;
            stroke-dashoffset: 347;
            stroke-width: 128;
          }
          53% {
            animation-timing-function: step-end;
            stroke: blue;
            stroke-dashoffset: 0;
            stroke-width: 128;
          }
          to {
            stroke: black;
            stroke-width: 1024;
          }
        }
        #make-me-a-hanzi-animation-6 {
          animation: keyframes6 0.5323893229166666s both;
          animation-delay: 4.40283203125s;
          animation-timing-function: linear;
        }
      
        @keyframes keyframes7 {
          from {
            stroke: blue;
            stroke-dashoffset: 1062;
            stroke-width: 128;
          }
          78% {
            animation-timing-function: step-end;
            stroke: blue;
            stroke-dashoffset: 0;
            stroke-width: 128;
          }
          to {
            stroke: black;
            stroke-width: 1024;
          }
        }
        #make-me-a-hanzi-animation-7 {
          animation: keyframes7 1.1142578125s both;
          animation-delay: 4.935221354166667s;
          animation-timing-function: linear;
        }
      
        @keyframes keyframes8 {
          from {
            stroke: blue;
            stroke-dashoffset: 826;
            stroke-width: 128;
          }
          73% {
            animation-timing-function: step-end;
            stroke: blue;
            stroke-dashoffset: 0;
            stroke-width: 128;
          }
          to {
            stroke: black;
            stroke-width: 1024;
          }
        }
        #make-me-a-hanzi-animation-8 {
          animation: keyframes8 0.9222005208333334s both;
          animation-delay: 6.049479166666667s;
          animation-timing-function: linear;
        }
      
    </style>
    
      <path d="M 406 651 Q 419 670 435 682 Q 445 692 441 706 Q 437 719 410 744 Q 383 765 364 765 Q 345 764 352 742 Q 365 705 350 677 Q 272 512 81 315 Q 71 305 67 299 Q 63 289 78 290 Q 127 297 302 505 L 375 606 Q 382 621 391 632 L 406 651 Z" fill="lightgray" />
    
      <path d="M 391 632 L 392 632 Q 447 589 514 528 Q 527 513 540 510 Q 547 510 553 518 Q 562 530 549 564 Q 533 609 406 651 C 378 661 366 648 391 632 Z" fill="lightgray" />
    
      <path d="M 385 393 Q 482 423 485 425 Q 492 432 488 441 Q 481 451 451 456 Q 423 460 394 445 Q 367 435 337 425 Q 304 415 266 409 Q 232 400 258 386 Q 295 370 344 380 L 385 393 Z" fill="lightgray" />
    
      <path d="M 402 255 Q 403 258 501 275 Q 511 274 519 287 Q 519 297 497 306 Q 467 324 404 301 L 352 285 Q 348 285 347 284 Q 289 268 166 243 Q 139 239 161 223 Q 197 202 221 209 Q 278 225 352 243 L 402 255 Z" fill="lightgray" />
    
      <path d="M 305 7 Q 287 13 264 19 Q 254 23 253 16 Q 253 9 262 0 Q 314 -46 347 -85 Q 357 -92 370 -79 Q 409 -27 403 88 Q 400 170 402 255 L 404 301 Q 408 373 408 374 Q 402 383 385 393 C 360 410 338 409 344 380 Q 350 362 352 285 L 352 243 Q 351 165 350 44 Q 349 16 339 6 Q 329 -1 305 7 Z" fill="lightgray" />
    
      <path d="M 231 159 Q 201 116 165 76 Q 141 49 151 14 Q 155 -4 178 4 Q 230 32 246 101 Q 256 131 254 155 Q 250 165 245 166 Q 236 166 231 159 Z" fill="lightgray" />
    
      <path d="M 441 166 Q 481 99 506 95 Q 519 94 526 109 Q 529 121 522 140 Q 509 170 448 190 Q 439 193 437 182 Q 436 175 441 166 Z" fill="lightgray" />
    
      <path d="M 723 162 Q 777 258 800 347 Q 810 390 839 420 Q 857 438 839 451 Q 817 464 786 470 Q 765 476 689 447 Q 631 429 553 419 Q 535 419 531 414 Q 528 402 551 387 Q 578 371 640 392 Q 721 423 731 422 Q 744 422 744 399 Q 728 285 687 204 L 664 163 Q 612 84 489 2 Q 476 -7 484 -12 Q 491 -15 513 -4 Q 595 27 646 67 Q 670 86 694 118 L 723 162 Z" fill="lightgray" />
    
      <path d="M 694 118 Q 740 49 784 -8 Q 799 -29 825 -30 Q 970 -33 982 -22 Q 986 -15 976 -11 Q 823 56 751 133 Q 736 146 723 162 L 687 204 Q 650 250 607 309 Q 597 327 580 330 Q 555 333 546 325 Q 543 319 551 313 Q 585 291 605 255 L 664 163 L 694 118 Z" fill="lightgray" />
    
    
      <clipPath id="make-me-a-hanzi-clip-0">
        <path d="M 406 651 Q 419 670 435 682 Q 445 692 441 706 Q 437 719 410 744 Q 383 765 364 765 Q 345 764 352 742 Q 365 705 350 677 Q 272 512 81 315 Q 71 305 67 299 Q 63 289 78 290 Q 127 297 302 505 L 375 606 Q 382 621 391 632 L 406 651 Z" />
      </clipPath>
      <path clip-path="url(#make-me-a-hanzi-clip-0)" d="M 363 751 L 380 736 L 397 702 L 349 615 L 278 508 L 216 434 L 132 344 L 75 298" fill="none" id="make-me-a-hanzi-animation-0" stroke-dasharray="709 1418" stroke-linecap="round" />
    
      <clipPath id="make-me-a-hanzi-clip-1">
        <path d="M 391 632 L 392 632 Q 447 589 514 528 Q 527 513 540 510 Q 547 510 553 518 Q 562 530 549 564 Q 533 609 406 651 C 378 661 366 648 391 632 Z" />
      </clipPath>
      <path clip-path="url(#make-me-a-hanzi-clip-1)" d="M 401 633 L 414 636 L 503 576 L 523 557 L 539 526" fill="none" id="make-me-a-hanzi-animation-1" stroke-dasharray="311 622" stroke-linecap="round" />
    
      <clipPath id="make-me-a-hanzi-clip-2">
        <path d="M 385 393 Q 482 423 485 425 Q 492 432 488 441 Q 481 451 451 456 Q 423 460 394 445 Q 367 435 337 425 Q 304 415 266 409 Q 232 400 258 386 Q 295 370 344 380 L 385 393 Z" />
      </clipPath>
      <path clip-path="url(#make-me-a-hanzi-clip-2)" d="M 259 398 L 319 397 L 432 433 L 480 433" fill="none" id="make-me-a-hanzi-animation-2" stroke-dasharray="355 710" stroke-linecap="round" />
    
      <clipPath id="make-me-a-hanzi-clip-3">
        <path d="M 402 255 Q 403 258 501 275 Q 511 274 519 287 Q 519 297 497 306 Q 467 324 404 301 L 352 285 Q 348 285 347 284 Q 289 268 166 243 Q 139 239 161 223 Q 197 202 221 209 Q 278 225 352 243 L 402 255 Z" />
      </clipPath>
      <path clip-path="url(#make-me-a-hanzi-clip-3)" d="M 161 234 L 212 230 L 421 284 L 466 292 L 509 288" fill="none" id="make-me-a-hanzi-animation-3" stroke-dasharray="484 968" stroke-linecap="round" />
    
      <clipPath id="make-me-a-hanzi-clip-4">
        <path d="M 305 7 Q 287 13 264 19 Q 254 23 253 16 Q 253 9 262 0 Q 314 -46 347 -85 Q 357 -92 370 -79 Q 409 -27 403 88 Q 400 170 402 255 L 404 301 Q 408 373 408 374 Q 402 383 385 393 C 360 410 338 409 344 380 Q 350 362 352 285 L 352 243 Q 351 165 350 44 Q 349 16 339 6 Q 329 -1 305 7 Z" />
      </clipPath>
      <path clip-path="url(#make-me-a-hanzi-clip-4)" d="M 352 378 L 378 356 L 378 58 L 373 8 L 363 -17 L 348 -30 L 321 -22 L 259 14" fill="none" id="make-me-a-hanzi-animation-4" stroke-dasharray="657 1314" stroke-linecap="round" />
    
      <clipPath id="make-me-a-hanzi-clip-5">
        <path d="M 231 159 Q 201 116 165 76 Q 141 49 151 14 Q 155 -4 178 4 Q 230 32 246 101 Q 256 131 254 155 Q 250 165 245 166 Q 236 166 231 159 Z" />
      </clipPath>
      <path clip-path="url(#make-me-a-hanzi-clip-5)" d="M 242 154 L 219 99 L 168 18" fill="none" id="make-me-a-hanzi-animation-5" stroke-dasharray="283 566" stroke-linecap="round" />
    
      <clipPath id="make-me-a-hanzi-clip-6">
        <path d="M 441 166 Q 481 99 506 95 Q 519 94 526 109 Q 529 121 522 140 Q 509 170 448 190 Q 439 193 437 182 Q 436 175 441 166 Z" />
      </clipPath>
      <path clip-path="url(#make-me-a-hanzi-clip-6)" d="M 448 179 L 493 137 L 508 112" fill="none" id="make-me-a-hanzi-animation-6" stroke-dasharray="219 438" stroke-linecap="round" />
    
      <clipPath id="make-me-a-hanzi-clip-7">
        <path d="M 723 162 Q 777 258 800 347 Q 810 390 839 420 Q 857 438 839 451 Q 817 464 786 470 Q 765 476 689 447 Q 631 429 553 419 Q 535 419 531 414 Q 528 402 551 387 Q 578 371 640 392 Q 721 423 731 422 Q 744 422 744 399 Q 728 285 687 204 L 664 163 Q 612 84 489 2 Q 476 -7 484 -12 Q 491 -15 513 -4 Q 595 27 646 67 Q 670 86 694 118 L 723 162 Z" />
      </clipPath>
      <path clip-path="url(#make-me-a-hanzi-clip-7)" d="M 537 410 L 571 401 L 607 404 L 742 442 L 769 436 L 785 424 L 749 281 L 720 210 L 677 137 L 607 65 L 547 24 L 489 -6" fill="none" id="make-me-a-hanzi-animation-7" stroke-dasharray="934 1868" stroke-linecap="round" />
    
      <clipPath id="make-me-a-hanzi-clip-8">
        <path d="M 694 118 Q 740 49 784 -8 Q 799 -29 825 -30 Q 970 -33 982 -22 Q 986 -15 976 -11 Q 823 56 751 133 Q 736 146 723 162 L 687 204 Q 650 250 607 309 Q 597 327 580 330 Q 555 333 546 325 Q 543 319 551 313 Q 585 291 605 255 L 664 163 L 694 118 Z" />
      </clipPath>
      <path clip-path="url(#make-me-a-hanzi-clip-8)" d="M 553 321 L 572 317 L 590 304 L 720 125 L 814 24 L 840 10 L 977 -18" fill="none" id="make-me-a-hanzi-animation-8" stroke-dasharray="698 1396" stroke-linecap="round" />
    
  </g>
</svg>