<svg xmlns="http://www.w3.org/2000/svg" version="1.1" viewBox="0 0 1024 1024">
  <g stroke="lightgray" stroke-dasharray="1,1" stroke-width="1" transform="scale(4, 4)">
    <line x1="0" y1="0" x2="256" y2="256" />
    <line x1="256" y1="0" x2="0" y2="256" />
    <line x1="128" y1="0" x2="128" y2="256" />
    <line x1="0" y1="128" x2="256" y2="128" />
  </g>
  <g transform="scale(1.0, -1.0) translate(0.0, -830.00)">
    <style type="text/css">
      
        @keyframes keyframes0 {
          from {
            stroke: blue;
            stroke-dashoffset: 534;
            stroke-width: 128;
          }
          63% {
            animation-timing-function: step-end;
            stroke: blue;
            stroke-dashoffset: 0;
            stroke-width: 128;
          }
          to {
            stroke: black;
            stroke-width: 1024;
          }
        }
        #make-me-a-hanzi-animation-0 {
          animation: keyframes0 0.6845703125s both;
          animation-delay: 0s;
          animation-timing-function: linear;
        }
      
        @keyframes keyframes1 {
          from {
            stroke: blue;
            stroke-dashoffset: 591;
            stroke-width: 128;
          }
          66% {
            animation-timing-function: step-end;
            stroke: blue;
            stroke-dashoffset: 0;
            stroke-width: 128;
          }
          to {
            stroke: black;
            stroke-width: 1024;
          }
        }
        #make-me-a-hanzi-animation-1 {
          animation: keyframes1 0.73095703125s both;
          animation-delay: 0.6845703125s;
          animation-timing-function: linear;
        }
      
        @keyframes keyframes2 {
          from {
            stroke: blue;
            stroke-dashoffset: 392;
            stroke-width: 128;
          }
          56% {
            animation-timing-function: step-end;
            stroke: blue;
            stroke-dashoffset: 0;
            stroke-width: 128;
          }
          to {
            stroke: black;
            stroke-width: 1024;
          }
        }
        #make-me-a-hanzi-animation-2 {
          animation: keyframes2 0.5690104166666666s both;
          animation-delay: 1.41552734375s;
          animation-timing-function: linear;
        }
      
        @keyframes keyframes3 {
          from {
            stroke: blue;
            stroke-dashoffset: 728;
            stroke-width: 128;
          }
          70% {
            animation-timing-function: step-end;
            stroke: blue;
            stroke-dashoffset: 0;
            stroke-width: 128;
          }
          to {
            stroke: black;
            stroke-width: 1024;
          }
        }
        #make-me-a-hanzi-animation-3 {
          animation: keyframes3 0.8424479166666666s both;
          animation-delay: 1.9845377604166665s;
          animation-timing-function: linear;
        }
      
        @keyframes keyframes4 {
          from {
            stroke: blue;
            stroke-dashoffset: 1068;
            stroke-width: 128;
          }
          78% {
            animation-timing-function: step-end;
            stroke: blue;
            stroke-dashoffset: 0;
            stroke-width: 128;
          }
          to {
            stroke: black;
            stroke-width: 1024;
          }
        }
        #make-me-a-hanzi-animation-4 {
          animation: keyframes4 1.119140625s both;
          animation-delay: 2.826985677083333s;
          animation-timing-function: linear;
        }
      
        @keyframes keyframes5 {
          from {
            stroke: blue;
            stroke-dashoffset: 570;
            stroke-width: 128;
          }
          65% {
            animation-timing-function: step-end;
            stroke: blue;
            stroke-dashoffset: 0;
            stroke-width: 128;
          }
          to {
            stroke: black;
            stroke-width: 1024;
          }
        }
        #make-me-a-hanzi-animation-5 {
          animation: keyframes5 0.7138671875s both;
          animation-delay: 3.946126302083333s;
          animation-timing-function: linear;
        }
      
        @keyframes keyframes6 {
          from {
            stroke: blue;
            stroke-dashoffset: 492;
            stroke-width: 128;
          }
          62% {
            animation-timing-function: step-end;
            stroke: blue;
            stroke-dashoffset: 0;
            stroke-width: 128;
          }
          to {
            stroke: black;
            stroke-width: 1024;
          }
        }
        #make-me-a-hanzi-animation-6 {
          animation: keyframes6 0.650390625s both;
          animation-delay: 4.659993489583333s;
          animation-timing-function: linear;
        }
      
        @keyframes keyframes7 {
          from {
            stroke: blue;
            stroke-dashoffset: 821;
            stroke-width: 128;
          }
          73% {
            animation-timing-function: step-end;
            stroke: blue;
            stroke-dashoffset: 0;
            stroke-width: 128;
          }
          to {
            stroke: black;
            stroke-width: 1024;
          }
        }
        #make-me-a-hanzi-animation-7 {
          animation: keyframes7 0.9181315104166666s both;
          animation-delay: 5.310384114583333s;
          animation-timing-function: linear;
        }
      
    </style>
    
      <path d="M 91 463 Q 80 463 80 454 Q 80 449 87 437 Q 102 419 109 386 Q 123 342 130 232 Q 132 188 156 186 Q 168 186 170 228 L 171 257 Q 170 312 161 419 L 150 449 Q 144 456 133 458 Q 118 463 91 463 Z" fill="lightgray" />
    
      <path d="M 300 273 Q 318 367 349 414 Q 368 443 368 450 Q 368 459 338 477 Q 306 494 292 494 Q 284 494 263 482 Q 230 465 150 449 C 121 443 131 416 161 419 Q 177 420 213 427 Q 251 434 263 434 Q 280 434 280 419 L 258 276 C 253 246 294 244 300 273 Z" fill="lightgray" />
    
      <path d="M 170 228 Q 179 222 191 222 Q 250 230 311 238 Q 324 244 324 251 Q 324 261 305 271 Q 303 272 300 273 L 258 276 Q 237 271 171 257 C 142 251 144 243 170 228 Z" fill="lightgray" />
    
      <path d="M 808 534 Q 792 534 753 522 Q 707 507 620 492 L 553 482 Q 485 472 399 463 Q 387 461 387 450 Q 387 443 412 435 Q 440 427 464 427 Q 488 427 531 434 Q 534 434 537 435 L 602 444 Q 675 456 804 475 Q 830 478 859 490 Q 874 497 876 511 Q 872 533 808 534 Z" fill="lightgray" />
    
      <path d="M 620 492 Q 630 521 640 552 Q 663 627 676 640 Q 680 649 680 654 Q 680 667 644 687 Q 614 702 599 702 Q 588 702 588 690 Q 588 604 567 532 Q 561 509 553 482 L 537 435 Q 520 388 496 332 Q 412 158 287 51 Q 248 20 248 14 Q 248 10 256 10 Q 282 10 353 63 Q 427 117 492 220 Q 495 224 498 230 L 516 259 Q 560 334 602 444 L 620 492 Z" fill="lightgray" />
    
      <path d="M 498 230 Q 519 222 540 222 Q 556 222 584 228 Q 596 230 616 233 L 666 240 Q 707 247 764 255 Q 787 258 813 268 Q 827 274 827 287 Q 824 306 764 306 Q 753 306 726 298 Q 668 277 516 259 C 486 255 470 240 498 230 Z" fill="lightgray" />
    
      <path d="M 616 233 Q 628 205 628 178 Q 628 166 627 136 Q 626 91 625 11 C 625 -19 669 -13 673 17 Q 684 95 691 161 Q 694 191 703 211 Q 703 221 668 239 Q 667 239 666 240 C 639 254 605 261 616 233 Z" fill="lightgray" />
    
      <path d="M 625 11 Q 585 6 534 -1 Q 432 -16 376 -22 Q 364 -25 364 -34 Q 365 -37 389 -53 Q 409 -66 424 -66 Q 432 -66 461 -59 Q 536 -43 629 -35 Q 718 -26 792 -26 L 836 -28 Q 888 -34 911 -34 Q 945 -33 947 -13 Q 944 4 915 21 Q 886 39 863 39 Q 852 39 833 36 Q 801 32 766 28 Q 742 26 673 17 L 625 11 Z" fill="lightgray" />
    
    
      <clipPath id="make-me-a-hanzi-clip-0">
        <path d="M 91 463 Q 80 463 80 454 Q 80 449 87 437 Q 102 419 109 386 Q 123 342 130 232 Q 132 188 156 186 Q 168 186 170 228 L 171 257 Q 170 312 161 419 L 150 449 Q 144 456 133 458 Q 118 463 91 463 Z" />
      </clipPath>
      <path clip-path="url(#make-me-a-hanzi-clip-0)" d="M 90 453 L 126 429 L 134 407 L 154 197" fill="none" id="make-me-a-hanzi-animation-0" stroke-dasharray="406 812" stroke-linecap="round" />
    
      <clipPath id="make-me-a-hanzi-clip-1">
        <path d="M 300 273 Q 318 367 349 414 Q 368 443 368 450 Q 368 459 338 477 Q 306 494 292 494 Q 284 494 263 482 Q 230 465 150 449 C 121 443 131 416 161 419 Q 177 420 213 427 Q 251 434 263 434 Q 280 434 280 419 L 258 276 C 253 246 294 244 300 273 Z" />
      </clipPath>
      <path clip-path="url(#make-me-a-hanzi-clip-1)" d="M 161 445 L 174 437 L 285 460 L 313 446 L 315 428 L 285 305 L 265 282" fill="none" id="make-me-a-hanzi-animation-1" stroke-dasharray="463 926" stroke-linecap="round" />
    
      <clipPath id="make-me-a-hanzi-clip-2">
        <path d="M 170 228 Q 179 222 191 222 Q 250 230 311 238 Q 324 244 324 251 Q 324 261 305 271 Q 303 272 300 273 L 258 276 Q 237 271 171 257 C 142 251 144 243 170 228 Z" />
      </clipPath>
      <path clip-path="url(#make-me-a-hanzi-clip-2)" d="M 179 235 L 259 254 L 313 252" fill="none" id="make-me-a-hanzi-animation-2" stroke-dasharray="264 528" stroke-linecap="round" />
    
      <clipPath id="make-me-a-hanzi-clip-3">
        <path d="M 808 534 Q 792 534 753 522 Q 707 507 620 492 L 553 482 Q 485 472 399 463 Q 387 461 387 450 Q 387 443 412 435 Q 440 427 464 427 Q 488 427 531 434 Q 534 434 537 435 L 602 444 Q 675 456 804 475 Q 830 478 859 490 Q 874 497 876 511 Q 872 533 808 534 Z" />
      </clipPath>
      <path clip-path="url(#make-me-a-hanzi-clip-3)" d="M 396 452 L 504 452 L 785 502 L 863 509" fill="none" id="make-me-a-hanzi-animation-3" stroke-dasharray="600 1200" stroke-linecap="round" />
    
      <clipPath id="make-me-a-hanzi-clip-4">
        <path d="M 620 492 Q 630 521 640 552 Q 663 627 676 640 Q 680 649 680 654 Q 680 667 644 687 Q 614 702 599 702 Q 588 702 588 690 Q 588 604 567 532 Q 561 509 553 482 L 537 435 Q 520 388 496 332 Q 412 158 287 51 Q 248 20 248 14 Q 248 10 256 10 Q 282 10 353 63 Q 427 117 492 220 Q 495 224 498 230 L 516 259 Q 560 334 602 444 L 620 492 Z" />
      </clipPath>
      <path clip-path="url(#make-me-a-hanzi-clip-4)" d="M 598 692 L 629 645 L 627 634 L 577 460 L 504 289 L 458 212 L 394 128 L 334 68 L 253 14" fill="none" id="make-me-a-hanzi-animation-4" stroke-dasharray="940 1880" stroke-linecap="round" />
    
      <clipPath id="make-me-a-hanzi-clip-5">
        <path d="M 498 230 Q 519 222 540 222 Q 556 222 584 228 Q 596 230 616 233 L 666 240 Q 707 247 764 255 Q 787 258 813 268 Q 827 274 827 287 Q 824 306 764 306 Q 753 306 726 298 Q 668 277 516 259 C 486 255 470 240 498 230 Z" />
      </clipPath>
      <path clip-path="url(#make-me-a-hanzi-clip-5)" d="M 506 232 L 529 243 L 557 243 L 762 281 L 814 285" fill="none" id="make-me-a-hanzi-animation-5" stroke-dasharray="442 884" stroke-linecap="round" />
    
      <clipPath id="make-me-a-hanzi-clip-6">
        <path d="M 616 233 Q 628 205 628 178 Q 628 166 627 136 Q 626 91 625 11 C 625 -19 669 -13 673 17 Q 684 95 691 161 Q 694 191 703 211 Q 703 221 668 239 Q 667 239 666 240 C 639 254 605 261 616 233 Z" />
      </clipPath>
      <path clip-path="url(#make-me-a-hanzi-clip-6)" d="M 623 228 L 662 202 L 651 44 L 630 21" fill="none" id="make-me-a-hanzi-animation-6" stroke-dasharray="364 728" stroke-linecap="round" />
    
      <clipPath id="make-me-a-hanzi-clip-7">
        <path d="M 625 11 Q 585 6 534 -1 Q 432 -16 376 -22 Q 364 -25 364 -34 Q 365 -37 389 -53 Q 409 -66 424 -66 Q 432 -66 461 -59 Q 536 -43 629 -35 Q 718 -26 792 -26 L 836 -28 Q 888 -34 911 -34 Q 945 -33 947 -13 Q 944 4 915 21 Q 886 39 863 39 Q 852 39 833 36 Q 801 32 766 28 Q 742 26 673 17 L 625 11 Z" />
      </clipPath>
      <path clip-path="url(#make-me-a-hanzi-clip-7)" d="M 372 -33 L 422 -41 L 593 -15 L 846 5 L 932 -13" fill="none" id="make-me-a-hanzi-animation-7" stroke-dasharray="693 1386" stroke-linecap="round" />
    
  </g>
</svg>