<svg xmlns="http://www.w3.org/2000/svg" version="1.1" viewBox="0 0 1024 1024">
  <g stroke="lightgray" stroke-dasharray="1,1" stroke-width="1" transform="scale(4, 4)">
    <line x1="0" y1="0" x2="256" y2="256" />
    <line x1="256" y1="0" x2="0" y2="256" />
    <line x1="128" y1="0" x2="128" y2="256" />
    <line x1="0" y1="128" x2="256" y2="128" />
  </g>
  <g transform="scale(1.0, -1.0) translate(0.0, -821.50)">
    <style type="text/css">
      
        @keyframes keyframes0 {
          from {
            stroke: blue;
            stroke-dashoffset: 512;
            stroke-width: 128;
          }
          63% {
            animation-timing-function: step-end;
            stroke: blue;
            stroke-dashoffset: 0;
            stroke-width: 128;
          }
          to {
            stroke: black;
            stroke-width: 1024;
          }
        }
        #make-me-a-hanzi-animation-0 {
          animation: keyframes0 0.6666666666666666s both;
          animation-delay: 0s;
          animation-timing-function: linear;
        }
      
        @keyframes keyframes1 {
          from {
            stroke: blue;
            stroke-dashoffset: 564;
            stroke-width: 128;
          }
          65% {
            animation-timing-function: step-end;
            stroke: blue;
            stroke-dashoffset: 0;
            stroke-width: 128;
          }
          to {
            stroke: black;
            stroke-width: 1024;
          }
        }
        #make-me-a-hanzi-animation-1 {
          animation: keyframes1 0.708984375s both;
          animation-delay: 0.6666666666666666s;
          animation-timing-function: linear;
        }
      
        @keyframes keyframes2 {
          from {
            stroke: blue;
            stroke-dashoffset: 396;
            stroke-width: 128;
          }
          56% {
            animation-timing-function: step-end;
            stroke: blue;
            stroke-dashoffset: 0;
            stroke-width: 128;
          }
          to {
            stroke: black;
            stroke-width: 1024;
          }
        }
        #make-me-a-hanzi-animation-2 {
          animation: keyframes2 0.572265625s both;
          animation-delay: 1.3756510416666665s;
          animation-timing-function: linear;
        }
      
        @keyframes keyframes3 {
          from {
            stroke: blue;
            stroke-dashoffset: 490;
            stroke-width: 128;
          }
          61% {
            animation-timing-function: step-end;
            stroke: blue;
            stroke-dashoffset: 0;
            stroke-width: 128;
          }
          to {
            stroke: black;
            stroke-width: 1024;
          }
        }
        #make-me-a-hanzi-animation-3 {
          animation: keyframes3 0.6487630208333334s both;
          animation-delay: 1.9479166666666665s;
          animation-timing-function: linear;
        }
      
        @keyframes keyframes4 {
          from {
            stroke: blue;
            stroke-dashoffset: 722;
            stroke-width: 128;
          }
          70% {
            animation-timing-function: step-end;
            stroke: blue;
            stroke-dashoffset: 0;
            stroke-width: 128;
          }
          to {
            stroke: black;
            stroke-width: 1024;
          }
        }
        #make-me-a-hanzi-animation-4 {
          animation: keyframes4 0.8375651041666666s both;
          animation-delay: 2.5966796875s;
          animation-timing-function: linear;
        }
      
        @keyframes keyframes5 {
          from {
            stroke: blue;
            stroke-dashoffset: 897;
            stroke-width: 128;
          }
          74% {
            animation-timing-function: step-end;
            stroke: blue;
            stroke-dashoffset: 0;
            stroke-width: 128;
          }
          to {
            stroke: black;
            stroke-width: 1024;
          }
        }
        #make-me-a-hanzi-animation-5 {
          animation: keyframes5 0.97998046875s both;
          animation-delay: 3.4342447916666665s;
          animation-timing-function: linear;
        }
      
        @keyframes keyframes6 {
          from {
            stroke: blue;
            stroke-dashoffset: 373;
            stroke-width: 128;
          }
          55% {
            animation-timing-function: step-end;
            stroke: blue;
            stroke-dashoffset: 0;
            stroke-width: 128;
          }
          to {
            stroke: black;
            stroke-width: 1024;
          }
        }
        #make-me-a-hanzi-animation-6 {
          animation: keyframes6 0.5535481770833334s both;
          animation-delay: 4.414225260416666s;
          animation-timing-function: linear;
        }
      
        @keyframes keyframes7 {
          from {
            stroke: blue;
            stroke-dashoffset: 361;
            stroke-width: 128;
          }
          54% {
            animation-timing-function: step-end;
            stroke: blue;
            stroke-dashoffset: 0;
            stroke-width: 128;
          }
          to {
            stroke: black;
            stroke-width: 1024;
          }
        }
        #make-me-a-hanzi-animation-7 {
          animation: keyframes7 0.5437825520833334s both;
          animation-delay: 4.967773437499999s;
          animation-timing-function: linear;
        }
      
        @keyframes keyframes8 {
          from {
            stroke: blue;
            stroke-dashoffset: 609;
            stroke-width: 128;
          }
          66% {
            animation-timing-function: step-end;
            stroke: blue;
            stroke-dashoffset: 0;
            stroke-width: 128;
          }
          to {
            stroke: black;
            stroke-width: 1024;
          }
        }
        #make-me-a-hanzi-animation-8 {
          animation: keyframes8 0.74560546875s both;
          animation-delay: 5.511555989583332s;
          animation-timing-function: linear;
        }
      
        @keyframes keyframes9 {
          from {
            stroke: blue;
            stroke-dashoffset: 1173;
            stroke-width: 128;
          }
          79% {
            animation-timing-function: step-end;
            stroke: blue;
            stroke-dashoffset: 0;
            stroke-width: 128;
          }
          to {
            stroke: black;
            stroke-width: 1024;
          }
        }
        #make-me-a-hanzi-animation-9 {
          animation: keyframes9 1.20458984375s both;
          animation-delay: 6.257161458333332s;
          animation-timing-function: linear;
        }
      
        @keyframes keyframes10 {
          from {
            stroke: blue;
            stroke-dashoffset: 409;
            stroke-width: 128;
          }
          57% {
            animation-timing-function: step-end;
            stroke: blue;
            stroke-dashoffset: 0;
            stroke-width: 128;
          }
          to {
            stroke: black;
            stroke-width: 1024;
          }
        }
        #make-me-a-hanzi-animation-10 {
          animation: keyframes10 0.5828450520833334s both;
          animation-delay: 7.461751302083332s;
          animation-timing-function: linear;
        }
      
    </style>
    
      <path d="M 134 460 L 120 466 Q 106 470 97 470 Q 93 470 90 469 Q 87 468 87 464 Q 87 460 91 453 L 91 449 L 95 443 Q 110 380 111 315 Q 111 249 125 226 Q 131 218 144 218 L 149 218 L 156 253 L 157 284 L 157 323 L 154 433 C 153 452 153 452 134 460 Z" fill="lightgray" />
    
      <path d="M 288 290 L 325 424 Q 336 435 336 444 Q 336 453 326 459 L 285 485 Q 274 492 263 492 Q 255 492 247 487 L 190 470 L 134 460 C 104 455 124 430 154 433 L 216 439 Q 224 440 230 440 Q 245 440 249 435 Q 255 431 255 411 Q 255 399 253 383 L 241 297 C 237 267 280 261 288 290 Z" fill="lightgray" />
    
      <path d="M 290 289 L 288 290 C 270 302 270 302 241 297 L 157 284 C 127 279 126 253 156 253 L 167 253 L 298 260 Q 307 260 308 268 L 308 269 Q 308 275 290 289 Z" fill="lightgray" />
    
      <path d="M 399 482 L 448 545 L 488 604 Q 500 623 519 641 Q 528 649 528 657 Q 528 664 520 671 Q 504 683 475 689 Q 463 691 454 691 Q 443 691 436 688 Q 430 684 430 679 Q 430 674 433 669 Q 437 662 437 650 Q 437 643 435 633 Q 426 591 407 552 L 375 481 C 363 454 381 458 399 482 Z" fill="lightgray" />
    
      <path d="M 375 481 L 363 487 Q 358 489 353 489 Q 348 489 343 487 Q 339 484 339 479 Q 339 475 340 471 L 348 444 L 355 374 L 357 241 Q 356 163 348 106 L 345 63 Q 346 47 361 24 Q 369 11 376 11 Q 381 11 385 16 L 398 47 L 402 86 L 404 245 L 404 262 L 404 301 L 404 450 C 404 467 402 468 375 481 Z" fill="lightgray" />
    
      <path d="M 575 102 L 575 120 L 571 283 L 571 404 Q 571 428 582 442 Q 587 448 587 455 Q 587 463 581 471 Q 569 486 544 501 Q 529 509 514 509 Q 505 509 495 506 L 424 487 L 399 482 C 366 475 345 442 404 450 L 451 456 Q 482 460 496 460 Q 506 460 509 458 Q 521 446 521 414 L 523 334 L 523 308 L 523 276 L 523 240 L 520 156 L 512 97 L 509 92 C 502 63 475 71 485 54 L 517 2 Q 526 -10 536 -11 Q 545 -11 565 29 Q 575 50 575 102 Z" fill="lightgray" />
    
      <path d="M 404 262 L 426 262 L 488 271 L 523 276 C 553 280 550 295 523 308 L 515 312 Q 508 314 500 314 Q 493 314 486 313 L 449 306 L 413 301 L 404 301 C 374 301 374 262 404 262 Z" fill="lightgray" />
    
      <path d="M 398 47 L 429 47 L 482 54 L 485 54 C 515 55 537 81 509 92 L 501 95 Q 494 98 485 98 Q 478 98 470 96 L 438 90 L 408 86 L 402 86 C 372 86 368 47 398 47 Z" fill="lightgray" />
    
      <path d="M 694 631 Q 687 592 658 536 Q 631 481 590 418 L 580 400 L 580 399 Q 580 395 585 395 L 589 395 Q 598 398 620 419 Q 647 443 680 489 L 703 523 L 740 581 L 778 647 Q 782 653 782 660 Q 782 664 781 668 Q 777 678 750 695 Q 727 709 709 709 L 707 709 Q 697 709 697 700 Q 697 696 700 688 L 700 683 Q 700 665 694 631 Z" fill="lightgray" />
    
      <path d="M 680 489 L 698 486 L 720 486 L 763 492 L 820 499 Q 826 500 831 500 Q 847 500 854 493 Q 869 477 870 376 Q 870 277 856 185 Q 841 95 812 26 Q 805 8 795 3 Q 791 2 784 2 Q 778 2 770 3 L 689 16 Q 684 17 680 17 Q 675 17 673 15 L 673 14 Q 673 10 685 -3 Q 742 -42 773 -75 Q 783 -90 797 -90 L 801 -90 Q 816 -89 842 -55 Q 867 -24 890 56 Q 911 134 920 260 L 930 434 Q 930 452 940 468 Q 947 478 947 488 Q 947 493 945 498 Q 941 511 927 521 L 890 545 Q 876 554 865 554 Q 856 554 849 549 L 760 530 L 703 523 C 673 519 650 492 680 489 Z" fill="lightgray" />
    
      <path d="M 725 328 Q 704 341 658 358 Q 652 360 647 360 Q 641 360 637 355 Q 636 353 636 351 Q 636 343 646 328 Q 695 253 723 226 Q 731 218 741 218 Q 747 218 754 221 Q 767 226 767 251 L 767 261 Q 764 292 755 304 Q 748 314 725 328 Z" fill="lightgray" />
    
    
      <clipPath id="make-me-a-hanzi-clip-0">
        <path d="M 134 460 L 120 466 Q 106 470 97 470 Q 93 470 90 469 Q 87 468 87 464 Q 87 460 91 453 L 91 449 L 95 443 Q 110 380 111 315 Q 111 249 125 226 Q 131 218 144 218 L 149 218 L 156 253 L 157 284 L 157 323 L 154 433 C 153 452 153 452 134 460 Z" />
      </clipPath>
      <path clip-path="url(#make-me-a-hanzi-clip-0)" d="M 94 463 L 110 452 L 127 423 L 137 234 L 147 225" fill="none" id="make-me-a-hanzi-animation-0" stroke-dasharray="384 768" stroke-linecap="round" />
    
      <clipPath id="make-me-a-hanzi-clip-1">
        <path d="M 288 290 L 325 424 Q 336 435 336 444 Q 336 453 326 459 L 285 485 Q 274 492 263 492 Q 255 492 247 487 L 190 470 L 134 460 C 104 455 124 430 154 433 L 216 439 Q 224 440 230 440 Q 245 440 249 435 Q 255 431 255 411 Q 255 399 253 383 L 241 297 C 237 267 280 261 288 290 Z" />
      </clipPath>
      <path clip-path="url(#make-me-a-hanzi-clip-1)" d="M 141 459 L 162 449 L 246 463 L 266 460 L 290 438 L 270 318 L 250 303" fill="none" id="make-me-a-hanzi-animation-1" stroke-dasharray="436 872" stroke-linecap="round" />
    
      <clipPath id="make-me-a-hanzi-clip-2">
        <path d="M 290 289 L 288 290 C 270 302 270 302 241 297 L 157 284 C 127 279 126 253 156 253 L 167 253 L 298 260 Q 307 260 308 268 L 308 269 Q 308 275 290 289 Z" />
      </clipPath>
      <path clip-path="url(#make-me-a-hanzi-clip-2)" d="M 162 261 L 180 271 L 237 277 L 299 269" fill="none" id="make-me-a-hanzi-animation-2" stroke-dasharray="268 536" stroke-linecap="round" />
    
      <clipPath id="make-me-a-hanzi-clip-3">
        <path d="M 399 482 L 448 545 L 488 604 Q 500 623 519 641 Q 528 649 528 657 Q 528 664 520 671 Q 504 683 475 689 Q 463 691 454 691 Q 443 691 436 688 Q 430 684 430 679 Q 430 674 433 669 Q 437 662 437 650 Q 437 643 435 633 Q 426 591 407 552 L 375 481 C 363 454 381 458 399 482 Z" />
      </clipPath>
      <path clip-path="url(#make-me-a-hanzi-clip-3)" d="M 442 677 L 475 650 L 428 550 L 393 492 L 381 487" fill="none" id="make-me-a-hanzi-animation-3" stroke-dasharray="362 724" stroke-linecap="round" />
    
      <clipPath id="make-me-a-hanzi-clip-4">
        <path d="M 375 481 L 363 487 Q 358 489 353 489 Q 348 489 343 487 Q 339 484 339 479 Q 339 475 340 471 L 348 444 L 355 374 L 357 241 Q 356 163 348 106 L 345 63 Q 346 47 361 24 Q 369 11 376 11 Q 381 11 385 16 L 398 47 L 402 86 L 404 245 L 404 262 L 404 301 L 404 450 C 404 467 402 468 375 481 Z" />
      </clipPath>
      <path clip-path="url(#make-me-a-hanzi-clip-4)" d="M 350 479 L 372 449 L 378 412 L 381 221 L 372 62 L 376 21" fill="none" id="make-me-a-hanzi-animation-4" stroke-dasharray="594 1188" stroke-linecap="round" />
    
      <clipPath id="make-me-a-hanzi-clip-5">
        <path d="M 575 102 L 575 120 L 571 283 L 571 404 Q 571 428 582 442 Q 587 448 587 455 Q 587 463 581 471 Q 569 486 544 501 Q 529 509 514 509 Q 505 509 495 506 L 424 487 L 399 482 C 366 475 345 442 404 450 L 451 456 Q 482 460 496 460 Q 506 460 509 458 Q 521 446 521 414 L 523 334 L 523 308 L 523 276 L 523 240 L 520 156 L 512 97 L 509 92 C 502 63 475 71 485 54 L 517 2 Q 526 -10 536 -11 Q 545 -11 565 29 Q 575 50 575 102 Z" />
      </clipPath>
      <path clip-path="url(#make-me-a-hanzi-clip-5)" d="M 381 477 L 411 467 L 511 484 L 527 479 L 550 454 L 548 156 L 544 93 L 532 54 L 534 -1" fill="none" id="make-me-a-hanzi-animation-5" stroke-dasharray="769 1538" stroke-linecap="round" />
    
      <clipPath id="make-me-a-hanzi-clip-6">
        <path d="M 404 262 L 426 262 L 488 271 L 523 276 C 553 280 550 295 523 308 L 515 312 Q 508 314 500 314 Q 493 314 486 313 L 449 306 L 413 301 L 404 301 C 374 301 374 262 404 262 Z" />
      </clipPath>
      <path clip-path="url(#make-me-a-hanzi-clip-6)" d="M 409 295 L 424 282 L 503 293 L 516 281" fill="none" id="make-me-a-hanzi-animation-6" stroke-dasharray="245 490" stroke-linecap="round" />
    
      <clipPath id="make-me-a-hanzi-clip-7">
        <path d="M 398 47 L 429 47 L 482 54 L 485 54 C 515 55 537 81 509 92 L 501 95 Q 494 98 485 98 Q 478 98 470 96 L 438 90 L 408 86 L 402 86 C 372 86 368 47 398 47 Z" />
      </clipPath>
      <path clip-path="url(#make-me-a-hanzi-clip-7)" d="M 406 53 L 421 67 L 469 74 L 503 87" fill="none" id="make-me-a-hanzi-animation-7" stroke-dasharray="233 466" stroke-linecap="round" />
    
      <clipPath id="make-me-a-hanzi-clip-8">
        <path d="M 694 631 Q 687 592 658 536 Q 631 481 590 418 L 580 400 L 580 399 Q 580 395 585 395 L 589 395 Q 598 398 620 419 Q 647 443 680 489 L 703 523 L 740 581 L 778 647 Q 782 653 782 660 Q 782 664 781 668 Q 777 678 750 695 Q 727 709 709 709 L 707 709 Q 697 709 697 700 Q 697 696 700 688 L 700 683 Q 700 665 694 631 Z" />
      </clipPath>
      <path clip-path="url(#make-me-a-hanzi-clip-8)" d="M 708 698 L 722 686 L 738 656 L 718 602 L 641 465 L 585 400" fill="none" id="make-me-a-hanzi-animation-8" stroke-dasharray="481 962" stroke-linecap="round" />
    
      <clipPath id="make-me-a-hanzi-clip-9">
        <path d="M 680 489 L 698 486 L 720 486 L 763 492 L 820 499 Q 826 500 831 500 Q 847 500 854 493 Q 869 477 870 376 Q 870 277 856 185 Q 841 95 812 26 Q 805 8 795 3 Q 791 2 784 2 Q 778 2 770 3 L 689 16 Q 684 17 680 17 Q 675 17 673 15 L 673 14 Q 673 10 685 -3 Q 742 -42 773 -75 Q 783 -90 797 -90 L 801 -90 Q 816 -89 842 -55 Q 867 -24 890 56 Q 911 134 920 260 L 930 434 Q 930 452 940 468 Q 947 478 947 488 Q 947 493 945 498 Q 941 511 927 521 L 890 545 Q 876 554 865 554 Q 856 554 849 549 L 760 530 L 703 523 C 673 519 650 492 680 489 Z" />
      </clipPath>
      <path clip-path="url(#make-me-a-hanzi-clip-9)" d="M 685 494 L 715 505 L 847 524 L 879 514 L 902 481 L 885 182 L 858 55 L 834 -5 L 799 -40 L 698 1 L 677 15" fill="none" id="make-me-a-hanzi-animation-9" stroke-dasharray="1045 2090" stroke-linecap="round" />
    
      <clipPath id="make-me-a-hanzi-clip-10">
        <path d="M 725 328 Q 704 341 658 358 Q 652 360 647 360 Q 641 360 637 355 Q 636 353 636 351 Q 636 343 646 328 Q 695 253 723 226 Q 731 218 741 218 Q 747 218 754 221 Q 767 226 767 251 L 767 261 Q 764 292 755 304 Q 748 314 725 328 Z" />
      </clipPath>
      <path clip-path="url(#make-me-a-hanzi-clip-10)" d="M 645 351 L 721 286 L 746 239" fill="none" id="make-me-a-hanzi-animation-10" stroke-dasharray="281 562" stroke-linecap="round" />
    
  </g>
</svg>