<svg xmlns="http://www.w3.org/2000/svg" version="1.1" viewBox="0 0 1024 1024">
  <g stroke="lightgray" stroke-dasharray="1,1" stroke-width="1" transform="scale(4, 4)">
    <line x1="0" y1="0" x2="256" y2="256" />
    <line x1="256" y1="0" x2="0" y2="256" />
    <line x1="128" y1="0" x2="128" y2="256" />
    <line x1="0" y1="128" x2="256" y2="128" />
  </g>
  <g transform="scale(1.0, -1.0) translate(0.0, -816.50)">
    <style type="text/css">
      
        @keyframes keyframes0 {
          from {
            stroke: blue;
            stroke-dashoffset: 969;
            stroke-width: 128;
          }
          76% {
            animation-timing-function: step-end;
            stroke: blue;
            stroke-dashoffset: 0;
            stroke-width: 128;
          }
          to {
            stroke: black;
            stroke-width: 1024;
          }
        }
        #make-me-a-hanzi-animation-0 {
          animation: keyframes0 1.03857421875s both;
          animation-delay: 0s;
          animation-timing-function: linear;
        }
      
        @keyframes keyframes1 {
          from {
            stroke: blue;
            stroke-dashoffset: 1529;
            stroke-width: 128;
          }
          83% {
            animation-timing-function: step-end;
            stroke: blue;
            stroke-dashoffset: 0;
            stroke-width: 128;
          }
          to {
            stroke: black;
            stroke-width: 1024;
          }
        }
        #make-me-a-hanzi-animation-1 {
          animation: keyframes1 1.4943033854166667s both;
          animation-delay: 1.03857421875s;
          animation-timing-function: linear;
        }
      
        @keyframes keyframes2 {
          from {
            stroke: blue;
            stroke-dashoffset: 616;
            stroke-width: 128;
          }
          67% {
            animation-timing-function: step-end;
            stroke: blue;
            stroke-dashoffset: 0;
            stroke-width: 128;
          }
          to {
            stroke: black;
            stroke-width: 1024;
          }
        }
        #make-me-a-hanzi-animation-2 {
          animation: keyframes2 0.7513020833333334s both;
          animation-delay: 2.532877604166667s;
          animation-timing-function: linear;
        }
      
        @keyframes keyframes3 {
          from {
            stroke: blue;
            stroke-dashoffset: 850;
            stroke-width: 128;
          }
          73% {
            animation-timing-function: step-end;
            stroke: blue;
            stroke-dashoffset: 0;
            stroke-width: 128;
          }
          to {
            stroke: black;
            stroke-width: 1024;
          }
        }
        #make-me-a-hanzi-animation-3 {
          animation: keyframes3 0.9417317708333334s both;
          animation-delay: 3.2841796875000004s;
          animation-timing-function: linear;
        }
      
        @keyframes keyframes4 {
          from {
            stroke: blue;
            stroke-dashoffset: 622;
            stroke-width: 128;
          }
          67% {
            animation-timing-function: step-end;
            stroke: blue;
            stroke-dashoffset: 0;
            stroke-width: 128;
          }
          to {
            stroke: black;
            stroke-width: 1024;
          }
        }
        #make-me-a-hanzi-animation-4 {
          animation: keyframes4 0.7561848958333334s both;
          animation-delay: 4.225911458333334s;
          animation-timing-function: linear;
        }
      
        @keyframes keyframes5 {
          from {
            stroke: blue;
            stroke-dashoffset: 763;
            stroke-width: 128;
          }
          71% {
            animation-timing-function: step-end;
            stroke: blue;
            stroke-dashoffset: 0;
            stroke-width: 128;
          }
          to {
            stroke: black;
            stroke-width: 1024;
          }
        }
        #make-me-a-hanzi-animation-5 {
          animation: keyframes5 0.8709309895833334s both;
          animation-delay: 4.982096354166667s;
          animation-timing-function: linear;
        }
      
    </style>
    
      <path d="M 261 647 Q 254 654 226 668 Q 214 674 201 669 Q 194 663 199 649 Q 223 561 225 528 Q 224 524 225 519 Q 237 239 189 68 Q 171 4 212 -46 Q 224 -61 236 -47 Q 240 -41 243 -36 L 252 6 Q 259 43 259 109 Q 274 566 278 595 Q 279 599 279 604 C 282 633 282 633 261 647 Z" fill="lightgray" />
    
      <path d="M 717 -4 Q 745 -38 767 -83 Q 777 -107 793 -106 Q 806 -105 816 -83 Q 847 -32 827 160 Q 809 574 828 605 Q 831 611 836 615 Q 846 628 847 638 Q 846 651 813 674 Q 755 716 712 701 Q 691 698 657 692 Q 504 679 320 650 Q 289 647 261 647 C 231 646 250 598 279 604 Q 516 650 706 658 Q 731 659 737 647 Q 759 620 761 335 Q 761 203 765 91 Q 768 48 754 16 C 746 -13 699 20 717 -4 Z" fill="lightgray" />
    
      <path d="M 603 431 L 679 444 Q 689 443 698 455 Q 698 465 677 475 Q 643 494 602 478 L 556 466 Q 540 463 525 458 Q 518 458 339 423 Q 312 419 334 403 Q 367 379 392 387 Q 447 402 520 415 L 603 431 Z" fill="lightgray" />
    
      <path d="M 557 373 Q 557 187 544 178 Q 537 174 461 194 Q 451 197 451 191 Q 451 184 461 177 Q 527 117 549 81 Q 562 65 576 78 Q 606 108 608 186 Q 604 240 603 431 L 602 478 Q 602 520 612 548 Q 619 564 605 576 Q 581 595 554 604 Q 538 610 531 603 Q 525 597 535 583 Q 556 550 556 466 L 557 373 Z" fill="lightgray" />
    
      <path d="M 520 415 Q 463 291 303 159 Q 291 146 300 145 Q 309 141 321 147 Q 432 190 530 335 L 557 373 C 597 429 542 462 520 415 Z" fill="lightgray" />
    
      <path d="M 243 -36 Q 252 -36 260 -35 Q 408 -10 717 -4 C 747 -3 771 -3 754 16 Q 747 26 725 44 Q 706 57 668 51 Q 437 14 252 6 C 222 5 213 -38 243 -36 Z" fill="lightgray" />
    
    
      <clipPath id="make-me-a-hanzi-clip-0">
        <path d="M 261 647 Q 254 654 226 668 Q 214 674 201 669 Q 194 663 199 649 Q 223 561 225 528 Q 224 524 225 519 Q 237 239 189 68 Q 171 4 212 -46 Q 224 -61 236 -47 Q 240 -41 243 -36 L 252 6 Q 259 43 259 109 Q 274 566 278 595 Q 279 599 279 604 C 282 633 282 633 261 647 Z" />
      </clipPath>
      <path clip-path="url(#make-me-a-hanzi-clip-0)" d="M 209 660 L 234 632 L 246 598 L 250 516 L 241 207 L 219 28 L 224 -40" fill="none" id="make-me-a-hanzi-animation-0" stroke-dasharray="841 1682" stroke-linecap="round" />
    
      <clipPath id="make-me-a-hanzi-clip-1">
        <path d="M 717 -4 Q 745 -38 767 -83 Q 777 -107 793 -106 Q 806 -105 816 -83 Q 847 -32 827 160 Q 809 574 828 605 Q 831 611 836 615 Q 846 628 847 638 Q 846 651 813 674 Q 755 716 712 701 Q 691 698 657 692 Q 504 679 320 650 Q 289 647 261 647 C 231 646 250 598 279 604 Q 516 650 706 658 Q 731 659 737 647 Q 759 620 761 335 Q 761 203 765 91 Q 768 48 754 16 C 746 -13 699 20 717 -4 Z" />
      </clipPath>
      <path clip-path="url(#make-me-a-hanzi-clip-1)" d="M 268 642 L 291 627 L 521 661 L 724 681 L 752 674 L 783 646 L 790 631 L 788 403 L 800 81 L 797 27 L 785 -19 L 791 -89" fill="none" id="make-me-a-hanzi-animation-1" stroke-dasharray="1401 2802" stroke-linecap="round" />
    
      <clipPath id="make-me-a-hanzi-clip-2">
        <path d="M 603 431 L 679 444 Q 689 443 698 455 Q 698 465 677 475 Q 643 494 602 478 L 556 466 Q 540 463 525 458 Q 518 458 339 423 Q 312 419 334 403 Q 367 379 392 387 Q 447 402 520 415 L 603 431 Z" />
      </clipPath>
      <path clip-path="url(#make-me-a-hanzi-clip-2)" d="M 334 414 L 375 407 L 629 461 L 688 456" fill="none" id="make-me-a-hanzi-animation-2" stroke-dasharray="488 976" stroke-linecap="round" />
    
      <clipPath id="make-me-a-hanzi-clip-3">
        <path d="M 557 373 Q 557 187 544 178 Q 537 174 461 194 Q 451 197 451 191 Q 451 184 461 177 Q 527 117 549 81 Q 562 65 576 78 Q 606 108 608 186 Q 604 240 603 431 L 602 478 Q 602 520 612 548 Q 619 564 605 576 Q 581 595 554 604 Q 538 610 531 603 Q 525 597 535 583 Q 556 550 556 466 L 557 373 Z" />
      </clipPath>
      <path clip-path="url(#make-me-a-hanzi-clip-3)" d="M 539 597 L 564 576 L 580 551 L 578 178 L 560 138 L 457 189" fill="none" id="make-me-a-hanzi-animation-3" stroke-dasharray="722 1444" stroke-linecap="round" />
    
      <clipPath id="make-me-a-hanzi-clip-4">
        <path d="M 520 415 Q 463 291 303 159 Q 291 146 300 145 Q 309 141 321 147 Q 432 190 530 335 L 557 373 C 597 429 542 462 520 415 Z" />
      </clipPath>
      <path clip-path="url(#make-me-a-hanzi-clip-4)" d="M 551 416 L 506 340 L 442 259 L 377 198 L 306 151" fill="none" id="make-me-a-hanzi-animation-4" stroke-dasharray="494 988" stroke-linecap="round" />
    
      <clipPath id="make-me-a-hanzi-clip-5">
        <path d="M 243 -36 Q 252 -36 260 -35 Q 408 -10 717 -4 C 747 -3 771 -3 754 16 Q 747 26 725 44 Q 706 57 668 51 Q 437 14 252 6 C 222 5 213 -38 243 -36 Z" />
      </clipPath>
      <path clip-path="url(#make-me-a-hanzi-clip-5)" d="M 247 -30 L 268 -13 L 302 -9 L 680 24 L 746 16" fill="none" id="make-me-a-hanzi-animation-5" stroke-dasharray="635 1270" stroke-linecap="round" />
    
  </g>
</svg>