<svg xmlns="http://www.w3.org/2000/svg" version="1.1" viewBox="0 0 1024 1024">
  <g stroke="lightgray" stroke-dasharray="1,1" stroke-width="1" transform="scale(4, 4)">
    <line x1="0" y1="0" x2="256" y2="256" />
    <line x1="256" y1="0" x2="0" y2="256" />
    <line x1="128" y1="0" x2="128" y2="256" />
    <line x1="0" y1="128" x2="256" y2="128" />
  </g>
  <g transform="scale(1.0, -1.0) translate(0.0, -800.00)">
    <style type="text/css">
      
        @keyframes keyframes0 {
          from {
            stroke: blue;
            stroke-dashoffset: 961;
            stroke-width: 128;
          }
          76% {
            animation-timing-function: step-end;
            stroke: blue;
            stroke-dashoffset: 0;
            stroke-width: 128;
          }
          to {
            stroke: black;
            stroke-width: 1024;
          }
        }
        #make-me-a-hanzi-animation-0 {
          animation: keyframes0 1.0320638020833333s both;
          animation-delay: 0s;
          animation-timing-function: linear;
        }
      
        @keyframes keyframes1 {
          from {
            stroke: blue;
            stroke-dashoffset: 1500;
            stroke-width: 128;
          }
          83% {
            animation-timing-function: step-end;
            stroke: blue;
            stroke-dashoffset: 0;
            stroke-width: 128;
          }
          to {
            stroke: black;
            stroke-width: 1024;
          }
        }
        #make-me-a-hanzi-animation-1 {
          animation: keyframes1 1.470703125s both;
          animation-delay: 1.0320638020833333s;
          animation-timing-function: linear;
        }
      
        @keyframes keyframes2 {
          from {
            stroke: blue;
            stroke-dashoffset: 593;
            stroke-width: 128;
          }
          66% {
            animation-timing-function: step-end;
            stroke: blue;
            stroke-dashoffset: 0;
            stroke-width: 128;
          }
          to {
            stroke: black;
            stroke-width: 1024;
          }
        }
        #make-me-a-hanzi-animation-2 {
          animation: keyframes2 0.7325846354166666s both;
          animation-delay: 2.502766927083333s;
          animation-timing-function: linear;
        }
      
        @keyframes keyframes3 {
          from {
            stroke: blue;
            stroke-dashoffset: 563;
            stroke-width: 128;
          }
          65% {
            animation-timing-function: step-end;
            stroke: blue;
            stroke-dashoffset: 0;
            stroke-width: 128;
          }
          to {
            stroke: black;
            stroke-width: 1024;
          }
        }
        #make-me-a-hanzi-animation-3 {
          animation: keyframes3 0.7081705729166666s both;
          animation-delay: 3.2353515624999996s;
          animation-timing-function: linear;
        }
      
        @keyframes keyframes4 {
          from {
            stroke: blue;
            stroke-dashoffset: 453;
            stroke-width: 128;
          }
          60% {
            animation-timing-function: step-end;
            stroke: blue;
            stroke-dashoffset: 0;
            stroke-width: 128;
          }
          to {
            stroke: black;
            stroke-width: 1024;
          }
        }
        #make-me-a-hanzi-animation-4 {
          animation: keyframes4 0.61865234375s both;
          animation-delay: 3.943522135416666s;
          animation-timing-function: linear;
        }
      
        @keyframes keyframes5 {
          from {
            stroke: blue;
            stroke-dashoffset: 580;
            stroke-width: 128;
          }
          65% {
            animation-timing-function: step-end;
            stroke: blue;
            stroke-dashoffset: 0;
            stroke-width: 128;
          }
          to {
            stroke: black;
            stroke-width: 1024;
          }
        }
        #make-me-a-hanzi-animation-5 {
          animation: keyframes5 0.7220052083333334s both;
          animation-delay: 4.562174479166666s;
          animation-timing-function: linear;
        }
      
        @keyframes keyframes6 {
          from {
            stroke: blue;
            stroke-dashoffset: 440;
            stroke-width: 128;
          }
          59% {
            animation-timing-function: step-end;
            stroke: blue;
            stroke-dashoffset: 0;
            stroke-width: 128;
          }
          to {
            stroke: black;
            stroke-width: 1024;
          }
        }
        #make-me-a-hanzi-animation-6 {
          animation: keyframes6 0.6080729166666666s both;
          animation-delay: 5.284179687499999s;
          animation-timing-function: linear;
        }
      
        @keyframes keyframes7 {
          from {
            stroke: blue;
            stroke-dashoffset: 760;
            stroke-width: 128;
          }
          71% {
            animation-timing-function: step-end;
            stroke: blue;
            stroke-dashoffset: 0;
            stroke-width: 128;
          }
          to {
            stroke: black;
            stroke-width: 1024;
          }
        }
        #make-me-a-hanzi-animation-7 {
          animation: keyframes7 0.8684895833333334s both;
          animation-delay: 5.892252604166666s;
          animation-timing-function: linear;
        }
      
    </style>
    
      <path d="M 257 623 L 248 628 Q 245 630 231 635 Q 216 640 209 640 Q 201 640 199 636 Q 198 635 198 633 Q 198 630 201 622 L 208 601 Q 210 592 212 567 Q 214 542 214 530 Q 215 519 215 492 L 211 252 Q 210 236 205 185 Q 201 135 199 119 Q 197 104 193 79 Q 189 55 184 31 Q 181 15 181 6 L 181 2 Q 181 -6 185 -21 Q 189 -35 194 -46 Q 199 -57 205 -64 Q 211 -72 217 -72 Q 225 -72 229 -64 Q 234 -56 237 -44 L 240 -32 L 245 8 L 247 38 L 254 122 Q 256 154 258 231 L 261 342 Q 263 474 264 503 L 267 586 C 268 616 268 618 257 623 Z" fill="lightgray" />
    
      <path d="M 731 -18 L 741 -38 L 751 -61 Q 761 -78 764 -86 Q 767 -95 772 -96 Q 775 -97 778 -97 Q 783 -97 791 -93 Q 803 -86 812 -68 Q 821 -51 826 -28 Q 831 -6 833 29 Q 833 58 831 96 L 827 177 L 825 268 L 823 386 L 823 455 Q 825 508 825 522 Q 827 537 829 556 Q 832 574 837 585 L 843 600 Q 845 606 846 610 Q 846 619 834 631 Q 821 642 804 653 Q 787 664 773 668 Q 759 672 747 673 Q 741 673 735 672 Q 729 671 709 666 Q 689 662 655 657 Q 621 652 590 650 Q 559 646 526 644 L 257 623 C 227 621 237 586 267 586 L 299 586 Q 306 586 329 590 Q 356 594 389 598 Q 423 602 459 605 Q 495 609 517 611 L 571 614 L 629 619 L 682 620 Q 695 621 704 621 Q 714 621 721 620 Q 735 619 741 614 Q 747 608 751 600 Q 754 590 756 572 L 760 532 Q 761 519 763 469 L 765 378 L 767 238 L 767 193 Q 767 174 765 132 L 762 66 Q 761 43 761 35 Q 761 26 758 17 Q 755 8 751 7 L 750 7 C 741 -22 724 -4 731 -18 Z" fill="lightgray" />
    
      <path d="M 469 438 L 431 433 L 381 427 L 341 422 Q 331 421 329 419 Q 328 418 328 417 Q 328 414 331 410 Q 336 404 349 399 Q 363 394 376 393 Q 383 392 391 392 Q 400 392 409 393 L 439 396 L 463 399 L 517 406 L 597 418 Q 616 420 635 424 Q 653 426 663 429 Q 673 432 675 435 Q 676 436 676 438 Q 676 442 672 446 Q 667 452 656 458 Q 645 463 637 466 Q 629 468 619 468 Q 616 467 591 460 L 554 453 L 523 446 L 469 438 Z" fill="lightgray" />
    
      <path d="M 463 399 L 447 280 C 443 250 485 258 491 287 L 517 406 L 523 446 L 530 472 L 535 488 Q 536 494 540 505 Q 543 515 547 520 L 551 526 Q 552 529 552 533 L 552 536 Q 551 542 543 549 Q 536 556 527 560 Q 519 564 503 571 Q 487 577 480 578 Q 471 578 469 574 Q 468 573 468 569 L 468 564 L 472 546 Q 474 536 475 524 Q 475 514 473 493 Q 471 472 471 462 Q 469 451 469 438 L 463 399 Z" fill="lightgray" />
    
      <path d="M 404 276 L 393 280 Q 387 281 382 282 Q 376 283 363 284 Q 355 284 353 282 Q 352 281 352 279 Q 352 277 353 274 Q 355 270 360 263 Q 365 256 369 249 Q 371 242 375 230 Q 377 218 380 204 L 391 122 Q 394 102 400 95 Q 406 89 410 89 L 411 89 Q 417 90 419 98 Q 422 106 423 114 L 422 145 L 412 252 C 410 274 410 274 404 276 Z" fill="lightgray" />
    
      <path d="M 447 280 L 426 277 Q 422 276 404 276 C 374 276 382 249 412 252 L 454 256 Q 481 258 510 262 Q 539 266 553 266 Q 567 266 570 262 Q 573 258 573 249 Q 571 240 568 220 L 561 182 Q 559 172 553 154 C 544 125 590 117 601 145 L 608 162 Q 609 164 616 186 Q 623 208 628 221 Q 633 234 641 242 Q 652 255 652 259 L 652 260 Q 652 264 649 269 Q 647 274 633 283 Q 619 293 610 298 Q 601 302 590 303 Q 582 303 569 301 L 541 295 Q 529 292 519 291 L 491 287 L 447 280 Z" fill="lightgray" />
    
      <path d="M 423 114 L 441 113 L 469 113 L 519 116 L 573 120 Q 595 120 604 121 Q 613 121 615 124 Q 616 125 616 126 Q 616 130 612 135 Q 607 141 601 145 L 553 154 L 530 153 L 500 150 Q 495 150 470 148 Q 445 146 422 145 C 392 144 393 116 423 114 Z" fill="lightgray" />
    
      <path d="M 240 -32 L 257 -34 Q 261 -35 271 -35 Q 280 -35 295 -34 L 357 -32 L 431 -27 Q 437 -27 499 -26 Q 561 -24 611 -22 Q 661 -19 680 -19 Q 698 -18 731 -18 C 761 -18 777 -6 750 7 Q 748 7 743 10 Q 737 14 729 17 Q 721 21 713 24 L 695 28 Q 685 28 667 26 Q 649 25 604 24 L 523 20 L 427 16 L 315 10 Q 291 9 245 8 C 215 7 210 -28 240 -32 Z" fill="lightgray" />
    
    
      <clipPath id="make-me-a-hanzi-clip-0">
        <path d="M 257 623 L 248 628 Q 245 630 231 635 Q 216 640 209 640 Q 201 640 199 636 Q 198 635 198 633 Q 198 630 201 622 L 208 601 Q 210 592 212 567 Q 214 542 214 530 Q 215 519 215 492 L 211 252 Q 210 236 205 185 Q 201 135 199 119 Q 197 104 193 79 Q 189 55 184 31 Q 181 15 181 6 L 181 2 Q 181 -6 185 -21 Q 189 -35 194 -46 Q 199 -57 205 -64 Q 211 -72 217 -72 Q 225 -72 229 -64 Q 234 -56 237 -44 L 240 -32 L 245 8 L 247 38 L 254 122 Q 256 154 258 231 L 261 342 Q 263 474 264 503 L 267 586 C 268 616 268 618 257 623 Z" />
      </clipPath>
      <path clip-path="url(#make-me-a-hanzi-clip-0)" d="M 206 632 L 234 606 L 240 566 L 234 221 L 212 0 L 217 -59" fill="none" id="make-me-a-hanzi-animation-0" stroke-dasharray="833 1666" stroke-linecap="round" />
    
      <clipPath id="make-me-a-hanzi-clip-1">
        <path d="M 731 -18 L 741 -38 L 751 -61 Q 761 -78 764 -86 Q 767 -95 772 -96 Q 775 -97 778 -97 Q 783 -97 791 -93 Q 803 -86 812 -68 Q 821 -51 826 -28 Q 831 -6 833 29 Q 833 58 831 96 L 827 177 L 825 268 L 823 386 L 823 455 Q 825 508 825 522 Q 827 537 829 556 Q 832 574 837 585 L 843 600 Q 845 606 846 610 Q 846 619 834 631 Q 821 642 804 653 Q 787 664 773 668 Q 759 672 747 673 Q 741 673 735 672 Q 729 671 709 666 Q 689 662 655 657 Q 621 652 590 650 Q 559 646 526 644 L 257 623 C 227 621 237 586 267 586 L 299 586 Q 306 586 329 590 Q 356 594 389 598 Q 423 602 459 605 Q 495 609 517 611 L 571 614 L 629 619 L 682 620 Q 695 621 704 621 Q 714 621 721 620 Q 735 619 741 614 Q 747 608 751 600 Q 754 590 756 572 L 760 532 Q 761 519 763 469 L 765 378 L 767 238 L 767 193 Q 767 174 765 132 L 762 66 Q 761 43 761 35 Q 761 26 758 17 Q 755 8 751 7 L 750 7 C 741 -22 724 -4 731 -18 Z" />
      </clipPath>
      <path clip-path="url(#make-me-a-hanzi-clip-1)" d="M 265 619 L 276 608 L 303 606 L 743 645 L 767 635 L 787 617 L 796 604 L 792 482 L 797 23 L 782 -27 L 784 -59 L 777 -84" fill="none" id="make-me-a-hanzi-animation-1" stroke-dasharray="1372 2744" stroke-linecap="round" />
    
      <clipPath id="make-me-a-hanzi-clip-2">
        <path d="M 469 438 L 431 433 L 381 427 L 341 422 Q 331 421 329 419 Q 328 418 328 417 Q 328 414 331 410 Q 336 404 349 399 Q 363 394 376 393 Q 383 392 391 392 Q 400 392 409 393 L 439 396 L 463 399 L 517 406 L 597 418 Q 616 420 635 424 Q 653 426 663 429 Q 673 432 675 435 Q 676 436 676 438 Q 676 442 672 446 Q 667 452 656 458 Q 645 463 637 466 Q 629 468 619 468 Q 616 467 591 460 L 554 453 L 523 446 L 469 438 Z" />
      </clipPath>
      <path clip-path="url(#make-me-a-hanzi-clip-2)" d="M 334 415 L 385 409 L 621 445 L 668 439" fill="none" id="make-me-a-hanzi-animation-2" stroke-dasharray="465 930" stroke-linecap="round" />
    
      <clipPath id="make-me-a-hanzi-clip-3">
        <path d="M 463 399 L 447 280 C 443 250 485 258 491 287 L 517 406 L 523 446 L 530 472 L 535 488 Q 536 494 540 505 Q 543 515 547 520 L 551 526 Q 552 529 552 533 L 552 536 Q 551 542 543 549 Q 536 556 527 560 Q 519 564 503 571 Q 487 577 480 578 Q 471 578 469 574 Q 468 573 468 569 L 468 564 L 472 546 Q 474 536 475 524 Q 475 514 473 493 Q 471 472 471 462 Q 469 451 469 438 L 463 399 Z" />
      </clipPath>
      <path clip-path="url(#make-me-a-hanzi-clip-3)" d="M 477 570 L 511 528 L 473 306 L 453 287" fill="none" id="make-me-a-hanzi-animation-3" stroke-dasharray="435 870" stroke-linecap="round" />
    
      <clipPath id="make-me-a-hanzi-clip-4">
        <path d="M 404 276 L 393 280 Q 387 281 382 282 Q 376 283 363 284 Q 355 284 353 282 Q 352 281 352 279 Q 352 277 353 274 Q 355 270 360 263 Q 365 256 369 249 Q 371 242 375 230 Q 377 218 380 204 L 391 122 Q 394 102 400 95 Q 406 89 410 89 L 411 89 Q 417 90 419 98 Q 422 106 423 114 L 422 145 L 412 252 C 410 274 410 274 404 276 Z" />
      </clipPath>
      <path clip-path="url(#make-me-a-hanzi-clip-4)" d="M 359 278 L 387 260 L 393 242 L 411 98" fill="none" id="make-me-a-hanzi-animation-4" stroke-dasharray="325 650" stroke-linecap="round" />
    
      <clipPath id="make-me-a-hanzi-clip-5">
        <path d="M 447 280 L 426 277 Q 422 276 404 276 C 374 276 382 249 412 252 L 454 256 Q 481 258 510 262 Q 539 266 553 266 Q 567 266 570 262 Q 573 258 573 249 Q 571 240 568 220 L 561 182 Q 559 172 553 154 C 544 125 590 117 601 145 L 608 162 Q 609 164 616 186 Q 623 208 628 221 Q 633 234 641 242 Q 652 255 652 259 L 652 260 Q 652 264 649 269 Q 647 274 633 283 Q 619 293 610 298 Q 601 302 590 303 Q 582 303 569 301 L 541 295 Q 529 292 519 291 L 491 287 L 447 280 Z" />
      </clipPath>
      <path clip-path="url(#make-me-a-hanzi-clip-5)" d="M 411 272 L 423 265 L 551 282 L 591 277 L 608 257 L 585 174 L 560 160" fill="none" id="make-me-a-hanzi-animation-5" stroke-dasharray="452 904" stroke-linecap="round" />
    
      <clipPath id="make-me-a-hanzi-clip-6">
        <path d="M 423 114 L 441 113 L 469 113 L 519 116 L 573 120 Q 595 120 604 121 Q 613 121 615 124 Q 616 125 616 126 Q 616 130 612 135 Q 607 141 601 145 L 553 154 L 530 153 L 500 150 Q 495 150 470 148 Q 445 146 422 145 C 392 144 393 116 423 114 Z" />
      </clipPath>
      <path clip-path="url(#make-me-a-hanzi-clip-6)" d="M 428 122 L 440 130 L 548 136 L 609 128" fill="none" id="make-me-a-hanzi-animation-6" stroke-dasharray="312 624" stroke-linecap="round" />
    
      <clipPath id="make-me-a-hanzi-clip-7">
        <path d="M 240 -32 L 257 -34 Q 261 -35 271 -35 Q 280 -35 295 -34 L 357 -32 L 431 -27 Q 437 -27 499 -26 Q 561 -24 611 -22 Q 661 -19 680 -19 Q 698 -18 731 -18 C 761 -18 777 -6 750 7 Q 748 7 743 10 Q 737 14 729 17 Q 721 21 713 24 L 695 28 Q 685 28 667 26 Q 649 25 604 24 L 523 20 L 427 16 L 315 10 Q 291 9 245 8 C 215 7 210 -28 240 -32 Z" />
      </clipPath>
      <path clip-path="url(#make-me-a-hanzi-clip-7)" d="M 245 -26 L 271 -12 L 690 5 L 722 -1 L 744 2" fill="none" id="make-me-a-hanzi-animation-7" stroke-dasharray="632 1264" stroke-linecap="round" />
    
  </g>
</svg>