<svg xmlns="http://www.w3.org/2000/svg" version="1.1" viewBox="0 0 1024 1024">
  <g stroke="lightgray" stroke-dasharray="1,1" stroke-width="1" transform="scale(4, 4)">
    <line x1="0" y1="0" x2="256" y2="256" />
    <line x1="256" y1="0" x2="0" y2="256" />
    <line x1="128" y1="0" x2="128" y2="256" />
    <line x1="0" y1="128" x2="256" y2="128" />
  </g>
  <g transform="scale(1.0, -1.0) translate(0.0, -822.00)">
    <style type="text/css">
      
        @keyframes keyframes0 {
          from {
            stroke: blue;
            stroke-dashoffset: 528;
            stroke-width: 128;
          }
          63% {
            animation-timing-function: step-end;
            stroke: blue;
            stroke-dashoffset: 0;
            stroke-width: 128;
          }
          to {
            stroke: black;
            stroke-width: 1024;
          }
        }
        #make-me-a-hanzi-animation-0 {
          animation: keyframes0 0.6796875s both;
          animation-delay: 0s;
          animation-timing-function: linear;
        }
      
        @keyframes keyframes1 {
          from {
            stroke: blue;
            stroke-dashoffset: 738;
            stroke-width: 128;
          }
          71% {
            animation-timing-function: step-end;
            stroke: blue;
            stroke-dashoffset: 0;
            stroke-width: 128;
          }
          to {
            stroke: black;
            stroke-width: 1024;
          }
        }
        #make-me-a-hanzi-animation-1 {
          animation: keyframes1 0.8505859375s both;
          animation-delay: 0.6796875s;
          animation-timing-function: linear;
        }
      
        @keyframes keyframes2 {
          from {
            stroke: blue;
            stroke-dashoffset: 611;
            stroke-width: 128;
          }
          67% {
            animation-timing-function: step-end;
            stroke: blue;
            stroke-dashoffset: 0;
            stroke-width: 128;
          }
          to {
            stroke: black;
            stroke-width: 1024;
          }
        }
        #make-me-a-hanzi-animation-2 {
          animation: keyframes2 0.7472330729166666s both;
          animation-delay: 1.5302734375s;
          animation-timing-function: linear;
        }
      
        @keyframes keyframes3 {
          from {
            stroke: blue;
            stroke-dashoffset: 537;
            stroke-width: 128;
          }
          64% {
            animation-timing-function: step-end;
            stroke: blue;
            stroke-dashoffset: 0;
            stroke-width: 128;
          }
          to {
            stroke: black;
            stroke-width: 1024;
          }
        }
        #make-me-a-hanzi-animation-3 {
          animation: keyframes3 0.68701171875s both;
          animation-delay: 2.2775065104166665s;
          animation-timing-function: linear;
        }
      
        @keyframes keyframes4 {
          from {
            stroke: blue;
            stroke-dashoffset: 406;
            stroke-width: 128;
          }
          57% {
            animation-timing-function: step-end;
            stroke: blue;
            stroke-dashoffset: 0;
            stroke-width: 128;
          }
          to {
            stroke: black;
            stroke-width: 1024;
          }
        }
        #make-me-a-hanzi-animation-4 {
          animation: keyframes4 0.5804036458333334s both;
          animation-delay: 2.9645182291666665s;
          animation-timing-function: linear;
        }
      
        @keyframes keyframes5 {
          from {
            stroke: blue;
            stroke-dashoffset: 662;
            stroke-width: 128;
          }
          68% {
            animation-timing-function: step-end;
            stroke: blue;
            stroke-dashoffset: 0;
            stroke-width: 128;
          }
          to {
            stroke: black;
            stroke-width: 1024;
          }
        }
        #make-me-a-hanzi-animation-5 {
          animation: keyframes5 0.7887369791666666s both;
          animation-delay: 3.544921875s;
          animation-timing-function: linear;
        }
      
        @keyframes keyframes6 {
          from {
            stroke: blue;
            stroke-dashoffset: 560;
            stroke-width: 128;
          }
          65% {
            animation-timing-function: step-end;
            stroke: blue;
            stroke-dashoffset: 0;
            stroke-width: 128;
          }
          to {
            stroke: black;
            stroke-width: 1024;
          }
        }
        #make-me-a-hanzi-animation-6 {
          animation: keyframes6 0.7057291666666666s both;
          animation-delay: 4.333658854166667s;
          animation-timing-function: linear;
        }
      
        @keyframes keyframes7 {
          from {
            stroke: blue;
            stroke-dashoffset: 919;
            stroke-width: 128;
          }
          75% {
            animation-timing-function: step-end;
            stroke: blue;
            stroke-dashoffset: 0;
            stroke-width: 128;
          }
          to {
            stroke: black;
            stroke-width: 1024;
          }
        }
        #make-me-a-hanzi-animation-7 {
          animation: keyframes7 0.9978841145833334s both;
          animation-delay: 5.039388020833334s;
          animation-timing-function: linear;
        }
      
    </style>
    
      <path d="M 325 380 Q 422 410 425 411 Q 432 420 428 428 Q 421 440 390 445 Q 359 449 329 435 Q 328 435 326 434 L 275 416 Q 215 400 163 391 Q 126 382 154 367 Q 196 346 256 363 Q 263 366 276 367 L 325 380 Z" fill="lightgray" />
    
      <path d="M 319 209 L 325 380 L 326 434 Q 329 557 347 620 Q 350 632 328 647 Q 291 666 264 670 Q 246 674 238 664 Q 231 657 239 640 Q 267 600 268 573 Q 272 497 275 416 L 276 367 Q 276 285 274 194 C 273 164 318 179 319 209 Z" fill="lightgray" />
    
      <path d="M 274 194 Q 213 175 149 152 Q 130 145 100 145 Q 85 144 84 131 Q 83 116 93 108 Q 120 92 158 72 Q 170 69 182 80 Q 218 111 377 195 Q 399 207 416 222 Q 431 231 430 241 Q 424 247 410 243 L 319 209 L 274 194 Z" fill="lightgray" />
    
      <path d="M 667 470 Q 671 525 677 577 L 680 609 Q 683 652 689 675 Q 699 702 680 718 Q 649 736 626 739 Q 611 743 604 735 Q 597 728 605 714 Q 621 693 621 678 Q 630 578 629 461 C 629 431 665 440 667 470 Z" fill="lightgray" />
    
      <path d="M 677 577 Q 735 577 832 609 Q 832 610 833 610 Q 840 617 836 626 Q 829 636 801 640 Q 786 641 712 617 Q 697 614 680 609 C 651 601 647 577 677 577 Z" fill="lightgray" />
    
      <path d="M 807 333 Q 828 399 860 426 Q 876 444 862 462 Q 799 513 758 500 Q 710 482 667 470 L 629 461 Q 583 452 535 445 C 505 441 520 409 550 414 Q 589 420 736 451 Q 758 455 766 447 Q 779 434 755 334 C 748 305 797 305 807 333 Z" fill="lightgray" />
    
      <path d="M 530 257 Q 539 256 550 258 Q 638 277 826 292 Q 838 293 839 302 Q 840 311 808 333 L 807 333 L 755 334 Q 632 306 535 294 C 505 290 500 258 530 257 Z" fill="lightgray" />
    
      <path d="M 535 445 Q 492 469 477 466 Q 458 465 473 442 Q 509 376 469 169 Q 457 112 426 48 Q 393 -24 304 -98 Q 291 -110 287 -116 Q 286 -123 296 -123 Q 312 -123 331 -110 Q 379 -82 408 -51 Q 489 31 516 170 Q 523 210 530 257 L 535 294 Q 539 337 543 385 Q 547 404 550 414 C 555 434 555 434 535 445 Z" fill="lightgray" />
    
    
      <clipPath id="make-me-a-hanzi-clip-0">
        <path d="M 325 380 Q 422 410 425 411 Q 432 420 428 428 Q 421 440 390 445 Q 359 449 329 435 Q 328 435 326 434 L 275 416 Q 215 400 163 391 Q 126 382 154 367 Q 196 346 256 363 Q 263 366 276 367 L 325 380 Z" />
      </clipPath>
      <path clip-path="url(#make-me-a-hanzi-clip-0)" d="M 155 380 L 228 380 L 381 423 L 421 418" fill="none" id="make-me-a-hanzi-animation-0" stroke-dasharray="400 800" stroke-linecap="round" />
    
      <clipPath id="make-me-a-hanzi-clip-1">
        <path d="M 319 209 L 325 380 L 326 434 Q 329 557 347 620 Q 350 632 328 647 Q 291 666 264 670 Q 246 674 238 664 Q 231 657 239 640 Q 267 600 268 573 Q 272 497 275 416 L 276 367 Q 276 285 274 194 C 273 164 318 179 319 209 Z" />
      </clipPath>
      <path clip-path="url(#make-me-a-hanzi-clip-1)" d="M 251 654 L 302 613 L 303 598 L 297 225 L 280 202" fill="none" id="make-me-a-hanzi-animation-1" stroke-dasharray="610 1220" stroke-linecap="round" />
    
      <clipPath id="make-me-a-hanzi-clip-2">
        <path d="M 274 194 Q 213 175 149 152 Q 130 145 100 145 Q 85 144 84 131 Q 83 116 93 108 Q 120 92 158 72 Q 170 69 182 80 Q 218 111 377 195 Q 399 207 416 222 Q 431 231 430 241 Q 424 247 410 243 L 319 209 L 274 194 Z" />
      </clipPath>
      <path clip-path="url(#make-me-a-hanzi-clip-2)" d="M 99 130 L 123 120 L 162 115 L 424 238" fill="none" id="make-me-a-hanzi-animation-2" stroke-dasharray="483 966" stroke-linecap="round" />
    
      <clipPath id="make-me-a-hanzi-clip-3">
        <path d="M 667 470 Q 671 525 677 577 L 680 609 Q 683 652 689 675 Q 699 702 680 718 Q 649 736 626 739 Q 611 743 604 735 Q 597 728 605 714 Q 621 693 621 678 Q 630 578 629 461 C 629 431 665 440 667 470 Z" />
      </clipPath>
      <path clip-path="url(#make-me-a-hanzi-clip-3)" d="M 615 726 L 656 689 L 650 495 L 645 479 L 634 469" fill="none" id="make-me-a-hanzi-animation-3" stroke-dasharray="409 818" stroke-linecap="round" />
    
      <clipPath id="make-me-a-hanzi-clip-4">
        <path d="M 677 577 Q 735 577 832 609 Q 832 610 833 610 Q 840 617 836 626 Q 829 636 801 640 Q 786 641 712 617 Q 697 614 680 609 C 651 601 647 577 677 577 Z" />
      </clipPath>
      <path clip-path="url(#make-me-a-hanzi-clip-4)" d="M 683 582 L 701 597 L 793 619 L 825 620" fill="none" id="make-me-a-hanzi-animation-4" stroke-dasharray="278 556" stroke-linecap="round" />
    
      <clipPath id="make-me-a-hanzi-clip-5">
        <path d="M 807 333 Q 828 399 860 426 Q 876 444 862 462 Q 799 513 758 500 Q 710 482 667 470 L 629 461 Q 583 452 535 445 C 505 441 520 409 550 414 Q 589 420 736 451 Q 758 455 766 447 Q 779 434 755 334 C 748 305 797 305 807 333 Z" />
      </clipPath>
      <path clip-path="url(#make-me-a-hanzi-clip-5)" d="M 543 443 L 568 433 L 657 449 L 758 476 L 784 472 L 814 440 L 788 360 L 762 345" fill="none" id="make-me-a-hanzi-animation-5" stroke-dasharray="534 1068" stroke-linecap="round" />
    
      <clipPath id="make-me-a-hanzi-clip-6">
        <path d="M 530 257 Q 539 256 550 258 Q 638 277 826 292 Q 838 293 839 302 Q 840 311 808 333 L 807 333 L 755 334 Q 632 306 535 294 C 505 290 500 258 530 257 Z" />
      </clipPath>
      <path clip-path="url(#make-me-a-hanzi-clip-6)" d="M 535 263 L 559 279 L 751 310 L 806 312 L 830 303" fill="none" id="make-me-a-hanzi-animation-6" stroke-dasharray="432 864" stroke-linecap="round" />
    
      <clipPath id="make-me-a-hanzi-clip-7">
        <path d="M 535 445 Q 492 469 477 466 Q 458 465 473 442 Q 509 376 469 169 Q 457 112 426 48 Q 393 -24 304 -98 Q 291 -110 287 -116 Q 286 -123 296 -123 Q 312 -123 331 -110 Q 379 -82 408 -51 Q 489 31 516 170 Q 523 210 530 257 L 535 294 Q 539 337 543 385 Q 547 404 550 414 C 555 434 555 434 535 445 Z" />
      </clipPath>
      <path clip-path="url(#make-me-a-hanzi-clip-7)" d="M 477 454 L 511 426 L 517 400 L 507 253 L 485 134 L 446 36 L 408 -22 L 343 -86 L 294 -116" fill="none" id="make-me-a-hanzi-animation-7" stroke-dasharray="791 1582" stroke-linecap="round" />
    
  </g>
</svg>