<svg xmlns="http://www.w3.org/2000/svg" version="1.1" viewBox="0 0 1024 1024">
  <g stroke="lightgray" stroke-dasharray="1,1" stroke-width="1" transform="scale(4, 4)">
    <line x1="0" y1="0" x2="256" y2="256" />
    <line x1="256" y1="0" x2="0" y2="256" />
    <line x1="128" y1="0" x2="128" y2="256" />
    <line x1="0" y1="128" x2="256" y2="128" />
  </g>
  <g transform="scale(1.0, -1.0) translate(0.0, -788.50)">
    <style type="text/css">
      
        @keyframes keyframes0 {
          from {
            stroke: blue;
            stroke-dashoffset: 366;
            stroke-width: 128;
          }
          54% {
            animation-timing-function: step-end;
            stroke: blue;
            stroke-dashoffset: 0;
            stroke-width: 128;
          }
          to {
            stroke: black;
            stroke-width: 1024;
          }
        }
        #make-me-a-hanzi-animation-0 {
          animation: keyframes0 0.5478515625s both;
          animation-delay: 0s;
          animation-timing-function: linear;
        }
      
        @keyframes keyframes1 {
          from {
            stroke: blue;
            stroke-dashoffset: 696;
            stroke-width: 128;
          }
          69% {
            animation-timing-function: step-end;
            stroke: blue;
            stroke-dashoffset: 0;
            stroke-width: 128;
          }
          to {
            stroke: black;
            stroke-width: 1024;
          }
        }
        #make-me-a-hanzi-animation-1 {
          animation: keyframes1 0.81640625s both;
          animation-delay: 0.5478515625s;
          animation-timing-function: linear;
        }
      
        @keyframes keyframes2 {
          from {
            stroke: blue;
            stroke-dashoffset: 372;
            stroke-width: 128;
          }
          55% {
            animation-timing-function: step-end;
            stroke: blue;
            stroke-dashoffset: 0;
            stroke-width: 128;
          }
          to {
            stroke: black;
            stroke-width: 1024;
          }
        }
        #make-me-a-hanzi-animation-2 {
          animation: keyframes2 0.552734375s both;
          animation-delay: 1.3642578125s;
          animation-timing-function: linear;
        }
      
        @keyframes keyframes3 {
          from {
            stroke: blue;
            stroke-dashoffset: 443;
            stroke-width: 128;
          }
          59% {
            animation-timing-function: step-end;
            stroke: blue;
            stroke-dashoffset: 0;
            stroke-width: 128;
          }
          to {
            stroke: black;
            stroke-width: 1024;
          }
        }
        #make-me-a-hanzi-animation-3 {
          animation: keyframes3 0.6105143229166666s both;
          animation-delay: 1.9169921875s;
          animation-timing-function: linear;
        }
      
        @keyframes keyframes4 {
          from {
            stroke: blue;
            stroke-dashoffset: 869;
            stroke-width: 128;
          }
          74% {
            animation-timing-function: step-end;
            stroke: blue;
            stroke-dashoffset: 0;
            stroke-width: 128;
          }
          to {
            stroke: black;
            stroke-width: 1024;
          }
        }
        #make-me-a-hanzi-animation-4 {
          animation: keyframes4 0.9571940104166666s both;
          animation-delay: 2.5275065104166665s;
          animation-timing-function: linear;
        }
      
        @keyframes keyframes5 {
          from {
            stroke: blue;
            stroke-dashoffset: 933;
            stroke-width: 128;
          }
          75% {
            animation-timing-function: step-end;
            stroke: blue;
            stroke-dashoffset: 0;
            stroke-width: 128;
          }
          to {
            stroke: black;
            stroke-width: 1024;
          }
        }
        #make-me-a-hanzi-animation-5 {
          animation: keyframes5 1.00927734375s both;
          animation-delay: 3.484700520833333s;
          animation-timing-function: linear;
        }
      
        @keyframes keyframes6 {
          from {
            stroke: blue;
            stroke-dashoffset: 859;
            stroke-width: 128;
          }
          74% {
            animation-timing-function: step-end;
            stroke: blue;
            stroke-dashoffset: 0;
            stroke-width: 128;
          }
          to {
            stroke: black;
            stroke-width: 1024;
          }
        }
        #make-me-a-hanzi-animation-6 {
          animation: keyframes6 0.9490559895833334s both;
          animation-delay: 4.493977864583333s;
          animation-timing-function: linear;
        }
      
        @keyframes keyframes7 {
          from {
            stroke: blue;
            stroke-dashoffset: 1084;
            stroke-width: 128;
          }
          78% {
            animation-timing-function: step-end;
            stroke: blue;
            stroke-dashoffset: 0;
            stroke-width: 128;
          }
          to {
            stroke: black;
            stroke-width: 1024;
          }
        }
        #make-me-a-hanzi-animation-7 {
          animation: keyframes7 1.1321614583333333s both;
          animation-delay: 5.443033854166666s;
          animation-timing-function: linear;
        }
      
    </style>
    
      <path d="M 474 674 Q 438 690 419 691 Q 411 691 410 685 Q 410 672 441 629 Q 472 586 493 584 Q 522 582 524 618 Q 526 632 515 647 Q 504 658 474 674 Z" fill="lightgray" />
    
      <path d="M 604 542 L 646 549 Q 687 555 694 559 Q 700 560 705 564 Q 709 568 709 572 L 707 578 Q 706 582 693 587 L 667 598 Q 650 603 646 603 L 598 589 L 574 584 L 475 569 L 268 545 Q 258 544 253 541 Q 248 536 257 526 Q 275 507 336 514 L 561 535 L 604 542 Z" fill="lightgray" />
    
      <path d="M 346 487 L 363 426 Q 370 403 382 387 Q 393 370 406 370 Q 418 370 424 381 Q 436 394 436 415 Q 436 435 425 452 Q 413 469 379 487 L 362 496 Q 352 501 348 497 Q 344 493 346 487 Z" fill="lightgray" />
    
      <path d="M 565 375 L 610 456 Q 618 475 635 488 Q 644 497 645 500 Q 645 521 604 542 C 578 556 557 565 561 535 L 563 519 Q 563 494 554 455 L 529 371 C 520 342 550 349 565 375 Z" fill="lightgray" />
    
      <path d="M 453 322 L 588 335 Q 679 344 717 346 L 777 348 Q 802 349 810 357 Q 818 364 801 374 L 789 382 Q 755 402 742 402 Q 729 402 711 398 Q 693 394 658 389 L 565 375 L 529 371 L 424 356 L 195 330 Q 188 328 187 327 Q 178 320 192 311 Q 229 288 256 292 L 295 300 L 404 314 L 453 322 Z" fill="lightgray" />
    
      <path d="M 404 314 L 405 301 Q 409 287 400 246 L 391 213 L 376 177 L 358 135 Q 352 121 344 111 L 332 94 Q 320 70 343 62 L 393 51 Q 431 37 437 36 L 467 23 L 519 -4 L 557 -27 L 664 -106 Q 677 -118 690 -125 Q 707 -138 720 -136 Q 741 -134 744 -112 Q 749 -74 717 -42 Q 670 5 591 29 L 561 41 L 505 59 L 385 87 Q 383 86 395 107 L 434 182 L 456 220 L 467 242 Q 477 260 483 269 Q 489 277 491 284 Q 491 301 453 322 C 428 338 401 344 404 314 Z" fill="lightgray" />
    
      <path d="M 467 23 L 449 8 Q 435 -2 406 -20 Q 346 -56 295 -68 L 251 -80 Q 234 -86 229 -86 L 211 -90 Q 201 -93 201 -97 Q 201 -101 210 -103 L 227 -104 Q 238 -105 278 -103 Q 318 -102 380 -82 Q 442 -62 480 -33 L 519 -4 L 561 41 L 571 56 Q 602 96 625 146 L 646 191 C 659 218 659 220 646 232 L 633 244 Q 629 248 609 260 Q 588 271 576 268 Q 573 267 571 258 L 576 240 L 576 227 L 572 188 L 567 168 Q 558 137 526 88 L 505 59 L 467 23 Z" fill="lightgray" />
    
      <path d="M 391 213 L 179 195 L 88 190 Q 82 189 80 185 Q 76 172 96 163 L 115 153 L 133 146 Q 157 142 190 148 L 275 164 L 376 177 L 434 182 L 572 188 L 646 191 L 773 193 Q 838 193 856 194 L 893 195 Q 908 196 914 201 Q 920 206 920 211 Q 919 215 910 224 L 896 236 Q 890 240 871 248 Q 852 255 837 257 Q 821 258 789 251 Q 757 243 736 242 L 646 232 L 576 227 L 456 220 L 391 213 Z" fill="lightgray" />
    
    
      <clipPath id="make-me-a-hanzi-clip-0">
        <path d="M 474 674 Q 438 690 419 691 Q 411 691 410 685 Q 410 672 441 629 Q 472 586 493 584 Q 522 582 524 618 Q 526 632 515 647 Q 504 658 474 674 Z" />
      </clipPath>
      <path clip-path="url(#make-me-a-hanzi-clip-0)" d="M 418 683 L 477 636 L 497 608" fill="none" id="make-me-a-hanzi-animation-0" stroke-dasharray="238 476" stroke-linecap="round" />
    
      <clipPath id="make-me-a-hanzi-clip-1">
        <path d="M 604 542 L 646 549 Q 687 555 694 559 Q 700 560 705 564 Q 709 568 709 572 L 707 578 Q 706 582 693 587 L 667 598 Q 650 603 646 603 L 598 589 L 574 584 L 475 569 L 268 545 Q 258 544 253 541 Q 248 536 257 526 Q 275 507 336 514 L 561 535 L 604 542 Z" />
      </clipPath>
      <path clip-path="url(#make-me-a-hanzi-clip-1)" d="M 263 536 L 322 531 L 551 557 L 647 576 L 699 572" fill="none" id="make-me-a-hanzi-animation-1" stroke-dasharray="568 1136" stroke-linecap="round" />
    
      <clipPath id="make-me-a-hanzi-clip-2">
        <path d="M 346 487 L 363 426 Q 370 403 382 387 Q 393 370 406 370 Q 418 370 424 381 Q 436 394 436 415 Q 436 435 425 452 Q 413 469 379 487 L 362 496 Q 352 501 348 497 Q 344 493 346 487 Z" />
      </clipPath>
      <path clip-path="url(#make-me-a-hanzi-clip-2)" d="M 355 490 L 396 434 L 407 389" fill="none" id="make-me-a-hanzi-animation-2" stroke-dasharray="244 488" stroke-linecap="round" />
    
      <clipPath id="make-me-a-hanzi-clip-3">
        <path d="M 565 375 L 610 456 Q 618 475 635 488 Q 644 497 645 500 Q 645 521 604 542 C 578 556 557 565 561 535 L 563 519 Q 563 494 554 455 L 529 371 C 520 342 550 349 565 375 Z" />
      </clipPath>
      <path clip-path="url(#make-me-a-hanzi-clip-3)" d="M 569 532 L 599 504 L 554 392 L 534 377" fill="none" id="make-me-a-hanzi-animation-3" stroke-dasharray="315 630" stroke-linecap="round" />
    
      <clipPath id="make-me-a-hanzi-clip-4">
        <path d="M 453 322 L 588 335 Q 679 344 717 346 L 777 348 Q 802 349 810 357 Q 818 364 801 374 L 789 382 Q 755 402 742 402 Q 729 402 711 398 Q 693 394 658 389 L 565 375 L 529 371 L 424 356 L 195 330 Q 188 328 187 327 Q 178 320 192 311 Q 229 288 256 292 L 295 300 L 404 314 L 453 322 Z" />
      </clipPath>
      <path clip-path="url(#make-me-a-hanzi-clip-4)" d="M 193 320 L 258 314 L 737 374 L 801 363" fill="none" id="make-me-a-hanzi-animation-4" stroke-dasharray="741 1482" stroke-linecap="round" />
    
      <clipPath id="make-me-a-hanzi-clip-5">
        <path d="M 404 314 L 405 301 Q 409 287 400 246 L 391 213 L 376 177 L 358 135 Q 352 121 344 111 L 332 94 Q 320 70 343 62 L 393 51 Q 431 37 437 36 L 467 23 L 519 -4 L 557 -27 L 664 -106 Q 677 -118 690 -125 Q 707 -138 720 -136 Q 741 -134 744 -112 Q 749 -74 717 -42 Q 670 5 591 29 L 561 41 L 505 59 L 385 87 Q 383 86 395 107 L 434 182 L 456 220 L 467 242 Q 477 260 483 269 Q 489 277 491 284 Q 491 301 453 322 C 428 338 401 344 404 314 Z" />
      </clipPath>
      <path clip-path="url(#make-me-a-hanzi-clip-5)" d="M 411 308 L 445 281 L 415 201 L 358 86 L 378 71 L 532 22 L 614 -20 L 692 -75 L 719 -112" fill="none" id="make-me-a-hanzi-animation-5" stroke-dasharray="805 1610" stroke-linecap="round" />
    
      <clipPath id="make-me-a-hanzi-clip-6">
        <path d="M 467 23 L 449 8 Q 435 -2 406 -20 Q 346 -56 295 -68 L 251 -80 Q 234 -86 229 -86 L 211 -90 Q 201 -93 201 -97 Q 201 -101 210 -103 L 227 -104 Q 238 -105 278 -103 Q 318 -102 380 -82 Q 442 -62 480 -33 L 519 -4 L 561 41 L 571 56 Q 602 96 625 146 L 646 191 C 659 218 659 220 646 232 L 633 244 Q 629 248 609 260 Q 588 271 576 268 Q 573 267 571 258 L 576 240 L 576 227 L 572 188 L 567 168 Q 558 137 526 88 L 505 59 L 467 23 Z" />
      </clipPath>
      <path clip-path="url(#make-me-a-hanzi-clip-6)" d="M 581 259 L 609 220 L 607 189 L 568 101 L 505 20 L 438 -31 L 349 -71 L 268 -91 L 208 -96" fill="none" id="make-me-a-hanzi-animation-6" stroke-dasharray="731 1462" stroke-linecap="round" />
    
      <clipPath id="make-me-a-hanzi-clip-7">
        <path d="M 391 213 L 179 195 L 88 190 Q 82 189 80 185 Q 76 172 96 163 L 115 153 L 133 146 Q 157 142 190 148 L 275 164 L 376 177 L 434 182 L 572 188 L 646 191 L 773 193 Q 838 193 856 194 L 893 195 Q 908 196 914 201 Q 920 206 920 211 Q 919 215 910 224 L 896 236 Q 890 240 871 248 Q 852 255 837 257 Q 821 258 789 251 Q 757 243 736 242 L 646 232 L 576 227 L 456 220 L 391 213 Z" />
      </clipPath>
      <path clip-path="url(#make-me-a-hanzi-clip-7)" d="M 89 180 L 137 169 L 165 169 L 451 202 L 825 225 L 869 221 L 911 209" fill="none" id="make-me-a-hanzi-animation-7" stroke-dasharray="956 1912" stroke-linecap="round" />
    
  </g>
</svg>