<svg version="1.1" viewBox="0 0 1024 1024" xmlns="http://www.w3.org/2000/svg">
  <g stroke="lightgray" stroke-dasharray="1,1" stroke-width="1" transform="scale(4, 4)">
    <line x1="0" y1="0" x2="256" y2="256"></line>
    <line x1="256" y1="0" x2="0" y2="256"></line>
    <line x1="128" y1="0" x2="128" y2="256"></line>
    <line x1="0" y1="128" x2="256" y2="128"></line>
  </g>
  <g transform="scale(1, -1) translate(0, -848)">
    <style type="text/css">
      
        @keyframes keyframes0 {
          from {
            stroke: blue;
            stroke-dashoffset: 717;
            stroke-width: 128;
          }
          70% {
            animation-timing-function: step-end;
            stroke: blue;
            stroke-dashoffset: 0;
            stroke-width: 128;
          }
          to {
            stroke: black;
            stroke-width: 1024;
          }
        }
        #make-me-a-hanzi-animation-0 {
          animation: keyframes0 0.83349609375s both;
          animation-delay: 0s;
          animation-timing-function: linear;
        }
      
        @keyframes keyframes1 {
          from {
            stroke: blue;
            stroke-dashoffset: 1171;
            stroke-width: 128;
          }
          79% {
            animation-timing-function: step-end;
            stroke: blue;
            stroke-dashoffset: 0;
            stroke-width: 128;
          }
          to {
            stroke: black;
            stroke-width: 1024;
          }
        }
        #make-me-a-hanzi-animation-1 {
          animation: keyframes1 1.2029622395833333s both;
          animation-delay: 0.83349609375s;
          animation-timing-function: linear;
        }
      
        @keyframes keyframes2 {
          from {
            stroke: blue;
            stroke-dashoffset: 1220;
            stroke-width: 128;
          }
          80% {
            animation-timing-function: step-end;
            stroke: blue;
            stroke-dashoffset: 0;
            stroke-width: 128;
          }
          to {
            stroke: black;
            stroke-width: 1024;
          }
        }
        #make-me-a-hanzi-animation-2 {
          animation: keyframes2 1.2428385416666667s both;
          animation-delay: 2.036458333333333s;
          animation-timing-function: linear;
        }
      
    </style>
    
      <path d="M 460 524 Q 545 545 636 564 Q 702 580 711 589 Q 721 598 716 607 Q 707 620 676 627 Q 643 634 611 620 Q 542 595 470 574 L 410 559 Q 340 546 262 536 Q 222 529 251 511 Q 293 490 370 504 Q 383 507 400 510 L 460 524 Z" fill="lightgray"></path>
    
      <path d="M 400 510 Q 363 368 291 263 Q 215 157 97 84 Q 78 71 59 56 Q 43 44 59 42 Q 75 41 118 58 Q 203 97 266 157 Q 339 218 374 288 L 406 350 Q 445 431 460 524 L 470 574 Q 491 695 513 741 Q 525 763 505 774 Q 447 816 414 806 Q 398 800 406 782 Q 436 722 410 559 L 400 510 Z" fill="lightgray"></path>
    
      <path d="M 499 348 Q 484 159 494 120 Q 503 86 526 63 Q 598 -9 808 -1 Q 902 6 939 26 Q 973 42 960 79 Q 939 134 928 231 Q 927 249 918 254 Q 908 260 905 237 Q 890 119 873 97 Q 861 76 822 70 Q 666 49 583 85 Q 553 101 546 121 Q 536 155 541 243 Q 553 340 572 383 Q 588 414 567 435 Q 515 478 498 475 Q 480 471 488 451 Q 507 408 499 348 Z" fill="lightgray"></path>
    
    
      <clipPath id="make-me-a-hanzi-clip-0">
        <path d="M 460 524 Q 545 545 636 564 Q 702 580 711 589 Q 721 598 716 607 Q 707 620 676 627 Q 643 634 611 620 Q 542 595 470 574 L 410 559 Q 340 546 262 536 Q 222 529 251 511 Q 293 490 370 504 Q 383 507 400 510 L 460 524 Z"></path>
      </clipPath>
      <path clip-path="url(#make-me-a-hanzi-clip-0)" d="M 253 525 L 297 519 L 357 525 L 476 551 L 628 594 L 704 601" fill="none" id="make-me-a-hanzi-animation-0" stroke-dasharray="589 1178" stroke-linecap="round"></path>
    
      <clipPath id="make-me-a-hanzi-clip-1">
        <path d="M 400 510 Q 363 368 291 263 Q 215 157 97 84 Q 78 71 59 56 Q 43 44 59 42 Q 75 41 118 58 Q 203 97 266 157 Q 339 218 374 288 L 406 350 Q 445 431 460 524 L 470 574 Q 491 695 513 741 Q 525 763 505 774 Q 447 816 414 806 Q 398 800 406 782 Q 436 722 410 559 L 400 510 Z"></path>
      </clipPath>
      <path clip-path="url(#make-me-a-hanzi-clip-1)" d="M 418 791 L 436 781 L 460 753 L 463 730 L 429 506 L 404 422 L 371 344 L 317 249 L 256 181 L 180 116 L 63 49" fill="none" id="make-me-a-hanzi-animation-1" stroke-dasharray="1043 2086" stroke-linecap="round"></path>
    
      <clipPath id="make-me-a-hanzi-clip-2">
        <path d="M 499 348 Q 484 159 494 120 Q 503 86 526 63 Q 598 -9 808 -1 Q 902 6 939 26 Q 973 42 960 79 Q 939 134 928 231 Q 927 249 918 254 Q 908 260 905 237 Q 890 119 873 97 Q 861 76 822 70 Q 666 49 583 85 Q 553 101 546 121 Q 536 155 541 243 Q 553 340 572 383 Q 588 414 567 435 Q 515 478 498 475 Q 480 471 488 451 Q 507 408 499 348 Z"></path>
      </clipPath>
      <path clip-path="url(#make-me-a-hanzi-clip-2)" d="M 500 460 L 524 434 L 539 404 L 516 247 L 518 128 L 540 84 L 570 62 L 653 36 L 718 31 L 834 36 L 891 53 L 912 68 L 914 84 L 915 245" fill="none" id="make-me-a-hanzi-animation-2" stroke-dasharray="1092 2184" stroke-linecap="round"></path>
    
  </g>
</svg>