<svg xmlns="http://www.w3.org/2000/svg" version="1.1" viewBox="0 0 1024 1024">
  <g stroke="lightgray" stroke-dasharray="1,1" stroke-width="1" transform="scale(4, 4)">
    <line x1="0" y1="0" x2="256" y2="256" />
    <line x1="256" y1="0" x2="0" y2="256" />
    <line x1="128" y1="0" x2="128" y2="256" />
    <line x1="0" y1="128" x2="256" y2="128" />
  </g>
  <g transform="scale(1.0, -1.0) translate(0.0, -827.00)">
    <style type="text/css">
      
        @keyframes keyframes0 {
          from {
            stroke: blue;
            stroke-dashoffset: 697;
            stroke-width: 128;
          }
          69% {
            animation-timing-function: step-end;
            stroke: blue;
            stroke-dashoffset: 0;
            stroke-width: 128;
          }
          to {
            stroke: black;
            stroke-width: 1024;
          }
        }
        #make-me-a-hanzi-animation-0 {
          animation: keyframes0 0.8172200520833334s both;
          animation-delay: 0s;
          animation-timing-function: linear;
        }
      
        @keyframes keyframes1 {
          from {
            stroke: blue;
            stroke-dashoffset: 683;
            stroke-width: 128;
          }
          69% {
            animation-timing-function: step-end;
            stroke: blue;
            stroke-dashoffset: 0;
            stroke-width: 128;
          }
          to {
            stroke: black;
            stroke-width: 1024;
          }
        }
        #make-me-a-hanzi-animation-1 {
          animation: keyframes1 0.8058268229166666s both;
          animation-delay: 0.8172200520833334s;
          animation-timing-function: linear;
        }
      
        @keyframes keyframes2 {
          from {
            stroke: blue;
            stroke-dashoffset: 500;
            stroke-width: 128;
          }
          62% {
            animation-timing-function: step-end;
            stroke: blue;
            stroke-dashoffset: 0;
            stroke-width: 128;
          }
          to {
            stroke: black;
            stroke-width: 1024;
          }
        }
        #make-me-a-hanzi-animation-2 {
          animation: keyframes2 0.6569010416666666s both;
          animation-delay: 1.623046875s;
          animation-timing-function: linear;
        }
      
        @keyframes keyframes3 {
          from {
            stroke: blue;
            stroke-dashoffset: 581;
            stroke-width: 128;
          }
          65% {
            animation-timing-function: step-end;
            stroke: blue;
            stroke-dashoffset: 0;
            stroke-width: 128;
          }
          to {
            stroke: black;
            stroke-width: 1024;
          }
        }
        #make-me-a-hanzi-animation-3 {
          animation: keyframes3 0.7228190104166666s both;
          animation-delay: 2.2799479166666665s;
          animation-timing-function: linear;
        }
      
        @keyframes keyframes4 {
          from {
            stroke: blue;
            stroke-dashoffset: 715;
            stroke-width: 128;
          }
          70% {
            animation-timing-function: step-end;
            stroke: blue;
            stroke-dashoffset: 0;
            stroke-width: 128;
          }
          to {
            stroke: black;
            stroke-width: 1024;
          }
        }
        #make-me-a-hanzi-animation-4 {
          animation: keyframes4 0.8318684895833334s both;
          animation-delay: 3.002766927083333s;
          animation-timing-function: linear;
        }
      
        @keyframes keyframes5 {
          from {
            stroke: blue;
            stroke-dashoffset: 811;
            stroke-width: 128;
          }
          73% {
            animation-timing-function: step-end;
            stroke: blue;
            stroke-dashoffset: 0;
            stroke-width: 128;
          }
          to {
            stroke: black;
            stroke-width: 1024;
          }
        }
        #make-me-a-hanzi-animation-5 {
          animation: keyframes5 0.9099934895833334s both;
          animation-delay: 3.8346354166666665s;
          animation-timing-function: linear;
        }
      
        @keyframes keyframes6 {
          from {
            stroke: blue;
            stroke-dashoffset: 693;
            stroke-width: 128;
          }
          69% {
            animation-timing-function: step-end;
            stroke: blue;
            stroke-dashoffset: 0;
            stroke-width: 128;
          }
          to {
            stroke: black;
            stroke-width: 1024;
          }
        }
        #make-me-a-hanzi-animation-6 {
          animation: keyframes6 0.81396484375s both;
          animation-delay: 4.74462890625s;
          animation-timing-function: linear;
        }
      
        @keyframes keyframes7 {
          from {
            stroke: blue;
            stroke-dashoffset: 630;
            stroke-width: 128;
          }
          67% {
            animation-timing-function: step-end;
            stroke: blue;
            stroke-dashoffset: 0;
            stroke-width: 128;
          }
          to {
            stroke: black;
            stroke-width: 1024;
          }
        }
        #make-me-a-hanzi-animation-7 {
          animation: keyframes7 0.7626953125s both;
          animation-delay: 5.55859375s;
          animation-timing-function: linear;
        }
      
        @keyframes keyframes8 {
          from {
            stroke: blue;
            stroke-dashoffset: 660;
            stroke-width: 128;
          }
          68% {
            animation-timing-function: step-end;
            stroke: blue;
            stroke-dashoffset: 0;
            stroke-width: 128;
          }
          to {
            stroke: black;
            stroke-width: 1024;
          }
        }
        #make-me-a-hanzi-animation-8 {
          animation: keyframes8 0.787109375s both;
          animation-delay: 6.3212890625s;
          animation-timing-function: linear;
        }
      
    </style>
    
      <path d="M 241 288 Q 260 621 262 625 Q 266 646 271 662 Q 275 674 254 688 Q 218 707 194 711 Q 178 714 170 705 Q 163 698 171 683 Q 196 649 196 624 Q 206 464 199 275 C 198 245 239 258 241 288 Z" fill="lightgray" />
    
      <path d="M 310 306 Q 273 299 241 288 L 199 275 Q 162 265 130 251 Q 114 247 118 265 Q 128 377 119 391 Q 83 427 59 423 Q 49 419 57 400 Q 81 349 74 298 Q 70 249 50 228 Q 34 209 42 197 Q 54 182 71 174 Q 84 167 94 176 Q 124 218 270 259 Q 295 268 309 267 C 339 269 339 312 310 306 Z" fill="lightgray" />
    
      <path d="M 309 267 Q 313 249 321 235 Q 328 220 339 231 Q 363 255 366 328 Q 378 409 387 421 Q 394 434 385 447 Q 369 460 340 478 Q 328 484 317 479 Q 310 475 313 463 Q 326 445 323 361 Q 319 327 310 306 C 303 289 303 289 309 267 Z" fill="lightgray" />
    
      <path d="M 572 613 Q 614 631 648 650 Q 691 672 729 682 Q 745 685 749 692 Q 752 704 739 713 Q 679 749 643 745 Q 636 741 636 729 Q 637 687 452 584 Q 448 574 454 572 Q 466 572 544 602 L 572 613 Z" fill="lightgray" />
    
      <path d="M 668 476 Q 752 488 853 488 Q 872 489 877 498 Q 881 510 865 522 Q 810 561 742 538 L 615 510 Q 609 510 605 508 L 541 496 Q 478 486 415 474 Q 396 471 411 455 Q 424 442 442 438 Q 463 434 478 439 Q 497 446 523 451 L 582 464 Q 604 470 639 473 L 668 476 Z" fill="lightgray" />
    
      <path d="M 605 508 Q 618 535 630 546 Q 640 556 636 565 Q 635 574 620 588 Q 599 604 572 613 C 544 624 536 627 544 602 Q 559 560 557 543 Q 551 527 541 496 L 523 451 Q 483 360 437 297 Q 397 245 311 168 Q 299 155 310 152 Q 331 146 407 207 Q 512 292 582 464 L 605 508 Z" fill="lightgray" />
    
      <path d="M 639 473 Q 670 410 806 234 Q 822 215 852 215 Q 949 214 981 219 Q 991 220 992 225 Q 993 229 980 237 Q 841 298 766 373 Q 718 419 668 476 C 648 498 625 500 639 473 Z" fill="lightgray" />
    
      <path d="M 484 232 Q 508 196 490 97 Q 466 12 379 -58 Q 367 -67 379 -69 Q 461 -60 514 27 Q 517 36 529 57 Q 533 69 557 167 Q 558 186 567 204 Q 574 222 559 229 Q 543 241 529 246 Q 507 258 490 251 Q 477 247 484 232 Z" fill="lightgray" />
    
      <path d="M 664 278 Q 685 248 668 39 Q 667 32 666 23 Q 662 -52 683 -88 Q 692 -109 708 -118 Q 720 -119 725 -106 Q 737 -73 733 -43 Q 723 195 732 247 Q 735 260 727 266 Q 703 287 684 296 Q 671 300 662 292 Q 656 288 664 278 Z" fill="lightgray" />
    
    
      <clipPath id="make-me-a-hanzi-clip-0">
        <path d="M 241 288 Q 260 621 262 625 Q 266 646 271 662 Q 275 674 254 688 Q 218 707 194 711 Q 178 714 170 705 Q 163 698 171 683 Q 196 649 196 624 Q 206 464 199 275 C 198 245 239 258 241 288 Z" />
      </clipPath>
      <path clip-path="url(#make-me-a-hanzi-clip-0)" d="M 183 695 L 211 676 L 230 654 L 223 306 L 204 283" fill="none" id="make-me-a-hanzi-animation-0" stroke-dasharray="569 1138" stroke-linecap="round" />
    
      <clipPath id="make-me-a-hanzi-clip-1">
        <path d="M 310 306 Q 273 299 241 288 L 199 275 Q 162 265 130 251 Q 114 247 118 265 Q 128 377 119 391 Q 83 427 59 423 Q 49 419 57 400 Q 81 349 74 298 Q 70 249 50 228 Q 34 209 42 197 Q 54 182 71 174 Q 84 167 94 176 Q 124 218 270 259 Q 295 268 309 267 C 339 269 339 312 310 306 Z" />
      </clipPath>
      <path clip-path="url(#make-me-a-hanzi-clip-1)" d="M 64 414 L 95 378 L 98 359 L 93 227 L 131 229 L 183 251 L 288 282 L 304 300" fill="none" id="make-me-a-hanzi-animation-1" stroke-dasharray="555 1110" stroke-linecap="round" />
    
      <clipPath id="make-me-a-hanzi-clip-2">
        <path d="M 309 267 Q 313 249 321 235 Q 328 220 339 231 Q 363 255 366 328 Q 378 409 387 421 Q 394 434 385 447 Q 369 460 340 478 Q 328 484 317 479 Q 310 475 313 463 Q 326 445 323 361 Q 319 327 310 306 C 303 289 303 289 309 267 Z" />
      </clipPath>
      <path clip-path="url(#make-me-a-hanzi-clip-2)" d="M 325 469 L 354 429 L 331 236" fill="none" id="make-me-a-hanzi-animation-2" stroke-dasharray="372 744" stroke-linecap="round" />
    
      <clipPath id="make-me-a-hanzi-clip-3">
        <path d="M 572 613 Q 614 631 648 650 Q 691 672 729 682 Q 745 685 749 692 Q 752 704 739 713 Q 679 749 643 745 Q 636 741 636 729 Q 637 687 452 584 Q 448 574 454 572 Q 466 572 544 602 L 572 613 Z" />
      </clipPath>
      <path clip-path="url(#make-me-a-hanzi-clip-3)" d="M 739 697 L 668 701 L 584 640 L 535 617 L 528 608 L 514 608 L 506 598 L 491 597 L 473 586 L 465 589 L 456 579" fill="none" id="make-me-a-hanzi-animation-3" stroke-dasharray="453 906" stroke-linecap="round" />
    
      <clipPath id="make-me-a-hanzi-clip-4">
        <path d="M 668 476 Q 752 488 853 488 Q 872 489 877 498 Q 881 510 865 522 Q 810 561 742 538 L 615 510 Q 609 510 605 508 L 541 496 Q 478 486 415 474 Q 396 471 411 455 Q 424 442 442 438 Q 463 434 478 439 Q 497 446 523 451 L 582 464 Q 604 470 639 473 L 668 476 Z" />
      </clipPath>
      <path clip-path="url(#make-me-a-hanzi-clip-4)" d="M 414 464 L 468 460 L 772 516 L 821 515 L 866 503" fill="none" id="make-me-a-hanzi-animation-4" stroke-dasharray="587 1174" stroke-linecap="round" />
    
      <clipPath id="make-me-a-hanzi-clip-5">
        <path d="M 605 508 Q 618 535 630 546 Q 640 556 636 565 Q 635 574 620 588 Q 599 604 572 613 C 544 624 536 627 544 602 Q 559 560 557 543 Q 551 527 541 496 L 523 451 Q 483 360 437 297 Q 397 245 311 168 Q 299 155 310 152 Q 331 146 407 207 Q 512 292 582 464 L 605 508 Z" />
      </clipPath>
      <path clip-path="url(#make-me-a-hanzi-clip-5)" d="M 555 595 L 572 590 L 594 561 L 535 417 L 505 359 L 464 296 L 419 244 L 387 211 L 313 160" fill="none" id="make-me-a-hanzi-animation-5" stroke-dasharray="683 1366" stroke-linecap="round" />
    
      <clipPath id="make-me-a-hanzi-clip-6">
        <path d="M 639 473 Q 670 410 806 234 Q 822 215 852 215 Q 949 214 981 219 Q 991 220 992 225 Q 993 229 980 237 Q 841 298 766 373 Q 718 419 668 476 C 648 498 625 500 639 473 Z" />
      </clipPath>
      <path clip-path="url(#make-me-a-hanzi-clip-6)" d="M 646 472 L 663 461 L 758 342 L 840 261 L 985 225" fill="none" id="make-me-a-hanzi-animation-6" stroke-dasharray="565 1130" stroke-linecap="round" />
    
      <clipPath id="make-me-a-hanzi-clip-7">
        <path d="M 484 232 Q 508 196 490 97 Q 466 12 379 -58 Q 367 -67 379 -69 Q 461 -60 514 27 Q 517 36 529 57 Q 533 69 557 167 Q 558 186 567 204 Q 574 222 559 229 Q 543 241 529 246 Q 507 258 490 251 Q 477 247 484 232 Z" />
      </clipPath>
      <path clip-path="url(#make-me-a-hanzi-clip-7)" d="M 493 240 L 506 234 L 530 206 L 524 140 L 508 71 L 490 32 L 462 -5 L 433 -34 L 386 -63" fill="none" id="make-me-a-hanzi-animation-7" stroke-dasharray="502 1004" stroke-linecap="round" />
    
      <clipPath id="make-me-a-hanzi-clip-8">
        <path d="M 664 278 Q 685 248 668 39 Q 667 32 666 23 Q 662 -52 683 -88 Q 692 -109 708 -118 Q 720 -119 725 -106 Q 737 -73 733 -43 Q 723 195 732 247 Q 735 260 727 266 Q 703 287 684 296 Q 671 300 662 292 Q 656 288 664 278 Z" />
      </clipPath>
      <path clip-path="url(#make-me-a-hanzi-clip-8)" d="M 671 286 L 682 280 L 702 247 L 698 -3 L 710 -105" fill="none" id="make-me-a-hanzi-animation-8" stroke-dasharray="532 1064" stroke-linecap="round" />
    
  </g>
</svg>