<svg xmlns="http://www.w3.org/2000/svg" version="1.1" viewBox="0 0 1024 1024">
  <g stroke="lightgray" stroke-dasharray="1,1" stroke-width="1" transform="scale(4, 4)">
    <line x1="0" y1="0" x2="256" y2="256" />
    <line x1="256" y1="0" x2="0" y2="256" />
    <line x1="128" y1="0" x2="128" y2="256" />
    <line x1="0" y1="128" x2="256" y2="128" />
  </g>
  <g transform="scale(1.0, -1.0) translate(0.0, -841.00)">
    <style type="text/css">
      
        @keyframes keyframes0 {
          from {
            stroke: blue;
            stroke-dashoffset: 693;
            stroke-width: 128;
          }
          69% {
            animation-timing-function: step-end;
            stroke: blue;
            stroke-dashoffset: 0;
            stroke-width: 128;
          }
          to {
            stroke: black;
            stroke-width: 1024;
          }
        }
        #make-me-a-hanzi-animation-0 {
          animation: keyframes0 0.81396484375s both;
          animation-delay: 0s;
          animation-timing-function: linear;
        }
      
        @keyframes keyframes1 {
          from {
            stroke: blue;
            stroke-dashoffset: 690;
            stroke-width: 128;
          }
          69% {
            animation-timing-function: step-end;
            stroke: blue;
            stroke-dashoffset: 0;
            stroke-width: 128;
          }
          to {
            stroke: black;
            stroke-width: 1024;
          }
        }
        #make-me-a-hanzi-animation-1 {
          animation: keyframes1 0.8115234375s both;
          animation-delay: 0.81396484375s;
          animation-timing-function: linear;
        }
      
        @keyframes keyframes2 {
          from {
            stroke: blue;
            stroke-dashoffset: 492;
            stroke-width: 128;
          }
          62% {
            animation-timing-function: step-end;
            stroke: blue;
            stroke-dashoffset: 0;
            stroke-width: 128;
          }
          to {
            stroke: black;
            stroke-width: 1024;
          }
        }
        #make-me-a-hanzi-animation-2 {
          animation: keyframes2 0.650390625s both;
          animation-delay: 1.62548828125s;
          animation-timing-function: linear;
        }
      
        @keyframes keyframes3 {
          from {
            stroke: blue;
            stroke-dashoffset: 725;
            stroke-width: 128;
          }
          70% {
            animation-timing-function: step-end;
            stroke: blue;
            stroke-dashoffset: 0;
            stroke-width: 128;
          }
          to {
            stroke: black;
            stroke-width: 1024;
          }
        }
        #make-me-a-hanzi-animation-3 {
          animation: keyframes3 0.8400065104166666s both;
          animation-delay: 2.27587890625s;
          animation-timing-function: linear;
        }
      
        @keyframes keyframes4 {
          from {
            stroke: blue;
            stroke-dashoffset: 449;
            stroke-width: 128;
          }
          59% {
            animation-timing-function: step-end;
            stroke: blue;
            stroke-dashoffset: 0;
            stroke-width: 128;
          }
          to {
            stroke: black;
            stroke-width: 1024;
          }
        }
        #make-me-a-hanzi-animation-4 {
          animation: keyframes4 0.6153971354166666s both;
          animation-delay: 3.1158854166666665s;
          animation-timing-function: linear;
        }
      
        @keyframes keyframes5 {
          from {
            stroke: blue;
            stroke-dashoffset: 515;
            stroke-width: 128;
          }
          63% {
            animation-timing-function: step-end;
            stroke: blue;
            stroke-dashoffset: 0;
            stroke-width: 128;
          }
          to {
            stroke: black;
            stroke-width: 1024;
          }
        }
        #make-me-a-hanzi-animation-5 {
          animation: keyframes5 0.6691080729166666s both;
          animation-delay: 3.731282552083333s;
          animation-timing-function: linear;
        }
      
        @keyframes keyframes6 {
          from {
            stroke: blue;
            stroke-dashoffset: 427;
            stroke-width: 128;
          }
          58% {
            animation-timing-function: step-end;
            stroke: blue;
            stroke-dashoffset: 0;
            stroke-width: 128;
          }
          to {
            stroke: black;
            stroke-width: 1024;
          }
        }
        #make-me-a-hanzi-animation-6 {
          animation: keyframes6 0.5974934895833334s both;
          animation-delay: 4.400390625s;
          animation-timing-function: linear;
        }
      
        @keyframes keyframes7 {
          from {
            stroke: blue;
            stroke-dashoffset: 707;
            stroke-width: 128;
          }
          70% {
            animation-timing-function: step-end;
            stroke: blue;
            stroke-dashoffset: 0;
            stroke-width: 128;
          }
          to {
            stroke: black;
            stroke-width: 1024;
          }
        }
        #make-me-a-hanzi-animation-7 {
          animation: keyframes7 0.8253580729166666s both;
          animation-delay: 4.997884114583333s;
          animation-timing-function: linear;
        }
      
        @keyframes keyframes8 {
          from {
            stroke: blue;
            stroke-dashoffset: 633;
            stroke-width: 128;
          }
          67% {
            animation-timing-function: step-end;
            stroke: blue;
            stroke-dashoffset: 0;
            stroke-width: 128;
          }
          to {
            stroke: black;
            stroke-width: 1024;
          }
        }
        #make-me-a-hanzi-animation-8 {
          animation: keyframes8 0.76513671875s both;
          animation-delay: 5.8232421875s;
          animation-timing-function: linear;
        }
      
        @keyframes keyframes9 {
          from {
            stroke: blue;
            stroke-dashoffset: 730;
            stroke-width: 128;
          }
          70% {
            animation-timing-function: step-end;
            stroke: blue;
            stroke-dashoffset: 0;
            stroke-width: 128;
          }
          to {
            stroke: black;
            stroke-width: 1024;
          }
        }
        #make-me-a-hanzi-animation-9 {
          animation: keyframes9 0.8440755208333334s both;
          animation-delay: 6.58837890625s;
          animation-timing-function: linear;
        }
      
        @keyframes keyframes10 {
          from {
            stroke: blue;
            stroke-dashoffset: 612;
            stroke-width: 128;
          }
          67% {
            animation-timing-function: step-end;
            stroke: blue;
            stroke-dashoffset: 0;
            stroke-width: 128;
          }
          to {
            stroke: black;
            stroke-width: 1024;
          }
        }
        #make-me-a-hanzi-animation-10 {
          animation: keyframes10 0.748046875s both;
          animation-delay: 7.432454427083333s;
          animation-timing-function: linear;
        }
      
        @keyframes keyframes11 {
          from {
            stroke: blue;
            stroke-dashoffset: 679;
            stroke-width: 128;
          }
          69% {
            animation-timing-function: step-end;
            stroke: blue;
            stroke-dashoffset: 0;
            stroke-width: 128;
          }
          to {
            stroke: black;
            stroke-width: 1024;
          }
        }
        #make-me-a-hanzi-animation-11 {
          animation: keyframes11 0.8025716145833334s both;
          animation-delay: 8.180501302083332s;
          animation-timing-function: linear;
        }
      
    </style>
    
      <path d="M 250 268 Q 266 568 283 638 Q 287 648 266 664 Q 230 683 206 687 Q 190 691 182 682 Q 175 675 183 659 Q 207 625 207 600 Q 216 440 207 255 C 206 225 248 238 250 268 Z" fill="lightgray" />
    
      <path d="M 317 285 Q 280 278 250 268 L 207 255 Q 167 245 132 229 Q 119 225 121 243 Q 125 292 131 344 Q 135 366 125 379 Q 112 395 89 407 Q 79 413 69 410 Q 59 406 67 389 Q 91 335 83 282 Q 77 230 56 208 Q 40 190 48 178 Q 60 165 76 156 Q 88 150 98 160 Q 122 188 256 234 Q 296 247 317 249 C 347 254 346 291 317 285 Z" fill="lightgray" />
    
      <path d="M 317 249 Q 321 230 329 215 Q 336 200 347 211 Q 368 233 372 308 Q 385 384 392 393 Q 399 406 390 419 Q 372 432 344 449 Q 332 456 321 450 Q 314 446 317 435 Q 332 416 329 340 Q 326 307 317 285 L 317 249 Z" fill="lightgray" />
    
      <path d="M 574 568 Q 611 577 676 580 L 722 583 Q 800 590 864 586 Q 879 585 883 594 Q 887 604 875 618 Q 835 655 745 635 Q 742 635 742 634 L 687 624 L 572 606 L 527 600 L 414 585 Q 386 581 405 567 Q 447 540 500 553 Q 516 559 535 561 L 574 568 Z" fill="lightgray" />
    
      <path d="M 535 561 Q 544 515 556 499 Q 569 489 573 500 Q 579 516 574 568 L 572 606 Q 571 633 571 655 Q 572 673 554 678 Q 515 697 498 691 Q 482 684 494 665 Q 518 635 527 600 L 535 561 Z" fill="lightgray" />
    
      <path d="M 676 580 Q 661 523 662 507 Q 663 494 679 505 Q 694 517 722 583 L 742 634 Q 743 637 745 640 Q 754 662 770 693 Q 783 708 774 718 Q 761 734 726 751 Q 710 761 692 751 Q 682 745 690 734 Q 703 707 687 624 L 676 580 Z" fill="lightgray" />
    
      <path d="M 480 432 Q 470 457 447 470 Q 443 474 438 470 Q 432 466 433 455 Q 439 424 410 352 Q 401 336 403 318 Q 407 299 417 285 Q 424 275 430 283 Q 436 284 443 300 Q 447 307 456 336 Q 468 384 478 404 C 485 420 485 420 480 432 Z" fill="lightgray" />
    
      <path d="M 478 404 Q 499 394 543 405 Q 618 432 744 446 Q 757 449 764 447 Q 777 440 776 433 Q 776 427 746 369 Q 739 357 745 352 Q 752 348 767 359 Q 819 389 860 398 Q 894 405 894 414 Q 893 424 827 474 Q 803 492 716 472 Q 689 471 543 442 Q 512 438 480 432 C 450 427 449 412 478 404 Z" fill="lightgray" />
    
      <path d="M 655 242 Q 682 251 798 266 Q 808 265 817 278 Q 818 290 795 299 Q 767 320 673 292 Q 657 289 642 284 L 593 272 Q 569 269 440 249 Q 412 245 434 228 Q 468 203 495 210 Q 523 217 558 223 L 655 242 Z" fill="lightgray" />
    
      <path d="M 642 284 Q 643 317 647 333 Q 648 346 642 351 Q 620 370 601 380 Q 589 384 580 376 Q 574 373 582 363 Q 592 345 593 272 L 592 181 Q 592 66 578 8 Q 565 -47 614 -98 Q 615 -99 620 -102 Q 630 -103 636 -91 Q 648 -60 644 -30 Q 640 103 641 214 L 642 284 Z" fill="lightgray" />
    
      <path d="M 558 223 Q 501 111 330 -8 Q 314 -21 329 -22 Q 339 -23 378 -8 Q 424 8 466 42 Q 503 70 544 118 Q 572 152 592 181 C 631 237 581 267 558 223 Z" fill="lightgray" />
    
      <path d="M 641 214 Q 705 108 791 -4 Q 807 -23 836 -24 Q 933 -25 965 -21 Q 975 -20 976 -15 Q 977 -11 964 -3 Q 826 63 780 109 Q 720 167 655 242 C 635 265 623 244 641 214 Z" fill="lightgray" />
    
    
      <clipPath id="make-me-a-hanzi-clip-0">
        <path d="M 250 268 Q 266 568 283 638 Q 287 648 266 664 Q 230 683 206 687 Q 190 691 182 682 Q 175 675 183 659 Q 207 625 207 600 Q 216 440 207 255 C 206 225 248 238 250 268 Z" />
      </clipPath>
      <path clip-path="url(#make-me-a-hanzi-clip-0)" d="M 194 673 L 232 643 L 242 618 L 232 306 L 230 285 L 212 263" fill="none" id="make-me-a-hanzi-animation-0" stroke-dasharray="565 1130" stroke-linecap="round" />
    
      <clipPath id="make-me-a-hanzi-clip-1">
        <path d="M 317 285 Q 280 278 250 268 L 207 255 Q 167 245 132 229 Q 119 225 121 243 Q 125 292 131 344 Q 135 366 125 379 Q 112 395 89 407 Q 79 413 69 410 Q 59 406 67 389 Q 91 335 83 282 Q 77 230 56 208 Q 40 190 48 178 Q 60 165 76 156 Q 88 150 98 160 Q 122 188 256 234 Q 296 247 317 249 C 347 254 346 291 317 285 Z" />
      </clipPath>
      <path clip-path="url(#make-me-a-hanzi-clip-1)" d="M 75 400 L 96 377 L 105 356 L 107 309 L 97 208 L 111 204 L 141 210 L 189 231 L 295 262 L 311 279" fill="none" id="make-me-a-hanzi-animation-1" stroke-dasharray="562 1124" stroke-linecap="round" />
    
      <clipPath id="make-me-a-hanzi-clip-2">
        <path d="M 317 249 Q 321 230 329 215 Q 336 200 347 211 Q 368 233 372 308 Q 385 384 392 393 Q 399 406 390 419 Q 372 432 344 449 Q 332 456 321 450 Q 314 446 317 435 Q 332 416 329 340 Q 326 307 317 285 L 317 249 Z" />
      </clipPath>
      <path clip-path="url(#make-me-a-hanzi-clip-2)" d="M 329 440 L 360 401 L 339 216" fill="none" id="make-me-a-hanzi-animation-2" stroke-dasharray="364 728" stroke-linecap="round" />
    
      <clipPath id="make-me-a-hanzi-clip-3">
        <path d="M 574 568 Q 611 577 676 580 L 722 583 Q 800 590 864 586 Q 879 585 883 594 Q 887 604 875 618 Q 835 655 745 635 Q 742 635 742 634 L 687 624 L 572 606 L 527 600 L 414 585 Q 386 581 405 567 Q 447 540 500 553 Q 516 559 535 561 L 574 568 Z" />
      </clipPath>
      <path clip-path="url(#make-me-a-hanzi-clip-3)" d="M 408 577 L 441 570 L 489 572 L 596 592 L 792 615 L 840 612 L 871 600" fill="none" id="make-me-a-hanzi-animation-3" stroke-dasharray="597 1194" stroke-linecap="round" />
    
      <clipPath id="make-me-a-hanzi-clip-4">
        <path d="M 535 561 Q 544 515 556 499 Q 569 489 573 500 Q 579 516 574 568 L 572 606 Q 571 633 571 655 Q 572 673 554 678 Q 515 697 498 691 Q 482 684 494 665 Q 518 635 527 600 L 535 561 Z" />
      </clipPath>
      <path clip-path="url(#make-me-a-hanzi-clip-4)" d="M 504 677 L 541 647 L 564 503" fill="none" id="make-me-a-hanzi-animation-4" stroke-dasharray="321 642" stroke-linecap="round" />
    
      <clipPath id="make-me-a-hanzi-clip-5">
        <path d="M 676 580 Q 661 523 662 507 Q 663 494 679 505 Q 694 517 722 583 L 742 634 Q 743 637 745 640 Q 754 662 770 693 Q 783 708 774 718 Q 761 734 726 751 Q 710 761 692 751 Q 682 745 690 734 Q 703 707 687 624 L 676 580 Z" />
      </clipPath>
      <path clip-path="url(#make-me-a-hanzi-clip-5)" d="M 697 742 L 713 734 L 733 702 L 699 581 L 671 508" fill="none" id="make-me-a-hanzi-animation-5" stroke-dasharray="387 774" stroke-linecap="round" />
    
      <clipPath id="make-me-a-hanzi-clip-6">
        <path d="M 480 432 Q 470 457 447 470 Q 443 474 438 470 Q 432 466 433 455 Q 439 424 410 352 Q 401 336 403 318 Q 407 299 417 285 Q 424 275 430 283 Q 436 284 443 300 Q 447 307 456 336 Q 468 384 478 404 C 485 420 485 420 480 432 Z" />
      </clipPath>
      <path clip-path="url(#make-me-a-hanzi-clip-6)" d="M 443 460 L 457 428 L 428 330 L 425 296" fill="none" id="make-me-a-hanzi-animation-6" stroke-dasharray="299 598" stroke-linecap="round" />
    
      <clipPath id="make-me-a-hanzi-clip-7">
        <path d="M 478 404 Q 499 394 543 405 Q 618 432 744 446 Q 757 449 764 447 Q 777 440 776 433 Q 776 427 746 369 Q 739 357 745 352 Q 752 348 767 359 Q 819 389 860 398 Q 894 405 894 414 Q 893 424 827 474 Q 803 492 716 472 Q 689 471 543 442 Q 512 438 480 432 C 450 427 449 412 478 404 Z" />
      </clipPath>
      <path clip-path="url(#make-me-a-hanzi-clip-7)" d="M 485 411 L 605 441 L 771 465 L 799 454 L 815 437 L 816 426 L 750 358" fill="none" id="make-me-a-hanzi-animation-7" stroke-dasharray="579 1158" stroke-linecap="round" />
    
      <clipPath id="make-me-a-hanzi-clip-8">
        <path d="M 655 242 Q 682 251 798 266 Q 808 265 817 278 Q 818 290 795 299 Q 767 320 673 292 Q 657 289 642 284 L 593 272 Q 569 269 440 249 Q 412 245 434 228 Q 468 203 495 210 Q 523 217 558 223 L 655 242 Z" />
      </clipPath>
      <path clip-path="url(#make-me-a-hanzi-clip-8)" d="M 435 239 L 486 232 L 729 282 L 776 285 L 806 280" fill="none" id="make-me-a-hanzi-animation-8" stroke-dasharray="505 1010" stroke-linecap="round" />
    
      <clipPath id="make-me-a-hanzi-clip-9">
        <path d="M 642 284 Q 643 317 647 333 Q 648 346 642 351 Q 620 370 601 380 Q 589 384 580 376 Q 574 373 582 363 Q 592 345 593 272 L 592 181 Q 592 66 578 8 Q 565 -47 614 -98 Q 615 -99 620 -102 Q 630 -103 636 -91 Q 648 -60 644 -30 Q 640 103 641 214 L 642 284 Z" />
      </clipPath>
      <path clip-path="url(#make-me-a-hanzi-clip-9)" d="M 589 371 L 618 334 L 616 89 L 609 -15 L 622 -92" fill="none" id="make-me-a-hanzi-animation-9" stroke-dasharray="602 1204" stroke-linecap="round" />
    
      <clipPath id="make-me-a-hanzi-clip-10">
        <path d="M 558 223 Q 501 111 330 -8 Q 314 -21 329 -22 Q 339 -23 378 -8 Q 424 8 466 42 Q 503 70 544 118 Q 572 152 592 181 C 631 237 581 267 558 223 Z" />
      </clipPath>
      <path clip-path="url(#make-me-a-hanzi-clip-10)" d="M 588 224 L 530 138 L 458 63 L 391 15 L 332 -15" fill="none" id="make-me-a-hanzi-animation-10" stroke-dasharray="484 968" stroke-linecap="round" />
    
      <clipPath id="make-me-a-hanzi-clip-11">
        <path d="M 641 214 Q 705 108 791 -4 Q 807 -23 836 -24 Q 933 -25 965 -21 Q 975 -20 976 -15 Q 977 -11 964 -3 Q 826 63 780 109 Q 720 167 655 242 C 635 265 623 244 641 214 Z" />
      </clipPath>
      <path clip-path="url(#make-me-a-hanzi-clip-11)" d="M 650 233 L 654 220 L 721 133 L 821 26 L 969 -15" fill="none" id="make-me-a-hanzi-animation-11" stroke-dasharray="551 1102" stroke-linecap="round" />
    
  </g>
</svg>