<svg xmlns="http://www.w3.org/2000/svg" version="1.1" viewBox="0 0 1024 1024">
  <g stroke="lightgray" stroke-dasharray="1,1" stroke-width="1" transform="scale(4, 4)">
    <line x1="0" y1="0" x2="256" y2="256" />
    <line x1="256" y1="0" x2="0" y2="256" />
    <line x1="128" y1="0" x2="128" y2="256" />
    <line x1="0" y1="128" x2="256" y2="128" />
  </g>
  <g transform="scale(1.0, -1.0) translate(0.0, -823.00)">
    <style type="text/css">
      
        @keyframes keyframes0 {
          from {
            stroke: blue;
            stroke-dashoffset: 513;
            stroke-width: 128;
          }
          63% {
            animation-timing-function: step-end;
            stroke: blue;
            stroke-dashoffset: 0;
            stroke-width: 128;
          }
          to {
            stroke: black;
            stroke-width: 1024;
          }
        }
        #make-me-a-hanzi-animation-0 {
          animation: keyframes0 0.66748046875s both;
          animation-delay: 0s;
          animation-timing-function: linear;
        }
      
        @keyframes keyframes1 {
          from {
            stroke: blue;
            stroke-dashoffset: 768;
            stroke-width: 128;
          }
          71% {
            animation-timing-function: step-end;
            stroke: blue;
            stroke-dashoffset: 0;
            stroke-width: 128;
          }
          to {
            stroke: black;
            stroke-width: 1024;
          }
        }
        #make-me-a-hanzi-animation-1 {
          animation: keyframes1 0.875s both;
          animation-delay: 0.66748046875s;
          animation-timing-function: linear;
        }
      
        @keyframes keyframes2 {
          from {
            stroke: blue;
            stroke-dashoffset: 1063;
            stroke-width: 128;
          }
          78% {
            animation-timing-function: step-end;
            stroke: blue;
            stroke-dashoffset: 0;
            stroke-width: 128;
          }
          to {
            stroke: black;
            stroke-width: 1024;
          }
        }
        #make-me-a-hanzi-animation-2 {
          animation: keyframes2 1.1150716145833333s both;
          animation-delay: 1.54248046875s;
          animation-timing-function: linear;
        }
      
        @keyframes keyframes3 {
          from {
            stroke: blue;
            stroke-dashoffset: 576;
            stroke-width: 128;
          }
          65% {
            animation-timing-function: step-end;
            stroke: blue;
            stroke-dashoffset: 0;
            stroke-width: 128;
          }
          to {
            stroke: black;
            stroke-width: 1024;
          }
        }
        #make-me-a-hanzi-animation-3 {
          animation: keyframes3 0.71875s both;
          animation-delay: 2.657552083333333s;
          animation-timing-function: linear;
        }
      
        @keyframes keyframes4 {
          from {
            stroke: blue;
            stroke-dashoffset: 550;
            stroke-width: 128;
          }
          64% {
            animation-timing-function: step-end;
            stroke: blue;
            stroke-dashoffset: 0;
            stroke-width: 128;
          }
          to {
            stroke: black;
            stroke-width: 1024;
          }
        }
        #make-me-a-hanzi-animation-4 {
          animation: keyframes4 0.6975911458333334s both;
          animation-delay: 3.376302083333333s;
          animation-timing-function: linear;
        }
      
        @keyframes keyframes5 {
          from {
            stroke: blue;
            stroke-dashoffset: 1034;
            stroke-width: 128;
          }
          77% {
            animation-timing-function: step-end;
            stroke: blue;
            stroke-dashoffset: 0;
            stroke-width: 128;
          }
          to {
            stroke: black;
            stroke-width: 1024;
          }
        }
        #make-me-a-hanzi-animation-5 {
          animation: keyframes5 1.0914713541666667s both;
          animation-delay: 4.073893229166666s;
          animation-timing-function: linear;
        }
      
        @keyframes keyframes6 {
          from {
            stroke: blue;
            stroke-dashoffset: 1125;
            stroke-width: 128;
          }
          79% {
            animation-timing-function: step-end;
            stroke: blue;
            stroke-dashoffset: 0;
            stroke-width: 128;
          }
          to {
            stroke: black;
            stroke-width: 1024;
          }
        }
        #make-me-a-hanzi-animation-6 {
          animation: keyframes6 1.16552734375s both;
          animation-delay: 5.165364583333333s;
          animation-timing-function: linear;
        }
      
    </style>
    
      <path d="M 159 471 Q 144 486 116 484 Q 104 480 109 471 Q 142 407 112 302 Q 88 257 122 219 Q 128 209 137 213 Q 159 229 164 304 Q 167 410 170 438 C 172 461 172 461 159 471 Z" fill="lightgray" />
    
      <path d="M 287 296 Q 288 295 292 292 Q 338 261 367 237 Q 380 227 390 239 Q 411 266 412 337 Q 406 421 415 465 Q 416 483 408 491 Q 383 512 366 521 Q 354 525 346 517 Q 342 511 291 496 L 243 486 Q 212 482 159 471 C 130 465 140 435 170 438 Q 179 438 189 440 Q 214 447 243 453 L 290 462 Q 308 466 329 468 Q 356 475 361 458 Q 370 326 355 308 Q 349 304 301 307 Q 291 310 287 307 C 272 307 272 307 287 296 Z" fill="lightgray" />
    
      <path d="M 213 41 Q 201 1 227 -62 Q 234 -80 242 -83 Q 248 -90 256 -81 Q 263 -77 274 -56 Q 284 -31 283 1 Q 282 37 287 296 L 287 307 Q 287 377 290 462 L 291 496 Q 292 587 310 648 Q 320 663 316 677 Q 309 687 254 721 Q 230 739 209 723 Q 205 717 210 702 Q 241 656 242 610 Q 242 552 243 486 L 243 453 Q 239 324 237 182 Q 233 109 213 41 Z" fill="lightgray" />
    
      <path d="M 640 523 Q 788 559 791 561 Q 801 570 796 579 Q 787 592 756 599 Q 723 605 640 574 L 592 561 Q 540 551 482 544 Q 442 537 471 519 Q 516 495 579 510 Q 583 511 592 512 L 640 523 Z" fill="lightgray" />
    
      <path d="M 639 395 Q 759 426 764 429 Q 771 436 767 445 Q 760 455 732 462 Q 696 468 639 442 L 591 427 Q 590 428 588 427 Q 539 415 480 408 Q 446 401 471 386 Q 507 365 576 381 Q 582 382 590 383 L 639 395 Z" fill="lightgray" />
    
      <path d="M 639 264 Q 801 298 825 280 Q 832 274 831 261 Q 806 129 792 112 Q 786 102 773 108 Q 748 115 720 124 Q 692 131 710 110 Q 762 50 781 10 Q 788 -3 801 3 Q 828 21 855 107 Q 882 224 905 246 Q 921 267 915 276 Q 908 289 854 325 Q 835 341 819 335 Q 788 325 732 316 Q 680 309 639 302 L 588 294 Q 551 288 528 281 Q 485 271 454 266 Q 429 262 425 252 Q 424 245 441 235 Q 475 213 509 226 Q 537 239 587 251 L 639 264 Z" fill="lightgray" />
    
      <path d="M 639 302 L 639 395 L 639 442 Q 639 481 640 523 L 640 574 Q 640 577 641 579 Q 641 627 655 692 Q 658 711 643 720 Q 609 742 592 746 Q 579 750 562 741 Q 553 732 561 722 Q 588 662 591 640 Q 591 601 592 561 L 592 512 Q 591 472 591 427 L 590 383 Q 589 341 588 294 L 587 251 Q 577 -85 601 -121 Q 607 -128 615 -126 Q 630 -117 637 -54 Q 647 49 644 153 Q 641 189 639 264 L 639 302 Z" fill="lightgray" />
    
    
      <clipPath id="make-me-a-hanzi-clip-0">
        <path d="M 159 471 Q 144 486 116 484 Q 104 480 109 471 Q 142 407 112 302 Q 88 257 122 219 Q 128 209 137 213 Q 159 229 164 304 Q 167 410 170 438 C 172 461 172 461 159 471 Z" />
      </clipPath>
      <path clip-path="url(#make-me-a-hanzi-clip-0)" d="M 124 471 L 140 457 L 147 405 L 142 316 L 130 266 L 132 223" fill="none" id="make-me-a-hanzi-animation-0" stroke-dasharray="385 770" stroke-linecap="round" />
    
      <clipPath id="make-me-a-hanzi-clip-1">
        <path d="M 287 296 Q 288 295 292 292 Q 338 261 367 237 Q 380 227 390 239 Q 411 266 412 337 Q 406 421 415 465 Q 416 483 408 491 Q 383 512 366 521 Q 354 525 346 517 Q 342 511 291 496 L 243 486 Q 212 482 159 471 C 130 465 140 435 170 438 Q 179 438 189 440 Q 214 447 243 453 L 290 462 Q 308 466 329 468 Q 356 475 361 458 Q 370 326 355 308 Q 349 304 301 307 Q 291 310 287 307 C 272 307 272 307 287 296 Z" />
      </clipPath>
      <path clip-path="url(#make-me-a-hanzi-clip-1)" d="M 168 468 L 183 457 L 360 493 L 387 471 L 388 328 L 376 284 L 371 277 L 360 279 L 294 302" fill="none" id="make-me-a-hanzi-animation-1" stroke-dasharray="640 1280" stroke-linecap="round" />
    
      <clipPath id="make-me-a-hanzi-clip-2">
        <path d="M 213 41 Q 201 1 227 -62 Q 234 -80 242 -83 Q 248 -90 256 -81 Q 263 -77 274 -56 Q 284 -31 283 1 Q 282 37 287 296 L 287 307 Q 287 377 290 462 L 291 496 Q 292 587 310 648 Q 320 663 316 677 Q 309 687 254 721 Q 230 739 209 723 Q 205 717 210 702 Q 241 656 242 610 Q 242 552 243 486 L 243 453 Q 239 324 237 182 Q 233 109 213 41 Z" />
      </clipPath>
      <path clip-path="url(#make-me-a-hanzi-clip-2)" d="M 221 716 L 250 692 L 273 662 L 262 186 L 246 20 L 247 -69" fill="none" id="make-me-a-hanzi-animation-2" stroke-dasharray="935 1870" stroke-linecap="round" />
    
      <clipPath id="make-me-a-hanzi-clip-3">
        <path d="M 640 523 Q 788 559 791 561 Q 801 570 796 579 Q 787 592 756 599 Q 723 605 640 574 L 592 561 Q 540 551 482 544 Q 442 537 471 519 Q 516 495 579 510 Q 583 511 592 512 L 640 523 Z" />
      </clipPath>
      <path clip-path="url(#make-me-a-hanzi-clip-3)" d="M 473 533 L 483 528 L 536 527 L 649 549 L 742 575 L 786 571" fill="none" id="make-me-a-hanzi-animation-3" stroke-dasharray="448 896" stroke-linecap="round" />
    
      <clipPath id="make-me-a-hanzi-clip-4">
        <path d="M 639 395 Q 759 426 764 429 Q 771 436 767 445 Q 760 455 732 462 Q 696 468 639 442 L 591 427 Q 590 428 588 427 Q 539 415 480 408 Q 446 401 471 386 Q 507 365 576 381 Q 582 382 590 383 L 639 395 Z" />
      </clipPath>
      <path clip-path="url(#make-me-a-hanzi-clip-4)" d="M 473 398 L 504 393 L 546 396 L 702 437 L 735 441 L 760 436" fill="none" id="make-me-a-hanzi-animation-4" stroke-dasharray="422 844" stroke-linecap="round" />
    
      <clipPath id="make-me-a-hanzi-clip-5">
        <path d="M 639 264 Q 801 298 825 280 Q 832 274 831 261 Q 806 129 792 112 Q 786 102 773 108 Q 748 115 720 124 Q 692 131 710 110 Q 762 50 781 10 Q 788 -3 801 3 Q 828 21 855 107 Q 882 224 905 246 Q 921 267 915 276 Q 908 289 854 325 Q 835 341 819 335 Q 788 325 732 316 Q 680 309 639 302 L 588 294 Q 551 288 528 281 Q 485 271 454 266 Q 429 262 425 252 Q 424 245 441 235 Q 475 213 509 226 Q 537 239 587 251 L 639 264 Z" />
      </clipPath>
      <path clip-path="url(#make-me-a-hanzi-clip-5)" d="M 433 251 L 487 246 L 583 273 L 778 306 L 828 309 L 849 296 L 870 266 L 831 125 L 815 88 L 796 66 L 712 119" fill="none" id="make-me-a-hanzi-animation-5" stroke-dasharray="906 1812" stroke-linecap="round" />
    
      <clipPath id="make-me-a-hanzi-clip-6">
        <path d="M 639 302 L 639 395 L 639 442 Q 639 481 640 523 L 640 574 Q 640 577 641 579 Q 641 627 655 692 Q 658 711 643 720 Q 609 742 592 746 Q 579 750 562 741 Q 553 732 561 722 Q 588 662 591 640 Q 591 601 592 561 L 592 512 Q 591 472 591 427 L 590 383 Q 589 341 588 294 L 587 251 Q 577 -85 601 -121 Q 607 -128 615 -126 Q 630 -117 637 -54 Q 647 49 644 153 Q 641 189 639 264 L 639 302 Z" />
      </clipPath>
      <path clip-path="url(#make-me-a-hanzi-clip-6)" d="M 570 731 L 596 715 L 616 692 L 619 642 L 611 -116" fill="none" id="make-me-a-hanzi-animation-6" stroke-dasharray="997 1994" stroke-linecap="round" />
    
  </g>
</svg>