<svg version="1.1" viewBox="0 0 1024 1024" xmlns="http://www.w3.org/2000/svg">
  <g stroke="lightgray" stroke-dasharray="1,1" stroke-width="1" transform="scale(4, 4)">
    <line x1="0" y1="0" x2="256" y2="256"></line>
    <line x1="256" y1="0" x2="0" y2="256"></line>
    <line x1="128" y1="0" x2="128" y2="256"></line>
    <line x1="0" y1="128" x2="256" y2="128"></line>
  </g>
  <g transform="scale(0.92, -0.92) translate(60, -830)">
    <style type="text/css">
      
        @keyframes keyframes0 {
          from {
            stroke: blue;
            stroke-dashoffset: 400;
            stroke-width: 128;
          }
          57% {
            animation-timing-function: step-end;
            stroke: blue;
            stroke-dashoffset: 0;
            stroke-width: 128;
          }
          to {
            stroke: black;
            stroke-width: 1024;
          }
        }
        #make-me-a-hanzi-animation-0 {
          animation: keyframes0 0.5755208333333334s both;
          animation-delay: 0s;
          animation-timing-function: linear;
        }
      
        @keyframes keyframes1 {
          from {
            stroke: blue;
            stroke-dashoffset: 816;
            stroke-width: 128;
          }
          73% {
            animation-timing-function: step-end;
            stroke: blue;
            stroke-dashoffset: 0;
            stroke-width: 128;
          }
          to {
            stroke: black;
            stroke-width: 1024;
          }
        }
        #make-me-a-hanzi-animation-1 {
          animation: keyframes1 0.9140625s both;
          animation-delay: 0.5755208333333334s;
          animation-timing-function: linear;
        }
      
        @keyframes keyframes2 {
          from {
            stroke: blue;
            stroke-dashoffset: 932;
            stroke-width: 128;
          }
          75% {
            animation-timing-function: step-end;
            stroke: blue;
            stroke-dashoffset: 0;
            stroke-width: 128;
          }
          to {
            stroke: black;
            stroke-width: 1024;
          }
        }
        #make-me-a-hanzi-animation-2 {
          animation: keyframes2 1.0084635416666667s both;
          animation-delay: 1.4895833333333335s;
          animation-timing-function: linear;
        }
      
        @keyframes keyframes3 {
          from {
            stroke: blue;
            stroke-dashoffset: 684;
            stroke-width: 128;
          }
          69% {
            animation-timing-function: step-end;
            stroke: blue;
            stroke-dashoffset: 0;
            stroke-width: 128;
          }
          to {
            stroke: black;
            stroke-width: 1024;
          }
        }
        #make-me-a-hanzi-animation-3 {
          animation: keyframes3 0.806640625s both;
          animation-delay: 2.498046875s;
          animation-timing-function: linear;
        }
      
        @keyframes keyframes4 {
          from {
            stroke: blue;
            stroke-dashoffset: 676;
            stroke-width: 128;
          }
          69% {
            animation-timing-function: step-end;
            stroke: blue;
            stroke-dashoffset: 0;
            stroke-width: 128;
          }
          to {
            stroke: black;
            stroke-width: 1024;
          }
        }
        #make-me-a-hanzi-animation-4 {
          animation: keyframes4 0.8001302083333334s both;
          animation-delay: 3.3046875s;
          animation-timing-function: linear;
        }
      
        @keyframes keyframes5 {
          from {
            stroke: blue;
            stroke-dashoffset: 915;
            stroke-width: 128;
          }
          75% {
            animation-timing-function: step-end;
            stroke: blue;
            stroke-dashoffset: 0;
            stroke-width: 128;
          }
          to {
            stroke: black;
            stroke-width: 1024;
          }
        }
        #make-me-a-hanzi-animation-5 {
          animation: keyframes5 0.99462890625s both;
          animation-delay: 4.104817708333333s;
          animation-timing-function: linear;
        }
      
    </style>
    
      <path d="M 590 588 L 598 602 Q 599 605 600 616 Q 601 623 601 629 Q 601 640 598 649 Q 592 662 584 669 Q 576 676 562 682 Q 549 688 534 692 Q 520 696 510 698 L 496 702 Q 488 703 483 703 Q 478 703 476 702 Q 474 698 474 694 Q 474 690 480 683 L 488 671 Q 492 664 507 643 L 532 610 Q 544 596 549 592 Q 554 588 560 584 C 580 570 580 570 590 588 Z" fill="lightgray"></path>
    
      <path d="M 560 584 L 492 575 L 422 566 L 365 558 Q 322 552 296 549 L 270 546 Q 262 546 256 544 Q 252 544 250 542 Q 249 541 249 539 Q 249 537 252 534 Q 254 530 258 527 Q 262 524 270 519 C 294 502 308 505 338 510 L 372 516 Q 380 516 512 534 Q 645 552 676 554 Q 708 558 736 560 L 778 562 Q 808 564 812 568 Q 816 572 816 577 L 816 579 Q 815 584 805 591 Q 794 598 783 604 Q 771 610 757 614 Q 745 618 736 618 L 732 618 Q 724 618 708 613 Q 691 608 653 599 Q 614 591 606 590 Q 598 588 590 588 L 560 584 Z" fill="lightgray"></path>
    
      <path d="M 270 519 L 273 508 Q 274 504 275 486 L 276 466 Q 276 455 275 432 L 273 394 Q 270 342 265 306 Q 260 270 246 210 Q 232 149 226 134 Q 220 118 202 77 Q 184 35 179 26 Q 174 18 146 -22 L 118 -61 L 100 -86 Q 96 -91 96 -94 Q 96 -96 97 -97 Q 98 -98 99 -98 Q 103 -98 112 -92 L 133 -76 Q 146 -67 166 -47 Q 186 -28 203 -6 Q 220 16 239 48 Q 257 80 266 101 Q 276 122 288 164 Q 299 206 307 240 Q 314 274 318 298 Q 321 324 325 362 Q 328 402 333 427 Q 337 453 338 463 Q 338 474 343 483 Q 347 493 348 494 Q 348 498 345 502 Q 343 506 338 510 C 324 536 264 548 270 519 Z" fill="lightgray"></path>
    
      <path d="M 603 232 L 623 234 Q 650 237 674 242 L 720 250 L 750 254 Q 764 257 776 260 L 794 266 Q 806 269 807 275 L 807 277 Q 807 281 804 286 Q 799 291 784 296 L 762 305 Q 747 310 736 310 Q 728 310 702 302 Q 678 294 654 290 Q 630 286 623 285 Q 616 284 604 282 L 551 272 L 532 269 Q 488 261 460 258 L 420 255 L 390 252 L 373 250 Q 367 249 366 243 L 366 242 Q 366 237 375 230 Q 384 223 396 220 Q 408 216 422 216 Q 433 214 447 214 Q 468 214 494 218 L 526 222 L 551 225 L 603 232 Z" fill="lightgray"></path>
    
      <path d="M 600 48 L 603 232 L 604 282 L 604 311 Q 604 326 606 346 Q 607 366 609 380 Q 610 394 616 406 Q 620 418 620 424 Q 619 430 611 436 Q 602 442 593 447 Q 583 452 572 455 Q 561 458 550 458 Q 538 458 534 454 Q 530 450 530 444 Q 530 436 536 426 Q 541 414 544 405 Q 546 395 547 388 Q 548 380 550 355 Q 552 329 552 324 L 551 272 L 551 225 L 550 43 C 550 13 600 18 600 48 Z" fill="lightgray"></path>
    
      <path d="M 550 43 L 518 40 L 467 34 L 412 28 L 361 23 Q 328 20 304 19 L 282 18 Q 270 18 266 12 Q 264 9 264 6 Q 264 3 266 0 Q 270 -7 281 -13 L 316 -34 Q 330 -42 344 -42 Q 352 -42 374 -36 Q 396 -30 427 -24 L 497 -14 Q 536 -8 591 -2 Q 646 3 683 4 Q 720 6 777 6 Q 834 5 850 4 L 886 2 Q 896 1 903 1 Q 924 1 928 7 Q 933 15 933 20 L 933 21 Q 932 26 923 34 Q 914 42 900 51 Q 887 60 870 68 Q 852 76 835 77 Q 824 77 798 72 Q 772 67 761 66 Q 750 64 712 60 Q 674 56 652 54 Q 630 52 600 48 L 550 43 Z" fill="lightgray"></path>
    
    
      <clipPath id="make-me-a-hanzi-clip-0">
        <path d="M 590 588 L 598 602 Q 599 605 600 616 Q 601 623 601 629 Q 601 640 598 649 Q 592 662 584 669 Q 576 676 562 682 Q 549 688 534 692 Q 520 696 510 698 L 496 702 Q 488 703 483 703 Q 478 703 476 702 Q 474 698 474 694 Q 474 690 480 683 L 488 671 Q 492 664 507 643 L 532 610 Q 544 596 549 592 Q 554 588 560 584 C 580 570 580 570 590 588 Z"></path>
      </clipPath>
      <path clip-path="url(#make-me-a-hanzi-clip-0)" d="M 480 697 L 552 646 L 581 598" fill="none" id="make-me-a-hanzi-animation-0" stroke-dasharray="272 544" stroke-linecap="round"></path>
    
      <clipPath id="make-me-a-hanzi-clip-1">
        <path d="M 560 584 L 492 575 L 422 566 L 365 558 Q 322 552 296 549 L 270 546 Q 262 546 256 544 Q 252 544 250 542 Q 249 541 249 539 Q 249 537 252 534 Q 254 530 258 527 Q 262 524 270 519 C 294 502 308 505 338 510 L 372 516 Q 380 516 512 534 Q 645 552 676 554 Q 708 558 736 560 L 778 562 Q 808 564 812 568 Q 816 572 816 577 L 816 579 Q 815 584 805 591 Q 794 598 783 604 Q 771 610 757 614 Q 745 618 736 618 L 732 618 Q 724 618 708 613 Q 691 608 653 599 Q 614 591 606 590 Q 598 588 590 588 L 560 584 Z"></path>
      </clipPath>
      <path clip-path="url(#make-me-a-hanzi-clip-1)" d="M 254 539 L 270 533 L 340 532 L 601 566 L 731 589 L 808 578" fill="none" id="make-me-a-hanzi-animation-1" stroke-dasharray="688 1376" stroke-linecap="round"></path>
    
      <clipPath id="make-me-a-hanzi-clip-2">
        <path d="M 270 519 L 273 508 Q 274 504 275 486 L 276 466 Q 276 455 275 432 L 273 394 Q 270 342 265 306 Q 260 270 246 210 Q 232 149 226 134 Q 220 118 202 77 Q 184 35 179 26 Q 174 18 146 -22 L 118 -61 L 100 -86 Q 96 -91 96 -94 Q 96 -96 97 -97 Q 98 -98 99 -98 Q 103 -98 112 -92 L 133 -76 Q 146 -67 166 -47 Q 186 -28 203 -6 Q 220 16 239 48 Q 257 80 266 101 Q 276 122 288 164 Q 299 206 307 240 Q 314 274 318 298 Q 321 324 325 362 Q 328 402 333 427 Q 337 453 338 463 Q 338 474 343 483 Q 347 493 348 494 Q 348 498 345 502 Q 343 506 338 510 C 324 536 264 548 270 519 Z"></path>
      </clipPath>
      <path clip-path="url(#make-me-a-hanzi-clip-2)" d="M 276 515 L 308 481 L 291 296 L 262 163 L 224 66 L 198 19 L 160 -31 L 100 -94" fill="none" id="make-me-a-hanzi-animation-2" stroke-dasharray="804 1608" stroke-linecap="round"></path>
    
      <clipPath id="make-me-a-hanzi-clip-3">
        <path d="M 603 232 L 623 234 Q 650 237 674 242 L 720 250 L 750 254 Q 764 257 776 260 L 794 266 Q 806 269 807 275 L 807 277 Q 807 281 804 286 Q 799 291 784 296 L 762 305 Q 747 310 736 310 Q 728 310 702 302 Q 678 294 654 290 Q 630 286 623 285 Q 616 284 604 282 L 551 272 L 532 269 Q 488 261 460 258 L 420 255 L 390 252 L 373 250 Q 367 249 366 243 L 366 242 Q 366 237 375 230 Q 384 223 396 220 Q 408 216 422 216 Q 433 214 447 214 Q 468 214 494 218 L 526 222 L 551 225 L 603 232 Z"></path>
      </clipPath>
      <path clip-path="url(#make-me-a-hanzi-clip-3)" d="M 374 243 L 406 235 L 468 236 L 736 281 L 797 276" fill="none" id="make-me-a-hanzi-animation-3" stroke-dasharray="556 1112" stroke-linecap="round"></path>
    
      <clipPath id="make-me-a-hanzi-clip-4">
        <path d="M 600 48 L 603 232 L 604 282 L 604 311 Q 604 326 606 346 Q 607 366 609 380 Q 610 394 616 406 Q 620 418 620 424 Q 619 430 611 436 Q 602 442 593 447 Q 583 452 572 455 Q 561 458 550 458 Q 538 458 534 454 Q 530 450 530 444 Q 530 436 536 426 Q 541 414 544 405 Q 546 395 547 388 Q 548 380 550 355 Q 552 329 552 324 L 551 272 L 551 225 L 550 43 C 550 13 600 18 600 48 Z"></path>
      </clipPath>
      <path clip-path="url(#make-me-a-hanzi-clip-4)" d="M 542 445 L 580 412 L 576 71 L 556 51" fill="none" id="make-me-a-hanzi-animation-4" stroke-dasharray="548 1096" stroke-linecap="round"></path>
    
      <clipPath id="make-me-a-hanzi-clip-5">
        <path d="M 550 43 L 518 40 L 467 34 L 412 28 L 361 23 Q 328 20 304 19 L 282 18 Q 270 18 266 12 Q 264 9 264 6 Q 264 3 266 0 Q 270 -7 281 -13 L 316 -34 Q 330 -42 344 -42 Q 352 -42 374 -36 Q 396 -30 427 -24 L 497 -14 Q 536 -8 591 -2 Q 646 3 683 4 Q 720 6 777 6 Q 834 5 850 4 L 886 2 Q 896 1 903 1 Q 924 1 928 7 Q 933 15 933 20 L 933 21 Q 932 26 923 34 Q 914 42 900 51 Q 887 60 870 68 Q 852 76 835 77 Q 824 77 798 72 Q 772 67 761 66 Q 750 64 712 60 Q 674 56 652 54 Q 630 52 600 48 L 550 43 Z"></path>
      </clipPath>
      <path clip-path="url(#make-me-a-hanzi-clip-5)" d="M 274 6 L 346 -10 L 571 21 L 833 41 L 910 19 L 925 21" fill="none" id="make-me-a-hanzi-animation-5" stroke-dasharray="787 1574" stroke-linecap="round"></path>
    
  </g>
</svg>