<svg version="1.1" viewBox="0 0 1024 1024" xmlns="http://www.w3.org/2000/svg">
  <g stroke="lightgray" stroke-dasharray="1,1" stroke-width="1" transform="scale(4, 4)">
    <line x1="0" y1="0" x2="256" y2="256"></line>
    <line x1="256" y1="0" x2="0" y2="256"></line>
    <line x1="128" y1="0" x2="128" y2="256"></line>
    <line x1="0" y1="128" x2="256" y2="128"></line>
  </g>
  <g transform="scale(1, -1) translate(0, -860)">
    <style type="text/css">
      
        @keyframes keyframes0 {
          from {
            stroke: blue;
            stroke-dashoffset: 722;
            stroke-width: 128;
          }
          70% {
            animation-timing-function: step-end;
            stroke: blue;
            stroke-dashoffset: 0;
            stroke-width: 128;
          }
          to {
            stroke: black;
            stroke-width: 1024;
          }
        }
        #make-me-a-hanzi-animation-0 {
          animation: keyframes0 0.8375651041666666s both;
          animation-delay: 0s;
          animation-timing-function: linear;
        }
      
        @keyframes keyframes1 {
          from {
            stroke: blue;
            stroke-dashoffset: 873;
            stroke-width: 128;
          }
          74% {
            animation-timing-function: step-end;
            stroke: blue;
            stroke-dashoffset: 0;
            stroke-width: 128;
          }
          to {
            stroke: black;
            stroke-width: 1024;
          }
        }
        #make-me-a-hanzi-animation-1 {
          animation: keyframes1 0.96044921875s both;
          animation-delay: 0.8375651041666666s;
          animation-timing-function: linear;
        }
      
        @keyframes keyframes2 {
          from {
            stroke: blue;
            stroke-dashoffset: 717;
            stroke-width: 128;
          }
          70% {
            animation-timing-function: step-end;
            stroke: blue;
            stroke-dashoffset: 0;
            stroke-width: 128;
          }
          to {
            stroke: black;
            stroke-width: 1024;
          }
        }
        #make-me-a-hanzi-animation-2 {
          animation: keyframes2 0.83349609375s both;
          animation-delay: 1.7980143229166665s;
          animation-timing-function: linear;
        }
      
    </style>
    
      <path d="M 540 832 Q 549 804 536 782 Q 496 710 439 645 Q 384 582 312 516 Q 299 506 296 500 Q 292 490 306 489 Q 369 496 543 679 Q 607 751 621 761 Q 633 771 630 786 Q 629 801 601 829 Q 576 853 555 855 Q 536 856 540 832 Z" fill="lightgray"></path>
    
      <path d="M 532 407 Q 628 524 644 536 Q 657 546 653 563 Q 650 579 620 609 Q 592 634 570 636 Q 548 636 555 610 Q 567 571 549 542 Q 458 379 244 178 Q 231 168 228 161 Q 222 148 239 150 Q 308 159 494 364 Q 497 368 500 371 L 532 407 Z" fill="lightgray"></path>
    
      <path d="M 500 371 Q 521 350 517 237 Q 516 137 489 35 Q 474 -14 511 -62 Q 512 -65 516 -68 Q 535 -84 547 -56 Q 562 -14 562 34 Q 566 272 574 325 Q 581 355 555 383 Q 549 389 532 407 C 511 429 485 397 500 371 Z" fill="lightgray"></path>
    
    
      <clipPath id="make-me-a-hanzi-clip-0">
        <path d="M 540 832 Q 549 804 536 782 Q 496 710 439 645 Q 384 582 312 516 Q 299 506 296 500 Q 292 490 306 489 Q 369 496 543 679 Q 607 751 621 761 Q 633 771 630 786 Q 629 801 601 829 Q 576 853 555 855 Q 536 856 540 832 Z"></path>
      </clipPath>
      <path clip-path="url(#make-me-a-hanzi-clip-0)" d="M 553 840 L 569 823 L 580 797 L 583 785 L 572 767 L 514 689 L 451 619 L 373 546 L 305 498" fill="none" id="make-me-a-hanzi-animation-0" stroke-dasharray="594 1188" stroke-linecap="round"></path>
    
      <clipPath id="make-me-a-hanzi-clip-1">
        <path d="M 532 407 Q 628 524 644 536 Q 657 546 653 563 Q 650 579 620 609 Q 592 634 570 636 Q 548 636 555 610 Q 567 571 549 542 Q 458 379 244 178 Q 231 168 228 161 Q 222 148 239 150 Q 308 159 494 364 Q 497 368 500 371 L 532 407 Z"></path>
      </clipPath>
      <path clip-path="url(#make-me-a-hanzi-clip-1)" d="M 568 620 L 586 602 L 604 560 L 560 492 L 403 302 L 313 214 L 238 160" fill="none" id="make-me-a-hanzi-animation-1" stroke-dasharray="745 1490" stroke-linecap="round"></path>
    
      <clipPath id="make-me-a-hanzi-clip-2">
        <path d="M 500 371 Q 521 350 517 237 Q 516 137 489 35 Q 474 -14 511 -62 Q 512 -65 516 -68 Q 535 -84 547 -56 Q 562 -14 562 34 Q 566 272 574 325 Q 581 355 555 383 Q 549 389 532 407 C 511 429 485 397 500 371 Z"></path>
      </clipPath>
      <path clip-path="url(#make-me-a-hanzi-clip-2)" d="M 533 398 L 533 367 L 545 335 L 538 137 L 522 -6 L 528 -59" fill="none" id="make-me-a-hanzi-animation-2" stroke-dasharray="589 1178" stroke-linecap="round"></path>
    
  </g>
</svg>