<svg xmlns="http://www.w3.org/2000/svg" version="1.1" viewBox="0 0 1024 1024">
  <g stroke="lightgray" stroke-dasharray="1,1" stroke-width="1" transform="scale(4, 4)">
    <line x1="0" y1="0" x2="256" y2="256" />
    <line x1="256" y1="0" x2="0" y2="256" />
    <line x1="128" y1="0" x2="128" y2="256" />
    <line x1="0" y1="128" x2="256" y2="128" />
  </g>
  <g transform="scale(1.0, -1.0) translate(0.0, -819.50)">
    <style type="text/css">
      
        @keyframes keyframes0 {
          from {
            stroke: blue;
            stroke-dashoffset: 534;
            stroke-width: 128;
          }
          63% {
            animation-timing-function: step-end;
            stroke: blue;
            stroke-dashoffset: 0;
            stroke-width: 128;
          }
          to {
            stroke: black;
            stroke-width: 1024;
          }
        }
        #make-me-a-hanzi-animation-0 {
          animation: keyframes0 0.6845703125s both;
          animation-delay: 0s;
          animation-timing-function: linear;
        }
      
        @keyframes keyframes1 {
          from {
            stroke: blue;
            stroke-dashoffset: 1156;
            stroke-width: 128;
          }
          79% {
            animation-timing-function: step-end;
            stroke: blue;
            stroke-dashoffset: 0;
            stroke-width: 128;
          }
          to {
            stroke: black;
            stroke-width: 1024;
          }
        }
        #make-me-a-hanzi-animation-1 {
          animation: keyframes1 1.1907552083333333s both;
          animation-delay: 0.6845703125s;
          animation-timing-function: linear;
        }
      
        @keyframes keyframes2 {
          from {
            stroke: blue;
            stroke-dashoffset: 640;
            stroke-width: 128;
          }
          68% {
            animation-timing-function: step-end;
            stroke: blue;
            stroke-dashoffset: 0;
            stroke-width: 128;
          }
          to {
            stroke: black;
            stroke-width: 1024;
          }
        }
        #make-me-a-hanzi-animation-2 {
          animation: keyframes2 0.7708333333333334s both;
          animation-delay: 1.8753255208333333s;
          animation-timing-function: linear;
        }
      
        @keyframes keyframes3 {
          from {
            stroke: blue;
            stroke-dashoffset: 569;
            stroke-width: 128;
          }
          65% {
            animation-timing-function: step-end;
            stroke: blue;
            stroke-dashoffset: 0;
            stroke-width: 128;
          }
          to {
            stroke: black;
            stroke-width: 1024;
          }
        }
        #make-me-a-hanzi-animation-3 {
          animation: keyframes3 0.7130533854166666s both;
          animation-delay: 2.6461588541666665s;
          animation-timing-function: linear;
        }
      
        @keyframes keyframes4 {
          from {
            stroke: blue;
            stroke-dashoffset: 771;
            stroke-width: 128;
          }
          72% {
            animation-timing-function: step-end;
            stroke: blue;
            stroke-dashoffset: 0;
            stroke-width: 128;
          }
          to {
            stroke: black;
            stroke-width: 1024;
          }
        }
        #make-me-a-hanzi-animation-4 {
          animation: keyframes4 0.87744140625s both;
          animation-delay: 3.359212239583333s;
          animation-timing-function: linear;
        }
      
        @keyframes keyframes5 {
          from {
            stroke: blue;
            stroke-dashoffset: 1271;
            stroke-width: 128;
          }
          81% {
            animation-timing-function: step-end;
            stroke: blue;
            stroke-dashoffset: 0;
            stroke-width: 128;
          }
          to {
            stroke: black;
            stroke-width: 1024;
          }
        }
        #make-me-a-hanzi-animation-5 {
          animation: keyframes5 1.2843424479166667s both;
          animation-delay: 4.236653645833333s;
          animation-timing-function: linear;
        }
      
        @keyframes keyframes6 {
          from {
            stroke: blue;
            stroke-dashoffset: 547;
            stroke-width: 128;
          }
          64% {
            animation-timing-function: step-end;
            stroke: blue;
            stroke-dashoffset: 0;
            stroke-width: 128;
          }
          to {
            stroke: black;
            stroke-width: 1024;
          }
        }
        #make-me-a-hanzi-animation-6 {
          animation: keyframes6 0.6951497395833334s both;
          animation-delay: 5.52099609375s;
          animation-timing-function: linear;
        }
      
    </style>
    
      <path d="M 343 448 Q 362 455 386 460 Q 420 470 425 475 Q 432 484 428 492 Q 421 504 390 509 Q 365 513 345 505 L 294 486 Q 216 462 151 451 Q 114 442 142 427 Q 181 406 262 428 Q 277 432 294 435 L 343 448 Z" fill="lightgray" />
    
      <path d="M 292 255 L 292 50 Q 292 26 279 18 Q 270 14 201 31 Q 168 43 171 33 Q 172 26 192 10 Q 256 -42 273 -71 Q 292 -105 308 -107 Q 323 -108 338 -73 Q 356 -27 354 46 Q 345 172 343 296 L 342 327 Q 341 388 343 448 L 345 505 Q 345 596 363 657 Q 379 688 324 709 Q 290 728 271 721 Q 253 714 270 691 Q 291 664 293 630 Q 294 614 294 486 L 294 435 Q 293 377 293 298 L 292 255 Z" fill="lightgray" />
    
      <path d="M 293 298 Q 80 172 78 170 Q 63 163 61 154 Q 60 145 75 132 Q 94 116 118 109 Q 134 105 145 118 Q 203 182 292 255 L 343 296 Q 355 308 368 316 Q 387 329 397 344 Q 403 357 392 356 Q 389 356 342 327 L 293 298 Z" fill="lightgray" />
    
      <path d="M 657 499 Q 805 538 807 539 Q 817 548 811 556 Q 804 568 774 575 Q 743 579 713 567 Q 689 560 667 551 L 616 536 Q 564 526 505 518 Q 468 511 495 494 Q 537 470 598 487 Q 602 488 610 489 L 657 499 Z" fill="lightgray" />
    
      <path d="M 627 346 Q 691 373 910 373 Q 932 373 937 383 Q 943 396 924 409 Q 867 446 830 436 Q 763 417 646 393 Q 640 392 635 390 L 592 382 Q 510 369 420 352 Q 398 348 415 331 Q 451 301 488 314 Q 531 329 582 338 L 627 346 Z" fill="lightgray" />
    
      <path d="M 690 6 Q 724 48 785 132 Q 816 171 835 180 Q 857 190 858 201 Q 858 213 842 225 Q 820 243 795 255 Q 770 265 733 246 Q 669 225 625 219 Q 601 212 607 241 Q 616 293 627 346 L 635 390 Q 645 445 657 499 L 667 551 Q 686 665 708 690 Q 721 706 701 721 Q 677 739 630 755 Q 614 761 605 753 Q 596 746 611 723 Q 635 690 616 536 L 610 489 Q 609 485 609 478 Q 603 433 592 382 L 582 338 Q 558 248 537 226 Q 510 193 536 156 Q 543 144 563 159 Q 612 193 723 206 Q 748 210 747 205 Q 747 199 667 23 C 655 -4 671 -18 690 6 Z" fill="lightgray" />
    
      <path d="M 667 23 Q 651 39 558 95 Q 549 101 547 89 Q 546 76 554 66 Q 629 -10 717 -119 Q 730 -140 745 -145 Q 752 -146 761 -138 Q 774 -126 765 -84 Q 758 -45 690 6 L 667 23 Z" fill="lightgray" />
    
    
      <clipPath id="make-me-a-hanzi-clip-0">
        <path d="M 343 448 Q 362 455 386 460 Q 420 470 425 475 Q 432 484 428 492 Q 421 504 390 509 Q 365 513 345 505 L 294 486 Q 216 462 151 451 Q 114 442 142 427 Q 181 406 262 428 Q 277 432 294 435 L 343 448 Z" />
      </clipPath>
      <path clip-path="url(#make-me-a-hanzi-clip-0)" d="M 143 440 L 213 440 L 369 484 L 415 486" fill="none" id="make-me-a-hanzi-animation-0" stroke-dasharray="406 812" stroke-linecap="round" />
    
      <clipPath id="make-me-a-hanzi-clip-1">
        <path d="M 292 255 L 292 50 Q 292 26 279 18 Q 270 14 201 31 Q 168 43 171 33 Q 172 26 192 10 Q 256 -42 273 -71 Q 292 -105 308 -107 Q 323 -108 338 -73 Q 356 -27 354 46 Q 345 172 343 296 L 342 327 Q 341 388 343 448 L 345 505 Q 345 596 363 657 Q 379 688 324 709 Q 290 728 271 721 Q 253 714 270 691 Q 291 664 293 630 Q 294 614 294 486 L 294 435 Q 293 377 293 298 L 292 255 Z" />
      </clipPath>
      <path clip-path="url(#make-me-a-hanzi-clip-1)" d="M 278 706 L 294 698 L 326 666 L 317 401 L 323 37 L 317 5 L 301 -26 L 258 -11 L 190 23 L 188 30 L 177 31" fill="none" id="make-me-a-hanzi-animation-1" stroke-dasharray="1028 2056" stroke-linecap="round" />
    
      <clipPath id="make-me-a-hanzi-clip-2">
        <path d="M 293 298 Q 80 172 78 170 Q 63 163 61 154 Q 60 145 75 132 Q 94 116 118 109 Q 134 105 145 118 Q 203 182 292 255 L 343 296 Q 355 308 368 316 Q 387 329 397 344 Q 403 357 392 356 Q 389 356 342 327 L 293 298 Z" />
      </clipPath>
      <path clip-path="url(#make-me-a-hanzi-clip-2)" d="M 73 152 L 121 150 L 287 278 L 392 349" fill="none" id="make-me-a-hanzi-animation-2" stroke-dasharray="512 1024" stroke-linecap="round" />
    
      <clipPath id="make-me-a-hanzi-clip-3">
        <path d="M 657 499 Q 805 538 807 539 Q 817 548 811 556 Q 804 568 774 575 Q 743 579 713 567 Q 689 560 667 551 L 616 536 Q 564 526 505 518 Q 468 511 495 494 Q 537 470 598 487 Q 602 488 610 489 L 657 499 Z" />
      </clipPath>
      <path clip-path="url(#make-me-a-hanzi-clip-3)" d="M 497 507 L 556 502 L 666 524 L 765 553 L 803 548" fill="none" id="make-me-a-hanzi-animation-3" stroke-dasharray="441 882" stroke-linecap="round" />
    
      <clipPath id="make-me-a-hanzi-clip-4">
        <path d="M 627 346 Q 691 373 910 373 Q 932 373 937 383 Q 943 396 924 409 Q 867 446 830 436 Q 763 417 646 393 Q 640 392 635 390 L 592 382 Q 510 369 420 352 Q 398 348 415 331 Q 451 301 488 314 Q 531 329 582 338 L 627 346 Z" />
      </clipPath>
      <path clip-path="url(#make-me-a-hanzi-clip-4)" d="M 418 341 L 475 336 L 659 377 L 841 405 L 889 400 L 924 389" fill="none" id="make-me-a-hanzi-animation-4" stroke-dasharray="643 1286" stroke-linecap="round" />
    
      <clipPath id="make-me-a-hanzi-clip-5">
        <path d="M 690 6 Q 724 48 785 132 Q 816 171 835 180 Q 857 190 858 201 Q 858 213 842 225 Q 820 243 795 255 Q 770 265 733 246 Q 669 225 625 219 Q 601 212 607 241 Q 616 293 627 346 L 635 390 Q 645 445 657 499 L 667 551 Q 686 665 708 690 Q 721 706 701 721 Q 677 739 630 755 Q 614 761 605 753 Q 596 746 611 723 Q 635 690 616 536 L 610 489 Q 609 485 609 478 Q 603 433 592 382 L 582 338 Q 558 248 537 226 Q 510 193 536 156 Q 543 144 563 159 Q 612 193 723 206 Q 748 210 747 205 Q 747 199 667 23 C 655 -4 671 -18 690 6 Z" />
      </clipPath>
      <path clip-path="url(#make-me-a-hanzi-clip-5)" d="M 615 744 L 663 696 L 629 464 L 573 208 L 623 202 L 751 230 L 780 221 L 792 205 L 688 30 L 688 15" fill="none" id="make-me-a-hanzi-animation-5" stroke-dasharray="1143 2286" stroke-linecap="round" />
    
      <clipPath id="make-me-a-hanzi-clip-6">
        <path d="M 667 23 Q 651 39 558 95 Q 549 101 547 89 Q 546 76 554 66 Q 629 -10 717 -119 Q 730 -140 745 -145 Q 752 -146 761 -138 Q 774 -126 765 -84 Q 758 -45 690 6 L 667 23 Z" />
      </clipPath>
      <path clip-path="url(#make-me-a-hanzi-clip-6)" d="M 557 84 L 713 -59 L 739 -98 L 746 -130" fill="none" id="make-me-a-hanzi-animation-6" stroke-dasharray="419 838" stroke-linecap="round" />
    
  </g>
</svg>