<svg version="1.1" viewBox="0 0 1024 1024" xmlns="http://www.w3.org/2000/svg">
  <g stroke="lightgray" stroke-dasharray="1,1" stroke-width="1" transform="scale(4, 4)">
    <line x1="0" y1="0" x2="256" y2="256"></line>
    <line x1="256" y1="0" x2="0" y2="256"></line>
    <line x1="128" y1="0" x2="128" y2="256"></line>
    <line x1="0" y1="128" x2="256" y2="128"></line>
  </g>
  <g transform="scale(0.92, -0.92) translate(60, -830)">
    <style type="text/css">
      
        @keyframes keyframes0 {
          from {
            stroke: blue;
            stroke-dashoffset: 491;
            stroke-width: 128;
          }
          62% {
            animation-timing-function: step-end;
            stroke: blue;
            stroke-dashoffset: 0;
            stroke-width: 128;
          }
          to {
            stroke: black;
            stroke-width: 1024;
          }
        }
        #make-me-a-hanzi-animation-0 {
          animation: keyframes0 0.6495768229166666s both;
          animation-delay: 0s;
          animation-timing-function: linear;
        }
      
        @keyframes keyframes1 {
          from {
            stroke: blue;
            stroke-dashoffset: 787;
            stroke-width: 128;
          }
          72% {
            animation-timing-function: step-end;
            stroke: blue;
            stroke-dashoffset: 0;
            stroke-width: 128;
          }
          to {
            stroke: black;
            stroke-width: 1024;
          }
        }
        #make-me-a-hanzi-animation-1 {
          animation: keyframes1 0.8904622395833334s both;
          animation-delay: 0.6495768229166666s;
          animation-timing-function: linear;
        }
      
        @keyframes keyframes2 {
          from {
            stroke: blue;
            stroke-dashoffset: 496;
            stroke-width: 128;
          }
          62% {
            animation-timing-function: step-end;
            stroke: blue;
            stroke-dashoffset: 0;
            stroke-width: 128;
          }
          to {
            stroke: black;
            stroke-width: 1024;
          }
        }
        #make-me-a-hanzi-animation-2 {
          animation: keyframes2 0.6536458333333334s both;
          animation-delay: 1.5400390625s;
          animation-timing-function: linear;
        }
      
        @keyframes keyframes3 {
          from {
            stroke: blue;
            stroke-dashoffset: 635;
            stroke-width: 128;
          }
          67% {
            animation-timing-function: step-end;
            stroke: blue;
            stroke-dashoffset: 0;
            stroke-width: 128;
          }
          to {
            stroke: black;
            stroke-width: 1024;
          }
        }
        #make-me-a-hanzi-animation-3 {
          animation: keyframes3 0.7667643229166666s both;
          animation-delay: 2.1936848958333335s;
          animation-timing-function: linear;
        }
      
        @keyframes keyframes4 {
          from {
            stroke: blue;
            stroke-dashoffset: 505;
            stroke-width: 128;
          }
          62% {
            animation-timing-function: step-end;
            stroke: blue;
            stroke-dashoffset: 0;
            stroke-width: 128;
          }
          to {
            stroke: black;
            stroke-width: 1024;
          }
        }
        #make-me-a-hanzi-animation-4 {
          animation: keyframes4 0.6609700520833334s both;
          animation-delay: 2.96044921875s;
          animation-timing-function: linear;
        }
      
        @keyframes keyframes5 {
          from {
            stroke: blue;
            stroke-dashoffset: 909;
            stroke-width: 128;
          }
          75% {
            animation-timing-function: step-end;
            stroke: blue;
            stroke-dashoffset: 0;
            stroke-width: 128;
          }
          to {
            stroke: black;
            stroke-width: 1024;
          }
        }
        #make-me-a-hanzi-animation-5 {
          animation: keyframes5 0.98974609375s both;
          animation-delay: 3.6214192708333335s;
          animation-timing-function: linear;
        }
      
        @keyframes keyframes6 {
          from {
            stroke: blue;
            stroke-dashoffset: 579;
            stroke-width: 128;
          }
          65% {
            animation-timing-function: step-end;
            stroke: blue;
            stroke-dashoffset: 0;
            stroke-width: 128;
          }
          to {
            stroke: black;
            stroke-width: 1024;
          }
        }
        #make-me-a-hanzi-animation-6 {
          animation: keyframes6 0.72119140625s both;
          animation-delay: 4.611165364583334s;
          animation-timing-function: linear;
        }
      
        @keyframes keyframes7 {
          from {
            stroke: blue;
            stroke-dashoffset: 751;
            stroke-width: 128;
          }
          71% {
            animation-timing-function: step-end;
            stroke: blue;
            stroke-dashoffset: 0;
            stroke-width: 128;
          }
          to {
            stroke: black;
            stroke-width: 1024;
          }
        }
        #make-me-a-hanzi-animation-7 {
          animation: keyframes7 0.8611653645833334s both;
          animation-delay: 5.332356770833334s;
          animation-timing-function: linear;
        }
      
    </style>
    
      <path d="M 250 511 L 296 533 Q 334 555 360 574 Q 396 607 426 616 Q 448 624 448 631 L 448 634 Q 448 644 436 649 Q 412 660 368 666 L 360 666 Q 348 666 340 664 Q 336 661 336 654 L 336 643 Q 336 632 330 622 Q 319 606 298 582 Q 272 555 236 524 C 213 504 223 498 250 511 Z" fill="lightgray"></path>
    
      <path d="M 248 415 Q 250 441 250 463 L 252 488 Q 255 495 255 500 Q 255 507 250 511 L 236 524 Q 222 535 204 541 Q 193 544 185 544 Q 177 544 172 541 Q 165 536 165 530 Q 165 526 168 522 Q 174 515 180 506 Q 186 498 186 485 Q 189 463 190 439 Q 193 398 193 362 Q 193 343 192 326 Q 188 270 178 227 Q 164 165 142 114 L 116 56 Q 110 48 110 42 Q 110 35 115 35 Q 117 35 119 36 Q 128 39 140 55 Q 152 67 160 79 Q 190 120 212 177 Q 230 229 238 287 Q 248 340 248 391 L 248 415 Z" fill="lightgray"></path>
    
      <path d="M 390 405 Q 423 414 458 421 Q 490 430 494 434 Q 499 440 499 445 Q 499 447 498 448 Q 490 459 466 463 Q 458 464 450 464 Q 431 464 414 456 Q 378 442 340 432 Q 296 421 248 415 C 218 411 221 404 248 391 Q 258 385 270 384 L 281 384 Q 298 384 320 388 Q 332 392 344 395 L 390 405 Z" fill="lightgray"></path>
    
      <path d="M 358 161 Q 357 137 357 118 Q 357 80 360 64 Q 362 41 370 32 Q 373 28 376 28 Q 378 28 380 29 Q 388 33 392 45 Q 398 59 402 87 Q 408 126 408 165 Q 408 198 414 324 L 418 346 Q 420 359 422 366 L 422 370 Q 422 383 412 391 Q 399 401 390 405 C 364 420 331 422 344 395 L 344 394 Q 348 387 350 383 Q 358 370 358 354 L 358 161 Z" fill="lightgray"></path>
    
      <path d="M 598 530 Q 618 536 646 546 Q 690 563 720 581 Q 762 610 796 616 Q 820 621 822 630 L 822 633 Q 822 642 810 650 Q 786 665 740 677 Q 729 680 720 680 Q 715 680 710 679 Q 704 677 704 668 L 704 663 Q 704 648 692 635 Q 681 619 654 597 Q 624 573 584 546 C 559 529 569 521 598 530 Z" fill="lightgray"></path>
    
      <path d="M 590 418 Q 592 452 592 486 Q 596 507 598 516 L 598 530 C 599 540 599 540 584 546 L 582 547 Q 538 566 522 566 L 518 566 Q 508 563 508 556 Q 508 550 516 540 Q 534 517 534 474 Q 535 448 535 408 Q 535 368 534 315 Q 534 245 498 155 Q 474 95 420 38 Q 404 20 390 5 Q 376 -8 372 -14 L 372 -16 Q 372 -21 382 -21 Q 398 -20 418 -5 Q 463 26 488 56 Q 528 101 550 152 Q 572 205 582 277 Q 588 325 588 385 L 590 418 Z" fill="lightgray"></path>
    
      <path d="M 744 407 Q 752 410 762 410 Q 832 424 898 434 Q 914 437 914 444 Q 914 457 890 472 Q 878 480 866 483 Q 856 486 846 486 Q 833 486 822 481 Q 747 450 692 440 Q 640 430 590 418 C 561 411 559 392 588 385 Q 592 383 594 383 Q 600 382 607 382 Q 618 382 632 384 L 690 397 L 744 407 Z" fill="lightgray"></path>
    
      <path d="M 712 79 Q 714 -20 716 -53 Q 720 -79 728 -88 Q 733 -92 738 -92 Q 740 -92 742 -91 Q 750 -88 754 -73 Q 760 -58 762 -25 Q 768 31 768 83 Q 767 98 767 128 Q 767 188 770 306 Q 772 327 772 337 Q 776 353 778 365 L 778 370 Q 778 384 768 392 L 744 407 C 719 423 677 424 690 397 Q 690 395 692 394 L 698 380 Q 710 364 710 340 Q 712 238 712 79 Z" fill="lightgray"></path>
    
    
      <clipPath id="make-me-a-hanzi-clip-0">
        <path d="M 250 511 L 296 533 Q 334 555 360 574 Q 396 607 426 616 Q 448 624 448 631 L 448 634 Q 448 644 436 649 Q 412 660 368 666 L 360 666 Q 348 666 340 664 Q 336 661 336 654 L 336 643 Q 336 632 330 622 Q 319 606 298 582 Q 272 555 236 524 C 213 504 223 498 250 511 Z"></path>
      </clipPath>
      <path clip-path="url(#make-me-a-hanzi-clip-0)" d="M 438 633 L 371 629 L 340 591 L 295 552 L 253 524 L 244 526" fill="none" id="make-me-a-hanzi-animation-0" stroke-dasharray="363 726" stroke-linecap="round"></path>
    
      <clipPath id="make-me-a-hanzi-clip-1">
        <path d="M 248 415 Q 250 441 250 463 L 252 488 Q 255 495 255 500 Q 255 507 250 511 L 236 524 Q 222 535 204 541 Q 193 544 185 544 Q 177 544 172 541 Q 165 536 165 530 Q 165 526 168 522 Q 174 515 180 506 Q 186 498 186 485 Q 189 463 190 439 Q 193 398 193 362 Q 193 343 192 326 Q 188 270 178 227 Q 164 165 142 114 L 116 56 Q 110 48 110 42 Q 110 35 115 35 Q 117 35 119 36 Q 128 39 140 55 Q 152 67 160 79 Q 190 120 212 177 Q 230 229 238 287 Q 248 340 248 391 L 248 415 Z"></path>
      </clipPath>
      <path clip-path="url(#make-me-a-hanzi-clip-1)" d="M 177 530 L 201 517 L 219 494 L 219 328 L 189 177 L 152 94 L 116 41" fill="none" id="make-me-a-hanzi-animation-1" stroke-dasharray="659 1318" stroke-linecap="round"></path>
    
      <clipPath id="make-me-a-hanzi-clip-2">
        <path d="M 390 405 Q 423 414 458 421 Q 490 430 494 434 Q 499 440 499 445 Q 499 447 498 448 Q 490 459 466 463 Q 458 464 450 464 Q 431 464 414 456 Q 378 442 340 432 Q 296 421 248 415 C 218 411 221 404 248 391 Q 258 385 270 384 L 281 384 Q 298 384 320 388 Q 332 392 344 395 L 390 405 Z"></path>
      </clipPath>
      <path clip-path="url(#make-me-a-hanzi-clip-2)" d="M 257 409 L 264 401 L 298 403 L 436 440 L 488 443" fill="none" id="make-me-a-hanzi-animation-2" stroke-dasharray="368 736" stroke-linecap="round"></path>
    
      <clipPath id="make-me-a-hanzi-clip-3">
        <path d="M 358 161 Q 357 137 357 118 Q 357 80 360 64 Q 362 41 370 32 Q 373 28 376 28 Q 378 28 380 29 Q 388 33 392 45 Q 398 59 402 87 Q 408 126 408 165 Q 408 198 414 324 L 418 346 Q 420 359 422 366 L 422 370 Q 422 383 412 391 Q 399 401 390 405 C 364 420 331 422 344 395 L 344 394 Q 348 387 350 383 Q 358 370 358 354 L 358 161 Z"></path>
      </clipPath>
      <path clip-path="url(#make-me-a-hanzi-clip-3)" d="M 352 395 L 385 374 L 389 357 L 376 35" fill="none" id="make-me-a-hanzi-animation-3" stroke-dasharray="507 1014" stroke-linecap="round"></path>
    
      <clipPath id="make-me-a-hanzi-clip-4">
        <path d="M 598 530 Q 618 536 646 546 Q 690 563 720 581 Q 762 610 796 616 Q 820 621 822 630 L 822 633 Q 822 642 810 650 Q 786 665 740 677 Q 729 680 720 680 Q 715 680 710 679 Q 704 677 704 668 L 704 663 Q 704 648 692 635 Q 681 619 654 597 Q 624 573 584 546 C 559 529 569 521 598 530 Z"></path>
      </clipPath>
      <path clip-path="url(#make-me-a-hanzi-clip-4)" d="M 812 632 L 784 638 L 737 635 L 659 573 L 602 544 L 593 547" fill="none" id="make-me-a-hanzi-animation-4" stroke-dasharray="377 754" stroke-linecap="round"></path>
    
      <clipPath id="make-me-a-hanzi-clip-5">
        <path d="M 590 418 Q 592 452 592 486 Q 596 507 598 516 L 598 530 C 599 540 599 540 584 546 L 582 547 Q 538 566 522 566 L 518 566 Q 508 563 508 556 Q 508 550 516 540 Q 534 517 534 474 Q 535 448 535 408 Q 535 368 534 315 Q 534 245 498 155 Q 474 95 420 38 Q 404 20 390 5 Q 376 -8 372 -14 L 372 -16 Q 372 -21 382 -21 Q 398 -20 418 -5 Q 463 26 488 56 Q 528 101 550 152 Q 572 205 582 277 Q 588 325 588 385 L 590 418 Z"></path>
      </clipPath>
      <path clip-path="url(#make-me-a-hanzi-clip-5)" d="M 519 555 L 564 517 L 560 300 L 549 229 L 520 144 L 478 75 L 430 23 L 379 -15" fill="none" id="make-me-a-hanzi-animation-5" stroke-dasharray="781 1562" stroke-linecap="round"></path>
    
      <clipPath id="make-me-a-hanzi-clip-6">
        <path d="M 744 407 Q 752 410 762 410 Q 832 424 898 434 Q 914 437 914 444 Q 914 457 890 472 Q 878 480 866 483 Q 856 486 846 486 Q 833 486 822 481 Q 747 450 692 440 Q 640 430 590 418 C 561 411 559 392 588 385 Q 592 383 594 383 Q 600 382 607 382 Q 618 382 632 384 L 690 397 L 744 407 Z"></path>
      </clipPath>
      <path clip-path="url(#make-me-a-hanzi-clip-6)" d="M 593 390 L 616 404 L 765 434 L 837 455 L 863 456 L 905 446" fill="none" id="make-me-a-hanzi-animation-6" stroke-dasharray="451 902" stroke-linecap="round"></path>
    
      <clipPath id="make-me-a-hanzi-clip-7">
        <path d="M 712 79 Q 714 -20 716 -53 Q 720 -79 728 -88 Q 733 -92 738 -92 Q 740 -92 742 -91 Q 750 -88 754 -73 Q 760 -58 762 -25 Q 768 31 768 83 Q 767 98 767 128 Q 767 188 770 306 Q 772 327 772 337 Q 776 353 778 365 L 778 370 Q 778 384 768 392 L 744 407 C 719 423 677 424 690 397 Q 690 395 692 394 L 698 380 Q 710 364 710 340 Q 712 238 712 79 Z"></path>
      </clipPath>
      <path clip-path="url(#make-me-a-hanzi-clip-7)" d="M 701 390 L 728 379 L 743 365 L 737 -80" fill="none" id="make-me-a-hanzi-animation-7" stroke-dasharray="623 1246" stroke-linecap="round"></path>
    
  </g>
</svg>