<svg version="1.1" viewBox="0 0 1024 1024" xmlns="http://www.w3.org/2000/svg">
  <g stroke="lightgray" stroke-dasharray="1,1" stroke-width="1" transform="scale(4, 4)">
    <line x1="0" y1="0" x2="256" y2="256"></line>
    <line x1="256" y1="0" x2="0" y2="256"></line>
    <line x1="128" y1="0" x2="128" y2="256"></line>
    <line x1="0" y1="128" x2="256" y2="128"></line>
  </g>
  <g transform="scale(1, -1) translate(0, -860)">
    <style type="text/css">
      
        @keyframes keyframes0 {
          from {
            stroke: blue;
            stroke-dashoffset: 421;
            stroke-width: 128;
          }
          58% {
            animation-timing-function: step-end;
            stroke: blue;
            stroke-dashoffset: 0;
            stroke-width: 128;
          }
          to {
            stroke: black;
            stroke-width: 1024;
          }
        }
        #make-me-a-hanzi-animation-0 {
          animation: keyframes0 0.5926106770833334s both;
          animation-delay: 0s;
          animation-timing-function: linear;
        }
      
        @keyframes keyframes1 {
          from {
            stroke: blue;
            stroke-dashoffset: 710;
            stroke-width: 128;
          }
          70% {
            animation-timing-function: step-end;
            stroke: blue;
            stroke-dashoffset: 0;
            stroke-width: 128;
          }
          to {
            stroke: black;
            stroke-width: 1024;
          }
        }
        #make-me-a-hanzi-animation-1 {
          animation: keyframes1 0.8277994791666666s both;
          animation-delay: 0.5926106770833334s;
          animation-timing-function: linear;
        }
      
        @keyframes keyframes2 {
          from {
            stroke: blue;
            stroke-dashoffset: 830;
            stroke-width: 128;
          }
          73% {
            animation-timing-function: step-end;
            stroke: blue;
            stroke-dashoffset: 0;
            stroke-width: 128;
          }
          to {
            stroke: black;
            stroke-width: 1024;
          }
        }
        #make-me-a-hanzi-animation-2 {
          animation: keyframes2 0.9254557291666666s both;
          animation-delay: 1.42041015625s;
          animation-timing-function: linear;
        }
      
        @keyframes keyframes3 {
          from {
            stroke: blue;
            stroke-dashoffset: 757;
            stroke-width: 128;
          }
          71% {
            animation-timing-function: step-end;
            stroke: blue;
            stroke-dashoffset: 0;
            stroke-width: 128;
          }
          to {
            stroke: black;
            stroke-width: 1024;
          }
        }
        #make-me-a-hanzi-animation-3 {
          animation: keyframes3 0.8660481770833334s both;
          animation-delay: 2.3458658854166665s;
          animation-timing-function: linear;
        }
      
        @keyframes keyframes4 {
          from {
            stroke: blue;
            stroke-dashoffset: 657;
            stroke-width: 128;
          }
          68% {
            animation-timing-function: step-end;
            stroke: blue;
            stroke-dashoffset: 0;
            stroke-width: 128;
          }
          to {
            stroke: black;
            stroke-width: 1024;
          }
        }
        #make-me-a-hanzi-animation-4 {
          animation: keyframes4 0.78466796875s both;
          animation-delay: 3.2119140625s;
          animation-timing-function: linear;
        }
      
        @keyframes keyframes5 {
          from {
            stroke: blue;
            stroke-dashoffset: 536;
            stroke-width: 128;
          }
          64% {
            animation-timing-function: step-end;
            stroke: blue;
            stroke-dashoffset: 0;
            stroke-width: 128;
          }
          to {
            stroke: black;
            stroke-width: 1024;
          }
        }
        #make-me-a-hanzi-animation-5 {
          animation: keyframes5 0.6861979166666666s both;
          animation-delay: 3.99658203125s;
          animation-timing-function: linear;
        }
      
        @keyframes keyframes6 {
          from {
            stroke: blue;
            stroke-dashoffset: 406;
            stroke-width: 128;
          }
          57% {
            animation-timing-function: step-end;
            stroke: blue;
            stroke-dashoffset: 0;
            stroke-width: 128;
          }
          to {
            stroke: black;
            stroke-width: 1024;
          }
        }
        #make-me-a-hanzi-animation-6 {
          animation: keyframes6 0.5804036458333334s both;
          animation-delay: 4.682779947916667s;
          animation-timing-function: linear;
        }
      
        @keyframes keyframes7 {
          from {
            stroke: blue;
            stroke-dashoffset: 475;
            stroke-width: 128;
          }
          61% {
            animation-timing-function: step-end;
            stroke: blue;
            stroke-dashoffset: 0;
            stroke-width: 128;
          }
          to {
            stroke: black;
            stroke-width: 1024;
          }
        }
        #make-me-a-hanzi-animation-7 {
          animation: keyframes7 0.6365559895833334s both;
          animation-delay: 5.26318359375s;
          animation-timing-function: linear;
        }
      
    </style>
    
      <path d="M 396 498 L 402 530 Q 404 540 397 561 Q 390 581 380 593 Q 369 604 345 618 Q 321 632 308 635 L 289 640 Q 284 642 281 639 Q 278 635 280 628 L 284 615 Q 286 604 303 571 L 318 537 Q 322 528 332 512 L 354 489 C 375 467 390 469 396 498 Z" fill="lightgray"></path>
    
      <path d="M 350 444 L 402 455 Q 476 472 484 472 L 538 478 L 561 482 Q 572 482 576 492 Q 579 501 558 512 Q 537 523 520 523 Q 503 523 478 516 L 396 498 L 354 489 L 260 468 Q 180 453 143 448 L 124 446 Q 113 445 113 438 Q 111 431 126 421 Q 140 411 161 406 Q 181 400 191 400 Q 201 400 217 406 L 237 414 Q 249 419 259 420 L 304 433 L 350 444 Z" fill="lightgray"></path>
    
      <path d="M 512 296 L 503 312 L 482 334 Q 476 341 470 343 Q 463 344 427 344 Q 391 344 372 349 L 351 353 C 322 359 317 346 343 332 L 356 324 L 416 308 Q 435 302 436 284 Q 437 276 432 255 L 419 185 L 398 114 Q 385 53 371 40 Q 355 27 343 26 Q 330 24 314 34 Q 298 44 292 46 L 276 53 Q 270 55 268 53 Q 265 50 268 46 L 279 35 Q 288 19 295 13 Q 301 6 305 -6 Q 309 -18 313 -24 L 323 -47 Q 326 -55 333 -59 Q 339 -63 364 -51 Q 389 -40 411 -2 Q 432 35 442 65 Q 451 94 470 167 L 485 229 Q 500 270 503 273 L 511 284 Q 514 289 512 296 Z" fill="lightgray"></path>
    
      <path d="M 351 353 L 363 374 Q 369 391 376 398 Q 382 404 382 406 Q 387 422 371 430 L 350 444 C 325 461 304 463 304 433 L 304 410 Q 304 381 289 332 Q 234 173 124 64 Q 100 40 99 38 L 88 26 Q 83 21 86 18 Q 89 14 96 18 L 107 26 L 138 42 Q 176 65 204 92 Q 251 138 316 273 L 343 332 L 351 353 Z" fill="lightgray"></path>
    
      <path d="M 653 443 Q 687 496 715 558 Q 736 595 743 602 Q 751 614 747 625 Q 739 639 712 656 Q 684 673 667 672 Q 649 671 659 650 Q 669 629 665 612 Q 638 518 612 469 Q 586 420 535 345 Q 521 322 528 316 Q 534 310 572 344 Q 609 377 637 420 L 653 443 Z" fill="lightgray"></path>
    
      <path d="M 752 454 L 653 443 C 623 440 613 438 637 420 Q 649 409 671 406 Q 694 400 728 406 L 886 431 Q 921 438 928 442 Q 938 451 932 458 Q 924 471 894 478 Q 863 485 839 474 Q 823 470 752 454 Z" fill="lightgray"></path>
    
      <path d="M 657 293 L 667 280 Q 688 251 704 232 Q 720 213 744 194 Q 767 175 782 184 Q 796 192 798 216 Q 801 240 791 255 Q 784 271 765 278 Q 702 306 684 306 L 665 309 Q 654 311 652 305 Q 651 304 657 293 Z" fill="lightgray"></path>
    
      <path d="M 631 100 L 643 85 Q 658 67 670 51 L 708 -2 Q 763 -72 784 -65 Q 793 -62 801 -43 Q 808 -25 797 16 Q 785 64 660 106 L 640 112 Q 631 114 630 110 Q 623 106 631 100 Z" fill="lightgray"></path>
    
    
      <clipPath id="make-me-a-hanzi-clip-0">
        <path d="M 396 498 L 402 530 Q 404 540 397 561 Q 390 581 380 593 Q 369 604 345 618 Q 321 632 308 635 L 289 640 Q 284 642 281 639 Q 278 635 280 628 L 284 615 Q 286 604 303 571 L 318 537 Q 322 528 332 512 L 354 489 C 375 467 390 469 396 498 Z"></path>
      </clipPath>
      <path clip-path="url(#make-me-a-hanzi-clip-0)" d="M 286 633 L 335 585 L 366 527 L 387 505" fill="none" id="make-me-a-hanzi-animation-0" stroke-dasharray="293 586" stroke-linecap="round"></path>
    
      <clipPath id="make-me-a-hanzi-clip-1">
        <path d="M 350 444 L 402 455 Q 476 472 484 472 L 538 478 L 561 482 Q 572 482 576 492 Q 579 501 558 512 Q 537 523 520 523 Q 503 523 478 516 L 396 498 L 354 489 L 260 468 Q 180 453 143 448 L 124 446 Q 113 445 113 438 Q 111 431 126 421 Q 140 411 161 406 Q 181 400 191 400 Q 201 400 217 406 L 237 414 Q 249 419 259 420 L 304 433 L 350 444 Z"></path>
      </clipPath>
      <path clip-path="url(#make-me-a-hanzi-clip-1)" d="M 122 437 L 149 429 L 193 428 L 476 494 L 524 500 L 566 494" fill="none" id="make-me-a-hanzi-animation-1" stroke-dasharray="582 1164" stroke-linecap="round"></path>
    
      <clipPath id="make-me-a-hanzi-clip-2">
        <path d="M 512 296 L 503 312 L 482 334 Q 476 341 470 343 Q 463 344 427 344 Q 391 344 372 349 L 351 353 C 322 359 317 346 343 332 L 356 324 L 416 308 Q 435 302 436 284 Q 437 276 432 255 L 419 185 L 398 114 Q 385 53 371 40 Q 355 27 343 26 Q 330 24 314 34 Q 298 44 292 46 L 276 53 Q 270 55 268 53 Q 265 50 268 46 L 279 35 Q 288 19 295 13 Q 301 6 305 -6 Q 309 -18 313 -24 L 323 -47 Q 326 -55 333 -59 Q 339 -63 364 -51 Q 389 -40 411 -2 Q 432 35 442 65 Q 451 94 470 167 L 485 229 Q 500 270 503 273 L 511 284 Q 514 289 512 296 Z"></path>
      </clipPath>
      <path clip-path="url(#make-me-a-hanzi-clip-2)" d="M 355 345 L 360 337 L 454 316 L 472 293 L 415 68 L 391 19 L 351 -13 L 272 50" fill="none" id="make-me-a-hanzi-animation-2" stroke-dasharray="702 1404" stroke-linecap="round"></path>
    
      <clipPath id="make-me-a-hanzi-clip-3">
        <path d="M 351 353 L 363 374 Q 369 391 376 398 Q 382 404 382 406 Q 387 422 371 430 L 350 444 C 325 461 304 463 304 433 L 304 410 Q 304 381 289 332 Q 234 173 124 64 Q 100 40 99 38 L 88 26 Q 83 21 86 18 Q 89 14 96 18 L 107 26 L 138 42 Q 176 65 204 92 Q 251 138 316 273 L 343 332 L 351 353 Z"></path>
      </clipPath>
      <path clip-path="url(#make-me-a-hanzi-clip-3)" d="M 313 427 L 339 406 L 336 394 L 292 273 L 250 191 L 186 102 L 91 21" fill="none" id="make-me-a-hanzi-animation-3" stroke-dasharray="629 1258" stroke-linecap="round"></path>
    
      <clipPath id="make-me-a-hanzi-clip-4">
        <path d="M 653 443 Q 687 496 715 558 Q 736 595 743 602 Q 751 614 747 625 Q 739 639 712 656 Q 684 673 667 672 Q 649 671 659 650 Q 669 629 665 612 Q 638 518 612 469 Q 586 420 535 345 Q 521 322 528 316 Q 534 310 572 344 Q 609 377 637 420 L 653 443 Z"></path>
      </clipPath>
      <path clip-path="url(#make-me-a-hanzi-clip-4)" d="M 667 660 L 701 623 L 699 599 L 649 486 L 615 426 L 531 322" fill="none" id="make-me-a-hanzi-animation-4" stroke-dasharray="529 1058" stroke-linecap="round"></path>
    
      <clipPath id="make-me-a-hanzi-clip-5">
        <path d="M 752 454 L 653 443 C 623 440 613 438 637 420 Q 649 409 671 406 Q 694 400 728 406 L 886 431 Q 921 438 928 442 Q 938 451 932 458 Q 924 471 894 478 Q 863 485 839 474 Q 823 470 752 454 Z"></path>
      </clipPath>
      <path clip-path="url(#make-me-a-hanzi-clip-5)" d="M 646 423 L 747 431 L 862 454 L 923 452" fill="none" id="make-me-a-hanzi-animation-5" stroke-dasharray="408 816" stroke-linecap="round"></path>
    
      <clipPath id="make-me-a-hanzi-clip-6">
        <path d="M 657 293 L 667 280 Q 688 251 704 232 Q 720 213 744 194 Q 767 175 782 184 Q 796 192 798 216 Q 801 240 791 255 Q 784 271 765 278 Q 702 306 684 306 L 665 309 Q 654 311 652 305 Q 651 304 657 293 Z"></path>
      </clipPath>
      <path clip-path="url(#make-me-a-hanzi-clip-6)" d="M 660 301 L 754 238 L 771 205" fill="none" id="make-me-a-hanzi-animation-6" stroke-dasharray="278 556" stroke-linecap="round"></path>
    
      <clipPath id="make-me-a-hanzi-clip-7">
        <path d="M 631 100 L 643 85 Q 658 67 670 51 L 708 -2 Q 763 -72 784 -65 Q 793 -62 801 -43 Q 808 -25 797 16 Q 785 64 660 106 L 640 112 Q 631 114 630 110 Q 623 106 631 100 Z"></path>
      </clipPath>
      <path clip-path="url(#make-me-a-hanzi-clip-7)" d="M 636 106 L 666 88 L 743 22 L 756 6 L 780 -51" fill="none" id="make-me-a-hanzi-animation-7" stroke-dasharray="347 694" stroke-linecap="round"></path>
    
  </g>
</svg>