<svg xmlns="http://www.w3.org/2000/svg" version="1.1" viewBox="0 0 1024 1024">
  <g stroke="lightgray" stroke-dasharray="1,1" stroke-width="1" transform="scale(4, 4)">
    <line x1="0" y1="0" x2="256" y2="256" />
    <line x1="256" y1="0" x2="0" y2="256" />
    <line x1="128" y1="0" x2="128" y2="256" />
    <line x1="0" y1="128" x2="256" y2="128" />
  </g>
  <g transform="scale(1.0, -1.0) translate(0.0, -795.00)">
    <style type="text/css">
      
        @keyframes keyframes0 {
          from {
            stroke: blue;
            stroke-dashoffset: 406;
            stroke-width: 128;
          }
          57% {
            animation-timing-function: step-end;
            stroke: blue;
            stroke-dashoffset: 0;
            stroke-width: 128;
          }
          to {
            stroke: black;
            stroke-width: 1024;
          }
        }
        #make-me-a-hanzi-animation-0 {
          animation: keyframes0 0.5804036458333334s both;
          animation-delay: 0s;
          animation-timing-function: linear;
        }
      
        @keyframes keyframes1 {
          from {
            stroke: blue;
            stroke-dashoffset: 628;
            stroke-width: 128;
          }
          67% {
            animation-timing-function: step-end;
            stroke: blue;
            stroke-dashoffset: 0;
            stroke-width: 128;
          }
          to {
            stroke: black;
            stroke-width: 1024;
          }
        }
        #make-me-a-hanzi-animation-1 {
          animation: keyframes1 0.7610677083333334s both;
          animation-delay: 0.5804036458333334s;
          animation-timing-function: linear;
        }
      
        @keyframes keyframes2 {
          from {
            stroke: blue;
            stroke-dashoffset: 838;
            stroke-width: 128;
          }
          73% {
            animation-timing-function: step-end;
            stroke: blue;
            stroke-dashoffset: 0;
            stroke-width: 128;
          }
          to {
            stroke: black;
            stroke-width: 1024;
          }
        }
        #make-me-a-hanzi-animation-2 {
          animation: keyframes2 0.9319661458333334s both;
          animation-delay: 1.3414713541666667s;
          animation-timing-function: linear;
        }
      
        @keyframes keyframes3 {
          from {
            stroke: blue;
            stroke-dashoffset: 754;
            stroke-width: 128;
          }
          71% {
            animation-timing-function: step-end;
            stroke: blue;
            stroke-dashoffset: 0;
            stroke-width: 128;
          }
          to {
            stroke: black;
            stroke-width: 1024;
          }
        }
        #make-me-a-hanzi-animation-3 {
          animation: keyframes3 0.8636067708333334s both;
          animation-delay: 2.2734375s;
          animation-timing-function: linear;
        }
      
        @keyframes keyframes4 {
          from {
            stroke: blue;
            stroke-dashoffset: 600;
            stroke-width: 128;
          }
          66% {
            animation-timing-function: step-end;
            stroke: blue;
            stroke-dashoffset: 0;
            stroke-width: 128;
          }
          to {
            stroke: black;
            stroke-width: 1024;
          }
        }
        #make-me-a-hanzi-animation-4 {
          animation: keyframes4 0.73828125s both;
          animation-delay: 3.1370442708333335s;
          animation-timing-function: linear;
        }
      
        @keyframes keyframes5 {
          from {
            stroke: blue;
            stroke-dashoffset: 560;
            stroke-width: 128;
          }
          65% {
            animation-timing-function: step-end;
            stroke: blue;
            stroke-dashoffset: 0;
            stroke-width: 128;
          }
          to {
            stroke: black;
            stroke-width: 1024;
          }
        }
        #make-me-a-hanzi-animation-5 {
          animation: keyframes5 0.7057291666666666s both;
          animation-delay: 3.8753255208333335s;
          animation-timing-function: linear;
        }
      
        @keyframes keyframes6 {
          from {
            stroke: blue;
            stroke-dashoffset: 791;
            stroke-width: 128;
          }
          72% {
            animation-timing-function: step-end;
            stroke: blue;
            stroke-dashoffset: 0;
            stroke-width: 128;
          }
          to {
            stroke: black;
            stroke-width: 1024;
          }
        }
        #make-me-a-hanzi-animation-6 {
          animation: keyframes6 0.8937174479166666s both;
          animation-delay: 4.5810546875s;
          animation-timing-function: linear;
        }
      
        @keyframes keyframes7 {
          from {
            stroke: blue;
            stroke-dashoffset: 1068;
            stroke-width: 128;
          }
          78% {
            animation-timing-function: step-end;
            stroke: blue;
            stroke-dashoffset: 0;
            stroke-width: 128;
          }
          to {
            stroke: black;
            stroke-width: 1024;
          }
        }
        #make-me-a-hanzi-animation-7 {
          animation: keyframes7 1.119140625s both;
          animation-delay: 5.474772135416667s;
          animation-timing-function: linear;
        }
      
        @keyframes keyframes8 {
          from {
            stroke: blue;
            stroke-dashoffset: 365;
            stroke-width: 128;
          }
          54% {
            animation-timing-function: step-end;
            stroke: blue;
            stroke-dashoffset: 0;
            stroke-width: 128;
          }
          to {
            stroke: black;
            stroke-width: 1024;
          }
        }
        #make-me-a-hanzi-animation-8 {
          animation: keyframes8 0.5470377604166666s both;
          animation-delay: 6.593912760416667s;
          animation-timing-function: linear;
        }
      
        @keyframes keyframes9 {
          from {
            stroke: blue;
            stroke-dashoffset: 817;
            stroke-width: 128;
          }
          73% {
            animation-timing-function: step-end;
            stroke: blue;
            stroke-dashoffset: 0;
            stroke-width: 128;
          }
          to {
            stroke: black;
            stroke-width: 1024;
          }
        }
        #make-me-a-hanzi-animation-9 {
          animation: keyframes9 0.9148763020833334s both;
          animation-delay: 7.140950520833334s;
          animation-timing-function: linear;
        }
      
    </style>
    
      <path d="M 335 502 L 339 514 Q 343 526 343 537 Q 343 544 341 550 Q 338 561 331 569 Q 325 577 312 584 L 292 593 Q 285 596 266 602 Q 247 609 241 610 L 217 616 L 215 616 Q 210 616 208 613 Q 207 611 207 609 Q 207 606 210 602 L 222 584 Q 229 573 245 552 L 268 521 Q 275 511 280 506 Q 284 501 295 491 C 317 471 326 474 335 502 Z" fill="lightgray" />
    
      <path d="M 305 454 L 319 457 Q 411 478 425 482 Q 439 486 447 486 L 466 489 Q 478 490 478 496 L 478 497 Q 478 503 466 510 Q 454 520 439 524 Q 425 528 418 528 Q 411 527 394 520 Q 377 514 363 510 Q 349 505 335 502 L 295 491 L 271 485 L 243 479 L 197 469 L 155 462 Q 127 458 121 458 L 111 456 Q 101 456 99 449 L 99 446 Q 99 441 103 436 Q 108 430 119 424 Q 131 420 140 418 Q 149 416 163 416 Q 179 416 185 417 Q 192 418 211 425 Q 230 432 238 434 L 261 442 L 305 454 Z" fill="lightgray" />
    
      <path d="M 417 177 L 421 194 Q 430 226 435 238 Q 441 248 448 258 Q 455 267 457 270 Q 457 276 451 285 Q 445 294 431 310 Q 416 328 407 330 Q 404 331 399 331 Q 394 331 387 330 Q 378 329 369 329 L 361 329 Q 349 329 336 330 L 316 333 Q 310 334 301 336 C 272 342 258 311 287 305 L 293 304 Q 297 303 319 298 Q 340 294 350 290 Q 359 286 365 281 Q 371 276 374 265 Q 375 261 375 256 Q 375 243 370 223 L 355 158 Q 353 152 337 101 Q 321 50 304 25 Q 287 0 275 0 Q 263 0 243 12 L 217 28 Q 212 31 208 31 Q 207 31 205 30 Q 202 29 202 26 Q 202 24 205 20 L 220 -3 Q 231 -22 241 -47 Q 250 -73 253 -77 Q 257 -82 263 -84 Q 266 -85 269 -85 Q 280 -85 299 -74 Q 325 -60 344 -30 Q 363 1 373 30 L 393 90 Q 402 120 405 132 Q 409 144 413 161 L 417 177 Z" fill="lightgray" />
    
      <path d="M 301 336 L 307 350 L 313 363 Q 318 372 323 380 Q 327 388 335 396 Q 344 404 344 409 L 344 410 Q 344 414 340 420 Q 336 428 331 433 Q 326 438 319 443 Q 311 448 305 454 C 282 473 260 472 261 442 L 262 422 Q 262 414 256 391 Q 251 367 241 341 Q 231 314 211 272 Q 191 230 166 190 Q 141 150 113 117 Q 85 84 71 69 L 51 48 Q 42 39 42 32 Q 42 30 43 29 Q 44 26 47 26 Q 51 26 57 30 L 85 48 Q 108 62 139 88 Q 170 115 199 157 Q 229 200 250 238 Q 272 276 277 286 Q 283 297 287 305 L 301 336 Z" fill="lightgray" />
    
      <path d="M 587 529 L 609 571 Q 635 620 642 631 Q 649 642 656 650 Q 663 658 664 663 L 664 665 Q 664 669 661 674 Q 657 680 650 686 Q 643 692 634 697 Q 625 702 608 710 Q 601 713 595 713 Q 592 713 590 712 Q 583 710 582 705 Q 581 702 581 696 L 581 684 Q 581 676 580 664 Q 577 646 575 637 Q 573 628 567 608 L 549 556 L 531 510 Q 517 480 514 473 Q 511 466 489 426 L 479 408 Q 476 401 476 397 Q 476 393 478 391 Q 480 389 482 389 Q 487 389 494 396 L 509 412 L 535 441 L 556 470 Q 565 483 579 505 L 587 529 Z" fill="lightgray" />
    
      <path d="M 579 505 L 597 501 Q 612 497 623 497 L 627 497 Q 640 497 669 504 Q 697 511 741 519 Q 784 526 800 529 L 859 536 L 882 539 Q 891 540 893 547 Q 893 554 886 560 Q 879 567 860 575 Q 841 584 829 584 Q 819 584 805 582 L 745 565 L 587 529 C 558 522 550 512 579 505 Z" fill="lightgray" />
    
      <path d="M 546 147 L 535 105 Q 533 94 519 56 Q 506 17 483 -18 Q 461 -52 448 -66 L 429 -87 Q 425 -91 425 -94 Q 425 -98 428 -101 Q 431 -104 435 -104 Q 439 -104 443 -101 L 470 -81 Q 483 -71 511 -39 Q 539 -7 560 44 Q 581 96 586 120 Q 592 144 595 155 L 601 195 L 603 215 Q 605 226 607 254 Q 611 282 612 313 Q 614 343 615 365 C 616 383 616 383 603 386 L 573 394 Q 564 397 558 397 Q 549 397 547 391 Q 546 389 546 387 Q 546 384 548 379 L 553 366 Q 557 358 559 344 Q 562 330 563 310 L 563 295 Q 563 272 561 249 Q 557 217 557 210 Q 555 202 553 190 L 546 147 Z" fill="lightgray" />
    
      <path d="M 775 174 L 773 7 Q 773 -20 771 -35 Q 769 -50 759 -54 Q 755 -57 749 -57 Q 746 -57 743 -56 Q 733 -54 707 -46 L 677 -38 Q 674 -37 672 -37 Q 668 -37 665 -40 Q 663 -42 663 -43 Q 663 -46 667 -49 L 705 -80 Q 711 -86 726 -104 L 749 -130 Q 757 -139 764 -143 Q 769 -147 775 -147 Q 777 -147 779 -146 Q 791 -146 805 -127 Q 820 -108 827 -68 Q 833 -36 833 -10 L 833 -2 L 831 39 L 831 176 L 831 222 L 832 302 Q 832 326 836 343 Q 840 360 845 370 Q 851 381 851 384 Q 851 393 827 409 L 804 424 Q 793 431 785 432 Q 777 432 760 424 Q 743 416 715 410 Q 686 403 677 401 L 603 386 C 574 380 585 360 615 365 L 687 376 L 737 382 Q 750 385 758 385 Q 765 385 767 382 Q 773 378 775 371 Q 777 364 777 343 L 777 313 L 776 216 L 775 174 Z" fill="lightgray" />
    
      <path d="M 645 305 Q 647 301 659 284 Q 670 268 679 257 Q 688 246 696 241 Q 706 233 713 233 L 715 233 Q 722 234 727 242 Q 733 248 735 262 Q 735 278 732 288 Q 729 297 722 303 Q 715 308 706 312 Q 697 316 682 320 Q 668 324 663 326 L 651 329 Q 645 331 641 331 Q 637 331 636 329 Q 634 327 634 324 L 634 322 Q 634 318 638 314 L 645 305 Z" fill="lightgray" />
    
      <path d="M 413 161 L 427 151 Q 435 144 443 141 Q 451 137 464 134 Q 477 130 481 130 Q 486 130 497 134 Q 507 138 519 141 Q 531 144 546 147 L 595 155 L 633 161 Q 673 167 719 170 Q 764 172 775 174 L 831 176 L 852 178 L 909 180 L 935 182 Q 971 182 979 189 Q 987 196 988 200 Q 988 204 981 210 Q 973 216 955 224 Q 937 232 927 235 Q 917 238 906 239 Q 897 239 877 233 Q 855 226 847 225 Q 839 224 831 222 L 776 216 L 735 211 L 693 206 Q 670 204 651 202 Q 631 199 601 195 L 553 190 L 535 187 Q 521 185 481 182 Q 441 179 417 177 C 393 175 393 175 413 161 Z" fill="lightgray" />
    
    
      <clipPath id="make-me-a-hanzi-clip-0">
        <path d="M 335 502 L 339 514 Q 343 526 343 537 Q 343 544 341 550 Q 338 561 331 569 Q 325 577 312 584 L 292 593 Q 285 596 266 602 Q 247 609 241 610 L 217 616 L 215 616 Q 210 616 208 613 Q 207 611 207 609 Q 207 606 210 602 L 222 584 Q 229 573 245 552 L 268 521 Q 275 511 280 506 Q 284 501 295 491 C 317 471 326 474 335 502 Z" />
      </clipPath>
      <path clip-path="url(#make-me-a-hanzi-clip-0)" d="M 214 609 L 302 542 L 306 530 L 299 504" fill="none" id="make-me-a-hanzi-animation-0" stroke-dasharray="278 556" stroke-linecap="round" />
    
      <clipPath id="make-me-a-hanzi-clip-1">
        <path d="M 305 454 L 319 457 Q 411 478 425 482 Q 439 486 447 486 L 466 489 Q 478 490 478 496 L 478 497 Q 478 503 466 510 Q 454 520 439 524 Q 425 528 418 528 Q 411 527 394 520 Q 377 514 363 510 Q 349 505 335 502 L 295 491 L 271 485 L 243 479 L 197 469 L 155 462 Q 127 458 121 458 L 111 456 Q 101 456 99 449 L 99 446 Q 99 441 103 436 Q 108 430 119 424 Q 131 420 140 418 Q 149 416 163 416 Q 179 416 185 417 Q 192 418 211 425 Q 230 432 238 434 L 261 442 L 305 454 Z" />
      </clipPath>
      <path clip-path="url(#make-me-a-hanzi-clip-1)" d="M 108 448 L 140 439 L 179 441 L 420 505 L 470 497" fill="none" id="make-me-a-hanzi-animation-1" stroke-dasharray="500 1000" stroke-linecap="round" />
    
      <clipPath id="make-me-a-hanzi-clip-2">
        <path d="M 417 177 L 421 194 Q 430 226 435 238 Q 441 248 448 258 Q 455 267 457 270 Q 457 276 451 285 Q 445 294 431 310 Q 416 328 407 330 Q 404 331 399 331 Q 394 331 387 330 Q 378 329 369 329 L 361 329 Q 349 329 336 330 L 316 333 Q 310 334 301 336 C 272 342 258 311 287 305 L 293 304 Q 297 303 319 298 Q 340 294 350 290 Q 359 286 365 281 Q 371 276 374 265 Q 375 261 375 256 Q 375 243 370 223 L 355 158 Q 353 152 337 101 Q 321 50 304 25 Q 287 0 275 0 Q 263 0 243 12 L 217 28 Q 212 31 208 31 Q 207 31 205 30 Q 202 29 202 26 Q 202 24 205 20 L 220 -3 Q 231 -22 241 -47 Q 250 -73 253 -77 Q 257 -82 263 -84 Q 266 -85 269 -85 Q 280 -85 299 -74 Q 325 -60 344 -30 Q 363 1 373 30 L 393 90 Q 402 120 405 132 Q 409 144 413 161 L 417 177 Z" />
      </clipPath>
      <path clip-path="url(#make-me-a-hanzi-clip-2)" d="M 291 309 L 319 316 L 385 302 L 400 294 L 412 273 L 381 146 L 349 46 L 327 3 L 303 -27 L 280 -39 L 208 25" fill="none" id="make-me-a-hanzi-animation-2" stroke-dasharray="710 1420" stroke-linecap="round" />
    
      <clipPath id="make-me-a-hanzi-clip-3">
        <path d="M 301 336 L 307 350 L 313 363 Q 318 372 323 380 Q 327 388 335 396 Q 344 404 344 409 L 344 410 Q 344 414 340 420 Q 336 428 331 433 Q 326 438 319 443 Q 311 448 305 454 C 282 473 260 472 261 442 L 262 422 Q 262 414 256 391 Q 251 367 241 341 Q 231 314 211 272 Q 191 230 166 190 Q 141 150 113 117 Q 85 84 71 69 L 51 48 Q 42 39 42 32 Q 42 30 43 29 Q 44 26 47 26 Q 51 26 57 30 L 85 48 Q 108 62 139 88 Q 170 115 199 157 Q 229 200 250 238 Q 272 276 277 286 Q 283 297 287 305 L 301 336 Z" />
      </clipPath>
      <path clip-path="url(#make-me-a-hanzi-clip-3)" d="M 270 437 L 298 411 L 234 259 L 186 177 L 149 127 L 49 33" fill="none" id="make-me-a-hanzi-animation-3" stroke-dasharray="626 1252" stroke-linecap="round" />
    
      <clipPath id="make-me-a-hanzi-clip-4">
        <path d="M 587 529 L 609 571 Q 635 620 642 631 Q 649 642 656 650 Q 663 658 664 663 L 664 665 Q 664 669 661 674 Q 657 680 650 686 Q 643 692 634 697 Q 625 702 608 710 Q 601 713 595 713 Q 592 713 590 712 Q 583 710 582 705 Q 581 702 581 696 L 581 684 Q 581 676 580 664 Q 577 646 575 637 Q 573 628 567 608 L 549 556 L 531 510 Q 517 480 514 473 Q 511 466 489 426 L 479 408 Q 476 401 476 397 Q 476 393 478 391 Q 480 389 482 389 Q 487 389 494 396 L 509 412 L 535 441 L 556 470 Q 565 483 579 505 L 587 529 Z" />
      </clipPath>
      <path clip-path="url(#make-me-a-hanzi-clip-4)" d="M 594 699 L 618 663 L 616 656 L 549 497 L 483 396" fill="none" id="make-me-a-hanzi-animation-4" stroke-dasharray="472 944" stroke-linecap="round" />
    
      <clipPath id="make-me-a-hanzi-clip-5">
        <path d="M 579 505 L 597 501 Q 612 497 623 497 L 627 497 Q 640 497 669 504 Q 697 511 741 519 Q 784 526 800 529 L 859 536 L 882 539 Q 891 540 893 547 Q 893 554 886 560 Q 879 567 860 575 Q 841 584 829 584 Q 819 584 805 582 L 745 565 L 587 529 C 558 522 550 512 579 505 Z" />
      </clipPath>
      <path clip-path="url(#make-me-a-hanzi-clip-5)" d="M 585 510 L 599 517 L 656 522 L 814 557 L 883 550" fill="none" id="make-me-a-hanzi-animation-5" stroke-dasharray="432 864" stroke-linecap="round" />
    
      <clipPath id="make-me-a-hanzi-clip-6">
        <path d="M 546 147 L 535 105 Q 533 94 519 56 Q 506 17 483 -18 Q 461 -52 448 -66 L 429 -87 Q 425 -91 425 -94 Q 425 -98 428 -101 Q 431 -104 435 -104 Q 439 -104 443 -101 L 470 -81 Q 483 -71 511 -39 Q 539 -7 560 44 Q 581 96 586 120 Q 592 144 595 155 L 601 195 L 603 215 Q 605 226 607 254 Q 611 282 612 313 Q 614 343 615 365 C 616 383 616 383 603 386 L 573 394 Q 564 397 558 397 Q 549 397 547 391 Q 546 389 546 387 Q 546 384 548 379 L 553 366 Q 557 358 559 344 Q 562 330 563 310 L 563 295 Q 563 272 561 249 Q 557 217 557 210 Q 555 202 553 190 L 546 147 Z" />
      </clipPath>
      <path clip-path="url(#make-me-a-hanzi-clip-6)" d="M 557 386 L 584 362 L 588 322 L 580 212 L 561 112 L 515 -3 L 465 -68 L 434 -94" fill="none" id="make-me-a-hanzi-animation-6" stroke-dasharray="663 1326" stroke-linecap="round" />
    
      <clipPath id="make-me-a-hanzi-clip-7">
        <path d="M 775 174 L 773 7 Q 773 -20 771 -35 Q 769 -50 759 -54 Q 755 -57 749 -57 Q 746 -57 743 -56 Q 733 -54 707 -46 L 677 -38 Q 674 -37 672 -37 Q 668 -37 665 -40 Q 663 -42 663 -43 Q 663 -46 667 -49 L 705 -80 Q 711 -86 726 -104 L 749 -130 Q 757 -139 764 -143 Q 769 -147 775 -147 Q 777 -147 779 -146 Q 791 -146 805 -127 Q 820 -108 827 -68 Q 833 -36 833 -10 L 833 -2 L 831 39 L 831 176 L 831 222 L 832 302 Q 832 326 836 343 Q 840 360 845 370 Q 851 381 851 384 Q 851 393 827 409 L 804 424 Q 793 431 785 432 Q 777 432 760 424 Q 743 416 715 410 Q 686 403 677 401 L 603 386 C 574 380 585 360 615 365 L 687 376 L 737 382 Q 750 385 758 385 Q 765 385 767 382 Q 773 378 775 371 Q 777 364 777 343 L 777 313 L 776 216 L 775 174 Z" />
      </clipPath>
      <path clip-path="url(#make-me-a-hanzi-clip-7)" d="M 611 384 L 621 377 L 776 405 L 786 403 L 810 377 L 804 321 L 803 -6 L 793 -70 L 775 -94 L 742 -83 L 668 -44" fill="none" id="make-me-a-hanzi-animation-7" stroke-dasharray="940 1880" stroke-linecap="round" />
    
      <clipPath id="make-me-a-hanzi-clip-8">
        <path d="M 645 305 Q 647 301 659 284 Q 670 268 679 257 Q 688 246 696 241 Q 706 233 713 233 L 715 233 Q 722 234 727 242 Q 733 248 735 262 Q 735 278 732 288 Q 729 297 722 303 Q 715 308 706 312 Q 697 316 682 320 Q 668 324 663 326 L 651 329 Q 645 331 641 331 Q 637 331 636 329 Q 634 327 634 324 L 634 322 Q 634 318 638 314 L 645 305 Z" />
      </clipPath>
      <path clip-path="url(#make-me-a-hanzi-clip-8)" d="M 641 324 L 700 280 L 714 247" fill="none" id="make-me-a-hanzi-animation-8" stroke-dasharray="237 474" stroke-linecap="round" />
    
      <clipPath id="make-me-a-hanzi-clip-9">
        <path d="M 413 161 L 427 151 Q 435 144 443 141 Q 451 137 464 134 Q 477 130 481 130 Q 486 130 497 134 Q 507 138 519 141 Q 531 144 546 147 L 595 155 L 633 161 Q 673 167 719 170 Q 764 172 775 174 L 831 176 L 852 178 L 909 180 L 935 182 Q 971 182 979 189 Q 987 196 988 200 Q 988 204 981 210 Q 973 216 955 224 Q 937 232 927 235 Q 917 238 906 239 Q 897 239 877 233 Q 855 226 847 225 Q 839 224 831 222 L 776 216 L 735 211 L 693 206 Q 670 204 651 202 Q 631 199 601 195 L 553 190 L 535 187 Q 521 185 481 182 Q 441 179 417 177 C 393 175 393 175 413 161 Z" />
      </clipPath>
      <path clip-path="url(#make-me-a-hanzi-clip-9)" d="M 420 163 L 481 156 L 673 186 L 901 209 L 977 200" fill="none" id="make-me-a-hanzi-animation-9" stroke-dasharray="689 1378" stroke-linecap="round" />
    
  </g>
</svg>