<svg xmlns="http://www.w3.org/2000/svg" version="1.1" viewBox="0 0 1024 1024">
  <g stroke="lightgray" stroke-dasharray="1,1" stroke-width="1" transform="scale(4, 4)">
    <line x1="0" y1="0" x2="256" y2="256" />
    <line x1="256" y1="0" x2="0" y2="256" />
    <line x1="128" y1="0" x2="128" y2="256" />
    <line x1="0" y1="128" x2="256" y2="128" />
  </g>
  <g transform="scale(1.0, -1.0) translate(0.0, -784.50)">
    <style type="text/css">
      
        @keyframes keyframes0 {
          from {
            stroke: blue;
            stroke-dashoffset: 793;
            stroke-width: 128;
          }
          72% {
            animation-timing-function: step-end;
            stroke: blue;
            stroke-dashoffset: 0;
            stroke-width: 128;
          }
          to {
            stroke: black;
            stroke-width: 1024;
          }
        }
        #make-me-a-hanzi-animation-0 {
          animation: keyframes0 0.8953450520833334s both;
          animation-delay: 0s;
          animation-timing-function: linear;
        }
      
        @keyframes keyframes1 {
          from {
            stroke: blue;
            stroke-dashoffset: 945;
            stroke-width: 128;
          }
          75% {
            animation-timing-function: step-end;
            stroke: blue;
            stroke-dashoffset: 0;
            stroke-width: 128;
          }
          to {
            stroke: black;
            stroke-width: 1024;
          }
        }
        #make-me-a-hanzi-animation-1 {
          animation: keyframes1 1.01904296875s both;
          animation-delay: 0.8953450520833334s;
          animation-timing-function: linear;
        }
      
        @keyframes keyframes2 {
          from {
            stroke: blue;
            stroke-dashoffset: 361;
            stroke-width: 128;
          }
          54% {
            animation-timing-function: step-end;
            stroke: blue;
            stroke-dashoffset: 0;
            stroke-width: 128;
          }
          to {
            stroke: black;
            stroke-width: 1024;
          }
        }
        #make-me-a-hanzi-animation-2 {
          animation: keyframes2 0.5437825520833334s both;
          animation-delay: 1.9143880208333335s;
          animation-timing-function: linear;
        }
      
        @keyframes keyframes3 {
          from {
            stroke: blue;
            stroke-dashoffset: 370;
            stroke-width: 128;
          }
          55% {
            animation-timing-function: step-end;
            stroke: blue;
            stroke-dashoffset: 0;
            stroke-width: 128;
          }
          to {
            stroke: black;
            stroke-width: 1024;
          }
        }
        #make-me-a-hanzi-animation-3 {
          animation: keyframes3 0.5511067708333334s both;
          animation-delay: 2.458170572916667s;
          animation-timing-function: linear;
        }
      
        @keyframes keyframes4 {
          from {
            stroke: blue;
            stroke-dashoffset: 385;
            stroke-width: 128;
          }
          56% {
            animation-timing-function: step-end;
            stroke: blue;
            stroke-dashoffset: 0;
            stroke-width: 128;
          }
          to {
            stroke: black;
            stroke-width: 1024;
          }
        }
        #make-me-a-hanzi-animation-4 {
          animation: keyframes4 0.5633138020833334s both;
          animation-delay: 3.0092773437500004s;
          animation-timing-function: linear;
        }
      
        @keyframes keyframes5 {
          from {
            stroke: blue;
            stroke-dashoffset: 542;
            stroke-width: 128;
          }
          64% {
            animation-timing-function: step-end;
            stroke: blue;
            stroke-dashoffset: 0;
            stroke-width: 128;
          }
          to {
            stroke: black;
            stroke-width: 1024;
          }
        }
        #make-me-a-hanzi-animation-5 {
          animation: keyframes5 0.6910807291666666s both;
          animation-delay: 3.572591145833334s;
          animation-timing-function: linear;
        }
      
        @keyframes keyframes6 {
          from {
            stroke: blue;
            stroke-dashoffset: 410;
            stroke-width: 128;
          }
          57% {
            animation-timing-function: step-end;
            stroke: blue;
            stroke-dashoffset: 0;
            stroke-width: 128;
          }
          to {
            stroke: black;
            stroke-width: 1024;
          }
        }
        #make-me-a-hanzi-animation-6 {
          animation: keyframes6 0.5836588541666666s both;
          animation-delay: 4.263671875000001s;
          animation-timing-function: linear;
        }
      
        @keyframes keyframes7 {
          from {
            stroke: blue;
            stroke-dashoffset: 509;
            stroke-width: 128;
          }
          62% {
            animation-timing-function: step-end;
            stroke: blue;
            stroke-dashoffset: 0;
            stroke-width: 128;
          }
          to {
            stroke: black;
            stroke-width: 1024;
          }
        }
        #make-me-a-hanzi-animation-7 {
          animation: keyframes7 0.6642252604166666s both;
          animation-delay: 4.847330729166668s;
          animation-timing-function: linear;
        }
      
        @keyframes keyframes8 {
          from {
            stroke: blue;
            stroke-dashoffset: 401;
            stroke-width: 128;
          }
          57% {
            animation-timing-function: step-end;
            stroke: blue;
            stroke-dashoffset: 0;
            stroke-width: 128;
          }
          to {
            stroke: black;
            stroke-width: 1024;
          }
        }
        #make-me-a-hanzi-animation-8 {
          animation: keyframes8 0.5763346354166666s both;
          animation-delay: 5.511555989583335s;
          animation-timing-function: linear;
        }
      
        @keyframes keyframes9 {
          from {
            stroke: blue;
            stroke-dashoffset: 567;
            stroke-width: 128;
          }
          65% {
            animation-timing-function: step-end;
            stroke: blue;
            stroke-dashoffset: 0;
            stroke-width: 128;
          }
          to {
            stroke: black;
            stroke-width: 1024;
          }
        }
        #make-me-a-hanzi-animation-9 {
          animation: keyframes9 0.71142578125s both;
          animation-delay: 6.087890625000002s;
          animation-timing-function: linear;
        }
      
        @keyframes keyframes10 {
          from {
            stroke: blue;
            stroke-dashoffset: 623;
            stroke-width: 128;
          }
          67% {
            animation-timing-function: step-end;
            stroke: blue;
            stroke-dashoffset: 0;
            stroke-width: 128;
          }
          to {
            stroke: black;
            stroke-width: 1024;
          }
        }
        #make-me-a-hanzi-animation-10 {
          animation: keyframes10 0.7569986979166666s both;
          animation-delay: 6.799316406250002s;
          animation-timing-function: linear;
        }
      
        @keyframes keyframes11 {
          from {
            stroke: blue;
            stroke-dashoffset: 569;
            stroke-width: 128;
          }
          65% {
            animation-timing-function: step-end;
            stroke: blue;
            stroke-dashoffset: 0;
            stroke-width: 128;
          }
          to {
            stroke: black;
            stroke-width: 1024;
          }
        }
        #make-me-a-hanzi-animation-11 {
          animation: keyframes11 0.7130533854166666s both;
          animation-delay: 7.556315104166669s;
          animation-timing-function: linear;
        }
      
        @keyframes keyframes12 {
          from {
            stroke: blue;
            stroke-dashoffset: 686;
            stroke-width: 128;
          }
          69% {
            animation-timing-function: step-end;
            stroke: blue;
            stroke-dashoffset: 0;
            stroke-width: 128;
          }
          to {
            stroke: black;
            stroke-width: 1024;
          }
        }
        #make-me-a-hanzi-animation-12 {
          animation: keyframes12 0.8082682291666666s both;
          animation-delay: 8.269368489583336s;
          animation-timing-function: linear;
        }
      
        @keyframes keyframes13 {
          from {
            stroke: blue;
            stroke-dashoffset: 511;
            stroke-width: 128;
          }
          62% {
            animation-timing-function: step-end;
            stroke: blue;
            stroke-dashoffset: 0;
            stroke-width: 128;
          }
          to {
            stroke: black;
            stroke-width: 1024;
          }
        }
        #make-me-a-hanzi-animation-13 {
          animation: keyframes13 0.6658528645833334s both;
          animation-delay: 9.077636718750002s;
          animation-timing-function: linear;
        }
      
        @keyframes keyframes14 {
          from {
            stroke: blue;
            stroke-dashoffset: 792;
            stroke-width: 128;
          }
          72% {
            animation-timing-function: step-end;
            stroke: blue;
            stroke-dashoffset: 0;
            stroke-width: 128;
          }
          to {
            stroke: black;
            stroke-width: 1024;
          }
        }
        #make-me-a-hanzi-animation-14 {
          animation: keyframes14 0.89453125s both;
          animation-delay: 9.743489583333336s;
          animation-timing-function: linear;
        }
      
        @keyframes keyframes15 {
          from {
            stroke: blue;
            stroke-dashoffset: 745;
            stroke-width: 128;
          }
          71% {
            animation-timing-function: step-end;
            stroke: blue;
            stroke-dashoffset: 0;
            stroke-width: 128;
          }
          to {
            stroke: black;
            stroke-width: 1024;
          }
        }
        #make-me-a-hanzi-animation-15 {
          animation: keyframes15 0.8562825520833334s both;
          animation-delay: 10.638020833333336s;
          animation-timing-function: linear;
        }
      
    </style>
    
      <path d="M 113 556 L 95 560 Q 90 562 78 563 L 73 563 Q 65 563 63 560 Q 61 557 61 554 L 61 552 Q 63 548 68 536 Q 74 524 76 511 Q 79 498 79 484 Q 80 469 80 441 Q 81 413 81 400 L 75 243 Q 74 223 71 191 Q 69 159 66 134 Q 63 108 63 97 Q 63 82 65 72 Q 67 62 73 48 Q 79 34 85 28 Q 89 22 94 22 Q 98 22 102 27 Q 107 32 110 43 L 111 80 L 121 305 L 123 334 L 126 532 C 126 553 126 553 113 556 Z" fill="lightgray" />
    
      <path d="M 203 57 L 211 38 L 223 10 Q 228 2 235 2 L 238 2 Q 243 2 251 8 Q 260 16 268 31 Q 276 46 280 71 Q 282 84 282 107 L 282 124 Q 281 160 280 200 L 280 258 L 281 434 Q 281 460 282 472 Q 283 484 284 500 Q 285 516 288 524 Q 290 532 294 540 L 299 550 Q 299 556 291 565 Q 283 574 272 582 Q 261 590 251 594 Q 243 597 238 597 L 235 597 Q 229 596 219 591 Q 207 586 185 578 Q 163 570 151 566 L 113 556 C 84 548 97 523 126 532 L 151 540 L 185 547 Q 203 551 211 552 Q 217 553 220 553 Q 226 553 228 551 Q 232 548 233 537 Q 235 526 235 503 L 237 342 L 235 320 L 235 188 Q 235 163 233 149 Q 233 134 231 113 Q 229 92 225 90 C 217 61 195 76 203 57 Z" fill="lightgray" />
    
      <path d="M 121 305 L 151 305 Q 161 305 170 306 Q 183 308 200 312 L 235 320 C 264 327 265 331 237 342 L 215 351 Q 211 353 202 353 L 196 353 Q 191 352 180 350 Q 170 346 156 343 Q 141 340 123 334 C 94 325 91 305 121 305 Z" fill="lightgray" />
    
      <path d="M 110 43 L 133 46 Q 141 46 163 50 L 203 57 C 233 62 255 86 225 90 Q 222 90 215 92 Q 208 95 202 96 Q 199 97 195 97 L 192 97 L 177 94 L 111 80 C 82 74 80 39 110 43 Z" fill="lightgray" />
    
      <path d="M 479 570 L 485 584 L 490 604 Q 492 616 492 624 L 492 628 Q 490 636 482 644 Q 474 652 455 662 Q 435 672 424 675 L 405 680 Q 398 682 394 682 Q 390 682 389 680 L 389 678 Q 389 675 391 670 L 400 650 Q 401 645 415 622 L 435 588 Q 439 580 450 566 C 468 543 468 543 479 570 Z" fill="lightgray" />
    
      <path d="M 450 566 L 424 561 Q 418 560 390 555 Q 363 550 355 550 L 325 545 Q 314 543 312 539 L 312 538 Q 312 534 320 527 Q 330 519 351 517 Q 366 516 378 516 L 389 516 Q 397 516 425 520 L 475 527 Q 491 529 525 536 Q 560 542 574 547 L 600 555 Q 611 558 611 564 L 611 565 Q 611 570 603 575 Q 593 582 579 586 Q 565 590 559 591 Q 551 591 536 587 L 509 578 Q 499 576 479 570 L 450 566 Z" fill="lightgray" />
    
      <path d="M 377 445 L 358 450 Q 343 454 336 455 Q 325 455 323 451 L 323 449 Q 323 446 327 440 L 336 428 Q 337 426 342 415 Q 347 404 347 402 L 361 338 Q 361 334 365 324 Q 367 314 371 310 Q 378 301 382 301 L 383 301 Q 389 302 392 306 Q 395 310 400 316 C 401 318 399 314 394 344 L 382 420 C 378 445 378 445 377 445 Z" fill="lightgray" />
    
      <path d="M 541 362 L 550 392 Q 555 407 558 415 Q 561 423 565 428 Q 569 434 575 439 Q 581 445 583 448 Q 583 454 575 462 Q 567 470 557 476 Q 547 482 537 486 Q 530 488 525 488 L 521 488 Q 515 488 500 480 Q 484 474 483 473 Q 481 472 457 465 Q 433 458 432 458 L 377 445 C 348 438 353 413 382 420 L 413 427 L 450 436 Q 459 438 475 443 Q 491 448 499 448 Q 507 448 511 445 Q 513 443 513 437 L 513 432 Q 511 423 509 408 L 501 372 C 494 343 532 333 541 362 Z" fill="lightgray" />
    
      <path d="M 400 316 L 436 322 Q 479 330 493 333 Q 507 336 517 337 L 539 340 Q 548 340 550 345 L 550 348 Q 550 350 549 353 Q 545 358 541 362 C 526 378 526 378 501 372 L 488 369 L 464 362 Q 455 358 437 354 L 394 344 C 365 337 370 311 400 316 Z" fill="lightgray" />
    
      <path d="M 463 157 L 481 172 Q 497 187 509 196 Q 522 206 536 212 L 560 221 Q 569 226 571 230 L 571 233 Q 571 239 566 246 Q 559 255 540 266 Q 520 278 511 281 Q 503 284 495 284 Q 488 284 473 278 Q 459 272 436 265 Q 413 258 391 252 Q 370 247 355 244 L 318 238 Q 307 236 306 231 Q 306 226 311 222 Q 317 218 328 214 L 346 209 Q 353 207 358 207 L 361 207 Q 365 207 374 212 Q 383 216 398 221 L 428 231 Q 443 236 450 238 Q 457 240 469 242 L 473 242 Q 478 242 479 240 Q 480 239 480 237 Q 480 234 478 229 Q 475 220 469 212 L 439 168 C 422 143 440 138 463 157 Z" fill="lightgray" />
    
      <path d="M 436 56 L 435 25 Q 434 16 432 -6 Q 430 -28 426 -41 Q 422 -53 417 -55 L 403 -55 Q 392 -53 385 -51 L 363 -46 Q 359 -45 357 -45 Q 353 -45 352 -47 L 352 -48 Q 352 -51 357 -56 L 377 -76 Q 379 -80 394 -96 Q 409 -112 413 -118 L 422 -133 Q 426 -139 431 -140 Q 433 -141 434 -141 Q 441 -141 451 -130 Q 463 -117 469 -98 Q 475 -79 478 -63 Q 480 -47 480 -23 Q 481 2 481 11 L 479 71 L 479 102 L 479 114 Q 479 124 477 134 Q 474 142 471 147 L 463 157 L 439 168 L 425 172 Q 420 174 417 174 Q 412 174 410 170 L 410 168 Q 410 165 413 159 L 424 143 Q 429 134 431 126 Q 433 118 434 109 Q 435 100 436 88 L 436 56 Z" fill="lightgray" />
    
      <path d="M 436 88 L 360 62 Q 357 62 339 56 Q 320 50 315 50 L 291 47 Q 283 46 282 43 Q 281 42 281 40 Q 281 37 284 32 Q 288 25 302 15 Q 316 5 323 2 Q 331 -2 335 -2 L 336 -2 Q 339 -2 345 4 L 360 14 Q 370 18 388 29 Q 405 40 412 43 Q 419 46 436 56 L 479 71 L 579 121 Q 585 123 585 128 L 585 131 Q 584 135 578 135 Q 575 135 571 134 L 479 102 L 436 88 Z" fill="lightgray" />
    
      <path d="M 664 402 L 686 445 Q 693 460 711 506 L 730 556 Q 743 589 746 598 Q 749 607 753 613 Q 757 618 761 624 Q 767 630 767 632 Q 768 634 768 635 Q 768 642 757 651 Q 743 664 731 672 Q 719 680 711 683 Q 704 686 699 686 Q 695 686 693 684 Q 690 682 690 676 Q 690 672 691 668 L 692 651 L 692 643 Q 692 635 691 626 Q 689 612 680 578 Q 671 544 665 519 Q 657 494 640 449 Q 623 403 614 383 Q 605 362 591 334 L 573 298 Q 570 293 570 289 Q 570 287 571 286 Q 572 285 573 285 Q 576 285 583 292 L 607 317 Q 613 324 625 340 L 649 372 L 664 402 Z" fill="lightgray" />
    
      <path d="M 761 388 L 816 399 L 869 410 L 897 415 Q 909 418 910 423 L 910 424 Q 910 430 899 437 Q 887 446 870 451 Q 853 456 845 456 Q 837 456 821 450 Q 803 443 787 438 Q 770 432 742 424 L 664 402 C 635 394 619 376 649 372 L 671 369 Q 674 368 678 368 Q 684 368 692 370 L 713 376 Q 720 378 737 381 L 761 388 Z" fill="lightgray" />
    
      <path d="M 697 100 L 678 75 Q 661 52 641 34 Q 621 18 600 6 L 563 -11 L 533 -23 Q 526 -26 526 -31 L 526 -32 Q 527 -36 535 -36 L 538 -36 L 567 -32 Q 585 -29 610 -21 Q 635 -12 656 -1 Q 677 11 691 23 Q 705 34 723 52 L 749 99 L 769 145 Q 777 164 785 204 L 795 258 Q 796 266 801 292 Q 806 318 809 324 L 816 338 Q 818 343 818 346 L 818 348 Q 817 352 812 357 Q 807 362 799 367 Q 791 372 783 376 Q 775 380 761 388 C 735 403 733 404 737 381 L 742 355 Q 745 341 745 316 Q 745 297 740 258 Q 735 218 731 200 Q 727 180 718 148 L 697 100 Z" fill="lightgray" />
    
      <path d="M 718 148 L 675 216 Q 665 232 659 239 Q 653 247 644 252 Q 635 257 621 258 Q 616 259 613 259 Q 606 259 603 256 Q 600 252 600 249 L 600 248 Q 600 243 609 237 Q 619 230 627 222 Q 633 215 643 201 L 660 172 Q 669 156 677 138 Q 687 120 697 100 L 723 52 L 739 26 Q 755 3 767 -16 Q 780 -35 792 -47 Q 804 -59 815 -63 Q 827 -67 843 -68 L 870 -68 Q 884 -68 903 -67 Q 921 -66 929 -65 L 958 -61 Q 965 -60 966 -55 L 966 -54 Q 966 -50 958 -46 L 926 -32 Q 916 -28 899 -19 L 863 -1 Q 844 10 829 20 Q 813 32 797 47 Q 779 63 770 74 Q 760 85 749 99 L 718 148 Z" fill="lightgray" />
    
    
      <clipPath id="make-me-a-hanzi-clip-0">
        <path d="M 113 556 L 95 560 Q 90 562 78 563 L 73 563 Q 65 563 63 560 Q 61 557 61 554 L 61 552 Q 63 548 68 536 Q 74 524 76 511 Q 79 498 79 484 Q 80 469 80 441 Q 81 413 81 400 L 75 243 Q 74 223 71 191 Q 69 159 66 134 Q 63 108 63 97 Q 63 82 65 72 Q 67 62 73 48 Q 79 34 85 28 Q 89 22 94 22 Q 98 22 102 27 Q 107 32 110 43 L 111 80 L 121 305 L 123 334 L 126 532 C 126 553 126 553 113 556 Z" />
      </clipPath>
      <path clip-path="url(#make-me-a-hanzi-clip-0)" d="M 70 554 L 96 534 L 103 479 L 87 81 L 94 31" fill="none" id="make-me-a-hanzi-animation-0" stroke-dasharray="665 1330" stroke-linecap="round" />
    
      <clipPath id="make-me-a-hanzi-clip-1">
        <path d="M 203 57 L 211 38 L 223 10 Q 228 2 235 2 L 238 2 Q 243 2 251 8 Q 260 16 268 31 Q 276 46 280 71 Q 282 84 282 107 L 282 124 Q 281 160 280 200 L 280 258 L 281 434 Q 281 460 282 472 Q 283 484 284 500 Q 285 516 288 524 Q 290 532 294 540 L 299 550 Q 299 556 291 565 Q 283 574 272 582 Q 261 590 251 594 Q 243 597 238 597 L 235 597 Q 229 596 219 591 Q 207 586 185 578 Q 163 570 151 566 L 113 556 C 84 548 97 523 126 532 L 151 540 L 185 547 Q 203 551 211 552 Q 217 553 220 553 Q 226 553 228 551 Q 232 548 233 537 Q 235 526 235 503 L 237 342 L 235 320 L 235 188 Q 235 163 233 149 Q 233 134 231 113 Q 229 92 225 90 C 217 61 195 76 203 57 Z" />
      </clipPath>
      <path clip-path="url(#make-me-a-hanzi-clip-1)" d="M 121 552 L 141 549 L 239 573 L 263 548 L 257 111 L 237 17" fill="none" id="make-me-a-hanzi-animation-1" stroke-dasharray="817 1634" stroke-linecap="round" />
    
      <clipPath id="make-me-a-hanzi-clip-2">
        <path d="M 121 305 L 151 305 Q 161 305 170 306 Q 183 308 200 312 L 235 320 C 264 327 265 331 237 342 L 215 351 Q 211 353 202 353 L 196 353 Q 191 352 180 350 Q 170 346 156 343 Q 141 340 123 334 C 94 325 91 305 121 305 Z" />
      </clipPath>
      <path clip-path="url(#make-me-a-hanzi-clip-2)" d="M 129 312 L 139 321 L 229 337" fill="none" id="make-me-a-hanzi-animation-2" stroke-dasharray="233 466" stroke-linecap="round" />
    
      <clipPath id="make-me-a-hanzi-clip-3">
        <path d="M 110 43 L 133 46 Q 141 46 163 50 L 203 57 C 233 62 255 86 225 90 Q 222 90 215 92 Q 208 95 202 96 Q 199 97 195 97 L 192 97 L 177 94 L 111 80 C 82 74 80 39 110 43 Z" />
      </clipPath>
      <path clip-path="url(#make-me-a-hanzi-clip-3)" d="M 115 49 L 129 65 L 219 86" fill="none" id="make-me-a-hanzi-animation-3" stroke-dasharray="242 484" stroke-linecap="round" />
    
      <clipPath id="make-me-a-hanzi-clip-4">
        <path d="M 479 570 L 485 584 L 490 604 Q 492 616 492 624 L 492 628 Q 490 636 482 644 Q 474 652 455 662 Q 435 672 424 675 L 405 680 Q 398 682 394 682 Q 390 682 389 680 L 389 678 Q 389 675 391 670 L 400 650 Q 401 645 415 622 L 435 588 Q 439 580 450 566 C 468 543 468 543 479 570 Z" />
      </clipPath>
      <path clip-path="url(#make-me-a-hanzi-clip-4)" d="M 392 679 L 457 620 L 461 593 L 455 580" fill="none" id="make-me-a-hanzi-animation-4" stroke-dasharray="257 514" stroke-linecap="round" />
    
      <clipPath id="make-me-a-hanzi-clip-5">
        <path d="M 450 566 L 424 561 Q 418 560 390 555 Q 363 550 355 550 L 325 545 Q 314 543 312 539 L 312 538 Q 312 534 320 527 Q 330 519 351 517 Q 366 516 378 516 L 389 516 Q 397 516 425 520 L 475 527 Q 491 529 525 536 Q 560 542 574 547 L 600 555 Q 611 558 611 564 L 611 565 Q 611 570 603 575 Q 593 582 579 586 Q 565 590 559 591 Q 551 591 536 587 L 509 578 Q 499 576 479 570 L 450 566 Z" />
      </clipPath>
      <path clip-path="url(#make-me-a-hanzi-clip-5)" d="M 320 539 L 329 534 L 392 535 L 568 568 L 601 565" fill="none" id="make-me-a-hanzi-animation-5" stroke-dasharray="414 828" stroke-linecap="round" />
    
      <clipPath id="make-me-a-hanzi-clip-6">
        <path d="M 377 445 L 358 450 Q 343 454 336 455 Q 325 455 323 451 L 323 449 Q 323 446 327 440 L 336 428 Q 337 426 342 415 Q 347 404 347 402 L 361 338 Q 361 334 365 324 Q 367 314 371 310 Q 378 301 382 301 L 383 301 Q 389 302 392 306 Q 395 310 400 316 C 401 318 399 314 394 344 L 382 420 C 378 445 378 445 377 445 Z" />
      </clipPath>
      <path clip-path="url(#make-me-a-hanzi-clip-6)" d="M 330 450 L 359 428 L 383 313" fill="none" id="make-me-a-hanzi-animation-6" stroke-dasharray="282 564" stroke-linecap="round" />
    
      <clipPath id="make-me-a-hanzi-clip-7">
        <path d="M 541 362 L 550 392 Q 555 407 558 415 Q 561 423 565 428 Q 569 434 575 439 Q 581 445 583 448 Q 583 454 575 462 Q 567 470 557 476 Q 547 482 537 486 Q 530 488 525 488 L 521 488 Q 515 488 500 480 Q 484 474 483 473 Q 481 472 457 465 Q 433 458 432 458 L 377 445 C 348 438 353 413 382 420 L 413 427 L 450 436 Q 459 438 475 443 Q 491 448 499 448 Q 507 448 511 445 Q 513 443 513 437 L 513 432 Q 511 423 509 408 L 501 372 C 494 343 532 333 541 362 Z" />
      </clipPath>
      <path clip-path="url(#make-me-a-hanzi-clip-7)" d="M 385 440 L 392 435 L 499 464 L 527 464 L 542 448 L 539 433 L 528 390 L 509 376" fill="none" id="make-me-a-hanzi-animation-7" stroke-dasharray="381 762" stroke-linecap="round" />
    
      <clipPath id="make-me-a-hanzi-clip-8">
        <path d="M 400 316 L 436 322 Q 479 330 493 333 Q 507 336 517 337 L 539 340 Q 548 340 550 345 L 550 348 Q 550 350 549 353 Q 545 358 541 362 C 526 378 526 378 501 372 L 488 369 L 464 362 Q 455 358 437 354 L 394 344 C 365 337 370 311 400 316 Z" />
      </clipPath>
      <path clip-path="url(#make-me-a-hanzi-clip-8)" d="M 405 324 L 412 333 L 504 354 L 543 347" fill="none" id="make-me-a-hanzi-animation-8" stroke-dasharray="273 546" stroke-linecap="round" />
    
      <clipPath id="make-me-a-hanzi-clip-9">
        <path d="M 463 157 L 481 172 Q 497 187 509 196 Q 522 206 536 212 L 560 221 Q 569 226 571 230 L 571 233 Q 571 239 566 246 Q 559 255 540 266 Q 520 278 511 281 Q 503 284 495 284 Q 488 284 473 278 Q 459 272 436 265 Q 413 258 391 252 Q 370 247 355 244 L 318 238 Q 307 236 306 231 Q 306 226 311 222 Q 317 218 328 214 L 346 209 Q 353 207 358 207 L 361 207 Q 365 207 374 212 Q 383 216 398 221 L 428 231 Q 443 236 450 238 Q 457 240 469 242 L 473 242 Q 478 242 479 240 Q 480 239 480 237 Q 480 234 478 229 Q 475 220 469 212 L 439 168 C 422 143 440 138 463 157 Z" />
      </clipPath>
      <path clip-path="url(#make-me-a-hanzi-clip-9)" d="M 315 230 L 355 225 L 474 260 L 500 257 L 514 238 L 467 180 L 447 170" fill="none" id="make-me-a-hanzi-animation-9" stroke-dasharray="439 878" stroke-linecap="round" />
    
      <clipPath id="make-me-a-hanzi-clip-10">
        <path d="M 436 56 L 435 25 Q 434 16 432 -6 Q 430 -28 426 -41 Q 422 -53 417 -55 L 403 -55 Q 392 -53 385 -51 L 363 -46 Q 359 -45 357 -45 Q 353 -45 352 -47 L 352 -48 Q 352 -51 357 -56 L 377 -76 Q 379 -80 394 -96 Q 409 -112 413 -118 L 422 -133 Q 426 -139 431 -140 Q 433 -141 434 -141 Q 441 -141 451 -130 Q 463 -117 469 -98 Q 475 -79 478 -63 Q 480 -47 480 -23 Q 481 2 481 11 L 479 71 L 479 102 L 479 114 Q 479 124 477 134 Q 474 142 471 147 L 463 157 L 439 168 L 425 172 Q 420 174 417 174 Q 412 174 410 170 L 410 168 Q 410 165 413 159 L 424 143 Q 429 134 431 126 Q 433 118 434 109 Q 435 100 436 88 L 436 56 Z" />
      </clipPath>
      <path clip-path="url(#make-me-a-hanzi-clip-10)" d="M 415 169 L 449 141 L 455 126 L 458 17 L 449 -63 L 435 -87 L 403 -76 L 355 -47" fill="none" id="make-me-a-hanzi-animation-10" stroke-dasharray="495 990" stroke-linecap="round" />
    
      <clipPath id="make-me-a-hanzi-clip-11">
        <path d="M 436 88 L 360 62 Q 357 62 339 56 Q 320 50 315 50 L 291 47 Q 283 46 282 43 Q 281 42 281 40 Q 281 37 284 32 Q 288 25 302 15 Q 316 5 323 2 Q 331 -2 335 -2 L 336 -2 Q 339 -2 345 4 L 360 14 Q 370 18 388 29 Q 405 40 412 43 Q 419 46 436 56 L 479 71 L 579 121 Q 585 123 585 128 L 585 131 Q 584 135 578 135 Q 575 135 571 134 L 479 102 L 436 88 Z" />
      </clipPath>
      <path clip-path="url(#make-me-a-hanzi-clip-11)" d="M 289 39 L 335 28 L 580 130" fill="none" id="make-me-a-hanzi-animation-11" stroke-dasharray="441 882" stroke-linecap="round" />
    
      <clipPath id="make-me-a-hanzi-clip-12">
        <path d="M 664 402 L 686 445 Q 693 460 711 506 L 730 556 Q 743 589 746 598 Q 749 607 753 613 Q 757 618 761 624 Q 767 630 767 632 Q 768 634 768 635 Q 768 642 757 651 Q 743 664 731 672 Q 719 680 711 683 Q 704 686 699 686 Q 695 686 693 684 Q 690 682 690 676 Q 690 672 691 668 L 692 651 L 692 643 Q 692 635 691 626 Q 689 612 680 578 Q 671 544 665 519 Q 657 494 640 449 Q 623 403 614 383 Q 605 362 591 334 L 573 298 Q 570 293 570 289 Q 570 287 571 286 Q 572 285 573 285 Q 576 285 583 292 L 607 317 Q 613 324 625 340 L 649 372 L 664 402 Z" />
      </clipPath>
      <path clip-path="url(#make-me-a-hanzi-clip-12)" d="M 699 677 L 726 633 L 709 575 L 640 395 L 574 289" fill="none" id="make-me-a-hanzi-animation-12" stroke-dasharray="558 1116" stroke-linecap="round" />
    
      <clipPath id="make-me-a-hanzi-clip-13">
        <path d="M 761 388 L 816 399 L 869 410 L 897 415 Q 909 418 910 423 L 910 424 Q 910 430 899 437 Q 887 446 870 451 Q 853 456 845 456 Q 837 456 821 450 Q 803 443 787 438 Q 770 432 742 424 L 664 402 C 635 394 619 376 649 372 L 671 369 Q 674 368 678 368 Q 684 368 692 370 L 713 376 Q 720 378 737 381 L 761 388 Z" />
      </clipPath>
      <path clip-path="url(#make-me-a-hanzi-clip-13)" d="M 655 375 L 677 387 L 835 429 L 869 431 L 901 424" fill="none" id="make-me-a-hanzi-animation-13" stroke-dasharray="383 766" stroke-linecap="round" />
    
      <clipPath id="make-me-a-hanzi-clip-14">
        <path d="M 697 100 L 678 75 Q 661 52 641 34 Q 621 18 600 6 L 563 -11 L 533 -23 Q 526 -26 526 -31 L 526 -32 Q 527 -36 535 -36 L 538 -36 L 567 -32 Q 585 -29 610 -21 Q 635 -12 656 -1 Q 677 11 691 23 Q 705 34 723 52 L 749 99 L 769 145 Q 777 164 785 204 L 795 258 Q 796 266 801 292 Q 806 318 809 324 L 816 338 Q 818 343 818 346 L 818 348 Q 817 352 812 357 Q 807 362 799 367 Q 791 372 783 376 Q 775 380 761 388 C 735 403 733 404 737 381 L 742 355 Q 745 341 745 316 Q 745 297 740 258 Q 735 218 731 200 Q 727 180 718 148 L 697 100 Z" />
      </clipPath>
      <path clip-path="url(#make-me-a-hanzi-clip-14)" d="M 745 376 L 778 339 L 755 183 L 719 92 L 691 53 L 643 12 L 598 -11 L 532 -31" fill="none" id="make-me-a-hanzi-animation-14" stroke-dasharray="664 1328" stroke-linecap="round" />
    
      <clipPath id="make-me-a-hanzi-clip-15">
        <path d="M 718 148 L 675 216 Q 665 232 659 239 Q 653 247 644 252 Q 635 257 621 258 Q 616 259 613 259 Q 606 259 603 256 Q 600 252 600 249 L 600 248 Q 600 243 609 237 Q 619 230 627 222 Q 633 215 643 201 L 660 172 Q 669 156 677 138 Q 687 120 697 100 L 723 52 L 739 26 Q 755 3 767 -16 Q 780 -35 792 -47 Q 804 -59 815 -63 Q 827 -67 843 -68 L 870 -68 Q 884 -68 903 -67 Q 921 -66 929 -65 L 958 -61 Q 965 -60 966 -55 L 966 -54 Q 966 -50 958 -46 L 926 -32 Q 916 -28 899 -19 L 863 -1 Q 844 10 829 20 Q 813 32 797 47 Q 779 63 770 74 Q 760 85 749 99 L 718 148 Z" />
      </clipPath>
      <path clip-path="url(#make-me-a-hanzi-clip-15)" d="M 611 249 L 638 235 L 657 214 L 748 59 L 816 -17 L 840 -31 L 959 -54" fill="none" id="make-me-a-hanzi-animation-15" stroke-dasharray="617 1234" stroke-linecap="round" />
    
  </g>
</svg>