<svg xmlns="http://www.w3.org/2000/svg" version="1.1" viewBox="0 0 1024 1024">
  <g stroke="lightgray" stroke-dasharray="1,1" stroke-width="1" transform="scale(4, 4)">
    <line x1="0" y1="0" x2="256" y2="256" />
    <line x1="256" y1="0" x2="0" y2="256" />
    <line x1="128" y1="0" x2="128" y2="256" />
    <line x1="0" y1="128" x2="256" y2="128" />
  </g>
  <g transform="scale(1.0, -1.0) translate(0.0, -805.50)">
    <style type="text/css">
      
        @keyframes keyframes0 {
          from {
            stroke: blue;
            stroke-dashoffset: 773;
            stroke-width: 128;
          }
          72% {
            animation-timing-function: step-end;
            stroke: blue;
            stroke-dashoffset: 0;
            stroke-width: 128;
          }
          to {
            stroke: black;
            stroke-width: 1024;
          }
        }
        #make-me-a-hanzi-animation-0 {
          animation: keyframes0 0.8790690104166666s both;
          animation-delay: 0s;
          animation-timing-function: linear;
        }
      
        @keyframes keyframes1 {
          from {
            stroke: blue;
            stroke-dashoffset: 934;
            stroke-width: 128;
          }
          75% {
            animation-timing-function: step-end;
            stroke: blue;
            stroke-dashoffset: 0;
            stroke-width: 128;
          }
          to {
            stroke: black;
            stroke-width: 1024;
          }
        }
        #make-me-a-hanzi-animation-1 {
          animation: keyframes1 1.0100911458333333s both;
          animation-delay: 0.8790690104166666s;
          animation-timing-function: linear;
        }
      
        @keyframes keyframes2 {
          from {
            stroke: blue;
            stroke-dashoffset: 366;
            stroke-width: 128;
          }
          54% {
            animation-timing-function: step-end;
            stroke: blue;
            stroke-dashoffset: 0;
            stroke-width: 128;
          }
          to {
            stroke: black;
            stroke-width: 1024;
          }
        }
        #make-me-a-hanzi-animation-2 {
          animation: keyframes2 0.5478515625s both;
          animation-delay: 1.88916015625s;
          animation-timing-function: linear;
        }
      
        @keyframes keyframes3 {
          from {
            stroke: blue;
            stroke-dashoffset: 364;
            stroke-width: 128;
          }
          54% {
            animation-timing-function: step-end;
            stroke: blue;
            stroke-dashoffset: 0;
            stroke-width: 128;
          }
          to {
            stroke: black;
            stroke-width: 1024;
          }
        }
        #make-me-a-hanzi-animation-3 {
          animation: keyframes3 0.5462239583333334s both;
          animation-delay: 2.43701171875s;
          animation-timing-function: linear;
        }
      
        @keyframes keyframes4 {
          from {
            stroke: blue;
            stroke-dashoffset: 571;
            stroke-width: 128;
          }
          65% {
            animation-timing-function: step-end;
            stroke: blue;
            stroke-dashoffset: 0;
            stroke-width: 128;
          }
          to {
            stroke: black;
            stroke-width: 1024;
          }
        }
        #make-me-a-hanzi-animation-4 {
          animation: keyframes4 0.7146809895833334s both;
          animation-delay: 2.9832356770833335s;
          animation-timing-function: linear;
        }
      
        @keyframes keyframes5 {
          from {
            stroke: blue;
            stroke-dashoffset: 817;
            stroke-width: 128;
          }
          73% {
            animation-timing-function: step-end;
            stroke: blue;
            stroke-dashoffset: 0;
            stroke-width: 128;
          }
          to {
            stroke: black;
            stroke-width: 1024;
          }
        }
        #make-me-a-hanzi-animation-5 {
          animation: keyframes5 0.9148763020833334s both;
          animation-delay: 3.697916666666667s;
          animation-timing-function: linear;
        }
      
        @keyframes keyframes6 {
          from {
            stroke: blue;
            stroke-dashoffset: 470;
            stroke-width: 128;
          }
          60% {
            animation-timing-function: step-end;
            stroke: blue;
            stroke-dashoffset: 0;
            stroke-width: 128;
          }
          to {
            stroke: black;
            stroke-width: 1024;
          }
        }
        #make-me-a-hanzi-animation-6 {
          animation: keyframes6 0.6324869791666666s both;
          animation-delay: 4.61279296875s;
          animation-timing-function: linear;
        }
      
        @keyframes keyframes7 {
          from {
            stroke: blue;
            stroke-dashoffset: 844;
            stroke-width: 128;
          }
          73% {
            animation-timing-function: step-end;
            stroke: blue;
            stroke-dashoffset: 0;
            stroke-width: 128;
          }
          to {
            stroke: black;
            stroke-width: 1024;
          }
        }
        #make-me-a-hanzi-animation-7 {
          animation: keyframes7 0.9368489583333334s both;
          animation-delay: 5.245279947916667s;
          animation-timing-function: linear;
        }
      
        @keyframes keyframes8 {
          from {
            stroke: blue;
            stroke-dashoffset: 354;
            stroke-width: 128;
          }
          54% {
            animation-timing-function: step-end;
            stroke: blue;
            stroke-dashoffset: 0;
            stroke-width: 128;
          }
          to {
            stroke: black;
            stroke-width: 1024;
          }
        }
        #make-me-a-hanzi-animation-8 {
          animation: keyframes8 0.5380859375s both;
          animation-delay: 6.18212890625s;
          animation-timing-function: linear;
        }
      
        @keyframes keyframes9 {
          from {
            stroke: blue;
            stroke-dashoffset: 367;
            stroke-width: 128;
          }
          54% {
            animation-timing-function: step-end;
            stroke: blue;
            stroke-dashoffset: 0;
            stroke-width: 128;
          }
          to {
            stroke: black;
            stroke-width: 1024;
          }
        }
        #make-me-a-hanzi-animation-9 {
          animation: keyframes9 0.5486653645833334s both;
          animation-delay: 6.72021484375s;
          animation-timing-function: linear;
        }
      
        @keyframes keyframes10 {
          from {
            stroke: blue;
            stroke-dashoffset: 537;
            stroke-width: 128;
          }
          64% {
            animation-timing-function: step-end;
            stroke: blue;
            stroke-dashoffset: 0;
            stroke-width: 128;
          }
          to {
            stroke: black;
            stroke-width: 1024;
          }
        }
        #make-me-a-hanzi-animation-10 {
          animation: keyframes10 0.68701171875s both;
          animation-delay: 7.268880208333333s;
          animation-timing-function: linear;
        }
      
        @keyframes keyframes11 {
          from {
            stroke: blue;
            stroke-dashoffset: 544;
            stroke-width: 128;
          }
          64% {
            animation-timing-function: step-end;
            stroke: blue;
            stroke-dashoffset: 0;
            stroke-width: 128;
          }
          to {
            stroke: black;
            stroke-width: 1024;
          }
        }
        #make-me-a-hanzi-animation-11 {
          animation: keyframes11 0.6927083333333334s both;
          animation-delay: 7.955891927083333s;
          animation-timing-function: linear;
        }
      
        @keyframes keyframes12 {
          from {
            stroke: blue;
            stroke-dashoffset: 808;
            stroke-width: 128;
          }
          72% {
            animation-timing-function: step-end;
            stroke: blue;
            stroke-dashoffset: 0;
            stroke-width: 128;
          }
          to {
            stroke: black;
            stroke-width: 1024;
          }
        }
        #make-me-a-hanzi-animation-12 {
          animation: keyframes12 0.9075520833333334s both;
          animation-delay: 8.648600260416666s;
          animation-timing-function: linear;
        }
      
        @keyframes keyframes13 {
          from {
            stroke: blue;
            stroke-dashoffset: 720;
            stroke-width: 128;
          }
          70% {
            animation-timing-function: step-end;
            stroke: blue;
            stroke-dashoffset: 0;
            stroke-width: 128;
          }
          to {
            stroke: black;
            stroke-width: 1024;
          }
        }
        #make-me-a-hanzi-animation-13 {
          animation: keyframes13 0.8359375s both;
          animation-delay: 9.55615234375s;
          animation-timing-function: linear;
        }
      
        @keyframes keyframes14 {
          from {
            stroke: blue;
            stroke-dashoffset: 407;
            stroke-width: 128;
          }
          57% {
            animation-timing-function: step-end;
            stroke: blue;
            stroke-dashoffset: 0;
            stroke-width: 128;
          }
          to {
            stroke: black;
            stroke-width: 1024;
          }
        }
        #make-me-a-hanzi-animation-14 {
          animation: keyframes14 0.5812174479166666s both;
          animation-delay: 10.39208984375s;
          animation-timing-function: linear;
        }
      
        @keyframes keyframes15 {
          from {
            stroke: blue;
            stroke-dashoffset: 387;
            stroke-width: 128;
          }
          56% {
            animation-timing-function: step-end;
            stroke: blue;
            stroke-dashoffset: 0;
            stroke-width: 128;
          }
          to {
            stroke: black;
            stroke-width: 1024;
          }
        }
        #make-me-a-hanzi-animation-15 {
          animation: keyframes15 0.56494140625s both;
          animation-delay: 10.973307291666666s;
          animation-timing-function: linear;
        }
      
        @keyframes keyframes16 {
          from {
            stroke: blue;
            stroke-dashoffset: 383;
            stroke-width: 128;
          }
          55% {
            animation-timing-function: step-end;
            stroke: blue;
            stroke-dashoffset: 0;
            stroke-width: 128;
          }
          to {
            stroke: black;
            stroke-width: 1024;
          }
        }
        #make-me-a-hanzi-animation-16 {
          animation: keyframes16 0.5616861979166666s both;
          animation-delay: 11.538248697916666s;
          animation-timing-function: linear;
        }
      
        @keyframes keyframes17 {
          from {
            stroke: blue;
            stroke-dashoffset: 432;
            stroke-width: 128;
          }
          58% {
            animation-timing-function: step-end;
            stroke: blue;
            stroke-dashoffset: 0;
            stroke-width: 128;
          }
          to {
            stroke: black;
            stroke-width: 1024;
          }
        }
        #make-me-a-hanzi-animation-17 {
          animation: keyframes17 0.6015625s both;
          animation-delay: 12.099934895833332s;
          animation-timing-function: linear;
        }
      
    </style>
    
      <path d="M 155 558 L 138 562 Q 129 564 120 564 Q 116 565 113 565 Q 106 565 105 562 Q 104 560 104 557 Q 104 554 105 549 L 113 534 Q 116 526 118 512 Q 121 498 121 485 Q 122 472 122 442 Q 123 412 123 402 L 117 266 Q 116 252 113 214 Q 111 176 108 151 Q 105 127 105 119 Q 105 104 107 93 Q 110 81 115 70 Q 121 58 126 51 Q 132 44 137 44 Q 141 44 145 49 Q 149 54 153 65 L 154 98 L 161 303 L 163 334 L 168 534 C 169 555 169 555 155 558 Z" fill="lightgray" />
    
      <path d="M 253 80 L 261 61 L 273 34 Q 277 23 283 22 L 286 22 Q 290 22 295 26 Q 303 31 311 44 Q 319 56 323 67 Q 327 78 329 94 Q 331 108 331 128 Q 331 147 329 172 L 327 222 Q 325 238 325 275 L 324 435 L 326 470 L 327 500 Q 328 513 331 524 Q 334 535 338 542 L 343 552 Q 343 558 334 567 Q 325 576 317 582 Q 307 588 295 594 Q 285 599 280 599 L 278 599 Q 274 598 263 593 Q 253 587 232 580 Q 211 573 196 569 Q 181 564 155 558 C 126 551 139 527 168 534 L 194 540 L 225 549 L 253 555 Q 260 557 265 557 Q 269 557 271 555 Q 275 552 277 539 Q 279 526 279 520 L 279 342 L 279 318 L 278 206 Q 277 199 276 173 Q 275 147 275 132 Q 275 116 271 115 L 269 115 Q 266 115 260 116 C 242 106 242 106 253 80 Z" fill="lightgray" />
    
      <path d="M 161 303 L 188 303 Q 199 303 215 306 L 250 314 Q 259 316 279 318 C 309 321 307 332 279 342 L 260 349 Q 251 352 239 352 Q 233 351 219 347 Q 206 343 195 340 Q 183 338 163 334 C 134 328 131 303 161 303 Z" fill="lightgray" />
    
      <path d="M 153 65 L 176 68 Q 193 70 211 73 Q 230 76 253 80 C 283 85 289 110 260 116 Q 251 118 246 118 Q 245 118 233 115 L 219 112 L 154 98 C 125 92 123 61 153 65 Z" fill="lightgray" />
    
      <path d="M 613 641 L 645 650 L 686 662 Q 709 670 720 670 Q 731 672 735 674 Q 740 676 743 680 Q 744 682 744 683 Q 744 689 739 696 Q 733 704 713 717 Q 693 730 685 733 Q 680 735 675 735 Q 672 735 670 734 Q 665 733 655 722 Q 644 710 628 700 Q 612 690 589 678 L 555 661 L 511 643 Q 479 630 471 627 L 438 614 Q 431 612 431 608 L 431 607 Q 432 603 437 603 Q 438 603 441 604 L 467 606 Q 495 610 501 611 Q 509 612 530 617 Q 551 622 563 624 L 613 641 Z" fill="lightgray" />
    
      <path d="M 580 547 L 535 541 Q 489 534 456 531 Q 423 528 406 525 Q 389 522 385 522 L 355 520 Q 342 519 340 515 Q 339 514 339 512 Q 339 509 343 504 Q 349 498 362 492 Q 375 487 381 485 Q 386 484 392 484 L 398 484 Q 403 484 416 487 Q 430 490 461 495 L 542 506 Q 555 508 580 510 L 643 519 L 703 523 L 771 530 Q 793 532 823 533 Q 853 534 865 536 L 893 538 Q 903 539 906 541 Q 909 544 911 547 Q 911 552 905 557 Q 898 562 885 569 Q 871 576 862 578 Q 853 582 843 582 Q 835 581 818 578 Q 801 574 784 572 L 743 566 Q 691 559 683 558 Q 674 557 644 555 L 580 547 Z" fill="lightgray" />
    
      <path d="M 425 422 L 414 426 Q 405 428 399 428 Q 396 429 393 429 Q 389 429 385 428 Q 377 428 375 425 Q 374 424 374 423 Q 374 420 378 416 L 384 412 Q 386 410 393 400 Q 399 390 403 382 Q 406 374 411 352 L 430 273 Q 436 247 437 243 Q 439 238 445 232 Q 450 225 456 225 L 457 225 Q 462 225 465 230 Q 469 235 471 241 L 471 270 L 445 396 C 441 416 441 416 425 422 Z" fill="lightgray" />
    
      <path d="M 581 438 L 526 431 Q 503 428 479 426 Q 456 424 425 422 C 395 420 415 394 445 396 L 485 399 Q 491 399 521 403 Q 551 406 581 410 L 639 419 L 673 424 L 726 432 Q 755 437 771 438 Q 787 438 791 434 Q 795 430 795 421 L 795 418 Q 793 406 790 392 L 777 341 Q 775 336 771 324 Q 767 311 764 305 Q 761 298 757 298 C 745 280 745 280 753 268 L 758 258 Q 761 252 772 250 Q 781 250 789 256 Q 797 262 804 281 Q 812 299 815 305 L 845 371 L 851 386 Q 855 396 859 403 Q 865 411 871 418 Q 878 424 879 427 L 879 430 Q 879 436 871 445 Q 860 456 845 464 Q 830 473 816 478 Q 801 483 793 483 Q 785 482 765 476 Q 746 468 722 464 Q 697 458 678 455 Q 659 452 639 448 L 581 438 Z" fill="lightgray" />
    
      <path d="M 489 378 Q 484 380 481 380 Q 478 380 477 378 Q 476 377 476 376 Q 476 372 480 367 L 489 352 Q 499 333 503 326 Q 508 318 515 310 Q 523 302 531 298 Q 540 292 546 292 Q 548 292 550 293 Q 557 296 561 305 Q 563 310 563 317 Q 563 322 562 328 Q 559 342 552 350 Q 545 359 532 364 Q 519 370 505 374 L 489 378 Z" fill="lightgray" />
    
      <path d="M 660 315 Q 658 311 658 310 L 658 309 Q 658 308 660 308 Q 661 308 665 310 L 681 320 L 696 328 L 721 341 Q 734 348 741 351 Q 749 354 751 356 Q 752 358 752 360 Q 752 363 750 368 Q 747 376 735 385 Q 725 394 718 398 Q 710 402 706 402 Q 704 402 703 401 Q 699 398 697 386 Q 695 374 691 366 Q 687 358 682 349 Q 677 340 673 334 L 660 315 Z" fill="lightgray" />
    
      <path d="M 471 241 L 581 250 L 634 257 L 753 268 C 783 271 786 291 757 298 Q 755 298 751 299 L 743 302 Q 735 304 729 304 Q 723 304 711 302 Q 699 300 684 297 Q 669 294 661 293 L 634 289 L 581 282 L 471 270 C 441 267 441 239 471 241 Z" fill="lightgray" />
    
      <path d="M 581 192 L 537 186 L 498 182 L 467 178 Q 461 178 459 174 L 459 172 Q 459 168 465 162 Q 473 155 487 152 Q 501 150 525 150 Q 537 150 550 151 Q 562 152 581 154 L 633 163 L 659 166 Q 672 166 692 169 L 723 174 L 751 180 Q 758 180 759 187 L 759 189 Q 759 195 748 199 Q 736 204 721 207 Q 707 210 699 210 Q 691 210 667 206 L 633 200 L 581 192 Z" fill="lightgray" />
    
      <path d="M 563 624 L 570 605 Q 574 592 576 579 Q 579 566 580 547 L 580 510 L 581 438 L 581 410 L 581 282 L 581 250 L 581 192 L 581 154 L 581 93 C 581 63 630 67 631 97 L 633 163 L 633 200 L 634 257 L 634 289 L 639 419 L 639 448 L 643 519 L 644 555 L 649 578 Q 651 591 653 595 Q 656 604 656 608 L 656 610 Q 655 614 648 620 Q 641 627 632 631 Q 624 636 613 641 C 586 655 553 652 563 624 Z" fill="lightgray" />
    
      <path d="M 581 93 L 548 90 L 501 85 Q 498 84 469 81 Q 439 78 421 76 L 391 74 Q 384 74 382 70 L 382 69 Q 382 64 387 60 Q 393 55 406 49 L 427 38 Q 435 35 442 35 L 445 35 Q 447 35 459 39 Q 471 42 488 44 Q 504 46 533 50 Q 561 54 608 58 L 678 64 Q 702 65 745 66 L 809 69 L 842 71 Q 854 72 855 77 L 855 78 Q 855 83 849 90 Q 843 97 829 104 Q 816 112 805 114 Q 795 118 785 118 L 767 115 Q 755 112 737 110 Q 720 107 711 106 Q 702 104 668 101 L 631 97 L 581 93 Z" fill="lightgray" />
    
      <path d="M 338 -6 L 327 -28 L 308 -62 Q 301 -73 300 -79 Q 298 -85 297 -97 L 297 -120 Q 299 -130 304 -139 Q 310 -148 317 -148 L 320 -148 Q 325 -148 331 -142 Q 339 -135 347 -122 Q 355 -108 363 -86 Q 370 -65 371 -50 Q 372 -44 372 -38 Q 372 -27 369 -16 Q 366 1 363 11 Q 359 21 355 21 Q 352 20 349 14 L 338 -6 Z" fill="lightgray" />
    
      <path d="M 471 2 Q 472 -2 477 -20 Q 482 -39 489 -56 L 502 -87 Q 509 -108 516 -113 Q 524 -119 530 -119 L 532 -119 Q 540 -118 545 -108 Q 551 -98 553 -86 L 553 -79 Q 553 -66 550 -55 Q 546 -41 538 -28 Q 529 -16 515 -5 Q 500 5 485 11 Q 479 13 476 13 Q 473 13 472 12 Q 471 11 471 7 L 471 2 Z" fill="lightgray" />
    
      <path d="M 631 12 Q 632 9 641 -10 Q 649 -30 658 -44 L 675 -73 Q 685 -92 693 -96 Q 699 -101 705 -101 Q 708 -101 710 -100 Q 717 -98 721 -88 Q 724 -81 724 -72 Q 724 -67 723 -62 Q 723 -46 717 -33 Q 712 -20 702 -10 Q 693 0 675 10 Q 658 20 644 22 Q 640 23 637 23 Q 632 23 631 21 Q 630 20 630 17 Q 630 15 631 12 Z" fill="lightgray" />
    
      <path d="M 798 -2 Q 805 -9 823 -35 L 854 -82 Q 867 -102 875 -112 Q 883 -122 895 -124 L 902 -124 Q 914 -124 919 -119 Q 925 -111 926 -97 L 926 -88 Q 926 -79 925 -72 Q 923 -60 916 -49 Q 909 -38 892 -24 Q 875 -9 855 1 L 819 17 L 798 26 Q 794 28 790 28 Q 786 28 783 25 Q 781 23 781 21 Q 781 16 787 10 L 798 -2 Z" fill="lightgray" />
    
    
      <clipPath id="make-me-a-hanzi-clip-0">
        <path d="M 155 558 L 138 562 Q 129 564 120 564 Q 116 565 113 565 Q 106 565 105 562 Q 104 560 104 557 Q 104 554 105 549 L 113 534 Q 116 526 118 512 Q 121 498 121 485 Q 122 472 122 442 Q 123 412 123 402 L 117 266 Q 116 252 113 214 Q 111 176 108 151 Q 105 127 105 119 Q 105 104 107 93 Q 110 81 115 70 Q 121 58 126 51 Q 132 44 137 44 Q 141 44 145 49 Q 149 54 153 65 L 154 98 L 161 303 L 163 334 L 168 534 C 169 555 169 555 155 558 Z" />
      </clipPath>
      <path clip-path="url(#make-me-a-hanzi-clip-0)" d="M 111 558 L 138 536 L 144 493 L 144 373 L 129 113 L 136 55" fill="none" id="make-me-a-hanzi-animation-0" stroke-dasharray="645 1290" stroke-linecap="round" />
    
      <clipPath id="make-me-a-hanzi-clip-1">
        <path d="M 253 80 L 261 61 L 273 34 Q 277 23 283 22 L 286 22 Q 290 22 295 26 Q 303 31 311 44 Q 319 56 323 67 Q 327 78 329 94 Q 331 108 331 128 Q 331 147 329 172 L 327 222 Q 325 238 325 275 L 324 435 L 326 470 L 327 500 Q 328 513 331 524 Q 334 535 338 542 L 343 552 Q 343 558 334 567 Q 325 576 317 582 Q 307 588 295 594 Q 285 599 280 599 L 278 599 Q 274 598 263 593 Q 253 587 232 580 Q 211 573 196 569 Q 181 564 155 558 C 126 551 139 527 168 534 L 194 540 L 225 549 L 253 555 Q 260 557 265 557 Q 269 557 271 555 Q 275 552 277 539 Q 279 526 279 520 L 279 342 L 279 318 L 278 206 Q 277 199 276 173 Q 275 147 275 132 Q 275 116 271 115 L 269 115 Q 266 115 260 116 C 242 106 242 106 253 80 Z" />
      </clipPath>
      <path clip-path="url(#make-me-a-hanzi-clip-1)" d="M 164 555 L 175 549 L 281 576 L 307 550 L 301 438 L 303 122 L 291 84 L 285 33" fill="none" id="make-me-a-hanzi-animation-1" stroke-dasharray="806 1612" stroke-linecap="round" />
    
      <clipPath id="make-me-a-hanzi-clip-2">
        <path d="M 161 303 L 188 303 Q 199 303 215 306 L 250 314 Q 259 316 279 318 C 309 321 307 332 279 342 L 260 349 Q 251 352 239 352 Q 233 351 219 347 Q 206 343 195 340 Q 183 338 163 334 C 134 328 131 303 161 303 Z" />
      </clipPath>
      <path clip-path="url(#make-me-a-hanzi-clip-2)" d="M 168 310 L 179 320 L 243 333 L 264 331 L 270 324" fill="none" id="make-me-a-hanzi-animation-2" stroke-dasharray="238 476" stroke-linecap="round" />
    
      <clipPath id="make-me-a-hanzi-clip-3">
        <path d="M 153 65 L 176 68 Q 193 70 211 73 Q 230 76 253 80 C 283 85 289 110 260 116 Q 251 118 246 118 Q 245 118 233 115 L 219 112 L 154 98 C 125 92 123 61 153 65 Z" />
      </clipPath>
      <path clip-path="url(#make-me-a-hanzi-clip-3)" d="M 158 70 L 170 84 L 237 96 L 252 111" fill="none" id="make-me-a-hanzi-animation-3" stroke-dasharray="236 472" stroke-linecap="round" />
    
      <clipPath id="make-me-a-hanzi-clip-4">
        <path d="M 613 641 L 645 650 L 686 662 Q 709 670 720 670 Q 731 672 735 674 Q 740 676 743 680 Q 744 682 744 683 Q 744 689 739 696 Q 733 704 713 717 Q 693 730 685 733 Q 680 735 675 735 Q 672 735 670 734 Q 665 733 655 722 Q 644 710 628 700 Q 612 690 589 678 L 555 661 L 511 643 Q 479 630 471 627 L 438 614 Q 431 612 431 608 L 431 607 Q 432 603 437 603 Q 438 603 441 604 L 467 606 Q 495 610 501 611 Q 509 612 530 617 Q 551 622 563 624 L 613 641 Z" />
      </clipPath>
      <path clip-path="url(#make-me-a-hanzi-clip-4)" d="M 733 685 L 679 697 L 563 643 L 436 608" fill="none" id="make-me-a-hanzi-animation-4" stroke-dasharray="443 886" stroke-linecap="round" />
    
      <clipPath id="make-me-a-hanzi-clip-5">
        <path d="M 580 547 L 535 541 Q 489 534 456 531 Q 423 528 406 525 Q 389 522 385 522 L 355 520 Q 342 519 340 515 Q 339 514 339 512 Q 339 509 343 504 Q 349 498 362 492 Q 375 487 381 485 Q 386 484 392 484 L 398 484 Q 403 484 416 487 Q 430 490 461 495 L 542 506 Q 555 508 580 510 L 643 519 L 703 523 L 771 530 Q 793 532 823 533 Q 853 534 865 536 L 893 538 Q 903 539 906 541 Q 909 544 911 547 Q 911 552 905 557 Q 898 562 885 569 Q 871 576 862 578 Q 853 582 843 582 Q 835 581 818 578 Q 801 574 784 572 L 743 566 Q 691 559 683 558 Q 674 557 644 555 L 580 547 Z" />
      </clipPath>
      <path clip-path="url(#make-me-a-hanzi-clip-5)" d="M 347 511 L 395 503 L 654 539 L 841 558 L 903 549" fill="none" id="make-me-a-hanzi-animation-5" stroke-dasharray="689 1378" stroke-linecap="round" />
    
      <clipPath id="make-me-a-hanzi-clip-6">
        <path d="M 425 422 L 414 426 Q 405 428 399 428 Q 396 429 393 429 Q 389 429 385 428 Q 377 428 375 425 Q 374 424 374 423 Q 374 420 378 416 L 384 412 Q 386 410 393 400 Q 399 390 403 382 Q 406 374 411 352 L 430 273 Q 436 247 437 243 Q 439 238 445 232 Q 450 225 456 225 L 457 225 Q 462 225 465 230 Q 469 235 471 241 L 471 270 L 445 396 C 441 416 441 416 425 422 Z" />
      </clipPath>
      <path clip-path="url(#make-me-a-hanzi-clip-6)" d="M 380 422 L 405 412 L 425 383 L 457 235" fill="none" id="make-me-a-hanzi-animation-6" stroke-dasharray="342 684" stroke-linecap="round" />
    
      <clipPath id="make-me-a-hanzi-clip-7">
        <path d="M 581 438 L 526 431 Q 503 428 479 426 Q 456 424 425 422 C 395 420 415 394 445 396 L 485 399 Q 491 399 521 403 Q 551 406 581 410 L 639 419 L 673 424 L 726 432 Q 755 437 771 438 Q 787 438 791 434 Q 795 430 795 421 L 795 418 Q 793 406 790 392 L 777 341 Q 775 336 771 324 Q 767 311 764 305 Q 761 298 757 298 C 745 280 745 280 753 268 L 758 258 Q 761 252 772 250 Q 781 250 789 256 Q 797 262 804 281 Q 812 299 815 305 L 845 371 L 851 386 Q 855 396 859 403 Q 865 411 871 418 Q 878 424 879 427 L 879 430 Q 879 436 871 445 Q 860 456 845 464 Q 830 473 816 478 Q 801 483 793 483 Q 785 482 765 476 Q 746 468 722 464 Q 697 458 678 455 Q 659 452 639 448 L 581 438 Z" />
      </clipPath>
      <path clip-path="url(#make-me-a-hanzi-clip-7)" d="M 433 421 L 452 410 L 511 414 L 779 459 L 803 456 L 832 429 L 802 335 L 773 268" fill="none" id="make-me-a-hanzi-animation-7" stroke-dasharray="716 1432" stroke-linecap="round" />
    
      <clipPath id="make-me-a-hanzi-clip-8">
        <path d="M 489 378 Q 484 380 481 380 Q 478 380 477 378 Q 476 377 476 376 Q 476 372 480 367 L 489 352 Q 499 333 503 326 Q 508 318 515 310 Q 523 302 531 298 Q 540 292 546 292 Q 548 292 550 293 Q 557 296 561 305 Q 563 310 563 317 Q 563 322 562 328 Q 559 342 552 350 Q 545 359 532 364 Q 519 370 505 374 L 489 378 Z" />
      </clipPath>
      <path clip-path="url(#make-me-a-hanzi-clip-8)" d="M 481 375 L 530 335 L 545 304" fill="none" id="make-me-a-hanzi-animation-8" stroke-dasharray="226 452" stroke-linecap="round" />
    
      <clipPath id="make-me-a-hanzi-clip-9">
        <path d="M 660 315 Q 658 311 658 310 L 658 309 Q 658 308 660 308 Q 661 308 665 310 L 681 320 L 696 328 L 721 341 Q 734 348 741 351 Q 749 354 751 356 Q 752 358 752 360 Q 752 363 750 368 Q 747 376 735 385 Q 725 394 718 398 Q 710 402 706 402 Q 704 402 703 401 Q 699 398 697 386 Q 695 374 691 366 Q 687 358 682 349 Q 677 340 673 334 L 660 315 Z" />
      </clipPath>
      <path clip-path="url(#make-me-a-hanzi-clip-9)" d="M 707 395 L 718 367 L 660 310" fill="none" id="make-me-a-hanzi-animation-9" stroke-dasharray="239 478" stroke-linecap="round" />
    
      <clipPath id="make-me-a-hanzi-clip-10">
        <path d="M 471 241 L 581 250 L 634 257 L 753 268 C 783 271 786 291 757 298 Q 755 298 751 299 L 743 302 Q 735 304 729 304 Q 723 304 711 302 Q 699 300 684 297 Q 669 294 661 293 L 634 289 L 581 282 L 471 270 C 441 267 441 239 471 241 Z" />
      </clipPath>
      <path clip-path="url(#make-me-a-hanzi-clip-10)" d="M 478 248 L 486 257 L 753 291" fill="none" id="make-me-a-hanzi-animation-10" stroke-dasharray="409 818" stroke-linecap="round" />
    
      <clipPath id="make-me-a-hanzi-clip-11">
        <path d="M 581 192 L 537 186 L 498 182 L 467 178 Q 461 178 459 174 L 459 172 Q 459 168 465 162 Q 473 155 487 152 Q 501 150 525 150 Q 537 150 550 151 Q 562 152 581 154 L 633 163 L 659 166 Q 672 166 692 169 L 723 174 L 751 180 Q 758 180 759 187 L 759 189 Q 759 195 748 199 Q 736 204 721 207 Q 707 210 699 210 Q 691 210 667 206 L 633 200 L 581 192 Z" />
      </clipPath>
      <path clip-path="url(#make-me-a-hanzi-clip-11)" d="M 465 173 L 505 166 L 702 191 L 751 188" fill="none" id="make-me-a-hanzi-animation-11" stroke-dasharray="416 832" stroke-linecap="round" />
    
      <clipPath id="make-me-a-hanzi-clip-12">
        <path d="M 563 624 L 570 605 Q 574 592 576 579 Q 579 566 580 547 L 580 510 L 581 438 L 581 410 L 581 282 L 581 250 L 581 192 L 581 154 L 581 93 C 581 63 630 67 631 97 L 633 163 L 633 200 L 634 257 L 634 289 L 639 419 L 639 448 L 643 519 L 644 555 L 649 578 Q 651 591 653 595 Q 656 604 656 608 L 656 610 Q 655 614 648 620 Q 641 627 632 631 Q 624 636 613 641 C 586 655 553 652 563 624 Z" />
      </clipPath>
      <path clip-path="url(#make-me-a-hanzi-clip-12)" d="M 571 621 L 613 597 L 606 121 L 587 101" fill="none" id="make-me-a-hanzi-animation-12" stroke-dasharray="680 1360" stroke-linecap="round" />
    
      <clipPath id="make-me-a-hanzi-clip-13">
        <path d="M 581 93 L 548 90 L 501 85 Q 498 84 469 81 Q 439 78 421 76 L 391 74 Q 384 74 382 70 L 382 69 Q 382 64 387 60 Q 393 55 406 49 L 427 38 Q 435 35 442 35 L 445 35 Q 447 35 459 39 Q 471 42 488 44 Q 504 46 533 50 Q 561 54 608 58 L 678 64 Q 702 65 745 66 L 809 69 L 842 71 Q 854 72 855 77 L 855 78 Q 855 83 849 90 Q 843 97 829 104 Q 816 112 805 114 Q 795 118 785 118 L 767 115 Q 755 112 737 110 Q 720 107 711 106 Q 702 104 668 101 L 631 97 L 581 93 Z" />
      </clipPath>
      <path clip-path="url(#make-me-a-hanzi-clip-13)" d="M 388 70 L 444 57 L 785 93 L 847 78" fill="none" id="make-me-a-hanzi-animation-13" stroke-dasharray="592 1184" stroke-linecap="round" />
    
      <clipPath id="make-me-a-hanzi-clip-14">
        <path d="M 338 -6 L 327 -28 L 308 -62 Q 301 -73 300 -79 Q 298 -85 297 -97 L 297 -120 Q 299 -130 304 -139 Q 310 -148 317 -148 L 320 -148 Q 325 -148 331 -142 Q 339 -135 347 -122 Q 355 -108 363 -86 Q 370 -65 371 -50 Q 372 -44 372 -38 Q 372 -27 369 -16 Q 366 1 363 11 Q 359 21 355 21 Q 352 20 349 14 L 338 -6 Z" />
      </clipPath>
      <path clip-path="url(#make-me-a-hanzi-clip-14)" d="M 356 14 L 348 -42 L 319 -132" fill="none" id="make-me-a-hanzi-animation-14" stroke-dasharray="279 558" stroke-linecap="round" />
    
      <clipPath id="make-me-a-hanzi-clip-15">
        <path d="M 471 2 Q 472 -2 477 -20 Q 482 -39 489 -56 L 502 -87 Q 509 -108 516 -113 Q 524 -119 530 -119 L 532 -119 Q 540 -118 545 -108 Q 551 -98 553 -86 L 553 -79 Q 553 -66 550 -55 Q 546 -41 538 -28 Q 529 -16 515 -5 Q 500 5 485 11 Q 479 13 476 13 Q 473 13 472 12 Q 471 11 471 7 L 471 2 Z" />
      </clipPath>
      <path clip-path="url(#make-me-a-hanzi-clip-15)" d="M 475 9 L 517 -50 L 531 -107" fill="none" id="make-me-a-hanzi-animation-15" stroke-dasharray="259 518" stroke-linecap="round" />
    
      <clipPath id="make-me-a-hanzi-clip-16">
        <path d="M 631 12 Q 632 9 641 -10 Q 649 -30 658 -44 L 675 -73 Q 685 -92 693 -96 Q 699 -101 705 -101 Q 708 -101 710 -100 Q 717 -98 721 -88 Q 724 -81 724 -72 Q 724 -67 723 -62 Q 723 -46 717 -33 Q 712 -20 702 -10 Q 693 0 675 10 Q 658 20 644 22 Q 640 23 637 23 Q 632 23 631 21 Q 630 20 630 17 Q 630 15 631 12 Z" />
      </clipPath>
      <path clip-path="url(#make-me-a-hanzi-clip-16)" d="M 635 18 L 680 -26 L 697 -57 L 704 -85" fill="none" id="make-me-a-hanzi-animation-16" stroke-dasharray="255 510" stroke-linecap="round" />
    
      <clipPath id="make-me-a-hanzi-clip-17">
        <path d="M 798 -2 Q 805 -9 823 -35 L 854 -82 Q 867 -102 875 -112 Q 883 -122 895 -124 L 902 -124 Q 914 -124 919 -119 Q 925 -111 926 -97 L 926 -88 Q 926 -79 925 -72 Q 923 -60 916 -49 Q 909 -38 892 -24 Q 875 -9 855 1 L 819 17 L 798 26 Q 794 28 790 28 Q 786 28 783 25 Q 781 23 781 21 Q 781 16 787 10 L 798 -2 Z" />
      </clipPath>
      <path clip-path="url(#make-me-a-hanzi-clip-17)" d="M 790 19 L 867 -43 L 908 -108" fill="none" id="make-me-a-hanzi-animation-17" stroke-dasharray="304 608" stroke-linecap="round" />
    
  </g>
</svg>