<svg xmlns="http://www.w3.org/2000/svg" version="1.1" viewBox="0 0 1024 1024">
  <g stroke="lightgray" stroke-dasharray="1,1" stroke-width="1" transform="scale(4, 4)">
    <line x1="0" y1="0" x2="256" y2="256" />
    <line x1="256" y1="0" x2="0" y2="256" />
    <line x1="128" y1="0" x2="128" y2="256" />
    <line x1="0" y1="128" x2="256" y2="128" />
  </g>
  <g transform="scale(1.0, -1.0) translate(0.0, -797.00)">
    <style type="text/css">
      
        @keyframes keyframes0 {
          from {
            stroke: blue;
            stroke-dashoffset: 588;
            stroke-width: 128;
          }
          66% {
            animation-timing-function: step-end;
            stroke: blue;
            stroke-dashoffset: 0;
            stroke-width: 128;
          }
          to {
            stroke: black;
            stroke-width: 1024;
          }
        }
        #make-me-a-hanzi-animation-0 {
          animation: keyframes0 0.728515625s both;
          animation-delay: 0s;
          animation-timing-function: linear;
        }
      
        @keyframes keyframes1 {
          from {
            stroke: blue;
            stroke-dashoffset: 454;
            stroke-width: 128;
          }
          60% {
            animation-timing-function: step-end;
            stroke: blue;
            stroke-dashoffset: 0;
            stroke-width: 128;
          }
          to {
            stroke: black;
            stroke-width: 1024;
          }
        }
        #make-me-a-hanzi-animation-1 {
          animation: keyframes1 0.6194661458333334s both;
          animation-delay: 0.728515625s;
          animation-timing-function: linear;
        }
      
        @keyframes keyframes2 {
          from {
            stroke: blue;
            stroke-dashoffset: 652;
            stroke-width: 128;
          }
          68% {
            animation-timing-function: step-end;
            stroke: blue;
            stroke-dashoffset: 0;
            stroke-width: 128;
          }
          to {
            stroke: black;
            stroke-width: 1024;
          }
        }
        #make-me-a-hanzi-animation-2 {
          animation: keyframes2 0.7805989583333334s both;
          animation-delay: 1.3479817708333335s;
          animation-timing-function: linear;
        }
      
        @keyframes keyframes3 {
          from {
            stroke: blue;
            stroke-dashoffset: 512;
            stroke-width: 128;
          }
          63% {
            animation-timing-function: step-end;
            stroke: blue;
            stroke-dashoffset: 0;
            stroke-width: 128;
          }
          to {
            stroke: black;
            stroke-width: 1024;
          }
        }
        #make-me-a-hanzi-animation-3 {
          animation: keyframes3 0.6666666666666666s both;
          animation-delay: 2.128580729166667s;
          animation-timing-function: linear;
        }
      
        @keyframes keyframes4 {
          from {
            stroke: blue;
            stroke-dashoffset: 1110;
            stroke-width: 128;
          }
          78% {
            animation-timing-function: step-end;
            stroke: blue;
            stroke-dashoffset: 0;
            stroke-width: 128;
          }
          to {
            stroke: black;
            stroke-width: 1024;
          }
        }
        #make-me-a-hanzi-animation-4 {
          animation: keyframes4 1.1533203125s both;
          animation-delay: 2.7952473958333335s;
          animation-timing-function: linear;
        }
      
        @keyframes keyframes5 {
          from {
            stroke: blue;
            stroke-dashoffset: 615;
            stroke-width: 128;
          }
          67% {
            animation-timing-function: step-end;
            stroke: blue;
            stroke-dashoffset: 0;
            stroke-width: 128;
          }
          to {
            stroke: black;
            stroke-width: 1024;
          }
        }
        #make-me-a-hanzi-animation-5 {
          animation: keyframes5 0.75048828125s both;
          animation-delay: 3.9485677083333335s;
          animation-timing-function: linear;
        }
      
        @keyframes keyframes6 {
          from {
            stroke: blue;
            stroke-dashoffset: 421;
            stroke-width: 128;
          }
          58% {
            animation-timing-function: step-end;
            stroke: blue;
            stroke-dashoffset: 0;
            stroke-width: 128;
          }
          to {
            stroke: black;
            stroke-width: 1024;
          }
        }
        #make-me-a-hanzi-animation-6 {
          animation: keyframes6 0.5926106770833334s both;
          animation-delay: 4.699055989583334s;
          animation-timing-function: linear;
        }
      
        @keyframes keyframes7 {
          from {
            stroke: blue;
            stroke-dashoffset: 678;
            stroke-width: 128;
          }
          69% {
            animation-timing-function: step-end;
            stroke: blue;
            stroke-dashoffset: 0;
            stroke-width: 128;
          }
          to {
            stroke: black;
            stroke-width: 1024;
          }
        }
        #make-me-a-hanzi-animation-7 {
          animation: keyframes7 0.8017578125s both;
          animation-delay: 5.291666666666667s;
          animation-timing-function: linear;
        }
      
        @keyframes keyframes8 {
          from {
            stroke: blue;
            stroke-dashoffset: 673;
            stroke-width: 128;
          }
          69% {
            animation-timing-function: step-end;
            stroke: blue;
            stroke-dashoffset: 0;
            stroke-width: 128;
          }
          to {
            stroke: black;
            stroke-width: 1024;
          }
        }
        #make-me-a-hanzi-animation-8 {
          animation: keyframes8 0.7976888020833334s both;
          animation-delay: 6.093424479166667s;
          animation-timing-function: linear;
        }
      
        @keyframes keyframes9 {
          from {
            stroke: blue;
            stroke-dashoffset: 784;
            stroke-width: 128;
          }
          72% {
            animation-timing-function: step-end;
            stroke: blue;
            stroke-dashoffset: 0;
            stroke-width: 128;
          }
          to {
            stroke: black;
            stroke-width: 1024;
          }
        }
        #make-me-a-hanzi-animation-9 {
          animation: keyframes9 0.8880208333333334s both;
          animation-delay: 6.89111328125s;
          animation-timing-function: linear;
        }
      
        @keyframes keyframes10 {
          from {
            stroke: blue;
            stroke-dashoffset: 690;
            stroke-width: 128;
          }
          69% {
            animation-timing-function: step-end;
            stroke: blue;
            stroke-dashoffset: 0;
            stroke-width: 128;
          }
          to {
            stroke: black;
            stroke-width: 1024;
          }
        }
        #make-me-a-hanzi-animation-10 {
          animation: keyframes10 0.8115234375s both;
          animation-delay: 7.779134114583333s;
          animation-timing-function: linear;
        }
      
    </style>
    
      <path d="M 339 518 L 436 537 L 461 543 Q 477 546 482 550 Q 490 555 490 560 Q 489 566 475 572 Q 461 578 450 581 Q 439 584 432 584 Q 425 584 410 579 Q 395 574 385 573 L 343 566 L 287 552 L 187 537 L 159 533 Q 146 531 145 528 Q 145 524 152 516 Q 159 508 179 504 Q 194 501 204 501 L 208 501 L 248 507 L 289 512 L 339 518 Z" fill="lightgray" />
    
      <path d="M 180 404 L 165 406 L 141 410 Q 133 412 128 412 Q 123 412 121 410 Q 117 406 117 402 Q 117 397 126 386 Q 135 376 139 365 Q 143 354 145 345 L 161 254 Q 161 247 166 234 Q 171 222 177 218 Q 181 214 186 214 L 188 214 Q 194 216 197 226 L 199 240 L 203 277 L 193 370 C 190 400 189 403 180 404 Z" fill="lightgray" />
    
      <path d="M 445 286 L 473 358 Q 475 366 480 374 Q 485 382 491 388 Q 496 394 503 401 Q 511 408 511 413 Q 511 417 505 425 Q 497 433 481 442 Q 465 452 454 455 Q 443 459 435 459 Q 424 458 402 449 Q 379 439 370 436 Q 360 432 333 426 L 287 418 L 258 414 Q 239 412 180 404 C 150 400 163 368 193 370 L 217 372 Q 221 372 240 376 Q 259 380 284 384 L 331 393 L 393 402 Q 400 403 405 403 Q 413 403 415 400 Q 419 396 419 390 Q 419 384 417 369 L 401 304 C 394 275 434 258 445 286 Z" fill="lightgray" />
    
      <path d="M 325 250 L 414 259 L 445 262 Q 457 262 459 267 Q 460 269 460 270 Q 460 273 457 276 L 445 286 C 423 304 423 304 401 304 L 385 304 Q 381 304 364 299 Q 348 295 327 291 L 282 284 L 255 282 L 222 279 Q 215 278 203 277 C 173 274 169 239 199 240 L 226 241 Q 235 241 269 245 L 325 250 Z" fill="lightgray" />
    
      <path d="M 272 150 L 267 72 Q 265 54 260 16 Q 255 -22 251 -37 Q 248 -53 248 -58 L 248 -61 Q 248 -71 253 -88 Q 259 -108 267 -126 Q 277 -144 284 -144 Q 291 -144 302 -130 Q 313 -116 316 -84 Q 319 -54 321 7 L 323 177 L 325 198 L 325 250 L 327 291 L 331 393 L 333 426 L 339 518 L 343 566 L 345 597 L 345 614 Q 345 626 347 636 Q 349 645 355 656 Q 358 664 358 669 L 358 672 Q 357 677 349 684 Q 342 691 330 697 Q 319 703 304 708 Q 289 714 281 714 Q 269 712 267 708 Q 266 706 266 703 Q 266 701 267 698 Q 267 693 273 679 Q 279 666 281 653 Q 285 640 286 626 Q 287 612 287 594 L 287 552 L 289 512 L 287 418 L 284 384 L 282 284 L 272 150 Z" fill="lightgray" />
    
      <path d="M 269 245 L 240 198 Q 225 174 202 144 Q 179 114 150 82 Q 121 50 102 32 Q 83 14 66 2 L 45 -13 Q 39 -18 39 -22 L 39 -24 Q 40 -28 45 -28 Q 48 -28 52 -26 L 77 -16 Q 91 -10 119 4 Q 145 20 167 36 Q 189 54 211 76 Q 233 98 243 111 Q 254 124 272 150 C 349 260 285 271 269 245 Z" fill="lightgray" />
    
      <path d="M 323 177 L 345 148 Q 357 133 375 105 Q 394 78 407 66 Q 421 50 431 50 L 433 50 Q 444 52 450 61 Q 455 70 457 83 Q 457 102 452 116 Q 447 130 431 144 Q 415 158 391 170 L 352 188 L 325 198 C 300 207 305 201 323 177 Z" fill="lightgray" />
    
      <path d="M 617 431 L 633 468 Q 637 480 647 503 Q 656 526 663 548 Q 671 568 673 576 Q 676 582 682 593 Q 687 604 695 610 Q 701 618 703 620 Q 704 622 704 624 Q 704 630 700 634 Q 695 640 686 648 L 671 658 L 647 669 Q 635 674 631 675 Q 624 675 620 671 Q 617 668 617 660 L 619 633 Q 619 620 615 601 Q 611 582 603 554 Q 596 526 589 504 Q 583 482 566 441 Q 550 400 538 375 Q 527 350 511 322 L 500 302 Q 493 290 493 286 Q 494 283 499 282 Q 505 282 517 294 L 531 308 Q 547 326 561 344 Q 574 362 593 391 L 617 431 Z" fill="lightgray" />
    
      <path d="M 593 391 L 606 390 L 609 390 Q 615 390 630 396 Q 649 402 683 411 L 729 423 Q 753 428 761 430 Q 768 432 774 433 Q 787 433 791 428 Q 792 426 792 424 Q 792 417 787 406 L 751 313 Q 746 303 746 298 Q 746 296 747 295 Q 749 294 751 294 Q 753 294 756 296 L 793 328 Q 801 336 817 349 Q 833 362 841 368 Q 849 373 863 380 Q 878 388 890 392 Q 901 396 907 400 Q 913 404 915 410 L 915 412 Q 915 417 910 424 Q 903 432 888 444 Q 873 456 855 466 Q 836 476 821 482 Q 806 486 799 486 Q 793 486 777 479 Q 761 472 739 465 Q 717 458 672 446 Q 627 434 625 434 Q 623 433 617 431 C 588 422 563 393 593 391 Z" fill="lightgray" />
    
      <path d="M 671 186 L 681 227 L 687 256 Q 690 268 696 278 Q 702 286 703 288 Q 703 294 695 304 Q 687 314 673 320 Q 660 326 645 330 Q 631 334 621 334 Q 611 334 608 331 Q 606 329 606 325 L 606 323 Q 606 318 611 307 Q 615 296 616 284 Q 617 280 617 273 Q 617 266 616 256 Q 615 236 614 225 Q 613 214 606 182 Q 599 150 594 130 Q 588 109 571 72 Q 555 35 537 9 Q 519 -16 491 -41 Q 463 -65 447 -75 L 431 -84 Q 417 -93 417 -97 Q 417 -100 420 -102 Q 421 -103 424 -103 Q 427 -103 433 -101 L 450 -96 Q 471 -91 493 -80 Q 515 -70 537 -51 Q 560 -32 581 -8 Q 601 18 617 47 Q 633 76 641 97 L 653 125 Q 655 132 659 143 L 671 186 Z" fill="lightgray" />
    
      <path d="M 659 143 L 695 83 Q 727 30 732 24 L 771 -37 Q 792 -70 805 -84 Q 817 -98 831 -103 Q 840 -107 855 -107 Q 860 -107 867 -106 Q 883 -106 906 -103 Q 930 -101 946 -98 L 977 -93 Q 989 -92 989 -85 Q 988 -78 979 -73 L 955 -61 L 921 -46 Q 899 -36 873 -21 Q 847 -6 826 11 Q 805 28 778 55 Q 751 82 739 96 Q 725 112 710 132 Q 695 154 687 163 Q 679 173 671 186 C 655 211 644 169 659 143 Z" fill="lightgray" />
    
    
      <clipPath id="make-me-a-hanzi-clip-0">
        <path d="M 339 518 L 436 537 L 461 543 Q 477 546 482 550 Q 490 555 490 560 Q 489 566 475 572 Q 461 578 450 581 Q 439 584 432 584 Q 425 584 410 579 Q 395 574 385 573 L 343 566 L 287 552 L 187 537 L 159 533 Q 146 531 145 528 Q 145 524 152 516 Q 159 508 179 504 Q 194 501 204 501 L 208 501 L 248 507 L 289 512 L 339 518 Z" />
      </clipPath>
      <path clip-path="url(#make-me-a-hanzi-clip-0)" d="M 154 525 L 174 519 L 206 520 L 423 559 L 482 559" fill="none" id="make-me-a-hanzi-animation-0" stroke-dasharray="460 920" stroke-linecap="round" />
    
      <clipPath id="make-me-a-hanzi-clip-1">
        <path d="M 180 404 L 165 406 L 141 410 Q 133 412 128 412 Q 123 412 121 410 Q 117 406 117 402 Q 117 397 126 386 Q 135 376 139 365 Q 143 354 145 345 L 161 254 Q 161 247 166 234 Q 171 222 177 218 Q 181 214 186 214 L 188 214 Q 194 216 197 226 L 199 240 L 203 277 L 193 370 C 190 400 189 403 180 404 Z" />
      </clipPath>
      <path clip-path="url(#make-me-a-hanzi-clip-1)" d="M 127 402 L 162 378 L 187 224" fill="none" id="make-me-a-hanzi-animation-1" stroke-dasharray="326 652" stroke-linecap="round" />
    
      <clipPath id="make-me-a-hanzi-clip-2">
        <path d="M 445 286 L 473 358 Q 475 366 480 374 Q 485 382 491 388 Q 496 394 503 401 Q 511 408 511 413 Q 511 417 505 425 Q 497 433 481 442 Q 465 452 454 455 Q 443 459 435 459 Q 424 458 402 449 Q 379 439 370 436 Q 360 432 333 426 L 287 418 L 258 414 Q 239 412 180 404 C 150 400 163 368 193 370 L 217 372 Q 221 372 240 376 Q 259 380 284 384 L 331 393 L 393 402 Q 400 403 405 403 Q 413 403 415 400 Q 419 396 419 390 Q 419 384 417 369 L 401 304 C 394 275 434 258 445 286 Z" />
      </clipPath>
      <path clip-path="url(#make-me-a-hanzi-clip-2)" d="M 191 402 L 210 389 L 337 409 L 404 426 L 439 424 L 455 410 L 432 316 L 441 296" fill="none" id="make-me-a-hanzi-animation-2" stroke-dasharray="524 1048" stroke-linecap="round" />
    
      <clipPath id="make-me-a-hanzi-clip-3">
        <path d="M 325 250 L 414 259 L 445 262 Q 457 262 459 267 Q 460 269 460 270 Q 460 273 457 276 L 445 286 C 423 304 423 304 401 304 L 385 304 Q 381 304 364 299 Q 348 295 327 291 L 282 284 L 255 282 L 222 279 Q 215 278 203 277 C 173 274 169 239 199 240 L 226 241 Q 235 241 269 245 L 325 250 Z" />
      </clipPath>
      <path clip-path="url(#make-me-a-hanzi-clip-3)" d="M 206 246 L 220 260 L 385 280 L 454 271" fill="none" id="make-me-a-hanzi-animation-3" stroke-dasharray="384 768" stroke-linecap="round" />
    
      <clipPath id="make-me-a-hanzi-clip-4">
        <path d="M 272 150 L 267 72 Q 265 54 260 16 Q 255 -22 251 -37 Q 248 -53 248 -58 L 248 -61 Q 248 -71 253 -88 Q 259 -108 267 -126 Q 277 -144 284 -144 Q 291 -144 302 -130 Q 313 -116 316 -84 Q 319 -54 321 7 L 323 177 L 325 198 L 325 250 L 327 291 L 331 393 L 333 426 L 339 518 L 343 566 L 345 597 L 345 614 Q 345 626 347 636 Q 349 645 355 656 Q 358 664 358 669 L 358 672 Q 357 677 349 684 Q 342 691 330 697 Q 319 703 304 708 Q 289 714 281 714 Q 269 712 267 708 Q 266 706 266 703 Q 266 701 267 698 Q 267 693 273 679 Q 279 666 281 653 Q 285 640 286 626 Q 287 612 287 594 L 287 552 L 289 512 L 287 418 L 284 384 L 282 284 L 272 150 Z" />
      </clipPath>
      <path clip-path="url(#make-me-a-hanzi-clip-4)" d="M 277 703 L 317 662 L 305 285 L 283 -59 L 284 -134" fill="none" id="make-me-a-hanzi-animation-4" stroke-dasharray="982 1964" stroke-linecap="round" />
    
      <clipPath id="make-me-a-hanzi-clip-5">
        <path d="M 269 245 L 240 198 Q 225 174 202 144 Q 179 114 150 82 Q 121 50 102 32 Q 83 14 66 2 L 45 -13 Q 39 -18 39 -22 L 39 -24 Q 40 -28 45 -28 Q 48 -28 52 -26 L 77 -16 Q 91 -10 119 4 Q 145 20 167 36 Q 189 54 211 76 Q 233 98 243 111 Q 254 124 272 150 C 349 260 285 271 269 245 Z" />
      </clipPath>
      <path clip-path="url(#make-me-a-hanzi-clip-5)" d="M 275 239 L 244 157 L 200 100 L 117 22 L 44 -23" fill="none" id="make-me-a-hanzi-animation-5" stroke-dasharray="487 974" stroke-linecap="round" />
    
      <clipPath id="make-me-a-hanzi-clip-6">
        <path d="M 323 177 L 345 148 Q 357 133 375 105 Q 394 78 407 66 Q 421 50 431 50 L 433 50 Q 444 52 450 61 Q 455 70 457 83 Q 457 102 452 116 Q 447 130 431 144 Q 415 158 391 170 L 352 188 L 325 198 C 300 207 305 201 323 177 Z" />
      </clipPath>
      <path clip-path="url(#make-me-a-hanzi-clip-6)" d="M 331 192 L 336 180 L 416 109 L 432 67" fill="none" id="make-me-a-hanzi-animation-6" stroke-dasharray="293 586" stroke-linecap="round" />
    
      <clipPath id="make-me-a-hanzi-clip-7">
        <path d="M 617 431 L 633 468 Q 637 480 647 503 Q 656 526 663 548 Q 671 568 673 576 Q 676 582 682 593 Q 687 604 695 610 Q 701 618 703 620 Q 704 622 704 624 Q 704 630 700 634 Q 695 640 686 648 L 671 658 L 647 669 Q 635 674 631 675 Q 624 675 620 671 Q 617 668 617 660 L 619 633 Q 619 620 615 601 Q 611 582 603 554 Q 596 526 589 504 Q 583 482 566 441 Q 550 400 538 375 Q 527 350 511 322 L 500 302 Q 493 290 493 286 Q 494 283 499 282 Q 505 282 517 294 L 531 308 Q 547 326 561 344 Q 574 362 593 391 L 617 431 Z" />
      </clipPath>
      <path clip-path="url(#make-me-a-hanzi-clip-7)" d="M 629 663 L 656 623 L 624 520 L 597 447 L 564 382 L 498 288" fill="none" id="make-me-a-hanzi-animation-7" stroke-dasharray="550 1100" stroke-linecap="round" />
    
      <clipPath id="make-me-a-hanzi-clip-8">
        <path d="M 593 391 L 606 390 L 609 390 Q 615 390 630 396 Q 649 402 683 411 L 729 423 Q 753 428 761 430 Q 768 432 774 433 Q 787 433 791 428 Q 792 426 792 424 Q 792 417 787 406 L 751 313 Q 746 303 746 298 Q 746 296 747 295 Q 749 294 751 294 Q 753 294 756 296 L 793 328 Q 801 336 817 349 Q 833 362 841 368 Q 849 373 863 380 Q 878 388 890 392 Q 901 396 907 400 Q 913 404 915 410 L 915 412 Q 915 417 910 424 Q 903 432 888 444 Q 873 456 855 466 Q 836 476 821 482 Q 806 486 799 486 Q 793 486 777 479 Q 761 472 739 465 Q 717 458 672 446 Q 627 434 625 434 Q 623 433 617 431 C 588 422 563 393 593 391 Z" />
      </clipPath>
      <path clip-path="url(#make-me-a-hanzi-clip-8)" d="M 600 396 L 631 416 L 766 453 L 793 457 L 814 451 L 839 421 L 750 298" fill="none" id="make-me-a-hanzi-animation-8" stroke-dasharray="545 1090" stroke-linecap="round" />
    
      <clipPath id="make-me-a-hanzi-clip-9">
        <path d="M 671 186 L 681 227 L 687 256 Q 690 268 696 278 Q 702 286 703 288 Q 703 294 695 304 Q 687 314 673 320 Q 660 326 645 330 Q 631 334 621 334 Q 611 334 608 331 Q 606 329 606 325 L 606 323 Q 606 318 611 307 Q 615 296 616 284 Q 617 280 617 273 Q 617 266 616 256 Q 615 236 614 225 Q 613 214 606 182 Q 599 150 594 130 Q 588 109 571 72 Q 555 35 537 9 Q 519 -16 491 -41 Q 463 -65 447 -75 L 431 -84 Q 417 -93 417 -97 Q 417 -100 420 -102 Q 421 -103 424 -103 Q 427 -103 433 -101 L 450 -96 Q 471 -91 493 -80 Q 515 -70 537 -51 Q 560 -32 581 -8 Q 601 18 617 47 Q 633 76 641 97 L 653 125 Q 655 132 659 143 L 671 186 Z" />
      </clipPath>
      <path clip-path="url(#make-me-a-hanzi-clip-9)" d="M 616 325 L 655 282 L 636 173 L 604 79 L 573 21 L 520 -41 L 467 -78 L 423 -97" fill="none" id="make-me-a-hanzi-animation-9" stroke-dasharray="656 1312" stroke-linecap="round" />
    
      <clipPath id="make-me-a-hanzi-clip-10">
        <path d="M 659 143 L 695 83 Q 727 30 732 24 L 771 -37 Q 792 -70 805 -84 Q 817 -98 831 -103 Q 840 -107 855 -107 Q 860 -107 867 -106 Q 883 -106 906 -103 Q 930 -101 946 -98 L 977 -93 Q 989 -92 989 -85 Q 988 -78 979 -73 L 955 -61 L 921 -46 Q 899 -36 873 -21 Q 847 -6 826 11 Q 805 28 778 55 Q 751 82 739 96 Q 725 112 710 132 Q 695 154 687 163 Q 679 173 671 186 C 655 211 644 169 659 143 Z" />
      </clipPath>
      <path clip-path="url(#make-me-a-hanzi-clip-10)" d="M 672 178 L 677 146 L 719 84 L 835 -51 L 882 -69 L 979 -83" fill="none" id="make-me-a-hanzi-animation-10" stroke-dasharray="562 1124" stroke-linecap="round" />
    
  </g>
</svg>