<svg xmlns="http://www.w3.org/2000/svg" version="1.1" viewBox="0 0 1024 1024">
  <g stroke="lightgray" stroke-dasharray="1,1" stroke-width="1" transform="scale(4, 4)">
    <line x1="0" y1="0" x2="256" y2="256" />
    <line x1="256" y1="0" x2="0" y2="256" />
    <line x1="128" y1="0" x2="128" y2="256" />
    <line x1="0" y1="128" x2="256" y2="128" />
  </g>
  <g transform="scale(1.0, -1.0) translate(0.0, -802.00)">
    <style type="text/css">
      
        @keyframes keyframes0 {
          from {
            stroke: blue;
            stroke-dashoffset: 495;
            stroke-width: 128;
          }
          62% {
            animation-timing-function: step-end;
            stroke: blue;
            stroke-dashoffset: 0;
            stroke-width: 128;
          }
          to {
            stroke: black;
            stroke-width: 1024;
          }
        }
        #make-me-a-hanzi-animation-0 {
          animation: keyframes0 0.65283203125s both;
          animation-delay: 0s;
          animation-timing-function: linear;
        }
      
        @keyframes keyframes1 {
          from {
            stroke: blue;
            stroke-dashoffset: 940;
            stroke-width: 128;
          }
          75% {
            animation-timing-function: step-end;
            stroke: blue;
            stroke-dashoffset: 0;
            stroke-width: 128;
          }
          to {
            stroke: black;
            stroke-width: 1024;
          }
        }
        #make-me-a-hanzi-animation-1 {
          animation: keyframes1 1.0149739583333333s both;
          animation-delay: 0.65283203125s;
          animation-timing-function: linear;
        }
      
        @keyframes keyframes2 {
          from {
            stroke: blue;
            stroke-dashoffset: 569;
            stroke-width: 128;
          }
          65% {
            animation-timing-function: step-end;
            stroke: blue;
            stroke-dashoffset: 0;
            stroke-width: 128;
          }
          to {
            stroke: black;
            stroke-width: 1024;
          }
        }
        #make-me-a-hanzi-animation-2 {
          animation: keyframes2 0.7130533854166666s both;
          animation-delay: 1.6678059895833333s;
          animation-timing-function: linear;
        }
      
        @keyframes keyframes3 {
          from {
            stroke: blue;
            stroke-dashoffset: 378;
            stroke-width: 128;
          }
          55% {
            animation-timing-function: step-end;
            stroke: blue;
            stroke-dashoffset: 0;
            stroke-width: 128;
          }
          to {
            stroke: black;
            stroke-width: 1024;
          }
        }
        #make-me-a-hanzi-animation-3 {
          animation: keyframes3 0.5576171875s both;
          animation-delay: 2.380859375s;
          animation-timing-function: linear;
        }
      
        @keyframes keyframes4 {
          from {
            stroke: blue;
            stroke-dashoffset: 492;
            stroke-width: 128;
          }
          62% {
            animation-timing-function: step-end;
            stroke: blue;
            stroke-dashoffset: 0;
            stroke-width: 128;
          }
          to {
            stroke: black;
            stroke-width: 1024;
          }
        }
        #make-me-a-hanzi-animation-4 {
          animation: keyframes4 0.650390625s both;
          animation-delay: 2.9384765625s;
          animation-timing-function: linear;
        }
      
        @keyframes keyframes5 {
          from {
            stroke: blue;
            stroke-dashoffset: 746;
            stroke-width: 128;
          }
          71% {
            animation-timing-function: step-end;
            stroke: blue;
            stroke-dashoffset: 0;
            stroke-width: 128;
          }
          to {
            stroke: black;
            stroke-width: 1024;
          }
        }
        #make-me-a-hanzi-animation-5 {
          animation: keyframes5 0.8570963541666666s both;
          animation-delay: 3.5888671875s;
          animation-timing-function: linear;
        }
      
        @keyframes keyframes6 {
          from {
            stroke: blue;
            stroke-dashoffset: 1419;
            stroke-width: 128;
          }
          82% {
            animation-timing-function: step-end;
            stroke: blue;
            stroke-dashoffset: 0;
            stroke-width: 128;
          }
          to {
            stroke: black;
            stroke-width: 1024;
          }
        }
        #make-me-a-hanzi-animation-6 {
          animation: keyframes6 1.40478515625s both;
          animation-delay: 4.445963541666667s;
          animation-timing-function: linear;
        }
      
        @keyframes keyframes7 {
          from {
            stroke: blue;
            stroke-dashoffset: 399;
            stroke-width: 128;
          }
          56% {
            animation-timing-function: step-end;
            stroke: blue;
            stroke-dashoffset: 0;
            stroke-width: 128;
          }
          to {
            stroke: black;
            stroke-width: 1024;
          }
        }
        #make-me-a-hanzi-animation-7 {
          animation: keyframes7 0.57470703125s both;
          animation-delay: 5.850748697916667s;
          animation-timing-function: linear;
        }
      
    </style>
    
      <path d="M 227 503 Q 213 501 212 496 Q 211 494 211 493 Q 211 489 215 486 Q 220 482 228 478 Q 236 474 243 473 Q 249 472 262 471 L 280 471 L 303 474 Q 318 478 332 481 L 406 499 L 434 508 Q 449 512 456 517 Q 464 522 464 528 Q 464 535 456 540 Q 447 545 430 550 Q 414 555 409 555 Q 402 554 388 548 Q 374 540 354 534 Q 334 527 327 526 L 288 516 Q 250 506 244 506 L 227 503 Z" fill="lightgray" />
    
      <path d="M 364 348 L 466 371 Q 482 374 564 391 L 618 399 L 722 412 L 760 414 Q 778 416 785 420 Q 791 424 791 429 L 791 430 Q 791 436 783 442 Q 774 448 766 452 Q 758 456 748 458 Q 737 461 729 462 Q 720 462 688 455 L 640 446 L 611 441 L 558 431 L 414 402 Q 339 386 252 372 Q 164 359 142 356 L 121 353 Q 106 350 104 344 L 104 343 Q 104 337 111 329 Q 119 321 133 314 Q 148 306 162 304 Q 172 301 178 301 Q 182 301 184 302 Q 190 302 199 305 Q 208 308 252 321 L 314 338 L 364 348 Z" fill="lightgray" />
    
      <path d="M 390 58 L 390 200 L 390 218 L 390 252 Q 394 304 396 310 Q 398 321 398 325 L 398 328 Q 396 333 389 338 Q 382 344 364 348 C 335 356 301 365 314 338 L 324 318 Q 326 314 330 291 Q 333 268 334 250 L 341 44 C 342 14 390 28 390 58 Z" fill="lightgray" />
    
      <path d="M 390 200 L 405 196 Q 412 194 424 194 Q 434 196 451 199 L 496 208 Q 515 212 520 215 Q 525 218 526 224 Q 526 230 515 236 Q 503 242 491 244 Q 478 246 474 246 Q 468 246 430 232 L 390 218 C 362 208 361 208 390 200 Z" fill="lightgray" />
    
      <path d="M 264 22 L 259 116 Q 257 150 257 155 Q 258 160 260 176 Q 263 192 266 200 Q 267 205 267 208 L 267 211 Q 266 214 258 220 Q 250 226 240 229 Q 230 232 212 238 Q 201 240 195 240 Q 188 240 186 238 Q 181 232 181 227 L 181 226 Q 181 220 188 208 Q 196 194 198 184 L 202 154 L 208 115 L 217 8 C 220 -22 266 -8 264 22 Z" fill="lightgray" />
    
      <path d="M 217 8 L 162 -6 Q 160 -7 138 -12 Q 116 -16 113 -16 L 98 -18 Q 86 -20 84 -24 L 84 -26 Q 84 -30 90 -39 Q 99 -50 107 -57 Q 115 -64 132 -76 Q 148 -86 156 -86 L 158 -86 Q 163 -86 172 -80 Q 182 -74 206 -61 Q 230 -48 236 -46 L 540 83 Q 554 88 557 92 Q 560 95 560 98 Q 560 102 553 103 L 549 103 Q 543 103 534 101 L 390 58 L 341 44 L 264 22 L 217 8 Z" fill="lightgray" />
    
      <path d="M 564 391 L 569 366 Q 582 302 590 272 Q 597 242 612 196 Q 626 150 646 103 Q 666 56 689 19 Q 712 -18 742 -54 Q 773 -92 802 -115 Q 832 -138 855 -150 Q 879 -160 894 -163 Q 909 -166 918 -166 Q 935 -166 940 -160 Q 944 -154 944 -142 L 939 -120 Q 937 -113 934 -82 Q 932 -50 932 -42 L 930 22 Q 928 50 928 57 L 928 69 Q 928 75 924 76 Q 921 76 917 64 L 912 48 L 903 11 Q 898 -10 891 -27 Q 885 -44 880 -52 Q 875 -60 871 -62 Q 868 -64 863 -64 Q 859 -64 854 -63 Q 844 -61 827 -48 Q 810 -35 786 -8 Q 762 18 741 50 Q 720 83 698 131 Q 675 180 662 218 Q 648 256 640 290 Q 632 325 627 352 Q 622 380 618 399 L 611 441 L 600 544 Q 598 554 596 590 Q 594 617 594 632 L 594 641 L 597 668 Q 598 682 600 687 Q 602 698 602 704 L 602 707 Q 601 712 588 722 Q 574 730 556 736 Q 538 742 518 745 Q 513 746 509 746 Q 501 746 498 743 Q 494 739 494 734 L 494 731 Q 494 725 500 714 Q 509 700 515 680 Q 521 662 524 641 L 532 590 L 558 431 L 564 391 Z" fill="lightgray" />
    
      <path d="M 690 592 L 701 580 L 726 557 Q 740 544 753 534 Q 766 524 780 518 Q 793 512 804 512 Q 811 513 817 517 Q 824 520 828 526 Q 833 536 833 545 L 833 548 Q 832 558 826 569 Q 820 579 808 586 Q 796 592 783 597 Q 770 602 759 604 Q 748 606 730 609 Q 712 612 703 613 Q 694 614 688 614 Q 678 614 677 610 L 677 608 Q 677 606 678 605 Q 679 604 682 600 L 690 592 Z" fill="lightgray" />
    
    
      <clipPath id="make-me-a-hanzi-clip-0">
        <path d="M 227 503 Q 213 501 212 496 Q 211 494 211 493 Q 211 489 215 486 Q 220 482 228 478 Q 236 474 243 473 Q 249 472 262 471 L 280 471 L 303 474 Q 318 478 332 481 L 406 499 L 434 508 Q 449 512 456 517 Q 464 522 464 528 Q 464 535 456 540 Q 447 545 430 550 Q 414 555 409 555 Q 402 554 388 548 Q 374 540 354 534 Q 334 527 327 526 L 288 516 Q 250 506 244 506 L 227 503 Z" />
      </clipPath>
      <path clip-path="url(#make-me-a-hanzi-clip-0)" d="M 218 492 L 267 490 L 410 528 L 452 529" fill="none" id="make-me-a-hanzi-animation-0" stroke-dasharray="367 734" stroke-linecap="round" />
    
      <clipPath id="make-me-a-hanzi-clip-1">
        <path d="M 364 348 L 466 371 Q 482 374 564 391 L 618 399 L 722 412 L 760 414 Q 778 416 785 420 Q 791 424 791 429 L 791 430 Q 791 436 783 442 Q 774 448 766 452 Q 758 456 748 458 Q 737 461 729 462 Q 720 462 688 455 L 640 446 L 611 441 L 558 431 L 414 402 Q 339 386 252 372 Q 164 359 142 356 L 121 353 Q 106 350 104 344 L 104 343 Q 104 337 111 329 Q 119 321 133 314 Q 148 306 162 304 Q 172 301 178 301 Q 182 301 184 302 Q 190 302 199 305 Q 208 308 252 321 L 314 338 L 364 348 Z" />
      </clipPath>
      <path clip-path="url(#make-me-a-hanzi-clip-1)" d="M 110 344 L 136 334 L 185 332 L 674 430 L 727 437 L 781 430" fill="none" id="make-me-a-hanzi-animation-1" stroke-dasharray="812 1624" stroke-linecap="round" />
    
      <clipPath id="make-me-a-hanzi-clip-2">
        <path d="M 390 58 L 390 200 L 390 218 L 390 252 Q 394 304 396 310 Q 398 321 398 325 L 398 328 Q 396 333 389 338 Q 382 344 364 348 C 335 356 301 365 314 338 L 324 318 Q 326 314 330 291 Q 333 268 334 250 L 341 44 C 342 14 390 28 390 58 Z" />
      </clipPath>
      <path clip-path="url(#make-me-a-hanzi-clip-2)" d="M 321 335 L 361 312 L 362 302 L 365 76 L 345 52" fill="none" id="make-me-a-hanzi-animation-2" stroke-dasharray="441 882" stroke-linecap="round" />
    
      <clipPath id="make-me-a-hanzi-clip-3">
        <path d="M 390 200 L 405 196 Q 412 194 424 194 Q 434 196 451 199 L 496 208 Q 515 212 520 215 Q 525 218 526 224 Q 526 230 515 236 Q 503 242 491 244 Q 478 246 474 246 Q 468 246 430 232 L 390 218 C 362 208 361 208 390 200 Z" />
      </clipPath>
      <path clip-path="url(#make-me-a-hanzi-clip-3)" d="M 399 214 L 403 209 L 419 210 L 474 225 L 517 224" fill="none" id="make-me-a-hanzi-animation-3" stroke-dasharray="250 500" stroke-linecap="round" />
    
      <clipPath id="make-me-a-hanzi-clip-4">
        <path d="M 264 22 L 259 116 Q 257 150 257 155 Q 258 160 260 176 Q 263 192 266 200 Q 267 205 267 208 L 267 211 Q 266 214 258 220 Q 250 226 240 229 Q 230 232 212 238 Q 201 240 195 240 Q 188 240 186 238 Q 181 232 181 227 L 181 226 Q 181 220 188 208 Q 196 194 198 184 L 202 154 L 208 115 L 217 8 C 220 -22 266 -8 264 22 Z" />
      </clipPath>
      <path clip-path="url(#make-me-a-hanzi-clip-4)" d="M 193 228 L 230 197 L 239 39 L 221 16" fill="none" id="make-me-a-hanzi-animation-4" stroke-dasharray="364 728" stroke-linecap="round" />
    
      <clipPath id="make-me-a-hanzi-clip-5">
        <path d="M 217 8 L 162 -6 Q 160 -7 138 -12 Q 116 -16 113 -16 L 98 -18 Q 86 -20 84 -24 L 84 -26 Q 84 -30 90 -39 Q 99 -50 107 -57 Q 115 -64 132 -76 Q 148 -86 156 -86 L 158 -86 Q 163 -86 172 -80 Q 182 -74 206 -61 Q 230 -48 236 -46 L 540 83 Q 554 88 557 92 Q 560 95 560 98 Q 560 102 553 103 L 549 103 Q 543 103 534 101 L 390 58 L 341 44 L 264 22 L 217 8 Z" />
      </clipPath>
      <path clip-path="url(#make-me-a-hanzi-clip-5)" d="M 93 -25 L 118 -38 L 155 -46 L 554 97" fill="none" id="make-me-a-hanzi-animation-5" stroke-dasharray="618 1236" stroke-linecap="round" />
    
      <clipPath id="make-me-a-hanzi-clip-6">
        <path d="M 564 391 L 569 366 Q 582 302 590 272 Q 597 242 612 196 Q 626 150 646 103 Q 666 56 689 19 Q 712 -18 742 -54 Q 773 -92 802 -115 Q 832 -138 855 -150 Q 879 -160 894 -163 Q 909 -166 918 -166 Q 935 -166 940 -160 Q 944 -154 944 -142 L 939 -120 Q 937 -113 934 -82 Q 932 -50 932 -42 L 930 22 Q 928 50 928 57 L 928 69 Q 928 75 924 76 Q 921 76 917 64 L 912 48 L 903 11 Q 898 -10 891 -27 Q 885 -44 880 -52 Q 875 -60 871 -62 Q 868 -64 863 -64 Q 859 -64 854 -63 Q 844 -61 827 -48 Q 810 -35 786 -8 Q 762 18 741 50 Q 720 83 698 131 Q 675 180 662 218 Q 648 256 640 290 Q 632 325 627 352 Q 622 380 618 399 L 611 441 L 600 544 Q 598 554 596 590 Q 594 617 594 632 L 594 641 L 597 668 Q 598 682 600 687 Q 602 698 602 704 L 602 707 Q 601 712 588 722 Q 574 730 556 736 Q 538 742 518 745 Q 513 746 509 746 Q 501 746 498 743 Q 494 739 494 734 L 494 731 Q 494 725 500 714 Q 509 700 515 680 Q 521 662 524 641 L 532 590 L 558 431 L 564 391 Z" />
      </clipPath>
      <path clip-path="url(#make-me-a-hanzi-clip-6)" d="M 506 734 L 556 691 L 569 544 L 606 316 L 644 185 L 704 52 L 743 -6 L 810 -78 L 845 -100 L 887 -109 L 907 -58 L 921 70" fill="none" id="make-me-a-hanzi-animation-6" stroke-dasharray="1291 2582" stroke-linecap="round" />
    
      <clipPath id="make-me-a-hanzi-clip-7">
        <path d="M 690 592 L 701 580 L 726 557 Q 740 544 753 534 Q 766 524 780 518 Q 793 512 804 512 Q 811 513 817 517 Q 824 520 828 526 Q 833 536 833 545 L 833 548 Q 832 558 826 569 Q 820 579 808 586 Q 796 592 783 597 Q 770 602 759 604 Q 748 606 730 609 Q 712 612 703 613 Q 694 614 688 614 Q 678 614 677 610 L 677 608 Q 677 606 678 605 Q 679 604 682 600 L 690 592 Z" />
      </clipPath>
      <path clip-path="url(#make-me-a-hanzi-clip-7)" d="M 684 609 L 776 562 L 808 539" fill="none" id="make-me-a-hanzi-animation-7" stroke-dasharray="271 542" stroke-linecap="round" />
    
  </g>
</svg>