<svg xmlns="http://www.w3.org/2000/svg" version="1.1" viewBox="0 0 1024 1024">
  <g stroke="lightgray" stroke-dasharray="1,1" stroke-width="1" transform="scale(4, 4)">
    <line x1="0" y1="0" x2="256" y2="256" />
    <line x1="256" y1="0" x2="0" y2="256" />
    <line x1="128" y1="0" x2="128" y2="256" />
    <line x1="0" y1="128" x2="256" y2="128" />
  </g>
  <g transform="scale(1.0, -1.0) translate(0.0, -808.50)">
    <style type="text/css">
      
        @keyframes keyframes0 {
          from {
            stroke: blue;
            stroke-dashoffset: 867;
            stroke-width: 128;
          }
          74% {
            animation-timing-function: step-end;
            stroke: blue;
            stroke-dashoffset: 0;
            stroke-width: 128;
          }
          to {
            stroke: black;
            stroke-width: 1024;
          }
        }
        #make-me-a-hanzi-animation-0 {
          animation: keyframes0 0.95556640625s both;
          animation-delay: 0s;
          animation-timing-function: linear;
        }
      
        @keyframes keyframes1 {
          from {
            stroke: blue;
            stroke-dashoffset: 679;
            stroke-width: 128;
          }
          69% {
            animation-timing-function: step-end;
            stroke: blue;
            stroke-dashoffset: 0;
            stroke-width: 128;
          }
          to {
            stroke: black;
            stroke-width: 1024;
          }
        }
        #make-me-a-hanzi-animation-1 {
          animation: keyframes1 0.8025716145833334s both;
          animation-delay: 0.95556640625s;
          animation-timing-function: linear;
        }
      
        @keyframes keyframes2 {
          from {
            stroke: blue;
            stroke-dashoffset: 1024;
            stroke-width: 128;
          }
          77% {
            animation-timing-function: step-end;
            stroke: blue;
            stroke-dashoffset: 0;
            stroke-width: 128;
          }
          to {
            stroke: black;
            stroke-width: 1024;
          }
        }
        #make-me-a-hanzi-animation-2 {
          animation: keyframes2 1.0833333333333333s both;
          animation-delay: 1.7581380208333335s;
          animation-timing-function: linear;
        }
      
        @keyframes keyframes3 {
          from {
            stroke: blue;
            stroke-dashoffset: 395;
            stroke-width: 128;
          }
          56% {
            animation-timing-function: step-end;
            stroke: blue;
            stroke-dashoffset: 0;
            stroke-width: 128;
          }
          to {
            stroke: black;
            stroke-width: 1024;
          }
        }
        #make-me-a-hanzi-animation-3 {
          animation: keyframes3 0.5714518229166666s both;
          animation-delay: 2.841471354166667s;
          animation-timing-function: linear;
        }
      
        @keyframes keyframes4 {
          from {
            stroke: blue;
            stroke-dashoffset: 494;
            stroke-width: 128;
          }
          62% {
            animation-timing-function: step-end;
            stroke: blue;
            stroke-dashoffset: 0;
            stroke-width: 128;
          }
          to {
            stroke: black;
            stroke-width: 1024;
          }
        }
        #make-me-a-hanzi-animation-4 {
          animation: keyframes4 0.6520182291666666s both;
          animation-delay: 3.4129231770833335s;
          animation-timing-function: linear;
        }
      
        @keyframes keyframes5 {
          from {
            stroke: blue;
            stroke-dashoffset: 1370;
            stroke-width: 128;
          }
          82% {
            animation-timing-function: step-end;
            stroke: blue;
            stroke-dashoffset: 0;
            stroke-width: 128;
          }
          to {
            stroke: black;
            stroke-width: 1024;
          }
        }
        #make-me-a-hanzi-animation-5 {
          animation: keyframes5 1.3649088541666667s both;
          animation-delay: 4.06494140625s;
          animation-timing-function: linear;
        }
      
    </style>
    
      <path d="M 594 595 L 698 603 L 753 606 L 781 607 Q 804 609 813 610 Q 822 611 824 621 Q 824 628 818 635 Q 812 642 789.5 653.5 Q 767 665 740 670 Q 730 670 706 664 L 528 633 L 293 599 L 234 592 L 210 588 Q 200 587 198 583 Q 197 578 205 570 Q 218 555 271 543 Q 275 542 291 547 L 316 554 Q 321 556 332 557 L 355 560 L 427 573 Q 540 592 562 592 L 594 595 Z" fill="lightgray" />
    
      <path d="M 230 267 L 268 307 L 306 352 L 326 382 L 392 476 Q 399 488 411 496 Q 422 508 422 512 Q 422 515 416 523 Q 409 531 400 537 Q 391 543 385 548 Q 379 552 355 560 C 333 568 333 568 332 557 L 329 528 Q 329 481 271 389 Q 247 351 222 318 L 170 255 Q 158 239 150 233 L 139 222 Q 131 216 135 212 Q 139 208 150 212 L 164 219 Q 173 224 191 236 L 220 256 L 230 267 Z" fill="lightgray" />
    
      <path d="M 306 352 L 336 353 Q 371 353 416 369 Q 427 370 431 369 Q 436 367 438 359 Q 439 351 432 339 L 412 297 Q 400 271 378 235 Q 356 199 352 194 Q 347 188 332 166 L 306 136 L 285 112 Q 239 54 184 10 Q 160 -10 128 -34 L 106 -48 L 92 -59 Q 87 -64 89 -69 Q 90 -74 100 -71 L 118 -65 Q 122 -64 148 -53 Q 173 -41 196 -26 L 257 18 Q 271 28 311 68 Q 332 87 362 126 L 413 194 Q 449 246 471 285 Q 493 323 520 350 Q 534 360 534 366 Q 534 372 525 382 Q 516 391 512 394 Q 473 419 459 417 L 437 409 L 386 392 L 326 382 C 296 377 276 351 306 352 Z" fill="lightgray" />
    
      <path d="M 332 166 L 329 182 Q 329 222 262 256 Q 240 264 230 267 C 210 273 210 273 220 256 L 228 242 L 239 225 L 255 198 Q 284 153 294 146 L 306 136 C 329 117 338 137 332 166 Z" fill="lightgray" />
    
      <path d="M 611 292 Q 697 320 711 327 Q 724 333 778 355 Q 804 368 828 372 Q 873 383 815 435 Q 790 457 780 457 Q 766 457 766 444 Q 763 427 739 403 Q 715 379 685 359 L 614 311 C 589 294 582 283 611 292 Z" fill="lightgray" />
    
      <path d="M 607 80 L 606 97 Q 606 110 607 118 L 611 292 L 614 311 L 630 428 Q 637 485 646 522 Q 654 558 650 562 Q 636 580 594 595 C 567 607 559 610 562 592 Q 560 585 566 566 Q 572 546 570 498 Q 562 391 556 223 Q 550 54 556 33 Q 568 -4 593 -28 Q 609 -47 654 -61 Q 699 -75 767 -76 Q 913 -77 969 -18 Q 985 -2 985 9 L 985 18 L 981 28 L 978 34 L 977 37 Q 960 73 951 148 Q 948 166 944 169 Q 937 173 929 133 Q 920 92 919 84 Q 917 75 907 54 Q 897 32 882 20 Q 873 7 828 -3 Q 782 -12 731 -7 Q 679 -2 663 7 Q 647 16 642 18 Q 637 19 629 25 Q 620 31 619 35 Q 618 39 613 48 Q 608 56 608 68 L 607 80 Z" fill="lightgray" />
    
    
      <clipPath id="make-me-a-hanzi-clip-0">
        <path d="M 594 595 L 698 603 L 753 606 L 781 607 Q 804 609 813 610 Q 822 611 824 621 Q 824 628 818 635 Q 812 642 789.5 653.5 Q 767 665 740 670 Q 730 670 706 664 L 528 633 L 293 599 L 234 592 L 210 588 Q 200 587 198 583 Q 197 578 205 570 Q 218 555 271 543 Q 275 542 291 547 L 316 554 Q 321 556 332 557 L 355 560 L 427 573 Q 540 592 562 592 L 594 595 Z" />
      </clipPath>
      <path clip-path="url(#make-me-a-hanzi-clip-0)" d="M 207 579 L 278 570 L 508 609 L 738 638 L 811 624" fill="none" id="make-me-a-hanzi-animation-0" stroke-dasharray="739 1478" stroke-linecap="round" />
    
      <clipPath id="make-me-a-hanzi-clip-1">
        <path d="M 230 267 L 268 307 L 306 352 L 326 382 L 392 476 Q 399 488 411 496 Q 422 508 422 512 Q 422 515 416 523 Q 409 531 400 537 Q 391 543 385 548 Q 379 552 355 560 C 333 568 333 568 332 557 L 329 528 Q 329 481 271 389 Q 247 351 222 318 L 170 255 Q 158 239 150 233 L 139 222 Q 131 216 135 212 Q 139 208 150 212 L 164 219 Q 173 224 191 236 L 220 256 L 230 267 Z" />
      </clipPath>
      <path clip-path="url(#make-me-a-hanzi-clip-1)" d="M 339 549 L 368 510 L 325 427 L 230 295 L 143 215" fill="none" id="make-me-a-hanzi-animation-1" stroke-dasharray="551 1102" stroke-linecap="round" />
    
      <clipPath id="make-me-a-hanzi-clip-2">
        <path d="M 306 352 L 336 353 Q 371 353 416 369 Q 427 370 431 369 Q 436 367 438 359 Q 439 351 432 339 L 412 297 Q 400 271 378 235 Q 356 199 352 194 Q 347 188 332 166 L 306 136 L 285 112 Q 239 54 184 10 Q 160 -10 128 -34 L 106 -48 L 92 -59 Q 87 -64 89 -69 Q 90 -74 100 -71 L 118 -65 Q 122 -64 148 -53 Q 173 -41 196 -26 L 257 18 Q 271 28 311 68 Q 332 87 362 126 L 413 194 Q 449 246 471 285 Q 493 323 520 350 Q 534 360 534 366 Q 534 372 525 382 Q 516 391 512 394 Q 473 419 459 417 L 437 409 L 386 392 L 326 382 C 296 377 276 351 306 352 Z" />
      </clipPath>
      <path clip-path="url(#make-me-a-hanzi-clip-2)" d="M 313 354 L 336 369 L 437 389 L 463 382 L 478 366 L 472 346 L 389 203 L 316 108 L 239 30 L 159 -30 L 95 -66" fill="none" id="make-me-a-hanzi-animation-2" stroke-dasharray="896 1792" stroke-linecap="round" />
    
      <clipPath id="make-me-a-hanzi-clip-3">
        <path d="M 332 166 L 329 182 Q 329 222 262 256 Q 240 264 230 267 C 210 273 210 273 220 256 L 228 242 L 239 225 L 255 198 Q 284 153 294 146 L 306 136 C 329 117 338 137 332 166 Z" />
      </clipPath>
      <path clip-path="url(#make-me-a-hanzi-clip-3)" d="M 230 257 L 298 188 L 304 146" fill="none" id="make-me-a-hanzi-animation-3" stroke-dasharray="267 534" stroke-linecap="round" />
    
      <clipPath id="make-me-a-hanzi-clip-4">
        <path d="M 611 292 Q 697 320 711 327 Q 724 333 778 355 Q 804 368 828 372 Q 873 383 815 435 Q 790 457 780 457 Q 766 457 766 444 Q 763 427 739 403 Q 715 379 685 359 L 614 311 C 589 294 582 283 611 292 Z" />
      </clipPath>
      <path clip-path="url(#make-me-a-hanzi-clip-4)" d="M 778 445 L 791 403 L 740 367 L 624 305" fill="none" id="make-me-a-hanzi-animation-4" stroke-dasharray="366 732" stroke-linecap="round" />
    
      <clipPath id="make-me-a-hanzi-clip-5">
        <path d="M 607 80 L 606 97 Q 606 110 607 118 L 611 292 L 614 311 L 630 428 Q 637 485 646 522 Q 654 558 650 562 Q 636 580 594 595 C 567 607 559 610 562 592 Q 560 585 566 566 Q 572 546 570 498 Q 562 391 556 223 Q 550 54 556 33 Q 568 -4 593 -28 Q 609 -47 654 -61 Q 699 -75 767 -76 Q 913 -77 969 -18 Q 985 -2 985 9 L 985 18 L 981 28 L 978 34 L 977 37 Q 960 73 951 148 Q 948 166 944 169 Q 937 173 929 133 Q 920 92 919 84 Q 917 75 907 54 Q 897 32 882 20 Q 873 7 828 -3 Q 782 -12 731 -7 Q 679 -2 663 7 Q 647 16 642 18 Q 637 19 629 25 Q 620 31 619 35 Q 618 39 613 48 Q 608 56 608 68 L 607 80 Z" />
      </clipPath>
      <path clip-path="url(#make-me-a-hanzi-clip-5)" d="M 568 587 L 593 567 L 610 540 L 585 301 L 579 99 L 584 41 L 611 -2 L 669 -31 L 760 -43 L 830 -38 L 897 -19 L 937 14 L 943 164" fill="none" id="make-me-a-hanzi-animation-5" stroke-dasharray="1242 2484" stroke-linecap="round" />
    
  </g>
</svg>