<svg xmlns="http://www.w3.org/2000/svg" version="1.1" viewBox="0 0 1024 1024">
  <g stroke="lightgray" stroke-dasharray="1,1" stroke-width="1" transform="scale(4, 4)">
    <line x1="0" y1="0" x2="256" y2="256" />
    <line x1="256" y1="0" x2="0" y2="256" />
    <line x1="128" y1="0" x2="128" y2="256" />
    <line x1="0" y1="128" x2="256" y2="128" />
  </g>
  <g transform="scale(1.0, -1.0) translate(0.0, -833.50)">
    <style type="text/css">
      
        @keyframes keyframes0 {
          from {
            stroke: blue;
            stroke-dashoffset: 533;
            stroke-width: 128;
          }
          63% {
            animation-timing-function: step-end;
            stroke: blue;
            stroke-dashoffset: 0;
            stroke-width: 128;
          }
          to {
            stroke: black;
            stroke-width: 1024;
          }
        }
        #make-me-a-hanzi-animation-0 {
          animation: keyframes0 0.6837565104166666s both;
          animation-delay: 0s;
          animation-timing-function: linear;
        }
      
        @keyframes keyframes1 {
          from {
            stroke: blue;
            stroke-dashoffset: 643;
            stroke-width: 128;
          }
          68% {
            animation-timing-function: step-end;
            stroke: blue;
            stroke-dashoffset: 0;
            stroke-width: 128;
          }
          to {
            stroke: black;
            stroke-width: 1024;
          }
        }
        #make-me-a-hanzi-animation-1 {
          animation: keyframes1 0.7732747395833334s both;
          animation-delay: 0.6837565104166666s;
          animation-timing-function: linear;
        }
      
        @keyframes keyframes2 {
          from {
            stroke: blue;
            stroke-dashoffset: 885;
            stroke-width: 128;
          }
          74% {
            animation-timing-function: step-end;
            stroke: blue;
            stroke-dashoffset: 0;
            stroke-width: 128;
          }
          to {
            stroke: black;
            stroke-width: 1024;
          }
        }
        #make-me-a-hanzi-animation-2 {
          animation: keyframes2 0.97021484375s both;
          animation-delay: 1.45703125s;
          animation-timing-function: linear;
        }
      
        @keyframes keyframes3 {
          from {
            stroke: blue;
            stroke-dashoffset: 360;
            stroke-width: 128;
          }
          54% {
            animation-timing-function: step-end;
            stroke: blue;
            stroke-dashoffset: 0;
            stroke-width: 128;
          }
          to {
            stroke: black;
            stroke-width: 1024;
          }
        }
        #make-me-a-hanzi-animation-3 {
          animation: keyframes3 0.54296875s both;
          animation-delay: 2.42724609375s;
          animation-timing-function: linear;
        }
      
        @keyframes keyframes4 {
          from {
            stroke: blue;
            stroke-dashoffset: 465;
            stroke-width: 128;
          }
          60% {
            animation-timing-function: step-end;
            stroke: blue;
            stroke-dashoffset: 0;
            stroke-width: 128;
          }
          to {
            stroke: black;
            stroke-width: 1024;
          }
        }
        #make-me-a-hanzi-animation-4 {
          animation: keyframes4 0.62841796875s both;
          animation-delay: 2.97021484375s;
          animation-timing-function: linear;
        }
      
        @keyframes keyframes5 {
          from {
            stroke: blue;
            stroke-dashoffset: 641;
            stroke-width: 128;
          }
          68% {
            animation-timing-function: step-end;
            stroke: blue;
            stroke-dashoffset: 0;
            stroke-width: 128;
          }
          to {
            stroke: black;
            stroke-width: 1024;
          }
        }
        #make-me-a-hanzi-animation-5 {
          animation: keyframes5 0.7716471354166666s both;
          animation-delay: 3.5986328125s;
          animation-timing-function: linear;
        }
      
        @keyframes keyframes6 {
          from {
            stroke: blue;
            stroke-dashoffset: 478;
            stroke-width: 128;
          }
          61% {
            animation-timing-function: step-end;
            stroke: blue;
            stroke-dashoffset: 0;
            stroke-width: 128;
          }
          to {
            stroke: black;
            stroke-width: 1024;
          }
        }
        #make-me-a-hanzi-animation-6 {
          animation: keyframes6 0.6389973958333334s both;
          animation-delay: 4.370279947916667s;
          animation-timing-function: linear;
        }
      
        @keyframes keyframes7 {
          from {
            stroke: blue;
            stroke-dashoffset: 624;
            stroke-width: 128;
          }
          67% {
            animation-timing-function: step-end;
            stroke: blue;
            stroke-dashoffset: 0;
            stroke-width: 128;
          }
          to {
            stroke: black;
            stroke-width: 1024;
          }
        }
        #make-me-a-hanzi-animation-7 {
          animation: keyframes7 0.7578125s both;
          animation-delay: 5.00927734375s;
          animation-timing-function: linear;
        }
      
        @keyframes keyframes8 {
          from {
            stroke: blue;
            stroke-dashoffset: 844;
            stroke-width: 128;
          }
          73% {
            animation-timing-function: step-end;
            stroke: blue;
            stroke-dashoffset: 0;
            stroke-width: 128;
          }
          to {
            stroke: black;
            stroke-width: 1024;
          }
        }
        #make-me-a-hanzi-animation-8 {
          animation: keyframes8 0.9368489583333334s both;
          animation-delay: 5.76708984375s;
          animation-timing-function: linear;
        }
      
        @keyframes keyframes9 {
          from {
            stroke: blue;
            stroke-dashoffset: 859;
            stroke-width: 128;
          }
          74% {
            animation-timing-function: step-end;
            stroke: blue;
            stroke-dashoffset: 0;
            stroke-width: 128;
          }
          to {
            stroke: black;
            stroke-width: 1024;
          }
        }
        #make-me-a-hanzi-animation-9 {
          animation: keyframes9 0.9490559895833334s both;
          animation-delay: 6.703938802083333s;
          animation-timing-function: linear;
        }
      
        @keyframes keyframes10 {
          from {
            stroke: blue;
            stroke-dashoffset: 462;
            stroke-width: 128;
          }
          60% {
            animation-timing-function: step-end;
            stroke: blue;
            stroke-dashoffset: 0;
            stroke-width: 128;
          }
          to {
            stroke: black;
            stroke-width: 1024;
          }
        }
        #make-me-a-hanzi-animation-10 {
          animation: keyframes10 0.6259765625s both;
          animation-delay: 7.652994791666666s;
          animation-timing-function: linear;
        }
      
    </style>
    
      <path d="M 293 583 Q 429 616 436 621 Q 443 628 439 637 Q 432 647 404 654 Q 374 658 345 647 Q 308 634 267 622 Q 221 610 168 604 Q 132 597 159 582 Q 199 558 253 574 L 293 583 Z" fill="lightgray" />
    
      <path d="M 184 325 Q 191 337 203 350 L 245 407 L 263 435 Q 308 516 324 531 Q 331 540 327 551 Q 318 570 293 583 C 267 598 243 602 253 574 L 254 573 Q 273 531 194 399 Q 157 338 105 269 Q 96 262 95 256 Q 92 246 104 249 Q 120 252 170 308 L 184 325 Z" fill="lightgray" />
    
      <path d="M 245 407 Q 258 406 277 409 Q 326 416 329 410 Q 336 397 323 340 Q 314 279 264 192 Q 218 98 128 2 Q 106 -17 127 -12 Q 235 12 345 237 Q 367 288 387 344 Q 405 398 419 415 Q 431 425 424 437 Q 418 447 363 466 Q 350 470 328 457 Q 307 447 263 435 C 234 427 215 406 245 407 Z" fill="lightgray" />
    
      <path d="M 170 308 Q 174 301 189 287 Q 238 233 248 231 Q 257 231 261 241 Q 265 251 262 275 Q 259 291 237 304 Q 192 325 184 325 C 155 330 155 330 170 308 Z" fill="lightgray" />
    
      <path d="M 523 676 Q 513 680 490 685 Q 478 688 475 683 Q 469 677 477 662 Q 501 610 516 525 Q 517 500 533 483 Q 549 462 554 477 Q 558 490 558 514 L 554 543 Q 542 622 541 647 C 540 670 540 670 523 676 Z" fill="lightgray" />
    
      <path d="M 766 569 Q 797 641 826 656 Q 842 674 829 691 Q 813 704 765 729 Q 747 736 727 730 Q 652 697 523 676 C 493 671 511 645 541 647 Q 554 647 571 652 L 713 681 Q 731 685 738 678 Q 745 671 742 654 Q 732 611 718 577 C 707 549 754 542 766 569 Z" fill="lightgray" />
    
      <path d="M 558 514 Q 570 508 587 512 Q 647 525 776 537 Q 786 538 788 547 Q 788 554 766 569 L 718 577 Q 714 577 711 576 Q 624 554 554 543 C 524 538 530 524 558 514 Z" fill="lightgray" />
    
      <path d="M 526 431 Q 507 446 485 453 Q 478 454 471 447 Q 468 441 475 431 Q 508 361 482 201 Q 466 149 471 127 Q 478 96 490 84 Q 500 71 509 84 Q 534 115 535 224 Q 535 351 544 403 C 546 417 546 417 526 431 Z" fill="lightgray" />
    
      <path d="M 743 163 Q 736 141 750 118 Q 765 90 774 90 Q 789 91 804 125 Q 819 152 817 172 Q 790 362 823 416 Q 836 438 799 460 Q 777 475 749 485 Q 733 491 710 482 Q 629 443 526 431 C 496 427 515 397 544 403 Q 548 403 553 404 Q 709 444 729 433 Q 739 414 744 359 Q 751 196 743 163 Z" fill="lightgray" />
    
      <path d="M 612 301 Q 619 126 572 50 Q 553 19 516 -9 Q 480 -37 402 -72 Q 389 -76 386 -79 Q 382 -83 396 -87 Q 468 -93 570 -26 Q 588 -11 602 6 Q 656 73 663 232 Q 667 304 677 330 Q 681 340 674 348 Q 623 390 588 378 Q 570 371 585 355 Q 612 328 612 301 Z" fill="lightgray" />
    
      <path d="M 699 57 Q 747 8 803 -63 Q 818 -84 833 -89 Q 840 -90 849 -82 Q 862 -69 852 -25 Q 843 17 779 49 Q 769 59 702 87 Q 693 93 691 81 Q 690 68 699 57 Z" fill="lightgray" />
    
    
      <clipPath id="make-me-a-hanzi-clip-0">
        <path d="M 293 583 Q 429 616 436 621 Q 443 628 439 637 Q 432 647 404 654 Q 374 658 345 647 Q 308 634 267 622 Q 221 610 168 604 Q 132 597 159 582 Q 199 558 253 574 L 293 583 Z" />
      </clipPath>
      <path clip-path="url(#make-me-a-hanzi-clip-0)" d="M 160 594 L 185 588 L 223 590 L 301 606 L 371 629 L 431 629" fill="none" id="make-me-a-hanzi-animation-0" stroke-dasharray="405 810" stroke-linecap="round" />
    
      <clipPath id="make-me-a-hanzi-clip-1">
        <path d="M 184 325 Q 191 337 203 350 L 245 407 L 263 435 Q 308 516 324 531 Q 331 540 327 551 Q 318 570 293 583 C 267 598 243 602 253 574 L 254 573 Q 273 531 194 399 Q 157 338 105 269 Q 96 262 95 256 Q 92 246 104 249 Q 120 252 170 308 L 184 325 Z" />
      </clipPath>
      <path clip-path="url(#make-me-a-hanzi-clip-1)" d="M 261 571 L 291 543 L 260 474 L 176 339 L 128 278 L 102 256" fill="none" id="make-me-a-hanzi-animation-1" stroke-dasharray="515 1030" stroke-linecap="round" />
    
      <clipPath id="make-me-a-hanzi-clip-2">
        <path d="M 245 407 Q 258 406 277 409 Q 326 416 329 410 Q 336 397 323 340 Q 314 279 264 192 Q 218 98 128 2 Q 106 -17 127 -12 Q 235 12 345 237 Q 367 288 387 344 Q 405 398 419 415 Q 431 425 424 437 Q 418 447 363 466 Q 350 470 328 457 Q 307 447 263 435 C 234 427 215 406 245 407 Z" />
      </clipPath>
      <path clip-path="url(#make-me-a-hanzi-clip-2)" d="M 250 411 L 275 425 L 332 434 L 356 432 L 371 418 L 340 292 L 298 198 L 220 76 L 166 20 L 131 -5" fill="none" id="make-me-a-hanzi-animation-2" stroke-dasharray="757 1514" stroke-linecap="round" />
    
      <clipPath id="make-me-a-hanzi-clip-3">
        <path d="M 170 308 Q 174 301 189 287 Q 238 233 248 231 Q 257 231 261 241 Q 265 251 262 275 Q 259 291 237 304 Q 192 325 184 325 C 155 330 155 330 170 308 Z" />
      </clipPath>
      <path clip-path="url(#make-me-a-hanzi-clip-3)" d="M 179 308 L 191 308 L 229 280 L 249 240" fill="none" id="make-me-a-hanzi-animation-3" stroke-dasharray="232 464" stroke-linecap="round" />
    
      <clipPath id="make-me-a-hanzi-clip-4">
        <path d="M 523 676 Q 513 680 490 685 Q 478 688 475 683 Q 469 677 477 662 Q 501 610 516 525 Q 517 500 533 483 Q 549 462 554 477 Q 558 490 558 514 L 554 543 Q 542 622 541 647 C 540 670 540 670 523 676 Z" />
      </clipPath>
      <path clip-path="url(#make-me-a-hanzi-clip-4)" d="M 484 676 L 504 659 L 517 631 L 544 482" fill="none" id="make-me-a-hanzi-animation-4" stroke-dasharray="337 674" stroke-linecap="round" />
    
      <clipPath id="make-me-a-hanzi-clip-5">
        <path d="M 766 569 Q 797 641 826 656 Q 842 674 829 691 Q 813 704 765 729 Q 747 736 727 730 Q 652 697 523 676 C 493 671 511 645 541 647 Q 554 647 571 652 L 713 681 Q 731 685 738 678 Q 745 671 742 654 Q 732 611 718 577 C 707 549 754 542 766 569 Z" />
      </clipPath>
      <path clip-path="url(#make-me-a-hanzi-clip-5)" d="M 532 675 L 541 667 L 560 665 L 731 706 L 752 703 L 783 673 L 751 596 L 725 581" fill="none" id="make-me-a-hanzi-animation-5" stroke-dasharray="513 1026" stroke-linecap="round" />
    
      <clipPath id="make-me-a-hanzi-clip-6">
        <path d="M 558 514 Q 570 508 587 512 Q 647 525 776 537 Q 786 538 788 547 Q 788 554 766 569 L 718 577 Q 714 577 711 576 Q 624 554 554 543 C 524 538 530 524 558 514 Z" />
      </clipPath>
      <path clip-path="url(#make-me-a-hanzi-clip-6)" d="M 562 537 L 574 528 L 718 554 L 778 547" fill="none" id="make-me-a-hanzi-animation-6" stroke-dasharray="350 700" stroke-linecap="round" />
    
      <clipPath id="make-me-a-hanzi-clip-7">
        <path d="M 526 431 Q 507 446 485 453 Q 478 454 471 447 Q 468 441 475 431 Q 508 361 482 201 Q 466 149 471 127 Q 478 96 490 84 Q 500 71 509 84 Q 534 115 535 224 Q 535 351 544 403 C 546 417 546 417 526 431 Z" />
      </clipPath>
      <path clip-path="url(#make-me-a-hanzi-clip-7)" d="M 481 443 L 506 417 L 516 381 L 511 213 L 498 125 L 500 88" fill="none" id="make-me-a-hanzi-animation-7" stroke-dasharray="496 992" stroke-linecap="round" />
    
      <clipPath id="make-me-a-hanzi-clip-8">
        <path d="M 743 163 Q 736 141 750 118 Q 765 90 774 90 Q 789 91 804 125 Q 819 152 817 172 Q 790 362 823 416 Q 836 438 799 460 Q 777 475 749 485 Q 733 491 710 482 Q 629 443 526 431 C 496 427 515 397 544 403 Q 548 403 553 404 Q 709 444 729 433 Q 739 414 744 359 Q 751 196 743 163 Z" />
      </clipPath>
      <path clip-path="url(#make-me-a-hanzi-clip-8)" d="M 535 430 L 543 422 L 563 419 L 725 460 L 746 456 L 765 440 L 778 421 L 774 324 L 781 167 L 775 101" fill="none" id="make-me-a-hanzi-animation-8" stroke-dasharray="716 1432" stroke-linecap="round" />
    
      <clipPath id="make-me-a-hanzi-clip-9">
        <path d="M 612 301 Q 619 126 572 50 Q 553 19 516 -9 Q 480 -37 402 -72 Q 389 -76 386 -79 Q 382 -83 396 -87 Q 468 -93 570 -26 Q 588 -11 602 6 Q 656 73 663 232 Q 667 304 677 330 Q 681 340 674 348 Q 623 390 588 378 Q 570 371 585 355 Q 612 328 612 301 Z" />
      </clipPath>
      <path clip-path="url(#make-me-a-hanzi-clip-9)" d="M 590 366 L 615 357 L 642 324 L 631 149 L 608 64 L 579 16 L 534 -23 L 477 -56 L 392 -82" fill="none" id="make-me-a-hanzi-animation-9" stroke-dasharray="731 1462" stroke-linecap="round" />
    
      <clipPath id="make-me-a-hanzi-clip-10">
        <path d="M 699 57 Q 747 8 803 -63 Q 818 -84 833 -89 Q 840 -90 849 -82 Q 862 -69 852 -25 Q 843 17 779 49 Q 769 59 702 87 Q 693 93 691 81 Q 690 68 699 57 Z" />
      </clipPath>
      <path clip-path="url(#make-me-a-hanzi-clip-10)" d="M 701 76 L 805 -10 L 825 -40 L 834 -74" fill="none" id="make-me-a-hanzi-animation-10" stroke-dasharray="334 668" stroke-linecap="round" />
    
  </g>
</svg>