<svg xmlns="http://www.w3.org/2000/svg" version="1.1" viewBox="0 0 1024 1024">
  <g stroke="lightgray" stroke-dasharray="1,1" stroke-width="1" transform="scale(4, 4)">
    <line x1="0" y1="0" x2="256" y2="256" />
    <line x1="256" y1="0" x2="0" y2="256" />
    <line x1="128" y1="0" x2="128" y2="256" />
    <line x1="0" y1="128" x2="256" y2="128" />
  </g>
  <g transform="scale(1.0, -1.0) translate(0.0, -794.50)">
    <style type="text/css">
      
        @keyframes keyframes0 {
          from {
            stroke: blue;
            stroke-dashoffset: 405;
            stroke-width: 128;
          }
          57% {
            animation-timing-function: step-end;
            stroke: blue;
            stroke-dashoffset: 0;
            stroke-width: 128;
          }
          to {
            stroke: black;
            stroke-width: 1024;
          }
        }
        #make-me-a-hanzi-animation-0 {
          animation: keyframes0 0.57958984375s both;
          animation-delay: 0s;
          animation-timing-function: linear;
        }
      
        @keyframes keyframes1 {
          from {
            stroke: blue;
            stroke-dashoffset: 406;
            stroke-width: 128;
          }
          57% {
            animation-timing-function: step-end;
            stroke: blue;
            stroke-dashoffset: 0;
            stroke-width: 128;
          }
          to {
            stroke: black;
            stroke-width: 1024;
          }
        }
        #make-me-a-hanzi-animation-1 {
          animation: keyframes1 0.5804036458333334s both;
          animation-delay: 0.57958984375s;
          animation-timing-function: linear;
        }
      
        @keyframes keyframes2 {
          from {
            stroke: blue;
            stroke-dashoffset: 661;
            stroke-width: 128;
          }
          68% {
            animation-timing-function: step-end;
            stroke: blue;
            stroke-dashoffset: 0;
            stroke-width: 128;
          }
          to {
            stroke: black;
            stroke-width: 1024;
          }
        }
        #make-me-a-hanzi-animation-2 {
          animation: keyframes2 0.7879231770833334s both;
          animation-delay: 1.1599934895833335s;
          animation-timing-function: linear;
        }
      
        @keyframes keyframes3 {
          from {
            stroke: blue;
            stroke-dashoffset: 652;
            stroke-width: 128;
          }
          68% {
            animation-timing-function: step-end;
            stroke: blue;
            stroke-dashoffset: 0;
            stroke-width: 128;
          }
          to {
            stroke: black;
            stroke-width: 1024;
          }
        }
        #make-me-a-hanzi-animation-3 {
          animation: keyframes3 0.7805989583333334s both;
          animation-delay: 1.947916666666667s;
          animation-timing-function: linear;
        }
      
        @keyframes keyframes4 {
          from {
            stroke: blue;
            stroke-dashoffset: 774;
            stroke-width: 128;
          }
          72% {
            animation-timing-function: step-end;
            stroke: blue;
            stroke-dashoffset: 0;
            stroke-width: 128;
          }
          to {
            stroke: black;
            stroke-width: 1024;
          }
        }
        #make-me-a-hanzi-animation-4 {
          animation: keyframes4 0.8798828125s both;
          animation-delay: 2.7285156250000004s;
          animation-timing-function: linear;
        }
      
        @keyframes keyframes5 {
          from {
            stroke: blue;
            stroke-dashoffset: 676;
            stroke-width: 128;
          }
          69% {
            animation-timing-function: step-end;
            stroke: blue;
            stroke-dashoffset: 0;
            stroke-width: 128;
          }
          to {
            stroke: black;
            stroke-width: 1024;
          }
        }
        #make-me-a-hanzi-animation-5 {
          animation: keyframes5 0.8001302083333334s both;
          animation-delay: 3.6083984375000004s;
          animation-timing-function: linear;
        }
      
        @keyframes keyframes6 {
          from {
            stroke: blue;
            stroke-dashoffset: 1393;
            stroke-width: 128;
          }
          82% {
            animation-timing-function: step-end;
            stroke: blue;
            stroke-dashoffset: 0;
            stroke-width: 128;
          }
          to {
            stroke: black;
            stroke-width: 1024;
          }
        }
        #make-me-a-hanzi-animation-6 {
          animation: keyframes6 1.3836263020833333s both;
          animation-delay: 4.408528645833334s;
          animation-timing-function: linear;
        }
      
    </style>
    
      <path d="M 200 631 Q 175 631 175 627 Q 175 621 214 568 Q 260 511 292 511 Q 319 511 319 543 Q 319 562 310 580 Q 294 607 259 619 Q 232 629 200 631 Z" fill="lightgray" />
    
      <path d="M 116 419 Q 91 419 91 415 Q 91 409 131 358 Q 179 303 212 303 Q 240 303 240 335 Q 240 352 229 371 Q 213 396 177 407 Q 150 417 116 419 Z" fill="lightgray" />
    
      <path d="M 315 306 Q 313 306 233 139 Q 194 57 156 35 Q 135 27 135 14 Q 135 -10 158 -50 Q 180 -89 196 -89 Q 211 -89 215 -66 Q 221 -29 274 128 Q 324 279 324 299 Q 324 306 315 306 Z" fill="lightgray" />
    
      <path d="M 811 654 Q 797 654 764 644 Q 684 620 469 597 C 439 594 454 569 483 563 Q 500 559 515 559 Q 537 559 573 564 Q 632 571 808 595 Q 834 599 863 610 Q 879 617 880 631 Q 876 653 811 654 Z" fill="lightgray" />
    
      <path d="M 760 519 Q 752 519 752 507 Q 752 435 693 341 L 660 291 Q 602 208 543 156 Q 492 113 492 106 Q 492 102 500 102 Q 518 102 569 136 Q 633 179 694 255 L 736 311 Q 745 324 755 339 Q 808 420 819 430 Q 831 436 831 446 Q 831 459 805 489 Q 776 519 760 519 Z" fill="lightgray" />
    
      <path d="M 693 341 Q 688 344 680 349 Q 556 431 540 431 Q 536 431 536 427 Q 536 417 621 331 Q 642 310 660 291 L 694 255 Q 744 203 776 161 Q 814 115 831 115 Q 844 115 844 135 Q 844 228 736 311 L 693 341 Z" fill="lightgray" />
    
      <path d="M 469 597 Q 467 600 463 603 Q 435 627 412 627 Q 399 625 399 614 Q 399 609 408 599 Q 422 579 427 547 Q 433 511 435 387 Q 435 176 426 100 Q 417 47 388 21 Q 376 11 376 -1 Q 376 -15 388 -33 Q 403 -58 416 -58 Q 422 -58 431 -49 Q 461 -34 499 -28 Q 578 -18 705 -18 Q 774 -18 831 -22 Q 893 -30 903 -30 Q 924 -30 924 -13 Q 924 8 896 28 Q 865 47 831 47 Q 807 47 455 17 Q 466 48 471 79 Q 483 233 483 562 L 483 563 C 483 586 483 586 469 597 Z" fill="lightgray" />
    
    
      <clipPath id="make-me-a-hanzi-clip-0">
        <path d="M 200 631 Q 175 631 175 627 Q 175 621 214 568 Q 260 511 292 511 Q 319 511 319 543 Q 319 562 310 580 Q 294 607 259 619 Q 232 629 200 631 Z" />
      </clipPath>
      <path clip-path="url(#make-me-a-hanzi-clip-0)" d="M 179 626 L 252 582 L 294 534" fill="none" id="make-me-a-hanzi-animation-0" stroke-dasharray="277 554" stroke-linecap="round" />
    
      <clipPath id="make-me-a-hanzi-clip-1">
        <path d="M 116 419 Q 91 419 91 415 Q 91 409 131 358 Q 179 303 212 303 Q 240 303 240 335 Q 240 352 229 371 Q 213 396 177 407 Q 150 417 116 419 Z" />
      </clipPath>
      <path clip-path="url(#make-me-a-hanzi-clip-1)" d="M 95 414 L 182 363 L 215 327" fill="none" id="make-me-a-hanzi-animation-1" stroke-dasharray="278 556" stroke-linecap="round" />
    
      <clipPath id="make-me-a-hanzi-clip-2">
        <path d="M 315 306 Q 313 306 233 139 Q 194 57 156 35 Q 135 27 135 14 Q 135 -10 158 -50 Q 180 -89 196 -89 Q 211 -89 215 -66 Q 221 -29 274 128 Q 324 279 324 299 Q 324 306 315 306 Z" />
      </clipPath>
      <path clip-path="url(#make-me-a-hanzi-clip-2)" d="M 196 -73 L 185 -1 L 232 80 L 319 302" fill="none" id="make-me-a-hanzi-animation-2" stroke-dasharray="533 1066" stroke-linecap="round" />
    
      <clipPath id="make-me-a-hanzi-clip-3">
        <path d="M 811 654 Q 797 654 764 644 Q 684 620 469 597 C 439 594 454 569 483 563 Q 500 559 515 559 Q 537 559 573 564 Q 632 571 808 595 Q 834 599 863 610 Q 879 617 880 631 Q 876 653 811 654 Z" />
      </clipPath>
      <path clip-path="url(#make-me-a-hanzi-clip-3)" d="M 480 595 L 497 580 L 511 580 L 692 602 L 821 627 L 867 629" fill="none" id="make-me-a-hanzi-animation-3" stroke-dasharray="524 1048" stroke-linecap="round" />
    
      <clipPath id="make-me-a-hanzi-clip-4">
        <path d="M 760 519 Q 752 519 752 507 Q 752 435 693 341 L 660 291 Q 602 208 543 156 Q 492 113 492 106 Q 492 102 500 102 Q 518 102 569 136 Q 633 179 694 255 L 736 311 Q 745 324 755 339 Q 808 420 819 430 Q 831 436 831 446 Q 831 459 805 489 Q 776 519 760 519 Z" />
      </clipPath>
      <path clip-path="url(#make-me-a-hanzi-clip-4)" d="M 762 509 L 785 451 L 723 339 L 671 263 L 608 191 L 552 141 L 497 106" fill="none" id="make-me-a-hanzi-animation-4" stroke-dasharray="646 1292" stroke-linecap="round" />
    
      <clipPath id="make-me-a-hanzi-clip-5">
        <path d="M 693 341 Q 688 344 680 349 Q 556 431 540 431 Q 536 431 536 427 Q 536 417 621 331 Q 642 310 660 291 L 694 255 Q 744 203 776 161 Q 814 115 831 115 Q 844 115 844 135 Q 844 228 736 311 L 693 341 Z" />
      </clipPath>
      <path clip-path="url(#make-me-a-hanzi-clip-5)" d="M 540 427 L 748 253 L 794 196 L 830 129" fill="none" id="make-me-a-hanzi-animation-5" stroke-dasharray="548 1096" stroke-linecap="round" />
    
      <clipPath id="make-me-a-hanzi-clip-6">
        <path d="M 469 597 Q 467 600 463 603 Q 435 627 412 627 Q 399 625 399 614 Q 399 609 408 599 Q 422 579 427 547 Q 433 511 435 387 Q 435 176 426 100 Q 417 47 388 21 Q 376 11 376 -1 Q 376 -15 388 -33 Q 403 -58 416 -58 Q 422 -58 431 -49 Q 461 -34 499 -28 Q 578 -18 705 -18 Q 774 -18 831 -22 Q 893 -30 903 -30 Q 924 -30 924 -13 Q 924 8 896 28 Q 865 47 831 47 Q 807 47 455 17 Q 466 48 471 79 Q 483 233 483 562 L 483 563 C 483 586 483 586 469 597 Z" />
      </clipPath>
      <path clip-path="url(#make-me-a-hanzi-clip-6)" d="M 411 615 L 433 600 L 451 570 L 459 470 L 453 140 L 446 77 L 421 -8 L 455 -11 L 601 6 L 836 13 L 884 1 L 907 -13" fill="none" id="make-me-a-hanzi-animation-6" stroke-dasharray="1265 2530" stroke-linecap="round" />
    
  </g>
</svg>