<svg xmlns="http://www.w3.org/2000/svg" version="1.1" viewBox="0 0 1024 1024">
  <g stroke="lightgray" stroke-dasharray="1,1" stroke-width="1" transform="scale(4, 4)">
    <line x1="0" y1="0" x2="256" y2="256" />
    <line x1="256" y1="0" x2="0" y2="256" />
    <line x1="128" y1="0" x2="128" y2="256" />
    <line x1="0" y1="128" x2="256" y2="128" />
  </g>
  <g transform="scale(1.0, -1.0) translate(0.0, -797.50)">
    <style type="text/css">
      
        @keyframes keyframes0 {
          from {
            stroke: blue;
            stroke-dashoffset: 391;
            stroke-width: 128;
          }
          56% {
            animation-timing-function: step-end;
            stroke: blue;
            stroke-dashoffset: 0;
            stroke-width: 128;
          }
          to {
            stroke: black;
            stroke-width: 1024;
          }
        }
        #make-me-a-hanzi-animation-0 {
          animation: keyframes0 0.5681966145833334s both;
          animation-delay: 0s;
          animation-timing-function: linear;
        }
      
        @keyframes keyframes1 {
          from {
            stroke: blue;
            stroke-dashoffset: 386;
            stroke-width: 128;
          }
          56% {
            animation-timing-function: step-end;
            stroke: blue;
            stroke-dashoffset: 0;
            stroke-width: 128;
          }
          to {
            stroke: black;
            stroke-width: 1024;
          }
        }
        #make-me-a-hanzi-animation-1 {
          animation: keyframes1 0.5641276041666666s both;
          animation-delay: 0.5681966145833334s;
          animation-timing-function: linear;
        }
      
        @keyframes keyframes2 {
          from {
            stroke: blue;
            stroke-dashoffset: 616;
            stroke-width: 128;
          }
          67% {
            animation-timing-function: step-end;
            stroke: blue;
            stroke-dashoffset: 0;
            stroke-width: 128;
          }
          to {
            stroke: black;
            stroke-width: 1024;
          }
        }
        #make-me-a-hanzi-animation-2 {
          animation: keyframes2 0.7513020833333334s both;
          animation-delay: 1.13232421875s;
          animation-timing-function: linear;
        }
      
        @keyframes keyframes3 {
          from {
            stroke: blue;
            stroke-dashoffset: 568;
            stroke-width: 128;
          }
          65% {
            animation-timing-function: step-end;
            stroke: blue;
            stroke-dashoffset: 0;
            stroke-width: 128;
          }
          to {
            stroke: black;
            stroke-width: 1024;
          }
        }
        #make-me-a-hanzi-animation-3 {
          animation: keyframes3 0.7122395833333334s both;
          animation-delay: 1.8836263020833335s;
          animation-timing-function: linear;
        }
      
        @keyframes keyframes4 {
          from {
            stroke: blue;
            stroke-dashoffset: 899;
            stroke-width: 128;
          }
          75% {
            animation-timing-function: step-end;
            stroke: blue;
            stroke-dashoffset: 0;
            stroke-width: 128;
          }
          to {
            stroke: black;
            stroke-width: 1024;
          }
        }
        #make-me-a-hanzi-animation-4 {
          animation: keyframes4 0.9816080729166666s both;
          animation-delay: 2.595865885416667s;
          animation-timing-function: linear;
        }
      
        @keyframes keyframes5 {
          from {
            stroke: blue;
            stroke-dashoffset: 544;
            stroke-width: 128;
          }
          64% {
            animation-timing-function: step-end;
            stroke: blue;
            stroke-dashoffset: 0;
            stroke-width: 128;
          }
          to {
            stroke: black;
            stroke-width: 1024;
          }
        }
        #make-me-a-hanzi-animation-5 {
          animation: keyframes5 0.6927083333333334s both;
          animation-delay: 3.5774739583333335s;
          animation-timing-function: linear;
        }
      
        @keyframes keyframes6 {
          from {
            stroke: blue;
            stroke-dashoffset: 511;
            stroke-width: 128;
          }
          62% {
            animation-timing-function: step-end;
            stroke: blue;
            stroke-dashoffset: 0;
            stroke-width: 128;
          }
          to {
            stroke: black;
            stroke-width: 1024;
          }
        }
        #make-me-a-hanzi-animation-6 {
          animation: keyframes6 0.6658528645833334s both;
          animation-delay: 4.270182291666667s;
          animation-timing-function: linear;
        }
      
        @keyframes keyframes7 {
          from {
            stroke: blue;
            stroke-dashoffset: 1351;
            stroke-width: 128;
          }
          81% {
            animation-timing-function: step-end;
            stroke: blue;
            stroke-dashoffset: 0;
            stroke-width: 128;
          }
          to {
            stroke: black;
            stroke-width: 1024;
          }
        }
        #make-me-a-hanzi-animation-7 {
          animation: keyframes7 1.3494466145833333s both;
          animation-delay: 4.93603515625s;
          animation-timing-function: linear;
        }
      
        @keyframes keyframes8 {
          from {
            stroke: blue;
            stroke-dashoffset: 745;
            stroke-width: 128;
          }
          71% {
            animation-timing-function: step-end;
            stroke: blue;
            stroke-dashoffset: 0;
            stroke-width: 128;
          }
          to {
            stroke: black;
            stroke-width: 1024;
          }
        }
        #make-me-a-hanzi-animation-8 {
          animation: keyframes8 0.8562825520833334s both;
          animation-delay: 6.285481770833333s;
          animation-timing-function: linear;
        }
      
    </style>
    
      <path d="M 213 621 L 210 621 Q 202 621 199 617 Q 198 615 198 614 Q 198 610 201 607 L 209 598 L 236 564 Q 241 558 254 544 L 276 523 Q 285 514 295 512 Q 301 510 306 510 Q 312 510 316 513 Q 323 518 325 528 Q 328 535 328 545 L 328 550 Q 328 564 324 574 Q 319 584 308 592 Q 297 600 279 606 Q 260 612 251 614 L 231 618 L 213 621 Z" fill="lightgray" />
    
      <path d="M 119 396 Q 110 396 107 392 Q 106 391 106 389 Q 106 386 111 380 L 117 372 Q 121 368 137 348 L 163 318 Q 174 306 185 297 Q 197 288 207 286 Q 211 285 215 285 Q 222 285 227 289 Q 234 294 237 303 Q 239 310 239 325 Q 239 340 233 352 Q 227 364 215 370 Q 203 378 189 382 Q 174 386 157 390 Q 139 394 133 394 L 119 396 Z" fill="lightgray" />
    
      <path d="M 285 237 Q 283 232 268 206 Q 253 180 229 142 Q 204 104 190 86 Q 175 68 164 58 Q 153 46 141 38 Q 129 30 127 26 Q 126 23 126 18 Q 126 12 128 3 Q 132 -13 133 -18 Q 135 -22 141 -39 Q 149 -56 152 -68 Q 156 -79 162 -84 Q 167 -88 173 -88 L 176 -88 Q 183 -86 188 -75 L 198 -51 Q 203 -39 211 -12 Q 220 16 221 20 Q 223 24 235 52 Q 247 79 269 134 Q 291 190 295 202 L 303 227 L 306 239 Q 307 243 307 246 Q 307 253 303 254 L 300 254 Q 295 254 292 248 L 285 237 Z" fill="lightgray" />
    
      <path d="M 439 488 L 405 495 Q 398 496 379 498 L 375 498 Q 364 498 359 494 Q 354 491 354 486 L 354 484 Q 355 480 364 472 Q 373 464 377 454 Q 381 445 388 422 Q 395 400 397 386 L 417 245 Q 419 228 421 219 Q 425 210 430 202 Q 435 194 443 192 L 446 192 Q 452 192 455 200 L 462 220 L 462 253 L 453 344 L 453 377 L 443 462 C 440 488 440 488 439 488 Z" fill="lightgray" />
    
      <path d="M 711 246 L 722 224 Q 725 214 741 214 Q 751 214 759 223 Q 767 232 773 253 L 800 366 L 809 407 Q 815 430 823 451 Q 831 472 837 480 Q 849 496 849 502 Q 849 508 838 518 Q 827 529 814 536 Q 801 542 784 549 Q 767 556 761 556 L 756 556 Q 750 556 745 555 Q 738 554 721 546 Q 704 540 680 533 Q 656 526 633 522 L 595 514 L 548 505 L 517 500 Q 498 496 439 488 C 409 484 413 457 443 462 L 499 472 L 531 476 Q 539 478 551 480 L 597 488 L 695 508 L 722 513 Q 728 514 733 514 Q 741 514 745 511 Q 751 506 753 498 Q 754 494 754 487 L 754 480 Q 753 468 753 465 L 745 412 L 741 384 L 723 277 C 718 247 706 256 711 246 Z" fill="lightgray" />
    
      <path d="M 745 412 L 727 417 Q 714 421 700 421 L 695 421 Q 679 420 660 415 Q 641 410 632 409 Q 623 407 611 404 L 565 394 L 526 388 Q 510 385 453 377 C 423 373 423 347 453 344 L 475 342 L 482 342 Q 495 342 512 345 L 571 355 L 618 362 L 705 378 Q 709 379 741 384 C 771 389 774 404 745 412 Z" fill="lightgray" />
    
      <path d="M 647 240 L 711 246 C 741 249 751 267 723 277 L 704 284 Q 695 287 685 287 Q 675 286 663 284 L 636 278 L 590 270 L 462 253 C 432 249 432 217 462 220 L 599 234 L 647 240 Z" fill="lightgray" />
    
      <path d="M 711 92 L 695 122 Q 685 136 678 154 Q 670 172 662 196 Q 653 220 647 240 L 636 278 L 618 362 L 611 404 L 607 430 Q 604 442 602 454 Q 601 466 597 488 L 595 514 L 593 554 Q 591 582 591 594 Q 590 602 590 607 L 590 611 L 593 646 Q 593 658 595 663 Q 599 683 599 688 Q 597 692 587 700 Q 577 708 560 713 L 532 721 Q 525 723 521 723 Q 517 723 515 722 Q 503 720 501 716 Q 500 714 500 711 Q 500 708 501 705 Q 503 699 511 682 Q 519 665 524 645 Q 529 626 535 586 L 548 505 L 551 480 L 565 394 L 571 355 L 590 270 L 599 234 L 611 192 Q 617 170 631 131 L 653 77 Q 661 63 667 50 L 695 4 L 705 -12 Q 714 -26 736 -52 Q 757 -78 773 -92 Q 788 -106 809 -120 Q 831 -134 853 -143 Q 875 -152 900 -152 L 906 -152 Q 914 -152 917 -150 Q 921 -146 923 -142 Q 923 -137 919 -126 Q 915 -116 911 -99 Q 906 -82 902 -62 Q 899 -42 897 -23 L 895 17 L 891 49 Q 890 60 885 61 Q 881 61 879 46 L 875 22 L 867 -24 Q 865 -42 862 -49 Q 859 -56 855 -59 Q 852 -61 848 -61 Q 840 -61 827 -54 Q 809 -44 792 -26 Q 775 -8 764 6 Q 753 20 750 25 Q 747 30 741 42 L 711 92 Z" fill="lightgray" />
    
      <path d="M 667 50 L 645 31 Q 624 14 589 -8 L 525 -46 Q 497 -60 483 -66 Q 469 -72 451 -78 L 433 -86 Q 426 -89 426 -92 Q 426 -94 427 -95 Q 429 -100 433 -100 L 435 -100 L 453 -96 L 479 -92 Q 505 -88 546 -74 Q 587 -59 619 -43 Q 650 -26 666 -16 Q 681 -5 695 4 L 741 42 L 753 54 Q 757 58 779 85 L 801 111 Q 813 125 819 130 L 831 136 Q 835 140 837 143 L 837 146 Q 837 151 831 161 Q 824 173 815 182 L 795 199 Q 784 206 777 206 L 775 206 Q 768 205 765 202 Q 763 198 762 187 Q 761 176 755 162 Q 749 146 743 135 Q 737 124 729 113 Q 721 102 711 92 L 667 50 Z" fill="lightgray" />
    
    
      <clipPath id="make-me-a-hanzi-clip-0">
        <path d="M 213 621 L 210 621 Q 202 621 199 617 Q 198 615 198 614 Q 198 610 201 607 L 209 598 L 236 564 Q 241 558 254 544 L 276 523 Q 285 514 295 512 Q 301 510 306 510 Q 312 510 316 513 Q 323 518 325 528 Q 328 535 328 545 L 328 550 Q 328 564 324 574 Q 319 584 308 592 Q 297 600 279 606 Q 260 612 251 614 L 231 618 L 213 621 Z" />
      </clipPath>
      <path clip-path="url(#make-me-a-hanzi-clip-0)" d="M 206 613 L 291 559 L 306 528" fill="none" id="make-me-a-hanzi-animation-0" stroke-dasharray="263 526" stroke-linecap="round" />
    
      <clipPath id="make-me-a-hanzi-clip-1">
        <path d="M 119 396 Q 110 396 107 392 Q 106 391 106 389 Q 106 386 111 380 L 117 372 Q 121 368 137 348 L 163 318 Q 174 306 185 297 Q 197 288 207 286 Q 211 285 215 285 Q 222 285 227 289 Q 234 294 237 303 Q 239 310 239 325 Q 239 340 233 352 Q 227 364 215 370 Q 203 378 189 382 Q 174 386 157 390 Q 139 394 133 394 L 119 396 Z" />
      </clipPath>
      <path clip-path="url(#make-me-a-hanzi-clip-1)" d="M 115 388 L 191 342 L 214 308" fill="none" id="make-me-a-hanzi-animation-1" stroke-dasharray="258 516" stroke-linecap="round" />
    
      <clipPath id="make-me-a-hanzi-clip-2">
        <path d="M 285 237 Q 283 232 268 206 Q 253 180 229 142 Q 204 104 190 86 Q 175 68 164 58 Q 153 46 141 38 Q 129 30 127 26 Q 126 23 126 18 Q 126 12 128 3 Q 132 -13 133 -18 Q 135 -22 141 -39 Q 149 -56 152 -68 Q 156 -79 162 -84 Q 167 -88 173 -88 L 176 -88 Q 183 -86 188 -75 L 198 -51 Q 203 -39 211 -12 Q 220 16 221 20 Q 223 24 235 52 Q 247 79 269 134 Q 291 190 295 202 L 303 227 L 306 239 Q 307 243 307 246 Q 307 253 303 254 L 300 254 Q 295 254 292 248 L 285 237 Z" />
      </clipPath>
      <path clip-path="url(#make-me-a-hanzi-clip-2)" d="M 175 -79 L 172 7 L 248 132 L 302 248" fill="none" id="make-me-a-hanzi-animation-2" stroke-dasharray="488 976" stroke-linecap="round" />
    
      <clipPath id="make-me-a-hanzi-clip-3">
        <path d="M 439 488 L 405 495 Q 398 496 379 498 L 375 498 Q 364 498 359 494 Q 354 491 354 486 L 354 484 Q 355 480 364 472 Q 373 464 377 454 Q 381 445 388 422 Q 395 400 397 386 L 417 245 Q 419 228 421 219 Q 425 210 430 202 Q 435 194 443 192 L 446 192 Q 452 192 455 200 L 462 220 L 462 253 L 453 344 L 453 377 L 443 462 C 440 488 440 488 439 488 Z" />
      </clipPath>
      <path clip-path="url(#make-me-a-hanzi-clip-3)" d="M 365 485 L 385 479 L 410 460 L 424 395 L 445 203" fill="none" id="make-me-a-hanzi-animation-3" stroke-dasharray="440 880" stroke-linecap="round" />
    
      <clipPath id="make-me-a-hanzi-clip-4">
        <path d="M 711 246 L 722 224 Q 725 214 741 214 Q 751 214 759 223 Q 767 232 773 253 L 800 366 L 809 407 Q 815 430 823 451 Q 831 472 837 480 Q 849 496 849 502 Q 849 508 838 518 Q 827 529 814 536 Q 801 542 784 549 Q 767 556 761 556 L 756 556 Q 750 556 745 555 Q 738 554 721 546 Q 704 540 680 533 Q 656 526 633 522 L 595 514 L 548 505 L 517 500 Q 498 496 439 488 C 409 484 413 457 443 462 L 499 472 L 531 476 Q 539 478 551 480 L 597 488 L 695 508 L 722 513 Q 728 514 733 514 Q 741 514 745 511 Q 751 506 753 498 Q 754 494 754 487 L 754 480 Q 753 468 753 465 L 745 412 L 741 384 L 723 277 C 718 247 706 256 711 246 Z" />
      </clipPath>
      <path clip-path="url(#make-me-a-hanzi-clip-4)" d="M 449 470 L 455 478 L 472 482 L 644 510 L 735 533 L 768 527 L 796 496 L 749 266 L 742 247 L 725 246" fill="none" id="make-me-a-hanzi-animation-4" stroke-dasharray="771 1542" stroke-linecap="round" />
    
      <clipPath id="make-me-a-hanzi-clip-5">
        <path d="M 745 412 L 727 417 Q 714 421 700 421 L 695 421 Q 679 420 660 415 Q 641 410 632 409 Q 623 407 611 404 L 565 394 L 526 388 Q 510 385 453 377 C 423 373 423 347 453 344 L 475 342 L 482 342 Q 495 342 512 345 L 571 355 L 618 362 L 705 378 Q 709 379 741 384 C 771 389 774 404 745 412 Z" />
      </clipPath>
      <path clip-path="url(#make-me-a-hanzi-clip-5)" d="M 459 350 L 471 360 L 671 395 L 725 399 L 738 406" fill="none" id="make-me-a-hanzi-animation-5" stroke-dasharray="416 832" stroke-linecap="round" />
    
      <clipPath id="make-me-a-hanzi-clip-6">
        <path d="M 647 240 L 711 246 C 741 249 751 267 723 277 L 704 284 Q 695 287 685 287 Q 675 286 663 284 L 636 278 L 590 270 L 462 253 C 432 249 432 217 462 220 L 599 234 L 647 240 Z" />
      </clipPath>
      <path clip-path="url(#make-me-a-hanzi-clip-6)" d="M 469 226 L 483 238 L 695 265 L 716 274" fill="none" id="make-me-a-hanzi-animation-6" stroke-dasharray="383 766" stroke-linecap="round" />
    
      <clipPath id="make-me-a-hanzi-clip-7">
        <path d="M 711 92 L 695 122 Q 685 136 678 154 Q 670 172 662 196 Q 653 220 647 240 L 636 278 L 618 362 L 611 404 L 607 430 Q 604 442 602 454 Q 601 466 597 488 L 595 514 L 593 554 Q 591 582 591 594 Q 590 602 590 607 L 590 611 L 593 646 Q 593 658 595 663 Q 599 683 599 688 Q 597 692 587 700 Q 577 708 560 713 L 532 721 Q 525 723 521 723 Q 517 723 515 722 Q 503 720 501 716 Q 500 714 500 711 Q 500 708 501 705 Q 503 699 511 682 Q 519 665 524 645 Q 529 626 535 586 L 548 505 L 551 480 L 565 394 L 571 355 L 590 270 L 599 234 L 611 192 Q 617 170 631 131 L 653 77 Q 661 63 667 50 L 695 4 L 705 -12 Q 714 -26 736 -52 Q 757 -78 773 -92 Q 788 -106 809 -120 Q 831 -134 853 -143 Q 875 -152 900 -152 L 906 -152 Q 914 -152 917 -150 Q 921 -146 923 -142 Q 923 -137 919 -126 Q 915 -116 911 -99 Q 906 -82 902 -62 Q 899 -42 897 -23 L 895 17 L 891 49 Q 890 60 885 61 Q 881 61 879 46 L 875 22 L 867 -24 Q 865 -42 862 -49 Q 859 -56 855 -59 Q 852 -61 848 -61 Q 840 -61 827 -54 Q 809 -44 792 -26 Q 775 -8 764 6 Q 753 20 750 25 Q 747 30 741 42 L 711 92 Z" />
      </clipPath>
      <path clip-path="url(#make-me-a-hanzi-clip-7)" d="M 511 711 L 557 673 L 573 489 L 614 270 L 652 147 L 709 36 L 731 0 L 790 -66 L 832 -94 L 866 -101 L 881 -58 L 888 55" fill="none" id="make-me-a-hanzi-animation-7" stroke-dasharray="1223 2446" stroke-linecap="round" />
    
      <clipPath id="make-me-a-hanzi-clip-8">
        <path d="M 667 50 L 645 31 Q 624 14 589 -8 L 525 -46 Q 497 -60 483 -66 Q 469 -72 451 -78 L 433 -86 Q 426 -89 426 -92 Q 426 -94 427 -95 Q 429 -100 433 -100 L 435 -100 L 453 -96 L 479 -92 Q 505 -88 546 -74 Q 587 -59 619 -43 Q 650 -26 666 -16 Q 681 -5 695 4 L 741 42 L 753 54 Q 757 58 779 85 L 801 111 Q 813 125 819 130 L 831 136 Q 835 140 837 143 L 837 146 Q 837 151 831 161 Q 824 173 815 182 L 795 199 Q 784 206 777 206 L 775 206 Q 768 205 765 202 Q 763 198 762 187 Q 761 176 755 162 Q 749 146 743 135 Q 737 124 729 113 Q 721 102 711 92 L 667 50 Z" />
      </clipPath>
      <path clip-path="url(#make-me-a-hanzi-clip-8)" d="M 775 192 L 785 177 L 790 152 L 741 82 L 684 29 L 640 -4 L 548 -55 L 432 -92" fill="none" id="make-me-a-hanzi-animation-8" stroke-dasharray="617 1234" stroke-linecap="round" />
    
  </g>
</svg>