<svg xmlns="http://www.w3.org/2000/svg" version="1.1" viewBox="0 0 1024 1024">
  <g stroke="lightgray" stroke-dasharray="1,1" stroke-width="1" transform="scale(4, 4)">
    <line x1="0" y1="0" x2="256" y2="256" />
    <line x1="256" y1="0" x2="0" y2="256" />
    <line x1="128" y1="0" x2="128" y2="256" />
    <line x1="0" y1="128" x2="256" y2="128" />
  </g>
  <g transform="scale(1.0, -1.0) translate(0.0, -833.00)">
    <style type="text/css">
      
        @keyframes keyframes0 {
          from {
            stroke: blue;
            stroke-dashoffset: 395;
            stroke-width: 128;
          }
          56% {
            animation-timing-function: step-end;
            stroke: blue;
            stroke-dashoffset: 0;
            stroke-width: 128;
          }
          to {
            stroke: black;
            stroke-width: 1024;
          }
        }
        #make-me-a-hanzi-animation-0 {
          animation: keyframes0 0.5714518229166666s both;
          animation-delay: 0s;
          animation-timing-function: linear;
        }
      
        @keyframes keyframes1 {
          from {
            stroke: blue;
            stroke-dashoffset: 375;
            stroke-width: 128;
          }
          55% {
            animation-timing-function: step-end;
            stroke: blue;
            stroke-dashoffset: 0;
            stroke-width: 128;
          }
          to {
            stroke: black;
            stroke-width: 1024;
          }
        }
        #make-me-a-hanzi-animation-1 {
          animation: keyframes1 0.55517578125s both;
          animation-delay: 0.5714518229166666s;
          animation-timing-function: linear;
        }
      
        @keyframes keyframes2 {
          from {
            stroke: blue;
            stroke-dashoffset: 612;
            stroke-width: 128;
          }
          67% {
            animation-timing-function: step-end;
            stroke: blue;
            stroke-dashoffset: 0;
            stroke-width: 128;
          }
          to {
            stroke: black;
            stroke-width: 1024;
          }
        }
        #make-me-a-hanzi-animation-2 {
          animation: keyframes2 0.748046875s both;
          animation-delay: 1.1266276041666665s;
          animation-timing-function: linear;
        }
      
        @keyframes keyframes3 {
          from {
            stroke: blue;
            stroke-dashoffset: 696;
            stroke-width: 128;
          }
          69% {
            animation-timing-function: step-end;
            stroke: blue;
            stroke-dashoffset: 0;
            stroke-width: 128;
          }
          to {
            stroke: black;
            stroke-width: 1024;
          }
        }
        #make-me-a-hanzi-animation-3 {
          animation: keyframes3 0.81640625s both;
          animation-delay: 1.8746744791666665s;
          animation-timing-function: linear;
        }
      
        @keyframes keyframes4 {
          from {
            stroke: blue;
            stroke-dashoffset: 427;
            stroke-width: 128;
          }
          58% {
            animation-timing-function: step-end;
            stroke: blue;
            stroke-dashoffset: 0;
            stroke-width: 128;
          }
          to {
            stroke: black;
            stroke-width: 1024;
          }
        }
        #make-me-a-hanzi-animation-4 {
          animation: keyframes4 0.5974934895833334s both;
          animation-delay: 2.6910807291666665s;
          animation-timing-function: linear;
        }
      
        @keyframes keyframes5 {
          from {
            stroke: blue;
            stroke-dashoffset: 476;
            stroke-width: 128;
          }
          61% {
            animation-timing-function: step-end;
            stroke: blue;
            stroke-dashoffset: 0;
            stroke-width: 128;
          }
          to {
            stroke: black;
            stroke-width: 1024;
          }
        }
        #make-me-a-hanzi-animation-5 {
          animation: keyframes5 0.6373697916666666s both;
          animation-delay: 3.28857421875s;
          animation-timing-function: linear;
        }
      
        @keyframes keyframes6 {
          from {
            stroke: blue;
            stroke-dashoffset: 554;
            stroke-width: 128;
          }
          64% {
            animation-timing-function: step-end;
            stroke: blue;
            stroke-dashoffset: 0;
            stroke-width: 128;
          }
          to {
            stroke: black;
            stroke-width: 1024;
          }
        }
        #make-me-a-hanzi-animation-6 {
          animation: keyframes6 0.7008463541666666s both;
          animation-delay: 3.9259440104166665s;
          animation-timing-function: linear;
        }
      
        @keyframes keyframes7 {
          from {
            stroke: blue;
            stroke-dashoffset: 751;
            stroke-width: 128;
          }
          71% {
            animation-timing-function: step-end;
            stroke: blue;
            stroke-dashoffset: 0;
            stroke-width: 128;
          }
          to {
            stroke: black;
            stroke-width: 1024;
          }
        }
        #make-me-a-hanzi-animation-7 {
          animation: keyframes7 0.8611653645833334s both;
          animation-delay: 4.626790364583333s;
          animation-timing-function: linear;
        }
      
        @keyframes keyframes8 {
          from {
            stroke: blue;
            stroke-dashoffset: 401;
            stroke-width: 128;
          }
          57% {
            animation-timing-function: step-end;
            stroke: blue;
            stroke-dashoffset: 0;
            stroke-width: 128;
          }
          to {
            stroke: black;
            stroke-width: 1024;
          }
        }
        #make-me-a-hanzi-animation-8 {
          animation: keyframes8 0.5763346354166666s both;
          animation-delay: 5.487955729166666s;
          animation-timing-function: linear;
        }
      
        @keyframes keyframes9 {
          from {
            stroke: blue;
            stroke-dashoffset: 355;
            stroke-width: 128;
          }
          54% {
            animation-timing-function: step-end;
            stroke: blue;
            stroke-dashoffset: 0;
            stroke-width: 128;
          }
          to {
            stroke: black;
            stroke-width: 1024;
          }
        }
        #make-me-a-hanzi-animation-9 {
          animation: keyframes9 0.5388997395833334s both;
          animation-delay: 6.064290364583333s;
          animation-timing-function: linear;
        }
      
        @keyframes keyframes10 {
          from {
            stroke: blue;
            stroke-dashoffset: 954;
            stroke-width: 128;
          }
          76% {
            animation-timing-function: step-end;
            stroke: blue;
            stroke-dashoffset: 0;
            stroke-width: 128;
          }
          to {
            stroke: black;
            stroke-width: 1024;
          }
        }
        #make-me-a-hanzi-animation-10 {
          animation: keyframes10 1.0263671875s both;
          animation-delay: 6.603190104166666s;
          animation-timing-function: linear;
        }
      
        @keyframes keyframes11 {
          from {
            stroke: blue;
            stroke-dashoffset: 762;
            stroke-width: 128;
          }
          71% {
            animation-timing-function: step-end;
            stroke: blue;
            stroke-dashoffset: 0;
            stroke-width: 128;
          }
          to {
            stroke: black;
            stroke-width: 1024;
          }
        }
        #make-me-a-hanzi-animation-11 {
          animation: keyframes11 0.8701171875s both;
          animation-delay: 7.629557291666666s;
          animation-timing-function: linear;
        }
      
    </style>
    
      <path d="M 208 604 L 261 555 Q 276 542 292 542 Q 304 543 309 557 Q 313 572 304 603 Q 298 622 267 636 Q 194 661 180 655 Q 174 651 176 637 Q 180 627 208 604 Z" fill="lightgray" />
    
      <path d="M 113 425 Q 158 370 187 356 Q 202 352 211 365 Q 218 377 216 393 Q 204 439 128 461 L 127 462 Q 111 466 101 464 Q 95 463 97 451 Q 98 439 113 425 Z" fill="lightgray" />
    
      <path d="M 108 82 Q 98 78 100 62 Q 118 -11 151 -26 Q 158 -33 168 -29 Q 175 -28 175 -3 Q 179 43 262 289 Q 269 305 267 310 Q 266 320 257 313 Q 250 309 145 124 Q 135 105 108 82 Z" fill="lightgray" />
    
      <path d="M 480 607 Q 498 644 512 662 Q 519 668 516 678 Q 513 688 500 698 Q 484 710 465 714 Q 443 718 433 715 Q 424 712 428 700 Q 449 627 351 484 Q 348 483 347 479 Q 319 437 244 356 Q 237 350 247 348 Q 310 364 409 489 Q 410 493 414 496 Q 436 530 469 586 L 480 607 Z" fill="lightgray" />
    
      <path d="M 469 586 Q 515 547 572 490 Q 587 474 599 470 Q 606 470 613 478 Q 623 490 610 526 Q 603 557 535 587 Q 501 600 480 607 C 452 617 446 605 469 586 Z" fill="lightgray" />
    
      <path d="M 466 369 Q 562 396 569 402 Q 576 411 572 418 Q 565 428 537 432 Q 509 435 483 421 Q 455 409 426 400 Q 392 390 353 383 Q 320 374 346 361 Q 380 345 429 358 L 466 369 Z" fill="lightgray" />
    
      <path d="M 492 245 Q 496 246 503 248 Q 543 255 577 263 Q 587 262 595 275 Q 595 285 573 294 Q 543 312 494 292 L 441 275 Q 396 263 358 255 Q 330 251 298 243 Q 271 239 293 223 Q 327 202 353 210 Q 392 222 441 233 L 492 245 Z" fill="lightgray" />
    
      <path d="M 397 22 L 360 31 Q 350 35 349 28 Q 349 21 358 12 Q 407 -31 440 -69 Q 450 -76 463 -63 Q 500 -15 496 54 Q 490 202 492 245 L 494 292 Q 494 302 496 313 Q 502 337 496 346 Q 489 356 466 369 C 440 385 417 385 429 358 Q 441 346 441 275 L 441 233 L 441 60 Q 440 32 431 21 Q 421 15 397 22 Z" fill="lightgray" />
    
      <path d="M 333 170 Q 309 127 278 89 Q 256 59 271 29 Q 275 13 296 21 Q 318 34 333 62 Q 349 90 351 115 Q 358 145 354 168 Q 350 175 345 177 Q 338 177 333 170 Z" fill="lightgray" />
    
      <path d="M 520 178 Q 568 103 590 100 Q 602 97 610 113 Q 613 125 607 144 Q 600 162 577 174 Q 543 196 528 202 Q 519 205 517 194 Q 516 187 520 178 Z" fill="lightgray" />
    
      <path d="M 776 154 Q 822 265 839 353 Q 843 387 859 407 Q 872 423 853 436 Q 831 449 797 457 Q 775 461 756 448 Q 710 420 644 407 Q 619 403 608 397 Q 601 390 618 382 Q 643 370 679 384 L 751 405 Q 776 414 777 385 Q 777 289 738 195 L 716 149 Q 671 82 570 34 Q 557 27 567 22 Q 574 18 600 27 Q 699 46 746 105 L 776 154 Z" fill="lightgray" />
    
      <path d="M 746 105 Q 777 59 809 18 Q 822 -1 846 -2 Q 972 -2 986 10 Q 990 16 981 20 Q 837 92 776 154 L 738 195 Q 698 241 652 304 Q 643 319 628 322 Q 603 325 595 316 Q 591 312 599 305 Q 630 286 648 253 Q 682 198 716 149 L 746 105 Z" fill="lightgray" />
    
    
      <clipPath id="make-me-a-hanzi-clip-0">
        <path d="M 208 604 L 261 555 Q 276 542 292 542 Q 304 543 309 557 Q 313 572 304 603 Q 298 622 267 636 Q 194 661 180 655 Q 174 651 176 637 Q 180 627 208 604 Z" />
      </clipPath>
      <path clip-path="url(#make-me-a-hanzi-clip-0)" d="M 185 648 L 259 603 L 290 561" fill="none" id="make-me-a-hanzi-animation-0" stroke-dasharray="267 534" stroke-linecap="round" />
    
      <clipPath id="make-me-a-hanzi-clip-1">
        <path d="M 113 425 Q 158 370 187 356 Q 202 352 211 365 Q 218 377 216 393 Q 204 439 128 461 L 127 462 Q 111 466 101 464 Q 95 463 97 451 Q 98 439 113 425 Z" />
      </clipPath>
      <path clip-path="url(#make-me-a-hanzi-clip-1)" d="M 107 455 L 177 402 L 193 375" fill="none" id="make-me-a-hanzi-animation-1" stroke-dasharray="247 494" stroke-linecap="round" />
    
      <clipPath id="make-me-a-hanzi-clip-2">
        <path d="M 108 82 Q 98 78 100 62 Q 118 -11 151 -26 Q 158 -33 168 -29 Q 175 -28 175 -3 Q 179 43 262 289 Q 269 305 267 310 Q 266 320 257 313 Q 250 309 145 124 Q 135 105 108 82 Z" />
      </clipPath>
      <path clip-path="url(#make-me-a-hanzi-clip-2)" d="M 162 -19 L 148 17 L 145 58 L 233 250 L 252 279 L 261 308" fill="none" id="make-me-a-hanzi-animation-2" stroke-dasharray="484 968" stroke-linecap="round" />
    
      <clipPath id="make-me-a-hanzi-clip-3">
        <path d="M 480 607 Q 498 644 512 662 Q 519 668 516 678 Q 513 688 500 698 Q 484 710 465 714 Q 443 718 433 715 Q 424 712 428 700 Q 449 627 351 484 Q 348 483 347 479 Q 319 437 244 356 Q 237 350 247 348 Q 310 364 409 489 Q 410 493 414 496 Q 436 530 469 586 L 480 607 Z" />
      </clipPath>
      <path clip-path="url(#make-me-a-hanzi-clip-3)" d="M 439 705 L 471 671 L 442 591 L 419 548 L 386 494 L 337 432 L 294 388 L 250 354" fill="none" id="make-me-a-hanzi-animation-3" stroke-dasharray="568 1136" stroke-linecap="round" />
    
      <clipPath id="make-me-a-hanzi-clip-4">
        <path d="M 469 586 Q 515 547 572 490 Q 587 474 599 470 Q 606 470 613 478 Q 623 490 610 526 Q 603 557 535 587 Q 501 600 480 607 C 452 617 446 605 469 586 Z" />
      </clipPath>
      <path clip-path="url(#make-me-a-hanzi-clip-4)" d="M 483 599 L 487 589 L 548 551 L 582 521 L 599 482" fill="none" id="make-me-a-hanzi-animation-4" stroke-dasharray="299 598" stroke-linecap="round" />
    
      <clipPath id="make-me-a-hanzi-clip-5">
        <path d="M 466 369 Q 562 396 569 402 Q 576 411 572 418 Q 565 428 537 432 Q 509 435 483 421 Q 455 409 426 400 Q 392 390 353 383 Q 320 374 346 361 Q 380 345 429 358 L 466 369 Z" />
      </clipPath>
      <path clip-path="url(#make-me-a-hanzi-clip-5)" d="M 347 373 L 417 375 L 509 407 L 561 411" fill="none" id="make-me-a-hanzi-animation-5" stroke-dasharray="348 696" stroke-linecap="round" />
    
      <clipPath id="make-me-a-hanzi-clip-6">
        <path d="M 492 245 Q 496 246 503 248 Q 543 255 577 263 Q 587 262 595 275 Q 595 285 573 294 Q 543 312 494 292 L 441 275 Q 396 263 358 255 Q 330 251 298 243 Q 271 239 293 223 Q 327 202 353 210 Q 392 222 441 233 L 492 245 Z" />
      </clipPath>
      <path clip-path="url(#make-me-a-hanzi-clip-6)" d="M 293 234 L 334 229 L 526 277 L 585 276" fill="none" id="make-me-a-hanzi-animation-6" stroke-dasharray="426 852" stroke-linecap="round" />
    
      <clipPath id="make-me-a-hanzi-clip-7">
        <path d="M 397 22 L 360 31 Q 350 35 349 28 Q 349 21 358 12 Q 407 -31 440 -69 Q 450 -76 463 -63 Q 500 -15 496 54 Q 490 202 492 245 L 494 292 Q 494 302 496 313 Q 502 337 496 346 Q 489 356 466 369 C 440 385 417 385 429 358 Q 441 346 441 275 L 441 233 L 441 60 Q 440 32 431 21 Q 421 15 397 22 Z" />
      </clipPath>
      <path clip-path="url(#make-me-a-hanzi-clip-7)" d="M 436 358 L 463 341 L 468 331 L 469 65 L 464 17 L 445 -16 L 415 -7 L 355 26" fill="none" id="make-me-a-hanzi-animation-7" stroke-dasharray="623 1246" stroke-linecap="round" />
    
      <clipPath id="make-me-a-hanzi-clip-8">
        <path d="M 333 170 Q 309 127 278 89 Q 256 59 271 29 Q 275 13 296 21 Q 318 34 333 62 Q 349 90 351 115 Q 358 145 354 168 Q 350 175 345 177 Q 338 177 333 170 Z" />
      </clipPath>
      <path clip-path="url(#make-me-a-hanzi-clip-8)" d="M 343 166 L 326 112 L 286 33" fill="none" id="make-me-a-hanzi-animation-8" stroke-dasharray="273 546" stroke-linecap="round" />
    
      <clipPath id="make-me-a-hanzi-clip-9">
        <path d="M 520 178 Q 568 103 590 100 Q 602 97 610 113 Q 613 125 607 144 Q 600 162 577 174 Q 543 196 528 202 Q 519 205 517 194 Q 516 187 520 178 Z" />
      </clipPath>
      <path clip-path="url(#make-me-a-hanzi-clip-9)" d="M 528 191 L 578 142 L 593 117" fill="none" id="make-me-a-hanzi-animation-9" stroke-dasharray="227 454" stroke-linecap="round" />
    
      <clipPath id="make-me-a-hanzi-clip-10">
        <path d="M 776 154 Q 822 265 839 353 Q 843 387 859 407 Q 872 423 853 436 Q 831 449 797 457 Q 775 461 756 448 Q 710 420 644 407 Q 619 403 608 397 Q 601 390 618 382 Q 643 370 679 384 L 751 405 Q 776 414 777 385 Q 777 289 738 195 L 716 149 Q 671 82 570 34 Q 557 27 567 22 Q 574 18 600 27 Q 699 46 746 105 L 776 154 Z" />
      </clipPath>
      <path clip-path="url(#make-me-a-hanzi-clip-10)" d="M 615 392 L 666 395 L 774 430 L 797 424 L 813 406 L 792 274 L 763 187 L 737 136 L 687 82 L 638 52 L 571 27" fill="none" id="make-me-a-hanzi-animation-10" stroke-dasharray="826 1652" stroke-linecap="round" />
    
      <clipPath id="make-me-a-hanzi-clip-11">
        <path d="M 746 105 Q 777 59 809 18 Q 822 -1 846 -2 Q 972 -2 986 10 Q 990 16 981 20 Q 837 92 776 154 L 738 195 Q 698 241 652 304 Q 643 319 628 322 Q 603 325 595 316 Q 591 312 599 305 Q 630 286 648 253 Q 682 198 716 149 L 746 105 Z" />
      </clipPath>
      <path clip-path="url(#make-me-a-hanzi-clip-11)" d="M 602 312 L 635 300 L 756 136 L 847 43 L 981 14" fill="none" id="make-me-a-hanzi-animation-11" stroke-dasharray="634 1268" stroke-linecap="round" />
    
  </g>
</svg>