<svg xmlns="http://www.w3.org/2000/svg" version="1.1" viewBox="0 0 1024 1024">
  <g stroke="lightgray" stroke-dasharray="1,1" stroke-width="1" transform="scale(4, 4)">
    <line x1="0" y1="0" x2="256" y2="256" />
    <line x1="256" y1="0" x2="0" y2="256" />
    <line x1="128" y1="0" x2="128" y2="256" />
    <line x1="0" y1="128" x2="256" y2="128" />
  </g>
  <g transform="scale(1.0, -1.0) translate(0.0, -817.00)">
    <style type="text/css">
      
        @keyframes keyframes0 {
          from {
            stroke: blue;
            stroke-dashoffset: 406;
            stroke-width: 128;
          }
          57% {
            animation-timing-function: step-end;
            stroke: blue;
            stroke-dashoffset: 0;
            stroke-width: 128;
          }
          to {
            stroke: black;
            stroke-width: 1024;
          }
        }
        #make-me-a-hanzi-animation-0 {
          animation: keyframes0 0.5804036458333334s both;
          animation-delay: 0s;
          animation-timing-function: linear;
        }
      
        @keyframes keyframes1 {
          from {
            stroke: blue;
            stroke-dashoffset: 399;
            stroke-width: 128;
          }
          56% {
            animation-timing-function: step-end;
            stroke: blue;
            stroke-dashoffset: 0;
            stroke-width: 128;
          }
          to {
            stroke: black;
            stroke-width: 1024;
          }
        }
        #make-me-a-hanzi-animation-1 {
          animation: keyframes1 0.57470703125s both;
          animation-delay: 0.5804036458333334s;
          animation-timing-function: linear;
        }
      
        @keyframes keyframes2 {
          from {
            stroke: blue;
            stroke-dashoffset: 653;
            stroke-width: 128;
          }
          68% {
            animation-timing-function: step-end;
            stroke: blue;
            stroke-dashoffset: 0;
            stroke-width: 128;
          }
          to {
            stroke: black;
            stroke-width: 1024;
          }
        }
        #make-me-a-hanzi-animation-2 {
          animation: keyframes2 0.7814127604166666s both;
          animation-delay: 1.1551106770833335s;
          animation-timing-function: linear;
        }
      
        @keyframes keyframes3 {
          from {
            stroke: blue;
            stroke-dashoffset: 662;
            stroke-width: 128;
          }
          68% {
            animation-timing-function: step-end;
            stroke: blue;
            stroke-dashoffset: 0;
            stroke-width: 128;
          }
          to {
            stroke: black;
            stroke-width: 1024;
          }
        }
        #make-me-a-hanzi-animation-3 {
          animation: keyframes3 0.7887369791666666s both;
          animation-delay: 1.9365234375s;
          animation-timing-function: linear;
        }
      
        @keyframes keyframes4 {
          from {
            stroke: blue;
            stroke-dashoffset: 555;
            stroke-width: 128;
          }
          64% {
            animation-timing-function: step-end;
            stroke: blue;
            stroke-dashoffset: 0;
            stroke-width: 128;
          }
          to {
            stroke: black;
            stroke-width: 1024;
          }
        }
        #make-me-a-hanzi-animation-4 {
          animation: keyframes4 0.70166015625s both;
          animation-delay: 2.7252604166666665s;
          animation-timing-function: linear;
        }
      
        @keyframes keyframes5 {
          from {
            stroke: blue;
            stroke-dashoffset: 675;
            stroke-width: 128;
          }
          69% {
            animation-timing-function: step-end;
            stroke: blue;
            stroke-dashoffset: 0;
            stroke-width: 128;
          }
          to {
            stroke: black;
            stroke-width: 1024;
          }
        }
        #make-me-a-hanzi-animation-5 {
          animation: keyframes5 0.79931640625s both;
          animation-delay: 3.4269205729166665s;
          animation-timing-function: linear;
        }
      
        @keyframes keyframes6 {
          from {
            stroke: blue;
            stroke-dashoffset: 358;
            stroke-width: 128;
          }
          54% {
            animation-timing-function: step-end;
            stroke: blue;
            stroke-dashoffset: 0;
            stroke-width: 128;
          }
          to {
            stroke: black;
            stroke-width: 1024;
          }
        }
        #make-me-a-hanzi-animation-6 {
          animation: keyframes6 0.5413411458333334s both;
          animation-delay: 4.226236979166666s;
          animation-timing-function: linear;
        }
      
        @keyframes keyframes7 {
          from {
            stroke: blue;
            stroke-dashoffset: 574;
            stroke-width: 128;
          }
          65% {
            animation-timing-function: step-end;
            stroke: blue;
            stroke-dashoffset: 0;
            stroke-width: 128;
          }
          to {
            stroke: black;
            stroke-width: 1024;
          }
        }
        #make-me-a-hanzi-animation-7 {
          animation: keyframes7 0.7171223958333334s both;
          animation-delay: 4.767578124999999s;
          animation-timing-function: linear;
        }
      
        @keyframes keyframes8 {
          from {
            stroke: blue;
            stroke-dashoffset: 718;
            stroke-width: 128;
          }
          70% {
            animation-timing-function: step-end;
            stroke: blue;
            stroke-dashoffset: 0;
            stroke-width: 128;
          }
          to {
            stroke: black;
            stroke-width: 1024;
          }
        }
        #make-me-a-hanzi-animation-8 {
          animation: keyframes8 0.8343098958333334s both;
          animation-delay: 5.484700520833332s;
          animation-timing-function: linear;
        }
      
        @keyframes keyframes9 {
          from {
            stroke: blue;
            stroke-dashoffset: 398;
            stroke-width: 128;
          }
          56% {
            animation-timing-function: step-end;
            stroke: blue;
            stroke-dashoffset: 0;
            stroke-width: 128;
          }
          to {
            stroke: black;
            stroke-width: 1024;
          }
        }
        #make-me-a-hanzi-animation-9 {
          animation: keyframes9 0.5738932291666666s both;
          animation-delay: 6.319010416666665s;
          animation-timing-function: linear;
        }
      
        @keyframes keyframes10 {
          from {
            stroke: blue;
            stroke-dashoffset: 637;
            stroke-width: 128;
          }
          67% {
            animation-timing-function: step-end;
            stroke: blue;
            stroke-dashoffset: 0;
            stroke-width: 128;
          }
          to {
            stroke: black;
            stroke-width: 1024;
          }
        }
        #make-me-a-hanzi-animation-10 {
          animation: keyframes10 0.7683919270833334s both;
          animation-delay: 6.892903645833332s;
          animation-timing-function: linear;
        }
      
        @keyframes keyframes11 {
          from {
            stroke: blue;
            stroke-dashoffset: 507;
            stroke-width: 128;
          }
          62% {
            animation-timing-function: step-end;
            stroke: blue;
            stroke-dashoffset: 0;
            stroke-width: 128;
          }
          to {
            stroke: black;
            stroke-width: 1024;
          }
        }
        #make-me-a-hanzi-animation-11 {
          animation: keyframes11 0.66259765625s both;
          animation-delay: 7.661295572916665s;
          animation-timing-function: linear;
        }
      
        @keyframes keyframes12 {
          from {
            stroke: blue;
            stroke-dashoffset: 924;
            stroke-width: 128;
          }
          75% {
            animation-timing-function: step-end;
            stroke: blue;
            stroke-dashoffset: 0;
            stroke-width: 128;
          }
          to {
            stroke: black;
            stroke-width: 1024;
          }
        }
        #make-me-a-hanzi-animation-12 {
          animation: keyframes12 1.001953125s both;
          animation-delay: 8.323893229166664s;
          animation-timing-function: linear;
        }
      
    </style>
    
      <path d="M 186 666 Q 181 668 179 663 Q 177 658 180 655 L 197 631 Q 206 618 230 592 Q 261 561 274 554.5 Q 287 548 299.5 548 Q 312 548 318 558.5 Q 324 569 324.5 585.5 Q 325 602 319 612 Q 304 641 268 649 Q 247 654 216 660 L 186 666 Z" fill="lightgray" />
    
      <path d="M 226 365 Q 226 376 221 390.5 Q 216 405 206 412 Q 198 421 164.5 432 Q 131 443 125 443 L 102 447 Q 94 448 88 446 Q 86 441 89 437 L 104 413 Q 114 397 148.5 362 Q 183 327 199 327 Q 226 327 226 365 Z" fill="lightgray" />
    
      <path d="M 245 218 Q 216 170 200 146 Q 152 79 120 60 Q 102 49 99 46 Q 97 42 94 39 L 94 38 Q 91 25 97 0 L 107 -30 Q 115 -46 116 -49 L 120 -59 Q 128 -77 135 -83.5 Q 142 -90 152 -85 Q 164 -83 170 -61 L 178 -38 Q 180 -31 182 -28 L 210 48 L 302 275 Q 307 288 299 291 Q 291 294 284 281 L 245 218 Z" fill="lightgray" />
    
      <path d="M 679 631 Q 714 636 736 640 L 771 646 Q 812 652 817 671 Q 817 678 792 689 Q 767 700 755 700 L 705 688 L 671 682 L 616 671 L 474 649 L 419 644 Q 398 642 397 636 Q 396 633 401 624.5 Q 406 616 423 613 Q 434 609 443 608 Q 452 607 493.5 608.5 Q 535 610 557 614 L 679 631 Z" fill="lightgray" />
    
      <path d="M 486 412 L 439 407 Q 421 404 418 408 Q 414 412 426 428 L 472 495 Q 480 506 490 516 Q 507 529 501 541 Q 495 552 476 571 Q 456 590 444 586 Q 441 583 440 577 L 435 552 Q 433 542 422 510 Q 411 477 396 453 Q 380 428 375 424 L 360 413 Q 352 407 352 404 Q 351 401 353 392 L 360 374 Q 370 348 390 360 L 425 375 Q 436 380 439 382 Q 442 383 468 388 C 497 394 516 415 486 412 Z" fill="lightgray" />
    
      <path d="M 468 388 L 409 306 Q 379 269 367 262 Q 354 255 353 252 Q 349 235 355 228 Q 359 221 371 212 Q 380 202 386 202 Q 392 202 414 216 Q 425 225 461 242 L 522 266 C 550 277 543 296 515 286 L 441 261 Q 429 256 426 259 Q 422 262 449 296 L 517 379 Q 521 384 541 404 Q 561 424 570 430 Q 579 435 581 440 Q 582 445 581 454 Q 580 462 564 483 Q 547 504 535 504 Q 529 500 526 495 L 517 466 Q 507 437 486 412 L 468 388 Z" fill="lightgray" />
    
      <path d="M 522 266 L 532 252 Q 536 243 542 239 Q 557 231 564 233.5 Q 571 236 579 255 Q 587 274 576 299 Q 567 315 539 325 Q 501 344 498 335 Q 497 332 500 321 L 506 305 Q 507 298 515 286 L 522 266 Z" fill="lightgray" />
    
      <path d="M 662 386 Q 669 389 743 409 C 772 417 794 431 764 430 L 705 428 Q 687 427 682 432 Q 680 440 703 470 L 750 532 Q 760 542 768 548 Q 790 564 765 589 Q 740 614 734 614 Q 727 614 721 612 Q 718 608 716 600 Q 709 552 671 495 L 651 465 Q 635 445 628 438 Q 626 437 623 434 L 614 427 Q 608 421 620 402 Q 630 380 646 380 Q 649 380 650 381 L 662 386 Z" fill="lightgray" />
    
      <path d="M 743 409 L 671 327 Q 666 321 651 308 Q 636 294 627 288 Q 618 282 614 278 Q 610 274 617 263 Q 623 251 630 244 L 642 232 Q 650 230 660 230 L 698 250 Q 709 257 729 261 L 812 286 C 841 295 834 310 804 305 L 707 288 Q 692 286 690 289 Q 687 291 706 312 L 790 400 L 805 417 L 824 433 Q 839 447 853 455 Q 866 462 867 466 Q 873 475 859 499 L 843 519 Q 835 529 831 530 Q 826 531 820 529 Q 815 526 811 513 Q 806 500 803 496 L 795 477 L 783 457 Q 774 442 764 430 L 743 409 Z" fill="lightgray" />
    
      <path d="M 812 286 L 838 249 Q 843 241 849 238 L 861 232 Q 873 226 883 234 Q 886 235 891 244 Q 898 252 898 273.5 Q 898 295 887.5 309.5 Q 877 324 847 343.5 Q 817 363 798 361 L 782 359 L 780 357 L 780 354 L 781 346 L 790 331 L 804 305 L 812 286 Z" fill="lightgray" />
    
      <path d="M 639 92 L 680 96 L 730 104 Q 762 109 776 114 Q 786 114 798 120 Q 810 126 811.5 129 Q 813 132 808 137 Q 806 143 787.5 151.5 Q 769 160 760.5 160 Q 752 160 728 154 L 698 145 L 642 135 L 581 126 L 534 119 L 486 115 L 462 112 L 433 109 Q 408 109 424 91 Q 433 82 442 81 L 474 78 L 504 76 L 583 84 L 639 92 Z" fill="lightgray" />
    
      <path d="M 633 -6 L 639 92 L 642 135 L 644 166 Q 644 172 648 182 Q 652 191 652 201 Q 652 210 631 218 L 614 224 L 587 229 Q 578 232 571 230 Q 564 228 563 223 Q 562 218 568 204 Q 577 190 579 179 Q 580 168 580 141 L 581 126 L 583 84 L 585 -11 C 586 -41 631 -36 633 -6 Z" fill="lightgray" />
    
      <path d="M 312 -35 Q 299 -35 297 -42 Q 296 -46 300 -51 Q 305 -56 330.5 -68.5 Q 356 -81 371.5 -82.5 Q 387 -84 409 -78 L 466 -65 L 524 -56 L 596 -50 Q 658 -44 666 -44 L 738 -43 L 825 -40 L 885 -42 L 942 -43 Q 960 -45 971 -40.5 Q 982 -36 983 -28 Q 985 -21 977 -12 Q 972 -8 951.5 2 Q 931 12 920 15 L 892 23 Q 890 24 849.5 15.5 Q 809 7 740 2 L 633 -6 L 585 -11 L 440 -26 Q 382 -32 360 -32 L 312 -35 Z" fill="lightgray" />
    
    
      <clipPath id="make-me-a-hanzi-clip-0">
        <path d="M 186 666 Q 181 668 179 663 Q 177 658 180 655 L 197 631 Q 206 618 230 592 Q 261 561 274 554.5 Q 287 548 299.5 548 Q 312 548 318 558.5 Q 324 569 324.5 585.5 Q 325 602 319 612 Q 304 641 268 649 Q 247 654 216 660 L 186 666 Z" />
      </clipPath>
      <path clip-path="url(#make-me-a-hanzi-clip-0)" d="M 185 660 L 273 606 L 300 568" fill="none" id="make-me-a-hanzi-animation-0" stroke-dasharray="278 556" stroke-linecap="round" />
    
      <clipPath id="make-me-a-hanzi-clip-1">
        <path d="M 226 365 Q 226 376 221 390.5 Q 216 405 206 412 Q 198 421 164.5 432 Q 131 443 125 443 L 102 447 Q 94 448 88 446 Q 86 441 89 437 L 104 413 Q 114 397 148.5 362 Q 183 327 199 327 Q 226 327 226 365 Z" />
      </clipPath>
      <path clip-path="url(#make-me-a-hanzi-clip-1)" d="M 95 442 L 175 389 L 201 350" fill="none" id="make-me-a-hanzi-animation-1" stroke-dasharray="271 542" stroke-linecap="round" />
    
      <clipPath id="make-me-a-hanzi-clip-2">
        <path d="M 245 218 Q 216 170 200 146 Q 152 79 120 60 Q 102 49 99 46 Q 97 42 94 39 L 94 38 Q 91 25 97 0 L 107 -30 Q 115 -46 116 -49 L 120 -59 Q 128 -77 135 -83.5 Q 142 -90 152 -85 Q 164 -83 170 -61 L 178 -38 Q 180 -31 182 -28 L 210 48 L 302 275 Q 307 288 299 291 Q 291 294 284 281 L 245 218 Z" />
      </clipPath>
      <path clip-path="url(#make-me-a-hanzi-clip-2)" d="M 144 -73 L 145 16 L 221 134 L 296 284" fill="none" id="make-me-a-hanzi-animation-2" stroke-dasharray="525 1050" stroke-linecap="round" />
    
      <clipPath id="make-me-a-hanzi-clip-3">
        <path d="M 679 631 Q 714 636 736 640 L 771 646 Q 812 652 817 671 Q 817 678 792 689 Q 767 700 755 700 L 705 688 L 671 682 L 616 671 L 474 649 L 419 644 Q 398 642 397 636 Q 396 633 401 624.5 Q 406 616 423 613 Q 434 609 443 608 Q 452 607 493.5 608.5 Q 535 610 557 614 L 679 631 Z" />
      </clipPath>
      <path clip-path="url(#make-me-a-hanzi-clip-3)" d="M 405 632 L 483 629 L 755 672 L 808 670" fill="none" id="make-me-a-hanzi-animation-3" stroke-dasharray="534 1068" stroke-linecap="round" />
    
      <clipPath id="make-me-a-hanzi-clip-4">
        <path d="M 486 412 L 439 407 Q 421 404 418 408 Q 414 412 426 428 L 472 495 Q 480 506 490 516 Q 507 529 501 541 Q 495 552 476 571 Q 456 590 444 586 Q 441 583 440 577 L 435 552 Q 433 542 422 510 Q 411 477 396 453 Q 380 428 375 424 L 360 413 Q 352 407 352 404 Q 351 401 353 392 L 360 374 Q 370 348 390 360 L 425 375 Q 436 380 439 382 Q 442 383 468 388 C 497 394 516 415 486 412 Z" />
      </clipPath>
      <path clip-path="url(#make-me-a-hanzi-clip-4)" d="M 449 579 L 463 532 L 399 422 L 389 394 L 426 390 L 456 395 L 478 408" fill="none" id="make-me-a-hanzi-animation-4" stroke-dasharray="427 854" stroke-linecap="round" />
    
      <clipPath id="make-me-a-hanzi-clip-5">
        <path d="M 468 388 L 409 306 Q 379 269 367 262 Q 354 255 353 252 Q 349 235 355 228 Q 359 221 371 212 Q 380 202 386 202 Q 392 202 414 216 Q 425 225 461 242 L 522 266 C 550 277 543 296 515 286 L 441 261 Q 429 256 426 259 Q 422 262 449 296 L 517 379 Q 521 384 541 404 Q 561 424 570 430 Q 579 435 581 440 Q 582 445 581 454 Q 580 462 564 483 Q 547 504 535 504 Q 529 500 526 495 L 517 466 Q 507 437 486 412 L 468 388 Z" />
      </clipPath>
      <path clip-path="url(#make-me-a-hanzi-clip-5)" d="M 537 493 L 546 452 L 416 286 L 398 252 L 400 243 L 431 243 L 481 264 L 514 269" fill="none" id="make-me-a-hanzi-animation-5" stroke-dasharray="547 1094" stroke-linecap="round" />
    
      <clipPath id="make-me-a-hanzi-clip-6">
        <path d="M 522 266 L 532 252 Q 536 243 542 239 Q 557 231 564 233.5 Q 571 236 579 255 Q 587 274 576 299 Q 567 315 539 325 Q 501 344 498 335 Q 497 332 500 321 L 506 305 Q 507 298 515 286 L 522 266 Z" />
      </clipPath>
      <path clip-path="url(#make-me-a-hanzi-clip-6)" d="M 505 329 L 545 290 L 560 246" fill="none" id="make-me-a-hanzi-animation-6" stroke-dasharray="230 460" stroke-linecap="round" />
    
      <clipPath id="make-me-a-hanzi-clip-7">
        <path d="M 662 386 Q 669 389 743 409 C 772 417 794 431 764 430 L 705 428 Q 687 427 682 432 Q 680 440 703 470 L 750 532 Q 760 542 768 548 Q 790 564 765 589 Q 740 614 734 614 Q 727 614 721 612 Q 718 608 716 600 Q 709 552 671 495 L 651 465 Q 635 445 628 438 Q 626 437 623 434 L 614 427 Q 608 421 620 402 Q 630 380 646 380 Q 649 380 650 381 L 662 386 Z" />
      </clipPath>
      <path clip-path="url(#make-me-a-hanzi-clip-7)" d="M 729 602 L 741 567 L 662 446 L 653 417 L 707 412 L 757 427" fill="none" id="make-me-a-hanzi-animation-7" stroke-dasharray="446 892" stroke-linecap="round" />
    
      <clipPath id="make-me-a-hanzi-clip-8">
        <path d="M 743 409 L 671 327 Q 666 321 651 308 Q 636 294 627 288 Q 618 282 614 278 Q 610 274 617 263 Q 623 251 630 244 L 642 232 Q 650 230 660 230 L 698 250 Q 709 257 729 261 L 812 286 C 841 295 834 310 804 305 L 707 288 Q 692 286 690 289 Q 687 291 706 312 L 790 400 L 805 417 L 824 433 Q 839 447 853 455 Q 866 462 867 466 Q 873 475 859 499 L 843 519 Q 835 529 831 530 Q 826 531 820 529 Q 815 526 811 513 Q 806 500 803 496 L 795 477 L 783 457 Q 774 442 764 430 L 743 409 Z" />
      </clipPath>
      <path clip-path="url(#make-me-a-hanzi-clip-8)" d="M 826 519 L 831 479 L 671 299 L 660 269 L 694 268 L 797 293 L 804 288" fill="none" id="make-me-a-hanzi-animation-8" stroke-dasharray="590 1180" stroke-linecap="round" />
    
      <clipPath id="make-me-a-hanzi-clip-9">
        <path d="M 812 286 L 838 249 Q 843 241 849 238 L 861 232 Q 873 226 883 234 Q 886 235 891 244 Q 898 252 898 273.5 Q 898 295 887.5 309.5 Q 877 324 847 343.5 Q 817 363 798 361 L 782 359 L 780 357 L 780 354 L 781 346 L 790 331 L 804 305 L 812 286 Z" />
      </clipPath>
      <path clip-path="url(#make-me-a-hanzi-clip-9)" d="M 784 356 L 817 333 L 852 294 L 871 248" fill="none" id="make-me-a-hanzi-animation-9" stroke-dasharray="270 540" stroke-linecap="round" />
    
      <clipPath id="make-me-a-hanzi-clip-10">
        <path d="M 639 92 L 680 96 L 730 104 Q 762 109 776 114 Q 786 114 798 120 Q 810 126 811.5 129 Q 813 132 808 137 Q 806 143 787.5 151.5 Q 769 160 760.5 160 Q 752 160 728 154 L 698 145 L 642 135 L 581 126 L 534 119 L 486 115 L 462 112 L 433 109 Q 408 109 424 91 Q 433 82 442 81 L 474 78 L 504 76 L 583 84 L 639 92 Z" />
      </clipPath>
      <path clip-path="url(#make-me-a-hanzi-clip-10)" d="M 428 100 L 510 96 L 759 135 L 806 131" fill="none" id="make-me-a-hanzi-animation-10" stroke-dasharray="509 1018" stroke-linecap="round" />
    
      <clipPath id="make-me-a-hanzi-clip-11">
        <path d="M 633 -6 L 639 92 L 642 135 L 644 166 Q 644 172 648 182 Q 652 191 652 201 Q 652 210 631 218 L 614 224 L 587 229 Q 578 232 571 230 Q 564 228 563 223 Q 562 218 568 204 Q 577 190 579 179 Q 580 168 580 141 L 581 126 L 583 84 L 585 -11 C 586 -41 631 -36 633 -6 Z" />
      </clipPath>
      <path clip-path="url(#make-me-a-hanzi-clip-11)" d="M 572 220 L 613 187 L 610 17 L 590 -3" fill="none" id="make-me-a-hanzi-animation-11" stroke-dasharray="379 758" stroke-linecap="round" />
    
      <clipPath id="make-me-a-hanzi-clip-12">
        <path d="M 312 -35 Q 299 -35 297 -42 Q 296 -46 300 -51 Q 305 -56 330.5 -68.5 Q 356 -81 371.5 -82.5 Q 387 -84 409 -78 L 466 -65 L 524 -56 L 596 -50 Q 658 -44 666 -44 L 738 -43 L 825 -40 L 885 -42 L 942 -43 Q 960 -45 971 -40.5 Q 982 -36 983 -28 Q 985 -21 977 -12 Q 972 -8 951.5 2 Q 931 12 920 15 L 892 23 Q 890 24 849.5 15.5 Q 809 7 740 2 L 633 -6 L 585 -11 L 440 -26 Q 382 -32 360 -32 L 312 -35 Z" />
      </clipPath>
      <path clip-path="url(#make-me-a-hanzi-clip-12)" d="M 305 -44 L 386 -57 L 617 -27 L 885 -10 L 968 -25" fill="none" id="make-me-a-hanzi-animation-12" stroke-dasharray="796 1592" stroke-linecap="round" />
    
  </g>
</svg>