<svg xmlns="http://www.w3.org/2000/svg" version="1.1" viewBox="0 0 1024 1024">
  <g stroke="lightgray" stroke-dasharray="1,1" stroke-width="1" transform="scale(4, 4)">
    <line x1="0" y1="0" x2="256" y2="256" />
    <line x1="256" y1="0" x2="0" y2="256" />
    <line x1="128" y1="0" x2="128" y2="256" />
    <line x1="0" y1="128" x2="256" y2="128" />
  </g>
  <g transform="scale(1.0, -1.0) translate(0.0, -795.50)">
    <style type="text/css">
      
        @keyframes keyframes0 {
          from {
            stroke: blue;
            stroke-dashoffset: 400;
            stroke-width: 128;
          }
          57% {
            animation-timing-function: step-end;
            stroke: blue;
            stroke-dashoffset: 0;
            stroke-width: 128;
          }
          to {
            stroke: black;
            stroke-width: 1024;
          }
        }
        #make-me-a-hanzi-animation-0 {
          animation: keyframes0 0.5755208333333334s both;
          animation-delay: 0s;
          animation-timing-function: linear;
        }
      
        @keyframes keyframes1 {
          from {
            stroke: blue;
            stroke-dashoffset: 400;
            stroke-width: 128;
          }
          57% {
            animation-timing-function: step-end;
            stroke: blue;
            stroke-dashoffset: 0;
            stroke-width: 128;
          }
          to {
            stroke: black;
            stroke-width: 1024;
          }
        }
        #make-me-a-hanzi-animation-1 {
          animation: keyframes1 0.5755208333333334s both;
          animation-delay: 0.5755208333333334s;
          animation-timing-function: linear;
        }
      
        @keyframes keyframes2 {
          from {
            stroke: blue;
            stroke-dashoffset: 649;
            stroke-width: 128;
          }
          68% {
            animation-timing-function: step-end;
            stroke: blue;
            stroke-dashoffset: 0;
            stroke-width: 128;
          }
          to {
            stroke: black;
            stroke-width: 1024;
          }
        }
        #make-me-a-hanzi-animation-2 {
          animation: keyframes2 0.7781575520833334s both;
          animation-delay: 1.1510416666666667s;
          animation-timing-function: linear;
        }
      
        @keyframes keyframes3 {
          from {
            stroke: blue;
            stroke-dashoffset: 695;
            stroke-width: 128;
          }
          69% {
            animation-timing-function: step-end;
            stroke: blue;
            stroke-dashoffset: 0;
            stroke-width: 128;
          }
          to {
            stroke: black;
            stroke-width: 1024;
          }
        }
        #make-me-a-hanzi-animation-3 {
          animation: keyframes3 0.8155924479166666s both;
          animation-delay: 1.92919921875s;
          animation-timing-function: linear;
        }
      
        @keyframes keyframes4 {
          from {
            stroke: blue;
            stroke-dashoffset: 812;
            stroke-width: 128;
          }
          73% {
            animation-timing-function: step-end;
            stroke: blue;
            stroke-dashoffset: 0;
            stroke-width: 128;
          }
          to {
            stroke: black;
            stroke-width: 1024;
          }
        }
        #make-me-a-hanzi-animation-4 {
          animation: keyframes4 0.9108072916666666s both;
          animation-delay: 2.7447916666666665s;
          animation-timing-function: linear;
        }
      
        @keyframes keyframes5 {
          from {
            stroke: blue;
            stroke-dashoffset: 558;
            stroke-width: 128;
          }
          64% {
            animation-timing-function: step-end;
            stroke: blue;
            stroke-dashoffset: 0;
            stroke-width: 128;
          }
          to {
            stroke: black;
            stroke-width: 1024;
          }
        }
        #make-me-a-hanzi-animation-5 {
          animation: keyframes5 0.7041015625s both;
          animation-delay: 3.655598958333333s;
          animation-timing-function: linear;
        }
      
        @keyframes keyframes6 {
          from {
            stroke: blue;
            stroke-dashoffset: 655;
            stroke-width: 128;
          }
          68% {
            animation-timing-function: step-end;
            stroke: blue;
            stroke-dashoffset: 0;
            stroke-width: 128;
          }
          to {
            stroke: black;
            stroke-width: 1024;
          }
        }
        #make-me-a-hanzi-animation-6 {
          animation: keyframes6 0.7830403645833334s both;
          animation-delay: 4.359700520833333s;
          animation-timing-function: linear;
        }
      
        @keyframes keyframes7 {
          from {
            stroke: blue;
            stroke-dashoffset: 595;
            stroke-width: 128;
          }
          66% {
            animation-timing-function: step-end;
            stroke: blue;
            stroke-dashoffset: 0;
            stroke-width: 128;
          }
          to {
            stroke: black;
            stroke-width: 1024;
          }
        }
        #make-me-a-hanzi-animation-7 {
          animation: keyframes7 0.7342122395833334s both;
          animation-delay: 5.142740885416666s;
          animation-timing-function: linear;
        }
      
        @keyframes keyframes8 {
          from {
            stroke: blue;
            stroke-dashoffset: 377;
            stroke-width: 128;
          }
          55% {
            animation-timing-function: step-end;
            stroke: blue;
            stroke-dashoffset: 0;
            stroke-width: 128;
          }
          to {
            stroke: black;
            stroke-width: 1024;
          }
        }
        #make-me-a-hanzi-animation-8 {
          animation: keyframes8 0.5568033854166666s both;
          animation-delay: 5.876953124999999s;
          animation-timing-function: linear;
        }
      
        @keyframes keyframes9 {
          from {
            stroke: blue;
            stroke-dashoffset: 554;
            stroke-width: 128;
          }
          64% {
            animation-timing-function: step-end;
            stroke: blue;
            stroke-dashoffset: 0;
            stroke-width: 128;
          }
          to {
            stroke: black;
            stroke-width: 1024;
          }
        }
        #make-me-a-hanzi-animation-9 {
          animation: keyframes9 0.7008463541666666s both;
          animation-delay: 6.433756510416666s;
          animation-timing-function: linear;
        }
      
        @keyframes keyframes10 {
          from {
            stroke: blue;
            stroke-dashoffset: 798;
            stroke-width: 128;
          }
          72% {
            animation-timing-function: step-end;
            stroke: blue;
            stroke-dashoffset: 0;
            stroke-width: 128;
          }
          to {
            stroke: black;
            stroke-width: 1024;
          }
        }
        #make-me-a-hanzi-animation-10 {
          animation: keyframes10 0.8994140625s both;
          animation-delay: 7.134602864583333s;
          animation-timing-function: linear;
        }
      
        @keyframes keyframes11 {
          from {
            stroke: blue;
            stroke-dashoffset: 768;
            stroke-width: 128;
          }
          71% {
            animation-timing-function: step-end;
            stroke: blue;
            stroke-dashoffset: 0;
            stroke-width: 128;
          }
          to {
            stroke: black;
            stroke-width: 1024;
          }
        }
        #make-me-a-hanzi-animation-11 {
          animation: keyframes11 0.875s both;
          animation-delay: 8.034016927083332s;
          animation-timing-function: linear;
        }
      
        @keyframes keyframes12 {
          from {
            stroke: blue;
            stroke-dashoffset: 373;
            stroke-width: 128;
          }
          55% {
            animation-timing-function: step-end;
            stroke: blue;
            stroke-dashoffset: 0;
            stroke-width: 128;
          }
          to {
            stroke: black;
            stroke-width: 1024;
          }
        }
        #make-me-a-hanzi-animation-12 {
          animation: keyframes12 0.5535481770833334s both;
          animation-delay: 8.909016927083332s;
          animation-timing-function: linear;
        }
      
    </style>
    
      <path d="M 189 650 Q 198 636 222 608 Q 246 580 260 571 Q 273 562 284 562 Q 295 564 303 573 Q 311 582 312 600 Q 312 614 308 625 Q 302 636 289 647 Q 275 658 255 666 Q 234 673 206 680 L 185 686 Q 181 687 179 687 Q 175 687 174 685 Q 171 682 171 678 Q 172 674 176 667 L 189 650 Z" fill="lightgray" />
    
      <path d="M 101 457 L 97 457 Q 91 457 89 455 Q 88 453 88 451 L 88 448 Q 88 445 92 440 L 103 424 Q 115 407 137 383 Q 158 360 174 348 Q 188 336 200 336 L 203 336 Q 209 336 215 340 Q 222 345 226 354 Q 229 362 230 372 Q 230 392 222 404 Q 214 416 200 425 Q 186 434 162 442 Q 137 450 116 454 L 101 457 Z" fill="lightgray" />
    
      <path d="M 255 237 Q 228 188 212 163 Q 197 138 180 115 Q 162 91 148 77 Q 135 62 120 54 Q 105 46 102 41 Q 98 36 98 27 Q 97 24 97 20 Q 97 13 100 4 Q 102 -10 106 -18 Q 108 -27 116 -44 Q 123 -62 129 -68 Q 137 -79 144 -79 Q 151 -78 158 -66 Q 164 -54 172 -30 Q 178 -6 186 12 L 215 78 L 254 165 L 282 235 L 295 270 Q 297 276 297 281 Q 297 284 296 287 Q 294 292 289 292 Q 284 290 280 282 L 255 237 Z" fill="lightgray" />
    
      <path d="M 475 636 L 500 640 L 564 653 Q 586 657 635 664 Q 684 670 705 672 Q 727 674 757 676 L 787 676 Q 804 677 808 680 Q 811 684 811 688 L 811 689 Q 811 693 803 700 Q 795 708 781 718 Q 766 728 757 730 Q 747 733 740 733 Q 734 732 719 728 L 689 720 Q 673 716 617 704 Q 562 693 548 690 Q 535 688 482 679 Q 429 670 411 668 L 378 663 Q 365 661 363 658 L 363 656 Q 363 653 365 649 Q 368 644 375 640 Q 382 636 397 630 L 475 636 Z" fill="lightgray" />
    
      <path d="M 397 630 L 402 610 Q 405 600 405 576 Q 404 561 402 526 L 394 455 Q 390 420 381 374 Q 371 328 358 287 Q 344 246 329 214 Q 314 182 301 159 L 286 134 Q 281 126 281 122 Q 281 121 282 120 Q 283 118 285 118 Q 288 118 293 122 L 310 135 Q 318 142 332 157 Q 344 172 361 196 Q 378 220 394 256 Q 410 292 421 332 Q 432 372 438 401 Q 444 430 445 440 Q 446 450 449 469 L 452 484 L 456 520 L 459 544 Q 459 548 460 554 L 462 572 L 464 592 Q 466 614 468 621 Q 471 628 475 636 C 487 663 390 659 397 630 Z" fill="lightgray" />
    
      <path d="M 460 554 L 468 550 Q 473 546 488 544 Q 497 543 507 543 L 516 543 Q 528 544 546 547 Q 566 550 602 557 L 660 568 L 705 576 L 736 582 L 753 586 Q 772 590 772 595 Q 772 600 768 604 Q 765 608 754 612 L 728 618 Q 716 620 709 620 Q 704 620 691 616 Q 678 612 664 609 Q 650 605 626 600 Q 602 595 562 588 Q 522 581 503 578 Q 484 574 474 574 L 462 572 C 434 567 434 567 460 554 Z" fill="lightgray" />
    
      <path d="M 449 469 L 464 460 Q 467 458 475 454 Q 483 451 487 450 Q 492 449 499 448 L 545 458 L 580 466 Q 588 468 619 472 Q 650 478 686 481 Q 722 484 752 486 L 828 486 Q 852 486 857 490 Q 861 493 861 497 L 861 498 Q 860 502 855 508 Q 850 512 839 520 Q 828 526 815 531 Q 802 535 792 535 Q 784 534 766 530 Q 747 526 731 523 Q 715 520 681 516 Q 648 512 628 508 L 590 502 L 551 497 L 513 491 Q 502 489 470 486 L 454 485 L 452 484 C 429 481 429 481 449 469 Z" fill="lightgray" />
    
      <path d="M 499 448 L 501 440 L 506 414 Q 508 398 508 378 L 505 332 L 504 315 Q 502 288 492 274 L 483 260 L 483 256 Q 483 251 484 246 Q 487 238 492 228 Q 498 218 503 212 Q 508 208 514 207 L 515 207 Q 521 207 531 220 Q 542 234 562 252 L 657 339 Q 665 347 665 350 L 665 351 Q 664 355 660 356 L 642 346 L 582 313 Q 560 301 556 300 Q 552 300 550 302 Q 548 304 548 314 L 547 338 L 550 396 Q 550 401 551 410 Q 552 419 554 424 Q 559 436 559 441 L 559 442 Q 559 446 545 458 C 523 478 492 477 499 448 Z" fill="lightgray" />
    
      <path d="M 740 382 L 776 398 L 800 408 Q 814 414 816 415 Q 818 416 830 418 Q 842 420 844 424 Q 845 425 845 426 Q 845 431 840 438 Q 834 447 824 456 Q 815 465 806 470 Q 798 475 793 475 Q 792 475 791 474 Q 788 472 782 461 Q 777 450 776 447 Q 774 444 764 432 L 750 415 L 725 390 C 704 369 713 370 740 382 Z" fill="lightgray" />
    
      <path d="M 725 390 L 696 404 Q 676 412 660 420 L 638 428 Q 631 432 627 432 Q 625 432 624 431 Q 620 429 618 426 Q 618 422 632 412 L 648 401 L 735 336 Q 783 299 809 274 Q 836 250 842 246 Q 849 241 852 240 Q 856 239 860 239 L 863 239 Q 867 239 870 240 Q 875 242 880 250 Q 884 257 884 269 Q 884 280 880 288 Q 878 296 866 308 Q 856 320 826 337 Q 796 354 740 382 L 725 390 Z" fill="lightgray" />
    
      <path d="M 762 163 L 784 164 Q 802 166 823 167 Q 845 168 866 168 L 899 168 Q 929 168 934 173 Q 938 178 938 182 Q 937 186 931 192 Q 925 198 912 205 Q 899 212 882 218 Q 866 222 854 222 Q 845 222 822 216 Q 799 211 785 209 Q 770 207 764 206 L 712 199 L 682 194 Q 680 194 652 190 L 560 178 Q 522 173 495 169 Q 468 164 465 164 L 413 160 L 394 157 Q 386 156 384 153 Q 381 150 381 146 Q 382 142 388 138 Q 396 132 408 127 Q 421 121 430 118 Q 437 115 442 115 Q 445 115 447 116 Q 449 116 463 120 Q 478 126 496 128 L 583 144 L 694 156 Q 700 157 714 159 L 762 163 Z" fill="lightgray" />
    
      <path d="M 714 159 L 713 140 L 713 43 Q 713 13 710 -20 L 708 -47 Q 706 -64 702 -68 Q 696 -72 686 -72 Q 675 -72 658 -68 Q 642 -64 634 -63 L 615 -61 L 613 -61 Q 609 -61 607 -65 Q 606 -66 606 -67 Q 606 -70 613 -75 L 622 -82 Q 646 -101 658 -113 Q 670 -125 680 -136 L 696 -154 Q 706 -166 711 -166 Q 716 -165 724 -160 Q 731 -155 742 -142 Q 754 -130 758 -117 Q 764 -104 765 -86 L 767 -50 L 766 12 L 764 116 L 763 134 Q 762 144 762 163 L 764 206 L 766 224 Q 767 227 769 235 Q 771 242 771 246 Q 771 248 770 250 Q 769 255 765 259 Q 760 264 756 266 Q 751 268 731 274 Q 715 278 706 278 L 703 278 Q 692 275 691 271 L 691 268 Q 691 265 692 263 Q 693 260 699 245 Q 706 230 708 220 L 712 199 L 714 159 Z" fill="lightgray" />
    
      <path d="M 492 98 Q 488 99 485 99 Q 483 99 481 98 Q 478 95 477 92 L 477 91 Q 477 88 482 80 L 489 66 Q 492 60 501 47 L 521 18 Q 532 3 542 -4 Q 553 -14 562 -14 L 564 -14 Q 574 -14 582 -4 Q 589 5 589 23 L 589 27 Q 588 48 582 56 Q 576 64 563 73 Q 550 81 534 86 L 511 93 L 492 98 Z" fill="lightgray" />
    
    
      <clipPath id="make-me-a-hanzi-clip-0">
        <path d="M 189 650 Q 198 636 222 608 Q 246 580 260 571 Q 273 562 284 562 Q 295 564 303 573 Q 311 582 312 600 Q 312 614 308 625 Q 302 636 289 647 Q 275 658 255 666 Q 234 673 206 680 L 185 686 Q 181 687 179 687 Q 175 687 174 685 Q 171 682 171 678 Q 172 674 176 667 L 189 650 Z" />
      </clipPath>
      <path clip-path="url(#make-me-a-hanzi-clip-0)" d="M 180 679 L 262 620 L 277 602 L 282 583" fill="none" id="make-me-a-hanzi-animation-0" stroke-dasharray="272 544" stroke-linecap="round" />
    
      <clipPath id="make-me-a-hanzi-clip-1">
        <path d="M 101 457 L 97 457 Q 91 457 89 455 Q 88 453 88 451 L 88 448 Q 88 445 92 440 L 103 424 Q 115 407 137 383 Q 158 360 174 348 Q 188 336 200 336 L 203 336 Q 209 336 215 340 Q 222 345 226 354 Q 229 362 230 372 Q 230 392 222 404 Q 214 416 200 425 Q 186 434 162 442 Q 137 450 116 454 L 101 457 Z" />
      </clipPath>
      <path clip-path="url(#make-me-a-hanzi-clip-1)" d="M 94 452 L 183 391 L 202 360" fill="none" id="make-me-a-hanzi-animation-1" stroke-dasharray="272 544" stroke-linecap="round" />
    
      <clipPath id="make-me-a-hanzi-clip-2">
        <path d="M 255 237 Q 228 188 212 163 Q 197 138 180 115 Q 162 91 148 77 Q 135 62 120 54 Q 105 46 102 41 Q 98 36 98 27 Q 97 24 97 20 Q 97 13 100 4 Q 102 -10 106 -18 Q 108 -27 116 -44 Q 123 -62 129 -68 Q 137 -79 144 -79 Q 151 -78 158 -66 Q 164 -54 172 -30 Q 178 -6 186 12 L 215 78 L 254 165 L 282 235 L 295 270 Q 297 276 297 281 Q 297 284 296 287 Q 294 292 289 292 Q 284 290 280 282 L 255 237 Z" />
      </clipPath>
      <path clip-path="url(#make-me-a-hanzi-clip-2)" d="M 143 -70 L 141 16 L 228 151 L 288 284" fill="none" id="make-me-a-hanzi-animation-2" stroke-dasharray="521 1042" stroke-linecap="round" />
    
      <clipPath id="make-me-a-hanzi-clip-3">
        <path d="M 475 636 L 500 640 L 564 653 Q 586 657 635 664 Q 684 670 705 672 Q 727 674 757 676 L 787 676 Q 804 677 808 680 Q 811 684 811 688 L 811 689 Q 811 693 803 700 Q 795 708 781 718 Q 766 728 757 730 Q 747 733 740 733 Q 734 732 719 728 L 689 720 Q 673 716 617 704 Q 562 693 548 690 Q 535 688 482 679 Q 429 670 411 668 L 378 663 Q 365 661 363 658 L 363 656 Q 363 653 365 649 Q 368 644 375 640 Q 382 636 397 630 L 475 636 Z" />
      </clipPath>
      <path clip-path="url(#make-me-a-hanzi-clip-3)" d="M 372 657 L 397 648 L 435 651 L 741 704 L 802 687" fill="none" id="make-me-a-hanzi-animation-3" stroke-dasharray="567 1134" stroke-linecap="round" />
    
      <clipPath id="make-me-a-hanzi-clip-4">
        <path d="M 397 630 L 402 610 Q 405 600 405 576 Q 404 561 402 526 L 394 455 Q 390 420 381 374 Q 371 328 358 287 Q 344 246 329 214 Q 314 182 301 159 L 286 134 Q 281 126 281 122 Q 281 121 282 120 Q 283 118 285 118 Q 288 118 293 122 L 310 135 Q 318 142 332 157 Q 344 172 361 196 Q 378 220 394 256 Q 410 292 421 332 Q 432 372 438 401 Q 444 430 445 440 Q 446 450 449 469 L 452 484 L 456 520 L 459 544 Q 459 548 460 554 L 462 572 L 464 592 Q 466 614 468 621 Q 471 628 475 636 C 487 663 390 659 397 630 Z" />
      </clipPath>
      <path clip-path="url(#make-me-a-hanzi-clip-4)" d="M 467 635 L 434 599 L 415 415 L 381 283 L 336 189 L 287 124" fill="none" id="make-me-a-hanzi-animation-4" stroke-dasharray="684 1368" stroke-linecap="round" />
    
      <clipPath id="make-me-a-hanzi-clip-5">
        <path d="M 460 554 L 468 550 Q 473 546 488 544 Q 497 543 507 543 L 516 543 Q 528 544 546 547 Q 566 550 602 557 L 660 568 L 705 576 L 736 582 L 753 586 Q 772 590 772 595 Q 772 600 768 604 Q 765 608 754 612 L 728 618 Q 716 620 709 620 Q 704 620 691 616 Q 678 612 664 609 Q 650 605 626 600 Q 602 595 562 588 Q 522 581 503 578 Q 484 574 474 574 L 462 572 C 434 567 434 567 460 554 Z" />
      </clipPath>
      <path clip-path="url(#make-me-a-hanzi-clip-5)" d="M 469 567 L 474 561 L 503 560 L 709 598 L 765 597" fill="none" id="make-me-a-hanzi-animation-5" stroke-dasharray="430 860" stroke-linecap="round" />
    
      <clipPath id="make-me-a-hanzi-clip-6">
        <path d="M 449 469 L 464 460 Q 467 458 475 454 Q 483 451 487 450 Q 492 449 499 448 L 545 458 L 580 466 Q 588 468 619 472 Q 650 478 686 481 Q 722 484 752 486 L 828 486 Q 852 486 857 490 Q 861 493 861 497 L 861 498 Q 860 502 855 508 Q 850 512 839 520 Q 828 526 815 531 Q 802 535 792 535 Q 784 534 766 530 Q 747 526 731 523 Q 715 520 681 516 Q 648 512 628 508 L 590 502 L 551 497 L 513 491 Q 502 489 470 486 L 454 485 L 452 484 C 429 481 429 481 449 469 Z" />
      </clipPath>
      <path clip-path="url(#make-me-a-hanzi-clip-6)" d="M 458 475 L 503 469 L 661 496 L 795 511 L 852 498" fill="none" id="make-me-a-hanzi-animation-6" stroke-dasharray="527 1054" stroke-linecap="round" />
    
      <clipPath id="make-me-a-hanzi-clip-7">
        <path d="M 499 448 L 501 440 L 506 414 Q 508 398 508 378 L 505 332 L 504 315 Q 502 288 492 274 L 483 260 L 483 256 Q 483 251 484 246 Q 487 238 492 228 Q 498 218 503 212 Q 508 208 514 207 L 515 207 Q 521 207 531 220 Q 542 234 562 252 L 657 339 Q 665 347 665 350 L 665 351 Q 664 355 660 356 L 642 346 L 582 313 Q 560 301 556 300 Q 552 300 550 302 Q 548 304 548 314 L 547 338 L 550 396 Q 550 401 551 410 Q 552 419 554 424 Q 559 436 559 441 L 559 442 Q 559 446 545 458 C 523 478 492 477 499 448 Z" />
      </clipPath>
      <path clip-path="url(#make-me-a-hanzi-clip-7)" d="M 507 446 L 529 429 L 526 304 L 532 271 L 565 281 L 660 351" fill="none" id="make-me-a-hanzi-animation-7" stroke-dasharray="467 934" stroke-linecap="round" />
    
      <clipPath id="make-me-a-hanzi-clip-8">
        <path d="M 740 382 L 776 398 L 800 408 Q 814 414 816 415 Q 818 416 830 418 Q 842 420 844 424 Q 845 425 845 426 Q 845 431 840 438 Q 834 447 824 456 Q 815 465 806 470 Q 798 475 793 475 Q 792 475 791 474 Q 788 472 782 461 Q 777 450 776 447 Q 774 444 764 432 L 750 415 L 725 390 C 704 369 713 370 740 382 Z" />
      </clipPath>
      <path clip-path="url(#make-me-a-hanzi-clip-8)" d="M 836 429 L 802 439 L 753 400 L 731 392" fill="none" id="make-me-a-hanzi-animation-8" stroke-dasharray="249 498" stroke-linecap="round" />
    
      <clipPath id="make-me-a-hanzi-clip-9">
        <path d="M 725 390 L 696 404 Q 676 412 660 420 L 638 428 Q 631 432 627 432 Q 625 432 624 431 Q 620 429 618 426 Q 618 422 632 412 L 648 401 L 735 336 Q 783 299 809 274 Q 836 250 842 246 Q 849 241 852 240 Q 856 239 860 239 L 863 239 Q 867 239 870 240 Q 875 242 880 250 Q 884 257 884 269 Q 884 280 880 288 Q 878 296 866 308 Q 856 320 826 337 Q 796 354 740 382 L 725 390 Z" />
      </clipPath>
      <path clip-path="url(#make-me-a-hanzi-clip-9)" d="M 623 426 L 799 321 L 850 279 L 864 256" fill="none" id="make-me-a-hanzi-animation-9" stroke-dasharray="426 852" stroke-linecap="round" />
    
      <clipPath id="make-me-a-hanzi-clip-10">
        <path d="M 762 163 L 784 164 Q 802 166 823 167 Q 845 168 866 168 L 899 168 Q 929 168 934 173 Q 938 178 938 182 Q 937 186 931 192 Q 925 198 912 205 Q 899 212 882 218 Q 866 222 854 222 Q 845 222 822 216 Q 799 211 785 209 Q 770 207 764 206 L 712 199 L 682 194 Q 680 194 652 190 L 560 178 Q 522 173 495 169 Q 468 164 465 164 L 413 160 L 394 157 Q 386 156 384 153 Q 381 150 381 146 Q 382 142 388 138 Q 396 132 408 127 Q 421 121 430 118 Q 437 115 442 115 Q 445 115 447 116 Q 449 116 463 120 Q 478 126 496 128 L 583 144 L 694 156 Q 700 157 714 159 L 762 163 Z" />
      </clipPath>
      <path clip-path="url(#make-me-a-hanzi-clip-10)" d="M 390 146 L 452 140 L 555 159 L 853 195 L 927 182" fill="none" id="make-me-a-hanzi-animation-10" stroke-dasharray="670 1340" stroke-linecap="round" />
    
      <clipPath id="make-me-a-hanzi-clip-11">
        <path d="M 714 159 L 713 140 L 713 43 Q 713 13 710 -20 L 708 -47 Q 706 -64 702 -68 Q 696 -72 686 -72 Q 675 -72 658 -68 Q 642 -64 634 -63 L 615 -61 L 613 -61 Q 609 -61 607 -65 Q 606 -66 606 -67 Q 606 -70 613 -75 L 622 -82 Q 646 -101 658 -113 Q 670 -125 680 -136 L 696 -154 Q 706 -166 711 -166 Q 716 -165 724 -160 Q 731 -155 742 -142 Q 754 -130 758 -117 Q 764 -104 765 -86 L 767 -50 L 766 12 L 764 116 L 763 134 Q 762 144 762 163 L 764 206 L 766 224 Q 767 227 769 235 Q 771 242 771 246 Q 771 248 770 250 Q 769 255 765 259 Q 760 264 756 266 Q 751 268 731 274 Q 715 278 706 278 L 703 278 Q 692 275 691 271 L 691 268 Q 691 265 692 263 Q 693 260 699 245 Q 706 230 708 220 L 712 199 L 714 159 Z" />
      </clipPath>
      <path clip-path="url(#make-me-a-hanzi-clip-11)" d="M 700 270 L 737 238 L 739 3 L 733 -79 L 714 -110 L 612 -69" fill="none" id="make-me-a-hanzi-animation-11" stroke-dasharray="640 1280" stroke-linecap="round" />
    
      <clipPath id="make-me-a-hanzi-clip-12">
        <path d="M 492 98 Q 488 99 485 99 Q 483 99 481 98 Q 478 95 477 92 L 477 91 Q 477 88 482 80 L 489 66 Q 492 60 501 47 L 521 18 Q 532 3 542 -4 Q 553 -14 562 -14 L 564 -14 Q 574 -14 582 -4 Q 589 5 589 23 L 589 27 Q 588 48 582 56 Q 576 64 563 73 Q 550 81 534 86 L 511 93 L 492 98 Z" />
      </clipPath>
      <path clip-path="url(#make-me-a-hanzi-clip-12)" d="M 484 92 L 541 48 L 563 9" fill="none" id="make-me-a-hanzi-animation-12" stroke-dasharray="245 490" stroke-linecap="round" />
    
  </g>
</svg>