<svg xmlns="http://www.w3.org/2000/svg" version="1.1" viewBox="0 0 1024 1024">
  <g stroke="lightgray" stroke-dasharray="1,1" stroke-width="1" transform="scale(4, 4)">
    <line x1="0" y1="0" x2="256" y2="256" />
    <line x1="256" y1="0" x2="0" y2="256" />
    <line x1="128" y1="0" x2="128" y2="256" />
    <line x1="0" y1="128" x2="256" y2="128" />
  </g>
  <g transform="scale(1.0, -1.0) translate(0.0, -786.00)">
    <style type="text/css">
      
        @keyframes keyframes0 {
          from {
            stroke: blue;
            stroke-dashoffset: 407;
            stroke-width: 128;
          }
          57% {
            animation-timing-function: step-end;
            stroke: blue;
            stroke-dashoffset: 0;
            stroke-width: 128;
          }
          to {
            stroke: black;
            stroke-width: 1024;
          }
        }
        #make-me-a-hanzi-animation-0 {
          animation: keyframes0 0.5812174479166666s both;
          animation-delay: 0s;
          animation-timing-function: linear;
        }
      
        @keyframes keyframes1 {
          from {
            stroke: blue;
            stroke-dashoffset: 407;
            stroke-width: 128;
          }
          57% {
            animation-timing-function: step-end;
            stroke: blue;
            stroke-dashoffset: 0;
            stroke-width: 128;
          }
          to {
            stroke: black;
            stroke-width: 1024;
          }
        }
        #make-me-a-hanzi-animation-1 {
          animation: keyframes1 0.5812174479166666s both;
          animation-delay: 0.5812174479166666s;
          animation-timing-function: linear;
        }
      
        @keyframes keyframes2 {
          from {
            stroke: blue;
            stroke-dashoffset: 634;
            stroke-width: 128;
          }
          67% {
            animation-timing-function: step-end;
            stroke: blue;
            stroke-dashoffset: 0;
            stroke-width: 128;
          }
          to {
            stroke: black;
            stroke-width: 1024;
          }
        }
        #make-me-a-hanzi-animation-2 {
          animation: keyframes2 0.7659505208333334s both;
          animation-delay: 1.1624348958333333s;
          animation-timing-function: linear;
        }
      
        @keyframes keyframes3 {
          from {
            stroke: blue;
            stroke-dashoffset: 529;
            stroke-width: 128;
          }
          63% {
            animation-timing-function: step-end;
            stroke: blue;
            stroke-dashoffset: 0;
            stroke-width: 128;
          }
          to {
            stroke: black;
            stroke-width: 1024;
          }
        }
        #make-me-a-hanzi-animation-3 {
          animation: keyframes3 0.6805013020833334s both;
          animation-delay: 1.9283854166666665s;
          animation-timing-function: linear;
        }
      
        @keyframes keyframes4 {
          from {
            stroke: blue;
            stroke-dashoffset: 408;
            stroke-width: 128;
          }
          57% {
            animation-timing-function: step-end;
            stroke: blue;
            stroke-dashoffset: 0;
            stroke-width: 128;
          }
          to {
            stroke: black;
            stroke-width: 1024;
          }
        }
        #make-me-a-hanzi-animation-4 {
          animation: keyframes4 0.58203125s both;
          animation-delay: 2.60888671875s;
          animation-timing-function: linear;
        }
      
        @keyframes keyframes5 {
          from {
            stroke: blue;
            stroke-dashoffset: 842;
            stroke-width: 128;
          }
          73% {
            animation-timing-function: step-end;
            stroke: blue;
            stroke-dashoffset: 0;
            stroke-width: 128;
          }
          to {
            stroke: black;
            stroke-width: 1024;
          }
        }
        #make-me-a-hanzi-animation-5 {
          animation: keyframes5 0.9352213541666666s both;
          animation-delay: 3.19091796875s;
          animation-timing-function: linear;
        }
      
        @keyframes keyframes6 {
          from {
            stroke: blue;
            stroke-dashoffset: 541;
            stroke-width: 128;
          }
          64% {
            animation-timing-function: step-end;
            stroke: blue;
            stroke-dashoffset: 0;
            stroke-width: 128;
          }
          to {
            stroke: black;
            stroke-width: 1024;
          }
        }
        #make-me-a-hanzi-animation-6 {
          animation: keyframes6 0.6902669270833334s both;
          animation-delay: 4.126139322916667s;
          animation-timing-function: linear;
        }
      
        @keyframes keyframes7 {
          from {
            stroke: blue;
            stroke-dashoffset: 336;
            stroke-width: 128;
          }
          52% {
            animation-timing-function: step-end;
            stroke: blue;
            stroke-dashoffset: 0;
            stroke-width: 128;
          }
          to {
            stroke: black;
            stroke-width: 1024;
          }
        }
        #make-me-a-hanzi-animation-7 {
          animation: keyframes7 0.5234375s both;
          animation-delay: 4.81640625s;
          animation-timing-function: linear;
        }
      
        @keyframes keyframes8 {
          from {
            stroke: blue;
            stroke-dashoffset: 371;
            stroke-width: 128;
          }
          55% {
            animation-timing-function: step-end;
            stroke: blue;
            stroke-dashoffset: 0;
            stroke-width: 128;
          }
          to {
            stroke: black;
            stroke-width: 1024;
          }
        }
        #make-me-a-hanzi-animation-8 {
          animation: keyframes8 0.5519205729166666s both;
          animation-delay: 5.33984375s;
          animation-timing-function: linear;
        }
      
        @keyframes keyframes9 {
          from {
            stroke: blue;
            stroke-dashoffset: 377;
            stroke-width: 128;
          }
          55% {
            animation-timing-function: step-end;
            stroke: blue;
            stroke-dashoffset: 0;
            stroke-width: 128;
          }
          to {
            stroke: black;
            stroke-width: 1024;
          }
        }
        #make-me-a-hanzi-animation-9 {
          animation: keyframes9 0.5568033854166666s both;
          animation-delay: 5.891764322916667s;
          animation-timing-function: linear;
        }
      
        @keyframes keyframes10 {
          from {
            stroke: blue;
            stroke-dashoffset: 362;
            stroke-width: 128;
          }
          54% {
            animation-timing-function: step-end;
            stroke: blue;
            stroke-dashoffset: 0;
            stroke-width: 128;
          }
          to {
            stroke: black;
            stroke-width: 1024;
          }
        }
        #make-me-a-hanzi-animation-10 {
          animation: keyframes10 0.5445963541666666s both;
          animation-delay: 6.448567708333334s;
          animation-timing-function: linear;
        }
      
        @keyframes keyframes11 {
          from {
            stroke: blue;
            stroke-dashoffset: 537;
            stroke-width: 128;
          }
          64% {
            animation-timing-function: step-end;
            stroke: blue;
            stroke-dashoffset: 0;
            stroke-width: 128;
          }
          to {
            stroke: black;
            stroke-width: 1024;
          }
        }
        #make-me-a-hanzi-animation-11 {
          animation: keyframes11 0.68701171875s both;
          animation-delay: 6.993164062500001s;
          animation-timing-function: linear;
        }
      
        @keyframes keyframes12 {
          from {
            stroke: blue;
            stroke-dashoffset: 417;
            stroke-width: 128;
          }
          58% {
            animation-timing-function: step-end;
            stroke: blue;
            stroke-dashoffset: 0;
            stroke-width: 128;
          }
          to {
            stroke: black;
            stroke-width: 1024;
          }
        }
        #make-me-a-hanzi-animation-12 {
          animation: keyframes12 0.58935546875s both;
          animation-delay: 7.680175781250001s;
          animation-timing-function: linear;
        }
      
        @keyframes keyframes13 {
          from {
            stroke: blue;
            stroke-dashoffset: 408;
            stroke-width: 128;
          }
          57% {
            animation-timing-function: step-end;
            stroke: blue;
            stroke-dashoffset: 0;
            stroke-width: 128;
          }
          to {
            stroke: black;
            stroke-width: 1024;
          }
        }
        #make-me-a-hanzi-animation-13 {
          animation: keyframes13 0.58203125s both;
          animation-delay: 8.26953125s;
          animation-timing-function: linear;
        }
      
        @keyframes keyframes14 {
          from {
            stroke: blue;
            stroke-dashoffset: 360;
            stroke-width: 128;
          }
          54% {
            animation-timing-function: step-end;
            stroke: blue;
            stroke-dashoffset: 0;
            stroke-width: 128;
          }
          to {
            stroke: black;
            stroke-width: 1024;
          }
        }
        #make-me-a-hanzi-animation-14 {
          animation: keyframes14 0.54296875s both;
          animation-delay: 8.8515625s;
          animation-timing-function: linear;
        }
      
        @keyframes keyframes15 {
          from {
            stroke: blue;
            stroke-dashoffset: 373;
            stroke-width: 128;
          }
          55% {
            animation-timing-function: step-end;
            stroke: blue;
            stroke-dashoffset: 0;
            stroke-width: 128;
          }
          to {
            stroke: black;
            stroke-width: 1024;
          }
        }
        #make-me-a-hanzi-animation-15 {
          animation: keyframes15 0.5535481770833334s both;
          animation-delay: 9.39453125s;
          animation-timing-function: linear;
        }
      
        @keyframes keyframes16 {
          from {
            stroke: blue;
            stroke-dashoffset: 525;
            stroke-width: 128;
          }
          63% {
            animation-timing-function: step-end;
            stroke: blue;
            stroke-dashoffset: 0;
            stroke-width: 128;
          }
          to {
            stroke: black;
            stroke-width: 1024;
          }
        }
        #make-me-a-hanzi-animation-16 {
          animation: keyframes16 0.67724609375s both;
          animation-delay: 9.948079427083334s;
          animation-timing-function: linear;
        }
      
        @keyframes keyframes17 {
          from {
            stroke: blue;
            stroke-dashoffset: 449;
            stroke-width: 128;
          }
          59% {
            animation-timing-function: step-end;
            stroke: blue;
            stroke-dashoffset: 0;
            stroke-width: 128;
          }
          to {
            stroke: black;
            stroke-width: 1024;
          }
        }
        #make-me-a-hanzi-animation-17 {
          animation: keyframes17 0.6153971354166666s both;
          animation-delay: 10.625325520833334s;
          animation-timing-function: linear;
        }
      
        @keyframes keyframes18 {
          from {
            stroke: blue;
            stroke-dashoffset: 607;
            stroke-width: 128;
          }
          66% {
            animation-timing-function: step-end;
            stroke: blue;
            stroke-dashoffset: 0;
            stroke-width: 128;
          }
          to {
            stroke: black;
            stroke-width: 1024;
          }
        }
        #make-me-a-hanzi-animation-18 {
          animation: keyframes18 0.7439778645833334s both;
          animation-delay: 11.24072265625s;
          animation-timing-function: linear;
        }
      
        @keyframes keyframes19 {
          from {
            stroke: blue;
            stroke-dashoffset: 613;
            stroke-width: 128;
          }
          67% {
            animation-timing-function: step-end;
            stroke: blue;
            stroke-dashoffset: 0;
            stroke-width: 128;
          }
          to {
            stroke: black;
            stroke-width: 1024;
          }
        }
        #make-me-a-hanzi-animation-19 {
          animation: keyframes19 0.7488606770833334s both;
          animation-delay: 11.984700520833334s;
          animation-timing-function: linear;
        }
      
        @keyframes keyframes20 {
          from {
            stroke: blue;
            stroke-dashoffset: 792;
            stroke-width: 128;
          }
          72% {
            animation-timing-function: step-end;
            stroke: blue;
            stroke-dashoffset: 0;
            stroke-width: 128;
          }
          to {
            stroke: black;
            stroke-width: 1024;
          }
        }
        #make-me-a-hanzi-animation-20 {
          animation: keyframes20 0.89453125s both;
          animation-delay: 12.733561197916668s;
          animation-timing-function: linear;
        }
      
        @keyframes keyframes21 {
          from {
            stroke: blue;
            stroke-dashoffset: 954;
            stroke-width: 128;
          }
          76% {
            animation-timing-function: step-end;
            stroke: blue;
            stroke-dashoffset: 0;
            stroke-width: 128;
          }
          to {
            stroke: black;
            stroke-width: 1024;
          }
        }
        #make-me-a-hanzi-animation-21 {
          animation: keyframes21 1.0263671875s both;
          animation-delay: 13.628092447916668s;
          animation-timing-function: linear;
        }
      
        @keyframes keyframes22 {
          from {
            stroke: blue;
            stroke-dashoffset: 374;
            stroke-width: 128;
          }
          55% {
            animation-timing-function: step-end;
            stroke: blue;
            stroke-dashoffset: 0;
            stroke-width: 128;
          }
          to {
            stroke: black;
            stroke-width: 1024;
          }
        }
        #make-me-a-hanzi-animation-22 {
          animation: keyframes22 0.5543619791666666s both;
          animation-delay: 14.654459635416668s;
          animation-timing-function: linear;
        }
      
        @keyframes keyframes23 {
          from {
            stroke: blue;
            stroke-dashoffset: 383;
            stroke-width: 128;
          }
          55% {
            animation-timing-function: step-end;
            stroke: blue;
            stroke-dashoffset: 0;
            stroke-width: 128;
          }
          to {
            stroke: black;
            stroke-width: 1024;
          }
        }
        #make-me-a-hanzi-animation-23 {
          animation: keyframes23 0.5616861979166666s both;
          animation-delay: 15.208821614583334s;
          animation-timing-function: linear;
        }
      
    </style>
    
      <path d="M 194 612 Q 200 603 220 580 L 247 548 Q 254 539 264 530 Q 277 519 284 519 L 285 519 Q 292 520 300 526 Q 307 532 311 548 Q 314 559 314 568 Q 314 575 312 580 Q 309 593 303 600 Q 297 607 282 614 Q 267 620 259 624 Q 250 626 235 631 Q 220 636 213 638 L 189 642 Q 187 643 185 643 Q 182 643 180 640 Q 179 639 179 637 Q 179 634 182 629 L 194 612 Z" fill="lightgray" />
    
      <path d="M 102 394 L 126 365 L 152 334 Q 163 320 174 310 Q 186 299 194 299 L 195 299 Q 203 300 210 306 Q 218 312 222 330 Q 224 340 224 349 Q 224 356 223 362 Q 220 375 213 382 Q 206 390 193 396 Q 180 402 168 406 L 142 414 Q 126 420 122 420 L 97 425 L 95 425 Q 91 425 89 422 Q 88 420 88 418 Q 88 415 90 412 L 102 394 Z" fill="lightgray" />
    
      <path d="M 238 203 Q 220 169 212 158 Q 204 146 182 116 Q 159 86 152 78 Q 145 70 135 61 Q 125 52 110 41 Q 94 30 92 22 Q 90 18 90 8 Q 90 -2 102 -25 Q 113 -48 120 -60 Q 126 -73 136 -80 Q 143 -87 148 -87 L 149 -87 Q 154 -86 158 -78 Q 162 -70 171 -44 Q 180 -18 183 -10 Q 186 -2 199 26 Q 212 54 224 86 L 248 146 L 266 190 L 291 254 Q 293 259 293 263 Q 293 270 288 272 Q 286 274 283 274 Q 278 274 272 264 L 238 203 Z" fill="lightgray" />
    
      <path d="M 621 654 L 672 662 L 712 668 Q 724 670 736 673 L 751 676 Q 761 678 762 684 Q 763 685 763 687 Q 763 690 760 694 Q 756 698 744 703 Q 732 708 721 711 Q 710 714 704 714 Q 698 714 682 709 Q 666 704 637 696 Q 608 690 583 686 Q 558 682 546 681 Q 534 680 502 677 L 492 676 Q 482 675 479 674 Q 476 672 476 668 Q 476 664 483 659 Q 491 654 498 652 Q 506 648 514 647 Q 522 645 535 645 L 542 645 Q 550 645 557 646 Q 567 646 582 648 L 621 654 Z" fill="lightgray" />
    
      <path d="M 405 557 L 397 578 Q 391 596 383 596 Q 382 596 380 595 Q 376 594 370 576 Q 364 558 360 548 L 338 498 L 326 470 Q 324 463 324 456 L 324 452 Q 326 444 330 437 Q 336 429 340 427 Q 344 425 348 425 Q 351 425 354 426 Q 361 427 370 436 Q 379 445 384 460 L 406 526 C 411 541 411 541 405 557 Z" fill="lightgray" />
    
      <path d="M 597 574 L 578 571 Q 553 568 504 564 Q 455 560 405 557 C 375 555 377 533 406 526 L 422 522 Q 425 521 431 521 Q 444 521 470 527 L 580 544 Q 586 544 596 546 L 637 552 L 678 558 L 718 564 L 778 568 Q 803 571 813 571 Q 834 570 837 565 L 837 563 Q 837 556 829 541 L 805 497 Q 800 489 800 485 Q 800 484 801 483 Q 802 482 805 482 Q 808 482 813 484 L 842 497 Q 850 500 868 505 Q 885 510 905 514 Q 926 518 932 520 Q 939 522 942 527 Q 943 529 943 531 Q 943 535 940 542 Q 935 552 920 566 Q 905 582 902 584 Q 900 586 884 598 Q 868 610 860 612 Q 856 612 844 608 Q 832 606 812 602 L 738 591 L 670 581 Q 656 580 638 578 L 597 574 Z" fill="lightgray" />
    
      <path d="M 596 546 L 593 506 Q 592 506 590 482 Q 588 458 584 444 Q 580 429 580 428 Q 580 418 584 408 Q 588 397 592 388 Q 596 380 601 372 Q 606 365 611 365 L 612 365 Q 617 365 622 374 Q 627 384 630 399 L 634 422 Q 636 434 636 446 L 637 552 L 638 578 L 640 600 Q 640 609 644 618 Q 647 624 647 628 L 647 630 Q 647 633 644 638 Q 640 643 635 646 Q 629 650 621 654 C 595 668 570 675 582 648 L 589 632 Q 590 630 592 620 Q 594 610 595 602 L 597 574 L 596 546 Z" fill="lightgray" />
    
      <path d="M 452 507 Q 442 506 440 505 Q 438 504 437 502 Q 437 499 443 494 L 452 486 Q 456 482 459 480 L 479 467 Q 495 457 501 455 Q 509 451 515 451 Q 519 451 522 453 Q 529 457 531 466 Q 532 469 532 472 Q 532 478 529 483 Q 524 490 520 495 Q 515 499 508 502 Q 500 506 486 506 Q 473 508 468 508 L 452 507 Z" fill="lightgray" />
    
      <path d="M 513 433 L 493 427 L 475 422 Q 468 421 456 420 L 429 420 Q 426 418 424 415 Q 424 412 426 407 Q 429 402 436 392 Q 444 382 450 378 Q 456 373 460 373 Q 463 374 469 378 L 484 389 L 510 409 Q 523 420 526 422 L 534 428 Q 539 432 539 434 Q 539 435 538 436 Q 537 439 533 439 Q 531 439 529 438 L 513 433 Z" fill="lightgray" />
    
      <path d="M 684 468 Q 686 468 696 472 L 722 481 L 748 491 Q 757 494 766 496 Q 775 497 778 498 Q 781 500 783 502 Q 784 503 784 505 Q 784 509 778 518 Q 770 528 760 535 Q 751 542 738 546 Q 734 547 731 547 Q 729 547 727 546 Q 724 544 722 537 Q 720 530 718 526 Q 715 521 704 507 Q 692 494 692 492 Q 690 491 678 479 L 672 472 Q 668 468 668 465 Q 669 464 671 464 Q 673 464 676 465 L 684 468 Z" fill="lightgray" />
    
      <path d="M 684 434 L 690 430 Q 694 428 716 414 L 744 396 Q 756 388 763 387 Q 767 386 769 386 Q 774 386 776 388 Q 780 390 783 396 Q 785 402 785 408 Q 785 414 783 419 Q 779 431 772 438 Q 764 444 753 449 Q 742 453 732 454 Q 722 455 708 455 Q 693 454 687 454 L 678 453 Q 670 452 670 448 Q 670 444 674 441 L 684 434 Z" fill="lightgray" />
    
      <path d="M 394 296 L 366 293 L 347 292 L 336 291 Q 332 290 330 287 Q 329 286 329 284 Q 329 282 330 280 Q 332 276 337 274 Q 342 271 350 269 Q 358 266 369 266 Q 379 265 400 265 L 438 269 L 504 276 L 544 278 L 586 283 L 606 287 Q 622 290 622 296 Q 622 301 618 304 Q 614 308 600 314 Q 586 319 581 319 L 580 319 L 552 313 L 507 307 L 439 299 L 394 296 Z" fill="lightgray" />
    
      <path d="M 400 265 L 407 226 Q 410 210 414 202 Q 418 194 422 193 L 425 193 Q 427 193 430 194 Q 432 196 434 204 L 440 230 L 438 269 L 439 299 L 440 324 L 441 339 Q 440 344 434 348 Q 429 351 412 354 Q 397 357 390 357 Q 387 357 385 356 Q 380 354 379 352 Q 378 350 378 347 Q 379 344 383 334 Q 386 326 388 319 L 394 296 L 400 265 Z" fill="lightgray" />
    
      <path d="M 534 231 L 544 278 L 552 313 L 558 334 L 566 346 Q 566 352 562 358 Q 558 365 544 372 Q 530 378 516 382 Q 512 383 510 383 Q 505 383 503 381 Q 499 378 499 375 L 499 374 Q 499 370 503 362 Q 507 353 507 341 L 507 307 L 504 276 L 498 240 C 493 210 528 202 534 231 Z" fill="lightgray" />
    
      <path d="M 434 204 L 445 204 L 484 208 L 532 211 Q 544 212 546 216 Q 547 217 547 219 Q 547 221 544 224 L 534 231 C 517 243 517 243 498 240 L 440 230 C 410 225 404 204 434 204 Z" fill="lightgray" />
    
      <path d="M 374 152 L 341 158 Q 339 159 337 159 Q 334 159 332 157 Q 329 155 329 152 L 329 151 Q 329 148 331 146 L 341 137 Q 344 134 347 128 Q 350 122 353 114 L 364 72 Q 366 64 368 58 Q 371 51 374 47 Q 378 43 382 42 Q 388 42 391 45 Q 394 49 395 58 L 394 84 L 385 126 C 380 151 380 151 374 152 Z" fill="lightgray" />
    
      <path d="M 454 161 L 374 152 C 344 149 355 122 385 126 L 456 135 L 498 142 L 538 149 Q 550 150 554 150 Q 559 148 562 145 Q 563 144 563 142 Q 563 137 560 126 L 553 104 C 544 75 567 70 582 96 L 602 131 Q 606 138 614 146 Q 622 153 622 156 Q 622 162 615 168 Q 607 175 594 182 Q 580 188 576 190 Q 570 190 562 189 L 539 180 L 500 168 L 454 161 Z" fill="lightgray" />
    
      <path d="M 395 58 L 455 62 L 496 66 L 584 73 Q 597 74 598 78 Q 598 84 595 86 L 582 96 C 572 104 572 104 553 104 L 540 104 L 524 100 Q 512 98 497 95 L 456 90 L 394 84 C 364 81 365 56 395 58 Z" fill="lightgray" />
    
      <path d="M 454 20 L 382 9 L 298 -2 L 272 -4 Q 262 -6 260 -9 Q 259 -10 259 -12 Q 259 -14 260 -17 Q 262 -22 276 -27 L 310 -40 Q 317 -43 322 -43 Q 324 -43 326 -42 Q 330 -42 344 -37 Q 358 -32 376 -28 L 408 -21 L 453 -13 L 493 -8 L 550 1 Q 563 3 590 4 Q 618 6 619 12 L 619 14 Q 619 17 616 21 Q 614 26 603 30 Q 593 33 588 34 Q 584 35 568 35 Q 552 34 536 32 L 494 26 L 454 20 Z" fill="lightgray" />
    
      <path d="M 445 204 L 450 197 Q 452 196 452 187 Q 454 179 454 161 L 456 135 L 456 90 L 455 62 L 454 20 L 453 -13 L 448 -50 L 442 -73 Q 439 -86 439 -97 L 439 -99 Q 439 -110 448 -128 Q 457 -148 462 -149 L 465 -149 Q 468 -149 471 -148 Q 474 -147 479 -136 Q 484 -126 486 -114 Q 489 -102 490 -78 Q 492 -54 493 -8 L 494 26 L 496 66 L 497 95 L 498 142 L 500 168 L 503 187 Q 504 191 504 194 Q 504 197 503 199 Q 502 203 484 208 C 455 217 431 225 445 204 Z" fill="lightgray" />
    
      <path d="M 710 336 L 667 348 Q 664 349 657 349 L 653 349 Q 648 349 646 347 Q 644 344 644 340 Q 644 336 649 326 Q 654 316 657 299 Q 660 282 662 262 L 662 209 L 659 126 Q 656 80 652 52 Q 647 25 639 -2 Q 632 -28 620 -52 Q 609 -75 596 -91 L 576 -114 L 563 -130 Q 558 -136 558 -141 L 558 -144 Q 559 -146 561 -146 Q 565 -146 572 -141 L 590 -128 Q 612 -114 626 -99 Q 640 -84 652 -66 Q 664 -46 676 -15 Q 687 16 691 37 Q 696 57 700 80 L 704 104 L 708 195 L 710 218 L 710 270 Q 710 278 712 288 L 716 308 C 721 333 721 333 710 336 Z" fill="lightgray" />
    
      <path d="M 834 89 L 834 0 Q 833 -28 829 -46 Q 826 -63 818 -70 Q 810 -76 804 -76 L 803 -76 Q 795 -76 773 -68 L 754 -62 Q 748 -60 745 -60 Q 741 -60 740 -62 L 740 -64 Q 740 -67 744 -72 L 760 -88 Q 772 -100 788 -120 L 810 -152 Q 818 -164 821 -165 Q 824 -166 826 -166 L 828 -166 Q 835 -166 846 -157 Q 857 -148 866 -134 Q 874 -121 882 -94 Q 890 -66 890 -26 L 887 154 L 890 220 Q 891 267 896 284 Q 900 300 905 311 Q 909 319 909 324 L 909 326 Q 908 331 900 339 Q 892 346 871 356 Q 850 365 844 366 Q 838 366 826 362 Q 816 358 790 350 Q 765 343 752 342 L 710 336 C 680 332 687 302 716 308 L 764 318 Q 770 318 806 322 Q 811 323 815 323 Q 819 323 822 322 Q 828 320 831 314 Q 834 310 835 304 L 834 275 L 835 228 L 836 200 L 834 118 L 834 89 Z" fill="lightgray" />
    
      <path d="M 708 195 L 742 188 Q 745 188 769 192 Q 794 196 836 200 C 866 203 864 219 835 228 L 816 234 Q 812 235 804 235 L 794 235 Q 789 234 766 228 Q 742 223 710 218 C 680 213 679 201 708 195 Z" fill="lightgray" />
    
      <path d="M 700 80 L 726 76 Q 729 75 735 75 Q 743 75 756 77 L 796 85 Q 809 87 834 89 C 864 91 862 107 834 118 L 818 124 Q 808 126 798 126 Q 794 126 762 117 Q 732 108 704 104 C 674 100 670 85 700 80 Z" fill="lightgray" />
    
    
      <clipPath id="make-me-a-hanzi-clip-0">
        <path d="M 194 612 Q 200 603 220 580 L 247 548 Q 254 539 264 530 Q 277 519 284 519 L 285 519 Q 292 520 300 526 Q 307 532 311 548 Q 314 559 314 568 Q 314 575 312 580 Q 309 593 303 600 Q 297 607 282 614 Q 267 620 259 624 Q 250 626 235 631 Q 220 636 213 638 L 189 642 Q 187 643 185 643 Q 182 643 180 640 Q 179 639 179 637 Q 179 634 182 629 L 194 612 Z" />
      </clipPath>
      <path clip-path="url(#make-me-a-hanzi-clip-0)" d="M 186 637 L 275 574 L 285 533" fill="none" id="make-me-a-hanzi-animation-0" stroke-dasharray="279 558" stroke-linecap="round" />
    
      <clipPath id="make-me-a-hanzi-clip-1">
        <path d="M 102 394 L 126 365 L 152 334 Q 163 320 174 310 Q 186 299 194 299 L 195 299 Q 203 300 210 306 Q 218 312 222 330 Q 224 340 224 349 Q 224 356 223 362 Q 220 375 213 382 Q 206 390 193 396 Q 180 402 168 406 L 142 414 Q 126 420 122 420 L 97 425 L 95 425 Q 91 425 89 422 Q 88 420 88 418 Q 88 415 90 412 L 102 394 Z" />
      </clipPath>
      <path clip-path="url(#make-me-a-hanzi-clip-1)" d="M 95 419 L 183 357 L 195 315" fill="none" id="make-me-a-hanzi-animation-1" stroke-dasharray="279 558" stroke-linecap="round" />
    
      <clipPath id="make-me-a-hanzi-clip-2">
        <path d="M 238 203 Q 220 169 212 158 Q 204 146 182 116 Q 159 86 152 78 Q 145 70 135 61 Q 125 52 110 41 Q 94 30 92 22 Q 90 18 90 8 Q 90 -2 102 -25 Q 113 -48 120 -60 Q 126 -73 136 -80 Q 143 -87 148 -87 L 149 -87 Q 154 -86 158 -78 Q 162 -70 171 -44 Q 180 -18 183 -10 Q 186 -2 199 26 Q 212 54 224 86 L 248 146 L 266 190 L 291 254 Q 293 259 293 263 Q 293 270 288 272 Q 286 274 283 274 Q 278 274 272 264 L 238 203 Z" />
      </clipPath>
      <path clip-path="url(#make-me-a-hanzi-clip-2)" d="M 149 -77 L 141 -30 L 142 9 L 203 101 L 282 264" fill="none" id="make-me-a-hanzi-animation-2" stroke-dasharray="506 1012" stroke-linecap="round" />
    
      <clipPath id="make-me-a-hanzi-clip-3">
        <path d="M 621 654 L 672 662 L 712 668 Q 724 670 736 673 L 751 676 Q 761 678 762 684 Q 763 685 763 687 Q 763 690 760 694 Q 756 698 744 703 Q 732 708 721 711 Q 710 714 704 714 Q 698 714 682 709 Q 666 704 637 696 Q 608 690 583 686 Q 558 682 546 681 Q 534 680 502 677 L 492 676 Q 482 675 479 674 Q 476 672 476 668 Q 476 664 483 659 Q 491 654 498 652 Q 506 648 514 647 Q 522 645 535 645 L 542 645 Q 550 645 557 646 Q 567 646 582 648 L 621 654 Z" />
      </clipPath>
      <path clip-path="url(#make-me-a-hanzi-clip-3)" d="M 485 667 L 539 662 L 702 690 L 755 688" fill="none" id="make-me-a-hanzi-animation-3" stroke-dasharray="401 802" stroke-linecap="round" />
    
      <clipPath id="make-me-a-hanzi-clip-4">
        <path d="M 405 557 L 397 578 Q 391 596 383 596 Q 382 596 380 595 Q 376 594 370 576 Q 364 558 360 548 L 338 498 L 326 470 Q 324 463 324 456 L 324 452 Q 326 444 330 437 Q 336 429 340 427 Q 344 425 348 425 Q 351 425 354 426 Q 361 427 370 436 Q 379 445 384 460 L 406 526 C 411 541 411 541 405 557 Z" />
      </clipPath>
      <path clip-path="url(#make-me-a-hanzi-clip-4)" d="M 384 589 L 380 527 L 348 443" fill="none" id="make-me-a-hanzi-animation-4" stroke-dasharray="280 560" stroke-linecap="round" />
    
      <clipPath id="make-me-a-hanzi-clip-5">
        <path d="M 597 574 L 578 571 Q 553 568 504 564 Q 455 560 405 557 C 375 555 377 533 406 526 L 422 522 Q 425 521 431 521 Q 444 521 470 527 L 580 544 Q 586 544 596 546 L 637 552 L 678 558 L 718 564 L 778 568 Q 803 571 813 571 Q 834 570 837 565 L 837 563 Q 837 556 829 541 L 805 497 Q 800 489 800 485 Q 800 484 801 483 Q 802 482 805 482 Q 808 482 813 484 L 842 497 Q 850 500 868 505 Q 885 510 905 514 Q 926 518 932 520 Q 939 522 942 527 Q 943 529 943 531 Q 943 535 940 542 Q 935 552 920 566 Q 905 582 902 584 Q 900 586 884 598 Q 868 610 860 612 Q 856 612 844 608 Q 832 606 812 602 L 738 591 L 670 581 Q 656 580 638 578 L 597 574 Z" />
      </clipPath>
      <path clip-path="url(#make-me-a-hanzi-clip-5)" d="M 413 549 L 424 540 L 435 540 L 733 579 L 833 588 L 857 584 L 876 549 L 804 486" fill="none" id="make-me-a-hanzi-animation-5" stroke-dasharray="714 1428" stroke-linecap="round" />
    
      <clipPath id="make-me-a-hanzi-clip-6">
        <path d="M 596 546 L 593 506 Q 592 506 590 482 Q 588 458 584 444 Q 580 429 580 428 Q 580 418 584 408 Q 588 397 592 388 Q 596 380 601 372 Q 606 365 611 365 L 612 365 Q 617 365 622 374 Q 627 384 630 399 L 634 422 Q 636 434 636 446 L 637 552 L 638 578 L 640 600 Q 640 609 644 618 Q 647 624 647 628 L 647 630 Q 647 633 644 638 Q 640 643 635 646 Q 629 650 621 654 C 595 668 570 675 582 648 L 589 632 Q 590 630 592 620 Q 594 610 595 602 L 597 574 L 596 546 Z" />
      </clipPath>
      <path clip-path="url(#make-me-a-hanzi-clip-6)" d="M 589 646 L 618 625 L 607 425 L 612 376" fill="none" id="make-me-a-hanzi-animation-6" stroke-dasharray="413 826" stroke-linecap="round" />
    
      <clipPath id="make-me-a-hanzi-clip-7">
        <path d="M 452 507 Q 442 506 440 505 Q 438 504 437 502 Q 437 499 443 494 L 452 486 Q 456 482 459 480 L 479 467 Q 495 457 501 455 Q 509 451 515 451 Q 519 451 522 453 Q 529 457 531 466 Q 532 469 532 472 Q 532 478 529 483 Q 524 490 520 495 Q 515 499 508 502 Q 500 506 486 506 Q 473 508 468 508 L 452 507 Z" />
      </clipPath>
      <path clip-path="url(#make-me-a-hanzi-clip-7)" d="M 442 500 L 503 480 L 514 468" fill="none" id="make-me-a-hanzi-animation-7" stroke-dasharray="208 416" stroke-linecap="round" />
    
      <clipPath id="make-me-a-hanzi-clip-8">
        <path d="M 513 433 L 493 427 L 475 422 Q 468 421 456 420 L 429 420 Q 426 418 424 415 Q 424 412 426 407 Q 429 402 436 392 Q 444 382 450 378 Q 456 373 460 373 Q 463 374 469 378 L 484 389 L 510 409 Q 523 420 526 422 L 534 428 Q 539 432 539 434 Q 539 435 538 436 Q 537 439 533 439 Q 531 439 529 438 L 513 433 Z" />
      </clipPath>
      <path clip-path="url(#make-me-a-hanzi-clip-8)" d="M 431 413 L 460 398 L 534 433" fill="none" id="make-me-a-hanzi-animation-8" stroke-dasharray="243 486" stroke-linecap="round" />
    
      <clipPath id="make-me-a-hanzi-clip-9">
        <path d="M 684 468 Q 686 468 696 472 L 722 481 L 748 491 Q 757 494 766 496 Q 775 497 778 498 Q 781 500 783 502 Q 784 503 784 505 Q 784 509 778 518 Q 770 528 760 535 Q 751 542 738 546 Q 734 547 731 547 Q 729 547 727 546 Q 724 544 722 537 Q 720 530 718 526 Q 715 521 704 507 Q 692 494 692 492 Q 690 491 678 479 L 672 472 Q 668 468 668 465 Q 669 464 671 464 Q 673 464 676 465 L 684 468 Z" />
      </clipPath>
      <path clip-path="url(#make-me-a-hanzi-clip-9)" d="M 776 506 L 742 516 L 671 468" fill="none" id="make-me-a-hanzi-animation-9" stroke-dasharray="249 498" stroke-linecap="round" />
    
      <clipPath id="make-me-a-hanzi-clip-10">
        <path d="M 684 434 L 690 430 Q 694 428 716 414 L 744 396 Q 756 388 763 387 Q 767 386 769 386 Q 774 386 776 388 Q 780 390 783 396 Q 785 402 785 408 Q 785 414 783 419 Q 779 431 772 438 Q 764 444 753 449 Q 742 453 732 454 Q 722 455 708 455 Q 693 454 687 454 L 678 453 Q 670 452 670 448 Q 670 444 674 441 L 684 434 Z" />
      </clipPath>
      <path clip-path="url(#make-me-a-hanzi-clip-10)" d="M 676 447 L 747 424 L 768 401" fill="none" id="make-me-a-hanzi-animation-10" stroke-dasharray="234 468" stroke-linecap="round" />
    
      <clipPath id="make-me-a-hanzi-clip-11">
        <path d="M 394 296 L 366 293 L 347 292 L 336 291 Q 332 290 330 287 Q 329 286 329 284 Q 329 282 330 280 Q 332 276 337 274 Q 342 271 350 269 Q 358 266 369 266 Q 379 265 400 265 L 438 269 L 504 276 L 544 278 L 586 283 L 606 287 Q 622 290 622 296 Q 622 301 618 304 Q 614 308 600 314 Q 586 319 581 319 L 580 319 L 552 313 L 507 307 L 439 299 L 394 296 Z" />
      </clipPath>
      <path clip-path="url(#make-me-a-hanzi-clip-11)" d="M 336 284 L 389 280 L 581 301 L 615 297" fill="none" id="make-me-a-hanzi-animation-11" stroke-dasharray="409 818" stroke-linecap="round" />
    
      <clipPath id="make-me-a-hanzi-clip-12">
        <path d="M 400 265 L 407 226 Q 410 210 414 202 Q 418 194 422 193 L 425 193 Q 427 193 430 194 Q 432 196 434 204 L 440 230 L 438 269 L 439 299 L 440 324 L 441 339 Q 440 344 434 348 Q 429 351 412 354 Q 397 357 390 357 Q 387 357 385 356 Q 380 354 379 352 Q 378 350 378 347 Q 379 344 383 334 Q 386 326 388 319 L 394 296 L 400 265 Z" />
      </clipPath>
      <path clip-path="url(#make-me-a-hanzi-clip-12)" d="M 386 348 L 413 327 L 426 201" fill="none" id="make-me-a-hanzi-animation-12" stroke-dasharray="289 578" stroke-linecap="round" />
    
      <clipPath id="make-me-a-hanzi-clip-13">
        <path d="M 534 231 L 544 278 L 552 313 L 558 334 L 566 346 Q 566 352 562 358 Q 558 365 544 372 Q 530 378 516 382 Q 512 383 510 383 Q 505 383 503 381 Q 499 378 499 375 L 499 374 Q 499 370 503 362 Q 507 353 507 341 L 507 307 L 504 276 L 498 240 C 493 210 528 202 534 231 Z" />
      </clipPath>
      <path clip-path="url(#make-me-a-hanzi-clip-13)" d="M 506 375 L 534 347 L 521 252 L 529 238" fill="none" id="make-me-a-hanzi-animation-13" stroke-dasharray="280 560" stroke-linecap="round" />
    
      <clipPath id="make-me-a-hanzi-clip-14">
        <path d="M 434 204 L 445 204 L 484 208 L 532 211 Q 544 212 546 216 Q 547 217 547 219 Q 547 221 544 224 L 534 231 C 517 243 517 243 498 240 L 440 230 C 410 225 404 204 434 204 Z" />
      </clipPath>
      <path clip-path="url(#make-me-a-hanzi-clip-14)" d="M 440 210 L 493 225 L 542 219" fill="none" id="make-me-a-hanzi-animation-14" stroke-dasharray="232 464" stroke-linecap="round" />
    
      <clipPath id="make-me-a-hanzi-clip-15">
        <path d="M 374 152 L 341 158 Q 339 159 337 159 Q 334 159 332 157 Q 329 155 329 152 L 329 151 Q 329 148 331 146 L 341 137 Q 344 134 347 128 Q 350 122 353 114 L 364 72 Q 366 64 368 58 Q 371 51 374 47 Q 378 43 382 42 Q 388 42 391 45 Q 394 49 395 58 L 394 84 L 385 126 C 380 151 380 151 374 152 Z" />
      </clipPath>
      <path clip-path="url(#make-me-a-hanzi-clip-15)" d="M 336 152 L 362 137 L 383 53" fill="none" id="make-me-a-hanzi-animation-15" stroke-dasharray="245 490" stroke-linecap="round" />
    
      <clipPath id="make-me-a-hanzi-clip-16">
        <path d="M 454 161 L 374 152 C 344 149 355 122 385 126 L 456 135 L 498 142 L 538 149 Q 550 150 554 150 Q 559 148 562 145 Q 563 144 563 142 Q 563 137 560 126 L 553 104 C 544 75 567 70 582 96 L 602 131 Q 606 138 614 146 Q 622 153 622 156 Q 622 162 615 168 Q 607 175 594 182 Q 580 188 576 190 Q 570 190 562 189 L 539 180 L 500 168 L 454 161 Z" />
      </clipPath>
      <path clip-path="url(#make-me-a-hanzi-clip-16)" d="M 381 147 L 405 141 L 570 167 L 587 156 L 586 148 L 578 122 L 562 107" fill="none" id="make-me-a-hanzi-animation-16" stroke-dasharray="397 794" stroke-linecap="round" />
    
      <clipPath id="make-me-a-hanzi-clip-17">
        <path d="M 395 58 L 455 62 L 496 66 L 584 73 Q 597 74 598 78 Q 598 84 595 86 L 582 96 C 572 104 572 104 553 104 L 540 104 L 524 100 Q 512 98 497 95 L 456 90 L 394 84 C 364 81 365 56 395 58 Z" />
      </clipPath>
      <path clip-path="url(#make-me-a-hanzi-clip-17)" d="M 402 65 L 408 72 L 540 87 L 590 79" fill="none" id="make-me-a-hanzi-animation-17" stroke-dasharray="321 642" stroke-linecap="round" />
    
      <clipPath id="make-me-a-hanzi-clip-18">
        <path d="M 454 20 L 382 9 L 298 -2 L 272 -4 Q 262 -6 260 -9 Q 259 -10 259 -12 Q 259 -14 260 -17 Q 262 -22 276 -27 L 310 -40 Q 317 -43 322 -43 Q 324 -43 326 -42 Q 330 -42 344 -37 Q 358 -32 376 -28 L 408 -21 L 453 -13 L 493 -8 L 550 1 Q 563 3 590 4 Q 618 6 619 12 L 619 14 Q 619 17 616 21 Q 614 26 603 30 Q 593 33 588 34 Q 584 35 568 35 Q 552 34 536 32 L 494 26 L 454 20 Z" />
      </clipPath>
      <path clip-path="url(#make-me-a-hanzi-clip-18)" d="M 267 -13 L 321 -21 L 553 18 L 592 19 L 613 13" fill="none" id="make-me-a-hanzi-animation-18" stroke-dasharray="479 958" stroke-linecap="round" />
    
      <clipPath id="make-me-a-hanzi-clip-19">
        <path d="M 445 204 L 450 197 Q 452 196 452 187 Q 454 179 454 161 L 456 135 L 456 90 L 455 62 L 454 20 L 453 -13 L 448 -50 L 442 -73 Q 439 -86 439 -97 L 439 -99 Q 439 -110 448 -128 Q 457 -148 462 -149 L 465 -149 Q 468 -149 471 -148 Q 474 -147 479 -136 Q 484 -126 486 -114 Q 489 -102 490 -78 Q 492 -54 493 -8 L 494 26 L 496 66 L 497 95 L 498 142 L 500 168 L 503 187 Q 504 191 504 194 Q 504 197 503 199 Q 502 203 484 208 C 455 217 431 225 445 204 Z" />
      </clipPath>
      <path clip-path="url(#make-me-a-hanzi-clip-19)" d="M 452 203 L 477 183 L 478 176 L 474 -16 L 463 -101 L 464 -141" fill="none" id="make-me-a-hanzi-animation-19" stroke-dasharray="485 970" stroke-linecap="round" />
    
      <clipPath id="make-me-a-hanzi-clip-20">
        <path d="M 710 336 L 667 348 Q 664 349 657 349 L 653 349 Q 648 349 646 347 Q 644 344 644 340 Q 644 336 649 326 Q 654 316 657 299 Q 660 282 662 262 L 662 209 L 659 126 Q 656 80 652 52 Q 647 25 639 -2 Q 632 -28 620 -52 Q 609 -75 596 -91 L 576 -114 L 563 -130 Q 558 -136 558 -141 L 558 -144 Q 559 -146 561 -146 Q 565 -146 572 -141 L 590 -128 Q 612 -114 626 -99 Q 640 -84 652 -66 Q 664 -46 676 -15 Q 687 16 691 37 Q 696 57 700 80 L 704 104 L 708 195 L 710 218 L 710 270 Q 710 278 712 288 L 716 308 C 721 333 721 333 710 336 Z" />
      </clipPath>
      <path clip-path="url(#make-me-a-hanzi-clip-20)" d="M 651 342 L 686 309 L 683 128 L 673 48 L 656 -15 L 628 -74 L 561 -142" fill="none" id="make-me-a-hanzi-animation-20" stroke-dasharray="664 1328" stroke-linecap="round" />
    
      <clipPath id="make-me-a-hanzi-clip-21">
        <path d="M 834 89 L 834 0 Q 833 -28 829 -46 Q 826 -63 818 -70 Q 810 -76 804 -76 L 803 -76 Q 795 -76 773 -68 L 754 -62 Q 748 -60 745 -60 Q 741 -60 740 -62 L 740 -64 Q 740 -67 744 -72 L 760 -88 Q 772 -100 788 -120 L 810 -152 Q 818 -164 821 -165 Q 824 -166 826 -166 L 828 -166 Q 835 -166 846 -157 Q 857 -148 866 -134 Q 874 -121 882 -94 Q 890 -66 890 -26 L 887 154 L 890 220 Q 891 267 896 284 Q 900 300 905 311 Q 909 319 909 324 L 909 326 Q 908 331 900 339 Q 892 346 871 356 Q 850 365 844 366 Q 838 366 826 362 Q 816 358 790 350 Q 765 343 752 342 L 710 336 C 680 332 687 302 716 308 L 764 318 Q 770 318 806 322 Q 811 323 815 323 Q 819 323 822 322 Q 828 320 831 314 Q 834 310 835 304 L 834 275 L 835 228 L 836 200 L 834 118 L 834 89 Z" />
      </clipPath>
      <path clip-path="url(#make-me-a-hanzi-clip-21)" d="M 718 330 L 727 324 L 829 342 L 852 334 L 869 317 L 862 252 L 862 -19 L 855 -71 L 832 -110 L 800 -100 L 743 -63" fill="none" id="make-me-a-hanzi-animation-21" stroke-dasharray="826 1652" stroke-linecap="round" />
    
      <clipPath id="make-me-a-hanzi-clip-22">
        <path d="M 708 195 L 742 188 Q 745 188 769 192 Q 794 196 836 200 C 866 203 864 219 835 228 L 816 234 Q 812 235 804 235 L 794 235 Q 789 234 766 228 Q 742 223 710 218 C 680 213 679 201 708 195 Z" />
      </clipPath>
      <path clip-path="url(#make-me-a-hanzi-clip-22)" d="M 715 200 L 723 206 L 799 216 L 816 216 L 827 207" fill="none" id="make-me-a-hanzi-animation-22" stroke-dasharray="246 492" stroke-linecap="round" />
    
      <clipPath id="make-me-a-hanzi-clip-23">
        <path d="M 700 80 L 726 76 Q 729 75 735 75 Q 743 75 756 77 L 796 85 Q 809 87 834 89 C 864 91 862 107 834 118 L 818 124 Q 808 126 798 126 Q 794 126 762 117 Q 732 108 704 104 C 674 100 670 85 700 80 Z" />
      </clipPath>
      <path clip-path="url(#make-me-a-hanzi-clip-23)" d="M 707 85 L 716 92 L 791 105 L 816 106 L 826 96" fill="none" id="make-me-a-hanzi-animation-23" stroke-dasharray="255 510" stroke-linecap="round" />
    
  </g>
</svg>