<svg version="1.1" viewBox="0 0 1024 1024" xmlns="http://www.w3.org/2000/svg">
  <g stroke="lightgray" stroke-dasharray="1,1" stroke-width="1" transform="scale(4, 4)">
    <line x1="0" y1="0" x2="256" y2="256"></line>
    <line x1="256" y1="0" x2="0" y2="256"></line>
    <line x1="128" y1="0" x2="128" y2="256"></line>
    <line x1="0" y1="128" x2="256" y2="128"></line>
  </g>
  <g transform="scale(1, -1) translate(0, -855)">
    <style type="text/css">
      
        @keyframes keyframes0 {
          from {
            stroke: blue;
            stroke-dashoffset: 910;
            stroke-width: 128;
          }
          75% {
            animation-timing-function: step-end;
            stroke: blue;
            stroke-dashoffset: 0;
            stroke-width: 128;
          }
          to {
            stroke: black;
            stroke-width: 1024;
          }
        }
        #make-me-a-hanzi-animation-0 {
          animation: keyframes0 0.9905598958333334s both;
          animation-delay: 0s;
          animation-timing-function: linear;
        }
      
        @keyframes keyframes1 {
          from {
            stroke: blue;
            stroke-dashoffset: 1118;
            stroke-width: 128;
          }
          78% {
            animation-timing-function: step-end;
            stroke: blue;
            stroke-dashoffset: 0;
            stroke-width: 128;
          }
          to {
            stroke: black;
            stroke-width: 1024;
          }
        }
        #make-me-a-hanzi-animation-1 {
          animation: keyframes1 1.1598307291666667s both;
          animation-delay: 0.9905598958333334s;
          animation-timing-function: linear;
        }
      
        @keyframes keyframes2 {
          from {
            stroke: blue;
            stroke-dashoffset: 397;
            stroke-width: 128;
          }
          56% {
            animation-timing-function: step-end;
            stroke: blue;
            stroke-dashoffset: 0;
            stroke-width: 128;
          }
          to {
            stroke: black;
            stroke-width: 1024;
          }
        }
        #make-me-a-hanzi-animation-2 {
          animation: keyframes2 0.5730794270833334s both;
          animation-delay: 2.150390625s;
          animation-timing-function: linear;
        }
      
        @keyframes keyframes3 {
          from {
            stroke: blue;
            stroke-dashoffset: 540;
            stroke-width: 128;
          }
          64% {
            animation-timing-function: step-end;
            stroke: blue;
            stroke-dashoffset: 0;
            stroke-width: 128;
          }
          to {
            stroke: black;
            stroke-width: 1024;
          }
        }
        #make-me-a-hanzi-animation-3 {
          animation: keyframes3 0.689453125s both;
          animation-delay: 2.7234700520833335s;
          animation-timing-function: linear;
        }
      
        @keyframes keyframes4 {
          from {
            stroke: blue;
            stroke-dashoffset: 1008;
            stroke-width: 128;
          }
          77% {
            animation-timing-function: step-end;
            stroke: blue;
            stroke-dashoffset: 0;
            stroke-width: 128;
          }
          to {
            stroke: black;
            stroke-width: 1024;
          }
        }
        #make-me-a-hanzi-animation-4 {
          animation: keyframes4 1.0703125s both;
          animation-delay: 3.4129231770833335s;
          animation-timing-function: linear;
        }
      
        @keyframes keyframes5 {
          from {
            stroke: blue;
            stroke-dashoffset: 772;
            stroke-width: 128;
          }
          72% {
            animation-timing-function: step-end;
            stroke: blue;
            stroke-dashoffset: 0;
            stroke-width: 128;
          }
          to {
            stroke: black;
            stroke-width: 1024;
          }
        }
        #make-me-a-hanzi-animation-5 {
          animation: keyframes5 0.8782552083333334s both;
          animation-delay: 4.483235677083334s;
          animation-timing-function: linear;
        }
      
    </style>
    
      <path d="M 373 537 L 178 502 Q 165 500 161 495 Q 157 489 174 480 Q 191 471 207 466 L 231 458 Q 248 455 269 462 L 327 478 L 365 486 L 428 502 L 463 509 L 653 536 Q 688 540 720 542 L 781 545 Q 817 546 819 556 Q 821 566 810 578 Q 799 590 787 596 Q 744 612 729 612 Q 714 612 684 602 Q 654 592 632 588 L 435 549 L 373 537 Z" fill="lightgray"></path>
    
      <path d="M 457 639 L 481 678 Q 483 689 482 695 Q 481 700 470 711 Q 459 721 443 728 Q 398 743 386 741 Q 377 737 375 730 Q 373 726 377 711 L 383 688 L 386 658 Q 389 636 383 614 L 373 537 L 365 486 L 357 453 Q 358 449 337 384 Q 321 340 299 288 Q 253 185 169 107 Q 104 48 75 30 L 58 18 Q 53 13 54 8 Q 55 3 67 8 L 87 14 Q 105 19 141 38 Q 209 76 265 138 Q 297 171 313 196 Q 329 221 357 269 L 369 296 L 386 344 Q 393 358 407 414 L 428 502 L 435 549 L 445 588 Q 457 637 457 639 Z" fill="lightgray"></path>
    
      <path d="M 357 269 L 395 192 Q 407 172 414 159 Q 421 146 430 146 Q 439 146 446 153 Q 453 160 454 183 Q 455 206 446 227 Q 437 248 414 267 Q 390 285 369 296 C 343 310 344 296 357 269 Z" fill="lightgray"></path>
    
      <path d="M 575 214 L 587 218 Q 607 228 619 232 L 657 252 Q 688 268 709 284 L 761 320 Q 775 330 787 336 L 809 348 Q 834 363 807 385 Q 793 397 789 398 L 771 408 Q 735 425 723 411 Q 720 407 719 397 Q 718 386 709 366 Q 700 346 654 299 Q 607 251 601 246 L 573 222 Q 569 220 571 216 Q 573 212 575 214 Z" fill="lightgray"></path>
    
      <path d="M 567 217 L 581 395 Q 581 402 587 413 L 592 424 Q 592 433 571 446 Q 553 454 548 455 L 519 460 Q 486 462 493 440 L 503 424 L 509 400 Q 509 394 513 366 L 513 283 L 511 237 Q 507 168 489 121 Q 482 94 461 62 Q 425 2 351 -40 L 279 -77 L 231 -98 L 211 -104 Q 203 -106 205 -111 Q 207 -116 211 -115 L 233 -113 Q 247 -112 297 -98 Q 347 -85 380 -71 Q 413 -57 449 -26 Q 481 -1 510 41 Q 538 83 547 120 L 555 156 L 563 192 L 567 217 Z" fill="lightgray"></path>
    
      <path d="M 555 156 L 567 138 Q 571 129 574 125 L 617 59 Q 635 32 653 12 L 720 -70 Q 733 -86 750 -97 Q 767 -109 777 -112 Q 786 -116 807 -116 Q 824 -118 842 -116 Q 911 -116 943 -108 L 958 -104 Q 964 -104 965 -100 Q 966 -97 962 -92 L 924 -76 Q 904 -69 823 -35 Q 797 -22 761 -1 Q 677 59 615 130 L 563 192 C 544 215 538 181 555 156 Z" fill="lightgray"></path>
    
    
      <clipPath id="make-me-a-hanzi-clip-0">
        <path d="M 373 537 L 178 502 Q 165 500 161 495 Q 157 489 174 480 Q 191 471 207 466 L 231 458 Q 248 455 269 462 L 327 478 L 365 486 L 428 502 L 463 509 L 653 536 Q 688 540 720 542 L 781 545 Q 817 546 819 556 Q 821 566 810 578 Q 799 590 787 596 Q 744 612 729 612 Q 714 612 684 602 Q 654 592 632 588 L 435 549 L 373 537 Z"></path>
      </clipPath>
      <path clip-path="url(#make-me-a-hanzi-clip-0)" d="M 167 493 L 246 485 L 477 535 L 726 577 L 768 574 L 809 560" fill="none" id="make-me-a-hanzi-animation-0" stroke-dasharray="782 1564" stroke-linecap="round"></path>
    
      <clipPath id="make-me-a-hanzi-clip-1">
        <path d="M 457 639 L 481 678 Q 483 689 482 695 Q 481 700 470 711 Q 459 721 443 728 Q 398 743 386 741 Q 377 737 375 730 Q 373 726 377 711 L 383 688 L 386 658 Q 389 636 383 614 L 373 537 L 365 486 L 357 453 Q 358 449 337 384 Q 321 340 299 288 Q 253 185 169 107 Q 104 48 75 30 L 58 18 Q 53 13 54 8 Q 55 3 67 8 L 87 14 Q 105 19 141 38 Q 209 76 265 138 Q 297 171 313 196 Q 329 221 357 269 L 369 296 L 386 344 Q 393 358 407 414 L 428 502 L 435 549 L 445 588 Q 457 637 457 639 Z"></path>
      </clipPath>
      <path clip-path="url(#make-me-a-hanzi-clip-1)" d="M 390 726 L 430 683 L 385 443 L 367 377 L 327 276 L 273 186 L 210 114 L 126 47 L 61 11" fill="none" id="make-me-a-hanzi-animation-1" stroke-dasharray="990 1980" stroke-linecap="round"></path>
    
      <clipPath id="make-me-a-hanzi-clip-2">
        <path d="M 357 269 L 395 192 Q 407 172 414 159 Q 421 146 430 146 Q 439 146 446 153 Q 453 160 454 183 Q 455 206 446 227 Q 437 248 414 267 Q 390 285 369 296 C 343 310 344 296 357 269 Z"></path>
      </clipPath>
      <path clip-path="url(#make-me-a-hanzi-clip-2)" d="M 371 287 L 377 270 L 420 210 L 431 162" fill="none" id="make-me-a-hanzi-animation-2" stroke-dasharray="269 538" stroke-linecap="round"></path>
    
      <clipPath id="make-me-a-hanzi-clip-3">
        <path d="M 575 214 L 587 218 Q 607 228 619 232 L 657 252 Q 688 268 709 284 L 761 320 Q 775 330 787 336 L 809 348 Q 834 363 807 385 Q 793 397 789 398 L 771 408 Q 735 425 723 411 Q 720 407 719 397 Q 718 386 709 366 Q 700 346 654 299 Q 607 251 601 246 L 573 222 Q 569 220 571 216 Q 573 212 575 214 Z"></path>
      </clipPath>
      <path clip-path="url(#make-me-a-hanzi-clip-3)" d="M 804 364 L 756 368 L 713 320 L 668 282 L 575 218" fill="none" id="make-me-a-hanzi-animation-3" stroke-dasharray="412 824" stroke-linecap="round"></path>
    
      <clipPath id="make-me-a-hanzi-clip-4">
        <path d="M 567 217 L 581 395 Q 581 402 587 413 L 592 424 Q 592 433 571 446 Q 553 454 548 455 L 519 460 Q 486 462 493 440 L 503 424 L 509 400 Q 509 394 513 366 L 513 283 L 511 237 Q 507 168 489 121 Q 482 94 461 62 Q 425 2 351 -40 L 279 -77 L 231 -98 L 211 -104 Q 203 -106 205 -111 Q 207 -116 211 -115 L 233 -113 Q 247 -112 297 -98 Q 347 -85 380 -71 Q 413 -57 449 -26 Q 481 -1 510 41 Q 538 83 547 120 L 555 156 L 563 192 L 567 217 Z"></path>
      </clipPath>
      <path clip-path="url(#make-me-a-hanzi-clip-4)" d="M 504 446 L 545 415 L 546 375 L 537 203 L 525 144 L 500 75 L 458 15 L 397 -38 L 285 -90 L 210 -109" fill="none" id="make-me-a-hanzi-animation-4" stroke-dasharray="880 1760" stroke-linecap="round"></path>
    
      <clipPath id="make-me-a-hanzi-clip-5">
        <path d="M 555 156 L 567 138 Q 571 129 574 125 L 617 59 Q 635 32 653 12 L 720 -70 Q 733 -86 750 -97 Q 767 -109 777 -112 Q 786 -116 807 -116 Q 824 -118 842 -116 Q 911 -116 943 -108 L 958 -104 Q 964 -104 965 -100 Q 966 -97 962 -92 L 924 -76 Q 904 -69 823 -35 Q 797 -22 761 -1 Q 677 59 615 130 L 563 192 C 544 215 538 181 555 156 Z"></path>
      </clipPath>
      <path clip-path="url(#make-me-a-hanzi-clip-5)" d="M 565 185 L 577 151 L 624 88 L 669 35 L 756 -47 L 800 -73 L 959 -98" fill="none" id="make-me-a-hanzi-animation-5" stroke-dasharray="644 1288" stroke-linecap="round"></path>
    
  </g>
</svg>