<svg version="1.1" viewBox="0 0 1024 1024" xmlns="http://www.w3.org/2000/svg">
  <g stroke="lightgray" stroke-dasharray="1,1" stroke-width="1" transform="scale(4, 4)">
    <line x1="0" y1="0" x2="256" y2="256"></line>
    <line x1="256" y1="0" x2="0" y2="256"></line>
    <line x1="128" y1="0" x2="128" y2="256"></line>
    <line x1="0" y1="128" x2="256" y2="128"></line>
  </g>
  <g transform="scale(0.92, -0.92) translate(60, -830)">
    <style type="text/css">
      
        @keyframes keyframes0 {
          from {
            stroke: blue;
            stroke-dashoffset: 609;
            stroke-width: 128;
          }
          66% {
            animation-timing-function: step-end;
            stroke: blue;
            stroke-dashoffset: 0;
            stroke-width: 128;
          }
          to {
            stroke: black;
            stroke-width: 1024;
          }
        }
        #make-me-a-hanzi-animation-0 {
          animation: keyframes0 0.74560546875s both;
          animation-delay: 0s;
          animation-timing-function: linear;
        }
      
        @keyframes keyframes1 {
          from {
            stroke: blue;
            stroke-dashoffset: 996;
            stroke-width: 128;
          }
          76% {
            animation-timing-function: step-end;
            stroke: blue;
            stroke-dashoffset: 0;
            stroke-width: 128;
          }
          to {
            stroke: black;
            stroke-width: 1024;
          }
        }
        #make-me-a-hanzi-animation-1 {
          animation: keyframes1 1.060546875s both;
          animation-delay: 0.74560546875s;
          animation-timing-function: linear;
        }
      
        @keyframes keyframes2 {
          from {
            stroke: blue;
            stroke-dashoffset: 480;
            stroke-width: 128;
          }
          61% {
            animation-timing-function: step-end;
            stroke: blue;
            stroke-dashoffset: 0;
            stroke-width: 128;
          }
          to {
            stroke: black;
            stroke-width: 1024;
          }
        }
        #make-me-a-hanzi-animation-2 {
          animation: keyframes2 0.640625s both;
          animation-delay: 1.80615234375s;
          animation-timing-function: linear;
        }
      
        @keyframes keyframes3 {
          from {
            stroke: blue;
            stroke-dashoffset: 873;
            stroke-width: 128;
          }
          74% {
            animation-timing-function: step-end;
            stroke: blue;
            stroke-dashoffset: 0;
            stroke-width: 128;
          }
          to {
            stroke: black;
            stroke-width: 1024;
          }
        }
        #make-me-a-hanzi-animation-3 {
          animation: keyframes3 0.96044921875s both;
          animation-delay: 2.44677734375s;
          animation-timing-function: linear;
        }
      
        @keyframes keyframes4 {
          from {
            stroke: blue;
            stroke-dashoffset: 348;
            stroke-width: 128;
          }
          53% {
            animation-timing-function: step-end;
            stroke: blue;
            stroke-dashoffset: 0;
            stroke-width: 128;
          }
          to {
            stroke: black;
            stroke-width: 1024;
          }
        }
        #make-me-a-hanzi-animation-4 {
          animation: keyframes4 0.533203125s both;
          animation-delay: 3.4072265625s;
          animation-timing-function: linear;
        }
      
        @keyframes keyframes5 {
          from {
            stroke: blue;
            stroke-dashoffset: 371;
            stroke-width: 128;
          }
          55% {
            animation-timing-function: step-end;
            stroke: blue;
            stroke-dashoffset: 0;
            stroke-width: 128;
          }
          to {
            stroke: black;
            stroke-width: 1024;
          }
        }
        #make-me-a-hanzi-animation-5 {
          animation: keyframes5 0.5519205729166666s both;
          animation-delay: 3.9404296875s;
          animation-timing-function: linear;
        }
      
        @keyframes keyframes6 {
          from {
            stroke: blue;
            stroke-dashoffset: 553;
            stroke-width: 128;
          }
          64% {
            animation-timing-function: step-end;
            stroke: blue;
            stroke-dashoffset: 0;
            stroke-width: 128;
          }
          to {
            stroke: black;
            stroke-width: 1024;
          }
        }
        #make-me-a-hanzi-animation-6 {
          animation: keyframes6 0.7000325520833334s both;
          animation-delay: 4.492350260416667s;
          animation-timing-function: linear;
        }
      
        @keyframes keyframes7 {
          from {
            stroke: blue;
            stroke-dashoffset: 583;
            stroke-width: 128;
          }
          65% {
            animation-timing-function: step-end;
            stroke: blue;
            stroke-dashoffset: 0;
            stroke-width: 128;
          }
          to {
            stroke: black;
            stroke-width: 1024;
          }
        }
        #make-me-a-hanzi-animation-7 {
          animation: keyframes7 0.7244466145833334s both;
          animation-delay: 5.1923828125s;
          animation-timing-function: linear;
        }
      
        @keyframes keyframes8 {
          from {
            stroke: blue;
            stroke-dashoffset: 803;
            stroke-width: 128;
          }
          72% {
            animation-timing-function: step-end;
            stroke: blue;
            stroke-dashoffset: 0;
            stroke-width: 128;
          }
          to {
            stroke: black;
            stroke-width: 1024;
          }
        }
        #make-me-a-hanzi-animation-8 {
          animation: keyframes8 0.9034830729166666s both;
          animation-delay: 5.916829427083333s;
          animation-timing-function: linear;
        }
      
        @keyframes keyframes9 {
          from {
            stroke: blue;
            stroke-dashoffset: 905;
            stroke-width: 128;
          }
          75% {
            animation-timing-function: step-end;
            stroke: blue;
            stroke-dashoffset: 0;
            stroke-width: 128;
          }
          to {
            stroke: black;
            stroke-width: 1024;
          }
        }
        #make-me-a-hanzi-animation-9 {
          animation: keyframes9 0.9864908854166666s both;
          animation-delay: 6.8203125s;
          animation-timing-function: linear;
        }
      
        @keyframes keyframes10 {
          from {
            stroke: blue;
            stroke-dashoffset: 436;
            stroke-width: 128;
          }
          59% {
            animation-timing-function: step-end;
            stroke: blue;
            stroke-dashoffset: 0;
            stroke-width: 128;
          }
          to {
            stroke: black;
            stroke-width: 1024;
          }
        }
        #make-me-a-hanzi-animation-10 {
          animation: keyframes10 0.6048177083333334s both;
          animation-delay: 7.806803385416667s;
          animation-timing-function: linear;
        }
      
        @keyframes keyframes11 {
          from {
            stroke: blue;
            stroke-dashoffset: 391;
            stroke-width: 128;
          }
          56% {
            animation-timing-function: step-end;
            stroke: blue;
            stroke-dashoffset: 0;
            stroke-width: 128;
          }
          to {
            stroke: black;
            stroke-width: 1024;
          }
        }
        #make-me-a-hanzi-animation-11 {
          animation: keyframes11 0.5681966145833334s both;
          animation-delay: 8.41162109375s;
          animation-timing-function: linear;
        }
      
        @keyframes keyframes12 {
          from {
            stroke: blue;
            stroke-dashoffset: 401;
            stroke-width: 128;
          }
          57% {
            animation-timing-function: step-end;
            stroke: blue;
            stroke-dashoffset: 0;
            stroke-width: 128;
          }
          to {
            stroke: black;
            stroke-width: 1024;
          }
        }
        #make-me-a-hanzi-animation-12 {
          animation: keyframes12 0.5763346354166666s both;
          animation-delay: 8.979817708333334s;
          animation-timing-function: linear;
        }
      
        @keyframes keyframes13 {
          from {
            stroke: blue;
            stroke-dashoffset: 461;
            stroke-width: 128;
          }
          60% {
            animation-timing-function: step-end;
            stroke: blue;
            stroke-dashoffset: 0;
            stroke-width: 128;
          }
          to {
            stroke: black;
            stroke-width: 1024;
          }
        }
        #make-me-a-hanzi-animation-13 {
          animation: keyframes13 0.6251627604166666s both;
          animation-delay: 9.55615234375s;
          animation-timing-function: linear;
        }
      
    </style>
    
      <path d="M 495 654 L 502 656 L 554 672 Q 576 678 592 681 Q 608 684 620 686 Q 633 688 642 690 Q 651 690 654 694 Q 656 696 656 700 Q 656 703 654 708 Q 650 719 639 730 Q 628 740 617 749 Q 606 758 598 762 Q 591 765 588 765 Q 586 765 585 764 Q 582 762 576 755 Q 570 747 560 739 Q 550 732 530 720 Q 511 709 494 702 Q 477 694 433 678 Q 388 662 382 660 L 348 649 L 313 638 Q 305 634 305 629 L 305 628 Q 306 624 312 624 L 317 624 L 350 626 Q 363 628 379 630 Q 396 633 418 638 Q 440 642 460 647 L 495 654 Z" fill="lightgray"></path>
    
      <path d="M 535 534 L 583 537 L 672 544 L 746 544 Q 811 545 814 545 L 866 542 L 871 542 Q 891 542 892 550 Q 892 560 885 568 Q 877 576 865 584 Q 854 592 838 597 Q 822 602 810 602 Q 800 602 773 597 Q 746 592 706 588 Q 666 584 656 582 Q 646 582 601 578 Q 556 576 542 574 L 478 569 L 460 568 Q 416 564 400 562 L 292 550 Q 256 546 193 542 L 152 540 Q 144 539 141 534 Q 140 532 140 530 Q 140 526 142 523 Q 146 516 156 511 Q 166 506 176 500 Q 186 494 194 490 Q 202 487 209 487 L 211 487 Q 220 487 238 494 Q 259 501 276 504 Q 293 508 328 513 Q 362 518 396 522 L 467 531 Q 470 531 478 532 L 535 534 Z" fill="lightgray"></path>
    
      <path d="M 316 452 L 294 457 L 274 462 Q 269 463 266 463 Q 259 463 258 460 Q 255 456 255 452 Q 256 448 263 441 Q 270 434 277 425 Q 283 417 288 404 Q 293 392 298 366 L 312 287 Q 317 262 323 251 Q 328 240 338 240 Q 348 241 352 248 Q 356 256 358 266 L 354 298 L 335 427 C 332 448 332 448 316 452 Z" fill="lightgray"></path>
    
      <path d="M 480 470 L 457 467 L 432 463 Q 424 462 400 460 Q 376 458 316 452 C 286 449 305 425 335 427 L 480 435 L 532 443 L 630 456 Q 659 461 671 461 Q 675 461 677 460 Q 686 460 691 454 Q 696 450 696 438 Q 696 430 692 414 Q 689 398 684 382 Q 680 364 674 347 Q 670 330 662 304 C 655 281 655 283 655 282 L 660 269 Q 661 262 664 260 Q 666 258 672 256 Q 675 255 678 255 Q 682 255 685 256 Q 689 256 695 261 Q 700 266 706 274 Q 710 282 721 308 L 757 401 Q 764 418 768 426 Q 774 435 782 444 Q 790 454 791 458 Q 791 465 778 473 L 744 490 Q 724 500 711 505 Q 698 510 690 510 Q 686 510 681 509 Q 676 508 653 501 Q 630 494 611 490 Q 592 486 574 483 Q 558 480 531 476 L 480 470 Z" fill="lightgray"></path>
    
      <path d="M 380 413 L 376 413 Q 372 413 371 412 Q 370 411 370 409 Q 370 408 371 405 L 376 391 Q 380 380 384 372 L 397 348 Q 406 326 413 325 L 416 325 Q 420 325 425 326 Q 433 328 438 338 Q 441 344 441 353 L 441 358 Q 440 368 436 377 Q 432 386 424 392 Q 416 399 408 403 Q 400 407 392 410 L 380 413 Z" fill="lightgray"></path>
    
      <path d="M 579 354 L 601 366 L 622 378 Q 640 388 646 390 Q 652 390 652 392 Q 654 393 654 396 Q 654 398 652 402 Q 648 412 640 418 Q 632 424 626 428 Q 621 431 614 434 Q 609 435 605 435 Q 602 435 600 434 Q 596 432 593 422 Q 590 412 585 401 Q 580 390 573 378 Q 567 367 562 361 L 554 352 Q 551 349 551 347 Q 551 346 552 345 Q 553 344 555 344 Q 557 344 562 346 L 579 354 Z" fill="lightgray"></path>
    
      <path d="M 358 266 L 448 270 Q 450 270 479 273 L 527 276 L 544 277 Q 576 278 655 282 C 685 284 687 287 662 304 L 642 318 Q 630 328 610 328 Q 607 327 582 322 Q 558 317 529 316 L 478 309 L 354 298 C 324 295 328 265 358 266 Z" fill="lightgray"></path>
    
      <path d="M 477 211 L 457 209 Q 455 208 436 206 Q 417 202 390 200 Q 364 196 354 196 L 339 194 Q 334 194 333 189 Q 332 188 332 186 Q 332 183 335 180 Q 338 176 349 171 Q 359 166 370 164 Q 380 162 396 162 Q 407 162 426 164 Q 446 166 454 168 Q 464 169 478 172 L 526 179 L 553 184 Q 555 184 582 187 Q 610 190 627 194 L 653 198 Q 668 200 670 205 Q 670 210 665 216 Q 660 222 651 225 Q 642 228 625 232 Q 612 234 606 234 L 602 234 Q 600 234 588 231 Q 577 228 562 226 L 527 219 L 477 211 Z" fill="lightgray"></path>
    
      <path d="M 478 532 L 480 470 L 480 435 L 478 309 L 479 273 L 479 262 L 477 211 L 478 172 L 477 122 C 476 92 531 95 529 125 L 526 179 L 527 219 L 527 276 L 529 316 L 532 443 L 531 476 L 535 534 L 542 574 L 548 597 L 552 619 Q 550 626 540 634 Q 529 642 520 646 Q 510 650 506 651 Q 502 652 495 654 C 466 662 452 667 460 647 L 468 628 Q 470 622 473 611 Q 476 601 476 592 Q 478 582 478 569 L 478 532 Z" fill="lightgray"></path>
    
      <path d="M 477 122 L 393 112 Q 379 110 322 105 Q 266 100 239 100 L 200 100 Q 193 99 191 95 L 191 93 Q 191 90 193 85 Q 197 78 206 73 L 227 62 Q 238 57 248 53 Q 258 50 266 49 L 268 49 Q 277 49 298 55 Q 321 62 363 68 Q 405 75 423 77 Q 440 80 515 83 L 622 88 L 707 90 Q 734 91 751 91 L 764 91 L 810 90 L 820 90 Q 844 90 844 99 L 844 100 Q 844 113 835 121 Q 826 129 815 135 Q 804 141 787 146 Q 771 152 759 152 Q 749 152 726 146 Q 704 140 686 137 Q 669 134 639 132 Q 608 128 588 127 Q 566 126 529 125 L 477 122 Z" fill="lightgray"></path>
    
      <path d="M 230 26 Q 227 33 221 33 L 220 33 Q 214 32 210 24 L 202 7 Q 194 -11 192 -14 Q 190 -18 180 -31 Q 170 -44 161 -54 Q 152 -64 144 -72 Q 136 -80 132 -86 Q 128 -92 128 -102 Q 127 -107 127 -114 Q 127 -120 128 -127 Q 129 -140 135 -149 Q 142 -157 150 -158 Q 153 -159 155 -159 Q 165 -159 176 -148 Q 192 -135 205 -115 Q 218 -94 226 -75 Q 235 -56 238 -36 Q 239 -29 239 -23 Q 239 -16 238 -9 Q 236 5 234 14 L 230 26 Z" fill="lightgray"></path>
    
      <path d="M 365 -2 L 371 -17 L 383 -46 Q 386 -55 397 -77 Q 407 -99 414 -108 Q 425 -124 433 -124 L 434 -124 Q 443 -124 449 -115 Q 456 -106 458 -93 L 458 -86 Q 458 -76 456 -63 Q 454 -46 440 -32 Q 428 -18 412 -7 Q 397 4 390 6 L 378 10 Q 375 11 372 11 Q 368 11 366 9 Q 364 7 364 4 Q 364 1 365 -2 Z" fill="lightgray"></path>
    
      <path d="M 548 -12 L 562 -37 L 581 -69 Q 594 -92 603 -99 Q 614 -108 621 -108 L 624 -108 Q 632 -106 637 -92 Q 642 -79 642 -60 Q 640 -42 631 -28 Q 621 -14 607 -4 Q 593 6 584 8 Q 576 12 565 14 L 549 18 Q 544 19 541 19 Q 537 19 535 17 Q 534 15 534 13 Q 534 9 538 2 L 548 -12 Z" fill="lightgray"></path>
    
      <path d="M 756 24 L 752 24 Q 747 24 744 22 Q 743 21 743 19 Q 743 15 748 8 L 757 -2 L 774 -24 Q 776 -26 806 -68 L 832 -106 Q 848 -130 857 -138 Q 868 -148 876 -148 Q 884 -147 890 -139 Q 896 -130 900 -120 Q 901 -113 901 -106 Q 901 -98 900 -90 Q 898 -72 888 -58 Q 878 -44 863 -33 Q 848 -22 830 -11 L 792 9 Q 775 18 768 20 L 756 24 Z" fill="lightgray"></path>
    
    
      <clipPath id="make-me-a-hanzi-clip-0">
        <path d="M 495 654 L 502 656 L 554 672 Q 576 678 592 681 Q 608 684 620 686 Q 633 688 642 690 Q 651 690 654 694 Q 656 696 656 700 Q 656 703 654 708 Q 650 719 639 730 Q 628 740 617 749 Q 606 758 598 762 Q 591 765 588 765 Q 586 765 585 764 Q 582 762 576 755 Q 570 747 560 739 Q 550 732 530 720 Q 511 709 494 702 Q 477 694 433 678 Q 388 662 382 660 L 348 649 L 313 638 Q 305 634 305 629 L 305 628 Q 306 624 312 624 L 317 624 L 350 626 Q 363 628 379 630 Q 396 633 418 638 Q 440 642 460 647 L 495 654 Z"></path>
      </clipPath>
      <path clip-path="url(#make-me-a-hanzi-clip-0)" d="M 645 700 L 615 714 L 588 717 L 485 674 L 310 629" fill="none" id="make-me-a-hanzi-animation-0" stroke-dasharray="481 962" stroke-linecap="round"></path>
    
      <clipPath id="make-me-a-hanzi-clip-1">
        <path d="M 535 534 L 583 537 L 672 544 L 746 544 Q 811 545 814 545 L 866 542 L 871 542 Q 891 542 892 550 Q 892 560 885 568 Q 877 576 865 584 Q 854 592 838 597 Q 822 602 810 602 Q 800 602 773 597 Q 746 592 706 588 Q 666 584 656 582 Q 646 582 601 578 Q 556 576 542 574 L 478 569 L 460 568 Q 416 564 400 562 L 292 550 Q 256 546 193 542 L 152 540 Q 144 539 141 534 Q 140 532 140 530 Q 140 526 142 523 Q 146 516 156 511 Q 166 506 176 500 Q 186 494 194 490 Q 202 487 209 487 L 211 487 Q 220 487 238 494 Q 259 501 276 504 Q 293 508 328 513 Q 362 518 396 522 L 467 531 Q 470 531 478 532 L 535 534 Z"></path>
      </clipPath>
      <path clip-path="url(#make-me-a-hanzi-clip-1)" d="M 151 529 L 212 515 L 452 550 L 799 573 L 835 570 L 883 553" fill="none" id="make-me-a-hanzi-animation-1" stroke-dasharray="868 1736" stroke-linecap="round"></path>
    
      <clipPath id="make-me-a-hanzi-clip-2">
        <path d="M 316 452 L 294 457 L 274 462 Q 269 463 266 463 Q 259 463 258 460 Q 255 456 255 452 Q 256 448 263 441 Q 270 434 277 425 Q 283 417 288 404 Q 293 392 298 366 L 312 287 Q 317 262 323 251 Q 328 240 338 240 Q 348 241 352 248 Q 356 256 358 266 L 354 298 L 335 427 C 332 448 332 448 316 452 Z"></path>
      </clipPath>
      <path clip-path="url(#make-me-a-hanzi-clip-2)" d="M 265 453 L 303 430 L 311 416 L 338 255" fill="none" id="make-me-a-hanzi-animation-2" stroke-dasharray="352 704" stroke-linecap="round"></path>
    
      <clipPath id="make-me-a-hanzi-clip-3">
        <path d="M 480 470 L 457 467 L 432 463 Q 424 462 400 460 Q 376 458 316 452 C 286 449 305 425 335 427 L 480 435 L 532 443 L 630 456 Q 659 461 671 461 Q 675 461 677 460 Q 686 460 691 454 Q 696 450 696 438 Q 696 430 692 414 Q 689 398 684 382 Q 680 364 674 347 Q 670 330 662 304 C 655 281 655 283 655 282 L 660 269 Q 661 262 664 260 Q 666 258 672 256 Q 675 255 678 255 Q 682 255 685 256 Q 689 256 695 261 Q 700 266 706 274 Q 710 282 721 308 L 757 401 Q 764 418 768 426 Q 774 435 782 444 Q 790 454 791 458 Q 791 465 778 473 L 744 490 Q 724 500 711 505 Q 698 510 690 510 Q 686 510 681 509 Q 676 508 653 501 Q 630 494 611 490 Q 592 486 574 483 Q 558 480 531 476 L 480 470 Z"></path>
      </clipPath>
      <path clip-path="url(#make-me-a-hanzi-clip-3)" d="M 326 450 L 340 440 L 414 445 L 551 461 L 668 484 L 705 478 L 735 448 L 698 325 L 674 270" fill="none" id="make-me-a-hanzi-animation-3" stroke-dasharray="745 1490" stroke-linecap="round"></path>
    
      <clipPath id="make-me-a-hanzi-clip-4">
        <path d="M 380 413 L 376 413 Q 372 413 371 412 Q 370 411 370 409 Q 370 408 371 405 L 376 391 Q 380 380 384 372 L 397 348 Q 406 326 413 325 L 416 325 Q 420 325 425 326 Q 433 328 438 338 Q 441 344 441 353 L 441 358 Q 440 368 436 377 Q 432 386 424 392 Q 416 399 408 403 Q 400 407 392 410 L 380 413 Z"></path>
      </clipPath>
      <path clip-path="url(#make-me-a-hanzi-clip-4)" d="M 374 409 L 413 369 L 419 349 L 415 334" fill="none" id="make-me-a-hanzi-animation-4" stroke-dasharray="220 440" stroke-linecap="round"></path>
    
      <clipPath id="make-me-a-hanzi-clip-5">
        <path d="M 579 354 L 601 366 L 622 378 Q 640 388 646 390 Q 652 390 652 392 Q 654 393 654 396 Q 654 398 652 402 Q 648 412 640 418 Q 632 424 626 428 Q 621 431 614 434 Q 609 435 605 435 Q 602 435 600 434 Q 596 432 593 422 Q 590 412 585 401 Q 580 390 573 378 Q 567 367 562 361 L 554 352 Q 551 349 551 347 Q 551 346 552 345 Q 553 344 555 344 Q 557 344 562 346 L 579 354 Z"></path>
      </clipPath>
      <path clip-path="url(#make-me-a-hanzi-clip-5)" d="M 647 397 L 615 404 L 555 348" fill="none" id="make-me-a-hanzi-animation-5" stroke-dasharray="243 486" stroke-linecap="round"></path>
    
      <clipPath id="make-me-a-hanzi-clip-6">
        <path d="M 358 266 L 448 270 Q 450 270 479 273 L 527 276 L 544 277 Q 576 278 655 282 C 685 284 687 287 662 304 L 642 318 Q 630 328 610 328 Q 607 327 582 322 Q 558 317 529 316 L 478 309 L 354 298 C 324 295 328 265 358 266 Z"></path>
      </clipPath>
      <path clip-path="url(#make-me-a-hanzi-clip-6)" d="M 362 294 L 371 284 L 379 284 L 611 304 L 641 297 L 652 301" fill="none" id="make-me-a-hanzi-animation-6" stroke-dasharray="425 850" stroke-linecap="round"></path>
    
      <clipPath id="make-me-a-hanzi-clip-7">
        <path d="M 477 211 L 457 209 Q 455 208 436 206 Q 417 202 390 200 Q 364 196 354 196 L 339 194 Q 334 194 333 189 Q 332 188 332 186 Q 332 183 335 180 Q 338 176 349 171 Q 359 166 370 164 Q 380 162 396 162 Q 407 162 426 164 Q 446 166 454 168 Q 464 169 478 172 L 526 179 L 553 184 Q 555 184 582 187 Q 610 190 627 194 L 653 198 Q 668 200 670 205 Q 670 210 665 216 Q 660 222 651 225 Q 642 228 625 232 Q 612 234 606 234 L 602 234 Q 600 234 588 231 Q 577 228 562 226 L 527 219 L 477 211 Z"></path>
      </clipPath>
      <path clip-path="url(#make-me-a-hanzi-clip-7)" d="M 339 186 L 389 180 L 599 212 L 663 208" fill="none" id="make-me-a-hanzi-animation-7" stroke-dasharray="455 910" stroke-linecap="round"></path>
    
      <clipPath id="make-me-a-hanzi-clip-8">
        <path d="M 478 532 L 480 470 L 480 435 L 478 309 L 479 273 L 479 262 L 477 211 L 478 172 L 477 122 C 476 92 531 95 529 125 L 526 179 L 527 219 L 527 276 L 529 316 L 532 443 L 531 476 L 535 534 L 542 574 L 548 597 L 552 619 Q 550 626 540 634 Q 529 642 520 646 Q 510 650 506 651 Q 502 652 495 654 C 466 662 452 667 460 647 L 468 628 Q 470 622 473 611 Q 476 601 476 592 Q 478 582 478 569 L 478 532 Z"></path>
      </clipPath>
      <path clip-path="url(#make-me-a-hanzi-clip-8)" d="M 467 644 L 494 629 L 512 608 L 505 494 L 503 149 L 483 128" fill="none" id="make-me-a-hanzi-animation-8" stroke-dasharray="675 1350" stroke-linecap="round"></path>
    
      <clipPath id="make-me-a-hanzi-clip-9">
        <path d="M 477 122 L 393 112 Q 379 110 322 105 Q 266 100 239 100 L 200 100 Q 193 99 191 95 L 191 93 Q 191 90 193 85 Q 197 78 206 73 L 227 62 Q 238 57 248 53 Q 258 50 266 49 L 268 49 Q 277 49 298 55 Q 321 62 363 68 Q 405 75 423 77 Q 440 80 515 83 L 622 88 L 707 90 Q 734 91 751 91 L 764 91 L 810 90 L 820 90 Q 844 90 844 99 L 844 100 Q 844 113 835 121 Q 826 129 815 135 Q 804 141 787 146 Q 771 152 759 152 Q 749 152 726 146 Q 704 140 686 137 Q 669 134 639 132 Q 608 128 588 127 Q 566 126 529 125 L 477 122 Z"></path>
      </clipPath>
      <path clip-path="url(#make-me-a-hanzi-clip-9)" d="M 197 94 L 210 86 L 271 75 L 430 98 L 762 122 L 809 113 L 837 100" fill="none" id="make-me-a-hanzi-animation-9" stroke-dasharray="777 1554" stroke-linecap="round"></path>
    
      <clipPath id="make-me-a-hanzi-clip-10">
        <path d="M 230 26 Q 227 33 221 33 L 220 33 Q 214 32 210 24 L 202 7 Q 194 -11 192 -14 Q 190 -18 180 -31 Q 170 -44 161 -54 Q 152 -64 144 -72 Q 136 -80 132 -86 Q 128 -92 128 -102 Q 127 -107 127 -114 Q 127 -120 128 -127 Q 129 -140 135 -149 Q 142 -157 150 -158 Q 153 -159 155 -159 Q 165 -159 176 -148 Q 192 -135 205 -115 Q 218 -94 226 -75 Q 235 -56 238 -36 Q 239 -29 239 -23 Q 239 -16 238 -9 Q 236 5 234 14 L 230 26 Z"></path>
      </clipPath>
      <path clip-path="url(#make-me-a-hanzi-clip-10)" d="M 221 23 L 210 -37 L 166 -104 L 156 -142" fill="none" id="make-me-a-hanzi-animation-10" stroke-dasharray="308 616" stroke-linecap="round"></path>
    
      <clipPath id="make-me-a-hanzi-clip-11">
        <path d="M 365 -2 L 371 -17 L 383 -46 Q 386 -55 397 -77 Q 407 -99 414 -108 Q 425 -124 433 -124 L 434 -124 Q 443 -124 449 -115 Q 456 -106 458 -93 L 458 -86 Q 458 -76 456 -63 Q 454 -46 440 -32 Q 428 -18 412 -7 Q 397 4 390 6 L 378 10 Q 375 11 372 11 Q 368 11 366 9 Q 364 7 364 4 Q 364 1 365 -2 Z"></path>
      </clipPath>
      <path clip-path="url(#make-me-a-hanzi-clip-11)" d="M 371 4 L 424 -61 L 434 -111" fill="none" id="make-me-a-hanzi-animation-11" stroke-dasharray="263 526" stroke-linecap="round"></path>
    
      <clipPath id="make-me-a-hanzi-clip-12">
        <path d="M 548 -12 L 562 -37 L 581 -69 Q 594 -92 603 -99 Q 614 -108 621 -108 L 624 -108 Q 632 -106 637 -92 Q 642 -79 642 -60 Q 640 -42 631 -28 Q 621 -14 607 -4 Q 593 6 584 8 Q 576 12 565 14 L 549 18 Q 544 19 541 19 Q 537 19 535 17 Q 534 15 534 13 Q 534 9 538 2 L 548 -12 Z"></path>
      </clipPath>
      <path clip-path="url(#make-me-a-hanzi-clip-12)" d="M 539 14 L 581 -18 L 603 -43 L 623 -98" fill="none" id="make-me-a-hanzi-animation-12" stroke-dasharray="273 546" stroke-linecap="round"></path>
    
      <clipPath id="make-me-a-hanzi-clip-13">
        <path d="M 756 24 L 752 24 Q 747 24 744 22 Q 743 21 743 19 Q 743 15 748 8 L 757 -2 L 774 -24 Q 776 -26 806 -68 L 832 -106 Q 848 -130 857 -138 Q 868 -148 876 -148 Q 884 -147 890 -139 Q 896 -130 900 -120 Q 901 -113 901 -106 Q 901 -98 900 -90 Q 898 -72 888 -58 Q 878 -44 863 -33 Q 848 -22 830 -11 L 792 9 Q 775 18 768 20 L 756 24 Z"></path>
      </clipPath>
      <path clip-path="url(#make-me-a-hanzi-clip-13)" d="M 749 19 L 801 -21 L 856 -76 L 872 -111 L 875 -134" fill="none" id="make-me-a-hanzi-animation-13" stroke-dasharray="333 666" stroke-linecap="round"></path>
    
  </g>
</svg>