<svg version="1.1" viewBox="0 0 1024 1024" xmlns="http://www.w3.org/2000/svg">
  <g stroke="lightgray" stroke-dasharray="1,1" stroke-width="1" transform="scale(4, 4)">
    <line x1="0" y1="0" x2="256" y2="256"></line>
    <line x1="256" y1="0" x2="0" y2="256"></line>
    <line x1="128" y1="0" x2="128" y2="256"></line>
    <line x1="0" y1="128" x2="256" y2="128"></line>
  </g>
  <g transform="scale(0.92, -0.92) translate(60, -830)">
    <style type="text/css">
      
        @keyframes keyframes0 {
          from {
            stroke: blue;
            stroke-dashoffset: 682;
            stroke-width: 128;
          }
          69% {
            animation-timing-function: step-end;
            stroke: blue;
            stroke-dashoffset: 0;
            stroke-width: 128;
          }
          to {
            stroke: black;
            stroke-width: 1024;
          }
        }
        #make-me-a-hanzi-animation-0 {
          animation: keyframes0 0.8050130208333334s both;
          animation-delay: 0s;
          animation-timing-function: linear;
        }
      
        @keyframes keyframes1 {
          from {
            stroke: blue;
            stroke-dashoffset: 1103;
            stroke-width: 128;
          }
          78% {
            animation-timing-function: step-end;
            stroke: blue;
            stroke-dashoffset: 0;
            stroke-width: 128;
          }
          to {
            stroke: black;
            stroke-width: 1024;
          }
        }
        #make-me-a-hanzi-animation-1 {
          animation: keyframes1 1.1476236979166667s both;
          animation-delay: 0.8050130208333334s;
          animation-timing-function: linear;
        }
      
        @keyframes keyframes2 {
          from {
            stroke: blue;
            stroke-dashoffset: 668;
            stroke-width: 128;
          }
          68% {
            animation-timing-function: step-end;
            stroke: blue;
            stroke-dashoffset: 0;
            stroke-width: 128;
          }
          to {
            stroke: black;
            stroke-width: 1024;
          }
        }
        #make-me-a-hanzi-animation-2 {
          animation: keyframes2 0.7936197916666666s both;
          animation-delay: 1.95263671875s;
          animation-timing-function: linear;
        }
      
        @keyframes keyframes3 {
          from {
            stroke: blue;
            stroke-dashoffset: 489;
            stroke-width: 128;
          }
          61% {
            animation-timing-function: step-end;
            stroke: blue;
            stroke-dashoffset: 0;
            stroke-width: 128;
          }
          to {
            stroke: black;
            stroke-width: 1024;
          }
        }
        #make-me-a-hanzi-animation-3 {
          animation: keyframes3 0.64794921875s both;
          animation-delay: 2.7462565104166665s;
          animation-timing-function: linear;
        }
      
        @keyframes keyframes4 {
          from {
            stroke: blue;
            stroke-dashoffset: 523;
            stroke-width: 128;
          }
          63% {
            animation-timing-function: step-end;
            stroke: blue;
            stroke-dashoffset: 0;
            stroke-width: 128;
          }
          to {
            stroke: black;
            stroke-width: 1024;
          }
        }
        #make-me-a-hanzi-animation-4 {
          animation: keyframes4 0.6756184895833334s both;
          animation-delay: 3.3942057291666665s;
          animation-timing-function: linear;
        }
      
        @keyframes keyframes5 {
          from {
            stroke: blue;
            stroke-dashoffset: 510;
            stroke-width: 128;
          }
          62% {
            animation-timing-function: step-end;
            stroke: blue;
            stroke-dashoffset: 0;
            stroke-width: 128;
          }
          to {
            stroke: black;
            stroke-width: 1024;
          }
        }
        #make-me-a-hanzi-animation-5 {
          animation: keyframes5 0.6650390625s both;
          animation-delay: 4.06982421875s;
          animation-timing-function: linear;
        }
      
        @keyframes keyframes6 {
          from {
            stroke: blue;
            stroke-dashoffset: 590;
            stroke-width: 128;
          }
          66% {
            animation-timing-function: step-end;
            stroke: blue;
            stroke-dashoffset: 0;
            stroke-width: 128;
          }
          to {
            stroke: black;
            stroke-width: 1024;
          }
        }
        #make-me-a-hanzi-animation-6 {
          animation: keyframes6 0.7301432291666666s both;
          animation-delay: 4.73486328125s;
          animation-timing-function: linear;
        }
      
        @keyframes keyframes7 {
          from {
            stroke: blue;
            stroke-dashoffset: 621;
            stroke-width: 128;
          }
          67% {
            animation-timing-function: step-end;
            stroke: blue;
            stroke-dashoffset: 0;
            stroke-width: 128;
          }
          to {
            stroke: black;
            stroke-width: 1024;
          }
        }
        #make-me-a-hanzi-animation-7 {
          animation: keyframes7 0.75537109375s both;
          animation-delay: 5.465006510416667s;
          animation-timing-function: linear;
        }
      
        @keyframes keyframes8 {
          from {
            stroke: blue;
            stroke-dashoffset: 971;
            stroke-width: 128;
          }
          76% {
            animation-timing-function: step-end;
            stroke: blue;
            stroke-dashoffset: 0;
            stroke-width: 128;
          }
          to {
            stroke: black;
            stroke-width: 1024;
          }
        }
        #make-me-a-hanzi-animation-8 {
          animation: keyframes8 1.0402018229166667s both;
          animation-delay: 6.220377604166667s;
          animation-timing-function: linear;
        }
      
        @keyframes keyframes9 {
          from {
            stroke: blue;
            stroke-dashoffset: 540;
            stroke-width: 128;
          }
          64% {
            animation-timing-function: step-end;
            stroke: blue;
            stroke-dashoffset: 0;
            stroke-width: 128;
          }
          to {
            stroke: black;
            stroke-width: 1024;
          }
        }
        #make-me-a-hanzi-animation-9 {
          animation: keyframes9 0.689453125s both;
          animation-delay: 7.260579427083334s;
          animation-timing-function: linear;
        }
      
        @keyframes keyframes10 {
          from {
            stroke: blue;
            stroke-dashoffset: 520;
            stroke-width: 128;
          }
          63% {
            animation-timing-function: step-end;
            stroke: blue;
            stroke-dashoffset: 0;
            stroke-width: 128;
          }
          to {
            stroke: black;
            stroke-width: 1024;
          }
        }
        #make-me-a-hanzi-animation-10 {
          animation: keyframes10 0.6731770833333334s both;
          animation-delay: 7.950032552083334s;
          animation-timing-function: linear;
        }
      
        @keyframes keyframes11 {
          from {
            stroke: blue;
            stroke-dashoffset: 502;
            stroke-width: 128;
          }
          62% {
            animation-timing-function: step-end;
            stroke: blue;
            stroke-dashoffset: 0;
            stroke-width: 128;
          }
          to {
            stroke: black;
            stroke-width: 1024;
          }
        }
        #make-me-a-hanzi-animation-11 {
          animation: keyframes11 0.6585286458333334s both;
          animation-delay: 8.623209635416668s;
          animation-timing-function: linear;
        }
      
    </style>
    
      <path d="M 347 515 L 372 548 Q 408 602 441 644 Q 446 650 446 656 Q 446 664 438 672 Q 420 691 399 703 Q 386 710 372 710 L 369 710 Q 359 708 359 695 L 359 688 Q 359 644 342 604 Q 332 581 314 554 L 284 512 Q 249 466 210 432 Q 172 401 154 383 Q 150 378 150 376 Q 150 371 161 371 Q 185 373 215 394 Q 270 433 312 475 L 347 515 Z" fill="lightgray"></path>
    
      <path d="M 354 327 Q 356 319 356 310 Q 359 277 359 241 Q 359 205 356 166 Q 348 91 329 36 Q 320 13 311 13 L 309 13 Q 296 13 254 25 Q 233 32 224 32 Q 219 32 218 30 Q 216 27 216 24 Q 216 18 224 11 Q 266 -29 290 -63 Q 311 -92 320 -92 L 321 -92 Q 330 -92 347 -74 Q 359 -60 374 -24 Q 399 31 406 115 Q 410 161 410 210 Q 410 251 407 294 Q 400 387 376 453 Q 362 490 347 515 L 314 554 Q 300 567 285 576 Q 234 610 200 622 Q 194 624 190 624 Q 183 624 182 617 L 182 612 Q 182 598 190 583 Q 200 567 218 561 Q 234 554 261 533 Q 274 524 284 512 L 312 475 Q 325 452 331 434 Q 335 422 338 407 L 354 327 Z" fill="lightgray"></path>
    
      <path d="M 96 85 Q 92 80 92 77 Q 92 74 99 73 L 101 73 Q 109 73 118 79 Q 175 116 239 179 Q 299 235 353 325 L 354 327 C 369 353 351 434 338 407 Q 301 332 256 269 Q 207 202 96 85 Z" fill="lightgray"></path>
    
      <path d="M 542 519 Q 510 513 476 509 Q 446 504 431 504 Q 420 503 419 500 L 419 498 Q 419 490 425 484 Q 439 470 463 461 Q 474 457 485 457 Q 490 457 495 458 Q 520 468 547 477 L 587 490 L 626 502 L 655 515 Q 660 519 660 524 L 660 526 Q 656 533 648 533 L 646 533 Q 619 528 585 524 L 542 519 Z" fill="lightgray"></path>
    
      <path d="M 547 477 Q 550 449 551 422 Q 553 401 568 386 Q 575 380 580 380 Q 584 380 586 386 Q 591 404 591 428 Q 588 462 587 490 L 585 524 Q 584 572 584 608 Q 583 629 567 636 Q 550 645 537 648 Q 527 651 519 651 Q 512 651 507 649 Q 496 644 496 636 Q 496 630 502 622 Q 535 573 542 519 L 547 477 Z" fill="lightgray"></path>
    
      <path d="M 810 519 L 813 519 Q 846 523 882 523 Q 912 523 931 522 L 936 522 Q 946 522 948 529 Q 949 532 949 534 Q 949 542 940 549 Q 925 563 901 570 Q 892 572 882 572 Q 872 572 861 570 Q 841 565 820 562 L 768 552 L 695 540 Q 681 537 681 532 Q 681 529 688 525 Q 706 512 721 508 Q 725 507 731 507 Q 743 507 761 511 L 810 519 Z" fill="lightgray"></path>
    
      <path d="M 743 429 Q 740 413 740 402 Q 740 395 741 390 Q 743 382 747 382 Q 752 382 759 389 Q 773 403 786 437 Q 800 477 810 519 L 820 562 Q 823 569 824 575 Q 832 610 856 652 Q 863 663 863 671 Q 863 677 859 681 Q 842 697 805 712 Q 797 715 790 715 Q 779 715 769 708 Q 764 705 764 699 Q 764 695 767 690 Q 779 663 779 633 L 779 628 Q 775 594 768 552 L 761 511 Q 752 474 743 429 Z" fill="lightgray"></path>
    
      <path d="M 496 59 Q 498 24 513 -7 Q 526 -31 536 -35 Q 539 -36 541 -36 Q 551 -36 552 -9 Q 551 -5 551 -2 L 551 27 Q 549 44 548 62 Q 544 95 543 135 L 540 163 Q 536 222 536 268 L 536 270 C 536 292 531 295 505 309 Q 484 321 466 327 L 463 327 Q 458 327 453 324 Q 451 322 451 318 Q 451 313 455 306 Q 481 266 487 214 Q 496 138 496 59 Z" fill="lightgray"></path>
    
      <path d="M 785 22 Q 788 18 789 14 Q 799 -17 811 -29 Q 819 -38 828 -38 Q 837 -38 849 -17 Q 863 3 873 48 Q 885 96 897 202 Q 902 239 908 258 Q 912 269 916 275 Q 922 286 922 293 Q 921 308 885 338 Q 846 370 831 370 Q 819 368 801 362 Q 789 357 752 353 L 672 341 Q 602 327 563 320 Q 523 312 505 309 C 475 304 507 263 536 270 Q 543 271 555 274 Q 590 288 641 297 L 679 303 Q 748 315 805 316 Q 817 316 823 310 Q 834 297 834 281 Q 834 247 831 196 L 829 171 Q 826 156 826 138 Q 817 64 811 55 Q 808 50 802 50 C 783 27 783 27 785 22 Z" fill="lightgray"></path>
    
      <path d="M 824 169 Q 826 171 829 171 C 858 179 857 181 831 196 Q 819 204 804 207 Q 796 208 786 208 Q 765 208 735 202 Q 719 198 706 197 L 654 186 Q 594 172 540 163 C 510 158 513 140 543 135 Q 550 133 560 133 Q 567 133 575 134 L 654 147 L 703 154 Q 769 163 824 169 Z" fill="lightgray"></path>
    
      <path d="M 698 54 Q 702 109 703 154 L 706 197 Q 708 217 708 232 Q 709 245 710 252 Q 712 262 712 268 Q 712 276 709 279 Q 694 294 679 303 C 654 319 628 324 641 297 L 649 281 Q 654 268 654 249 L 654 186 L 654 147 Q 655 105 655 45 C 655 15 696 24 698 54 Z" fill="lightgray"></path>
    
      <path d="M 551 -2 Q 561 -3 574 -3 Q 695 13 785 22 C 815 25 827 34 802 50 L 800 51 Q 790 59 778 59 Q 769 60 758 60 Q 738 60 713 56 Q 704 54 698 54 L 655 45 Q 599 34 551 27 C 521 23 521 0 551 -2 Z" fill="lightgray"></path>
    
    
      <clipPath id="make-me-a-hanzi-clip-0">
        <path d="M 347 515 L 372 548 Q 408 602 441 644 Q 446 650 446 656 Q 446 664 438 672 Q 420 691 399 703 Q 386 710 372 710 L 369 710 Q 359 708 359 695 L 359 688 Q 359 644 342 604 Q 332 581 314 554 L 284 512 Q 249 466 210 432 Q 172 401 154 383 Q 150 378 150 376 Q 150 371 161 371 Q 185 373 215 394 Q 270 433 312 475 L 347 515 Z"></path>
      </clipPath>
      <path clip-path="url(#make-me-a-hanzi-clip-0)" d="M 371 699 L 389 675 L 397 652 L 355 569 L 282 474 L 225 422 L 157 377" fill="none" id="make-me-a-hanzi-animation-0" stroke-dasharray="554 1108" stroke-linecap="round"></path>
    
      <clipPath id="make-me-a-hanzi-clip-1">
        <path d="M 354 327 Q 356 319 356 310 Q 359 277 359 241 Q 359 205 356 166 Q 348 91 329 36 Q 320 13 311 13 L 309 13 Q 296 13 254 25 Q 233 32 224 32 Q 219 32 218 30 Q 216 27 216 24 Q 216 18 224 11 Q 266 -29 290 -63 Q 311 -92 320 -92 L 321 -92 Q 330 -92 347 -74 Q 359 -60 374 -24 Q 399 31 406 115 Q 410 161 410 210 Q 410 251 407 294 Q 400 387 376 453 Q 362 490 347 515 L 314 554 Q 300 567 285 576 Q 234 610 200 622 Q 194 624 190 624 Q 183 624 182 617 L 182 612 Q 182 598 190 583 Q 200 567 218 561 Q 234 554 261 533 Q 274 524 284 512 L 312 475 Q 325 452 331 434 Q 335 422 338 407 L 354 327 Z"></path>
      </clipPath>
      <path clip-path="url(#make-me-a-hanzi-clip-1)" d="M 191 615 L 211 592 L 293 539 L 334 488 L 368 389 L 384 271 L 384 186 L 374 90 L 361 31 L 346 -5 L 322 -31 L 223 25" fill="none" id="make-me-a-hanzi-animation-1" stroke-dasharray="975 1950" stroke-linecap="round"></path>
    
      <clipPath id="make-me-a-hanzi-clip-2">
        <path d="M 96 85 Q 92 80 92 77 Q 92 74 99 73 L 101 73 Q 109 73 118 79 Q 175 116 239 179 Q 299 235 353 325 L 354 327 C 369 353 351 434 338 407 Q 301 332 256 269 Q 207 202 96 85 Z"></path>
      </clipPath>
      <path clip-path="url(#make-me-a-hanzi-clip-2)" d="M 336 400 L 327 330 L 283 264 L 184 151 L 98 79" fill="none" id="make-me-a-hanzi-animation-2" stroke-dasharray="540 1080" stroke-linecap="round"></path>
    
      <clipPath id="make-me-a-hanzi-clip-3">
        <path d="M 542 519 Q 510 513 476 509 Q 446 504 431 504 Q 420 503 419 500 L 419 498 Q 419 490 425 484 Q 439 470 463 461 Q 474 457 485 457 Q 490 457 495 458 Q 520 468 547 477 L 587 490 L 626 502 L 655 515 Q 660 519 660 524 L 660 526 Q 656 533 648 533 L 646 533 Q 619 528 585 524 L 542 519 Z"></path>
      </clipPath>
      <path clip-path="url(#make-me-a-hanzi-clip-3)" d="M 426 499 L 464 484 L 492 484 L 651 525" fill="none" id="make-me-a-hanzi-animation-3" stroke-dasharray="361 722" stroke-linecap="round"></path>
    
      <clipPath id="make-me-a-hanzi-clip-4">
        <path d="M 547 477 Q 550 449 551 422 Q 553 401 568 386 Q 575 380 580 380 Q 584 380 586 386 Q 591 404 591 428 Q 588 462 587 490 L 585 524 Q 584 572 584 608 Q 583 629 567 636 Q 550 645 537 648 Q 527 651 519 651 Q 512 651 507 649 Q 496 644 496 636 Q 496 630 502 622 Q 535 573 542 519 L 547 477 Z"></path>
      </clipPath>
      <path clip-path="url(#make-me-a-hanzi-clip-4)" d="M 511 634 L 550 607 L 577 389" fill="none" id="make-me-a-hanzi-animation-4" stroke-dasharray="395 790" stroke-linecap="round"></path>
    
      <clipPath id="make-me-a-hanzi-clip-5">
        <path d="M 810 519 L 813 519 Q 846 523 882 523 Q 912 523 931 522 L 936 522 Q 946 522 948 529 Q 949 532 949 534 Q 949 542 940 549 Q 925 563 901 570 Q 892 572 882 572 Q 872 572 861 570 Q 841 565 820 562 L 768 552 L 695 540 Q 681 537 681 532 Q 681 529 688 525 Q 706 512 721 508 Q 725 507 731 507 Q 743 507 761 511 L 810 519 Z"></path>
      </clipPath>
      <path clip-path="url(#make-me-a-hanzi-clip-5)" d="M 687 531 L 728 526 L 886 548 L 937 534" fill="none" id="make-me-a-hanzi-animation-5" stroke-dasharray="382 764" stroke-linecap="round"></path>
    
      <clipPath id="make-me-a-hanzi-clip-6">
        <path d="M 743 429 Q 740 413 740 402 Q 740 395 741 390 Q 743 382 747 382 Q 752 382 759 389 Q 773 403 786 437 Q 800 477 810 519 L 820 562 Q 823 569 824 575 Q 832 610 856 652 Q 863 663 863 671 Q 863 677 859 681 Q 842 697 805 712 Q 797 715 790 715 Q 779 715 769 708 Q 764 705 764 699 Q 764 695 767 690 Q 779 663 779 633 L 779 628 Q 775 594 768 552 L 761 511 Q 752 474 743 429 Z"></path>
      </clipPath>
      <path clip-path="url(#make-me-a-hanzi-clip-6)" d="M 776 698 L 802 682 L 816 661 L 783 504 L 750 391" fill="none" id="make-me-a-hanzi-animation-6" stroke-dasharray="462 924" stroke-linecap="round"></path>
    
      <clipPath id="make-me-a-hanzi-clip-7">
        <path d="M 496 59 Q 498 24 513 -7 Q 526 -31 536 -35 Q 539 -36 541 -36 Q 551 -36 552 -9 Q 551 -5 551 -2 L 551 27 Q 549 44 548 62 Q 544 95 543 135 L 540 163 Q 536 222 536 268 L 536 270 C 536 292 531 295 505 309 Q 484 321 466 327 L 463 327 Q 458 327 453 324 Q 451 322 451 318 Q 451 313 455 306 Q 481 266 487 214 Q 496 138 496 59 Z"></path>
      </clipPath>
      <path clip-path="url(#make-me-a-hanzi-clip-7)" d="M 460 318 L 488 294 L 507 257 L 522 54 L 540 -27" fill="none" id="make-me-a-hanzi-animation-7" stroke-dasharray="493 986" stroke-linecap="round"></path>
    
      <clipPath id="make-me-a-hanzi-clip-8">
        <path d="M 785 22 Q 788 18 789 14 Q 799 -17 811 -29 Q 819 -38 828 -38 Q 837 -38 849 -17 Q 863 3 873 48 Q 885 96 897 202 Q 902 239 908 258 Q 912 269 916 275 Q 922 286 922 293 Q 921 308 885 338 Q 846 370 831 370 Q 819 368 801 362 Q 789 357 752 353 L 672 341 Q 602 327 563 320 Q 523 312 505 309 C 475 304 507 263 536 270 Q 543 271 555 274 Q 590 288 641 297 L 679 303 Q 748 315 805 316 Q 817 316 823 310 Q 834 297 834 281 Q 834 247 831 196 L 829 171 Q 826 156 826 138 Q 817 64 811 55 Q 808 50 802 50 C 783 27 783 27 785 22 Z"></path>
      </clipPath>
      <path clip-path="url(#make-me-a-hanzi-clip-8)" d="M 511 306 L 545 294 L 647 318 L 816 341 L 835 338 L 856 320 L 876 290 L 854 108 L 841 45 L 826 19 L 827 -24" fill="none" id="make-me-a-hanzi-animation-8" stroke-dasharray="843 1686" stroke-linecap="round"></path>
    
      <clipPath id="make-me-a-hanzi-clip-9">
        <path d="M 824 169 Q 826 171 829 171 C 858 179 857 181 831 196 Q 819 204 804 207 Q 796 208 786 208 Q 765 208 735 202 Q 719 198 706 197 L 654 186 Q 594 172 540 163 C 510 158 513 140 543 135 Q 550 133 560 133 Q 567 133 575 134 L 654 147 L 703 154 Q 769 163 824 169 Z"></path>
      </clipPath>
      <path clip-path="url(#make-me-a-hanzi-clip-9)" d="M 548 157 L 558 149 L 790 187 L 812 186 L 823 178" fill="none" id="make-me-a-hanzi-animation-9" stroke-dasharray="412 824" stroke-linecap="round"></path>
    
      <clipPath id="make-me-a-hanzi-clip-10">
        <path d="M 698 54 Q 702 109 703 154 L 706 197 Q 708 217 708 232 Q 709 245 710 252 Q 712 262 712 268 Q 712 276 709 279 Q 694 294 679 303 C 654 319 628 324 641 297 L 649 281 Q 654 268 654 249 L 654 186 L 654 147 Q 655 105 655 45 C 655 15 696 24 698 54 Z"></path>
      </clipPath>
      <path clip-path="url(#make-me-a-hanzi-clip-10)" d="M 648 295 L 674 279 L 682 261 L 678 78 L 661 53" fill="none" id="make-me-a-hanzi-animation-10" stroke-dasharray="392 784" stroke-linecap="round"></path>
    
      <clipPath id="make-me-a-hanzi-clip-11">
        <path d="M 551 -2 Q 561 -3 574 -3 Q 695 13 785 22 C 815 25 827 34 802 50 L 800 51 Q 790 59 778 59 Q 769 60 758 60 Q 738 60 713 56 Q 704 54 698 54 L 655 45 Q 599 34 551 27 C 521 23 521 0 551 -2 Z"></path>
      </clipPath>
      <path clip-path="url(#make-me-a-hanzi-clip-11)" d="M 557 5 L 589 17 L 799 46" fill="none" id="make-me-a-hanzi-animation-11" stroke-dasharray="374 748" stroke-linecap="round"></path>
    
  </g>
</svg>