<svg version="1.1" viewBox="0 0 1024 1024" xmlns="http://www.w3.org/2000/svg">
  <g stroke="lightgray" stroke-dasharray="1,1" stroke-width="1" transform="scale(4, 4)">
    <line x1="0" y1="0" x2="256" y2="256"></line>
    <line x1="256" y1="0" x2="0" y2="256"></line>
    <line x1="128" y1="0" x2="128" y2="256"></line>
    <line x1="0" y1="128" x2="256" y2="128"></line>
  </g>
  <g transform="scale(1, -1) translate(0, -860)">
    <style type="text/css">
      
        @keyframes keyframes0 {
          from {
            stroke: blue;
            stroke-dashoffset: 555;
            stroke-width: 128;
          }
          64% {
            animation-timing-function: step-end;
            stroke: blue;
            stroke-dashoffset: 0;
            stroke-width: 128;
          }
          to {
            stroke: black;
            stroke-width: 1024;
          }
        }
        #make-me-a-hanzi-animation-0 {
          animation: keyframes0 0.70166015625s both;
          animation-delay: 0s;
          animation-timing-function: linear;
        }
      
        @keyframes keyframes1 {
          from {
            stroke: blue;
            stroke-dashoffset: 915;
            stroke-width: 128;
          }
          75% {
            animation-timing-function: step-end;
            stroke: blue;
            stroke-dashoffset: 0;
            stroke-width: 128;
          }
          to {
            stroke: black;
            stroke-width: 1024;
          }
        }
        #make-me-a-hanzi-animation-1 {
          animation: keyframes1 0.99462890625s both;
          animation-delay: 0.70166015625s;
          animation-timing-function: linear;
        }
      
        @keyframes keyframes2 {
          from {
            stroke: blue;
            stroke-dashoffset: 497;
            stroke-width: 128;
          }
          62% {
            animation-timing-function: step-end;
            stroke: blue;
            stroke-dashoffset: 0;
            stroke-width: 128;
          }
          to {
            stroke: black;
            stroke-width: 1024;
          }
        }
        #make-me-a-hanzi-animation-2 {
          animation: keyframes2 0.6544596354166666s both;
          animation-delay: 1.6962890625s;
          animation-timing-function: linear;
        }
      
        @keyframes keyframes3 {
          from {
            stroke: blue;
            stroke-dashoffset: 483;
            stroke-width: 128;
          }
          61% {
            animation-timing-function: step-end;
            stroke: blue;
            stroke-dashoffset: 0;
            stroke-width: 128;
          }
          to {
            stroke: black;
            stroke-width: 1024;
          }
        }
        #make-me-a-hanzi-animation-3 {
          animation: keyframes3 0.64306640625s both;
          animation-delay: 2.3507486979166665s;
          animation-timing-function: linear;
        }
      
        @keyframes keyframes4 {
          from {
            stroke: blue;
            stroke-dashoffset: 514;
            stroke-width: 128;
          }
          63% {
            animation-timing-function: step-end;
            stroke: blue;
            stroke-dashoffset: 0;
            stroke-width: 128;
          }
          to {
            stroke: black;
            stroke-width: 1024;
          }
        }
        #make-me-a-hanzi-animation-4 {
          animation: keyframes4 0.6682942708333334s both;
          animation-delay: 2.9938151041666665s;
          animation-timing-function: linear;
        }
      
        @keyframes keyframes5 {
          from {
            stroke: blue;
            stroke-dashoffset: 1005;
            stroke-width: 128;
          }
          77% {
            animation-timing-function: step-end;
            stroke: blue;
            stroke-dashoffset: 0;
            stroke-width: 128;
          }
          to {
            stroke: black;
            stroke-width: 1024;
          }
        }
        #make-me-a-hanzi-animation-5 {
          animation: keyframes5 1.06787109375s both;
          animation-delay: 3.662109375s;
          animation-timing-function: linear;
        }
      
        @keyframes keyframes6 {
          from {
            stroke: blue;
            stroke-dashoffset: 825;
            stroke-width: 128;
          }
          73% {
            animation-timing-function: step-end;
            stroke: blue;
            stroke-dashoffset: 0;
            stroke-width: 128;
          }
          to {
            stroke: black;
            stroke-width: 1024;
          }
        }
        #make-me-a-hanzi-animation-6 {
          animation: keyframes6 0.92138671875s both;
          animation-delay: 4.72998046875s;
          animation-timing-function: linear;
        }
      
        @keyframes keyframes7 {
          from {
            stroke: blue;
            stroke-dashoffset: 421;
            stroke-width: 128;
          }
          58% {
            animation-timing-function: step-end;
            stroke: blue;
            stroke-dashoffset: 0;
            stroke-width: 128;
          }
          to {
            stroke: black;
            stroke-width: 1024;
          }
        }
        #make-me-a-hanzi-animation-7 {
          animation: keyframes7 0.5926106770833334s both;
          animation-delay: 5.6513671875s;
          animation-timing-function: linear;
        }
      
        @keyframes keyframes8 {
          from {
            stroke: blue;
            stroke-dashoffset: 843;
            stroke-width: 128;
          }
          73% {
            animation-timing-function: step-end;
            stroke: blue;
            stroke-dashoffset: 0;
            stroke-width: 128;
          }
          to {
            stroke: black;
            stroke-width: 1024;
          }
        }
        #make-me-a-hanzi-animation-8 {
          animation: keyframes8 0.93603515625s both;
          animation-delay: 6.243977864583333s;
          animation-timing-function: linear;
        }
      
    </style>
    
      <path d="M 345 397 Q 333 517 320 602 C 317 624 317 624 300 628 L 284 632 Q 269 636 257 636 Q 231 636 252 615 Q 271 591 275 570 Q 288 513 302 388 Q 302 367 320 346 Q 328 337 336 347 Q 345 357 348 367 L 345 397 Z" fill="lightgray"></path>
    
      <path d="M 486 625 L 601 638 Q 640 642 649 622 Q 652 617 650 600 L 641 538 L 614 418 C 607 389 602 394 604 389 L 612 372 Q 613 365 628 364 Q 643 362 655 381 Q 667 400 674 424 L 720 566 Q 728 600 738 615 Q 746 630 745 635 Q 742 651 704 668 Q 675 682 656 682 Q 638 682 617 677 Q 596 671 446 646 L 380 637 L 300 628 C 270 625 290 601 320 602 L 334 602 Q 345 603 367 608 Q 389 613 429 616 L 486 625 Z" fill="lightgray"></path>
    
      <path d="M 500 489 Q 521 493 558 498 Q 595 503 600 508 Q 620 525 574 539 Q 552 545 504 532 L 450 521 Q 407 515 380 516 Q 353 516 350 512 Q 348 508 360 497 Q 389 472 452 482 L 500 489 Z" fill="lightgray"></path>
    
      <path d="M 496 412 L 500 489 L 504 532 L 507 565 Q 509 576 512 585 Q 515 594 516 602 Q 517 610 502 617 L 486 625 C 459 638 411 640 429 616 L 438 604 Q 446 591 448 570 L 450 521 L 452 482 L 454 408 C 455 378 494 382 496 412 Z" fill="lightgray"></path>
    
      <path d="M 578 426 L 530 419 Q 526 419 496 412 L 454 408 L 345 397 C 315 394 318 366 348 367 L 380 368 Q 415 368 512 379 L 586 387 Q 592 389 604 389 C 634 390 642 409 614 418 L 602 422 Q 597 426 578 426 Z" fill="lightgray"></path>
    
      <path d="M 326 251 L 339 252 Q 507 271 622 277 L 711 281 L 746 281 Q 760 281 778 283 Q 808 283 810 284 L 842 286 Q 848 286 853 292 Q 858 297 848 309 Q 842 323 815 336 Q 788 348 767 348 L 646 328 Q 634 324 580 321 L 445 308 Q 345 299 309 294 Q 274 289 196 283 Q 119 277 113 274 L 97 273 Q 94 273 92 268 Q 88 255 111 242 Q 138 224 166 226 L 246 240 Q 248 242 258 243 L 326 251 Z" fill="lightgray"></path>
    
      <path d="M 253 -81 L 248 -99 Q 245 -116 250 -126 Q 255 -137 270 -150 Q 287 -167 302 -152 L 430 -20 Q 462 13 475 25 Q 488 36 490 42 Q 490 55 477 48 Q 432 20 383 -13 Q 335 -46 329 -47 Q 324 -49 322 -47 Q 321 -45 320 -40 L 322 -16 L 324 142 Q 324 177 331 203 Q 338 229 337 232 Q 337 235 326 251 C 310 276 252 272 258 243 L 264 213 Q 271 144 270 128 L 264 -18 Q 256 -70 253 -81 Z" fill="lightgray"></path>
    
      <path d="M 601 88 L 668 126 Q 692 137 708 147 L 727 154 Q 737 156 738 160 Q 748 172 726 199 Q 688 237 678 232 Q 668 227 664 223 Q 660 218 655 200 Q 650 182 619 138 L 586 99 C 567 76 575 73 601 88 Z" fill="lightgray"></path>
    
      <path d="M 586 99 L 516 160 Q 514 162 492 177 Q 471 191 465 194 Q 460 197 441 198 Q 423 198 421 186 Q 419 178 434 174 Q 443 171 456 163 Q 469 155 474 153 Q 479 150 510 119 L 542 86 L 626 -13 Q 709 -105 736 -118 Q 774 -134 836 -118 L 906 -104 Q 926 -101 929 -92 Q 929 -87 926 -86 L 828 -50 Q 707 -9 601 88 L 586 99 Z" fill="lightgray"></path>
    
    
      <clipPath id="make-me-a-hanzi-clip-0">
        <path d="M 345 397 Q 333 517 320 602 C 317 624 317 624 300 628 L 284 632 Q 269 636 257 636 Q 231 636 252 615 Q 271 591 275 570 Q 288 513 302 388 Q 302 367 320 346 Q 328 337 336 347 Q 345 357 348 367 L 345 397 Z"></path>
      </clipPath>
      <path clip-path="url(#make-me-a-hanzi-clip-0)" d="M 253 626 L 286 607 L 296 591 L 328 351" fill="none" id="make-me-a-hanzi-animation-0" stroke-dasharray="427 854" stroke-linecap="round"></path>
    
      <clipPath id="make-me-a-hanzi-clip-1">
        <path d="M 486 625 L 601 638 Q 640 642 649 622 Q 652 617 650 600 L 641 538 L 614 418 C 607 389 602 394 604 389 L 612 372 Q 613 365 628 364 Q 643 362 655 381 Q 667 400 674 424 L 720 566 Q 728 600 738 615 Q 746 630 745 635 Q 742 651 704 668 Q 675 682 656 682 Q 638 682 617 677 Q 596 671 446 646 L 380 637 L 300 628 C 270 625 290 601 320 602 L 334 602 Q 345 603 367 608 Q 389 613 429 616 L 486 625 Z"></path>
      </clipPath>
      <path clip-path="url(#make-me-a-hanzi-clip-1)" d="M 307 626 L 328 616 L 619 658 L 659 654 L 682 638 L 693 625 L 686 583 L 645 425 L 625 378" fill="none" id="make-me-a-hanzi-animation-1" stroke-dasharray="787 1574" stroke-linecap="round"></path>
    
      <clipPath id="make-me-a-hanzi-clip-2">
        <path d="M 500 489 Q 521 493 558 498 Q 595 503 600 508 Q 620 525 574 539 Q 552 545 504 532 L 450 521 Q 407 515 380 516 Q 353 516 350 512 Q 348 508 360 497 Q 389 472 452 482 L 500 489 Z"></path>
      </clipPath>
      <path clip-path="url(#make-me-a-hanzi-clip-2)" d="M 356 510 L 407 497 L 558 520 L 594 518" fill="none" id="make-me-a-hanzi-animation-2" stroke-dasharray="369 738" stroke-linecap="round"></path>
    
      <clipPath id="make-me-a-hanzi-clip-3">
        <path d="M 496 412 L 500 489 L 504 532 L 507 565 Q 509 576 512 585 Q 515 594 516 602 Q 517 610 502 617 L 486 625 C 459 638 411 640 429 616 L 438 604 Q 446 591 448 570 L 450 521 L 452 482 L 454 408 C 455 378 494 382 496 412 Z"></path>
      </clipPath>
      <path clip-path="url(#make-me-a-hanzi-clip-3)" d="M 437 613 L 479 589 L 476 436 L 460 416" fill="none" id="make-me-a-hanzi-animation-3" stroke-dasharray="355 710" stroke-linecap="round"></path>
    
      <clipPath id="make-me-a-hanzi-clip-4">
        <path d="M 578 426 L 530 419 Q 526 419 496 412 L 454 408 L 345 397 C 315 394 318 366 348 367 L 380 368 Q 415 368 512 379 L 586 387 Q 592 389 604 389 C 634 390 642 409 614 418 L 602 422 Q 597 426 578 426 Z"></path>
      </clipPath>
      <path clip-path="url(#make-me-a-hanzi-clip-4)" d="M 353 375 L 370 385 L 500 393 L 606 413" fill="none" id="make-me-a-hanzi-animation-4" stroke-dasharray="386 772" stroke-linecap="round"></path>
    
      <clipPath id="make-me-a-hanzi-clip-5">
        <path d="M 326 251 L 339 252 Q 507 271 622 277 L 711 281 L 746 281 Q 760 281 778 283 Q 808 283 810 284 L 842 286 Q 848 286 853 292 Q 858 297 848 309 Q 842 323 815 336 Q 788 348 767 348 L 646 328 Q 634 324 580 321 L 445 308 Q 345 299 309 294 Q 274 289 196 283 Q 119 277 113 274 L 97 273 Q 94 273 92 268 Q 88 255 111 242 Q 138 224 166 226 L 246 240 Q 248 242 258 243 L 326 251 Z"></path>
      </clipPath>
      <path clip-path="url(#make-me-a-hanzi-clip-5)" d="M 101 264 L 160 253 L 397 282 L 765 315 L 811 310 L 843 297" fill="none" id="make-me-a-hanzi-animation-5" stroke-dasharray="877 1754" stroke-linecap="round"></path>
    
      <clipPath id="make-me-a-hanzi-clip-6">
        <path d="M 253 -81 L 248 -99 Q 245 -116 250 -126 Q 255 -137 270 -150 Q 287 -167 302 -152 L 430 -20 Q 462 13 475 25 Q 488 36 490 42 Q 490 55 477 48 Q 432 20 383 -13 Q 335 -46 329 -47 Q 324 -49 322 -47 Q 321 -45 320 -40 L 322 -16 L 324 142 Q 324 177 331 203 Q 338 229 337 232 Q 337 235 326 251 C 310 276 252 272 258 243 L 264 213 Q 271 144 270 128 L 264 -18 Q 256 -70 253 -81 Z"></path>
      </clipPath>
      <path clip-path="url(#make-me-a-hanzi-clip-6)" d="M 266 237 L 298 213 L 290 -56 L 299 -88 L 343 -71 L 482 42" fill="none" id="make-me-a-hanzi-animation-6" stroke-dasharray="697 1394" stroke-linecap="round"></path>
    
      <clipPath id="make-me-a-hanzi-clip-7">
        <path d="M 601 88 L 668 126 Q 692 137 708 147 L 727 154 Q 737 156 738 160 Q 748 172 726 199 Q 688 237 678 232 Q 668 227 664 223 Q 660 218 655 200 Q 650 182 619 138 L 586 99 C 567 76 575 73 601 88 Z"></path>
      </clipPath>
      <path clip-path="url(#make-me-a-hanzi-clip-7)" d="M 726 169 L 690 181 L 615 110 L 593 101" fill="none" id="make-me-a-hanzi-animation-7" stroke-dasharray="293 586" stroke-linecap="round"></path>
    
      <clipPath id="make-me-a-hanzi-clip-8">
        <path d="M 586 99 L 516 160 Q 514 162 492 177 Q 471 191 465 194 Q 460 197 441 198 Q 423 198 421 186 Q 419 178 434 174 Q 443 171 456 163 Q 469 155 474 153 Q 479 150 510 119 L 542 86 L 626 -13 Q 709 -105 736 -118 Q 774 -134 836 -118 L 906 -104 Q 926 -101 929 -92 Q 929 -87 926 -86 L 828 -50 Q 707 -9 601 88 L 586 99 Z"></path>
      </clipPath>
      <path clip-path="url(#make-me-a-hanzi-clip-8)" d="M 431 186 L 462 178 L 493 159 L 657 -1 L 754 -73 L 780 -81 L 921 -92" fill="none" id="make-me-a-hanzi-animation-8" stroke-dasharray="715 1430" stroke-linecap="round"></path>
    
  </g>
</svg>