<svg version="1.1" viewBox="0 0 1024 1024" xmlns="http://www.w3.org/2000/svg">
  <g stroke="lightgray" stroke-dasharray="1,1" stroke-width="1" transform="scale(4, 4)">
    <line x1="0" y1="0" x2="256" y2="256"></line>
    <line x1="256" y1="0" x2="0" y2="256"></line>
    <line x1="128" y1="0" x2="128" y2="256"></line>
    <line x1="0" y1="128" x2="256" y2="128"></line>
  </g>
  <g transform="scale(0.92, -0.92) translate(60, -830)">
    <style type="text/css">
      
        @keyframes keyframes0 {
          from {
            stroke: blue;
            stroke-dashoffset: 884;
            stroke-width: 128;
          }
          74% {
            animation-timing-function: step-end;
            stroke: blue;
            stroke-dashoffset: 0;
            stroke-width: 128;
          }
          to {
            stroke: black;
            stroke-width: 1024;
          }
        }
        #make-me-a-hanzi-animation-0 {
          animation: keyframes0 0.9694010416666666s both;
          animation-delay: 0s;
          animation-timing-function: linear;
        }
      
        @keyframes keyframes1 {
          from {
            stroke: blue;
            stroke-dashoffset: 496;
            stroke-width: 128;
          }
          62% {
            animation-timing-function: step-end;
            stroke: blue;
            stroke-dashoffset: 0;
            stroke-width: 128;
          }
          to {
            stroke: black;
            stroke-width: 1024;
          }
        }
        #make-me-a-hanzi-animation-1 {
          animation: keyframes1 0.6536458333333334s both;
          animation-delay: 0.9694010416666666s;
          animation-timing-function: linear;
        }
      
        @keyframes keyframes2 {
          from {
            stroke: blue;
            stroke-dashoffset: 431;
            stroke-width: 128;
          }
          58% {
            animation-timing-function: step-end;
            stroke: blue;
            stroke-dashoffset: 0;
            stroke-width: 128;
          }
          to {
            stroke: black;
            stroke-width: 1024;
          }
        }
        #make-me-a-hanzi-animation-2 {
          animation: keyframes2 0.6007486979166666s both;
          animation-delay: 1.623046875s;
          animation-timing-function: linear;
        }
      
        @keyframes keyframes3 {
          from {
            stroke: blue;
            stroke-dashoffset: 714;
            stroke-width: 128;
          }
          70% {
            animation-timing-function: step-end;
            stroke: blue;
            stroke-dashoffset: 0;
            stroke-width: 128;
          }
          to {
            stroke: black;
            stroke-width: 1024;
          }
        }
        #make-me-a-hanzi-animation-3 {
          animation: keyframes3 0.8310546875s both;
          animation-delay: 2.2237955729166665s;
          animation-timing-function: linear;
        }
      
        @keyframes keyframes4 {
          from {
            stroke: blue;
            stroke-dashoffset: 887;
            stroke-width: 128;
          }
          74% {
            animation-timing-function: step-end;
            stroke: blue;
            stroke-dashoffset: 0;
            stroke-width: 128;
          }
          to {
            stroke: black;
            stroke-width: 1024;
          }
        }
        #make-me-a-hanzi-animation-4 {
          animation: keyframes4 0.9718424479166666s both;
          animation-delay: 3.0548502604166665s;
          animation-timing-function: linear;
        }
      
        @keyframes keyframes5 {
          from {
            stroke: blue;
            stroke-dashoffset: 538;
            stroke-width: 128;
          }
          64% {
            animation-timing-function: step-end;
            stroke: blue;
            stroke-dashoffset: 0;
            stroke-width: 128;
          }
          to {
            stroke: black;
            stroke-width: 1024;
          }
        }
        #make-me-a-hanzi-animation-5 {
          animation: keyframes5 0.6878255208333334s both;
          animation-delay: 4.026692708333333s;
          animation-timing-function: linear;
        }
      
        @keyframes keyframes6 {
          from {
            stroke: blue;
            stroke-dashoffset: 832;
            stroke-width: 128;
          }
          73% {
            animation-timing-function: step-end;
            stroke: blue;
            stroke-dashoffset: 0;
            stroke-width: 128;
          }
          to {
            stroke: black;
            stroke-width: 1024;
          }
        }
        #make-me-a-hanzi-animation-6 {
          animation: keyframes6 0.9270833333333334s both;
          animation-delay: 4.714518229166666s;
          animation-timing-function: linear;
        }
      
        @keyframes keyframes7 {
          from {
            stroke: blue;
            stroke-dashoffset: 508;
            stroke-width: 128;
          }
          62% {
            animation-timing-function: step-end;
            stroke: blue;
            stroke-dashoffset: 0;
            stroke-width: 128;
          }
          to {
            stroke: black;
            stroke-width: 1024;
          }
        }
        #make-me-a-hanzi-animation-7 {
          animation: keyframes7 0.6634114583333334s both;
          animation-delay: 5.641601562499999s;
          animation-timing-function: linear;
        }
      
        @keyframes keyframes8 {
          from {
            stroke: blue;
            stroke-dashoffset: 476;
            stroke-width: 128;
          }
          61% {
            animation-timing-function: step-end;
            stroke: blue;
            stroke-dashoffset: 0;
            stroke-width: 128;
          }
          to {
            stroke: black;
            stroke-width: 1024;
          }
        }
        #make-me-a-hanzi-animation-8 {
          animation: keyframes8 0.6373697916666666s both;
          animation-delay: 6.305013020833332s;
          animation-timing-function: linear;
        }
      
        @keyframes keyframes9 {
          from {
            stroke: blue;
            stroke-dashoffset: 986;
            stroke-width: 128;
          }
          76% {
            animation-timing-function: step-end;
            stroke: blue;
            stroke-dashoffset: 0;
            stroke-width: 128;
          }
          to {
            stroke: black;
            stroke-width: 1024;
          }
        }
        #make-me-a-hanzi-animation-9 {
          animation: keyframes9 1.0524088541666667s both;
          animation-delay: 6.942382812499999s;
          animation-timing-function: linear;
        }
      
    </style>
    
      <path d="M 712 706 Q 702 706 670 698 Q 610 680 489 656 Q 361 633 263 631 Q 219 631 219 618 Q 219 613 237 601 Q 261 587 284 587 Q 302 587 467 619 L 506 627 Q 652 654 672 654 Q 695 654 695 647 Q 676 606 664 588 Q 659 581 659 578 Q 659 570 672 570 Q 677 570 690 578 Q 771 618 804 627 Q 823 631 823 635 Q 823 650 778 677 Q 727 706 712 706 Z" fill="lightgray"></path>
    
      <path d="M 467 619 L 472 615 Q 488 602 492 581 L 492 427 Q 493 411 495 401 C 500 371 515 367 534 390 Q 535 390 537 392 Q 548 410 548 442 L 548 479 L 548 514 L 548 538 Q 548 549 555 582 Q 555 595 520 619 Q 514 623 506 627 C 480 641 444 638 467 619 Z" fill="lightgray"></path>
    
      <path d="M 548 479 Q 550 478 552 478 Q 575 478 708 499 Q 731 503 731 515 Q 731 523 706 534 Q 679 543 664 543 Q 662 543 647 537 Q 595 520 548 514 C 518 510 518 484 548 479 Z" fill="lightgray"></path>
    
      <path d="M 366 438 Q 395 483 404 491 Q 412 500 412 503 Q 412 515 378 543 Q 343 562 336 562 Q 324 562 324 551 Q 328 534 328 515 Q 328 478 288 414 Q 229 325 125 241 Q 95 219 95 215 Q 95 211 99 211 Q 126 211 204 265 Q 301 338 354 420 L 354 421 L 366 438 Z" fill="lightgray"></path>
    
      <path d="M 495 401 Q 460 410 421 423 Q 385 434 366 438 C 337 445 326 433 354 421 Q 378 411 430 388 Q 630 299 697 281 Q 725 274 739 274 Q 786 274 872 288 Q 972 302 972 314 Q 972 317 910 321 Q 796 331 716 347 Q 638 360 534 390 L 495 401 Z" fill="lightgray"></path>
    
      <path d="M 288 247 Q 275 247 275 238 Q 275 233 285 221 Q 301 203 309 170 Q 326 126 334 16 Q 337 -28 364 -30 Q 371 -30 374 -1 L 376 23 L 376 26 Q 376 55 369 103 L 366 124 Q 359 158 350 203 L 342 231 Q 336 239 324 243 Q 310 247 288 247 Z" fill="lightgray"></path>
    
      <path d="M 593 12 Q 592 7 592 3 Q 592 -9 603 -9 Q 629 -9 636 3 Q 678 156 711 189 Q 727 203 727 219 Q 727 238 694 262 Q 662 282 640 282 Q 631 282 610 275 Q 574 265 469 249 Q 384 235 342 231 C 312 228 320 200 350 203 Q 367 203 466 220 Q 562 234 603 234 Q 628 234 628 215 Q 625 187 621 162 L 615 124 Q 607 70 600 47 L 593 12 Z" fill="lightgray"></path>
    
      <path d="M 369 103 Q 384 98 399 98 Q 428 98 615 124 C 645 128 651 159 621 162 Q 616 163 611 163 Q 594 163 569 158 Q 450 134 366 124 C 336 120 340 111 369 103 Z" fill="lightgray"></path>
    
      <path d="M 374 -1 Q 381 -5 391 -5 Q 489 4 593 12 C 623 14 629 40 600 47 Q 591 50 575 50 Q 565 50 376 23 C 346 19 346 10 374 -1 Z" fill="lightgray"></path>
    
      <path d="M 739 -97 L 780 -98 Q 829 -102 852 -102 Q 882 -101 884 -85 Q 881 -70 853 -53 Q 825 -37 804 -37 Q 788 -37 763 -40 Q 719 -44 674 -47 Q 615 -52 362 -77 Q 227 -92 152 -97 Q 139 -100 139 -106 Q 140 -110 163 -125 Q 181 -137 196 -137 Q 208 -137 251 -130 Q 361 -116 499 -107 Q 631 -97 739 -97 Z" fill="lightgray"></path>
    
    
      <clipPath id="make-me-a-hanzi-clip-0">
        <path d="M 712 706 Q 702 706 670 698 Q 610 680 489 656 Q 361 633 263 631 Q 219 631 219 618 Q 219 613 237 601 Q 261 587 284 587 Q 302 587 467 619 L 506 627 Q 652 654 672 654 Q 695 654 695 647 Q 676 606 664 588 Q 659 581 659 578 Q 659 570 672 570 Q 677 570 690 578 Q 771 618 804 627 Q 823 631 823 635 Q 823 650 778 677 Q 727 706 712 706 Z"></path>
      </clipPath>
      <path clip-path="url(#make-me-a-hanzi-clip-0)" d="M 227 618 L 280 609 L 361 617 L 671 676 L 710 675 L 739 649 L 669 579" fill="none" id="make-me-a-hanzi-animation-0" stroke-dasharray="756 1512" stroke-linecap="round"></path>
    
      <clipPath id="make-me-a-hanzi-clip-1">
        <path d="M 467 619 L 472 615 Q 488 602 492 581 L 492 427 Q 493 411 495 401 C 500 371 515 367 534 390 Q 535 390 537 392 Q 548 410 548 442 L 548 479 L 548 514 L 548 538 Q 548 549 555 582 Q 555 595 520 619 Q 514 623 506 627 C 480 641 444 638 467 619 Z"></path>
      </clipPath>
      <path clip-path="url(#make-me-a-hanzi-clip-1)" d="M 480 614 L 506 604 L 522 582 L 519 423 L 530 400" fill="none" id="make-me-a-hanzi-animation-1" stroke-dasharray="368 736" stroke-linecap="round"></path>
    
      <clipPath id="make-me-a-hanzi-clip-2">
        <path d="M 548 479 Q 550 478 552 478 Q 575 478 708 499 Q 731 503 731 515 Q 731 523 706 534 Q 679 543 664 543 Q 662 543 647 537 Q 595 520 548 514 C 518 510 518 484 548 479 Z"></path>
      </clipPath>
      <path clip-path="url(#make-me-a-hanzi-clip-2)" d="M 552 485 L 569 498 L 667 517 L 721 514" fill="none" id="make-me-a-hanzi-animation-2" stroke-dasharray="303 606" stroke-linecap="round"></path>
    
      <clipPath id="make-me-a-hanzi-clip-3">
        <path d="M 366 438 Q 395 483 404 491 Q 412 500 412 503 Q 412 515 378 543 Q 343 562 336 562 Q 324 562 324 551 Q 328 534 328 515 Q 328 478 288 414 Q 229 325 125 241 Q 95 219 95 215 Q 95 211 99 211 Q 126 211 204 265 Q 301 338 354 420 L 354 421 L 366 438 Z"></path>
      </clipPath>
      <path clip-path="url(#make-me-a-hanzi-clip-3)" d="M 334 552 L 365 504 L 321 417 L 269 350 L 201 283 L 129 230 L 99 215" fill="none" id="make-me-a-hanzi-animation-3" stroke-dasharray="586 1172" stroke-linecap="round"></path>
    
      <clipPath id="make-me-a-hanzi-clip-4">
        <path d="M 495 401 Q 460 410 421 423 Q 385 434 366 438 C 337 445 326 433 354 421 Q 378 411 430 388 Q 630 299 697 281 Q 725 274 739 274 Q 786 274 872 288 Q 972 302 972 314 Q 972 317 910 321 Q 796 331 716 347 Q 638 360 534 390 L 495 401 Z"></path>
      </clipPath>
      <path clip-path="url(#make-me-a-hanzi-clip-4)" d="M 360 423 L 380 423 L 628 335 L 736 308 L 908 305 L 923 312 L 928 308 L 969 313" fill="none" id="make-me-a-hanzi-animation-4" stroke-dasharray="759 1518" stroke-linecap="round"></path>
    
      <clipPath id="make-me-a-hanzi-clip-5">
        <path d="M 288 247 Q 275 247 275 238 Q 275 233 285 221 Q 301 203 309 170 Q 326 126 334 16 Q 337 -28 364 -30 Q 371 -30 374 -1 L 376 23 L 376 26 Q 376 55 369 103 L 366 124 Q 359 158 350 203 L 342 231 Q 336 239 324 243 Q 310 247 288 247 Z"></path>
      </clipPath>
      <path clip-path="url(#make-me-a-hanzi-clip-5)" d="M 285 238 L 319 216 L 328 191 L 345 116 L 360 -21" fill="none" id="make-me-a-hanzi-animation-5" stroke-dasharray="410 820" stroke-linecap="round"></path>
    
      <clipPath id="make-me-a-hanzi-clip-6">
        <path d="M 593 12 Q 592 7 592 3 Q 592 -9 603 -9 Q 629 -9 636 3 Q 678 156 711 189 Q 727 203 727 219 Q 727 238 694 262 Q 662 282 640 282 Q 631 282 610 275 Q 574 265 469 249 Q 384 235 342 231 C 312 228 320 200 350 203 Q 367 203 466 220 Q 562 234 603 234 Q 628 234 628 215 Q 625 187 621 162 L 615 124 Q 607 70 600 47 L 593 12 Z"></path>
      </clipPath>
      <path clip-path="url(#make-me-a-hanzi-clip-6)" d="M 348 225 L 379 220 L 452 229 L 482 239 L 626 255 L 643 252 L 657 241 L 674 217 L 639 110 L 619 20 L 602 1" fill="none" id="make-me-a-hanzi-animation-6" stroke-dasharray="704 1408" stroke-linecap="round"></path>
    
      <clipPath id="make-me-a-hanzi-clip-7">
        <path d="M 369 103 Q 384 98 399 98 Q 428 98 615 124 C 645 128 651 159 621 162 Q 616 163 611 163 Q 594 163 569 158 Q 450 134 366 124 C 336 120 340 111 369 103 Z"></path>
      </clipPath>
      <path clip-path="url(#make-me-a-hanzi-clip-7)" d="M 373 120 L 381 112 L 393 112 L 491 124 L 594 141 L 615 156" fill="none" id="make-me-a-hanzi-animation-7" stroke-dasharray="380 760" stroke-linecap="round"></path>
    
      <clipPath id="make-me-a-hanzi-clip-8">
        <path d="M 374 -1 Q 381 -5 391 -5 Q 489 4 593 12 C 623 14 629 40 600 47 Q 591 50 575 50 Q 565 50 376 23 C 346 19 346 10 374 -1 Z"></path>
      </clipPath>
      <path clip-path="url(#make-me-a-hanzi-clip-8)" d="M 381 4 L 393 13 L 577 30 L 593 42" fill="none" id="make-me-a-hanzi-animation-8" stroke-dasharray="348 696" stroke-linecap="round"></path>
    
      <clipPath id="make-me-a-hanzi-clip-9">
        <path d="M 739 -97 L 780 -98 Q 829 -102 852 -102 Q 882 -101 884 -85 Q 881 -70 853 -53 Q 825 -37 804 -37 Q 788 -37 763 -40 Q 719 -44 674 -47 Q 615 -52 362 -77 Q 227 -92 152 -97 Q 139 -100 139 -106 Q 140 -110 163 -125 Q 181 -137 196 -137 Q 208 -137 251 -130 Q 361 -116 499 -107 Q 631 -97 739 -97 Z"></path>
      </clipPath>
      <path clip-path="url(#make-me-a-hanzi-clip-9)" d="M 147 -104 L 199 -115 L 446 -88 L 774 -68 L 813 -69 L 872 -85" fill="none" id="make-me-a-hanzi-animation-9" stroke-dasharray="858 1716" stroke-linecap="round"></path>
    
  </g>
</svg>