<svg xmlns="http://www.w3.org/2000/svg" version="1.1" viewBox="0 0 1024 1024">
  <g stroke="lightgray" stroke-dasharray="1,1" stroke-width="1" transform="scale(4, 4)">
    <line x1="0" y1="0" x2="256" y2="256" />
    <line x1="256" y1="0" x2="0" y2="256" />
    <line x1="128" y1="0" x2="128" y2="256" />
    <line x1="0" y1="128" x2="256" y2="128" />
  </g>
  <g transform="scale(1.0, -1.0) translate(0.0, -810.00)">
    <style type="text/css">
      
        @keyframes keyframes0 {
          from {
            stroke: blue;
            stroke-dashoffset: 399;
            stroke-width: 128;
          }
          56% {
            animation-timing-function: step-end;
            stroke: blue;
            stroke-dashoffset: 0;
            stroke-width: 128;
          }
          to {
            stroke: black;
            stroke-width: 1024;
          }
        }
        #make-me-a-hanzi-animation-0 {
          animation: keyframes0 0.57470703125s both;
          animation-delay: 0s;
          animation-timing-function: linear;
        }
      
        @keyframes keyframes1 {
          from {
            stroke: blue;
            stroke-dashoffset: 861;
            stroke-width: 128;
          }
          74% {
            animation-timing-function: step-end;
            stroke: blue;
            stroke-dashoffset: 0;
            stroke-width: 128;
          }
          to {
            stroke: black;
            stroke-width: 1024;
          }
        }
        #make-me-a-hanzi-animation-1 {
          animation: keyframes1 0.95068359375s both;
          animation-delay: 0.57470703125s;
          animation-timing-function: linear;
        }
      
        @keyframes keyframes2 {
          from {
            stroke: blue;
            stroke-dashoffset: 972;
            stroke-width: 128;
          }
          76% {
            animation-timing-function: step-end;
            stroke: blue;
            stroke-dashoffset: 0;
            stroke-width: 128;
          }
          to {
            stroke: black;
            stroke-width: 1024;
          }
        }
        #make-me-a-hanzi-animation-2 {
          animation: keyframes2 1.041015625s both;
          animation-delay: 1.525390625s;
          animation-timing-function: linear;
        }
      
        @keyframes keyframes3 {
          from {
            stroke: blue;
            stroke-dashoffset: 388;
            stroke-width: 128;
          }
          56% {
            animation-timing-function: step-end;
            stroke: blue;
            stroke-dashoffset: 0;
            stroke-width: 128;
          }
          to {
            stroke: black;
            stroke-width: 1024;
          }
        }
        #make-me-a-hanzi-animation-3 {
          animation: keyframes3 0.5657552083333334s both;
          animation-delay: 2.56640625s;
          animation-timing-function: linear;
        }
      
        @keyframes keyframes4 {
          from {
            stroke: blue;
            stroke-dashoffset: 487;
            stroke-width: 128;
          }
          61% {
            animation-timing-function: step-end;
            stroke: blue;
            stroke-dashoffset: 0;
            stroke-width: 128;
          }
          to {
            stroke: black;
            stroke-width: 1024;
          }
        }
        #make-me-a-hanzi-animation-4 {
          animation: keyframes4 0.6463216145833334s both;
          animation-delay: 3.1321614583333335s;
          animation-timing-function: linear;
        }
      
        @keyframes keyframes5 {
          from {
            stroke: blue;
            stroke-dashoffset: 620;
            stroke-width: 128;
          }
          67% {
            animation-timing-function: step-end;
            stroke: blue;
            stroke-dashoffset: 0;
            stroke-width: 128;
          }
          to {
            stroke: black;
            stroke-width: 1024;
          }
        }
        #make-me-a-hanzi-animation-5 {
          animation: keyframes5 0.7545572916666666s both;
          animation-delay: 3.778483072916667s;
          animation-timing-function: linear;
        }
      
        @keyframes keyframes6 {
          from {
            stroke: blue;
            stroke-dashoffset: 459;
            stroke-width: 128;
          }
          60% {
            animation-timing-function: step-end;
            stroke: blue;
            stroke-dashoffset: 0;
            stroke-width: 128;
          }
          to {
            stroke: black;
            stroke-width: 1024;
          }
        }
        #make-me-a-hanzi-animation-6 {
          animation: keyframes6 0.62353515625s both;
          animation-delay: 4.533040364583334s;
          animation-timing-function: linear;
        }
      
        @keyframes keyframes7 {
          from {
            stroke: blue;
            stroke-dashoffset: 321;
            stroke-width: 128;
          }
          51% {
            animation-timing-function: step-end;
            stroke: blue;
            stroke-dashoffset: 0;
            stroke-width: 128;
          }
          to {
            stroke: black;
            stroke-width: 1024;
          }
        }
        #make-me-a-hanzi-animation-7 {
          animation: keyframes7 0.51123046875s both;
          animation-delay: 5.156575520833334s;
          animation-timing-function: linear;
        }
      
        @keyframes keyframes8 {
          from {
            stroke: blue;
            stroke-dashoffset: 423;
            stroke-width: 128;
          }
          58% {
            animation-timing-function: step-end;
            stroke: blue;
            stroke-dashoffset: 0;
            stroke-width: 128;
          }
          to {
            stroke: black;
            stroke-width: 1024;
          }
        }
        #make-me-a-hanzi-animation-8 {
          animation: keyframes8 0.59423828125s both;
          animation-delay: 5.667805989583334s;
          animation-timing-function: linear;
        }
      
        @keyframes keyframes9 {
          from {
            stroke: blue;
            stroke-dashoffset: 362;
            stroke-width: 128;
          }
          54% {
            animation-timing-function: step-end;
            stroke: blue;
            stroke-dashoffset: 0;
            stroke-width: 128;
          }
          to {
            stroke: black;
            stroke-width: 1024;
          }
        }
        #make-me-a-hanzi-animation-9 {
          animation: keyframes9 0.5445963541666666s both;
          animation-delay: 6.262044270833334s;
          animation-timing-function: linear;
        }
      
        @keyframes keyframes10 {
          from {
            stroke: blue;
            stroke-dashoffset: 865;
            stroke-width: 128;
          }
          74% {
            animation-timing-function: step-end;
            stroke: blue;
            stroke-dashoffset: 0;
            stroke-width: 128;
          }
          to {
            stroke: black;
            stroke-width: 1024;
          }
        }
        #make-me-a-hanzi-animation-10 {
          animation: keyframes10 0.9539388020833334s both;
          animation-delay: 6.806640625000001s;
          animation-timing-function: linear;
        }
      
        @keyframes keyframes11 {
          from {
            stroke: blue;
            stroke-dashoffset: 750;
            stroke-width: 128;
          }
          71% {
            animation-timing-function: step-end;
            stroke: blue;
            stroke-dashoffset: 0;
            stroke-width: 128;
          }
          to {
            stroke: black;
            stroke-width: 1024;
          }
        }
        #make-me-a-hanzi-animation-11 {
          animation: keyframes11 0.8603515625s both;
          animation-delay: 7.760579427083334s;
          animation-timing-function: linear;
        }
      
        @keyframes keyframes12 {
          from {
            stroke: blue;
            stroke-dashoffset: 579;
            stroke-width: 128;
          }
          65% {
            animation-timing-function: step-end;
            stroke: blue;
            stroke-dashoffset: 0;
            stroke-width: 128;
          }
          to {
            stroke: black;
            stroke-width: 1024;
          }
        }
        #make-me-a-hanzi-animation-12 {
          animation: keyframes12 0.72119140625s both;
          animation-delay: 8.620930989583334s;
          animation-timing-function: linear;
        }
      
        @keyframes keyframes13 {
          from {
            stroke: blue;
            stroke-dashoffset: 519;
            stroke-width: 128;
          }
          63% {
            animation-timing-function: step-end;
            stroke: blue;
            stroke-dashoffset: 0;
            stroke-width: 128;
          }
          to {
            stroke: black;
            stroke-width: 1024;
          }
        }
        #make-me-a-hanzi-animation-13 {
          animation: keyframes13 0.67236328125s both;
          animation-delay: 9.342122395833334s;
          animation-timing-function: linear;
        }
      
        @keyframes keyframes14 {
          from {
            stroke: blue;
            stroke-dashoffset: 860;
            stroke-width: 128;
          }
          74% {
            animation-timing-function: step-end;
            stroke: blue;
            stroke-dashoffset: 0;
            stroke-width: 128;
          }
          to {
            stroke: black;
            stroke-width: 1024;
          }
        }
        #make-me-a-hanzi-animation-14 {
          animation: keyframes14 0.9498697916666666s both;
          animation-delay: 10.014485677083334s;
          animation-timing-function: linear;
        }
      
    </style>
    
      <path d="M 597 602 L 605 615 Q 606 618 610 628 Q 614 638 615 652 Q 615 669 609 678 Q 604 686 589 696 Q 575 705 558 712 Q 542 720 523 724 Q 517 726 513 726 Q 509 726 507 724 Q 506 723 506 720 Q 506 717 507 713 Q 509 705 516 693 Q 523 681 533 662 Q 543 642 547 635 L 557 618 L 569 598 C 582 577 582 577 597 602 Z" fill="lightgray" />
    
      <path d="M 369 531 L 397 535 L 477 547 Q 512 552 572 559 Q 631 566 670 569 Q 708 572 764 576 L 819 578 Q 845 580 853 580 Q 861 580 865 584 Q 869 588 870 592 Q 870 597 860 606 Q 849 616 839 622 Q 828 628 816 632 Q 807 634 797 634 L 791 634 Q 782 634 765 630 Q 748 627 690 618 L 623 606 Q 615 604 597 602 L 569 598 L 547 595 L 475 586 L 417 578 L 347 570 Q 313 566 311 566 L 267 561 Q 257 560 256 555 Q 255 554 255 552 Q 255 549 259 546 Q 264 540 269 538 Q 273 536 287 532 L 369 531 Z" fill="lightgray" />
    
      <path d="M 287 532 L 292 518 Q 295 511 296 495 L 296 483 Q 296 468 295 443 Q 293 406 290 375 Q 287 343 277 291 Q 267 238 254 195 Q 241 151 221 103 Q 201 54 181 18 Q 161 -18 141 -44 L 108 -88 L 99 -101 Q 95 -106 95 -110 L 95 -112 Q 96 -113 98 -113 Q 101 -113 107 -109 L 121 -100 Q 146 -84 171 -60 Q 197 -36 226 8 Q 255 52 274 96 Q 293 140 306 189 Q 320 238 333 298 Q 345 358 351 407 Q 357 456 360 468 Q 363 480 366 488 Q 369 497 374 504 Q 379 512 379 516 L 379 517 Q 379 521 369 531 C 356 558 277 560 287 532 Z" fill="lightgray" />
    
      <path d="M 113 432 L 127 409 L 150 378 Q 163 360 173 352 Q 187 339 200 339 L 202 339 Q 217 340 227 355 Q 233 364 233 376 Q 233 384 231 392 Q 225 414 211 425 Q 197 436 175 446 Q 153 456 139 459 L 115 462 Q 112 463 109 463 Q 104 463 103 460 Q 101 459 101 457 Q 101 454 105 448 L 113 432 Z" fill="lightgray" />
    
      <path d="M 239 275 Q 245 282 245 286 Q 245 289 243 290 Q 241 291 239 291 Q 234 291 227 286 L 209 275 Q 204 271 180 256 Q 157 242 147 237 L 115 220 Q 91 208 81 205 Q 71 202 59 202 Q 46 201 43 198 Q 40 195 39 190 Q 39 184 53 168 L 71 147 Q 79 137 87 134 Q 93 131 96 131 L 97 131 Q 102 131 108 137 L 127 157 Q 139 171 164 196 L 209 242 Q 221 255 227 261 L 239 275 Z" fill="lightgray" />
    
      <path d="M 603 398 L 649 405 L 703 413 L 744 422 Q 767 426 776 428 Q 785 431 787 435 L 787 437 Q 787 440 784 444 Q 781 450 771 455 Q 761 460 751 463 Q 741 466 731 466 Q 724 466 710 462 Q 697 458 677 454 Q 657 450 611 440 L 557 432 L 535 429 L 502 424 L 461 420 Q 435 418 424 417 Q 413 417 412 415 Q 410 413 410 411 Q 410 406 418 400 Q 429 392 444 389 Q 459 387 475 387 L 482 387 Q 490 387 506 388 Q 530 390 551 391 L 603 398 Z" fill="lightgray" />
    
      <path d="M 424 266 L 433 281 Q 443 296 452 305 Q 461 314 463 317 Q 466 322 466 326 Q 466 329 465 331 Q 463 338 447 345 L 429 352 Q 422 355 417 355 Q 415 355 414 354 Q 409 352 408 348 Q 407 344 407 338 Q 407 332 406 324 Q 405 316 401 306 Q 397 294 392 285 L 375 254 L 357 226 Q 348 210 342 203 L 328 186 Q 324 181 324 178 Q 324 176 326 174 Q 328 173 331 173 Q 335 173 339 176 L 355 189 Q 363 196 378 212 Q 393 230 399 235 L 413 249 L 424 266 Z" fill="lightgray" />
    
      <path d="M 487 223 L 481 242 Q 481 248 469 253 Q 457 258 446 260 Q 435 262 424 266 C 396 276 395 273 413 249 L 425 233 Q 433 222 443 213 Q 453 204 460 203 Q 468 202 473 201 C 495 197 495 197 487 223 Z" fill="lightgray" />
    
      <path d="M 707 251 L 721 259 Q 725 260 739 273 Q 753 285 757 291 Q 763 296 767 302 L 777 317 L 788 330 Q 788 331 797 340 L 811 354 Q 815 358 816 360 L 816 361 Q 816 365 812 372 Q 807 380 794 390 Q 782 399 773 401 Q 769 402 765 402 Q 761 402 759 400 Q 758 399 758 393 L 758 383 Q 758 372 752 359 Q 746 344 738 328 L 721 299 Q 712 286 693 264 C 673 241 681 236 707 251 Z" fill="lightgray" />
    
      <path d="M 767 302 L 785 285 Q 785 284 807 264 Q 828 244 842 235 Q 853 228 862 228 Q 865 228 867 229 Q 878 232 883 242 Q 885 246 885 252 Q 885 259 882 267 Q 876 281 866 290 Q 855 298 839 304 L 810 311 Q 797 314 777 317 C 747 322 746 322 767 302 Z" fill="lightgray" />
    
      <path d="M 596 371 L 603 398 L 611 440 L 616 458 Q 618 466 625 477 Q 632 488 633 491 Q 634 494 634 497 Q 634 502 631 507 Q 626 514 613 522 Q 600 530 587 534 Q 573 537 565 537 Q 557 536 553 534 Q 550 532 549 529 Q 549 526 552 518 Q 555 510 557 496 Q 559 484 561 476 L 561 453 Q 559 444 557 432 L 551 391 L 543 359 Q 539 340 529 310 Q 518 279 508 260 Q 498 241 487 223 L 473 201 L 456 178 Q 440 158 416 135 Q 391 112 373 99 L 333 72 L 314 60 Q 302 52 302 48 L 302 46 Q 304 44 308 44 Q 311 44 315 45 L 342 52 Q 359 56 392 72 Q 425 88 451 110 Q 477 132 502 165 Q 527 197 542 225 Q 557 252 567 277 Q 575 302 579 313 Q 582 324 588 342 L 596 371 Z" fill="lightgray" />
    
      <path d="M 693 264 L 671 285 Q 661 295 639 322 L 605 361 Q 602 364 596 371 C 576 393 571 366 588 342 L 605 318 Q 611 310 632 280 L 673 221 Q 692 192 702 180 L 733 142 Q 755 114 766 104 Q 777 94 789 89 Q 801 84 830 82 Q 845 81 858 81 Q 872 81 885 82 L 969 86 Q 983 87 984 93 L 984 94 Q 984 99 968 106 L 907 130 Q 867 144 839 158 Q 813 172 780 194 Q 747 217 733 228 L 707 251 L 693 264 Z" fill="lightgray" />
    
      <path d="M 611 36 L 635 39 Q 652 40 664 42 Q 676 44 690 47 L 729 54 Q 747 58 753 60 Q 759 63 759 68 Q 759 72 749 79 Q 738 85 725 90 Q 711 96 703 96 Q 697 96 682 92 Q 667 88 654 85 Q 641 82 613 78 L 559 66 L 535 64 L 495 60 Q 471 57 465 57 L 447 56 Q 427 54 425 50 L 425 47 Q 425 42 431 36 Q 440 28 457 26 Q 468 25 475 25 L 481 25 Q 483 25 497 26 Q 511 27 557 31 L 611 36 Z" fill="lightgray" />
    
      <path d="M 557 31 L 559 -64 C 560 -94 601 -90 603 -60 L 611 36 L 613 78 L 615 116 Q 615 128 621 142 Q 628 156 629 157 Q 630 160 630 162 Q 630 167 627 170 Q 625 176 611 182 Q 597 189 593 190 L 567 194 Q 560 195 555 195 Q 551 195 548 194 Q 543 190 542 186 Q 542 182 545 176 Q 549 170 551 161 Q 554 152 557 140 Q 559 128 559 118 L 559 66 L 557 31 Z" fill="lightgray" />
    
      <path d="M 559 -64 L 524 -66 L 470 -72 L 403 -77 Q 363 -80 349 -82 L 321 -84 Q 309 -86 307 -90 L 307 -92 Q 307 -96 312 -102 Q 319 -109 337 -117 Q 356 -125 365 -128 Q 373 -130 382 -130 L 389 -130 Q 397 -130 417 -124 Q 437 -120 463 -114 Q 489 -110 522 -106 Q 555 -102 607 -98 Q 660 -94 702 -92 L 734 -92 Q 764 -92 791 -93 Q 831 -95 835 -95 L 886 -95 Q 905 -95 913 -92 Q 921 -90 923 -84 L 923 -83 Q 923 -79 915 -71 Q 905 -62 894 -54 Q 883 -48 865 -41 Q 847 -34 831 -33 Q 819 -33 795 -38 Q 771 -42 750 -46 Q 729 -48 699 -52 Q 671 -55 651 -56 Q 633 -58 603 -60 L 559 -64 Z" fill="lightgray" />
    
    
      <clipPath id="make-me-a-hanzi-clip-0">
        <path d="M 597 602 L 605 615 Q 606 618 610 628 Q 614 638 615 652 Q 615 669 609 678 Q 604 686 589 696 Q 575 705 558 712 Q 542 720 523 724 Q 517 726 513 726 Q 509 726 507 724 Q 506 723 506 720 Q 506 717 507 713 Q 509 705 516 693 Q 523 681 533 662 Q 543 642 547 635 L 557 618 L 569 598 C 582 577 582 577 597 602 Z" />
      </clipPath>
      <path clip-path="url(#make-me-a-hanzi-clip-0)" d="M 511 721 L 578 656 L 582 626 L 575 608" fill="none" id="make-me-a-hanzi-animation-0" stroke-dasharray="271 542" stroke-linecap="round" />
    
      <clipPath id="make-me-a-hanzi-clip-1">
        <path d="M 369 531 L 397 535 L 477 547 Q 512 552 572 559 Q 631 566 670 569 Q 708 572 764 576 L 819 578 Q 845 580 853 580 Q 861 580 865 584 Q 869 588 870 592 Q 870 597 860 606 Q 849 616 839 622 Q 828 628 816 632 Q 807 634 797 634 L 791 634 Q 782 634 765 630 Q 748 627 690 618 L 623 606 Q 615 604 597 602 L 569 598 L 547 595 L 475 586 L 417 578 L 347 570 Q 313 566 311 566 L 267 561 Q 257 560 256 555 Q 255 554 255 552 Q 255 549 259 546 Q 264 540 269 538 Q 273 536 287 532 L 369 531 Z" />
      </clipPath>
      <path clip-path="url(#make-me-a-hanzi-clip-1)" d="M 261 552 L 362 551 L 778 605 L 812 605 L 861 592" fill="none" id="make-me-a-hanzi-animation-1" stroke-dasharray="733 1466" stroke-linecap="round" />
    
      <clipPath id="make-me-a-hanzi-clip-2">
        <path d="M 287 532 L 292 518 Q 295 511 296 495 L 296 483 Q 296 468 295 443 Q 293 406 290 375 Q 287 343 277 291 Q 267 238 254 195 Q 241 151 221 103 Q 201 54 181 18 Q 161 -18 141 -44 L 108 -88 L 99 -101 Q 95 -106 95 -110 L 95 -112 Q 96 -113 98 -113 Q 101 -113 107 -109 L 121 -100 Q 146 -84 171 -60 Q 197 -36 226 8 Q 255 52 274 96 Q 293 140 306 189 Q 320 238 333 298 Q 345 358 351 407 Q 357 456 360 468 Q 363 480 366 488 Q 369 497 374 504 Q 379 512 379 516 L 379 517 Q 379 521 369 531 C 356 558 277 560 287 532 Z" />
      </clipPath>
      <path clip-path="url(#make-me-a-hanzi-clip-2)" d="M 294 527 L 331 495 L 311 326 L 272 162 L 237 76 L 195 0 L 164 -44 L 97 -111" fill="none" id="make-me-a-hanzi-animation-2" stroke-dasharray="844 1688" stroke-linecap="round" />
    
      <clipPath id="make-me-a-hanzi-clip-3">
        <path d="M 113 432 L 127 409 L 150 378 Q 163 360 173 352 Q 187 339 200 339 L 202 339 Q 217 340 227 355 Q 233 364 233 376 Q 233 384 231 392 Q 225 414 211 425 Q 197 436 175 446 Q 153 456 139 459 L 115 462 Q 112 463 109 463 Q 104 463 103 460 Q 101 459 101 457 Q 101 454 105 448 L 113 432 Z" />
      </clipPath>
      <path clip-path="url(#make-me-a-hanzi-clip-3)" d="M 108 455 L 185 396 L 201 365" fill="none" id="make-me-a-hanzi-animation-3" stroke-dasharray="260 520" stroke-linecap="round" />
    
      <clipPath id="make-me-a-hanzi-clip-4">
        <path d="M 239 275 Q 245 282 245 286 Q 245 289 243 290 Q 241 291 239 291 Q 234 291 227 286 L 209 275 Q 204 271 180 256 Q 157 242 147 237 L 115 220 Q 91 208 81 205 Q 71 202 59 202 Q 46 201 43 198 Q 40 195 39 190 Q 39 184 53 168 L 71 147 Q 79 137 87 134 Q 93 131 96 131 L 97 131 Q 102 131 108 137 L 127 157 Q 139 171 164 196 L 209 242 Q 221 255 227 261 L 239 275 Z" />
      </clipPath>
      <path clip-path="url(#make-me-a-hanzi-clip-4)" d="M 50 190 L 97 174 L 240 286" fill="none" id="make-me-a-hanzi-animation-4" stroke-dasharray="359 718" stroke-linecap="round" />
    
      <clipPath id="make-me-a-hanzi-clip-5">
        <path d="M 603 398 L 649 405 L 703 413 L 744 422 Q 767 426 776 428 Q 785 431 787 435 L 787 437 Q 787 440 784 444 Q 781 450 771 455 Q 761 460 751 463 Q 741 466 731 466 Q 724 466 710 462 Q 697 458 677 454 Q 657 450 611 440 L 557 432 L 535 429 L 502 424 L 461 420 Q 435 418 424 417 Q 413 417 412 415 Q 410 413 410 411 Q 410 406 418 400 Q 429 392 444 389 Q 459 387 475 387 L 482 387 Q 490 387 506 388 Q 530 390 551 391 L 603 398 Z" />
      </clipPath>
      <path clip-path="url(#make-me-a-hanzi-clip-5)" d="M 419 409 L 468 403 L 528 408 L 741 444 L 779 436" fill="none" id="make-me-a-hanzi-animation-5" stroke-dasharray="492 984" stroke-linecap="round" />
    
      <clipPath id="make-me-a-hanzi-clip-6">
        <path d="M 424 266 L 433 281 Q 443 296 452 305 Q 461 314 463 317 Q 466 322 466 326 Q 466 329 465 331 Q 463 338 447 345 L 429 352 Q 422 355 417 355 Q 415 355 414 354 Q 409 352 408 348 Q 407 344 407 338 Q 407 332 406 324 Q 405 316 401 306 Q 397 294 392 285 L 375 254 L 357 226 Q 348 210 342 203 L 328 186 Q 324 181 324 178 Q 324 176 326 174 Q 328 173 331 173 Q 335 173 339 176 L 355 189 Q 363 196 378 212 Q 393 230 399 235 L 413 249 L 424 266 Z" />
      </clipPath>
      <path clip-path="url(#make-me-a-hanzi-clip-6)" d="M 420 343 L 432 323 L 422 299 L 376 227 L 329 178" fill="none" id="make-me-a-hanzi-animation-6" stroke-dasharray="331 662" stroke-linecap="round" />
    
      <clipPath id="make-me-a-hanzi-clip-7">
        <path d="M 487 223 L 481 242 Q 481 248 469 253 Q 457 258 446 260 Q 435 262 424 266 C 396 276 395 273 413 249 L 425 233 Q 433 222 443 213 Q 453 204 460 203 Q 468 202 473 201 C 495 197 495 197 487 223 Z" />
      </clipPath>
      <path clip-path="url(#make-me-a-hanzi-clip-7)" d="M 427 258 L 430 250 L 460 231 L 468 212" fill="none" id="make-me-a-hanzi-animation-7" stroke-dasharray="193 386" stroke-linecap="round" />
    
      <clipPath id="make-me-a-hanzi-clip-8">
        <path d="M 707 251 L 721 259 Q 725 260 739 273 Q 753 285 757 291 Q 763 296 767 302 L 777 317 L 788 330 Q 788 331 797 340 L 811 354 Q 815 358 816 360 L 816 361 Q 816 365 812 372 Q 807 380 794 390 Q 782 399 773 401 Q 769 402 765 402 Q 761 402 759 400 Q 758 399 758 393 L 758 383 Q 758 372 752 359 Q 746 344 738 328 L 721 299 Q 712 286 693 264 C 673 241 681 236 707 251 Z" />
      </clipPath>
      <path clip-path="url(#make-me-a-hanzi-clip-8)" d="M 764 396 L 782 362 L 749 308 L 707 258" fill="none" id="make-me-a-hanzi-animation-8" stroke-dasharray="295 590" stroke-linecap="round" />
    
      <clipPath id="make-me-a-hanzi-clip-9">
        <path d="M 767 302 L 785 285 Q 785 284 807 264 Q 828 244 842 235 Q 853 228 862 228 Q 865 228 867 229 Q 878 232 883 242 Q 885 246 885 252 Q 885 259 882 267 Q 876 281 866 290 Q 855 298 839 304 L 810 311 Q 797 314 777 317 C 747 322 746 322 767 302 Z" />
      </clipPath>
      <path clip-path="url(#make-me-a-hanzi-clip-9)" d="M 775 302 L 783 304 L 826 282 L 849 266 L 861 248" fill="none" id="make-me-a-hanzi-animation-9" stroke-dasharray="234 468" stroke-linecap="round" />
    
      <clipPath id="make-me-a-hanzi-clip-10">
        <path d="M 596 371 L 603 398 L 611 440 L 616 458 Q 618 466 625 477 Q 632 488 633 491 Q 634 494 634 497 Q 634 502 631 507 Q 626 514 613 522 Q 600 530 587 534 Q 573 537 565 537 Q 557 536 553 534 Q 550 532 549 529 Q 549 526 552 518 Q 555 510 557 496 Q 559 484 561 476 L 561 453 Q 559 444 557 432 L 551 391 L 543 359 Q 539 340 529 310 Q 518 279 508 260 Q 498 241 487 223 L 473 201 L 456 178 Q 440 158 416 135 Q 391 112 373 99 L 333 72 L 314 60 Q 302 52 302 48 L 302 46 Q 304 44 308 44 Q 311 44 315 45 L 342 52 Q 359 56 392 72 Q 425 88 451 110 Q 477 132 502 165 Q 527 197 542 225 Q 557 252 567 277 Q 575 302 579 313 Q 582 324 588 342 L 596 371 Z" />
      </clipPath>
      <path clip-path="url(#make-me-a-hanzi-clip-10)" d="M 558 526 L 577 514 L 593 488 L 564 341 L 532 255 L 506 208 L 452 139 L 377 82 L 306 47" fill="none" id="make-me-a-hanzi-animation-10" stroke-dasharray="737 1474" stroke-linecap="round" />
    
      <clipPath id="make-me-a-hanzi-clip-11">
        <path d="M 693 264 L 671 285 Q 661 295 639 322 L 605 361 Q 602 364 596 371 C 576 393 571 366 588 342 L 605 318 Q 611 310 632 280 L 673 221 Q 692 192 702 180 L 733 142 Q 755 114 766 104 Q 777 94 789 89 Q 801 84 830 82 Q 845 81 858 81 Q 872 81 885 82 L 969 86 Q 983 87 984 93 L 984 94 Q 984 99 968 106 L 907 130 Q 867 144 839 158 Q 813 172 780 194 Q 747 217 733 228 L 707 251 L 693 264 Z" />
      </clipPath>
      <path clip-path="url(#make-me-a-hanzi-clip-11)" d="M 597 363 L 602 343 L 697 227 L 797 133 L 864 112 L 979 94" fill="none" id="make-me-a-hanzi-animation-11" stroke-dasharray="622 1244" stroke-linecap="round" />
    
      <clipPath id="make-me-a-hanzi-clip-12">
        <path d="M 611 36 L 635 39 Q 652 40 664 42 Q 676 44 690 47 L 729 54 Q 747 58 753 60 Q 759 63 759 68 Q 759 72 749 79 Q 738 85 725 90 Q 711 96 703 96 Q 697 96 682 92 Q 667 88 654 85 Q 641 82 613 78 L 559 66 L 535 64 L 495 60 Q 471 57 465 57 L 447 56 Q 427 54 425 50 L 425 47 Q 425 42 431 36 Q 440 28 457 26 Q 468 25 475 25 L 481 25 Q 483 25 497 26 Q 511 27 557 31 L 611 36 Z" />
      </clipPath>
      <path clip-path="url(#make-me-a-hanzi-clip-12)" d="M 430 49 L 452 41 L 478 41 L 562 48 L 702 73 L 749 69" fill="none" id="make-me-a-hanzi-animation-12" stroke-dasharray="451 902" stroke-linecap="round" />
    
      <clipPath id="make-me-a-hanzi-clip-13">
        <path d="M 557 31 L 559 -64 C 560 -94 601 -90 603 -60 L 611 36 L 613 78 L 615 116 Q 615 128 621 142 Q 628 156 629 157 Q 630 160 630 162 Q 630 167 627 170 Q 625 176 611 182 Q 597 189 593 190 L 567 194 Q 560 195 555 195 Q 551 195 548 194 Q 543 190 542 186 Q 542 182 545 176 Q 549 170 551 161 Q 554 152 557 140 Q 559 128 559 118 L 559 66 L 557 31 Z" />
      </clipPath>
      <path clip-path="url(#make-me-a-hanzi-clip-13)" d="M 553 184 L 589 154 L 582 -38 L 566 -56" fill="none" id="make-me-a-hanzi-animation-13" stroke-dasharray="391 782" stroke-linecap="round" />
    
      <clipPath id="make-me-a-hanzi-clip-14">
        <path d="M 559 -64 L 524 -66 L 470 -72 L 403 -77 Q 363 -80 349 -82 L 321 -84 Q 309 -86 307 -90 L 307 -92 Q 307 -96 312 -102 Q 319 -109 337 -117 Q 356 -125 365 -128 Q 373 -130 382 -130 L 389 -130 Q 397 -130 417 -124 Q 437 -120 463 -114 Q 489 -110 522 -106 Q 555 -102 607 -98 Q 660 -94 702 -92 L 734 -92 Q 764 -92 791 -93 Q 831 -95 835 -95 L 886 -95 Q 905 -95 913 -92 Q 921 -90 923 -84 L 923 -83 Q 923 -79 915 -71 Q 905 -62 894 -54 Q 883 -48 865 -41 Q 847 -34 831 -33 Q 819 -33 795 -38 Q 771 -42 750 -46 Q 729 -48 699 -52 Q 671 -55 651 -56 Q 633 -58 603 -60 L 559 -64 Z" />
      </clipPath>
      <path clip-path="url(#make-me-a-hanzi-clip-14)" d="M 316 -91 L 352 -103 L 391 -104 L 506 -87 L 820 -64 L 878 -71 L 914 -83" fill="none" id="make-me-a-hanzi-animation-14" stroke-dasharray="732 1464" stroke-linecap="round" />
    
  </g>
</svg>