<svg xmlns="http://www.w3.org/2000/svg" version="1.1" viewBox="0 0 1024 1024">
  <g stroke="lightgray" stroke-dasharray="1,1" stroke-width="1" transform="scale(4, 4)">
    <line x1="0" y1="0" x2="256" y2="256" />
    <line x1="256" y1="0" x2="0" y2="256" />
    <line x1="128" y1="0" x2="128" y2="256" />
    <line x1="0" y1="128" x2="256" y2="128" />
  </g>
  <g transform="scale(1.0, -1.0) translate(0.0, -814.50)">
    <style type="text/css">
      
        @keyframes keyframes0 {
          from {
            stroke: blue;
            stroke-dashoffset: 395;
            stroke-width: 128;
          }
          56% {
            animation-timing-function: step-end;
            stroke: blue;
            stroke-dashoffset: 0;
            stroke-width: 128;
          }
          to {
            stroke: black;
            stroke-width: 1024;
          }
        }
        #make-me-a-hanzi-animation-0 {
          animation: keyframes0 0.5714518229166666s both;
          animation-delay: 0s;
          animation-timing-function: linear;
        }
      
        @keyframes keyframes1 {
          from {
            stroke: blue;
            stroke-dashoffset: 862;
            stroke-width: 128;
          }
          74% {
            animation-timing-function: step-end;
            stroke: blue;
            stroke-dashoffset: 0;
            stroke-width: 128;
          }
          to {
            stroke: black;
            stroke-width: 1024;
          }
        }
        #make-me-a-hanzi-animation-1 {
          animation: keyframes1 0.9514973958333334s both;
          animation-delay: 0.5714518229166666s;
          animation-timing-function: linear;
        }
      
        @keyframes keyframes2 {
          from {
            stroke: blue;
            stroke-dashoffset: 952;
            stroke-width: 128;
          }
          76% {
            animation-timing-function: step-end;
            stroke: blue;
            stroke-dashoffset: 0;
            stroke-width: 128;
          }
          to {
            stroke: black;
            stroke-width: 1024;
          }
        }
        #make-me-a-hanzi-animation-2 {
          animation: keyframes2 1.0247395833333333s both;
          animation-delay: 1.52294921875s;
          animation-timing-function: linear;
        }
      
        @keyframes keyframes3 {
          from {
            stroke: blue;
            stroke-dashoffset: 383;
            stroke-width: 128;
          }
          55% {
            animation-timing-function: step-end;
            stroke: blue;
            stroke-dashoffset: 0;
            stroke-width: 128;
          }
          to {
            stroke: black;
            stroke-width: 1024;
          }
        }
        #make-me-a-hanzi-animation-3 {
          animation: keyframes3 0.5616861979166666s both;
          animation-delay: 2.547688802083333s;
          animation-timing-function: linear;
        }
      
        @keyframes keyframes4 {
          from {
            stroke: blue;
            stroke-dashoffset: 489;
            stroke-width: 128;
          }
          61% {
            animation-timing-function: step-end;
            stroke: blue;
            stroke-dashoffset: 0;
            stroke-width: 128;
          }
          to {
            stroke: black;
            stroke-width: 1024;
          }
        }
        #make-me-a-hanzi-animation-4 {
          animation: keyframes4 0.64794921875s both;
          animation-delay: 3.1093749999999996s;
          animation-timing-function: linear;
        }
      
        @keyframes keyframes5 {
          from {
            stroke: blue;
            stroke-dashoffset: 435;
            stroke-width: 128;
          }
          59% {
            animation-timing-function: step-end;
            stroke: blue;
            stroke-dashoffset: 0;
            stroke-width: 128;
          }
          to {
            stroke: black;
            stroke-width: 1024;
          }
        }
        #make-me-a-hanzi-animation-5 {
          animation: keyframes5 0.60400390625s both;
          animation-delay: 3.7573242187499996s;
          animation-timing-function: linear;
        }
      
        @keyframes keyframes6 {
          from {
            stroke: blue;
            stroke-dashoffset: 782;
            stroke-width: 128;
          }
          72% {
            animation-timing-function: step-end;
            stroke: blue;
            stroke-dashoffset: 0;
            stroke-width: 128;
          }
          to {
            stroke: black;
            stroke-width: 1024;
          }
        }
        #make-me-a-hanzi-animation-6 {
          animation: keyframes6 0.8863932291666666s both;
          animation-delay: 4.361328125s;
          animation-timing-function: linear;
        }
      
        @keyframes keyframes7 {
          from {
            stroke: blue;
            stroke-dashoffset: 927;
            stroke-width: 128;
          }
          75% {
            animation-timing-function: step-end;
            stroke: blue;
            stroke-dashoffset: 0;
            stroke-width: 128;
          }
          to {
            stroke: black;
            stroke-width: 1024;
          }
        }
        #make-me-a-hanzi-animation-7 {
          animation: keyframes7 1.00439453125s both;
          animation-delay: 5.247721354166667s;
          animation-timing-function: linear;
        }
      
        @keyframes keyframes8 {
          from {
            stroke: blue;
            stroke-dashoffset: 334;
            stroke-width: 128;
          }
          52% {
            animation-timing-function: step-end;
            stroke: blue;
            stroke-dashoffset: 0;
            stroke-width: 128;
          }
          to {
            stroke: black;
            stroke-width: 1024;
          }
        }
        #make-me-a-hanzi-animation-8 {
          animation: keyframes8 0.5218098958333334s both;
          animation-delay: 6.252115885416667s;
          animation-timing-function: linear;
        }
      
        @keyframes keyframes9 {
          from {
            stroke: blue;
            stroke-dashoffset: 335;
            stroke-width: 128;
          }
          52% {
            animation-timing-function: step-end;
            stroke: blue;
            stroke-dashoffset: 0;
            stroke-width: 128;
          }
          to {
            stroke: black;
            stroke-width: 1024;
          }
        }
        #make-me-a-hanzi-animation-9 {
          animation: keyframes9 0.5226236979166666s both;
          animation-delay: 6.77392578125s;
          animation-timing-function: linear;
        }
      
        @keyframes keyframes10 {
          from {
            stroke: blue;
            stroke-dashoffset: 575;
            stroke-width: 128;
          }
          65% {
            animation-timing-function: step-end;
            stroke: blue;
            stroke-dashoffset: 0;
            stroke-width: 128;
          }
          to {
            stroke: black;
            stroke-width: 1024;
          }
        }
        #make-me-a-hanzi-animation-10 {
          animation: keyframes10 0.7179361979166666s both;
          animation-delay: 7.296549479166667s;
          animation-timing-function: linear;
        }
      
        @keyframes keyframes11 {
          from {
            stroke: blue;
            stroke-dashoffset: 522;
            stroke-width: 128;
          }
          63% {
            animation-timing-function: step-end;
            stroke: blue;
            stroke-dashoffset: 0;
            stroke-width: 128;
          }
          to {
            stroke: black;
            stroke-width: 1024;
          }
        }
        #make-me-a-hanzi-animation-11 {
          animation: keyframes11 0.6748046875s both;
          animation-delay: 8.014485677083334s;
          animation-timing-function: linear;
        }
      
        @keyframes keyframes12 {
          from {
            stroke: blue;
            stroke-dashoffset: 685;
            stroke-width: 128;
          }
          69% {
            animation-timing-function: step-end;
            stroke: blue;
            stroke-dashoffset: 0;
            stroke-width: 128;
          }
          to {
            stroke: black;
            stroke-width: 1024;
          }
        }
        #make-me-a-hanzi-animation-12 {
          animation: keyframes12 0.8074544270833334s both;
          animation-delay: 8.689290364583334s;
          animation-timing-function: linear;
        }
      
        @keyframes keyframes13 {
          from {
            stroke: blue;
            stroke-dashoffset: 820;
            stroke-width: 128;
          }
          73% {
            animation-timing-function: step-end;
            stroke: blue;
            stroke-dashoffset: 0;
            stroke-width: 128;
          }
          to {
            stroke: black;
            stroke-width: 1024;
          }
        }
        #make-me-a-hanzi-animation-13 {
          animation: keyframes13 0.9173177083333334s both;
          animation-delay: 9.496744791666668s;
          animation-timing-function: linear;
        }
      
        @keyframes keyframes14 {
          from {
            stroke: blue;
            stroke-dashoffset: 710;
            stroke-width: 128;
          }
          70% {
            animation-timing-function: step-end;
            stroke: blue;
            stroke-dashoffset: 0;
            stroke-width: 128;
          }
          to {
            stroke: black;
            stroke-width: 1024;
          }
        }
        #make-me-a-hanzi-animation-14 {
          animation: keyframes14 0.8277994791666666s both;
          animation-delay: 10.414062500000002s;
          animation-timing-function: linear;
        }
      
    </style>
    
      <path d="M 611 608 L 617 619 Q 622 628 623 648 Q 623 665 618 674 Q 612 682 596 692 Q 580 702 564 709 Q 548 716 528 721 Q 522 723 518 723 Q 514 723 512 721 Q 511 720 511 717 Q 511 714 512 709 Q 514 701 521 690 Q 528 679 537 660 L 552 630 L 570 601 C 586 576 597 582 611 608 Z" fill="lightgray" />
    
      <path d="M 355 532 L 391 537 L 472 549 Q 521 556 570 562 Q 620 568 652 570 Q 684 572 758 578 L 813 581 Q 823 582 839 582 Q 854 582 859 586 Q 863 590 864 594 Q 864 599 853 608 Q 843 618 832 624 Q 822 630 810 634 Q 801 636 791 636 L 784 636 Q 776 636 758 632 Q 741 628 706 623 Q 670 618 654 615 Q 637 612 611 608 L 570 601 L 560 600 Q 556 599 514 594 Q 473 588 444 585 Q 414 582 386 578 Q 358 574 352 574 L 305 568 L 260 562 Q 251 561 249 557 L 249 555 Q 249 551 252 548 Q 258 542 262 540 Q 266 538 275 536 L 355 532 Z" fill="lightgray" />
    
      <path d="M 293 186 L 298 205 Q 305 228 318 301 Q 332 375 337 418 Q 343 460 345 469 Q 347 478 349 485 Q 352 492 355 498 Q 358 504 361 509 Q 364 515 365 519 Q 365 522 355 532 C 342 559 269 565 275 536 L 278 522 Q 280 517 280 500 L 280 446 Q 279 420 275 378 Q 270 336 264 296 Q 256 256 242 202 Q 228 146 214 108 Q 200 68 181 31 L 145 -37 Q 127 -68 117 -82 L 108 -95 Q 105 -100 105 -103 Q 105 -104 106 -105 Q 107 -106 108 -106 Q 111 -106 116 -103 L 133 -92 Q 150 -81 174 -54 Q 198 -26 222 13 Q 246 52 260 89 Q 274 125 280 142 Q 286 160 288 167 L 293 186 Z" fill="lightgray" />
    
      <path d="M 116 428 Q 119 420 131 401 L 151 370 Q 158 359 168 350 Q 181 339 192 339 L 194 339 Q 206 340 216 354 Q 221 362 221 374 Q 221 381 219 390 Q 213 412 201 423 Q 189 434 170 444 Q 150 453 138 456 L 117 459 L 113 459 Q 108 459 106 457 Q 104 456 104 454 Q 104 450 108 445 L 116 428 Z" fill="lightgray" />
    
      <path d="M 232 277 Q 238 284 238 288 Q 238 291 236 292 Q 235 293 233 293 Q 228 293 220 288 L 203 277 Q 198 273 174 258 Q 150 244 140 239 L 108 222 Q 84 210 74 207 Q 65 204 52 204 Q 40 203 36 200 Q 34 197 33 192 L 33 191 Q 33 185 46 170 L 64 149 Q 72 139 80 136 Q 86 133 90 133 L 91 133 Q 96 133 102 139 Q 108 145 120 159 L 158 198 L 202 244 Q 214 257 220 263 L 232 277 Z" fill="lightgray" />
    
      <path d="M 444 383 L 486 433 L 506 458 Q 514 470 526 477 Q 536 484 538 488 Q 538 493 534 500 Q 530 507 515 516 Q 500 526 488 530 Q 479 533 474 533 Q 470 533 469 531 Q 467 527 467 524 L 467 522 L 468 515 Q 469 512 469 508 Q 469 504 468 500 Q 466 492 458 468 Q 450 446 446 438 L 412 378 C 397 352 425 360 444 383 Z" fill="lightgray" />
    
      <path d="M 373 140 L 368 106 Q 364 87 356 61 Q 346 34 334 12 Q 321 -10 306 -30 Q 291 -50 280 -60 L 266 -75 Q 260 -81 260 -86 L 260 -88 Q 262 -90 264 -90 Q 268 -90 275 -86 L 289 -78 Q 302 -72 325 -52 Q 348 -34 367 -10 Q 386 14 397 49 Q 408 84 412 108 Q 416 132 420 159 L 422 194 L 426 278 Q 428 313 430 322 L 438 345 Q 440 350 441 360 C 443 368 440 369 412 378 L 394 384 Q 384 388 376 388 Q 368 388 364 385 Q 363 384 363 380 Q 363 377 364 371 L 370 351 Q 373 341 375 322 Q 377 295 377 270 L 377 253 Q 377 220 376 185 L 373 140 Z" fill="lightgray" />
    
      <path d="M 530 192 L 531 113 L 528 45 Q 526 9 520 -6 Q 513 -22 503 -24 Q 499 -26 493 -26 Q 485 -26 475 -22 L 449 -16 Q 447 -15 445 -15 Q 441 -15 438 -18 Q 437 -19 437 -21 Q 437 -24 442 -28 L 458 -42 Q 466 -50 478 -65 Q 492 -80 498 -92 Q 506 -104 510 -106 Q 514 -108 518 -108 L 520 -108 Q 524 -108 536 -101 Q 546 -94 558 -80 Q 569 -66 573 -48 Q 578 -30 580 -7 Q 582 16 582 36 L 576 208 L 576 230 L 577 282 Q 577 298 579 312 Q 580 326 583 337 Q 586 348 591 356 Q 596 365 596 367 L 596 370 Q 596 373 594 377 Q 592 383 585 388 Q 578 394 566 401 Q 554 408 546 411 Q 540 413 534 413 L 530 413 Q 522 412 508 406 Q 494 399 481 394 L 444 383 C 401 370 394 351 441 360 L 498 371 Q 502 372 505 372 Q 512 372 518 367 Q 525 361 526 342 Q 528 324 528 306 L 530 218 L 530 192 Z" fill="lightgray" />
    
      <path d="M 456 286 L 468 262 Q 474 252 478 248 Q 482 244 488 244 Q 493 244 500 252 Q 508 258 508 274 Q 507 288 500 298 Q 493 308 482 312 Q 472 316 463 319 Q 454 322 450 322 Q 444 322 443 321 L 443 320 Q 443 318 445 314 L 456 286 Z" fill="lightgray" />
    
      <path d="M 448 107 L 459 86 Q 466 73 471 70 Q 476 66 481 66 Q 488 66 496 73 Q 503 79 503 91 L 503 94 Q 502 109 494 119 Q 486 129 468 135 L 454 139 Q 444 142 440 142 L 437 142 Q 434 142 433 141 L 433 140 Q 433 139 435 134 L 448 107 Z" fill="lightgray" />
    
      <path d="M 288 167 L 298 156 Q 302 151 315 142 Q 327 132 334 130 Q 339 128 342 128 L 345 128 Q 350 129 357 132 Q 364 135 373 140 L 420 159 L 530 192 L 576 208 L 598 214 Q 604 215 606 218 L 606 221 Q 606 224 605 228 C 605 235 605 235 588 232 L 576 230 L 530 218 L 422 194 L 376 185 L 356 184 L 332 182 L 312 184 Q 302 184 299 185 Q 297 185 293 186 C 267 190 268 189 288 167 Z" fill="lightgray" />
    
      <path d="M 605 228 L 622 243 Q 625 246 638 260 Q 650 273 662 294 Q 674 315 682 342 Q 688 369 690 389 Q 692 408 694 434 C 696 455 696 455 684 460 L 654 472 Q 651 474 642 474 Q 634 474 631 470 Q 629 467 629 464 L 629 462 Q 630 458 636 451 Q 641 444 644 436 Q 645 431 645 422 L 645 412 Q 645 396 642 369 Q 638 342 632 320 Q 626 298 616 279 L 596 247 L 588 234 L 588 232 C 575 205 583 208 605 228 Z" fill="lightgray" />
    
      <path d="M 694 434 L 736 448 Q 743 450 749 450 Q 756 450 760 447 Q 765 444 765 431 Q 765 425 764 418 L 756 348 Q 754 336 754 326 Q 754 314 757 304 Q 761 286 770 275 Q 779 264 792 260 Q 806 255 831 253 Q 850 251 862 251 L 869 251 Q 883 251 905 255 Q 928 258 938 265 Q 948 271 948 278 Q 948 283 940 291 Q 932 299 919 305 Q 906 310 896 310 Q 892 310 874 306 L 852 300 Q 837 297 832 297 L 829 297 Q 811 297 804 307 Q 796 317 795 334 L 795 343 Q 795 355 797 364 Q 800 376 804 388 Q 810 400 816 416 Q 824 431 833 441 Q 842 452 842 455 Q 842 461 837 468 Q 831 474 818 480 L 797 489 Q 790 492 780 494 Q 772 497 767 497 L 764 497 Q 759 496 751 492 L 728 480 L 684 460 C 657 448 666 425 694 434 Z" fill="lightgray" />
    
      <path d="M 707 47 L 686 16 Q 681 10 662 -10 Q 642 -30 631 -38 Q 620 -46 602 -57 L 582 -68 Q 570 -75 570 -76 Q 570 -78 574 -82 Q 576 -84 579 -84 Q 583 -84 588 -82 L 614 -76 Q 634 -70 650 -64 Q 667 -58 679 -49 Q 691 -40 705 -28 Q 718 -14 738 4 L 762 40 L 778 68 Q 780 70 784 81 L 802 126 L 816 155 Q 821 168 824 173 Q 826 178 835 186 Q 844 196 844 201 Q 844 208 838 213 Q 832 218 820 224 Q 807 229 796 235 Q 786 240 781 241 Q 776 241 764 234 Q 753 228 714 212 Q 676 198 666 195 L 641 190 L 620 186 Q 606 182 604 178 L 604 175 Q 604 171 608 167 L 624 154 C 624 154 627 155 656 163 L 688 172 L 724 184 L 745 191 Q 750 193 754 193 Q 756 193 758 192 Q 762 191 763 182 L 763 178 Q 763 171 760 162 Q 755 150 749 133 L 738 103 L 730 78 L 707 47 Z" fill="lightgray" />
    
      <path d="M 738 4 L 794 -77 Q 812 -102 830 -110 Q 848 -118 867 -118 L 871 -118 Q 884 -118 912 -112 Q 946 -104 949 -103 L 982 -94 Q 993 -92 993 -87 L 993 -86 Q 992 -80 982 -77 L 956 -68 Q 942 -64 914 -53 Q 885 -42 862 -30 Q 838 -18 815 -2 Q 791 14 782 22 L 762 40 L 730 78 L 722 87 L 700 117 L 678 142 Q 668 151 656 163 C 635 184 601 174 624 154 Q 634 146 648 132 Q 660 118 672 100 L 699 59 Q 702 54 707 47 L 738 4 Z" fill="lightgray" />
    
    
      <clipPath id="make-me-a-hanzi-clip-0">
        <path d="M 611 608 L 617 619 Q 622 628 623 648 Q 623 665 618 674 Q 612 682 596 692 Q 580 702 564 709 Q 548 716 528 721 Q 522 723 518 723 Q 514 723 512 721 Q 511 720 511 717 Q 511 714 512 709 Q 514 701 521 690 Q 528 679 537 660 L 552 630 L 570 601 C 586 576 597 582 611 608 Z" />
      </clipPath>
      <path clip-path="url(#make-me-a-hanzi-clip-0)" d="M 516 718 L 584 652 L 587 639 L 575 611" fill="none" id="make-me-a-hanzi-animation-0" stroke-dasharray="267 534" stroke-linecap="round" />
    
      <clipPath id="make-me-a-hanzi-clip-1">
        <path d="M 355 532 L 391 537 L 472 549 Q 521 556 570 562 Q 620 568 652 570 Q 684 572 758 578 L 813 581 Q 823 582 839 582 Q 854 582 859 586 Q 863 590 864 594 Q 864 599 853 608 Q 843 618 832 624 Q 822 630 810 634 Q 801 636 791 636 L 784 636 Q 776 636 758 632 Q 741 628 706 623 Q 670 618 654 615 Q 637 612 611 608 L 570 601 L 560 600 Q 556 599 514 594 Q 473 588 444 585 Q 414 582 386 578 Q 358 574 352 574 L 305 568 L 260 562 Q 251 561 249 557 L 249 555 Q 249 551 252 548 Q 258 542 262 540 Q 266 538 275 536 L 355 532 Z" />
      </clipPath>
      <path clip-path="url(#make-me-a-hanzi-clip-1)" d="M 256 556 L 282 550 L 357 553 L 781 608 L 816 606 L 856 594" fill="none" id="make-me-a-hanzi-animation-1" stroke-dasharray="734 1468" stroke-linecap="round" />
    
      <clipPath id="make-me-a-hanzi-clip-2">
        <path d="M 293 186 L 298 205 Q 305 228 318 301 Q 332 375 337 418 Q 343 460 345 469 Q 347 478 349 485 Q 352 492 355 498 Q 358 504 361 509 Q 364 515 365 519 Q 365 522 355 532 C 342 559 269 565 275 536 L 278 522 Q 280 517 280 500 L 280 446 Q 279 420 275 378 Q 270 336 264 296 Q 256 256 242 202 Q 228 146 214 108 Q 200 68 181 31 L 145 -37 Q 127 -68 117 -82 L 108 -95 Q 105 -100 105 -103 Q 105 -104 106 -105 Q 107 -106 108 -106 Q 111 -106 116 -103 L 133 -92 Q 150 -81 174 -54 Q 198 -26 222 13 Q 246 52 260 89 Q 274 125 280 142 Q 286 160 288 167 L 293 186 Z" />
      </clipPath>
      <path clip-path="url(#make-me-a-hanzi-clip-2)" d="M 281 530 L 316 498 L 297 332 L 264 178 L 235 92 L 200 18 L 148 -62 L 109 -102" fill="none" id="make-me-a-hanzi-animation-2" stroke-dasharray="824 1648" stroke-linecap="round" />
    
      <clipPath id="make-me-a-hanzi-clip-3">
        <path d="M 116 428 Q 119 420 131 401 L 151 370 Q 158 359 168 350 Q 181 339 192 339 L 194 339 Q 206 340 216 354 Q 221 362 221 374 Q 221 381 219 390 Q 213 412 201 423 Q 189 434 170 444 Q 150 453 138 456 L 117 459 L 113 459 Q 108 459 106 457 Q 104 456 104 454 Q 104 450 108 445 L 116 428 Z" />
      </clipPath>
      <path clip-path="url(#make-me-a-hanzi-clip-3)" d="M 111 452 L 170 404 L 193 359" fill="none" id="make-me-a-hanzi-animation-3" stroke-dasharray="255 510" stroke-linecap="round" />
    
      <clipPath id="make-me-a-hanzi-clip-4">
        <path d="M 232 277 Q 238 284 238 288 Q 238 291 236 292 Q 235 293 233 293 Q 228 293 220 288 L 203 277 Q 198 273 174 258 Q 150 244 140 239 L 108 222 Q 84 210 74 207 Q 65 204 52 204 Q 40 203 36 200 Q 34 197 33 192 L 33 191 Q 33 185 46 170 L 64 149 Q 72 139 80 136 Q 86 133 90 133 L 91 133 Q 96 133 102 139 Q 108 145 120 159 L 158 198 L 202 244 Q 214 257 220 263 L 232 277 Z" />
      </clipPath>
      <path clip-path="url(#make-me-a-hanzi-clip-4)" d="M 42 193 L 89 175 L 233 288" fill="none" id="make-me-a-hanzi-animation-4" stroke-dasharray="361 722" stroke-linecap="round" />
    
      <clipPath id="make-me-a-hanzi-clip-5">
        <path d="M 444 383 L 486 433 L 506 458 Q 514 470 526 477 Q 536 484 538 488 Q 538 493 534 500 Q 530 507 515 516 Q 500 526 488 530 Q 479 533 474 533 Q 470 533 469 531 Q 467 527 467 524 L 467 522 L 468 515 Q 469 512 469 508 Q 469 504 468 500 Q 466 492 458 468 Q 450 446 446 438 L 412 378 C 397 352 425 360 444 383 Z" />
      </clipPath>
      <path clip-path="url(#make-me-a-hanzi-clip-5)" d="M 474 526 L 497 492 L 437 394 L 417 383" fill="none" id="make-me-a-hanzi-animation-5" stroke-dasharray="307 614" stroke-linecap="round" />
    
      <clipPath id="make-me-a-hanzi-clip-6">
        <path d="M 373 140 L 368 106 Q 364 87 356 61 Q 346 34 334 12 Q 321 -10 306 -30 Q 291 -50 280 -60 L 266 -75 Q 260 -81 260 -86 L 260 -88 Q 262 -90 264 -90 Q 268 -90 275 -86 L 289 -78 Q 302 -72 325 -52 Q 348 -34 367 -10 Q 386 14 397 49 Q 408 84 412 108 Q 416 132 420 159 L 422 194 L 426 278 Q 428 313 430 322 L 438 345 Q 440 350 441 360 C 443 368 440 369 412 378 L 394 384 Q 384 388 376 388 Q 368 388 364 385 Q 363 384 363 380 Q 363 377 364 371 L 370 351 Q 373 341 375 322 Q 377 295 377 270 L 377 253 Q 377 220 376 185 L 373 140 Z" />
      </clipPath>
      <path clip-path="url(#make-me-a-hanzi-clip-6)" d="M 371 381 L 404 345 L 398 166 L 384 79 L 365 26 L 339 -15 L 310 -49 L 263 -87" fill="none" id="make-me-a-hanzi-animation-6" stroke-dasharray="654 1308" stroke-linecap="round" />
    
      <clipPath id="make-me-a-hanzi-clip-7">
        <path d="M 530 192 L 531 113 L 528 45 Q 526 9 520 -6 Q 513 -22 503 -24 Q 499 -26 493 -26 Q 485 -26 475 -22 L 449 -16 Q 447 -15 445 -15 Q 441 -15 438 -18 Q 437 -19 437 -21 Q 437 -24 442 -28 L 458 -42 Q 466 -50 478 -65 Q 492 -80 498 -92 Q 506 -104 510 -106 Q 514 -108 518 -108 L 520 -108 Q 524 -108 536 -101 Q 546 -94 558 -80 Q 569 -66 573 -48 Q 578 -30 580 -7 Q 582 16 582 36 L 576 208 L 576 230 L 577 282 Q 577 298 579 312 Q 580 326 583 337 Q 586 348 591 356 Q 596 365 596 367 L 596 370 Q 596 373 594 377 Q 592 383 585 388 Q 578 394 566 401 Q 554 408 546 411 Q 540 413 534 413 L 530 413 Q 522 412 508 406 Q 494 399 481 394 L 444 383 C 401 370 394 351 441 360 L 498 371 Q 502 372 505 372 Q 512 372 518 367 Q 525 361 526 342 Q 528 324 528 306 L 530 218 L 530 192 Z" />
      </clipPath>
      <path clip-path="url(#make-me-a-hanzi-clip-7)" d="M 418 376 L 446 371 L 522 389 L 536 387 L 557 366 L 552 299 L 555 30 L 547 -23 L 538 -44 L 524 -58 L 444 -22" fill="none" id="make-me-a-hanzi-animation-7" stroke-dasharray="799 1598" stroke-linecap="round" />
    
      <clipPath id="make-me-a-hanzi-clip-8">
        <path d="M 456 286 L 468 262 Q 474 252 478 248 Q 482 244 488 244 Q 493 244 500 252 Q 508 258 508 274 Q 507 288 500 298 Q 493 308 482 312 Q 472 316 463 319 Q 454 322 450 322 Q 444 322 443 321 L 443 320 Q 443 318 445 314 L 456 286 Z" />
      </clipPath>
      <path clip-path="url(#make-me-a-hanzi-clip-8)" d="M 447 321 L 483 283 L 488 258" fill="none" id="make-me-a-hanzi-animation-8" stroke-dasharray="206 412" stroke-linecap="round" />
    
      <clipPath id="make-me-a-hanzi-clip-9">
        <path d="M 448 107 L 459 86 Q 466 73 471 70 Q 476 66 481 66 Q 488 66 496 73 Q 503 79 503 91 L 503 94 Q 502 109 494 119 Q 486 129 468 135 L 454 139 Q 444 142 440 142 L 437 142 Q 434 142 433 141 L 433 140 Q 433 139 435 134 L 448 107 Z" />
      </clipPath>
      <path clip-path="url(#make-me-a-hanzi-clip-9)" d="M 435 141 L 474 107 L 481 81" fill="none" id="make-me-a-hanzi-animation-9" stroke-dasharray="207 414" stroke-linecap="round" />
    
      <clipPath id="make-me-a-hanzi-clip-10">
        <path d="M 288 167 L 298 156 Q 302 151 315 142 Q 327 132 334 130 Q 339 128 342 128 L 345 128 Q 350 129 357 132 Q 364 135 373 140 L 420 159 L 530 192 L 576 208 L 598 214 Q 604 215 606 218 L 606 221 Q 606 224 605 228 C 605 235 605 235 588 232 L 576 230 L 530 218 L 422 194 L 376 185 L 356 184 L 332 182 L 312 184 Q 302 184 299 185 Q 297 185 293 186 C 267 190 268 189 288 167 Z" />
      </clipPath>
      <path clip-path="url(#make-me-a-hanzi-clip-10)" d="M 295 180 L 322 162 L 350 157 L 571 219 L 600 220" fill="none" id="make-me-a-hanzi-animation-10" stroke-dasharray="447 894" stroke-linecap="round" />
    
      <clipPath id="make-me-a-hanzi-clip-11">
        <path d="M 605 228 L 622 243 Q 625 246 638 260 Q 650 273 662 294 Q 674 315 682 342 Q 688 369 690 389 Q 692 408 694 434 C 696 455 696 455 684 460 L 654 472 Q 651 474 642 474 Q 634 474 631 470 Q 629 467 629 464 L 629 462 Q 630 458 636 451 Q 641 444 644 436 Q 645 431 645 422 L 645 412 Q 645 396 642 369 Q 638 342 632 320 Q 626 298 616 279 L 596 247 L 588 234 L 588 232 C 575 205 583 208 605 228 Z" />
      </clipPath>
      <path clip-path="url(#make-me-a-hanzi-clip-11)" d="M 639 464 L 662 447 L 670 428 L 663 355 L 644 296 L 623 263 L 593 233" fill="none" id="make-me-a-hanzi-animation-11" stroke-dasharray="394 788" stroke-linecap="round" />
    
      <clipPath id="make-me-a-hanzi-clip-12">
        <path d="M 694 434 L 736 448 Q 743 450 749 450 Q 756 450 760 447 Q 765 444 765 431 Q 765 425 764 418 L 756 348 Q 754 336 754 326 Q 754 314 757 304 Q 761 286 770 275 Q 779 264 792 260 Q 806 255 831 253 Q 850 251 862 251 L 869 251 Q 883 251 905 255 Q 928 258 938 265 Q 948 271 948 278 Q 948 283 940 291 Q 932 299 919 305 Q 906 310 896 310 Q 892 310 874 306 L 852 300 Q 837 297 832 297 L 829 297 Q 811 297 804 307 Q 796 317 795 334 L 795 343 Q 795 355 797 364 Q 800 376 804 388 Q 810 400 816 416 Q 824 431 833 441 Q 842 452 842 455 Q 842 461 837 468 Q 831 474 818 480 L 797 489 Q 790 492 780 494 Q 772 497 767 497 L 764 497 Q 759 496 751 492 L 728 480 L 684 460 C 657 448 666 425 694 434 Z" />
      </clipPath>
      <path clip-path="url(#make-me-a-hanzi-clip-12)" d="M 693 456 L 706 454 L 768 471 L 797 451 L 774 330 L 791 287 L 813 277 L 842 274 L 898 282 L 935 279" fill="none" id="make-me-a-hanzi-animation-12" stroke-dasharray="557 1114" stroke-linecap="round" />
    
      <clipPath id="make-me-a-hanzi-clip-13">
        <path d="M 707 47 L 686 16 Q 681 10 662 -10 Q 642 -30 631 -38 Q 620 -46 602 -57 L 582 -68 Q 570 -75 570 -76 Q 570 -78 574 -82 Q 576 -84 579 -84 Q 583 -84 588 -82 L 614 -76 Q 634 -70 650 -64 Q 667 -58 679 -49 Q 691 -40 705 -28 Q 718 -14 738 4 L 762 40 L 778 68 Q 780 70 784 81 L 802 126 L 816 155 Q 821 168 824 173 Q 826 178 835 186 Q 844 196 844 201 Q 844 208 838 213 Q 832 218 820 224 Q 807 229 796 235 Q 786 240 781 241 Q 776 241 764 234 Q 753 228 714 212 Q 676 198 666 195 L 641 190 L 620 186 Q 606 182 604 178 L 604 175 Q 604 171 608 167 L 624 154 C 624 154 627 155 656 163 L 688 172 L 724 184 L 745 191 Q 750 193 754 193 Q 756 193 758 192 Q 762 191 763 182 L 763 178 Q 763 171 760 162 Q 755 150 749 133 L 738 103 L 730 78 L 707 47 Z" />
      </clipPath>
      <path clip-path="url(#make-me-a-hanzi-clip-13)" d="M 609 177 L 628 172 L 658 178 L 771 212 L 796 195 L 759 85 L 716 16 L 649 -46 L 578 -75" fill="none" id="make-me-a-hanzi-animation-13" stroke-dasharray="692 1384" stroke-linecap="round" />
    
      <clipPath id="make-me-a-hanzi-clip-14">
        <path d="M 738 4 L 794 -77 Q 812 -102 830 -110 Q 848 -118 867 -118 L 871 -118 Q 884 -118 912 -112 Q 946 -104 949 -103 L 982 -94 Q 993 -92 993 -87 L 993 -86 Q 992 -80 982 -77 L 956 -68 Q 942 -64 914 -53 Q 885 -42 862 -30 Q 838 -18 815 -2 Q 791 14 782 22 L 762 40 L 730 78 L 722 87 L 700 117 L 678 142 Q 668 151 656 163 C 635 184 601 174 624 154 Q 634 146 648 132 Q 660 118 672 100 L 699 59 Q 702 54 707 47 L 738 4 Z" />
      </clipPath>
      <path clip-path="url(#make-me-a-hanzi-clip-14)" d="M 630 154 L 663 136 L 770 0 L 837 -64 L 869 -78 L 985 -86" fill="none" id="make-me-a-hanzi-animation-14" stroke-dasharray="582 1164" stroke-linecap="round" />
    
  </g>
</svg>