<svg xmlns="http://www.w3.org/2000/svg" version="1.1" viewBox="0 0 1024 1024">
  <g stroke="lightgray" stroke-dasharray="1,1" stroke-width="1" transform="scale(4, 4)">
    <line x1="0" y1="0" x2="256" y2="256" />
    <line x1="256" y1="0" x2="0" y2="256" />
    <line x1="128" y1="0" x2="128" y2="256" />
    <line x1="0" y1="128" x2="256" y2="128" />
  </g>
  <g transform="scale(1.0, -1.0) translate(0.0, -822.50)">
    <style type="text/css">
      
        @keyframes keyframes0 {
          from {
            stroke: blue;
            stroke-dashoffset: 819;
            stroke-width: 128;
          }
          73% {
            animation-timing-function: step-end;
            stroke: blue;
            stroke-dashoffset: 0;
            stroke-width: 128;
          }
          to {
            stroke: black;
            stroke-width: 1024;
          }
        }
        #make-me-a-hanzi-animation-0 {
          animation: keyframes0 0.91650390625s both;
          animation-delay: 0s;
          animation-timing-function: linear;
        }
      
        @keyframes keyframes1 {
          from {
            stroke: blue;
            stroke-dashoffset: 1000;
            stroke-width: 128;
          }
          76% {
            animation-timing-function: step-end;
            stroke: blue;
            stroke-dashoffset: 0;
            stroke-width: 128;
          }
          to {
            stroke: black;
            stroke-width: 1024;
          }
        }
        #make-me-a-hanzi-animation-1 {
          animation: keyframes1 1.0638020833333333s both;
          animation-delay: 0.91650390625s;
          animation-timing-function: linear;
        }
      
        @keyframes keyframes2 {
          from {
            stroke: blue;
            stroke-dashoffset: 400;
            stroke-width: 128;
          }
          57% {
            animation-timing-function: step-end;
            stroke: blue;
            stroke-dashoffset: 0;
            stroke-width: 128;
          }
          to {
            stroke: black;
            stroke-width: 1024;
          }
        }
        #make-me-a-hanzi-animation-2 {
          animation: keyframes2 0.5755208333333334s both;
          animation-delay: 1.9803059895833333s;
          animation-timing-function: linear;
        }
      
        @keyframes keyframes3 {
          from {
            stroke: blue;
            stroke-dashoffset: 402;
            stroke-width: 128;
          }
          57% {
            animation-timing-function: step-end;
            stroke: blue;
            stroke-dashoffset: 0;
            stroke-width: 128;
          }
          to {
            stroke: black;
            stroke-width: 1024;
          }
        }
        #make-me-a-hanzi-animation-3 {
          animation: keyframes3 0.5771484375s both;
          animation-delay: 2.5558268229166665s;
          animation-timing-function: linear;
        }
      
        @keyframes keyframes4 {
          from {
            stroke: blue;
            stroke-dashoffset: 401;
            stroke-width: 128;
          }
          57% {
            animation-timing-function: step-end;
            stroke: blue;
            stroke-dashoffset: 0;
            stroke-width: 128;
          }
          to {
            stroke: black;
            stroke-width: 1024;
          }
        }
        #make-me-a-hanzi-animation-4 {
          animation: keyframes4 0.5763346354166666s both;
          animation-delay: 3.1329752604166665s;
          animation-timing-function: linear;
        }
      
        @keyframes keyframes5 {
          from {
            stroke: blue;
            stroke-dashoffset: 1054;
            stroke-width: 128;
          }
          77% {
            animation-timing-function: step-end;
            stroke: blue;
            stroke-dashoffset: 0;
            stroke-width: 128;
          }
          to {
            stroke: black;
            stroke-width: 1024;
          }
        }
        #make-me-a-hanzi-animation-5 {
          animation: keyframes5 1.1077473958333333s both;
          animation-delay: 3.709309895833333s;
          animation-timing-function: linear;
        }
      
        @keyframes keyframes6 {
          from {
            stroke: blue;
            stroke-dashoffset: 503;
            stroke-width: 128;
          }
          62% {
            animation-timing-function: step-end;
            stroke: blue;
            stroke-dashoffset: 0;
            stroke-width: 128;
          }
          to {
            stroke: black;
            stroke-width: 1024;
          }
        }
        #make-me-a-hanzi-animation-6 {
          animation: keyframes6 0.6593424479166666s both;
          animation-delay: 4.817057291666666s;
          animation-timing-function: linear;
        }
      
        @keyframes keyframes7 {
          from {
            stroke: blue;
            stroke-dashoffset: 534;
            stroke-width: 128;
          }
          63% {
            animation-timing-function: step-end;
            stroke: blue;
            stroke-dashoffset: 0;
            stroke-width: 128;
          }
          to {
            stroke: black;
            stroke-width: 1024;
          }
        }
        #make-me-a-hanzi-animation-7 {
          animation: keyframes7 0.6845703125s both;
          animation-delay: 5.476399739583333s;
          animation-timing-function: linear;
        }
      
        @keyframes keyframes8 {
          from {
            stroke: blue;
            stroke-dashoffset: 739;
            stroke-width: 128;
          }
          71% {
            animation-timing-function: step-end;
            stroke: blue;
            stroke-dashoffset: 0;
            stroke-width: 128;
          }
          to {
            stroke: black;
            stroke-width: 1024;
          }
        }
        #make-me-a-hanzi-animation-8 {
          animation: keyframes8 0.8513997395833334s both;
          animation-delay: 6.160970052083333s;
          animation-timing-function: linear;
        }
      
        @keyframes keyframes9 {
          from {
            stroke: blue;
            stroke-dashoffset: 538;
            stroke-width: 128;
          }
          64% {
            animation-timing-function: step-end;
            stroke: blue;
            stroke-dashoffset: 0;
            stroke-width: 128;
          }
          to {
            stroke: black;
            stroke-width: 1024;
          }
        }
        #make-me-a-hanzi-animation-9 {
          animation: keyframes9 0.6878255208333334s both;
          animation-delay: 7.012369791666666s;
          animation-timing-function: linear;
        }
      
    </style>
    
      <path d="M 126 342 L 120 217 Q 118 189 114 164 Q 111 140 106 116 Q 100 93 100 84 Q 100 68 104 55 Q 108 42 113 30 Q 118 18 125 12 Q 130 7 135 7 L 137 7 Q 143 7 148 20 Q 153 34 156 51 L 158 86 L 164 223 L 164 249 L 170 376 L 170 400 L 174 540 C 175 561 175 561 165 564 L 122 576 L 120 576 Q 117 576 112 574 Q 106 571 106 569 Q 104 566 104 563 L 104 561 Q 106 556 111 549 Q 116 541 119 533 Q 122 525 125 508 Q 128 492 128 451 L 126 342 Z" fill="lightgray" />
    
      <path d="M 284 60 L 292 40 L 300 18 Q 308 -4 313 -9 Q 319 -14 324 -14 Q 332 -14 342 -2 Q 352 10 362 27 Q 370 44 372 62 Q 374 80 374 127 L 371 250 L 372 478 Q 372 509 376 524 Q 380 539 383 547 Q 386 555 386 560 Q 386 565 378 572 Q 372 579 356 588 Q 340 598 332 602 Q 324 606 318 606 Q 313 606 304 602 Q 294 598 277 593 Q 260 588 240 583 L 165 564 C 136 557 145 533 174 540 L 213 550 Q 230 556 247 557 Q 264 559 278 560 L 284 560 Q 302 560 308 555 Q 315 550 318 541 Q 320 533 320 501 L 322 416 L 320 396 L 319 264 L 320 244 L 318 173 Q 316 150 315 136 Q 314 122 313 113 Q 312 105 308 90 C 302 61 273 88 284 60 Z" fill="lightgray" />
    
      <path d="M 170 376 L 194 372 L 199 372 Q 211 372 235 377 L 280 388 Q 293 390 320 396 C 349 402 351 409 322 416 L 298 422 Q 278 426 270 426 Q 264 426 250 421 Q 236 416 218 412 Q 200 408 170 400 C 141 392 140 381 170 376 Z" fill="lightgray" />
    
      <path d="M 164 223 L 192 218 L 196 218 Q 207 218 234 225 Q 266 234 280 236 Q 294 240 320 244 C 350 249 348 257 319 264 L 274 275 L 272 275 Q 265 275 238 268 Q 208 259 164 249 C 135 242 134 228 164 223 Z" fill="lightgray" />
    
      <path d="M 156 51 L 176 50 Q 180 50 207 54 Q 234 58 252 58 Q 270 60 284 60 C 314 60 336 80 308 90 L 288 97 Q 278 101 267 102 Q 258 102 239 98 Q 220 94 201 91 Q 182 89 158 86 C 128 82 126 52 156 51 Z" fill="lightgray" />
    
      <path d="M 810 377 L 583 334 L 534 328 Q 527 327 522 327 Q 517 327 515 328 Q 510 332 510 342 Q 510 352 554 418 L 640 550 Q 646 560 656 574 Q 666 589 672 597 Q 680 605 690 613 L 704 623 Q 711 628 712 632 Q 713 634 713 635 Q 713 640 709 645 Q 704 652 692 663 Q 680 674 674 680 Q 668 686 653 696 Q 638 706 630 706 Q 622 706 619 704 Q 615 700 615 688 Q 614 676 612 661 Q 609 646 602 620 Q 595 595 584 572 L 558 516 Q 554 506 536 476 L 512 436 Q 502 418 494 408 Q 486 398 472 379 Q 457 360 439 348 Q 420 335 419 330 Q 418 325 418 317 Q 418 308 430 286 Q 441 262 447 259 Q 452 256 459 256 Q 462 256 467 258 Q 472 259 502 272 Q 532 284 582 295 L 828 348 C 857 354 839 383 810 377 Z" fill="lightgray" />
    
      <path d="M 828 348 L 871 292 Q 876 286 884 281 Q 890 278 896 278 L 899 278 Q 904 278 908 280 Q 913 283 916 288 Q 923 297 923 316 L 923 321 Q 922 344 915 361 Q 908 378 891 396 Q 874 414 850 430 Q 827 446 808 456 Q 788 467 774 472 L 750 482 Q 745 484 741 484 Q 738 484 736 482 Q 735 481 735 479 Q 735 477 736 474 L 750 458 L 810 377 L 828 348 Z" fill="lightgray" />
    
      <path d="M 514 183 L 480 192 Q 477 193 474 193 Q 471 193 467 192 Q 460 190 458 189 Q 456 187 456 183 L 456 181 Q 457 177 462 171 Q 468 165 473 158 Q 478 150 480 143 Q 483 136 484 125 L 502 -23 Q 504 -44 506 -56 Q 508 -69 516 -78 Q 522 -85 526 -85 Q 530 -84 536 -80 Q 543 -76 544 -49 L 544 -15 L 530 149 C 527 179 527 179 514 183 Z" fill="lightgray" />
    
      <path d="M 812 2 L 836 92 Q 838 104 848 126 Q 858 146 863 153 L 870 161 Q 872 164 874 166 L 874 168 Q 874 172 871 178 Q 867 186 855 195 Q 842 204 825 214 Q 808 224 802 224 Q 796 224 784 220 Q 772 216 750 212 L 716 206 Q 698 202 649 196 Q 600 190 578 188 L 514 183 C 484 181 500 144 530 149 L 614 162 Q 620 164 647 167 L 724 177 Q 737 178 746 178 Q 766 178 774 173 Q 781 167 784 159 L 784 155 Q 784 144 778 114 L 758 14 C 752 -15 804 -27 812 2 Z" fill="lightgray" />
    
      <path d="M 544 -49 L 579 -49 Q 586 -49 598 -48 Q 616 -46 665 -41 Q 714 -36 742 -32 Q 769 -28 788 -28 L 813 -28 Q 828 -28 830 -26 Q 833 -23 833 -20 L 833 -18 Q 833 -14 827 -10 L 812 2 C 793 17 788 17 758 14 L 736 12 Q 732 11 702 5 Q 672 -1 652 -4 Q 632 -6 606 -8 Q 581 -11 544 -15 C 514 -18 514 -49 544 -49 Z" fill="lightgray" />
    
    
      <clipPath id="make-me-a-hanzi-clip-0">
        <path d="M 126 342 L 120 217 Q 118 189 114 164 Q 111 140 106 116 Q 100 93 100 84 Q 100 68 104 55 Q 108 42 113 30 Q 118 18 125 12 Q 130 7 135 7 L 137 7 Q 143 7 148 20 Q 153 34 156 51 L 158 86 L 164 223 L 164 249 L 170 376 L 170 400 L 174 540 C 175 561 175 561 165 564 L 122 576 L 120 576 Q 117 576 112 574 Q 106 571 106 569 Q 104 566 104 563 L 104 561 Q 106 556 111 549 Q 116 541 119 533 Q 122 525 125 508 Q 128 492 128 451 L 126 342 Z" />
      </clipPath>
      <path clip-path="url(#make-me-a-hanzi-clip-0)" d="M 117 562 L 145 542 L 151 486 L 143 216 L 129 85 L 136 15" fill="none" id="make-me-a-hanzi-animation-0" stroke-dasharray="691 1382" stroke-linecap="round" />
    
      <clipPath id="make-me-a-hanzi-clip-1">
        <path d="M 284 60 L 292 40 L 300 18 Q 308 -4 313 -9 Q 319 -14 324 -14 Q 332 -14 342 -2 Q 352 10 362 27 Q 370 44 372 62 Q 374 80 374 127 L 371 250 L 372 478 Q 372 509 376 524 Q 380 539 383 547 Q 386 555 386 560 Q 386 565 378 572 Q 372 579 356 588 Q 340 598 332 602 Q 324 606 318 606 Q 313 606 304 602 Q 294 598 277 593 Q 260 588 240 583 L 165 564 C 136 557 145 533 174 540 L 213 550 Q 230 556 247 557 Q 264 559 278 560 L 284 560 Q 302 560 308 555 Q 315 550 318 541 Q 320 533 320 501 L 322 416 L 320 396 L 319 264 L 320 244 L 318 173 Q 316 150 315 136 Q 314 122 313 113 Q 312 105 308 90 C 302 61 273 88 284 60 Z" />
      </clipPath>
      <path clip-path="url(#make-me-a-hanzi-clip-1)" d="M 174 560 L 182 555 L 235 570 L 318 580 L 350 552 L 345 134 L 324 0" fill="none" id="make-me-a-hanzi-animation-1" stroke-dasharray="872 1744" stroke-linecap="round" />
    
      <clipPath id="make-me-a-hanzi-clip-2">
        <path d="M 170 376 L 194 372 L 199 372 Q 211 372 235 377 L 280 388 Q 293 390 320 396 C 349 402 351 409 322 416 L 298 422 Q 278 426 270 426 Q 264 426 250 421 Q 236 416 218 412 Q 200 408 170 400 C 141 392 140 381 170 376 Z" />
      </clipPath>
      <path clip-path="url(#make-me-a-hanzi-clip-2)" d="M 177 382 L 185 389 L 274 407 L 307 406 L 315 412" fill="none" id="make-me-a-hanzi-animation-2" stroke-dasharray="272 544" stroke-linecap="round" />
    
      <clipPath id="make-me-a-hanzi-clip-3">
        <path d="M 164 223 L 192 218 L 196 218 Q 207 218 234 225 Q 266 234 280 236 Q 294 240 320 244 C 350 249 348 257 319 264 L 274 275 L 272 275 Q 265 275 238 268 Q 208 259 164 249 C 135 242 134 228 164 223 Z" />
      </clipPath>
      <path clip-path="url(#make-me-a-hanzi-clip-3)" d="M 172 230 L 180 237 L 277 256 L 306 255 L 311 249" fill="none" id="make-me-a-hanzi-animation-3" stroke-dasharray="274 548" stroke-linecap="round" />
    
      <clipPath id="make-me-a-hanzi-clip-4">
        <path d="M 156 51 L 176 50 Q 180 50 207 54 Q 234 58 252 58 Q 270 60 284 60 C 314 60 336 80 308 90 L 288 97 Q 278 101 267 102 Q 258 102 239 98 Q 220 94 201 91 Q 182 89 158 86 C 128 82 126 52 156 51 Z" />
      </clipPath>
      <path clip-path="url(#make-me-a-hanzi-clip-4)" d="M 161 57 L 176 69 L 301 87" fill="none" id="make-me-a-hanzi-animation-4" stroke-dasharray="273 546" stroke-linecap="round" />
    
      <clipPath id="make-me-a-hanzi-clip-5">
        <path d="M 810 377 L 583 334 L 534 328 Q 527 327 522 327 Q 517 327 515 328 Q 510 332 510 342 Q 510 352 554 418 L 640 550 Q 646 560 656 574 Q 666 589 672 597 Q 680 605 690 613 L 704 623 Q 711 628 712 632 Q 713 634 713 635 Q 713 640 709 645 Q 704 652 692 663 Q 680 674 674 680 Q 668 686 653 696 Q 638 706 630 706 Q 622 706 619 704 Q 615 700 615 688 Q 614 676 612 661 Q 609 646 602 620 Q 595 595 584 572 L 558 516 Q 554 506 536 476 L 512 436 Q 502 418 494 408 Q 486 398 472 379 Q 457 360 439 348 Q 420 335 419 330 Q 418 325 418 317 Q 418 308 430 286 Q 441 262 447 259 Q 452 256 459 256 Q 462 256 467 258 Q 472 259 502 272 Q 532 284 582 295 L 828 348 C 857 354 839 383 810 377 Z" />
      </clipPath>
      <path clip-path="url(#make-me-a-hanzi-clip-5)" d="M 626 697 L 653 639 L 581 504 L 486 356 L 471 310 L 524 303 L 790 357 L 810 357 L 820 350" fill="none" id="make-me-a-hanzi-animation-5" stroke-dasharray="926 1852" stroke-linecap="round" />
    
      <clipPath id="make-me-a-hanzi-clip-6">
        <path d="M 828 348 L 871 292 Q 876 286 884 281 Q 890 278 896 278 L 899 278 Q 904 278 908 280 Q 913 283 916 288 Q 923 297 923 316 L 923 321 Q 922 344 915 361 Q 908 378 891 396 Q 874 414 850 430 Q 827 446 808 456 Q 788 467 774 472 L 750 482 Q 745 484 741 484 Q 738 484 736 482 Q 735 481 735 479 Q 735 477 736 474 L 750 458 L 810 377 L 828 348 Z" />
      </clipPath>
      <path clip-path="url(#make-me-a-hanzi-clip-6)" d="M 740 479 L 845 390 L 877 349 L 900 296" fill="none" id="make-me-a-hanzi-animation-6" stroke-dasharray="375 750" stroke-linecap="round" />
    
      <clipPath id="make-me-a-hanzi-clip-7">
        <path d="M 514 183 L 480 192 Q 477 193 474 193 Q 471 193 467 192 Q 460 190 458 189 Q 456 187 456 183 L 456 181 Q 457 177 462 171 Q 468 165 473 158 Q 478 150 480 143 Q 483 136 484 125 L 502 -23 Q 504 -44 506 -56 Q 508 -69 516 -78 Q 522 -85 526 -85 Q 530 -84 536 -80 Q 543 -76 544 -49 L 544 -15 L 530 149 C 527 179 527 179 514 183 Z" />
      </clipPath>
      <path clip-path="url(#make-me-a-hanzi-clip-7)" d="M 465 183 L 497 163 L 507 140 L 527 -74" fill="none" id="make-me-a-hanzi-animation-7" stroke-dasharray="406 812" stroke-linecap="round" />
    
      <clipPath id="make-me-a-hanzi-clip-8">
        <path d="M 812 2 L 836 92 Q 838 104 848 126 Q 858 146 863 153 L 870 161 Q 872 164 874 166 L 874 168 Q 874 172 871 178 Q 867 186 855 195 Q 842 204 825 214 Q 808 224 802 224 Q 796 224 784 220 Q 772 216 750 212 L 716 206 Q 698 202 649 196 Q 600 190 578 188 L 514 183 C 484 181 500 144 530 149 L 614 162 Q 620 164 647 167 L 724 177 Q 737 178 746 178 Q 766 178 774 173 Q 781 167 784 159 L 784 155 Q 784 144 778 114 L 758 14 C 752 -15 804 -27 812 2 Z" />
      </clipPath>
      <path clip-path="url(#make-me-a-hanzi-clip-8)" d="M 521 179 L 540 168 L 747 195 L 803 190 L 824 167 L 822 157 L 792 36 L 766 20" fill="none" id="make-me-a-hanzi-animation-8" stroke-dasharray="611 1222" stroke-linecap="round" />
    
      <clipPath id="make-me-a-hanzi-clip-9">
        <path d="M 544 -49 L 579 -49 Q 586 -49 598 -48 Q 616 -46 665 -41 Q 714 -36 742 -32 Q 769 -28 788 -28 L 813 -28 Q 828 -28 830 -26 Q 833 -23 833 -20 L 833 -18 Q 833 -14 827 -10 L 812 2 C 793 17 788 17 758 14 L 736 12 Q 732 11 702 5 Q 672 -1 652 -4 Q 632 -6 606 -8 Q 581 -11 544 -15 C 514 -18 514 -49 544 -49 Z" />
      </clipPath>
      <path clip-path="url(#make-me-a-hanzi-clip-9)" d="M 550 -43 L 572 -30 L 754 -8 L 802 -11 L 825 -20" fill="none" id="make-me-a-hanzi-animation-9" stroke-dasharray="410 820" stroke-linecap="round" />
    
  </g>
</svg>