<svg xmlns="http://www.w3.org/2000/svg" version="1.1" viewBox="0 0 1024 1024">
  <g stroke="lightgray" stroke-dasharray="1,1" stroke-width="1" transform="scale(4, 4)">
    <line x1="0" y1="0" x2="256" y2="256" />
    <line x1="256" y1="0" x2="0" y2="256" />
    <line x1="128" y1="0" x2="128" y2="256" />
    <line x1="0" y1="128" x2="256" y2="128" />
  </g>
  <g transform="scale(1.0, -1.0) translate(0.0, -837.00)">
    <style type="text/css">
      
        @keyframes keyframes0 {
          from {
            stroke: blue;
            stroke-dashoffset: 541;
            stroke-width: 128;
          }
          64% {
            animation-timing-function: step-end;
            stroke: blue;
            stroke-dashoffset: 0;
            stroke-width: 128;
          }
          to {
            stroke: black;
            stroke-width: 1024;
          }
        }
        #make-me-a-hanzi-animation-0 {
          animation: keyframes0 0.6902669270833334s both;
          animation-delay: 0s;
          animation-timing-function: linear;
        }
      
        @keyframes keyframes1 {
          from {
            stroke: blue;
            stroke-dashoffset: 758;
            stroke-width: 128;
          }
          71% {
            animation-timing-function: step-end;
            stroke: blue;
            stroke-dashoffset: 0;
            stroke-width: 128;
          }
          to {
            stroke: black;
            stroke-width: 1024;
          }
        }
        #make-me-a-hanzi-animation-1 {
          animation: keyframes1 0.8668619791666666s both;
          animation-delay: 0.6902669270833334s;
          animation-timing-function: linear;
        }
      
        @keyframes keyframes2 {
          from {
            stroke: blue;
            stroke-dashoffset: 515;
            stroke-width: 128;
          }
          63% {
            animation-timing-function: step-end;
            stroke: blue;
            stroke-dashoffset: 0;
            stroke-width: 128;
          }
          to {
            stroke: black;
            stroke-width: 1024;
          }
        }
        #make-me-a-hanzi-animation-2 {
          animation: keyframes2 0.6691080729166666s both;
          animation-delay: 1.55712890625s;
          animation-timing-function: linear;
        }
      
        @keyframes keyframes3 {
          from {
            stroke: blue;
            stroke-dashoffset: 545;
            stroke-width: 128;
          }
          64% {
            animation-timing-function: step-end;
            stroke: blue;
            stroke-dashoffset: 0;
            stroke-width: 128;
          }
          to {
            stroke: black;
            stroke-width: 1024;
          }
        }
        #make-me-a-hanzi-animation-3 {
          animation: keyframes3 0.6935221354166666s both;
          animation-delay: 2.2262369791666665s;
          animation-timing-function: linear;
        }
      
        @keyframes keyframes4 {
          from {
            stroke: blue;
            stroke-dashoffset: 397;
            stroke-width: 128;
          }
          56% {
            animation-timing-function: step-end;
            stroke: blue;
            stroke-dashoffset: 0;
            stroke-width: 128;
          }
          to {
            stroke: black;
            stroke-width: 1024;
          }
        }
        #make-me-a-hanzi-animation-4 {
          animation: keyframes4 0.5730794270833334s both;
          animation-delay: 2.919759114583333s;
          animation-timing-function: linear;
        }
      
        @keyframes keyframes5 {
          from {
            stroke: blue;
            stroke-dashoffset: 575;
            stroke-width: 128;
          }
          65% {
            animation-timing-function: step-end;
            stroke: blue;
            stroke-dashoffset: 0;
            stroke-width: 128;
          }
          to {
            stroke: black;
            stroke-width: 1024;
          }
        }
        #make-me-a-hanzi-animation-5 {
          animation: keyframes5 0.7179361979166666s both;
          animation-delay: 3.4928385416666665s;
          animation-timing-function: linear;
        }
      
        @keyframes keyframes6 {
          from {
            stroke: blue;
            stroke-dashoffset: 519;
            stroke-width: 128;
          }
          63% {
            animation-timing-function: step-end;
            stroke: blue;
            stroke-dashoffset: 0;
            stroke-width: 128;
          }
          to {
            stroke: black;
            stroke-width: 1024;
          }
        }
        #make-me-a-hanzi-animation-6 {
          animation: keyframes6 0.67236328125s both;
          animation-delay: 4.210774739583333s;
          animation-timing-function: linear;
        }
      
        @keyframes keyframes7 {
          from {
            stroke: blue;
            stroke-dashoffset: 579;
            stroke-width: 128;
          }
          65% {
            animation-timing-function: step-end;
            stroke: blue;
            stroke-dashoffset: 0;
            stroke-width: 128;
          }
          to {
            stroke: black;
            stroke-width: 1024;
          }
        }
        #make-me-a-hanzi-animation-7 {
          animation: keyframes7 0.72119140625s both;
          animation-delay: 4.883138020833333s;
          animation-timing-function: linear;
        }
      
        @keyframes keyframes8 {
          from {
            stroke: blue;
            stroke-dashoffset: 776;
            stroke-width: 128;
          }
          72% {
            animation-timing-function: step-end;
            stroke: blue;
            stroke-dashoffset: 0;
            stroke-width: 128;
          }
          to {
            stroke: black;
            stroke-width: 1024;
          }
        }
        #make-me-a-hanzi-animation-8 {
          animation: keyframes8 0.8815104166666666s both;
          animation-delay: 5.604329427083333s;
          animation-timing-function: linear;
        }
      
        @keyframes keyframes9 {
          from {
            stroke: blue;
            stroke-dashoffset: 551;
            stroke-width: 128;
          }
          64% {
            animation-timing-function: step-end;
            stroke: blue;
            stroke-dashoffset: 0;
            stroke-width: 128;
          }
          to {
            stroke: black;
            stroke-width: 1024;
          }
        }
        #make-me-a-hanzi-animation-9 {
          animation: keyframes9 0.6984049479166666s both;
          animation-delay: 6.48583984375s;
          animation-timing-function: linear;
        }
      
        @keyframes keyframes10 {
          from {
            stroke: blue;
            stroke-dashoffset: 789;
            stroke-width: 128;
          }
          72% {
            animation-timing-function: step-end;
            stroke: blue;
            stroke-dashoffset: 0;
            stroke-width: 128;
          }
          to {
            stroke: black;
            stroke-width: 1024;
          }
        }
        #make-me-a-hanzi-animation-10 {
          animation: keyframes10 0.89208984375s both;
          animation-delay: 7.184244791666667s;
          animation-timing-function: linear;
        }
      
        @keyframes keyframes11 {
          from {
            stroke: blue;
            stroke-dashoffset: 780;
            stroke-width: 128;
          }
          72% {
            animation-timing-function: step-end;
            stroke: blue;
            stroke-dashoffset: 0;
            stroke-width: 128;
          }
          to {
            stroke: black;
            stroke-width: 1024;
          }
        }
        #make-me-a-hanzi-animation-11 {
          animation: keyframes11 0.884765625s both;
          animation-delay: 8.076334635416668s;
          animation-timing-function: linear;
        }
      
        @keyframes keyframes12 {
          from {
            stroke: blue;
            stroke-dashoffset: 455;
            stroke-width: 128;
          }
          60% {
            animation-timing-function: step-end;
            stroke: blue;
            stroke-dashoffset: 0;
            stroke-width: 128;
          }
          to {
            stroke: black;
            stroke-width: 1024;
          }
        }
        #make-me-a-hanzi-animation-12 {
          animation: keyframes12 0.6202799479166666s both;
          animation-delay: 8.961100260416668s;
          animation-timing-function: linear;
        }
      
    </style>
    
      <path d="M 312 558 Q 439 594 444 597 Q 453 604 448 613 Q 441 623 412 630 Q 382 634 354 621 Q 314 605 271 593 Q 223 580 167 572 Q 133 565 158 550 Q 200 532 252 543 L 312 558 Z" fill="lightgray" />
    
      <path d="M 255 368 L 313 506 Q 319 522 324 530 Q 330 536 327 544 Q 323 553 312 558 C 288 576 248 573 252 543 Q 264 489 223 393 Q 217 380 212 367 L 188 317 Q 176 299 166 280 Q 135 228 51 122 Q 45 116 54 116 Q 99 129 197 260 Q 197 263 200 265 L 255 368 Z" fill="lightgray" />
    
      <path d="M 212 367 Q 205 370 191 373 Q 181 377 177 372 Q 171 368 177 353 Q 183 337 188 317 L 200 265 Q 207 225 213 175 Q 213 142 230 119 Q 245 98 250 112 Q 259 133 255 174 L 251 205 Q 239 299 238 331 Q 239 334 240 336 C 244 356 240 357 212 367 Z" fill="lightgray" />
    
      <path d="M 382 227 Q 400 309 423 334 Q 445 359 423 374 Q 360 407 357 407 Q 347 407 339 402 Q 317 387 255 368 C 226 359 209 335 239 337 L 240 336 Q 282 348 317 355 Q 339 359 346 351 Q 352 345 329 228 C 323 199 375 198 382 227 Z" fill="lightgray" />
    
      <path d="M 255 174 Q 261 181 391 201 Q 401 202 401 210 Q 401 217 382 227 C 362 238 358 236 329 228 L 251 205 C 222 197 228 160 255 174 Z" fill="lightgray" />
    
      <path d="M 679 633 Q 815 663 818 664 Q 825 671 822 678 Q 816 688 792 695 Q 767 701 740 692 Q 712 683 682 675 L 627 661 Q 572 652 508 648 Q 477 644 499 628 Q 532 610 603 620 Q 615 623 629 624 L 679 633 Z" fill="lightgray" />
    
      <path d="M 671 527 Q 783 549 791 556 Q 798 563 795 570 Q 788 580 763 586 Q 741 592 674 569 L 630 558 Q 582 548 532 544 Q 501 540 523 524 Q 560 503 628 519 L 630 519 L 671 527 Z" fill="lightgray" />
    
      <path d="M 667 458 Q 668 494 671 527 L 674 569 Q 675 602 679 633 L 682 675 Q 682 691 694 729 Q 697 739 679 751 Q 648 767 627 771 Q 614 774 606 767 Q 599 760 607 747 Q 625 722 625 705 L 627 661 L 629 624 Q 630 593 630 558 L 630 519 L 630 452 C 630 422 666 428 667 458 Z" fill="lightgray" />
    
      <path d="M 630 452 Q 539 442 435 427 Q 416 426 430 411 Q 442 399 457 394 Q 476 390 489 394 Q 651 439 931 439 L 933 439 Q 951 439 955 446 Q 959 456 945 468 Q 900 501 868 494 Q 798 478 673 459 Q 669 459 667 458 L 630 452 Z" fill="lightgray" />
    
      <path d="M 536 349 Q 530 355 514 362 Q 507 366 497 362 Q 491 358 496 348 Q 523 255 503 147 Q 494 138 502 95 Q 508 77 520 64 Q 529 54 537 64 Q 547 79 549 135 Q 550 301 552 312 L 552 324 C 552 337 552 337 536 349 Z" fill="lightgray" />
    
      <path d="M 745 124 Q 738 102 752 81 Q 765 53 774 54 Q 787 55 803 87 Q 816 112 815 132 Q 794 289 824 333 Q 834 348 827 356 Q 802 378 758 397 Q 743 401 722 394 Q 635 354 536 349 C 506 347 522 319 552 324 L 723 355 Q 730 355 736 351 Q 743 335 748 288 Q 752 152 745 124 Z" fill="lightgray" />
    
      <path d="M 619 222 Q 634 65 549 -15 Q 546 -16 544 -19 Q 513 -49 437 -90 Q 425 -94 422 -98 Q 418 -104 432 -106 Q 474 -110 563 -55 Q 668 11 675 184 Q 678 232 687 253 Q 691 263 683 271 Q 665 287 631 300 Q 610 309 595 302 Q 576 295 591 278 Q 619 251 619 222 Z" fill="lightgray" />
    
      <path d="M 694 0 Q 746 -42 811 -102 Q 827 -120 842 -123 Q 851 -124 857 -113 Q 867 -100 852 -60 Q 840 -17 704 26 Q 698 27 693 29 Q 684 33 683 21 Q 683 8 694 0 Z" fill="lightgray" />
    
    
      <clipPath id="make-me-a-hanzi-clip-0">
        <path d="M 312 558 Q 439 594 444 597 Q 453 604 448 613 Q 441 623 412 630 Q 382 634 354 621 Q 314 605 271 593 Q 223 580 167 572 Q 133 565 158 550 Q 200 532 252 543 L 312 558 Z" />
      </clipPath>
      <path clip-path="url(#make-me-a-hanzi-clip-0)" d="M 160 562 L 225 560 L 320 582 L 392 607 L 438 607" fill="none" id="make-me-a-hanzi-animation-0" stroke-dasharray="413 826" stroke-linecap="round" />
    
      <clipPath id="make-me-a-hanzi-clip-1">
        <path d="M 255 368 L 313 506 Q 319 522 324 530 Q 330 536 327 544 Q 323 553 312 558 C 288 576 248 573 252 543 Q 264 489 223 393 Q 217 380 212 367 L 188 317 Q 176 299 166 280 Q 135 228 51 122 Q 45 116 54 116 Q 99 129 197 260 Q 197 263 200 265 L 255 368 Z" />
      </clipPath>
      <path clip-path="url(#make-me-a-hanzi-clip-1)" d="M 313 540 L 285 520 L 252 410 L 177 260 L 94 157 L 56 121" fill="none" id="make-me-a-hanzi-animation-1" stroke-dasharray="630 1260" stroke-linecap="round" />
    
      <clipPath id="make-me-a-hanzi-clip-2">
        <path d="M 212 367 Q 205 370 191 373 Q 181 377 177 372 Q 171 368 177 353 Q 183 337 188 317 L 200 265 Q 207 225 213 175 Q 213 142 230 119 Q 245 98 250 112 Q 259 133 255 174 L 251 205 Q 239 299 238 331 Q 239 334 240 336 C 244 356 240 357 212 367 Z" />
      </clipPath>
      <path clip-path="url(#make-me-a-hanzi-clip-2)" d="M 185 365 L 202 348 L 213 325 L 241 117" fill="none" id="make-me-a-hanzi-animation-2" stroke-dasharray="387 774" stroke-linecap="round" />
    
      <clipPath id="make-me-a-hanzi-clip-3">
        <path d="M 382 227 Q 400 309 423 334 Q 445 359 423 374 Q 360 407 357 407 Q 347 407 339 402 Q 317 387 255 368 C 226 359 209 335 239 337 L 240 336 Q 282 348 317 355 Q 339 359 346 351 Q 352 345 329 228 C 323 199 375 198 382 227 Z" />
      </clipPath>
      <path clip-path="url(#make-me-a-hanzi-clip-3)" d="M 244 341 L 268 360 L 334 377 L 354 378 L 379 360 L 386 350 L 361 254 L 336 241" fill="none" id="make-me-a-hanzi-animation-3" stroke-dasharray="417 834" stroke-linecap="round" />
    
      <clipPath id="make-me-a-hanzi-clip-4">
        <path d="M 255 174 Q 261 181 391 201 Q 401 202 401 210 Q 401 217 382 227 C 362 238 358 236 329 228 L 251 205 C 222 197 228 160 255 174 Z" />
      </clipPath>
      <path clip-path="url(#make-me-a-hanzi-clip-4)" d="M 258 184 L 267 194 L 335 211 L 392 210" fill="none" id="make-me-a-hanzi-animation-4" stroke-dasharray="269 538" stroke-linecap="round" />
    
      <clipPath id="make-me-a-hanzi-clip-5">
        <path d="M 679 633 Q 815 663 818 664 Q 825 671 822 678 Q 816 688 792 695 Q 767 701 740 692 Q 712 683 682 675 L 627 661 Q 572 652 508 648 Q 477 644 499 628 Q 532 610 603 620 Q 615 623 629 624 L 679 633 Z" />
      </clipPath>
      <path clip-path="url(#make-me-a-hanzi-clip-5)" d="M 501 639 L 573 634 L 689 653 L 752 673 L 815 673" fill="none" id="make-me-a-hanzi-animation-5" stroke-dasharray="447 894" stroke-linecap="round" />
    
      <clipPath id="make-me-a-hanzi-clip-6">
        <path d="M 671 527 Q 783 549 791 556 Q 798 563 795 570 Q 788 580 763 586 Q 741 592 674 569 L 630 558 Q 582 548 532 544 Q 501 540 523 524 Q 560 503 628 519 L 630 519 L 671 527 Z" />
      </clipPath>
      <path clip-path="url(#make-me-a-hanzi-clip-6)" d="M 525 535 L 544 530 L 598 532 L 750 566 L 784 565" fill="none" id="make-me-a-hanzi-animation-6" stroke-dasharray="391 782" stroke-linecap="round" />
    
      <clipPath id="make-me-a-hanzi-clip-7">
        <path d="M 667 458 Q 668 494 671 527 L 674 569 Q 675 602 679 633 L 682 675 Q 682 691 694 729 Q 697 739 679 751 Q 648 767 627 771 Q 614 774 606 767 Q 599 760 607 747 Q 625 722 625 705 L 627 661 L 629 624 Q 630 593 630 558 L 630 519 L 630 452 C 630 422 666 428 667 458 Z" />
      </clipPath>
      <path clip-path="url(#make-me-a-hanzi-clip-7)" d="M 616 758 L 657 724 L 650 480 L 635 459" fill="none" id="make-me-a-hanzi-animation-7" stroke-dasharray="451 902" stroke-linecap="round" />
    
      <clipPath id="make-me-a-hanzi-clip-8">
        <path d="M 630 452 Q 539 442 435 427 Q 416 426 430 411 Q 442 399 457 394 Q 476 390 489 394 Q 651 439 931 439 L 933 439 Q 951 439 955 446 Q 959 456 945 468 Q 900 501 868 494 Q 798 478 673 459 Q 669 459 667 458 L 630 452 Z" />
      </clipPath>
      <path clip-path="url(#make-me-a-hanzi-clip-8)" d="M 432 419 L 474 412 L 567 429 L 877 467 L 946 451" fill="none" id="make-me-a-hanzi-animation-8" stroke-dasharray="648 1296" stroke-linecap="round" />
    
      <clipPath id="make-me-a-hanzi-clip-9">
        <path d="M 536 349 Q 530 355 514 362 Q 507 366 497 362 Q 491 358 496 348 Q 523 255 503 147 Q 494 138 502 95 Q 508 77 520 64 Q 529 54 537 64 Q 547 79 549 135 Q 550 301 552 312 L 552 324 C 552 337 552 337 536 349 Z" />
      </clipPath>
      <path clip-path="url(#make-me-a-hanzi-clip-9)" d="M 503 355 L 520 336 L 529 308 L 531 197 L 523 123 L 529 69" fill="none" id="make-me-a-hanzi-animation-9" stroke-dasharray="423 846" stroke-linecap="round" />
    
      <clipPath id="make-me-a-hanzi-clip-10">
        <path d="M 745 124 Q 738 102 752 81 Q 765 53 774 54 Q 787 55 803 87 Q 816 112 815 132 Q 794 289 824 333 Q 834 348 827 356 Q 802 378 758 397 Q 743 401 722 394 Q 635 354 536 349 C 506 347 522 319 552 324 L 723 355 Q 730 355 736 351 Q 743 335 748 288 Q 752 152 745 124 Z" />
      </clipPath>
      <path clip-path="url(#make-me-a-hanzi-clip-10)" d="M 544 346 L 558 337 L 589 341 L 722 374 L 749 373 L 767 358 L 781 340 L 781 127 L 775 65" fill="none" id="make-me-a-hanzi-animation-10" stroke-dasharray="661 1322" stroke-linecap="round" />
    
      <clipPath id="make-me-a-hanzi-clip-11">
        <path d="M 619 222 Q 634 65 549 -15 Q 546 -16 544 -19 Q 513 -49 437 -90 Q 425 -94 422 -98 Q 418 -104 432 -106 Q 474 -110 563 -55 Q 668 11 675 184 Q 678 232 687 253 Q 691 263 683 271 Q 665 287 631 300 Q 610 309 595 302 Q 576 295 591 278 Q 619 251 619 222 Z" />
      </clipPath>
      <path clip-path="url(#make-me-a-hanzi-clip-11)" d="M 597 289 L 618 282 L 650 246 L 645 137 L 628 61 L 595 2 L 558 -35 L 495 -75 L 428 -101" fill="none" id="make-me-a-hanzi-animation-11" stroke-dasharray="652 1304" stroke-linecap="round" />
    
      <clipPath id="make-me-a-hanzi-clip-12">
        <path d="M 694 0 Q 746 -42 811 -102 Q 827 -120 842 -123 Q 851 -124 857 -113 Q 867 -100 852 -60 Q 840 -17 704 26 Q 698 27 693 29 Q 684 33 683 21 Q 683 8 694 0 Z" />
      </clipPath>
      <path clip-path="url(#make-me-a-hanzi-clip-12)" d="M 694 17 L 803 -51 L 821 -68 L 843 -108" fill="none" id="make-me-a-hanzi-animation-12" stroke-dasharray="327 654" stroke-linecap="round" />
    
  </g>
</svg>