<svg xmlns="http://www.w3.org/2000/svg" version="1.1" viewBox="0 0 1024 1024">
  <g stroke="lightgray" stroke-dasharray="1,1" stroke-width="1" transform="scale(4, 4)">
    <line x1="0" y1="0" x2="256" y2="256" />
    <line x1="256" y1="0" x2="0" y2="256" />
    <line x1="128" y1="0" x2="128" y2="256" />
    <line x1="0" y1="128" x2="256" y2="128" />
  </g>
  <g transform="scale(1.0, -1.0) translate(0.0, -804.50)">
    <style type="text/css">
      
        @keyframes keyframes0 {
          from {
            stroke: blue;
            stroke-dashoffset: 566;
            stroke-width: 128;
          }
          65% {
            animation-timing-function: step-end;
            stroke: blue;
            stroke-dashoffset: 0;
            stroke-width: 128;
          }
          to {
            stroke: black;
            stroke-width: 1024;
          }
        }
        #make-me-a-hanzi-animation-0 {
          animation: keyframes0 0.7106119791666666s both;
          animation-delay: 0s;
          animation-timing-function: linear;
        }
      
        @keyframes keyframes1 {
          from {
            stroke: blue;
            stroke-dashoffset: 640;
            stroke-width: 128;
          }
          68% {
            animation-timing-function: step-end;
            stroke: blue;
            stroke-dashoffset: 0;
            stroke-width: 128;
          }
          to {
            stroke: black;
            stroke-width: 1024;
          }
        }
        #make-me-a-hanzi-animation-1 {
          animation: keyframes1 0.7708333333333334s both;
          animation-delay: 0.7106119791666666s;
          animation-timing-function: linear;
        }
      
        @keyframes keyframes2 {
          from {
            stroke: blue;
            stroke-dashoffset: 948;
            stroke-width: 128;
          }
          76% {
            animation-timing-function: step-end;
            stroke: blue;
            stroke-dashoffset: 0;
            stroke-width: 128;
          }
          to {
            stroke: black;
            stroke-width: 1024;
          }
        }
        #make-me-a-hanzi-animation-2 {
          animation: keyframes2 1.021484375s both;
          animation-delay: 1.4814453125s;
          animation-timing-function: linear;
        }
      
        @keyframes keyframes3 {
          from {
            stroke: blue;
            stroke-dashoffset: 618;
            stroke-width: 128;
          }
          67% {
            animation-timing-function: step-end;
            stroke: blue;
            stroke-dashoffset: 0;
            stroke-width: 128;
          }
          to {
            stroke: black;
            stroke-width: 1024;
          }
        }
        #make-me-a-hanzi-animation-3 {
          animation: keyframes3 0.7529296875s both;
          animation-delay: 2.5029296875s;
          animation-timing-function: linear;
        }
      
        @keyframes keyframes4 {
          from {
            stroke: blue;
            stroke-dashoffset: 386;
            stroke-width: 128;
          }
          56% {
            animation-timing-function: step-end;
            stroke: blue;
            stroke-dashoffset: 0;
            stroke-width: 128;
          }
          to {
            stroke: black;
            stroke-width: 1024;
          }
        }
        #make-me-a-hanzi-animation-4 {
          animation: keyframes4 0.5641276041666666s both;
          animation-delay: 3.255859375s;
          animation-timing-function: linear;
        }
      
        @keyframes keyframes5 {
          from {
            stroke: blue;
            stroke-dashoffset: 691;
            stroke-width: 128;
          }
          69% {
            animation-timing-function: step-end;
            stroke: blue;
            stroke-dashoffset: 0;
            stroke-width: 128;
          }
          to {
            stroke: black;
            stroke-width: 1024;
          }
        }
        #make-me-a-hanzi-animation-5 {
          animation: keyframes5 0.8123372395833334s both;
          animation-delay: 3.8199869791666665s;
          animation-timing-function: linear;
        }
      
        @keyframes keyframes6 {
          from {
            stroke: blue;
            stroke-dashoffset: 518;
            stroke-width: 128;
          }
          63% {
            animation-timing-function: step-end;
            stroke: blue;
            stroke-dashoffset: 0;
            stroke-width: 128;
          }
          to {
            stroke: black;
            stroke-width: 1024;
          }
        }
        #make-me-a-hanzi-animation-6 {
          animation: keyframes6 0.6715494791666666s both;
          animation-delay: 4.63232421875s;
          animation-timing-function: linear;
        }
      
        @keyframes keyframes7 {
          from {
            stroke: blue;
            stroke-dashoffset: 636;
            stroke-width: 128;
          }
          67% {
            animation-timing-function: step-end;
            stroke: blue;
            stroke-dashoffset: 0;
            stroke-width: 128;
          }
          to {
            stroke: black;
            stroke-width: 1024;
          }
        }
        #make-me-a-hanzi-animation-7 {
          animation: keyframes7 0.767578125s both;
          animation-delay: 5.303873697916667s;
          animation-timing-function: linear;
        }
      
        @keyframes keyframes8 {
          from {
            stroke: blue;
            stroke-dashoffset: 844;
            stroke-width: 128;
          }
          73% {
            animation-timing-function: step-end;
            stroke: blue;
            stroke-dashoffset: 0;
            stroke-width: 128;
          }
          to {
            stroke: black;
            stroke-width: 1024;
          }
        }
        #make-me-a-hanzi-animation-8 {
          animation: keyframes8 0.9368489583333334s both;
          animation-delay: 6.071451822916667s;
          animation-timing-function: linear;
        }
      
        @keyframes keyframes9 {
          from {
            stroke: blue;
            stroke-dashoffset: 448;
            stroke-width: 128;
          }
          59% {
            animation-timing-function: step-end;
            stroke: blue;
            stroke-dashoffset: 0;
            stroke-width: 128;
          }
          to {
            stroke: black;
            stroke-width: 1024;
          }
        }
        #make-me-a-hanzi-animation-9 {
          animation: keyframes9 0.6145833333333334s both;
          animation-delay: 7.00830078125s;
          animation-timing-function: linear;
        }
      
        @keyframes keyframes10 {
          from {
            stroke: blue;
            stroke-dashoffset: 448;
            stroke-width: 128;
          }
          59% {
            animation-timing-function: step-end;
            stroke: blue;
            stroke-dashoffset: 0;
            stroke-width: 128;
          }
          to {
            stroke: black;
            stroke-width: 1024;
          }
        }
        #make-me-a-hanzi-animation-10 {
          animation: keyframes10 0.6145833333333334s both;
          animation-delay: 7.622884114583333s;
          animation-timing-function: linear;
        }
      
        @keyframes keyframes11 {
          from {
            stroke: blue;
            stroke-dashoffset: 447;
            stroke-width: 128;
          }
          59% {
            animation-timing-function: step-end;
            stroke: blue;
            stroke-dashoffset: 0;
            stroke-width: 128;
          }
          to {
            stroke: black;
            stroke-width: 1024;
          }
        }
        #make-me-a-hanzi-animation-11 {
          animation: keyframes11 0.61376953125s both;
          animation-delay: 8.237467447916666s;
          animation-timing-function: linear;
        }
      
        @keyframes keyframes12 {
          from {
            stroke: blue;
            stroke-dashoffset: 840;
            stroke-width: 128;
          }
          73% {
            animation-timing-function: step-end;
            stroke: blue;
            stroke-dashoffset: 0;
            stroke-width: 128;
          }
          to {
            stroke: black;
            stroke-width: 1024;
          }
        }
        #make-me-a-hanzi-animation-12 {
          animation: keyframes12 0.93359375s both;
          animation-delay: 8.851236979166666s;
          animation-timing-function: linear;
        }
      
        @keyframes keyframes13 {
          from {
            stroke: blue;
            stroke-dashoffset: 498;
            stroke-width: 128;
          }
          62% {
            animation-timing-function: step-end;
            stroke: blue;
            stroke-dashoffset: 0;
            stroke-width: 128;
          }
          to {
            stroke: black;
            stroke-width: 1024;
          }
        }
        #make-me-a-hanzi-animation-13 {
          animation: keyframes13 0.6552734375s both;
          animation-delay: 9.784830729166666s;
          animation-timing-function: linear;
        }
      
        @keyframes keyframes14 {
          from {
            stroke: blue;
            stroke-dashoffset: 460;
            stroke-width: 128;
          }
          60% {
            animation-timing-function: step-end;
            stroke: blue;
            stroke-dashoffset: 0;
            stroke-width: 128;
          }
          to {
            stroke: black;
            stroke-width: 1024;
          }
        }
        #make-me-a-hanzi-animation-14 {
          animation: keyframes14 0.6243489583333334s both;
          animation-delay: 10.440104166666666s;
          animation-timing-function: linear;
        }
      
    </style>
    
      <path d="M 301 565 L 322 576 L 343 588 Q 359 598 378 606 Q 397 616 407 620 L 423 625 Q 432 628 435 632 Q 436 634 436 635 Q 436 640 431 647 Q 425 656 412 664 Q 399 672 387 678 Q 375 683 365 686 Q 361 687 358 687 Q 353 687 351 685 Q 348 683 344 674 Q 340 666 333 656 Q 327 647 311 634 Q 297 620 275 602 L 240 574 L 206 551 Q 185 536 173 531 L 151 519 Q 145 515 145 511 Q 145 510 146 508 Q 148 504 152 504 Q 155 504 159 506 L 185 514 Q 201 519 219 526 Q 235 532 247 538 Q 259 543 269 548 L 301 565 Z" fill="lightgray" />
    
      <path d="M 286 414 L 266 410 Q 250 406 241 404 L 183 392 Q 171 390 145 386 Q 119 382 101 378 L 80 375 Q 70 373 69 368 L 69 367 Q 69 363 73 358 Q 77 352 89 348 L 99 344 Q 111 338 121 336 Q 128 333 134 333 Q 138 333 141 334 L 177 346 L 207 355 Q 217 358 233 361 Q 248 364 271 370 L 331 382 L 347 385 L 371 390 Q 385 393 398 394 Q 410 396 425 396 Q 441 397 451 400 Q 461 403 463 408 Q 463 413 458 419 Q 452 426 446 428 Q 439 432 428 435 Q 417 438 410 439 Q 401 439 383 434 L 355 428 L 333 423 L 286 414 Z" fill="lightgray" />
    
      <path d="M 333 423 L 337 447 Q 338 458 341 477 Q 344 496 349 510 Q 352 520 352 526 L 352 529 Q 351 536 341 544 Q 331 552 322 556 L 301 565 C 273 577 258 576 269 548 L 273 539 Q 276 533 279 522 Q 281 512 282 502 L 285 468 Q 287 444 287 434 L 286 414 L 283 294 L 281 165 Q 281 150 279 122 Q 277 94 274 67 Q 271 39 268 18 Q 265 -3 260 -22 Q 255 -40 255 -47 Q 255 -58 259 -74 Q 263 -89 268 -106 Q 273 -122 281 -129 Q 285 -135 290 -135 L 291 -135 Q 295 -135 303 -125 Q 311 -114 317 -101 Q 323 -88 324 -60 L 324 -18 L 329 330 L 329 348 L 331 382 L 333 423 Z" fill="lightgray" />
    
      <path d="M 271 370 L 264 356 Q 254 336 232 302 Q 211 268 189 240 Q 167 212 146 189 Q 125 166 113 155 L 75 123 L 53 104 Q 49 100 49 96 L 49 93 Q 50 90 54 90 Q 57 90 61 92 L 88 104 Q 102 110 125 124 Q 148 138 169 156 Q 190 172 213 199 Q 235 225 250 246 Q 265 266 271 275 Q 277 284 283 294 C 341 388 284 397 271 370 Z" fill="lightgray" />
    
      <path d="M 329 330 L 353 300 Q 361 292 375 274 Q 389 255 397 248 Q 408 236 417 236 L 419 236 Q 428 237 436 246 Q 443 256 443 269 Q 441 282 437 292 Q 431 300 422 309 Q 413 318 402 323 Q 391 328 371 336 Q 351 344 345 345 L 333 348 L 329 348 C 314 349 314 349 329 330 Z" fill="lightgray" />
    
      <path d="M 687 562 L 713 566 Q 747 569 779 569 L 799 569 Q 819 569 835 568 L 859 568 Q 866 567 872 567 Q 886 567 891 571 Q 898 576 898 582 L 898 584 Q 898 589 893 593 Q 887 599 876 606 Q 865 614 854 618 Q 843 622 833 624 Q 823 624 798 618 Q 773 611 742 607 Q 711 604 693 602 L 641 593 L 621 590 L 589 585 Q 534 576 523 575 L 478 571 L 460 569 Q 452 568 450 564 Q 449 563 449 561 Q 449 558 452 554 Q 457 548 466 541 Q 475 534 489 530 Q 503 526 512 526 Q 517 526 530 532 Q 543 536 571 542 Q 599 548 609 550 L 638 556 L 687 562 Z" fill="lightgray" />
    
      <path d="M 671 477 L 687 562 L 693 602 L 695 612 Q 700 638 703 650 Q 707 663 713 672 Q 719 680 720 684 L 720 685 Q 720 689 716 696 Q 711 704 699 710 Q 687 718 674 721 Q 661 724 649 726 Q 641 726 637 724 Q 634 722 634 717 Q 635 712 639 703 Q 643 693 643 675 L 643 625 Q 642 614 641 593 L 638 556 L 631 469 C 629 439 665 448 671 477 Z" fill="lightgray" />
    
      <path d="M 551 458 L 533 464 Q 516 469 507 469 L 505 469 Q 499 468 497 466 Q 495 463 495 460 Q 495 456 500 447 Q 505 438 508 424 Q 511 410 512 395 L 521 91 C 522 61 561 65 561 95 L 561 149 L 564 175 L 563 244 L 564 268 L 563 336 L 563 362 L 565 431 C 566 453 566 453 551 458 Z" fill="lightgray" />
    
      <path d="M 808 120 L 825 355 Q 827 380 829 394 Q 832 408 836 419 Q 840 430 845 438 Q 851 448 851 452 Q 850 456 841 464 Q 831 472 813 482 Q 794 492 783 497 Q 772 502 767 502 Q 764 501 753 496 Q 741 492 723 488 L 703 483 L 671 477 L 631 469 L 551 458 C 521 454 535 427 565 431 L 723 454 Q 731 455 737 455 Q 751 455 757 449 Q 765 440 765 421 Q 764 401 763 378 L 763 358 L 763 282 L 763 258 L 761 192 L 761 166 L 759 116 C 758 86 806 90 808 120 Z" fill="lightgray" />
    
      <path d="M 563 336 L 596 335 L 599 335 Q 606 335 626 338 L 763 358 C 793 362 791 367 763 378 L 746 385 Q 734 390 720 390 L 716 390 Q 711 390 699 386 Q 687 384 661 379 L 563 362 C 533 357 533 337 563 336 Z" fill="lightgray" />
    
      <path d="M 563 244 L 595 240 L 633 244 L 763 258 C 793 261 791 271 763 282 L 747 288 Q 735 292 726 292 L 723 292 Q 714 292 687 288 L 564 268 C 534 263 533 248 563 244 Z" fill="lightgray" />
    
      <path d="M 561 149 L 601 147 L 631 150 L 761 166 C 791 170 790 184 761 192 L 743 197 Q 735 199 721 199 Q 711 198 686 194 Q 662 190 657 189 L 564 175 C 534 171 531 150 561 149 Z" fill="lightgray" />
    
      <path d="M 521 91 L 501 89 Q 500 88 479 88 L 419 84 L 395 82 Q 384 82 381 78 L 381 75 Q 381 72 385 67 Q 390 60 404 53 Q 419 46 435 41 Q 446 37 457 37 Q 461 37 465 38 Q 469 38 487 43 Q 506 48 536 52 L 622 64 Q 665 70 730 73 Q 783 76 813 76 L 827 76 Q 857 76 895 74 L 927 73 Q 936 72 943 72 Q 962 72 969 76 Q 979 82 979 87 Q 979 93 971 99 Q 963 106 949 113 Q 935 120 919 126 Q 904 130 888 130 L 881 130 L 839 124 Q 829 122 808 120 L 759 116 L 741 114 Q 735 113 679 107 Q 623 101 561 95 L 521 91 Z" fill="lightgray" />
    
      <path d="M 440 -131 Q 458 -124 471 -117 Q 485 -110 507 -96 Q 528 -82 547 -67 L 588 -34 Q 599 -26 607 -22 Q 614 -20 616 -18 Q 620 -15 620 -10 L 620 -8 Q 620 -2 613 4 Q 607 9 595 15 Q 585 21 575 24 L 561 28 L 552 31 L 547 31 Q 542 31 541 30 Q 539 27 539 18 Q 538 10 532 -2 Q 527 -14 513 -33 Q 499 -52 473 -77 Q 447 -102 429 -117 L 416 -128 Q 411 -133 411 -136 L 411 -138 Q 412 -140 415 -140 Q 418 -140 421 -139 L 440 -131 Z" fill="lightgray" />
    
      <path d="M 806 -76 Q 839 -118 850 -130 Q 861 -141 871 -141 Q 881 -140 888 -132 Q 895 -123 895 -105 L 895 -98 Q 895 -81 891 -68 Q 885 -53 869 -38 Q 852 -24 820 -6 Q 788 12 771 18 L 741 30 Q 739 31 737 31 Q 734 31 731 28 Q 730 27 730 25 Q 730 22 735 16 L 806 -76 Z" fill="lightgray" />
    
    
      <clipPath id="make-me-a-hanzi-clip-0">
        <path d="M 301 565 L 322 576 L 343 588 Q 359 598 378 606 Q 397 616 407 620 L 423 625 Q 432 628 435 632 Q 436 634 436 635 Q 436 640 431 647 Q 425 656 412 664 Q 399 672 387 678 Q 375 683 365 686 Q 361 687 358 687 Q 353 687 351 685 Q 348 683 344 674 Q 340 666 333 656 Q 327 647 311 634 Q 297 620 275 602 L 240 574 L 206 551 Q 185 536 173 531 L 151 519 Q 145 515 145 511 Q 145 510 146 508 Q 148 504 152 504 Q 155 504 159 506 L 185 514 Q 201 519 219 526 Q 235 532 247 538 Q 259 543 269 548 L 301 565 Z" />
      </clipPath>
      <path clip-path="url(#make-me-a-hanzi-clip-0)" d="M 424 637 L 370 644 L 256 562 L 152 512" fill="none" id="make-me-a-hanzi-animation-0" stroke-dasharray="438 876" stroke-linecap="round" />
    
      <clipPath id="make-me-a-hanzi-clip-1">
        <path d="M 286 414 L 266 410 Q 250 406 241 404 L 183 392 Q 171 390 145 386 Q 119 382 101 378 L 80 375 Q 70 373 69 368 L 69 367 Q 69 363 73 358 Q 77 352 89 348 L 99 344 Q 111 338 121 336 Q 128 333 134 333 Q 138 333 141 334 L 177 346 L 207 355 Q 217 358 233 361 Q 248 364 271 370 L 331 382 L 347 385 L 371 390 Q 385 393 398 394 Q 410 396 425 396 Q 441 397 451 400 Q 461 403 463 408 Q 463 413 458 419 Q 452 426 446 428 Q 439 432 428 435 Q 417 438 410 439 Q 401 439 383 434 L 355 428 L 333 423 L 286 414 Z" />
      </clipPath>
      <path clip-path="url(#make-me-a-hanzi-clip-1)" d="M 77 368 L 133 358 L 396 416 L 453 410" fill="none" id="make-me-a-hanzi-animation-1" stroke-dasharray="512 1024" stroke-linecap="round" />
    
      <clipPath id="make-me-a-hanzi-clip-2">
        <path d="M 333 423 L 337 447 Q 338 458 341 477 Q 344 496 349 510 Q 352 520 352 526 L 352 529 Q 351 536 341 544 Q 331 552 322 556 L 301 565 C 273 577 258 576 269 548 L 273 539 Q 276 533 279 522 Q 281 512 282 502 L 285 468 Q 287 444 287 434 L 286 414 L 283 294 L 281 165 Q 281 150 279 122 Q 277 94 274 67 Q 271 39 268 18 Q 265 -3 260 -22 Q 255 -40 255 -47 Q 255 -58 259 -74 Q 263 -89 268 -106 Q 273 -122 281 -129 Q 285 -135 290 -135 L 291 -135 Q 295 -135 303 -125 Q 311 -114 317 -101 Q 323 -88 324 -60 L 324 -18 L 329 330 L 329 348 L 331 382 L 333 423 Z" />
      </clipPath>
      <path clip-path="url(#make-me-a-hanzi-clip-2)" d="M 277 546 L 303 535 L 315 520 L 303 117 L 289 -46 L 291 -124" fill="none" id="make-me-a-hanzi-animation-2" stroke-dasharray="820 1640" stroke-linecap="round" />
    
      <clipPath id="make-me-a-hanzi-clip-3">
        <path d="M 271 370 L 264 356 Q 254 336 232 302 Q 211 268 189 240 Q 167 212 146 189 Q 125 166 113 155 L 75 123 L 53 104 Q 49 100 49 96 L 49 93 Q 50 90 54 90 Q 57 90 61 92 L 88 104 Q 102 110 125 124 Q 148 138 169 156 Q 190 172 213 199 Q 235 225 250 246 Q 265 266 271 275 Q 277 284 283 294 C 341 388 284 397 271 370 Z" />
      </clipPath>
      <path clip-path="url(#make-me-a-hanzi-clip-3)" d="M 279 365 L 260 301 L 181 195 L 122 141 L 53 95" fill="none" id="make-me-a-hanzi-animation-3" stroke-dasharray="490 980" stroke-linecap="round" />
    
      <clipPath id="make-me-a-hanzi-clip-4">
        <path d="M 329 330 L 353 300 Q 361 292 375 274 Q 389 255 397 248 Q 408 236 417 236 L 419 236 Q 428 237 436 246 Q 443 256 443 269 Q 441 282 437 292 Q 431 300 422 309 Q 413 318 402 323 Q 391 328 371 336 Q 351 344 345 345 L 333 348 L 329 348 C 314 349 314 349 329 330 Z" />
      </clipPath>
      <path clip-path="url(#make-me-a-hanzi-clip-4)" d="M 331 344 L 399 291 L 416 267 L 418 253" fill="none" id="make-me-a-hanzi-animation-4" stroke-dasharray="258 516" stroke-linecap="round" />
    
      <clipPath id="make-me-a-hanzi-clip-5">
        <path d="M 687 562 L 713 566 Q 747 569 779 569 L 799 569 Q 819 569 835 568 L 859 568 Q 866 567 872 567 Q 886 567 891 571 Q 898 576 898 582 L 898 584 Q 898 589 893 593 Q 887 599 876 606 Q 865 614 854 618 Q 843 622 833 624 Q 823 624 798 618 Q 773 611 742 607 Q 711 604 693 602 L 641 593 L 621 590 L 589 585 Q 534 576 523 575 L 478 571 L 460 569 Q 452 568 450 564 Q 449 563 449 561 Q 449 558 452 554 Q 457 548 466 541 Q 475 534 489 530 Q 503 526 512 526 Q 517 526 530 532 Q 543 536 571 542 Q 599 548 609 550 L 638 556 L 687 562 Z" />
      </clipPath>
      <path clip-path="url(#make-me-a-hanzi-clip-5)" d="M 457 560 L 509 550 L 651 577 L 823 596 L 886 583" fill="none" id="make-me-a-hanzi-animation-5" stroke-dasharray="563 1126" stroke-linecap="round" />
    
      <clipPath id="make-me-a-hanzi-clip-6">
        <path d="M 671 477 L 687 562 L 693 602 L 695 612 Q 700 638 703 650 Q 707 663 713 672 Q 719 680 720 684 L 720 685 Q 720 689 716 696 Q 711 704 699 710 Q 687 718 674 721 Q 661 724 649 726 Q 641 726 637 724 Q 634 722 634 717 Q 635 712 639 703 Q 643 693 643 675 L 643 625 Q 642 614 641 593 L 638 556 L 631 469 C 629 439 665 448 671 477 Z" />
      </clipPath>
      <path clip-path="url(#make-me-a-hanzi-clip-6)" d="M 644 717 L 678 682 L 655 502 L 637 476" fill="none" id="make-me-a-hanzi-animation-6" stroke-dasharray="390 780" stroke-linecap="round" />
    
      <clipPath id="make-me-a-hanzi-clip-7">
        <path d="M 551 458 L 533 464 Q 516 469 507 469 L 505 469 Q 499 468 497 466 Q 495 463 495 460 Q 495 456 500 447 Q 505 438 508 424 Q 511 410 512 395 L 521 91 C 522 61 561 65 561 95 L 561 149 L 564 175 L 563 244 L 564 268 L 563 336 L 563 362 L 565 431 C 566 453 566 453 551 458 Z" />
      </clipPath>
      <path clip-path="url(#make-me-a-hanzi-clip-7)" d="M 504 460 L 532 436 L 538 411 L 541 115 L 527 99" fill="none" id="make-me-a-hanzi-animation-7" stroke-dasharray="508 1016" stroke-linecap="round" />
    
      <clipPath id="make-me-a-hanzi-clip-8">
        <path d="M 808 120 L 825 355 Q 827 380 829 394 Q 832 408 836 419 Q 840 430 845 438 Q 851 448 851 452 Q 850 456 841 464 Q 831 472 813 482 Q 794 492 783 497 Q 772 502 767 502 Q 764 501 753 496 Q 741 492 723 488 L 703 483 L 671 477 L 631 469 L 551 458 C 521 454 535 427 565 431 L 723 454 Q 731 455 737 455 Q 751 455 757 449 Q 765 440 765 421 Q 764 401 763 378 L 763 358 L 763 282 L 763 258 L 761 192 L 761 166 L 759 116 C 758 86 806 90 808 120 Z" />
      </clipPath>
      <path clip-path="url(#make-me-a-hanzi-clip-8)" d="M 558 453 L 587 448 L 752 475 L 769 474 L 800 446 L 785 143 L 765 122" fill="none" id="make-me-a-hanzi-animation-8" stroke-dasharray="716 1432" stroke-linecap="round" />
    
      <clipPath id="make-me-a-hanzi-clip-9">
        <path d="M 563 336 L 596 335 L 599 335 Q 606 335 626 338 L 763 358 C 793 362 791 367 763 378 L 746 385 Q 734 390 720 390 L 716 390 Q 711 390 699 386 Q 687 384 661 379 L 563 362 C 533 357 533 337 563 336 Z" />
      </clipPath>
      <path clip-path="url(#make-me-a-hanzi-clip-9)" d="M 569 343 L 578 350 L 715 371 L 750 369 L 754 363" fill="none" id="make-me-a-hanzi-animation-9" stroke-dasharray="320 640" stroke-linecap="round" />
    
      <clipPath id="make-me-a-hanzi-clip-10">
        <path d="M 563 244 L 595 240 L 633 244 L 763 258 C 793 261 791 271 763 282 L 747 288 Q 735 292 726 292 L 723 292 Q 714 292 687 288 L 564 268 C 534 263 533 248 563 244 Z" />
      </clipPath>
      <path clip-path="url(#make-me-a-hanzi-clip-10)" d="M 569 250 L 578 256 L 720 273 L 746 272 L 755 264" fill="none" id="make-me-a-hanzi-animation-10" stroke-dasharray="320 640" stroke-linecap="round" />
    
      <clipPath id="make-me-a-hanzi-clip-11">
        <path d="M 561 149 L 601 147 L 631 150 L 761 166 C 791 170 790 184 761 192 L 743 197 Q 735 199 721 199 Q 711 198 686 194 Q 662 190 657 189 L 564 175 C 534 171 531 150 561 149 Z" />
      </clipPath>
      <path clip-path="url(#make-me-a-hanzi-clip-11)" d="M 568 155 L 577 163 L 743 180 L 754 186" fill="none" id="make-me-a-hanzi-animation-11" stroke-dasharray="319 638" stroke-linecap="round" />
    
      <clipPath id="make-me-a-hanzi-clip-12">
        <path d="M 521 91 L 501 89 Q 500 88 479 88 L 419 84 L 395 82 Q 384 82 381 78 L 381 75 Q 381 72 385 67 Q 390 60 404 53 Q 419 46 435 41 Q 446 37 457 37 Q 461 37 465 38 Q 469 38 487 43 Q 506 48 536 52 L 622 64 Q 665 70 730 73 Q 783 76 813 76 L 827 76 Q 857 76 895 74 L 927 73 Q 936 72 943 72 Q 962 72 969 76 Q 979 82 979 87 Q 979 93 971 99 Q 963 106 949 113 Q 935 120 919 126 Q 904 130 888 130 L 881 130 L 839 124 Q 829 122 808 120 L 759 116 L 741 114 Q 735 113 679 107 Q 623 101 561 95 L 521 91 Z" />
      </clipPath>
      <path clip-path="url(#make-me-a-hanzi-clip-12)" d="M 389 77 L 396 71 L 454 62 L 693 92 L 864 102 L 906 101 L 967 88" fill="none" id="make-me-a-hanzi-animation-12" stroke-dasharray="712 1424" stroke-linecap="round" />
    
      <clipPath id="make-me-a-hanzi-clip-13">
        <path d="M 440 -131 Q 458 -124 471 -117 Q 485 -110 507 -96 Q 528 -82 547 -67 L 588 -34 Q 599 -26 607 -22 Q 614 -20 616 -18 Q 620 -15 620 -10 L 620 -8 Q 620 -2 613 4 Q 607 9 595 15 Q 585 21 575 24 L 561 28 L 552 31 L 547 31 Q 542 31 541 30 Q 539 27 539 18 Q 538 10 532 -2 Q 527 -14 513 -33 Q 499 -52 473 -77 Q 447 -102 429 -117 L 416 -128 Q 411 -133 411 -136 L 411 -138 Q 412 -140 415 -140 Q 418 -140 421 -139 L 440 -131 Z" />
      </clipPath>
      <path clip-path="url(#make-me-a-hanzi-clip-13)" d="M 608 -9 L 566 -9 L 511 -69 L 414 -137" fill="none" id="make-me-a-hanzi-animation-13" stroke-dasharray="370 740" stroke-linecap="round" />
    
      <clipPath id="make-me-a-hanzi-clip-14">
        <path d="M 806 -76 Q 839 -118 850 -130 Q 861 -141 871 -141 Q 881 -140 888 -132 Q 895 -123 895 -105 L 895 -98 Q 895 -81 891 -68 Q 885 -53 869 -38 Q 852 -24 820 -6 Q 788 12 771 18 L 741 30 Q 739 31 737 31 Q 734 31 731 28 Q 730 27 730 25 Q 730 22 735 16 L 806 -76 Z" />
      </clipPath>
      <path clip-path="url(#make-me-a-hanzi-clip-14)" d="M 737 25 L 847 -68 L 858 -82 L 871 -122" fill="none" id="make-me-a-hanzi-animation-14" stroke-dasharray="332 664" stroke-linecap="round" />
    
  </g>
</svg>