<svg xmlns="http://www.w3.org/2000/svg" version="1.1" viewBox="0 0 1024 1024">
  <g stroke="lightgray" stroke-dasharray="1,1" stroke-width="1" transform="scale(4, 4)">
    <line x1="0" y1="0" x2="256" y2="256" />
    <line x1="256" y1="0" x2="0" y2="256" />
    <line x1="128" y1="0" x2="128" y2="256" />
    <line x1="0" y1="128" x2="256" y2="128" />
  </g>
  <g transform="scale(1.0, -1.0) translate(0.0, -812.50)">
    <style type="text/css">
      
        @keyframes keyframes0 {
          from {
            stroke: blue;
            stroke-dashoffset: 527;
            stroke-width: 128;
          }
          63% {
            animation-timing-function: step-end;
            stroke: blue;
            stroke-dashoffset: 0;
            stroke-width: 128;
          }
          to {
            stroke: black;
            stroke-width: 1024;
          }
        }
        #make-me-a-hanzi-animation-0 {
          animation: keyframes0 0.6788736979166666s both;
          animation-delay: 0s;
          animation-timing-function: linear;
        }
      
        @keyframes keyframes1 {
          from {
            stroke: blue;
            stroke-dashoffset: 679;
            stroke-width: 128;
          }
          69% {
            animation-timing-function: step-end;
            stroke: blue;
            stroke-dashoffset: 0;
            stroke-width: 128;
          }
          to {
            stroke: black;
            stroke-width: 1024;
          }
        }
        #make-me-a-hanzi-animation-1 {
          animation: keyframes1 0.8025716145833334s both;
          animation-delay: 0.6788736979166666s;
          animation-timing-function: linear;
        }
      
        @keyframes keyframes2 {
          from {
            stroke: blue;
            stroke-dashoffset: 920;
            stroke-width: 128;
          }
          75% {
            animation-timing-function: step-end;
            stroke: blue;
            stroke-dashoffset: 0;
            stroke-width: 128;
          }
          to {
            stroke: black;
            stroke-width: 1024;
          }
        }
        #make-me-a-hanzi-animation-2 {
          animation: keyframes2 0.9986979166666666s both;
          animation-delay: 1.4814453125s;
          animation-timing-function: linear;
        }
      
        @keyframes keyframes3 {
          from {
            stroke: blue;
            stroke-dashoffset: 763;
            stroke-width: 128;
          }
          71% {
            animation-timing-function: step-end;
            stroke: blue;
            stroke-dashoffset: 0;
            stroke-width: 128;
          }
          to {
            stroke: black;
            stroke-width: 1024;
          }
        }
        #make-me-a-hanzi-animation-3 {
          animation: keyframes3 0.8709309895833334s both;
          animation-delay: 2.4801432291666665s;
          animation-timing-function: linear;
        }
      
        @keyframes keyframes4 {
          from {
            stroke: blue;
            stroke-dashoffset: 371;
            stroke-width: 128;
          }
          55% {
            animation-timing-function: step-end;
            stroke: blue;
            stroke-dashoffset: 0;
            stroke-width: 128;
          }
          to {
            stroke: black;
            stroke-width: 1024;
          }
        }
        #make-me-a-hanzi-animation-4 {
          animation: keyframes4 0.5519205729166666s both;
          animation-delay: 3.35107421875s;
          animation-timing-function: linear;
        }
      
        @keyframes keyframes5 {
          from {
            stroke: blue;
            stroke-dashoffset: 691;
            stroke-width: 128;
          }
          69% {
            animation-timing-function: step-end;
            stroke: blue;
            stroke-dashoffset: 0;
            stroke-width: 128;
          }
          to {
            stroke: black;
            stroke-width: 1024;
          }
        }
        #make-me-a-hanzi-animation-5 {
          animation: keyframes5 0.8123372395833334s both;
          animation-delay: 3.9029947916666665s;
          animation-timing-function: linear;
        }
      
        @keyframes keyframes6 {
          from {
            stroke: blue;
            stroke-dashoffset: 431;
            stroke-width: 128;
          }
          58% {
            animation-timing-function: step-end;
            stroke: blue;
            stroke-dashoffset: 0;
            stroke-width: 128;
          }
          to {
            stroke: black;
            stroke-width: 1024;
          }
        }
        #make-me-a-hanzi-animation-6 {
          animation: keyframes6 0.6007486979166666s both;
          animation-delay: 4.71533203125s;
          animation-timing-function: linear;
        }
      
        @keyframes keyframes7 {
          from {
            stroke: blue;
            stroke-dashoffset: 522;
            stroke-width: 128;
          }
          63% {
            animation-timing-function: step-end;
            stroke: blue;
            stroke-dashoffset: 0;
            stroke-width: 128;
          }
          to {
            stroke: black;
            stroke-width: 1024;
          }
        }
        #make-me-a-hanzi-animation-7 {
          animation: keyframes7 0.6748046875s both;
          animation-delay: 5.316080729166667s;
          animation-timing-function: linear;
        }
      
        @keyframes keyframes8 {
          from {
            stroke: blue;
            stroke-dashoffset: 1013;
            stroke-width: 128;
          }
          77% {
            animation-timing-function: step-end;
            stroke: blue;
            stroke-dashoffset: 0;
            stroke-width: 128;
          }
          to {
            stroke: black;
            stroke-width: 1024;
          }
        }
        #make-me-a-hanzi-animation-8 {
          animation: keyframes8 1.0743815104166667s both;
          animation-delay: 5.990885416666667s;
          animation-timing-function: linear;
        }
      
    </style>
    
      <path d="M 208 627 Q 196 627 196 618 Q 196 616 204 601 Q 219 570 219 534 Q 219 467 216 442 Q 204 410 204 402 Q 204 392 212 373 Q 225 347 240 347 Q 251 347 256 361 Q 263 379 263 423 L 263 587 Q 263 607 250 616 Q 232 625 208 627 Z" fill="lightgray" />
    
      <path d="M 343 719 Q 332 718 332 706 Q 332 703 344 678 Q 355 651 355 618 L 355 484 Q 355 431 346 381 Q 336 360 336 350 Q 336 337 346 314 Q 361 287 368 287 Q 384 287 391 308 Q 394 335 395 372 L 395 582 Q 395 624 403 683 Q 403 696 375 708 Q 354 719 343 719 Z" fill="lightgray" />
    
      <path d="M 695 694 Q 684 693 669 684 Q 588 648 479 631 Q 468 628 468 622 Q 469 612 488 605 Q 490 603 497 602 L 498 602 L 531 601 Q 555 608 664 647 Q 676 647 676 639 Q 676 619 660 568 Q 650 534 639 508 L 611 460 Q 605 451 597 443 Q 553 399 466 372 Q 452 367 452 362 Q 452 356 475 354 Q 514 356 565 376 Q 607 394 640 423 L 682 475 Q 700 507 716 554 Q 732 605 752 634 Q 764 648 764 654 Q 764 662 733 679 Q 701 694 695 694 Z" fill="lightgray" />
    
      <path d="M 498 602 Q 506 599 554 534 Q 585 493 611 460 L 640 423 Q 690 360 714 342 Q 730 331 739 331 Q 777 331 847 342 Q 928 352 928 362 Q 928 367 886 377 Q 809 394 755 427 Q 722 445 682 475 L 639 508 Q 600 538 556 578 Q 542 592 531 601 C 508 621 476 623 498 602 Z" fill="lightgray" />
    
      <path d="M 456 310 Q 435 310 435 306 Q 435 304 465 264 Q 500 222 521 219 C 529 217 529 217 535 221 Q 544 225 544 238 Q 544 264 535 280 Q 522 297 502 305 Q 478 310 456 310 Z" fill="lightgray" />
    
      <path d="M 521 219 Q 436 205 296 190 Q 284 188 284 178 Q 284 171 308 164 Q 336 154 359 154 Q 382 154 421 161 Q 470 167 600 182 L 633 186 Q 649 188 668 190 Q 694 194 724 206 Q 738 213 739 226 Q 736 249 672 251 Q 656 251 622 240 Q 590 231 535 221 L 521 219 Z" fill="lightgray" />
    
      <path d="M 457 -48 Q 464 -38 464 -13 Q 464 26 410 59 Q 345 94 332 94 Q 328 94 328 91 Q 328 85 348 47 Q 391 -32 422 -51 C 447 -68 447 -68 457 -48 Z" fill="lightgray" />
    
      <path d="M 600 182 Q 603 167 603 150 Q 603 118 585 74 Q 562 15 530 -32 L 522 -42 C 503 -65 530 -58 553 -39 Q 565 -30 582 -11 Q 614 23 641 69 Q 669 113 679 129 Q 687 139 687 142 Q 687 154 650 177 Q 640 182 633 186 C 607 200 596 206 600 182 Z" fill="lightgray" />
    
      <path d="M 522 -42 Q 493 -45 457 -48 L 422 -51 Q 398 -54 372 -56 Q 231 -72 152 -78 Q 139 -80 139 -85 Q 140 -89 163 -106 Q 181 -118 196 -118 Q 209 -118 254 -111 Q 370 -95 515 -87 Q 653 -78 768 -78 L 809 -78 Q 857 -81 880 -81 Q 910 -80 911 -66 Q 908 -49 881 -33 Q 853 -18 831 -18 Q 815 -18 788 -21 Q 743 -25 696 -28 Q 660 -31 553 -39 L 522 -42 Z" fill="lightgray" />
    
    
      <clipPath id="make-me-a-hanzi-clip-0">
        <path d="M 208 627 Q 196 627 196 618 Q 196 616 204 601 Q 219 570 219 534 Q 219 467 216 442 Q 204 410 204 402 Q 204 392 212 373 Q 225 347 240 347 Q 251 347 256 361 Q 263 379 263 423 L 263 587 Q 263 607 250 616 Q 232 625 208 627 Z" />
      </clipPath>
      <path clip-path="url(#make-me-a-hanzi-clip-0)" d="M 205 618 L 235 594 L 239 580 L 241 460 L 233 400 L 239 363" fill="none" id="make-me-a-hanzi-animation-0" stroke-dasharray="399 798" stroke-linecap="round" />
    
      <clipPath id="make-me-a-hanzi-clip-1">
        <path d="M 343 719 Q 332 718 332 706 Q 332 703 344 678 Q 355 651 355 618 L 355 484 Q 355 431 346 381 Q 336 360 336 350 Q 336 337 346 314 Q 361 287 368 287 Q 384 287 391 308 Q 394 335 395 372 L 395 582 Q 395 624 403 683 Q 403 696 375 708 Q 354 719 343 719 Z" />
      </clipPath>
      <path clip-path="url(#make-me-a-hanzi-clip-1)" d="M 343 708 L 374 677 L 376 470 L 365 348 L 371 299" fill="none" id="make-me-a-hanzi-animation-1" stroke-dasharray="551 1102" stroke-linecap="round" />
    
      <clipPath id="make-me-a-hanzi-clip-2">
        <path d="M 695 694 Q 684 693 669 684 Q 588 648 479 631 Q 468 628 468 622 Q 469 612 488 605 Q 490 603 497 602 L 498 602 L 531 601 Q 555 608 664 647 Q 676 647 676 639 Q 676 619 660 568 Q 650 534 639 508 L 611 460 Q 605 451 597 443 Q 553 399 466 372 Q 452 367 452 362 Q 452 356 475 354 Q 514 356 565 376 Q 607 394 640 423 L 682 475 Q 700 507 716 554 Q 732 605 752 634 Q 764 648 764 654 Q 764 662 733 679 Q 701 694 695 694 Z" />
      </clipPath>
      <path clip-path="url(#make-me-a-hanzi-clip-2)" d="M 478 621 L 529 620 L 670 665 L 697 662 L 714 646 L 667 504 L 621 435 L 589 409 L 536 381 L 457 362" fill="none" id="make-me-a-hanzi-animation-2" stroke-dasharray="792 1584" stroke-linecap="round" />
    
      <clipPath id="make-me-a-hanzi-clip-3">
        <path d="M 498 602 Q 506 599 554 534 Q 585 493 611 460 L 640 423 Q 690 360 714 342 Q 730 331 739 331 Q 777 331 847 342 Q 928 352 928 362 Q 928 367 886 377 Q 809 394 755 427 Q 722 445 682 475 L 639 508 Q 600 538 556 578 Q 542 592 531 601 C 508 621 476 623 498 602 Z" />
      </clipPath>
      <path clip-path="url(#make-me-a-hanzi-clip-3)" d="M 506 598 L 527 589 L 557 552 L 674 436 L 745 378 L 834 364 L 924 362" fill="none" id="make-me-a-hanzi-animation-3" stroke-dasharray="635 1270" stroke-linecap="round" />
    
      <clipPath id="make-me-a-hanzi-clip-4">
        <path d="M 456 310 Q 435 310 435 306 Q 435 304 465 264 Q 500 222 521 219 C 529 217 529 217 535 221 Q 544 225 544 238 Q 544 264 535 280 Q 522 297 502 305 Q 478 310 456 310 Z" />
      </clipPath>
      <path clip-path="url(#make-me-a-hanzi-clip-4)" d="M 439 306 L 502 270 L 528 236" fill="none" id="make-me-a-hanzi-animation-4" stroke-dasharray="243 486" stroke-linecap="round" />
    
      <clipPath id="make-me-a-hanzi-clip-5">
        <path d="M 521 219 Q 436 205 296 190 Q 284 188 284 178 Q 284 171 308 164 Q 336 154 359 154 Q 382 154 421 161 Q 470 167 600 182 L 633 186 Q 649 188 668 190 Q 694 194 724 206 Q 738 213 739 226 Q 736 249 672 251 Q 656 251 622 240 Q 590 231 535 221 L 521 219 Z" />
      </clipPath>
      <path clip-path="url(#make-me-a-hanzi-clip-5)" d="M 293 179 L 391 178 L 725 225" fill="none" id="make-me-a-hanzi-animation-5" stroke-dasharray="563 1126" stroke-linecap="round" />
    
      <clipPath id="make-me-a-hanzi-clip-6">
        <path d="M 457 -48 Q 464 -38 464 -13 Q 464 26 410 59 Q 345 94 332 94 Q 328 94 328 91 Q 328 85 348 47 Q 391 -32 422 -51 C 447 -68 447 -68 457 -48 Z" />
      </clipPath>
      <path clip-path="url(#make-me-a-hanzi-clip-6)" d="M 332 89 L 400 26 L 450 -40" fill="none" id="make-me-a-hanzi-animation-6" stroke-dasharray="303 606" stroke-linecap="round" />
    
      <clipPath id="make-me-a-hanzi-clip-7">
        <path d="M 600 182 Q 603 167 603 150 Q 603 118 585 74 Q 562 15 530 -32 L 522 -42 C 503 -65 530 -58 553 -39 Q 565 -30 582 -11 Q 614 23 641 69 Q 669 113 679 129 Q 687 139 687 142 Q 687 154 650 177 Q 640 182 633 186 C 607 200 596 206 600 182 Z" />
      </clipPath>
      <path clip-path="url(#make-me-a-hanzi-clip-7)" d="M 606 178 L 628 160 L 640 136 L 595 39 L 550 -26 L 530 -40" fill="none" id="make-me-a-hanzi-animation-7" stroke-dasharray="394 788" stroke-linecap="round" />
    
      <clipPath id="make-me-a-hanzi-clip-8">
        <path d="M 522 -42 Q 493 -45 457 -48 L 422 -51 Q 398 -54 372 -56 Q 231 -72 152 -78 Q 139 -80 139 -85 Q 140 -89 163 -106 Q 181 -118 196 -118 Q 209 -118 254 -111 Q 370 -95 515 -87 Q 653 -78 768 -78 L 809 -78 Q 857 -81 880 -81 Q 910 -80 911 -66 Q 908 -49 881 -33 Q 853 -18 831 -18 Q 815 -18 788 -21 Q 743 -25 696 -28 Q 660 -31 553 -39 L 522 -42 Z" />
      </clipPath>
      <path clip-path="url(#make-me-a-hanzi-clip-8)" d="M 147 -84 L 199 -96 L 566 -60 L 814 -48 L 842 -49 L 898 -65" fill="none" id="make-me-a-hanzi-animation-8" stroke-dasharray="885 1770" stroke-linecap="round" />
    
  </g>
</svg>