<svg xmlns="http://www.w3.org/2000/svg" version="1.1" viewBox="0 0 1024 1024">
  <g stroke="lightgray" stroke-dasharray="1,1" stroke-width="1" transform="scale(4, 4)">
    <line x1="0" y1="0" x2="256" y2="256" />
    <line x1="256" y1="0" x2="0" y2="256" />
    <line x1="128" y1="0" x2="128" y2="256" />
    <line x1="0" y1="128" x2="256" y2="128" />
  </g>
  <g transform="scale(1.0, -1.0) translate(0.0, -830.00)">
    <style type="text/css">
      
        @keyframes keyframes0 {
          from {
            stroke: blue;
            stroke-dashoffset: 360;
            stroke-width: 128;
          }
          54% {
            animation-timing-function: step-end;
            stroke: blue;
            stroke-dashoffset: 0;
            stroke-width: 128;
          }
          to {
            stroke: black;
            stroke-width: 1024;
          }
        }
        #make-me-a-hanzi-animation-0 {
          animation: keyframes0 0.54296875s both;
          animation-delay: 0s;
          animation-timing-function: linear;
        }
      
        @keyframes keyframes1 {
          from {
            stroke: blue;
            stroke-dashoffset: 389;
            stroke-width: 128;
          }
          56% {
            animation-timing-function: step-end;
            stroke: blue;
            stroke-dashoffset: 0;
            stroke-width: 128;
          }
          to {
            stroke: black;
            stroke-width: 1024;
          }
        }
        #make-me-a-hanzi-animation-1 {
          animation: keyframes1 0.5665690104166666s both;
          animation-delay: 0.54296875s;
          animation-timing-function: linear;
        }
      
        @keyframes keyframes2 {
          from {
            stroke: blue;
            stroke-dashoffset: 582;
            stroke-width: 128;
          }
          65% {
            animation-timing-function: step-end;
            stroke: blue;
            stroke-dashoffset: 0;
            stroke-width: 128;
          }
          to {
            stroke: black;
            stroke-width: 1024;
          }
        }
        #make-me-a-hanzi-animation-2 {
          animation: keyframes2 0.7236328125s both;
          animation-delay: 1.1095377604166665s;
          animation-timing-function: linear;
        }
      
        @keyframes keyframes3 {
          from {
            stroke: blue;
            stroke-dashoffset: 1104;
            stroke-width: 128;
          }
          78% {
            animation-timing-function: step-end;
            stroke: blue;
            stroke-dashoffset: 0;
            stroke-width: 128;
          }
          to {
            stroke: black;
            stroke-width: 1024;
          }
        }
        #make-me-a-hanzi-animation-3 {
          animation: keyframes3 1.1484375s both;
          animation-delay: 1.8331705729166665s;
          animation-timing-function: linear;
        }
      
        @keyframes keyframes4 {
          from {
            stroke: blue;
            stroke-dashoffset: 635;
            stroke-width: 128;
          }
          67% {
            animation-timing-function: step-end;
            stroke: blue;
            stroke-dashoffset: 0;
            stroke-width: 128;
          }
          to {
            stroke: black;
            stroke-width: 1024;
          }
        }
        #make-me-a-hanzi-animation-4 {
          animation: keyframes4 0.7667643229166666s both;
          animation-delay: 2.9816080729166665s;
          animation-timing-function: linear;
        }
      
        @keyframes keyframes5 {
          from {
            stroke: blue;
            stroke-dashoffset: 346;
            stroke-width: 128;
          }
          53% {
            animation-timing-function: step-end;
            stroke: blue;
            stroke-dashoffset: 0;
            stroke-width: 128;
          }
          to {
            stroke: black;
            stroke-width: 1024;
          }
        }
        #make-me-a-hanzi-animation-5 {
          animation: keyframes5 0.5315755208333334s both;
          animation-delay: 3.748372395833333s;
          animation-timing-function: linear;
        }
      
        @keyframes keyframes6 {
          from {
            stroke: blue;
            stroke-dashoffset: 724;
            stroke-width: 128;
          }
          70% {
            animation-timing-function: step-end;
            stroke: blue;
            stroke-dashoffset: 0;
            stroke-width: 128;
          }
          to {
            stroke: black;
            stroke-width: 1024;
          }
        }
        #make-me-a-hanzi-animation-6 {
          animation: keyframes6 0.8391927083333334s both;
          animation-delay: 4.279947916666666s;
          animation-timing-function: linear;
        }
      
        @keyframes keyframes7 {
          from {
            stroke: blue;
            stroke-dashoffset: 391;
            stroke-width: 128;
          }
          56% {
            animation-timing-function: step-end;
            stroke: blue;
            stroke-dashoffset: 0;
            stroke-width: 128;
          }
          to {
            stroke: black;
            stroke-width: 1024;
          }
        }
        #make-me-a-hanzi-animation-7 {
          animation: keyframes7 0.5681966145833334s both;
          animation-delay: 5.119140624999999s;
          animation-timing-function: linear;
        }
      
        @keyframes keyframes8 {
          from {
            stroke: blue;
            stroke-dashoffset: 731;
            stroke-width: 128;
          }
          70% {
            animation-timing-function: step-end;
            stroke: blue;
            stroke-dashoffset: 0;
            stroke-width: 128;
          }
          to {
            stroke: black;
            stroke-width: 1024;
          }
        }
        #make-me-a-hanzi-animation-8 {
          animation: keyframes8 0.8448893229166666s both;
          animation-delay: 5.687337239583332s;
          animation-timing-function: linear;
        }
      
        @keyframes keyframes9 {
          from {
            stroke: blue;
            stroke-dashoffset: 693;
            stroke-width: 128;
          }
          69% {
            animation-timing-function: step-end;
            stroke: blue;
            stroke-dashoffset: 0;
            stroke-width: 128;
          }
          to {
            stroke: black;
            stroke-width: 1024;
          }
        }
        #make-me-a-hanzi-animation-9 {
          animation: keyframes9 0.81396484375s both;
          animation-delay: 6.532226562499999s;
          animation-timing-function: linear;
        }
      
        @keyframes keyframes10 {
          from {
            stroke: blue;
            stroke-dashoffset: 644;
            stroke-width: 128;
          }
          68% {
            animation-timing-function: step-end;
            stroke: blue;
            stroke-dashoffset: 0;
            stroke-width: 128;
          }
          to {
            stroke: black;
            stroke-width: 1024;
          }
        }
        #make-me-a-hanzi-animation-10 {
          animation: keyframes10 0.7740885416666666s both;
          animation-delay: 7.346191406249999s;
          animation-timing-function: linear;
        }
      
        @keyframes keyframes11 {
          from {
            stroke: blue;
            stroke-dashoffset: 491;
            stroke-width: 128;
          }
          62% {
            animation-timing-function: step-end;
            stroke: blue;
            stroke-dashoffset: 0;
            stroke-width: 128;
          }
          to {
            stroke: black;
            stroke-width: 1024;
          }
        }
        #make-me-a-hanzi-animation-11 {
          animation: keyframes11 0.6495768229166666s both;
          animation-delay: 8.120279947916666s;
          animation-timing-function: linear;
        }
      
        @keyframes keyframes12 {
          from {
            stroke: blue;
            stroke-dashoffset: 529;
            stroke-width: 128;
          }
          63% {
            animation-timing-function: step-end;
            stroke: blue;
            stroke-dashoffset: 0;
            stroke-width: 128;
          }
          to {
            stroke: black;
            stroke-width: 1024;
          }
        }
        #make-me-a-hanzi-animation-12 {
          animation: keyframes12 0.6805013020833334s both;
          animation-delay: 8.769856770833332s;
          animation-timing-function: linear;
        }
      
        @keyframes keyframes13 {
          from {
            stroke: blue;
            stroke-dashoffset: 645;
            stroke-width: 128;
          }
          68% {
            animation-timing-function: step-end;
            stroke: blue;
            stroke-dashoffset: 0;
            stroke-width: 128;
          }
          to {
            stroke: black;
            stroke-width: 1024;
          }
        }
        #make-me-a-hanzi-animation-13 {
          animation: keyframes13 0.77490234375s both;
          animation-delay: 9.450358072916666s;
          animation-timing-function: linear;
        }
      
    </style>
    
      <path d="M 135 527 Q 162 476 189 457 Q 202 451 212 461 Q 219 471 220 486 Q 217 525 152 557 Q 139 564 130 563 Q 126 563 125 552 Q 124 542 135 527 Z" fill="lightgray" />
    
      <path d="M 376 580 Q 364 553 338 511 Q 334 504 339 499 Q 346 499 351 503 Q 408 552 436 570 Q 449 576 446 584 Q 439 597 422 609 Q 406 622 387 621 Q 375 620 378 604 Q 381 594 376 580 Z" fill="lightgray" />
    
      <path d="M 309 381 Q 352 391 390 398 Q 400 398 407 411 Q 407 421 385 430 Q 343 448 309 428 L 267 414 Q 255 411 245 407 Q 215 398 82 368 Q 55 362 77 347 Q 111 326 137 334 Q 183 350 246 364 L 309 381 Z" fill="lightgray" />
    
      <path d="M 308 306 Q 308 342 309 381 L 309 428 Q 315 627 330 674 Q 339 689 335 702 Q 329 712 274 745 Q 252 761 231 746 Q 227 742 233 726 Q 266 677 267 628 Q 268 555 269 472 L 267 414 L 264 296 Q 260 128 255 99 Q 249 59 238 20 Q 228 -16 252 -78 Q 259 -96 267 -99 Q 273 -106 280 -97 Q 287 -93 297 -73 Q 307 -48 306 -18 Q 305 21 307 288 L 308 306 Z" fill="lightgray" />
    
      <path d="M 246 364 Q 198 238 51 52 Q 45 43 56 42 Q 62 41 70 49 Q 190 148 264 296 C 311 388 257 392 246 364 Z" fill="lightgray" />
    
      <path d="M 307 288 Q 373 240 380 238 L 384 238 Q 391 239 394 248 Q 395 258 388 278 Q 384 291 362 298 Q 341 304 318 307 Q 311 308 308 306 C 291 300 291 300 307 288 Z" fill="lightgray" />
    
      <path d="M 595 531 Q 640 544 722 561 Q 734 565 742 569 C 770 581 759 588 729 585 Q 645 578 555 557 Q 546 554 543 556 Q 542 560 547 567 Q 635 679 655 697 Q 665 706 661 717 Q 657 727 616 749 Q 601 756 593 753 Q 583 749 586 730 Q 604 670 498 570 Q 483 560 467 548 Q 455 538 458 528 Q 462 515 483 496 Q 492 486 504 495 Q 543 523 569 524 L 595 531 Z" fill="lightgray" />
    
      <path d="M 742 569 Q 764 536 776 534 Q 783 533 790 541 Q 794 551 794 573 Q 791 610 708 654 Q 698 658 692 658 Q 688 657 687 647 Q 687 641 729 585 L 742 569 Z" fill="lightgray" />
    
      <path d="M 673 409 Q 755 422 874 422 Q 892 423 896 431 Q 900 443 885 455 Q 831 491 783 475 L 629 442 Q 619 441 607 438 L 548 427 Q 485 417 419 405 Q 400 402 414 387 Q 427 375 445 370 Q 464 366 479 371 Q 501 378 529 384 L 587 396 Q 606 402 647 406 L 673 409 Z" fill="lightgray" />
    
      <path d="M 607 438 Q 608 445 623 466 Q 633 475 631 487 Q 618 520 595 531 C 570 547 567 549 569 524 L 570 522 Q 573 495 548 427 L 529 384 Q 487 285 368 183 Q 362 179 359 175 Q 355 168 363 166 Q 399 163 478 237 Q 479 240 483 242 Q 543 305 587 396 L 607 438 Z" fill="lightgray" />
    
      <path d="M 647 406 L 653 400 Q 800 229 840 218 Q 934 218 975 226 Q 991 227 992 232 Q 993 238 981 242 Q 822 303 815 307 Q 785 322 673 409 C 649 427 626 428 647 406 Z" fill="lightgray" />
    
      <path d="M 600 325 Q 594 270 475 158 Q 459 145 481 149 Q 527 152 623 259 Q 623 260 659 302 Q 666 312 664 319 Q 661 329 640 334 Q 618 341 608 337 Q 602 336 600 325 Z" fill="lightgray" />
    
      <path d="M 646 230 Q 636 166 492 39 Q 474 26 497 29 Q 560 33 664 154 Q 664 155 707 203 Q 716 213 713 221 Q 710 231 688 238 Q 664 245 654 243 Q 648 242 646 230 Z" fill="lightgray" />
    
      <path d="M 705 154 Q 715 100 608 -21 Q 605 -22 604 -25 Q 573 -56 498 -117 Q 489 -121 500 -125 Q 612 -104 766 90 Q 773 100 779 104 Q 786 108 786 119 Q 782 143 743 161 Q 724 168 713 168 Q 704 167 705 154 Z" fill="lightgray" />
    
    
      <clipPath id="make-me-a-hanzi-clip-0">
        <path d="M 135 527 Q 162 476 189 457 Q 202 451 212 461 Q 219 471 220 486 Q 217 525 152 557 Q 139 564 130 563 Q 126 563 125 552 Q 124 542 135 527 Z" />
      </clipPath>
      <path clip-path="url(#make-me-a-hanzi-clip-0)" d="M 134 554 L 191 492 L 198 473" fill="none" id="make-me-a-hanzi-animation-0" stroke-dasharray="232 464" stroke-linecap="round" />
    
      <clipPath id="make-me-a-hanzi-clip-1">
        <path d="M 376 580 Q 364 553 338 511 Q 334 504 339 499 Q 346 499 351 503 Q 408 552 436 570 Q 449 576 446 584 Q 439 597 422 609 Q 406 622 387 621 Q 375 620 378 604 Q 381 594 376 580 Z" />
      </clipPath>
      <path clip-path="url(#make-me-a-hanzi-clip-1)" d="M 388 610 L 407 584 L 344 505" fill="none" id="make-me-a-hanzi-animation-1" stroke-dasharray="261 522" stroke-linecap="round" />
    
      <clipPath id="make-me-a-hanzi-clip-2">
        <path d="M 309 381 Q 352 391 390 398 Q 400 398 407 411 Q 407 421 385 430 Q 343 448 309 428 L 267 414 Q 255 411 245 407 Q 215 398 82 368 Q 55 362 77 347 Q 111 326 137 334 Q 183 350 246 364 L 309 381 Z" />
      </clipPath>
      <path clip-path="url(#make-me-a-hanzi-clip-2)" d="M 78 358 L 127 355 L 346 415 L 396 411" fill="none" id="make-me-a-hanzi-animation-2" stroke-dasharray="454 908" stroke-linecap="round" />
    
      <clipPath id="make-me-a-hanzi-clip-3">
        <path d="M 308 306 Q 308 342 309 381 L 309 428 Q 315 627 330 674 Q 339 689 335 702 Q 329 712 274 745 Q 252 761 231 746 Q 227 742 233 726 Q 266 677 267 628 Q 268 555 269 472 L 267 414 L 264 296 Q 260 128 255 99 Q 249 59 238 20 Q 228 -16 252 -78 Q 259 -96 267 -99 Q 273 -106 280 -97 Q 287 -93 297 -73 Q 307 -48 306 -18 Q 305 21 307 288 L 308 306 Z" />
      </clipPath>
      <path clip-path="url(#make-me-a-hanzi-clip-3)" d="M 242 740 L 271 717 L 295 681 L 286 225 L 281 98 L 270 1 L 272 -86" fill="none" id="make-me-a-hanzi-animation-3" stroke-dasharray="976 1952" stroke-linecap="round" />
    
      <clipPath id="make-me-a-hanzi-clip-4">
        <path d="M 246 364 Q 198 238 51 52 Q 45 43 56 42 Q 62 41 70 49 Q 190 148 264 296 C 311 388 257 392 246 364 Z" />
      </clipPath>
      <path clip-path="url(#make-me-a-hanzi-clip-4)" d="M 262 362 L 254 355 L 242 298 L 203 229 L 122 118 L 71 60 L 61 57 L 61 51" fill="none" id="make-me-a-hanzi-animation-4" stroke-dasharray="507 1014" stroke-linecap="round" />
    
      <clipPath id="make-me-a-hanzi-clip-5">
        <path d="M 307 288 Q 373 240 380 238 L 384 238 Q 391 239 394 248 Q 395 258 388 278 Q 384 291 362 298 Q 341 304 318 307 Q 311 308 308 306 C 291 300 291 300 307 288 Z" />
      </clipPath>
      <path clip-path="url(#make-me-a-hanzi-clip-5)" d="M 314 301 L 324 290 L 367 271 L 382 247" fill="none" id="make-me-a-hanzi-animation-5" stroke-dasharray="218 436" stroke-linecap="round" />
    
      <clipPath id="make-me-a-hanzi-clip-6">
        <path d="M 595 531 Q 640 544 722 561 Q 734 565 742 569 C 770 581 759 588 729 585 Q 645 578 555 557 Q 546 554 543 556 Q 542 560 547 567 Q 635 679 655 697 Q 665 706 661 717 Q 657 727 616 749 Q 601 756 593 753 Q 583 749 586 730 Q 604 670 498 570 Q 483 560 467 548 Q 455 538 458 528 Q 462 515 483 496 Q 492 486 504 495 Q 543 523 569 524 L 595 531 Z" />
      </clipPath>
      <path clip-path="url(#make-me-a-hanzi-clip-6)" d="M 598 741 L 621 709 L 615 694 L 583 639 L 521 564 L 513 540 L 561 540 L 667 565 L 736 571" fill="none" id="make-me-a-hanzi-animation-6" stroke-dasharray="596 1192" stroke-linecap="round" />
    
      <clipPath id="make-me-a-hanzi-clip-7">
        <path d="M 742 569 Q 764 536 776 534 Q 783 533 790 541 Q 794 551 794 573 Q 791 610 708 654 Q 698 658 692 658 Q 688 657 687 647 Q 687 641 729 585 L 742 569 Z" />
      </clipPath>
      <path clip-path="url(#make-me-a-hanzi-clip-7)" d="M 694 650 L 764 582 L 778 547" fill="none" id="make-me-a-hanzi-animation-7" stroke-dasharray="263 526" stroke-linecap="round" />
    
      <clipPath id="make-me-a-hanzi-clip-8">
        <path d="M 673 409 Q 755 422 874 422 Q 892 423 896 431 Q 900 443 885 455 Q 831 491 783 475 L 629 442 Q 619 441 607 438 L 548 427 Q 485 417 419 405 Q 400 402 414 387 Q 427 375 445 370 Q 464 366 479 371 Q 501 378 529 384 L 587 396 Q 606 402 647 406 L 673 409 Z" />
      </clipPath>
      <path clip-path="url(#make-me-a-hanzi-clip-8)" d="M 417 396 L 469 391 L 672 431 L 817 451 L 885 436" fill="none" id="make-me-a-hanzi-animation-8" stroke-dasharray="603 1206" stroke-linecap="round" />
    
      <clipPath id="make-me-a-hanzi-clip-9">
        <path d="M 607 438 Q 608 445 623 466 Q 633 475 631 487 Q 618 520 595 531 C 570 547 567 549 569 524 L 570 522 Q 573 495 548 427 L 529 384 Q 487 285 368 183 Q 362 179 359 175 Q 355 168 363 166 Q 399 163 478 237 Q 479 240 483 242 Q 543 305 587 396 L 607 438 Z" />
      </clipPath>
      <path clip-path="url(#make-me-a-hanzi-clip-9)" d="M 579 518 L 592 507 L 598 485 L 534 343 L 458 242 L 415 203 L 367 173" fill="none" id="make-me-a-hanzi-animation-9" stroke-dasharray="565 1130" stroke-linecap="round" />
    
      <clipPath id="make-me-a-hanzi-clip-10">
        <path d="M 647 406 L 653 400 Q 800 229 840 218 Q 934 218 975 226 Q 991 227 992 232 Q 993 238 981 242 Q 822 303 815 307 Q 785 322 673 409 C 649 427 626 428 647 406 Z" />
      </clipPath>
      <path clip-path="url(#make-me-a-hanzi-clip-10)" d="M 654 407 L 677 394 L 686 379 L 779 298 L 832 262 L 850 253 L 985 235" fill="none" id="make-me-a-hanzi-animation-10" stroke-dasharray="516 1032" stroke-linecap="round" />
    
      <clipPath id="make-me-a-hanzi-clip-11">
        <path d="M 600 325 Q 594 270 475 158 Q 459 145 481 149 Q 527 152 623 259 Q 623 260 659 302 Q 666 312 664 319 Q 661 329 640 334 Q 618 341 608 337 Q 602 336 600 325 Z" />
      </clipPath>
      <path clip-path="url(#make-me-a-hanzi-clip-11)" d="M 651 316 L 627 308 L 600 264 L 560 218 L 484 157" fill="none" id="make-me-a-hanzi-animation-11" stroke-dasharray="363 726" stroke-linecap="round" />
    
      <clipPath id="make-me-a-hanzi-clip-12">
        <path d="M 646 230 Q 636 166 492 39 Q 474 26 497 29 Q 560 33 664 154 Q 664 155 707 203 Q 716 213 713 221 Q 710 231 688 238 Q 664 245 654 243 Q 648 242 646 230 Z" />
      </clipPath>
      <path clip-path="url(#make-me-a-hanzi-clip-12)" d="M 699 217 L 671 208 L 640 160 L 601 115 L 555 72 L 501 37" fill="none" id="make-me-a-hanzi-animation-12" stroke-dasharray="401 802" stroke-linecap="round" />
    
      <clipPath id="make-me-a-hanzi-clip-13">
        <path d="M 705 154 Q 715 100 608 -21 Q 605 -22 604 -25 Q 573 -56 498 -117 Q 489 -121 500 -125 Q 612 -104 766 90 Q 773 100 779 104 Q 786 108 786 119 Q 782 143 743 161 Q 724 168 713 168 Q 704 167 705 154 Z" />
      </clipPath>
      <path clip-path="url(#make-me-a-hanzi-clip-13)" d="M 715 158 L 740 117 L 698 50 L 605 -51 L 552 -92 L 508 -112 L 504 -120" fill="none" id="make-me-a-hanzi-animation-13" stroke-dasharray="517 1034" stroke-linecap="round" />
    
  </g>
</svg>