<svg xmlns="http://www.w3.org/2000/svg" version="1.1" viewBox="0 0 1024 1024">
  <g stroke="lightgray" stroke-dasharray="1,1" stroke-width="1" transform="scale(4, 4)">
    <line x1="0" y1="0" x2="256" y2="256" />
    <line x1="256" y1="0" x2="0" y2="256" />
    <line x1="128" y1="0" x2="128" y2="256" />
    <line x1="0" y1="128" x2="256" y2="128" />
  </g>
  <g transform="scale(1.0, -1.0) translate(0.0, -779.00)">
    <style type="text/css">
      
        @keyframes keyframes0 {
          from {
            stroke: blue;
            stroke-dashoffset: 377;
            stroke-width: 128;
          }
          55% {
            animation-timing-function: step-end;
            stroke: blue;
            stroke-dashoffset: 0;
            stroke-width: 128;
          }
          to {
            stroke: black;
            stroke-width: 1024;
          }
        }
        #make-me-a-hanzi-animation-0 {
          animation: keyframes0 0.5568033854166666s both;
          animation-delay: 0s;
          animation-timing-function: linear;
        }
      
        @keyframes keyframes1 {
          from {
            stroke: blue;
            stroke-dashoffset: 423;
            stroke-width: 128;
          }
          58% {
            animation-timing-function: step-end;
            stroke: blue;
            stroke-dashoffset: 0;
            stroke-width: 128;
          }
          to {
            stroke: black;
            stroke-width: 1024;
          }
        }
        #make-me-a-hanzi-animation-1 {
          animation: keyframes1 0.59423828125s both;
          animation-delay: 0.5568033854166666s;
          animation-timing-function: linear;
        }
      
        @keyframes keyframes2 {
          from {
            stroke: blue;
            stroke-dashoffset: 566;
            stroke-width: 128;
          }
          65% {
            animation-timing-function: step-end;
            stroke: blue;
            stroke-dashoffset: 0;
            stroke-width: 128;
          }
          to {
            stroke: black;
            stroke-width: 1024;
          }
        }
        #make-me-a-hanzi-animation-2 {
          animation: keyframes2 0.7106119791666666s both;
          animation-delay: 1.1510416666666665s;
          animation-timing-function: linear;
        }
      
        @keyframes keyframes3 {
          from {
            stroke: blue;
            stroke-dashoffset: 1061;
            stroke-width: 128;
          }
          78% {
            animation-timing-function: step-end;
            stroke: blue;
            stroke-dashoffset: 0;
            stroke-width: 128;
          }
          to {
            stroke: black;
            stroke-width: 1024;
          }
        }
        #make-me-a-hanzi-animation-3 {
          animation: keyframes3 1.1134440104166667s both;
          animation-delay: 1.861653645833333s;
          animation-timing-function: linear;
        }
      
        @keyframes keyframes4 {
          from {
            stroke: blue;
            stroke-dashoffset: 549;
            stroke-width: 128;
          }
          64% {
            animation-timing-function: step-end;
            stroke: blue;
            stroke-dashoffset: 0;
            stroke-width: 128;
          }
          to {
            stroke: black;
            stroke-width: 1024;
          }
        }
        #make-me-a-hanzi-animation-4 {
          animation: keyframes4 0.69677734375s both;
          animation-delay: 2.97509765625s;
          animation-timing-function: linear;
        }
      
        @keyframes keyframes5 {
          from {
            stroke: blue;
            stroke-dashoffset: 419;
            stroke-width: 128;
          }
          58% {
            animation-timing-function: step-end;
            stroke: blue;
            stroke-dashoffset: 0;
            stroke-width: 128;
          }
          to {
            stroke: black;
            stroke-width: 1024;
          }
        }
        #make-me-a-hanzi-animation-5 {
          animation: keyframes5 0.5909830729166666s both;
          animation-delay: 3.671875s;
          animation-timing-function: linear;
        }
      
        @keyframes keyframes6 {
          from {
            stroke: blue;
            stroke-dashoffset: 977;
            stroke-width: 128;
          }
          76% {
            animation-timing-function: step-end;
            stroke: blue;
            stroke-dashoffset: 0;
            stroke-width: 128;
          }
          to {
            stroke: black;
            stroke-width: 1024;
          }
        }
        #make-me-a-hanzi-animation-6 {
          animation: keyframes6 1.0450846354166667s both;
          animation-delay: 4.262858072916667s;
          animation-timing-function: linear;
        }
      
        @keyframes keyframes7 {
          from {
            stroke: blue;
            stroke-dashoffset: 1399;
            stroke-width: 128;
          }
          82% {
            animation-timing-function: step-end;
            stroke: blue;
            stroke-dashoffset: 0;
            stroke-width: 128;
          }
          to {
            stroke: black;
            stroke-width: 1024;
          }
        }
        #make-me-a-hanzi-animation-7 {
          animation: keyframes7 1.3885091145833333s both;
          animation-delay: 5.307942708333334s;
          animation-timing-function: linear;
        }
      
        @keyframes keyframes8 {
          from {
            stroke: blue;
            stroke-dashoffset: 487;
            stroke-width: 128;
          }
          61% {
            animation-timing-function: step-end;
            stroke: blue;
            stroke-dashoffset: 0;
            stroke-width: 128;
          }
          to {
            stroke: black;
            stroke-width: 1024;
          }
        }
        #make-me-a-hanzi-animation-8 {
          animation: keyframes8 0.6463216145833334s both;
          animation-delay: 6.696451822916667s;
          animation-timing-function: linear;
        }
      
        @keyframes keyframes9 {
          from {
            stroke: blue;
            stroke-dashoffset: 410;
            stroke-width: 128;
          }
          57% {
            animation-timing-function: step-end;
            stroke: blue;
            stroke-dashoffset: 0;
            stroke-width: 128;
          }
          to {
            stroke: black;
            stroke-width: 1024;
          }
        }
        #make-me-a-hanzi-animation-9 {
          animation: keyframes9 0.5836588541666666s both;
          animation-delay: 7.3427734375s;
          animation-timing-function: linear;
        }
      
        @keyframes keyframes10 {
          from {
            stroke: blue;
            stroke-dashoffset: 612;
            stroke-width: 128;
          }
          67% {
            animation-timing-function: step-end;
            stroke: blue;
            stroke-dashoffset: 0;
            stroke-width: 128;
          }
          to {
            stroke: black;
            stroke-width: 1024;
          }
        }
        #make-me-a-hanzi-animation-10 {
          animation: keyframes10 0.748046875s both;
          animation-delay: 7.926432291666667s;
          animation-timing-function: linear;
        }
      
        @keyframes keyframes11 {
          from {
            stroke: blue;
            stroke-dashoffset: 419;
            stroke-width: 128;
          }
          58% {
            animation-timing-function: step-end;
            stroke: blue;
            stroke-dashoffset: 0;
            stroke-width: 128;
          }
          to {
            stroke: black;
            stroke-width: 1024;
          }
        }
        #make-me-a-hanzi-animation-11 {
          animation: keyframes11 0.5909830729166666s both;
          animation-delay: 8.674479166666668s;
          animation-timing-function: linear;
        }
      
        @keyframes keyframes12 {
          from {
            stroke: blue;
            stroke-dashoffset: 407;
            stroke-width: 128;
          }
          57% {
            animation-timing-function: step-end;
            stroke: blue;
            stroke-dashoffset: 0;
            stroke-width: 128;
          }
          to {
            stroke: black;
            stroke-width: 1024;
          }
        }
        #make-me-a-hanzi-animation-12 {
          animation: keyframes12 0.5812174479166666s both;
          animation-delay: 9.265462239583334s;
          animation-timing-function: linear;
        }
      
        @keyframes keyframes13 {
          from {
            stroke: blue;
            stroke-dashoffset: 583;
            stroke-width: 128;
          }
          65% {
            animation-timing-function: step-end;
            stroke: blue;
            stroke-dashoffset: 0;
            stroke-width: 128;
          }
          to {
            stroke: black;
            stroke-width: 1024;
          }
        }
        #make-me-a-hanzi-animation-13 {
          animation: keyframes13 0.7244466145833334s both;
          animation-delay: 9.8466796875s;
          animation-timing-function: linear;
        }
      
        @keyframes keyframes14 {
          from {
            stroke: blue;
            stroke-dashoffset: 508;
            stroke-width: 128;
          }
          62% {
            animation-timing-function: step-end;
            stroke: blue;
            stroke-dashoffset: 0;
            stroke-width: 128;
          }
          to {
            stroke: black;
            stroke-width: 1024;
          }
        }
        #make-me-a-hanzi-animation-14 {
          animation: keyframes14 0.6634114583333334s both;
          animation-delay: 10.571126302083334s;
          animation-timing-function: linear;
        }
      
        @keyframes keyframes15 {
          from {
            stroke: blue;
            stroke-dashoffset: 328;
            stroke-width: 128;
          }
          52% {
            animation-timing-function: step-end;
            stroke: blue;
            stroke-dashoffset: 0;
            stroke-width: 128;
          }
          to {
            stroke: black;
            stroke-width: 1024;
          }
        }
        #make-me-a-hanzi-animation-15 {
          animation: keyframes15 0.5169270833333334s both;
          animation-delay: 11.234537760416668s;
          animation-timing-function: linear;
        }
      
        @keyframes keyframes16 {
          from {
            stroke: blue;
            stroke-dashoffset: 608;
            stroke-width: 128;
          }
          66% {
            animation-timing-function: step-end;
            stroke: blue;
            stroke-dashoffset: 0;
            stroke-width: 128;
          }
          to {
            stroke: black;
            stroke-width: 1024;
          }
        }
        #make-me-a-hanzi-animation-16 {
          animation: keyframes16 0.7447916666666666s both;
          animation-delay: 11.751464843750002s;
          animation-timing-function: linear;
        }
      
        @keyframes keyframes17 {
          from {
            stroke: blue;
            stroke-dashoffset: 551;
            stroke-width: 128;
          }
          64% {
            animation-timing-function: step-end;
            stroke: blue;
            stroke-dashoffset: 0;
            stroke-width: 128;
          }
          to {
            stroke: black;
            stroke-width: 1024;
          }
        }
        #make-me-a-hanzi-animation-17 {
          animation: keyframes17 0.6984049479166666s both;
          animation-delay: 12.496256510416668s;
          animation-timing-function: linear;
        }
      
        @keyframes keyframes18 {
          from {
            stroke: blue;
            stroke-dashoffset: 323;
            stroke-width: 128;
          }
          51% {
            animation-timing-function: step-end;
            stroke: blue;
            stroke-dashoffset: 0;
            stroke-width: 128;
          }
          to {
            stroke: black;
            stroke-width: 1024;
          }
        }
        #make-me-a-hanzi-animation-18 {
          animation: keyframes18 0.5128580729166666s both;
          animation-delay: 13.194661458333334s;
          animation-timing-function: linear;
        }
      
        @keyframes keyframes19 {
          from {
            stroke: blue;
            stroke-dashoffset: 659;
            stroke-width: 128;
          }
          68% {
            animation-timing-function: step-end;
            stroke: blue;
            stroke-dashoffset: 0;
            stroke-width: 128;
          }
          to {
            stroke: black;
            stroke-width: 1024;
          }
        }
        #make-me-a-hanzi-animation-19 {
          animation: keyframes19 0.7862955729166666s both;
          animation-delay: 13.70751953125s;
          animation-timing-function: linear;
        }
      
    </style>
    
      <path d="M 140 510 Q 134 512 130 512 Q 125 512 123 509 Q 122 507 122 505 Q 122 500 126 493 L 150 450 Q 156 438 170 418 Q 183 398 192 396 L 196 396 Q 203 396 210 403 Q 218 411 220 431 L 220 435 Q 220 453 213 465 Q 204 478 189 488 Q 174 499 157 505 L 140 510 Z" fill="lightgray" />
    
      <path d="M 328 414 Q 323 406 323 402 Q 323 400 324 399 Q 326 398 328 398 Q 331 398 334 400 L 356 418 Q 362 422 376 438 L 402 466 Q 414 479 420 484 L 432 491 Q 436 494 438 498 L 438 501 Q 438 506 433 515 Q 426 526 414 536 Q 402 546 392 548 Q 387 549 384 549 Q 379 549 377 547 Q 374 544 373 531 Q 372 518 368 502 Q 364 487 358 473 Q 353 459 348 448 Q 343 438 336 428 L 328 414 Z" fill="lightgray" />
    
      <path d="M 257 350 L 218 344 L 162 336 Q 139 332 124 330 L 108 329 Q 98 328 97 324 L 97 322 Q 97 319 98 316 Q 100 310 110 305 Q 119 299 123 298 Q 127 296 142 291 Q 155 287 161 287 L 163 287 Q 167 287 180 292 Q 194 298 211 301 L 256 312 L 304 322 L 329 326 L 376 334 L 407 338 Q 415 338 415 344 L 415 346 Q 415 351 409 356 Q 403 361 392 365 Q 380 368 374 370 Q 364 370 349 367 Q 334 364 304 357 L 257 350 Z" fill="lightgray" />
    
      <path d="M 256 312 L 251 166 Q 250 158 248 120 Q 245 81 243 69 Q 242 56 236 26 Q 230 -4 226 -18 Q 223 -33 223 -40 L 223 -46 Q 223 -54 225 -62 Q 228 -72 234 -90 Q 240 -108 246 -116 Q 253 -127 259 -127 L 260 -127 Q 266 -127 274 -117 Q 282 -108 288 -92 Q 294 -77 296 -60 Q 298 -50 298 -34 Q 298 -18 296 4 Q 294 48 294 71 L 304 322 L 304 357 L 308 449 L 312 522 Q 313 535 317 556 L 323 586 Q 326 604 330 612 Q 335 626 335 632 Q 335 635 334 636 Q 333 642 324 649 Q 314 656 302 662 Q 289 668 276 672 Q 264 676 256 676 Q 248 675 245 671 Q 242 669 242 666 Q 242 664 243 662 Q 244 656 249 647 Q 254 639 256 629 Q 258 620 259 606 Q 260 594 262 574 Q 263 556 263 544 L 257 350 L 256 312 Z" fill="lightgray" />
    
      <path d="M 70 6 Q 68 2 68 -1 Q 68 -3 70 -5 Q 71 -6 73 -6 Q 76 -6 80 -2 L 94 8 Q 111 20 130 42 Q 150 64 168 92 Q 186 120 201 151 Q 216 182 216 183 Q 217 184 221 192 Q 226 198 228 201 L 235 206 Q 238 210 238 216 Q 237 222 228 230 Q 219 238 211 244 Q 202 250 192 254 Q 181 258 176 258 Q 172 259 169 259 Q 166 259 165 257 Q 163 254 163 246 L 163 240 Q 163 233 162 223 Q 161 208 154 181 Q 148 154 132 118 Q 116 82 101 56 L 80 22 L 70 6 Z" fill="lightgray" />
    
      <path d="M 334 253 Q 330 256 326 256 Q 324 256 322 254 Q 320 252 320 250 Q 320 247 324 242 L 335 223 Q 340 214 348 194 L 358 163 Q 371 126 374 119 Q 376 112 382 106 Q 390 96 396 96 L 398 96 Q 404 96 413 108 Q 421 119 421 136 L 421 140 Q 421 161 408 183 Q 396 204 379 220 Q 362 236 352 242 L 334 253 Z" fill="lightgray" />
    
      <path d="M 496 600 L 468 611 Q 459 615 453 615 Q 447 615 444 611 Q 439 607 439 602 Q 440 597 445 586 Q 450 576 453 560 Q 455 544 456 532 Q 456 528 455 476 L 454 422 L 446 163 Q 444 106 434 58 Q 425 10 420 -13 Q 414 -35 414 -45 Q 414 -56 416 -66 Q 419 -76 430 -96 Q 440 -118 450 -118 Q 460 -117 464 -102 L 469 -82 L 474 -42 L 479 15 Q 483 66 485 111 Q 488 156 488 174 Q 489 192 492 317 L 496 455 Q 497 490 498 560 C 498 590 499 599 496 600 Z" fill="lightgray" />
    
      <path d="M 850 -58 L 860 -80 L 878 -126 Q 885 -140 892 -141 Q 894 -142 895 -142 Q 903 -142 914 -132 Q 928 -119 936 -97 Q 944 -76 946 -40 L 943 58 L 938 463 Q 938 484 941 512 Q 944 538 946 547 Q 949 555 956 565 Q 963 575 964 579 L 964 582 Q 964 591 951 602 Q 936 614 919 624 Q 903 634 890 640 Q 878 646 868 646 Q 862 645 850 642 Q 837 638 814 634 L 775 626 Q 760 624 728 621 L 606 609 Q 551 603 534 602 Q 518 601 496 600 C 466 598 468 558 498 560 L 525 562 Q 532 562 575 568 Q 618 574 636 577 L 688 583 L 728 586 Q 762 588 774 590 Q 798 593 815 593 Q 832 593 842 590 Q 862 584 868 575 Q 876 566 878 540 L 884 463 L 890 198 L 880 -24 C 879 -54 838 -30 850 -58 Z" fill="lightgray" />
    
      <path d="M 695 484 L 710 488 L 740 493 Q 764 498 775 498 Q 785 500 790 503 Q 796 506 796 510 Q 796 512 794 517 Q 790 522 778 528 Q 768 533 756 533 L 752 533 Q 742 532 728 527 Q 714 522 709 521 Q 705 520 698 519 L 653 510 L 624 506 Q 598 501 575 500 L 562 500 Q 556 500 555 496 L 555 494 Q 555 491 560 486 Q 568 479 578 476 Q 588 474 604 474 Q 612 474 622 475 Q 632 476 654 479 L 695 484 Z" fill="lightgray" />
    
      <path d="M 577 432 L 562 436 Q 559 437 548 438 Q 543 439 539 439 Q 532 439 531 436 L 531 429 Q 532 426 538 423 Q 544 419 548 414 Q 552 408 555 394 L 568 318 Q 572 300 577 294 Q 581 289 586 289 L 588 289 Q 592 289 595 293 Q 598 296 600 304 L 600 327 L 596 359 L 594 378 L 591 412 C 590 429 590 429 577 432 Z" fill="lightgray" />
    
      <path d="M 786 311 L 814 392 Q 818 406 821 410 Q 824 414 828 420 Q 832 424 834 427 L 834 434 Q 834 438 828 444 Q 821 450 806 460 Q 790 471 782 473 Q 774 474 769 474 Q 764 474 751 468 Q 738 463 723 459 L 694 451 L 654 442 L 623 436 Q 602 433 596 432 L 577 432 C 547 432 561 412 591 412 L 619 412 Q 626 413 634 414 Q 642 416 652 418 L 694 426 L 734 434 L 755 438 L 759 438 Q 765 438 768 436 Q 773 433 774 423 Q 774 413 770 398 L 768 384 L 758 341 C 752 313 748 323 750 318 L 752 309 Q 752 306 762 303 C 780 293 780 293 786 311 Z" fill="lightgray" />
    
      <path d="M 652 388 L 627 382 Q 626 382 618 381 Q 609 380 594 378 C 564 374 566 361 596 359 L 610 358 L 628 358 Q 636 358 652 360 L 692 368 L 715 372 L 751 380 Q 756 380 768 384 C 793 392 793 392 770 398 L 755 402 Q 738 404 726 404 Q 722 404 714 402 Q 706 400 693 398 L 652 388 Z" fill="lightgray" />
    
      <path d="M 600 304 L 628 304 Q 630 304 650 306 L 692 311 L 724 316 Q 728 316 750 318 C 780 321 787 333 758 341 L 740 346 Q 737 347 732 347 Q 727 347 720 346 L 692 342 L 651 334 L 630 332 Q 624 330 600 327 C 570 323 570 304 600 304 Z" fill="lightgray" />
    
      <path d="M 694 451 L 694 466 L 695 484 L 698 519 L 700 530 Q 700 534 704 544 Q 708 553 708 558 Q 708 564 704 570 Q 699 576 688 583 C 663 600 625 605 636 577 L 642 562 Q 647 552 649 542 Q 650 533 651 527 Q 652 521 653 510 L 654 479 L 654 442 L 652 418 L 652 388 L 652 360 L 651 334 L 650 306 L 650 263 C 650 233 689 240 690 270 L 692 311 L 692 342 L 692 368 L 693 398 L 694 426 L 694 451 Z" fill="lightgray" />
    
      <path d="M 650 263 L 618 258 L 584 254 Q 572 252 563 252 Q 554 252 548 254 Q 540 257 536 257 Q 534 257 533 256 Q 530 254 528 250 L 528 248 Q 528 245 531 239 Q 534 232 543 222 Q 551 210 558 208 Q 564 206 569 206 L 572 206 Q 576 206 594 214 L 624 224 L 650 234 L 746 263 L 780 271 C 809 278 799 292 770 286 L 712 275 Q 710 274 690 270 L 650 263 Z" fill="lightgray" />
    
      <path d="M 780 271 L 788 256 Q 796 240 802 239 L 804 239 Q 809 239 815 242 Q 822 247 826 257 Q 829 265 829 272 L 829 275 Q 828 284 823 290 Q 818 298 807 302 Q 796 306 786 311 C 759 324 750 329 762 303 L 770 286 L 780 271 Z" fill="lightgray" />
    
      <path d="M 724 187 L 708 185 L 688 182 L 652 178 L 614 173 L 576 168 Q 558 166 535 165 L 520 164 Q 512 164 509 159 Q 508 158 508 157 Q 508 152 518 146 Q 529 138 544 134 Q 554 131 561 131 Q 565 131 568 132 Q 569 132 581 135 Q 592 139 619 144 Q 646 148 670 152 Q 695 156 704 156 Q 714 158 726 158 L 762 161 L 775 162 Q 779 162 795 161 Q 812 160 816 160 L 851 160 Q 865 160 868 165 L 868 167 Q 868 172 862 180 Q 854 190 837 194 Q 820 198 813 199 Q 806 199 792 196 Q 778 193 762 191 L 724 187 Z" fill="lightgray" />
    
      <path d="M 726 158 L 726 142 L 724 100 Q 724 78 722 65 Q 720 52 714 48 Q 708 44 704 43 L 700 43 Q 693 43 684 45 Q 672 49 666 49 Q 662 48 660 47 Q 658 46 658 41 L 696 2 Q 714 -18 716 -18 L 721 -18 Q 724 -18 732 -14 Q 740 -10 750 4 Q 758 17 762 40 Q 762 52 761 84 Q 760 115 760 126 Q 760 138 762 161 L 762 191 L 765 206 L 770 225 Q 768 232 762 234 Q 756 237 742 241 Q 727 244 722 244 Q 714 244 712 240 Q 711 237 711 234 L 711 231 Q 712 226 717 216 Q 721 206 722 202 Q 723 196 724 187 L 726 158 Z" fill="lightgray" />
    
      <path d="M 595 122 L 592 122 Q 587 122 585 120 Q 584 119 584 117 Q 584 115 586 112 L 594 96 Q 596 91 607 76 Q 618 61 626 57 Q 632 54 637 54 Q 642 54 647 56 Q 658 60 658 76 Q 658 92 652 99 Q 646 106 636 111 Q 626 116 612 118 L 595 122 Z" fill="lightgray" />
    
      <path d="M 469 -82 L 850 -58 C 880 -56 908 -36 880 -24 L 856 -14 Q 850 -12 838 -12 L 830 -12 Q 813 -14 704 -24 Q 596 -34 474 -42 C 444 -44 439 -84 469 -82 Z" fill="lightgray" />
    
    
      <clipPath id="make-me-a-hanzi-clip-0">
        <path d="M 140 510 Q 134 512 130 512 Q 125 512 123 509 Q 122 507 122 505 Q 122 500 126 493 L 150 450 Q 156 438 170 418 Q 183 398 192 396 L 196 396 Q 203 396 210 403 Q 218 411 220 431 L 220 435 Q 220 453 213 465 Q 204 478 189 488 Q 174 499 157 505 L 140 510 Z" />
      </clipPath>
      <path clip-path="url(#make-me-a-hanzi-clip-0)" d="M 129 505 L 182 456 L 193 433 L 194 410" fill="none" id="make-me-a-hanzi-animation-0" stroke-dasharray="249 498" stroke-linecap="round" />
    
      <clipPath id="make-me-a-hanzi-clip-1">
        <path d="M 328 414 Q 323 406 323 402 Q 323 400 324 399 Q 326 398 328 398 Q 331 398 334 400 L 356 418 Q 362 422 376 438 L 402 466 Q 414 479 420 484 L 432 491 Q 436 494 438 498 L 438 501 Q 438 506 433 515 Q 426 526 414 536 Q 402 546 392 548 Q 387 549 384 549 Q 379 549 377 547 Q 374 544 373 531 Q 372 518 368 502 Q 364 487 358 473 Q 353 459 348 448 Q 343 438 336 428 L 328 414 Z" />
      </clipPath>
      <path clip-path="url(#make-me-a-hanzi-clip-1)" d="M 382 541 L 400 507 L 361 440 L 327 402" fill="none" id="make-me-a-hanzi-animation-1" stroke-dasharray="295 590" stroke-linecap="round" />
    
      <clipPath id="make-me-a-hanzi-clip-2">
        <path d="M 257 350 L 218 344 L 162 336 Q 139 332 124 330 L 108 329 Q 98 328 97 324 L 97 322 Q 97 319 98 316 Q 100 310 110 305 Q 119 299 123 298 Q 127 296 142 291 Q 155 287 161 287 L 163 287 Q 167 287 180 292 Q 194 298 211 301 L 256 312 L 304 322 L 329 326 L 376 334 L 407 338 Q 415 338 415 344 L 415 346 Q 415 351 409 356 Q 403 361 392 365 Q 380 368 374 370 Q 364 370 349 367 Q 334 364 304 357 L 257 350 Z" />
      </clipPath>
      <path clip-path="url(#make-me-a-hanzi-clip-2)" d="M 104 323 L 121 315 L 167 312 L 370 352 L 408 345" fill="none" id="make-me-a-hanzi-animation-2" stroke-dasharray="438 876" stroke-linecap="round" />
    
      <clipPath id="make-me-a-hanzi-clip-3">
        <path d="M 256 312 L 251 166 Q 250 158 248 120 Q 245 81 243 69 Q 242 56 236 26 Q 230 -4 226 -18 Q 223 -33 223 -40 L 223 -46 Q 223 -54 225 -62 Q 228 -72 234 -90 Q 240 -108 246 -116 Q 253 -127 259 -127 L 260 -127 Q 266 -127 274 -117 Q 282 -108 288 -92 Q 294 -77 296 -60 Q 298 -50 298 -34 Q 298 -18 296 4 Q 294 48 294 71 L 304 322 L 304 357 L 308 449 L 312 522 Q 313 535 317 556 L 323 586 Q 326 604 330 612 Q 335 626 335 632 Q 335 635 334 636 Q 333 642 324 649 Q 314 656 302 662 Q 289 668 276 672 Q 264 676 256 676 Q 248 675 245 671 Q 242 669 242 666 Q 242 664 243 662 Q 244 656 249 647 Q 254 639 256 629 Q 258 620 259 606 Q 260 594 262 574 Q 263 556 263 544 L 257 350 L 256 312 Z" />
      </clipPath>
      <path clip-path="url(#make-me-a-hanzi-clip-3)" d="M 249 666 L 275 648 L 295 624 L 260 -117" fill="none" id="make-me-a-hanzi-animation-3" stroke-dasharray="933 1866" stroke-linecap="round" />
    
      <clipPath id="make-me-a-hanzi-clip-4">
        <path d="M 70 6 Q 68 2 68 -1 Q 68 -3 70 -5 Q 71 -6 73 -6 Q 76 -6 80 -2 L 94 8 Q 111 20 130 42 Q 150 64 168 92 Q 186 120 201 151 Q 216 182 216 183 Q 217 184 221 192 Q 226 198 228 201 L 235 206 Q 238 210 238 216 Q 237 222 228 230 Q 219 238 211 244 Q 202 250 192 254 Q 181 258 176 258 Q 172 259 169 259 Q 166 259 165 257 Q 163 254 163 246 L 163 240 Q 163 233 162 223 Q 161 208 154 181 Q 148 154 132 118 Q 116 82 101 56 L 80 22 L 70 6 Z" />
      </clipPath>
      <path clip-path="url(#make-me-a-hanzi-clip-4)" d="M 171 250 L 195 213 L 169 143 L 123 58 L 73 -1" fill="none" id="make-me-a-hanzi-animation-4" stroke-dasharray="421 842" stroke-linecap="round" />
    
      <clipPath id="make-me-a-hanzi-clip-5">
        <path d="M 334 253 Q 330 256 326 256 Q 324 256 322 254 Q 320 252 320 250 Q 320 247 324 242 L 335 223 Q 340 214 348 194 L 358 163 Q 371 126 374 119 Q 376 112 382 106 Q 390 96 396 96 L 398 96 Q 404 96 413 108 Q 421 119 421 136 L 421 140 Q 421 161 408 183 Q 396 204 379 220 Q 362 236 352 242 L 334 253 Z" />
      </clipPath>
      <path clip-path="url(#make-me-a-hanzi-clip-5)" d="M 327 249 L 354 221 L 382 176 L 395 138 L 397 107" fill="none" id="make-me-a-hanzi-animation-5" stroke-dasharray="291 582" stroke-linecap="round" />
    
      <clipPath id="make-me-a-hanzi-clip-6">
        <path d="M 496 600 L 468 611 Q 459 615 453 615 Q 447 615 444 611 Q 439 607 439 602 Q 440 597 445 586 Q 450 576 453 560 Q 455 544 456 532 Q 456 528 455 476 L 454 422 L 446 163 Q 444 106 434 58 Q 425 10 420 -13 Q 414 -35 414 -45 Q 414 -56 416 -66 Q 419 -76 430 -96 Q 440 -118 450 -118 Q 460 -117 464 -102 L 469 -82 L 474 -42 L 479 15 Q 483 66 485 111 Q 488 156 488 174 Q 489 192 492 317 L 496 455 Q 497 490 498 560 C 498 590 499 599 496 600 Z" />
      </clipPath>
      <path clip-path="url(#make-me-a-hanzi-clip-6)" d="M 450 602 L 474 579 L 477 499 L 467 142 L 443 -49 L 450 -107" fill="none" id="make-me-a-hanzi-animation-6" stroke-dasharray="849 1698" stroke-linecap="round" />
    
      <clipPath id="make-me-a-hanzi-clip-7">
        <path d="M 850 -58 L 860 -80 L 878 -126 Q 885 -140 892 -141 Q 894 -142 895 -142 Q 903 -142 914 -132 Q 928 -119 936 -97 Q 944 -76 946 -40 L 943 58 L 938 463 Q 938 484 941 512 Q 944 538 946 547 Q 949 555 956 565 Q 963 575 964 579 L 964 582 Q 964 591 951 602 Q 936 614 919 624 Q 903 634 890 640 Q 878 646 868 646 Q 862 645 850 642 Q 837 638 814 634 L 775 626 Q 760 624 728 621 L 606 609 Q 551 603 534 602 Q 518 601 496 600 C 466 598 468 558 498 560 L 525 562 Q 532 562 575 568 Q 618 574 636 577 L 688 583 L 728 586 Q 762 588 774 590 Q 798 593 815 593 Q 832 593 842 590 Q 862 584 868 575 Q 876 566 878 540 L 884 463 L 890 198 L 880 -24 C 879 -54 838 -30 850 -58 Z" />
      </clipPath>
      <path clip-path="url(#make-me-a-hanzi-clip-7)" d="M 504 567 L 517 581 L 841 615 L 873 613 L 914 577 L 913 -34 L 900 -66 L 897 -132" fill="none" id="make-me-a-hanzi-animation-7" stroke-dasharray="1271 2542" stroke-linecap="round" />
    
      <clipPath id="make-me-a-hanzi-clip-8">
        <path d="M 695 484 L 710 488 L 740 493 Q 764 498 775 498 Q 785 500 790 503 Q 796 506 796 510 Q 796 512 794 517 Q 790 522 778 528 Q 768 533 756 533 L 752 533 Q 742 532 728 527 Q 714 522 709 521 Q 705 520 698 519 L 653 510 L 624 506 Q 598 501 575 500 L 562 500 Q 556 500 555 496 L 555 494 Q 555 491 560 486 Q 568 479 578 476 Q 588 474 604 474 Q 612 474 622 475 Q 632 476 654 479 L 695 484 Z" />
      </clipPath>
      <path clip-path="url(#make-me-a-hanzi-clip-8)" d="M 560 495 L 578 488 L 616 489 L 750 514 L 787 511" fill="none" id="make-me-a-hanzi-animation-8" stroke-dasharray="359 718" stroke-linecap="round" />
    
      <clipPath id="make-me-a-hanzi-clip-9">
        <path d="M 577 432 L 562 436 Q 559 437 548 438 Q 543 439 539 439 Q 532 439 531 436 L 531 429 Q 532 426 538 423 Q 544 419 548 414 Q 552 408 555 394 L 568 318 Q 572 300 577 294 Q 581 289 586 289 L 588 289 Q 592 289 595 293 Q 598 296 600 304 L 600 327 L 596 359 L 594 378 L 591 412 C 590 429 590 429 577 432 Z" />
      </clipPath>
      <path clip-path="url(#make-me-a-hanzi-clip-9)" d="M 537 433 L 566 417 L 572 405 L 587 299" fill="none" id="make-me-a-hanzi-animation-9" stroke-dasharray="282 564" stroke-linecap="round" />
    
      <clipPath id="make-me-a-hanzi-clip-10">
        <path d="M 786 311 L 814 392 Q 818 406 821 410 Q 824 414 828 420 Q 832 424 834 427 L 834 434 Q 834 438 828 444 Q 821 450 806 460 Q 790 471 782 473 Q 774 474 769 474 Q 764 474 751 468 Q 738 463 723 459 L 694 451 L 654 442 L 623 436 Q 602 433 596 432 L 577 432 C 547 432 561 412 591 412 L 619 412 Q 626 413 634 414 Q 642 416 652 418 L 694 426 L 734 434 L 755 438 L 759 438 Q 765 438 768 436 Q 773 433 774 423 Q 774 413 770 398 L 768 384 L 758 341 C 752 313 748 323 750 318 L 752 309 Q 752 306 762 303 C 780 293 780 293 786 311 Z" />
      </clipPath>
      <path clip-path="url(#make-me-a-hanzi-clip-10)" d="M 582 428 L 598 421 L 625 423 L 757 454 L 779 453 L 801 430 L 772 325 L 763 316" fill="none" id="make-me-a-hanzi-animation-10" stroke-dasharray="484 968" stroke-linecap="round" />
    
      <clipPath id="make-me-a-hanzi-clip-11">
        <path d="M 652 388 L 627 382 Q 626 382 618 381 Q 609 380 594 378 C 564 374 566 361 596 359 L 610 358 L 628 358 Q 636 358 652 360 L 692 368 L 715 372 L 751 380 Q 756 380 768 384 C 793 392 793 392 770 398 L 755 402 Q 738 404 726 404 Q 722 404 714 402 Q 706 400 693 398 L 652 388 Z" />
      </clipPath>
      <path clip-path="url(#make-me-a-hanzi-clip-11)" d="M 601 374 L 606 369 L 644 371 L 760 392" fill="none" id="make-me-a-hanzi-animation-11" stroke-dasharray="291 582" stroke-linecap="round" />
    
      <clipPath id="make-me-a-hanzi-clip-12">
        <path d="M 600 304 L 628 304 Q 630 304 650 306 L 692 311 L 724 316 Q 728 316 750 318 C 780 321 787 333 758 341 L 740 346 Q 737 347 732 347 Q 727 347 720 346 L 692 342 L 651 334 L 630 332 Q 624 330 600 327 C 570 323 570 304 600 304 Z" />
      </clipPath>
      <path clip-path="url(#make-me-a-hanzi-clip-12)" d="M 607 310 L 613 318 L 739 331 L 752 337" fill="none" id="make-me-a-hanzi-animation-12" stroke-dasharray="279 558" stroke-linecap="round" />
    
      <clipPath id="make-me-a-hanzi-clip-13">
        <path d="M 694 451 L 694 466 L 695 484 L 698 519 L 700 530 Q 700 534 704 544 Q 708 553 708 558 Q 708 564 704 570 Q 699 576 688 583 C 663 600 625 605 636 577 L 642 562 Q 647 552 649 542 Q 650 533 651 527 Q 652 521 653 510 L 654 479 L 654 442 L 652 418 L 652 388 L 652 360 L 651 334 L 650 306 L 650 263 C 650 233 689 240 690 270 L 692 311 L 692 342 L 692 368 L 693 398 L 694 426 L 694 451 Z" />
      </clipPath>
      <path clip-path="url(#make-me-a-hanzi-clip-13)" d="M 643 575 L 676 552 L 671 291 L 656 270" fill="none" id="make-me-a-hanzi-animation-13" stroke-dasharray="455 910" stroke-linecap="round" />
    
      <clipPath id="make-me-a-hanzi-clip-14">
        <path d="M 650 263 L 618 258 L 584 254 Q 572 252 563 252 Q 554 252 548 254 Q 540 257 536 257 Q 534 257 533 256 Q 530 254 528 250 L 528 248 Q 528 245 531 239 Q 534 232 543 222 Q 551 210 558 208 Q 564 206 569 206 L 572 206 Q 576 206 594 214 L 624 224 L 650 234 L 746 263 L 780 271 C 809 278 799 292 770 286 L 712 275 Q 710 274 690 270 L 650 263 Z" />
      </clipPath>
      <path clip-path="url(#make-me-a-hanzi-clip-14)" d="M 535 249 L 568 229 L 764 278 L 774 272" fill="none" id="make-me-a-hanzi-animation-14" stroke-dasharray="380 760" stroke-linecap="round" />
    
      <clipPath id="make-me-a-hanzi-clip-15">
        <path d="M 780 271 L 788 256 Q 796 240 802 239 L 804 239 Q 809 239 815 242 Q 822 247 826 257 Q 829 265 829 272 L 829 275 Q 828 284 823 290 Q 818 298 807 302 Q 796 306 786 311 C 759 324 750 329 762 303 L 770 286 L 780 271 Z" />
      </clipPath>
      <path clip-path="url(#make-me-a-hanzi-clip-15)" d="M 769 301 L 803 278 L 803 247" fill="none" id="make-me-a-hanzi-animation-15" stroke-dasharray="200 400" stroke-linecap="round" />
    
      <clipPath id="make-me-a-hanzi-clip-16">
        <path d="M 724 187 L 708 185 L 688 182 L 652 178 L 614 173 L 576 168 Q 558 166 535 165 L 520 164 Q 512 164 509 159 Q 508 158 508 157 Q 508 152 518 146 Q 529 138 544 134 Q 554 131 561 131 Q 565 131 568 132 Q 569 132 581 135 Q 592 139 619 144 Q 646 148 670 152 Q 695 156 704 156 Q 714 158 726 158 L 762 161 L 775 162 Q 779 162 795 161 Q 812 160 816 160 L 851 160 Q 865 160 868 165 L 868 167 Q 868 172 862 180 Q 854 190 837 194 Q 820 198 813 199 Q 806 199 792 196 Q 778 193 762 191 L 724 187 Z" />
      </clipPath>
      <path clip-path="url(#make-me-a-hanzi-clip-16)" d="M 516 154 L 571 150 L 671 167 L 810 180 L 839 177 L 863 166" fill="none" id="make-me-a-hanzi-animation-16" stroke-dasharray="480 960" stroke-linecap="round" />
    
      <clipPath id="make-me-a-hanzi-clip-17">
        <path d="M 726 158 L 726 142 L 724 100 Q 724 78 722 65 Q 720 52 714 48 Q 708 44 704 43 L 700 43 Q 693 43 684 45 Q 672 49 666 49 Q 662 48 660 47 Q 658 46 658 41 L 696 2 Q 714 -18 716 -18 L 721 -18 Q 724 -18 732 -14 Q 740 -10 750 4 Q 758 17 762 40 Q 762 52 761 84 Q 760 115 760 126 Q 760 138 762 161 L 762 191 L 765 206 L 770 225 Q 768 232 762 234 Q 756 237 742 241 Q 727 244 722 244 Q 714 244 712 240 Q 711 237 711 234 L 711 231 Q 712 226 717 216 Q 721 206 722 202 Q 723 196 724 187 L 726 158 Z" />
      </clipPath>
      <path clip-path="url(#make-me-a-hanzi-clip-17)" d="M 720 236 L 742 216 L 744 202 L 740 45 L 722 18 L 665 42" fill="none" id="make-me-a-hanzi-animation-17" stroke-dasharray="423 846" stroke-linecap="round" />
    
      <clipPath id="make-me-a-hanzi-clip-18">
        <path d="M 595 122 L 592 122 Q 587 122 585 120 Q 584 119 584 117 Q 584 115 586 112 L 594 96 Q 596 91 607 76 Q 618 61 626 57 Q 632 54 637 54 Q 642 54 647 56 Q 658 60 658 76 Q 658 92 652 99 Q 646 106 636 111 Q 626 116 612 118 L 595 122 Z" />
      </clipPath>
      <path clip-path="url(#make-me-a-hanzi-clip-18)" d="M 590 117 L 640 73" fill="none" id="make-me-a-hanzi-animation-18" stroke-dasharray="195 390" stroke-linecap="round" />
    
      <clipPath id="make-me-a-hanzi-clip-19">
        <path d="M 469 -82 L 850 -58 C 880 -56 908 -36 880 -24 L 856 -14 Q 850 -12 838 -12 L 830 -12 Q 813 -14 704 -24 Q 596 -34 474 -42 C 444 -44 439 -84 469 -82 Z" />
      </clipPath>
      <path clip-path="url(#make-me-a-hanzi-clip-19)" d="M 477 -76 L 500 -59 L 839 -36 L 872 -27" fill="none" id="make-me-a-hanzi-animation-19" stroke-dasharray="531 1062" stroke-linecap="round" />
    
  </g>
</svg>