<svg xmlns="http://www.w3.org/2000/svg" version="1.1" viewBox="0 0 1024 1024">
  <g stroke="lightgray" stroke-dasharray="1,1" stroke-width="1" transform="scale(4, 4)">
    <line x1="0" y1="0" x2="256" y2="256" />
    <line x1="256" y1="0" x2="0" y2="256" />
    <line x1="128" y1="0" x2="128" y2="256" />
    <line x1="0" y1="128" x2="256" y2="128" />
  </g>
  <g transform="scale(1.0, -1.0) translate(0.0, -815.50)">
    <style type="text/css">
      
        @keyframes keyframes0 {
          from {
            stroke: blue;
            stroke-dashoffset: 693;
            stroke-width: 128;
          }
          69% {
            animation-timing-function: step-end;
            stroke: blue;
            stroke-dashoffset: 0;
            stroke-width: 128;
          }
          to {
            stroke: black;
            stroke-width: 1024;
          }
        }
        #make-me-a-hanzi-animation-0 {
          animation: keyframes0 0.81396484375s both;
          animation-delay: 0s;
          animation-timing-function: linear;
        }
      
        @keyframes keyframes1 {
          from {
            stroke: blue;
            stroke-dashoffset: 787;
            stroke-width: 128;
          }
          72% {
            animation-timing-function: step-end;
            stroke: blue;
            stroke-dashoffset: 0;
            stroke-width: 128;
          }
          to {
            stroke: black;
            stroke-width: 1024;
          }
        }
        #make-me-a-hanzi-animation-1 {
          animation: keyframes1 0.8904622395833334s both;
          animation-delay: 0.81396484375s;
          animation-timing-function: linear;
        }
      
        @keyframes keyframes2 {
          from {
            stroke: blue;
            stroke-dashoffset: 377;
            stroke-width: 128;
          }
          55% {
            animation-timing-function: step-end;
            stroke: blue;
            stroke-dashoffset: 0;
            stroke-width: 128;
          }
          to {
            stroke: black;
            stroke-width: 1024;
          }
        }
        #make-me-a-hanzi-animation-2 {
          animation: keyframes2 0.5568033854166666s both;
          animation-delay: 1.7044270833333335s;
          animation-timing-function: linear;
        }
      
        @keyframes keyframes3 {
          from {
            stroke: blue;
            stroke-dashoffset: 388;
            stroke-width: 128;
          }
          56% {
            animation-timing-function: step-end;
            stroke: blue;
            stroke-dashoffset: 0;
            stroke-width: 128;
          }
          to {
            stroke: black;
            stroke-width: 1024;
          }
        }
        #make-me-a-hanzi-animation-3 {
          animation: keyframes3 0.5657552083333334s both;
          animation-delay: 2.26123046875s;
          animation-timing-function: linear;
        }
      
        @keyframes keyframes4 {
          from {
            stroke: blue;
            stroke-dashoffset: 360;
            stroke-width: 128;
          }
          54% {
            animation-timing-function: step-end;
            stroke: blue;
            stroke-dashoffset: 0;
            stroke-width: 128;
          }
          to {
            stroke: black;
            stroke-width: 1024;
          }
        }
        #make-me-a-hanzi-animation-4 {
          animation: keyframes4 0.54296875s both;
          animation-delay: 2.8269856770833335s;
          animation-timing-function: linear;
        }
      
        @keyframes keyframes5 {
          from {
            stroke: blue;
            stroke-dashoffset: 355;
            stroke-width: 128;
          }
          54% {
            animation-timing-function: step-end;
            stroke: blue;
            stroke-dashoffset: 0;
            stroke-width: 128;
          }
          to {
            stroke: black;
            stroke-width: 1024;
          }
        }
        #make-me-a-hanzi-animation-5 {
          animation: keyframes5 0.5388997395833334s both;
          animation-delay: 3.3699544270833335s;
          animation-timing-function: linear;
        }
      
        @keyframes keyframes6 {
          from {
            stroke: blue;
            stroke-dashoffset: 687;
            stroke-width: 128;
          }
          69% {
            animation-timing-function: step-end;
            stroke: blue;
            stroke-dashoffset: 0;
            stroke-width: 128;
          }
          to {
            stroke: black;
            stroke-width: 1024;
          }
        }
        #make-me-a-hanzi-animation-6 {
          animation: keyframes6 0.80908203125s both;
          animation-delay: 3.908854166666667s;
          animation-timing-function: linear;
        }
      
        @keyframes keyframes7 {
          from {
            stroke: blue;
            stroke-dashoffset: 546;
            stroke-width: 128;
          }
          64% {
            animation-timing-function: step-end;
            stroke: blue;
            stroke-dashoffset: 0;
            stroke-width: 128;
          }
          to {
            stroke: black;
            stroke-width: 1024;
          }
        }
        #make-me-a-hanzi-animation-7 {
          animation: keyframes7 0.6943359375s both;
          animation-delay: 4.717936197916667s;
          animation-timing-function: linear;
        }
      
        @keyframes keyframes8 {
          from {
            stroke: blue;
            stroke-dashoffset: 615;
            stroke-width: 128;
          }
          67% {
            animation-timing-function: step-end;
            stroke: blue;
            stroke-dashoffset: 0;
            stroke-width: 128;
          }
          to {
            stroke: black;
            stroke-width: 1024;
          }
        }
        #make-me-a-hanzi-animation-8 {
          animation: keyframes8 0.75048828125s both;
          animation-delay: 5.412272135416667s;
          animation-timing-function: linear;
        }
      
        @keyframes keyframes9 {
          from {
            stroke: blue;
            stroke-dashoffset: 788;
            stroke-width: 128;
          }
          72% {
            animation-timing-function: step-end;
            stroke: blue;
            stroke-dashoffset: 0;
            stroke-width: 128;
          }
          to {
            stroke: black;
            stroke-width: 1024;
          }
        }
        #make-me-a-hanzi-animation-9 {
          animation: keyframes9 0.8912760416666666s both;
          animation-delay: 6.162760416666667s;
          animation-timing-function: linear;
        }
      
        @keyframes keyframes10 {
          from {
            stroke: blue;
            stroke-dashoffset: 436;
            stroke-width: 128;
          }
          59% {
            animation-timing-function: step-end;
            stroke: blue;
            stroke-dashoffset: 0;
            stroke-width: 128;
          }
          to {
            stroke: black;
            stroke-width: 1024;
          }
        }
        #make-me-a-hanzi-animation-10 {
          animation: keyframes10 0.6048177083333334s both;
          animation-delay: 7.054036458333334s;
          animation-timing-function: linear;
        }
      
        @keyframes keyframes11 {
          from {
            stroke: blue;
            stroke-dashoffset: 436;
            stroke-width: 128;
          }
          59% {
            animation-timing-function: step-end;
            stroke: blue;
            stroke-dashoffset: 0;
            stroke-width: 128;
          }
          to {
            stroke: black;
            stroke-width: 1024;
          }
        }
        #make-me-a-hanzi-animation-11 {
          animation: keyframes11 0.6048177083333334s both;
          animation-delay: 7.658854166666667s;
          animation-timing-function: linear;
        }
      
        @keyframes keyframes12 {
          from {
            stroke: blue;
            stroke-dashoffset: 436;
            stroke-width: 128;
          }
          59% {
            animation-timing-function: step-end;
            stroke: blue;
            stroke-dashoffset: 0;
            stroke-width: 128;
          }
          to {
            stroke: black;
            stroke-width: 1024;
          }
        }
        #make-me-a-hanzi-animation-12 {
          animation: keyframes12 0.6048177083333334s both;
          animation-delay: 8.263671875s;
          animation-timing-function: linear;
        }
      
        @keyframes keyframes13 {
          from {
            stroke: blue;
            stroke-dashoffset: 824;
            stroke-width: 128;
          }
          73% {
            animation-timing-function: step-end;
            stroke: blue;
            stroke-dashoffset: 0;
            stroke-width: 128;
          }
          to {
            stroke: black;
            stroke-width: 1024;
          }
        }
        #make-me-a-hanzi-animation-13 {
          animation: keyframes13 0.9205729166666666s both;
          animation-delay: 8.868489583333334s;
          animation-timing-function: linear;
        }
      
        @keyframes keyframes14 {
          from {
            stroke: blue;
            stroke-dashoffset: 514;
            stroke-width: 128;
          }
          63% {
            animation-timing-function: step-end;
            stroke: blue;
            stroke-dashoffset: 0;
            stroke-width: 128;
          }
          to {
            stroke: black;
            stroke-width: 1024;
          }
        }
        #make-me-a-hanzi-animation-14 {
          animation: keyframes14 0.6682942708333334s both;
          animation-delay: 9.7890625s;
          animation-timing-function: linear;
        }
      
        @keyframes keyframes15 {
          from {
            stroke: blue;
            stroke-dashoffset: 456;
            stroke-width: 128;
          }
          60% {
            animation-timing-function: step-end;
            stroke: blue;
            stroke-dashoffset: 0;
            stroke-width: 128;
          }
          to {
            stroke: black;
            stroke-width: 1024;
          }
        }
        #make-me-a-hanzi-animation-15 {
          animation: keyframes15 0.62109375s both;
          animation-delay: 10.457356770833334s;
          animation-timing-function: linear;
        }
      
    </style>
    
      <path d="M 282 406 L 223 398 L 201 395 Q 193 396 191 400 Q 190 401 190 403 Q 190 406 194 412 Q 199 422 213 440 L 287 535 L 311 569 Q 323 585 333 593 Q 342 602 343 606 Q 343 610 338 620 Q 333 630 324 637 Q 315 644 303 652 Q 290 659 284 660 Q 277 660 274 657 Q 270 654 269 639 Q 267 624 261 606 Q 255 589 247 570 Q 239 552 232 540 Q 226 529 207 498 Q 187 466 179 455 L 157 431 Q 145 419 137 413 Q 129 407 121 402 Q 113 398 112 394 Q 110 392 110 388 Q 110 385 111 382 Q 113 375 118 363 Q 124 350 129 343 Q 135 336 142 336 L 144 336 Q 147 336 151 338 Q 158 342 177 348 L 199 356 L 257 370 C 286 377 312 410 282 406 Z" fill="lightgray" />
    
      <path d="M 257 370 L 243 351 L 205 302 Q 176 268 164 255 Q 153 243 142 236 Q 132 229 129 226 Q 127 224 125 220 L 125 217 Q 125 210 132 197 Q 142 182 151 175 Q 159 168 165 168 Q 169 168 181 177 Q 192 186 207 195 Q 223 204 224 204 L 337 255 C 364 267 354 290 326 279 L 225 240 Q 213 234 209 234 Q 207 234 205 236 L 205 237 Q 205 239 207 243 Q 210 248 220 260 L 347 411 L 369 438 Q 379 450 388 458 Q 397 465 399 470 L 399 471 Q 399 476 394 486 Q 389 497 386 500 Q 383 504 372 515 Q 361 526 357 529 Q 348 534 343 534 Q 341 534 340 533 Q 335 529 335 521 L 331 502 Q 329 494 325 480 Q 320 468 313 455 Q 306 442 297 428 Q 287 414 282 406 L 257 370 Z" fill="lightgray" />
    
      <path d="M 337 255 L 349 233 Q 355 220 362 216 Q 368 211 376 211 L 378 211 Q 387 212 394 228 Q 398 237 398 247 Q 398 253 397 260 Q 393 278 383 290 Q 374 301 360 309 Q 345 318 329 324 Q 320 328 315 328 Q 312 328 310 326 Q 309 325 309 322 Q 309 317 313 306 L 326 279 L 337 255 Z" fill="lightgray" />
    
      <path d="M 104 81 L 116 56 Q 125 37 135 20 Q 145 2 155 -5 Q 165 -14 172 -14 L 175 -14 Q 185 -12 191 0 Q 196 10 196 24 L 196 29 Q 194 46 185 60 Q 177 74 167 81 Q 158 88 143 97 Q 127 105 122 107 L 109 111 Q 105 112 102 112 Q 97 112 95 110 Q 94 108 94 106 Q 94 103 96 98 L 104 81 Z" fill="lightgray" />
    
      <path d="M 221 151 Q 217 152 214 152 Q 210 152 208 149 Q 207 147 207 145 Q 207 142 209 137 L 216 126 Q 220 119 230 104 Q 241 88 247 78 Q 253 68 259 62 Q 268 54 274 54 L 277 54 Q 285 56 290 65 Q 295 74 295 87 Q 294 100 289 109 Q 285 118 277 124 Q 269 130 255 137 Q 241 144 233 147 L 221 151 Z" fill="lightgray" />
    
      <path d="M 301 201 L 297 201 Q 292 201 290 199 Q 289 198 289 196 Q 289 192 292 188 L 301 174 Q 303 171 313 157 L 330 133 Q 338 122 346 118 Q 353 114 358 114 L 362 114 Q 369 116 373 126 Q 376 134 376 143 L 376 148 Q 375 160 369 168 Q 364 176 357 180 Q 350 184 334 191 Q 318 197 313 198 L 301 201 Z" fill="lightgray" />
    
      <path d="M 661 546 L 688 548 Q 739 554 765 554 L 794 554 L 833 556 Q 845 556 854 559 Q 863 563 865 570 L 865 571 Q 865 578 847 586 Q 828 595 814 599 Q 799 603 789 604 Q 781 604 764 600 Q 747 596 729 593 Q 711 590 695 588 Q 679 586 669 584 L 609 576 L 571 572 Q 560 570 518 564 Q 475 558 455 557 L 433 556 Q 425 554 422 551 Q 421 550 421 548 Q 421 546 423 542 Q 425 538 437 531 Q 449 525 460 523 Q 467 521 474 521 Q 478 521 483 522 Q 492 522 516 526 Q 541 530 563 532 Q 585 534 588 535 Q 592 536 606 538 L 661 546 Z" fill="lightgray" />
    
      <path d="M 647 465 L 661 546 L 669 584 L 671 597 L 675 619 Q 675 624 681 644 Q 686 664 689 671 Q 698 688 698 694 L 698 695 Q 697 700 687 708 Q 677 716 658 724 Q 639 732 627 732 Q 611 732 609 728 Q 608 726 608 723 Q 608 717 611 708 Q 615 694 617 680 L 617 652 Q 616 636 612 599 L 609 576 L 606 538 L 597 454 C 594 424 642 435 647 465 Z" fill="lightgray" />
    
      <path d="M 546 444 L 519 455 Q 509 459 497 461 Q 486 462 478 462 Q 468 462 465 458 Q 463 456 463 453 Q 463 451 464 448 Q 466 443 471 435 Q 477 428 479 417 Q 483 406 483 392 L 483 362 L 485 111 C 485 81 531 86 532 116 L 535 184 L 535 208 L 537 264 L 538 289 L 541 342 L 542 368 L 546 417 C 548 443 548 443 546 444 Z" fill="lightgray" />
    
      <path d="M 597 454 L 546 444 C 517 438 516 412 546 417 L 692 442 Q 699 443 704 443 Q 717 443 722 438 Q 729 430 729 414 Q 729 398 730 380 L 730 360 L 727 306 L 727 280 L 725 222 L 724 198 L 723 134 C 723 104 773 108 775 138 L 791 342 Q 791 354 795 377 Q 797 400 800 407 Q 803 414 809 424 Q 814 431 814 437 L 814 439 Q 814 446 802 454 Q 790 462 775 470 Q 759 478 748 482 Q 737 486 731 486 Q 725 485 711 481 Q 699 476 667 470 L 647 465 L 597 454 Z" fill="lightgray" />
    
      <path d="M 541 342 L 567 339 L 569 339 Q 577 339 606 343 L 730 360 C 760 364 758 368 730 380 L 709 389 Q 699 392 685 393 Q 675 393 653 387 Q 631 381 617 379 L 542 368 C 512 364 511 345 541 342 Z" fill="lightgray" />
    
      <path d="M 727 306 L 713 310 Q 700 315 686 315 L 682 315 Q 675 314 656 310 Q 637 304 607 300 L 538 289 C 508 284 507 267 537 264 L 566 261 L 568 261 Q 575 261 601 264 L 727 280 C 757 284 756 298 727 306 Z" fill="lightgray" />
    
      <path d="M 725 222 L 713 228 Q 706 233 694 233 Q 690 233 686 232 Q 680 232 670 230 Q 659 228 637 223 Q 613 218 606 218 L 535 208 C 505 204 505 188 535 184 L 571 179 L 573 179 Q 580 179 606 182 L 724 198 C 754 202 752 209 725 222 Z" fill="lightgray" />
    
      <path d="M 485 111 L 451 110 L 395 107 L 373 106 Q 363 106 360 101 Q 359 99 359 98 Q 359 94 363 90 Q 369 84 381 76 Q 394 68 410 64 Q 423 59 433 59 L 436 59 Q 444 59 464 64 Q 485 69 507 73 Q 529 77 571 81 Q 613 86 630 86 Q 647 87 716 89 Q 785 90 802 90 Q 819 90 857 88 L 885 86 Q 893 85 900 85 Q 914 85 923 88 Q 935 93 937 99 L 937 100 Q 937 106 929 113 Q 921 122 907 128 Q 893 136 879 141 Q 863 146 847 147 Q 837 147 817 144 Q 797 140 775 138 L 723 134 L 687 130 Q 669 128 615 123 Q 559 118 532 116 L 485 111 Z" fill="lightgray" />
    
      <path d="M 380 -117 Q 392 -114 413 -104 Q 433 -96 454 -85 Q 475 -74 497 -59 L 543 -28 Q 555 -20 563 -17 Q 571 -14 575 -12 Q 579 -10 581 -4 L 581 -1 Q 581 4 575 10 Q 566 20 554 26 Q 543 32 532 35 Q 521 39 509 41 L 504 41 Q 500 41 498 40 Q 496 38 495 30 Q 493 20 485 7 Q 477 -6 461 -24 Q 445 -42 418 -64 Q 391 -86 369 -102 L 355 -112 Q 350 -116 350 -120 L 350 -122 Q 351 -125 355 -125 Q 357 -125 360 -124 L 380 -117 Z" fill="lightgray" />
    
      <path d="M 763 -61 Q 791 -95 805 -108 Q 819 -121 829 -121 L 830 -121 Q 839 -120 845 -112 Q 851 -104 851 -84 Q 851 -65 845 -50 Q 839 -36 823 -22 Q 807 -8 775 8 Q 743 24 727 30 L 697 40 Q 695 41 693 41 Q 690 41 688 38 Q 687 37 687 35 Q 687 31 691 26 L 763 -61 Z" fill="lightgray" />
    
    
      <clipPath id="make-me-a-hanzi-clip-0">
        <path d="M 282 406 L 223 398 L 201 395 Q 193 396 191 400 Q 190 401 190 403 Q 190 406 194 412 Q 199 422 213 440 L 287 535 L 311 569 Q 323 585 333 593 Q 342 602 343 606 Q 343 610 338 620 Q 333 630 324 637 Q 315 644 303 652 Q 290 659 284 660 Q 277 660 274 657 Q 270 654 269 639 Q 267 624 261 606 Q 255 589 247 570 Q 239 552 232 540 Q 226 529 207 498 Q 187 466 179 455 L 157 431 Q 145 419 137 413 Q 129 407 121 402 Q 113 398 112 394 Q 110 392 110 388 Q 110 385 111 382 Q 113 375 118 363 Q 124 350 129 343 Q 135 336 142 336 L 144 336 Q 147 336 151 338 Q 158 342 177 348 L 199 356 L 257 370 C 286 377 312 410 282 406 Z" />
      </clipPath>
      <path clip-path="url(#make-me-a-hanzi-clip-0)" d="M 282 649 L 300 611 L 255 531 L 167 409 L 158 381 L 202 375 L 248 385 L 275 402" fill="none" id="make-me-a-hanzi-animation-0" stroke-dasharray="565 1130" stroke-linecap="round" />
    
      <clipPath id="make-me-a-hanzi-clip-1">
        <path d="M 257 370 L 243 351 L 205 302 Q 176 268 164 255 Q 153 243 142 236 Q 132 229 129 226 Q 127 224 125 220 L 125 217 Q 125 210 132 197 Q 142 182 151 175 Q 159 168 165 168 Q 169 168 181 177 Q 192 186 207 195 Q 223 204 224 204 L 337 255 C 364 267 354 290 326 279 L 225 240 Q 213 234 209 234 Q 207 234 205 236 L 205 237 Q 205 239 207 243 Q 210 248 220 260 L 347 411 L 369 438 Q 379 450 388 458 Q 397 465 399 470 L 399 471 Q 399 476 394 486 Q 389 497 386 500 Q 383 504 372 515 Q 361 526 357 529 Q 348 534 343 534 Q 341 534 340 533 Q 335 529 335 521 L 331 502 Q 329 494 325 480 Q 320 468 313 455 Q 306 442 297 428 Q 287 414 282 406 L 257 370 Z" />
      </clipPath>
      <path clip-path="url(#make-me-a-hanzi-clip-1)" d="M 345 524 L 359 477 L 296 385 L 190 255 L 175 217 L 204 215 L 319 262 L 327 258" fill="none" id="make-me-a-hanzi-animation-1" stroke-dasharray="659 1318" stroke-linecap="round" />
    
      <clipPath id="make-me-a-hanzi-clip-2">
        <path d="M 337 255 L 349 233 Q 355 220 362 216 Q 368 211 376 211 L 378 211 Q 387 212 394 228 Q 398 237 398 247 Q 398 253 397 260 Q 393 278 383 290 Q 374 301 360 309 Q 345 318 329 324 Q 320 328 315 328 Q 312 328 310 326 Q 309 325 309 322 Q 309 317 313 306 L 326 279 L 337 255 Z" />
      </clipPath>
      <path clip-path="url(#make-me-a-hanzi-clip-2)" d="M 314 323 L 360 273 L 377 223" fill="none" id="make-me-a-hanzi-animation-2" stroke-dasharray="249 498" stroke-linecap="round" />
    
      <clipPath id="make-me-a-hanzi-clip-3">
        <path d="M 104 81 L 116 56 Q 125 37 135 20 Q 145 2 155 -5 Q 165 -14 172 -14 L 175 -14 Q 185 -12 191 0 Q 196 10 196 24 L 196 29 Q 194 46 185 60 Q 177 74 167 81 Q 158 88 143 97 Q 127 105 122 107 L 109 111 Q 105 112 102 112 Q 97 112 95 110 Q 94 108 94 106 Q 94 103 96 98 L 104 81 Z" />
      </clipPath>
      <path clip-path="url(#make-me-a-hanzi-clip-3)" d="M 100 107 L 155 49 L 174 0" fill="none" id="make-me-a-hanzi-animation-3" stroke-dasharray="260 520" stroke-linecap="round" />
    
      <clipPath id="make-me-a-hanzi-clip-4">
        <path d="M 221 151 Q 217 152 214 152 Q 210 152 208 149 Q 207 147 207 145 Q 207 142 209 137 L 216 126 Q 220 119 230 104 Q 241 88 247 78 Q 253 68 259 62 Q 268 54 274 54 L 277 54 Q 285 56 290 65 Q 295 74 295 87 Q 294 100 289 109 Q 285 118 277 124 Q 269 130 255 137 Q 241 144 233 147 L 221 151 Z" />
      </clipPath>
      <path clip-path="url(#make-me-a-hanzi-clip-4)" d="M 214 146 L 264 100 L 276 66" fill="none" id="make-me-a-hanzi-animation-4" stroke-dasharray="232 464" stroke-linecap="round" />
    
      <clipPath id="make-me-a-hanzi-clip-5">
        <path d="M 301 201 L 297 201 Q 292 201 290 199 Q 289 198 289 196 Q 289 192 292 188 L 301 174 Q 303 171 313 157 L 330 133 Q 338 122 346 118 Q 353 114 358 114 L 362 114 Q 369 116 373 126 Q 376 134 376 143 L 376 148 Q 375 160 369 168 Q 364 176 357 180 Q 350 184 334 191 Q 318 197 313 198 L 301 201 Z" />
      </clipPath>
      <path clip-path="url(#make-me-a-hanzi-clip-5)" d="M 295 196 L 341 161 L 360 124" fill="none" id="make-me-a-hanzi-animation-5" stroke-dasharray="227 454" stroke-linecap="round" />
    
      <clipPath id="make-me-a-hanzi-clip-6">
        <path d="M 661 546 L 688 548 Q 739 554 765 554 L 794 554 L 833 556 Q 845 556 854 559 Q 863 563 865 570 L 865 571 Q 865 578 847 586 Q 828 595 814 599 Q 799 603 789 604 Q 781 604 764 600 Q 747 596 729 593 Q 711 590 695 588 Q 679 586 669 584 L 609 576 L 571 572 Q 560 570 518 564 Q 475 558 455 557 L 433 556 Q 425 554 422 551 Q 421 550 421 548 Q 421 546 423 542 Q 425 538 437 531 Q 449 525 460 523 Q 467 521 474 521 Q 478 521 483 522 Q 492 522 516 526 Q 541 530 563 532 Q 585 534 588 535 Q 592 536 606 538 L 661 546 Z" />
      </clipPath>
      <path clip-path="url(#make-me-a-hanzi-clip-6)" d="M 429 547 L 469 539 L 786 579 L 856 571" fill="none" id="make-me-a-hanzi-animation-6" stroke-dasharray="559 1118" stroke-linecap="round" />
    
      <clipPath id="make-me-a-hanzi-clip-7">
        <path d="M 647 465 L 661 546 L 669 584 L 671 597 L 675 619 Q 675 624 681 644 Q 686 664 689 671 Q 698 688 698 694 L 698 695 Q 697 700 687 708 Q 677 716 658 724 Q 639 732 627 732 Q 611 732 609 728 Q 608 726 608 723 Q 608 717 611 708 Q 615 694 617 680 L 617 652 Q 616 636 612 599 L 609 576 L 606 538 L 597 454 C 594 424 642 435 647 465 Z" />
      </clipPath>
      <path clip-path="url(#make-me-a-hanzi-clip-7)" d="M 615 724 L 654 685 L 626 489 L 602 461" fill="none" id="make-me-a-hanzi-animation-7" stroke-dasharray="418 836" stroke-linecap="round" />
    
      <clipPath id="make-me-a-hanzi-clip-8">
        <path d="M 546 444 L 519 455 Q 509 459 497 461 Q 486 462 478 462 Q 468 462 465 458 Q 463 456 463 453 Q 463 451 464 448 Q 466 443 471 435 Q 477 428 479 417 Q 483 406 483 392 L 483 362 L 485 111 C 485 81 531 86 532 116 L 535 184 L 535 208 L 537 264 L 538 289 L 541 342 L 542 368 L 546 417 C 548 443 548 443 546 444 Z" />
      </clipPath>
      <path clip-path="url(#make-me-a-hanzi-clip-8)" d="M 472 452 L 498 437 L 514 413 L 509 138 L 492 119" fill="none" id="make-me-a-hanzi-animation-8" stroke-dasharray="487 974" stroke-linecap="round" />
    
      <clipPath id="make-me-a-hanzi-clip-9">
        <path d="M 597 454 L 546 444 C 517 438 516 412 546 417 L 692 442 Q 699 443 704 443 Q 717 443 722 438 Q 729 430 729 414 Q 729 398 730 380 L 730 360 L 727 306 L 727 280 L 725 222 L 724 198 L 723 134 C 723 104 773 108 775 138 L 791 342 Q 791 354 795 377 Q 797 400 800 407 Q 803 414 809 424 Q 814 431 814 437 L 814 439 Q 814 446 802 454 Q 790 462 775 470 Q 759 478 748 482 Q 737 486 731 486 Q 725 485 711 481 Q 699 476 667 470 L 647 465 L 597 454 Z" />
      </clipPath>
      <path clip-path="url(#make-me-a-hanzi-clip-9)" d="M 552 424 L 559 433 L 722 462 L 744 455 L 764 434 L 751 163 L 729 140" fill="none" id="make-me-a-hanzi-animation-9" stroke-dasharray="660 1320" stroke-linecap="round" />
    
      <clipPath id="make-me-a-hanzi-clip-10">
        <path d="M 541 342 L 567 339 L 569 339 Q 577 339 606 343 L 730 360 C 760 364 758 368 730 380 L 709 389 Q 699 392 685 393 Q 675 393 653 387 Q 631 381 617 379 L 542 368 C 512 364 511 345 541 342 Z" />
      </clipPath>
      <path clip-path="url(#make-me-a-hanzi-clip-10)" d="M 548 348 L 556 355 L 683 373 L 717 371 L 721 365" fill="none" id="make-me-a-hanzi-animation-10" stroke-dasharray="308 616" stroke-linecap="round" />
    
      <clipPath id="make-me-a-hanzi-clip-11">
        <path d="M 727 306 L 713 310 Q 700 315 686 315 L 682 315 Q 675 314 656 310 Q 637 304 607 300 L 538 289 C 508 284 507 267 537 264 L 566 261 L 568 261 Q 575 261 601 264 L 727 280 C 757 284 756 298 727 306 Z" />
      </clipPath>
      <path clip-path="url(#make-me-a-hanzi-clip-11)" d="M 545 270 L 552 277 L 680 295 L 711 294 L 718 287" fill="none" id="make-me-a-hanzi-animation-11" stroke-dasharray="308 616" stroke-linecap="round" />
    
      <clipPath id="make-me-a-hanzi-clip-12">
        <path d="M 725 222 L 713 228 Q 706 233 694 233 Q 690 233 686 232 Q 680 232 670 230 Q 659 228 637 223 Q 613 218 606 218 L 535 208 C 505 204 505 188 535 184 L 571 179 L 573 179 Q 580 179 606 182 L 724 198 C 754 202 752 209 725 222 Z" />
      </clipPath>
      <path clip-path="url(#make-me-a-hanzi-clip-12)" d="M 542 190 L 549 196 L 697 214 L 716 204" fill="none" id="make-me-a-hanzi-animation-12" stroke-dasharray="308 616" stroke-linecap="round" />
    
      <clipPath id="make-me-a-hanzi-clip-13">
        <path d="M 485 111 L 451 110 L 395 107 L 373 106 Q 363 106 360 101 Q 359 99 359 98 Q 359 94 363 90 Q 369 84 381 76 Q 394 68 410 64 Q 423 59 433 59 L 436 59 Q 444 59 464 64 Q 485 69 507 73 Q 529 77 571 81 Q 613 86 630 86 Q 647 87 716 89 Q 785 90 802 90 Q 819 90 857 88 L 885 86 Q 893 85 900 85 Q 914 85 923 88 Q 935 93 937 99 L 937 100 Q 937 106 929 113 Q 921 122 907 128 Q 893 136 879 141 Q 863 146 847 147 Q 837 147 817 144 Q 797 140 775 138 L 723 134 L 687 130 Q 669 128 615 123 Q 559 118 532 116 L 485 111 Z" />
      </clipPath>
      <path clip-path="url(#make-me-a-hanzi-clip-13)" d="M 367 97 L 435 84 L 608 105 L 829 118 L 876 114 L 930 100" fill="none" id="make-me-a-hanzi-animation-13" stroke-dasharray="696 1392" stroke-linecap="round" />
    
      <clipPath id="make-me-a-hanzi-clip-14">
        <path d="M 380 -117 Q 392 -114 413 -104 Q 433 -96 454 -85 Q 475 -74 497 -59 L 543 -28 Q 555 -20 563 -17 Q 571 -14 575 -12 Q 579 -10 581 -4 L 581 -1 Q 581 4 575 10 Q 566 20 554 26 Q 543 32 532 35 Q 521 39 509 41 L 504 41 Q 500 41 498 40 Q 496 38 495 30 Q 493 20 485 7 Q 477 -6 461 -24 Q 445 -42 418 -64 Q 391 -86 369 -102 L 355 -112 Q 350 -116 350 -120 L 350 -122 Q 351 -125 355 -125 Q 357 -125 360 -124 L 380 -117 Z" />
      </clipPath>
      <path clip-path="url(#make-me-a-hanzi-clip-14)" d="M 571 -2 L 522 1 L 459 -58 L 354 -121" fill="none" id="make-me-a-hanzi-animation-14" stroke-dasharray="386 772" stroke-linecap="round" />
    
      <clipPath id="make-me-a-hanzi-clip-15">
        <path d="M 763 -61 Q 791 -95 805 -108 Q 819 -121 829 -121 L 830 -121 Q 839 -120 845 -112 Q 851 -104 851 -84 Q 851 -65 845 -50 Q 839 -36 823 -22 Q 807 -8 775 8 Q 743 24 727 30 L 697 40 Q 695 41 693 41 Q 690 41 688 38 Q 687 37 687 35 Q 687 31 691 26 L 763 -61 Z" />
      </clipPath>
      <path clip-path="url(#make-me-a-hanzi-clip-15)" d="M 694 35 L 803 -52 L 830 -106" fill="none" id="make-me-a-hanzi-animation-15" stroke-dasharray="328 656" stroke-linecap="round" />
    
  </g>
</svg>