<svg xmlns="http://www.w3.org/2000/svg" version="1.1" viewBox="0 0 1024 1024">
  <g stroke="lightgray" stroke-dasharray="1,1" stroke-width="1" transform="scale(4, 4)">
    <line x1="0" y1="0" x2="256" y2="256" />
    <line x1="256" y1="0" x2="0" y2="256" />
    <line x1="128" y1="0" x2="128" y2="256" />
    <line x1="0" y1="128" x2="256" y2="128" />
  </g>
  <g transform="scale(1.0, -1.0) translate(0.0, -801.50)">
    <style type="text/css">
      
        @keyframes keyframes0 {
          from {
            stroke: blue;
            stroke-dashoffset: 566;
            stroke-width: 128;
          }
          65% {
            animation-timing-function: step-end;
            stroke: blue;
            stroke-dashoffset: 0;
            stroke-width: 128;
          }
          to {
            stroke: black;
            stroke-width: 1024;
          }
        }
        #make-me-a-hanzi-animation-0 {
          animation: keyframes0 0.7106119791666666s both;
          animation-delay: 0s;
          animation-timing-function: linear;
        }
      
        @keyframes keyframes1 {
          from {
            stroke: blue;
            stroke-dashoffset: 471;
            stroke-width: 128;
          }
          61% {
            animation-timing-function: step-end;
            stroke: blue;
            stroke-dashoffset: 0;
            stroke-width: 128;
          }
          to {
            stroke: black;
            stroke-width: 1024;
          }
        }
        #make-me-a-hanzi-animation-1 {
          animation: keyframes1 0.63330078125s both;
          animation-delay: 0.7106119791666666s;
          animation-timing-function: linear;
        }
      
        @keyframes keyframes2 {
          from {
            stroke: blue;
            stroke-dashoffset: 496;
            stroke-width: 128;
          }
          62% {
            animation-timing-function: step-end;
            stroke: blue;
            stroke-dashoffset: 0;
            stroke-width: 128;
          }
          to {
            stroke: black;
            stroke-width: 1024;
          }
        }
        #make-me-a-hanzi-animation-2 {
          animation: keyframes2 0.6536458333333334s both;
          animation-delay: 1.3439127604166665s;
          animation-timing-function: linear;
        }
      
        @keyframes keyframes3 {
          from {
            stroke: blue;
            stroke-dashoffset: 399;
            stroke-width: 128;
          }
          56% {
            animation-timing-function: step-end;
            stroke: blue;
            stroke-dashoffset: 0;
            stroke-width: 128;
          }
          to {
            stroke: black;
            stroke-width: 1024;
          }
        }
        #make-me-a-hanzi-animation-3 {
          animation: keyframes3 0.57470703125s both;
          animation-delay: 1.99755859375s;
          animation-timing-function: linear;
        }
      
        @keyframes keyframes4 {
          from {
            stroke: blue;
            stroke-dashoffset: 638;
            stroke-width: 128;
          }
          67% {
            animation-timing-function: step-end;
            stroke: blue;
            stroke-dashoffset: 0;
            stroke-width: 128;
          }
          to {
            stroke: black;
            stroke-width: 1024;
          }
        }
        #make-me-a-hanzi-animation-4 {
          animation: keyframes4 0.7692057291666666s both;
          animation-delay: 2.572265625s;
          animation-timing-function: linear;
        }
      
        @keyframes keyframes5 {
          from {
            stroke: blue;
            stroke-dashoffset: 434;
            stroke-width: 128;
          }
          59% {
            animation-timing-function: step-end;
            stroke: blue;
            stroke-dashoffset: 0;
            stroke-width: 128;
          }
          to {
            stroke: black;
            stroke-width: 1024;
          }
        }
        #make-me-a-hanzi-animation-5 {
          animation: keyframes5 0.6031901041666666s both;
          animation-delay: 3.3414713541666665s;
          animation-timing-function: linear;
        }
      
        @keyframes keyframes6 {
          from {
            stroke: blue;
            stroke-dashoffset: 477;
            stroke-width: 128;
          }
          61% {
            animation-timing-function: step-end;
            stroke: blue;
            stroke-dashoffset: 0;
            stroke-width: 128;
          }
          to {
            stroke: black;
            stroke-width: 1024;
          }
        }
        #make-me-a-hanzi-animation-6 {
          animation: keyframes6 0.63818359375s both;
          animation-delay: 3.944661458333333s;
          animation-timing-function: linear;
        }
      
        @keyframes keyframes7 {
          from {
            stroke: blue;
            stroke-dashoffset: 725;
            stroke-width: 128;
          }
          70% {
            animation-timing-function: step-end;
            stroke: blue;
            stroke-dashoffset: 0;
            stroke-width: 128;
          }
          to {
            stroke: black;
            stroke-width: 1024;
          }
        }
        #make-me-a-hanzi-animation-7 {
          animation: keyframes7 0.8400065104166666s both;
          animation-delay: 4.582845052083333s;
          animation-timing-function: linear;
        }
      
        @keyframes keyframes8 {
          from {
            stroke: blue;
            stroke-dashoffset: 364;
            stroke-width: 128;
          }
          54% {
            animation-timing-function: step-end;
            stroke: blue;
            stroke-dashoffset: 0;
            stroke-width: 128;
          }
          to {
            stroke: black;
            stroke-width: 1024;
          }
        }
        #make-me-a-hanzi-animation-8 {
          animation: keyframes8 0.5462239583333334s both;
          animation-delay: 5.4228515625s;
          animation-timing-function: linear;
        }
      
        @keyframes keyframes9 {
          from {
            stroke: blue;
            stroke-dashoffset: 588;
            stroke-width: 128;
          }
          66% {
            animation-timing-function: step-end;
            stroke: blue;
            stroke-dashoffset: 0;
            stroke-width: 128;
          }
          to {
            stroke: black;
            stroke-width: 1024;
          }
        }
        #make-me-a-hanzi-animation-9 {
          animation: keyframes9 0.728515625s both;
          animation-delay: 5.969075520833333s;
          animation-timing-function: linear;
        }
      
        @keyframes keyframes10 {
          from {
            stroke: blue;
            stroke-dashoffset: 454;
            stroke-width: 128;
          }
          60% {
            animation-timing-function: step-end;
            stroke: blue;
            stroke-dashoffset: 0;
            stroke-width: 128;
          }
          to {
            stroke: black;
            stroke-width: 1024;
          }
        }
        #make-me-a-hanzi-animation-10 {
          animation: keyframes10 0.6194661458333334s both;
          animation-delay: 6.697591145833333s;
          animation-timing-function: linear;
        }
      
        @keyframes keyframes11 {
          from {
            stroke: blue;
            stroke-dashoffset: 383;
            stroke-width: 128;
          }
          55% {
            animation-timing-function: step-end;
            stroke: blue;
            stroke-dashoffset: 0;
            stroke-width: 128;
          }
          to {
            stroke: black;
            stroke-width: 1024;
          }
        }
        #make-me-a-hanzi-animation-11 {
          animation: keyframes11 0.5616861979166666s both;
          animation-delay: 7.317057291666666s;
          animation-timing-function: linear;
        }
      
        @keyframes keyframes12 {
          from {
            stroke: blue;
            stroke-dashoffset: 608;
            stroke-width: 128;
          }
          66% {
            animation-timing-function: step-end;
            stroke: blue;
            stroke-dashoffset: 0;
            stroke-width: 128;
          }
          to {
            stroke: black;
            stroke-width: 1024;
          }
        }
        #make-me-a-hanzi-animation-12 {
          animation: keyframes12 0.7447916666666666s both;
          animation-delay: 7.878743489583333s;
          animation-timing-function: linear;
        }
      
        @keyframes keyframes13 {
          from {
            stroke: blue;
            stroke-dashoffset: 789;
            stroke-width: 128;
          }
          72% {
            animation-timing-function: step-end;
            stroke: blue;
            stroke-dashoffset: 0;
            stroke-width: 128;
          }
          to {
            stroke: black;
            stroke-width: 1024;
          }
        }
        #make-me-a-hanzi-animation-13 {
          animation: keyframes13 0.89208984375s both;
          animation-delay: 8.62353515625s;
          animation-timing-function: linear;
        }
      
        @keyframes keyframes14 {
          from {
            stroke: blue;
            stroke-dashoffset: 935;
            stroke-width: 128;
          }
          75% {
            animation-timing-function: step-end;
            stroke: blue;
            stroke-dashoffset: 0;
            stroke-width: 128;
          }
          to {
            stroke: black;
            stroke-width: 1024;
          }
        }
        #make-me-a-hanzi-animation-14 {
          animation: keyframes14 1.0109049479166667s both;
          animation-delay: 9.515625s;
          animation-timing-function: linear;
        }
      
        @keyframes keyframes15 {
          from {
            stroke: blue;
            stroke-dashoffset: 806;
            stroke-width: 128;
          }
          72% {
            animation-timing-function: step-end;
            stroke: blue;
            stroke-dashoffset: 0;
            stroke-width: 128;
          }
          to {
            stroke: black;
            stroke-width: 1024;
          }
        }
        #make-me-a-hanzi-animation-15 {
          animation: keyframes15 0.9059244791666666s both;
          animation-delay: 10.526529947916666s;
          animation-timing-function: linear;
        }
      
    </style>
    
      <path d="M 319 604 L 267 596 L 221 588 L 195 586 Q 174 584 171 580 L 171 578 Q 171 574 176 568 Q 183 561 201 559 Q 215 557 221 557 L 225 557 Q 231 557 264 561 L 317 568 L 361 573 L 445 588 Q 473 594 482 600 Q 491 606 491 611 Q 491 616 483 620 Q 475 625 461 629 Q 450 633 443 633 Q 440 633 438 632 Q 435 631 425 627 Q 415 623 403 621 L 367 614 L 319 604 Z" fill="lightgray" />
    
      <path d="M 317 568 L 315 514 C 314 484 355 493 357 523 L 361 573 L 367 614 L 371 654 Q 373 670 377 681 Q 380 690 380 695 L 380 698 Q 379 704 369 710 L 344 720 Q 328 725 323 725 Q 308 724 307 720 Q 306 718 306 715 Q 306 712 308 707 Q 311 700 315 686 Q 319 672 319 662 L 319 604 L 317 568 Z" fill="lightgray" />
    
      <path d="M 315 514 L 233 500 L 221 498 Q 210 497 209 493 L 209 490 Q 209 487 213 482 Q 219 476 230 474 Q 241 472 254 472 Q 267 472 305 478 L 429 497 Q 449 500 456 505 Q 462 509 462 515 L 462 516 Q 461 520 453 524 Q 444 528 429 530 Q 415 534 407 534 Q 399 533 387 530 Q 374 526 357 523 L 315 514 Z" fill="lightgray" />
    
      <path d="M 181 418 L 175 433 Q 173 439 168 444 Q 162 449 157 449 L 156 449 Q 151 448 146 431 Q 141 414 136 401 L 127 380 Q 123 372 113 358 Q 104 343 103 337 Q 102 334 102 331 Q 102 324 105 315 Q 109 303 115 296 Q 121 290 129 290 L 130 290 Q 140 290 150 304 Q 161 320 167 333 Q 173 346 177 357 Q 181 368 185 386 C 188 400 188 400 181 418 Z" fill="lightgray" />
    
      <path d="M 185 386 L 391 429 Q 406 432 419 433 L 424 433 Q 433 433 435 430 Q 437 426 437 420 Q 435 414 431 405 L 419 382 Q 414 373 414 368 Q 414 366 415 365 Q 416 364 417 364 Q 422 364 433 370 L 456 384 Q 467 390 481 396 L 513 408 Q 529 414 530 420 L 530 421 Q 530 427 523 436 Q 515 445 498 455 Q 481 464 465 471 Q 453 476 444 476 L 439 476 Q 437 475 428 472 Q 419 468 407 465 Q 393 462 372 456 L 340 450 L 181 418 C 152 412 156 380 185 386 Z" fill="lightgray" />
    
      <path d="M 285 332 L 363 350 Q 381 353 387 356 Q 395 360 395 366 Q 395 371 386 376 Q 377 381 360 384 Q 343 386 337 386 L 317 379 Q 302 373 285 369 L 232 356 L 213 354 Q 205 352 203 350 Q 202 348 202 346 Q 202 342 207 338 Q 213 332 224 330 Q 234 329 246 327 L 285 332 Z" fill="lightgray" />
    
      <path d="M 264 218 L 220 235 Q 209 238 208 242 Q 208 247 228 260 L 261 282 Q 273 290 284 294 Q 295 299 299 302 Q 302 304 303 306 Q 304 308 304 309 Q 304 314 299 319 Q 293 326 285 332 C 262 351 261 352 246 327 L 236 310 Q 228 296 215 286 Q 203 276 189 266 Q 175 256 163 252 Q 150 248 148 244 Q 145 240 145 232 Q 146 225 149 217 Q 152 208 156 206 Q 160 203 176 203 L 184 203 Q 207 204 214 204 Q 221 204 243 202 C 273 199 292 207 264 218 Z" fill="lightgray" />
    
      <path d="M 243 202 L 205 174 Q 185 160 167 154 Q 148 148 146 144 Q 145 141 145 138 Q 145 132 150 123 Q 157 111 167 100 Q 177 88 182 88 L 183 88 Q 188 88 198 94 Q 210 102 230 109 Q 251 116 261 120 Q 273 123 287 126 L 324 139 L 403 162 C 432 170 424 186 395 180 L 246 149 Q 238 147 231 147 Q 224 148 223 150 Q 223 153 231 159 L 244 166 L 367 246 Q 381 256 393 260 Q 404 264 406 267 Q 407 269 407 271 Q 407 277 403 284 Q 397 295 388 304 Q 379 314 371 318 Q 363 323 359 323 Q 357 323 356 322 Q 352 320 348 308 Q 345 298 337 288 Q 331 279 315 264 Q 299 248 291 241 L 264 218 L 243 202 Z" fill="lightgray" />
    
      <path d="M 403 162 L 419 135 Q 426 120 438 118 Q 448 118 457 128 Q 465 138 465 151 Q 464 164 461 174 Q 458 182 448 191 Q 437 200 423 208 L 398 220 Q 385 226 380 226 Q 378 226 377 225 Q 374 223 374 220 L 374 219 Q 374 216 381 204 L 395 180 L 403 162 Z" fill="lightgray" />
    
      <path d="M 287 126 L 293 113 Q 297 104 297 73 L 296 -26 Q 295 -42 291 -55 Q 287 -68 279 -72 Q 276 -73 273 -73 Q 266 -73 255 -68 L 223 -56 Q 220 -55 218 -55 Q 214 -55 212 -58 Q 211 -59 211 -60 Q 211 -64 218 -70 L 251 -104 Q 263 -115 272 -127 Q 281 -140 287 -143 Q 291 -146 296 -146 L 297 -146 Q 304 -146 315 -132 Q 326 -116 331 -104 Q 336 -93 337 -81 Q 339 -68 339 -52 L 342 50 Q 342 64 345 78 Q 348 91 351 100 Q 354 108 354 113 L 354 116 Q 353 122 344 128 Q 335 134 324 139 C 297 152 274 153 287 126 Z" fill="lightgray" />
    
      <path d="M 89 -90 Q 82 -99 82 -104 Q 82 -106 83 -107 Q 85 -109 87 -109 Q 90 -109 95 -105 L 118 -90 Q 143 -72 163 -54 Q 183 -35 197 -18 Q 211 0 221 6 Q 230 12 231 16 L 231 17 Q 231 21 226 28 Q 219 38 211 45 L 196 57 Q 185 66 180 66 Q 172 66 169 62 Q 165 58 165 44 Q 165 29 155 9 Q 146 -10 135 -28 Q 124 -46 108 -66 L 89 -90 Z" fill="lightgray" />
    
      <path d="M 483 -34 L 485 -14 L 485 -11 Q 485 -3 479 6 Q 471 17 453 30 Q 434 44 425 50 Q 415 56 407 58 Q 401 60 397 60 Q 393 60 391 58 L 391 56 Q 391 51 395 43 L 429 -20 Q 441 -42 448 -50 Q 455 -58 462 -59 L 465 -59 Q 468 -59 472 -57 Q 477 -54 483 -46 C 484 -44 482 -48 483 -34 Z" fill="lightgray" />
    
      <path d="M 609 611 L 587 621 Q 569 629 559 629 Q 553 629 549 626 Q 543 622 543 618 Q 543 614 551 606 Q 559 598 561 580 Q 564 562 565 538 Q 565 500 559 466 Q 553 434 540 403 Q 527 373 509 356 L 485 334 Q 477 326 477 320 L 477 318 Q 478 316 481 316 Q 486 316 497 322 L 529 340 Q 547 350 563 369 Q 580 388 590 412 Q 600 435 604 458 Q 608 480 610 507 Q 612 534 615 580 C 617 607 617 607 609 611 Z" fill="lightgray" />
    
      <path d="M 615 580 L 658 595 Q 686 603 689 603 Q 693 602 697 600 Q 702 598 705 593 Q 707 588 708 584 L 708 580 L 701 478 Q 701 470 700 434 Q 700 396 707 381 Q 714 366 729 357 Q 743 348 772 344 Q 794 342 809 342 L 819 342 Q 828 342 860 348 Q 891 353 901 359 Q 911 365 913 372 Q 913 379 903 386 Q 892 394 872 400 Q 855 406 847 406 L 844 406 Q 841 406 828 400 Q 814 394 799 391 Q 791 389 784 389 Q 779 389 775 390 Q 765 390 758 394 Q 751 398 747 410 Q 743 419 743 436 Q 743 445 744 455 Q 747 486 750 506 Q 753 527 757 544 Q 761 561 765 572 Q 769 582 777 592 Q 784 603 785 607 Q 785 614 775 623 Q 765 631 756 636 Q 747 640 732 646 Q 719 652 711 652 L 709 652 Q 703 652 690 644 Q 677 636 665 632 L 609 611 C 581 600 587 570 615 580 Z" fill="lightgray" />
    
      <path d="M 483 -46 L 506 -45 Q 527 -44 553 -36 Q 578 -29 600 -18 Q 622 -7 637 3 L 670 28 L 704 68 L 723 100 Q 735 120 751 155 L 777 215 Q 787 240 798 249 Q 809 258 809 262 L 809 263 Q 809 267 804 274 Q 798 282 789 288 Q 781 294 764 300 Q 747 306 739 306 Q 735 306 722 302 Q 709 298 678 291 Q 647 284 634 282 L 547 272 L 516 268 Q 502 266 501 260 Q 500 259 500 257 Q 500 253 504 248 Q 509 240 516 234 C 519 230 532 232 562 237 L 658 252 Q 692 257 702 257 L 706 257 Q 713 257 715 254 Q 717 252 717 247 Q 717 240 714 227 Q 709 205 703 184 Q 696 163 687 145 Q 679 127 667 106 L 641 68 L 617 45 Q 603 31 575 12 Q 547 -6 528 -15 Q 508 -24 483 -34 C 455 -45 453 -47 483 -46 Z" fill="lightgray" />
    
      <path d="M 670 28 L 699 -8 L 741 -56 Q 761 -80 770 -90 Q 779 -100 789 -104 Q 795 -107 818 -107 L 831 -107 Q 865 -106 887 -102 L 937 -95 Q 951 -94 951 -86 L 951 -85 Q 951 -80 936 -73 L 910 -63 Q 876 -50 865 -45 Q 853 -40 830 -27 Q 807 -14 784 2 Q 761 18 744 33 L 704 68 L 667 106 L 648 130 L 609 176 Q 598 188 586 204 Q 573 220 562 237 C 545 262 499 259 516 234 L 540 200 Q 565 164 585 139 L 621 94 L 641 68 L 670 28 Z" fill="lightgray" />
    
    
      <clipPath id="make-me-a-hanzi-clip-0">
        <path d="M 319 604 L 267 596 L 221 588 L 195 586 Q 174 584 171 580 L 171 578 Q 171 574 176 568 Q 183 561 201 559 Q 215 557 221 557 L 225 557 Q 231 557 264 561 L 317 568 L 361 573 L 445 588 Q 473 594 482 600 Q 491 606 491 611 Q 491 616 483 620 Q 475 625 461 629 Q 450 633 443 633 Q 440 633 438 632 Q 435 631 425 627 Q 415 623 403 621 L 367 614 L 319 604 Z" />
      </clipPath>
      <path clip-path="url(#make-me-a-hanzi-clip-0)" d="M 176 579 L 196 572 L 253 575 L 439 610 L 481 610" fill="none" id="make-me-a-hanzi-animation-0" stroke-dasharray="438 876" stroke-linecap="round" />
    
      <clipPath id="make-me-a-hanzi-clip-1">
        <path d="M 317 568 L 315 514 C 314 484 355 493 357 523 L 361 573 L 367 614 L 371 654 Q 373 670 377 681 Q 380 690 380 695 L 380 698 Q 379 704 369 710 L 344 720 Q 328 725 323 725 Q 308 724 307 720 Q 306 718 306 715 Q 306 712 308 707 Q 311 700 315 686 Q 319 672 319 662 L 319 604 L 317 568 Z" />
      </clipPath>
      <path clip-path="url(#make-me-a-hanzi-clip-1)" d="M 313 716 L 347 683 L 337 541 L 321 521" fill="none" id="make-me-a-hanzi-animation-1" stroke-dasharray="343 686" stroke-linecap="round" />
    
      <clipPath id="make-me-a-hanzi-clip-2">
        <path d="M 315 514 L 233 500 L 221 498 Q 210 497 209 493 L 209 490 Q 209 487 213 482 Q 219 476 230 474 Q 241 472 254 472 Q 267 472 305 478 L 429 497 Q 449 500 456 505 Q 462 509 462 515 L 462 516 Q 461 520 453 524 Q 444 528 429 530 Q 415 534 407 534 Q 399 533 387 530 Q 374 526 357 523 L 315 514 Z" />
      </clipPath>
      <path clip-path="url(#make-me-a-hanzi-clip-2)" d="M 217 492 L 237 486 L 278 490 L 410 514 L 454 516" fill="none" id="make-me-a-hanzi-animation-2" stroke-dasharray="368 736" stroke-linecap="round" />
    
      <clipPath id="make-me-a-hanzi-clip-3">
        <path d="M 181 418 L 175 433 Q 173 439 168 444 Q 162 449 157 449 L 156 449 Q 151 448 146 431 Q 141 414 136 401 L 127 380 Q 123 372 113 358 Q 104 343 103 337 Q 102 334 102 331 Q 102 324 105 315 Q 109 303 115 296 Q 121 290 129 290 L 130 290 Q 140 290 150 304 Q 161 320 167 333 Q 173 346 177 357 Q 181 368 185 386 C 188 400 188 400 181 418 Z" />
      </clipPath>
      <path clip-path="url(#make-me-a-hanzi-clip-3)" d="M 157 444 L 159 388 L 132 330 L 130 307" fill="none" id="make-me-a-hanzi-animation-3" stroke-dasharray="271 542" stroke-linecap="round" />
    
      <clipPath id="make-me-a-hanzi-clip-4">
        <path d="M 185 386 L 391 429 Q 406 432 419 433 L 424 433 Q 433 433 435 430 Q 437 426 437 420 Q 435 414 431 405 L 419 382 Q 414 373 414 368 Q 414 366 415 365 Q 416 364 417 364 Q 422 364 433 370 L 456 384 Q 467 390 481 396 L 513 408 Q 529 414 530 420 L 530 421 Q 530 427 523 436 Q 515 445 498 455 Q 481 464 465 471 Q 453 476 444 476 L 439 476 Q 437 475 428 472 Q 419 468 407 465 Q 393 462 372 456 L 340 450 L 181 418 C 152 412 156 380 185 386 Z" />
      </clipPath>
      <path clip-path="url(#make-me-a-hanzi-clip-4)" d="M 191 392 L 198 405 L 206 407 L 417 451 L 446 452 L 471 430 L 418 368" fill="none" id="make-me-a-hanzi-animation-4" stroke-dasharray="510 1020" stroke-linecap="round" />
    
      <clipPath id="make-me-a-hanzi-clip-5">
        <path d="M 285 332 L 363 350 Q 381 353 387 356 Q 395 360 395 366 Q 395 371 386 376 Q 377 381 360 384 Q 343 386 337 386 L 317 379 Q 302 373 285 369 L 232 356 L 213 354 Q 205 352 203 350 Q 202 348 202 346 Q 202 342 207 338 Q 213 332 224 330 Q 234 329 246 327 L 285 332 Z" />
      </clipPath>
      <path clip-path="url(#make-me-a-hanzi-clip-5)" d="M 210 346 L 251 343 L 339 365 L 385 366" fill="none" id="make-me-a-hanzi-animation-5" stroke-dasharray="306 612" stroke-linecap="round" />
    
      <clipPath id="make-me-a-hanzi-clip-6">
        <path d="M 264 218 L 220 235 Q 209 238 208 242 Q 208 247 228 260 L 261 282 Q 273 290 284 294 Q 295 299 299 302 Q 302 304 303 306 Q 304 308 304 309 Q 304 314 299 319 Q 293 326 285 332 C 262 351 261 352 246 327 L 236 310 Q 228 296 215 286 Q 203 276 189 266 Q 175 256 163 252 Q 150 248 148 244 Q 145 240 145 232 Q 146 225 149 217 Q 152 208 156 206 Q 160 203 176 203 L 184 203 Q 207 204 214 204 Q 221 204 243 202 C 273 199 292 207 264 218 Z" />
      </clipPath>
      <path clip-path="url(#make-me-a-hanzi-clip-6)" d="M 295 311 L 260 307 L 191 248 L 183 231 L 242 214 L 256 218" fill="none" id="make-me-a-hanzi-animation-6" stroke-dasharray="349 698" stroke-linecap="round" />
    
      <clipPath id="make-me-a-hanzi-clip-7">
        <path d="M 243 202 L 205 174 Q 185 160 167 154 Q 148 148 146 144 Q 145 141 145 138 Q 145 132 150 123 Q 157 111 167 100 Q 177 88 182 88 L 183 88 Q 188 88 198 94 Q 210 102 230 109 Q 251 116 261 120 Q 273 123 287 126 L 324 139 L 403 162 C 432 170 424 186 395 180 L 246 149 Q 238 147 231 147 Q 224 148 223 150 Q 223 153 231 159 L 244 166 L 367 246 Q 381 256 393 260 Q 404 264 406 267 Q 407 269 407 271 Q 407 277 403 284 Q 397 295 388 304 Q 379 314 371 318 Q 363 323 359 323 Q 357 323 356 322 Q 352 320 348 308 Q 345 298 337 288 Q 331 279 315 264 Q 299 248 291 241 L 264 218 L 243 202 Z" />
      </clipPath>
      <path clip-path="url(#make-me-a-hanzi-clip-7)" d="M 360 314 L 369 282 L 302 225 L 219 168 L 207 157 L 199 130 L 231 128 L 388 169 L 395 164" fill="none" id="make-me-a-hanzi-animation-7" stroke-dasharray="597 1194" stroke-linecap="round" />
    
      <clipPath id="make-me-a-hanzi-clip-8">
        <path d="M 403 162 L 419 135 Q 426 120 438 118 Q 448 118 457 128 Q 465 138 465 151 Q 464 164 461 174 Q 458 182 448 191 Q 437 200 423 208 L 398 220 Q 385 226 380 226 Q 378 226 377 225 Q 374 223 374 220 L 374 219 Q 374 216 381 204 L 395 180 L 403 162 Z" />
      </clipPath>
      <path clip-path="url(#make-me-a-hanzi-clip-8)" d="M 381 220 L 432 168 L 440 149 L 439 134" fill="none" id="make-me-a-hanzi-animation-8" stroke-dasharray="236 472" stroke-linecap="round" />
    
      <clipPath id="make-me-a-hanzi-clip-9">
        <path d="M 287 126 L 293 113 Q 297 104 297 73 L 296 -26 Q 295 -42 291 -55 Q 287 -68 279 -72 Q 276 -73 273 -73 Q 266 -73 255 -68 L 223 -56 Q 220 -55 218 -55 Q 214 -55 212 -58 Q 211 -59 211 -60 Q 211 -64 218 -70 L 251 -104 Q 263 -115 272 -127 Q 281 -140 287 -143 Q 291 -146 296 -146 L 297 -146 Q 304 -146 315 -132 Q 326 -116 331 -104 Q 336 -93 337 -81 Q 339 -68 339 -52 L 342 50 Q 342 64 345 78 Q 348 91 351 100 Q 354 108 354 113 L 354 116 Q 353 122 344 128 Q 335 134 324 139 C 297 152 274 153 287 126 Z" />
      </clipPath>
      <path clip-path="url(#make-me-a-hanzi-clip-9)" d="M 295 122 L 324 107 L 317 -44 L 309 -82 L 291 -101 L 271 -95 L 218 -62" fill="none" id="make-me-a-hanzi-animation-9" stroke-dasharray="460 920" stroke-linecap="round" />
    
      <clipPath id="make-me-a-hanzi-clip-10">
        <path d="M 89 -90 Q 82 -99 82 -104 Q 82 -106 83 -107 Q 85 -109 87 -109 Q 90 -109 95 -105 L 118 -90 Q 143 -72 163 -54 Q 183 -35 197 -18 Q 211 0 221 6 Q 230 12 231 16 L 231 17 Q 231 21 226 28 Q 219 38 211 45 L 196 57 Q 185 66 180 66 Q 172 66 169 62 Q 165 58 165 44 Q 165 29 155 9 Q 146 -10 135 -28 Q 124 -46 108 -66 L 89 -90 Z" />
      </clipPath>
      <path clip-path="url(#make-me-a-hanzi-clip-10)" d="M 178 54 L 190 17 L 146 -45 L 87 -104" fill="none" id="make-me-a-hanzi-animation-10" stroke-dasharray="326 652" stroke-linecap="round" />
    
      <clipPath id="make-me-a-hanzi-clip-11">
        <path d="M 483 -34 L 485 -14 L 485 -11 Q 485 -3 479 6 Q 471 17 453 30 Q 434 44 425 50 Q 415 56 407 58 Q 401 60 397 60 Q 393 60 391 58 L 391 56 Q 391 51 395 43 L 429 -20 Q 441 -42 448 -50 Q 455 -58 462 -59 L 465 -59 Q 468 -59 472 -57 Q 477 -54 483 -46 C 484 -44 482 -48 483 -34 Z" />
      </clipPath>
      <path clip-path="url(#make-me-a-hanzi-clip-11)" d="M 395 57 L 455 -8 L 464 -45" fill="none" id="make-me-a-hanzi-animation-11" stroke-dasharray="255 510" stroke-linecap="round" />
    
      <clipPath id="make-me-a-hanzi-clip-12">
        <path d="M 609 611 L 587 621 Q 569 629 559 629 Q 553 629 549 626 Q 543 622 543 618 Q 543 614 551 606 Q 559 598 561 580 Q 564 562 565 538 Q 565 500 559 466 Q 553 434 540 403 Q 527 373 509 356 L 485 334 Q 477 326 477 320 L 477 318 Q 478 316 481 316 Q 486 316 497 322 L 529 340 Q 547 350 563 369 Q 580 388 590 412 Q 600 435 604 458 Q 608 480 610 507 Q 612 534 615 580 C 617 607 617 607 609 611 Z" />
      </clipPath>
      <path clip-path="url(#make-me-a-hanzi-clip-12)" d="M 554 616 L 573 608 L 588 583 L 586 490 L 576 436 L 544 374 L 480 319" fill="none" id="make-me-a-hanzi-animation-12" stroke-dasharray="480 960" stroke-linecap="round" />
    
      <clipPath id="make-me-a-hanzi-clip-13">
        <path d="M 615 580 L 658 595 Q 686 603 689 603 Q 693 602 697 600 Q 702 598 705 593 Q 707 588 708 584 L 708 580 L 701 478 Q 701 470 700 434 Q 700 396 707 381 Q 714 366 729 357 Q 743 348 772 344 Q 794 342 809 342 L 819 342 Q 828 342 860 348 Q 891 353 901 359 Q 911 365 913 372 Q 913 379 903 386 Q 892 394 872 400 Q 855 406 847 406 L 844 406 Q 841 406 828 400 Q 814 394 799 391 Q 791 389 784 389 Q 779 389 775 390 Q 765 390 758 394 Q 751 398 747 410 Q 743 419 743 436 Q 743 445 744 455 Q 747 486 750 506 Q 753 527 757 544 Q 761 561 765 572 Q 769 582 777 592 Q 784 603 785 607 Q 785 614 775 623 Q 765 631 756 636 Q 747 640 732 646 Q 719 652 711 652 L 709 652 Q 703 652 690 644 Q 677 636 665 632 L 609 611 C 581 600 587 570 615 580 Z" />
      </clipPath>
      <path clip-path="url(#make-me-a-hanzi-clip-13)" d="M 620 589 L 635 605 L 693 623 L 711 624 L 737 607 L 721 426 L 725 400 L 738 379 L 781 366 L 848 376 L 904 373" fill="none" id="make-me-a-hanzi-animation-13" stroke-dasharray="661 1322" stroke-linecap="round" />
    
      <clipPath id="make-me-a-hanzi-clip-14">
        <path d="M 483 -46 L 506 -45 Q 527 -44 553 -36 Q 578 -29 600 -18 Q 622 -7 637 3 L 670 28 L 704 68 L 723 100 Q 735 120 751 155 L 777 215 Q 787 240 798 249 Q 809 258 809 262 L 809 263 Q 809 267 804 274 Q 798 282 789 288 Q 781 294 764 300 Q 747 306 739 306 Q 735 306 722 302 Q 709 298 678 291 Q 647 284 634 282 L 547 272 L 516 268 Q 502 266 501 260 Q 500 259 500 257 Q 500 253 504 248 Q 509 240 516 234 C 519 230 532 232 562 237 L 658 252 Q 692 257 702 257 L 706 257 Q 713 257 715 254 Q 717 252 717 247 Q 717 240 714 227 Q 709 205 703 184 Q 696 163 687 145 Q 679 127 667 106 L 641 68 L 617 45 Q 603 31 575 12 Q 547 -6 528 -15 Q 508 -24 483 -34 C 455 -45 453 -47 483 -46 Z" />
      </clipPath>
      <path clip-path="url(#make-me-a-hanzi-clip-14)" d="M 509 256 L 566 255 L 709 278 L 740 274 L 755 256 L 704 118 L 654 47 L 587 -4 L 526 -31 L 489 -40" fill="none" id="make-me-a-hanzi-animation-14" stroke-dasharray="807 1614" stroke-linecap="round" />
    
      <clipPath id="make-me-a-hanzi-clip-15">
        <path d="M 670 28 L 699 -8 L 741 -56 Q 761 -80 770 -90 Q 779 -100 789 -104 Q 795 -107 818 -107 L 831 -107 Q 865 -106 887 -102 L 937 -95 Q 951 -94 951 -86 L 951 -85 Q 951 -80 936 -73 L 910 -63 Q 876 -50 865 -45 Q 853 -40 830 -27 Q 807 -14 784 2 Q 761 18 744 33 L 704 68 L 667 106 L 648 130 L 609 176 Q 598 188 586 204 Q 573 220 562 237 C 545 262 499 259 516 234 L 540 200 Q 565 164 585 139 L 621 94 L 641 68 L 670 28 Z" />
      </clipPath>
      <path clip-path="url(#make-me-a-hanzi-clip-15)" d="M 524 231 L 552 216 L 687 48 L 798 -58 L 838 -72 L 944 -85" fill="none" id="make-me-a-hanzi-animation-15" stroke-dasharray="678 1356" stroke-linecap="round" />
    
  </g>
</svg>