<svg xmlns="http://www.w3.org/2000/svg" version="1.1" viewBox="0 0 1024 1024">
  <g stroke="lightgray" stroke-dasharray="1,1" stroke-width="1" transform="scale(4, 4)">
    <line x1="0" y1="0" x2="256" y2="256" />
    <line x1="256" y1="0" x2="0" y2="256" />
    <line x1="128" y1="0" x2="128" y2="256" />
    <line x1="0" y1="128" x2="256" y2="128" />
  </g>
  <g transform="scale(1.0, -1.0) translate(0.0, -781.00)">
    <style type="text/css">
      
        @keyframes keyframes0 {
          from {
            stroke: blue;
            stroke-dashoffset: 680;
            stroke-width: 128;
          }
          69% {
            animation-timing-function: step-end;
            stroke: blue;
            stroke-dashoffset: 0;
            stroke-width: 128;
          }
          to {
            stroke: black;
            stroke-width: 1024;
          }
        }
        #make-me-a-hanzi-animation-0 {
          animation: keyframes0 0.8033854166666666s both;
          animation-delay: 0s;
          animation-timing-function: linear;
        }
      
        @keyframes keyframes1 {
          from {
            stroke: blue;
            stroke-dashoffset: 787;
            stroke-width: 128;
          }
          72% {
            animation-timing-function: step-end;
            stroke: blue;
            stroke-dashoffset: 0;
            stroke-width: 128;
          }
          to {
            stroke: black;
            stroke-width: 1024;
          }
        }
        #make-me-a-hanzi-animation-1 {
          animation: keyframes1 0.8904622395833334s both;
          animation-delay: 0.8033854166666666s;
          animation-timing-function: linear;
        }
      
        @keyframes keyframes2 {
          from {
            stroke: blue;
            stroke-dashoffset: 363;
            stroke-width: 128;
          }
          54% {
            animation-timing-function: step-end;
            stroke: blue;
            stroke-dashoffset: 0;
            stroke-width: 128;
          }
          to {
            stroke: black;
            stroke-width: 1024;
          }
        }
        #make-me-a-hanzi-animation-2 {
          animation: keyframes2 0.54541015625s both;
          animation-delay: 1.69384765625s;
          animation-timing-function: linear;
        }
      
        @keyframes keyframes3 {
          from {
            stroke: blue;
            stroke-dashoffset: 391;
            stroke-width: 128;
          }
          56% {
            animation-timing-function: step-end;
            stroke: blue;
            stroke-dashoffset: 0;
            stroke-width: 128;
          }
          to {
            stroke: black;
            stroke-width: 1024;
          }
        }
        #make-me-a-hanzi-animation-3 {
          animation: keyframes3 0.5681966145833334s both;
          animation-delay: 2.2392578125s;
          animation-timing-function: linear;
        }
      
        @keyframes keyframes4 {
          from {
            stroke: blue;
            stroke-dashoffset: 356;
            stroke-width: 128;
          }
          54% {
            animation-timing-function: step-end;
            stroke: blue;
            stroke-dashoffset: 0;
            stroke-width: 128;
          }
          to {
            stroke: black;
            stroke-width: 1024;
          }
        }
        #make-me-a-hanzi-animation-4 {
          animation: keyframes4 0.5397135416666666s both;
          animation-delay: 2.8074544270833335s;
          animation-timing-function: linear;
        }
      
        @keyframes keyframes5 {
          from {
            stroke: blue;
            stroke-dashoffset: 360;
            stroke-width: 128;
          }
          54% {
            animation-timing-function: step-end;
            stroke: blue;
            stroke-dashoffset: 0;
            stroke-width: 128;
          }
          to {
            stroke: black;
            stroke-width: 1024;
          }
        }
        #make-me-a-hanzi-animation-5 {
          animation: keyframes5 0.54296875s both;
          animation-delay: 3.34716796875s;
          animation-timing-function: linear;
        }
      
        @keyframes keyframes6 {
          from {
            stroke: blue;
            stroke-dashoffset: 374;
            stroke-width: 128;
          }
          55% {
            animation-timing-function: step-end;
            stroke: blue;
            stroke-dashoffset: 0;
            stroke-width: 128;
          }
          to {
            stroke: black;
            stroke-width: 1024;
          }
        }
        #make-me-a-hanzi-animation-6 {
          animation: keyframes6 0.5543619791666666s both;
          animation-delay: 3.89013671875s;
          animation-timing-function: linear;
        }
      
        @keyframes keyframes7 {
          from {
            stroke: blue;
            stroke-dashoffset: 612;
            stroke-width: 128;
          }
          67% {
            animation-timing-function: step-end;
            stroke: blue;
            stroke-dashoffset: 0;
            stroke-width: 128;
          }
          to {
            stroke: black;
            stroke-width: 1024;
          }
        }
        #make-me-a-hanzi-animation-7 {
          animation: keyframes7 0.748046875s both;
          animation-delay: 4.444498697916667s;
          animation-timing-function: linear;
        }
      
        @keyframes keyframes8 {
          from {
            stroke: blue;
            stroke-dashoffset: 497;
            stroke-width: 128;
          }
          62% {
            animation-timing-function: step-end;
            stroke: blue;
            stroke-dashoffset: 0;
            stroke-width: 128;
          }
          to {
            stroke: black;
            stroke-width: 1024;
          }
        }
        #make-me-a-hanzi-animation-8 {
          animation: keyframes8 0.6544596354166666s both;
          animation-delay: 5.192545572916667s;
          animation-timing-function: linear;
        }
      
        @keyframes keyframes9 {
          from {
            stroke: blue;
            stroke-dashoffset: 721;
            stroke-width: 128;
          }
          70% {
            animation-timing-function: step-end;
            stroke: blue;
            stroke-dashoffset: 0;
            stroke-width: 128;
          }
          to {
            stroke: black;
            stroke-width: 1024;
          }
        }
        #make-me-a-hanzi-animation-9 {
          animation: keyframes9 0.8367513020833334s both;
          animation-delay: 5.847005208333334s;
          animation-timing-function: linear;
        }
      
        @keyframes keyframes10 {
          from {
            stroke: blue;
            stroke-dashoffset: 350;
            stroke-width: 128;
          }
          53% {
            animation-timing-function: step-end;
            stroke: blue;
            stroke-dashoffset: 0;
            stroke-width: 128;
          }
          to {
            stroke: black;
            stroke-width: 1024;
          }
        }
        #make-me-a-hanzi-animation-10 {
          animation: keyframes10 0.5348307291666666s both;
          animation-delay: 6.683756510416667s;
          animation-timing-function: linear;
        }
      
        @keyframes keyframes11 {
          from {
            stroke: blue;
            stroke-dashoffset: 389;
            stroke-width: 128;
          }
          56% {
            animation-timing-function: step-end;
            stroke: blue;
            stroke-dashoffset: 0;
            stroke-width: 128;
          }
          to {
            stroke: black;
            stroke-width: 1024;
          }
        }
        #make-me-a-hanzi-animation-11 {
          animation: keyframes11 0.5665690104166666s both;
          animation-delay: 7.218587239583334s;
          animation-timing-function: linear;
        }
      
        @keyframes keyframes12 {
          from {
            stroke: blue;
            stroke-dashoffset: 739;
            stroke-width: 128;
          }
          71% {
            animation-timing-function: step-end;
            stroke: blue;
            stroke-dashoffset: 0;
            stroke-width: 128;
          }
          to {
            stroke: black;
            stroke-width: 1024;
          }
        }
        #make-me-a-hanzi-animation-12 {
          animation: keyframes12 0.8513997395833334s both;
          animation-delay: 7.785156250000001s;
          animation-timing-function: linear;
        }
      
        @keyframes keyframes13 {
          from {
            stroke: blue;
            stroke-dashoffset: 443;
            stroke-width: 128;
          }
          59% {
            animation-timing-function: step-end;
            stroke: blue;
            stroke-dashoffset: 0;
            stroke-width: 128;
          }
          to {
            stroke: black;
            stroke-width: 1024;
          }
        }
        #make-me-a-hanzi-animation-13 {
          animation: keyframes13 0.6105143229166666s both;
          animation-delay: 8.636555989583334s;
          animation-timing-function: linear;
        }
      
        @keyframes keyframes14 {
          from {
            stroke: blue;
            stroke-dashoffset: 527;
            stroke-width: 128;
          }
          63% {
            animation-timing-function: step-end;
            stroke: blue;
            stroke-dashoffset: 0;
            stroke-width: 128;
          }
          to {
            stroke: black;
            stroke-width: 1024;
          }
        }
        #make-me-a-hanzi-animation-14 {
          animation: keyframes14 0.6788736979166666s both;
          animation-delay: 9.2470703125s;
          animation-timing-function: linear;
        }
      
        @keyframes keyframes15 {
          from {
            stroke: blue;
            stroke-dashoffset: 735;
            stroke-width: 128;
          }
          71% {
            animation-timing-function: step-end;
            stroke: blue;
            stroke-dashoffset: 0;
            stroke-width: 128;
          }
          to {
            stroke: black;
            stroke-width: 1024;
          }
        }
        #make-me-a-hanzi-animation-15 {
          animation: keyframes15 0.84814453125s both;
          animation-delay: 9.925944010416666s;
          animation-timing-function: linear;
        }
      
        @keyframes keyframes16 {
          from {
            stroke: blue;
            stroke-dashoffset: 733;
            stroke-width: 128;
          }
          70% {
            animation-timing-function: step-end;
            stroke: blue;
            stroke-dashoffset: 0;
            stroke-width: 128;
          }
          to {
            stroke: black;
            stroke-width: 1024;
          }
        }
        #make-me-a-hanzi-animation-16 {
          animation: keyframes16 0.8465169270833334s both;
          animation-delay: 10.774088541666666s;
          animation-timing-function: linear;
        }
      
    </style>
    
      <path d="M 285 398 L 233 392 L 213 390 Q 199 390 199 393 L 199 395 Q 199 398 205 407 L 217 426 L 291 528 L 315 562 Q 325 573 331 580 Q 339 588 341 591 L 341 594 Q 341 600 335 610 Q 329 620 317 630 Q 305 640 295 645 Q 286 649 281 649 L 279 649 Q 273 648 271 646 Q 267 642 267 626 Q 267 610 263 596 Q 259 580 251 562 Q 243 542 229 515 Q 215 488 199 464 Q 182 442 169 426 Q 156 410 149 404 Q 143 398 135 393 Q 127 388 127 384 Q 125 381 125 376 L 125 372 L 133 354 Q 139 342 145 336 Q 151 328 159 328 Q 161 328 167 332 Q 173 335 191 343 Q 211 352 213 352 L 265 368 C 294 377 315 401 285 398 Z" fill="lightgray" />
    
      <path d="M 265 368 L 255 352 Q 241 332 233 320 L 203 282 Q 183 256 173 246 Q 163 236 153 229 L 139 219 Q 131 213 131 208 L 131 205 Q 131 200 135 192 Q 139 182 153 169 Q 162 158 168 158 L 169 158 Q 175 158 181 164 Q 189 170 193 173 L 207 183 Q 217 190 227 194 L 341 250 C 368 263 356 282 329 270 L 233 228 Q 222 223 219 222 Q 213 222 211 224 Q 211 227 215 233 Q 220 240 233 255 L 351 406 L 369 428 Q 382 444 391 450 L 399 458 Q 401 461 401 465 Q 401 471 397 478 Q 391 490 382 501 Q 373 512 363 518 Q 354 524 350 524 L 349 524 Q 343 522 341 518 Q 339 514 337 502 Q 336 490 333 480 Q 329 469 321 454 Q 313 439 305 428 L 297 414 Q 293 409 285 398 L 265 368 Z" fill="lightgray" />
    
      <path d="M 341 250 L 357 223 Q 363 207 375 207 L 379 207 Q 390 208 395 222 Q 400 231 400 243 Q 400 247 399 251 Q 397 268 387 280 Q 379 292 365 300 Q 353 308 337 314 Q 329 316 323 316 Q 318 316 315 314 Q 314 313 314 310 Q 314 304 319 292 L 329 270 L 341 250 Z" fill="lightgray" />
    
      <path d="M 113 85 Q 117 74 123 60 Q 130 47 141 25 Q 153 3 161 -4 Q 172 -15 181 -15 L 183 -15 Q 193 -14 199 0 Q 204 11 204 22 Q 204 26 203 30 Q 203 46 195 61 Q 187 76 177 83 Q 168 90 153 100 Q 137 108 133 110 L 121 114 Q 115 116 111 116 Q 108 116 106 114 Q 105 112 105 110 Q 105 107 107 102 L 113 85 Z" fill="lightgray" />
    
      <path d="M 239 146 Q 236 147 233 147 Q 228 147 227 144 Q 226 143 226 141 Q 226 138 229 133 L 233 121 Q 235 118 241 107 Q 247 96 257 79 Q 267 62 275 56 Q 282 49 288 49 L 290 49 Q 297 50 301 60 Q 305 69 305 82 Q 305 94 302 103 Q 299 112 293 118 Q 287 124 273 131 Q 259 138 251 141 L 239 146 Z" fill="lightgray" />
    
      <path d="M 331 191 Q 327 192 324 192 Q 320 192 319 190 Q 318 189 318 186 Q 318 183 321 178 L 331 160 L 339 144 Q 339 143 351 124 Q 365 104 371 100 Q 377 96 383 96 L 385 96 Q 393 98 397 107 Q 403 116 403 129 Q 403 142 397 151 Q 393 160 385 166 Q 377 173 363 179 Q 349 186 343 188 L 331 191 Z" fill="lightgray" />
    
      <path d="M 681 612 L 689 638 Q 691 642 691 647 Q 691 654 687 662 Q 683 676 669 686 Q 657 696 639 703 L 619 710 Q 607 714 601 714 L 598 714 Q 595 714 593 712 Q 592 711 592 710 Q 592 707 595 702 L 603 686 Q 605 684 609 672 Q 615 660 623 646 Q 630 631 635 624 Q 640 617 649 607 C 669 585 672 583 681 612 Z" fill="lightgray" />
    
      <path d="M 661 568 L 693 574 L 753 580 L 807 589 Q 823 590 829 593 Q 835 595 839 599 Q 841 602 841 605 Q 840 608 833 614 Q 826 622 811 627 Q 796 632 789 632 Q 783 632 771 628 Q 758 624 735 621 L 681 612 L 649 607 L 579 599 L 517 592 L 493 589 Q 473 586 473 582 Q 473 578 479 572 Q 485 566 497 562 Q 511 559 531 559 L 539 559 Q 548 559 559 560 Q 577 560 607 562 L 661 568 Z" fill="lightgray" />
    
      <path d="M 667 480 L 613 478 L 597 476 Q 587 477 583 480 L 583 481 Q 583 485 597 496 L 635 528 Q 645 536 653 541 Q 662 546 665 548 Q 669 552 669 556 Q 669 560 661 568 C 641 591 623 587 607 562 L 597 546 Q 593 538 587 530 Q 579 521 567 508 Q 557 494 545 488 Q 533 480 533 478 Q 531 473 531 464 Q 533 456 539 445 Q 547 434 551 433 L 552 433 Q 556 433 565 437 Q 577 442 587 445 L 611 451 Q 623 454 651 460 C 680 466 697 481 667 480 Z" fill="lightgray" />
    
      <path d="M 577 383 L 555 360 Q 551 355 539 346 Q 529 338 521 334 Q 512 330 511 328 Q 509 325 509 322 Q 509 317 515 306 L 525 291 Q 531 286 535 284 L 537 284 Q 542 284 551 288 L 581 300 Q 600 308 613 311 L 715 339 C 744 347 737 358 707 354 L 563 334 L 627 390 L 661 420 L 707 464 Q 717 474 727 479 L 735 483 Q 741 486 743 488 Q 744 490 744 494 Q 744 497 743 502 Q 741 511 737 518 Q 733 525 725 535 Q 717 545 711 547 Q 708 549 706 549 Q 703 549 701 547 Q 697 545 695 536 Q 693 526 689 518 Q 687 509 683 504 L 667 480 L 651 460 L 611 415 L 577 383 Z" fill="lightgray" />
    
      <path d="M 715 339 L 723 319 Q 727 308 730 304 Q 733 300 737 298 Q 741 296 743 296 Q 749 296 755 303 Q 761 310 763 323 Q 764 327 764 330 Q 764 337 761 344 Q 756 354 753 359 Q 748 364 739 369 Q 728 375 719 380 Q 708 385 703 387 Q 699 388 697 388 Q 694 388 693 387 Q 692 386 692 384 Q 692 383 693 380 L 697 368 Q 701 363 707 354 L 715 339 Z" fill="lightgray" />
    
      <path d="M 481 406 L 477 419 Q 475 424 473 428 Q 468 433 464 433 L 461 433 Q 457 432 453 422 Q 451 412 447 401 Q 443 391 433 373 Q 425 354 413 342 Q 403 330 401 326 Q 400 323 400 319 Q 400 312 402 304 Q 405 290 415 284 Q 421 280 429 280 L 435 280 Q 448 283 459 303 Q 471 323 475 339 Q 481 354 485 374 L 481 406 Z" fill="lightgray" />
    
      <path d="M 485 374 L 503 370 Q 506 370 523 372 Q 541 374 577 383 L 627 390 L 771 407 Q 797 410 811 410 Q 825 410 826 407 Q 829 402 829 396 Q 827 390 823 384 Q 817 377 805 360 L 795 346 Q 792 342 792 340 Q 792 339 793 338 Q 794 337 795 337 Q 799 337 807 340 L 829 346 L 849 354 Q 861 358 877 360 L 907 362 Q 923 364 925 370 Q 926 372 926 373 Q 926 379 921 387 Q 915 398 903 410 Q 893 421 883 428 Q 875 434 865 439 Q 857 444 849 444 L 846 444 Q 840 444 829 442 Q 816 438 793 435 Q 770 431 745 429 L 661 420 L 611 415 L 481 406 C 451 404 456 381 485 374 Z" fill="lightgray" />
    
      <path d="M 539 188 L 547 202 Q 552 210 559 215 L 567 220 L 573 226 L 573 228 Q 573 233 567 239 Q 561 246 555 251 Q 549 256 539 260 Q 531 266 525 266 Q 523 267 520 267 Q 517 267 515 265 Q 511 262 511 247 Q 509 232 503 214 Q 497 196 489 180 Q 481 162 469 145 Q 456 128 455 124 L 447 113 Q 444 108 444 105 Q 444 103 445 102 Q 446 101 447 101 Q 451 101 459 106 L 475 118 Q 491 130 499 140 Q 508 149 521 163 L 539 188 Z" fill="lightgray" />
    
      <path d="M 673 170 L 715 174 L 793 188 Q 799 188 803 192 Q 807 194 807 200 Q 807 205 798 211 Q 789 217 775 220 Q 761 224 755 224 Q 746 224 729 220 Q 710 215 701 213 Q 691 211 675 209 L 623 200 L 599 196 L 565 191 L 539 188 C 509 185 491 168 521 163 L 547 159 Q 552 158 569 158 Q 587 160 595 160 L 623 163 L 673 170 Z" fill="lightgray" />
    
      <path d="M 621 90 L 589 87 L 497 76 Q 461 71 437 70 L 417 69 Q 407 68 405 62 L 405 60 Q 405 55 415 48 Q 427 40 447 33 Q 463 27 471 27 L 473 27 Q 479 27 495 32 Q 511 37 543 42 L 607 53 Q 611 54 621 55 L 671 60 L 689 62 Q 721 65 755 65 Q 772 65 789 64 Q 843 62 845 62 L 881 63 Q 897 63 899 71 Q 900 73 900 76 Q 900 81 895 87 Q 887 96 869 104 L 851 113 Q 837 118 831 118 Q 825 118 813 116 Q 799 112 781 110 L 721 102 Q 709 100 697 99 Q 687 98 671 96 L 621 90 Z" fill="lightgray" />
    
      <path d="M 621 55 L 617 -72 Q 617 -98 619 -122 Q 621 -144 623 -154 Q 623 -163 627 -169 Q 631 -175 635 -176 Q 639 -176 643 -165 Q 649 -153 653 -138 Q 659 -123 661 -102 Q 665 -80 667 -53 Q 669 -26 669 -10 L 671 60 L 671 96 L 673 170 L 675 209 L 677 224 Q 677 226 679 238 Q 682 250 685 260 Q 689 268 689 272 L 689 274 Q 689 279 685 282 Q 681 286 671 292 Q 660 296 653 299 Q 645 302 635 304 Q 628 306 623 306 Q 620 306 617 305 Q 611 303 609 299 Q 608 298 608 296 Q 608 293 611 287 L 615 276 Q 619 266 621 248 L 621 222 Q 623 214 623 200 L 623 163 L 621 90 L 621 55 Z" fill="lightgray" />
    
    
      <clipPath id="make-me-a-hanzi-clip-0">
        <path d="M 285 398 L 233 392 L 213 390 Q 199 390 199 393 L 199 395 Q 199 398 205 407 L 217 426 L 291 528 L 315 562 Q 325 573 331 580 Q 339 588 341 591 L 341 594 Q 341 600 335 610 Q 329 620 317 630 Q 305 640 295 645 Q 286 649 281 649 L 279 649 Q 273 648 271 646 Q 267 642 267 626 Q 267 610 263 596 Q 259 580 251 562 Q 243 542 229 515 Q 215 488 199 464 Q 182 442 169 426 Q 156 410 149 404 Q 143 398 135 393 Q 127 388 127 384 Q 125 381 125 376 L 125 372 L 133 354 Q 139 342 145 336 Q 151 328 159 328 Q 161 328 167 332 Q 173 335 191 343 Q 211 352 213 352 L 265 368 C 294 377 315 401 285 398 Z" />
      </clipPath>
      <path clip-path="url(#make-me-a-hanzi-clip-0)" d="M 278 639 L 295 612 L 298 596 L 251 509 L 179 406 L 169 372 L 214 371 L 257 380 L 279 395" fill="none" id="make-me-a-hanzi-animation-0" stroke-dasharray="552 1104" stroke-linecap="round" />
    
      <clipPath id="make-me-a-hanzi-clip-1">
        <path d="M 265 368 L 255 352 Q 241 332 233 320 L 203 282 Q 183 256 173 246 Q 163 236 153 229 L 139 219 Q 131 213 131 208 L 131 205 Q 131 200 135 192 Q 139 182 153 169 Q 162 158 168 158 L 169 158 Q 175 158 181 164 Q 189 170 193 173 L 207 183 Q 217 190 227 194 L 341 250 C 368 263 356 282 329 270 L 233 228 Q 222 223 219 222 Q 213 222 211 224 Q 211 227 215 233 Q 220 240 233 255 L 351 406 L 369 428 Q 382 444 391 450 L 399 458 Q 401 461 401 465 Q 401 471 397 478 Q 391 490 382 501 Q 373 512 363 518 Q 354 524 350 524 L 349 524 Q 343 522 341 518 Q 339 514 337 502 Q 336 490 333 480 Q 329 469 321 454 Q 313 439 305 428 L 297 414 Q 293 409 285 398 L 265 368 Z" />
      </clipPath>
      <path clip-path="url(#make-me-a-hanzi-clip-1)" d="M 350 515 L 364 470 L 192 236 L 181 207 L 228 209 L 324 255 L 332 251" fill="none" id="make-me-a-hanzi-animation-1" stroke-dasharray="659 1318" stroke-linecap="round" />
    
      <clipPath id="make-me-a-hanzi-clip-2">
        <path d="M 341 250 L 357 223 Q 363 207 375 207 L 379 207 Q 390 208 395 222 Q 400 231 400 243 Q 400 247 399 251 Q 397 268 387 280 Q 379 292 365 300 Q 353 308 337 314 Q 329 316 323 316 Q 318 316 315 314 Q 314 313 314 310 Q 314 304 319 292 L 329 270 L 341 250 Z" />
      </clipPath>
      <path clip-path="url(#make-me-a-hanzi-clip-2)" d="M 320 311 L 362 268 L 377 224" fill="none" id="make-me-a-hanzi-animation-2" stroke-dasharray="235 470" stroke-linecap="round" />
    
      <clipPath id="make-me-a-hanzi-clip-3">
        <path d="M 113 85 Q 117 74 123 60 Q 130 47 141 25 Q 153 3 161 -4 Q 172 -15 181 -15 L 183 -15 Q 193 -14 199 0 Q 204 11 204 22 Q 204 26 203 30 Q 203 46 195 61 Q 187 76 177 83 Q 168 90 153 100 Q 137 108 133 110 L 121 114 Q 115 116 111 116 Q 108 116 106 114 Q 105 112 105 110 Q 105 107 107 102 L 113 85 Z" />
      </clipPath>
      <path clip-path="url(#make-me-a-hanzi-clip-3)" d="M 110 111 L 155 64 L 182 -1" fill="none" id="make-me-a-hanzi-animation-3" stroke-dasharray="263 526" stroke-linecap="round" />
    
      <clipPath id="make-me-a-hanzi-clip-4">
        <path d="M 239 146 Q 236 147 233 147 Q 228 147 227 144 Q 226 143 226 141 Q 226 138 229 133 L 233 121 Q 235 118 241 107 Q 247 96 257 79 Q 267 62 275 56 Q 282 49 288 49 L 290 49 Q 297 50 301 60 Q 305 69 305 82 Q 305 94 302 103 Q 299 112 293 118 Q 287 124 273 131 Q 259 138 251 141 L 239 146 Z" />
      </clipPath>
      <path clip-path="url(#make-me-a-hanzi-clip-4)" d="M 233 141 L 274 101 L 289 61" fill="none" id="make-me-a-hanzi-animation-4" stroke-dasharray="228 456" stroke-linecap="round" />
    
      <clipPath id="make-me-a-hanzi-clip-5">
        <path d="M 331 191 Q 327 192 324 192 Q 320 192 319 190 Q 318 189 318 186 Q 318 183 321 178 L 331 160 L 339 144 Q 339 143 351 124 Q 365 104 371 100 Q 377 96 383 96 L 385 96 Q 393 98 397 107 Q 403 116 403 129 Q 403 142 397 151 Q 393 160 385 166 Q 377 173 363 179 Q 349 186 343 188 L 331 191 Z" />
      </clipPath>
      <path clip-path="url(#make-me-a-hanzi-clip-5)" d="M 323 187 L 366 149 L 384 106" fill="none" id="make-me-a-hanzi-animation-5" stroke-dasharray="232 464" stroke-linecap="round" />
    
      <clipPath id="make-me-a-hanzi-clip-6">
        <path d="M 681 612 L 689 638 Q 691 642 691 647 Q 691 654 687 662 Q 683 676 669 686 Q 657 696 639 703 L 619 710 Q 607 714 601 714 L 598 714 Q 595 714 593 712 Q 592 711 592 710 Q 592 707 595 702 L 603 686 Q 605 684 609 672 Q 615 660 623 646 Q 630 631 635 624 Q 640 617 649 607 C 669 585 672 583 681 612 Z" />
      </clipPath>
      <path clip-path="url(#make-me-a-hanzi-clip-6)" d="M 597 709 L 642 671 L 674 621" fill="none" id="make-me-a-hanzi-animation-6" stroke-dasharray="246 492" stroke-linecap="round" />
    
      <clipPath id="make-me-a-hanzi-clip-7">
        <path d="M 661 568 L 693 574 L 753 580 L 807 589 Q 823 590 829 593 Q 835 595 839 599 Q 841 602 841 605 Q 840 608 833 614 Q 826 622 811 627 Q 796 632 789 632 Q 783 632 771 628 Q 758 624 735 621 L 681 612 L 649 607 L 579 599 L 517 592 L 493 589 Q 473 586 473 582 Q 473 578 479 572 Q 485 566 497 562 Q 511 559 531 559 L 539 559 Q 548 559 559 560 Q 577 560 607 562 L 661 568 Z" />
      </clipPath>
      <path clip-path="url(#make-me-a-hanzi-clip-7)" d="M 479 579 L 552 577 L 663 588 L 788 609 L 832 605" fill="none" id="make-me-a-hanzi-animation-7" stroke-dasharray="484 968" stroke-linecap="round" />
    
      <clipPath id="make-me-a-hanzi-clip-8">
        <path d="M 667 480 L 613 478 L 597 476 Q 587 477 583 480 L 583 481 Q 583 485 597 496 L 635 528 Q 645 536 653 541 Q 662 546 665 548 Q 669 552 669 556 Q 669 560 661 568 C 641 591 623 587 607 562 L 597 546 Q 593 538 587 530 Q 579 521 567 508 Q 557 494 545 488 Q 533 480 533 478 Q 531 473 531 464 Q 533 456 539 445 Q 547 434 551 433 L 552 433 Q 556 433 565 437 Q 577 442 587 445 L 611 451 Q 623 454 651 460 C 680 466 697 481 667 480 Z" />
      </clipPath>
      <path clip-path="url(#make-me-a-hanzi-clip-8)" d="M 657 557 L 620 542 L 572 492 L 561 464 L 589 461 L 641 467 L 660 477" fill="none" id="make-me-a-hanzi-animation-8" stroke-dasharray="369 738" stroke-linecap="round" />
    
      <clipPath id="make-me-a-hanzi-clip-9">
        <path d="M 577 383 L 555 360 Q 551 355 539 346 Q 529 338 521 334 Q 512 330 511 328 Q 509 325 509 322 Q 509 317 515 306 L 525 291 Q 531 286 535 284 L 537 284 Q 542 284 551 288 L 581 300 Q 600 308 613 311 L 715 339 C 744 347 737 358 707 354 L 563 334 L 627 390 L 661 420 L 707 464 Q 717 474 727 479 L 735 483 Q 741 486 743 488 Q 744 490 744 494 Q 744 497 743 502 Q 741 511 737 518 Q 733 525 725 535 Q 717 545 711 547 Q 708 549 706 549 Q 703 549 701 547 Q 697 545 695 536 Q 693 526 689 518 Q 687 509 683 504 L 667 480 L 651 460 L 611 415 L 577 383 Z" />
      </clipPath>
      <path clip-path="url(#make-me-a-hanzi-clip-9)" d="M 706 542 L 713 503 L 624 405 L 551 341 L 543 315 L 569 315 L 701 345 L 707 340" fill="none" id="make-me-a-hanzi-animation-9" stroke-dasharray="593 1186" stroke-linecap="round" />
    
      <clipPath id="make-me-a-hanzi-clip-10">
        <path d="M 715 339 L 723 319 Q 727 308 730 304 Q 733 300 737 298 Q 741 296 743 296 Q 749 296 755 303 Q 761 310 763 323 Q 764 327 764 330 Q 764 337 761 344 Q 756 354 753 359 Q 748 364 739 369 Q 728 375 719 380 Q 708 385 703 387 Q 699 388 697 388 Q 694 388 693 387 Q 692 386 692 384 Q 692 383 693 380 L 697 368 Q 701 363 707 354 L 715 339 Z" />
      </clipPath>
      <path clip-path="url(#make-me-a-hanzi-clip-10)" d="M 696 384 L 732 350 L 742 330 L 744 308" fill="none" id="make-me-a-hanzi-animation-10" stroke-dasharray="222 444" stroke-linecap="round" />
    
      <clipPath id="make-me-a-hanzi-clip-11">
        <path d="M 481 406 L 477 419 Q 475 424 473 428 Q 468 433 464 433 L 461 433 Q 457 432 453 422 Q 451 412 447 401 Q 443 391 433 373 Q 425 354 413 342 Q 403 330 401 326 Q 400 323 400 319 Q 400 312 402 304 Q 405 290 415 284 Q 421 280 429 280 L 435 280 Q 448 283 459 303 Q 471 323 475 339 Q 481 354 485 374 L 481 406 Z" />
      </clipPath>
      <path clip-path="url(#make-me-a-hanzi-clip-11)" d="M 463 424 L 462 376 L 432 318 L 432 298" fill="none" id="make-me-a-hanzi-animation-11" stroke-dasharray="261 522" stroke-linecap="round" />
    
      <clipPath id="make-me-a-hanzi-clip-12">
        <path d="M 485 374 L 503 370 Q 506 370 523 372 Q 541 374 577 383 L 627 390 L 771 407 Q 797 410 811 410 Q 825 410 826 407 Q 829 402 829 396 Q 827 390 823 384 Q 817 377 805 360 L 795 346 Q 792 342 792 340 Q 792 339 793 338 Q 794 337 795 337 Q 799 337 807 340 L 829 346 L 849 354 Q 861 358 877 360 L 907 362 Q 923 364 925 370 Q 926 372 926 373 Q 926 379 921 387 Q 915 398 903 410 Q 893 421 883 428 Q 875 434 865 439 Q 857 444 849 444 L 846 444 Q 840 444 829 442 Q 816 438 793 435 Q 770 431 745 429 L 661 420 L 611 415 L 481 406 C 451 404 456 381 485 374 Z" />
      </clipPath>
      <path clip-path="url(#make-me-a-hanzi-clip-12)" d="M 489 402 L 497 392 L 514 389 L 816 425 L 844 421 L 864 393 L 796 341" fill="none" id="make-me-a-hanzi-animation-12" stroke-dasharray="611 1222" stroke-linecap="round" />
    
      <clipPath id="make-me-a-hanzi-clip-13">
        <path d="M 539 188 L 547 202 Q 552 210 559 215 L 567 220 L 573 226 L 573 228 Q 573 233 567 239 Q 561 246 555 251 Q 549 256 539 260 Q 531 266 525 266 Q 523 267 520 267 Q 517 267 515 265 Q 511 262 511 247 Q 509 232 503 214 Q 497 196 489 180 Q 481 162 469 145 Q 456 128 455 124 L 447 113 Q 444 108 444 105 Q 444 103 445 102 Q 446 101 447 101 Q 451 101 459 106 L 475 118 Q 491 130 499 140 Q 508 149 521 163 L 539 188 Z" />
      </clipPath>
      <path clip-path="url(#make-me-a-hanzi-clip-13)" d="M 521 259 L 536 231 L 531 220 L 481 138 L 448 105" fill="none" id="make-me-a-hanzi-animation-13" stroke-dasharray="315 630" stroke-linecap="round" />
    
      <clipPath id="make-me-a-hanzi-clip-14">
        <path d="M 673 170 L 715 174 L 793 188 Q 799 188 803 192 Q 807 194 807 200 Q 807 205 798 211 Q 789 217 775 220 Q 761 224 755 224 Q 746 224 729 220 Q 710 215 701 213 Q 691 211 675 209 L 623 200 L 599 196 L 565 191 L 539 188 C 509 185 491 168 521 163 L 547 159 Q 552 158 569 158 Q 587 160 595 160 L 623 163 L 673 170 Z" />
      </clipPath>
      <path clip-path="url(#make-me-a-hanzi-clip-14)" d="M 528 167 L 545 174 L 756 203 L 796 200" fill="none" id="make-me-a-hanzi-animation-14" stroke-dasharray="399 798" stroke-linecap="round" />
    
      <clipPath id="make-me-a-hanzi-clip-15">
        <path d="M 621 90 L 589 87 L 497 76 Q 461 71 437 70 L 417 69 Q 407 68 405 62 L 405 60 Q 405 55 415 48 Q 427 40 447 33 Q 463 27 471 27 L 473 27 Q 479 27 495 32 Q 511 37 543 42 L 607 53 Q 611 54 621 55 L 671 60 L 689 62 Q 721 65 755 65 Q 772 65 789 64 Q 843 62 845 62 L 881 63 Q 897 63 899 71 Q 900 73 900 76 Q 900 81 895 87 Q 887 96 869 104 L 851 113 Q 837 118 831 118 Q 825 118 813 116 Q 799 112 781 110 L 721 102 Q 709 100 697 99 Q 687 98 671 96 L 621 90 Z" />
      </clipPath>
      <path clip-path="url(#make-me-a-hanzi-clip-15)" d="M 414 61 L 469 50 L 617 73 L 814 90 L 888 76" fill="none" id="make-me-a-hanzi-animation-15" stroke-dasharray="607 1214" stroke-linecap="round" />
    
      <clipPath id="make-me-a-hanzi-clip-16">
        <path d="M 621 55 L 617 -72 Q 617 -98 619 -122 Q 621 -144 623 -154 Q 623 -163 627 -169 Q 631 -175 635 -176 Q 639 -176 643 -165 Q 649 -153 653 -138 Q 659 -123 661 -102 Q 665 -80 667 -53 Q 669 -26 669 -10 L 671 60 L 671 96 L 673 170 L 675 209 L 677 224 Q 677 226 679 238 Q 682 250 685 260 Q 689 268 689 272 L 689 274 Q 689 279 685 282 Q 681 286 671 292 Q 660 296 653 299 Q 645 302 635 304 Q 628 306 623 306 Q 620 306 617 305 Q 611 303 609 299 Q 608 298 608 296 Q 608 293 611 287 L 615 276 Q 619 266 621 248 L 621 222 Q 623 214 623 200 L 623 163 L 621 90 L 621 55 Z" />
      </clipPath>
      <path clip-path="url(#make-me-a-hanzi-clip-16)" d="M 618 294 L 635 283 L 651 261 L 635 -168" fill="none" id="make-me-a-hanzi-animation-16" stroke-dasharray="605 1210" stroke-linecap="round" />
    
  </g>
</svg>