<svg xmlns="http://www.w3.org/2000/svg" version="1.1" viewBox="0 0 1024 1024">
  <g stroke="lightgray" stroke-dasharray="1,1" stroke-width="1" transform="scale(4, 4)">
    <line x1="0" y1="0" x2="256" y2="256" />
    <line x1="256" y1="0" x2="0" y2="256" />
    <line x1="128" y1="0" x2="128" y2="256" />
    <line x1="0" y1="128" x2="256" y2="128" />
  </g>
  <g transform="scale(1.0, -1.0) translate(0.0, -790.50)">
    <style type="text/css">
      
        @keyframes keyframes0 {
          from {
            stroke: blue;
            stroke-dashoffset: 681;
            stroke-width: 128;
          }
          69% {
            animation-timing-function: step-end;
            stroke: blue;
            stroke-dashoffset: 0;
            stroke-width: 128;
          }
          to {
            stroke: black;
            stroke-width: 1024;
          }
        }
        #make-me-a-hanzi-animation-0 {
          animation: keyframes0 0.80419921875s both;
          animation-delay: 0s;
          animation-timing-function: linear;
        }
      
        @keyframes keyframes1 {
          from {
            stroke: blue;
            stroke-dashoffset: 813;
            stroke-width: 128;
          }
          73% {
            animation-timing-function: step-end;
            stroke: blue;
            stroke-dashoffset: 0;
            stroke-width: 128;
          }
          to {
            stroke: black;
            stroke-width: 1024;
          }
        }
        #make-me-a-hanzi-animation-1 {
          animation: keyframes1 0.91162109375s both;
          animation-delay: 0.80419921875s;
          animation-timing-function: linear;
        }
      
        @keyframes keyframes2 {
          from {
            stroke: blue;
            stroke-dashoffset: 385;
            stroke-width: 128;
          }
          56% {
            animation-timing-function: step-end;
            stroke: blue;
            stroke-dashoffset: 0;
            stroke-width: 128;
          }
          to {
            stroke: black;
            stroke-width: 1024;
          }
        }
        #make-me-a-hanzi-animation-2 {
          animation: keyframes2 0.5633138020833334s both;
          animation-delay: 1.7158203125s;
          animation-timing-function: linear;
        }
      
        @keyframes keyframes3 {
          from {
            stroke: blue;
            stroke-dashoffset: 383;
            stroke-width: 128;
          }
          55% {
            animation-timing-function: step-end;
            stroke: blue;
            stroke-dashoffset: 0;
            stroke-width: 128;
          }
          to {
            stroke: black;
            stroke-width: 1024;
          }
        }
        #make-me-a-hanzi-animation-3 {
          animation: keyframes3 0.5616861979166666s both;
          animation-delay: 2.2791341145833335s;
          animation-timing-function: linear;
        }
      
        @keyframes keyframes4 {
          from {
            stroke: blue;
            stroke-dashoffset: 361;
            stroke-width: 128;
          }
          54% {
            animation-timing-function: step-end;
            stroke: blue;
            stroke-dashoffset: 0;
            stroke-width: 128;
          }
          to {
            stroke: black;
            stroke-width: 1024;
          }
        }
        #make-me-a-hanzi-animation-4 {
          animation: keyframes4 0.5437825520833334s both;
          animation-delay: 2.8408203125s;
          animation-timing-function: linear;
        }
      
        @keyframes keyframes5 {
          from {
            stroke: blue;
            stroke-dashoffset: 351;
            stroke-width: 128;
          }
          53% {
            animation-timing-function: step-end;
            stroke: blue;
            stroke-dashoffset: 0;
            stroke-width: 128;
          }
          to {
            stroke: black;
            stroke-width: 1024;
          }
        }
        #make-me-a-hanzi-animation-5 {
          animation: keyframes5 0.53564453125s both;
          animation-delay: 3.3846028645833335s;
          animation-timing-function: linear;
        }
      
        @keyframes keyframes6 {
          from {
            stroke: blue;
            stroke-dashoffset: 607;
            stroke-width: 128;
          }
          66% {
            animation-timing-function: step-end;
            stroke: blue;
            stroke-dashoffset: 0;
            stroke-width: 128;
          }
          to {
            stroke: black;
            stroke-width: 1024;
          }
        }
        #make-me-a-hanzi-animation-6 {
          animation: keyframes6 0.7439778645833334s both;
          animation-delay: 3.9202473958333335s;
          animation-timing-function: linear;
        }
      
        @keyframes keyframes7 {
          from {
            stroke: blue;
            stroke-dashoffset: 461;
            stroke-width: 128;
          }
          60% {
            animation-timing-function: step-end;
            stroke: blue;
            stroke-dashoffset: 0;
            stroke-width: 128;
          }
          to {
            stroke: black;
            stroke-width: 1024;
          }
        }
        #make-me-a-hanzi-animation-7 {
          animation: keyframes7 0.6251627604166666s both;
          animation-delay: 4.664225260416667s;
          animation-timing-function: linear;
        }
      
        @keyframes keyframes8 {
          from {
            stroke: blue;
            stroke-dashoffset: 771;
            stroke-width: 128;
          }
          72% {
            animation-timing-function: step-end;
            stroke: blue;
            stroke-dashoffset: 0;
            stroke-width: 128;
          }
          to {
            stroke: black;
            stroke-width: 1024;
          }
        }
        #make-me-a-hanzi-animation-8 {
          animation: keyframes8 0.87744140625s both;
          animation-delay: 5.289388020833334s;
          animation-timing-function: linear;
        }
      
        @keyframes keyframes9 {
          from {
            stroke: blue;
            stroke-dashoffset: 480;
            stroke-width: 128;
          }
          61% {
            animation-timing-function: step-end;
            stroke: blue;
            stroke-dashoffset: 0;
            stroke-width: 128;
          }
          to {
            stroke: black;
            stroke-width: 1024;
          }
        }
        #make-me-a-hanzi-animation-9 {
          animation: keyframes9 0.640625s both;
          animation-delay: 6.166829427083334s;
          animation-timing-function: linear;
        }
      
        @keyframes keyframes10 {
          from {
            stroke: blue;
            stroke-dashoffset: 485;
            stroke-width: 128;
          }
          61% {
            animation-timing-function: step-end;
            stroke: blue;
            stroke-dashoffset: 0;
            stroke-width: 128;
          }
          to {
            stroke: black;
            stroke-width: 1024;
          }
        }
        #make-me-a-hanzi-animation-10 {
          animation: keyframes10 0.6446940104166666s both;
          animation-delay: 6.807454427083334s;
          animation-timing-function: linear;
        }
      
        @keyframes keyframes11 {
          from {
            stroke: blue;
            stroke-dashoffset: 525;
            stroke-width: 128;
          }
          63% {
            animation-timing-function: step-end;
            stroke: blue;
            stroke-dashoffset: 0;
            stroke-width: 128;
          }
          to {
            stroke: black;
            stroke-width: 1024;
          }
        }
        #make-me-a-hanzi-animation-11 {
          animation: keyframes11 0.67724609375s both;
          animation-delay: 7.452148437500001s;
          animation-timing-function: linear;
        }
      
        @keyframes keyframes12 {
          from {
            stroke: blue;
            stroke-dashoffset: 513;
            stroke-width: 128;
          }
          63% {
            animation-timing-function: step-end;
            stroke: blue;
            stroke-dashoffset: 0;
            stroke-width: 128;
          }
          to {
            stroke: black;
            stroke-width: 1024;
          }
        }
        #make-me-a-hanzi-animation-12 {
          animation: keyframes12 0.66748046875s both;
          animation-delay: 8.12939453125s;
          animation-timing-function: linear;
        }
      
        @keyframes keyframes13 {
          from {
            stroke: blue;
            stroke-dashoffset: 733;
            stroke-width: 128;
          }
          70% {
            animation-timing-function: step-end;
            stroke: blue;
            stroke-dashoffset: 0;
            stroke-width: 128;
          }
          to {
            stroke: black;
            stroke-width: 1024;
          }
        }
        #make-me-a-hanzi-animation-13 {
          animation: keyframes13 0.8465169270833334s both;
          animation-delay: 8.796875s;
          animation-timing-function: linear;
        }
      
        @keyframes keyframes14 {
          from {
            stroke: blue;
            stroke-dashoffset: 560;
            stroke-width: 128;
          }
          65% {
            animation-timing-function: step-end;
            stroke: blue;
            stroke-dashoffset: 0;
            stroke-width: 128;
          }
          to {
            stroke: black;
            stroke-width: 1024;
          }
        }
        #make-me-a-hanzi-animation-14 {
          animation: keyframes14 0.7057291666666666s both;
          animation-delay: 9.643391927083334s;
          animation-timing-function: linear;
        }
      
        @keyframes keyframes15 {
          from {
            stroke: blue;
            stroke-dashoffset: 475;
            stroke-width: 128;
          }
          61% {
            animation-timing-function: step-end;
            stroke: blue;
            stroke-dashoffset: 0;
            stroke-width: 128;
          }
          to {
            stroke: black;
            stroke-width: 1024;
          }
        }
        #make-me-a-hanzi-animation-15 {
          animation: keyframes15 0.6365559895833334s both;
          animation-delay: 10.34912109375s;
          animation-timing-function: linear;
        }
      
        @keyframes keyframes16 {
          from {
            stroke: blue;
            stroke-dashoffset: 444;
            stroke-width: 128;
          }
          59% {
            animation-timing-function: step-end;
            stroke: blue;
            stroke-dashoffset: 0;
            stroke-width: 128;
          }
          to {
            stroke: black;
            stroke-width: 1024;
          }
        }
        #make-me-a-hanzi-animation-16 {
          animation: keyframes16 0.611328125s both;
          animation-delay: 10.985677083333334s;
          animation-timing-function: linear;
        }
      
    </style>
    
      <path d="M 292 433 L 227 428 Q 216 427 209 427 L 204 427 Q 198 427 196 430 Q 195 431 195 433 Q 195 435 197 438 Q 200 444 219 468 L 284 554 Q 285 556 304 580 Q 324 604 333 610 Q 342 616 343 620 Q 344 622 344 624 Q 344 629 338 638 Q 330 650 322 657 Q 314 664 303 670 Q 292 676 286 676 Q 282 677 279 677 Q 273 677 270 674 Q 266 670 266 656 Q 264 642 260 628 Q 256 613 247 593 Q 238 573 222 545 Q 206 517 191 494 Q 176 472 166 461 Q 155 450 143 441 L 130 432 Q 124 428 123 425 Q 120 420 120 412 Q 122 404 127 393 Q 132 382 138 374 Q 144 367 150 367 L 151 367 Q 154 367 164 372 L 183 380 L 204 388 L 268 402 C 297 408 322 435 292 433 Z" fill="lightgray" />
    
      <path d="M 268 402 L 256 386 Q 222 342 206 323 Q 190 304 177 290 Q 163 276 150 267 Q 136 259 134 256 Q 130 254 130 250 Q 129 248 129 245 Q 129 238 135 226 Q 144 210 152 201 Q 160 193 166 193 L 167 193 Q 171 193 179 200 Q 187 206 211 220 Q 235 234 236 235 L 351 286 C 378 298 371 320 343 309 L 228 264 Q 218 260 214 260 L 213 260 Q 210 260 207 264 L 207 265 Q 207 270 223 288 L 357 440 L 380 467 Q 389 476 400 484 Q 410 492 412 496 Q 412 502 407 513 Q 402 524 398 531 Q 394 537 386 546 Q 378 554 372 559 Q 366 564 361 564 Q 356 564 353 562 Q 350 559 349 552 Q 348 546 345 534 L 340 514 L 329 492 Q 322 476 315 467 L 292 433 L 268 402 Z" fill="lightgray" />
    
      <path d="M 351 286 L 368 258 Q 372 248 378 245 Q 384 240 391 240 L 394 240 Q 402 243 407 254 Q 411 263 411 273 L 411 277 Q 410 290 407 299 Q 404 309 398 318 Q 392 328 378 338 Q 366 348 354 353 L 338 358 Q 331 361 326 361 Q 324 361 322 360 Q 320 358 320 356 Q 320 352 324 346 L 330 332 Q 333 324 335 321 Q 336 318 343 309 L 351 286 Z" fill="lightgray" />
    
      <path d="M 114 94 Q 116 86 124 69 L 142 33 Q 151 14 160 6 Q 169 -3 178 -3 L 180 -3 Q 190 -2 196 11 Q 201 22 201 36 L 201 40 Q 199 56 192 71 Q 184 85 175 92 Q 166 100 152 108 Q 138 116 132 118 L 121 122 Q 116 124 113 124 Q 110 124 108 122 Q 106 121 106 118 Q 106 115 108 110 L 114 94 Z" fill="lightgray" />
    
      <path d="M 226 158 Q 223 159 220 159 Q 215 159 214 156 Q 212 154 212 152 Q 212 148 215 144 L 222 132 Q 224 127 232 114 L 250 85 Q 258 70 266 64 Q 274 58 281 58 L 283 58 Q 291 60 296 69 Q 300 76 300 87 L 300 91 Q 300 104 296 113 Q 293 122 286 128 Q 278 136 265 142 Q 252 149 241 153 L 226 158 Z" fill="lightgray" />
    
      <path d="M 322 203 Q 318 204 315 204 Q 311 204 310 202 Q 309 201 309 199 Q 309 196 312 192 L 322 175 L 330 160 Q 331 158 344 141 Q 356 124 362 120 Q 368 116 374 116 L 376 116 Q 383 118 388 126 Q 393 134 393 144 L 393 147 Q 393 158 388 167 Q 384 175 376 181 Q 368 186 354 192 Q 340 198 334 200 L 322 203 Z" fill="lightgray" />
    
      <path d="M 732 628 L 810 640 Q 811 640 825 644 Q 840 648 842 652 Q 844 654 844 658 Q 844 662 836 668 Q 830 673 821 676 Q 813 678 800 682 Q 786 685 778 685 Q 772 684 756 680 Q 739 675 699 668 Q 658 661 642 659 L 576 652 L 516 645 L 492 642 Q 482 642 480 637 L 480 635 Q 480 631 486 625 Q 494 618 506 615 Q 518 612 527 610 Q 536 609 556 609 L 618 613 L 684 622 L 732 628 Z" fill="lightgray" />
    
      <path d="M 502 516 L 476 522 Q 461 526 451 526 L 447 526 Q 438 526 434 522 Q 433 520 433 517 Q 433 515 434 512 Q 436 508 442 503 Q 448 499 454 491 Q 460 484 462 474 L 484 364 Q 488 348 490 341 Q 494 334 500 333 Q 502 332 503 332 Q 506 332 508 334 Q 512 336 516 346 L 520 354 L 520 386 L 510 489 C 508 515 508 515 502 516 Z" fill="lightgray" />
    
      <path d="M 573 522 L 502 516 C 472 513 480 489 510 489 L 532 489 Q 545 489 573 492 L 618 498 L 684 506 L 734 512 L 780 518 Q 792 520 801 520 Q 810 520 814 516 Q 818 513 818 504 Q 818 494 816 482 L 796 407 C 788 378 788 378 789 376 L 794 363 Q 796 353 808 352 L 811 352 Q 820 352 828 360 Q 838 369 845 389 L 863 439 L 873 467 Q 878 478 880 482 L 893 498 Q 902 509 902 514 Q 902 519 893 529 Q 883 538 875 543 Q 867 548 853 555 Q 840 562 832 564 Q 825 566 818 566 Q 812 566 797 561 Q 782 556 770 553 Q 758 550 740 548 L 686 536 L 618 526 L 573 522 Z" fill="lightgray" />
    
      <path d="M 556 609 L 561 598 Q 562 594 565 580 Q 568 566 570 550 L 573 522 L 573 492 L 582 393 C 585 363 622 366 621 396 L 618 498 L 618 526 L 618 568 Q 618 585 621 593 Q 624 604 624 607 Q 622 610 618 613 C 597 634 544 636 556 609 Z" fill="lightgray" />
    
      <path d="M 740 548 L 746 576 Q 748 581 752 590 Q 756 600 756 603 Q 756 611 747 617 Q 738 624 732 628 C 707 645 674 650 684 622 L 689 608 Q 690 604 690 597 L 690 589 Q 690 576 689 566 L 686 536 L 684 506 L 675 402 C 672 372 708 378 714 407 L 734 512 L 740 548 Z" fill="lightgray" />
    
      <path d="M 520 354 L 789 376 C 819 378 825 400 796 407 L 774 412 Q 770 413 765 413 Q 760 413 753 412 L 714 407 L 675 402 L 621 396 L 582 393 L 520 386 C 490 383 490 352 520 354 Z" fill="lightgray" />
    
      <path d="M 787 294 Q 794 296 795 302 L 795 304 Q 795 308 791 312 Q 786 316 774 321 Q 761 326 752 328 Q 745 330 738 330 L 734 330 Q 730 330 718 326 Q 706 322 686 318 L 645 310 Q 625 306 608 305 L 574 302 Q 552 299 547 299 L 534 298 Q 530 298 527 295 Q 526 294 526 292 Q 526 290 528 287 Q 532 282 538 278 Q 546 274 553 271 Q 560 268 567 267 Q 574 266 581 266 Q 588 266 604 268 L 664 276 L 748 287 Q 762 289 772 291 L 787 294 Z" fill="lightgray" />
    
      <path d="M 682 182 L 692 182 Q 706 184 770 188 L 858 192 L 900 194 Q 912 195 914 200 L 914 203 Q 914 208 908 214 Q 899 223 883 230 Q 866 237 857 240 Q 847 242 838 242 Q 829 242 810 238 Q 792 234 760 228 L 708 220 L 635 211 Q 554 200 549 199 Q 544 198 506 196 Q 470 192 455 190 L 434 188 Q 428 186 426 181 Q 425 180 425 178 Q 425 174 432 169 Q 440 163 452 158 Q 462 154 471 151 Q 476 150 483 150 L 490 150 Q 496 150 514 156 L 545 163 Q 559 165 584 168 L 626 175 L 682 182 Z" fill="lightgray" />
    
      <path d="M 626 175 L 634 153 Q 637 145 640 122 Q 642 100 642 80 L 641 9 Q 640 6 638 -22 Q 634 -49 634 -53 Q 630 -73 630 -78 Q 631 -84 637 -96 L 650 -118 Q 656 -128 663 -128 Q 668 -128 675 -122 Q 682 -116 688 -99 Q 694 -81 694 -65 Q 694 -56 693 -33 Q 692 -18 692 -6 L 692 73 Q 693 108 694 120 Q 696 132 700 142 Q 705 153 705 159 Q 705 161 704 162 Q 704 168 697 173 Q 690 178 682 182 C 656 197 616 203 626 175 Z" fill="lightgray" />
    
      <path d="M 434 -64 Q 445 -58 464 -45 Q 484 -32 500 -15 L 530 17 Q 544 33 550 38 L 561 47 Q 566 52 568 55 L 568 57 Q 568 62 562 69 Q 556 78 544 86 Q 533 94 524 98 Q 516 102 510 102 Q 504 102 502 100 Q 500 98 499 90 Q 498 82 496 72 Q 494 62 489 51 Q 484 40 473 23 Q 462 6 446 -15 Q 430 -36 417 -50 L 407 -61 Q 400 -70 398 -72 Q 398 -74 400 -77 Q 401 -78 402 -78 Q 405 -78 412 -74 L 434 -64 Z" fill="lightgray" />
    
      <path d="M 778 95 L 775 95 Q 770 95 768 92 Q 767 91 767 89 Q 767 85 772 80 L 782 71 L 809 39 L 843 -1 L 867 -29 Q 878 -42 887 -49 Q 896 -56 902 -56 L 905 -56 Q 913 -55 918 -47 Q 924 -40 926 -28 Q 927 -24 927 -20 Q 927 -12 924 -1 Q 922 16 911 27 Q 900 39 884 49 Q 868 59 852 68 L 808 86 Q 798 90 794 92 L 778 95 Z" fill="lightgray" />
    
    
      <clipPath id="make-me-a-hanzi-clip-0">
        <path d="M 292 433 L 227 428 Q 216 427 209 427 L 204 427 Q 198 427 196 430 Q 195 431 195 433 Q 195 435 197 438 Q 200 444 219 468 L 284 554 Q 285 556 304 580 Q 324 604 333 610 Q 342 616 343 620 Q 344 622 344 624 Q 344 629 338 638 Q 330 650 322 657 Q 314 664 303 670 Q 292 676 286 676 Q 282 677 279 677 Q 273 677 270 674 Q 266 670 266 656 Q 264 642 260 628 Q 256 613 247 593 Q 238 573 222 545 Q 206 517 191 494 Q 176 472 166 461 Q 155 450 143 441 L 130 432 Q 124 428 123 425 Q 120 420 120 412 Q 122 404 127 393 Q 132 382 138 374 Q 144 367 150 367 L 151 367 Q 154 367 164 372 L 183 380 L 204 388 L 268 402 C 297 408 322 435 292 433 Z" />
      </clipPath>
      <path clip-path="url(#make-me-a-hanzi-clip-0)" d="M 277 667 L 289 652 L 296 623 L 218 498 L 174 441 L 165 411 L 223 410 L 261 416 L 286 430" fill="none" id="make-me-a-hanzi-animation-0" stroke-dasharray="553 1106" stroke-linecap="round" />
    
      <clipPath id="make-me-a-hanzi-clip-1">
        <path d="M 268 402 L 256 386 Q 222 342 206 323 Q 190 304 177 290 Q 163 276 150 267 Q 136 259 134 256 Q 130 254 130 250 Q 129 248 129 245 Q 129 238 135 226 Q 144 210 152 201 Q 160 193 166 193 L 167 193 Q 171 193 179 200 Q 187 206 211 220 Q 235 234 236 235 L 351 286 C 378 298 371 320 343 309 L 228 264 Q 218 260 214 260 L 213 260 Q 210 260 207 264 L 207 265 Q 207 270 223 288 L 357 440 L 380 467 Q 389 476 400 484 Q 410 492 412 496 Q 412 502 407 513 Q 402 524 398 531 Q 394 537 386 546 Q 378 554 372 559 Q 366 564 361 564 Q 356 564 353 562 Q 350 559 349 552 Q 348 546 345 534 L 340 514 L 329 492 Q 322 476 315 467 L 292 433 L 268 402 Z" />
      </clipPath>
      <path clip-path="url(#make-me-a-hanzi-clip-1)" d="M 359 554 L 373 506 L 305 413 L 186 271 L 178 242 L 214 241 L 335 292 L 338 301" fill="none" id="make-me-a-hanzi-animation-1" stroke-dasharray="685 1370" stroke-linecap="round" />
    
      <clipPath id="make-me-a-hanzi-clip-2">
        <path d="M 351 286 L 368 258 Q 372 248 378 245 Q 384 240 391 240 L 394 240 Q 402 243 407 254 Q 411 263 411 273 L 411 277 Q 410 290 407 299 Q 404 309 398 318 Q 392 328 378 338 Q 366 348 354 353 L 338 358 Q 331 361 326 361 Q 324 361 322 360 Q 320 358 320 356 Q 320 352 324 346 L 330 332 Q 333 324 335 321 Q 336 318 343 309 L 351 286 Z" />
      </clipPath>
      <path clip-path="url(#make-me-a-hanzi-clip-2)" d="M 325 356 L 373 306 L 393 250" fill="none" id="make-me-a-hanzi-animation-2" stroke-dasharray="257 514" stroke-linecap="round" />
    
      <clipPath id="make-me-a-hanzi-clip-3">
        <path d="M 114 94 Q 116 86 124 69 L 142 33 Q 151 14 160 6 Q 169 -3 178 -3 L 180 -3 Q 190 -2 196 11 Q 201 22 201 36 L 201 40 Q 199 56 192 71 Q 184 85 175 92 Q 166 100 152 108 Q 138 116 132 118 L 121 122 Q 116 124 113 124 Q 110 124 108 122 Q 106 121 106 118 Q 106 115 108 110 L 114 94 Z" />
      </clipPath>
      <path clip-path="url(#make-me-a-hanzi-clip-3)" d="M 113 117 L 163 60 L 179 11" fill="none" id="make-me-a-hanzi-animation-3" stroke-dasharray="255 510" stroke-linecap="round" />
    
      <clipPath id="make-me-a-hanzi-clip-4">
        <path d="M 226 158 Q 223 159 220 159 Q 215 159 214 156 Q 212 154 212 152 Q 212 148 215 144 L 222 132 Q 224 127 232 114 L 250 85 Q 258 70 266 64 Q 274 58 281 58 L 283 58 Q 291 60 296 69 Q 300 76 300 87 L 300 91 Q 300 104 296 113 Q 293 122 286 128 Q 278 136 265 142 Q 252 149 241 153 L 226 158 Z" />
      </clipPath>
      <path clip-path="url(#make-me-a-hanzi-clip-4)" d="M 220 150 L 265 111 L 282 69" fill="none" id="make-me-a-hanzi-animation-4" stroke-dasharray="233 466" stroke-linecap="round" />
    
      <clipPath id="make-me-a-hanzi-clip-5">
        <path d="M 322 203 Q 318 204 315 204 Q 311 204 310 202 Q 309 201 309 199 Q 309 196 312 192 L 322 175 L 330 160 Q 331 158 344 141 Q 356 124 362 120 Q 368 116 374 116 L 376 116 Q 383 118 388 126 Q 393 134 393 144 L 393 147 Q 393 158 388 167 Q 384 175 376 181 Q 368 186 354 192 Q 340 198 334 200 L 322 203 Z" />
      </clipPath>
      <path clip-path="url(#make-me-a-hanzi-clip-5)" d="M 314 199 L 364 157 L 375 129" fill="none" id="make-me-a-hanzi-animation-5" stroke-dasharray="223 446" stroke-linecap="round" />
    
      <clipPath id="make-me-a-hanzi-clip-6">
        <path d="M 732 628 L 810 640 Q 811 640 825 644 Q 840 648 842 652 Q 844 654 844 658 Q 844 662 836 668 Q 830 673 821 676 Q 813 678 800 682 Q 786 685 778 685 Q 772 684 756 680 Q 739 675 699 668 Q 658 661 642 659 L 576 652 L 516 645 L 492 642 Q 482 642 480 637 L 480 635 Q 480 631 486 625 Q 494 618 506 615 Q 518 612 527 610 Q 536 609 556 609 L 618 613 L 684 622 L 732 628 Z" />
      </clipPath>
      <path clip-path="url(#make-me-a-hanzi-clip-6)" d="M 487 636 L 505 629 L 548 628 L 635 636 L 779 660 L 834 658" fill="none" id="make-me-a-hanzi-animation-6" stroke-dasharray="479 958" stroke-linecap="round" />
    
      <clipPath id="make-me-a-hanzi-clip-7">
        <path d="M 502 516 L 476 522 Q 461 526 451 526 L 447 526 Q 438 526 434 522 Q 433 520 433 517 Q 433 515 434 512 Q 436 508 442 503 Q 448 499 454 491 Q 460 484 462 474 L 484 364 Q 488 348 490 341 Q 494 334 500 333 Q 502 332 503 332 Q 506 332 508 334 Q 512 336 516 346 L 520 354 L 520 386 L 510 489 C 508 515 508 515 502 516 Z" />
      </clipPath>
      <path clip-path="url(#make-me-a-hanzi-clip-7)" d="M 442 518 L 482 495 L 503 338" fill="none" id="make-me-a-hanzi-animation-7" stroke-dasharray="333 666" stroke-linecap="round" />
    
      <clipPath id="make-me-a-hanzi-clip-8">
        <path d="M 573 522 L 502 516 C 472 513 480 489 510 489 L 532 489 Q 545 489 573 492 L 618 498 L 684 506 L 734 512 L 780 518 Q 792 520 801 520 Q 810 520 814 516 Q 818 513 818 504 Q 818 494 816 482 L 796 407 C 788 378 788 378 789 376 L 794 363 Q 796 353 808 352 L 811 352 Q 820 352 828 360 Q 838 369 845 389 L 863 439 L 873 467 Q 878 478 880 482 L 893 498 Q 902 509 902 514 Q 902 519 893 529 Q 883 538 875 543 Q 867 548 853 555 Q 840 562 832 564 Q 825 566 818 566 Q 812 566 797 561 Q 782 556 770 553 Q 758 550 740 548 L 686 536 L 618 526 L 573 522 Z" />
      </clipPath>
      <path clip-path="url(#make-me-a-hanzi-clip-8)" d="M 510 511 L 520 503 L 563 505 L 822 541 L 835 534 L 855 509 L 807 366" fill="none" id="make-me-a-hanzi-animation-8" stroke-dasharray="643 1286" stroke-linecap="round" />
    
      <clipPath id="make-me-a-hanzi-clip-9">
        <path d="M 556 609 L 561 598 Q 562 594 565 580 Q 568 566 570 550 L 573 522 L 573 492 L 582 393 C 585 363 622 366 621 396 L 618 498 L 618 526 L 618 568 Q 618 585 621 593 Q 624 604 624 607 Q 622 610 618 613 C 597 634 544 636 556 609 Z" />
      </clipPath>
      <path clip-path="url(#make-me-a-hanzi-clip-9)" d="M 564 606 L 592 584 L 600 414 L 614 403" fill="none" id="make-me-a-hanzi-animation-9" stroke-dasharray="352 704" stroke-linecap="round" />
    
      <clipPath id="make-me-a-hanzi-clip-10">
        <path d="M 740 548 L 746 576 Q 748 581 752 590 Q 756 600 756 603 Q 756 611 747 617 Q 738 624 732 628 C 707 645 674 650 684 622 L 689 608 Q 690 604 690 597 L 690 589 Q 690 576 689 566 L 686 536 L 684 506 L 675 402 C 672 372 708 378 714 407 L 734 512 L 740 548 Z" />
      </clipPath>
      <path clip-path="url(#make-me-a-hanzi-clip-10)" d="M 691 617 L 720 593 L 699 433 L 681 409" fill="none" id="make-me-a-hanzi-animation-10" stroke-dasharray="357 714" stroke-linecap="round" />
    
      <clipPath id="make-me-a-hanzi-clip-11">
        <path d="M 520 354 L 789 376 C 819 378 825 400 796 407 L 774 412 Q 770 413 765 413 Q 760 413 753 412 L 714 407 L 675 402 L 621 396 L 582 393 L 520 386 C 490 383 490 352 520 354 Z" />
      </clipPath>
      <path clip-path="url(#make-me-a-hanzi-clip-11)" d="M 528 359 L 542 372 L 774 393 L 789 400" fill="none" id="make-me-a-hanzi-animation-11" stroke-dasharray="397 794" stroke-linecap="round" />
    
      <clipPath id="make-me-a-hanzi-clip-12">
        <path d="M 787 294 Q 794 296 795 302 L 795 304 Q 795 308 791 312 Q 786 316 774 321 Q 761 326 752 328 Q 745 330 738 330 L 734 330 Q 730 330 718 326 Q 706 322 686 318 L 645 310 Q 625 306 608 305 L 574 302 Q 552 299 547 299 L 534 298 Q 530 298 527 295 Q 526 294 526 292 Q 526 290 528 287 Q 532 282 538 278 Q 546 274 553 271 Q 560 268 567 267 Q 574 266 581 266 Q 588 266 604 268 L 664 276 L 748 287 Q 762 289 772 291 L 787 294 Z" />
      </clipPath>
      <path clip-path="url(#make-me-a-hanzi-clip-12)" d="M 532 292 L 585 284 L 735 308 L 786 303" fill="none" id="make-me-a-hanzi-animation-12" stroke-dasharray="385 770" stroke-linecap="round" />
    
      <clipPath id="make-me-a-hanzi-clip-13">
        <path d="M 682 182 L 692 182 Q 706 184 770 188 L 858 192 L 900 194 Q 912 195 914 200 L 914 203 Q 914 208 908 214 Q 899 223 883 230 Q 866 237 857 240 Q 847 242 838 242 Q 829 242 810 238 Q 792 234 760 228 L 708 220 L 635 211 Q 554 200 549 199 Q 544 198 506 196 Q 470 192 455 190 L 434 188 Q 428 186 426 181 Q 425 180 425 178 Q 425 174 432 169 Q 440 163 452 158 Q 462 154 471 151 Q 476 150 483 150 L 490 150 Q 496 150 514 156 L 545 163 Q 559 165 584 168 L 626 175 L 682 182 Z" />
      </clipPath>
      <path clip-path="url(#make-me-a-hanzi-clip-13)" d="M 433 177 L 491 172 L 625 194 L 841 217 L 905 202" fill="none" id="make-me-a-hanzi-animation-13" stroke-dasharray="605 1210" stroke-linecap="round" />
    
      <clipPath id="make-me-a-hanzi-clip-14">
        <path d="M 626 175 L 634 153 Q 637 145 640 122 Q 642 100 642 80 L 641 9 Q 640 6 638 -22 Q 634 -49 634 -53 Q 630 -73 630 -78 Q 631 -84 637 -96 L 650 -118 Q 656 -128 663 -128 Q 668 -128 675 -122 Q 682 -116 688 -99 Q 694 -81 694 -65 Q 694 -56 693 -33 Q 692 -18 692 -6 L 692 73 Q 693 108 694 120 Q 696 132 700 142 Q 705 153 705 159 Q 705 161 704 162 Q 704 168 697 173 Q 690 178 682 182 C 656 197 616 203 626 175 Z" />
      </clipPath>
      <path clip-path="url(#make-me-a-hanzi-clip-14)" d="M 634 172 L 668 147 L 664 -115" fill="none" id="make-me-a-hanzi-animation-14" stroke-dasharray="432 864" stroke-linecap="round" />
    
      <clipPath id="make-me-a-hanzi-clip-15">
        <path d="M 434 -64 Q 445 -58 464 -45 Q 484 -32 500 -15 L 530 17 Q 544 33 550 38 L 561 47 Q 566 52 568 55 L 568 57 Q 568 62 562 69 Q 556 78 544 86 Q 533 94 524 98 Q 516 102 510 102 Q 504 102 502 100 Q 500 98 499 90 Q 498 82 496 72 Q 494 62 489 51 Q 484 40 473 23 Q 462 6 446 -15 Q 430 -36 417 -50 L 407 -61 Q 400 -70 398 -72 Q 398 -74 400 -77 Q 401 -78 402 -78 Q 405 -78 412 -74 L 434 -64 Z" />
      </clipPath>
      <path clip-path="url(#make-me-a-hanzi-clip-15)" d="M 508 93 L 524 67 L 516 42 L 461 -27 L 403 -73" fill="none" id="make-me-a-hanzi-animation-15" stroke-dasharray="347 694" stroke-linecap="round" />
    
      <clipPath id="make-me-a-hanzi-clip-16">
        <path d="M 778 95 L 775 95 Q 770 95 768 92 Q 767 91 767 89 Q 767 85 772 80 L 782 71 L 809 39 L 843 -1 L 867 -29 Q 878 -42 887 -49 Q 896 -56 902 -56 L 905 -56 Q 913 -55 918 -47 Q 924 -40 926 -28 Q 927 -24 927 -20 Q 927 -12 924 -1 Q 922 16 911 27 Q 900 39 884 49 Q 868 59 852 68 L 808 86 Q 798 90 794 92 L 778 95 Z" />
      </clipPath>
      <path clip-path="url(#make-me-a-hanzi-clip-16)" d="M 774 88 L 835 48 L 877 12 L 889 -2 L 904 -40" fill="none" id="make-me-a-hanzi-animation-16" stroke-dasharray="316 632" stroke-linecap="round" />
    
  </g>
</svg>