<svg xmlns="http://www.w3.org/2000/svg" version="1.1" viewBox="0 0 1024 1024">
  <g stroke="lightgray" stroke-dasharray="1,1" stroke-width="1" transform="scale(4, 4)">
    <line x1="0" y1="0" x2="256" y2="256" />
    <line x1="256" y1="0" x2="0" y2="256" />
    <line x1="128" y1="0" x2="128" y2="256" />
    <line x1="0" y1="128" x2="256" y2="128" />
  </g>
  <g transform="scale(1.0, -1.0) translate(0.0, -846.00)">
    <style type="text/css">
      
        @keyframes keyframes0 {
          from {
            stroke: blue;
            stroke-dashoffset: 756;
            stroke-width: 128;
          }
          71% {
            animation-timing-function: step-end;
            stroke: blue;
            stroke-dashoffset: 0;
            stroke-width: 128;
          }
          to {
            stroke: black;
            stroke-width: 1024;
          }
        }
        #make-me-a-hanzi-animation-0 {
          animation: keyframes0 0.865234375s both;
          animation-delay: 0s;
          animation-timing-function: linear;
        }
      
        @keyframes keyframes1 {
          from {
            stroke: blue;
            stroke-dashoffset: 815;
            stroke-width: 128;
          }
          73% {
            animation-timing-function: step-end;
            stroke: blue;
            stroke-dashoffset: 0;
            stroke-width: 128;
          }
          to {
            stroke: black;
            stroke-width: 1024;
          }
        }
        #make-me-a-hanzi-animation-1 {
          animation: keyframes1 0.9132486979166666s both;
          animation-delay: 0.865234375s;
          animation-timing-function: linear;
        }
      
        @keyframes keyframes2 {
          from {
            stroke: blue;
            stroke-dashoffset: 539;
            stroke-width: 128;
          }
          64% {
            animation-timing-function: step-end;
            stroke: blue;
            stroke-dashoffset: 0;
            stroke-width: 128;
          }
          to {
            stroke: black;
            stroke-width: 1024;
          }
        }
        #make-me-a-hanzi-animation-2 {
          animation: keyframes2 0.6886393229166666s both;
          animation-delay: 1.7784830729166665s;
          animation-timing-function: linear;
        }
      
        @keyframes keyframes3 {
          from {
            stroke: blue;
            stroke-dashoffset: 531;
            stroke-width: 128;
          }
          63% {
            animation-timing-function: step-end;
            stroke: blue;
            stroke-dashoffset: 0;
            stroke-width: 128;
          }
          to {
            stroke: black;
            stroke-width: 1024;
          }
        }
        #make-me-a-hanzi-animation-3 {
          animation: keyframes3 0.68212890625s both;
          animation-delay: 2.467122395833333s;
          animation-timing-function: linear;
        }
      
        @keyframes keyframes4 {
          from {
            stroke: blue;
            stroke-dashoffset: 691;
            stroke-width: 128;
          }
          69% {
            animation-timing-function: step-end;
            stroke: blue;
            stroke-dashoffset: 0;
            stroke-width: 128;
          }
          to {
            stroke: black;
            stroke-width: 1024;
          }
        }
        #make-me-a-hanzi-animation-4 {
          animation: keyframes4 0.8123372395833334s both;
          animation-delay: 3.149251302083333s;
          animation-timing-function: linear;
        }
      
        @keyframes keyframes5 {
          from {
            stroke: blue;
            stroke-dashoffset: 488;
            stroke-width: 128;
          }
          61% {
            animation-timing-function: step-end;
            stroke: blue;
            stroke-dashoffset: 0;
            stroke-width: 128;
          }
          to {
            stroke: black;
            stroke-width: 1024;
          }
        }
        #make-me-a-hanzi-animation-5 {
          animation: keyframes5 0.6471354166666666s both;
          animation-delay: 3.9615885416666665s;
          animation-timing-function: linear;
        }
      
        @keyframes keyframes6 {
          from {
            stroke: blue;
            stroke-dashoffset: 1473;
            stroke-width: 128;
          }
          83% {
            animation-timing-function: step-end;
            stroke: blue;
            stroke-dashoffset: 0;
            stroke-width: 128;
          }
          to {
            stroke: black;
            stroke-width: 1024;
          }
        }
        #make-me-a-hanzi-animation-6 {
          animation: keyframes6 1.44873046875s both;
          animation-delay: 4.608723958333333s;
          animation-timing-function: linear;
        }
      
    </style>
    
      <path d="M 300 378 Q 296 379 293 378 Q 241 378 196 379 Q 159 379 178 402 Q 245 514 309 599 Q 324 617 321 625 Q 318 640 278 671 Q 262 684 242 681 Q 230 678 237 662 Q 255 619 169 460 Q 150 423 111 388 Q 92 373 93 361 Q 97 342 112 323 Q 122 313 136 319 Q 158 331 284 354 C 314 359 330 378 300 378 Z" fill="lightgray" />
    
      <path d="M 284 354 Q 176 204 152 193 Q 139 183 142 170 Q 143 157 170 139 Q 180 127 195 140 Q 264 191 359 227 Q 378 233 379 241 Q 382 251 362 247 Q 305 234 236 210 Q 214 201 228 221 Q 270 281 370 403 Q 397 440 422 461 Q 434 471 428 481 Q 418 500 385 518 Q 369 528 359 525 Q 349 521 352 506 Q 355 469 300 378 L 284 354 Z" fill="lightgray" />
    
      <path d="M 115 39 Q 102 35 102 25 Q 101 12 112 5 Q 137 -7 172 -21 Q 182 -22 193 -12 Q 212 10 334 94 Q 350 106 362 118 Q 374 128 373 137 Q 366 141 355 137 Q 162 43 115 39 Z" fill="lightgray" />
    
      <path d="M 623 449 Q 741 488 746 491 Q 753 500 748 508 Q 741 520 709 524 Q 684 527 626 502 L 576 482 Q 533 470 482 459 Q 445 449 474 435 Q 519 414 575 434 L 623 449 Z" fill="lightgray" />
    
      <path d="M 615 208 Q 678 232 712 234 C 742 237 748 275 719 268 Q 664 256 616 242 L 565 226 Q 523 214 490 199 Q 477 195 479 212 Q 483 243 486 275 Q 490 296 480 308 Q 450 341 427 337 Q 418 333 425 317 Q 444 277 438 235 Q 434 196 418 179 Q 403 163 410 151 Q 420 138 436 130 Q 449 124 457 132 Q 472 154 564 188 L 615 208 Z" fill="lightgray" />
    
      <path d="M 712 234 Q 713 206 720 187 Q 727 169 741 179 Q 769 203 785 285 Q 810 337 814 340 Q 824 353 816 369 Q 800 388 769 412 Q 757 421 744 416 Q 735 413 736 400 Q 745 385 742 329 Q 733 292 719 268 L 712 234 Z" fill="lightgray" />
    
      <path d="M 971 2 Q 947 54 930 147 Q 927 162 921 168 Q 912 175 910 159 Q 900 104 889 62 Q 885 34 860 15 Q 833 -10 720 -8 Q 654 -2 637 31 Q 615 79 615 208 L 616 242 Q 617 362 623 449 L 626 502 Q 630 608 644 658 Q 653 679 623 701 L 578 729 Q 560 741 543 730 Q 531 724 552 696 Q 576 662 576 617 Q 577 574 576 482 L 575 434 Q 568 268 565 226 L 564 188 Q 561 37 614 -27 Q 660 -73 823 -65 Q 896 -61 950 -36 Q 984 -24 971 2 Z" fill="lightgray" />
    
    
      <clipPath id="make-me-a-hanzi-clip-0">
        <path d="M 300 378 Q 296 379 293 378 Q 241 378 196 379 Q 159 379 178 402 Q 245 514 309 599 Q 324 617 321 625 Q 318 640 278 671 Q 262 684 242 681 Q 230 678 237 662 Q 255 619 169 460 Q 150 423 111 388 Q 92 373 93 361 Q 97 342 112 323 Q 122 313 136 319 Q 158 331 284 354 C 314 359 330 378 300 378 Z" />
      </clipPath>
      <path clip-path="url(#make-me-a-hanzi-clip-0)" d="M 245 670 L 262 654 L 277 621 L 141 369 L 143 362 L 156 358 L 187 357 L 271 364 L 286 373" fill="none" id="make-me-a-hanzi-animation-0" stroke-dasharray="628 1256" stroke-linecap="round" />
    
      <clipPath id="make-me-a-hanzi-clip-1">
        <path d="M 284 354 Q 176 204 152 193 Q 139 183 142 170 Q 143 157 170 139 Q 180 127 195 140 Q 264 191 359 227 Q 378 233 379 241 Q 382 251 362 247 Q 305 234 236 210 Q 214 201 228 221 Q 270 281 370 403 Q 397 440 422 461 Q 434 471 428 481 Q 418 500 385 518 Q 369 528 359 525 Q 349 521 352 506 Q 355 469 300 378 L 284 354 Z" />
      </clipPath>
      <path clip-path="url(#make-me-a-hanzi-clip-1)" d="M 364 513 L 385 476 L 302 346 L 215 234 L 207 221 L 206 190 L 242 192 L 371 241" fill="none" id="make-me-a-hanzi-animation-1" stroke-dasharray="687 1374" stroke-linecap="round" />
    
      <clipPath id="make-me-a-hanzi-clip-2">
        <path d="M 115 39 Q 102 35 102 25 Q 101 12 112 5 Q 137 -7 172 -21 Q 182 -22 193 -12 Q 212 10 334 94 Q 350 106 362 118 Q 374 128 373 137 Q 366 141 355 137 Q 162 43 115 39 Z" />
      </clipPath>
      <path clip-path="url(#make-me-a-hanzi-clip-2)" d="M 117 24 L 172 18 L 368 133" fill="none" id="make-me-a-hanzi-animation-2" stroke-dasharray="411 822" stroke-linecap="round" />
    
      <clipPath id="make-me-a-hanzi-clip-3">
        <path d="M 623 449 Q 741 488 746 491 Q 753 500 748 508 Q 741 520 709 524 Q 684 527 626 502 L 576 482 Q 533 470 482 459 Q 445 449 474 435 Q 519 414 575 434 L 623 449 Z" />
      </clipPath>
      <path clip-path="url(#make-me-a-hanzi-clip-3)" d="M 475 448 L 534 447 L 697 500 L 728 503 L 741 498" fill="none" id="make-me-a-hanzi-animation-3" stroke-dasharray="403 806" stroke-linecap="round" />
    
      <clipPath id="make-me-a-hanzi-clip-4">
        <path d="M 615 208 Q 678 232 712 234 C 742 237 748 275 719 268 Q 664 256 616 242 L 565 226 Q 523 214 490 199 Q 477 195 479 212 Q 483 243 486 275 Q 490 296 480 308 Q 450 341 427 337 Q 418 333 425 317 Q 444 277 438 235 Q 434 196 418 179 Q 403 163 410 151 Q 420 138 436 130 Q 449 124 457 132 Q 472 154 564 188 L 615 208 Z" />
      </clipPath>
      <path clip-path="url(#make-me-a-hanzi-clip-4)" d="M 433 328 L 461 291 L 457 176 L 490 178 L 627 230 L 694 246 L 712 264" fill="none" id="make-me-a-hanzi-animation-4" stroke-dasharray="563 1126" stroke-linecap="round" />
    
      <clipPath id="make-me-a-hanzi-clip-5">
        <path d="M 712 234 Q 713 206 720 187 Q 727 169 741 179 Q 769 203 785 285 Q 810 337 814 340 Q 824 353 816 369 Q 800 388 769 412 Q 757 421 744 416 Q 735 413 736 400 Q 745 385 742 329 Q 733 292 719 268 L 712 234 Z" />
      </clipPath>
      <path clip-path="url(#make-me-a-hanzi-clip-5)" d="M 749 404 L 763 390 L 779 355 L 732 188" fill="none" id="make-me-a-hanzi-animation-5" stroke-dasharray="360 720" stroke-linecap="round" />
    
      <clipPath id="make-me-a-hanzi-clip-6">
        <path d="M 971 2 Q 947 54 930 147 Q 927 162 921 168 Q 912 175 910 159 Q 900 104 889 62 Q 885 34 860 15 Q 833 -10 720 -8 Q 654 -2 637 31 Q 615 79 615 208 L 616 242 Q 617 362 623 449 L 626 502 Q 630 608 644 658 Q 653 679 623 701 L 578 729 Q 560 741 543 730 Q 531 724 552 696 Q 576 662 576 617 Q 577 574 576 482 L 575 434 Q 568 268 565 226 L 564 188 Q 561 37 614 -27 Q 660 -73 823 -65 Q 896 -61 950 -36 Q 984 -24 971 2 Z" />
      </clipPath>
      <path clip-path="url(#make-me-a-hanzi-clip-6)" d="M 550 721 L 572 707 L 607 666 L 589 206 L 598 72 L 619 11 L 632 -6 L 655 -21 L 716 -36 L 811 -36 L 883 -18 L 917 4 L 918 160" fill="none" id="make-me-a-hanzi-animation-6" stroke-dasharray="1345 2690" stroke-linecap="round" />
    
  </g>
</svg>