<svg xmlns="http://www.w3.org/2000/svg" version="1.1" viewBox="0 0 1024 1024">
  <g stroke="lightgray" stroke-dasharray="1,1" stroke-width="1" transform="scale(4, 4)">
    <line x1="0" y1="0" x2="256" y2="256" />
    <line x1="256" y1="0" x2="0" y2="256" />
    <line x1="128" y1="0" x2="128" y2="256" />
    <line x1="0" y1="128" x2="256" y2="128" />
  </g>
  <g transform="scale(1.0, -1.0) translate(0.0, -829.00)">
    <style type="text/css">
      
        @keyframes keyframes0 {
          from {
            stroke: blue;
            stroke-dashoffset: 746;
            stroke-width: 128;
          }
          71% {
            animation-timing-function: step-end;
            stroke: blue;
            stroke-dashoffset: 0;
            stroke-width: 128;
          }
          to {
            stroke: black;
            stroke-width: 1024;
          }
        }
        #make-me-a-hanzi-animation-0 {
          animation: keyframes0 0.8570963541666666s both;
          animation-delay: 0s;
          animation-timing-function: linear;
        }
      
        @keyframes keyframes1 {
          from {
            stroke: blue;
            stroke-dashoffset: 767;
            stroke-width: 128;
          }
          71% {
            animation-timing-function: step-end;
            stroke: blue;
            stroke-dashoffset: 0;
            stroke-width: 128;
          }
          to {
            stroke: black;
            stroke-width: 1024;
          }
        }
        #make-me-a-hanzi-animation-1 {
          animation: keyframes1 0.8741861979166666s both;
          animation-delay: 0.8570963541666666s;
          animation-timing-function: linear;
        }
      
        @keyframes keyframes2 {
          from {
            stroke: blue;
            stroke-dashoffset: 572;
            stroke-width: 128;
          }
          65% {
            animation-timing-function: step-end;
            stroke: blue;
            stroke-dashoffset: 0;
            stroke-width: 128;
          }
          to {
            stroke: black;
            stroke-width: 1024;
          }
        }
        #make-me-a-hanzi-animation-2 {
          animation: keyframes2 0.7154947916666666s both;
          animation-delay: 1.7312825520833333s;
          animation-timing-function: linear;
        }
      
        @keyframes keyframes3 {
          from {
            stroke: blue;
            stroke-dashoffset: 522;
            stroke-width: 128;
          }
          63% {
            animation-timing-function: step-end;
            stroke: blue;
            stroke-dashoffset: 0;
            stroke-width: 128;
          }
          to {
            stroke: black;
            stroke-width: 1024;
          }
        }
        #make-me-a-hanzi-animation-3 {
          animation: keyframes3 0.6748046875s both;
          animation-delay: 2.44677734375s;
          animation-timing-function: linear;
        }
      
        @keyframes keyframes4 {
          from {
            stroke: blue;
            stroke-dashoffset: 387;
            stroke-width: 128;
          }
          56% {
            animation-timing-function: step-end;
            stroke: blue;
            stroke-dashoffset: 0;
            stroke-width: 128;
          }
          to {
            stroke: black;
            stroke-width: 1024;
          }
        }
        #make-me-a-hanzi-animation-4 {
          animation: keyframes4 0.56494140625s both;
          animation-delay: 3.12158203125s;
          animation-timing-function: linear;
        }
      
        @keyframes keyframes5 {
          from {
            stroke: blue;
            stroke-dashoffset: 350;
            stroke-width: 128;
          }
          53% {
            animation-timing-function: step-end;
            stroke: blue;
            stroke-dashoffset: 0;
            stroke-width: 128;
          }
          to {
            stroke: black;
            stroke-width: 1024;
          }
        }
        #make-me-a-hanzi-animation-5 {
          animation: keyframes5 0.5348307291666666s both;
          animation-delay: 3.6865234375s;
          animation-timing-function: linear;
        }
      
        @keyframes keyframes6 {
          from {
            stroke: blue;
            stroke-dashoffset: 439;
            stroke-width: 128;
          }
          59% {
            animation-timing-function: step-end;
            stroke: blue;
            stroke-dashoffset: 0;
            stroke-width: 128;
          }
          to {
            stroke: black;
            stroke-width: 1024;
          }
        }
        #make-me-a-hanzi-animation-6 {
          animation: keyframes6 0.6072591145833334s both;
          animation-delay: 4.221354166666667s;
          animation-timing-function: linear;
        }
      
        @keyframes keyframes7 {
          from {
            stroke: blue;
            stroke-dashoffset: 403;
            stroke-width: 128;
          }
          57% {
            animation-timing-function: step-end;
            stroke: blue;
            stroke-dashoffset: 0;
            stroke-width: 128;
          }
          to {
            stroke: black;
            stroke-width: 1024;
          }
        }
        #make-me-a-hanzi-animation-7 {
          animation: keyframes7 0.5779622395833334s both;
          animation-delay: 4.82861328125s;
          animation-timing-function: linear;
        }
      
        @keyframes keyframes8 {
          from {
            stroke: blue;
            stroke-dashoffset: 748;
            stroke-width: 128;
          }
          71% {
            animation-timing-function: step-end;
            stroke: blue;
            stroke-dashoffset: 0;
            stroke-width: 128;
          }
          to {
            stroke: black;
            stroke-width: 1024;
          }
        }
        #make-me-a-hanzi-animation-8 {
          animation: keyframes8 0.8587239583333334s both;
          animation-delay: 5.406575520833333s;
          animation-timing-function: linear;
        }
      
        @keyframes keyframes9 {
          from {
            stroke: blue;
            stroke-dashoffset: 982;
            stroke-width: 128;
          }
          76% {
            animation-timing-function: step-end;
            stroke: blue;
            stroke-dashoffset: 0;
            stroke-width: 128;
          }
          to {
            stroke: black;
            stroke-width: 1024;
          }
        }
        #make-me-a-hanzi-animation-9 {
          animation: keyframes9 1.0491536458333333s both;
          animation-delay: 6.265299479166666s;
          animation-timing-function: linear;
        }
      
        @keyframes keyframes10 {
          from {
            stroke: blue;
            stroke-dashoffset: 810;
            stroke-width: 128;
          }
          73% {
            animation-timing-function: step-end;
            stroke: blue;
            stroke-dashoffset: 0;
            stroke-width: 128;
          }
          to {
            stroke: black;
            stroke-width: 1024;
          }
        }
        #make-me-a-hanzi-animation-10 {
          animation: keyframes10 0.9091796875s both;
          animation-delay: 7.314453124999999s;
          animation-timing-function: linear;
        }
      
    </style>
    
      <path d="M 302 388 Q 254 389 215 388 Q 181 388 198 409 Q 267 523 333 607 Q 348 625 345 632 Q 342 648 302 680 Q 286 693 266 690 Q 254 687 261 671 Q 277 629 190 468 Q 171 431 131 397 Q 112 381 114 369 Q 118 350 133 331 Q 143 321 157 327 Q 182 342 265 360 L 285 362 C 315 365 332 387 302 388 Z" fill="lightgray" />
    
      <path d="M 285 362 Q 189 229 168 217 Q 155 207 158 194 Q 159 181 186 163 Q 196 151 211 164 Q 256 203 343 239 Q 362 245 363 253 Q 366 263 346 259 Q 304 250 252 234 Q 228 224 243 245 Q 282 303 375 419 Q 402 456 426 478 Q 439 488 432 497 Q 422 516 388 534 Q 372 543 363 540 Q 353 536 356 521 Q 359 482 302 388 L 285 362 Z" fill="lightgray" />
    
      <path d="M 114 41 Q 101 37 101 27 Q 101 14 112 6 Q 137 -7 174 -21 Q 186 -22 196 -12 Q 212 6 358 107 Q 377 120 390 134 Q 402 144 401 153 Q 394 157 382 153 Q 283 105 158 51 Q 142 44 114 41 Z" fill="lightgray" />
    
      <path d="M 615 689 Q 582 658 473 603 Q 469 596 474 592 Q 525 592 629 634 Q 639 646 713 660 Q 729 661 733 668 Q 737 678 725 689 Q 706 705 663 721 Q 648 728 636 727 Q 629 723 628 713 Q 628 700 615 689 Z" fill="lightgray" />
    
      <path d="M 457 521 Q 515 446 523 445 Q 532 444 537 453 Q 544 463 541 487 Q 538 517 461 558 Q 449 564 444 562 Q 440 561 439 550 Q 440 541 457 521 Z" fill="lightgray" />
    
      <path d="M 569 560 Q 602 506 622 494 Q 632 490 640 497 Q 647 506 647 518 Q 644 549 584 585 Q 574 591 566 590 Q 562 590 561 581 Q 561 572 569 560 Z" fill="lightgray" />
    
      <path d="M 755 579 Q 745 557 689 481 Q 682 465 697 470 Q 745 500 795 541 Q 811 556 832 567 Q 851 577 840 592 Q 827 607 803 619 Q 781 629 769 627 Q 759 624 763 613 Q 767 597 755 579 Z" fill="lightgray" />
    
      <path d="M 460 402 Q 450 426 433 440 Q 430 444 424 440 Q 420 437 418 427 Q 419 399 393 345 Q 383 330 383 313 Q 384 295 393 282 Q 400 272 405 278 Q 417 281 433 321 Q 454 372 459 377 C 466 388 466 388 460 402 Z" fill="lightgray" />
    
      <path d="M 459 377 Q 477 368 517 376 Q 613 412 745 429 Q 772 435 782 433 Q 797 421 793 414 Q 793 411 772 341 Q 766 328 773 325 Q 780 322 794 334 Q 840 374 881 391 Q 915 406 913 413 Q 912 422 843 464 Q 822 477 732 456 Q 686 450 533 416 L 460 402 C 431 396 430 385 459 377 Z" fill="lightgray" />
    
      <path d="M 652 95 Q 686 143 711 212 Q 720 246 740 263 Q 756 276 739 293 Q 718 309 686 324 Q 664 331 643 322 Q 589 289 514 273 Q 486 269 475 262 Q 466 255 486 245 Q 514 233 553 249 L 638 274 Q 651 281 655 264 Q 655 204 612 131 L 588 98 L 557 66 Q 499 20 350 -18 Q 334 -21 343 -30 Q 350 -37 380 -35 Q 477 -25 534 -3 Q 583 18 622 59 L 652 95 Z" fill="lightgray" />
    
      <path d="M 622 59 Q 764 -83 805 -94 Q 823 -94 944 -69 Q 957 -65 969 -59 Q 976 -52 964 -44 Q 948 -37 826 -4 Q 747 20 652 95 L 612 131 Q 584 156 557 184 Q 538 205 505 208 Q 492 209 482 202 Q 478 195 488 186 Q 524 165 573 113 Q 580 107 588 98 L 622 59 Z" fill="lightgray" />
    
    
      <clipPath id="make-me-a-hanzi-clip-0">
        <path d="M 302 388 Q 254 389 215 388 Q 181 388 198 409 Q 267 523 333 607 Q 348 625 345 632 Q 342 648 302 680 Q 286 693 266 690 Q 254 687 261 671 Q 277 629 190 468 Q 171 431 131 397 Q 112 381 114 369 Q 118 350 133 331 Q 143 321 157 327 Q 182 342 265 360 L 285 362 C 315 365 332 387 302 388 Z" />
      </clipPath>
      <path clip-path="url(#make-me-a-hanzi-clip-0)" d="M 269 679 L 286 663 L 300 629 L 223 485 L 167 396 L 161 372 L 214 367 L 279 375 L 294 384" fill="none" id="make-me-a-hanzi-animation-0" stroke-dasharray="618 1236" stroke-linecap="round" />
    
      <clipPath id="make-me-a-hanzi-clip-1">
        <path d="M 285 362 Q 189 229 168 217 Q 155 207 158 194 Q 159 181 186 163 Q 196 151 211 164 Q 256 203 343 239 Q 362 245 363 253 Q 366 263 346 259 Q 304 250 252 234 Q 228 224 243 245 Q 282 303 375 419 Q 402 456 426 478 Q 439 488 432 497 Q 422 516 388 534 Q 372 543 363 540 Q 353 536 356 521 Q 359 482 302 388 L 285 362 Z" />
      </clipPath>
      <path clip-path="url(#make-me-a-hanzi-clip-1)" d="M 368 528 L 389 492 L 318 376 L 226 255 L 220 216 L 251 214 L 355 253" fill="none" id="make-me-a-hanzi-animation-1" stroke-dasharray="639 1278" stroke-linecap="round" />
    
      <clipPath id="make-me-a-hanzi-clip-2">
        <path d="M 114 41 Q 101 37 101 27 Q 101 14 112 6 Q 137 -7 174 -21 Q 186 -22 196 -12 Q 212 6 358 107 Q 377 120 390 134 Q 402 144 401 153 Q 394 157 382 153 Q 283 105 158 51 Q 142 44 114 41 Z" />
      </clipPath>
      <path clip-path="url(#make-me-a-hanzi-clip-2)" d="M 116 26 L 174 18 L 396 149" fill="none" id="make-me-a-hanzi-animation-2" stroke-dasharray="444 888" stroke-linecap="round" />
    
      <clipPath id="make-me-a-hanzi-clip-3">
        <path d="M 615 689 Q 582 658 473 603 Q 469 596 474 592 Q 525 592 629 634 Q 639 646 713 660 Q 729 661 733 668 Q 737 678 725 689 Q 706 705 663 721 Q 648 728 636 727 Q 629 723 628 713 Q 628 700 615 689 Z" />
      </clipPath>
      <path clip-path="url(#make-me-a-hanzi-clip-3)" d="M 723 673 L 658 685 L 578 636 L 479 598" fill="none" id="make-me-a-hanzi-animation-3" stroke-dasharray="394 788" stroke-linecap="round" />
    
      <clipPath id="make-me-a-hanzi-clip-4">
        <path d="M 457 521 Q 515 446 523 445 Q 532 444 537 453 Q 544 463 541 487 Q 538 517 461 558 Q 449 564 444 562 Q 440 561 439 550 Q 440 541 457 521 Z" />
      </clipPath>
      <path clip-path="url(#make-me-a-hanzi-clip-4)" d="M 447 554 L 517 485 L 526 454" fill="none" id="make-me-a-hanzi-animation-4" stroke-dasharray="259 518" stroke-linecap="round" />
    
      <clipPath id="make-me-a-hanzi-clip-5">
        <path d="M 569 560 Q 602 506 622 494 Q 632 490 640 497 Q 647 506 647 518 Q 644 549 584 585 Q 574 591 566 590 Q 562 590 561 581 Q 561 572 569 560 Z" />
      </clipPath>
      <path clip-path="url(#make-me-a-hanzi-clip-5)" d="M 570 582 L 617 531 L 629 509" fill="none" id="make-me-a-hanzi-animation-5" stroke-dasharray="222 444" stroke-linecap="round" />
    
      <clipPath id="make-me-a-hanzi-clip-6">
        <path d="M 755 579 Q 745 557 689 481 Q 682 465 697 470 Q 745 500 795 541 Q 811 556 832 567 Q 851 577 840 592 Q 827 607 803 619 Q 781 629 769 627 Q 759 624 763 613 Q 767 597 755 579 Z" />
      </clipPath>
      <path clip-path="url(#make-me-a-hanzi-clip-6)" d="M 774 617 L 794 582 L 752 532 L 710 490 L 700 487 L 699 480" fill="none" id="make-me-a-hanzi-animation-6" stroke-dasharray="311 622" stroke-linecap="round" />
    
      <clipPath id="make-me-a-hanzi-clip-7">
        <path d="M 460 402 Q 450 426 433 440 Q 430 444 424 440 Q 420 437 418 427 Q 419 399 393 345 Q 383 330 383 313 Q 384 295 393 282 Q 400 272 405 278 Q 417 281 433 321 Q 454 372 459 377 C 466 388 466 388 460 402 Z" />
      </clipPath>
      <path clip-path="url(#make-me-a-hanzi-clip-7)" d="M 429 430 L 436 385 L 406 316 L 402 290" fill="none" id="make-me-a-hanzi-animation-7" stroke-dasharray="275 550" stroke-linecap="round" />
    
      <clipPath id="make-me-a-hanzi-clip-8">
        <path d="M 459 377 Q 477 368 517 376 Q 613 412 745 429 Q 772 435 782 433 Q 797 421 793 414 Q 793 411 772 341 Q 766 328 773 325 Q 780 322 794 334 Q 840 374 881 391 Q 915 406 913 413 Q 912 422 843 464 Q 822 477 732 456 Q 686 450 533 416 L 460 402 C 431 396 430 385 459 377 Z" />
      </clipPath>
      <path clip-path="url(#make-me-a-hanzi-clip-8)" d="M 467 383 L 628 424 L 789 450 L 818 439 L 836 418 L 777 332" fill="none" id="make-me-a-hanzi-animation-8" stroke-dasharray="620 1240" stroke-linecap="round" />
    
      <clipPath id="make-me-a-hanzi-clip-9">
        <path d="M 652 95 Q 686 143 711 212 Q 720 246 740 263 Q 756 276 739 293 Q 718 309 686 324 Q 664 331 643 322 Q 589 289 514 273 Q 486 269 475 262 Q 466 255 486 245 Q 514 233 553 249 L 638 274 Q 651 281 655 264 Q 655 204 612 131 L 588 98 L 557 66 Q 499 20 350 -18 Q 334 -21 343 -30 Q 350 -37 380 -35 Q 477 -25 534 -3 Q 583 18 622 59 L 652 95 Z" />
      </clipPath>
      <path clip-path="url(#make-me-a-hanzi-clip-9)" d="M 483 256 L 516 256 L 657 300 L 679 291 L 694 270 L 676 201 L 647 137 L 608 81 L 578 51 L 531 21 L 484 2 L 371 -26 L 350 -26" fill="none" id="make-me-a-hanzi-animation-9" stroke-dasharray="854 1708" stroke-linecap="round" />
    
      <clipPath id="make-me-a-hanzi-clip-10">
        <path d="M 622 59 Q 764 -83 805 -94 Q 823 -94 944 -69 Q 957 -65 969 -59 Q 976 -52 964 -44 Q 948 -37 826 -4 Q 747 20 652 95 L 612 131 Q 584 156 557 184 Q 538 205 505 208 Q 492 209 482 202 Q 478 195 488 186 Q 524 165 573 113 Q 580 107 588 98 L 622 59 Z" />
      </clipPath>
      <path clip-path="url(#make-me-a-hanzi-clip-10)" d="M 491 198 L 531 181 L 647 66 L 786 -35 L 817 -48 L 959 -54" fill="none" id="make-me-a-hanzi-animation-10" stroke-dasharray="682 1364" stroke-linecap="round" />
    
  </g>
</svg>