<svg xmlns="http://www.w3.org/2000/svg" version="1.1" viewBox="0 0 1024 1024">
  <g stroke="lightgray" stroke-dasharray="1,1" stroke-width="1" transform="scale(4, 4)">
    <line x1="0" y1="0" x2="256" y2="256" />
    <line x1="256" y1="0" x2="0" y2="256" />
    <line x1="128" y1="0" x2="128" y2="256" />
    <line x1="0" y1="128" x2="256" y2="128" />
  </g>
  <g transform="scale(1.0, -1.0) translate(0.0, -812.00)">
    <style type="text/css">
      
        @keyframes keyframes0 {
          from {
            stroke: blue;
            stroke-dashoffset: 722;
            stroke-width: 128;
          }
          70% {
            animation-timing-function: step-end;
            stroke: blue;
            stroke-dashoffset: 0;
            stroke-width: 128;
          }
          to {
            stroke: black;
            stroke-width: 1024;
          }
        }
        #make-me-a-hanzi-animation-0 {
          animation: keyframes0 0.8375651041666666s both;
          animation-delay: 0s;
          animation-timing-function: linear;
        }
      
        @keyframes keyframes1 {
          from {
            stroke: blue;
            stroke-dashoffset: 777;
            stroke-width: 128;
          }
          72% {
            animation-timing-function: step-end;
            stroke: blue;
            stroke-dashoffset: 0;
            stroke-width: 128;
          }
          to {
            stroke: black;
            stroke-width: 1024;
          }
        }
        #make-me-a-hanzi-animation-1 {
          animation: keyframes1 0.88232421875s both;
          animation-delay: 0.8375651041666666s;
          animation-timing-function: linear;
        }
      
        @keyframes keyframes2 {
          from {
            stroke: blue;
            stroke-dashoffset: 526;
            stroke-width: 128;
          }
          63% {
            animation-timing-function: step-end;
            stroke: blue;
            stroke-dashoffset: 0;
            stroke-width: 128;
          }
          to {
            stroke: black;
            stroke-width: 1024;
          }
        }
        #make-me-a-hanzi-animation-2 {
          animation: keyframes2 0.6780598958333334s both;
          animation-delay: 1.7198893229166665s;
          animation-timing-function: linear;
        }
      
        @keyframes keyframes3 {
          from {
            stroke: blue;
            stroke-dashoffset: 495;
            stroke-width: 128;
          }
          62% {
            animation-timing-function: step-end;
            stroke: blue;
            stroke-dashoffset: 0;
            stroke-width: 128;
          }
          to {
            stroke: black;
            stroke-width: 1024;
          }
        }
        #make-me-a-hanzi-animation-3 {
          animation: keyframes3 0.65283203125s both;
          animation-delay: 2.39794921875s;
          animation-timing-function: linear;
        }
      
        @keyframes keyframes4 {
          from {
            stroke: blue;
            stroke-dashoffset: 1029;
            stroke-width: 128;
          }
          77% {
            animation-timing-function: step-end;
            stroke: blue;
            stroke-dashoffset: 0;
            stroke-width: 128;
          }
          to {
            stroke: black;
            stroke-width: 1024;
          }
        }
        #make-me-a-hanzi-animation-4 {
          animation: keyframes4 1.08740234375s both;
          animation-delay: 3.05078125s;
          animation-timing-function: linear;
        }
      
        @keyframes keyframes5 {
          from {
            stroke: blue;
            stroke-dashoffset: 661;
            stroke-width: 128;
          }
          68% {
            animation-timing-function: step-end;
            stroke: blue;
            stroke-dashoffset: 0;
            stroke-width: 128;
          }
          to {
            stroke: black;
            stroke-width: 1024;
          }
        }
        #make-me-a-hanzi-animation-5 {
          animation: keyframes5 0.7879231770833334s both;
          animation-delay: 4.13818359375s;
          animation-timing-function: linear;
        }
      
        @keyframes keyframes6 {
          from {
            stroke: blue;
            stroke-dashoffset: 364;
            stroke-width: 128;
          }
          54% {
            animation-timing-function: step-end;
            stroke: blue;
            stroke-dashoffset: 0;
            stroke-width: 128;
          }
          to {
            stroke: black;
            stroke-width: 1024;
          }
        }
        #make-me-a-hanzi-animation-6 {
          animation: keyframes6 0.5462239583333334s both;
          animation-delay: 4.926106770833333s;
          animation-timing-function: linear;
        }
      
        @keyframes keyframes7 {
          from {
            stroke: blue;
            stroke-dashoffset: 771;
            stroke-width: 128;
          }
          72% {
            animation-timing-function: step-end;
            stroke: blue;
            stroke-dashoffset: 0;
            stroke-width: 128;
          }
          to {
            stroke: black;
            stroke-width: 1024;
          }
        }
        #make-me-a-hanzi-animation-7 {
          animation: keyframes7 0.87744140625s both;
          animation-delay: 5.472330729166666s;
          animation-timing-function: linear;
        }
      
        @keyframes keyframes8 {
          from {
            stroke: blue;
            stroke-dashoffset: 949;
            stroke-width: 128;
          }
          76% {
            animation-timing-function: step-end;
            stroke: blue;
            stroke-dashoffset: 0;
            stroke-width: 128;
          }
          to {
            stroke: black;
            stroke-width: 1024;
          }
        }
        #make-me-a-hanzi-animation-8 {
          animation: keyframes8 1.0222981770833333s both;
          animation-delay: 6.349772135416666s;
          animation-timing-function: linear;
        }
      
        @keyframes keyframes9 {
          from {
            stroke: blue;
            stroke-dashoffset: 364;
            stroke-width: 128;
          }
          54% {
            animation-timing-function: step-end;
            stroke: blue;
            stroke-dashoffset: 0;
            stroke-width: 128;
          }
          to {
            stroke: black;
            stroke-width: 1024;
          }
        }
        #make-me-a-hanzi-animation-9 {
          animation: keyframes9 0.5462239583333334s both;
          animation-delay: 7.372070312499999s;
          animation-timing-function: linear;
        }
      
        @keyframes keyframes10 {
          from {
            stroke: blue;
            stroke-dashoffset: 367;
            stroke-width: 128;
          }
          54% {
            animation-timing-function: step-end;
            stroke: blue;
            stroke-dashoffset: 0;
            stroke-width: 128;
          }
          to {
            stroke: black;
            stroke-width: 1024;
          }
        }
        #make-me-a-hanzi-animation-10 {
          animation: keyframes10 0.5486653645833334s both;
          animation-delay: 7.918294270833332s;
          animation-timing-function: linear;
        }
      
        @keyframes keyframes11 {
          from {
            stroke: blue;
            stroke-dashoffset: 379;
            stroke-width: 128;
          }
          55% {
            animation-timing-function: step-end;
            stroke: blue;
            stroke-dashoffset: 0;
            stroke-width: 128;
          }
          to {
            stroke: black;
            stroke-width: 1024;
          }
        }
        #make-me-a-hanzi-animation-11 {
          animation: keyframes11 0.5584309895833334s both;
          animation-delay: 8.466959635416666s;
          animation-timing-function: linear;
        }
      
    </style>
    
      <path d="M 288 396 Q 287 399 274 397 L 212 397 Q 179 396 196 416 Q 260 528 322 613 Q 335 631 333 638 Q 330 653 290 682 Q 274 695 256 691 Q 244 688 251 673 Q 258 657 254 630 Q 244 581 187 474 Q 169 438 131 403 Q 113 388 115 376 Q 119 357 135 340 Q 145 330 158 337 Q 174 349 232 367 Q 257 371 275 377 C 304 385 318 394 288 396 Z" fill="lightgray" />
    
      <path d="M 275 377 Q 176 239 157 228 Q 144 219 147 206 Q 148 193 174 176 Q 184 166 198 177 Q 258 222 356 259 Q 374 265 375 273 Q 376 283 359 279 Q 304 267 238 244 Q 214 234 229 255 Q 266 310 353 419 Q 378 455 402 476 Q 412 485 407 494 Q 397 513 365 529 Q 350 538 341 535 Q 331 532 334 517 Q 337 481 288 396 L 275 377 Z" fill="lightgray" />
    
      <path d="M 111 72 Q 101 68 101 60 Q 102 48 111 43 Q 133 34 165 24 Q 175 24 183 34 Q 205 62 314 146 Q 329 159 340 171 Q 349 180 348 188 Q 342 192 332 187 Q 155 82 111 72 Z" fill="lightgray" />
    
      <path d="M 534 424 Q 624 452 625 453 Q 632 460 628 469 Q 621 479 591 485 Q 563 489 535 475 L 495 460 Q 482 457 472 453 Q 436 443 394 437 Q 360 428 386 414 Q 431 393 483 410 L 534 424 Z" fill="lightgray" />
    
      <path d="M 533 318 Q 533 367 534 424 L 535 475 Q 535 559 552 615 Q 559 628 557 642 Q 551 651 500 681 Q 479 697 460 682 Q 456 678 461 664 Q 492 619 493 574 Q 493 520 495 460 L 492 306 Q 488 111 479 65 Q 457 -19 480 -66 Q 480 -69 482 -72 Q 488 -88 496 -91 Q 502 -97 508 -90 Q 515 -86 524 -66 Q 533 -44 532 -15 Q 531 22 533 291 L 533 318 Z" fill="lightgray" />
    
      <path d="M 483 410 Q 447 281 301 51 Q 297 41 307 42 Q 331 42 428 186 Q 462 238 492 306 C 553 443 491 439 483 410 Z" fill="lightgray" />
    
      <path d="M 533 291 Q 599 228 610 228 L 611 228 Q 618 228 622 237 Q 625 247 620 267 Q 613 294 539 317 Q 536 318 533 318 C 503 321 511 312 533 291 Z" fill="lightgray" />
    
      <path d="M 698 492 Q 689 507 659 517 Q 650 521 640 517 Q 633 513 638 501 Q 662 441 663 322 Q 663 166 646 91 Q 633 40 667 1 Q 677 -12 686 0 Q 696 15 697 41 L 699 75 Q 699 87 700 209 L 700 236 L 700 317 L 701 345 Q 701 405 703 464 L 698 492 Z" fill="lightgray" />
    
      <path d="M 809 57 Q 837 23 857 -9 Q 866 -25 877 -25 Q 892 -24 906 9 Q 922 46 918 90 Q 882 450 908 486 Q 915 496 907 506 Q 891 522 843 542 Q 827 549 781 523 Q 727 507 698 492 C 671 479 674 457 703 464 Q 724 468 811 497 Q 824 501 831 497 Q 867 466 850 99 Q 849 96 849 91 Q 845 75 829 79 C 802 66 802 66 809 57 Z" fill="lightgray" />
    
      <path d="M 700 317 L 704 317 Q 759 327 800 332 Q 822 336 813 349 Q 803 362 778 365 Q 739 368 701 345 C 675 330 670 317 700 317 Z" fill="lightgray" />
    
      <path d="M 700 209 L 704 209 Q 762 219 804 224 Q 826 228 817 241 Q 807 254 783 257 Q 737 260 700 236 C 675 220 670 209 700 209 Z" fill="lightgray" />
    
      <path d="M 697 41 Q 697 42 700 42 Q 734 51 809 57 C 839 59 853 61 829 79 Q 820 86 807 94 Q 792 101 764 93 Q 730 83 699 75 C 670 67 668 32 697 41 Z" fill="lightgray" />
    
    
      <clipPath id="make-me-a-hanzi-clip-0">
        <path d="M 288 396 Q 287 399 274 397 L 212 397 Q 179 396 196 416 Q 260 528 322 613 Q 335 631 333 638 Q 330 653 290 682 Q 274 695 256 691 Q 244 688 251 673 Q 258 657 254 630 Q 244 581 187 474 Q 169 438 131 403 Q 113 388 115 376 Q 119 357 135 340 Q 145 330 158 337 Q 174 349 232 367 Q 257 371 275 377 C 304 385 318 394 288 396 Z" />
      </clipPath>
      <path clip-path="url(#make-me-a-hanzi-clip-0)" d="M 258 681 L 283 654 L 290 628 L 242 533 L 166 404 L 161 381 L 216 378 L 271 387 L 281 394" fill="none" id="make-me-a-hanzi-animation-0" stroke-dasharray="594 1188" stroke-linecap="round" />
    
      <clipPath id="make-me-a-hanzi-clip-1">
        <path d="M 275 377 Q 176 239 157 228 Q 144 219 147 206 Q 148 193 174 176 Q 184 166 198 177 Q 258 222 356 259 Q 374 265 375 273 Q 376 283 359 279 Q 304 267 238 244 Q 214 234 229 255 Q 266 310 353 419 Q 378 455 402 476 Q 412 485 407 494 Q 397 513 365 529 Q 350 538 341 535 Q 331 532 334 517 Q 337 481 288 396 L 275 377 Z" />
      </clipPath>
      <path clip-path="url(#make-me-a-hanzi-clip-1)" d="M 346 523 L 366 489 L 319 407 L 214 267 L 206 226 L 240 225 L 367 273" fill="none" id="make-me-a-hanzi-animation-1" stroke-dasharray="649 1298" stroke-linecap="round" />
    
      <clipPath id="make-me-a-hanzi-clip-2">
        <path d="M 111 72 Q 101 68 101 60 Q 102 48 111 43 Q 133 34 165 24 Q 175 24 183 34 Q 205 62 314 146 Q 329 159 340 171 Q 349 180 348 188 Q 342 192 332 187 Q 155 82 111 72 Z" />
      </clipPath>
      <path clip-path="url(#make-me-a-hanzi-clip-2)" d="M 115 59 L 147 57 L 169 63 L 278 135 L 286 146 L 298 148 L 305 159 L 343 185" fill="none" id="make-me-a-hanzi-animation-2" stroke-dasharray="398 796" stroke-linecap="round" />
    
      <clipPath id="make-me-a-hanzi-clip-3">
        <path d="M 534 424 Q 624 452 625 453 Q 632 460 628 469 Q 621 479 591 485 Q 563 489 535 475 L 495 460 Q 482 457 472 453 Q 436 443 394 437 Q 360 428 386 414 Q 431 393 483 410 L 534 424 Z" />
      </clipPath>
      <path clip-path="url(#make-me-a-hanzi-clip-3)" d="M 387 426 L 445 424 L 572 462 L 620 461" fill="none" id="make-me-a-hanzi-animation-3" stroke-dasharray="367 734" stroke-linecap="round" />
    
      <clipPath id="make-me-a-hanzi-clip-4">
        <path d="M 533 318 Q 533 367 534 424 L 535 475 Q 535 559 552 615 Q 559 628 557 642 Q 551 651 500 681 Q 479 697 460 682 Q 456 678 461 664 Q 492 619 493 574 Q 493 520 495 460 L 492 306 Q 488 111 479 65 Q 457 -19 480 -66 Q 480 -69 482 -72 Q 488 -88 496 -91 Q 502 -97 508 -90 Q 515 -86 524 -66 Q 533 -44 532 -15 Q 531 22 533 291 L 533 318 Z" />
      </clipPath>
      <path clip-path="url(#make-me-a-hanzi-clip-4)" d="M 471 675 L 519 628 L 512 182 L 500 17 L 501 -77" fill="none" id="make-me-a-hanzi-animation-4" stroke-dasharray="901 1802" stroke-linecap="round" />
    
      <clipPath id="make-me-a-hanzi-clip-5">
        <path d="M 483 410 Q 447 281 301 51 Q 297 41 307 42 Q 331 42 428 186 Q 462 238 492 306 C 553 443 491 439 483 410 Z" />
      </clipPath>
      <path clip-path="url(#make-me-a-hanzi-clip-5)" d="M 490 405 L 471 314 L 449 265 L 379 141 L 308 49" fill="none" id="make-me-a-hanzi-animation-5" stroke-dasharray="533 1066" stroke-linecap="round" />
    
      <clipPath id="make-me-a-hanzi-clip-6">
        <path d="M 533 291 Q 599 228 610 228 L 611 228 Q 618 228 622 237 Q 625 247 620 267 Q 613 294 539 317 Q 536 318 533 318 C 503 321 511 312 533 291 Z" />
      </clipPath>
      <path clip-path="url(#make-me-a-hanzi-clip-6)" d="M 535 311 L 595 265 L 611 237" fill="none" id="make-me-a-hanzi-animation-6" stroke-dasharray="236 472" stroke-linecap="round" />
    
      <clipPath id="make-me-a-hanzi-clip-7">
        <path d="M 698 492 Q 689 507 659 517 Q 650 521 640 517 Q 633 513 638 501 Q 662 441 663 322 Q 663 166 646 91 Q 633 40 667 1 Q 677 -12 686 0 Q 696 15 697 41 L 699 75 Q 699 87 700 209 L 700 236 L 700 317 L 701 345 Q 701 405 703 464 L 698 492 Z" />
      </clipPath>
      <path clip-path="url(#make-me-a-hanzi-clip-7)" d="M 647 508 L 673 480 L 681 413 L 682 196 L 670 66 L 677 5" fill="none" id="make-me-a-hanzi-animation-7" stroke-dasharray="643 1286" stroke-linecap="round" />
    
      <clipPath id="make-me-a-hanzi-clip-8">
        <path d="M 809 57 Q 837 23 857 -9 Q 866 -25 877 -25 Q 892 -24 906 9 Q 922 46 918 90 Q 882 450 908 486 Q 915 496 907 506 Q 891 522 843 542 Q 827 549 781 523 Q 727 507 698 492 C 671 479 674 457 703 464 Q 724 468 811 497 Q 824 501 831 497 Q 867 466 850 99 Q 849 96 849 91 Q 845 75 829 79 C 802 66 802 66 809 57 Z" />
      </clipPath>
      <path clip-path="url(#make-me-a-hanzi-clip-8)" d="M 705 472 L 715 483 L 825 521 L 843 518 L 873 490 L 885 101 L 872 48 L 877 -10" fill="none" id="make-me-a-hanzi-animation-8" stroke-dasharray="821 1642" stroke-linecap="round" />
    
      <clipPath id="make-me-a-hanzi-clip-9">
        <path d="M 700 317 L 704 317 Q 759 327 800 332 Q 822 336 813 349 Q 803 362 778 365 Q 739 368 701 345 C 675 330 670 317 700 317 Z" />
      </clipPath>
      <path clip-path="url(#make-me-a-hanzi-clip-9)" d="M 702 324 L 716 336 L 744 344 L 779 347 L 804 342" fill="none" id="make-me-a-hanzi-animation-9" stroke-dasharray="236 472" stroke-linecap="round" />
    
      <clipPath id="make-me-a-hanzi-clip-10">
        <path d="M 700 209 L 704 209 Q 762 219 804 224 Q 826 228 817 241 Q 807 254 783 257 Q 737 260 700 236 C 675 220 670 209 700 209 Z" />
      </clipPath>
      <path clip-path="url(#make-me-a-hanzi-clip-10)" d="M 702 216 L 738 234 L 775 240 L 808 234" fill="none" id="make-me-a-hanzi-animation-10" stroke-dasharray="239 478" stroke-linecap="round" />
    
      <clipPath id="make-me-a-hanzi-clip-11">
        <path d="M 697 41 Q 697 42 700 42 Q 734 51 809 57 C 839 59 853 61 829 79 Q 820 86 807 94 Q 792 101 764 93 Q 730 83 699 75 C 670 67 668 32 697 41 Z" />
      </clipPath>
      <path clip-path="url(#make-me-a-hanzi-clip-11)" d="M 704 48 L 722 64 L 789 77 L 820 77" fill="none" id="make-me-a-hanzi-animation-11" stroke-dasharray="251 502" stroke-linecap="round" />
    
  </g>
</svg>