<svg xmlns="http://www.w3.org/2000/svg" version="1.1" viewBox="0 0 1024 1024">
  <g stroke="lightgray" stroke-dasharray="1,1" stroke-width="1" transform="scale(4, 4)">
    <line x1="0" y1="0" x2="256" y2="256" />
    <line x1="256" y1="0" x2="0" y2="256" />
    <line x1="128" y1="0" x2="128" y2="256" />
    <line x1="0" y1="128" x2="256" y2="128" />
  </g>
  <g transform="scale(1.0, -1.0) translate(0.0, -835.00)">
    <style type="text/css">
      
        @keyframes keyframes0 {
          from {
            stroke: blue;
            stroke-dashoffset: 720;
            stroke-width: 128;
          }
          70% {
            animation-timing-function: step-end;
            stroke: blue;
            stroke-dashoffset: 0;
            stroke-width: 128;
          }
          to {
            stroke: black;
            stroke-width: 1024;
          }
        }
        #make-me-a-hanzi-animation-0 {
          animation: keyframes0 0.8359375s both;
          animation-delay: 0s;
          animation-timing-function: linear;
        }
      
        @keyframes keyframes1 {
          from {
            stroke: blue;
            stroke-dashoffset: 720;
            stroke-width: 128;
          }
          70% {
            animation-timing-function: step-end;
            stroke: blue;
            stroke-dashoffset: 0;
            stroke-width: 128;
          }
          to {
            stroke: black;
            stroke-width: 1024;
          }
        }
        #make-me-a-hanzi-animation-1 {
          animation: keyframes1 0.8359375s both;
          animation-delay: 0.8359375s;
          animation-timing-function: linear;
        }
      
        @keyframes keyframes2 {
          from {
            stroke: blue;
            stroke-dashoffset: 536;
            stroke-width: 128;
          }
          64% {
            animation-timing-function: step-end;
            stroke: blue;
            stroke-dashoffset: 0;
            stroke-width: 128;
          }
          to {
            stroke: black;
            stroke-width: 1024;
          }
        }
        #make-me-a-hanzi-animation-2 {
          animation: keyframes2 0.6861979166666666s both;
          animation-delay: 1.671875s;
          animation-timing-function: linear;
        }
      
        @keyframes keyframes3 {
          from {
            stroke: blue;
            stroke-dashoffset: 698;
            stroke-width: 128;
          }
          69% {
            animation-timing-function: step-end;
            stroke: blue;
            stroke-dashoffset: 0;
            stroke-width: 128;
          }
          to {
            stroke: black;
            stroke-width: 1024;
          }
        }
        #make-me-a-hanzi-animation-3 {
          animation: keyframes3 0.8180338541666666s both;
          animation-delay: 2.3580729166666665s;
          animation-timing-function: linear;
        }
      
        @keyframes keyframes4 {
          from {
            stroke: blue;
            stroke-dashoffset: 796;
            stroke-width: 128;
          }
          72% {
            animation-timing-function: step-end;
            stroke: blue;
            stroke-dashoffset: 0;
            stroke-width: 128;
          }
          to {
            stroke: black;
            stroke-width: 1024;
          }
        }
        #make-me-a-hanzi-animation-4 {
          animation: keyframes4 0.8977864583333334s both;
          animation-delay: 3.176106770833333s;
          animation-timing-function: linear;
        }
      
        @keyframes keyframes5 {
          from {
            stroke: blue;
            stroke-dashoffset: 331;
            stroke-width: 128;
          }
          52% {
            animation-timing-function: step-end;
            stroke: blue;
            stroke-dashoffset: 0;
            stroke-width: 128;
          }
          to {
            stroke: black;
            stroke-width: 1024;
          }
        }
        #make-me-a-hanzi-animation-5 {
          animation: keyframes5 0.5193684895833334s both;
          animation-delay: 4.073893229166666s;
          animation-timing-function: linear;
        }
      
        @keyframes keyframes6 {
          from {
            stroke: blue;
            stroke-dashoffset: 328;
            stroke-width: 128;
          }
          52% {
            animation-timing-function: step-end;
            stroke: blue;
            stroke-dashoffset: 0;
            stroke-width: 128;
          }
          to {
            stroke: black;
            stroke-width: 1024;
          }
        }
        #make-me-a-hanzi-animation-6 {
          animation: keyframes6 0.5169270833333334s both;
          animation-delay: 4.593261718749999s;
          animation-timing-function: linear;
        }
      
        @keyframes keyframes7 {
          from {
            stroke: blue;
            stroke-dashoffset: 338;
            stroke-width: 128;
          }
          52% {
            animation-timing-function: step-end;
            stroke: blue;
            stroke-dashoffset: 0;
            stroke-width: 128;
          }
          to {
            stroke: black;
            stroke-width: 1024;
          }
        }
        #make-me-a-hanzi-animation-7 {
          animation: keyframes7 0.5250651041666666s both;
          animation-delay: 5.110188802083332s;
          animation-timing-function: linear;
        }
      
        @keyframes keyframes8 {
          from {
            stroke: blue;
            stroke-dashoffset: 690;
            stroke-width: 128;
          }
          69% {
            animation-timing-function: step-end;
            stroke: blue;
            stroke-dashoffset: 0;
            stroke-width: 128;
          }
          to {
            stroke: black;
            stroke-width: 1024;
          }
        }
        #make-me-a-hanzi-animation-8 {
          animation: keyframes8 0.8115234375s both;
          animation-delay: 5.635253906249999s;
          animation-timing-function: linear;
        }
      
        @keyframes keyframes9 {
          from {
            stroke: blue;
            stroke-dashoffset: 386;
            stroke-width: 128;
          }
          56% {
            animation-timing-function: step-end;
            stroke: blue;
            stroke-dashoffset: 0;
            stroke-width: 128;
          }
          to {
            stroke: black;
            stroke-width: 1024;
          }
        }
        #make-me-a-hanzi-animation-9 {
          animation: keyframes9 0.5641276041666666s both;
          animation-delay: 6.446777343749999s;
          animation-timing-function: linear;
        }
      
        @keyframes keyframes10 {
          from {
            stroke: blue;
            stroke-dashoffset: 434;
            stroke-width: 128;
          }
          59% {
            animation-timing-function: step-end;
            stroke: blue;
            stroke-dashoffset: 0;
            stroke-width: 128;
          }
          to {
            stroke: black;
            stroke-width: 1024;
          }
        }
        #make-me-a-hanzi-animation-10 {
          animation: keyframes10 0.6031901041666666s both;
          animation-delay: 7.010904947916666s;
          animation-timing-function: linear;
        }
      
        @keyframes keyframes11 {
          from {
            stroke: blue;
            stroke-dashoffset: 861;
            stroke-width: 128;
          }
          74% {
            animation-timing-function: step-end;
            stroke: blue;
            stroke-dashoffset: 0;
            stroke-width: 128;
          }
          to {
            stroke: black;
            stroke-width: 1024;
          }
        }
        #make-me-a-hanzi-animation-11 {
          animation: keyframes11 0.95068359375s both;
          animation-delay: 7.614095052083333s;
          animation-timing-function: linear;
        }
      
    </style>
    
      <path d="M 270 409 Q 231 410 199 410 Q 162 409 181 432 Q 242 550 303 640 Q 316 656 312 664 Q 309 677 271 705 Q 255 718 237 713 Q 227 709 233 695 Q 255 641 160 467 Q 145 443 119 417 Q 103 404 104 392 Q 108 374 122 357 Q 132 347 144 354 Q 174 372 255 384 C 285 389 300 408 270 409 Z" fill="lightgray" />
    
      <path d="M 255 384 Q 168 260 148 248 Q 136 238 139 226 Q 140 213 166 196 Q 176 186 190 197 Q 244 240 332 275 Q 350 281 351 289 Q 352 299 335 295 Q 287 285 229 265 Q 207 255 220 276 Q 250 319 321 407 Q 346 443 370 464 Q 382 474 375 483 Q 365 501 333 517 Q 317 526 309 523 Q 299 519 302 505 Q 303 475 270 409 L 255 384 Z" fill="lightgray" />
    
      <path d="M 94 73 Q 82 69 82 60 Q 82 47 92 41 Q 116 29 149 16 Q 159 15 170 24 Q 194 51 310 131 Q 326 141 338 155 Q 350 164 349 172 Q 342 176 331 173 Q 133 77 94 73 Z" fill="lightgray" />
    
      <path d="M 420 571 Q 410 581 389 590 Q 380 594 371 590 Q 365 586 370 576 Q 371 567 375 558 Q 399 515 382 293 Q 367 197 367 193 Q 367 174 388 149 Q 397 137 405 148 Q 414 161 415 175 L 419 208 Q 420 224 420 247 Q 420 278 421 307 L 421 335 Q 422 375 423 407 L 424 436 Q 424 536 429 547 C 432 562 432 562 420 571 Z" fill="lightgray" />
    
      <path d="M 499 188 L 517 161 Q 530 142 537 144 Q 547 145 558 174 Q 570 205 566 244 Q 545 521 567 563 Q 576 578 568 586 Q 561 595 520 605 Q 499 612 485 602 Q 451 583 420 571 C 392 560 401 536 429 547 Q 433 548 440 551 Q 494 575 504 569 Q 516 557 516 514 Q 520 333 514 232 Q 517 213 500 215 Q 494 216 494 214 C 483 212 483 212 499 188 Z" fill="lightgray" />
    
      <path d="M 423 407 Q 463 417 495 423 Q 514 427 506 438 Q 496 448 474 450 Q 455 450 424 436 C 397 424 394 400 423 407 Z" fill="lightgray" />
    
      <path d="M 421 307 L 491 319 Q 510 323 501 334 Q 491 344 470 347 Q 451 347 421 335 C 393 324 391 302 421 307 Z" fill="lightgray" />
    
      <path d="M 415 175 Q 448 184 499 188 C 522 190 517 195 494 214 Q 491 217 485 220 Q 470 227 419 208 C 391 198 386 167 415 175 Z" fill="lightgray" />
    
      <path d="M 691 344 Q 682 314 703 268 Q 709 255 714 253 Q 718 249 725 254 Q 746 270 744 315 Q 743 339 744 560 Q 743 605 752 636 Q 758 648 756 658 Q 750 665 708 690 Q 690 702 675 690 Q 671 686 677 675 Q 692 654 699 473 Q 699 382 691 344 Z" fill="lightgray" />
    
      <path d="M 613 474 Q 600 432 581 394 Q 569 367 586 341 Q 593 328 609 340 Q 642 370 639 431 Q 639 458 631 476 Q 627 482 622 483 Q 615 482 613 474 Z" fill="lightgray" />
    
      <path d="M 828 464 L 924 396 Q 937 386 952 387 Q 962 388 965 400 Q 968 413 958 440 Q 949 467 908 485 Q 866 498 820 508 Q 805 509 800 507 Q 796 503 798 491 Q 802 481 828 464 Z" fill="lightgray" />
    
      <path d="M 784 376 Q 785 229 636 84 Q 545 6 453 -57 Q 444 -64 451 -68 Q 458 -72 472 -68 Q 628 -17 722 98 L 815 241 Q 830 275 865 326 Q 875 336 870 348 Q 864 360 832 382 Q 810 397 799 396 Q 784 393 784 376 Z" fill="lightgray" />
    
    
      <clipPath id="make-me-a-hanzi-clip-0">
        <path d="M 270 409 Q 231 410 199 410 Q 162 409 181 432 Q 242 550 303 640 Q 316 656 312 664 Q 309 677 271 705 Q 255 718 237 713 Q 227 709 233 695 Q 255 641 160 467 Q 145 443 119 417 Q 103 404 104 392 Q 108 374 122 357 Q 132 347 144 354 Q 174 372 255 384 C 285 389 300 408 270 409 Z" />
      </clipPath>
      <path clip-path="url(#make-me-a-hanzi-clip-0)" d="M 242 702 L 264 679 L 271 653 L 229 559 L 151 417 L 147 395 L 243 394 L 262 405" fill="none" id="make-me-a-hanzi-animation-0" stroke-dasharray="592 1184" stroke-linecap="round" />
    
      <clipPath id="make-me-a-hanzi-clip-1">
        <path d="M 255 384 Q 168 260 148 248 Q 136 238 139 226 Q 140 213 166 196 Q 176 186 190 197 Q 244 240 332 275 Q 350 281 351 289 Q 352 299 335 295 Q 287 285 229 265 Q 207 255 220 276 Q 250 319 321 407 Q 346 443 370 464 Q 382 474 375 483 Q 365 501 333 517 Q 317 526 309 523 Q 299 519 302 505 Q 303 475 270 409 L 255 384 Z" />
      </clipPath>
      <path clip-path="url(#make-me-a-hanzi-clip-1)" d="M 314 511 L 334 477 L 287 396 L 208 291 L 200 277 L 198 247 L 231 246 L 343 289" fill="none" id="make-me-a-hanzi-animation-1" stroke-dasharray="592 1184" stroke-linecap="round" />
    
      <clipPath id="make-me-a-hanzi-clip-2">
        <path d="M 94 73 Q 82 69 82 60 Q 82 47 92 41 Q 116 29 149 16 Q 159 15 170 24 Q 194 51 310 131 Q 326 141 338 155 Q 350 164 349 172 Q 342 176 331 173 Q 133 77 94 73 Z" />
      </clipPath>
      <path clip-path="url(#make-me-a-hanzi-clip-2)" d="M 96 59 L 148 53 L 344 169" fill="none" id="make-me-a-hanzi-animation-2" stroke-dasharray="408 816" stroke-linecap="round" />
    
      <clipPath id="make-me-a-hanzi-clip-3">
        <path d="M 420 571 Q 410 581 389 590 Q 380 594 371 590 Q 365 586 370 576 Q 371 567 375 558 Q 399 515 382 293 Q 367 197 367 193 Q 367 174 388 149 Q 397 137 405 148 Q 414 161 415 175 L 419 208 Q 420 224 420 247 Q 420 278 421 307 L 421 335 Q 422 375 423 407 L 424 436 Q 424 536 429 547 C 432 562 432 562 420 571 Z" />
      </clipPath>
      <path clip-path="url(#make-me-a-hanzi-clip-3)" d="M 377 583 L 401 557 L 406 529 L 409 449 L 392 196 L 397 152" fill="none" id="make-me-a-hanzi-animation-3" stroke-dasharray="570 1140" stroke-linecap="round" />
    
      <clipPath id="make-me-a-hanzi-clip-4">
        <path d="M 499 188 L 517 161 Q 530 142 537 144 Q 547 145 558 174 Q 570 205 566 244 Q 545 521 567 563 Q 576 578 568 586 Q 561 595 520 605 Q 499 612 485 602 Q 451 583 420 571 C 392 560 401 536 429 547 Q 433 548 440 551 Q 494 575 504 569 Q 516 557 516 514 Q 520 333 514 232 Q 517 213 500 215 Q 494 216 494 214 C 483 212 483 212 499 188 Z" />
      </clipPath>
      <path clip-path="url(#make-me-a-hanzi-clip-4)" d="M 432 555 L 437 564 L 498 589 L 524 582 L 538 570 L 535 447 L 542 256 L 539 210 L 532 194 L 536 154" fill="none" id="make-me-a-hanzi-animation-4" stroke-dasharray="668 1336" stroke-linecap="round" />
    
      <clipPath id="make-me-a-hanzi-clip-5">
        <path d="M 423 407 Q 463 417 495 423 Q 514 427 506 438 Q 496 448 474 450 Q 455 450 424 436 C 397 424 394 400 423 407 Z" />
      </clipPath>
      <path clip-path="url(#make-me-a-hanzi-clip-5)" d="M 430 414 L 438 426 L 450 430 L 498 432" fill="none" id="make-me-a-hanzi-animation-5" stroke-dasharray="203 406" stroke-linecap="round" />
    
      <clipPath id="make-me-a-hanzi-clip-6">
        <path d="M 421 307 L 491 319 Q 510 323 501 334 Q 491 344 470 347 Q 451 347 421 335 C 393 324 391 302 421 307 Z" />
      </clipPath>
      <path clip-path="url(#make-me-a-hanzi-clip-6)" d="M 427 314 L 446 328 L 494 328" fill="none" id="make-me-a-hanzi-animation-6" stroke-dasharray="200 400" stroke-linecap="round" />
    
      <clipPath id="make-me-a-hanzi-clip-7">
        <path d="M 415 175 Q 448 184 499 188 C 522 190 517 195 494 214 Q 491 217 485 220 Q 470 227 419 208 C 391 198 386 167 415 175 Z" />
      </clipPath>
      <path clip-path="url(#make-me-a-hanzi-clip-7)" d="M 420 180 L 435 197 L 450 201 L 477 204 L 490 193" fill="none" id="make-me-a-hanzi-animation-7" stroke-dasharray="210 420" stroke-linecap="round" />
    
      <clipPath id="make-me-a-hanzi-clip-8">
        <path d="M 691 344 Q 682 314 703 268 Q 709 255 714 253 Q 718 249 725 254 Q 746 270 744 315 Q 743 339 744 560 Q 743 605 752 636 Q 758 648 756 658 Q 750 665 708 690 Q 690 702 675 690 Q 671 686 677 675 Q 692 654 699 473 Q 699 382 691 344 Z" />
      </clipPath>
      <path clip-path="url(#make-me-a-hanzi-clip-8)" d="M 685 684 L 720 644 L 719 263" fill="none" id="make-me-a-hanzi-animation-8" stroke-dasharray="562 1124" stroke-linecap="round" />
    
      <clipPath id="make-me-a-hanzi-clip-9">
        <path d="M 613 474 Q 600 432 581 394 Q 569 367 586 341 Q 593 328 609 340 Q 642 370 639 431 Q 639 458 631 476 Q 627 482 622 483 Q 615 482 613 474 Z" />
      </clipPath>
      <path clip-path="url(#make-me-a-hanzi-clip-9)" d="M 622 474 L 621 439 L 598 347" fill="none" id="make-me-a-hanzi-animation-9" stroke-dasharray="258 516" stroke-linecap="round" />
    
      <clipPath id="make-me-a-hanzi-clip-10">
        <path d="M 828 464 L 924 396 Q 937 386 952 387 Q 962 388 965 400 Q 968 413 958 440 Q 949 467 908 485 Q 866 498 820 508 Q 805 509 800 507 Q 796 503 798 491 Q 802 481 828 464 Z" />
      </clipPath>
      <path clip-path="url(#make-me-a-hanzi-clip-10)" d="M 805 501 L 919 440 L 950 402" fill="none" id="make-me-a-hanzi-animation-10" stroke-dasharray="306 612" stroke-linecap="round" />
    
      <clipPath id="make-me-a-hanzi-clip-11">
        <path d="M 784 376 Q 785 229 636 84 Q 545 6 453 -57 Q 444 -64 451 -68 Q 458 -72 472 -68 Q 628 -17 722 98 L 815 241 Q 830 275 865 326 Q 875 336 870 348 Q 864 360 832 382 Q 810 397 799 396 Q 784 393 784 376 Z" />
      </clipPath>
      <path clip-path="url(#make-me-a-hanzi-clip-11)" d="M 801 379 L 819 349 L 819 326 L 773 222 L 705 119 L 656 66 L 597 19 L 532 -24 L 457 -63" fill="none" id="make-me-a-hanzi-animation-11" stroke-dasharray="733 1466" stroke-linecap="round" />
    
  </g>
</svg>