<svg xmlns="http://www.w3.org/2000/svg" version="1.1" viewBox="0 0 1024 1024">
  <g stroke="lightgray" stroke-dasharray="1,1" stroke-width="1" transform="scale(4, 4)">
    <line x1="0" y1="0" x2="256" y2="256" />
    <line x1="256" y1="0" x2="0" y2="256" />
    <line x1="128" y1="0" x2="128" y2="256" />
    <line x1="0" y1="128" x2="256" y2="128" />
  </g>
  <g transform="scale(1.0, -1.0) translate(0.0, -819.00)">
    <style type="text/css">
      
        @keyframes keyframes0 {
          from {
            stroke: blue;
            stroke-dashoffset: 734;
            stroke-width: 128;
          }
          70% {
            animation-timing-function: step-end;
            stroke: blue;
            stroke-dashoffset: 0;
            stroke-width: 128;
          }
          to {
            stroke: black;
            stroke-width: 1024;
          }
        }
        #make-me-a-hanzi-animation-0 {
          animation: keyframes0 0.8473307291666666s both;
          animation-delay: 0s;
          animation-timing-function: linear;
        }
      
        @keyframes keyframes1 {
          from {
            stroke: blue;
            stroke-dashoffset: 809;
            stroke-width: 128;
          }
          72% {
            animation-timing-function: step-end;
            stroke: blue;
            stroke-dashoffset: 0;
            stroke-width: 128;
          }
          to {
            stroke: black;
            stroke-width: 1024;
          }
        }
        #make-me-a-hanzi-animation-1 {
          animation: keyframes1 0.9083658854166666s both;
          animation-delay: 0.8473307291666666s;
          animation-timing-function: linear;
        }
      
        @keyframes keyframes2 {
          from {
            stroke: blue;
            stroke-dashoffset: 564;
            stroke-width: 128;
          }
          65% {
            animation-timing-function: step-end;
            stroke: blue;
            stroke-dashoffset: 0;
            stroke-width: 128;
          }
          to {
            stroke: black;
            stroke-width: 1024;
          }
        }
        #make-me-a-hanzi-animation-2 {
          animation: keyframes2 0.708984375s both;
          animation-delay: 1.7556966145833333s;
          animation-timing-function: linear;
        }
      
        @keyframes keyframes3 {
          from {
            stroke: blue;
            stroke-dashoffset: 561;
            stroke-width: 128;
          }
          65% {
            animation-timing-function: step-end;
            stroke: blue;
            stroke-dashoffset: 0;
            stroke-width: 128;
          }
          to {
            stroke: black;
            stroke-width: 1024;
          }
        }
        #make-me-a-hanzi-animation-3 {
          animation: keyframes3 0.70654296875s both;
          animation-delay: 2.464680989583333s;
          animation-timing-function: linear;
        }
      
        @keyframes keyframes4 {
          from {
            stroke: blue;
            stroke-dashoffset: 454;
            stroke-width: 128;
          }
          60% {
            animation-timing-function: step-end;
            stroke: blue;
            stroke-dashoffset: 0;
            stroke-width: 128;
          }
          to {
            stroke: black;
            stroke-width: 1024;
          }
        }
        #make-me-a-hanzi-animation-4 {
          animation: keyframes4 0.6194661458333334s both;
          animation-delay: 3.171223958333333s;
          animation-timing-function: linear;
        }
      
        @keyframes keyframes5 {
          from {
            stroke: blue;
            stroke-dashoffset: 764;
            stroke-width: 128;
          }
          71% {
            animation-timing-function: step-end;
            stroke: blue;
            stroke-dashoffset: 0;
            stroke-width: 128;
          }
          to {
            stroke: black;
            stroke-width: 1024;
          }
        }
        #make-me-a-hanzi-animation-5 {
          animation: keyframes5 0.8717447916666666s both;
          animation-delay: 3.7906901041666665s;
          animation-timing-function: linear;
        }
      
        @keyframes keyframes6 {
          from {
            stroke: blue;
            stroke-dashoffset: 493;
            stroke-width: 128;
          }
          62% {
            animation-timing-function: step-end;
            stroke: blue;
            stroke-dashoffset: 0;
            stroke-width: 128;
          }
          to {
            stroke: black;
            stroke-width: 1024;
          }
        }
        #make-me-a-hanzi-animation-6 {
          animation: keyframes6 0.6512044270833334s both;
          animation-delay: 4.662434895833333s;
          animation-timing-function: linear;
        }
      
        @keyframes keyframes7 {
          from {
            stroke: blue;
            stroke-dashoffset: 497;
            stroke-width: 128;
          }
          62% {
            animation-timing-function: step-end;
            stroke: blue;
            stroke-dashoffset: 0;
            stroke-width: 128;
          }
          to {
            stroke: black;
            stroke-width: 1024;
          }
        }
        #make-me-a-hanzi-animation-7 {
          animation: keyframes7 0.6544596354166666s both;
          animation-delay: 5.313639322916666s;
          animation-timing-function: linear;
        }
      
        @keyframes keyframes8 {
          from {
            stroke: blue;
            stroke-dashoffset: 497;
            stroke-width: 128;
          }
          62% {
            animation-timing-function: step-end;
            stroke: blue;
            stroke-dashoffset: 0;
            stroke-width: 128;
          }
          to {
            stroke: black;
            stroke-width: 1024;
          }
        }
        #make-me-a-hanzi-animation-8 {
          animation: keyframes8 0.6544596354166666s both;
          animation-delay: 5.968098958333333s;
          animation-timing-function: linear;
        }
      
        @keyframes keyframes9 {
          from {
            stroke: blue;
            stroke-dashoffset: 483;
            stroke-width: 128;
          }
          61% {
            animation-timing-function: step-end;
            stroke: blue;
            stroke-dashoffset: 0;
            stroke-width: 128;
          }
          to {
            stroke: black;
            stroke-width: 1024;
          }
        }
        #make-me-a-hanzi-animation-9 {
          animation: keyframes9 0.64306640625s both;
          animation-delay: 6.62255859375s;
          animation-timing-function: linear;
        }
      
        @keyframes keyframes10 {
          from {
            stroke: blue;
            stroke-dashoffset: 737;
            stroke-width: 128;
          }
          71% {
            animation-timing-function: step-end;
            stroke: blue;
            stroke-dashoffset: 0;
            stroke-width: 128;
          }
          to {
            stroke: black;
            stroke-width: 1024;
          }
        }
        #make-me-a-hanzi-animation-10 {
          animation: keyframes10 0.8497721354166666s both;
          animation-delay: 7.265625s;
          animation-timing-function: linear;
        }
      
        @keyframes keyframes11 {
          from {
            stroke: blue;
            stroke-dashoffset: 626;
            stroke-width: 128;
          }
          67% {
            animation-timing-function: step-end;
            stroke: blue;
            stroke-dashoffset: 0;
            stroke-width: 128;
          }
          to {
            stroke: black;
            stroke-width: 1024;
          }
        }
        #make-me-a-hanzi-animation-11 {
          animation: keyframes11 0.7594401041666666s both;
          animation-delay: 8.115397135416666s;
          animation-timing-function: linear;
        }
      
        @keyframes keyframes12 {
          from {
            stroke: blue;
            stroke-dashoffset: 400;
            stroke-width: 128;
          }
          57% {
            animation-timing-function: step-end;
            stroke: blue;
            stroke-dashoffset: 0;
            stroke-width: 128;
          }
          to {
            stroke: black;
            stroke-width: 1024;
          }
        }
        #make-me-a-hanzi-animation-12 {
          animation: keyframes12 0.5755208333333334s both;
          animation-delay: 8.874837239583332s;
          animation-timing-function: linear;
        }
      
        @keyframes keyframes13 {
          from {
            stroke: blue;
            stroke-dashoffset: 449;
            stroke-width: 128;
          }
          59% {
            animation-timing-function: step-end;
            stroke: blue;
            stroke-dashoffset: 0;
            stroke-width: 128;
          }
          to {
            stroke: black;
            stroke-width: 1024;
          }
        }
        #make-me-a-hanzi-animation-13 {
          animation: keyframes13 0.6153971354166666s both;
          animation-delay: 9.450358072916666s;
          animation-timing-function: linear;
        }
      
    </style>
    
      <path d="M 305 413 Q 304 414 302 413 Q 257 414 221 415 Q 184 414 204 437 Q 268 552 330 637 Q 343 655 341 662 Q 338 677 298 706 Q 282 719 263 715 Q 253 712 259 697 Q 277 658 195 495 Q 177 458 139 423 Q 121 408 123 396 Q 127 378 141 360 Q 151 350 164 357 Q 210 382 290 390 C 320 393 335 412 305 413 Z" fill="lightgray" />
    
      <path d="M 290 390 Q 196 255 171 241 Q 158 232 160 218 Q 161 205 188 186 Q 198 174 213 186 Q 276 231 382 264 Q 401 268 403 277 Q 406 287 386 284 Q 328 274 258 255 Q 227 243 247 270 Q 283 322 367 427 Q 394 464 419 486 Q 431 496 424 505 Q 414 524 380 542 Q 364 551 355 548 Q 345 544 348 529 Q 349 496 305 413 L 290 390 Z" fill="lightgray" />
    
      <path d="M 122 73 Q 110 69 110 60 Q 110 47 120 41 Q 144 29 177 16 Q 187 15 198 24 Q 226 54 258 75 Q 309 106 358 140 Q 377 153 390 167 Q 402 176 401 185 Q 394 189 383 185 Q 178 80 122 73 Z" fill="lightgray" />
    
      <path d="M 710 669 Q 803 687 810 692 Q 817 699 814 706 Q 808 716 784 723 Q 765 729 667 702 Q 543 683 509 679 Q 478 675 499 660 Q 526 645 557 645 L 594 649 Q 630 656 667 661 L 710 669 Z" fill="lightgray" />
    
      <path d="M 498 542 Q 491 546 459 551 Q 449 554 446 549 Q 442 543 449 531 Q 474 483 492 404 Q 496 380 510 365 Q 526 347 529 361 Q 532 370 532 384 L 529 408 Q 523 421 508 511 C 503 540 503 540 498 542 Z" fill="lightgray" />
    
      <path d="M 773 416 Q 786 397 797 390 Q 806 383 820 400 Q 830 413 856 483 Q 865 510 886 531 Q 898 541 888 555 Q 875 571 838 595 Q 820 604 806 598 L 728 582 L 682 574 Q 654 570 623 563 L 583 556 Q 535 549 498 542 C 468 537 479 503 508 511 Q 541 521 585 530 L 623 537 Q 648 543 682 548 L 725 555 Q 791 568 806 553 Q 813 544 811 536 Q 790 452 778 445 C 765 426 765 426 773 416 Z" fill="lightgray" />
    
      <path d="M 557 645 Q 557 644 559 639 Q 577 603 583 556 L 585 530 Q 586 490 592 419 C 594 389 625 394 625 424 Q 624 491 623 537 L 623 563 Q 624 597 626 606 Q 629 624 617 634 Q 607 643 594 649 C 567 663 547 673 557 645 Z" fill="lightgray" />
    
      <path d="M 728 582 L 730 590 Q 733 617 743 638 Q 746 645 731 658 Q 721 665 710 669 C 682 681 653 687 667 661 Q 668 660 669 657 Q 681 639 682 574 L 682 548 Q 682 494 678 434 C 676 404 705 410 709 440 Q 718 501 725 555 L 728 582 Z" fill="lightgray" />
    
      <path d="M 532 384 Q 541 383 554 385 Q 678 404 773 416 C 803 420 807 436 778 445 Q 777 446 773 447 Q 752 450 709 440 L 678 434 Q 650 430 625 424 L 592 419 Q 559 415 529 408 C 500 401 502 385 532 384 Z" fill="lightgray" />
    
      <path d="M 535 324 Q 504 320 527 304 Q 557 288 626 298 Q 675 307 728 318 Q 755 324 759 328 Q 766 335 763 342 Q 756 352 731 358 Q 706 364 680 353 Q 649 343 616 335 Q 579 328 535 324 Z" fill="lightgray" />
    
      <path d="M 662 209 Q 737 219 858 220 Q 909 220 915 229 Q 919 239 905 251 Q 854 290 806 273 Q 653 245 435 212 Q 416 211 430 195 Q 443 182 459 178 Q 478 174 492 178 Q 553 194 621 203 L 662 209 Z" fill="lightgray" />
    
      <path d="M 621 203 Q 634 170 634 69 Q 634 8 628 -7 Q 624 -17 603 -14 L 551 -2 Q 541 -1 539 -7 Q 538 -13 547 -22 Q 607 -73 626 -102 Q 639 -115 650 -113 Q 660 -109 672 -78 Q 688 -47 685 12 Q 682 108 684 142 Q 691 181 674 199 L 662 209 C 639 228 612 232 621 203 Z" fill="lightgray" />
    
      <path d="M 498 119 Q 471 77 439 42 Q 418 18 428 -15 Q 432 -31 452 -24 Q 500 4 512 66 Q 521 94 518 116 Q 515 123 510 126 Q 503 125 498 119 Z" fill="lightgray" />
    
      <path d="M 751 103 Q 797 58 854 -6 Q 867 -25 882 -29 Q 889 -30 897 -22 Q 909 -10 898 30 Q 889 78 756 131 Q 755 132 753 132 Q 746 136 743 125 Q 742 113 751 103 Z" fill="lightgray" />
    
    
      <clipPath id="make-me-a-hanzi-clip-0">
        <path d="M 305 413 Q 304 414 302 413 Q 257 414 221 415 Q 184 414 204 437 Q 268 552 330 637 Q 343 655 341 662 Q 338 677 298 706 Q 282 719 263 715 Q 253 712 259 697 Q 277 658 195 495 Q 177 458 139 423 Q 121 408 123 396 Q 127 378 141 360 Q 151 350 164 357 Q 210 382 290 390 C 320 393 335 412 305 413 Z" />
      </clipPath>
      <path clip-path="url(#make-me-a-hanzi-clip-0)" d="M 267 705 L 291 678 L 298 658 L 257 570 L 174 425 L 168 399 L 285 401 L 295 409" fill="none" id="make-me-a-hanzi-animation-0" stroke-dasharray="606 1212" stroke-linecap="round" />
    
      <clipPath id="make-me-a-hanzi-clip-1">
        <path d="M 290 390 Q 196 255 171 241 Q 158 232 160 218 Q 161 205 188 186 Q 198 174 213 186 Q 276 231 382 264 Q 401 268 403 277 Q 406 287 386 284 Q 328 274 258 255 Q 227 243 247 270 Q 283 322 367 427 Q 394 464 419 486 Q 431 496 424 505 Q 414 524 380 542 Q 364 551 355 548 Q 345 544 348 529 Q 349 496 305 413 L 290 390 Z" />
      </clipPath>
      <path clip-path="url(#make-me-a-hanzi-clip-1)" d="M 360 536 L 381 500 L 322 400 L 232 281 L 217 254 L 212 229 L 243 230 L 394 277" fill="none" id="make-me-a-hanzi-animation-1" stroke-dasharray="681 1362" stroke-linecap="round" />
    
      <clipPath id="make-me-a-hanzi-clip-2">
        <path d="M 122 73 Q 110 69 110 60 Q 110 47 120 41 Q 144 29 177 16 Q 187 15 198 24 Q 226 54 258 75 Q 309 106 358 140 Q 377 153 390 167 Q 402 176 401 185 Q 394 189 383 185 Q 178 80 122 73 Z" />
      </clipPath>
      <path clip-path="url(#make-me-a-hanzi-clip-2)" d="M 124 59 L 178 53 L 396 182" fill="none" id="make-me-a-hanzi-animation-2" stroke-dasharray="436 872" stroke-linecap="round" />
    
      <clipPath id="make-me-a-hanzi-clip-3">
        <path d="M 710 669 Q 803 687 810 692 Q 817 699 814 706 Q 808 716 784 723 Q 765 729 667 702 Q 543 683 509 679 Q 478 675 499 660 Q 526 645 557 645 L 594 649 Q 630 656 667 661 L 710 669 Z" />
      </clipPath>
      <path clip-path="url(#make-me-a-hanzi-clip-3)" d="M 502 671 L 551 664 L 755 701 L 803 701" fill="none" id="make-me-a-hanzi-animation-3" stroke-dasharray="433 866" stroke-linecap="round" />
    
      <clipPath id="make-me-a-hanzi-clip-4">
        <path d="M 498 542 Q 491 546 459 551 Q 449 554 446 549 Q 442 543 449 531 Q 474 483 492 404 Q 496 380 510 365 Q 526 347 529 361 Q 532 370 532 384 L 529 408 Q 523 421 508 511 C 503 540 503 540 498 542 Z" />
      </clipPath>
      <path clip-path="url(#make-me-a-hanzi-clip-4)" d="M 453 544 L 478 524 L 490 495 L 520 364" fill="none" id="make-me-a-hanzi-animation-4" stroke-dasharray="326 652" stroke-linecap="round" />
    
      <clipPath id="make-me-a-hanzi-clip-5">
        <path d="M 773 416 Q 786 397 797 390 Q 806 383 820 400 Q 830 413 856 483 Q 865 510 886 531 Q 898 541 888 555 Q 875 571 838 595 Q 820 604 806 598 L 728 582 L 682 574 Q 654 570 623 563 L 583 556 Q 535 549 498 542 C 468 537 479 503 508 511 Q 541 521 585 530 L 623 537 Q 648 543 682 548 L 725 555 Q 791 568 806 553 Q 813 544 811 536 Q 790 452 778 445 C 765 426 765 426 773 416 Z" />
      </clipPath>
      <path clip-path="url(#make-me-a-hanzi-clip-5)" d="M 505 539 L 525 531 L 722 569 L 802 578 L 819 575 L 840 557 L 847 541 L 804 431 L 804 406" fill="none" id="make-me-a-hanzi-animation-5" stroke-dasharray="636 1272" stroke-linecap="round" />
    
      <clipPath id="make-me-a-hanzi-clip-6">
        <path d="M 557 645 Q 557 644 559 639 Q 577 603 583 556 L 585 530 Q 586 490 592 419 C 594 389 625 394 625 424 Q 624 491 623 537 L 623 563 Q 624 597 626 606 Q 629 624 617 634 Q 607 643 594 649 C 567 663 547 673 557 645 Z" />
      </clipPath>
      <path clip-path="url(#make-me-a-hanzi-clip-6)" d="M 563 644 L 599 613 L 607 448 L 606 436 L 596 429" fill="none" id="make-me-a-hanzi-animation-6" stroke-dasharray="365 730" stroke-linecap="round" />
    
      <clipPath id="make-me-a-hanzi-clip-7">
        <path d="M 728 582 L 730 590 Q 733 617 743 638 Q 746 645 731 658 Q 721 665 710 669 C 682 681 653 687 667 661 Q 668 660 669 657 Q 681 639 682 574 L 682 548 Q 682 494 678 434 C 676 404 705 410 709 440 Q 718 501 725 555 L 728 582 Z" />
      </clipPath>
      <path clip-path="url(#make-me-a-hanzi-clip-7)" d="M 674 662 L 708 636 L 697 465 L 685 441" fill="none" id="make-me-a-hanzi-animation-7" stroke-dasharray="369 738" stroke-linecap="round" />
    
      <clipPath id="make-me-a-hanzi-clip-8">
        <path d="M 532 384 Q 541 383 554 385 Q 678 404 773 416 C 803 420 807 436 778 445 Q 777 446 773 447 Q 752 450 709 440 L 678 434 Q 650 430 625 424 L 592 419 Q 559 415 529 408 C 500 401 502 385 532 384 Z" />
      </clipPath>
      <path clip-path="url(#make-me-a-hanzi-clip-8)" d="M 537 391 L 554 400 L 758 431 L 772 438" fill="none" id="make-me-a-hanzi-animation-8" stroke-dasharray="369 738" stroke-linecap="round" />
    
      <clipPath id="make-me-a-hanzi-clip-9">
        <path d="M 535 324 Q 504 320 527 304 Q 557 288 626 298 Q 675 307 728 318 Q 755 324 759 328 Q 766 335 763 342 Q 756 352 731 358 Q 706 364 680 353 Q 649 343 616 335 Q 579 328 535 324 Z" />
      </clipPath>
      <path clip-path="url(#make-me-a-hanzi-clip-9)" d="M 528 315 L 597 312 L 712 338 L 752 337" fill="none" id="make-me-a-hanzi-animation-9" stroke-dasharray="355 710" stroke-linecap="round" />
    
      <clipPath id="make-me-a-hanzi-clip-10">
        <path d="M 662 209 Q 737 219 858 220 Q 909 220 915 229 Q 919 239 905 251 Q 854 290 806 273 Q 653 245 435 212 Q 416 211 430 195 Q 443 182 459 178 Q 478 174 492 178 Q 553 194 621 203 L 662 209 Z" />
      </clipPath>
      <path clip-path="url(#make-me-a-hanzi-clip-10)" d="M 432 204 L 477 197 L 632 225 L 820 248 L 860 247 L 907 234" fill="none" id="make-me-a-hanzi-animation-10" stroke-dasharray="609 1218" stroke-linecap="round" />
    
      <clipPath id="make-me-a-hanzi-clip-11">
        <path d="M 621 203 Q 634 170 634 69 Q 634 8 628 -7 Q 624 -17 603 -14 L 551 -2 Q 541 -1 539 -7 Q 538 -13 547 -22 Q 607 -73 626 -102 Q 639 -115 650 -113 Q 660 -109 672 -78 Q 688 -47 685 12 Q 682 108 684 142 Q 691 181 674 199 L 662 209 C 639 228 612 232 621 203 Z" />
      </clipPath>
      <path clip-path="url(#make-me-a-hanzi-clip-11)" d="M 628 201 L 655 179 L 658 166 L 660 22 L 652 -29 L 638 -51 L 595 -36 L 547 -9" fill="none" id="make-me-a-hanzi-animation-11" stroke-dasharray="498 996" stroke-linecap="round" />
    
      <clipPath id="make-me-a-hanzi-clip-12">
        <path d="M 498 119 Q 471 77 439 42 Q 418 18 428 -15 Q 432 -31 452 -24 Q 500 4 512 66 Q 521 94 518 116 Q 515 123 510 126 Q 503 125 498 119 Z" />
      </clipPath>
      <path clip-path="url(#make-me-a-hanzi-clip-12)" d="M 508 116 L 488 63 L 443 -12" fill="none" id="make-me-a-hanzi-animation-12" stroke-dasharray="272 544" stroke-linecap="round" />
    
      <clipPath id="make-me-a-hanzi-clip-13">
        <path d="M 751 103 Q 797 58 854 -6 Q 867 -25 882 -29 Q 889 -30 897 -22 Q 909 -10 898 30 Q 889 78 756 131 Q 755 132 753 132 Q 746 136 743 125 Q 742 113 751 103 Z" />
      </clipPath>
      <path clip-path="url(#make-me-a-hanzi-clip-13)" d="M 752 123 L 857 39 L 874 15 L 883 -13" fill="none" id="make-me-a-hanzi-animation-13" stroke-dasharray="321 642" stroke-linecap="round" />
    
  </g>
</svg>