<svg xmlns="http://www.w3.org/2000/svg" version="1.1" viewBox="0 0 1024 1024">
  <g stroke="lightgray" stroke-dasharray="1,1" stroke-width="1" transform="scale(4, 4)">
    <line x1="0" y1="0" x2="256" y2="256" />
    <line x1="256" y1="0" x2="0" y2="256" />
    <line x1="128" y1="0" x2="128" y2="256" />
    <line x1="0" y1="128" x2="256" y2="128" />
  </g>
  <g transform="scale(1.0, -1.0) translate(0.0, -798.00)">
    <style type="text/css">
      
        @keyframes keyframes0 {
          from {
            stroke: blue;
            stroke-dashoffset: 433;
            stroke-width: 128;
          }
          58% {
            animation-timing-function: step-end;
            stroke: blue;
            stroke-dashoffset: 0;
            stroke-width: 128;
          }
          to {
            stroke: black;
            stroke-width: 1024;
          }
        }
        #make-me-a-hanzi-animation-0 {
          animation: keyframes0 0.6023763020833334s both;
          animation-delay: 0s;
          animation-timing-function: linear;
        }
      
        @keyframes keyframes1 {
          from {
            stroke: blue;
            stroke-dashoffset: 844;
            stroke-width: 128;
          }
          73% {
            animation-timing-function: step-end;
            stroke: blue;
            stroke-dashoffset: 0;
            stroke-width: 128;
          }
          to {
            stroke: black;
            stroke-width: 1024;
          }
        }
        #make-me-a-hanzi-animation-1 {
          animation: keyframes1 0.9368489583333334s both;
          animation-delay: 0.6023763020833334s;
          animation-timing-function: linear;
        }
      
        @keyframes keyframes2 {
          from {
            stroke: blue;
            stroke-dashoffset: 353;
            stroke-width: 128;
          }
          53% {
            animation-timing-function: step-end;
            stroke: blue;
            stroke-dashoffset: 0;
            stroke-width: 128;
          }
          to {
            stroke: black;
            stroke-width: 1024;
          }
        }
        #make-me-a-hanzi-animation-2 {
          animation: keyframes2 0.5372721354166666s both;
          animation-delay: 1.5392252604166667s;
          animation-timing-function: linear;
        }
      
        @keyframes keyframes3 {
          from {
            stroke: blue;
            stroke-dashoffset: 351;
            stroke-width: 128;
          }
          53% {
            animation-timing-function: step-end;
            stroke: blue;
            stroke-dashoffset: 0;
            stroke-width: 128;
          }
          to {
            stroke: black;
            stroke-width: 1024;
          }
        }
        #make-me-a-hanzi-animation-3 {
          animation: keyframes3 0.53564453125s both;
          animation-delay: 2.0764973958333335s;
          animation-timing-function: linear;
        }
      
        @keyframes keyframes4 {
          from {
            stroke: blue;
            stroke-dashoffset: 601;
            stroke-width: 128;
          }
          66% {
            animation-timing-function: step-end;
            stroke: blue;
            stroke-dashoffset: 0;
            stroke-width: 128;
          }
          to {
            stroke: black;
            stroke-width: 1024;
          }
        }
        #make-me-a-hanzi-animation-4 {
          animation: keyframes4 0.7390950520833334s both;
          animation-delay: 2.6121419270833335s;
          animation-timing-function: linear;
        }
      
        @keyframes keyframes5 {
          from {
            stroke: blue;
            stroke-dashoffset: 555;
            stroke-width: 128;
          }
          64% {
            animation-timing-function: step-end;
            stroke: blue;
            stroke-dashoffset: 0;
            stroke-width: 128;
          }
          to {
            stroke: black;
            stroke-width: 1024;
          }
        }
        #make-me-a-hanzi-animation-5 {
          animation: keyframes5 0.70166015625s both;
          animation-delay: 3.351236979166667s;
          animation-timing-function: linear;
        }
      
        @keyframes keyframes6 {
          from {
            stroke: blue;
            stroke-dashoffset: 381;
            stroke-width: 128;
          }
          55% {
            animation-timing-function: step-end;
            stroke: blue;
            stroke-dashoffset: 0;
            stroke-width: 128;
          }
          to {
            stroke: black;
            stroke-width: 1024;
          }
        }
        #make-me-a-hanzi-animation-6 {
          animation: keyframes6 0.56005859375s both;
          animation-delay: 4.052897135416667s;
          animation-timing-function: linear;
        }
      
        @keyframes keyframes7 {
          from {
            stroke: blue;
            stroke-dashoffset: 590;
            stroke-width: 128;
          }
          66% {
            animation-timing-function: step-end;
            stroke: blue;
            stroke-dashoffset: 0;
            stroke-width: 128;
          }
          to {
            stroke: black;
            stroke-width: 1024;
          }
        }
        #make-me-a-hanzi-animation-7 {
          animation: keyframes7 0.7301432291666666s both;
          animation-delay: 4.612955729166667s;
          animation-timing-function: linear;
        }
      
        @keyframes keyframes8 {
          from {
            stroke: blue;
            stroke-dashoffset: 774;
            stroke-width: 128;
          }
          72% {
            animation-timing-function: step-end;
            stroke: blue;
            stroke-dashoffset: 0;
            stroke-width: 128;
          }
          to {
            stroke: black;
            stroke-width: 1024;
          }
        }
        #make-me-a-hanzi-animation-8 {
          animation: keyframes8 0.8798828125s both;
          animation-delay: 5.343098958333334s;
          animation-timing-function: linear;
        }
      
        @keyframes keyframes9 {
          from {
            stroke: blue;
            stroke-dashoffset: 346;
            stroke-width: 128;
          }
          53% {
            animation-timing-function: step-end;
            stroke: blue;
            stroke-dashoffset: 0;
            stroke-width: 128;
          }
          to {
            stroke: black;
            stroke-width: 1024;
          }
        }
        #make-me-a-hanzi-animation-9 {
          animation: keyframes9 0.5315755208333334s both;
          animation-delay: 6.222981770833334s;
          animation-timing-function: linear;
        }
      
        @keyframes keyframes10 {
          from {
            stroke: blue;
            stroke-dashoffset: 393;
            stroke-width: 128;
          }
          56% {
            animation-timing-function: step-end;
            stroke: blue;
            stroke-dashoffset: 0;
            stroke-width: 128;
          }
          to {
            stroke: black;
            stroke-width: 1024;
          }
        }
        #make-me-a-hanzi-animation-10 {
          animation: keyframes10 0.56982421875s both;
          animation-delay: 6.754557291666667s;
          animation-timing-function: linear;
        }
      
        @keyframes keyframes11 {
          from {
            stroke: blue;
            stroke-dashoffset: 418;
            stroke-width: 128;
          }
          58% {
            animation-timing-function: step-end;
            stroke: blue;
            stroke-dashoffset: 0;
            stroke-width: 128;
          }
          to {
            stroke: black;
            stroke-width: 1024;
          }
        }
        #make-me-a-hanzi-animation-11 {
          animation: keyframes11 0.5901692708333334s both;
          animation-delay: 7.324381510416667s;
          animation-timing-function: linear;
        }
      
        @keyframes keyframes12 {
          from {
            stroke: blue;
            stroke-dashoffset: 689;
            stroke-width: 128;
          }
          69% {
            animation-timing-function: step-end;
            stroke: blue;
            stroke-dashoffset: 0;
            stroke-width: 128;
          }
          to {
            stroke: black;
            stroke-width: 1024;
          }
        }
        #make-me-a-hanzi-animation-12 {
          animation: keyframes12 0.8107096354166666s both;
          animation-delay: 7.91455078125s;
          animation-timing-function: linear;
        }
      
        @keyframes keyframes13 {
          from {
            stroke: blue;
            stroke-dashoffset: 440;
            stroke-width: 128;
          }
          59% {
            animation-timing-function: step-end;
            stroke: blue;
            stroke-dashoffset: 0;
            stroke-width: 128;
          }
          to {
            stroke: black;
            stroke-width: 1024;
          }
        }
        #make-me-a-hanzi-animation-13 {
          animation: keyframes13 0.6080729166666666s both;
          animation-delay: 8.725260416666666s;
          animation-timing-function: linear;
        }
      
        @keyframes keyframes14 {
          from {
            stroke: blue;
            stroke-dashoffset: 805;
            stroke-width: 128;
          }
          72% {
            animation-timing-function: step-end;
            stroke: blue;
            stroke-dashoffset: 0;
            stroke-width: 128;
          }
          to {
            stroke: black;
            stroke-width: 1024;
          }
        }
        #make-me-a-hanzi-animation-14 {
          animation: keyframes14 0.9051106770833334s both;
          animation-delay: 9.333333333333332s;
          animation-timing-function: linear;
        }
      
        @keyframes keyframes15 {
          from {
            stroke: blue;
            stroke-dashoffset: 413;
            stroke-width: 128;
          }
          57% {
            animation-timing-function: step-end;
            stroke: blue;
            stroke-dashoffset: 0;
            stroke-width: 128;
          }
          to {
            stroke: black;
            stroke-width: 1024;
          }
        }
        #make-me-a-hanzi-animation-15 {
          animation: keyframes15 0.5861002604166666s both;
          animation-delay: 10.238444010416666s;
          animation-timing-function: linear;
        }
      
        @keyframes keyframes16 {
          from {
            stroke: blue;
            stroke-dashoffset: 387;
            stroke-width: 128;
          }
          56% {
            animation-timing-function: step-end;
            stroke: blue;
            stroke-dashoffset: 0;
            stroke-width: 128;
          }
          to {
            stroke: black;
            stroke-width: 1024;
          }
        }
        #make-me-a-hanzi-animation-16 {
          animation: keyframes16 0.56494140625s both;
          animation-delay: 10.824544270833332s;
          animation-timing-function: linear;
        }
      
        @keyframes keyframes17 {
          from {
            stroke: blue;
            stroke-dashoffset: 393;
            stroke-width: 128;
          }
          56% {
            animation-timing-function: step-end;
            stroke: blue;
            stroke-dashoffset: 0;
            stroke-width: 128;
          }
          to {
            stroke: black;
            stroke-width: 1024;
          }
        }
        #make-me-a-hanzi-animation-17 {
          animation: keyframes17 0.56982421875s both;
          animation-delay: 11.389485677083332s;
          animation-timing-function: linear;
        }
      
        @keyframes keyframes18 {
          from {
            stroke: blue;
            stroke-dashoffset: 462;
            stroke-width: 128;
          }
          60% {
            animation-timing-function: step-end;
            stroke: blue;
            stroke-dashoffset: 0;
            stroke-width: 128;
          }
          to {
            stroke: black;
            stroke-width: 1024;
          }
        }
        #make-me-a-hanzi-animation-18 {
          animation: keyframes18 0.6259765625s both;
          animation-delay: 11.959309895833332s;
          animation-timing-function: linear;
        }
      
    </style>
    
      <path d="M 340 546 L 340 551 L 340 580 L 334 608 L 332 645 Q 329 652 326 668 C 322 690 322 690 310 694 L 292 700 Q 280 704 268 704 Q 263 705 259 705 Q 250 705 250 701 Q 249 699 249 696 Q 249 694 250 691 Q 254 686 260 678 Q 265 670 270 662 Q 276 654 278 642 L 290 588 Q 290 583 294 565 Q 300 548 302 542 Q 306 538 318 531 C 340 518 340 518 340 546 Z" fill="lightgray" />
    
      <path d="M 692 568 L 698 557 Q 702 546 712 546 L 714 546 Q 721 546 730 556 Q 740 566 748 581 L 766 624 Q 769 632 774 643 Q 779 653 786 660 Q 790 668 796 675 Q 804 682 804 685 Q 804 689 800 696 Q 794 703 776 716 Q 756 729 748 732 Q 741 735 732 736 Q 726 736 716 735 L 686 729 Q 672 726 646 723 Q 620 720 608 718 L 560 714 Q 526 712 464 706 Q 399 700 374 698 Q 347 696 310 694 C 280 692 296 666 326 668 L 362 670 Q 371 671 412 674 L 454 678 L 504 680 Q 514 680 560 684 L 596 686 L 674 693 Q 688 694 703 694 Q 718 694 720 690 Q 721 688 721 684 Q 721 680 720 674 Q 717 664 716 652 Q 712 640 710 630 L 696 592 C 689 573 689 573 692 568 Z" fill="lightgray" />
    
      <path d="M 412 674 L 418 661 Q 419 659 426 642 L 432 622 Q 432 621 434 609 Q 436 596 438 588 C 445 559 472 558 472 588 L 472 610 Q 470 623 470 632 Q 472 641 474 649 Q 476 657 476 661 Q 474 665 468 669 Q 461 674 454 678 C 428 693 399 701 412 674 Z" fill="lightgray" />
    
      <path d="M 560 684 L 560 664 Q 560 658 556 642 Q 554 628 552 618 L 546 594 C 539 565 561 570 574 597 L 580 609 L 590 625 Q 594 634 600 642 Q 604 650 610 655 Q 614 660 616 664 L 616 665 Q 616 668 610 674 L 596 686 C 573 706 560 714 560 684 Z" fill="lightgray" />
    
      <path d="M 340 551 L 354 550 Q 362 550 397 553 Q 432 556 456 557 Q 478 559 508 561 L 586 564 L 642 568 L 692 568 C 722 568 724 581 696 592 L 686 596 Q 679 598 668 600 Q 656 604 650 604 Q 642 604 628 602 Q 614 600 606 600 L 574 597 L 546 594 L 472 588 L 438 588 L 340 580 C 310 578 310 553 340 551 Z" fill="lightgray" />
    
      <path d="M 318 531 L 314 516 Q 312 510 300 491 Q 288 472 280 463 Q 273 454 256 441 Q 239 428 228 422 Q 218 418 216 415 Q 213 412 213 408 Q 213 407 214 405 Q 214 400 218 386 Q 223 372 226 367 Q 228 363 234 362 L 236 362 Q 241 362 250 367 Q 260 373 282 380 L 318 393 Q 326 395 368 406 L 428 423 C 457 431 448 448 418 443 L 276 420 L 304 440 Q 308 443 324 458 L 348 478 Q 355 482 362 487 Q 369 491 370 494 Q 371 495 371 497 Q 371 501 368 506 Q 366 515 360 524 L 340 546 C 326 561 326 560 318 531 Z" fill="lightgray" />
    
      <path d="M 428 423 L 442 402 L 450 387 Q 455 378 462 377 L 464 377 Q 472 377 478 384 Q 486 393 488 408 Q 489 414 489 419 Q 489 429 486 436 Q 482 448 476 455 Q 468 462 448 473 Q 427 484 422 486 L 404 493 Q 400 494 398 494 Q 395 494 394 492 Q 393 491 393 489 Q 393 486 396 482 L 404 468 Q 404 464 410 457 L 418 443 L 428 423 Z" fill="lightgray" />
    
      <path d="M 284 341 L 266 346 L 244 352 Q 230 352 228 348 Q 227 347 227 345 Q 227 342 230 337 L 236 323 Q 240 316 242 306 Q 242 296 244 277 Q 244 252 242 235 Q 242 217 240 191 Q 237 166 234 146 Q 227 126 218 108 Q 208 90 200 78 L 182 58 Q 178 53 178 50 Q 178 48 180 47 Q 181 46 184 46 Q 188 46 194 50 L 216 64 Q 224 70 238 84 Q 249 96 260 113 Q 269 130 274 142 L 280 168 L 282 190 L 286 242 Q 286 248 290 279 L 290 291 L 290 315 C 290 339 290 339 284 341 Z" fill="lightgray" />
    
      <path d="M 412 209 L 412 168 Q 412 164 410 143 Q 408 122 406 113 Q 404 104 398 100 Q 396 99 391 99 Q 387 99 380 100 L 358 104 L 336 109 L 333 109 Q 329 109 328 107 L 328 105 Q 328 103 332 98 L 348 81 L 364 63 L 376 47 Q 382 40 390 28 Q 396 16 400 16 L 403 16 Q 409 16 418 21 Q 430 28 438 45 Q 447 62 452 78 Q 456 94 456 118 L 454 160 L 454 203 Q 455 230 456 242 Q 456 254 458 273 Q 460 292 462 302 Q 464 313 468 320 Q 474 332 474 335 Q 474 338 466 345 Q 460 352 448 359 Q 438 366 428 371 Q 417 376 412 376 Q 410 376 400 372 Q 392 368 376 364 Q 359 359 352 357 Q 344 355 326 351 Q 307 346 284 341 C 255 334 261 309 290 315 L 328 323 L 362 330 Q 373 332 392 334 Q 405 334 410 331 Q 413 329 413 324 Q 413 321 412 318 L 412 226 L 412 209 Z" fill="lightgray" />
    
      <path d="M 290 279 L 306 266 L 332 249 L 354 232 Q 363 227 370 227 L 372 227 Q 378 228 382 234 Q 384 239 386 249 Q 386 260 382 266 Q 380 272 374 275 Q 366 279 346 282 L 314 288 Q 306 290 290 291 C 274 292 274 292 290 279 Z" fill="lightgray" />
    
      <path d="M 280 168 L 288 159 L 298 146 Q 306 140 310 140 Q 313 140 320 146 Q 327 152 342 162 L 368 178 L 392 195 Q 399 200 412 209 C 437 226 439 238 412 226 L 392 217 Q 378 212 354 206 Q 332 200 316 197 Q 303 194 282 190 C 264 186 264 186 280 168 Z" fill="lightgray" />
    
      <path d="M 596 433 L 618 432 Q 621 431 628 431 Q 634 431 644 432 Q 665 434 676 436 Q 688 438 706 442 Q 724 446 732 448 L 760 455 Q 768 457 768 462 Q 768 468 762 472 Q 754 477 738 482 Q 724 487 716 487 L 714 487 Q 707 486 694 481 Q 679 476 658 471 Q 636 466 624 464 Q 612 462 598 460 C 568 456 566 434 596 433 Z" fill="lightgray" />
    
      <path d="M 598 460 L 600 472 Q 600 475 602 484 Q 604 494 610 501 Q 616 508 616 510 Q 616 516 610 523 Q 604 530 585 538 Q 566 546 560 547 Q 554 547 550 545 Q 547 543 547 541 Q 547 539 548 538 L 548 536 Q 548 531 552 521 Q 556 508 556 497 L 556 470 L 554 404 L 554 399 Q 554 387 558 376 Q 560 363 568 351 Q 576 338 596 331 Q 615 323 644 322 Q 674 320 694 320 Q 716 320 740 324 Q 764 326 784 332 Q 804 336 814 342 Q 826 348 826 354 L 826 356 Q 826 361 818 368 Q 807 376 794 381 Q 779 386 772 386 Q 764 385 748 379 Q 731 374 714 370 Q 698 366 676 365 Q 661 364 648 364 L 636 364 Q 619 364 610 368 Q 600 372 596 382 Q 592 387 592 398 L 592 402 Q 594 416 596 433 L 598 460 Z" fill="lightgray" />
    
      <path d="M 588 199 L 612 196 Q 615 195 620 195 Q 631 195 648 199 L 696 210 L 738 220 L 768 228 Q 774 230 776 233 L 776 238 L 777 239 Q 777 241 772 244 Q 766 248 754 252 Q 744 256 734 258 Q 728 259 724 259 Q 719 259 716 258 Q 709 256 698 253 L 674 246 Q 660 243 638 237 Q 614 231 592 226 C 563 219 558 203 588 199 Z" fill="lightgray" />
    
      <path d="M 592 226 L 596 242 Q 598 246 602 254 L 608 265 Q 610 271 610 275 Q 610 280 600 286 Q 591 294 578 301 Q 564 308 552 310 Q 548 311 546 311 Q 541 311 540 308 Q 537 307 537 302 Q 537 299 538 296 L 544 277 Q 545 266 546 251 L 546 225 Q 545 209 544 190 Q 542 162 542 143 Q 544 124 552 108 Q 561 91 584 79 Q 606 67 636 62 Q 666 56 702 56 L 714 56 Q 745 56 770 60 Q 799 66 818 74 Q 837 83 848 91 Q 858 99 860 106 Q 863 112 863 116 L 863 118 Q 862 122 856 130 Q 850 138 846 148 Q 840 158 838 164 Q 837 171 834 184 L 830 204 Q 828 213 825 213 L 824 213 Q 818 212 818 208 L 810 182 Q 808 172 804 161 Q 800 151 794 141 Q 788 132 778 125 Q 768 118 744 114 Q 719 110 700 110 Q 678 110 654 112 Q 629 115 612 120 Q 596 126 590 135 Q 584 142 584 156 L 584 163 L 588 185 L 588 199 L 592 226 Z" fill="lightgray" />
    
      <path d="M 200 -11 Q 195 -24 186 -39 L 168 -70 Q 155 -86 154 -92 Q 153 -97 153 -103 Q 153 -108 154 -115 Q 154 -128 160 -138 Q 164 -148 170 -154 Q 176 -160 182 -160 L 185 -160 Q 192 -160 200 -152 Q 211 -144 222 -122 Q 232 -100 236 -82 Q 242 -61 242 -44 Q 240 -28 238 -16 Q 234 -3 230 7 Q 223 18 219 18 L 218 18 Q 211 18 210 12 L 200 -11 Z" fill="lightgray" />
    
      <path d="M 372 -40 Q 372 -46 382 -72 Q 391 -98 396 -110 Q 400 -122 410 -130 Q 417 -137 424 -137 L 426 -137 Q 432 -137 440 -128 Q 448 -118 448 -94 Q 446 -69 440 -56 Q 436 -44 422 -32 Q 408 -20 396 -14 L 378 -6 Q 373 -4 370 -4 Q 366 -4 364 -6 Q 363 -7 363 -10 Q 363 -13 364 -17 L 372 -40 Z" fill="lightgray" />
    
      <path d="M 556 -42 Q 558 -49 570 -67 Q 579 -84 590 -104 Q 598 -123 608 -131 Q 616 -140 624 -140 Q 631 -140 638 -135 Q 643 -130 648 -115 Q 651 -104 651 -95 Q 651 -90 650 -86 Q 650 -72 644 -59 Q 636 -46 618 -34 Q 599 -22 582 -16 L 558 -8 Q 553 -6 550 -6 Q 547 -6 546 -8 Q 544 -9 544 -11 Q 544 -13 546 -16 L 556 -42 Z" fill="lightgray" />
    
      <path d="M 742 17 Q 738 19 735 19 Q 732 19 730 17 Q 729 16 729 14 Q 729 10 732 6 L 746 -16 Q 750 -24 768 -54 L 794 -94 L 822 -138 Q 829 -152 838 -158 Q 845 -164 850 -164 L 852 -164 Q 858 -162 864 -156 Q 869 -150 874 -134 Q 876 -120 876 -106 Q 876 -94 868 -78 Q 861 -62 846 -47 Q 830 -32 808 -18 Q 787 -5 770 3 L 742 17 Z" fill="lightgray" />
    
    
      <clipPath id="make-me-a-hanzi-clip-0">
        <path d="M 340 546 L 340 551 L 340 580 L 334 608 L 332 645 Q 329 652 326 668 C 322 690 322 690 310 694 L 292 700 Q 280 704 268 704 Q 263 705 259 705 Q 250 705 250 701 Q 249 699 249 696 Q 249 694 250 691 Q 254 686 260 678 Q 265 670 270 662 Q 276 654 278 642 L 290 588 Q 290 583 294 565 Q 300 548 302 542 Q 306 538 318 531 C 340 518 340 518 340 546 Z" />
      </clipPath>
      <path clip-path="url(#make-me-a-hanzi-clip-0)" d="M 257 697 L 281 683 L 300 661 L 318 542" fill="none" id="make-me-a-hanzi-animation-0" stroke-dasharray="305 610" stroke-linecap="round" />
    
      <clipPath id="make-me-a-hanzi-clip-1">
        <path d="M 692 568 L 698 557 Q 702 546 712 546 L 714 546 Q 721 546 730 556 Q 740 566 748 581 L 766 624 Q 769 632 774 643 Q 779 653 786 660 Q 790 668 796 675 Q 804 682 804 685 Q 804 689 800 696 Q 794 703 776 716 Q 756 729 748 732 Q 741 735 732 736 Q 726 736 716 735 L 686 729 Q 672 726 646 723 Q 620 720 608 718 L 560 714 Q 526 712 464 706 Q 399 700 374 698 Q 347 696 310 694 C 280 692 296 666 326 668 L 362 670 Q 371 671 412 674 L 454 678 L 504 680 Q 514 680 560 684 L 596 686 L 674 693 Q 688 694 703 694 Q 718 694 720 690 Q 721 688 721 684 Q 721 680 720 674 Q 717 664 716 652 Q 712 640 710 630 L 696 592 C 689 573 689 573 692 568 Z" />
      </clipPath>
      <path clip-path="url(#make-me-a-hanzi-clip-1)" d="M 317 690 L 333 682 L 385 684 L 697 713 L 732 711 L 746 702 L 757 682 L 712 560" fill="none" id="make-me-a-hanzi-animation-1" stroke-dasharray="716 1432" stroke-linecap="round" />
    
      <clipPath id="make-me-a-hanzi-clip-2">
        <path d="M 412 674 L 418 661 Q 419 659 426 642 L 432 622 Q 432 621 434 609 Q 436 596 438 588 C 445 559 472 558 472 588 L 472 610 Q 470 623 470 632 Q 472 641 474 649 Q 476 657 476 661 Q 474 665 468 669 Q 461 674 454 678 C 428 693 399 701 412 674 Z" />
      </clipPath>
      <path clip-path="url(#make-me-a-hanzi-clip-2)" d="M 419 670 L 449 651 L 451 618 L 466 594" fill="none" id="make-me-a-hanzi-animation-2" stroke-dasharray="225 450" stroke-linecap="round" />
    
      <clipPath id="make-me-a-hanzi-clip-3">
        <path d="M 560 684 L 560 664 Q 560 658 556 642 Q 554 628 552 618 L 546 594 C 539 565 561 570 574 597 L 580 609 L 590 625 Q 594 634 600 642 Q 604 650 610 655 Q 614 660 616 664 L 616 665 Q 616 668 610 674 L 596 686 C 573 706 560 714 560 684 Z" />
      </clipPath>
      <path clip-path="url(#make-me-a-hanzi-clip-3)" d="M 566 679 L 584 661 L 553 599" fill="none" id="make-me-a-hanzi-animation-3" stroke-dasharray="223 446" stroke-linecap="round" />
    
      <clipPath id="make-me-a-hanzi-clip-4">
        <path d="M 340 551 L 354 550 Q 362 550 397 553 Q 432 556 456 557 Q 478 559 508 561 L 586 564 L 642 568 L 692 568 C 722 568 724 581 696 592 L 686 596 Q 679 598 668 600 Q 656 604 650 604 Q 642 604 628 602 Q 614 600 606 600 L 574 597 L 546 594 L 472 588 L 438 588 L 340 580 C 310 578 310 553 340 551 Z" />
      </clipPath>
      <path clip-path="url(#make-me-a-hanzi-clip-4)" d="M 348 558 L 362 567 L 624 585 L 678 583 L 686 575" fill="none" id="make-me-a-hanzi-animation-4" stroke-dasharray="473 946" stroke-linecap="round" />
    
      <clipPath id="make-me-a-hanzi-clip-5">
        <path d="M 318 531 L 314 516 Q 312 510 300 491 Q 288 472 280 463 Q 273 454 256 441 Q 239 428 228 422 Q 218 418 216 415 Q 213 412 213 408 Q 213 407 214 405 Q 214 400 218 386 Q 223 372 226 367 Q 228 363 234 362 L 236 362 Q 241 362 250 367 Q 260 373 282 380 L 318 393 Q 326 395 368 406 L 428 423 C 457 431 448 448 418 443 L 276 420 L 304 440 Q 308 443 324 458 L 348 478 Q 355 482 362 487 Q 369 491 370 494 Q 371 495 371 497 Q 371 501 368 506 Q 366 515 360 524 L 340 546 C 326 561 326 560 318 531 Z" />
      </clipPath>
      <path clip-path="url(#make-me-a-hanzi-clip-5)" d="M 339 535 L 338 503 L 272 435 L 287 403 L 411 431 L 419 425" fill="none" id="make-me-a-hanzi-animation-5" stroke-dasharray="427 854" stroke-linecap="round" />
    
      <clipPath id="make-me-a-hanzi-clip-6">
        <path d="M 428 423 L 442 402 L 450 387 Q 455 378 462 377 L 464 377 Q 472 377 478 384 Q 486 393 488 408 Q 489 414 489 419 Q 489 429 486 436 Q 482 448 476 455 Q 468 462 448 473 Q 427 484 422 486 L 404 493 Q 400 494 398 494 Q 395 494 394 492 Q 393 491 393 489 Q 393 486 396 482 L 404 468 Q 404 464 410 457 L 418 443 L 428 423 Z" />
      </clipPath>
      <path clip-path="url(#make-me-a-hanzi-clip-6)" d="M 398 489 L 458 430 L 464 416 L 463 390" fill="none" id="make-me-a-hanzi-animation-6" stroke-dasharray="253 506" stroke-linecap="round" />
    
      <clipPath id="make-me-a-hanzi-clip-7">
        <path d="M 284 341 L 266 346 L 244 352 Q 230 352 228 348 Q 227 347 227 345 Q 227 342 230 337 L 236 323 Q 240 316 242 306 Q 242 296 244 277 Q 244 252 242 235 Q 242 217 240 191 Q 237 166 234 146 Q 227 126 218 108 Q 208 90 200 78 L 182 58 Q 178 53 178 50 Q 178 48 180 47 Q 181 46 184 46 Q 188 46 194 50 L 216 64 Q 224 70 238 84 Q 249 96 260 113 Q 269 130 274 142 L 280 168 L 282 190 L 286 242 Q 286 248 290 279 L 290 291 L 290 315 C 290 339 290 339 284 341 Z" />
      </clipPath>
      <path clip-path="url(#make-me-a-hanzi-clip-7)" d="M 234 345 L 265 316 L 260 175 L 251 137 L 236 107 L 206 68 L 183 51" fill="none" id="make-me-a-hanzi-animation-7" stroke-dasharray="462 924" stroke-linecap="round" />
    
      <clipPath id="make-me-a-hanzi-clip-8">
        <path d="M 412 209 L 412 168 Q 412 164 410 143 Q 408 122 406 113 Q 404 104 398 100 Q 396 99 391 99 Q 387 99 380 100 L 358 104 L 336 109 L 333 109 Q 329 109 328 107 L 328 105 Q 328 103 332 98 L 348 81 L 364 63 L 376 47 Q 382 40 390 28 Q 396 16 400 16 L 403 16 Q 409 16 418 21 Q 430 28 438 45 Q 447 62 452 78 Q 456 94 456 118 L 454 160 L 454 203 Q 455 230 456 242 Q 456 254 458 273 Q 460 292 462 302 Q 464 313 468 320 Q 474 332 474 335 Q 474 338 466 345 Q 460 352 448 359 Q 438 366 428 371 Q 417 376 412 376 Q 410 376 400 372 Q 392 368 376 364 Q 359 359 352 357 Q 344 355 326 351 Q 307 346 284 341 C 255 334 261 309 290 315 L 328 323 L 362 330 Q 373 332 392 334 Q 405 334 410 331 Q 413 329 413 324 Q 413 321 412 318 L 412 226 L 412 209 Z" />
      </clipPath>
      <path clip-path="url(#make-me-a-hanzi-clip-8)" d="M 295 323 L 309 334 L 402 353 L 423 349 L 441 327 L 434 264 L 431 111 L 422 82 L 407 65 L 331 106" fill="none" id="make-me-a-hanzi-animation-8" stroke-dasharray="646 1292" stroke-linecap="round" />
    
      <clipPath id="make-me-a-hanzi-clip-9">
        <path d="M 290 279 L 306 266 L 332 249 L 354 232 Q 363 227 370 227 L 372 227 Q 378 228 382 234 Q 384 239 386 249 Q 386 260 382 266 Q 380 272 374 275 Q 366 279 346 282 L 314 288 Q 306 290 290 291 C 274 292 274 292 290 279 Z" />
      </clipPath>
      <path clip-path="url(#make-me-a-hanzi-clip-9)" d="M 297 285 L 361 255 L 371 239" fill="none" id="make-me-a-hanzi-animation-9" stroke-dasharray="218 436" stroke-linecap="round" />
    
      <clipPath id="make-me-a-hanzi-clip-10">
        <path d="M 280 168 L 288 159 L 298 146 Q 306 140 310 140 Q 313 140 320 146 Q 327 152 342 162 L 368 178 L 392 195 Q 399 200 412 209 C 437 226 439 238 412 226 L 392 217 Q 378 212 354 206 Q 332 200 316 197 Q 303 194 282 190 C 264 186 264 186 280 168 Z" />
      </clipPath>
      <path clip-path="url(#make-me-a-hanzi-clip-10)" d="M 290 184 L 299 174 L 323 175 L 405 213 L 408 222" fill="none" id="make-me-a-hanzi-animation-10" stroke-dasharray="265 530" stroke-linecap="round" />
    
      <clipPath id="make-me-a-hanzi-clip-11">
        <path d="M 596 433 L 618 432 Q 621 431 628 431 Q 634 431 644 432 Q 665 434 676 436 Q 688 438 706 442 Q 724 446 732 448 L 760 455 Q 768 457 768 462 Q 768 468 762 472 Q 754 477 738 482 Q 724 487 716 487 L 714 487 Q 707 486 694 481 Q 679 476 658 471 Q 636 466 624 464 Q 612 462 598 460 C 568 456 566 434 596 433 Z" />
      </clipPath>
      <path clip-path="url(#make-me-a-hanzi-clip-11)" d="M 602 439 L 612 447 L 715 466 L 759 464" fill="none" id="make-me-a-hanzi-animation-11" stroke-dasharray="290 580" stroke-linecap="round" />
    
      <clipPath id="make-me-a-hanzi-clip-12">
        <path d="M 598 460 L 600 472 Q 600 475 602 484 Q 604 494 610 501 Q 616 508 616 510 Q 616 516 610 523 Q 604 530 585 538 Q 566 546 560 547 Q 554 547 550 545 Q 547 543 547 541 Q 547 539 548 538 L 548 536 Q 548 531 552 521 Q 556 508 556 497 L 556 470 L 554 404 L 554 399 Q 554 387 558 376 Q 560 363 568 351 Q 576 338 596 331 Q 615 323 644 322 Q 674 320 694 320 Q 716 320 740 324 Q 764 326 784 332 Q 804 336 814 342 Q 826 348 826 354 L 826 356 Q 826 361 818 368 Q 807 376 794 381 Q 779 386 772 386 Q 764 385 748 379 Q 731 374 714 370 Q 698 366 676 365 Q 661 364 648 364 L 636 364 Q 619 364 610 368 Q 600 372 596 382 Q 592 387 592 398 L 592 402 Q 594 416 596 433 L 598 460 Z" />
      </clipPath>
      <path clip-path="url(#make-me-a-hanzi-clip-12)" d="M 551 541 L 583 509 L 573 395 L 582 366 L 598 351 L 678 342 L 773 358 L 817 355" fill="none" id="make-me-a-hanzi-animation-12" stroke-dasharray="561 1122" stroke-linecap="round" />
    
      <clipPath id="make-me-a-hanzi-clip-13">
        <path d="M 588 199 L 612 196 Q 615 195 620 195 Q 631 195 648 199 L 696 210 L 738 220 L 768 228 Q 774 230 776 233 L 776 238 L 777 239 Q 777 241 772 244 Q 766 248 754 252 Q 744 256 734 258 Q 728 259 724 259 Q 719 259 716 258 Q 709 256 698 253 L 674 246 Q 660 243 638 237 Q 614 231 592 226 C 563 219 558 203 588 199 Z" />
      </clipPath>
      <path clip-path="url(#make-me-a-hanzi-clip-13)" d="M 595 205 L 607 213 L 708 235 L 774 241" fill="none" id="make-me-a-hanzi-animation-13" stroke-dasharray="312 624" stroke-linecap="round" />
    
      <clipPath id="make-me-a-hanzi-clip-14">
        <path d="M 592 226 L 596 242 Q 598 246 602 254 L 608 265 Q 610 271 610 275 Q 610 280 600 286 Q 591 294 578 301 Q 564 308 552 310 Q 548 311 546 311 Q 541 311 540 308 Q 537 307 537 302 Q 537 299 538 296 L 544 277 Q 545 266 546 251 L 546 225 Q 545 209 544 190 Q 542 162 542 143 Q 544 124 552 108 Q 561 91 584 79 Q 606 67 636 62 Q 666 56 702 56 L 714 56 Q 745 56 770 60 Q 799 66 818 74 Q 837 83 848 91 Q 858 99 860 106 Q 863 112 863 116 L 863 118 Q 862 122 856 130 Q 850 138 846 148 Q 840 158 838 164 Q 837 171 834 184 L 830 204 Q 828 213 825 213 L 824 213 Q 818 212 818 208 L 810 182 Q 808 172 804 161 Q 800 151 794 141 Q 788 132 778 125 Q 768 118 744 114 Q 719 110 700 110 Q 678 110 654 112 Q 629 115 612 120 Q 596 126 590 135 Q 584 142 584 156 L 584 163 L 588 185 L 588 199 L 592 226 Z" />
      </clipPath>
      <path clip-path="url(#make-me-a-hanzi-clip-14)" d="M 547 301 L 575 268 L 564 140 L 570 122 L 600 98 L 682 83 L 748 85 L 783 93 L 821 117 L 825 207" fill="none" id="make-me-a-hanzi-animation-14" stroke-dasharray="677 1354" stroke-linecap="round" />
    
      <clipPath id="make-me-a-hanzi-clip-15">
        <path d="M 200 -11 Q 195 -24 186 -39 L 168 -70 Q 155 -86 154 -92 Q 153 -97 153 -103 Q 153 -108 154 -115 Q 154 -128 160 -138 Q 164 -148 170 -154 Q 176 -160 182 -160 L 185 -160 Q 192 -160 200 -152 Q 211 -144 222 -122 Q 232 -100 236 -82 Q 242 -61 242 -44 Q 240 -28 238 -16 Q 234 -3 230 7 Q 223 18 219 18 L 218 18 Q 211 18 210 12 L 200 -11 Z" />
      </clipPath>
      <path clip-path="url(#make-me-a-hanzi-clip-15)" d="M 219 9 L 216 -40 L 190 -102 L 184 -142" fill="none" id="make-me-a-hanzi-animation-15" stroke-dasharray="285 570" stroke-linecap="round" />
    
      <clipPath id="make-me-a-hanzi-clip-16">
        <path d="M 372 -40 Q 372 -46 382 -72 Q 391 -98 396 -110 Q 400 -122 410 -130 Q 417 -137 424 -137 L 426 -137 Q 432 -137 440 -128 Q 448 -118 448 -94 Q 446 -69 440 -56 Q 436 -44 422 -32 Q 408 -20 396 -14 L 378 -6 Q 373 -4 370 -4 Q 366 -4 364 -6 Q 363 -7 363 -10 Q 363 -13 364 -17 L 372 -40 Z" />
      </clipPath>
      <path clip-path="url(#make-me-a-hanzi-clip-16)" d="M 368 -9 L 411 -64 L 425 -124" fill="none" id="make-me-a-hanzi-animation-16" stroke-dasharray="259 518" stroke-linecap="round" />
    
      <clipPath id="make-me-a-hanzi-clip-17">
        <path d="M 556 -42 Q 558 -49 570 -67 Q 579 -84 590 -104 Q 598 -123 608 -131 Q 616 -140 624 -140 Q 631 -140 638 -135 Q 643 -130 648 -115 Q 651 -104 651 -95 Q 651 -90 650 -86 Q 650 -72 644 -59 Q 636 -46 618 -34 Q 599 -22 582 -16 L 558 -8 Q 553 -6 550 -6 Q 547 -6 546 -8 Q 544 -9 544 -11 Q 544 -13 546 -16 L 556 -42 Z" />
      </clipPath>
      <path clip-path="url(#make-me-a-hanzi-clip-17)" d="M 549 -12 L 610 -70 L 625 -121" fill="none" id="make-me-a-hanzi-animation-17" stroke-dasharray="265 530" stroke-linecap="round" />
    
      <clipPath id="make-me-a-hanzi-clip-18">
        <path d="M 742 17 Q 738 19 735 19 Q 732 19 730 17 Q 729 16 729 14 Q 729 10 732 6 L 746 -16 Q 750 -24 768 -54 L 794 -94 L 822 -138 Q 829 -152 838 -158 Q 845 -164 850 -164 L 852 -164 Q 858 -162 864 -156 Q 869 -150 874 -134 Q 876 -120 876 -106 Q 876 -94 868 -78 Q 861 -62 846 -47 Q 830 -32 808 -18 Q 787 -5 770 3 L 742 17 Z" />
      </clipPath>
      <path clip-path="url(#make-me-a-hanzi-clip-18)" d="M 734 14 L 825 -76 L 839 -98 L 851 -149" fill="none" id="make-me-a-hanzi-animation-18" stroke-dasharray="334 668" stroke-linecap="round" />
    
  </g>
</svg>