<svg version="1.1" viewBox="0 0 1024 1024" xmlns="http://www.w3.org/2000/svg">
  <g stroke="lightgray" stroke-dasharray="1,1" stroke-width="1" transform="scale(4, 4)">
    <line x1="0" y1="0" x2="256" y2="256"></line>
    <line x1="256" y1="0" x2="0" y2="256"></line>
    <line x1="128" y1="0" x2="128" y2="256"></line>
    <line x1="0" y1="128" x2="256" y2="128"></line>
  </g>
  <g transform="scale(1, -1) translate(0, -860)">
    <style type="text/css">
      
        @keyframes keyframes0 {
          from {
            stroke: blue;
            stroke-dashoffset: 952;
            stroke-width: 128;
          }
          76% {
            animation-timing-function: step-end;
            stroke: blue;
            stroke-dashoffset: 0;
            stroke-width: 128;
          }
          to {
            stroke: black;
            stroke-width: 1024;
          }
        }
        #make-me-a-hanzi-animation-0 {
          animation: keyframes0 1.0247395833333333s both;
          animation-delay: 0s;
          animation-timing-function: linear;
        }
      
        @keyframes keyframes1 {
          from {
            stroke: blue;
            stroke-dashoffset: 1143;
            stroke-width: 128;
          }
          79% {
            animation-timing-function: step-end;
            stroke: blue;
            stroke-dashoffset: 0;
            stroke-width: 128;
          }
          to {
            stroke: black;
            stroke-width: 1024;
          }
        }
        #make-me-a-hanzi-animation-1 {
          animation: keyframes1 1.18017578125s both;
          animation-delay: 1.0247395833333333s;
          animation-timing-function: linear;
        }
      
        @keyframes keyframes2 {
          from {
            stroke: blue;
            stroke-dashoffset: 389;
            stroke-width: 128;
          }
          56% {
            animation-timing-function: step-end;
            stroke: blue;
            stroke-dashoffset: 0;
            stroke-width: 128;
          }
          to {
            stroke: black;
            stroke-width: 1024;
          }
        }
        #make-me-a-hanzi-animation-2 {
          animation: keyframes2 0.5665690104166666s both;
          animation-delay: 2.204915364583333s;
          animation-timing-function: linear;
        }
      
        @keyframes keyframes3 {
          from {
            stroke: blue;
            stroke-dashoffset: 440;
            stroke-width: 128;
          }
          59% {
            animation-timing-function: step-end;
            stroke: blue;
            stroke-dashoffset: 0;
            stroke-width: 128;
          }
          to {
            stroke: black;
            stroke-width: 1024;
          }
        }
        #make-me-a-hanzi-animation-3 {
          animation: keyframes3 0.6080729166666666s both;
          animation-delay: 2.7714843749999996s;
          animation-timing-function: linear;
        }
      
        @keyframes keyframes4 {
          from {
            stroke: blue;
            stroke-dashoffset: 1287;
            stroke-width: 128;
          }
          81% {
            animation-timing-function: step-end;
            stroke: blue;
            stroke-dashoffset: 0;
            stroke-width: 128;
          }
          to {
            stroke: black;
            stroke-width: 1024;
          }
        }
        #make-me-a-hanzi-animation-4 {
          animation: keyframes4 1.29736328125s both;
          animation-delay: 3.379557291666666s;
          animation-timing-function: linear;
        }
      
        @keyframes keyframes5 {
          from {
            stroke: blue;
            stroke-dashoffset: 1062;
            stroke-width: 128;
          }
          78% {
            animation-timing-function: step-end;
            stroke: blue;
            stroke-dashoffset: 0;
            stroke-width: 128;
          }
          to {
            stroke: black;
            stroke-width: 1024;
          }
        }
        #make-me-a-hanzi-animation-5 {
          animation: keyframes5 1.1142578125s both;
          animation-delay: 4.676920572916666s;
          animation-timing-function: linear;
        }
      
    </style>
    
      <path d="M 210 455 L 208 357 Q 205 246 185 164 Q 151 65 120 24 Q 117 18 84 -19 L 70 -34 Q 66 -40 70 -44 Q 73 -48 80 -45 L 102 -34 Q 113 -27 140 -3 Q 166 21 195 59 Q 223 96 231 125 L 251 208 L 256 240 L 271 441 L 271 469 L 276 533 Q 276 536 278 546 C 281 568 281 568 266 576 L 246 587 Q 197 606 190 596 Q 189 589 190 586 L 198 561 Q 210 535 210 455 Z" fill="lightgray"></path>
    
      <path d="M 406 304 L 398 107 Q 397 74 389 53 Q 380 31 370 28 Q 360 25 346 32 L 291 56 Q 284 59 280 56 Q 276 52 280 46 L 313 10 Q 315 6 322 -3 Q 328 -12 338 -24 Q 348 -37 360 -56 Q 367 -69 371 -70 Q 381 -75 398 -65 Q 414 -55 430 -31 Q 446 -7 452 28 Q 459 59 460 92 L 462 496 Q 461 539 477 563 L 486 578 Q 486 584 482 591 Q 478 597 450 610 Q 422 623 413 622 Q 404 620 376 607 Q 348 593 326 590 L 266 576 C 237 569 248 541 278 546 L 358 560 Q 391 564 399 556 Q 407 548 407 514 L 406 403 L 406 382 L 407 327 L 406 304 Z" fill="lightgray"></path>
    
      <path d="M 271 441 L 286 422 Q 301 403 308 398 Q 315 393 326 382 Q 337 371 362 358 Q 381 353 390 358 Q 399 363 402 370 L 406 382 C 410 395 410 395 406 403 L 399 416 Q 398 419 387 430 Q 374 440 365 443 L 352 448 Q 350 448 322 457 L 271 469 C 244 475 252 465 271 441 Z" fill="lightgray"></path>
    
      <path d="M 251 208 L 264 198 Q 275 188 288 184 Q 300 180 304 184 Q 310 186 315 197 L 319 207 Q 320 209 324 213 Q 334 227 339 232 L 406 304 C 426 326 432 343 407 327 L 333 279 Q 319 271 305 264 Q 285 250 276 248 L 256 240 C 228 229 227 226 251 208 Z" fill="lightgray"></path>
    
      <path d="M 668 437 L 564 423 L 522 420 Q 504 420 503 418 Q 501 415 508 402 Q 516 391 539 383 Q 561 374 569 374 Q 577 374 604 382 Q 631 390 660 396 L 724 412 L 777 419 Q 783 420 816 421 Q 849 422 856 416 Q 863 410 864 389 Q 867 372 859 326 L 840 222 Q 823 151 817 130 Q 782 10 744 4 Q 735 2 714 11 L 678 26 L 660 36 Q 651 41 650 37 Q 647 34 654 28 L 684 -10 Q 696 -27 716 -60 L 735 -86 Q 751 -96 778 -77 Q 804 -58 825 -30 Q 846 -2 856 34 Q 866 70 880 131 L 902 246 Q 914 319 916 324 Q 925 380 939 394 Q 952 408 952 413 Q 953 427 921 457 Q 889 487 872 483 L 822 467 L 795 460 Q 781 456 778 456 L 734 448 L 668 437 Z" fill="lightgray"></path>
    
      <path d="M 700 651 L 696 588 L 668 437 L 660 396 L 649 350 Q 638 301 612 232 Q 586 163 563 121 Q 540 79 509 32 L 460 -40 Q 454 -46 461 -50 Q 468 -55 472 -51 L 485 -44 Q 506 -31 529 -10 Q 552 11 588 69 Q 629 131 652 184 Q 674 236 693 298 L 724 412 L 734 448 L 754 554 Q 766 612 779 631 Q 785 637 785 641 L 786 642 Q 786 649 776 661 Q 765 673 745 685 Q 724 696 712 696 Q 703 698 698 694 Q 693 690 695 678 L 700 651 Z" fill="lightgray"></path>
    
    
      <clipPath id="make-me-a-hanzi-clip-0">
        <path d="M 210 455 L 208 357 Q 205 246 185 164 Q 151 65 120 24 Q 117 18 84 -19 L 70 -34 Q 66 -40 70 -44 Q 73 -48 80 -45 L 102 -34 Q 113 -27 140 -3 Q 166 21 195 59 Q 223 96 231 125 L 251 208 L 256 240 L 271 441 L 271 469 L 276 533 Q 276 536 278 546 C 281 568 281 568 266 576 L 246 587 Q 197 606 190 596 Q 189 589 190 586 L 198 561 Q 210 535 210 455 Z"></path>
      </clipPath>
      <path clip-path="url(#make-me-a-hanzi-clip-0)" d="M 196 591 L 226 566 L 240 541 L 238 374 L 222 206 L 206 138 L 180 80 L 124 2 L 76 -39" fill="none" id="make-me-a-hanzi-animation-0" stroke-dasharray="824 1648" stroke-linecap="round"></path>
    
      <clipPath id="make-me-a-hanzi-clip-1">
        <path d="M 406 304 L 398 107 Q 397 74 389 53 Q 380 31 370 28 Q 360 25 346 32 L 291 56 Q 284 59 280 56 Q 276 52 280 46 L 313 10 Q 315 6 322 -3 Q 328 -12 338 -24 Q 348 -37 360 -56 Q 367 -69 371 -70 Q 381 -75 398 -65 Q 414 -55 430 -31 Q 446 -7 452 28 Q 459 59 460 92 L 462 496 Q 461 539 477 563 L 486 578 Q 486 584 482 591 Q 478 597 450 610 Q 422 623 413 622 Q 404 620 376 607 Q 348 593 326 590 L 266 576 C 237 569 248 541 278 546 L 358 560 Q 391 564 399 556 Q 407 548 407 514 L 406 403 L 406 382 L 407 327 L 406 304 Z"></path>
      </clipPath>
      <path clip-path="url(#make-me-a-hanzi-clip-1)" d="M 274 574 L 295 565 L 411 587 L 436 571 L 437 559 L 429 87 L 421 41 L 404 4 L 385 -14 L 355 -1 L 286 51" fill="none" id="make-me-a-hanzi-animation-1" stroke-dasharray="1015 2030" stroke-linecap="round"></path>
    
      <clipPath id="make-me-a-hanzi-clip-2">
        <path d="M 271 441 L 286 422 Q 301 403 308 398 Q 315 393 326 382 Q 337 371 362 358 Q 381 353 390 358 Q 399 363 402 370 L 406 382 C 410 395 410 395 406 403 L 399 416 Q 398 419 387 430 Q 374 440 365 443 L 352 448 Q 350 448 322 457 L 271 469 C 244 475 252 465 271 441 Z"></path>
      </clipPath>
      <path clip-path="url(#make-me-a-hanzi-clip-2)" d="M 276 462 L 288 447 L 364 400 L 379 381" fill="none" id="make-me-a-hanzi-animation-2" stroke-dasharray="261 522" stroke-linecap="round"></path>
    
      <clipPath id="make-me-a-hanzi-clip-3">
        <path d="M 251 208 L 264 198 Q 275 188 288 184 Q 300 180 304 184 Q 310 186 315 197 L 319 207 Q 320 209 324 213 Q 334 227 339 232 L 406 304 C 426 326 432 343 407 327 L 333 279 Q 319 271 305 264 Q 285 250 276 248 L 256 240 C 228 229 227 226 251 208 Z"></path>
      </clipPath>
      <path clip-path="url(#make-me-a-hanzi-clip-3)" d="M 259 212 L 288 219 L 308 234 L 394 306 L 402 321" fill="none" id="make-me-a-hanzi-animation-3" stroke-dasharray="312 624" stroke-linecap="round"></path>
    
      <clipPath id="make-me-a-hanzi-clip-4">
        <path d="M 668 437 L 564 423 L 522 420 Q 504 420 503 418 Q 501 415 508 402 Q 516 391 539 383 Q 561 374 569 374 Q 577 374 604 382 Q 631 390 660 396 L 724 412 L 777 419 Q 783 420 816 421 Q 849 422 856 416 Q 863 410 864 389 Q 867 372 859 326 L 840 222 Q 823 151 817 130 Q 782 10 744 4 Q 735 2 714 11 L 678 26 L 660 36 Q 651 41 650 37 Q 647 34 654 28 L 684 -10 Q 696 -27 716 -60 L 735 -86 Q 751 -96 778 -77 Q 804 -58 825 -30 Q 846 -2 856 34 Q 866 70 880 131 L 902 246 Q 914 319 916 324 Q 925 380 939 394 Q 952 408 952 413 Q 953 427 921 457 Q 889 487 872 483 L 822 467 L 795 460 Q 781 456 778 456 L 734 448 L 668 437 Z"></path>
      </clipPath>
      <path clip-path="url(#make-me-a-hanzi-clip-4)" d="M 507 415 L 539 402 L 570 399 L 774 438 L 876 447 L 903 415 L 848 126 L 821 37 L 805 6 L 783 -20 L 754 -39 L 655 34" fill="none" id="make-me-a-hanzi-animation-4" stroke-dasharray="1159 2318" stroke-linecap="round"></path>
    
      <clipPath id="make-me-a-hanzi-clip-5">
        <path d="M 700 651 L 696 588 L 668 437 L 660 396 L 649 350 Q 638 301 612 232 Q 586 163 563 121 Q 540 79 509 32 L 460 -40 Q 454 -46 461 -50 Q 468 -55 472 -51 L 485 -44 Q 506 -31 529 -10 Q 552 11 588 69 Q 629 131 652 184 Q 674 236 693 298 L 724 412 L 734 448 L 754 554 Q 766 612 779 631 Q 785 637 785 641 L 786 642 Q 786 649 776 661 Q 765 673 745 685 Q 724 696 712 696 Q 703 698 698 694 Q 693 690 695 678 L 700 651 Z"></path>
      </clipPath>
      <path clip-path="url(#make-me-a-hanzi-clip-5)" d="M 706 686 L 739 641 L 705 461 L 660 284 L 620 178 L 564 73 L 511 -1 L 467 -44" fill="none" id="make-me-a-hanzi-animation-5" stroke-dasharray="934 1868" stroke-linecap="round"></path>
    
  </g>
</svg>