<svg version="1.1" viewBox="0 0 1024 1024" xmlns="http://www.w3.org/2000/svg">
  <g stroke="lightgray" stroke-dasharray="1,1" stroke-width="1" transform="scale(4, 4)">
    <line x1="0" y1="0" x2="256" y2="256"></line>
    <line x1="256" y1="0" x2="0" y2="256"></line>
    <line x1="128" y1="0" x2="128" y2="256"></line>
    <line x1="0" y1="128" x2="256" y2="128"></line>
  </g>
  <g transform="scale(0.92, -0.92) translate(60, -830)">
    <style type="text/css">
      
        @keyframes keyframes0 {
          from {
            stroke: blue;
            stroke-dashoffset: 995;
            stroke-width: 128;
          }
          76% {
            animation-timing-function: step-end;
            stroke: blue;
            stroke-dashoffset: 0;
            stroke-width: 128;
          }
          to {
            stroke: black;
            stroke-width: 1024;
          }
        }
        #make-me-a-hanzi-animation-0 {
          animation: keyframes0 1.0597330729166667s both;
          animation-delay: 0s;
          animation-timing-function: linear;
        }
      
        @keyframes keyframes1 {
          from {
            stroke: blue;
            stroke-dashoffset: 1151;
            stroke-width: 128;
          }
          79% {
            animation-timing-function: step-end;
            stroke: blue;
            stroke-dashoffset: 0;
            stroke-width: 128;
          }
          to {
            stroke: black;
            stroke-width: 1024;
          }
        }
        #make-me-a-hanzi-animation-1 {
          animation: keyframes1 1.1866861979166667s both;
          animation-delay: 1.0597330729166667s;
          animation-timing-function: linear;
        }
      
        @keyframes keyframes2 {
          from {
            stroke: blue;
            stroke-dashoffset: 360;
            stroke-width: 128;
          }
          54% {
            animation-timing-function: step-end;
            stroke: blue;
            stroke-dashoffset: 0;
            stroke-width: 128;
          }
          to {
            stroke: black;
            stroke-width: 1024;
          }
        }
        #make-me-a-hanzi-animation-2 {
          animation: keyframes2 0.54296875s both;
          animation-delay: 2.2464192708333335s;
          animation-timing-function: linear;
        }
      
        @keyframes keyframes3 {
          from {
            stroke: blue;
            stroke-dashoffset: 364;
            stroke-width: 128;
          }
          54% {
            animation-timing-function: step-end;
            stroke: blue;
            stroke-dashoffset: 0;
            stroke-width: 128;
          }
          to {
            stroke: black;
            stroke-width: 1024;
          }
        }
        #make-me-a-hanzi-animation-3 {
          animation: keyframes3 0.5462239583333334s both;
          animation-delay: 2.7893880208333335s;
          animation-timing-function: linear;
        }
      
        @keyframes keyframes4 {
          from {
            stroke: blue;
            stroke-dashoffset: 614;
            stroke-width: 128;
          }
          67% {
            animation-timing-function: step-end;
            stroke: blue;
            stroke-dashoffset: 0;
            stroke-width: 128;
          }
          to {
            stroke: black;
            stroke-width: 1024;
          }
        }
        #make-me-a-hanzi-animation-4 {
          animation: keyframes4 0.7496744791666666s both;
          animation-delay: 3.335611979166667s;
          animation-timing-function: linear;
        }
      
        @keyframes keyframes5 {
          from {
            stroke: blue;
            stroke-dashoffset: 445;
            stroke-width: 128;
          }
          59% {
            animation-timing-function: step-end;
            stroke: blue;
            stroke-dashoffset: 0;
            stroke-width: 128;
          }
          to {
            stroke: black;
            stroke-width: 1024;
          }
        }
        #make-me-a-hanzi-animation-5 {
          animation: keyframes5 0.6121419270833334s both;
          animation-delay: 4.085286458333334s;
          animation-timing-function: linear;
        }
      
        @keyframes keyframes6 {
          from {
            stroke: blue;
            stroke-dashoffset: 704;
            stroke-width: 128;
          }
          70% {
            animation-timing-function: step-end;
            stroke: blue;
            stroke-dashoffset: 0;
            stroke-width: 128;
          }
          to {
            stroke: black;
            stroke-width: 1024;
          }
        }
        #make-me-a-hanzi-animation-6 {
          animation: keyframes6 0.8229166666666666s both;
          animation-delay: 4.697428385416667s;
          animation-timing-function: linear;
        }
      
        @keyframes keyframes7 {
          from {
            stroke: blue;
            stroke-dashoffset: 1135;
            stroke-width: 128;
          }
          79% {
            animation-timing-function: step-end;
            stroke: blue;
            stroke-dashoffset: 0;
            stroke-width: 128;
          }
          to {
            stroke: black;
            stroke-width: 1024;
          }
        }
        #make-me-a-hanzi-animation-7 {
          animation: keyframes7 1.1736653645833333s both;
          animation-delay: 5.520345052083334s;
          animation-timing-function: linear;
        }
      
        @keyframes keyframes8 {
          from {
            stroke: blue;
            stroke-dashoffset: 570;
            stroke-width: 128;
          }
          65% {
            animation-timing-function: step-end;
            stroke: blue;
            stroke-dashoffset: 0;
            stroke-width: 128;
          }
          to {
            stroke: black;
            stroke-width: 1024;
          }
        }
        #make-me-a-hanzi-animation-8 {
          animation: keyframes8 0.7138671875s both;
          animation-delay: 6.694010416666667s;
          animation-timing-function: linear;
        }
      
        @keyframes keyframes9 {
          from {
            stroke: blue;
            stroke-dashoffset: 578;
            stroke-width: 128;
          }
          65% {
            animation-timing-function: step-end;
            stroke: blue;
            stroke-dashoffset: 0;
            stroke-width: 128;
          }
          to {
            stroke: black;
            stroke-width: 1024;
          }
        }
        #make-me-a-hanzi-animation-9 {
          animation: keyframes9 0.7203776041666666s both;
          animation-delay: 7.407877604166667s;
          animation-timing-function: linear;
        }
      
        @keyframes keyframes10 {
          from {
            stroke: blue;
            stroke-dashoffset: 330;
            stroke-width: 128;
          }
          52% {
            animation-timing-function: step-end;
            stroke: blue;
            stroke-dashoffset: 0;
            stroke-width: 128;
          }
          to {
            stroke: black;
            stroke-width: 1024;
          }
        }
        #make-me-a-hanzi-animation-10 {
          animation: keyframes10 0.5185546875s both;
          animation-delay: 8.128255208333334s;
          animation-timing-function: linear;
        }
      
        @keyframes keyframes11 {
          from {
            stroke: blue;
            stroke-dashoffset: 330;
            stroke-width: 128;
          }
          52% {
            animation-timing-function: step-end;
            stroke: blue;
            stroke-dashoffset: 0;
            stroke-width: 128;
          }
          to {
            stroke: black;
            stroke-width: 1024;
          }
        }
        #make-me-a-hanzi-animation-11 {
          animation: keyframes11 0.5185546875s both;
          animation-delay: 8.646809895833334s;
          animation-timing-function: linear;
        }
      
        @keyframes keyframes12 {
          from {
            stroke: blue;
            stroke-dashoffset: 556;
            stroke-width: 128;
          }
          64% {
            animation-timing-function: step-end;
            stroke: blue;
            stroke-dashoffset: 0;
            stroke-width: 128;
          }
          to {
            stroke: black;
            stroke-width: 1024;
          }
        }
        #make-me-a-hanzi-animation-12 {
          animation: keyframes12 0.7024739583333334s both;
          animation-delay: 9.165364583333334s;
          animation-timing-function: linear;
        }
      
    </style>
    
      <path d="M 147 627 Q 135 627 135 618 Q 135 612 140 598 Q 156 560 156 383 Q 156 183 127 80 Q 105 -3 69 -56 Q 51 -80 51 -85 Q 51 -89 59 -89 Q 78 -89 121 -35 Q 160 22 180 119 Q 189 163 195 235 L 197 262 Q 200 319 200 395 L 200 423 L 203 567 C 204 597 204 598 195 604 Q 189 608 181 613 Q 161 627 147 627 Z" fill="lightgray"></path>
    
      <path d="M 311 245 Q 310 33 307 14 Q 303 -9 296 -9 Q 287 -9 260 6 Q 243 14 236 14 Q 227 14 227 7 Q 227 2 231 -2 Q 278 -69 298 -104 Q 308 -121 315 -121 Q 335 -121 354 -47 Q 368 3 368 97 Q 359 295 359 484 Q 359 540 372 570 Q 380 590 380 599 Q 380 613 349 632 Q 323 647 307 647 Q 303 647 291 638 Q 266 620 242 612 Q 222 606 195 604 C 165 600 174 559 203 567 Q 205 566 208 566 Q 212 566 244 581 Q 279 595 288 595 Q 301 595 305 579 Q 311 556 311 484 L 311 440 L 311 408 L 311 276 L 311 245 Z" fill="lightgray"></path>
    
      <path d="M 200 395 Q 216 391 231 391 Q 242 391 307 406 L 311 408 C 338 421 337 426 311 440 Q 304 445 284 446 Q 276 446 267 443 Q 229 430 200 423 C 171 416 171 402 200 395 Z" fill="lightgray"></path>
    
      <path d="M 195 235 Q 212 230 227 230 Q 238 230 307 243 L 311 245 C 338 258 337 262 311 276 Q 304 281 284 282 Q 276 282 266 279 Q 227 268 197 262 C 168 256 166 243 195 235 Z" fill="lightgray"></path>
    
      <path d="M 768 639 Q 756 639 728 628 Q 659 603 471 578 Q 460 576 460 566 Q 460 559 484 552 Q 512 543 536 543 Q 552 543 581 549 Q 587 550 594 551 L 645 559 Q 690 566 764 578 Q 790 582 819 594 Q 835 601 836 614 Q 831 637 768 639 Z" fill="lightgray"></path>
    
      <path d="M 594 551 Q 596 543 596 530 Q 596 502 563 383 C 555 354 577 362 591 388 Q 593 392 597 399 Q 655 495 668 512 Q 680 524 680 526 Q 680 537 645 559 C 620 575 589 581 594 551 Z" fill="lightgray"></path>
    
      <path d="M 484 368 Q 480 375 469 378 Q 454 383 427 383 Q 412 383 412 375 Q 412 366 420 346 Q 434 316 441 262 Q 455 189 462 8 Q 465 -64 487 -66 Q 501 -66 504 -4 L 504 28 Q 503 136 496 341 L 484 368 Z" fill="lightgray"></path>
    
      <path d="M 563 383 Q 517 374 484 368 C 455 363 466 336 496 341 Q 515 344 561 352 L 601 360 Q 610 361 622 363 Q 658 371 688 376 L 726 382 Q 785 391 808 391 Q 844 391 844 350 Q 844 192 831 94 Q 824 57 810 42 C 795 16 753 49 766 22 Q 791 -26 802 -58 Q 811 -85 815 -85 Q 850 -85 878 13 Q 897 83 903 297 Q 906 348 921 376 Q 932 395 932 398 Q 932 411 897 432 Q 860 450 844 450 Q 838 450 820 442 Q 776 429 657 403 Q 624 395 591 388 L 563 383 Z" fill="lightgray"></path>
    
      <path d="M 561 352 Q 573 262 575 41 C 575 11 615 18 615 48 L 615 136 L 615 166 Q 616 206 616 235 L 616 268 Q 616 295 617 305 Q 620 326 620 335 Q 620 346 601 360 C 578 379 557 382 561 352 Z" fill="lightgray"></path>
    
      <path d="M 695 141 L 695 61 C 695 31 731 37 733 67 Q 742 188 746 289 Q 750 332 756 358 Q 756 367 726 382 C 699 396 680 405 688 376 Q 695 354 695 335 L 695 274 L 695 247 L 695 174 L 695 141 Z" fill="lightgray"></path>
    
      <path d="M 616 235 Q 618 234 624 234 Q 658 240 695 247 C 724 253 720 257 695 274 Q 694 275 692 276 Q 680 282 664 282 Q 660 282 616 268 C 587 259 587 242 616 235 Z" fill="lightgray"></path>
    
      <path d="M 615 136 Q 620 135 628 135 Q 660 138 695 141 C 725 144 723 164 695 174 Q 685 178 672 178 Q 668 178 615 166 C 586 159 585 141 615 136 Z" fill="lightgray"></path>
    
      <path d="M 504 -4 Q 512 -9 523 -9 Q 642 6 766 22 C 796 26 816 28 810 42 L 810 43 Q 810 51 792 62 Q 776 70 756 70 Q 753 70 733 67 L 695 61 Q 665 56 615 48 L 575 41 Q 543 36 504 28 C 475 22 476 8 504 -4 Z" fill="lightgray"></path>
    
    
      <clipPath id="make-me-a-hanzi-clip-0">
        <path d="M 147 627 Q 135 627 135 618 Q 135 612 140 598 Q 156 560 156 383 Q 156 183 127 80 Q 105 -3 69 -56 Q 51 -80 51 -85 Q 51 -89 59 -89 Q 78 -89 121 -35 Q 160 22 180 119 Q 189 163 195 235 L 197 262 Q 200 319 200 395 L 200 423 L 203 567 C 204 597 204 598 195 604 Q 189 608 181 613 Q 161 627 147 627 Z"></path>
      </clipPath>
      <path clip-path="url(#make-me-a-hanzi-clip-0)" d="M 146 616 L 171 585 L 177 546 L 178 324 L 170 195 L 154 98 L 127 13 L 82 -62 L 57 -84" fill="none" id="make-me-a-hanzi-animation-0" stroke-dasharray="867 1734" stroke-linecap="round"></path>
    
      <clipPath id="make-me-a-hanzi-clip-1">
        <path d="M 311 245 Q 310 33 307 14 Q 303 -9 296 -9 Q 287 -9 260 6 Q 243 14 236 14 Q 227 14 227 7 Q 227 2 231 -2 Q 278 -69 298 -104 Q 308 -121 315 -121 Q 335 -121 354 -47 Q 368 3 368 97 Q 359 295 359 484 Q 359 540 372 570 Q 380 590 380 599 Q 380 613 349 632 Q 323 647 307 647 Q 303 647 291 638 Q 266 620 242 612 Q 222 606 195 604 C 165 600 174 559 203 567 Q 205 566 208 566 Q 212 566 244 581 Q 279 595 288 595 Q 301 595 305 579 Q 311 556 311 484 L 311 440 L 311 408 L 311 276 L 311 245 Z"></path>
      </clipPath>
      <path clip-path="url(#make-me-a-hanzi-clip-1)" d="M 207 574 L 216 588 L 297 616 L 316 615 L 341 591 L 335 536 L 336 10 L 327 -24 L 312 -48 L 286 -35 L 235 5" fill="none" id="make-me-a-hanzi-animation-1" stroke-dasharray="1023 2046" stroke-linecap="round"></path>
    
      <clipPath id="make-me-a-hanzi-clip-2">
        <path d="M 200 395 Q 216 391 231 391 Q 242 391 307 406 L 311 408 C 338 421 337 426 311 440 Q 304 445 284 446 Q 276 446 267 443 Q 229 430 200 423 C 171 416 171 402 200 395 Z"></path>
      </clipPath>
      <path clip-path="url(#make-me-a-hanzi-clip-2)" d="M 208 416 L 218 409 L 288 423 L 306 413" fill="none" id="make-me-a-hanzi-animation-2" stroke-dasharray="232 464" stroke-linecap="round"></path>
    
      <clipPath id="make-me-a-hanzi-clip-3">
        <path d="M 195 235 Q 212 230 227 230 Q 238 230 307 243 L 311 245 C 338 258 337 262 311 276 Q 304 281 284 282 Q 276 282 266 279 Q 227 268 197 262 C 168 256 166 243 195 235 Z"></path>
      </clipPath>
      <path clip-path="url(#make-me-a-hanzi-clip-3)" d="M 202 241 L 213 248 L 289 261 L 305 253" fill="none" id="make-me-a-hanzi-animation-3" stroke-dasharray="236 472" stroke-linecap="round"></path>
    
      <clipPath id="make-me-a-hanzi-clip-4">
        <path d="M 768 639 Q 756 639 728 628 Q 659 603 471 578 Q 460 576 460 566 Q 460 559 484 552 Q 512 543 536 543 Q 552 543 581 549 Q 587 550 594 551 L 645 559 Q 690 566 764 578 Q 790 582 819 594 Q 835 601 836 614 Q 831 637 768 639 Z"></path>
      </clipPath>
      <path clip-path="url(#make-me-a-hanzi-clip-4)" d="M 469 567 L 553 566 L 759 608 L 823 613" fill="none" id="make-me-a-hanzi-animation-4" stroke-dasharray="486 972" stroke-linecap="round"></path>
    
      <clipPath id="make-me-a-hanzi-clip-5">
        <path d="M 594 551 Q 596 543 596 530 Q 596 502 563 383 C 555 354 577 362 591 388 Q 593 392 597 399 Q 655 495 668 512 Q 680 524 680 526 Q 680 537 645 559 C 620 575 589 581 594 551 Z"></path>
      </clipPath>
      <path clip-path="url(#make-me-a-hanzi-clip-5)" d="M 673 527 L 631 521 L 591 417 L 582 399 L 568 394" fill="none" id="make-me-a-hanzi-animation-5" stroke-dasharray="317 634" stroke-linecap="round"></path>
    
      <clipPath id="make-me-a-hanzi-clip-6">
        <path d="M 484 368 Q 480 375 469 378 Q 454 383 427 383 Q 412 383 412 375 Q 412 366 420 346 Q 434 316 441 262 Q 455 189 462 8 Q 465 -64 487 -66 Q 501 -66 504 -4 L 504 28 Q 503 136 496 341 L 484 368 Z"></path>
      </clipPath>
      <path clip-path="url(#make-me-a-hanzi-clip-6)" d="M 423 372 L 457 346 L 462 334 L 478 168 L 486 -57" fill="none" id="make-me-a-hanzi-animation-6" stroke-dasharray="576 1152" stroke-linecap="round"></path>
    
      <clipPath id="make-me-a-hanzi-clip-7">
        <path d="M 563 383 Q 517 374 484 368 C 455 363 466 336 496 341 Q 515 344 561 352 L 601 360 Q 610 361 622 363 Q 658 371 688 376 L 726 382 Q 785 391 808 391 Q 844 391 844 350 Q 844 192 831 94 Q 824 57 810 42 C 795 16 753 49 766 22 Q 791 -26 802 -58 Q 811 -85 815 -85 Q 850 -85 878 13 Q 897 83 903 297 Q 906 348 921 376 Q 932 395 932 398 Q 932 411 897 432 Q 860 450 844 450 Q 838 450 820 442 Q 776 429 657 403 Q 624 395 591 388 L 563 383 Z"></path>
      </clipPath>
      <path clip-path="url(#make-me-a-hanzi-clip-7)" d="M 491 363 L 508 357 L 534 361 L 813 415 L 846 415 L 880 389 L 864 114 L 853 51 L 827 0 L 826 -52 L 818 -77" fill="none" id="make-me-a-hanzi-animation-7" stroke-dasharray="1007 2014" stroke-linecap="round"></path>
    
      <clipPath id="make-me-a-hanzi-clip-8">
        <path d="M 561 352 Q 573 262 575 41 C 575 11 615 18 615 48 L 615 136 L 615 166 Q 616 206 616 235 L 616 268 Q 616 295 617 305 Q 620 326 620 335 Q 620 346 601 360 C 578 379 557 382 561 352 Z"></path>
      </clipPath>
      <path clip-path="url(#make-me-a-hanzi-clip-8)" d="M 569 348 L 592 329 L 595 65 L 580 52" fill="none" id="make-me-a-hanzi-animation-8" stroke-dasharray="442 884" stroke-linecap="round"></path>
    
      <clipPath id="make-me-a-hanzi-clip-9">
        <path d="M 695 141 L 695 61 C 695 31 731 37 733 67 Q 742 188 746 289 Q 750 332 756 358 Q 756 367 726 382 C 699 396 680 405 688 376 Q 695 354 695 335 L 695 274 L 695 247 L 695 174 L 695 141 Z"></path>
      </clipPath>
      <path clip-path="url(#make-me-a-hanzi-clip-9)" d="M 695 370 L 724 349 L 715 94 L 714 84 L 700 68" fill="none" id="make-me-a-hanzi-animation-9" stroke-dasharray="450 900" stroke-linecap="round"></path>
    
      <clipPath id="make-me-a-hanzi-clip-10">
        <path d="M 616 235 Q 618 234 624 234 Q 658 240 695 247 C 724 253 720 257 695 274 Q 694 275 692 276 Q 680 282 664 282 Q 660 282 616 268 C 587 259 587 242 616 235 Z"></path>
      </clipPath>
      <path clip-path="url(#make-me-a-hanzi-clip-10)" d="M 621 241 L 635 255 L 688 267" fill="none" id="make-me-a-hanzi-animation-10" stroke-dasharray="202 404" stroke-linecap="round"></path>
    
      <clipPath id="make-me-a-hanzi-clip-11">
        <path d="M 615 136 Q 620 135 628 135 Q 660 138 695 141 C 725 144 723 164 695 174 Q 685 178 672 178 Q 668 178 615 166 C 586 159 585 141 615 136 Z"></path>
      </clipPath>
      <path clip-path="url(#make-me-a-hanzi-clip-11)" d="M 622 144 L 633 152 L 676 159 L 688 147" fill="none" id="make-me-a-hanzi-animation-11" stroke-dasharray="202 404" stroke-linecap="round"></path>
    
      <clipPath id="make-me-a-hanzi-clip-12">
        <path d="M 504 -4 Q 512 -9 523 -9 Q 642 6 766 22 C 796 26 816 28 810 42 L 810 43 Q 810 51 792 62 Q 776 70 756 70 Q 753 70 733 67 L 695 61 Q 665 56 615 48 L 575 41 Q 543 36 504 28 C 475 22 476 8 504 -4 Z"></path>
      </clipPath>
      <path clip-path="url(#make-me-a-hanzi-clip-12)" d="M 511 1 L 528 12 L 627 28 L 770 48 L 793 49 L 803 43" fill="none" id="make-me-a-hanzi-animation-12" stroke-dasharray="428 856" stroke-linecap="round"></path>
    
  </g>
</svg>