<svg xmlns="http://www.w3.org/2000/svg" version="1.1" viewBox="0 0 1024 1024">
  <g stroke="lightgray" stroke-dasharray="1,1" stroke-width="1" transform="scale(4, 4)">
    <line x1="0" y1="0" x2="256" y2="256" />
    <line x1="256" y1="0" x2="0" y2="256" />
    <line x1="128" y1="0" x2="128" y2="256" />
    <line x1="0" y1="128" x2="256" y2="128" />
  </g>
  <g transform="scale(1.0, -1.0) translate(0.0, -829.00)">
    <style type="text/css">
      
        @keyframes keyframes0 {
          from {
            stroke: blue;
            stroke-dashoffset: 942;
            stroke-width: 128;
          }
          75% {
            animation-timing-function: step-end;
            stroke: blue;
            stroke-dashoffset: 0;
            stroke-width: 128;
          }
          to {
            stroke: black;
            stroke-width: 1024;
          }
        }
        #make-me-a-hanzi-animation-0 {
          animation: keyframes0 1.0166015625s both;
          animation-delay: 0s;
          animation-timing-function: linear;
        }
      
        @keyframes keyframes1 {
          from {
            stroke: blue;
            stroke-dashoffset: 1123;
            stroke-width: 128;
          }
          79% {
            animation-timing-function: step-end;
            stroke: blue;
            stroke-dashoffset: 0;
            stroke-width: 128;
          }
          to {
            stroke: black;
            stroke-width: 1024;
          }
        }
        #make-me-a-hanzi-animation-1 {
          animation: keyframes1 1.1638997395833333s both;
          animation-delay: 1.0166015625s;
          animation-timing-function: linear;
        }
      
        @keyframes keyframes2 {
          from {
            stroke: blue;
            stroke-dashoffset: 333;
            stroke-width: 128;
          }
          52% {
            animation-timing-function: step-end;
            stroke: blue;
            stroke-dashoffset: 0;
            stroke-width: 128;
          }
          to {
            stroke: black;
            stroke-width: 1024;
          }
        }
        #make-me-a-hanzi-animation-2 {
          animation: keyframes2 0.52099609375s both;
          animation-delay: 2.180501302083333s;
          animation-timing-function: linear;
        }
      
        @keyframes keyframes3 {
          from {
            stroke: blue;
            stroke-dashoffset: 349;
            stroke-width: 128;
          }
          53% {
            animation-timing-function: step-end;
            stroke: blue;
            stroke-dashoffset: 0;
            stroke-width: 128;
          }
          to {
            stroke: black;
            stroke-width: 1024;
          }
        }
        #make-me-a-hanzi-animation-3 {
          animation: keyframes3 0.5340169270833334s both;
          animation-delay: 2.701497395833333s;
          animation-timing-function: linear;
        }
      
        @keyframes keyframes4 {
          from {
            stroke: blue;
            stroke-dashoffset: 350;
            stroke-width: 128;
          }
          53% {
            animation-timing-function: step-end;
            stroke: blue;
            stroke-dashoffset: 0;
            stroke-width: 128;
          }
          to {
            stroke: black;
            stroke-width: 1024;
          }
        }
        #make-me-a-hanzi-animation-4 {
          animation: keyframes4 0.5348307291666666s both;
          animation-delay: 3.2355143229166665s;
          animation-timing-function: linear;
        }
      
        @keyframes keyframes5 {
          from {
            stroke: blue;
            stroke-dashoffset: 397;
            stroke-width: 128;
          }
          56% {
            animation-timing-function: step-end;
            stroke: blue;
            stroke-dashoffset: 0;
            stroke-width: 128;
          }
          to {
            stroke: black;
            stroke-width: 1024;
          }
        }
        #make-me-a-hanzi-animation-5 {
          animation: keyframes5 0.5730794270833334s both;
          animation-delay: 3.770345052083333s;
          animation-timing-function: linear;
        }
      
        @keyframes keyframes6 {
          from {
            stroke: blue;
            stroke-dashoffset: 539;
            stroke-width: 128;
          }
          64% {
            animation-timing-function: step-end;
            stroke: blue;
            stroke-dashoffset: 0;
            stroke-width: 128;
          }
          to {
            stroke: black;
            stroke-width: 1024;
          }
        }
        #make-me-a-hanzi-animation-6 {
          animation: keyframes6 0.6886393229166666s both;
          animation-delay: 4.343424479166666s;
          animation-timing-function: linear;
        }
      
        @keyframes keyframes7 {
          from {
            stroke: blue;
            stroke-dashoffset: 739;
            stroke-width: 128;
          }
          71% {
            animation-timing-function: step-end;
            stroke: blue;
            stroke-dashoffset: 0;
            stroke-width: 128;
          }
          to {
            stroke: black;
            stroke-width: 1024;
          }
        }
        #make-me-a-hanzi-animation-7 {
          animation: keyframes7 0.8513997395833334s both;
          animation-delay: 5.032063802083333s;
          animation-timing-function: linear;
        }
      
        @keyframes keyframes8 {
          from {
            stroke: blue;
            stroke-dashoffset: 860;
            stroke-width: 128;
          }
          74% {
            animation-timing-function: step-end;
            stroke: blue;
            stroke-dashoffset: 0;
            stroke-width: 128;
          }
          to {
            stroke: black;
            stroke-width: 1024;
          }
        }
        #make-me-a-hanzi-animation-8 {
          animation: keyframes8 0.9498697916666666s both;
          animation-delay: 5.883463541666666s;
          animation-timing-function: linear;
        }
      
        @keyframes keyframes9 {
          from {
            stroke: blue;
            stroke-dashoffset: 627;
            stroke-width: 128;
          }
          67% {
            animation-timing-function: step-end;
            stroke: blue;
            stroke-dashoffset: 0;
            stroke-width: 128;
          }
          to {
            stroke: black;
            stroke-width: 1024;
          }
        }
        #make-me-a-hanzi-animation-9 {
          animation: keyframes9 0.76025390625s both;
          animation-delay: 6.833333333333333s;
          animation-timing-function: linear;
        }
      
        @keyframes keyframes10 {
          from {
            stroke: blue;
            stroke-dashoffset: 604;
            stroke-width: 128;
          }
          66% {
            animation-timing-function: step-end;
            stroke: blue;
            stroke-dashoffset: 0;
            stroke-width: 128;
          }
          to {
            stroke: black;
            stroke-width: 1024;
          }
        }
        #make-me-a-hanzi-animation-10 {
          animation: keyframes10 0.7415364583333334s both;
          animation-delay: 7.593587239583333s;
          animation-timing-function: linear;
        }
      
        @keyframes keyframes11 {
          from {
            stroke: blue;
            stroke-dashoffset: 1035;
            stroke-width: 128;
          }
          77% {
            animation-timing-function: step-end;
            stroke: blue;
            stroke-dashoffset: 0;
            stroke-width: 128;
          }
          to {
            stroke: black;
            stroke-width: 1024;
          }
        }
        #make-me-a-hanzi-animation-11 {
          animation: keyframes11 1.09228515625s both;
          animation-delay: 8.335123697916666s;
          animation-timing-function: linear;
        }
      
        @keyframes keyframes12 {
          from {
            stroke: blue;
            stroke-dashoffset: 613;
            stroke-width: 128;
          }
          67% {
            animation-timing-function: step-end;
            stroke: blue;
            stroke-dashoffset: 0;
            stroke-width: 128;
          }
          to {
            stroke: black;
            stroke-width: 1024;
          }
        }
        #make-me-a-hanzi-animation-12 {
          animation: keyframes12 0.7488606770833334s both;
          animation-delay: 9.427408854166666s;
          animation-timing-function: linear;
        }
      
    </style>
    
      <path d="M 187 655 Q 177 662 162 666 Q 146 673 134 668 Q 125 661 132 650 Q 186 583 145 303 Q 139 278 134 253 Q 107 153 43 27 Q 39 21 39 16 Q 38 6 46 9 Q 85 25 147 164 Q 151 180 158 195 Q 174 247 186 306 L 191 334 Q 198 368 202 452 L 203 485 Q 203 617 208 628 C 210 644 210 644 187 655 Z" fill="lightgray" />
    
      <path d="M 351 39 Q 352 52 352 65 Q 342 249 340 549 Q 339 601 352 624 Q 364 642 352 652 Q 333 668 300 683 Q 284 690 269 683 Q 247 670 233 666 L 187 655 C 158 648 179 620 208 628 Q 232 634 258 642 Q 277 645 282 634 Q 297 595 297 307 Q 297 78 282 53 Q 276 49 206 60 Q 187 64 189 56 Q 244 16 277 -15 Q 290 -31 304 -35 Q 311 -39 319 -29 Q 341 1 348 27 L 351 39 Z" fill="lightgray" />
    
      <path d="M 202 452 L 275 469 Q 294 476 286 486 Q 274 496 252 498 Q 233 498 203 485 C 175 473 173 445 202 452 Z" fill="lightgray" />
    
      <path d="M 186 306 L 192 306 L 273 318 Q 294 322 285 333 Q 275 346 252 348 Q 209 351 191 334 C 168 314 158 306 186 306 Z" fill="lightgray" />
    
      <path d="M 446 635 Q 485 592 496 591 Q 505 591 509 601 Q 513 611 509 635 Q 503 653 445 673 Q 433 676 428 674 Q 424 673 424 662 Q 427 653 446 635 Z" fill="lightgray" />
    
      <path d="M 701 702 Q 692 687 639 635 Q 630 623 643 624 Q 658 630 729 665 Q 745 675 764 681 Q 780 687 774 701 Q 765 714 747 728 Q 731 741 720 739 Q 710 739 712 729 Q 713 714 701 702 Z" fill="lightgray" />
    
      <path d="M 570 530 Q 720 563 722 564 Q 729 571 726 578 Q 720 588 696 595 Q 671 601 644 591 Q 613 581 581 572 L 533 562 Q 491 556 448 552 Q 417 548 439 532 Q 475 513 521 520 L 570 530 Z" fill="lightgray" />
    
      <path d="M 531 425 Q 579 437 650 441 L 679 443 Q 734 449 829 448 Q 848 449 851 457 Q 855 467 841 479 Q 789 516 742 501 Q 681 488 584 470 Q 565 467 547 463 L 497 455 L 367 436 Q 348 435 362 419 Q 375 407 391 402 Q 410 398 424 402 Q 449 409 481 416 L 531 425 Z" fill="lightgray" />
    
      <path d="M 483 337 Q 507 374 529 420 Q 530 423 531 425 L 547 463 Q 557 494 570 530 L 581 572 Q 597 659 625 705 Q 634 718 629 727 Q 614 751 568 761 Q 555 765 540 757 Q 530 747 540 738 Q 561 719 555 658 Q 540 586 533 562 L 521 520 L 497 455 L 481 416 Q 441 335 360 236 Q 351 221 362 220 Q 366 219 377 227 Q 425 261 475 325 L 483 337 Z" fill="lightgray" />
    
      <path d="M 650 441 L 653 438 Q 780 273 821 257 Q 884 248 968 260 Q 984 261 986 266 Q 987 272 975 277 Q 803 343 726 403 Q 720 407 679 443 C 656 463 631 464 650 441 Z" fill="lightgray" />
    
      <path d="M 647 178 Q 656 187 670 255 Q 679 297 705 322 Q 718 335 705 347 Q 690 359 649 376 Q 645 377 486 338 Q 485 338 483 337 C 464 332 464 332 475 325 Q 476 324 482 320 Q 506 308 535 317 Q 605 342 629 335 Q 636 331 635 308 Q 626 223 620 204 Q 616 191 623 174 C 631 149 632 152 647 178 Z" fill="lightgray" />
    
      <path d="M 500 110 Q 563 141 712 150 Q 730 151 736 145 Q 755 126 719 -19 Q 715 -35 703 -43 Q 697 -46 633 -34 Q 620 -28 619 -35 Q 618 -42 634 -54 Q 662 -84 674 -109 Q 686 -131 703 -119 Q 748 -92 766 -35 Q 769 -22 773 -7 Q 803 122 815 131 Q 828 144 822 153 Q 813 163 773 185 Q 752 195 727 191 Q 702 184 671 182 Q 658 181 647 178 L 623 174 Q 577 168 533 157 Q 511 153 513 167 Q 523 227 533 252 Q 537 265 530 273 Q 517 283 506 289 Q 488 296 481 292 Q 475 288 480 278 Q 495 253 479 183 Q 473 171 455 150 Q 446 140 453 129 Q 460 120 478 107 Q 487 100 500 110 Z" fill="lightgray" />
    
      <path d="M 537 30 Q 559 31 580 35 Q 635 41 696 38 Q 712 37 715 43 Q 719 52 711 59 Q 690 77 661 88 Q 651 91 634 85 Q 619 84 427 49 Q 399 43 357 41 Q 353 41 351 39 C 339 36 339 36 348 27 Q 355 15 393 1 Q 400 0 412 5 Q 446 20 537 30 Z" fill="lightgray" />
    
    
      <clipPath id="make-me-a-hanzi-clip-0">
        <path d="M 187 655 Q 177 662 162 666 Q 146 673 134 668 Q 125 661 132 650 Q 186 583 145 303 Q 139 278 134 253 Q 107 153 43 27 Q 39 21 39 16 Q 38 6 46 9 Q 85 25 147 164 Q 151 180 158 195 Q 174 247 186 306 L 191 334 Q 198 368 202 452 L 203 485 Q 203 617 208 628 C 210 644 210 644 187 655 Z" />
      </clipPath>
      <path clip-path="url(#make-me-a-hanzi-clip-0)" d="M 141 658 L 163 642 L 178 621 L 184 549 L 182 443 L 166 303 L 146 220 L 117 139 L 75 58 L 46 16" fill="none" id="make-me-a-hanzi-animation-0" stroke-dasharray="814 1628" stroke-linecap="round" />
    
      <clipPath id="make-me-a-hanzi-clip-1">
        <path d="M 351 39 Q 352 52 352 65 Q 342 249 340 549 Q 339 601 352 624 Q 364 642 352 652 Q 333 668 300 683 Q 284 690 269 683 Q 247 670 233 666 L 187 655 C 158 648 179 620 208 628 Q 232 634 258 642 Q 277 645 282 634 Q 297 595 297 307 Q 297 78 282 53 Q 276 49 206 60 Q 187 64 189 56 Q 244 16 277 -15 Q 290 -31 304 -35 Q 311 -39 319 -29 Q 341 1 348 27 L 351 39 Z" />
      </clipPath>
      <path clip-path="url(#make-me-a-hanzi-clip-1)" d="M 195 654 L 214 646 L 282 663 L 309 647 L 318 633 L 322 202 L 320 69 L 306 23 L 299 18 L 271 25 L 198 54" fill="none" id="make-me-a-hanzi-animation-1" stroke-dasharray="995 1990" stroke-linecap="round" />
    
      <clipPath id="make-me-a-hanzi-clip-2">
        <path d="M 202 452 L 275 469 Q 294 476 286 486 Q 274 496 252 498 Q 233 498 203 485 C 175 473 173 445 202 452 Z" />
      </clipPath>
      <path clip-path="url(#make-me-a-hanzi-clip-2)" d="M 208 457 L 229 477 L 277 480" fill="none" id="make-me-a-hanzi-animation-2" stroke-dasharray="205 410" stroke-linecap="round" />
    
      <clipPath id="make-me-a-hanzi-clip-3">
        <path d="M 186 306 L 192 306 L 273 318 Q 294 322 285 333 Q 275 346 252 348 Q 209 351 191 334 C 168 314 158 306 186 306 Z" />
      </clipPath>
      <path clip-path="url(#make-me-a-hanzi-clip-3)" d="M 189 313 L 214 328 L 256 332 L 277 327" fill="none" id="make-me-a-hanzi-animation-3" stroke-dasharray="221 442" stroke-linecap="round" />
    
      <clipPath id="make-me-a-hanzi-clip-4">
        <path d="M 446 635 Q 485 592 496 591 Q 505 591 509 601 Q 513 611 509 635 Q 503 653 445 673 Q 433 676 428 674 Q 424 673 424 662 Q 427 653 446 635 Z" />
      </clipPath>
      <path clip-path="url(#make-me-a-hanzi-clip-4)" d="M 432 666 L 478 635 L 497 602" fill="none" id="make-me-a-hanzi-animation-4" stroke-dasharray="222 444" stroke-linecap="round" />
    
      <clipPath id="make-me-a-hanzi-clip-5">
        <path d="M 701 702 Q 692 687 639 635 Q 630 623 643 624 Q 658 630 729 665 Q 745 675 764 681 Q 780 687 774 701 Q 765 714 747 728 Q 731 741 720 739 Q 710 739 712 729 Q 713 714 701 702 Z" />
      </clipPath>
      <path clip-path="url(#make-me-a-hanzi-clip-5)" d="M 762 694 L 734 699 L 644 631" fill="none" id="make-me-a-hanzi-animation-5" stroke-dasharray="269 538" stroke-linecap="round" />
    
      <clipPath id="make-me-a-hanzi-clip-6">
        <path d="M 570 530 Q 720 563 722 564 Q 729 571 726 578 Q 720 588 696 595 Q 671 601 644 591 Q 613 581 581 572 L 533 562 Q 491 556 448 552 Q 417 548 439 532 Q 475 513 521 520 L 570 530 Z" />
      </clipPath>
      <path clip-path="url(#make-me-a-hanzi-clip-6)" d="M 441 543 L 511 538 L 677 576 L 719 573" fill="none" id="make-me-a-hanzi-animation-6" stroke-dasharray="411 822" stroke-linecap="round" />
    
      <clipPath id="make-me-a-hanzi-clip-7">
        <path d="M 531 425 Q 579 437 650 441 L 679 443 Q 734 449 829 448 Q 848 449 851 457 Q 855 467 841 479 Q 789 516 742 501 Q 681 488 584 470 Q 565 467 547 463 L 497 455 L 367 436 Q 348 435 362 419 Q 375 407 391 402 Q 410 398 424 402 Q 449 409 481 416 L 531 425 Z" />
      </clipPath>
      <path clip-path="url(#make-me-a-hanzi-clip-7)" d="M 364 428 L 400 420 L 425 423 L 613 458 L 755 476 L 796 475 L 840 462" fill="none" id="make-me-a-hanzi-animation-7" stroke-dasharray="611 1222" stroke-linecap="round" />
    
      <clipPath id="make-me-a-hanzi-clip-8">
        <path d="M 483 337 Q 507 374 529 420 Q 530 423 531 425 L 547 463 Q 557 494 570 530 L 581 572 Q 597 659 625 705 Q 634 718 629 727 Q 614 751 568 761 Q 555 765 540 757 Q 530 747 540 738 Q 561 719 555 658 Q 540 586 533 562 L 521 520 L 497 455 L 481 416 Q 441 335 360 236 Q 351 221 362 220 Q 366 219 377 227 Q 425 261 475 325 L 483 337 Z" />
      </clipPath>
      <path clip-path="url(#make-me-a-hanzi-clip-8)" d="M 547 748 L 571 736 L 590 716 L 563 585 L 529 476 L 493 393 L 455 330 L 415 279 L 363 228" fill="none" id="make-me-a-hanzi-animation-8" stroke-dasharray="732 1464" stroke-linecap="round" />
    
      <clipPath id="make-me-a-hanzi-clip-9">
        <path d="M 650 441 L 653 438 Q 780 273 821 257 Q 884 248 968 260 Q 984 261 986 266 Q 987 272 975 277 Q 803 343 726 403 Q 720 407 679 443 C 656 463 631 464 650 441 Z" />
      </clipPath>
      <path clip-path="url(#make-me-a-hanzi-clip-9)" d="M 662 429 L 681 427 L 685 416 L 733 370 L 829 297 L 910 277 L 979 270" fill="none" id="make-me-a-hanzi-animation-9" stroke-dasharray="499 998" stroke-linecap="round" />
    
      <clipPath id="make-me-a-hanzi-clip-10">
        <path d="M 647 178 Q 656 187 670 255 Q 679 297 705 322 Q 718 335 705 347 Q 690 359 649 376 Q 645 377 486 338 Q 485 338 483 337 C 464 332 464 332 475 325 Q 476 324 482 320 Q 506 308 535 317 Q 605 342 629 335 Q 636 331 635 308 Q 626 223 620 204 Q 616 191 623 174 C 631 149 632 152 647 178 Z" />
      </clipPath>
      <path clip-path="url(#make-me-a-hanzi-clip-10)" d="M 483 328 L 542 333 L 553 341 L 623 354 L 649 350 L 663 337 L 666 323 L 646 229 L 628 184" fill="none" id="make-me-a-hanzi-animation-10" stroke-dasharray="476 952" stroke-linecap="round" />
    
      <clipPath id="make-me-a-hanzi-clip-11">
        <path d="M 500 110 Q 563 141 712 150 Q 730 151 736 145 Q 755 126 719 -19 Q 715 -35 703 -43 Q 697 -46 633 -34 Q 620 -28 619 -35 Q 618 -42 634 -54 Q 662 -84 674 -109 Q 686 -131 703 -119 Q 748 -92 766 -35 Q 769 -22 773 -7 Q 803 122 815 131 Q 828 144 822 153 Q 813 163 773 185 Q 752 195 727 191 Q 702 184 671 182 Q 658 181 647 178 L 623 174 Q 577 168 533 157 Q 511 153 513 167 Q 523 227 533 252 Q 537 265 530 273 Q 517 283 506 289 Q 488 296 481 292 Q 475 288 480 278 Q 495 253 479 183 Q 473 171 455 150 Q 446 140 453 129 Q 460 120 478 107 Q 487 100 500 110 Z" />
      </clipPath>
      <path clip-path="url(#make-me-a-hanzi-clip-11)" d="M 487 285 L 503 271 L 510 255 L 492 140 L 519 138 L 617 158 L 725 170 L 757 163 L 777 141 L 744 -23 L 727 -58 L 698 -79 L 626 -37" fill="none" id="make-me-a-hanzi-animation-11" stroke-dasharray="907 1814" stroke-linecap="round" />
    
      <clipPath id="make-me-a-hanzi-clip-12">
        <path d="M 537 30 Q 559 31 580 35 Q 635 41 696 38 Q 712 37 715 43 Q 719 52 711 59 Q 690 77 661 88 Q 651 91 634 85 Q 619 84 427 49 Q 399 43 357 41 Q 353 41 351 39 C 339 36 339 36 348 27 Q 355 15 393 1 Q 400 0 412 5 Q 446 20 537 30 Z" />
      </clipPath>
      <path clip-path="url(#make-me-a-hanzi-clip-12)" d="M 357 31 L 392 22 L 515 48 L 647 64 L 707 48" fill="none" id="make-me-a-hanzi-animation-12" stroke-dasharray="485 970" stroke-linecap="round" />
    
  </g>
</svg>