<svg xmlns="http://www.w3.org/2000/svg" version="1.1" viewBox="0 0 1024 1024">
  <g stroke="lightgray" stroke-dasharray="1,1" stroke-width="1" transform="scale(4, 4)">
    <line x1="0" y1="0" x2="256" y2="256" />
    <line x1="256" y1="0" x2="0" y2="256" />
    <line x1="128" y1="0" x2="128" y2="256" />
    <line x1="0" y1="128" x2="256" y2="128" />
  </g>
  <g transform="scale(1.0, -1.0) translate(0.0, -853.50)">
    <style type="text/css">
      
        @keyframes keyframes0 {
          from {
            stroke: blue;
            stroke-dashoffset: 904;
            stroke-width: 128;
          }
          75% {
            animation-timing-function: step-end;
            stroke: blue;
            stroke-dashoffset: 0;
            stroke-width: 128;
          }
          to {
            stroke: black;
            stroke-width: 1024;
          }
        }
        #make-me-a-hanzi-animation-0 {
          animation: keyframes0 0.9856770833333334s both;
          animation-delay: 0s;
          animation-timing-function: linear;
        }
      
        @keyframes keyframes1 {
          from {
            stroke: blue;
            stroke-dashoffset: 444;
            stroke-width: 128;
          }
          59% {
            animation-timing-function: step-end;
            stroke: blue;
            stroke-dashoffset: 0;
            stroke-width: 128;
          }
          to {
            stroke: black;
            stroke-width: 1024;
          }
        }
        #make-me-a-hanzi-animation-1 {
          animation: keyframes1 0.611328125s both;
          animation-delay: 0.9856770833333334s;
          animation-timing-function: linear;
        }
      
        @keyframes keyframes2 {
          from {
            stroke: blue;
            stroke-dashoffset: 501;
            stroke-width: 128;
          }
          62% {
            animation-timing-function: step-end;
            stroke: blue;
            stroke-dashoffset: 0;
            stroke-width: 128;
          }
          to {
            stroke: black;
            stroke-width: 1024;
          }
        }
        #make-me-a-hanzi-animation-2 {
          animation: keyframes2 0.65771484375s both;
          animation-delay: 1.5970052083333335s;
          animation-timing-function: linear;
        }
      
        @keyframes keyframes3 {
          from {
            stroke: blue;
            stroke-dashoffset: 476;
            stroke-width: 128;
          }
          61% {
            animation-timing-function: step-end;
            stroke: blue;
            stroke-dashoffset: 0;
            stroke-width: 128;
          }
          to {
            stroke: black;
            stroke-width: 1024;
          }
        }
        #make-me-a-hanzi-animation-3 {
          animation: keyframes3 0.6373697916666666s both;
          animation-delay: 2.2547200520833335s;
          animation-timing-function: linear;
        }
      
        @keyframes keyframes4 {
          from {
            stroke: blue;
            stroke-dashoffset: 950;
            stroke-width: 128;
          }
          76% {
            animation-timing-function: step-end;
            stroke: blue;
            stroke-dashoffset: 0;
            stroke-width: 128;
          }
          to {
            stroke: black;
            stroke-width: 1024;
          }
        }
        #make-me-a-hanzi-animation-4 {
          animation: keyframes4 1.0231119791666667s both;
          animation-delay: 2.89208984375s;
          animation-timing-function: linear;
        }
      
        @keyframes keyframes5 {
          from {
            stroke: blue;
            stroke-dashoffset: 475;
            stroke-width: 128;
          }
          61% {
            animation-timing-function: step-end;
            stroke: blue;
            stroke-dashoffset: 0;
            stroke-width: 128;
          }
          to {
            stroke: black;
            stroke-width: 1024;
          }
        }
        #make-me-a-hanzi-animation-5 {
          animation: keyframes5 0.6365559895833334s both;
          animation-delay: 3.915201822916667s;
          animation-timing-function: linear;
        }
      
        @keyframes keyframes6 {
          from {
            stroke: blue;
            stroke-dashoffset: 589;
            stroke-width: 128;
          }
          66% {
            animation-timing-function: step-end;
            stroke: blue;
            stroke-dashoffset: 0;
            stroke-width: 128;
          }
          to {
            stroke: black;
            stroke-width: 1024;
          }
        }
        #make-me-a-hanzi-animation-6 {
          animation: keyframes6 0.7293294270833334s both;
          animation-delay: 4.5517578125s;
          animation-timing-function: linear;
        }
      
        @keyframes keyframes7 {
          from {
            stroke: blue;
            stroke-dashoffset: 453;
            stroke-width: 128;
          }
          60% {
            animation-timing-function: step-end;
            stroke: blue;
            stroke-dashoffset: 0;
            stroke-width: 128;
          }
          to {
            stroke: black;
            stroke-width: 1024;
          }
        }
        #make-me-a-hanzi-animation-7 {
          animation: keyframes7 0.61865234375s both;
          animation-delay: 5.281087239583333s;
          animation-timing-function: linear;
        }
      
        @keyframes keyframes8 {
          from {
            stroke: blue;
            stroke-dashoffset: 428;
            stroke-width: 128;
          }
          58% {
            animation-timing-function: step-end;
            stroke: blue;
            stroke-dashoffset: 0;
            stroke-width: 128;
          }
          to {
            stroke: black;
            stroke-width: 1024;
          }
        }
        #make-me-a-hanzi-animation-8 {
          animation: keyframes8 0.5983072916666666s both;
          animation-delay: 5.899739583333333s;
          animation-timing-function: linear;
        }
      
        @keyframes keyframes9 {
          from {
            stroke: blue;
            stroke-dashoffset: 912;
            stroke-width: 128;
          }
          75% {
            animation-timing-function: step-end;
            stroke: blue;
            stroke-dashoffset: 0;
            stroke-width: 128;
          }
          to {
            stroke: black;
            stroke-width: 1024;
          }
        }
        #make-me-a-hanzi-animation-9 {
          animation: keyframes9 0.9921875s both;
          animation-delay: 6.498046875s;
          animation-timing-function: linear;
        }
      
        @keyframes keyframes10 {
          from {
            stroke: blue;
            stroke-dashoffset: 375;
            stroke-width: 128;
          }
          55% {
            animation-timing-function: step-end;
            stroke: blue;
            stroke-dashoffset: 0;
            stroke-width: 128;
          }
          to {
            stroke: black;
            stroke-width: 1024;
          }
        }
        #make-me-a-hanzi-animation-10 {
          animation: keyframes10 0.55517578125s both;
          animation-delay: 7.490234375s;
          animation-timing-function: linear;
        }
      
        @keyframes keyframes11 {
          from {
            stroke: blue;
            stroke-dashoffset: 463;
            stroke-width: 128;
          }
          60% {
            animation-timing-function: step-end;
            stroke: blue;
            stroke-dashoffset: 0;
            stroke-width: 128;
          }
          to {
            stroke: black;
            stroke-width: 1024;
          }
        }
        #make-me-a-hanzi-animation-11 {
          animation: keyframes11 0.6267903645833334s both;
          animation-delay: 8.04541015625s;
          animation-timing-function: linear;
        }
      
    </style>
    
      <path d="M 613 614 Q 688 620 816 619 Q 835 619 839 627 Q 843 637 829 651 Q 774 691 718 673 Q 679 667 633 657 L 579 648 Q 492 639 414 624 L 369 619 L 191 597 Q 172 594 186 579 Q 199 566 216 561 Q 235 557 251 560 Q 309 576 377 588 L 416 594 Q 468 606 568 611 L 613 614 Z" fill="lightgray" />
    
      <path d="M 414 624 Q 411 660 410 686 Q 411 705 392 710 Q 352 728 332 721 Q 316 712 330 694 Q 357 664 369 619 L 377 588 Q 383 558 399 539 Q 412 529 416 540 Q 423 561 416 594 L 414 624 Z" fill="lightgray" />
    
      <path d="M 633 657 Q 652 699 662 712 Q 675 725 666 735 Q 656 751 624 768 Q 609 778 593 770 Q 583 766 590 754 Q 600 724 579 648 L 568 611 Q 552 566 551 543 Q 552 530 567 539 Q 570 542 613 614 L 633 657 Z" fill="lightgray" />
    
      <path d="M 405 483 Q 409 490 408 497 Q 407 506 389 525 Q 373 541 359 542 Q 346 543 349 527 Q 355 506 307 439 Q 283 409 252 377 Q 243 371 241 367 Q 238 360 248 360 Q 284 360 380 461 L 405 483 Z" fill="lightgray" />
    
      <path d="M 564 468 Q 600 474 634 475 Q 653 476 657 470 Q 666 454 657 415 Q 638 307 608 262 Q 592 235 568 241 Q 543 250 521 260 Q 500 269 514 247 Q 554 207 572 174 Q 590 153 608 170 Q 659 204 688 308 Q 713 444 730 466 Q 742 478 737 487 Q 730 497 685 521 Q 667 530 649 519 Q 580 489 405 483 C 375 482 356 478 380 461 Q 401 440 426 444 L 457 450 Q 493 457 526 462 L 564 468 Z" fill="lightgray" />
    
      <path d="M 426 444 Q 426 437 399 378 L 384 356 Q 378 350 373 343 Q 348 312 315 283 Q 311 279 309 275 Q 309 271 313 271 Q 343 271 406 328 Q 410 334 417 339 L 443 366 Q 467 397 474 402 Q 480 409 476 421 Q 467 440 457 450 C 437 473 434 473 426 444 Z" fill="lightgray" />
    
      <path d="M 469 309 L 372 202 Q 366 198 375 195 Q 427 210 500 290 L 525 323 Q 550 357 583 412 L 597 439 Q 594 455 564 468 C 537 481 522 488 526 462 Q 535 435 493 348 L 469 309 Z" fill="lightgray" />
    
      <path d="M 417 339 Q 441 326 469 309 L 500 290 Q 515 278 527 278 Q 533 278 536 286 Q 542 296 526 322 L 525 323 L 493 348 Q 475 358 443 366 L 399 378 Q 371 385 352 389 Q 345 390 346 383 Q 346 377 384 356 L 417 339 Z" fill="lightgray" />
    
      <path d="M 230 143 Q 208 91 175 43 Q 154 12 172 -27 Q 179 -46 202 -32 Q 256 7 256 83 Q 262 117 255 143 Q 249 152 243 153 Q 234 152 230 143 Z" fill="lightgray" />
    
      <path d="M 338 128 Q 353 22 431 -34 Q 519 -94 721 -95 Q 761 -91 796 -77 Q 821 -68 825 -52 Q 829 -42 791 -12 Q 734 45 693 102 Q 681 120 676 113 Q 673 107 694 27 Q 700 -7 692 -25 Q 679 -32 647 -33 Q 485 -33 421 34 Q 391 61 380 109 Q 374 134 362 139 Q 349 146 341 143 Q 335 142 338 128 Z" fill="lightgray" />
    
      <path d="M 472 150 Q 535 72 563 69 Q 578 68 585 87 Q 586 102 577 124 Q 558 160 478 180 Q 468 181 466 169 Q 465 160 472 150 Z" fill="lightgray" />
    
      <path d="M 739 171 Q 794 131 861 70 Q 877 51 894 49 Q 903 48 909 59 Q 919 72 903 115 Q 887 167 742 201 Q 739 202 738 202 Q 728 206 727 193 Q 728 180 739 171 Z" fill="lightgray" />
    
    
      <clipPath id="make-me-a-hanzi-clip-0">
        <path d="M 613 614 Q 688 620 816 619 Q 835 619 839 627 Q 843 637 829 651 Q 774 691 718 673 Q 679 667 633 657 L 579 648 Q 492 639 414 624 L 369 619 L 191 597 Q 172 594 186 579 Q 199 566 216 561 Q 235 557 251 560 Q 309 576 377 588 L 416 594 Q 468 606 568 611 L 613 614 Z" />
      </clipPath>
      <path clip-path="url(#make-me-a-hanzi-clip-0)" d="M 189 588 L 235 580 L 496 623 L 743 649 L 785 646 L 829 632" fill="none" id="make-me-a-hanzi-animation-0" stroke-dasharray="776 1552" stroke-linecap="round" />
    
      <clipPath id="make-me-a-hanzi-clip-1">
        <path d="M 414 624 Q 411 660 410 686 Q 411 705 392 710 Q 352 728 332 721 Q 316 712 330 694 Q 357 664 369 619 L 377 588 Q 383 558 399 539 Q 412 529 416 540 Q 423 561 416 594 L 414 624 Z" />
      </clipPath>
      <path clip-path="url(#make-me-a-hanzi-clip-1)" d="M 339 707 L 380 678 L 407 543" fill="none" id="make-me-a-hanzi-animation-1" stroke-dasharray="316 632" stroke-linecap="round" />
    
      <clipPath id="make-me-a-hanzi-clip-2">
        <path d="M 633 657 Q 652 699 662 712 Q 675 725 666 735 Q 656 751 624 768 Q 609 778 593 770 Q 583 766 590 754 Q 600 724 579 648 L 568 611 Q 552 566 551 543 Q 552 530 567 539 Q 570 542 613 614 L 633 657 Z" />
      </clipPath>
      <path clip-path="url(#make-me-a-hanzi-clip-2)" d="M 596 761 L 604 760 L 628 724 L 603 645 L 560 543" fill="none" id="make-me-a-hanzi-animation-2" stroke-dasharray="373 746" stroke-linecap="round" />
    
      <clipPath id="make-me-a-hanzi-clip-3">
        <path d="M 405 483 Q 409 490 408 497 Q 407 506 389 525 Q 373 541 359 542 Q 346 543 349 527 Q 355 506 307 439 Q 283 409 252 377 Q 243 371 241 367 Q 238 360 248 360 Q 284 360 380 461 L 405 483 Z" />
      </clipPath>
      <path clip-path="url(#make-me-a-hanzi-clip-3)" d="M 357 532 L 371 512 L 373 494 L 314 419 L 281 387 L 250 369" fill="none" id="make-me-a-hanzi-animation-3" stroke-dasharray="348 696" stroke-linecap="round" />
    
      <clipPath id="make-me-a-hanzi-clip-4">
        <path d="M 564 468 Q 600 474 634 475 Q 653 476 657 470 Q 666 454 657 415 Q 638 307 608 262 Q 592 235 568 241 Q 543 250 521 260 Q 500 269 514 247 Q 554 207 572 174 Q 590 153 608 170 Q 659 204 688 308 Q 713 444 730 466 Q 742 478 737 487 Q 730 497 685 521 Q 667 530 649 519 Q 580 489 405 483 C 375 482 356 478 380 461 Q 401 440 426 444 L 457 450 Q 493 457 526 462 L 564 468 Z" />
      </clipPath>
      <path clip-path="url(#make-me-a-hanzi-clip-4)" d="M 388 460 L 653 497 L 670 496 L 692 477 L 691 449 L 660 306 L 639 256 L 616 221 L 595 206 L 523 250" fill="none" id="make-me-a-hanzi-animation-4" stroke-dasharray="822 1644" stroke-linecap="round" />
    
      <clipPath id="make-me-a-hanzi-clip-5">
        <path d="M 426 444 Q 426 437 399 378 L 384 356 Q 378 350 373 343 Q 348 312 315 283 Q 311 279 309 275 Q 309 271 313 271 Q 343 271 406 328 Q 410 334 417 339 L 443 366 Q 467 397 474 402 Q 480 409 476 421 Q 467 440 457 450 C 437 473 434 473 426 444 Z" />
      </clipPath>
      <path clip-path="url(#make-me-a-hanzi-clip-5)" d="M 435 439 L 445 413 L 416 366 L 358 304 L 315 277" fill="none" id="make-me-a-hanzi-animation-5" stroke-dasharray="347 694" stroke-linecap="round" />
    
      <clipPath id="make-me-a-hanzi-clip-6">
        <path d="M 469 309 L 372 202 Q 366 198 375 195 Q 427 210 500 290 L 525 323 Q 550 357 583 412 L 597 439 Q 594 455 564 468 C 537 481 522 488 526 462 Q 535 435 493 348 L 469 309 Z" />
      </clipPath>
      <path clip-path="url(#make-me-a-hanzi-clip-6)" d="M 533 459 L 558 433 L 512 340 L 467 279 L 379 201" fill="none" id="make-me-a-hanzi-animation-6" stroke-dasharray="461 922" stroke-linecap="round" />
    
      <clipPath id="make-me-a-hanzi-clip-7">
        <path d="M 417 339 Q 441 326 469 309 L 500 290 Q 515 278 527 278 Q 533 278 536 286 Q 542 296 526 322 L 525 323 L 493 348 Q 475 358 443 366 L 399 378 Q 371 385 352 389 Q 345 390 346 383 Q 346 377 384 356 L 417 339 Z" />
      </clipPath>
      <path clip-path="url(#make-me-a-hanzi-clip-7)" d="M 352 383 L 469 335 L 514 306 L 523 291" fill="none" id="make-me-a-hanzi-animation-7" stroke-dasharray="325 650" stroke-linecap="round" />
    
      <clipPath id="make-me-a-hanzi-clip-8">
        <path d="M 230 143 Q 208 91 175 43 Q 154 12 172 -27 Q 179 -46 202 -32 Q 256 7 256 83 Q 262 117 255 143 Q 249 152 243 153 Q 234 152 230 143 Z" />
      </clipPath>
      <path clip-path="url(#make-me-a-hanzi-clip-8)" d="M 243 141 L 219 48 L 188 -21" fill="none" id="make-me-a-hanzi-animation-8" stroke-dasharray="300 600" stroke-linecap="round" />
    
      <clipPath id="make-me-a-hanzi-clip-9">
        <path d="M 338 128 Q 353 22 431 -34 Q 519 -94 721 -95 Q 761 -91 796 -77 Q 821 -68 825 -52 Q 829 -42 791 -12 Q 734 45 693 102 Q 681 120 676 113 Q 673 107 694 27 Q 700 -7 692 -25 Q 679 -32 647 -33 Q 485 -33 421 34 Q 391 61 380 109 Q 374 134 362 139 Q 349 146 341 143 Q 335 142 338 128 Z" />
      </clipPath>
      <path clip-path="url(#make-me-a-hanzi-clip-9)" d="M 346 134 L 361 111 L 375 63 L 398 27 L 427 -3 L 477 -32 L 512 -44 L 600 -60 L 691 -62 L 724 -53 L 742 -35 L 722 23 L 680 111" fill="none" id="make-me-a-hanzi-animation-9" stroke-dasharray="784 1568" stroke-linecap="round" />
    
      <clipPath id="make-me-a-hanzi-clip-10">
        <path d="M 472 150 Q 535 72 563 69 Q 578 68 585 87 Q 586 102 577 124 Q 558 160 478 180 Q 468 181 466 169 Q 465 160 472 150 Z" />
      </clipPath>
      <path clip-path="url(#make-me-a-hanzi-clip-10)" d="M 477 169 L 545 116 L 564 89" fill="none" id="make-me-a-hanzi-animation-10" stroke-dasharray="247 494" stroke-linecap="round" />
    
      <clipPath id="make-me-a-hanzi-clip-11">
        <path d="M 739 171 Q 794 131 861 70 Q 877 51 894 49 Q 903 48 909 59 Q 919 72 903 115 Q 887 167 742 201 Q 739 202 738 202 Q 728 206 727 193 Q 728 180 739 171 Z" />
      </clipPath>
      <path clip-path="url(#make-me-a-hanzi-clip-11)" d="M 737 191 L 860 118 L 895 64" fill="none" id="make-me-a-hanzi-animation-11" stroke-dasharray="335 670" stroke-linecap="round" />
    
  </g>
</svg>