<svg xmlns="http://www.w3.org/2000/svg" version="1.1" viewBox="0 0 1024 1024">
  <g stroke="lightgray" stroke-dasharray="1,1" stroke-width="1" transform="scale(4, 4)">
    <line x1="0" y1="0" x2="256" y2="256" />
    <line x1="256" y1="0" x2="0" y2="256" />
    <line x1="128" y1="0" x2="128" y2="256" />
    <line x1="0" y1="128" x2="256" y2="128" />
  </g>
  <g transform="scale(1.0, -1.0) translate(0.0, -829.00)">
    <style type="text/css">
      
        @keyframes keyframes0 {
          from {
            stroke: blue;
            stroke-dashoffset: 976;
            stroke-width: 128;
          }
          76% {
            animation-timing-function: step-end;
            stroke: blue;
            stroke-dashoffset: 0;
            stroke-width: 128;
          }
          to {
            stroke: black;
            stroke-width: 1024;
          }
        }
        #make-me-a-hanzi-animation-0 {
          animation: keyframes0 1.0442708333333333s both;
          animation-delay: 0s;
          animation-timing-function: linear;
        }
      
        @keyframes keyframes1 {
          from {
            stroke: blue;
            stroke-dashoffset: 472;
            stroke-width: 128;
          }
          61% {
            animation-timing-function: step-end;
            stroke: blue;
            stroke-dashoffset: 0;
            stroke-width: 128;
          }
          to {
            stroke: black;
            stroke-width: 1024;
          }
        }
        #make-me-a-hanzi-animation-1 {
          animation: keyframes1 0.6341145833333334s both;
          animation-delay: 1.0442708333333333s;
          animation-timing-function: linear;
        }
      
        @keyframes keyframes2 {
          from {
            stroke: blue;
            stroke-dashoffset: 531;
            stroke-width: 128;
          }
          63% {
            animation-timing-function: step-end;
            stroke: blue;
            stroke-dashoffset: 0;
            stroke-width: 128;
          }
          to {
            stroke: black;
            stroke-width: 1024;
          }
        }
        #make-me-a-hanzi-animation-2 {
          animation: keyframes2 0.68212890625s both;
          animation-delay: 1.6783854166666665s;
          animation-timing-function: linear;
        }
      
        @keyframes keyframes3 {
          from {
            stroke: blue;
            stroke-dashoffset: 490;
            stroke-width: 128;
          }
          61% {
            animation-timing-function: step-end;
            stroke: blue;
            stroke-dashoffset: 0;
            stroke-width: 128;
          }
          to {
            stroke: black;
            stroke-width: 1024;
          }
        }
        #make-me-a-hanzi-animation-3 {
          animation: keyframes3 0.6487630208333334s both;
          animation-delay: 2.3605143229166665s;
          animation-timing-function: linear;
        }
      
        @keyframes keyframes4 {
          from {
            stroke: blue;
            stroke-dashoffset: 495;
            stroke-width: 128;
          }
          62% {
            animation-timing-function: step-end;
            stroke: blue;
            stroke-dashoffset: 0;
            stroke-width: 128;
          }
          to {
            stroke: black;
            stroke-width: 1024;
          }
        }
        #make-me-a-hanzi-animation-4 {
          animation: keyframes4 0.65283203125s both;
          animation-delay: 3.00927734375s;
          animation-timing-function: linear;
        }
      
        @keyframes keyframes5 {
          from {
            stroke: blue;
            stroke-dashoffset: 482;
            stroke-width: 128;
          }
          61% {
            animation-timing-function: step-end;
            stroke: blue;
            stroke-dashoffset: 0;
            stroke-width: 128;
          }
          to {
            stroke: black;
            stroke-width: 1024;
          }
        }
        #make-me-a-hanzi-animation-5 {
          animation: keyframes5 0.6422526041666666s both;
          animation-delay: 3.662109375s;
          animation-timing-function: linear;
        }
      
        @keyframes keyframes6 {
          from {
            stroke: blue;
            stroke-dashoffset: 749;
            stroke-width: 128;
          }
          71% {
            animation-timing-function: step-end;
            stroke: blue;
            stroke-dashoffset: 0;
            stroke-width: 128;
          }
          to {
            stroke: black;
            stroke-width: 1024;
          }
        }
        #make-me-a-hanzi-animation-6 {
          animation: keyframes6 0.8595377604166666s both;
          animation-delay: 4.304361979166667s;
          animation-timing-function: linear;
        }
      
        @keyframes keyframes7 {
          from {
            stroke: blue;
            stroke-dashoffset: 402;
            stroke-width: 128;
          }
          57% {
            animation-timing-function: step-end;
            stroke: blue;
            stroke-dashoffset: 0;
            stroke-width: 128;
          }
          to {
            stroke: black;
            stroke-width: 1024;
          }
        }
        #make-me-a-hanzi-animation-7 {
          animation: keyframes7 0.5771484375s both;
          animation-delay: 5.163899739583334s;
          animation-timing-function: linear;
        }
      
        @keyframes keyframes8 {
          from {
            stroke: blue;
            stroke-dashoffset: 422;
            stroke-width: 128;
          }
          58% {
            animation-timing-function: step-end;
            stroke: blue;
            stroke-dashoffset: 0;
            stroke-width: 128;
          }
          to {
            stroke: black;
            stroke-width: 1024;
          }
        }
        #make-me-a-hanzi-animation-8 {
          animation: keyframes8 0.5934244791666666s both;
          animation-delay: 5.741048177083334s;
          animation-timing-function: linear;
        }
      
        @keyframes keyframes9 {
          from {
            stroke: blue;
            stroke-dashoffset: 411;
            stroke-width: 128;
          }
          57% {
            animation-timing-function: step-end;
            stroke: blue;
            stroke-dashoffset: 0;
            stroke-width: 128;
          }
          to {
            stroke: black;
            stroke-width: 1024;
          }
        }
        #make-me-a-hanzi-animation-9 {
          animation: keyframes9 0.58447265625s both;
          animation-delay: 6.334472656250001s;
          animation-timing-function: linear;
        }
      
        @keyframes keyframes10 {
          from {
            stroke: blue;
            stroke-dashoffset: 626;
            stroke-width: 128;
          }
          67% {
            animation-timing-function: step-end;
            stroke: blue;
            stroke-dashoffset: 0;
            stroke-width: 128;
          }
          to {
            stroke: black;
            stroke-width: 1024;
          }
        }
        #make-me-a-hanzi-animation-10 {
          animation: keyframes10 0.7594401041666666s both;
          animation-delay: 6.918945312500001s;
          animation-timing-function: linear;
        }
      
        @keyframes keyframes11 {
          from {
            stroke: blue;
            stroke-dashoffset: 519;
            stroke-width: 128;
          }
          63% {
            animation-timing-function: step-end;
            stroke: blue;
            stroke-dashoffset: 0;
            stroke-width: 128;
          }
          to {
            stroke: black;
            stroke-width: 1024;
          }
        }
        #make-me-a-hanzi-animation-11 {
          animation: keyframes11 0.67236328125s both;
          animation-delay: 7.678385416666668s;
          animation-timing-function: linear;
        }
      
        @keyframes keyframes12 {
          from {
            stroke: blue;
            stroke-dashoffset: 1022;
            stroke-width: 128;
          }
          77% {
            animation-timing-function: step-end;
            stroke: blue;
            stroke-dashoffset: 0;
            stroke-width: 128;
          }
          to {
            stroke: black;
            stroke-width: 1024;
          }
        }
        #make-me-a-hanzi-animation-12 {
          animation: keyframes12 1.0817057291666667s both;
          animation-delay: 8.350748697916668s;
          animation-timing-function: linear;
        }
      
    </style>
    
      <path d="M 632 597 Q 647 597 857 598 Q 878 598 883 607 Q 889 619 871 633 Q 811 679 748 661 Q 703 655 649 644 L 595 636 Q 541 632 439 616 L 395 612 Q 284 602 161 587 Q 139 586 155 567 Q 170 552 188 546 Q 210 540 227 545 Q 309 567 402 578 L 443 583 Q 476 592 586 596 L 632 597 Z" fill="lightgray" />
    
      <path d="M 439 616 Q 436 656 434 686 Q 435 705 416 710 Q 376 728 356 721 Q 340 712 354 694 Q 384 658 394 616 Q 394 615 395 612 L 402 578 Q 417 523 427 511 Q 440 501 444 512 Q 448 525 443 583 L 439 616 Z" fill="lightgray" />
    
      <path d="M 649 644 Q 652 662 679 713 Q 692 729 682 738 Q 669 754 634 771 Q 618 780 600 770 Q 590 764 599 753 Q 611 725 595 636 L 586 596 Q 568 530 570 511 Q 571 498 587 509 Q 602 522 632 597 L 649 644 Z" fill="lightgray" />
    
      <path d="M 354 434 Q 355 437 358 439 Q 370 458 380 466 Q 387 473 384 484 Q 381 494 360 512 Q 341 527 326 527 Q 311 526 317 509 Q 327 488 284 411 Q 263 377 234 339 Q 227 332 224 327 Q 221 318 232 320 Q 260 324 335 411 L 354 434 Z" fill="lightgray" />
    
      <path d="M 404 325 Q 462 391 496 413 Q 512 422 501 433 Q 489 445 457 463 Q 442 467 430 459 Q 423 456 369 438 Q 362 437 354 434 C 325 425 306 417 335 411 Q 350 405 404 417 Q 410 418 411 417 Q 414 414 411 407 Q 390 350 371 318 C 356 292 384 303 404 325 Z" fill="lightgray" />
    
      <path d="M 238 292 Q 228 296 201 300 Q 189 301 187 297 Q 181 291 190 276 Q 218 221 239 128 Q 243 100 260 82 Q 278 63 282 77 Q 283 81 284 87 L 284 109 Q 283 122 280 138 Q 259 235 255 264 C 251 288 251 288 238 292 Z" fill="lightgray" />
    
      <path d="M 446 107 Q 458 91 469 86 Q 478 79 492 98 Q 505 119 532 232 Q 539 259 560 280 Q 572 290 562 302 Q 549 317 512 340 Q 499 346 431 331 Q 419 331 404 325 L 371 318 Q 364 318 238 292 C 209 286 227 252 255 264 Q 259 270 337 285 L 369 291 Q 403 298 444 305 Q 471 309 479 301 Q 489 288 487 275 Q 468 167 458 151 Q 455 142 439 137 C 426 130 426 130 446 107 Z" fill="lightgray" />
    
      <path d="M 393 200 Q 420 206 445 208 Q 464 211 457 222 Q 448 234 427 237 Q 414 240 394 234 L 349 222 Q 321 215 298 206 Q 285 203 301 191 Q 305 188 351 193 L 393 200 Z" fill="lightgray" />
    
      <path d="M 390 135 Q 391 169 393 200 L 394 234 Q 394 235 395 237 Q 395 271 380 283 Q 374 289 369 291 C 343 306 324 312 337 285 Q 346 270 349 222 L 351 193 Q 351 166 354 126 C 356 96 389 105 390 135 Z" fill="lightgray" />
    
      <path d="M 284 87 Q 288 86 296 87 Q 380 100 446 107 C 476 110 468 130 439 137 Q 438 138 435 138 Q 419 142 390 135 L 354 126 Q 317 119 284 109 C 255 100 254 90 284 87 Z" fill="lightgray" />
    
      <path d="M 163 4 Q 150 3 147 -7 Q 143 -20 152 -30 Q 174 -49 206 -71 Q 216 -75 229 -68 Q 272 -43 319 -27 L 460 19 Q 488 26 507 40 Q 522 46 523 55 Q 519 62 505 60 Q 217 -3 163 4 Z" fill="lightgray" />
    
      <path d="M 596 379 Q 617 328 605 188 Q 599 161 624 130 Q 634 120 642 130 Q 657 154 658 223 Q 658 311 664 351 Q 670 372 651 383 Q 636 392 620 400 Q 608 404 600 399 Q 593 392 596 379 Z" fill="lightgray" />
    
      <path d="M 736 439 Q 740 412 740 6 Q 740 -10 731 -17 Q 722 -21 634 -4 Q 600 6 603 -4 Q 604 -11 626 -25 Q 702 -77 723 -109 Q 747 -146 764 -145 Q 780 -146 794 -110 Q 810 -62 807 14 Q 776 350 809 467 Q 825 498 768 522 Q 734 540 713 533 Q 694 526 711 502 Q 733 474 736 439 Z" fill="lightgray" />
    
    
      <clipPath id="make-me-a-hanzi-clip-0">
        <path d="M 632 597 Q 647 597 857 598 Q 878 598 883 607 Q 889 619 871 633 Q 811 679 748 661 Q 703 655 649 644 L 595 636 Q 541 632 439 616 L 395 612 Q 284 602 161 587 Q 139 586 155 567 Q 170 552 188 546 Q 210 540 227 545 Q 309 567 402 578 L 443 583 Q 476 592 586 596 L 632 597 Z" />
      </clipPath>
      <path clip-path="url(#make-me-a-hanzi-clip-0)" d="M 158 577 L 217 568 L 471 606 L 775 632 L 821 628 L 871 613" fill="none" id="make-me-a-hanzi-animation-0" stroke-dasharray="848 1696" stroke-linecap="round" />
    
      <clipPath id="make-me-a-hanzi-clip-1">
        <path d="M 439 616 Q 436 656 434 686 Q 435 705 416 710 Q 376 728 356 721 Q 340 712 354 694 Q 384 658 394 616 Q 394 615 395 612 L 402 578 Q 417 523 427 511 Q 440 501 444 512 Q 448 525 443 583 L 439 616 Z" />
      </clipPath>
      <path clip-path="url(#make-me-a-hanzi-clip-1)" d="M 363 707 L 403 678 L 435 515" fill="none" id="make-me-a-hanzi-animation-1" stroke-dasharray="344 688" stroke-linecap="round" />
    
      <clipPath id="make-me-a-hanzi-clip-2">
        <path d="M 649 644 Q 652 662 679 713 Q 692 729 682 738 Q 669 754 634 771 Q 618 780 600 770 Q 590 764 599 753 Q 611 725 595 636 L 586 596 Q 568 530 570 511 Q 571 498 587 509 Q 602 522 632 597 L 649 644 Z" />
      </clipPath>
      <path clip-path="url(#make-me-a-hanzi-clip-2)" d="M 605 761 L 622 753 L 642 720 L 609 595 L 579 512" fill="none" id="make-me-a-hanzi-animation-2" stroke-dasharray="403 806" stroke-linecap="round" />
    
      <clipPath id="make-me-a-hanzi-clip-3">
        <path d="M 354 434 Q 355 437 358 439 Q 370 458 380 466 Q 387 473 384 484 Q 381 494 360 512 Q 341 527 326 527 Q 311 526 317 509 Q 327 488 284 411 Q 263 377 234 339 Q 227 332 224 327 Q 221 318 232 320 Q 260 324 335 411 L 354 434 Z" />
      </clipPath>
      <path clip-path="url(#make-me-a-hanzi-clip-3)" d="M 325 516 L 347 486 L 346 474 L 286 380 L 233 329" fill="none" id="make-me-a-hanzi-animation-3" stroke-dasharray="362 724" stroke-linecap="round" />
    
      <clipPath id="make-me-a-hanzi-clip-4">
        <path d="M 404 325 Q 462 391 496 413 Q 512 422 501 433 Q 489 445 457 463 Q 442 467 430 459 Q 423 456 369 438 Q 362 437 354 434 C 325 425 306 417 335 411 Q 350 405 404 417 Q 410 418 411 417 Q 414 414 411 407 Q 390 350 371 318 C 356 292 384 303 404 325 Z" />
      </clipPath>
      <path clip-path="url(#make-me-a-hanzi-clip-4)" d="M 340 416 L 401 434 L 429 433 L 448 423 L 402 341 L 376 322" fill="none" id="make-me-a-hanzi-animation-4" stroke-dasharray="367 734" stroke-linecap="round" />
    
      <clipPath id="make-me-a-hanzi-clip-5">
        <path d="M 238 292 Q 228 296 201 300 Q 189 301 187 297 Q 181 291 190 276 Q 218 221 239 128 Q 243 100 260 82 Q 278 63 282 77 Q 283 81 284 87 L 284 109 Q 283 122 280 138 Q 259 235 255 264 C 251 288 251 288 238 292 Z" />
      </clipPath>
      <path clip-path="url(#make-me-a-hanzi-clip-5)" d="M 196 290 L 218 273 L 229 255 L 272 83" fill="none" id="make-me-a-hanzi-animation-5" stroke-dasharray="354 708" stroke-linecap="round" />
    
      <clipPath id="make-me-a-hanzi-clip-6">
        <path d="M 446 107 Q 458 91 469 86 Q 478 79 492 98 Q 505 119 532 232 Q 539 259 560 280 Q 572 290 562 302 Q 549 317 512 340 Q 499 346 431 331 Q 419 331 404 325 L 371 318 Q 364 318 238 292 C 209 286 227 252 255 264 Q 259 270 337 285 L 369 291 Q 403 298 444 305 Q 471 309 479 301 Q 489 288 487 275 Q 468 167 458 151 Q 455 142 439 137 C 426 130 426 130 446 107 Z" />
      </clipPath>
      <path clip-path="url(#make-me-a-hanzi-clip-6)" d="M 254 270 L 261 283 L 444 321 L 480 322 L 501 316 L 522 290 L 495 183 L 471 122 L 449 132" fill="none" id="make-me-a-hanzi-animation-6" stroke-dasharray="621 1242" stroke-linecap="round" />
    
      <clipPath id="make-me-a-hanzi-clip-7">
        <path d="M 393 200 Q 420 206 445 208 Q 464 211 457 222 Q 448 234 427 237 Q 414 240 394 234 L 349 222 Q 321 215 298 206 Q 285 203 301 191 Q 305 188 351 193 L 393 200 Z" />
      </clipPath>
      <path clip-path="url(#make-me-a-hanzi-clip-7)" d="M 305 200 L 404 220 L 449 217" fill="none" id="make-me-a-hanzi-animation-7" stroke-dasharray="274 548" stroke-linecap="round" />
    
      <clipPath id="make-me-a-hanzi-clip-8">
        <path d="M 390 135 Q 391 169 393 200 L 394 234 Q 394 235 395 237 Q 395 271 380 283 Q 374 289 369 291 C 343 306 324 312 337 285 Q 346 270 349 222 L 351 193 Q 351 166 354 126 C 356 96 389 105 390 135 Z" />
      </clipPath>
      <path clip-path="url(#make-me-a-hanzi-clip-8)" d="M 343 283 L 364 269 L 372 243 L 372 156 L 358 134" fill="none" id="make-me-a-hanzi-animation-8" stroke-dasharray="294 588" stroke-linecap="round" />
    
      <clipPath id="make-me-a-hanzi-clip-9">
        <path d="M 284 87 Q 288 86 296 87 Q 380 100 446 107 C 476 110 468 130 439 137 Q 438 138 435 138 Q 419 142 390 135 L 354 126 Q 317 119 284 109 C 255 100 254 90 284 87 Z" />
      </clipPath>
      <path clip-path="url(#make-me-a-hanzi-clip-9)" d="M 290 93 L 307 103 L 402 121 L 424 121 L 439 113" fill="none" id="make-me-a-hanzi-animation-9" stroke-dasharray="283 566" stroke-linecap="round" />
    
      <clipPath id="make-me-a-hanzi-clip-10">
        <path d="M 163 4 Q 150 3 147 -7 Q 143 -20 152 -30 Q 174 -49 206 -71 Q 216 -75 229 -68 Q 272 -43 319 -27 L 460 19 Q 488 26 507 40 Q 522 46 523 55 Q 519 62 505 60 Q 217 -3 163 4 Z" />
      </clipPath>
      <path clip-path="url(#make-me-a-hanzi-clip-10)" d="M 162 -12 L 217 -32 L 517 53" fill="none" id="make-me-a-hanzi-animation-10" stroke-dasharray="498 996" stroke-linecap="round" />
    
      <clipPath id="make-me-a-hanzi-clip-11">
        <path d="M 596 379 Q 617 328 605 188 Q 599 161 624 130 Q 634 120 642 130 Q 657 154 658 223 Q 658 311 664 351 Q 670 372 651 383 Q 636 392 620 400 Q 608 404 600 399 Q 593 392 596 379 Z" />
      </clipPath>
      <path clip-path="url(#make-me-a-hanzi-clip-11)" d="M 608 389 L 634 357 L 629 172 L 633 136" fill="none" id="make-me-a-hanzi-animation-11" stroke-dasharray="391 782" stroke-linecap="round" />
    
      <clipPath id="make-me-a-hanzi-clip-12">
        <path d="M 736 439 Q 740 412 740 6 Q 740 -10 731 -17 Q 722 -21 634 -4 Q 600 6 603 -4 Q 604 -11 626 -25 Q 702 -77 723 -109 Q 747 -146 764 -145 Q 780 -146 794 -110 Q 810 -62 807 14 Q 776 350 809 467 Q 825 498 768 522 Q 734 540 713 533 Q 694 526 711 502 Q 733 474 736 439 Z" />
      </clipPath>
      <path clip-path="url(#make-me-a-hanzi-clip-12)" d="M 720 517 L 738 508 L 770 473 L 765 218 L 774 4 L 770 -29 L 752 -64 L 623 -12 L 621 -6 L 610 -6" fill="none" id="make-me-a-hanzi-animation-12" stroke-dasharray="894 1788" stroke-linecap="round" />
    
  </g>
</svg>