<svg xmlns="http://www.w3.org/2000/svg" version="1.1" viewBox="0 0 1024 1024">
  <g stroke="lightgray" stroke-dasharray="1,1" stroke-width="1" transform="scale(4, 4)">
    <line x1="0" y1="0" x2="256" y2="256" />
    <line x1="256" y1="0" x2="0" y2="256" />
    <line x1="128" y1="0" x2="128" y2="256" />
    <line x1="0" y1="128" x2="256" y2="128" />
  </g>
  <g transform="scale(1.0, -1.0) translate(0.0, -819.50)">
    <style type="text/css">
      
        @keyframes keyframes0 {
          from {
            stroke: blue;
            stroke-dashoffset: 842;
            stroke-width: 128;
          }
          73% {
            animation-timing-function: step-end;
            stroke: blue;
            stroke-dashoffset: 0;
            stroke-width: 128;
          }
          to {
            stroke: black;
            stroke-width: 1024;
          }
        }
        #make-me-a-hanzi-animation-0 {
          animation: keyframes0 0.9352213541666666s both;
          animation-delay: 0s;
          animation-timing-function: linear;
        }
      
        @keyframes keyframes1 {
          from {
            stroke: blue;
            stroke-dashoffset: 426;
            stroke-width: 128;
          }
          58% {
            animation-timing-function: step-end;
            stroke: blue;
            stroke-dashoffset: 0;
            stroke-width: 128;
          }
          to {
            stroke: black;
            stroke-width: 1024;
          }
        }
        #make-me-a-hanzi-animation-1 {
          animation: keyframes1 0.5966796875s both;
          animation-delay: 0.9352213541666666s;
          animation-timing-function: linear;
        }
      
        @keyframes keyframes2 {
          from {
            stroke: blue;
            stroke-dashoffset: 463;
            stroke-width: 128;
          }
          60% {
            animation-timing-function: step-end;
            stroke: blue;
            stroke-dashoffset: 0;
            stroke-width: 128;
          }
          to {
            stroke: black;
            stroke-width: 1024;
          }
        }
        #make-me-a-hanzi-animation-2 {
          animation: keyframes2 0.6267903645833334s both;
          animation-delay: 1.5319010416666665s;
          animation-timing-function: linear;
        }
      
        @keyframes keyframes3 {
          from {
            stroke: blue;
            stroke-dashoffset: 438;
            stroke-width: 128;
          }
          59% {
            animation-timing-function: step-end;
            stroke: blue;
            stroke-dashoffset: 0;
            stroke-width: 128;
          }
          to {
            stroke: black;
            stroke-width: 1024;
          }
        }
        #make-me-a-hanzi-animation-3 {
          animation: keyframes3 0.6064453125s both;
          animation-delay: 2.15869140625s;
          animation-timing-function: linear;
        }
      
        @keyframes keyframes4 {
          from {
            stroke: blue;
            stroke-dashoffset: 702;
            stroke-width: 128;
          }
          70% {
            animation-timing-function: step-end;
            stroke: blue;
            stroke-dashoffset: 0;
            stroke-width: 128;
          }
          to {
            stroke: black;
            stroke-width: 1024;
          }
        }
        #make-me-a-hanzi-animation-4 {
          animation: keyframes4 0.8212890625s both;
          animation-delay: 2.76513671875s;
          animation-timing-function: linear;
        }
      
        @keyframes keyframes5 {
          from {
            stroke: blue;
            stroke-dashoffset: 424;
            stroke-width: 128;
          }
          58% {
            animation-timing-function: step-end;
            stroke: blue;
            stroke-dashoffset: 0;
            stroke-width: 128;
          }
          to {
            stroke: black;
            stroke-width: 1024;
          }
        }
        #make-me-a-hanzi-animation-5 {
          animation: keyframes5 0.5950520833333334s both;
          animation-delay: 3.58642578125s;
          animation-timing-function: linear;
        }
      
        @keyframes keyframes6 {
          from {
            stroke: blue;
            stroke-dashoffset: 449;
            stroke-width: 128;
          }
          59% {
            animation-timing-function: step-end;
            stroke: blue;
            stroke-dashoffset: 0;
            stroke-width: 128;
          }
          to {
            stroke: black;
            stroke-width: 1024;
          }
        }
        #make-me-a-hanzi-animation-6 {
          animation: keyframes6 0.6153971354166666s both;
          animation-delay: 4.181477864583333s;
          animation-timing-function: linear;
        }
      
        @keyframes keyframes7 {
          from {
            stroke: blue;
            stroke-dashoffset: 939;
            stroke-width: 128;
          }
          75% {
            animation-timing-function: step-end;
            stroke: blue;
            stroke-dashoffset: 0;
            stroke-width: 128;
          }
          to {
            stroke: black;
            stroke-width: 1024;
          }
        }
        #make-me-a-hanzi-animation-7 {
          animation: keyframes7 1.01416015625s both;
          animation-delay: 4.796875s;
          animation-timing-function: linear;
        }
      
        @keyframes keyframes8 {
          from {
            stroke: blue;
            stroke-dashoffset: 719;
            stroke-width: 128;
          }
          70% {
            animation-timing-function: step-end;
            stroke: blue;
            stroke-dashoffset: 0;
            stroke-width: 128;
          }
          to {
            stroke: black;
            stroke-width: 1024;
          }
        }
        #make-me-a-hanzi-animation-8 {
          animation: keyframes8 0.8351236979166666s both;
          animation-delay: 5.81103515625s;
          animation-timing-function: linear;
        }
      
        @keyframes keyframes9 {
          from {
            stroke: blue;
            stroke-dashoffset: 647;
            stroke-width: 128;
          }
          68% {
            animation-timing-function: step-end;
            stroke: blue;
            stroke-dashoffset: 0;
            stroke-width: 128;
          }
          to {
            stroke: black;
            stroke-width: 1024;
          }
        }
        #make-me-a-hanzi-animation-9 {
          animation: keyframes9 0.7765299479166666s both;
          animation-delay: 6.646158854166667s;
          animation-timing-function: linear;
        }
      
        @keyframes keyframes10 {
          from {
            stroke: blue;
            stroke-dashoffset: 603;
            stroke-width: 128;
          }
          66% {
            animation-timing-function: step-end;
            stroke: blue;
            stroke-dashoffset: 0;
            stroke-width: 128;
          }
          to {
            stroke: black;
            stroke-width: 1024;
          }
        }
        #make-me-a-hanzi-animation-10 {
          animation: keyframes10 0.74072265625s both;
          animation-delay: 7.422688802083334s;
          animation-timing-function: linear;
        }
      
        @keyframes keyframes11 {
          from {
            stroke: blue;
            stroke-dashoffset: 951;
            stroke-width: 128;
          }
          76% {
            animation-timing-function: step-end;
            stroke: blue;
            stroke-dashoffset: 0;
            stroke-width: 128;
          }
          to {
            stroke: black;
            stroke-width: 1024;
          }
        }
        #make-me-a-hanzi-animation-11 {
          animation: keyframes11 1.02392578125s both;
          animation-delay: 8.163411458333334s;
          animation-timing-function: linear;
        }
      
        @keyframes keyframes12 {
          from {
            stroke: blue;
            stroke-dashoffset: 592;
            stroke-width: 128;
          }
          66% {
            animation-timing-function: step-end;
            stroke: blue;
            stroke-dashoffset: 0;
            stroke-width: 128;
          }
          to {
            stroke: black;
            stroke-width: 1024;
          }
        }
        #make-me-a-hanzi-animation-12 {
          animation: keyframes12 0.7317708333333334s both;
          animation-delay: 9.187337239583334s;
          animation-timing-function: linear;
        }
      
    </style>
    
      <path d="M 598 642 Q 691 649 779 643 Q 794 642 798 650 Q 802 660 791 675 Q 745 712 657 694 Q 638 691 618 687 L 565 679 Q 499 672 426 661 L 379 656 Q 300 649 214 640 Q 186 637 206 623 Q 245 596 298 605 Q 344 617 388 624 L 428 629 Q 428 630 429 630 Q 489 637 556 640 L 598 642 Z" fill="lightgray" />
    
      <path d="M 426 661 Q 425 683 424 700 Q 425 718 407 723 Q 370 741 350 734 Q 334 725 348 708 Q 369 686 379 656 L 388 624 Q 398 585 412 571 Q 425 561 428 572 Q 434 593 428 629 L 426 661 Z" fill="lightgray" />
    
      <path d="M 561 571 Q 576 589 598 642 L 618 687 Q 624 700 634 716 Q 647 729 638 738 Q 628 753 598 768 Q 585 775 569 768 Q 560 764 566 754 Q 575 730 565 679 L 556 640 Q 538 580 539 567 C 537 540 543 547 561 571 Z" fill="lightgray" />
    
      <path d="M 355 534 Q 343 538 326 540 Q 316 543 312 538 Q 308 534 314 519 Q 336 476 350 405 Q 353 384 366 370 Q 376 357 382 360 C 390 359 390 364 389 394 Q 389 401 388 410 Q 385 426 383 439 L 380 459 Q 376 492 375 505 C 373 529 373 529 355 534 Z" fill="lightgray" />
    
      <path d="M 573 393 Q 585 377 597 370 Q 606 363 620 381 Q 629 394 652 468 Q 659 495 680 516 Q 692 526 682 540 Q 669 555 632 578 Q 614 587 561 571 L 539 567 Q 493 560 434 549 Q 391 540 355 534 C 325 529 346 497 375 505 Q 442 524 563 542 Q 590 546 598 537 Q 605 528 604 519 Q 592 446 586 435 Q 582 425 571 422 C 557 412 557 412 573 393 Z" fill="lightgray" />
    
      <path d="M 383 439 L 392 439 Q 483 454 550 463 Q 566 464 560 475 Q 553 485 535 489 Q 517 492 380 459 C 351 452 353 439 383 439 Z" fill="lightgray" />
    
      <path d="M 409 373 Q 500 388 573 393 C 603 395 601 417 571 422 Q 555 426 524 419 L 389 394 C 341 385 368 366 409 373 Z" fill="lightgray" />
    
      <path d="M 423 293 Q 469 305 583 307 L 619 309 Q 835 309 845 316 Q 845 317 846 318 Q 852 328 836 342 Q 775 388 737 370 Q 643 354 490 333 Q 469 332 448 327 L 369 318 Q 275 309 172 297 Q 153 296 167 279 Q 180 266 197 260 Q 218 254 233 258 Q 288 273 351 283 L 423 293 Z" fill="lightgray" />
    
      <path d="M 368 226 Q 401 271 423 293 C 444 315 450 322 448 327 Q 445 339 423 362 Q 416 369 409 373 C 389 388 389 388 382 360 Q 378 339 369 318 L 351 283 Q 267 163 76 80 Q 67 76 72 71 Q 78 67 89 68 Q 243 87 356 212 L 368 226 Z" fill="lightgray" />
    
      <path d="M 583 307 Q 742 136 753 128 Q 810 109 932 133 Q 950 134 951 140 Q 954 147 939 152 Q 798 195 755 218 Q 683 254 619 309 C 596 328 563 329 583 307 Z" fill="lightgray" />
    
      <path d="M 559 108 Q 565 115 576 131 Q 589 173 620 196 Q 636 209 622 222 Q 609 235 567 258 Q 555 267 506 253 Q 463 247 426 238 Q 390 229 368 226 C 340 222 340 222 356 212 Q 357 211 362 208 Q 390 193 408 199 Q 442 211 524 222 Q 537 223 543 221 Q 547 218 545 202 Q 533 144 527 132 Q 521 120 525 104 C 529 74 540 84 559 108 Z" fill="lightgray" />
    
      <path d="M 407 42 Q 456 75 612 80 Q 642 83 654 71 Q 666 61 654 20 Q 642 -43 632 -54 Q 623 -64 572 -60 Q 542 -54 543 -61 Q 543 -65 551 -73 Q 591 -113 606 -142 Q 613 -160 630 -150 Q 673 -129 684 -92 Q 717 35 725 49 Q 726 53 730 57 Q 742 72 732 84 Q 716 103 682 124 Q 663 136 636 124 Q 633 124 559 108 L 525 104 Q 489 100 442 91 Q 424 84 419 98 Q 425 119 432 128 Q 439 140 436 151 Q 426 167 408 180 Q 395 189 386 184 Q 380 181 385 170 Q 385 122 369 85 Q 360 67 372 52 Q 388 33 407 42 Z" fill="lightgray" />
    
      <path d="M 266 -6 Q 254 -6 251 -13 Q 248 -23 261 -34 Q 291 -58 342 -47 Q 432 -20 585 -5 Q 600 -4 600 2 Q 601 14 586 23 Q 562 35 542 31 Q 353 0 266 -6 Z" fill="lightgray" />
    
    
      <clipPath id="make-me-a-hanzi-clip-0">
        <path d="M 598 642 Q 691 649 779 643 Q 794 642 798 650 Q 802 660 791 675 Q 745 712 657 694 Q 638 691 618 687 L 565 679 Q 499 672 426 661 L 379 656 Q 300 649 214 640 Q 186 637 206 623 Q 245 596 298 605 Q 344 617 388 624 L 428 629 Q 428 630 429 630 Q 489 637 556 640 L 598 642 Z" />
      </clipPath>
      <path clip-path="url(#make-me-a-hanzi-clip-0)" d="M 208 633 L 232 625 L 285 625 L 688 673 L 743 671 L 787 656" fill="none" id="make-me-a-hanzi-animation-0" stroke-dasharray="714 1428" stroke-linecap="round" />
    
      <clipPath id="make-me-a-hanzi-clip-1">
        <path d="M 426 661 Q 425 683 424 700 Q 425 718 407 723 Q 370 741 350 734 Q 334 725 348 708 Q 369 686 379 656 L 388 624 Q 398 585 412 571 Q 425 561 428 572 Q 434 593 428 629 L 426 661 Z" />
      </clipPath>
      <path clip-path="url(#make-me-a-hanzi-clip-1)" d="M 356 720 L 394 696 L 420 574" fill="none" id="make-me-a-hanzi-animation-1" stroke-dasharray="298 596" stroke-linecap="round" />
    
      <clipPath id="make-me-a-hanzi-clip-2">
        <path d="M 561 571 Q 576 589 598 642 L 618 687 Q 624 700 634 716 Q 647 729 638 738 Q 628 753 598 768 Q 585 775 569 768 Q 560 764 566 754 Q 575 730 565 679 L 556 640 Q 538 580 539 567 C 537 540 543 547 561 571 Z" />
      </clipPath>
      <path clip-path="url(#make-me-a-hanzi-clip-2)" d="M 579 758 L 603 727 L 566 611 L 544 570" fill="none" id="make-me-a-hanzi-animation-2" stroke-dasharray="335 670" stroke-linecap="round" />
    
      <clipPath id="make-me-a-hanzi-clip-3">
        <path d="M 355 534 Q 343 538 326 540 Q 316 543 312 538 Q 308 534 314 519 Q 336 476 350 405 Q 353 384 366 370 Q 376 357 382 360 C 390 359 390 364 389 394 Q 389 401 388 410 Q 385 426 383 439 L 380 459 Q 376 492 375 505 C 373 529 373 529 355 534 Z" />
      </clipPath>
      <path clip-path="url(#make-me-a-hanzi-clip-3)" d="M 320 533 L 341 515 L 351 496 L 379 366" fill="none" id="make-me-a-hanzi-animation-3" stroke-dasharray="310 620" stroke-linecap="round" />
    
      <clipPath id="make-me-a-hanzi-clip-4">
        <path d="M 573 393 Q 585 377 597 370 Q 606 363 620 381 Q 629 394 652 468 Q 659 495 680 516 Q 692 526 682 540 Q 669 555 632 578 Q 614 587 561 571 L 539 567 Q 493 560 434 549 Q 391 540 355 534 C 325 529 346 497 375 505 Q 442 524 563 542 Q 590 546 598 537 Q 605 528 604 519 Q 592 446 586 435 Q 582 425 571 422 C 557 412 557 412 573 393 Z" />
      </clipPath>
      <path clip-path="url(#make-me-a-hanzi-clip-4)" d="M 362 531 L 382 523 L 575 560 L 616 556 L 637 535 L 638 518 L 605 413 L 601 407 L 580 415" fill="none" id="make-me-a-hanzi-animation-4" stroke-dasharray="574 1148" stroke-linecap="round" />
    
      <clipPath id="make-me-a-hanzi-clip-5">
        <path d="M 383 439 L 392 439 Q 483 454 550 463 Q 566 464 560 475 Q 553 485 535 489 Q 517 492 380 459 C 351 452 353 439 383 439 Z" />
      </clipPath>
      <path clip-path="url(#make-me-a-hanzi-clip-5)" d="M 388 445 L 396 454 L 434 457 L 443 463 L 550 473" fill="none" id="make-me-a-hanzi-animation-5" stroke-dasharray="296 592" stroke-linecap="round" />
    
      <clipPath id="make-me-a-hanzi-clip-6">
        <path d="M 409 373 Q 500 388 573 393 C 603 395 601 417 571 422 Q 555 426 524 419 L 389 394 C 341 385 368 366 409 373 Z" />
      </clipPath>
      <path clip-path="url(#make-me-a-hanzi-clip-6)" d="M 388 365 L 400 384 L 556 408 L 566 400" fill="none" id="make-me-a-hanzi-animation-6" stroke-dasharray="321 642" stroke-linecap="round" />
    
      <clipPath id="make-me-a-hanzi-clip-7">
        <path d="M 423 293 Q 469 305 583 307 L 619 309 Q 835 309 845 316 Q 845 317 846 318 Q 852 328 836 342 Q 775 388 737 370 Q 643 354 490 333 Q 469 332 448 327 L 369 318 Q 275 309 172 297 Q 153 296 167 279 Q 180 266 197 260 Q 218 254 233 258 Q 288 273 351 283 L 423 293 Z" />
      </clipPath>
      <path clip-path="url(#make-me-a-hanzi-clip-7)" d="M 170 288 L 218 279 L 484 318 L 758 343 L 817 333 L 843 318" fill="none" id="make-me-a-hanzi-animation-7" stroke-dasharray="811 1622" stroke-linecap="round" />
    
      <clipPath id="make-me-a-hanzi-clip-8">
        <path d="M 368 226 Q 401 271 423 293 C 444 315 450 322 448 327 Q 445 339 423 362 Q 416 369 409 373 C 389 388 389 388 382 360 Q 378 339 369 318 L 351 283 Q 267 163 76 80 Q 67 76 72 71 Q 78 67 89 68 Q 243 87 356 212 L 368 226 Z" />
      </clipPath>
      <path clip-path="url(#make-me-a-hanzi-clip-8)" d="M 406 361 L 408 329 L 398 309 L 355 247 L 297 187 L 234 140 L 183 111 L 77 74" fill="none" id="make-me-a-hanzi-animation-8" stroke-dasharray="591 1182" stroke-linecap="round" />
    
      <clipPath id="make-me-a-hanzi-clip-9">
        <path d="M 583 307 Q 742 136 753 128 Q 810 109 932 133 Q 950 134 951 140 Q 954 147 939 152 Q 798 195 755 218 Q 683 254 619 309 C 596 328 563 329 583 307 Z" />
      </clipPath>
      <path clip-path="url(#make-me-a-hanzi-clip-9)" d="M 602 298 L 616 294 L 675 238 L 770 167 L 832 152 L 944 142" fill="none" id="make-me-a-hanzi-animation-9" stroke-dasharray="519 1038" stroke-linecap="round" />
    
      <clipPath id="make-me-a-hanzi-clip-10">
        <path d="M 559 108 Q 565 115 576 131 Q 589 173 620 196 Q 636 209 622 222 Q 609 235 567 258 Q 555 267 506 253 Q 463 247 426 238 Q 390 229 368 226 C 340 222 340 222 356 212 Q 357 211 362 208 Q 390 193 408 199 Q 442 211 524 222 Q 537 223 543 221 Q 547 218 545 202 Q 533 144 527 132 Q 521 120 525 104 C 529 74 540 84 559 108 Z" />
      </clipPath>
      <path clip-path="url(#make-me-a-hanzi-clip-10)" d="M 361 214 L 399 214 L 521 241 L 564 234 L 575 221 L 579 202 L 553 137 L 530 112" fill="none" id="make-me-a-hanzi-animation-10" stroke-dasharray="475 950" stroke-linecap="round" />
    
      <clipPath id="make-me-a-hanzi-clip-11">
        <path d="M 407 42 Q 456 75 612 80 Q 642 83 654 71 Q 666 61 654 20 Q 642 -43 632 -54 Q 623 -64 572 -60 Q 542 -54 543 -61 Q 543 -65 551 -73 Q 591 -113 606 -142 Q 613 -160 630 -150 Q 673 -129 684 -92 Q 717 35 725 49 Q 726 53 730 57 Q 742 72 732 84 Q 716 103 682 124 Q 663 136 636 124 Q 633 124 559 108 L 525 104 Q 489 100 442 91 Q 424 84 419 98 Q 425 119 432 128 Q 439 140 436 151 Q 426 167 408 180 Q 395 189 386 184 Q 380 181 385 170 Q 385 122 369 85 Q 360 67 372 52 Q 388 33 407 42 Z" />
      </clipPath>
      <path clip-path="url(#make-me-a-hanzi-clip-11)" d="M 392 177 L 410 142 L 396 98 L 397 82 L 407 72 L 652 103 L 672 95 L 695 70 L 673 -29 L 647 -88 L 630 -100 L 565 -72 L 560 -64 L 550 -65" fill="none" id="make-me-a-hanzi-animation-11" stroke-dasharray="823 1646" stroke-linecap="round" />
    
      <clipPath id="make-me-a-hanzi-clip-12">
        <path d="M 266 -6 Q 254 -6 251 -13 Q 248 -23 261 -34 Q 291 -58 342 -47 Q 432 -20 585 -5 Q 600 -4 600 2 Q 601 14 586 23 Q 562 35 542 31 Q 353 0 266 -6 Z" />
      </clipPath>
      <path clip-path="url(#make-me-a-hanzi-clip-12)" d="M 260 -17 L 305 -27 L 514 8 L 560 12 L 591 6" fill="none" id="make-me-a-hanzi-animation-12" stroke-dasharray="464 928" stroke-linecap="round" />
    
  </g>
</svg>