<svg xmlns="http://www.w3.org/2000/svg" version="1.1" viewBox="0 0 1024 1024">
  <g stroke="lightgray" stroke-dasharray="1,1" stroke-width="1" transform="scale(4, 4)">
    <line x1="0" y1="0" x2="256" y2="256" />
    <line x1="256" y1="0" x2="0" y2="256" />
    <line x1="128" y1="0" x2="128" y2="256" />
    <line x1="0" y1="128" x2="256" y2="128" />
  </g>
  <g transform="scale(1.0, -1.0) translate(0.0, -800.00)">
    <style type="text/css">
      
        @keyframes keyframes0 {
          from {
            stroke: blue;
            stroke-dashoffset: 401;
            stroke-width: 128;
          }
          57% {
            animation-timing-function: step-end;
            stroke: blue;
            stroke-dashoffset: 0;
            stroke-width: 128;
          }
          to {
            stroke: black;
            stroke-width: 1024;
          }
        }
        #make-me-a-hanzi-animation-0 {
          animation: keyframes0 0.5763346354166666s both;
          animation-delay: 0s;
          animation-timing-function: linear;
        }
      
        @keyframes keyframes1 {
          from {
            stroke: blue;
            stroke-dashoffset: 628;
            stroke-width: 128;
          }
          67% {
            animation-timing-function: step-end;
            stroke: blue;
            stroke-dashoffset: 0;
            stroke-width: 128;
          }
          to {
            stroke: black;
            stroke-width: 1024;
          }
        }
        #make-me-a-hanzi-animation-1 {
          animation: keyframes1 0.7610677083333334s both;
          animation-delay: 0.5763346354166666s;
          animation-timing-function: linear;
        }
      
        @keyframes keyframes2 {
          from {
            stroke: blue;
            stroke-dashoffset: 449;
            stroke-width: 128;
          }
          59% {
            animation-timing-function: step-end;
            stroke: blue;
            stroke-dashoffset: 0;
            stroke-width: 128;
          }
          to {
            stroke: black;
            stroke-width: 1024;
          }
        }
        #make-me-a-hanzi-animation-2 {
          animation: keyframes2 0.6153971354166666s both;
          animation-delay: 1.33740234375s;
          animation-timing-function: linear;
        }
      
        @keyframes keyframes3 {
          from {
            stroke: blue;
            stroke-dashoffset: 447;
            stroke-width: 128;
          }
          59% {
            animation-timing-function: step-end;
            stroke: blue;
            stroke-dashoffset: 0;
            stroke-width: 128;
          }
          to {
            stroke: black;
            stroke-width: 1024;
          }
        }
        #make-me-a-hanzi-animation-3 {
          animation: keyframes3 0.61376953125s both;
          animation-delay: 1.9527994791666665s;
          animation-timing-function: linear;
        }
      
        @keyframes keyframes4 {
          from {
            stroke: blue;
            stroke-dashoffset: 455;
            stroke-width: 128;
          }
          60% {
            animation-timing-function: step-end;
            stroke: blue;
            stroke-dashoffset: 0;
            stroke-width: 128;
          }
          to {
            stroke: black;
            stroke-width: 1024;
          }
        }
        #make-me-a-hanzi-animation-4 {
          animation: keyframes4 0.6202799479166666s both;
          animation-delay: 2.5665690104166665s;
          animation-timing-function: linear;
        }
      
        @keyframes keyframes5 {
          from {
            stroke: blue;
            stroke-dashoffset: 555;
            stroke-width: 128;
          }
          64% {
            animation-timing-function: step-end;
            stroke: blue;
            stroke-dashoffset: 0;
            stroke-width: 128;
          }
          to {
            stroke: black;
            stroke-width: 1024;
          }
        }
        #make-me-a-hanzi-animation-5 {
          animation: keyframes5 0.70166015625s both;
          animation-delay: 3.186848958333333s;
          animation-timing-function: linear;
        }
      
        @keyframes keyframes6 {
          from {
            stroke: blue;
            stroke-dashoffset: 400;
            stroke-width: 128;
          }
          57% {
            animation-timing-function: step-end;
            stroke: blue;
            stroke-dashoffset: 0;
            stroke-width: 128;
          }
          to {
            stroke: black;
            stroke-width: 1024;
          }
        }
        #make-me-a-hanzi-animation-6 {
          animation: keyframes6 0.5755208333333334s both;
          animation-delay: 3.888509114583333s;
          animation-timing-function: linear;
        }
      
        @keyframes keyframes7 {
          from {
            stroke: blue;
            stroke-dashoffset: 394;
            stroke-width: 128;
          }
          56% {
            animation-timing-function: step-end;
            stroke: blue;
            stroke-dashoffset: 0;
            stroke-width: 128;
          }
          to {
            stroke: black;
            stroke-width: 1024;
          }
        }
        #make-me-a-hanzi-animation-7 {
          animation: keyframes7 0.5706380208333334s both;
          animation-delay: 4.464029947916666s;
          animation-timing-function: linear;
        }
      
        @keyframes keyframes8 {
          from {
            stroke: blue;
            stroke-dashoffset: 625;
            stroke-width: 128;
          }
          67% {
            animation-timing-function: step-end;
            stroke: blue;
            stroke-dashoffset: 0;
            stroke-width: 128;
          }
          to {
            stroke: black;
            stroke-width: 1024;
          }
        }
        #make-me-a-hanzi-animation-8 {
          animation: keyframes8 0.7586263020833334s both;
          animation-delay: 5.034667968749999s;
          animation-timing-function: linear;
        }
      
        @keyframes keyframes9 {
          from {
            stroke: blue;
            stroke-dashoffset: 425;
            stroke-width: 128;
          }
          58% {
            animation-timing-function: step-end;
            stroke: blue;
            stroke-dashoffset: 0;
            stroke-width: 128;
          }
          to {
            stroke: black;
            stroke-width: 1024;
          }
        }
        #make-me-a-hanzi-animation-9 {
          animation: keyframes9 0.5958658854166666s both;
          animation-delay: 5.793294270833332s;
          animation-timing-function: linear;
        }
      
        @keyframes keyframes10 {
          from {
            stroke: blue;
            stroke-dashoffset: 438;
            stroke-width: 128;
          }
          59% {
            animation-timing-function: step-end;
            stroke: blue;
            stroke-dashoffset: 0;
            stroke-width: 128;
          }
          to {
            stroke: black;
            stroke-width: 1024;
          }
        }
        #make-me-a-hanzi-animation-10 {
          animation: keyframes10 0.6064453125s both;
          animation-delay: 6.389160156249999s;
          animation-timing-function: linear;
        }
      
        @keyframes keyframes11 {
          from {
            stroke: blue;
            stroke-dashoffset: 805;
            stroke-width: 128;
          }
          72% {
            animation-timing-function: step-end;
            stroke: blue;
            stroke-dashoffset: 0;
            stroke-width: 128;
          }
          to {
            stroke: black;
            stroke-width: 1024;
          }
        }
        #make-me-a-hanzi-animation-11 {
          animation: keyframes11 0.9051106770833334s both;
          animation-delay: 6.995605468749999s;
          animation-timing-function: linear;
        }
      
        @keyframes keyframes12 {
          from {
            stroke: blue;
            stroke-dashoffset: 585;
            stroke-width: 128;
          }
          66% {
            animation-timing-function: step-end;
            stroke: blue;
            stroke-dashoffset: 0;
            stroke-width: 128;
          }
          to {
            stroke: black;
            stroke-width: 1024;
          }
        }
        #make-me-a-hanzi-animation-12 {
          animation: keyframes12 0.72607421875s both;
          animation-delay: 7.900716145833332s;
          animation-timing-function: linear;
        }
      
        @keyframes keyframes13 {
          from {
            stroke: blue;
            stroke-dashoffset: 795;
            stroke-width: 128;
          }
          72% {
            animation-timing-function: step-end;
            stroke: blue;
            stroke-dashoffset: 0;
            stroke-width: 128;
          }
          to {
            stroke: black;
            stroke-width: 1024;
          }
        }
        #make-me-a-hanzi-animation-13 {
          animation: keyframes13 0.89697265625s both;
          animation-delay: 8.626790364583332s;
          animation-timing-function: linear;
        }
      
        @keyframes keyframes14 {
          from {
            stroke: blue;
            stroke-dashoffset: 419;
            stroke-width: 128;
          }
          58% {
            animation-timing-function: step-end;
            stroke: blue;
            stroke-dashoffset: 0;
            stroke-width: 128;
          }
          to {
            stroke: black;
            stroke-width: 1024;
          }
        }
        #make-me-a-hanzi-animation-14 {
          animation: keyframes14 0.5909830729166666s both;
          animation-delay: 9.523763020833332s;
          animation-timing-function: linear;
        }
      
        @keyframes keyframes15 {
          from {
            stroke: blue;
            stroke-dashoffset: 431;
            stroke-width: 128;
          }
          58% {
            animation-timing-function: step-end;
            stroke: blue;
            stroke-dashoffset: 0;
            stroke-width: 128;
          }
          to {
            stroke: black;
            stroke-width: 1024;
          }
        }
        #make-me-a-hanzi-animation-15 {
          animation: keyframes15 0.6007486979166666s both;
          animation-delay: 10.114746093749998s;
          animation-timing-function: linear;
        }
      
    </style>
    
      <path d="M 327 522 L 336 543 Q 341 556 342 570 Q 342 588 333 599 Q 325 610 309 621 L 281 637 Q 269 644 261 647 L 247 652 Q 242 654 238 654 Q 234 654 232 652 Q 229 650 229 646 Q 229 643 231 639 L 237 626 Q 247 598 254 584 Q 260 571 271 556 Q 281 541 288 534 Q 295 528 307 519 C 321 508 321 508 327 522 Z" fill="lightgray" />
    
      <path d="M 307 519 L 207 502 Q 140 490 119 488 L 93 484 Q 81 483 79 481 Q 78 479 78 476 L 78 473 Q 78 467 86 462 Q 94 456 103 452 Q 113 448 125 442 Q 136 438 144 438 L 147 438 Q 154 438 171 444 Q 188 450 207 455 L 245 464 Q 285 474 295 476 L 350 484 L 399 492 Q 412 494 427 496 Q 443 498 450 499 Q 457 500 461 504 Q 463 506 463 512 Q 463 518 453 524 Q 443 530 429 533 Q 415 537 407 537 L 404 537 Q 396 537 379 534 L 327 522 L 307 519 Z" fill="lightgray" />
    
      <path d="M 202 374 L 191 372 Q 184 370 183 368 Q 182 367 182 365 Q 182 362 186 358 Q 191 354 199 350 Q 207 347 211 346 Q 213 345 223 344 Q 230 343 234 343 L 237 343 Q 241 343 249 345 L 285 355 L 341 368 L 375 376 Q 379 377 383 380 Q 387 384 387 387 Q 387 392 381 395 Q 375 399 359 402 L 343 406 Q 338 407 334 407 Q 330 407 327 406 Q 320 405 308 400 L 279 391 Q 263 386 249 383 Q 234 380 217 376 L 202 374 Z" fill="lightgray" />
    
      <path d="M 200 274 L 189 273 Q 183 272 181 269 Q 180 267 180 266 Q 180 262 183 259 Q 189 254 197 251 Q 206 247 209 246 Q 213 244 220 243 Q 227 242 233 242 Q 238 242 245 244 L 283 253 L 339 263 L 373 270 L 381 274 Q 385 278 385 281 Q 385 286 380 290 Q 375 293 361 296 L 341 302 Q 337 303 333 303 Q 330 303 327 302 Q 323 302 311 297 Q 299 293 279 289 L 243 281 Q 241 280 215 276 L 200 274 Z" fill="lightgray" />
    
      <path d="M 199 154 L 179 159 Q 170 161 164 161 L 161 161 Q 151 160 149 156 L 149 154 Q 149 151 151 148 Q 153 144 159 138 Q 165 133 169 126 Q 173 119 176 108 L 183 80 L 193 9 Q 195 -3 198 -12 Q 201 -20 205 -26 Q 212 -33 217 -33 L 220 -33 Q 227 -32 229 -24 L 233 -13 L 233 20 L 221 130 C 219 149 219 149 199 154 Z" fill="lightgray" />
    
      <path d="M 363 30 L 385 92 Q 387 98 393 111 L 402 131 Q 406 138 413 145 Q 420 152 421 156 Q 421 162 411 171 Q 400 180 389 185 L 367 194 Q 357 198 351 198 Q 347 198 337 192 Q 327 187 310 181 Q 293 176 285 173 Q 275 170 263 168 L 199 154 C 170 148 192 124 221 130 L 319 150 Q 325 151 329 151 Q 335 151 337 149 Q 340 146 340 138 Q 340 134 339 129 L 323 38 C 318 8 353 2 363 30 Z" fill="lightgray" />
    
      <path d="M 233 -13 L 301 -2 Q 305 -2 325 0 Q 345 2 350 2 Q 355 2 364 3 Q 373 3 377 4 Q 381 5 383 9 Q 384 10 384 11 Q 384 15 375 22 L 363 30 C 345 42 345 42 323 38 L 233 20 C 204 14 203 -18 233 -13 Z" fill="lightgray" />
    
      <path d="M 659 584 L 663 595 Q 667 604 667 620 Q 666 640 657 653 Q 647 666 626 675 Q 605 684 589 689 Q 573 694 564 694 L 558 694 Q 551 694 549 692 L 549 690 Q 549 685 553 676 Q 559 664 569 646 L 586 616 Q 594 604 601 595 Q 608 586 615 578 C 635 555 649 556 659 584 Z" fill="lightgray" />
    
      <path d="M 745 556 L 801 566 Q 819 570 827 574 Q 835 578 836 582 L 836 583 Q 836 587 827 593 Q 816 601 805 604 Q 795 607 788 607 L 784 607 Q 775 607 741 600 L 659 584 L 615 578 L 469 564 Q 458 562 456 558 Q 455 557 455 556 Q 455 553 461 547 Q 469 538 478 536 Q 487 534 499 534 L 517 532 L 567 535 Q 595 536 627 540 Q 659 544 695 550 L 745 556 Z" fill="lightgray" />
    
      <path d="M 499 534 L 515 479 Q 519 465 531 433 Q 541 400 551 373 C 561 345 576 347 583 376 L 591 408 Q 594 417 594 425 Q 594 435 590 445 Q 583 464 570 481 Q 557 498 547 508 Q 537 518 517 532 C 495 548 495 548 499 534 Z" fill="lightgray" />
    
      <path d="M 700 390 L 747 472 Q 755 487 767 499 Q 779 512 781 516 L 781 518 Q 781 527 771 537 Q 759 547 745 556 C 720 573 690 580 695 550 L 699 524 L 699 522 Q 699 513 694 486 Q 688 454 685 446 L 667 386 C 658 357 685 364 700 390 Z" fill="lightgray" />
    
      <path d="M 551 373 L 407 358 Q 390 356 388 353 Q 387 352 387 349 Q 387 347 388 344 Q 391 338 406 331 Q 421 324 429 321 Q 438 318 445 318 L 450 318 Q 459 318 478 322 Q 503 328 525 332 Q 547 336 586 340 L 685 350 Q 745 356 767 357 Q 787 358 879 360 L 903 360 Q 939 361 943 366 Q 948 371 948 376 L 948 377 Q 948 383 937 390 Q 926 398 916 403 Q 907 407 893 410 Q 881 414 874 415 L 870 415 Q 861 415 847 412 Q 829 408 807 405 L 700 390 L 667 386 L 583 376 L 551 373 Z" fill="lightgray" />
    
      <path d="M 549 234 L 522 246 Q 513 250 508 250 Q 505 250 503 249 Q 496 246 495 240 L 495 239 Q 495 232 502 218 Q 509 203 509 178 L 509 96 Q 508 92 504 54 Q 499 17 499 16 L 492 -18 L 492 -27 Q 492 -36 493 -43 Q 496 -54 502 -67 Q 509 -79 515 -84 Q 521 -90 527 -90 Q 533 -90 537 -79 L 543 -63 L 547 -28 L 552 84 L 553 113 L 556 206 C 557 231 557 231 549 234 Z" fill="lightgray" />
    
      <path d="M 691 -42 L 715 -90 Q 720 -102 725 -110 Q 731 -118 737 -118 L 741 -118 Q 747 -118 754 -113 Q 763 -106 771 -92 Q 779 -78 784 -66 Q 789 -53 789 -38 Q 789 -32 785 -8 Q 781 16 779 47 Q 777 79 777 95 L 779 159 Q 779 192 787 208 Q 795 225 795 231 Q 794 236 785 245 Q 776 254 760 263 Q 744 272 735 276 Q 729 279 721 279 L 717 279 Q 711 278 694 272 Q 677 264 655 258 Q 633 252 611 248 Q 589 242 549 234 C 520 228 527 200 556 206 L 661 227 Q 675 230 693 230 Q 711 230 717 224 Q 723 218 723 197 L 723 130 L 725 104 L 723 -12 C 722 -42 678 -15 691 -42 Z" fill="lightgray" />
    
      <path d="M 552 84 L 580 80 L 615 86 L 725 104 C 755 109 752 125 723 130 L 680 138 L 645 130 L 553 113 C 523 108 522 88 552 84 Z" fill="lightgray" />
    
      <path d="M 543 -63 L 691 -42 C 721 -38 751 -21 723 -12 L 705 -6 Q 695 -4 691 -3 L 690 -3 Q 683 -3 651 -9 L 547 -28 C 517 -33 513 -67 543 -63 Z" fill="lightgray" />
    
    
      <clipPath id="make-me-a-hanzi-clip-0">
        <path d="M 327 522 L 336 543 Q 341 556 342 570 Q 342 588 333 599 Q 325 610 309 621 L 281 637 Q 269 644 261 647 L 247 652 Q 242 654 238 654 Q 234 654 232 652 Q 229 650 229 646 Q 229 643 231 639 L 237 626 Q 247 598 254 584 Q 260 571 271 556 Q 281 541 288 534 Q 295 528 307 519 C 321 508 321 508 327 522 Z" />
      </clipPath>
      <path clip-path="url(#make-me-a-hanzi-clip-0)" d="M 238 646 L 305 573 L 312 541 L 321 531" fill="none" id="make-me-a-hanzi-animation-0" stroke-dasharray="273 546" stroke-linecap="round" />
    
      <clipPath id="make-me-a-hanzi-clip-1">
        <path d="M 307 519 L 207 502 Q 140 490 119 488 L 93 484 Q 81 483 79 481 Q 78 479 78 476 L 78 473 Q 78 467 86 462 Q 94 456 103 452 Q 113 448 125 442 Q 136 438 144 438 L 147 438 Q 154 438 171 444 Q 188 450 207 455 L 245 464 Q 285 474 295 476 L 350 484 L 399 492 Q 412 494 427 496 Q 443 498 450 499 Q 457 500 461 504 Q 463 506 463 512 Q 463 518 453 524 Q 443 530 429 533 Q 415 537 407 537 L 404 537 Q 396 537 379 534 L 327 522 L 307 519 Z" />
      </clipPath>
      <path clip-path="url(#make-me-a-hanzi-clip-1)" d="M 87 477 L 98 470 L 143 464 L 400 515 L 451 511" fill="none" id="make-me-a-hanzi-animation-1" stroke-dasharray="500 1000" stroke-linecap="round" />
    
      <clipPath id="make-me-a-hanzi-clip-2">
        <path d="M 202 374 L 191 372 Q 184 370 183 368 Q 182 367 182 365 Q 182 362 186 358 Q 191 354 199 350 Q 207 347 211 346 Q 213 345 223 344 Q 230 343 234 343 L 237 343 Q 241 343 249 345 L 285 355 L 341 368 L 375 376 Q 379 377 383 380 Q 387 384 387 387 Q 387 392 381 395 Q 375 399 359 402 L 343 406 Q 338 407 334 407 Q 330 407 327 406 Q 320 405 308 400 L 279 391 Q 263 386 249 383 Q 234 380 217 376 L 202 374 Z" />
      </clipPath>
      <path clip-path="url(#make-me-a-hanzi-clip-2)" d="M 189 364 L 236 362 L 333 387 L 379 387" fill="none" id="make-me-a-hanzi-animation-2" stroke-dasharray="321 642" stroke-linecap="round" />
    
      <clipPath id="make-me-a-hanzi-clip-3">
        <path d="M 200 274 L 189 273 Q 183 272 181 269 Q 180 267 180 266 Q 180 262 183 259 Q 189 254 197 251 Q 206 247 209 246 Q 213 244 220 243 Q 227 242 233 242 Q 238 242 245 244 L 283 253 L 339 263 L 373 270 L 381 274 Q 385 278 385 281 Q 385 286 380 290 Q 375 293 361 296 L 341 302 Q 337 303 333 303 Q 330 303 327 302 Q 323 302 311 297 Q 299 293 279 289 L 243 281 Q 241 280 215 276 L 200 274 Z" />
      </clipPath>
      <path clip-path="url(#make-me-a-hanzi-clip-3)" d="M 188 265 L 236 261 L 333 283 L 376 282" fill="none" id="make-me-a-hanzi-animation-3" stroke-dasharray="319 638" stroke-linecap="round" />
    
      <clipPath id="make-me-a-hanzi-clip-4">
        <path d="M 199 154 L 179 159 Q 170 161 164 161 L 161 161 Q 151 160 149 156 L 149 154 Q 149 151 151 148 Q 153 144 159 138 Q 165 133 169 126 Q 173 119 176 108 L 183 80 L 193 9 Q 195 -3 198 -12 Q 201 -20 205 -26 Q 212 -33 217 -33 L 220 -33 Q 227 -32 229 -24 L 233 -13 L 233 20 L 221 130 C 219 149 219 149 199 154 Z" />
      </clipPath>
      <path clip-path="url(#make-me-a-hanzi-clip-4)" d="M 156 155 L 188 135 L 198 119 L 219 -22" fill="none" id="make-me-a-hanzi-animation-4" stroke-dasharray="327 654" stroke-linecap="round" />
    
      <clipPath id="make-me-a-hanzi-clip-5">
        <path d="M 363 30 L 385 92 Q 387 98 393 111 L 402 131 Q 406 138 413 145 Q 420 152 421 156 Q 421 162 411 171 Q 400 180 389 185 L 367 194 Q 357 198 351 198 Q 347 198 337 192 Q 327 187 310 181 Q 293 176 285 173 Q 275 170 263 168 L 199 154 C 170 148 192 124 221 130 L 319 150 Q 325 151 329 151 Q 335 151 337 149 Q 340 146 340 138 Q 340 134 339 129 L 323 38 C 318 8 353 2 363 30 Z" />
      </clipPath>
      <path clip-path="url(#make-me-a-hanzi-clip-5)" d="M 206 153 L 227 145 L 340 171 L 362 165 L 373 153 L 369 128 L 347 54 L 331 44" fill="none" id="make-me-a-hanzi-animation-5" stroke-dasharray="427 854" stroke-linecap="round" />
    
      <clipPath id="make-me-a-hanzi-clip-6">
        <path d="M 233 -13 L 301 -2 Q 305 -2 325 0 Q 345 2 350 2 Q 355 2 364 3 Q 373 3 377 4 Q 381 5 383 9 Q 384 10 384 11 Q 384 15 375 22 L 363 30 C 345 42 345 42 323 38 L 233 20 C 204 14 203 -18 233 -13 Z" />
      </clipPath>
      <path clip-path="url(#make-me-a-hanzi-clip-6)" d="M 239 -7 L 250 6 L 304 17 L 376 14" fill="none" id="make-me-a-hanzi-animation-6" stroke-dasharray="272 544" stroke-linecap="round" />
    
      <clipPath id="make-me-a-hanzi-clip-7">
        <path d="M 659 584 L 663 595 Q 667 604 667 620 Q 666 640 657 653 Q 647 666 626 675 Q 605 684 589 689 Q 573 694 564 694 L 558 694 Q 551 694 549 692 L 549 690 Q 549 685 553 676 Q 559 664 569 646 L 586 616 Q 594 604 601 595 Q 608 586 615 578 C 635 555 649 556 659 584 Z" />
      </clipPath>
      <path clip-path="url(#make-me-a-hanzi-clip-7)" d="M 554 691 L 616 639 L 650 593" fill="none" id="make-me-a-hanzi-animation-7" stroke-dasharray="266 532" stroke-linecap="round" />
    
      <clipPath id="make-me-a-hanzi-clip-8">
        <path d="M 745 556 L 801 566 Q 819 570 827 574 Q 835 578 836 582 L 836 583 Q 836 587 827 593 Q 816 601 805 604 Q 795 607 788 607 L 784 607 Q 775 607 741 600 L 659 584 L 615 578 L 469 564 Q 458 562 456 558 Q 455 557 455 556 Q 455 553 461 547 Q 469 538 478 536 Q 487 534 499 534 L 517 532 L 567 535 Q 595 536 627 540 Q 659 544 695 550 L 745 556 Z" />
      </clipPath>
      <path clip-path="url(#make-me-a-hanzi-clip-8)" d="M 462 554 L 514 550 L 602 556 L 772 584 L 828 583" fill="none" id="make-me-a-hanzi-animation-8" stroke-dasharray="497 994" stroke-linecap="round" />
    
      <clipPath id="make-me-a-hanzi-clip-9">
        <path d="M 499 534 L 515 479 Q 519 465 531 433 Q 541 400 551 373 C 561 345 576 347 583 376 L 591 408 Q 594 417 594 425 Q 594 435 590 445 Q 583 464 570 481 Q 557 498 547 508 Q 537 518 517 532 C 495 548 495 548 499 534 Z" />
      </clipPath>
      <path clip-path="url(#make-me-a-hanzi-clip-9)" d="M 503 528 L 512 524 L 530 497 L 560 440 L 565 394 L 555 382" fill="none" id="make-me-a-hanzi-animation-9" stroke-dasharray="297 594" stroke-linecap="round" />
    
      <clipPath id="make-me-a-hanzi-clip-10">
        <path d="M 700 390 L 747 472 Q 755 487 767 499 Q 779 512 781 516 L 781 518 Q 781 527 771 537 Q 759 547 745 556 C 720 573 690 580 695 550 L 699 524 L 699 522 Q 699 513 694 486 Q 688 454 685 446 L 667 386 C 658 357 685 364 700 390 Z" />
      </clipPath>
      <path clip-path="url(#make-me-a-hanzi-clip-10)" d="M 702 544 L 734 516 L 695 418 L 672 393" fill="none" id="make-me-a-hanzi-animation-10" stroke-dasharray="310 620" stroke-linecap="round" />
    
      <clipPath id="make-me-a-hanzi-clip-11">
        <path d="M 551 373 L 407 358 Q 390 356 388 353 Q 387 352 387 349 Q 387 347 388 344 Q 391 338 406 331 Q 421 324 429 321 Q 438 318 445 318 L 450 318 Q 459 318 478 322 Q 503 328 525 332 Q 547 336 586 340 L 685 350 Q 745 356 767 357 Q 787 358 879 360 L 903 360 Q 939 361 943 366 Q 948 371 948 376 L 948 377 Q 948 383 937 390 Q 926 398 916 403 Q 907 407 893 410 Q 881 414 874 415 L 870 415 Q 861 415 847 412 Q 829 408 807 405 L 700 390 L 667 386 L 583 376 L 551 373 Z" />
      </clipPath>
      <path clip-path="url(#make-me-a-hanzi-clip-11)" d="M 393 350 L 454 340 L 858 387 L 938 377" fill="none" id="make-me-a-hanzi-animation-11" stroke-dasharray="677 1354" stroke-linecap="round" />
    
      <clipPath id="make-me-a-hanzi-clip-12">
        <path d="M 549 234 L 522 246 Q 513 250 508 250 Q 505 250 503 249 Q 496 246 495 240 L 495 239 Q 495 232 502 218 Q 509 203 509 178 L 509 96 Q 508 92 504 54 Q 499 17 499 16 L 492 -18 L 492 -27 Q 492 -36 493 -43 Q 496 -54 502 -67 Q 509 -79 515 -84 Q 521 -90 527 -90 Q 533 -90 537 -79 L 543 -63 L 547 -28 L 552 84 L 553 113 L 556 206 C 557 231 557 231 549 234 Z" />
      </clipPath>
      <path clip-path="url(#make-me-a-hanzi-clip-12)" d="M 505 240 L 528 217 L 532 199 L 528 50 L 519 -31 L 525 -78" fill="none" id="make-me-a-hanzi-animation-12" stroke-dasharray="457 914" stroke-linecap="round" />
    
      <clipPath id="make-me-a-hanzi-clip-13">
        <path d="M 691 -42 L 715 -90 Q 720 -102 725 -110 Q 731 -118 737 -118 L 741 -118 Q 747 -118 754 -113 Q 763 -106 771 -92 Q 779 -78 784 -66 Q 789 -53 789 -38 Q 789 -32 785 -8 Q 781 16 779 47 Q 777 79 777 95 L 779 159 Q 779 192 787 208 Q 795 225 795 231 Q 794 236 785 245 Q 776 254 760 263 Q 744 272 735 276 Q 729 279 721 279 L 717 279 Q 711 278 694 272 Q 677 264 655 258 Q 633 252 611 248 Q 589 242 549 234 C 520 228 527 200 556 206 L 661 227 Q 675 230 693 230 Q 711 230 717 224 Q 723 218 723 197 L 723 130 L 725 104 L 723 -12 C 722 -42 678 -15 691 -42 Z" />
      </clipPath>
      <path clip-path="url(#make-me-a-hanzi-clip-13)" d="M 562 215 L 567 223 L 708 253 L 729 249 L 755 224 L 750 96 L 755 -23 L 744 -55 L 739 -102" fill="none" id="make-me-a-hanzi-animation-13" stroke-dasharray="667 1334" stroke-linecap="round" />
    
      <clipPath id="make-me-a-hanzi-clip-14">
        <path d="M 552 84 L 580 80 L 615 86 L 725 104 C 755 109 752 125 723 130 L 680 138 L 645 130 L 553 113 C 523 108 522 88 552 84 Z" />
      </clipPath>
      <path clip-path="url(#make-me-a-hanzi-clip-14)" d="M 560 91 L 570 99 L 679 117 L 708 117 L 716 110" fill="none" id="make-me-a-hanzi-animation-14" stroke-dasharray="291 582" stroke-linecap="round" />
    
      <clipPath id="make-me-a-hanzi-clip-15">
        <path d="M 543 -63 L 691 -42 C 721 -38 751 -21 723 -12 L 705 -6 Q 695 -4 691 -3 L 690 -3 Q 683 -3 651 -9 L 547 -28 C 517 -33 513 -67 543 -63 Z" />
      </clipPath>
      <path clip-path="url(#make-me-a-hanzi-clip-15)" d="M 550 -58 L 572 -40 L 717 -16" fill="none" id="make-me-a-hanzi-animation-15" stroke-dasharray="303 606" stroke-linecap="round" />
    
  </g>
</svg>