<svg xmlns="http://www.w3.org/2000/svg" version="1.1" viewBox="0 0 1024 1024">
  <g stroke="lightgray" stroke-dasharray="1,1" stroke-width="1" transform="scale(4, 4)">
    <line x1="0" y1="0" x2="256" y2="256" />
    <line x1="256" y1="0" x2="0" y2="256" />
    <line x1="128" y1="0" x2="128" y2="256" />
    <line x1="0" y1="128" x2="256" y2="128" />
  </g>
  <g transform="scale(1.0, -1.0) translate(0.0, -800.00)">
    <style type="text/css">
      
        @keyframes keyframes0 {
          from {
            stroke: blue;
            stroke-dashoffset: 405;
            stroke-width: 128;
          }
          57% {
            animation-timing-function: step-end;
            stroke: blue;
            stroke-dashoffset: 0;
            stroke-width: 128;
          }
          to {
            stroke: black;
            stroke-width: 1024;
          }
        }
        #make-me-a-hanzi-animation-0 {
          animation: keyframes0 0.57958984375s both;
          animation-delay: 0s;
          animation-timing-function: linear;
        }
      
        @keyframes keyframes1 {
          from {
            stroke: blue;
            stroke-dashoffset: 626;
            stroke-width: 128;
          }
          67% {
            animation-timing-function: step-end;
            stroke: blue;
            stroke-dashoffset: 0;
            stroke-width: 128;
          }
          to {
            stroke: black;
            stroke-width: 1024;
          }
        }
        #make-me-a-hanzi-animation-1 {
          animation: keyframes1 0.7594401041666666s both;
          animation-delay: 0.57958984375s;
          animation-timing-function: linear;
        }
      
        @keyframes keyframes2 {
          from {
            stroke: blue;
            stroke-dashoffset: 452;
            stroke-width: 128;
          }
          60% {
            animation-timing-function: step-end;
            stroke: blue;
            stroke-dashoffset: 0;
            stroke-width: 128;
          }
          to {
            stroke: black;
            stroke-width: 1024;
          }
        }
        #make-me-a-hanzi-animation-2 {
          animation: keyframes2 0.6178385416666666s both;
          animation-delay: 1.3390299479166665s;
          animation-timing-function: linear;
        }
      
        @keyframes keyframes3 {
          from {
            stroke: blue;
            stroke-dashoffset: 450;
            stroke-width: 128;
          }
          59% {
            animation-timing-function: step-end;
            stroke: blue;
            stroke-dashoffset: 0;
            stroke-width: 128;
          }
          to {
            stroke: black;
            stroke-width: 1024;
          }
        }
        #make-me-a-hanzi-animation-3 {
          animation: keyframes3 0.6162109375s both;
          animation-delay: 1.956868489583333s;
          animation-timing-function: linear;
        }
      
        @keyframes keyframes4 {
          from {
            stroke: blue;
            stroke-dashoffset: 446;
            stroke-width: 128;
          }
          59% {
            animation-timing-function: step-end;
            stroke: blue;
            stroke-dashoffset: 0;
            stroke-width: 128;
          }
          to {
            stroke: black;
            stroke-width: 1024;
          }
        }
        #make-me-a-hanzi-animation-4 {
          animation: keyframes4 0.6129557291666666s both;
          animation-delay: 2.573079427083333s;
          animation-timing-function: linear;
        }
      
        @keyframes keyframes5 {
          from {
            stroke: blue;
            stroke-dashoffset: 541;
            stroke-width: 128;
          }
          64% {
            animation-timing-function: step-end;
            stroke: blue;
            stroke-dashoffset: 0;
            stroke-width: 128;
          }
          to {
            stroke: black;
            stroke-width: 1024;
          }
        }
        #make-me-a-hanzi-animation-5 {
          animation: keyframes5 0.6902669270833334s both;
          animation-delay: 3.1860351562499996s;
          animation-timing-function: linear;
        }
      
        @keyframes keyframes6 {
          from {
            stroke: blue;
            stroke-dashoffset: 389;
            stroke-width: 128;
          }
          56% {
            animation-timing-function: step-end;
            stroke: blue;
            stroke-dashoffset: 0;
            stroke-width: 128;
          }
          to {
            stroke: black;
            stroke-width: 1024;
          }
        }
        #make-me-a-hanzi-animation-6 {
          animation: keyframes6 0.5665690104166666s both;
          animation-delay: 3.876302083333333s;
          animation-timing-function: linear;
        }
      
        @keyframes keyframes7 {
          from {
            stroke: blue;
            stroke-dashoffset: 375;
            stroke-width: 128;
          }
          55% {
            animation-timing-function: step-end;
            stroke: blue;
            stroke-dashoffset: 0;
            stroke-width: 128;
          }
          to {
            stroke: black;
            stroke-width: 1024;
          }
        }
        #make-me-a-hanzi-animation-7 {
          animation: keyframes7 0.55517578125s both;
          animation-delay: 4.44287109375s;
          animation-timing-function: linear;
        }
      
        @keyframes keyframes8 {
          from {
            stroke: blue;
            stroke-dashoffset: 612;
            stroke-width: 128;
          }
          67% {
            animation-timing-function: step-end;
            stroke: blue;
            stroke-dashoffset: 0;
            stroke-width: 128;
          }
          to {
            stroke: black;
            stroke-width: 1024;
          }
        }
        #make-me-a-hanzi-animation-8 {
          animation: keyframes8 0.748046875s both;
          animation-delay: 4.998046875s;
          animation-timing-function: linear;
        }
      
        @keyframes keyframes9 {
          from {
            stroke: blue;
            stroke-dashoffset: 400;
            stroke-width: 128;
          }
          57% {
            animation-timing-function: step-end;
            stroke: blue;
            stroke-dashoffset: 0;
            stroke-width: 128;
          }
          to {
            stroke: black;
            stroke-width: 1024;
          }
        }
        #make-me-a-hanzi-animation-9 {
          animation: keyframes9 0.5755208333333334s both;
          animation-delay: 5.74609375s;
          animation-timing-function: linear;
        }
      
        @keyframes keyframes10 {
          from {
            stroke: blue;
            stroke-dashoffset: 424;
            stroke-width: 128;
          }
          58% {
            animation-timing-function: step-end;
            stroke: blue;
            stroke-dashoffset: 0;
            stroke-width: 128;
          }
          to {
            stroke: black;
            stroke-width: 1024;
          }
        }
        #make-me-a-hanzi-animation-10 {
          animation: keyframes10 0.5950520833333334s both;
          animation-delay: 6.321614583333333s;
          animation-timing-function: linear;
        }
      
        @keyframes keyframes11 {
          from {
            stroke: blue;
            stroke-dashoffset: 413;
            stroke-width: 128;
          }
          57% {
            animation-timing-function: step-end;
            stroke: blue;
            stroke-dashoffset: 0;
            stroke-width: 128;
          }
          to {
            stroke: black;
            stroke-width: 1024;
          }
        }
        #make-me-a-hanzi-animation-11 {
          animation: keyframes11 0.5861002604166666s both;
          animation-delay: 6.916666666666666s;
          animation-timing-function: linear;
        }
      
        @keyframes keyframes12 {
          from {
            stroke: blue;
            stroke-dashoffset: 799;
            stroke-width: 128;
          }
          72% {
            animation-timing-function: step-end;
            stroke: blue;
            stroke-dashoffset: 0;
            stroke-width: 128;
          }
          to {
            stroke: black;
            stroke-width: 1024;
          }
        }
        #make-me-a-hanzi-animation-12 {
          animation: keyframes12 0.9002278645833334s both;
          animation-delay: 7.502766927083333s;
          animation-timing-function: linear;
        }
      
        @keyframes keyframes13 {
          from {
            stroke: blue;
            stroke-dashoffset: 351;
            stroke-width: 128;
          }
          53% {
            animation-timing-function: step-end;
            stroke: blue;
            stroke-dashoffset: 0;
            stroke-width: 128;
          }
          to {
            stroke: black;
            stroke-width: 1024;
          }
        }
        #make-me-a-hanzi-animation-13 {
          animation: keyframes13 0.53564453125s both;
          animation-delay: 8.402994791666666s;
          animation-timing-function: linear;
        }
      
        @keyframes keyframes14 {
          from {
            stroke: blue;
            stroke-dashoffset: 646;
            stroke-width: 128;
          }
          68% {
            animation-timing-function: step-end;
            stroke: blue;
            stroke-dashoffset: 0;
            stroke-width: 128;
          }
          to {
            stroke: black;
            stroke-width: 1024;
          }
        }
        #make-me-a-hanzi-animation-14 {
          animation: keyframes14 0.7757161458333334s both;
          animation-delay: 8.938639322916666s;
          animation-timing-function: linear;
        }
      
        @keyframes keyframes15 {
          from {
            stroke: blue;
            stroke-dashoffset: 767;
            stroke-width: 128;
          }
          71% {
            animation-timing-function: step-end;
            stroke: blue;
            stroke-dashoffset: 0;
            stroke-width: 128;
          }
          to {
            stroke: black;
            stroke-width: 1024;
          }
        }
        #make-me-a-hanzi-animation-15 {
          animation: keyframes15 0.8741861979166666s both;
          animation-delay: 9.71435546875s;
          animation-timing-function: linear;
        }
      
        @keyframes keyframes16 {
          from {
            stroke: blue;
            stroke-dashoffset: 650;
            stroke-width: 128;
          }
          68% {
            animation-timing-function: step-end;
            stroke: blue;
            stroke-dashoffset: 0;
            stroke-width: 128;
          }
          to {
            stroke: black;
            stroke-width: 1024;
          }
        }
        #make-me-a-hanzi-animation-16 {
          animation: keyframes16 0.7789713541666666s both;
          animation-delay: 10.588541666666666s;
          animation-timing-function: linear;
        }
      
    </style>
    
      <path d="M 320 517 L 325 526 Q 329 532 331 540 Q 335 548 336 554 Q 337 559 337 565 Q 337 570 336 576 Q 335 588 329 596 Q 324 604 315 613 Q 306 622 297 628 L 277 640 Q 267 646 255 651 L 242 656 Q 237 659 233 659 Q 229 659 227 656 Q 224 654 224 649 Q 224 647 225 644 L 231 630 L 247 592 Q 254 576 261 562 Q 269 546 274 539 Q 279 531 285 526 Q 290 520 299 513 C 312 502 312 502 320 517 Z" fill="lightgray" />
    
      <path d="M 299 513 L 188 494 Q 122 482 100 480 L 74 476 Q 61 475 60 472 Q 59 470 59 465 Q 59 460 68 454 Q 77 447 87 442 Q 95 438 102 436 Q 108 434 119 430 Q 131 428 136 428 Q 141 428 153 434 Q 165 439 183 444 Q 201 448 220 453 Q 239 458 261 462 L 327 476 Q 341 480 369 484 Q 398 488 410 489 Q 422 490 428 491 Q 434 492 437 495 Q 440 498 441 502 Q 441 509 430 515 Q 419 522 406 525 Q 393 529 384 530 Q 375 530 356 526 L 320 517 L 299 513 Z" fill="lightgray" />
    
      <path d="M 188 365 Q 185 364 177 362 Q 170 361 169 359 Q 168 358 168 356 Q 168 353 172 350 Q 177 345 185 342 Q 193 338 198 337 Q 202 336 209 334 L 223 334 Q 228 334 235 336 L 247 340 L 327 358 Q 353 364 359 366 Q 366 369 369 372 Q 373 375 373 378 Q 373 383 367 386 Q 361 390 345 394 Q 329 397 329 398 Q 319 398 313 397 Q 306 396 293 391 Q 281 386 267 382 L 233 373 Q 214 369 203 368 L 188 365 Z" fill="lightgray" />
    
      <path d="M 187 266 Q 183 266 175 265 Q 167 265 166 263 Q 165 262 165 260 Q 165 257 169 252 Q 175 246 185 242 Q 195 238 200 237 Q 205 236 211 236 Q 215 235 219 235 Q 223 235 227 236 L 259 243 L 309 253 L 357 263 Q 365 264 368 268 Q 371 271 371 275 Q 370 278 363 282 Q 355 286 347 289 Q 339 292 328 294 Q 323 295 318 295 Q 313 295 309 294 Q 302 294 292 291 L 262 282 L 225 274 Q 206 270 202 269 L 187 266 Z" fill="lightgray" />
    
      <path d="M 185 152 L 165 156 Q 150 158 147 158 Q 137 156 136 152 Q 135 150 135 148 Q 135 146 136 144 Q 139 142 145 137 Q 151 132 155 124 Q 160 116 163 105 Q 167 94 170 80 L 182 11 Q 184 -2 187 -9 Q 189 -16 195 -22 Q 202 -29 208 -29 L 209 -29 Q 215 -27 219 -20 L 223 -9 L 223 23 L 209 128 C 206 148 206 148 185 152 Z" fill="lightgray" />
    
      <path d="M 342 32 L 362 91 Q 365 102 370 112 Q 374 122 379 130 Q 383 137 389 144 Q 396 150 397 154 Q 397 160 388 167 Q 379 174 364 181 Q 349 188 341 191 Q 332 194 327 194 Q 323 193 315 188 Q 305 183 286 177 L 261 168 Q 249 164 240 163 L 185 152 C 156 146 180 122 209 128 L 289 144 Q 303 146 310 146 Q 315 146 316 145 Q 318 144 318 139 Q 318 134 316 125 L 302 40 C 297 10 332 4 342 32 Z" fill="lightgray" />
    
      <path d="M 223 -9 L 280 -2 L 309 3 L 328 5 Q 340 6 347 6 Q 353 6 356 7 Q 359 8 363 12 Q 364 13 364 14 Q 364 18 353 24 L 342 32 C 324 45 324 45 302 40 L 223 23 C 194 17 193 -13 223 -9 Z" fill="lightgray" />
    
      <path d="M 669 598 L 677 610 Q 683 619 683 638 Q 683 650 678 663 Q 673 676 660 686 Q 647 695 636 700 Q 624 706 615 708 L 601 712 Q 596 714 592 714 Q 589 714 587 712 Q 586 710 586 707 Q 586 705 587 701 L 592 690 L 601 666 Q 609 648 619 632 Q 629 615 635 608 Q 641 601 645 599 Q 649 596 655 595 C 665 592 665 592 669 598 Z" fill="lightgray" />
    
      <path d="M 757 570 L 791 578 Q 801 580 814 582 Q 826 586 835 588 Q 843 591 847 596 Q 849 599 849 602 Q 849 604 848 606 Q 846 611 831 617 Q 817 623 807 625 Q 801 627 795 627 Q 791 627 787 626 Q 781 626 765 620 Q 750 615 733 611 Q 716 606 700 604 L 669 598 L 655 595 L 606 586 Q 585 582 551 578 L 517 575 L 489 572 Q 483 571 481 566 L 481 564 Q 481 559 486 556 Q 493 552 507 548 L 519 546 Q 525 544 537 544 L 560 546 L 629 552 Q 635 553 664 557 Q 692 560 711 564 L 757 570 Z" fill="lightgray" />
    
      <path d="M 537 544 L 545 522 L 557 480 Q 561 465 562 464 Q 563 462 571 439 Q 580 416 583 412 Q 586 408 589 405 C 604 389 604 389 609 406 L 613 420 Q 615 429 615 434 Q 616 441 616 449 Q 616 459 614 469 Q 611 487 605 498 Q 599 508 589 518 L 573 534 Q 568 539 560 546 C 538 566 527 572 537 544 Z" fill="lightgray" />
    
      <path d="M 709 421 L 761 498 L 770 514 Q 773 518 778 524 Q 784 530 785 534 L 785 537 Q 785 544 778 552 Q 769 562 757 570 C 732 587 706 594 711 564 L 714 546 L 714 543 Q 714 536 711 519 Q 707 498 700 479 L 678 417 C 668 389 692 396 709 421 Z" fill="lightgray" />
    
      <path d="M 481 390 L 481 399 L 476 413 Q 473 423 468 426 Q 465 429 462 429 Q 460 429 459 428 Q 455 427 453 418 L 450 402 Q 447 392 443 382 Q 439 372 428 348 Q 417 324 409 312 Q 403 300 401 295 Q 398 287 398 281 Q 398 273 402 267 Q 409 256 418 256 Q 427 256 435 262 Q 443 269 453 287 Q 463 305 467 314 L 473 332 Q 475 342 479 356 L 481 390 Z" fill="lightgray" />
    
      <path d="M 479 356 L 510 362 L 585 374 L 681 389 L 778 401 L 817 407 L 840 409 L 845 409 Q 854 409 857 406 Q 860 402 861 396 Q 861 390 855 378 Q 851 366 846 354 Q 841 342 838 337 L 830 322 Q 828 317 828 315 Q 828 313 829 312 Q 830 311 831 311 Q 833 311 839 315 L 855 328 Q 868 338 875 342 L 908 360 Q 927 370 933 372 L 955 379 Q 961 382 963 386 Q 964 388 964 390 Q 964 395 957 404 Q 948 414 929 426 Q 909 438 894 444 Q 878 450 865 450 Q 853 450 831 446 Q 811 441 787 436 Q 763 430 742 427 L 709 421 L 678 417 L 609 406 L 589 405 L 481 390 C 451 386 450 350 479 356 Z" fill="lightgray" />
    
      <path d="M 667 268 L 673 282 Q 675 288 675 296 Q 675 302 674 308 Q 671 318 663 328 Q 655 338 648 341 Q 641 344 625 350 Q 609 356 603 356 Q 595 356 593 353 Q 592 352 592 350 Q 592 345 597 336 L 611 308 Q 618 294 626 284 Q 634 273 643 263 C 658 246 658 246 667 268 Z" fill="lightgray" />
    
      <path d="M 643 263 L 541 245 Q 527 242 501 240 L 481 237 Q 469 236 468 232 L 468 231 Q 468 229 475 223 Q 483 216 495 211 Q 507 205 517 204 Q 524 204 540 208 Q 557 213 572 216 L 601 222 L 653 230 L 683 234 Q 693 236 729 239 Q 764 243 787 245 Q 811 246 834 248 L 853 249 Q 866 250 868 255 Q 869 256 869 258 Q 869 262 865 267 Q 859 273 848 280 Q 837 286 825 290 Q 817 293 807 293 Q 802 293 797 292 Q 789 292 771 287 Q 752 282 745 282 L 667 268 L 643 263 Z" fill="lightgray" />
    
      <path d="M 642 154 L 655 149 Q 659 146 679 141 Q 698 136 717 134 Q 737 133 742 130 Q 747 127 750 124 Q 753 120 753 109 Q 753 99 748 82 Q 744 66 735 41 Q 726 17 713 -10 Q 701 -36 689 -46 Q 678 -54 669 -55 L 668 -55 Q 657 -55 636 -43 Q 613 -30 612 -30 L 600 -21 Q 595 -17 591 -17 Q 589 -17 587 -19 Q 586 -20 586 -22 Q 586 -24 589 -28 L 597 -41 L 613 -66 Q 626 -85 633 -99 L 647 -127 Q 651 -135 656 -137 Q 659 -138 663 -138 Q 667 -138 673 -137 Q 685 -134 698 -126 Q 711 -117 724 -104 Q 737 -90 750 -68 Q 763 -47 771 -29 Q 777 -11 791 28 Q 805 68 811 81 Q 817 94 825 102 Q 833 110 834 113 L 834 114 Q 834 118 831 124 Q 827 132 815 144 Q 803 157 793 162 Q 783 168 774 168 Q 772 168 758 167 L 731 167 Q 719 168 711 168 Q 704 169 691 172 Q 679 174 663 178 C 634 185 614 165 642 154 Z" fill="lightgray" />
    
      <path d="M 601 222 L 597 194 Q 595 179 585 157 Q 575 135 559 111 Q 543 86 523 63 Q 502 40 476 17 Q 450 -6 425 -22 Q 401 -39 399 -40 L 389 -48 Q 383 -53 383 -56 L 383 -57 Q 384 -59 387 -59 Q 390 -59 394 -58 L 407 -54 Q 419 -50 445 -38 Q 471 -26 498 -9 Q 526 8 552 34 Q 579 61 596 85 L 623 124 L 642 154 L 663 178 L 669 190 L 678 202 L 678 204 Q 678 209 673 215 Q 667 222 653 230 C 628 246 605 252 601 222 Z" fill="lightgray" />
    
    
      <clipPath id="make-me-a-hanzi-clip-0">
        <path d="M 320 517 L 325 526 Q 329 532 331 540 Q 335 548 336 554 Q 337 559 337 565 Q 337 570 336 576 Q 335 588 329 596 Q 324 604 315 613 Q 306 622 297 628 L 277 640 Q 267 646 255 651 L 242 656 Q 237 659 233 659 Q 229 659 227 656 Q 224 654 224 649 Q 224 647 225 644 L 231 630 L 247 592 Q 254 576 261 562 Q 269 546 274 539 Q 279 531 285 526 Q 290 520 299 513 C 312 502 312 502 320 517 Z" />
      </clipPath>
      <path clip-path="url(#make-me-a-hanzi-clip-0)" d="M 234 649 L 296 578 L 305 537 L 313 527" fill="none" id="make-me-a-hanzi-animation-0" stroke-dasharray="277 554" stroke-linecap="round" />
    
      <clipPath id="make-me-a-hanzi-clip-1">
        <path d="M 299 513 L 188 494 Q 122 482 100 480 L 74 476 Q 61 475 60 472 Q 59 470 59 465 Q 59 460 68 454 Q 77 447 87 442 Q 95 438 102 436 Q 108 434 119 430 Q 131 428 136 428 Q 141 428 153 434 Q 165 439 183 444 Q 201 448 220 453 Q 239 458 261 462 L 327 476 Q 341 480 369 484 Q 398 488 410 489 Q 422 490 428 491 Q 434 492 437 495 Q 440 498 441 502 Q 441 509 430 515 Q 419 522 406 525 Q 393 529 384 530 Q 375 530 356 526 L 320 517 L 299 513 Z" />
      </clipPath>
      <path clip-path="url(#make-me-a-hanzi-clip-1)" d="M 69 467 L 134 456 L 368 507 L 432 502" fill="none" id="make-me-a-hanzi-animation-1" stroke-dasharray="498 996" stroke-linecap="round" />
    
      <clipPath id="make-me-a-hanzi-clip-2">
        <path d="M 188 365 Q 185 364 177 362 Q 170 361 169 359 Q 168 358 168 356 Q 168 353 172 350 Q 177 345 185 342 Q 193 338 198 337 Q 202 336 209 334 L 223 334 Q 228 334 235 336 L 247 340 L 327 358 Q 353 364 359 366 Q 366 369 369 372 Q 373 375 373 378 Q 373 383 367 386 Q 361 390 345 394 Q 329 397 329 398 Q 319 398 313 397 Q 306 396 293 391 Q 281 386 267 382 L 233 373 Q 214 369 203 368 L 188 365 Z" />
      </clipPath>
      <path clip-path="url(#make-me-a-hanzi-clip-2)" d="M 174 356 L 216 351 L 313 376 L 366 379" fill="none" id="make-me-a-hanzi-animation-2" stroke-dasharray="324 648" stroke-linecap="round" />
    
      <clipPath id="make-me-a-hanzi-clip-3">
        <path d="M 187 266 Q 183 266 175 265 Q 167 265 166 263 Q 165 262 165 260 Q 165 257 169 252 Q 175 246 185 242 Q 195 238 200 237 Q 205 236 211 236 Q 215 235 219 235 Q 223 235 227 236 L 259 243 L 309 253 L 357 263 Q 365 264 368 268 Q 371 271 371 275 Q 370 278 363 282 Q 355 286 347 289 Q 339 292 328 294 Q 323 295 318 295 Q 313 295 309 294 Q 302 294 292 291 L 262 282 L 225 274 Q 206 270 202 269 L 187 266 Z" />
      </clipPath>
      <path clip-path="url(#make-me-a-hanzi-clip-3)" d="M 172 260 L 207 253 L 307 274 L 363 274" fill="none" id="make-me-a-hanzi-animation-3" stroke-dasharray="322 644" stroke-linecap="round" />
    
      <clipPath id="make-me-a-hanzi-clip-4">
        <path d="M 185 152 L 165 156 Q 150 158 147 158 Q 137 156 136 152 Q 135 150 135 148 Q 135 146 136 144 Q 139 142 145 137 Q 151 132 155 124 Q 160 116 163 105 Q 167 94 170 80 L 182 11 Q 184 -2 187 -9 Q 189 -16 195 -22 Q 202 -29 208 -29 L 209 -29 Q 215 -27 219 -20 L 223 -9 L 223 23 L 209 128 C 206 148 206 148 185 152 Z" />
      </clipPath>
      <path clip-path="url(#make-me-a-hanzi-clip-4)" d="M 144 148 L 168 137 L 186 116 L 209 -18" fill="none" id="make-me-a-hanzi-animation-4" stroke-dasharray="318 636" stroke-linecap="round" />
    
      <clipPath id="make-me-a-hanzi-clip-5">
        <path d="M 342 32 L 362 91 Q 365 102 370 112 Q 374 122 379 130 Q 383 137 389 144 Q 396 150 397 154 Q 397 160 388 167 Q 379 174 364 181 Q 349 188 341 191 Q 332 194 327 194 Q 323 193 315 188 Q 305 183 286 177 L 261 168 Q 249 164 240 163 L 185 152 C 156 146 180 122 209 128 L 289 144 Q 303 146 310 146 Q 315 146 316 145 Q 318 144 318 139 Q 318 134 316 125 L 302 40 C 297 10 332 4 342 32 Z" />
      </clipPath>
      <path clip-path="url(#make-me-a-hanzi-clip-5)" d="M 192 151 L 214 143 L 317 167 L 331 167 L 345 156 L 351 149 L 329 61 L 310 46" fill="none" id="make-me-a-hanzi-animation-5" stroke-dasharray="413 826" stroke-linecap="round" />
    
      <clipPath id="make-me-a-hanzi-clip-6">
        <path d="M 223 -9 L 280 -2 L 309 3 L 328 5 Q 340 6 347 6 Q 353 6 356 7 Q 359 8 363 12 Q 364 13 364 14 Q 364 18 353 24 L 342 32 C 324 45 324 45 302 40 L 223 23 C 194 17 193 -13 223 -9 Z" />
      </clipPath>
      <path clip-path="url(#make-me-a-hanzi-clip-6)" d="M 230 -4 L 240 9 L 299 20 L 356 17" fill="none" id="make-me-a-hanzi-animation-6" stroke-dasharray="261 522" stroke-linecap="round" />
    
      <clipPath id="make-me-a-hanzi-clip-7">
        <path d="M 669 598 L 677 610 Q 683 619 683 638 Q 683 650 678 663 Q 673 676 660 686 Q 647 695 636 700 Q 624 706 615 708 L 601 712 Q 596 714 592 714 Q 589 714 587 712 Q 586 710 586 707 Q 586 705 587 701 L 592 690 L 601 666 Q 609 648 619 632 Q 629 615 635 608 Q 641 601 645 599 Q 649 596 655 595 C 665 592 665 592 669 598 Z" />
      </clipPath>
      <path clip-path="url(#make-me-a-hanzi-clip-7)" d="M 591 709 L 646 653 L 658 614" fill="none" id="make-me-a-hanzi-animation-7" stroke-dasharray="247 494" stroke-linecap="round" />
    
      <clipPath id="make-me-a-hanzi-clip-8">
        <path d="M 757 570 L 791 578 Q 801 580 814 582 Q 826 586 835 588 Q 843 591 847 596 Q 849 599 849 602 Q 849 604 848 606 Q 846 611 831 617 Q 817 623 807 625 Q 801 627 795 627 Q 791 627 787 626 Q 781 626 765 620 Q 750 615 733 611 Q 716 606 700 604 L 669 598 L 655 595 L 606 586 Q 585 582 551 578 L 517 575 L 489 572 Q 483 571 481 566 L 481 564 Q 481 559 486 556 Q 493 552 507 548 L 519 546 Q 525 544 537 544 L 560 546 L 629 552 Q 635 553 664 557 Q 692 560 711 564 L 757 570 Z" />
      </clipPath>
      <path clip-path="url(#make-me-a-hanzi-clip-8)" d="M 488 565 L 553 561 L 671 577 L 787 602 L 840 602" fill="none" id="make-me-a-hanzi-animation-8" stroke-dasharray="484 968" stroke-linecap="round" />
    
      <clipPath id="make-me-a-hanzi-clip-9">
        <path d="M 537 544 L 545 522 L 557 480 Q 561 465 562 464 Q 563 462 571 439 Q 580 416 583 412 Q 586 408 589 405 C 604 389 604 389 609 406 L 613 420 Q 615 429 615 434 Q 616 441 616 449 Q 616 459 614 469 Q 611 487 605 498 Q 599 508 589 518 L 573 534 Q 568 539 560 546 C 538 566 527 572 537 544 Z" />
      </clipPath>
      <path clip-path="url(#make-me-a-hanzi-clip-9)" d="M 543 540 L 560 526 L 577 498 L 596 422 L 604 415" fill="none" id="make-me-a-hanzi-animation-9" stroke-dasharray="272 544" stroke-linecap="round" />
    
      <clipPath id="make-me-a-hanzi-clip-10">
        <path d="M 709 421 L 761 498 L 770 514 Q 773 518 778 524 Q 784 530 785 534 L 785 537 Q 785 544 778 552 Q 769 562 757 570 C 732 587 706 594 711 564 L 714 546 L 714 543 Q 714 536 711 519 Q 707 498 700 479 L 678 417 C 668 389 692 396 709 421 Z" />
      </clipPath>
      <path clip-path="url(#make-me-a-hanzi-clip-10)" d="M 719 561 L 746 536 L 709 449 L 685 421" fill="none" id="make-me-a-hanzi-animation-10" stroke-dasharray="296 592" stroke-linecap="round" />
    
      <clipPath id="make-me-a-hanzi-clip-11">
        <path d="M 481 390 L 481 399 L 476 413 Q 473 423 468 426 Q 465 429 462 429 Q 460 429 459 428 Q 455 427 453 418 L 450 402 Q 447 392 443 382 Q 439 372 428 348 Q 417 324 409 312 Q 403 300 401 295 Q 398 287 398 281 Q 398 273 402 267 Q 409 256 418 256 Q 427 256 435 262 Q 443 269 453 287 Q 463 305 467 314 L 473 332 Q 475 342 479 356 L 481 390 Z" />
      </clipPath>
      <path clip-path="url(#make-me-a-hanzi-clip-11)" d="M 463 423 L 466 401 L 456 355 L 419 275" fill="none" id="make-me-a-hanzi-animation-11" stroke-dasharray="285 570" stroke-linecap="round" />
    
      <clipPath id="make-me-a-hanzi-clip-12">
        <path d="M 479 356 L 510 362 L 585 374 L 681 389 L 778 401 L 817 407 L 840 409 L 845 409 Q 854 409 857 406 Q 860 402 861 396 Q 861 390 855 378 Q 851 366 846 354 Q 841 342 838 337 L 830 322 Q 828 317 828 315 Q 828 313 829 312 Q 830 311 831 311 Q 833 311 839 315 L 855 328 Q 868 338 875 342 L 908 360 Q 927 370 933 372 L 955 379 Q 961 382 963 386 Q 964 388 964 390 Q 964 395 957 404 Q 948 414 929 426 Q 909 438 894 444 Q 878 450 865 450 Q 853 450 831 446 Q 811 441 787 436 Q 763 430 742 427 L 709 421 L 678 417 L 609 406 L 589 405 L 481 390 C 451 386 450 350 479 356 Z" />
      </clipPath>
      <path clip-path="url(#make-me-a-hanzi-clip-12)" d="M 486 361 L 492 372 L 522 381 L 843 429 L 869 426 L 879 422 L 899 397 L 832 315" fill="none" id="make-me-a-hanzi-animation-12" stroke-dasharray="671 1342" stroke-linecap="round" />
    
      <clipPath id="make-me-a-hanzi-clip-13">
        <path d="M 667 268 L 673 282 Q 675 288 675 296 Q 675 302 674 308 Q 671 318 663 328 Q 655 338 648 341 Q 641 344 625 350 Q 609 356 603 356 Q 595 356 593 353 Q 592 352 592 350 Q 592 345 597 336 L 611 308 Q 618 294 626 284 Q 634 273 643 263 C 658 246 658 246 667 268 Z" />
      </clipPath>
      <path clip-path="url(#make-me-a-hanzi-clip-13)" d="M 600 349 L 645 305 L 651 288 L 647 275" fill="none" id="make-me-a-hanzi-animation-13" stroke-dasharray="223 446" stroke-linecap="round" />
    
      <clipPath id="make-me-a-hanzi-clip-14">
        <path d="M 643 263 L 541 245 Q 527 242 501 240 L 481 237 Q 469 236 468 232 L 468 231 Q 468 229 475 223 Q 483 216 495 211 Q 507 205 517 204 Q 524 204 540 208 Q 557 213 572 216 L 601 222 L 653 230 L 683 234 Q 693 236 729 239 Q 764 243 787 245 Q 811 246 834 248 L 853 249 Q 866 250 868 255 Q 869 256 869 258 Q 869 262 865 267 Q 859 273 848 280 Q 837 286 825 290 Q 817 293 807 293 Q 802 293 797 292 Q 789 292 771 287 Q 752 282 745 282 L 667 268 L 643 263 Z" />
      </clipPath>
      <path clip-path="url(#make-me-a-hanzi-clip-14)" d="M 476 232 L 526 224 L 784 268 L 835 267 L 860 259" fill="none" id="make-me-a-hanzi-animation-14" stroke-dasharray="518 1036" stroke-linecap="round" />
    
      <clipPath id="make-me-a-hanzi-clip-15">
        <path d="M 642 154 L 655 149 Q 659 146 679 141 Q 698 136 717 134 Q 737 133 742 130 Q 747 127 750 124 Q 753 120 753 109 Q 753 99 748 82 Q 744 66 735 41 Q 726 17 713 -10 Q 701 -36 689 -46 Q 678 -54 669 -55 L 668 -55 Q 657 -55 636 -43 Q 613 -30 612 -30 L 600 -21 Q 595 -17 591 -17 Q 589 -17 587 -19 Q 586 -20 586 -22 Q 586 -24 589 -28 L 597 -41 L 613 -66 Q 626 -85 633 -99 L 647 -127 Q 651 -135 656 -137 Q 659 -138 663 -138 Q 667 -138 673 -137 Q 685 -134 698 -126 Q 711 -117 724 -104 Q 737 -90 750 -68 Q 763 -47 771 -29 Q 777 -11 791 28 Q 805 68 811 81 Q 817 94 825 102 Q 833 110 834 113 L 834 114 Q 834 118 831 124 Q 827 132 815 144 Q 803 157 793 162 Q 783 168 774 168 Q 772 168 758 167 L 731 167 Q 719 168 711 168 Q 704 169 691 172 Q 679 174 663 178 C 634 185 614 165 642 154 Z" />
      </clipPath>
      <path clip-path="url(#make-me-a-hanzi-clip-15)" d="M 651 157 L 668 161 L 751 148 L 776 138 L 789 117 L 762 28 L 720 -59 L 696 -83 L 675 -94 L 643 -72 L 591 -22" fill="none" id="make-me-a-hanzi-animation-15" stroke-dasharray="639 1278" stroke-linecap="round" />
    
      <clipPath id="make-me-a-hanzi-clip-16">
        <path d="M 601 222 L 597 194 Q 595 179 585 157 Q 575 135 559 111 Q 543 86 523 63 Q 502 40 476 17 Q 450 -6 425 -22 Q 401 -39 399 -40 L 389 -48 Q 383 -53 383 -56 L 383 -57 Q 384 -59 387 -59 Q 390 -59 394 -58 L 407 -54 Q 419 -50 445 -38 Q 471 -26 498 -9 Q 526 8 552 34 Q 579 61 596 85 L 623 124 L 642 154 L 663 178 L 669 190 L 678 202 L 678 204 Q 678 209 673 215 Q 667 222 653 230 C 628 246 605 252 601 222 Z" />
      </clipPath>
      <path clip-path="url(#make-me-a-hanzi-clip-16)" d="M 664 203 L 648 204 L 631 192 L 568 84 L 514 25 L 446 -24 L 386 -56" fill="none" id="make-me-a-hanzi-animation-16" stroke-dasharray="522 1044" stroke-linecap="round" />
    
  </g>
</svg>