<svg xmlns="http://www.w3.org/2000/svg" version="1.1" viewBox="0 0 1024 1024">
  <g stroke="lightgray" stroke-dasharray="1,1" stroke-width="1" transform="scale(4, 4)">
    <line x1="0" y1="0" x2="256" y2="256" />
    <line x1="256" y1="0" x2="0" y2="256" />
    <line x1="128" y1="0" x2="128" y2="256" />
    <line x1="0" y1="128" x2="256" y2="128" />
  </g>
  <g transform="scale(1.0, -1.0) translate(0.0, -803.00)">
    <style type="text/css">
      
        @keyframes keyframes0 {
          from {
            stroke: blue;
            stroke-dashoffset: 410;
            stroke-width: 128;
          }
          57% {
            animation-timing-function: step-end;
            stroke: blue;
            stroke-dashoffset: 0;
            stroke-width: 128;
          }
          to {
            stroke: black;
            stroke-width: 1024;
          }
        }
        #make-me-a-hanzi-animation-0 {
          animation: keyframes0 0.5836588541666666s both;
          animation-delay: 0s;
          animation-timing-function: linear;
        }
      
        @keyframes keyframes1 {
          from {
            stroke: blue;
            stroke-dashoffset: 627;
            stroke-width: 128;
          }
          67% {
            animation-timing-function: step-end;
            stroke: blue;
            stroke-dashoffset: 0;
            stroke-width: 128;
          }
          to {
            stroke: black;
            stroke-width: 1024;
          }
        }
        #make-me-a-hanzi-animation-1 {
          animation: keyframes1 0.76025390625s both;
          animation-delay: 0.5836588541666666s;
          animation-timing-function: linear;
        }
      
        @keyframes keyframes2 {
          from {
            stroke: blue;
            stroke-dashoffset: 450;
            stroke-width: 128;
          }
          59% {
            animation-timing-function: step-end;
            stroke: blue;
            stroke-dashoffset: 0;
            stroke-width: 128;
          }
          to {
            stroke: black;
            stroke-width: 1024;
          }
        }
        #make-me-a-hanzi-animation-2 {
          animation: keyframes2 0.6162109375s both;
          animation-delay: 1.3439127604166665s;
          animation-timing-function: linear;
        }
      
        @keyframes keyframes3 {
          from {
            stroke: blue;
            stroke-dashoffset: 454;
            stroke-width: 128;
          }
          60% {
            animation-timing-function: step-end;
            stroke: blue;
            stroke-dashoffset: 0;
            stroke-width: 128;
          }
          to {
            stroke: black;
            stroke-width: 1024;
          }
        }
        #make-me-a-hanzi-animation-3 {
          animation: keyframes3 0.6194661458333334s both;
          animation-delay: 1.9601236979166665s;
          animation-timing-function: linear;
        }
      
        @keyframes keyframes4 {
          from {
            stroke: blue;
            stroke-dashoffset: 453;
            stroke-width: 128;
          }
          60% {
            animation-timing-function: step-end;
            stroke: blue;
            stroke-dashoffset: 0;
            stroke-width: 128;
          }
          to {
            stroke: black;
            stroke-width: 1024;
          }
        }
        #make-me-a-hanzi-animation-4 {
          animation: keyframes4 0.61865234375s both;
          animation-delay: 2.57958984375s;
          animation-timing-function: linear;
        }
      
        @keyframes keyframes5 {
          from {
            stroke: blue;
            stroke-dashoffset: 546;
            stroke-width: 128;
          }
          64% {
            animation-timing-function: step-end;
            stroke: blue;
            stroke-dashoffset: 0;
            stroke-width: 128;
          }
          to {
            stroke: black;
            stroke-width: 1024;
          }
        }
        #make-me-a-hanzi-animation-5 {
          animation: keyframes5 0.6943359375s both;
          animation-delay: 3.1982421875s;
          animation-timing-function: linear;
        }
      
        @keyframes keyframes6 {
          from {
            stroke: blue;
            stroke-dashoffset: 396;
            stroke-width: 128;
          }
          56% {
            animation-timing-function: step-end;
            stroke: blue;
            stroke-dashoffset: 0;
            stroke-width: 128;
          }
          to {
            stroke: black;
            stroke-width: 1024;
          }
        }
        #make-me-a-hanzi-animation-6 {
          animation: keyframes6 0.572265625s both;
          animation-delay: 3.892578125s;
          animation-timing-function: linear;
        }
      
        @keyframes keyframes7 {
          from {
            stroke: blue;
            stroke-dashoffset: 481;
            stroke-width: 128;
          }
          61% {
            animation-timing-function: step-end;
            stroke: blue;
            stroke-dashoffset: 0;
            stroke-width: 128;
          }
          to {
            stroke: black;
            stroke-width: 1024;
          }
        }
        #make-me-a-hanzi-animation-7 {
          animation: keyframes7 0.6414388020833334s both;
          animation-delay: 4.46484375s;
          animation-timing-function: linear;
        }
      
        @keyframes keyframes8 {
          from {
            stroke: blue;
            stroke-dashoffset: 716;
            stroke-width: 128;
          }
          70% {
            animation-timing-function: step-end;
            stroke: blue;
            stroke-dashoffset: 0;
            stroke-width: 128;
          }
          to {
            stroke: black;
            stroke-width: 1024;
          }
        }
        #make-me-a-hanzi-animation-8 {
          animation: keyframes8 0.8326822916666666s both;
          animation-delay: 5.106282552083333s;
          animation-timing-function: linear;
        }
      
        @keyframes keyframes9 {
          from {
            stroke: blue;
            stroke-dashoffset: 376;
            stroke-width: 128;
          }
          55% {
            animation-timing-function: step-end;
            stroke: blue;
            stroke-dashoffset: 0;
            stroke-width: 128;
          }
          to {
            stroke: black;
            stroke-width: 1024;
          }
        }
        #make-me-a-hanzi-animation-9 {
          animation: keyframes9 0.5559895833333334s both;
          animation-delay: 5.93896484375s;
          animation-timing-function: linear;
        }
      
        @keyframes keyframes10 {
          from {
            stroke: blue;
            stroke-dashoffset: 379;
            stroke-width: 128;
          }
          55% {
            animation-timing-function: step-end;
            stroke: blue;
            stroke-dashoffset: 0;
            stroke-width: 128;
          }
          to {
            stroke: black;
            stroke-width: 1024;
          }
        }
        #make-me-a-hanzi-animation-10 {
          animation: keyframes10 0.5584309895833334s both;
          animation-delay: 6.494954427083333s;
          animation-timing-function: linear;
        }
      
        @keyframes keyframes11 {
          from {
            stroke: blue;
            stroke-dashoffset: 441;
            stroke-width: 128;
          }
          59% {
            animation-timing-function: step-end;
            stroke: blue;
            stroke-dashoffset: 0;
            stroke-width: 128;
          }
          to {
            stroke: black;
            stroke-width: 1024;
          }
        }
        #make-me-a-hanzi-animation-11 {
          animation: keyframes11 0.60888671875s both;
          animation-delay: 7.053385416666666s;
          animation-timing-function: linear;
        }
      
        @keyframes keyframes12 {
          from {
            stroke: blue;
            stroke-dashoffset: 805;
            stroke-width: 128;
          }
          72% {
            animation-timing-function: step-end;
            stroke: blue;
            stroke-dashoffset: 0;
            stroke-width: 128;
          }
          to {
            stroke: black;
            stroke-width: 1024;
          }
        }
        #make-me-a-hanzi-animation-12 {
          animation: keyframes12 0.9051106770833334s both;
          animation-delay: 7.662272135416666s;
          animation-timing-function: linear;
        }
      
        @keyframes keyframes13 {
          from {
            stroke: blue;
            stroke-dashoffset: 366;
            stroke-width: 128;
          }
          54% {
            animation-timing-function: step-end;
            stroke: blue;
            stroke-dashoffset: 0;
            stroke-width: 128;
          }
          to {
            stroke: black;
            stroke-width: 1024;
          }
        }
        #make-me-a-hanzi-animation-13 {
          animation: keyframes13 0.5478515625s both;
          animation-delay: 8.5673828125s;
          animation-timing-function: linear;
        }
      
        @keyframes keyframes14 {
          from {
            stroke: blue;
            stroke-dashoffset: 367;
            stroke-width: 128;
          }
          54% {
            animation-timing-function: step-end;
            stroke: blue;
            stroke-dashoffset: 0;
            stroke-width: 128;
          }
          to {
            stroke: black;
            stroke-width: 1024;
          }
        }
        #make-me-a-hanzi-animation-14 {
          animation: keyframes14 0.5486653645833334s both;
          animation-delay: 9.115234375s;
          animation-timing-function: linear;
        }
      
        @keyframes keyframes15 {
          from {
            stroke: blue;
            stroke-dashoffset: 548;
            stroke-width: 128;
          }
          64% {
            animation-timing-function: step-end;
            stroke: blue;
            stroke-dashoffset: 0;
            stroke-width: 128;
          }
          to {
            stroke: black;
            stroke-width: 1024;
          }
        }
        #make-me-a-hanzi-animation-15 {
          animation: keyframes15 0.6959635416666666s both;
          animation-delay: 9.663899739583334s;
          animation-timing-function: linear;
        }
      
        @keyframes keyframes16 {
          from {
            stroke: blue;
            stroke-dashoffset: 921;
            stroke-width: 128;
          }
          75% {
            animation-timing-function: step-end;
            stroke: blue;
            stroke-dashoffset: 0;
            stroke-width: 128;
          }
          to {
            stroke: black;
            stroke-width: 1024;
          }
        }
        #make-me-a-hanzi-animation-16 {
          animation: keyframes16 0.99951171875s both;
          animation-delay: 10.35986328125s;
          animation-timing-function: linear;
        }
      
        @keyframes keyframes17 {
          from {
            stroke: blue;
            stroke-dashoffset: 838;
            stroke-width: 128;
          }
          73% {
            animation-timing-function: step-end;
            stroke: blue;
            stroke-dashoffset: 0;
            stroke-width: 128;
          }
          to {
            stroke: black;
            stroke-width: 1024;
          }
        }
        #make-me-a-hanzi-animation-17 {
          animation: keyframes17 0.9319661458333334s both;
          animation-delay: 11.359375s;
          animation-timing-function: linear;
        }
      
    </style>
    
      <path d="M 319 528 L 327 548 Q 333 561 333 577 L 333 585 Q 330 602 320 614 Q 310 627 296 636 Q 281 645 268 652 Q 255 660 247 662 L 233 668 Q 229 669 225 669 Q 221 669 218 667 Q 215 664 215 660 Q 215 658 217 654 L 223 641 L 239 603 Q 246 590 259 569 Q 273 548 279 541 L 298 524 C 312 511 312 511 319 528 Z" fill="lightgray" />
    
      <path d="M 298 524 L 177 502 Q 134 494 89 488 L 63 485 Q 50 483 49 481 Q 48 480 48 477 L 48 474 Q 48 468 56 462 Q 65 457 74 453 Q 83 448 95 444 Q 108 438 117 438 Q 125 438 141 444 Q 157 450 177 455 Q 198 461 215 465 L 263 474 L 320 486 Q 338 489 365 492 L 400 497 Q 407 498 417 500 Q 427 501 431 504 Q 433 507 433 512 Q 433 518 422 524 Q 411 530 399 534 Q 385 538 378 538 Q 371 538 349 534 L 319 528 L 298 524 Z" fill="lightgray" />
    
      <path d="M 182 370 L 171 368 Q 164 366 163 364 L 163 362 Q 163 359 167 354 Q 172 350 178 347 Q 184 344 189 343 Q 195 341 203 340 Q 208 339 213 339 L 217 339 Q 221 339 229 341 L 265 351 L 321 364 L 355 372 Q 359 373 363 376 Q 367 380 367 383 Q 367 388 361 391 Q 354 395 339 398 Q 325 402 323 402 Q 318 403 314 403 Q 310 403 307 402 Q 300 401 288 396 L 259 387 Q 243 382 229 379 Q 214 376 197 372 L 182 370 Z" fill="lightgray" />
    
      <path d="M 179 272 L 169 271 Q 161 270 159 268 Q 158 267 158 265 Q 158 262 162 258 Q 167 254 175 250 L 185 246 Q 191 243 199 242 Q 204 241 208 241 L 213 241 Q 217 241 226 243 Q 235 244 265 252 Q 294 259 317 264 L 343 268 Q 355 270 360 273 Q 365 276 366 280 L 366 281 Q 366 284 359 287 Q 353 291 337 296 Q 322 300 321 300 Q 314 301 309 301 L 305 301 Q 299 300 288 296 Q 277 292 257 287 Q 237 282 221 280 L 194 275 L 179 272 Z" fill="lightgray" />
    
      <path d="M 179 156 L 159 160 Q 148 162 142 162 L 139 162 Q 131 161 129 156 Q 128 154 128 153 Q 128 151 130 149 Q 132 146 138 141 Q 144 136 149 128 Q 153 120 157 111 Q 160 101 163 84 L 177 15 Q 178 5 181 -4 Q 185 -13 189 -18 Q 196 -26 202 -26 L 204 -26 Q 211 -24 214 -16 L 218 -5 L 218 27 L 205 134 C 203 151 203 151 179 156 Z" fill="lightgray" />
    
      <path d="M 343 36 L 363 96 Q 367 104 371 116 Q 376 126 381 134 Q 385 141 392 148 Q 399 156 399 159 L 399 160 Q 399 166 389 172 Q 378 180 368 184 Q 359 189 345 194 Q 332 198 327 198 Q 323 198 312 193 Q 301 188 285 182 Q 269 176 259 173 Q 249 170 237 168 L 179 156 C 150 150 175 129 205 134 L 287 148 Q 303 151 310 151 Q 314 151 315 150 Q 317 148 317 143 Q 317 138 315 130 L 301 44 C 296 14 334 8 343 36 Z" fill="lightgray" />
    
      <path d="M 218 -5 L 279 2 L 309 7 L 328 9 Q 341 10 347 10 Q 354 10 357 11 Q 361 12 364 16 Q 365 17 365 18 Q 365 22 355 28 L 343 36 C 324 49 324 49 301 44 L 218 27 C 189 21 188 -8 218 -5 Z" fill="lightgray" />
    
      <path d="M 519 673 L 495 676 Q 476 678 470 678 L 467 678 Q 464 678 461 674 Q 460 673 460 671 Q 460 669 461 666 Q 465 661 473 654 Q 481 647 485 635 Q 489 622 492 604 L 504 508 Q 507 487 513 474 Q 519 462 525 461 L 527 461 Q 530 461 533 463 Q 537 465 541 474 Q 545 484 545 492 L 533 646 C 531 671 531 671 519 673 Z" fill="lightgray" />
    
      <path d="M 533 646 L 683 670 Q 704 673 718 673 L 725 673 Q 741 673 746 667 Q 749 663 749 654 Q 749 648 748 640 L 733 555 Q 731 546 727 525 Q 723 505 722 498 L 722 493 Q 722 487 723 484 Q 725 478 733 476 Q 734 475 736 475 Q 742 475 751 483 Q 763 493 768 502 Q 773 510 783 540 L 806 619 Q 809 628 815 640 L 825 658 Q 828 666 828 671 L 828 673 Q 827 678 818 685 Q 809 692 796 699 Q 783 706 773 710 Q 763 714 755 714 Q 747 714 730 709 Q 714 704 693 699 Q 671 694 649 690 Q 627 685 605 682 Q 584 678 565 677 Q 547 675 519 673 C 489 671 503 641 533 646 Z" fill="lightgray" />
    
      <path d="M 583 595 Q 569 590 569 588 Q 569 584 575 581 Q 582 577 591 575 Q 599 573 607 573 Q 615 574 623 576 L 693 592 Q 703 594 703 599 L 703 600 Q 703 605 696 609 Q 688 614 674 616 Q 664 618 658 618 L 654 618 Q 649 618 639 613 Q 629 609 613 604 L 583 595 Z" fill="lightgray" />
    
      <path d="M 583 524 Q 569 520 568 517 Q 568 514 575 510 Q 581 506 589 504 Q 597 502 607 501 Q 615 501 623 502 L 693 517 Q 702 518 703 524 L 703 525 Q 703 530 696 534 Q 687 540 676 542 Q 668 543 661 543 L 655 543 Q 649 542 637 538 Q 624 534 614 532 L 583 524 Z" fill="lightgray" />
    
      <path d="M 448 400 L 434 404 Q 424 406 416 406 L 412 406 Q 405 406 403 402 Q 402 399 402 397 L 402 395 Q 403 392 408 388 Q 413 385 417 381 L 425 371 Q 429 365 433 350 L 447 273 Q 453 244 455 240 Q 456 236 461 232 Q 467 225 472 225 L 473 225 Q 479 226 483 235 L 487 244 L 489 274 L 476 376 C 474 393 474 393 448 400 Z" fill="lightgray" />
    
      <path d="M 785 264 L 791 254 Q 792 248 800 248 Q 802 248 806 249 Q 814 250 821 261 Q 827 272 837 294 L 861 351 Q 871 374 882 386 Q 893 398 894 403 L 894 405 Q 894 412 885 421 Q 875 430 859 438 Q 843 444 831 449 Q 817 454 809 454 Q 800 454 778 446 Q 755 440 724 434 Q 693 428 629 419 Q 564 410 533 408 Q 503 404 448 400 C 418 398 446 375 476 376 L 505 377 Q 511 377 541 380 L 581 384 L 657 394 L 697 401 L 783 408 Q 789 409 794 409 Q 799 409 803 408 Q 811 406 815 402 Q 817 398 817 391 L 817 386 Q 815 374 811 356 Q 805 338 801 324 Q 795 310 787 288 C 781 271 781 271 785 264 Z" fill="lightgray" />
    
      <path d="M 541 380 L 553 362 Q 557 356 561 329 L 567 280 C 571 250 595 253 597 283 L 599 320 Q 599 336 603 349 Q 606 358 606 362 Q 606 365 605 366 Q 604 370 599 374 Q 593 378 581 384 C 554 398 524 405 541 380 Z" fill="lightgray" />
    
      <path d="M 657 394 L 661 374 Q 662 372 662 368 Q 662 361 660 348 L 653 290 C 649 260 667 265 678 293 L 699 344 Q 703 356 712 364 Q 721 372 721 376 Q 721 381 715 388 Q 709 394 697 401 C 671 416 651 423 657 394 Z" fill="lightgray" />
    
      <path d="M 487 244 L 785 264 C 815 266 813 273 787 288 L 773 296 Q 763 302 749 302 L 725 298 L 678 293 L 653 290 L 597 283 L 567 280 L 489 274 C 459 272 457 242 487 244 Z" fill="lightgray" />
    
      <path d="M 615 30 L 581 -1 Q 571 -11 539 -30 Q 507 -48 485 -56 L 437 -74 Q 422 -80 417 -80 L 398 -85 Q 389 -88 389 -92 L 389 -94 Q 391 -100 395 -100 L 419 -98 Q 443 -96 477 -88 Q 511 -80 536 -70 Q 561 -61 582 -50 Q 602 -38 616 -28 L 647 -6 L 679 28 L 709 73 Q 711 76 731 111 Q 751 146 761 157 L 782 176 Q 787 182 787 186 Q 787 191 780 198 Q 772 205 761 210 Q 749 215 735 220 Q 721 226 715 226 Q 708 225 689 217 L 661 206 Q 653 202 614 193 Q 576 184 559 182 L 515 177 C 485 174 525 142 555 146 L 583 150 Q 585 150 603 156 L 645 170 Q 664 175 672 175 Q 677 175 679 174 Q 685 169 686 161 L 686 159 Q 686 152 678 133 Q 669 112 661 98 L 639 61 L 615 30 Z" fill="lightgray" />
    
      <path d="M 647 -6 L 713 -77 Q 731 -96 747 -110 Q 765 -124 779 -129 Q 790 -132 805 -132 L 813 -132 Q 828 -132 837 -131 Q 847 -130 891 -122 Q 935 -113 939 -112 L 971 -103 Q 977 -101 977 -97 L 977 -95 Q 975 -89 965 -87 L 926 -80 Q 891 -75 866 -68 Q 841 -62 816 -52 Q 791 -42 763 -28 Q 737 -14 719 -2 Q 701 10 679 28 L 639 61 L 612 90 Q 604 99 587 115 L 555 146 C 533 167 522 178 515 177 L 489 174 Q 483 174 481 170 Q 479 169 479 167 Q 479 165 481 161 Q 484 155 491 152 Q 499 148 513 140 Q 527 131 532 126 Q 538 122 547 114 L 562 97 Q 569 89 584 69 L 615 30 L 647 -6 Z" fill="lightgray" />
    
    
      <clipPath id="make-me-a-hanzi-clip-0">
        <path d="M 319 528 L 327 548 Q 333 561 333 577 L 333 585 Q 330 602 320 614 Q 310 627 296 636 Q 281 645 268 652 Q 255 660 247 662 L 233 668 Q 229 669 225 669 Q 221 669 218 667 Q 215 664 215 660 Q 215 658 217 654 L 223 641 L 239 603 Q 246 590 259 569 Q 273 548 279 541 L 298 524 C 312 511 312 511 319 528 Z" />
      </clipPath>
      <path clip-path="url(#make-me-a-hanzi-clip-0)" d="M 224 660 L 288 594 L 312 537" fill="none" id="make-me-a-hanzi-animation-0" stroke-dasharray="282 564" stroke-linecap="round" />
    
      <clipPath id="make-me-a-hanzi-clip-1">
        <path d="M 298 524 L 177 502 Q 134 494 89 488 L 63 485 Q 50 483 49 481 Q 48 480 48 477 L 48 474 Q 48 468 56 462 Q 65 457 74 453 Q 83 448 95 444 Q 108 438 117 438 Q 125 438 141 444 Q 157 450 177 455 Q 198 461 215 465 L 263 474 L 320 486 Q 338 489 365 492 L 400 497 Q 407 498 417 500 Q 427 501 431 504 Q 433 507 433 512 Q 433 518 422 524 Q 411 530 399 534 Q 385 538 378 538 Q 371 538 349 534 L 319 528 L 298 524 Z" />
      </clipPath>
      <path clip-path="url(#make-me-a-hanzi-clip-1)" d="M 58 477 L 67 471 L 126 466 L 362 515 L 422 511" fill="none" id="make-me-a-hanzi-animation-1" stroke-dasharray="499 998" stroke-linecap="round" />
    
      <clipPath id="make-me-a-hanzi-clip-2">
        <path d="M 182 370 L 171 368 Q 164 366 163 364 L 163 362 Q 163 359 167 354 Q 172 350 178 347 Q 184 344 189 343 Q 195 341 203 340 Q 208 339 213 339 L 217 339 Q 221 339 229 341 L 265 351 L 321 364 L 355 372 Q 359 373 363 376 Q 367 380 367 383 Q 367 388 361 391 Q 354 395 339 398 Q 325 402 323 402 Q 318 403 314 403 Q 310 403 307 402 Q 300 401 288 396 L 259 387 Q 243 382 229 379 Q 214 376 197 372 L 182 370 Z" />
      </clipPath>
      <path clip-path="url(#make-me-a-hanzi-clip-2)" d="M 169 363 L 215 357 L 313 383 L 359 383" fill="none" id="make-me-a-hanzi-animation-2" stroke-dasharray="322 644" stroke-linecap="round" />
    
      <clipPath id="make-me-a-hanzi-clip-3">
        <path d="M 179 272 L 169 271 Q 161 270 159 268 Q 158 267 158 265 Q 158 262 162 258 Q 167 254 175 250 L 185 246 Q 191 243 199 242 Q 204 241 208 241 L 213 241 Q 217 241 226 243 Q 235 244 265 252 Q 294 259 317 264 L 343 268 Q 355 270 360 273 Q 365 276 366 280 L 366 281 Q 366 284 359 287 Q 353 291 337 296 Q 322 300 321 300 Q 314 301 309 301 L 305 301 Q 299 300 288 296 Q 277 292 257 287 Q 237 282 221 280 L 194 275 L 179 272 Z" />
      </clipPath>
      <path clip-path="url(#make-me-a-hanzi-clip-3)" d="M 165 264 L 211 259 L 314 283 L 360 281" fill="none" id="make-me-a-hanzi-animation-3" stroke-dasharray="326 652" stroke-linecap="round" />
    
      <clipPath id="make-me-a-hanzi-clip-4">
        <path d="M 179 156 L 159 160 Q 148 162 142 162 L 139 162 Q 131 161 129 156 Q 128 154 128 153 Q 128 151 130 149 Q 132 146 138 141 Q 144 136 149 128 Q 153 120 157 111 Q 160 101 163 84 L 177 15 Q 178 5 181 -4 Q 185 -13 189 -18 Q 196 -26 202 -26 L 204 -26 Q 211 -24 214 -16 L 218 -5 L 218 27 L 205 134 C 203 151 203 151 179 156 Z" />
      </clipPath>
      <path clip-path="url(#make-me-a-hanzi-clip-4)" d="M 133 153 L 161 142 L 181 120 L 203 -15" fill="none" id="make-me-a-hanzi-animation-4" stroke-dasharray="325 650" stroke-linecap="round" />
    
      <clipPath id="make-me-a-hanzi-clip-5">
        <path d="M 343 36 L 363 96 Q 367 104 371 116 Q 376 126 381 134 Q 385 141 392 148 Q 399 156 399 159 L 399 160 Q 399 166 389 172 Q 378 180 368 184 Q 359 189 345 194 Q 332 198 327 198 Q 323 198 312 193 Q 301 188 285 182 Q 269 176 259 173 Q 249 170 237 168 L 179 156 C 150 150 175 129 205 134 L 287 148 Q 303 151 310 151 Q 314 151 315 150 Q 317 148 317 143 Q 317 138 315 130 L 301 44 C 296 14 334 8 343 36 Z" />
      </clipPath>
      <path clip-path="url(#make-me-a-hanzi-clip-5)" d="M 187 156 L 210 148 L 317 172 L 341 165 L 351 153 L 329 66 L 309 50" fill="none" id="make-me-a-hanzi-animation-5" stroke-dasharray="418 836" stroke-linecap="round" />
    
      <clipPath id="make-me-a-hanzi-clip-6">
        <path d="M 218 -5 L 279 2 L 309 7 L 328 9 Q 341 10 347 10 Q 354 10 357 11 Q 361 12 364 16 Q 365 17 365 18 Q 365 22 355 28 L 343 36 C 324 49 324 49 301 44 L 218 27 C 189 21 188 -8 218 -5 Z" />
      </clipPath>
      <path clip-path="url(#make-me-a-hanzi-clip-6)" d="M 225 0 L 239 14 L 298 24 L 358 21" fill="none" id="make-me-a-hanzi-animation-6" stroke-dasharray="268 536" stroke-linecap="round" />
    
      <clipPath id="make-me-a-hanzi-clip-7">
        <path d="M 519 673 L 495 676 Q 476 678 470 678 L 467 678 Q 464 678 461 674 Q 460 673 460 671 Q 460 669 461 666 Q 465 661 473 654 Q 481 647 485 635 Q 489 622 492 604 L 504 508 Q 507 487 513 474 Q 519 462 525 461 L 527 461 Q 530 461 533 463 Q 537 465 541 474 Q 545 484 545 492 L 533 646 C 531 671 531 671 519 673 Z" />
      </clipPath>
      <path clip-path="url(#make-me-a-hanzi-clip-7)" d="M 468 670 L 499 655 L 509 642 L 526 469" fill="none" id="make-me-a-hanzi-animation-7" stroke-dasharray="353 706" stroke-linecap="round" />
    
      <clipPath id="make-me-a-hanzi-clip-8">
        <path d="M 533 646 L 683 670 Q 704 673 718 673 L 725 673 Q 741 673 746 667 Q 749 663 749 654 Q 749 648 748 640 L 733 555 Q 731 546 727 525 Q 723 505 722 498 L 722 493 Q 722 487 723 484 Q 725 478 733 476 Q 734 475 736 475 Q 742 475 751 483 Q 763 493 768 502 Q 773 510 783 540 L 806 619 Q 809 628 815 640 L 825 658 Q 828 666 828 671 L 828 673 Q 827 678 818 685 Q 809 692 796 699 Q 783 706 773 710 Q 763 714 755 714 Q 747 714 730 709 Q 714 704 693 699 Q 671 694 649 690 Q 627 685 605 682 Q 584 678 565 677 Q 547 675 519 673 C 489 671 503 641 533 646 Z" />
      </clipPath>
      <path clip-path="url(#make-me-a-hanzi-clip-8)" d="M 528 669 L 540 660 L 742 692 L 768 683 L 785 662 L 757 539 L 737 483" fill="none" id="make-me-a-hanzi-animation-8" stroke-dasharray="588 1176" stroke-linecap="round" />
    
      <clipPath id="make-me-a-hanzi-clip-9">
        <path d="M 583 595 Q 569 590 569 588 Q 569 584 575 581 Q 582 577 591 575 Q 599 573 607 573 Q 615 574 623 576 L 693 592 Q 703 594 703 599 L 703 600 Q 703 605 696 609 Q 688 614 674 616 Q 664 618 658 618 L 654 618 Q 649 618 639 613 Q 629 609 613 604 L 583 595 Z" />
      </clipPath>
      <path clip-path="url(#make-me-a-hanzi-clip-9)" d="M 577 589 L 604 587 L 660 602 L 695 600" fill="none" id="make-me-a-hanzi-animation-9" stroke-dasharray="248 496" stroke-linecap="round" />
    
      <clipPath id="make-me-a-hanzi-clip-10">
        <path d="M 583 524 Q 569 520 568 517 Q 568 514 575 510 Q 581 506 589 504 Q 597 502 607 501 Q 615 501 623 502 L 693 517 Q 702 518 703 524 L 703 525 Q 703 530 696 534 Q 687 540 676 542 Q 668 543 661 543 L 655 543 Q 649 542 637 538 Q 624 534 614 532 L 583 524 Z" />
      </clipPath>
      <path clip-path="url(#make-me-a-hanzi-clip-10)" d="M 573 515 L 611 516 L 668 528 L 695 525" fill="none" id="make-me-a-hanzi-animation-10" stroke-dasharray="251 502" stroke-linecap="round" />
    
      <clipPath id="make-me-a-hanzi-clip-11">
        <path d="M 448 400 L 434 404 Q 424 406 416 406 L 412 406 Q 405 406 403 402 Q 402 399 402 397 L 402 395 Q 403 392 408 388 Q 413 385 417 381 L 425 371 Q 429 365 433 350 L 447 273 Q 453 244 455 240 Q 456 236 461 232 Q 467 225 472 225 L 473 225 Q 479 226 483 235 L 487 244 L 489 274 L 476 376 C 474 393 474 393 448 400 Z" />
      </clipPath>
      <path clip-path="url(#make-me-a-hanzi-clip-11)" d="M 410 396 L 436 386 L 453 363 L 473 236" fill="none" id="make-me-a-hanzi-animation-11" stroke-dasharray="313 626" stroke-linecap="round" />
    
      <clipPath id="make-me-a-hanzi-clip-12">
        <path d="M 785 264 L 791 254 Q 792 248 800 248 Q 802 248 806 249 Q 814 250 821 261 Q 827 272 837 294 L 861 351 Q 871 374 882 386 Q 893 398 894 403 L 894 405 Q 894 412 885 421 Q 875 430 859 438 Q 843 444 831 449 Q 817 454 809 454 Q 800 454 778 446 Q 755 440 724 434 Q 693 428 629 419 Q 564 410 533 408 Q 503 404 448 400 C 418 398 446 375 476 376 L 505 377 Q 511 377 541 380 L 581 384 L 657 394 L 697 401 L 783 408 Q 789 409 794 409 Q 799 409 803 408 Q 811 406 815 402 Q 817 398 817 391 L 817 386 Q 815 374 811 356 Q 805 338 801 324 Q 795 310 787 288 C 781 271 781 271 785 264 Z" />
      </clipPath>
      <path clip-path="url(#make-me-a-hanzi-clip-12)" d="M 466 393 L 483 388 L 531 392 L 802 431 L 828 424 L 851 403 L 801 260" fill="none" id="make-me-a-hanzi-animation-12" stroke-dasharray="677 1354" stroke-linecap="round" />
    
      <clipPath id="make-me-a-hanzi-clip-13">
        <path d="M 541 380 L 553 362 Q 557 356 561 329 L 567 280 C 571 250 595 253 597 283 L 599 320 Q 599 336 603 349 Q 606 358 606 362 Q 606 365 605 366 Q 604 370 599 374 Q 593 378 581 384 C 554 398 524 405 541 380 Z" />
      </clipPath>
      <path clip-path="url(#make-me-a-hanzi-clip-13)" d="M 548 378 L 580 356 L 582 302 L 574 287" fill="none" id="make-me-a-hanzi-animation-13" stroke-dasharray="238 476" stroke-linecap="round" />
    
      <clipPath id="make-me-a-hanzi-clip-14">
        <path d="M 657 394 L 661 374 Q 662 372 662 368 Q 662 361 660 348 L 653 290 C 649 260 667 265 678 293 L 699 344 Q 703 356 712 364 Q 721 372 721 376 Q 721 381 715 388 Q 709 394 697 401 C 671 416 651 423 657 394 Z" />
      </clipPath>
      <path clip-path="url(#make-me-a-hanzi-clip-14)" d="M 665 390 L 687 373 L 669 305 L 659 297" fill="none" id="make-me-a-hanzi-animation-14" stroke-dasharray="239 478" stroke-linecap="round" />
    
      <clipPath id="make-me-a-hanzi-clip-15">
        <path d="M 487 244 L 785 264 C 815 266 813 273 787 288 L 773 296 Q 763 302 749 302 L 725 298 L 678 293 L 653 290 L 597 283 L 567 280 L 489 274 C 459 272 457 242 487 244 Z" />
      </clipPath>
      <path clip-path="url(#make-me-a-hanzi-clip-15)" d="M 494 251 L 503 260 L 753 282 L 768 280 L 777 271" fill="none" id="make-me-a-hanzi-animation-15" stroke-dasharray="420 840" stroke-linecap="round" />
    
      <clipPath id="make-me-a-hanzi-clip-16">
        <path d="M 615 30 L 581 -1 Q 571 -11 539 -30 Q 507 -48 485 -56 L 437 -74 Q 422 -80 417 -80 L 398 -85 Q 389 -88 389 -92 L 389 -94 Q 391 -100 395 -100 L 419 -98 Q 443 -96 477 -88 Q 511 -80 536 -70 Q 561 -61 582 -50 Q 602 -38 616 -28 L 647 -6 L 679 28 L 709 73 Q 711 76 731 111 Q 751 146 761 157 L 782 176 Q 787 182 787 186 Q 787 191 780 198 Q 772 205 761 210 Q 749 215 735 220 Q 721 226 715 226 Q 708 225 689 217 L 661 206 Q 653 202 614 193 Q 576 184 559 182 L 515 177 C 485 174 525 142 555 146 L 583 150 Q 585 150 603 156 L 645 170 Q 664 175 672 175 Q 677 175 679 174 Q 685 169 686 161 L 686 159 Q 686 152 678 133 Q 669 112 661 98 L 639 61 L 615 30 Z" />
      </clipPath>
      <path clip-path="url(#make-me-a-hanzi-clip-16)" d="M 523 176 L 560 164 L 690 194 L 709 190 L 724 179 L 711 134 L 669 59 L 609 -7 L 578 -30 L 524 -57 L 451 -83 L 396 -93" fill="none" id="make-me-a-hanzi-animation-16" stroke-dasharray="793 1586" stroke-linecap="round" />
    
      <clipPath id="make-me-a-hanzi-clip-17">
        <path d="M 647 -6 L 713 -77 Q 731 -96 747 -110 Q 765 -124 779 -129 Q 790 -132 805 -132 L 813 -132 Q 828 -132 837 -131 Q 847 -130 891 -122 Q 935 -113 939 -112 L 971 -103 Q 977 -101 977 -97 L 977 -95 Q 975 -89 965 -87 L 926 -80 Q 891 -75 866 -68 Q 841 -62 816 -52 Q 791 -42 763 -28 Q 737 -14 719 -2 Q 701 10 679 28 L 639 61 L 612 90 Q 604 99 587 115 L 555 146 C 533 167 522 178 515 177 L 489 174 Q 483 174 481 170 Q 479 169 479 167 Q 479 165 481 161 Q 484 155 491 152 Q 499 148 513 140 Q 527 131 532 126 Q 538 122 547 114 L 562 97 Q 569 89 584 69 L 615 30 L 647 -6 Z" />
      </clipPath>
      <path clip-path="url(#make-me-a-hanzi-clip-17)" d="M 485 166 L 510 161 L 541 139 L 669 5 L 732 -50 L 785 -85 L 858 -98 L 970 -96" fill="none" id="make-me-a-hanzi-animation-17" stroke-dasharray="710 1420" stroke-linecap="round" />
    
  </g>
</svg>