<svg version="1.1" viewBox="0 0 1024 1024" xmlns="http://www.w3.org/2000/svg">
  <g stroke="lightgray" stroke-dasharray="1,1" stroke-width="1" transform="scale(4, 4)">
    <line x1="0" y1="0" x2="256" y2="256"></line>
    <line x1="256" y1="0" x2="0" y2="256"></line>
    <line x1="128" y1="0" x2="128" y2="256"></line>
    <line x1="0" y1="128" x2="256" y2="128"></line>
  </g>
  <g transform="scale(0.92, -0.92) translate(60, -830)">
    <style type="text/css">
      
        @keyframes keyframes0 {
          from {
            stroke: blue;
            stroke-dashoffset: 403;
            stroke-width: 128;
          }
          57% {
            animation-timing-function: step-end;
            stroke: blue;
            stroke-dashoffset: 0;
            stroke-width: 128;
          }
          to {
            stroke: black;
            stroke-width: 1024;
          }
        }
        #make-me-a-hanzi-animation-0 {
          animation: keyframes0 0.5779622395833334s both;
          animation-delay: 0s;
          animation-timing-function: linear;
        }
      
        @keyframes keyframes1 {
          from {
            stroke: blue;
            stroke-dashoffset: 618;
            stroke-width: 128;
          }
          67% {
            animation-timing-function: step-end;
            stroke: blue;
            stroke-dashoffset: 0;
            stroke-width: 128;
          }
          to {
            stroke: black;
            stroke-width: 1024;
          }
        }
        #make-me-a-hanzi-animation-1 {
          animation: keyframes1 0.7529296875s both;
          animation-delay: 0.5779622395833334s;
          animation-timing-function: linear;
        }
      
        @keyframes keyframes2 {
          from {
            stroke: blue;
            stroke-dashoffset: 451;
            stroke-width: 128;
          }
          59% {
            animation-timing-function: step-end;
            stroke: blue;
            stroke-dashoffset: 0;
            stroke-width: 128;
          }
          to {
            stroke: black;
            stroke-width: 1024;
          }
        }
        #make-me-a-hanzi-animation-2 {
          animation: keyframes2 0.6170247395833334s both;
          animation-delay: 1.3308919270833335s;
          animation-timing-function: linear;
        }
      
        @keyframes keyframes3 {
          from {
            stroke: blue;
            stroke-dashoffset: 448;
            stroke-width: 128;
          }
          59% {
            animation-timing-function: step-end;
            stroke: blue;
            stroke-dashoffset: 0;
            stroke-width: 128;
          }
          to {
            stroke: black;
            stroke-width: 1024;
          }
        }
        #make-me-a-hanzi-animation-3 {
          animation: keyframes3 0.6145833333333334s both;
          animation-delay: 1.947916666666667s;
          animation-timing-function: linear;
        }
      
        @keyframes keyframes4 {
          from {
            stroke: blue;
            stroke-dashoffset: 450;
            stroke-width: 128;
          }
          59% {
            animation-timing-function: step-end;
            stroke: blue;
            stroke-dashoffset: 0;
            stroke-width: 128;
          }
          to {
            stroke: black;
            stroke-width: 1024;
          }
        }
        #make-me-a-hanzi-animation-4 {
          animation: keyframes4 0.6162109375s both;
          animation-delay: 2.5625000000000004s;
          animation-timing-function: linear;
        }
      
        @keyframes keyframes5 {
          from {
            stroke: blue;
            stroke-dashoffset: 541;
            stroke-width: 128;
          }
          64% {
            animation-timing-function: step-end;
            stroke: blue;
            stroke-dashoffset: 0;
            stroke-width: 128;
          }
          to {
            stroke: black;
            stroke-width: 1024;
          }
        }
        #make-me-a-hanzi-animation-5 {
          animation: keyframes5 0.6902669270833334s both;
          animation-delay: 3.1787109375000004s;
          animation-timing-function: linear;
        }
      
        @keyframes keyframes6 {
          from {
            stroke: blue;
            stroke-dashoffset: 392;
            stroke-width: 128;
          }
          56% {
            animation-timing-function: step-end;
            stroke: blue;
            stroke-dashoffset: 0;
            stroke-width: 128;
          }
          to {
            stroke: black;
            stroke-width: 1024;
          }
        }
        #make-me-a-hanzi-animation-6 {
          animation: keyframes6 0.5690104166666666s both;
          animation-delay: 3.868977864583334s;
          animation-timing-function: linear;
        }
      
        @keyframes keyframes7 {
          from {
            stroke: blue;
            stroke-dashoffset: 647;
            stroke-width: 128;
          }
          68% {
            animation-timing-function: step-end;
            stroke: blue;
            stroke-dashoffset: 0;
            stroke-width: 128;
          }
          to {
            stroke: black;
            stroke-width: 1024;
          }
        }
        #make-me-a-hanzi-animation-7 {
          animation: keyframes7 0.7765299479166666s both;
          animation-delay: 4.437988281250001s;
          animation-timing-function: linear;
        }
      
        @keyframes keyframes8 {
          from {
            stroke: blue;
            stroke-dashoffset: 359;
            stroke-width: 128;
          }
          54% {
            animation-timing-function: step-end;
            stroke: blue;
            stroke-dashoffset: 0;
            stroke-width: 128;
          }
          to {
            stroke: black;
            stroke-width: 1024;
          }
        }
        #make-me-a-hanzi-animation-8 {
          animation: keyframes8 0.5421549479166666s both;
          animation-delay: 5.214518229166668s;
          animation-timing-function: linear;
        }
      
        @keyframes keyframes9 {
          from {
            stroke: blue;
            stroke-dashoffset: 761;
            stroke-width: 128;
          }
          71% {
            animation-timing-function: step-end;
            stroke: blue;
            stroke-dashoffset: 0;
            stroke-width: 128;
          }
          to {
            stroke: black;
            stroke-width: 1024;
          }
        }
        #make-me-a-hanzi-animation-9 {
          animation: keyframes9 0.8693033854166666s both;
          animation-delay: 5.756673177083335s;
          animation-timing-function: linear;
        }
      
        @keyframes keyframes10 {
          from {
            stroke: blue;
            stroke-dashoffset: 482;
            stroke-width: 128;
          }
          61% {
            animation-timing-function: step-end;
            stroke: blue;
            stroke-dashoffset: 0;
            stroke-width: 128;
          }
          to {
            stroke: black;
            stroke-width: 1024;
          }
        }
        #make-me-a-hanzi-animation-10 {
          animation: keyframes10 0.6422526041666666s both;
          animation-delay: 6.625976562500002s;
          animation-timing-function: linear;
        }
      
        @keyframes keyframes11 {
          from {
            stroke: blue;
            stroke-dashoffset: 556;
            stroke-width: 128;
          }
          64% {
            animation-timing-function: step-end;
            stroke: blue;
            stroke-dashoffset: 0;
            stroke-width: 128;
          }
          to {
            stroke: black;
            stroke-width: 1024;
          }
        }
        #make-me-a-hanzi-animation-11 {
          animation: keyframes11 0.7024739583333334s both;
          animation-delay: 7.268229166666669s;
          animation-timing-function: linear;
        }
      
        @keyframes keyframes12 {
          from {
            stroke: blue;
            stroke-dashoffset: 662;
            stroke-width: 128;
          }
          68% {
            animation-timing-function: step-end;
            stroke: blue;
            stroke-dashoffset: 0;
            stroke-width: 128;
          }
          to {
            stroke: black;
            stroke-width: 1024;
          }
        }
        #make-me-a-hanzi-animation-12 {
          animation: keyframes12 0.7887369791666666s both;
          animation-delay: 7.970703125000002s;
          animation-timing-function: linear;
        }
      
        @keyframes keyframes13 {
          from {
            stroke: blue;
            stroke-dashoffset: 1137;
            stroke-width: 128;
          }
          79% {
            animation-timing-function: step-end;
            stroke: blue;
            stroke-dashoffset: 0;
            stroke-width: 128;
          }
          to {
            stroke: black;
            stroke-width: 1024;
          }
        }
        #make-me-a-hanzi-animation-13 {
          animation: keyframes13 1.17529296875s both;
          animation-delay: 8.759440104166668s;
          animation-timing-function: linear;
        }
      
        @keyframes keyframes14 {
          from {
            stroke: blue;
            stroke-dashoffset: 421;
            stroke-width: 128;
          }
          58% {
            animation-timing-function: step-end;
            stroke: blue;
            stroke-dashoffset: 0;
            stroke-width: 128;
          }
          to {
            stroke: black;
            stroke-width: 1024;
          }
        }
        #make-me-a-hanzi-animation-14 {
          animation: keyframes14 0.5926106770833334s both;
          animation-delay: 9.934733072916668s;
          animation-timing-function: linear;
        }
      
        @keyframes keyframes15 {
          from {
            stroke: blue;
            stroke-dashoffset: 458;
            stroke-width: 128;
          }
          60% {
            animation-timing-function: step-end;
            stroke: blue;
            stroke-dashoffset: 0;
            stroke-width: 128;
          }
          to {
            stroke: black;
            stroke-width: 1024;
          }
        }
        #make-me-a-hanzi-animation-15 {
          animation: keyframes15 0.6227213541666666s both;
          animation-delay: 10.527343750000002s;
          animation-timing-function: linear;
        }
      
        @keyframes keyframes16 {
          from {
            stroke: blue;
            stroke-dashoffset: 398;
            stroke-width: 128;
          }
          56% {
            animation-timing-function: step-end;
            stroke: blue;
            stroke-dashoffset: 0;
            stroke-width: 128;
          }
          to {
            stroke: black;
            stroke-width: 1024;
          }
        }
        #make-me-a-hanzi-animation-16 {
          animation: keyframes16 0.5738932291666666s both;
          animation-delay: 11.150065104166668s;
          animation-timing-function: linear;
        }
      
        @keyframes keyframes17 {
          from {
            stroke: blue;
            stroke-dashoffset: 482;
            stroke-width: 128;
          }
          61% {
            animation-timing-function: step-end;
            stroke: blue;
            stroke-dashoffset: 0;
            stroke-width: 128;
          }
          to {
            stroke: black;
            stroke-width: 1024;
          }
        }
        #make-me-a-hanzi-animation-17 {
          animation: keyframes17 0.6422526041666666s both;
          animation-delay: 11.723958333333334s;
          animation-timing-function: linear;
        }
      
        @keyframes keyframes18 {
          from {
            stroke: blue;
            stroke-dashoffset: 411;
            stroke-width: 128;
          }
          57% {
            animation-timing-function: step-end;
            stroke: blue;
            stroke-dashoffset: 0;
            stroke-width: 128;
          }
          to {
            stroke: black;
            stroke-width: 1024;
          }
        }
        #make-me-a-hanzi-animation-18 {
          animation: keyframes18 0.58447265625s both;
          animation-delay: 12.3662109375s;
          animation-timing-function: linear;
        }
      
    </style>
    
      <path d="M 345 525 L 350 534 Q 353 538 355 547 Q 359 555 360 562 Q 361 569 361 576 L 361 584 Q 359 596 354 604 Q 349 612 340 621 Q 331 630 323 635 Q 316 640 303 648 Q 289 655 281 658 L 269 664 Q 264 666 261 666 Q 256 666 254 663 Q 251 661 251 657 Q 251 654 253 650 L 259 637 L 273 602 L 286 573 Q 295 554 299 547 Q 304 540 310 534 Q 316 528 325 521 C 337 511 337 511 345 525 Z" fill="lightgray"></path>
    
      <path d="M 325 521 L 210 500 Q 157 490 125 486 L 99 483 Q 87 481 85 479 Q 84 477 84 472 Q 85 466 93 460 Q 103 454 111 450 Q 119 446 126 443 Q 132 440 143 438 Q 152 435 157 435 L 159 435 Q 163 435 174 440 Q 185 446 205 451 L 239 460 Q 251 464 279 470 L 349 484 Q 365 486 391 490 Q 417 494 427 495 Q 437 496 445 498 Q 453 500 455 502 Q 458 506 459 510 Q 459 516 448 522 Q 437 530 425 532 Q 413 536 404 536 Q 394 536 377 532 L 345 525 L 325 521 Z" fill="lightgray"></path>
    
      <path d="M 215 370 L 205 369 Q 197 368 196 365 Q 195 363 195 362 Q 195 359 199 356 Q 204 351 212 348 Q 221 344 223 343 Q 227 342 236 341 Q 245 340 250 340 Q 255 340 261 342 L 274 346 L 354 364 Q 387 372 389 373 Q 392 374 396 377 Q 399 380 400 384 Q 400 388 393 392 Q 387 396 373 399 Q 358 402 355 403 Q 350 404 346 404 Q 343 404 340 403 Q 334 402 322 398 Q 311 393 293 388 Q 275 384 258 379 Q 240 374 230 373 L 215 370 Z" fill="lightgray"></path>
    
      <path d="M 213 272 Q 207 272 201 271 Q 194 270 193 268 Q 192 267 192 265 Q 192 262 196 258 Q 202 252 212 248 Q 221 244 226 243 Q 231 242 237 241 L 253 241 L 286 249 L 336 258 L 383 268 Q 392 270 395 273 Q 397 275 397 278 L 397 280 Q 397 284 390 288 Q 383 292 375 295 Q 365 298 354 299 Q 347 300 341 300 L 336 300 Q 330 300 315 295 Q 299 290 288 288 Q 277 285 256 280 Q 235 276 229 275 L 213 272 Z" fill="lightgray"></path>
    
      <path d="M 215 154 L 195 158 Q 185 160 179 160 L 176 160 Q 167 159 165 154 L 165 151 Q 165 149 166 147 Q 169 144 175 139 Q 181 134 185 126 Q 189 119 193 108 Q 196 98 199 82 L 212 13 Q 215 -2 217 -8 Q 219 -15 224 -20 Q 231 -28 237 -28 L 239 -28 Q 245 -26 248 -18 L 252 -8 L 252 24 L 239 131 C 237 150 237 150 215 154 Z" fill="lightgray"></path>
    
      <path d="M 373 34 L 393 94 Q 395 104 400 113 Q 404 123 409 132 Q 414 140 421 147 Q 427 154 427 156 L 427 158 Q 427 163 418 170 Q 407 178 397 183 Q 385 188 374 192 Q 365 196 359 196 L 357 196 Q 353 196 344 191 Q 335 186 313 178 Q 292 171 285 169 Q 279 167 270 166 L 215 154 C 186 148 210 125 239 131 L 319 146 Q 334 149 341 149 Q 345 149 346 148 Q 348 146 348 138 Q 348 134 347 127 L 333 41 C 328 11 364 6 373 34 Z" fill="lightgray"></path>
    
      <path d="M 252 -8 L 311 0 L 340 5 L 358 7 Q 367 8 375 8 Q 383 8 386 9 Q 390 10 393 13 Q 394 14 394 15 Q 394 19 384 26 L 373 34 C 357 46 357 46 333 41 L 252 24 C 223 18 222 -12 252 -8 Z" fill="lightgray"></path>
    
      <path d="M 701 579 L 770 625 Q 791 640 803 644 L 824 652 Q 835 656 837 661 Q 838 662 838 664 Q 838 670 827 680 Q 815 692 801 700 Q 787 708 774 712 Q 761 716 751 716 Q 743 716 723 710 Q 704 703 675 696 Q 645 689 627 686 L 575 678 Q 551 674 544 674 L 526 672 Q 513 672 511 668 L 511 666 Q 511 663 516 658 Q 523 652 533 646 L 549 638 L 557 638 Q 563 638 576 642 Q 589 646 609 651 L 667 665 Q 680 668 699 672 Q 715 675 724 675 L 728 675 Q 738 675 740 671 Q 741 669 741 667 Q 741 663 737 657 Q 731 648 725 640 L 682 590 C 662 567 676 562 701 579 Z" fill="lightgray"></path>
    
      <path d="M 701 542 L 706 554 L 706 557 Q 706 563 701 579 C 699 584 699 584 682 590 L 661 597 L 628 606 Q 617 608 608 608 Q 599 608 599 606 L 599 604 Q 599 601 604 596 L 623 580 L 645 560 Q 655 552 659 548 Q 663 545 674 538 C 694 525 694 525 701 542 Z" fill="lightgray"></path>
    
      <path d="M 674 538 L 655 535 Q 649 534 620 530 Q 591 526 570 524 Q 549 522 526 522 L 489 521 Q 478 520 476 516 L 476 514 Q 476 508 484 501 Q 493 492 503 486 Q 513 480 526 480 Q 533 480 551 485 L 581 494 L 645 506 L 714 519 L 740 524 Q 747 524 774 527 Q 801 530 813 532 Q 821 533 827 533 L 832 533 Q 841 531 843 527 L 843 526 Q 843 521 833 507 Q 821 490 813 483 L 807 478 Q 800 471 800 467 Q 800 465 801 464 Q 803 461 808 461 Q 810 461 813 462 L 831 468 L 859 475 Q 870 478 887 480 Q 903 484 915 484 Q 927 486 932 486 Q 937 488 939 492 Q 941 494 941 497 Q 941 500 938 506 Q 933 516 926 524 Q 920 531 909 541 L 885 560 Q 871 568 859 569 Q 853 569 838 565 L 797 557 Q 769 551 767 551 L 701 542 L 674 538 Z" fill="lightgray"></path>
    
      <path d="M 689 496 L 691 473 Q 691 469 690 442 Q 689 416 687 408 Q 684 400 678 396 Q 675 395 672 395 Q 666 395 657 398 L 643 404 L 631 408 Q 627 409 625 409 Q 621 409 620 407 L 620 406 Q 620 403 625 398 L 637 386 Q 649 374 657 364 Q 665 354 671 342 L 681 327 Q 683 324 688 320 C 700 309 700 309 707 322 L 722 348 Q 724 352 727 370 Q 729 388 729 408 L 731 460 L 732 493 Q 730 503 725 508 Q 721 514 714 519 C 691 538 686 526 689 496 Z" fill="lightgray"></path>
    
      <path d="M 645 506 L 635 496 Q 628 488 605 466 Q 581 444 566 432 Q 551 420 520 399 Q 489 378 475 372 L 459 364 L 447 357 Q 443 354 443 350 Q 443 347 446 347 Q 448 347 450 348 L 466 351 Q 477 353 488 356 Q 499 358 529 372 Q 559 386 580 401 Q 601 415 631 440 Q 662 466 670 474 Q 678 482 689 496 C 719 533 715 576 645 506 Z" fill="lightgray"></path>
    
      <path d="M 522 301 L 494 309 Q 487 310 480 310 Q 472 310 470 306 Q 468 304 468 301 Q 468 298 469 296 Q 470 290 474 278 Q 479 264 479 254 L 480 228 L 480 209 Q 480 189 479 168 L 472 96 L 469 70 Q 469 62 463 37 Q 457 12 455 7 L 448 -13 Q 445 -23 445 -31 L 445 -34 Q 445 -42 450 -62 Q 455 -82 458 -88 Q 464 -102 469 -102 Q 474 -101 479 -95 Q 485 -88 490 -72 Q 496 -54 498 -45 Q 501 -36 504 -10 L 509 31 Q 515 72 517 110 L 521 192 L 523 268 C 524 298 524 300 522 301 Z" fill="lightgray"></path>
    
      <path d="M 688 320 L 665 316 Q 652 313 609 308 Q 565 304 553 302 Q 539 302 522 301 C 492 300 493 263 523 268 L 613 282 L 643 287 L 704 294 L 749 298 L 823 302 Q 830 303 835 303 Q 846 303 849 300 Q 855 296 859 285 Q 862 274 862 245 L 861 48 Q 861 4 858 -15 Q 855 -34 850 -43 Q 845 -52 841 -54 Q 837 -56 832 -56 Q 828 -56 823 -55 Q 813 -52 793 -45 L 773 -38 Q 770 -37 768 -37 Q 764 -37 762 -40 Q 761 -41 761 -42 Q 761 -46 767 -51 L 777 -59 Q 785 -66 796 -79 Q 807 -92 823 -114 Q 839 -136 844 -142 Q 849 -148 853 -150 L 855 -150 Q 863 -150 877 -134 Q 893 -115 900 -102 Q 907 -90 911 -60 Q 915 -31 915 12 L 913 174 Q 913 182 915 214 Q 917 247 920 258 Q 922 268 929 280 Q 938 294 938 299 Q 937 304 927 315 Q 917 326 905 333 Q 892 341 880 347 Q 867 352 856 352 Q 851 352 831 346 Q 811 339 785 336 Q 759 332 745 329 L 707 322 L 688 320 Z" fill="lightgray"></path>
    
      <path d="M 613 282 L 609 265 Q 607 248 595 224 Q 583 202 576 193 Q 569 184 554 168 L 547 161 Q 543 157 543 153 L 543 150 Q 544 148 546 148 Q 549 148 553 151 L 568 160 L 591 174 Q 603 183 615 199 Q 628 215 637 228 Q 645 242 647 245 Q 650 248 651 250 Q 653 251 657 254 Q 662 258 663 261 L 663 263 Q 663 267 659 272 Q 653 279 643 287 C 620 306 619 307 613 282 Z" fill="lightgray"></path>
    
      <path d="M 704 294 L 703 258 L 703 240 Q 703 223 704 215 Q 705 202 712 191 Q 718 180 738 172 Q 753 166 774 166 Q 782 166 791 167 Q 807 168 818 170 Q 829 173 835 177 Q 841 182 842 187 L 842 188 Q 842 194 834 200 Q 825 208 818 211 Q 811 214 807 214 Q 806 214 796 210 Q 786 206 771 206 Q 751 206 745 212 Q 739 218 737 226 L 737 231 Q 737 238 741 250 Q 745 266 751 273 Q 755 280 756 284 L 756 285 Q 756 289 749 298 C 732 323 705 324 704 294 Z" fill="lightgray"></path>
    
      <path d="M 608 112 L 590 118 Q 570 123 566 123 L 565 123 Q 558 120 557 116 L 557 115 Q 557 111 561 106 Q 567 98 570 92 Q 573 85 576 70 L 585 17 L 592 -6 Q 594 -15 596 -17 Q 599 -22 604 -22 Q 609 -22 613 -14 L 617 -8 C 620 -4 620 -4 618 21 L 613 88 C 611 111 611 111 608 112 Z" fill="lightgray"></path>
    
      <path d="M 761 32 L 773 66 Q 773 70 781 80 Q 787 91 795 98 Q 803 106 805 109 L 805 110 Q 805 117 792 126 Q 778 136 761 140 Q 746 145 741 145 L 739 145 Q 735 144 724 140 Q 714 136 694 131 Q 675 126 655 122 Q 635 118 608 112 C 579 106 584 82 613 88 L 692 103 Q 705 106 717 106 Q 727 106 730 103 Q 732 101 732 95 L 732 90 Q 731 81 729 74 L 723 42 C 717 13 751 4 761 32 Z" fill="lightgray"></path>
    
      <path d="M 617 -8 L 649 -3 L 701 3 L 749 9 L 765 10 Q 771 10 773 12 L 773 14 Q 773 17 768 24 L 761 32 C 748 47 748 47 723 42 L 689 35 L 618 21 C 589 15 587 -13 617 -8 Z" fill="lightgray"></path>
    
    
      <clipPath id="make-me-a-hanzi-clip-0">
        <path d="M 345 525 L 350 534 Q 353 538 355 547 Q 359 555 360 562 Q 361 569 361 576 L 361 584 Q 359 596 354 604 Q 349 612 340 621 Q 331 630 323 635 Q 316 640 303 648 Q 289 655 281 658 L 269 664 Q 264 666 261 666 Q 256 666 254 663 Q 251 661 251 657 Q 251 654 253 650 L 259 637 L 273 602 L 286 573 Q 295 554 299 547 Q 304 540 310 534 Q 316 528 325 521 C 337 511 337 511 345 525 Z"></path>
      </clipPath>
      <path clip-path="url(#make-me-a-hanzi-clip-0)" d="M 261 656 L 322 584 L 331 544 L 328 533" fill="none" id="make-me-a-hanzi-animation-0" stroke-dasharray="275 550" stroke-linecap="round"></path>
    
      <clipPath id="make-me-a-hanzi-clip-1">
        <path d="M 325 521 L 210 500 Q 157 490 125 486 L 99 483 Q 87 481 85 479 Q 84 477 84 472 Q 85 466 93 460 Q 103 454 111 450 Q 119 446 126 443 Q 132 440 143 438 Q 152 435 157 435 L 159 435 Q 163 435 174 440 Q 185 446 205 451 L 239 460 Q 251 464 279 470 L 349 484 Q 365 486 391 490 Q 417 494 427 495 Q 437 496 445 498 Q 453 500 455 502 Q 458 506 459 510 Q 459 516 448 522 Q 437 530 425 532 Q 413 536 404 536 Q 394 536 377 532 L 345 525 L 325 521 Z"></path>
      </clipPath>
      <path clip-path="url(#make-me-a-hanzi-clip-1)" d="M 94 474 L 156 463 L 389 513 L 450 510" fill="none" id="make-me-a-hanzi-animation-1" stroke-dasharray="490 980" stroke-linecap="round"></path>
    
      <clipPath id="make-me-a-hanzi-clip-2">
        <path d="M 215 370 L 205 369 Q 197 368 196 365 Q 195 363 195 362 Q 195 359 199 356 Q 204 351 212 348 Q 221 344 223 343 Q 227 342 236 341 Q 245 340 250 340 Q 255 340 261 342 L 274 346 L 354 364 Q 387 372 389 373 Q 392 374 396 377 Q 399 380 400 384 Q 400 388 393 392 Q 387 396 373 399 Q 358 402 355 403 Q 350 404 346 404 Q 343 404 340 403 Q 334 402 322 398 Q 311 393 293 388 Q 275 384 258 379 Q 240 374 230 373 L 215 370 Z"></path>
      </clipPath>
      <path clip-path="url(#make-me-a-hanzi-clip-2)" d="M 201 362 L 244 357 L 346 383 L 392 384" fill="none" id="make-me-a-hanzi-animation-2" stroke-dasharray="323 646" stroke-linecap="round"></path>
    
      <clipPath id="make-me-a-hanzi-clip-3">
        <path d="M 213 272 Q 207 272 201 271 Q 194 270 193 268 Q 192 267 192 265 Q 192 262 196 258 Q 202 252 212 248 Q 221 244 226 243 Q 231 242 237 241 L 253 241 L 286 249 L 336 258 L 383 268 Q 392 270 395 273 Q 397 275 397 278 L 397 280 Q 397 284 390 288 Q 383 292 375 295 Q 365 298 354 299 Q 347 300 341 300 L 336 300 Q 330 300 315 295 Q 299 290 288 288 Q 277 285 256 280 Q 235 276 229 275 L 213 272 Z"></path>
      </clipPath>
      <path clip-path="url(#make-me-a-hanzi-clip-3)" d="M 199 264 L 234 258 L 346 281 L 388 279" fill="none" id="make-me-a-hanzi-animation-3" stroke-dasharray="320 640" stroke-linecap="round"></path>
    
      <clipPath id="make-me-a-hanzi-clip-4">
        <path d="M 215 154 L 195 158 Q 185 160 179 160 L 176 160 Q 167 159 165 154 L 165 151 Q 165 149 166 147 Q 169 144 175 139 Q 181 134 185 126 Q 189 119 193 108 Q 196 98 199 82 L 212 13 Q 215 -2 217 -8 Q 219 -15 224 -20 Q 231 -28 237 -28 L 239 -28 Q 245 -26 248 -18 L 252 -8 L 252 24 L 239 131 C 237 150 237 150 215 154 Z"></path>
      </clipPath>
      <path clip-path="url(#make-me-a-hanzi-clip-4)" d="M 173 153 L 198 139 L 216 119 L 238 -18" fill="none" id="make-me-a-hanzi-animation-4" stroke-dasharray="322 644" stroke-linecap="round"></path>
    
      <clipPath id="make-me-a-hanzi-clip-5">
        <path d="M 373 34 L 393 94 Q 395 104 400 113 Q 404 123 409 132 Q 414 140 421 147 Q 427 154 427 156 L 427 158 Q 427 163 418 170 Q 407 178 397 183 Q 385 188 374 192 Q 365 196 359 196 L 357 196 Q 353 196 344 191 Q 335 186 313 178 Q 292 171 285 169 Q 279 167 270 166 L 215 154 C 186 148 210 125 239 131 L 319 146 Q 334 149 341 149 Q 345 149 346 148 Q 348 146 348 138 Q 348 134 347 127 L 333 41 C 328 11 364 6 373 34 Z"></path>
      </clipPath>
      <path clip-path="url(#make-me-a-hanzi-clip-5)" d="M 222 154 L 244 145 L 350 170 L 370 164 L 380 150 L 364 79 L 356 57 L 341 47" fill="none" id="make-me-a-hanzi-animation-5" stroke-dasharray="413 826" stroke-linecap="round"></path>
    
      <clipPath id="make-me-a-hanzi-clip-6">
        <path d="M 252 -8 L 311 0 L 340 5 L 358 7 Q 367 8 375 8 Q 383 8 386 9 Q 390 10 393 13 Q 394 14 394 15 Q 394 19 384 26 L 373 34 C 357 46 357 46 333 41 L 252 24 C 223 18 222 -12 252 -8 Z"></path>
      </clipPath>
      <path clip-path="url(#make-me-a-hanzi-clip-6)" d="M 259 -3 L 268 11 L 330 22 L 386 18" fill="none" id="make-me-a-hanzi-animation-6" stroke-dasharray="264 528" stroke-linecap="round"></path>
    
      <clipPath id="make-me-a-hanzi-clip-7">
        <path d="M 701 579 L 770 625 Q 791 640 803 644 L 824 652 Q 835 656 837 661 Q 838 662 838 664 Q 838 670 827 680 Q 815 692 801 700 Q 787 708 774 712 Q 761 716 751 716 Q 743 716 723 710 Q 704 703 675 696 Q 645 689 627 686 L 575 678 Q 551 674 544 674 L 526 672 Q 513 672 511 668 L 511 666 Q 511 663 516 658 Q 523 652 533 646 L 549 638 L 557 638 Q 563 638 576 642 Q 589 646 609 651 L 667 665 Q 680 668 699 672 Q 715 675 724 675 L 728 675 Q 738 675 740 671 Q 741 669 741 667 Q 741 663 737 657 Q 731 648 725 640 L 682 590 C 662 567 676 562 701 579 Z"></path>
      </clipPath>
      <path clip-path="url(#make-me-a-hanzi-clip-7)" d="M 519 667 L 553 656 L 726 693 L 762 688 L 777 672 L 773 664 L 711 601 L 690 592" fill="none" id="make-me-a-hanzi-animation-7" stroke-dasharray="519 1038" stroke-linecap="round"></path>
    
      <clipPath id="make-me-a-hanzi-clip-8">
        <path d="M 701 542 L 706 554 L 706 557 Q 706 563 701 579 C 699 584 699 584 682 590 L 661 597 L 628 606 Q 617 608 608 608 Q 599 608 599 606 L 599 604 Q 599 601 604 596 L 623 580 L 645 560 Q 655 552 659 548 Q 663 545 674 538 C 694 525 694 525 701 542 Z"></path>
      </clipPath>
      <path clip-path="url(#make-me-a-hanzi-clip-8)" d="M 604 605 L 693 553" fill="none" id="make-me-a-hanzi-animation-8" stroke-dasharray="231 462" stroke-linecap="round"></path>
    
      <clipPath id="make-me-a-hanzi-clip-9">
        <path d="M 674 538 L 655 535 Q 649 534 620 530 Q 591 526 570 524 Q 549 522 526 522 L 489 521 Q 478 520 476 516 L 476 514 Q 476 508 484 501 Q 493 492 503 486 Q 513 480 526 480 Q 533 480 551 485 L 581 494 L 645 506 L 714 519 L 740 524 Q 747 524 774 527 Q 801 530 813 532 Q 821 533 827 533 L 832 533 Q 841 531 843 527 L 843 526 Q 843 521 833 507 Q 821 490 813 483 L 807 478 Q 800 471 800 467 Q 800 465 801 464 Q 803 461 808 461 Q 810 461 813 462 L 831 468 L 859 475 Q 870 478 887 480 Q 903 484 915 484 Q 927 486 932 486 Q 937 488 939 492 Q 941 494 941 497 Q 941 500 938 506 Q 933 516 926 524 Q 920 531 909 541 L 885 560 Q 871 568 859 569 Q 853 569 838 565 L 797 557 Q 769 551 767 551 L 701 542 L 674 538 Z"></path>
      </clipPath>
      <path clip-path="url(#make-me-a-hanzi-clip-9)" d="M 484 515 L 528 501 L 788 544 L 834 549 L 860 545 L 880 517 L 807 468" fill="none" id="make-me-a-hanzi-animation-9" stroke-dasharray="633 1266" stroke-linecap="round"></path>
    
      <clipPath id="make-me-a-hanzi-clip-10">
        <path d="M 689 496 L 691 473 Q 691 469 690 442 Q 689 416 687 408 Q 684 400 678 396 Q 675 395 672 395 Q 666 395 657 398 L 643 404 L 631 408 Q 627 409 625 409 Q 621 409 620 407 L 620 406 Q 620 403 625 398 L 637 386 Q 649 374 657 364 Q 665 354 671 342 L 681 327 Q 683 324 688 320 C 700 309 700 309 707 322 L 722 348 Q 724 352 727 370 Q 729 388 729 408 L 731 460 L 732 493 Q 730 503 725 508 Q 721 514 714 519 C 691 538 686 526 689 496 Z"></path>
      </clipPath>
      <path clip-path="url(#make-me-a-hanzi-clip-10)" d="M 715 509 L 708 402 L 694 368 L 650 387 L 623 407" fill="none" id="make-me-a-hanzi-animation-10" stroke-dasharray="354 708" stroke-linecap="round"></path>
    
      <clipPath id="make-me-a-hanzi-clip-11">
        <path d="M 645 506 L 635 496 Q 628 488 605 466 Q 581 444 566 432 Q 551 420 520 399 Q 489 378 475 372 L 459 364 L 447 357 Q 443 354 443 350 Q 443 347 446 347 Q 448 347 450 348 L 466 351 Q 477 353 488 356 Q 499 358 529 372 Q 559 386 580 401 Q 601 415 631 440 Q 662 466 670 474 Q 678 482 689 496 C 719 533 715 576 645 506 Z"></path>
      </clipPath>
      <path clip-path="url(#make-me-a-hanzi-clip-11)" d="M 699 510 L 653 486 L 543 395 L 447 351" fill="none" id="make-me-a-hanzi-animation-11" stroke-dasharray="428 856" stroke-linecap="round"></path>
    
      <clipPath id="make-me-a-hanzi-clip-12">
        <path d="M 522 301 L 494 309 Q 487 310 480 310 Q 472 310 470 306 Q 468 304 468 301 Q 468 298 469 296 Q 470 290 474 278 Q 479 264 479 254 L 480 228 L 480 209 Q 480 189 479 168 L 472 96 L 469 70 Q 469 62 463 37 Q 457 12 455 7 L 448 -13 Q 445 -23 445 -31 L 445 -34 Q 445 -42 450 -62 Q 455 -82 458 -88 Q 464 -102 469 -102 Q 474 -101 479 -95 Q 485 -88 490 -72 Q 496 -54 498 -45 Q 501 -36 504 -10 L 509 31 Q 515 72 517 110 L 521 192 L 523 268 C 524 298 524 300 522 301 Z"></path>
      </clipPath>
      <path clip-path="url(#make-me-a-hanzi-clip-12)" d="M 477 300 L 495 286 L 500 273 L 502 231 L 491 58 L 472 -36 L 471 -94" fill="none" id="make-me-a-hanzi-animation-12" stroke-dasharray="534 1068" stroke-linecap="round"></path>
    
      <clipPath id="make-me-a-hanzi-clip-13">
        <path d="M 688 320 L 665 316 Q 652 313 609 308 Q 565 304 553 302 Q 539 302 522 301 C 492 300 493 263 523 268 L 613 282 L 643 287 L 704 294 L 749 298 L 823 302 Q 830 303 835 303 Q 846 303 849 300 Q 855 296 859 285 Q 862 274 862 245 L 861 48 Q 861 4 858 -15 Q 855 -34 850 -43 Q 845 -52 841 -54 Q 837 -56 832 -56 Q 828 -56 823 -55 Q 813 -52 793 -45 L 773 -38 Q 770 -37 768 -37 Q 764 -37 762 -40 Q 761 -41 761 -42 Q 761 -46 767 -51 L 777 -59 Q 785 -66 796 -79 Q 807 -92 823 -114 Q 839 -136 844 -142 Q 849 -148 853 -150 L 855 -150 Q 863 -150 877 -134 Q 893 -115 900 -102 Q 907 -90 911 -60 Q 915 -31 915 12 L 913 174 Q 913 182 915 214 Q 917 247 920 258 Q 922 268 929 280 Q 938 294 938 299 Q 937 304 927 315 Q 917 326 905 333 Q 892 341 880 347 Q 867 352 856 352 Q 851 352 831 346 Q 811 339 785 336 Q 759 332 745 329 L 707 322 L 688 320 Z"></path>
      </clipPath>
      <path clip-path="url(#make-me-a-hanzi-clip-13)" d="M 530 274 L 538 286 L 847 325 L 866 323 L 895 295 L 887 177 L 887 -13 L 877 -64 L 858 -92 L 768 -44" fill="none" id="make-me-a-hanzi-animation-13" stroke-dasharray="1009 2018" stroke-linecap="round"></path>
    
      <clipPath id="make-me-a-hanzi-clip-14">
        <path d="M 613 282 L 609 265 Q 607 248 595 224 Q 583 202 576 193 Q 569 184 554 168 L 547 161 Q 543 157 543 153 L 543 150 Q 544 148 546 148 Q 549 148 553 151 L 568 160 L 591 174 Q 603 183 615 199 Q 628 215 637 228 Q 645 242 647 245 Q 650 248 651 250 Q 653 251 657 254 Q 662 258 663 261 L 663 263 Q 663 267 659 272 Q 653 279 643 287 C 620 306 619 307 613 282 Z"></path>
      </clipPath>
      <path clip-path="url(#make-me-a-hanzi-clip-14)" d="M 655 262 L 631 262 L 594 194 L 546 152" fill="none" id="make-me-a-hanzi-animation-14" stroke-dasharray="293 586" stroke-linecap="round"></path>
    
      <clipPath id="make-me-a-hanzi-clip-15">
        <path d="M 704 294 L 703 258 L 703 240 Q 703 223 704 215 Q 705 202 712 191 Q 718 180 738 172 Q 753 166 774 166 Q 782 166 791 167 Q 807 168 818 170 Q 829 173 835 177 Q 841 182 842 187 L 842 188 Q 842 194 834 200 Q 825 208 818 211 Q 811 214 807 214 Q 806 214 796 210 Q 786 206 771 206 Q 751 206 745 212 Q 739 218 737 226 L 737 231 Q 737 238 741 250 Q 745 266 751 273 Q 755 280 756 284 L 756 285 Q 756 289 749 298 C 732 323 705 324 704 294 Z"></path>
      </clipPath>
      <path clip-path="url(#make-me-a-hanzi-clip-15)" d="M 742 286 L 725 274 L 719 233 L 730 199 L 749 188 L 831 188" fill="none" id="make-me-a-hanzi-animation-15" stroke-dasharray="330 660" stroke-linecap="round"></path>
    
      <clipPath id="make-me-a-hanzi-clip-16">
        <path d="M 608 112 L 590 118 Q 570 123 566 123 L 565 123 Q 558 120 557 116 L 557 115 Q 557 111 561 106 Q 567 98 570 92 Q 573 85 576 70 L 585 17 L 592 -6 Q 594 -15 596 -17 Q 599 -22 604 -22 Q 609 -22 613 -14 L 617 -8 C 620 -4 620 -4 618 21 L 613 88 C 611 111 611 111 608 112 Z"></path>
      </clipPath>
      <path clip-path="url(#make-me-a-hanzi-clip-16)" d="M 565 116 L 591 94 L 604 -13" fill="none" id="make-me-a-hanzi-animation-16" stroke-dasharray="270 540" stroke-linecap="round"></path>
    
      <clipPath id="make-me-a-hanzi-clip-17">
        <path d="M 761 32 L 773 66 Q 773 70 781 80 Q 787 91 795 98 Q 803 106 805 109 L 805 110 Q 805 117 792 126 Q 778 136 761 140 Q 746 145 741 145 L 739 145 Q 735 144 724 140 Q 714 136 694 131 Q 675 126 655 122 Q 635 118 608 112 C 579 106 584 82 613 88 L 692 103 Q 705 106 717 106 Q 727 106 730 103 Q 732 101 732 95 L 732 90 Q 731 81 729 74 L 723 42 C 717 13 751 4 761 32 Z"></path>
      </clipPath>
      <path clip-path="url(#make-me-a-hanzi-clip-17)" d="M 618 95 L 623 103 L 741 123 L 761 107 L 747 57 L 731 46" fill="none" id="make-me-a-hanzi-animation-17" stroke-dasharray="354 708" stroke-linecap="round"></path>
    
      <clipPath id="make-me-a-hanzi-clip-18">
        <path d="M 617 -8 L 649 -3 L 701 3 L 749 9 L 765 10 Q 771 10 773 12 L 773 14 Q 773 17 768 24 L 761 32 C 748 47 748 47 723 42 L 689 35 L 618 21 C 589 15 587 -13 617 -8 Z"></path>
      </clipPath>
      <path clip-path="url(#make-me-a-hanzi-clip-18)" d="M 621 -1 L 641 11 L 721 24 L 757 21 L 769 13" fill="none" id="make-me-a-hanzi-animation-18" stroke-dasharray="283 566" stroke-linecap="round"></path>
    
  </g>
</svg>