<svg version="1.1" viewBox="0 0 1024 1024" xmlns="http://www.w3.org/2000/svg">
  <g stroke="lightgray" stroke-dasharray="1,1" stroke-width="1" transform="scale(4, 4)">
    <line x1="0" y1="0" x2="256" y2="256"></line>
    <line x1="256" y1="0" x2="0" y2="256"></line>
    <line x1="128" y1="0" x2="128" y2="256"></line>
    <line x1="0" y1="128" x2="256" y2="128"></line>
  </g>
  <g transform="scale(0.92, -0.92) translate(60, -830)">
    <style type="text/css">
      
        @keyframes keyframes0 {
          from {
            stroke: blue;
            stroke-dashoffset: 419;
            stroke-width: 128;
          }
          58% {
            animation-timing-function: step-end;
            stroke: blue;
            stroke-dashoffset: 0;
            stroke-width: 128;
          }
          to {
            stroke: black;
            stroke-width: 1024;
          }
        }
        #make-me-a-hanzi-animation-0 {
          animation: keyframes0 0.5909830729166666s both;
          animation-delay: 0s;
          animation-timing-function: linear;
        }
      
        @keyframes keyframes1 {
          from {
            stroke: blue;
            stroke-dashoffset: 943;
            stroke-width: 128;
          }
          75% {
            animation-timing-function: step-end;
            stroke: blue;
            stroke-dashoffset: 0;
            stroke-width: 128;
          }
          to {
            stroke: black;
            stroke-width: 1024;
          }
        }
        #make-me-a-hanzi-animation-1 {
          animation: keyframes1 1.0174153645833333s both;
          animation-delay: 0.5909830729166666s;
          animation-timing-function: linear;
        }
      
        @keyframes keyframes2 {
          from {
            stroke: blue;
            stroke-dashoffset: 420;
            stroke-width: 128;
          }
          58% {
            animation-timing-function: step-end;
            stroke: blue;
            stroke-dashoffset: 0;
            stroke-width: 128;
          }
          to {
            stroke: black;
            stroke-width: 1024;
          }
        }
        #make-me-a-hanzi-animation-2 {
          animation: keyframes2 0.591796875s both;
          animation-delay: 1.6083984375s;
          animation-timing-function: linear;
        }
      
        @keyframes keyframes3 {
          from {
            stroke: blue;
            stroke-dashoffset: 1177;
            stroke-width: 128;
          }
          79% {
            animation-timing-function: step-end;
            stroke: blue;
            stroke-dashoffset: 0;
            stroke-width: 128;
          }
          to {
            stroke: black;
            stroke-width: 1024;
          }
        }
        #make-me-a-hanzi-animation-3 {
          animation: keyframes3 1.2078450520833333s both;
          animation-delay: 2.2001953125s;
          animation-timing-function: linear;
        }
      
        @keyframes keyframes4 {
          from {
            stroke: blue;
            stroke-dashoffset: 1051;
            stroke-width: 128;
          }
          77% {
            animation-timing-function: step-end;
            stroke: blue;
            stroke-dashoffset: 0;
            stroke-width: 128;
          }
          to {
            stroke: black;
            stroke-width: 1024;
          }
        }
        #make-me-a-hanzi-animation-4 {
          animation: keyframes4 1.1053059895833333s both;
          animation-delay: 3.408040364583333s;
          animation-timing-function: linear;
        }
      
    </style>
    
      <path d="M 200 647 Q 179 647 179 643 Q 179 637 222 580 Q 273 519 307 519 Q 332 519 332 547 Q 332 568 321 589 Q 303 620 265 634 Q 236 645 200 647 Z" fill="lightgray"></path>
    
      <path d="M 263 394 Q 256 394 220 372 Q 154 332 116 331 Q 109 331 84 335 Q 76 334 76 322 Q 76 316 97 303 Q 124 291 139 291 Q 152 291 236 322 Q 244 322 244 318 L 233 134 Q 228 68 193 23 Q 179 8 179 -1 Q 179 -20 189 -39 Q 203 -70 215 -70 Q 222 -70 232 -51 Q 279 17 347 79 Q 387 118 387 123 Q 387 131 376 131 Q 370 131 273 60 L 291 262 Q 296 303 318 328 Q 340 347 340 350 Q 340 365 312 381 Q 286 394 263 394 Z" fill="lightgray"></path>
    
      <path d="M 540 658 L 523 658 Q 523 651 551 607 Q 598 519 636 519 Q 655 519 655 551 Q 655 576 640 602 Q 627 628 583 648 L 540 658 Z" fill="lightgray"></path>
    
      <path d="M 739 658 Q 724 658 724 647 Q 724 644 730 621 Q 739 595 739 570 Q 739 525 715 407 Q 677 264 638 192 L 607 148 Q 561 89 498 46 Q 437 3 349 -29 Q 319 -35 319 -45 Q 319 -53 351 -53 Q 413 -53 482 -18 Q 559 17 633 100 L 671 147 Q 725 231 771 394 Q 814 551 825 570 Q 831 588 831 591 Q 831 610 794 638 Q 759 658 739 658 Z" fill="lightgray"></path>
    
      <path d="M 638 192 Q 594 256 552 341 Q 497 459 476 475 Q 456 486 431 486 Q 408 486 408 478 Q 408 473 425 460 Q 462 433 572 215 Q 590 180 607 148 L 633 100 Q 696 -17 731 -42 Q 750 -58 771 -58 Q 800 -58 891 -49 Q 955 -44 955 -34 Q 955 -23 902 -11 Q 800 15 728 85 Q 699 111 671 147 L 638 192 Z" fill="lightgray"></path>
    
    
      <clipPath id="make-me-a-hanzi-clip-0">
        <path d="M 200 647 Q 179 647 179 643 Q 179 637 222 580 Q 273 519 307 519 Q 332 519 332 547 Q 332 568 321 589 Q 303 620 265 634 Q 236 645 200 647 Z"></path>
      </clipPath>
      <path clip-path="url(#make-me-a-hanzi-clip-0)" d="M 183 642 L 266 590 L 309 541" fill="none" id="make-me-a-hanzi-animation-0" stroke-dasharray="291 582" stroke-linecap="round"></path>
    
      <clipPath id="make-me-a-hanzi-clip-1">
        <path d="M 263 394 Q 256 394 220 372 Q 154 332 116 331 Q 109 331 84 335 Q 76 334 76 322 Q 76 316 97 303 Q 124 291 139 291 Q 152 291 236 322 Q 244 322 244 318 L 233 134 Q 228 68 193 23 Q 179 8 179 -1 Q 179 -20 189 -39 Q 203 -70 215 -70 Q 222 -70 232 -51 Q 279 17 347 79 Q 387 118 387 123 Q 387 131 376 131 Q 370 131 273 60 L 291 262 Q 296 303 318 328 Q 340 347 340 350 Q 340 365 312 381 Q 286 394 263 394 Z"></path>
      </clipPath>
      <path clip-path="url(#make-me-a-hanzi-clip-1)" d="M 87 324 L 112 314 L 143 313 L 243 352 L 277 347 L 248 70 L 286 67 L 294 56 L 281 40 L 244 29 L 217 -6 L 214 -60" fill="none" id="make-me-a-hanzi-animation-1" stroke-dasharray="815 1630" stroke-linecap="round"></path>
    
      <clipPath id="make-me-a-hanzi-clip-2">
        <path d="M 540 658 L 523 658 Q 523 651 551 607 Q 598 519 636 519 Q 655 519 655 551 Q 655 576 640 602 Q 627 628 583 648 L 540 658 Z"></path>
      </clipPath>
      <path clip-path="url(#make-me-a-hanzi-clip-2)" d="M 527 656 L 589 608 L 636 536" fill="none" id="make-me-a-hanzi-animation-2" stroke-dasharray="292 584" stroke-linecap="round"></path>
    
      <clipPath id="make-me-a-hanzi-clip-3">
        <path d="M 739 658 Q 724 658 724 647 Q 724 644 730 621 Q 739 595 739 570 Q 739 525 715 407 Q 677 264 638 192 L 607 148 Q 561 89 498 46 Q 437 3 349 -29 Q 319 -35 319 -45 Q 319 -53 351 -53 Q 413 -53 482 -18 Q 559 17 633 100 L 671 147 Q 725 231 771 394 Q 814 551 825 570 Q 831 588 831 591 Q 831 610 794 638 Q 759 658 739 658 Z"></path>
      </clipPath>
      <path clip-path="url(#make-me-a-hanzi-clip-3)" d="M 736 647 L 777 601 L 783 588 L 779 560 L 724 336 L 697 258 L 658 175 L 619 121 L 573 73 L 502 19 L 423 -21 L 371 -38 L 325 -44" fill="none" id="make-me-a-hanzi-animation-3" stroke-dasharray="1049 2098" stroke-linecap="round"></path>
    
      <clipPath id="make-me-a-hanzi-clip-4">
        <path d="M 638 192 Q 594 256 552 341 Q 497 459 476 475 Q 456 486 431 486 Q 408 486 408 478 Q 408 473 425 460 Q 462 433 572 215 Q 590 180 607 148 L 633 100 Q 696 -17 731 -42 Q 750 -58 771 -58 Q 800 -58 891 -49 Q 955 -44 955 -34 Q 955 -23 902 -11 Q 800 15 728 85 Q 699 111 671 147 L 638 192 Z"></path>
      </clipPath>
      <path clip-path="url(#make-me-a-hanzi-clip-4)" d="M 415 477 L 438 471 L 469 447 L 617 178 L 679 85 L 733 21 L 770 -9 L 793 -15 L 878 -29 L 950 -33" fill="none" id="make-me-a-hanzi-animation-4" stroke-dasharray="923 1846" stroke-linecap="round"></path>
    
  </g>
</svg>