<svg xmlns="http://www.w3.org/2000/svg" version="1.1" viewBox="0 0 1024 1024">
  <g stroke="lightgray" stroke-dasharray="1,1" stroke-width="1" transform="scale(4, 4)">
    <line x1="0" y1="0" x2="256" y2="256" />
    <line x1="256" y1="0" x2="0" y2="256" />
    <line x1="128" y1="0" x2="128" y2="256" />
    <line x1="0" y1="128" x2="256" y2="128" />
  </g>
  <g transform="scale(1.0, -1.0) translate(0.0, -786.50)">
    <style type="text/css">
      
        @keyframes keyframes0 {
          from {
            stroke: blue;
            stroke-dashoffset: 412;
            stroke-width: 128;
          }
          57% {
            animation-timing-function: step-end;
            stroke: blue;
            stroke-dashoffset: 0;
            stroke-width: 128;
          }
          to {
            stroke: black;
            stroke-width: 1024;
          }
        }
        #make-me-a-hanzi-animation-0 {
          animation: keyframes0 0.5852864583333334s both;
          animation-delay: 0s;
          animation-timing-function: linear;
        }
      
        @keyframes keyframes1 {
          from {
            stroke: blue;
            stroke-dashoffset: 931;
            stroke-width: 128;
          }
          75% {
            animation-timing-function: step-end;
            stroke: blue;
            stroke-dashoffset: 0;
            stroke-width: 128;
          }
          to {
            stroke: black;
            stroke-width: 1024;
          }
        }
        #make-me-a-hanzi-animation-1 {
          animation: keyframes1 1.0076497395833333s both;
          animation-delay: 0.5852864583333334s;
          animation-timing-function: linear;
        }
      
        @keyframes keyframes2 {
          from {
            stroke: blue;
            stroke-dashoffset: 1044;
            stroke-width: 128;
          }
          77% {
            animation-timing-function: step-end;
            stroke: blue;
            stroke-dashoffset: 0;
            stroke-width: 128;
          }
          to {
            stroke: black;
            stroke-width: 1024;
          }
        }
        #make-me-a-hanzi-animation-2 {
          animation: keyframes2 1.099609375s both;
          animation-delay: 1.5929361979166665s;
          animation-timing-function: linear;
        }
      
        @keyframes keyframes3 {
          from {
            stroke: blue;
            stroke-dashoffset: 816;
            stroke-width: 128;
          }
          73% {
            animation-timing-function: step-end;
            stroke: blue;
            stroke-dashoffset: 0;
            stroke-width: 128;
          }
          to {
            stroke: black;
            stroke-width: 1024;
          }
        }
        #make-me-a-hanzi-animation-3 {
          animation: keyframes3 0.9140625s both;
          animation-delay: 2.6925455729166665s;
          animation-timing-function: linear;
        }
      
        @keyframes keyframes4 {
          from {
            stroke: blue;
            stroke-dashoffset: 576;
            stroke-width: 128;
          }
          65% {
            animation-timing-function: step-end;
            stroke: blue;
            stroke-dashoffset: 0;
            stroke-width: 128;
          }
          to {
            stroke: black;
            stroke-width: 1024;
          }
        }
        #make-me-a-hanzi-animation-4 {
          animation: keyframes4 0.71875s both;
          animation-delay: 3.6066080729166665s;
          animation-timing-function: linear;
        }
      
        @keyframes keyframes5 {
          from {
            stroke: blue;
            stroke-dashoffset: 781;
            stroke-width: 128;
          }
          72% {
            animation-timing-function: step-end;
            stroke: blue;
            stroke-dashoffset: 0;
            stroke-width: 128;
          }
          to {
            stroke: black;
            stroke-width: 1024;
          }
        }
        #make-me-a-hanzi-animation-5 {
          animation: keyframes5 0.8855794270833334s both;
          animation-delay: 4.325358072916666s;
          animation-timing-function: linear;
        }
      
        @keyframes keyframes6 {
          from {
            stroke: blue;
            stroke-dashoffset: 784;
            stroke-width: 128;
          }
          72% {
            animation-timing-function: step-end;
            stroke: blue;
            stroke-dashoffset: 0;
            stroke-width: 128;
          }
          to {
            stroke: black;
            stroke-width: 1024;
          }
        }
        #make-me-a-hanzi-animation-6 {
          animation: keyframes6 0.8880208333333334s both;
          animation-delay: 5.210937499999999s;
          animation-timing-function: linear;
        }
      
    </style>
    
      <path d="M 183 635 Q 164 635 164 631 Q 164 625 202 568 Q 248 507 280 507 Q 303 507 303 534 Q 303 556 294 577 Q 278 608 244 621 Q 216 633 183 635 Z" fill="lightgray" />
    
      <path d="M 248 391 Q 241 391 207 368 Q 144 328 108 326 Q 101 326 76 331 Q 68 330 68 318 Q 68 312 89 299 Q 116 287 131 287 Q 142 287 219 318 Q 227 318 227 314 L 216 132 Q 212 68 173 23 Q 160 8 160 -1 Q 160 -20 170 -39 Q 182 -70 196 -70 Q 202 -70 213 -51 Q 260 17 331 79 Q 372 118 372 123 Q 372 131 359 131 Q 353 131 255 60 L 272 259 Q 276 300 301 324 Q 324 343 324 347 Q 324 361 296 377 Q 269 391 248 391 Z" fill="lightgray" />
    
      <path d="M 708 690 Q 702 690 670 676 Q 594 647 447 631 Q 435 628 435 622 Q 435 614 459 603 Q 460 603 462 602 L 512 591 Q 526 592 598 615 Q 649 631 659 631 Q 678 631 680 614 Q 680 605 656 562 Q 643 535 625 511 L 593 472 Q 583 460 569 448 Q 482 372 382 342 Q 351 331 351 326 Q 351 322 364 322 Q 418 324 472 344 Q 546 373 608 425 Q 616 431 626 440 L 669 483 Q 702 521 742 577 Q 766 607 780 616 Q 787 622 787 627 Q 787 644 756 667 Q 728 690 708 690 Z" fill="lightgray" />
    
      <path d="M 462 602 Q 477 591 527 538 Q 562 502 593 472 L 626 440 Q 700 366 735 346 Q 756 335 768 335 Q 807 335 880 347 Q 964 359 964 371 Q 964 376 914 385 Q 822 402 758 434 Q 718 452 669 483 L 625 511 Q 578 542 522 584 Q 517 588 512 591 C 488 608 439 622 462 602 Z" fill="lightgray" />
    
      <path d="M 739 282 Q 729 282 703 276 Q 683 271 651 266 L 599 259 Q 546 253 471 247 Q 460 245 460 238 Q 460 231 480 223 Q 504 215 523 215 Q 539 215 565 218 Q 578 219 599 221 L 651 226 Q 686 229 735 234 Q 758 238 782 248 Q 795 255 796 266 Q 793 281 739 282 Z" fill="lightgray" />
    
      <path d="M 599 127 Q 568 123 531 119 Q 436 107 384 102 Q 372 99 372 91 Q 373 88 393 76 Q 411 66 424 66 Q 431 66 460 72 Q 521 82 599 89 L 651 93 Q 721 98 779 98 L 817 97 Q 863 94 884 94 Q 910 95 911 110 Q 908 124 884 137 Q 859 150 840 150 Q 828 150 811 148 L 749 142 Q 724 140 651 133 L 599 127 Z" fill="lightgray" />
    
      <path d="M 651 266 L 651 303 Q 651 311 659 343 Q 659 353 628 376 Q 605 391 588 391 Q 575 391 575 379 Q 575 377 583 361 Q 597 334 599 290 L 599 259 L 599 221 L 599 127 L 599 89 L 599 -97 Q 603 -141 615 -141 Q 628 -141 641 -103 Q 651 -54 651 36 L 651 93 L 651 133 L 651 226 L 651 266 Z" fill="lightgray" />
    
    
      <clipPath id="make-me-a-hanzi-clip-0">
        <path d="M 183 635 Q 164 635 164 631 Q 164 625 202 568 Q 248 507 280 507 Q 303 507 303 534 Q 303 556 294 577 Q 278 608 244 621 Q 216 633 183 635 Z" />
      </clipPath>
      <path clip-path="url(#make-me-a-hanzi-clip-0)" d="M 168 630 L 248 574 L 282 527" fill="none" id="make-me-a-hanzi-animation-0" stroke-dasharray="284 568" stroke-linecap="round" />
    
      <clipPath id="make-me-a-hanzi-clip-1">
        <path d="M 248 391 Q 241 391 207 368 Q 144 328 108 326 Q 101 326 76 331 Q 68 330 68 318 Q 68 312 89 299 Q 116 287 131 287 Q 142 287 219 318 Q 227 318 227 314 L 216 132 Q 212 68 173 23 Q 160 8 160 -1 Q 160 -20 170 -39 Q 182 -70 196 -70 Q 202 -70 213 -51 Q 260 17 331 79 Q 372 118 372 123 Q 372 131 359 131 Q 353 131 255 60 L 272 259 Q 276 300 301 324 Q 324 343 324 347 Q 324 361 296 377 Q 269 391 248 391 Z" />
      </clipPath>
      <path clip-path="url(#make-me-a-hanzi-clip-1)" d="M 79 320 L 103 309 L 135 309 L 211 342 L 234 348 L 260 344 L 230 70 L 268 67 L 275 53 L 263 41 L 226 29 L 199 -6 L 195 -60" fill="none" id="make-me-a-hanzi-animation-1" stroke-dasharray="803 1606" stroke-linecap="round" />
    
      <clipPath id="make-me-a-hanzi-clip-2">
        <path d="M 708 690 Q 702 690 670 676 Q 594 647 447 631 Q 435 628 435 622 Q 435 614 459 603 Q 460 603 462 602 L 512 591 Q 526 592 598 615 Q 649 631 659 631 Q 678 631 680 614 Q 680 605 656 562 Q 643 535 625 511 L 593 472 Q 583 460 569 448 Q 482 372 382 342 Q 351 331 351 326 Q 351 322 364 322 Q 418 324 472 344 Q 546 373 608 425 Q 616 431 626 440 L 669 483 Q 702 521 742 577 Q 766 607 780 616 Q 787 622 787 627 Q 787 644 756 667 Q 728 690 708 690 Z" />
      </clipPath>
      <path clip-path="url(#make-me-a-hanzi-clip-2)" d="M 444 622 L 512 615 L 660 652 L 691 653 L 710 648 L 725 627 L 669 526 L 588 436 L 540 399 L 474 361 L 416 339 L 362 329" fill="none" id="make-me-a-hanzi-animation-2" stroke-dasharray="916 1832" stroke-linecap="round" />
    
      <clipPath id="make-me-a-hanzi-clip-3">
        <path d="M 462 602 Q 477 591 527 538 Q 562 502 593 472 L 626 440 Q 700 366 735 346 Q 756 335 768 335 Q 807 335 880 347 Q 964 359 964 371 Q 964 376 914 385 Q 822 402 758 434 Q 718 452 669 483 L 625 511 Q 578 542 522 584 Q 517 588 512 591 C 488 608 439 622 462 602 Z" />
      </clipPath>
      <path clip-path="url(#make-me-a-hanzi-clip-3)" d="M 473 594 L 509 577 L 655 454 L 760 383 L 890 367 L 961 370" fill="none" id="make-me-a-hanzi-animation-3" stroke-dasharray="688 1376" stroke-linecap="round" />
    
      <clipPath id="make-me-a-hanzi-clip-4">
        <path d="M 739 282 Q 729 282 703 276 Q 683 271 651 266 L 599 259 Q 546 253 471 247 Q 460 245 460 238 Q 460 231 480 223 Q 504 215 523 215 Q 539 215 565 218 Q 578 219 599 221 L 651 226 Q 686 229 735 234 Q 758 238 782 248 Q 795 255 796 266 Q 793 281 739 282 Z" />
      </clipPath>
      <path clip-path="url(#make-me-a-hanzi-clip-4)" d="M 469 239 L 491 233 L 555 235 L 786 264" fill="none" id="make-me-a-hanzi-animation-4" stroke-dasharray="448 896" stroke-linecap="round" />
    
      <clipPath id="make-me-a-hanzi-clip-5">
        <path d="M 599 127 Q 568 123 531 119 Q 436 107 384 102 Q 372 99 372 91 Q 373 88 393 76 Q 411 66 424 66 Q 431 66 460 72 Q 521 82 599 89 L 651 93 Q 721 98 779 98 L 817 97 Q 863 94 884 94 Q 910 95 911 110 Q 908 124 884 137 Q 859 150 840 150 Q 828 150 811 148 L 749 142 Q 724 140 651 133 L 599 127 Z" />
      </clipPath>
      <path clip-path="url(#make-me-a-hanzi-clip-5)" d="M 378 92 L 422 86 L 621 111 L 806 123 L 853 122 L 899 110" fill="none" id="make-me-a-hanzi-animation-5" stroke-dasharray="653 1306" stroke-linecap="round" />
    
      <clipPath id="make-me-a-hanzi-clip-6">
        <path d="M 651 266 L 651 303 Q 651 311 659 343 Q 659 353 628 376 Q 605 391 588 391 Q 575 391 575 379 Q 575 377 583 361 Q 597 334 599 290 L 599 259 L 599 221 L 599 127 L 599 89 L 599 -97 Q 603 -141 615 -141 Q 628 -141 641 -103 Q 651 -54 651 36 L 651 93 L 651 133 L 651 226 L 651 266 Z" />
      </clipPath>
      <path clip-path="url(#make-me-a-hanzi-clip-6)" d="M 586 380 L 610 361 L 625 337 L 626 8 L 616 -132" fill="none" id="make-me-a-hanzi-animation-6" stroke-dasharray="656 1312" stroke-linecap="round" />
    
  </g>
</svg>