<svg version="1.1" viewBox="0 0 1024 1024" xmlns="http://www.w3.org/2000/svg">
  <g stroke="lightgray" stroke-dasharray="1,1" stroke-width="1" transform="scale(4, 4)">
    <line x1="0" y1="0" x2="256" y2="256"></line>
    <line x1="256" y1="0" x2="0" y2="256"></line>
    <line x1="128" y1="0" x2="128" y2="256"></line>
    <line x1="0" y1="128" x2="256" y2="128"></line>
  </g>
  <g transform="scale(0.92, -0.92) translate(60, -830)">
    <style type="text/css">
      
        @keyframes keyframes0 {
          from {
            stroke: blue;
            stroke-dashoffset: 559;
            stroke-width: 128;
          }
          65% {
            animation-timing-function: step-end;
            stroke: blue;
            stroke-dashoffset: 0;
            stroke-width: 128;
          }
          to {
            stroke: black;
            stroke-width: 1024;
          }
        }
        #make-me-a-hanzi-animation-0 {
          animation: keyframes0 0.7049153645833334s both;
          animation-delay: 0s;
          animation-timing-function: linear;
        }
      
        @keyframes keyframes1 {
          from {
            stroke: blue;
            stroke-dashoffset: 361;
            stroke-width: 128;
          }
          54% {
            animation-timing-function: step-end;
            stroke: blue;
            stroke-dashoffset: 0;
            stroke-width: 128;
          }
          to {
            stroke: black;
            stroke-width: 1024;
          }
        }
        #make-me-a-hanzi-animation-1 {
          animation: keyframes1 0.5437825520833334s both;
          animation-delay: 0.7049153645833334s;
          animation-timing-function: linear;
        }
      
        @keyframes keyframes2 {
          from {
            stroke: blue;
            stroke-dashoffset: 349;
            stroke-width: 128;
          }
          53% {
            animation-timing-function: step-end;
            stroke: blue;
            stroke-dashoffset: 0;
            stroke-width: 128;
          }
          to {
            stroke: black;
            stroke-width: 1024;
          }
        }
        #make-me-a-hanzi-animation-2 {
          animation: keyframes2 0.5340169270833334s both;
          animation-delay: 1.2486979166666667s;
          animation-timing-function: linear;
        }
      
        @keyframes keyframes3 {
          from {
            stroke: blue;
            stroke-dashoffset: 416;
            stroke-width: 128;
          }
          58% {
            animation-timing-function: step-end;
            stroke: blue;
            stroke-dashoffset: 0;
            stroke-width: 128;
          }
          to {
            stroke: black;
            stroke-width: 1024;
          }
        }
        #make-me-a-hanzi-animation-3 {
          animation: keyframes3 0.5885416666666666s both;
          animation-delay: 1.78271484375s;
          animation-timing-function: linear;
        }
      
        @keyframes keyframes4 {
          from {
            stroke: blue;
            stroke-dashoffset: 552;
            stroke-width: 128;
          }
          64% {
            animation-timing-function: step-end;
            stroke: blue;
            stroke-dashoffset: 0;
            stroke-width: 128;
          }
          to {
            stroke: black;
            stroke-width: 1024;
          }
        }
        #make-me-a-hanzi-animation-4 {
          animation: keyframes4 0.69921875s both;
          animation-delay: 2.3712565104166665s;
          animation-timing-function: linear;
        }
      
        @keyframes keyframes5 {
          from {
            stroke: blue;
            stroke-dashoffset: 738;
            stroke-width: 128;
          }
          71% {
            animation-timing-function: step-end;
            stroke: blue;
            stroke-dashoffset: 0;
            stroke-width: 128;
          }
          to {
            stroke: black;
            stroke-width: 1024;
          }
        }
        #make-me-a-hanzi-animation-5 {
          animation: keyframes5 0.8505859375s both;
          animation-delay: 3.0704752604166665s;
          animation-timing-function: linear;
        }
      
        @keyframes keyframes6 {
          from {
            stroke: blue;
            stroke-dashoffset: 378;
            stroke-width: 128;
          }
          55% {
            animation-timing-function: step-end;
            stroke: blue;
            stroke-dashoffset: 0;
            stroke-width: 128;
          }
          to {
            stroke: black;
            stroke-width: 1024;
          }
        }
        #make-me-a-hanzi-animation-6 {
          animation: keyframes6 0.5576171875s both;
          animation-delay: 3.9210611979166665s;
          animation-timing-function: linear;
        }
      
        @keyframes keyframes7 {
          from {
            stroke: blue;
            stroke-dashoffset: 636;
            stroke-width: 128;
          }
          67% {
            animation-timing-function: step-end;
            stroke: blue;
            stroke-dashoffset: 0;
            stroke-width: 128;
          }
          to {
            stroke: black;
            stroke-width: 1024;
          }
        }
        #make-me-a-hanzi-animation-7 {
          animation: keyframes7 0.767578125s both;
          animation-delay: 4.478678385416666s;
          animation-timing-function: linear;
        }
      
        @keyframes keyframes8 {
          from {
            stroke: blue;
            stroke-dashoffset: 671;
            stroke-width: 128;
          }
          69% {
            animation-timing-function: step-end;
            stroke: blue;
            stroke-dashoffset: 0;
            stroke-width: 128;
          }
          to {
            stroke: black;
            stroke-width: 1024;
          }
        }
        #make-me-a-hanzi-animation-8 {
          animation: keyframes8 0.7960611979166666s both;
          animation-delay: 5.246256510416666s;
          animation-timing-function: linear;
        }
      
        @keyframes keyframes9 {
          from {
            stroke: blue;
            stroke-dashoffset: 428;
            stroke-width: 128;
          }
          58% {
            animation-timing-function: step-end;
            stroke: blue;
            stroke-dashoffset: 0;
            stroke-width: 128;
          }
          to {
            stroke: black;
            stroke-width: 1024;
          }
        }
        #make-me-a-hanzi-animation-9 {
          animation: keyframes9 0.5983072916666666s both;
          animation-delay: 6.042317708333333s;
          animation-timing-function: linear;
        }
      
        @keyframes keyframes10 {
          from {
            stroke: blue;
            stroke-dashoffset: 528;
            stroke-width: 128;
          }
          63% {
            animation-timing-function: step-end;
            stroke: blue;
            stroke-dashoffset: 0;
            stroke-width: 128;
          }
          to {
            stroke: black;
            stroke-width: 1024;
          }
        }
        #make-me-a-hanzi-animation-10 {
          animation: keyframes10 0.6796875s both;
          animation-delay: 6.640625s;
          animation-timing-function: linear;
        }
      
        @keyframes keyframes11 {
          from {
            stroke: blue;
            stroke-dashoffset: 459;
            stroke-width: 128;
          }
          60% {
            animation-timing-function: step-end;
            stroke: blue;
            stroke-dashoffset: 0;
            stroke-width: 128;
          }
          to {
            stroke: black;
            stroke-width: 1024;
          }
        }
        #make-me-a-hanzi-animation-11 {
          animation: keyframes11 0.62353515625s both;
          animation-delay: 7.3203125s;
          animation-timing-function: linear;
        }
      
        @keyframes keyframes12 {
          from {
            stroke: blue;
            stroke-dashoffset: 686;
            stroke-width: 128;
          }
          69% {
            animation-timing-function: step-end;
            stroke: blue;
            stroke-dashoffset: 0;
            stroke-width: 128;
          }
          to {
            stroke: black;
            stroke-width: 1024;
          }
        }
        #make-me-a-hanzi-animation-12 {
          animation: keyframes12 0.8082682291666666s both;
          animation-delay: 7.94384765625s;
          animation-timing-function: linear;
        }
      
        @keyframes keyframes13 {
          from {
            stroke: blue;
            stroke-dashoffset: 633;
            stroke-width: 128;
          }
          67% {
            animation-timing-function: step-end;
            stroke: blue;
            stroke-dashoffset: 0;
            stroke-width: 128;
          }
          to {
            stroke: black;
            stroke-width: 1024;
          }
        }
        #make-me-a-hanzi-animation-13 {
          animation: keyframes13 0.76513671875s both;
          animation-delay: 8.752115885416666s;
          animation-timing-function: linear;
        }
      
        @keyframes keyframes14 {
          from {
            stroke: blue;
            stroke-dashoffset: 486;
            stroke-width: 128;
          }
          61% {
            animation-timing-function: step-end;
            stroke: blue;
            stroke-dashoffset: 0;
            stroke-width: 128;
          }
          to {
            stroke: black;
            stroke-width: 1024;
          }
        }
        #make-me-a-hanzi-animation-14 {
          animation: keyframes14 0.6455078125s both;
          animation-delay: 9.517252604166666s;
          animation-timing-function: linear;
        }
      
        @keyframes keyframes15 {
          from {
            stroke: blue;
            stroke-dashoffset: 633;
            stroke-width: 128;
          }
          67% {
            animation-timing-function: step-end;
            stroke: blue;
            stroke-dashoffset: 0;
            stroke-width: 128;
          }
          to {
            stroke: black;
            stroke-width: 1024;
          }
        }
        #make-me-a-hanzi-animation-15 {
          animation: keyframes15 0.76513671875s both;
          animation-delay: 10.162760416666666s;
          animation-timing-function: linear;
        }
      
        @keyframes keyframes16 {
          from {
            stroke: blue;
            stroke-dashoffset: 466;
            stroke-width: 128;
          }
          60% {
            animation-timing-function: step-end;
            stroke: blue;
            stroke-dashoffset: 0;
            stroke-width: 128;
          }
          to {
            stroke: black;
            stroke-width: 1024;
          }
        }
        #make-me-a-hanzi-animation-16 {
          animation: keyframes16 0.6292317708333334s both;
          animation-delay: 10.927897135416666s;
          animation-timing-function: linear;
        }
      
    </style>
    
      <path d="M 176 572 Q 189 572 214 574 Q 239 578 279 586 Q 319 594 349 607 L 392 626 L 412 635 Q 419 638 429 639 Q 439 640 441 642 Q 444 643 445 646 Q 447 648 447 650 Q 447 654 443 661 Q 437 672 426 682 Q 415 692 407 698 Q 399 704 394 704 Q 389 704 381 694 Q 373 685 365 679 Q 359 673 339 659 Q 319 646 301 636 Q 283 627 246 612 Q 208 598 192 594 L 171 588 L 152 582 Q 147 580 147 577 L 147 576 Q 149 571 154 571 L 156 571 L 176 572 Z" fill="lightgray"></path>
    
      <path d="M 113 522 L 117 514 Q 131 488 136 478 Q 141 468 152 454 Q 164 435 174 435 L 175 435 Q 183 436 189 444 Q 195 451 195 466 Q 195 482 188 493 Q 182 504 173 510 Q 165 516 156 520 Q 147 524 139 528 L 126 532 Q 119 534 116 534 L 114 534 Q 111 533 111 530 Q 110 529 110 528 Q 110 526 113 522 Z" fill="lightgray"></path>
    
      <path d="M 247 558 L 251 550 Q 253 544 265 524 Q 277 504 283 496 Q 294 479 303 479 L 304 479 Q 313 479 318 485 Q 324 490 325 504 Q 325 518 320 528 Q 315 538 308 543 Q 301 548 289 554 L 273 562 L 261 566 Q 251 568 248 568 Q 245 568 245 565 L 245 563 Q 245 561 247 558 Z" fill="lightgray"></path>
    
      <path d="M 399 482 L 415 492 L 439 510 L 465 533 Q 476 542 485 548 L 497 557 Q 501 560 503 565 Q 503 570 495 577 Q 488 584 482 587 Q 475 590 462 595 Q 449 600 443 600 Q 434 600 432 598 Q 431 596 430 587 Q 430 578 426 568 Q 423 557 415 544 Q 409 530 399 516 Q 390 502 384 494 L 375 481 Q 370 475 370 473 L 370 472 Q 371 470 375 470 L 377 470 Q 380 470 385 473 L 399 482 Z" fill="lightgray"></path>
    
      <path d="M 319 358 L 233 344 Q 227 343 224 343 Q 219 343 218 345 L 218 346 Q 218 349 225 354 L 269 386 L 294 403 Q 303 409 307 410 L 317 412 Q 321 414 323 418 L 323 420 Q 323 427 312 441 Q 299 458 291 463 Q 283 469 278 470 Q 270 470 268 467 Q 265 464 264 458 Q 263 452 255 438 Q 247 425 244 419 L 227 398 Q 215 382 208 376 Q 201 370 191 363 Q 183 356 174 352 Q 165 347 164 344 Q 162 340 162 337 Q 162 334 163 332 Q 165 324 169 314 Q 173 304 177 300 Q 180 296 185 296 L 187 296 Q 191 296 195 298 L 213 306 Q 220 310 235 314 L 289 330 C 318 339 349 363 319 358 Z" fill="lightgray"></path>
    
      <path d="M 289 330 L 202 258 Q 192 250 185 245 Q 177 240 171 237 L 154 228 Q 147 224 145 219 Q 144 217 144 215 Q 144 211 147 204 Q 151 193 153 188 Q 155 182 160 177 Q 165 172 170 172 L 171 172 Q 177 172 187 178 Q 198 186 205 190 Q 211 194 221 197 Q 232 200 245 205 L 275 215 L 377 248 C 406 257 400 273 371 266 L 225 233 Q 221 232 218 232 Q 215 232 213 233 Q 211 236 210 236 Q 210 237 211 238 L 221 246 L 365 343 Q 369 346 382 354 Q 394 362 401 364 L 416 369 Q 419 370 421 372 Q 423 375 423 380 Q 423 384 422 388 Q 419 398 410 410 L 395 427 Q 387 434 383 434 L 379 434 Q 375 434 373 432 Q 370 429 368 420 Q 367 412 359 401 Q 352 390 345 384 L 319 358 L 289 330 Z" fill="lightgray"></path>
    
      <path d="M 377 248 L 389 226 Q 399 210 404 203 Q 409 196 417 194 Q 421 194 426 195 Q 431 196 435 205 Q 440 213 440 221 L 440 224 Q 439 234 437 242 Q 434 252 429 260 Q 423 270 411 278 Q 399 288 385 296 Q 371 304 366 306 L 355 310 Q 353 311 351 311 Q 348 311 347 309 Q 346 308 346 306 Q 346 305 347 304 L 353 296 L 371 266 L 377 248 Z" fill="lightgray"></path>
    
      <path d="M 247 142 L 206 134 L 135 122 Q 101 116 78 114 L 57 111 Q 48 110 47 105 Q 46 103 46 102 Q 46 98 49 94 Q 53 88 63 82 Q 71 76 83 71 Q 94 66 105 66 Q 111 66 122 70 Q 133 74 150 78 L 189 88 L 232 99 L 293 116 L 427 134 Q 429 134 431 135 Q 433 136 435 139 Q 436 142 436 144 Q 435 146 431 152 Q 427 158 416 162 Q 405 167 393 168 L 387 168 Q 377 168 363 166 L 311 154 L 247 142 Z" fill="lightgray"></path>
    
      <path d="M 245 205 L 252 192 Q 253 191 253 187 Q 253 182 252 174 Q 252 158 251 154 L 247 142 L 232 99 L 221 74 L 197 32 Q 181 4 158 -26 Q 135 -56 113 -76 Q 91 -98 83 -104 L 73 -114 Q 69 -118 69 -121 Q 69 -122 70 -123 Q 72 -124 74 -124 Q 77 -124 83 -121 L 95 -116 Q 108 -109 131 -95 Q 155 -80 191 -44 Q 229 -8 251 31 Q 273 70 280 84 Q 286 98 293 116 L 311 154 L 318 169 Q 322 178 322 184 L 322 186 Q 320 192 309 198 Q 299 204 293 207 L 275 215 C 248 227 231 231 245 205 Z" fill="lightgray"></path>
    
      <path d="M 309 44 L 327 16 L 356 -30 Q 369 -50 374 -60 Q 379 -70 385 -74 Q 392 -81 399 -81 L 401 -81 Q 409 -80 415 -71 Q 421 -62 421 -46 Q 421 -30 417 -19 Q 413 -9 405 1 Q 397 10 389 20 Q 379 28 367 36 Q 355 44 339 53 Q 323 62 317 64 L 305 70 Q 302 72 300 72 Q 297 72 295 70 Q 293 69 293 67 Q 293 65 297 60 L 309 44 Z" fill="lightgray"></path>
    
      <path d="M 491 384 Q 499 390 519 407 Q 539 424 549 435 Q 559 446 575 466 Q 591 485 600 498 L 619 526 Q 626 536 632 543 Q 638 550 645 557 Q 652 564 653 568 Q 653 574 645 580 Q 637 587 629 590 Q 621 592 607 595 Q 593 598 584 598 Q 573 598 571 594 Q 570 592 570 587 L 570 575 Q 570 568 569 558 Q 566 543 563 532 Q 559 520 551 506 Q 543 491 525 464 Q 507 436 495 421 Q 484 405 475 394 L 463 382 Q 460 378 460 375 Q 460 374 461 372 Q 462 370 464 370 Q 467 370 470 372 L 491 384 Z" fill="lightgray"></path>
    
      <path d="M 727 588 L 747 554 L 773 506 L 797 464 Q 811 438 817 428 Q 825 418 833 415 Q 836 414 839 414 Q 846 414 851 418 Q 861 424 865 443 Q 868 453 868 463 Q 868 471 866 478 Q 862 494 851 508 Q 839 524 822 538 Q 805 554 785 566 L 752 588 L 738 597 Q 732 601 728 601 Q 726 601 725 600 Q 724 599 724 597 Q 724 594 727 588 Z" fill="lightgray"></path>
    
      <path d="M 677 372 L 687 384 L 697 392 Q 701 396 701 401 Q 702 402 702 404 Q 702 409 697 416 Q 691 424 680 434 Q 669 444 655 452 Q 648 455 644 455 Q 642 455 641 454 Q 637 453 635 450 Q 633 448 633 438 Q 633 430 632 421 Q 631 412 629 406 Q 629 400 623 384 Q 617 368 609 350 Q 601 332 580 296 Q 558 259 541 236 L 497 182 Q 470 150 457 136 L 437 116 L 426 106 Q 423 104 423 101 Q 423 100 424 99 Q 426 97 429 97 Q 431 97 433 98 L 445 104 Q 456 108 479 124 Q 501 140 522 158 Q 543 176 571 208 Q 599 238 618 268 Q 637 298 667 353 L 677 372 Z" fill="lightgray"></path>
    
      <path d="M 667 353 L 683 334 L 719 284 L 757 234 Q 759 231 779 203 Q 800 176 811 166 Q 821 156 832 152 Q 843 148 865 148 Q 881 148 895 150 L 927 154 Q 948 156 955 158 L 975 164 Q 981 165 982 170 L 982 171 Q 982 176 975 179 L 961 183 Q 947 186 929 193 Q 910 200 883 213 Q 855 226 830 242 Q 804 258 783 275 Q 761 293 734 319 Q 707 346 699 353 Q 690 360 677 372 C 655 392 648 376 667 353 Z" fill="lightgray"></path>
    
      <path d="M 572 112 L 553 118 L 534 122 Q 527 123 521 123 L 517 123 Q 505 119 505 114 Q 507 110 507 108 Q 509 106 513 100 Q 519 94 523 86 Q 527 79 532 69 Q 537 59 539 36 L 549 -64 Q 551 -84 559 -95 Q 565 -106 572 -106 Q 578 -106 581 -102 Q 585 -98 587 -92 L 590 -82 L 590 -53 L 577 82 C 574 111 574 111 572 112 Z" fill="lightgray"></path>
    
      <path d="M 791 -47 L 813 26 L 821 54 Q 825 68 829 74 L 842 92 Q 846 98 846 102 Q 845 106 833 118 Q 821 130 814 133 L 793 143 Q 778 150 773 150 Q 769 149 756 144 Q 743 138 729 135 Q 715 132 694 128 Q 673 124 654 122 L 572 112 C 542 108 547 77 577 82 L 693 102 Q 709 106 729 106 Q 736 107 741 107 Q 751 107 755 104 Q 761 101 763 92 L 758 66 L 741 -36 C 736 -66 782 -76 791 -47 Z" fill="lightgray"></path>
    
      <path d="M 590 -82 L 697 -76 L 776 -72 L 801 -71 Q 805 -71 808 -68 Q 809 -67 809 -66 Q 809 -62 801 -56 L 791 -47 C 775 -32 771 -33 741 -36 L 590 -53 C 560 -56 560 -84 590 -82 Z" fill="lightgray"></path>
    
    
      <clipPath id="make-me-a-hanzi-clip-0">
        <path d="M 176 572 Q 189 572 214 574 Q 239 578 279 586 Q 319 594 349 607 L 392 626 L 412 635 Q 419 638 429 639 Q 439 640 441 642 Q 444 643 445 646 Q 447 648 447 650 Q 447 654 443 661 Q 437 672 426 682 Q 415 692 407 698 Q 399 704 394 704 Q 389 704 381 694 Q 373 685 365 679 Q 359 673 339 659 Q 319 646 301 636 Q 283 627 246 612 Q 208 598 192 594 L 171 588 L 152 582 Q 147 580 147 577 L 147 576 Q 149 571 154 571 L 156 571 L 176 572 Z"></path>
      </clipPath>
      <path clip-path="url(#make-me-a-hanzi-clip-0)" d="M 437 653 L 401 664 L 323 621 L 283 606 L 206 584 L 153 577" fill="none" id="make-me-a-hanzi-animation-0" stroke-dasharray="431 862" stroke-linecap="round"></path>
    
      <clipPath id="make-me-a-hanzi-clip-1">
        <path d="M 113 522 L 117 514 Q 131 488 136 478 Q 141 468 152 454 Q 164 435 174 435 L 175 435 Q 183 436 189 444 Q 195 451 195 466 Q 195 482 188 493 Q 182 504 173 510 Q 165 516 156 520 Q 147 524 139 528 L 126 532 Q 119 534 116 534 L 114 534 Q 111 533 111 530 Q 110 529 110 528 Q 110 526 113 522 Z"></path>
      </clipPath>
      <path clip-path="url(#make-me-a-hanzi-clip-1)" d="M 115 530 L 156 493 L 171 471 L 175 448" fill="none" id="make-me-a-hanzi-animation-1" stroke-dasharray="233 466" stroke-linecap="round"></path>
    
      <clipPath id="make-me-a-hanzi-clip-2">
        <path d="M 247 558 L 251 550 Q 253 544 265 524 Q 277 504 283 496 Q 294 479 303 479 L 304 479 Q 313 479 318 485 Q 324 490 325 504 Q 325 518 320 528 Q 315 538 308 543 Q 301 548 289 554 L 273 562 L 261 566 Q 251 568 248 568 Q 245 568 245 565 L 245 563 Q 245 561 247 558 Z"></path>
      </clipPath>
      <path clip-path="url(#make-me-a-hanzi-clip-2)" d="M 249 564 L 297 519 L 304 493" fill="none" id="make-me-a-hanzi-animation-2" stroke-dasharray="221 442" stroke-linecap="round"></path>
    
      <clipPath id="make-me-a-hanzi-clip-3">
        <path d="M 399 482 L 415 492 L 439 510 L 465 533 Q 476 542 485 548 L 497 557 Q 501 560 503 565 Q 503 570 495 577 Q 488 584 482 587 Q 475 590 462 595 Q 449 600 443 600 Q 434 600 432 598 Q 431 596 430 587 Q 430 578 426 568 Q 423 557 415 544 Q 409 530 399 516 Q 390 502 384 494 L 375 481 Q 370 475 370 473 L 370 472 Q 371 470 375 470 L 377 470 Q 380 470 385 473 L 399 482 Z"></path>
      </clipPath>
      <path clip-path="url(#make-me-a-hanzi-clip-3)" d="M 492 567 L 456 564 L 413 508 L 373 473" fill="none" id="make-me-a-hanzi-animation-3" stroke-dasharray="288 576" stroke-linecap="round"></path>
    
      <clipPath id="make-me-a-hanzi-clip-4">
        <path d="M 319 358 L 233 344 Q 227 343 224 343 Q 219 343 218 345 L 218 346 Q 218 349 225 354 L 269 386 L 294 403 Q 303 409 307 410 L 317 412 Q 321 414 323 418 L 323 420 Q 323 427 312 441 Q 299 458 291 463 Q 283 469 278 470 Q 270 470 268 467 Q 265 464 264 458 Q 263 452 255 438 Q 247 425 244 419 L 227 398 Q 215 382 208 376 Q 201 370 191 363 Q 183 356 174 352 Q 165 347 164 344 Q 162 340 162 337 Q 162 334 163 332 Q 165 324 169 314 Q 173 304 177 300 Q 180 296 185 296 L 187 296 Q 191 296 195 298 L 213 306 Q 220 310 235 314 L 289 330 C 318 339 349 363 319 358 Z"></path>
      </clipPath>
      <path clip-path="url(#make-me-a-hanzi-clip-4)" d="M 316 419 L 284 431 L 204 354 L 194 329 L 224 326 L 252 332 L 279 338 L 312 355" fill="none" id="make-me-a-hanzi-animation-4" stroke-dasharray="424 848" stroke-linecap="round"></path>
    
      <clipPath id="make-me-a-hanzi-clip-5">
        <path d="M 289 330 L 202 258 Q 192 250 185 245 Q 177 240 171 237 L 154 228 Q 147 224 145 219 Q 144 217 144 215 Q 144 211 147 204 Q 151 193 153 188 Q 155 182 160 177 Q 165 172 170 172 L 171 172 Q 177 172 187 178 Q 198 186 205 190 Q 211 194 221 197 Q 232 200 245 205 L 275 215 L 377 248 C 406 257 400 273 371 266 L 225 233 Q 221 232 218 232 Q 215 232 213 233 Q 211 236 210 236 Q 210 237 211 238 L 221 246 L 365 343 Q 369 346 382 354 Q 394 362 401 364 L 416 369 Q 419 370 421 372 Q 423 375 423 380 Q 423 384 422 388 Q 419 398 410 410 L 395 427 Q 387 434 383 434 L 379 434 Q 375 434 373 432 Q 370 429 368 420 Q 367 412 359 401 Q 352 390 345 384 L 319 358 L 289 330 Z"></path>
      </clipPath>
      <path clip-path="url(#make-me-a-hanzi-clip-5)" d="M 380 422 L 386 389 L 323 335 L 203 247 L 192 215 L 224 216 L 363 254 L 368 250" fill="none" id="make-me-a-hanzi-animation-5" stroke-dasharray="610 1220" stroke-linecap="round"></path>
    
      <clipPath id="make-me-a-hanzi-clip-6">
        <path d="M 377 248 L 389 226 Q 399 210 404 203 Q 409 196 417 194 Q 421 194 426 195 Q 431 196 435 205 Q 440 213 440 221 L 440 224 Q 439 234 437 242 Q 434 252 429 260 Q 423 270 411 278 Q 399 288 385 296 Q 371 304 366 306 L 355 310 Q 353 311 351 311 Q 348 311 347 309 Q 346 308 346 306 Q 346 305 347 304 L 353 296 L 371 266 L 377 248 Z"></path>
      </clipPath>
      <path clip-path="url(#make-me-a-hanzi-clip-6)" d="M 350 307 L 406 249 L 420 210" fill="none" id="make-me-a-hanzi-animation-6" stroke-dasharray="250 500" stroke-linecap="round"></path>
    
      <clipPath id="make-me-a-hanzi-clip-7">
        <path d="M 247 142 L 206 134 L 135 122 Q 101 116 78 114 L 57 111 Q 48 110 47 105 Q 46 103 46 102 Q 46 98 49 94 Q 53 88 63 82 Q 71 76 83 71 Q 94 66 105 66 Q 111 66 122 70 Q 133 74 150 78 L 189 88 L 232 99 L 293 116 L 427 134 Q 429 134 431 135 Q 433 136 435 139 Q 436 142 436 144 Q 435 146 431 152 Q 427 158 416 162 Q 405 167 393 168 L 387 168 Q 377 168 363 166 L 311 154 L 247 142 Z"></path>
      </clipPath>
      <path clip-path="url(#make-me-a-hanzi-clip-7)" d="M 55 101 L 102 91 L 361 146 L 396 149 L 427 143" fill="none" id="make-me-a-hanzi-animation-7" stroke-dasharray="508 1016" stroke-linecap="round"></path>
    
      <clipPath id="make-me-a-hanzi-clip-8">
        <path d="M 245 205 L 252 192 Q 253 191 253 187 Q 253 182 252 174 Q 252 158 251 154 L 247 142 L 232 99 L 221 74 L 197 32 Q 181 4 158 -26 Q 135 -56 113 -76 Q 91 -98 83 -104 L 73 -114 Q 69 -118 69 -121 Q 69 -122 70 -123 Q 72 -124 74 -124 Q 77 -124 83 -121 L 95 -116 Q 108 -109 131 -95 Q 155 -80 191 -44 Q 229 -8 251 31 Q 273 70 280 84 Q 286 98 293 116 L 311 154 L 318 169 Q 322 178 322 184 L 322 186 Q 320 192 309 198 Q 299 204 293 207 L 275 215 C 248 227 231 231 245 205 Z"></path>
      </clipPath>
      <path clip-path="url(#make-me-a-hanzi-clip-8)" d="M 254 202 L 273 194 L 285 175 L 273 133 L 236 51 L 172 -39 L 106 -99 L 73 -120" fill="none" id="make-me-a-hanzi-animation-8" stroke-dasharray="543 1086" stroke-linecap="round"></path>
    
      <clipPath id="make-me-a-hanzi-clip-9">
        <path d="M 309 44 L 327 16 L 356 -30 Q 369 -50 374 -60 Q 379 -70 385 -74 Q 392 -81 399 -81 L 401 -81 Q 409 -80 415 -71 Q 421 -62 421 -46 Q 421 -30 417 -19 Q 413 -9 405 1 Q 397 10 389 20 Q 379 28 367 36 Q 355 44 339 53 Q 323 62 317 64 L 305 70 Q 302 72 300 72 Q 297 72 295 70 Q 293 69 293 67 Q 293 65 297 60 L 309 44 Z"></path>
      </clipPath>
      <path clip-path="url(#make-me-a-hanzi-clip-9)" d="M 299 66 L 372 -2 L 389 -27 L 400 -68" fill="none" id="make-me-a-hanzi-animation-9" stroke-dasharray="300 600" stroke-linecap="round"></path>
    
      <clipPath id="make-me-a-hanzi-clip-10">
        <path d="M 491 384 Q 499 390 519 407 Q 539 424 549 435 Q 559 446 575 466 Q 591 485 600 498 L 619 526 Q 626 536 632 543 Q 638 550 645 557 Q 652 564 653 568 Q 653 574 645 580 Q 637 587 629 590 Q 621 592 607 595 Q 593 598 584 598 Q 573 598 571 594 Q 570 592 570 587 L 570 575 Q 570 568 569 558 Q 566 543 563 532 Q 559 520 551 506 Q 543 491 525 464 Q 507 436 495 421 Q 484 405 475 394 L 463 382 Q 460 378 460 375 Q 460 374 461 372 Q 462 370 464 370 Q 467 370 470 372 L 491 384 Z"></path>
      </clipPath>
      <path clip-path="url(#make-me-a-hanzi-clip-10)" d="M 641 569 L 603 560 L 578 507 L 539 451 L 465 375" fill="none" id="make-me-a-hanzi-animation-10" stroke-dasharray="400 800" stroke-linecap="round"></path>
    
      <clipPath id="make-me-a-hanzi-clip-11">
        <path d="M 727 588 L 747 554 L 773 506 L 797 464 Q 811 438 817 428 Q 825 418 833 415 Q 836 414 839 414 Q 846 414 851 418 Q 861 424 865 443 Q 868 453 868 463 Q 868 471 866 478 Q 862 494 851 508 Q 839 524 822 538 Q 805 554 785 566 L 752 588 L 738 597 Q 732 601 728 601 Q 726 601 725 600 Q 724 599 724 597 Q 724 594 727 588 Z"></path>
      </clipPath>
      <path clip-path="url(#make-me-a-hanzi-clip-11)" d="M 728 598 L 821 492 L 836 460 L 839 434" fill="none" id="make-me-a-hanzi-animation-11" stroke-dasharray="331 662" stroke-linecap="round"></path>
    
      <clipPath id="make-me-a-hanzi-clip-12">
        <path d="M 677 372 L 687 384 L 697 392 Q 701 396 701 401 Q 702 402 702 404 Q 702 409 697 416 Q 691 424 680 434 Q 669 444 655 452 Q 648 455 644 455 Q 642 455 641 454 Q 637 453 635 450 Q 633 448 633 438 Q 633 430 632 421 Q 631 412 629 406 Q 629 400 623 384 Q 617 368 609 350 Q 601 332 580 296 Q 558 259 541 236 L 497 182 Q 470 150 457 136 L 437 116 L 426 106 Q 423 104 423 101 Q 423 100 424 99 Q 426 97 429 97 Q 431 97 433 98 L 445 104 Q 456 108 479 124 Q 501 140 522 158 Q 543 176 571 208 Q 599 238 618 268 Q 637 298 667 353 L 677 372 Z"></path>
      </clipPath>
      <path clip-path="url(#make-me-a-hanzi-clip-12)" d="M 647 443 L 662 406 L 595 275 L 551 215 L 497 156 L 467 127 L 427 102" fill="none" id="make-me-a-hanzi-animation-12" stroke-dasharray="558 1116" stroke-linecap="round"></path>
    
      <clipPath id="make-me-a-hanzi-clip-13">
        <path d="M 667 353 L 683 334 L 719 284 L 757 234 Q 759 231 779 203 Q 800 176 811 166 Q 821 156 832 152 Q 843 148 865 148 Q 881 148 895 150 L 927 154 Q 948 156 955 158 L 975 164 Q 981 165 982 170 L 982 171 Q 982 176 975 179 L 961 183 Q 947 186 929 193 Q 910 200 883 213 Q 855 226 830 242 Q 804 258 783 275 Q 761 293 734 319 Q 707 346 699 353 Q 690 360 677 372 C 655 392 648 376 667 353 Z"></path>
      </clipPath>
      <path clip-path="url(#make-me-a-hanzi-clip-13)" d="M 681 364 L 680 354 L 759 265 L 840 191 L 934 171 L 976 171" fill="none" id="make-me-a-hanzi-animation-13" stroke-dasharray="505 1010" stroke-linecap="round"></path>
    
      <clipPath id="make-me-a-hanzi-clip-14">
        <path d="M 572 112 L 553 118 L 534 122 Q 527 123 521 123 L 517 123 Q 505 119 505 114 Q 507 110 507 108 Q 509 106 513 100 Q 519 94 523 86 Q 527 79 532 69 Q 537 59 539 36 L 549 -64 Q 551 -84 559 -95 Q 565 -106 572 -106 Q 578 -106 581 -102 Q 585 -98 587 -92 L 590 -82 L 590 -53 L 577 82 C 574 111 574 111 572 112 Z"></path>
      </clipPath>
      <path clip-path="url(#make-me-a-hanzi-clip-14)" d="M 515 114 L 549 92 L 556 72 L 573 -95" fill="none" id="make-me-a-hanzi-animation-14" stroke-dasharray="358 716" stroke-linecap="round"></path>
    
      <clipPath id="make-me-a-hanzi-clip-15">
        <path d="M 791 -47 L 813 26 L 821 54 Q 825 68 829 74 L 842 92 Q 846 98 846 102 Q 845 106 833 118 Q 821 130 814 133 L 793 143 Q 778 150 773 150 Q 769 149 756 144 Q 743 138 729 135 Q 715 132 694 128 Q 673 124 654 122 L 572 112 C 542 108 547 77 577 82 L 693 102 Q 709 106 729 106 Q 736 107 741 107 Q 751 107 755 104 Q 761 101 763 92 L 758 66 L 741 -36 C 736 -66 782 -76 791 -47 Z"></path>
      </clipPath>
      <path clip-path="url(#make-me-a-hanzi-clip-15)" d="M 580 106 L 589 99 L 740 123 L 776 121 L 800 98 L 772 -15 L 749 -30" fill="none" id="make-me-a-hanzi-animation-15" stroke-dasharray="505 1010" stroke-linecap="round"></path>
    
      <clipPath id="make-me-a-hanzi-clip-16">
        <path d="M 590 -82 L 697 -76 L 776 -72 L 801 -71 Q 805 -71 808 -68 Q 809 -67 809 -66 Q 809 -62 801 -56 L 791 -47 C 775 -32 771 -33 741 -36 L 590 -53 C 560 -56 560 -84 590 -82 Z"></path>
      </clipPath>
      <path clip-path="url(#make-me-a-hanzi-clip-16)" d="M 597 -75 L 605 -66 L 736 -55 L 802 -64" fill="none" id="make-me-a-hanzi-animation-16" stroke-dasharray="338 676" stroke-linecap="round"></path>
    
  </g>
</svg>