<svg xmlns="http://www.w3.org/2000/svg" version="1.1" viewBox="0 0 1024 1024">
  <g stroke="lightgray" stroke-dasharray="1,1" stroke-width="1" transform="scale(4, 4)">
    <line x1="0" y1="0" x2="256" y2="256" />
    <line x1="256" y1="0" x2="0" y2="256" />
    <line x1="128" y1="0" x2="128" y2="256" />
    <line x1="0" y1="128" x2="256" y2="128" />
  </g>
  <g transform="scale(1.0, -1.0) translate(0.0, -810.50)">
    <style type="text/css">
      
        @keyframes keyframes0 {
          from {
            stroke: blue;
            stroke-dashoffset: 556;
            stroke-width: 128;
          }
          64% {
            animation-timing-function: step-end;
            stroke: blue;
            stroke-dashoffset: 0;
            stroke-width: 128;
          }
          to {
            stroke: black;
            stroke-width: 1024;
          }
        }
        #make-me-a-hanzi-animation-0 {
          animation: keyframes0 0.7024739583333334s both;
          animation-delay: 0s;
          animation-timing-function: linear;
        }
      
        @keyframes keyframes1 {
          from {
            stroke: blue;
            stroke-dashoffset: 342;
            stroke-width: 128;
          }
          53% {
            animation-timing-function: step-end;
            stroke: blue;
            stroke-dashoffset: 0;
            stroke-width: 128;
          }
          to {
            stroke: black;
            stroke-width: 1024;
          }
        }
        #make-me-a-hanzi-animation-1 {
          animation: keyframes1 0.5283203125s both;
          animation-delay: 0.7024739583333334s;
          animation-timing-function: linear;
        }
      
        @keyframes keyframes2 {
          from {
            stroke: blue;
            stroke-dashoffset: 549;
            stroke-width: 128;
          }
          64% {
            animation-timing-function: step-end;
            stroke: blue;
            stroke-dashoffset: 0;
            stroke-width: 128;
          }
          to {
            stroke: black;
            stroke-width: 1024;
          }
        }
        #make-me-a-hanzi-animation-2 {
          animation: keyframes2 0.69677734375s both;
          animation-delay: 1.2307942708333335s;
          animation-timing-function: linear;
        }
      
        @keyframes keyframes3 {
          from {
            stroke: blue;
            stroke-dashoffset: 470;
            stroke-width: 128;
          }
          60% {
            animation-timing-function: step-end;
            stroke: blue;
            stroke-dashoffset: 0;
            stroke-width: 128;
          }
          to {
            stroke: black;
            stroke-width: 1024;
          }
        }
        #make-me-a-hanzi-animation-3 {
          animation: keyframes3 0.6324869791666666s both;
          animation-delay: 1.9275716145833335s;
          animation-timing-function: linear;
        }
      
        @keyframes keyframes4 {
          from {
            stroke: blue;
            stroke-dashoffset: 347;
            stroke-width: 128;
          }
          53% {
            animation-timing-function: step-end;
            stroke: blue;
            stroke-dashoffset: 0;
            stroke-width: 128;
          }
          to {
            stroke: black;
            stroke-width: 1024;
          }
        }
        #make-me-a-hanzi-animation-4 {
          animation: keyframes4 0.5323893229166666s both;
          animation-delay: 2.56005859375s;
          animation-timing-function: linear;
        }
      
        @keyframes keyframes5 {
          from {
            stroke: blue;
            stroke-dashoffset: 846;
            stroke-width: 128;
          }
          73% {
            animation-timing-function: step-end;
            stroke: blue;
            stroke-dashoffset: 0;
            stroke-width: 128;
          }
          to {
            stroke: black;
            stroke-width: 1024;
          }
        }
        #make-me-a-hanzi-animation-5 {
          animation: keyframes5 0.9384765625s both;
          animation-delay: 3.0924479166666665s;
          animation-timing-function: linear;
        }
      
        @keyframes keyframes6 {
          from {
            stroke: blue;
            stroke-dashoffset: 874;
            stroke-width: 128;
          }
          74% {
            animation-timing-function: step-end;
            stroke: blue;
            stroke-dashoffset: 0;
            stroke-width: 128;
          }
          to {
            stroke: black;
            stroke-width: 1024;
          }
        }
        #make-me-a-hanzi-animation-6 {
          animation: keyframes6 0.9612630208333334s both;
          animation-delay: 4.030924479166666s;
          animation-timing-function: linear;
        }
      
        @keyframes keyframes7 {
          from {
            stroke: blue;
            stroke-dashoffset: 736;
            stroke-width: 128;
          }
          71% {
            animation-timing-function: step-end;
            stroke: blue;
            stroke-dashoffset: 0;
            stroke-width: 128;
          }
          to {
            stroke: black;
            stroke-width: 1024;
          }
        }
        #make-me-a-hanzi-animation-7 {
          animation: keyframes7 0.8489583333333334s both;
          animation-delay: 4.992187499999999s;
          animation-timing-function: linear;
        }
      
        @keyframes keyframes8 {
          from {
            stroke: blue;
            stroke-dashoffset: 599;
            stroke-width: 128;
          }
          66% {
            animation-timing-function: step-end;
            stroke: blue;
            stroke-dashoffset: 0;
            stroke-width: 128;
          }
          to {
            stroke: black;
            stroke-width: 1024;
          }
        }
        #make-me-a-hanzi-animation-8 {
          animation: keyframes8 0.7374674479166666s both;
          animation-delay: 5.841145833333332s;
          animation-timing-function: linear;
        }
      
        @keyframes keyframes9 {
          from {
            stroke: blue;
            stroke-dashoffset: 416;
            stroke-width: 128;
          }
          58% {
            animation-timing-function: step-end;
            stroke: blue;
            stroke-dashoffset: 0;
            stroke-width: 128;
          }
          to {
            stroke: black;
            stroke-width: 1024;
          }
        }
        #make-me-a-hanzi-animation-9 {
          animation: keyframes9 0.5885416666666666s both;
          animation-delay: 6.578613281249999s;
          animation-timing-function: linear;
        }
      
        @keyframes keyframes10 {
          from {
            stroke: blue;
            stroke-dashoffset: 696;
            stroke-width: 128;
          }
          69% {
            animation-timing-function: step-end;
            stroke: blue;
            stroke-dashoffset: 0;
            stroke-width: 128;
          }
          to {
            stroke: black;
            stroke-width: 1024;
          }
        }
        #make-me-a-hanzi-animation-10 {
          animation: keyframes10 0.81640625s both;
          animation-delay: 7.167154947916666s;
          animation-timing-function: linear;
        }
      
        @keyframes keyframes11 {
          from {
            stroke: blue;
            stroke-dashoffset: 581;
            stroke-width: 128;
          }
          65% {
            animation-timing-function: step-end;
            stroke: blue;
            stroke-dashoffset: 0;
            stroke-width: 128;
          }
          to {
            stroke: black;
            stroke-width: 1024;
          }
        }
        #make-me-a-hanzi-animation-11 {
          animation: keyframes11 0.7228190104166666s both;
          animation-delay: 7.983561197916666s;
          animation-timing-function: linear;
        }
      
        @keyframes keyframes12 {
          from {
            stroke: blue;
            stroke-dashoffset: 347;
            stroke-width: 128;
          }
          53% {
            animation-timing-function: step-end;
            stroke: blue;
            stroke-dashoffset: 0;
            stroke-width: 128;
          }
          to {
            stroke: black;
            stroke-width: 1024;
          }
        }
        #make-me-a-hanzi-animation-12 {
          animation: keyframes12 0.5323893229166666s both;
          animation-delay: 8.706380208333332s;
          animation-timing-function: linear;
        }
      
        @keyframes keyframes13 {
          from {
            stroke: blue;
            stroke-dashoffset: 450;
            stroke-width: 128;
          }
          59% {
            animation-timing-function: step-end;
            stroke: blue;
            stroke-dashoffset: 0;
            stroke-width: 128;
          }
          to {
            stroke: black;
            stroke-width: 1024;
          }
        }
        #make-me-a-hanzi-animation-13 {
          animation: keyframes13 0.6162109375s both;
          animation-delay: 9.238769531249998s;
          animation-timing-function: linear;
        }
      
        @keyframes keyframes14 {
          from {
            stroke: blue;
            stroke-dashoffset: 1004;
            stroke-width: 128;
          }
          77% {
            animation-timing-function: step-end;
            stroke: blue;
            stroke-dashoffset: 0;
            stroke-width: 128;
          }
          to {
            stroke: black;
            stroke-width: 1024;
          }
        }
        #make-me-a-hanzi-animation-14 {
          animation: keyframes14 1.0670572916666667s both;
          animation-delay: 9.854980468749998s;
          animation-timing-function: linear;
        }
      
    </style>
    
      <path d="M 350 666 L 431 680 Q 445 681 448 685 Q 451 688 451 695 Q 451 702 440 706 Q 433 713 417 716 Q 406 720 401 720 Q 396 720 376 715 L 346 706 L 228 683 L 158 675 Q 140 673 138 671 Q 130 663 142 658 Q 155 652 159 648 C 166 643 191 646 221 649 L 249 652 L 300 660 L 350 666 Z" fill="lightgray" />
    
      <path d="M 340 588 L 350 666 C 354 696 298 690 300 660 L 306 580 C 308 550 336 558 340 588 Z" fill="lightgray" />
    
      <path d="M 422 488 L 443 532 L 464 563 Q 467 567 468 571 Q 469 576 442 596 L 422 605 Q 412 608 405 606 Q 399 603 371 596 L 340 588 L 306 580 L 244 571 Q 242 570 213 570 C 190 570 190 570 213 552 L 221 546 Q 222 544 231 544 L 256 549 L 371 566 L 392 568 Q 395 568 399 566 Q 399 564 401 564 L 401 549 Q 401 545 395 524 L 388 500 C 380 471 409 461 422 488 Z" fill="lightgray" />
    
      <path d="M 340 461 L 422 465 Q 439 464 430 479 L 422 488 C 409 503 409 503 388 500 L 358 496 Q 319 490 211 481 C 181 478 181 452 211 453 L 291 456 L 340 461 Z" fill="lightgray" />
    
      <path d="M 337 379 L 340 412 L 345 433 L 347 448 L 340 461 C 326 487 281 484 291 456 L 296 442 Q 300 426 300 404 L 299 372 C 298 342 334 349 337 379 Z" fill="lightgray" />
    
      <path d="M 258 335 L 384 342 L 421 338 L 456 336 Q 465 339 467 343 Q 471 354 453 369 Q 436 384 414 392 L 337 379 L 299 372 L 226 362 Q 219 360 214 362 L 209 367 Q 207 374 208 395 L 211 453 L 211 481 L 213 552 L 213 570 L 213 588 Q 213 612 218 625 Q 223 637 223 639 Q 224 640 221 649 C 222 679 147 675 159 648 L 167 630 L 172 578 L 167 433 L 164 388 L 150 349 Q 149 346 155 324 Q 161 302 174 302 L 185 308 Q 197 316 209 320 L 234 329 Q 248 334 258 335 Z" fill="lightgray" />
    
      <path d="M 613 497 L 596 479 Q 562 439 533 418 Q 507 403 501 401 L 467 387 Q 462 385 462 379 Q 462 373 470 375 L 487 378 Q 509 382 512 382 Q 515 382 519 384 L 541 392 Q 559 397 586 412 Q 608 427 614 433 L 640 458 L 669 497 L 703 560 Q 721 607 735 628 L 751 645 Q 760 654 761 659 Q 762 663 753 672 Q 741 680 720 691 Q 699 701 686 699 Q 668 692 662 687 Q 656 681 652 681 L 630 673 Q 608 665 601 664 L 569 654 L 499 642 Q 490 640 489 638 Q 484 625 505 616 C 506 615 513 619 542 624 L 585 632 L 632 644 Q 654 648 665 653 Q 676 657 678 654 Q 684 648 661 582 Q 659 576 648 560 Q 638 543 632 528 L 613 497 Z" fill="lightgray" />
    
      <path d="M 560 563 L 613 497 L 640 458 L 702 392 Q 719 371 737 362 Q 753 356 764 355 Q 775 354 800 357 Q 825 359 831 361 L 883 374 L 904 378 Q 913 379 914 385 Q 916 390 913 392 Q 911 393 905 394 L 872 402 L 789 429 Q 731 450 695 478 L 669 497 L 632 528 L 607 552 L 569 596 L 542 624 C 521 646 479 631 505 616 L 519 608 Q 539 593 560 563 Z" fill="lightgray" />
    
      <path d="M 523 314 L 399 298 L 345 294 Q 322 291 312 291 L 298 291 Q 291 291 289 286 Q 284 278 311 267 Q 328 262 340 262 Q 353 261 393 266 L 455 271 Q 460 271 476 273 L 497 276 Q 538 281 565 283 L 627 290 Q 640 292 644 296 Q 656 302 643 310 Q 639 313 618 323 Q 598 332 579 326 Q 560 320 523 314 Z" fill="lightgray" />
    
      <path d="M 334 111 L 326 196 C 324 220 324 220 309 222 L 295 224 Q 284 224 279 227 Q 265 229 257 223 Q 250 217 266 209 Q 273 205 278 196 L 286 171 L 296 104 Q 299 91 303 81 L 312 72 Q 313 71 319 69 Q 325 67 330 73 L 333 85 L 334 111 Z" fill="lightgray" />
    
      <path d="M 326 196 L 545 218 Q 546 219 567 219 L 587 218 Q 612 215 613 204 Q 613 199 606 181 Q 599 163 590 132 C 581 103 633 95 646 122 L 672 178 L 683 192 Q 701 210 699 217 Q 698 223 674 240 Q 667 248 662 250 Q 657 251 646 257 Q 636 262 627 262 Q 618 262 579 251 Q 541 239 462 234 L 309 222 C 279 220 296 193 326 196 Z" fill="lightgray" />
    
      <path d="M 456 122 L 334 111 C 304 108 303 84 333 85 L 593 98 L 614 98 L 646 99 Q 660 99 663 101 Q 666 102 660 109 L 646 122 C 632 135 620 134 590 132 L 522 127 Q 504 124 456 122 Z" fill="lightgray" />
    
      <path d="M 325 42 L 351 -11 Q 368 -40 386 -43 Q 413 -44 416 -15 Q 419 11 391 32 Q 378 41 347 51 L 329 57 Q 327 59 324 55 Q 321 51 325 42 Z" fill="lightgray" />
    
      <path d="M 520 -54 Q 548 -43 657 42 Q 683 60 657 75 Q 633 93 614 98 C 592 105 592 105 593 98 Q 602 57 586 40 L 515 -54 C 512 -58 512 -58 520 -54 Z" fill="lightgray" />
    
      <path d="M 181 -123 L 229 -114 L 312 -102 Q 330 -99 378 -96 L 490 -89 L 665 -84 Q 752 -84 777 -86 L 808 -87 Q 841 -87 858 -82 Q 875 -74 861 -64 Q 848 -55 827 -44 Q 807 -33 793 -33 Q 792 -32 753 -37 L 728 -39 Q 689 -43 648 -46 L 520 -54 L 515 -54 L 398 -61 L 287 -71 Q 262 -74 200 -76 L 166 -76 Q 155 -76 142 -78 L 118 -80 Q 108 -80 107 -83 Q 104 -87 108 -92 Q 110 -97 118 -100 L 134 -108 Q 159 -123 181 -123 Z" fill="lightgray" />
    
    
      <clipPath id="make-me-a-hanzi-clip-0">
        <path d="M 350 666 L 431 680 Q 445 681 448 685 Q 451 688 451 695 Q 451 702 440 706 Q 433 713 417 716 Q 406 720 401 720 Q 396 720 376 715 L 346 706 L 228 683 L 158 675 Q 140 673 138 671 Q 130 663 142 658 Q 155 652 159 648 C 166 643 191 646 221 649 L 249 652 L 300 660 L 350 666 Z" />
      </clipPath>
      <path clip-path="url(#make-me-a-hanzi-clip-0)" d="M 143 665 L 213 664 L 389 696 L 440 693" fill="none" id="make-me-a-hanzi-animation-0" stroke-dasharray="428 856" stroke-linecap="round" />
    
      <clipPath id="make-me-a-hanzi-clip-1">
        <path d="M 340 588 L 350 666 C 354 696 298 690 300 660 L 306 580 C 308 550 336 558 340 588 Z" />
      </clipPath>
      <path clip-path="url(#make-me-a-hanzi-clip-1)" d="M 345 659 L 324 640 L 323 604 L 310 587" fill="none" id="make-me-a-hanzi-animation-1" stroke-dasharray="214 428" stroke-linecap="round" />
    
      <clipPath id="make-me-a-hanzi-clip-2">
        <path d="M 422 488 L 443 532 L 464 563 Q 467 567 468 571 Q 469 576 442 596 L 422 605 Q 412 608 405 606 Q 399 603 371 596 L 340 588 L 306 580 L 244 571 Q 242 570 213 570 C 190 570 190 570 213 552 L 221 546 Q 222 544 231 544 L 256 549 L 371 566 L 392 568 Q 395 568 399 566 Q 399 564 401 564 L 401 549 Q 401 545 395 524 L 388 500 C 380 471 409 461 422 488 Z" />
      </clipPath>
      <path clip-path="url(#make-me-a-hanzi-clip-2)" d="M 224 566 L 235 557 L 413 584 L 430 563 L 411 512 L 396 504" fill="none" id="make-me-a-hanzi-animation-2" stroke-dasharray="421 842" stroke-linecap="round" />
    
      <clipPath id="make-me-a-hanzi-clip-3">
        <path d="M 340 461 L 422 465 Q 439 464 430 479 L 422 488 C 409 503 409 503 388 500 L 358 496 Q 319 490 211 481 C 181 478 181 452 211 453 L 291 456 L 340 461 Z" />
      </clipPath>
      <path clip-path="url(#make-me-a-hanzi-clip-3)" d="M 217 460 L 226 469 L 383 482 L 426 472" fill="none" id="make-me-a-hanzi-animation-3" stroke-dasharray="342 684" stroke-linecap="round" />
    
      <clipPath id="make-me-a-hanzi-clip-4">
        <path d="M 337 379 L 340 412 L 345 433 L 347 448 L 340 461 C 326 487 281 484 291 456 L 296 442 Q 300 426 300 404 L 299 372 C 298 342 334 349 337 379 Z" />
      </clipPath>
      <path clip-path="url(#make-me-a-hanzi-clip-4)" d="M 298 451 L 322 433 L 319 396 L 305 377" fill="none" id="make-me-a-hanzi-animation-4" stroke-dasharray="219 438" stroke-linecap="round" />
    
      <clipPath id="make-me-a-hanzi-clip-5">
        <path d="M 258 335 L 384 342 L 421 338 L 456 336 Q 465 339 467 343 Q 471 354 453 369 Q 436 384 414 392 L 337 379 L 299 372 L 226 362 Q 219 360 214 362 L 209 367 Q 207 374 208 395 L 211 453 L 211 481 L 213 552 L 213 570 L 213 588 Q 213 612 218 625 Q 223 637 223 639 Q 224 640 221 649 C 222 679 147 675 159 648 L 167 630 L 172 578 L 167 433 L 164 388 L 150 349 Q 149 346 155 324 Q 161 302 174 302 L 185 308 Q 197 316 209 320 L 234 329 Q 248 334 258 335 Z" />
      </clipPath>
      <path clip-path="url(#make-me-a-hanzi-clip-5)" d="M 167 646 L 192 624 L 184 345 L 208 341 L 411 366 L 456 348" fill="none" id="make-me-a-hanzi-animation-5" stroke-dasharray="718 1436" stroke-linecap="round" />
    
      <clipPath id="make-me-a-hanzi-clip-6">
        <path d="M 613 497 L 596 479 Q 562 439 533 418 Q 507 403 501 401 L 467 387 Q 462 385 462 379 Q 462 373 470 375 L 487 378 Q 509 382 512 382 Q 515 382 519 384 L 541 392 Q 559 397 586 412 Q 608 427 614 433 L 640 458 L 669 497 L 703 560 Q 721 607 735 628 L 751 645 Q 760 654 761 659 Q 762 663 753 672 Q 741 680 720 691 Q 699 701 686 699 Q 668 692 662 687 Q 656 681 652 681 L 630 673 Q 608 665 601 664 L 569 654 L 499 642 Q 490 640 489 638 Q 484 625 505 616 C 506 615 513 619 542 624 L 585 632 L 632 644 Q 654 648 665 653 Q 676 657 678 654 Q 684 648 661 582 Q 659 576 648 560 Q 638 543 632 528 L 613 497 Z" />
      </clipPath>
      <path clip-path="url(#make-me-a-hanzi-clip-6)" d="M 497 633 L 504 629 L 578 644 L 687 676 L 713 655 L 679 565 L 647 506 L 617 468 L 591 441 L 542 406 L 468 381" fill="none" id="make-me-a-hanzi-animation-6" stroke-dasharray="746 1492" stroke-linecap="round" />
    
      <clipPath id="make-me-a-hanzi-clip-7">
        <path d="M 560 563 L 613 497 L 640 458 L 702 392 Q 719 371 737 362 Q 753 356 764 355 Q 775 354 800 357 Q 825 359 831 361 L 883 374 L 904 378 Q 913 379 914 385 Q 916 390 913 392 Q 911 393 905 394 L 872 402 L 789 429 Q 731 450 695 478 L 669 497 L 632 528 L 607 552 L 569 596 L 542 624 C 521 646 479 631 505 616 L 519 608 Q 539 593 560 563 Z" />
      </clipPath>
      <path clip-path="url(#make-me-a-hanzi-clip-7)" d="M 517 613 L 538 610 L 663 469 L 745 404 L 769 394 L 807 389 L 908 388" fill="none" id="make-me-a-hanzi-animation-7" stroke-dasharray="608 1216" stroke-linecap="round" />
    
      <clipPath id="make-me-a-hanzi-clip-8">
        <path d="M 523 314 L 399 298 L 345 294 Q 322 291 312 291 L 298 291 Q 291 291 289 286 Q 284 278 311 267 Q 328 262 340 262 Q 353 261 393 266 L 455 271 Q 460 271 476 273 L 497 276 Q 538 281 565 283 L 627 290 Q 640 292 644 296 Q 656 302 643 310 Q 639 313 618 323 Q 598 332 579 326 Q 560 320 523 314 Z" />
      </clipPath>
      <path clip-path="url(#make-me-a-hanzi-clip-8)" d="M 296 284 L 335 277 L 446 286 L 597 308 L 636 302" fill="none" id="make-me-a-hanzi-animation-8" stroke-dasharray="471 942" stroke-linecap="round" />
    
      <clipPath id="make-me-a-hanzi-clip-9">
        <path d="M 334 111 L 326 196 C 324 220 324 220 309 222 L 295 224 Q 284 224 279 227 Q 265 229 257 223 Q 250 217 266 209 Q 273 205 278 196 L 286 171 L 296 104 Q 299 91 303 81 L 312 72 Q 313 71 319 69 Q 325 67 330 73 L 333 85 L 334 111 Z" />
      </clipPath>
      <path clip-path="url(#make-me-a-hanzi-clip-9)" d="M 265 218 L 297 203 L 304 191 L 321 82" fill="none" id="make-me-a-hanzi-animation-9" stroke-dasharray="288 576" stroke-linecap="round" />
    
      <clipPath id="make-me-a-hanzi-clip-10">
        <path d="M 326 196 L 545 218 Q 546 219 567 219 L 587 218 Q 612 215 613 204 Q 613 199 606 181 Q 599 163 590 132 C 581 103 633 95 646 122 L 672 178 L 683 192 Q 701 210 699 217 Q 698 223 674 240 Q 667 248 662 250 Q 657 251 646 257 Q 636 262 627 262 Q 618 262 579 251 Q 541 239 462 234 L 309 222 C 279 220 296 193 326 196 Z" />
      </clipPath>
      <path clip-path="url(#make-me-a-hanzi-clip-10)" d="M 317 218 L 333 210 L 592 237 L 621 235 L 650 211 L 629 156 L 598 138" fill="none" id="make-me-a-hanzi-animation-10" stroke-dasharray="568 1136" stroke-linecap="round" />
    
      <clipPath id="make-me-a-hanzi-clip-11">
        <path d="M 456 122 L 334 111 C 304 108 303 84 333 85 L 593 98 L 614 98 L 646 99 Q 660 99 663 101 Q 666 102 660 109 L 646 122 C 632 135 620 134 590 132 L 522 127 Q 504 124 456 122 Z" />
      </clipPath>
      <path clip-path="url(#make-me-a-hanzi-clip-11)" d="M 340 91 L 347 99 L 544 113 L 637 112 L 659 104" fill="none" id="make-me-a-hanzi-animation-11" stroke-dasharray="453 906" stroke-linecap="round" />
    
      <clipPath id="make-me-a-hanzi-clip-12">
        <path d="M 325 42 L 351 -11 Q 368 -40 386 -43 Q 413 -44 416 -15 Q 419 11 391 32 Q 378 41 347 51 L 329 57 Q 327 59 324 55 Q 321 51 325 42 Z" />
      </clipPath>
      <path clip-path="url(#make-me-a-hanzi-clip-12)" d="M 329 49 L 377 5 L 389 -18" fill="none" id="make-me-a-hanzi-animation-12" stroke-dasharray="219 438" stroke-linecap="round" />
    
      <clipPath id="make-me-a-hanzi-clip-13">
        <path d="M 520 -54 Q 548 -43 657 42 Q 683 60 657 75 Q 633 93 614 98 C 592 105 592 105 593 98 Q 602 57 586 40 L 515 -54 C 512 -58 512 -58 520 -54 Z" />
      </clipPath>
      <path clip-path="url(#make-me-a-hanzi-clip-13)" d="M 598 89 L 614 80 L 627 57 L 562 -15 L 521 -48" fill="none" id="make-me-a-hanzi-animation-13" stroke-dasharray="322 644" stroke-linecap="round" />
    
      <clipPath id="make-me-a-hanzi-clip-14">
        <path d="M 181 -123 L 229 -114 L 312 -102 Q 330 -99 378 -96 L 490 -89 L 665 -84 Q 752 -84 777 -86 L 808 -87 Q 841 -87 858 -82 Q 875 -74 861 -64 Q 848 -55 827 -44 Q 807 -33 793 -33 Q 792 -32 753 -37 L 728 -39 Q 689 -43 648 -46 L 520 -54 L 515 -54 L 398 -61 L 287 -71 Q 262 -74 200 -76 L 166 -76 Q 155 -76 142 -78 L 118 -80 Q 108 -80 107 -83 Q 104 -87 108 -92 Q 110 -97 118 -100 L 134 -108 Q 159 -123 181 -123 Z" />
      </clipPath>
      <path clip-path="url(#make-me-a-hanzi-clip-14)" d="M 114 -87 L 177 -100 L 391 -77 L 766 -60 L 810 -62 L 858 -73" fill="none" id="make-me-a-hanzi-animation-14" stroke-dasharray="876 1752" stroke-linecap="round" />
    
  </g>
</svg>