<svg version="1.1" viewBox="0 0 1024 1024" xmlns="http://www.w3.org/2000/svg">
  <g stroke="lightgray" stroke-dasharray="1,1" stroke-width="1" transform="scale(4, 4)">
    <line x1="0" y1="0" x2="256" y2="256"></line>
    <line x1="256" y1="0" x2="0" y2="256"></line>
    <line x1="128" y1="0" x2="128" y2="256"></line>
    <line x1="0" y1="128" x2="256" y2="128"></line>
  </g>
  <g transform="scale(0.92, -0.92) translate(60, -830)">
    <style type="text/css">
      
        @keyframes keyframes0 {
          from {
            stroke: blue;
            stroke-dashoffset: 666;
            stroke-width: 128;
          }
          68% {
            animation-timing-function: step-end;
            stroke: blue;
            stroke-dashoffset: 0;
            stroke-width: 128;
          }
          to {
            stroke: black;
            stroke-width: 1024;
          }
        }
        #make-me-a-hanzi-animation-0 {
          animation: keyframes0 0.7919921875s both;
          animation-delay: 0s;
          animation-timing-function: linear;
        }
      
        @keyframes keyframes1 {
          from {
            stroke: blue;
            stroke-dashoffset: 396;
            stroke-width: 128;
          }
          56% {
            animation-timing-function: step-end;
            stroke: blue;
            stroke-dashoffset: 0;
            stroke-width: 128;
          }
          to {
            stroke: black;
            stroke-width: 1024;
          }
        }
        #make-me-a-hanzi-animation-1 {
          animation: keyframes1 0.572265625s both;
          animation-delay: 0.7919921875s;
          animation-timing-function: linear;
        }
      
        @keyframes keyframes2 {
          from {
            stroke: blue;
            stroke-dashoffset: 719;
            stroke-width: 128;
          }
          70% {
            animation-timing-function: step-end;
            stroke: blue;
            stroke-dashoffset: 0;
            stroke-width: 128;
          }
          to {
            stroke: black;
            stroke-width: 1024;
          }
        }
        #make-me-a-hanzi-animation-2 {
          animation: keyframes2 0.8351236979166666s both;
          animation-delay: 1.3642578125s;
          animation-timing-function: linear;
        }
      
        @keyframes keyframes3 {
          from {
            stroke: blue;
            stroke-dashoffset: 785;
            stroke-width: 128;
          }
          72% {
            animation-timing-function: step-end;
            stroke: blue;
            stroke-dashoffset: 0;
            stroke-width: 128;
          }
          to {
            stroke: black;
            stroke-width: 1024;
          }
        }
        #make-me-a-hanzi-animation-3 {
          animation: keyframes3 0.8888346354166666s both;
          animation-delay: 2.1993815104166665s;
          animation-timing-function: linear;
        }
      
        @keyframes keyframes4 {
          from {
            stroke: blue;
            stroke-dashoffset: 516;
            stroke-width: 128;
          }
          63% {
            animation-timing-function: step-end;
            stroke: blue;
            stroke-dashoffset: 0;
            stroke-width: 128;
          }
          to {
            stroke: black;
            stroke-width: 1024;
          }
        }
        #make-me-a-hanzi-animation-4 {
          animation: keyframes4 0.669921875s both;
          animation-delay: 3.088216145833333s;
          animation-timing-function: linear;
        }
      
        @keyframes keyframes5 {
          from {
            stroke: blue;
            stroke-dashoffset: 590;
            stroke-width: 128;
          }
          66% {
            animation-timing-function: step-end;
            stroke: blue;
            stroke-dashoffset: 0;
            stroke-width: 128;
          }
          to {
            stroke: black;
            stroke-width: 1024;
          }
        }
        #make-me-a-hanzi-animation-5 {
          animation: keyframes5 0.7301432291666666s both;
          animation-delay: 3.758138020833333s;
          animation-timing-function: linear;
        }
      
        @keyframes keyframes6 {
          from {
            stroke: blue;
            stroke-dashoffset: 415;
            stroke-width: 128;
          }
          57% {
            animation-timing-function: step-end;
            stroke: blue;
            stroke-dashoffset: 0;
            stroke-width: 128;
          }
          to {
            stroke: black;
            stroke-width: 1024;
          }
        }
        #make-me-a-hanzi-animation-6 {
          animation: keyframes6 0.5877278645833334s both;
          animation-delay: 4.48828125s;
          animation-timing-function: linear;
        }
      
        @keyframes keyframes7 {
          from {
            stroke: blue;
            stroke-dashoffset: 717;
            stroke-width: 128;
          }
          70% {
            animation-timing-function: step-end;
            stroke: blue;
            stroke-dashoffset: 0;
            stroke-width: 128;
          }
          to {
            stroke: black;
            stroke-width: 1024;
          }
        }
        #make-me-a-hanzi-animation-7 {
          animation: keyframes7 0.83349609375s both;
          animation-delay: 5.076009114583333s;
          animation-timing-function: linear;
        }
      
        @keyframes keyframes8 {
          from {
            stroke: blue;
            stroke-dashoffset: 341;
            stroke-width: 128;
          }
          53% {
            animation-timing-function: step-end;
            stroke: blue;
            stroke-dashoffset: 0;
            stroke-width: 128;
          }
          to {
            stroke: black;
            stroke-width: 1024;
          }
        }
        #make-me-a-hanzi-animation-8 {
          animation: keyframes8 0.5275065104166666s both;
          animation-delay: 5.909505208333333s;
          animation-timing-function: linear;
        }
      
        @keyframes keyframes9 {
          from {
            stroke: blue;
            stroke-dashoffset: 492;
            stroke-width: 128;
          }
          62% {
            animation-timing-function: step-end;
            stroke: blue;
            stroke-dashoffset: 0;
            stroke-width: 128;
          }
          to {
            stroke: black;
            stroke-width: 1024;
          }
        }
        #make-me-a-hanzi-animation-9 {
          animation: keyframes9 0.650390625s both;
          animation-delay: 6.43701171875s;
          animation-timing-function: linear;
        }
      
        @keyframes keyframes10 {
          from {
            stroke: blue;
            stroke-dashoffset: 550;
            stroke-width: 128;
          }
          64% {
            animation-timing-function: step-end;
            stroke: blue;
            stroke-dashoffset: 0;
            stroke-width: 128;
          }
          to {
            stroke: black;
            stroke-width: 1024;
          }
        }
        #make-me-a-hanzi-animation-10 {
          animation: keyframes10 0.6975911458333334s both;
          animation-delay: 7.08740234375s;
          animation-timing-function: linear;
        }
      
        @keyframes keyframes11 {
          from {
            stroke: blue;
            stroke-dashoffset: 803;
            stroke-width: 128;
          }
          72% {
            animation-timing-function: step-end;
            stroke: blue;
            stroke-dashoffset: 0;
            stroke-width: 128;
          }
          to {
            stroke: black;
            stroke-width: 1024;
          }
        }
        #make-me-a-hanzi-animation-11 {
          animation: keyframes11 0.9034830729166666s both;
          animation-delay: 7.784993489583333s;
          animation-timing-function: linear;
        }
      
        @keyframes keyframes12 {
          from {
            stroke: blue;
            stroke-dashoffset: 540;
            stroke-width: 128;
          }
          64% {
            animation-timing-function: step-end;
            stroke: blue;
            stroke-dashoffset: 0;
            stroke-width: 128;
          }
          to {
            stroke: black;
            stroke-width: 1024;
          }
        }
        #make-me-a-hanzi-animation-12 {
          animation: keyframes12 0.689453125s both;
          animation-delay: 8.6884765625s;
          animation-timing-function: linear;
        }
      
        @keyframes keyframes13 {
          from {
            stroke: blue;
            stroke-dashoffset: 617;
            stroke-width: 128;
          }
          67% {
            animation-timing-function: step-end;
            stroke: blue;
            stroke-dashoffset: 0;
            stroke-width: 128;
          }
          to {
            stroke: black;
            stroke-width: 1024;
          }
        }
        #make-me-a-hanzi-animation-13 {
          animation: keyframes13 0.7521158854166666s both;
          animation-delay: 9.3779296875s;
          animation-timing-function: linear;
        }
      
        @keyframes keyframes14 {
          from {
            stroke: blue;
            stroke-dashoffset: 440;
            stroke-width: 128;
          }
          59% {
            animation-timing-function: step-end;
            stroke: blue;
            stroke-dashoffset: 0;
            stroke-width: 128;
          }
          to {
            stroke: black;
            stroke-width: 1024;
          }
        }
        #make-me-a-hanzi-animation-14 {
          animation: keyframes14 0.6080729166666666s both;
          animation-delay: 10.130045572916666s;
          animation-timing-function: linear;
        }
      
        @keyframes keyframes15 {
          from {
            stroke: blue;
            stroke-dashoffset: 630;
            stroke-width: 128;
          }
          67% {
            animation-timing-function: step-end;
            stroke: blue;
            stroke-dashoffset: 0;
            stroke-width: 128;
          }
          to {
            stroke: black;
            stroke-width: 1024;
          }
        }
        #make-me-a-hanzi-animation-15 {
          animation: keyframes15 0.7626953125s both;
          animation-delay: 10.738118489583332s;
          animation-timing-function: linear;
        }
      
    </style>
    
      <path d="M 266 459 L 326 512 Q 345 529 366 542 L 398 561 Q 410 568 411 574 L 411 576 Q 411 581 406 587 Q 400 594 388 602 L 368 615 Q 359 620 350 624 Q 343 626 335 626 L 330 626 Q 324 626 311 621 Q 298 616 289 614 L 264 606 Q 247 602 242 601 Q 238 600 204 593 Q 170 586 161 585 L 142 584 L 113 581 Q 105 580 103 577 Q 102 576 102 575 Q 102 572 106 568 Q 112 560 124 554 Q 136 546 144 546 L 148 546 Q 154 546 161 548 L 184 558 L 218 568 L 270 582 Q 292 588 302 589 Q 310 589 313 586 Q 316 583 316 578 L 316 576 Q 316 570 310 560 L 297 540 L 246 470 C 228 446 244 439 266 459 Z" fill="lightgray"></path>
    
      <path d="M 288 393 L 289 414 L 289 418 Q 289 428 285 437 Q 280 448 276 452 Q 272 455 266 459 L 246 470 L 211 482 Q 204 484 193 486 L 177 489 L 175 489 Q 172 489 170 487 L 170 486 Q 170 483 174 478 L 186 464 Q 193 454 207 438 Q 221 422 231 412 Q 241 403 249 398 Q 257 392 268 388 C 287 380 287 380 288 393 Z" fill="lightgray"></path>
    
      <path d="M 268 388 L 234 380 Q 231 380 200 374 Q 168 368 130 362 Q 92 355 78 353 L 58 350 Q 47 348 45 344 L 45 342 Q 45 340 47 336 Q 50 330 58 326 Q 70 319 80 319 L 84 319 L 102 325 L 204 344 L 248 355 L 308 364 Q 334 366 346 366 Q 355 366 355 365 L 355 362 Q 355 355 348 338 Q 340 316 334 304 L 325 287 Q 321 279 321 276 L 321 274 L 322 274 Q 324 274 332 279 L 348 292 L 373 309 Q 386 318 400 326 Q 415 334 429 340 Q 442 346 444 351 Q 445 352 445 354 Q 445 359 441 366 Q 436 374 428 380 Q 420 386 406 394 Q 392 402 383 408 Q 374 412 362 412 Q 356 412 342 408 L 320 400 Q 310 398 288 393 L 268 388 Z" fill="lightgray"></path>
    
      <path d="M 204 344 L 211 328 Q 214 319 216 304 Q 218 290 220 267 L 220 64 Q 220 44 218 20 Q 216 -4 211 -11 Q 206 -18 201 -20 L 198 -20 Q 192 -20 180 -14 L 158 -4 L 142 2 L 132 6 Q 127 8 124 8 Q 121 8 120 6 Q 119 5 119 4 Q 119 1 123 -2 L 130 -10 Q 134 -14 146 -27 L 179 -64 L 198 -88 Q 210 -105 216 -105 Q 222 -104 232 -94 Q 243 -82 250 -72 Q 256 -61 260 -48 Q 264 -34 266 -15 Q 268 4 268 17 L 266 228 Q 266 257 268 278 Q 271 298 275 311 Q 278 321 278 327 Q 278 329 277 331 Q 276 336 266 342 Q 256 348 248 355 C 224 373 192 371 204 344 Z" fill="lightgray"></path>
    
      <path d="M 555 616 L 580 649 L 599 673 L 608 678 Q 615 684 616 689 Q 616 694 608 700 Q 601 707 588 713 Q 576 720 565 722 Q 558 725 553 725 Q 551 725 549 724 Q 546 723 543 720 Q 540 718 540 705 Q 540 692 532 675 Q 525 658 517 642 Q 509 626 494 602 Q 480 578 458 551 L 437 524 L 429 514 Q 427 511 427 508 Q 427 506 428 505 Q 429 503 431 503 Q 434 503 439 507 L 454 517 L 480 536 L 505 561 L 536 593 L 555 616 Z" fill="lightgray"></path>
    
      <path d="M 618 495 L 699 575 L 722 594 L 740 612 L 756 621 Q 764 626 764 631 Q 764 634 759 641 Q 754 648 740 655 Q 725 662 715 664 Q 706 666 700 666 Q 695 664 682 658 Q 668 651 637 640 Q 606 630 601 628 Q 596 626 582 623 Q 568 620 555 616 C 526 608 506 598 536 593 L 553 590 Q 558 589 562 589 Q 567 589 572 590 Q 581 591 588 593 L 644 608 Q 651 610 655 610 Q 659 610 660 608 L 660 607 Q 660 602 650 589 L 577 487 C 560 463 597 474 618 495 Z" fill="lightgray"></path>
    
      <path d="M 474 475 L 462 479 L 452 482 Q 444 484 440 484 Q 429 483 428 478 L 428 477 Q 428 472 436 462 Q 444 451 448 437 Q 452 422 452 421 L 466 350 Q 468 339 476 332 Q 483 326 487 326 L 488 326 Q 492 327 496 332 Q 498 337 502 343 C 504 346 504 346 500 371 L 488 448 C 484 472 484 472 474 475 Z" fill="lightgray"></path>
    
      <path d="M 738 366 L 748 354 L 753 347 Q 756 344 763 344 L 766 344 Q 774 346 781 354 L 790 374 L 818 427 Q 822 434 829 445 Q 836 457 845 465 Q 854 474 854 476 L 854 477 Q 854 483 846 492 Q 836 502 828 507 Q 820 512 806 518 Q 794 523 780 526 Q 770 529 762 529 L 759 529 Q 754 528 741 523 Q 728 518 720 516 L 688 509 L 658 501 L 618 495 L 577 487 L 536 481 Q 524 479 474 475 C 444 473 458 444 488 448 L 590 462 L 636 468 L 704 481 Q 725 485 737 485 Q 742 485 745 484 Q 757 483 762 479 Q 766 476 767 470 L 767 468 Q 767 463 764 454 L 760 438 L 745 388 C 738 366 738 366 738 366 Z" fill="lightgray"></path>
    
      <path d="M 636 389 L 638 411 L 639 428 Q 640 436 640 439 L 647 456 Q 646 460 636 468 C 613 487 583 491 590 462 L 594 445 Q 597 433 597 401 L 597 384 C 597 354 633 359 636 389 Z" fill="lightgray"></path>
    
      <path d="M 614 354 L 738 366 C 768 369 772 376 745 388 L 727 396 Q 722 399 715 399 Q 711 399 706 398 L 674 393 L 636 389 L 597 384 L 500 371 C 470 367 472 340 502 343 L 566 349 L 614 354 Z" fill="lightgray"></path>
    
      <path d="M 561 280 L 580 292 L 598 304 Q 611 313 620 315 Q 628 318 631 320 Q 633 322 633 325 Q 633 328 631 331 Q 628 338 625 342 Q 622 346 614 354 C 593 376 584 373 566 349 L 559 340 Q 554 332 543 320 Q 532 308 508 288 L 466 254 Q 447 242 421 224 Q 396 208 388 204 L 375 197 Q 371 195 371 191 L 371 190 Q 372 188 376 188 Q 379 188 384 189 L 394 191 Q 402 192 424 201 Q 444 210 466 221 Q 488 232 508 244 Q 528 256 546 269 L 561 280 Z" fill="lightgray"></path>
    
      <path d="M 663 197 L 646 215 L 618 240 Q 599 257 594 260 Q 590 264 582 268 Q 574 272 561 280 C 535 295 526 292 546 269 L 566 246 L 603 206 L 616 165 L 623 104 L 625 74 L 625 68 Q 625 58 623 33 Q 620 0 617 -16 Q 613 -32 608 -48 Q 602 -64 597 -70 Q 591 -75 584 -76 L 582 -76 Q 575 -76 552 -70 L 506 -57 Q 504 -56 502 -56 Q 497 -56 496 -60 L 496 -62 Q 496 -66 504 -74 L 516 -84 L 539 -106 L 570 -139 Q 577 -148 584 -154 Q 592 -160 597 -161 L 599 -161 Q 605 -161 614 -155 Q 624 -147 636 -133 Q 647 -118 656 -98 Q 666 -78 673 -50 Q 680 -22 682 23 L 682 43 Q 682 62 681 77 Q 679 100 676 114 L 670 143 C 664 172 668 191 663 197 Z" fill="lightgray"></path>
    
      <path d="M 566 246 L 550 225 Q 540 212 517 190 Q 494 168 468 148 Q 443 128 419 112 L 382 88 Q 372 82 368 80 L 358 74 Q 353 71 353 67 L 353 66 Q 354 63 358 63 Q 361 63 364 64 L 374 66 L 395 73 Q 410 78 438 90 Q 465 102 490 118 Q 516 132 534 147 L 570 178 Q 590 194 603 206 C 625 226 584 270 566 246 Z" fill="lightgray"></path>
    
      <path d="M 616 165 L 602 149 Q 599 145 582 126 Q 565 108 540 87 Q 514 66 474 37 Q 434 8 418 -2 L 365 -30 Q 353 -37 348 -39 L 336 -44 Q 332 -46 332 -50 L 332 -53 Q 332 -57 337 -57 L 341 -57 L 360 -53 Q 366 -52 389 -44 Q 411 -38 438 -26 Q 464 -14 486 -1 Q 508 12 553 43 Q 598 74 608 86 Q 618 97 623 104 C 642 128 636 188 616 165 Z" fill="lightgray"></path>
    
      <path d="M 674 184 L 689 194 Q 690 194 714 208 L 762 240 Q 784 257 792 261 Q 800 264 807 267 L 819 272 Q 824 274 826 280 Q 827 282 827 283 Q 827 288 822 294 Q 816 302 800 312 L 777 325 Q 770 329 762 329 Q 756 328 754 326 Q 752 324 751 318 Q 750 311 747 304 Q 744 298 734 283 Q 725 268 716 257 Q 708 245 696 231 Q 684 216 679 212 Q 674 208 663 197 C 642 176 649 167 674 184 Z" fill="lightgray"></path>
    
      <path d="M 670 143 L 689 118 Q 710 90 724 75 Q 736 60 758 37 Q 780 14 793 4 Q 806 -6 818 -10 Q 827 -12 839 -12 L 848 -12 Q 866 -12 881 -10 Q 896 -8 919 -3 Q 942 2 950 4 L 973 9 Q 980 10 981 16 Q 981 22 976 23 L 952 28 L 913 38 Q 895 43 870 53 Q 844 63 820 76 Q 795 88 769 105 Q 742 122 724 137 Q 706 152 694 164 Q 682 175 674 184 C 653 206 624 204 670 143 Z" fill="lightgray"></path>
    
    
      <clipPath id="make-me-a-hanzi-clip-0">
        <path d="M 266 459 L 326 512 Q 345 529 366 542 L 398 561 Q 410 568 411 574 L 411 576 Q 411 581 406 587 Q 400 594 388 602 L 368 615 Q 359 620 350 624 Q 343 626 335 626 L 330 626 Q 324 626 311 621 Q 298 616 289 614 L 264 606 Q 247 602 242 601 Q 238 600 204 593 Q 170 586 161 585 L 142 584 L 113 581 Q 105 580 103 577 Q 102 576 102 575 Q 102 572 106 568 Q 112 560 124 554 Q 136 546 144 546 L 148 546 Q 154 546 161 548 L 184 558 L 218 568 L 270 582 Q 292 588 302 589 Q 310 589 313 586 Q 316 583 316 578 L 316 576 Q 316 570 310 560 L 297 540 L 246 470 C 228 446 244 439 266 459 Z"></path>
      </clipPath>
      <path clip-path="url(#make-me-a-hanzi-clip-0)" d="M 108 574 L 152 565 L 298 603 L 323 604 L 339 598 L 353 581 L 345 564 L 265 474 L 254 473" fill="none" id="make-me-a-hanzi-animation-0" stroke-dasharray="538 1076" stroke-linecap="round"></path>
    
      <clipPath id="make-me-a-hanzi-clip-1">
        <path d="M 288 393 L 289 414 L 289 418 Q 289 428 285 437 Q 280 448 276 452 Q 272 455 266 459 L 246 470 L 211 482 Q 204 484 193 486 L 177 489 L 175 489 Q 172 489 170 487 L 170 486 Q 170 483 174 478 L 186 464 Q 193 454 207 438 Q 221 422 231 412 Q 241 403 249 398 Q 257 392 268 388 C 287 380 287 380 288 393 Z"></path>
      </clipPath>
      <path clip-path="url(#make-me-a-hanzi-clip-1)" d="M 173 487 L 248 436 L 281 399" fill="none" id="make-me-a-hanzi-animation-1" stroke-dasharray="268 536" stroke-linecap="round"></path>
    
      <clipPath id="make-me-a-hanzi-clip-2">
        <path d="M 268 388 L 234 380 Q 231 380 200 374 Q 168 368 130 362 Q 92 355 78 353 L 58 350 Q 47 348 45 344 L 45 342 Q 45 340 47 336 Q 50 330 58 326 Q 70 319 80 319 L 84 319 L 102 325 L 204 344 L 248 355 L 308 364 Q 334 366 346 366 Q 355 366 355 365 L 355 362 Q 355 355 348 338 Q 340 316 334 304 L 325 287 Q 321 279 321 276 L 321 274 L 322 274 Q 324 274 332 279 L 348 292 L 373 309 Q 386 318 400 326 Q 415 334 429 340 Q 442 346 444 351 Q 445 352 445 354 Q 445 359 441 366 Q 436 374 428 380 Q 420 386 406 394 Q 392 402 383 408 Q 374 412 362 412 Q 356 412 342 408 L 320 400 Q 310 398 288 393 L 268 388 Z"></path>
      </clipPath>
      <path clip-path="url(#make-me-a-hanzi-clip-2)" d="M 53 343 L 85 337 L 365 387 L 385 372 L 389 359 L 322 275" fill="none" id="make-me-a-hanzi-animation-2" stroke-dasharray="591 1182" stroke-linecap="round"></path>
    
      <clipPath id="make-me-a-hanzi-clip-3">
        <path d="M 204 344 L 211 328 Q 214 319 216 304 Q 218 290 220 267 L 220 64 Q 220 44 218 20 Q 216 -4 211 -11 Q 206 -18 201 -20 L 198 -20 Q 192 -20 180 -14 L 158 -4 L 142 2 L 132 6 Q 127 8 124 8 Q 121 8 120 6 Q 119 5 119 4 Q 119 1 123 -2 L 130 -10 Q 134 -14 146 -27 L 179 -64 L 198 -88 Q 210 -105 216 -105 Q 222 -104 232 -94 Q 243 -82 250 -72 Q 256 -61 260 -48 Q 264 -34 266 -15 Q 268 4 268 17 L 266 228 Q 266 257 268 278 Q 271 298 275 311 Q 278 321 278 327 Q 278 329 277 331 Q 276 336 266 342 Q 256 348 248 355 C 224 373 192 371 204 344 Z"></path>
      </clipPath>
      <path clip-path="url(#make-me-a-hanzi-clip-3)" d="M 212 343 L 245 319 L 241 -7 L 231 -36 L 218 -53 L 181 -37 L 124 3" fill="none" id="make-me-a-hanzi-animation-3" stroke-dasharray="657 1314" stroke-linecap="round"></path>
    
      <clipPath id="make-me-a-hanzi-clip-4">
        <path d="M 555 616 L 580 649 L 599 673 L 608 678 Q 615 684 616 689 Q 616 694 608 700 Q 601 707 588 713 Q 576 720 565 722 Q 558 725 553 725 Q 551 725 549 724 Q 546 723 543 720 Q 540 718 540 705 Q 540 692 532 675 Q 525 658 517 642 Q 509 626 494 602 Q 480 578 458 551 L 437 524 L 429 514 Q 427 511 427 508 Q 427 506 428 505 Q 429 503 431 503 Q 434 503 439 507 L 454 517 L 480 536 L 505 561 L 536 593 L 555 616 Z"></path>
      </clipPath>
      <path clip-path="url(#make-me-a-hanzi-clip-4)" d="M 604 689 L 570 686 L 499 577 L 432 508" fill="none" id="make-me-a-hanzi-animation-4" stroke-dasharray="388 776" stroke-linecap="round"></path>
    
      <clipPath id="make-me-a-hanzi-clip-5">
        <path d="M 618 495 L 699 575 L 722 594 L 740 612 L 756 621 Q 764 626 764 631 Q 764 634 759 641 Q 754 648 740 655 Q 725 662 715 664 Q 706 666 700 666 Q 695 664 682 658 Q 668 651 637 640 Q 606 630 601 628 Q 596 626 582 623 Q 568 620 555 616 C 526 608 506 598 536 593 L 553 590 Q 558 589 562 589 Q 567 589 572 590 Q 581 591 588 593 L 644 608 Q 651 610 655 610 Q 659 610 660 608 L 660 607 Q 660 602 650 589 L 577 487 C 560 463 597 474 618 495 Z"></path>
      </clipPath>
      <path clip-path="url(#make-me-a-hanzi-clip-5)" d="M 541 598 L 650 627 L 696 622 L 669 575 L 609 506 L 583 492" fill="none" id="make-me-a-hanzi-animation-5" stroke-dasharray="462 924" stroke-linecap="round"></path>
    
      <clipPath id="make-me-a-hanzi-clip-6">
        <path d="M 474 475 L 462 479 L 452 482 Q 444 484 440 484 Q 429 483 428 478 L 428 477 Q 428 472 436 462 Q 444 451 448 437 Q 452 422 452 421 L 466 350 Q 468 339 476 332 Q 483 326 487 326 L 488 326 Q 492 327 496 332 Q 498 337 502 343 C 504 346 504 346 500 371 L 488 448 C 484 472 484 472 474 475 Z"></path>
      </clipPath>
      <path clip-path="url(#make-me-a-hanzi-clip-6)" d="M 436 478 L 461 459 L 467 446 L 488 335" fill="none" id="make-me-a-hanzi-animation-6" stroke-dasharray="287 574" stroke-linecap="round"></path>
    
      <clipPath id="make-me-a-hanzi-clip-7">
        <path d="M 738 366 L 748 354 L 753 347 Q 756 344 763 344 L 766 344 Q 774 346 781 354 L 790 374 L 818 427 Q 822 434 829 445 Q 836 457 845 465 Q 854 474 854 476 L 854 477 Q 854 483 846 492 Q 836 502 828 507 Q 820 512 806 518 Q 794 523 780 526 Q 770 529 762 529 L 759 529 Q 754 528 741 523 Q 728 518 720 516 L 688 509 L 658 501 L 618 495 L 577 487 L 536 481 Q 524 479 474 475 C 444 473 458 444 488 448 L 590 462 L 636 468 L 704 481 Q 725 485 737 485 Q 742 485 745 484 Q 757 483 762 479 Q 766 476 767 470 L 767 468 Q 767 463 764 454 L 760 438 L 745 388 C 738 366 738 366 738 366 Z"></path>
      </clipPath>
      <path clip-path="url(#make-me-a-hanzi-clip-7)" d="M 486 472 L 495 463 L 508 464 L 743 504 L 780 499 L 805 477 L 765 376 L 765 358" fill="none" id="make-me-a-hanzi-animation-7" stroke-dasharray="589 1178" stroke-linecap="round"></path>
    
      <clipPath id="make-me-a-hanzi-clip-8">
        <path d="M 636 389 L 638 411 L 639 428 Q 640 436 640 439 L 647 456 Q 646 460 636 468 C 613 487 583 491 590 462 L 594 445 Q 597 433 597 401 L 597 384 C 597 354 633 359 636 389 Z"></path>
      </clipPath>
      <path clip-path="url(#make-me-a-hanzi-clip-8)" d="M 639 454 L 630 454 L 617 443 L 617 408 L 603 388" fill="none" id="make-me-a-hanzi-animation-8" stroke-dasharray="213 426" stroke-linecap="round"></path>
    
      <clipPath id="make-me-a-hanzi-clip-9">
        <path d="M 614 354 L 738 366 C 768 369 772 376 745 388 L 727 396 Q 722 399 715 399 Q 711 399 706 398 L 674 393 L 636 389 L 597 384 L 500 371 C 470 367 472 340 502 343 L 566 349 L 614 354 Z"></path>
      </clipPath>
      <path clip-path="url(#make-me-a-hanzi-clip-9)" d="M 508 350 L 515 359 L 738 384" fill="none" id="make-me-a-hanzi-animation-9" stroke-dasharray="364 728" stroke-linecap="round"></path>
    
      <clipPath id="make-me-a-hanzi-clip-10">
        <path d="M 561 280 L 580 292 L 598 304 Q 611 313 620 315 Q 628 318 631 320 Q 633 322 633 325 Q 633 328 631 331 Q 628 338 625 342 Q 622 346 614 354 C 593 376 584 373 566 349 L 559 340 Q 554 332 543 320 Q 532 308 508 288 L 466 254 Q 447 242 421 224 Q 396 208 388 204 L 375 197 Q 371 195 371 191 L 371 190 Q 372 188 376 188 Q 379 188 384 189 L 394 191 Q 402 192 424 201 Q 444 210 466 221 Q 488 232 508 244 Q 528 256 546 269 L 561 280 Z"></path>
      </clipPath>
      <path clip-path="url(#make-me-a-hanzi-clip-10)" d="M 625 326 L 606 332 L 580 324 L 480 245 L 412 204 L 374 191" fill="none" id="make-me-a-hanzi-animation-10" stroke-dasharray="422 844" stroke-linecap="round"></path>
    
      <clipPath id="make-me-a-hanzi-clip-11">
        <path d="M 663 197 L 646 215 L 618 240 Q 599 257 594 260 Q 590 264 582 268 Q 574 272 561 280 C 535 295 526 292 546 269 L 566 246 L 603 206 L 616 165 L 623 104 L 625 74 L 625 68 Q 625 58 623 33 Q 620 0 617 -16 Q 613 -32 608 -48 Q 602 -64 597 -70 Q 591 -75 584 -76 L 582 -76 Q 575 -76 552 -70 L 506 -57 Q 504 -56 502 -56 Q 497 -56 496 -60 L 496 -62 Q 496 -66 504 -74 L 516 -84 L 539 -106 L 570 -139 Q 577 -148 584 -154 Q 592 -160 597 -161 L 599 -161 Q 605 -161 614 -155 Q 624 -147 636 -133 Q 647 -118 656 -98 Q 666 -78 673 -50 Q 680 -22 682 23 L 682 43 Q 682 62 681 77 Q 679 100 676 114 L 670 143 C 664 172 668 191 663 197 Z"></path>
      </clipPath>
      <path clip-path="url(#make-me-a-hanzi-clip-11)" d="M 554 266 L 563 267 L 589 245 L 620 214 L 638 185 L 653 81 L 651 0 L 638 -60 L 624 -90 L 601 -113 L 501 -61" fill="none" id="make-me-a-hanzi-animation-11" stroke-dasharray="675 1350" stroke-linecap="round"></path>
    
      <clipPath id="make-me-a-hanzi-clip-12">
        <path d="M 566 246 L 550 225 Q 540 212 517 190 Q 494 168 468 148 Q 443 128 419 112 L 382 88 Q 372 82 368 80 L 358 74 Q 353 71 353 67 L 353 66 Q 354 63 358 63 Q 361 63 364 64 L 374 66 L 395 73 Q 410 78 438 90 Q 465 102 490 118 Q 516 132 534 147 L 570 178 Q 590 194 603 206 C 625 226 584 270 566 246 Z"></path>
      </clipPath>
      <path clip-path="url(#make-me-a-hanzi-clip-12)" d="M 567 237 L 566 206 L 526 168 L 451 113 L 357 67" fill="none" id="make-me-a-hanzi-animation-12" stroke-dasharray="412 824" stroke-linecap="round"></path>
    
      <clipPath id="make-me-a-hanzi-clip-13">
        <path d="M 616 165 L 602 149 Q 599 145 582 126 Q 565 108 540 87 Q 514 66 474 37 Q 434 8 418 -2 L 365 -30 Q 353 -37 348 -39 L 336 -44 Q 332 -46 332 -50 L 332 -53 Q 332 -57 337 -57 L 341 -57 L 360 -53 Q 366 -52 389 -44 Q 411 -38 438 -26 Q 464 -14 486 -1 Q 508 12 553 43 Q 598 74 608 86 Q 618 97 623 104 C 642 128 636 188 616 165 Z"></path>
      </clipPath>
      <path clip-path="url(#make-me-a-hanzi-clip-13)" d="M 617 157 L 600 111 L 521 45 L 426 -16 L 337 -51" fill="none" id="make-me-a-hanzi-animation-13" stroke-dasharray="489 978" stroke-linecap="round"></path>
    
      <clipPath id="make-me-a-hanzi-clip-14">
        <path d="M 674 184 L 689 194 Q 690 194 714 208 L 762 240 Q 784 257 792 261 Q 800 264 807 267 L 819 272 Q 824 274 826 280 Q 827 282 827 283 Q 827 288 822 294 Q 816 302 800 312 L 777 325 Q 770 329 762 329 Q 756 328 754 326 Q 752 324 751 318 Q 750 311 747 304 Q 744 298 734 283 Q 725 268 716 257 Q 708 245 696 231 Q 684 216 679 212 Q 674 208 663 197 C 642 176 649 167 674 184 Z"></path>
      </clipPath>
      <path clip-path="url(#make-me-a-hanzi-clip-14)" d="M 816 285 L 776 289 L 699 212 L 676 197 L 675 190" fill="none" id="make-me-a-hanzi-animation-14" stroke-dasharray="312 624" stroke-linecap="round"></path>
    
      <clipPath id="make-me-a-hanzi-clip-15">
        <path d="M 670 143 L 689 118 Q 710 90 724 75 Q 736 60 758 37 Q 780 14 793 4 Q 806 -6 818 -10 Q 827 -12 839 -12 L 848 -12 Q 866 -12 881 -10 Q 896 -8 919 -3 Q 942 2 950 4 L 973 9 Q 980 10 981 16 Q 981 22 976 23 L 952 28 L 913 38 Q 895 43 870 53 Q 844 63 820 76 Q 795 88 769 105 Q 742 122 724 137 Q 706 152 694 164 Q 682 175 674 184 C 653 206 624 204 670 143 Z"></path>
      </clipPath>
      <path clip-path="url(#make-me-a-hanzi-clip-15)" d="M 669 186 L 687 146 L 709 123 L 814 36 L 873 19 L 974 16" fill="none" id="make-me-a-hanzi-animation-15" stroke-dasharray="502 1004" stroke-linecap="round"></path>
    
  </g>
</svg>