<svg version="1.1" viewBox="0 0 1024 1024" xmlns="http://www.w3.org/2000/svg">
  <g stroke="lightgray" stroke-dasharray="1,1" stroke-width="1" transform="scale(4, 4)">
    <line x1="0" y1="0" x2="256" y2="256"></line>
    <line x1="256" y1="0" x2="0" y2="256"></line>
    <line x1="128" y1="0" x2="128" y2="256"></line>
    <line x1="0" y1="128" x2="256" y2="128"></line>
  </g>
  <g transform="scale(0.92, -0.92) translate(60, -830)">
    <style type="text/css">
      
        @keyframes keyframes0 {
          from {
            stroke: blue;
            stroke-dashoffset: 820;
            stroke-width: 128;
          }
          73% {
            animation-timing-function: step-end;
            stroke: blue;
            stroke-dashoffset: 0;
            stroke-width: 128;
          }
          to {
            stroke: black;
            stroke-width: 1024;
          }
        }
        #make-me-a-hanzi-animation-0 {
          animation: keyframes0 0.9173177083333334s both;
          animation-delay: 0s;
          animation-timing-function: linear;
        }
      
        @keyframes keyframes1 {
          from {
            stroke: blue;
            stroke-dashoffset: 732;
            stroke-width: 128;
          }
          70% {
            animation-timing-function: step-end;
            stroke: blue;
            stroke-dashoffset: 0;
            stroke-width: 128;
          }
          to {
            stroke: black;
            stroke-width: 1024;
          }
        }
        #make-me-a-hanzi-animation-1 {
          animation: keyframes1 0.845703125s both;
          animation-delay: 0.9173177083333334s;
          animation-timing-function: linear;
        }
      
        @keyframes keyframes2 {
          from {
            stroke: blue;
            stroke-dashoffset: 1241;
            stroke-width: 128;
          }
          80% {
            animation-timing-function: step-end;
            stroke: blue;
            stroke-dashoffset: 0;
            stroke-width: 128;
          }
          to {
            stroke: black;
            stroke-width: 1024;
          }
        }
        #make-me-a-hanzi-animation-2 {
          animation: keyframes2 1.2599283854166667s both;
          animation-delay: 1.7630208333333335s;
          animation-timing-function: linear;
        }
      
        @keyframes keyframes3 {
          from {
            stroke: blue;
            stroke-dashoffset: 777;
            stroke-width: 128;
          }
          72% {
            animation-timing-function: step-end;
            stroke: blue;
            stroke-dashoffset: 0;
            stroke-width: 128;
          }
          to {
            stroke: black;
            stroke-width: 1024;
          }
        }
        #make-me-a-hanzi-animation-3 {
          animation: keyframes3 0.88232421875s both;
          animation-delay: 3.02294921875s;
          animation-timing-function: linear;
        }
      
        @keyframes keyframes4 {
          from {
            stroke: blue;
            stroke-dashoffset: 664;
            stroke-width: 128;
          }
          68% {
            animation-timing-function: step-end;
            stroke: blue;
            stroke-dashoffset: 0;
            stroke-width: 128;
          }
          to {
            stroke: black;
            stroke-width: 1024;
          }
        }
        #make-me-a-hanzi-animation-4 {
          animation: keyframes4 0.7903645833333334s both;
          animation-delay: 3.9052734375s;
          animation-timing-function: linear;
        }
      
        @keyframes keyframes5 {
          from {
            stroke: blue;
            stroke-dashoffset: 577;
            stroke-width: 128;
          }
          65% {
            animation-timing-function: step-end;
            stroke: blue;
            stroke-dashoffset: 0;
            stroke-width: 128;
          }
          to {
            stroke: black;
            stroke-width: 1024;
          }
        }
        #make-me-a-hanzi-animation-5 {
          animation: keyframes5 0.7195638020833334s both;
          animation-delay: 4.695638020833333s;
          animation-timing-function: linear;
        }
      
        @keyframes keyframes6 {
          from {
            stroke: blue;
            stroke-dashoffset: 867;
            stroke-width: 128;
          }
          74% {
            animation-timing-function: step-end;
            stroke: blue;
            stroke-dashoffset: 0;
            stroke-width: 128;
          }
          to {
            stroke: black;
            stroke-width: 1024;
          }
        }
        #make-me-a-hanzi-animation-6 {
          animation: keyframes6 0.95556640625s both;
          animation-delay: 5.415201822916666s;
          animation-timing-function: linear;
        }
      
        @keyframes keyframes7 {
          from {
            stroke: blue;
            stroke-dashoffset: 535;
            stroke-width: 128;
          }
          64% {
            animation-timing-function: step-end;
            stroke: blue;
            stroke-dashoffset: 0;
            stroke-width: 128;
          }
          to {
            stroke: black;
            stroke-width: 1024;
          }
        }
        #make-me-a-hanzi-animation-7 {
          animation: keyframes7 0.6853841145833334s both;
          animation-delay: 6.370768229166666s;
          animation-timing-function: linear;
        }
      
        @keyframes keyframes8 {
          from {
            stroke: blue;
            stroke-dashoffset: 541;
            stroke-width: 128;
          }
          64% {
            animation-timing-function: step-end;
            stroke: blue;
            stroke-dashoffset: 0;
            stroke-width: 128;
          }
          to {
            stroke: black;
            stroke-width: 1024;
          }
        }
        #make-me-a-hanzi-animation-8 {
          animation: keyframes8 0.6902669270833334s both;
          animation-delay: 7.056152343749999s;
          animation-timing-function: linear;
        }
      
        @keyframes keyframes9 {
          from {
            stroke: blue;
            stroke-dashoffset: 545;
            stroke-width: 128;
          }
          64% {
            animation-timing-function: step-end;
            stroke: blue;
            stroke-dashoffset: 0;
            stroke-width: 128;
          }
          to {
            stroke: black;
            stroke-width: 1024;
          }
        }
        #make-me-a-hanzi-animation-9 {
          animation: keyframes9 0.6935221354166666s both;
          animation-delay: 7.746419270833332s;
          animation-timing-function: linear;
        }
      
        @keyframes keyframes10 {
          from {
            stroke: blue;
            stroke-dashoffset: 555;
            stroke-width: 128;
          }
          64% {
            animation-timing-function: step-end;
            stroke: blue;
            stroke-dashoffset: 0;
            stroke-width: 128;
          }
          to {
            stroke: black;
            stroke-width: 1024;
          }
        }
        #make-me-a-hanzi-animation-10 {
          animation: keyframes10 0.70166015625s both;
          animation-delay: 8.439941406249998s;
          animation-timing-function: linear;
        }
      
        @keyframes keyframes11 {
          from {
            stroke: blue;
            stroke-dashoffset: 477;
            stroke-width: 128;
          }
          61% {
            animation-timing-function: step-end;
            stroke: blue;
            stroke-dashoffset: 0;
            stroke-width: 128;
          }
          to {
            stroke: black;
            stroke-width: 1024;
          }
        }
        #make-me-a-hanzi-animation-11 {
          animation: keyframes11 0.63818359375s both;
          animation-delay: 9.141601562499998s;
          animation-timing-function: linear;
        }
      
    </style>
    
      <path d="M 706 571 L 729 600 Q 734 607 745 616 L 757 625 Q 763 630 765 633 Q 765 638 762 644 Q 758 651 744 662 Q 729 674 715 682 Q 701 690 691 690 Q 685 690 669 686 Q 653 682 633 679 Q 613 676 610 676 L 570 672 L 521 666 L 409 658 L 359 652 L 321 647 Q 285 642 257 642 L 235 640 Q 229 640 227 636 L 227 634 Q 227 631 231 626 Q 236 620 241 616 Q 245 612 251 608 Q 257 606 262 605 Q 267 605 304 611 L 361 620 L 409 626 L 523 636 L 568 640 L 642 644 Q 650 645 655 645 Q 661 645 665 644 Q 673 644 675 642 Q 677 640 679 635 Q 679 631 677 622 L 666 586 C 657 557 687 547 706 571 Z" fill="lightgray"></path>
    
      <path d="M 565 538 L 606 540 L 666 543 L 699 544 Q 713 545 717 550 Q 718 551 718 553 Q 718 557 713 562 L 706 571 C 692 589 692 589 666 586 L 565 574 L 521 568 L 403 555 L 357 551 L 233 540 C 203 537 211 506 241 508 L 353 516 L 401 522 L 520 533 L 565 538 Z" fill="lightgray"></path>
    
      <path d="M 373 423 L 510 436 L 565 440 L 738 450 Q 760 450 767 448 Q 774 446 777 441 Q 780 437 780 430 L 780 427 Q 779 418 773 396 Q 766 374 761 362 Q 755 350 748 348 Q 746 347 744 347 Q 739 347 731 351 Q 719 356 715 359 L 701 366 Q 696 369 693 369 Q 692 369 691 368 Q 690 367 690 366 Q 690 362 695 355 L 702 346 L 721 315 Q 733 294 738 282 Q 743 270 748 268 L 750 268 Q 755 268 769 277 Q 785 288 796 304 Q 807 320 812 337 Q 817 354 823 379 Q 829 404 833 412 Q 837 421 842 427 L 855 442 Q 860 447 861 451 Q 861 457 852 465 Q 843 474 829 480 Q 816 488 804 492 Q 791 496 785 496 Q 779 495 763 491 Q 748 487 741 486 Q 733 484 704 482 Q 675 479 673 479 L 563 471 L 515 468 L 386 456 L 339 451 L 292 443 Q 265 438 264 438 L 240 436 L 236 436 Q 231 436 229 438 Q 227 440 227 445 Q 227 450 229 457 L 241 508 C 247 535 247 535 233 540 L 219 546 Q 217 546 207 549 Q 199 552 196 552 L 194 552 Q 188 550 187 546 L 187 544 Q 187 540 190 534 Q 193 528 196 520 Q 198 512 199 503 Q 199 501 196 479 Q 194 458 191 448 Q 189 440 176 430 Q 164 420 163 417 Q 163 413 165 406 Q 167 400 175 390 Q 183 380 189 379 L 192 379 Q 197 379 207 382 Q 220 388 226 390 Q 231 392 239 394 L 319 414 L 373 423 Z" fill="lightgray"></path>
    
      <path d="M 319 414 L 309 394 Q 303 384 283 363 Q 263 342 247 330 L 227 315 L 215 306 Q 205 299 205 295 L 205 294 Q 205 293 207 293 Q 210 293 217 295 L 235 301 Q 239 302 269 318 Q 297 334 317 349 Q 337 365 350 385 Q 363 405 373 423 L 386 456 L 393 486 Q 395 492 401 522 L 403 555 L 409 626 L 409 658 L 411 666 Q 411 668 415 681 Q 419 694 421 698 Q 423 703 423 706 Q 423 712 415 718 Q 407 724 398 728 Q 389 732 367 738 Q 362 739 358 739 Q 353 739 349 737 Q 343 734 343 731 Q 343 728 348 719 Q 353 711 354 708 Q 355 704 357 687 L 359 670 L 359 652 L 361 620 L 357 551 L 353 516 L 347 483 Q 346 478 339 451 L 319 414 Z" fill="lightgray"></path>
    
      <path d="M 510 436 L 510 428 Q 510 426 508 415 Q 506 407 506 402 L 506 399 Q 506 389 510 378 Q 515 368 521 358 Q 530 346 535 346 L 536 346 Q 541 346 546 351 Q 550 356 555 366 Q 561 377 563 386 Q 565 396 565 410 L 565 440 L 563 471 L 565 538 L 565 574 L 568 640 L 570 672 L 573 688 Q 573 694 575 700 Q 577 706 580 714 Q 583 722 583 727 L 583 730 Q 583 736 573 742 Q 563 748 548 753 Q 533 758 523 758 Q 514 758 511 755 Q 509 752 509 748 Q 510 744 515 734 Q 520 724 521 714 Q 523 703 523 690 L 521 666 L 523 636 L 521 568 L 520 533 L 515 468 L 510 436 Z" fill="lightgray"></path>
    
      <path d="M 332 313 L 317 318 Q 311 319 303 321 L 297 321 Q 292 321 288 320 Q 281 318 280 313 L 280 311 Q 280 306 283 297 Q 288 286 289 282 Q 291 278 292 258 Q 293 245 293 236 L 293 228 L 287 125 L 284 97 Q 281 78 278 67 Q 275 56 275 53 L 275 43 Q 275 36 281 25 L 289 11 Q 295 -3 301 -5 Q 304 -6 306 -6 Q 308 -6 310 -5 Q 314 -3 315 2 L 321 22 L 325 60 L 327 118 L 329 145 L 332 202 L 333 227 L 337 286 C 339 311 339 311 332 313 Z" fill="lightgray"></path>
    
      <path d="M 615 44 L 629 14 Q 632 6 642 4 L 645 4 Q 651 4 658 10 Q 667 18 671 29 Q 676 40 679 53 Q 681 68 681 85 L 679 129 L 681 228 Q 681 248 682 261 Q 683 274 685 280 Q 687 286 693 295 Q 698 305 698 311 Q 697 318 689 325 Q 680 332 663 341 Q 645 350 631 354 Q 617 358 609 358 L 589 352 L 567 348 L 557 344 Q 549 342 532 340 Q 515 339 483 334 L 332 313 C 302 309 307 284 337 286 L 365 288 L 465 303 L 531 310 Q 564 314 577 315 L 584 315 Q 591 315 596 314 Q 603 311 606 308 Q 609 304 612 293 Q 615 282 615 274 L 615 252 L 617 228 L 619 170 L 619 140 L 619 121 Q 619 115 617 104 Q 616 93 615 76 L 615 44 Z" fill="lightgray"></path>
    
      <path d="M 332 202 L 341 201 Q 352 199 359 198 Q 367 198 387 201 L 617 228 C 647 231 643 242 615 252 L 601 257 Q 586 262 573 262 Q 563 262 546 259 L 503 250 Q 471 244 432 240 L 333 227 C 303 223 302 205 332 202 Z" fill="lightgray"></path>
    
      <path d="M 619 170 L 607 173 Q 597 176 587 177 L 584 177 Q 571 177 544 171 Q 513 164 487 160 Q 461 156 423 153 L 329 145 C 299 142 297 121 327 118 L 337 117 Q 351 116 361 116 L 619 140 C 649 143 648 163 619 170 Z" fill="lightgray"></path>
    
      <path d="M 385 25 L 407 26 L 615 44 C 645 47 642 64 615 76 L 606 80 Q 593 84 579 85 Q 571 85 547 82 L 515 78 L 465 71 L 325 60 C 295 58 291 21 321 22 L 368 24 L 385 25 Z" fill="lightgray"></path>
    
      <path d="M 368 24 L 365 8 Q 365 4 355 -10 Q 346 -22 336 -33 Q 327 -43 295 -68 Q 263 -94 249 -103 Q 235 -113 215 -124 Q 197 -136 191 -139 L 183 -144 Q 180 -147 180 -150 L 180 -152 Q 181 -154 183 -154 Q 186 -154 189 -153 L 199 -150 Q 209 -148 233 -140 Q 257 -132 281 -120 Q 305 -108 333 -92 Q 361 -76 385 -58 Q 410 -42 419 -37 L 441 -27 Q 447 -23 449 -19 L 449 -17 Q 449 -13 447 -9 Q 443 -3 426 6 Q 409 16 402 19 Q 395 22 385 25 C 369 30 369 30 368 24 Z" fill="lightgray"></path>
    
      <path d="M 550 -14 Q 555 -18 573 -37 L 603 -68 L 639 -108 L 665 -134 Q 680 -148 687 -153 Q 696 -158 703 -158 L 707 -158 Q 714 -156 720 -149 Q 725 -141 725 -124 Q 725 -107 717 -94 Q 709 -80 699 -69 Q 688 -58 671 -48 L 636 -28 L 597 -12 Q 577 -4 567 -1 L 547 6 Q 545 7 543 7 Q 538 7 537 3 Q 536 2 536 0 Q 536 -2 539 -4 L 550 -14 Z" fill="lightgray"></path>
    
    
      <clipPath id="make-me-a-hanzi-clip-0">
        <path d="M 706 571 L 729 600 Q 734 607 745 616 L 757 625 Q 763 630 765 633 Q 765 638 762 644 Q 758 651 744 662 Q 729 674 715 682 Q 701 690 691 690 Q 685 690 669 686 Q 653 682 633 679 Q 613 676 610 676 L 570 672 L 521 666 L 409 658 L 359 652 L 321 647 Q 285 642 257 642 L 235 640 Q 229 640 227 636 L 227 634 Q 227 631 231 626 Q 236 620 241 616 Q 245 612 251 608 Q 257 606 262 605 Q 267 605 304 611 L 361 620 L 409 626 L 523 636 L 568 640 L 642 644 Q 650 645 655 645 Q 661 645 665 644 Q 673 644 675 642 Q 677 640 679 635 Q 679 631 677 622 L 666 586 C 657 557 687 547 706 571 Z"></path>
      </clipPath>
      <path clip-path="url(#make-me-a-hanzi-clip-0)" d="M 233 635 L 256 625 L 291 625 L 405 642 L 681 665 L 697 660 L 715 638 L 698 601 L 675 590" fill="none" id="make-me-a-hanzi-animation-0" stroke-dasharray="692 1384" stroke-linecap="round"></path>
    
      <clipPath id="make-me-a-hanzi-clip-1">
        <path d="M 565 538 L 606 540 L 666 543 L 699 544 Q 713 545 717 550 Q 718 551 718 553 Q 718 557 713 562 L 706 571 C 692 589 692 589 666 586 L 565 574 L 521 568 L 403 555 L 357 551 L 233 540 C 203 537 211 506 241 508 L 353 516 L 401 522 L 520 533 L 565 538 Z"></path>
      </clipPath>
      <path clip-path="url(#make-me-a-hanzi-clip-1)" d="M 241 536 L 250 527 L 289 528 L 661 565 L 710 554" fill="none" id="make-me-a-hanzi-animation-1" stroke-dasharray="604 1208" stroke-linecap="round"></path>
    
      <clipPath id="make-me-a-hanzi-clip-2">
        <path d="M 373 423 L 510 436 L 565 440 L 738 450 Q 760 450 767 448 Q 774 446 777 441 Q 780 437 780 430 L 780 427 Q 779 418 773 396 Q 766 374 761 362 Q 755 350 748 348 Q 746 347 744 347 Q 739 347 731 351 Q 719 356 715 359 L 701 366 Q 696 369 693 369 Q 692 369 691 368 Q 690 367 690 366 Q 690 362 695 355 L 702 346 L 721 315 Q 733 294 738 282 Q 743 270 748 268 L 750 268 Q 755 268 769 277 Q 785 288 796 304 Q 807 320 812 337 Q 817 354 823 379 Q 829 404 833 412 Q 837 421 842 427 L 855 442 Q 860 447 861 451 Q 861 457 852 465 Q 843 474 829 480 Q 816 488 804 492 Q 791 496 785 496 Q 779 495 763 491 Q 748 487 741 486 Q 733 484 704 482 Q 675 479 673 479 L 563 471 L 515 468 L 386 456 L 339 451 L 292 443 Q 265 438 264 438 L 240 436 L 236 436 Q 231 436 229 438 Q 227 440 227 445 Q 227 450 229 457 L 241 508 C 247 535 247 535 233 540 L 219 546 Q 217 546 207 549 Q 199 552 196 552 L 194 552 Q 188 550 187 546 L 187 544 Q 187 540 190 534 Q 193 528 196 520 Q 198 512 199 503 Q 199 501 196 479 Q 194 458 191 448 Q 189 440 176 430 Q 164 420 163 417 Q 163 413 165 406 Q 167 400 175 390 Q 183 380 189 379 L 192 379 Q 197 379 207 382 Q 220 388 226 390 Q 231 392 239 394 L 319 414 L 373 423 Z"></path>
      </clipPath>
      <path clip-path="url(#make-me-a-hanzi-clip-2)" d="M 194 545 L 216 526 L 220 506 L 207 433 L 207 416 L 212 415 L 241 415 L 380 440 L 694 466 L 775 470 L 807 455 L 812 443 L 796 377 L 778 333 L 761 315 L 723 338 L 694 366" fill="none" id="make-me-a-hanzi-animation-2" stroke-dasharray="1113 2226" stroke-linecap="round"></path>
    
      <clipPath id="make-me-a-hanzi-clip-3">
        <path d="M 319 414 L 309 394 Q 303 384 283 363 Q 263 342 247 330 L 227 315 L 215 306 Q 205 299 205 295 L 205 294 Q 205 293 207 293 Q 210 293 217 295 L 235 301 Q 239 302 269 318 Q 297 334 317 349 Q 337 365 350 385 Q 363 405 373 423 L 386 456 L 393 486 Q 395 492 401 522 L 403 555 L 409 626 L 409 658 L 411 666 Q 411 668 415 681 Q 419 694 421 698 Q 423 703 423 706 Q 423 712 415 718 Q 407 724 398 728 Q 389 732 367 738 Q 362 739 358 739 Q 353 739 349 737 Q 343 734 343 731 Q 343 728 348 719 Q 353 711 354 708 Q 355 704 357 687 L 359 670 L 359 652 L 361 620 L 357 551 L 353 516 L 347 483 Q 346 478 339 451 L 319 414 Z"></path>
      </clipPath>
      <path clip-path="url(#make-me-a-hanzi-clip-3)" d="M 352 728 L 369 719 L 387 696 L 377 518 L 364 458 L 318 374 L 256 321 L 207 295" fill="none" id="make-me-a-hanzi-animation-3" stroke-dasharray="649 1298" stroke-linecap="round"></path>
    
      <clipPath id="make-me-a-hanzi-clip-4">
        <path d="M 510 436 L 510 428 Q 510 426 508 415 Q 506 407 506 402 L 506 399 Q 506 389 510 378 Q 515 368 521 358 Q 530 346 535 346 L 536 346 Q 541 346 546 351 Q 550 356 555 366 Q 561 377 563 386 Q 565 396 565 410 L 565 440 L 563 471 L 565 538 L 565 574 L 568 640 L 570 672 L 573 688 Q 573 694 575 700 Q 577 706 580 714 Q 583 722 583 727 L 583 730 Q 583 736 573 742 Q 563 748 548 753 Q 533 758 523 758 Q 514 758 511 755 Q 509 752 509 748 Q 510 744 515 734 Q 520 724 521 714 Q 523 703 523 690 L 521 666 L 523 636 L 521 568 L 520 533 L 515 468 L 510 436 Z"></path>
      </clipPath>
      <path clip-path="url(#make-me-a-hanzi-clip-4)" d="M 519 749 L 551 717 L 536 355" fill="none" id="make-me-a-hanzi-animation-4" stroke-dasharray="536 1072" stroke-linecap="round"></path>
    
      <clipPath id="make-me-a-hanzi-clip-5">
        <path d="M 332 313 L 317 318 Q 311 319 303 321 L 297 321 Q 292 321 288 320 Q 281 318 280 313 L 280 311 Q 280 306 283 297 Q 288 286 289 282 Q 291 278 292 258 Q 293 245 293 236 L 293 228 L 287 125 L 284 97 Q 281 78 278 67 Q 275 56 275 53 L 275 43 Q 275 36 281 25 L 289 11 Q 295 -3 301 -5 Q 304 -6 306 -6 Q 308 -6 310 -5 Q 314 -3 315 2 L 321 22 L 325 60 L 327 118 L 329 145 L 332 202 L 333 227 L 337 286 C 339 311 339 311 332 313 Z"></path>
      </clipPath>
      <path clip-path="url(#make-me-a-hanzi-clip-5)" d="M 288 312 L 311 293 L 314 280 L 310 153 L 299 48 L 306 3" fill="none" id="make-me-a-hanzi-animation-5" stroke-dasharray="449 898" stroke-linecap="round"></path>
    
      <clipPath id="make-me-a-hanzi-clip-6">
        <path d="M 615 44 L 629 14 Q 632 6 642 4 L 645 4 Q 651 4 658 10 Q 667 18 671 29 Q 676 40 679 53 Q 681 68 681 85 L 679 129 L 681 228 Q 681 248 682 261 Q 683 274 685 280 Q 687 286 693 295 Q 698 305 698 311 Q 697 318 689 325 Q 680 332 663 341 Q 645 350 631 354 Q 617 358 609 358 L 589 352 L 567 348 L 557 344 Q 549 342 532 340 Q 515 339 483 334 L 332 313 C 302 309 307 284 337 286 L 365 288 L 465 303 L 531 310 Q 564 314 577 315 L 584 315 Q 591 315 596 314 Q 603 311 606 308 Q 609 304 612 293 Q 615 282 615 274 L 615 252 L 617 228 L 619 170 L 619 140 L 619 121 Q 619 115 617 104 Q 616 93 615 76 L 615 44 Z"></path>
      </clipPath>
      <path clip-path="url(#make-me-a-hanzi-clip-6)" d="M 340 308 L 349 301 L 600 334 L 619 331 L 643 313 L 651 303 L 644 19" fill="none" id="make-me-a-hanzi-animation-6" stroke-dasharray="739 1478" stroke-linecap="round"></path>
    
      <clipPath id="make-me-a-hanzi-clip-7">
        <path d="M 332 202 L 341 201 Q 352 199 359 198 Q 367 198 387 201 L 617 228 C 647 231 643 242 615 252 L 601 257 Q 586 262 573 262 Q 563 262 546 259 L 503 250 Q 471 244 432 240 L 333 227 C 303 223 302 205 332 202 Z"></path>
      </clipPath>
      <path clip-path="url(#make-me-a-hanzi-clip-7)" d="M 337 208 L 347 214 L 556 241 L 601 242 L 609 233" fill="none" id="make-me-a-hanzi-animation-7" stroke-dasharray="407 814" stroke-linecap="round"></path>
    
      <clipPath id="make-me-a-hanzi-clip-8">
        <path d="M 619 170 L 607 173 Q 597 176 587 177 L 584 177 Q 571 177 544 171 Q 513 164 487 160 Q 461 156 423 153 L 329 145 C 299 142 297 121 327 118 L 337 117 Q 351 116 361 116 L 619 140 C 649 143 648 163 619 170 Z"></path>
      </clipPath>
      <path clip-path="url(#make-me-a-hanzi-clip-8)" d="M 333 124 L 343 131 L 489 143 L 556 155 L 601 156 L 611 148" fill="none" id="make-me-a-hanzi-animation-8" stroke-dasharray="413 826" stroke-linecap="round"></path>
    
      <clipPath id="make-me-a-hanzi-clip-9">
        <path d="M 385 25 L 407 26 L 615 44 C 645 47 642 64 615 76 L 606 80 Q 593 84 579 85 Q 571 85 547 82 L 515 78 L 465 71 L 325 60 C 295 58 291 21 321 22 L 368 24 L 385 25 Z"></path>
      </clipPath>
      <path clip-path="url(#make-me-a-hanzi-clip-9)" d="M 329 28 L 350 43 L 569 62 L 598 60 L 607 49" fill="none" id="make-me-a-hanzi-animation-9" stroke-dasharray="417 834" stroke-linecap="round"></path>
    
      <clipPath id="make-me-a-hanzi-clip-10">
        <path d="M 368 24 L 365 8 Q 365 4 355 -10 Q 346 -22 336 -33 Q 327 -43 295 -68 Q 263 -94 249 -103 Q 235 -113 215 -124 Q 197 -136 191 -139 L 183 -144 Q 180 -147 180 -150 L 180 -152 Q 181 -154 183 -154 Q 186 -154 189 -153 L 199 -150 Q 209 -148 233 -140 Q 257 -132 281 -120 Q 305 -108 333 -92 Q 361 -76 385 -58 Q 410 -42 419 -37 L 441 -27 Q 447 -23 449 -19 L 449 -17 Q 449 -13 447 -9 Q 443 -3 426 6 Q 409 16 402 19 Q 395 22 385 25 C 369 30 369 30 368 24 Z"></path>
      </clipPath>
      <path clip-path="url(#make-me-a-hanzi-clip-10)" d="M 440 -18 L 393 -14 L 291 -95 L 183 -151" fill="none" id="make-me-a-hanzi-animation-10" stroke-dasharray="427 854" stroke-linecap="round"></path>
    
      <clipPath id="make-me-a-hanzi-clip-11">
        <path d="M 550 -14 Q 555 -18 573 -37 L 603 -68 L 639 -108 L 665 -134 Q 680 -148 687 -153 Q 696 -158 703 -158 L 707 -158 Q 714 -156 720 -149 Q 725 -141 725 -124 Q 725 -107 717 -94 Q 709 -80 699 -69 Q 688 -58 671 -48 L 636 -28 L 597 -12 Q 577 -4 567 -1 L 547 6 Q 545 7 543 7 Q 538 7 537 3 Q 536 2 536 0 Q 536 -2 539 -4 L 550 -14 Z"></path>
      </clipPath>
      <path clip-path="url(#make-me-a-hanzi-clip-11)" d="M 540 0 L 583 -22 L 672 -91 L 705 -141" fill="none" id="make-me-a-hanzi-animation-11" stroke-dasharray="349 698" stroke-linecap="round"></path>
    
  </g>
</svg>