<svg xmlns="http://www.w3.org/2000/svg" version="1.1" viewBox="0 0 1024 1024">
  <g stroke="lightgray" stroke-dasharray="1,1" stroke-width="1" transform="scale(4, 4)">
    <line x1="0" y1="0" x2="256" y2="256" />
    <line x1="256" y1="0" x2="0" y2="256" />
    <line x1="128" y1="0" x2="128" y2="256" />
    <line x1="0" y1="128" x2="256" y2="128" />
  </g>
  <g transform="scale(1.0, -1.0) translate(0.0, -816.50)">
    <style type="text/css">
      
        @keyframes keyframes0 {
          from {
            stroke: blue;
            stroke-dashoffset: 379;
            stroke-width: 128;
          }
          55% {
            animation-timing-function: step-end;
            stroke: blue;
            stroke-dashoffset: 0;
            stroke-width: 128;
          }
          to {
            stroke: black;
            stroke-width: 1024;
          }
        }
        #make-me-a-hanzi-animation-0 {
          animation: keyframes0 0.5584309895833334s both;
          animation-delay: 0s;
          animation-timing-function: linear;
        }
      
        @keyframes keyframes1 {
          from {
            stroke: blue;
            stroke-dashoffset: 532;
            stroke-width: 128;
          }
          63% {
            animation-timing-function: step-end;
            stroke: blue;
            stroke-dashoffset: 0;
            stroke-width: 128;
          }
          to {
            stroke: black;
            stroke-width: 1024;
          }
        }
        #make-me-a-hanzi-animation-1 {
          animation: keyframes1 0.6829427083333334s both;
          animation-delay: 0.5584309895833334s;
          animation-timing-function: linear;
        }
      
        @keyframes keyframes2 {
          from {
            stroke: blue;
            stroke-dashoffset: 498;
            stroke-width: 128;
          }
          62% {
            animation-timing-function: step-end;
            stroke: blue;
            stroke-dashoffset: 0;
            stroke-width: 128;
          }
          to {
            stroke: black;
            stroke-width: 1024;
          }
        }
        #make-me-a-hanzi-animation-2 {
          animation: keyframes2 0.6552734375s both;
          animation-delay: 1.2413736979166667s;
          animation-timing-function: linear;
        }
      
        @keyframes keyframes3 {
          from {
            stroke: blue;
            stroke-dashoffset: 650;
            stroke-width: 128;
          }
          68% {
            animation-timing-function: step-end;
            stroke: blue;
            stroke-dashoffset: 0;
            stroke-width: 128;
          }
          to {
            stroke: black;
            stroke-width: 1024;
          }
        }
        #make-me-a-hanzi-animation-3 {
          animation: keyframes3 0.7789713541666666s both;
          animation-delay: 1.8966471354166667s;
          animation-timing-function: linear;
        }
      
        @keyframes keyframes4 {
          from {
            stroke: blue;
            stroke-dashoffset: 550;
            stroke-width: 128;
          }
          64% {
            animation-timing-function: step-end;
            stroke: blue;
            stroke-dashoffset: 0;
            stroke-width: 128;
          }
          to {
            stroke: black;
            stroke-width: 1024;
          }
        }
        #make-me-a-hanzi-animation-4 {
          animation: keyframes4 0.6975911458333334s both;
          animation-delay: 2.6756184895833335s;
          animation-timing-function: linear;
        }
      
        @keyframes keyframes5 {
          from {
            stroke: blue;
            stroke-dashoffset: 613;
            stroke-width: 128;
          }
          67% {
            animation-timing-function: step-end;
            stroke: blue;
            stroke-dashoffset: 0;
            stroke-width: 128;
          }
          to {
            stroke: black;
            stroke-width: 1024;
          }
        }
        #make-me-a-hanzi-animation-5 {
          animation: keyframes5 0.7488606770833334s both;
          animation-delay: 3.373209635416667s;
          animation-timing-function: linear;
        }
      
        @keyframes keyframes6 {
          from {
            stroke: blue;
            stroke-dashoffset: 600;
            stroke-width: 128;
          }
          66% {
            animation-timing-function: step-end;
            stroke: blue;
            stroke-dashoffset: 0;
            stroke-width: 128;
          }
          to {
            stroke: black;
            stroke-width: 1024;
          }
        }
        #make-me-a-hanzi-animation-6 {
          animation: keyframes6 0.73828125s both;
          animation-delay: 4.1220703125s;
          animation-timing-function: linear;
        }
      
        @keyframes keyframes7 {
          from {
            stroke: blue;
            stroke-dashoffset: 860;
            stroke-width: 128;
          }
          74% {
            animation-timing-function: step-end;
            stroke: blue;
            stroke-dashoffset: 0;
            stroke-width: 128;
          }
          to {
            stroke: black;
            stroke-width: 1024;
          }
        }
        #make-me-a-hanzi-animation-7 {
          animation: keyframes7 0.9498697916666666s both;
          animation-delay: 4.8603515625s;
          animation-timing-function: linear;
        }
      
        @keyframes keyframes8 {
          from {
            stroke: blue;
            stroke-dashoffset: 487;
            stroke-width: 128;
          }
          61% {
            animation-timing-function: step-end;
            stroke: blue;
            stroke-dashoffset: 0;
            stroke-width: 128;
          }
          to {
            stroke: black;
            stroke-width: 1024;
          }
        }
        #make-me-a-hanzi-animation-8 {
          animation: keyframes8 0.6463216145833334s both;
          animation-delay: 5.810221354166667s;
          animation-timing-function: linear;
        }
      
        @keyframes keyframes9 {
          from {
            stroke: blue;
            stroke-dashoffset: 491;
            stroke-width: 128;
          }
          62% {
            animation-timing-function: step-end;
            stroke: blue;
            stroke-dashoffset: 0;
            stroke-width: 128;
          }
          to {
            stroke: black;
            stroke-width: 1024;
          }
        }
        #make-me-a-hanzi-animation-9 {
          animation: keyframes9 0.6495768229166666s both;
          animation-delay: 6.45654296875s;
          animation-timing-function: linear;
        }
      
        @keyframes keyframes10 {
          from {
            stroke: blue;
            stroke-dashoffset: 497;
            stroke-width: 128;
          }
          62% {
            animation-timing-function: step-end;
            stroke: blue;
            stroke-dashoffset: 0;
            stroke-width: 128;
          }
          to {
            stroke: black;
            stroke-width: 1024;
          }
        }
        #make-me-a-hanzi-animation-10 {
          animation: keyframes10 0.6544596354166666s both;
          animation-delay: 7.106119791666667s;
          animation-timing-function: linear;
        }
      
        @keyframes keyframes11 {
          from {
            stroke: blue;
            stroke-dashoffset: 533;
            stroke-width: 128;
          }
          63% {
            animation-timing-function: step-end;
            stroke: blue;
            stroke-dashoffset: 0;
            stroke-width: 128;
          }
          to {
            stroke: black;
            stroke-width: 1024;
          }
        }
        #make-me-a-hanzi-animation-11 {
          animation: keyframes11 0.6837565104166666s both;
          animation-delay: 7.760579427083334s;
          animation-timing-function: linear;
        }
      
        @keyframes keyframes12 {
          from {
            stroke: blue;
            stroke-dashoffset: 451;
            stroke-width: 128;
          }
          59% {
            animation-timing-function: step-end;
            stroke: blue;
            stroke-dashoffset: 0;
            stroke-width: 128;
          }
          to {
            stroke: black;
            stroke-width: 1024;
          }
        }
        #make-me-a-hanzi-animation-12 {
          animation: keyframes12 0.6170247395833334s both;
          animation-delay: 8.4443359375s;
          animation-timing-function: linear;
        }
      
    </style>
    
      <path d="M 236 688 L 206 695 Q 192 698 190 693 Q 187 688 196 678 L 218 649 Q 231 632 238 626 L 266 604 Q 282 596 291 596 Q 300 596 307 607 Q 324 633 304 660 Q 295 677 236 688 Z" fill="lightgray" />
    
      <path d="M 116 402 Q 116 394 122 374 L 131 348 Q 134 341 142 335 Q 151 324 158 325 Q 166 326 175 333 L 187 342 L 213 377 L 260 424 L 283 453 Q 303 474 336 516 L 345 530 Q 354 540 344 544 Q 337 549 327 542 L 313 527 L 228 459 Q 223 454 195 440 Q 167 426 157 424 L 142 419 Q 120 416 116 402 Z" fill="lightgray" />
    
      <path d="M 499 659 L 524 696 L 534 706 Q 541 711 542 714 Q 543 717 539 725 Q 535 733 525 741 Q 503 764 484 764 Q 477 764 475 761 L 469 720 L 457 687 Q 453 672 439 647 L 406 599 Q 394 577 391 574 L 383 562 Q 377 554 378 550 Q 383 545 391 552 L 435 584 Q 441 588 462 609 L 480 632 L 499 659 Z" fill="lightgray" />
    
      <path d="M 606 678 L 499 659 C 469 654 452 642 480 632 L 491 628 Q 504 625 525 630 L 612 649 L 700 665 Q 711 667 719 657 Q 722 653 711 638 L 692 596 L 683 582 Q 678 574 681 570 Q 685 566 697 578 L 709 588 L 723 597 Q 730 603 737 606 Q 744 609 757 619 Q 771 629 786 630 L 803 633 Q 831 642 804 668 Q 764 708 725 708 Q 718 708 699 702 Q 676 692 647 686 Q 618 679 606 678 Z" fill="lightgray" />
    
      <path d="M 574 550 L 592 568 Q 594 579 574 595 Q 554 610 545 612 Q 536 613 534 611 Q 532 609 531 603 L 529 587 Q 528 577 519 561 Q 512 546 494 523 Q 476 500 453 482 Q 431 463 419 455 L 385 432 L 360 418 Q 352 413 353 409 Q 354 407 366 408 L 378 410 Q 407 419 422 425 Q 484 448 528 494 L 558 526 L 574 550 Z" fill="lightgray" />
    
      <path d="M 558 526 L 579 516 Q 586 514 591 510 L 737 410 Q 764 398 779 399 Q 795 400 833 409 Q 871 417 877 419 L 895 424 Q 905 427 904 433 Q 903 439 890 442 L 875 444 Q 874 445 835 450 Q 797 455 744 476 Q 708 487 684 501 L 626 530 Q 611 539 601 541 Q 591 543 574 550 C 546 561 531 539 558 526 Z" fill="lightgray" />
    
      <path d="M 304 110 L 296 70 Q 296 57 304 40 Q 323 -7 336 20 L 341 29 L 345 62 L 350 140 L 352 160 L 354 225 L 354 247 L 356 323 C 357 352 357 352 348 353 L 336 355 L 315 362 Q 296 369 296 354 Q 294 349 301 337 Q 308 324 309 319 L 313 293 Q 314 284 314 262 L 311 157 L 306 132 L 304 110 Z" fill="lightgray" />
    
      <path d="M 581 46 L 598 21 Q 606 8 611 8 Q 616 8 627 19 Q 652 44 652 106 L 652 253 Q 651 290 656 308 L 670 340 Q 671 342 659 354 Q 652 364 638 372 L 617 383 Q 592 394 586 391 Q 577 383 545 378 L 464 365 L 348 353 C 318 350 326 323 356 323 L 374 323 Q 383 323 402 326 L 473 339 L 553 348 Q 571 350 580 342 Q 590 334 591 325 L 595 266 L 595 246 L 595 172 L 594 153 L 595 130 L 592 106 Q 592 87 589 77 C 585 47 578 50 581 46 Z" fill="lightgray" />
    
      <path d="M 527 269 L 516 265 L 354 247 C 324 244 324 230 354 225 L 365 223 Q 375 219 406 225 L 595 246 C 625 249 623 257 595 266 L 583 270 Q 574 272 556 273 Q 539 273 527 269 Z" fill="lightgray" />
    
      <path d="M 432 165 L 352 160 C 322 158 320 145 350 140 L 363 138 Q 369 137 386 137 L 594 153 C 624 155 623 161 595 172 L 582 177 Q 573 180 568 181 L 493 172 L 432 165 Z" fill="lightgray" />
    
      <path d="M 341 29 L 380 31 L 397 33 L 581 46 C 611 48 618 69 589 77 L 574 81 Q 562 84 554 84 L 541 81 L 493 75 L 345 62 C 315 59 311 27 341 29 Z" fill="lightgray" />
    
      <path d="M 380 31 L 378 18 Q 378 13 373 6 L 354 -21 Q 351 -26 276 -90 L 238 -115 Q 225 -126 224 -126 L 214 -133 Q 210 -136 211 -140 Q 212 -144 220 -141 L 259 -128 Q 278 -120 297 -110 Q 316 -100 318 -98 Q 321 -97 327 -93 L 362 -71 Q 374 -63 396 -45 Q 418 -28 429 -23 L 448 -13 Q 455 -9 457 -5 Q 458 -1 454 5 Q 451 11 441 15 L 397 33 C 381 39 381 39 380 31 Z" fill="lightgray" />
    
      <path d="M 548 -12 L 558 -20 L 576 -38 L 638 -106 Q 667 -142 680 -148 Q 688 -155 697 -153 Q 713 -150 712 -126 Q 711 -103 705 -90 Q 699 -78 669 -54 L 652 -44 Q 638 -36 636 -34 L 573 -8 L 555 -2 Q 547 0 546 -4 Q 545 -8 548 -12 Z" fill="lightgray" />
    
    
      <clipPath id="make-me-a-hanzi-clip-0">
        <path d="M 236 688 L 206 695 Q 192 698 190 693 Q 187 688 196 678 L 218 649 Q 231 632 238 626 L 266 604 Q 282 596 291 596 Q 300 596 307 607 Q 324 633 304 660 Q 295 677 236 688 Z" />
      </clipPath>
      <path clip-path="url(#make-me-a-hanzi-clip-0)" d="M 195 690 L 275 641 L 289 615" fill="none" id="make-me-a-hanzi-animation-0" stroke-dasharray="251 502" stroke-linecap="round" />
    
      <clipPath id="make-me-a-hanzi-clip-1">
        <path d="M 116 402 Q 116 394 122 374 L 131 348 Q 134 341 142 335 Q 151 324 158 325 Q 166 326 175 333 L 187 342 L 213 377 L 260 424 L 283 453 Q 303 474 336 516 L 345 530 Q 354 540 344 544 Q 337 549 327 542 L 313 527 L 228 459 Q 223 454 195 440 Q 167 426 157 424 L 142 419 Q 120 416 116 402 Z" />
      </clipPath>
      <path clip-path="url(#make-me-a-hanzi-clip-1)" d="M 158 340 L 164 381 L 246 443 L 338 537" fill="none" id="make-me-a-hanzi-animation-1" stroke-dasharray="404 808" stroke-linecap="round" />
    
      <clipPath id="make-me-a-hanzi-clip-2">
        <path d="M 499 659 L 524 696 L 534 706 Q 541 711 542 714 Q 543 717 539 725 Q 535 733 525 741 Q 503 764 484 764 Q 477 764 475 761 L 469 720 L 457 687 Q 453 672 439 647 L 406 599 Q 394 577 391 574 L 383 562 Q 377 554 378 550 Q 383 545 391 552 L 435 584 Q 441 588 462 609 L 480 632 L 499 659 Z" />
      </clipPath>
      <path clip-path="url(#make-me-a-hanzi-clip-2)" d="M 483 753 L 501 719 L 482 679 L 451 627 L 384 555" fill="none" id="make-me-a-hanzi-animation-2" stroke-dasharray="370 740" stroke-linecap="round" />
    
      <clipPath id="make-me-a-hanzi-clip-3">
        <path d="M 606 678 L 499 659 C 469 654 452 642 480 632 L 491 628 Q 504 625 525 630 L 612 649 L 700 665 Q 711 667 719 657 Q 722 653 711 638 L 692 596 L 683 582 Q 678 574 681 570 Q 685 566 697 578 L 709 588 L 723 597 Q 730 603 737 606 Q 744 609 757 619 Q 771 629 786 630 L 803 633 Q 831 642 804 668 Q 764 708 725 708 Q 718 708 699 702 Q 676 692 647 686 Q 618 679 606 678 Z" />
      </clipPath>
      <path clip-path="url(#make-me-a-hanzi-clip-3)" d="M 487 634 L 509 645 L 700 684 L 738 678 L 756 660 L 684 576" fill="none" id="make-me-a-hanzi-animation-3" stroke-dasharray="522 1044" stroke-linecap="round" />
    
      <clipPath id="make-me-a-hanzi-clip-4">
        <path d="M 574 550 L 592 568 Q 594 579 574 595 Q 554 610 545 612 Q 536 613 534 611 Q 532 609 531 603 L 529 587 Q 528 577 519 561 Q 512 546 494 523 Q 476 500 453 482 Q 431 463 419 455 L 385 432 L 360 418 Q 352 413 353 409 Q 354 407 366 408 L 378 410 Q 407 419 422 425 Q 484 448 528 494 L 558 526 L 574 550 Z" />
      </clipPath>
      <path clip-path="url(#make-me-a-hanzi-clip-4)" d="M 540 604 L 555 573 L 535 537 L 506 503 L 451 456 L 360 411" fill="none" id="make-me-a-hanzi-animation-4" stroke-dasharray="422 844" stroke-linecap="round" />
    
      <clipPath id="make-me-a-hanzi-clip-5">
        <path d="M 558 526 L 579 516 Q 586 514 591 510 L 737 410 Q 764 398 779 399 Q 795 400 833 409 Q 871 417 877 419 L 895 424 Q 905 427 904 433 Q 903 439 890 442 L 875 444 Q 874 445 835 450 Q 797 455 744 476 Q 708 487 684 501 L 626 530 Q 611 539 601 541 Q 591 543 574 550 C 546 561 531 539 558 526 Z" />
      </clipPath>
      <path clip-path="url(#make-me-a-hanzi-clip-5)" d="M 566 529 L 580 532 L 601 524 L 696 467 L 769 432 L 897 431" fill="none" id="make-me-a-hanzi-animation-5" stroke-dasharray="485 970" stroke-linecap="round" />
    
      <clipPath id="make-me-a-hanzi-clip-6">
        <path d="M 304 110 L 296 70 Q 296 57 304 40 Q 323 -7 336 20 L 341 29 L 345 62 L 350 140 L 352 160 L 354 225 L 354 247 L 356 323 C 357 352 357 352 348 353 L 336 355 L 315 362 Q 296 369 296 354 Q 294 349 301 337 Q 308 324 309 319 L 313 293 Q 314 284 314 262 L 311 157 L 306 132 L 304 110 Z" />
      </clipPath>
      <path clip-path="url(#make-me-a-hanzi-clip-6)" d="M 307 354 L 330 330 L 335 286 L 332 157 L 321 71 L 326 21" fill="none" id="make-me-a-hanzi-animation-6" stroke-dasharray="472 944" stroke-linecap="round" />
    
      <clipPath id="make-me-a-hanzi-clip-7">
        <path d="M 581 46 L 598 21 Q 606 8 611 8 Q 616 8 627 19 Q 652 44 652 106 L 652 253 Q 651 290 656 308 L 670 340 Q 671 342 659 354 Q 652 364 638 372 L 617 383 Q 592 394 586 391 Q 577 383 545 378 L 464 365 L 348 353 C 318 350 326 323 356 323 L 374 323 Q 383 323 402 326 L 473 339 L 553 348 Q 571 350 580 342 Q 590 334 591 325 L 595 266 L 595 246 L 595 172 L 594 153 L 595 130 L 592 106 Q 592 87 589 77 C 585 47 578 50 581 46 Z" />
      </clipPath>
      <path clip-path="url(#make-me-a-hanzi-clip-7)" d="M 356 347 L 371 340 L 392 340 L 576 366 L 600 361 L 624 339 L 624 128 L 612 16" fill="none" id="make-me-a-hanzi-animation-7" stroke-dasharray="732 1464" stroke-linecap="round" />
    
      <clipPath id="make-me-a-hanzi-clip-8">
        <path d="M 527 269 L 516 265 L 354 247 C 324 244 324 230 354 225 L 365 223 Q 375 219 406 225 L 595 246 C 625 249 623 257 595 266 L 583 270 Q 574 272 556 273 Q 539 273 527 269 Z" />
      </clipPath>
      <path clip-path="url(#make-me-a-hanzi-clip-8)" d="M 361 231 L 367 236 L 549 258 L 582 257 L 586 251" fill="none" id="make-me-a-hanzi-animation-8" stroke-dasharray="359 718" stroke-linecap="round" />
    
      <clipPath id="make-me-a-hanzi-clip-9">
        <path d="M 432 165 L 352 160 C 322 158 320 145 350 140 L 363 138 Q 369 137 386 137 L 594 153 C 624 155 623 161 595 172 L 582 177 Q 573 180 568 181 L 493 172 L 432 165 Z" />
      </clipPath>
      <path clip-path="url(#make-me-a-hanzi-clip-9)" d="M 357 144 L 363 150 L 562 166 L 582 164 L 586 158" fill="none" id="make-me-a-hanzi-animation-9" stroke-dasharray="363 726" stroke-linecap="round" />
    
      <clipPath id="make-me-a-hanzi-clip-10">
        <path d="M 341 29 L 380 31 L 397 33 L 581 46 C 611 48 618 69 589 77 L 574 81 Q 562 84 554 84 L 541 81 L 493 75 L 345 62 C 315 59 311 27 341 29 Z" />
      </clipPath>
      <path clip-path="url(#make-me-a-hanzi-clip-10)" d="M 347 34 L 369 48 L 541 61 L 570 65 L 580 74" fill="none" id="make-me-a-hanzi-animation-10" stroke-dasharray="369 738" stroke-linecap="round" />
    
      <clipPath id="make-me-a-hanzi-clip-11">
        <path d="M 380 31 L 378 18 Q 378 13 373 6 L 354 -21 Q 351 -26 276 -90 L 238 -115 Q 225 -126 224 -126 L 214 -133 Q 210 -136 211 -140 Q 212 -144 220 -141 L 259 -128 Q 278 -120 297 -110 Q 316 -100 318 -98 Q 321 -97 327 -93 L 362 -71 Q 374 -63 396 -45 Q 418 -28 429 -23 L 448 -13 Q 455 -9 457 -5 Q 458 -1 454 5 Q 451 11 441 15 L 397 33 C 381 39 381 39 380 31 Z" />
      </clipPath>
      <path clip-path="url(#make-me-a-hanzi-clip-11)" d="M 447 -3 L 403 -2 L 364 -43 L 285 -102 L 216 -138" fill="none" id="make-me-a-hanzi-animation-11" stroke-dasharray="405 810" stroke-linecap="round" />
    
      <clipPath id="make-me-a-hanzi-clip-12">
        <path d="M 548 -12 L 558 -20 L 576 -38 L 638 -106 Q 667 -142 680 -148 Q 688 -155 697 -153 Q 713 -150 712 -126 Q 711 -103 705 -90 Q 699 -78 669 -54 L 652 -44 Q 638 -36 636 -34 L 573 -8 L 555 -2 Q 547 0 546 -4 Q 545 -8 548 -12 Z" />
      </clipPath>
      <path clip-path="url(#make-me-a-hanzi-clip-12)" d="M 551 -7 L 657 -82 L 678 -105 L 693 -135" fill="none" id="make-me-a-hanzi-animation-12" stroke-dasharray="323 646" stroke-linecap="round" />
    
  </g>
</svg>