<svg version="1.1" viewBox="0 0 1024 1024" xmlns="http://www.w3.org/2000/svg">
  <g stroke="lightgray" stroke-dasharray="1,1" stroke-width="1" transform="scale(4, 4)">
    <line x1="0" y1="0" x2="256" y2="256"></line>
    <line x1="256" y1="0" x2="0" y2="256"></line>
    <line x1="128" y1="0" x2="128" y2="256"></line>
    <line x1="0" y1="128" x2="256" y2="128"></line>
  </g>
  <g transform="scale(0.92, -0.92) translate(60, -830)">
    <style type="text/css">
      
        @keyframes keyframes0 {
          from {
            stroke: blue;
            stroke-dashoffset: 478;
            stroke-width: 128;
          }
          61% {
            animation-timing-function: step-end;
            stroke: blue;
            stroke-dashoffset: 0;
            stroke-width: 128;
          }
          to {
            stroke: black;
            stroke-width: 1024;
          }
        }
        #make-me-a-hanzi-animation-0 {
          animation: keyframes0 0.6389973958333334s both;
          animation-delay: 0s;
          animation-timing-function: linear;
        }
      
        @keyframes keyframes1 {
          from {
            stroke: blue;
            stroke-dashoffset: 652;
            stroke-width: 128;
          }
          68% {
            animation-timing-function: step-end;
            stroke: blue;
            stroke-dashoffset: 0;
            stroke-width: 128;
          }
          to {
            stroke: black;
            stroke-width: 1024;
          }
        }
        #make-me-a-hanzi-animation-1 {
          animation: keyframes1 0.7805989583333334s both;
          animation-delay: 0.6389973958333334s;
          animation-timing-function: linear;
        }
      
        @keyframes keyframes2 {
          from {
            stroke: blue;
            stroke-dashoffset: 413;
            stroke-width: 128;
          }
          57% {
            animation-timing-function: step-end;
            stroke: blue;
            stroke-dashoffset: 0;
            stroke-width: 128;
          }
          to {
            stroke: black;
            stroke-width: 1024;
          }
        }
        #make-me-a-hanzi-animation-2 {
          animation: keyframes2 0.5861002604166666s both;
          animation-delay: 1.4195963541666667s;
          animation-timing-function: linear;
        }
      
        @keyframes keyframes3 {
          from {
            stroke: blue;
            stroke-dashoffset: 879;
            stroke-width: 128;
          }
          74% {
            animation-timing-function: step-end;
            stroke: blue;
            stroke-dashoffset: 0;
            stroke-width: 128;
          }
          to {
            stroke: black;
            stroke-width: 1024;
          }
        }
        #make-me-a-hanzi-animation-3 {
          animation: keyframes3 0.96533203125s both;
          animation-delay: 2.0056966145833335s;
          animation-timing-function: linear;
        }
      
        @keyframes keyframes4 {
          from {
            stroke: blue;
            stroke-dashoffset: 542;
            stroke-width: 128;
          }
          64% {
            animation-timing-function: step-end;
            stroke: blue;
            stroke-dashoffset: 0;
            stroke-width: 128;
          }
          to {
            stroke: black;
            stroke-width: 1024;
          }
        }
        #make-me-a-hanzi-animation-4 {
          animation: keyframes4 0.6910807291666666s both;
          animation-delay: 2.9710286458333335s;
          animation-timing-function: linear;
        }
      
        @keyframes keyframes5 {
          from {
            stroke: blue;
            stroke-dashoffset: 611;
            stroke-width: 128;
          }
          67% {
            animation-timing-function: step-end;
            stroke: blue;
            stroke-dashoffset: 0;
            stroke-width: 128;
          }
          to {
            stroke: black;
            stroke-width: 1024;
          }
        }
        #make-me-a-hanzi-animation-5 {
          animation: keyframes5 0.7472330729166666s both;
          animation-delay: 3.662109375s;
          animation-timing-function: linear;
        }
      
        @keyframes keyframes6 {
          from {
            stroke: blue;
            stroke-dashoffset: 911;
            stroke-width: 128;
          }
          75% {
            animation-timing-function: step-end;
            stroke: blue;
            stroke-dashoffset: 0;
            stroke-width: 128;
          }
          to {
            stroke: black;
            stroke-width: 1024;
          }
        }
        #make-me-a-hanzi-animation-6 {
          animation: keyframes6 0.9913736979166666s both;
          animation-delay: 4.409342447916667s;
          animation-timing-function: linear;
        }
      
        @keyframes keyframes7 {
          from {
            stroke: blue;
            stroke-dashoffset: 536;
            stroke-width: 128;
          }
          64% {
            animation-timing-function: step-end;
            stroke: blue;
            stroke-dashoffset: 0;
            stroke-width: 128;
          }
          to {
            stroke: black;
            stroke-width: 1024;
          }
        }
        #make-me-a-hanzi-animation-7 {
          animation: keyframes7 0.6861979166666666s both;
          animation-delay: 5.400716145833334s;
          animation-timing-function: linear;
        }
      
        @keyframes keyframes8 {
          from {
            stroke: blue;
            stroke-dashoffset: 539;
            stroke-width: 128;
          }
          64% {
            animation-timing-function: step-end;
            stroke: blue;
            stroke-dashoffset: 0;
            stroke-width: 128;
          }
          to {
            stroke: black;
            stroke-width: 1024;
          }
        }
        #make-me-a-hanzi-animation-8 {
          animation: keyframes8 0.6886393229166666s both;
          animation-delay: 6.086914062500001s;
          animation-timing-function: linear;
        }
      
        @keyframes keyframes9 {
          from {
            stroke: blue;
            stroke-dashoffset: 548;
            stroke-width: 128;
          }
          64% {
            animation-timing-function: step-end;
            stroke: blue;
            stroke-dashoffset: 0;
            stroke-width: 128;
          }
          to {
            stroke: black;
            stroke-width: 1024;
          }
        }
        #make-me-a-hanzi-animation-9 {
          animation: keyframes9 0.6959635416666666s both;
          animation-delay: 6.775553385416668s;
          animation-timing-function: linear;
        }
      
        @keyframes keyframes10 {
          from {
            stroke: blue;
            stroke-dashoffset: 551;
            stroke-width: 128;
          }
          64% {
            animation-timing-function: step-end;
            stroke: blue;
            stroke-dashoffset: 0;
            stroke-width: 128;
          }
          to {
            stroke: black;
            stroke-width: 1024;
          }
        }
        #make-me-a-hanzi-animation-10 {
          animation: keyframes10 0.6984049479166666s both;
          animation-delay: 7.471516927083335s;
          animation-timing-function: linear;
        }
      
        @keyframes keyframes11 {
          from {
            stroke: blue;
            stroke-dashoffset: 486;
            stroke-width: 128;
          }
          61% {
            animation-timing-function: step-end;
            stroke: blue;
            stroke-dashoffset: 0;
            stroke-width: 128;
          }
          to {
            stroke: black;
            stroke-width: 1024;
          }
        }
        #make-me-a-hanzi-animation-11 {
          animation: keyframes11 0.6455078125s both;
          animation-delay: 8.169921875000002s;
          animation-timing-function: linear;
        }
      
    </style>
    
      <path d="M 268 609 L 286 616 Q 309 624 332 634 L 378 658 L 409 674 Q 417 678 429 683 Q 441 689 447 690 L 457 692 Q 465 694 466 699 L 466 701 Q 466 704 464 709 Q 461 716 455 723 Q 449 730 441 737 Q 433 744 424 750 Q 416 754 413 754 Q 412 754 411 753 Q 408 752 403 743 Q 399 734 383 719 L 358 696 Q 348 688 327 673 Q 305 658 297 652 Q 289 648 278 641 Q 267 635 256 628 C 231 612 240 598 268 609 Z" fill="lightgray"></path>
    
      <path d="M 256 628 L 248 632 Q 240 636 228 639 Q 216 642 211 642 Q 199 642 197 638 Q 195 636 195 634 Q 195 630 198 625 L 205 614 Q 211 605 211 597 Q 213 588 213 567 L 211 488 Q 211 470 210 464 Q 209 458 206 446 Q 203 434 200 426 Q 197 419 197 418 L 197 414 Q 197 410 198 407 Q 200 402 207 388 Q 214 374 218 370 Q 222 363 227 363 L 228 363 Q 232 363 239 370 L 259 395 Q 265 402 279 416 L 299 436 L 388 516 C 410 536 409 541 383 526 L 267 457 Q 262 453 259 453 Q 258 453 257 454 Q 254 454 254 462 Q 254 466 255 472 L 257 542 Q 257 558 258 566 Q 259 574 260 583 Q 262 591 264 596 Q 265 602 268 609 C 272 620 272 620 256 628 Z" fill="lightgray"></path>
    
      <path d="M 388 516 L 402 486 Q 409 470 417 462 Q 427 448 433 448 L 435 448 Q 443 450 449 458 Q 454 466 456 476 L 456 484 Q 456 493 455 502 Q 453 515 445 526 Q 439 537 425 550 Q 413 562 405 568 L 379 584 L 363 594 Q 359 596 356 596 Q 354 596 352 594 Q 351 593 351 591 Q 351 589 353 585 L 359 574 Q 361 571 367 556 Q 375 542 383 526 L 388 516 Z" fill="lightgray"></path>
    
      <path d="M 637 637 L 693 645 Q 701 646 719 647 L 727 647 Q 739 647 744 645 Q 751 641 753 636 Q 755 631 755 622 Q 754 612 749 585 Q 745 557 739 537 Q 734 518 729 508 Q 723 498 719 494 Q 715 490 708 488 Q 705 487 701 487 Q 698 487 695 488 Q 689 490 679 495 Q 667 501 667 502 L 655 509 Q 651 512 648 512 Q 645 512 644 510 Q 643 509 643 507 Q 643 503 647 498 L 653 489 Q 661 478 674 456 Q 687 433 694 418 Q 701 404 706 402 Q 708 401 712 401 Q 718 401 728 406 Q 743 415 756 430 Q 769 445 777 462 Q 787 478 795 514 Q 803 549 807 577 Q 812 606 815 612 Q 817 618 821 625 Q 825 631 830 637 Q 835 642 836 645 L 836 648 Q 836 654 831 660 Q 823 667 814 674 Q 805 680 796 685 Q 787 690 774 695 Q 763 699 756 699 L 753 699 Q 749 698 735 692 Q 721 685 707 682 Q 693 678 675 675 L 618 665 Q 579 658 557 655 L 520 650 L 488 648 Q 477 646 474 644 Q 473 642 473 639 L 473 636 Q 475 630 485 626 L 505 614 Q 519 607 526 607 L 527 607 Q 533 608 557 616 L 589 626 L 637 637 Z" fill="lightgray"></path>
    
      <path d="M 589 626 L 589 616 Q 589 610 586 596 Q 583 582 575 563 Q 567 544 555 523 Q 541 502 528 486 Q 515 470 495 452 Q 477 434 469 428 L 456 418 Q 452 415 452 413 Q 452 411 453 410 Q 456 407 459 407 Q 461 407 463 408 L 483 417 Q 491 420 513 432 Q 534 444 553 459 Q 571 474 589 498 Q 607 521 621 548 Q 635 575 640 582 L 652 597 Q 660 606 660 612 L 660 613 Q 660 618 653 624 L 637 637 C 614 656 589 656 589 626 Z" fill="lightgray"></path>
    
      <path d="M 339 358 L 315 366 L 300 368 Q 294 369 289 369 Q 285 369 283 368 Q 279 366 278 361 L 278 359 Q 278 355 283 346 Q 289 336 291 326 Q 294 315 296 297 Q 297 286 297 275 L 297 264 L 293 173 Q 291 127 287 108 L 283 90 Q 281 80 281 74 Q 282 68 286 53 Q 291 38 300 24 Q 308 12 313 12 L 314 12 Q 319 12 321 15 Q 323 18 327 26 L 329 34 L 333 68 L 336 138 L 336 158 L 340 228 L 341 251 L 343 326 C 344 356 344 356 339 358 Z" fill="lightgray"></path>
    
      <path d="M 627 48 L 640 21 Q 643 12 653 10 L 656 10 Q 663 10 670 18 Q 678 28 683 40 Q 687 52 690 64 Q 691 70 691 81 Q 691 91 690 106 Q 689 125 689 132 L 689 258 Q 689 278 691 294 Q 692 310 697 320 L 708 338 Q 711 343 712 347 L 712 348 Q 712 355 704 362 Q 695 372 681 380 Q 667 389 656 394 L 636 401 Q 629 403 624 403 L 621 403 Q 619 402 609 398 Q 600 394 588 392 Q 577 390 564 388 L 519 381 Q 479 374 475 374 L 339 358 C 309 354 313 323 343 326 L 395 332 L 471 344 L 539 353 L 582 358 L 588 358 Q 597 358 604 356 Q 613 354 616 350 Q 619 347 622 333 Q 625 318 626 311 L 628 273 L 627 252 L 628 178 L 628 154 L 628 128 Q 628 114 626 100 Q 624 85 624 82 L 624 79 Q 624 75 625 70 L 627 48 Z" fill="lightgray"></path>
    
      <path d="M 340 228 L 350 226 Q 354 225 363 225 Q 375 225 395 227 L 627 252 C 657 255 657 265 628 273 L 611 278 Q 593 284 581 284 Q 575 284 558 280 Q 541 276 497 269 Q 453 262 451 262 L 341 251 C 311 248 311 234 340 228 Z" fill="lightgray"></path>
    
      <path d="M 628 178 L 617 181 Q 601 185 595 186 Q 585 186 566 182 Q 546 178 496 172 Q 447 166 431 165 L 336 158 C 306 156 308 148 336 138 L 347 134 Q 354 133 362 133 L 371 133 L 628 154 C 658 156 657 170 628 178 Z" fill="lightgray"></path>
    
      <path d="M 391 36 L 627 48 C 657 50 653 59 625 70 L 605 78 Q 594 82 581 83 Q 576 84 570 84 Q 564 84 557 83 L 511 78 L 333 68 C 303 66 299 33 329 34 L 375 36 L 391 36 Z" fill="lightgray"></path>
    
      <path d="M 375 36 L 370 16 Q 369 9 355 -6 Q 342 -22 318 -45 Q 294 -68 286 -75 L 245 -106 L 207 -134 L 195 -141 Q 191 -144 191 -147 Q 191 -148 192 -149 Q 193 -151 197 -151 Q 199 -151 203 -150 L 211 -148 Q 221 -145 244 -136 Q 267 -128 294 -114 Q 321 -100 348 -82 L 398 -47 Q 417 -34 431 -28 Q 444 -21 448 -18 Q 452 -16 453 -13 Q 454 -11 454 -10 Q 454 -3 443 6 Q 429 18 419 23 Q 409 28 391 36 C 377 42 377 42 375 36 Z" fill="lightgray"></path>
    
      <path d="M 545 -5 L 568 -29 L 599 -61 L 636 -102 Q 645 -112 661 -128 Q 677 -144 684 -149 Q 693 -155 700 -155 L 703 -155 Q 711 -153 717 -145 Q 722 -138 722 -124 L 722 -119 Q 721 -101 714 -86 Q 706 -72 696 -62 Q 686 -52 667 -41 Q 649 -29 631 -20 L 584 0 Q 569 6 563 8 L 541 14 Q 539 15 537 15 Q 533 15 532 12 Q 531 11 531 9 Q 531 7 534 4 L 545 -5 Z" fill="lightgray"></path>
    
    
      <clipPath id="make-me-a-hanzi-clip-0">
        <path d="M 268 609 L 286 616 Q 309 624 332 634 L 378 658 L 409 674 Q 417 678 429 683 Q 441 689 447 690 L 457 692 Q 465 694 466 699 L 466 701 Q 466 704 464 709 Q 461 716 455 723 Q 449 730 441 737 Q 433 744 424 750 Q 416 754 413 754 Q 412 754 411 753 Q 408 752 403 743 Q 399 734 383 719 L 358 696 Q 348 688 327 673 Q 305 658 297 652 Q 289 648 278 641 Q 267 635 256 628 C 231 612 240 598 268 609 Z"></path>
      </clipPath>
      <path clip-path="url(#make-me-a-hanzi-clip-0)" d="M 458 700 L 421 713 L 309 641 L 273 624 L 264 627" fill="none" id="make-me-a-hanzi-animation-0" stroke-dasharray="350 700" stroke-linecap="round"></path>
    
      <clipPath id="make-me-a-hanzi-clip-1">
        <path d="M 256 628 L 248 632 Q 240 636 228 639 Q 216 642 211 642 Q 199 642 197 638 Q 195 636 195 634 Q 195 630 198 625 L 205 614 Q 211 605 211 597 Q 213 588 213 567 L 211 488 Q 211 470 210 464 Q 209 458 206 446 Q 203 434 200 426 Q 197 419 197 418 L 197 414 Q 197 410 198 407 Q 200 402 207 388 Q 214 374 218 370 Q 222 363 227 363 L 228 363 Q 232 363 239 370 L 259 395 Q 265 402 279 416 L 299 436 L 388 516 C 410 536 409 541 383 526 L 267 457 Q 262 453 259 453 Q 258 453 257 454 Q 254 454 254 462 Q 254 466 255 472 L 257 542 Q 257 558 258 566 Q 259 574 260 583 Q 262 591 264 596 Q 265 602 268 609 C 272 620 272 620 256 628 Z"></path>
      </clipPath>
      <path clip-path="url(#make-me-a-hanzi-clip-1)" d="M 204 632 L 238 605 L 232 467 L 237 424 L 272 437 L 379 518" fill="none" id="make-me-a-hanzi-animation-1" stroke-dasharray="524 1048" stroke-linecap="round"></path>
    
      <clipPath id="make-me-a-hanzi-clip-2">
        <path d="M 388 516 L 402 486 Q 409 470 417 462 Q 427 448 433 448 L 435 448 Q 443 450 449 458 Q 454 466 456 476 L 456 484 Q 456 493 455 502 Q 453 515 445 526 Q 439 537 425 550 Q 413 562 405 568 L 379 584 L 363 594 Q 359 596 356 596 Q 354 596 352 594 Q 351 593 351 591 Q 351 589 353 585 L 359 574 Q 361 571 367 556 Q 375 542 383 526 L 388 516 Z"></path>
      </clipPath>
      <path clip-path="url(#make-me-a-hanzi-clip-2)" d="M 356 591 L 413 526 L 428 495 L 434 459" fill="none" id="make-me-a-hanzi-animation-2" stroke-dasharray="285 570" stroke-linecap="round"></path>
    
      <clipPath id="make-me-a-hanzi-clip-3">
        <path d="M 637 637 L 693 645 Q 701 646 719 647 L 727 647 Q 739 647 744 645 Q 751 641 753 636 Q 755 631 755 622 Q 754 612 749 585 Q 745 557 739 537 Q 734 518 729 508 Q 723 498 719 494 Q 715 490 708 488 Q 705 487 701 487 Q 698 487 695 488 Q 689 490 679 495 Q 667 501 667 502 L 655 509 Q 651 512 648 512 Q 645 512 644 510 Q 643 509 643 507 Q 643 503 647 498 L 653 489 Q 661 478 674 456 Q 687 433 694 418 Q 701 404 706 402 Q 708 401 712 401 Q 718 401 728 406 Q 743 415 756 430 Q 769 445 777 462 Q 787 478 795 514 Q 803 549 807 577 Q 812 606 815 612 Q 817 618 821 625 Q 825 631 830 637 Q 835 642 836 645 L 836 648 Q 836 654 831 660 Q 823 667 814 674 Q 805 680 796 685 Q 787 690 774 695 Q 763 699 756 699 L 753 699 Q 749 698 735 692 Q 721 685 707 682 Q 693 678 675 675 L 618 665 Q 579 658 557 655 L 520 650 L 488 648 Q 477 646 474 644 Q 473 642 473 639 L 473 636 Q 475 630 485 626 L 505 614 Q 519 607 526 607 L 527 607 Q 533 608 557 616 L 589 626 L 637 637 Z"></path>
      </clipPath>
      <path clip-path="url(#make-me-a-hanzi-clip-3)" d="M 483 640 L 529 630 L 751 671 L 777 659 L 789 645 L 788 633 L 768 527 L 745 472 L 718 452 L 685 472 L 648 507" fill="none" id="make-me-a-hanzi-animation-3" stroke-dasharray="751 1502" stroke-linecap="round"></path>
    
      <clipPath id="make-me-a-hanzi-clip-4">
        <path d="M 589 626 L 589 616 Q 589 610 586 596 Q 583 582 575 563 Q 567 544 555 523 Q 541 502 528 486 Q 515 470 495 452 Q 477 434 469 428 L 456 418 Q 452 415 452 413 Q 452 411 453 410 Q 456 407 459 407 Q 461 407 463 408 L 483 417 Q 491 420 513 432 Q 534 444 553 459 Q 571 474 589 498 Q 607 521 621 548 Q 635 575 640 582 L 652 597 Q 660 606 660 612 L 660 613 Q 660 618 653 624 L 637 637 C 614 656 589 656 589 626 Z"></path>
      </clipPath>
      <path clip-path="url(#make-me-a-hanzi-clip-4)" d="M 647 613 L 618 602 L 591 540 L 553 485 L 520 454 L 457 413" fill="none" id="make-me-a-hanzi-animation-4" stroke-dasharray="414 828" stroke-linecap="round"></path>
    
      <clipPath id="make-me-a-hanzi-clip-5">
        <path d="M 339 358 L 315 366 L 300 368 Q 294 369 289 369 Q 285 369 283 368 Q 279 366 278 361 L 278 359 Q 278 355 283 346 Q 289 336 291 326 Q 294 315 296 297 Q 297 286 297 275 L 297 264 L 293 173 Q 291 127 287 108 L 283 90 Q 281 80 281 74 Q 282 68 286 53 Q 291 38 300 24 Q 308 12 313 12 L 314 12 Q 319 12 321 15 Q 323 18 327 26 L 329 34 L 333 68 L 336 138 L 336 158 L 340 228 L 341 251 L 343 326 C 344 356 344 356 339 358 Z"></path>
      </clipPath>
      <path clip-path="url(#make-me-a-hanzi-clip-5)" d="M 287 360 L 315 338 L 318 319 L 318 222 L 307 75 L 314 20" fill="none" id="make-me-a-hanzi-animation-5" stroke-dasharray="483 966" stroke-linecap="round"></path>
    
      <clipPath id="make-me-a-hanzi-clip-6">
        <path d="M 627 48 L 640 21 Q 643 12 653 10 L 656 10 Q 663 10 670 18 Q 678 28 683 40 Q 687 52 690 64 Q 691 70 691 81 Q 691 91 690 106 Q 689 125 689 132 L 689 258 Q 689 278 691 294 Q 692 310 697 320 L 708 338 Q 711 343 712 347 L 712 348 Q 712 355 704 362 Q 695 372 681 380 Q 667 389 656 394 L 636 401 Q 629 403 624 403 L 621 403 Q 619 402 609 398 Q 600 394 588 392 Q 577 390 564 388 L 519 381 Q 479 374 475 374 L 339 358 C 309 354 313 323 343 326 L 395 332 L 471 344 L 539 353 L 582 358 L 588 358 Q 597 358 604 356 Q 613 354 616 350 Q 619 347 622 333 Q 625 318 626 311 L 628 273 L 627 252 L 628 178 L 628 154 L 628 128 Q 628 114 626 100 Q 624 85 624 82 L 624 79 Q 624 75 625 70 L 627 48 Z"></path>
      </clipPath>
      <path clip-path="url(#make-me-a-hanzi-clip-6)" d="M 349 332 L 356 344 L 585 375 L 626 376 L 647 362 L 662 343 L 655 24" fill="none" id="make-me-a-hanzi-animation-6" stroke-dasharray="783 1566" stroke-linecap="round"></path>
    
      <clipPath id="make-me-a-hanzi-clip-7">
        <path d="M 340 228 L 350 226 Q 354 225 363 225 Q 375 225 395 227 L 627 252 C 657 255 657 265 628 273 L 611 278 Q 593 284 581 284 Q 575 284 558 280 Q 541 276 497 269 Q 453 262 451 262 L 341 251 C 311 248 311 234 340 228 Z"></path>
      </clipPath>
      <path clip-path="url(#make-me-a-hanzi-clip-7)" d="M 346 233 L 354 239 L 622 268" fill="none" id="make-me-a-hanzi-animation-7" stroke-dasharray="408 816" stroke-linecap="round"></path>
    
      <clipPath id="make-me-a-hanzi-clip-8">
        <path d="M 628 178 L 617 181 Q 601 185 595 186 Q 585 186 566 182 Q 546 178 496 172 Q 447 166 431 165 L 336 158 C 306 156 308 148 336 138 L 347 134 Q 354 133 362 133 L 371 133 L 628 154 C 658 156 657 170 628 178 Z"></path>
      </clipPath>
      <path clip-path="url(#make-me-a-hanzi-clip-8)" d="M 344 153 L 355 145 L 596 169 L 614 167 L 620 160" fill="none" id="make-me-a-hanzi-animation-8" stroke-dasharray="411 822" stroke-linecap="round"></path>
    
      <clipPath id="make-me-a-hanzi-clip-9">
        <path d="M 391 36 L 627 48 C 657 50 653 59 625 70 L 605 78 Q 594 82 581 83 Q 576 84 570 84 Q 564 84 557 83 L 511 78 L 333 68 C 303 66 299 33 329 34 L 375 36 L 391 36 Z"></path>
      </clipPath>
      <path clip-path="url(#make-me-a-hanzi-clip-9)" d="M 336 39 L 356 53 L 565 65 L 613 61 L 619 53" fill="none" id="make-me-a-hanzi-animation-9" stroke-dasharray="420 840" stroke-linecap="round"></path>
    
      <clipPath id="make-me-a-hanzi-clip-10">
        <path d="M 375 36 L 370 16 Q 369 9 355 -6 Q 342 -22 318 -45 Q 294 -68 286 -75 L 245 -106 L 207 -134 L 195 -141 Q 191 -144 191 -147 Q 191 -148 192 -149 Q 193 -151 197 -151 Q 199 -151 203 -150 L 211 -148 Q 221 -145 244 -136 Q 267 -128 294 -114 Q 321 -100 348 -82 L 398 -47 Q 417 -34 431 -28 Q 444 -21 448 -18 Q 452 -16 453 -13 Q 454 -11 454 -10 Q 454 -3 443 6 Q 429 18 419 23 Q 409 28 391 36 C 377 42 377 42 375 36 Z"></path>
      </clipPath>
      <path clip-path="url(#make-me-a-hanzi-clip-10)" d="M 446 -9 L 398 -6 L 303 -87 L 196 -146" fill="none" id="make-me-a-hanzi-animation-10" stroke-dasharray="423 846" stroke-linecap="round"></path>
    
      <clipPath id="make-me-a-hanzi-clip-11">
        <path d="M 545 -5 L 568 -29 L 599 -61 L 636 -102 Q 645 -112 661 -128 Q 677 -144 684 -149 Q 693 -155 700 -155 L 703 -155 Q 711 -153 717 -145 Q 722 -138 722 -124 L 722 -119 Q 721 -101 714 -86 Q 706 -72 696 -62 Q 686 -52 667 -41 Q 649 -29 631 -20 L 584 0 Q 569 6 563 8 L 541 14 Q 539 15 537 15 Q 533 15 532 12 Q 531 11 531 9 Q 531 7 534 4 L 545 -5 Z"></path>
      </clipPath>
      <path clip-path="url(#make-me-a-hanzi-clip-11)" d="M 536 9 L 605 -33 L 669 -85 L 685 -103 L 702 -142" fill="none" id="make-me-a-hanzi-animation-11" stroke-dasharray="358 716" stroke-linecap="round"></path>
    
  </g>
</svg>