<svg xmlns="http://www.w3.org/2000/svg" version="1.1" viewBox="0 0 1024 1024">
  <g stroke="lightgray" stroke-dasharray="1,1" stroke-width="1" transform="scale(4, 4)">
    <line x1="0" y1="0" x2="256" y2="256" />
    <line x1="256" y1="0" x2="0" y2="256" />
    <line x1="128" y1="0" x2="128" y2="256" />
    <line x1="0" y1="128" x2="256" y2="128" />
  </g>
  <g transform="scale(1.0, -1.0) translate(0.0, -808.00)">
    <style type="text/css">
      
        @keyframes keyframes0 {
          from {
            stroke: blue;
            stroke-dashoffset: 710;
            stroke-width: 128;
          }
          70% {
            animation-timing-function: step-end;
            stroke: blue;
            stroke-dashoffset: 0;
            stroke-width: 128;
          }
          to {
            stroke: black;
            stroke-width: 1024;
          }
        }
        #make-me-a-hanzi-animation-0 {
          animation: keyframes0 0.8277994791666666s both;
          animation-delay: 0s;
          animation-timing-function: linear;
        }
      
        @keyframes keyframes1 {
          from {
            stroke: blue;
            stroke-dashoffset: 859;
            stroke-width: 128;
          }
          74% {
            animation-timing-function: step-end;
            stroke: blue;
            stroke-dashoffset: 0;
            stroke-width: 128;
          }
          to {
            stroke: black;
            stroke-width: 1024;
          }
        }
        #make-me-a-hanzi-animation-1 {
          animation: keyframes1 0.9490559895833334s both;
          animation-delay: 0.8277994791666666s;
          animation-timing-function: linear;
        }
      
        @keyframes keyframes2 {
          from {
            stroke: blue;
            stroke-dashoffset: 394;
            stroke-width: 128;
          }
          56% {
            animation-timing-function: step-end;
            stroke: blue;
            stroke-dashoffset: 0;
            stroke-width: 128;
          }
          to {
            stroke: black;
            stroke-width: 1024;
          }
        }
        #make-me-a-hanzi-animation-2 {
          animation: keyframes2 0.5706380208333334s both;
          animation-delay: 1.77685546875s;
          animation-timing-function: linear;
        }
      
        @keyframes keyframes3 {
          from {
            stroke: blue;
            stroke-dashoffset: 397;
            stroke-width: 128;
          }
          56% {
            animation-timing-function: step-end;
            stroke: blue;
            stroke-dashoffset: 0;
            stroke-width: 128;
          }
          to {
            stroke: black;
            stroke-width: 1024;
          }
        }
        #make-me-a-hanzi-animation-3 {
          animation: keyframes3 0.5730794270833334s both;
          animation-delay: 2.3474934895833335s;
          animation-timing-function: linear;
        }
      
        @keyframes keyframes4 {
          from {
            stroke: blue;
            stroke-dashoffset: 399;
            stroke-width: 128;
          }
          56% {
            animation-timing-function: step-end;
            stroke: blue;
            stroke-dashoffset: 0;
            stroke-width: 128;
          }
          to {
            stroke: black;
            stroke-width: 1024;
          }
        }
        #make-me-a-hanzi-animation-4 {
          animation: keyframes4 0.57470703125s both;
          animation-delay: 2.920572916666667s;
          animation-timing-function: linear;
        }
      
        @keyframes keyframes5 {
          from {
            stroke: blue;
            stroke-dashoffset: 528;
            stroke-width: 128;
          }
          63% {
            animation-timing-function: step-end;
            stroke: blue;
            stroke-dashoffset: 0;
            stroke-width: 128;
          }
          to {
            stroke: black;
            stroke-width: 1024;
          }
        }
        #make-me-a-hanzi-animation-5 {
          animation: keyframes5 0.6796875s both;
          animation-delay: 3.495279947916667s;
          animation-timing-function: linear;
        }
      
        @keyframes keyframes6 {
          from {
            stroke: blue;
            stroke-dashoffset: 432;
            stroke-width: 128;
          }
          58% {
            animation-timing-function: step-end;
            stroke: blue;
            stroke-dashoffset: 0;
            stroke-width: 128;
          }
          to {
            stroke: black;
            stroke-width: 1024;
          }
        }
        #make-me-a-hanzi-animation-6 {
          animation: keyframes6 0.6015625s both;
          animation-delay: 4.174967447916667s;
          animation-timing-function: linear;
        }
      
        @keyframes keyframes7 {
          from {
            stroke: blue;
            stroke-dashoffset: 685;
            stroke-width: 128;
          }
          69% {
            animation-timing-function: step-end;
            stroke: blue;
            stroke-dashoffset: 0;
            stroke-width: 128;
          }
          to {
            stroke: black;
            stroke-width: 1024;
          }
        }
        #make-me-a-hanzi-animation-7 {
          animation: keyframes7 0.8074544270833334s both;
          animation-delay: 4.776529947916667s;
          animation-timing-function: linear;
        }
      
        @keyframes keyframes8 {
          from {
            stroke: blue;
            stroke-dashoffset: 456;
            stroke-width: 128;
          }
          60% {
            animation-timing-function: step-end;
            stroke: blue;
            stroke-dashoffset: 0;
            stroke-width: 128;
          }
          to {
            stroke: black;
            stroke-width: 1024;
          }
        }
        #make-me-a-hanzi-animation-8 {
          animation: keyframes8 0.62109375s both;
          animation-delay: 5.583984375s;
          animation-timing-function: linear;
        }
      
        @keyframes keyframes9 {
          from {
            stroke: blue;
            stroke-dashoffset: 593;
            stroke-width: 128;
          }
          66% {
            animation-timing-function: step-end;
            stroke: blue;
            stroke-dashoffset: 0;
            stroke-width: 128;
          }
          to {
            stroke: black;
            stroke-width: 1024;
          }
        }
        #make-me-a-hanzi-animation-9 {
          animation: keyframes9 0.7325846354166666s both;
          animation-delay: 6.205078125s;
          animation-timing-function: linear;
        }
      
        @keyframes keyframes10 {
          from {
            stroke: blue;
            stroke-dashoffset: 1316;
            stroke-width: 128;
          }
          81% {
            animation-timing-function: step-end;
            stroke: blue;
            stroke-dashoffset: 0;
            stroke-width: 128;
          }
          to {
            stroke: black;
            stroke-width: 1024;
          }
        }
        #make-me-a-hanzi-animation-10 {
          animation: keyframes10 1.3209635416666667s both;
          animation-delay: 6.937662760416667s;
          animation-timing-function: linear;
        }
      
        @keyframes keyframes11 {
          from {
            stroke: blue;
            stroke-dashoffset: 706;
            stroke-width: 128;
          }
          70% {
            animation-timing-function: step-end;
            stroke: blue;
            stroke-dashoffset: 0;
            stroke-width: 128;
          }
          to {
            stroke: black;
            stroke-width: 1024;
          }
        }
        #make-me-a-hanzi-animation-11 {
          animation: keyframes11 0.8245442708333334s both;
          animation-delay: 8.258626302083334s;
          animation-timing-function: linear;
        }
      
        @keyframes keyframes12 {
          from {
            stroke: blue;
            stroke-dashoffset: 367;
            stroke-width: 128;
          }
          54% {
            animation-timing-function: step-end;
            stroke: blue;
            stroke-dashoffset: 0;
            stroke-width: 128;
          }
          to {
            stroke: black;
            stroke-width: 1024;
          }
        }
        #make-me-a-hanzi-animation-12 {
          animation: keyframes12 0.5486653645833334s both;
          animation-delay: 9.083170572916668s;
          animation-timing-function: linear;
        }
      
    </style>
    
      <path d="M 195 599 L 176 607 Q 158 614 149 614 L 146 614 Q 139 613 137 609 Q 136 608 136 605 Q 136 603 137 600 Q 139 594 143 586 Q 147 577 150 568 Q 153 560 155 541 Q 157 527 157 514 L 157 506 L 150 336 Q 147 287 146 272 Q 145 258 141 239 Q 138 221 138 216 L 138 211 Q 138 204 140 197 Q 143 187 147 178 Q 151 170 157 162 Q 164 154 170 154 Q 175 154 178 162 L 182 176 L 187 206 L 192 279 Q 192 282 193 315 L 195 337 L 195 356 Q 195 362 196 392 Q 197 422 197 436 L 197 455 L 200 568 C 201 597 201 597 195 599 Z" fill="lightgray" />
    
      <path d="M 333 185 L 347 161 Q 352 151 357 149 Q 360 148 362 148 L 365 148 Q 373 149 382 163 Q 390 176 393 187 Q 397 198 398 212 L 398 220 Q 398 229 397 244 L 396 272 Q 394 302 394 320 L 394 330 L 395 477 Q 395 492 397 516 Q 398 540 400 551 Q 403 562 409 572 Q 415 582 415 585 Q 415 591 407 599 Q 399 606 384 616 Q 369 626 360 630 Q 351 635 344 635 Q 340 634 328 629 Q 315 624 293 619 Q 270 614 265 612 L 195 599 C 166 594 171 562 200 568 L 291 585 Q 304 588 315 588 Q 325 588 330 584 Q 335 580 337 567 Q 339 554 339 540 Q 341 526 341 504 L 341 474 L 341 440 L 341 348 L 341 315 L 341 277 Q 341 269 340 251 Q 339 232 337 226 Q 337 220 334 210 C 330 190 330 190 333 185 Z" fill="lightgray" />
    
      <path d="M 341 474 L 320 477 Q 317 477 305 475 L 285 471 L 209 457 L 197 455 C 167 450 169 446 197 436 L 208 432 Q 211 430 221 429 Q 231 428 236 428 L 259 431 L 341 440 C 371 443 371 470 341 474 Z" fill="lightgray" />
    
      <path d="M 341 348 L 321 353 L 319 353 Q 316 353 305 351 Q 292 348 289 348 L 203 338 L 195 337 C 165 333 165 327 193 315 L 205 310 Q 211 307 221 307 Q 231 308 261 310 L 341 315 C 371 317 370 341 341 348 Z" fill="lightgray" />
    
      <path d="M 215 174 L 333 185 C 363 188 359 194 334 210 L 323 217 Q 317 220 303 220 Q 297 220 287 219 L 270 216 L 187 206 C 157 202 152 179 182 176 L 201 174 L 215 174 Z" fill="lightgray" />
    
      <path d="M 201 174 L 197 160 L 194 146 Q 191 136 182 118 Q 173 100 161 80 Q 148 60 135 44 L 102 4 Q 82 -19 79 -22 L 67 -37 Q 64 -40 64 -43 Q 64 -45 65 -46 Q 66 -48 69 -48 Q 71 -48 75 -46 L 86 -42 Q 96 -37 134 -5 Q 171 26 175 30 Q 178 33 201 58 Q 224 84 235 99 Q 247 115 255 120 Q 263 124 265 127 Q 267 130 268 135 Q 268 142 262 147 Q 256 153 247 160 Q 237 166 231 169 Q 224 172 215 174 C 202 177 202 177 201 174 Z" fill="lightgray" />
    
      <path d="M 306 114 L 319 87 L 338 48 L 354 16 Q 363 -3 369 -12 Q 381 -30 390 -30 Q 399 -30 408 -18 Q 416 -9 416 10 L 416 14 Q 415 34 405 53 Q 396 72 375 90 Q 355 108 345 114 L 327 126 L 314 134 Q 308 137 305 137 Q 303 137 301 136 Q 299 134 299 131 Q 299 128 301 124 L 306 114 Z" fill="lightgray" />
    
      <path d="M 674 450 L 746 462 Q 769 465 803 468 L 843 472 Q 855 474 858 480 L 858 482 Q 858 488 847 496 Q 835 506 826 509 L 804 516 Q 791 520 784 520 Q 778 520 759 514 L 721 505 Q 703 499 702 499 L 671 492 L 623 480 L 556 466 Q 525 460 480 450 L 446 444 Q 429 440 427 436 L 427 435 Q 427 432 434 425 Q 442 417 452 413 Q 462 409 473 406 Q 483 403 490 403 L 494 403 Q 501 404 520 412 Q 539 420 564 427 Q 589 433 627 444 L 674 450 Z" fill="lightgray" />
    
      <path d="M 504 242 L 469 232 L 446 228 Q 427 224 423 222 Q 419 220 419 216 L 419 214 Q 419 210 427 206 Q 437 200 449 200 Q 460 200 472 201 Q 484 202 501 206 L 548 214 L 584 220 L 612 226 Q 623 228 629 232 Q 633 236 634 241 Q 634 245 627 250 Q 619 256 603 260 Q 587 263 579 263 Q 571 262 553 254 L 504 242 Z" fill="lightgray" />
    
      <path d="M 501 206 L 499 190 Q 497 175 494 159 Q 490 144 481 120 Q 471 96 463 82 Q 455 68 448 60 L 441 50 Q 438 46 438 43 Q 438 42 439 40 Q 440 37 442 37 Q 445 37 451 42 L 461 50 Q 473 58 486 71 Q 499 84 513 105 Q 525 126 533 148 Q 539 170 543 186 Q 546 202 548 214 L 553 254 L 555 271 Q 555 274 557 287 Q 559 300 563 306 Q 568 317 568 322 L 568 324 Q 567 328 559 334 Q 551 340 538 344 L 513 351 Q 504 353 500 353 L 497 353 Q 487 350 487 345 Q 487 340 492 332 Q 498 324 500 316 Q 503 308 503 294 Q 503 282 504 268 L 504 242 L 501 206 Z" fill="lightgray" />
    
      <path d="M 730 196 L 717 234 Q 705 271 695 318 Q 686 365 681 398 Q 677 432 674 450 L 671 492 L 665 591 Q 664 599 664 608 L 664 617 Q 665 632 667 643 Q 668 655 671 664 Q 675 675 675 680 Q 674 686 668 692 Q 661 698 645 704 Q 629 710 620 713 Q 610 716 595 718 Q 586 718 581 715 Q 575 712 575 707 Q 576 702 581 695 Q 585 688 589 676 Q 593 666 597 652 Q 601 640 604 622 L 623 480 L 627 444 L 631 415 Q 639 364 648 314 Q 657 264 669 222 Q 681 180 685 170 L 693 146 L 710 104 L 721 79 Q 731 57 749 28 Q 767 -2 783 -22 Q 799 -42 815 -59 Q 831 -76 850 -90 Q 869 -104 884 -112 Q 899 -120 913 -123 Q 927 -126 938 -126 L 943 -126 Q 956 -126 959 -122 Q 963 -116 963 -109 Q 963 -102 959 -88 Q 955 -76 951 -61 Q 947 -46 943 -20 Q 939 6 939 21 L 937 65 L 935 86 Q 935 92 931 93 L 930 93 Q 927 93 926 86 L 923 71 L 913 22 Q 907 -8 904 -20 Q 901 -32 893 -34 Q 890 -35 887 -35 Q 884 -35 880 -34 Q 873 -30 852 -11 Q 831 8 821 19 Q 812 30 796 54 L 771 97 Q 761 114 757 124 Q 753 134 747 147 L 730 196 Z" fill="lightgray" />
    
      <path d="M 693 146 L 675 125 Q 663 111 627 81 Q 590 51 587 48 L 571 36 Q 566 32 566 29 Q 566 27 567 26 Q 569 24 572 24 Q 576 24 581 26 L 598 33 Q 617 40 644 56 Q 671 71 684 82 Q 697 92 710 104 L 747 147 L 769 175 Q 782 192 804 228 L 835 282 Q 846 300 857 311 Q 867 322 868 327 L 868 328 Q 868 337 857 347 Q 845 358 841 361 Q 836 364 821 372 Q 809 378 802 378 L 800 378 Q 793 376 791 373 Q 790 372 790 368 Q 790 364 791 358 Q 792 353 792 348 Q 792 340 790 332 Q 787 317 781 299 Q 775 282 763 256 Q 751 230 744 218 Q 737 206 730 196 L 693 146 Z" fill="lightgray" />
    
      <path d="M 745 628 Q 747 624 759 607 Q 771 590 779 581 Q 785 572 796 564 Q 805 555 812 555 L 814 555 Q 822 555 831 564 Q 839 572 840 591 L 840 595 Q 840 609 834 618 Q 828 628 817 634 Q 805 641 785 647 Q 764 653 755 654 L 743 656 L 741 656 Q 737 656 735 652 Q 733 650 733 648 Q 733 645 736 642 L 745 628 Z" fill="lightgray" />
    
    
      <clipPath id="make-me-a-hanzi-clip-0">
        <path d="M 195 599 L 176 607 Q 158 614 149 614 L 146 614 Q 139 613 137 609 Q 136 608 136 605 Q 136 603 137 600 Q 139 594 143 586 Q 147 577 150 568 Q 153 560 155 541 Q 157 527 157 514 L 157 506 L 150 336 Q 147 287 146 272 Q 145 258 141 239 Q 138 221 138 216 L 138 211 Q 138 204 140 197 Q 143 187 147 178 Q 151 170 157 162 Q 164 154 170 154 Q 175 154 178 162 L 182 176 L 187 206 L 192 279 Q 192 282 193 315 L 195 337 L 195 356 Q 195 362 196 392 Q 197 422 197 436 L 197 455 L 200 568 C 201 597 201 597 195 599 Z" />
      </clipPath>
      <path clip-path="url(#make-me-a-hanzi-clip-0)" d="M 145 605 L 172 581 L 177 562 L 173 333 L 162 207 L 168 165" fill="none" id="make-me-a-hanzi-animation-0" stroke-dasharray="582 1164" stroke-linecap="round" />
    
      <clipPath id="make-me-a-hanzi-clip-1">
        <path d="M 333 185 L 347 161 Q 352 151 357 149 Q 360 148 362 148 L 365 148 Q 373 149 382 163 Q 390 176 393 187 Q 397 198 398 212 L 398 220 Q 398 229 397 244 L 396 272 Q 394 302 394 320 L 394 330 L 395 477 Q 395 492 397 516 Q 398 540 400 551 Q 403 562 409 572 Q 415 582 415 585 Q 415 591 407 599 Q 399 606 384 616 Q 369 626 360 630 Q 351 635 344 635 Q 340 634 328 629 Q 315 624 293 619 Q 270 614 265 612 L 195 599 C 166 594 171 562 200 568 L 291 585 Q 304 588 315 588 Q 325 588 330 584 Q 335 580 337 567 Q 339 554 339 540 Q 341 526 341 504 L 341 474 L 341 440 L 341 348 L 341 315 L 341 277 Q 341 269 340 251 Q 339 232 337 226 Q 337 220 334 210 C 330 190 330 190 333 185 Z" />
      </clipPath>
      <path clip-path="url(#make-me-a-hanzi-clip-1)" d="M 203 592 L 213 586 L 317 607 L 346 607 L 372 580 L 364 161" fill="none" id="make-me-a-hanzi-animation-1" stroke-dasharray="731 1462" stroke-linecap="round" />
    
      <clipPath id="make-me-a-hanzi-clip-2">
        <path d="M 341 474 L 320 477 Q 317 477 305 475 L 285 471 L 209 457 L 197 455 C 167 450 169 446 197 436 L 208 432 Q 211 430 221 429 Q 231 428 236 428 L 259 431 L 341 440 C 371 443 371 470 341 474 Z" />
      </clipPath>
      <path clip-path="url(#make-me-a-hanzi-clip-2)" d="M 204 450 L 210 444 L 240 445 L 322 457 L 335 468" fill="none" id="make-me-a-hanzi-animation-2" stroke-dasharray="266 532" stroke-linecap="round" />
    
      <clipPath id="make-me-a-hanzi-clip-3">
        <path d="M 341 348 L 321 353 L 319 353 Q 316 353 305 351 Q 292 348 289 348 L 203 338 L 195 337 C 165 333 165 327 193 315 L 205 310 Q 211 307 221 307 Q 231 308 261 310 L 341 315 C 371 317 370 341 341 348 Z" />
      </clipPath>
      <path clip-path="url(#make-me-a-hanzi-clip-3)" d="M 200 331 L 218 323 L 320 333 L 334 321" fill="none" id="make-me-a-hanzi-animation-3" stroke-dasharray="269 538" stroke-linecap="round" />
    
      <clipPath id="make-me-a-hanzi-clip-4">
        <path d="M 215 174 L 333 185 C 363 188 359 194 334 210 L 323 217 Q 317 220 303 220 Q 297 220 287 219 L 270 216 L 187 206 C 157 202 152 179 182 176 L 201 174 L 215 174 Z" />
      </clipPath>
      <path clip-path="url(#make-me-a-hanzi-clip-4)" d="M 188 183 L 201 191 L 300 201 L 314 201 L 325 192" fill="none" id="make-me-a-hanzi-animation-4" stroke-dasharray="271 542" stroke-linecap="round" />
    
      <clipPath id="make-me-a-hanzi-clip-5">
        <path d="M 201 174 L 197 160 L 194 146 Q 191 136 182 118 Q 173 100 161 80 Q 148 60 135 44 L 102 4 Q 82 -19 79 -22 L 67 -37 Q 64 -40 64 -43 Q 64 -45 65 -46 Q 66 -48 69 -48 Q 71 -48 75 -46 L 86 -42 Q 96 -37 134 -5 Q 171 26 175 30 Q 178 33 201 58 Q 224 84 235 99 Q 247 115 255 120 Q 263 124 265 127 Q 267 130 268 135 Q 268 142 262 147 Q 256 153 247 160 Q 237 166 231 169 Q 224 172 215 174 C 202 177 202 177 201 174 Z" />
      </clipPath>
      <path clip-path="url(#make-me-a-hanzi-clip-5)" d="M 208 164 L 225 136 L 189 79 L 133 13 L 69 -43" fill="none" id="make-me-a-hanzi-animation-5" stroke-dasharray="400 800" stroke-linecap="round" />
    
      <clipPath id="make-me-a-hanzi-clip-6">
        <path d="M 306 114 L 319 87 L 338 48 L 354 16 Q 363 -3 369 -12 Q 381 -30 390 -30 Q 399 -30 408 -18 Q 416 -9 416 10 L 416 14 Q 415 34 405 53 Q 396 72 375 90 Q 355 108 345 114 L 327 126 L 314 134 Q 308 137 305 137 Q 303 137 301 136 Q 299 134 299 131 Q 299 128 301 124 L 306 114 Z" />
      </clipPath>
      <path clip-path="url(#make-me-a-hanzi-clip-6)" d="M 304 132 L 370 53 L 388 12 L 390 -16" fill="none" id="make-me-a-hanzi-animation-6" stroke-dasharray="304 608" stroke-linecap="round" />
    
      <clipPath id="make-me-a-hanzi-clip-7">
        <path d="M 674 450 L 746 462 Q 769 465 803 468 L 843 472 Q 855 474 858 480 L 858 482 Q 858 488 847 496 Q 835 506 826 509 L 804 516 Q 791 520 784 520 Q 778 520 759 514 L 721 505 Q 703 499 702 499 L 671 492 L 623 480 L 556 466 Q 525 460 480 450 L 446 444 Q 429 440 427 436 L 427 435 Q 427 432 434 425 Q 442 417 452 413 Q 462 409 473 406 Q 483 403 490 403 L 494 403 Q 501 404 520 412 Q 539 420 564 427 Q 589 433 627 444 L 674 450 Z" />
      </clipPath>
      <path clip-path="url(#make-me-a-hanzi-clip-7)" d="M 432 436 L 488 427 L 593 455 L 774 492 L 814 491 L 852 481" fill="none" id="make-me-a-hanzi-animation-7" stroke-dasharray="557 1114" stroke-linecap="round" />
    
      <clipPath id="make-me-a-hanzi-clip-8">
        <path d="M 504 242 L 469 232 L 446 228 Q 427 224 423 222 Q 419 220 419 216 L 419 214 Q 419 210 427 206 Q 437 200 449 200 Q 460 200 472 201 Q 484 202 501 206 L 548 214 L 584 220 L 612 226 Q 623 228 629 232 Q 633 236 634 241 Q 634 245 627 250 Q 619 256 603 260 Q 587 263 579 263 Q 571 262 553 254 L 504 242 Z" />
      </clipPath>
      <path clip-path="url(#make-me-a-hanzi-clip-8)" d="M 427 215 L 477 217 L 593 243 L 624 241" fill="none" id="make-me-a-hanzi-animation-8" stroke-dasharray="328 656" stroke-linecap="round" />
    
      <clipPath id="make-me-a-hanzi-clip-9">
        <path d="M 501 206 L 499 190 Q 497 175 494 159 Q 490 144 481 120 Q 471 96 463 82 Q 455 68 448 60 L 441 50 Q 438 46 438 43 Q 438 42 439 40 Q 440 37 442 37 Q 445 37 451 42 L 461 50 Q 473 58 486 71 Q 499 84 513 105 Q 525 126 533 148 Q 539 170 543 186 Q 546 202 548 214 L 553 254 L 555 271 Q 555 274 557 287 Q 559 300 563 306 Q 568 317 568 322 L 568 324 Q 567 328 559 334 Q 551 340 538 344 L 513 351 Q 504 353 500 353 L 497 353 Q 487 350 487 345 Q 487 340 492 332 Q 498 324 500 316 Q 503 308 503 294 Q 503 282 504 268 L 504 242 L 501 206 Z" />
      </clipPath>
      <path clip-path="url(#make-me-a-hanzi-clip-9)" d="M 498 342 L 532 313 L 523 197 L 512 148 L 488 95 L 445 43" fill="none" id="make-me-a-hanzi-animation-9" stroke-dasharray="465 930" stroke-linecap="round" />
    
      <clipPath id="make-me-a-hanzi-clip-10">
        <path d="M 730 196 L 717 234 Q 705 271 695 318 Q 686 365 681 398 Q 677 432 674 450 L 671 492 L 665 591 Q 664 599 664 608 L 664 617 Q 665 632 667 643 Q 668 655 671 664 Q 675 675 675 680 Q 674 686 668 692 Q 661 698 645 704 Q 629 710 620 713 Q 610 716 595 718 Q 586 718 581 715 Q 575 712 575 707 Q 576 702 581 695 Q 585 688 589 676 Q 593 666 597 652 Q 601 640 604 622 L 623 480 L 627 444 L 631 415 Q 639 364 648 314 Q 657 264 669 222 Q 681 180 685 170 L 693 146 L 710 104 L 721 79 Q 731 57 749 28 Q 767 -2 783 -22 Q 799 -42 815 -59 Q 831 -76 850 -90 Q 869 -104 884 -112 Q 899 -120 913 -123 Q 927 -126 938 -126 L 943 -126 Q 956 -126 959 -122 Q 963 -116 963 -109 Q 963 -102 959 -88 Q 955 -76 951 -61 Q 947 -46 943 -20 Q 939 6 939 21 L 937 65 L 935 86 Q 935 92 931 93 L 930 93 Q 927 93 926 86 L 923 71 L 913 22 Q 907 -8 904 -20 Q 901 -32 893 -34 Q 890 -35 887 -35 Q 884 -35 880 -34 Q 873 -30 852 -11 Q 831 8 821 19 Q 812 30 796 54 L 771 97 Q 761 114 757 124 Q 753 134 747 147 L 730 196 Z" />
      </clipPath>
      <path clip-path="url(#make-me-a-hanzi-clip-10)" d="M 586 705 L 600 699 L 632 668 L 659 382 L 675 294 L 724 134 L 793 10 L 852 -52 L 888 -72 L 909 -75 L 921 -48 L 931 88" fill="none" id="make-me-a-hanzi-animation-10" stroke-dasharray="1188 2376" stroke-linecap="round" />
    
      <clipPath id="make-me-a-hanzi-clip-11">
        <path d="M 693 146 L 675 125 Q 663 111 627 81 Q 590 51 587 48 L 571 36 Q 566 32 566 29 Q 566 27 567 26 Q 569 24 572 24 Q 576 24 581 26 L 598 33 Q 617 40 644 56 Q 671 71 684 82 Q 697 92 710 104 L 747 147 L 769 175 Q 782 192 804 228 L 835 282 Q 846 300 857 311 Q 867 322 868 327 L 868 328 Q 868 337 857 347 Q 845 358 841 361 Q 836 364 821 372 Q 809 378 802 378 L 800 378 Q 793 376 791 373 Q 790 372 790 368 Q 790 364 791 358 Q 792 353 792 348 Q 792 340 790 332 Q 787 317 781 299 Q 775 282 763 256 Q 751 230 744 218 Q 737 206 730 196 L 693 146 Z" />
      </clipPath>
      <path clip-path="url(#make-me-a-hanzi-clip-11)" d="M 799 369 L 825 328 L 755 193 L 685 107 L 619 56 L 571 29" fill="none" id="make-me-a-hanzi-animation-11" stroke-dasharray="578 1156" stroke-linecap="round" />
    
      <clipPath id="make-me-a-hanzi-clip-12">
        <path d="M 745 628 Q 747 624 759 607 Q 771 590 779 581 Q 785 572 796 564 Q 805 555 812 555 L 814 555 Q 822 555 831 564 Q 839 572 840 591 L 840 595 Q 840 609 834 618 Q 828 628 817 634 Q 805 641 785 647 Q 764 653 755 654 L 743 656 L 741 656 Q 737 656 735 652 Q 733 650 733 648 Q 733 645 736 642 L 745 628 Z" />
      </clipPath>
      <path clip-path="url(#make-me-a-hanzi-clip-12)" d="M 739 647 L 805 602 L 813 572" fill="none" id="make-me-a-hanzi-animation-12" stroke-dasharray="239 478" stroke-linecap="round" />
    
  </g>
</svg>