<svg version="1.1" viewBox="0 0 1024 1024" xmlns="http://www.w3.org/2000/svg">
  <g stroke="lightgray" stroke-dasharray="1,1" stroke-width="1" transform="scale(4, 4)">
    <line x1="0" y1="0" x2="256" y2="256"></line>
    <line x1="256" y1="0" x2="0" y2="256"></line>
    <line x1="128" y1="0" x2="128" y2="256"></line>
    <line x1="0" y1="128" x2="256" y2="128"></line>
  </g>
  <g transform="scale(0.92, -0.92) translate(60, -830)">
    <style type="text/css">
      
        @keyframes keyframes0 {
          from {
            stroke: blue;
            stroke-dashoffset: 372;
            stroke-width: 128;
          }
          55% {
            animation-timing-function: step-end;
            stroke: blue;
            stroke-dashoffset: 0;
            stroke-width: 128;
          }
          to {
            stroke: black;
            stroke-width: 1024;
          }
        }
        #make-me-a-hanzi-animation-0 {
          animation: keyframes0 0.552734375s both;
          animation-delay: 0s;
          animation-timing-function: linear;
        }
      
        @keyframes keyframes1 {
          from {
            stroke: blue;
            stroke-dashoffset: 538;
            stroke-width: 128;
          }
          64% {
            animation-timing-function: step-end;
            stroke: blue;
            stroke-dashoffset: 0;
            stroke-width: 128;
          }
          to {
            stroke: black;
            stroke-width: 1024;
          }
        }
        #make-me-a-hanzi-animation-1 {
          animation: keyframes1 0.6878255208333334s both;
          animation-delay: 0.552734375s;
          animation-timing-function: linear;
        }
      
        @keyframes keyframes2 {
          from {
            stroke: blue;
            stroke-dashoffset: 374;
            stroke-width: 128;
          }
          55% {
            animation-timing-function: step-end;
            stroke: blue;
            stroke-dashoffset: 0;
            stroke-width: 128;
          }
          to {
            stroke: black;
            stroke-width: 1024;
          }
        }
        #make-me-a-hanzi-animation-2 {
          animation: keyframes2 0.5543619791666666s both;
          animation-delay: 1.2405598958333335s;
          animation-timing-function: linear;
        }
      
        @keyframes keyframes3 {
          from {
            stroke: blue;
            stroke-dashoffset: 387;
            stroke-width: 128;
          }
          56% {
            animation-timing-function: step-end;
            stroke: blue;
            stroke-dashoffset: 0;
            stroke-width: 128;
          }
          to {
            stroke: black;
            stroke-width: 1024;
          }
        }
        #make-me-a-hanzi-animation-3 {
          animation: keyframes3 0.56494140625s both;
          animation-delay: 1.794921875s;
          animation-timing-function: linear;
        }
      
        @keyframes keyframes4 {
          from {
            stroke: blue;
            stroke-dashoffset: 679;
            stroke-width: 128;
          }
          69% {
            animation-timing-function: step-end;
            stroke: blue;
            stroke-dashoffset: 0;
            stroke-width: 128;
          }
          to {
            stroke: black;
            stroke-width: 1024;
          }
        }
        #make-me-a-hanzi-animation-4 {
          animation: keyframes4 0.8025716145833334s both;
          animation-delay: 2.35986328125s;
          animation-timing-function: linear;
        }
      
        @keyframes keyframes5 {
          from {
            stroke: blue;
            stroke-dashoffset: 468;
            stroke-width: 128;
          }
          60% {
            animation-timing-function: step-end;
            stroke: blue;
            stroke-dashoffset: 0;
            stroke-width: 128;
          }
          to {
            stroke: black;
            stroke-width: 1024;
          }
        }
        #make-me-a-hanzi-animation-5 {
          animation: keyframes5 0.630859375s both;
          animation-delay: 3.1624348958333335s;
          animation-timing-function: linear;
        }
      
        @keyframes keyframes6 {
          from {
            stroke: blue;
            stroke-dashoffset: 653;
            stroke-width: 128;
          }
          68% {
            animation-timing-function: step-end;
            stroke: blue;
            stroke-dashoffset: 0;
            stroke-width: 128;
          }
          to {
            stroke: black;
            stroke-width: 1024;
          }
        }
        #make-me-a-hanzi-animation-6 {
          animation: keyframes6 0.7814127604166666s both;
          animation-delay: 3.7932942708333335s;
          animation-timing-function: linear;
        }
      
        @keyframes keyframes7 {
          from {
            stroke: blue;
            stroke-dashoffset: 404;
            stroke-width: 128;
          }
          57% {
            animation-timing-function: step-end;
            stroke: blue;
            stroke-dashoffset: 0;
            stroke-width: 128;
          }
          to {
            stroke: black;
            stroke-width: 1024;
          }
        }
        #make-me-a-hanzi-animation-7 {
          animation: keyframes7 0.5787760416666666s both;
          animation-delay: 4.57470703125s;
          animation-timing-function: linear;
        }
      
        @keyframes keyframes8 {
          from {
            stroke: blue;
            stroke-dashoffset: 388;
            stroke-width: 128;
          }
          56% {
            animation-timing-function: step-end;
            stroke: blue;
            stroke-dashoffset: 0;
            stroke-width: 128;
          }
          to {
            stroke: black;
            stroke-width: 1024;
          }
        }
        #make-me-a-hanzi-animation-8 {
          animation: keyframes8 0.5657552083333334s both;
          animation-delay: 5.153483072916667s;
          animation-timing-function: linear;
        }
      
        @keyframes keyframes9 {
          from {
            stroke: blue;
            stroke-dashoffset: 642;
            stroke-width: 128;
          }
          68% {
            animation-timing-function: step-end;
            stroke: blue;
            stroke-dashoffset: 0;
            stroke-width: 128;
          }
          to {
            stroke: black;
            stroke-width: 1024;
          }
        }
        #make-me-a-hanzi-animation-9 {
          animation: keyframes9 0.7724609375s both;
          animation-delay: 5.71923828125s;
          animation-timing-function: linear;
        }
      
        @keyframes keyframes10 {
          from {
            stroke: blue;
            stroke-dashoffset: 555;
            stroke-width: 128;
          }
          64% {
            animation-timing-function: step-end;
            stroke: blue;
            stroke-dashoffset: 0;
            stroke-width: 128;
          }
          to {
            stroke: black;
            stroke-width: 1024;
          }
        }
        #make-me-a-hanzi-animation-10 {
          animation: keyframes10 0.70166015625s both;
          animation-delay: 6.49169921875s;
          animation-timing-function: linear;
        }
      
        @keyframes keyframes11 {
          from {
            stroke: blue;
            stroke-dashoffset: 527;
            stroke-width: 128;
          }
          63% {
            animation-timing-function: step-end;
            stroke: blue;
            stroke-dashoffset: 0;
            stroke-width: 128;
          }
          to {
            stroke: black;
            stroke-width: 1024;
          }
        }
        #make-me-a-hanzi-animation-11 {
          animation: keyframes11 0.6788736979166666s both;
          animation-delay: 7.193359375s;
          animation-timing-function: linear;
        }
      
        @keyframes keyframes12 {
          from {
            stroke: blue;
            stroke-dashoffset: 780;
            stroke-width: 128;
          }
          72% {
            animation-timing-function: step-end;
            stroke: blue;
            stroke-dashoffset: 0;
            stroke-width: 128;
          }
          to {
            stroke: black;
            stroke-width: 1024;
          }
        }
        #make-me-a-hanzi-animation-12 {
          animation: keyframes12 0.884765625s both;
          animation-delay: 7.872233072916667s;
          animation-timing-function: linear;
        }
      
        @keyframes keyframes13 {
          from {
            stroke: blue;
            stroke-dashoffset: 663;
            stroke-width: 128;
          }
          68% {
            animation-timing-function: step-end;
            stroke: blue;
            stroke-dashoffset: 0;
            stroke-width: 128;
          }
          to {
            stroke: black;
            stroke-width: 1024;
          }
        }
        #make-me-a-hanzi-animation-13 {
          animation: keyframes13 0.78955078125s both;
          animation-delay: 8.756998697916668s;
          animation-timing-function: linear;
        }
      
        @keyframes keyframes14 {
          from {
            stroke: blue;
            stroke-dashoffset: 460;
            stroke-width: 128;
          }
          60% {
            animation-timing-function: step-end;
            stroke: blue;
            stroke-dashoffset: 0;
            stroke-width: 128;
          }
          to {
            stroke: black;
            stroke-width: 1024;
          }
        }
        #make-me-a-hanzi-animation-14 {
          animation: keyframes14 0.6243489583333334s both;
          animation-delay: 9.546549479166668s;
          animation-timing-function: linear;
        }
      
        @keyframes keyframes15 {
          from {
            stroke: blue;
            stroke-dashoffset: 310;
            stroke-width: 128;
          }
          50% {
            animation-timing-function: step-end;
            stroke: blue;
            stroke-dashoffset: 0;
            stroke-width: 128;
          }
          to {
            stroke: black;
            stroke-width: 1024;
          }
        }
        #make-me-a-hanzi-animation-15 {
          animation: keyframes15 0.5022786458333334s both;
          animation-delay: 10.170898437500002s;
          animation-timing-function: linear;
        }
      
        @keyframes keyframes16 {
          from {
            stroke: blue;
            stroke-dashoffset: 635;
            stroke-width: 128;
          }
          67% {
            animation-timing-function: step-end;
            stroke: blue;
            stroke-dashoffset: 0;
            stroke-width: 128;
          }
          to {
            stroke: black;
            stroke-width: 1024;
          }
        }
        #make-me-a-hanzi-animation-16 {
          animation: keyframes16 0.7667643229166666s both;
          animation-delay: 10.673177083333336s;
          animation-timing-function: linear;
        }
      
        @keyframes keyframes17 {
          from {
            stroke: blue;
            stroke-dashoffset: 535;
            stroke-width: 128;
          }
          64% {
            animation-timing-function: step-end;
            stroke: blue;
            stroke-dashoffset: 0;
            stroke-width: 128;
          }
          to {
            stroke: black;
            stroke-width: 1024;
          }
        }
        #make-me-a-hanzi-animation-17 {
          animation: keyframes17 0.6853841145833334s both;
          animation-delay: 11.439941406250002s;
          animation-timing-function: linear;
        }
      
        @keyframes keyframes18 {
          from {
            stroke: blue;
            stroke-dashoffset: 746;
            stroke-width: 128;
          }
          71% {
            animation-timing-function: step-end;
            stroke: blue;
            stroke-dashoffset: 0;
            stroke-width: 128;
          }
          to {
            stroke: black;
            stroke-width: 1024;
          }
        }
        #make-me-a-hanzi-animation-18 {
          animation: keyframes18 0.8570963541666666s both;
          animation-delay: 12.125325520833336s;
          animation-timing-function: linear;
        }
      
        @keyframes keyframes19 {
          from {
            stroke: blue;
            stroke-dashoffset: 451;
            stroke-width: 128;
          }
          59% {
            animation-timing-function: step-end;
            stroke: blue;
            stroke-dashoffset: 0;
            stroke-width: 128;
          }
          to {
            stroke: black;
            stroke-width: 1024;
          }
        }
        #make-me-a-hanzi-animation-19 {
          animation: keyframes19 0.6170247395833334s both;
          animation-delay: 12.982421875000002s;
          animation-timing-function: linear;
        }
      
        @keyframes keyframes20 {
          from {
            stroke: blue;
            stroke-dashoffset: 460;
            stroke-width: 128;
          }
          60% {
            animation-timing-function: step-end;
            stroke: blue;
            stroke-dashoffset: 0;
            stroke-width: 128;
          }
          to {
            stroke: black;
            stroke-width: 1024;
          }
        }
        #make-me-a-hanzi-animation-20 {
          animation: keyframes20 0.6243489583333334s both;
          animation-delay: 13.599446614583336s;
          animation-timing-function: linear;
        }
      
        @keyframes keyframes21 {
          from {
            stroke: blue;
            stroke-dashoffset: 460;
            stroke-width: 128;
          }
          60% {
            animation-timing-function: step-end;
            stroke: blue;
            stroke-dashoffset: 0;
            stroke-width: 128;
          }
          to {
            stroke: black;
            stroke-width: 1024;
          }
        }
        #make-me-a-hanzi-animation-21 {
          animation: keyframes21 0.6243489583333334s both;
          animation-delay: 14.22379557291667s;
          animation-timing-function: linear;
        }
      
        @keyframes keyframes22 {
          from {
            stroke: blue;
            stroke-dashoffset: 504;
            stroke-width: 128;
          }
          62% {
            animation-timing-function: step-end;
            stroke: blue;
            stroke-dashoffset: 0;
            stroke-width: 128;
          }
          to {
            stroke: black;
            stroke-width: 1024;
          }
        }
        #make-me-a-hanzi-animation-22 {
          animation: keyframes22 0.66015625s both;
          animation-delay: 14.848144531250004s;
          animation-timing-function: linear;
        }
      
        @keyframes keyframes23 {
          from {
            stroke: blue;
            stroke-dashoffset: 440;
            stroke-width: 128;
          }
          59% {
            animation-timing-function: step-end;
            stroke: blue;
            stroke-dashoffset: 0;
            stroke-width: 128;
          }
          to {
            stroke: black;
            stroke-width: 1024;
          }
        }
        #make-me-a-hanzi-animation-23 {
          animation: keyframes23 0.6080729166666666s both;
          animation-delay: 15.508300781250004s;
          animation-timing-function: linear;
        }
      
    </style>
    
      <path d="M 335 614 L 347 630 Q 347 632 349 641 Q 351 649 351 655 Q 351 662 349 668 Q 347 680 342 686 Q 337 692 323 700 Q 309 708 303 710 Q 297 714 287 718 L 276 722 Q 269 724 265 724 Q 262 724 261 723 Q 259 721 259 716 Q 259 712 262 706 L 267 697 Q 269 694 275 680 Q 281 666 293 647 Q 304 628 309 623 Q 315 618 327 612 C 332 610 332 610 335 614 Z" fill="lightgray"></path>
    
      <path d="M 387 584 L 429 592 Q 443 594 454 599 Q 464 604 464 608 L 464 609 Q 463 614 455 618 Q 447 622 436 625 Q 425 628 416 630 Q 410 631 405 631 L 400 631 L 377 625 L 335 614 L 327 612 L 295 607 Q 275 603 243 598 Q 212 594 201 593 L 183 592 Q 173 591 171 588 L 171 586 Q 171 583 175 578 Q 181 572 191 570 Q 199 568 214 565 L 235 564 L 255 566 Q 259 566 287 570 Q 315 573 326 574 Q 337 576 363 580 L 387 584 Z" fill="lightgray"></path>
    
      <path d="M 214 565 L 221 546 L 228 528 Q 229 524 235 505 Q 241 487 245 476 Q 248 465 250 460 Q 252 456 257 448 C 273 422 277 423 283 452 L 289 481 Q 289 486 285 498 Q 281 510 275 522 Q 268 533 261 540 Q 255 548 247 554 Q 241 560 235 564 C 211 581 207 584 214 565 Z" fill="lightgray"></path>
    
      <path d="M 365 468 L 387 498 L 398 515 Q 409 531 412 536 Q 415 540 419 544 L 425 550 L 425 552 Q 425 557 418 564 Q 410 572 404 576 Q 398 579 387 584 C 360 596 358 597 363 580 L 365 573 L 365 560 Q 365 554 363 542 Q 362 532 360 524 Q 359 516 353 498 Q 347 480 346 475 Q 345 470 342 463 C 331 435 347 444 365 468 Z" fill="lightgray"></path>
    
      <path d="M 257 448 L 219 441 Q 211 440 174 434 Q 138 429 122 427 L 83 422 L 67 420 Q 58 418 57 412 Q 57 404 67 397 Q 77 389 84 385 Q 91 381 103 377 Q 114 374 122 374 Q 127 375 141 381 L 173 392 Q 191 396 215 402 Q 241 408 277 415 Q 316 422 335 426 L 393 434 L 451 442 L 483 446 Q 491 446 491 452 Q 491 458 484 464 Q 477 470 467 473 Q 457 476 448 478 Q 439 479 428 479 Q 417 478 409 477 Q 401 476 393 474 Q 385 472 365 468 L 342 463 L 323 460 L 303 456 Q 296 454 283 452 L 257 448 Z" fill="lightgray"></path>
    
      <path d="M 210 343 L 189 349 Q 186 350 177 351 Q 169 353 165 353 Q 161 352 159 350 Q 158 349 158 346 L 158 343 Q 160 338 169 328 Q 177 319 181 308 Q 185 298 187 287 L 199 201 Q 203 170 205 165 Q 206 159 211 153 Q 218 144 222 144 L 223 144 Q 228 146 231 151 Q 233 156 235 163 L 236 185 L 231 238 L 227 262 L 221 325 C 220 340 220 340 210 343 Z" fill="lightgray"></path>
    
      <path d="M 371 180 L 375 173 Q 376 168 383 166 Q 385 165 387 165 Q 391 165 396 168 Q 403 172 407 178 Q 411 185 415 197 L 439 288 Q 441 294 446 311 Q 452 328 457 336 Q 463 344 463 347 Q 463 354 457 360 Q 451 367 433 376 Q 417 386 409 389 Q 401 392 391 392 Q 383 390 368 385 Q 353 379 338 374 Q 324 368 308 364 Q 293 360 278 357 L 210 343 C 181 337 191 322 221 325 L 247 328 Q 257 330 280 335 Q 303 340 313 343 L 343 351 Q 359 354 373 356 Q 380 356 384 355 Q 388 353 390 348 Q 392 346 392 340 Q 392 336 391 331 L 387 283 L 384 266 L 379 228 Q 377 224 373 200 C 370 182 370 182 371 180 Z" fill="lightgray"></path>
    
      <path d="M 387 283 L 373 287 Q 367 288 358 288 Q 349 288 325 282 Q 301 276 283 272 Q 265 268 253 266 Q 242 264 227 262 C 197 258 201 241 231 238 L 241 237 L 243 237 Q 247 237 255 238 Q 265 241 288 245 L 334 255 Q 358 260 384 266 C 413 273 416 275 387 283 Z" fill="lightgray"></path>
    
      <path d="M 318 174 L 347 178 Q 351 178 371 180 C 401 183 402 193 373 200 L 364 202 Q 357 204 352 204 Q 347 204 341 202 Q 333 201 309 197 L 273 190 Q 261 188 236 185 C 206 181 205 159 235 163 L 259 166 Q 261 166 271 168 L 318 174 Z" fill="lightgray"></path>
    
      <path d="M 287 104 L 262 99 L 229 92 Q 219 90 183 84 Q 146 78 132 76 Q 119 74 97 71 L 81 69 Q 72 68 71 60 L 71 58 Q 71 52 80 46 L 99 35 Q 108 30 118 26 Q 127 24 137 24 Q 143 25 157 31 Q 171 38 185 42 L 221 52 L 257 62 Q 269 64 285 68 L 326 76 L 349 79 L 373 83 L 431 92 L 461 96 Q 469 97 469 103 Q 469 109 463 114 Q 456 120 445 123 Q 435 126 426 128 Q 422 129 417 129 Q 412 129 407 128 Q 397 128 387 126 L 358 120 Q 340 116 329 113 L 287 104 Z" fill="lightgray"></path>
    
      <path d="M 271 168 L 279 152 Q 282 146 283 133 Q 285 120 287 104 L 285 68 L 283 24 L 281 -20 Q 279 -42 275 -58 Q 271 -72 271 -76 L 271 -80 Q 271 -85 272 -90 Q 275 -96 279 -108 Q 283 -118 288 -123 Q 293 -129 298 -129 L 299 -129 Q 305 -129 310 -118 Q 315 -106 317 -93 Q 319 -79 319 -52 Q 321 -24 321 -16 L 326 76 L 329 113 L 331 133 Q 331 135 335 145 Q 337 152 337 156 Q 337 161 331 166 Q 325 170 318 174 C 292 189 258 195 271 168 Z" fill="lightgray"></path>
    
      <path d="M 623 656 L 633 668 L 645 686 Q 661 698 661 700 Q 662 702 662 704 Q 662 708 660 713 Q 657 722 645 730 L 623 744 Q 612 750 607 750 Q 603 750 600 748 Q 598 746 596 731 Q 593 716 592 710 Q 591 704 583 681 Q 575 658 568 644 Q 561 630 552 615 L 529 581 Q 517 563 511 555 Q 505 546 495 533 L 489 526 Q 486 522 486 520 Q 486 519 487 518 Q 489 517 490 517 Q 492 517 494 518 L 503 524 Q 511 528 523 537 Q 535 546 547 556 L 569 576 L 583 595 L 597 612 L 609 630 L 623 656 Z" fill="lightgray"></path>
    
      <path d="M 647 540 L 639 532 Q 626 518 607 504 Q 589 490 561 473 Q 533 456 519 449 L 485 432 L 475 427 Q 471 425 471 420 Q 471 416 474 416 Q 475 416 477 417 L 489 420 Q 506 424 519 428 Q 533 433 560 446 Q 587 458 611 472 Q 635 486 681 520 L 706 546 L 733 576 Q 743 588 760 604 Q 777 620 789 628 Q 800 636 803 640 Q 807 643 807 647 Q 807 650 801 657 Q 794 664 783 672 L 764 683 Q 755 688 751 688 L 749 688 Q 743 688 732 684 Q 719 678 701 673 L 669 664 Q 660 662 648 660 L 623 656 C 593 651 579 628 609 630 L 635 632 Q 641 632 661 634 L 685 638 L 707 642 Q 711 643 714 643 Q 718 643 720 642 Q 725 641 726 639 L 726 637 Q 726 635 724 630 Q 721 624 716 617 Q 711 610 698 594 Q 686 578 672 561 L 647 540 Z" fill="lightgray"></path>
    
      <path d="M 569 576 L 615 557 Q 619 555 647 540 L 681 520 L 723 494 L 770 466 Q 797 450 809 446 Q 822 444 838 444 Q 855 444 885 450 Q 915 456 937 460 L 960 466 Q 966 468 966 472 L 966 473 Q 966 478 960 479 L 937 483 L 895 490 Q 853 496 817 506 Q 779 516 755 526 Q 729 536 706 546 L 672 561 L 635 578 Q 625 582 583 595 C 554 604 541 587 569 576 Z" fill="lightgray"></path>
    
      <path d="M 683 415 L 723 422 L 745 426 L 759 430 Q 765 430 767 434 Q 767 438 764 443 Q 760 447 748 452 Q 736 456 729 458 Q 726 459 723 459 Q 719 459 715 458 Q 711 458 697 452 Q 683 446 667 443 L 639 438 L 605 432 L 575 429 L 565 428 L 556 426 Q 553 424 553 422 Q 553 420 562 414 Q 571 408 583 405 Q 591 403 598 403 L 603 403 Q 606 403 618 405 Q 629 407 643 408 L 683 415 Z" fill="lightgray"></path>
    
      <path d="M 681 364 L 683 415 C 684 445 645 438 643 408 L 639 359 C 637 329 680 334 681 364 Z" fill="lightgray"></path>
    
      <path d="M 639 359 L 620 356 L 599 353 Q 575 349 554 348 L 515 344 L 497 342 Q 488 342 487 339 Q 486 338 486 337 Q 486 334 489 331 Q 493 326 503 322 Q 512 316 524 313 Q 536 310 545 310 Q 549 310 561 314 Q 573 318 599 323 Q 625 328 640 330 Q 655 332 708 337 Q 761 341 775 341 Q 782 342 793 342 Q 803 342 817 341 L 839 340 Q 863 340 869 343 Q 875 346 875 351 Q 875 355 869 360 Q 863 366 855 371 Q 847 376 834 380 Q 825 383 816 383 Q 812 383 807 382 Q 805 382 789 379 Q 773 376 745 372 L 707 367 L 681 364 L 639 359 Z" fill="lightgray"></path>
    
      <path d="M 559 266 L 546 272 Q 539 275 525 278 Q 517 278 513 277 Q 509 275 508 272 L 508 269 Q 508 267 509 266 Q 510 264 516 259 Q 522 254 525 240 Q 528 226 529 212 Q 530 206 530 198 Q 530 190 529 180 L 527 140 Q 525 111 521 90 Q 516 68 516 62 L 516 57 Q 516 47 519 37 Q 523 24 530 14 Q 538 1 542 1 L 543 1 Q 547 2 550 8 Q 553 14 555 22 L 557 50 L 559 102 L 560 121 L 563 166 L 563 189 L 566 248 C 567 262 567 262 559 266 Z" fill="lightgray"></path>
    
      <path d="M 765 36 L 772 18 Q 779 3 783 2 Q 786 1 788 1 Q 792 1 795 3 Q 801 6 808 18 Q 815 30 817 42 Q 820 54 820 92 L 819 189 Q 819 203 820 219 Q 821 234 824 242 L 831 256 Q 833 262 833 268 Q 833 274 818 284 Q 804 294 790 301 Q 776 307 771 308 L 766 308 Q 759 308 753 306 L 737 300 Q 730 298 701 292 L 661 284 L 559 266 C 529 261 536 245 566 248 L 635 256 Q 645 257 676 261 Q 706 266 719 266 L 729 267 L 741 268 Q 749 268 753 264 Q 757 262 761 256 Q 764 251 765 242 L 766 211 L 767 192 L 769 165 L 769 138 L 769 120 L 769 90 Q 769 85 768 78 Q 767 70 765 58 L 765 36 Z" fill="lightgray"></path>
    
      <path d="M 563 166 L 583 165 L 586 165 Q 594 165 617 169 Q 645 174 678 177 Q 711 180 718 182 Q 725 183 736 186 Q 747 188 767 192 C 796 198 795 204 766 211 L 753 214 Q 745 215 739 215 L 734 215 Q 727 214 715 212 Q 702 209 686 206 Q 669 204 657 202 L 625 198 L 575 190 Q 571 190 563 189 C 533 186 533 167 563 166 Z" fill="lightgray"></path>
    
      <path d="M 559 102 L 568 98 Q 575 96 587 96 Q 601 96 624 100 Q 647 103 679 106 L 718 111 Q 727 112 738 114 Q 749 116 769 120 C 798 126 798 131 769 138 L 753 142 Q 740 144 734 144 Q 729 144 717 141 Q 706 138 688 136 Q 671 133 654 131 Q 638 128 618 126 L 583 123 Q 572 122 569 121 L 560 121 C 530 121 532 114 559 102 Z" fill="lightgray"></path>
    
      <path d="M 607 26 L 765 36 C 795 38 792 45 765 58 L 753 64 Q 748 67 733 67 L 723 67 Q 712 67 698 66 L 657 60 Q 653 60 619 56 Q 586 52 557 50 C 527 48 525 20 555 22 L 590 24 L 607 26 Z" fill="lightgray"></path>
    
      <path d="M 590 24 L 583 6 Q 581 2 575 -8 Q 568 -19 558 -31 L 532 -60 L 503 -90 Q 491 -102 475 -115 Q 459 -128 455 -132 L 445 -141 Q 441 -145 441 -148 Q 441 -149 442 -150 Q 444 -152 446 -152 Q 449 -152 453 -150 L 463 -144 L 484 -134 Q 499 -127 520 -114 Q 541 -100 560 -86 L 603 -54 L 626 -36 Q 632 -32 637 -30 L 647 -26 Q 651 -24 653 -20 Q 654 -18 654 -17 Q 654 -13 651 -8 Q 647 -2 635 8 Q 624 17 620 19 Q 617 22 607 26 C 593 32 593 32 590 24 Z" fill="lightgray"></path>
    
      <path d="M 719 2 Q 718 3 716 3 Q 714 3 712 0 Q 711 -1 711 -3 Q 711 -6 714 -10 L 726 -24 L 755 -58 L 789 -100 Q 807 -124 816 -133 Q 829 -147 838 -147 Q 847 -146 855 -138 Q 863 -130 865 -115 Q 865 -98 857 -82 Q 849 -66 830 -53 Q 810 -40 794 -31 Q 778 -22 761 -14 Q 745 -6 738 -4 L 719 2 Z" fill="lightgray"></path>
    
    
      <clipPath id="make-me-a-hanzi-clip-0">
        <path d="M 335 614 L 347 630 Q 347 632 349 641 Q 351 649 351 655 Q 351 662 349 668 Q 347 680 342 686 Q 337 692 323 700 Q 309 708 303 710 Q 297 714 287 718 L 276 722 Q 269 724 265 724 Q 262 724 261 723 Q 259 721 259 716 Q 259 712 262 706 L 267 697 Q 269 694 275 680 Q 281 666 293 647 Q 304 628 309 623 Q 315 618 327 612 C 332 610 332 610 335 614 Z"></path>
      </clipPath>
      <path clip-path="url(#make-me-a-hanzi-clip-0)" d="M 264 718 L 318 665 L 328 626" fill="none" id="make-me-a-hanzi-animation-0" stroke-dasharray="244 488" stroke-linecap="round"></path>
    
      <clipPath id="make-me-a-hanzi-clip-1">
        <path d="M 387 584 L 429 592 Q 443 594 454 599 Q 464 604 464 608 L 464 609 Q 463 614 455 618 Q 447 622 436 625 Q 425 628 416 630 Q 410 631 405 631 L 400 631 L 377 625 L 335 614 L 327 612 L 295 607 Q 275 603 243 598 Q 212 594 201 593 L 183 592 Q 173 591 171 588 L 171 586 Q 171 583 175 578 Q 181 572 191 570 Q 199 568 214 565 L 235 564 L 255 566 Q 259 566 287 570 Q 315 573 326 574 Q 337 576 363 580 L 387 584 Z"></path>
      </clipPath>
      <path clip-path="url(#make-me-a-hanzi-clip-1)" d="M 178 587 L 183 582 L 231 580 L 400 609 L 455 609" fill="none" id="make-me-a-hanzi-animation-1" stroke-dasharray="410 820" stroke-linecap="round"></path>
    
      <clipPath id="make-me-a-hanzi-clip-2">
        <path d="M 214 565 L 221 546 L 228 528 Q 229 524 235 505 Q 241 487 245 476 Q 248 465 250 460 Q 252 456 257 448 C 273 422 277 423 283 452 L 289 481 Q 289 486 285 498 Q 281 510 275 522 Q 268 533 261 540 Q 255 548 247 554 Q 241 560 235 564 C 211 581 207 584 214 565 Z"></path>
      </clipPath>
      <path clip-path="url(#make-me-a-hanzi-clip-2)" d="M 219 561 L 245 533 L 262 496 L 267 469 L 275 461" fill="none" id="make-me-a-hanzi-animation-2" stroke-dasharray="246 492" stroke-linecap="round"></path>
    
      <clipPath id="make-me-a-hanzi-clip-3">
        <path d="M 365 468 L 387 498 L 398 515 Q 409 531 412 536 Q 415 540 419 544 L 425 550 L 425 552 Q 425 557 418 564 Q 410 572 404 576 Q 398 579 387 584 C 360 596 358 597 363 580 L 365 573 L 365 560 Q 365 554 363 542 Q 362 532 360 524 Q 359 516 353 498 Q 347 480 346 475 Q 345 470 342 463 C 331 435 347 444 365 468 Z"></path>
      </clipPath>
      <path clip-path="url(#make-me-a-hanzi-clip-3)" d="M 369 578 L 391 553 L 360 479 L 347 468" fill="none" id="make-me-a-hanzi-animation-3" stroke-dasharray="259 518" stroke-linecap="round"></path>
    
      <clipPath id="make-me-a-hanzi-clip-4">
        <path d="M 257 448 L 219 441 Q 211 440 174 434 Q 138 429 122 427 L 83 422 L 67 420 Q 58 418 57 412 Q 57 404 67 397 Q 77 389 84 385 Q 91 381 103 377 Q 114 374 122 374 Q 127 375 141 381 L 173 392 Q 191 396 215 402 Q 241 408 277 415 Q 316 422 335 426 L 393 434 L 451 442 L 483 446 Q 491 446 491 452 Q 491 458 484 464 Q 477 470 467 473 Q 457 476 448 478 Q 439 479 428 479 Q 417 478 409 477 Q 401 476 393 474 Q 385 472 365 468 L 342 463 L 323 460 L 303 456 Q 296 454 283 452 L 257 448 Z"></path>
      </clipPath>
      <path clip-path="url(#make-me-a-hanzi-clip-4)" d="M 66 411 L 113 400 L 408 457 L 449 460 L 482 455" fill="none" id="make-me-a-hanzi-animation-4" stroke-dasharray="551 1102" stroke-linecap="round"></path>
    
      <clipPath id="make-me-a-hanzi-clip-5">
        <path d="M 210 343 L 189 349 Q 186 350 177 351 Q 169 353 165 353 Q 161 352 159 350 Q 158 349 158 346 L 158 343 Q 160 338 169 328 Q 177 319 181 308 Q 185 298 187 287 L 199 201 Q 203 170 205 165 Q 206 159 211 153 Q 218 144 222 144 L 223 144 Q 228 146 231 151 Q 233 156 235 163 L 236 185 L 231 238 L 227 262 L 221 325 C 220 340 220 340 210 343 Z"></path>
      </clipPath>
      <path clip-path="url(#make-me-a-hanzi-clip-5)" d="M 165 347 L 202 315 L 223 153" fill="none" id="make-me-a-hanzi-animation-5" stroke-dasharray="340 680" stroke-linecap="round"></path>
    
      <clipPath id="make-me-a-hanzi-clip-6">
        <path d="M 371 180 L 375 173 Q 376 168 383 166 Q 385 165 387 165 Q 391 165 396 168 Q 403 172 407 178 Q 411 185 415 197 L 439 288 Q 441 294 446 311 Q 452 328 457 336 Q 463 344 463 347 Q 463 354 457 360 Q 451 367 433 376 Q 417 386 409 389 Q 401 392 391 392 Q 383 390 368 385 Q 353 379 338 374 Q 324 368 308 364 Q 293 360 278 357 L 210 343 C 181 337 191 322 221 325 L 247 328 Q 257 330 280 335 Q 303 340 313 343 L 343 351 Q 359 354 373 356 Q 380 356 384 355 Q 388 353 390 348 Q 392 346 392 340 Q 392 336 391 331 L 387 283 L 384 266 L 379 228 Q 377 224 373 200 C 370 182 370 182 371 180 Z"></path>
      </clipPath>
      <path clip-path="url(#make-me-a-hanzi-clip-6)" d="M 217 341 L 227 335 L 239 337 L 380 372 L 394 372 L 414 359 L 425 344 L 388 177" fill="none" id="make-me-a-hanzi-animation-6" stroke-dasharray="525 1050" stroke-linecap="round"></path>
    
      <clipPath id="make-me-a-hanzi-clip-7">
        <path d="M 387 283 L 373 287 Q 367 288 358 288 Q 349 288 325 282 Q 301 276 283 272 Q 265 268 253 266 Q 242 264 227 262 C 197 258 201 241 231 238 L 241 237 L 243 237 Q 247 237 255 238 Q 265 241 288 245 L 334 255 Q 358 260 384 266 C 413 273 416 275 387 283 Z"></path>
      </clipPath>
      <path clip-path="url(#make-me-a-hanzi-clip-7)" d="M 235 257 L 256 252 L 379 280" fill="none" id="make-me-a-hanzi-animation-7" stroke-dasharray="276 552" stroke-linecap="round"></path>
    
      <clipPath id="make-me-a-hanzi-clip-8">
        <path d="M 318 174 L 347 178 Q 351 178 371 180 C 401 183 402 193 373 200 L 364 202 Q 357 204 352 204 Q 347 204 341 202 Q 333 201 309 197 L 273 190 Q 261 188 236 185 C 206 181 205 159 235 163 L 259 166 Q 261 166 271 168 L 318 174 Z"></path>
      </clipPath>
      <path clip-path="url(#make-me-a-hanzi-clip-8)" d="M 240 168 L 247 176 L 367 196" fill="none" id="make-me-a-hanzi-animation-8" stroke-dasharray="260 520" stroke-linecap="round"></path>
    
      <clipPath id="make-me-a-hanzi-clip-9">
        <path d="M 287 104 L 262 99 L 229 92 Q 219 90 183 84 Q 146 78 132 76 Q 119 74 97 71 L 81 69 Q 72 68 71 60 L 71 58 Q 71 52 80 46 L 99 35 Q 108 30 118 26 Q 127 24 137 24 Q 143 25 157 31 Q 171 38 185 42 L 221 52 L 257 62 Q 269 64 285 68 L 326 76 L 349 79 L 373 83 L 431 92 L 461 96 Q 469 97 469 103 Q 469 109 463 114 Q 456 120 445 123 Q 435 126 426 128 Q 422 129 417 129 Q 412 129 407 128 Q 397 128 387 126 L 358 120 Q 340 116 329 113 L 287 104 Z"></path>
      </clipPath>
      <path clip-path="url(#make-me-a-hanzi-clip-9)" d="M 81 59 L 133 50 L 384 106 L 426 110 L 460 105" fill="none" id="make-me-a-hanzi-animation-9" stroke-dasharray="514 1028" stroke-linecap="round"></path>
    
      <clipPath id="make-me-a-hanzi-clip-10">
        <path d="M 271 168 L 279 152 Q 282 146 283 133 Q 285 120 287 104 L 285 68 L 283 24 L 281 -20 Q 279 -42 275 -58 Q 271 -72 271 -76 L 271 -80 Q 271 -85 272 -90 Q 275 -96 279 -108 Q 283 -118 288 -123 Q 293 -129 298 -129 L 299 -129 Q 305 -129 310 -118 Q 315 -106 317 -93 Q 319 -79 319 -52 Q 321 -24 321 -16 L 326 76 L 329 113 L 331 133 Q 331 135 335 145 Q 337 152 337 156 Q 337 161 331 166 Q 325 170 318 174 C 292 189 258 195 271 168 Z"></path>
      </clipPath>
      <path clip-path="url(#make-me-a-hanzi-clip-10)" d="M 279 167 L 308 146 L 295 -69 L 299 -117" fill="none" id="make-me-a-hanzi-animation-10" stroke-dasharray="427 854" stroke-linecap="round"></path>
    
      <clipPath id="make-me-a-hanzi-clip-11">
        <path d="M 623 656 L 633 668 L 645 686 Q 661 698 661 700 Q 662 702 662 704 Q 662 708 660 713 Q 657 722 645 730 L 623 744 Q 612 750 607 750 Q 603 750 600 748 Q 598 746 596 731 Q 593 716 592 710 Q 591 704 583 681 Q 575 658 568 644 Q 561 630 552 615 L 529 581 Q 517 563 511 555 Q 505 546 495 533 L 489 526 Q 486 522 486 520 Q 486 519 487 518 Q 489 517 490 517 Q 492 517 494 518 L 503 524 Q 511 528 523 537 Q 535 546 547 556 L 569 576 L 583 595 L 597 612 L 609 630 L 623 656 Z"></path>
      </clipPath>
      <path clip-path="url(#make-me-a-hanzi-clip-11)" d="M 605 743 L 623 708 L 589 637 L 543 572 L 490 521" fill="none" id="make-me-a-hanzi-animation-11" stroke-dasharray="399 798" stroke-linecap="round"></path>
    
      <clipPath id="make-me-a-hanzi-clip-12">
        <path d="M 647 540 L 639 532 Q 626 518 607 504 Q 589 490 561 473 Q 533 456 519 449 L 485 432 L 475 427 Q 471 425 471 420 Q 471 416 474 416 Q 475 416 477 417 L 489 420 Q 506 424 519 428 Q 533 433 560 446 Q 587 458 611 472 Q 635 486 681 520 L 706 546 L 733 576 Q 743 588 760 604 Q 777 620 789 628 Q 800 636 803 640 Q 807 643 807 647 Q 807 650 801 657 Q 794 664 783 672 L 764 683 Q 755 688 751 688 L 749 688 Q 743 688 732 684 Q 719 678 701 673 L 669 664 Q 660 662 648 660 L 623 656 C 593 651 579 628 609 630 L 635 632 Q 641 632 661 634 L 685 638 L 707 642 Q 711 643 714 643 Q 718 643 720 642 Q 725 641 726 639 L 726 637 Q 726 635 724 630 Q 721 624 716 617 Q 711 610 698 594 Q 686 578 672 561 L 647 540 Z"></path>
      </clipPath>
      <path clip-path="url(#make-me-a-hanzi-clip-12)" d="M 615 635 L 631 645 L 711 660 L 748 658 L 759 647 L 715 583 L 627 499 L 533 443 L 475 420" fill="none" id="make-me-a-hanzi-animation-12" stroke-dasharray="652 1304" stroke-linecap="round"></path>
    
      <clipPath id="make-me-a-hanzi-clip-13">
        <path d="M 569 576 L 615 557 Q 619 555 647 540 L 681 520 L 723 494 L 770 466 Q 797 450 809 446 Q 822 444 838 444 Q 855 444 885 450 Q 915 456 937 460 L 960 466 Q 966 468 966 472 L 966 473 Q 966 478 960 479 L 937 483 L 895 490 Q 853 496 817 506 Q 779 516 755 526 Q 729 536 706 546 L 672 561 L 635 578 Q 625 582 583 595 C 554 604 541 587 569 576 Z"></path>
      </clipPath>
      <path clip-path="url(#make-me-a-hanzi-clip-13)" d="M 576 578 L 606 576 L 819 475 L 855 470 L 960 473" fill="none" id="make-me-a-hanzi-animation-13" stroke-dasharray="535 1070" stroke-linecap="round"></path>
    
      <clipPath id="make-me-a-hanzi-clip-14">
        <path d="M 683 415 L 723 422 L 745 426 L 759 430 Q 765 430 767 434 Q 767 438 764 443 Q 760 447 748 452 Q 736 456 729 458 Q 726 459 723 459 Q 719 459 715 458 Q 711 458 697 452 Q 683 446 667 443 L 639 438 L 605 432 L 575 429 L 565 428 L 556 426 Q 553 424 553 422 Q 553 420 562 414 Q 571 408 583 405 Q 591 403 598 403 L 603 403 Q 606 403 618 405 Q 629 407 643 408 L 683 415 Z"></path>
      </clipPath>
      <path clip-path="url(#make-me-a-hanzi-clip-14)" d="M 560 420 L 609 417 L 721 441 L 761 437" fill="none" id="make-me-a-hanzi-animation-14" stroke-dasharray="332 664" stroke-linecap="round"></path>
    
      <clipPath id="make-me-a-hanzi-clip-15">
        <path d="M 681 364 L 683 415 C 684 445 645 438 643 408 L 639 359 C 637 329 680 334 681 364 Z"></path>
      </clipPath>
      <path clip-path="url(#make-me-a-hanzi-clip-15)" d="M 677 409 L 645 365" fill="none" id="make-me-a-hanzi-animation-15" stroke-dasharray="182 364" stroke-linecap="round"></path>
    
      <clipPath id="make-me-a-hanzi-clip-16">
        <path d="M 639 359 L 620 356 L 599 353 Q 575 349 554 348 L 515 344 L 497 342 Q 488 342 487 339 Q 486 338 486 337 Q 486 334 489 331 Q 493 326 503 322 Q 512 316 524 313 Q 536 310 545 310 Q 549 310 561 314 Q 573 318 599 323 Q 625 328 640 330 Q 655 332 708 337 Q 761 341 775 341 Q 782 342 793 342 Q 803 342 817 341 L 839 340 Q 863 340 869 343 Q 875 346 875 351 Q 875 355 869 360 Q 863 366 855 371 Q 847 376 834 380 Q 825 383 816 383 Q 812 383 807 382 Q 805 382 789 379 Q 773 376 745 372 L 707 367 L 681 364 L 639 359 Z"></path>
      </clipPath>
      <path clip-path="url(#make-me-a-hanzi-clip-16)" d="M 491 336 L 541 328 L 648 346 L 807 362 L 866 352" fill="none" id="make-me-a-hanzi-animation-16" stroke-dasharray="507 1014" stroke-linecap="round"></path>
    
      <clipPath id="make-me-a-hanzi-clip-17">
        <path d="M 559 266 L 546 272 Q 539 275 525 278 Q 517 278 513 277 Q 509 275 508 272 L 508 269 Q 508 267 509 266 Q 510 264 516 259 Q 522 254 525 240 Q 528 226 529 212 Q 530 206 530 198 Q 530 190 529 180 L 527 140 Q 525 111 521 90 Q 516 68 516 62 L 516 57 Q 516 47 519 37 Q 523 24 530 14 Q 538 1 542 1 L 543 1 Q 547 2 550 8 Q 553 14 555 22 L 557 50 L 559 102 L 560 121 L 563 166 L 563 189 L 566 248 C 567 262 567 262 559 266 Z"></path>
      </clipPath>
      <path clip-path="url(#make-me-a-hanzi-clip-17)" d="M 515 271 L 536 258 L 546 242 L 548 197 L 537 77 L 543 7" fill="none" id="make-me-a-hanzi-animation-17" stroke-dasharray="407 814" stroke-linecap="round"></path>
    
      <clipPath id="make-me-a-hanzi-clip-18">
        <path d="M 765 36 L 772 18 Q 779 3 783 2 Q 786 1 788 1 Q 792 1 795 3 Q 801 6 808 18 Q 815 30 817 42 Q 820 54 820 92 L 819 189 Q 819 203 820 219 Q 821 234 824 242 L 831 256 Q 833 262 833 268 Q 833 274 818 284 Q 804 294 790 301 Q 776 307 771 308 L 766 308 Q 759 308 753 306 L 737 300 Q 730 298 701 292 L 661 284 L 559 266 C 529 261 536 245 566 248 L 635 256 Q 645 257 676 261 Q 706 266 719 266 L 729 267 L 741 268 Q 749 268 753 264 Q 757 262 761 256 Q 764 251 765 242 L 766 211 L 767 192 L 769 165 L 769 138 L 769 120 L 769 90 Q 769 85 768 78 Q 767 70 765 58 L 765 36 Z"></path>
      </clipPath>
      <path clip-path="url(#make-me-a-hanzi-clip-18)" d="M 567 264 L 573 258 L 747 285 L 768 284 L 789 268 L 795 258 L 795 140 L 788 12" fill="none" id="make-me-a-hanzi-animation-18" stroke-dasharray="618 1236" stroke-linecap="round"></path>
    
      <clipPath id="make-me-a-hanzi-clip-19">
        <path d="M 563 166 L 583 165 L 586 165 Q 594 165 617 169 Q 645 174 678 177 Q 711 180 718 182 Q 725 183 736 186 Q 747 188 767 192 C 796 198 795 204 766 211 L 753 214 Q 745 215 739 215 L 734 215 Q 727 214 715 212 Q 702 209 686 206 Q 669 204 657 202 L 625 198 L 575 190 Q 571 190 563 189 C 533 186 533 167 563 166 Z"></path>
      </clipPath>
      <path clip-path="url(#make-me-a-hanzi-clip-19)" d="M 568 172 L 575 178 L 686 190 L 758 206" fill="none" id="make-me-a-hanzi-animation-19" stroke-dasharray="323 646" stroke-linecap="round"></path>
    
      <clipPath id="make-me-a-hanzi-clip-20">
        <path d="M 559 102 L 568 98 Q 575 96 587 96 Q 601 96 624 100 Q 647 103 679 106 L 718 111 Q 727 112 738 114 Q 749 116 769 120 C 798 126 798 131 769 138 L 753 142 Q 740 144 734 144 Q 729 144 717 141 Q 706 138 688 136 Q 671 133 654 131 Q 638 128 618 126 L 583 123 Q 572 122 569 121 L 560 121 C 530 121 532 114 559 102 Z"></path>
      </clipPath>
      <path clip-path="url(#make-me-a-hanzi-clip-20)" d="M 565 116 L 571 109 L 582 109 L 764 134" fill="none" id="make-me-a-hanzi-animation-20" stroke-dasharray="332 664" stroke-linecap="round"></path>
    
      <clipPath id="make-me-a-hanzi-clip-21">
        <path d="M 607 26 L 765 36 C 795 38 792 45 765 58 L 753 64 Q 748 67 733 67 L 723 67 Q 712 67 698 66 L 657 60 Q 653 60 619 56 Q 586 52 557 50 C 527 48 525 20 555 22 L 590 24 L 607 26 Z"></path>
      </clipPath>
      <path clip-path="url(#make-me-a-hanzi-clip-21)" d="M 560 29 L 581 39 L 706 50 L 751 50 L 757 42" fill="none" id="make-me-a-hanzi-animation-21" stroke-dasharray="332 664" stroke-linecap="round"></path>
    
      <clipPath id="make-me-a-hanzi-clip-22">
        <path d="M 590 24 L 583 6 Q 581 2 575 -8 Q 568 -19 558 -31 L 532 -60 L 503 -90 Q 491 -102 475 -115 Q 459 -128 455 -132 L 445 -141 Q 441 -145 441 -148 Q 441 -149 442 -150 Q 444 -152 446 -152 Q 449 -152 453 -150 L 463 -144 L 484 -134 Q 499 -127 520 -114 Q 541 -100 560 -86 L 603 -54 L 626 -36 Q 632 -32 637 -30 L 647 -26 Q 651 -24 653 -20 Q 654 -18 654 -17 Q 654 -13 651 -8 Q 647 -2 635 8 Q 624 17 620 19 Q 617 22 607 26 C 593 32 593 32 590 24 Z"></path>
      </clipPath>
      <path clip-path="url(#make-me-a-hanzi-clip-22)" d="M 644 -15 L 608 -11 L 536 -83 L 446 -147" fill="none" id="make-me-a-hanzi-animation-22" stroke-dasharray="376 752" stroke-linecap="round"></path>
    
      <clipPath id="make-me-a-hanzi-clip-23">
        <path d="M 719 2 Q 718 3 716 3 Q 714 3 712 0 Q 711 -1 711 -3 Q 711 -6 714 -10 L 726 -24 L 755 -58 L 789 -100 Q 807 -124 816 -133 Q 829 -147 838 -147 Q 847 -146 855 -138 Q 863 -130 865 -115 Q 865 -98 857 -82 Q 849 -66 830 -53 Q 810 -40 794 -31 Q 778 -22 761 -14 Q 745 -6 738 -4 L 719 2 Z"></path>
      </clipPath>
      <path clip-path="url(#make-me-a-hanzi-clip-23)" d="M 716 -1 L 816 -82 L 833 -105 L 838 -131" fill="none" id="make-me-a-hanzi-animation-23" stroke-dasharray="312 624" stroke-linecap="round"></path>
    
  </g>
</svg>