<svg xmlns="http://www.w3.org/2000/svg" version="1.1" viewBox="0 0 1024 1024">
  <g stroke="lightgray" stroke-dasharray="1,1" stroke-width="1" transform="scale(4, 4)">
    <line x1="0" y1="0" x2="256" y2="256" />
    <line x1="256" y1="0" x2="0" y2="256" />
    <line x1="128" y1="0" x2="128" y2="256" />
    <line x1="0" y1="128" x2="256" y2="128" />
  </g>
  <g transform="scale(1.0, -1.0) translate(0.0, -822.50)">
    <style type="text/css">
      
        @keyframes keyframes0 {
          from {
            stroke: blue;
            stroke-dashoffset: 892;
            stroke-width: 128;
          }
          74% {
            animation-timing-function: step-end;
            stroke: blue;
            stroke-dashoffset: 0;
            stroke-width: 128;
          }
          to {
            stroke: black;
            stroke-width: 1024;
          }
        }
        #make-me-a-hanzi-animation-0 {
          animation: keyframes0 0.9759114583333334s both;
          animation-delay: 0s;
          animation-timing-function: linear;
        }
      
        @keyframes keyframes1 {
          from {
            stroke: blue;
            stroke-dashoffset: 500;
            stroke-width: 128;
          }
          62% {
            animation-timing-function: step-end;
            stroke: blue;
            stroke-dashoffset: 0;
            stroke-width: 128;
          }
          to {
            stroke: black;
            stroke-width: 1024;
          }
        }
        #make-me-a-hanzi-animation-1 {
          animation: keyframes1 0.6569010416666666s both;
          animation-delay: 0.9759114583333334s;
          animation-timing-function: linear;
        }
      
        @keyframes keyframes2 {
          from {
            stroke: blue;
            stroke-dashoffset: 567;
            stroke-width: 128;
          }
          65% {
            animation-timing-function: step-end;
            stroke: blue;
            stroke-dashoffset: 0;
            stroke-width: 128;
          }
          to {
            stroke: black;
            stroke-width: 1024;
          }
        }
        #make-me-a-hanzi-animation-2 {
          animation: keyframes2 0.71142578125s both;
          animation-delay: 1.6328125s;
          animation-timing-function: linear;
        }
      
        @keyframes keyframes3 {
          from {
            stroke: blue;
            stroke-dashoffset: 505;
            stroke-width: 128;
          }
          62% {
            animation-timing-function: step-end;
            stroke: blue;
            stroke-dashoffset: 0;
            stroke-width: 128;
          }
          to {
            stroke: black;
            stroke-width: 1024;
          }
        }
        #make-me-a-hanzi-animation-3 {
          animation: keyframes3 0.6609700520833334s both;
          animation-delay: 2.34423828125s;
          animation-timing-function: linear;
        }
      
        @keyframes keyframes4 {
          from {
            stroke: blue;
            stroke-dashoffset: 700;
            stroke-width: 128;
          }
          69% {
            animation-timing-function: step-end;
            stroke: blue;
            stroke-dashoffset: 0;
            stroke-width: 128;
          }
          to {
            stroke: black;
            stroke-width: 1024;
          }
        }
        #make-me-a-hanzi-animation-4 {
          animation: keyframes4 0.8196614583333334s both;
          animation-delay: 3.0052083333333335s;
          animation-timing-function: linear;
        }
      
        @keyframes keyframes5 {
          from {
            stroke: blue;
            stroke-dashoffset: 682;
            stroke-width: 128;
          }
          69% {
            animation-timing-function: step-end;
            stroke: blue;
            stroke-dashoffset: 0;
            stroke-width: 128;
          }
          to {
            stroke: black;
            stroke-width: 1024;
          }
        }
        #make-me-a-hanzi-animation-5 {
          animation: keyframes5 0.8050130208333334s both;
          animation-delay: 3.824869791666667s;
          animation-timing-function: linear;
        }
      
        @keyframes keyframes6 {
          from {
            stroke: blue;
            stroke-dashoffset: 428;
            stroke-width: 128;
          }
          58% {
            animation-timing-function: step-end;
            stroke: blue;
            stroke-dashoffset: 0;
            stroke-width: 128;
          }
          to {
            stroke: black;
            stroke-width: 1024;
          }
        }
        #make-me-a-hanzi-animation-6 {
          animation: keyframes6 0.5983072916666666s both;
          animation-delay: 4.6298828125s;
          animation-timing-function: linear;
        }
      
        @keyframes keyframes7 {
          from {
            stroke: blue;
            stroke-dashoffset: 1394;
            stroke-width: 128;
          }
          82% {
            animation-timing-function: step-end;
            stroke: blue;
            stroke-dashoffset: 0;
            stroke-width: 128;
          }
          to {
            stroke: black;
            stroke-width: 1024;
          }
        }
        #make-me-a-hanzi-animation-7 {
          animation: keyframes7 1.3844401041666667s both;
          animation-delay: 5.228190104166667s;
          animation-timing-function: linear;
        }
      
        @keyframes keyframes8 {
          from {
            stroke: blue;
            stroke-dashoffset: 374;
            stroke-width: 128;
          }
          55% {
            animation-timing-function: step-end;
            stroke: blue;
            stroke-dashoffset: 0;
            stroke-width: 128;
          }
          to {
            stroke: black;
            stroke-width: 1024;
          }
        }
        #make-me-a-hanzi-animation-8 {
          animation: keyframes8 0.5543619791666666s both;
          animation-delay: 6.612630208333334s;
          animation-timing-function: linear;
        }
      
    </style>
    
      <path d="M 716 610 Q 693 610 639 596 Q 615 590 583 582 L 522 570 Q 383 546 139 522 Q 128 520 128 511 Q 128 503 152 495 Q 180 486 204 486 Q 241 486 304 497 Q 372 505 529 526 L 588 533 Q 644 542 712 551 Q 738 555 768 566 Q 782 573 783 587 Q 780 609 716 610 Z" fill="lightgray" />
    
      <path d="M 420 471 Q 404 471 384 466 Q 276 443 204 434 Q 191 432 191 427 Q 191 422 208 418 Q 229 410 248 410 Q 273 410 443 434 Q 456 438 456 450 Q 456 470 420 471 Z" fill="lightgray" />
    
      <path d="M 464 394 Q 443 394 417 390 Q 274 364 179 354 Q 168 352 168 347 Q 168 342 184 338 Q 205 331 223 331 Q 258 331 487 358 Q 500 362 500 375 Q 500 393 464 394 Z" fill="lightgray" />
    
      <path d="M 187 274 Q 175 274 175 266 Q 175 264 182 250 Q 196 222 196 190 Q 195 127 194 103 Q 187 74 187 66 Q 187 58 195 41 Q 207 18 219 18 Q 228 18 232 32 Q 240 48 240 87 L 236 226 L 232 255 Q 229 261 223 265 Q 209 273 187 274 Z" fill="lightgray" />
    
      <path d="M 236 226 Q 250 226 334 243 Q 402 255 416 255 Q 439 255 439 207 L 439 145 Q 439 132 438 115 Q 435 96 435 83 Q 435 77 447 56 Q 458 43 471 43 Q 484 43 488 61 Q 490 75 490 187 Q 490 232 504 250 Q 512 260 512 263 Q 512 274 485 294 Q 456 314 435 314 Q 426 314 383 297 Q 323 269 232 255 C 202 250 206 223 236 226 Z" fill="lightgray" />
    
      <path d="M 319 207 Q 307 207 307 194 Q 307 187 308 183 Q 311 163 311 146 Q 310 102 289 41 Q 265 -20 240 -46 Q 203 -85 150 -112 Q 124 -126 124 -129 Q 124 -133 135 -133 Q 193 -133 257 -80 Q 315 -33 349 78 Q 365 130 372 141 Q 380 151 380 154 Q 380 164 350 188 Q 326 207 319 207 Z" fill="lightgray" />
    
      <path d="M 380 35 Q 372 35 372 26 Q 372 22 400 -4 Q 427 -32 464 -75 Q 488 -106 508 -106 Q 536 -106 536 -66 Q 536 -50 520 -32 Q 500 -10 427 20 Q 391 35 380 35 Z" fill="lightgray" />
    
      <path d="M 583 582 Q 580 610 580 635 Q 580 660 584 687 Q 592 708 592 715 Q 592 731 556 749 Q 512 767 483 767 Q 464 767 464 755 Q 464 747 473 737 Q 502 688 522 572 L 522 570 L 529 526 Q 556 375 590 269 Q 637 122 694 38 Q 753 -61 835 -117 Q 880 -146 907 -146 Q 928 -146 928 -121 Q 915 -108 915 -37 L 936 58 Q 936 87 928 87 Q 919 87 873 -9 Q 858 -34 831 -34 Q 816 -34 767 24 Q 697 102 648 254 Q 613 363 599 463 Q 592 501 588 533 L 583 582 Z" fill="lightgray" />
    
      <path d="M 655 746 Q 628 746 628 742 Q 628 740 663 701 Q 706 658 731 658 Q 760 658 760 687 Q 760 708 749 722 Q 734 735 710 741 Q 682 746 655 746 Z" fill="lightgray" />
    
    
      <clipPath id="make-me-a-hanzi-clip-0">
        <path d="M 716 610 Q 693 610 639 596 Q 615 590 583 582 L 522 570 Q 383 546 139 522 Q 128 520 128 511 Q 128 503 152 495 Q 180 486 204 486 Q 241 486 304 497 Q 372 505 529 526 L 588 533 Q 644 542 712 551 Q 738 555 768 566 Q 782 573 783 587 Q 780 609 716 610 Z" />
      </clipPath>
      <path clip-path="url(#make-me-a-hanzi-clip-0)" d="M 138 512 L 176 507 L 260 512 L 516 545 L 674 576 L 768 585" fill="none" id="make-me-a-hanzi-animation-0" stroke-dasharray="764 1528" stroke-linecap="round" />
    
      <clipPath id="make-me-a-hanzi-clip-1">
        <path d="M 420 471 Q 404 471 384 466 Q 276 443 204 434 Q 191 432 191 427 Q 191 422 208 418 Q 229 410 248 410 Q 273 410 443 434 Q 456 438 456 450 Q 456 470 420 471 Z" />
      </clipPath>
      <path clip-path="url(#make-me-a-hanzi-clip-1)" d="M 198 429 L 243 424 L 415 451 L 440 450" fill="none" id="make-me-a-hanzi-animation-1" stroke-dasharray="372 744" stroke-linecap="round" />
    
      <clipPath id="make-me-a-hanzi-clip-2">
        <path d="M 464 394 Q 443 394 417 390 Q 274 364 179 354 Q 168 352 168 347 Q 168 342 184 338 Q 205 331 223 331 Q 258 331 487 358 Q 500 362 500 375 Q 500 393 464 394 Z" />
      </clipPath>
      <path clip-path="url(#make-me-a-hanzi-clip-2)" d="M 175 349 L 218 344 L 428 372 L 484 374" fill="none" id="make-me-a-hanzi-animation-2" stroke-dasharray="439 878" stroke-linecap="round" />
    
      <clipPath id="make-me-a-hanzi-clip-3">
        <path d="M 187 274 Q 175 274 175 266 Q 175 264 182 250 Q 196 222 196 190 Q 195 127 194 103 Q 187 74 187 66 Q 187 58 195 41 Q 207 18 219 18 Q 228 18 232 32 Q 240 48 240 87 L 236 226 L 232 255 Q 229 261 223 265 Q 209 273 187 274 Z" />
      </clipPath>
      <path clip-path="url(#make-me-a-hanzi-clip-3)" d="M 184 266 L 210 245 L 215 217 L 218 30" fill="none" id="make-me-a-hanzi-animation-3" stroke-dasharray="377 754" stroke-linecap="round" />
    
      <clipPath id="make-me-a-hanzi-clip-4">
        <path d="M 236 226 Q 250 226 334 243 Q 402 255 416 255 Q 439 255 439 207 L 439 145 Q 439 132 438 115 Q 435 96 435 83 Q 435 77 447 56 Q 458 43 471 43 Q 484 43 488 61 Q 490 75 490 187 Q 490 232 504 250 Q 512 260 512 263 Q 512 274 485 294 Q 456 314 435 314 Q 426 314 383 297 Q 323 269 232 255 C 202 250 206 223 236 226 Z" />
      </clipPath>
      <path clip-path="url(#make-me-a-hanzi-clip-4)" d="M 238 234 L 261 246 L 320 255 L 403 279 L 437 282 L 450 276 L 466 261 L 462 86 L 470 61" fill="none" id="make-me-a-hanzi-animation-4" stroke-dasharray="572 1144" stroke-linecap="round" />
    
      <clipPath id="make-me-a-hanzi-clip-5">
        <path d="M 319 207 Q 307 207 307 194 Q 307 187 308 183 Q 311 163 311 146 Q 310 102 289 41 Q 265 -20 240 -46 Q 203 -85 150 -112 Q 124 -126 124 -129 Q 124 -133 135 -133 Q 193 -133 257 -80 Q 315 -33 349 78 Q 365 130 372 141 Q 380 151 380 154 Q 380 164 350 188 Q 326 207 319 207 Z" />
      </clipPath>
      <path clip-path="url(#make-me-a-hanzi-clip-5)" d="M 318 196 L 342 153 L 319 59 L 288 -13 L 266 -45 L 227 -83 L 177 -113 L 130 -129" fill="none" id="make-me-a-hanzi-animation-5" stroke-dasharray="554 1108" stroke-linecap="round" />
    
      <clipPath id="make-me-a-hanzi-clip-6">
        <path d="M 380 35 Q 372 35 372 26 Q 372 22 400 -4 Q 427 -32 464 -75 Q 488 -106 508 -106 Q 536 -106 536 -66 Q 536 -50 520 -32 Q 500 -10 427 20 Q 391 35 380 35 Z" />
      </clipPath>
      <path clip-path="url(#make-me-a-hanzi-clip-6)" d="M 380 27 L 471 -35 L 493 -54 L 510 -82" fill="none" id="make-me-a-hanzi-animation-6" stroke-dasharray="300 600" stroke-linecap="round" />
    
      <clipPath id="make-me-a-hanzi-clip-7">
        <path d="M 583 582 Q 580 610 580 635 Q 580 660 584 687 Q 592 708 592 715 Q 592 731 556 749 Q 512 767 483 767 Q 464 767 464 755 Q 464 747 473 737 Q 502 688 522 572 L 522 570 L 529 526 Q 556 375 590 269 Q 637 122 694 38 Q 753 -61 835 -117 Q 880 -146 907 -146 Q 928 -146 928 -121 Q 915 -108 915 -37 L 936 58 Q 936 87 928 87 Q 919 87 873 -9 Q 858 -34 831 -34 Q 816 -34 767 24 Q 697 102 648 254 Q 613 363 599 463 Q 592 501 588 533 L 583 582 Z" />
      </clipPath>
      <path clip-path="url(#make-me-a-hanzi-clip-7)" d="M 477 754 L 509 734 L 539 700 L 559 522 L 604 308 L 671 127 L 719 44 L 774 -27 L 805 -55 L 828 -69 L 868 -75 L 893 -25 L 929 82" fill="none" id="make-me-a-hanzi-animation-7" stroke-dasharray="1266 2532" stroke-linecap="round" />
    
      <clipPath id="make-me-a-hanzi-clip-8">
        <path d="M 655 746 Q 628 746 628 742 Q 628 740 663 701 Q 706 658 731 658 Q 760 658 760 687 Q 760 708 749 722 Q 734 735 710 741 Q 682 746 655 746 Z" />
      </clipPath>
      <path clip-path="url(#make-me-a-hanzi-clip-8)" d="M 632 742 L 707 707 L 734 684" fill="none" id="make-me-a-hanzi-animation-8" stroke-dasharray="246 492" stroke-linecap="round" />
    
  </g>
</svg>