<svg xmlns="http://www.w3.org/2000/svg" version="1.1" viewBox="0 0 1024 1024">
  <g stroke="lightgray" stroke-dasharray="1,1" stroke-width="1" transform="scale(4, 4)">
    <line x1="0" y1="0" x2="256" y2="256" />
    <line x1="256" y1="0" x2="0" y2="256" />
    <line x1="128" y1="0" x2="128" y2="256" />
    <line x1="0" y1="128" x2="256" y2="128" />
  </g>
  <g transform="scale(1.0, -1.0) translate(0.0, -820.50)">
    <style type="text/css">
      
        @keyframes keyframes0 {
          from {
            stroke: blue;
            stroke-dashoffset: 699;
            stroke-width: 128;
          }
          69% {
            animation-timing-function: step-end;
            stroke: blue;
            stroke-dashoffset: 0;
            stroke-width: 128;
          }
          to {
            stroke: black;
            stroke-width: 1024;
          }
        }
        #make-me-a-hanzi-animation-0 {
          animation: keyframes0 0.81884765625s both;
          animation-delay: 0s;
          animation-timing-function: linear;
        }
      
        @keyframes keyframes1 {
          from {
            stroke: blue;
            stroke-dashoffset: 874;
            stroke-width: 128;
          }
          74% {
            animation-timing-function: step-end;
            stroke: blue;
            stroke-dashoffset: 0;
            stroke-width: 128;
          }
          to {
            stroke: black;
            stroke-width: 1024;
          }
        }
        #make-me-a-hanzi-animation-1 {
          animation: keyframes1 0.9612630208333334s both;
          animation-delay: 0.81884765625s;
          animation-timing-function: linear;
        }
      
        @keyframes keyframes2 {
          from {
            stroke: blue;
            stroke-dashoffset: 888;
            stroke-width: 128;
          }
          74% {
            animation-timing-function: step-end;
            stroke: blue;
            stroke-dashoffset: 0;
            stroke-width: 128;
          }
          to {
            stroke: black;
            stroke-width: 1024;
          }
        }
        #make-me-a-hanzi-animation-2 {
          animation: keyframes2 0.97265625s both;
          animation-delay: 1.7801106770833335s;
          animation-timing-function: linear;
        }
      
        @keyframes keyframes3 {
          from {
            stroke: blue;
            stroke-dashoffset: 411;
            stroke-width: 128;
          }
          57% {
            animation-timing-function: step-end;
            stroke: blue;
            stroke-dashoffset: 0;
            stroke-width: 128;
          }
          to {
            stroke: black;
            stroke-width: 1024;
          }
        }
        #make-me-a-hanzi-animation-3 {
          animation: keyframes3 0.58447265625s both;
          animation-delay: 2.7527669270833335s;
          animation-timing-function: linear;
        }
      
        @keyframes keyframes4 {
          from {
            stroke: blue;
            stroke-dashoffset: 664;
            stroke-width: 128;
          }
          68% {
            animation-timing-function: step-end;
            stroke: blue;
            stroke-dashoffset: 0;
            stroke-width: 128;
          }
          to {
            stroke: black;
            stroke-width: 1024;
          }
        }
        #make-me-a-hanzi-animation-4 {
          animation: keyframes4 0.7903645833333334s both;
          animation-delay: 3.3372395833333335s;
          animation-timing-function: linear;
        }
      
        @keyframes keyframes5 {
          from {
            stroke: blue;
            stroke-dashoffset: 490;
            stroke-width: 128;
          }
          61% {
            animation-timing-function: step-end;
            stroke: blue;
            stroke-dashoffset: 0;
            stroke-width: 128;
          }
          to {
            stroke: black;
            stroke-width: 1024;
          }
        }
        #make-me-a-hanzi-animation-5 {
          animation: keyframes5 0.6487630208333334s both;
          animation-delay: 4.127604166666667s;
          animation-timing-function: linear;
        }
      
        @keyframes keyframes6 {
          from {
            stroke: blue;
            stroke-dashoffset: 728;
            stroke-width: 128;
          }
          70% {
            animation-timing-function: step-end;
            stroke: blue;
            stroke-dashoffset: 0;
            stroke-width: 128;
          }
          to {
            stroke: black;
            stroke-width: 1024;
          }
        }
        #make-me-a-hanzi-animation-6 {
          animation: keyframes6 0.8424479166666666s both;
          animation-delay: 4.7763671875s;
          animation-timing-function: linear;
        }
      
        @keyframes keyframes7 {
          from {
            stroke: blue;
            stroke-dashoffset: 1328;
            stroke-width: 128;
          }
          81% {
            animation-timing-function: step-end;
            stroke: blue;
            stroke-dashoffset: 0;
            stroke-width: 128;
          }
          to {
            stroke: black;
            stroke-width: 1024;
          }
        }
        #make-me-a-hanzi-animation-7 {
          animation: keyframes7 1.3307291666666667s both;
          animation-delay: 5.618815104166667s;
          animation-timing-function: linear;
        }
      
        @keyframes keyframes8 {
          from {
            stroke: blue;
            stroke-dashoffset: 758;
            stroke-width: 128;
          }
          71% {
            animation-timing-function: step-end;
            stroke: blue;
            stroke-dashoffset: 0;
            stroke-width: 128;
          }
          to {
            stroke: black;
            stroke-width: 1024;
          }
        }
        #make-me-a-hanzi-animation-8 {
          animation: keyframes8 0.8668619791666666s both;
          animation-delay: 6.949544270833334s;
          animation-timing-function: linear;
        }
      
        @keyframes keyframes9 {
          from {
            stroke: blue;
            stroke-dashoffset: 388;
            stroke-width: 128;
          }
          56% {
            animation-timing-function: step-end;
            stroke: blue;
            stroke-dashoffset: 0;
            stroke-width: 128;
          }
          to {
            stroke: black;
            stroke-width: 1024;
          }
        }
        #make-me-a-hanzi-animation-9 {
          animation: keyframes9 0.5657552083333334s both;
          animation-delay: 7.816406250000001s;
          animation-timing-function: linear;
        }
      
    </style>
    
      <path d="M 120 591 Q 108 590 108 578 Q 108 575 120 550 Q 131 523 131 490 L 131 347 Q 131 288 122 235 Q 112 213 112 203 Q 112 189 123 167 Q 137 138 143 138 Q 160 138 167 162 Q 170 189 171 228 L 171 449 Q 171 488 177 540 C 179 563 179 563 170 569 Q 165 574 151 580 Q 130 591 120 591 Z" fill="lightgray" />
    
      <path d="M 177 540 Q 198 543 247 552 Q 308 562 319 562 Q 343 562 343 515 L 343 351 Q 343 313 342 268 Q 340 218 340 182 Q 340 177 351 156 Q 362 142 376 142 Q 388 142 392 178 Q 394 205 394 424 Q 394 512 408 546 Q 416 565 416 570 Q 416 582 389 602 Q 359 622 340 622 Q 331 622 292 606 Q 242 582 170 569 C 141 563 147 535 177 540 Z" fill="lightgray" />
    
      <path d="M 219 467 Q 204 467 204 459 Q 204 452 210 440 Q 227 405 227 358 Q 227 245 206 163 Q 188 89 161 40 Q 132 -12 73 -65 Q 47 -82 47 -89 Q 47 -93 59 -93 Q 85 -93 133 -53 Q 185 -5 213 54 Q 252 125 275 284 Q 285 366 293 391 Q 299 412 299 419 Q 299 437 266 453 Q 239 467 219 467 Z" fill="lightgray" />
    
      <path d="M 275 135 Q 271 135 271 127 Q 271 123 294 94 Q 316 66 344 22 Q 365 -9 380 -9 Q 408 -9 408 26 Q 408 43 395 63 Q 377 86 315 119 Q 286 135 275 135 Z" fill="lightgray" />
    
      <path d="M 787 494 Q 774 494 741 480 Q 727 474 708 468 L 657 454 Q 577 434 443 415 Q 431 412 431 402 Q 431 395 456 388 Q 484 379 508 379 Q 527 379 562 388 Q 594 394 664 408 L 714 419 Q 745 426 783 434 Q 810 438 840 450 Q 854 457 855 471 Q 852 493 787 494 Z" fill="lightgray" />
    
      <path d="M 615 255 Q 608 255 591 247 Q 585 244 578 241 L 521 227 Q 483 219 427 211 Q 420 209 420 203 Q 420 196 437 190 Q 458 182 475 182 Q 485 182 503 187 Q 508 188 518 190 L 569 201 Q 590 205 615 211 Q 635 214 656 222 Q 667 228 668 238 Q 665 254 615 255 Z" fill="lightgray" />
    
      <path d="M 578 241 Q 584 269 590 288 Q 596 304 596 306 Q 596 316 565 333 Q 530 347 519 347 Q 504 347 504 339 Q 504 334 511 323 Q 523 300 523 270 Q 523 249 521 227 L 518 190 Q 515 164 510 138 Q 496 74 473 31 Q 450 -12 419 -44 Q 399 -66 399 -70 Q 399 -74 408 -74 Q 442 -74 499 3 Q 547 75 566 179 Q 568 190 569 201 L 578 241 Z" fill="lightgray" />
    
      <path d="M 708 468 Q 699 535 695 614 Q 695 650 712 687 Q 712 703 672 722 Q 628 738 603 738 Q 592 738 592 723 Q 592 720 601 706 Q 632 660 643 571 Q 649 512 657 454 L 664 408 Q 678 318 697 235 Q 708 193 720 155 L 739 100 Q 754 62 772 31 Q 813 -45 872 -91 Q 910 -121 939 -121 Q 959 -121 959 -97 Q 955 -79 955 -53 L 976 91 Q 976 106 968 106 Q 964 106 921 13 Q 901 -26 892 -26 Q 872 -26 826 40 Q 801 80 777 147 L 757 216 Q 745 255 735 302 Q 723 355 714 419 L 708 468 Z" fill="lightgray" />
    
      <path d="M 720 155 Q 667 78 586 3 Q 555 -25 555 -30 Q 555 -34 559 -34 Q 587 -34 667 31 Q 706 63 739 100 L 777 147 Q 802 178 820 213 Q 860 286 872 298 Q 880 306 880 310 Q 880 323 845 353 Q 808 375 800 375 Q 787 375 787 358 Q 792 343 792 322 Q 792 283 757 216 L 720 155 Z" fill="lightgray" />
    
      <path d="M 775 647 Q 760 647 760 643 Q 760 640 795 594 Q 838 543 863 543 Q 880 543 880 559 Q 880 590 868 609 Q 854 630 830 639 Q 802 647 775 647 Z" fill="lightgray" />
    
    
      <clipPath id="make-me-a-hanzi-clip-0">
        <path d="M 120 591 Q 108 590 108 578 Q 108 575 120 550 Q 131 523 131 490 L 131 347 Q 131 288 122 235 Q 112 213 112 203 Q 112 189 123 167 Q 137 138 143 138 Q 160 138 167 162 Q 170 189 171 228 L 171 449 Q 171 488 177 540 C 179 563 179 563 170 569 Q 165 574 151 580 Q 130 591 120 591 Z" />
      </clipPath>
      <path clip-path="url(#make-me-a-hanzi-clip-0)" d="M 120 579 L 151 541 L 152 331 L 141 201 L 146 148" fill="none" id="make-me-a-hanzi-animation-0" stroke-dasharray="571 1142" stroke-linecap="round" />
    
      <clipPath id="make-me-a-hanzi-clip-1">
        <path d="M 177 540 Q 198 543 247 552 Q 308 562 319 562 Q 343 562 343 515 L 343 351 Q 343 313 342 268 Q 340 218 340 182 Q 340 177 351 156 Q 362 142 376 142 Q 388 142 392 178 Q 394 205 394 424 Q 394 512 408 546 Q 416 565 416 570 Q 416 582 389 602 Q 359 622 340 622 Q 331 622 292 606 Q 242 582 170 569 C 141 563 147 535 177 540 Z" />
      </clipPath>
      <path clip-path="url(#make-me-a-hanzi-clip-1)" d="M 180 564 L 190 557 L 326 590 L 354 584 L 373 565 L 366 186 L 373 156" fill="none" id="make-me-a-hanzi-animation-1" stroke-dasharray="746 1492" stroke-linecap="round" />
    
      <clipPath id="make-me-a-hanzi-clip-2">
        <path d="M 219 467 Q 204 467 204 459 Q 204 452 210 440 Q 227 405 227 358 Q 227 245 206 163 Q 188 89 161 40 Q 132 -12 73 -65 Q 47 -82 47 -89 Q 47 -93 59 -93 Q 85 -93 133 -53 Q 185 -5 213 54 Q 252 125 275 284 Q 285 366 293 391 Q 299 412 299 419 Q 299 437 266 453 Q 239 467 219 467 Z" />
      </clipPath>
      <path clip-path="url(#make-me-a-hanzi-clip-2)" d="M 214 457 L 239 438 L 260 409 L 250 277 L 223 138 L 198 68 L 156 -3 L 102 -58 L 54 -89" fill="none" id="make-me-a-hanzi-animation-2" stroke-dasharray="760 1520" stroke-linecap="round" />
    
      <clipPath id="make-me-a-hanzi-clip-3">
        <path d="M 275 135 Q 271 135 271 127 Q 271 123 294 94 Q 316 66 344 22 Q 365 -9 380 -9 Q 408 -9 408 26 Q 408 43 395 63 Q 377 86 315 119 Q 286 135 275 135 Z" />
      </clipPath>
      <path clip-path="url(#make-me-a-hanzi-clip-3)" d="M 279 128 L 350 66 L 371 41 L 382 15" fill="none" id="make-me-a-hanzi-animation-3" stroke-dasharray="283 566" stroke-linecap="round" />
    
      <clipPath id="make-me-a-hanzi-clip-4">
        <path d="M 787 494 Q 774 494 741 480 Q 727 474 708 468 L 657 454 Q 577 434 443 415 Q 431 412 431 402 Q 431 395 456 388 Q 484 379 508 379 Q 527 379 562 388 Q 594 394 664 408 L 714 419 Q 745 426 783 434 Q 810 438 840 450 Q 854 457 855 471 Q 852 493 787 494 Z" />
      </clipPath>
      <path clip-path="url(#make-me-a-hanzi-clip-4)" d="M 440 403 L 522 403 L 650 428 L 781 464 L 841 469" fill="none" id="make-me-a-hanzi-animation-4" stroke-dasharray="536 1072" stroke-linecap="round" />
    
      <clipPath id="make-me-a-hanzi-clip-5">
        <path d="M 615 255 Q 608 255 591 247 Q 585 244 578 241 L 521 227 Q 483 219 427 211 Q 420 209 420 203 Q 420 196 437 190 Q 458 182 475 182 Q 485 182 503 187 Q 508 188 518 190 L 569 201 Q 590 205 615 211 Q 635 214 656 222 Q 667 228 668 238 Q 665 254 615 255 Z" />
      </clipPath>
      <path clip-path="url(#make-me-a-hanzi-clip-5)" d="M 428 203 L 479 200 L 615 233 L 658 237" fill="none" id="make-me-a-hanzi-animation-5" stroke-dasharray="362 724" stroke-linecap="round" />
    
      <clipPath id="make-me-a-hanzi-clip-6">
        <path d="M 578 241 Q 584 269 590 288 Q 596 304 596 306 Q 596 316 565 333 Q 530 347 519 347 Q 504 347 504 339 Q 504 334 511 323 Q 523 300 523 270 Q 523 249 521 227 L 518 190 Q 515 164 510 138 Q 496 74 473 31 Q 450 -12 419 -44 Q 399 -66 399 -70 Q 399 -74 408 -74 Q 442 -74 499 3 Q 547 75 566 179 Q 568 190 569 201 L 578 241 Z" />
      </clipPath>
      <path clip-path="url(#make-me-a-hanzi-clip-6)" d="M 513 338 L 556 298 L 541 175 L 523 98 L 479 4 L 444 -39 L 404 -70" fill="none" id="make-me-a-hanzi-animation-6" stroke-dasharray="600 1200" stroke-linecap="round" />
    
      <clipPath id="make-me-a-hanzi-clip-7">
        <path d="M 708 468 Q 699 535 695 614 Q 695 650 712 687 Q 712 703 672 722 Q 628 738 603 738 Q 592 738 592 723 Q 592 720 601 706 Q 632 660 643 571 Q 649 512 657 454 L 664 408 Q 678 318 697 235 Q 708 193 720 155 L 739 100 Q 754 62 772 31 Q 813 -45 872 -91 Q 910 -121 939 -121 Q 959 -121 959 -97 Q 955 -79 955 -53 L 976 91 Q 976 106 968 106 Q 964 106 921 13 Q 901 -26 892 -26 Q 872 -26 826 40 Q 801 80 777 147 L 757 216 Q 745 255 735 302 Q 723 355 714 419 L 708 468 Z" />
      </clipPath>
      <path clip-path="url(#make-me-a-hanzi-clip-7)" d="M 603 726 L 663 678 L 668 584 L 692 390 L 722 243 L 751 143 L 806 22 L 833 -15 L 875 -54 L 902 -65 L 914 -62 L 941 1 L 970 102" fill="none" id="make-me-a-hanzi-animation-7" stroke-dasharray="1200 2400" stroke-linecap="round" />
    
      <clipPath id="make-me-a-hanzi-clip-8">
        <path d="M 720 155 Q 667 78 586 3 Q 555 -25 555 -30 Q 555 -34 559 -34 Q 587 -34 667 31 Q 706 63 739 100 L 777 147 Q 802 178 820 213 Q 860 286 872 298 Q 880 306 880 310 Q 880 323 845 353 Q 808 375 800 375 Q 787 375 787 358 Q 792 343 792 322 Q 792 283 757 216 L 720 155 Z" />
      </clipPath>
      <path clip-path="url(#make-me-a-hanzi-clip-8)" d="M 800 362 L 831 311 L 777 194 L 735 133 L 671 59 L 614 8 L 560 -29" fill="none" id="make-me-a-hanzi-animation-8" stroke-dasharray="630 1260" stroke-linecap="round" />
    
      <clipPath id="make-me-a-hanzi-clip-9">
        <path d="M 775 647 Q 760 647 760 643 Q 760 640 795 594 Q 838 543 863 543 Q 880 543 880 559 Q 880 590 868 609 Q 854 630 830 639 Q 802 647 775 647 Z" />
      </clipPath>
      <path clip-path="url(#make-me-a-hanzi-clip-9)" d="M 768 644 L 829 604 L 865 557" fill="none" id="make-me-a-hanzi-animation-9" stroke-dasharray="260 520" stroke-linecap="round" />
    
  </g>
</svg>