<svg version="1.1" viewBox="0 0 1024 1024" xmlns="http://www.w3.org/2000/svg">
  <g stroke="lightgray" stroke-dasharray="1,1" stroke-width="1" transform="scale(4, 4)">
    <line x1="0" y1="0" x2="256" y2="256"></line>
    <line x1="256" y1="0" x2="0" y2="256"></line>
    <line x1="128" y1="0" x2="128" y2="256"></line>
    <line x1="0" y1="128" x2="256" y2="128"></line>
  </g>
  <g transform="scale(0.92, -0.92) translate(60, -830)">
    <style type="text/css">
      
        @keyframes keyframes0 {
          from {
            stroke: blue;
            stroke-dashoffset: 668;
            stroke-width: 128;
          }
          68% {
            animation-timing-function: step-end;
            stroke: blue;
            stroke-dashoffset: 0;
            stroke-width: 128;
          }
          to {
            stroke: black;
            stroke-width: 1024;
          }
        }
        #make-me-a-hanzi-animation-0 {
          animation: keyframes0 0.7936197916666666s both;
          animation-delay: 0s;
          animation-timing-function: linear;
        }
      
        @keyframes keyframes1 {
          from {
            stroke: blue;
            stroke-dashoffset: 470;
            stroke-width: 128;
          }
          60% {
            animation-timing-function: step-end;
            stroke: blue;
            stroke-dashoffset: 0;
            stroke-width: 128;
          }
          to {
            stroke: black;
            stroke-width: 1024;
          }
        }
        #make-me-a-hanzi-animation-1 {
          animation: keyframes1 0.6324869791666666s both;
          animation-delay: 0.7936197916666666s;
          animation-timing-function: linear;
        }
      
        @keyframes keyframes2 {
          from {
            stroke: blue;
            stroke-dashoffset: 596;
            stroke-width: 128;
          }
          66% {
            animation-timing-function: step-end;
            stroke: blue;
            stroke-dashoffset: 0;
            stroke-width: 128;
          }
          to {
            stroke: black;
            stroke-width: 1024;
          }
        }
        #make-me-a-hanzi-animation-2 {
          animation: keyframes2 0.7350260416666666s both;
          animation-delay: 1.4261067708333333s;
          animation-timing-function: linear;
        }
      
        @keyframes keyframes3 {
          from {
            stroke: blue;
            stroke-dashoffset: 1004;
            stroke-width: 128;
          }
          77% {
            animation-timing-function: step-end;
            stroke: blue;
            stroke-dashoffset: 0;
            stroke-width: 128;
          }
          to {
            stroke: black;
            stroke-width: 1024;
          }
        }
        #make-me-a-hanzi-animation-3 {
          animation: keyframes3 1.0670572916666667s both;
          animation-delay: 2.1611328125s;
          animation-timing-function: linear;
        }
      
        @keyframes keyframes4 {
          from {
            stroke: blue;
            stroke-dashoffset: 380;
            stroke-width: 128;
          }
          55% {
            animation-timing-function: step-end;
            stroke: blue;
            stroke-dashoffset: 0;
            stroke-width: 128;
          }
          to {
            stroke: black;
            stroke-width: 1024;
          }
        }
        #make-me-a-hanzi-animation-4 {
          animation: keyframes4 0.5592447916666666s both;
          animation-delay: 3.228190104166667s;
          animation-timing-function: linear;
        }
      
        @keyframes keyframes5 {
          from {
            stroke: blue;
            stroke-dashoffset: 547;
            stroke-width: 128;
          }
          64% {
            animation-timing-function: step-end;
            stroke: blue;
            stroke-dashoffset: 0;
            stroke-width: 128;
          }
          to {
            stroke: black;
            stroke-width: 1024;
          }
        }
        #make-me-a-hanzi-animation-5 {
          animation: keyframes5 0.6951497395833334s both;
          animation-delay: 3.7874348958333335s;
          animation-timing-function: linear;
        }
      
        @keyframes keyframes6 {
          from {
            stroke: blue;
            stroke-dashoffset: 848;
            stroke-width: 128;
          }
          73% {
            animation-timing-function: step-end;
            stroke: blue;
            stroke-dashoffset: 0;
            stroke-width: 128;
          }
          to {
            stroke: black;
            stroke-width: 1024;
          }
        }
        #make-me-a-hanzi-animation-6 {
          animation: keyframes6 0.9401041666666666s both;
          animation-delay: 4.482584635416667s;
          animation-timing-function: linear;
        }
      
        @keyframes keyframes7 {
          from {
            stroke: blue;
            stroke-dashoffset: 744;
            stroke-width: 128;
          }
          71% {
            animation-timing-function: step-end;
            stroke: blue;
            stroke-dashoffset: 0;
            stroke-width: 128;
          }
          to {
            stroke: black;
            stroke-width: 1024;
          }
        }
        #make-me-a-hanzi-animation-7 {
          animation: keyframes7 0.85546875s both;
          animation-delay: 5.422688802083334s;
          animation-timing-function: linear;
        }
      
        @keyframes keyframes8 {
          from {
            stroke: blue;
            stroke-dashoffset: 492;
            stroke-width: 128;
          }
          62% {
            animation-timing-function: step-end;
            stroke: blue;
            stroke-dashoffset: 0;
            stroke-width: 128;
          }
          to {
            stroke: black;
            stroke-width: 1024;
          }
        }
        #make-me-a-hanzi-animation-8 {
          animation: keyframes8 0.650390625s both;
          animation-delay: 6.278157552083334s;
          animation-timing-function: linear;
        }
      
    </style>
    
      <path d="M 307 715 Q 296 715 296 702 Q 299 687 299 666 Q 299 636 263 579 Q 210 502 115 430 Q 87 410 87 406 Q 87 402 91 402 Q 116 402 188 450 Q 240 486 279 526 L 302 552 Q 315 566 327 584 Q 362 636 373 645 Q 380 652 380 654 Q 380 666 348 695 Q 315 715 307 715 Z" fill="lightgray"></path>
    
      <path d="M 279 526 Q 280 523 280 520 Q 280 457 272 422 Q 256 385 256 379 Q 257 359 268 340 Q 282 318 296 318 Q 307 318 311 341 Q 315 364 315 391 L 319 522 Q 319 536 302 552 C 281 573 275 556 279 526 Z" fill="lightgray"></path>
    
      <path d="M 683 618 Q 662 618 634 605 Q 596 589 559 574 L 513 556 Q 441 529 384 515 Q 372 512 372 507 Q 372 502 388 497 Q 409 490 427 490 Q 449 490 537 520 L 583 536 Q 635 555 708 582 Q 720 587 720 599 Q 720 617 683 618 Z" fill="lightgray"></path>
    
      <path d="M 559 574 Q 515 650 515 694 Q 513 715 495 727 Q 473 738 443 738 Q 425 738 412 735 Q 399 732 399 723 Q 399 720 412 712 Q 436 692 481 611 Q 497 582 513 556 L 537 520 Q 570 470 609 433 Q 677 372 749 340 Q 812 310 855 310 Q 888 310 888 318 Q 888 330 876 351 Q 859 386 850 436 Q 835 519 827 519 Q 819 519 814 457 Q 804 389 783 387 Q 756 387 706 423 Q 626 479 583 536 L 559 574 Z" fill="lightgray"></path>
    
      <path d="M 620 723 Q 599 723 599 719 Q 599 715 636 679 Q 678 639 708 639 Q 731 639 731 666 Q 731 679 723 690 Q 708 707 676 716 Q 650 722 620 723 Z" fill="lightgray"></path>
    
      <path d="M 284 310 Q 271 309 271 299 Q 271 295 286 267 Q 299 238 299 203 L 299 140 Q 299 116 289 93 Q 275 83 275 79 Q 275 64 288 40 Q 304 10 311 10 Q 331 10 339 25 Q 342 43 343 67 L 343 205 Q 343 229 353 264 C 358 283 358 283 338 292 Q 332 295 322 299 Q 297 310 284 310 Z" fill="lightgray"></path>
    
      <path d="M 353 264 Q 388 267 479 280 Q 581 295 599 295 Q 628 295 628 247 L 628 154 Q 628 133 625 107 Q 620 79 620 58 Q 620 52 634 30 Q 647 14 664 14 Q 677 14 681 38 Q 682 56 682 201 Q 682 260 695 282 Q 703 296 703 299 Q 703 311 676 332 Q 644 354 624 354 Q 609 354 548 336 Q 462 307 338 292 C 308 288 323 261 353 264 Z" fill="lightgray"></path>
    
      <path d="M 456 226 Q 439 226 439 215 Q 439 207 442 202 Q 447 178 447 159 Q 445 110 419 43 Q 389 -24 358 -54 Q 311 -96 245 -126 Q 212 -141 212 -146 Q 212 -150 227 -150 Q 298 -150 378 -91 Q 449 -39 490 83 Q 510 139 518 152 Q 527 163 527 167 Q 527 178 492 206 Q 463 226 456 226 Z" fill="lightgray"></path>
    
      <path d="M 527 14 Q 523 14 523 7 Q 523 2 564 -31 Q 604 -62 656 -114 Q 692 -150 720 -150 Q 748 -150 748 -114 Q 748 -94 726 -71 Q 696 -43 595 -4 Q 545 14 527 14 Z" fill="lightgray"></path>
    
    
      <clipPath id="make-me-a-hanzi-clip-0">
        <path d="M 307 715 Q 296 715 296 702 Q 299 687 299 666 Q 299 636 263 579 Q 210 502 115 430 Q 87 410 87 406 Q 87 402 91 402 Q 116 402 188 450 Q 240 486 279 526 L 302 552 Q 315 566 327 584 Q 362 636 373 645 Q 380 652 380 654 Q 380 666 348 695 Q 315 715 307 715 Z"></path>
      </clipPath>
      <path clip-path="url(#make-me-a-hanzi-clip-0)" d="M 306 704 L 335 657 L 295 582 L 259 536 L 186 467 L 124 422 L 91 406" fill="none" id="make-me-a-hanzi-animation-0" stroke-dasharray="540 1080" stroke-linecap="round"></path>
    
      <clipPath id="make-me-a-hanzi-clip-1">
        <path d="M 279 526 Q 280 523 280 520 Q 280 457 272 422 Q 256 385 256 379 Q 257 359 268 340 Q 282 318 296 318 Q 307 318 311 341 Q 315 364 315 391 L 319 522 Q 319 536 302 552 C 281 573 275 556 279 526 Z"></path>
      </clipPath>
      <path clip-path="url(#make-me-a-hanzi-clip-1)" d="M 303 543 L 296 428 L 286 373 L 294 331" fill="none" id="make-me-a-hanzi-animation-1" stroke-dasharray="342 684" stroke-linecap="round"></path>
    
      <clipPath id="make-me-a-hanzi-clip-2">
        <path d="M 683 618 Q 662 618 634 605 Q 596 589 559 574 L 513 556 Q 441 529 384 515 Q 372 512 372 507 Q 372 502 388 497 Q 409 490 427 490 Q 449 490 537 520 L 583 536 Q 635 555 708 582 Q 720 587 720 599 Q 720 617 683 618 Z"></path>
      </clipPath>
      <path clip-path="url(#make-me-a-hanzi-clip-2)" d="M 379 509 L 398 505 L 443 511 L 661 590 L 704 598" fill="none" id="make-me-a-hanzi-animation-2" stroke-dasharray="468 936" stroke-linecap="round"></path>
    
      <clipPath id="make-me-a-hanzi-clip-3">
        <path d="M 559 574 Q 515 650 515 694 Q 513 715 495 727 Q 473 738 443 738 Q 425 738 412 735 Q 399 732 399 723 Q 399 720 412 712 Q 436 692 481 611 Q 497 582 513 556 L 537 520 Q 570 470 609 433 Q 677 372 749 340 Q 812 310 855 310 Q 888 310 888 318 Q 888 330 876 351 Q 859 386 850 436 Q 835 519 827 519 Q 819 519 814 457 Q 804 389 783 387 Q 756 387 706 423 Q 626 479 583 536 L 559 574 Z"></path>
      </clipPath>
      <path clip-path="url(#make-me-a-hanzi-clip-3)" d="M 406 725 L 421 724 L 475 695 L 507 616 L 569 515 L 632 447 L 728 378 L 786 356 L 824 360 L 831 424 L 827 516" fill="none" id="make-me-a-hanzi-animation-3" stroke-dasharray="876 1752" stroke-linecap="round"></path>
    
      <clipPath id="make-me-a-hanzi-clip-4">
        <path d="M 620 723 Q 599 723 599 719 Q 599 715 636 679 Q 678 639 708 639 Q 731 639 731 666 Q 731 679 723 690 Q 708 707 676 716 Q 650 722 620 723 Z"></path>
      </clipPath>
      <path clip-path="url(#make-me-a-hanzi-clip-4)" d="M 603 719 L 700 671 L 710 659" fill="none" id="make-me-a-hanzi-animation-4" stroke-dasharray="252 504" stroke-linecap="round"></path>
    
      <clipPath id="make-me-a-hanzi-clip-5">
        <path d="M 284 310 Q 271 309 271 299 Q 271 295 286 267 Q 299 238 299 203 L 299 140 Q 299 116 289 93 Q 275 83 275 79 Q 275 64 288 40 Q 304 10 311 10 Q 331 10 339 25 Q 342 43 343 67 L 343 205 Q 343 229 353 264 C 358 283 358 283 338 292 Q 332 295 322 299 Q 297 310 284 310 Z"></path>
      </clipPath>
      <path clip-path="url(#make-me-a-hanzi-clip-5)" d="M 281 299 L 306 281 L 320 257 L 321 133 L 310 68 L 316 26" fill="none" id="make-me-a-hanzi-animation-5" stroke-dasharray="419 838" stroke-linecap="round"></path>
    
      <clipPath id="make-me-a-hanzi-clip-6">
        <path d="M 353 264 Q 388 267 479 280 Q 581 295 599 295 Q 628 295 628 247 L 628 154 Q 628 133 625 107 Q 620 79 620 58 Q 620 52 634 30 Q 647 14 664 14 Q 677 14 681 38 Q 682 56 682 201 Q 682 260 695 282 Q 703 296 703 299 Q 703 311 676 332 Q 644 354 624 354 Q 609 354 548 336 Q 462 307 338 292 C 308 288 323 261 353 264 Z"></path>
      </clipPath>
      <path clip-path="url(#make-me-a-hanzi-clip-6)" d="M 347 288 L 361 280 L 408 285 L 603 323 L 625 322 L 649 307 L 658 294 L 651 63 L 661 32" fill="none" id="make-me-a-hanzi-animation-6" stroke-dasharray="720 1440" stroke-linecap="round"></path>
    
      <clipPath id="make-me-a-hanzi-clip-7">
        <path d="M 456 226 Q 439 226 439 215 Q 439 207 442 202 Q 447 178 447 159 Q 445 110 419 43 Q 389 -24 358 -54 Q 311 -96 245 -126 Q 212 -141 212 -146 Q 212 -150 227 -150 Q 298 -150 378 -91 Q 449 -39 490 83 Q 510 139 518 152 Q 527 163 527 167 Q 527 178 492 206 Q 463 226 456 226 Z"></path>
      </clipPath>
      <path clip-path="url(#make-me-a-hanzi-clip-7)" d="M 452 214 L 483 165 L 450 49 L 413 -21 L 371 -71 L 333 -99 L 270 -131 L 224 -143" fill="none" id="make-me-a-hanzi-animation-7" stroke-dasharray="616 1232" stroke-linecap="round"></path>
    
      <clipPath id="make-me-a-hanzi-clip-8">
        <path d="M 527 14 Q 523 14 523 7 Q 523 2 564 -31 Q 604 -62 656 -114 Q 692 -150 720 -150 Q 748 -150 748 -114 Q 748 -94 726 -71 Q 696 -43 595 -4 Q 545 14 527 14 Z"></path>
      </clipPath>
      <path clip-path="url(#make-me-a-hanzi-clip-8)" d="M 529 8 L 657 -67 L 722 -126" fill="none" id="make-me-a-hanzi-animation-8" stroke-dasharray="364 728" stroke-linecap="round"></path>
    
  </g>
</svg>