<svg xmlns="http://www.w3.org/2000/svg" version="1.1" viewBox="0 0 1024 1024">
  <g stroke="lightgray" stroke-dasharray="1,1" stroke-width="1" transform="scale(4, 4)">
    <line x1="0" y1="0" x2="256" y2="256" />
    <line x1="256" y1="0" x2="0" y2="256" />
    <line x1="128" y1="0" x2="128" y2="256" />
    <line x1="0" y1="128" x2="256" y2="128" />
  </g>
  <g transform="scale(1.0, -1.0) translate(0.0, -812.00)">
    <style type="text/css">
      
        @keyframes keyframes0 {
          from {
            stroke: blue;
            stroke-dashoffset: 543;
            stroke-width: 128;
          }
          64% {
            animation-timing-function: step-end;
            stroke: blue;
            stroke-dashoffset: 0;
            stroke-width: 128;
          }
          to {
            stroke: black;
            stroke-width: 1024;
          }
        }
        #make-me-a-hanzi-animation-0 {
          animation: keyframes0 0.69189453125s both;
          animation-delay: 0s;
          animation-timing-function: linear;
        }
      
        @keyframes keyframes1 {
          from {
            stroke: blue;
            stroke-dashoffset: 358;
            stroke-width: 128;
          }
          54% {
            animation-timing-function: step-end;
            stroke: blue;
            stroke-dashoffset: 0;
            stroke-width: 128;
          }
          to {
            stroke: black;
            stroke-width: 1024;
          }
        }
        #make-me-a-hanzi-animation-1 {
          animation: keyframes1 0.5413411458333334s both;
          animation-delay: 0.69189453125s;
          animation-timing-function: linear;
        }
      
        @keyframes keyframes2 {
          from {
            stroke: blue;
            stroke-dashoffset: 424;
            stroke-width: 128;
          }
          58% {
            animation-timing-function: step-end;
            stroke: blue;
            stroke-dashoffset: 0;
            stroke-width: 128;
          }
          to {
            stroke: black;
            stroke-width: 1024;
          }
        }
        #make-me-a-hanzi-animation-2 {
          animation: keyframes2 0.5950520833333334s both;
          animation-delay: 1.2332356770833335s;
          animation-timing-function: linear;
        }
      
        @keyframes keyframes3 {
          from {
            stroke: blue;
            stroke-dashoffset: 675;
            stroke-width: 128;
          }
          69% {
            animation-timing-function: step-end;
            stroke: blue;
            stroke-dashoffset: 0;
            stroke-width: 128;
          }
          to {
            stroke: black;
            stroke-width: 1024;
          }
        }
        #make-me-a-hanzi-animation-3 {
          animation: keyframes3 0.79931640625s both;
          animation-delay: 1.828287760416667s;
          animation-timing-function: linear;
        }
      
        @keyframes keyframes4 {
          from {
            stroke: blue;
            stroke-dashoffset: 530;
            stroke-width: 128;
          }
          63% {
            animation-timing-function: step-end;
            stroke: blue;
            stroke-dashoffset: 0;
            stroke-width: 128;
          }
          to {
            stroke: black;
            stroke-width: 1024;
          }
        }
        #make-me-a-hanzi-animation-4 {
          animation: keyframes4 0.6813151041666666s both;
          animation-delay: 2.627604166666667s;
          animation-timing-function: linear;
        }
      
        @keyframes keyframes5 {
          from {
            stroke: blue;
            stroke-dashoffset: 941;
            stroke-width: 128;
          }
          75% {
            animation-timing-function: step-end;
            stroke: blue;
            stroke-dashoffset: 0;
            stroke-width: 128;
          }
          to {
            stroke: black;
            stroke-width: 1024;
          }
        }
        #make-me-a-hanzi-animation-5 {
          animation: keyframes5 1.0157877604166667s both;
          animation-delay: 3.3089192708333335s;
          animation-timing-function: linear;
        }
      
        @keyframes keyframes6 {
          from {
            stroke: blue;
            stroke-dashoffset: 581;
            stroke-width: 128;
          }
          65% {
            animation-timing-function: step-end;
            stroke: blue;
            stroke-dashoffset: 0;
            stroke-width: 128;
          }
          to {
            stroke: black;
            stroke-width: 1024;
          }
        }
        #make-me-a-hanzi-animation-6 {
          animation: keyframes6 0.7228190104166666s both;
          animation-delay: 4.32470703125s;
          animation-timing-function: linear;
        }
      
        @keyframes keyframes7 {
          from {
            stroke: blue;
            stroke-dashoffset: 831;
            stroke-width: 128;
          }
          73% {
            animation-timing-function: step-end;
            stroke: blue;
            stroke-dashoffset: 0;
            stroke-width: 128;
          }
          to {
            stroke: black;
            stroke-width: 1024;
          }
        }
        #make-me-a-hanzi-animation-7 {
          animation: keyframes7 0.92626953125s both;
          animation-delay: 5.047526041666667s;
          animation-timing-function: linear;
        }
      
        @keyframes keyframes8 {
          from {
            stroke: blue;
            stroke-dashoffset: 770;
            stroke-width: 128;
          }
          71% {
            animation-timing-function: step-end;
            stroke: blue;
            stroke-dashoffset: 0;
            stroke-width: 128;
          }
          to {
            stroke: black;
            stroke-width: 1024;
          }
        }
        #make-me-a-hanzi-animation-8 {
          animation: keyframes8 0.8766276041666666s both;
          animation-delay: 5.973795572916667s;
          animation-timing-function: linear;
        }
      
        @keyframes keyframes9 {
          from {
            stroke: blue;
            stroke-dashoffset: 465;
            stroke-width: 128;
          }
          60% {
            animation-timing-function: step-end;
            stroke: blue;
            stroke-dashoffset: 0;
            stroke-width: 128;
          }
          to {
            stroke: black;
            stroke-width: 1024;
          }
        }
        #make-me-a-hanzi-animation-9 {
          animation: keyframes9 0.62841796875s both;
          animation-delay: 6.850423177083334s;
          animation-timing-function: linear;
        }
      
    </style>
    
      <path d="M 332 715 Q 319 715 319 706 Q 319 703 326 696 Q 336 687 342 662 Q 356 616 359 436 C 360 406 395 418 395 448 Q 395 515 398 556 L 400 578 Q 401 590 402 598 Q 404 629 417 651 Q 420 658 420 662 Q 420 677 386 696 Q 354 715 332 715 Z" fill="lightgray" />
    
      <path d="M 398 556 Q 415 551 431 551 Q 441 551 508 570 Q 519 574 519 587 Q 519 605 483 606 Q 476 606 468 603 Q 429 587 400 578 C 371 569 369 564 398 556 Z" fill="lightgray" />
    
      <path d="M 284 412 Q 284 421 281 456 Q 280 488 280 511 Q 280 515 281 523 Q 284 532 284 534 Q 284 548 250 558 Q 222 570 212 570 Q 200 570 200 559 Q 200 557 205 547 Q 224 514 252 403 C 259 374 285 382 284 412 Z" fill="lightgray" />
    
      <path d="M 359 436 Q 318 423 284 412 L 252 403 Q 184 385 150 381 Q 120 378 120 366 Q 120 357 142 335 Q 171 310 191 310 Q 197 310 232 338 Q 294 374 473 451 Q 527 474 527 486 Q 527 490 515 490 Q 509 490 441 464 Q 419 457 395 448 L 359 436 Z" fill="lightgray" />
    
      <path d="M 596 530 Q 671 554 730 594 Q 778 629 817 653 Q 836 661 836 666 Q 836 681 796 700 Q 768 715 756 715 Q 750 715 746 709 Q 743 704 743 698 Q 743 682 713 647 Q 669 600 613 563 Q 605 558 597 554 C 571 540 567 521 596 530 Z" fill="lightgray" />
    
      <path d="M 555 746 Q 540 746 540 731 Q 555 694 555 650 Q 552 519 552 499 Q 552 449 572 423 Q 586 403 618 393 Q 653 379 703 379 Q 793 379 844 403 Q 880 424 880 438 Q 880 447 872 456 Q 865 471 854 528 Q 851 562 844 562 Q 839 562 830 522 Q 817 472 790 454 Q 757 434 687 434 Q 636 434 614 447 Q 596 461 596 499 L 596 530 L 597 554 Q 597 572 598 596 Q 605 674 613 691 Q 620 704 620 706 Q 620 721 591 736 Q 569 746 555 746 Z" fill="lightgray" />
    
      <path d="M 328 335 Q 315 334 315 322 Q 315 319 330 291 Q 343 262 343 226 L 343 148 Q 343 117 333 89 Q 319 76 319 70 Q 319 56 332 32 Q 348 3 355 3 Q 375 3 383 19 Q 386 39 387 66 L 387 221 Q 387 244 394 274 C 400 301 400 301 395 305 Q 389 313 366 323 Q 341 335 328 335 Z" fill="lightgray" />
    
      <path d="M 394 274 Q 421 276 514 288 Q 606 299 624 299 Q 651 299 651 251 L 651 154 Q 651 132 649 105 Q 643 76 643 54 Q 643 48 658 25 Q 671 10 687 10 Q 700 10 705 35 Q 706 53 706 203 Q 706 263 720 286 Q 727 300 727 303 Q 727 315 700 336 Q 669 358 647 358 Q 635 358 578 342 Q 503 318 395 305 C 365 301 364 271 394 274 Z" fill="lightgray" />
    
      <path d="M 496 234 Q 479 234 479 222 Q 479 215 482 210 Q 487 186 487 167 Q 485 118 457 49 Q 425 -19 390 -48 Q 340 -92 267 -122 Q 231 -137 231 -141 Q 231 -146 248 -146 Q 323 -146 408 -86 Q 483 -34 527 90 Q 549 147 557 160 Q 567 171 567 175 Q 567 185 532 214 Q 503 234 496 234 Z" fill="lightgray" />
    
      <path d="M 580 18 Q 575 18 575 10 Q 575 6 610 -26 Q 645 -56 689 -106 Q 721 -141 743 -141 Q 771 -141 771 -106 Q 771 -87 754 -64 Q 727 -37 638 1 Q 595 18 580 18 Z" fill="lightgray" />
    
    
      <clipPath id="make-me-a-hanzi-clip-0">
        <path d="M 332 715 Q 319 715 319 706 Q 319 703 326 696 Q 336 687 342 662 Q 356 616 359 436 C 360 406 395 418 395 448 Q 395 515 398 556 L 400 578 Q 401 590 402 598 Q 404 629 417 651 Q 420 658 420 662 Q 420 677 386 696 Q 354 715 332 715 Z" />
      </clipPath>
      <path clip-path="url(#make-me-a-hanzi-clip-0)" d="M 329 706 L 356 689 L 380 657 L 377 462 L 362 448" fill="none" id="make-me-a-hanzi-animation-0" stroke-dasharray="415 830" stroke-linecap="round" />
    
      <clipPath id="make-me-a-hanzi-clip-1">
        <path d="M 398 556 Q 415 551 431 551 Q 441 551 508 570 Q 519 574 519 587 Q 519 605 483 606 Q 476 606 468 603 Q 429 587 400 578 C 371 569 369 564 398 556 Z" />
      </clipPath>
      <path clip-path="url(#make-me-a-hanzi-clip-1)" d="M 405 561 L 479 585 L 503 585" fill="none" id="make-me-a-hanzi-animation-1" stroke-dasharray="230 460" stroke-linecap="round" />
    
      <clipPath id="make-me-a-hanzi-clip-2">
        <path d="M 284 412 Q 284 421 281 456 Q 280 488 280 511 Q 280 515 281 523 Q 284 532 284 534 Q 284 548 250 558 Q 222 570 212 570 Q 200 570 200 559 Q 200 557 205 547 Q 224 514 252 403 C 259 374 285 382 284 412 Z" />
      </clipPath>
      <path clip-path="url(#make-me-a-hanzi-clip-2)" d="M 210 560 L 249 525 L 265 427 L 254 415" fill="none" id="make-me-a-hanzi-animation-2" stroke-dasharray="296 592" stroke-linecap="round" />
    
      <clipPath id="make-me-a-hanzi-clip-3">
        <path d="M 359 436 Q 318 423 284 412 L 252 403 Q 184 385 150 381 Q 120 378 120 366 Q 120 357 142 335 Q 171 310 191 310 Q 197 310 232 338 Q 294 374 473 451 Q 527 474 527 486 Q 527 490 515 490 Q 509 490 441 464 Q 419 457 395 448 L 359 436 Z" />
      </clipPath>
      <path clip-path="url(#make-me-a-hanzi-clip-3)" d="M 130 365 L 186 350 L 438 448 L 520 486" fill="none" id="make-me-a-hanzi-animation-3" stroke-dasharray="547 1094" stroke-linecap="round" />
    
      <clipPath id="make-me-a-hanzi-clip-4">
        <path d="M 596 530 Q 671 554 730 594 Q 778 629 817 653 Q 836 661 836 666 Q 836 681 796 700 Q 768 715 756 715 Q 750 715 746 709 Q 743 704 743 698 Q 743 682 713 647 Q 669 600 613 563 Q 605 558 597 554 C 571 540 567 521 596 530 Z" />
      </clipPath>
      <path clip-path="url(#make-me-a-hanzi-clip-4)" d="M 828 668 L 774 670 L 700 601 L 608 547 L 602 536" fill="none" id="make-me-a-hanzi-animation-4" stroke-dasharray="402 804" stroke-linecap="round" />
    
      <clipPath id="make-me-a-hanzi-clip-5">
        <path d="M 555 746 Q 540 746 540 731 Q 555 694 555 650 Q 552 519 552 499 Q 552 449 572 423 Q 586 403 618 393 Q 653 379 703 379 Q 793 379 844 403 Q 880 424 880 438 Q 880 447 872 456 Q 865 471 854 528 Q 851 562 844 562 Q 839 562 830 522 Q 817 472 790 454 Q 757 434 687 434 Q 636 434 614 447 Q 596 461 596 499 L 596 530 L 597 554 Q 597 572 598 596 Q 605 674 613 691 Q 620 704 620 706 Q 620 721 591 736 Q 569 746 555 746 Z" />
      </clipPath>
      <path clip-path="url(#make-me-a-hanzi-clip-5)" d="M 553 733 L 582 704 L 575 474 L 583 450 L 600 428 L 643 411 L 712 406 L 778 415 L 814 428 L 836 446 L 844 558" fill="none" id="make-me-a-hanzi-animation-5" stroke-dasharray="813 1626" stroke-linecap="round" />
    
      <clipPath id="make-me-a-hanzi-clip-6">
        <path d="M 328 335 Q 315 334 315 322 Q 315 319 330 291 Q 343 262 343 226 L 343 148 Q 343 117 333 89 Q 319 76 319 70 Q 319 56 332 32 Q 348 3 355 3 Q 375 3 383 19 Q 386 39 387 66 L 387 221 Q 387 244 394 274 C 400 301 400 301 395 305 Q 389 313 366 323 Q 341 335 328 335 Z" />
      </clipPath>
      <path clip-path="url(#make-me-a-hanzi-clip-6)" d="M 326 323 L 364 290 L 366 272 L 366 151 L 354 63 L 359 17" fill="none" id="make-me-a-hanzi-animation-6" stroke-dasharray="453 906" stroke-linecap="round" />
    
      <clipPath id="make-me-a-hanzi-clip-7">
        <path d="M 394 274 Q 421 276 514 288 Q 606 299 624 299 Q 651 299 651 251 L 651 154 Q 651 132 649 105 Q 643 76 643 54 Q 643 48 658 25 Q 671 10 687 10 Q 700 10 705 35 Q 706 53 706 203 Q 706 263 720 286 Q 727 300 727 303 Q 727 315 700 336 Q 669 358 647 358 Q 635 358 578 342 Q 503 318 395 305 C 365 301 364 271 394 274 Z" />
      </clipPath>
      <path clip-path="url(#make-me-a-hanzi-clip-7)" d="M 397 282 L 410 292 L 501 302 L 620 326 L 649 326 L 673 311 L 682 299 L 674 57 L 684 27" fill="none" id="make-me-a-hanzi-animation-7" stroke-dasharray="703 1406" stroke-linecap="round" />
    
      <clipPath id="make-me-a-hanzi-clip-8">
        <path d="M 496 234 Q 479 234 479 222 Q 479 215 482 210 Q 487 186 487 167 Q 485 118 457 49 Q 425 -19 390 -48 Q 340 -92 267 -122 Q 231 -137 231 -141 Q 231 -146 248 -146 Q 323 -146 408 -86 Q 483 -34 527 90 Q 549 147 557 160 Q 567 171 567 175 Q 567 185 532 214 Q 503 234 496 234 Z" />
      </clipPath>
      <path clip-path="url(#make-me-a-hanzi-clip-8)" d="M 492 221 L 523 173 L 488 58 L 453 -9 L 401 -66 L 361 -94 L 294 -127 L 235 -141" fill="none" id="make-me-a-hanzi-animation-8" stroke-dasharray="642 1284" stroke-linecap="round" />
    
      <clipPath id="make-me-a-hanzi-clip-9">
        <path d="M 580 18 Q 575 18 575 10 Q 575 6 610 -26 Q 645 -56 689 -106 Q 721 -141 743 -141 Q 771 -141 771 -106 Q 771 -87 754 -64 Q 727 -37 638 1 Q 595 18 580 18 Z" />
      </clipPath>
      <path clip-path="url(#make-me-a-hanzi-clip-9)" d="M 582 11 L 656 -33 L 714 -78 L 745 -117" fill="none" id="make-me-a-hanzi-animation-9" stroke-dasharray="337 674" stroke-linecap="round" />
    
  </g>
</svg>