<svg version="1.1" viewBox="0 0 1024 1024" xmlns="http://www.w3.org/2000/svg">
  <g stroke="lightgray" stroke-dasharray="1,1" stroke-width="1" transform="scale(4, 4)">
    <line x1="0" y1="0" x2="256" y2="256"></line>
    <line x1="256" y1="0" x2="0" y2="256"></line>
    <line x1="128" y1="0" x2="128" y2="256"></line>
    <line x1="0" y1="128" x2="256" y2="128"></line>
  </g>
  <g transform="scale(0.92, -0.92) translate(60, -830)">
    <style type="text/css">
      
        @keyframes keyframes0 {
          from {
            stroke: blue;
            stroke-dashoffset: 692;
            stroke-width: 128;
          }
          69% {
            animation-timing-function: step-end;
            stroke: blue;
            stroke-dashoffset: 0;
            stroke-width: 128;
          }
          to {
            stroke: black;
            stroke-width: 1024;
          }
        }
        #make-me-a-hanzi-animation-0 {
          animation: keyframes0 0.8131510416666666s both;
          animation-delay: 0s;
          animation-timing-function: linear;
        }
      
        @keyframes keyframes1 {
          from {
            stroke: blue;
            stroke-dashoffset: 857;
            stroke-width: 128;
          }
          74% {
            animation-timing-function: step-end;
            stroke: blue;
            stroke-dashoffset: 0;
            stroke-width: 128;
          }
          to {
            stroke: black;
            stroke-width: 1024;
          }
        }
        #make-me-a-hanzi-animation-1 {
          animation: keyframes1 0.9474283854166666s both;
          animation-delay: 0.8131510416666666s;
          animation-timing-function: linear;
        }
      
        @keyframes keyframes2 {
          from {
            stroke: blue;
            stroke-dashoffset: 867;
            stroke-width: 128;
          }
          74% {
            animation-timing-function: step-end;
            stroke: blue;
            stroke-dashoffset: 0;
            stroke-width: 128;
          }
          to {
            stroke: black;
            stroke-width: 1024;
          }
        }
        #make-me-a-hanzi-animation-2 {
          animation: keyframes2 0.95556640625s both;
          animation-delay: 1.7605794270833333s;
          animation-timing-function: linear;
        }
      
        @keyframes keyframes3 {
          from {
            stroke: blue;
            stroke-dashoffset: 426;
            stroke-width: 128;
          }
          58% {
            animation-timing-function: step-end;
            stroke: blue;
            stroke-dashoffset: 0;
            stroke-width: 128;
          }
          to {
            stroke: black;
            stroke-width: 1024;
          }
        }
        #make-me-a-hanzi-animation-3 {
          animation: keyframes3 0.5966796875s both;
          animation-delay: 2.716145833333333s;
          animation-timing-function: linear;
        }
      
        @keyframes keyframes4 {
          from {
            stroke: blue;
            stroke-dashoffset: 668;
            stroke-width: 128;
          }
          68% {
            animation-timing-function: step-end;
            stroke: blue;
            stroke-dashoffset: 0;
            stroke-width: 128;
          }
          to {
            stroke: black;
            stroke-width: 1024;
          }
        }
        #make-me-a-hanzi-animation-4 {
          animation: keyframes4 0.7936197916666666s both;
          animation-delay: 3.312825520833333s;
          animation-timing-function: linear;
        }
      
        @keyframes keyframes5 {
          from {
            stroke: blue;
            stroke-dashoffset: 1026;
            stroke-width: 128;
          }
          77% {
            animation-timing-function: step-end;
            stroke: blue;
            stroke-dashoffset: 0;
            stroke-width: 128;
          }
          to {
            stroke: black;
            stroke-width: 1024;
          }
        }
        #make-me-a-hanzi-animation-5 {
          animation: keyframes5 1.0849609375s both;
          animation-delay: 4.1064453125s;
          animation-timing-function: linear;
        }
      
        @keyframes keyframes6 {
          from {
            stroke: blue;
            stroke-dashoffset: 784;
            stroke-width: 128;
          }
          72% {
            animation-timing-function: step-end;
            stroke: blue;
            stroke-dashoffset: 0;
            stroke-width: 128;
          }
          to {
            stroke: black;
            stroke-width: 1024;
          }
        }
        #make-me-a-hanzi-animation-6 {
          animation: keyframes6 0.8880208333333334s both;
          animation-delay: 5.19140625s;
          animation-timing-function: linear;
        }
      
        @keyframes keyframes7 {
          from {
            stroke: blue;
            stroke-dashoffset: 525;
            stroke-width: 128;
          }
          63% {
            animation-timing-function: step-end;
            stroke: blue;
            stroke-dashoffset: 0;
            stroke-width: 128;
          }
          to {
            stroke: black;
            stroke-width: 1024;
          }
        }
        #make-me-a-hanzi-animation-7 {
          animation: keyframes7 0.67724609375s both;
          animation-delay: 6.079427083333333s;
          animation-timing-function: linear;
        }
      
        @keyframes keyframes8 {
          from {
            stroke: blue;
            stroke-dashoffset: 685;
            stroke-width: 128;
          }
          69% {
            animation-timing-function: step-end;
            stroke: blue;
            stroke-dashoffset: 0;
            stroke-width: 128;
          }
          to {
            stroke: black;
            stroke-width: 1024;
          }
        }
        #make-me-a-hanzi-animation-8 {
          animation: keyframes8 0.8074544270833334s both;
          animation-delay: 6.756673177083333s;
          animation-timing-function: linear;
        }
      
        @keyframes keyframes9 {
          from {
            stroke: blue;
            stroke-dashoffset: 488;
            stroke-width: 128;
          }
          61% {
            animation-timing-function: step-end;
            stroke: blue;
            stroke-dashoffset: 0;
            stroke-width: 128;
          }
          to {
            stroke: black;
            stroke-width: 1024;
          }
        }
        #make-me-a-hanzi-animation-9 {
          animation: keyframes9 0.6471354166666666s both;
          animation-delay: 7.564127604166666s;
          animation-timing-function: linear;
        }
      
    </style>
    
      <path d="M 112 587 Q 99 586 99 574 Q 99 571 112 546 Q 124 519 124 486 L 124 347 Q 124 290 114 238 Q 103 217 103 207 Q 103 193 115 171 Q 129 142 135 142 Q 152 142 159 166 Q 163 192 164 231 L 164 447 Q 164 485 170 539 C 172 560 172 560 160 567 Q 154 571 143 576 Q 123 587 112 587 Z" fill="lightgray"></path>
    
      <path d="M 170 539 Q 189 542 243 552 Q 300 562 311 562 Q 336 562 336 515 L 336 359 Q 336 323 334 280 Q 332 232 332 198 Q 332 193 343 173 Q 354 159 368 159 Q 381 159 384 192 Q 386 219 386 429 Q 386 515 399 547 Q 408 566 408 570 Q 408 582 382 602 Q 351 622 332 622 Q 323 622 286 606 Q 236 581 160 567 C 131 561 140 534 170 539 Z" fill="lightgray"></path>
    
      <path d="M 215 463 Q 204 463 204 454 Q 204 448 210 437 Q 227 406 227 362 Q 227 253 206 174 Q 187 103 159 55 Q 130 5 69 -45 Q 43 -63 43 -70 Q 43 -74 51 -74 Q 77 -74 127 -35 Q 179 11 208 69 Q 247 136 270 290 Q 281 369 289 392 Q 296 414 296 419 Q 296 436 262 450 Q 234 463 215 463 Z" fill="lightgray"></path>
    
      <path d="M 271 146 Q 267 146 267 138 Q 267 134 293 103 Q 317 74 349 25 Q 371 -9 387 -9 Q 416 -9 416 26 Q 416 45 402 67 Q 382 93 315 130 Q 283 146 271 146 Z" fill="lightgray"></path>
    
      <path d="M 592 731 Q 580 731 580 719 Q 584 702 584 683 Q 584 647 554 584 Q 512 495 437 414 Q 416 390 416 387 Q 416 383 420 383 Q 440 383 501 436 Q 513 447 526 461 L 541 477 Q 568 508 592 544 L 613 579 Q 616 584 618 589 Q 649 649 657 659 Q 664 667 664 671 Q 664 683 632 712 Q 599 731 592 731 Z" fill="lightgray"></path>
    
      <path d="M 622 358 Q 595 323 563 292 Q 489 217 395 169 Q 384 166 384 163 Q 384 159 403 159 Q 433 161 484 181 Q 572 223 654 313 Q 655 315 658 318 L 692 360 Q 727 406 773 484 Q 800 529 823 550 Q 836 566 836 570 Q 836 584 797 612 Q 761 631 743 631 Q 733 631 696 611 Q 657 590 613 579 C 584 571 562 541 592 544 Q 593 543 596 543 Q 605 543 712 570 Q 727 570 727 555 Q 727 535 683 450 Q 668 422 647 393 L 622 358 Z" fill="lightgray"></path>
    
      <path d="M 526 461 Q 542 447 581 403 Q 601 380 622 358 L 658 318 Q 736 235 769 214 Q 788 203 800 203 Q 838 203 907 214 Q 987 224 987 234 Q 987 239 942 249 Q 857 266 797 298 Q 752 319 692 360 L 647 393 Q 614 417 578 447 Q 554 467 541 477 C 517 496 504 482 526 461 Z" fill="lightgray"></path>
    
      <path d="M 475 159 Q 460 159 460 150 Q 460 145 469 134 Q 484 117 492 85 Q 508 43 515 -63 Q 518 -105 544 -106 Q 554 -106 558 -64 L 559 -33 Q 559 13 545 110 L 530 147 Q 526 151 517 153 Q 502 159 475 159 Z" fill="lightgray"></path>
    
      <path d="M 783 -11 Q 817 85 845 106 Q 859 116 859 127 Q 859 148 823 172 Q 788 194 764 194 Q 757 194 741 188 Q 714 178 632 163 Q 564 150 530 147 C 500 144 515 109 545 110 L 552 110 Q 564 110 631 126 Q 695 138 724 138 Q 748 138 748 119 Q 738 27 731 5 Q 730 -2 728 -8 C 721 -37 773 -39 783 -11 Z" fill="lightgray"></path>
    
      <path d="M 558 -64 Q 568 -70 584 -70 Q 687 -62 796 -53 Q 811 -46 811 -37 Q 811 -26 791 -13 L 783 -11 L 728 -8 Q 685 -13 559 -33 C 529 -38 531 -52 558 -64 Z" fill="lightgray"></path>
    
    
      <clipPath id="make-me-a-hanzi-clip-0">
        <path d="M 112 587 Q 99 586 99 574 Q 99 571 112 546 Q 124 519 124 486 L 124 347 Q 124 290 114 238 Q 103 217 103 207 Q 103 193 115 171 Q 129 142 135 142 Q 152 142 159 166 Q 163 192 164 231 L 164 447 Q 164 485 170 539 C 172 560 172 560 160 567 Q 154 571 143 576 Q 123 587 112 587 Z"></path>
      </clipPath>
      <path clip-path="url(#make-me-a-hanzi-clip-0)" d="M 111 575 L 139 548 L 144 531 L 144 300 L 133 206 L 138 152" fill="none" id="make-me-a-hanzi-animation-0" stroke-dasharray="564 1128" stroke-linecap="round"></path>
    
      <clipPath id="make-me-a-hanzi-clip-1">
        <path d="M 170 539 Q 189 542 243 552 Q 300 562 311 562 Q 336 562 336 515 L 336 359 Q 336 323 334 280 Q 332 232 332 198 Q 332 193 343 173 Q 354 159 368 159 Q 381 159 384 192 Q 386 219 386 429 Q 386 515 399 547 Q 408 566 408 570 Q 408 582 382 602 Q 351 622 332 622 Q 323 622 286 606 Q 236 581 160 567 C 131 561 140 534 170 539 Z"></path>
      </clipPath>
      <path clip-path="url(#make-me-a-hanzi-clip-1)" d="M 169 562 L 182 556 L 196 558 L 330 590 L 365 566 L 358 200 L 365 175" fill="none" id="make-me-a-hanzi-animation-1" stroke-dasharray="729 1458" stroke-linecap="round"></path>
    
      <clipPath id="make-me-a-hanzi-clip-2">
        <path d="M 215 463 Q 204 463 204 454 Q 204 448 210 437 Q 227 406 227 362 Q 227 253 206 174 Q 187 103 159 55 Q 130 5 69 -45 Q 43 -63 43 -70 Q 43 -74 51 -74 Q 77 -74 127 -35 Q 179 11 208 69 Q 247 136 270 290 Q 281 369 289 392 Q 296 414 296 419 Q 296 436 262 450 Q 234 463 215 463 Z"></path>
      </clipPath>
      <path clip-path="url(#make-me-a-hanzi-clip-2)" d="M 214 452 L 257 411 L 245 264 L 216 136 L 183 59 L 152 13 L 111 -30 L 48 -69" fill="none" id="make-me-a-hanzi-animation-2" stroke-dasharray="739 1478" stroke-linecap="round"></path>
    
      <clipPath id="make-me-a-hanzi-clip-3">
        <path d="M 271 146 Q 267 146 267 138 Q 267 134 293 103 Q 317 74 349 25 Q 371 -9 387 -9 Q 416 -9 416 26 Q 416 45 402 67 Q 382 93 315 130 Q 283 146 271 146 Z"></path>
      </clipPath>
      <path clip-path="url(#make-me-a-hanzi-clip-3)" d="M 275 139 L 362 63 L 389 16" fill="none" id="make-me-a-hanzi-animation-3" stroke-dasharray="298 596" stroke-linecap="round"></path>
    
      <clipPath id="make-me-a-hanzi-clip-4">
        <path d="M 592 731 Q 580 731 580 719 Q 584 702 584 683 Q 584 647 554 584 Q 512 495 437 414 Q 416 390 416 387 Q 416 383 420 383 Q 440 383 501 436 Q 513 447 526 461 L 541 477 Q 568 508 592 544 L 613 579 Q 616 584 618 589 Q 649 649 657 659 Q 664 667 664 671 Q 664 683 632 712 Q 599 731 592 731 Z"></path>
      </clipPath>
      <path clip-path="url(#make-me-a-hanzi-clip-4)" d="M 591 721 L 611 696 L 620 670 L 580 575 L 553 529 L 483 440 L 420 387" fill="none" id="make-me-a-hanzi-animation-4" stroke-dasharray="540 1080" stroke-linecap="round"></path>
    
      <clipPath id="make-me-a-hanzi-clip-5">
        <path d="M 622 358 Q 595 323 563 292 Q 489 217 395 169 Q 384 166 384 163 Q 384 159 403 159 Q 433 161 484 181 Q 572 223 654 313 Q 655 315 658 318 L 692 360 Q 727 406 773 484 Q 800 529 823 550 Q 836 566 836 570 Q 836 584 797 612 Q 761 631 743 631 Q 733 631 696 611 Q 657 590 613 579 C 584 571 562 541 592 544 Q 593 543 596 543 Q 605 543 712 570 Q 727 570 727 555 Q 727 535 683 450 Q 668 422 647 393 L 622 358 Z"></path>
      </clipPath>
      <path clip-path="url(#make-me-a-hanzi-clip-5)" d="M 596 550 L 624 566 L 715 595 L 745 595 L 774 569 L 757 524 L 710 436 L 607 300 L 505 214 L 456 185 L 396 162" fill="none" id="make-me-a-hanzi-animation-5" stroke-dasharray="898 1796" stroke-linecap="round"></path>
    
      <clipPath id="make-me-a-hanzi-clip-6">
        <path d="M 526 461 Q 542 447 581 403 Q 601 380 622 358 L 658 318 Q 736 235 769 214 Q 788 203 800 203 Q 838 203 907 214 Q 987 224 987 234 Q 987 239 942 249 Q 857 266 797 298 Q 752 319 692 360 L 647 393 Q 614 417 578 447 Q 554 467 541 477 C 517 496 504 482 526 461 Z"></path>
      </clipPath>
      <path clip-path="url(#make-me-a-hanzi-clip-6)" d="M 533 462 L 550 456 L 717 303 L 790 252 L 828 242 L 917 233 L 983 234" fill="none" id="make-me-a-hanzi-animation-6" stroke-dasharray="656 1312" stroke-linecap="round"></path>
    
      <clipPath id="make-me-a-hanzi-clip-7">
        <path d="M 475 159 Q 460 159 460 150 Q 460 145 469 134 Q 484 117 492 85 Q 508 43 515 -63 Q 518 -105 544 -106 Q 554 -106 558 -64 L 559 -33 Q 559 13 545 110 L 530 147 Q 526 151 517 153 Q 502 159 475 159 Z"></path>
      </clipPath>
      <path clip-path="url(#make-me-a-hanzi-clip-7)" d="M 469 149 L 508 126 L 519 96 L 541 -95" fill="none" id="make-me-a-hanzi-animation-7" stroke-dasharray="397 794" stroke-linecap="round"></path>
    
      <clipPath id="make-me-a-hanzi-clip-8">
        <path d="M 783 -11 Q 817 85 845 106 Q 859 116 859 127 Q 859 148 823 172 Q 788 194 764 194 Q 757 194 741 188 Q 714 178 632 163 Q 564 150 530 147 C 500 144 515 109 545 110 L 552 110 Q 564 110 631 126 Q 695 138 724 138 Q 748 138 748 119 Q 738 27 731 5 Q 730 -2 728 -8 C 721 -37 773 -39 783 -11 Z"></path>
      </clipPath>
      <path clip-path="url(#make-me-a-hanzi-clip-8)" d="M 536 142 L 568 132 L 720 160 L 757 161 L 773 155 L 797 129 L 763 18 L 735 -3" fill="none" id="make-me-a-hanzi-animation-8" stroke-dasharray="557 1114" stroke-linecap="round"></path>
    
      <clipPath id="make-me-a-hanzi-clip-9">
        <path d="M 558 -64 Q 568 -70 584 -70 Q 687 -62 796 -53 Q 811 -46 811 -37 Q 811 -26 791 -13 L 783 -11 L 728 -8 Q 685 -13 559 -33 C 529 -38 531 -52 558 -64 Z"></path>
      </clipPath>
      <path clip-path="url(#make-me-a-hanzi-clip-9)" d="M 568 -57 L 595 -47 L 718 -34 L 797 -36" fill="none" id="make-me-a-hanzi-animation-9" stroke-dasharray="360 720" stroke-linecap="round"></path>
    
  </g>
</svg>