<svg xmlns="http://www.w3.org/2000/svg" version="1.1" viewBox="0 0 1024 1024">
  <g stroke="lightgray" stroke-dasharray="1,1" stroke-width="1" transform="scale(4, 4)">
    <line x1="0" y1="0" x2="256" y2="256" />
    <line x1="256" y1="0" x2="0" y2="256" />
    <line x1="128" y1="0" x2="128" y2="256" />
    <line x1="0" y1="128" x2="256" y2="128" />
  </g>
  <g transform="scale(1.0, -1.0) translate(0.0, -807.00)">
    <style type="text/css">
      
        @keyframes keyframes0 {
          from {
            stroke: blue;
            stroke-dashoffset: 699;
            stroke-width: 128;
          }
          69% {
            animation-timing-function: step-end;
            stroke: blue;
            stroke-dashoffset: 0;
            stroke-width: 128;
          }
          to {
            stroke: black;
            stroke-width: 1024;
          }
        }
        #make-me-a-hanzi-animation-0 {
          animation: keyframes0 0.81884765625s both;
          animation-delay: 0s;
          animation-timing-function: linear;
        }
      
        @keyframes keyframes1 {
          from {
            stroke: blue;
            stroke-dashoffset: 900;
            stroke-width: 128;
          }
          75% {
            animation-timing-function: step-end;
            stroke: blue;
            stroke-dashoffset: 0;
            stroke-width: 128;
          }
          to {
            stroke: black;
            stroke-width: 1024;
          }
        }
        #make-me-a-hanzi-animation-1 {
          animation: keyframes1 0.982421875s both;
          animation-delay: 0.81884765625s;
          animation-timing-function: linear;
        }
      
        @keyframes keyframes2 {
          from {
            stroke: blue;
            stroke-dashoffset: 875;
            stroke-width: 128;
          }
          74% {
            animation-timing-function: step-end;
            stroke: blue;
            stroke-dashoffset: 0;
            stroke-width: 128;
          }
          to {
            stroke: black;
            stroke-width: 1024;
          }
        }
        #make-me-a-hanzi-animation-2 {
          animation: keyframes2 0.9620768229166666s both;
          animation-delay: 1.80126953125s;
          animation-timing-function: linear;
        }
      
        @keyframes keyframes3 {
          from {
            stroke: blue;
            stroke-dashoffset: 416;
            stroke-width: 128;
          }
          58% {
            animation-timing-function: step-end;
            stroke: blue;
            stroke-dashoffset: 0;
            stroke-width: 128;
          }
          to {
            stroke: black;
            stroke-width: 1024;
          }
        }
        #make-me-a-hanzi-animation-3 {
          animation: keyframes3 0.5885416666666666s both;
          animation-delay: 2.7633463541666665s;
          animation-timing-function: linear;
        }
      
        @keyframes keyframes4 {
          from {
            stroke: blue;
            stroke-dashoffset: 773;
            stroke-width: 128;
          }
          72% {
            animation-timing-function: step-end;
            stroke: blue;
            stroke-dashoffset: 0;
            stroke-width: 128;
          }
          to {
            stroke: black;
            stroke-width: 1024;
          }
        }
        #make-me-a-hanzi-animation-4 {
          animation: keyframes4 0.8790690104166666s both;
          animation-delay: 3.351888020833333s;
          animation-timing-function: linear;
        }
      
        @keyframes keyframes5 {
          from {
            stroke: blue;
            stroke-dashoffset: 692;
            stroke-width: 128;
          }
          69% {
            animation-timing-function: step-end;
            stroke: blue;
            stroke-dashoffset: 0;
            stroke-width: 128;
          }
          to {
            stroke: black;
            stroke-width: 1024;
          }
        }
        #make-me-a-hanzi-animation-5 {
          animation: keyframes5 0.8131510416666666s both;
          animation-delay: 4.23095703125s;
          animation-timing-function: linear;
        }
      
        @keyframes keyframes6 {
          from {
            stroke: blue;
            stroke-dashoffset: 467;
            stroke-width: 128;
          }
          60% {
            animation-timing-function: step-end;
            stroke: blue;
            stroke-dashoffset: 0;
            stroke-width: 128;
          }
          to {
            stroke: black;
            stroke-width: 1024;
          }
        }
        #make-me-a-hanzi-animation-6 {
          animation: keyframes6 0.6300455729166666s both;
          animation-delay: 5.044108072916667s;
          animation-timing-function: linear;
        }
      
        @keyframes keyframes7 {
          from {
            stroke: blue;
            stroke-dashoffset: 670;
            stroke-width: 128;
          }
          69% {
            animation-timing-function: step-end;
            stroke: blue;
            stroke-dashoffset: 0;
            stroke-width: 128;
          }
          to {
            stroke: black;
            stroke-width: 1024;
          }
        }
        #make-me-a-hanzi-animation-7 {
          animation: keyframes7 0.7952473958333334s both;
          animation-delay: 5.674153645833334s;
          animation-timing-function: linear;
        }
      
        @keyframes keyframes8 {
          from {
            stroke: blue;
            stroke-dashoffset: 652;
            stroke-width: 128;
          }
          68% {
            animation-timing-function: step-end;
            stroke: blue;
            stroke-dashoffset: 0;
            stroke-width: 128;
          }
          to {
            stroke: black;
            stroke-width: 1024;
          }
        }
        #make-me-a-hanzi-animation-8 {
          animation: keyframes8 0.7805989583333334s both;
          animation-delay: 6.469401041666667s;
          animation-timing-function: linear;
        }
      
        @keyframes keyframes9 {
          from {
            stroke: blue;
            stroke-dashoffset: 420;
            stroke-width: 128;
          }
          58% {
            animation-timing-function: step-end;
            stroke: blue;
            stroke-dashoffset: 0;
            stroke-width: 128;
          }
          to {
            stroke: black;
            stroke-width: 1024;
          }
        }
        #make-me-a-hanzi-animation-9 {
          animation: keyframes9 0.591796875s both;
          animation-delay: 7.25s;
          animation-timing-function: linear;
        }
      
        @keyframes keyframes10 {
          from {
            stroke: blue;
            stroke-dashoffset: 432;
            stroke-width: 128;
          }
          58% {
            animation-timing-function: step-end;
            stroke: blue;
            stroke-dashoffset: 0;
            stroke-width: 128;
          }
          to {
            stroke: black;
            stroke-width: 1024;
          }
        }
        #make-me-a-hanzi-animation-10 {
          animation: keyframes10 0.6015625s both;
          animation-delay: 7.841796875s;
          animation-timing-function: linear;
        }
      
    </style>
    
      <path d="M 124 591 Q 108 589 108 574 Q 108 570 125 540 Q 139 509 139 471 L 139 343 Q 139 291 128 244 Q 116 223 116 215 Q 116 198 129 172 Q 147 138 156 138 Q 174 138 182 162 Q 186 188 187 227 L 187 443 Q 187 485 200 546 C 202 558 202 558 176 571 Q 171 574 164 577 Q 137 591 124 591 Z" fill="lightgray" />
    
      <path d="M 200 546 Q 224 549 267 556 Q 335 566 347 566 Q 372 566 372 519 L 372 353 Q 372 315 370 269 Q 368 218 368 182 Q 368 177 379 156 Q 390 142 403 142 Q 417 142 421 178 Q 422 194 422 287 L 422 304 L 422 426 Q 422 516 435 550 Q 443 569 443 574 Q 443 586 418 605 Q 387 627 368 627 Q 358 627 315 610 Q 259 586 176 571 C 147 565 170 542 200 546 Z" fill="lightgray" />
    
      <path d="M 248 494 Q 231 494 231 486 Q 231 480 238 468 Q 256 434 256 387 Q 256 282 231 207 Q 211 139 178 94 Q 145 46 77 -2 Q 47 -19 47 -26 Q 47 -30 59 -30 Q 87 -30 142 8 Q 200 52 231 108 Q 274 174 300 322 Q 311 398 319 421 Q 328 441 328 446 Q 328 466 294 481 Q 266 494 248 494 Z" fill="lightgray" />
    
      <path d="M 303 159 Q 299 159 299 150 Q 299 146 322 118 Q 344 89 373 43 Q 392 10 408 10 Q 435 10 435 47 Q 435 63 423 85 Q 404 108 343 142 Q 313 159 303 159 Z" fill="lightgray" />
    
      <path d="M 422 287 L 424 287 Q 460 287 538 374 Q 608 454 669 596 Q 670 597 671 600 L 681 622 Q 693 649 702 665 Q 712 679 712 687 Q 712 698 677 716 Q 650 731 632 731 Q 615 731 615 719 Q 615 716 617 708 Q 624 694 624 683 Q 615 622 568 515 Q 512 399 446 333 Q 431 315 422 304 C 406 284 406 284 422 287 Z" fill="lightgray" />
    
      <path d="M 671 600 Q 681 584 698 550 Q 790 380 820 347 Q 833 335 840 335 Q 872 335 931 344 Q 999 353 999 362 Q 999 368 967 378 Q 905 397 861 432 Q 799 478 702 596 Q 690 612 681 622 C 662 645 656 626 671 600 Z" fill="lightgray" />
    
      <path d="M 712 387 Q 705 387 690 382 Q 653 371 552 358 Q 540 357 540 350 Q 540 343 560 336 Q 584 326 603 326 Q 611 326 624 329 Q 644 331 708 339 Q 729 342 754 352 Q 767 358 768 371 Q 765 386 712 387 Z" fill="lightgray" />
    
      <path d="M 827 251 Q 803 251 777 246 Q 653 224 565 214 Q 524 209 479 207 Q 457 207 456 194 Q 457 189 470 183 Q 496 172 519 171 Q 532 171 564 176 Q 591 179 625 183 L 684 189 Q 707 191 732 193 Q 794 197 867 198 Q 892 198 892 215 Q 892 228 872 239 Q 852 251 827 251 Z" fill="lightgray" />
    
      <path d="M 625 183 Q 651 145 651 119 L 651 -1 Q 651 -37 632 -37 Q 627 -37 596 -24 Q 569 -13 559 -13 Q 556 -15 555 -22 Q 579 -53 615 -113 Q 633 -141 640 -141 Q 663 -141 685 -103 Q 708 -61 708 -30 Q 708 -21 705 11 Q 703 69 703 127 L 703 150 Q 708 158 708 163 Q 708 172 684 189 C 660 207 609 208 625 183 Z" fill="lightgray" />
    
      <path d="M 527 119 Q 523 119 517 95 Q 511 75 479 33 Q 452 -3 452 -26 Q 452 -53 471 -53 Q 499 -53 526 -4 Q 544 30 544 54 Q 544 72 540 92 Q 537 119 527 119 Z" fill="lightgray" />
    
      <path d="M 771 115 Q 768 115 768 110 Q 768 104 788 64 Q 846 -45 880 -45 Q 903 -45 903 3 Q 903 44 850 78 Q 785 115 771 115 Z" fill="lightgray" />
    
    
      <clipPath id="make-me-a-hanzi-clip-0">
        <path d="M 124 591 Q 108 589 108 574 Q 108 570 125 540 Q 139 509 139 471 L 139 343 Q 139 291 128 244 Q 116 223 116 215 Q 116 198 129 172 Q 147 138 156 138 Q 174 138 182 162 Q 186 188 187 227 L 187 443 Q 187 485 200 546 C 202 558 202 558 176 571 Q 171 574 164 577 Q 137 591 124 591 Z" />
      </clipPath>
      <path clip-path="url(#make-me-a-hanzi-clip-0)" d="M 122 576 L 157 545 L 164 526 L 162 281 L 151 212 L 159 151" fill="none" id="make-me-a-hanzi-animation-0" stroke-dasharray="571 1142" stroke-linecap="round" />
    
      <clipPath id="make-me-a-hanzi-clip-1">
        <path d="M 200 546 Q 224 549 267 556 Q 335 566 347 566 Q 372 566 372 519 L 372 353 Q 372 315 370 269 Q 368 218 368 182 Q 368 177 379 156 Q 390 142 403 142 Q 417 142 421 178 Q 422 194 422 287 L 422 304 L 422 426 Q 422 516 435 550 Q 443 569 443 574 Q 443 586 418 605 Q 387 627 368 627 Q 358 627 315 610 Q 259 586 176 571 C 147 565 170 542 200 546 Z" />
      </clipPath>
      <path clip-path="url(#make-me-a-hanzi-clip-1)" d="M 184 571 L 194 564 L 214 563 L 369 594 L 401 569 L 394 188 L 401 157" fill="none" id="make-me-a-hanzi-animation-1" stroke-dasharray="772 1544" stroke-linecap="round" />
    
      <clipPath id="make-me-a-hanzi-clip-2">
        <path d="M 248 494 Q 231 494 231 486 Q 231 480 238 468 Q 256 434 256 387 Q 256 282 231 207 Q 211 139 178 94 Q 145 46 77 -2 Q 47 -19 47 -26 Q 47 -30 59 -30 Q 87 -30 142 8 Q 200 52 231 108 Q 274 174 300 322 Q 311 398 319 421 Q 328 441 328 446 Q 328 466 294 481 Q 266 494 248 494 Z" />
      </clipPath>
      <path clip-path="url(#make-me-a-hanzi-clip-2)" d="M 240 484 L 288 442 L 277 316 L 264 246 L 233 151 L 189 78 L 139 25 L 54 -26" fill="none" id="make-me-a-hanzi-animation-2" stroke-dasharray="747 1494" stroke-linecap="round" />
    
      <clipPath id="make-me-a-hanzi-clip-3">
        <path d="M 303 159 Q 299 159 299 150 Q 299 146 322 118 Q 344 89 373 43 Q 392 10 408 10 Q 435 10 435 47 Q 435 63 423 85 Q 404 108 343 142 Q 313 159 303 159 Z" />
      </clipPath>
      <path clip-path="url(#make-me-a-hanzi-clip-3)" d="M 306 152 L 392 72 L 410 33" fill="none" id="make-me-a-hanzi-animation-3" stroke-dasharray="288 576" stroke-linecap="round" />
    
      <clipPath id="make-me-a-hanzi-clip-4">
        <path d="M 422 287 L 424 287 Q 460 287 538 374 Q 608 454 669 596 Q 670 597 671 600 L 681 622 Q 693 649 702 665 Q 712 679 712 687 Q 712 698 677 716 Q 650 731 632 731 Q 615 731 615 719 Q 615 716 617 708 Q 624 694 624 683 Q 615 622 568 515 Q 512 399 446 333 Q 431 315 422 304 C 406 284 406 284 422 287 Z" />
      </clipPath>
      <path clip-path="url(#make-me-a-hanzi-clip-4)" d="M 628 718 L 664 678 L 604 524 L 569 458 L 515 379 L 423 291" fill="none" id="make-me-a-hanzi-animation-4" stroke-dasharray="645 1290" stroke-linecap="round" />
    
      <clipPath id="make-me-a-hanzi-clip-5">
        <path d="M 671 600 Q 681 584 698 550 Q 790 380 820 347 Q 833 335 840 335 Q 872 335 931 344 Q 999 353 999 362 Q 999 368 967 378 Q 905 397 861 432 Q 799 478 702 596 Q 690 612 681 622 C 662 645 656 626 671 600 Z" />
      </clipPath>
      <path clip-path="url(#make-me-a-hanzi-clip-5)" d="M 681 615 L 683 601 L 732 527 L 794 445 L 850 383 L 941 364 L 995 362" fill="none" id="make-me-a-hanzi-animation-5" stroke-dasharray="564 1128" stroke-linecap="round" />
    
      <clipPath id="make-me-a-hanzi-clip-6">
        <path d="M 712 387 Q 705 387 690 382 Q 653 371 552 358 Q 540 357 540 350 Q 540 343 560 336 Q 584 326 603 326 Q 611 326 624 329 Q 644 331 708 339 Q 729 342 754 352 Q 767 358 768 371 Q 765 386 712 387 Z" />
      </clipPath>
      <path clip-path="url(#make-me-a-hanzi-clip-6)" d="M 548 351 L 598 345 L 757 368" fill="none" id="make-me-a-hanzi-animation-6" stroke-dasharray="339 678" stroke-linecap="round" />
    
      <clipPath id="make-me-a-hanzi-clip-7">
        <path d="M 827 251 Q 803 251 777 246 Q 653 224 565 214 Q 524 209 479 207 Q 457 207 456 194 Q 457 189 470 183 Q 496 172 519 171 Q 532 171 564 176 Q 591 179 625 183 L 684 189 Q 707 191 732 193 Q 794 197 867 198 Q 892 198 892 215 Q 892 228 872 239 Q 852 251 827 251 Z" />
      </clipPath>
      <path clip-path="url(#make-me-a-hanzi-clip-7)" d="M 464 196 L 552 192 L 822 224 L 875 215" fill="none" id="make-me-a-hanzi-animation-7" stroke-dasharray="542 1084" stroke-linecap="round" />
    
      <clipPath id="make-me-a-hanzi-clip-8">
        <path d="M 625 183 Q 651 145 651 119 L 651 -1 Q 651 -37 632 -37 Q 627 -37 596 -24 Q 569 -13 559 -13 Q 556 -15 555 -22 Q 579 -53 615 -113 Q 633 -141 640 -141 Q 663 -141 685 -103 Q 708 -61 708 -30 Q 708 -21 705 11 Q 703 69 703 127 L 703 150 Q 708 158 708 163 Q 708 172 684 189 C 660 207 609 208 625 183 Z" />
      </clipPath>
      <path clip-path="url(#make-me-a-hanzi-clip-8)" d="M 633 178 L 673 157 L 679 -1 L 674 -43 L 663 -65 L 647 -80 L 562 -20" fill="none" id="make-me-a-hanzi-animation-8" stroke-dasharray="524 1048" stroke-linecap="round" />
    
      <clipPath id="make-me-a-hanzi-clip-9">
        <path d="M 527 119 Q 523 119 517 95 Q 511 75 479 33 Q 452 -3 452 -26 Q 452 -53 471 -53 Q 499 -53 526 -4 Q 544 30 544 54 Q 544 72 540 92 Q 537 119 527 119 Z" />
      </clipPath>
      <path clip-path="url(#make-me-a-hanzi-clip-9)" d="M 529 113 L 520 50 L 470 -37" fill="none" id="make-me-a-hanzi-animation-9" stroke-dasharray="292 584" stroke-linecap="round" />
    
      <clipPath id="make-me-a-hanzi-clip-10">
        <path d="M 771 115 Q 768 115 768 110 Q 768 104 788 64 Q 846 -45 880 -45 Q 903 -45 903 3 Q 903 44 850 78 Q 785 115 771 115 Z" />
      </clipPath>
      <path clip-path="url(#make-me-a-hanzi-clip-10)" d="M 773 110 L 856 24 L 880 -27" fill="none" id="make-me-a-hanzi-animation-10" stroke-dasharray="304 608" stroke-linecap="round" />
    
  </g>
</svg>