<svg version="1.1" viewBox="0 0 1024 1024" xmlns="http://www.w3.org/2000/svg">
  <g stroke="lightgray" stroke-dasharray="1,1" stroke-width="1" transform="scale(4, 4)">
    <line x1="0" y1="0" x2="256" y2="256"></line>
    <line x1="256" y1="0" x2="0" y2="256"></line>
    <line x1="128" y1="0" x2="128" y2="256"></line>
    <line x1="0" y1="128" x2="256" y2="128"></line>
  </g>
  <g transform="scale(0.92, -0.92) translate(60, -830)">
    <style type="text/css">
      
        @keyframes keyframes0 {
          from {
            stroke: blue;
            stroke-dashoffset: 701;
            stroke-width: 128;
          }
          70% {
            animation-timing-function: step-end;
            stroke: blue;
            stroke-dashoffset: 0;
            stroke-width: 128;
          }
          to {
            stroke: black;
            stroke-width: 1024;
          }
        }
        #make-me-a-hanzi-animation-0 {
          animation: keyframes0 0.8204752604166666s both;
          animation-delay: 0s;
          animation-timing-function: linear;
        }
      
        @keyframes keyframes1 {
          from {
            stroke: blue;
            stroke-dashoffset: 870;
            stroke-width: 128;
          }
          74% {
            animation-timing-function: step-end;
            stroke: blue;
            stroke-dashoffset: 0;
            stroke-width: 128;
          }
          to {
            stroke: black;
            stroke-width: 1024;
          }
        }
        #make-me-a-hanzi-animation-1 {
          animation: keyframes1 0.9580078125s both;
          animation-delay: 0.8204752604166666s;
          animation-timing-function: linear;
        }
      
        @keyframes keyframes2 {
          from {
            stroke: blue;
            stroke-dashoffset: 881;
            stroke-width: 128;
          }
          74% {
            animation-timing-function: step-end;
            stroke: blue;
            stroke-dashoffset: 0;
            stroke-width: 128;
          }
          to {
            stroke: black;
            stroke-width: 1024;
          }
        }
        #make-me-a-hanzi-animation-2 {
          animation: keyframes2 0.9669596354166666s both;
          animation-delay: 1.7784830729166665s;
          animation-timing-function: linear;
        }
      
        @keyframes keyframes3 {
          from {
            stroke: blue;
            stroke-dashoffset: 407;
            stroke-width: 128;
          }
          57% {
            animation-timing-function: step-end;
            stroke: blue;
            stroke-dashoffset: 0;
            stroke-width: 128;
          }
          to {
            stroke: black;
            stroke-width: 1024;
          }
        }
        #make-me-a-hanzi-animation-3 {
          animation: keyframes3 0.5812174479166666s both;
          animation-delay: 2.745442708333333s;
          animation-timing-function: linear;
        }
      
        @keyframes keyframes4 {
          from {
            stroke: blue;
            stroke-dashoffset: 389;
            stroke-width: 128;
          }
          56% {
            animation-timing-function: step-end;
            stroke: blue;
            stroke-dashoffset: 0;
            stroke-width: 128;
          }
          to {
            stroke: black;
            stroke-width: 1024;
          }
        }
        #make-me-a-hanzi-animation-4 {
          animation: keyframes4 0.5665690104166666s both;
          animation-delay: 3.3266601562499996s;
          animation-timing-function: linear;
        }
      
        @keyframes keyframes5 {
          from {
            stroke: blue;
            stroke-dashoffset: 442;
            stroke-width: 128;
          }
          59% {
            animation-timing-function: step-end;
            stroke: blue;
            stroke-dashoffset: 0;
            stroke-width: 128;
          }
          to {
            stroke: black;
            stroke-width: 1024;
          }
        }
        #make-me-a-hanzi-animation-5 {
          animation: keyframes5 0.6097005208333334s both;
          animation-delay: 3.893229166666666s;
          animation-timing-function: linear;
        }
      
        @keyframes keyframes6 {
          from {
            stroke: blue;
            stroke-dashoffset: 659;
            stroke-width: 128;
          }
          68% {
            animation-timing-function: step-end;
            stroke: blue;
            stroke-dashoffset: 0;
            stroke-width: 128;
          }
          to {
            stroke: black;
            stroke-width: 1024;
          }
        }
        #make-me-a-hanzi-animation-6 {
          animation: keyframes6 0.7862955729166666s both;
          animation-delay: 4.502929687499999s;
          animation-timing-function: linear;
        }
      
        @keyframes keyframes7 {
          from {
            stroke: blue;
            stroke-dashoffset: 816;
            stroke-width: 128;
          }
          73% {
            animation-timing-function: step-end;
            stroke: blue;
            stroke-dashoffset: 0;
            stroke-width: 128;
          }
          to {
            stroke: black;
            stroke-width: 1024;
          }
        }
        #make-me-a-hanzi-animation-7 {
          animation: keyframes7 0.9140625s both;
          animation-delay: 5.289225260416666s;
          animation-timing-function: linear;
        }
      
        @keyframes keyframes8 {
          from {
            stroke: blue;
            stroke-dashoffset: 797;
            stroke-width: 128;
          }
          72% {
            animation-timing-function: step-end;
            stroke: blue;
            stroke-dashoffset: 0;
            stroke-width: 128;
          }
          to {
            stroke: black;
            stroke-width: 1024;
          }
        }
        #make-me-a-hanzi-animation-8 {
          animation: keyframes8 0.8986002604166666s both;
          animation-delay: 6.203287760416666s;
          animation-timing-function: linear;
        }
      
        @keyframes keyframes9 {
          from {
            stroke: blue;
            stroke-dashoffset: 615;
            stroke-width: 128;
          }
          67% {
            animation-timing-function: step-end;
            stroke: blue;
            stroke-dashoffset: 0;
            stroke-width: 128;
          }
          to {
            stroke: black;
            stroke-width: 1024;
          }
        }
        #make-me-a-hanzi-animation-9 {
          animation: keyframes9 0.75048828125s both;
          animation-delay: 7.101888020833333s;
          animation-timing-function: linear;
        }
      
        @keyframes keyframes10 {
          from {
            stroke: blue;
            stroke-dashoffset: 904;
            stroke-width: 128;
          }
          75% {
            animation-timing-function: step-end;
            stroke: blue;
            stroke-dashoffset: 0;
            stroke-width: 128;
          }
          to {
            stroke: black;
            stroke-width: 1024;
          }
        }
        #make-me-a-hanzi-animation-10 {
          animation: keyframes10 0.9856770833333334s both;
          animation-delay: 7.852376302083333s;
          animation-timing-function: linear;
        }
      
        @keyframes keyframes11 {
          from {
            stroke: blue;
            stroke-dashoffset: 946;
            stroke-width: 128;
          }
          75% {
            animation-timing-function: step-end;
            stroke: blue;
            stroke-dashoffset: 0;
            stroke-width: 128;
          }
          to {
            stroke: black;
            stroke-width: 1024;
          }
        }
        #make-me-a-hanzi-animation-11 {
          animation: keyframes11 1.0198567708333333s both;
          animation-delay: 8.838053385416666s;
          animation-timing-function: linear;
        }
      
        @keyframes keyframes12 {
          from {
            stroke: blue;
            stroke-dashoffset: 566;
            stroke-width: 128;
          }
          65% {
            animation-timing-function: step-end;
            stroke: blue;
            stroke-dashoffset: 0;
            stroke-width: 128;
          }
          to {
            stroke: black;
            stroke-width: 1024;
          }
        }
        #make-me-a-hanzi-animation-12 {
          animation: keyframes12 0.7106119791666666s both;
          animation-delay: 9.85791015625s;
          animation-timing-function: linear;
        }
      
        @keyframes keyframes13 {
          from {
            stroke: blue;
            stroke-dashoffset: 641;
            stroke-width: 128;
          }
          68% {
            animation-timing-function: step-end;
            stroke: blue;
            stroke-dashoffset: 0;
            stroke-width: 128;
          }
          to {
            stroke: black;
            stroke-width: 1024;
          }
        }
        #make-me-a-hanzi-animation-13 {
          animation: keyframes13 0.7716471354166666s both;
          animation-delay: 10.568522135416666s;
          animation-timing-function: linear;
        }
      
    </style>
    
      <path d="M 99 622 Q 87 621 87 610 Q 87 607 102 579 Q 116 550 116 515 L 116 377 Q 116 320 104 270 Q 91 249 91 238 Q 91 224 104 200 Q 120 171 128 171 Q 146 171 155 193 Q 159 221 160 260 L 160 478 Q 160 519 170 577 C 173 594 173 594 150 605 Q 144 608 137 611 Q 113 622 99 622 Z" fill="lightgray"></path>
    
      <path d="M 170 577 Q 190 579 227 586 Q 288 595 299 595 Q 324 595 324 547 L 324 384 Q 324 346 322 301 Q 319 250 319 215 Q 319 209 331 188 Q 342 175 355 175 Q 369 175 373 210 Q 374 224 374 294 L 374 312 L 374 456 Q 374 544 387 577 Q 395 598 395 603 Q 395 614 370 634 Q 340 654 319 654 Q 310 654 272 639 Q 221 617 150 605 C 120 600 140 573 170 577 Z" fill="lightgray"></path>
    
      <path d="M 208 490 Q 191 490 191 482 Q 191 476 198 464 Q 215 430 215 383 Q 215 271 194 190 Q 176 118 148 70 Q 121 18 60 -33 Q 36 -50 36 -58 Q 36 -62 47 -62 Q 73 -62 122 -22 Q 173 25 201 85 Q 240 153 263 311 Q 273 392 281 415 Q 288 437 288 442 Q 288 462 254 477 Q 226 490 208 490 Z" fill="lightgray"></path>
    
      <path d="M 256 171 Q 252 171 252 163 Q 252 159 271 131 Q 291 102 316 58 Q 334 26 347 26 Q 376 26 376 62 Q 376 79 364 99 Q 347 122 292 155 Q 264 171 256 171 Z" fill="lightgray"></path>
    
      <path d="M 578 560 Q 580 565 580 578 Q 580 601 569 622 Q 561 645 531 662 L 504 671 L 487 671 Q 487 664 504 623 Q 522 573 539 553 C 558 530 571 531 578 560 Z" fill="lightgray"></path>
    
      <path d="M 679 581 Q 702 599 723 623 Q 749 657 769 682 Q 779 690 779 694 Q 779 707 743 726 Q 719 738 708 738 Q 702 738 698 733 Q 695 729 695 723 Q 695 706 684 672 Q 668 627 647 591 Q 640 580 636 571 C 623 544 656 562 679 581 Z" fill="lightgray"></path>
    
      <path d="M 669 540 Q 716 552 783 566 Q 806 570 830 580 Q 843 587 844 599 Q 841 613 787 614 Q 774 614 741 602 Q 717 592 679 581 L 636 571 Q 609 566 578 560 L 539 553 Q 495 546 443 538 Q 431 537 431 530 Q 431 523 453 516 Q 476 507 496 507 Q 503 507 512 508 L 556 518 Q 579 522 620 530 L 669 540 Z" fill="lightgray"></path>
    
      <path d="M 770 248 Q 783 299 796 337 L 818 390 Q 824 401 830 408 Q 844 420 844 434 Q 844 453 812 475 Q 781 494 760 494 Q 751 494 731 485 Q 716 478 683 469 L 638 458 Q 618 452 593 447 Q 585 445 575 444 L 531 435 Q 480 425 456 423 Q 431 423 431 415 Q 431 407 444 400 Q 466 391 479 391 Q 490 391 531 401 L 573 412 Q 582 416 594 419 Q 618 425 640 430 L 683 438 Q 710 442 727 442 Q 748 442 748 423 Q 745 396 742 375 L 737 332 Q 732 289 728 273 Q 726 262 725 254 C 720 224 762 219 770 248 Z" fill="lightgray"></path>
    
      <path d="M 374 294 Q 376 293 379 292 Q 403 280 427 278 Q 446 278 488 290 Q 509 294 531 298 L 571 305 Q 604 311 643 317 L 683 324 Q 699 326 719 330 L 737 332 L 796 337 Q 846 341 903 343 Q 928 343 928 358 Q 928 373 908 384 Q 888 394 863 394 Q 842 394 818 390 L 742 375 Q 713 367 683 361 L 643 353 Q 606 345 571 339 L 531 332 L 505 328 Q 449 318 387 314 Q 380 314 374 312 C 344 308 346 306 374 294 Z" fill="lightgray"></path>
    
      <path d="M 531 212 Q 521 210 510 208 Q 474 201 435 198 Q 417 198 416 190 Q 417 185 427 179 Q 447 168 468 167 Q 479 167 507 175 Q 511 176 516 177 L 571 187 Q 604 193 643 200 L 684 205 Q 724 210 771 211 Q 792 211 792 222 Q 792 235 776 245 Q 774 246 770 248 L 725 254 Q 711 253 695 248 Q 690 247 683 245 L 643 235 Q 606 227 571 220 L 531 212 Z" fill="lightgray"></path>
    
      <path d="M 531 298 L 531 212 L 530 110 Q 528 47 522 -12 Q 512 -51 512 -70 Q 512 -83 522 -106 Q 537 -133 544 -133 Q 560 -133 567 -98 Q 570 -56 571 3 L 571 187 L 571 220 L 571 305 L 571 339 Q 571 371 573 412 L 575 444 Q 578 467 580 494 Q 580 507 556 518 C 531 534 500 535 512 508 Q 515 502 520 490 Q 530 465 531 435 L 531 401 L 531 332 L 531 298 Z" fill="lightgray"></path>
    
      <path d="M 643 200 Q 641 10 636 -40 Q 628 -73 628 -89 Q 628 -106 640 -130 Q 653 -152 659 -154 Q 674 -154 679 -127 Q 683 -112 683 -93 L 683 168 L 683 245 L 683 324 L 683 361 L 683 438 L 683 469 L 683 522 Q 683 532 669 540 C 649 563 608 557 620 530 Q 632 514 638 458 L 640 430 Q 642 398 643 353 L 643 317 L 643 235 L 643 200 Z" fill="lightgray"></path>
    
      <path d="M 516 177 Q 481 113 439 70 Q 395 22 337 -15 Q 307 -32 307 -34 Q 309 -37 315 -37 Q 341 -37 398 -5 Q 464 31 530 110 C 593 184 531 203 516 177 Z" fill="lightgray"></path>
    
      <path d="M 683 168 Q 688 159 696 145 Q 775 8 803 -20 Q 813 -30 819 -30 Q 852 -30 911 -20 Q 980 -10 980 -1 Q 980 3 949 11 Q 892 26 852 53 Q 793 91 703 184 Q 693 195 684 205 L 683 205 C 661 226 668 194 683 168 Z" fill="lightgray"></path>
    
    
      <clipPath id="make-me-a-hanzi-clip-0">
        <path d="M 99 622 Q 87 621 87 610 Q 87 607 102 579 Q 116 550 116 515 L 116 377 Q 116 320 104 270 Q 91 249 91 238 Q 91 224 104 200 Q 120 171 128 171 Q 146 171 155 193 Q 159 221 160 260 L 160 478 Q 160 519 170 577 C 173 594 173 594 150 605 Q 144 608 137 611 Q 113 622 99 622 Z"></path>
      </clipPath>
      <path clip-path="url(#make-me-a-hanzi-clip-0)" d="M 98 611 L 131 583 L 138 569 L 138 330 L 125 237 L 131 184" fill="none" id="make-me-a-hanzi-animation-0" stroke-dasharray="573 1146" stroke-linecap="round"></path>
    
      <clipPath id="make-me-a-hanzi-clip-1">
        <path d="M 170 577 Q 190 579 227 586 Q 288 595 299 595 Q 324 595 324 547 L 324 384 Q 324 346 322 301 Q 319 250 319 215 Q 319 209 331 188 Q 342 175 355 175 Q 369 175 373 210 Q 374 224 374 294 L 374 312 L 374 456 Q 374 544 387 577 Q 395 598 395 603 Q 395 614 370 634 Q 340 654 319 654 Q 310 654 272 639 Q 221 617 150 605 C 120 600 140 573 170 577 Z"></path>
      </clipPath>
      <path clip-path="url(#make-me-a-hanzi-clip-1)" d="M 159 604 L 185 595 L 289 620 L 321 622 L 354 597 L 346 232 L 352 191" fill="none" id="make-me-a-hanzi-animation-1" stroke-dasharray="742 1484" stroke-linecap="round"></path>
    
      <clipPath id="make-me-a-hanzi-clip-2">
        <path d="M 208 490 Q 191 490 191 482 Q 191 476 198 464 Q 215 430 215 383 Q 215 271 194 190 Q 176 118 148 70 Q 121 18 60 -33 Q 36 -50 36 -58 Q 36 -62 47 -62 Q 73 -62 122 -22 Q 173 25 201 85 Q 240 153 263 311 Q 273 392 281 415 Q 288 437 288 442 Q 288 462 254 477 Q 226 490 208 490 Z"></path>
      </clipPath>
      <path clip-path="url(#make-me-a-hanzi-clip-2)" d="M 200 480 L 223 465 L 248 434 L 236 284 L 211 167 L 186 99 L 144 28 L 90 -27 L 43 -57" fill="none" id="make-me-a-hanzi-animation-2" stroke-dasharray="753 1506" stroke-linecap="round"></path>
    
      <clipPath id="make-me-a-hanzi-clip-3">
        <path d="M 256 171 Q 252 171 252 163 Q 252 159 271 131 Q 291 102 316 58 Q 334 26 347 26 Q 376 26 376 62 Q 376 79 364 99 Q 347 122 292 155 Q 264 171 256 171 Z"></path>
      </clipPath>
      <path clip-path="url(#make-me-a-hanzi-clip-3)" d="M 259 165 L 325 99 L 344 71 L 350 48" fill="none" id="make-me-a-hanzi-animation-3" stroke-dasharray="279 558" stroke-linecap="round"></path>
    
      <clipPath id="make-me-a-hanzi-clip-4">
        <path d="M 578 560 Q 580 565 580 578 Q 580 601 569 622 Q 561 645 531 662 L 504 671 L 487 671 Q 487 664 504 623 Q 522 573 539 553 C 558 530 571 531 578 560 Z"></path>
      </clipPath>
      <path clip-path="url(#make-me-a-hanzi-clip-4)" d="M 491 669 L 532 628 L 554 581 L 570 565" fill="none" id="make-me-a-hanzi-animation-4" stroke-dasharray="261 522" stroke-linecap="round"></path>
    
      <clipPath id="make-me-a-hanzi-clip-5">
        <path d="M 679 581 Q 702 599 723 623 Q 749 657 769 682 Q 779 690 779 694 Q 779 707 743 726 Q 719 738 708 738 Q 702 738 698 733 Q 695 729 695 723 Q 695 706 684 672 Q 668 627 647 591 Q 640 580 636 571 C 623 544 656 562 679 581 Z"></path>
      </clipPath>
      <path clip-path="url(#make-me-a-hanzi-clip-5)" d="M 767 694 L 728 691 L 690 622 L 643 573" fill="none" id="make-me-a-hanzi-animation-5" stroke-dasharray="314 628" stroke-linecap="round"></path>
    
      <clipPath id="make-me-a-hanzi-clip-6">
        <path d="M 669 540 Q 716 552 783 566 Q 806 570 830 580 Q 843 587 844 599 Q 841 613 787 614 Q 774 614 741 602 Q 717 592 679 581 L 636 571 Q 609 566 578 560 L 539 553 Q 495 546 443 538 Q 431 537 431 530 Q 431 523 453 516 Q 476 507 496 507 Q 503 507 512 508 L 556 518 Q 579 522 620 530 L 669 540 Z"></path>
      </clipPath>
      <path clip-path="url(#make-me-a-hanzi-clip-6)" d="M 439 531 L 515 528 L 671 559 L 774 589 L 834 597" fill="none" id="make-me-a-hanzi-animation-6" stroke-dasharray="531 1062" stroke-linecap="round"></path>
    
      <clipPath id="make-me-a-hanzi-clip-7">
        <path d="M 770 248 Q 783 299 796 337 L 818 390 Q 824 401 830 408 Q 844 420 844 434 Q 844 453 812 475 Q 781 494 760 494 Q 751 494 731 485 Q 716 478 683 469 L 638 458 Q 618 452 593 447 Q 585 445 575 444 L 531 435 Q 480 425 456 423 Q 431 423 431 415 Q 431 407 444 400 Q 466 391 479 391 Q 490 391 531 401 L 573 412 Q 582 416 594 419 Q 618 425 640 430 L 683 438 Q 710 442 727 442 Q 748 442 748 423 Q 745 396 742 375 L 737 332 Q 732 289 728 273 Q 726 262 725 254 C 720 224 762 219 770 248 Z"></path>
      </clipPath>
      <path clip-path="url(#make-me-a-hanzi-clip-7)" d="M 438 414 L 481 408 L 723 462 L 768 459 L 792 430 L 754 279 L 733 257" fill="none" id="make-me-a-hanzi-animation-7" stroke-dasharray="688 1376" stroke-linecap="round"></path>
    
      <clipPath id="make-me-a-hanzi-clip-8">
        <path d="M 374 294 Q 376 293 379 292 Q 403 280 427 278 Q 446 278 488 290 Q 509 294 531 298 L 571 305 Q 604 311 643 317 L 683 324 Q 699 326 719 330 L 737 332 L 796 337 Q 846 341 903 343 Q 928 343 928 358 Q 928 373 908 384 Q 888 394 863 394 Q 842 394 818 390 L 742 375 Q 713 367 683 361 L 643 353 Q 606 345 571 339 L 531 332 L 505 328 Q 449 318 387 314 Q 380 314 374 312 C 344 308 346 306 374 294 Z"></path>
      </clipPath>
      <path clip-path="url(#make-me-a-hanzi-clip-8)" d="M 381 308 L 390 300 L 424 297 L 829 366 L 893 366 L 912 359" fill="none" id="make-me-a-hanzi-animation-8" stroke-dasharray="669 1338" stroke-linecap="round"></path>
    
      <clipPath id="make-me-a-hanzi-clip-9">
        <path d="M 531 212 Q 521 210 510 208 Q 474 201 435 198 Q 417 198 416 190 Q 417 185 427 179 Q 447 168 468 167 Q 479 167 507 175 Q 511 176 516 177 L 571 187 Q 604 193 643 200 L 684 205 Q 724 210 771 211 Q 792 211 792 222 Q 792 235 776 245 Q 774 246 770 248 L 725 254 Q 711 253 695 248 Q 690 247 683 245 L 643 235 Q 606 227 571 220 L 531 212 Z"></path>
      </clipPath>
      <path clip-path="url(#make-me-a-hanzi-clip-9)" d="M 425 188 L 480 185 L 708 230 L 779 225" fill="none" id="make-me-a-hanzi-animation-9" stroke-dasharray="487 974" stroke-linecap="round"></path>
    
      <clipPath id="make-me-a-hanzi-clip-10">
        <path d="M 531 298 L 531 212 L 530 110 Q 528 47 522 -12 Q 512 -51 512 -70 Q 512 -83 522 -106 Q 537 -133 544 -133 Q 560 -133 567 -98 Q 570 -56 571 3 L 571 187 L 571 220 L 571 305 L 571 339 Q 571 371 573 412 L 575 444 Q 578 467 580 494 Q 580 507 556 518 C 531 534 500 535 512 508 Q 515 502 520 490 Q 530 465 531 435 L 531 401 L 531 332 L 531 298 Z"></path>
      </clipPath>
      <path clip-path="url(#make-me-a-hanzi-clip-10)" d="M 520 507 L 551 488 L 553 464 L 550 86 L 540 -72 L 546 -123" fill="none" id="make-me-a-hanzi-animation-10" stroke-dasharray="776 1552" stroke-linecap="round"></path>
    
      <clipPath id="make-me-a-hanzi-clip-11">
        <path d="M 643 200 Q 641 10 636 -40 Q 628 -73 628 -89 Q 628 -106 640 -130 Q 653 -152 659 -154 Q 674 -154 679 -127 Q 683 -112 683 -93 L 683 168 L 683 245 L 683 324 L 683 361 L 683 438 L 683 469 L 683 522 Q 683 532 669 540 C 649 563 608 557 620 530 Q 632 514 638 458 L 640 430 Q 642 398 643 353 L 643 317 L 643 235 L 643 200 Z"></path>
      </clipPath>
      <path clip-path="url(#make-me-a-hanzi-clip-11)" d="M 627 529 L 656 510 L 662 446 L 662 7 L 655 -92 L 661 -144" fill="none" id="make-me-a-hanzi-animation-11" stroke-dasharray="818 1636" stroke-linecap="round"></path>
    
      <clipPath id="make-me-a-hanzi-clip-12">
        <path d="M 516 177 Q 481 113 439 70 Q 395 22 337 -15 Q 307 -32 307 -34 Q 309 -37 315 -37 Q 341 -37 398 -5 Q 464 31 530 110 C 593 184 531 203 516 177 Z"></path>
      </clipPath>
      <path clip-path="url(#make-me-a-hanzi-clip-12)" d="M 524 173 L 507 117 L 452 55 L 384 0 L 311 -35" fill="none" id="make-me-a-hanzi-animation-12" stroke-dasharray="438 876" stroke-linecap="round"></path>
    
      <clipPath id="make-me-a-hanzi-clip-13">
        <path d="M 683 168 Q 688 159 696 145 Q 775 8 803 -20 Q 813 -30 819 -30 Q 852 -30 911 -20 Q 980 -10 980 -1 Q 980 3 949 11 Q 892 26 852 53 Q 793 91 703 184 Q 693 195 684 205 L 683 205 C 661 226 668 194 683 168 Z"></path>
      </clipPath>
      <path clip-path="url(#make-me-a-hanzi-clip-13)" d="M 684 199 L 716 143 L 831 14 L 898 1 L 977 -1" fill="none" id="make-me-a-hanzi-animation-13" stroke-dasharray="513 1026" stroke-linecap="round"></path>
    
  </g>
</svg>