<svg version="1.1" viewBox="0 0 1024 1024" xmlns="http://www.w3.org/2000/svg">
  <g stroke="lightgray" stroke-dasharray="1,1" stroke-width="1" transform="scale(4, 4)">
    <line x1="0" y1="0" x2="256" y2="256"></line>
    <line x1="256" y1="0" x2="0" y2="256"></line>
    <line x1="128" y1="0" x2="128" y2="256"></line>
    <line x1="0" y1="128" x2="256" y2="128"></line>
  </g>
  <g transform="scale(0.92, -0.92) translate(60, -830)">
    <style type="text/css">
      
        @keyframes keyframes0 {
          from {
            stroke: blue;
            stroke-dashoffset: 381;
            stroke-width: 128;
          }
          55% {
            animation-timing-function: step-end;
            stroke: blue;
            stroke-dashoffset: 0;
            stroke-width: 128;
          }
          to {
            stroke: black;
            stroke-width: 1024;
          }
        }
        #make-me-a-hanzi-animation-0 {
          animation: keyframes0 0.56005859375s both;
          animation-delay: 0s;
          animation-timing-function: linear;
        }
      
        @keyframes keyframes1 {
          from {
            stroke: blue;
            stroke-dashoffset: 899;
            stroke-width: 128;
          }
          75% {
            animation-timing-function: step-end;
            stroke: blue;
            stroke-dashoffset: 0;
            stroke-width: 128;
          }
          to {
            stroke: black;
            stroke-width: 1024;
          }
        }
        #make-me-a-hanzi-animation-1 {
          animation: keyframes1 0.9816080729166666s both;
          animation-delay: 0.56005859375s;
          animation-timing-function: linear;
        }
      
        @keyframes keyframes2 {
          from {
            stroke: blue;
            stroke-dashoffset: 693;
            stroke-width: 128;
          }
          69% {
            animation-timing-function: step-end;
            stroke: blue;
            stroke-dashoffset: 0;
            stroke-width: 128;
          }
          to {
            stroke: black;
            stroke-width: 1024;
          }
        }
        #make-me-a-hanzi-animation-2 {
          animation: keyframes2 0.81396484375s both;
          animation-delay: 1.5416666666666665s;
          animation-timing-function: linear;
        }
      
        @keyframes keyframes3 {
          from {
            stroke: blue;
            stroke-dashoffset: 401;
            stroke-width: 128;
          }
          57% {
            animation-timing-function: step-end;
            stroke: blue;
            stroke-dashoffset: 0;
            stroke-width: 128;
          }
          to {
            stroke: black;
            stroke-width: 1024;
          }
        }
        #make-me-a-hanzi-animation-3 {
          animation: keyframes3 0.5763346354166666s both;
          animation-delay: 2.3556315104166665s;
          animation-timing-function: linear;
        }
      
        @keyframes keyframes4 {
          from {
            stroke: blue;
            stroke-dashoffset: 662;
            stroke-width: 128;
          }
          68% {
            animation-timing-function: step-end;
            stroke: blue;
            stroke-dashoffset: 0;
            stroke-width: 128;
          }
          to {
            stroke: black;
            stroke-width: 1024;
          }
        }
        #make-me-a-hanzi-animation-4 {
          animation: keyframes4 0.7887369791666666s both;
          animation-delay: 2.931966145833333s;
          animation-timing-function: linear;
        }
      
        @keyframes keyframes5 {
          from {
            stroke: blue;
            stroke-dashoffset: 550;
            stroke-width: 128;
          }
          64% {
            animation-timing-function: step-end;
            stroke: blue;
            stroke-dashoffset: 0;
            stroke-width: 128;
          }
          to {
            stroke: black;
            stroke-width: 1024;
          }
        }
        #make-me-a-hanzi-animation-5 {
          animation: keyframes5 0.6975911458333334s both;
          animation-delay: 3.7207031249999996s;
          animation-timing-function: linear;
        }
      
        @keyframes keyframes6 {
          from {
            stroke: blue;
            stroke-dashoffset: 682;
            stroke-width: 128;
          }
          69% {
            animation-timing-function: step-end;
            stroke: blue;
            stroke-dashoffset: 0;
            stroke-width: 128;
          }
          to {
            stroke: black;
            stroke-width: 1024;
          }
        }
        #make-me-a-hanzi-animation-6 {
          animation: keyframes6 0.8050130208333334s both;
          animation-delay: 4.418294270833333s;
          animation-timing-function: linear;
        }
      
        @keyframes keyframes7 {
          from {
            stroke: blue;
            stroke-dashoffset: 786;
            stroke-width: 128;
          }
          72% {
            animation-timing-function: step-end;
            stroke: blue;
            stroke-dashoffset: 0;
            stroke-width: 128;
          }
          to {
            stroke: black;
            stroke-width: 1024;
          }
        }
        #make-me-a-hanzi-animation-7 {
          animation: keyframes7 0.8896484375s both;
          animation-delay: 5.223307291666666s;
          animation-timing-function: linear;
        }
      
        @keyframes keyframes8 {
          from {
            stroke: blue;
            stroke-dashoffset: 300;
            stroke-width: 128;
          }
          49% {
            animation-timing-function: step-end;
            stroke: blue;
            stroke-dashoffset: 0;
            stroke-width: 128;
          }
          to {
            stroke: black;
            stroke-width: 1024;
          }
        }
        #make-me-a-hanzi-animation-8 {
          animation: keyframes8 0.494140625s both;
          animation-delay: 6.112955729166666s;
          animation-timing-function: linear;
        }
      
        @keyframes keyframes9 {
          from {
            stroke: blue;
            stroke-dashoffset: 314;
            stroke-width: 128;
          }
          51% {
            animation-timing-function: step-end;
            stroke: blue;
            stroke-dashoffset: 0;
            stroke-width: 128;
          }
          to {
            stroke: black;
            stroke-width: 1024;
          }
        }
        #make-me-a-hanzi-animation-9 {
          animation: keyframes9 0.5055338541666666s both;
          animation-delay: 6.607096354166666s;
          animation-timing-function: linear;
        }
      
        @keyframes keyframes10 {
          from {
            stroke: blue;
            stroke-dashoffset: 502;
            stroke-width: 128;
          }
          62% {
            animation-timing-function: step-end;
            stroke: blue;
            stroke-dashoffset: 0;
            stroke-width: 128;
          }
          to {
            stroke: black;
            stroke-width: 1024;
          }
        }
        #make-me-a-hanzi-animation-10 {
          animation: keyframes10 0.6585286458333334s both;
          animation-delay: 7.112630208333333s;
          animation-timing-function: linear;
        }
      
        @keyframes keyframes11 {
          from {
            stroke: blue;
            stroke-dashoffset: 627;
            stroke-width: 128;
          }
          67% {
            animation-timing-function: step-end;
            stroke: blue;
            stroke-dashoffset: 0;
            stroke-width: 128;
          }
          to {
            stroke: black;
            stroke-width: 1024;
          }
        }
        #make-me-a-hanzi-animation-11 {
          animation: keyframes11 0.76025390625s both;
          animation-delay: 7.771158854166666s;
          animation-timing-function: linear;
        }
      
        @keyframes keyframes12 {
          from {
            stroke: blue;
            stroke-dashoffset: 599;
            stroke-width: 128;
          }
          66% {
            animation-timing-function: step-end;
            stroke: blue;
            stroke-dashoffset: 0;
            stroke-width: 128;
          }
          to {
            stroke: black;
            stroke-width: 1024;
          }
        }
        #make-me-a-hanzi-animation-12 {
          animation: keyframes12 0.7374674479166666s both;
          animation-delay: 8.531412760416666s;
          animation-timing-function: linear;
        }
      
        @keyframes keyframes13 {
          from {
            stroke: blue;
            stroke-dashoffset: 357;
            stroke-width: 128;
          }
          54% {
            animation-timing-function: step-end;
            stroke: blue;
            stroke-dashoffset: 0;
            stroke-width: 128;
          }
          to {
            stroke: black;
            stroke-width: 1024;
          }
        }
        #make-me-a-hanzi-animation-13 {
          animation: keyframes13 0.54052734375s both;
          animation-delay: 9.268880208333332s;
          animation-timing-function: linear;
        }
      
        @keyframes keyframes14 {
          from {
            stroke: blue;
            stroke-dashoffset: 714;
            stroke-width: 128;
          }
          70% {
            animation-timing-function: step-end;
            stroke: blue;
            stroke-dashoffset: 0;
            stroke-width: 128;
          }
          to {
            stroke: black;
            stroke-width: 1024;
          }
        }
        #make-me-a-hanzi-animation-14 {
          animation: keyframes14 0.8310546875s both;
          animation-delay: 9.809407552083332s;
          animation-timing-function: linear;
        }
      
        @keyframes keyframes15 {
          from {
            stroke: blue;
            stroke-dashoffset: 990;
            stroke-width: 128;
          }
          76% {
            animation-timing-function: step-end;
            stroke: blue;
            stroke-dashoffset: 0;
            stroke-width: 128;
          }
          to {
            stroke: black;
            stroke-width: 1024;
          }
        }
        #make-me-a-hanzi-animation-15 {
          animation: keyframes15 1.0556640625s both;
          animation-delay: 10.640462239583332s;
          animation-timing-function: linear;
        }
      
        @keyframes keyframes16 {
          from {
            stroke: blue;
            stroke-dashoffset: 335;
            stroke-width: 128;
          }
          52% {
            animation-timing-function: step-end;
            stroke: blue;
            stroke-dashoffset: 0;
            stroke-width: 128;
          }
          to {
            stroke: black;
            stroke-width: 1024;
          }
        }
        #make-me-a-hanzi-animation-16 {
          animation: keyframes16 0.5226236979166666s both;
          animation-delay: 11.696126302083332s;
          animation-timing-function: linear;
        }
      
    </style>
    
      <path d="M 439 750 Q 424 750 424 746 Q 424 742 461 702 Q 505 658 536 658 Q 555 658 555 683 Q 555 697 546 712 Q 531 733 498 741 Q 471 749 439 750 Z" fill="lightgray"></path>
    
      <path d="M 764 666 Q 723 666 681 659 Q 477 629 332 612 Q 265 605 191 603 Q 165 603 164 587 Q 165 581 180 575 Q 209 564 236 562 Q 257 562 308 570 Q 317 571 329 572 L 374 577 Q 465 588 584 598 Q 683 605 804 606 Q 831 606 831 627 Q 831 642 811 654 Q 790 666 764 666 Z" fill="lightgray"></path>
    
      <path d="M 329 572 L 332 534 Q 332 511 309 501 Q 299 495 299 490 Q 299 480 307 471 Q 322 450 332 450 Q 342 450 353 457 Q 395 476 460 486 Q 583 503 640 503 L 695 499 Q 711 500 712 515 Q 710 529 698 539 Q 684 551 655 551 Q 641 551 369 515 Q 380 537 380 551 Q 380 565 374 577 C 364 605 327 602 329 572 Z" fill="lightgray"></path>
    
      <path d="M 296 438 Q 284 438 284 427 Q 284 425 293 419 Q 309 408 345 319 Q 355 299 368 299 Q 378 299 380 316 L 376 344 L 368 383 Q 367 391 364 399 C 358 418 358 418 346 425 Q 345 426 343 427 Q 323 437 296 438 Z" fill="lightgray"></path>
    
      <path d="M 668 371 Q 676 379 689 394 Q 703 412 717 417 Q 731 420 731 427 Q 731 436 703 458 Q 676 475 664 475 Q 660 475 642 471 Q 627 466 529 451 Q 408 432 346 425 C 316 422 334 396 364 399 Q 395 402 511 422 Q 592 434 624 434 Q 643 434 643 419 Q 638 395 631 384 Q 628 378 628 375 L 628 374 C 618 346 647 349 668 371 Z" fill="lightgray"></path>
    
      <path d="M 380 316 Q 384 314 391 314 Q 530 326 676 339 Q 687 344 687 350 Q 687 359 672 368 Q 671 369 668 371 C 658 378 658 378 628 374 Q 579 368 376 344 C 346 340 351 322 380 316 Z" fill="lightgray"></path>
    
      <path d="M 164 263 Q 152 263 152 255 Q 152 251 158 243 Q 175 213 175 146 L 175 138 Q 175 41 156 -28 Q 137 -89 106 -117 Q 95 -127 95 -129 Q 95 -132 103 -133 Q 118 -133 140 -114 Q 171 -89 194 -27 Q 203 -2 210 41 L 213 59 Q 217 91 220 136 L 221 158 Q 222 187 223 223 C 223 238 223 238 199 251 Q 199 252 198 252 Q 178 263 164 263 Z" fill="lightgray"></path>
    
      <path d="M 223 223 Q 228 225 245 233 Q 269 243 275 243 Q 287 243 290 236 Q 296 226 296 195 Q 296 -35 293 -49 Q 291 -62 288 -62 Q 282 -62 264 -51 Q 253 -45 248 -45 Q 240 -45 240 -49 Q 240 -53 243 -56 Q 276 -108 291 -135 Q 298 -150 303 -150 Q 316 -150 330 -107 Q 340 -78 340 -25 Q 336 87 336 195 Q 336 220 345 234 Q 351 243 351 247 Q 351 259 326 274 Q 304 287 292 287 Q 289 287 279 279 Q 261 264 243 259 Q 225 253 199 251 C 169 248 196 211 223 223 Z" fill="lightgray"></path>
    
      <path d="M 220 136 Q 225 135 231 135 Q 237 135 271 142 Q 280 145 280 154 Q 280 170 256 171 Q 252 171 246 168 Q 233 163 221 158 C 193 146 190 141 220 136 Z" fill="lightgray"></path>
    
      <path d="M 210 41 Q 218 39 227 39 Q 233 39 275 47 Q 284 50 284 58 Q 284 74 259 75 Q 255 75 249 72 Q 229 63 213 59 C 184 51 181 48 210 41 Z" fill="lightgray"></path>
    
      <path d="M 376 255 Q 368 254 368 247 Q 368 244 378 223 Q 387 201 387 175 L 387 110 Q 387 85 380 61 Q 372 51 372 47 Q 372 37 380 19 Q 390 -1 395 -1 Q 410 -1 416 11 Q 419 26 420 48 L 420 169 Q 420 192 427 224 C 429 236 429 236 410 244 Q 408 245 403 247 Q 385 255 376 255 Z" fill="lightgray"></path>
    
      <path d="M 427 224 Q 441 226 469 231 Q 512 238 519 238 Q 540 238 540 198 L 540 122 Q 540 104 538 83 Q 536 59 536 43 Q 536 38 546 21 Q 555 10 567 10 Q 578 10 581 30 Q 583 44 583 161 Q 583 208 593 225 Q 599 236 599 238 Q 599 248 579 265 Q 555 282 540 282 Q 532 282 504 270 Q 466 254 410 244 C 381 238 397 219 427 224 Z" fill="lightgray"></path>
    
      <path d="M 464 178 Q 456 178 456 171 Q 456 165 457 162 Q 460 144 460 131 Q 459 88 446 28 Q 432 -31 419 -56 Q 397 -94 367 -120 Q 351 -134 351 -137 L 364 -137 Q 399 -137 439 -86 Q 475 -41 497 65 Q 507 115 511 126 Q 515 136 515 138 Q 515 146 490 165 Q 469 178 464 178 Z" fill="lightgray"></path>
    
      <path d="M 500 -9 Q 496 -9 496 -13 Q 496 -17 508 -36 Q 520 -55 536 -87 Q 547 -110 555 -110 Q 580 -110 580 -78 Q 580 -67 572 -54 Q 561 -40 523 -19 Q 506 -9 500 -9 Z" fill="lightgray"></path>
    
      <path d="M 672 268 Q 667 271 658 275 Q 632 291 620 291 Q 607 291 607 282 L 620 268 Q 646 232 646 162 Q 646 46 627 -24 Q 611 -80 586 -116 Q 575 -131 575 -133 Q 575 -137 584 -137 Q 613 -136 650 -67 Q 680 -7 685 117 L 686 161 L 686 169 Q 687 224 689 234 Q 690 237 690 241 C 692 258 692 258 672 268 Z" fill="lightgray"></path>
    
      <path d="M 800 314 Q 793 314 783 308 Q 755 292 672 268 C 643 259 661 232 690 241 Q 693 243 697 244 Q 759 259 764 259 Q 775 259 775 251 Q 764 96 764 18 Q 764 -58 791 -90 Q 812 -121 877 -121 Q 924 -121 949 -107 Q 972 -93 972 -70 Q 972 -62 966 -52 Q 961 -36 953 15 Q 948 43 939 43 Q 937 43 925 -20 Q 920 -42 909 -56 Q 896 -74 861 -74 Q 830 -74 818 -46 Q 808 -24 808 18 Q 808 109 816 175 Q 821 227 841 255 Q 852 270 852 282 Q 852 293 831 305 Q 810 314 800 314 Z" fill="lightgray"></path>
    
      <path d="M 685 117 Q 715 75 735 75 Q 748 75 748 91 Q 748 106 741 121 Q 731 143 710 153 Q 698 159 686 161 C 657 167 667 141 685 117 Z" fill="lightgray"></path>
    
    
      <clipPath id="make-me-a-hanzi-clip-0">
        <path d="M 439 750 Q 424 750 424 746 Q 424 742 461 702 Q 505 658 536 658 Q 555 658 555 683 Q 555 697 546 712 Q 531 733 498 741 Q 471 749 439 750 Z"></path>
      </clipPath>
      <path clip-path="url(#make-me-a-hanzi-clip-0)" d="M 432 747 L 506 705 L 536 678" fill="none" id="make-me-a-hanzi-animation-0" stroke-dasharray="253 506" stroke-linecap="round"></path>
    
      <clipPath id="make-me-a-hanzi-clip-1">
        <path d="M 764 666 Q 723 666 681 659 Q 477 629 332 612 Q 265 605 191 603 Q 165 603 164 587 Q 165 581 180 575 Q 209 564 236 562 Q 257 562 308 570 Q 317 571 329 572 L 374 577 Q 465 588 584 598 Q 683 605 804 606 Q 831 606 831 627 Q 831 642 811 654 Q 790 666 764 666 Z"></path>
      </clipPath>
      <path clip-path="url(#make-me-a-hanzi-clip-1)" d="M 174 589 L 240 583 L 278 586 L 706 634 L 769 636 L 813 625" fill="none" id="make-me-a-hanzi-animation-1" stroke-dasharray="771 1542" stroke-linecap="round"></path>
    
      <clipPath id="make-me-a-hanzi-clip-2">
        <path d="M 329 572 L 332 534 Q 332 511 309 501 Q 299 495 299 490 Q 299 480 307 471 Q 322 450 332 450 Q 342 450 353 457 Q 395 476 460 486 Q 583 503 640 503 L 695 499 Q 711 500 712 515 Q 710 529 698 539 Q 684 551 655 551 Q 641 551 369 515 Q 380 537 380 551 Q 380 565 374 577 C 364 605 327 602 329 572 Z"></path>
      </clipPath>
      <path clip-path="url(#make-me-a-hanzi-clip-2)" d="M 337 566 L 354 552 L 348 490 L 628 526 L 673 525 L 696 515" fill="none" id="make-me-a-hanzi-animation-2" stroke-dasharray="565 1130" stroke-linecap="round"></path>
    
      <clipPath id="make-me-a-hanzi-clip-3">
        <path d="M 296 438 Q 284 438 284 427 Q 284 425 293 419 Q 309 408 345 319 Q 355 299 368 299 Q 378 299 380 316 L 376 344 L 368 383 Q 367 391 364 399 C 358 418 358 418 346 425 Q 345 426 343 427 Q 323 437 296 438 Z"></path>
      </clipPath>
      <path clip-path="url(#make-me-a-hanzi-clip-3)" d="M 293 428 L 313 421 L 332 405 L 366 312" fill="none" id="make-me-a-hanzi-animation-3" stroke-dasharray="273 546" stroke-linecap="round"></path>
    
      <clipPath id="make-me-a-hanzi-clip-4">
        <path d="M 668 371 Q 676 379 689 394 Q 703 412 717 417 Q 731 420 731 427 Q 731 436 703 458 Q 676 475 664 475 Q 660 475 642 471 Q 627 466 529 451 Q 408 432 346 425 C 316 422 334 396 364 399 Q 395 402 511 422 Q 592 434 624 434 Q 643 434 643 419 Q 638 395 631 384 Q 628 378 628 375 L 628 374 C 618 346 647 349 668 371 Z"></path>
      </clipPath>
      <path clip-path="url(#make-me-a-hanzi-clip-4)" d="M 352 420 L 369 414 L 394 416 L 564 445 L 654 449 L 676 433 L 665 403 L 635 375" fill="none" id="make-me-a-hanzi-animation-4" stroke-dasharray="534 1068" stroke-linecap="round"></path>
    
      <clipPath id="make-me-a-hanzi-clip-5">
        <path d="M 380 316 Q 384 314 391 314 Q 530 326 676 339 Q 687 344 687 350 Q 687 359 672 368 Q 671 369 668 371 C 658 378 658 378 628 374 Q 579 368 376 344 C 346 340 351 322 380 316 Z"></path>
      </clipPath>
      <path clip-path="url(#make-me-a-hanzi-clip-5)" d="M 387 324 L 395 331 L 611 353 L 660 355 L 676 350" fill="none" id="make-me-a-hanzi-animation-5" stroke-dasharray="422 844" stroke-linecap="round"></path>
    
      <clipPath id="make-me-a-hanzi-clip-6">
        <path d="M 164 263 Q 152 263 152 255 Q 152 251 158 243 Q 175 213 175 146 L 175 138 Q 175 41 156 -28 Q 137 -89 106 -117 Q 95 -127 95 -129 Q 95 -132 103 -133 Q 118 -133 140 -114 Q 171 -89 194 -27 Q 203 -2 210 41 L 213 59 Q 217 91 220 136 L 221 158 Q 222 187 223 223 C 223 238 223 238 199 251 Q 199 252 198 252 Q 178 263 164 263 Z"></path>
      </clipPath>
      <path clip-path="url(#make-me-a-hanzi-clip-6)" d="M 162 253 L 187 232 L 196 213 L 198 142 L 190 36 L 175 -29 L 150 -83 L 127 -112 L 100 -129" fill="none" id="make-me-a-hanzi-animation-6" stroke-dasharray="554 1108" stroke-linecap="round"></path>
    
      <clipPath id="make-me-a-hanzi-clip-7">
        <path d="M 223 223 Q 228 225 245 233 Q 269 243 275 243 Q 287 243 290 236 Q 296 226 296 195 Q 296 -35 293 -49 Q 291 -62 288 -62 Q 282 -62 264 -51 Q 253 -45 248 -45 Q 240 -45 240 -49 Q 240 -53 243 -56 Q 276 -108 291 -135 Q 298 -150 303 -150 Q 316 -150 330 -107 Q 340 -78 340 -25 Q 336 87 336 195 Q 336 220 345 234 Q 351 243 351 247 Q 351 259 326 274 Q 304 287 292 287 Q 289 287 279 279 Q 261 264 243 259 Q 225 253 199 251 C 169 248 196 211 223 223 Z"></path>
      </clipPath>
      <path clip-path="url(#make-me-a-hanzi-clip-7)" d="M 207 250 L 233 241 L 298 261 L 318 245 L 318 -33 L 311 -75 L 302 -91 L 285 -84 L 246 -51" fill="none" id="make-me-a-hanzi-animation-7" stroke-dasharray="658 1316" stroke-linecap="round"></path>
    
      <clipPath id="make-me-a-hanzi-clip-8">
        <path d="M 220 136 Q 225 135 231 135 Q 237 135 271 142 Q 280 145 280 154 Q 280 170 256 171 Q 252 171 246 168 Q 233 163 221 158 C 193 146 190 141 220 136 Z"></path>
      </clipPath>
      <path clip-path="url(#make-me-a-hanzi-clip-8)" d="M 226 141 L 233 148 L 266 155" fill="none" id="make-me-a-hanzi-animation-8" stroke-dasharray="172 344" stroke-linecap="round"></path>
    
      <clipPath id="make-me-a-hanzi-clip-9">
        <path d="M 210 41 Q 218 39 227 39 Q 233 39 275 47 Q 284 50 284 58 Q 284 74 259 75 Q 255 75 249 72 Q 229 63 213 59 C 184 51 181 48 210 41 Z"></path>
      </clipPath>
      <path clip-path="url(#make-me-a-hanzi-clip-9)" d="M 215 45 L 271 59" fill="none" id="make-me-a-hanzi-animation-9" stroke-dasharray="186 372" stroke-linecap="round"></path>
    
      <clipPath id="make-me-a-hanzi-clip-10">
        <path d="M 376 255 Q 368 254 368 247 Q 368 244 378 223 Q 387 201 387 175 L 387 110 Q 387 85 380 61 Q 372 51 372 47 Q 372 37 380 19 Q 390 -1 395 -1 Q 410 -1 416 11 Q 419 26 420 48 L 420 169 Q 420 192 427 224 C 429 236 429 236 410 244 Q 408 245 403 247 Q 385 255 376 255 Z"></path>
      </clipPath>
      <path clip-path="url(#make-me-a-hanzi-clip-10)" d="M 377 246 L 403 217 L 399 10" fill="none" id="make-me-a-hanzi-animation-10" stroke-dasharray="374 748" stroke-linecap="round"></path>
    
      <clipPath id="make-me-a-hanzi-clip-11">
        <path d="M 427 224 Q 441 226 469 231 Q 512 238 519 238 Q 540 238 540 198 L 540 122 Q 540 104 538 83 Q 536 59 536 43 Q 536 38 546 21 Q 555 10 567 10 Q 578 10 581 30 Q 583 44 583 161 Q 583 208 593 225 Q 599 236 599 238 Q 599 248 579 265 Q 555 282 540 282 Q 532 282 504 270 Q 466 254 410 244 C 381 238 397 219 427 224 Z"></path>
      </clipPath>
      <path clip-path="url(#make-me-a-hanzi-clip-11)" d="M 418 243 L 431 236 L 519 257 L 541 257 L 564 238 L 559 46 L 565 25" fill="none" id="make-me-a-hanzi-animation-11" stroke-dasharray="499 998" stroke-linecap="round"></path>
    
      <clipPath id="make-me-a-hanzi-clip-12">
        <path d="M 464 178 Q 456 178 456 171 Q 456 165 457 162 Q 460 144 460 131 Q 459 88 446 28 Q 432 -31 419 -56 Q 397 -94 367 -120 Q 351 -134 351 -137 L 364 -137 Q 399 -137 439 -86 Q 475 -41 497 65 Q 507 115 511 126 Q 515 136 515 138 Q 515 146 490 165 Q 469 178 464 178 Z"></path>
      </clipPath>
      <path clip-path="url(#make-me-a-hanzi-clip-12)" d="M 466 168 L 486 129 L 467 25 L 445 -43 L 410 -98 L 388 -118 L 363 -128" fill="none" id="make-me-a-hanzi-animation-12" stroke-dasharray="471 942" stroke-linecap="round"></path>
    
      <clipPath id="make-me-a-hanzi-clip-13">
        <path d="M 500 -9 Q 496 -9 496 -13 Q 496 -17 508 -36 Q 520 -55 536 -87 Q 547 -110 555 -110 Q 580 -110 580 -78 Q 580 -67 572 -54 Q 561 -40 523 -19 Q 506 -9 500 -9 Z"></path>
      </clipPath>
      <path clip-path="url(#make-me-a-hanzi-clip-13)" d="M 502 -15 L 554 -70 L 559 -95" fill="none" id="make-me-a-hanzi-animation-13" stroke-dasharray="229 458" stroke-linecap="round"></path>
    
      <clipPath id="make-me-a-hanzi-clip-14">
        <path d="M 672 268 Q 667 271 658 275 Q 632 291 620 291 Q 607 291 607 282 L 620 268 Q 646 232 646 162 Q 646 46 627 -24 Q 611 -80 586 -116 Q 575 -131 575 -133 Q 575 -137 584 -137 Q 613 -136 650 -67 Q 680 -7 685 117 L 686 161 L 686 169 Q 687 224 689 234 Q 690 237 690 241 C 692 258 692 258 672 268 Z"></path>
      </clipPath>
      <path clip-path="url(#make-me-a-hanzi-clip-14)" d="M 616 283 L 642 266 L 663 234 L 665 88 L 650 -10 L 631 -68 L 606 -110 L 581 -133" fill="none" id="make-me-a-hanzi-animation-14" stroke-dasharray="586 1172" stroke-linecap="round"></path>
    
      <clipPath id="make-me-a-hanzi-clip-15">
        <path d="M 800 314 Q 793 314 783 308 Q 755 292 672 268 C 643 259 661 232 690 241 Q 693 243 697 244 Q 759 259 764 259 Q 775 259 775 251 Q 764 96 764 18 Q 764 -58 791 -90 Q 812 -121 877 -121 Q 924 -121 949 -107 Q 972 -93 972 -70 Q 972 -62 966 -52 Q 961 -36 953 15 Q 948 43 939 43 Q 937 43 925 -20 Q 920 -42 909 -56 Q 896 -74 861 -74 Q 830 -74 818 -46 Q 808 -24 808 18 Q 808 109 816 175 Q 821 227 841 255 Q 852 270 852 282 Q 852 293 831 305 Q 810 314 800 314 Z"></path>
      </clipPath>
      <path clip-path="url(#make-me-a-hanzi-clip-15)" d="M 683 269 L 696 259 L 781 279 L 803 276 L 807 269 L 791 164 L 786 -10 L 796 -54 L 818 -85 L 837 -94 L 885 -97 L 935 -77 L 944 4 L 941 36" fill="none" id="make-me-a-hanzi-animation-15" stroke-dasharray="862 1724" stroke-linecap="round"></path>
    
      <clipPath id="make-me-a-hanzi-clip-16">
        <path d="M 685 117 Q 715 75 735 75 Q 748 75 748 91 Q 748 106 741 121 Q 731 143 710 153 Q 698 159 686 161 C 657 167 667 141 685 117 Z"></path>
      </clipPath>
      <path clip-path="url(#make-me-a-hanzi-clip-16)" d="M 691 154 L 735 88" fill="none" id="make-me-a-hanzi-animation-16" stroke-dasharray="207 414" stroke-linecap="round"></path>
    
  </g>
</svg>