<svg version="1.1" viewBox="0 0 1024 1024" xmlns="http://www.w3.org/2000/svg">
  <g stroke="lightgray" stroke-dasharray="1,1" stroke-width="1" transform="scale(4, 4)">
    <line x1="0" y1="0" x2="256" y2="256"></line>
    <line x1="256" y1="0" x2="0" y2="256"></line>
    <line x1="128" y1="0" x2="128" y2="256"></line>
    <line x1="0" y1="128" x2="256" y2="128"></line>
  </g>
  <g transform="scale(0.92, -0.92) translate(60, -830)">
    <style type="text/css">
      
        @keyframes keyframes0 {
          from {
            stroke: blue;
            stroke-dashoffset: 351;
            stroke-width: 128;
          }
          53% {
            animation-timing-function: step-end;
            stroke: blue;
            stroke-dashoffset: 0;
            stroke-width: 128;
          }
          to {
            stroke: black;
            stroke-width: 1024;
          }
        }
        #make-me-a-hanzi-animation-0 {
          animation: keyframes0 0.53564453125s both;
          animation-delay: 0s;
          animation-timing-function: linear;
        }
      
        @keyframes keyframes1 {
          from {
            stroke: blue;
            stroke-dashoffset: 525;
            stroke-width: 128;
          }
          63% {
            animation-timing-function: step-end;
            stroke: blue;
            stroke-dashoffset: 0;
            stroke-width: 128;
          }
          to {
            stroke: black;
            stroke-width: 1024;
          }
        }
        #make-me-a-hanzi-animation-1 {
          animation: keyframes1 0.67724609375s both;
          animation-delay: 0.53564453125s;
          animation-timing-function: linear;
        }
      
        @keyframes keyframes2 {
          from {
            stroke: blue;
            stroke-dashoffset: 341;
            stroke-width: 128;
          }
          53% {
            animation-timing-function: step-end;
            stroke: blue;
            stroke-dashoffset: 0;
            stroke-width: 128;
          }
          to {
            stroke: black;
            stroke-width: 1024;
          }
        }
        #make-me-a-hanzi-animation-2 {
          animation: keyframes2 0.5275065104166666s both;
          animation-delay: 1.212890625s;
          animation-timing-function: linear;
        }
      
        @keyframes keyframes3 {
          from {
            stroke: blue;
            stroke-dashoffset: 383;
            stroke-width: 128;
          }
          55% {
            animation-timing-function: step-end;
            stroke: blue;
            stroke-dashoffset: 0;
            stroke-width: 128;
          }
          to {
            stroke: black;
            stroke-width: 1024;
          }
        }
        #make-me-a-hanzi-animation-3 {
          animation: keyframes3 0.5616861979166666s both;
          animation-delay: 1.7403971354166665s;
          animation-timing-function: linear;
        }
      
        @keyframes keyframes4 {
          from {
            stroke: blue;
            stroke-dashoffset: 641;
            stroke-width: 128;
          }
          68% {
            animation-timing-function: step-end;
            stroke: blue;
            stroke-dashoffset: 0;
            stroke-width: 128;
          }
          to {
            stroke: black;
            stroke-width: 1024;
          }
        }
        #make-me-a-hanzi-animation-4 {
          animation: keyframes4 0.7716471354166666s both;
          animation-delay: 2.302083333333333s;
          animation-timing-function: linear;
        }
      
        @keyframes keyframes5 {
          from {
            stroke: blue;
            stroke-dashoffset: 474;
            stroke-width: 128;
          }
          61% {
            animation-timing-function: step-end;
            stroke: blue;
            stroke-dashoffset: 0;
            stroke-width: 128;
          }
          to {
            stroke: black;
            stroke-width: 1024;
          }
        }
        #make-me-a-hanzi-animation-5 {
          animation: keyframes5 0.6357421875s both;
          animation-delay: 3.0737304687499996s;
          animation-timing-function: linear;
        }
      
        @keyframes keyframes6 {
          from {
            stroke: blue;
            stroke-dashoffset: 675;
            stroke-width: 128;
          }
          69% {
            animation-timing-function: step-end;
            stroke: blue;
            stroke-dashoffset: 0;
            stroke-width: 128;
          }
          to {
            stroke: black;
            stroke-width: 1024;
          }
        }
        #make-me-a-hanzi-animation-6 {
          animation: keyframes6 0.79931640625s both;
          animation-delay: 3.7094726562499996s;
          animation-timing-function: linear;
        }
      
        @keyframes keyframes7 {
          from {
            stroke: blue;
            stroke-dashoffset: 391;
            stroke-width: 128;
          }
          56% {
            animation-timing-function: step-end;
            stroke: blue;
            stroke-dashoffset: 0;
            stroke-width: 128;
          }
          to {
            stroke: black;
            stroke-width: 1024;
          }
        }
        #make-me-a-hanzi-animation-7 {
          animation: keyframes7 0.5681966145833334s both;
          animation-delay: 4.5087890625s;
          animation-timing-function: linear;
        }
      
        @keyframes keyframes8 {
          from {
            stroke: blue;
            stroke-dashoffset: 405;
            stroke-width: 128;
          }
          57% {
            animation-timing-function: step-end;
            stroke: blue;
            stroke-dashoffset: 0;
            stroke-width: 128;
          }
          to {
            stroke: black;
            stroke-width: 1024;
          }
        }
        #make-me-a-hanzi-animation-8 {
          animation: keyframes8 0.57958984375s both;
          animation-delay: 5.076985677083333s;
          animation-timing-function: linear;
        }
      
        @keyframes keyframes9 {
          from {
            stroke: blue;
            stroke-dashoffset: 627;
            stroke-width: 128;
          }
          67% {
            animation-timing-function: step-end;
            stroke: blue;
            stroke-dashoffset: 0;
            stroke-width: 128;
          }
          to {
            stroke: black;
            stroke-width: 1024;
          }
        }
        #make-me-a-hanzi-animation-9 {
          animation: keyframes9 0.76025390625s both;
          animation-delay: 5.656575520833333s;
          animation-timing-function: linear;
        }
      
        @keyframes keyframes10 {
          from {
            stroke: blue;
            stroke-dashoffset: 591;
            stroke-width: 128;
          }
          66% {
            animation-timing-function: step-end;
            stroke: blue;
            stroke-dashoffset: 0;
            stroke-width: 128;
          }
          to {
            stroke: black;
            stroke-width: 1024;
          }
        }
        #make-me-a-hanzi-animation-10 {
          animation: keyframes10 0.73095703125s both;
          animation-delay: 6.416829427083333s;
          animation-timing-function: linear;
        }
      
        @keyframes keyframes11 {
          from {
            stroke: blue;
            stroke-dashoffset: 551;
            stroke-width: 128;
          }
          64% {
            animation-timing-function: step-end;
            stroke: blue;
            stroke-dashoffset: 0;
            stroke-width: 128;
          }
          to {
            stroke: black;
            stroke-width: 1024;
          }
        }
        #make-me-a-hanzi-animation-11 {
          animation: keyframes11 0.6984049479166666s both;
          animation-delay: 7.147786458333333s;
          animation-timing-function: linear;
        }
      
        @keyframes keyframes12 {
          from {
            stroke: blue;
            stroke-dashoffset: 824;
            stroke-width: 128;
          }
          73% {
            animation-timing-function: step-end;
            stroke: blue;
            stroke-dashoffset: 0;
            stroke-width: 128;
          }
          to {
            stroke: black;
            stroke-width: 1024;
          }
        }
        #make-me-a-hanzi-animation-12 {
          animation: keyframes12 0.9205729166666666s both;
          animation-delay: 7.84619140625s;
          animation-timing-function: linear;
        }
      
        @keyframes keyframes13 {
          from {
            stroke: blue;
            stroke-dashoffset: 689;
            stroke-width: 128;
          }
          69% {
            animation-timing-function: step-end;
            stroke: blue;
            stroke-dashoffset: 0;
            stroke-width: 128;
          }
          to {
            stroke: black;
            stroke-width: 1024;
          }
        }
        #make-me-a-hanzi-animation-13 {
          animation: keyframes13 0.8107096354166666s both;
          animation-delay: 8.766764322916666s;
          animation-timing-function: linear;
        }
      
        @keyframes keyframes14 {
          from {
            stroke: blue;
            stroke-dashoffset: 502;
            stroke-width: 128;
          }
          62% {
            animation-timing-function: step-end;
            stroke: blue;
            stroke-dashoffset: 0;
            stroke-width: 128;
          }
          to {
            stroke: black;
            stroke-width: 1024;
          }
        }
        #make-me-a-hanzi-animation-14 {
          animation: keyframes14 0.6585286458333334s both;
          animation-delay: 9.577473958333332s;
          animation-timing-function: linear;
        }
      
        @keyframes keyframes15 {
          from {
            stroke: blue;
            stroke-dashoffset: 328;
            stroke-width: 128;
          }
          52% {
            animation-timing-function: step-end;
            stroke: blue;
            stroke-dashoffset: 0;
            stroke-width: 128;
          }
          to {
            stroke: black;
            stroke-width: 1024;
          }
        }
        #make-me-a-hanzi-animation-15 {
          animation: keyframes15 0.5169270833333334s both;
          animation-delay: 10.236002604166666s;
          animation-timing-function: linear;
        }
      
        @keyframes keyframes16 {
          from {
            stroke: blue;
            stroke-dashoffset: 675;
            stroke-width: 128;
          }
          69% {
            animation-timing-function: step-end;
            stroke: blue;
            stroke-dashoffset: 0;
            stroke-width: 128;
          }
          to {
            stroke: black;
            stroke-width: 1024;
          }
        }
        #make-me-a-hanzi-animation-16 {
          animation: keyframes16 0.79931640625s both;
          animation-delay: 10.7529296875s;
          animation-timing-function: linear;
        }
      
        @keyframes keyframes17 {
          from {
            stroke: blue;
            stroke-dashoffset: 507;
            stroke-width: 128;
          }
          62% {
            animation-timing-function: step-end;
            stroke: blue;
            stroke-dashoffset: 0;
            stroke-width: 128;
          }
          to {
            stroke: black;
            stroke-width: 1024;
          }
        }
        #make-me-a-hanzi-animation-17 {
          animation: keyframes17 0.66259765625s both;
          animation-delay: 11.55224609375s;
          animation-timing-function: linear;
        }
      
        @keyframes keyframes18 {
          from {
            stroke: blue;
            stroke-dashoffset: 703;
            stroke-width: 128;
          }
          70% {
            animation-timing-function: step-end;
            stroke: blue;
            stroke-dashoffset: 0;
            stroke-width: 128;
          }
          to {
            stroke: black;
            stroke-width: 1024;
          }
        }
        #make-me-a-hanzi-animation-18 {
          animation: keyframes18 0.8221028645833334s both;
          animation-delay: 12.21484375s;
          animation-timing-function: linear;
        }
      
        @keyframes keyframes19 {
          from {
            stroke: blue;
            stroke-dashoffset: 684;
            stroke-width: 128;
          }
          69% {
            animation-timing-function: step-end;
            stroke: blue;
            stroke-dashoffset: 0;
            stroke-width: 128;
          }
          to {
            stroke: black;
            stroke-width: 1024;
          }
        }
        #make-me-a-hanzi-animation-19 {
          animation: keyframes19 0.806640625s both;
          animation-delay: 13.036946614583334s;
          animation-timing-function: linear;
        }
      
        @keyframes keyframes20 {
          from {
            stroke: blue;
            stroke-dashoffset: 456;
            stroke-width: 128;
          }
          60% {
            animation-timing-function: step-end;
            stroke: blue;
            stroke-dashoffset: 0;
            stroke-width: 128;
          }
          to {
            stroke: black;
            stroke-width: 1024;
          }
        }
        #make-me-a-hanzi-animation-20 {
          animation: keyframes20 0.62109375s both;
          animation-delay: 13.843587239583334s;
          animation-timing-function: linear;
        }
      
    </style>
    
      <path d="M 231 727 Q 212 727 212 723 Q 212 719 237 683 Q 267 643 288 643 Q 311 643 311 671 Q 311 683 305 694 Q 295 712 271 720 Q 254 726 231 727 Z" fill="lightgray"></path>
    
      <path d="M 364 647 Q 355 647 335 639 Q 285 620 147 603 Q 135 601 135 595 Q 135 587 157 579 Q 180 570 200 570 Q 211 570 231 575 Q 258 579 330 594 L 355 598 Q 357 599 359 599 Q 382 602 406 612 Q 419 618 420 631 Q 417 646 364 647 Z" fill="lightgray"></path>
    
      <path d="M 168 559 L 152 559 Q 152 555 167 530 Q 195 482 215 482 Q 236 482 236 515 Q 236 525 226 535 Q 219 546 193 555 L 168 559 Z" fill="lightgray"></path>
    
      <path d="M 330 594 Q 330 591 329 588 Q 319 545 292 482 C 280 454 296 468 318 488 Q 371 537 383 543 Q 391 550 391 559 Q 391 568 370 589 Q 362 594 355 598 C 332 611 332 611 330 594 Z" fill="lightgray"></path>
    
      <path d="M 292 482 Q 215 467 80 450 Q 68 449 68 442 Q 68 435 89 428 Q 115 419 135 419 Q 155 419 188 426 Q 242 433 403 459 Q 427 462 454 472 Q 467 478 468 490 Q 465 510 403 511 Q 390 511 360 500 Q 344 494 318 488 L 292 482 Z" fill="lightgray"></path>
    
      <path d="M 112 383 Q 99 383 99 375 Q 100 373 109 362 Q 125 346 162 208 Q 171 175 183 175 Q 191 175 191 198 L 191 201 L 188 224 L 182 279 L 180 296 L 175 335 Q 175 338 173 343 L 157 371 Q 157 372 155 373 Q 135 382 112 383 Z" fill="lightgray"></path>
    
      <path d="M 348 213 Q 347 210 347 207 Q 347 198 359 198 Q 381 198 387 211 Q 419 313 443 335 Q 456 344 456 354 Q 456 372 427 392 Q 399 410 380 410 Q 373 410 358 405 Q 332 397 255 385 Q 187 373 157 371 C 127 368 143 340 173 343 Q 188 344 253 355 Q 319 366 347 366 Q 368 366 368 350 Q 359 270 353 241 L 348 213 Z" fill="lightgray"></path>
    
      <path d="M 182 279 Q 200 274 215 274 Q 229 274 319 291 Q 332 295 332 306 Q 332 321 299 322 Q 291 322 279 319 Q 221 303 180 296 C 150 291 153 287 182 279 Z" fill="lightgray"></path>
    
      <path d="M 191 201 Q 197 198 204 198 Q 220 201 239 202 L 283 207 Q 314 210 348 213 C 378 216 379 226 353 241 Q 344 247 332 247 Q 324 247 188 224 C 158 219 163 212 191 201 Z" fill="lightgray"></path>
    
      <path d="M 252 116 Q 185 107 91 98 Q 80 97 80 91 Q 80 83 101 76 Q 127 66 147 66 Q 167 66 199 70 Q 218 72 252 76 L 299 80 Q 342 85 403 91 Q 427 94 454 104 Q 467 110 468 123 Q 465 141 403 142 Q 391 142 362 135 Q 338 129 299 123 L 252 116 Z" fill="lightgray"></path>
    
      <path d="M 239 202 Q 249 185 252 155 L 252 116 L 252 76 L 252 -89 Q 256 -129 267 -129 Q 278 -129 291 -106 Q 299 -77 299 -23 L 299 80 L 299 123 L 299 138 Q 299 147 307 178 Q 307 187 283 207 C 260 227 226 229 239 202 Z" fill="lightgray"></path>
    
      <path d="M 629 652 Q 651 686 658 691 Q 664 696 664 698 Q 664 709 634 736 Q 602 755 596 755 Q 584 755 584 742 Q 588 729 588 710 Q 588 688 564 648 Q 531 592 472 539 Q 456 525 456 522 Q 456 519 460 519 Q 477 519 528 553 Q 552 569 572 588 L 586 601 Q 598 612 610 627 L 629 652 Z" fill="lightgray"></path>
    
      <path d="M 716 538 L 734 554 Q 802 615 819 624 Q 831 629 831 631 Q 831 642 801 670 Q 769 694 760 694 Q 755 694 736 682 Q 702 662 629 652 C 599 648 584 642 610 627 L 612 625 Q 629 614 643 614 Q 652 614 727 635 Q 735 635 735 627 Q 735 612 676 557 L 646 532 Q 563 467 439 415 Q 439 410 447 410 Q 480 410 558 441 Q 614 465 677 509 L 716 538 Z" fill="lightgray"></path>
    
      <path d="M 782 440 Q 796 434 804 434 Q 840 434 906 445 Q 983 456 983 467 Q 983 470 943 475 Q 867 484 814 502 Q 772 514 716 538 L 676 557 Q 649 569 620 585 Q 599 595 586 601 C 559 614 548 606 572 588 Q 585 579 617 554 Q 632 543 646 532 L 677 509 Q 724 474 755 454 L 782 440 Z" fill="lightgray"></path>
    
      <path d="M 748 454 Q 732 454 712 449 Q 604 425 531 415 Q 519 412 519 406 Q 519 401 536 397 Q 557 391 575 391 Q 589 391 639 398 L 676 403 Q 715 409 771 419 Q 783 423 783 434 Q 783 436 782 440 C 781 454 781 454 755 454 L 748 454 Z" fill="lightgray"></path>
    
      <path d="M 639 398 Q 643 387 643 375 L 643 343 Q 644 335 647 326 C 656 297 669 303 677 332 Q 678 335 679 341 Q 683 375 686 381 Q 687 384 687 387 Q 687 394 676 403 C 653 423 629 426 639 398 Z" fill="lightgray"></path>
    
      <path d="M 647 326 Q 605 319 568 314 Q 525 309 479 306 Q 457 306 456 295 Q 457 291 469 286 Q 493 276 515 274 Q 529 274 561 281 Q 632 292 736 304 Q 800 309 876 310 Q 896 310 896 326 Q 896 339 879 349 Q 861 358 840 358 Q 814 358 787 352 Q 729 341 677 332 L 647 326 Z" fill="lightgray"></path>
    
      <path d="M 515 251 Q 504 250 504 238 Q 504 235 516 210 Q 527 183 527 150 L 527 100 Q 527 81 518 62 Q 508 54 508 50 Q 508 37 518 14 Q 532 -13 540 -13 Q 556 -13 563 0 Q 566 14 567 36 L 567 158 Q 567 175 572 200 C 576 221 576 221 571 225 Q 565 232 547 240 Q 526 251 515 251 Z" fill="lightgray"></path>
    
      <path d="M 572 200 Q 596 202 662 212 Q 734 222 748 222 Q 771 222 771 178 L 771 110 Q 771 94 770 75 Q 768 53 768 39 Q 768 33 779 12 Q 790 -1 804 -1 Q 816 -1 820 17 Q 822 32 822 148 Q 822 195 836 214 Q 844 224 844 226 Q 844 238 817 258 Q 787 278 768 278 Q 758 278 713 262 Q 655 238 571 225 C 541 220 542 197 572 200 Z" fill="lightgray"></path>
    
      <path d="M 651 175 Q 636 175 636 163 Q 636 155 637 151 Q 640 131 640 115 Q 638 75 613 20 Q 587 -35 559 -59 Q 516 -93 457 -118 Q 427 -130 427 -133 Q 427 -137 443 -137 Q 507 -137 580 -90 Q 644 -48 682 50 Q 699 96 707 106 Q 716 116 716 119 Q 716 129 684 155 Q 658 175 651 175 Z" fill="lightgray"></path>
    
      <path d="M 703 -1 Q 695 -1 695 -9 Q 695 -13 730 -41 Q 765 -70 810 -114 Q 841 -146 863 -146 Q 892 -146 892 -106 Q 892 -90 873 -71 Q 848 -48 761 -17 Q 718 -1 703 -1 Z" fill="lightgray"></path>
    
    
      <clipPath id="make-me-a-hanzi-clip-0">
        <path d="M 231 727 Q 212 727 212 723 Q 212 719 237 683 Q 267 643 288 643 Q 311 643 311 671 Q 311 683 305 694 Q 295 712 271 720 Q 254 726 231 727 Z"></path>
      </clipPath>
      <path clip-path="url(#make-me-a-hanzi-clip-0)" d="M 216 721 L 267 691 L 290 663" fill="none" id="make-me-a-hanzi-animation-0" stroke-dasharray="223 446" stroke-linecap="round"></path>
    
      <clipPath id="make-me-a-hanzi-clip-1">
        <path d="M 364 647 Q 355 647 335 639 Q 285 620 147 603 Q 135 601 135 595 Q 135 587 157 579 Q 180 570 200 570 Q 211 570 231 575 Q 258 579 330 594 L 355 598 Q 357 599 359 599 Q 382 602 406 612 Q 419 618 420 631 Q 417 646 364 647 Z"></path>
      </clipPath>
      <path clip-path="url(#make-me-a-hanzi-clip-1)" d="M 144 595 L 195 589 L 409 628" fill="none" id="make-me-a-hanzi-animation-1" stroke-dasharray="397 794" stroke-linecap="round"></path>
    
      <clipPath id="make-me-a-hanzi-clip-2">
        <path d="M 168 559 L 152 559 Q 152 555 167 530 Q 195 482 215 482 Q 236 482 236 515 Q 236 525 226 535 Q 219 546 193 555 L 168 559 Z"></path>
      </clipPath>
      <path clip-path="url(#make-me-a-hanzi-clip-2)" d="M 156 558 L 201 524 L 216 500" fill="none" id="make-me-a-hanzi-animation-2" stroke-dasharray="213 426" stroke-linecap="round"></path>
    
      <clipPath id="make-me-a-hanzi-clip-3">
        <path d="M 330 594 Q 330 591 329 588 Q 319 545 292 482 C 280 454 296 468 318 488 Q 371 537 383 543 Q 391 550 391 559 Q 391 568 370 589 Q 362 594 355 598 C 332 611 332 611 330 594 Z"></path>
      </clipPath>
      <path clip-path="url(#make-me-a-hanzi-clip-3)" d="M 337 590 L 354 561 L 318 504 L 297 489" fill="none" id="make-me-a-hanzi-animation-3" stroke-dasharray="255 510" stroke-linecap="round"></path>
    
      <clipPath id="make-me-a-hanzi-clip-4">
        <path d="M 292 482 Q 215 467 80 450 Q 68 449 68 442 Q 68 435 89 428 Q 115 419 135 419 Q 155 419 188 426 Q 242 433 403 459 Q 427 462 454 472 Q 467 478 468 490 Q 465 510 403 511 Q 390 511 360 500 Q 344 494 318 488 L 292 482 Z"></path>
      </clipPath>
      <path clip-path="url(#make-me-a-hanzi-clip-4)" d="M 76 443 L 101 437 L 150 439 L 326 467 L 413 487 L 456 489" fill="none" id="make-me-a-hanzi-animation-4" stroke-dasharray="513 1026" stroke-linecap="round"></path>
    
      <clipPath id="make-me-a-hanzi-clip-5">
        <path d="M 112 383 Q 99 383 99 375 Q 100 373 109 362 Q 125 346 162 208 Q 171 175 183 175 Q 191 175 191 198 L 191 201 L 188 224 L 182 279 L 180 296 L 175 335 Q 175 338 173 343 L 157 371 Q 157 372 155 373 Q 135 382 112 383 Z"></path>
      </clipPath>
      <path clip-path="url(#make-me-a-hanzi-clip-5)" d="M 107 377 L 140 355 L 150 333 L 182 182" fill="none" id="make-me-a-hanzi-animation-5" stroke-dasharray="346 692" stroke-linecap="round"></path>
    
      <clipPath id="make-me-a-hanzi-clip-6">
        <path d="M 348 213 Q 347 210 347 207 Q 347 198 359 198 Q 381 198 387 211 Q 419 313 443 335 Q 456 344 456 354 Q 456 372 427 392 Q 399 410 380 410 Q 373 410 358 405 Q 332 397 255 385 Q 187 373 157 371 C 127 368 143 340 173 343 Q 188 344 253 355 Q 319 366 347 366 Q 368 366 368 350 Q 359 270 353 241 L 348 213 Z"></path>
      </clipPath>
      <path clip-path="url(#make-me-a-hanzi-clip-6)" d="M 162 368 L 181 359 L 336 383 L 371 385 L 387 379 L 408 356 L 373 228 L 357 208" fill="none" id="make-me-a-hanzi-animation-6" stroke-dasharray="547 1094" stroke-linecap="round"></path>
    
      <clipPath id="make-me-a-hanzi-clip-7">
        <path d="M 182 279 Q 200 274 215 274 Q 229 274 319 291 Q 332 295 332 306 Q 332 321 299 322 Q 291 322 279 319 Q 221 303 180 296 C 150 291 153 287 182 279 Z"></path>
      </clipPath>
      <path clip-path="url(#make-me-a-hanzi-clip-7)" d="M 187 292 L 192 287 L 223 289 L 319 305" fill="none" id="make-me-a-hanzi-animation-7" stroke-dasharray="263 526" stroke-linecap="round"></path>
    
      <clipPath id="make-me-a-hanzi-clip-8">
        <path d="M 191 201 Q 197 198 204 198 Q 220 201 239 202 L 283 207 Q 314 210 348 213 C 378 216 379 226 353 241 Q 344 247 332 247 Q 324 247 188 224 C 158 219 163 212 191 201 Z"></path>
      </clipPath>
      <path clip-path="url(#make-me-a-hanzi-clip-8)" d="M 199 208 L 206 214 L 344 235" fill="none" id="make-me-a-hanzi-animation-8" stroke-dasharray="277 554" stroke-linecap="round"></path>
    
      <clipPath id="make-me-a-hanzi-clip-9">
        <path d="M 252 116 Q 185 107 91 98 Q 80 97 80 91 Q 80 83 101 76 Q 127 66 147 66 Q 167 66 199 70 Q 218 72 252 76 L 299 80 Q 342 85 403 91 Q 427 94 454 104 Q 467 110 468 123 Q 465 141 403 142 Q 391 142 362 135 Q 338 129 299 123 L 252 116 Z"></path>
      </clipPath>
      <path clip-path="url(#make-me-a-hanzi-clip-9)" d="M 88 91 L 129 84 L 175 86 L 456 121" fill="none" id="make-me-a-hanzi-animation-9" stroke-dasharray="499 998" stroke-linecap="round"></path>
    
      <clipPath id="make-me-a-hanzi-clip-10">
        <path d="M 239 202 Q 249 185 252 155 L 252 116 L 252 76 L 252 -89 Q 256 -129 267 -129 Q 278 -129 291 -106 Q 299 -77 299 -23 L 299 80 L 299 123 L 299 138 Q 299 147 307 178 Q 307 187 283 207 C 260 227 226 229 239 202 Z"></path>
      </clipPath>
      <path clip-path="url(#make-me-a-hanzi-clip-10)" d="M 247 200 L 278 174 L 276 -47 L 268 -120" fill="none" id="make-me-a-hanzi-animation-10" stroke-dasharray="463 926" stroke-linecap="round"></path>
    
      <clipPath id="make-me-a-hanzi-clip-11">
        <path d="M 629 652 Q 651 686 658 691 Q 664 696 664 698 Q 664 709 634 736 Q 602 755 596 755 Q 584 755 584 742 Q 588 729 588 710 Q 588 688 564 648 Q 531 592 472 539 Q 456 525 456 522 Q 456 519 460 519 Q 477 519 528 553 Q 552 569 572 588 L 586 601 Q 598 612 610 627 L 629 652 Z"></path>
      </clipPath>
      <path clip-path="url(#make-me-a-hanzi-clip-11)" d="M 595 744 L 621 701 L 603 662 L 545 588 L 496 544 L 460 523" fill="none" id="make-me-a-hanzi-animation-11" stroke-dasharray="423 846" stroke-linecap="round"></path>
    
      <clipPath id="make-me-a-hanzi-clip-12">
        <path d="M 716 538 L 734 554 Q 802 615 819 624 Q 831 629 831 631 Q 831 642 801 670 Q 769 694 760 694 Q 755 694 736 682 Q 702 662 629 652 C 599 648 584 642 610 627 L 612 625 Q 629 614 643 614 Q 652 614 727 635 Q 735 635 735 627 Q 735 612 676 557 L 646 532 Q 563 467 439 415 Q 439 410 447 410 Q 480 410 558 441 Q 614 465 677 509 L 716 538 Z"></path>
      </clipPath>
      <path clip-path="url(#make-me-a-hanzi-clip-12)" d="M 617 632 L 672 639 L 727 656 L 760 654 L 773 641 L 759 610 L 730 577 L 647 509 L 544 449 L 451 416" fill="none" id="make-me-a-hanzi-animation-12" stroke-dasharray="696 1392" stroke-linecap="round"></path>
    
      <clipPath id="make-me-a-hanzi-clip-13">
        <path d="M 782 440 Q 796 434 804 434 Q 840 434 906 445 Q 983 456 983 467 Q 983 470 943 475 Q 867 484 814 502 Q 772 514 716 538 L 676 557 Q 649 569 620 585 Q 599 595 586 601 C 559 614 548 606 572 588 Q 585 579 617 554 Q 632 543 646 532 L 677 509 Q 724 474 755 454 L 782 440 Z"></path>
      </clipPath>
      <path clip-path="url(#make-me-a-hanzi-clip-13)" d="M 578 588 L 597 585 L 714 512 L 800 470 L 876 462 L 980 466" fill="none" id="make-me-a-hanzi-animation-13" stroke-dasharray="561 1122" stroke-linecap="round"></path>
    
      <clipPath id="make-me-a-hanzi-clip-14">
        <path d="M 748 454 Q 732 454 712 449 Q 604 425 531 415 Q 519 412 519 406 Q 519 401 536 397 Q 557 391 575 391 Q 589 391 639 398 L 676 403 Q 715 409 771 419 Q 783 423 783 434 Q 783 436 782 440 C 781 454 781 454 755 454 L 748 454 Z"></path>
      </clipPath>
      <path clip-path="url(#make-me-a-hanzi-clip-14)" d="M 527 408 L 570 405 L 771 435" fill="none" id="make-me-a-hanzi-animation-14" stroke-dasharray="374 748" stroke-linecap="round"></path>
    
      <clipPath id="make-me-a-hanzi-clip-15">
        <path d="M 639 398 Q 643 387 643 375 L 643 343 Q 644 335 647 326 C 656 297 669 303 677 332 Q 678 335 679 341 Q 683 375 686 381 Q 687 384 687 387 Q 687 394 676 403 C 653 423 629 426 639 398 Z"></path>
      </clipPath>
      <path clip-path="url(#make-me-a-hanzi-clip-15)" d="M 646 394 L 664 380 L 663 353 L 653 333" fill="none" id="make-me-a-hanzi-animation-15" stroke-dasharray="200 400" stroke-linecap="round"></path>
    
      <clipPath id="make-me-a-hanzi-clip-16">
        <path d="M 647 326 Q 605 319 568 314 Q 525 309 479 306 Q 457 306 456 295 Q 457 291 469 286 Q 493 276 515 274 Q 529 274 561 281 Q 632 292 736 304 Q 800 309 876 310 Q 896 310 896 326 Q 896 339 879 349 Q 861 358 840 358 Q 814 358 787 352 Q 729 341 677 332 L 647 326 Z"></path>
      </clipPath>
      <path clip-path="url(#make-me-a-hanzi-clip-16)" d="M 465 294 L 531 293 L 810 333 L 845 334 L 880 326" fill="none" id="make-me-a-hanzi-animation-16" stroke-dasharray="547 1094" stroke-linecap="round"></path>
    
      <clipPath id="make-me-a-hanzi-clip-17">
        <path d="M 515 251 Q 504 250 504 238 Q 504 235 516 210 Q 527 183 527 150 L 527 100 Q 527 81 518 62 Q 508 54 508 50 Q 508 37 518 14 Q 532 -13 540 -13 Q 556 -13 563 0 Q 566 14 567 36 L 567 158 Q 567 175 572 200 C 576 221 576 221 571 225 Q 565 232 547 240 Q 526 251 515 251 Z"></path>
      </clipPath>
      <path clip-path="url(#make-me-a-hanzi-clip-17)" d="M 515 240 L 546 205 L 547 89 L 538 41 L 544 2" fill="none" id="make-me-a-hanzi-animation-17" stroke-dasharray="379 758" stroke-linecap="round"></path>
    
      <clipPath id="make-me-a-hanzi-clip-18">
        <path d="M 572 200 Q 596 202 662 212 Q 734 222 748 222 Q 771 222 771 178 L 771 110 Q 771 94 770 75 Q 768 53 768 39 Q 768 33 779 12 Q 790 -1 804 -1 Q 816 -1 820 17 Q 822 32 822 148 Q 822 195 836 214 Q 844 224 844 226 Q 844 238 817 258 Q 787 278 768 278 Q 758 278 713 262 Q 655 238 571 225 C 541 220 542 197 572 200 Z"></path>
      </clipPath>
      <path clip-path="url(#make-me-a-hanzi-clip-18)" d="M 576 206 L 585 214 L 749 248 L 775 246 L 792 233 L 800 225 L 795 41 L 802 17" fill="none" id="make-me-a-hanzi-animation-18" stroke-dasharray="575 1150" stroke-linecap="round"></path>
    
      <clipPath id="make-me-a-hanzi-clip-19">
        <path d="M 651 175 Q 636 175 636 163 Q 636 155 637 151 Q 640 131 640 115 Q 638 75 613 20 Q 587 -35 559 -59 Q 516 -93 457 -118 Q 427 -130 427 -133 Q 427 -137 443 -137 Q 507 -137 580 -90 Q 644 -48 682 50 Q 699 96 707 106 Q 716 116 716 119 Q 716 129 684 155 Q 658 175 651 175 Z"></path>
      </clipPath>
      <path clip-path="url(#make-me-a-hanzi-clip-19)" d="M 648 163 L 674 118 L 647 33 L 603 -43 L 575 -71 L 524 -103 L 462 -128 L 430 -133" fill="none" id="make-me-a-hanzi-animation-19" stroke-dasharray="556 1112" stroke-linecap="round"></path>
    
      <clipPath id="make-me-a-hanzi-clip-20">
        <path d="M 703 -1 Q 695 -1 695 -9 Q 695 -13 730 -41 Q 765 -70 810 -114 Q 841 -146 863 -146 Q 892 -146 892 -106 Q 892 -90 873 -71 Q 848 -48 761 -17 Q 718 -1 703 -1 Z"></path>
      </clipPath>
      <path clip-path="url(#make-me-a-hanzi-clip-20)" d="M 702 -8 L 824 -79 L 865 -121" fill="none" id="make-me-a-hanzi-animation-20" stroke-dasharray="328 656" stroke-linecap="round"></path>
    
  </g>
</svg>