<svg version="1.1" viewBox="0 0 1024 1024" xmlns="http://www.w3.org/2000/svg">
  <g stroke="lightgray" stroke-dasharray="1,1" stroke-width="1" transform="scale(4, 4)">
    <line x1="0" y1="0" x2="256" y2="256"></line>
    <line x1="256" y1="0" x2="0" y2="256"></line>
    <line x1="128" y1="0" x2="128" y2="256"></line>
    <line x1="0" y1="128" x2="256" y2="128"></line>
  </g>
  <g transform="scale(0.92, -0.92) translate(60, -830)">
    <style type="text/css">
      
        @keyframes keyframes0 {
          from {
            stroke: blue;
            stroke-dashoffset: 562;
            stroke-width: 128;
          }
          65% {
            animation-timing-function: step-end;
            stroke: blue;
            stroke-dashoffset: 0;
            stroke-width: 128;
          }
          to {
            stroke: black;
            stroke-width: 1024;
          }
        }
        #make-me-a-hanzi-animation-0 {
          animation: keyframes0 0.7073567708333334s both;
          animation-delay: 0s;
          animation-timing-function: linear;
        }
      
        @keyframes keyframes1 {
          from {
            stroke: blue;
            stroke-dashoffset: 605;
            stroke-width: 128;
          }
          66% {
            animation-timing-function: step-end;
            stroke: blue;
            stroke-dashoffset: 0;
            stroke-width: 128;
          }
          to {
            stroke: black;
            stroke-width: 1024;
          }
        }
        #make-me-a-hanzi-animation-1 {
          animation: keyframes1 0.7423502604166666s both;
          animation-delay: 0.7073567708333334s;
          animation-timing-function: linear;
        }
      
        @keyframes keyframes2 {
          from {
            stroke: blue;
            stroke-dashoffset: 714;
            stroke-width: 128;
          }
          70% {
            animation-timing-function: step-end;
            stroke: blue;
            stroke-dashoffset: 0;
            stroke-width: 128;
          }
          to {
            stroke: black;
            stroke-width: 1024;
          }
        }
        #make-me-a-hanzi-animation-2 {
          animation: keyframes2 0.8310546875s both;
          animation-delay: 1.44970703125s;
          animation-timing-function: linear;
        }
      
        @keyframes keyframes3 {
          from {
            stroke: blue;
            stroke-dashoffset: 489;
            stroke-width: 128;
          }
          61% {
            animation-timing-function: step-end;
            stroke: blue;
            stroke-dashoffset: 0;
            stroke-width: 128;
          }
          to {
            stroke: black;
            stroke-width: 1024;
          }
        }
        #make-me-a-hanzi-animation-3 {
          animation: keyframes3 0.64794921875s both;
          animation-delay: 2.28076171875s;
          animation-timing-function: linear;
        }
      
        @keyframes keyframes4 {
          from {
            stroke: blue;
            stroke-dashoffset: 373;
            stroke-width: 128;
          }
          55% {
            animation-timing-function: step-end;
            stroke: blue;
            stroke-dashoffset: 0;
            stroke-width: 128;
          }
          to {
            stroke: black;
            stroke-width: 1024;
          }
        }
        #make-me-a-hanzi-animation-4 {
          animation: keyframes4 0.5535481770833334s both;
          animation-delay: 2.9287109375s;
          animation-timing-function: linear;
        }
      
        @keyframes keyframes5 {
          from {
            stroke: blue;
            stroke-dashoffset: 602;
            stroke-width: 128;
          }
          66% {
            animation-timing-function: step-end;
            stroke: blue;
            stroke-dashoffset: 0;
            stroke-width: 128;
          }
          to {
            stroke: black;
            stroke-width: 1024;
          }
        }
        #make-me-a-hanzi-animation-5 {
          animation: keyframes5 0.7399088541666666s both;
          animation-delay: 3.4822591145833335s;
          animation-timing-function: linear;
        }
      
        @keyframes keyframes6 {
          from {
            stroke: blue;
            stroke-dashoffset: 1042;
            stroke-width: 128;
          }
          77% {
            animation-timing-function: step-end;
            stroke: blue;
            stroke-dashoffset: 0;
            stroke-width: 128;
          }
          to {
            stroke: black;
            stroke-width: 1024;
          }
        }
        #make-me-a-hanzi-animation-6 {
          animation: keyframes6 1.0979817708333333s both;
          animation-delay: 4.22216796875s;
          animation-timing-function: linear;
        }
      
        @keyframes keyframes7 {
          from {
            stroke: blue;
            stroke-dashoffset: 490;
            stroke-width: 128;
          }
          61% {
            animation-timing-function: step-end;
            stroke: blue;
            stroke-dashoffset: 0;
            stroke-width: 128;
          }
          to {
            stroke: black;
            stroke-width: 1024;
          }
        }
        #make-me-a-hanzi-animation-7 {
          animation: keyframes7 0.6487630208333334s both;
          animation-delay: 5.320149739583333s;
          animation-timing-function: linear;
        }
      
        @keyframes keyframes8 {
          from {
            stroke: blue;
            stroke-dashoffset: 724;
            stroke-width: 128;
          }
          70% {
            animation-timing-function: step-end;
            stroke: blue;
            stroke-dashoffset: 0;
            stroke-width: 128;
          }
          to {
            stroke: black;
            stroke-width: 1024;
          }
        }
        #make-me-a-hanzi-animation-8 {
          animation: keyframes8 0.8391927083333334s both;
          animation-delay: 5.968912760416666s;
          animation-timing-function: linear;
        }
      
        @keyframes keyframes9 {
          from {
            stroke: blue;
            stroke-dashoffset: 442;
            stroke-width: 128;
          }
          59% {
            animation-timing-function: step-end;
            stroke: blue;
            stroke-dashoffset: 0;
            stroke-width: 128;
          }
          to {
            stroke: black;
            stroke-width: 1024;
          }
        }
        #make-me-a-hanzi-animation-9 {
          animation: keyframes9 0.6097005208333334s both;
          animation-delay: 6.808105468749999s;
          animation-timing-function: linear;
        }
      
        @keyframes keyframes10 {
          from {
            stroke: blue;
            stroke-dashoffset: 415;
            stroke-width: 128;
          }
          57% {
            animation-timing-function: step-end;
            stroke: blue;
            stroke-dashoffset: 0;
            stroke-width: 128;
          }
          to {
            stroke: black;
            stroke-width: 1024;
          }
        }
        #make-me-a-hanzi-animation-10 {
          animation: keyframes10 0.5877278645833334s both;
          animation-delay: 7.417805989583332s;
          animation-timing-function: linear;
        }
      
        @keyframes keyframes11 {
          from {
            stroke: blue;
            stroke-dashoffset: 535;
            stroke-width: 128;
          }
          64% {
            animation-timing-function: step-end;
            stroke: blue;
            stroke-dashoffset: 0;
            stroke-width: 128;
          }
          to {
            stroke: black;
            stroke-width: 1024;
          }
        }
        #make-me-a-hanzi-animation-11 {
          animation: keyframes11 0.6853841145833334s both;
          animation-delay: 8.005533854166666s;
          animation-timing-function: linear;
        }
      
        @keyframes keyframes12 {
          from {
            stroke: blue;
            stroke-dashoffset: 663;
            stroke-width: 128;
          }
          68% {
            animation-timing-function: step-end;
            stroke: blue;
            stroke-dashoffset: 0;
            stroke-width: 128;
          }
          to {
            stroke: black;
            stroke-width: 1024;
          }
        }
        #make-me-a-hanzi-animation-12 {
          animation: keyframes12 0.78955078125s both;
          animation-delay: 8.69091796875s;
          animation-timing-function: linear;
        }
      
        @keyframes keyframes13 {
          from {
            stroke: blue;
            stroke-dashoffset: 575;
            stroke-width: 128;
          }
          65% {
            animation-timing-function: step-end;
            stroke: blue;
            stroke-dashoffset: 0;
            stroke-width: 128;
          }
          to {
            stroke: black;
            stroke-width: 1024;
          }
        }
        #make-me-a-hanzi-animation-13 {
          animation: keyframes13 0.7179361979166666s both;
          animation-delay: 9.48046875s;
          animation-timing-function: linear;
        }
      
    </style>
    
      <path d="M 380 468 L 404 474 Q 430 480 450 483 Q 469 486 476 489 L 494 494 Q 502 497 503 502 L 503 504 Q 503 508 499 513 Q 494 518 481 523 Q 468 528 458 530 Q 451 531 446 531 L 440 531 Q 436 530 426 526 Q 416 522 408 520 Q 400 517 381 512 L 325 497 L 304 492 L 287 489 L 244 482 Q 216 476 210 476 L 198 474 Q 189 474 186 471 Q 184 469 184 466 Q 184 462 191 457 Q 198 452 206 449 Q 214 446 225 443 Q 232 442 239 442 L 246 442 Q 251 442 273 446 L 314 454 Q 318 454 326 456 L 380 468 Z" fill="lightgray"></path>
    
      <path d="M 375 367 L 380 468 L 381 512 L 382 550 Q 384 582 386 602 Q 388 623 390 631 Q 392 640 396 651 Q 398 659 398 665 L 398 668 Q 397 674 388 682 Q 378 690 360 695 L 336 701 Q 329 702 325 702 L 322 702 Q 312 700 310 695 Q 309 694 309 692 Q 309 687 313 678 Q 318 666 320 658 Q 321 648 322 628 Q 323 606 324 600 L 325 497 L 326 456 L 326 358 C 326 328 374 337 375 367 Z" fill="lightgray"></path>
    
      <path d="M 361 326 L 395 332 L 430 337 L 492 346 L 526 350 Q 534 352 534 358 Q 534 364 526 370 Q 518 376 509 379 Q 500 382 488 383 Q 476 384 466 384 Q 455 384 442 382 L 408 374 Q 407 373 396 371 L 375 367 L 326 358 L 302 353 Q 296 352 276 348 Q 256 344 204 336 Q 152 327 132 324 Q 112 321 92 319 L 74 317 Q 64 316 64 308 L 64 306 Q 64 299 75 292 Q 88 284 94 280 Q 100 276 112 273 Q 122 270 130 270 L 134 270 Q 140 270 156 277 Q 171 283 189 288 Q 206 294 232 300 L 274 310 Q 291 314 314 318 L 361 326 Z" fill="lightgray"></path>
    
      <path d="M 371 95 L 374 184 L 376 218 L 378 241 Q 378 248 380 264 Q 383 279 386 288 Q 388 295 388 300 L 388 303 Q 388 308 381 314 Q 374 320 361 326 C 334 339 305 347 314 318 L 320 299 Q 320 296 321 289 Q 322 282 324 261 Q 324 240 325 234 L 326 205 L 326 199 L 326 118 C 326 88 370 65 371 95 Z" fill="lightgray"></path>
    
      <path d="M 374 184 L 396 186 Q 399 186 411 188 L 446 194 Q 466 196 474 199 L 487 204 Q 497 206 498 212 Q 498 218 491 225 Q 484 231 472 236 Q 458 241 452 241 Q 446 240 433 236 Q 420 230 406 227 Q 394 223 376 218 C 347 210 344 181 374 184 Z" fill="lightgray"></path>
    
      <path d="M 248 160 L 266 182 L 276 192 Q 277 194 277 195 Q 277 200 272 207 Q 266 216 254 225 Q 242 234 231 238 Q 220 243 215 244 Q 210 246 205 246 Q 199 245 196 242 Q 194 240 194 234 L 192 208 Q 190 194 183 171 Q 176 148 168 128 Q 160 110 136 72 Q 112 34 104 23 L 73 -12 L 58 -29 Q 50 -40 50 -43 L 50 -44 Q 52 -47 55 -47 L 56 -47 Q 60 -47 69 -41 L 95 -24 Q 104 -18 124 -1 Q 144 16 164 38 Q 184 60 198 82 Q 212 103 218 114 Q 224 124 234 138 L 248 160 Z" fill="lightgray"></path>
    
      <path d="M 234 138 L 251 128 L 288 104 L 405 26 Q 486 -28 564 -74 Q 643 -119 674 -129 Q 706 -138 734 -138 Q 748 -138 782 -132 L 865 -118 L 950 -102 L 972 -98 Q 978 -98 979 -90 Q 979 -82 969 -80 L 946 -78 L 846 -65 Q 754 -52 685 -35 Q 616 -17 555 8 Q 494 32 452 53 L 398 80 Q 386 86 371 95 L 326 118 L 303 130 L 276 146 Q 266 150 248 160 C 221 174 208 153 234 138 Z" fill="lightgray"></path>
    
      <path d="M 579 628 L 561 632 Q 548 634 538 636 Q 528 636 526 633 Q 522 630 522 627 Q 522 624 524 620 L 536 611 Q 540 607 545 598 Q 550 588 552 574 L 572 451 Q 574 438 578 428 Q 582 418 586 414 Q 591 409 595 409 L 596 409 Q 600 410 602 414 Q 606 417 610 422 C 612 424 612 424 610 449 L 604 515 L 602 536 L 596 602 C 594 625 594 625 579 628 Z" fill="lightgray"></path>
    
      <path d="M 774 436 L 778 426 Q 779 422 787 420 Q 789 419 791 419 Q 795 419 800 422 Q 808 426 814 436 Q 820 446 824 458 L 855 564 Q 858 574 862 584 Q 866 595 873 604 L 880 614 Q 883 620 883 626 L 883 629 Q 882 635 874 642 Q 867 650 855 657 Q 843 665 828 672 Q 814 679 804 679 L 802 679 Q 798 678 783 672 Q 768 665 748 659 Q 726 654 708 649 Q 690 644 662 640 L 579 628 C 549 624 567 595 596 602 L 640 612 Q 650 614 675 620 Q 701 624 722 628 L 758 632 Q 776 634 784 634 Q 798 634 800 629 Q 804 624 804 622 Q 804 620 803 611 L 798 571 L 795 552 L 792 535 L 786 503 Q 784 494 777 458 C 773 438 773 438 774 436 Z" fill="lightgray"></path>
    
      <path d="M 795 552 L 780 560 Q 776 561 766 564 Q 756 566 753 566 Q 751 566 745 563 Q 738 561 716 557 L 671 545 Q 664 544 640 540 Q 615 536 612 536 L 602 536 C 572 536 575 523 604 515 L 618 511 Q 623 509 632 509 L 639 509 Q 647 509 664 512 Q 681 516 718 521 Q 756 526 768 529 L 782 532 L 792 535 C 814 542 814 542 795 552 Z" fill="lightgray"></path>
    
      <path d="M 610 422 L 626 421 L 631 421 Q 641 421 666 424 L 722 431 Q 746 433 774 436 C 804 439 805 447 777 458 L 761 464 Q 754 466 744 466 Q 733 466 715 462 Q 696 460 672 456 Q 647 454 639 452 Q 630 452 610 449 C 580 445 580 424 610 422 Z" fill="lightgray"></path>
    
      <path d="M 724 331 L 748 335 Q 759 336 780 340 Q 802 343 806 344 L 824 347 Q 835 348 841 353 Q 846 358 846 361 Q 846 365 838 370 Q 829 376 822 378 Q 814 381 804 384 Q 792 386 788 386 Q 785 386 777 383 Q 768 380 747 374 Q 726 369 723 368 Q 720 368 695 363 L 658 356 Q 648 354 618 350 Q 588 345 579 345 L 566 344 Q 558 344 557 340 L 557 339 Q 557 335 561 330 Q 566 326 574 322 L 595 316 Q 609 314 620 314 Q 624 314 633 315 Q 642 316 667 322 L 724 331 Z" fill="lightgray"></path>
    
      <path d="M 672 252 L 654 249 L 616 244 L 580 240 L 538 236 L 522 235 Q 514 234 512 230 Q 511 229 511 228 Q 511 225 514 222 Q 518 216 526 210 Q 534 204 548 199 Q 558 196 565 196 L 569 196 Q 573 196 586 200 Q 598 204 617 209 Q 636 213 646 214 Q 656 216 672 218 L 720 225 L 739 227 Q 747 228 773 230 Q 791 231 809 231 L 827 231 Q 854 231 874 230 L 894 228 Q 900 227 905 227 Q 918 227 923 231 Q 930 236 930 240 Q 930 246 924 252 Q 918 259 910 264 Q 903 270 890 275 Q 879 279 868 279 L 864 279 Q 858 278 844 276 Q 829 272 798 268 L 754 262 Q 742 261 721 258 L 672 252 Z" fill="lightgray"></path>
    
      <path d="M 667 322 L 670 308 L 670 290 Q 672 275 672 270 L 672 252 L 672 218 L 670 118 Q 670 102 671 80 Q 672 56 674 42 Q 674 26 678 16 Q 680 4 686 4 L 687 4 Q 691 4 697 18 Q 703 32 707 57 L 712 88 Q 714 107 716 139 Q 716 171 717 185 Q 718 200 720 225 L 721 258 L 722 274 Q 722 280 723 286 Q 724 294 728 305 Q 731 312 731 316 L 731 318 Q 731 322 724 331 C 707 356 661 351 667 322 Z" fill="lightgray"></path>
    
    
      <clipPath id="make-me-a-hanzi-clip-0">
        <path d="M 380 468 L 404 474 Q 430 480 450 483 Q 469 486 476 489 L 494 494 Q 502 497 503 502 L 503 504 Q 503 508 499 513 Q 494 518 481 523 Q 468 528 458 530 Q 451 531 446 531 L 440 531 Q 436 530 426 526 Q 416 522 408 520 Q 400 517 381 512 L 325 497 L 304 492 L 287 489 L 244 482 Q 216 476 210 476 L 198 474 Q 189 474 186 471 Q 184 469 184 466 Q 184 462 191 457 Q 198 452 206 449 Q 214 446 225 443 Q 232 442 239 442 L 246 442 Q 251 442 273 446 L 314 454 Q 318 454 326 456 L 380 468 Z"></path>
      </clipPath>
      <path clip-path="url(#make-me-a-hanzi-clip-0)" d="M 193 465 L 261 463 L 443 507 L 494 503" fill="none" id="make-me-a-hanzi-animation-0" stroke-dasharray="434 868" stroke-linecap="round"></path>
    
      <clipPath id="make-me-a-hanzi-clip-1">
        <path d="M 375 367 L 380 468 L 381 512 L 382 550 Q 384 582 386 602 Q 388 623 390 631 Q 392 640 396 651 Q 398 659 398 665 L 398 668 Q 397 674 388 682 Q 378 690 360 695 L 336 701 Q 329 702 325 702 L 322 702 Q 312 700 310 695 Q 309 694 309 692 Q 309 687 313 678 Q 318 666 320 658 Q 321 648 322 628 Q 323 606 324 600 L 325 497 L 326 456 L 326 358 C 326 328 374 337 375 367 Z"></path>
      </clipPath>
      <path clip-path="url(#make-me-a-hanzi-clip-1)" d="M 321 690 L 358 655 L 351 388 L 331 365" fill="none" id="make-me-a-hanzi-animation-1" stroke-dasharray="477 954" stroke-linecap="round"></path>
    
      <clipPath id="make-me-a-hanzi-clip-2">
        <path d="M 361 326 L 395 332 L 430 337 L 492 346 L 526 350 Q 534 352 534 358 Q 534 364 526 370 Q 518 376 509 379 Q 500 382 488 383 Q 476 384 466 384 Q 455 384 442 382 L 408 374 Q 407 373 396 371 L 375 367 L 326 358 L 302 353 Q 296 352 276 348 Q 256 344 204 336 Q 152 327 132 324 Q 112 321 92 319 L 74 317 Q 64 316 64 308 L 64 306 Q 64 299 75 292 Q 88 284 94 280 Q 100 276 112 273 Q 122 270 130 270 L 134 270 Q 140 270 156 277 Q 171 283 189 288 Q 206 294 232 300 L 274 310 Q 291 314 314 318 L 361 326 Z"></path>
      </clipPath>
      <path clip-path="url(#make-me-a-hanzi-clip-2)" d="M 74 307 L 133 297 L 441 360 L 491 365 L 524 360" fill="none" id="make-me-a-hanzi-animation-2" stroke-dasharray="586 1172" stroke-linecap="round"></path>
    
      <clipPath id="make-me-a-hanzi-clip-3">
        <path d="M 371 95 L 374 184 L 376 218 L 378 241 Q 378 248 380 264 Q 383 279 386 288 Q 388 295 388 300 L 388 303 Q 388 308 381 314 Q 374 320 361 326 C 334 339 305 347 314 318 L 320 299 Q 320 296 321 289 Q 322 282 324 261 Q 324 240 325 234 L 326 205 L 326 199 L 326 118 C 326 88 370 65 371 95 Z"></path>
      </clipPath>
      <path clip-path="url(#make-me-a-hanzi-clip-3)" d="M 322 315 L 354 292 L 349 138 L 368 103" fill="none" id="make-me-a-hanzi-animation-3" stroke-dasharray="361 722" stroke-linecap="round"></path>
    
      <clipPath id="make-me-a-hanzi-clip-4">
        <path d="M 374 184 L 396 186 Q 399 186 411 188 L 446 194 Q 466 196 474 199 L 487 204 Q 497 206 498 212 Q 498 218 491 225 Q 484 231 472 236 Q 458 241 452 241 Q 446 240 433 236 Q 420 230 406 227 Q 394 223 376 218 C 347 210 344 181 374 184 Z"></path>
      </clipPath>
      <path clip-path="url(#make-me-a-hanzi-clip-4)" d="M 379 189 L 394 204 L 445 217 L 488 215" fill="none" id="make-me-a-hanzi-animation-4" stroke-dasharray="245 490" stroke-linecap="round"></path>
    
      <clipPath id="make-me-a-hanzi-clip-5">
        <path d="M 248 160 L 266 182 L 276 192 Q 277 194 277 195 Q 277 200 272 207 Q 266 216 254 225 Q 242 234 231 238 Q 220 243 215 244 Q 210 246 205 246 Q 199 245 196 242 Q 194 240 194 234 L 192 208 Q 190 194 183 171 Q 176 148 168 128 Q 160 110 136 72 Q 112 34 104 23 L 73 -12 L 58 -29 Q 50 -40 50 -43 L 50 -44 Q 52 -47 55 -47 L 56 -47 Q 60 -47 69 -41 L 95 -24 Q 104 -18 124 -1 Q 144 16 164 38 Q 184 60 198 82 Q 212 103 218 114 Q 224 124 234 138 L 248 160 Z"></path>
      </clipPath>
      <path clip-path="url(#make-me-a-hanzi-clip-5)" d="M 204 236 L 228 196 L 189 113 L 119 15 L 54 -43" fill="none" id="make-me-a-hanzi-animation-5" stroke-dasharray="474 948" stroke-linecap="round"></path>
    
      <clipPath id="make-me-a-hanzi-clip-6">
        <path d="M 234 138 L 251 128 L 288 104 L 405 26 Q 486 -28 564 -74 Q 643 -119 674 -129 Q 706 -138 734 -138 Q 748 -138 782 -132 L 865 -118 L 950 -102 L 972 -98 Q 978 -98 979 -90 Q 979 -82 969 -80 L 946 -78 L 846 -65 Q 754 -52 685 -35 Q 616 -17 555 8 Q 494 32 452 53 L 398 80 Q 386 86 371 95 L 326 118 L 303 130 L 276 146 Q 266 150 248 160 C 221 174 208 153 234 138 Z"></path>
      </clipPath>
      <path clip-path="url(#make-me-a-hanzi-clip-6)" d="M 241 141 L 253 142 L 521 -12 L 681 -82 L 743 -93 L 970 -89" fill="none" id="make-me-a-hanzi-animation-6" stroke-dasharray="914 1828" stroke-linecap="round"></path>
    
      <clipPath id="make-me-a-hanzi-clip-7">
        <path d="M 579 628 L 561 632 Q 548 634 538 636 Q 528 636 526 633 Q 522 630 522 627 Q 522 624 524 620 L 536 611 Q 540 607 545 598 Q 550 588 552 574 L 572 451 Q 574 438 578 428 Q 582 418 586 414 Q 591 409 595 409 L 596 409 Q 600 410 602 414 Q 606 417 610 422 C 612 424 612 424 610 449 L 604 515 L 602 536 L 596 602 C 594 625 594 625 579 628 Z"></path>
      </clipPath>
      <path clip-path="url(#make-me-a-hanzi-clip-7)" d="M 531 626 L 561 611 L 573 593 L 596 416" fill="none" id="make-me-a-hanzi-animation-7" stroke-dasharray="362 724" stroke-linecap="round"></path>
    
      <clipPath id="make-me-a-hanzi-clip-8">
        <path d="M 774 436 L 778 426 Q 779 422 787 420 Q 789 419 791 419 Q 795 419 800 422 Q 808 426 814 436 Q 820 446 824 458 L 855 564 Q 858 574 862 584 Q 866 595 873 604 L 880 614 Q 883 620 883 626 L 883 629 Q 882 635 874 642 Q 867 650 855 657 Q 843 665 828 672 Q 814 679 804 679 L 802 679 Q 798 678 783 672 Q 768 665 748 659 Q 726 654 708 649 Q 690 644 662 640 L 579 628 C 549 624 567 595 596 602 L 640 612 Q 650 614 675 620 Q 701 624 722 628 L 758 632 Q 776 634 784 634 Q 798 634 800 629 Q 804 624 804 622 Q 804 620 803 611 L 798 571 L 795 552 L 792 535 L 786 503 Q 784 494 777 458 C 773 438 773 438 774 436 Z"></path>
      </clipPath>
      <path clip-path="url(#make-me-a-hanzi-clip-8)" d="M 587 624 L 602 618 L 630 622 L 797 655 L 823 645 L 840 619 L 792 431" fill="none" id="make-me-a-hanzi-animation-8" stroke-dasharray="596 1192" stroke-linecap="round"></path>
    
      <clipPath id="make-me-a-hanzi-clip-9">
        <path d="M 795 552 L 780 560 Q 776 561 766 564 Q 756 566 753 566 Q 751 566 745 563 Q 738 561 716 557 L 671 545 Q 664 544 640 540 Q 615 536 612 536 L 602 536 C 572 536 575 523 604 515 L 618 511 Q 623 509 632 509 L 639 509 Q 647 509 664 512 Q 681 516 718 521 Q 756 526 768 529 L 782 532 L 792 535 C 814 542 814 542 795 552 Z"></path>
      </clipPath>
      <path clip-path="url(#make-me-a-hanzi-clip-9)" d="M 607 531 L 616 524 L 643 524 L 788 549" fill="none" id="make-me-a-hanzi-animation-9" stroke-dasharray="314 628" stroke-linecap="round"></path>
    
      <clipPath id="make-me-a-hanzi-clip-10">
        <path d="M 610 422 L 626 421 L 631 421 Q 641 421 666 424 L 722 431 Q 746 433 774 436 C 804 439 805 447 777 458 L 761 464 Q 754 466 744 466 Q 733 466 715 462 Q 696 460 672 456 Q 647 454 639 452 Q 630 452 610 449 C 580 445 580 424 610 422 Z"></path>
      </clipPath>
      <path clip-path="url(#make-me-a-hanzi-clip-10)" d="M 614 429 L 634 437 L 771 453" fill="none" id="make-me-a-hanzi-animation-10" stroke-dasharray="287 574" stroke-linecap="round"></path>
    
      <clipPath id="make-me-a-hanzi-clip-11">
        <path d="M 724 331 L 748 335 Q 759 336 780 340 Q 802 343 806 344 L 824 347 Q 835 348 841 353 Q 846 358 846 361 Q 846 365 838 370 Q 829 376 822 378 Q 814 381 804 384 Q 792 386 788 386 Q 785 386 777 383 Q 768 380 747 374 Q 726 369 723 368 Q 720 368 695 363 L 658 356 Q 648 354 618 350 Q 588 345 579 345 L 566 344 Q 558 344 557 340 L 557 339 Q 557 335 561 330 Q 566 326 574 322 L 595 316 Q 609 314 620 314 Q 624 314 633 315 Q 642 316 667 322 L 724 331 Z"></path>
      </clipPath>
      <path clip-path="url(#make-me-a-hanzi-clip-11)" d="M 563 340 L 583 332 L 625 332 L 796 364 L 837 361" fill="none" id="make-me-a-hanzi-animation-11" stroke-dasharray="407 814" stroke-linecap="round"></path>
    
      <clipPath id="make-me-a-hanzi-clip-12">
        <path d="M 672 252 L 654 249 L 616 244 L 580 240 L 538 236 L 522 235 Q 514 234 512 230 Q 511 229 511 228 Q 511 225 514 222 Q 518 216 526 210 Q 534 204 548 199 Q 558 196 565 196 L 569 196 Q 573 196 586 200 Q 598 204 617 209 Q 636 213 646 214 Q 656 216 672 218 L 720 225 L 739 227 Q 747 228 773 230 Q 791 231 809 231 L 827 231 Q 854 231 874 230 L 894 228 Q 900 227 905 227 Q 918 227 923 231 Q 930 236 930 240 Q 930 246 924 252 Q 918 259 910 264 Q 903 270 890 275 Q 879 279 868 279 L 864 279 Q 858 278 844 276 Q 829 272 798 268 L 754 262 Q 742 261 721 258 L 672 252 Z"></path>
      </clipPath>
      <path clip-path="url(#make-me-a-hanzi-clip-12)" d="M 516 227 L 567 217 L 717 242 L 864 255 L 918 242" fill="none" id="make-me-a-hanzi-animation-12" stroke-dasharray="535 1070" stroke-linecap="round"></path>
    
      <clipPath id="make-me-a-hanzi-clip-13">
        <path d="M 667 322 L 670 308 L 670 290 Q 672 275 672 270 L 672 252 L 672 218 L 670 118 Q 670 102 671 80 Q 672 56 674 42 Q 674 26 678 16 Q 680 4 686 4 L 687 4 Q 691 4 697 18 Q 703 32 707 57 L 712 88 Q 714 107 716 139 Q 716 171 717 185 Q 718 200 720 225 L 721 258 L 722 274 Q 722 280 723 286 Q 724 294 728 305 Q 731 312 731 316 L 731 318 Q 731 322 724 331 C 707 356 661 351 667 322 Z"></path>
      </clipPath>
      <path clip-path="url(#make-me-a-hanzi-clip-13)" d="M 718 320 L 698 299 L 696 287 L 687 9" fill="none" id="make-me-a-hanzi-animation-13" stroke-dasharray="447 894" stroke-linecap="round"></path>
    
  </g>
</svg>