<svg xmlns="http://www.w3.org/2000/svg" version="1.1" viewBox="0 0 1024 1024">
  <g stroke="lightgray" stroke-dasharray="1,1" stroke-width="1" transform="scale(4, 4)">
    <line x1="0" y1="0" x2="256" y2="256" />
    <line x1="256" y1="0" x2="0" y2="256" />
    <line x1="128" y1="0" x2="128" y2="256" />
    <line x1="0" y1="128" x2="256" y2="128" />
  </g>
  <g transform="scale(1.0, -1.0) translate(0.0, -772.50)">
    <style type="text/css">
      
        @keyframes keyframes0 {
          from {
            stroke: blue;
            stroke-dashoffset: 454;
            stroke-width: 128;
          }
          60% {
            animation-timing-function: step-end;
            stroke: blue;
            stroke-dashoffset: 0;
            stroke-width: 128;
          }
          to {
            stroke: black;
            stroke-width: 1024;
          }
        }
        #make-me-a-hanzi-animation-0 {
          animation: keyframes0 0.6194661458333334s both;
          animation-delay: 0s;
          animation-timing-function: linear;
        }
      
        @keyframes keyframes1 {
          from {
            stroke: blue;
            stroke-dashoffset: 562;
            stroke-width: 128;
          }
          65% {
            animation-timing-function: step-end;
            stroke: blue;
            stroke-dashoffset: 0;
            stroke-width: 128;
          }
          to {
            stroke: black;
            stroke-width: 1024;
          }
        }
        #make-me-a-hanzi-animation-1 {
          animation: keyframes1 0.7073567708333334s both;
          animation-delay: 0.6194661458333334s;
          animation-timing-function: linear;
        }
      
        @keyframes keyframes2 {
          from {
            stroke: blue;
            stroke-dashoffset: 386;
            stroke-width: 128;
          }
          56% {
            animation-timing-function: step-end;
            stroke: blue;
            stroke-dashoffset: 0;
            stroke-width: 128;
          }
          to {
            stroke: black;
            stroke-width: 1024;
          }
        }
        #make-me-a-hanzi-animation-2 {
          animation: keyframes2 0.5641276041666666s both;
          animation-delay: 1.3268229166666667s;
          animation-timing-function: linear;
        }
      
        @keyframes keyframes3 {
          from {
            stroke: blue;
            stroke-dashoffset: 540;
            stroke-width: 128;
          }
          64% {
            animation-timing-function: step-end;
            stroke: blue;
            stroke-dashoffset: 0;
            stroke-width: 128;
          }
          to {
            stroke: black;
            stroke-width: 1024;
          }
        }
        #make-me-a-hanzi-animation-3 {
          animation: keyframes3 0.689453125s both;
          animation-delay: 1.8909505208333335s;
          animation-timing-function: linear;
        }
      
        @keyframes keyframes4 {
          from {
            stroke: blue;
            stroke-dashoffset: 340;
            stroke-width: 128;
          }
          53% {
            animation-timing-function: step-end;
            stroke: blue;
            stroke-dashoffset: 0;
            stroke-width: 128;
          }
          to {
            stroke: black;
            stroke-width: 1024;
          }
        }
        #make-me-a-hanzi-animation-4 {
          animation: keyframes4 0.5266927083333334s both;
          animation-delay: 2.5804036458333335s;
          animation-timing-function: linear;
        }
      
        @keyframes keyframes5 {
          from {
            stroke: blue;
            stroke-dashoffset: 467;
            stroke-width: 128;
          }
          60% {
            animation-timing-function: step-end;
            stroke: blue;
            stroke-dashoffset: 0;
            stroke-width: 128;
          }
          to {
            stroke: black;
            stroke-width: 1024;
          }
        }
        #make-me-a-hanzi-animation-5 {
          animation: keyframes5 0.6300455729166666s both;
          animation-delay: 3.107096354166667s;
          animation-timing-function: linear;
        }
      
        @keyframes keyframes6 {
          from {
            stroke: blue;
            stroke-dashoffset: 600;
            stroke-width: 128;
          }
          66% {
            animation-timing-function: step-end;
            stroke: blue;
            stroke-dashoffset: 0;
            stroke-width: 128;
          }
          to {
            stroke: black;
            stroke-width: 1024;
          }
        }
        #make-me-a-hanzi-animation-6 {
          animation: keyframes6 0.73828125s both;
          animation-delay: 3.7371419270833335s;
          animation-timing-function: linear;
        }
      
        @keyframes keyframes7 {
          from {
            stroke: blue;
            stroke-dashoffset: 373;
            stroke-width: 128;
          }
          55% {
            animation-timing-function: step-end;
            stroke: blue;
            stroke-dashoffset: 0;
            stroke-width: 128;
          }
          to {
            stroke: black;
            stroke-width: 1024;
          }
        }
        #make-me-a-hanzi-animation-7 {
          animation: keyframes7 0.5535481770833334s both;
          animation-delay: 4.475423177083334s;
          animation-timing-function: linear;
        }
      
        @keyframes keyframes8 {
          from {
            stroke: blue;
            stroke-dashoffset: 478;
            stroke-width: 128;
          }
          61% {
            animation-timing-function: step-end;
            stroke: blue;
            stroke-dashoffset: 0;
            stroke-width: 128;
          }
          to {
            stroke: black;
            stroke-width: 1024;
          }
        }
        #make-me-a-hanzi-animation-8 {
          animation: keyframes8 0.6389973958333334s both;
          animation-delay: 5.028971354166667s;
          animation-timing-function: linear;
        }
      
        @keyframes keyframes9 {
          from {
            stroke: blue;
            stroke-dashoffset: 486;
            stroke-width: 128;
          }
          61% {
            animation-timing-function: step-end;
            stroke: blue;
            stroke-dashoffset: 0;
            stroke-width: 128;
          }
          to {
            stroke: black;
            stroke-width: 1024;
          }
        }
        #make-me-a-hanzi-animation-9 {
          animation: keyframes9 0.6455078125s both;
          animation-delay: 5.66796875s;
          animation-timing-function: linear;
        }
      
        @keyframes keyframes10 {
          from {
            stroke: blue;
            stroke-dashoffset: 555;
            stroke-width: 128;
          }
          64% {
            animation-timing-function: step-end;
            stroke: blue;
            stroke-dashoffset: 0;
            stroke-width: 128;
          }
          to {
            stroke: black;
            stroke-width: 1024;
          }
        }
        #make-me-a-hanzi-animation-10 {
          animation: keyframes10 0.70166015625s both;
          animation-delay: 6.3134765625s;
          animation-timing-function: linear;
        }
      
        @keyframes keyframes11 {
          from {
            stroke: blue;
            stroke-dashoffset: 756;
            stroke-width: 128;
          }
          71% {
            animation-timing-function: step-end;
            stroke: blue;
            stroke-dashoffset: 0;
            stroke-width: 128;
          }
          to {
            stroke: black;
            stroke-width: 1024;
          }
        }
        #make-me-a-hanzi-animation-11 {
          animation: keyframes11 0.865234375s both;
          animation-delay: 7.01513671875s;
          animation-timing-function: linear;
        }
      
        @keyframes keyframes12 {
          from {
            stroke: blue;
            stroke-dashoffset: 430;
            stroke-width: 128;
          }
          58% {
            animation-timing-function: step-end;
            stroke: blue;
            stroke-dashoffset: 0;
            stroke-width: 128;
          }
          to {
            stroke: black;
            stroke-width: 1024;
          }
        }
        #make-me-a-hanzi-animation-12 {
          animation: keyframes12 0.5999348958333334s both;
          animation-delay: 7.88037109375s;
          animation-timing-function: linear;
        }
      
        @keyframes keyframes13 {
          from {
            stroke: blue;
            stroke-dashoffset: 949;
            stroke-width: 128;
          }
          76% {
            animation-timing-function: step-end;
            stroke: blue;
            stroke-dashoffset: 0;
            stroke-width: 128;
          }
          to {
            stroke: black;
            stroke-width: 1024;
          }
        }
        #make-me-a-hanzi-animation-13 {
          animation: keyframes13 1.0222981770833333s both;
          animation-delay: 8.480305989583334s;
          animation-timing-function: linear;
        }
      
        @keyframes keyframes14 {
          from {
            stroke: blue;
            stroke-dashoffset: 963;
            stroke-width: 128;
          }
          76% {
            animation-timing-function: step-end;
            stroke: blue;
            stroke-dashoffset: 0;
            stroke-width: 128;
          }
          to {
            stroke: black;
            stroke-width: 1024;
          }
        }
        #make-me-a-hanzi-animation-14 {
          animation: keyframes14 1.03369140625s both;
          animation-delay: 9.502604166666668s;
          animation-timing-function: linear;
        }
      
    </style>
    
      <path d="M 103 555 Q 91 555 91 543 Q 92 540 101 531 Q 120 517 159 392 Q 170 362 183 362 Q 195 362 196 385 L 191 408 L 175 499 Q 173 510 169 519 L 150 544 Q 130 554 103 555 Z" fill="lightgray" />
    
      <path d="M 312 437 Q 323 453 341 488 Q 356 518 369 526 Q 384 531 384 543 Q 384 552 356 573 Q 328 591 315 591 Q 314 591 304 587 Q 297 582 247 569 Q 181 550 150 544 C 121 538 140 512 169 519 Q 174 519 230 537 Q 262 547 275 547 Q 296 547 296 530 Q 290 482 283 458 Q 280 445 280 438 L 280 434 C 279 404 296 412 312 437 Z" fill="lightgray" />
    
      <path d="M 196 385 Q 201 383 208 383 Q 211 384 214 384 L 254 392 Q 292 399 332 406 Q 340 410 340 415 Q 340 424 326 433 Q 321 435 312 437 L 280 434 Q 256 427 191 408 C 162 400 167 393 196 385 Z" fill="lightgray" />
    
      <path d="M 214 384 Q 227 301 231 102 C 232 72 271 87 271 117 L 271 263 L 271 291 L 271 366 Q 271 378 254 392 C 232 412 210 414 214 384 Z" fill="lightgray" />
    
      <path d="M 271 263 Q 288 259 303 259 Q 311 259 364 274 Q 376 279 376 295 Q 376 313 340 314 Q 334 314 326 311 Q 296 299 271 291 C 242 282 242 270 271 263 Z" fill="lightgray" />
    
      <path d="M 174 83 Q 173 100 170 148 Q 168 204 168 243 Q 168 247 169 254 Q 171 261 171 263 Q 171 272 141 281 Q 117 291 108 291 Q 95 291 95 278 Q 95 275 100 262 Q 120 219 145 75 C 150 45 176 53 174 83 Z" fill="lightgray" />
    
      <path d="M 231 102 Q 201 91 174 83 L 145 75 Q 101 61 77 58 Q 51 56 51 47 Q 51 37 77 13 Q 109 -13 131 -13 Q 135 -13 162 11 Q 208 44 343 115 Q 384 135 384 146 Q 384 154 372 154 Q 367 154 311 131 Q 291 123 271 117 L 231 102 Z" fill="lightgray" />
    
      <path d="M 391 610 Q 387 610 387 606 Q 387 603 400 573 Q 435 494 456 494 Q 479 494 479 538 Q 479 565 443 587 Q 401 610 391 610 Z" fill="lightgray" />
    
      <path d="M 584 675 Q 580 675 578 671 Q 575 667 575 662 Q 575 641 566 598 Q 553 540 536 494 Q 528 477 525 465 C 517 436 536 456 556 478 Q 580 503 601 540 Q 624 586 643 617 Q 651 628 651 635 Q 651 647 617 663 Q 594 675 584 675 Z" fill="lightgray" />
    
      <path d="M 525 465 Q 483 449 403 434 Q 391 433 391 427 Q 391 419 414 411 Q 438 402 460 402 Q 465 402 474 405 L 524 419 Q 544 424 571 431 Q 595 434 622 444 Q 635 450 636 463 Q 633 481 571 482 Q 566 482 556 478 L 525 465 Z" fill="lightgray" />
    
      <path d="M 482 278 Q 459 272 437 267 Q 410 261 380 259 Q 356 259 355 247 Q 356 243 370 237 Q 393 228 416 226 Q 425 226 445 233 Q 461 237 479 241 L 526 252 Q 542 255 560 259 Q 601 265 651 266 Q 672 266 672 282 Q 672 295 654 305 Q 637 314 615 314 Q 598 314 581 308 Q 556 300 532 293 L 482 278 Z" fill="lightgray" />
    
      <path d="M 474 405 Q 475 404 475 403 Q 483 366 483 306 Q 483 294 482 278 L 479 241 Q 471 183 447 133 Q 409 52 356 8 Q 319 -23 319 -26 Q 319 -30 332 -30 Q 376 -30 444 53 Q 504 129 526 252 L 532 293 Q 543 362 545 377 Q 552 384 552 387 Q 552 397 524 419 C 501 438 467 434 474 405 Z" fill="lightgray" />
    
      <path d="M 540 171 Q 536 171 536 163 Q 536 158 559 127 Q 582 95 611 46 Q 632 10 647 10 Q 668 10 668 39 Q 668 66 648 96 Q 626 135 588 154 Q 554 171 540 171 Z" fill="lightgray" />
    
      <path d="M 859 595 Q 856 595 843 584 Q 825 564 794 556 L 728 538 C 699 530 717 504 746 511 L 827 530 Q 836 530 836 515 Q 836 508 805 430 Q 787 385 787 375 Q 787 367 806 353 Q 834 335 856 292 Q 880 252 880 219 Q 880 194 855 194 Q 848 194 796 203 Q 787 203 787 198 Q 787 195 798 189 Q 874 131 893 108 Q 899 102 903 102 Q 918 102 931 128 Q 943 158 943 186 Q 943 239 921 283 Q 897 324 846 363 Q 823 377 823 379 Q 823 392 831 402 Q 832 403 882 480 Q 911 519 930 531 Q 939 543 939 555 Q 939 561 907 579 Q 878 595 859 595 Z" fill="lightgray" />
    
      <path d="M 728 538 Q 724 542 719 546 Q 699 559 683 559 Q 672 559 672 551 Q 672 548 678 527 Q 689 489 691 430 L 691 -114 Q 695 -154 708 -154 Q 718 -154 730 -100 Q 739 -31 739 97 L 739 475 Q 739 482 746 511 C 749 523 749 523 728 538 Z" fill="lightgray" />
    
    
      <clipPath id="make-me-a-hanzi-clip-0">
        <path d="M 103 555 Q 91 555 91 543 Q 92 540 101 531 Q 120 517 159 392 Q 170 362 183 362 Q 195 362 196 385 L 191 408 L 175 499 Q 173 510 169 519 L 150 544 Q 130 554 103 555 Z" />
      </clipPath>
      <path clip-path="url(#make-me-a-hanzi-clip-0)" d="M 102 545 L 128 531 L 144 510 L 183 373" fill="none" id="make-me-a-hanzi-animation-0" stroke-dasharray="326 652" stroke-linecap="round" />
    
      <clipPath id="make-me-a-hanzi-clip-1">
        <path d="M 312 437 Q 323 453 341 488 Q 356 518 369 526 Q 384 531 384 543 Q 384 552 356 573 Q 328 591 315 591 Q 314 591 304 587 Q 297 582 247 569 Q 181 550 150 544 C 121 538 140 512 169 519 Q 174 519 230 537 Q 262 547 275 547 Q 296 547 296 530 Q 290 482 283 458 Q 280 445 280 438 L 280 434 C 279 404 296 412 312 437 Z" />
      </clipPath>
      <path clip-path="url(#make-me-a-hanzi-clip-1)" d="M 156 539 L 174 534 L 261 561 L 299 563 L 320 557 L 332 544 L 329 531 L 303 459 L 285 436" fill="none" id="make-me-a-hanzi-animation-1" stroke-dasharray="434 868" stroke-linecap="round" />
    
      <clipPath id="make-me-a-hanzi-clip-2">
        <path d="M 196 385 Q 201 383 208 383 Q 211 384 214 384 L 254 392 Q 292 399 332 406 Q 340 410 340 415 Q 340 424 326 433 Q 321 435 312 437 L 280 434 Q 256 427 191 408 C 162 400 167 393 196 385 Z" />
      </clipPath>
      <path clip-path="url(#make-me-a-hanzi-clip-2)" d="M 203 393 L 280 416 L 330 416" fill="none" id="make-me-a-hanzi-animation-2" stroke-dasharray="258 516" stroke-linecap="round" />
    
      <clipPath id="make-me-a-hanzi-clip-3">
        <path d="M 214 384 Q 227 301 231 102 C 232 72 271 87 271 117 L 271 263 L 271 291 L 271 366 Q 271 378 254 392 C 232 412 210 414 214 384 Z" />
      </clipPath>
      <path clip-path="url(#make-me-a-hanzi-clip-3)" d="M 222 380 L 245 359 L 246 344 L 251 139 L 246 123 L 234 113" fill="none" id="make-me-a-hanzi-animation-3" stroke-dasharray="412 824" stroke-linecap="round" />
    
      <clipPath id="make-me-a-hanzi-clip-4">
        <path d="M 271 263 Q 288 259 303 259 Q 311 259 364 274 Q 376 279 376 295 Q 376 313 340 314 Q 334 314 326 311 Q 296 299 271 291 C 242 282 242 270 271 263 Z" />
      </clipPath>
      <path clip-path="url(#make-me-a-hanzi-clip-4)" d="M 278 270 L 289 278 L 358 294" fill="none" id="make-me-a-hanzi-animation-4" stroke-dasharray="212 424" stroke-linecap="round" />
    
      <clipPath id="make-me-a-hanzi-clip-5">
        <path d="M 174 83 Q 173 100 170 148 Q 168 204 168 243 Q 168 247 169 254 Q 171 261 171 263 Q 171 272 141 281 Q 117 291 108 291 Q 95 291 95 278 Q 95 275 100 262 Q 120 219 145 75 C 150 45 176 53 174 83 Z" />
      </clipPath>
      <path clip-path="url(#make-me-a-hanzi-clip-5)" d="M 106 280 L 138 250 L 158 95 L 150 87" fill="none" id="make-me-a-hanzi-animation-5" stroke-dasharray="339 678" stroke-linecap="round" />
    
      <clipPath id="make-me-a-hanzi-clip-6">
        <path d="M 231 102 Q 201 91 174 83 L 145 75 Q 101 61 77 58 Q 51 56 51 47 Q 51 37 77 13 Q 109 -13 131 -13 Q 135 -13 162 11 Q 208 44 343 115 Q 384 135 384 146 Q 384 154 372 154 Q 367 154 311 131 Q 291 123 271 117 L 231 102 Z" />
      </clipPath>
      <path clip-path="url(#make-me-a-hanzi-clip-6)" d="M 60 46 L 123 28 L 375 146" fill="none" id="make-me-a-hanzi-animation-6" stroke-dasharray="472 944" stroke-linecap="round" />
    
      <clipPath id="make-me-a-hanzi-clip-7">
        <path d="M 391 610 Q 387 610 387 606 Q 387 603 400 573 Q 435 494 456 494 Q 479 494 479 538 Q 479 565 443 587 Q 401 610 391 610 Z" />
      </clipPath>
      <path clip-path="url(#make-me-a-hanzi-clip-7)" d="M 392 605 L 444 550 L 457 511" fill="none" id="make-me-a-hanzi-animation-7" stroke-dasharray="245 490" stroke-linecap="round" />
    
      <clipPath id="make-me-a-hanzi-clip-8">
        <path d="M 584 675 Q 580 675 578 671 Q 575 667 575 662 Q 575 641 566 598 Q 553 540 536 494 Q 528 477 525 465 C 517 436 536 456 556 478 Q 580 503 601 540 Q 624 586 643 617 Q 651 628 651 635 Q 651 647 617 663 Q 594 675 584 675 Z" />
      </clipPath>
      <path clip-path="url(#make-me-a-hanzi-clip-8)" d="M 586 665 L 608 628 L 565 517 L 551 492 L 528 471" fill="none" id="make-me-a-hanzi-animation-8" stroke-dasharray="350 700" stroke-linecap="round" />
    
      <clipPath id="make-me-a-hanzi-clip-9">
        <path d="M 525 465 Q 483 449 403 434 Q 391 433 391 427 Q 391 419 414 411 Q 438 402 460 402 Q 465 402 474 405 L 524 419 Q 544 424 571 431 Q 595 434 622 444 Q 635 450 636 463 Q 633 481 571 482 Q 566 482 556 478 L 525 465 Z" />
      </clipPath>
      <path clip-path="url(#make-me-a-hanzi-clip-9)" d="M 399 427 L 463 424 L 570 457 L 624 461" fill="none" id="make-me-a-hanzi-animation-9" stroke-dasharray="358 716" stroke-linecap="round" />
    
      <clipPath id="make-me-a-hanzi-clip-10">
        <path d="M 482 278 Q 459 272 437 267 Q 410 261 380 259 Q 356 259 355 247 Q 356 243 370 237 Q 393 228 416 226 Q 425 226 445 233 Q 461 237 479 241 L 526 252 Q 542 255 560 259 Q 601 265 651 266 Q 672 266 672 282 Q 672 295 654 305 Q 637 314 615 314 Q 598 314 581 308 Q 556 300 532 293 L 482 278 Z" />
      </clipPath>
      <path clip-path="url(#make-me-a-hanzi-clip-10)" d="M 362 249 L 419 245 L 602 289 L 655 282" fill="none" id="make-me-a-hanzi-animation-10" stroke-dasharray="427 854" stroke-linecap="round" />
    
      <clipPath id="make-me-a-hanzi-clip-11">
        <path d="M 474 405 Q 475 404 475 403 Q 483 366 483 306 Q 483 294 482 278 L 479 241 Q 471 183 447 133 Q 409 52 356 8 Q 319 -23 319 -26 Q 319 -30 332 -30 Q 376 -30 444 53 Q 504 129 526 252 L 532 293 Q 543 362 545 377 Q 552 384 552 387 Q 552 397 524 419 C 501 438 467 434 474 405 Z" />
      </clipPath>
      <path clip-path="url(#make-me-a-hanzi-clip-11)" d="M 484 399 L 512 377 L 512 359 L 500 230 L 479 155 L 455 104 L 411 38 L 363 -6 L 329 -23" fill="none" id="make-me-a-hanzi-animation-11" stroke-dasharray="628 1256" stroke-linecap="round" />
    
      <clipPath id="make-me-a-hanzi-clip-12">
        <path d="M 540 171 Q 536 171 536 163 Q 536 158 559 127 Q 582 95 611 46 Q 632 10 647 10 Q 668 10 668 39 Q 668 66 648 96 Q 626 135 588 154 Q 554 171 540 171 Z" />
      </clipPath>
      <path clip-path="url(#make-me-a-hanzi-clip-12)" d="M 543 164 L 607 106 L 648 28" fill="none" id="make-me-a-hanzi-animation-12" stroke-dasharray="302 604" stroke-linecap="round" />
    
      <clipPath id="make-me-a-hanzi-clip-13">
        <path d="M 859 595 Q 856 595 843 584 Q 825 564 794 556 L 728 538 C 699 530 717 504 746 511 L 827 530 Q 836 530 836 515 Q 836 508 805 430 Q 787 385 787 375 Q 787 367 806 353 Q 834 335 856 292 Q 880 252 880 219 Q 880 194 855 194 Q 848 194 796 203 Q 787 203 787 198 Q 787 195 798 189 Q 874 131 893 108 Q 899 102 903 102 Q 918 102 931 128 Q 943 158 943 186 Q 943 239 921 283 Q 897 324 846 363 Q 823 377 823 379 Q 823 392 831 402 Q 832 403 882 480 Q 911 519 930 531 Q 939 543 939 555 Q 939 561 907 579 Q 878 595 859 595 Z" />
      </clipPath>
      <path clip-path="url(#make-me-a-hanzi-clip-13)" d="M 736 537 L 753 529 L 843 551 L 865 551 L 876 543 L 865 505 L 816 414 L 805 377 L 855 333 L 889 286 L 907 242 L 909 192 L 897 164 L 891 164 L 833 179 L 812 188 L 807 197 L 794 196" fill="none" id="make-me-a-hanzi-animation-13" stroke-dasharray="821 1642" stroke-linecap="round" />
    
      <clipPath id="make-me-a-hanzi-clip-14">
        <path d="M 728 538 Q 724 542 719 546 Q 699 559 683 559 Q 672 559 672 551 Q 672 548 678 527 Q 689 489 691 430 L 691 -114 Q 695 -154 708 -154 Q 718 -154 730 -100 Q 739 -31 739 97 L 739 475 Q 739 482 746 511 C 749 523 749 523 728 538 Z" />
      </clipPath>
      <path clip-path="url(#make-me-a-hanzi-clip-14)" d="M 682 549 L 706 523 L 714 493 L 716 69 L 707 -147" fill="none" id="make-me-a-hanzi-animation-14" stroke-dasharray="835 1670" stroke-linecap="round" />
    
  </g>
</svg>