<svg version="1.1" viewBox="0 0 1024 1024" xmlns="http://www.w3.org/2000/svg">
  <g stroke="lightgray" stroke-dasharray="1,1" stroke-width="1" transform="scale(4, 4)">
    <line x1="0" y1="0" x2="256" y2="256"></line>
    <line x1="256" y1="0" x2="0" y2="256"></line>
    <line x1="128" y1="0" x2="128" y2="256"></line>
    <line x1="0" y1="128" x2="256" y2="128"></line>
  </g>
  <g transform="scale(0.92, -0.92) translate(60, -830)">
    <style type="text/css">
      
        @keyframes keyframes0 {
          from {
            stroke: blue;
            stroke-dashoffset: 517;
            stroke-width: 128;
          }
          63% {
            animation-timing-function: step-end;
            stroke: blue;
            stroke-dashoffset: 0;
            stroke-width: 128;
          }
          to {
            stroke: black;
            stroke-width: 1024;
          }
        }
        #make-me-a-hanzi-animation-0 {
          animation: keyframes0 0.6707356770833334s both;
          animation-delay: 0s;
          animation-timing-function: linear;
        }
      
        @keyframes keyframes1 {
          from {
            stroke: blue;
            stroke-dashoffset: 443;
            stroke-width: 128;
          }
          59% {
            animation-timing-function: step-end;
            stroke: blue;
            stroke-dashoffset: 0;
            stroke-width: 128;
          }
          to {
            stroke: black;
            stroke-width: 1024;
          }
        }
        #make-me-a-hanzi-animation-1 {
          animation: keyframes1 0.6105143229166666s both;
          animation-delay: 0.6707356770833334s;
          animation-timing-function: linear;
        }
      
        @keyframes keyframes2 {
          from {
            stroke: blue;
            stroke-dashoffset: 528;
            stroke-width: 128;
          }
          63% {
            animation-timing-function: step-end;
            stroke: blue;
            stroke-dashoffset: 0;
            stroke-width: 128;
          }
          to {
            stroke: black;
            stroke-width: 1024;
          }
        }
        #make-me-a-hanzi-animation-2 {
          animation: keyframes2 0.6796875s both;
          animation-delay: 1.28125s;
          animation-timing-function: linear;
        }
      
        @keyframes keyframes3 {
          from {
            stroke: blue;
            stroke-dashoffset: 449;
            stroke-width: 128;
          }
          59% {
            animation-timing-function: step-end;
            stroke: blue;
            stroke-dashoffset: 0;
            stroke-width: 128;
          }
          to {
            stroke: black;
            stroke-width: 1024;
          }
        }
        #make-me-a-hanzi-animation-3 {
          animation: keyframes3 0.6153971354166666s both;
          animation-delay: 1.9609375s;
          animation-timing-function: linear;
        }
      
        @keyframes keyframes4 {
          from {
            stroke: blue;
            stroke-dashoffset: 448;
            stroke-width: 128;
          }
          59% {
            animation-timing-function: step-end;
            stroke: blue;
            stroke-dashoffset: 0;
            stroke-width: 128;
          }
          to {
            stroke: black;
            stroke-width: 1024;
          }
        }
        #make-me-a-hanzi-animation-4 {
          animation: keyframes4 0.6145833333333334s both;
          animation-delay: 2.5763346354166665s;
          animation-timing-function: linear;
        }
      
        @keyframes keyframes5 {
          from {
            stroke: blue;
            stroke-dashoffset: 769;
            stroke-width: 128;
          }
          71% {
            animation-timing-function: step-end;
            stroke: blue;
            stroke-dashoffset: 0;
            stroke-width: 128;
          }
          to {
            stroke: black;
            stroke-width: 1024;
          }
        }
        #make-me-a-hanzi-animation-5 {
          animation: keyframes5 0.8758138020833334s both;
          animation-delay: 3.19091796875s;
          animation-timing-function: linear;
        }
      
        @keyframes keyframes6 {
          from {
            stroke: blue;
            stroke-dashoffset: 514;
            stroke-width: 128;
          }
          63% {
            animation-timing-function: step-end;
            stroke: blue;
            stroke-dashoffset: 0;
            stroke-width: 128;
          }
          to {
            stroke: black;
            stroke-width: 1024;
          }
        }
        #make-me-a-hanzi-animation-6 {
          animation: keyframes6 0.6682942708333334s both;
          animation-delay: 4.066731770833333s;
          animation-timing-function: linear;
        }
      
        @keyframes keyframes7 {
          from {
            stroke: blue;
            stroke-dashoffset: 484;
            stroke-width: 128;
          }
          61% {
            animation-timing-function: step-end;
            stroke: blue;
            stroke-dashoffset: 0;
            stroke-width: 128;
          }
          to {
            stroke: black;
            stroke-width: 1024;
          }
        }
        #make-me-a-hanzi-animation-7 {
          animation: keyframes7 0.6438802083333334s both;
          animation-delay: 4.735026041666666s;
          animation-timing-function: linear;
        }
      
        @keyframes keyframes8 {
          from {
            stroke: blue;
            stroke-dashoffset: 486;
            stroke-width: 128;
          }
          61% {
            animation-timing-function: step-end;
            stroke: blue;
            stroke-dashoffset: 0;
            stroke-width: 128;
          }
          to {
            stroke: black;
            stroke-width: 1024;
          }
        }
        #make-me-a-hanzi-animation-8 {
          animation: keyframes8 0.6455078125s both;
          animation-delay: 5.378906249999999s;
          animation-timing-function: linear;
        }
      
        @keyframes keyframes9 {
          from {
            stroke: blue;
            stroke-dashoffset: 1158;
            stroke-width: 128;
          }
          79% {
            animation-timing-function: step-end;
            stroke: blue;
            stroke-dashoffset: 0;
            stroke-width: 128;
          }
          to {
            stroke: black;
            stroke-width: 1024;
          }
        }
        #make-me-a-hanzi-animation-9 {
          animation: keyframes9 1.1923828125s both;
          animation-delay: 6.024414062499999s;
          animation-timing-function: linear;
        }
      
        @keyframes keyframes10 {
          from {
            stroke: blue;
            stroke-dashoffset: 559;
            stroke-width: 128;
          }
          65% {
            animation-timing-function: step-end;
            stroke: blue;
            stroke-dashoffset: 0;
            stroke-width: 128;
          }
          to {
            stroke: black;
            stroke-width: 1024;
          }
        }
        #make-me-a-hanzi-animation-10 {
          animation: keyframes10 0.7049153645833334s both;
          animation-delay: 7.216796874999999s;
          animation-timing-function: linear;
        }
      
        @keyframes keyframes11 {
          from {
            stroke: blue;
            stroke-dashoffset: 519;
            stroke-width: 128;
          }
          63% {
            animation-timing-function: step-end;
            stroke: blue;
            stroke-dashoffset: 0;
            stroke-width: 128;
          }
          to {
            stroke: black;
            stroke-width: 1024;
          }
        }
        #make-me-a-hanzi-animation-11 {
          animation: keyframes11 0.67236328125s both;
          animation-delay: 7.921712239583332s;
          animation-timing-function: linear;
        }
      
        @keyframes keyframes12 {
          from {
            stroke: blue;
            stroke-dashoffset: 357;
            stroke-width: 128;
          }
          54% {
            animation-timing-function: step-end;
            stroke: blue;
            stroke-dashoffset: 0;
            stroke-width: 128;
          }
          to {
            stroke: black;
            stroke-width: 1024;
          }
        }
        #make-me-a-hanzi-animation-12 {
          animation: keyframes12 0.54052734375s both;
          animation-delay: 8.594075520833332s;
          animation-timing-function: linear;
        }
      
        @keyframes keyframes13 {
          from {
            stroke: blue;
            stroke-dashoffset: 410;
            stroke-width: 128;
          }
          57% {
            animation-timing-function: step-end;
            stroke: blue;
            stroke-dashoffset: 0;
            stroke-width: 128;
          }
          to {
            stroke: black;
            stroke-width: 1024;
          }
        }
        #make-me-a-hanzi-animation-13 {
          animation: keyframes13 0.5836588541666666s both;
          animation-delay: 9.134602864583332s;
          animation-timing-function: linear;
        }
      
        @keyframes keyframes14 {
          from {
            stroke: blue;
            stroke-dashoffset: 561;
            stroke-width: 128;
          }
          65% {
            animation-timing-function: step-end;
            stroke: blue;
            stroke-dashoffset: 0;
            stroke-width: 128;
          }
          to {
            stroke: black;
            stroke-width: 1024;
          }
        }
        #make-me-a-hanzi-animation-14 {
          animation: keyframes14 0.70654296875s both;
          animation-delay: 9.718261718749998s;
          animation-timing-function: linear;
        }
      
        @keyframes keyframes15 {
          from {
            stroke: blue;
            stroke-dashoffset: 461;
            stroke-width: 128;
          }
          60% {
            animation-timing-function: step-end;
            stroke: blue;
            stroke-dashoffset: 0;
            stroke-width: 128;
          }
          to {
            stroke: black;
            stroke-width: 1024;
          }
        }
        #make-me-a-hanzi-animation-15 {
          animation: keyframes15 0.6251627604166666s both;
          animation-delay: 10.424804687499998s;
          animation-timing-function: linear;
        }
      
        @keyframes keyframes16 {
          from {
            stroke: blue;
            stroke-dashoffset: 378;
            stroke-width: 128;
          }
          55% {
            animation-timing-function: step-end;
            stroke: blue;
            stroke-dashoffset: 0;
            stroke-width: 128;
          }
          to {
            stroke: black;
            stroke-width: 1024;
          }
        }
        #make-me-a-hanzi-animation-16 {
          animation: keyframes16 0.5576171875s both;
          animation-delay: 11.049967447916664s;
          animation-timing-function: linear;
        }
      
        @keyframes keyframes17 {
          from {
            stroke: blue;
            stroke-dashoffset: 385;
            stroke-width: 128;
          }
          56% {
            animation-timing-function: step-end;
            stroke: blue;
            stroke-dashoffset: 0;
            stroke-width: 128;
          }
          to {
            stroke: black;
            stroke-width: 1024;
          }
        }
        #make-me-a-hanzi-animation-17 {
          animation: keyframes17 0.5633138020833334s both;
          animation-delay: 11.607584635416664s;
          animation-timing-function: linear;
        }
      
        @keyframes keyframes18 {
          from {
            stroke: blue;
            stroke-dashoffset: 551;
            stroke-width: 128;
          }
          64% {
            animation-timing-function: step-end;
            stroke: blue;
            stroke-dashoffset: 0;
            stroke-width: 128;
          }
          to {
            stroke: black;
            stroke-width: 1024;
          }
        }
        #make-me-a-hanzi-animation-18 {
          animation: keyframes18 0.6984049479166666s both;
          animation-delay: 12.170898437499998s;
          animation-timing-function: linear;
        }
      
        @keyframes keyframes19 {
          from {
            stroke: blue;
            stroke-dashoffset: 895;
            stroke-width: 128;
          }
          74% {
            animation-timing-function: step-end;
            stroke: blue;
            stroke-dashoffset: 0;
            stroke-width: 128;
          }
          to {
            stroke: black;
            stroke-width: 1024;
          }
        }
        #make-me-a-hanzi-animation-19 {
          animation: keyframes19 0.9783528645833334s both;
          animation-delay: 12.869303385416664s;
          animation-timing-function: linear;
        }
      
    </style>
    
      <path d="M 365 648 L 414 663 Q 424 666 424 672 L 424 673 Q 422 679 413 679 L 410 679 L 361 675 L 316 668 L 244 662 Q 222 660 214 660 Q 207 660 198 661 Q 188 662 180 663 Q 172 664 171 664 L 167 664 Q 164 664 163 663 Q 161 662 160 660 L 160 658 Q 160 654 162 650 Q 164 646 174 637 L 188 624 Q 197 616 207 613 Q 214 611 218 611 L 220 611 Q 223 611 230 614 Q 236 617 247 620 Q 257 624 274 628 L 324 641 L 365 648 Z" fill="lightgray"></path>
    
      <path d="M 324 641 L 339 600 Q 342 589 349 583 Q 355 578 360 578 L 361 578 Q 366 580 368 586 Q 369 591 369 597 L 369 603 L 365 648 L 361 675 L 358 722 L 359 739 Q 358 743 354 745 Q 352 747 344 750 Q 337 753 334 754 Q 330 755 314 758 Q 298 760 292 760 Q 284 758 280 754 Q 279 752 279 750 Q 279 747 280 744 Q 282 740 287 733 Q 292 726 299 712 Q 306 698 308 692 Q 312 684 316 668 L 324 641 Z" fill="lightgray"></path>
    
      <path d="M 573 669 L 598 671 Q 602 671 640 677 L 703 684 L 729 687 Q 742 688 747 689 Q 751 690 756 693 Q 762 696 762 702 Q 762 706 756 712 Q 750 716 739 722 Q 727 728 716 730 Q 706 732 699 732 Q 696 732 689 729 L 664 722 L 630 714 Q 626 712 617 711 Q 608 710 592 706 L 542 698 L 484 689 Q 479 688 479 686 L 479 685 Q 479 682 483 678 Q 488 674 498 672 Q 508 669 515 668 Q 521 667 534 666 L 573 669 Z" fill="lightgray"></path>
    
      <path d="M 534 666 L 522 626 Q 521 619 521 616 L 521 614 Q 522 612 525 610 Q 527 609 529 609 Q 531 609 534 610 Q 540 612 544 618 Q 550 625 556 636 Q 562 647 573 669 L 592 706 L 603 730 L 608 739 L 614 747 Q 618 754 618 759 Q 618 764 608 772 Q 600 780 592 785 Q 584 790 571 794 Q 563 797 558 797 Q 556 797 554 796 Q 548 794 547 790 L 547 786 Q 547 782 548 776 Q 549 769 549 761 L 549 753 Q 548 742 546 730 L 544 712 Q 542 707 542 698 L 534 666 Z" fill="lightgray"></path>
    
      <path d="M 300 566 L 274 571 L 267 571 Q 261 571 260 570 Q 258 568 257 564 Q 257 560 266 550 Q 274 540 278 534 Q 282 527 285 506 L 295 442 Q 296 430 299 418 Q 302 406 307 396 Q 314 383 320 383 L 321 383 Q 327 384 331 391 L 335 399 L 337 426 L 330 474 L 326 498 L 320 545 C 318 563 318 563 300 566 Z" fill="lightgray"></path>
    
      <path d="M 568 416 L 578 398 Q 578 396 582 394 Q 584 392 590 392 Q 596 392 601 394 Q 606 396 610 400 Q 614 404 630 444 L 655 506 Q 662 524 664 527 L 679 551 Q 684 560 684 568 Q 684 576 670 587 Q 656 597 639 604 Q 623 612 612 615 Q 606 617 599 617 Q 595 617 590 616 Q 584 616 573 612 L 549 603 Q 535 599 502 593 Q 470 586 445 582 Q 420 578 398 575 Q 376 572 352 570 Q 328 568 300 566 C 270 564 290 543 320 545 L 358 548 Q 379 550 395 552 Q 410 554 421 556 L 480 566 L 520 571 L 546 574 Q 561 577 571 577 Q 576 577 580 576 Q 592 574 596 569 Q 600 564 600 554 Q 600 546 598 534 L 593 516 L 589 500 L 576 443 C 569 414 567 418 568 416 Z" fill="lightgray"></path>
    
      <path d="M 330 474 L 360 470 Q 361 469 364 469 Q 370 469 385 472 Q 407 476 426 478 L 474 484 L 484 485 Q 517 490 537 491 Q 557 492 564 494 L 580 497 L 589 500 C 611 507 611 507 593 516 L 577 524 Q 572 527 562 529 Q 554 532 549 532 Q 544 531 535 528 Q 525 526 516 523 Q 506 521 496 520 Q 486 518 476 517 L 426 509 L 396 505 Q 381 502 362 501 Q 344 500 326 498 C 296 495 300 478 330 474 Z" fill="lightgray"></path>
    
      <path d="M 335 399 L 348 398 Q 356 398 378 400 Q 400 402 425 405 L 472 410 L 494 412 L 518 414 Q 534 416 568 416 C 598 416 604 433 576 443 L 562 448 Q 554 452 545 452 L 540 452 Q 533 452 522 450 L 494 446 L 472 443 L 425 436 L 395 432 Q 387 431 375 430 Q 362 428 337 426 C 307 424 305 401 335 399 Z" fill="lightgray"></path>
    
      <path d="M 238 332 L 240 342 L 242 355 Q 240 361 230 366 Q 221 371 205 376 Q 192 379 186 379 L 184 379 Q 176 378 176 375 Q 175 374 175 373 Q 175 370 178 367 L 185 356 Q 188 351 190 345 Q 192 338 195 330 L 202 295 L 205 280 Q 206 278 206 270 Q 206 262 205 249 Q 204 224 202 209 Q 200 194 200 188 Q 201 182 204 175 Q 206 168 212 162 Q 218 151 224 151 L 225 151 Q 230 152 236 160 Q 241 168 244 179 Q 246 190 247 208 Q 247 220 245 244 Q 243 268 242 301 L 238 332 Z" fill="lightgray"></path>
    
      <path d="M 425 348 L 410 347 Q 384 344 338 340 Q 292 336 238 332 L 195 330 L 172 329 L 146 328 L 128 328 Q 120 327 118 324 L 118 323 Q 118 320 124 313 Q 133 304 140 300 Q 146 296 155 293 Q 164 290 168 290 Q 170 290 182 292 Q 193 294 202 295 L 242 301 L 315 312 Q 344 317 372 320 Q 400 323 424 326 L 470 330 L 494 332 L 629 342 Q 666 345 689 345 Q 700 345 708 344 Q 724 344 730 340 Q 736 336 739 331 Q 742 326 742 318 L 742 314 Q 742 304 739 288 Q 735 269 732 250 Q 729 230 724 226 Q 718 221 716 220 L 708 220 Q 704 220 685 227 L 676 230 Q 673 231 670 231 Q 666 231 664 229 Q 661 228 661 225 Q 661 223 664 220 L 676 209 Q 683 201 690 190 Q 697 178 700 161 Q 704 144 708 140 Q 713 137 723 137 L 729 137 Q 744 138 757 156 Q 770 174 776 192 Q 784 209 786 223 L 799 282 Q 804 306 810 318 L 821 334 Q 822 339 822 342 Q 822 346 817 351 Q 812 356 791 370 Q 770 384 762 387 Q 754 390 745 390 Q 738 390 716 384 Q 692 378 668 375 Q 644 372 602 366 Q 560 361 544 360 L 512 356 Q 496 355 470 353 L 425 348 Z" fill="lightgray"></path>
    
      <path d="M 425 405 L 425 348 L 424 326 L 424 264 C 424 234 466 238 469 268 L 470 274 L 470 330 L 470 353 L 472 410 L 472 443 L 474 484 L 476 517 L 477 526 L 478 554 Q 478 558 480 566 C 485 596 416 586 421 556 L 424 538 L 424 525 L 426 509 L 426 478 L 425 436 L 425 405 Z" fill="lightgray"></path>
    
      <path d="M 424 264 L 385 260 Q 362 258 345 257 Q 329 257 318 258 L 306 260 Q 298 260 295 257 Q 294 256 294 254 Q 294 251 296 247 Q 299 240 308 232 Q 316 223 323 218 Q 330 212 339 208 Q 346 204 353 204 L 356 204 Q 360 204 370 209 Q 380 214 391 217 L 420 225 Q 437 230 452 234 L 505 244 L 563 256 C 592 262 582 279 552 276 L 469 268 L 424 264 Z" fill="lightgray"></path>
    
      <path d="M 563 256 L 576 237 Q 578 232 584 226 Q 590 219 596 218 L 600 218 Q 607 218 614 225 Q 621 234 622 248 Q 623 252 623 256 Q 623 263 620 269 Q 616 278 607 285 Q 597 292 583 299 Q 570 306 562 308 L 544 313 L 540 313 Q 536 313 534 311 Q 533 310 533 308 Q 533 306 536 304 L 544 292 L 552 276 L 563 256 Z" fill="lightgray"></path>
    
      <path d="M 346 177 L 325 179 L 306 182 Q 298 182 297 179 Q 296 178 296 176 Q 296 175 297 173 Q 298 170 306 165 Q 313 160 319 146 Q 326 132 328 120 L 340 66 Q 342 58 344 51 Q 347 45 350 42 Q 355 38 359 38 L 360 38 Q 364 40 366 46 L 368 54 L 368 82 L 356 154 C 352 176 352 176 346 177 Z" fill="lightgray"></path>
    
      <path d="M 566 90 L 576 104 L 591 129 L 608 150 Q 616 160 618 162 Q 624 170 624 173 Q 624 176 616 183 Q 610 190 594 196 L 574 204 Q 562 209 556 210 Q 552 210 541 206 Q 530 202 506 199 L 478 194 L 346 177 C 316 173 326 150 356 154 L 460 168 L 506 172 Q 520 174 528 174 Q 532 174 534 172 Q 537 170 538 167 Q 539 165 539 162 Q 539 158 538 153 L 530 103 C 525 73 549 66 566 90 Z" fill="lightgray"></path>
    
      <path d="M 470 63 L 490 64 Q 552 69 554 70 L 570 71 Q 578 72 580 76 Q 581 77 581 78 Q 581 82 576 85 Q 571 88 566 90 C 539 103 536 104 530 103 L 368 82 C 338 78 338 54 368 54 L 381 54 Q 392 54 422 58 L 470 63 Z" fill="lightgray"></path>
    
      <path d="M 472 -60 L 473 -38 L 473 -28 Q 474 -22 474 -14 L 478 12 L 482 28 L 487 43 Q 486 49 482 54 Q 477 58 470 63 C 446 81 416 87 422 58 L 425 43 Q 425 42 428 20 Q 430 -2 431 -8 L 434 -53 C 436 -83 471 -90 472 -60 Z" fill="lightgray"></path>
    
      <path d="M 474 -14 L 498 -13 Q 503 -13 521 -11 Q 539 -8 560 -6 Q 581 -4 589 -2 L 604 2 Q 612 3 612 8 L 612 10 Q 612 15 606 19 Q 598 25 586 29 Q 573 32 569 33 Q 564 33 553 29 Q 542 24 520 20 Q 500 16 494 15 Q 489 14 478 12 C 448 7 444 -15 474 -14 Z" fill="lightgray"></path>
    
      <path d="M 298 -24 L 308 -11 Q 315 -2 324 5 Q 333 11 334 14 Q 336 17 336 20 Q 336 22 335 24 Q 333 29 324 36 L 313 48 Q 306 54 295 60 Q 284 66 278 66 Q 274 66 271 64 Q 269 62 267 58 Q 266 54 262 34 Q 258 15 250 -4 Q 242 -23 228 -42 Q 216 -62 199 -79 Q 183 -97 165 -111 Q 148 -125 119 -146 L 110 -152 Q 107 -155 107 -158 Q 107 -159 108 -161 Q 109 -164 112 -164 Q 115 -164 118 -163 L 136 -156 Q 148 -152 178 -137 Q 208 -121 226 -106 Q 244 -90 258 -74 L 284 -42 L 298 -24 Z" fill="lightgray"></path>
    
      <path d="M 434 -53 L 414 -49 Q 406 -48 372 -40 L 324 -30 Q 310 -27 298 -24 C 269 -17 256 -33 284 -42 L 302 -48 Q 354 -64 386 -75 L 478 -105 L 592 -143 Q 645 -162 677 -170 Q 701 -177 720 -177 Q 726 -177 732 -176 Q 746 -176 772 -166 L 838 -141 Q 892 -122 895 -120 L 916 -112 Q 921 -109 921 -105 L 921 -104 Q 921 -98 910 -98 L 880 -96 L 767 -94 Q 712 -93 645 -86 Q 578 -78 552 -74 Q 526 -70 506 -66 Q 486 -62 472 -60 L 434 -53 Z" fill="lightgray"></path>
    
    
      <clipPath id="make-me-a-hanzi-clip-0">
        <path d="M 365 648 L 414 663 Q 424 666 424 672 L 424 673 Q 422 679 413 679 L 410 679 L 361 675 L 316 668 L 244 662 Q 222 660 214 660 Q 207 660 198 661 Q 188 662 180 663 Q 172 664 171 664 L 167 664 Q 164 664 163 663 Q 161 662 160 660 L 160 658 Q 160 654 162 650 Q 164 646 174 637 L 188 624 Q 197 616 207 613 Q 214 611 218 611 L 220 611 Q 223 611 230 614 Q 236 617 247 620 Q 257 624 274 628 L 324 641 L 365 648 Z"></path>
      </clipPath>
      <path clip-path="url(#make-me-a-hanzi-clip-0)" d="M 164 659 L 217 636 L 417 673" fill="none" id="make-me-a-hanzi-animation-0" stroke-dasharray="389 778" stroke-linecap="round"></path>
    
      <clipPath id="make-me-a-hanzi-clip-1">
        <path d="M 324 641 L 339 600 Q 342 589 349 583 Q 355 578 360 578 L 361 578 Q 366 580 368 586 Q 369 591 369 597 L 369 603 L 365 648 L 361 675 L 358 722 L 359 739 Q 358 743 354 745 Q 352 747 344 750 Q 337 753 334 754 Q 330 755 314 758 Q 298 760 292 760 Q 284 758 280 754 Q 279 752 279 750 Q 279 747 280 744 Q 282 740 287 733 Q 292 726 299 712 Q 306 698 308 692 Q 312 684 316 668 L 324 641 Z"></path>
      </clipPath>
      <path clip-path="url(#make-me-a-hanzi-clip-1)" d="M 290 749 L 327 724 L 361 586" fill="none" id="make-me-a-hanzi-animation-1" stroke-dasharray="315 630" stroke-linecap="round"></path>
    
      <clipPath id="make-me-a-hanzi-clip-2">
        <path d="M 573 669 L 598 671 Q 602 671 640 677 L 703 684 L 729 687 Q 742 688 747 689 Q 751 690 756 693 Q 762 696 762 702 Q 762 706 756 712 Q 750 716 739 722 Q 727 728 716 730 Q 706 732 699 732 Q 696 732 689 729 L 664 722 L 630 714 Q 626 712 617 711 Q 608 710 592 706 L 542 698 L 484 689 Q 479 688 479 686 L 479 685 Q 479 682 483 678 Q 488 674 498 672 Q 508 669 515 668 Q 521 667 534 666 L 573 669 Z"></path>
      </clipPath>
      <path clip-path="url(#make-me-a-hanzi-clip-2)" d="M 483 686 L 530 681 L 701 708 L 752 703" fill="none" id="make-me-a-hanzi-animation-2" stroke-dasharray="400 800" stroke-linecap="round"></path>
    
      <clipPath id="make-me-a-hanzi-clip-3">
        <path d="M 534 666 L 522 626 Q 521 619 521 616 L 521 614 Q 522 612 525 610 Q 527 609 529 609 Q 531 609 534 610 Q 540 612 544 618 Q 550 625 556 636 Q 562 647 573 669 L 592 706 L 603 730 L 608 739 L 614 747 Q 618 754 618 759 Q 618 764 608 772 Q 600 780 592 785 Q 584 790 571 794 Q 563 797 558 797 Q 556 797 554 796 Q 548 794 547 790 L 547 786 Q 547 782 548 776 Q 549 769 549 761 L 549 753 Q 548 742 546 730 L 544 712 Q 542 707 542 698 L 534 666 Z"></path>
      </clipPath>
      <path clip-path="url(#make-me-a-hanzi-clip-3)" d="M 555 788 L 581 754 L 545 647 L 526 615" fill="none" id="make-me-a-hanzi-animation-3" stroke-dasharray="321 642" stroke-linecap="round"></path>
    
      <clipPath id="make-me-a-hanzi-clip-4">
        <path d="M 300 566 L 274 571 L 267 571 Q 261 571 260 570 Q 258 568 257 564 Q 257 560 266 550 Q 274 540 278 534 Q 282 527 285 506 L 295 442 Q 296 430 299 418 Q 302 406 307 396 Q 314 383 320 383 L 321 383 Q 327 384 331 391 L 335 399 L 337 426 L 330 474 L 326 498 L 320 545 C 318 563 318 563 300 566 Z"></path>
      </clipPath>
      <path clip-path="url(#make-me-a-hanzi-clip-4)" d="M 264 564 L 292 548 L 301 535 L 321 392" fill="none" id="make-me-a-hanzi-animation-4" stroke-dasharray="320 640" stroke-linecap="round"></path>
    
      <clipPath id="make-me-a-hanzi-clip-5">
        <path d="M 568 416 L 578 398 Q 578 396 582 394 Q 584 392 590 392 Q 596 392 601 394 Q 606 396 610 400 Q 614 404 630 444 L 655 506 Q 662 524 664 527 L 679 551 Q 684 560 684 568 Q 684 576 670 587 Q 656 597 639 604 Q 623 612 612 615 Q 606 617 599 617 Q 595 617 590 616 Q 584 616 573 612 L 549 603 Q 535 599 502 593 Q 470 586 445 582 Q 420 578 398 575 Q 376 572 352 570 Q 328 568 300 566 C 270 564 290 543 320 545 L 358 548 Q 379 550 395 552 Q 410 554 421 556 L 480 566 L 520 571 L 546 574 Q 561 577 571 577 Q 576 577 580 576 Q 592 574 596 569 Q 600 564 600 554 Q 600 546 598 534 L 593 516 L 589 500 L 576 443 C 569 414 567 418 568 416 Z"></path>
      </clipPath>
      <path clip-path="url(#make-me-a-hanzi-clip-5)" d="M 307 563 L 326 556 L 364 559 L 583 595 L 610 590 L 639 561 L 589 405" fill="none" id="make-me-a-hanzi-animation-5" stroke-dasharray="641 1282" stroke-linecap="round"></path>
    
      <clipPath id="make-me-a-hanzi-clip-6">
        <path d="M 330 474 L 360 470 Q 361 469 364 469 Q 370 469 385 472 Q 407 476 426 478 L 474 484 L 484 485 Q 517 490 537 491 Q 557 492 564 494 L 580 497 L 589 500 C 611 507 611 507 593 516 L 577 524 Q 572 527 562 529 Q 554 532 549 532 Q 544 531 535 528 Q 525 526 516 523 Q 506 521 496 520 Q 486 518 476 517 L 426 509 L 396 505 Q 381 502 362 501 Q 344 500 326 498 C 296 495 300 478 330 474 Z"></path>
      </clipPath>
      <path clip-path="url(#make-me-a-hanzi-clip-6)" d="M 333 493 L 342 486 L 366 485 L 587 513" fill="none" id="make-me-a-hanzi-animation-6" stroke-dasharray="386 772" stroke-linecap="round"></path>
    
      <clipPath id="make-me-a-hanzi-clip-7">
        <path d="M 335 399 L 348 398 Q 356 398 378 400 Q 400 402 425 405 L 472 410 L 494 412 L 518 414 Q 534 416 568 416 C 598 416 604 433 576 443 L 562 448 Q 554 452 545 452 L 540 452 Q 533 452 522 450 L 494 446 L 472 443 L 425 436 L 395 432 Q 387 431 375 430 Q 362 428 337 426 C 307 424 305 401 335 399 Z"></path>
      </clipPath>
      <path clip-path="url(#make-me-a-hanzi-clip-7)" d="M 342 405 L 351 413 L 566 438" fill="none" id="make-me-a-hanzi-animation-7" stroke-dasharray="356 712" stroke-linecap="round"></path>
    
      <clipPath id="make-me-a-hanzi-clip-8">
        <path d="M 238 332 L 240 342 L 242 355 Q 240 361 230 366 Q 221 371 205 376 Q 192 379 186 379 L 184 379 Q 176 378 176 375 Q 175 374 175 373 Q 175 370 178 367 L 185 356 Q 188 351 190 345 Q 192 338 195 330 L 202 295 L 205 280 Q 206 278 206 270 Q 206 262 205 249 Q 204 224 202 209 Q 200 194 200 188 Q 201 182 204 175 Q 206 168 212 162 Q 218 151 224 151 L 225 151 Q 230 152 236 160 Q 241 168 244 179 Q 246 190 247 208 Q 247 220 245 244 Q 243 268 242 301 L 238 332 Z"></path>
      </clipPath>
      <path clip-path="url(#make-me-a-hanzi-clip-8)" d="M 180 372 L 197 364 L 216 342 L 225 277 L 225 160" fill="none" id="make-me-a-hanzi-animation-8" stroke-dasharray="358 716" stroke-linecap="round"></path>
    
      <clipPath id="make-me-a-hanzi-clip-9">
        <path d="M 425 348 L 410 347 Q 384 344 338 340 Q 292 336 238 332 L 195 330 L 172 329 L 146 328 L 128 328 Q 120 327 118 324 L 118 323 Q 118 320 124 313 Q 133 304 140 300 Q 146 296 155 293 Q 164 290 168 290 Q 170 290 182 292 Q 193 294 202 295 L 242 301 L 315 312 Q 344 317 372 320 Q 400 323 424 326 L 470 330 L 494 332 L 629 342 Q 666 345 689 345 Q 700 345 708 344 Q 724 344 730 340 Q 736 336 739 331 Q 742 326 742 318 L 742 314 Q 742 304 739 288 Q 735 269 732 250 Q 729 230 724 226 Q 718 221 716 220 L 708 220 Q 704 220 685 227 L 676 230 Q 673 231 670 231 Q 666 231 664 229 Q 661 228 661 225 Q 661 223 664 220 L 676 209 Q 683 201 690 190 Q 697 178 700 161 Q 704 144 708 140 Q 713 137 723 137 L 729 137 Q 744 138 757 156 Q 770 174 776 192 Q 784 209 786 223 L 799 282 Q 804 306 810 318 L 821 334 Q 822 339 822 342 Q 822 346 817 351 Q 812 356 791 370 Q 770 384 762 387 Q 754 390 745 390 Q 738 390 716 384 Q 692 378 668 375 Q 644 372 602 366 Q 560 361 544 360 L 512 356 Q 496 355 470 353 L 425 348 Z"></path>
      </clipPath>
      <path clip-path="url(#make-me-a-hanzi-clip-9)" d="M 124 324 L 172 309 L 627 357 L 730 365 L 753 359 L 767 347 L 776 327 L 750 209 L 732 186 L 666 225" fill="none" id="make-me-a-hanzi-animation-9" stroke-dasharray="1030 2060" stroke-linecap="round"></path>
    
      <clipPath id="make-me-a-hanzi-clip-10">
        <path d="M 425 405 L 425 348 L 424 326 L 424 264 C 424 234 466 238 469 268 L 470 274 L 470 330 L 470 353 L 472 410 L 472 443 L 474 484 L 476 517 L 477 526 L 478 554 Q 478 558 480 566 C 485 596 416 586 421 556 L 424 538 L 424 525 L 426 509 L 426 478 L 425 436 L 425 405 Z"></path>
      </clipPath>
      <path clip-path="url(#make-me-a-hanzi-clip-10)" d="M 473 561 L 450 532 L 448 295 L 431 272" fill="none" id="make-me-a-hanzi-animation-10" stroke-dasharray="431 862" stroke-linecap="round"></path>
    
      <clipPath id="make-me-a-hanzi-clip-11">
        <path d="M 424 264 L 385 260 Q 362 258 345 257 Q 329 257 318 258 L 306 260 Q 298 260 295 257 Q 294 256 294 254 Q 294 251 296 247 Q 299 240 308 232 Q 316 223 323 218 Q 330 212 339 208 Q 346 204 353 204 L 356 204 Q 360 204 370 209 Q 380 214 391 217 L 420 225 Q 437 230 452 234 L 505 244 L 563 256 C 592 262 582 279 552 276 L 469 268 L 424 264 Z"></path>
      </clipPath>
      <path clip-path="url(#make-me-a-hanzi-clip-11)" d="M 302 253 L 353 231 L 545 265 L 555 258" fill="none" id="make-me-a-hanzi-animation-11" stroke-dasharray="391 782" stroke-linecap="round"></path>
    
      <clipPath id="make-me-a-hanzi-clip-12">
        <path d="M 563 256 L 576 237 Q 578 232 584 226 Q 590 219 596 218 L 600 218 Q 607 218 614 225 Q 621 234 622 248 Q 623 252 623 256 Q 623 263 620 269 Q 616 278 607 285 Q 597 292 583 299 Q 570 306 562 308 L 544 313 L 540 313 Q 536 313 534 311 Q 533 310 533 308 Q 533 306 536 304 L 544 292 L 552 276 L 563 256 Z"></path>
      </clipPath>
      <path clip-path="url(#make-me-a-hanzi-clip-12)" d="M 537 308 L 562 292 L 594 259 L 598 234" fill="none" id="make-me-a-hanzi-animation-12" stroke-dasharray="229 458" stroke-linecap="round"></path>
    
      <clipPath id="make-me-a-hanzi-clip-13">
        <path d="M 346 177 L 325 179 L 306 182 Q 298 182 297 179 Q 296 178 296 176 Q 296 175 297 173 Q 298 170 306 165 Q 313 160 319 146 Q 326 132 328 120 L 340 66 Q 342 58 344 51 Q 347 45 350 42 Q 355 38 359 38 L 360 38 Q 364 40 366 46 L 368 54 L 368 82 L 356 154 C 352 176 352 176 346 177 Z"></path>
      </clipPath>
      <path clip-path="url(#make-me-a-hanzi-clip-13)" d="M 301 176 L 329 163 L 337 153 L 360 45" fill="none" id="make-me-a-hanzi-animation-13" stroke-dasharray="282 564" stroke-linecap="round"></path>
    
      <clipPath id="make-me-a-hanzi-clip-14">
        <path d="M 566 90 L 576 104 L 591 129 L 608 150 Q 616 160 618 162 Q 624 170 624 173 Q 624 176 616 183 Q 610 190 594 196 L 574 204 Q 562 209 556 210 Q 552 210 541 206 Q 530 202 506 199 L 478 194 L 346 177 C 316 173 326 150 356 154 L 460 168 L 506 172 Q 520 174 528 174 Q 532 174 534 172 Q 537 170 538 167 Q 539 165 539 162 Q 539 158 538 153 L 530 103 C 525 73 549 66 566 90 Z"></path>
      </clipPath>
      <path clip-path="url(#make-me-a-hanzi-clip-14)" d="M 354 174 L 364 167 L 515 188 L 555 185 L 575 165 L 556 119 L 562 98" fill="none" id="make-me-a-hanzi-animation-14" stroke-dasharray="433 866" stroke-linecap="round"></path>
    
      <clipPath id="make-me-a-hanzi-clip-15">
        <path d="M 470 63 L 490 64 Q 552 69 554 70 L 570 71 Q 578 72 580 76 Q 581 77 581 78 Q 581 82 576 85 Q 571 88 566 90 C 539 103 536 104 530 103 L 368 82 C 338 78 338 54 368 54 L 381 54 Q 392 54 422 58 L 470 63 Z"></path>
      </clipPath>
      <path clip-path="url(#make-me-a-hanzi-clip-15)" d="M 375 61 L 392 71 L 510 84 L 576 79" fill="none" id="make-me-a-hanzi-animation-15" stroke-dasharray="333 666" stroke-linecap="round"></path>
    
      <clipPath id="make-me-a-hanzi-clip-16">
        <path d="M 472 -60 L 473 -38 L 473 -28 Q 474 -22 474 -14 L 478 12 L 482 28 L 487 43 Q 486 49 482 54 Q 477 58 470 63 C 446 81 416 87 422 58 L 425 43 Q 425 42 428 20 Q 430 -2 431 -8 L 434 -53 C 436 -83 471 -90 472 -60 Z"></path>
      </clipPath>
      <path clip-path="url(#make-me-a-hanzi-clip-16)" d="M 429 52 L 454 31 L 453 -36 L 467 -54" fill="none" id="make-me-a-hanzi-animation-16" stroke-dasharray="250 500" stroke-linecap="round"></path>
    
      <clipPath id="make-me-a-hanzi-clip-17">
        <path d="M 474 -14 L 498 -13 Q 503 -13 521 -11 Q 539 -8 560 -6 Q 581 -4 589 -2 L 604 2 Q 612 3 612 8 L 612 10 Q 612 15 606 19 Q 598 25 586 29 Q 573 32 569 33 Q 564 33 553 29 Q 542 24 520 20 Q 500 16 494 15 Q 489 14 478 12 C 448 7 444 -15 474 -14 Z"></path>
      </clipPath>
      <path clip-path="url(#make-me-a-hanzi-clip-17)" d="M 480 -8 L 490 0 L 563 13 L 605 9" fill="none" id="make-me-a-hanzi-animation-17" stroke-dasharray="257 514" stroke-linecap="round"></path>
    
      <clipPath id="make-me-a-hanzi-clip-18">
        <path d="M 298 -24 L 308 -11 Q 315 -2 324 5 Q 333 11 334 14 Q 336 17 336 20 Q 336 22 335 24 Q 333 29 324 36 L 313 48 Q 306 54 295 60 Q 284 66 278 66 Q 274 66 271 64 Q 269 62 267 58 Q 266 54 262 34 Q 258 15 250 -4 Q 242 -23 228 -42 Q 216 -62 199 -79 Q 183 -97 165 -111 Q 148 -125 119 -146 L 110 -152 Q 107 -155 107 -158 Q 107 -159 108 -161 Q 109 -164 112 -164 Q 115 -164 118 -163 L 136 -156 Q 148 -152 178 -137 Q 208 -121 226 -106 Q 244 -90 258 -74 L 284 -42 L 298 -24 Z"></path>
      </clipPath>
      <path clip-path="url(#make-me-a-hanzi-clip-18)" d="M 277 56 L 292 20 L 238 -66 L 178 -121 L 114 -157" fill="none" id="make-me-a-hanzi-animation-18" stroke-dasharray="423 846" stroke-linecap="round"></path>
    
      <clipPath id="make-me-a-hanzi-clip-19">
        <path d="M 434 -53 L 414 -49 Q 406 -48 372 -40 L 324 -30 Q 310 -27 298 -24 C 269 -17 256 -33 284 -42 L 302 -48 Q 354 -64 386 -75 L 478 -105 L 592 -143 Q 645 -162 677 -170 Q 701 -177 720 -177 Q 726 -177 732 -176 Q 746 -176 772 -166 L 838 -141 Q 892 -122 895 -120 L 916 -112 Q 921 -109 921 -105 L 921 -104 Q 921 -98 910 -98 L 880 -96 L 767 -94 Q 712 -93 645 -86 Q 578 -78 552 -74 Q 526 -70 506 -66 Q 486 -62 472 -60 L 434 -53 Z"></path>
      </clipPath>
      <path clip-path="url(#make-me-a-hanzi-clip-19)" d="M 290 -39 L 303 -36 L 565 -105 L 706 -134 L 751 -133 L 914 -104" fill="none" id="make-me-a-hanzi-animation-19" stroke-dasharray="767 1534" stroke-linecap="round"></path>
    
  </g>
</svg>