<svg version="1.1" viewBox="0 0 1024 1024" xmlns="http://www.w3.org/2000/svg">
  <g stroke="lightgray" stroke-dasharray="1,1" stroke-width="1" transform="scale(4, 4)">
    <line x1="0" y1="0" x2="256" y2="256"></line>
    <line x1="256" y1="0" x2="0" y2="256"></line>
    <line x1="128" y1="0" x2="128" y2="256"></line>
    <line x1="0" y1="128" x2="256" y2="128"></line>
  </g>
  <g transform="scale(0.92, -0.92) translate(60, -830)">
    <style type="text/css">
      
        @keyframes keyframes0 {
          from {
            stroke: blue;
            stroke-dashoffset: 524;
            stroke-width: 128;
          }
          63% {
            animation-timing-function: step-end;
            stroke: blue;
            stroke-dashoffset: 0;
            stroke-width: 128;
          }
          to {
            stroke: black;
            stroke-width: 1024;
          }
        }
        #make-me-a-hanzi-animation-0 {
          animation: keyframes0 0.6764322916666666s both;
          animation-delay: 0s;
          animation-timing-function: linear;
        }
      
        @keyframes keyframes1 {
          from {
            stroke: blue;
            stroke-dashoffset: 466;
            stroke-width: 128;
          }
          60% {
            animation-timing-function: step-end;
            stroke: blue;
            stroke-dashoffset: 0;
            stroke-width: 128;
          }
          to {
            stroke: black;
            stroke-width: 1024;
          }
        }
        #make-me-a-hanzi-animation-1 {
          animation: keyframes1 0.6292317708333334s both;
          animation-delay: 0.6764322916666666s;
          animation-timing-function: linear;
        }
      
        @keyframes keyframes2 {
          from {
            stroke: blue;
            stroke-dashoffset: 671;
            stroke-width: 128;
          }
          69% {
            animation-timing-function: step-end;
            stroke: blue;
            stroke-dashoffset: 0;
            stroke-width: 128;
          }
          to {
            stroke: black;
            stroke-width: 1024;
          }
        }
        #make-me-a-hanzi-animation-2 {
          animation: keyframes2 0.7960611979166666s both;
          animation-delay: 1.3056640625s;
          animation-timing-function: linear;
        }
      
        @keyframes keyframes3 {
          from {
            stroke: blue;
            stroke-dashoffset: 377;
            stroke-width: 128;
          }
          55% {
            animation-timing-function: step-end;
            stroke: blue;
            stroke-dashoffset: 0;
            stroke-width: 128;
          }
          to {
            stroke: black;
            stroke-width: 1024;
          }
        }
        #make-me-a-hanzi-animation-3 {
          animation: keyframes3 0.5568033854166666s both;
          animation-delay: 2.1017252604166665s;
          animation-timing-function: linear;
        }
      
        @keyframes keyframes4 {
          from {
            stroke: blue;
            stroke-dashoffset: 405;
            stroke-width: 128;
          }
          57% {
            animation-timing-function: step-end;
            stroke: blue;
            stroke-dashoffset: 0;
            stroke-width: 128;
          }
          to {
            stroke: black;
            stroke-width: 1024;
          }
        }
        #make-me-a-hanzi-animation-4 {
          animation: keyframes4 0.57958984375s both;
          animation-delay: 2.658528645833333s;
          animation-timing-function: linear;
        }
      
        @keyframes keyframes5 {
          from {
            stroke: blue;
            stroke-dashoffset: 599;
            stroke-width: 128;
          }
          66% {
            animation-timing-function: step-end;
            stroke: blue;
            stroke-dashoffset: 0;
            stroke-width: 128;
          }
          to {
            stroke: black;
            stroke-width: 1024;
          }
        }
        #make-me-a-hanzi-animation-5 {
          animation: keyframes5 0.7374674479166666s both;
          animation-delay: 3.238118489583333s;
          animation-timing-function: linear;
        }
      
        @keyframes keyframes6 {
          from {
            stroke: blue;
            stroke-dashoffset: 1060;
            stroke-width: 128;
          }
          78% {
            animation-timing-function: step-end;
            stroke: blue;
            stroke-dashoffset: 0;
            stroke-width: 128;
          }
          to {
            stroke: black;
            stroke-width: 1024;
          }
        }
        #make-me-a-hanzi-animation-6 {
          animation: keyframes6 1.1126302083333333s both;
          animation-delay: 3.9755859374999996s;
          animation-timing-function: linear;
        }
      
        @keyframes keyframes7 {
          from {
            stroke: blue;
            stroke-dashoffset: 735;
            stroke-width: 128;
          }
          71% {
            animation-timing-function: step-end;
            stroke: blue;
            stroke-dashoffset: 0;
            stroke-width: 128;
          }
          to {
            stroke: black;
            stroke-width: 1024;
          }
        }
        #make-me-a-hanzi-animation-7 {
          animation: keyframes7 0.84814453125s both;
          animation-delay: 5.088216145833333s;
          animation-timing-function: linear;
        }
      
        @keyframes keyframes8 {
          from {
            stroke: blue;
            stroke-dashoffset: 626;
            stroke-width: 128;
          }
          67% {
            animation-timing-function: step-end;
            stroke: blue;
            stroke-dashoffset: 0;
            stroke-width: 128;
          }
          to {
            stroke: black;
            stroke-width: 1024;
          }
        }
        #make-me-a-hanzi-animation-8 {
          animation: keyframes8 0.7594401041666666s both;
          animation-delay: 5.936360677083333s;
          animation-timing-function: linear;
        }
      
        @keyframes keyframes9 {
          from {
            stroke: blue;
            stroke-dashoffset: 862;
            stroke-width: 128;
          }
          74% {
            animation-timing-function: step-end;
            stroke: blue;
            stroke-dashoffset: 0;
            stroke-width: 128;
          }
          to {
            stroke: black;
            stroke-width: 1024;
          }
        }
        #make-me-a-hanzi-animation-9 {
          animation: keyframes9 0.9514973958333334s both;
          animation-delay: 6.69580078125s;
          animation-timing-function: linear;
        }
      
        @keyframes keyframes10 {
          from {
            stroke: blue;
            stroke-dashoffset: 353;
            stroke-width: 128;
          }
          53% {
            animation-timing-function: step-end;
            stroke: blue;
            stroke-dashoffset: 0;
            stroke-width: 128;
          }
          to {
            stroke: black;
            stroke-width: 1024;
          }
        }
        #make-me-a-hanzi-animation-10 {
          animation: keyframes10 0.5372721354166666s both;
          animation-delay: 7.647298177083333s;
          animation-timing-function: linear;
        }
      
        @keyframes keyframes11 {
          from {
            stroke: blue;
            stroke-dashoffset: 355;
            stroke-width: 128;
          }
          54% {
            animation-timing-function: step-end;
            stroke: blue;
            stroke-dashoffset: 0;
            stroke-width: 128;
          }
          to {
            stroke: black;
            stroke-width: 1024;
          }
        }
        #make-me-a-hanzi-animation-11 {
          animation: keyframes11 0.5388997395833334s both;
          animation-delay: 8.1845703125s;
          animation-timing-function: linear;
        }
      
        @keyframes keyframes12 {
          from {
            stroke: blue;
            stroke-dashoffset: 504;
            stroke-width: 128;
          }
          62% {
            animation-timing-function: step-end;
            stroke: blue;
            stroke-dashoffset: 0;
            stroke-width: 128;
          }
          to {
            stroke: black;
            stroke-width: 1024;
          }
        }
        #make-me-a-hanzi-animation-12 {
          animation: keyframes12 0.66015625s both;
          animation-delay: 8.723470052083334s;
          animation-timing-function: linear;
        }
      
        @keyframes keyframes13 {
          from {
            stroke: blue;
            stroke-dashoffset: 999;
            stroke-width: 128;
          }
          76% {
            animation-timing-function: step-end;
            stroke: blue;
            stroke-dashoffset: 0;
            stroke-width: 128;
          }
          to {
            stroke: black;
            stroke-width: 1024;
          }
        }
        #make-me-a-hanzi-animation-13 {
          animation: keyframes13 1.06298828125s both;
          animation-delay: 9.383626302083334s;
          animation-timing-function: linear;
        }
      
    </style>
    
      <path d="M 260 487 L 278 490 L 357 509 Q 377 518 377 525 Q 376 535 355 540 Q 340 548 333 548 Q 327 548 320 544 Q 313 540 294 536 L 262 528 L 218 519 L 140 504 L 106 500 Q 100 500 98 497 Q 96 493 100 488 Q 108 475 144 475 Q 156 471 218 480 L 260 487 Z" fill="lightgray"></path>
    
      <path d="M 137 384 L 101 391 Q 87 392 87 383 Q 86 380 92 373 Q 109 357 115 304 L 125 217 Q 132 179 140 178 Q 148 176 153 187 L 157 196 L 160 224 L 147 362 C 145 382 145 382 137 384 Z" fill="lightgray"></path>
    
      <path d="M 216 398 L 137 384 C 107 379 117 357 147 362 L 216 374 L 256 380 L 305 389 Q 324 391 328 387 Q 333 383 333 365 L 315 238 C 312 215 310 219 311 217 L 315 206 Q 315 204 319 199 Q 323 194 326 194 L 332 192 Q 335 191 338 194 Q 353 212 353 230 L 380 336 Q 382 344 391 362 Q 401 379 402 383 Q 402 393 382 406 Q 363 419 347 424 Q 339 428 334 428 Q 329 428 313 421 Q 297 413 257 405 L 216 398 Z" fill="lightgray"></path>
    
      <path d="M 253 294 L 304 302 Q 310 303 311 314 Q 313 340 260 326 L 254 325 L 215 317 L 173 309 Q 165 308 166 298 Q 168 282 181 285 L 201 288 Q 208 288 215 289 L 253 294 Z" fill="lightgray"></path>
    
      <path d="M 157 196 L 211 204 L 251 209 L 311 217 C 341 221 343 227 315 238 L 302 243 Q 293 246 285 246 Q 277 246 251 239 L 213 232 L 160 224 C 130 220 127 192 157 196 Z" fill="lightgray"></path>
    
      <path d="M 206 126 L 134 113 Q 72 102 51 102 L 43 100 Q 31 100 38 88 Q 45 76 64 68 Q 84 60 95 62 Q 107 64 129 74 Q 152 83 203 92 L 249 97 L 282 101 Q 311 102 332 104 L 357 107 Q 371 107 389 116 Q 397 120 396 125 Q 396 133 372 144 L 349 152 Q 341 154 330 154 L 250 134 L 206 126 Z" fill="lightgray"></path>
    
      <path d="M 218 480 L 216 398 L 216 374 L 215 317 L 215 289 L 213 232 L 211 204 L 209 162 Q 208 156 206 126 L 203 92 L 197 21 L 189 -16 L 184 -46 L 193 -86 Q 206 -125 218 -125 Q 221 -126 226 -119 Q 245 -96 245 -66 L 248 -28 L 249 97 L 250 134 L 251 209 L 251 239 L 253 267 L 253 294 L 254 325 L 256 380 L 257 405 L 257 423 Q 258 469 260 487 L 262 528 L 269 610 L 275 633 L 279 643 Q 279 657 239 676 L 220 683 Q 205 688 200 680 Q 195 672 205 653 Q 216 633 216 588 L 218 519 L 218 480 Z" fill="lightgray"></path>
    
      <path d="M 611 477 L 643 480 Q 666 483 713 487 Q 761 490 767 492 L 791 494 Q 819 496 829 501 Q 847 510 829 521 Q 790 550 744 536 Q 730 531 687 523 L 642 515 Q 641 516 516 498 L 461 490 Q 429 485 387 481 L 354 479 Q 349 478 348 474 Q 344 466 365 458 L 381 449 Q 393 442 413 442 L 461 456 L 518 467 L 564 472 L 611 477 Z" fill="lightgray"></path>
    
      <path d="M 413 442 L 421 423 Q 426 395 426 346 L 430 83 C 430 53 468 62 469 92 L 471 203 L 471 228 L 471 316 L 472 342 L 473 362 Q 473 393 479 409 Q 485 424 485 430 Q 485 439 461 456 C 437 474 401 470 413 442 Z" fill="lightgray"></path>
    
      <path d="M 571 93 L 569 -8 L 571 -83 L 575 -108 Q 577 -128 586 -128 Q 587 -129 591 -123 Q 603 -105 611 -36 L 615 42 Q 616 65 617 70 L 621 358 Q 619 407 634 450 Q 634 462 611 477 C 587 495 554 500 564 472 L 569 460 Q 576 431 575 398 L 575 353 L 574 326 L 573 239 L 573 212 L 571 113 L 571 93 Z" fill="lightgray"></path>
    
      <path d="M 575 353 L 555 356 Q 553 359 535 354 L 508 348 Q 495 348 472 342 C 443 335 441 316 471 316 L 490 316 Q 501 314 531 319 L 574 326 C 604 331 605 349 575 353 Z" fill="lightgray"></path>
    
      <path d="M 573 239 L 552 244 L 512 234 L 471 228 C 441 224 441 204 471 203 L 491 202 Q 508 202 540 207 Q 572 212 573 212 C 603 216 602 232 573 239 Z" fill="lightgray"></path>
    
      <path d="M 363 72 L 339 74 Q 321 74 330 60 Q 342 36 369 21 Q 381 14 386 15 Q 391 16 406 25 Q 422 34 439 41 L 482 59 Q 509 70 571 93 C 599 103 600 119 571 113 L 469 92 L 430 83 L 415 79 Q 375 72 363 72 Z" fill="lightgray"></path>
    
      <path d="M 669 413 Q 667 410 671 397 Q 676 384 681 338 L 679 112 L 677 81 Q 677 -10 721 -36 Q 758 -60 819 -58 Q 851 -58 872 -51 Q 920 -35 936 -12 Q 946 2 937 20 L 927 38 Q 920 56 908 118 Q 905 131 900 130 Q 895 130 893 120 L 885 71 Q 878 33 860 13 Q 843 -8 808 -2 Q 758 -2 741 12 Q 725 26 721 42 Q 718 58 719 91 L 719 140 L 729 272 Q 729 321 739 349 Q 741 360 745 368 L 750 378 Q 752 392 728 407 Q 705 422 687 422 Q 669 422 669 413 Z" fill="lightgray"></path>
    
    
      <clipPath id="make-me-a-hanzi-clip-0">
        <path d="M 260 487 L 278 490 L 357 509 Q 377 518 377 525 Q 376 535 355 540 Q 340 548 333 548 Q 327 548 320 544 Q 313 540 294 536 L 262 528 L 218 519 L 140 504 L 106 500 Q 100 500 98 497 Q 96 493 100 488 Q 108 475 144 475 Q 156 471 218 480 L 260 487 Z"></path>
      </clipPath>
      <path clip-path="url(#make-me-a-hanzi-clip-0)" d="M 104 494 L 134 488 L 204 495 L 332 525 L 368 525" fill="none" id="make-me-a-hanzi-animation-0" stroke-dasharray="396 792" stroke-linecap="round"></path>
    
      <clipPath id="make-me-a-hanzi-clip-1">
        <path d="M 137 384 L 101 391 Q 87 392 87 383 Q 86 380 92 373 Q 109 357 115 304 L 125 217 Q 132 179 140 178 Q 148 176 153 187 L 157 196 L 160 224 L 147 362 C 145 382 145 382 137 384 Z"></path>
      </clipPath>
      <path clip-path="url(#make-me-a-hanzi-clip-1)" d="M 97 382 L 122 365 L 127 352 L 143 187" fill="none" id="make-me-a-hanzi-animation-1" stroke-dasharray="338 676" stroke-linecap="round"></path>
    
      <clipPath id="make-me-a-hanzi-clip-2">
        <path d="M 216 398 L 137 384 C 107 379 117 357 147 362 L 216 374 L 256 380 L 305 389 Q 324 391 328 387 Q 333 383 333 365 L 315 238 C 312 215 310 219 311 217 L 315 206 Q 315 204 319 199 Q 323 194 326 194 L 332 192 Q 335 191 338 194 Q 353 212 353 230 L 380 336 Q 382 344 391 362 Q 401 379 402 383 Q 402 393 382 406 Q 363 419 347 424 Q 339 428 334 428 Q 329 428 313 421 Q 297 413 257 405 L 216 398 Z"></path>
      </clipPath>
      <path clip-path="url(#make-me-a-hanzi-clip-2)" d="M 144 381 L 166 376 L 330 407 L 353 395 L 364 379 L 332 202" fill="none" id="make-me-a-hanzi-animation-2" stroke-dasharray="543 1086" stroke-linecap="round"></path>
    
      <clipPath id="make-me-a-hanzi-clip-3">
        <path d="M 253 294 L 304 302 Q 310 303 311 314 Q 313 340 260 326 L 254 325 L 215 317 L 173 309 Q 165 308 166 298 Q 168 282 181 285 L 201 288 Q 208 288 215 289 L 253 294 Z"></path>
      </clipPath>
      <path clip-path="url(#make-me-a-hanzi-clip-3)" d="M 178 296 L 297 316" fill="none" id="make-me-a-hanzi-animation-3" stroke-dasharray="249 498" stroke-linecap="round"></path>
    
      <clipPath id="make-me-a-hanzi-clip-4">
        <path d="M 157 196 L 211 204 L 251 209 L 311 217 C 341 221 343 227 315 238 L 302 243 Q 293 246 285 246 Q 277 246 251 239 L 213 232 L 160 224 C 130 220 127 192 157 196 Z"></path>
      </clipPath>
      <path clip-path="url(#make-me-a-hanzi-clip-4)" d="M 163 202 L 172 212 L 306 234" fill="none" id="make-me-a-hanzi-animation-4" stroke-dasharray="277 554" stroke-linecap="round"></path>
    
      <clipPath id="make-me-a-hanzi-clip-5">
        <path d="M 206 126 L 134 113 Q 72 102 51 102 L 43 100 Q 31 100 38 88 Q 45 76 64 68 Q 84 60 95 62 Q 107 64 129 74 Q 152 83 203 92 L 249 97 L 282 101 Q 311 102 332 104 L 357 107 Q 371 107 389 116 Q 397 120 396 125 Q 396 133 372 144 L 349 152 Q 341 154 330 154 L 250 134 L 206 126 Z"></path>
      </clipPath>
      <path clip-path="url(#make-me-a-hanzi-clip-5)" d="M 49 90 L 89 84 L 329 129 L 387 125" fill="none" id="make-me-a-hanzi-animation-5" stroke-dasharray="471 942" stroke-linecap="round"></path>
    
      <clipPath id="make-me-a-hanzi-clip-6">
        <path d="M 218 480 L 216 398 L 216 374 L 215 317 L 215 289 L 213 232 L 211 204 L 209 162 Q 208 156 206 126 L 203 92 L 197 21 L 189 -16 L 184 -46 L 193 -86 Q 206 -125 218 -125 Q 221 -126 226 -119 Q 245 -96 245 -66 L 248 -28 L 249 97 L 250 134 L 251 209 L 251 239 L 253 267 L 253 294 L 254 325 L 256 380 L 257 405 L 257 423 Q 258 469 260 487 L 262 528 L 269 610 L 275 633 L 279 643 Q 279 657 239 676 L 220 683 Q 205 688 200 680 Q 195 672 205 653 Q 216 633 216 588 L 218 519 L 218 480 Z"></path>
      </clipPath>
      <path clip-path="url(#make-me-a-hanzi-clip-6)" d="M 209 673 L 244 638 L 231 172 L 215 -46 L 218 -116" fill="none" id="make-me-a-hanzi-animation-6" stroke-dasharray="932 1864" stroke-linecap="round"></path>
    
      <clipPath id="make-me-a-hanzi-clip-7">
        <path d="M 611 477 L 643 480 Q 666 483 713 487 Q 761 490 767 492 L 791 494 Q 819 496 829 501 Q 847 510 829 521 Q 790 550 744 536 Q 730 531 687 523 L 642 515 Q 641 516 516 498 L 461 490 Q 429 485 387 481 L 354 479 Q 349 478 348 474 Q 344 466 365 458 L 381 449 Q 393 442 413 442 L 461 456 L 518 467 L 564 472 L 611 477 Z"></path>
      </clipPath>
      <path clip-path="url(#make-me-a-hanzi-clip-7)" d="M 355 472 L 408 462 L 532 488 L 570 488 L 768 517 L 828 511" fill="none" id="make-me-a-hanzi-animation-7" stroke-dasharray="607 1214" stroke-linecap="round"></path>
    
      <clipPath id="make-me-a-hanzi-clip-8">
        <path d="M 413 442 L 421 423 Q 426 395 426 346 L 430 83 C 430 53 468 62 469 92 L 471 203 L 471 228 L 471 316 L 472 342 L 473 362 Q 473 393 479 409 Q 485 424 485 430 Q 485 439 461 456 C 437 474 401 470 413 442 Z"></path>
      </clipPath>
      <path clip-path="url(#make-me-a-hanzi-clip-8)" d="M 420 439 L 451 421 L 450 116 L 435 91" fill="none" id="make-me-a-hanzi-animation-8" stroke-dasharray="498 996" stroke-linecap="round"></path>
    
      <clipPath id="make-me-a-hanzi-clip-9">
        <path d="M 571 93 L 569 -8 L 571 -83 L 575 -108 Q 577 -128 586 -128 Q 587 -129 591 -123 Q 603 -105 611 -36 L 615 42 Q 616 65 617 70 L 621 358 Q 619 407 634 450 Q 634 462 611 477 C 587 495 554 500 564 472 L 569 460 Q 576 431 575 398 L 575 353 L 574 326 L 573 239 L 573 212 L 571 113 L 571 93 Z"></path>
      </clipPath>
      <path clip-path="url(#make-me-a-hanzi-clip-9)" d="M 572 468 L 602 446 L 595 78 L 585 -122" fill="none" id="make-me-a-hanzi-animation-9" stroke-dasharray="734 1468" stroke-linecap="round"></path>
    
      <clipPath id="make-me-a-hanzi-clip-10">
        <path d="M 575 353 L 555 356 Q 553 359 535 354 L 508 348 Q 495 348 472 342 C 443 335 441 316 471 316 L 490 316 Q 501 314 531 319 L 574 326 C 604 331 605 349 575 353 Z"></path>
      </clipPath>
      <path clip-path="url(#make-me-a-hanzi-clip-10)" d="M 476 322 L 495 332 L 569 346" fill="none" id="make-me-a-hanzi-animation-10" stroke-dasharray="225 450" stroke-linecap="round"></path>
    
      <clipPath id="make-me-a-hanzi-clip-11">
        <path d="M 573 239 L 552 244 L 512 234 L 471 228 C 441 224 441 204 471 203 L 491 202 Q 508 202 540 207 Q 572 212 573 212 C 603 216 602 232 573 239 Z"></path>
      </clipPath>
      <path clip-path="url(#make-me-a-hanzi-clip-11)" d="M 476 209 L 485 216 L 553 227 L 570 219" fill="none" id="make-me-a-hanzi-animation-11" stroke-dasharray="227 454" stroke-linecap="round"></path>
    
      <clipPath id="make-me-a-hanzi-clip-12">
        <path d="M 363 72 L 339 74 Q 321 74 330 60 Q 342 36 369 21 Q 381 14 386 15 Q 391 16 406 25 Q 422 34 439 41 L 482 59 Q 509 70 571 93 C 599 103 600 119 571 113 L 469 92 L 430 83 L 415 79 Q 375 72 363 72 Z"></path>
      </clipPath>
      <path clip-path="url(#make-me-a-hanzi-clip-12)" d="M 335 67 L 384 45 L 558 97 L 564 108" fill="none" id="make-me-a-hanzi-animation-12" stroke-dasharray="376 752" stroke-linecap="round"></path>
    
      <clipPath id="make-me-a-hanzi-clip-13">
        <path d="M 669 413 Q 667 410 671 397 Q 676 384 681 338 L 679 112 L 677 81 Q 677 -10 721 -36 Q 758 -60 819 -58 Q 851 -58 872 -51 Q 920 -35 936 -12 Q 946 2 937 20 L 927 38 Q 920 56 908 118 Q 905 131 900 130 Q 895 130 893 120 L 885 71 Q 878 33 860 13 Q 843 -8 808 -2 Q 758 -2 741 12 Q 725 26 721 42 Q 718 58 719 91 L 719 140 L 729 272 Q 729 321 739 349 Q 741 360 745 368 L 750 378 Q 752 392 728 407 Q 705 422 687 422 Q 669 422 669 413 Z"></path>
      </clipPath>
      <path clip-path="url(#make-me-a-hanzi-clip-13)" d="M 682 409 L 711 376 L 698 51 L 706 20 L 724 -7 L 761 -25 L 810 -31 L 850 -28 L 884 -11 L 902 6 L 901 122" fill="none" id="make-me-a-hanzi-animation-13" stroke-dasharray="871 1742" stroke-linecap="round"></path>
    
  </g>
</svg>