<svg xmlns="http://www.w3.org/2000/svg" version="1.1" viewBox="0 0 1024 1024">
  <g stroke="lightgray" stroke-dasharray="1,1" stroke-width="1" transform="scale(4, 4)">
    <line x1="0" y1="0" x2="256" y2="256" />
    <line x1="256" y1="0" x2="0" y2="256" />
    <line x1="128" y1="0" x2="128" y2="256" />
    <line x1="0" y1="128" x2="256" y2="128" />
  </g>
  <g transform="scale(1.0, -1.0) translate(0.0, -840.50)">
    <style type="text/css">
      
        @keyframes keyframes0 {
          from {
            stroke: blue;
            stroke-dashoffset: 550;
            stroke-width: 128;
          }
          64% {
            animation-timing-function: step-end;
            stroke: blue;
            stroke-dashoffset: 0;
            stroke-width: 128;
          }
          to {
            stroke: black;
            stroke-width: 1024;
          }
        }
        #make-me-a-hanzi-animation-0 {
          animation: keyframes0 0.6975911458333334s both;
          animation-delay: 0s;
          animation-timing-function: linear;
        }
      
        @keyframes keyframes1 {
          from {
            stroke: blue;
            stroke-dashoffset: 483;
            stroke-width: 128;
          }
          61% {
            animation-timing-function: step-end;
            stroke: blue;
            stroke-dashoffset: 0;
            stroke-width: 128;
          }
          to {
            stroke: black;
            stroke-width: 1024;
          }
        }
        #make-me-a-hanzi-animation-1 {
          animation: keyframes1 0.64306640625s both;
          animation-delay: 0.6975911458333334s;
          animation-timing-function: linear;
        }
      
        @keyframes keyframes2 {
          from {
            stroke: blue;
            stroke-dashoffset: 727;
            stroke-width: 128;
          }
          70% {
            animation-timing-function: step-end;
            stroke: blue;
            stroke-dashoffset: 0;
            stroke-width: 128;
          }
          to {
            stroke: black;
            stroke-width: 1024;
          }
        }
        #make-me-a-hanzi-animation-2 {
          animation: keyframes2 0.8416341145833334s both;
          animation-delay: 1.3406575520833335s;
          animation-timing-function: linear;
        }
      
        @keyframes keyframes3 {
          from {
            stroke: blue;
            stroke-dashoffset: 453;
            stroke-width: 128;
          }
          60% {
            animation-timing-function: step-end;
            stroke: blue;
            stroke-dashoffset: 0;
            stroke-width: 128;
          }
          to {
            stroke: black;
            stroke-width: 1024;
          }
        }
        #make-me-a-hanzi-animation-3 {
          animation: keyframes3 0.61865234375s both;
          animation-delay: 2.182291666666667s;
          animation-timing-function: linear;
        }
      
        @keyframes keyframes4 {
          from {
            stroke: blue;
            stroke-dashoffset: 404;
            stroke-width: 128;
          }
          57% {
            animation-timing-function: step-end;
            stroke: blue;
            stroke-dashoffset: 0;
            stroke-width: 128;
          }
          to {
            stroke: black;
            stroke-width: 1024;
          }
        }
        #make-me-a-hanzi-animation-4 {
          animation: keyframes4 0.5787760416666666s both;
          animation-delay: 2.800944010416667s;
          animation-timing-function: linear;
        }
      
        @keyframes keyframes5 {
          from {
            stroke: blue;
            stroke-dashoffset: 600;
            stroke-width: 128;
          }
          66% {
            animation-timing-function: step-end;
            stroke: blue;
            stroke-dashoffset: 0;
            stroke-width: 128;
          }
          to {
            stroke: black;
            stroke-width: 1024;
          }
        }
        #make-me-a-hanzi-animation-5 {
          animation: keyframes5 0.73828125s both;
          animation-delay: 3.3797200520833335s;
          animation-timing-function: linear;
        }
      
        @keyframes keyframes6 {
          from {
            stroke: blue;
            stroke-dashoffset: 1096;
            stroke-width: 128;
          }
          78% {
            animation-timing-function: step-end;
            stroke: blue;
            stroke-dashoffset: 0;
            stroke-width: 128;
          }
          to {
            stroke: black;
            stroke-width: 1024;
          }
        }
        #make-me-a-hanzi-animation-6 {
          animation: keyframes6 1.1419270833333333s both;
          animation-delay: 4.118001302083334s;
          animation-timing-function: linear;
        }
      
        @keyframes keyframes7 {
          from {
            stroke: blue;
            stroke-dashoffset: 561;
            stroke-width: 128;
          }
          65% {
            animation-timing-function: step-end;
            stroke: blue;
            stroke-dashoffset: 0;
            stroke-width: 128;
          }
          to {
            stroke: black;
            stroke-width: 1024;
          }
        }
        #make-me-a-hanzi-animation-7 {
          animation: keyframes7 0.70654296875s both;
          animation-delay: 5.259928385416667s;
          animation-timing-function: linear;
        }
      
        @keyframes keyframes8 {
          from {
            stroke: blue;
            stroke-dashoffset: 390;
            stroke-width: 128;
          }
          56% {
            animation-timing-function: step-end;
            stroke: blue;
            stroke-dashoffset: 0;
            stroke-width: 128;
          }
          to {
            stroke: black;
            stroke-width: 1024;
          }
        }
        #make-me-a-hanzi-animation-8 {
          animation: keyframes8 0.5673828125s both;
          animation-delay: 5.966471354166667s;
          animation-timing-function: linear;
        }
      
        @keyframes keyframes9 {
          from {
            stroke: blue;
            stroke-dashoffset: 478;
            stroke-width: 128;
          }
          61% {
            animation-timing-function: step-end;
            stroke: blue;
            stroke-dashoffset: 0;
            stroke-width: 128;
          }
          to {
            stroke: black;
            stroke-width: 1024;
          }
        }
        #make-me-a-hanzi-animation-9 {
          animation: keyframes9 0.6389973958333334s both;
          animation-delay: 6.533854166666667s;
          animation-timing-function: linear;
        }
      
        @keyframes keyframes10 {
          from {
            stroke: blue;
            stroke-dashoffset: 870;
            stroke-width: 128;
          }
          74% {
            animation-timing-function: step-end;
            stroke: blue;
            stroke-dashoffset: 0;
            stroke-width: 128;
          }
          to {
            stroke: black;
            stroke-width: 1024;
          }
        }
        #make-me-a-hanzi-animation-10 {
          animation: keyframes10 0.9580078125s both;
          animation-delay: 7.1728515625s;
          animation-timing-function: linear;
        }
      
        @keyframes keyframes11 {
          from {
            stroke: blue;
            stroke-dashoffset: 433;
            stroke-width: 128;
          }
          58% {
            animation-timing-function: step-end;
            stroke: blue;
            stroke-dashoffset: 0;
            stroke-width: 128;
          }
          to {
            stroke: black;
            stroke-width: 1024;
          }
        }
        #make-me-a-hanzi-animation-11 {
          animation: keyframes11 0.6023763020833334s both;
          animation-delay: 8.130859375s;
          animation-timing-function: linear;
        }
      
        @keyframes keyframes12 {
          from {
            stroke: blue;
            stroke-dashoffset: 457;
            stroke-width: 128;
          }
          60% {
            animation-timing-function: step-end;
            stroke: blue;
            stroke-dashoffset: 0;
            stroke-width: 128;
          }
          to {
            stroke: black;
            stroke-width: 1024;
          }
        }
        #make-me-a-hanzi-animation-12 {
          animation: keyframes12 0.6219075520833334s both;
          animation-delay: 8.733235677083334s;
          animation-timing-function: linear;
        }
      
        @keyframes keyframes13 {
          from {
            stroke: blue;
            stroke-dashoffset: 709;
            stroke-width: 128;
          }
          70% {
            animation-timing-function: step-end;
            stroke: blue;
            stroke-dashoffset: 0;
            stroke-width: 128;
          }
          to {
            stroke: black;
            stroke-width: 1024;
          }
        }
        #make-me-a-hanzi-animation-13 {
          animation: keyframes13 0.8269856770833334s both;
          animation-delay: 9.355143229166668s;
          animation-timing-function: linear;
        }
      
        @keyframes keyframes14 {
          from {
            stroke: blue;
            stroke-dashoffset: 734;
            stroke-width: 128;
          }
          70% {
            animation-timing-function: step-end;
            stroke: blue;
            stroke-dashoffset: 0;
            stroke-width: 128;
          }
          to {
            stroke: black;
            stroke-width: 1024;
          }
        }
        #make-me-a-hanzi-animation-14 {
          animation: keyframes14 0.8473307291666666s both;
          animation-delay: 10.182128906250002s;
          animation-timing-function: linear;
        }
      
        @keyframes keyframes15 {
          from {
            stroke: blue;
            stroke-dashoffset: 500;
            stroke-width: 128;
          }
          62% {
            animation-timing-function: step-end;
            stroke: blue;
            stroke-dashoffset: 0;
            stroke-width: 128;
          }
          to {
            stroke: black;
            stroke-width: 1024;
          }
        }
        #make-me-a-hanzi-animation-15 {
          animation: keyframes15 0.6569010416666666s both;
          animation-delay: 11.029459635416668s;
          animation-timing-function: linear;
        }
      
    </style>
    
      <path d="M 329 557 Q 363 566 396 572 Q 436 582 440 586 Q 445 592 445 596 Q 445 598 444 600 Q 436 610 412 616 Q 404 617 397 617 Q 378 617 361 610 Q 345 604 330 600 L 277 585 Q 273 582 270 582 Q 216 568 156 562 Q 138 561 138 555 Q 138 551 148 543 Q 162 534 180 531 Q 187 530 195 530 Q 211 530 231 534 Q 254 541 278 545 L 329 557 Z" fill="lightgray" />
    
      <path d="M 181 288 Q 187 260 202 244 Q 212 234 218 234 Q 222 234 223 239 Q 225 247 225 256 L 223 282 Q 220 291 220 298 L 210 337 L 206 361 Q 196 400 195 416 C 192 443 192 443 179 447 Q 165 452 143 453 Q 139 454 137 454 Q 131 454 129 451 Q 128 448 128 445 Q 128 439 132 431 Q 163 376 181 288 Z" fill="lightgray" />
    
      <path d="M 376 279 Q 390 262 402 256 Q 405 255 408 255 Q 417 255 424 268 Q 437 288 459 390 Q 466 420 487 441 Q 492 447 492 453 Q 492 459 487 465 Q 472 481 433 500 Q 421 506 412 506 Q 407 506 402 504 Q 379 495 346 488 Q 335 485 326 485 L 278 472 Q 263 467 250 464 Q 210 453 179 447 C 150 441 166 408 195 416 Q 198 417 201 417 Q 234 430 279 440 L 326 452 Q 347 457 371 460 Q 381 461 388 461 Q 400 461 404 457 Q 412 446 412 435 L 412 433 Q 408 418 407 406 L 402 376 Q 392 330 389 320 Q 382 307 373 307 C 359 298 359 298 376 279 Z" fill="lightgray" />
    
      <path d="M 210 337 Q 218 337 228 338 Q 252 345 276 351 L 324 360 Q 366 370 402 376 C 432 381 437 402 407 406 Q 403 407 400 407 L 396 407 Q 376 407 346 399 Q 333 396 324 393 L 280 381 L 279 381 L 274 380 L 206 361 C 177 353 180 336 210 337 Z" fill="lightgray" />
    
      <path d="M 225 256 Q 229 257 235 257 Q 254 263 279 267 L 324 274 Q 348 278 376 279 C 406 280 401 295 373 307 Q 368 310 360 310 Q 352 310 341 307 Q 330 304 323 303 L 279 293 Q 248 285 223 282 C 193 278 195 251 225 256 Z" fill="lightgray" />
    
      <path d="M 279 189 Q 190 165 168 161 Q 130 154 100 151 Q 87 148 86 142 L 86 138 Q 86 128 98 121 Q 115 109 136 106 Q 142 105 148 105 Q 161 105 174 111 Q 236 134 278 146 L 324 159 Q 369 169 423 178 Q 439 182 439 188 Q 439 201 423 208 Q 406 214 392 214 Q 383 214 375 212 Q 346 206 324 200 L 279 189 Z" fill="lightgray" />
    
      <path d="M 279 267 L 279 189 L 278 146 Q 277 121 277 97 Q 271 -6 270 -22 L 270 -29 Q 270 -42 273 -55 Q 278 -75 290 -88 Q 296 -94 300 -94 Q 305 -94 309 -86 Q 322 -62 325 -47 Q 328 -31 328 -16 Q 328 -8 327 0 Q 324 28 324 76 L 324 159 L 324 200 L 324 274 L 323 303 L 323 319 Q 324 337 325 340 L 325 345 Q 325 351 323 354 Q 324 357 324 360 L 324 393 Q 325 425 326 452 L 326 485 Q 329 520 329 551 L 329 557 L 330 600 Q 331 641 334 666 Q 336 680 339 692 Q 342 701 342 707 Q 342 715 337 719 Q 305 745 281 751 L 277 751 Q 266 751 256 743 Q 253 740 253 736 Q 253 732 256 727 Q 270 707 273 695 Q 276 682 276 661 Q 277 624 277 585 L 278 545 L 278 472 L 279 440 Q 280 411 280 381 L 276 351 Q 279 341 279 329 L 279 293 L 279 267 Z" fill="lightgray" />
    
      <path d="M 657 625 Q 726 639 798 651 Q 839 660 843 664 Q 848 670 848 675 Q 848 677 847 679 Q 840 691 815 697 Q 805 699 794 699 Q 777 699 760 693 Q 714 677 666 668 Q 613 656 550 652 Q 530 651 530 645 Q 530 640 541 632 Q 555 621 574 618 Q 582 617 591 617 Q 605 617 621 619 L 657 625 Z" fill="lightgray" />
    
      <path d="M 615 516 L 639 539 Q 651 553 660 562 Q 671 576 686 588 Q 693 595 693 601 Q 693 606 687 610 Q 675 621 657 625 C 628 632 615 636 621 619 L 623 613 Q 625 608 625 601 Q 625 594 623 586 Q 617 567 611 552 L 592 509 C 580 483 593 495 615 516 Z" fill="lightgray" />
    
      <path d="M 529 495 Q 522 500 515 503 Q 505 510 495 510 L 493 510 Q 489 510 487 507 Q 486 505 486 502 Q 486 497 488 492 Q 504 469 505 448 Q 509 407 509 364 L 509 347 Q 508 343 508 338 Q 508 325 515 314 Q 526 299 538 290 Q 543 288 546 288 Q 550 288 550 293 Q 556 297 556 312 L 556 319 Q 556 334 553 365 Q 547 437 547 462 L 547 463 C 547 483 547 483 529 495 Z" fill="lightgray" />
    
      <path d="M 592 509 Q 556 498 529 495 C 499 490 517 459 547 463 Q 558 463 570 467 Q 586 476 610 483 L 644 492 L 670 498 Q 683 502 695 505 L 725 511 Q 770 520 822 523 Q 839 522 845 515 Q 848 511 848 503 L 848 498 Q 846 394 839 379 Q 835 372 826 372 L 823 372 Q 803 373 782 373 L 777 373 Q 768 373 768 370 Q 768 366 776 360 Q 825 323 846 296 Q 850 291 855 291 Q 858 291 862 294 Q 874 305 880 321 Q 888 339 894 441 Q 897 479 909 497 Q 918 511 918 517 Q 918 520 917 521 Q 908 532 868 557 Q 857 564 848 564 Q 843 564 839 562 Q 816 551 774 544 Q 666 528 615 516 L 592 509 Z" fill="lightgray" />
    
      <path d="M 610 483 Q 614 479 614 473 Q 616 459 617 446 Q 619 420 622 395 Q 622 380 621 368 Q 619 359 619 352 Q 619 345 621 340 Q 625 327 631 317 Q 636 308 639 305 L 641 305 Q 645 305 647 307 Q 651 311 654 321 Q 658 335 658 350 Q 656 359 656 437 Q 656 454 659 464 Q 661 471 661 476 L 661 479 Q 659 485 644 492 C 617 506 594 509 610 483 Z" fill="lightgray" />
    
      <path d="M 695 505 L 695 504 Q 695 501 697 499 Q 700 495 700 494 Q 705 488 705 479 Q 708 440 711 380 L 715 330 Q 718 314 722 308 Q 726 305 729 305 L 730 305 Q 736 308 739 317 Q 743 327 744 348 Q 747 367 747 385 Q 747 400 750 460 Q 751 468 751 471 Q 753 477 753 480 L 753 484 Q 753 493 746 498 Q 732 508 725 511 C 698 525 686 531 695 505 Z" fill="lightgray" />
    
      <path d="M 491 165 Q 480 163 480 158 Q 480 155 487 149 Q 500 137 515 134 Q 524 132 532 132 Q 540 132 547 134 Q 597 147 651 156 L 704 164 Q 771 174 846 177 Q 909 180 924 180 Q 941 182 944 188 Q 945 191 945 194 Q 945 202 934 209 Q 908 227 890 233 Q 883 235 874 235 Q 866 235 857 233 Q 800 220 712 204 L 659 195 L 491 165 Z" fill="lightgray" />
    
      <path d="M 651 156 Q 642 126 632 104 Q 611 63 575 35 Q 530 -1 431 -37 Q 423 -42 423 -45 Q 423 -48 435 -48 Q 492 -48 544 -27 Q 589 -11 623 19 Q 657 50 678 92 Q 695 127 704 164 L 712 204 Q 721 237 728 246 Q 732 252 732 257 Q 732 262 727 267 Q 715 280 691 286 Q 681 289 672 289 Q 663 289 655 286 Q 647 283 647 277 Q 647 273 650 269 Q 659 255 662 234 Q 662 216 659 195 L 651 156 Z" fill="lightgray" />
    
      <path d="M 887 -46 Q 904 -63 916 -64 L 917 -64 Q 925 -64 930 -56 Q 933 -51 933 -42 Q 933 -28 925 -6 Q 916 16 901 26 Q 878 47 824 69 Q 762 97 729 107 L 726 107 Q 720 107 720 100 Q 722 87 731 80 Q 802 29 887 -46 Z" fill="lightgray" />
    
    
      <clipPath id="make-me-a-hanzi-clip-0">
        <path d="M 329 557 Q 363 566 396 572 Q 436 582 440 586 Q 445 592 445 596 Q 445 598 444 600 Q 436 610 412 616 Q 404 617 397 617 Q 378 617 361 610 Q 345 604 330 600 L 277 585 Q 273 582 270 582 Q 216 568 156 562 Q 138 561 138 555 Q 138 551 148 543 Q 162 534 180 531 Q 187 530 195 530 Q 211 530 231 534 Q 254 541 278 545 L 329 557 Z" />
      </clipPath>
      <path clip-path="url(#make-me-a-hanzi-clip-0)" d="M 146 552 L 189 547 L 221 551 L 392 595 L 434 595" fill="none" id="make-me-a-hanzi-animation-0" stroke-dasharray="422 844" stroke-linecap="round" />
    
      <clipPath id="make-me-a-hanzi-clip-1">
        <path d="M 181 288 Q 187 260 202 244 Q 212 234 218 234 Q 222 234 223 239 Q 225 247 225 256 L 223 282 Q 220 291 220 298 L 210 337 L 206 361 Q 196 400 195 416 C 192 443 192 443 179 447 Q 165 452 143 453 Q 139 454 137 454 Q 131 454 129 451 Q 128 448 128 445 Q 128 439 132 431 Q 163 376 181 288 Z" />
      </clipPath>
      <path clip-path="url(#make-me-a-hanzi-clip-1)" d="M 135 447 L 159 429 L 171 409 L 216 241" fill="none" id="make-me-a-hanzi-animation-1" stroke-dasharray="355 710" stroke-linecap="round" />
    
      <clipPath id="make-me-a-hanzi-clip-2">
        <path d="M 376 279 Q 390 262 402 256 Q 405 255 408 255 Q 417 255 424 268 Q 437 288 459 390 Q 466 420 487 441 Q 492 447 492 453 Q 492 459 487 465 Q 472 481 433 500 Q 421 506 412 506 Q 407 506 402 504 Q 379 495 346 488 Q 335 485 326 485 L 278 472 Q 263 467 250 464 Q 210 453 179 447 C 150 441 166 408 195 416 Q 198 417 201 417 Q 234 430 279 440 L 326 452 Q 347 457 371 460 Q 381 461 388 461 Q 400 461 404 457 Q 412 446 412 435 L 412 433 Q 408 418 407 406 L 402 376 Q 392 330 389 320 Q 382 307 373 307 C 359 298 359 298 376 279 Z" />
      </clipPath>
      <path clip-path="url(#make-me-a-hanzi-clip-2)" d="M 186 444 L 204 436 L 324 469 L 403 482 L 428 472 L 447 451 L 417 323 L 403 291 L 380 301" fill="none" id="make-me-a-hanzi-animation-2" stroke-dasharray="599 1198" stroke-linecap="round" />
    
      <clipPath id="make-me-a-hanzi-clip-3">
        <path d="M 210 337 Q 218 337 228 338 Q 252 345 276 351 L 324 360 Q 366 370 402 376 C 432 381 437 402 407 406 Q 403 407 400 407 L 396 407 Q 376 407 346 399 Q 333 396 324 393 L 280 381 L 279 381 L 274 380 L 206 361 C 177 353 180 336 210 337 Z" />
      </clipPath>
      <path clip-path="url(#make-me-a-hanzi-clip-3)" d="M 214 344 L 271 365 L 388 390 L 402 399" fill="none" id="make-me-a-hanzi-animation-3" stroke-dasharray="325 650" stroke-linecap="round" />
    
      <clipPath id="make-me-a-hanzi-clip-4">
        <path d="M 225 256 Q 229 257 235 257 Q 254 263 279 267 L 324 274 Q 348 278 376 279 C 406 280 401 295 373 307 Q 368 310 360 310 Q 352 310 341 307 Q 330 304 323 303 L 279 293 Q 248 285 223 282 C 193 278 195 251 225 256 Z" />
      </clipPath>
      <path clip-path="url(#make-me-a-hanzi-clip-4)" d="M 229 263 L 245 274 L 304 286 L 358 294 L 369 285" fill="none" id="make-me-a-hanzi-animation-4" stroke-dasharray="276 552" stroke-linecap="round" />
    
      <clipPath id="make-me-a-hanzi-clip-5">
        <path d="M 279 189 Q 190 165 168 161 Q 130 154 100 151 Q 87 148 86 142 L 86 138 Q 86 128 98 121 Q 115 109 136 106 Q 142 105 148 105 Q 161 105 174 111 Q 236 134 278 146 L 324 159 Q 369 169 423 178 Q 439 182 439 188 Q 439 201 423 208 Q 406 214 392 214 Q 383 214 375 212 Q 346 206 324 200 L 279 189 Z" />
      </clipPath>
      <path clip-path="url(#make-me-a-hanzi-clip-5)" d="M 94 140 L 121 132 L 159 133 L 372 191 L 429 191" fill="none" id="make-me-a-hanzi-animation-5" stroke-dasharray="472 944" stroke-linecap="round" />
    
      <clipPath id="make-me-a-hanzi-clip-6">
        <path d="M 279 267 L 279 189 L 278 146 Q 277 121 277 97 Q 271 -6 270 -22 L 270 -29 Q 270 -42 273 -55 Q 278 -75 290 -88 Q 296 -94 300 -94 Q 305 -94 309 -86 Q 322 -62 325 -47 Q 328 -31 328 -16 Q 328 -8 327 0 Q 324 28 324 76 L 324 159 L 324 200 L 324 274 L 323 303 L 323 319 Q 324 337 325 340 L 325 345 Q 325 351 323 354 Q 324 357 324 360 L 324 393 Q 325 425 326 452 L 326 485 Q 329 520 329 551 L 329 557 L 330 600 Q 331 641 334 666 Q 336 680 339 692 Q 342 701 342 707 Q 342 715 337 719 Q 305 745 281 751 L 277 751 Q 266 751 256 743 Q 253 740 253 736 Q 253 732 256 727 Q 270 707 273 695 Q 276 682 276 661 Q 277 624 277 585 L 278 545 L 278 472 L 279 440 Q 280 411 280 381 L 276 351 Q 279 341 279 329 L 279 293 L 279 267 Z" />
      </clipPath>
      <path clip-path="url(#make-me-a-hanzi-clip-6)" d="M 265 735 L 280 730 L 306 700 L 299 -84" fill="none" id="make-me-a-hanzi-animation-6" stroke-dasharray="968 1936" stroke-linecap="round" />
    
      <clipPath id="make-me-a-hanzi-clip-7">
        <path d="M 657 625 Q 726 639 798 651 Q 839 660 843 664 Q 848 670 848 675 Q 848 677 847 679 Q 840 691 815 697 Q 805 699 794 699 Q 777 699 760 693 Q 714 677 666 668 Q 613 656 550 652 Q 530 651 530 645 Q 530 640 541 632 Q 555 621 574 618 Q 582 617 591 617 Q 605 617 621 619 L 657 625 Z" />
      </clipPath>
      <path clip-path="url(#make-me-a-hanzi-clip-7)" d="M 536 644 L 572 636 L 611 637 L 781 673 L 836 674" fill="none" id="make-me-a-hanzi-animation-7" stroke-dasharray="433 866" stroke-linecap="round" />
    
      <clipPath id="make-me-a-hanzi-clip-8">
        <path d="M 615 516 L 639 539 Q 651 553 660 562 Q 671 576 686 588 Q 693 595 693 601 Q 693 606 687 610 Q 675 621 657 625 C 628 632 615 636 621 619 L 623 613 Q 625 608 625 601 Q 625 594 623 586 Q 617 567 611 552 L 592 509 C 580 483 593 495 615 516 Z" />
      </clipPath>
      <path clip-path="url(#make-me-a-hanzi-clip-8)" d="M 627 618 L 653 595 L 607 521 L 596 516" fill="none" id="make-me-a-hanzi-animation-8" stroke-dasharray="262 524" stroke-linecap="round" />
    
      <clipPath id="make-me-a-hanzi-clip-9">
        <path d="M 529 495 Q 522 500 515 503 Q 505 510 495 510 L 493 510 Q 489 510 487 507 Q 486 505 486 502 Q 486 497 488 492 Q 504 469 505 448 Q 509 407 509 364 L 509 347 Q 508 343 508 338 Q 508 325 515 314 Q 526 299 538 290 Q 543 288 546 288 Q 550 288 550 293 Q 556 297 556 312 L 556 319 Q 556 334 553 365 Q 547 437 547 462 L 547 463 C 547 483 547 483 529 495 Z" />
      </clipPath>
      <path clip-path="url(#make-me-a-hanzi-clip-9)" d="M 493 503 L 516 481 L 525 458 L 532 335 L 543 294" fill="none" id="make-me-a-hanzi-animation-9" stroke-dasharray="350 700" stroke-linecap="round" />
    
      <clipPath id="make-me-a-hanzi-clip-10">
        <path d="M 592 509 Q 556 498 529 495 C 499 490 517 459 547 463 Q 558 463 570 467 Q 586 476 610 483 L 644 492 L 670 498 Q 683 502 695 505 L 725 511 Q 770 520 822 523 Q 839 522 845 515 Q 848 511 848 503 L 848 498 Q 846 394 839 379 Q 835 372 826 372 L 823 372 Q 803 373 782 373 L 777 373 Q 768 373 768 370 Q 768 366 776 360 Q 825 323 846 296 Q 850 291 855 291 Q 858 291 862 294 Q 874 305 880 321 Q 888 339 894 441 Q 897 479 909 497 Q 918 511 918 517 Q 918 520 917 521 Q 908 532 868 557 Q 857 564 848 564 Q 843 564 839 562 Q 816 551 774 544 Q 666 528 615 516 L 592 509 Z" />
      </clipPath>
      <path clip-path="url(#make-me-a-hanzi-clip-10)" d="M 535 491 L 557 482 L 747 529 L 849 541 L 880 511 L 870 462 L 867 388 L 858 357 L 847 345 L 774 367" fill="none" id="make-me-a-hanzi-animation-10" stroke-dasharray="742 1484" stroke-linecap="round" />
    
      <clipPath id="make-me-a-hanzi-clip-11">
        <path d="M 610 483 Q 614 479 614 473 Q 616 459 617 446 Q 619 420 622 395 Q 622 380 621 368 Q 619 359 619 352 Q 619 345 621 340 Q 625 327 631 317 Q 636 308 639 305 L 641 305 Q 645 305 647 307 Q 651 311 654 321 Q 658 335 658 350 Q 656 359 656 437 Q 656 454 659 464 Q 661 471 661 476 L 661 479 Q 659 485 644 492 C 617 506 594 509 610 483 Z" />
      </clipPath>
      <path clip-path="url(#make-me-a-hanzi-clip-11)" d="M 617 480 L 637 467 L 640 314" fill="none" id="make-me-a-hanzi-animation-11" stroke-dasharray="305 610" stroke-linecap="round" />
    
      <clipPath id="make-me-a-hanzi-clip-12">
        <path d="M 695 505 L 695 504 Q 695 501 697 499 Q 700 495 700 494 Q 705 488 705 479 Q 708 440 711 380 L 715 330 Q 718 314 722 308 Q 726 305 729 305 L 730 305 Q 736 308 739 317 Q 743 327 744 348 Q 747 367 747 385 Q 747 400 750 460 Q 751 468 751 471 Q 753 477 753 480 L 753 484 Q 753 493 746 498 Q 732 508 725 511 C 698 525 686 531 695 505 Z" />
      </clipPath>
      <path clip-path="url(#make-me-a-hanzi-clip-12)" d="M 703 505 L 729 481 L 730 315" fill="none" id="make-me-a-hanzi-animation-12" stroke-dasharray="329 658" stroke-linecap="round" />
    
      <clipPath id="make-me-a-hanzi-clip-13">
        <path d="M 491 165 Q 480 163 480 158 Q 480 155 487 149 Q 500 137 515 134 Q 524 132 532 132 Q 540 132 547 134 Q 597 147 651 156 L 704 164 Q 771 174 846 177 Q 909 180 924 180 Q 941 182 944 188 Q 945 191 945 194 Q 945 202 934 209 Q 908 227 890 233 Q 883 235 874 235 Q 866 235 857 233 Q 800 220 712 204 L 659 195 L 491 165 Z" />
      </clipPath>
      <path clip-path="url(#make-me-a-hanzi-clip-13)" d="M 488 157 L 537 152 L 655 176 L 872 207 L 935 193" fill="none" id="make-me-a-hanzi-animation-13" stroke-dasharray="581 1162" stroke-linecap="round" />
    
      <clipPath id="make-me-a-hanzi-clip-14">
        <path d="M 651 156 Q 642 126 632 104 Q 611 63 575 35 Q 530 -1 431 -37 Q 423 -42 423 -45 Q 423 -48 435 -48 Q 492 -48 544 -27 Q 589 -11 623 19 Q 657 50 678 92 Q 695 127 704 164 L 712 204 Q 721 237 728 246 Q 732 252 732 257 Q 732 262 727 267 Q 715 280 691 286 Q 681 289 672 289 Q 663 289 655 286 Q 647 283 647 277 Q 647 273 650 269 Q 659 255 662 234 Q 662 216 659 195 L 651 156 Z" />
      </clipPath>
      <path clip-path="url(#make-me-a-hanzi-clip-14)" d="M 657 276 L 693 251 L 675 149 L 639 72 L 604 30 L 558 -1 L 503 -25 L 430 -44" fill="none" id="make-me-a-hanzi-animation-14" stroke-dasharray="606 1212" stroke-linecap="round" />
    
      <clipPath id="make-me-a-hanzi-clip-15">
        <path d="M 887 -46 Q 904 -63 916 -64 L 917 -64 Q 925 -64 930 -56 Q 933 -51 933 -42 Q 933 -28 925 -6 Q 916 16 901 26 Q 878 47 824 69 Q 762 97 729 107 L 726 107 Q 720 107 720 100 Q 722 87 731 80 Q 802 29 887 -46 Z" />
      </clipPath>
      <path clip-path="url(#make-me-a-hanzi-clip-15)" d="M 728 100 L 870 11 L 895 -13 L 917 -49" fill="none" id="make-me-a-hanzi-animation-15" stroke-dasharray="372 744" stroke-linecap="round" />
    
  </g>
</svg>