<svg version="1.1" viewBox="0 0 1024 1024" xmlns="http://www.w3.org/2000/svg">
  <g stroke="lightgray" stroke-dasharray="1,1" stroke-width="1" transform="scale(4, 4)">
    <line x1="0" y1="0" x2="256" y2="256"></line>
    <line x1="256" y1="0" x2="0" y2="256"></line>
    <line x1="128" y1="0" x2="128" y2="256"></line>
    <line x1="0" y1="128" x2="256" y2="128"></line>
  </g>
  <g transform="scale(0.92, -0.92) translate(60, -830)">
    <style type="text/css">
      
        @keyframes keyframes0 {
          from {
            stroke: blue;
            stroke-dashoffset: 460;
            stroke-width: 128;
          }
          60% {
            animation-timing-function: step-end;
            stroke: blue;
            stroke-dashoffset: 0;
            stroke-width: 128;
          }
          to {
            stroke: black;
            stroke-width: 1024;
          }
        }
        #make-me-a-hanzi-animation-0 {
          animation: keyframes0 0.6243489583333334s both;
          animation-delay: 0s;
          animation-timing-function: linear;
        }
      
        @keyframes keyframes1 {
          from {
            stroke: blue;
            stroke-dashoffset: 447;
            stroke-width: 128;
          }
          59% {
            animation-timing-function: step-end;
            stroke: blue;
            stroke-dashoffset: 0;
            stroke-width: 128;
          }
          to {
            stroke: black;
            stroke-width: 1024;
          }
        }
        #make-me-a-hanzi-animation-1 {
          animation: keyframes1 0.61376953125s both;
          animation-delay: 0.6243489583333334s;
          animation-timing-function: linear;
        }
      
        @keyframes keyframes2 {
          from {
            stroke: blue;
            stroke-dashoffset: 616;
            stroke-width: 128;
          }
          67% {
            animation-timing-function: step-end;
            stroke: blue;
            stroke-dashoffset: 0;
            stroke-width: 128;
          }
          to {
            stroke: black;
            stroke-width: 1024;
          }
        }
        #make-me-a-hanzi-animation-2 {
          animation: keyframes2 0.7513020833333334s both;
          animation-delay: 1.2381184895833335s;
          animation-timing-function: linear;
        }
      
        @keyframes keyframes3 {
          from {
            stroke: blue;
            stroke-dashoffset: 351;
            stroke-width: 128;
          }
          53% {
            animation-timing-function: step-end;
            stroke: blue;
            stroke-dashoffset: 0;
            stroke-width: 128;
          }
          to {
            stroke: black;
            stroke-width: 1024;
          }
        }
        #make-me-a-hanzi-animation-3 {
          animation: keyframes3 0.53564453125s both;
          animation-delay: 1.989420572916667s;
          animation-timing-function: linear;
        }
      
        @keyframes keyframes4 {
          from {
            stroke: blue;
            stroke-dashoffset: 383;
            stroke-width: 128;
          }
          55% {
            animation-timing-function: step-end;
            stroke: blue;
            stroke-dashoffset: 0;
            stroke-width: 128;
          }
          to {
            stroke: black;
            stroke-width: 1024;
          }
        }
        #make-me-a-hanzi-animation-4 {
          animation: keyframes4 0.5616861979166666s both;
          animation-delay: 2.525065104166667s;
          animation-timing-function: linear;
        }
      
        @keyframes keyframes5 {
          from {
            stroke: blue;
            stroke-dashoffset: 509;
            stroke-width: 128;
          }
          62% {
            animation-timing-function: step-end;
            stroke: blue;
            stroke-dashoffset: 0;
            stroke-width: 128;
          }
          to {
            stroke: black;
            stroke-width: 1024;
          }
        }
        #make-me-a-hanzi-animation-5 {
          animation: keyframes5 0.6642252604166666s both;
          animation-delay: 3.0867513020833335s;
          animation-timing-function: linear;
        }
      
        @keyframes keyframes6 {
          from {
            stroke: blue;
            stroke-dashoffset: 726;
            stroke-width: 128;
          }
          70% {
            animation-timing-function: step-end;
            stroke: blue;
            stroke-dashoffset: 0;
            stroke-width: 128;
          }
          to {
            stroke: black;
            stroke-width: 1024;
          }
        }
        #make-me-a-hanzi-animation-6 {
          animation: keyframes6 0.8408203125s both;
          animation-delay: 3.7509765625s;
          animation-timing-function: linear;
        }
      
        @keyframes keyframes7 {
          from {
            stroke: blue;
            stroke-dashoffset: 378;
            stroke-width: 128;
          }
          55% {
            animation-timing-function: step-end;
            stroke: blue;
            stroke-dashoffset: 0;
            stroke-width: 128;
          }
          to {
            stroke: black;
            stroke-width: 1024;
          }
        }
        #make-me-a-hanzi-animation-7 {
          animation: keyframes7 0.5576171875s both;
          animation-delay: 4.591796875s;
          animation-timing-function: linear;
        }
      
        @keyframes keyframes8 {
          from {
            stroke: blue;
            stroke-dashoffset: 626;
            stroke-width: 128;
          }
          67% {
            animation-timing-function: step-end;
            stroke: blue;
            stroke-dashoffset: 0;
            stroke-width: 128;
          }
          to {
            stroke: black;
            stroke-width: 1024;
          }
        }
        #make-me-a-hanzi-animation-8 {
          animation: keyframes8 0.7594401041666666s both;
          animation-delay: 5.1494140625s;
          animation-timing-function: linear;
        }
      
        @keyframes keyframes9 {
          from {
            stroke: blue;
            stroke-dashoffset: 342;
            stroke-width: 128;
          }
          53% {
            animation-timing-function: step-end;
            stroke: blue;
            stroke-dashoffset: 0;
            stroke-width: 128;
          }
          to {
            stroke: black;
            stroke-width: 1024;
          }
        }
        #make-me-a-hanzi-animation-9 {
          animation: keyframes9 0.5283203125s both;
          animation-delay: 5.908854166666667s;
          animation-timing-function: linear;
        }
      
        @keyframes keyframes10 {
          from {
            stroke: blue;
            stroke-dashoffset: 343;
            stroke-width: 128;
          }
          53% {
            animation-timing-function: step-end;
            stroke: blue;
            stroke-dashoffset: 0;
            stroke-width: 128;
          }
          to {
            stroke: black;
            stroke-width: 1024;
          }
        }
        #make-me-a-hanzi-animation-10 {
          animation: keyframes10 0.5291341145833334s both;
          animation-delay: 6.437174479166667s;
          animation-timing-function: linear;
        }
      
        @keyframes keyframes11 {
          from {
            stroke: blue;
            stroke-dashoffset: 761;
            stroke-width: 128;
          }
          71% {
            animation-timing-function: step-end;
            stroke: blue;
            stroke-dashoffset: 0;
            stroke-width: 128;
          }
          to {
            stroke: black;
            stroke-width: 1024;
          }
        }
        #make-me-a-hanzi-animation-11 {
          animation: keyframes11 0.8693033854166666s both;
          animation-delay: 6.96630859375s;
          animation-timing-function: linear;
        }
      
        @keyframes keyframes12 {
          from {
            stroke: blue;
            stroke-dashoffset: 339;
            stroke-width: 128;
          }
          52% {
            animation-timing-function: step-end;
            stroke: blue;
            stroke-dashoffset: 0;
            stroke-width: 128;
          }
          to {
            stroke: black;
            stroke-width: 1024;
          }
        }
        #make-me-a-hanzi-animation-12 {
          animation: keyframes12 0.52587890625s both;
          animation-delay: 7.835611979166667s;
          animation-timing-function: linear;
        }
      
        @keyframes keyframes13 {
          from {
            stroke: blue;
            stroke-dashoffset: 338;
            stroke-width: 128;
          }
          52% {
            animation-timing-function: step-end;
            stroke: blue;
            stroke-dashoffset: 0;
            stroke-width: 128;
          }
          to {
            stroke: black;
            stroke-width: 1024;
          }
        }
        #make-me-a-hanzi-animation-13 {
          animation: keyframes13 0.5250651041666666s both;
          animation-delay: 8.361490885416668s;
          animation-timing-function: linear;
        }
      
        @keyframes keyframes14 {
          from {
            stroke: blue;
            stroke-dashoffset: 1099;
            stroke-width: 128;
          }
          78% {
            animation-timing-function: step-end;
            stroke: blue;
            stroke-dashoffset: 0;
            stroke-width: 128;
          }
          to {
            stroke: black;
            stroke-width: 1024;
          }
        }
        #make-me-a-hanzi-animation-14 {
          animation: keyframes14 1.1443684895833333s both;
          animation-delay: 8.886555989583334s;
          animation-timing-function: linear;
        }
      
        @keyframes keyframes15 {
          from {
            stroke: blue;
            stroke-dashoffset: 562;
            stroke-width: 128;
          }
          65% {
            animation-timing-function: step-end;
            stroke: blue;
            stroke-dashoffset: 0;
            stroke-width: 128;
          }
          to {
            stroke: black;
            stroke-width: 1024;
          }
        }
        #make-me-a-hanzi-animation-15 {
          animation: keyframes15 0.7073567708333334s both;
          animation-delay: 10.030924479166668s;
          animation-timing-function: linear;
        }
      
        @keyframes keyframes16 {
          from {
            stroke: blue;
            stroke-dashoffset: 501;
            stroke-width: 128;
          }
          62% {
            animation-timing-function: step-end;
            stroke: blue;
            stroke-dashoffset: 0;
            stroke-width: 128;
          }
          to {
            stroke: black;
            stroke-width: 1024;
          }
        }
        #make-me-a-hanzi-animation-16 {
          animation: keyframes16 0.65771484375s both;
          animation-delay: 10.738281250000002s;
          animation-timing-function: linear;
        }
      
    </style>
    
      <path d="M 525 568 L 602 582 Q 627 587 614 600 Q 592 621 529 605 L 483 595 L 409 583 Q 387 578 395 568 Q 403 555 436 557 Q 453 556 483 562 L 525 568 Z" fill="lightgray"></path>
    
      <path d="M 413 510 L 385 515 Q 367 516 364 512 Q 362 508 373 498 Q 385 487 393 441 L 403 370 Q 405 355 407 347 Q 413 328 422 330 Q 432 332 434 353 L 432 383 Q 432 398 427 488 C 426 508 426 508 413 510 Z" fill="lightgray"></path>
    
      <path d="M 585 461 L 566 387 C 562 371 562 371 567 364 L 575 353 Q 574 343 593 353 Q 599 357 611 394 L 636 479 L 644 495 Q 651 511 651 515 Q 650 521 629 534 Q 608 546 598 546 L 522 526 L 483 518 L 413 510 C 383 507 397 486 427 488 L 483 492 L 522 497 L 563 506 Q 577 508 582 506 Q 597 501 587 468 Q 585 464 585 461 Z" fill="lightgray"></path>
    
      <path d="M 522 428 L 556 431 Q 562 435 563 448 Q 565 461 550 463 Q 535 465 522 460 L 482 453 L 452 448 Q 445 447 445 438 Q 445 429 451 427 Q 452 424 456 425 L 482 426 L 522 428 Z" fill="lightgray"></path>
    
      <path d="M 566 387 L 554 393 Q 551 395 540 394 L 520 392 L 480 386 L 432 383 C 402 381 404 351 434 353 L 480 356 L 520 362 L 567 364 C 597 365 593 374 566 387 Z" fill="lightgray"></path>
    
      <path d="M 476 311 L 442 305 Q 421 301 403 302 L 368 302 C 364 302 364 302 365 300 L 372 287 Q 375 281 387 274 Q 399 267 407 267 L 472 278 L 520 284 L 598 284 Q 618 284 626 288 Q 635 292 626 305 Q 611 319 590 324 Q 581 328 576 328 L 520 315 L 476 311 Z" fill="lightgray"></path>
    
      <path d="M 520 392 L 522 428 L 522 460 L 522 497 L 522 526 L 525 568 L 529 605 L 532 628 L 539 652 Q 538 666 514 675 Q 497 683 482 684 Q 463 686 469 670 Q 480 646 483 618 L 483 595 L 483 562 L 483 518 L 483 492 L 482 453 L 482 426 L 480 386 L 480 356 L 476 311 L 472 278 L 470 253 Q 466 237 476 218 Q 477 216 486 213 Q 495 209 497 206 L 509 214 Q 520 222 520 251 L 520 284 L 520 315 L 520 362 L 520 392 Z" fill="lightgray"></path>
    
      <path d="M 275 530 L 315 548 Q 346 562 359 566 Q 379 571 381 585 Q 381 599 343 628 Q 330 635 325 634 Q 320 633 315 620 Q 304 591 255 543 C 234 522 248 518 275 530 Z" fill="lightgray"></path>
    
      <path d="M 279 312 L 274 395 L 272 426 L 270 481 Q 269 491 273 504 Q 277 517 275 530 C 275 539 275 539 255 543 L 232 548 Q 187 557 203 528 Q 211 512 221 436 L 245 180 C 248 150 290 153 288 183 L 281 282 L 279 312 Z" fill="lightgray"></path>
    
      <path d="M 274 395 L 305 398 Q 353 407 363 416 Q 374 425 371 429 Q 359 444 332 441 L 300 434 L 272 426 C 243 418 244 392 274 395 Z" fill="lightgray"></path>
    
      <path d="M 368 302 L 375 309 Q 379 312 378 320 Q 374 332 345 332 Q 337 331 322 326 Q 307 320 303 319 L 279 312 C 250 304 252 276 281 282 L 310 288 L 343 293 Q 349 294 365 300 L 368 302 Z" fill="lightgray"></path>
    
      <path d="M 741 217 L 785 468 Q 794 526 814 549 Q 823 560 825 564 Q 825 583 787 607 Q 768 620 754 621 Q 741 622 707 611 Q 673 599 663 598 L 642 594 Q 638 593 638 588 Q 638 582 649 577 Q 661 571 672 571 L 721 578 Q 734 578 736 575 Q 739 571 737 555 L 735 527 L 728 475 L 724 438 L 714 358 L 711 318 L 696 212 C 692 182 736 187 741 217 Z" fill="lightgray"></path>
    
      <path d="M 728 475 L 672 467 Q 661 464 650 462 Q 640 459 636 456 Q 633 453 634 445 Q 634 423 724 438 C 754 443 758 479 728 475 Z" fill="lightgray"></path>
    
      <path d="M 714 358 Q 691 355 640 343 Q 630 340 629 334 Q 627 332 628 329 Q 628 325 641 318 Q 654 311 711 318 C 741 322 744 362 714 358 Z" fill="lightgray"></path>
    
      <path d="M 245 180 L 209 176 Q 163 172 143 172 L 75 170 Q 64 168 61 165 Q 58 162 62 152 Q 67 142 94 126 Q 121 110 131 111 Q 141 112 177 124 Q 214 136 394 150 L 499 158 Q 569 163 712 166 L 825 164 L 858 162 Q 917 160 917 181 Q 916 189 886 209 Q 857 229 836 229 L 775 220 L 741 217 L 696 212 L 569 203 Q 482 196 403 191 L 288 183 L 245 180 Z" fill="lightgray"></path>
    
      <path d="M 167 -110 L 207 -92 Q 238 -80 289 -42 L 325 -14 Q 346 4 360 17 Q 375 29 392 38 L 403 44 Q 411 48 411 52 Q 411 55 405 62 Q 386 86 339 95 Q 325 98 321 96 Q 318 93 315 76 Q 312 59 284 26 Q 256 -7 235 -29 Q 215 -52 155 -102 Q 151 -105 151 -108 Q 152 -118 167 -110 Z" fill="lightgray"></path>
    
      <path d="M 628 87 L 698 -2 Q 706 -11 754 -81 Q 761 -92 770 -98 Q 789 -114 801 -100 Q 814 -87 813 -61 Q 811 -15 781 14 Q 751 44 723 59 Q 695 73 670 84 L 636 99 Q 628 102 625 99 Q 622 95 628 87 Z" fill="lightgray"></path>
    
    
      <clipPath id="make-me-a-hanzi-clip-0">
        <path d="M 525 568 L 602 582 Q 627 587 614 600 Q 592 621 529 605 L 483 595 L 409 583 Q 387 578 395 568 Q 403 555 436 557 Q 453 556 483 562 L 525 568 Z"></path>
      </clipPath>
      <path clip-path="url(#make-me-a-hanzi-clip-0)" d="M 405 573 L 471 575 L 574 595 L 607 592" fill="none" id="make-me-a-hanzi-animation-0" stroke-dasharray="332 664" stroke-linecap="round"></path>
    
      <clipPath id="make-me-a-hanzi-clip-1">
        <path d="M 413 510 L 385 515 Q 367 516 364 512 Q 362 508 373 498 Q 385 487 393 441 L 403 370 Q 405 355 407 347 Q 413 328 422 330 Q 432 332 434 353 L 432 383 Q 432 398 427 488 C 426 508 426 508 413 510 Z"></path>
      </clipPath>
      <path clip-path="url(#make-me-a-hanzi-clip-1)" d="M 369 510 L 390 501 L 406 482 L 421 339" fill="none" id="make-me-a-hanzi-animation-1" stroke-dasharray="319 638" stroke-linecap="round"></path>
    
      <clipPath id="make-me-a-hanzi-clip-2">
        <path d="M 585 461 L 566 387 C 562 371 562 371 567 364 L 575 353 Q 574 343 593 353 Q 599 357 611 394 L 636 479 L 644 495 Q 651 511 651 515 Q 650 521 629 534 Q 608 546 598 546 L 522 526 L 483 518 L 413 510 C 383 507 397 486 427 488 L 483 492 L 522 497 L 563 506 Q 577 508 582 506 Q 597 501 587 468 Q 585 464 585 461 Z"></path>
      </clipPath>
      <path clip-path="url(#make-me-a-hanzi-clip-2)" d="M 420 507 L 435 501 L 488 505 L 581 524 L 611 515 L 617 503 L 613 478 L 586 382 L 584 356" fill="none" id="make-me-a-hanzi-animation-2" stroke-dasharray="488 976" stroke-linecap="round"></path>
    
      <clipPath id="make-me-a-hanzi-clip-3">
        <path d="M 522 428 L 556 431 Q 562 435 563 448 Q 565 461 550 463 Q 535 465 522 460 L 482 453 L 452 448 Q 445 447 445 438 Q 445 429 451 427 Q 452 424 456 425 L 482 426 L 522 428 Z"></path>
      </clipPath>
      <path clip-path="url(#make-me-a-hanzi-clip-3)" d="M 457 437 L 542 447 L 549 441" fill="none" id="make-me-a-hanzi-animation-3" stroke-dasharray="223 446" stroke-linecap="round"></path>
    
      <clipPath id="make-me-a-hanzi-clip-4">
        <path d="M 566 387 L 554 393 Q 551 395 540 394 L 520 392 L 480 386 L 432 383 C 402 381 404 351 434 353 L 480 356 L 520 362 L 567 364 C 597 365 593 374 566 387 Z"></path>
      </clipPath>
      <path clip-path="url(#make-me-a-hanzi-clip-4)" d="M 438 376 L 456 369 L 536 379 L 552 378 L 559 369" fill="none" id="make-me-a-hanzi-animation-4" stroke-dasharray="255 510" stroke-linecap="round"></path>
    
      <clipPath id="make-me-a-hanzi-clip-5">
        <path d="M 476 311 L 442 305 Q 421 301 403 302 L 368 302 C 364 302 364 302 365 300 L 372 287 Q 375 281 387 274 Q 399 267 407 267 L 472 278 L 520 284 L 598 284 Q 618 284 626 288 Q 635 292 626 305 Q 611 319 590 324 Q 581 328 576 328 L 520 315 L 476 311 Z"></path>
      </clipPath>
      <path clip-path="url(#make-me-a-hanzi-clip-5)" d="M 371 295 L 411 285 L 574 305 L 621 297" fill="none" id="make-me-a-hanzi-animation-5" stroke-dasharray="381 762" stroke-linecap="round"></path>
    
      <clipPath id="make-me-a-hanzi-clip-6">
        <path d="M 520 392 L 522 428 L 522 460 L 522 497 L 522 526 L 525 568 L 529 605 L 532 628 L 539 652 Q 538 666 514 675 Q 497 683 482 684 Q 463 686 469 670 Q 480 646 483 618 L 483 595 L 483 562 L 483 518 L 483 492 L 482 453 L 482 426 L 480 386 L 480 356 L 476 311 L 472 278 L 470 253 Q 466 237 476 218 Q 477 216 486 213 Q 495 209 497 206 L 509 214 Q 520 222 520 251 L 520 284 L 520 315 L 520 362 L 520 392 Z"></path>
      </clipPath>
      <path clip-path="url(#make-me-a-hanzi-clip-6)" d="M 477 676 L 507 647 L 497 219" fill="none" id="make-me-a-hanzi-animation-6" stroke-dasharray="598 1196" stroke-linecap="round"></path>
    
      <clipPath id="make-me-a-hanzi-clip-7">
        <path d="M 275 530 L 315 548 Q 346 562 359 566 Q 379 571 381 585 Q 381 599 343 628 Q 330 635 325 634 Q 320 633 315 620 Q 304 591 255 543 C 234 522 248 518 275 530 Z"></path>
      </clipPath>
      <path clip-path="url(#make-me-a-hanzi-clip-7)" d="M 327 626 L 335 591 L 277 545 L 265 547" fill="none" id="make-me-a-hanzi-animation-7" stroke-dasharray="250 500" stroke-linecap="round"></path>
    
      <clipPath id="make-me-a-hanzi-clip-8">
        <path d="M 279 312 L 274 395 L 272 426 L 270 481 Q 269 491 273 504 Q 277 517 275 530 C 275 539 275 539 255 543 L 232 548 Q 187 557 203 528 Q 211 512 221 436 L 245 180 C 248 150 290 153 288 183 L 281 282 L 279 312 Z"></path>
      </clipPath>
      <path clip-path="url(#make-me-a-hanzi-clip-8)" d="M 210 538 L 232 522 L 242 505 L 265 203 L 252 188" fill="none" id="make-me-a-hanzi-animation-8" stroke-dasharray="498 996" stroke-linecap="round"></path>
    
      <clipPath id="make-me-a-hanzi-clip-9">
        <path d="M 274 395 L 305 398 Q 353 407 363 416 Q 374 425 371 429 Q 359 444 332 441 L 300 434 L 272 426 C 243 418 244 392 274 395 Z"></path>
      </clipPath>
      <path clip-path="url(#make-me-a-hanzi-clip-9)" d="M 281 403 L 290 413 L 361 426" fill="none" id="make-me-a-hanzi-animation-9" stroke-dasharray="214 428" stroke-linecap="round"></path>
    
      <clipPath id="make-me-a-hanzi-clip-10">
        <path d="M 368 302 L 375 309 Q 379 312 378 320 Q 374 332 345 332 Q 337 331 322 326 Q 307 320 303 319 L 279 312 C 250 304 252 276 281 282 L 310 288 L 343 293 Q 349 294 365 300 L 368 302 Z"></path>
      </clipPath>
      <path clip-path="url(#make-me-a-hanzi-clip-10)" d="M 287 290 L 295 301 L 367 317" fill="none" id="make-me-a-hanzi-animation-10" stroke-dasharray="215 430" stroke-linecap="round"></path>
    
      <clipPath id="make-me-a-hanzi-clip-11">
        <path d="M 741 217 L 785 468 Q 794 526 814 549 Q 823 560 825 564 Q 825 583 787 607 Q 768 620 754 621 Q 741 622 707 611 Q 673 599 663 598 L 642 594 Q 638 593 638 588 Q 638 582 649 577 Q 661 571 672 571 L 721 578 Q 734 578 736 575 Q 739 571 737 555 L 735 527 L 728 475 L 724 438 L 714 358 L 711 318 L 696 212 C 692 182 736 187 741 217 Z"></path>
      </clipPath>
      <path clip-path="url(#make-me-a-hanzi-clip-11)" d="M 647 586 L 676 585 L 720 597 L 745 597 L 759 591 L 777 566 L 759 491 L 724 244 L 703 219" fill="none" id="make-me-a-hanzi-animation-11" stroke-dasharray="633 1266" stroke-linecap="round"></path>
    
      <clipPath id="make-me-a-hanzi-clip-12">
        <path d="M 728 475 L 672 467 Q 661 464 650 462 Q 640 459 636 456 Q 633 453 634 445 Q 634 423 724 438 C 754 443 758 479 728 475 Z"></path>
      </clipPath>
      <path clip-path="url(#make-me-a-hanzi-clip-12)" d="M 646 446 L 705 452 L 722 469" fill="none" id="make-me-a-hanzi-animation-12" stroke-dasharray="211 422" stroke-linecap="round"></path>
    
      <clipPath id="make-me-a-hanzi-clip-13">
        <path d="M 714 358 Q 691 355 640 343 Q 630 340 629 334 Q 627 332 628 329 Q 628 325 641 318 Q 654 311 711 318 C 741 322 744 362 714 358 Z"></path>
      </clipPath>
      <path clip-path="url(#make-me-a-hanzi-clip-13)" d="M 635 330 L 693 335 L 710 352" fill="none" id="make-me-a-hanzi-animation-13" stroke-dasharray="210 420" stroke-linecap="round"></path>
    
      <clipPath id="make-me-a-hanzi-clip-14">
        <path d="M 245 180 L 209 176 Q 163 172 143 172 L 75 170 Q 64 168 61 165 Q 58 162 62 152 Q 67 142 94 126 Q 121 110 131 111 Q 141 112 177 124 Q 214 136 394 150 L 499 158 Q 569 163 712 166 L 825 164 L 858 162 Q 917 160 917 181 Q 916 189 886 209 Q 857 229 836 229 L 775 220 L 741 217 L 696 212 L 569 203 Q 482 196 403 191 L 288 183 L 245 180 Z"></path>
      </clipPath>
      <path clip-path="url(#make-me-a-hanzi-clip-14)" d="M 71 159 L 127 142 L 340 167 L 706 190 L 838 196 L 907 180" fill="none" id="make-me-a-hanzi-animation-14" stroke-dasharray="971 1942" stroke-linecap="round"></path>
    
      <clipPath id="make-me-a-hanzi-clip-15">
        <path d="M 167 -110 L 207 -92 Q 238 -80 289 -42 L 325 -14 Q 346 4 360 17 Q 375 29 392 38 L 403 44 Q 411 48 411 52 Q 411 55 405 62 Q 386 86 339 95 Q 325 98 321 96 Q 318 93 315 76 Q 312 59 284 26 Q 256 -7 235 -29 Q 215 -52 155 -102 Q 151 -105 151 -108 Q 152 -118 167 -110 Z"></path>
      </clipPath>
      <path clip-path="url(#make-me-a-hanzi-clip-15)" d="M 402 53 L 347 54 L 245 -49 L 157 -108" fill="none" id="make-me-a-hanzi-animation-15" stroke-dasharray="434 868" stroke-linecap="round"></path>
    
      <clipPath id="make-me-a-hanzi-clip-16">
        <path d="M 628 87 L 698 -2 Q 706 -11 754 -81 Q 761 -92 770 -98 Q 789 -114 801 -100 Q 814 -87 813 -61 Q 811 -15 781 14 Q 751 44 723 59 Q 695 73 670 84 L 636 99 Q 628 102 625 99 Q 622 95 628 87 Z"></path>
      </clipPath>
      <path clip-path="url(#make-me-a-hanzi-clip-16)" d="M 631 94 L 722 22 L 749 -7 L 771 -38 L 786 -87" fill="none" id="make-me-a-hanzi-animation-16" stroke-dasharray="373 746" stroke-linecap="round"></path>
    
  </g>
</svg>