<svg xmlns="http://www.w3.org/2000/svg" version="1.1" viewBox="0 0 1024 1024">
  <g stroke="lightgray" stroke-dasharray="1,1" stroke-width="1" transform="scale(4, 4)">
    <line x1="0" y1="0" x2="256" y2="256" />
    <line x1="256" y1="0" x2="0" y2="256" />
    <line x1="128" y1="0" x2="128" y2="256" />
    <line x1="0" y1="128" x2="256" y2="128" />
  </g>
  <g transform="scale(1.0, -1.0) translate(0.0, -793.50)">
    <style type="text/css">
      
        @keyframes keyframes0 {
          from {
            stroke: blue;
            stroke-dashoffset: 541;
            stroke-width: 128;
          }
          64% {
            animation-timing-function: step-end;
            stroke: blue;
            stroke-dashoffset: 0;
            stroke-width: 128;
          }
          to {
            stroke: black;
            stroke-width: 1024;
          }
        }
        #make-me-a-hanzi-animation-0 {
          animation: keyframes0 0.6902669270833334s both;
          animation-delay: 0s;
          animation-timing-function: linear;
        }
      
        @keyframes keyframes1 {
          from {
            stroke: blue;
            stroke-dashoffset: 513;
            stroke-width: 128;
          }
          63% {
            animation-timing-function: step-end;
            stroke: blue;
            stroke-dashoffset: 0;
            stroke-width: 128;
          }
          to {
            stroke: black;
            stroke-width: 1024;
          }
        }
        #make-me-a-hanzi-animation-1 {
          animation: keyframes1 0.66748046875s both;
          animation-delay: 0.6902669270833334s;
          animation-timing-function: linear;
        }
      
        @keyframes keyframes2 {
          from {
            stroke: blue;
            stroke-dashoffset: 728;
            stroke-width: 128;
          }
          70% {
            animation-timing-function: step-end;
            stroke: blue;
            stroke-dashoffset: 0;
            stroke-width: 128;
          }
          to {
            stroke: black;
            stroke-width: 1024;
          }
        }
        #make-me-a-hanzi-animation-2 {
          animation: keyframes2 0.8424479166666666s both;
          animation-delay: 1.3577473958333335s;
          animation-timing-function: linear;
        }
      
        @keyframes keyframes3 {
          from {
            stroke: blue;
            stroke-dashoffset: 432;
            stroke-width: 128;
          }
          58% {
            animation-timing-function: step-end;
            stroke: blue;
            stroke-dashoffset: 0;
            stroke-width: 128;
          }
          to {
            stroke: black;
            stroke-width: 1024;
          }
        }
        #make-me-a-hanzi-animation-3 {
          animation: keyframes3 0.6015625s both;
          animation-delay: 2.2001953125s;
          animation-timing-function: linear;
        }
      
        @keyframes keyframes4 {
          from {
            stroke: blue;
            stroke-dashoffset: 409;
            stroke-width: 128;
          }
          57% {
            animation-timing-function: step-end;
            stroke: blue;
            stroke-dashoffset: 0;
            stroke-width: 128;
          }
          to {
            stroke: black;
            stroke-width: 1024;
          }
        }
        #make-me-a-hanzi-animation-4 {
          animation: keyframes4 0.5828450520833334s both;
          animation-delay: 2.8017578125s;
          animation-timing-function: linear;
        }
      
        @keyframes keyframes5 {
          from {
            stroke: blue;
            stroke-dashoffset: 627;
            stroke-width: 128;
          }
          67% {
            animation-timing-function: step-end;
            stroke: blue;
            stroke-dashoffset: 0;
            stroke-width: 128;
          }
          to {
            stroke: black;
            stroke-width: 1024;
          }
        }
        #make-me-a-hanzi-animation-5 {
          animation: keyframes5 0.76025390625s both;
          animation-delay: 3.3846028645833335s;
          animation-timing-function: linear;
        }
      
        @keyframes keyframes6 {
          from {
            stroke: blue;
            stroke-dashoffset: 1112;
            stroke-width: 128;
          }
          78% {
            animation-timing-function: step-end;
            stroke: blue;
            stroke-dashoffset: 0;
            stroke-width: 128;
          }
          to {
            stroke: black;
            stroke-width: 1024;
          }
        }
        #make-me-a-hanzi-animation-6 {
          animation: keyframes6 1.1549479166666667s both;
          animation-delay: 4.144856770833334s;
          animation-timing-function: linear;
        }
      
        @keyframes keyframes7 {
          from {
            stroke: blue;
            stroke-dashoffset: 672;
            stroke-width: 128;
          }
          69% {
            animation-timing-function: step-end;
            stroke: blue;
            stroke-dashoffset: 0;
            stroke-width: 128;
          }
          to {
            stroke: black;
            stroke-width: 1024;
          }
        }
        #make-me-a-hanzi-animation-7 {
          animation: keyframes7 0.796875s both;
          animation-delay: 5.299804687500001s;
          animation-timing-function: linear;
        }
      
        @keyframes keyframes8 {
          from {
            stroke: blue;
            stroke-dashoffset: 963;
            stroke-width: 128;
          }
          76% {
            animation-timing-function: step-end;
            stroke: blue;
            stroke-dashoffset: 0;
            stroke-width: 128;
          }
          to {
            stroke: black;
            stroke-width: 1024;
          }
        }
        #make-me-a-hanzi-animation-8 {
          animation: keyframes8 1.03369140625s both;
          animation-delay: 6.096679687500001s;
          animation-timing-function: linear;
        }
      
        @keyframes keyframes9 {
          from {
            stroke: blue;
            stroke-dashoffset: 436;
            stroke-width: 128;
          }
          59% {
            animation-timing-function: step-end;
            stroke: blue;
            stroke-dashoffset: 0;
            stroke-width: 128;
          }
          to {
            stroke: black;
            stroke-width: 1024;
          }
        }
        #make-me-a-hanzi-animation-9 {
          animation: keyframes9 0.6048177083333334s both;
          animation-delay: 7.130371093750001s;
          animation-timing-function: linear;
        }
      
        @keyframes keyframes10 {
          from {
            stroke: blue;
            stroke-dashoffset: 428;
            stroke-width: 128;
          }
          58% {
            animation-timing-function: step-end;
            stroke: blue;
            stroke-dashoffset: 0;
            stroke-width: 128;
          }
          to {
            stroke: black;
            stroke-width: 1024;
          }
        }
        #make-me-a-hanzi-animation-10 {
          animation: keyframes10 0.5983072916666666s both;
          animation-delay: 7.735188802083334s;
          animation-timing-function: linear;
        }
      
        @keyframes keyframes11 {
          from {
            stroke: blue;
            stroke-dashoffset: 544;
            stroke-width: 128;
          }
          64% {
            animation-timing-function: step-end;
            stroke: blue;
            stroke-dashoffset: 0;
            stroke-width: 128;
          }
          to {
            stroke: black;
            stroke-width: 1024;
          }
        }
        #make-me-a-hanzi-animation-11 {
          animation: keyframes11 0.6927083333333334s both;
          animation-delay: 8.33349609375s;
          animation-timing-function: linear;
        }
      
        @keyframes keyframes12 {
          from {
            stroke: blue;
            stroke-dashoffset: 424;
            stroke-width: 128;
          }
          58% {
            animation-timing-function: step-end;
            stroke: blue;
            stroke-dashoffset: 0;
            stroke-width: 128;
          }
          to {
            stroke: black;
            stroke-width: 1024;
          }
        }
        #make-me-a-hanzi-animation-12 {
          animation: keyframes12 0.5950520833333334s both;
          animation-delay: 9.026204427083334s;
          animation-timing-function: linear;
        }
      
        @keyframes keyframes13 {
          from {
            stroke: blue;
            stroke-dashoffset: 321;
            stroke-width: 128;
          }
          51% {
            animation-timing-function: step-end;
            stroke: blue;
            stroke-dashoffset: 0;
            stroke-width: 128;
          }
          to {
            stroke: black;
            stroke-width: 1024;
          }
        }
        #make-me-a-hanzi-animation-13 {
          animation: keyframes13 0.51123046875s both;
          animation-delay: 9.621256510416668s;
          animation-timing-function: linear;
        }
      
        @keyframes keyframes14 {
          from {
            stroke: blue;
            stroke-dashoffset: 422;
            stroke-width: 128;
          }
          58% {
            animation-timing-function: step-end;
            stroke: blue;
            stroke-dashoffset: 0;
            stroke-width: 128;
          }
          to {
            stroke: black;
            stroke-width: 1024;
          }
        }
        #make-me-a-hanzi-animation-14 {
          animation: keyframes14 0.5934244791666666s both;
          animation-delay: 10.132486979166668s;
          animation-timing-function: linear;
        }
      
        @keyframes keyframes15 {
          from {
            stroke: blue;
            stroke-dashoffset: 441;
            stroke-width: 128;
          }
          59% {
            animation-timing-function: step-end;
            stroke: blue;
            stroke-dashoffset: 0;
            stroke-width: 128;
          }
          to {
            stroke: black;
            stroke-width: 1024;
          }
        }
        #make-me-a-hanzi-animation-15 {
          animation: keyframes15 0.60888671875s both;
          animation-delay: 10.725911458333334s;
          animation-timing-function: linear;
        }
      
        @keyframes keyframes16 {
          from {
            stroke: blue;
            stroke-dashoffset: 564;
            stroke-width: 128;
          }
          65% {
            animation-timing-function: step-end;
            stroke: blue;
            stroke-dashoffset: 0;
            stroke-width: 128;
          }
          to {
            stroke: black;
            stroke-width: 1024;
          }
        }
        #make-me-a-hanzi-animation-16 {
          animation: keyframes16 0.708984375s both;
          animation-delay: 11.334798177083334s;
          animation-timing-function: linear;
        }
      
        @keyframes keyframes17 {
          from {
            stroke: blue;
            stroke-dashoffset: 452;
            stroke-width: 128;
          }
          60% {
            animation-timing-function: step-end;
            stroke: blue;
            stroke-dashoffset: 0;
            stroke-width: 128;
          }
          to {
            stroke: black;
            stroke-width: 1024;
          }
        }
        #make-me-a-hanzi-animation-17 {
          animation: keyframes17 0.6178385416666666s both;
          animation-delay: 12.043782552083334s;
          animation-timing-function: linear;
        }
      
        @keyframes keyframes18 {
          from {
            stroke: blue;
            stroke-dashoffset: 398;
            stroke-width: 128;
          }
          56% {
            animation-timing-function: step-end;
            stroke: blue;
            stroke-dashoffset: 0;
            stroke-width: 128;
          }
          to {
            stroke: black;
            stroke-width: 1024;
          }
        }
        #make-me-a-hanzi-animation-18 {
          animation: keyframes18 0.5738932291666666s both;
          animation-delay: 12.66162109375s;
          animation-timing-function: linear;
        }
      
        @keyframes keyframes19 {
          from {
            stroke: blue;
            stroke-dashoffset: 494;
            stroke-width: 128;
          }
          62% {
            animation-timing-function: step-end;
            stroke: blue;
            stroke-dashoffset: 0;
            stroke-width: 128;
          }
          to {
            stroke: black;
            stroke-width: 1024;
          }
        }
        #make-me-a-hanzi-animation-19 {
          animation: keyframes19 0.6520182291666666s both;
          animation-delay: 13.235514322916666s;
          animation-timing-function: linear;
        }
      
        @keyframes keyframes20 {
          from {
            stroke: blue;
            stroke-dashoffset: 378;
            stroke-width: 128;
          }
          55% {
            animation-timing-function: step-end;
            stroke: blue;
            stroke-dashoffset: 0;
            stroke-width: 128;
          }
          to {
            stroke: black;
            stroke-width: 1024;
          }
        }
        #make-me-a-hanzi-animation-20 {
          animation: keyframes20 0.5576171875s both;
          animation-delay: 13.887532552083332s;
          animation-timing-function: linear;
        }
      
        @keyframes keyframes21 {
          from {
            stroke: blue;
            stroke-dashoffset: 415;
            stroke-width: 128;
          }
          57% {
            animation-timing-function: step-end;
            stroke: blue;
            stroke-dashoffset: 0;
            stroke-width: 128;
          }
          to {
            stroke: black;
            stroke-width: 1024;
          }
        }
        #make-me-a-hanzi-animation-21 {
          animation: keyframes21 0.5877278645833334s both;
          animation-delay: 14.445149739583332s;
          animation-timing-function: linear;
        }
      
        @keyframes keyframes22 {
          from {
            stroke: blue;
            stroke-dashoffset: 752;
            stroke-width: 128;
          }
          71% {
            animation-timing-function: step-end;
            stroke: blue;
            stroke-dashoffset: 0;
            stroke-width: 128;
          }
          to {
            stroke: black;
            stroke-width: 1024;
          }
        }
        #make-me-a-hanzi-animation-22 {
          animation: keyframes22 0.8619791666666666s both;
          animation-delay: 15.032877604166666s;
          animation-timing-function: linear;
        }
      
    </style>
    
      <path d="M 304 522 L 391 541 Q 405 544 414 551 Q 422 557 422 561 L 422 562 Q 421 566 416 569 Q 411 573 399 578 Q 387 584 381 586 Q 378 587 375 587 Q 373 587 370 586 Q 365 586 358 582 Q 351 578 349 578 L 305 570 L 263 556 L 217 547 L 174 540 Q 154 536 149 536 L 137 536 Q 130 534 128 531 Q 127 530 127 529 Q 127 526 131 522 Q 137 516 150 512 Q 164 508 182 508 Q 191 508 210 510 Q 229 512 263 517 L 304 522 Z" fill="lightgray" />
    
      <path d="M 159 420 L 139 426 Q 134 427 130 427 Q 127 427 124 426 Q 116 422 116 418 L 116 417 Q 116 413 122 406 Q 129 398 133 386 Q 137 375 140 359 Q 143 343 145 327 L 155 218 Q 156 202 159 192 Q 162 183 167 178 Q 174 169 179 169 L 180 169 Q 185 171 187 176 Q 189 180 191 189 L 193 202 L 191 232 L 185 308 L 184 322 L 179 401 C 178 414 178 414 159 420 Z" fill="lightgray" />
    
      <path d="M 347 220 L 351 208 Q 353 200 362 198 L 365 198 Q 373 198 380 206 Q 389 216 394 233 L 433 370 L 439 394 Q 443 402 447 409 Q 453 418 453 423 Q 453 427 448 432 Q 443 436 429 445 Q 414 454 405 457 Q 399 460 392 460 L 389 460 Q 385 460 374 456 Q 363 452 351 450 L 330 446 Q 319 445 301 442 L 257 434 L 159 420 C 129 416 149 397 179 401 L 257 412 L 304 418 L 349 422 Q 362 424 369 424 Q 376 424 377 422 Q 381 420 381 416 Q 382 414 382 409 Q 382 403 381 394 L 375 342 L 373 328 L 367 297 Q 365 286 356 247 C 349 218 345 225 347 220 Z" fill="lightgray" />
    
      <path d="M 185 308 L 198 306 Q 206 304 213 304 L 217 304 Q 219 304 229 305 Q 239 306 255 308 L 299 315 L 336 320 Q 343 322 354 324 Q 365 326 373 328 C 397 334 397 334 375 342 L 359 348 Q 350 352 339 352 L 335 352 Q 332 352 324 350 Q 317 349 301 346 L 255 338 L 184 322 C 155 315 155 313 185 308 Z" fill="lightgray" />
    
      <path d="M 300 215 L 347 220 C 377 223 382 233 356 247 L 345 253 Q 339 256 330 256 Q 324 256 315 254 Q 307 252 297 251 L 251 242 L 191 232 C 161 227 163 199 193 202 L 253 209 L 300 215 Z" fill="lightgray" />
    
      <path d="M 441 136 L 411 146 Q 402 149 391 149 Q 385 148 367 144 L 332 136 L 298 130 L 247 120 L 100 97 L 71 92 Q 61 90 60 90 Q 59 89 58 85 L 58 84 Q 58 79 66 74 Q 74 66 93 60 Q 109 54 117 54 L 119 54 Q 125 54 138 59 Q 151 64 163 67 Q 175 70 195 74 L 244 82 L 298 90 L 365 100 L 435 108 C 465 111 469 127 441 136 Z" fill="lightgray" />
    
      <path d="M 298 130 L 300 215 L 297 251 L 299 315 L 301 346 L 304 418 L 301 442 L 304 522 L 305 570 L 309 608 Q 309 616 312 630 Q 315 646 318 654 Q 323 668 323 673 Q 323 678 313 688 Q 304 698 293 702 Q 282 707 269 711 Q 260 713 255 713 L 252 713 Q 244 710 242 704 L 242 702 Q 242 695 247 684 Q 255 671 257 658 Q 261 646 262 630 Q 263 615 263 604 L 263 556 L 263 517 L 257 434 L 257 412 L 255 338 L 255 308 L 251 242 L 253 209 L 247 120 L 244 82 L 235 0 Q 234 -4 232 -18 Q 230 -32 229 -37 Q 224 -60 224 -66 Q 225 -73 228 -86 Q 231 -100 234 -109 Q 237 -118 240 -126 Q 243 -134 249 -142 Q 255 -150 260 -150 L 261 -150 Q 266 -150 272 -144 Q 279 -136 284 -124 Q 289 -113 291 -102 Q 295 -92 296 -82 Q 297 -77 297 -68 Q 297 -59 296 -47 L 296 -1 L 298 90 L 298 130 Z" fill="lightgray" />
    
      <path d="M 540 565 L 587 573 Q 593 574 661 584 Q 729 594 744 596 Q 759 598 768 599 Q 778 600 830 606 L 873 610 Q 885 611 887 617 Q 887 624 883 629 Q 878 634 866 638 L 843 647 Q 827 652 818 652 Q 814 652 787 646 L 754 640 Q 751 640 728 634 Q 705 628 677 623 L 614 612 Q 565 602 553 600 L 499 594 L 467 588 Q 461 586 459 583 Q 459 580 463 574 Q 467 568 481 563 L 540 565 Z" fill="lightgray" />
    
      <path d="M 523 360 L 526 394 L 531 432 L 534 467 L 541 505 Q 543 525 548 536 Q 553 548 553 551 Q 553 555 550 558 Q 547 562 540 565 C 522 589 476 593 481 563 L 485 546 L 485 476 Q 485 460 481 414 L 473 325 Q 467 268 460 229 Q 453 190 441 136 L 435 108 L 413 33 Q 407 10 395 -18 Q 383 -47 373 -68 L 360 -95 Q 357 -101 357 -106 Q 357 -110 359 -114 Q 360 -116 362 -116 Q 367 -116 375 -104 L 393 -80 Q 403 -68 417 -41 Q 431 -14 446 20 Q 461 55 473 98 Q 486 140 495 182 L 508 249 Q 513 276 516 298 Q 519 320 523 346 L 523 360 Z" fill="lightgray" />
    
      <path d="M 635 458 L 655 467 L 673 476 Q 683 480 691 482 Q 699 484 702 486 Q 705 488 706 492 L 706 493 Q 706 497 701 503 Q 695 510 683 518 Q 671 526 663 530 Q 656 533 651 533 Q 649 533 647 532 Q 644 530 641 521 Q 637 512 631 504 Q 624 496 610 484 Q 597 472 585 462 Q 573 452 565 446 L 545 434 Q 539 430 539 426 L 539 424 Q 540 422 543 422 Q 547 422 552 424 L 572 430 Q 577 432 585 436 Q 594 440 605 446 L 635 458 Z" fill="lightgray" />
    
      <path d="M 610 377 L 591 374 Q 582 372 576 371 Q 570 370 553 366 Q 535 362 523 360 C 493 355 493 351 523 346 L 534 344 L 555 342 Q 559 341 563 341 Q 568 341 572 342 Q 581 342 595 346 L 640 358 L 661 365 L 681 369 L 697 375 Q 706 378 706 382 L 706 383 Q 706 387 703 389 Q 699 392 688 394 Q 677 396 671 396 Q 669 397 666 397 Q 664 397 661 396 L 640 389 L 610 377 Z" fill="lightgray" />
    
      <path d="M 605 446 L 607 440 Q 609 436 610 430 L 610 377 L 609 296 L 605 253 Q 603 239 599 222 Q 595 205 595 200 Q 595 196 599 184 Q 603 172 609 166 Q 614 159 618 159 Q 622 160 627 167 Q 631 174 635 184 Q 639 194 640 202 L 638 232 L 638 308 L 639 327 L 640 358 L 640 389 L 643 408 L 647 423 Q 649 433 651 437 Q 654 441 655 443 Q 655 445 651 450 Q 647 454 635 458 C 607 469 595 474 605 446 Z" fill="lightgray" />
    
      <path d="M 595 346 L 585 323 Q 581 313 570 294 Q 559 274 549 260 L 523 226 L 512 213 Q 509 209 509 205 Q 509 204 510 202 Q 511 200 513 200 Q 515 200 519 204 L 536 218 Q 553 232 562 241 Q 571 249 583 263 L 599 284 Q 601 288 609 296 C 661 350 607 374 595 346 Z" fill="lightgray" />
    
      <path d="M 638 308 L 655 295 Q 657 293 666 283 Q 675 274 681 270 Q 686 268 690 268 L 693 268 Q 698 268 703 276 Q 705 279 705 284 Q 705 287 704 291 Q 701 300 693 306 Q 685 312 678 315 Q 672 317 660 320 Q 649 324 639 327 C 610 336 614 326 638 308 Z" fill="lightgray" />
    
      <path d="M 813 489 L 843 500 L 867 508 Q 873 508 877 511 Q 880 513 881 517 L 881 518 Q 881 523 875 530 Q 867 538 857 546 Q 847 554 837 558 Q 831 559 828 559 L 826 559 Q 824 558 821 548 Q 818 539 809 529 L 795 514 Q 791 510 773 496 L 749 476 L 731 466 Q 723 460 723 456 Q 723 454 726 454 Q 729 454 735 456 L 749 460 Q 753 462 761 465 Q 769 468 784 476 L 813 489 Z" fill="lightgray" />
    
      <path d="M 827 389 L 865 398 L 889 402 L 908 407 Q 921 410 921 415 Q 921 420 918 424 Q 914 428 903 430 Q 892 432 887 432 Q 882 433 878 433 Q 874 433 870 432 Q 863 432 851 428 L 828 421 L 791 412 L 763 406 L 743 403 L 728 400 Q 723 398 722 394 L 722 393 Q 722 390 725 388 Q 728 384 733 384 L 749 380 Q 760 378 763 378 Q 767 378 776 380 L 827 389 Z" fill="lightgray" />
    
      <path d="M 793 325 L 792 258 Q 791 243 788 226 Q 784 210 784 202 Q 785 196 791 180 Q 799 165 805 165 L 806 165 Q 814 165 820 177 Q 827 189 828 201 L 827 250 L 827 326 L 827 351 L 827 389 L 828 421 L 831 441 Q 833 456 835 462 Q 836 466 836 469 L 836 471 Q 835 474 829 479 Q 823 484 813 489 C 787 504 776 505 784 476 L 787 466 Q 787 463 788 452 L 789 431 Q 789 424 791 412 L 793 325 Z" fill="lightgray" />
    
      <path d="M 776 380 L 765 352 Q 759 338 749 319 Q 739 300 721 277 Q 703 254 697 247 L 680 228 Q 675 223 675 219 L 675 217 Q 676 216 677 216 Q 681 216 688 220 L 710 234 Q 723 242 741 258 Q 759 274 769 288 Q 779 302 793 325 C 835 394 787 408 776 380 Z" fill="lightgray" />
    
      <path d="M 827 326 L 837 317 Q 841 314 853 301 Q 865 288 874 280 Q 882 272 895 261 L 917 241 Q 925 234 932 234 L 935 234 Q 943 236 947 243 Q 949 246 949 250 Q 949 257 945 268 Q 939 284 931 294 Q 923 304 908 313 L 875 331 Q 855 340 848 344 Q 841 346 827 351 C 799 361 805 346 827 326 Z" fill="lightgray" />
    
      <path d="M 744 -31 L 747 55 L 748 90 L 749 108 Q 749 112 751 130 Q 755 146 757 151 L 763 162 Q 764 166 764 170 Q 763 174 757 179 Q 751 184 743 187 L 719 196 Q 703 200 695 201 Q 686 201 682 197 Q 679 195 679 190 L 679 188 Q 681 184 685 175 Q 690 167 692 155 L 694 131 Q 695 119 695 102 L 699 -36 C 700 -66 743 -61 744 -31 Z" fill="lightgray" />
    
      <path d="M 747 55 L 766 56 Q 783 58 806 62 L 843 69 Q 863 72 869 76 Q 875 80 875 84 L 875 85 Q 875 89 871 93 Q 865 98 852 103 Q 839 108 834 109 L 830 109 Q 826 109 821 108 Q 815 107 801 103 Q 788 98 776 96 Q 764 93 748 90 C 719 84 717 53 747 55 Z" fill="lightgray" />
    
      <path d="M 640 -41 L 640 52 Q 641 60 645 70 Q 648 78 648 83 L 648 85 Q 647 89 643 94 Q 638 98 620 103 Q 603 108 595 110 Q 589 112 583 112 Q 574 112 571 107 Q 570 104 570 101 L 570 98 Q 571 92 577 83 Q 582 74 584 66 Q 587 58 590 43 Q 593 28 593 21 L 598 -45 C 600 -75 640 -71 640 -41 Z" fill="lightgray" />
    
      <path d="M 598 -45 L 553 -49 L 517 -50 L 474 -51 Q 467 -52 465 -56 L 465 -58 Q 465 -62 471 -68 Q 479 -76 492 -83 Q 505 -91 514 -94 Q 523 -98 529 -98 Q 535 -98 556 -92 Q 576 -87 595 -84 L 667 -78 L 742 -70 Q 776 -68 806 -67 L 861 -66 L 911 -65 L 947 -65 Q 963 -65 965 -62 Q 967 -59 967 -55 L 967 -53 Q 967 -48 961 -42 Q 954 -36 945 -30 Q 936 -24 925 -19 Q 915 -14 906 -12 Q 897 -9 891 -8 Q 883 -8 865 -14 Q 848 -18 821 -23 Q 793 -28 773 -29 L 744 -31 L 699 -36 L 640 -41 L 598 -45 Z" fill="lightgray" />
    
    
      <clipPath id="make-me-a-hanzi-clip-0">
        <path d="M 304 522 L 391 541 Q 405 544 414 551 Q 422 557 422 561 L 422 562 Q 421 566 416 569 Q 411 573 399 578 Q 387 584 381 586 Q 378 587 375 587 Q 373 587 370 586 Q 365 586 358 582 Q 351 578 349 578 L 305 570 L 263 556 L 217 547 L 174 540 Q 154 536 149 536 L 137 536 Q 130 534 128 531 Q 127 530 127 529 Q 127 526 131 522 Q 137 516 150 512 Q 164 508 182 508 Q 191 508 210 510 Q 229 512 263 517 L 304 522 Z" />
      </clipPath>
      <path clip-path="url(#make-me-a-hanzi-clip-0)" d="M 133 528 L 177 524 L 237 531 L 371 562 L 414 562" fill="none" id="make-me-a-hanzi-animation-0" stroke-dasharray="413 826" stroke-linecap="round" />
    
      <clipPath id="make-me-a-hanzi-clip-1">
        <path d="M 159 420 L 139 426 Q 134 427 130 427 Q 127 427 124 426 Q 116 422 116 418 L 116 417 Q 116 413 122 406 Q 129 398 133 386 Q 137 375 140 359 Q 143 343 145 327 L 155 218 Q 156 202 159 192 Q 162 183 167 178 Q 174 169 179 169 L 180 169 Q 185 171 187 176 Q 189 180 191 189 L 193 202 L 191 232 L 185 308 L 184 322 L 179 401 C 178 414 178 414 159 420 Z" />
      </clipPath>
      <path clip-path="url(#make-me-a-hanzi-clip-1)" d="M 125 418 L 150 400 L 157 386 L 180 177" fill="none" id="make-me-a-hanzi-animation-1" stroke-dasharray="385 770" stroke-linecap="round" />
    
      <clipPath id="make-me-a-hanzi-clip-2">
        <path d="M 347 220 L 351 208 Q 353 200 362 198 L 365 198 Q 373 198 380 206 Q 389 216 394 233 L 433 370 L 439 394 Q 443 402 447 409 Q 453 418 453 423 Q 453 427 448 432 Q 443 436 429 445 Q 414 454 405 457 Q 399 460 392 460 L 389 460 Q 385 460 374 456 Q 363 452 351 450 L 330 446 Q 319 445 301 442 L 257 434 L 159 420 C 129 416 149 397 179 401 L 257 412 L 304 418 L 349 422 Q 362 424 369 424 Q 376 424 377 422 Q 381 420 381 416 Q 382 414 382 409 Q 382 403 381 394 L 375 342 L 373 328 L 367 297 Q 365 286 356 247 C 349 218 345 225 347 220 Z" />
      </clipPath>
      <path clip-path="url(#make-me-a-hanzi-clip-2)" d="M 166 418 L 185 412 L 373 440 L 394 437 L 409 424 L 414 416 L 400 338 L 364 211" fill="none" id="make-me-a-hanzi-animation-2" stroke-dasharray="600 1200" stroke-linecap="round" />
    
      <clipPath id="make-me-a-hanzi-clip-3">
        <path d="M 185 308 L 198 306 Q 206 304 213 304 L 217 304 Q 219 304 229 305 Q 239 306 255 308 L 299 315 L 336 320 Q 343 322 354 324 Q 365 326 373 328 C 397 334 397 334 375 342 L 359 348 Q 350 352 339 352 L 335 352 Q 332 352 324 350 Q 317 349 301 346 L 255 338 L 184 322 C 155 315 155 313 185 308 Z" />
      </clipPath>
      <path clip-path="url(#make-me-a-hanzi-clip-3)" d="M 193 316 L 332 336 L 368 336" fill="none" id="make-me-a-hanzi-animation-3" stroke-dasharray="304 608" stroke-linecap="round" />
    
      <clipPath id="make-me-a-hanzi-clip-4">
        <path d="M 300 215 L 347 220 C 377 223 382 233 356 247 L 345 253 Q 339 256 330 256 Q 324 256 315 254 Q 307 252 297 251 L 251 242 L 191 232 C 161 227 163 199 193 202 L 253 209 L 300 215 Z" />
      </clipPath>
      <path clip-path="url(#make-me-a-hanzi-clip-4)" d="M 200 210 L 207 219 L 347 243" fill="none" id="make-me-a-hanzi-animation-4" stroke-dasharray="281 562" stroke-linecap="round" />
    
      <clipPath id="make-me-a-hanzi-clip-5">
        <path d="M 441 136 L 411 146 Q 402 149 391 149 Q 385 148 367 144 L 332 136 L 298 130 L 247 120 L 100 97 L 71 92 Q 61 90 60 90 Q 59 89 58 85 L 58 84 Q 58 79 66 74 Q 74 66 93 60 Q 109 54 117 54 L 119 54 Q 125 54 138 59 Q 151 64 163 67 Q 175 70 195 74 L 244 82 L 298 90 L 365 100 L 435 108 C 465 111 469 127 441 136 Z" />
      </clipPath>
      <path clip-path="url(#make-me-a-hanzi-clip-5)" d="M 67 85 L 118 77 L 379 125 L 420 124 L 431 131" fill="none" id="make-me-a-hanzi-animation-5" stroke-dasharray="499 998" stroke-linecap="round" />
    
      <clipPath id="make-me-a-hanzi-clip-6">
        <path d="M 298 130 L 300 215 L 297 251 L 299 315 L 301 346 L 304 418 L 301 442 L 304 522 L 305 570 L 309 608 Q 309 616 312 630 Q 315 646 318 654 Q 323 668 323 673 Q 323 678 313 688 Q 304 698 293 702 Q 282 707 269 711 Q 260 713 255 713 L 252 713 Q 244 710 242 704 L 242 702 Q 242 695 247 684 Q 255 671 257 658 Q 261 646 262 630 Q 263 615 263 604 L 263 556 L 263 517 L 257 434 L 257 412 L 255 338 L 255 308 L 251 242 L 253 209 L 247 120 L 244 82 L 235 0 Q 234 -4 232 -18 Q 230 -32 229 -37 Q 224 -60 224 -66 Q 225 -73 228 -86 Q 231 -100 234 -109 Q 237 -118 240 -126 Q 243 -134 249 -142 Q 255 -150 260 -150 L 261 -150 Q 266 -150 272 -144 Q 279 -136 284 -124 Q 289 -113 291 -102 Q 295 -92 296 -82 Q 297 -77 297 -68 Q 297 -59 296 -47 L 296 -1 L 298 90 L 298 130 Z" />
      </clipPath>
      <path clip-path="url(#make-me-a-hanzi-clip-6)" d="M 252 703 L 288 667 L 277 208 L 261 -138" fill="none" id="make-me-a-hanzi-animation-6" stroke-dasharray="984 1968" stroke-linecap="round" />
    
      <clipPath id="make-me-a-hanzi-clip-7">
        <path d="M 540 565 L 587 573 Q 593 574 661 584 Q 729 594 744 596 Q 759 598 768 599 Q 778 600 830 606 L 873 610 Q 885 611 887 617 Q 887 624 883 629 Q 878 634 866 638 L 843 647 Q 827 652 818 652 Q 814 652 787 646 L 754 640 Q 751 640 728 634 Q 705 628 677 623 L 614 612 Q 565 602 553 600 L 499 594 L 467 588 Q 461 586 459 583 Q 459 580 463 574 Q 467 568 481 563 L 540 565 Z" />
      </clipPath>
      <path clip-path="url(#make-me-a-hanzi-clip-7)" d="M 466 581 L 486 577 L 560 584 L 802 627 L 877 620" fill="none" id="make-me-a-hanzi-animation-7" stroke-dasharray="544 1088" stroke-linecap="round" />
    
      <clipPath id="make-me-a-hanzi-clip-8">
        <path d="M 523 360 L 526 394 L 531 432 L 534 467 L 541 505 Q 543 525 548 536 Q 553 548 553 551 Q 553 555 550 558 Q 547 562 540 565 C 522 589 476 593 481 563 L 485 546 L 485 476 Q 485 460 481 414 L 473 325 Q 467 268 460 229 Q 453 190 441 136 L 435 108 L 413 33 Q 407 10 395 -18 Q 383 -47 373 -68 L 360 -95 Q 357 -101 357 -106 Q 357 -110 359 -114 Q 360 -116 362 -116 Q 367 -116 375 -104 L 393 -80 Q 403 -68 417 -41 Q 431 -14 446 20 Q 461 55 473 98 Q 486 140 495 182 L 508 249 Q 513 276 516 298 Q 519 320 523 346 L 523 360 Z" />
      </clipPath>
      <path clip-path="url(#make-me-a-hanzi-clip-8)" d="M 488 560 L 515 534 L 515 518 L 499 343 L 473 180 L 428 20 L 363 -111" fill="none" id="make-me-a-hanzi-animation-8" stroke-dasharray="835 1670" stroke-linecap="round" />
    
      <clipPath id="make-me-a-hanzi-clip-9">
        <path d="M 635 458 L 655 467 L 673 476 Q 683 480 691 482 Q 699 484 702 486 Q 705 488 706 492 L 706 493 Q 706 497 701 503 Q 695 510 683 518 Q 671 526 663 530 Q 656 533 651 533 Q 649 533 647 532 Q 644 530 641 521 Q 637 512 631 504 Q 624 496 610 484 Q 597 472 585 462 Q 573 452 565 446 L 545 434 Q 539 430 539 426 L 539 424 Q 540 422 543 422 Q 547 422 552 424 L 572 430 Q 577 432 585 436 Q 594 440 605 446 L 635 458 Z" />
      </clipPath>
      <path clip-path="url(#make-me-a-hanzi-clip-9)" d="M 699 493 L 661 500 L 575 441 L 542 425" fill="none" id="make-me-a-hanzi-animation-9" stroke-dasharray="308 616" stroke-linecap="round" />
    
      <clipPath id="make-me-a-hanzi-clip-10">
        <path d="M 610 377 L 591 374 Q 582 372 576 371 Q 570 370 553 366 Q 535 362 523 360 C 493 355 493 351 523 346 L 534 344 L 555 342 Q 559 341 563 341 Q 568 341 572 342 Q 581 342 595 346 L 640 358 L 661 365 L 681 369 L 697 375 Q 706 378 706 382 L 706 383 Q 706 387 703 389 Q 699 392 688 394 Q 677 396 671 396 Q 669 397 666 397 Q 664 397 661 396 L 640 389 L 610 377 Z" />
      </clipPath>
      <path clip-path="url(#make-me-a-hanzi-clip-10)" d="M 530 353 L 574 356 L 660 381 L 698 383" fill="none" id="make-me-a-hanzi-animation-10" stroke-dasharray="300 600" stroke-linecap="round" />
    
      <clipPath id="make-me-a-hanzi-clip-11">
        <path d="M 605 446 L 607 440 Q 609 436 610 430 L 610 377 L 609 296 L 605 253 Q 603 239 599 222 Q 595 205 595 200 Q 595 196 599 184 Q 603 172 609 166 Q 614 159 618 159 Q 622 160 627 167 Q 631 174 635 184 Q 639 194 640 202 L 638 232 L 638 308 L 639 327 L 640 358 L 640 389 L 643 408 L 647 423 Q 649 433 651 437 Q 654 441 655 443 Q 655 445 651 450 Q 647 454 635 458 C 607 469 595 474 605 446 Z" />
      </clipPath>
      <path clip-path="url(#make-me-a-hanzi-clip-11)" d="M 611 445 L 630 434 L 618 168" fill="none" id="make-me-a-hanzi-animation-11" stroke-dasharray="416 832" stroke-linecap="round" />
    
      <clipPath id="make-me-a-hanzi-clip-12">
        <path d="M 595 346 L 585 323 Q 581 313 570 294 Q 559 274 549 260 L 523 226 L 512 213 Q 509 209 509 205 Q 509 204 510 202 Q 511 200 513 200 Q 515 200 519 204 L 536 218 Q 553 232 562 241 Q 571 249 583 263 L 599 284 Q 601 288 609 296 C 661 350 607 374 595 346 Z" />
      </clipPath>
      <path clip-path="url(#make-me-a-hanzi-clip-12)" d="M 604 343 L 592 300 L 577 276 L 514 205" fill="none" id="make-me-a-hanzi-animation-12" stroke-dasharray="296 592" stroke-linecap="round" />
    
      <clipPath id="make-me-a-hanzi-clip-13">
        <path d="M 638 308 L 655 295 Q 657 293 666 283 Q 675 274 681 270 Q 686 268 690 268 L 693 268 Q 698 268 703 276 Q 705 279 705 284 Q 705 287 704 291 Q 701 300 693 306 Q 685 312 678 315 Q 672 317 660 320 Q 649 324 639 327 C 610 336 614 326 638 308 Z" />
      </clipPath>
      <path clip-path="url(#make-me-a-hanzi-clip-13)" d="M 643 322 L 692 280" fill="none" id="make-me-a-hanzi-animation-13" stroke-dasharray="193 386" stroke-linecap="round" />
    
      <clipPath id="make-me-a-hanzi-clip-14">
        <path d="M 813 489 L 843 500 L 867 508 Q 873 508 877 511 Q 880 513 881 517 L 881 518 Q 881 523 875 530 Q 867 538 857 546 Q 847 554 837 558 Q 831 559 828 559 L 826 559 Q 824 558 821 548 Q 818 539 809 529 L 795 514 Q 791 510 773 496 L 749 476 L 731 466 Q 723 460 723 456 Q 723 454 726 454 Q 729 454 735 456 L 749 460 Q 753 462 761 465 Q 769 468 784 476 L 813 489 Z" />
      </clipPath>
      <path clip-path="url(#make-me-a-hanzi-clip-14)" d="M 874 518 L 840 526 L 753 468 L 728 460" fill="none" id="make-me-a-hanzi-animation-14" stroke-dasharray="294 588" stroke-linecap="round" />
    
      <clipPath id="make-me-a-hanzi-clip-15">
        <path d="M 827 389 L 865 398 L 889 402 L 908 407 Q 921 410 921 415 Q 921 420 918 424 Q 914 428 903 430 Q 892 432 887 432 Q 882 433 878 433 Q 874 433 870 432 Q 863 432 851 428 L 828 421 L 791 412 L 763 406 L 743 403 L 728 400 Q 723 398 722 394 L 722 393 Q 722 390 725 388 Q 728 384 733 384 L 749 380 Q 760 378 763 378 Q 767 378 776 380 L 827 389 Z" />
      </clipPath>
      <path clip-path="url(#make-me-a-hanzi-clip-15)" d="M 729 394 L 768 392 L 876 417 L 911 417" fill="none" id="make-me-a-hanzi-animation-15" stroke-dasharray="313 626" stroke-linecap="round" />
    
      <clipPath id="make-me-a-hanzi-clip-16">
        <path d="M 793 325 L 792 258 Q 791 243 788 226 Q 784 210 784 202 Q 785 196 791 180 Q 799 165 805 165 L 806 165 Q 814 165 820 177 Q 827 189 828 201 L 827 250 L 827 326 L 827 351 L 827 389 L 828 421 L 831 441 Q 833 456 835 462 Q 836 466 836 469 L 836 471 Q 835 474 829 479 Q 823 484 813 489 C 787 504 776 505 784 476 L 787 466 Q 787 463 788 452 L 789 431 Q 789 424 791 412 L 793 325 Z" />
      </clipPath>
      <path clip-path="url(#make-me-a-hanzi-clip-16)" d="M 794 473 L 810 461 L 806 173" fill="none" id="make-me-a-hanzi-animation-16" stroke-dasharray="436 872" stroke-linecap="round" />
    
      <clipPath id="make-me-a-hanzi-clip-17">
        <path d="M 776 380 L 765 352 Q 759 338 749 319 Q 739 300 721 277 Q 703 254 697 247 L 680 228 Q 675 223 675 219 L 675 217 Q 676 216 677 216 Q 681 216 688 220 L 710 234 Q 723 242 741 258 Q 759 274 769 288 Q 779 302 793 325 C 835 394 787 408 776 380 Z" />
      </clipPath>
      <path clip-path="url(#make-me-a-hanzi-clip-17)" d="M 785 375 L 776 332 L 753 293 L 677 218" fill="none" id="make-me-a-hanzi-animation-17" stroke-dasharray="324 648" stroke-linecap="round" />
    
      <clipPath id="make-me-a-hanzi-clip-18">
        <path d="M 827 326 L 837 317 Q 841 314 853 301 Q 865 288 874 280 Q 882 272 895 261 L 917 241 Q 925 234 932 234 L 935 234 Q 943 236 947 243 Q 949 246 949 250 Q 949 257 945 268 Q 939 284 931 294 Q 923 304 908 313 L 875 331 Q 855 340 848 344 Q 841 346 827 351 C 799 361 805 346 827 326 Z" />
      </clipPath>
      <path clip-path="url(#make-me-a-hanzi-clip-18)" d="M 832 345 L 841 331 L 909 282 L 934 249" fill="none" id="make-me-a-hanzi-animation-18" stroke-dasharray="270 540" stroke-linecap="round" />
    
      <clipPath id="make-me-a-hanzi-clip-19">
        <path d="M 744 -31 L 747 55 L 748 90 L 749 108 Q 749 112 751 130 Q 755 146 757 151 L 763 162 Q 764 166 764 170 Q 763 174 757 179 Q 751 184 743 187 L 719 196 Q 703 200 695 201 Q 686 201 682 197 Q 679 195 679 190 L 679 188 Q 681 184 685 175 Q 690 167 692 155 L 694 131 Q 695 119 695 102 L 699 -36 C 700 -66 743 -61 744 -31 Z" />
      </clipPath>
      <path clip-path="url(#make-me-a-hanzi-clip-19)" d="M 691 189 L 725 157 L 722 -10 L 706 -28" fill="none" id="make-me-a-hanzi-animation-19" stroke-dasharray="366 732" stroke-linecap="round" />
    
      <clipPath id="make-me-a-hanzi-clip-20">
        <path d="M 747 55 L 766 56 Q 783 58 806 62 L 843 69 Q 863 72 869 76 Q 875 80 875 84 L 875 85 Q 875 89 871 93 Q 865 98 852 103 Q 839 108 834 109 L 830 109 Q 826 109 821 108 Q 815 107 801 103 Q 788 98 776 96 Q 764 93 748 90 C 719 84 717 53 747 55 Z" />
      </clipPath>
      <path clip-path="url(#make-me-a-hanzi-clip-20)" d="M 751 61 L 766 75 L 812 85 L 866 85" fill="none" id="make-me-a-hanzi-animation-20" stroke-dasharray="250 500" stroke-linecap="round" />
    
      <clipPath id="make-me-a-hanzi-clip-21">
        <path d="M 640 -41 L 640 52 Q 641 60 645 70 Q 648 78 648 83 L 648 85 Q 647 89 643 94 Q 638 98 620 103 Q 603 108 595 110 Q 589 112 583 112 Q 574 112 571 107 Q 570 104 570 101 L 570 98 Q 571 92 577 83 Q 582 74 584 66 Q 587 58 590 43 Q 593 28 593 21 L 598 -45 C 600 -75 640 -71 640 -41 Z" />
      </clipPath>
      <path clip-path="url(#make-me-a-hanzi-clip-21)" d="M 580 102 L 613 70 L 619 -18 L 604 -38" fill="none" id="make-me-a-hanzi-animation-21" stroke-dasharray="287 574" stroke-linecap="round" />
    
      <clipPath id="make-me-a-hanzi-clip-22">
        <path d="M 598 -45 L 553 -49 L 517 -50 L 474 -51 Q 467 -52 465 -56 L 465 -58 Q 465 -62 471 -68 Q 479 -76 492 -83 Q 505 -91 514 -94 Q 523 -98 529 -98 Q 535 -98 556 -92 Q 576 -87 595 -84 L 667 -78 L 742 -70 Q 776 -68 806 -67 L 861 -66 L 911 -65 L 947 -65 Q 963 -65 965 -62 Q 967 -59 967 -55 L 967 -53 Q 967 -48 961 -42 Q 954 -36 945 -30 Q 936 -24 925 -19 Q 915 -14 906 -12 Q 897 -9 891 -8 Q 883 -8 865 -14 Q 848 -18 821 -23 Q 793 -28 773 -29 L 744 -31 L 699 -36 L 640 -41 L 598 -45 Z" />
      </clipPath>
      <path clip-path="url(#make-me-a-hanzi-clip-22)" d="M 471 -57 L 530 -74 L 890 -37 L 960 -57" fill="none" id="make-me-a-hanzi-animation-22" stroke-dasharray="624 1248" stroke-linecap="round" />
    
  </g>
</svg>