<svg xmlns="http://www.w3.org/2000/svg" version="1.1" viewBox="0 0 1024 1024">
  <g stroke="lightgray" stroke-dasharray="1,1" stroke-width="1" transform="scale(4, 4)">
    <line x1="0" y1="0" x2="256" y2="256" />
    <line x1="256" y1="0" x2="0" y2="256" />
    <line x1="128" y1="0" x2="128" y2="256" />
    <line x1="0" y1="128" x2="256" y2="128" />
  </g>
  <g transform="scale(1.0, -1.0) translate(0.0, -839.50)">
    <style type="text/css">
      
        @keyframes keyframes0 {
          from {
            stroke: blue;
            stroke-dashoffset: 539;
            stroke-width: 128;
          }
          64% {
            animation-timing-function: step-end;
            stroke: blue;
            stroke-dashoffset: 0;
            stroke-width: 128;
          }
          to {
            stroke: black;
            stroke-width: 1024;
          }
        }
        #make-me-a-hanzi-animation-0 {
          animation: keyframes0 0.6886393229166666s both;
          animation-delay: 0s;
          animation-timing-function: linear;
        }
      
        @keyframes keyframes1 {
          from {
            stroke: blue;
            stroke-dashoffset: 963;
            stroke-width: 128;
          }
          76% {
            animation-timing-function: step-end;
            stroke: blue;
            stroke-dashoffset: 0;
            stroke-width: 128;
          }
          to {
            stroke: black;
            stroke-width: 1024;
          }
        }
        #make-me-a-hanzi-animation-1 {
          animation: keyframes1 1.03369140625s both;
          animation-delay: 0.6886393229166666s;
          animation-timing-function: linear;
        }
      
        @keyframes keyframes2 {
          from {
            stroke: blue;
            stroke-dashoffset: 606;
            stroke-width: 128;
          }
          66% {
            animation-timing-function: step-end;
            stroke: blue;
            stroke-dashoffset: 0;
            stroke-width: 128;
          }
          to {
            stroke: black;
            stroke-width: 1024;
          }
        }
        #make-me-a-hanzi-animation-2 {
          animation: keyframes2 0.7431640625s both;
          animation-delay: 1.7223307291666665s;
          animation-timing-function: linear;
        }
      
        @keyframes keyframes3 {
          from {
            stroke: blue;
            stroke-dashoffset: 804;
            stroke-width: 128;
          }
          72% {
            animation-timing-function: step-end;
            stroke: blue;
            stroke-dashoffset: 0;
            stroke-width: 128;
          }
          to {
            stroke: black;
            stroke-width: 1024;
          }
        }
        #make-me-a-hanzi-animation-3 {
          animation: keyframes3 0.904296875s both;
          animation-delay: 2.4654947916666665s;
          animation-timing-function: linear;
        }
      
        @keyframes keyframes4 {
          from {
            stroke: blue;
            stroke-dashoffset: 404;
            stroke-width: 128;
          }
          57% {
            animation-timing-function: step-end;
            stroke: blue;
            stroke-dashoffset: 0;
            stroke-width: 128;
          }
          to {
            stroke: black;
            stroke-width: 1024;
          }
        }
        #make-me-a-hanzi-animation-4 {
          animation: keyframes4 0.5787760416666666s both;
          animation-delay: 3.3697916666666665s;
          animation-timing-function: linear;
        }
      
        @keyframes keyframes5 {
          from {
            stroke: blue;
            stroke-dashoffset: 577;
            stroke-width: 128;
          }
          65% {
            animation-timing-function: step-end;
            stroke: blue;
            stroke-dashoffset: 0;
            stroke-width: 128;
          }
          to {
            stroke: black;
            stroke-width: 1024;
          }
        }
        #make-me-a-hanzi-animation-5 {
          animation: keyframes5 0.7195638020833334s both;
          animation-delay: 3.948567708333333s;
          animation-timing-function: linear;
        }
      
        @keyframes keyframes6 {
          from {
            stroke: blue;
            stroke-dashoffset: 870;
            stroke-width: 128;
          }
          74% {
            animation-timing-function: step-end;
            stroke: blue;
            stroke-dashoffset: 0;
            stroke-width: 128;
          }
          to {
            stroke: black;
            stroke-width: 1024;
          }
        }
        #make-me-a-hanzi-animation-6 {
          animation: keyframes6 0.9580078125s both;
          animation-delay: 4.668131510416666s;
          animation-timing-function: linear;
        }
      
        @keyframes keyframes7 {
          from {
            stroke: blue;
            stroke-dashoffset: 728;
            stroke-width: 128;
          }
          70% {
            animation-timing-function: step-end;
            stroke: blue;
            stroke-dashoffset: 0;
            stroke-width: 128;
          }
          to {
            stroke: black;
            stroke-width: 1024;
          }
        }
        #make-me-a-hanzi-animation-7 {
          animation: keyframes7 0.8424479166666666s both;
          animation-delay: 5.626139322916666s;
          animation-timing-function: linear;
        }
      
        @keyframes keyframes8 {
          from {
            stroke: blue;
            stroke-dashoffset: 455;
            stroke-width: 128;
          }
          60% {
            animation-timing-function: step-end;
            stroke: blue;
            stroke-dashoffset: 0;
            stroke-width: 128;
          }
          to {
            stroke: black;
            stroke-width: 1024;
          }
        }
        #make-me-a-hanzi-animation-8 {
          animation: keyframes8 0.6202799479166666s both;
          animation-delay: 6.468587239583333s;
          animation-timing-function: linear;
        }
      
        @keyframes keyframes9 {
          from {
            stroke: blue;
            stroke-dashoffset: 489;
            stroke-width: 128;
          }
          61% {
            animation-timing-function: step-end;
            stroke: blue;
            stroke-dashoffset: 0;
            stroke-width: 128;
          }
          to {
            stroke: black;
            stroke-width: 1024;
          }
        }
        #make-me-a-hanzi-animation-9 {
          animation: keyframes9 0.64794921875s both;
          animation-delay: 7.0888671875s;
          animation-timing-function: linear;
        }
      
        @keyframes keyframes10 {
          from {
            stroke: blue;
            stroke-dashoffset: 502;
            stroke-width: 128;
          }
          62% {
            animation-timing-function: step-end;
            stroke: blue;
            stroke-dashoffset: 0;
            stroke-width: 128;
          }
          to {
            stroke: black;
            stroke-width: 1024;
          }
        }
        #make-me-a-hanzi-animation-10 {
          animation: keyframes10 0.6585286458333334s both;
          animation-delay: 7.73681640625s;
          animation-timing-function: linear;
        }
      
        @keyframes keyframes11 {
          from {
            stroke: blue;
            stroke-dashoffset: 354;
            stroke-width: 128;
          }
          54% {
            animation-timing-function: step-end;
            stroke: blue;
            stroke-dashoffset: 0;
            stroke-width: 128;
          }
          to {
            stroke: black;
            stroke-width: 1024;
          }
        }
        #make-me-a-hanzi-animation-11 {
          animation: keyframes11 0.5380859375s both;
          animation-delay: 8.395345052083334s;
          animation-timing-function: linear;
        }
      
        @keyframes keyframes12 {
          from {
            stroke: blue;
            stroke-dashoffset: 605;
            stroke-width: 128;
          }
          66% {
            animation-timing-function: step-end;
            stroke: blue;
            stroke-dashoffset: 0;
            stroke-width: 128;
          }
          to {
            stroke: black;
            stroke-width: 1024;
          }
        }
        #make-me-a-hanzi-animation-12 {
          animation: keyframes12 0.7423502604166666s both;
          animation-delay: 8.933430989583334s;
          animation-timing-function: linear;
        }
      
        @keyframes keyframes13 {
          from {
            stroke: blue;
            stroke-dashoffset: 457;
            stroke-width: 128;
          }
          60% {
            animation-timing-function: step-end;
            stroke: blue;
            stroke-dashoffset: 0;
            stroke-width: 128;
          }
          to {
            stroke: black;
            stroke-width: 1024;
          }
        }
        #make-me-a-hanzi-animation-13 {
          animation: keyframes13 0.6219075520833334s both;
          animation-delay: 9.67578125s;
          animation-timing-function: linear;
        }
      
        @keyframes keyframes14 {
          from {
            stroke: blue;
            stroke-dashoffset: 867;
            stroke-width: 128;
          }
          74% {
            animation-timing-function: step-end;
            stroke: blue;
            stroke-dashoffset: 0;
            stroke-width: 128;
          }
          to {
            stroke: black;
            stroke-width: 1024;
          }
        }
        #make-me-a-hanzi-animation-14 {
          animation: keyframes14 0.95556640625s both;
          animation-delay: 10.297688802083334s;
          animation-timing-function: linear;
        }
      
    </style>
    
      <path d="M 256 511 Q 406 547 412 553 Q 419 560 415 569 Q 408 579 380 586 Q 350 590 322 578 Q 300 571 277 562 L 228 548 Q 185 539 136 532 Q 100 525 127 510 Q 158 492 212 500 L 256 511 Z" fill="lightgray" />
    
      <path d="M 317 313 Q 354 323 388 324 Q 416 327 408 340 Q 399 353 382 360 Q 370 364 319 348 L 273 338 L 204 323 Q 189 322 187 324 Q 186 325 188 337 Q 216 416 256 511 L 277 562 Q 325 659 331 665 Q 343 677 327 696 Q 302 721 281 734 Q 268 741 258 739 Q 251 735 256 713 Q 268 677 228 548 L 212 500 Q 155 356 121 322 Q 106 306 111 291 Q 118 272 129 261 Q 138 252 148 257 Q 182 276 269 301 Q 270 302 272 301 L 317 313 Z" fill="lightgray" />
    
      <path d="M 314 189 Q 327 196 343 203 Q 368 213 385 228 Q 398 235 398 244 Q 391 250 314 223 L 268 208 Q 102 157 69 156 Q 56 155 55 145 Q 54 132 62 125 Q 84 110 116 92 Q 126 89 137 98 Q 185 134 266 168 L 314 189 Z" fill="lightgray" />
    
      <path d="M 266 168 Q 259 45 247 11 Q 235 -22 269 -76 Q 279 -94 288 -98 Q 298 -99 304 -87 Q 317 -56 314 -27 Q 313 88 314 189 L 314 223 Q 314 274 317 313 L 319 348 Q 320 391 326 413 Q 329 425 322 431 Q 300 450 281 460 Q 269 464 260 457 Q 254 454 261 444 Q 271 426 273 338 L 272 301 Q 271 264 269 216 Q 268 212 268 208 L 266 168 Z" fill="lightgray" />
    
      <path d="M 596 706 Q 629 684 664 657 Q 679 647 695 649 Q 705 650 709 664 Q 712 680 699 708 Q 684 741 585 753 Q 569 754 564 751 Q 560 747 562 734 Q 566 724 596 706 Z" fill="lightgray" />
    
      <path d="M 513 544 Q 547 529 592 540 Q 688 559 787 581 Q 832 591 839 598 Q 846 605 843 613 Q 836 623 810 631 Q 785 635 691 604 Q 595 580 513 570 C 483 566 485 555 513 544 Z" fill="lightgray" />
    
      <path d="M 513 570 Q 497 583 469 594 Q 451 603 441 597 Q 431 590 437 579 Q 455 561 456 523 Q 456 349 440 255 Q 436 242 433 226 Q 412 151 348 28 Q 344 22 343 16 Q 342 6 350 9 Q 362 10 394 56 Q 506 201 508 469 Q 508 521 513 544 C 516 568 516 568 513 570 Z" fill="lightgray" />
    
      <path d="M 678 441 Q 618 432 613 427 L 573 418 Q 545 414 522 408 Q 507 407 513 397 Q 517 387 533 382 Q 540 379 577 389 L 614 399 Q 641 408 676 414 L 719 423 Q 734 427 752 430 Q 779 434 788 426 Q 795 417 793 408 Q 771 324 759 315 C 746 296 744 300 745 298 Q 760 271 773 263 Q 780 256 795 272 Q 805 285 833 359 Q 840 384 861 405 Q 873 415 864 427 Q 851 440 817 464 Q 801 473 788 467 Q 763 460 725 452 L 678 441 Z" fill="lightgray" />
    
      <path d="M 613 427 Q 613 443 615 450 Q 616 468 605 476 Q 589 489 568 495 Q 558 499 551 494 Q 545 490 550 478 Q 566 448 573 418 L 577 389 L 588 297 C 592 267 621 275 619 305 Q 615 363 614 399 L 613 427 Z" fill="lightgray" />
    
      <path d="M 725 452 Q 726 456 727 458 Q 730 473 743 504 Q 747 511 734 524 Q 709 542 692 547 Q 680 551 674 546 Q 667 542 672 529 Q 682 510 682 496 Q 681 471 678 441 L 676 414 Q 670 368 664 317 C 660 287 692 297 698 326 Q 708 377 719 423 L 725 452 Z" fill="lightgray" />
    
      <path d="M 588 297 Q 546 290 511 283 Q 495 280 505 267 Q 511 260 519 258 Q 528 257 538 259 Q 602 278 745 298 C 772 302 772 302 759 315 Q 755 321 740 329 Q 727 336 702 328 Q 699 328 698 326 C 694 324 693 324 664 317 Q 639 311 619 305 L 588 297 Z" fill="lightgray" />
    
      <path d="M 543 129 L 549 129 Q 597 136 633 142 Q 654 146 645 157 Q 635 170 613 172 Q 565 175 547 157 C 525 137 516 129 543 129 Z" fill="lightgray" />
    
      <path d="M 547 157 Q 548 176 551 180 Q 555 195 546 203 Q 537 213 501 227 Q 488 231 481 227 Q 475 223 483 205 Q 516 148 488 54 Q 487 54 487 52 Q 480 22 446 -11 Q 436 -20 441 -39 Q 447 -64 458 -75 Q 468 -84 480 -72 Q 511 -33 608 46 Q 621 55 624 62 Q 625 68 620 67 Q 614 67 544 34 Q 538 31 537 33 Q 534 34 535 42 Q 539 96 543 129 L 547 157 Z" fill="lightgray" />
    
      <path d="M 709 147 Q 802 174 866 208 Q 876 215 891 219 Q 903 225 901 233 Q 898 240 883 250 Q 849 268 829 268 Q 820 268 820 257 Q 811 223 711 167 C 685 152 680 139 709 147 Z" fill="lightgray" />
    
      <path d="M 711 167 Q 712 195 719 226 Q 723 242 712 251 Q 700 263 679 270 Q 667 274 660 269 Q 654 265 659 249 Q 672 215 670 181 Q 664 39 677 -1 Q 681 -20 698 -35 Q 764 -89 887 -61 Q 888 -60 891 -60 Q 919 -50 947 -29 Q 963 -14 952 9 Q 940 31 921 95 Q 920 110 913 114 Q 907 117 903 100 Q 879 30 864 8 Q 857 -2 835 -7 Q 787 -19 742 -2 Q 709 16 707 81 Q 707 112 709 147 L 711 167 Z" fill="lightgray" />
    
    
      <clipPath id="make-me-a-hanzi-clip-0">
        <path d="M 256 511 Q 406 547 412 553 Q 419 560 415 569 Q 408 579 380 586 Q 350 590 322 578 Q 300 571 277 562 L 228 548 Q 185 539 136 532 Q 100 525 127 510 Q 158 492 212 500 L 256 511 Z" />
      </clipPath>
      <path clip-path="url(#make-me-a-hanzi-clip-0)" d="M 128 522 L 160 517 L 201 520 L 359 562 L 405 562" fill="none" id="make-me-a-hanzi-animation-0" stroke-dasharray="411 822" stroke-linecap="round" />
    
      <clipPath id="make-me-a-hanzi-clip-1">
        <path d="M 317 313 Q 354 323 388 324 Q 416 327 408 340 Q 399 353 382 360 Q 370 364 319 348 L 273 338 L 204 323 Q 189 322 187 324 Q 186 325 188 337 Q 216 416 256 511 L 277 562 Q 325 659 331 665 Q 343 677 327 696 Q 302 721 281 734 Q 268 741 258 739 Q 251 735 256 713 Q 268 677 228 548 L 212 500 Q 155 356 121 322 Q 106 306 111 291 Q 118 272 129 261 Q 138 252 148 257 Q 182 276 269 301 Q 270 302 272 301 L 317 313 Z" />
      </clipPath>
      <path clip-path="url(#make-me-a-hanzi-clip-1)" d="M 263 731 L 295 677 L 230 494 L 158 323 L 157 302 L 203 301 L 372 342 L 395 336" fill="none" id="make-me-a-hanzi-animation-1" stroke-dasharray="835 1670" stroke-linecap="round" />
    
      <clipPath id="make-me-a-hanzi-clip-2">
        <path d="M 314 189 Q 327 196 343 203 Q 368 213 385 228 Q 398 235 398 244 Q 391 250 314 223 L 268 208 Q 102 157 69 156 Q 56 155 55 145 Q 54 132 62 125 Q 84 110 116 92 Q 126 89 137 98 Q 185 134 266 168 L 314 189 Z" />
      </clipPath>
      <path clip-path="url(#make-me-a-hanzi-clip-2)" d="M 68 143 L 121 130 L 395 240" fill="none" id="make-me-a-hanzi-animation-2" stroke-dasharray="478 956" stroke-linecap="round" />
    
      <clipPath id="make-me-a-hanzi-clip-3">
        <path d="M 266 168 Q 259 45 247 11 Q 235 -22 269 -76 Q 279 -94 288 -98 Q 298 -99 304 -87 Q 317 -56 314 -27 Q 313 88 314 189 L 314 223 Q 314 274 317 313 L 319 348 Q 320 391 326 413 Q 329 425 322 431 Q 300 450 281 460 Q 269 464 260 457 Q 254 454 261 444 Q 271 426 273 338 L 272 301 Q 271 264 269 216 Q 268 212 268 208 L 266 168 Z" />
      </clipPath>
      <path clip-path="url(#make-me-a-hanzi-clip-3)" d="M 268 451 L 297 415 L 289 123 L 279 -7 L 290 -86" fill="none" id="make-me-a-hanzi-animation-3" stroke-dasharray="676 1352" stroke-linecap="round" />
    
      <clipPath id="make-me-a-hanzi-clip-4">
        <path d="M 596 706 Q 629 684 664 657 Q 679 647 695 649 Q 705 650 709 664 Q 712 680 699 708 Q 684 741 585 753 Q 569 754 564 751 Q 560 747 562 734 Q 566 724 596 706 Z" />
      </clipPath>
      <path clip-path="url(#make-me-a-hanzi-clip-4)" d="M 570 745 L 656 704 L 692 666" fill="none" id="make-me-a-hanzi-animation-4" stroke-dasharray="276 552" stroke-linecap="round" />
    
      <clipPath id="make-me-a-hanzi-clip-5">
        <path d="M 513 544 Q 547 529 592 540 Q 688 559 787 581 Q 832 591 839 598 Q 846 605 843 613 Q 836 623 810 631 Q 785 635 691 604 Q 595 580 513 570 C 483 566 485 555 513 544 Z" />
      </clipPath>
      <path clip-path="url(#make-me-a-hanzi-clip-5)" d="M 521 564 L 529 555 L 565 556 L 765 602 L 832 608" fill="none" id="make-me-a-hanzi-animation-5" stroke-dasharray="449 898" stroke-linecap="round" />
    
      <clipPath id="make-me-a-hanzi-clip-6">
        <path d="M 513 570 Q 497 583 469 594 Q 451 603 441 597 Q 431 590 437 579 Q 455 561 456 523 Q 456 349 440 255 Q 436 242 433 226 Q 412 151 348 28 Q 344 22 343 16 Q 342 6 350 9 Q 362 10 394 56 Q 506 201 508 469 Q 508 521 513 544 C 516 568 516 568 513 570 Z" />
      </clipPath>
      <path clip-path="url(#make-me-a-hanzi-clip-6)" d="M 447 586 L 477 562 L 484 544 L 471 300 L 455 223 L 419 129 L 379 54 L 350 16" fill="none" id="make-me-a-hanzi-animation-6" stroke-dasharray="742 1484" stroke-linecap="round" />
    
      <clipPath id="make-me-a-hanzi-clip-7">
        <path d="M 678 441 Q 618 432 613 427 L 573 418 Q 545 414 522 408 Q 507 407 513 397 Q 517 387 533 382 Q 540 379 577 389 L 614 399 Q 641 408 676 414 L 719 423 Q 734 427 752 430 Q 779 434 788 426 Q 795 417 793 408 Q 771 324 759 315 C 746 296 744 300 745 298 Q 760 271 773 263 Q 780 256 795 272 Q 805 285 833 359 Q 840 384 861 405 Q 873 415 864 427 Q 851 440 817 464 Q 801 473 788 467 Q 763 460 725 452 L 678 441 Z" />
      </clipPath>
      <path clip-path="url(#make-me-a-hanzi-clip-7)" d="M 523 398 L 563 399 L 669 428 L 749 444 L 798 447 L 811 439 L 825 413 L 784 304 L 778 296 L 758 295" fill="none" id="make-me-a-hanzi-animation-7" stroke-dasharray="600 1200" stroke-linecap="round" />
    
      <clipPath id="make-me-a-hanzi-clip-8">
        <path d="M 613 427 Q 613 443 615 450 Q 616 468 605 476 Q 589 489 568 495 Q 558 499 551 494 Q 545 490 550 478 Q 566 448 573 418 L 577 389 L 588 297 C 592 267 621 275 619 305 Q 615 363 614 399 L 613 427 Z" />
      </clipPath>
      <path clip-path="url(#make-me-a-hanzi-clip-8)" d="M 558 486 L 589 455 L 602 332 L 602 318 L 591 305" fill="none" id="make-me-a-hanzi-animation-8" stroke-dasharray="327 654" stroke-linecap="round" />
    
      <clipPath id="make-me-a-hanzi-clip-9">
        <path d="M 725 452 Q 726 456 727 458 Q 730 473 743 504 Q 747 511 734 524 Q 709 542 692 547 Q 680 551 674 546 Q 667 542 672 529 Q 682 510 682 496 Q 681 471 678 441 L 676 414 Q 670 368 664 317 C 660 287 692 297 698 326 Q 708 377 719 423 L 725 452 Z" />
      </clipPath>
      <path clip-path="url(#make-me-a-hanzi-clip-9)" d="M 682 537 L 711 504 L 684 340 L 668 324" fill="none" id="make-me-a-hanzi-animation-9" stroke-dasharray="361 722" stroke-linecap="round" />
    
      <clipPath id="make-me-a-hanzi-clip-10">
        <path d="M 588 297 Q 546 290 511 283 Q 495 280 505 267 Q 511 260 519 258 Q 528 257 538 259 Q 602 278 745 298 C 772 302 772 302 759 315 Q 755 321 740 329 Q 727 336 702 328 Q 699 328 698 326 C 694 324 693 324 664 317 Q 639 311 619 305 L 588 297 Z" />
      </clipPath>
      <path clip-path="url(#make-me-a-hanzi-clip-10)" d="M 510 274 L 531 272 L 708 311 L 752 314" fill="none" id="make-me-a-hanzi-animation-10" stroke-dasharray="374 748" stroke-linecap="round" />
    
      <clipPath id="make-me-a-hanzi-clip-11">
        <path d="M 543 129 L 549 129 Q 597 136 633 142 Q 654 146 645 157 Q 635 170 613 172 Q 565 175 547 157 C 525 137 516 129 543 129 Z" />
      </clipPath>
      <path clip-path="url(#make-me-a-hanzi-clip-11)" d="M 546 136 L 556 138 L 561 148 L 589 154 L 637 151" fill="none" id="make-me-a-hanzi-animation-11" stroke-dasharray="226 452" stroke-linecap="round" />
    
      <clipPath id="make-me-a-hanzi-clip-12">
        <path d="M 547 157 Q 548 176 551 180 Q 555 195 546 203 Q 537 213 501 227 Q 488 231 481 227 Q 475 223 483 205 Q 516 148 488 54 Q 487 54 487 52 Q 480 22 446 -11 Q 436 -20 441 -39 Q 447 -64 458 -75 Q 468 -84 480 -72 Q 511 -33 608 46 Q 621 55 624 62 Q 625 68 620 67 Q 614 67 544 34 Q 538 31 537 33 Q 534 34 535 42 Q 539 96 543 129 L 547 157 Z" />
      </clipPath>
      <path clip-path="url(#make-me-a-hanzi-clip-12)" d="M 487 221 L 522 181 L 523 139 L 509 10 L 543 15 L 619 62" fill="none" id="make-me-a-hanzi-animation-12" stroke-dasharray="477 954" stroke-linecap="round" />
    
      <clipPath id="make-me-a-hanzi-clip-13">
        <path d="M 709 147 Q 802 174 866 208 Q 876 215 891 219 Q 903 225 901 233 Q 898 240 883 250 Q 849 268 829 268 Q 820 268 820 257 Q 811 223 711 167 C 685 152 680 139 709 147 Z" />
      </clipPath>
      <path clip-path="url(#make-me-a-hanzi-clip-13)" d="M 891 231 L 844 232 L 775 185 L 725 166 L 717 151" fill="none" id="make-me-a-hanzi-animation-13" stroke-dasharray="329 658" stroke-linecap="round" />
    
      <clipPath id="make-me-a-hanzi-clip-14">
        <path d="M 711 167 Q 712 195 719 226 Q 723 242 712 251 Q 700 263 679 270 Q 667 274 660 269 Q 654 265 659 249 Q 672 215 670 181 Q 664 39 677 -1 Q 681 -20 698 -35 Q 764 -89 887 -61 Q 888 -60 891 -60 Q 919 -50 947 -29 Q 963 -14 952 9 Q 940 31 921 95 Q 920 110 913 114 Q 907 117 903 100 Q 879 30 864 8 Q 857 -2 835 -7 Q 787 -19 742 -2 Q 709 16 707 81 Q 707 112 709 147 L 711 167 Z" />
      </clipPath>
      <path clip-path="url(#make-me-a-hanzi-clip-14)" d="M 667 261 L 686 242 L 693 223 L 687 147 L 692 33 L 702 1 L 729 -25 L 763 -37 L 804 -42 L 852 -36 L 892 -19 L 909 0 L 912 108" fill="none" id="make-me-a-hanzi-animation-14" stroke-dasharray="739 1478" stroke-linecap="round" />
    
  </g>
</svg>