<svg xmlns="http://www.w3.org/2000/svg" version="1.1" viewBox="0 0 1024 1024">
  <g stroke="lightgray" stroke-dasharray="1,1" stroke-width="1" transform="scale(4, 4)">
    <line x1="0" y1="0" x2="256" y2="256" />
    <line x1="256" y1="0" x2="0" y2="256" />
    <line x1="128" y1="0" x2="128" y2="256" />
    <line x1="0" y1="128" x2="256" y2="128" />
  </g>
  <g transform="scale(1.0, -1.0) translate(0.0, -764.50)">
    <style type="text/css">
      
        @keyframes keyframes0 {
          from {
            stroke: blue;
            stroke-dashoffset: 361;
            stroke-width: 128;
          }
          54% {
            animation-timing-function: step-end;
            stroke: blue;
            stroke-dashoffset: 0;
            stroke-width: 128;
          }
          to {
            stroke: black;
            stroke-width: 1024;
          }
        }
        #make-me-a-hanzi-animation-0 {
          animation: keyframes0 0.5437825520833334s both;
          animation-delay: 0s;
          animation-timing-function: linear;
        }
      
        @keyframes keyframes1 {
          from {
            stroke: blue;
            stroke-dashoffset: 558;
            stroke-width: 128;
          }
          64% {
            animation-timing-function: step-end;
            stroke: blue;
            stroke-dashoffset: 0;
            stroke-width: 128;
          }
          to {
            stroke: black;
            stroke-width: 1024;
          }
        }
        #make-me-a-hanzi-animation-1 {
          animation: keyframes1 0.7041015625s both;
          animation-delay: 0.5437825520833334s;
          animation-timing-function: linear;
        }
      
        @keyframes keyframes2 {
          from {
            stroke: blue;
            stroke-dashoffset: 357;
            stroke-width: 128;
          }
          54% {
            animation-timing-function: step-end;
            stroke: blue;
            stroke-dashoffset: 0;
            stroke-width: 128;
          }
          to {
            stroke: black;
            stroke-width: 1024;
          }
        }
        #make-me-a-hanzi-animation-2 {
          animation: keyframes2 0.54052734375s both;
          animation-delay: 1.2478841145833335s;
          animation-timing-function: linear;
        }
      
        @keyframes keyframes3 {
          from {
            stroke: blue;
            stroke-dashoffset: 422;
            stroke-width: 128;
          }
          58% {
            animation-timing-function: step-end;
            stroke: blue;
            stroke-dashoffset: 0;
            stroke-width: 128;
          }
          to {
            stroke: black;
            stroke-width: 1024;
          }
        }
        #make-me-a-hanzi-animation-3 {
          animation: keyframes3 0.5934244791666666s both;
          animation-delay: 1.7884114583333335s;
          animation-timing-function: linear;
        }
      
        @keyframes keyframes4 {
          from {
            stroke: blue;
            stroke-dashoffset: 627;
            stroke-width: 128;
          }
          67% {
            animation-timing-function: step-end;
            stroke: blue;
            stroke-dashoffset: 0;
            stroke-width: 128;
          }
          to {
            stroke: black;
            stroke-width: 1024;
          }
        }
        #make-me-a-hanzi-animation-4 {
          animation: keyframes4 0.76025390625s both;
          animation-delay: 2.3818359375s;
          animation-timing-function: linear;
        }
      
        @keyframes keyframes5 {
          from {
            stroke: blue;
            stroke-dashoffset: 532;
            stroke-width: 128;
          }
          63% {
            animation-timing-function: step-end;
            stroke: blue;
            stroke-dashoffset: 0;
            stroke-width: 128;
          }
          to {
            stroke: black;
            stroke-width: 1024;
          }
        }
        #make-me-a-hanzi-animation-5 {
          animation: keyframes5 0.6829427083333334s both;
          animation-delay: 3.14208984375s;
          animation-timing-function: linear;
        }
      
        @keyframes keyframes6 {
          from {
            stroke: blue;
            stroke-dashoffset: 701;
            stroke-width: 128;
          }
          70% {
            animation-timing-function: step-end;
            stroke: blue;
            stroke-dashoffset: 0;
            stroke-width: 128;
          }
          to {
            stroke: black;
            stroke-width: 1024;
          }
        }
        #make-me-a-hanzi-animation-6 {
          animation: keyframes6 0.8204752604166666s both;
          animation-delay: 3.8250325520833335s;
          animation-timing-function: linear;
        }
      
        @keyframes keyframes7 {
          from {
            stroke: blue;
            stroke-dashoffset: 894;
            stroke-width: 128;
          }
          74% {
            animation-timing-function: step-end;
            stroke: blue;
            stroke-dashoffset: 0;
            stroke-width: 128;
          }
          to {
            stroke: black;
            stroke-width: 1024;
          }
        }
        #make-me-a-hanzi-animation-7 {
          animation: keyframes7 0.9775390625s both;
          animation-delay: 4.6455078125s;
          animation-timing-function: linear;
        }
      
        @keyframes keyframes8 {
          from {
            stroke: blue;
            stroke-dashoffset: 863;
            stroke-width: 128;
          }
          74% {
            animation-timing-function: step-end;
            stroke: blue;
            stroke-dashoffset: 0;
            stroke-width: 128;
          }
          to {
            stroke: black;
            stroke-width: 1024;
          }
        }
        #make-me-a-hanzi-animation-8 {
          animation: keyframes8 0.9523111979166666s both;
          animation-delay: 5.623046875s;
          animation-timing-function: linear;
        }
      
        @keyframes keyframes9 {
          from {
            stroke: blue;
            stroke-dashoffset: 381;
            stroke-width: 128;
          }
          55% {
            animation-timing-function: step-end;
            stroke: blue;
            stroke-dashoffset: 0;
            stroke-width: 128;
          }
          to {
            stroke: black;
            stroke-width: 1024;
          }
        }
        #make-me-a-hanzi-animation-9 {
          animation: keyframes9 0.56005859375s both;
          animation-delay: 6.575358072916667s;
          animation-timing-function: linear;
        }
      
        @keyframes keyframes10 {
          from {
            stroke: blue;
            stroke-dashoffset: 560;
            stroke-width: 128;
          }
          65% {
            animation-timing-function: step-end;
            stroke: blue;
            stroke-dashoffset: 0;
            stroke-width: 128;
          }
          to {
            stroke: black;
            stroke-width: 1024;
          }
        }
        #make-me-a-hanzi-animation-10 {
          animation: keyframes10 0.7057291666666666s both;
          animation-delay: 7.135416666666667s;
          animation-timing-function: linear;
        }
      
        @keyframes keyframes11 {
          from {
            stroke: blue;
            stroke-dashoffset: 361;
            stroke-width: 128;
          }
          54% {
            animation-timing-function: step-end;
            stroke: blue;
            stroke-dashoffset: 0;
            stroke-width: 128;
          }
          to {
            stroke: black;
            stroke-width: 1024;
          }
        }
        #make-me-a-hanzi-animation-11 {
          animation: keyframes11 0.5437825520833334s both;
          animation-delay: 7.841145833333334s;
          animation-timing-function: linear;
        }
      
        @keyframes keyframes12 {
          from {
            stroke: blue;
            stroke-dashoffset: 434;
            stroke-width: 128;
          }
          59% {
            animation-timing-function: step-end;
            stroke: blue;
            stroke-dashoffset: 0;
            stroke-width: 128;
          }
          to {
            stroke: black;
            stroke-width: 1024;
          }
        }
        #make-me-a-hanzi-animation-12 {
          animation: keyframes12 0.6031901041666666s both;
          animation-delay: 8.384928385416668s;
          animation-timing-function: linear;
        }
      
        @keyframes keyframes13 {
          from {
            stroke: blue;
            stroke-dashoffset: 577;
            stroke-width: 128;
          }
          65% {
            animation-timing-function: step-end;
            stroke: blue;
            stroke-dashoffset: 0;
            stroke-width: 128;
          }
          to {
            stroke: black;
            stroke-width: 1024;
          }
        }
        #make-me-a-hanzi-animation-13 {
          animation: keyframes13 0.7195638020833334s both;
          animation-delay: 8.988118489583334s;
          animation-timing-function: linear;
        }
      
        @keyframes keyframes14 {
          from {
            stroke: blue;
            stroke-dashoffset: 550;
            stroke-width: 128;
          }
          64% {
            animation-timing-function: step-end;
            stroke: blue;
            stroke-dashoffset: 0;
            stroke-width: 128;
          }
          to {
            stroke: black;
            stroke-width: 1024;
          }
        }
        #make-me-a-hanzi-animation-14 {
          animation: keyframes14 0.6975911458333334s both;
          animation-delay: 9.707682291666668s;
          animation-timing-function: linear;
        }
      
        @keyframes keyframes15 {
          from {
            stroke: blue;
            stroke-dashoffset: 698;
            stroke-width: 128;
          }
          69% {
            animation-timing-function: step-end;
            stroke: blue;
            stroke-dashoffset: 0;
            stroke-width: 128;
          }
          to {
            stroke: black;
            stroke-width: 1024;
          }
        }
        #make-me-a-hanzi-animation-15 {
          animation: keyframes15 0.8180338541666666s both;
          animation-delay: 10.405273437500002s;
          animation-timing-function: linear;
        }
      
    </style>
    
      <path d="M 292 531 L 294 546 Q 299 566 288 582 Q 278 597 267 603 Q 256 608 235 616 L 222 621 Q 213 624 209 621 Q 205 617 210 610 Q 236 558 248 538 L 260 522 C 278 498 288 501 292 531 Z" fill="lightgray" />
    
      <path d="M 347 498 L 399 513 Q 422 519 422 528 Q 420 534 416 538 L 399 547 L 382 553 Q 372 555 368 555 L 349 548 Q 323 537 292 531 L 260 522 L 224 515 Q 214 512 182 508 Q 151 503 136 502 L 114 500 Q 108 500 107 495 Q 106 490 113 483 Q 121 476 153 472 L 212 476 Q 257 476 320 491 L 347 498 Z" fill="lightgray" />
    
      <path d="M 170 448 L 158 452 Q 152 454 149 451 Q 147 448 150 441 L 158 422 L 172 395 Q 194 349 211 349 Q 218 346 225 355 Q 249 376 216 420 Q 210 424 204 430 Q 200 431 170 448 Z" fill="lightgray" />
    
      <path d="M 319 336 L 364 427 Q 367 435 377 447 Q 388 459 391 466 Q 392 474 382 479 L 366 488 Q 363 491 347 498 C 320 510 319 511 320 491 L 322 464 Q 323 448 319 427 L 300 334 C 294 305 306 309 319 336 Z" fill="lightgray" />
    
      <path d="M 279 296 L 382 311 L 410 312 Q 428 312 418 328 Q 408 344 380 348 Q 376 349 353 344 L 319 336 L 300 334 L 225 320 L 46 296 Q 42 295 42 290 Q 43 281 65 267 Q 93 253 105 256 Q 107 256 122 261 L 156 271 L 233 286 L 279 296 Z" fill="lightgray" />
    
      <path d="M 105 169 Q 105 159 114 148 L 143 130 Q 157 121 167 127 L 230 151 L 286 174 L 325 189 Q 383 210 386 224 Q 388 231 373 228 L 293 210 L 237 198 L 208 191 Q 143 180 125 179 Q 108 178 105 169 Z" fill="lightgray" />
    
      <path d="M 230 151 L 224 108 Q 189 -26 120 -79 L 107 -90 Q 102 -94 103 -99 Q 104 -105 112 -102 L 130 -96 Q 142 -92 166 -74 Q 214 -39 235 7 Q 264 59 273 109 L 284 159 L 286 174 L 293 210 Q 298 238 300 243 L 309 259 Q 311 264 311 269 Q 311 276 279 296 C 254 312 227 315 233 286 L 238 260 Q 244 228 237 198 L 230 151 Z" fill="lightgray" />
    
      <path d="M 603 318 L 605 336 Q 607 375 624 397 Q 630 407 628 413 Q 627 422 601 438 L 582 450 Q 570 455 566 455 L 550 448 Q 538 441 534 440 L 509 436 L 464 427 L 401 418 Q 399 418 397 414 Q 396 409 403 403 Q 435 378 456 394 L 504 406 L 529 410 Q 546 412 551 409 Q 566 401 561 374 Q 556 347 555 316 Q 549 262 546 241 L 521 129 Q 513 92 492 92 Q 480 90 469 94 L 439 107 Q 433 109 431 105 Q 429 101 439 94 L 452 76 Q 473 51 478 37 Q 487 13 508 26 Q 560 61 578 166 L 599 304 L 603 318 Z" fill="lightgray" />
    
      <path d="M 509 436 L 527 513 Q 533 543 542 559 L 546 573 Q 545 590 509 604 Q 498 612 484 613 Q 471 613 471 603 Q 471 598 475 580 Q 480 561 478 544 L 464 427 L 456 394 L 445 340 Q 440 312 429 281 Q 397 168 332 67 L 322 52 Q 316 44 320 40 Q 322 35 334 46 L 349 60 Q 450 160 504 406 L 509 436 Z" fill="lightgray" />
    
      <path d="M 767 542 L 777 570 Q 782 597 755 618 Q 738 631 710 646 L 696 653 Q 693 654 690 653 Q 687 651 689 646 L 693 635 Q 694 631 713 589 Q 733 547 740 537 C 756 512 757 514 767 542 Z" fill="lightgray" />
    
      <path d="M 835 513 L 874 521 Q 899 528 903 534 Q 903 544 887 551 Q 869 562 854 562 Q 839 562 819 556 Q 800 549 767 542 L 740 537 L 700 528 L 647 521 L 612 515 L 595 515 Q 589 514 588 509 Q 588 504 600 497 Q 612 490 641 490 L 805 509 L 835 513 Z" fill="lightgray" />
    
      <path d="M 671 477 L 658 481 Q 651 484 648 482 Q 645 479 648 472 L 653 463 Q 653 459 666 420 Q 681 391 688 379 Q 700 364 714 372 Q 728 379 728 404 Q 729 428 703 454 Q 691 467 671 477 Z" fill="lightgray" />
    
      <path d="M 805 509 L 809 486 Q 809 460 797 416 L 779 344 C 772 315 789 322 803 348 L 826 391 Q 838 412 859 456 Q 864 466 870 472 Q 877 478 877 481 Q 877 492 835 513 C 808 527 801 530 805 509 Z" fill="lightgray" />
    
      <path d="M 779 344 L 708 332 L 603 318 C 579 315 579 315 599 304 L 614 296 Q 628 284 649 284 L 689 296 L 719 300 L 779 309 L 919 318 Q 944 318 929 338 Q 915 351 870 362 Q 865 362 851 360 L 826 353 Q 810 349 803 348 L 779 344 Z" fill="lightgray" />
    
      <path d="M 729 202 L 614 185 Q 611 185 611 181 Q 611 176 629 164 Q 647 152 657 152 Q 668 152 686 158 Q 704 164 729 168 L 780 174 L 874 182 L 901 182 Q 913 181 914 185 Q 919 195 899 208 L 883 217 Q 873 224 853 222 L 782 210 L 729 202 Z" fill="lightgray" />
    
      <path d="M 719 300 L 727 262 Q 729 246 729 232 L 729 202 L 729 168 L 729 -104 Q 731 -125 735 -137 Q 740 -149 750 -135 Q 760 -121 766 -88 L 775 -14 L 780 174 L 782 210 L 784 227 Q 783 250 793 268 L 799 278 Q 801 284 801 287 Q 801 290 795 297 L 779 309 C 755 327 713 329 719 300 Z" fill="lightgray" />
    
    
      <clipPath id="make-me-a-hanzi-clip-0">
        <path d="M 292 531 L 294 546 Q 299 566 288 582 Q 278 597 267 603 Q 256 608 235 616 L 222 621 Q 213 624 209 621 Q 205 617 210 610 Q 236 558 248 538 L 260 522 C 278 498 288 501 292 531 Z" />
      </clipPath>
      <path clip-path="url(#make-me-a-hanzi-clip-0)" d="M 216 616 L 266 564 L 263 531" fill="none" id="make-me-a-hanzi-animation-0" stroke-dasharray="233 466" stroke-linecap="round" />
    
      <clipPath id="make-me-a-hanzi-clip-1">
        <path d="M 347 498 L 399 513 Q 422 519 422 528 Q 420 534 416 538 L 399 547 L 382 553 Q 372 555 368 555 L 349 548 Q 323 537 292 531 L 260 522 L 224 515 Q 214 512 182 508 Q 151 503 136 502 L 114 500 Q 108 500 107 495 Q 106 490 113 483 Q 121 476 153 472 L 212 476 Q 257 476 320 491 L 347 498 Z" />
      </clipPath>
      <path clip-path="url(#make-me-a-hanzi-clip-1)" d="M 115 491 L 203 492 L 290 506 L 372 530 L 412 529" fill="none" id="make-me-a-hanzi-animation-1" stroke-dasharray="430 860" stroke-linecap="round" />
    
      <clipPath id="make-me-a-hanzi-clip-2">
        <path d="M 170 448 L 158 452 Q 152 454 149 451 Q 147 448 150 441 L 158 422 L 172 395 Q 194 349 211 349 Q 218 346 225 355 Q 249 376 216 420 Q 210 424 204 430 Q 200 431 170 448 Z" />
      </clipPath>
      <path clip-path="url(#make-me-a-hanzi-clip-2)" d="M 154 446 L 195 406 L 212 366" fill="none" id="make-me-a-hanzi-animation-2" stroke-dasharray="229 458" stroke-linecap="round" />
    
      <clipPath id="make-me-a-hanzi-clip-3">
        <path d="M 319 336 L 364 427 Q 367 435 377 447 Q 388 459 391 466 Q 392 474 382 479 L 366 488 Q 363 491 347 498 C 320 510 319 511 320 491 L 322 464 Q 323 448 319 427 L 300 334 C 294 305 306 309 319 336 Z" />
      </clipPath>
      <path clip-path="url(#make-me-a-hanzi-clip-3)" d="M 329 485 L 352 462 L 319 360 L 313 345 L 304 341" fill="none" id="make-me-a-hanzi-animation-3" stroke-dasharray="294 588" stroke-linecap="round" />
    
      <clipPath id="make-me-a-hanzi-clip-4">
        <path d="M 279 296 L 382 311 L 410 312 Q 428 312 418 328 Q 408 344 380 348 Q 376 349 353 344 L 319 336 L 300 334 L 225 320 L 46 296 Q 42 295 42 290 Q 43 281 65 267 Q 93 253 105 256 Q 107 256 122 261 L 156 271 L 233 286 L 279 296 Z" />
      </clipPath>
      <path clip-path="url(#make-me-a-hanzi-clip-4)" d="M 49 289 L 94 279 L 365 329 L 396 328 L 413 320" fill="none" id="make-me-a-hanzi-animation-4" stroke-dasharray="499 998" stroke-linecap="round" />
    
      <clipPath id="make-me-a-hanzi-clip-5">
        <path d="M 105 169 Q 105 159 114 148 L 143 130 Q 157 121 167 127 L 230 151 L 286 174 L 325 189 Q 383 210 386 224 Q 388 231 373 228 L 293 210 L 237 198 L 208 191 Q 143 180 125 179 Q 108 178 105 169 Z" />
      </clipPath>
      <path clip-path="url(#make-me-a-hanzi-clip-5)" d="M 115 166 L 163 155 L 350 210 L 379 224" fill="none" id="make-me-a-hanzi-animation-5" stroke-dasharray="404 808" stroke-linecap="round" />
    
      <clipPath id="make-me-a-hanzi-clip-6">
        <path d="M 230 151 L 224 108 Q 189 -26 120 -79 L 107 -90 Q 102 -94 103 -99 Q 104 -105 112 -102 L 130 -96 Q 142 -92 166 -74 Q 214 -39 235 7 Q 264 59 273 109 L 284 159 L 286 174 L 293 210 Q 298 238 300 243 L 309 259 Q 311 264 311 269 Q 311 276 279 296 C 254 312 227 315 233 286 L 238 260 Q 244 228 237 198 L 230 151 Z" />
      </clipPath>
      <path clip-path="url(#make-me-a-hanzi-clip-6)" d="M 242 281 L 271 260 L 242 80 L 193 -24 L 152 -70 L 109 -96" fill="none" id="make-me-a-hanzi-animation-6" stroke-dasharray="573 1146" stroke-linecap="round" />
    
      <clipPath id="make-me-a-hanzi-clip-7">
        <path d="M 603 318 L 605 336 Q 607 375 624 397 Q 630 407 628 413 Q 627 422 601 438 L 582 450 Q 570 455 566 455 L 550 448 Q 538 441 534 440 L 509 436 L 464 427 L 401 418 Q 399 418 397 414 Q 396 409 403 403 Q 435 378 456 394 L 504 406 L 529 410 Q 546 412 551 409 Q 566 401 561 374 Q 556 347 555 316 Q 549 262 546 241 L 521 129 Q 513 92 492 92 Q 480 90 469 94 L 439 107 Q 433 109 431 105 Q 429 101 439 94 L 452 76 Q 473 51 478 37 Q 487 13 508 26 Q 560 61 578 166 L 599 304 L 603 318 Z" />
      </clipPath>
      <path clip-path="url(#make-me-a-hanzi-clip-7)" d="M 404 411 L 438 405 L 563 429 L 582 418 L 591 404 L 568 238 L 534 95 L 502 62 L 436 101" fill="none" id="make-me-a-hanzi-animation-7" stroke-dasharray="766 1532" stroke-linecap="round" />
    
      <clipPath id="make-me-a-hanzi-clip-8">
        <path d="M 509 436 L 527 513 Q 533 543 542 559 L 546 573 Q 545 590 509 604 Q 498 612 484 613 Q 471 613 471 603 Q 471 598 475 580 Q 480 561 478 544 L 464 427 L 456 394 L 445 340 Q 440 312 429 281 Q 397 168 332 67 L 322 52 Q 316 44 320 40 Q 322 35 334 46 L 349 60 Q 450 160 504 406 L 509 436 Z" />
      </clipPath>
      <path clip-path="url(#make-me-a-hanzi-clip-8)" d="M 481 603 L 510 568 L 459 306 L 420 197 L 395 145 L 326 45" fill="none" id="make-me-a-hanzi-animation-8" stroke-dasharray="735 1470" stroke-linecap="round" />
    
      <clipPath id="make-me-a-hanzi-clip-9">
        <path d="M 767 542 L 777 570 Q 782 597 755 618 Q 738 631 710 646 L 696 653 Q 693 654 690 653 Q 687 651 689 646 L 693 635 Q 694 631 713 589 Q 733 547 740 537 C 756 512 757 514 767 542 Z" />
      </clipPath>
      <path clip-path="url(#make-me-a-hanzi-clip-9)" d="M 693 649 L 749 582 L 745 545" fill="none" id="make-me-a-hanzi-animation-9" stroke-dasharray="253 506" stroke-linecap="round" />
    
      <clipPath id="make-me-a-hanzi-clip-10">
        <path d="M 835 513 L 874 521 Q 899 528 903 534 Q 903 544 887 551 Q 869 562 854 562 Q 839 562 819 556 Q 800 549 767 542 L 740 537 L 700 528 L 647 521 L 612 515 L 595 515 Q 589 514 588 509 Q 588 504 600 497 Q 612 490 641 490 L 805 509 L 835 513 Z" />
      </clipPath>
      <path clip-path="url(#make-me-a-hanzi-clip-10)" d="M 594 509 L 632 504 L 857 540 L 895 536" fill="none" id="make-me-a-hanzi-animation-10" stroke-dasharray="432 864" stroke-linecap="round" />
    
      <clipPath id="make-me-a-hanzi-clip-11">
        <path d="M 671 477 L 658 481 Q 651 484 648 482 Q 645 479 648 472 L 653 463 Q 653 459 666 420 Q 681 391 688 379 Q 700 364 714 372 Q 728 379 728 404 Q 729 428 703 454 Q 691 467 671 477 Z" />
      </clipPath>
      <path clip-path="url(#make-me-a-hanzi-clip-11)" d="M 653 477 L 696 421 L 704 388" fill="none" id="make-me-a-hanzi-animation-11" stroke-dasharray="233 466" stroke-linecap="round" />
    
      <clipPath id="make-me-a-hanzi-clip-12">
        <path d="M 805 509 L 809 486 Q 809 460 797 416 L 779 344 C 772 315 789 322 803 348 L 826 391 Q 838 412 859 456 Q 864 466 870 472 Q 877 478 877 481 Q 877 492 835 513 C 808 527 801 530 805 509 Z" />
      </clipPath>
      <path clip-path="url(#make-me-a-hanzi-clip-12)" d="M 813 505 L 834 488 L 837 475 L 795 358 L 784 350" fill="none" id="make-me-a-hanzi-animation-12" stroke-dasharray="306 612" stroke-linecap="round" />
    
      <clipPath id="make-me-a-hanzi-clip-13">
        <path d="M 779 344 L 708 332 L 603 318 C 579 315 579 315 599 304 L 614 296 Q 628 284 649 284 L 689 296 L 719 300 L 779 309 L 919 318 Q 944 318 929 338 Q 915 351 870 362 Q 865 362 851 360 L 826 353 Q 810 349 803 348 L 779 344 Z" />
      </clipPath>
      <path clip-path="url(#make-me-a-hanzi-clip-13)" d="M 607 309 L 650 304 L 875 339 L 924 328" fill="none" id="make-me-a-hanzi-animation-13" stroke-dasharray="449 898" stroke-linecap="round" />
    
      <clipPath id="make-me-a-hanzi-clip-14">
        <path d="M 729 202 L 614 185 Q 611 185 611 181 Q 611 176 629 164 Q 647 152 657 152 Q 668 152 686 158 Q 704 164 729 168 L 780 174 L 874 182 L 901 182 Q 913 181 914 185 Q 919 195 899 208 L 883 217 Q 873 224 853 222 L 782 210 L 729 202 Z" />
      </clipPath>
      <path clip-path="url(#make-me-a-hanzi-clip-14)" d="M 617 180 L 644 172 L 673 173 L 710 183 L 861 202 L 906 190" fill="none" id="make-me-a-hanzi-animation-14" stroke-dasharray="422 844" stroke-linecap="round" />
    
      <clipPath id="make-me-a-hanzi-clip-15">
        <path d="M 719 300 L 727 262 Q 729 246 729 232 L 729 202 L 729 168 L 729 -104 Q 731 -125 735 -137 Q 740 -149 750 -135 Q 760 -121 766 -88 L 775 -14 L 780 174 L 782 210 L 784 227 Q 783 250 793 268 L 799 278 Q 801 284 801 287 Q 801 290 795 297 L 779 309 C 755 327 713 329 719 300 Z" />
      </clipPath>
      <path clip-path="url(#make-me-a-hanzi-clip-15)" d="M 727 295 L 759 272 L 752 -6 L 742 -130" fill="none" id="make-me-a-hanzi-animation-15" stroke-dasharray="570 1140" stroke-linecap="round" />
    
  </g>
</svg>