<svg xmlns="http://www.w3.org/2000/svg" version="1.1" viewBox="0 0 1024 1024">
  <g stroke="lightgray" stroke-dasharray="1,1" stroke-width="1" transform="scale(4, 4)">
    <line x1="0" y1="0" x2="256" y2="256" />
    <line x1="256" y1="0" x2="0" y2="256" />
    <line x1="128" y1="0" x2="128" y2="256" />
    <line x1="0" y1="128" x2="256" y2="128" />
  </g>
  <g transform="scale(1.0, -1.0) translate(0.0, -792.00)">
    <style type="text/css">
      
        @keyframes keyframes0 {
          from {
            stroke: blue;
            stroke-dashoffset: 374;
            stroke-width: 128;
          }
          55% {
            animation-timing-function: step-end;
            stroke: blue;
            stroke-dashoffset: 0;
            stroke-width: 128;
          }
          to {
            stroke: black;
            stroke-width: 1024;
          }
        }
        #make-me-a-hanzi-animation-0 {
          animation: keyframes0 0.5543619791666666s both;
          animation-delay: 0s;
          animation-timing-function: linear;
        }
      
        @keyframes keyframes1 {
          from {
            stroke: blue;
            stroke-dashoffset: 556;
            stroke-width: 128;
          }
          64% {
            animation-timing-function: step-end;
            stroke: blue;
            stroke-dashoffset: 0;
            stroke-width: 128;
          }
          to {
            stroke: black;
            stroke-width: 1024;
          }
        }
        #make-me-a-hanzi-animation-1 {
          animation: keyframes1 0.7024739583333334s both;
          animation-delay: 0.5543619791666666s;
          animation-timing-function: linear;
        }
      
        @keyframes keyframes2 {
          from {
            stroke: blue;
            stroke-dashoffset: 359;
            stroke-width: 128;
          }
          54% {
            animation-timing-function: step-end;
            stroke: blue;
            stroke-dashoffset: 0;
            stroke-width: 128;
          }
          to {
            stroke: black;
            stroke-width: 1024;
          }
        }
        #make-me-a-hanzi-animation-2 {
          animation: keyframes2 0.5421549479166666s both;
          animation-delay: 1.2568359375s;
          animation-timing-function: linear;
        }
      
        @keyframes keyframes3 {
          from {
            stroke: blue;
            stroke-dashoffset: 443;
            stroke-width: 128;
          }
          59% {
            animation-timing-function: step-end;
            stroke: blue;
            stroke-dashoffset: 0;
            stroke-width: 128;
          }
          to {
            stroke: black;
            stroke-width: 1024;
          }
        }
        #make-me-a-hanzi-animation-3 {
          animation: keyframes3 0.6105143229166666s both;
          animation-delay: 1.7989908854166665s;
          animation-timing-function: linear;
        }
      
        @keyframes keyframes4 {
          from {
            stroke: blue;
            stroke-dashoffset: 634;
            stroke-width: 128;
          }
          67% {
            animation-timing-function: step-end;
            stroke: blue;
            stroke-dashoffset: 0;
            stroke-width: 128;
          }
          to {
            stroke: black;
            stroke-width: 1024;
          }
        }
        #make-me-a-hanzi-animation-4 {
          animation: keyframes4 0.7659505208333334s both;
          animation-delay: 2.409505208333333s;
          animation-timing-function: linear;
        }
      
        @keyframes keyframes5 {
          from {
            stroke: blue;
            stroke-dashoffset: 543;
            stroke-width: 128;
          }
          64% {
            animation-timing-function: step-end;
            stroke: blue;
            stroke-dashoffset: 0;
            stroke-width: 128;
          }
          to {
            stroke: black;
            stroke-width: 1024;
          }
        }
        #make-me-a-hanzi-animation-5 {
          animation: keyframes5 0.69189453125s both;
          animation-delay: 3.1754557291666665s;
          animation-timing-function: linear;
        }
      
        @keyframes keyframes6 {
          from {
            stroke: blue;
            stroke-dashoffset: 691;
            stroke-width: 128;
          }
          69% {
            animation-timing-function: step-end;
            stroke: blue;
            stroke-dashoffset: 0;
            stroke-width: 128;
          }
          to {
            stroke: black;
            stroke-width: 1024;
          }
        }
        #make-me-a-hanzi-animation-6 {
          animation: keyframes6 0.8123372395833334s both;
          animation-delay: 3.8673502604166665s;
          animation-timing-function: linear;
        }
      
        @keyframes keyframes7 {
          from {
            stroke: blue;
            stroke-dashoffset: 550;
            stroke-width: 128;
          }
          64% {
            animation-timing-function: step-end;
            stroke: blue;
            stroke-dashoffset: 0;
            stroke-width: 128;
          }
          to {
            stroke: black;
            stroke-width: 1024;
          }
        }
        #make-me-a-hanzi-animation-7 {
          animation: keyframes7 0.6975911458333334s both;
          animation-delay: 4.6796875s;
          animation-timing-function: linear;
        }
      
        @keyframes keyframes8 {
          from {
            stroke: blue;
            stroke-dashoffset: 436;
            stroke-width: 128;
          }
          59% {
            animation-timing-function: step-end;
            stroke: blue;
            stroke-dashoffset: 0;
            stroke-width: 128;
          }
          to {
            stroke: black;
            stroke-width: 1024;
          }
        }
        #make-me-a-hanzi-animation-8 {
          animation: keyframes8 0.6048177083333334s both;
          animation-delay: 5.377278645833333s;
          animation-timing-function: linear;
        }
      
        @keyframes keyframes9 {
          from {
            stroke: blue;
            stroke-dashoffset: 662;
            stroke-width: 128;
          }
          68% {
            animation-timing-function: step-end;
            stroke: blue;
            stroke-dashoffset: 0;
            stroke-width: 128;
          }
          to {
            stroke: black;
            stroke-width: 1024;
          }
        }
        #make-me-a-hanzi-animation-9 {
          animation: keyframes9 0.7887369791666666s both;
          animation-delay: 5.982096354166666s;
          animation-timing-function: linear;
        }
      
        @keyframes keyframes10 {
          from {
            stroke: blue;
            stroke-dashoffset: 517;
            stroke-width: 128;
          }
          63% {
            animation-timing-function: step-end;
            stroke: blue;
            stroke-dashoffset: 0;
            stroke-width: 128;
          }
          to {
            stroke: black;
            stroke-width: 1024;
          }
        }
        #make-me-a-hanzi-animation-10 {
          animation: keyframes10 0.6707356770833334s both;
          animation-delay: 6.770833333333333s;
          animation-timing-function: linear;
        }
      
        @keyframes keyframes11 {
          from {
            stroke: blue;
            stroke-dashoffset: 1095;
            stroke-width: 128;
          }
          78% {
            animation-timing-function: step-end;
            stroke: blue;
            stroke-dashoffset: 0;
            stroke-width: 128;
          }
          to {
            stroke: black;
            stroke-width: 1024;
          }
        }
        #make-me-a-hanzi-animation-11 {
          animation: keyframes11 1.14111328125s both;
          animation-delay: 7.441569010416666s;
          animation-timing-function: linear;
        }
      
        @keyframes keyframes12 {
          from {
            stroke: blue;
            stroke-dashoffset: 640;
            stroke-width: 128;
          }
          68% {
            animation-timing-function: step-end;
            stroke: blue;
            stroke-dashoffset: 0;
            stroke-width: 128;
          }
          to {
            stroke: black;
            stroke-width: 1024;
          }
        }
        #make-me-a-hanzi-animation-12 {
          animation: keyframes12 0.7708333333333334s both;
          animation-delay: 8.582682291666666s;
          animation-timing-function: linear;
        }
      
        @keyframes keyframes13 {
          from {
            stroke: blue;
            stroke-dashoffset: 681;
            stroke-width: 128;
          }
          69% {
            animation-timing-function: step-end;
            stroke: blue;
            stroke-dashoffset: 0;
            stroke-width: 128;
          }
          to {
            stroke: black;
            stroke-width: 1024;
          }
        }
        #make-me-a-hanzi-animation-13 {
          animation: keyframes13 0.80419921875s both;
          animation-delay: 9.353515625s;
          animation-timing-function: linear;
        }
      
    </style>
    
      <path d="M 276 524 L 286 542 Q 290 549 289 567 Q 288 585 280 595 Q 272 605 252 619 Q 233 633 219 637 L 208 640 Q 186 647 196 631 L 223 571 Q 237 541 255 520 C 266 506 266 506 276 524 Z" fill="lightgray" />
    
      <path d="M 343 494 L 390 509 Q 414 515 414 524 Q 414 528 406 533 Q 378 552 358 549 L 276 524 L 255 520 L 188 504 Q 176 501 128 494 L 104 490 Q 91 487 101 476 Q 114 467 146 464 L 206 469 Q 229 469 308 486 L 343 494 Z" fill="lightgray" />
    
      <path d="M 164 430 L 147 435 Q 137 435 146 414 L 164 372 L 179 347 Q 190 324 204 324 Q 210 323 218 330 Q 226 337 226 354 Q 227 395 180 422 L 164 430 Z" fill="lightgray" />
    
      <path d="M 312 311 L 356 416 Q 364 436 373 446 Q 383 455 383 459 Q 384 463 378 471 Q 367 479 343 494 C 318 510 306 516 308 486 L 310 452 L 308 409 Q 306 372 294 307 C 289 277 300 283 312 311 Z" fill="lightgray" />
    
      <path d="M 284 269 L 341 279 Q 361 283 381 284 L 410 287 Q 426 289 421 301 Q 416 312 403 317 Q 390 322 381 322 Q 372 322 348 318 L 312 311 L 294 307 L 228 294 L 36 262 Q 34 261 32 256 Q 32 250 40 244 L 55 233 Q 80 222 93 222 Q 106 222 135 233 Q 164 244 238 259 L 284 269 Z" fill="lightgray" />
    
      <path d="M 341 198 L 299 187 L 244 173 L 190 158 L 112 143 Q 106 143 106 139 Q 106 134 114 126 Q 135 112 152 113 Q 170 113 192 118 L 238 129 L 292 141 L 324 147 Q 345 151 366 158 L 386 164 Q 406 170 404 180 Q 404 184 393 189 Q 383 193 362 196 Q 351 200 341 198 Z" fill="lightgray" />
    
      <path d="M 299 187 L 306 218 L 314 238 Q 313 244 303 252 L 284 269 C 262 289 232 288 238 259 L 246 220 Q 248 213 244 173 L 238 129 L 230 92 Q 213 -1 152 -66 Q 129 -86 108 -103 Q 102 -106 104 -111 Q 106 -117 114 -114 L 131 -108 Q 214 -74 264 38 Q 276 70 282 93 L 292 141 L 299 187 Z" fill="lightgray" />
    
      <path d="M 624 497 L 724 515 L 753 523 Q 760 524 760 534 Q 763 538 730 554 L 708 558 Q 704 558 687 553 Q 670 547 664 546 L 624 537 L 574 526 L 516 517 Q 506 515 474 513 L 460 511 Q 454 510 454 506 Q 454 501 458 497 Q 470 481 499 482 Q 528 483 540 484 L 576 489 L 624 497 Z" fill="lightgray" />
    
      <path d="M 467 396 L 442 398 Q 426 400 425 398 Q 416 393 432 378 Q 444 368 454 320 L 462 259 Q 463 248 469 236 Q 476 224 484 224 Q 488 223 490 228 Q 494 232 496 239 L 494 271 L 482 370 C 479 395 479 395 467 396 Z" fill="lightgray" />
    
      <path d="M 748 292 L 770 339 Q 780 362 788 370 L 804 388 Q 812 398 810 403 Q 808 414 782 430 Q 756 446 743 446 Q 730 446 709 441 Q 688 435 682 434 L 620 423 L 578 414 L 467 396 C 437 391 453 364 482 370 L 576 388 L 620 395 L 696 406 Q 720 410 726 395 Q 726 387 722 366 L 710 302 C 704 273 735 265 748 292 Z" fill="lightgray" />
    
      <path d="M 496 239 L 560 245 L 618 252 L 732 264 L 758 264 Q 764 268 764 271 Q 764 273 760 280 L 748 292 C 734 306 734 306 710 302 L 618 287 L 576 279 L 494 271 C 464 268 466 236 496 239 Z" fill="lightgray" />
    
      <path d="M 572 178 L 568 68 Q 568 63 566 51 L 563 28 Q 562 18 555 -15 Q 548 -49 548 -61 Q 548 -74 566 -112 Q 576 -142 588 -142 Q 592 -143 603 -125 Q 614 -108 620 -58 L 620 -8 Q 618 13 618 34 L 616 198 L 618 240 L 618 252 L 618 287 L 620 395 L 620 423 L 624 497 L 624 537 L 626 589 Q 626 624 634 643 Q 642 662 641 667 Q 640 671 628 679 Q 614 689 572 700 Q 550 703 550 688 Q 550 684 561 664 Q 572 643 572 607 L 574 526 L 576 489 L 578 414 L 576 388 L 576 279 L 572 178 Z" fill="lightgray" />
    
      <path d="M 560 245 L 520 186 Q 508 169 473 128 Q 438 87 420 68 L 370 22 Q 327 -8 306 -26 Q 301 -31 303 -35 Q 306 -39 314 -35 L 336 -26 Q 352 -21 386 0 Q 442 31 500 91 Q 536 132 572 178 C 632 254 577 270 560 245 Z" fill="lightgray" />
    
      <path d="M 616 198 L 685 97 L 761 -10 Q 770 -21 782 -25 Q 795 -30 838 -31 Q 881 -32 919 -20 L 936 -16 Q 942 -15 944 -11 Q 946 -8 943 -5 Q 940 -2 933 1 L 889 20 Q 853 35 832 45 Q 746 87 652 198 L 618 240 C 599 263 599 223 616 198 Z" fill="lightgray" />
    
    
      <clipPath id="make-me-a-hanzi-clip-0">
        <path d="M 276 524 L 286 542 Q 290 549 289 567 Q 288 585 280 595 Q 272 605 252 619 Q 233 633 219 637 L 208 640 Q 186 647 196 631 L 223 571 Q 237 541 255 520 C 266 506 266 506 276 524 Z" />
      </clipPath>
      <path clip-path="url(#make-me-a-hanzi-clip-0)" d="M 207 629 L 256 575 L 263 549 L 258 532" fill="none" id="make-me-a-hanzi-animation-0" stroke-dasharray="246 492" stroke-linecap="round" />
    
      <clipPath id="make-me-a-hanzi-clip-1">
        <path d="M 343 494 L 390 509 Q 414 515 414 524 Q 414 528 406 533 Q 378 552 358 549 L 276 524 L 255 520 L 188 504 Q 176 501 128 494 L 104 490 Q 91 487 101 476 Q 114 467 146 464 L 206 469 Q 229 469 308 486 L 343 494 Z" />
      </clipPath>
      <path clip-path="url(#make-me-a-hanzi-clip-1)" d="M 110 481 L 197 486 L 358 524 L 405 524" fill="none" id="make-me-a-hanzi-animation-1" stroke-dasharray="428 856" stroke-linecap="round" />
    
      <clipPath id="make-me-a-hanzi-clip-2">
        <path d="M 164 430 L 147 435 Q 137 435 146 414 L 164 372 L 179 347 Q 190 324 204 324 Q 210 323 218 330 Q 226 337 226 354 Q 227 395 180 422 L 164 430 Z" />
      </clipPath>
      <path clip-path="url(#make-me-a-hanzi-clip-2)" d="M 149 427 L 195 373 L 204 342" fill="none" id="make-me-a-hanzi-animation-2" stroke-dasharray="231 462" stroke-linecap="round" />
    
      <clipPath id="make-me-a-hanzi-clip-3">
        <path d="M 312 311 L 356 416 Q 364 436 373 446 Q 383 455 383 459 Q 384 463 378 471 Q 367 479 343 494 C 318 510 306 516 308 486 L 310 452 L 308 409 Q 306 372 294 307 C 289 277 300 283 312 311 Z" />
      </clipPath>
      <path clip-path="url(#make-me-a-hanzi-clip-3)" d="M 315 481 L 341 457 L 311 335 L 306 319 L 297 316" fill="none" id="make-me-a-hanzi-animation-3" stroke-dasharray="315 630" stroke-linecap="round" />
    
      <clipPath id="make-me-a-hanzi-clip-4">
        <path d="M 284 269 L 341 279 Q 361 283 381 284 L 410 287 Q 426 289 421 301 Q 416 312 403 317 Q 390 322 381 322 Q 372 322 348 318 L 312 311 L 294 307 L 228 294 L 36 262 Q 34 261 32 256 Q 32 250 40 244 L 55 233 Q 80 222 93 222 Q 106 222 135 233 Q 164 244 238 259 L 284 269 Z" />
      </clipPath>
      <path clip-path="url(#make-me-a-hanzi-clip-4)" d="M 42 254 L 70 247 L 104 248 L 358 301 L 392 303 L 412 296" fill="none" id="make-me-a-hanzi-animation-4" stroke-dasharray="506 1012" stroke-linecap="round" />
    
      <clipPath id="make-me-a-hanzi-clip-5">
        <path d="M 341 198 L 299 187 L 244 173 L 190 158 L 112 143 Q 106 143 106 139 Q 106 134 114 126 Q 135 112 152 113 Q 170 113 192 118 L 238 129 L 292 141 L 324 147 Q 345 151 366 158 L 386 164 Q 406 170 404 180 Q 404 184 393 189 Q 383 193 362 196 Q 351 200 341 198 Z" />
      </clipPath>
      <path clip-path="url(#make-me-a-hanzi-clip-5)" d="M 113 135 L 148 131 L 195 138 L 347 176 L 394 179" fill="none" id="make-me-a-hanzi-animation-5" stroke-dasharray="415 830" stroke-linecap="round" />
    
      <clipPath id="make-me-a-hanzi-clip-6">
        <path d="M 299 187 L 306 218 L 314 238 Q 313 244 303 252 L 284 269 C 262 289 232 288 238 259 L 246 220 Q 248 213 244 173 L 238 129 L 230 92 Q 213 -1 152 -66 Q 129 -86 108 -103 Q 102 -106 104 -111 Q 106 -117 114 -114 L 131 -108 Q 214 -74 264 38 Q 276 70 282 93 L 292 141 L 299 187 Z" />
      </clipPath>
      <path clip-path="url(#make-me-a-hanzi-clip-6)" d="M 247 254 L 276 232 L 276 217 L 264 128 L 241 39 L 219 -6 L 185 -54 L 155 -81 L 110 -109" fill="none" id="make-me-a-hanzi-animation-6" stroke-dasharray="563 1126" stroke-linecap="round" />
    
      <clipPath id="make-me-a-hanzi-clip-7">
        <path d="M 624 497 L 724 515 L 753 523 Q 760 524 760 534 Q 763 538 730 554 L 708 558 Q 704 558 687 553 Q 670 547 664 546 L 624 537 L 574 526 L 516 517 Q 506 515 474 513 L 460 511 Q 454 510 454 506 Q 454 501 458 497 Q 470 481 499 482 Q 528 483 540 484 L 576 489 L 624 497 Z" />
      </clipPath>
      <path clip-path="url(#make-me-a-hanzi-clip-7)" d="M 461 504 L 507 498 L 708 535 L 751 532" fill="none" id="make-me-a-hanzi-animation-7" stroke-dasharray="422 844" stroke-linecap="round" />
    
      <clipPath id="make-me-a-hanzi-clip-8">
        <path d="M 467 396 L 442 398 Q 426 400 425 398 Q 416 393 432 378 Q 444 368 454 320 L 462 259 Q 463 248 469 236 Q 476 224 484 224 Q 488 223 490 228 Q 494 232 496 239 L 494 271 L 482 370 C 479 395 479 395 467 396 Z" />
      </clipPath>
      <path clip-path="url(#make-me-a-hanzi-clip-8)" d="M 429 392 L 456 378 L 462 367 L 483 232" fill="none" id="make-me-a-hanzi-animation-8" stroke-dasharray="308 616" stroke-linecap="round" />
    
      <clipPath id="make-me-a-hanzi-clip-9">
        <path d="M 748 292 L 770 339 Q 780 362 788 370 L 804 388 Q 812 398 810 403 Q 808 414 782 430 Q 756 446 743 446 Q 730 446 709 441 Q 688 435 682 434 L 620 423 L 578 414 L 467 396 C 437 391 453 364 482 370 L 576 388 L 620 395 L 696 406 Q 720 410 726 395 Q 726 387 722 366 L 710 302 C 704 273 735 265 748 292 Z" />
      </clipPath>
      <path clip-path="url(#make-me-a-hanzi-clip-9)" d="M 475 392 L 490 386 L 719 424 L 743 418 L 763 398 L 734 317 L 718 307" fill="none" id="make-me-a-hanzi-animation-9" stroke-dasharray="534 1068" stroke-linecap="round" />
    
      <clipPath id="make-me-a-hanzi-clip-10">
        <path d="M 496 239 L 560 245 L 618 252 L 732 264 L 758 264 Q 764 268 764 271 Q 764 273 760 280 L 748 292 C 734 306 734 306 710 302 L 618 287 L 576 279 L 494 271 C 464 268 466 236 496 239 Z" />
      </clipPath>
      <path clip-path="url(#make-me-a-hanzi-clip-10)" d="M 502 245 L 510 256 L 705 282 L 755 272" fill="none" id="make-me-a-hanzi-animation-10" stroke-dasharray="389 778" stroke-linecap="round" />
    
      <clipPath id="make-me-a-hanzi-clip-11">
        <path d="M 572 178 L 568 68 Q 568 63 566 51 L 563 28 Q 562 18 555 -15 Q 548 -49 548 -61 Q 548 -74 566 -112 Q 576 -142 588 -142 Q 592 -143 603 -125 Q 614 -108 620 -58 L 620 -8 Q 618 13 618 34 L 616 198 L 618 240 L 618 252 L 618 287 L 620 395 L 620 423 L 624 497 L 624 537 L 626 589 Q 626 624 634 643 Q 642 662 641 667 Q 640 671 628 679 Q 614 689 572 700 Q 550 703 550 688 Q 550 684 561 664 Q 572 643 572 607 L 574 526 L 576 489 L 578 414 L 576 388 L 576 279 L 572 178 Z" />
      </clipPath>
      <path clip-path="url(#make-me-a-hanzi-clip-11)" d="M 563 688 L 601 654 L 593 56 L 584 -48 L 587 -134" fill="none" id="make-me-a-hanzi-animation-11" stroke-dasharray="967 1934" stroke-linecap="round" />
    
      <clipPath id="make-me-a-hanzi-clip-12">
        <path d="M 560 245 L 520 186 Q 508 169 473 128 Q 438 87 420 68 L 370 22 Q 327 -8 306 -26 Q 301 -31 303 -35 Q 306 -39 314 -35 L 336 -26 Q 352 -21 386 0 Q 442 31 500 91 Q 536 132 572 178 C 632 254 577 270 560 245 Z" />
      </clipPath>
      <path clip-path="url(#make-me-a-hanzi-clip-12)" d="M 568 240 L 549 186 L 479 100 L 395 23 L 309 -32" fill="none" id="make-me-a-hanzi-animation-12" stroke-dasharray="512 1024" stroke-linecap="round" />
    
      <clipPath id="make-me-a-hanzi-clip-13">
        <path d="M 616 198 L 685 97 L 761 -10 Q 770 -21 782 -25 Q 795 -30 838 -31 Q 881 -32 919 -20 L 936 -16 Q 942 -15 944 -11 Q 946 -8 943 -5 Q 940 -2 933 1 L 889 20 Q 853 35 832 45 Q 746 87 652 198 L 618 240 C 599 263 599 223 616 198 Z" />
      </clipPath>
      <path clip-path="url(#make-me-a-hanzi-clip-13)" d="M 620 233 L 640 187 L 698 115 L 790 20 L 845 2 L 937 -9" fill="none" id="make-me-a-hanzi-animation-13" stroke-dasharray="553 1106" stroke-linecap="round" />
    
  </g>
</svg>