<svg version="1.1" viewBox="0 0 1024 1024" xmlns="http://www.w3.org/2000/svg">
  <g stroke="lightgray" stroke-dasharray="1,1" stroke-width="1" transform="scale(4, 4)">
    <line x1="0" y1="0" x2="256" y2="256"></line>
    <line x1="256" y1="0" x2="0" y2="256"></line>
    <line x1="128" y1="0" x2="128" y2="256"></line>
    <line x1="0" y1="128" x2="256" y2="128"></line>
  </g>
  <g transform="scale(0.92, -0.92) translate(60, -830)">
    <style type="text/css">
      
        @keyframes keyframes0 {
          from {
            stroke: blue;
            stroke-dashoffset: 1184;
            stroke-width: 128;
          }
          79% {
            animation-timing-function: step-end;
            stroke: blue;
            stroke-dashoffset: 0;
            stroke-width: 128;
          }
          to {
            stroke: black;
            stroke-width: 1024;
          }
        }
        #make-me-a-hanzi-animation-0 {
          animation: keyframes0 1.2135416666666667s both;
          animation-delay: 0s;
          animation-timing-function: linear;
        }
      
        @keyframes keyframes1 {
          from {
            stroke: blue;
            stroke-dashoffset: 912;
            stroke-width: 128;
          }
          75% {
            animation-timing-function: step-end;
            stroke: blue;
            stroke-dashoffset: 0;
            stroke-width: 128;
          }
          to {
            stroke: black;
            stroke-width: 1024;
          }
        }
        #make-me-a-hanzi-animation-1 {
          animation: keyframes1 0.9921875s both;
          animation-delay: 1.2135416666666667s;
          animation-timing-function: linear;
        }
      
        @keyframes keyframes2 {
          from {
            stroke: blue;
            stroke-dashoffset: 419;
            stroke-width: 128;
          }
          58% {
            animation-timing-function: step-end;
            stroke: blue;
            stroke-dashoffset: 0;
            stroke-width: 128;
          }
          to {
            stroke: black;
            stroke-width: 1024;
          }
        }
        #make-me-a-hanzi-animation-2 {
          animation: keyframes2 0.5909830729166666s both;
          animation-delay: 2.205729166666667s;
          animation-timing-function: linear;
        }
      
        @keyframes keyframes3 {
          from {
            stroke: blue;
            stroke-dashoffset: 794;
            stroke-width: 128;
          }
          72% {
            animation-timing-function: step-end;
            stroke: blue;
            stroke-dashoffset: 0;
            stroke-width: 128;
          }
          to {
            stroke: black;
            stroke-width: 1024;
          }
        }
        #make-me-a-hanzi-animation-3 {
          animation: keyframes3 0.8961588541666666s both;
          animation-delay: 2.7967122395833335s;
          animation-timing-function: linear;
        }
      
        @keyframes keyframes4 {
          from {
            stroke: blue;
            stroke-dashoffset: 1159;
            stroke-width: 128;
          }
          79% {
            animation-timing-function: step-end;
            stroke: blue;
            stroke-dashoffset: 0;
            stroke-width: 128;
          }
          to {
            stroke: black;
            stroke-width: 1024;
          }
        }
        #make-me-a-hanzi-animation-4 {
          animation: keyframes4 1.1931966145833333s both;
          animation-delay: 3.69287109375s;
          animation-timing-function: linear;
        }
      
    </style>
    
      <path d="M 718 182 Q 713 162 707 159 Q 701 156 693 156 Q 689 156 684 157 L 612 177 Q 605 179 600 179 Q 593 179 593 174 L 593 173 Q 597 165 606 156 Q 670 98 692 64 Q 703 51 713 51 L 717 51 Q 729 55 751 86 Q 790 141 808 312 Q 824 457 839 478 Q 850 490 850 498 Q 850 501 848 504 Q 837 519 795 547 Q 782 555 770 555 Q 763 555 757 553 Q 738 546 684 531 L 632 518 L 571 501 L 549 494 Q 472 472 435 472 Q 430 473 426 473 Q 416 473 412 468 Q 411 467 411 465 Q 411 456 427 439 Q 448 417 455 416 Q 464 418 561 449 L 623 471 Q 665 486 698 492 Q 718 497 731 497 Q 741 497 746 494 Q 767 482 767 435 L 767 423 Q 761 344 718 182 Z" fill="lightgray"></path>
    
      <path d="M 632 518 Q 640 553 644 584 Q 649 616 652 643 Q 655 659 659 674 Q 664 682 664 689 Q 664 696 659 702 Q 643 723 613 739 Q 599 746 590 746 Q 584 746 580 744 Q 570 738 570 731 Q 570 727 573 723 Q 579 714 585 702 Q 589 690 589 674 Q 586 647 585 617 Q 580 555 571 501 L 561 449 Q 549 397 534 357 Q 506 284 470 224 Q 449 189 428 158 Q 421 149 420 143 L 420 140 Q 420 135 426 135 L 428 135 Q 439 138 455 153 L 483 180 Q 527 227 561 294 Q 593 354 612 426 Q 619 449 623 471 L 632 518 Z" fill="lightgray"></path>
    
      <path d="M 245 714 L 245 711 Q 245 704 257 693 Q 328 620 362 599 Q 369 595 376 595 Q 382 595 388 598 Q 397 605 397 621 Q 397 630 394 643 Q 388 664 379 673 Q 368 684 347 693 Q 317 708 263 720 Q 259 721 256 721 Q 247 721 245 714 Z" fill="lightgray"></path>
    
      <path d="M 241 435 L 243 435 Q 255 435 261 424 Q 271 411 271 399 Q 271 383 256 368 Q 228 338 227 302 Q 227 275 239 254 Q 260 214 266 195 Q 273 172 273 155 L 273 151 Q 271 135 268 126 C 261 97 285 102 304 126 Q 314 135 318 147 Q 323 163 323 179 Q 323 189 321 199 Q 315 221 288 258 Q 278 274 278 299 L 278 300 Q 278 321 304 361 Q 330 400 349 421 Q 362 431 362 441 Q 362 449 354 457 Q 333 476 300 494 Q 290 499 281 499 Q 269 499 257 491 Q 223 469 181 457 Q 135 444 115 444 Q 110 444 107 445 Q 98 445 97 441 L 97 439 Q 97 434 103 430 Q 124 418 146 418 Q 151 418 156 419 Q 193 422 241 435 Z" fill="lightgray"></path>
    
      <path d="M 268 126 Q 223 121 190 106 Q 145 87 106 81 Q 84 78 81 71 L 81 70 Q 81 60 106 40 Q 123 28 136 28 Q 144 28 151 32 Q 251 88 302 88 Q 331 84 380 63 Q 442 34 553 -29 Q 622 -70 694 -97 Q 742 -117 752 -117 Q 774 -117 807 -104 Q 874 -78 919 -57 Q 948 -46 948 -40 Q 948 -35 914 -35 Q 825 -31 726 -10 Q 644 2 596 15 Q 529 36 435 78 Q 343 122 304 126 L 268 126 Z" fill="lightgray"></path>
    
    
      <clipPath id="make-me-a-hanzi-clip-0">
        <path d="M 718 182 Q 713 162 707 159 Q 701 156 693 156 Q 689 156 684 157 L 612 177 Q 605 179 600 179 Q 593 179 593 174 L 593 173 Q 597 165 606 156 Q 670 98 692 64 Q 703 51 713 51 L 717 51 Q 729 55 751 86 Q 790 141 808 312 Q 824 457 839 478 Q 850 490 850 498 Q 850 501 848 504 Q 837 519 795 547 Q 782 555 770 555 Q 763 555 757 553 Q 738 546 684 531 L 632 518 L 571 501 L 549 494 Q 472 472 435 472 Q 430 473 426 473 Q 416 473 412 468 Q 411 467 411 465 Q 411 456 427 439 Q 448 417 455 416 Q 464 418 561 449 L 623 471 Q 665 486 698 492 Q 718 497 731 497 Q 741 497 746 494 Q 767 482 767 435 L 767 423 Q 761 344 718 182 Z"></path>
      </clipPath>
      <path clip-path="url(#make-me-a-hanzi-clip-0)" d="M 422 463 L 459 446 L 643 500 L 736 521 L 771 520 L 799 493 L 779 304 L 756 193 L 734 132 L 713 113 L 706 115 L 599 174" fill="none" id="make-me-a-hanzi-animation-0" stroke-dasharray="1056 2112" stroke-linecap="round"></path>
    
      <clipPath id="make-me-a-hanzi-clip-1">
        <path d="M 632 518 Q 640 553 644 584 Q 649 616 652 643 Q 655 659 659 674 Q 664 682 664 689 Q 664 696 659 702 Q 643 723 613 739 Q 599 746 590 746 Q 584 746 580 744 Q 570 738 570 731 Q 570 727 573 723 Q 579 714 585 702 Q 589 690 589 674 Q 586 647 585 617 Q 580 555 571 501 L 561 449 Q 549 397 534 357 Q 506 284 470 224 Q 449 189 428 158 Q 421 149 420 143 L 420 140 Q 420 135 426 135 L 428 135 Q 439 138 455 153 L 483 180 Q 527 227 561 294 Q 593 354 612 426 Q 619 449 623 471 L 632 518 Z"></path>
      </clipPath>
      <path clip-path="url(#make-me-a-hanzi-clip-1)" d="M 581 731 L 608 714 L 624 684 L 610 557 L 584 425 L 566 366 L 522 270 L 467 187 L 426 142" fill="none" id="make-me-a-hanzi-animation-1" stroke-dasharray="784 1568" stroke-linecap="round"></path>
    
      <clipPath id="make-me-a-hanzi-clip-2">
        <path d="M 245 714 L 245 711 Q 245 704 257 693 Q 328 620 362 599 Q 369 595 376 595 Q 382 595 388 598 Q 397 605 397 621 Q 397 630 394 643 Q 388 664 379 673 Q 368 684 347 693 Q 317 708 263 720 Q 259 721 256 721 Q 247 721 245 714 Z"></path>
      </clipPath>
      <path clip-path="url(#make-me-a-hanzi-clip-2)" d="M 254 713 L 357 646 L 378 612" fill="none" id="make-me-a-hanzi-animation-2" stroke-dasharray="291 582" stroke-linecap="round"></path>
    
      <clipPath id="make-me-a-hanzi-clip-3">
        <path d="M 241 435 L 243 435 Q 255 435 261 424 Q 271 411 271 399 Q 271 383 256 368 Q 228 338 227 302 Q 227 275 239 254 Q 260 214 266 195 Q 273 172 273 155 L 273 151 Q 271 135 268 126 C 261 97 285 102 304 126 Q 314 135 318 147 Q 323 163 323 179 Q 323 189 321 199 Q 315 221 288 258 Q 278 274 278 299 L 278 300 Q 278 321 304 361 Q 330 400 349 421 Q 362 431 362 441 Q 362 449 354 457 Q 333 476 300 494 Q 290 499 281 499 Q 269 499 257 491 Q 223 469 181 457 Q 135 444 115 444 Q 110 444 107 445 Q 98 445 97 441 L 97 439 Q 97 434 103 430 Q 124 418 146 418 Q 151 418 156 419 Q 193 422 241 435 Z"></path>
      </clipPath>
      <path clip-path="url(#make-me-a-hanzi-clip-3)" d="M 130 431 L 164 441 L 174 434 L 207 449 L 215 444 L 249 463 L 281 459 L 295 451 L 305 435 L 299 390 L 282 375 L 278 352 L 262 341 L 252 300 L 251 283 L 262 273 L 264 245 L 282 230 L 293 202 L 292 179 L 298 166 L 295 147 L 286 135" fill="none" id="make-me-a-hanzi-animation-3" stroke-dasharray="666 1332" stroke-linecap="round"></path>
    
      <clipPath id="make-me-a-hanzi-clip-4">
        <path d="M 268 126 Q 223 121 190 106 Q 145 87 106 81 Q 84 78 81 71 L 81 70 Q 81 60 106 40 Q 123 28 136 28 Q 144 28 151 32 Q 251 88 302 88 Q 331 84 380 63 Q 442 34 553 -29 Q 622 -70 694 -97 Q 742 -117 752 -117 Q 774 -117 807 -104 Q 874 -78 919 -57 Q 948 -46 948 -40 Q 948 -35 914 -35 Q 825 -31 726 -10 Q 644 2 596 15 Q 529 36 435 78 Q 343 122 304 126 L 268 126 Z"></path>
      </clipPath>
      <path clip-path="url(#make-me-a-hanzi-clip-4)" d="M 88 71 L 136 57 L 226 95 L 263 105 L 306 107 L 399 76 L 588 -15 L 755 -67 L 867 -56 L 944 -41" fill="none" id="make-me-a-hanzi-animation-4" stroke-dasharray="1031 2062" stroke-linecap="round"></path>
    
  </g>
</svg>