<svg version="1.1" viewBox="0 0 1024 1024" xmlns="http://www.w3.org/2000/svg">
  <g stroke="lightgray" stroke-dasharray="1,1" stroke-width="1" transform="scale(4, 4)">
    <line x1="0" y1="0" x2="256" y2="256"></line>
    <line x1="256" y1="0" x2="0" y2="256"></line>
    <line x1="128" y1="0" x2="128" y2="256"></line>
    <line x1="0" y1="128" x2="256" y2="128"></line>
  </g>
  <g transform="scale(0.92, -0.92) translate(60, -830)">
    <style type="text/css">
      
        @keyframes keyframes0 {
          from {
            stroke: blue;
            stroke-dashoffset: 621;
            stroke-width: 128;
          }
          67% {
            animation-timing-function: step-end;
            stroke: blue;
            stroke-dashoffset: 0;
            stroke-width: 128;
          }
          to {
            stroke: black;
            stroke-width: 1024;
          }
        }
        #make-me-a-hanzi-animation-0 {
          animation: keyframes0 0.75537109375s both;
          animation-delay: 0s;
          animation-timing-function: linear;
        }
      
        @keyframes keyframes1 {
          from {
            stroke: blue;
            stroke-dashoffset: 745;
            stroke-width: 128;
          }
          71% {
            animation-timing-function: step-end;
            stroke: blue;
            stroke-dashoffset: 0;
            stroke-width: 128;
          }
          to {
            stroke: black;
            stroke-width: 1024;
          }
        }
        #make-me-a-hanzi-animation-1 {
          animation: keyframes1 0.8562825520833334s both;
          animation-delay: 0.75537109375s;
          animation-timing-function: linear;
        }
      
        @keyframes keyframes2 {
          from {
            stroke: blue;
            stroke-dashoffset: 816;
            stroke-width: 128;
          }
          73% {
            animation-timing-function: step-end;
            stroke: blue;
            stroke-dashoffset: 0;
            stroke-width: 128;
          }
          to {
            stroke: black;
            stroke-width: 1024;
          }
        }
        #make-me-a-hanzi-animation-2 {
          animation: keyframes2 0.9140625s both;
          animation-delay: 1.6116536458333335s;
          animation-timing-function: linear;
        }
      
        @keyframes keyframes3 {
          from {
            stroke: blue;
            stroke-dashoffset: 398;
            stroke-width: 128;
          }
          56% {
            animation-timing-function: step-end;
            stroke: blue;
            stroke-dashoffset: 0;
            stroke-width: 128;
          }
          to {
            stroke: black;
            stroke-width: 1024;
          }
        }
        #make-me-a-hanzi-animation-3 {
          animation: keyframes3 0.5738932291666666s both;
          animation-delay: 2.5257161458333335s;
          animation-timing-function: linear;
        }
      
        @keyframes keyframes4 {
          from {
            stroke: blue;
            stroke-dashoffset: 714;
            stroke-width: 128;
          }
          70% {
            animation-timing-function: step-end;
            stroke: blue;
            stroke-dashoffset: 0;
            stroke-width: 128;
          }
          to {
            stroke: black;
            stroke-width: 1024;
          }
        }
        #make-me-a-hanzi-animation-4 {
          animation: keyframes4 0.8310546875s both;
          animation-delay: 3.099609375s;
          animation-timing-function: linear;
        }
      
        @keyframes keyframes5 {
          from {
            stroke: blue;
            stroke-dashoffset: 1133;
            stroke-width: 128;
          }
          79% {
            animation-timing-function: step-end;
            stroke: blue;
            stroke-dashoffset: 0;
            stroke-width: 128;
          }
          to {
            stroke: black;
            stroke-width: 1024;
          }
        }
        #make-me-a-hanzi-animation-5 {
          animation: keyframes5 1.1720377604166667s both;
          animation-delay: 3.9306640625s;
          animation-timing-function: linear;
        }
      
    </style>
    
      <path d="M 610 605 Q 623 610 635 613 Q 685 633 719 633 Q 746 634 749 641 Q 750 644 750 648 Q 750 656 742 664 Q 721 685 676 706 Q 659 715 646 715 Q 636 714 636 699 Q 634 686 619 674 Q 597 657 551 633 Q 490 602 400 571 Q 392 567 392 564 L 393 563 Q 398 560 416 560 Q 452 563 518 578 Q 536 584 552 588 L 610 605 Z" fill="lightgray"></path>
    
      <path d="M 374 408 Q 356 406 356 400 Q 356 396 365 390 Q 388 375 406 369 Q 414 367 424 367 Q 441 367 465 372 Q 515 386 566 390 L 567 390 L 621 396 Q 671 401 725 401 Q 758 403 786 403 Q 814 403 836 401 L 841 401 Q 854 401 857 409 Q 858 412 858 415 Q 858 425 848 435 Q 829 452 799 462 Q 787 466 773 466 Q 761 466 749 463 Q 689 451 622 442 L 567 434 Q 476 420 374 408 Z" fill="lightgray"></path>
    
      <path d="M 567 390 Q 566 318 566 233 L 566 180 Q 566 107 568 79 Q 571 53 580 44 Q 584 40 588 40 Q 590 40 592 41 Q 601 44 605 59 Q 611 74 614 107 Q 620 164 620 219 L 620 235 Q 619 251 619 280 Q 619 324 621 396 L 622 442 Q 623 469 624 499 L 627 535 Q 631 556 634 569 L 634 574 Q 634 588 623 596 Q 616 602 610 605 C 585 622 538 615 552 588 Q 554 585 555 582 Q 567 562 567 535 L 567 434 L 567 390 Z" fill="lightgray"></path>
    
      <path d="M 150 581 L 150 580 Q 150 573 162 562 Q 226 499 256 481 Q 263 478 269 478 Q 275 478 279 481 Q 288 488 288 502 Q 288 511 284 523 Q 277 543 270 549 Q 259 559 241 566 Q 213 578 167 587 Q 164 588 161 588 Q 152 588 150 581 Z" fill="lightgray"></path>
    
      <path d="M 149 367 Q 111 353 96 353 L 89 353 Q 82 353 81 348 L 81 346 Q 81 341 87 338 Q 107 327 130 327 Q 135 327 140 328 Q 164 332 194 342 L 196 342 Q 207 342 213 331 Q 221 322 221 312 Q 221 301 211 290 Q 190 268 190 241 Q 191 215 203 194 Q 221 164 225 149 Q 231 128 231 115 Q 229 98 225 89 L 223 87 C 211 59 228 65 250 85 Q 266 97 273 112 Q 278 126 278 140 Q 278 147 277 154 Q 273 171 252 198 Q 242 213 242 240 Q 243 256 264 286 Q 286 316 301 331 Q 314 341 314 351 Q 314 359 305 366 Q 284 384 251 402 Q 241 407 232 407 Q 219 407 208 398 Q 182 379 149 367 Z" fill="lightgray"></path>
    
      <path d="M 223 87 Q 193 86 171 80 Q 137 70 110 70 Q 88 68 85 62 L 85 60 Q 85 51 106 30 Q 122 16 135 16 Q 141 16 147 19 Q 209 48 242 48 L 252 48 Q 282 48 334 34 Q 403 15 529 -36 Q 608 -67 687 -85 Q 739 -97 751 -97 Q 773 -96 807 -78 Q 875 -43 920 -16 Q 945 -3 945 3 Q 944 6 934 6 Q 926 6 913 4 Q 850 -4 782 -4 Q 748 -4 713 -2 Q 626 -2 574 7 Q 503 19 398 52 Q 290 85 252 85 L 250 85 L 223 87 Z" fill="lightgray"></path>
    
    
      <clipPath id="make-me-a-hanzi-clip-0">
        <path d="M 610 605 Q 623 610 635 613 Q 685 633 719 633 Q 746 634 749 641 Q 750 644 750 648 Q 750 656 742 664 Q 721 685 676 706 Q 659 715 646 715 Q 636 714 636 699 Q 634 686 619 674 Q 597 657 551 633 Q 490 602 400 571 Q 392 567 392 564 L 393 563 Q 398 560 416 560 Q 452 563 518 578 Q 536 584 552 588 L 610 605 Z"></path>
      </clipPath>
      <path clip-path="url(#make-me-a-hanzi-clip-0)" d="M 740 646 L 697 661 L 664 664 L 553 610 L 458 578 L 396 567" fill="none" id="make-me-a-hanzi-animation-0" stroke-dasharray="493 986" stroke-linecap="round"></path>
    
      <clipPath id="make-me-a-hanzi-clip-1">
        <path d="M 374 408 Q 356 406 356 400 Q 356 396 365 390 Q 388 375 406 369 Q 414 367 424 367 Q 441 367 465 372 Q 515 386 566 390 L 567 390 L 621 396 Q 671 401 725 401 Q 758 403 786 403 Q 814 403 836 401 L 841 401 Q 854 401 857 409 Q 858 412 858 415 Q 858 425 848 435 Q 829 452 799 462 Q 787 466 773 466 Q 761 466 749 463 Q 689 451 622 442 L 567 434 Q 476 420 374 408 Z"></path>
      </clipPath>
      <path clip-path="url(#make-me-a-hanzi-clip-1)" d="M 364 398 L 407 390 L 453 393 L 591 416 L 769 435 L 807 430 L 846 414" fill="none" id="make-me-a-hanzi-animation-1" stroke-dasharray="617 1234" stroke-linecap="round"></path>
    
      <clipPath id="make-me-a-hanzi-clip-2">
        <path d="M 567 390 Q 566 318 566 233 L 566 180 Q 566 107 568 79 Q 571 53 580 44 Q 584 40 588 40 Q 590 40 592 41 Q 601 44 605 59 Q 611 74 614 107 Q 620 164 620 219 L 620 235 Q 619 251 619 280 Q 619 324 621 396 L 622 442 Q 623 469 624 499 L 627 535 Q 631 556 634 569 L 634 574 Q 634 588 623 596 Q 616 602 610 605 C 585 622 538 615 552 588 Q 554 585 555 582 Q 567 562 567 535 L 567 434 L 567 390 Z"></path>
      </clipPath>
      <path clip-path="url(#make-me-a-hanzi-clip-2)" d="M 560 588 L 598 566 L 588 50" fill="none" id="make-me-a-hanzi-animation-2" stroke-dasharray="688 1376" stroke-linecap="round"></path>
    
      <clipPath id="make-me-a-hanzi-clip-3">
        <path d="M 150 581 L 150 580 Q 150 573 162 562 Q 226 499 256 481 Q 263 478 269 478 Q 275 478 279 481 Q 288 488 288 502 Q 288 511 284 523 Q 277 543 270 549 Q 259 559 241 566 Q 213 578 167 587 Q 164 588 161 588 Q 152 588 150 581 Z"></path>
      </clipPath>
      <path clip-path="url(#make-me-a-hanzi-clip-3)" d="M 158 581 L 248 526 L 269 496" fill="none" id="make-me-a-hanzi-animation-3" stroke-dasharray="270 540" stroke-linecap="round"></path>
    
      <clipPath id="make-me-a-hanzi-clip-4">
        <path d="M 149 367 Q 111 353 96 353 L 89 353 Q 82 353 81 348 L 81 346 Q 81 341 87 338 Q 107 327 130 327 Q 135 327 140 328 Q 164 332 194 342 L 196 342 Q 207 342 213 331 Q 221 322 221 312 Q 221 301 211 290 Q 190 268 190 241 Q 191 215 203 194 Q 221 164 225 149 Q 231 128 231 115 Q 229 98 225 89 L 223 87 C 211 59 228 65 250 85 Q 266 97 273 112 Q 278 126 278 140 Q 278 147 277 154 Q 273 171 252 198 Q 242 213 242 240 Q 243 256 264 286 Q 286 316 301 331 Q 314 341 314 351 Q 314 359 305 366 Q 284 384 251 402 Q 241 407 232 407 Q 219 407 208 398 Q 182 379 149 367 Z"></path>
      </clipPath>
      <path clip-path="url(#make-me-a-hanzi-clip-4)" d="M 87 347 L 124 342 L 190 363 L 233 368 L 256 346 L 241 291 L 216 245 L 226 198 L 253 145 L 250 110 L 232 93" fill="none" id="make-me-a-hanzi-animation-4" stroke-dasharray="586 1172" stroke-linecap="round"></path>
    
      <clipPath id="make-me-a-hanzi-clip-5">
        <path d="M 223 87 Q 193 86 171 80 Q 137 70 110 70 Q 88 68 85 62 L 85 60 Q 85 51 106 30 Q 122 16 135 16 Q 141 16 147 19 Q 209 48 242 48 L 252 48 Q 282 48 334 34 Q 403 15 529 -36 Q 608 -67 687 -85 Q 739 -97 751 -97 Q 773 -96 807 -78 Q 875 -43 920 -16 Q 945 -3 945 3 Q 944 6 934 6 Q 926 6 913 4 Q 850 -4 782 -4 Q 748 -4 713 -2 Q 626 -2 574 7 Q 503 19 398 52 Q 290 85 252 85 L 250 85 L 223 87 Z"></path>
      </clipPath>
      <path clip-path="url(#make-me-a-hanzi-clip-5)" d="M 91 61 L 135 45 L 217 67 L 273 65 L 363 45 L 575 -23 L 746 -50 L 798 -42 L 927 -6 L 939 2" fill="none" id="make-me-a-hanzi-animation-5" stroke-dasharray="1005 2010" stroke-linecap="round"></path>
    
  </g>
</svg>