<svg xmlns="http://www.w3.org/2000/svg" version="1.1" viewBox="0 0 1024 1024">
  <g stroke="lightgray" stroke-dasharray="1,1" stroke-width="1" transform="scale(4, 4)">
    <line x1="0" y1="0" x2="256" y2="256" />
    <line x1="256" y1="0" x2="0" y2="256" />
    <line x1="128" y1="0" x2="128" y2="256" />
    <line x1="0" y1="128" x2="256" y2="128" />
  </g>
  <g transform="scale(1.0, -1.0) translate(0.0, -818.50)">
    <style type="text/css">
      
        @keyframes keyframes0 {
          from {
            stroke: blue;
            stroke-dashoffset: 683;
            stroke-width: 128;
          }
          69% {
            animation-timing-function: step-end;
            stroke: blue;
            stroke-dashoffset: 0;
            stroke-width: 128;
          }
          to {
            stroke: black;
            stroke-width: 1024;
          }
        }
        #make-me-a-hanzi-animation-0 {
          animation: keyframes0 0.8058268229166666s both;
          animation-delay: 0s;
          animation-timing-function: linear;
        }
      
        @keyframes keyframes1 {
          from {
            stroke: blue;
            stroke-dashoffset: 609;
            stroke-width: 128;
          }
          66% {
            animation-timing-function: step-end;
            stroke: blue;
            stroke-dashoffset: 0;
            stroke-width: 128;
          }
          to {
            stroke: black;
            stroke-width: 1024;
          }
        }
        #make-me-a-hanzi-animation-1 {
          animation: keyframes1 0.74560546875s both;
          animation-delay: 0.8058268229166666s;
          animation-timing-function: linear;
        }
      
        @keyframes keyframes2 {
          from {
            stroke: blue;
            stroke-dashoffset: 1046;
            stroke-width: 128;
          }
          77% {
            animation-timing-function: step-end;
            stroke: blue;
            stroke-dashoffset: 0;
            stroke-width: 128;
          }
          to {
            stroke: black;
            stroke-width: 1024;
          }
        }
        #make-me-a-hanzi-animation-2 {
          animation: keyframes2 1.1012369791666667s both;
          animation-delay: 1.5514322916666665s;
          animation-timing-function: linear;
        }
      
        @keyframes keyframes3 {
          from {
            stroke: blue;
            stroke-dashoffset: 982;
            stroke-width: 128;
          }
          76% {
            animation-timing-function: step-end;
            stroke: blue;
            stroke-dashoffset: 0;
            stroke-width: 128;
          }
          to {
            stroke: black;
            stroke-width: 1024;
          }
        }
        #make-me-a-hanzi-animation-3 {
          animation: keyframes3 1.0491536458333333s both;
          animation-delay: 2.652669270833333s;
          animation-timing-function: linear;
        }
      
        @keyframes keyframes4 {
          from {
            stroke: blue;
            stroke-dashoffset: 411;
            stroke-width: 128;
          }
          57% {
            animation-timing-function: step-end;
            stroke: blue;
            stroke-dashoffset: 0;
            stroke-width: 128;
          }
          to {
            stroke: black;
            stroke-width: 1024;
          }
        }
        #make-me-a-hanzi-animation-4 {
          animation: keyframes4 0.58447265625s both;
          animation-delay: 3.701822916666666s;
          animation-timing-function: linear;
        }
      
        @keyframes keyframes5 {
          from {
            stroke: blue;
            stroke-dashoffset: 730;
            stroke-width: 128;
          }
          70% {
            animation-timing-function: step-end;
            stroke: blue;
            stroke-dashoffset: 0;
            stroke-width: 128;
          }
          to {
            stroke: black;
            stroke-width: 1024;
          }
        }
        #make-me-a-hanzi-animation-5 {
          animation: keyframes5 0.8440755208333334s both;
          animation-delay: 4.286295572916666s;
          animation-timing-function: linear;
        }
      
        @keyframes keyframes6 {
          from {
            stroke: blue;
            stroke-dashoffset: 1166;
            stroke-width: 128;
          }
          79% {
            animation-timing-function: step-end;
            stroke: blue;
            stroke-dashoffset: 0;
            stroke-width: 128;
          }
          to {
            stroke: black;
            stroke-width: 1024;
          }
        }
        #make-me-a-hanzi-animation-6 {
          animation: keyframes6 1.1988932291666667s both;
          animation-delay: 5.130371093749999s;
          animation-timing-function: linear;
        }
      
    </style>
    
      <path d="M 562 568 Q 524 561 490 556 Q 449 549 403 547 Q 377 547 376 530 Q 377 525 392 520 Q 421 508 447 507 Q 461 507 492 513 Q 523 518 563 523 L 615 530 Q 636 532 660 535 Q 722 542 796 543 Q 823 543 823 562 Q 823 578 803 591 Q 781 603 756 603 Q 730 603 705 596 Q 658 586 615 578 L 562 568 Z" fill="lightgray" />
    
      <path d="M 563 444 Q 526 436 495 431 Q 463 425 427 423 Q 401 423 399 406 Q 401 401 417 395 Q 444 384 471 383 Q 482 383 507 388 Q 531 392 563 397 L 615 405 Q 626 406 638 408 Q 686 414 743 415 Q 771 415 771 434 Q 771 450 751 463 Q 729 475 703 475 Q 684 475 664 469 Q 639 463 615 457 L 563 444 Z" fill="lightgray" />
    
      <path d="M 562 319 Q 478 309 355 299 Q 340 297 340 282 Q 340 277 357 266 Q 384 255 395 255 Q 417 255 542 274 Q 552 275 561 277 L 615 284 Q 733 299 768 299 Q 796 299 796 282 Q 796 241 778 195 Q 765 159 752 159 Q 733 159 683 178 Q 676 178 676 171 Q 713 133 741 94 Q 753 79 768 79 Q 786 79 810 107 Q 834 144 845 186 Q 859 250 880 272 Q 892 287 892 291 Q 892 313 851 341 Q 810 362 796 362 Q 774 362 715 346 Q 685 336 615 326 L 562 319 Z" fill="lightgray" />
    
      <path d="M 536 731 Q 523 731 523 719 Q 523 717 534 707 Q 557 682 562 568 L 563 523 L 563 444 L 563 397 Q 563 355 562 319 L 561 277 Q 559 181 554 147 Q 544 115 544 98 Q 544 77 561 45 Q 579 16 588 14 Q 604 14 609 50 Q 615 69 615 94 L 615 284 L 615 326 L 615 405 L 615 457 L 615 530 L 615 578 L 615 694 Q 615 712 583 725 Q 557 731 536 731 Z" fill="lightgray" />
    
      <path d="M 204 618 L 183 618 Q 183 612 212 571 Q 261 490 299 490 Q 324 490 324 530 Q 324 552 308 572 Q 294 594 248 610 L 204 618 Z" fill="lightgray" />
    
      <path d="M 236 398 Q 229 398 214 387 Q 199 374 159 358 Q 125 344 99 343 Q 80 339 80 331 Q 80 328 100 315 Q 116 306 128 306 Q 134 306 146 312 Q 161 320 219 339 Q 227 339 227 331 Q 227 326 214 308 Q 187 261 187 215 Q 187 202 201 179 Q 226 137 230 78 C 233 48 263 47 265 77 Q 267 103 267 119 Q 267 141 254 177 Q 240 209 240 215 Q 240 229 249 255 Q 265 286 301 315 Q 319 332 319 335 Q 319 346 285 373 Q 246 398 236 398 Z" fill="lightgray" />
    
      <path d="M 230 78 Q 196 76 142 66 Q 68 53 68 39 Q 68 32 92 15 Q 123 -5 131 -5 Q 138 -5 163 11 Q 203 35 236 35 Q 297 35 516 -53 Q 678 -118 716 -118 Q 763 -118 878 -67 Q 964 -29 964 -13 Q 964 -5 951 -5 Q 941 -5 902 -13 Q 818 -26 691 -26 Q 615 -26 395 41 Q 300 70 265 77 L 230 78 Z" fill="lightgray" />
    
    
      <clipPath id="make-me-a-hanzi-clip-0">
        <path d="M 562 568 Q 524 561 490 556 Q 449 549 403 547 Q 377 547 376 530 Q 377 525 392 520 Q 421 508 447 507 Q 461 507 492 513 Q 523 518 563 523 L 615 530 Q 636 532 660 535 Q 722 542 796 543 Q 823 543 823 562 Q 823 578 803 591 Q 781 603 756 603 Q 730 603 705 596 Q 658 586 615 578 L 562 568 Z" />
      </clipPath>
      <path clip-path="url(#make-me-a-hanzi-clip-0)" d="M 385 533 L 431 528 L 479 531 L 751 573 L 807 561" fill="none" id="make-me-a-hanzi-animation-0" stroke-dasharray="555 1110" stroke-linecap="round" />
    
      <clipPath id="make-me-a-hanzi-clip-1">
        <path d="M 563 444 Q 526 436 495 431 Q 463 425 427 423 Q 401 423 399 406 Q 401 401 417 395 Q 444 384 471 383 Q 482 383 507 388 Q 531 392 563 397 L 615 405 Q 626 406 638 408 Q 686 414 743 415 Q 771 415 771 434 Q 771 450 751 463 Q 729 475 703 475 Q 684 475 664 469 Q 639 463 615 457 L 563 444 Z" />
      </clipPath>
      <path clip-path="url(#make-me-a-hanzi-clip-1)" d="M 407 408 L 474 405 L 708 445 L 755 433" fill="none" id="make-me-a-hanzi-animation-1" stroke-dasharray="481 962" stroke-linecap="round" />
    
      <clipPath id="make-me-a-hanzi-clip-2">
        <path d="M 562 319 Q 478 309 355 299 Q 340 297 340 282 Q 340 277 357 266 Q 384 255 395 255 Q 417 255 542 274 Q 552 275 561 277 L 615 284 Q 733 299 768 299 Q 796 299 796 282 Q 796 241 778 195 Q 765 159 752 159 Q 733 159 683 178 Q 676 178 676 171 Q 713 133 741 94 Q 753 79 768 79 Q 786 79 810 107 Q 834 144 845 186 Q 859 250 880 272 Q 892 287 892 291 Q 892 313 851 341 Q 810 362 796 362 Q 774 362 715 346 Q 685 336 615 326 L 562 319 Z" />
      </clipPath>
      <path clip-path="url(#make-me-a-hanzi-clip-2)" d="M 351 285 L 397 279 L 448 283 L 779 329 L 800 327 L 825 312 L 840 293 L 807 176 L 782 132 L 768 123 L 752 129 L 685 169" fill="none" id="make-me-a-hanzi-animation-2" stroke-dasharray="918 1836" stroke-linecap="round" />
    
      <clipPath id="make-me-a-hanzi-clip-3">
        <path d="M 536 731 Q 523 731 523 719 Q 523 717 534 707 Q 557 682 562 568 L 563 523 L 563 444 L 563 397 Q 563 355 562 319 L 561 277 Q 559 181 554 147 Q 544 115 544 98 Q 544 77 561 45 Q 579 16 588 14 Q 604 14 609 50 Q 615 69 615 94 L 615 284 L 615 326 L 615 405 L 615 457 L 615 530 L 615 578 L 615 694 Q 615 712 583 725 Q 557 731 536 731 Z" />
      </clipPath>
      <path clip-path="url(#make-me-a-hanzi-clip-3)" d="M 531 721 L 556 711 L 578 693 L 585 658 L 590 366 L 586 165 L 579 96 L 589 24" fill="none" id="make-me-a-hanzi-animation-3" stroke-dasharray="854 1708" stroke-linecap="round" />
    
      <clipPath id="make-me-a-hanzi-clip-4">
        <path d="M 204 618 L 183 618 Q 183 612 212 571 Q 261 490 299 490 Q 324 490 324 530 Q 324 552 308 572 Q 294 594 248 610 L 204 618 Z" />
      </clipPath>
      <path clip-path="url(#make-me-a-hanzi-clip-4)" d="M 188 617 L 271 555 L 300 512" fill="none" id="make-me-a-hanzi-animation-4" stroke-dasharray="283 566" stroke-linecap="round" />
    
      <clipPath id="make-me-a-hanzi-clip-5">
        <path d="M 236 398 Q 229 398 214 387 Q 199 374 159 358 Q 125 344 99 343 Q 80 339 80 331 Q 80 328 100 315 Q 116 306 128 306 Q 134 306 146 312 Q 161 320 219 339 Q 227 339 227 331 Q 227 326 214 308 Q 187 261 187 215 Q 187 202 201 179 Q 226 137 230 78 C 233 48 263 47 265 77 Q 267 103 267 119 Q 267 141 254 177 Q 240 209 240 215 Q 240 229 249 255 Q 265 286 301 315 Q 319 332 319 335 Q 319 346 285 373 Q 246 398 236 398 Z" />
      </clipPath>
      <path clip-path="url(#make-me-a-hanzi-clip-5)" d="M 86 332 L 133 328 L 237 365 L 267 337 L 223 265 L 214 231 L 218 198 L 241 147 L 248 95 L 259 86" fill="none" id="make-me-a-hanzi-animation-5" stroke-dasharray="602 1204" stroke-linecap="round" />
    
      <clipPath id="make-me-a-hanzi-clip-6">
        <path d="M 230 78 Q 196 76 142 66 Q 68 53 68 39 Q 68 32 92 15 Q 123 -5 131 -5 Q 138 -5 163 11 Q 203 35 236 35 Q 297 35 516 -53 Q 678 -118 716 -118 Q 763 -118 878 -67 Q 964 -29 964 -13 Q 964 -5 951 -5 Q 941 -5 902 -13 Q 818 -26 691 -26 Q 615 -26 395 41 Q 300 70 265 77 L 230 78 Z" />
      </clipPath>
      <path clip-path="url(#make-me-a-hanzi-clip-6)" d="M 75 39 L 131 31 L 214 55 L 274 53 L 619 -55 L 712 -72 L 880 -42 L 955 -13" fill="none" id="make-me-a-hanzi-animation-6" stroke-dasharray="1038 2076" stroke-linecap="round" />
    
  </g>
</svg>