<svg xmlns="http://www.w3.org/2000/svg" version="1.1" viewBox="0 0 1024 1024">
  <g stroke="lightgray" stroke-dasharray="1,1" stroke-width="1" transform="scale(4, 4)">
    <line x1="0" y1="0" x2="256" y2="256" />
    <line x1="256" y1="0" x2="0" y2="256" />
    <line x1="128" y1="0" x2="128" y2="256" />
    <line x1="0" y1="128" x2="256" y2="128" />
  </g>
  <g transform="scale(1.0, -1.0) translate(0.0, -807.00)">
    <style type="text/css">
      
        @keyframes keyframes0 {
          from {
            stroke: blue;
            stroke-dashoffset: 509;
            stroke-width: 128;
          }
          62% {
            animation-timing-function: step-end;
            stroke: blue;
            stroke-dashoffset: 0;
            stroke-width: 128;
          }
          to {
            stroke: black;
            stroke-width: 1024;
          }
        }
        #make-me-a-hanzi-animation-0 {
          animation: keyframes0 0.6642252604166666s both;
          animation-delay: 0s;
          animation-timing-function: linear;
        }
      
        @keyframes keyframes1 {
          from {
            stroke: blue;
            stroke-dashoffset: 649;
            stroke-width: 128;
          }
          68% {
            animation-timing-function: step-end;
            stroke: blue;
            stroke-dashoffset: 0;
            stroke-width: 128;
          }
          to {
            stroke: black;
            stroke-width: 1024;
          }
        }
        #make-me-a-hanzi-animation-1 {
          animation: keyframes1 0.7781575520833334s both;
          animation-delay: 0.6642252604166666s;
          animation-timing-function: linear;
        }
      
        @keyframes keyframes2 {
          from {
            stroke: blue;
            stroke-dashoffset: 902;
            stroke-width: 128;
          }
          75% {
            animation-timing-function: step-end;
            stroke: blue;
            stroke-dashoffset: 0;
            stroke-width: 128;
          }
          to {
            stroke: black;
            stroke-width: 1024;
          }
        }
        #make-me-a-hanzi-animation-2 {
          animation: keyframes2 0.9840494791666666s both;
          animation-delay: 1.4423828125s;
          animation-timing-function: linear;
        }
      
        @keyframes keyframes3 {
          from {
            stroke: blue;
            stroke-dashoffset: 477;
            stroke-width: 128;
          }
          61% {
            animation-timing-function: step-end;
            stroke: blue;
            stroke-dashoffset: 0;
            stroke-width: 128;
          }
          to {
            stroke: black;
            stroke-width: 1024;
          }
        }
        #make-me-a-hanzi-animation-3 {
          animation: keyframes3 0.63818359375s both;
          animation-delay: 2.4264322916666665s;
          animation-timing-function: linear;
        }
      
        @keyframes keyframes4 {
          from {
            stroke: blue;
            stroke-dashoffset: 482;
            stroke-width: 128;
          }
          61% {
            animation-timing-function: step-end;
            stroke: blue;
            stroke-dashoffset: 0;
            stroke-width: 128;
          }
          to {
            stroke: black;
            stroke-width: 1024;
          }
        }
        #make-me-a-hanzi-animation-4 {
          animation: keyframes4 0.6422526041666666s both;
          animation-delay: 3.0646158854166665s;
          animation-timing-function: linear;
        }
      
        @keyframes keyframes5 {
          from {
            stroke: blue;
            stroke-dashoffset: 413;
            stroke-width: 128;
          }
          57% {
            animation-timing-function: step-end;
            stroke: blue;
            stroke-dashoffset: 0;
            stroke-width: 128;
          }
          to {
            stroke: black;
            stroke-width: 1024;
          }
        }
        #make-me-a-hanzi-animation-5 {
          animation: keyframes5 0.5861002604166666s both;
          animation-delay: 3.706868489583333s;
          animation-timing-function: linear;
        }
      
        @keyframes keyframes6 {
          from {
            stroke: blue;
            stroke-dashoffset: 571;
            stroke-width: 128;
          }
          65% {
            animation-timing-function: step-end;
            stroke: blue;
            stroke-dashoffset: 0;
            stroke-width: 128;
          }
          to {
            stroke: black;
            stroke-width: 1024;
          }
        }
        #make-me-a-hanzi-animation-6 {
          animation: keyframes6 0.7146809895833334s both;
          animation-delay: 4.29296875s;
          animation-timing-function: linear;
        }
      
        @keyframes keyframes7 {
          from {
            stroke: blue;
            stroke-dashoffset: 433;
            stroke-width: 128;
          }
          58% {
            animation-timing-function: step-end;
            stroke: blue;
            stroke-dashoffset: 0;
            stroke-width: 128;
          }
          to {
            stroke: black;
            stroke-width: 1024;
          }
        }
        #make-me-a-hanzi-animation-7 {
          animation: keyframes7 0.6023763020833334s both;
          animation-delay: 5.007649739583333s;
          animation-timing-function: linear;
        }
      
        @keyframes keyframes8 {
          from {
            stroke: blue;
            stroke-dashoffset: 1169;
            stroke-width: 128;
          }
          79% {
            animation-timing-function: step-end;
            stroke: blue;
            stroke-dashoffset: 0;
            stroke-width: 128;
          }
          to {
            stroke: black;
            stroke-width: 1024;
          }
        }
        #make-me-a-hanzi-animation-8 {
          animation: keyframes8 1.2013346354166667s both;
          animation-delay: 5.610026041666666s;
          animation-timing-function: linear;
        }
      
    </style>
    
      <path d="M 511 476 L 579 556 Q 581 560 605 592 Q 629 623 635 630 Q 643 636 653 645 Q 664 654 665 659 Q 665 665 661 670 Q 657 675 642 682 Q 627 690 624 692 Q 621 693 603 700 Q 594 703 588 703 Q 584 703 582 702 Q 577 700 575 695 Q 573 690 573 678 Q 572 666 567 650 L 561 631 Q 557 618 539 578 L 515 527 Q 509 514 491 480 C 477 453 492 453 511 476 Z" fill="lightgray" />
    
      <path d="M 491 480 L 469 491 Q 461 495 453 496 Q 446 496 442 492 Q 437 490 437 484 Q 437 478 441 466 Q 447 454 450 437 Q 453 420 453 400 L 449 256 Q 448 224 441 196 Q 435 168 435 163 Q 435 151 439 134 Q 443 116 447 110 L 456 96 Q 462 88 467 88 Q 473 88 477 95 Q 481 102 483 110 Q 485 117 487 130 L 491 168 L 494 292 L 495 322 L 497 442 C 497 472 498 477 491 480 Z" fill="lightgray" />
    
      <path d="M 719 146 L 722 121 Q 723 114 728 102 Q 734 90 743 88 L 745 88 Q 752 88 762 97 Q 772 106 778 122 Q 785 136 786 152 L 786 161 Q 786 171 785 188 Q 783 215 783 242 L 783 407 Q 783 428 791 448 Q 799 466 799 473 L 799 474 Q 797 482 787 490 Q 777 498 765 505 Q 753 512 741 518 Q 729 522 721 523 Q 712 523 695 518 L 660 508 Q 642 504 622 500 L 511 476 C 482 470 444 432 497 442 L 683 476 Q 688 477 692 477 Q 699 477 704 474 Q 711 470 715 462 Q 719 454 719 430 L 721 348 L 722 322 L 722 168 L 719 146 Z" fill="lightgray" />
    
      <path d="M 494 292 L 535 291 L 537 291 Q 550 291 600 300 Q 655 311 666 313 L 722 322 C 752 327 749 339 721 348 L 703 354 Q 691 357 681 357 L 679 357 Q 668 357 627 348 L 495 322 C 466 316 464 293 494 292 Z" fill="lightgray" />
    
      <path d="M 487 130 L 719 146 C 749 148 749 154 722 168 L 705 177 Q 687 186 681 186 L 677 186 Q 667 186 636 183 L 491 168 C 461 165 457 128 487 130 Z" fill="lightgray" />
    
      <path d="M 205 592 Q 210 585 231 562 L 260 529 Q 268 520 279 512 Q 293 502 300 502 L 302 502 Q 309 504 317 511 Q 323 518 326 529 Q 329 540 329 548 Q 329 558 326 567 Q 323 576 315 584 Q 308 592 297 598 Q 286 602 268 608 L 239 615 Q 227 618 214 620 L 197 622 Q 194 622 191 621 Q 188 619 187 616 L 187 615 Q 187 613 191 608 L 205 592 Z" fill="lightgray" />
    
      <path d="M 217 241 Q 217 245 223 252 Q 231 260 235 265 L 277 308 Q 285 316 294 324 L 311 338 Q 321 345 322 350 L 322 351 Q 322 357 314 365 Q 305 374 292 382 Q 279 390 268 394 Q 257 399 251 399 Q 245 398 231 392 Q 216 384 197 376 Q 177 368 157 362 Q 136 356 123 353 L 103 349 L 89 346 Q 85 344 85 342 L 85 341 Q 85 338 89 335 Q 95 330 103 328 Q 111 326 125 324 Q 133 323 139 323 Q 145 323 149 324 Q 158 325 178 330 Q 199 334 205 336 Q 211 338 214 338 Q 218 339 220 339 Q 224 339 225 337 Q 226 336 226 333 Q 226 330 225 326 L 217 312 L 190 254 Q 186 246 186 242 L 186 239 Q 186 237 187 235 Q 188 232 198 225 C 206 219 206 219 217 241 Z" fill="lightgray" />
    
      <path d="M 281 76 L 285 86 Q 289 91 293 113 Q 296 130 296 144 L 296 151 Q 295 168 284 184 Q 272 200 253 214 L 227 230 Q 217 236 217 240 L 217 241 C 204 268 174 243 198 225 Q 208 218 217 206 Q 227 194 235 181 Q 244 168 249 154 Q 257 132 257 117 Q 257 101 256 94 Q 255 87 255 78 C 254 48 270 48 281 76 Z" fill="lightgray" />
    
      <path d="M 255 78 L 243 76 L 222 76 Q 219 75 193 72 L 159 68 Q 136 65 128 65 L 121 65 Q 114 65 105 66 Q 91 66 83 68 Q 79 69 76 69 Q 73 69 71 68 Q 64 66 63 62 L 63 59 Q 63 55 65 50 Q 69 42 73 37 Q 77 31 88 22 Q 99 12 107 8 Q 114 4 121 4 Q 125 4 136 10 Q 147 16 161 21 Q 176 25 198 30 Q 221 34 254 35 L 266 35 Q 284 35 300 33 Q 321 30 341 24 Q 361 18 384 9 Q 406 0 471 -24 L 592 -71 Q 649 -94 679 -104 Q 707 -113 726 -113 L 730 -113 Q 743 -112 764 -106 Q 785 -99 824 -84 Q 863 -70 887 -58 L 927 -39 L 953 -28 Q 963 -25 963 -19 Q 963 -18 962 -16 Q 958 -10 947 -10 L 852 -10 Q 831 -11 806 -11 Q 782 -11 755 -10 Q 700 -10 657 -6 Q 615 -3 567 6 Q 520 14 485 23 Q 449 32 403 47 Q 357 61 335 67 Q 313 72 303 74 Q 291 76 281 76 L 255 78 Z" fill="lightgray" />
    
    
      <clipPath id="make-me-a-hanzi-clip-0">
        <path d="M 511 476 L 579 556 Q 581 560 605 592 Q 629 623 635 630 Q 643 636 653 645 Q 664 654 665 659 Q 665 665 661 670 Q 657 675 642 682 Q 627 690 624 692 Q 621 693 603 700 Q 594 703 588 703 Q 584 703 582 702 Q 577 700 575 695 Q 573 690 573 678 Q 572 666 567 650 L 561 631 Q 557 618 539 578 L 515 527 Q 509 514 491 480 C 477 453 492 453 511 476 Z" />
      </clipPath>
      <path clip-path="url(#make-me-a-hanzi-clip-0)" d="M 654 661 L 608 657 L 525 513 L 508 488 L 498 487" fill="none" id="make-me-a-hanzi-animation-0" stroke-dasharray="381 762" stroke-linecap="round" />
    
      <clipPath id="make-me-a-hanzi-clip-1">
        <path d="M 491 480 L 469 491 Q 461 495 453 496 Q 446 496 442 492 Q 437 490 437 484 Q 437 478 441 466 Q 447 454 450 437 Q 453 420 453 400 L 449 256 Q 448 224 441 196 Q 435 168 435 163 Q 435 151 439 134 Q 443 116 447 110 L 456 96 Q 462 88 467 88 Q 473 88 477 95 Q 481 102 483 110 Q 485 117 487 130 L 491 168 L 494 292 L 495 322 L 497 442 C 497 472 498 477 491 480 Z" />
      </clipPath>
      <path clip-path="url(#make-me-a-hanzi-clip-1)" d="M 449 482 L 469 464 L 475 420 L 472 254 L 462 158 L 467 99" fill="none" id="make-me-a-hanzi-animation-1" stroke-dasharray="521 1042" stroke-linecap="round" />
    
      <clipPath id="make-me-a-hanzi-clip-2">
        <path d="M 719 146 L 722 121 Q 723 114 728 102 Q 734 90 743 88 L 745 88 Q 752 88 762 97 Q 772 106 778 122 Q 785 136 786 152 L 786 161 Q 786 171 785 188 Q 783 215 783 242 L 783 407 Q 783 428 791 448 Q 799 466 799 473 L 799 474 Q 797 482 787 490 Q 777 498 765 505 Q 753 512 741 518 Q 729 522 721 523 Q 712 523 695 518 L 660 508 Q 642 504 622 500 L 511 476 C 482 470 444 432 497 442 L 683 476 Q 688 477 692 477 Q 699 477 704 474 Q 711 470 715 462 Q 719 454 719 430 L 721 348 L 722 322 L 722 168 L 719 146 Z" />
      </clipPath>
      <path clip-path="url(#make-me-a-hanzi-clip-2)" d="M 495 474 L 510 460 L 708 498 L 733 489 L 752 470 L 754 166 L 744 100" fill="none" id="make-me-a-hanzi-animation-2" stroke-dasharray="774 1548" stroke-linecap="round" />
    
      <clipPath id="make-me-a-hanzi-clip-3">
        <path d="M 494 292 L 535 291 L 537 291 Q 550 291 600 300 Q 655 311 666 313 L 722 322 C 752 327 749 339 721 348 L 703 354 Q 691 357 681 357 L 679 357 Q 668 357 627 348 L 495 322 C 466 316 464 293 494 292 Z" />
      </clipPath>
      <path clip-path="url(#make-me-a-hanzi-clip-3)" d="M 501 299 L 520 310 L 669 335 L 705 336 L 714 328" fill="none" id="make-me-a-hanzi-animation-3" stroke-dasharray="349 698" stroke-linecap="round" />
    
      <clipPath id="make-me-a-hanzi-clip-4">
        <path d="M 487 130 L 719 146 C 749 148 749 154 722 168 L 705 177 Q 687 186 681 186 L 677 186 Q 667 186 636 183 L 491 168 C 461 165 457 128 487 130 Z" />
      </clipPath>
      <path clip-path="url(#make-me-a-hanzi-clip-4)" d="M 494 136 L 515 152 L 647 163 L 690 164 L 711 153" fill="none" id="make-me-a-hanzi-animation-4" stroke-dasharray="354 708" stroke-linecap="round" />
    
      <clipPath id="make-me-a-hanzi-clip-5">
        <path d="M 205 592 Q 210 585 231 562 L 260 529 Q 268 520 279 512 Q 293 502 300 502 L 302 502 Q 309 504 317 511 Q 323 518 326 529 Q 329 540 329 548 Q 329 558 326 567 Q 323 576 315 584 Q 308 592 297 598 Q 286 602 268 608 L 239 615 Q 227 618 214 620 L 197 622 Q 194 622 191 621 Q 188 619 187 616 L 187 615 Q 187 613 191 608 L 205 592 Z" />
      </clipPath>
      <path clip-path="url(#make-me-a-hanzi-clip-5)" d="M 193 616 L 281 563 L 293 547 L 301 514" fill="none" id="make-me-a-hanzi-animation-5" stroke-dasharray="285 570" stroke-linecap="round" />
    
      <clipPath id="make-me-a-hanzi-clip-6">
        <path d="M 217 241 Q 217 245 223 252 Q 231 260 235 265 L 277 308 Q 285 316 294 324 L 311 338 Q 321 345 322 350 L 322 351 Q 322 357 314 365 Q 305 374 292 382 Q 279 390 268 394 Q 257 399 251 399 Q 245 398 231 392 Q 216 384 197 376 Q 177 368 157 362 Q 136 356 123 353 L 103 349 L 89 346 Q 85 344 85 342 L 85 341 Q 85 338 89 335 Q 95 330 103 328 Q 111 326 125 324 Q 133 323 139 323 Q 145 323 149 324 Q 158 325 178 330 Q 199 334 205 336 Q 211 338 214 338 Q 218 339 220 339 Q 224 339 225 337 Q 226 336 226 333 Q 226 330 225 326 L 217 312 L 190 254 Q 186 246 186 242 L 186 239 Q 186 237 187 235 Q 188 232 198 225 C 206 219 206 219 217 241 Z" />
      </clipPath>
      <path clip-path="url(#make-me-a-hanzi-clip-6)" d="M 90 342 L 133 339 L 225 363 L 252 362 L 259 356 L 263 349 L 253 321 L 197 235" fill="none" id="make-me-a-hanzi-animation-6" stroke-dasharray="443 886" stroke-linecap="round" />
    
      <clipPath id="make-me-a-hanzi-clip-7">
        <path d="M 281 76 L 285 86 Q 289 91 293 113 Q 296 130 296 144 L 296 151 Q 295 168 284 184 Q 272 200 253 214 L 227 230 Q 217 236 217 240 L 217 241 C 204 268 174 243 198 225 Q 208 218 217 206 Q 227 194 235 181 Q 244 168 249 154 Q 257 132 257 117 Q 257 101 256 94 Q 255 87 255 78 C 254 48 270 48 281 76 Z" />
      </clipPath>
      <path clip-path="url(#make-me-a-hanzi-clip-7)" d="M 206 225 L 216 225 L 239 205 L 271 160 L 275 108 L 262 82" fill="none" id="make-me-a-hanzi-animation-7" stroke-dasharray="305 610" stroke-linecap="round" />
    
      <clipPath id="make-me-a-hanzi-clip-8">
        <path d="M 255 78 L 243 76 L 222 76 Q 219 75 193 72 L 159 68 Q 136 65 128 65 L 121 65 Q 114 65 105 66 Q 91 66 83 68 Q 79 69 76 69 Q 73 69 71 68 Q 64 66 63 62 L 63 59 Q 63 55 65 50 Q 69 42 73 37 Q 77 31 88 22 Q 99 12 107 8 Q 114 4 121 4 Q 125 4 136 10 Q 147 16 161 21 Q 176 25 198 30 Q 221 34 254 35 L 266 35 Q 284 35 300 33 Q 321 30 341 24 Q 361 18 384 9 Q 406 0 471 -24 L 592 -71 Q 649 -94 679 -104 Q 707 -113 726 -113 L 730 -113 Q 743 -112 764 -106 Q 785 -99 824 -84 Q 863 -70 887 -58 L 927 -39 L 953 -28 Q 963 -25 963 -19 Q 963 -18 962 -16 Q 958 -10 947 -10 L 852 -10 Q 831 -11 806 -11 Q 782 -11 755 -10 Q 700 -10 657 -6 Q 615 -3 567 6 Q 520 14 485 23 Q 449 32 403 47 Q 357 61 335 67 Q 313 72 303 74 Q 291 76 281 76 L 255 78 Z" />
      </clipPath>
      <path clip-path="url(#make-me-a-hanzi-clip-8)" d="M 70 61 L 120 35 L 206 54 L 252 57 L 325 49 L 570 -28 L 716 -61 L 767 -57 L 955 -20" fill="none" id="make-me-a-hanzi-animation-8" stroke-dasharray="1041 2082" stroke-linecap="round" />
    
  </g>
</svg>