<svg xmlns="http://www.w3.org/2000/svg" version="1.1" viewBox="0 0 1024 1024">
  <g stroke="lightgray" stroke-dasharray="1,1" stroke-width="1" transform="scale(4, 4)">
    <line x1="0" y1="0" x2="256" y2="256" />
    <line x1="256" y1="0" x2="0" y2="256" />
    <line x1="128" y1="0" x2="128" y2="256" />
    <line x1="0" y1="128" x2="256" y2="128" />
  </g>
  <g transform="scale(1.0, -1.0) translate(0.0, -790.00)">
    <style type="text/css">
      
        @keyframes keyframes0 {
          from {
            stroke: blue;
            stroke-dashoffset: 460;
            stroke-width: 128;
          }
          60% {
            animation-timing-function: step-end;
            stroke: blue;
            stroke-dashoffset: 0;
            stroke-width: 128;
          }
          to {
            stroke: black;
            stroke-width: 1024;
          }
        }
        #make-me-a-hanzi-animation-0 {
          animation: keyframes0 0.6243489583333334s both;
          animation-delay: 0s;
          animation-timing-function: linear;
        }
      
        @keyframes keyframes1 {
          from {
            stroke: blue;
            stroke-dashoffset: 621;
            stroke-width: 128;
          }
          67% {
            animation-timing-function: step-end;
            stroke: blue;
            stroke-dashoffset: 0;
            stroke-width: 128;
          }
          to {
            stroke: black;
            stroke-width: 1024;
          }
        }
        #make-me-a-hanzi-animation-1 {
          animation: keyframes1 0.75537109375s both;
          animation-delay: 0.6243489583333334s;
          animation-timing-function: linear;
        }
      
        @keyframes keyframes2 {
          from {
            stroke: blue;
            stroke-dashoffset: 475;
            stroke-width: 128;
          }
          61% {
            animation-timing-function: step-end;
            stroke: blue;
            stroke-dashoffset: 0;
            stroke-width: 128;
          }
          to {
            stroke: black;
            stroke-width: 1024;
          }
        }
        #make-me-a-hanzi-animation-2 {
          animation: keyframes2 0.6365559895833334s both;
          animation-delay: 1.3797200520833335s;
          animation-timing-function: linear;
        }
      
        @keyframes keyframes3 {
          from {
            stroke: blue;
            stroke-dashoffset: 558;
            stroke-width: 128;
          }
          64% {
            animation-timing-function: step-end;
            stroke: blue;
            stroke-dashoffset: 0;
            stroke-width: 128;
          }
          to {
            stroke: black;
            stroke-width: 1024;
          }
        }
        #make-me-a-hanzi-animation-3 {
          animation: keyframes3 0.7041015625s both;
          animation-delay: 2.016276041666667s;
          animation-timing-function: linear;
        }
      
        @keyframes keyframes4 {
          from {
            stroke: blue;
            stroke-dashoffset: 573;
            stroke-width: 128;
          }
          65% {
            animation-timing-function: step-end;
            stroke: blue;
            stroke-dashoffset: 0;
            stroke-width: 128;
          }
          to {
            stroke: black;
            stroke-width: 1024;
          }
        }
        #make-me-a-hanzi-animation-4 {
          animation: keyframes4 0.71630859375s both;
          animation-delay: 2.720377604166667s;
          animation-timing-function: linear;
        }
      
        @keyframes keyframes5 {
          from {
            stroke: blue;
            stroke-dashoffset: 482;
            stroke-width: 128;
          }
          61% {
            animation-timing-function: step-end;
            stroke: blue;
            stroke-dashoffset: 0;
            stroke-width: 128;
          }
          to {
            stroke: black;
            stroke-width: 1024;
          }
        }
        #make-me-a-hanzi-animation-5 {
          animation: keyframes5 0.6422526041666666s both;
          animation-delay: 3.436686197916667s;
          animation-timing-function: linear;
        }
      
        @keyframes keyframes6 {
          from {
            stroke: blue;
            stroke-dashoffset: 728;
            stroke-width: 128;
          }
          70% {
            animation-timing-function: step-end;
            stroke: blue;
            stroke-dashoffset: 0;
            stroke-width: 128;
          }
          to {
            stroke: black;
            stroke-width: 1024;
          }
        }
        #make-me-a-hanzi-animation-6 {
          animation: keyframes6 0.8424479166666666s both;
          animation-delay: 4.078938802083334s;
          animation-timing-function: linear;
        }
      
        @keyframes keyframes7 {
          from {
            stroke: blue;
            stroke-dashoffset: 395;
            stroke-width: 128;
          }
          56% {
            animation-timing-function: step-end;
            stroke: blue;
            stroke-dashoffset: 0;
            stroke-width: 128;
          }
          to {
            stroke: black;
            stroke-width: 1024;
          }
        }
        #make-me-a-hanzi-animation-7 {
          animation: keyframes7 0.5714518229166666s both;
          animation-delay: 4.921386718750001s;
          animation-timing-function: linear;
        }
      
        @keyframes keyframes8 {
          from {
            stroke: blue;
            stroke-dashoffset: 569;
            stroke-width: 128;
          }
          65% {
            animation-timing-function: step-end;
            stroke: blue;
            stroke-dashoffset: 0;
            stroke-width: 128;
          }
          to {
            stroke: black;
            stroke-width: 1024;
          }
        }
        #make-me-a-hanzi-animation-8 {
          animation: keyframes8 0.7130533854166666s both;
          animation-delay: 5.492838541666668s;
          animation-timing-function: linear;
        }
      
        @keyframes keyframes9 {
          from {
            stroke: blue;
            stroke-dashoffset: 435;
            stroke-width: 128;
          }
          59% {
            animation-timing-function: step-end;
            stroke: blue;
            stroke-dashoffset: 0;
            stroke-width: 128;
          }
          to {
            stroke: black;
            stroke-width: 1024;
          }
        }
        #make-me-a-hanzi-animation-9 {
          animation: keyframes9 0.60400390625s both;
          animation-delay: 6.205891927083335s;
          animation-timing-function: linear;
        }
      
        @keyframes keyframes10 {
          from {
            stroke: blue;
            stroke-dashoffset: 1176;
            stroke-width: 128;
          }
          79% {
            animation-timing-function: step-end;
            stroke: blue;
            stroke-dashoffset: 0;
            stroke-width: 128;
          }
          to {
            stroke: black;
            stroke-width: 1024;
          }
        }
        #make-me-a-hanzi-animation-10 {
          animation: keyframes10 1.20703125s both;
          animation-delay: 6.809895833333335s;
          animation-timing-function: linear;
        }
      
    </style>
    
      <path d="M 502 624 L 486 629 Q 484 629 460 633 L 455 633 Q 447 633 443 630 Q 439 627 439 624 Q 439 623 440 622 Q 442 618 452 611 Q 462 604 467 588 Q 472 572 478 542 L 493 462 Q 495 450 500 444 Q 504 438 511 438 Q 518 438 522 446 L 525 455 L 528 462 L 528 494 L 514 600 C 511 621 511 621 502 624 Z" fill="lightgray" />
    
      <path d="M 736 501 L 762 562 Q 766 573 775 585 Q 783 598 792 608 Q 799 618 799 624 L 799 625 Q 799 632 789 639 Q 778 646 770 650 Q 761 654 746 660 Q 732 666 724 666 Q 715 666 690 658 Q 666 650 616 642 L 502 624 C 472 619 484 596 514 600 L 665 622 Q 686 625 695 625 Q 700 625 702 624 Q 708 622 711 618 Q 712 616 712 611 Q 712 605 710 595 L 696 512 C 691 482 724 473 736 501 Z" fill="lightgray" />
    
      <path d="M 528 462 L 694 473 L 730 476 Q 736 475 741 475 Q 749 475 752 478 Q 756 482 756 486 Q 756 492 748 495 L 736 501 L 696 512 L 528 494 C 498 491 498 460 528 462 Z" fill="lightgray" />
    
      <path d="M 626 354 L 706 370 L 742 373 Q 751 374 754 379 Q 755 380 755 382 Q 755 386 750 393 Q 744 402 728 415 Q 712 428 705 431 Q 698 434 692 434 Q 688 433 678 425 Q 668 418 644 406 L 601 385 Q 581 377 541 364 Q 502 352 490 348 L 472 342 L 457 339 Q 448 336 448 333 L 448 332 Q 448 326 454 326 L 470 326 Q 490 326 504 328 Q 518 330 538 334 Q 558 338 572 340 L 626 354 Z" fill="lightgray" />
    
      <path d="M 584 262 L 480 250 L 454 246 Q 449 245 448 240 L 448 239 Q 448 235 457 228 Q 468 221 479 218 Q 490 216 510 216 Q 532 217 549 219 Q 566 221 584 224 L 639 230 L 740 246 Q 764 249 771 254 Q 779 259 779 263 L 779 264 Q 779 268 770 273 Q 760 278 744 282 Q 728 286 713 286 Q 702 285 685 281 Q 668 278 642 273 L 584 262 Z" fill="lightgray" />
    
      <path d="M 584 224 L 585 132 C 585 102 631 106 633 136 L 639 230 L 642 273 L 646 294 Q 648 306 654 319 Q 660 330 660 335 L 660 336 Q 658 340 649 343 Q 640 347 626 354 C 599 367 564 369 572 340 L 577 322 Q 580 312 582 298 Q 583 284 584 262 L 584 224 Z" fill="lightgray" />
    
      <path d="M 585 132 L 544 127 Q 511 122 474 120 L 408 116 L 388 114 Q 382 114 381 110 L 381 109 Q 381 105 389 98 Q 398 90 404 86 Q 410 81 422 75 Q 434 70 444 70 Q 449 70 465 77 Q 482 83 504 87 Q 526 91 559 94 L 669 101 Q 724 105 763 105 Q 779 105 792 104 L 820 102 Q 836 102 844 100 L 849 100 Q 855 100 857 102 Q 861 105 861 110 L 861 111 Q 861 115 854 122 Q 846 129 840 133 Q 835 136 820 144 Q 806 151 797 152 Q 790 152 773 149 Q 756 145 738 143 Q 718 141 706 140 L 633 136 L 585 132 Z" fill="lightgray" />
    
      <path d="M 186 592 Q 190 584 200 570 Q 210 557 224 537 Q 238 518 247 510 Q 258 500 265 500 L 267 500 Q 274 501 281 507 Q 288 514 290 524 Q 294 534 294 542 L 294 548 Q 294 554 293 560 Q 291 569 285 577 Q 280 584 268 591 Q 257 598 245 602 Q 234 606 220 610 Q 206 614 196 618 L 182 621 L 179 621 Q 177 621 175 620 Q 172 619 172 616 Q 171 615 171 614 Q 171 612 174 608 L 186 592 Z" fill="lightgray" />
    
      <path d="M 226 246 Q 226 250 230 254 Q 234 260 250 279 L 280 318 Q 286 326 295 336 L 314 355 Q 319 361 320 365 L 320 367 Q 320 373 313 380 Q 305 388 291 396 Q 278 405 269 409 Q 262 412 257 412 L 254 412 Q 250 412 241 406 L 196 386 Q 161 370 156 368 Q 150 366 126 360 L 106 354 L 92 351 Q 88 348 88 345 L 88 344 Q 88 341 93 337 Q 98 333 107 331 Q 114 329 124 329 L 132 329 Q 151 329 166 332 L 208 342 Q 213 343 216 343 Q 221 343 223 341 Q 224 340 224 337 Q 224 331 220 318 Q 214 298 212 292 L 202 266 Q 194 244 194 242 Q 194 239 195 236 Q 196 233 206 223 C 211 218 212 219 226 246 Z" fill="lightgray" />
    
      <path d="M 278 69 L 288 94 Q 294 109 294 137 Q 292 160 285 176 Q 278 191 264 207 Q 250 223 238 231 Q 226 240 226 244 L 226 246 C 217 275 186 245 206 223 Q 216 213 227 194 Q 237 174 243 159 Q 248 144 252 124 Q 253 113 253 104 L 253 95 Q 252 84 252 70 C 252 40 267 41 278 69 Z" fill="lightgray" />
    
      <path d="M 252 70 L 220 70 Q 216 70 200 68 L 158 63 Q 133 60 124 60 L 101 60 L 77 63 Q 74 64 71 64 Q 68 64 66 63 Q 60 60 58 56 L 58 54 Q 58 51 60 46 Q 64 39 69 33 Q 74 26 84 18 Q 94 10 102 6 Q 110 2 116 2 Q 120 2 132 8 Q 144 14 157 18 Q 170 21 198 26 Q 226 31 252 32 Q 272 32 298 28 Q 324 25 342 20 Q 360 15 400 0 L 490 -31 L 574 -62 Q 644 -88 679 -100 Q 709 -110 728 -110 L 734 -110 Q 748 -110 770 -103 Q 792 -96 840 -79 Q 886 -61 904 -55 Q 922 -48 934 -42 L 960 -29 Q 969 -24 969 -20 Q 969 -18 968 -17 Q 966 -11 954 -11 L 909 -11 Q 898 -11 853 -12 Q 831 -13 807 -13 Q 784 -13 760 -12 Q 708 -12 661 -8 Q 614 -5 568 2 Q 523 10 498 16 Q 474 22 400 44 L 337 61 Q 309 68 299 69 Q 295 70 289 70 Q 284 70 278 69 L 252 70 Z" fill="lightgray" />
    
    
      <clipPath id="make-me-a-hanzi-clip-0">
        <path d="M 502 624 L 486 629 Q 484 629 460 633 L 455 633 Q 447 633 443 630 Q 439 627 439 624 Q 439 623 440 622 Q 442 618 452 611 Q 462 604 467 588 Q 472 572 478 542 L 493 462 Q 495 450 500 444 Q 504 438 511 438 Q 518 438 522 446 L 525 455 L 528 462 L 528 494 L 514 600 C 511 621 511 621 502 624 Z" />
      </clipPath>
      <path clip-path="url(#make-me-a-hanzi-clip-0)" d="M 444 625 L 480 610 L 490 596 L 511 450" fill="none" id="make-me-a-hanzi-animation-0" stroke-dasharray="332 664" stroke-linecap="round" />
    
      <clipPath id="make-me-a-hanzi-clip-1">
        <path d="M 736 501 L 762 562 Q 766 573 775 585 Q 783 598 792 608 Q 799 618 799 624 L 799 625 Q 799 632 789 639 Q 778 646 770 650 Q 761 654 746 660 Q 732 666 724 666 Q 715 666 690 658 Q 666 650 616 642 L 502 624 C 472 619 484 596 514 600 L 665 622 Q 686 625 695 625 Q 700 625 702 624 Q 708 622 711 618 Q 712 616 712 611 Q 712 605 710 595 L 696 512 C 691 482 724 473 736 501 Z" />
      </clipPath>
      <path clip-path="url(#make-me-a-hanzi-clip-1)" d="M 510 620 L 535 615 L 702 643 L 725 640 L 750 617 L 723 528 L 731 510" fill="none" id="make-me-a-hanzi-animation-1" stroke-dasharray="493 986" stroke-linecap="round" />
    
      <clipPath id="make-me-a-hanzi-clip-2">
        <path d="M 528 462 L 694 473 L 730 476 Q 736 475 741 475 Q 749 475 752 478 Q 756 482 756 486 Q 756 492 748 495 L 736 501 L 696 512 L 528 494 C 498 491 498 460 528 462 Z" />
      </clipPath>
      <path clip-path="url(#make-me-a-hanzi-clip-2)" d="M 535 467 L 542 478 L 599 485 L 690 493 L 747 486" fill="none" id="make-me-a-hanzi-animation-2" stroke-dasharray="347 694" stroke-linecap="round" />
    
      <clipPath id="make-me-a-hanzi-clip-3">
        <path d="M 626 354 L 706 370 L 742 373 Q 751 374 754 379 Q 755 380 755 382 Q 755 386 750 393 Q 744 402 728 415 Q 712 428 705 431 Q 698 434 692 434 Q 688 433 678 425 Q 668 418 644 406 L 601 385 Q 581 377 541 364 Q 502 352 490 348 L 472 342 L 457 339 Q 448 336 448 333 L 448 332 Q 448 326 454 326 L 470 326 Q 490 326 504 328 Q 518 330 538 334 Q 558 338 572 340 L 626 354 Z" />
      </clipPath>
      <path clip-path="url(#make-me-a-hanzi-clip-3)" d="M 744 384 L 696 400 L 565 355 L 476 333 L 455 333" fill="none" id="make-me-a-hanzi-animation-3" stroke-dasharray="430 860" stroke-linecap="round" />
    
      <clipPath id="make-me-a-hanzi-clip-4">
        <path d="M 584 262 L 480 250 L 454 246 Q 449 245 448 240 L 448 239 Q 448 235 457 228 Q 468 221 479 218 Q 490 216 510 216 Q 532 217 549 219 Q 566 221 584 224 L 639 230 L 740 246 Q 764 249 771 254 Q 779 259 779 263 L 779 264 Q 779 268 770 273 Q 760 278 744 282 Q 728 286 713 286 Q 702 285 685 281 Q 668 278 642 273 L 584 262 Z" />
      </clipPath>
      <path clip-path="url(#make-me-a-hanzi-clip-4)" d="M 455 240 L 516 235 L 710 264 L 770 264" fill="none" id="make-me-a-hanzi-animation-4" stroke-dasharray="445 890" stroke-linecap="round" />
    
      <clipPath id="make-me-a-hanzi-clip-5">
        <path d="M 584 224 L 585 132 C 585 102 631 106 633 136 L 639 230 L 642 273 L 646 294 Q 648 306 654 319 Q 660 330 660 335 L 660 336 Q 658 340 649 343 Q 640 347 626 354 C 599 367 564 369 572 340 L 577 322 Q 580 312 582 298 Q 583 284 584 262 L 584 224 Z" />
      </clipPath>
      <path clip-path="url(#make-me-a-hanzi-clip-5)" d="M 652 336 L 615 315 L 610 159 L 590 140" fill="none" id="make-me-a-hanzi-animation-5" stroke-dasharray="354 708" stroke-linecap="round" />
    
      <clipPath id="make-me-a-hanzi-clip-6">
        <path d="M 585 132 L 544 127 Q 511 122 474 120 L 408 116 L 388 114 Q 382 114 381 110 L 381 109 Q 381 105 389 98 Q 398 90 404 86 Q 410 81 422 75 Q 434 70 444 70 Q 449 70 465 77 Q 482 83 504 87 Q 526 91 559 94 L 669 101 Q 724 105 763 105 Q 779 105 792 104 L 820 102 Q 836 102 844 100 L 849 100 Q 855 100 857 102 Q 861 105 861 110 L 861 111 Q 861 115 854 122 Q 846 129 840 133 Q 835 136 820 144 Q 806 151 797 152 Q 790 152 773 149 Q 756 145 738 143 Q 718 141 706 140 L 633 136 L 585 132 Z" />
      </clipPath>
      <path clip-path="url(#make-me-a-hanzi-clip-6)" d="M 386 110 L 442 94 L 540 110 L 784 128 L 851 110" fill="none" id="make-me-a-hanzi-animation-6" stroke-dasharray="600 1200" stroke-linecap="round" />
    
      <clipPath id="make-me-a-hanzi-clip-7">
        <path d="M 186 592 Q 190 584 200 570 Q 210 557 224 537 Q 238 518 247 510 Q 258 500 265 500 L 267 500 Q 274 501 281 507 Q 288 514 290 524 Q 294 534 294 542 L 294 548 Q 294 554 293 560 Q 291 569 285 577 Q 280 584 268 591 Q 257 598 245 602 Q 234 606 220 610 Q 206 614 196 618 L 182 621 L 179 621 Q 177 621 175 620 Q 172 619 172 616 Q 171 615 171 614 Q 171 612 174 608 L 186 592 Z" />
      </clipPath>
      <path clip-path="url(#make-me-a-hanzi-clip-7)" d="M 176 613 L 197 603 L 256 555 L 266 517" fill="none" id="make-me-a-hanzi-animation-7" stroke-dasharray="267 534" stroke-linecap="round" />
    
      <clipPath id="make-me-a-hanzi-clip-8">
        <path d="M 226 246 Q 226 250 230 254 Q 234 260 250 279 L 280 318 Q 286 326 295 336 L 314 355 Q 319 361 320 365 L 320 367 Q 320 373 313 380 Q 305 388 291 396 Q 278 405 269 409 Q 262 412 257 412 L 254 412 Q 250 412 241 406 L 196 386 Q 161 370 156 368 Q 150 366 126 360 L 106 354 L 92 351 Q 88 348 88 345 L 88 344 Q 88 341 93 337 Q 98 333 107 331 Q 114 329 124 329 L 132 329 Q 151 329 166 332 L 208 342 Q 213 343 216 343 Q 221 343 223 341 Q 224 340 224 337 Q 224 331 220 318 Q 214 298 212 292 L 202 266 Q 194 244 194 242 Q 194 239 195 236 Q 196 233 206 223 C 211 218 212 219 226 246 Z" />
      </clipPath>
      <path clip-path="url(#make-me-a-hanzi-clip-8)" d="M 95 345 L 148 347 L 227 369 L 261 364 L 252 329 L 212 253 L 207 232" fill="none" id="make-me-a-hanzi-animation-8" stroke-dasharray="441 882" stroke-linecap="round" />
    
      <clipPath id="make-me-a-hanzi-clip-9">
        <path d="M 278 69 L 288 94 Q 294 109 294 137 Q 292 160 285 176 Q 278 191 264 207 Q 250 223 238 231 Q 226 240 226 244 L 226 246 C 217 275 186 245 206 223 Q 216 213 227 194 Q 237 174 243 159 Q 248 144 252 124 Q 253 113 253 104 L 253 95 Q 252 84 252 70 C 252 40 267 41 278 69 Z" />
      </clipPath>
      <path clip-path="url(#make-me-a-hanzi-clip-9)" d="M 222 238 L 225 223 L 263 171 L 272 141 L 270 94 L 259 76" fill="none" id="make-me-a-hanzi-animation-9" stroke-dasharray="307 614" stroke-linecap="round" />
    
      <clipPath id="make-me-a-hanzi-clip-10">
        <path d="M 252 70 L 220 70 Q 216 70 200 68 L 158 63 Q 133 60 124 60 L 101 60 L 77 63 Q 74 64 71 64 Q 68 64 66 63 Q 60 60 58 56 L 58 54 Q 58 51 60 46 Q 64 39 69 33 Q 74 26 84 18 Q 94 10 102 6 Q 110 2 116 2 Q 120 2 132 8 Q 144 14 157 18 Q 170 21 198 26 Q 226 31 252 32 Q 272 32 298 28 Q 324 25 342 20 Q 360 15 400 0 L 490 -31 L 574 -62 Q 644 -88 679 -100 Q 709 -110 728 -110 L 734 -110 Q 748 -110 770 -103 Q 792 -96 840 -79 Q 886 -61 904 -55 Q 922 -48 934 -42 L 960 -29 Q 969 -24 969 -20 Q 969 -18 968 -17 Q 966 -11 954 -11 L 909 -11 Q 898 -11 853 -12 Q 831 -13 807 -13 Q 784 -13 760 -12 Q 708 -12 661 -8 Q 614 -5 568 2 Q 523 10 498 16 Q 474 22 400 44 L 337 61 Q 309 68 299 69 Q 295 70 289 70 Q 284 70 278 69 L 252 70 Z" />
      </clipPath>
      <path clip-path="url(#make-me-a-hanzi-clip-10)" d="M 66 55 L 112 32 L 209 49 L 310 47 L 595 -36 L 726 -61 L 961 -21" fill="none" id="make-me-a-hanzi-animation-10" stroke-dasharray="1048 2096" stroke-linecap="round" />
    
  </g>
</svg>