<svg xmlns="http://www.w3.org/2000/svg" version="1.1" viewBox="0 0 1024 1024">
  <g stroke="lightgray" stroke-dasharray="1,1" stroke-width="1" transform="scale(4, 4)">
    <line x1="0" y1="0" x2="256" y2="256" />
    <line x1="256" y1="0" x2="0" y2="256" />
    <line x1="128" y1="0" x2="128" y2="256" />
    <line x1="0" y1="128" x2="256" y2="128" />
  </g>
  <g transform="scale(1.0, -1.0) translate(0.0, -798.00)">
    <style type="text/css">
      
        @keyframes keyframes0 {
          from {
            stroke: blue;
            stroke-dashoffset: 526;
            stroke-width: 128;
          }
          63% {
            animation-timing-function: step-end;
            stroke: blue;
            stroke-dashoffset: 0;
            stroke-width: 128;
          }
          to {
            stroke: black;
            stroke-width: 1024;
          }
        }
        #make-me-a-hanzi-animation-0 {
          animation: keyframes0 0.6780598958333334s both;
          animation-delay: 0s;
          animation-timing-function: linear;
        }
      
        @keyframes keyframes1 {
          from {
            stroke: blue;
            stroke-dashoffset: 721;
            stroke-width: 128;
          }
          70% {
            animation-timing-function: step-end;
            stroke: blue;
            stroke-dashoffset: 0;
            stroke-width: 128;
          }
          to {
            stroke: black;
            stroke-width: 1024;
          }
        }
        #make-me-a-hanzi-animation-1 {
          animation: keyframes1 0.8367513020833334s both;
          animation-delay: 0.6780598958333334s;
          animation-timing-function: linear;
        }
      
        @keyframes keyframes2 {
          from {
            stroke: blue;
            stroke-dashoffset: 529;
            stroke-width: 128;
          }
          63% {
            animation-timing-function: step-end;
            stroke: blue;
            stroke-dashoffset: 0;
            stroke-width: 128;
          }
          to {
            stroke: black;
            stroke-width: 1024;
          }
        }
        #make-me-a-hanzi-animation-2 {
          animation: keyframes2 0.6805013020833334s both;
          animation-delay: 1.5148111979166667s;
          animation-timing-function: linear;
        }
      
        @keyframes keyframes3 {
          from {
            stroke: blue;
            stroke-dashoffset: 530;
            stroke-width: 128;
          }
          63% {
            animation-timing-function: step-end;
            stroke: blue;
            stroke-dashoffset: 0;
            stroke-width: 128;
          }
          to {
            stroke: black;
            stroke-width: 1024;
          }
        }
        #make-me-a-hanzi-animation-3 {
          animation: keyframes3 0.6813151041666666s both;
          animation-delay: 2.1953125s;
          animation-timing-function: linear;
        }
      
        @keyframes keyframes4 {
          from {
            stroke: blue;
            stroke-dashoffset: 478;
            stroke-width: 128;
          }
          61% {
            animation-timing-function: step-end;
            stroke: blue;
            stroke-dashoffset: 0;
            stroke-width: 128;
          }
          to {
            stroke: black;
            stroke-width: 1024;
          }
        }
        #make-me-a-hanzi-animation-4 {
          animation: keyframes4 0.6389973958333334s both;
          animation-delay: 2.8766276041666665s;
          animation-timing-function: linear;
        }
      
        @keyframes keyframes5 {
          from {
            stroke: blue;
            stroke-dashoffset: 824;
            stroke-width: 128;
          }
          73% {
            animation-timing-function: step-end;
            stroke: blue;
            stroke-dashoffset: 0;
            stroke-width: 128;
          }
          to {
            stroke: black;
            stroke-width: 1024;
          }
        }
        #make-me-a-hanzi-animation-5 {
          animation: keyframes5 0.9205729166666666s both;
          animation-delay: 3.515625s;
          animation-timing-function: linear;
        }
      
        @keyframes keyframes6 {
          from {
            stroke: blue;
            stroke-dashoffset: 683;
            stroke-width: 128;
          }
          69% {
            animation-timing-function: step-end;
            stroke: blue;
            stroke-dashoffset: 0;
            stroke-width: 128;
          }
          to {
            stroke: black;
            stroke-width: 1024;
          }
        }
        #make-me-a-hanzi-animation-6 {
          animation: keyframes6 0.8058268229166666s both;
          animation-delay: 4.436197916666667s;
          animation-timing-function: linear;
        }
      
        @keyframes keyframes7 {
          from {
            stroke: blue;
            stroke-dashoffset: 832;
            stroke-width: 128;
          }
          73% {
            animation-timing-function: step-end;
            stroke: blue;
            stroke-dashoffset: 0;
            stroke-width: 128;
          }
          to {
            stroke: black;
            stroke-width: 1024;
          }
        }
        #make-me-a-hanzi-animation-7 {
          animation: keyframes7 0.9270833333333334s both;
          animation-delay: 5.242024739583334s;
          animation-timing-function: linear;
        }
      
        @keyframes keyframes8 {
          from {
            stroke: blue;
            stroke-dashoffset: 422;
            stroke-width: 128;
          }
          58% {
            animation-timing-function: step-end;
            stroke: blue;
            stroke-dashoffset: 0;
            stroke-width: 128;
          }
          to {
            stroke: black;
            stroke-width: 1024;
          }
        }
        #make-me-a-hanzi-animation-8 {
          animation: keyframes8 0.5934244791666666s both;
          animation-delay: 6.169108072916667s;
          animation-timing-function: linear;
        }
      
        @keyframes keyframes9 {
          from {
            stroke: blue;
            stroke-dashoffset: 572;
            stroke-width: 128;
          }
          65% {
            animation-timing-function: step-end;
            stroke: blue;
            stroke-dashoffset: 0;
            stroke-width: 128;
          }
          to {
            stroke: black;
            stroke-width: 1024;
          }
        }
        #make-me-a-hanzi-animation-9 {
          animation: keyframes9 0.7154947916666666s both;
          animation-delay: 6.762532552083334s;
          animation-timing-function: linear;
        }
      
        @keyframes keyframes10 {
          from {
            stroke: blue;
            stroke-dashoffset: 433;
            stroke-width: 128;
          }
          58% {
            animation-timing-function: step-end;
            stroke: blue;
            stroke-dashoffset: 0;
            stroke-width: 128;
          }
          to {
            stroke: black;
            stroke-width: 1024;
          }
        }
        #make-me-a-hanzi-animation-10 {
          animation: keyframes10 0.6023763020833334s both;
          animation-delay: 7.478027343750001s;
          animation-timing-function: linear;
        }
      
        @keyframes keyframes11 {
          from {
            stroke: blue;
            stroke-dashoffset: 1168;
            stroke-width: 128;
          }
          79% {
            animation-timing-function: step-end;
            stroke: blue;
            stroke-dashoffset: 0;
            stroke-width: 128;
          }
          to {
            stroke: black;
            stroke-width: 1024;
          }
        }
        #make-me-a-hanzi-animation-11 {
          animation: keyframes11 1.2005208333333333s both;
          animation-delay: 8.080403645833334s;
          animation-timing-function: linear;
        }
      
    </style>
    
      <path d="M 612 621 L 641 630 Q 647 632 666 640 Q 684 647 693 649 L 708 654 Q 714 656 716 662 L 716 663 Q 716 668 710 676 Q 703 686 692 694 Q 680 703 668 710 Q 655 716 650 716 Q 645 714 634 701 Q 622 688 608 676 Q 594 665 566 648 Q 537 632 525 626 L 496 612 Q 478 605 469 600 L 457 595 Q 452 592 452 588 L 452 586 Q 452 582 457 582 L 460 582 L 480 586 Q 492 588 515 593 Q 537 598 545 600 Q 553 602 568 607 L 612 621 Z" fill="lightgray" />
    
      <path d="M 622 506 L 656 510 Q 666 510 692 513 Q 719 516 733 517 Q 748 518 795 519 L 818 520 Q 830 520 835 522 Q 841 524 842 529 L 842 531 Q 842 535 833 543 Q 822 551 811 556 Q 801 562 790 564 Q 780 567 774 568 Q 766 568 753 564 Q 740 562 714 557 L 655 546 L 622 540 L 573 533 L 550 530 L 474 519 Q 437 513 432 512 L 382 507 Q 370 506 370 501 Q 369 500 369 498 Q 369 495 373 492 Q 378 488 386 483 Q 394 478 406 473 Q 415 469 421 469 Q 424 469 426 470 Q 429 470 440 474 Q 451 478 458 480 Q 464 482 491 486 L 548 496 L 622 506 Z" fill="lightgray" />
    
      <path d="M 573 446 L 569 415 L 566 392 Q 566 386 567 374 Q 569 363 571 357 Q 574 352 579 345 Q 587 334 592 334 L 593 334 Q 598 334 604 343 Q 610 352 614 359 Q 617 366 619 380 Q 622 394 622 419 L 622 450 L 622 472 L 622 506 L 622 540 L 624 561 Q 625 566 627 577 Q 630 588 631 593 Q 633 598 633 602 Q 632 606 626 611 Q 620 616 612 621 C 587 638 562 636 568 607 L 572 587 Q 574 572 574 554 L 573 533 L 573 446 Z" fill="lightgray" />
    
      <path d="M 548 496 L 542 486 Q 538 480 518 458 Q 500 435 484 418 L 441 376 Q 414 352 396 338 Q 378 326 375 322 L 368 316 Q 365 313 365 310 Q 365 308 366 306 Q 367 303 370 303 Q 372 303 374 304 L 383 308 Q 394 312 428 328 Q 460 344 496 374 Q 532 404 543 416 L 573 446 C 626 499 566 526 548 496 Z" fill="lightgray" />
    
      <path d="M 622 450 L 642 436 L 664 422 Q 700 398 705 394 Q 710 390 742 367 Q 772 344 788 335 Q 800 328 808 328 Q 811 328 813 329 Q 822 331 827 340 Q 832 349 832 360 Q 831 370 826 382 Q 820 394 803 407 Q 786 420 748 434 Q 711 448 692 454 Q 672 460 653 465 Q 634 470 622 472 C 593 478 597 467 622 450 Z" fill="lightgray" />
    
      <path d="M 581 264 L 592 276 Q 595 279 602 288 Q 609 298 610 302 Q 610 308 602 316 Q 594 324 586 329 Q 579 333 566 338 Q 554 344 548 344 Q 540 342 539 340 L 539 338 Q 539 335 540 330 Q 542 323 542 316 Q 540 302 538 290 Q 535 278 533 272 Q 530 266 528 258 L 504 218 L 482 188 L 470 174 Q 464 168 464 164 Q 463 162 463 160 Q 463 155 466 151 Q 470 146 475 143 Q 480 141 492 139 Q 504 138 520 133 Q 535 128 546 125 Q 556 122 577 114 L 622 94 L 660 73 Q 698 51 705 46 L 750 12 Q 760 4 770 -2 Q 779 -7 785 -9 Q 792 -10 795 -10 L 798 -10 Q 800 -10 802 -9 Q 804 -8 808 -2 Q 812 4 814 12 Q 814 18 811 31 Q 808 44 797 56 Q 787 68 770 79 Q 752 89 731 99 Q 709 110 692 116 L 656 129 L 608 144 L 576 151 L 552 154 L 522 160 Q 510 162 508 164 L 508 165 Q 508 167 515 175 Q 523 184 531 198 Q 540 211 550 224 L 581 264 Z" fill="lightgray" />
    
      <path d="M 656 129 L 664 140 Q 672 149 681 165 Q 690 180 700 201 L 710 226 Q 712 229 715 237 C 727 264 731 274 729 278 L 726 286 Q 722 292 710 300 L 688 311 Q 680 315 673 316 Q 670 317 668 317 Q 665 317 664 315 Q 660 312 660 308 L 664 284 Q 665 280 665 273 L 658 234 L 648 204 Q 646 198 637 184 Q 628 168 623 161 L 608 144 L 577 114 L 554 98 Q 550 94 532 85 Q 514 75 482 62 Q 450 49 440 48 L 430 46 Q 422 44 422 37 Q 422 31 428 31 L 430 31 L 446 32 Q 456 33 476 37 Q 496 41 534 50 Q 572 60 588 70 Q 605 81 622 94 L 656 129 Z" fill="lightgray" />
    
      <path d="M 715 237 L 744 239 L 802 239 Q 856 238 862 238 L 897 237 L 899 237 Q 901 237 904 238 Q 908 240 910 242 Q 912 246 912 252 Q 911 257 900 266 Q 889 274 883 278 Q 876 282 862 287 L 842 294 Q 836 294 822 291 Q 808 288 785 284 L 749 280 Q 742 278 729 278 L 665 273 L 641 270 L 608 266 Q 598 266 581 264 L 528 258 L 508 256 Q 496 254 459 250 Q 423 246 392 244 Q 362 240 354 240 L 335 238 Q 327 237 326 233 Q 325 232 325 231 Q 325 228 329 224 Q 334 218 346 211 Q 356 204 367 200 Q 375 196 386 196 L 390 196 Q 398 196 415 201 Q 433 206 448 209 Q 462 212 473 213 Q 484 214 504 218 L 550 224 L 586 228 L 600 230 Q 606 231 622 232 Q 638 232 658 234 L 715 237 Z" fill="lightgray" />
    
      <path d="M 152 585 Q 156 578 176 552 L 202 518 Q 214 502 226 492 Q 239 478 247 478 L 248 478 Q 256 479 264 486 Q 272 494 276 512 Q 278 525 278 535 Q 278 543 277 549 Q 274 564 267 572 Q 260 580 246 587 Q 233 594 225 596 Q 217 600 198 606 Q 178 613 172 614 L 146 620 L 144 620 Q 139 620 137 616 Q 136 615 136 612 Q 136 609 139 604 L 152 585 Z" fill="lightgray" />
    
      <path d="M 204 236 Q 204 239 212 250 Q 220 262 222 264 L 262 314 Q 267 320 278 329 L 299 347 Q 310 356 311 362 L 311 363 Q 311 369 302 378 Q 292 388 279 396 L 254 408 Q 245 413 238 413 L 236 413 Q 230 412 223 409 L 193 392 Q 170 380 153 373 Q 136 366 114 360 L 92 355 Q 76 351 75 346 L 75 344 Q 75 339 80 336 Q 86 332 97 328 Q 108 325 113 324 L 119 324 Q 128 324 139 326 L 162 332 Q 184 338 188 339 Q 193 340 197 340 Q 202 338 205 334 Q 206 333 206 331 Q 206 326 203 319 Q 199 308 197 302 L 180 251 Q 176 240 175 236 L 175 233 Q 175 231 176 228 Q 178 224 188 214 C 191 211 191 211 204 236 Z" fill="lightgray" />
    
      <path d="M 256 68 L 262 82 Q 264 86 268 99 Q 272 112 274 126 L 274 135 Q 274 157 266 173 Q 255 192 246 200 L 220 219 Q 204 231 204 236 C 190 263 168 236 188 214 Q 198 204 208 187 Q 218 170 224 157 Q 230 144 234 124 Q 237 107 237 96 Q 237 91 236 87 Q 234 76 232 69 C 225 40 244 40 256 68 Z" fill="lightgray" />
    
      <path d="M 232 69 L 221 68 Q 212 68 192 66 Q 172 65 155 63 Q 138 62 130 62 Q 122 62 106 64 Q 91 65 83 67 Q 75 68 72 68 Q 65 66 64 61 Q 63 59 63 57 Q 63 53 65 49 Q 68 42 74 34 Q 81 25 88 18 Q 96 10 105 4 Q 112 0 118 0 L 120 0 Q 124 0 136 6 Q 147 12 162 15 Q 176 19 198 23 Q 220 26 241 26 Q 256 24 279 20 Q 302 15 317 10 Q 332 5 380 -14 L 480 -51 L 556 -84 L 666 -130 Q 704 -144 723 -144 L 726 -144 Q 740 -144 764 -138 L 811 -122 L 875 -99 Q 915 -84 928 -78 L 955 -65 Q 965 -61 965 -55 Q 965 -54 964 -52 Q 960 -45 949 -44 L 905 -44 L 854 -42 Q 798 -42 750 -40 Q 704 -38 659 -32 Q 614 -27 570 -18 Q 526 -8 484 3 Q 442 14 393 30 L 330 50 Q 290 62 278 65 Q 265 67 256 68 L 232 69 Z" fill="lightgray" />
    
    
      <clipPath id="make-me-a-hanzi-clip-0">
        <path d="M 612 621 L 641 630 Q 647 632 666 640 Q 684 647 693 649 L 708 654 Q 714 656 716 662 L 716 663 Q 716 668 710 676 Q 703 686 692 694 Q 680 703 668 710 Q 655 716 650 716 Q 645 714 634 701 Q 622 688 608 676 Q 594 665 566 648 Q 537 632 525 626 L 496 612 Q 478 605 469 600 L 457 595 Q 452 592 452 588 L 452 586 Q 452 582 457 582 L 460 582 L 480 586 Q 492 588 515 593 Q 537 598 545 600 Q 553 602 568 607 L 612 621 Z" />
      </clipPath>
      <path clip-path="url(#make-me-a-hanzi-clip-0)" d="M 708 663 L 655 673 L 556 621 L 457 587" fill="none" id="make-me-a-hanzi-animation-0" stroke-dasharray="398 796" stroke-linecap="round" />
    
      <clipPath id="make-me-a-hanzi-clip-1">
        <path d="M 622 506 L 656 510 Q 666 510 692 513 Q 719 516 733 517 Q 748 518 795 519 L 818 520 Q 830 520 835 522 Q 841 524 842 529 L 842 531 Q 842 535 833 543 Q 822 551 811 556 Q 801 562 790 564 Q 780 567 774 568 Q 766 568 753 564 Q 740 562 714 557 L 655 546 L 622 540 L 573 533 L 550 530 L 474 519 Q 437 513 432 512 L 382 507 Q 370 506 370 501 Q 369 500 369 498 Q 369 495 373 492 Q 378 488 386 483 Q 394 478 406 473 Q 415 469 421 469 Q 424 469 426 470 Q 429 470 440 474 Q 451 478 458 480 Q 464 482 491 486 L 548 496 L 622 506 Z" />
      </clipPath>
      <path clip-path="url(#make-me-a-hanzi-clip-1)" d="M 375 498 L 428 491 L 530 511 L 772 543 L 834 530" fill="none" id="make-me-a-hanzi-animation-1" stroke-dasharray="593 1186" stroke-linecap="round" />
    
      <clipPath id="make-me-a-hanzi-clip-2">
        <path d="M 573 446 L 569 415 L 566 392 Q 566 386 567 374 Q 569 363 571 357 Q 574 352 579 345 Q 587 334 592 334 L 593 334 Q 598 334 604 343 Q 610 352 614 359 Q 617 366 619 380 Q 622 394 622 419 L 622 450 L 622 472 L 622 506 L 622 540 L 624 561 Q 625 566 627 577 Q 630 588 631 593 Q 633 598 633 602 Q 632 606 626 611 Q 620 616 612 621 C 587 638 562 636 568 607 L 572 587 Q 574 572 574 554 L 573 533 L 573 446 Z" />
      </clipPath>
      <path clip-path="url(#make-me-a-hanzi-clip-2)" d="M 577 604 L 600 585 L 593 342" fill="none" id="make-me-a-hanzi-animation-2" stroke-dasharray="401 802" stroke-linecap="round" />
    
      <clipPath id="make-me-a-hanzi-clip-3">
        <path d="M 548 496 L 542 486 Q 538 480 518 458 Q 500 435 484 418 L 441 376 Q 414 352 396 338 Q 378 326 375 322 L 368 316 Q 365 313 365 310 Q 365 308 366 306 Q 367 303 370 303 Q 372 303 374 304 L 383 308 Q 394 312 428 328 Q 460 344 496 374 Q 532 404 543 416 L 573 446 C 626 499 566 526 548 496 Z" />
      </clipPath>
      <path clip-path="url(#make-me-a-hanzi-clip-3)" d="M 568 493 L 549 456 L 492 396 L 427 343 L 371 308" fill="none" id="make-me-a-hanzi-animation-3" stroke-dasharray="402 804" stroke-linecap="round" />
    
      <clipPath id="make-me-a-hanzi-clip-4">
        <path d="M 622 450 L 642 436 L 664 422 Q 700 398 705 394 Q 710 390 742 367 Q 772 344 788 335 Q 800 328 808 328 Q 811 328 813 329 Q 822 331 827 340 Q 832 349 832 360 Q 831 370 826 382 Q 820 394 803 407 Q 786 420 748 434 Q 711 448 692 454 Q 672 460 653 465 Q 634 470 622 472 C 593 478 597 467 622 450 Z" />
      </clipPath>
      <path clip-path="url(#make-me-a-hanzi-clip-4)" d="M 628 467 L 634 456 L 760 395 L 796 368 L 807 346" fill="none" id="make-me-a-hanzi-animation-4" stroke-dasharray="350 700" stroke-linecap="round" />
    
      <clipPath id="make-me-a-hanzi-clip-5">
        <path d="M 581 264 L 592 276 Q 595 279 602 288 Q 609 298 610 302 Q 610 308 602 316 Q 594 324 586 329 Q 579 333 566 338 Q 554 344 548 344 Q 540 342 539 340 L 539 338 Q 539 335 540 330 Q 542 323 542 316 Q 540 302 538 290 Q 535 278 533 272 Q 530 266 528 258 L 504 218 L 482 188 L 470 174 Q 464 168 464 164 Q 463 162 463 160 Q 463 155 466 151 Q 470 146 475 143 Q 480 141 492 139 Q 504 138 520 133 Q 535 128 546 125 Q 556 122 577 114 L 622 94 L 660 73 Q 698 51 705 46 L 750 12 Q 760 4 770 -2 Q 779 -7 785 -9 Q 792 -10 795 -10 L 798 -10 Q 800 -10 802 -9 Q 804 -8 808 -2 Q 812 4 814 12 Q 814 18 811 31 Q 808 44 797 56 Q 787 68 770 79 Q 752 89 731 99 Q 709 110 692 116 L 656 129 L 608 144 L 576 151 L 552 154 L 522 160 Q 510 162 508 164 L 508 165 Q 508 167 515 175 Q 523 184 531 198 Q 540 211 550 224 L 581 264 Z" />
      </clipPath>
      <path clip-path="url(#make-me-a-hanzi-clip-5)" d="M 545 339 L 572 301 L 547 251 L 487 161 L 501 151 L 620 119 L 712 77 L 777 32 L 797 1" fill="none" id="make-me-a-hanzi-animation-5" stroke-dasharray="696 1392" stroke-linecap="round" />
    
      <clipPath id="make-me-a-hanzi-clip-6">
        <path d="M 656 129 L 664 140 Q 672 149 681 165 Q 690 180 700 201 L 710 226 Q 712 229 715 237 C 727 264 731 274 729 278 L 726 286 Q 722 292 710 300 L 688 311 Q 680 315 673 316 Q 670 317 668 317 Q 665 317 664 315 Q 660 312 660 308 L 664 284 Q 665 280 665 273 L 658 234 L 648 204 Q 646 198 637 184 Q 628 168 623 161 L 608 144 L 577 114 L 554 98 Q 550 94 532 85 Q 514 75 482 62 Q 450 49 440 48 L 430 46 Q 422 44 422 37 Q 422 31 428 31 L 430 31 L 446 32 Q 456 33 476 37 Q 496 41 534 50 Q 572 60 588 70 Q 605 81 622 94 L 656 129 Z" />
      </clipPath>
      <path clip-path="url(#make-me-a-hanzi-clip-6)" d="M 669 310 L 694 267 L 668 190 L 636 140 L 593 99 L 553 74 L 466 43 L 429 38" fill="none" id="make-me-a-hanzi-animation-6" stroke-dasharray="555 1110" stroke-linecap="round" />
    
      <clipPath id="make-me-a-hanzi-clip-7">
        <path d="M 715 237 L 744 239 L 802 239 Q 856 238 862 238 L 897 237 L 899 237 Q 901 237 904 238 Q 908 240 910 242 Q 912 246 912 252 Q 911 257 900 266 Q 889 274 883 278 Q 876 282 862 287 L 842 294 Q 836 294 822 291 Q 808 288 785 284 L 749 280 Q 742 278 729 278 L 665 273 L 641 270 L 608 266 Q 598 266 581 264 L 528 258 L 508 256 Q 496 254 459 250 Q 423 246 392 244 Q 362 240 354 240 L 335 238 Q 327 237 326 233 Q 325 232 325 231 Q 325 228 329 224 Q 334 218 346 211 Q 356 204 367 200 Q 375 196 386 196 L 390 196 Q 398 196 415 201 Q 433 206 448 209 Q 462 212 473 213 Q 484 214 504 218 L 550 224 L 586 228 L 600 230 Q 606 231 622 232 Q 638 232 658 234 L 715 237 Z" />
      </clipPath>
      <path clip-path="url(#make-me-a-hanzi-clip-7)" d="M 331 230 L 379 219 L 576 246 L 839 266 L 901 249" fill="none" id="make-me-a-hanzi-animation-7" stroke-dasharray="704 1408" stroke-linecap="round" />
    
      <clipPath id="make-me-a-hanzi-clip-8">
        <path d="M 152 585 Q 156 578 176 552 L 202 518 Q 214 502 226 492 Q 239 478 247 478 L 248 478 Q 256 479 264 486 Q 272 494 276 512 Q 278 525 278 535 Q 278 543 277 549 Q 274 564 267 572 Q 260 580 246 587 Q 233 594 225 596 Q 217 600 198 606 Q 178 613 172 614 L 146 620 L 144 620 Q 139 620 137 616 Q 136 615 136 612 Q 136 609 139 604 L 152 585 Z" />
      </clipPath>
      <path clip-path="url(#make-me-a-hanzi-clip-8)" d="M 144 612 L 235 544 L 248 493" fill="none" id="make-me-a-hanzi-animation-8" stroke-dasharray="294 588" stroke-linecap="round" />
    
      <clipPath id="make-me-a-hanzi-clip-9">
        <path d="M 204 236 Q 204 239 212 250 Q 220 262 222 264 L 262 314 Q 267 320 278 329 L 299 347 Q 310 356 311 362 L 311 363 Q 311 369 302 378 Q 292 388 279 396 L 254 408 Q 245 413 238 413 L 236 413 Q 230 412 223 409 L 193 392 Q 170 380 153 373 Q 136 366 114 360 L 92 355 Q 76 351 75 346 L 75 344 Q 75 339 80 336 Q 86 332 97 328 Q 108 325 113 324 L 119 324 Q 128 324 139 326 L 162 332 Q 184 338 188 339 Q 193 340 197 340 Q 202 338 205 334 Q 206 333 206 331 Q 206 326 203 319 Q 199 308 197 302 L 180 251 Q 176 240 175 236 L 175 233 Q 175 231 176 228 Q 178 224 188 214 C 191 211 191 211 204 236 Z" />
      </clipPath>
      <path clip-path="url(#make-me-a-hanzi-clip-9)" d="M 81 345 L 116 342 L 197 366 L 240 364 L 235 327 L 196 253 L 188 222" fill="none" id="make-me-a-hanzi-animation-9" stroke-dasharray="444 888" stroke-linecap="round" />
    
      <clipPath id="make-me-a-hanzi-clip-10">
        <path d="M 256 68 L 262 82 Q 264 86 268 99 Q 272 112 274 126 L 274 135 Q 274 157 266 173 Q 255 192 246 200 L 220 219 Q 204 231 204 236 C 190 263 168 236 188 214 Q 198 204 208 187 Q 218 170 224 157 Q 230 144 234 124 Q 237 107 237 96 Q 237 91 236 87 Q 234 76 232 69 C 225 40 244 40 256 68 Z" />
      </clipPath>
      <path clip-path="url(#make-me-a-hanzi-clip-10)" d="M 201 230 L 209 210 L 239 176 L 253 141 L 252 98 L 238 72" fill="none" id="make-me-a-hanzi-animation-10" stroke-dasharray="305 610" stroke-linecap="round" />
    
      <clipPath id="make-me-a-hanzi-clip-11">
        <path d="M 232 69 L 221 68 Q 212 68 192 66 Q 172 65 155 63 Q 138 62 130 62 Q 122 62 106 64 Q 91 65 83 67 Q 75 68 72 68 Q 65 66 64 61 Q 63 59 63 57 Q 63 53 65 49 Q 68 42 74 34 Q 81 25 88 18 Q 96 10 105 4 Q 112 0 118 0 L 120 0 Q 124 0 136 6 Q 147 12 162 15 Q 176 19 198 23 Q 220 26 241 26 Q 256 24 279 20 Q 302 15 317 10 Q 332 5 380 -14 L 480 -51 L 556 -84 L 666 -130 Q 704 -144 723 -144 L 726 -144 Q 740 -144 764 -138 L 811 -122 L 875 -99 Q 915 -84 928 -78 L 955 -65 Q 965 -61 965 -55 Q 965 -54 964 -52 Q 960 -45 949 -44 L 905 -44 L 854 -42 Q 798 -42 750 -40 Q 704 -38 659 -32 Q 614 -27 570 -18 Q 526 -8 484 3 Q 442 14 393 30 L 330 50 Q 290 62 278 65 Q 265 67 256 68 L 232 69 Z" />
      </clipPath>
      <path clip-path="url(#make-me-a-hanzi-clip-11)" d="M 75 56 L 119 32 L 237 48 L 286 41 L 576 -55 L 716 -91 L 746 -91 L 956 -56" fill="none" id="make-me-a-hanzi-animation-11" stroke-dasharray="1040 2080" stroke-linecap="round" />
    
  </g>
</svg>