<svg xmlns="http://www.w3.org/2000/svg" version="1.1" viewBox="0 0 1024 1024">
  <g stroke="lightgray" stroke-dasharray="1,1" stroke-width="1" transform="scale(4, 4)">
    <line x1="0" y1="0" x2="256" y2="256" />
    <line x1="256" y1="0" x2="0" y2="256" />
    <line x1="128" y1="0" x2="128" y2="256" />
    <line x1="0" y1="128" x2="256" y2="128" />
  </g>
  <g transform="scale(1.0, -1.0) translate(0.0, -789.50)">
    <style type="text/css">
      
        @keyframes keyframes0 {
          from {
            stroke: blue;
            stroke-dashoffset: 556;
            stroke-width: 128;
          }
          64% {
            animation-timing-function: step-end;
            stroke: blue;
            stroke-dashoffset: 0;
            stroke-width: 128;
          }
          to {
            stroke: black;
            stroke-width: 1024;
          }
        }
        #make-me-a-hanzi-animation-0 {
          animation: keyframes0 0.7024739583333334s both;
          animation-delay: 0s;
          animation-timing-function: linear;
        }
      
        @keyframes keyframes1 {
          from {
            stroke: blue;
            stroke-dashoffset: 533;
            stroke-width: 128;
          }
          63% {
            animation-timing-function: step-end;
            stroke: blue;
            stroke-dashoffset: 0;
            stroke-width: 128;
          }
          to {
            stroke: black;
            stroke-width: 1024;
          }
        }
        #make-me-a-hanzi-animation-1 {
          animation: keyframes1 0.6837565104166666s both;
          animation-delay: 0.7024739583333334s;
          animation-timing-function: linear;
        }
      
        @keyframes keyframes2 {
          from {
            stroke: blue;
            stroke-dashoffset: 737;
            stroke-width: 128;
          }
          71% {
            animation-timing-function: step-end;
            stroke: blue;
            stroke-dashoffset: 0;
            stroke-width: 128;
          }
          to {
            stroke: black;
            stroke-width: 1024;
          }
        }
        #make-me-a-hanzi-animation-2 {
          animation: keyframes2 0.8497721354166666s both;
          animation-delay: 1.38623046875s;
          animation-timing-function: linear;
        }
      
        @keyframes keyframes3 {
          from {
            stroke: blue;
            stroke-dashoffset: 515;
            stroke-width: 128;
          }
          63% {
            animation-timing-function: step-end;
            stroke: blue;
            stroke-dashoffset: 0;
            stroke-width: 128;
          }
          to {
            stroke: black;
            stroke-width: 1024;
          }
        }
        #make-me-a-hanzi-animation-3 {
          animation: keyframes3 0.6691080729166666s both;
          animation-delay: 2.2360026041666665s;
          animation-timing-function: linear;
        }
      
        @keyframes keyframes4 {
          from {
            stroke: blue;
            stroke-dashoffset: 576;
            stroke-width: 128;
          }
          65% {
            animation-timing-function: step-end;
            stroke: blue;
            stroke-dashoffset: 0;
            stroke-width: 128;
          }
          to {
            stroke: black;
            stroke-width: 1024;
          }
        }
        #make-me-a-hanzi-animation-4 {
          animation: keyframes4 0.71875s both;
          animation-delay: 2.905110677083333s;
          animation-timing-function: linear;
        }
      
        @keyframes keyframes5 {
          from {
            stroke: blue;
            stroke-dashoffset: 549;
            stroke-width: 128;
          }
          64% {
            animation-timing-function: step-end;
            stroke: blue;
            stroke-dashoffset: 0;
            stroke-width: 128;
          }
          to {
            stroke: black;
            stroke-width: 1024;
          }
        }
        #make-me-a-hanzi-animation-5 {
          animation: keyframes5 0.69677734375s both;
          animation-delay: 3.623860677083333s;
          animation-timing-function: linear;
        }
      
        @keyframes keyframes6 {
          from {
            stroke: blue;
            stroke-dashoffset: 498;
            stroke-width: 128;
          }
          62% {
            animation-timing-function: step-end;
            stroke: blue;
            stroke-dashoffset: 0;
            stroke-width: 128;
          }
          to {
            stroke: black;
            stroke-width: 1024;
          }
        }
        #make-me-a-hanzi-animation-6 {
          animation: keyframes6 0.6552734375s both;
          animation-delay: 4.320638020833333s;
          animation-timing-function: linear;
        }
      
        @keyframes keyframes7 {
          from {
            stroke: blue;
            stroke-dashoffset: 730;
            stroke-width: 128;
          }
          70% {
            animation-timing-function: step-end;
            stroke: blue;
            stroke-dashoffset: 0;
            stroke-width: 128;
          }
          to {
            stroke: black;
            stroke-width: 1024;
          }
        }
        #make-me-a-hanzi-animation-7 {
          animation: keyframes7 0.8440755208333334s both;
          animation-delay: 4.975911458333333s;
          animation-timing-function: linear;
        }
      
        @keyframes keyframes8 {
          from {
            stroke: blue;
            stroke-dashoffset: 417;
            stroke-width: 128;
          }
          58% {
            animation-timing-function: step-end;
            stroke: blue;
            stroke-dashoffset: 0;
            stroke-width: 128;
          }
          to {
            stroke: black;
            stroke-width: 1024;
          }
        }
        #make-me-a-hanzi-animation-8 {
          animation: keyframes8 0.58935546875s both;
          animation-delay: 5.819986979166666s;
          animation-timing-function: linear;
        }
      
        @keyframes keyframes9 {
          from {
            stroke: blue;
            stroke-dashoffset: 587;
            stroke-width: 128;
          }
          66% {
            animation-timing-function: step-end;
            stroke: blue;
            stroke-dashoffset: 0;
            stroke-width: 128;
          }
          to {
            stroke: black;
            stroke-width: 1024;
          }
        }
        #make-me-a-hanzi-animation-9 {
          animation: keyframes9 0.7277018229166666s both;
          animation-delay: 6.409342447916666s;
          animation-timing-function: linear;
        }
      
        @keyframes keyframes10 {
          from {
            stroke: blue;
            stroke-dashoffset: 419;
            stroke-width: 128;
          }
          58% {
            animation-timing-function: step-end;
            stroke: blue;
            stroke-dashoffset: 0;
            stroke-width: 128;
          }
          to {
            stroke: black;
            stroke-width: 1024;
          }
        }
        #make-me-a-hanzi-animation-10 {
          animation: keyframes10 0.5909830729166666s both;
          animation-delay: 7.137044270833333s;
          animation-timing-function: linear;
        }
      
        @keyframes keyframes11 {
          from {
            stroke: blue;
            stroke-dashoffset: 1199;
            stroke-width: 128;
          }
          80% {
            animation-timing-function: step-end;
            stroke: blue;
            stroke-dashoffset: 0;
            stroke-width: 128;
          }
          to {
            stroke: black;
            stroke-width: 1024;
          }
        }
        #make-me-a-hanzi-animation-11 {
          animation: keyframes11 1.2257486979166667s both;
          animation-delay: 7.72802734375s;
          animation-timing-function: linear;
        }
      
    </style>
    
      <path d="M 644 530 L 664 532 Q 692 536 700 538 Q 708 540 735 545 Q 762 550 766 555 Q 772 559 772 563 L 772 565 Q 772 569 769 572 Q 764 577 759 580 Q 754 582 737 588 Q 721 593 716 593 Q 711 592 699 588 Q 686 582 674 580 Q 662 577 646 574 L 590 563 L 538 554 Q 532 553 490 548 L 462 544 Q 456 544 456 538 Q 457 532 466 526 Q 476 520 487 517 Q 498 514 516 514 Q 542 514 558 516 Q 573 518 590 521 L 644 530 Z" fill="lightgray" />
    
      <path d="M 640 448 L 644 530 L 646 574 L 646 591 Q 646 599 648 616 Q 650 632 652 642 Q 654 651 659 661 Q 663 671 663 677 L 663 679 Q 662 686 654 691 Q 646 696 634 700 Q 622 704 614 706 Q 606 708 588 709 L 583 709 Q 575 709 571 706 Q 567 703 567 699 L 567 697 Q 568 692 573 683 Q 579 674 581 666 Q 584 658 586 646 Q 589 633 590 627 L 590 563 L 590 521 L 592 442 C 593 412 639 418 640 448 Z" fill="lightgray" />
    
      <path d="M 592 442 L 406 420 L 386 418 Q 375 418 374 414 L 374 413 Q 374 409 378 405 Q 382 399 392 394 Q 402 388 413 384 Q 424 379 430 379 L 433 379 Q 441 379 453 383 Q 468 388 476 390 Q 484 392 503 394 L 530 400 L 668 416 L 718 416 L 833 422 Q 850 423 854 425 Q 860 427 861 431 L 861 432 Q 861 437 855 443 Q 848 450 838 454 Q 828 460 814 464 Q 801 469 791 469 Q 786 468 772 466 Q 758 462 720 458 L 640 448 L 592 442 Z" fill="lightgray" />
    
      <path d="M 503 394 L 496 366 Q 490 344 473 318 Q 456 292 440 272 Q 422 252 410 242 Q 398 232 378 218 L 366 210 Q 360 205 360 200 Q 361 197 365 197 Q 367 197 370 198 L 389 204 Q 416 212 436 226 Q 456 238 474 254 Q 492 270 505 287 Q 518 303 529 319 Q 540 336 544 341 Q 548 346 555 352 Q 562 358 564 360 Q 564 366 558 374 Q 552 382 545 387 L 530 400 C 509 418 509 418 503 394 Z" fill="lightgray" />
    
      <path d="M 668 416 L 672 372 L 672 330 Q 672 322 674 308 Q 674 294 678 287 Q 682 280 699 272 Q 715 264 737 260 Q 760 257 791 256 Q 823 256 843 257 Q 864 258 880 263 Q 896 268 897 275 L 897 277 Q 897 281 893 289 Q 888 298 879 304 Q 870 309 862 310 Q 858 310 840 305 Q 822 300 806 300 Q 797 299 783 299 L 767 299 Q 742 300 732 304 Q 722 308 718 314 Q 715 318 715 327 Q 715 331 716 337 L 718 350 Q 720 364 730 378 Q 739 391 739 395 L 739 396 Q 738 401 732 406 Q 727 410 718 416 C 693 433 665 446 668 416 Z" fill="lightgray" />
    
      <path d="M 636 172 L 704 181 Q 708 182 732 186 Q 755 190 761 193 Q 768 196 769 199 L 769 201 Q 769 205 761 211 Q 750 217 735 222 Q 720 227 713 227 Q 708 226 693 221 Q 678 215 666 213 Q 654 210 639 208 L 588 200 L 541 193 L 492 190 L 472 188 Q 467 188 467 184 L 467 182 Q 467 176 480 171 Q 492 166 515 164 Q 538 162 554 162 Q 570 164 590 166 L 636 172 Z" fill="lightgray" />
    
      <path d="M 632 90 L 636 172 L 639 208 L 639 236 Q 639 250 646 268 Q 651 283 651 289 L 651 291 Q 649 297 641 304 Q 632 310 624 312 Q 615 315 593 320 Q 587 322 582 322 Q 578 322 575 320 Q 572 317 572 312 L 572 310 Q 574 303 581 290 Q 588 278 588 254 L 588 200 L 590 166 L 592 86 C 593 56 631 60 632 90 Z" fill="lightgray" />
    
      <path d="M 592 86 L 486 76 L 410 68 L 388 67 Q 382 66 380 63 L 380 61 Q 380 59 384 54 Q 389 48 398 42 Q 406 37 416 32 Q 425 27 434 26 Q 440 26 459 32 Q 478 38 508 42 L 577 51 Q 614 56 642 57 Q 669 59 726 60 L 804 60 L 843 58 Q 847 57 850 57 Q 857 57 860 60 Q 865 62 865 68 Q 864 72 858 78 Q 852 84 838 92 Q 825 99 814 104 Q 804 108 794 109 Q 788 109 774 106 Q 759 103 735 100 Q 711 98 702 97 L 632 90 L 592 86 Z" fill="lightgray" />
    
      <path d="M 187 596 Q 190 590 210 564 L 235 532 Q 247 516 257 508 Q 271 495 279 495 L 280 495 Q 288 496 295 504 Q 303 510 306 521 Q 310 532 310 542 L 310 549 Q 310 555 309 562 Q 307 570 300 580 Q 293 588 281 595 Q 269 602 259 606 Q 249 609 228 616 L 200 624 L 182 628 Q 179 628 176 626 Q 173 625 172 622 L 172 621 Q 172 618 175 614 L 187 596 Z" fill="lightgray" />
    
      <path d="M 216 210 Q 216 213 221 220 Q 227 228 234 236 L 274 284 Q 281 292 286 296 Q 292 302 305 313 Q 318 324 320 330 Q 320 336 310 346 Q 300 355 288 362 Q 275 370 263 375 Q 251 380 244 380 Q 240 378 230 372 Q 220 366 193 354 Q 166 342 156 338 Q 144 334 116 326 L 96 320 L 82 318 Q 78 316 78 312 Q 78 309 82 305 Q 87 302 98 298 Q 109 295 119 294 L 125 294 Q 135 294 144 296 Q 156 298 170 302 Q 184 305 195 309 Q 206 312 210 314 L 214 314 Q 219 314 221 312 Q 223 311 223 309 Q 223 307 222 305 L 214 285 L 188 222 Q 184 213 184 209 Q 184 204 185 201 Q 186 198 195 188 C 201 181 203 183 216 210 Z" fill="lightgray" />
    
      <path d="M 256 51 L 264 62 Q 270 71 274 85 Q 280 102 280 120 Q 280 138 270 154 Q 260 171 246 183 L 224 198 Q 216 204 216 209 L 216 210 C 208 239 174 209 195 188 Q 204 180 212 165 Q 220 151 226 137 Q 232 124 236 108 Q 237 97 237 88 L 237 80 Q 236 70 234 64 Q 234 58 232 50 C 226 21 238 27 256 51 Z" fill="lightgray" />
    
      <path d="M 232 50 L 214 49 Q 192 47 179 46 Q 166 44 146 42 Q 126 40 116 40 Q 104 40 91 41 Q 78 42 69 44 Q 63 45 59 45 L 56 45 Q 50 42 49 38 L 49 35 Q 49 31 51 26 Q 54 18 60 11 Q 66 4 74 -4 Q 84 -12 92 -17 Q 100 -22 107 -22 Q 111 -22 123 -16 Q 135 -9 149 -6 Q 162 -2 190 2 Q 218 6 246 7 Q 268 7 294 3 Q 319 0 338 -6 Q 357 -12 386 -24 L 476 -61 L 595 -109 L 684 -144 Q 711 -154 730 -154 L 736 -154 Q 750 -154 776 -147 Q 800 -139 826 -129 L 900 -101 Q 930 -90 941 -84 L 968 -70 Q 978 -66 978 -61 Q 978 -59 977 -58 Q 974 -52 962 -51 L 916 -50 Q 908 -50 859 -51 Q 810 -51 761 -49 Q 712 -48 663 -43 Q 614 -38 569 -29 Q 523 -20 488 -10 L 405 15 Q 356 31 332 38 Q 308 44 294 47 Q 280 49 258 51 L 256 51 L 232 50 Z" fill="lightgray" />
    
    
      <clipPath id="make-me-a-hanzi-clip-0">
        <path d="M 644 530 L 664 532 Q 692 536 700 538 Q 708 540 735 545 Q 762 550 766 555 Q 772 559 772 563 L 772 565 Q 772 569 769 572 Q 764 577 759 580 Q 754 582 737 588 Q 721 593 716 593 Q 711 592 699 588 Q 686 582 674 580 Q 662 577 646 574 L 590 563 L 538 554 Q 532 553 490 548 L 462 544 Q 456 544 456 538 Q 457 532 466 526 Q 476 520 487 517 Q 498 514 516 514 Q 542 514 558 516 Q 573 518 590 521 L 644 530 Z" />
      </clipPath>
      <path clip-path="url(#make-me-a-hanzi-clip-0)" d="M 465 535 L 524 532 L 717 567 L 762 564" fill="none" id="make-me-a-hanzi-animation-0" stroke-dasharray="428 856" stroke-linecap="round" />
    
      <clipPath id="make-me-a-hanzi-clip-1">
        <path d="M 640 448 L 644 530 L 646 574 L 646 591 Q 646 599 648 616 Q 650 632 652 642 Q 654 651 659 661 Q 663 671 663 677 L 663 679 Q 662 686 654 691 Q 646 696 634 700 Q 622 704 614 706 Q 606 708 588 709 L 583 709 Q 575 709 571 706 Q 567 703 567 699 L 567 697 Q 568 692 573 683 Q 579 674 581 666 Q 584 658 586 646 Q 589 633 590 627 L 590 563 L 590 521 L 592 442 C 593 412 639 418 640 448 Z" />
      </clipPath>
      <path clip-path="url(#make-me-a-hanzi-clip-1)" d="M 577 698 L 620 665 L 616 470 L 597 450" fill="none" id="make-me-a-hanzi-animation-1" stroke-dasharray="405 810" stroke-linecap="round" />
    
      <clipPath id="make-me-a-hanzi-clip-2">
        <path d="M 592 442 L 406 420 L 386 418 Q 375 418 374 414 L 374 413 Q 374 409 378 405 Q 382 399 392 394 Q 402 388 413 384 Q 424 379 430 379 L 433 379 Q 441 379 453 383 Q 468 388 476 390 Q 484 392 503 394 L 530 400 L 668 416 L 718 416 L 833 422 Q 850 423 854 425 Q 860 427 861 431 L 861 432 Q 861 437 855 443 Q 848 450 838 454 Q 828 460 814 464 Q 801 469 791 469 Q 786 468 772 466 Q 758 462 720 458 L 640 448 L 592 442 Z" />
      </clipPath>
      <path clip-path="url(#make-me-a-hanzi-clip-2)" d="M 381 414 L 387 408 L 435 401 L 586 425 L 792 444 L 855 432" fill="none" id="make-me-a-hanzi-animation-2" stroke-dasharray="609 1218" stroke-linecap="round" />
    
      <clipPath id="make-me-a-hanzi-clip-3">
        <path d="M 503 394 L 496 366 Q 490 344 473 318 Q 456 292 440 272 Q 422 252 410 242 Q 398 232 378 218 L 366 210 Q 360 205 360 200 Q 361 197 365 197 Q 367 197 370 198 L 389 204 Q 416 212 436 226 Q 456 238 474 254 Q 492 270 505 287 Q 518 303 529 319 Q 540 336 544 341 Q 548 346 555 352 Q 562 358 564 360 Q 564 366 558 374 Q 552 382 545 387 L 530 400 C 509 418 509 418 503 394 Z" />
      </clipPath>
      <path clip-path="url(#make-me-a-hanzi-clip-3)" d="M 553 364 L 526 364 L 499 316 L 457 262 L 414 228 L 366 204" fill="none" id="make-me-a-hanzi-animation-3" stroke-dasharray="387 774" stroke-linecap="round" />
    
      <clipPath id="make-me-a-hanzi-clip-4">
        <path d="M 668 416 L 672 372 L 672 330 Q 672 322 674 308 Q 674 294 678 287 Q 682 280 699 272 Q 715 264 737 260 Q 760 257 791 256 Q 823 256 843 257 Q 864 258 880 263 Q 896 268 897 275 L 897 277 Q 897 281 893 289 Q 888 298 879 304 Q 870 309 862 310 Q 858 310 840 305 Q 822 300 806 300 Q 797 299 783 299 L 767 299 Q 742 300 732 304 Q 722 308 718 314 Q 715 318 715 327 Q 715 331 716 337 L 718 350 Q 720 364 730 378 Q 739 391 739 395 L 739 396 Q 738 401 732 406 Q 727 410 718 416 C 693 433 665 446 668 416 Z" />
      </clipPath>
      <path clip-path="url(#make-me-a-hanzi-clip-4)" d="M 674 409 L 701 386 L 693 326 L 699 300 L 713 289 L 734 281 L 784 277 L 865 284 L 889 276" fill="none" id="make-me-a-hanzi-animation-4" stroke-dasharray="448 896" stroke-linecap="round" />
    
      <clipPath id="make-me-a-hanzi-clip-5">
        <path d="M 636 172 L 704 181 Q 708 182 732 186 Q 755 190 761 193 Q 768 196 769 199 L 769 201 Q 769 205 761 211 Q 750 217 735 222 Q 720 227 713 227 Q 708 226 693 221 Q 678 215 666 213 Q 654 210 639 208 L 588 200 L 541 193 L 492 190 L 472 188 Q 467 188 467 184 L 467 182 Q 467 176 480 171 Q 492 166 515 164 Q 538 162 554 162 Q 570 164 590 166 L 636 172 Z" />
      </clipPath>
      <path clip-path="url(#make-me-a-hanzi-clip-5)" d="M 472 183 L 558 178 L 715 205 L 762 200" fill="none" id="make-me-a-hanzi-animation-5" stroke-dasharray="421 842" stroke-linecap="round" />
    
      <clipPath id="make-me-a-hanzi-clip-6">
        <path d="M 632 90 L 636 172 L 639 208 L 639 236 Q 639 250 646 268 Q 651 283 651 289 L 651 291 Q 649 297 641 304 Q 632 310 624 312 Q 615 315 593 320 Q 587 322 582 322 Q 578 322 575 320 Q 572 317 572 312 L 572 310 Q 574 303 581 290 Q 588 278 588 254 L 588 200 L 590 166 L 592 86 C 593 56 631 60 632 90 Z" />
      </clipPath>
      <path clip-path="url(#make-me-a-hanzi-clip-6)" d="M 581 313 L 617 281 L 613 111 L 598 93" fill="none" id="make-me-a-hanzi-animation-6" stroke-dasharray="370 740" stroke-linecap="round" />
    
      <clipPath id="make-me-a-hanzi-clip-7">
        <path d="M 592 86 L 486 76 L 410 68 L 388 67 Q 382 66 380 63 L 380 61 Q 380 59 384 54 Q 389 48 398 42 Q 406 37 416 32 Q 425 27 434 26 Q 440 26 459 32 Q 478 38 508 42 L 577 51 Q 614 56 642 57 Q 669 59 726 60 L 804 60 L 843 58 Q 847 57 850 57 Q 857 57 860 60 Q 865 62 865 68 Q 864 72 858 78 Q 852 84 838 92 Q 825 99 814 104 Q 804 108 794 109 Q 788 109 774 106 Q 759 103 735 100 Q 711 98 702 97 L 632 90 L 592 86 Z" />
      </clipPath>
      <path clip-path="url(#make-me-a-hanzi-clip-7)" d="M 386 62 L 434 49 L 586 70 L 792 84 L 855 69" fill="none" id="make-me-a-hanzi-animation-7" stroke-dasharray="602 1204" stroke-linecap="round" />
    
      <clipPath id="make-me-a-hanzi-clip-8">
        <path d="M 187 596 Q 190 590 210 564 L 235 532 Q 247 516 257 508 Q 271 495 279 495 L 280 495 Q 288 496 295 504 Q 303 510 306 521 Q 310 532 310 542 L 310 549 Q 310 555 309 562 Q 307 570 300 580 Q 293 588 281 595 Q 269 602 259 606 Q 249 609 228 616 L 200 624 L 182 628 Q 179 628 176 626 Q 173 625 172 622 L 172 621 Q 172 618 175 614 L 187 596 Z" />
      </clipPath>
      <path clip-path="url(#make-me-a-hanzi-clip-8)" d="M 177 622 L 264 559 L 276 535 L 280 509" fill="none" id="make-me-a-hanzi-animation-8" stroke-dasharray="289 578" stroke-linecap="round" />
    
      <clipPath id="make-me-a-hanzi-clip-9">
        <path d="M 216 210 Q 216 213 221 220 Q 227 228 234 236 L 274 284 Q 281 292 286 296 Q 292 302 305 313 Q 318 324 320 330 Q 320 336 310 346 Q 300 355 288 362 Q 275 370 263 375 Q 251 380 244 380 Q 240 378 230 372 Q 220 366 193 354 Q 166 342 156 338 Q 144 334 116 326 L 96 320 L 82 318 Q 78 316 78 312 Q 78 309 82 305 Q 87 302 98 298 Q 109 295 119 294 L 125 294 Q 135 294 144 296 Q 156 298 170 302 Q 184 305 195 309 Q 206 312 210 314 L 214 314 Q 219 314 221 312 Q 223 311 223 309 Q 223 307 222 305 L 214 285 L 188 222 Q 184 213 184 209 Q 184 204 185 201 Q 186 198 195 188 C 201 181 203 183 216 210 Z" />
      </clipPath>
      <path clip-path="url(#make-me-a-hanzi-clip-9)" d="M 85 312 L 122 310 L 227 340 L 252 337 L 260 330 L 248 295 L 198 212 L 197 197" fill="none" id="make-me-a-hanzi-animation-9" stroke-dasharray="459 918" stroke-linecap="round" />
    
      <clipPath id="make-me-a-hanzi-clip-10">
        <path d="M 256 51 L 264 62 Q 270 71 274 85 Q 280 102 280 120 Q 280 138 270 154 Q 260 171 246 183 L 224 198 Q 216 204 216 209 L 216 210 C 208 239 174 209 195 188 Q 204 180 212 165 Q 220 151 226 137 Q 232 124 236 108 Q 237 97 237 88 L 237 80 Q 236 70 234 64 Q 234 58 232 50 C 226 21 238 27 256 51 Z" />
      </clipPath>
      <path clip-path="url(#make-me-a-hanzi-clip-10)" d="M 215 200 L 214 188 L 247 147 L 258 115 L 252 73 L 238 56" fill="none" id="make-me-a-hanzi-animation-10" stroke-dasharray="291 582" stroke-linecap="round" />
    
      <clipPath id="make-me-a-hanzi-clip-11">
        <path d="M 232 50 L 214 49 Q 192 47 179 46 Q 166 44 146 42 Q 126 40 116 40 Q 104 40 91 41 Q 78 42 69 44 Q 63 45 59 45 L 56 45 Q 50 42 49 38 L 49 35 Q 49 31 51 26 Q 54 18 60 11 Q 66 4 74 -4 Q 84 -12 92 -17 Q 100 -22 107 -22 Q 111 -22 123 -16 Q 135 -9 149 -6 Q 162 -2 190 2 Q 218 6 246 7 Q 268 7 294 3 Q 319 0 338 -6 Q 357 -12 386 -24 L 476 -61 L 595 -109 L 684 -144 Q 711 -154 730 -154 L 736 -154 Q 750 -154 776 -147 Q 800 -139 826 -129 L 900 -101 Q 930 -90 941 -84 L 968 -70 Q 978 -66 978 -61 Q 978 -59 977 -58 Q 974 -52 962 -51 L 916 -50 Q 908 -50 859 -51 Q 810 -51 761 -49 Q 712 -48 663 -43 Q 614 -38 569 -29 Q 523 -20 488 -10 L 405 15 Q 356 31 332 38 Q 308 44 294 47 Q 280 49 258 51 L 256 51 L 232 50 Z" />
      </clipPath>
      <path clip-path="url(#make-me-a-hanzi-clip-11)" d="M 58 37 L 104 10 L 229 28 L 295 25 L 357 10 L 574 -65 L 728 -101 L 805 -93 L 970 -62" fill="none" id="make-me-a-hanzi-animation-11" stroke-dasharray="1071 2142" stroke-linecap="round" />
    
  </g>
</svg>