<svg version="1.1" viewBox="0 0 1024 1024" xmlns="http://www.w3.org/2000/svg">
  <g stroke="lightgray" stroke-dasharray="1,1" stroke-width="1" transform="scale(4, 4)">
    <line x1="0" y1="0" x2="256" y2="256"></line>
    <line x1="256" y1="0" x2="0" y2="256"></line>
    <line x1="128" y1="0" x2="128" y2="256"></line>
    <line x1="0" y1="128" x2="256" y2="128"></line>
  </g>
  <g transform="scale(0.92, -0.92) translate(60, -830)">
    <style type="text/css">
      
        @keyframes keyframes0 {
          from {
            stroke: blue;
            stroke-dashoffset: 824;
            stroke-width: 128;
          }
          73% {
            animation-timing-function: step-end;
            stroke: blue;
            stroke-dashoffset: 0;
            stroke-width: 128;
          }
          to {
            stroke: black;
            stroke-width: 1024;
          }
        }
        #make-me-a-hanzi-animation-0 {
          animation: keyframes0 0.9205729166666666s both;
          animation-delay: 0s;
          animation-timing-function: linear;
        }
      
        @keyframes keyframes1 {
          from {
            stroke: blue;
            stroke-dashoffset: 1298;
            stroke-width: 128;
          }
          81% {
            animation-timing-function: step-end;
            stroke: blue;
            stroke-dashoffset: 0;
            stroke-width: 128;
          }
          to {
            stroke: black;
            stroke-width: 1024;
          }
        }
        #make-me-a-hanzi-animation-1 {
          animation: keyframes1 1.3063151041666667s both;
          animation-delay: 0.9205729166666666s;
          animation-timing-function: linear;
        }
      
        @keyframes keyframes2 {
          from {
            stroke: blue;
            stroke-dashoffset: 502;
            stroke-width: 128;
          }
          62% {
            animation-timing-function: step-end;
            stroke: blue;
            stroke-dashoffset: 0;
            stroke-width: 128;
          }
          to {
            stroke: black;
            stroke-width: 1024;
          }
        }
        #make-me-a-hanzi-animation-2 {
          animation: keyframes2 0.6585286458333334s both;
          animation-delay: 2.2268880208333335s;
          animation-timing-function: linear;
        }
      
        @keyframes keyframes3 {
          from {
            stroke: blue;
            stroke-dashoffset: 510;
            stroke-width: 128;
          }
          62% {
            animation-timing-function: step-end;
            stroke: blue;
            stroke-dashoffset: 0;
            stroke-width: 128;
          }
          to {
            stroke: black;
            stroke-width: 1024;
          }
        }
        #make-me-a-hanzi-animation-3 {
          animation: keyframes3 0.6650390625s both;
          animation-delay: 2.885416666666667s;
          animation-timing-function: linear;
        }
      
        @keyframes keyframes4 {
          from {
            stroke: blue;
            stroke-dashoffset: 566;
            stroke-width: 128;
          }
          65% {
            animation-timing-function: step-end;
            stroke: blue;
            stroke-dashoffset: 0;
            stroke-width: 128;
          }
          to {
            stroke: black;
            stroke-width: 1024;
          }
        }
        #make-me-a-hanzi-animation-4 {
          animation: keyframes4 0.7106119791666666s both;
          animation-delay: 3.550455729166667s;
          animation-timing-function: linear;
        }
      
        @keyframes keyframes5 {
          from {
            stroke: blue;
            stroke-dashoffset: 410;
            stroke-width: 128;
          }
          57% {
            animation-timing-function: step-end;
            stroke: blue;
            stroke-dashoffset: 0;
            stroke-width: 128;
          }
          to {
            stroke: black;
            stroke-width: 1024;
          }
        }
        #make-me-a-hanzi-animation-5 {
          animation: keyframes5 0.5836588541666666s both;
          animation-delay: 4.261067708333334s;
          animation-timing-function: linear;
        }
      
        @keyframes keyframes6 {
          from {
            stroke: blue;
            stroke-dashoffset: 490;
            stroke-width: 128;
          }
          61% {
            animation-timing-function: step-end;
            stroke: blue;
            stroke-dashoffset: 0;
            stroke-width: 128;
          }
          to {
            stroke: black;
            stroke-width: 1024;
          }
        }
        #make-me-a-hanzi-animation-6 {
          animation: keyframes6 0.6487630208333334s both;
          animation-delay: 4.844726562500001s;
          animation-timing-function: linear;
        }
      
        @keyframes keyframes7 {
          from {
            stroke: blue;
            stroke-dashoffset: 390;
            stroke-width: 128;
          }
          56% {
            animation-timing-function: step-end;
            stroke: blue;
            stroke-dashoffset: 0;
            stroke-width: 128;
          }
          to {
            stroke: black;
            stroke-width: 1024;
          }
        }
        #make-me-a-hanzi-animation-7 {
          animation: keyframes7 0.5673828125s both;
          animation-delay: 5.493489583333334s;
          animation-timing-function: linear;
        }
      
        @keyframes keyframes8 {
          from {
            stroke: blue;
            stroke-dashoffset: 403;
            stroke-width: 128;
          }
          57% {
            animation-timing-function: step-end;
            stroke: blue;
            stroke-dashoffset: 0;
            stroke-width: 128;
          }
          to {
            stroke: black;
            stroke-width: 1024;
          }
        }
        #make-me-a-hanzi-animation-8 {
          animation: keyframes8 0.5779622395833334s both;
          animation-delay: 6.060872395833334s;
          animation-timing-function: linear;
        }
      
        @keyframes keyframes9 {
          from {
            stroke: blue;
            stroke-dashoffset: 587;
            stroke-width: 128;
          }
          66% {
            animation-timing-function: step-end;
            stroke: blue;
            stroke-dashoffset: 0;
            stroke-width: 128;
          }
          to {
            stroke: black;
            stroke-width: 1024;
          }
        }
        #make-me-a-hanzi-animation-9 {
          animation: keyframes9 0.7277018229166666s both;
          animation-delay: 6.638834635416667s;
          animation-timing-function: linear;
        }
      
        @keyframes keyframes10 {
          from {
            stroke: blue;
            stroke-dashoffset: 420;
            stroke-width: 128;
          }
          58% {
            animation-timing-function: step-end;
            stroke: blue;
            stroke-dashoffset: 0;
            stroke-width: 128;
          }
          to {
            stroke: black;
            stroke-width: 1024;
          }
        }
        #make-me-a-hanzi-animation-10 {
          animation: keyframes10 0.591796875s both;
          animation-delay: 7.366536458333334s;
          animation-timing-function: linear;
        }
      
        @keyframes keyframes11 {
          from {
            stroke: blue;
            stroke-dashoffset: 1174;
            stroke-width: 128;
          }
          79% {
            animation-timing-function: step-end;
            stroke: blue;
            stroke-dashoffset: 0;
            stroke-width: 128;
          }
          to {
            stroke: black;
            stroke-width: 1024;
          }
        }
        #make-me-a-hanzi-animation-11 {
          animation: keyframes11 1.2054036458333333s both;
          animation-delay: 7.958333333333334s;
          animation-timing-function: linear;
        }
      
    </style>
    
      <path d="M 456 626 L 425 638 Q 410 644 401 639 Q 392 634 392 630 Q 392 626 400 612 Q 408 598 411 583 Q 414 552 415 528 L 415 446 Q 409 322 407 296 L 393 216 Q 390 199 382 169 L 358 99 Q 355 90 357 86 Q 360 82 370 92 L 386 111 Q 398 126 418 163 Q 438 199 443 227 Q 449 255 456 296 Q 461 349 472 590 C 473 619 473 619 456 626 Z" fill="lightgray"></path>
    
      <path d="M 596 613 L 746 627 Q 772 630 777 614 Q 779 608 779 494 Q 779 380 773 168 Q 769 102 755 98 Q 748 93 742 94 L 716 100 L 695 108 L 678 111 Q 674 112 672 108 Q 670 103 676 99 L 693 85 L 708 69 Q 727 49 736 41 Q 745 32 752 19 Q 761 6 767 5 Q 779 3 801 30 Q 834 69 830 147 L 830 434 Q 830 506 831 521 L 832 556 Q 835 593 847 616 Q 861 636 840 651 Q 790 685 779 685 Q 769 684 751 678 Q 734 671 698 661 Q 620 646 585 642 L 456 626 C 426 622 442 585 472 590 L 496 594 Q 501 594 554 606 L 573 610 L 584 611 L 596 613 Z" fill="lightgray"></path>
    
      <path d="M 642 476 L 717 488 Q 735 490 737 491 Q 740 492 746 497 Q 752 502 752 504 L 751 509 Q 747 514 733 517 L 702 525 L 686 525 L 644 515 L 591 505 L 503 490 Q 493 489 493 486 Q 491 482 497 477 Q 503 471 523 466 Q 544 460 563 465 L 592 469 L 642 476 Z" fill="lightgray"></path>
    
      <path d="M 689 421 L 638 408 L 594 401 L 500 387 Q 479 385 493 370 Q 512 353 586 365 L 597 367 L 636 372 L 730 386 Q 747 388 753 393 Q 759 398 757 402 Q 757 411 725 416 Q 694 421 689 421 Z" fill="lightgray"></path>
    
      <path d="M 638 408 L 642 476 L 644 515 Q 646 556 651 571 Q 657 584 656 590 Q 655 595 646 600 Q 638 604 631 605 L 596 613 C 588 615 588 615 584 611 L 576 602 Q 574 601 581 582 Q 589 562 590 545 Q 591 528 591 505 L 592 469 L 594 401 L 597 367 Q 599 343 604 322 Q 613 300 614 299 C 617 292 617 292 621 300 Q 630 316 636 372 L 638 408 Z" fill="lightgray"></path>
    
      <path d="M 566 192 L 562 266 C 561 284 561 284 550 286 L 522 292 Q 501 294 497 291 Q 489 283 502 275 Q 515 266 523 238 L 533 175 Q 536 157 543 150 Q 549 140 556 142 Q 564 143 567 161 L 566 192 Z" fill="lightgray"></path>
    
      <path d="M 562 266 L 640 280 Q 658 285 664 279 Q 671 272 666 238 L 660 202 C 655 172 688 164 697 192 L 711 234 Q 712 244 717 252 L 732 273 Q 739 281 738 285 Q 737 288 729 293 L 711 306 L 695 314 Q 684 320 671 319 Q 652 311 621 300 L 614 299 L 550 286 C 521 280 532 261 562 266 Z" fill="lightgray"></path>
    
      <path d="M 660 202 L 566 192 C 536 189 537 159 567 161 L 687 170 L 701 170 Q 707 171 709 176 Q 710 182 697 192 C 682 204 682 204 660 202 Z" fill="lightgray"></path>
    
      <path d="M 306 570 L 304 588 Q 294 613 275 620 L 251 630 Q 249 629 244 631 L 233 635 L 191 646 L 173 649 Q 168 650 166 648 Q 158 649 166 636 L 178 618 L 235 552 L 252 536 Q 284 509 302 551 Q 306 563 306 570 Z" fill="lightgray"></path>
    
      <path d="M 224 260 Q 224 262 229 271 L 239 285 L 296 351 L 316 367 Q 326 376 328 382 Q 330 387 319 398 Q 314 403 295 415 Q 275 425 272 428 Q 257 433 255 433 L 202 406 L 160 389 L 127 378 L 94 370 Q 90 369 89 365 Q 89 361 110 350 Q 145 345 157 348 L 184 355 Q 204 360 216 365 Q 237 374 231 354 L 198 275 Q 196 270 196 262 Q 192 257 204 242 C 211 232 212 233 224 260 Z" fill="lightgray"></path>
    
      <path d="M 246 124 L 240 101 C 232 72 249 74 264 100 L 273 115 L 283 137 Q 296 171 280 207 Q 271 222 254 236 L 234 251 Q 225 258 224 260 C 203 282 183 263 204 242 Q 215 232 223 216 L 239 186 Q 249 160 246 132 L 246 124 Z" fill="lightgray"></path>
    
      <path d="M 240 101 L 157 98 Q 126 96 124 97 L 98 100 Q 69 105 68 104 Q 56 102 59 92 L 60 86 L 69 71 Q 73 63 82 54 L 99 40 Q 106 35 111 35 Q 116 34 130 40 Q 145 46 155 49 Q 200 58 250 58 Q 270 56 302 50 Q 335 43 396 14 L 484 -26 L 571 -69 L 668 -115 Q 696 -129 723 -129 Q 750 -129 810 -108 L 883 -84 Q 912 -75 925 -70 L 952 -58 Q 963 -51 962 -45 Q 961 -38 948 -38 L 898 -33 L 857 -32 L 758 -26 Q 609 -20 466 35 Q 412 56 338 83 Q 286 100 264 100 L 240 101 Z" fill="lightgray"></path>
    
    
      <clipPath id="make-me-a-hanzi-clip-0">
        <path d="M 456 626 L 425 638 Q 410 644 401 639 Q 392 634 392 630 Q 392 626 400 612 Q 408 598 411 583 Q 414 552 415 528 L 415 446 Q 409 322 407 296 L 393 216 Q 390 199 382 169 L 358 99 Q 355 90 357 86 Q 360 82 370 92 L 386 111 Q 398 126 418 163 Q 438 199 443 227 Q 449 255 456 296 Q 461 349 472 590 C 473 619 473 619 456 626 Z"></path>
      </clipPath>
      <path clip-path="url(#make-me-a-hanzi-clip-0)" d="M 402 629 L 435 604 L 442 584 L 432 292 L 410 192 L 362 92" fill="none" id="make-me-a-hanzi-animation-0" stroke-dasharray="696 1392" stroke-linecap="round"></path>
    
      <clipPath id="make-me-a-hanzi-clip-1">
        <path d="M 596 613 L 746 627 Q 772 630 777 614 Q 779 608 779 494 Q 779 380 773 168 Q 769 102 755 98 Q 748 93 742 94 L 716 100 L 695 108 L 678 111 Q 674 112 672 108 Q 670 103 676 99 L 693 85 L 708 69 Q 727 49 736 41 Q 745 32 752 19 Q 761 6 767 5 Q 779 3 801 30 Q 834 69 830 147 L 830 434 Q 830 506 831 521 L 832 556 Q 835 593 847 616 Q 861 636 840 651 Q 790 685 779 685 Q 769 684 751 678 Q 734 671 698 661 Q 620 646 585 642 L 456 626 C 426 622 442 585 472 590 L 496 594 Q 501 594 554 606 L 573 610 L 584 611 L 596 613 Z"></path>
      </clipPath>
      <path clip-path="url(#make-me-a-hanzi-clip-1)" d="M 464 622 L 487 611 L 767 655 L 786 650 L 811 628 L 803 507 L 804 283 L 797 106 L 784 73 L 770 61 L 741 69 L 677 105" fill="none" id="make-me-a-hanzi-animation-1" stroke-dasharray="1170 2340" stroke-linecap="round"></path>
    
      <clipPath id="make-me-a-hanzi-clip-2">
        <path d="M 642 476 L 717 488 Q 735 490 737 491 Q 740 492 746 497 Q 752 502 752 504 L 751 509 Q 747 514 733 517 L 702 525 L 686 525 L 644 515 L 591 505 L 503 490 Q 493 489 493 486 Q 491 482 497 477 Q 503 471 523 466 Q 544 460 563 465 L 592 469 L 642 476 Z"></path>
      </clipPath>
      <path clip-path="url(#make-me-a-hanzi-clip-2)" d="M 500 484 L 533 479 L 684 504 L 744 505" fill="none" id="make-me-a-hanzi-animation-2" stroke-dasharray="374 748" stroke-linecap="round"></path>
    
      <clipPath id="make-me-a-hanzi-clip-3">
        <path d="M 689 421 L 638 408 L 594 401 L 500 387 Q 479 385 493 370 Q 512 353 586 365 L 597 367 L 636 372 L 730 386 Q 747 388 753 393 Q 759 398 757 402 Q 757 411 725 416 Q 694 421 689 421 Z"></path>
      </clipPath>
      <path clip-path="url(#make-me-a-hanzi-clip-3)" d="M 496 379 L 552 376 L 688 400 L 748 400" fill="none" id="make-me-a-hanzi-animation-3" stroke-dasharray="382 764" stroke-linecap="round"></path>
    
      <clipPath id="make-me-a-hanzi-clip-4">
        <path d="M 638 408 L 642 476 L 644 515 Q 646 556 651 571 Q 657 584 656 590 Q 655 595 646 600 Q 638 604 631 605 L 596 613 C 588 615 588 615 584 611 L 576 602 Q 574 601 581 582 Q 589 562 590 545 Q 591 528 591 505 L 592 469 L 594 401 L 597 367 Q 599 343 604 322 Q 613 300 614 299 C 617 292 617 292 621 300 Q 630 316 636 372 L 638 408 Z"></path>
      </clipPath>
      <path clip-path="url(#make-me-a-hanzi-clip-4)" d="M 588 600 L 618 575 L 617 304" fill="none" id="make-me-a-hanzi-animation-4" stroke-dasharray="438 876" stroke-linecap="round"></path>
    
      <clipPath id="make-me-a-hanzi-clip-5">
        <path d="M 566 192 L 562 266 C 561 284 561 284 550 286 L 522 292 Q 501 294 497 291 Q 489 283 502 275 Q 515 266 523 238 L 533 175 Q 536 157 543 150 Q 549 140 556 142 Q 564 143 567 161 L 566 192 Z"></path>
      </clipPath>
      <path clip-path="url(#make-me-a-hanzi-clip-5)" d="M 503 285 L 526 275 L 540 259 L 553 152" fill="none" id="make-me-a-hanzi-animation-5" stroke-dasharray="282 564" stroke-linecap="round"></path>
    
      <clipPath id="make-me-a-hanzi-clip-6">
        <path d="M 562 266 L 640 280 Q 658 285 664 279 Q 671 272 666 238 L 660 202 C 655 172 688 164 697 192 L 711 234 Q 712 244 717 252 L 732 273 Q 739 281 738 285 Q 737 288 729 293 L 711 306 L 695 314 Q 684 320 671 319 Q 652 311 621 300 L 614 299 L 550 286 C 521 280 532 261 562 266 Z"></path>
      </clipPath>
      <path clip-path="url(#make-me-a-hanzi-clip-6)" d="M 557 284 L 568 277 L 660 298 L 681 295 L 698 278 L 684 216 L 693 201" fill="none" id="make-me-a-hanzi-animation-6" stroke-dasharray="362 724" stroke-linecap="round"></path>
    
      <clipPath id="make-me-a-hanzi-clip-7">
        <path d="M 660 202 L 566 192 C 536 189 537 159 567 161 L 687 170 L 701 170 Q 707 171 709 176 Q 710 182 697 192 C 682 204 682 204 660 202 Z"></path>
      </clipPath>
      <path clip-path="url(#make-me-a-hanzi-clip-7)" d="M 574 169 L 582 178 L 638 184 L 688 183 L 702 177" fill="none" id="make-me-a-hanzi-animation-7" stroke-dasharray="262 524" stroke-linecap="round"></path>
    
      <clipPath id="make-me-a-hanzi-clip-8">
        <path d="M 306 570 L 304 588 Q 294 613 275 620 L 251 630 Q 249 629 244 631 L 233 635 L 191 646 L 173 649 Q 168 650 166 648 Q 158 649 166 636 L 178 618 L 235 552 L 252 536 Q 284 509 302 551 Q 306 563 306 570 Z"></path>
      </clipPath>
      <path clip-path="url(#make-me-a-hanzi-clip-8)" d="M 170 642 L 255 588 L 269 570 L 275 547" fill="none" id="make-me-a-hanzi-animation-8" stroke-dasharray="275 550" stroke-linecap="round"></path>
    
      <clipPath id="make-me-a-hanzi-clip-9">
        <path d="M 224 260 Q 224 262 229 271 L 239 285 L 296 351 L 316 367 Q 326 376 328 382 Q 330 387 319 398 Q 314 403 295 415 Q 275 425 272 428 Q 257 433 255 433 L 202 406 L 160 389 L 127 378 L 94 370 Q 90 369 89 365 Q 89 361 110 350 Q 145 345 157 348 L 184 355 Q 204 360 216 365 Q 237 374 231 354 L 198 275 Q 196 270 196 262 Q 192 257 204 242 C 211 232 212 233 224 260 Z"></path>
      </clipPath>
      <path clip-path="url(#make-me-a-hanzi-clip-9)" d="M 94 365 L 106 361 L 150 366 L 234 393 L 258 392 L 269 383 L 260 353 L 205 251" fill="none" id="make-me-a-hanzi-animation-9" stroke-dasharray="459 918" stroke-linecap="round"></path>
    
      <clipPath id="make-me-a-hanzi-clip-10">
        <path d="M 246 124 L 240 101 C 232 72 249 74 264 100 L 273 115 L 283 137 Q 296 171 280 207 Q 271 222 254 236 L 234 251 Q 225 258 224 260 C 203 282 183 263 204 242 Q 215 232 223 216 L 239 186 Q 249 160 246 132 L 246 124 Z"></path>
      </clipPath>
      <path clip-path="url(#make-me-a-hanzi-clip-10)" d="M 212 243 L 239 226 L 265 181 L 262 127 L 246 106" fill="none" id="make-me-a-hanzi-animation-10" stroke-dasharray="292 584" stroke-linecap="round"></path>
    
      <clipPath id="make-me-a-hanzi-clip-11">
        <path d="M 240 101 L 157 98 Q 126 96 124 97 L 98 100 Q 69 105 68 104 Q 56 102 59 92 L 60 86 L 69 71 Q 73 63 82 54 L 99 40 Q 106 35 111 35 Q 116 34 130 40 Q 145 46 155 49 Q 200 58 250 58 Q 270 56 302 50 Q 335 43 396 14 L 484 -26 L 571 -69 L 668 -115 Q 696 -129 723 -129 Q 750 -129 810 -108 L 883 -84 Q 912 -75 925 -70 L 952 -58 Q 963 -51 962 -45 Q 961 -38 948 -38 L 898 -33 L 857 -32 L 758 -26 Q 609 -20 466 35 Q 412 56 338 83 Q 286 100 264 100 L 240 101 Z"></path>
      </clipPath>
      <path clip-path="url(#make-me-a-hanzi-clip-11)" d="M 71 92 L 115 67 L 234 80 L 304 72 L 593 -41 L 715 -76 L 852 -63 L 953 -46" fill="none" id="make-me-a-hanzi-animation-11" stroke-dasharray="1046 2092" stroke-linecap="round"></path>
    
  </g>
</svg>