<svg xmlns="http://www.w3.org/2000/svg" version="1.1" viewBox="0 0 1024 1024">
  <g stroke="lightgray" stroke-dasharray="1,1" stroke-width="1" transform="scale(4, 4)">
    <line x1="0" y1="0" x2="256" y2="256" />
    <line x1="256" y1="0" x2="0" y2="256" />
    <line x1="128" y1="0" x2="128" y2="256" />
    <line x1="0" y1="128" x2="256" y2="128" />
  </g>
  <g transform="scale(1.0, -1.0) translate(0.0, -829.50)">
    <style type="text/css">
      
        @keyframes keyframes0 {
          from {
            stroke: blue;
            stroke-dashoffset: 621;
            stroke-width: 128;
          }
          67% {
            animation-timing-function: step-end;
            stroke: blue;
            stroke-dashoffset: 0;
            stroke-width: 128;
          }
          to {
            stroke: black;
            stroke-width: 1024;
          }
        }
        #make-me-a-hanzi-animation-0 {
          animation: keyframes0 0.75537109375s both;
          animation-delay: 0s;
          animation-timing-function: linear;
        }
      
        @keyframes keyframes1 {
          from {
            stroke: blue;
            stroke-dashoffset: 820;
            stroke-width: 128;
          }
          73% {
            animation-timing-function: step-end;
            stroke: blue;
            stroke-dashoffset: 0;
            stroke-width: 128;
          }
          to {
            stroke: black;
            stroke-width: 1024;
          }
        }
        #make-me-a-hanzi-animation-1 {
          animation: keyframes1 0.9173177083333334s both;
          animation-delay: 0.75537109375s;
          animation-timing-function: linear;
        }
      
        @keyframes keyframes2 {
          from {
            stroke: blue;
            stroke-dashoffset: 461;
            stroke-width: 128;
          }
          60% {
            animation-timing-function: step-end;
            stroke: blue;
            stroke-dashoffset: 0;
            stroke-width: 128;
          }
          to {
            stroke: black;
            stroke-width: 1024;
          }
        }
        #make-me-a-hanzi-animation-2 {
          animation: keyframes2 0.6251627604166666s both;
          animation-delay: 1.6726888020833335s;
          animation-timing-function: linear;
        }
      
        @keyframes keyframes3 {
          from {
            stroke: blue;
            stroke-dashoffset: 323;
            stroke-width: 128;
          }
          51% {
            animation-timing-function: step-end;
            stroke: blue;
            stroke-dashoffset: 0;
            stroke-width: 128;
          }
          to {
            stroke: black;
            stroke-width: 1024;
          }
        }
        #make-me-a-hanzi-animation-3 {
          animation: keyframes3 0.5128580729166666s both;
          animation-delay: 2.2978515625s;
          animation-timing-function: linear;
        }
      
        @keyframes keyframes4 {
          from {
            stroke: blue;
            stroke-dashoffset: 572;
            stroke-width: 128;
          }
          65% {
            animation-timing-function: step-end;
            stroke: blue;
            stroke-dashoffset: 0;
            stroke-width: 128;
          }
          to {
            stroke: black;
            stroke-width: 1024;
          }
        }
        #make-me-a-hanzi-animation-4 {
          animation: keyframes4 0.7154947916666666s both;
          animation-delay: 2.8107096354166665s;
          animation-timing-function: linear;
        }
      
        @keyframes keyframes5 {
          from {
            stroke: blue;
            stroke-dashoffset: 590;
            stroke-width: 128;
          }
          66% {
            animation-timing-function: step-end;
            stroke: blue;
            stroke-dashoffset: 0;
            stroke-width: 128;
          }
          to {
            stroke: black;
            stroke-width: 1024;
          }
        }
        #make-me-a-hanzi-animation-5 {
          animation: keyframes5 0.7301432291666666s both;
          animation-delay: 3.526204427083333s;
          animation-timing-function: linear;
        }
      
        @keyframes keyframes6 {
          from {
            stroke: blue;
            stroke-dashoffset: 856;
            stroke-width: 128;
          }
          74% {
            animation-timing-function: step-end;
            stroke: blue;
            stroke-dashoffset: 0;
            stroke-width: 128;
          }
          to {
            stroke: black;
            stroke-width: 1024;
          }
        }
        #make-me-a-hanzi-animation-6 {
          animation: keyframes6 0.9466145833333334s both;
          animation-delay: 4.25634765625s;
          animation-timing-function: linear;
        }
      
        @keyframes keyframes7 {
          from {
            stroke: blue;
            stroke-dashoffset: 376;
            stroke-width: 128;
          }
          55% {
            animation-timing-function: step-end;
            stroke: blue;
            stroke-dashoffset: 0;
            stroke-width: 128;
          }
          to {
            stroke: black;
            stroke-width: 1024;
          }
        }
        #make-me-a-hanzi-animation-7 {
          animation: keyframes7 0.5559895833333334s both;
          animation-delay: 5.202962239583333s;
          animation-timing-function: linear;
        }
      
        @keyframes keyframes8 {
          from {
            stroke: blue;
            stroke-dashoffset: 449;
            stroke-width: 128;
          }
          59% {
            animation-timing-function: step-end;
            stroke: blue;
            stroke-dashoffset: 0;
            stroke-width: 128;
          }
          to {
            stroke: black;
            stroke-width: 1024;
          }
        }
        #make-me-a-hanzi-animation-8 {
          animation: keyframes8 0.6153971354166666s both;
          animation-delay: 5.758951822916666s;
          animation-timing-function: linear;
        }
      
        @keyframes keyframes9 {
          from {
            stroke: blue;
            stroke-dashoffset: 409;
            stroke-width: 128;
          }
          57% {
            animation-timing-function: step-end;
            stroke: blue;
            stroke-dashoffset: 0;
            stroke-width: 128;
          }
          to {
            stroke: black;
            stroke-width: 1024;
          }
        }
        #make-me-a-hanzi-animation-9 {
          animation: keyframes9 0.5828450520833334s both;
          animation-delay: 6.374348958333333s;
          animation-timing-function: linear;
        }
      
        @keyframes keyframes10 {
          from {
            stroke: blue;
            stroke-dashoffset: 625;
            stroke-width: 128;
          }
          67% {
            animation-timing-function: step-end;
            stroke: blue;
            stroke-dashoffset: 0;
            stroke-width: 128;
          }
          to {
            stroke: black;
            stroke-width: 1024;
          }
        }
        #make-me-a-hanzi-animation-10 {
          animation: keyframes10 0.7586263020833334s both;
          animation-delay: 6.957194010416666s;
          animation-timing-function: linear;
        }
      
        @keyframes keyframes11 {
          from {
            stroke: blue;
            stroke-dashoffset: 412;
            stroke-width: 128;
          }
          57% {
            animation-timing-function: step-end;
            stroke: blue;
            stroke-dashoffset: 0;
            stroke-width: 128;
          }
          to {
            stroke: black;
            stroke-width: 1024;
          }
        }
        #make-me-a-hanzi-animation-11 {
          animation: keyframes11 0.5852864583333334s both;
          animation-delay: 7.715820312499999s;
          animation-timing-function: linear;
        }
      
        @keyframes keyframes12 {
          from {
            stroke: blue;
            stroke-dashoffset: 1202;
            stroke-width: 128;
          }
          80% {
            animation-timing-function: step-end;
            stroke: blue;
            stroke-dashoffset: 0;
            stroke-width: 128;
          }
          to {
            stroke: black;
            stroke-width: 1024;
          }
        }
        #make-me-a-hanzi-animation-12 {
          animation: keyframes12 1.2281901041666667s both;
          animation-delay: 8.301106770833332s;
          animation-timing-function: linear;
        }
      
    </style>
    
      <path d="M 562 601 Q 643 614 727 626 Q 779 634 785 640 Q 791 646 791 651 Q 791 653 790 655 Q 783 668 758 674 Q 746 677 734 677 Q 718 677 703 672 Q 644 654 583 644 L 523 635 Q 479 630 434 627 L 429 627 Q 414 627 414 621 Q 414 617 424 608 Q 438 596 457 593 Q 468 591 482 591 Q 493 591 506 592 L 562 601 Z" fill="lightgray" />
    
      <path d="M 293 289 Q 287 284 287 278 Q 289 274 292 274 L 293 274 Q 302 275 309 281 Q 372 327 400 360 Q 444 408 480 462 Q 503 497 521 528 L 529 542 L 562 601 L 583 644 Q 598 670 608 685 Q 610 690 610 695 Q 610 702 606 709 Q 588 736 573 745 Q 559 754 544 754 Q 533 753 533 744 Q 533 740 535 735 Q 537 728 540 722 Q 541 717 541 710 Q 541 695 535 672 Q 529 651 523 635 L 506 592 Q 503 582 500 576 Q 473 522 427 455 Q 368 370 293 289 Z" fill="lightgray" />
    
      <path d="M 521 528 Q 524 526 527 523 Q 541 514 559 511 Q 565 510 572 510 Q 582 510 595 512 L 630 518 Q 670 527 709 534 Q 732 539 735 542 Q 740 548 740 552 Q 740 554 739 556 Q 731 566 707 572 Q 698 574 689 574 Q 672 574 656 567 Q 629 558 602 552 Q 571 545 535 542 L 529 542 C 504 542 504 542 521 528 Z" fill="lightgray" />
    
      <path d="M 595 512 Q 596 510 596 509 L 596 449 C 596 419 629 425 633 455 Q 635 469 638 481 Q 640 486 640 487 Q 642 494 642 499 Q 642 504 640 507 Q 634 515 630 518 C 607 538 585 540 595 512 Z" fill="lightgray" />
    
      <path d="M 596 449 Q 572 445 551 442 Q 518 437 484 434 Q 470 433 470 427 Q 470 423 478 417 Q 488 408 500 401 Q 508 398 517 398 Q 523 398 530 399 Q 604 413 700 425 Q 747 431 784 434 Q 800 436 800 445 L 800 446 Q 800 455 783 464 Q 776 468 764 472 Q 755 475 745 475 Q 739 475 732 474 Q 690 463 648 457 Q 639 455 633 455 L 596 449 Z" fill="lightgray" />
    
      <path d="M 536 360 Q 523 372 507 379 Q 497 383 490 383 Q 486 383 482 381 Q 475 377 475 372 Q 475 369 477 366 Q 481 362 484 356 Q 487 351 487 342 L 487 314 Q 487 276 484 245 Q 479 212 472 185 Q 460 147 445 117 Q 436 99 427 83 Q 422 76 421 72 L 421 70 Q 421 66 425 66 L 427 66 Q 435 68 447 80 L 460 93 Q 482 115 497 148 Q 502 161 508 173 L 515 195 Q 518 203 521 212 Q 530 247 534 280 L 537 300 Q 539 310 540 316 Q 542 325 543 331 Q 545 334 545 337 C 548 350 548 350 536 360 Z" fill="lightgray" />
    
      <path d="M 751 284 L 751 289 Q 751 319 762 342 Q 765 349 765 355 Q 765 364 759 369 Q 742 383 708 395 Q 701 397 693 397 Q 682 397 672 393 Q 658 387 634 381 Q 564 363 536 360 C 506 356 515 335 545 337 Q 560 337 581 341 Q 645 352 669 352 Q 679 352 683 350 Q 694 343 695 319 Q 702 267 703 219 L 704 204 Q 705 153 705 108 Q 703 89 694 86 L 689 86 Q 673 86 625 99 L 621 99 Q 614 99 614 94 Q 616 88 629 78 Q 667 47 694 17 Q 709 3 723 3 L 725 3 Q 738 5 753 41 Q 767 73 767 104 L 767 115 Q 758 203 751 284 Z" fill="lightgray" />
    
      <path d="M 647 237 L 650 237 Q 658 237 663 242 Q 665 245 665 250 Q 665 258 657 270 Q 648 282 642 285 Q 629 292 610 295 Q 582 300 537 300 C 507 300 507 293 534 280 Q 611 244 647 237 Z" fill="lightgray" />
    
      <path d="M 508 173 L 508 172 Q 525 157 547 142 Q 550 141 553 141 Q 558 141 563 143 Q 585 159 609 166 Q 646 180 682 192 Q 697 198 704 204 C 728 222 732 224 703 219 Q 632 206 545 194 Q 541 193 535 193 Q 527 193 516 195 L 515 195 C 485 199 488 195 508 173 Z" fill="lightgray" />
    
      <path d="M 156 662 L 156 661 Q 156 654 167 642 Q 231 571 264 550 Q 271 545 278 545 Q 283 545 287 548 Q 297 554 297 572 Q 297 580 295 590 Q 289 610 282 617 Q 271 629 252 638 Q 224 654 173 667 L 167 667 Q 158 667 156 662 Z" fill="lightgray" />
    
      <path d="M 174 277 Q 174 252 186 231 C 199 204 219 244 223 274 Q 223 295 248 335 Q 274 375 292 394 Q 304 405 304 414 Q 304 422 295 429 Q 274 446 241 462 Q 233 466 225 466 Q 212 466 201 456 Q 174 434 141 419 Q 94 399 79 399 Q 70 399 70 395 Q 70 388 77 385 Q 94 379 112 379 Q 120 379 128 380 Q 156 386 192 402 L 196 402 Q 203 402 208 397 Q 219 385 219 372 Q 219 357 204 342 Q 175 313 174 277 Z" fill="lightgray" />
    
      <path d="M 186 231 Q 206 195 213 177 Q 224 154 225 139 Q 226 126 226 119 C 227 89 240 92 257 117 Q 263 125 266 135 Q 268 144 268 153 Q 268 167 263 181 Q 256 199 232 235 Q 223 250 223 274 C 222 304 171 257 186 231 Z" fill="lightgray" />
    
      <path d="M 226 119 Q 182 114 151 99 Q 113 81 83 77 Q 61 72 58 66 L 58 64 Q 58 54 85 35 Q 101 25 114 25 Q 123 25 130 30 Q 205 79 244 80 Q 276 78 333 57 Q 405 29 532 -34 Q 612 -74 693 -101 Q 747 -119 759 -119 Q 783 -118 820 -103 Q 894 -73 945 -49 Q 973 -37 973 -31 Q 973 -27 950 -27 L 940 -27 Q 915 -28 889 -28 Q 812 -28 728 -17 Q 634 -8 580 5 Q 504 25 396 70 Q 302 110 257 117 L 226 119 Z" fill="lightgray" />
    
    
      <clipPath id="make-me-a-hanzi-clip-0">
        <path d="M 562 601 Q 643 614 727 626 Q 779 634 785 640 Q 791 646 791 651 Q 791 653 790 655 Q 783 668 758 674 Q 746 677 734 677 Q 718 677 703 672 Q 644 654 583 644 L 523 635 Q 479 630 434 627 L 429 627 Q 414 627 414 621 Q 414 617 424 608 Q 438 596 457 593 Q 468 591 482 591 Q 493 591 506 592 L 562 601 Z" />
      </clipPath>
      <path clip-path="url(#make-me-a-hanzi-clip-0)" d="M 419 620 L 465 610 L 524 614 L 728 652 L 779 650" fill="none" id="make-me-a-hanzi-animation-0" stroke-dasharray="493 986" stroke-linecap="round" />
    
      <clipPath id="make-me-a-hanzi-clip-1">
        <path d="M 293 289 Q 287 284 287 278 Q 289 274 292 274 L 293 274 Q 302 275 309 281 Q 372 327 400 360 Q 444 408 480 462 Q 503 497 521 528 L 529 542 L 562 601 L 583 644 Q 598 670 608 685 Q 610 690 610 695 Q 610 702 606 709 Q 588 736 573 745 Q 559 754 544 754 Q 533 753 533 744 Q 533 740 535 735 Q 537 728 540 722 Q 541 717 541 710 Q 541 695 535 672 Q 529 651 523 635 L 506 592 Q 503 582 500 576 Q 473 522 427 455 Q 368 370 293 289 Z" />
      </clipPath>
      <path clip-path="url(#make-me-a-hanzi-clip-1)" d="M 545 742 L 558 732 L 574 696 L 521 570 L 485 506 L 419 410 L 349 329 L 293 280" fill="none" id="make-me-a-hanzi-animation-1" stroke-dasharray="692 1384" stroke-linecap="round" />
    
      <clipPath id="make-me-a-hanzi-clip-2">
        <path d="M 521 528 Q 524 526 527 523 Q 541 514 559 511 Q 565 510 572 510 Q 582 510 595 512 L 630 518 Q 670 527 709 534 Q 732 539 735 542 Q 740 548 740 552 Q 740 554 739 556 Q 731 566 707 572 Q 698 574 689 574 Q 672 574 656 567 Q 629 558 602 552 Q 571 545 535 542 L 529 542 C 504 542 504 542 521 528 Z" />
      </clipPath>
      <path clip-path="url(#make-me-a-hanzi-clip-2)" d="M 527 529 L 577 528 L 677 551 L 729 551" fill="none" id="make-me-a-hanzi-animation-2" stroke-dasharray="333 666" stroke-linecap="round" />
    
      <clipPath id="make-me-a-hanzi-clip-3">
        <path d="M 595 512 Q 596 510 596 509 L 596 449 C 596 419 629 425 633 455 Q 635 469 638 481 Q 640 486 640 487 Q 642 494 642 499 Q 642 504 640 507 Q 634 515 630 518 C 607 538 585 540 595 512 Z" />
      </clipPath>
      <path clip-path="url(#make-me-a-hanzi-clip-3)" d="M 601 512 L 618 491 L 612 467 L 601 457" fill="none" id="make-me-a-hanzi-animation-3" stroke-dasharray="195 390" stroke-linecap="round" />
    
      <clipPath id="make-me-a-hanzi-clip-4">
        <path d="M 596 449 Q 572 445 551 442 Q 518 437 484 434 Q 470 433 470 427 Q 470 423 478 417 Q 488 408 500 401 Q 508 398 517 398 Q 523 398 530 399 Q 604 413 700 425 Q 747 431 784 434 Q 800 436 800 445 L 800 446 Q 800 455 783 464 Q 776 468 764 472 Q 755 475 745 475 Q 739 475 732 474 Q 690 463 648 457 Q 639 455 633 455 L 596 449 Z" />
      </clipPath>
      <path clip-path="url(#make-me-a-hanzi-clip-4)" d="M 479 426 L 514 417 L 740 453 L 791 446" fill="none" id="make-me-a-hanzi-animation-4" stroke-dasharray="444 888" stroke-linecap="round" />
    
      <clipPath id="make-me-a-hanzi-clip-5">
        <path d="M 536 360 Q 523 372 507 379 Q 497 383 490 383 Q 486 383 482 381 Q 475 377 475 372 Q 475 369 477 366 Q 481 362 484 356 Q 487 351 487 342 L 487 314 Q 487 276 484 245 Q 479 212 472 185 Q 460 147 445 117 Q 436 99 427 83 Q 422 76 421 72 L 421 70 Q 421 66 425 66 L 427 66 Q 435 68 447 80 L 460 93 Q 482 115 497 148 Q 502 161 508 173 L 515 195 Q 518 203 521 212 Q 530 247 534 280 L 537 300 Q 539 310 540 316 Q 542 325 543 331 Q 545 334 545 337 C 548 350 548 350 536 360 Z" />
      </clipPath>
      <path clip-path="url(#make-me-a-hanzi-clip-5)" d="M 485 372 L 514 344 L 503 224 L 473 137 L 426 71" fill="none" id="make-me-a-hanzi-animation-5" stroke-dasharray="462 924" stroke-linecap="round" />
    
      <clipPath id="make-me-a-hanzi-clip-6">
        <path d="M 751 284 L 751 289 Q 751 319 762 342 Q 765 349 765 355 Q 765 364 759 369 Q 742 383 708 395 Q 701 397 693 397 Q 682 397 672 393 Q 658 387 634 381 Q 564 363 536 360 C 506 356 515 335 545 337 Q 560 337 581 341 Q 645 352 669 352 Q 679 352 683 350 Q 694 343 695 319 Q 702 267 703 219 L 704 204 Q 705 153 705 108 Q 703 89 694 86 L 689 86 Q 673 86 625 99 L 621 99 Q 614 99 614 94 Q 616 88 629 78 Q 667 47 694 17 Q 709 3 723 3 L 725 3 Q 738 5 753 41 Q 767 73 767 104 L 767 115 Q 758 203 751 284 Z" />
      </clipPath>
      <path clip-path="url(#make-me-a-hanzi-clip-6)" d="M 541 355 L 560 350 L 690 373 L 726 348 L 736 120 L 732 80 L 715 52 L 620 93" fill="none" id="make-me-a-hanzi-animation-6" stroke-dasharray="728 1456" stroke-linecap="round" />
    
      <clipPath id="make-me-a-hanzi-clip-7">
        <path d="M 647 237 L 650 237 Q 658 237 663 242 Q 665 245 665 250 Q 665 258 657 270 Q 648 282 642 285 Q 629 292 610 295 Q 582 300 537 300 C 507 300 507 293 534 280 Q 611 244 647 237 Z" />
      </clipPath>
      <path clip-path="url(#make-me-a-hanzi-clip-7)" d="M 546 294 L 550 286 L 632 265 L 653 249" fill="none" id="make-me-a-hanzi-animation-7" stroke-dasharray="248 496" stroke-linecap="round" />
    
      <clipPath id="make-me-a-hanzi-clip-8">
        <path d="M 508 173 L 508 172 Q 525 157 547 142 Q 550 141 553 141 Q 558 141 563 143 Q 585 159 609 166 Q 646 180 682 192 Q 697 198 704 204 C 728 222 732 224 703 219 Q 632 206 545 194 Q 541 193 535 193 Q 527 193 516 195 L 515 195 C 485 199 488 195 508 173 Z" />
      </clipPath>
      <path clip-path="url(#make-me-a-hanzi-clip-8)" d="M 516 189 L 526 178 L 555 169 L 697 211" fill="none" id="make-me-a-hanzi-animation-8" stroke-dasharray="321 642" stroke-linecap="round" />
    
      <clipPath id="make-me-a-hanzi-clip-9">
        <path d="M 156 662 L 156 661 Q 156 654 167 642 Q 231 571 264 550 Q 271 545 278 545 Q 283 545 287 548 Q 297 554 297 572 Q 297 580 295 590 Q 289 610 282 617 Q 271 629 252 638 Q 224 654 173 667 L 167 667 Q 158 667 156 662 Z" />
      </clipPath>
      <path clip-path="url(#make-me-a-hanzi-clip-9)" d="M 163 662 L 251 602 L 277 564" fill="none" id="make-me-a-hanzi-animation-9" stroke-dasharray="281 562" stroke-linecap="round" />
    
      <clipPath id="make-me-a-hanzi-clip-10">
        <path d="M 174 277 Q 174 252 186 231 C 199 204 219 244 223 274 Q 223 295 248 335 Q 274 375 292 394 Q 304 405 304 414 Q 304 422 295 429 Q 274 446 241 462 Q 233 466 225 466 Q 212 466 201 456 Q 174 434 141 419 Q 94 399 79 399 Q 70 399 70 395 Q 70 388 77 385 Q 94 379 112 379 Q 120 379 128 380 Q 156 386 192 402 L 196 402 Q 203 402 208 397 Q 219 385 219 372 Q 219 357 204 342 Q 175 313 174 277 Z" />
      </clipPath>
      <path clip-path="url(#make-me-a-hanzi-clip-10)" d="M 77 392 L 116 393 L 214 428 L 226 429 L 246 413 L 250 405 L 244 370 L 204 301 L 186 240" fill="none" id="make-me-a-hanzi-animation-10" stroke-dasharray="497 994" stroke-linecap="round" />
    
      <clipPath id="make-me-a-hanzi-clip-11">
        <path d="M 186 231 Q 206 195 213 177 Q 224 154 225 139 Q 226 126 226 119 C 227 89 240 92 257 117 Q 263 125 266 135 Q 268 144 268 153 Q 268 167 263 181 Q 256 199 232 235 Q 223 250 223 274 C 222 304 171 257 186 231 Z" />
      </clipPath>
      <path clip-path="url(#make-me-a-hanzi-clip-11)" d="M 221 266 L 212 228 L 245 158 L 246 138 L 234 123" fill="none" id="make-me-a-hanzi-animation-11" stroke-dasharray="284 568" stroke-linecap="round" />
    
      <clipPath id="make-me-a-hanzi-clip-12">
        <path d="M 226 119 Q 182 114 151 99 Q 113 81 83 77 Q 61 72 58 66 L 58 64 Q 58 54 85 35 Q 101 25 114 25 Q 123 25 130 30 Q 205 79 244 80 Q 276 78 333 57 Q 405 29 532 -34 Q 612 -74 693 -101 Q 747 -119 759 -119 Q 783 -118 820 -103 Q 894 -73 945 -49 Q 973 -37 973 -31 Q 973 -27 950 -27 L 940 -27 Q 915 -28 889 -28 Q 812 -28 728 -17 Q 634 -8 580 5 Q 504 25 396 70 Q 302 110 257 117 L 226 119 Z" />
      </clipPath>
      <path clip-path="url(#make-me-a-hanzi-clip-12)" d="M 65 65 L 114 54 L 205 94 L 258 98 L 363 66 L 580 -25 L 761 -70 L 831 -62 L 969 -32" fill="none" id="make-me-a-hanzi-animation-12" stroke-dasharray="1074 2148" stroke-linecap="round" />
    
  </g>
</svg>