<svg version="1.1" viewBox="0 0 1024 1024" xmlns="http://www.w3.org/2000/svg">
  <g stroke="lightgray" stroke-dasharray="1,1" stroke-width="1" transform="scale(4, 4)">
    <line x1="0" y1="0" x2="256" y2="256"></line>
    <line x1="256" y1="0" x2="0" y2="256"></line>
    <line x1="128" y1="0" x2="128" y2="256"></line>
    <line x1="0" y1="128" x2="256" y2="128"></line>
  </g>
  <g transform="scale(0.92, -0.92) translate(60, -830)">
    <style type="text/css">
      
        @keyframes keyframes0 {
          from {
            stroke: blue;
            stroke-dashoffset: 580;
            stroke-width: 128;
          }
          65% {
            animation-timing-function: step-end;
            stroke: blue;
            stroke-dashoffset: 0;
            stroke-width: 128;
          }
          to {
            stroke: black;
            stroke-width: 1024;
          }
        }
        #make-me-a-hanzi-animation-0 {
          animation: keyframes0 0.7220052083333334s both;
          animation-delay: 0s;
          animation-timing-function: linear;
        }
      
        @keyframes keyframes1 {
          from {
            stroke: blue;
            stroke-dashoffset: 809;
            stroke-width: 128;
          }
          72% {
            animation-timing-function: step-end;
            stroke: blue;
            stroke-dashoffset: 0;
            stroke-width: 128;
          }
          to {
            stroke: black;
            stroke-width: 1024;
          }
        }
        #make-me-a-hanzi-animation-1 {
          animation: keyframes1 0.9083658854166666s both;
          animation-delay: 0.7220052083333334s;
          animation-timing-function: linear;
        }
      
        @keyframes keyframes2 {
          from {
            stroke: blue;
            stroke-dashoffset: 645;
            stroke-width: 128;
          }
          68% {
            animation-timing-function: step-end;
            stroke: blue;
            stroke-dashoffset: 0;
            stroke-width: 128;
          }
          to {
            stroke: black;
            stroke-width: 1024;
          }
        }
        #make-me-a-hanzi-animation-2 {
          animation: keyframes2 0.77490234375s both;
          animation-delay: 1.63037109375s;
          animation-timing-function: linear;
        }
      
        @keyframes keyframes3 {
          from {
            stroke: blue;
            stroke-dashoffset: 536;
            stroke-width: 128;
          }
          64% {
            animation-timing-function: step-end;
            stroke: blue;
            stroke-dashoffset: 0;
            stroke-width: 128;
          }
          to {
            stroke: black;
            stroke-width: 1024;
          }
        }
        #make-me-a-hanzi-animation-3 {
          animation: keyframes3 0.6861979166666666s both;
          animation-delay: 2.4052734375s;
          animation-timing-function: linear;
        }
      
        @keyframes keyframes4 {
          from {
            stroke: blue;
            stroke-dashoffset: 585;
            stroke-width: 128;
          }
          66% {
            animation-timing-function: step-end;
            stroke: blue;
            stroke-dashoffset: 0;
            stroke-width: 128;
          }
          to {
            stroke: black;
            stroke-width: 1024;
          }
        }
        #make-me-a-hanzi-animation-4 {
          animation: keyframes4 0.72607421875s both;
          animation-delay: 3.0914713541666665s;
          animation-timing-function: linear;
        }
      
        @keyframes keyframes5 {
          from {
            stroke: blue;
            stroke-dashoffset: 834;
            stroke-width: 128;
          }
          73% {
            animation-timing-function: step-end;
            stroke: blue;
            stroke-dashoffset: 0;
            stroke-width: 128;
          }
          to {
            stroke: black;
            stroke-width: 1024;
          }
        }
        #make-me-a-hanzi-animation-5 {
          animation: keyframes5 0.9287109375s both;
          animation-delay: 3.8175455729166665s;
          animation-timing-function: linear;
        }
      
        @keyframes keyframes6 {
          from {
            stroke: blue;
            stroke-dashoffset: 451;
            stroke-width: 128;
          }
          59% {
            animation-timing-function: step-end;
            stroke: blue;
            stroke-dashoffset: 0;
            stroke-width: 128;
          }
          to {
            stroke: black;
            stroke-width: 1024;
          }
        }
        #make-me-a-hanzi-animation-6 {
          animation: keyframes6 0.6170247395833334s both;
          animation-delay: 4.746256510416666s;
          animation-timing-function: linear;
        }
      
        @keyframes keyframes7 {
          from {
            stroke: blue;
            stroke-dashoffset: 456;
            stroke-width: 128;
          }
          60% {
            animation-timing-function: step-end;
            stroke: blue;
            stroke-dashoffset: 0;
            stroke-width: 128;
          }
          to {
            stroke: black;
            stroke-width: 1024;
          }
        }
        #make-me-a-hanzi-animation-7 {
          animation: keyframes7 0.62109375s both;
          animation-delay: 5.363281249999999s;
          animation-timing-function: linear;
        }
      
        @keyframes keyframes8 {
          from {
            stroke: blue;
            stroke-dashoffset: 456;
            stroke-width: 128;
          }
          60% {
            animation-timing-function: step-end;
            stroke: blue;
            stroke-dashoffset: 0;
            stroke-width: 128;
          }
          to {
            stroke: black;
            stroke-width: 1024;
          }
        }
        #make-me-a-hanzi-animation-8 {
          animation: keyframes8 0.62109375s both;
          animation-delay: 5.984374999999999s;
          animation-timing-function: linear;
        }
      
        @keyframes keyframes9 {
          from {
            stroke: blue;
            stroke-dashoffset: 415;
            stroke-width: 128;
          }
          57% {
            animation-timing-function: step-end;
            stroke: blue;
            stroke-dashoffset: 0;
            stroke-width: 128;
          }
          to {
            stroke: black;
            stroke-width: 1024;
          }
        }
        #make-me-a-hanzi-animation-9 {
          animation: keyframes9 0.5877278645833334s both;
          animation-delay: 6.605468749999999s;
          animation-timing-function: linear;
        }
      
        @keyframes keyframes10 {
          from {
            stroke: blue;
            stroke-dashoffset: 561;
            stroke-width: 128;
          }
          65% {
            animation-timing-function: step-end;
            stroke: blue;
            stroke-dashoffset: 0;
            stroke-width: 128;
          }
          to {
            stroke: black;
            stroke-width: 1024;
          }
        }
        #make-me-a-hanzi-animation-10 {
          animation: keyframes10 0.70654296875s both;
          animation-delay: 7.193196614583332s;
          animation-timing-function: linear;
        }
      
        @keyframes keyframes11 {
          from {
            stroke: blue;
            stroke-dashoffset: 435;
            stroke-width: 128;
          }
          59% {
            animation-timing-function: step-end;
            stroke: blue;
            stroke-dashoffset: 0;
            stroke-width: 128;
          }
          to {
            stroke: black;
            stroke-width: 1024;
          }
        }
        #make-me-a-hanzi-animation-11 {
          animation: keyframes11 0.60400390625s both;
          animation-delay: 7.899739583333332s;
          animation-timing-function: linear;
        }
      
        @keyframes keyframes12 {
          from {
            stroke: blue;
            stroke-dashoffset: 1172;
            stroke-width: 128;
          }
          79% {
            animation-timing-function: step-end;
            stroke: blue;
            stroke-dashoffset: 0;
            stroke-width: 128;
          }
          to {
            stroke: black;
            stroke-width: 1024;
          }
        }
        #make-me-a-hanzi-animation-12 {
          animation: keyframes12 1.2037760416666667s both;
          animation-delay: 8.503743489583332s;
          animation-timing-function: linear;
        }
      
    </style>
    
      <path d="M 491 571 L 531 584 Q 567 594 583 600 Q 599 606 633 621 L 652 630 L 745 663 L 777 670 Q 789 673 791 678 L 791 680 Q 791 686 784 696 Q 775 708 766 715 Q 757 722 742 731 Q 727 740 720 740 Q 715 740 711 738 Q 706 736 696 722 Q 687 709 668 695 Q 649 681 609 658 Q 569 634 547 622 L 489 591 C 463 577 462 562 491 571 Z" fill="lightgray"></path>
    
      <path d="M 489 591 L 462 598 L 442 602 Q 433 603 427 603 L 423 603 Q 417 600 415 595 L 415 593 Q 415 587 423 574 Q 431 560 431 532 L 431 526 Q 430 497 426 456 Q 423 416 417 378 Q 411 340 399 293 Q 387 245 379 223 Q 371 200 354 160 Q 337 120 331 110 L 319 90 Q 317 87 317 84 Q 317 82 319 80 Q 320 79 321 79 Q 324 79 329 84 L 345 99 Q 357 110 374 132 Q 391 154 403 179 Q 416 203 427 231 Q 437 260 447 296 Q 457 332 466 388 Q 476 445 491 571 C 493 590 493 590 489 591 Z" fill="lightgray"></path>
    
      <path d="M 641 484 L 509 466 L 489 464 Q 483 462 481 458 Q 481 454 490 446 Q 499 440 506 436 Q 513 432 521 429 Q 529 427 535 427 L 537 427 Q 546 427 563 433 Q 583 439 593 440 L 639 448 L 689 454 L 769 462 L 831 469 L 860 470 Q 875 470 878 472 Q 881 474 881 479 Q 881 484 868 492 Q 856 500 849 504 Q 842 508 829 512 Q 815 516 811 517 Q 805 517 791 512 Q 777 508 745 502 L 697 494 L 641 484 Z" fill="lightgray"></path>
    
      <path d="M 633 621 L 641 592 Q 646 579 646 555 Q 646 547 645 538 L 641 484 L 639 448 L 630 356 C 627 326 668 336 673 366 L 689 454 L 697 494 L 705 545 Q 707 560 715 572 L 720 580 Q 724 586 724 593 Q 723 600 711 606 Q 699 613 685 618 Q 671 622 652 630 C 628 640 628 640 633 621 Z" fill="lightgray"></path>
    
      <path d="M 563 344 L 546 350 Q 532 355 525 355 Q 522 355 521 354 Q 517 350 516 346 L 516 345 Q 516 340 521 329 Q 527 316 529 298 Q 531 260 531 240 Q 531 220 529 197 Q 527 174 525 148 Q 523 123 517 100 Q 511 76 511 74 Q 511 64 513 56 L 523 38 Q 529 28 534 22 Q 538 17 543 17 L 546 17 Q 550 17 551 19 Q 553 22 555 32 L 559 47 L 562 79 L 565 148 L 567 172 L 569 232 L 569 254 L 571 319 C 572 341 572 341 563 344 Z" fill="lightgray"></path>
    
      <path d="M 630 356 L 563 344 C 533 339 542 313 571 319 L 623 330 L 686 340 Q 737 346 749 346 Q 758 346 763 343 Q 768 340 770 334 Q 771 328 772 316 L 773 277 L 773 254 L 773 189 L 771 172 L 766 94 C 764 64 725 89 737 62 L 753 27 Q 761 8 765 3 Q 769 -2 775 -2 Q 780 -2 786 3 Q 792 8 802 21 Q 813 34 817 43 Q 822 52 825 66 Q 828 80 829 102 Q 829 120 827 158 Q 825 196 825 223 L 825 284 Q 825 312 834 329 Q 841 344 841 351 L 841 352 Q 839 356 829 364 Q 819 372 806 378 Q 793 384 782 388 Q 774 391 767 391 Q 764 391 761 390 Q 757 389 745 384 Q 733 378 715 374 Q 697 370 673 366 L 630 356 Z" fill="lightgray"></path>
    
      <path d="M 569 232 L 589 228 L 599 228 Q 606 228 631 232 L 773 254 C 803 259 801 266 773 277 L 755 284 Q 747 288 731 288 Q 723 288 705 282 Q 687 278 671 274 L 569 254 C 540 248 540 238 569 232 Z" fill="lightgray"></path>
    
      <path d="M 565 148 L 601 146 L 604 146 Q 611 146 633 150 L 771 172 C 801 177 802 180 773 189 L 757 194 Q 737 200 731 200 L 730 200 Q 722 200 675 192 L 567 172 C 538 167 535 150 565 148 Z" fill="lightgray"></path>
    
      <path d="M 559 47 L 737 62 C 767 65 794 85 766 94 L 751 99 Q 744 102 730 102 L 678 94 L 562 79 C 532 75 529 44 559 47 Z" fill="lightgray"></path>
    
      <path d="M 147 569 Q 155 557 169 542 Q 181 526 196 510 Q 210 494 219 487 Q 234 476 242 476 L 243 476 Q 251 478 258 485 Q 265 492 269 502 Q 272 513 273 522 Q 273 531 270 540 Q 267 550 260 558 Q 253 566 241 572 Q 228 578 214 582 L 185 590 L 157 596 L 141 599 L 137 599 Q 134 599 133 598 Q 131 597 130 594 L 130 593 Q 130 590 133 586 L 147 569 Z" fill="lightgray"></path>
    
      <path d="M 197 222 Q 197 226 201 232 Q 205 238 223 257 L 251 287 Q 260 296 275 309 L 293 324 Q 302 332 303 338 L 303 339 Q 303 346 295 354 Q 285 362 269 372 Q 253 381 244 385 Q 235 388 229 388 Q 223 387 211 378 Q 199 370 175 358 Q 151 346 139 341 Q 126 336 111 332 L 91 328 L 77 325 Q 72 322 72 319 Q 73 316 78 312 Q 83 308 93 304 Q 103 301 115 300 Q 127 300 141 302 Q 155 305 168 310 Q 181 314 183 314 Q 189 316 193 316 Q 197 316 199 314 Q 200 313 200 311 Q 200 304 190 283 L 171 244 Q 163 226 163 222 Q 163 217 166 213 Q 169 209 181 201 C 187 197 187 197 197 222 Z" fill="lightgray"></path>
    
      <path d="M 247 52 L 257 68 Q 263 78 269 92 Q 275 107 275 124 Q 275 151 265 164 Q 255 178 239 190 Q 223 202 211 209 Q 197 216 197 221 L 197 222 C 185 249 157 219 181 201 Q 193 193 203 178 Q 214 162 221 144 Q 229 124 230 105 L 230 97 Q 230 78 227 52 C 224 22 231 27 247 52 Z" fill="lightgray"></path>
    
      <path d="M 227 52 L 221 51 Q 216 50 195 48 L 160 45 Q 137 42 129 42 Q 117 42 104 43 Q 92 44 83 46 Q 78 47 74 47 L 71 47 Q 65 44 63 40 L 63 37 Q 63 33 65 27 Q 69 20 74 13 Q 79 6 88 -2 L 106 -16 Q 114 -20 121 -20 Q 125 -20 137 -14 Q 149 -7 161 -4 Q 174 0 201 4 Q 228 8 257 9 Q 279 9 301 6 Q 323 2 345 -4 L 398 -24 L 477 -60 Q 515 -77 565 -97 L 653 -132 Q 690 -146 708 -146 L 711 -146 Q 725 -146 760 -136 Q 798 -124 821 -118 L 879 -97 L 933 -77 L 955 -68 Q 964 -65 964 -60 Q 964 -59 963 -57 Q 960 -50 949 -49 L 904 -48 Q 903 -48 853 -49 Q 803 -49 754 -47 Q 705 -44 659 -40 Q 613 -36 569 -26 Q 525 -18 491 -8 Q 457 2 406 20 Q 356 36 333 42 Q 309 46 289 48 L 247 52 L 227 52 Z" fill="lightgray"></path>
    
    
      <clipPath id="make-me-a-hanzi-clip-0">
        <path d="M 491 571 L 531 584 Q 567 594 583 600 Q 599 606 633 621 L 652 630 L 745 663 L 777 670 Q 789 673 791 678 L 791 680 Q 791 686 784 696 Q 775 708 766 715 Q 757 722 742 731 Q 727 740 720 740 Q 715 740 711 738 Q 706 736 696 722 Q 687 709 668 695 Q 649 681 609 658 Q 569 634 547 622 L 489 591 C 463 577 462 562 491 571 Z"></path>
      </clipPath>
      <path clip-path="url(#make-me-a-hanzi-clip-0)" d="M 786 679 L 725 696 L 602 629 L 500 586 L 497 577" fill="none" id="make-me-a-hanzi-animation-0" stroke-dasharray="452 904" stroke-linecap="round"></path>
    
      <clipPath id="make-me-a-hanzi-clip-1">
        <path d="M 489 591 L 462 598 L 442 602 Q 433 603 427 603 L 423 603 Q 417 600 415 595 L 415 593 Q 415 587 423 574 Q 431 560 431 532 L 431 526 Q 430 497 426 456 Q 423 416 417 378 Q 411 340 399 293 Q 387 245 379 223 Q 371 200 354 160 Q 337 120 331 110 L 319 90 Q 317 87 317 84 Q 317 82 319 80 Q 320 79 321 79 Q 324 79 329 84 L 345 99 Q 357 110 374 132 Q 391 154 403 179 Q 416 203 427 231 Q 437 260 447 296 Q 457 332 466 388 Q 476 445 491 571 C 493 590 493 590 489 591 Z"></path>
      </clipPath>
      <path clip-path="url(#make-me-a-hanzi-clip-1)" d="M 424 594 L 459 562 L 454 473 L 433 334 L 390 194 L 359 133 L 322 84" fill="none" id="make-me-a-hanzi-animation-1" stroke-dasharray="681 1362" stroke-linecap="round"></path>
    
      <clipPath id="make-me-a-hanzi-clip-2">
        <path d="M 641 484 L 509 466 L 489 464 Q 483 462 481 458 Q 481 454 490 446 Q 499 440 506 436 Q 513 432 521 429 Q 529 427 535 427 L 537 427 Q 546 427 563 433 Q 583 439 593 440 L 639 448 L 689 454 L 769 462 L 831 469 L 860 470 Q 875 470 878 472 Q 881 474 881 479 Q 881 484 868 492 Q 856 500 849 504 Q 842 508 829 512 Q 815 516 811 517 Q 805 517 791 512 Q 777 508 745 502 L 697 494 L 641 484 Z"></path>
      </clipPath>
      <path clip-path="url(#make-me-a-hanzi-clip-2)" d="M 490 455 L 540 448 L 809 492 L 873 478" fill="none" id="make-me-a-hanzi-animation-2" stroke-dasharray="517 1034" stroke-linecap="round"></path>
    
      <clipPath id="make-me-a-hanzi-clip-3">
        <path d="M 633 621 L 641 592 Q 646 579 646 555 Q 646 547 645 538 L 641 484 L 639 448 L 630 356 C 627 326 668 336 673 366 L 689 454 L 697 494 L 705 545 Q 707 560 715 572 L 720 580 Q 724 586 724 593 Q 723 600 711 606 Q 699 613 685 618 Q 671 622 652 630 C 628 640 628 640 633 621 Z"></path>
      </clipPath>
      <path clip-path="url(#make-me-a-hanzi-clip-3)" d="M 641 616 L 653 612 L 680 581 L 654 384 L 636 363" fill="none" id="make-me-a-hanzi-animation-3" stroke-dasharray="408 816" stroke-linecap="round"></path>
    
      <clipPath id="make-me-a-hanzi-clip-4">
        <path d="M 563 344 L 546 350 Q 532 355 525 355 Q 522 355 521 354 Q 517 350 516 346 L 516 345 Q 516 340 521 329 Q 527 316 529 298 Q 531 260 531 240 Q 531 220 529 197 Q 527 174 525 148 Q 523 123 517 100 Q 511 76 511 74 Q 511 64 513 56 L 523 38 Q 529 28 534 22 Q 538 17 543 17 L 546 17 Q 550 17 551 19 Q 553 22 555 32 L 559 47 L 562 79 L 565 148 L 567 172 L 569 232 L 569 254 L 571 319 C 572 341 572 341 563 344 Z"></path>
      </clipPath>
      <path clip-path="url(#make-me-a-hanzi-clip-4)" d="M 525 346 L 545 327 L 550 300 L 550 210 L 536 71 L 545 28" fill="none" id="make-me-a-hanzi-animation-4" stroke-dasharray="457 914" stroke-linecap="round"></path>
    
      <clipPath id="make-me-a-hanzi-clip-5">
        <path d="M 630 356 L 563 344 C 533 339 542 313 571 319 L 623 330 L 686 340 Q 737 346 749 346 Q 758 346 763 343 Q 768 340 770 334 Q 771 328 772 316 L 773 277 L 773 254 L 773 189 L 771 172 L 766 94 C 764 64 725 89 737 62 L 753 27 Q 761 8 765 3 Q 769 -2 775 -2 Q 780 -2 786 3 Q 792 8 802 21 Q 813 34 817 43 Q 822 52 825 66 Q 828 80 829 102 Q 829 120 827 158 Q 825 196 825 223 L 825 284 Q 825 312 834 329 Q 841 344 841 351 L 841 352 Q 839 356 829 364 Q 819 372 806 378 Q 793 384 782 388 Q 774 391 767 391 Q 764 391 761 390 Q 757 389 745 384 Q 733 378 715 374 Q 697 370 673 366 L 630 356 Z"></path>
      </clipPath>
      <path clip-path="url(#make-me-a-hanzi-clip-5)" d="M 571 340 L 588 335 L 765 367 L 779 363 L 803 342 L 798 97 L 781 55 L 776 12" fill="none" id="make-me-a-hanzi-animation-5" stroke-dasharray="706 1412" stroke-linecap="round"></path>
    
      <clipPath id="make-me-a-hanzi-clip-6">
        <path d="M 569 232 L 589 228 L 599 228 Q 606 228 631 232 L 773 254 C 803 259 801 266 773 277 L 755 284 Q 747 288 731 288 Q 723 288 705 282 Q 687 278 671 274 L 569 254 C 540 248 540 238 569 232 Z"></path>
      </clipPath>
      <path clip-path="url(#make-me-a-hanzi-clip-6)" d="M 575 238 L 737 269 L 758 267 L 764 260" fill="none" id="make-me-a-hanzi-animation-6" stroke-dasharray="323 646" stroke-linecap="round"></path>
    
      <clipPath id="make-me-a-hanzi-clip-7">
        <path d="M 565 148 L 601 146 L 604 146 Q 611 146 633 150 L 771 172 C 801 177 802 180 773 189 L 757 194 Q 737 200 731 200 L 730 200 Q 722 200 675 192 L 567 172 C 538 167 535 150 565 148 Z"></path>
      </clipPath>
      <path clip-path="url(#make-me-a-hanzi-clip-7)" d="M 571 154 L 580 161 L 767 185" fill="none" id="make-me-a-hanzi-animation-7" stroke-dasharray="328 656" stroke-linecap="round"></path>
    
      <clipPath id="make-me-a-hanzi-clip-8">
        <path d="M 559 47 L 737 62 C 767 65 794 85 766 94 L 751 99 Q 744 102 730 102 L 678 94 L 562 79 C 532 75 529 44 559 47 Z"></path>
      </clipPath>
      <path clip-path="url(#make-me-a-hanzi-clip-8)" d="M 566 52 L 573 62 L 586 66 L 727 81 L 757 92" fill="none" id="make-me-a-hanzi-animation-8" stroke-dasharray="328 656" stroke-linecap="round"></path>
    
      <clipPath id="make-me-a-hanzi-clip-9">
        <path d="M 147 569 Q 155 557 169 542 Q 181 526 196 510 Q 210 494 219 487 Q 234 476 242 476 L 243 476 Q 251 478 258 485 Q 265 492 269 502 Q 272 513 273 522 Q 273 531 270 540 Q 267 550 260 558 Q 253 566 241 572 Q 228 578 214 582 L 185 590 L 157 596 L 141 599 L 137 599 Q 134 599 133 598 Q 131 597 130 594 L 130 593 Q 130 590 133 586 L 147 569 Z"></path>
      </clipPath>
      <path clip-path="url(#make-me-a-hanzi-clip-9)" d="M 135 594 L 226 535 L 239 512 L 243 488" fill="none" id="make-me-a-hanzi-animation-9" stroke-dasharray="287 574" stroke-linecap="round"></path>
    
      <clipPath id="make-me-a-hanzi-clip-10">
        <path d="M 197 222 Q 197 226 201 232 Q 205 238 223 257 L 251 287 Q 260 296 275 309 L 293 324 Q 302 332 303 338 L 303 339 Q 303 346 295 354 Q 285 362 269 372 Q 253 381 244 385 Q 235 388 229 388 Q 223 387 211 378 Q 199 370 175 358 Q 151 346 139 341 Q 126 336 111 332 L 91 328 L 77 325 Q 72 322 72 319 Q 73 316 78 312 Q 83 308 93 304 Q 103 301 115 300 Q 127 300 141 302 Q 155 305 168 310 Q 181 314 183 314 Q 189 316 193 316 Q 197 316 199 314 Q 200 313 200 311 Q 200 304 190 283 L 171 244 Q 163 226 163 222 Q 163 217 166 213 Q 169 209 181 201 C 187 197 187 197 197 222 Z"></path>
      </clipPath>
      <path clip-path="url(#make-me-a-hanzi-clip-10)" d="M 79 319 L 132 319 L 210 343 L 238 337 L 225 299 L 182 231 L 180 210" fill="none" id="make-me-a-hanzi-animation-10" stroke-dasharray="433 866" stroke-linecap="round"></path>
    
      <clipPath id="make-me-a-hanzi-clip-11">
        <path d="M 247 52 L 257 68 Q 263 78 269 92 Q 275 107 275 124 Q 275 151 265 164 Q 255 178 239 190 Q 223 202 211 209 Q 197 216 197 221 L 197 222 C 185 249 157 219 181 201 Q 193 193 203 178 Q 214 162 221 144 Q 229 124 230 105 L 230 97 Q 230 78 227 52 C 224 22 231 27 247 52 Z"></path>
      </clipPath>
      <path clip-path="url(#make-me-a-hanzi-clip-11)" d="M 194 215 L 249 141 L 248 90 L 240 64 L 232 60" fill="none" id="make-me-a-hanzi-animation-11" stroke-dasharray="307 614" stroke-linecap="round"></path>
    
      <clipPath id="make-me-a-hanzi-clip-12">
        <path d="M 227 52 L 221 51 Q 216 50 195 48 L 160 45 Q 137 42 129 42 Q 117 42 104 43 Q 92 44 83 46 Q 78 47 74 47 L 71 47 Q 65 44 63 40 L 63 37 Q 63 33 65 27 Q 69 20 74 13 Q 79 6 88 -2 L 106 -16 Q 114 -20 121 -20 Q 125 -20 137 -14 Q 149 -7 161 -4 Q 174 0 201 4 Q 228 8 257 9 Q 279 9 301 6 Q 323 2 345 -4 L 398 -24 L 477 -60 Q 515 -77 565 -97 L 653 -132 Q 690 -146 708 -146 L 711 -146 Q 725 -146 760 -136 Q 798 -124 821 -118 L 879 -97 L 933 -77 L 955 -68 Q 964 -65 964 -60 Q 964 -59 963 -57 Q 960 -50 949 -49 L 904 -48 Q 903 -48 853 -49 Q 803 -49 754 -47 Q 705 -44 659 -40 Q 613 -36 569 -26 Q 525 -18 491 -8 Q 457 2 406 20 Q 356 36 333 42 Q 309 46 289 48 L 247 52 L 227 52 Z"></path>
      </clipPath>
      <path clip-path="url(#make-me-a-hanzi-clip-12)" d="M 71 39 L 100 19 L 122 12 L 228 30 L 322 24 L 522 -48 L 702 -94 L 791 -87 L 957 -61" fill="none" id="make-me-a-hanzi-animation-12" stroke-dasharray="1044 2088" stroke-linecap="round"></path>
    
  </g>
</svg>