<svg xmlns="http://www.w3.org/2000/svg" version="1.1" viewBox="0 0 1024 1024">
  <g stroke="lightgray" stroke-dasharray="1,1" stroke-width="1" transform="scale(4, 4)">
    <line x1="0" y1="0" x2="256" y2="256" />
    <line x1="256" y1="0" x2="0" y2="256" />
    <line x1="128" y1="0" x2="128" y2="256" />
    <line x1="0" y1="128" x2="256" y2="128" />
  </g>
  <g transform="scale(1.0, -1.0) translate(0.0, -788.50)">
    <style type="text/css">
      
        @keyframes keyframes0 {
          from {
            stroke: blue;
            stroke-dashoffset: 510;
            stroke-width: 128;
          }
          62% {
            animation-timing-function: step-end;
            stroke: blue;
            stroke-dashoffset: 0;
            stroke-width: 128;
          }
          to {
            stroke: black;
            stroke-width: 1024;
          }
        }
        #make-me-a-hanzi-animation-0 {
          animation: keyframes0 0.6650390625s both;
          animation-delay: 0s;
          animation-timing-function: linear;
        }
      
        @keyframes keyframes1 {
          from {
            stroke: blue;
            stroke-dashoffset: 797;
            stroke-width: 128;
          }
          72% {
            animation-timing-function: step-end;
            stroke: blue;
            stroke-dashoffset: 0;
            stroke-width: 128;
          }
          to {
            stroke: black;
            stroke-width: 1024;
          }
        }
        #make-me-a-hanzi-animation-1 {
          animation: keyframes1 0.8986002604166666s both;
          animation-delay: 0.6650390625s;
          animation-timing-function: linear;
        }
      
        @keyframes keyframes2 {
          from {
            stroke: blue;
            stroke-dashoffset: 485;
            stroke-width: 128;
          }
          61% {
            animation-timing-function: step-end;
            stroke: blue;
            stroke-dashoffset: 0;
            stroke-width: 128;
          }
          to {
            stroke: black;
            stroke-width: 1024;
          }
        }
        #make-me-a-hanzi-animation-2 {
          animation: keyframes2 0.6446940104166666s both;
          animation-delay: 1.5636393229166665s;
          animation-timing-function: linear;
        }
      
        @keyframes keyframes3 {
          from {
            stroke: blue;
            stroke-dashoffset: 440;
            stroke-width: 128;
          }
          59% {
            animation-timing-function: step-end;
            stroke: blue;
            stroke-dashoffset: 0;
            stroke-width: 128;
          }
          to {
            stroke: black;
            stroke-width: 1024;
          }
        }
        #make-me-a-hanzi-animation-3 {
          animation: keyframes3 0.6080729166666666s both;
          animation-delay: 2.208333333333333s;
          animation-timing-function: linear;
        }
      
        @keyframes keyframes4 {
          from {
            stroke: blue;
            stroke-dashoffset: 551;
            stroke-width: 128;
          }
          64% {
            animation-timing-function: step-end;
            stroke: blue;
            stroke-dashoffset: 0;
            stroke-width: 128;
          }
          to {
            stroke: black;
            stroke-width: 1024;
          }
        }
        #make-me-a-hanzi-animation-4 {
          animation: keyframes4 0.6984049479166666s both;
          animation-delay: 2.8164062499999996s;
          animation-timing-function: linear;
        }
      
        @keyframes keyframes5 {
          from {
            stroke: blue;
            stroke-dashoffset: 1189;
            stroke-width: 128;
          }
          79% {
            animation-timing-function: step-end;
            stroke: blue;
            stroke-dashoffset: 0;
            stroke-width: 128;
          }
          to {
            stroke: black;
            stroke-width: 1024;
          }
        }
        #make-me-a-hanzi-animation-5 {
          animation: keyframes5 1.2176106770833333s both;
          animation-delay: 3.514811197916666s;
          animation-timing-function: linear;
        }
      
        @keyframes keyframes6 {
          from {
            stroke: blue;
            stroke-dashoffset: 681;
            stroke-width: 128;
          }
          69% {
            animation-timing-function: step-end;
            stroke: blue;
            stroke-dashoffset: 0;
            stroke-width: 128;
          }
          to {
            stroke: black;
            stroke-width: 1024;
          }
        }
        #make-me-a-hanzi-animation-6 {
          animation: keyframes6 0.80419921875s both;
          animation-delay: 4.732421874999999s;
          animation-timing-function: linear;
        }
      
        @keyframes keyframes7 {
          from {
            stroke: blue;
            stroke-dashoffset: 497;
            stroke-width: 128;
          }
          62% {
            animation-timing-function: step-end;
            stroke: blue;
            stroke-dashoffset: 0;
            stroke-width: 128;
          }
          to {
            stroke: black;
            stroke-width: 1024;
          }
        }
        #make-me-a-hanzi-animation-7 {
          animation: keyframes7 0.6544596354166666s both;
          animation-delay: 5.536621093749999s;
          animation-timing-function: linear;
        }
      
        @keyframes keyframes8 {
          from {
            stroke: blue;
            stroke-dashoffset: 392;
            stroke-width: 128;
          }
          56% {
            animation-timing-function: step-end;
            stroke: blue;
            stroke-dashoffset: 0;
            stroke-width: 128;
          }
          to {
            stroke: black;
            stroke-width: 1024;
          }
        }
        #make-me-a-hanzi-animation-8 {
          animation: keyframes8 0.5690104166666666s both;
          animation-delay: 6.191080729166666s;
          animation-timing-function: linear;
        }
      
        @keyframes keyframes9 {
          from {
            stroke: blue;
            stroke-dashoffset: 424;
            stroke-width: 128;
          }
          58% {
            animation-timing-function: step-end;
            stroke: blue;
            stroke-dashoffset: 0;
            stroke-width: 128;
          }
          to {
            stroke: black;
            stroke-width: 1024;
          }
        }
        #make-me-a-hanzi-animation-9 {
          animation: keyframes9 0.5950520833333334s both;
          animation-delay: 6.760091145833333s;
          animation-timing-function: linear;
        }
      
        @keyframes keyframes10 {
          from {
            stroke: blue;
            stroke-dashoffset: 584;
            stroke-width: 128;
          }
          66% {
            animation-timing-function: step-end;
            stroke: blue;
            stroke-dashoffset: 0;
            stroke-width: 128;
          }
          to {
            stroke: black;
            stroke-width: 1024;
          }
        }
        #make-me-a-hanzi-animation-10 {
          animation: keyframes10 0.7252604166666666s both;
          animation-delay: 7.355143229166666s;
          animation-timing-function: linear;
        }
      
        @keyframes keyframes11 {
          from {
            stroke: blue;
            stroke-dashoffset: 431;
            stroke-width: 128;
          }
          58% {
            animation-timing-function: step-end;
            stroke: blue;
            stroke-dashoffset: 0;
            stroke-width: 128;
          }
          to {
            stroke: black;
            stroke-width: 1024;
          }
        }
        #make-me-a-hanzi-animation-11 {
          animation: keyframes11 0.6007486979166666s both;
          animation-delay: 8.080403645833332s;
          animation-timing-function: linear;
        }
      
        @keyframes keyframes12 {
          from {
            stroke: blue;
            stroke-dashoffset: 1180;
            stroke-width: 128;
          }
          79% {
            animation-timing-function: step-end;
            stroke: blue;
            stroke-dashoffset: 0;
            stroke-width: 128;
          }
          to {
            stroke: black;
            stroke-width: 1024;
          }
        }
        #make-me-a-hanzi-animation-12 {
          animation: keyframes12 1.2102864583333333s both;
          animation-delay: 8.681152343749998s;
          animation-timing-function: linear;
        }
      
    </style>
    
      <path d="M 485 636 L 461 641 Q 449 642 444 642 L 441 642 Q 437 638 437 634 L 437 631 Q 439 626 448 618 Q 457 610 461 594 Q 464 579 467 553 L 481 447 L 483 421 Q 485 412 492 404 Q 500 393 506 393 L 507 393 Q 513 394 517 400 Q 521 405 524 411 C 524 411 524 411 521 438 L 513 514 L 508 542 L 499 610 C 496 634 496 634 485 636 Z" fill="lightgray" />
    
      <path d="M 709 426 L 719 414 Q 725 406 735 405 L 737 405 Q 743 405 749 410 Q 757 416 760 422 Q 764 430 775 462 L 811 574 Q 817 592 823 602 Q 828 612 836 620 Q 843 629 845 633 L 845 635 Q 845 643 835 653 Q 823 664 804 673 Q 785 683 773 687 Q 764 691 757 691 Q 755 691 752 690 Q 746 690 731 684 Q 715 678 695 672 Q 675 668 632 658 Q 589 649 565 645 Q 541 642 485 636 C 455 633 469 607 499 610 L 591 620 L 650 630 L 693 638 Q 723 643 735 643 Q 739 643 741 642 Q 750 639 753 633 Q 755 629 755 621 Q 755 615 754 606 L 747 566 L 743 543 L 735 511 Q 729 485 727 478 L 718 454 C 708 427 708 427 709 426 Z" fill="lightgray" />
    
      <path d="M 595 555 L 508 542 C 478 538 483 519 513 514 L 531 511 L 534 511 Q 539 511 551 513 Q 567 516 593 520 L 647 528 L 673 531 Q 690 533 743 543 C 772 549 776 558 747 566 L 725 572 Q 712 576 699 576 Q 695 575 682 572 Q 669 569 647 566 L 595 555 Z" fill="lightgray" />
    
      <path d="M 643 419 L 709 426 C 739 429 747 445 718 454 L 705 458 Q 693 462 691 462 Q 685 462 673 459 Q 661 456 644 453 L 593 446 L 521 438 C 491 435 494 409 524 411 L 592 416 L 643 419 Z" fill="lightgray" />
    
      <path d="M 403 272 L 405 185 Q 405 154 402 133 Q 399 112 399 110 Q 399 102 404 88 Q 409 76 415 67 Q 421 59 427 59 L 428 59 Q 436 59 441 69 Q 445 80 448 100 Q 450 120 450 134 L 449 282 L 451 318 L 456 327 Q 459 334 459 340 Q 457 346 447 351 Q 436 357 421 360 Q 407 364 399 366 Q 391 366 387 364 Q 384 362 383 355 L 383 353 Q 383 347 387 338 Q 392 326 398 308 L 403 272 Z" fill="lightgray" />
    
      <path d="M 398 308 L 355 311 L 336 312 L 334 312 Q 329 312 327 308 L 327 307 Q 327 302 332 297 Q 337 290 351 279 Q 363 268 371 266 Q 375 266 385 268 L 403 272 L 449 282 L 491 292 L 592 308 L 640 314 L 763 324 Q 774 325 783 325 Q 792 325 798 324 Q 811 323 820 314 Q 829 304 831 284 Q 831 276 829 248 Q 827 220 827 218 L 819 150 Q 816 118 809 109 Q 803 99 791 96 L 786 96 Q 776 96 759 100 Q 737 106 735 106 L 719 111 L 717 111 Q 713 111 713 107 Q 713 102 717 97 L 731 82 Q 736 76 748 58 Q 759 40 764 34 L 775 14 Q 780 5 785 3 Q 788 1 792 1 Q 799 1 809 6 Q 825 14 837 24 Q 849 34 860 52 Q 871 68 875 88 Q 879 107 881 140 L 891 228 L 895 273 Q 897 283 899 288 L 909 308 Q 914 317 914 324 L 914 326 Q 913 333 895 346 Q 877 360 871 363 Q 865 366 845 373 Q 825 380 819 381 Q 811 381 788 372 Q 765 362 738 359 L 641 346 L 591 338 L 451 318 L 398 308 Z" fill="lightgray" />
    
      <path d="M 592 308 L 589 208 C 588 178 640 187 640 217 L 640 314 L 641 346 L 643 419 L 644 453 L 647 528 L 647 566 L 650 630 C 651 660 589 650 591 620 L 595 555 L 593 520 L 593 446 L 592 416 L 591 338 L 592 308 Z" fill="lightgray" />
    
      <path d="M 589 208 L 530 198 Q 522 197 515 197 Q 504 197 495 200 Q 486 203 481 203 Q 478 203 477 202 Q 471 199 471 193 Q 471 187 479 178 L 499 158 Q 509 148 519 143 Q 525 140 533 140 L 537 140 Q 543 141 558 149 Q 572 157 627 176 L 719 207 C 747 217 734 239 705 232 L 640 217 L 589 208 Z" fill="lightgray" />
    
      <path d="M 719 207 L 743 168 Q 744 164 748 161 Q 751 158 755 158 Q 759 158 764 161 Q 769 164 773 176 Q 780 193 780 208 Q 779 222 768 235 Q 757 248 738 259 Q 719 271 707 276 L 689 284 Q 686 285 684 285 Q 681 285 680 282 Q 679 281 679 279 Q 679 275 683 268 L 705 232 L 719 207 Z" fill="lightgray" />
    
      <path d="M 171 605 Q 177 595 192 576 L 220 539 Q 233 521 243 513 Q 255 500 264 500 L 266 500 Q 274 502 282 509 Q 289 516 293 528 Q 297 540 298 549 L 298 554 Q 298 561 296 569 Q 293 580 287 589 Q 281 598 267 605 Q 253 612 241 617 Q 229 622 211 627 Q 193 633 183 635 L 167 638 Q 164 639 162 639 Q 160 639 159 638 Q 156 637 155 634 L 155 633 Q 155 629 159 624 L 171 605 Z" fill="lightgray" />
    
      <path d="M 222 234 Q 222 238 226 242 L 241 260 L 281 308 Q 289 317 299 325 L 316 340 Q 325 348 327 353 Q 327 360 317 369 Q 307 378 294 386 Q 281 394 270 399 Q 259 404 251 404 Q 246 402 235 396 Q 223 389 197 377 Q 172 366 156 360 Q 139 354 123 350 L 103 344 L 89 342 Q 85 339 85 336 Q 85 332 89 328 Q 94 324 104 322 Q 115 319 125 318 L 135 318 Q 144 318 150 319 Q 160 320 181 326 Q 201 332 207 334 Q 213 336 217 337 L 222 337 Q 226 337 227 336 Q 228 334 228 331 L 228 328 Q 227 322 221 308 L 195 246 Q 191 236 191 232 Q 191 229 192 226 Q 194 222 203 213 C 208 208 208 208 222 234 Z" fill="lightgray" />
    
      <path d="M 275 64 L 282 80 Q 285 90 289 105 Q 293 122 293 138 L 293 144 Q 292 162 281 180 Q 270 198 253 210 L 231 222 Q 223 228 223 232 Q 222 233 222 234 C 210 262 181 234 203 213 Q 213 204 223 190 Q 233 175 239 162 Q 247 150 251 133 Q 255 114 255 104 Q 254 96 253 87 Q 252 78 251 64 C 249 34 263 37 275 64 Z" fill="lightgray" />
    
      <path d="M 251 64 L 243 65 L 223 64 Q 213 64 197 63 Q 181 62 159 59 Q 142 57 131 57 L 125 57 Q 117 57 102 58 Q 87 60 79 62 Q 75 63 72 63 Q 69 63 67 62 Q 61 60 59 56 L 59 53 Q 59 49 61 44 Q 64 37 69 30 L 84 15 Q 93 7 101 2 Q 108 -2 114 -2 L 116 -2 Q 120 -2 131 3 Q 143 9 157 13 Q 171 16 197 21 Q 218 24 241 24 L 252 24 Q 275 24 295 19 Q 315 15 337 7 Q 360 -1 403 -18 L 488 -52 L 587 -92 Q 645 -116 677 -127 Q 707 -138 726 -138 L 729 -138 Q 741 -138 770 -131 Q 799 -123 817 -117 L 889 -93 Q 921 -84 931 -78 L 957 -66 Q 968 -61 968 -56 Q 968 -55 967 -54 Q 963 -46 952 -46 L 907 -44 L 854 -44 Q 810 -43 757 -40 Q 703 -38 662 -34 Q 621 -29 572 -19 Q 523 -8 492 0 L 414 26 Q 367 42 344 48 L 303 58 Q 294 60 290 61 Q 286 62 275 64 L 251 64 Z" fill="lightgray" />
    
    
      <clipPath id="make-me-a-hanzi-clip-0">
        <path d="M 485 636 L 461 641 Q 449 642 444 642 L 441 642 Q 437 638 437 634 L 437 631 Q 439 626 448 618 Q 457 610 461 594 Q 464 579 467 553 L 481 447 L 483 421 Q 485 412 492 404 Q 500 393 506 393 L 507 393 Q 513 394 517 400 Q 521 405 524 411 C 524 411 524 411 521 438 L 513 514 L 508 542 L 499 610 C 496 634 496 634 485 636 Z" />
      </clipPath>
      <path clip-path="url(#make-me-a-hanzi-clip-0)" d="M 443 636 L 473 619 L 481 601 L 507 403" fill="none" id="make-me-a-hanzi-animation-0" stroke-dasharray="382 764" stroke-linecap="round" />
    
      <clipPath id="make-me-a-hanzi-clip-1">
        <path d="M 709 426 L 719 414 Q 725 406 735 405 L 737 405 Q 743 405 749 410 Q 757 416 760 422 Q 764 430 775 462 L 811 574 Q 817 592 823 602 Q 828 612 836 620 Q 843 629 845 633 L 845 635 Q 845 643 835 653 Q 823 664 804 673 Q 785 683 773 687 Q 764 691 757 691 Q 755 691 752 690 Q 746 690 731 684 Q 715 678 695 672 Q 675 668 632 658 Q 589 649 565 645 Q 541 642 485 636 C 455 633 469 607 499 610 L 591 620 L 650 630 L 693 638 Q 723 643 735 643 Q 739 643 741 642 Q 750 639 753 633 Q 755 629 755 621 Q 755 615 754 606 L 747 566 L 743 543 L 735 511 Q 729 485 727 478 L 718 454 C 708 427 708 427 709 426 Z" />
      </clipPath>
      <path clip-path="url(#make-me-a-hanzi-clip-1)" d="M 494 633 L 506 624 L 567 630 L 745 665 L 760 663 L 783 647 L 794 633 L 777 562 L 743 445 L 736 431 L 724 429" fill="none" id="make-me-a-hanzi-animation-1" stroke-dasharray="669 1338" stroke-linecap="round" />
    
      <clipPath id="make-me-a-hanzi-clip-2">
        <path d="M 595 555 L 508 542 C 478 538 483 519 513 514 L 531 511 L 534 511 Q 539 511 551 513 Q 567 516 593 520 L 647 528 L 673 531 Q 690 533 743 543 C 772 549 776 558 747 566 L 725 572 Q 712 576 699 576 Q 695 575 682 572 Q 669 569 647 566 L 595 555 Z" />
      </clipPath>
      <path clip-path="url(#make-me-a-hanzi-clip-2)" d="M 516 536 L 527 528 L 543 529 L 740 561" fill="none" id="make-me-a-hanzi-animation-2" stroke-dasharray="357 714" stroke-linecap="round" />
    
      <clipPath id="make-me-a-hanzi-clip-3">
        <path d="M 643 419 L 709 426 C 739 429 747 445 718 454 L 705 458 Q 693 462 691 462 Q 685 462 673 459 Q 661 456 644 453 L 593 446 L 521 438 C 491 435 494 409 524 411 L 592 416 L 643 419 Z" />
      </clipPath>
      <path clip-path="url(#make-me-a-hanzi-clip-3)" d="M 530 419 L 536 426 L 648 436 L 709 449" fill="none" id="make-me-a-hanzi-animation-3" stroke-dasharray="312 624" stroke-linecap="round" />
    
      <clipPath id="make-me-a-hanzi-clip-4">
        <path d="M 403 272 L 405 185 Q 405 154 402 133 Q 399 112 399 110 Q 399 102 404 88 Q 409 76 415 67 Q 421 59 427 59 L 428 59 Q 436 59 441 69 Q 445 80 448 100 Q 450 120 450 134 L 449 282 L 451 318 L 456 327 Q 459 334 459 340 Q 457 346 447 351 Q 436 357 421 360 Q 407 364 399 366 Q 391 366 387 364 Q 384 362 383 355 L 383 353 Q 383 347 387 338 Q 392 326 398 308 L 403 272 Z" />
      </clipPath>
      <path clip-path="url(#make-me-a-hanzi-clip-4)" d="M 395 355 L 421 331 L 424 313 L 428 72" fill="none" id="make-me-a-hanzi-animation-4" stroke-dasharray="423 846" stroke-linecap="round" />
    
      <clipPath id="make-me-a-hanzi-clip-5">
        <path d="M 398 308 L 355 311 L 336 312 L 334 312 Q 329 312 327 308 L 327 307 Q 327 302 332 297 Q 337 290 351 279 Q 363 268 371 266 Q 375 266 385 268 L 403 272 L 449 282 L 491 292 L 592 308 L 640 314 L 763 324 Q 774 325 783 325 Q 792 325 798 324 Q 811 323 820 314 Q 829 304 831 284 Q 831 276 829 248 Q 827 220 827 218 L 819 150 Q 816 118 809 109 Q 803 99 791 96 L 786 96 Q 776 96 759 100 Q 737 106 735 106 L 719 111 L 717 111 Q 713 111 713 107 Q 713 102 717 97 L 731 82 Q 736 76 748 58 Q 759 40 764 34 L 775 14 Q 780 5 785 3 Q 788 1 792 1 Q 799 1 809 6 Q 825 14 837 24 Q 849 34 860 52 Q 871 68 875 88 Q 879 107 881 140 L 891 228 L 895 273 Q 897 283 899 288 L 909 308 Q 914 317 914 324 L 914 326 Q 913 333 895 346 Q 877 360 871 363 Q 865 366 845 373 Q 825 380 819 381 Q 811 381 788 372 Q 765 362 738 359 L 641 346 L 591 338 L 451 318 L 398 308 Z" />
      </clipPath>
      <path clip-path="url(#make-me-a-hanzi-clip-5)" d="M 332 308 L 368 290 L 394 289 L 612 327 L 804 350 L 827 347 L 866 316 L 853 166 L 839 91 L 824 68 L 803 54 L 718 106" fill="none" id="make-me-a-hanzi-animation-5" stroke-dasharray="1061 2122" stroke-linecap="round" />
    
      <clipPath id="make-me-a-hanzi-clip-6">
        <path d="M 592 308 L 589 208 C 588 178 640 187 640 217 L 640 314 L 641 346 L 643 419 L 644 453 L 647 528 L 647 566 L 650 630 C 651 660 589 650 591 620 L 595 555 L 593 520 L 593 446 L 592 416 L 591 338 L 592 308 Z" />
      </clipPath>
      <path clip-path="url(#make-me-a-hanzi-clip-6)" d="M 643 624 L 621 597 L 616 252 L 615 238 L 594 215" fill="none" id="make-me-a-hanzi-animation-6" stroke-dasharray="553 1106" stroke-linecap="round" />
    
      <clipPath id="make-me-a-hanzi-clip-7">
        <path d="M 589 208 L 530 198 Q 522 197 515 197 Q 504 197 495 200 Q 486 203 481 203 Q 478 203 477 202 Q 471 199 471 193 Q 471 187 479 178 L 499 158 Q 509 148 519 143 Q 525 140 533 140 L 537 140 Q 543 141 558 149 Q 572 157 627 176 L 719 207 C 747 217 734 239 705 232 L 640 217 L 589 208 Z" />
      </clipPath>
      <path clip-path="url(#make-me-a-hanzi-clip-7)" d="M 482 193 L 533 169 L 689 213 L 711 210" fill="none" id="make-me-a-hanzi-animation-7" stroke-dasharray="369 738" stroke-linecap="round" />
    
      <clipPath id="make-me-a-hanzi-clip-8">
        <path d="M 719 207 L 743 168 Q 744 164 748 161 Q 751 158 755 158 Q 759 158 764 161 Q 769 164 773 176 Q 780 193 780 208 Q 779 222 768 235 Q 757 248 738 259 Q 719 271 707 276 L 689 284 Q 686 285 684 285 Q 681 285 680 282 Q 679 281 679 279 Q 679 275 683 268 L 705 232 L 719 207 Z" />
      </clipPath>
      <path clip-path="url(#make-me-a-hanzi-clip-8)" d="M 685 279 L 749 213 L 756 170" fill="none" id="make-me-a-hanzi-animation-8" stroke-dasharray="264 528" stroke-linecap="round" />
    
      <clipPath id="make-me-a-hanzi-clip-9">
        <path d="M 171 605 Q 177 595 192 576 L 220 539 Q 233 521 243 513 Q 255 500 264 500 L 266 500 Q 274 502 282 509 Q 289 516 293 528 Q 297 540 298 549 L 298 554 Q 298 561 296 569 Q 293 580 287 589 Q 281 598 267 605 Q 253 612 241 617 Q 229 622 211 627 Q 193 633 183 635 L 167 638 Q 164 639 162 639 Q 160 639 159 638 Q 156 637 155 634 L 155 633 Q 155 629 159 624 L 171 605 Z" />
      </clipPath>
      <path clip-path="url(#make-me-a-hanzi-clip-9)" d="M 160 634 L 253 564 L 265 514" fill="none" id="make-me-a-hanzi-animation-9" stroke-dasharray="296 592" stroke-linecap="round" />
    
      <clipPath id="make-me-a-hanzi-clip-10">
        <path d="M 222 234 Q 222 238 226 242 L 241 260 L 281 308 Q 289 317 299 325 L 316 340 Q 325 348 327 353 Q 327 360 317 369 Q 307 378 294 386 Q 281 394 270 399 Q 259 404 251 404 Q 246 402 235 396 Q 223 389 197 377 Q 172 366 156 360 Q 139 354 123 350 L 103 344 L 89 342 Q 85 339 85 336 Q 85 332 89 328 Q 94 324 104 322 Q 115 319 125 318 L 135 318 Q 144 318 150 319 Q 160 320 181 326 Q 201 332 207 334 Q 213 336 217 337 L 222 337 Q 226 337 227 336 Q 228 334 228 331 L 228 328 Q 227 322 221 308 L 195 246 Q 191 236 191 232 Q 191 229 192 226 Q 194 222 203 213 C 208 208 208 208 222 234 Z" />
      </clipPath>
      <path clip-path="url(#make-me-a-hanzi-clip-10)" d="M 93 335 L 141 336 L 231 364 L 258 361 L 266 353 L 253 317 L 205 236 L 204 221" fill="none" id="make-me-a-hanzi-animation-10" stroke-dasharray="456 912" stroke-linecap="round" />
    
      <clipPath id="make-me-a-hanzi-clip-11">
        <path d="M 275 64 L 282 80 Q 285 90 289 105 Q 293 122 293 138 L 293 144 Q 292 162 281 180 Q 270 198 253 210 L 231 222 Q 223 228 223 232 Q 222 233 222 234 C 210 262 181 234 203 213 Q 213 204 223 190 Q 233 175 239 162 Q 247 150 251 133 Q 255 114 255 104 Q 254 96 253 87 Q 252 78 251 64 C 249 34 263 37 275 64 Z" />
      </clipPath>
      <path clip-path="url(#make-me-a-hanzi-clip-11)" d="M 222 223 L 221 213 L 253 182 L 270 147 L 272 102 L 266 78 L 257 70" fill="none" id="make-me-a-hanzi-animation-11" stroke-dasharray="303 606" stroke-linecap="round" />
    
      <clipPath id="make-me-a-hanzi-clip-12">
        <path d="M 251 64 L 243 65 L 223 64 Q 213 64 197 63 Q 181 62 159 59 Q 142 57 131 57 L 125 57 Q 117 57 102 58 Q 87 60 79 62 Q 75 63 72 63 Q 69 63 67 62 Q 61 60 59 56 L 59 53 Q 59 49 61 44 Q 64 37 69 30 L 84 15 Q 93 7 101 2 Q 108 -2 114 -2 L 116 -2 Q 120 -2 131 3 Q 143 9 157 13 Q 171 16 197 21 Q 218 24 241 24 L 252 24 Q 275 24 295 19 Q 315 15 337 7 Q 360 -1 403 -18 L 488 -52 L 587 -92 Q 645 -116 677 -127 Q 707 -138 726 -138 L 729 -138 Q 741 -138 770 -131 Q 799 -123 817 -117 L 889 -93 Q 921 -84 931 -78 L 957 -66 Q 968 -61 968 -56 Q 968 -55 967 -54 Q 963 -46 952 -46 L 907 -44 L 854 -44 Q 810 -43 757 -40 Q 703 -38 662 -34 Q 621 -29 572 -19 Q 523 -8 492 0 L 414 26 Q 367 42 344 48 L 303 58 Q 294 60 290 61 Q 286 62 275 64 L 251 64 Z" />
      </clipPath>
      <path clip-path="url(#make-me-a-hanzi-clip-12)" d="M 66 55 L 115 28 L 193 42 L 279 43 L 367 20 L 608 -63 L 719 -88 L 960 -59" fill="none" id="make-me-a-hanzi-animation-12" stroke-dasharray="1052 2104" stroke-linecap="round" />
    
  </g>
</svg>