<svg version="1.1" viewBox="0 0 1024 1024" xmlns="http://www.w3.org/2000/svg">
  <g stroke="lightgray" stroke-dasharray="1,1" stroke-width="1" transform="scale(4, 4)">
    <line x1="0" y1="0" x2="256" y2="256"></line>
    <line x1="256" y1="0" x2="0" y2="256"></line>
    <line x1="128" y1="0" x2="128" y2="256"></line>
    <line x1="0" y1="128" x2="256" y2="128"></line>
  </g>
  <g transform="scale(0.92, -0.92) translate(60, -830)">
    <style type="text/css">
      
        @keyframes keyframes0 {
          from {
            stroke: blue;
            stroke-dashoffset: 609;
            stroke-width: 128;
          }
          66% {
            animation-timing-function: step-end;
            stroke: blue;
            stroke-dashoffset: 0;
            stroke-width: 128;
          }
          to {
            stroke: black;
            stroke-width: 1024;
          }
        }
        #make-me-a-hanzi-animation-0 {
          animation: keyframes0 0.74560546875s both;
          animation-delay: 0s;
          animation-timing-function: linear;
        }
      
        @keyframes keyframes1 {
          from {
            stroke: blue;
            stroke-dashoffset: 867;
            stroke-width: 128;
          }
          74% {
            animation-timing-function: step-end;
            stroke: blue;
            stroke-dashoffset: 0;
            stroke-width: 128;
          }
          to {
            stroke: black;
            stroke-width: 1024;
          }
        }
        #make-me-a-hanzi-animation-1 {
          animation: keyframes1 0.95556640625s both;
          animation-delay: 0.74560546875s;
          animation-timing-function: linear;
        }
      
        @keyframes keyframes2 {
          from {
            stroke: blue;
            stroke-dashoffset: 410;
            stroke-width: 128;
          }
          57% {
            animation-timing-function: step-end;
            stroke: blue;
            stroke-dashoffset: 0;
            stroke-width: 128;
          }
          to {
            stroke: black;
            stroke-width: 1024;
          }
        }
        #make-me-a-hanzi-animation-2 {
          animation: keyframes2 0.5836588541666666s both;
          animation-delay: 1.701171875s;
          animation-timing-function: linear;
        }
      
        @keyframes keyframes3 {
          from {
            stroke: blue;
            stroke-dashoffset: 392;
            stroke-width: 128;
          }
          56% {
            animation-timing-function: step-end;
            stroke: blue;
            stroke-dashoffset: 0;
            stroke-width: 128;
          }
          to {
            stroke: black;
            stroke-width: 1024;
          }
        }
        #make-me-a-hanzi-animation-3 {
          animation: keyframes3 0.5690104166666666s both;
          animation-delay: 2.2848307291666665s;
          animation-timing-function: linear;
        }
      
        @keyframes keyframes4 {
          from {
            stroke: blue;
            stroke-dashoffset: 713;
            stroke-width: 128;
          }
          70% {
            animation-timing-function: step-end;
            stroke: blue;
            stroke-dashoffset: 0;
            stroke-width: 128;
          }
          to {
            stroke: black;
            stroke-width: 1024;
          }
        }
        #make-me-a-hanzi-animation-4 {
          animation: keyframes4 0.8302408854166666s both;
          animation-delay: 2.853841145833333s;
          animation-timing-function: linear;
        }
      
        @keyframes keyframes5 {
          from {
            stroke: blue;
            stroke-dashoffset: 732;
            stroke-width: 128;
          }
          70% {
            animation-timing-function: step-end;
            stroke: blue;
            stroke-dashoffset: 0;
            stroke-width: 128;
          }
          to {
            stroke: black;
            stroke-width: 1024;
          }
        }
        #make-me-a-hanzi-animation-5 {
          animation: keyframes5 0.845703125s both;
          animation-delay: 3.6840820312499996s;
          animation-timing-function: linear;
        }
      
        @keyframes keyframes6 {
          from {
            stroke: blue;
            stroke-dashoffset: 468;
            stroke-width: 128;
          }
          60% {
            animation-timing-function: step-end;
            stroke: blue;
            stroke-dashoffset: 0;
            stroke-width: 128;
          }
          to {
            stroke: black;
            stroke-width: 1024;
          }
        }
        #make-me-a-hanzi-animation-6 {
          animation: keyframes6 0.630859375s both;
          animation-delay: 4.52978515625s;
          animation-timing-function: linear;
        }
      
        @keyframes keyframes7 {
          from {
            stroke: blue;
            stroke-dashoffset: 630;
            stroke-width: 128;
          }
          67% {
            animation-timing-function: step-end;
            stroke: blue;
            stroke-dashoffset: 0;
            stroke-width: 128;
          }
          to {
            stroke: black;
            stroke-width: 1024;
          }
        }
        #make-me-a-hanzi-animation-7 {
          animation: keyframes7 0.7626953125s both;
          animation-delay: 5.16064453125s;
          animation-timing-function: linear;
        }
      
        @keyframes keyframes8 {
          from {
            stroke: blue;
            stroke-dashoffset: 576;
            stroke-width: 128;
          }
          65% {
            animation-timing-function: step-end;
            stroke: blue;
            stroke-dashoffset: 0;
            stroke-width: 128;
          }
          to {
            stroke: black;
            stroke-width: 1024;
          }
        }
        #make-me-a-hanzi-animation-8 {
          animation: keyframes8 0.71875s both;
          animation-delay: 5.92333984375s;
          animation-timing-function: linear;
        }
      
        @keyframes keyframes9 {
          from {
            stroke: blue;
            stroke-dashoffset: 767;
            stroke-width: 128;
          }
          71% {
            animation-timing-function: step-end;
            stroke: blue;
            stroke-dashoffset: 0;
            stroke-width: 128;
          }
          to {
            stroke: black;
            stroke-width: 1024;
          }
        }
        #make-me-a-hanzi-animation-9 {
          animation: keyframes9 0.8741861979166666s both;
          animation-delay: 6.64208984375s;
          animation-timing-function: linear;
        }
      
        @keyframes keyframes10 {
          from {
            stroke: blue;
            stroke-dashoffset: 404;
            stroke-width: 128;
          }
          57% {
            animation-timing-function: step-end;
            stroke: blue;
            stroke-dashoffset: 0;
            stroke-width: 128;
          }
          to {
            stroke: black;
            stroke-width: 1024;
          }
        }
        #make-me-a-hanzi-animation-10 {
          animation: keyframes10 0.5787760416666666s both;
          animation-delay: 7.516276041666667s;
          animation-timing-function: linear;
        }
      
        @keyframes keyframes11 {
          from {
            stroke: blue;
            stroke-dashoffset: 582;
            stroke-width: 128;
          }
          65% {
            animation-timing-function: step-end;
            stroke: blue;
            stroke-dashoffset: 0;
            stroke-width: 128;
          }
          to {
            stroke: black;
            stroke-width: 1024;
          }
        }
        #make-me-a-hanzi-animation-11 {
          animation: keyframes11 0.7236328125s both;
          animation-delay: 8.095052083333334s;
          animation-timing-function: linear;
        }
      
        @keyframes keyframes12 {
          from {
            stroke: blue;
            stroke-dashoffset: 447;
            stroke-width: 128;
          }
          59% {
            animation-timing-function: step-end;
            stroke: blue;
            stroke-dashoffset: 0;
            stroke-width: 128;
          }
          to {
            stroke: black;
            stroke-width: 1024;
          }
        }
        #make-me-a-hanzi-animation-12 {
          animation: keyframes12 0.61376953125s both;
          animation-delay: 8.818684895833334s;
          animation-timing-function: linear;
        }
      
        @keyframes keyframes13 {
          from {
            stroke: blue;
            stroke-dashoffset: 1207;
            stroke-width: 128;
          }
          80% {
            animation-timing-function: step-end;
            stroke: blue;
            stroke-dashoffset: 0;
            stroke-width: 128;
          }
          to {
            stroke: black;
            stroke-width: 1024;
          }
        }
        #make-me-a-hanzi-animation-13 {
          animation: keyframes13 1.2322591145833333s both;
          animation-delay: 9.432454427083334s;
          animation-timing-function: linear;
        }
      
    </style>
    
      <path d="M 487 629 L 772 740 Q 781 744 797 746 Q 813 748 816 753 Q 819 758 815 767 Q 810 776 800 784 L 779 801 Q 765 812 755 814 Q 742 824 726 804 Q 710 784 693 772 Q 676 759 618 725 Q 559 690 553 688 L 483 655 C 456 642 459 618 487 629 Z" fill="lightgray"></path>
    
      <path d="M 483 655 L 432 671 Q 416 675 410 671 Q 403 666 403 660 Q 402 653 413 634 Q 423 614 422 582 Q 420 447 405 373 Q 395 311 381 273 Q 367 235 345 195 L 291 109 Q 285 101 288 96 Q 292 92 301 100 L 323 119 L 358 154 Q 454 264 470 477 Q 473 510 478 598 L 484 618 Q 484 622 487 629 C 493 652 493 652 483 655 Z" fill="lightgray"></path>
    
      <path d="M 669 524 L 673 577 L 677 599 L 680 612 L 684 627 Q 691 642 690 646 Q 688 650 678 655 Q 625 675 613 664 Q 608 658 617 642 Q 625 626 625 610 L 627 586 L 629 517 C 630 487 667 494 669 524 Z" fill="lightgray"></path>
    
      <path d="M 673 577 L 698 577 L 748 585 Q 815 596 817 606 Q 817 610 809 617 Q 801 624 791 629 Q 781 633 774 632 Q 767 631 753 624 L 730 616 L 677 599 C 648 590 643 577 673 577 Z" fill="lightgray"></path>
    
      <path d="M 669 493 L 780 512 L 791 512 Q 816 515 816 499 Q 816 492 803 472 L 793 457 Q 789 453 791 446 Q 792 444 803 449 L 822 460 Q 841 471 875 481 Q 916 491 919 504 Q 920 510 907 520 L 884 535 Q 874 542 854 551 Q 834 560 827 560.5 Q 820 561 797 553.5 Q 774 546 762 543 L 669 524 L 629 517 L 510 497 Q 482 491 482 484 Q 482 480 497 472 L 562 471 L 619 482 L 669 493 Z" fill="lightgray"></path>
    
      <path d="M 497 472 L 508 454 Q 512 449 509 399 Q 505 348 504 323 Q 502 297 485 250 Q 467 202 448 169 Q 429 136 380 86 L 365 71 Q 361 68 363 62 Q 365 56 374 62 L 392 75 Q 422 90 451 119 Q 480 148 492 166 Q 504 184 518 217 Q 550 286 556 377 L 559 398 L 562 418 Q 563 429 568 441 Q 573 453 571 455 Q 571 462 562 471 C 545 496 481 498 497 472 Z" fill="lightgray"></path>
    
      <path d="M 615 382 Q 622 382 624 384 L 626 384 L 667 390 L 708 397 Q 711 397 745 405 Q 778 412 778 426 Q 775 437 751 439 Q 727 441 712 435 Q 696 428 670 424 L 627 411 L 559 398 C 530 392 526 377 556 377 L 579 377 L 615 382 Z" fill="lightgray"></path>
    
      <path d="M 626 384 L 627 350 Q 627 335 638 323 Q 648 308 669 304 Q 727 293 770 300 Q 782 302 811 304 Q 840 305 857 315 Q 873 324 875 330 Q 876 335 864 346 Q 842 362 829 362 Q 816 362 792 353 Q 768 344 740 341 Q 674 329 667 362 Q 665 370 667 390 L 670 424 L 673 442 Q 675 449 682 463 Q 688 477 687 480 Q 686 482 682 486 Q 677 487 669 493 C 643 508 612 511 619 482 L 623 465 Q 626 453 627 442 L 627 411 L 626 384 Z" fill="lightgray"></path>
    
      <path d="M 476 27 Q 489 27 510 33 L 549 50 Q 609 82 627 190 Q 634 204 639 212 Q 644 220 644 230.5 Q 644 241 628 251.5 Q 612 262 604 264 Q 594 270 582 270 Q 571 272 570 268 Q 566 267 568 256 L 576 238 Q 588 198 560 122 Q 542 72 502 54 Q 482 41 470 40 L 455 35 Q 451 34 451 30 Q 452 26 458 26 L 476 27 Z" fill="lightgray"></path>
    
      <path d="M 707 108 Q 707 73 716 58 Q 725 43 744 29 Q 788 3 856 10 Q 877 14 908 24 Q 953 43 962 59.5 Q 971 76 964.5 84 Q 958 92 956 96 Q 947 105 929 141 L 923 162 Q 920 169 916 168 Q 910 166 910 158 L 908 132 Q 906 113 900 94 Q 896 84 879.5 74 Q 863 64 860 63 Q 843 60 813 61 Q 759 61 747 92 Q 742 107 757 187 Q 761 201 769.5 214 Q 778 227 778 233 Q 778 248 744 261 L 718 270 Q 698 272 698 262 Q 698 257 704.5 244 Q 711 231 711 209 L 710 203 L 709 195 L 707 108 Z" fill="lightgray"></path>
    
      <path d="M 154 598 L 175 568 L 200 536 Q 218 514 228 505 Q 238 496 252 506 Q 266 516 271.5 537 Q 277 558 265.5 576 Q 254 594 247 597 Q 240 600 219 608 L 191 618 L 149 629 Q 140 629 139 626 Q 135 619 140 615 L 154 598 Z" fill="lightgray"></path>
    
      <path d="M 193 227 Q 193 231 197 237 L 253 304 L 270 321 L 288 336 Q 297 345 298 350 Q 299 354 290 367 L 264 387 Q 254 395 243 400 Q 231 405 228 405 Q 225 404 208 395 Q 191 385 176 380 Q 174 378 159 372 L 135 362 L 100 352 L 82 348 Q 72 346 68 344 Q 63 340 72 331 Q 81 322 99 321 Q 117 319 138 323 Q 158 326 166 329 Q 174 332 178 333 L 191 337 Q 199 339 203 335 Q 207 325 203 321 Q 198 317 196 307 L 168 242 Q 160 229 164 222 Q 167 215 178 207 C 184 202 184 202 193 227 Z" fill="lightgray"></path>
    
      <path d="M 256 44 L 268 84 Q 272 95 271 122 Q 270 148 258 166 Q 246 183 228 198 L 204 215 Q 193 222 193 227 C 178 253 156 227 178 207 Q 189 199 215 157 Q 220 149 227 125 Q 233 100 232 88 L 230 54 L 229 44 C 226 14 247 15 256 44 Z" fill="lightgray"></path>
    
      <path d="M 86 38 L 84 38 Q 67 41 65 32 Q 64 28 68.5 15 Q 73 2 90 -9 Q 109 -28 123 -28 L 139 -20 Q 151 -14 165 -11 Q 250 9 316 -2 Q 341 -6 416 -34 L 510 -71 Q 514 -71 549 -86 L 592 -103 Q 680 -139 713 -150 Q 746 -161 768.5 -160 Q 791 -159 852 -134 L 927 -103 L 996 -77 Q 1010 -72 1006 -65 Q 1002 -58 990 -56 L 884 -56 Q 751 -56 675 -47.5 Q 599 -39 497 -12 L 418 12 Q 325 37 306.5 38.5 Q 288 40 256 44 L 229 44 L 200 40 Q 198 40 182 38 L 132 35 Q 95 35 86 38 Z" fill="lightgray"></path>
    
    
      <clipPath id="make-me-a-hanzi-clip-0">
        <path d="M 487 629 L 772 740 Q 781 744 797 746 Q 813 748 816 753 Q 819 758 815 767 Q 810 776 800 784 L 779 801 Q 765 812 755 814 Q 742 824 726 804 Q 710 784 693 772 Q 676 759 618 725 Q 559 690 553 688 L 483 655 C 456 642 459 618 487 629 Z"></path>
      </clipPath>
      <path clip-path="url(#make-me-a-hanzi-clip-0)" d="M 807 759 L 750 773 L 629 706 L 509 654 L 492 636" fill="none" id="make-me-a-hanzi-animation-0" stroke-dasharray="481 962" stroke-linecap="round"></path>
    
      <clipPath id="make-me-a-hanzi-clip-1">
        <path d="M 483 655 L 432 671 Q 416 675 410 671 Q 403 666 403 660 Q 402 653 413 634 Q 423 614 422 582 Q 420 447 405 373 Q 395 311 381 273 Q 367 235 345 195 L 291 109 Q 285 101 288 96 Q 292 92 301 100 L 323 119 L 358 154 Q 454 264 470 477 Q 473 510 478 598 L 484 618 Q 484 622 487 629 C 493 652 493 652 483 655 Z"></path>
      </clipPath>
      <path clip-path="url(#make-me-a-hanzi-clip-1)" d="M 417 658 L 451 629 L 441 433 L 427 349 L 411 290 L 384 225 L 343 160 L 293 102" fill="none" id="make-me-a-hanzi-animation-1" stroke-dasharray="739 1478" stroke-linecap="round"></path>
    
      <clipPath id="make-me-a-hanzi-clip-2">
        <path d="M 669 524 L 673 577 L 677 599 L 680 612 L 684 627 Q 691 642 690 646 Q 688 650 678 655 Q 625 675 613 664 Q 608 658 617 642 Q 625 626 625 610 L 627 586 L 629 517 C 630 487 667 494 669 524 Z"></path>
      </clipPath>
      <path clip-path="url(#make-me-a-hanzi-clip-2)" d="M 620 658 L 654 627 L 649 542 L 635 524" fill="none" id="make-me-a-hanzi-animation-2" stroke-dasharray="282 564" stroke-linecap="round"></path>
    
      <clipPath id="make-me-a-hanzi-clip-3">
        <path d="M 673 577 L 698 577 L 748 585 Q 815 596 817 606 Q 817 610 809 617 Q 801 624 791 629 Q 781 633 774 632 Q 767 631 753 624 L 730 616 L 677 599 C 648 590 643 577 673 577 Z"></path>
      </clipPath>
      <path clip-path="url(#make-me-a-hanzi-clip-3)" d="M 679 582 L 688 590 L 775 611 L 809 609" fill="none" id="make-me-a-hanzi-animation-3" stroke-dasharray="264 528" stroke-linecap="round"></path>
    
      <clipPath id="make-me-a-hanzi-clip-4">
        <path d="M 669 493 L 780 512 L 791 512 Q 816 515 816 499 Q 816 492 803 472 L 793 457 Q 789 453 791 446 Q 792 444 803 449 L 822 460 Q 841 471 875 481 Q 916 491 919 504 Q 920 510 907 520 L 884 535 Q 874 542 854 551 Q 834 560 827 560.5 Q 820 561 797 553.5 Q 774 546 762 543 L 669 524 L 629 517 L 510 497 Q 482 491 482 484 Q 482 480 497 472 L 562 471 L 619 482 L 669 493 Z"></path>
      </clipPath>
      <path clip-path="url(#make-me-a-hanzi-clip-4)" d="M 488 485 L 556 487 L 758 526 L 825 533 L 851 512 L 796 451" fill="none" id="make-me-a-hanzi-animation-4" stroke-dasharray="585 1170" stroke-linecap="round"></path>
    
      <clipPath id="make-me-a-hanzi-clip-5">
        <path d="M 497 472 L 508 454 Q 512 449 509 399 Q 505 348 504 323 Q 502 297 485 250 Q 467 202 448 169 Q 429 136 380 86 L 365 71 Q 361 68 363 62 Q 365 56 374 62 L 392 75 Q 422 90 451 119 Q 480 148 492 166 Q 504 184 518 217 Q 550 286 556 377 L 559 398 L 562 418 Q 563 429 568 441 Q 573 453 571 455 Q 571 462 562 471 C 545 496 481 498 497 472 Z"></path>
      </clipPath>
      <path clip-path="url(#make-me-a-hanzi-clip-5)" d="M 503 470 L 539 443 L 525 311 L 511 257 L 478 181 L 458 150 L 415 103 L 369 66" fill="none" id="make-me-a-hanzi-animation-5" stroke-dasharray="604 1208" stroke-linecap="round"></path>
    
      <clipPath id="make-me-a-hanzi-clip-6">
        <path d="M 615 382 Q 622 382 624 384 L 626 384 L 667 390 L 708 397 Q 711 397 745 405 Q 778 412 778 426 Q 775 437 751 439 Q 727 441 712 435 Q 696 428 670 424 L 627 411 L 559 398 C 530 392 526 377 556 377 L 579 377 L 615 382 Z"></path>
      </clipPath>
      <path clip-path="url(#make-me-a-hanzi-clip-6)" d="M 562 382 L 570 389 L 768 425" fill="none" id="make-me-a-hanzi-animation-6" stroke-dasharray="340 680" stroke-linecap="round"></path>
    
      <clipPath id="make-me-a-hanzi-clip-7">
        <path d="M 626 384 L 627 350 Q 627 335 638 323 Q 648 308 669 304 Q 727 293 770 300 Q 782 302 811 304 Q 840 305 857 315 Q 873 324 875 330 Q 876 335 864 346 Q 842 362 829 362 Q 816 362 792 353 Q 768 344 740 341 Q 674 329 667 362 Q 665 370 667 390 L 670 424 L 673 442 Q 675 449 682 463 Q 688 477 687 480 Q 686 482 682 486 Q 677 487 669 493 C 643 508 612 511 619 482 L 623 465 Q 626 453 627 442 L 627 411 L 626 384 Z"></path>
      </clipPath>
      <path clip-path="url(#make-me-a-hanzi-clip-7)" d="M 678 478 L 651 461 L 647 356 L 658 333 L 710 318 L 834 334 L 866 331" fill="none" id="make-me-a-hanzi-animation-7" stroke-dasharray="502 1004" stroke-linecap="round"></path>
    
      <clipPath id="make-me-a-hanzi-clip-8">
        <path d="M 476 27 Q 489 27 510 33 L 549 50 Q 609 82 627 190 Q 634 204 639 212 Q 644 220 644 230.5 Q 644 241 628 251.5 Q 612 262 604 264 Q 594 270 582 270 Q 571 272 570 268 Q 566 267 568 256 L 576 238 Q 588 198 560 122 Q 542 72 502 54 Q 482 41 470 40 L 455 35 Q 451 34 451 30 Q 452 26 458 26 L 476 27 Z"></path>
      </clipPath>
      <path clip-path="url(#make-me-a-hanzi-clip-8)" d="M 577 261 L 610 223 L 580 111 L 537 59 L 501 41 L 456 30" fill="none" id="make-me-a-hanzi-animation-8" stroke-dasharray="448 896" stroke-linecap="round"></path>
    
      <clipPath id="make-me-a-hanzi-clip-9">
        <path d="M 707 108 Q 707 73 716 58 Q 725 43 744 29 Q 788 3 856 10 Q 877 14 908 24 Q 953 43 962 59.5 Q 971 76 964.5 84 Q 958 92 956 96 Q 947 105 929 141 L 923 162 Q 920 169 916 168 Q 910 166 910 158 L 908 132 Q 906 113 900 94 Q 896 84 879.5 74 Q 863 64 860 63 Q 843 60 813 61 Q 759 61 747 92 Q 742 107 757 187 Q 761 201 769.5 214 Q 778 227 778 233 Q 778 248 744 261 L 718 270 Q 698 272 698 262 Q 698 257 704.5 244 Q 711 231 711 209 L 710 203 L 709 195 L 707 108 Z"></path>
      </clipPath>
      <path clip-path="url(#make-me-a-hanzi-clip-9)" d="M 707 261 L 741 229 L 732 187 L 727 87 L 737 66 L 770 42 L 831 34 L 867 38 L 917 63 L 929 79 L 916 161" fill="none" id="make-me-a-hanzi-animation-9" stroke-dasharray="639 1278" stroke-linecap="round"></path>
    
      <clipPath id="make-me-a-hanzi-clip-10">
        <path d="M 154 598 L 175 568 L 200 536 Q 218 514 228 505 Q 238 496 252 506 Q 266 516 271.5 537 Q 277 558 265.5 576 Q 254 594 247 597 Q 240 600 219 608 L 191 618 L 149 629 Q 140 629 139 626 Q 135 619 140 615 L 154 598 Z"></path>
      </clipPath>
      <path clip-path="url(#make-me-a-hanzi-clip-10)" d="M 146 621 L 230 561 L 240 534 L 239 518" fill="none" id="make-me-a-hanzi-animation-10" stroke-dasharray="276 552" stroke-linecap="round"></path>
    
      <clipPath id="make-me-a-hanzi-clip-11">
        <path d="M 193 227 Q 193 231 197 237 L 253 304 L 270 321 L 288 336 Q 297 345 298 350 Q 299 354 290 367 L 264 387 Q 254 395 243 400 Q 231 405 228 405 Q 225 404 208 395 Q 191 385 176 380 Q 174 378 159 372 L 135 362 L 100 352 L 82 348 Q 72 346 68 344 Q 63 340 72 331 Q 81 322 99 321 Q 117 319 138 323 Q 158 326 166 329 Q 174 332 178 333 L 191 337 Q 199 339 203 335 Q 207 325 203 321 Q 198 317 196 307 L 168 242 Q 160 229 164 222 Q 167 215 178 207 C 184 202 184 202 193 227 Z"></path>
      </clipPath>
      <path clip-path="url(#make-me-a-hanzi-clip-11)" d="M 77 340 L 106 336 L 217 364 L 231 363 L 241 352 L 229 315 L 183 243 L 177 215" fill="none" id="make-me-a-hanzi-animation-11" stroke-dasharray="454 908" stroke-linecap="round"></path>
    
      <clipPath id="make-me-a-hanzi-clip-12">
        <path d="M 256 44 L 268 84 Q 272 95 271 122 Q 270 148 258 166 Q 246 183 228 198 L 204 215 Q 193 222 193 227 C 178 253 156 227 178 207 Q 189 199 215 157 Q 220 149 227 125 Q 233 100 232 88 L 230 54 L 229 44 C 226 14 247 15 256 44 Z"></path>
      </clipPath>
      <path clip-path="url(#make-me-a-hanzi-clip-12)" d="M 195 217 L 194 208 L 238 159 L 249 127 L 247 68 L 236 48" fill="none" id="make-me-a-hanzi-animation-12" stroke-dasharray="319 638" stroke-linecap="round"></path>
    
      <clipPath id="make-me-a-hanzi-clip-13">
        <path d="M 86 38 L 84 38 Q 67 41 65 32 Q 64 28 68.5 15 Q 73 2 90 -9 Q 109 -28 123 -28 L 139 -20 Q 151 -14 165 -11 Q 250 9 316 -2 Q 341 -6 416 -34 L 510 -71 Q 514 -71 549 -86 L 592 -103 Q 680 -139 713 -150 Q 746 -161 768.5 -160 Q 791 -159 852 -134 L 927 -103 L 996 -77 Q 1010 -72 1006 -65 Q 1002 -58 990 -56 L 884 -56 Q 751 -56 675 -47.5 Q 599 -39 497 -12 L 418 12 Q 325 37 306.5 38.5 Q 288 40 256 44 L 229 44 L 200 40 Q 198 40 182 38 L 132 35 Q 95 35 86 38 Z"></path>
      </clipPath>
      <path clip-path="url(#make-me-a-hanzi-clip-13)" d="M 74 29 L 91 16 L 121 6 L 225 22 L 334 14 L 614 -75 L 747 -106 L 808 -102 L 997 -68" fill="none" id="make-me-a-hanzi-animation-13" stroke-dasharray="1079 2158" stroke-linecap="round"></path>
    
  </g>
</svg>