<svg xmlns="http://www.w3.org/2000/svg" version="1.1" viewBox="0 0 1024 1024">
  <g stroke="lightgray" stroke-dasharray="1,1" stroke-width="1" transform="scale(4, 4)">
    <line x1="0" y1="0" x2="256" y2="256" />
    <line x1="256" y1="0" x2="0" y2="256" />
    <line x1="128" y1="0" x2="128" y2="256" />
    <line x1="0" y1="128" x2="256" y2="128" />
  </g>
  <g transform="scale(1.0, -1.0) translate(0.0, -813.00)">
    <style type="text/css">
      
        @keyframes keyframes0 {
          from {
            stroke: blue;
            stroke-dashoffset: 665;
            stroke-width: 128;
          }
          68% {
            animation-timing-function: step-end;
            stroke: blue;
            stroke-dashoffset: 0;
            stroke-width: 128;
          }
          to {
            stroke: black;
            stroke-width: 1024;
          }
        }
        #make-me-a-hanzi-animation-0 {
          animation: keyframes0 0.7911783854166666s both;
          animation-delay: 0s;
          animation-timing-function: linear;
        }
      
        @keyframes keyframes1 {
          from {
            stroke: blue;
            stroke-dashoffset: 488;
            stroke-width: 128;
          }
          61% {
            animation-timing-function: step-end;
            stroke: blue;
            stroke-dashoffset: 0;
            stroke-width: 128;
          }
          to {
            stroke: black;
            stroke-width: 1024;
          }
        }
        #make-me-a-hanzi-animation-1 {
          animation: keyframes1 0.6471354166666666s both;
          animation-delay: 0.7911783854166666s;
          animation-timing-function: linear;
        }
      
        @keyframes keyframes2 {
          from {
            stroke: blue;
            stroke-dashoffset: 846;
            stroke-width: 128;
          }
          73% {
            animation-timing-function: step-end;
            stroke: blue;
            stroke-dashoffset: 0;
            stroke-width: 128;
          }
          to {
            stroke: black;
            stroke-width: 1024;
          }
        }
        #make-me-a-hanzi-animation-2 {
          animation: keyframes2 0.9384765625s both;
          animation-delay: 1.4383138020833333s;
          animation-timing-function: linear;
        }
      
        @keyframes keyframes3 {
          from {
            stroke: blue;
            stroke-dashoffset: 566;
            stroke-width: 128;
          }
          65% {
            animation-timing-function: step-end;
            stroke: blue;
            stroke-dashoffset: 0;
            stroke-width: 128;
          }
          to {
            stroke: black;
            stroke-width: 1024;
          }
        }
        #make-me-a-hanzi-animation-3 {
          animation: keyframes3 0.7106119791666666s both;
          animation-delay: 2.376790364583333s;
          animation-timing-function: linear;
        }
      
        @keyframes keyframes4 {
          from {
            stroke: blue;
            stroke-dashoffset: 641;
            stroke-width: 128;
          }
          68% {
            animation-timing-function: step-end;
            stroke: blue;
            stroke-dashoffset: 0;
            stroke-width: 128;
          }
          to {
            stroke: black;
            stroke-width: 1024;
          }
        }
        #make-me-a-hanzi-animation-4 {
          animation: keyframes4 0.7716471354166666s both;
          animation-delay: 3.0874023437499996s;
          animation-timing-function: linear;
        }
      
        @keyframes keyframes5 {
          from {
            stroke: blue;
            stroke-dashoffset: 653;
            stroke-width: 128;
          }
          68% {
            animation-timing-function: step-end;
            stroke: blue;
            stroke-dashoffset: 0;
            stroke-width: 128;
          }
          to {
            stroke: black;
            stroke-width: 1024;
          }
        }
        #make-me-a-hanzi-animation-5 {
          animation: keyframes5 0.7814127604166666s both;
          animation-delay: 3.859049479166666s;
          animation-timing-function: linear;
        }
      
        @keyframes keyframes6 {
          from {
            stroke: blue;
            stroke-dashoffset: 541;
            stroke-width: 128;
          }
          64% {
            animation-timing-function: step-end;
            stroke: blue;
            stroke-dashoffset: 0;
            stroke-width: 128;
          }
          to {
            stroke: black;
            stroke-width: 1024;
          }
        }
        #make-me-a-hanzi-animation-6 {
          animation: keyframes6 0.6902669270833334s both;
          animation-delay: 4.640462239583333s;
          animation-timing-function: linear;
        }
      
        @keyframes keyframes7 {
          from {
            stroke: blue;
            stroke-dashoffset: 520;
            stroke-width: 128;
          }
          63% {
            animation-timing-function: step-end;
            stroke: blue;
            stroke-dashoffset: 0;
            stroke-width: 128;
          }
          to {
            stroke: black;
            stroke-width: 1024;
          }
        }
        #make-me-a-hanzi-animation-7 {
          animation: keyframes7 0.6731770833333334s both;
          animation-delay: 5.330729166666666s;
          animation-timing-function: linear;
        }
      
        @keyframes keyframes8 {
          from {
            stroke: blue;
            stroke-dashoffset: 716;
            stroke-width: 128;
          }
          70% {
            animation-timing-function: step-end;
            stroke: blue;
            stroke-dashoffset: 0;
            stroke-width: 128;
          }
          to {
            stroke: black;
            stroke-width: 1024;
          }
        }
        #make-me-a-hanzi-animation-8 {
          animation: keyframes8 0.8326822916666666s both;
          animation-delay: 6.003906249999999s;
          animation-timing-function: linear;
        }
      
        @keyframes keyframes9 {
          from {
            stroke: blue;
            stroke-dashoffset: 429;
            stroke-width: 128;
          }
          58% {
            animation-timing-function: step-end;
            stroke: blue;
            stroke-dashoffset: 0;
            stroke-width: 128;
          }
          to {
            stroke: black;
            stroke-width: 1024;
          }
        }
        #make-me-a-hanzi-animation-9 {
          animation: keyframes9 0.59912109375s both;
          animation-delay: 6.836588541666666s;
          animation-timing-function: linear;
        }
      
        @keyframes keyframes10 {
          from {
            stroke: blue;
            stroke-dashoffset: 428;
            stroke-width: 128;
          }
          58% {
            animation-timing-function: step-end;
            stroke: blue;
            stroke-dashoffset: 0;
            stroke-width: 128;
          }
          to {
            stroke: black;
            stroke-width: 1024;
          }
        }
        #make-me-a-hanzi-animation-10 {
          animation: keyframes10 0.5983072916666666s both;
          animation-delay: 7.435709635416666s;
          animation-timing-function: linear;
        }
      
        @keyframes keyframes11 {
          from {
            stroke: blue;
            stroke-dashoffset: 393;
            stroke-width: 128;
          }
          56% {
            animation-timing-function: step-end;
            stroke: blue;
            stroke-dashoffset: 0;
            stroke-width: 128;
          }
          to {
            stroke: black;
            stroke-width: 1024;
          }
        }
        #make-me-a-hanzi-animation-11 {
          animation: keyframes11 0.56982421875s both;
          animation-delay: 8.034016927083332s;
          animation-timing-function: linear;
        }
      
        @keyframes keyframes12 {
          from {
            stroke: blue;
            stroke-dashoffset: 567;
            stroke-width: 128;
          }
          65% {
            animation-timing-function: step-end;
            stroke: blue;
            stroke-dashoffset: 0;
            stroke-width: 128;
          }
          to {
            stroke: black;
            stroke-width: 1024;
          }
        }
        #make-me-a-hanzi-animation-12 {
          animation: keyframes12 0.71142578125s both;
          animation-delay: 8.603841145833332s;
          animation-timing-function: linear;
        }
      
        @keyframes keyframes13 {
          from {
            stroke: blue;
            stroke-dashoffset: 440;
            stroke-width: 128;
          }
          59% {
            animation-timing-function: step-end;
            stroke: blue;
            stroke-dashoffset: 0;
            stroke-width: 128;
          }
          to {
            stroke: black;
            stroke-width: 1024;
          }
        }
        #make-me-a-hanzi-animation-13 {
          animation: keyframes13 0.6080729166666666s both;
          animation-delay: 9.315266927083332s;
          animation-timing-function: linear;
        }
      
        @keyframes keyframes14 {
          from {
            stroke: blue;
            stroke-dashoffset: 1170;
            stroke-width: 128;
          }
          79% {
            animation-timing-function: step-end;
            stroke: blue;
            stroke-dashoffset: 0;
            stroke-width: 128;
          }
          to {
            stroke: black;
            stroke-width: 1024;
          }
        }
        #make-me-a-hanzi-animation-14 {
          animation: keyframes14 1.2021484375s both;
          animation-delay: 9.923339843749998s;
          animation-timing-function: linear;
        }
      
    </style>
    
      <path d="M 692 602 L 786 620 Q 800 623 806 627 Q 812 632 812 636 Q 812 642 803 648 Q 794 655 779 660 Q 765 664 757 664 Q 750 664 737 661 Q 724 658 698 651 L 636 638 L 554 625 L 501 616 L 414 608 L 397 606 Q 389 604 388 599 L 388 597 Q 388 593 393 588 Q 400 582 414 579 Q 428 577 444 576 L 450 576 Q 467 576 502 580 L 554 584 L 636 596 L 692 602 Z" fill="lightgray" />
    
      <path d="M 422 514 L 394 520 Q 375 523 369 523 Q 365 523 365 522 Q 361 518 361 514 L 361 512 Q 362 507 372 498 Q 382 489 388 475 Q 394 460 398 431 L 410 352 Q 412 336 414 323 Q 418 310 424 302 Q 430 294 436 294 Q 442 294 446 301 Q 450 308 452 315 L 450 343 L 444 404 L 440 429 L 433 488 C 430 512 430 512 422 514 Z" fill="lightgray" />
    
      <path d="M 506 521 L 422 514 C 392 512 403 486 433 488 L 508 494 L 554 498 L 632 509 L 684 516 L 726 522 Q 743 524 750 524 L 754 524 Q 766 521 770 514 Q 772 511 772 505 Q 772 499 770 490 L 762 457 L 758 437 L 741 370 C 734 341 733 338 734 337 L 741 328 Q 746 320 756 318 L 760 318 Q 766 318 774 323 Q 783 330 790 344 L 801 374 L 828 450 Q 832 458 839 474 Q 847 490 853 498 Q 864 512 864 518 Q 864 524 854 534 Q 844 544 826 553 Q 809 562 796 568 Q 782 572 772 572 Q 768 571 754 566 Q 741 562 718 557 L 686 551 L 634 538 L 554 527 L 506 521 Z" fill="lightgray" />
    
      <path d="M 512 438 L 440 429 C 410 425 414 403 444 404 L 512 407 L 556 410 L 628 419 L 674 426 L 758 437 C 788 441 789 444 762 457 L 741 467 Q 734 470 724 471 Q 718 471 707 470 Q 696 468 678 466 L 630 455 L 556 444 L 512 438 Z" fill="lightgray" />
    
      <path d="M 502 580 L 506 521 L 508 494 L 512 438 L 512 407 L 516 348 C 518 318 556 322 556 352 L 556 410 L 556 444 L 554 498 L 554 527 L 554 584 L 554 625 L 554 649 Q 554 660 556 668 Q 558 676 564 690 Q 567 698 567 703 L 567 706 Q 566 712 554 718 Q 542 724 526 726 Q 510 729 498 730 Q 494 731 491 731 Q 485 731 482 728 Q 478 724 478 718 Q 478 712 487 696 Q 496 680 498 661 L 501 616 L 502 580 Z" fill="lightgray" />
    
      <path d="M 686 551 L 692 602 L 698 651 L 702 674 Q 704 686 710 698 Q 716 710 717 713 Q 718 715 718 717 Q 718 719 717 721 Q 716 726 704 733 Q 692 740 681 744 L 657 753 Q 644 757 640 758 Q 632 758 628 754 Q 624 751 624 742 L 634 714 Q 636 706 636 680 L 636 638 L 636 596 L 634 538 L 632 509 L 630 455 L 628 419 L 627 360 C 626 330 664 336 667 366 L 674 426 L 678 466 L 684 516 L 686 551 Z" fill="lightgray" />
    
      <path d="M 452 315 L 734 337 C 764 339 771 372 741 370 L 667 366 L 627 360 L 556 352 L 516 348 L 450 343 C 420 341 422 313 452 315 Z" fill="lightgray" />
    
      <path d="M 500 258 L 478 268 Q 466 273 460 273 Q 458 273 456 272 Q 452 268 450 263 Q 450 258 457 242 Q 464 226 465 204 L 465 162 L 463 120 Q 462 100 457 80 Q 452 61 452 59 L 452 55 Q 452 47 455 36 Q 459 22 464 13 Q 470 -2 477 -2 Q 483 -2 488 7 L 494 18 L 498 28 L 496 58 L 500 136 L 500 158 L 504 232 C 505 256 505 256 500 258 Z" fill="lightgray" />
    
      <path d="M 676 36 L 688 10 Q 694 -4 700 -5 L 702 -5 Q 707 -5 711 -2 Q 716 2 722 11 Q 729 20 733 36 Q 737 49 737 66 L 737 73 L 734 170 Q 734 198 736 212 Q 740 226 747 240 Q 752 249 752 254 Q 751 258 744 263 Q 738 268 722 277 Q 706 286 700 289 Q 692 292 684 292 Q 676 292 659 287 Q 642 282 609 276 Q 576 270 575 270 L 500 258 C 470 253 474 228 504 232 L 624 250 Q 643 253 654 253 Q 659 253 663 252 Q 674 250 679 241 L 680 215 L 682 169 L 682 148 L 682 60 C 682 30 670 49 676 36 Z" fill="lightgray" />
    
      <path d="M 500 136 L 512 134 L 534 131 L 541 131 Q 551 131 566 133 L 602 138 L 682 148 C 712 152 710 158 682 169 L 666 175 Q 656 179 647 179 L 645 179 Q 633 179 590 172 L 500 158 C 470 153 470 141 500 136 Z" fill="lightgray" />
    
      <path d="M 498 28 L 676 36 C 706 37 708 45 682 60 L 672 66 Q 667 70 658 70 Q 654 71 647 71 Q 637 71 618 69 L 496 58 C 466 55 468 27 498 28 Z" fill="lightgray" />
    
      <path d="M 145 584 Q 156 570 166 555 L 189 526 Q 200 512 210 502 Q 220 493 228 493 L 230 493 Q 236 493 244 500 Q 252 506 256 522 Q 259 532 259 540 Q 259 546 258 550 Q 254 562 248 570 Q 242 578 231 584 Q 220 590 208 594 L 181 604 L 156 610 L 140 614 Q 136 614 134 613 Q 132 612 131 608 L 131 607 Q 131 605 134 600 L 145 584 Z" fill="lightgray" />
    
      <path d="M 204 218 Q 204 221 208 228 Q 212 234 220 244 L 258 292 Q 262 300 274 310 L 290 324 Q 298 332 299 338 L 299 339 Q 299 345 291 354 Q 282 363 270 371 L 247 384 Q 236 388 230 388 Q 225 387 213 378 Q 201 370 179 360 L 142 344 Q 126 338 112 334 L 94 329 L 81 326 Q 77 324 77 322 L 77 321 Q 77 318 82 313 Q 87 309 94 306 Q 102 304 114 304 Q 122 303 128 303 Q 134 303 138 304 Q 148 306 163 310 Q 178 314 186 318 Q 194 321 198 322 L 202 322 Q 207 322 208 320 Q 209 319 209 317 Q 209 314 208 310 L 202 294 L 178 230 Q 175 223 175 218 L 175 215 Q 175 213 176 210 Q 177 208 186 201 C 194 194 194 194 204 218 Z" fill="lightgray" />
    
      <path d="M 265 44 L 274 71 Q 282 92 282 114 L 282 119 Q 280 142 269 160 Q 257 176 238 190 L 214 206 Q 204 212 204 218 C 193 246 164 221 186 201 Q 194 194 210 176 L 230 149 Q 234 141 239 122 Q 244 100 244 82 Q 243 64 242 44 C 240 14 256 16 265 44 Z" fill="lightgray" />
    
      <path d="M 242 44 L 224 43 Q 221 42 192 40 Q 164 36 150 35 Q 138 34 129 34 Q 124 34 107 35 Q 90 36 83 38 Q 79 39 76 39 Q 74 39 72 38 Q 66 36 64 32 L 64 29 Q 64 25 66 20 Q 68 14 75 6 Q 81 -2 88 -9 Q 96 -16 105 -22 Q 112 -26 118 -26 L 120 -26 Q 125 -26 136 -20 Q 148 -14 161 -10 Q 174 -7 200 -3 Q 226 2 254 2 Q 277 2 300 -2 Q 322 -5 343 -12 Q 364 -18 384 -26 L 472 -62 L 594 -112 Q 646 -134 677 -146 Q 705 -156 725 -156 L 728 -156 Q 742 -156 762 -150 L 820 -129 L 885 -104 Q 912 -94 926 -88 L 952 -74 Q 962 -69 962 -64 Q 962 -63 961 -62 Q 958 -56 946 -55 L 902 -54 Q 894 -54 847 -55 Q 800 -55 751 -53 Q 703 -52 657 -47 Q 612 -42 567 -33 Q 522 -24 488 -14 L 408 10 Q 361 26 341 31 Q 322 36 306 39 Q 292 42 286 43 Q 280 44 265 44 L 242 44 Z" fill="lightgray" />
    
    
      <clipPath id="make-me-a-hanzi-clip-0">
        <path d="M 692 602 L 786 620 Q 800 623 806 627 Q 812 632 812 636 Q 812 642 803 648 Q 794 655 779 660 Q 765 664 757 664 Q 750 664 737 661 Q 724 658 698 651 L 636 638 L 554 625 L 501 616 L 414 608 L 397 606 Q 389 604 388 599 L 388 597 Q 388 593 393 588 Q 400 582 414 579 Q 428 577 444 576 L 450 576 Q 467 576 502 580 L 554 584 L 636 596 L 692 602 Z" />
      </clipPath>
      <path clip-path="url(#make-me-a-hanzi-clip-0)" d="M 396 598 L 437 593 L 492 596 L 747 638 L 801 637" fill="none" id="make-me-a-hanzi-animation-0" stroke-dasharray="537 1074" stroke-linecap="round" />
    
      <clipPath id="make-me-a-hanzi-clip-1">
        <path d="M 422 514 L 394 520 Q 375 523 369 523 Q 365 523 365 522 Q 361 518 361 514 L 361 512 Q 362 507 372 498 Q 382 489 388 475 Q 394 460 398 431 L 410 352 Q 412 336 414 323 Q 418 310 424 302 Q 430 294 436 294 Q 442 294 446 301 Q 450 308 452 315 L 450 343 L 444 404 L 440 429 L 433 488 C 430 512 430 512 422 514 Z" />
      </clipPath>
      <path clip-path="url(#make-me-a-hanzi-clip-1)" d="M 369 515 L 397 500 L 409 486 L 435 306" fill="none" id="make-me-a-hanzi-animation-1" stroke-dasharray="360 720" stroke-linecap="round" />
    
      <clipPath id="make-me-a-hanzi-clip-2">
        <path d="M 506 521 L 422 514 C 392 512 403 486 433 488 L 508 494 L 554 498 L 632 509 L 684 516 L 726 522 Q 743 524 750 524 L 754 524 Q 766 521 770 514 Q 772 511 772 505 Q 772 499 770 490 L 762 457 L 758 437 L 741 370 C 734 341 733 338 734 337 L 741 328 Q 746 320 756 318 L 760 318 Q 766 318 774 323 Q 783 330 790 344 L 801 374 L 828 450 Q 832 458 839 474 Q 847 490 853 498 Q 864 512 864 518 Q 864 524 854 534 Q 844 544 826 553 Q 809 562 796 568 Q 782 572 772 572 Q 768 571 754 566 Q 741 562 718 557 L 686 551 L 634 538 L 554 527 L 506 521 Z" />
      </clipPath>
      <path clip-path="url(#make-me-a-hanzi-clip-2)" d="M 429 509 L 454 502 L 530 509 L 755 545 L 783 542 L 813 513 L 762 348 L 747 340" fill="none" id="make-me-a-hanzi-animation-2" stroke-dasharray="718 1436" stroke-linecap="round" />
    
      <clipPath id="make-me-a-hanzi-clip-3">
        <path d="M 512 438 L 440 429 C 410 425 414 403 444 404 L 512 407 L 556 410 L 628 419 L 674 426 L 758 437 C 788 441 789 444 762 457 L 741 467 Q 734 470 724 471 Q 718 471 707 470 Q 696 468 678 466 L 630 455 L 556 444 L 512 438 Z" />
      </clipPath>
      <path clip-path="url(#make-me-a-hanzi-clip-3)" d="M 448 424 L 455 418 L 505 421 L 754 453" fill="none" id="make-me-a-hanzi-animation-3" stroke-dasharray="438 876" stroke-linecap="round" />
    
      <clipPath id="make-me-a-hanzi-clip-4">
        <path d="M 502 580 L 506 521 L 508 494 L 512 438 L 512 407 L 516 348 C 518 318 556 322 556 352 L 556 410 L 556 444 L 554 498 L 554 527 L 554 584 L 554 625 L 554 649 Q 554 660 556 668 Q 558 676 564 690 Q 567 698 567 703 L 567 706 Q 566 712 554 718 Q 542 724 526 726 Q 510 729 498 730 Q 494 731 491 731 Q 485 731 482 728 Q 478 724 478 718 Q 478 712 487 696 Q 496 680 498 661 L 501 616 L 502 580 Z" />
      </clipPath>
      <path clip-path="url(#make-me-a-hanzi-clip-4)" d="M 490 719 L 527 689 L 535 374 L 522 356" fill="none" id="make-me-a-hanzi-animation-4" stroke-dasharray="513 1026" stroke-linecap="round" />
    
      <clipPath id="make-me-a-hanzi-clip-5">
        <path d="M 686 551 L 692 602 L 698 651 L 702 674 Q 704 686 710 698 Q 716 710 717 713 Q 718 715 718 717 Q 718 719 717 721 Q 716 726 704 733 Q 692 740 681 744 L 657 753 Q 644 757 640 758 Q 632 758 628 754 Q 624 751 624 742 L 634 714 Q 636 706 636 680 L 636 638 L 636 596 L 634 538 L 632 509 L 630 455 L 628 419 L 627 360 C 626 330 664 336 667 366 L 674 426 L 678 466 L 684 516 L 686 551 Z" />
      </clipPath>
      <path clip-path="url(#make-me-a-hanzi-clip-5)" d="M 638 744 L 673 707 L 649 391 L 633 367" fill="none" id="make-me-a-hanzi-animation-5" stroke-dasharray="525 1050" stroke-linecap="round" />
    
      <clipPath id="make-me-a-hanzi-clip-6">
        <path d="M 452 315 L 734 337 C 764 339 771 372 741 370 L 667 366 L 627 360 L 556 352 L 516 348 L 450 343 C 420 341 422 313 452 315 Z" />
      </clipPath>
      <path clip-path="url(#make-me-a-hanzi-clip-6)" d="M 457 336 L 465 330 L 490 331 L 709 351 L 726 356 L 734 366" fill="none" id="make-me-a-hanzi-animation-6" stroke-dasharray="413 826" stroke-linecap="round" />
    
      <clipPath id="make-me-a-hanzi-clip-7">
        <path d="M 500 258 L 478 268 Q 466 273 460 273 Q 458 273 456 272 Q 452 268 450 263 Q 450 258 457 242 Q 464 226 465 204 L 465 162 L 463 120 Q 462 100 457 80 Q 452 61 452 59 L 452 55 Q 452 47 455 36 Q 459 22 464 13 Q 470 -2 477 -2 Q 483 -2 488 7 L 494 18 L 498 28 L 496 58 L 500 136 L 500 158 L 504 232 C 505 256 505 256 500 258 Z" />
      </clipPath>
      <path clip-path="url(#make-me-a-hanzi-clip-7)" d="M 461 263 L 480 243 L 484 226 L 474 58 L 478 8" fill="none" id="make-me-a-hanzi-animation-7" stroke-dasharray="392 784" stroke-linecap="round" />
    
      <clipPath id="make-me-a-hanzi-clip-8">
        <path d="M 676 36 L 688 10 Q 694 -4 700 -5 L 702 -5 Q 707 -5 711 -2 Q 716 2 722 11 Q 729 20 733 36 Q 737 49 737 66 L 737 73 L 734 170 Q 734 198 736 212 Q 740 226 747 240 Q 752 249 752 254 Q 751 258 744 263 Q 738 268 722 277 Q 706 286 700 289 Q 692 292 684 292 Q 676 292 659 287 Q 642 282 609 276 Q 576 270 575 270 L 500 258 C 470 253 474 228 504 232 L 624 250 Q 643 253 654 253 Q 659 253 663 252 Q 674 250 679 241 L 680 215 L 682 169 L 682 148 L 682 60 C 682 30 670 49 676 36 Z" />
      </clipPath>
      <path clip-path="url(#make-me-a-hanzi-clip-8)" d="M 509 253 L 515 247 L 671 271 L 689 267 L 713 244 L 707 193 L 710 60 L 701 3" fill="none" id="make-me-a-hanzi-animation-8" stroke-dasharray="588 1176" stroke-linecap="round" />
    
      <clipPath id="make-me-a-hanzi-clip-9">
        <path d="M 500 136 L 512 134 L 534 131 L 541 131 Q 551 131 566 133 L 602 138 L 682 148 C 712 152 710 158 682 169 L 666 175 Q 656 179 647 179 L 645 179 Q 633 179 590 172 L 500 158 C 470 153 470 141 500 136 Z" />
      </clipPath>
      <path clip-path="url(#make-me-a-hanzi-clip-9)" d="M 507 142 L 513 147 L 642 161 L 665 160 L 675 153" fill="none" id="make-me-a-hanzi-animation-9" stroke-dasharray="301 602" stroke-linecap="round" />
    
      <clipPath id="make-me-a-hanzi-clip-10">
        <path d="M 498 28 L 676 36 C 706 37 708 45 682 60 L 672 66 Q 667 70 658 70 Q 654 71 647 71 Q 637 71 618 69 L 496 58 C 466 55 468 27 498 28 Z" />
      </clipPath>
      <path clip-path="url(#make-me-a-hanzi-clip-10)" d="M 505 36 L 512 44 L 673 56" fill="none" id="make-me-a-hanzi-animation-10" stroke-dasharray="300 600" stroke-linecap="round" />
    
      <clipPath id="make-me-a-hanzi-clip-11">
        <path d="M 145 584 Q 156 570 166 555 L 189 526 Q 200 512 210 502 Q 220 493 228 493 L 230 493 Q 236 493 244 500 Q 252 506 256 522 Q 259 532 259 540 Q 259 546 258 550 Q 254 562 248 570 Q 242 578 231 584 Q 220 590 208 594 L 181 604 L 156 610 L 140 614 Q 136 614 134 613 Q 132 612 131 608 L 131 607 Q 131 605 134 600 L 145 584 Z" />
      </clipPath>
      <path clip-path="url(#make-me-a-hanzi-clip-11)" d="M 138 608 L 216 551 L 229 513" fill="none" id="make-me-a-hanzi-animation-11" stroke-dasharray="265 530" stroke-linecap="round" />
    
      <clipPath id="make-me-a-hanzi-clip-12">
        <path d="M 204 218 Q 204 221 208 228 Q 212 234 220 244 L 258 292 Q 262 300 274 310 L 290 324 Q 298 332 299 338 L 299 339 Q 299 345 291 354 Q 282 363 270 371 L 247 384 Q 236 388 230 388 Q 225 387 213 378 Q 201 370 179 360 L 142 344 Q 126 338 112 334 L 94 329 L 81 326 Q 77 324 77 322 L 77 321 Q 77 318 82 313 Q 87 309 94 306 Q 102 304 114 304 Q 122 303 128 303 Q 134 303 138 304 Q 148 306 163 310 Q 178 314 186 318 Q 194 321 198 322 L 202 322 Q 207 322 208 320 Q 209 319 209 317 Q 209 314 208 310 L 202 294 L 178 230 Q 175 223 175 218 L 175 215 Q 175 213 176 210 Q 177 208 186 201 C 194 194 194 194 204 218 Z" />
      </clipPath>
      <path clip-path="url(#make-me-a-hanzi-clip-12)" d="M 82 322 L 131 321 L 214 347 L 235 347 L 245 339 L 233 302 L 186 211" fill="none" id="make-me-a-hanzi-animation-12" stroke-dasharray="439 878" stroke-linecap="round" />
    
      <clipPath id="make-me-a-hanzi-clip-13">
        <path d="M 265 44 L 274 71 Q 282 92 282 114 L 282 119 Q 280 142 269 160 Q 257 176 238 190 L 214 206 Q 204 212 204 218 C 193 246 164 221 186 201 Q 194 194 210 176 L 230 149 Q 234 141 239 122 Q 244 100 244 82 Q 243 64 242 44 C 240 14 256 16 265 44 Z" />
      </clipPath>
      <path clip-path="url(#make-me-a-hanzi-clip-13)" d="M 193 202 L 234 173 L 254 145 L 262 95 L 256 57 L 248 50" fill="none" id="make-me-a-hanzi-animation-13" stroke-dasharray="312 624" stroke-linecap="round" />
    
      <clipPath id="make-me-a-hanzi-clip-14">
        <path d="M 242 44 L 224 43 Q 221 42 192 40 Q 164 36 150 35 Q 138 34 129 34 Q 124 34 107 35 Q 90 36 83 38 Q 79 39 76 39 Q 74 39 72 38 Q 66 36 64 32 L 64 29 Q 64 25 66 20 Q 68 14 75 6 Q 81 -2 88 -9 Q 96 -16 105 -22 Q 112 -26 118 -26 L 120 -26 Q 125 -26 136 -20 Q 148 -14 161 -10 Q 174 -7 200 -3 Q 226 2 254 2 Q 277 2 300 -2 Q 322 -5 343 -12 Q 364 -18 384 -26 L 472 -62 L 594 -112 Q 646 -134 677 -146 Q 705 -156 725 -156 L 728 -156 Q 742 -156 762 -150 L 820 -129 L 885 -104 Q 912 -94 926 -88 L 952 -74 Q 962 -69 962 -64 Q 962 -63 961 -62 Q 958 -56 946 -55 L 902 -54 Q 894 -54 847 -55 Q 800 -55 751 -53 Q 703 -52 657 -47 Q 612 -42 567 -33 Q 522 -24 488 -14 L 408 10 Q 361 26 341 31 Q 322 36 306 39 Q 292 42 286 43 Q 280 44 265 44 L 242 44 Z" />
      </clipPath>
      <path clip-path="url(#make-me-a-hanzi-clip-14)" d="M 71 31 L 119 4 L 239 23 L 318 16 L 544 -60 L 717 -104 L 955 -66" fill="none" id="make-me-a-hanzi-animation-14" stroke-dasharray="1042 2084" stroke-linecap="round" />
    
  </g>
</svg>