<svg xmlns="http://www.w3.org/2000/svg" version="1.1" viewBox="0 0 1024 1024">
  <g stroke="lightgray" stroke-dasharray="1,1" stroke-width="1" transform="scale(4, 4)">
    <line x1="0" y1="0" x2="256" y2="256" />
    <line x1="256" y1="0" x2="0" y2="256" />
    <line x1="128" y1="0" x2="128" y2="256" />
    <line x1="0" y1="128" x2="256" y2="128" />
  </g>
  <g transform="scale(1.0, -1.0) translate(0.0, -824.00)">
    <style type="text/css">
      
        @keyframes keyframes0 {
          from {
            stroke: blue;
            stroke-dashoffset: 426;
            stroke-width: 128;
          }
          58% {
            animation-timing-function: step-end;
            stroke: blue;
            stroke-dashoffset: 0;
            stroke-width: 128;
          }
          to {
            stroke: black;
            stroke-width: 1024;
          }
        }
        #make-me-a-hanzi-animation-0 {
          animation: keyframes0 0.5966796875s both;
          animation-delay: 0s;
          animation-timing-function: linear;
        }
      
        @keyframes keyframes1 {
          from {
            stroke: blue;
            stroke-dashoffset: 470;
            stroke-width: 128;
          }
          60% {
            animation-timing-function: step-end;
            stroke: blue;
            stroke-dashoffset: 0;
            stroke-width: 128;
          }
          to {
            stroke: black;
            stroke-width: 1024;
          }
        }
        #make-me-a-hanzi-animation-1 {
          animation: keyframes1 0.6324869791666666s both;
          animation-delay: 0.5966796875s;
          animation-timing-function: linear;
        }
      
        @keyframes keyframes2 {
          from {
            stroke: blue;
            stroke-dashoffset: 706;
            stroke-width: 128;
          }
          70% {
            animation-timing-function: step-end;
            stroke: blue;
            stroke-dashoffset: 0;
            stroke-width: 128;
          }
          to {
            stroke: black;
            stroke-width: 1024;
          }
        }
        #make-me-a-hanzi-animation-2 {
          animation: keyframes2 0.8245442708333334s both;
          animation-delay: 1.2291666666666665s;
          animation-timing-function: linear;
        }
      
        @keyframes keyframes3 {
          from {
            stroke: blue;
            stroke-dashoffset: 445;
            stroke-width: 128;
          }
          59% {
            animation-timing-function: step-end;
            stroke: blue;
            stroke-dashoffset: 0;
            stroke-width: 128;
          }
          to {
            stroke: black;
            stroke-width: 1024;
          }
        }
        #make-me-a-hanzi-animation-3 {
          animation: keyframes3 0.6121419270833334s both;
          animation-delay: 2.0537109375s;
          animation-timing-function: linear;
        }
      
        @keyframes keyframes4 {
          from {
            stroke: blue;
            stroke-dashoffset: 433;
            stroke-width: 128;
          }
          58% {
            animation-timing-function: step-end;
            stroke: blue;
            stroke-dashoffset: 0;
            stroke-width: 128;
          }
          to {
            stroke: black;
            stroke-width: 1024;
          }
        }
        #make-me-a-hanzi-animation-4 {
          animation: keyframes4 0.6023763020833334s both;
          animation-delay: 2.6658528645833335s;
          animation-timing-function: linear;
        }
      
        @keyframes keyframes5 {
          from {
            stroke: blue;
            stroke-dashoffset: 421;
            stroke-width: 128;
          }
          58% {
            animation-timing-function: step-end;
            stroke: blue;
            stroke-dashoffset: 0;
            stroke-width: 128;
          }
          to {
            stroke: black;
            stroke-width: 1024;
          }
        }
        #make-me-a-hanzi-animation-5 {
          animation: keyframes5 0.5926106770833334s both;
          animation-delay: 3.268229166666667s;
          animation-timing-function: linear;
        }
      
        @keyframes keyframes6 {
          from {
            stroke: blue;
            stroke-dashoffset: 318;
            stroke-width: 128;
          }
          51% {
            animation-timing-function: step-end;
            stroke: blue;
            stroke-dashoffset: 0;
            stroke-width: 128;
          }
          to {
            stroke: black;
            stroke-width: 1024;
          }
        }
        #make-me-a-hanzi-animation-6 {
          animation: keyframes6 0.5087890625s both;
          animation-delay: 3.8608398437500004s;
          animation-timing-function: linear;
        }
      
        @keyframes keyframes7 {
          from {
            stroke: blue;
            stroke-dashoffset: 385;
            stroke-width: 128;
          }
          56% {
            animation-timing-function: step-end;
            stroke: blue;
            stroke-dashoffset: 0;
            stroke-width: 128;
          }
          to {
            stroke: black;
            stroke-width: 1024;
          }
        }
        #make-me-a-hanzi-animation-7 {
          animation: keyframes7 0.5633138020833334s both;
          animation-delay: 4.36962890625s;
          animation-timing-function: linear;
        }
      
        @keyframes keyframes8 {
          from {
            stroke: blue;
            stroke-dashoffset: 760;
            stroke-width: 128;
          }
          71% {
            animation-timing-function: step-end;
            stroke: blue;
            stroke-dashoffset: 0;
            stroke-width: 128;
          }
          to {
            stroke: black;
            stroke-width: 1024;
          }
        }
        #make-me-a-hanzi-animation-8 {
          animation: keyframes8 0.8684895833333334s both;
          animation-delay: 4.932942708333333s;
          animation-timing-function: linear;
        }
      
        @keyframes keyframes9 {
          from {
            stroke: blue;
            stroke-dashoffset: 451;
            stroke-width: 128;
          }
          59% {
            animation-timing-function: step-end;
            stroke: blue;
            stroke-dashoffset: 0;
            stroke-width: 128;
          }
          to {
            stroke: black;
            stroke-width: 1024;
          }
        }
        #make-me-a-hanzi-animation-9 {
          animation: keyframes9 0.6170247395833334s both;
          animation-delay: 5.801432291666666s;
          animation-timing-function: linear;
        }
      
        @keyframes keyframes10 {
          from {
            stroke: blue;
            stroke-dashoffset: 488;
            stroke-width: 128;
          }
          61% {
            animation-timing-function: step-end;
            stroke: blue;
            stroke-dashoffset: 0;
            stroke-width: 128;
          }
          to {
            stroke: black;
            stroke-width: 1024;
          }
        }
        #make-me-a-hanzi-animation-10 {
          animation: keyframes10 0.6471354166666666s both;
          animation-delay: 6.418457031249999s;
          animation-timing-function: linear;
        }
      
        @keyframes keyframes11 {
          from {
            stroke: blue;
            stroke-dashoffset: 331;
            stroke-width: 128;
          }
          52% {
            animation-timing-function: step-end;
            stroke: blue;
            stroke-dashoffset: 0;
            stroke-width: 128;
          }
          to {
            stroke: black;
            stroke-width: 1024;
          }
        }
        #make-me-a-hanzi-animation-11 {
          animation: keyframes11 0.5193684895833334s both;
          animation-delay: 7.065592447916666s;
          animation-timing-function: linear;
        }
      
        @keyframes keyframes12 {
          from {
            stroke: blue;
            stroke-dashoffset: 669;
            stroke-width: 128;
          }
          69% {
            animation-timing-function: step-end;
            stroke: blue;
            stroke-dashoffset: 0;
            stroke-width: 128;
          }
          to {
            stroke: black;
            stroke-width: 1024;
          }
        }
        #make-me-a-hanzi-animation-12 {
          animation: keyframes12 0.79443359375s both;
          animation-delay: 7.584960937499999s;
          animation-timing-function: linear;
        }
      
        @keyframes keyframes13 {
          from {
            stroke: blue;
            stroke-dashoffset: 530;
            stroke-width: 128;
          }
          63% {
            animation-timing-function: step-end;
            stroke: blue;
            stroke-dashoffset: 0;
            stroke-width: 128;
          }
          to {
            stroke: black;
            stroke-width: 1024;
          }
        }
        #make-me-a-hanzi-animation-13 {
          animation: keyframes13 0.6813151041666666s both;
          animation-delay: 8.37939453125s;
          animation-timing-function: linear;
        }
      
        @keyframes keyframes14 {
          from {
            stroke: blue;
            stroke-dashoffset: 609;
            stroke-width: 128;
          }
          66% {
            animation-timing-function: step-end;
            stroke: blue;
            stroke-dashoffset: 0;
            stroke-width: 128;
          }
          to {
            stroke: black;
            stroke-width: 1024;
          }
        }
        #make-me-a-hanzi-animation-14 {
          animation: keyframes14 0.74560546875s both;
          animation-delay: 9.060709635416666s;
          animation-timing-function: linear;
        }
      
        @keyframes keyframes15 {
          from {
            stroke: blue;
            stroke-dashoffset: 400;
            stroke-width: 128;
          }
          57% {
            animation-timing-function: step-end;
            stroke: blue;
            stroke-dashoffset: 0;
            stroke-width: 128;
          }
          to {
            stroke: black;
            stroke-width: 1024;
          }
        }
        #make-me-a-hanzi-animation-15 {
          animation: keyframes15 0.5755208333333334s both;
          animation-delay: 9.806315104166666s;
          animation-timing-function: linear;
        }
      
        @keyframes keyframes16 {
          from {
            stroke: blue;
            stroke-dashoffset: 559;
            stroke-width: 128;
          }
          65% {
            animation-timing-function: step-end;
            stroke: blue;
            stroke-dashoffset: 0;
            stroke-width: 128;
          }
          to {
            stroke: black;
            stroke-width: 1024;
          }
        }
        #make-me-a-hanzi-animation-16 {
          animation: keyframes16 0.7049153645833334s both;
          animation-delay: 10.3818359375s;
          animation-timing-function: linear;
        }
      
        @keyframes keyframes17 {
          from {
            stroke: blue;
            stroke-dashoffset: 439;
            stroke-width: 128;
          }
          59% {
            animation-timing-function: step-end;
            stroke: blue;
            stroke-dashoffset: 0;
            stroke-width: 128;
          }
          to {
            stroke: black;
            stroke-width: 1024;
          }
        }
        #make-me-a-hanzi-animation-17 {
          animation: keyframes17 0.6072591145833334s both;
          animation-delay: 11.086751302083334s;
          animation-timing-function: linear;
        }
      
        @keyframes keyframes18 {
          from {
            stroke: blue;
            stroke-dashoffset: 1169;
            stroke-width: 128;
          }
          79% {
            animation-timing-function: step-end;
            stroke: blue;
            stroke-dashoffset: 0;
            stroke-width: 128;
          }
          to {
            stroke: black;
            stroke-width: 1024;
          }
        }
        #make-me-a-hanzi-animation-18 {
          animation: keyframes18 1.2013346354166667s both;
          animation-delay: 11.694010416666668s;
          animation-timing-function: linear;
        }
      
    </style>
    
      <path d="M 531 650 L 630 722 L 648 730 Q 656 734 656 740 L 656 742 Q 656 747 648 753 Q 638 760 630 764 L 608 773 Q 598 777 594 777 Q 592 777 591 776 Q 588 774 582 761 Q 578 747 569 735 L 554 713 L 506 648 C 488 624 507 632 531 650 Z" fill="lightgray" />
    
      <path d="M 498 647 L 484 653 Q 480 654 470 658 Q 462 661 457 661 Q 453 661 451 659 Q 448 655 448 651 L 448 649 Q 450 644 456 635 Q 462 626 466 611 Q 471 596 474 576 L 482 490 Q 485 462 490 451 Q 496 440 504 440 Q 510 440 514 446 Q 518 452 520 459 L 520 483 L 518 514 L 517 536 L 514 572 L 512 593 L 508 628 C 506 643 506 643 498 647 Z" fill="lightgray" />
    
      <path d="M 694 470 L 698 456 Q 698 449 707 449 Q 710 449 714 450 Q 720 452 727 460 Q 734 470 736 482 L 764 600 Q 768 616 772 624 L 780 642 Q 786 652 786 657 L 786 659 Q 785 665 774 671 Q 764 678 741 685 Q 718 692 708 692 Q 700 692 680 684 Q 659 677 640 673 L 531 650 L 506 648 L 498 647 C 468 644 478 623 508 628 L 696 660 Q 699 661 701 661 Q 707 661 710 658 Q 716 654 717 649 Q 718 644 718 638 L 714 612 L 712 600 L 706 549 L 706 536 L 696 492 L 694 470 Z" fill="lightgray" />
    
      <path d="M 714 612 L 689 620 Q 680 622 673 622 Q 668 622 656 618 Q 645 616 626 612 L 512 593 C 482 588 484 575 514 572 L 546 569 L 591 578 L 712 600 C 737 605 737 605 714 612 Z" fill="lightgray" />
    
      <path d="M 706 549 L 692 556 Q 685 559 674 559 L 669 559 L 640 554 L 517 536 C 487 532 488 511 518 514 L 706 536 C 727 538 727 538 706 549 Z" fill="lightgray" />
    
      <path d="M 602 462 L 694 470 C 724 473 725 484 696 492 L 682 496 Q 670 499 663 499 L 646 497 L 520 483 C 490 480 490 458 520 459 L 572 461 L 602 462 Z" fill="lightgray" />
    
      <path d="M 634 416 L 636 433 L 636 435 Q 636 441 631 446 Q 626 453 620 456 Q 614 459 602 462 C 573 469 567 471 572 461 L 580 446 Q 582 441 588 431 Q 594 422 602 412 C 621 388 630 386 634 416 Z" fill="lightgray" />
    
      <path d="M 424 392 L 420 406 Q 419 412 414 417 Q 411 420 408 420 L 406 420 Q 402 420 396 406 Q 391 392 384 379 Q 377 366 370 357 Q 364 348 355 340 Q 346 331 344 326 Q 342 322 342 306 L 342 301 Q 342 295 344 290 Q 348 284 354 282 Q 356 281 359 281 Q 365 281 372 285 Q 383 290 393 301 Q 404 313 410 323 Q 416 333 418 341 Q 422 349 426 362 L 424 392 Z" fill="lightgray" />
    
      <path d="M 426 362 L 508 372 L 526 374 L 646 390 L 680 392 L 789 405 Q 794 406 799 406 Q 809 406 812 402 Q 813 401 813 400 Q 813 394 802 380 L 783 354 Q 781 352 781 349 Q 781 347 782 345 Q 783 343 786 343 Q 787 343 790 344 L 816 356 Q 824 360 846 369 Q 866 378 880 379 Q 893 380 898 382 Q 904 384 906 391 Q 906 398 898 406 Q 888 414 872 423 L 847 436 Q 829 446 820 446 Q 818 445 806 442 Q 794 438 778 436 L 748 432 L 634 416 L 602 412 L 424 392 C 394 389 396 358 426 362 Z" fill="lightgray" />
    
      <path d="M 508 372 L 498 346 Q 496 338 482 322 Q 468 306 456 296 Q 445 284 430 272 Q 414 258 413 258 L 400 246 Q 398 245 398 242 L 398 240 Q 399 238 401 238 Q 403 238 406 239 L 422 245 Q 442 252 468 268 Q 494 284 516 302 Q 538 320 552 328 Q 566 335 566 340 Q 566 347 558 354 Q 548 362 542 365 Q 536 369 526 374 C 512 381 512 381 508 372 Z" fill="lightgray" />
    
      <path d="M 646 390 L 650 380 Q 653 371 653 352 L 653 335 Q 653 322 656 313 Q 660 304 667 298 Q 674 290 684 286 Q 694 282 720 278 Q 748 276 766 276 Q 780 276 801 279 Q 822 282 824 288 L 824 290 Q 824 295 820 301 Q 814 309 808 313 Q 802 317 796 318 Q 792 318 778 316 Q 764 313 742 313 L 736 313 Q 715 313 704 319 Q 692 325 690 335 Q 689 339 689 342 Q 689 348 692 352 Q 694 358 700 364 Q 706 370 706 374 Q 706 378 700 382 Q 694 388 680 392 C 652 402 640 405 646 390 Z" fill="lightgray" />
    
      <path d="M 560 308 Q 560 307 564 298 Q 567 290 576 278 L 588 261 Q 599 245 606 242 Q 614 238 620 238 Q 624 238 628 240 Q 637 246 639 259 Q 640 263 640 268 Q 640 276 636 283 Q 632 294 622 299 Q 614 304 596 308 Q 579 312 570 312 Q 562 310 560 308 Z" fill="lightgray" />
    
      <path d="M 594 201 L 811 216 Q 818 216 822 219 Q 826 222 828 224 L 828 225 Q 828 229 817 237 Q 804 245 791 249 Q 778 253 766 254 L 714 244 L 440 208 L 410 204 Q 406 204 406 198 Q 406 192 418 187 Q 430 182 439 179 Q 448 176 456 176 Q 464 176 482 180 Q 500 185 515 187 Q 530 190 549 192 L 594 201 Z" fill="lightgray" />
    
      <path d="M 549 192 L 544 170 Q 544 165 531 147 Q 519 129 507 114 Q 496 100 472 78 L 423 35 L 406 20 Q 402 17 402 13 L 402 12 Q 403 11 406 11 Q 409 11 413 12 L 432 20 Q 448 26 468 38 Q 488 50 511 69 Q 534 87 545 98 L 568 124 Q 582 138 598 156 L 612 176 L 614 183 Q 615 184 615 185 Q 615 187 610 190 Q 604 196 594 201 C 568 216 556 221 549 192 Z" fill="lightgray" />
    
      <path d="M 598 156 L 663 141 Q 687 135 691 128 Q 693 125 693 119 Q 693 114 692 108 Q 690 93 679 72 Q 668 50 662 43 Q 656 36 650 35 Q 647 34 644 34 Q 638 34 630 38 Q 618 44 608 50 L 594 58 Q 591 60 589 60 Q 587 60 585 58 Q 584 56 584 54 Q 584 51 586 48 L 592 40 L 605 21 Q 617 2 623 -12 Q 628 -26 632 -28 Q 636 -31 643 -31 Q 647 -31 651 -30 Q 664 -28 676 -18 Q 687 -9 694 1 Q 701 12 708 27 L 722 61 L 734 90 Q 739 100 748 110 Q 758 120 758 124 Q 758 130 752 138 Q 746 145 735 154 Q 724 162 718 164 Q 712 166 698 166 L 669 166 Q 656 168 646 169 Q 638 170 612 176 C 583 183 569 163 598 156 Z" fill="lightgray" />
    
      <path d="M 161 552 Q 167 542 182 522 L 207 490 Q 216 478 226 470 Q 236 460 244 460 Q 251 460 260 467 Q 268 474 272 488 Q 275 498 275 507 Q 275 512 274 517 Q 270 529 264 537 Q 258 546 248 551 Q 237 557 224 562 Q 210 566 196 571 L 172 578 L 156 581 L 153 581 Q 151 581 150 580 Q 148 579 147 576 L 147 575 Q 147 572 150 568 L 161 552 Z" fill="lightgray" />
    
      <path d="M 204 210 Q 204 214 206 218 Q 209 222 225 239 L 250 266 Q 268 284 274 289 Q 280 294 292 302 Q 305 311 306 316 L 306 317 Q 306 323 298 333 Q 288 343 278 350 L 256 363 Q 246 369 240 369 L 238 369 Q 234 368 223 362 Q 212 354 190 344 Q 168 334 150 328 Q 132 322 118 319 L 100 315 Q 88 312 86 311 Q 83 310 83 306 L 83 305 Q 83 303 88 299 Q 92 295 101 292 Q 110 289 120 288 Q 127 287 133 287 Q 139 287 144 288 L 168 293 Q 182 296 192 300 Q 200 302 204 304 Q 212 304 214 302 Q 215 301 215 298 Q 215 296 214 292 Q 212 284 208 275 L 179 224 Q 175 217 175 213 L 175 212 Q 175 208 178 204 Q 181 200 189 192 C 195 185 195 185 204 210 Z" fill="lightgray" />
    
      <path d="M 262 34 L 268 50 Q 272 60 275 74 Q 278 88 278 105 L 278 113 Q 277 133 266 150 Q 256 168 238 182 L 213 199 Q 204 206 204 210 C 190 237 168 214 189 192 Q 197 184 204 174 Q 212 164 222 145 Q 233 126 238 108 Q 242 90 242 74 Q 241 58 238 36 C 234 6 251 6 262 34 Z" fill="lightgray" />
    
      <path d="M 238 36 L 227 37 L 223 37 Q 214 37 196 34 Q 172 30 155 28 Q 138 26 126 26 Q 116 26 103 27 Q 90 28 81 29 Q 76 30 73 30 L 70 30 Q 64 28 62 22 Q 62 18 65 10 Q 68 3 73 -4 Q 78 -10 87 -18 Q 96 -26 104 -31 Q 113 -36 119 -36 Q 123 -36 134 -29 Q 144 -22 160 -15 Q 176 -9 194 -6 Q 212 -2 240 -2 Q 269 -3 287 -7 Q 305 -11 335 -22 Q 366 -32 376 -36 Q 388 -40 475 -73 L 578 -112 Q 639 -135 667 -144 Q 693 -153 712 -153 L 716 -153 Q 729 -153 754 -146 Q 778 -140 804 -130 L 870 -103 Q 918 -85 932 -77 L 956 -62 Q 962 -59 962 -55 Q 962 -54 961 -52 Q 958 -46 947 -46 L 914 -48 Q 913 -48 854 -49 L 742 -52 L 724 -52 Q 688 -52 648 -49 Q 598 -45 554 -38 Q 511 -30 473 -20 Q 435 -11 390 2 Q 344 15 324 20 Q 304 26 289 28 Q 274 32 262 34 L 238 36 Z" fill="lightgray" />
    
    
      <clipPath id="make-me-a-hanzi-clip-0">
        <path d="M 531 650 L 630 722 L 648 730 Q 656 734 656 740 L 656 742 Q 656 747 648 753 Q 638 760 630 764 L 608 773 Q 598 777 594 777 Q 592 777 591 776 Q 588 774 582 761 Q 578 747 569 735 L 554 713 L 506 648 C 488 624 507 632 531 650 Z" />
      </clipPath>
      <path clip-path="url(#make-me-a-hanzi-clip-0)" d="M 645 741 L 606 741 L 532 662 L 512 652" fill="none" id="make-me-a-hanzi-animation-0" stroke-dasharray="298 596" stroke-linecap="round" />
    
      <clipPath id="make-me-a-hanzi-clip-1">
        <path d="M 498 647 L 484 653 Q 480 654 470 658 Q 462 661 457 661 Q 453 661 451 659 Q 448 655 448 651 L 448 649 Q 450 644 456 635 Q 462 626 466 611 Q 471 596 474 576 L 482 490 Q 485 462 490 451 Q 496 440 504 440 Q 510 440 514 446 Q 518 452 520 459 L 520 483 L 518 514 L 517 536 L 514 572 L 512 593 L 508 628 C 506 643 506 643 498 647 Z" />
      </clipPath>
      <path clip-path="url(#make-me-a-hanzi-clip-1)" d="M 457 652 L 487 620 L 504 451" fill="none" id="make-me-a-hanzi-animation-1" stroke-dasharray="342 684" stroke-linecap="round" />
    
      <clipPath id="make-me-a-hanzi-clip-2">
        <path d="M 694 470 L 698 456 Q 698 449 707 449 Q 710 449 714 450 Q 720 452 727 460 Q 734 470 736 482 L 764 600 Q 768 616 772 624 L 780 642 Q 786 652 786 657 L 786 659 Q 785 665 774 671 Q 764 678 741 685 Q 718 692 708 692 Q 700 692 680 684 Q 659 677 640 673 L 531 650 L 506 648 L 498 647 C 468 644 478 623 508 628 L 696 660 Q 699 661 701 661 Q 707 661 710 658 Q 716 654 717 649 Q 718 644 718 638 L 714 612 L 712 600 L 706 549 L 706 536 L 696 492 L 694 470 Z" />
      </clipPath>
      <path clip-path="url(#make-me-a-hanzi-clip-2)" d="M 503 643 L 530 639 L 705 676 L 740 660 L 748 646 L 709 461" fill="none" id="make-me-a-hanzi-animation-2" stroke-dasharray="578 1156" stroke-linecap="round" />
    
      <clipPath id="make-me-a-hanzi-clip-3">
        <path d="M 714 612 L 689 620 Q 680 622 673 622 Q 668 622 656 618 Q 645 616 626 612 L 512 593 C 482 588 484 575 514 572 L 546 569 L 591 578 L 712 600 C 737 605 737 605 714 612 Z" />
      </clipPath>
      <path clip-path="url(#make-me-a-hanzi-clip-3)" d="M 520 578 L 676 608 L 706 607" fill="none" id="make-me-a-hanzi-animation-3" stroke-dasharray="317 634" stroke-linecap="round" />
    
      <clipPath id="make-me-a-hanzi-clip-4">
        <path d="M 706 549 L 692 556 Q 685 559 674 559 L 669 559 L 640 554 L 517 536 C 487 532 488 511 518 514 L 706 536 C 727 538 727 538 706 549 Z" />
      </clipPath>
      <path clip-path="url(#make-me-a-hanzi-clip-4)" d="M 525 520 L 529 527 L 672 546 L 697 543" fill="none" id="make-me-a-hanzi-animation-4" stroke-dasharray="305 610" stroke-linecap="round" />
    
      <clipPath id="make-me-a-hanzi-clip-5">
        <path d="M 602 462 L 694 470 C 724 473 725 484 696 492 L 682 496 Q 670 499 663 499 L 646 497 L 520 483 C 490 480 490 458 520 459 L 572 461 L 602 462 Z" />
      </clipPath>
      <path clip-path="url(#make-me-a-hanzi-clip-5)" d="M 526 465 L 545 474 L 661 483 L 681 482 L 686 476" fill="none" id="make-me-a-hanzi-animation-5" stroke-dasharray="293 586" stroke-linecap="round" />
    
      <clipPath id="make-me-a-hanzi-clip-6">
        <path d="M 634 416 L 636 433 L 636 435 Q 636 441 631 446 Q 626 453 620 456 Q 614 459 602 462 C 573 469 567 471 572 461 L 580 446 Q 582 441 588 431 Q 594 422 602 412 C 621 388 630 386 634 416 Z" />
      </clipPath>
      <path clip-path="url(#make-me-a-hanzi-clip-6)" d="M 580 460 L 628 421" fill="none" id="make-me-a-hanzi-animation-6" stroke-dasharray="190 380" stroke-linecap="round" />
    
      <clipPath id="make-me-a-hanzi-clip-7">
        <path d="M 424 392 L 420 406 Q 419 412 414 417 Q 411 420 408 420 L 406 420 Q 402 420 396 406 Q 391 392 384 379 Q 377 366 370 357 Q 364 348 355 340 Q 346 331 344 326 Q 342 322 342 306 L 342 301 Q 342 295 344 290 Q 348 284 354 282 Q 356 281 359 281 Q 365 281 372 285 Q 383 290 393 301 Q 404 313 410 323 Q 416 333 418 341 Q 422 349 426 362 L 424 392 Z" />
      </clipPath>
      <path clip-path="url(#make-me-a-hanzi-clip-7)" d="M 407 414 L 404 368 L 359 298" fill="none" id="make-me-a-hanzi-animation-7" stroke-dasharray="257 514" stroke-linecap="round" />
    
      <clipPath id="make-me-a-hanzi-clip-8">
        <path d="M 426 362 L 508 372 L 526 374 L 646 390 L 680 392 L 789 405 Q 794 406 799 406 Q 809 406 812 402 Q 813 401 813 400 Q 813 394 802 380 L 783 354 Q 781 352 781 349 Q 781 347 782 345 Q 783 343 786 343 Q 787 343 790 344 L 816 356 Q 824 360 846 369 Q 866 378 880 379 Q 893 380 898 382 Q 904 384 906 391 Q 906 398 898 406 Q 888 414 872 423 L 847 436 Q 829 446 820 446 Q 818 445 806 442 Q 794 438 778 436 L 748 432 L 634 416 L 602 412 L 424 392 C 394 389 396 358 426 362 Z" />
      </clipPath>
      <path clip-path="url(#make-me-a-hanzi-clip-8)" d="M 432 370 L 440 379 L 507 388 L 804 424 L 829 419 L 842 398 L 786 348" fill="none" id="make-me-a-hanzi-animation-8" stroke-dasharray="632 1264" stroke-linecap="round" />
    
      <clipPath id="make-me-a-hanzi-clip-9">
        <path d="M 508 372 L 498 346 Q 496 338 482 322 Q 468 306 456 296 Q 445 284 430 272 Q 414 258 413 258 L 400 246 Q 398 245 398 242 L 398 240 Q 399 238 401 238 Q 403 238 406 239 L 422 245 Q 442 252 468 268 Q 494 284 516 302 Q 538 320 552 328 Q 566 335 566 340 Q 566 347 558 354 Q 548 362 542 365 Q 536 369 526 374 C 512 381 512 381 508 372 Z" />
      </clipPath>
      <path clip-path="url(#make-me-a-hanzi-clip-9)" d="M 558 341 L 525 343 L 478 293 L 401 241" fill="none" id="make-me-a-hanzi-animation-9" stroke-dasharray="323 646" stroke-linecap="round" />
    
      <clipPath id="make-me-a-hanzi-clip-10">
        <path d="M 646 390 L 650 380 Q 653 371 653 352 L 653 335 Q 653 322 656 313 Q 660 304 667 298 Q 674 290 684 286 Q 694 282 720 278 Q 748 276 766 276 Q 780 276 801 279 Q 822 282 824 288 L 824 290 Q 824 295 820 301 Q 814 309 808 313 Q 802 317 796 318 Q 792 318 778 316 Q 764 313 742 313 L 736 313 Q 715 313 704 319 Q 692 325 690 335 Q 689 339 689 342 Q 689 348 692 352 Q 694 358 700 364 Q 706 370 706 374 Q 706 378 700 382 Q 694 388 680 392 C 652 402 640 405 646 390 Z" />
      </clipPath>
      <path clip-path="url(#make-me-a-hanzi-clip-10)" d="M 652 387 L 676 369 L 672 330 L 678 315 L 694 303 L 730 295 L 795 298 L 818 289" fill="none" id="make-me-a-hanzi-animation-10" stroke-dasharray="360 720" stroke-linecap="round" />
    
      <clipPath id="make-me-a-hanzi-clip-11">
        <path d="M 560 308 Q 560 307 564 298 Q 567 290 576 278 L 588 261 Q 599 245 606 242 Q 614 238 620 238 Q 624 238 628 240 Q 637 246 639 259 Q 640 263 640 268 Q 640 276 636 283 Q 632 294 622 299 Q 614 304 596 308 Q 579 312 570 312 Q 562 310 560 308 Z" />
      </clipPath>
      <path clip-path="url(#make-me-a-hanzi-clip-11)" d="M 567 305 L 611 275 L 620 255" fill="none" id="make-me-a-hanzi-animation-11" stroke-dasharray="203 406" stroke-linecap="round" />
    
      <clipPath id="make-me-a-hanzi-clip-12">
        <path d="M 594 201 L 811 216 Q 818 216 822 219 Q 826 222 828 224 L 828 225 Q 828 229 817 237 Q 804 245 791 249 Q 778 253 766 254 L 714 244 L 440 208 L 410 204 Q 406 204 406 198 Q 406 192 418 187 Q 430 182 439 179 Q 448 176 456 176 Q 464 176 482 180 Q 500 185 515 187 Q 530 190 549 192 L 594 201 Z" />
      </clipPath>
      <path clip-path="url(#make-me-a-hanzi-clip-12)" d="M 413 198 L 471 194 L 763 233 L 823 225" fill="none" id="make-me-a-hanzi-animation-12" stroke-dasharray="541 1082" stroke-linecap="round" />
    
      <clipPath id="make-me-a-hanzi-clip-13">
        <path d="M 549 192 L 544 170 Q 544 165 531 147 Q 519 129 507 114 Q 496 100 472 78 L 423 35 L 406 20 Q 402 17 402 13 L 402 12 Q 403 11 406 11 Q 409 11 413 12 L 432 20 Q 448 26 468 38 Q 488 50 511 69 Q 534 87 545 98 L 568 124 Q 582 138 598 156 L 612 176 L 614 183 Q 615 184 615 185 Q 615 187 610 190 Q 604 196 594 201 C 568 216 556 221 549 192 Z" />
      </clipPath>
      <path clip-path="url(#make-me-a-hanzi-clip-13)" d="M 611 186 L 576 172 L 508 87 L 404 13" fill="none" id="make-me-a-hanzi-animation-13" stroke-dasharray="402 804" stroke-linecap="round" />
    
      <clipPath id="make-me-a-hanzi-clip-14">
        <path d="M 598 156 L 663 141 Q 687 135 691 128 Q 693 125 693 119 Q 693 114 692 108 Q 690 93 679 72 Q 668 50 662 43 Q 656 36 650 35 Q 647 34 644 34 Q 638 34 630 38 Q 618 44 608 50 L 594 58 Q 591 60 589 60 Q 587 60 585 58 Q 584 56 584 54 Q 584 51 586 48 L 592 40 L 605 21 Q 617 2 623 -12 Q 628 -26 632 -28 Q 636 -31 643 -31 Q 647 -31 651 -30 Q 664 -28 676 -18 Q 687 -9 694 1 Q 701 12 708 27 L 722 61 L 734 90 Q 739 100 748 110 Q 758 120 758 124 Q 758 130 752 138 Q 746 145 735 154 Q 724 162 718 164 Q 712 166 698 166 L 669 166 Q 656 168 646 169 Q 638 170 612 176 C 583 183 569 163 598 156 Z" />
      </clipPath>
      <path clip-path="url(#make-me-a-hanzi-clip-14)" d="M 605 158 L 620 162 L 691 150 L 711 141 L 722 123 L 689 41 L 661 8 L 646 5 L 589 55" fill="none" id="make-me-a-hanzi-animation-14" stroke-dasharray="481 962" stroke-linecap="round" />
    
      <clipPath id="make-me-a-hanzi-clip-15">
        <path d="M 161 552 Q 167 542 182 522 L 207 490 Q 216 478 226 470 Q 236 460 244 460 Q 251 460 260 467 Q 268 474 272 488 Q 275 498 275 507 Q 275 512 274 517 Q 270 529 264 537 Q 258 546 248 551 Q 237 557 224 562 Q 210 566 196 571 L 172 578 L 156 581 L 153 581 Q 151 581 150 580 Q 148 579 147 576 L 147 575 Q 147 572 150 568 L 161 552 Z" />
      </clipPath>
      <path clip-path="url(#make-me-a-hanzi-clip-15)" d="M 152 576 L 233 517 L 244 492 L 244 476" fill="none" id="make-me-a-hanzi-animation-15" stroke-dasharray="272 544" stroke-linecap="round" />
    
      <clipPath id="make-me-a-hanzi-clip-16">
        <path d="M 204 210 Q 204 214 206 218 Q 209 222 225 239 L 250 266 Q 268 284 274 289 Q 280 294 292 302 Q 305 311 306 316 L 306 317 Q 306 323 298 333 Q 288 343 278 350 L 256 363 Q 246 369 240 369 L 238 369 Q 234 368 223 362 Q 212 354 190 344 Q 168 334 150 328 Q 132 322 118 319 L 100 315 Q 88 312 86 311 Q 83 310 83 306 L 83 305 Q 83 303 88 299 Q 92 295 101 292 Q 110 289 120 288 Q 127 287 133 287 Q 139 287 144 288 L 168 293 Q 182 296 192 300 Q 200 302 204 304 Q 212 304 214 302 Q 215 301 215 298 Q 215 296 214 292 Q 212 284 208 275 L 179 224 Q 175 217 175 213 L 175 212 Q 175 208 178 204 Q 181 200 189 192 C 195 185 195 185 204 210 Z" />
      </clipPath>
      <path clip-path="url(#make-me-a-hanzi-clip-16)" d="M 90 306 L 146 307 L 222 329 L 238 329 L 249 321 L 239 288 L 193 224 L 189 199" fill="none" id="make-me-a-hanzi-animation-16" stroke-dasharray="431 862" stroke-linecap="round" />
    
      <clipPath id="make-me-a-hanzi-clip-17">
        <path d="M 262 34 L 268 50 Q 272 60 275 74 Q 278 88 278 105 L 278 113 Q 277 133 266 150 Q 256 168 238 182 L 213 199 Q 204 206 204 210 C 190 237 168 214 189 192 Q 197 184 204 174 Q 212 164 222 145 Q 233 126 238 108 Q 242 90 242 74 Q 241 58 238 36 C 234 6 251 6 262 34 Z" />
      </clipPath>
      <path clip-path="url(#make-me-a-hanzi-clip-17)" d="M 205 202 L 204 192 L 240 155 L 255 126 L 259 71 L 253 48 L 245 42" fill="none" id="make-me-a-hanzi-animation-17" stroke-dasharray="311 622" stroke-linecap="round" />
    
      <clipPath id="make-me-a-hanzi-clip-18">
        <path d="M 238 36 L 227 37 L 223 37 Q 214 37 196 34 Q 172 30 155 28 Q 138 26 126 26 Q 116 26 103 27 Q 90 28 81 29 Q 76 30 73 30 L 70 30 Q 64 28 62 22 Q 62 18 65 10 Q 68 3 73 -4 Q 78 -10 87 -18 Q 96 -26 104 -31 Q 113 -36 119 -36 Q 123 -36 134 -29 Q 144 -22 160 -15 Q 176 -9 194 -6 Q 212 -2 240 -2 Q 269 -3 287 -7 Q 305 -11 335 -22 Q 366 -32 376 -36 Q 388 -40 475 -73 L 578 -112 Q 639 -135 667 -144 Q 693 -153 712 -153 L 716 -153 Q 729 -153 754 -146 Q 778 -140 804 -130 L 870 -103 Q 918 -85 932 -77 L 956 -62 Q 962 -59 962 -55 Q 962 -54 961 -52 Q 958 -46 947 -46 L 914 -48 Q 913 -48 854 -49 L 742 -52 L 724 -52 Q 688 -52 648 -49 Q 598 -45 554 -38 Q 511 -30 473 -20 Q 435 -11 390 2 Q 344 15 324 20 Q 304 26 289 28 Q 274 32 262 34 L 238 36 Z" />
      </clipPath>
      <path clip-path="url(#make-me-a-hanzi-clip-18)" d="M 72 21 L 99 3 L 120 -3 L 207 17 L 278 13 L 506 -57 L 701 -102 L 796 -91 L 956 -55" fill="none" id="make-me-a-hanzi-animation-18" stroke-dasharray="1041 2082" stroke-linecap="round" />
    
  </g>
</svg>