<svg xmlns="http://www.w3.org/2000/svg" version="1.1" viewBox="0 0 1024 1024">
  <g stroke="lightgray" stroke-dasharray="1,1" stroke-width="1" transform="scale(4, 4)">
    <line x1="0" y1="0" x2="256" y2="256" />
    <line x1="256" y1="0" x2="0" y2="256" />
    <line x1="128" y1="0" x2="128" y2="256" />
    <line x1="0" y1="128" x2="256" y2="128" />
  </g>
  <g transform="scale(1.0, -1.0) translate(0.0, -823.00)">
    <style type="text/css">
      
        @keyframes keyframes0 {
          from {
            stroke: blue;
            stroke-dashoffset: 558;
            stroke-width: 128;
          }
          64% {
            animation-timing-function: step-end;
            stroke: blue;
            stroke-dashoffset: 0;
            stroke-width: 128;
          }
          to {
            stroke: black;
            stroke-width: 1024;
          }
        }
        #make-me-a-hanzi-animation-0 {
          animation: keyframes0 0.7041015625s both;
          animation-delay: 0s;
          animation-timing-function: linear;
        }
      
        @keyframes keyframes1 {
          from {
            stroke: blue;
            stroke-dashoffset: 718;
            stroke-width: 128;
          }
          70% {
            animation-timing-function: step-end;
            stroke: blue;
            stroke-dashoffset: 0;
            stroke-width: 128;
          }
          to {
            stroke: black;
            stroke-width: 1024;
          }
        }
        #make-me-a-hanzi-animation-1 {
          animation: keyframes1 0.8343098958333334s both;
          animation-delay: 0.7041015625s;
          animation-timing-function: linear;
        }
      
        @keyframes keyframes2 {
          from {
            stroke: blue;
            stroke-dashoffset: 999;
            stroke-width: 128;
          }
          76% {
            animation-timing-function: step-end;
            stroke: blue;
            stroke-dashoffset: 0;
            stroke-width: 128;
          }
          to {
            stroke: black;
            stroke-width: 1024;
          }
        }
        #make-me-a-hanzi-animation-2 {
          animation: keyframes2 1.06298828125s both;
          animation-delay: 1.5384114583333335s;
          animation-timing-function: linear;
        }
      
        @keyframes keyframes3 {
          from {
            stroke: blue;
            stroke-dashoffset: 637;
            stroke-width: 128;
          }
          67% {
            animation-timing-function: step-end;
            stroke: blue;
            stroke-dashoffset: 0;
            stroke-width: 128;
          }
          to {
            stroke: black;
            stroke-width: 1024;
          }
        }
        #make-me-a-hanzi-animation-3 {
          animation: keyframes3 0.7683919270833334s both;
          animation-delay: 2.6013997395833335s;
          animation-timing-function: linear;
        }
      
        @keyframes keyframes4 {
          from {
            stroke: blue;
            stroke-dashoffset: 660;
            stroke-width: 128;
          }
          68% {
            animation-timing-function: step-end;
            stroke: blue;
            stroke-dashoffset: 0;
            stroke-width: 128;
          }
          to {
            stroke: black;
            stroke-width: 1024;
          }
        }
        #make-me-a-hanzi-animation-4 {
          animation: keyframes4 0.787109375s both;
          animation-delay: 3.369791666666667s;
          animation-timing-function: linear;
        }
      
        @keyframes keyframes5 {
          from {
            stroke: blue;
            stroke-dashoffset: 425;
            stroke-width: 128;
          }
          58% {
            animation-timing-function: step-end;
            stroke: blue;
            stroke-dashoffset: 0;
            stroke-width: 128;
          }
          to {
            stroke: black;
            stroke-width: 1024;
          }
        }
        #make-me-a-hanzi-animation-5 {
          animation: keyframes5 0.5958658854166666s both;
          animation-delay: 4.156901041666667s;
          animation-timing-function: linear;
        }
      
        @keyframes keyframes6 {
          from {
            stroke: blue;
            stroke-dashoffset: 503;
            stroke-width: 128;
          }
          62% {
            animation-timing-function: step-end;
            stroke: blue;
            stroke-dashoffset: 0;
            stroke-width: 128;
          }
          to {
            stroke: black;
            stroke-width: 1024;
          }
        }
        #make-me-a-hanzi-animation-6 {
          animation: keyframes6 0.6593424479166666s both;
          animation-delay: 4.752766927083334s;
          animation-timing-function: linear;
        }
      
        @keyframes keyframes7 {
          from {
            stroke: blue;
            stroke-dashoffset: 720;
            stroke-width: 128;
          }
          70% {
            animation-timing-function: step-end;
            stroke: blue;
            stroke-dashoffset: 0;
            stroke-width: 128;
          }
          to {
            stroke: black;
            stroke-width: 1024;
          }
        }
        #make-me-a-hanzi-animation-7 {
          animation: keyframes7 0.8359375s both;
          animation-delay: 5.412109375000001s;
          animation-timing-function: linear;
        }
      
        @keyframes keyframes8 {
          from {
            stroke: blue;
            stroke-dashoffset: 757;
            stroke-width: 128;
          }
          71% {
            animation-timing-function: step-end;
            stroke: blue;
            stroke-dashoffset: 0;
            stroke-width: 128;
          }
          to {
            stroke: black;
            stroke-width: 1024;
          }
        }
        #make-me-a-hanzi-animation-8 {
          animation: keyframes8 0.8660481770833334s both;
          animation-delay: 6.248046875000001s;
          animation-timing-function: linear;
        }
      
        @keyframes keyframes9 {
          from {
            stroke: blue;
            stroke-dashoffset: 488;
            stroke-width: 128;
          }
          61% {
            animation-timing-function: step-end;
            stroke: blue;
            stroke-dashoffset: 0;
            stroke-width: 128;
          }
          to {
            stroke: black;
            stroke-width: 1024;
          }
        }
        #make-me-a-hanzi-animation-9 {
          animation: keyframes9 0.6471354166666666s both;
          animation-delay: 7.114095052083334s;
          animation-timing-function: linear;
        }
      
        @keyframes keyframes10 {
          from {
            stroke: blue;
            stroke-dashoffset: 693;
            stroke-width: 128;
          }
          69% {
            animation-timing-function: step-end;
            stroke: blue;
            stroke-dashoffset: 0;
            stroke-width: 128;
          }
          to {
            stroke: black;
            stroke-width: 1024;
          }
        }
        #make-me-a-hanzi-animation-10 {
          animation: keyframes10 0.81396484375s both;
          animation-delay: 7.761230468750001s;
          animation-timing-function: linear;
        }
      
        @keyframes keyframes11 {
          from {
            stroke: blue;
            stroke-dashoffset: 494;
            stroke-width: 128;
          }
          62% {
            animation-timing-function: step-end;
            stroke: blue;
            stroke-dashoffset: 0;
            stroke-width: 128;
          }
          to {
            stroke: black;
            stroke-width: 1024;
          }
        }
        #make-me-a-hanzi-animation-11 {
          animation: keyframes11 0.6520182291666666s both;
          animation-delay: 8.5751953125s;
          animation-timing-function: linear;
        }
      
    </style>
    
      <path d="M 322 562 L 364 568 L 391 575 Q 412 580 418 584 Q 424 588 424 593 L 424 594 Q 424 600 415 605 Q 406 610 398 614 Q 390 618 381 620 Q 372 623 366 623 Q 360 622 348 619 Q 336 615 325 612 Q 314 608 294 603 Q 274 598 254 594 Q 234 590 210 586 Q 187 582 168 580 Q 148 578 140 577 L 119 574 Q 112 574 110 571 Q 109 570 109 568 Q 109 565 111 562 Q 114 556 127 550 Q 139 545 158 544 L 180 544 Q 194 545 202 546 L 244 550 L 262 552 Q 264 552 280 555 L 322 562 Z" fill="lightgray" />
    
      <path d="M 142 404 L 117 410 Q 110 412 101 412 L 94 412 Q 88 412 86 410 Q 84 409 84 405 L 84 403 Q 84 398 87 394 L 95 384 Q 101 374 105 360 Q 109 348 109 327 L 109 318 L 107 210 Q 106 192 104 162 Q 102 132 100 109 Q 98 86 92 59 Q 86 32 86 23 L 86 17 Q 86 -2 92 -16 Q 100 -32 110 -40 Q 118 -47 124 -47 L 126 -47 Q 132 -46 134 -34 L 138 -6 L 140 31 L 146 182 L 148 204 L 154 376 C 155 401 155 401 142 404 Z" fill="lightgray" />
    
      <path d="M 208 415 L 190 412 Q 178 409 142 404 C 112 400 124 372 154 376 L 206 383 L 243 389 L 284 394 L 324 401 L 353 405 Q 359 406 365 406 Q 379 406 387 400 Q 398 393 400 382 Q 402 371 402 348 L 402 265 L 402 225 L 400 114 Q 400 106 398 75 Q 396 44 393 43 L 392 43 C 385 14 343 34 358 8 L 386 -39 Q 396 -58 402 -59 L 404 -59 Q 409 -59 416 -55 Q 426 -50 438 -32 Q 450 -15 454 8 Q 455 20 455 32 Q 454 44 454 66 L 451 111 Q 448 162 448 176 L 450 321 Q 450 348 453 364 Q 457 382 462 391 Q 466 401 467 404 L 467 405 Q 467 413 446 428 Q 424 443 413 448 Q 401 454 394 454 Q 390 453 382 449 Q 372 446 360 442 Q 347 440 326 434 L 284 428 L 250 422 L 245 422 L 208 415 Z" fill="lightgray" />
    
      <path d="M 202 546 L 204 535 Q 206 529 208 512 Q 210 496 210 486 L 208 422 L 208 415 L 206 383 L 202 344 Q 198 306 184 270 Q 170 234 160 221 Q 150 208 148 204 C 131 179 123 163 146 182 L 164 197 Q 170 201 183 214 Q 196 228 210 255 Q 224 282 230 308 Q 237 334 239 355 Q 242 376 243 389 L 245 422 L 248 498 Q 248 514 253 524 Q 257 532 257 536 L 257 537 Q 256 541 252 544 Q 248 548 244 550 C 220 568 196 575 202 546 Z" fill="lightgray" />
    
      <path d="M 326 434 L 328 482 Q 328 498 330 510 Q 331 522 334 528 Q 340 544 340 548 Q 338 551 334 554 L 322 562 C 297 579 274 584 280 555 L 282 546 Q 284 532 284 524 Q 286 516 286 502 L 284 428 L 284 394 L 282 294 L 282 284 Q 282 265 288 254 Q 296 240 308 233 Q 320 226 337 224 Q 354 222 376 222 Q 384 222 388 223 Q 392 223 402 225 C 432 229 432 267 402 265 L 391 264 L 345 262 Q 332 262 325 268 Q 319 273 319 285 L 319 289 L 324 401 L 326 434 Z" fill="lightgray" />
    
      <path d="M 180 124 Q 176 123 174 120 L 174 118 Q 174 114 178 109 Q 184 102 198 99 Q 212 96 222 96 Q 226 96 242 98 Q 256 100 268 102 Q 280 104 297 109 Q 314 114 322 116 L 338 120 Q 346 121 350 124 Q 354 128 354 130 Q 354 134 348 140 Q 340 146 333 150 Q 326 152 317 155 Q 311 156 307 156 L 304 156 Q 300 156 294 154 L 272 145 Q 260 140 250 138 L 224 132 L 198 127 L 180 124 Z" fill="lightgray" />
    
      <path d="M 138 -6 L 358 8 C 388 10 421 35 392 43 Q 388 43 378 48 Q 366 54 360 54 Q 353 54 317 50 L 140 31 C 110 28 108 -8 138 -6 Z" fill="lightgray" />
    
      <path d="M 705 364 L 734 367 Q 740 368 758 369 L 806 372 L 864 374 L 890 376 Q 919 376 931 382 Q 942 388 943 394 Q 943 399 933 407 Q 923 415 914 419 Q 905 424 888 429 Q 872 434 861 434 Q 858 434 843 429 Q 828 425 810 422 Q 793 420 764 414 Q 734 408 711 404 L 648 394 L 638 394 L 599 389 Q 562 384 530 382 Q 498 380 490 380 L 480 379 Q 474 378 472 374 Q 471 373 471 371 Q 471 368 474 365 Q 478 360 490 353 L 508 343 Q 518 338 529 335 Q 540 332 546 332 Q 551 332 560 336 Q 570 340 576 342 Q 581 344 594 346 L 630 353 Q 634 354 644 356 L 705 364 Z" fill="lightgray" />
    
      <path d="M 680 195 L 705 364 L 711 404 L 729 544 Q 732 569 736 587 Q 741 606 748 617 Q 755 628 756 632 Q 756 638 749 646 Q 742 654 726 664 Q 710 674 701 676 Q 692 678 675 681 L 669 681 Q 662 681 658 679 Q 653 676 653 669 Q 654 662 659 649 Q 664 636 666 616 L 666 579 Q 664 556 662 530 L 648 394 L 644 356 L 629 188 C 626 158 676 165 680 195 Z" fill="lightgray" />
    
      <path d="M 552 179 L 528 186 Q 521 188 512 188 L 503 188 Q 498 187 497 184 Q 496 183 496 182 Q 496 180 497 178 L 505 170 Q 510 165 516 153 L 524 130 Q 527 119 529 107 L 540 22 Q 544 -4 546 -12 Q 548 -21 552 -30 Q 557 -39 565 -39 Q 572 -38 576 -32 L 581 -22 L 582 12 L 572 152 C 570 174 570 174 552 179 Z" fill="lightgray" />
    
      <path d="M 629 188 L 552 179 C 522 176 542 149 572 152 L 734 171 L 762 172 L 771 172 Q 778 172 782 171 Q 788 168 790 164 Q 792 160 792 155 L 792 152 Q 792 145 789 130 L 768 28 C 762 -1 804 -14 815 14 L 854 110 Q 861 126 868 135 L 882 149 Q 889 157 889 164 L 889 166 Q 889 173 879 181 Q 869 189 852 201 Q 835 212 829 215 Q 824 218 817 218 Q 808 218 784 212 Q 761 206 736 202 L 680 195 L 629 188 Z" fill="lightgray" />
    
      <path d="M 581 -22 L 611 -22 Q 612 -22 646 -19 Q 678 -16 712 -15 Q 744 -14 769 -14 L 798 -14 L 815 -13 Q 824 -12 826 -10 Q 828 -9 828 -6 Q 828 -3 827 0 Q 824 7 815 14 C 799 28 798 28 768 28 L 744 28 Q 734 28 710 24 L 660 18 L 606 14 Q 597 13 582 12 C 552 10 551 -22 581 -22 Z" fill="lightgray" />
    
    
      <clipPath id="make-me-a-hanzi-clip-0">
        <path d="M 322 562 L 364 568 L 391 575 Q 412 580 418 584 Q 424 588 424 593 L 424 594 Q 424 600 415 605 Q 406 610 398 614 Q 390 618 381 620 Q 372 623 366 623 Q 360 622 348 619 Q 336 615 325 612 Q 314 608 294 603 Q 274 598 254 594 Q 234 590 210 586 Q 187 582 168 580 Q 148 578 140 577 L 119 574 Q 112 574 110 571 Q 109 570 109 568 Q 109 565 111 562 Q 114 556 127 550 Q 139 545 158 544 L 180 544 Q 194 545 202 546 L 244 550 L 262 552 Q 264 552 280 555 L 322 562 Z" />
      </clipPath>
      <path clip-path="url(#make-me-a-hanzi-clip-0)" d="M 116 567 L 151 560 L 175 562 L 255 572 L 369 597 L 414 594" fill="none" id="make-me-a-hanzi-animation-0" stroke-dasharray="430 860" stroke-linecap="round" />
    
      <clipPath id="make-me-a-hanzi-clip-1">
        <path d="M 142 404 L 117 410 Q 110 412 101 412 L 94 412 Q 88 412 86 410 Q 84 409 84 405 L 84 403 Q 84 398 87 394 L 95 384 Q 101 374 105 360 Q 109 348 109 327 L 109 318 L 107 210 Q 106 192 104 162 Q 102 132 100 109 Q 98 86 92 59 Q 86 32 86 23 L 86 17 Q 86 -2 92 -16 Q 100 -32 110 -40 Q 118 -47 124 -47 L 126 -47 Q 132 -46 134 -34 L 138 -6 L 140 31 L 146 182 L 148 204 L 154 376 C 155 401 155 401 142 404 Z" />
      </clipPath>
      <path clip-path="url(#make-me-a-hanzi-clip-1)" d="M 92 405 L 124 382 L 131 353 L 127 189 L 112 12 L 125 -37" fill="none" id="make-me-a-hanzi-animation-1" stroke-dasharray="590 1180" stroke-linecap="round" />
    
      <clipPath id="make-me-a-hanzi-clip-2">
        <path d="M 208 415 L 190 412 Q 178 409 142 404 C 112 400 124 372 154 376 L 206 383 L 243 389 L 284 394 L 324 401 L 353 405 Q 359 406 365 406 Q 379 406 387 400 Q 398 393 400 382 Q 402 371 402 348 L 402 265 L 402 225 L 400 114 Q 400 106 398 75 Q 396 44 393 43 L 392 43 C 385 14 343 34 358 8 L 386 -39 Q 396 -58 402 -59 L 404 -59 Q 409 -59 416 -55 Q 426 -50 438 -32 Q 450 -15 454 8 Q 455 20 455 32 Q 454 44 454 66 L 451 111 Q 448 162 448 176 L 450 321 Q 450 348 453 364 Q 457 382 462 391 Q 466 401 467 404 L 467 405 Q 467 413 446 428 Q 424 443 413 448 Q 401 454 394 454 Q 390 453 382 449 Q 372 446 360 442 Q 347 440 326 434 L 284 428 L 250 422 L 245 422 L 208 415 Z" />
      </clipPath>
      <path clip-path="url(#make-me-a-hanzi-clip-2)" d="M 151 400 L 172 393 L 383 426 L 405 421 L 429 398 L 426 59 L 403 -51" fill="none" id="make-me-a-hanzi-animation-2" stroke-dasharray="871 1742" stroke-linecap="round" />
    
      <clipPath id="make-me-a-hanzi-clip-3">
        <path d="M 202 546 L 204 535 Q 206 529 208 512 Q 210 496 210 486 L 208 422 L 208 415 L 206 383 L 202 344 Q 198 306 184 270 Q 170 234 160 221 Q 150 208 148 204 C 131 179 123 163 146 182 L 164 197 Q 170 201 183 214 Q 196 228 210 255 Q 224 282 230 308 Q 237 334 239 355 Q 242 376 243 389 L 245 422 L 248 498 Q 248 514 253 524 Q 257 532 257 536 L 257 537 Q 256 541 252 544 Q 248 548 244 550 C 220 568 196 575 202 546 Z" />
      </clipPath>
      <path clip-path="url(#make-me-a-hanzi-clip-3)" d="M 209 542 L 229 522 L 227 418 L 218 334 L 200 268 L 149 187" fill="none" id="make-me-a-hanzi-animation-3" stroke-dasharray="509 1018" stroke-linecap="round" />
    
      <clipPath id="make-me-a-hanzi-clip-4">
        <path d="M 326 434 L 328 482 Q 328 498 330 510 Q 331 522 334 528 Q 340 544 340 548 Q 338 551 334 554 L 322 562 C 297 579 274 584 280 555 L 282 546 Q 284 532 284 524 Q 286 516 286 502 L 284 428 L 284 394 L 282 294 L 282 284 Q 282 265 288 254 Q 296 240 308 233 Q 320 226 337 224 Q 354 222 376 222 Q 384 222 388 223 Q 392 223 402 225 C 432 229 432 267 402 265 L 391 264 L 345 262 Q 332 262 325 268 Q 319 273 319 285 L 319 289 L 324 401 L 326 434 Z" />
      </clipPath>
      <path clip-path="url(#make-me-a-hanzi-clip-4)" d="M 288 552 L 309 534 L 303 266 L 322 247 L 345 242 L 381 243 L 397 258" fill="none" id="make-me-a-hanzi-animation-4" stroke-dasharray="532 1064" stroke-linecap="round" />
    
      <clipPath id="make-me-a-hanzi-clip-5">
        <path d="M 180 124 Q 176 123 174 120 L 174 118 Q 174 114 178 109 Q 184 102 198 99 Q 212 96 222 96 Q 226 96 242 98 Q 256 100 268 102 Q 280 104 297 109 Q 314 114 322 116 L 338 120 Q 346 121 350 124 Q 354 128 354 130 Q 354 134 348 140 Q 340 146 333 150 Q 326 152 317 155 Q 311 156 307 156 L 304 156 Q 300 156 294 154 L 272 145 Q 260 140 250 138 L 224 132 L 198 127 L 180 124 Z" />
      </clipPath>
      <path clip-path="url(#make-me-a-hanzi-clip-5)" d="M 179 119 L 218 113 L 303 134 L 345 132" fill="none" id="make-me-a-hanzi-animation-5" stroke-dasharray="297 594" stroke-linecap="round" />
    
      <clipPath id="make-me-a-hanzi-clip-6">
        <path d="M 138 -6 L 358 8 C 388 10 421 35 392 43 Q 388 43 378 48 Q 366 54 360 54 Q 353 54 317 50 L 140 31 C 110 28 108 -8 138 -6 Z" />
      </clipPath>
      <path clip-path="url(#make-me-a-hanzi-clip-6)" d="M 146 0 L 158 14 L 347 30 L 384 42" fill="none" id="make-me-a-hanzi-animation-6" stroke-dasharray="375 750" stroke-linecap="round" />
    
      <clipPath id="make-me-a-hanzi-clip-7">
        <path d="M 705 364 L 734 367 Q 740 368 758 369 L 806 372 L 864 374 L 890 376 Q 919 376 931 382 Q 942 388 943 394 Q 943 399 933 407 Q 923 415 914 419 Q 905 424 888 429 Q 872 434 861 434 Q 858 434 843 429 Q 828 425 810 422 Q 793 420 764 414 Q 734 408 711 404 L 648 394 L 638 394 L 599 389 Q 562 384 530 382 Q 498 380 490 380 L 480 379 Q 474 378 472 374 Q 471 373 471 371 Q 471 368 474 365 Q 478 360 490 353 L 508 343 Q 518 338 529 335 Q 540 332 546 332 Q 551 332 560 336 Q 570 340 576 342 Q 581 344 594 346 L 630 353 Q 634 354 644 356 L 705 364 Z" />
      </clipPath>
      <path clip-path="url(#make-me-a-hanzi-clip-7)" d="M 478 371 L 545 357 L 659 378 L 864 404 L 936 394" fill="none" id="make-me-a-hanzi-animation-7" stroke-dasharray="592 1184" stroke-linecap="round" />
    
      <clipPath id="make-me-a-hanzi-clip-8">
        <path d="M 680 195 L 705 364 L 711 404 L 729 544 Q 732 569 736 587 Q 741 606 748 617 Q 755 628 756 632 Q 756 638 749 646 Q 742 654 726 664 Q 710 674 701 676 Q 692 678 675 681 L 669 681 Q 662 681 658 679 Q 653 676 653 669 Q 654 662 659 649 Q 664 636 666 616 L 666 579 Q 664 556 662 530 L 648 394 L 644 356 L 629 188 C 626 158 676 165 680 195 Z" />
      </clipPath>
      <path clip-path="url(#make-me-a-hanzi-clip-8)" d="M 666 669 L 706 627 L 658 222 L 635 195" fill="none" id="make-me-a-hanzi-animation-8" stroke-dasharray="629 1258" stroke-linecap="round" />
    
      <clipPath id="make-me-a-hanzi-clip-9">
        <path d="M 552 179 L 528 186 Q 521 188 512 188 L 503 188 Q 498 187 497 184 Q 496 183 496 182 Q 496 180 497 178 L 505 170 Q 510 165 516 153 L 524 130 Q 527 119 529 107 L 540 22 Q 544 -4 546 -12 Q 548 -21 552 -30 Q 557 -39 565 -39 Q 572 -38 576 -32 L 581 -22 L 582 12 L 572 152 C 570 174 570 174 552 179 Z" />
      </clipPath>
      <path clip-path="url(#make-me-a-hanzi-clip-9)" d="M 501 181 L 538 160 L 547 142 L 564 -26" fill="none" id="make-me-a-hanzi-animation-9" stroke-dasharray="360 720" stroke-linecap="round" />
    
      <clipPath id="make-me-a-hanzi-clip-10">
        <path d="M 629 188 L 552 179 C 522 176 542 149 572 152 L 734 171 L 762 172 L 771 172 Q 778 172 782 171 Q 788 168 790 164 Q 792 160 792 155 L 792 152 Q 792 145 789 130 L 768 28 C 762 -1 804 -14 815 14 L 854 110 Q 861 126 868 135 L 882 149 Q 889 157 889 164 L 889 166 Q 889 173 879 181 Q 869 189 852 201 Q 835 212 829 215 Q 824 218 817 218 Q 808 218 784 212 Q 761 206 736 202 L 680 195 L 629 188 Z" />
      </clipPath>
      <path clip-path="url(#make-me-a-hanzi-clip-10)" d="M 560 178 L 579 167 L 783 192 L 817 184 L 834 161 L 799 47 L 811 23" fill="none" id="make-me-a-hanzi-animation-10" stroke-dasharray="565 1130" stroke-linecap="round" />
    
      <clipPath id="make-me-a-hanzi-clip-11">
        <path d="M 581 -22 L 611 -22 Q 612 -22 646 -19 Q 678 -16 712 -15 Q 744 -14 769 -14 L 798 -14 L 815 -13 Q 824 -12 826 -10 Q 828 -9 828 -6 Q 828 -3 827 0 Q 824 7 815 14 C 799 28 798 28 768 28 L 744 28 Q 734 28 710 24 L 660 18 L 606 14 Q 597 13 582 12 C 552 10 551 -22 581 -22 Z" />
      </clipPath>
      <path clip-path="url(#make-me-a-hanzi-clip-11)" d="M 589 -17 L 602 -4 L 741 7 L 820 -4" fill="none" id="make-me-a-hanzi-animation-11" stroke-dasharray="366 732" stroke-linecap="round" />
    
  </g>
</svg>