<svg version="1.1" viewBox="0 0 1024 1024" xmlns="http://www.w3.org/2000/svg">
  <g stroke="lightgray" stroke-dasharray="1,1" stroke-width="1" transform="scale(4, 4)">
    <line x1="0" y1="0" x2="256" y2="256"></line>
    <line x1="256" y1="0" x2="0" y2="256"></line>
    <line x1="128" y1="0" x2="128" y2="256"></line>
    <line x1="0" y1="128" x2="256" y2="128"></line>
  </g>
  <g transform="scale(0.92, -0.92) translate(60, -830)">
    <style type="text/css">
      
        @keyframes keyframes0 {
          from {
            stroke: blue;
            stroke-dashoffset: 625;
            stroke-width: 128;
          }
          67% {
            animation-timing-function: step-end;
            stroke: blue;
            stroke-dashoffset: 0;
            stroke-width: 128;
          }
          to {
            stroke: black;
            stroke-width: 1024;
          }
        }
        #make-me-a-hanzi-animation-0 {
          animation: keyframes0 0.7586263020833334s both;
          animation-delay: 0s;
          animation-timing-function: linear;
        }
      
        @keyframes keyframes1 {
          from {
            stroke: blue;
            stroke-dashoffset: 700;
            stroke-width: 128;
          }
          69% {
            animation-timing-function: step-end;
            stroke: blue;
            stroke-dashoffset: 0;
            stroke-width: 128;
          }
          to {
            stroke: black;
            stroke-width: 1024;
          }
        }
        #make-me-a-hanzi-animation-1 {
          animation: keyframes1 0.8196614583333334s both;
          animation-delay: 0.7586263020833334s;
          animation-timing-function: linear;
        }
      
        @keyframes keyframes2 {
          from {
            stroke: blue;
            stroke-dashoffset: 1005;
            stroke-width: 128;
          }
          77% {
            animation-timing-function: step-end;
            stroke: blue;
            stroke-dashoffset: 0;
            stroke-width: 128;
          }
          to {
            stroke: black;
            stroke-width: 1024;
          }
        }
        #make-me-a-hanzi-animation-2 {
          animation: keyframes2 1.06787109375s both;
          animation-delay: 1.5782877604166667s;
          animation-timing-function: linear;
        }
      
        @keyframes keyframes3 {
          from {
            stroke: blue;
            stroke-dashoffset: 632;
            stroke-width: 128;
          }
          67% {
            animation-timing-function: step-end;
            stroke: blue;
            stroke-dashoffset: 0;
            stroke-width: 128;
          }
          to {
            stroke: black;
            stroke-width: 1024;
          }
        }
        #make-me-a-hanzi-animation-3 {
          animation: keyframes3 0.7643229166666666s both;
          animation-delay: 2.646158854166667s;
          animation-timing-function: linear;
        }
      
        @keyframes keyframes4 {
          from {
            stroke: blue;
            stroke-dashoffset: 653;
            stroke-width: 128;
          }
          68% {
            animation-timing-function: step-end;
            stroke: blue;
            stroke-dashoffset: 0;
            stroke-width: 128;
          }
          to {
            stroke: black;
            stroke-width: 1024;
          }
        }
        #make-me-a-hanzi-animation-4 {
          animation: keyframes4 0.7814127604166666s both;
          animation-delay: 3.4104817708333335s;
          animation-timing-function: linear;
        }
      
        @keyframes keyframes5 {
          from {
            stroke: blue;
            stroke-dashoffset: 432;
            stroke-width: 128;
          }
          58% {
            animation-timing-function: step-end;
            stroke: blue;
            stroke-dashoffset: 0;
            stroke-width: 128;
          }
          to {
            stroke: black;
            stroke-width: 1024;
          }
        }
        #make-me-a-hanzi-animation-5 {
          animation: keyframes5 0.6015625s both;
          animation-delay: 4.19189453125s;
          animation-timing-function: linear;
        }
      
        @keyframes keyframes6 {
          from {
            stroke: blue;
            stroke-dashoffset: 505;
            stroke-width: 128;
          }
          62% {
            animation-timing-function: step-end;
            stroke: blue;
            stroke-dashoffset: 0;
            stroke-width: 128;
          }
          to {
            stroke: black;
            stroke-width: 1024;
          }
        }
        #make-me-a-hanzi-animation-6 {
          animation: keyframes6 0.6609700520833334s both;
          animation-delay: 4.79345703125s;
          animation-timing-function: linear;
        }
      
        @keyframes keyframes7 {
          from {
            stroke: blue;
            stroke-dashoffset: 325;
            stroke-width: 128;
          }
          51% {
            animation-timing-function: step-end;
            stroke: blue;
            stroke-dashoffset: 0;
            stroke-width: 128;
          }
          to {
            stroke: black;
            stroke-width: 1024;
          }
        }
        #make-me-a-hanzi-animation-7 {
          animation: keyframes7 0.5144856770833334s both;
          animation-delay: 5.454427083333333s;
          animation-timing-function: linear;
        }
      
        @keyframes keyframes8 {
          from {
            stroke: blue;
            stroke-dashoffset: 885;
            stroke-width: 128;
          }
          74% {
            animation-timing-function: step-end;
            stroke: blue;
            stroke-dashoffset: 0;
            stroke-width: 128;
          }
          to {
            stroke: black;
            stroke-width: 1024;
          }
        }
        #make-me-a-hanzi-animation-8 {
          animation: keyframes8 0.97021484375s both;
          animation-delay: 5.968912760416666s;
          animation-timing-function: linear;
        }
      
        @keyframes keyframes9 {
          from {
            stroke: blue;
            stroke-dashoffset: 328;
            stroke-width: 128;
          }
          52% {
            animation-timing-function: step-end;
            stroke: blue;
            stroke-dashoffset: 0;
            stroke-width: 128;
          }
          to {
            stroke: black;
            stroke-width: 1024;
          }
        }
        #make-me-a-hanzi-animation-9 {
          animation: keyframes9 0.5169270833333334s both;
          animation-delay: 6.939127604166666s;
          animation-timing-function: linear;
        }
      
        @keyframes keyframes10 {
          from {
            stroke: blue;
            stroke-dashoffset: 820;
            stroke-width: 128;
          }
          73% {
            animation-timing-function: step-end;
            stroke: blue;
            stroke-dashoffset: 0;
            stroke-width: 128;
          }
          to {
            stroke: black;
            stroke-width: 1024;
          }
        }
        #make-me-a-hanzi-animation-10 {
          animation: keyframes10 0.9173177083333334s both;
          animation-delay: 7.456054687499999s;
          animation-timing-function: linear;
        }
      
        @keyframes keyframes11 {
          from {
            stroke: blue;
            stroke-dashoffset: 334;
            stroke-width: 128;
          }
          52% {
            animation-timing-function: step-end;
            stroke: blue;
            stroke-dashoffset: 0;
            stroke-width: 128;
          }
          to {
            stroke: black;
            stroke-width: 1024;
          }
        }
        #make-me-a-hanzi-animation-11 {
          animation: keyframes11 0.5218098958333334s both;
          animation-delay: 8.373372395833332s;
          animation-timing-function: linear;
        }
      
        @keyframes keyframes12 {
          from {
            stroke: blue;
            stroke-dashoffset: 1069;
            stroke-width: 128;
          }
          78% {
            animation-timing-function: step-end;
            stroke: blue;
            stroke-dashoffset: 0;
            stroke-width: 128;
          }
          to {
            stroke: black;
            stroke-width: 1024;
          }
        }
        #make-me-a-hanzi-animation-12 {
          animation: keyframes12 1.1199544270833333s both;
          animation-delay: 8.895182291666666s;
          animation-timing-function: linear;
        }
      
    </style>
    
      <path d="M 325 578 L 355 582 L 414 595 Q 440 600 446 602 L 476 611 Q 487 614 488 620 Q 489 622 489 623 Q 489 628 484 632 Q 478 639 463 645 L 438 653 Q 433 655 428 655 Q 425 655 421 654 L 393 645 L 365 636 Q 350 631 319 625 Q 289 618 267 614 Q 246 610 215 606 Q 184 600 168 598 L 127 593 Q 114 591 112 585 L 112 584 Q 112 578 119 572 Q 126 564 139 562 Q 152 558 167 558 L 191 558 Q 201 559 215 561 L 243 564 L 270 568 Q 275 568 301 572 L 325 578 Z" fill="lightgray"></path>
    
      <path d="M 159 418 L 142 422 Q 134 425 125 425 Q 120 425 115 424 Q 102 422 101 419 L 101 418 Q 101 414 105 408 Q 110 400 113 394 Q 116 388 118 381 Q 120 374 122 344 Q 123 314 123 311 L 120 226 Q 119 224 115 168 L 110 100 L 102 56 L 102 47 Q 102 37 103 28 Q 104 13 110 4 Q 115 -6 120 -12 Q 126 -20 131 -20 L 133 -20 Q 137 -20 138 -18 Q 141 -16 142 -8 Q 144 0 147 8 L 149 48 L 152 109 L 156 164 Q 157 178 158 206 L 158 227 L 159 272 Q 159 303 160 331 Q 160 358 162 388 C 164 417 164 417 159 418 Z" fill="lightgray"></path>
    
      <path d="M 220 428 L 192 422 Q 186 421 159 418 C 129 415 132 384 162 388 L 182 391 Q 192 392 200 394 Q 208 396 220 398 L 255 406 L 302 414 L 341 419 L 362 422 Q 376 424 388 424 Q 398 423 404 420 Q 408 418 412 414 Q 415 410 417 406 Q 419 400 419 389 L 419 353 Q 420 328 420 282 L 420 240 L 419 166 Q 418 144 418 139 Q 418 133 415 108 Q 413 84 410 74 Q 406 65 402 64 C 389 37 379 34 381 30 L 393 6 L 404 -18 Q 410 -32 415 -34 L 416 -34 Q 424 -34 438 -18 Q 454 1 460 14 Q 466 28 469 44 Q 471 58 471 94 Q 470 128 470 136 L 468 185 L 471 358 Q 471 384 473 394 Q 474 404 478 412 L 483 422 Q 483 428 478 434 Q 473 440 470 442 Q 468 444 451 456 L 428 472 Q 421 474 416 475 Q 410 475 395 469 Q 381 463 368 460 Q 355 456 342 454 L 303 445 L 258 436 L 220 428 Z" fill="lightgray"></path>
    
      <path d="M 215 561 L 219 541 Q 220 536 221 520 Q 222 504 222 488 L 222 461 Q 222 449 220 428 L 220 398 L 217 378 Q 213 346 206 321 Q 200 297 192 280 Q 184 263 177 252 Q 170 242 158 227 C 139 203 135 186 158 206 L 190 234 Q 205 246 218 266 Q 230 285 238 312 Q 246 340 249 360 Q 252 380 255 406 L 258 436 L 261 474 L 262 505 Q 264 516 267 524 Q 271 534 271 538 L 271 540 Q 271 544 266 550 Q 260 556 243 564 C 216 578 211 580 215 561 Z" fill="lightgray"></path>
    
      <path d="M 342 454 L 345 498 Q 346 514 347 518 Q 348 523 351 533 Q 354 542 355 548 Q 355 552 353 558 Q 350 562 343 567 Q 336 572 325 578 C 300 593 300 593 301 572 L 302 555 Q 302 553 304 539 Q 304 524 305 515 L 305 497 L 303 445 L 302 414 L 298 339 L 298 325 Q 298 306 300 294 Q 302 277 309 265 Q 316 252 329 247 Q 342 242 358 239 Q 374 236 388 236 Q 402 237 420 240 C 450 245 449 274 420 282 L 405 286 Q 404 287 401 287 Q 396 287 384 284 Q 374 282 366 282 Q 360 282 356 283 Q 346 286 342 291 Q 338 296 338 315 L 338 348 L 341 419 L 342 454 Z" fill="lightgray"></path>
    
      <path d="M 358 144 Q 370 146 374 150 Q 377 153 377 156 L 377 158 Q 376 162 366 166 Q 355 170 346 174 Q 336 176 329 177 Q 321 177 310 174 L 285 166 Q 280 164 260 159 Q 241 154 232 152 L 204 147 Q 190 144 187 140 Q 186 138 186 136 Q 186 133 188 130 Q 192 125 204 123 Q 216 121 228 121 L 234 121 Q 244 121 257 123 Q 274 125 282 127 L 358 144 Z" fill="lightgray"></path>
    
      <path d="M 147 8 L 381 30 C 411 33 429 51 402 64 L 394 68 Q 387 71 376 74 L 366 76 L 362 76 Q 356 76 349 75 Q 338 72 308 68 L 246 59 L 149 48 C 119 45 117 5 147 8 Z" fill="lightgray"></path>
    
      <path d="M 486 315 L 499 304 Q 506 298 515 292 Q 525 284 532 282 Q 538 280 544 280 Q 550 282 555 288 Q 558 293 558 299 Q 558 301 557 304 Q 555 312 550 318 Q 544 323 535 326 Q 526 329 516 330 Q 506 331 498 331 L 483 330 Q 478 330 476 327 L 476 326 Q 476 323 480 320 L 486 315 Z" fill="lightgray"></path>
    
      <path d="M 505 -4 Q 514 2 523 11 Q 532 20 546 41 Q 560 62 571 87 Q 582 112 589 141 Q 596 170 600 198 Q 604 224 606 253 Q 609 282 610 299 Q 611 316 612 360 Q 613 404 614 442 Q 616 478 617 492 Q 618 506 619 514 Q 620 522 625 532 Q 630 543 630 548 Q 630 554 621 562 Q 613 569 599 575 L 575 584 Q 570 585 566 585 Q 560 585 556 583 Q 550 580 550 576 L 550 575 Q 550 572 554 566 Q 558 558 561 547 Q 564 536 564 527 Q 566 518 566 498 L 568 449 L 568 348 L 565 296 L 562 239 Q 560 210 553 174 Q 546 138 538 112 Q 530 86 523 69 Q 516 52 508 36 Q 500 20 496 15 L 486 0 Q 481 -7 481 -11 Q 481 -13 482 -15 Q 484 -18 487 -18 Q 488 -18 490 -16 L 505 -4 Z" fill="lightgray"></path>
    
      <path d="M 635 317 L 646 306 L 660 292 Q 669 284 677 280 Q 682 277 686 277 Q 688 277 690 278 Q 696 280 699 288 Q 701 293 701 298 Q 701 302 700 306 Q 698 315 694 322 Q 688 328 682 330 Q 676 333 662 335 Q 648 336 645 336 L 630 336 Q 626 336 625 332 L 625 330 Q 625 327 628 324 L 635 317 Z" fill="lightgray"></path>
    
      <path d="M 705 202 Q 704 189 702 165 Q 700 142 698 127 Q 696 112 691 90 Q 687 74 687 66 Q 688 59 694 38 Q 700 18 706 8 Q 713 -3 718 -3 Q 724 -2 730 6 Q 736 14 740 32 Q 743 50 744 62 Q 745 74 746 100 L 752 434 L 754 470 Q 756 492 757 500 Q 758 506 764 518 Q 767 526 767 530 Q 766 534 757 542 Q 748 550 738 555 Q 729 559 718 562 Q 710 565 705 565 Q 703 565 701 564 Q 695 562 693 559 L 693 556 Q 693 552 694 546 L 700 531 Q 704 519 706 508 Q 708 498 708 480 Q 710 463 710 438 L 705 202 Z" fill="lightgray"></path>
    
      <path d="M 770 322 Q 773 318 780 312 Q 786 306 798 295 Q 810 284 817 281 Q 823 278 827 278 Q 830 278 832 279 Q 837 281 841 290 Q 844 295 844 302 Q 844 305 843 309 Q 841 320 836 326 Q 832 331 823 335 Q 814 340 806 341 Q 798 343 784 343 L 766 343 Q 760 343 760 339 Q 759 338 759 337 Q 759 334 763 330 L 770 322 Z" fill="lightgray"></path>
    
      <path d="M 906 548 Q 906 558 908 582 Q 910 605 912 613 Q 914 620 921 635 Q 925 644 925 650 Q 924 656 913 664 Q 902 672 892 676 Q 882 680 872 683 Q 861 686 856 687 Q 851 688 848 688 Q 841 688 838 685 Q 835 681 835 677 L 835 675 Q 836 669 843 653 Q 850 638 851 618 L 851 583 L 853 546 L 846 65 L 848 14 L 848 -44 Q 848 -65 850 -80 Q 852 -96 857 -110 Q 862 -124 868 -125 L 869 -125 Q 874 -125 879 -109 Q 885 -92 888 -66 Q 892 -39 894 -24 Q 896 -10 898 28 Q 900 66 900 87 L 906 548 Z" fill="lightgray"></path>
    
    
      <clipPath id="make-me-a-hanzi-clip-0">
        <path d="M 325 578 L 355 582 L 414 595 Q 440 600 446 602 L 476 611 Q 487 614 488 620 Q 489 622 489 623 Q 489 628 484 632 Q 478 639 463 645 L 438 653 Q 433 655 428 655 Q 425 655 421 654 L 393 645 L 365 636 Q 350 631 319 625 Q 289 618 267 614 Q 246 610 215 606 Q 184 600 168 598 L 127 593 Q 114 591 112 585 L 112 584 Q 112 578 119 572 Q 126 564 139 562 Q 152 558 167 558 L 191 558 Q 201 559 215 561 L 243 564 L 270 568 Q 275 568 301 572 L 325 578 Z"></path>
      </clipPath>
      <path clip-path="url(#make-me-a-hanzi-clip-0)" d="M 118 585 L 131 579 L 185 579 L 287 593 L 422 626 L 481 624" fill="none" id="make-me-a-hanzi-animation-0" stroke-dasharray="497 994" stroke-linecap="round"></path>
    
      <clipPath id="make-me-a-hanzi-clip-1">
        <path d="M 159 418 L 142 422 Q 134 425 125 425 Q 120 425 115 424 Q 102 422 101 419 L 101 418 Q 101 414 105 408 Q 110 400 113 394 Q 116 388 118 381 Q 120 374 122 344 Q 123 314 123 311 L 120 226 Q 119 224 115 168 L 110 100 L 102 56 L 102 47 Q 102 37 103 28 Q 104 13 110 4 Q 115 -6 120 -12 Q 126 -20 131 -20 L 133 -20 Q 137 -20 138 -18 Q 141 -16 142 -8 Q 144 0 147 8 L 149 48 L 152 109 L 156 164 Q 157 178 158 206 L 158 227 L 159 272 Q 159 303 160 331 Q 160 358 162 388 C 164 417 164 417 159 418 Z"></path>
      </clipPath>
      <path clip-path="url(#make-me-a-hanzi-clip-1)" d="M 109 419 L 137 398 L 141 367 L 138 198 L 125 52 L 132 -10" fill="none" id="make-me-a-hanzi-animation-1" stroke-dasharray="572 1144" stroke-linecap="round"></path>
    
      <clipPath id="make-me-a-hanzi-clip-2">
        <path d="M 220 428 L 192 422 Q 186 421 159 418 C 129 415 132 384 162 388 L 182 391 Q 192 392 200 394 Q 208 396 220 398 L 255 406 L 302 414 L 341 419 L 362 422 Q 376 424 388 424 Q 398 423 404 420 Q 408 418 412 414 Q 415 410 417 406 Q 419 400 419 389 L 419 353 Q 420 328 420 282 L 420 240 L 419 166 Q 418 144 418 139 Q 418 133 415 108 Q 413 84 410 74 Q 406 65 402 64 C 389 37 379 34 381 30 L 393 6 L 404 -18 Q 410 -32 415 -34 L 416 -34 Q 424 -34 438 -18 Q 454 1 460 14 Q 466 28 469 44 Q 471 58 471 94 Q 470 128 470 136 L 468 185 L 471 358 Q 471 384 473 394 Q 474 404 478 412 L 483 422 Q 483 428 478 434 Q 473 440 470 442 Q 468 444 451 456 L 428 472 Q 421 474 416 475 Q 410 475 395 469 Q 381 463 368 460 Q 355 456 342 454 L 303 445 L 258 436 L 220 428 Z"></path>
      </clipPath>
      <path clip-path="url(#make-me-a-hanzi-clip-2)" d="M 166 396 L 176 405 L 396 446 L 418 445 L 446 419 L 444 103 L 439 60 L 424 27 L 416 -28" fill="none" id="make-me-a-hanzi-animation-2" stroke-dasharray="877 1754" stroke-linecap="round"></path>
    
      <clipPath id="make-me-a-hanzi-clip-3">
        <path d="M 215 561 L 219 541 Q 220 536 221 520 Q 222 504 222 488 L 222 461 Q 222 449 220 428 L 220 398 L 217 378 Q 213 346 206 321 Q 200 297 192 280 Q 184 263 177 252 Q 170 242 158 227 C 139 203 135 186 158 206 L 190 234 Q 205 246 218 266 Q 230 285 238 312 Q 246 340 249 360 Q 252 380 255 406 L 258 436 L 261 474 L 262 505 Q 264 516 267 524 Q 271 534 271 538 L 271 540 Q 271 544 266 550 Q 260 556 243 564 C 216 578 211 580 215 561 Z"></path>
      </clipPath>
      <path clip-path="url(#make-me-a-hanzi-clip-3)" d="M 222 557 L 245 535 L 232 358 L 213 288 L 188 246 L 164 222 L 163 211" fill="none" id="make-me-a-hanzi-animation-3" stroke-dasharray="504 1008" stroke-linecap="round"></path>
    
      <clipPath id="make-me-a-hanzi-clip-4">
        <path d="M 342 454 L 345 498 Q 346 514 347 518 Q 348 523 351 533 Q 354 542 355 548 Q 355 552 353 558 Q 350 562 343 567 Q 336 572 325 578 C 300 593 300 593 301 572 L 302 555 Q 302 553 304 539 Q 304 524 305 515 L 305 497 L 303 445 L 302 414 L 298 339 L 298 325 Q 298 306 300 294 Q 302 277 309 265 Q 316 252 329 247 Q 342 242 358 239 Q 374 236 388 236 Q 402 237 420 240 C 450 245 449 274 420 282 L 405 286 Q 404 287 401 287 Q 396 287 384 284 Q 374 282 366 282 Q 360 282 356 283 Q 346 286 342 291 Q 338 296 338 315 L 338 348 L 341 419 L 342 454 Z"></path>
      </clipPath>
      <path clip-path="url(#make-me-a-hanzi-clip-4)" d="M 308 568 L 329 546 L 318 360 L 321 288 L 334 269 L 359 261 L 397 261 L 413 247" fill="none" id="make-me-a-hanzi-animation-4" stroke-dasharray="525 1050" stroke-linecap="round"></path>
    
      <clipPath id="make-me-a-hanzi-clip-5">
        <path d="M 358 144 Q 370 146 374 150 Q 377 153 377 156 L 377 158 Q 376 162 366 166 Q 355 170 346 174 Q 336 176 329 177 Q 321 177 310 174 L 285 166 Q 280 164 260 159 Q 241 154 232 152 L 204 147 Q 190 144 187 140 Q 186 138 186 136 Q 186 133 188 130 Q 192 125 204 123 Q 216 121 228 121 L 234 121 Q 244 121 257 123 Q 274 125 282 127 L 358 144 Z"></path>
      </clipPath>
      <path clip-path="url(#make-me-a-hanzi-clip-5)" d="M 194 136 L 249 138 L 326 157 L 368 157" fill="none" id="make-me-a-hanzi-animation-5" stroke-dasharray="304 608" stroke-linecap="round"></path>
    
      <clipPath id="make-me-a-hanzi-clip-6">
        <path d="M 147 8 L 381 30 C 411 33 429 51 402 64 L 394 68 Q 387 71 376 74 L 366 76 L 362 76 Q 356 76 349 75 Q 338 72 308 68 L 246 59 L 149 48 C 119 45 117 5 147 8 Z"></path>
      </clipPath>
      <path clip-path="url(#make-me-a-hanzi-clip-6)" d="M 154 14 L 169 29 L 395 60" fill="none" id="make-me-a-hanzi-animation-6" stroke-dasharray="377 754" stroke-linecap="round"></path>
    
      <clipPath id="make-me-a-hanzi-clip-7">
        <path d="M 486 315 L 499 304 Q 506 298 515 292 Q 525 284 532 282 Q 538 280 544 280 Q 550 282 555 288 Q 558 293 558 299 Q 558 301 557 304 Q 555 312 550 318 Q 544 323 535 326 Q 526 329 516 330 Q 506 331 498 331 L 483 330 Q 478 330 476 327 L 476 326 Q 476 323 480 320 L 486 315 Z"></path>
      </clipPath>
      <path clip-path="url(#make-me-a-hanzi-clip-7)" d="M 480 327 L 525 309 L 541 296" fill="none" id="make-me-a-hanzi-animation-7" stroke-dasharray="197 394" stroke-linecap="round"></path>
    
      <clipPath id="make-me-a-hanzi-clip-8">
        <path d="M 505 -4 Q 514 2 523 11 Q 532 20 546 41 Q 560 62 571 87 Q 582 112 589 141 Q 596 170 600 198 Q 604 224 606 253 Q 609 282 610 299 Q 611 316 612 360 Q 613 404 614 442 Q 616 478 617 492 Q 618 506 619 514 Q 620 522 625 532 Q 630 543 630 548 Q 630 554 621 562 Q 613 569 599 575 L 575 584 Q 570 585 566 585 Q 560 585 556 583 Q 550 580 550 576 L 550 575 Q 550 572 554 566 Q 558 558 561 547 Q 564 536 564 527 Q 566 518 566 498 L 568 449 L 568 348 L 565 296 L 562 239 Q 560 210 553 174 Q 546 138 538 112 Q 530 86 523 69 Q 516 52 508 36 Q 500 20 496 15 L 486 0 Q 481 -7 481 -11 Q 481 -13 482 -15 Q 484 -18 487 -18 Q 488 -18 490 -16 L 505 -4 Z"></path>
      </clipPath>
      <path clip-path="url(#make-me-a-hanzi-clip-8)" d="M 558 576 L 585 555 L 594 539 L 583 231 L 574 167 L 556 101 L 529 43 L 486 -14" fill="none" id="make-me-a-hanzi-animation-8" stroke-dasharray="757 1514" stroke-linecap="round"></path>
    
      <clipPath id="make-me-a-hanzi-clip-9">
        <path d="M 635 317 L 646 306 L 660 292 Q 669 284 677 280 Q 682 277 686 277 Q 688 277 690 278 Q 696 280 699 288 Q 701 293 701 298 Q 701 302 700 306 Q 698 315 694 322 Q 688 328 682 330 Q 676 333 662 335 Q 648 336 645 336 L 630 336 Q 626 336 625 332 L 625 330 Q 625 327 628 324 L 635 317 Z"></path>
      </clipPath>
      <path clip-path="url(#make-me-a-hanzi-clip-9)" d="M 630 331 L 676 308 L 685 289" fill="none" id="make-me-a-hanzi-animation-9" stroke-dasharray="200 400" stroke-linecap="round"></path>
    
      <clipPath id="make-me-a-hanzi-clip-10">
        <path d="M 705 202 Q 704 189 702 165 Q 700 142 698 127 Q 696 112 691 90 Q 687 74 687 66 Q 688 59 694 38 Q 700 18 706 8 Q 713 -3 718 -3 Q 724 -2 730 6 Q 736 14 740 32 Q 743 50 744 62 Q 745 74 746 100 L 752 434 L 754 470 Q 756 492 757 500 Q 758 506 764 518 Q 767 526 767 530 Q 766 534 757 542 Q 748 550 738 555 Q 729 559 718 562 Q 710 565 705 565 Q 703 565 701 564 Q 695 562 693 559 L 693 556 Q 693 552 694 546 L 700 531 Q 704 519 706 508 Q 708 498 708 480 Q 710 463 710 438 L 705 202 Z"></path>
      </clipPath>
      <path clip-path="url(#make-me-a-hanzi-clip-10)" d="M 700 558 L 733 520 L 727 204 L 716 67 L 720 7" fill="none" id="make-me-a-hanzi-animation-10" stroke-dasharray="692 1384" stroke-linecap="round"></path>
    
      <clipPath id="make-me-a-hanzi-clip-11">
        <path d="M 770 322 Q 773 318 780 312 Q 786 306 798 295 Q 810 284 817 281 Q 823 278 827 278 Q 830 278 832 279 Q 837 281 841 290 Q 844 295 844 302 Q 844 305 843 309 Q 841 320 836 326 Q 832 331 823 335 Q 814 340 806 341 Q 798 343 784 343 L 766 343 Q 760 343 760 339 Q 759 338 759 337 Q 759 334 763 330 L 770 322 Z"></path>
      </clipPath>
      <path clip-path="url(#make-me-a-hanzi-clip-11)" d="M 765 336 L 805 319 L 827 293" fill="none" id="make-me-a-hanzi-animation-11" stroke-dasharray="206 412" stroke-linecap="round"></path>
    
      <clipPath id="make-me-a-hanzi-clip-12">
        <path d="M 906 548 Q 906 558 908 582 Q 910 605 912 613 Q 914 620 921 635 Q 925 644 925 650 Q 924 656 913 664 Q 902 672 892 676 Q 882 680 872 683 Q 861 686 856 687 Q 851 688 848 688 Q 841 688 838 685 Q 835 681 835 677 L 835 675 Q 836 669 843 653 Q 850 638 851 618 L 851 583 L 853 546 L 846 65 L 848 14 L 848 -44 Q 848 -65 850 -80 Q 852 -96 857 -110 Q 862 -124 868 -125 L 869 -125 Q 874 -125 879 -109 Q 885 -92 888 -66 Q 892 -39 894 -24 Q 896 -10 898 28 Q 900 66 900 87 L 906 548 Z"></path>
      </clipPath>
      <path clip-path="url(#make-me-a-hanzi-clip-12)" d="M 846 678 L 884 640 L 869 -119" fill="none" id="make-me-a-hanzi-animation-12" stroke-dasharray="941 1882" stroke-linecap="round"></path>
    
  </g>
</svg>