<svg xmlns="http://www.w3.org/2000/svg" version="1.1" viewBox="0 0 1024 1024">
  <g stroke="lightgray" stroke-dasharray="1,1" stroke-width="1" transform="scale(4, 4)">
    <line x1="0" y1="0" x2="256" y2="256" />
    <line x1="256" y1="0" x2="0" y2="256" />
    <line x1="128" y1="0" x2="128" y2="256" />
    <line x1="0" y1="128" x2="256" y2="128" />
  </g>
  <g transform="scale(1.0, -1.0) translate(0.0, -793.50)">
    <style type="text/css">
      
        @keyframes keyframes0 {
          from {
            stroke: blue;
            stroke-dashoffset: 593;
            stroke-width: 128;
          }
          66% {
            animation-timing-function: step-end;
            stroke: blue;
            stroke-dashoffset: 0;
            stroke-width: 128;
          }
          to {
            stroke: black;
            stroke-width: 1024;
          }
        }
        #make-me-a-hanzi-animation-0 {
          animation: keyframes0 0.7325846354166666s both;
          animation-delay: 0s;
          animation-timing-function: linear;
        }
      
        @keyframes keyframes1 {
          from {
            stroke: blue;
            stroke-dashoffset: 703;
            stroke-width: 128;
          }
          70% {
            animation-timing-function: step-end;
            stroke: blue;
            stroke-dashoffset: 0;
            stroke-width: 128;
          }
          to {
            stroke: black;
            stroke-width: 1024;
          }
        }
        #make-me-a-hanzi-animation-1 {
          animation: keyframes1 0.8221028645833334s both;
          animation-delay: 0.7325846354166666s;
          animation-timing-function: linear;
        }
      
        @keyframes keyframes2 {
          from {
            stroke: blue;
            stroke-dashoffset: 992;
            stroke-width: 128;
          }
          76% {
            animation-timing-function: step-end;
            stroke: blue;
            stroke-dashoffset: 0;
            stroke-width: 128;
          }
          to {
            stroke: black;
            stroke-width: 1024;
          }
        }
        #make-me-a-hanzi-animation-2 {
          animation: keyframes2 1.0572916666666667s both;
          animation-delay: 1.5546875s;
          animation-timing-function: linear;
        }
      
        @keyframes keyframes3 {
          from {
            stroke: blue;
            stroke-dashoffset: 631;
            stroke-width: 128;
          }
          67% {
            animation-timing-function: step-end;
            stroke: blue;
            stroke-dashoffset: 0;
            stroke-width: 128;
          }
          to {
            stroke: black;
            stroke-width: 1024;
          }
        }
        #make-me-a-hanzi-animation-3 {
          animation: keyframes3 0.7635091145833334s both;
          animation-delay: 2.611979166666667s;
          animation-timing-function: linear;
        }
      
        @keyframes keyframes4 {
          from {
            stroke: blue;
            stroke-dashoffset: 647;
            stroke-width: 128;
          }
          68% {
            animation-timing-function: step-end;
            stroke: blue;
            stroke-dashoffset: 0;
            stroke-width: 128;
          }
          to {
            stroke: black;
            stroke-width: 1024;
          }
        }
        #make-me-a-hanzi-animation-4 {
          animation: keyframes4 0.7765299479166666s both;
          animation-delay: 3.3754882812500004s;
          animation-timing-function: linear;
        }
      
        @keyframes keyframes5 {
          from {
            stroke: blue;
            stroke-dashoffset: 420;
            stroke-width: 128;
          }
          58% {
            animation-timing-function: step-end;
            stroke: blue;
            stroke-dashoffset: 0;
            stroke-width: 128;
          }
          to {
            stroke: black;
            stroke-width: 1024;
          }
        }
        #make-me-a-hanzi-animation-5 {
          animation: keyframes5 0.591796875s both;
          animation-delay: 4.152018229166667s;
          animation-timing-function: linear;
        }
      
        @keyframes keyframes6 {
          from {
            stroke: blue;
            stroke-dashoffset: 492;
            stroke-width: 128;
          }
          62% {
            animation-timing-function: step-end;
            stroke: blue;
            stroke-dashoffset: 0;
            stroke-width: 128;
          }
          to {
            stroke: black;
            stroke-width: 1024;
          }
        }
        #make-me-a-hanzi-animation-6 {
          animation: keyframes6 0.650390625s both;
          animation-delay: 4.743815104166667s;
          animation-timing-function: linear;
        }
      
        @keyframes keyframes7 {
          from {
            stroke: blue;
            stroke-dashoffset: 519;
            stroke-width: 128;
          }
          63% {
            animation-timing-function: step-end;
            stroke: blue;
            stroke-dashoffset: 0;
            stroke-width: 128;
          }
          to {
            stroke: black;
            stroke-width: 1024;
          }
        }
        #make-me-a-hanzi-animation-7 {
          animation: keyframes7 0.67236328125s both;
          animation-delay: 5.394205729166667s;
          animation-timing-function: linear;
        }
      
        @keyframes keyframes8 {
          from {
            stroke: blue;
            stroke-dashoffset: 560;
            stroke-width: 128;
          }
          65% {
            animation-timing-function: step-end;
            stroke: blue;
            stroke-dashoffset: 0;
            stroke-width: 128;
          }
          to {
            stroke: black;
            stroke-width: 1024;
          }
        }
        #make-me-a-hanzi-animation-8 {
          animation: keyframes8 0.7057291666666666s both;
          animation-delay: 6.066569010416667s;
          animation-timing-function: linear;
        }
      
        @keyframes keyframes9 {
          from {
            stroke: blue;
            stroke-dashoffset: 762;
            stroke-width: 128;
          }
          71% {
            animation-timing-function: step-end;
            stroke: blue;
            stroke-dashoffset: 0;
            stroke-width: 128;
          }
          to {
            stroke: black;
            stroke-width: 1024;
          }
        }
        #make-me-a-hanzi-animation-9 {
          animation: keyframes9 0.8701171875s both;
          animation-delay: 6.772298177083334s;
          animation-timing-function: linear;
        }
      
        @keyframes keyframes10 {
          from {
            stroke: blue;
            stroke-dashoffset: 891;
            stroke-width: 128;
          }
          74% {
            animation-timing-function: step-end;
            stroke: blue;
            stroke-dashoffset: 0;
            stroke-width: 128;
          }
          to {
            stroke: black;
            stroke-width: 1024;
          }
        }
        #make-me-a-hanzi-animation-10 {
          animation: keyframes10 0.97509765625s both;
          animation-delay: 7.642415364583334s;
          animation-timing-function: linear;
        }
      
        @keyframes keyframes11 {
          from {
            stroke: blue;
            stroke-dashoffset: 580;
            stroke-width: 128;
          }
          65% {
            animation-timing-function: step-end;
            stroke: blue;
            stroke-dashoffset: 0;
            stroke-width: 128;
          }
          to {
            stroke: black;
            stroke-width: 1024;
          }
        }
        #make-me-a-hanzi-animation-11 {
          animation: keyframes11 0.7220052083333334s both;
          animation-delay: 8.617513020833334s;
          animation-timing-function: linear;
        }
      
        @keyframes keyframes12 {
          from {
            stroke: blue;
            stroke-dashoffset: 671;
            stroke-width: 128;
          }
          69% {
            animation-timing-function: step-end;
            stroke: blue;
            stroke-dashoffset: 0;
            stroke-width: 128;
          }
          to {
            stroke: black;
            stroke-width: 1024;
          }
        }
        #make-me-a-hanzi-animation-12 {
          animation: keyframes12 0.7960611979166666s both;
          animation-delay: 9.339518229166668s;
          animation-timing-function: linear;
        }
      
        @keyframes keyframes13 {
          from {
            stroke: blue;
            stroke-dashoffset: 715;
            stroke-width: 128;
          }
          70% {
            animation-timing-function: step-end;
            stroke: blue;
            stroke-dashoffset: 0;
            stroke-width: 128;
          }
          to {
            stroke: black;
            stroke-width: 1024;
          }
        }
        #make-me-a-hanzi-animation-13 {
          animation: keyframes13 0.8318684895833334s both;
          animation-delay: 10.135579427083334s;
          animation-timing-function: linear;
        }
      
    </style>
    
      <path d="M 287 576 L 315 580 Q 319 580 351 587 Q 383 594 391 596 L 419 605 Q 431 608 431 614 Q 432 616 432 617 Q 432 622 427 627 Q 422 633 408 639 L 385 648 Q 380 649 373 649 L 367 649 L 341 640 L 315 630 Q 305 626 270 620 L 235 612 L 180 602 Q 152 596 139 595 L 100 590 Q 87 588 86 582 L 86 581 Q 86 575 93 569 Q 101 561 111 558 Q 122 555 138 554 L 161 554 Q 170 556 183 558 L 212 561 L 235 564 Q 239 565 263 570 L 287 576 Z" fill="lightgray" />
    
      <path d="M 130 413 L 115 418 Q 106 421 97 421 Q 93 421 89 420 Q 77 418 76 414 L 76 413 Q 76 409 80 402 Q 85 394 87 390 Q 89 385 91 376 Q 93 366 95 344 Q 96 329 96 317 L 96 306 L 93 220 Q 93 208 89 159 Q 85 110 83 94 L 77 49 Q 76 42 76 35 Q 76 28 77 20 Q 79 4 83 -3 Q 87 -10 93 -19 Q 99 -28 104 -28 Q 108 -28 111 -26 Q 113 -24 114 -15 Q 115 -7 119 0 L 121 40 L 125 102 Q 127 153 127 162 Q 128 172 129 200 L 129 221 L 133 282 Q 135 326 135 344 L 135 384 C 135 411 135 411 130 413 Z" fill="lightgray" />
    
      <path d="M 188 423 L 161 418 Q 155 416 130 413 C 100 409 105 380 135 384 L 152 386 Q 177 392 187 394 L 221 402 L 265 410 L 302 415 L 321 418 Q 332 419 339 419 L 346 419 Q 355 418 360 416 Q 365 413 369 409 Q 371 406 373 400 Q 375 396 375 384 L 375 348 Q 375 324 377 276 L 377 234 L 375 160 Q 375 138 374 130 L 371 95 Q 369 76 366 67 Q 363 58 359 58 C 346 31 338 26 339 23 L 351 -2 L 361 -26 Q 367 -40 371 -42 L 372 -42 Q 379 -42 393 -26 Q 409 -7 414 6 Q 419 20 421 38 Q 424 56 424 82 Q 423 108 422 140 Q 421 170 421 178 L 424 353 Q 424 381 426 390 Q 427 398 431 406 Q 435 415 435 418 Q 435 426 431 430 L 421 440 L 403 455 L 387 465 Q 377 470 375 472 Q 369 472 357 466 Q 345 460 329 457 Q 315 453 303 450 L 265 441 L 223 433 L 188 423 Z" fill="lightgray" />
    
      <path d="M 183 558 L 187 538 Q 187 534 189 514 L 189 458 Q 189 446 188 423 L 187 394 L 185 372 Q 183 348 176 319 Q 169 290 162 274 Q 155 258 147 247 Q 140 236 129 221 C 111 197 107 180 129 200 L 160 228 Q 174 241 185 260 Q 197 280 204 308 Q 212 337 215 356 Q 218 374 221 402 L 223 433 L 223 467 Q 223 478 225 496 Q 228 514 232 523 Q 235 532 235 536 Q 235 540 230 546 Q 225 552 212 561 C 188 579 177 587 183 558 Z" fill="lightgray" />
    
      <path d="M 303 450 L 305 494 Q 306 508 307 515 Q 309 522 311 531 Q 315 540 315 544 Q 315 549 313 554 Q 311 558 303 564 L 287 576 C 263 594 259 597 263 570 L 265 555 L 265 540 Q 267 516 267 509 L 267 493 L 265 441 L 265 410 L 261 334 Q 261 312 263 291 Q 267 270 274 258 Q 282 246 292 241 Q 303 236 318 233 Q 329 231 339 231 L 346 231 Q 359 232 377 234 C 407 237 405 267 377 276 L 362 281 L 360 281 Q 355 281 341 278 Q 332 276 326 276 Q 319 276 315 278 Q 309 281 304 288 Q 300 296 299 310 L 299 344 L 302 415 L 303 450 Z" fill="lightgray" />
    
      <path d="M 317 137 Q 329 139 332 143 Q 335 148 335 152 Q 334 156 327 160 Q 320 164 308 167 Q 296 171 291 172 Q 283 172 277 170 L 259 164 Q 247 159 230 154 Q 213 150 199 146 L 173 140 Q 159 137 157 133 Q 156 132 156 130 Q 156 127 158 124 Q 161 118 173 116 Q 185 114 201 114 Q 215 114 226 117 L 251 123 L 317 137 Z" fill="lightgray" />
    
      <path d="M 119 0 L 339 23 C 369 26 388 51 359 58 L 358 58 Q 356 58 351 60 Q 345 64 335 66 Q 325 68 325 69 L 322 69 Q 317 69 309 67 Q 299 65 271 62 L 211 52 L 121 40 C 91 36 89 -3 119 0 Z" fill="lightgray" />
    
      <path d="M 651 528 L 665 530 L 709 538 Q 713 540 733 544 L 751 549 Q 759 551 760 556 L 760 558 Q 760 563 756 567 Q 751 573 739 578 Q 727 583 717 586 Q 712 587 707 587 Q 702 587 697 586 Q 693 586 681 581 Q 669 576 653 571 L 593 558 L 557 550 Q 549 548 537 546 Q 524 544 511 543 L 501 542 Q 491 541 489 539 Q 486 537 486 534 L 486 533 Q 486 529 492 525 Q 499 520 507 517 Q 517 513 525 511 Q 532 509 540 509 L 545 509 Q 553 509 567 512 L 593 516 L 651 528 Z" fill="lightgray" />
    
      <path d="M 648 436 L 651 528 L 653 571 L 653 598 Q 653 599 654 610 Q 655 622 658 638 Q 661 654 665 663 Q 671 678 671 684 L 671 686 Q 669 692 660 699 Q 651 706 641 709 Q 631 713 617 717 Q 603 720 592 721 Q 579 721 575 716 Q 570 713 570 708 L 570 706 Q 570 700 576 689 Q 583 678 585 668 Q 587 659 589 646 Q 591 634 593 618 Q 595 604 595 591 L 593 558 L 593 516 L 591 426 C 590 396 647 406 648 436 Z" fill="lightgray" />
    
      <path d="M 591 426 L 567 420 L 543 416 L 480 405 L 453 402 L 443 400 Q 437 399 435 396 Q 434 395 434 394 Q 434 390 438 386 Q 442 381 455 376 L 473 368 Q 483 364 495 362 Q 506 360 511 360 Q 515 361 523 365 L 541 372 Q 551 374 560 377 Q 569 380 588 384 L 626 392 Q 645 396 658 398 L 729 412 L 757 416 Q 769 418 811 422 Q 853 426 873 429 L 914 434 Q 939 437 945 442 Q 951 448 951 453 Q 951 458 941 464 Q 931 470 921 474 Q 910 478 894 482 Q 884 485 875 485 Q 871 485 867 484 Q 861 484 844 478 Q 827 473 809 469 Q 791 465 766 460 L 695 446 L 663 439 Q 661 438 648 436 L 591 426 Z" fill="lightgray" />
    
      <path d="M 658 398 L 642 379 Q 619 351 584 316 Q 549 282 520 257 Q 491 232 455 206 L 437 194 Q 428 187 428 183 L 428 182 Q 429 179 434 179 Q 436 179 439 180 L 464 188 Q 482 194 511 210 Q 540 226 553 235 Q 566 244 579 255 L 618 290 L 655 326 Q 671 342 694 369 L 729 412 L 766 460 L 778 476 L 809 519 Q 825 540 835 552 Q 845 565 855 571 Q 865 577 865 578 Q 868 583 868 589 L 868 593 Q 867 602 859 612 Q 852 622 845 629 Q 838 636 830 643 Q 821 649 815 652 Q 809 654 805 654 Q 802 654 800 653 Q 797 650 795 634 Q 795 619 790 602 Q 785 584 770 558 Q 755 532 735 502 Q 715 472 710 466 Q 705 458 695 446 L 658 398 Z" fill="lightgray" />
    
      <path d="M 579 255 L 603 252 L 606 252 Q 612 252 623 256 L 641 264 L 688 283 Q 701 288 713 290 Q 716 291 719 291 Q 724 291 727 288 Q 728 285 728 281 L 728 276 Q 726 268 719 258 L 670 194 C 652 170 667 158 689 178 L 711 198 Q 721 208 734 217 L 766 240 Q 785 254 795 258 L 816 266 Q 824 270 826 274 L 826 277 Q 826 280 825 284 Q 823 290 816 296 Q 809 301 797 308 L 777 320 Q 767 326 759 328 Q 750 330 745 330 Q 739 330 728 325 Q 717 320 702 315 Q 687 310 679 308 L 618 290 C 589 282 549 259 579 255 Z" fill="lightgray" />
    
      <path d="M 670 194 L 647 200 Q 638 204 633 204 Q 628 204 627 200 Q 627 192 633 185 Q 639 178 643 170 Q 647 162 650 152 Q 653 142 654 136 Q 655 130 657 119 L 658 84 L 657 68 L 655 7 Q 654 -14 652 -34 Q 649 -53 645 -63 Q 641 -73 636 -75 Q 634 -76 631 -76 Q 627 -76 620 -74 Q 608 -71 601 -68 L 581 -60 Q 579 -59 576 -59 Q 573 -59 571 -61 L 571 -63 Q 571 -65 575 -70 L 589 -85 Q 600 -96 613 -112 L 637 -143 Q 647 -158 653 -158 L 655 -158 Q 662 -158 671 -146 Q 683 -132 689 -114 Q 695 -97 697 -82 Q 699 -68 699 -18 L 701 70 L 701 90 L 699 125 L 696 163 Q 696 164 689 178 C 683 191 683 191 670 194 Z" fill="lightgray" />
    
      <path d="M 657 119 L 635 116 Q 625 115 573 107 Q 522 98 499 96 L 474 94 L 465 93 Q 459 92 458 89 L 458 87 Q 458 85 460 81 Q 463 76 475 70 L 491 62 Q 500 58 510 56 Q 521 54 526 54 Q 531 54 539 58 Q 547 62 553 64 Q 557 65 577 69 Q 597 72 610 75 Q 624 78 636 80 L 658 84 L 701 90 L 727 94 Q 745 97 791 100 Q 837 103 855 104 L 893 108 Q 915 109 921 114 Q 927 118 927 123 Q 927 128 919 134 Q 911 140 900 144 Q 890 148 877 152 Q 863 156 852 156 Q 846 156 830 151 Q 814 146 795 142 L 745 134 L 719 128 Q 713 127 699 125 L 657 119 Z" fill="lightgray" />
    
    
      <clipPath id="make-me-a-hanzi-clip-0">
        <path d="M 287 576 L 315 580 Q 319 580 351 587 Q 383 594 391 596 L 419 605 Q 431 608 431 614 Q 432 616 432 617 Q 432 622 427 627 Q 422 633 408 639 L 385 648 Q 380 649 373 649 L 367 649 L 341 640 L 315 630 Q 305 626 270 620 L 235 612 L 180 602 Q 152 596 139 595 L 100 590 Q 87 588 86 582 L 86 581 Q 86 575 93 569 Q 101 561 111 558 Q 122 555 138 554 L 161 554 Q 170 556 183 558 L 212 561 L 235 564 Q 239 565 263 570 L 287 576 Z" />
      </clipPath>
      <path clip-path="url(#make-me-a-hanzi-clip-0)" d="M 92 582 L 121 574 L 155 575 L 315 604 L 370 620 L 423 619" fill="none" id="make-me-a-hanzi-animation-0" stroke-dasharray="465 930" stroke-linecap="round" />
    
      <clipPath id="make-me-a-hanzi-clip-1">
        <path d="M 130 413 L 115 418 Q 106 421 97 421 Q 93 421 89 420 Q 77 418 76 414 L 76 413 Q 76 409 80 402 Q 85 394 87 390 Q 89 385 91 376 Q 93 366 95 344 Q 96 329 96 317 L 96 306 L 93 220 Q 93 208 89 159 Q 85 110 83 94 L 77 49 Q 76 42 76 35 Q 76 28 77 20 Q 79 4 83 -3 Q 87 -10 93 -19 Q 99 -28 104 -28 Q 108 -28 111 -26 Q 113 -24 114 -15 Q 115 -7 119 0 L 121 40 L 125 102 Q 127 153 127 162 Q 128 172 129 200 L 129 221 L 133 282 Q 135 326 135 344 L 135 384 C 135 411 135 411 130 413 Z" />
      </clipPath>
      <path clip-path="url(#make-me-a-hanzi-clip-1)" d="M 84 414 L 110 395 L 115 351 L 107 114 L 98 40 L 105 -18" fill="none" id="make-me-a-hanzi-animation-1" stroke-dasharray="575 1150" stroke-linecap="round" />
    
      <clipPath id="make-me-a-hanzi-clip-2">
        <path d="M 188 423 L 161 418 Q 155 416 130 413 C 100 409 105 380 135 384 L 152 386 Q 177 392 187 394 L 221 402 L 265 410 L 302 415 L 321 418 Q 332 419 339 419 L 346 419 Q 355 418 360 416 Q 365 413 369 409 Q 371 406 373 400 Q 375 396 375 384 L 375 348 Q 375 324 377 276 L 377 234 L 375 160 Q 375 138 374 130 L 371 95 Q 369 76 366 67 Q 363 58 359 58 C 346 31 338 26 339 23 L 351 -2 L 361 -26 Q 367 -40 371 -42 L 372 -42 Q 379 -42 393 -26 Q 409 -7 414 6 Q 419 20 421 38 Q 424 56 424 82 Q 423 108 422 140 Q 421 170 421 178 L 424 353 Q 424 381 426 390 Q 427 398 431 406 Q 435 415 435 418 Q 435 426 431 430 L 421 440 L 403 455 L 387 465 Q 377 470 375 472 Q 369 472 357 466 Q 345 460 329 457 Q 315 453 303 450 L 265 441 L 223 433 L 188 423 Z" />
      </clipPath>
      <path clip-path="url(#make-me-a-hanzi-clip-2)" d="M 138 392 L 148 401 L 343 440 L 371 442 L 401 414 L 397 74 L 380 20 L 372 -37" fill="none" id="make-me-a-hanzi-animation-2" stroke-dasharray="864 1728" stroke-linecap="round" />
    
      <clipPath id="make-me-a-hanzi-clip-3">
        <path d="M 183 558 L 187 538 Q 187 534 189 514 L 189 458 Q 189 446 188 423 L 187 394 L 185 372 Q 183 348 176 319 Q 169 290 162 274 Q 155 258 147 247 Q 140 236 129 221 C 111 197 107 180 129 200 L 160 228 Q 174 241 185 260 Q 197 280 204 308 Q 212 337 215 356 Q 218 374 221 402 L 223 433 L 223 467 Q 223 478 225 496 Q 228 514 232 523 Q 235 532 235 536 Q 235 540 230 546 Q 225 552 212 561 C 188 579 177 587 183 558 Z" />
      </clipPath>
      <path clip-path="url(#make-me-a-hanzi-clip-3)" d="M 191 554 L 211 533 L 205 395 L 197 343 L 181 282 L 164 250 L 135 216 L 134 205" fill="none" id="make-me-a-hanzi-animation-3" stroke-dasharray="503 1006" stroke-linecap="round" />
    
      <clipPath id="make-me-a-hanzi-clip-4">
        <path d="M 303 450 L 305 494 Q 306 508 307 515 Q 309 522 311 531 Q 315 540 315 544 Q 315 549 313 554 Q 311 558 303 564 L 287 576 C 263 594 259 597 263 570 L 265 555 L 265 540 Q 267 516 267 509 L 267 493 L 265 441 L 265 410 L 261 334 Q 261 312 263 291 Q 267 270 274 258 Q 282 246 292 241 Q 303 236 318 233 Q 329 231 339 231 L 346 231 Q 359 232 377 234 C 407 237 405 267 377 276 L 362 281 L 360 281 Q 355 281 341 278 Q 332 276 326 276 Q 319 276 315 278 Q 309 281 304 288 Q 300 296 299 310 L 299 344 L 302 415 L 303 450 Z" />
      </clipPath>
      <path clip-path="url(#make-me-a-hanzi-clip-4)" d="M 271 563 L 283 557 L 290 543 L 280 356 L 286 279 L 305 258 L 355 255 L 368 241" fill="none" id="make-me-a-hanzi-animation-4" stroke-dasharray="519 1038" stroke-linecap="round" />
    
      <clipPath id="make-me-a-hanzi-clip-5">
        <path d="M 317 137 Q 329 139 332 143 Q 335 148 335 152 Q 334 156 327 160 Q 320 164 308 167 Q 296 171 291 172 Q 283 172 277 170 L 259 164 Q 247 159 230 154 Q 213 150 199 146 L 173 140 Q 159 137 157 133 Q 156 132 156 130 Q 156 127 158 124 Q 161 118 173 116 Q 185 114 201 114 Q 215 114 226 117 L 251 123 L 317 137 Z" />
      </clipPath>
      <path clip-path="url(#make-me-a-hanzi-clip-5)" d="M 164 129 L 207 130 L 287 152 L 325 150" fill="none" id="make-me-a-hanzi-animation-5" stroke-dasharray="292 584" stroke-linecap="round" />
    
      <clipPath id="make-me-a-hanzi-clip-6">
        <path d="M 119 0 L 339 23 C 369 26 388 51 359 58 L 358 58 Q 356 58 351 60 Q 345 64 335 66 Q 325 68 325 69 L 322 69 Q 317 69 309 67 Q 299 65 271 62 L 211 52 L 121 40 C 91 36 89 -3 119 0 Z" />
      </clipPath>
      <path clip-path="url(#make-me-a-hanzi-clip-6)" d="M 126 6 L 146 24 L 313 43 L 353 53" fill="none" id="make-me-a-hanzi-animation-6" stroke-dasharray="364 728" stroke-linecap="round" />
    
      <clipPath id="make-me-a-hanzi-clip-7">
        <path d="M 651 528 L 665 530 L 709 538 Q 713 540 733 544 L 751 549 Q 759 551 760 556 L 760 558 Q 760 563 756 567 Q 751 573 739 578 Q 727 583 717 586 Q 712 587 707 587 Q 702 587 697 586 Q 693 586 681 581 Q 669 576 653 571 L 593 558 L 557 550 Q 549 548 537 546 Q 524 544 511 543 L 501 542 Q 491 541 489 539 Q 486 537 486 534 L 486 533 Q 486 529 492 525 Q 499 520 507 517 Q 517 513 525 511 Q 532 509 540 509 L 545 509 Q 553 509 567 512 L 593 516 L 651 528 Z" />
      </clipPath>
      <path clip-path="url(#make-me-a-hanzi-clip-7)" d="M 493 534 L 548 528 L 710 563 L 752 557" fill="none" id="make-me-a-hanzi-animation-7" stroke-dasharray="391 782" stroke-linecap="round" />
    
      <clipPath id="make-me-a-hanzi-clip-8">
        <path d="M 648 436 L 651 528 L 653 571 L 653 598 Q 653 599 654 610 Q 655 622 658 638 Q 661 654 665 663 Q 671 678 671 684 L 671 686 Q 669 692 660 699 Q 651 706 641 709 Q 631 713 617 717 Q 603 720 592 721 Q 579 721 575 716 Q 570 713 570 708 L 570 706 Q 570 700 576 689 Q 583 678 585 668 Q 587 659 589 646 Q 591 634 593 618 Q 595 604 595 591 L 593 558 L 593 516 L 591 426 C 590 396 647 406 648 436 Z" />
      </clipPath>
      <path clip-path="url(#make-me-a-hanzi-clip-8)" d="M 581 707 L 625 671 L 621 460 L 597 433" fill="none" id="make-me-a-hanzi-animation-8" stroke-dasharray="432 864" stroke-linecap="round" />
    
      <clipPath id="make-me-a-hanzi-clip-9">
        <path d="M 591 426 L 567 420 L 543 416 L 480 405 L 453 402 L 443 400 Q 437 399 435 396 Q 434 395 434 394 Q 434 390 438 386 Q 442 381 455 376 L 473 368 Q 483 364 495 362 Q 506 360 511 360 Q 515 361 523 365 L 541 372 Q 551 374 560 377 Q 569 380 588 384 L 626 392 Q 645 396 658 398 L 729 412 L 757 416 Q 769 418 811 422 Q 853 426 873 429 L 914 434 Q 939 437 945 442 Q 951 448 951 453 Q 951 458 941 464 Q 931 470 921 474 Q 910 478 894 482 Q 884 485 875 485 Q 871 485 867 484 Q 861 484 844 478 Q 827 473 809 469 Q 791 465 766 460 L 695 446 L 663 439 Q 661 438 648 436 L 591 426 Z" />
      </clipPath>
      <path clip-path="url(#make-me-a-hanzi-clip-9)" d="M 440 392 L 503 385 L 859 455 L 939 452" fill="none" id="make-me-a-hanzi-animation-9" stroke-dasharray="634 1268" stroke-linecap="round" />
    
      <clipPath id="make-me-a-hanzi-clip-10">
        <path d="M 658 398 L 642 379 Q 619 351 584 316 Q 549 282 520 257 Q 491 232 455 206 L 437 194 Q 428 187 428 183 L 428 182 Q 429 179 434 179 Q 436 179 439 180 L 464 188 Q 482 194 511 210 Q 540 226 553 235 Q 566 244 579 255 L 618 290 L 655 326 Q 671 342 694 369 L 729 412 L 766 460 L 778 476 L 809 519 Q 825 540 835 552 Q 845 565 855 571 Q 865 577 865 578 Q 868 583 868 589 L 868 593 Q 867 602 859 612 Q 852 622 845 629 Q 838 636 830 643 Q 821 649 815 652 Q 809 654 805 654 Q 802 654 800 653 Q 797 650 795 634 Q 795 619 790 602 Q 785 584 770 558 Q 755 532 735 502 Q 715 472 710 466 Q 705 458 695 446 L 658 398 Z" />
      </clipPath>
      <path clip-path="url(#make-me-a-hanzi-clip-10)" d="M 804 648 L 826 595 L 707 421 L 635 337 L 554 260 L 498 218 L 432 183" fill="none" id="make-me-a-hanzi-animation-10" stroke-dasharray="763 1526" stroke-linecap="round" />
    
      <clipPath id="make-me-a-hanzi-clip-11">
        <path d="M 579 255 L 603 252 L 606 252 Q 612 252 623 256 L 641 264 L 688 283 Q 701 288 713 290 Q 716 291 719 291 Q 724 291 727 288 Q 728 285 728 281 L 728 276 Q 726 268 719 258 L 670 194 C 652 170 667 158 689 178 L 711 198 Q 721 208 734 217 L 766 240 Q 785 254 795 258 L 816 266 Q 824 270 826 274 L 826 277 Q 826 280 825 284 Q 823 290 816 296 Q 809 301 797 308 L 777 320 Q 767 326 759 328 Q 750 330 745 330 Q 739 330 728 325 Q 717 320 702 315 Q 687 310 679 308 L 618 290 C 589 282 549 259 579 255 Z" />
      </clipPath>
      <path clip-path="url(#make-me-a-hanzi-clip-11)" d="M 585 258 L 699 301 L 748 304 L 765 284 L 756 267 L 689 196 L 679 195" fill="none" id="make-me-a-hanzi-animation-11" stroke-dasharray="452 904" stroke-linecap="round" />
    
      <clipPath id="make-me-a-hanzi-clip-12">
        <path d="M 670 194 L 647 200 Q 638 204 633 204 Q 628 204 627 200 Q 627 192 633 185 Q 639 178 643 170 Q 647 162 650 152 Q 653 142 654 136 Q 655 130 657 119 L 658 84 L 657 68 L 655 7 Q 654 -14 652 -34 Q 649 -53 645 -63 Q 641 -73 636 -75 Q 634 -76 631 -76 Q 627 -76 620 -74 Q 608 -71 601 -68 L 581 -60 Q 579 -59 576 -59 Q 573 -59 571 -61 L 571 -63 Q 571 -65 575 -70 L 589 -85 Q 600 -96 613 -112 L 637 -143 Q 647 -158 653 -158 L 655 -158 Q 662 -158 671 -146 Q 683 -132 689 -114 Q 695 -97 697 -82 Q 699 -68 699 -18 L 701 70 L 701 90 L 699 125 L 696 163 Q 696 164 689 178 C 683 191 683 191 670 194 Z" />
      </clipPath>
      <path clip-path="url(#make-me-a-hanzi-clip-12)" d="M 633 197 L 660 178 L 676 142 L 679 34 L 670 -76 L 652 -106 L 574 -62" fill="none" id="make-me-a-hanzi-animation-12" stroke-dasharray="543 1086" stroke-linecap="round" />
    
      <clipPath id="make-me-a-hanzi-clip-13">
        <path d="M 657 119 L 635 116 Q 625 115 573 107 Q 522 98 499 96 L 474 94 L 465 93 Q 459 92 458 89 L 458 87 Q 458 85 460 81 Q 463 76 475 70 L 491 62 Q 500 58 510 56 Q 521 54 526 54 Q 531 54 539 58 Q 547 62 553 64 Q 557 65 577 69 Q 597 72 610 75 Q 624 78 636 80 L 658 84 L 701 90 L 727 94 Q 745 97 791 100 Q 837 103 855 104 L 893 108 Q 915 109 921 114 Q 927 118 927 123 Q 927 128 919 134 Q 911 140 900 144 Q 890 148 877 152 Q 863 156 852 156 Q 846 156 830 151 Q 814 146 795 142 L 745 134 L 719 128 Q 713 127 699 125 L 657 119 Z" />
      </clipPath>
      <path clip-path="url(#make-me-a-hanzi-clip-13)" d="M 463 88 L 524 76 L 587 92 L 856 130 L 916 124" fill="none" id="make-me-a-hanzi-animation-13" stroke-dasharray="587 1174" stroke-linecap="round" />
    
  </g>
</svg>