<svg xmlns="http://www.w3.org/2000/svg" version="1.1" viewBox="0 0 1024 1024">
  <g stroke="lightgray" stroke-dasharray="1,1" stroke-width="1" transform="scale(4, 4)">
    <line x1="0" y1="0" x2="256" y2="256" />
    <line x1="256" y1="0" x2="0" y2="256" />
    <line x1="128" y1="0" x2="128" y2="256" />
    <line x1="0" y1="128" x2="256" y2="128" />
  </g>
  <g transform="scale(1.0, -1.0) translate(0.0, -816.00)">
    <style type="text/css">
      
        @keyframes keyframes0 {
          from {
            stroke: blue;
            stroke-dashoffset: 551;
            stroke-width: 128;
          }
          64% {
            animation-timing-function: step-end;
            stroke: blue;
            stroke-dashoffset: 0;
            stroke-width: 128;
          }
          to {
            stroke: black;
            stroke-width: 1024;
          }
        }
        #make-me-a-hanzi-animation-0 {
          animation: keyframes0 0.6984049479166666s both;
          animation-delay: 0s;
          animation-timing-function: linear;
        }
      
        @keyframes keyframes1 {
          from {
            stroke: blue;
            stroke-dashoffset: 699;
            stroke-width: 128;
          }
          69% {
            animation-timing-function: step-end;
            stroke: blue;
            stroke-dashoffset: 0;
            stroke-width: 128;
          }
          to {
            stroke: black;
            stroke-width: 1024;
          }
        }
        #make-me-a-hanzi-animation-1 {
          animation: keyframes1 0.81884765625s both;
          animation-delay: 0.6984049479166666s;
          animation-timing-function: linear;
        }
      
        @keyframes keyframes2 {
          from {
            stroke: blue;
            stroke-dashoffset: 959;
            stroke-width: 128;
          }
          76% {
            animation-timing-function: step-end;
            stroke: blue;
            stroke-dashoffset: 0;
            stroke-width: 128;
          }
          to {
            stroke: black;
            stroke-width: 1024;
          }
        }
        #make-me-a-hanzi-animation-2 {
          animation: keyframes2 1.0304361979166667s both;
          animation-delay: 1.5172526041666665s;
          animation-timing-function: linear;
        }
      
        @keyframes keyframes3 {
          from {
            stroke: blue;
            stroke-dashoffset: 622;
            stroke-width: 128;
          }
          67% {
            animation-timing-function: step-end;
            stroke: blue;
            stroke-dashoffset: 0;
            stroke-width: 128;
          }
          to {
            stroke: black;
            stroke-width: 1024;
          }
        }
        #make-me-a-hanzi-animation-3 {
          animation: keyframes3 0.7561848958333334s both;
          animation-delay: 2.547688802083333s;
          animation-timing-function: linear;
        }
      
        @keyframes keyframes4 {
          from {
            stroke: blue;
            stroke-dashoffset: 627;
            stroke-width: 128;
          }
          67% {
            animation-timing-function: step-end;
            stroke: blue;
            stroke-dashoffset: 0;
            stroke-width: 128;
          }
          to {
            stroke: black;
            stroke-width: 1024;
          }
        }
        #make-me-a-hanzi-animation-4 {
          animation: keyframes4 0.76025390625s both;
          animation-delay: 3.3038736979166665s;
          animation-timing-function: linear;
        }
      
        @keyframes keyframes5 {
          from {
            stroke: blue;
            stroke-dashoffset: 402;
            stroke-width: 128;
          }
          57% {
            animation-timing-function: step-end;
            stroke: blue;
            stroke-dashoffset: 0;
            stroke-width: 128;
          }
          to {
            stroke: black;
            stroke-width: 1024;
          }
        }
        #make-me-a-hanzi-animation-5 {
          animation: keyframes5 0.5771484375s both;
          animation-delay: 4.064127604166666s;
          animation-timing-function: linear;
        }
      
        @keyframes keyframes6 {
          from {
            stroke: blue;
            stroke-dashoffset: 463;
            stroke-width: 128;
          }
          60% {
            animation-timing-function: step-end;
            stroke: blue;
            stroke-dashoffset: 0;
            stroke-width: 128;
          }
          to {
            stroke: black;
            stroke-width: 1024;
          }
        }
        #make-me-a-hanzi-animation-6 {
          animation: keyframes6 0.6267903645833334s both;
          animation-delay: 4.641276041666666s;
          animation-timing-function: linear;
        }
      
        @keyframes keyframes7 {
          from {
            stroke: blue;
            stroke-dashoffset: 385;
            stroke-width: 128;
          }
          56% {
            animation-timing-function: step-end;
            stroke: blue;
            stroke-dashoffset: 0;
            stroke-width: 128;
          }
          to {
            stroke: black;
            stroke-width: 1024;
          }
        }
        #make-me-a-hanzi-animation-7 {
          animation: keyframes7 0.5633138020833334s both;
          animation-delay: 5.268066406249999s;
          animation-timing-function: linear;
        }
      
        @keyframes keyframes8 {
          from {
            stroke: blue;
            stroke-dashoffset: 717;
            stroke-width: 128;
          }
          70% {
            animation-timing-function: step-end;
            stroke: blue;
            stroke-dashoffset: 0;
            stroke-width: 128;
          }
          to {
            stroke: black;
            stroke-width: 1024;
          }
        }
        #make-me-a-hanzi-animation-8 {
          animation: keyframes8 0.83349609375s both;
          animation-delay: 5.831380208333332s;
          animation-timing-function: linear;
        }
      
        @keyframes keyframes9 {
          from {
            stroke: blue;
            stroke-dashoffset: 875;
            stroke-width: 128;
          }
          74% {
            animation-timing-function: step-end;
            stroke: blue;
            stroke-dashoffset: 0;
            stroke-width: 128;
          }
          to {
            stroke: black;
            stroke-width: 1024;
          }
        }
        #make-me-a-hanzi-animation-9 {
          animation: keyframes9 0.9620768229166666s both;
          animation-delay: 6.664876302083332s;
          animation-timing-function: linear;
        }
      
        @keyframes keyframes10 {
          from {
            stroke: blue;
            stroke-dashoffset: 747;
            stroke-width: 128;
          }
          71% {
            animation-timing-function: step-end;
            stroke: blue;
            stroke-dashoffset: 0;
            stroke-width: 128;
          }
          to {
            stroke: black;
            stroke-width: 1024;
          }
        }
        #make-me-a-hanzi-animation-10 {
          animation: keyframes10 0.85791015625s both;
          animation-delay: 7.626953124999999s;
          animation-timing-function: linear;
        }
      
        @keyframes keyframes11 {
          from {
            stroke: blue;
            stroke-dashoffset: 690;
            stroke-width: 128;
          }
          69% {
            animation-timing-function: step-end;
            stroke: blue;
            stroke-dashoffset: 0;
            stroke-width: 128;
          }
          to {
            stroke: black;
            stroke-width: 1024;
          }
        }
        #make-me-a-hanzi-animation-11 {
          animation: keyframes11 0.8115234375s both;
          animation-delay: 8.48486328125s;
          animation-timing-function: linear;
        }
      
        @keyframes keyframes12 {
          from {
            stroke: blue;
            stroke-dashoffset: 544;
            stroke-width: 128;
          }
          64% {
            animation-timing-function: step-end;
            stroke: blue;
            stroke-dashoffset: 0;
            stroke-width: 128;
          }
          to {
            stroke: black;
            stroke-width: 1024;
          }
        }
        #make-me-a-hanzi-animation-12 {
          animation: keyframes12 0.6927083333333334s both;
          animation-delay: 9.29638671875s;
          animation-timing-function: linear;
        }
      
        @keyframes keyframes13 {
          from {
            stroke: blue;
            stroke-dashoffset: 683;
            stroke-width: 128;
          }
          69% {
            animation-timing-function: step-end;
            stroke: blue;
            stroke-dashoffset: 0;
            stroke-width: 128;
          }
          to {
            stroke: black;
            stroke-width: 1024;
          }
        }
        #make-me-a-hanzi-animation-13 {
          animation: keyframes13 0.8058268229166666s both;
          animation-delay: 9.989095052083334s;
          animation-timing-function: linear;
        }
      
        @keyframes keyframes14 {
          from {
            stroke: blue;
            stroke-dashoffset: 452;
            stroke-width: 128;
          }
          60% {
            animation-timing-function: step-end;
            stroke: blue;
            stroke-dashoffset: 0;
            stroke-width: 128;
          }
          to {
            stroke: black;
            stroke-width: 1024;
          }
        }
        #make-me-a-hanzi-animation-14 {
          animation: keyframes14 0.6178385416666666s both;
          animation-delay: 10.794921875s;
          animation-timing-function: linear;
        }
      
        @keyframes keyframes15 {
          from {
            stroke: blue;
            stroke-dashoffset: 639;
            stroke-width: 128;
          }
          68% {
            animation-timing-function: step-end;
            stroke: blue;
            stroke-dashoffset: 0;
            stroke-width: 128;
          }
          to {
            stroke: black;
            stroke-width: 1024;
          }
        }
        #make-me-a-hanzi-animation-15 {
          animation: keyframes15 0.77001953125s both;
          animation-delay: 11.412760416666666s;
          animation-timing-function: linear;
        }
      
        @keyframes keyframes16 {
          from {
            stroke: blue;
            stroke-dashoffset: 475;
            stroke-width: 128;
          }
          61% {
            animation-timing-function: step-end;
            stroke: blue;
            stroke-dashoffset: 0;
            stroke-width: 128;
          }
          to {
            stroke: black;
            stroke-width: 1024;
          }
        }
        #make-me-a-hanzi-animation-16 {
          animation: keyframes16 0.6365559895833334s both;
          animation-delay: 12.182779947916666s;
          animation-timing-function: linear;
        }
      
    </style>
    
      <path d="M 279 577 L 300 581 L 340 590 Q 362 595 368 598 L 393 606 Q 402 609 404 615 Q 404 622 400 628 Q 395 634 383 640 Q 371 645 363 648 Q 354 650 349 650 Q 344 649 322 640 L 300 632 Q 290 628 270 623 L 228 614 Q 193 606 177 602 L 142 596 L 108 591 Q 96 589 95 584 L 95 582 Q 95 577 101 570 Q 108 562 118 560 Q 127 556 142 556 L 162 556 Q 170 557 182 559 L 210 562 L 228 566 Q 232 566 254 571 L 279 577 Z" fill="lightgray" />
    
      <path d="M 134 416 L 120 420 Q 112 424 102 424 Q 96 424 89 422 Q 78 420 77 416 L 77 415 Q 77 412 80 406 L 87 392 Q 89 386 91 378 Q 94 369 94 347 Q 95 325 95 310 L 92 224 Q 92 218 89 165 Q 86 112 84 98 L 78 54 L 78 26 Q 79 14 88 -4 Q 98 -23 105 -23 L 106 -23 Q 115 -22 117 -20 Q 120 -18 120 -10 L 124 6 L 126 46 L 129 107 L 132 162 Q 132 176 134 204 L 134 225 L 135 270 L 136 342 Q 136 356 137 386 C 138 415 138 415 134 416 Z" fill="lightgray" />
    
      <path d="M 184 426 L 161 420 Q 156 419 134 416 C 104 412 108 380 137 386 L 153 389 Q 154 389 164 392 Q 174 394 182 396 L 218 404 L 255 412 L 293 417 L 306 420 Q 315 422 323 422 L 328 422 L 336 418 Q 340 416 344 412 L 348 404 Q 350 400 350 385 L 350 280 L 350 238 L 350 164 L 348 134 L 346 100 Q 346 82 342 72 Q 339 63 336 62 C 324 34 322 29 322 28 L 332 4 Q 334 -2 340 -18 Q 346 -35 350 -36 L 351 -36 Q 357 -36 370 -20 Q 384 -2 388 12 Q 392 25 394 41 Q 396 57 397 91 L 397 134 L 395 183 L 397 356 Q 397 368 398 375 Q 398 382 400 391 Q 401 400 404 403 L 410 410 Q 411 413 411 415 Q 411 418 410 421 Q 408 427 404 432 L 383 450 Q 368 463 360 468 Q 352 473 346 473 Q 341 472 331 467 Q 320 461 312 458 Q 304 455 294 452 L 256 444 L 219 434 L 184 426 Z" fill="lightgray" />
    
      <path d="M 182 559 L 185 539 Q 186 530 187 519 Q 187 508 186 486 Q 184 464 184 426 L 182 396 L 181 376 Q 180 354 174 324 Q 167 296 161 279 Q 156 263 149 251 Q 143 240 134 225 C 119 199 113 183 134 204 L 160 230 Q 172 241 185 267 Q 198 292 204 313 Q 210 334 212 356 Q 215 378 218 404 L 219 434 L 221 472 L 222 502 Q 224 514 226 522 Q 230 534 230 538 Q 230 542 226 547 Q 222 553 210 562 C 187 581 178 588 182 559 Z" fill="lightgray" />
    
      <path d="M 294 452 L 296 496 Q 296 508 298 518 Q 300 528 304 536 Q 306 544 306 547 Q 306 550 302 556 Q 298 562 292 567 Q 286 572 279 577 C 255 595 251 598 254 571 L 256 550 Q 258 542 258 524 Q 259 515 259 508 Q 259 501 258 496 L 256 444 L 255 412 L 252 326 Q 252 308 254 292 Q 256 275 263 262 Q 270 249 280 244 Q 288 240 302 237 Q 316 234 327 234 Q 338 235 350 238 C 379 244 378 271 350 280 L 338 284 Q 337 285 335 285 Q 331 285 322 282 Q 315 280 310 280 Q 307 280 305 281 Q 299 283 295 291 Q 291 300 290 313 L 290 346 L 293 417 L 294 452 Z" fill="lightgray" />
    
      <path d="M 302 142 Q 312 144 315 148 Q 318 152 318 156 Q 317 160 308 165 Q 298 170 291 172 Q 284 175 278 176 Q 270 176 262 173 L 250 168 Q 242 164 220 158 Q 198 151 196 151 L 173 145 Q 160 142 158 138 Q 157 136 157 135 Q 157 132 159 129 Q 163 124 172 121 Q 180 119 190 119 L 198 119 Q 210 120 216 121 Q 223 122 243 127 L 302 142 Z" fill="lightgray" />
    
      <path d="M 124 6 L 322 28 C 352 31 363 49 336 62 Q 334 62 328 66 Q 321 70 314 72 Q 306 74 305 74 Q 300 74 292 73 Q 284 72 249 64 L 207 57 L 126 46 C 96 42 94 3 124 6 Z" fill="lightgray" />
    
      <path d="M 676 584 L 684 600 Q 688 608 688 618 Q 688 623 687 628 Q 684 642 672 654 Q 661 666 644 674 Q 628 684 614 687 L 586 694 Q 584 695 582 695 Q 578 695 576 692 Q 575 690 575 688 Q 575 686 576 684 L 590 657 Q 596 643 602 634 Q 608 625 620 609 L 636 589 Q 641 584 649 578 C 666 565 666 565 676 584 Z" fill="lightgray" />
    
      <path d="M 654 544 L 689 549 Q 707 552 737 555 L 796 561 Q 824 564 845 566 L 874 568 Q 884 568 888 570 Q 891 572 891 575 L 891 577 Q 891 582 878 589 Q 866 596 860 599 Q 856 602 841 607 Q 827 612 818 612 Q 812 612 798 607 Q 784 603 774 601 Q 765 599 744 596 L 676 584 L 649 578 L 591 566 Q 570 562 542 558 Q 512 553 474 548 L 432 542 Q 424 540 422 535 L 422 533 Q 422 528 430 523 Q 440 518 452 514 L 518 516 L 574 527 Q 582 528 623 537 L 654 544 Z" fill="lightgray" />
    
      <path d="M 452 514 L 458 479 Q 460 462 460 425 Q 459 414 455 348 L 450 268 Q 446 230 439 178 Q 431 126 424 92 Q 417 58 408 20 Q 398 -18 393 -32 L 380 -70 Q 377 -77 377 -81 Q 377 -85 380 -87 L 381 -87 Q 386 -87 392 -77 L 409 -47 Q 424 -20 435 3 Q 446 26 461 82 Q 476 138 482 172 Q 489 207 493 240 Q 496 272 500 304 L 502 318 L 507 372 L 514 462 Q 516 480 518 516 C 520 546 447 544 452 514 Z" fill="lightgray" />
    
      <path d="M 808 246 L 824 300 Q 825 302 834 325 L 842 369 L 853 398 Q 856 408 862 416 Q 868 424 869 427 L 869 429 Q 869 432 867 436 Q 864 442 852 450 L 841 458 Q 832 464 820 470 Q 808 475 802 475 Q 798 474 786 468 Q 774 462 753 458 L 704 446 Q 700 446 692 444 L 638 434 L 623 431 Q 619 430 598 427 Q 577 424 565 423 L 536 420 Q 524 418 522 414 L 522 413 Q 522 409 528 404 Q 536 398 548 396 Q 560 392 568 392 Q 574 392 586 395 L 611 401 L 638 407 L 690 416 L 713 420 L 742 425 L 768 429 Q 776 430 781 430 Q 788 430 791 428 Q 796 424 798 417 Q 799 413 799 407 Q 799 402 798 394 L 790 360 L 782 320 L 766 258 C 759 229 799 217 808 246 Z" fill="lightgray" />
    
      <path d="M 500 304 L 522 291 Q 531 285 542 285 L 546 285 Q 557 285 572 289 Q 591 294 607 297 Q 623 300 636 302 L 685 308 L 715 313 Q 726 314 742 316 Q 758 318 782 320 L 834 325 L 866 327 Q 871 327 908 328 L 933 328 Q 942 328 946 330 Q 949 333 949 338 L 949 340 Q 949 346 940 352 Q 931 359 916 367 Q 900 374 888 376 Q 881 376 868 373 Q 856 371 842 369 L 790 360 L 754 354 Q 752 354 735 351 Q 718 348 687 344 L 636 336 L 616 333 Q 616 332 589 330 Q 562 326 542 324 L 502 318 C 482 315 482 315 500 304 Z" fill="lightgray" />
    
      <path d="M 635 236 L 598 232 Q 578 228 562 228 L 533 225 Q 520 224 518 220 L 518 218 Q 518 214 524 207 Q 532 198 540 196 Q 546 194 558 194 L 566 194 Q 584 196 601 196 Q 617 197 623 198 Q 628 200 634 201 L 680 207 L 706 211 L 745 216 Q 769 220 786 220 Q 803 221 809 222 Q 815 223 817 228 Q 818 229 818 231 Q 818 234 815 238 Q 812 243 808 246 C 793 263 793 263 766 258 L 720 250 Q 714 248 682 242 L 635 236 Z" fill="lightgray" />
    
      <path d="M 636 302 L 635 236 L 634 201 L 634 178 Q 634 172 635 167 Q 636 162 637 147 Q 639 132 640 128 Q 640 125 642 119 C 647 94 648 95 660 122 L 668 140 Q 670 144 673 157 L 678 192 Q 678 197 680 207 L 682 242 L 685 308 L 687 344 L 690 416 L 692 444 L 693 460 Q 694 470 696 480 Q 698 491 703 500 Q 706 506 706 510 L 706 512 Q 706 516 700 522 Q 694 528 689 530 Q 684 533 675 536 Q 666 539 654 544 C 626 555 614 560 623 537 L 632 514 Q 635 507 636 490 Q 638 474 638 462 L 638 434 L 638 407 L 636 336 L 636 302 Z" fill="lightgray" />
    
      <path d="M 560 108 L 540 112 Q 537 112 526 114 Q 522 115 519 115 Q 513 115 511 112 Q 509 110 509 108 Q 509 106 510 104 Q 511 100 520 91 Q 528 82 534 71 Q 538 60 540 52 Q 542 44 544 35 L 556 -38 Q 559 -55 566 -67 Q 572 -78 579 -78 Q 586 -78 590 -72 Q 593 -67 594 -59 L 592 -24 L 578 78 C 574 105 574 105 560 108 Z" fill="lightgray" />
    
      <path d="M 642 119 L 622 116 L 602 113 Q 588 111 560 108 C 530 105 549 72 578 78 L 604 83 L 665 96 Q 684 99 708 102 L 756 105 L 763 105 Q 778 105 782 101 Q 786 96 786 89 Q 786 82 784 75 Q 782 68 778 48 Q 774 28 766 -6 C 759 -35 796 -47 808 -20 L 819 5 Q 820 10 831 28 Q 841 46 848 57 Q 854 67 863 74 Q 872 80 873 83 Q 874 84 874 86 Q 874 91 870 97 Q 865 106 849 121 Q 832 137 824 142 Q 816 146 806 146 Q 803 146 794 142 L 770 137 Q 754 134 727 130 Q 700 127 689 126 Q 678 124 660 122 L 642 119 Z" fill="lightgray" />
    
      <path d="M 594 -59 L 624 -56 L 668 -54 L 717 -50 L 766 -48 L 798 -46 Q 814 -46 818 -42 Q 819 -40 819 -38 Q 819 -35 817 -31 Q 814 -25 808 -20 C 794 -6 794 -6 766 -6 L 746 -6 Q 741 -6 722 -8 L 682 -13 L 636 -18 L 592 -24 C 562 -28 564 -62 594 -59 Z" fill="lightgray" />
    
    
      <clipPath id="make-me-a-hanzi-clip-0">
        <path d="M 279 577 L 300 581 L 340 590 Q 362 595 368 598 L 393 606 Q 402 609 404 615 Q 404 622 400 628 Q 395 634 383 640 Q 371 645 363 648 Q 354 650 349 650 Q 344 649 322 640 L 300 632 Q 290 628 270 623 L 228 614 Q 193 606 177 602 L 142 596 L 108 591 Q 96 589 95 584 L 95 582 Q 95 577 101 570 Q 108 562 118 560 Q 127 556 142 556 L 162 556 Q 170 557 182 559 L 210 562 L 228 566 Q 232 566 254 571 L 279 577 Z" />
      </clipPath>
      <path clip-path="url(#make-me-a-hanzi-clip-0)" d="M 104 583 L 119 576 L 157 577 L 290 603 L 352 622 L 392 618" fill="none" id="make-me-a-hanzi-animation-0" stroke-dasharray="423 846" stroke-linecap="round" />
    
      <clipPath id="make-me-a-hanzi-clip-1">
        <path d="M 134 416 L 120 420 Q 112 424 102 424 Q 96 424 89 422 Q 78 420 77 416 L 77 415 Q 77 412 80 406 L 87 392 Q 89 386 91 378 Q 94 369 94 347 Q 95 325 95 310 L 92 224 Q 92 218 89 165 Q 86 112 84 98 L 78 54 L 78 26 Q 79 14 88 -4 Q 98 -23 105 -23 L 106 -23 Q 115 -22 117 -20 Q 120 -18 120 -10 L 124 6 L 126 46 L 129 107 L 132 162 Q 132 176 134 204 L 134 225 L 135 270 L 136 342 Q 136 356 137 386 C 138 415 138 415 134 416 Z" />
      </clipPath>
      <path clip-path="url(#make-me-a-hanzi-clip-1)" d="M 85 416 L 111 397 L 115 361 L 113 209 L 101 33 L 106 -13" fill="none" id="make-me-a-hanzi-animation-1" stroke-dasharray="571 1142" stroke-linecap="round" />
    
      <clipPath id="make-me-a-hanzi-clip-2">
        <path d="M 184 426 L 161 420 Q 156 419 134 416 C 104 412 108 380 137 386 L 153 389 Q 154 389 164 392 Q 174 394 182 396 L 218 404 L 255 412 L 293 417 L 306 420 Q 315 422 323 422 L 328 422 L 336 418 Q 340 416 344 412 L 348 404 Q 350 400 350 385 L 350 280 L 350 238 L 350 164 L 348 134 L 346 100 Q 346 82 342 72 Q 339 63 336 62 C 324 34 322 29 322 28 L 332 4 Q 334 -2 340 -18 Q 346 -35 350 -36 L 351 -36 Q 357 -36 370 -20 Q 384 -2 388 12 Q 392 25 394 41 Q 396 57 397 91 L 397 134 L 395 183 L 397 356 Q 397 368 398 375 Q 398 382 400 391 Q 401 400 404 403 L 410 410 Q 411 413 411 415 Q 411 418 410 421 Q 408 427 404 432 L 383 450 Q 368 463 360 468 Q 352 473 346 473 Q 341 472 331 467 Q 320 461 312 458 Q 304 455 294 452 L 256 444 L 219 434 L 184 426 Z" />
      </clipPath>
      <path clip-path="url(#make-me-a-hanzi-clip-2)" d="M 140 394 L 150 404 L 336 444 L 359 435 L 376 416 L 372 98 L 351 -31" fill="none" id="make-me-a-hanzi-animation-2" stroke-dasharray="831 1662" stroke-linecap="round" />
    
      <clipPath id="make-me-a-hanzi-clip-3">
        <path d="M 182 559 L 185 539 Q 186 530 187 519 Q 187 508 186 486 Q 184 464 184 426 L 182 396 L 181 376 Q 180 354 174 324 Q 167 296 161 279 Q 156 263 149 251 Q 143 240 134 225 C 119 199 113 183 134 204 L 160 230 Q 172 241 185 267 Q 198 292 204 313 Q 210 334 212 356 Q 215 378 218 404 L 219 434 L 221 472 L 222 502 Q 224 514 226 522 Q 230 534 230 538 Q 230 542 226 547 Q 222 553 210 562 C 187 581 178 588 182 559 Z" />
      </clipPath>
      <path clip-path="url(#make-me-a-hanzi-clip-3)" d="M 190 555 L 207 533 L 194 337 L 170 265 L 144 229 L 137 209" fill="none" id="make-me-a-hanzi-animation-3" stroke-dasharray="494 988" stroke-linecap="round" />
    
      <clipPath id="make-me-a-hanzi-clip-4">
        <path d="M 294 452 L 296 496 Q 296 508 298 518 Q 300 528 304 536 Q 306 544 306 547 Q 306 550 302 556 Q 298 562 292 567 Q 286 572 279 577 C 255 595 251 598 254 571 L 256 550 Q 258 542 258 524 Q 259 515 259 508 Q 259 501 258 496 L 256 444 L 255 412 L 252 326 Q 252 308 254 292 Q 256 275 263 262 Q 270 249 280 244 Q 288 240 302 237 Q 316 234 327 234 Q 338 235 350 238 C 379 244 378 271 350 280 L 338 284 Q 337 285 335 285 Q 331 285 322 282 Q 315 280 310 280 Q 307 280 305 281 Q 299 283 295 291 Q 291 300 290 313 L 290 346 L 293 417 L 294 452 Z" />
      </clipPath>
      <path clip-path="url(#make-me-a-hanzi-clip-4)" d="M 262 566 L 281 541 L 271 361 L 274 288 L 289 265 L 303 259 L 327 259 L 341 273" fill="none" id="make-me-a-hanzi-animation-4" stroke-dasharray="499 998" stroke-linecap="round" />
    
      <clipPath id="make-me-a-hanzi-clip-5">
        <path d="M 302 142 Q 312 144 315 148 Q 318 152 318 156 Q 317 160 308 165 Q 298 170 291 172 Q 284 175 278 176 Q 270 176 262 173 L 250 168 Q 242 164 220 158 Q 198 151 196 151 L 173 145 Q 160 142 158 138 Q 157 136 157 135 Q 157 132 159 129 Q 163 124 172 121 Q 180 119 190 119 L 198 119 Q 210 120 216 121 Q 223 122 243 127 L 302 142 Z" />
      </clipPath>
      <path clip-path="url(#make-me-a-hanzi-clip-5)" d="M 165 134 L 202 135 L 271 155 L 308 155" fill="none" id="make-me-a-hanzi-animation-5" stroke-dasharray="274 548" stroke-linecap="round" />
    
      <clipPath id="make-me-a-hanzi-clip-6">
        <path d="M 124 6 L 322 28 C 352 31 363 49 336 62 Q 334 62 328 66 Q 321 70 314 72 Q 306 74 305 74 Q 300 74 292 73 Q 284 72 249 64 L 207 57 L 126 46 C 96 42 94 3 124 6 Z" />
      </clipPath>
      <path clip-path="url(#make-me-a-hanzi-clip-6)" d="M 131 12 L 149 29 L 329 58" fill="none" id="make-me-a-hanzi-animation-6" stroke-dasharray="335 670" stroke-linecap="round" />
    
      <clipPath id="make-me-a-hanzi-clip-7">
        <path d="M 676 584 L 684 600 Q 688 608 688 618 Q 688 623 687 628 Q 684 642 672 654 Q 661 666 644 674 Q 628 684 614 687 L 586 694 Q 584 695 582 695 Q 578 695 576 692 Q 575 690 575 688 Q 575 686 576 684 L 590 657 Q 596 643 602 634 Q 608 625 620 609 L 636 589 Q 641 584 649 578 C 666 565 666 565 676 584 Z" />
      </clipPath>
      <path clip-path="url(#make-me-a-hanzi-clip-7)" d="M 582 689 L 653 623 L 653 591" fill="none" id="make-me-a-hanzi-animation-7" stroke-dasharray="257 514" stroke-linecap="round" />
    
      <clipPath id="make-me-a-hanzi-clip-8">
        <path d="M 654 544 L 689 549 Q 707 552 737 555 L 796 561 Q 824 564 845 566 L 874 568 Q 884 568 888 570 Q 891 572 891 575 L 891 577 Q 891 582 878 589 Q 866 596 860 599 Q 856 602 841 607 Q 827 612 818 612 Q 812 612 798 607 Q 784 603 774 601 Q 765 599 744 596 L 676 584 L 649 578 L 591 566 Q 570 562 542 558 Q 512 553 474 548 L 432 542 Q 424 540 422 535 L 422 533 Q 422 528 430 523 Q 440 518 452 514 L 518 516 L 574 527 Q 582 528 623 537 L 654 544 Z" />
      </clipPath>
      <path clip-path="url(#make-me-a-hanzi-clip-8)" d="M 430 534 L 451 529 L 522 535 L 818 588 L 884 576" fill="none" id="make-me-a-hanzi-animation-8" stroke-dasharray="589 1178" stroke-linecap="round" />
    
      <clipPath id="make-me-a-hanzi-clip-9">
        <path d="M 452 514 L 458 479 Q 460 462 460 425 Q 459 414 455 348 L 450 268 Q 446 230 439 178 Q 431 126 424 92 Q 417 58 408 20 Q 398 -18 393 -32 L 380 -70 Q 377 -77 377 -81 Q 377 -85 380 -87 L 381 -87 Q 386 -87 392 -77 L 409 -47 Q 424 -20 435 3 Q 446 26 461 82 Q 476 138 482 172 Q 489 207 493 240 Q 496 272 500 304 L 502 318 L 507 372 L 514 462 Q 516 480 518 516 C 520 546 447 544 452 514 Z" />
      </clipPath>
      <path clip-path="url(#make-me-a-hanzi-clip-9)" d="M 459 509 L 487 486 L 470 236 L 433 46 L 381 -83" fill="none" id="make-me-a-hanzi-animation-9" stroke-dasharray="747 1494" stroke-linecap="round" />
    
      <clipPath id="make-me-a-hanzi-clip-10">
        <path d="M 808 246 L 824 300 Q 825 302 834 325 L 842 369 L 853 398 Q 856 408 862 416 Q 868 424 869 427 L 869 429 Q 869 432 867 436 Q 864 442 852 450 L 841 458 Q 832 464 820 470 Q 808 475 802 475 Q 798 474 786 468 Q 774 462 753 458 L 704 446 Q 700 446 692 444 L 638 434 L 623 431 Q 619 430 598 427 Q 577 424 565 423 L 536 420 Q 524 418 522 414 L 522 413 Q 522 409 528 404 Q 536 398 548 396 Q 560 392 568 392 Q 574 392 586 395 L 611 401 L 638 407 L 690 416 L 713 420 L 742 425 L 768 429 Q 776 430 781 430 Q 788 430 791 428 Q 796 424 798 417 Q 799 413 799 407 Q 799 402 798 394 L 790 360 L 782 320 L 766 258 C 759 229 799 217 808 246 Z" />
      </clipPath>
      <path clip-path="url(#make-me-a-hanzi-clip-10)" d="M 531 414 L 565 407 L 776 447 L 801 450 L 813 444 L 830 426 L 825 398 L 793 273 L 775 262" fill="none" id="make-me-a-hanzi-animation-10" stroke-dasharray="619 1238" stroke-linecap="round" />
    
      <clipPath id="make-me-a-hanzi-clip-11">
        <path d="M 500 304 L 522 291 Q 531 285 542 285 L 546 285 Q 557 285 572 289 Q 591 294 607 297 Q 623 300 636 302 L 685 308 L 715 313 Q 726 314 742 316 Q 758 318 782 320 L 834 325 L 866 327 Q 871 327 908 328 L 933 328 Q 942 328 946 330 Q 949 333 949 338 L 949 340 Q 949 346 940 352 Q 931 359 916 367 Q 900 374 888 376 Q 881 376 868 373 Q 856 371 842 369 L 790 360 L 754 354 Q 752 354 735 351 Q 718 348 687 344 L 636 336 L 616 333 Q 616 332 589 330 Q 562 326 542 324 L 502 318 C 482 315 482 315 500 304 Z" />
      </clipPath>
      <path clip-path="url(#make-me-a-hanzi-clip-11)" d="M 510 310 L 561 306 L 886 352 L 938 337" fill="none" id="make-me-a-hanzi-animation-11" stroke-dasharray="562 1124" stroke-linecap="round" />
    
      <clipPath id="make-me-a-hanzi-clip-12">
        <path d="M 635 236 L 598 232 Q 578 228 562 228 L 533 225 Q 520 224 518 220 L 518 218 Q 518 214 524 207 Q 532 198 540 196 Q 546 194 558 194 L 566 194 Q 584 196 601 196 Q 617 197 623 198 Q 628 200 634 201 L 680 207 L 706 211 L 745 216 Q 769 220 786 220 Q 803 221 809 222 Q 815 223 817 228 Q 818 229 818 231 Q 818 234 815 238 Q 812 243 808 246 C 793 263 793 263 766 258 L 720 250 Q 714 248 682 242 L 635 236 Z" />
      </clipPath>
      <path clip-path="url(#make-me-a-hanzi-clip-12)" d="M 527 219 L 536 212 L 568 211 L 762 238 L 810 232" fill="none" id="make-me-a-hanzi-animation-12" stroke-dasharray="416 832" stroke-linecap="round" />
    
      <clipPath id="make-me-a-hanzi-clip-13">
        <path d="M 636 302 L 635 236 L 634 201 L 634 178 Q 634 172 635 167 Q 636 162 637 147 Q 639 132 640 128 Q 640 125 642 119 C 647 94 648 95 660 122 L 668 140 Q 670 144 673 157 L 678 192 Q 678 197 680 207 L 682 242 L 685 308 L 687 344 L 690 416 L 692 444 L 693 460 Q 694 470 696 480 Q 698 491 703 500 Q 706 506 706 510 L 706 512 Q 706 516 700 522 Q 694 528 689 530 Q 684 533 675 536 Q 666 539 654 544 C 626 555 614 560 623 537 L 632 514 Q 635 507 636 490 Q 638 474 638 462 L 638 434 L 638 407 L 636 336 L 636 302 Z" />
      </clipPath>
      <path clip-path="url(#make-me-a-hanzi-clip-13)" d="M 632 534 L 652 522 L 667 501 L 658 214 L 652 133 L 646 125" fill="none" id="make-me-a-hanzi-animation-13" stroke-dasharray="555 1110" stroke-linecap="round" />
    
      <clipPath id="make-me-a-hanzi-clip-14">
        <path d="M 560 108 L 540 112 Q 537 112 526 114 Q 522 115 519 115 Q 513 115 511 112 Q 509 110 509 108 Q 509 106 510 104 Q 511 100 520 91 Q 528 82 534 71 Q 538 60 540 52 Q 542 44 544 35 L 556 -38 Q 559 -55 566 -67 Q 572 -78 579 -78 Q 586 -78 590 -72 Q 593 -67 594 -59 L 592 -24 L 578 78 C 574 105 574 105 560 108 Z" />
      </clipPath>
      <path clip-path="url(#make-me-a-hanzi-clip-14)" d="M 515 107 L 542 94 L 557 72 L 580 -66" fill="none" id="make-me-a-hanzi-animation-14" stroke-dasharray="324 648" stroke-linecap="round" />
    
      <clipPath id="make-me-a-hanzi-clip-15">
        <path d="M 642 119 L 622 116 L 602 113 Q 588 111 560 108 C 530 105 549 72 578 78 L 604 83 L 665 96 Q 684 99 708 102 L 756 105 L 763 105 Q 778 105 782 101 Q 786 96 786 89 Q 786 82 784 75 Q 782 68 778 48 Q 774 28 766 -6 C 759 -35 796 -47 808 -20 L 819 5 Q 820 10 831 28 Q 841 46 848 57 Q 854 67 863 74 Q 872 80 873 83 Q 874 84 874 86 Q 874 91 870 97 Q 865 106 849 121 Q 832 137 824 142 Q 816 146 806 146 Q 803 146 794 142 L 770 137 Q 754 134 727 130 Q 700 127 689 126 Q 678 124 660 122 L 642 119 Z" />
      </clipPath>
      <path clip-path="url(#make-me-a-hanzi-clip-15)" d="M 569 106 L 586 96 L 706 116 L 779 122 L 809 115 L 825 91 L 795 12 L 803 -11" fill="none" id="make-me-a-hanzi-animation-15" stroke-dasharray="511 1022" stroke-linecap="round" />
    
      <clipPath id="make-me-a-hanzi-clip-16">
        <path d="M 594 -59 L 624 -56 L 668 -54 L 717 -50 L 766 -48 L 798 -46 Q 814 -46 818 -42 Q 819 -40 819 -38 Q 819 -35 817 -31 Q 814 -25 808 -20 C 794 -6 794 -6 766 -6 L 746 -6 Q 741 -6 722 -8 L 682 -13 L 636 -18 L 592 -24 C 562 -28 564 -62 594 -59 Z" />
      </clipPath>
      <path clip-path="url(#make-me-a-hanzi-clip-16)" d="M 601 -53 L 615 -39 L 743 -27 L 797 -31 L 812 -38" fill="none" id="make-me-a-hanzi-animation-16" stroke-dasharray="347 694" stroke-linecap="round" />
    
  </g>
</svg>