<svg xmlns="http://www.w3.org/2000/svg" version="1.1" viewBox="0 0 1024 1024">
  <g stroke="lightgray" stroke-dasharray="1,1" stroke-width="1" transform="scale(4, 4)">
    <line x1="0" y1="0" x2="256" y2="256" />
    <line x1="256" y1="0" x2="0" y2="256" />
    <line x1="128" y1="0" x2="128" y2="256" />
    <line x1="0" y1="128" x2="256" y2="128" />
  </g>
  <g transform="scale(1.0, -1.0) translate(0.0, -809.00)">
    <style type="text/css">
      
        @keyframes keyframes0 {
          from {
            stroke: blue;
            stroke-dashoffset: 551;
            stroke-width: 128;
          }
          64% {
            animation-timing-function: step-end;
            stroke: blue;
            stroke-dashoffset: 0;
            stroke-width: 128;
          }
          to {
            stroke: black;
            stroke-width: 1024;
          }
        }
        #make-me-a-hanzi-animation-0 {
          animation: keyframes0 0.6984049479166666s both;
          animation-delay: 0s;
          animation-timing-function: linear;
        }
      
        @keyframes keyframes1 {
          from {
            stroke: blue;
            stroke-dashoffset: 404;
            stroke-width: 128;
          }
          57% {
            animation-timing-function: step-end;
            stroke: blue;
            stroke-dashoffset: 0;
            stroke-width: 128;
          }
          to {
            stroke: black;
            stroke-width: 1024;
          }
        }
        #make-me-a-hanzi-animation-1 {
          animation: keyframes1 0.5787760416666666s both;
          animation-delay: 0.6984049479166666s;
          animation-timing-function: linear;
        }
      
        @keyframes keyframes2 {
          from {
            stroke: blue;
            stroke-dashoffset: 408;
            stroke-width: 128;
          }
          57% {
            animation-timing-function: step-end;
            stroke: blue;
            stroke-dashoffset: 0;
            stroke-width: 128;
          }
          to {
            stroke: black;
            stroke-width: 1024;
          }
        }
        #make-me-a-hanzi-animation-2 {
          animation: keyframes2 0.58203125s both;
          animation-delay: 1.2771809895833333s;
          animation-timing-function: linear;
        }
      
        @keyframes keyframes3 {
          from {
            stroke: blue;
            stroke-dashoffset: 472;
            stroke-width: 128;
          }
          61% {
            animation-timing-function: step-end;
            stroke: blue;
            stroke-dashoffset: 0;
            stroke-width: 128;
          }
          to {
            stroke: black;
            stroke-width: 1024;
          }
        }
        #make-me-a-hanzi-animation-3 {
          animation: keyframes3 0.6341145833333334s both;
          animation-delay: 1.8592122395833333s;
          animation-timing-function: linear;
        }
      
        @keyframes keyframes4 {
          from {
            stroke: blue;
            stroke-dashoffset: 495;
            stroke-width: 128;
          }
          62% {
            animation-timing-function: step-end;
            stroke: blue;
            stroke-dashoffset: 0;
            stroke-width: 128;
          }
          to {
            stroke: black;
            stroke-width: 1024;
          }
        }
        #make-me-a-hanzi-animation-4 {
          animation: keyframes4 0.65283203125s both;
          animation-delay: 2.4933268229166665s;
          animation-timing-function: linear;
        }
      
        @keyframes keyframes5 {
          from {
            stroke: blue;
            stroke-dashoffset: 341;
            stroke-width: 128;
          }
          53% {
            animation-timing-function: step-end;
            stroke: blue;
            stroke-dashoffset: 0;
            stroke-width: 128;
          }
          to {
            stroke: black;
            stroke-width: 1024;
          }
        }
        #make-me-a-hanzi-animation-5 {
          animation: keyframes5 0.5275065104166666s both;
          animation-delay: 3.1461588541666665s;
          animation-timing-function: linear;
        }
      
        @keyframes keyframes6 {
          from {
            stroke: blue;
            stroke-dashoffset: 834;
            stroke-width: 128;
          }
          73% {
            animation-timing-function: step-end;
            stroke: blue;
            stroke-dashoffset: 0;
            stroke-width: 128;
          }
          to {
            stroke: black;
            stroke-width: 1024;
          }
        }
        #make-me-a-hanzi-animation-6 {
          animation: keyframes6 0.9287109375s both;
          animation-delay: 3.673665364583333s;
          animation-timing-function: linear;
        }
      
        @keyframes keyframes7 {
          from {
            stroke: blue;
            stroke-dashoffset: 490;
            stroke-width: 128;
          }
          61% {
            animation-timing-function: step-end;
            stroke: blue;
            stroke-dashoffset: 0;
            stroke-width: 128;
          }
          to {
            stroke: black;
            stroke-width: 1024;
          }
        }
        #make-me-a-hanzi-animation-7 {
          animation: keyframes7 0.6487630208333334s both;
          animation-delay: 4.602376302083333s;
          animation-timing-function: linear;
        }
      
        @keyframes keyframes8 {
          from {
            stroke: blue;
            stroke-dashoffset: 606;
            stroke-width: 128;
          }
          66% {
            animation-timing-function: step-end;
            stroke: blue;
            stroke-dashoffset: 0;
            stroke-width: 128;
          }
          to {
            stroke: black;
            stroke-width: 1024;
          }
        }
        #make-me-a-hanzi-animation-8 {
          animation: keyframes8 0.7431640625s both;
          animation-delay: 5.251139322916666s;
          animation-timing-function: linear;
        }
      
        @keyframes keyframes9 {
          from {
            stroke: blue;
            stroke-dashoffset: 717;
            stroke-width: 128;
          }
          70% {
            animation-timing-function: step-end;
            stroke: blue;
            stroke-dashoffset: 0;
            stroke-width: 128;
          }
          to {
            stroke: black;
            stroke-width: 1024;
          }
        }
        #make-me-a-hanzi-animation-9 {
          animation: keyframes9 0.83349609375s both;
          animation-delay: 5.994303385416666s;
          animation-timing-function: linear;
        }
      
        @keyframes keyframes10 {
          from {
            stroke: blue;
            stroke-dashoffset: 475;
            stroke-width: 128;
          }
          61% {
            animation-timing-function: step-end;
            stroke: blue;
            stroke-dashoffset: 0;
            stroke-width: 128;
          }
          to {
            stroke: black;
            stroke-width: 1024;
          }
        }
        #make-me-a-hanzi-animation-10 {
          animation: keyframes10 0.6365559895833334s both;
          animation-delay: 6.827799479166666s;
          animation-timing-function: linear;
        }
      
        @keyframes keyframes11 {
          from {
            stroke: blue;
            stroke-dashoffset: 1025;
            stroke-width: 128;
          }
          77% {
            animation-timing-function: step-end;
            stroke: blue;
            stroke-dashoffset: 0;
            stroke-width: 128;
          }
          to {
            stroke: black;
            stroke-width: 1024;
          }
        }
        #make-me-a-hanzi-animation-11 {
          animation: keyframes11 1.0841471354166667s both;
          animation-delay: 7.464355468749999s;
          animation-timing-function: linear;
        }
      
        @keyframes keyframes12 {
          from {
            stroke: blue;
            stroke-dashoffset: 566;
            stroke-width: 128;
          }
          65% {
            animation-timing-function: step-end;
            stroke: blue;
            stroke-dashoffset: 0;
            stroke-width: 128;
          }
          to {
            stroke: black;
            stroke-width: 1024;
          }
        }
        #make-me-a-hanzi-animation-12 {
          animation: keyframes12 0.7106119791666666s both;
          animation-delay: 8.548502604166666s;
          animation-timing-function: linear;
        }
      
        @keyframes keyframes13 {
          from {
            stroke: blue;
            stroke-dashoffset: 967;
            stroke-width: 128;
          }
          76% {
            animation-timing-function: step-end;
            stroke: blue;
            stroke-dashoffset: 0;
            stroke-width: 128;
          }
          to {
            stroke: black;
            stroke-width: 1024;
          }
        }
        #make-me-a-hanzi-animation-13 {
          animation: keyframes13 1.0369466145833333s both;
          animation-delay: 9.259114583333332s;
          animation-timing-function: linear;
        }
      
        @keyframes keyframes14 {
          from {
            stroke: blue;
            stroke-dashoffset: 535;
            stroke-width: 128;
          }
          64% {
            animation-timing-function: step-end;
            stroke: blue;
            stroke-dashoffset: 0;
            stroke-width: 128;
          }
          to {
            stroke: black;
            stroke-width: 1024;
          }
        }
        #make-me-a-hanzi-animation-14 {
          animation: keyframes14 0.6853841145833334s both;
          animation-delay: 10.296061197916666s;
          animation-timing-function: linear;
        }
      
        @keyframes keyframes15 {
          from {
            stroke: blue;
            stroke-dashoffset: 571;
            stroke-width: 128;
          }
          65% {
            animation-timing-function: step-end;
            stroke: blue;
            stroke-dashoffset: 0;
            stroke-width: 128;
          }
          to {
            stroke: black;
            stroke-width: 1024;
          }
        }
        #make-me-a-hanzi-animation-15 {
          animation: keyframes15 0.7146809895833334s both;
          animation-delay: 10.9814453125s;
          animation-timing-function: linear;
        }
      
        @keyframes keyframes16 {
          from {
            stroke: blue;
            stroke-dashoffset: 470;
            stroke-width: 128;
          }
          60% {
            animation-timing-function: step-end;
            stroke: blue;
            stroke-dashoffset: 0;
            stroke-width: 128;
          }
          to {
            stroke: black;
            stroke-width: 1024;
          }
        }
        #make-me-a-hanzi-animation-16 {
          animation: keyframes16 0.6324869791666666s both;
          animation-delay: 11.696126302083334s;
          animation-timing-function: linear;
        }
      
        @keyframes keyframes17 {
          from {
            stroke: blue;
            stroke-dashoffset: 636;
            stroke-width: 128;
          }
          67% {
            animation-timing-function: step-end;
            stroke: blue;
            stroke-dashoffset: 0;
            stroke-width: 128;
          }
          to {
            stroke: black;
            stroke-width: 1024;
          }
        }
        #make-me-a-hanzi-animation-17 {
          animation: keyframes17 0.767578125s both;
          animation-delay: 12.32861328125s;
          animation-timing-function: linear;
        }
      
    </style>
    
      <path d="M 249 659 L 284 661 Q 295 662 332 666 Q 369 670 384 672 L 424 678 L 472 686 Q 481 688 485 690 Q 489 692 489 697 Q 489 704 481 709 Q 473 714 463 718 Q 453 722 447 723 Q 441 725 436 726 Q 431 726 414 720 Q 398 715 371 711 L 331 704 Q 311 700 279 696 Q 247 692 223 690 L 191 686 Q 180 684 179 680 L 179 679 Q 179 675 184 670 Q 190 664 203 659 L 249 659 Z" fill="lightgray" />
    
      <path d="M 335 582 L 351 602 L 362 610 Q 365 614 365 620 Q 365 624 357 631 Q 351 637 343 640 L 333 645 Q 319 650 313 650 Q 307 648 305 646 L 305 636 Q 306 630 306 626 Q 305 618 300 602 L 288 573 Q 281 559 277 550 L 263 526 Q 260 521 260 518 Q 260 517 261 516 Q 262 515 264 515 Q 267 515 271 518 L 288 530 Q 297 536 303 544 Q 309 551 317 559 L 335 582 Z" fill="lightgray" />
    
      <path d="M 317 559 L 340 556 Q 343 556 361 558 L 389 564 L 435 576 L 462 584 Q 477 588 477 592 Q 477 596 470 600 Q 463 604 447 607 Q 435 609 429 609 L 425 609 L 416 606 L 393 598 L 361 588 L 335 582 C 306 575 287 563 317 559 Z" fill="lightgray" />
    
      <path d="M 359 503 L 333 499 L 309 496 Q 303 494 287 492 L 267 489 Q 265 488 264 486 L 264 485 Q 264 481 269 477 Q 275 471 287 470 Q 295 468 303 468 Q 309 468 315 469 Q 329 471 352 477 L 391 482 L 417 486 L 445 492 L 483 500 Q 488 500 488 507 Q 487 514 471 518 Q 455 522 453 523 L 448 523 Q 442 523 437 522 Q 431 522 421 519 L 399 512 L 359 503 Z" fill="lightgray" />
    
      <path d="M 361 558 L 363 538 Q 363 534 362 524 Q 361 515 359 503 L 352 477 L 339 446 Q 335 438 319 418 Q 301 399 291 393 L 271 382 Q 263 377 263 373 L 263 372 Q 264 369 269 369 Q 272 369 275 370 L 294 376 Q 317 381 335 397 Q 353 412 362 424 Q 371 436 381 452 L 385 467 L 391 482 L 399 512 L 401 522 Q 404 532 405 534 L 411 545 Q 411 550 405 555 Q 399 560 389 564 C 362 576 359 578 361 558 Z" fill="lightgray" />
    
      <path d="M 381 452 L 412 420 L 435 396 L 444 390 Q 447 389 450 389 L 453 389 Q 459 389 462 392 Q 465 394 467 398 Q 468 401 468 405 L 468 410 Q 468 418 465 424 Q 463 430 456 438 Q 449 445 432 452 Q 415 458 385 467 C 359 475 360 474 381 452 Z" fill="lightgray" />
    
      <path d="M 203 659 L 207 376 Q 207 355 209 344 Q 211 332 220 325 Q 229 318 253 318 Q 268 317 290 317 L 315 317 Q 355 318 380 320 L 462 328 Q 488 330 494 333 Q 501 337 501 341 L 501 343 Q 501 347 495 353 Q 488 360 476 366 Q 465 372 457 372 L 441 368 Q 429 364 410 362 L 375 358 Q 345 355 338 355 L 289 353 L 267 353 Q 253 353 247 358 Q 242 361 242 379 L 242 386 L 249 659 C 250 689 203 689 203 659 Z" fill="lightgray" />
    
      <path d="M 593 706 L 581 711 L 564 713 Q 558 714 554 714 Q 548 714 546 712 Q 543 708 543 706 Q 543 702 550 694 Q 557 686 559 677 Q 560 668 560 654 Q 559 640 558 620 Q 557 600 552 588 Q 547 574 538 560 Q 529 546 519 538 L 504 526 Q 499 523 499 518 L 499 516 Q 499 514 502 514 Q 507 514 517 519 L 543 531 Q 555 536 567 549 Q 579 561 587 578 Q 594 596 596 608 Q 597 621 598 640 Q 599 660 601 681 C 603 702 603 702 593 706 Z" fill="lightgray" />
    
      <path d="M 601 681 L 625 687 L 647 692 Q 660 696 666 696 Q 675 696 680 692 Q 685 688 685 680 Q 685 671 684 656 Q 683 642 683 626 L 683 617 Q 683 596 687 583 Q 693 568 706 558 Q 720 548 749 548 L 757 548 Q 773 548 790 551 Q 812 555 819 558 Q 827 562 829 566 Q 831 569 831 572 Q 831 581 817 588 Q 799 598 789 598 Q 785 597 770 592 Q 755 588 742 588 Q 727 588 723 594 Q 720 597 720 607 Q 720 612 721 619 Q 723 640 726 652 Q 729 664 733 674 Q 738 684 743 690 Q 748 696 749 698 Q 749 702 745 707 Q 741 712 732 718 Q 722 723 713 727 Q 705 732 695 735 Q 686 738 681 738 Q 680 738 675 734 Q 669 732 657 727 L 636 718 Q 630 716 619 713 Q 607 710 593 706 C 564 698 572 674 601 681 Z" fill="lightgray" />
    
      <path d="M 649 410 L 632 394 Q 627 388 611 377 Q 594 366 582 359 Q 569 352 560 349 L 533 340 Q 526 337 526 334 L 526 333 Q 526 330 534 330 L 539 330 L 557 332 Q 567 334 585 338 Q 603 343 617 348 Q 631 354 647 364 L 681 384 L 708 419 L 723 442 L 739 466 Q 746 478 753 485 L 763 494 Q 768 499 769 502 Q 769 507 761 514 Q 754 520 743 525 L 722 535 Q 711 540 707 540 Q 703 539 694 534 Q 685 528 667 522 L 634 512 Q 619 506 603 503 Q 587 499 575 498 L 560 496 Q 545 494 545 491 Q 544 490 544 489 Q 544 486 548 482 Q 553 476 573 466 C 577 464 569 468 591 473 L 625 481 L 657 488 Q 669 491 683 495 Q 691 498 695 498 Q 697 498 698 497 Q 699 496 699 494 Q 699 491 697 486 Q 695 478 689 467 Q 684 456 681 450 Q 678 446 673 438 L 649 410 Z" fill="lightgray" />
    
      <path d="M 681 384 L 695 373 L 733 339 Q 745 327 753 326 Q 761 326 767 330 Q 773 334 773 348 Q 773 364 767 374 Q 761 384 745 394 L 708 419 L 673 438 L 647 448 L 628 458 Q 615 464 591 473 C 563 484 549 484 573 466 L 609 440 L 633 424 Q 639 420 649 410 L 681 384 Z" fill="lightgray" />
    
      <path d="M 565 254 L 595 256 L 629 258 Q 671 261 732 262 Q 793 262 827 261 L 878 258 L 893 258 Q 899 259 901 262 Q 905 265 905 270 Q 905 276 898 282 Q 891 288 877 294 Q 863 302 853 306 Q 841 310 831 310 L 801 305 L 776 302 Q 754 299 729 297 Q 705 294 643 290 Q 583 286 537 282 L 446 275 Q 437 274 366 269 Q 296 264 254 260 Q 213 257 197 256 L 151 255 L 137 254 Q 125 254 123 250 Q 122 249 122 247 Q 122 245 124 241 Q 127 234 141 228 L 157 220 Q 165 216 175 213 Q 186 210 191 210 Q 195 210 209 214 Q 223 218 248 223 Q 273 228 293 231 Q 314 234 332 236 Q 350 238 373 240 Q 397 241 411 242 L 447 245 L 523 251 L 527 251 L 565 254 Z" fill="lightgray" />
    
      <path d="M 309 158 L 291 166 Q 285 168 277 168 Q 273 168 265 167 Q 255 166 254 164 Q 253 163 253 161 Q 253 158 258 154 Q 263 148 267 140 Q 271 132 273 125 Q 275 118 276 108 L 276 95 L 273 2 Q 271 -32 269 -54 Q 267 -76 267 -84 Q 269 -93 274 -107 Q 279 -120 283 -127 Q 291 -138 295 -138 Q 299 -136 303 -132 Q 307 -128 311 -115 L 315 -78 L 317 5 L 317 20 L 321 130 C 322 152 322 152 309 158 Z" fill="lightgray" />
    
      <path d="M 411 166 L 381 164 L 341 160 Q 331 159 309 158 C 279 156 291 126 321 130 L 361 136 Q 368 137 405 140 L 445 144 L 476 150 Q 487 151 529 156 L 571 160 L 605 164 L 645 166 Q 653 167 659 167 Q 675 167 681 163 Q 689 159 694 153 Q 699 147 700 134 Q 701 122 701 110 Q 702 98 703 83 L 702 55 L 699 -66 L 693 -95 L 703 -130 Q 703 -134 707 -138 Q 711 -142 715 -143 Q 719 -144 721 -144 Q 727 -144 734 -137 Q 741 -130 747 -117 Q 753 -104 753 -75 L 753 -29 L 755 99 Q 755 116 757 123 Q 758 130 760 134 Q 763 139 767 147 Q 771 155 772 158 Q 772 162 768 167 Q 763 173 754 179 Q 745 185 736 190 Q 727 195 716 200 Q 706 206 701 206 Q 697 206 687 203 Q 677 200 665 198 Q 653 196 637 194 L 603 190 L 571 187 L 529 182 L 490 177 Q 483 176 449 172 L 411 166 Z" fill="lightgray" />
    
      <path d="M 411 242 L 415 230 Q 417 224 417 216 Q 417 210 416 202 Q 413 184 411 166 L 405 140 L 397 116 Q 391 95 381 79 Q 371 63 357 50 Q 343 36 335 30 Q 327 25 317 20 C 290 6 288 -4 317 5 L 345 14 Q 357 18 378 33 Q 399 49 410 66 Q 422 82 429 102 Q 437 121 445 144 L 449 172 L 454 194 Q 455 200 459 209 Q 463 218 464 221 Q 464 226 459 232 Q 455 238 447 245 C 425 266 402 270 411 242 Z" fill="lightgray" />
    
      <path d="M 571 187 L 575 218 L 581 235 Q 581 242 565 254 C 542 273 523 281 527 251 L 530 228 Q 531 220 531 209 Q 531 198 529 182 L 529 156 L 529 114 Q 529 105 530 96 Q 531 82 540 70 Q 549 59 566 54 Q 583 48 620 47 Q 639 46 651 46 Q 664 46 670 47 Q 683 50 702 55 C 731 63 731 74 703 83 L 679 91 L 677 91 Q 672 91 651 88 L 619 86 Q 612 85 606 85 Q 594 85 587 88 Q 576 92 571 102 Q 568 110 568 122 L 568 128 Q 569 144 571 160 L 571 187 Z" fill="lightgray" />
    
      <path d="M 569 -13 Q 581 -12 590 -8 Q 599 -6 600 -2 L 600 -1 Q 600 3 595 8 Q 589 13 579 16 L 565 20 L 547 23 Q 543 24 540 24 Q 536 24 533 23 Q 526 22 508 18 Q 491 14 471 11 L 390 0 Q 375 -2 375 -8 L 375 -9 Q 375 -14 387 -19 Q 399 -25 412 -27 Q 422 -29 430 -29 L 435 -29 Q 446 -29 461 -27 L 569 -13 Z" fill="lightgray" />
    
      <path d="M 311 -115 L 348 -116 L 380 -114 L 545 -101 L 584 -97 Q 604 -95 627 -94 Q 642 -94 658 -95 L 693 -95 C 723 -95 724 -82 699 -66 L 683 -56 Q 673 -51 655 -50 Q 648 -50 625 -52 L 585 -55 L 543 -60 L 315 -78 C 285 -80 281 -114 311 -115 Z" fill="lightgray" />
    
    
      <clipPath id="make-me-a-hanzi-clip-0">
        <path d="M 249 659 L 284 661 Q 295 662 332 666 Q 369 670 384 672 L 424 678 L 472 686 Q 481 688 485 690 Q 489 692 489 697 Q 489 704 481 709 Q 473 714 463 718 Q 453 722 447 723 Q 441 725 436 726 Q 431 726 414 720 Q 398 715 371 711 L 331 704 Q 311 700 279 696 Q 247 692 223 690 L 191 686 Q 180 684 179 680 L 179 679 Q 179 675 184 670 Q 190 664 203 659 L 249 659 Z" />
      </clipPath>
      <path clip-path="url(#make-me-a-hanzi-clip-0)" d="M 187 680 L 203 673 L 226 674 L 339 685 L 436 703 L 478 699" fill="none" id="make-me-a-hanzi-animation-0" stroke-dasharray="423 846" stroke-linecap="round" />
    
      <clipPath id="make-me-a-hanzi-clip-1">
        <path d="M 335 582 L 351 602 L 362 610 Q 365 614 365 620 Q 365 624 357 631 Q 351 637 343 640 L 333 645 Q 319 650 313 650 Q 307 648 305 646 L 305 636 Q 306 630 306 626 Q 305 618 300 602 L 288 573 Q 281 559 277 550 L 263 526 Q 260 521 260 518 Q 260 517 261 516 Q 262 515 264 515 Q 267 515 271 518 L 288 530 Q 297 536 303 544 Q 309 551 317 559 L 335 582 Z" />
      </clipPath>
      <path clip-path="url(#make-me-a-hanzi-clip-1)" d="M 313 641 L 330 616 L 286 542 L 264 519" fill="none" id="make-me-a-hanzi-animation-1" stroke-dasharray="276 552" stroke-linecap="round" />
    
      <clipPath id="make-me-a-hanzi-clip-2">
        <path d="M 317 559 L 340 556 Q 343 556 361 558 L 389 564 L 435 576 L 462 584 Q 477 588 477 592 Q 477 596 470 600 Q 463 604 447 607 Q 435 609 429 609 L 425 609 L 416 606 L 393 598 L 361 588 L 335 582 C 306 575 287 563 317 559 Z" />
      </clipPath>
      <path clip-path="url(#make-me-a-hanzi-clip-2)" d="M 323 563 L 427 592 L 471 594" fill="none" id="make-me-a-hanzi-animation-2" stroke-dasharray="280 560" stroke-linecap="round" />
    
      <clipPath id="make-me-a-hanzi-clip-3">
        <path d="M 359 503 L 333 499 L 309 496 Q 303 494 287 492 L 267 489 Q 265 488 264 486 L 264 485 Q 264 481 269 477 Q 275 471 287 470 Q 295 468 303 468 Q 309 468 315 469 Q 329 471 352 477 L 391 482 L 417 486 L 445 492 L 483 500 Q 488 500 488 507 Q 487 514 471 518 Q 455 522 453 523 L 448 523 Q 442 523 437 522 Q 431 522 421 519 L 399 512 L 359 503 Z" />
      </clipPath>
      <path clip-path="url(#make-me-a-hanzi-clip-3)" d="M 268 486 L 300 481 L 444 508 L 481 507" fill="none" id="make-me-a-hanzi-animation-3" stroke-dasharray="344 688" stroke-linecap="round" />
    
      <clipPath id="make-me-a-hanzi-clip-4">
        <path d="M 361 558 L 363 538 Q 363 534 362 524 Q 361 515 359 503 L 352 477 L 339 446 Q 335 438 319 418 Q 301 399 291 393 L 271 382 Q 263 377 263 373 L 263 372 Q 264 369 269 369 Q 272 369 275 370 L 294 376 Q 317 381 335 397 Q 353 412 362 424 Q 371 436 381 452 L 385 467 L 391 482 L 399 512 L 401 522 Q 404 532 405 534 L 411 545 Q 411 550 405 555 Q 399 560 389 564 C 362 576 359 578 361 558 Z" />
      </clipPath>
      <path clip-path="url(#make-me-a-hanzi-clip-4)" d="M 369 554 L 385 541 L 362 455 L 332 411 L 299 386 L 267 373" fill="none" id="make-me-a-hanzi-animation-4" stroke-dasharray="367 734" stroke-linecap="round" />
    
      <clipPath id="make-me-a-hanzi-clip-5">
        <path d="M 381 452 L 412 420 L 435 396 L 444 390 Q 447 389 450 389 L 453 389 Q 459 389 462 392 Q 465 394 467 398 Q 468 401 468 405 L 468 410 Q 468 418 465 424 Q 463 430 456 438 Q 449 445 432 452 Q 415 458 385 467 C 359 475 360 474 381 452 Z" />
      </clipPath>
      <path clip-path="url(#make-me-a-hanzi-clip-5)" d="M 390 458 L 431 430 L 454 403" fill="none" id="make-me-a-hanzi-animation-5" stroke-dasharray="213 426" stroke-linecap="round" />
    
      <clipPath id="make-me-a-hanzi-clip-6">
        <path d="M 203 659 L 207 376 Q 207 355 209 344 Q 211 332 220 325 Q 229 318 253 318 Q 268 317 290 317 L 315 317 Q 355 318 380 320 L 462 328 Q 488 330 494 333 Q 501 337 501 341 L 501 343 Q 501 347 495 353 Q 488 360 476 366 Q 465 372 457 372 L 441 368 Q 429 364 410 362 L 375 358 Q 345 355 338 355 L 289 353 L 267 353 Q 253 353 247 358 Q 242 361 242 379 L 242 386 L 249 659 C 250 689 203 689 203 659 Z" />
      </clipPath>
      <path clip-path="url(#make-me-a-hanzi-clip-6)" d="M 241 652 L 226 636 L 225 620 L 224 383 L 230 345 L 273 335 L 362 337 L 458 350 L 492 342" fill="none" id="make-me-a-hanzi-animation-6" stroke-dasharray="706 1412" stroke-linecap="round" />
    
      <clipPath id="make-me-a-hanzi-clip-7">
        <path d="M 593 706 L 581 711 L 564 713 Q 558 714 554 714 Q 548 714 546 712 Q 543 708 543 706 Q 543 702 550 694 Q 557 686 559 677 Q 560 668 560 654 Q 559 640 558 620 Q 557 600 552 588 Q 547 574 538 560 Q 529 546 519 538 L 504 526 Q 499 523 499 518 L 499 516 Q 499 514 502 514 Q 507 514 517 519 L 543 531 Q 555 536 567 549 Q 579 561 587 578 Q 594 596 596 608 Q 597 621 598 640 Q 599 660 601 681 C 603 702 603 702 593 706 Z" />
      </clipPath>
      <path clip-path="url(#make-me-a-hanzi-clip-7)" d="M 552 705 L 574 692 L 580 681 L 574 592 L 552 553 L 502 517" fill="none" id="make-me-a-hanzi-animation-7" stroke-dasharray="362 724" stroke-linecap="round" />
    
      <clipPath id="make-me-a-hanzi-clip-8">
        <path d="M 601 681 L 625 687 L 647 692 Q 660 696 666 696 Q 675 696 680 692 Q 685 688 685 680 Q 685 671 684 656 Q 683 642 683 626 L 683 617 Q 683 596 687 583 Q 693 568 706 558 Q 720 548 749 548 L 757 548 Q 773 548 790 551 Q 812 555 819 558 Q 827 562 829 566 Q 831 569 831 572 Q 831 581 817 588 Q 799 598 789 598 Q 785 597 770 592 Q 755 588 742 588 Q 727 588 723 594 Q 720 597 720 607 Q 720 612 721 619 Q 723 640 726 652 Q 729 664 733 674 Q 738 684 743 690 Q 748 696 749 698 Q 749 702 745 707 Q 741 712 732 718 Q 722 723 713 727 Q 705 732 695 735 Q 686 738 681 738 Q 680 738 675 734 Q 669 732 657 727 L 636 718 Q 630 716 619 713 Q 607 710 593 706 C 564 698 572 674 601 681 Z" />
      </clipPath>
      <path clip-path="url(#make-me-a-hanzi-clip-8)" d="M 601 702 L 610 697 L 669 714 L 692 712 L 711 692 L 702 633 L 706 585 L 720 572 L 741 567 L 820 572" fill="none" id="make-me-a-hanzi-animation-8" stroke-dasharray="478 956" stroke-linecap="round" />
    
      <clipPath id="make-me-a-hanzi-clip-9">
        <path d="M 649 410 L 632 394 Q 627 388 611 377 Q 594 366 582 359 Q 569 352 560 349 L 533 340 Q 526 337 526 334 L 526 333 Q 526 330 534 330 L 539 330 L 557 332 Q 567 334 585 338 Q 603 343 617 348 Q 631 354 647 364 L 681 384 L 708 419 L 723 442 L 739 466 Q 746 478 753 485 L 763 494 Q 768 499 769 502 Q 769 507 761 514 Q 754 520 743 525 L 722 535 Q 711 540 707 540 Q 703 539 694 534 Q 685 528 667 522 L 634 512 Q 619 506 603 503 Q 587 499 575 498 L 560 496 Q 545 494 545 491 Q 544 490 544 489 Q 544 486 548 482 Q 553 476 573 466 C 577 464 569 468 591 473 L 625 481 L 657 488 Q 669 491 683 495 Q 691 498 695 498 Q 697 498 698 497 Q 699 496 699 494 Q 699 491 697 486 Q 695 478 689 467 Q 684 456 681 450 Q 678 446 673 438 L 649 410 Z" />
      </clipPath>
      <path clip-path="url(#make-me-a-hanzi-clip-9)" d="M 550 488 L 572 482 L 709 517 L 728 499 L 688 425 L 655 389 L 575 343 L 531 334" fill="none" id="make-me-a-hanzi-animation-9" stroke-dasharray="589 1178" stroke-linecap="round" />
    
      <clipPath id="make-me-a-hanzi-clip-10">
        <path d="M 681 384 L 695 373 L 733 339 Q 745 327 753 326 Q 761 326 767 330 Q 773 334 773 348 Q 773 364 767 374 Q 761 384 745 394 L 708 419 L 673 438 L 647 448 L 628 458 Q 615 464 591 473 C 563 484 549 484 573 466 L 609 440 L 633 424 Q 639 420 649 410 L 681 384 Z" />
      </clipPath>
      <path clip-path="url(#make-me-a-hanzi-clip-10)" d="M 580 462 L 589 465 L 702 397 L 747 360 L 756 343" fill="none" id="make-me-a-hanzi-animation-10" stroke-dasharray="347 694" stroke-linecap="round" />
    
      <clipPath id="make-me-a-hanzi-clip-11">
        <path d="M 565 254 L 595 256 L 629 258 Q 671 261 732 262 Q 793 262 827 261 L 878 258 L 893 258 Q 899 259 901 262 Q 905 265 905 270 Q 905 276 898 282 Q 891 288 877 294 Q 863 302 853 306 Q 841 310 831 310 L 801 305 L 776 302 Q 754 299 729 297 Q 705 294 643 290 Q 583 286 537 282 L 446 275 Q 437 274 366 269 Q 296 264 254 260 Q 213 257 197 256 L 151 255 L 137 254 Q 125 254 123 250 Q 122 249 122 247 Q 122 245 124 241 Q 127 234 141 228 L 157 220 Q 165 216 175 213 Q 186 210 191 210 Q 195 210 209 214 Q 223 218 248 223 Q 273 228 293 231 Q 314 234 332 236 Q 350 238 373 240 Q 397 241 411 242 L 447 245 L 523 251 L 527 251 L 565 254 Z" />
      </clipPath>
      <path clip-path="url(#make-me-a-hanzi-clip-11)" d="M 130 246 L 185 233 L 378 257 L 827 286 L 893 271" fill="none" id="make-me-a-hanzi-animation-11" stroke-dasharray="897 1794" stroke-linecap="round" />
    
      <clipPath id="make-me-a-hanzi-clip-12">
        <path d="M 309 158 L 291 166 Q 285 168 277 168 Q 273 168 265 167 Q 255 166 254 164 Q 253 163 253 161 Q 253 158 258 154 Q 263 148 267 140 Q 271 132 273 125 Q 275 118 276 108 L 276 95 L 273 2 Q 271 -32 269 -54 Q 267 -76 267 -84 Q 269 -93 274 -107 Q 279 -120 283 -127 Q 291 -138 295 -138 Q 299 -136 303 -132 Q 307 -128 311 -115 L 315 -78 L 317 5 L 317 20 L 321 130 C 322 152 322 152 309 158 Z" />
      </clipPath>
      <path clip-path="url(#make-me-a-hanzi-clip-12)" d="M 260 160 L 282 151 L 298 123 L 291 -65 L 296 -131" fill="none" id="make-me-a-hanzi-animation-12" stroke-dasharray="438 876" stroke-linecap="round" />
    
      <clipPath id="make-me-a-hanzi-clip-13">
        <path d="M 411 166 L 381 164 L 341 160 Q 331 159 309 158 C 279 156 291 126 321 130 L 361 136 Q 368 137 405 140 L 445 144 L 476 150 Q 487 151 529 156 L 571 160 L 605 164 L 645 166 Q 653 167 659 167 Q 675 167 681 163 Q 689 159 694 153 Q 699 147 700 134 Q 701 122 701 110 Q 702 98 703 83 L 702 55 L 699 -66 L 693 -95 L 703 -130 Q 703 -134 707 -138 Q 711 -142 715 -143 Q 719 -144 721 -144 Q 727 -144 734 -137 Q 741 -130 747 -117 Q 753 -104 753 -75 L 753 -29 L 755 99 Q 755 116 757 123 Q 758 130 760 134 Q 763 139 767 147 Q 771 155 772 158 Q 772 162 768 167 Q 763 173 754 179 Q 745 185 736 190 Q 727 195 716 200 Q 706 206 701 206 Q 697 206 687 203 Q 677 200 665 198 Q 653 196 637 194 L 603 190 L 571 187 L 529 182 L 490 177 Q 483 176 449 172 L 411 166 Z" />
      </clipPath>
      <path clip-path="url(#make-me-a-hanzi-clip-13)" d="M 316 153 L 329 145 L 393 150 L 661 183 L 687 183 L 710 174 L 731 153 L 721 -128" fill="none" id="make-me-a-hanzi-animation-13" stroke-dasharray="839 1678" stroke-linecap="round" />
    
      <clipPath id="make-me-a-hanzi-clip-14">
        <path d="M 411 242 L 415 230 Q 417 224 417 216 Q 417 210 416 202 Q 413 184 411 166 L 405 140 L 397 116 Q 391 95 381 79 Q 371 63 357 50 Q 343 36 335 30 Q 327 25 317 20 C 290 6 288 -4 317 5 L 345 14 Q 357 18 378 33 Q 399 49 410 66 Q 422 82 429 102 Q 437 121 445 144 L 449 172 L 454 194 Q 455 200 459 209 Q 463 218 464 221 Q 464 226 459 232 Q 455 238 447 245 C 425 266 402 270 411 242 Z" />
      </clipPath>
      <path clip-path="url(#make-me-a-hanzi-clip-14)" d="M 417 237 L 439 221 L 428 154 L 411 102 L 376 48 L 322 13" fill="none" id="make-me-a-hanzi-animation-14" stroke-dasharray="407 814" stroke-linecap="round" />
    
      <clipPath id="make-me-a-hanzi-clip-15">
        <path d="M 571 187 L 575 218 L 581 235 Q 581 242 565 254 C 542 273 523 281 527 251 L 530 228 Q 531 220 531 209 Q 531 198 529 182 L 529 156 L 529 114 Q 529 105 530 96 Q 531 82 540 70 Q 549 59 566 54 Q 583 48 620 47 Q 639 46 651 46 Q 664 46 670 47 Q 683 50 702 55 C 731 63 731 74 703 83 L 679 91 L 677 91 Q 672 91 651 88 L 619 86 Q 612 85 606 85 Q 594 85 587 88 Q 576 92 571 102 Q 568 110 568 122 L 568 128 Q 569 144 571 160 L 571 187 Z" />
      </clipPath>
      <path clip-path="url(#make-me-a-hanzi-clip-15)" d="M 534 246 L 553 226 L 548 121 L 551 94 L 559 81 L 599 67 L 684 70 L 694 62" fill="none" id="make-me-a-hanzi-animation-15" stroke-dasharray="443 886" stroke-linecap="round" />
    
      <clipPath id="make-me-a-hanzi-clip-16">
        <path d="M 569 -13 Q 581 -12 590 -8 Q 599 -6 600 -2 L 600 -1 Q 600 3 595 8 Q 589 13 579 16 L 565 20 L 547 23 Q 543 24 540 24 Q 536 24 533 23 Q 526 22 508 18 Q 491 14 471 11 L 390 0 Q 375 -2 375 -8 L 375 -9 Q 375 -14 387 -19 Q 399 -25 412 -27 Q 422 -29 430 -29 L 435 -29 Q 446 -29 461 -27 L 569 -13 Z" />
      </clipPath>
      <path clip-path="url(#make-me-a-hanzi-clip-16)" d="M 381 -8 L 433 -12 L 548 4 L 593 -1" fill="none" id="make-me-a-hanzi-animation-16" stroke-dasharray="342 684" stroke-linecap="round" />
    
      <clipPath id="make-me-a-hanzi-clip-17">
        <path d="M 311 -115 L 348 -116 L 380 -114 L 545 -101 L 584 -97 Q 604 -95 627 -94 Q 642 -94 658 -95 L 693 -95 C 723 -95 724 -82 699 -66 L 683 -56 Q 673 -51 655 -50 Q 648 -50 625 -52 L 585 -55 L 543 -60 L 315 -78 C 285 -80 281 -114 311 -115 Z" />
      </clipPath>
      <path clip-path="url(#make-me-a-hanzi-clip-17)" d="M 317 -109 L 339 -95 L 607 -74 L 660 -72 L 676 -75 L 687 -86" fill="none" id="make-me-a-hanzi-animation-17" stroke-dasharray="508 1016" stroke-linecap="round" />
    
  </g>
</svg>