<svg xmlns="http://www.w3.org/2000/svg" version="1.1" viewBox="0 0 1024 1024">
  <g stroke="lightgray" stroke-dasharray="1,1" stroke-width="1" transform="scale(4, 4)">
    <line x1="0" y1="0" x2="256" y2="256" />
    <line x1="256" y1="0" x2="0" y2="256" />
    <line x1="128" y1="0" x2="128" y2="256" />
    <line x1="0" y1="128" x2="256" y2="128" />
  </g>
  <g transform="scale(1.0, -1.0) translate(0.0, -794.00)">
    <style type="text/css">
      
        @keyframes keyframes0 {
          from {
            stroke: blue;
            stroke-dashoffset: 552;
            stroke-width: 128;
          }
          64% {
            animation-timing-function: step-end;
            stroke: blue;
            stroke-dashoffset: 0;
            stroke-width: 128;
          }
          to {
            stroke: black;
            stroke-width: 1024;
          }
        }
        #make-me-a-hanzi-animation-0 {
          animation: keyframes0 0.69921875s both;
          animation-delay: 0s;
          animation-timing-function: linear;
        }
      
        @keyframes keyframes1 {
          from {
            stroke: blue;
            stroke-dashoffset: 701;
            stroke-width: 128;
          }
          70% {
            animation-timing-function: step-end;
            stroke: blue;
            stroke-dashoffset: 0;
            stroke-width: 128;
          }
          to {
            stroke: black;
            stroke-width: 1024;
          }
        }
        #make-me-a-hanzi-animation-1 {
          animation: keyframes1 0.8204752604166666s both;
          animation-delay: 0.69921875s;
          animation-timing-function: linear;
        }
      
        @keyframes keyframes2 {
          from {
            stroke: blue;
            stroke-dashoffset: 404;
            stroke-width: 128;
          }
          57% {
            animation-timing-function: step-end;
            stroke: blue;
            stroke-dashoffset: 0;
            stroke-width: 128;
          }
          to {
            stroke: black;
            stroke-width: 1024;
          }
        }
        #make-me-a-hanzi-animation-2 {
          animation: keyframes2 0.5787760416666666s both;
          animation-delay: 1.5196940104166665s;
          animation-timing-function: linear;
        }
      
        @keyframes keyframes3 {
          from {
            stroke: blue;
            stroke-dashoffset: 402;
            stroke-width: 128;
          }
          57% {
            animation-timing-function: step-end;
            stroke: blue;
            stroke-dashoffset: 0;
            stroke-width: 128;
          }
          to {
            stroke: black;
            stroke-width: 1024;
          }
        }
        #make-me-a-hanzi-animation-3 {
          animation: keyframes3 0.5771484375s both;
          animation-delay: 2.098470052083333s;
          animation-timing-function: linear;
        }
      
        @keyframes keyframes4 {
          from {
            stroke: blue;
            stroke-dashoffset: 369;
            stroke-width: 128;
          }
          55% {
            animation-timing-function: step-end;
            stroke: blue;
            stroke-dashoffset: 0;
            stroke-width: 128;
          }
          to {
            stroke: black;
            stroke-width: 1024;
          }
        }
        #make-me-a-hanzi-animation-4 {
          animation: keyframes4 0.55029296875s both;
          animation-delay: 2.675618489583333s;
          animation-timing-function: linear;
        }
      
        @keyframes keyframes5 {
          from {
            stroke: blue;
            stroke-dashoffset: 357;
            stroke-width: 128;
          }
          54% {
            animation-timing-function: step-end;
            stroke: blue;
            stroke-dashoffset: 0;
            stroke-width: 128;
          }
          to {
            stroke: black;
            stroke-width: 1024;
          }
        }
        #make-me-a-hanzi-animation-5 {
          animation: keyframes5 0.54052734375s both;
          animation-delay: 3.225911458333333s;
          animation-timing-function: linear;
        }
      
        @keyframes keyframes6 {
          from {
            stroke: blue;
            stroke-dashoffset: 502;
            stroke-width: 128;
          }
          62% {
            animation-timing-function: step-end;
            stroke: blue;
            stroke-dashoffset: 0;
            stroke-width: 128;
          }
          to {
            stroke: black;
            stroke-width: 1024;
          }
        }
        #make-me-a-hanzi-animation-6 {
          animation: keyframes6 0.6585286458333334s both;
          animation-delay: 3.766438802083333s;
          animation-timing-function: linear;
        }
      
        @keyframes keyframes7 {
          from {
            stroke: blue;
            stroke-dashoffset: 340;
            stroke-width: 128;
          }
          53% {
            animation-timing-function: step-end;
            stroke: blue;
            stroke-dashoffset: 0;
            stroke-width: 128;
          }
          to {
            stroke: black;
            stroke-width: 1024;
          }
        }
        #make-me-a-hanzi-animation-7 {
          animation: keyframes7 0.5266927083333334s both;
          animation-delay: 4.424967447916666s;
          animation-timing-function: linear;
        }
      
        @keyframes keyframes8 {
          from {
            stroke: blue;
            stroke-dashoffset: 337;
            stroke-width: 128;
          }
          52% {
            animation-timing-function: step-end;
            stroke: blue;
            stroke-dashoffset: 0;
            stroke-width: 128;
          }
          to {
            stroke: black;
            stroke-width: 1024;
          }
        }
        #make-me-a-hanzi-animation-8 {
          animation: keyframes8 0.5242513020833334s both;
          animation-delay: 4.951660156249999s;
          animation-timing-function: linear;
        }
      
        @keyframes keyframes9 {
          from {
            stroke: blue;
            stroke-dashoffset: 614;
            stroke-width: 128;
          }
          67% {
            animation-timing-function: step-end;
            stroke: blue;
            stroke-dashoffset: 0;
            stroke-width: 128;
          }
          to {
            stroke: black;
            stroke-width: 1024;
          }
        }
        #make-me-a-hanzi-animation-9 {
          animation: keyframes9 0.7496744791666666s both;
          animation-delay: 5.475911458333332s;
          animation-timing-function: linear;
        }
      
        @keyframes keyframes10 {
          from {
            stroke: blue;
            stroke-dashoffset: 356;
            stroke-width: 128;
          }
          54% {
            animation-timing-function: step-end;
            stroke: blue;
            stroke-dashoffset: 0;
            stroke-width: 128;
          }
          to {
            stroke: black;
            stroke-width: 1024;
          }
        }
        #make-me-a-hanzi-animation-10 {
          animation: keyframes10 0.5397135416666666s both;
          animation-delay: 6.225585937499999s;
          animation-timing-function: linear;
        }
      
        @keyframes keyframes11 {
          from {
            stroke: blue;
            stroke-dashoffset: 353;
            stroke-width: 128;
          }
          53% {
            animation-timing-function: step-end;
            stroke: blue;
            stroke-dashoffset: 0;
            stroke-width: 128;
          }
          to {
            stroke: black;
            stroke-width: 1024;
          }
        }
        #make-me-a-hanzi-animation-11 {
          animation: keyframes11 0.5372721354166666s both;
          animation-delay: 6.765299479166666s;
          animation-timing-function: linear;
        }
      
        @keyframes keyframes12 {
          from {
            stroke: blue;
            stroke-dashoffset: 428;
            stroke-width: 128;
          }
          58% {
            animation-timing-function: step-end;
            stroke: blue;
            stroke-dashoffset: 0;
            stroke-width: 128;
          }
          to {
            stroke: black;
            stroke-width: 1024;
          }
        }
        #make-me-a-hanzi-animation-12 {
          animation: keyframes12 0.5983072916666666s both;
          animation-delay: 7.302571614583333s;
          animation-timing-function: linear;
        }
      
        @keyframes keyframes13 {
          from {
            stroke: blue;
            stroke-dashoffset: 1075;
            stroke-width: 128;
          }
          78% {
            animation-timing-function: step-end;
            stroke: blue;
            stroke-dashoffset: 0;
            stroke-width: 128;
          }
          to {
            stroke: black;
            stroke-width: 1024;
          }
        }
        #make-me-a-hanzi-animation-13 {
          animation: keyframes13 1.1248372395833333s both;
          animation-delay: 7.90087890625s;
          animation-timing-function: linear;
        }
      
        @keyframes keyframes14 {
          from {
            stroke: blue;
            stroke-dashoffset: 653;
            stroke-width: 128;
          }
          68% {
            animation-timing-function: step-end;
            stroke: blue;
            stroke-dashoffset: 0;
            stroke-width: 128;
          }
          to {
            stroke: black;
            stroke-width: 1024;
          }
        }
        #make-me-a-hanzi-animation-14 {
          animation: keyframes14 0.7814127604166666s both;
          animation-delay: 9.025716145833334s;
          animation-timing-function: linear;
        }
      
        @keyframes keyframes15 {
          from {
            stroke: blue;
            stroke-dashoffset: 439;
            stroke-width: 128;
          }
          59% {
            animation-timing-function: step-end;
            stroke: blue;
            stroke-dashoffset: 0;
            stroke-width: 128;
          }
          to {
            stroke: black;
            stroke-width: 1024;
          }
        }
        #make-me-a-hanzi-animation-15 {
          animation: keyframes15 0.6072591145833334s both;
          animation-delay: 9.80712890625s;
          animation-timing-function: linear;
        }
      
        @keyframes keyframes16 {
          from {
            stroke: blue;
            stroke-dashoffset: 769;
            stroke-width: 128;
          }
          71% {
            animation-timing-function: step-end;
            stroke: blue;
            stroke-dashoffset: 0;
            stroke-width: 128;
          }
          to {
            stroke: black;
            stroke-width: 1024;
          }
        }
        #make-me-a-hanzi-animation-16 {
          animation: keyframes16 0.8758138020833334s both;
          animation-delay: 10.414388020833334s;
          animation-timing-function: linear;
        }
      
        @keyframes keyframes17 {
          from {
            stroke: blue;
            stroke-dashoffset: 436;
            stroke-width: 128;
          }
          59% {
            animation-timing-function: step-end;
            stroke: blue;
            stroke-dashoffset: 0;
            stroke-width: 128;
          }
          to {
            stroke: black;
            stroke-width: 1024;
          }
        }
        #make-me-a-hanzi-animation-17 {
          animation: keyframes17 0.6048177083333334s both;
          animation-delay: 11.290201822916668s;
          animation-timing-function: linear;
        }
      
        @keyframes keyframes18 {
          from {
            stroke: blue;
            stroke-dashoffset: 472;
            stroke-width: 128;
          }
          61% {
            animation-timing-function: step-end;
            stroke: blue;
            stroke-dashoffset: 0;
            stroke-width: 128;
          }
          to {
            stroke: black;
            stroke-width: 1024;
          }
        }
        #make-me-a-hanzi-animation-18 {
          animation: keyframes18 0.6341145833333334s both;
          animation-delay: 11.895019531250002s;
          animation-timing-function: linear;
        }
      
        @keyframes keyframes19 {
          from {
            stroke: blue;
            stroke-dashoffset: 417;
            stroke-width: 128;
          }
          58% {
            animation-timing-function: step-end;
            stroke: blue;
            stroke-dashoffset: 0;
            stroke-width: 128;
          }
          to {
            stroke: black;
            stroke-width: 1024;
          }
        }
        #make-me-a-hanzi-animation-19 {
          animation: keyframes19 0.58935546875s both;
          animation-delay: 12.529134114583336s;
          animation-timing-function: linear;
        }
      
        @keyframes keyframes20 {
          from {
            stroke: blue;
            stroke-dashoffset: 507;
            stroke-width: 128;
          }
          62% {
            animation-timing-function: step-end;
            stroke: blue;
            stroke-dashoffset: 0;
            stroke-width: 128;
          }
          to {
            stroke: black;
            stroke-width: 1024;
          }
        }
        #make-me-a-hanzi-animation-20 {
          animation: keyframes20 0.66259765625s both;
          animation-delay: 13.118489583333336s;
          animation-timing-function: linear;
        }
      
        @keyframes keyframes21 {
          from {
            stroke: blue;
            stroke-dashoffset: 543;
            stroke-width: 128;
          }
          64% {
            animation-timing-function: step-end;
            stroke: blue;
            stroke-dashoffset: 0;
            stroke-width: 128;
          }
          to {
            stroke: black;
            stroke-width: 1024;
          }
        }
        #make-me-a-hanzi-animation-21 {
          animation: keyframes21 0.69189453125s both;
          animation-delay: 13.781087239583336s;
          animation-timing-function: linear;
        }
      
        @keyframes keyframes22 {
          from {
            stroke: blue;
            stroke-dashoffset: 597;
            stroke-width: 128;
          }
          66% {
            animation-timing-function: step-end;
            stroke: blue;
            stroke-dashoffset: 0;
            stroke-width: 128;
          }
          to {
            stroke: black;
            stroke-width: 1024;
          }
        }
        #make-me-a-hanzi-animation-22 {
          animation: keyframes22 0.73583984375s both;
          animation-delay: 14.472981770833336s;
          animation-timing-function: linear;
        }
      
        @keyframes keyframes23 {
          from {
            stroke: blue;
            stroke-dashoffset: 853;
            stroke-width: 128;
          }
          74% {
            animation-timing-function: step-end;
            stroke: blue;
            stroke-dashoffset: 0;
            stroke-width: 128;
          }
          to {
            stroke: black;
            stroke-width: 1024;
          }
        }
        #make-me-a-hanzi-animation-23 {
          animation: keyframes23 0.9441731770833334s both;
          animation-delay: 15.208821614583336s;
          animation-timing-function: linear;
        }
      
        @keyframes keyframes24 {
          from {
            stroke: blue;
            stroke-dashoffset: 556;
            stroke-width: 128;
          }
          64% {
            animation-timing-function: step-end;
            stroke: blue;
            stroke-dashoffset: 0;
            stroke-width: 128;
          }
          to {
            stroke: black;
            stroke-width: 1024;
          }
        }
        #make-me-a-hanzi-animation-24 {
          animation: keyframes24 0.7024739583333334s both;
          animation-delay: 16.152994791666668s;
          animation-timing-function: linear;
        }
      
    </style>
    
      <path d="M 412 708 L 392 714 Q 380 716 370 717 Q 356 717 354 714 L 354 712 Q 354 708 358 698 Q 364 687 365 680 Q 366 672 368 644 L 378 430 C 379 400 411 402 411 432 L 410 544 L 410 569 L 410 611 L 410 636 L 412 685 C 413 708 413 708 412 708 Z" fill="lightgray" />
    
      <path d="M 600 448 L 612 624 Q 612 640 616 657 Q 620 674 626 686 Q 631 697 631 702 Q 630 708 623 716 Q 615 724 600 733 Q 584 742 578 743 Q 572 743 559 739 Q 546 734 516 728 L 412 708 C 383 702 382 680 412 685 L 528 706 Q 540 708 546 708 L 550 708 Q 556 708 560 704 Q 564 700 564 689 L 564 656 L 564 630 L 563 583 L 562 558 L 558 444 C 557 414 598 418 600 448 Z" fill="lightgray" />
    
      <path d="M 410 611 L 446 614 L 486 618 L 523 624 Q 548 628 564 630 C 594 634 593 649 564 656 L 546 660 Q 545 661 543 661 Q 537 661 523 656 Q 504 650 480 647 L 448 642 L 410 636 C 380 631 380 609 410 611 Z" fill="lightgray" />
    
      <path d="M 410 544 L 432 543 L 434 543 Q 441 543 460 547 L 495 550 L 518 554 Q 526 555 537 556 Q 549 558 562 558 C 592 558 592 577 563 583 L 537 588 L 534 588 Q 526 588 508 584 Q 485 580 466 576 Q 446 572 436 571 Q 426 570 410 569 C 380 567 380 545 410 544 Z" fill="lightgray" />
    
      <path d="M 460 547 L 462 531 Q 463 516 464 494 Q 466 472 468 436 C 470 406 497 408 500 438 L 504 480 Q 504 497 509 510 Q 513 520 513 525 Q 513 528 512 529 Q 511 534 506 539 Q 502 544 495 550 C 473 570 456 577 460 547 Z" fill="lightgray" />
    
      <path d="M 248 637 L 268 648 L 294 661 Q 311 670 322 672 Q 333 675 335 678 L 337 682 L 337 684 Q 337 690 332 698 Q 325 706 315 714 Q 305 722 298 725 Q 291 728 287 728 Q 285 728 284 727 Q 280 724 276 711 Q 272 698 264 685 Q 254 672 240 649 C 225 624 225 624 248 637 Z" fill="lightgray" />
    
      <path d="M 268 424 L 266 476 L 262 501 L 259 547 L 255 574 L 254 594 L 251 610 Q 249 625 248 637 C 247 645 247 645 240 649 L 227 656 Q 224 656 206 659 L 199 659 Q 190 659 188 657 Q 187 656 187 654 Q 187 652 188 649 Q 190 644 198 633 Q 206 622 210 603 Q 216 584 218 562 L 232 422 C 235 392 269 394 268 424 Z" fill="lightgray" />
    
      <path d="M 259 547 L 271 550 L 291 557 L 311 562 L 333 570 Q 340 573 344 578 Q 347 582 347 586 L 347 588 Q 346 592 336 594 Q 328 597 320 598 Q 312 598 310 596 Q 306 596 298 592 Q 290 588 280 584 L 255 574 C 227 563 230 540 259 547 Z" fill="lightgray" />
    
      <path d="M 266 476 L 302 484 Q 320 486 336 492 Q 352 498 353 504 L 353 506 Q 353 511 348 515 Q 342 519 332 520 Q 320 520 315 518 Q 310 518 294 511 Q 278 505 262 501 C 233 494 237 469 266 476 Z" fill="lightgray" />
    
      <path d="M 758 467 L 787 592 Q 792 616 794 623 Q 796 629 804 643 Q 811 657 818 666 Q 824 676 824 682 Q 824 688 814 695 Q 804 702 785 709 Q 766 717 762 717 Q 758 716 748 712 Q 738 708 716 702 Q 694 696 690 696 L 656 692 Q 646 690 646 688 L 646 680 Q 648 674 660 670 Q 673 666 679 666 Q 682 666 704 672 L 721 676 Q 734 680 739 680 Q 744 679 749 675 Q 753 673 753 665 Q 753 661 752 657 L 746 622 L 743 592 L 734 546 L 730 520 L 720 462 C 715 432 751 438 758 467 Z" fill="lightgray" />
    
      <path d="M 746 622 L 661 607 L 641 604 Q 638 602 637 598 L 637 597 Q 637 595 642 592 Q 650 588 662 587 L 670 587 Q 677 587 683 588 L 743 592 C 773 594 776 627 746 622 Z" fill="lightgray" />
    
      <path d="M 734 546 L 653 536 Q 638 534 634 533 Q 630 532 630 530 L 630 528 Q 630 525 637 521 Q 646 516 654 514 L 676 514 L 730 520 C 760 523 764 550 734 546 Z" fill="lightgray" />
    
      <path d="M 178 422 L 161 458 Q 160 459 158 460 Q 156 462 154 462 Q 151 462 148 460 L 141 431 L 111 332 Q 109 327 109 320 Q 109 316 110 310 Q 110 296 118 286 Q 124 276 132 276 Q 139 278 145 287 Q 151 296 157 312 Q 162 328 166 338 Q 168 350 171 360 Q 174 371 177 384 L 178 422 Z" fill="lightgray" />
    
      <path d="M 232 422 L 216 423 L 204 422 L 178 422 C 148 422 147 387 177 384 L 212 380 L 219 380 Q 231 380 259 384 L 316 394 Q 328 396 370 399 Q 411 402 468 408 Q 524 414 558 417 L 675 425 Q 741 430 764 430 L 794 430 Q 802 430 807 425 Q 808 424 808 422 Q 808 415 797 401 L 754 346 Q 748 340 748 336 L 748 335 Q 749 334 752 334 Q 756 334 764 336 L 805 352 Q 829 360 862 366 Q 894 372 900 375 L 910 380 Q 914 384 916 387 Q 917 390 917 397 Q 916 404 902 420 Q 888 436 878 444 Q 868 453 853 464 Q 838 476 830 476 L 818 476 L 795 471 Q 783 468 758 467 L 720 462 L 669 455 Q 648 452 633 451 Q 618 450 600 448 L 558 444 L 500 438 L 468 436 L 411 432 L 378 430 L 268 424 L 232 422 Z" fill="lightgray" />
    
      <path d="M 534 344 L 560 348 L 615 354 Q 634 356 638 358 L 672 362 Q 678 363 680 366 Q 683 370 683 372 Q 682 374 677 378 Q 672 381 660 384 Q 650 388 636 388 Q 626 388 606 385 Q 586 381 551 376 Q 517 372 483 367 Q 448 362 418 360 L 343 353 L 297 348 Q 278 346 277 340 L 277 339 Q 277 335 288 329 Q 298 324 313 324 L 318 324 L 354 327 L 389 329 Q 396 330 413 332 L 434 332 L 475 338 Q 479 338 506 342 L 534 344 Z" fill="lightgray" />
    
      <path d="M 318 268 L 302 275 Q 292 278 285 279 Q 274 279 272 275 L 272 273 Q 272 268 278 260 L 285 251 Q 287 248 293 231 Q 300 214 300 210 L 313 135 Q 316 114 318 110 L 322 102 Q 324 100 328 98 Q 332 96 335 96 Q 336 96 339 97 Q 341 98 345 104 C 350 110 350 110 347 132 L 340 186 L 337 197 L 330 246 C 327 264 327 264 318 268 Z" fill="lightgray" />
    
      <path d="M 410 275 L 378 272 L 340 271 Q 332 270 318 268 C 288 264 300 244 330 246 L 368 248 Q 374 248 405 251 L 440 254 L 479 260 Q 482 260 502 262 L 532 267 L 554 270 L 586 274 Q 601 275 609 275 L 617 275 Q 628 272 632 267 Q 635 264 635 258 Q 635 255 634 252 Q 634 242 631 228 L 626 199 L 620 174 Q 618 166 606 140 C 598 123 598 123 604 117 L 612 107 Q 613 105 618 104 L 620 104 Q 627 104 634 112 Q 642 122 648 136 L 679 222 L 688 244 Q 694 252 699 260 Q 704 267 704 271 L 704 272 Q 704 274 700 279 Q 697 283 688 289 Q 680 295 672 299 Q 664 302 652 307 Q 639 312 634 312 Q 626 312 611 308 Q 596 304 576 301 Q 556 298 534 294 L 503 288 L 444 279 L 410 275 Z" fill="lightgray" />
    
      <path d="M 413 332 L 412 304 Q 412 299 410 275 L 405 251 L 395 236 Q 392 232 382 222 Q 372 213 362 208 Q 352 202 337 197 C 309 187 311 179 340 186 L 358 190 Q 368 192 384 198 Q 398 204 409 213 Q 420 222 427 231 Q 434 241 440 254 L 444 279 L 446 300 L 449 316 Q 448 322 434 332 C 414 347 414 347 413 332 Z" fill="lightgray" />
    
      <path d="M 534 294 L 538 310 L 544 329 Q 542 334 534 344 C 516 368 507 372 506 342 L 505 316 Q 504 310 503 288 L 502 262 L 503 248 L 503 239 Q 504 233 509 226 Q 515 220 526 213 Q 536 206 560 203 Q 584 200 596 199 L 626 199 C 656 199 661 228 631 228 L 605 228 Q 580 228 559 231 Q 538 234 534 243 Q 531 249 531 258 Q 531 262 532 267 L 534 294 Z" fill="lightgray" />
    
      <path d="M 548 172 Q 550 172 554 174 Q 557 176 558 178 Q 559 179 559 182 L 559 185 Q 558 190 543 192 Q 529 194 522 194 Q 515 194 499 192 L 465 187 Q 438 182 432 182 L 406 180 Q 391 178 389 174 L 389 172 Q 389 169 396 163 Q 404 156 421 156 L 440 156 Q 442 156 470 160 L 548 172 Z" fill="lightgray" />
    
      <path d="M 345 104 L 390 104 Q 396 104 438 107 Q 480 110 524 112 Q 568 114 604 117 C 634 119 633 128 606 140 L 586 149 Q 583 150 570 151 Q 559 151 532 147 Q 505 144 504 144 L 347 132 C 317 130 315 104 345 104 Z" fill="lightgray" />
    
      <path d="M 114 -70 Q 125 -68 143 -62 Q 162 -56 192 -41 Q 223 -26 236 -16 L 276 15 L 298 33 Q 310 42 320 46 Q 329 48 330 51 Q 331 53 331 55 Q 331 58 330 61 Q 328 68 322 74 Q 317 80 313 84 Q 310 88 294 100 Q 283 106 278 106 Q 274 105 272 102 Q 270 100 268 90 Q 266 81 260 73 Q 254 64 242 49 L 216 22 Q 202 9 180 -7 L 142 -32 L 106 -52 L 87 -62 Q 75 -69 75 -72 Q 76 -74 79 -75 L 81 -75 Q 86 -75 96 -73 L 114 -70 Z" fill="lightgray" />
    
      <path d="M 920 -24 Q 904 -22 880 -13 Q 856 -5 828 8 Q 800 21 777 35 Q 754 49 728 68 Q 703 88 694 94 Q 684 100 675 103 Q 666 106 656 106 Q 644 104 641 100 Q 639 97 639 94 L 639 92 Q 640 88 653 84 Q 666 80 678 71 Q 690 62 706 46 L 749 5 L 790 -36 Q 804 -50 818 -59 Q 830 -68 842 -70 L 847 -70 Q 858 -70 881 -64 Q 909 -58 916 -56 Q 922 -54 929 -51 L 946 -44 Q 951 -41 951 -37 L 951 -35 Q 950 -30 942 -28 L 920 -24 Z" fill="lightgray" />
    
      <path d="M 470 24 L 548 38 Q 567 40 574 40 Q 582 40 588 36 Q 593 33 596 28 Q 597 25 597 20 Q 597 15 596 8 L 590 -25 Q 586 -44 578 -66 Q 572 -87 563 -97 Q 555 -108 547 -108 L 545 -108 Q 539 -108 523 -101 L 498 -92 L 484 -84 Q 479 -82 476 -82 Q 473 -82 471 -84 Q 470 -85 470 -86 Q 470 -88 473 -91 L 493 -114 L 510 -136 L 526 -160 Q 538 -178 545 -179 L 548 -179 Q 555 -179 568 -171 Q 584 -162 593 -151 Q 602 -140 614 -117 Q 624 -94 630 -74 L 643 -20 Q 647 -2 651 6 Q 655 13 660 20 Q 664 26 666 28 L 666 30 Q 666 37 661 43 Q 656 50 644 59 Q 632 68 623 74 Q 615 78 608 78 Q 605 78 597 75 Q 589 72 578 70 Q 566 67 544 63 Q 521 59 498 56 Q 476 52 432 46 Q 389 39 376 38 L 348 34 Q 332 31 330 29 Q 330 26 336 20 Q 342 14 354 9 Q 366 4 372 4 Q 374 3 378 3 Q 384 3 394 6 Q 408 10 431 15 L 470 24 Z" fill="lightgray" />
    
      <path d="M 431 15 L 421 -8 Q 414 -26 393 -52 Q 372 -78 351 -95 Q 331 -111 307 -124 Q 284 -138 264 -148 L 240 -158 Q 234 -161 234 -166 L 234 -168 Q 235 -171 240 -171 Q 242 -171 245 -170 L 270 -164 Q 288 -160 316 -150 Q 342 -139 370 -122 Q 398 -106 418 -87 Q 438 -68 454 -49 Q 470 -29 479 -23 Q 488 -18 490 -15 Q 491 -13 491 -11 L 491 -8 Q 491 -4 487 1 Q 484 7 480 12 Q 477 16 470 24 C 450 47 443 43 431 15 Z" fill="lightgray" />
    
    
      <clipPath id="make-me-a-hanzi-clip-0">
        <path d="M 412 708 L 392 714 Q 380 716 370 717 Q 356 717 354 714 L 354 712 Q 354 708 358 698 Q 364 687 365 680 Q 366 672 368 644 L 378 430 C 379 400 411 402 411 432 L 410 544 L 410 569 L 410 611 L 410 636 L 412 685 C 413 708 413 708 412 708 Z" />
      </clipPath>
      <path clip-path="url(#make-me-a-hanzi-clip-0)" d="M 357 713 L 388 690 L 394 446 L 383 438" fill="none" id="make-me-a-hanzi-animation-0" stroke-dasharray="424 848" stroke-linecap="round" />
    
      <clipPath id="make-me-a-hanzi-clip-1">
        <path d="M 600 448 L 612 624 Q 612 640 616 657 Q 620 674 626 686 Q 631 697 631 702 Q 630 708 623 716 Q 615 724 600 733 Q 584 742 578 743 Q 572 743 559 739 Q 546 734 516 728 L 412 708 C 383 702 382 680 412 685 L 528 706 Q 540 708 546 708 L 550 708 Q 556 708 560 704 Q 564 700 564 689 L 564 656 L 564 630 L 563 583 L 562 558 L 558 444 C 557 414 598 418 600 448 Z" />
      </clipPath>
      <path clip-path="url(#make-me-a-hanzi-clip-1)" d="M 418 691 L 436 702 L 548 722 L 576 720 L 595 697 L 581 471 L 564 451" fill="none" id="make-me-a-hanzi-animation-1" stroke-dasharray="573 1146" stroke-linecap="round" />
    
      <clipPath id="make-me-a-hanzi-clip-2">
        <path d="M 410 611 L 446 614 L 486 618 L 523 624 Q 548 628 564 630 C 594 634 593 649 564 656 L 546 660 Q 545 661 543 661 Q 537 661 523 656 Q 504 650 480 647 L 448 642 L 410 636 C 380 631 380 609 410 611 Z" />
      </clipPath>
      <path clip-path="url(#make-me-a-hanzi-clip-2)" d="M 416 617 L 431 627 L 515 637 L 558 650" fill="none" id="make-me-a-hanzi-animation-2" stroke-dasharray="276 552" stroke-linecap="round" />
    
      <clipPath id="make-me-a-hanzi-clip-3">
        <path d="M 410 544 L 432 543 L 434 543 Q 441 543 460 547 L 495 550 L 518 554 Q 526 555 537 556 Q 549 558 562 558 C 592 558 592 577 563 583 L 537 588 L 534 588 Q 526 588 508 584 Q 485 580 466 576 Q 446 572 436 571 Q 426 570 410 569 C 380 567 380 545 410 544 Z" />
      </clipPath>
      <path clip-path="url(#make-me-a-hanzi-clip-3)" d="M 416 550 L 423 557 L 519 571 L 548 572 L 555 565" fill="none" id="make-me-a-hanzi-animation-3" stroke-dasharray="274 548" stroke-linecap="round" />
    
      <clipPath id="make-me-a-hanzi-clip-4">
        <path d="M 460 547 L 462 531 Q 463 516 464 494 Q 466 472 468 436 C 470 406 497 408 500 438 L 504 480 Q 504 497 509 510 Q 513 520 513 525 Q 513 528 512 529 Q 511 534 506 539 Q 502 544 495 550 C 473 570 456 577 460 547 Z" />
      </clipPath>
      <path clip-path="url(#make-me-a-hanzi-clip-4)" d="M 466 544 L 487 522 L 483 452 L 473 445" fill="none" id="make-me-a-hanzi-animation-4" stroke-dasharray="241 482" stroke-linecap="round" />
    
      <clipPath id="make-me-a-hanzi-clip-5">
        <path d="M 248 637 L 268 648 L 294 661 Q 311 670 322 672 Q 333 675 335 678 L 337 682 L 337 684 Q 337 690 332 698 Q 325 706 315 714 Q 305 722 298 725 Q 291 728 287 728 Q 285 728 284 727 Q 280 724 276 711 Q 272 698 264 685 Q 254 672 240 649 C 225 624 225 624 248 637 Z" />
      </clipPath>
      <path clip-path="url(#make-me-a-hanzi-clip-5)" d="M 330 683 L 298 693 L 249 647" fill="none" id="make-me-a-hanzi-animation-5" stroke-dasharray="229 458" stroke-linecap="round" />
    
      <clipPath id="make-me-a-hanzi-clip-6">
        <path d="M 268 424 L 266 476 L 262 501 L 259 547 L 255 574 L 254 594 L 251 610 Q 249 625 248 637 C 247 645 247 645 240 649 L 227 656 Q 224 656 206 659 L 199 659 Q 190 659 188 657 Q 187 656 187 654 Q 187 652 188 649 Q 190 644 198 633 Q 206 622 210 603 Q 216 584 218 562 L 232 422 C 235 392 269 394 268 424 Z" />
      </clipPath>
      <path clip-path="url(#make-me-a-hanzi-clip-6)" d="M 194 653 L 226 628 L 238 565 L 249 441 L 262 430" fill="none" id="make-me-a-hanzi-animation-6" stroke-dasharray="374 748" stroke-linecap="round" />
    
      <clipPath id="make-me-a-hanzi-clip-7">
        <path d="M 259 547 L 271 550 L 291 557 L 311 562 L 333 570 Q 340 573 344 578 Q 347 582 347 586 L 347 588 Q 346 592 336 594 Q 328 597 320 598 Q 312 598 310 596 Q 306 596 298 592 Q 290 588 280 584 L 255 574 C 227 563 230 540 259 547 Z" />
      </clipPath>
      <path clip-path="url(#make-me-a-hanzi-clip-7)" d="M 263 555 L 279 569 L 339 587" fill="none" id="make-me-a-hanzi-animation-7" stroke-dasharray="212 424" stroke-linecap="round" />
    
      <clipPath id="make-me-a-hanzi-clip-8">
        <path d="M 266 476 L 302 484 Q 320 486 336 492 Q 352 498 353 504 L 353 506 Q 353 511 348 515 Q 342 519 332 520 Q 320 520 315 518 Q 310 518 294 511 Q 278 505 262 501 C 233 494 237 469 266 476 Z" />
      </clipPath>
      <path clip-path="url(#make-me-a-hanzi-clip-8)" d="M 271 483 L 277 492 L 346 505" fill="none" id="make-me-a-hanzi-animation-8" stroke-dasharray="209 418" stroke-linecap="round" />
    
      <clipPath id="make-me-a-hanzi-clip-9">
        <path d="M 758 467 L 787 592 Q 792 616 794 623 Q 796 629 804 643 Q 811 657 818 666 Q 824 676 824 682 Q 824 688 814 695 Q 804 702 785 709 Q 766 717 762 717 Q 758 716 748 712 Q 738 708 716 702 Q 694 696 690 696 L 656 692 Q 646 690 646 688 L 646 680 Q 648 674 660 670 Q 673 666 679 666 Q 682 666 704 672 L 721 676 Q 734 680 739 680 Q 744 679 749 675 Q 753 673 753 665 Q 753 661 752 657 L 746 622 L 743 592 L 734 546 L 730 520 L 720 462 C 715 432 751 438 758 467 Z" />
      </clipPath>
      <path clip-path="url(#make-me-a-hanzi-clip-9)" d="M 653 684 L 692 681 L 739 695 L 762 694 L 784 674 L 743 484 L 726 469" fill="none" id="make-me-a-hanzi-animation-9" stroke-dasharray="486 972" stroke-linecap="round" />
    
      <clipPath id="make-me-a-hanzi-clip-10">
        <path d="M 746 622 L 661 607 L 641 604 Q 638 602 637 598 L 637 597 Q 637 595 642 592 Q 650 588 662 587 L 670 587 Q 677 587 683 588 L 743 592 C 773 594 776 627 746 622 Z" />
      </clipPath>
      <path clip-path="url(#make-me-a-hanzi-clip-10)" d="M 643 598 L 720 603 L 740 615" fill="none" id="make-me-a-hanzi-animation-10" stroke-dasharray="228 456" stroke-linecap="round" />
    
      <clipPath id="make-me-a-hanzi-clip-11">
        <path d="M 734 546 L 653 536 Q 638 534 634 533 Q 630 532 630 530 L 630 528 Q 630 525 637 521 Q 646 516 654 514 L 676 514 L 730 520 C 760 523 764 550 734 546 Z" />
      </clipPath>
      <path clip-path="url(#make-me-a-hanzi-clip-11)" d="M 634 529 L 708 529 L 728 540" fill="none" id="make-me-a-hanzi-animation-11" stroke-dasharray="225 450" stroke-linecap="round" />
    
      <clipPath id="make-me-a-hanzi-clip-12">
        <path d="M 178 422 L 161 458 Q 160 459 158 460 Q 156 462 154 462 Q 151 462 148 460 L 141 431 L 111 332 Q 109 327 109 320 Q 109 316 110 310 Q 110 296 118 286 Q 124 276 132 276 Q 139 278 145 287 Q 151 296 157 312 Q 162 328 166 338 Q 168 350 171 360 Q 174 371 177 384 L 178 422 Z" />
      </clipPath>
      <path clip-path="url(#make-me-a-hanzi-clip-12)" d="M 153 455 L 158 416 L 134 322 L 131 286" fill="none" id="make-me-a-hanzi-animation-12" stroke-dasharray="300 600" stroke-linecap="round" />
    
      <clipPath id="make-me-a-hanzi-clip-13">
        <path d="M 232 422 L 216 423 L 204 422 L 178 422 C 148 422 147 387 177 384 L 212 380 L 219 380 Q 231 380 259 384 L 316 394 Q 328 396 370 399 Q 411 402 468 408 Q 524 414 558 417 L 675 425 Q 741 430 764 430 L 794 430 Q 802 430 807 425 Q 808 424 808 422 Q 808 415 797 401 L 754 346 Q 748 340 748 336 L 748 335 Q 749 334 752 334 Q 756 334 764 336 L 805 352 Q 829 360 862 366 Q 894 372 900 375 L 910 380 Q 914 384 916 387 Q 917 390 917 397 Q 916 404 902 420 Q 888 436 878 444 Q 868 453 853 464 Q 838 476 830 476 L 818 476 L 795 471 Q 783 468 758 467 L 720 462 L 669 455 Q 648 452 633 451 Q 618 450 600 448 L 558 444 L 500 438 L 468 436 L 411 432 L 378 430 L 268 424 L 232 422 Z" />
      </clipPath>
      <path clip-path="url(#make-me-a-hanzi-clip-13)" d="M 185 415 L 198 402 L 233 401 L 741 448 L 826 447 L 851 409 L 750 336" fill="none" id="make-me-a-hanzi-animation-13" stroke-dasharray="947 1894" stroke-linecap="round" />
    
      <clipPath id="make-me-a-hanzi-clip-14">
        <path d="M 534 344 L 560 348 L 615 354 Q 634 356 638 358 L 672 362 Q 678 363 680 366 Q 683 370 683 372 Q 682 374 677 378 Q 672 381 660 384 Q 650 388 636 388 Q 626 388 606 385 Q 586 381 551 376 Q 517 372 483 367 Q 448 362 418 360 L 343 353 L 297 348 Q 278 346 277 340 L 277 339 Q 277 335 288 329 Q 298 324 313 324 L 318 324 L 354 327 L 389 329 Q 396 330 413 332 L 434 332 L 475 338 Q 479 338 506 342 L 534 344 Z" />
      </clipPath>
      <path clip-path="url(#make-me-a-hanzi-clip-14)" d="M 282 340 L 347 339 L 617 371 L 677 372" fill="none" id="make-me-a-hanzi-animation-14" stroke-dasharray="525 1050" stroke-linecap="round" />
    
      <clipPath id="make-me-a-hanzi-clip-15">
        <path d="M 318 268 L 302 275 Q 292 278 285 279 Q 274 279 272 275 L 272 273 Q 272 268 278 260 L 285 251 Q 287 248 293 231 Q 300 214 300 210 L 313 135 Q 316 114 318 110 L 322 102 Q 324 100 328 98 Q 332 96 335 96 Q 336 96 339 97 Q 341 98 345 104 C 350 110 350 110 347 132 L 340 186 L 337 197 L 330 246 C 327 264 327 264 318 268 Z" />
      </clipPath>
      <path clip-path="url(#make-me-a-hanzi-clip-15)" d="M 279 274 L 300 259 L 312 237 L 334 107" fill="none" id="make-me-a-hanzi-animation-15" stroke-dasharray="311 622" stroke-linecap="round" />
    
      <clipPath id="make-me-a-hanzi-clip-16">
        <path d="M 410 275 L 378 272 L 340 271 Q 332 270 318 268 C 288 264 300 244 330 246 L 368 248 Q 374 248 405 251 L 440 254 L 479 260 Q 482 260 502 262 L 532 267 L 554 270 L 586 274 Q 601 275 609 275 L 617 275 Q 628 272 632 267 Q 635 264 635 258 Q 635 255 634 252 Q 634 242 631 228 L 626 199 L 620 174 Q 618 166 606 140 C 598 123 598 123 604 117 L 612 107 Q 613 105 618 104 L 620 104 Q 627 104 634 112 Q 642 122 648 136 L 679 222 L 688 244 Q 694 252 699 260 Q 704 267 704 271 L 704 272 Q 704 274 700 279 Q 697 283 688 289 Q 680 295 672 299 Q 664 302 652 307 Q 639 312 634 312 Q 626 312 611 308 Q 596 304 576 301 Q 556 298 534 294 L 503 288 L 444 279 L 410 275 Z" />
      </clipPath>
      <path clip-path="url(#make-me-a-hanzi-clip-16)" d="M 325 265 L 337 258 L 395 261 L 621 293 L 649 284 L 666 266 L 619 114" fill="none" id="make-me-a-hanzi-animation-16" stroke-dasharray="641 1282" stroke-linecap="round" />
    
      <clipPath id="make-me-a-hanzi-clip-17">
        <path d="M 413 332 L 412 304 Q 412 299 410 275 L 405 251 L 395 236 Q 392 232 382 222 Q 372 213 362 208 Q 352 202 337 197 C 309 187 311 179 340 186 L 358 190 Q 368 192 384 198 Q 398 204 409 213 Q 420 222 427 231 Q 434 241 440 254 L 444 279 L 446 300 L 449 316 Q 448 322 434 332 C 414 347 414 347 413 332 Z" />
      </clipPath>
      <path clip-path="url(#make-me-a-hanzi-clip-17)" d="M 418 325 L 430 313 L 419 244 L 395 218 L 343 193" fill="none" id="make-me-a-hanzi-animation-17" stroke-dasharray="308 616" stroke-linecap="round" />
    
      <clipPath id="make-me-a-hanzi-clip-18">
        <path d="M 534 294 L 538 310 L 544 329 Q 542 334 534 344 C 516 368 507 372 506 342 L 505 316 Q 504 310 503 288 L 502 262 L 503 248 L 503 239 Q 504 233 509 226 Q 515 220 526 213 Q 536 206 560 203 Q 584 200 596 199 L 626 199 C 656 199 661 228 631 228 L 605 228 Q 580 228 559 231 Q 538 234 534 243 Q 531 249 531 258 Q 531 262 532 267 L 534 294 Z" />
      </clipPath>
      <path clip-path="url(#make-me-a-hanzi-clip-18)" d="M 514 335 L 523 325 L 516 268 L 522 234 L 536 223 L 569 215 L 614 214 L 625 222" fill="none" id="make-me-a-hanzi-animation-18" stroke-dasharray="344 688" stroke-linecap="round" />
    
      <clipPath id="make-me-a-hanzi-clip-19">
        <path d="M 548 172 Q 550 172 554 174 Q 557 176 558 178 Q 559 179 559 182 L 559 185 Q 558 190 543 192 Q 529 194 522 194 Q 515 194 499 192 L 465 187 Q 438 182 432 182 L 406 180 Q 391 178 389 174 L 389 172 Q 389 169 396 163 Q 404 156 421 156 L 440 156 Q 442 156 470 160 L 548 172 Z" />
      </clipPath>
      <path clip-path="url(#make-me-a-hanzi-clip-19)" d="M 393 173 L 458 170 L 553 184" fill="none" id="make-me-a-hanzi-animation-19" stroke-dasharray="289 578" stroke-linecap="round" />
    
      <clipPath id="make-me-a-hanzi-clip-20">
        <path d="M 345 104 L 390 104 Q 396 104 438 107 Q 480 110 524 112 Q 568 114 604 117 C 634 119 633 128 606 140 L 586 149 Q 583 150 570 151 Q 559 151 532 147 Q 505 144 504 144 L 347 132 C 317 130 315 104 345 104 Z" />
      </clipPath>
      <path clip-path="url(#make-me-a-hanzi-clip-20)" d="M 353 111 L 361 119 L 523 131 L 580 133 L 597 123" fill="none" id="make-me-a-hanzi-animation-20" stroke-dasharray="379 758" stroke-linecap="round" />
    
      <clipPath id="make-me-a-hanzi-clip-21">
        <path d="M 114 -70 Q 125 -68 143 -62 Q 162 -56 192 -41 Q 223 -26 236 -16 L 276 15 L 298 33 Q 310 42 320 46 Q 329 48 330 51 Q 331 53 331 55 Q 331 58 330 61 Q 328 68 322 74 Q 317 80 313 84 Q 310 88 294 100 Q 283 106 278 106 Q 274 105 272 102 Q 270 100 268 90 Q 266 81 260 73 Q 254 64 242 49 L 216 22 Q 202 9 180 -7 L 142 -32 L 106 -52 L 87 -62 Q 75 -69 75 -72 Q 76 -74 79 -75 L 81 -75 Q 86 -75 96 -73 L 114 -70 Z" />
      </clipPath>
      <path clip-path="url(#make-me-a-hanzi-clip-21)" d="M 279 97 L 290 64 L 221 -2 L 154 -43 L 80 -69" fill="none" id="make-me-a-hanzi-animation-21" stroke-dasharray="415 830" stroke-linecap="round" />
    
      <clipPath id="make-me-a-hanzi-clip-22">
        <path d="M 920 -24 Q 904 -22 880 -13 Q 856 -5 828 8 Q 800 21 777 35 Q 754 49 728 68 Q 703 88 694 94 Q 684 100 675 103 Q 666 106 656 106 Q 644 104 641 100 Q 639 97 639 94 L 639 92 Q 640 88 653 84 Q 666 80 678 71 Q 690 62 706 46 L 749 5 L 790 -36 Q 804 -50 818 -59 Q 830 -68 842 -70 L 847 -70 Q 858 -70 881 -64 Q 909 -58 916 -56 Q 922 -54 929 -51 L 946 -44 Q 951 -41 951 -37 L 951 -35 Q 950 -30 942 -28 L 920 -24 Z" />
      </clipPath>
      <path clip-path="url(#make-me-a-hanzi-clip-22)" d="M 644 93 L 660 94 L 683 85 L 780 6 L 841 -34 L 884 -40 L 943 -36" fill="none" id="make-me-a-hanzi-animation-22" stroke-dasharray="469 938" stroke-linecap="round" />
    
      <clipPath id="make-me-a-hanzi-clip-23">
        <path d="M 470 24 L 548 38 Q 567 40 574 40 Q 582 40 588 36 Q 593 33 596 28 Q 597 25 597 20 Q 597 15 596 8 L 590 -25 Q 586 -44 578 -66 Q 572 -87 563 -97 Q 555 -108 547 -108 L 545 -108 Q 539 -108 523 -101 L 498 -92 L 484 -84 Q 479 -82 476 -82 Q 473 -82 471 -84 Q 470 -85 470 -86 Q 470 -88 473 -91 L 493 -114 L 510 -136 L 526 -160 Q 538 -178 545 -179 L 548 -179 Q 555 -179 568 -171 Q 584 -162 593 -151 Q 602 -140 614 -117 Q 624 -94 630 -74 L 643 -20 Q 647 -2 651 6 Q 655 13 660 20 Q 664 26 666 28 L 666 30 Q 666 37 661 43 Q 656 50 644 59 Q 632 68 623 74 Q 615 78 608 78 Q 605 78 597 75 Q 589 72 578 70 Q 566 67 544 63 Q 521 59 498 56 Q 476 52 432 46 Q 389 39 376 38 L 348 34 Q 332 31 330 29 Q 330 26 336 20 Q 342 14 354 9 Q 366 4 372 4 Q 374 3 378 3 Q 384 3 394 6 Q 408 10 431 15 L 470 24 Z" />
      </clipPath>
      <path clip-path="url(#make-me-a-hanzi-clip-23)" d="M 335 26 L 385 21 L 577 55 L 609 52 L 622 41 L 628 31 L 604 -73 L 587 -111 L 568 -134 L 553 -141 L 546 -138 L 474 -87" fill="none" id="make-me-a-hanzi-animation-23" stroke-dasharray="725 1450" stroke-linecap="round" />
    
      <clipPath id="make-me-a-hanzi-clip-24">
        <path d="M 431 15 L 421 -8 Q 414 -26 393 -52 Q 372 -78 351 -95 Q 331 -111 307 -124 Q 284 -138 264 -148 L 240 -158 Q 234 -161 234 -166 L 234 -168 Q 235 -171 240 -171 Q 242 -171 245 -170 L 270 -164 Q 288 -160 316 -150 Q 342 -139 370 -122 Q 398 -106 418 -87 Q 438 -68 454 -49 Q 470 -29 479 -23 Q 488 -18 490 -15 Q 491 -13 491 -11 L 491 -8 Q 491 -4 487 1 Q 484 7 480 12 Q 477 16 470 24 C 450 47 443 43 431 15 Z" />
      </clipPath>
      <path clip-path="url(#make-me-a-hanzi-clip-24)" d="M 478 -10 L 465 -5 L 451 -9 L 400 -77 L 355 -113 L 305 -141 L 238 -167" fill="none" id="make-me-a-hanzi-animation-24" stroke-dasharray="428 856" stroke-linecap="round" />
    
  </g>
</svg>