<svg xmlns="http://www.w3.org/2000/svg" version="1.1" viewBox="0 0 1024 1024">
  <g stroke="lightgray" stroke-dasharray="1,1" stroke-width="1" transform="scale(4, 4)">
    <line x1="0" y1="0" x2="256" y2="256" />
    <line x1="256" y1="0" x2="0" y2="256" />
    <line x1="128" y1="0" x2="128" y2="256" />
    <line x1="0" y1="128" x2="256" y2="128" />
  </g>
  <g transform="scale(1.0, -1.0) translate(0.0, -808.00)">
    <style type="text/css">
      
        @keyframes keyframes0 {
          from {
            stroke: blue;
            stroke-dashoffset: 814;
            stroke-width: 128;
          }
          73% {
            animation-timing-function: step-end;
            stroke: blue;
            stroke-dashoffset: 0;
            stroke-width: 128;
          }
          to {
            stroke: black;
            stroke-width: 1024;
          }
        }
        #make-me-a-hanzi-animation-0 {
          animation: keyframes0 0.9124348958333334s both;
          animation-delay: 0s;
          animation-timing-function: linear;
        }
      
        @keyframes keyframes1 {
          from {
            stroke: blue;
            stroke-dashoffset: 384;
            stroke-width: 128;
          }
          56% {
            animation-timing-function: step-end;
            stroke: blue;
            stroke-dashoffset: 0;
            stroke-width: 128;
          }
          to {
            stroke: black;
            stroke-width: 1024;
          }
        }
        #make-me-a-hanzi-animation-1 {
          animation: keyframes1 0.5625s both;
          animation-delay: 0.9124348958333334s;
          animation-timing-function: linear;
        }
      
        @keyframes keyframes2 {
          from {
            stroke: blue;
            stroke-dashoffset: 444;
            stroke-width: 128;
          }
          59% {
            animation-timing-function: step-end;
            stroke: blue;
            stroke-dashoffset: 0;
            stroke-width: 128;
          }
          to {
            stroke: black;
            stroke-width: 1024;
          }
        }
        #make-me-a-hanzi-animation-2 {
          animation: keyframes2 0.611328125s both;
          animation-delay: 1.4749348958333335s;
          animation-timing-function: linear;
        }
      
        @keyframes keyframes3 {
          from {
            stroke: blue;
            stroke-dashoffset: 524;
            stroke-width: 128;
          }
          63% {
            animation-timing-function: step-end;
            stroke: blue;
            stroke-dashoffset: 0;
            stroke-width: 128;
          }
          to {
            stroke: black;
            stroke-width: 1024;
          }
        }
        #make-me-a-hanzi-animation-3 {
          animation: keyframes3 0.6764322916666666s both;
          animation-delay: 2.0862630208333335s;
          animation-timing-function: linear;
        }
      
        @keyframes keyframes4 {
          from {
            stroke: blue;
            stroke-dashoffset: 547;
            stroke-width: 128;
          }
          64% {
            animation-timing-function: step-end;
            stroke: blue;
            stroke-dashoffset: 0;
            stroke-width: 128;
          }
          to {
            stroke: black;
            stroke-width: 1024;
          }
        }
        #make-me-a-hanzi-animation-4 {
          animation: keyframes4 0.6951497395833334s both;
          animation-delay: 2.7626953125s;
          animation-timing-function: linear;
        }
      
        @keyframes keyframes5 {
          from {
            stroke: blue;
            stroke-dashoffset: 360;
            stroke-width: 128;
          }
          54% {
            animation-timing-function: step-end;
            stroke: blue;
            stroke-dashoffset: 0;
            stroke-width: 128;
          }
          to {
            stroke: black;
            stroke-width: 1024;
          }
        }
        #make-me-a-hanzi-animation-5 {
          animation: keyframes5 0.54296875s both;
          animation-delay: 3.4578450520833335s;
          animation-timing-function: linear;
        }
      
        @keyframes keyframes6 {
          from {
            stroke: blue;
            stroke-dashoffset: 384;
            stroke-width: 128;
          }
          56% {
            animation-timing-function: step-end;
            stroke: blue;
            stroke-dashoffset: 0;
            stroke-width: 128;
          }
          to {
            stroke: black;
            stroke-width: 1024;
          }
        }
        #make-me-a-hanzi-animation-6 {
          animation: keyframes6 0.5625s both;
          animation-delay: 4.000813802083334s;
          animation-timing-function: linear;
        }
      
        @keyframes keyframes7 {
          from {
            stroke: blue;
            stroke-dashoffset: 614;
            stroke-width: 128;
          }
          67% {
            animation-timing-function: step-end;
            stroke: blue;
            stroke-dashoffset: 0;
            stroke-width: 128;
          }
          to {
            stroke: black;
            stroke-width: 1024;
          }
        }
        #make-me-a-hanzi-animation-7 {
          animation: keyframes7 0.7496744791666666s both;
          animation-delay: 4.563313802083334s;
          animation-timing-function: linear;
        }
      
        @keyframes keyframes8 {
          from {
            stroke: blue;
            stroke-dashoffset: 384;
            stroke-width: 128;
          }
          56% {
            animation-timing-function: step-end;
            stroke: blue;
            stroke-dashoffset: 0;
            stroke-width: 128;
          }
          to {
            stroke: black;
            stroke-width: 1024;
          }
        }
        #make-me-a-hanzi-animation-8 {
          animation: keyframes8 0.5625s both;
          animation-delay: 5.312988281250001s;
          animation-timing-function: linear;
        }
      
        @keyframes keyframes9 {
          from {
            stroke: blue;
            stroke-dashoffset: 453;
            stroke-width: 128;
          }
          60% {
            animation-timing-function: step-end;
            stroke: blue;
            stroke-dashoffset: 0;
            stroke-width: 128;
          }
          to {
            stroke: black;
            stroke-width: 1024;
          }
        }
        #make-me-a-hanzi-animation-9 {
          animation: keyframes9 0.61865234375s both;
          animation-delay: 5.875488281250001s;
          animation-timing-function: linear;
        }
      
        @keyframes keyframes10 {
          from {
            stroke: blue;
            stroke-dashoffset: 589;
            stroke-width: 128;
          }
          66% {
            animation-timing-function: step-end;
            stroke: blue;
            stroke-dashoffset: 0;
            stroke-width: 128;
          }
          to {
            stroke: black;
            stroke-width: 1024;
          }
        }
        #make-me-a-hanzi-animation-10 {
          animation: keyframes10 0.7293294270833334s both;
          animation-delay: 6.494140625000001s;
          animation-timing-function: linear;
        }
      
        @keyframes keyframes11 {
          from {
            stroke: blue;
            stroke-dashoffset: 548;
            stroke-width: 128;
          }
          64% {
            animation-timing-function: step-end;
            stroke: blue;
            stroke-dashoffset: 0;
            stroke-width: 128;
          }
          to {
            stroke: black;
            stroke-width: 1024;
          }
        }
        #make-me-a-hanzi-animation-11 {
          animation: keyframes11 0.6959635416666666s both;
          animation-delay: 7.223470052083334s;
          animation-timing-function: linear;
        }
      
        @keyframes keyframes12 {
          from {
            stroke: blue;
            stroke-dashoffset: 456;
            stroke-width: 128;
          }
          60% {
            animation-timing-function: step-end;
            stroke: blue;
            stroke-dashoffset: 0;
            stroke-width: 128;
          }
          to {
            stroke: black;
            stroke-width: 1024;
          }
        }
        #make-me-a-hanzi-animation-12 {
          animation: keyframes12 0.62109375s both;
          animation-delay: 7.919433593750001s;
          animation-timing-function: linear;
        }
      
        @keyframes keyframes13 {
          from {
            stroke: blue;
            stroke-dashoffset: 635;
            stroke-width: 128;
          }
          67% {
            animation-timing-function: step-end;
            stroke: blue;
            stroke-dashoffset: 0;
            stroke-width: 128;
          }
          to {
            stroke: black;
            stroke-width: 1024;
          }
        }
        #make-me-a-hanzi-animation-13 {
          animation: keyframes13 0.7667643229166666s both;
          animation-delay: 8.54052734375s;
          animation-timing-function: linear;
        }
      
        @keyframes keyframes14 {
          from {
            stroke: blue;
            stroke-dashoffset: 735;
            stroke-width: 128;
          }
          71% {
            animation-timing-function: step-end;
            stroke: blue;
            stroke-dashoffset: 0;
            stroke-width: 128;
          }
          to {
            stroke: black;
            stroke-width: 1024;
          }
        }
        #make-me-a-hanzi-animation-14 {
          animation: keyframes14 0.84814453125s both;
          animation-delay: 9.307291666666666s;
          animation-timing-function: linear;
        }
      
        @keyframes keyframes15 {
          from {
            stroke: blue;
            stroke-dashoffset: 723;
            stroke-width: 128;
          }
          70% {
            animation-timing-function: step-end;
            stroke: blue;
            stroke-dashoffset: 0;
            stroke-width: 128;
          }
          to {
            stroke: black;
            stroke-width: 1024;
          }
        }
        #make-me-a-hanzi-animation-15 {
          animation: keyframes15 0.83837890625s both;
          animation-delay: 10.155436197916666s;
          animation-timing-function: linear;
        }
      
        @keyframes keyframes16 {
          from {
            stroke: blue;
            stroke-dashoffset: 488;
            stroke-width: 128;
          }
          61% {
            animation-timing-function: step-end;
            stroke: blue;
            stroke-dashoffset: 0;
            stroke-width: 128;
          }
          to {
            stroke: black;
            stroke-width: 1024;
          }
        }
        #make-me-a-hanzi-animation-16 {
          animation: keyframes16 0.6471354166666666s both;
          animation-delay: 10.993815104166666s;
          animation-timing-function: linear;
        }
      
    </style>
    
      <path d="M 252 362 L 274 396 Q 280 406 296 437 Q 312 468 319 483 Q 326 498 336 522 Q 346 544 352 556 L 362 580 L 366 590 Q 368 594 372 600 Q 376 607 382 614 Q 387 620 388 624 L 388 626 Q 388 630 384 637 Q 380 645 374 651 Q 367 658 358 664 Q 348 672 340 675 Q 332 679 325 679 Q 319 678 316 676 Q 314 673 314 666 L 316 641 Q 316 632 310 610 Q 304 588 301 575 Q 297 562 283 526 Q 270 491 260 472 Q 252 454 225 408 L 188 344 Q 177 326 162 306 L 127 258 Q 106 230 97 221 L 88 212 Q 81 205 81 200 Q 81 198 82 196 Q 83 194 86 194 Q 91 194 101 201 L 114 210 Q 124 217 146 236 Q 167 254 190 280 Q 213 304 224 319 Q 234 334 240 342 L 252 362 Z" fill="lightgray" />
    
      <path d="M 352 556 L 360 544 Q 362 542 384 518 L 413 485 Q 422 476 430 470 Q 437 465 444 465 L 446 465 Q 454 466 460 476 Q 467 486 467 499 Q 466 512 462 522 Q 456 532 445 540 Q 434 549 410 560 Q 388 570 380 573 L 362 580 C 334 591 335 581 352 556 Z" fill="lightgray" />
    
      <path d="M 240 342 L 248 338 Q 252 336 262 334 Q 272 332 278 331 Q 284 331 296 332 L 351 345 L 404 358 L 422 362 Q 432 365 436 368 Q 441 372 441 377 L 441 378 Q 440 383 430 389 Q 421 394 410 398 Q 402 401 397 401 L 394 401 Q 391 400 380 396 L 360 388 L 346 383 Q 334 378 296 370 L 272 366 Q 266 364 252 362 C 222 357 213 355 240 342 Z" fill="lightgray" />
    
      <path d="M 308 256 L 282 251 L 256 245 L 210 237 Q 198 234 190 234 Q 182 232 180 230 Q 178 226 178 222 Q 179 218 188 214 Q 197 210 210 206 Q 224 203 231 203 Q 238 204 256 208 L 308 218 L 357 230 L 434 246 Q 440 246 446 248 Q 452 251 456 254 Q 460 257 460 262 Q 460 266 454 270 Q 448 274 436 277 L 422 281 Q 412 283 405 283 L 400 283 Q 393 282 381 278 L 370 274 L 358 270 L 308 256 Z" fill="lightgray" />
    
      <path d="M 296 332 L 302 314 Q 304 306 306 292 Q 308 280 308 268 L 308 256 L 308 218 L 310 52 C 310 22 351 34 352 64 L 357 230 L 358 270 L 359 287 Q 360 302 363 314 Q 366 324 366 328 L 366 330 Q 366 334 351 345 C 327 363 287 360 296 332 Z" fill="lightgray" />
    
      <path d="M 184 153 Q 183 152 183 150 Q 183 147 185 142 Q 188 134 196 119 Q 204 104 214 90 Q 223 76 230 69 Q 241 56 250 56 L 252 56 Q 260 57 267 69 Q 272 78 272 92 L 272 96 Q 270 112 265 120 Q 260 129 251 134 Q 243 140 236 143 Q 229 146 217 150 Q 204 154 202 156 Q 195 158 192 158 Q 189 158 188 157 Q 184 154 184 153 Z" fill="lightgray" />
    
      <path d="M 398 104 Q 402 106 413 118 L 434 136 Q 444 144 450 148 L 460 154 Q 464 156 466 159 L 466 161 Q 466 164 464 168 Q 462 173 456 179 Q 450 185 442 191 Q 434 197 424 201 Q 417 203 413 203 L 411 203 Q 407 201 405 199 Q 404 196 403 184 Q 402 172 396 154 Q 390 136 388 132 L 380 117 L 371 98 Q 369 93 369 90 Q 369 88 370 86 Q 371 85 372 85 Q 375 85 382 90 L 398 104 Z" fill="lightgray" />
    
      <path d="M 310 52 L 214 26 Q 208 25 192 23 Q 176 22 172 22 L 156 22 Q 145 22 137 23 Q 130 24 126 24 Q 118 23 116 18 Q 115 16 115 14 Q 115 11 117 6 Q 120 -1 131 -12 L 146 -27 Q 152 -32 166 -42 Q 180 -52 186 -52 Q 192 -52 200 -47 L 212 -37 Q 215 -35 235 -24 Q 254 -12 258 -11 L 460 74 Q 471 78 471 85 Q 471 87 470 89 Q 467 97 460 97 Q 456 97 452 95 L 352 64 L 310 52 Z" fill="lightgray" />
    
      <path d="M 532 647 L 529 647 Q 522 647 522 642 L 526 634 L 534 618 Q 536 612 544 599 L 561 572 Q 570 559 581 546 Q 592 532 604 529 Q 610 527 616 527 Q 623 527 628 530 Q 638 536 640 550 Q 641 555 641 559 Q 641 568 638 577 Q 634 590 626 601 Q 619 612 608 620 Q 596 629 583 634 L 562 640 Q 548 644 544 646 L 532 647 Z" fill="lightgray" />
    
      <path d="M 730 554 L 756 574 Q 776 590 780 594 L 816 627 Q 826 636 836 642 Q 846 647 848 650 Q 849 652 849 655 Q 849 659 846 665 Q 842 674 830 684 Q 818 693 806 699 Q 795 705 782 705 Q 776 704 774 703 Q 772 701 771 690 Q 771 678 765 664 Q 760 649 749 629 Q 738 608 727 591 L 714 572 L 700 548 Q 697 543 697 540 L 697 539 Q 698 536 704 536 L 718 546 L 730 554 Z" fill="lightgray" />
    
      <path d="M 691 462 L 736 469 L 788 477 Q 807 480 822 484 L 844 490 Q 852 492 853 498 L 853 499 Q 853 505 842 512 Q 829 520 818 524 Q 806 527 798 527 Q 790 526 772 521 Q 754 516 723 509 L 659 495 Q 654 494 606 486 Q 558 479 549 478 L 520 476 Q 510 474 508 470 Q 508 467 512 462 Q 517 458 526 454 Q 534 450 551 449 Q 560 448 567 448 Q 575 448 581 449 L 634 455 L 691 462 Z" fill="lightgray" />
    
      <path d="M 694 345 L 734 352 L 784 360 L 826 369 Q 836 371 836 375 L 836 377 Q 836 381 833 385 Q 829 390 817 394 L 792 402 Q 782 405 772 405 L 766 405 L 732 398 L 696 391 L 644 380 L 554 367 Q 536 364 535 358 L 535 357 Q 535 351 542 344 Q 550 336 566 334 Q 582 332 593 332 L 616 335 L 645 338 L 694 345 Z" fill="lightgray" />
    
      <path d="M 690 270 L 694 345 L 696 391 L 696 405 Q 696 412 700 424 Q 703 435 703 441 L 703 444 Q 702 450 691 462 C 671 485 626 484 634 455 L 640 433 Q 640 431 642 414 Q 644 397 644 391 L 644 380 L 645 338 L 645 264 C 645 234 688 240 690 270 Z" fill="lightgray" />
    
      <path d="M 684 232 L 720 236 L 833 242 L 864 244 Q 879 246 881 251 L 881 254 Q 881 257 880 260 Q 878 264 870 270 L 856 280 Q 847 286 839 289 Q 832 292 824 292 Q 819 292 805 289 L 766 282 L 728 276 L 690 270 L 645 264 L 574 253 Q 558 250 531 248 L 502 244 Q 498 244 496 242 Q 494 241 494 238 Q 494 236 495 233 Q 496 226 511 221 Q 525 216 532 214 Q 536 213 541 213 L 547 213 Q 552 213 560 214 L 582 218 Q 597 221 627 225 L 684 232 Z" fill="lightgray" />
    
      <path d="M 676 111 L 740 118 L 936 129 Q 945 130 948 133 Q 951 135 951 139 L 951 140 Q 950 144 944 148 Q 937 154 926 160 Q 914 166 902 170 Q 890 174 878 175 L 840 170 L 686 148 L 627 142 L 478 125 Q 460 122 460 117 Q 460 111 466 107 Q 472 102 489 96 Q 506 89 508 89 Q 511 88 515 88 Q 522 88 534 91 Q 552 95 572 98 Q 591 100 616 104 L 676 111 Z" fill="lightgray" />
    
      <path d="M 616 104 L 604 74 Q 598 56 580 32 Q 562 8 535 -14 Q 509 -36 487 -51 Q 465 -65 449 -72 Q 432 -80 412 -88 L 402 -92 Q 396 -95 396 -98 Q 396 -99 397 -100 Q 399 -103 402 -103 Q 404 -103 406 -102 L 420 -101 Q 427 -100 458 -94 Q 488 -86 516 -77 Q 544 -67 573 -44 Q 602 -22 624 8 Q 646 38 656 62 L 676 111 L 686 148 L 690 159 Q 694 178 696 183 Q 699 188 704 195 Q 708 202 709 204 L 709 206 Q 709 212 702 218 Q 694 225 684 232 C 660 250 622 255 627 225 L 631 203 Q 633 197 633 189 Q 633 181 631 171 L 627 142 L 616 104 Z" fill="lightgray" />
    
      <path d="M 750 40 L 766 22 L 790 -2 Q 802 -13 822 -38 L 850 -70 Q 857 -78 869 -90 Q 882 -103 888 -106 Q 899 -113 906 -113 Q 909 -113 912 -112 Q 920 -108 925 -98 Q 928 -92 928 -84 Q 928 -77 926 -69 Q 924 -51 916 -36 Q 908 -22 893 -8 Q 879 6 862 17 Q 845 28 827 36 Q 808 45 789 52 Q 770 58 758 61 L 742 64 L 740 64 Q 736 64 734 61 Q 733 60 733 58 Q 733 56 736 52 L 750 40 Z" fill="lightgray" />
    
    
      <clipPath id="make-me-a-hanzi-clip-0">
        <path d="M 252 362 L 274 396 Q 280 406 296 437 Q 312 468 319 483 Q 326 498 336 522 Q 346 544 352 556 L 362 580 L 366 590 Q 368 594 372 600 Q 376 607 382 614 Q 387 620 388 624 L 388 626 Q 388 630 384 637 Q 380 645 374 651 Q 367 658 358 664 Q 348 672 340 675 Q 332 679 325 679 Q 319 678 316 676 Q 314 673 314 666 L 316 641 Q 316 632 310 610 Q 304 588 301 575 Q 297 562 283 526 Q 270 491 260 472 Q 252 454 225 408 L 188 344 Q 177 326 162 306 L 127 258 Q 106 230 97 221 L 88 212 Q 81 205 81 200 Q 81 198 82 196 Q 83 194 86 194 Q 91 194 101 201 L 114 210 Q 124 217 146 236 Q 167 254 190 280 Q 213 304 224 319 Q 234 334 240 342 L 252 362 Z" />
      </clipPath>
      <path clip-path="url(#make-me-a-hanzi-clip-0)" d="M 323 669 L 349 628 L 271 438 L 191 310 L 142 251 L 86 199" fill="none" id="make-me-a-hanzi-animation-0" stroke-dasharray="686 1372" stroke-linecap="round" />
    
      <clipPath id="make-me-a-hanzi-clip-1">
        <path d="M 352 556 L 360 544 Q 362 542 384 518 L 413 485 Q 422 476 430 470 Q 437 465 444 465 L 446 465 Q 454 466 460 476 Q 467 486 467 499 Q 466 512 462 522 Q 456 532 445 540 Q 434 549 410 560 Q 388 570 380 573 L 362 580 C 334 591 335 581 352 556 Z" />
      </clipPath>
      <path clip-path="url(#make-me-a-hanzi-clip-1)" d="M 364 572 L 371 558 L 434 508 L 445 478" fill="none" id="make-me-a-hanzi-animation-1" stroke-dasharray="256 512" stroke-linecap="round" />
    
      <clipPath id="make-me-a-hanzi-clip-2">
        <path d="M 240 342 L 248 338 Q 252 336 262 334 Q 272 332 278 331 Q 284 331 296 332 L 351 345 L 404 358 L 422 362 Q 432 365 436 368 Q 441 372 441 377 L 441 378 Q 440 383 430 389 Q 421 394 410 398 Q 402 401 397 401 L 394 401 Q 391 400 380 396 L 360 388 L 346 383 Q 334 378 296 370 L 272 366 Q 266 364 252 362 C 222 357 213 355 240 342 Z" />
      </clipPath>
      <path clip-path="url(#make-me-a-hanzi-clip-2)" d="M 246 345 L 299 351 L 396 379 L 430 378" fill="none" id="make-me-a-hanzi-animation-2" stroke-dasharray="316 632" stroke-linecap="round" />
    
      <clipPath id="make-me-a-hanzi-clip-3">
        <path d="M 308 256 L 282 251 L 256 245 L 210 237 Q 198 234 190 234 Q 182 232 180 230 Q 178 226 178 222 Q 179 218 188 214 Q 197 210 210 206 Q 224 203 231 203 Q 238 204 256 208 L 308 218 L 357 230 L 434 246 Q 440 246 446 248 Q 452 251 456 254 Q 460 257 460 262 Q 460 266 454 270 Q 448 274 436 277 L 422 281 Q 412 283 405 283 L 400 283 Q 393 282 381 278 L 370 274 L 358 270 L 308 256 Z" />
      </clipPath>
      <path clip-path="url(#make-me-a-hanzi-clip-3)" d="M 188 224 L 228 221 L 400 261 L 451 262" fill="none" id="make-me-a-hanzi-animation-3" stroke-dasharray="396 792" stroke-linecap="round" />
    
      <clipPath id="make-me-a-hanzi-clip-4">
        <path d="M 296 332 L 302 314 Q 304 306 306 292 Q 308 280 308 268 L 308 256 L 308 218 L 310 52 C 310 22 351 34 352 64 L 357 230 L 358 270 L 359 287 Q 360 302 363 314 Q 366 324 366 328 L 366 330 Q 366 334 351 345 C 327 363 287 360 296 332 Z" />
      </clipPath>
      <path clip-path="url(#make-me-a-hanzi-clip-4)" d="M 304 330 L 333 311 L 332 87 L 315 60" fill="none" id="make-me-a-hanzi-animation-4" stroke-dasharray="419 838" stroke-linecap="round" />
    
      <clipPath id="make-me-a-hanzi-clip-5">
        <path d="M 184 153 Q 183 152 183 150 Q 183 147 185 142 Q 188 134 196 119 Q 204 104 214 90 Q 223 76 230 69 Q 241 56 250 56 L 252 56 Q 260 57 267 69 Q 272 78 272 92 L 272 96 Q 270 112 265 120 Q 260 129 251 134 Q 243 140 236 143 Q 229 146 217 150 Q 204 154 202 156 Q 195 158 192 158 Q 189 158 188 157 Q 184 154 184 153 Z" />
      </clipPath>
      <path clip-path="url(#make-me-a-hanzi-clip-5)" d="M 192 149 L 238 108 L 251 68" fill="none" id="make-me-a-hanzi-animation-5" stroke-dasharray="232 464" stroke-linecap="round" />
    
      <clipPath id="make-me-a-hanzi-clip-6">
        <path d="M 398 104 Q 402 106 413 118 L 434 136 Q 444 144 450 148 L 460 154 Q 464 156 466 159 L 466 161 Q 466 164 464 168 Q 462 173 456 179 Q 450 185 442 191 Q 434 197 424 201 Q 417 203 413 203 L 411 203 Q 407 201 405 199 Q 404 196 403 184 Q 402 172 396 154 Q 390 136 388 132 L 380 117 L 371 98 Q 369 93 369 90 Q 369 88 370 86 Q 371 85 372 85 Q 375 85 382 90 L 398 104 Z" />
      </clipPath>
      <path clip-path="url(#make-me-a-hanzi-clip-6)" d="M 460 160 L 428 167 L 373 89" fill="none" id="make-me-a-hanzi-animation-6" stroke-dasharray="256 512" stroke-linecap="round" />
    
      <clipPath id="make-me-a-hanzi-clip-7">
        <path d="M 310 52 L 214 26 Q 208 25 192 23 Q 176 22 172 22 L 156 22 Q 145 22 137 23 Q 130 24 126 24 Q 118 23 116 18 Q 115 16 115 14 Q 115 11 117 6 Q 120 -1 131 -12 L 146 -27 Q 152 -32 166 -42 Q 180 -52 186 -52 Q 192 -52 200 -47 L 212 -37 Q 215 -35 235 -24 Q 254 -12 258 -11 L 460 74 Q 471 78 471 85 Q 471 87 470 89 Q 467 97 460 97 Q 456 97 452 95 L 352 64 L 310 52 Z" />
      </clipPath>
      <path clip-path="url(#make-me-a-hanzi-clip-7)" d="M 126 14 L 186 -13 L 461 85" fill="none" id="make-me-a-hanzi-animation-7" stroke-dasharray="486 972" stroke-linecap="round" />
    
      <clipPath id="make-me-a-hanzi-clip-8">
        <path d="M 532 647 L 529 647 Q 522 647 522 642 L 526 634 L 534 618 Q 536 612 544 599 L 561 572 Q 570 559 581 546 Q 592 532 604 529 Q 610 527 616 527 Q 623 527 628 530 Q 638 536 640 550 Q 641 555 641 559 Q 641 568 638 577 Q 634 590 626 601 Q 619 612 608 620 Q 596 629 583 634 L 562 640 Q 548 644 544 646 L 532 647 Z" />
      </clipPath>
      <path clip-path="url(#make-me-a-hanzi-clip-8)" d="M 529 640 L 577 604 L 617 549" fill="none" id="make-me-a-hanzi-animation-8" stroke-dasharray="256 512" stroke-linecap="round" />
    
      <clipPath id="make-me-a-hanzi-clip-9">
        <path d="M 730 554 L 756 574 Q 776 590 780 594 L 816 627 Q 826 636 836 642 Q 846 647 848 650 Q 849 652 849 655 Q 849 659 846 665 Q 842 674 830 684 Q 818 693 806 699 Q 795 705 782 705 Q 776 704 774 703 Q 772 701 771 690 Q 771 678 765 664 Q 760 649 749 629 Q 738 608 727 591 L 714 572 L 700 548 Q 697 543 697 540 L 697 539 Q 698 536 704 536 L 718 546 L 730 554 Z" />
      </clipPath>
      <path clip-path="url(#make-me-a-hanzi-clip-9)" d="M 780 695 L 798 671 L 799 658 L 753 594 L 701 540" fill="none" id="make-me-a-hanzi-animation-9" stroke-dasharray="325 650" stroke-linecap="round" />
    
      <clipPath id="make-me-a-hanzi-clip-10">
        <path d="M 691 462 L 736 469 L 788 477 Q 807 480 822 484 L 844 490 Q 852 492 853 498 L 853 499 Q 853 505 842 512 Q 829 520 818 524 Q 806 527 798 527 Q 790 526 772 521 Q 754 516 723 509 L 659 495 Q 654 494 606 486 Q 558 479 549 478 L 520 476 Q 510 474 508 470 Q 508 467 512 462 Q 517 458 526 454 Q 534 450 551 449 Q 560 448 567 448 Q 575 448 581 449 L 634 455 L 691 462 Z" />
      </clipPath>
      <path clip-path="url(#make-me-a-hanzi-clip-10)" d="M 516 469 L 573 464 L 797 503 L 845 499" fill="none" id="make-me-a-hanzi-animation-10" stroke-dasharray="461 922" stroke-linecap="round" />
    
      <clipPath id="make-me-a-hanzi-clip-11">
        <path d="M 694 345 L 734 352 L 784 360 L 826 369 Q 836 371 836 375 L 836 377 Q 836 381 833 385 Q 829 390 817 394 L 792 402 Q 782 405 772 405 L 766 405 L 732 398 L 696 391 L 644 380 L 554 367 Q 536 364 535 358 L 535 357 Q 535 351 542 344 Q 550 336 566 334 Q 582 332 593 332 L 616 335 L 645 338 L 694 345 Z" />
      </clipPath>
      <path clip-path="url(#make-me-a-hanzi-clip-11)" d="M 541 358 L 554 352 L 588 351 L 769 382 L 829 376" fill="none" id="make-me-a-hanzi-animation-11" stroke-dasharray="420 840" stroke-linecap="round" />
    
      <clipPath id="make-me-a-hanzi-clip-12">
        <path d="M 690 270 L 694 345 L 696 391 L 696 405 Q 696 412 700 424 Q 703 435 703 441 L 703 444 Q 702 450 691 462 C 671 485 626 484 634 455 L 640 433 Q 640 431 642 414 Q 644 397 644 391 L 644 380 L 645 338 L 645 264 C 645 234 688 240 690 270 Z" />
      </clipPath>
      <path clip-path="url(#make-me-a-hanzi-clip-12)" d="M 642 451 L 670 430 L 669 294 L 652 271" fill="none" id="make-me-a-hanzi-animation-12" stroke-dasharray="328 656" stroke-linecap="round" />
    
      <clipPath id="make-me-a-hanzi-clip-13">
        <path d="M 684 232 L 720 236 L 833 242 L 864 244 Q 879 246 881 251 L 881 254 Q 881 257 880 260 Q 878 264 870 270 L 856 280 Q 847 286 839 289 Q 832 292 824 292 Q 819 292 805 289 L 766 282 L 728 276 L 690 270 L 645 264 L 574 253 Q 558 250 531 248 L 502 244 Q 498 244 496 242 Q 494 241 494 238 Q 494 236 495 233 Q 496 226 511 221 Q 525 216 532 214 Q 536 213 541 213 L 547 213 Q 552 213 560 214 L 582 218 Q 597 221 627 225 L 684 232 Z" />
      </clipPath>
      <path clip-path="url(#make-me-a-hanzi-clip-13)" d="M 501 237 L 552 231 L 827 267 L 875 253" fill="none" id="make-me-a-hanzi-animation-13" stroke-dasharray="507 1014" stroke-linecap="round" />
    
      <clipPath id="make-me-a-hanzi-clip-14">
        <path d="M 676 111 L 740 118 L 936 129 Q 945 130 948 133 Q 951 135 951 139 L 951 140 Q 950 144 944 148 Q 937 154 926 160 Q 914 166 902 170 Q 890 174 878 175 L 840 170 L 686 148 L 627 142 L 478 125 Q 460 122 460 117 Q 460 111 466 107 Q 472 102 489 96 Q 506 89 508 89 Q 511 88 515 88 Q 522 88 534 91 Q 552 95 572 98 Q 591 100 616 104 L 676 111 Z" />
      </clipPath>
      <path clip-path="url(#make-me-a-hanzi-clip-14)" d="M 467 114 L 525 109 L 875 150 L 943 140" fill="none" id="make-me-a-hanzi-animation-14" stroke-dasharray="607 1214" stroke-linecap="round" />
    
      <clipPath id="make-me-a-hanzi-clip-15">
        <path d="M 616 104 L 604 74 Q 598 56 580 32 Q 562 8 535 -14 Q 509 -36 487 -51 Q 465 -65 449 -72 Q 432 -80 412 -88 L 402 -92 Q 396 -95 396 -98 Q 396 -99 397 -100 Q 399 -103 402 -103 Q 404 -103 406 -102 L 420 -101 Q 427 -100 458 -94 Q 488 -86 516 -77 Q 544 -67 573 -44 Q 602 -22 624 8 Q 646 38 656 62 L 676 111 L 686 148 L 690 159 Q 694 178 696 183 Q 699 188 704 195 Q 708 202 709 204 L 709 206 Q 709 212 702 218 Q 694 225 684 232 C 660 250 622 255 627 225 L 631 203 Q 633 197 633 189 Q 633 181 631 171 L 627 142 L 616 104 Z" />
      </clipPath>
      <path clip-path="url(#make-me-a-hanzi-clip-15)" d="M 635 221 L 666 197 L 665 188 L 644 103 L 609 29 L 574 -12 L 524 -51 L 447 -86 L 401 -97" fill="none" id="make-me-a-hanzi-animation-15" stroke-dasharray="595 1190" stroke-linecap="round" />
    
      <clipPath id="make-me-a-hanzi-clip-16">
        <path d="M 750 40 L 766 22 L 790 -2 Q 802 -13 822 -38 L 850 -70 Q 857 -78 869 -90 Q 882 -103 888 -106 Q 899 -113 906 -113 Q 909 -113 912 -112 Q 920 -108 925 -98 Q 928 -92 928 -84 Q 928 -77 926 -69 Q 924 -51 916 -36 Q 908 -22 893 -8 Q 879 6 862 17 Q 845 28 827 36 Q 808 45 789 52 Q 770 58 758 61 L 742 64 L 740 64 Q 736 64 734 61 Q 733 60 733 58 Q 733 56 736 52 L 750 40 Z" />
      </clipPath>
      <path clip-path="url(#make-me-a-hanzi-clip-16)" d="M 740 58 L 799 23 L 856 -22 L 886 -56 L 906 -97" fill="none" id="make-me-a-hanzi-animation-16" stroke-dasharray="360 720" stroke-linecap="round" />
    
  </g>
</svg>