<svg version="1.1" viewBox="0 0 1024 1024" xmlns="http://www.w3.org/2000/svg">
  <g stroke="lightgray" stroke-dasharray="1,1" stroke-width="1" transform="scale(4, 4)">
    <line x1="0" y1="0" x2="256" y2="256"></line>
    <line x1="256" y1="0" x2="0" y2="256"></line>
    <line x1="128" y1="0" x2="128" y2="256"></line>
    <line x1="0" y1="128" x2="256" y2="128"></line>
  </g>
  <g transform="scale(0.92, -0.92) translate(60, -830)">
    <style type="text/css">
      
        @keyframes keyframes0 {
          from {
            stroke: blue;
            stroke-dashoffset: 754;
            stroke-width: 128;
          }
          71% {
            animation-timing-function: step-end;
            stroke: blue;
            stroke-dashoffset: 0;
            stroke-width: 128;
          }
          to {
            stroke: black;
            stroke-width: 1024;
          }
        }
        #make-me-a-hanzi-animation-0 {
          animation: keyframes0 0.8636067708333334s both;
          animation-delay: 0s;
          animation-timing-function: linear;
        }
      
        @keyframes keyframes1 {
          from {
            stroke: blue;
            stroke-dashoffset: 397;
            stroke-width: 128;
          }
          56% {
            animation-timing-function: step-end;
            stroke: blue;
            stroke-dashoffset: 0;
            stroke-width: 128;
          }
          to {
            stroke: black;
            stroke-width: 1024;
          }
        }
        #make-me-a-hanzi-animation-1 {
          animation: keyframes1 0.5730794270833334s both;
          animation-delay: 0.8636067708333334s;
          animation-timing-function: linear;
        }
      
        @keyframes keyframes2 {
          from {
            stroke: blue;
            stroke-dashoffset: 485;
            stroke-width: 128;
          }
          61% {
            animation-timing-function: step-end;
            stroke: blue;
            stroke-dashoffset: 0;
            stroke-width: 128;
          }
          to {
            stroke: black;
            stroke-width: 1024;
          }
        }
        #make-me-a-hanzi-animation-2 {
          animation: keyframes2 0.6446940104166666s both;
          animation-delay: 1.4366861979166667s;
          animation-timing-function: linear;
        }
      
        @keyframes keyframes3 {
          from {
            stroke: blue;
            stroke-dashoffset: 498;
            stroke-width: 128;
          }
          62% {
            animation-timing-function: step-end;
            stroke: blue;
            stroke-dashoffset: 0;
            stroke-width: 128;
          }
          to {
            stroke: black;
            stroke-width: 1024;
          }
        }
        #make-me-a-hanzi-animation-3 {
          animation: keyframes3 0.6552734375s both;
          animation-delay: 2.0813802083333335s;
          animation-timing-function: linear;
        }
      
        @keyframes keyframes4 {
          from {
            stroke: blue;
            stroke-dashoffset: 546;
            stroke-width: 128;
          }
          64% {
            animation-timing-function: step-end;
            stroke: blue;
            stroke-dashoffset: 0;
            stroke-width: 128;
          }
          to {
            stroke: black;
            stroke-width: 1024;
          }
        }
        #make-me-a-hanzi-animation-4 {
          animation: keyframes4 0.6943359375s both;
          animation-delay: 2.7366536458333335s;
          animation-timing-function: linear;
        }
      
        @keyframes keyframes5 {
          from {
            stroke: blue;
            stroke-dashoffset: 371;
            stroke-width: 128;
          }
          55% {
            animation-timing-function: step-end;
            stroke: blue;
            stroke-dashoffset: 0;
            stroke-width: 128;
          }
          to {
            stroke: black;
            stroke-width: 1024;
          }
        }
        #make-me-a-hanzi-animation-5 {
          animation: keyframes5 0.5519205729166666s both;
          animation-delay: 3.4309895833333335s;
          animation-timing-function: linear;
        }
      
        @keyframes keyframes6 {
          from {
            stroke: blue;
            stroke-dashoffset: 362;
            stroke-width: 128;
          }
          54% {
            animation-timing-function: step-end;
            stroke: blue;
            stroke-dashoffset: 0;
            stroke-width: 128;
          }
          to {
            stroke: black;
            stroke-width: 1024;
          }
        }
        #make-me-a-hanzi-animation-6 {
          animation: keyframes6 0.5445963541666666s both;
          animation-delay: 3.98291015625s;
          animation-timing-function: linear;
        }
      
        @keyframes keyframes7 {
          from {
            stroke: blue;
            stroke-dashoffset: 568;
            stroke-width: 128;
          }
          65% {
            animation-timing-function: step-end;
            stroke: blue;
            stroke-dashoffset: 0;
            stroke-width: 128;
          }
          to {
            stroke: black;
            stroke-width: 1024;
          }
        }
        #make-me-a-hanzi-animation-7 {
          animation: keyframes7 0.7122395833333334s both;
          animation-delay: 4.527506510416667s;
          animation-timing-function: linear;
        }
      
        @keyframes keyframes8 {
          from {
            stroke: blue;
            stroke-dashoffset: 494;
            stroke-width: 128;
          }
          62% {
            animation-timing-function: step-end;
            stroke: blue;
            stroke-dashoffset: 0;
            stroke-width: 128;
          }
          to {
            stroke: black;
            stroke-width: 1024;
          }
        }
        #make-me-a-hanzi-animation-8 {
          animation: keyframes8 0.6520182291666666s both;
          animation-delay: 5.23974609375s;
          animation-timing-function: linear;
        }
      
        @keyframes keyframes9 {
          from {
            stroke: blue;
            stroke-dashoffset: 723;
            stroke-width: 128;
          }
          70% {
            animation-timing-function: step-end;
            stroke: blue;
            stroke-dashoffset: 0;
            stroke-width: 128;
          }
          to {
            stroke: black;
            stroke-width: 1024;
          }
        }
        #make-me-a-hanzi-animation-9 {
          animation: keyframes9 0.83837890625s both;
          animation-delay: 5.891764322916667s;
          animation-timing-function: linear;
        }
      
        @keyframes keyframes10 {
          from {
            stroke: blue;
            stroke-dashoffset: 546;
            stroke-width: 128;
          }
          64% {
            animation-timing-function: step-end;
            stroke: blue;
            stroke-dashoffset: 0;
            stroke-width: 128;
          }
          to {
            stroke: black;
            stroke-width: 1024;
          }
        }
        #make-me-a-hanzi-animation-10 {
          animation: keyframes10 0.6943359375s both;
          animation-delay: 6.730143229166667s;
          animation-timing-function: linear;
        }
      
        @keyframes keyframes11 {
          from {
            stroke: blue;
            stroke-dashoffset: 729;
            stroke-width: 128;
          }
          70% {
            animation-timing-function: step-end;
            stroke: blue;
            stroke-dashoffset: 0;
            stroke-width: 128;
          }
          to {
            stroke: black;
            stroke-width: 1024;
          }
        }
        #make-me-a-hanzi-animation-11 {
          animation: keyframes11 0.84326171875s both;
          animation-delay: 7.424479166666667s;
          animation-timing-function: linear;
        }
      
        @keyframes keyframes12 {
          from {
            stroke: blue;
            stroke-dashoffset: 407;
            stroke-width: 128;
          }
          57% {
            animation-timing-function: step-end;
            stroke: blue;
            stroke-dashoffset: 0;
            stroke-width: 128;
          }
          to {
            stroke: black;
            stroke-width: 1024;
          }
        }
        #make-me-a-hanzi-animation-12 {
          animation: keyframes12 0.5812174479166666s both;
          animation-delay: 8.267740885416668s;
          animation-timing-function: linear;
        }
      
        @keyframes keyframes13 {
          from {
            stroke: blue;
            stroke-dashoffset: 405;
            stroke-width: 128;
          }
          57% {
            animation-timing-function: step-end;
            stroke: blue;
            stroke-dashoffset: 0;
            stroke-width: 128;
          }
          to {
            stroke: black;
            stroke-width: 1024;
          }
        }
        #make-me-a-hanzi-animation-13 {
          animation: keyframes13 0.57958984375s both;
          animation-delay: 8.848958333333334s;
          animation-timing-function: linear;
        }
      
        @keyframes keyframes14 {
          from {
            stroke: blue;
            stroke-dashoffset: 407;
            stroke-width: 128;
          }
          57% {
            animation-timing-function: step-end;
            stroke: blue;
            stroke-dashoffset: 0;
            stroke-width: 128;
          }
          to {
            stroke: black;
            stroke-width: 1024;
          }
        }
        #make-me-a-hanzi-animation-14 {
          animation: keyframes14 0.5812174479166666s both;
          animation-delay: 9.428548177083334s;
          animation-timing-function: linear;
        }
      
        @keyframes keyframes15 {
          from {
            stroke: blue;
            stroke-dashoffset: 959;
            stroke-width: 128;
          }
          76% {
            animation-timing-function: step-end;
            stroke: blue;
            stroke-dashoffset: 0;
            stroke-width: 128;
          }
          to {
            stroke: black;
            stroke-width: 1024;
          }
        }
        #make-me-a-hanzi-animation-15 {
          animation: keyframes15 1.0304361979166667s both;
          animation-delay: 10.009765625s;
          animation-timing-function: linear;
        }
      
        @keyframes keyframes16 {
          from {
            stroke: blue;
            stroke-dashoffset: 518;
            stroke-width: 128;
          }
          63% {
            animation-timing-function: step-end;
            stroke: blue;
            stroke-dashoffset: 0;
            stroke-width: 128;
          }
          to {
            stroke: black;
            stroke-width: 1024;
          }
        }
        #make-me-a-hanzi-animation-16 {
          animation: keyframes16 0.6715494791666666s both;
          animation-delay: 11.040201822916666s;
          animation-timing-function: linear;
        }
      
        @keyframes keyframes17 {
          from {
            stroke: blue;
            stroke-dashoffset: 461;
            stroke-width: 128;
          }
          60% {
            animation-timing-function: step-end;
            stroke: blue;
            stroke-dashoffset: 0;
            stroke-width: 128;
          }
          to {
            stroke: black;
            stroke-width: 1024;
          }
        }
        #make-me-a-hanzi-animation-17 {
          animation: keyframes17 0.6251627604166666s both;
          animation-delay: 11.711751302083332s;
          animation-timing-function: linear;
        }
      
    </style>
    
      <path d="M 199 466 Q 144 394 72 316 Q 63 306 60 300 Q 59 297 59 296 Q 59 291 64 291 Q 66 291 69 292 Q 80 294 107 313 Q 138 337 174 374 L 197 396 Q 201 401 205 404 Q 262 465 323 556 Q 326 562 329 566 L 349 592 Q 362 608 374 617 Q 382 625 382 635 Q 382 638 381 641 Q 376 655 349 677 Q 324 698 306 698 Q 292 698 292 686 Q 292 682 294 676 Q 299 662 299 649 Q 299 635 293 622 Q 254 539 199 466 Z" fill="lightgray"></path>
    
      <path d="M 329 566 Q 405 503 444 484 Q 450 480 455 480 Q 460 480 463 483 Q 469 488 469 499 Q 469 506 466 516 Q 460 531 454 537 Q 440 552 415 565 Q 388 580 349 592 C 320 601 306 585 329 566 Z" fill="lightgray"></path>
    
      <path d="M 174 374 Q 175 373 176 373 Q 191 362 212 359 Q 219 358 227 358 Q 243 358 264 362 L 304 369 Q 345 378 387 385 Q 416 392 419 395 Q 424 401 424 406 Q 424 409 423 411 Q 415 423 388 429 Q 378 431 368 431 Q 348 431 329 423 Q 298 412 265 406 Q 233 399 197 396 C 167 393 149 390 174 374 Z" fill="lightgray"></path>
    
      <path d="M 278 284 Q 268 281 259 278 Q 223 269 181 266 Q 160 266 160 259 Q 160 254 172 245 Q 187 234 208 231 Q 216 230 225 230 Q 243 230 265 234 Q 272 237 278 237 L 326 247 Q 353 253 380 257 Q 408 264 411 267 Q 416 273 416 278 Q 416 281 415 283 Q 407 294 380 300 Q 368 303 356 303 Q 342 303 328 298 L 278 284 Z" fill="lightgray"></path>
    
      <path d="M 264 362 Q 269 355 272 348 Q 278 336 278 315 L 278 284 L 278 237 Q 278 181 281 84 C 282 54 320 63 321 93 Q 323 178 326 247 L 328 298 L 328 301 Q 328 314 331 323 Q 332 330 332 335 Q 332 345 328 349 Q 314 363 304 369 C 279 386 248 387 264 362 Z" fill="lightgray"></path>
    
      <path d="M 162 198 L 162 196 Q 162 191 166 182 Q 202 121 223 100 Q 228 94 234 94 Q 237 94 239 95 Q 251 100 251 124 Q 250 139 246 145 Q 240 155 228 165 Q 209 181 175 199 Q 170 201 167 201 Q 164 201 162 198 Z" fill="lightgray"></path>
    
      <path d="M 349 143 Q 348 141 348 139 Q 348 136 352 134 L 354 134 Q 358 134 362 138 Q 404 179 425 194 Q 434 199 434 204 Q 434 206 433 207 Q 425 218 410 227 Q 397 235 385 235 Q 381 235 378 234 Q 370 232 370 225 Q 370 222 371 219 Q 373 214 373 209 Q 373 203 371 197 Q 364 176 349 143 Z" fill="lightgray"></path>
    
      <path d="M 281 84 L 189 64 Q 181 63 170 63 Q 159 63 145 64 L 143 64 Q 132 64 129 53 L 129 48 Q 129 38 136 32 Q 158 13 189 -5 Q 193 -6 197 -6 Q 203 -6 211 -2 Q 245 22 281 35 L 391 78 Q 413 88 428 98 Q 442 106 442 112 L 442 113 Q 441 118 434 118 Q 430 118 425 117 L 321 93 L 281 84 Z" fill="lightgray"></path>
    
      <path d="M 587 611 Q 594 608 603 607 Q 611 605 621 605 Q 636 605 654 609 L 797 638 Q 831 646 835 650 Q 839 655 839 659 Q 839 662 838 664 Q 831 674 807 680 Q 798 682 789 682 Q 772 682 756 675 Q 717 662 677 653 Q 634 643 589 640 C 559 638 558 620 587 611 Z" fill="lightgray"></path>
    
      <path d="M 595 566 Q 587 574 587 602 L 587 611 L 589 640 Q 592 660 593 663 Q 595 667 595 671 Q 595 680 587 690 Q 575 706 548 715 Q 540 717 535 717 Q 525 717 523 709 L 523 706 Q 523 695 529 687 Q 540 676 540 655 Q 541 622 541 592 Q 542 548 560 533 Q 592 507 647 507 L 662 507 Q 732 513 810 532 Q 843 537 864 544 Q 876 548 876 556 Q 876 561 871 568 Q 859 587 838 591 Q 833 592 829 592 Q 821 592 816 588 Q 793 574 757 568 Q 683 557 642 557 Q 605 557 595 566 Z" fill="lightgray"></path>
    
      <path d="M 598 441 L 597 442 Q 589 448 577 452 Q 574 453 571 453 Q 565 453 559 450 Q 556 448 556 444 Q 556 441 558 437 Q 562 430 563 427 Q 567 415 570 393 Q 574 357 574 297 Q 573 271 567 241 Q 565 228 565 217 Q 565 204 568 194 Q 577 171 587 158 Q 592 153 597 153 Q 601 153 605 159 Q 609 166 612 175 L 615 202 Q 616 215 616 230 Q 615 245 615 257 L 615 280 L 615 334 L 616 357 Q 617 397 617 400 L 617 413 C 617 428 617 428 598 441 Z" fill="lightgray"></path>
    
      <path d="M 825 364 Q 827 390 840 411 Q 845 419 845 425 Q 845 430 842 433 Q 819 457 777 475 Q 771 478 763 478 Q 753 478 742 474 Q 713 459 676 452 Q 632 444 598 441 C 568 438 587 415 617 413 Q 626 412 634 412 L 642 412 Q 702 426 744 432 L 748 432 Q 759 432 764 427 Q 774 414 774 378 L 774 348 Q 773 319 773 295 L 772 264 L 768 216 Q 766 212 766 211 C 762 191 762 191 769 180 L 770 179 Q 783 156 790 156 Q 803 159 816 183 Q 827 205 827 221 Q 824 256 824 303 Q 824 331 825 364 Z" fill="lightgray"></path>
    
      <path d="M 615 334 Q 623 332 635 332 Q 716 342 774 348 C 804 351 802 366 774 378 Q 766 382 759 382 Q 752 383 744 383 Q 725 383 698 377 L 616 357 C 587 350 586 340 615 334 Z" fill="lightgray"></path>
    
      <path d="M 615 257 Q 623 254 635 254 Q 714 261 772 264 C 802 266 800 282 773 295 Q 766 299 760 299 Q 751 301 739 301 Q 721 301 698 297 Q 652 286 615 280 C 585 275 586 265 615 257 Z" fill="lightgray"></path>
    
      <path d="M 612 175 Q 617 174 623 174 Q 708 180 769 180 C 799 180 793 199 766 211 Q 758 215 752 216 Q 742 218 728 218 Q 711 218 690 215 L 615 202 C 585 197 582 179 612 175 Z" fill="lightgray"></path>
    
      <path d="M 520 336 Q 499 345 481 345 Q 466 344 466 330 Q 466 323 470 313 Q 486 272 486 215 Q 486 204 485 191 Q 480 129 462 104 Q 457 97 457 90 Q 457 82 464 73 Q 479 56 490 56 Q 495 56 499 58 Q 517 70 541 73 Q 636 85 760 91 Q 797 92 827 92 Q 895 92 928 86 Q 942 83 951 83 Q 962 83 966 87 Q 972 93 972 105 Q 971 115 943 133 Q 908 154 890 154 L 886 154 Q 728 132 539 120 L 537 120 Q 522 120 522 135 L 522 162 Q 522 264 536 301 Q 538 307 538 312 Q 538 327 520 336 Z" fill="lightgray"></path>
    
      <path d="M 555 5 Q 537 -17 510 -41 Q 486 -63 414 -108 Q 405 -113 405 -116 Q 405 -119 418 -119 Q 432 -119 456 -113 Q 483 -104 519 -83 Q 561 -58 592 -33 L 634 0 Q 644 11 644 18 Q 642 31 621 41 Q 596 51 586 51 Q 578 49 575 39 Q 570 23 555 5 Z" fill="lightgray"></path>
    
      <path d="M 851 -91 Q 867 -108 879 -111 L 882 -111 Q 888 -111 893 -104 Q 897 -98 897 -87 Q 897 -74 892 -53 Q 886 -32 871 -20 Q 852 -3 810 15 Q 761 37 736 46 Q 734 47 732 47 Q 727 47 727 40 Q 727 26 736 19 Q 788 -27 851 -91 Z" fill="lightgray"></path>
    
    
      <clipPath id="make-me-a-hanzi-clip-0">
        <path d="M 199 466 Q 144 394 72 316 Q 63 306 60 300 Q 59 297 59 296 Q 59 291 64 291 Q 66 291 69 292 Q 80 294 107 313 Q 138 337 174 374 L 197 396 Q 201 401 205 404 Q 262 465 323 556 Q 326 562 329 566 L 349 592 Q 362 608 374 617 Q 382 625 382 635 Q 382 638 381 641 Q 376 655 349 677 Q 324 698 306 698 Q 292 698 292 686 Q 292 682 294 676 Q 299 662 299 649 Q 299 635 293 622 Q 254 539 199 466 Z"></path>
      </clipPath>
      <path clip-path="url(#make-me-a-hanzi-clip-0)" d="M 304 687 L 326 662 L 336 638 L 296 564 L 236 475 L 178 405 L 93 317 L 65 297" fill="none" id="make-me-a-hanzi-animation-0" stroke-dasharray="626 1252" stroke-linecap="round"></path>
    
      <clipPath id="make-me-a-hanzi-clip-1">
        <path d="M 329 566 Q 405 503 444 484 Q 450 480 455 480 Q 460 480 463 483 Q 469 488 469 499 Q 469 506 466 516 Q 460 531 454 537 Q 440 552 415 565 Q 388 580 349 592 C 320 601 306 585 329 566 Z"></path>
      </clipPath>
      <path clip-path="url(#make-me-a-hanzi-clip-1)" d="M 341 564 L 356 569 L 408 539 L 432 522 L 454 494" fill="none" id="make-me-a-hanzi-animation-1" stroke-dasharray="269 538" stroke-linecap="round"></path>
    
      <clipPath id="make-me-a-hanzi-clip-2">
        <path d="M 174 374 Q 175 373 176 373 Q 191 362 212 359 Q 219 358 227 358 Q 243 358 264 362 L 304 369 Q 345 378 387 385 Q 416 392 419 395 Q 424 401 424 406 Q 424 409 423 411 Q 415 423 388 429 Q 378 431 368 431 Q 348 431 329 423 Q 298 412 265 406 Q 233 399 197 396 C 167 393 149 390 174 374 Z"></path>
      </clipPath>
      <path clip-path="url(#make-me-a-hanzi-clip-2)" d="M 185 376 L 254 381 L 353 405 L 411 405" fill="none" id="make-me-a-hanzi-animation-2" stroke-dasharray="357 714" stroke-linecap="round"></path>
    
      <clipPath id="make-me-a-hanzi-clip-3">
        <path d="M 278 284 Q 268 281 259 278 Q 223 269 181 266 Q 160 266 160 259 Q 160 254 172 245 Q 187 234 208 231 Q 216 230 225 230 Q 243 230 265 234 Q 272 237 278 237 L 326 247 Q 353 253 380 257 Q 408 264 411 267 Q 416 273 416 278 Q 416 281 415 283 Q 407 294 380 300 Q 368 303 356 303 Q 342 303 328 298 L 278 284 Z"></path>
      </clipPath>
      <path clip-path="url(#make-me-a-hanzi-clip-3)" d="M 166 258 L 221 250 L 351 278 L 404 278" fill="none" id="make-me-a-hanzi-animation-3" stroke-dasharray="370 740" stroke-linecap="round"></path>
    
      <clipPath id="make-me-a-hanzi-clip-4">
        <path d="M 264 362 Q 269 355 272 348 Q 278 336 278 315 L 278 284 L 278 237 Q 278 181 281 84 C 282 54 320 63 321 93 Q 323 178 326 247 L 328 298 L 328 301 Q 328 314 331 323 Q 332 330 332 335 Q 332 345 328 349 Q 314 363 304 369 C 279 386 248 387 264 362 Z"></path>
      </clipPath>
      <path clip-path="url(#make-me-a-hanzi-clip-4)" d="M 271 362 L 298 344 L 305 331 L 302 119 L 298 104 L 286 94" fill="none" id="make-me-a-hanzi-animation-4" stroke-dasharray="418 836" stroke-linecap="round"></path>
    
      <clipPath id="make-me-a-hanzi-clip-5">
        <path d="M 162 198 L 162 196 Q 162 191 166 182 Q 202 121 223 100 Q 228 94 234 94 Q 237 94 239 95 Q 251 100 251 124 Q 250 139 246 145 Q 240 155 228 165 Q 209 181 175 199 Q 170 201 167 201 Q 164 201 162 198 Z"></path>
      </clipPath>
      <path clip-path="url(#make-me-a-hanzi-clip-5)" d="M 166 197 L 218 144 L 234 107" fill="none" id="make-me-a-hanzi-animation-5" stroke-dasharray="243 486" stroke-linecap="round"></path>
    
      <clipPath id="make-me-a-hanzi-clip-6">
        <path d="M 349 143 Q 348 141 348 139 Q 348 136 352 134 L 354 134 Q 358 134 362 138 Q 404 179 425 194 Q 434 199 434 204 Q 434 206 433 207 Q 425 218 410 227 Q 397 235 385 235 Q 381 235 378 234 Q 370 232 370 225 Q 370 222 371 219 Q 373 214 373 209 Q 373 203 371 197 Q 364 176 349 143 Z"></path>
      </clipPath>
      <path clip-path="url(#make-me-a-hanzi-clip-6)" d="M 425 203 L 398 204 L 353 139" fill="none" id="make-me-a-hanzi-animation-6" stroke-dasharray="234 468" stroke-linecap="round"></path>
    
      <clipPath id="make-me-a-hanzi-clip-7">
        <path d="M 281 84 L 189 64 Q 181 63 170 63 Q 159 63 145 64 L 143 64 Q 132 64 129 53 L 129 48 Q 129 38 136 32 Q 158 13 189 -5 Q 193 -6 197 -6 Q 203 -6 211 -2 Q 245 22 281 35 L 391 78 Q 413 88 428 98 Q 442 106 442 112 L 442 113 Q 441 118 434 118 Q 430 118 425 117 L 321 93 L 281 84 Z"></path>
      </clipPath>
      <path clip-path="url(#make-me-a-hanzi-clip-7)" d="M 142 51 L 198 30 L 436 113" fill="none" id="make-me-a-hanzi-animation-7" stroke-dasharray="440 880" stroke-linecap="round"></path>
    
      <clipPath id="make-me-a-hanzi-clip-8">
        <path d="M 587 611 Q 594 608 603 607 Q 611 605 621 605 Q 636 605 654 609 L 797 638 Q 831 646 835 650 Q 839 655 839 659 Q 839 662 838 664 Q 831 674 807 680 Q 798 682 789 682 Q 772 682 756 675 Q 717 662 677 653 Q 634 643 589 640 C 559 638 558 620 587 611 Z"></path>
      </clipPath>
      <path clip-path="url(#make-me-a-hanzi-clip-8)" d="M 593 618 L 777 658 L 827 659" fill="none" id="make-me-a-hanzi-animation-8" stroke-dasharray="366 732" stroke-linecap="round"></path>
    
      <clipPath id="make-me-a-hanzi-clip-9">
        <path d="M 595 566 Q 587 574 587 602 L 587 611 L 589 640 Q 592 660 593 663 Q 595 667 595 671 Q 595 680 587 690 Q 575 706 548 715 Q 540 717 535 717 Q 525 717 523 709 L 523 706 Q 523 695 529 687 Q 540 676 540 655 Q 541 622 541 592 Q 542 548 560 533 Q 592 507 647 507 L 662 507 Q 732 513 810 532 Q 843 537 864 544 Q 876 548 876 556 Q 876 561 871 568 Q 859 587 838 591 Q 833 592 829 592 Q 821 592 816 588 Q 793 574 757 568 Q 683 557 642 557 Q 605 557 595 566 Z"></path>
      </clipPath>
      <path clip-path="url(#make-me-a-hanzi-clip-9)" d="M 533 708 L 564 677 L 564 584 L 574 553 L 589 542 L 639 531 L 667 532 L 782 549 L 830 564 L 863 558" fill="none" id="make-me-a-hanzi-animation-9" stroke-dasharray="595 1190" stroke-linecap="round"></path>
    
      <clipPath id="make-me-a-hanzi-clip-10">
        <path d="M 598 441 L 597 442 Q 589 448 577 452 Q 574 453 571 453 Q 565 453 559 450 Q 556 448 556 444 Q 556 441 558 437 Q 562 430 563 427 Q 567 415 570 393 Q 574 357 574 297 Q 573 271 567 241 Q 565 228 565 217 Q 565 204 568 194 Q 577 171 587 158 Q 592 153 597 153 Q 601 153 605 159 Q 609 166 612 175 L 615 202 Q 616 215 616 230 Q 615 245 615 257 L 615 280 L 615 334 L 616 357 Q 617 397 617 400 L 617 413 C 617 428 617 428 598 441 Z"></path>
      </clipPath>
      <path clip-path="url(#make-me-a-hanzi-clip-10)" d="M 566 443 L 585 425 L 596 369 L 590 204 L 596 163" fill="none" id="make-me-a-hanzi-animation-10" stroke-dasharray="418 836" stroke-linecap="round"></path>
    
      <clipPath id="make-me-a-hanzi-clip-11">
        <path d="M 825 364 Q 827 390 840 411 Q 845 419 845 425 Q 845 430 842 433 Q 819 457 777 475 Q 771 478 763 478 Q 753 478 742 474 Q 713 459 676 452 Q 632 444 598 441 C 568 438 587 415 617 413 Q 626 412 634 412 L 642 412 Q 702 426 744 432 L 748 432 Q 759 432 764 427 Q 774 414 774 378 L 774 348 Q 773 319 773 295 L 772 264 L 768 216 Q 766 212 766 211 C 762 191 762 191 769 180 L 770 179 Q 783 156 790 156 Q 803 159 816 183 Q 827 205 827 221 Q 824 256 824 303 Q 824 331 825 364 Z"></path>
      </clipPath>
      <path clip-path="url(#make-me-a-hanzi-clip-11)" d="M 605 439 L 630 428 L 647 429 L 765 454 L 788 441 L 805 420 L 799 371 L 798 218 L 790 166" fill="none" id="make-me-a-hanzi-animation-11" stroke-dasharray="601 1202" stroke-linecap="round"></path>
    
      <clipPath id="make-me-a-hanzi-clip-12">
        <path d="M 615 334 Q 623 332 635 332 Q 716 342 774 348 C 804 351 802 366 774 378 Q 766 382 759 382 Q 752 383 744 383 Q 725 383 698 377 L 616 357 C 587 350 586 340 615 334 Z"></path>
      </clipPath>
      <path clip-path="url(#make-me-a-hanzi-clip-12)" d="M 621 340 L 723 362 L 756 364 L 767 356" fill="none" id="make-me-a-hanzi-animation-12" stroke-dasharray="279 558" stroke-linecap="round"></path>
    
      <clipPath id="make-me-a-hanzi-clip-13">
        <path d="M 615 257 Q 623 254 635 254 Q 714 261 772 264 C 802 266 800 282 773 295 Q 766 299 760 299 Q 751 301 739 301 Q 721 301 698 297 Q 652 286 615 280 C 585 275 586 265 615 257 Z"></path>
      </clipPath>
      <path clip-path="url(#make-me-a-hanzi-clip-13)" d="M 621 263 L 650 272 L 733 282 L 751 281 L 765 272" fill="none" id="make-me-a-hanzi-animation-13" stroke-dasharray="277 554" stroke-linecap="round"></path>
    
      <clipPath id="make-me-a-hanzi-clip-14">
        <path d="M 612 175 Q 617 174 623 174 Q 708 180 769 180 C 799 180 793 199 766 211 Q 758 215 752 216 Q 742 218 728 218 Q 711 218 690 215 L 615 202 C 585 197 582 179 612 175 Z"></path>
      </clipPath>
      <path clip-path="url(#make-me-a-hanzi-clip-14)" d="M 618 181 L 640 192 L 699 198 L 744 199 L 763 187" fill="none" id="make-me-a-hanzi-animation-14" stroke-dasharray="279 558" stroke-linecap="round"></path>
    
      <clipPath id="make-me-a-hanzi-clip-15">
        <path d="M 520 336 Q 499 345 481 345 Q 466 344 466 330 Q 466 323 470 313 Q 486 272 486 215 Q 486 204 485 191 Q 480 129 462 104 Q 457 97 457 90 Q 457 82 464 73 Q 479 56 490 56 Q 495 56 499 58 Q 517 70 541 73 Q 636 85 760 91 Q 797 92 827 92 Q 895 92 928 86 Q 942 83 951 83 Q 962 83 966 87 Q 972 93 972 105 Q 971 115 943 133 Q 908 154 890 154 L 886 154 Q 728 132 539 120 L 537 120 Q 522 120 522 135 L 522 162 Q 522 264 536 301 Q 538 307 538 312 Q 538 327 520 336 Z"></path>
      </clipPath>
      <path clip-path="url(#make-me-a-hanzi-clip-15)" d="M 480 331 L 505 306 L 500 99 L 538 96 L 868 122 L 907 119 L 955 99" fill="none" id="make-me-a-hanzi-animation-15" stroke-dasharray="831 1662" stroke-linecap="round"></path>
    
      <clipPath id="make-me-a-hanzi-clip-16">
        <path d="M 555 5 Q 537 -17 510 -41 Q 486 -63 414 -108 Q 405 -113 405 -116 Q 405 -119 418 -119 Q 432 -119 456 -113 Q 483 -104 519 -83 Q 561 -58 592 -33 L 634 0 Q 644 11 644 18 Q 642 31 621 41 Q 596 51 586 51 Q 578 49 575 39 Q 570 23 555 5 Z"></path>
      </clipPath>
      <path clip-path="url(#make-me-a-hanzi-clip-16)" d="M 631 18 L 603 15 L 516 -63 L 457 -98 L 412 -115" fill="none" id="make-me-a-hanzi-animation-16" stroke-dasharray="390 780" stroke-linecap="round"></path>
    
      <clipPath id="make-me-a-hanzi-clip-17">
        <path d="M 851 -91 Q 867 -108 879 -111 L 882 -111 Q 888 -111 893 -104 Q 897 -98 897 -87 Q 897 -74 892 -53 Q 886 -32 871 -20 Q 852 -3 810 15 Q 761 37 736 46 Q 734 47 732 47 Q 727 47 727 40 Q 727 26 736 19 Q 788 -27 851 -91 Z"></path>
      </clipPath>
      <path clip-path="url(#make-me-a-hanzi-clip-17)" d="M 733 41 L 847 -41 L 881 -96" fill="none" id="make-me-a-hanzi-animation-17" stroke-dasharray="333 666" stroke-linecap="round"></path>
    
  </g>
</svg>