<svg xmlns="http://www.w3.org/2000/svg" version="1.1" viewBox="0 0 1024 1024">
  <g stroke="lightgray" stroke-dasharray="1,1" stroke-width="1" transform="scale(4, 4)">
    <line x1="0" y1="0" x2="256" y2="256" />
    <line x1="256" y1="0" x2="0" y2="256" />
    <line x1="128" y1="0" x2="128" y2="256" />
    <line x1="0" y1="128" x2="256" y2="128" />
  </g>
  <g transform="scale(1.0, -1.0) translate(0.0, -818.00)">
    <style type="text/css">
      
        @keyframes keyframes0 {
          from {
            stroke: blue;
            stroke-dashoffset: 370;
            stroke-width: 128;
          }
          55% {
            animation-timing-function: step-end;
            stroke: blue;
            stroke-dashoffset: 0;
            stroke-width: 128;
          }
          to {
            stroke: black;
            stroke-width: 1024;
          }
        }
        #make-me-a-hanzi-animation-0 {
          animation: keyframes0 0.5511067708333334s both;
          animation-delay: 0s;
          animation-timing-function: linear;
        }
      
        @keyframes keyframes1 {
          from {
            stroke: blue;
            stroke-dashoffset: 821;
            stroke-width: 128;
          }
          73% {
            animation-timing-function: step-end;
            stroke: blue;
            stroke-dashoffset: 0;
            stroke-width: 128;
          }
          to {
            stroke: black;
            stroke-width: 1024;
          }
        }
        #make-me-a-hanzi-animation-1 {
          animation: keyframes1 0.9181315104166666s both;
          animation-delay: 0.5511067708333334s;
          animation-timing-function: linear;
        }
      
        @keyframes keyframes2 {
          from {
            stroke: blue;
            stroke-dashoffset: 1008;
            stroke-width: 128;
          }
          77% {
            animation-timing-function: step-end;
            stroke: blue;
            stroke-dashoffset: 0;
            stroke-width: 128;
          }
          to {
            stroke: black;
            stroke-width: 1024;
          }
        }
        #make-me-a-hanzi-animation-2 {
          animation: keyframes2 1.0703125s both;
          animation-delay: 1.46923828125s;
          animation-timing-function: linear;
        }
      
        @keyframes keyframes3 {
          from {
            stroke: blue;
            stroke-dashoffset: 783;
            stroke-width: 128;
          }
          72% {
            animation-timing-function: step-end;
            stroke: blue;
            stroke-dashoffset: 0;
            stroke-width: 128;
          }
          to {
            stroke: black;
            stroke-width: 1024;
          }
        }
        #make-me-a-hanzi-animation-3 {
          animation: keyframes3 0.88720703125s both;
          animation-delay: 2.53955078125s;
          animation-timing-function: linear;
        }
      
        @keyframes keyframes4 {
          from {
            stroke: blue;
            stroke-dashoffset: 434;
            stroke-width: 128;
          }
          59% {
            animation-timing-function: step-end;
            stroke: blue;
            stroke-dashoffset: 0;
            stroke-width: 128;
          }
          to {
            stroke: black;
            stroke-width: 1024;
          }
        }
        #make-me-a-hanzi-animation-4 {
          animation: keyframes4 0.6031901041666666s both;
          animation-delay: 3.4267578125s;
          animation-timing-function: linear;
        }
      
        @keyframes keyframes5 {
          from {
            stroke: blue;
            stroke-dashoffset: 442;
            stroke-width: 128;
          }
          59% {
            animation-timing-function: step-end;
            stroke: blue;
            stroke-dashoffset: 0;
            stroke-width: 128;
          }
          to {
            stroke: black;
            stroke-width: 1024;
          }
        }
        #make-me-a-hanzi-animation-5 {
          animation: keyframes5 0.6097005208333334s both;
          animation-delay: 4.029947916666667s;
          animation-timing-function: linear;
        }
      
        @keyframes keyframes6 {
          from {
            stroke: blue;
            stroke-dashoffset: 628;
            stroke-width: 128;
          }
          67% {
            animation-timing-function: step-end;
            stroke: blue;
            stroke-dashoffset: 0;
            stroke-width: 128;
          }
          to {
            stroke: black;
            stroke-width: 1024;
          }
        }
        #make-me-a-hanzi-animation-6 {
          animation: keyframes6 0.7610677083333334s both;
          animation-delay: 4.6396484375s;
          animation-timing-function: linear;
        }
      
        @keyframes keyframes7 {
          from {
            stroke: blue;
            stroke-dashoffset: 349;
            stroke-width: 128;
          }
          53% {
            animation-timing-function: step-end;
            stroke: blue;
            stroke-dashoffset: 0;
            stroke-width: 128;
          }
          to {
            stroke: black;
            stroke-width: 1024;
          }
        }
        #make-me-a-hanzi-animation-7 {
          animation: keyframes7 0.5340169270833334s both;
          animation-delay: 5.400716145833333s;
          animation-timing-function: linear;
        }
      
        @keyframes keyframes8 {
          from {
            stroke: blue;
            stroke-dashoffset: 555;
            stroke-width: 128;
          }
          64% {
            animation-timing-function: step-end;
            stroke: blue;
            stroke-dashoffset: 0;
            stroke-width: 128;
          }
          to {
            stroke: black;
            stroke-width: 1024;
          }
        }
        #make-me-a-hanzi-animation-8 {
          animation: keyframes8 0.70166015625s both;
          animation-delay: 5.934733072916666s;
          animation-timing-function: linear;
        }
      
        @keyframes keyframes9 {
          from {
            stroke: blue;
            stroke-dashoffset: 392;
            stroke-width: 128;
          }
          56% {
            animation-timing-function: step-end;
            stroke: blue;
            stroke-dashoffset: 0;
            stroke-width: 128;
          }
          to {
            stroke: black;
            stroke-width: 1024;
          }
        }
        #make-me-a-hanzi-animation-9 {
          animation: keyframes9 0.5690104166666666s both;
          animation-delay: 6.636393229166666s;
          animation-timing-function: linear;
        }
      
        @keyframes keyframes10 {
          from {
            stroke: blue;
            stroke-dashoffset: 716;
            stroke-width: 128;
          }
          70% {
            animation-timing-function: step-end;
            stroke: blue;
            stroke-dashoffset: 0;
            stroke-width: 128;
          }
          to {
            stroke: black;
            stroke-width: 1024;
          }
        }
        #make-me-a-hanzi-animation-10 {
          animation: keyframes10 0.8326822916666666s both;
          animation-delay: 7.205403645833333s;
          animation-timing-function: linear;
        }
      
        @keyframes keyframes11 {
          from {
            stroke: blue;
            stroke-dashoffset: 704;
            stroke-width: 128;
          }
          70% {
            animation-timing-function: step-end;
            stroke: blue;
            stroke-dashoffset: 0;
            stroke-width: 128;
          }
          to {
            stroke: black;
            stroke-width: 1024;
          }
        }
        #make-me-a-hanzi-animation-11 {
          animation: keyframes11 0.8229166666666666s both;
          animation-delay: 8.0380859375s;
          animation-timing-function: linear;
        }
      
        @keyframes keyframes12 {
          from {
            stroke: blue;
            stroke-dashoffset: 720;
            stroke-width: 128;
          }
          70% {
            animation-timing-function: step-end;
            stroke: blue;
            stroke-dashoffset: 0;
            stroke-width: 128;
          }
          to {
            stroke: black;
            stroke-width: 1024;
          }
        }
        #make-me-a-hanzi-animation-12 {
          animation: keyframes12 0.8359375s both;
          animation-delay: 8.861002604166666s;
          animation-timing-function: linear;
        }
      
        @keyframes keyframes13 {
          from {
            stroke: blue;
            stroke-dashoffset: 450;
            stroke-width: 128;
          }
          59% {
            animation-timing-function: step-end;
            stroke: blue;
            stroke-dashoffset: 0;
            stroke-width: 128;
          }
          to {
            stroke: black;
            stroke-width: 1024;
          }
        }
        #make-me-a-hanzi-animation-13 {
          animation: keyframes13 0.6162109375s both;
          animation-delay: 9.696940104166666s;
          animation-timing-function: linear;
        }
      
        @keyframes keyframes14 {
          from {
            stroke: blue;
            stroke-dashoffset: 537;
            stroke-width: 128;
          }
          64% {
            animation-timing-function: step-end;
            stroke: blue;
            stroke-dashoffset: 0;
            stroke-width: 128;
          }
          to {
            stroke: black;
            stroke-width: 1024;
          }
        }
        #make-me-a-hanzi-animation-14 {
          animation: keyframes14 0.68701171875s both;
          animation-delay: 10.313151041666666s;
          animation-timing-function: linear;
        }
      
        @keyframes keyframes15 {
          from {
            stroke: blue;
            stroke-dashoffset: 483;
            stroke-width: 128;
          }
          61% {
            animation-timing-function: step-end;
            stroke: blue;
            stroke-dashoffset: 0;
            stroke-width: 128;
          }
          to {
            stroke: black;
            stroke-width: 1024;
          }
        }
        #make-me-a-hanzi-animation-15 {
          animation: keyframes15 0.64306640625s both;
          animation-delay: 11.000162760416666s;
          animation-timing-function: linear;
        }
      
        @keyframes keyframes16 {
          from {
            stroke: blue;
            stroke-dashoffset: 356;
            stroke-width: 128;
          }
          54% {
            animation-timing-function: step-end;
            stroke: blue;
            stroke-dashoffset: 0;
            stroke-width: 128;
          }
          to {
            stroke: black;
            stroke-width: 1024;
          }
        }
        #make-me-a-hanzi-animation-16 {
          animation: keyframes16 0.5397135416666666s both;
          animation-delay: 11.643229166666666s;
          animation-timing-function: linear;
        }
      
        @keyframes keyframes17 {
          from {
            stroke: blue;
            stroke-dashoffset: 381;
            stroke-width: 128;
          }
          55% {
            animation-timing-function: step-end;
            stroke: blue;
            stroke-dashoffset: 0;
            stroke-width: 128;
          }
          to {
            stroke: black;
            stroke-width: 1024;
          }
        }
        #make-me-a-hanzi-animation-17 {
          animation: keyframes17 0.56005859375s both;
          animation-delay: 12.182942708333332s;
          animation-timing-function: linear;
        }
      
        @keyframes keyframes18 {
          from {
            stroke: blue;
            stroke-dashoffset: 842;
            stroke-width: 128;
          }
          73% {
            animation-timing-function: step-end;
            stroke: blue;
            stroke-dashoffset: 0;
            stroke-width: 128;
          }
          to {
            stroke: black;
            stroke-width: 1024;
          }
        }
        #make-me-a-hanzi-animation-18 {
          animation: keyframes18 0.9352213541666666s both;
          animation-delay: 12.743001302083332s;
          animation-timing-function: linear;
        }
      
    </style>
    
      <path d="M 559 671 L 564 690 Q 565 697 565 704 Q 564 716 556 728 Q 548 741 528 749 Q 509 758 493 762 L 476 766 Q 473 767 470 767 Q 465 767 464 764 Q 462 762 462 759 Q 462 757 464 753 L 478 725 Q 479 722 491 702 Q 504 682 507 678 Q 510 674 520 666 C 543 647 551 642 559 671 Z" fill="lightgray" />
    
      <path d="M 576 639 L 586 640 Q 640 645 684 648 L 755 652 L 784 653 Q 792 653 794 659 Q 795 660 795 662 Q 795 666 790 672 Q 783 680 772 684 Q 761 690 748 694 Q 734 699 726 699 Q 720 698 705 694 Q 690 690 654 685 L 559 671 L 520 666 L 227 628 Q 219 628 218 622 Q 218 616 224 612 Q 232 606 234 605 Q 236 604 242 602 L 308 601 L 318 602 Q 320 602 342 606 Q 362 610 371 611 Q 380 612 400 616 L 426 620 L 436 622 L 486 628 Q 536 634 544 636 L 576 639 Z" fill="lightgray" />
    
      <path d="M 242 602 L 246 586 Q 248 582 248 568 Q 249 554 250 542 Q 250 521 247 489 Q 245 457 242 421 Q 238 386 232 345 Q 226 304 214 256 Q 202 209 186 160 Q 169 112 150 69 Q 130 26 113 -3 Q 96 -31 72 -66 L 60 -82 Q 58 -87 58 -90 Q 58 -92 59 -93 Q 61 -94 63 -94 Q 65 -94 66 -93 L 84 -78 Q 104 -61 132 -29 Q 160 4 185 48 Q 209 92 228 144 Q 247 196 259 244 Q 270 292 277 333 Q 284 374 289 407 L 292 434 L 300 502 L 304 526 L 306 549 Q 307 557 309 563 Q 312 568 315 574 Q 318 580 318 582 Q 319 584 319 585 Q 319 589 316 592 Q 312 596 308 601 C 294 628 235 631 242 602 Z" fill="lightgray" />
    
      <path d="M 668 442 L 674 433 Q 676 428 684 428 L 686 428 Q 692 428 699 434 Q 706 442 712 455 L 729 496 Q 730 498 737 510 Q 744 522 751 530 Q 758 538 759 540 L 759 542 Q 759 547 754 554 Q 747 563 736 569 Q 724 576 711 580 Q 700 585 694 585 L 692 585 Q 690 584 674 578 Q 660 572 642 572 L 600 568 L 552 557 L 456 542 L 416 536 L 304 526 C 274 523 271 510 300 502 L 318 497 Q 320 496 325 496 Q 333 496 350 498 L 418 506 L 456 512 L 551 527 L 596 536 L 662 544 Q 667 545 670 545 Q 681 545 684 540 Q 687 535 687 529 L 687 526 Q 686 518 684 510 L 672 472 C 664 447 664 447 668 442 Z" fill="lightgray" />
    
      <path d="M 400 616 L 400 609 L 406 599 Q 408 594 411 584 Q 414 573 414 567 L 416 536 L 418 506 L 422 446 C 424 416 453 420 454 450 L 456 512 L 456 542 L 457 569 Q 457 577 460 587 Q 463 594 463 599 L 463 601 Q 462 606 456 610 Q 449 614 442 616 L 426 620 C 400 627 400 627 400 616 Z" fill="lightgray" />
    
      <path d="M 600 568 L 607 590 L 614 600 Q 616 606 616 610 Q 616 615 608 622 Q 600 630 589 634 Q 579 638 576 639 C 548 649 541 652 544 636 L 545 630 L 549 618 Q 552 607 552 592 L 552 557 L 551 527 L 545 462 C 542 432 579 439 584 469 L 596 536 L 600 568 Z" fill="lightgray" />
    
      <path d="M 289 407 L 302 402 Q 307 400 311 400 L 314 400 L 322 401 L 332 401 L 357 405 L 564 431 L 586 434 L 668 442 C 698 445 701 464 672 472 L 662 475 Q 656 476 646 477 Q 639 477 623 474 Q 606 472 584 469 L 545 462 L 454 450 L 422 446 L 292 434 C 262 431 261 418 289 407 Z" fill="lightgray" />
    
      <path d="M 383 313 L 461 326 Q 475 328 479 330 Q 482 333 482 335 Q 482 336 481 338 Q 480 340 472 344 Q 466 349 457 352 Q 448 354 440 354 Q 431 353 419 349 L 385 338 C 356 329 353 308 383 313 Z" fill="lightgray" />
    
      <path d="M 332 401 L 338 387 Q 342 379 344 362 Q 347 344 348 330 Q 348 314 346 294 Q 345 273 343 254 Q 341 234 338 227 L 332 218 Q 330 212 330 208 L 330 206 Q 330 199 336 188 Q 344 175 347 172 Q 351 170 354 170 L 355 170 Q 359 170 365 177 Q 372 186 386 198 Q 400 212 404 214 L 462 260 Q 465 263 465 265 Q 465 267 464 268 Q 463 271 460 271 Q 459 271 457 270 L 380 242 L 383 313 L 385 338 L 386 356 Q 386 357 389 366 Q 390 373 390 377 L 390 380 Q 389 385 383 389 Q 378 394 371 397 Q 365 400 357 405 C 331 420 321 426 332 401 Z" fill="lightgray" />
    
      <path d="M 620 337 L 732 353 Q 756 356 760 359 Q 764 361 766 364 Q 767 366 767 369 Q 766 372 764 376 Q 761 379 750 385 Q 740 390 732 391 L 730 391 Q 721 391 687 382 L 622 366 C 593 359 590 333 620 337 Z" fill="lightgray" />
    
      <path d="M 564 431 L 574 412 Q 574 410 577 394 Q 579 378 580 371 L 582 318 Q 582 300 588 288 Q 594 277 614 264 Q 634 252 674 248 Q 707 245 729 245 L 740 245 Q 768 245 788 250 Q 808 254 825 263 Q 842 271 846 278 Q 850 284 850 288 L 850 290 Q 850 294 844 304 Q 837 312 830 328 Q 824 343 822 354 L 817 382 Q 816 390 810 391 Q 806 391 804 384 L 798 346 Q 794 319 786 308 Q 778 298 763 292 Q 748 286 716 286 Q 692 286 674 288 Q 656 290 642 294 Q 628 298 625 302 Q 621 306 620 316 L 620 337 L 622 366 L 624 384 Q 624 388 627 396 Q 630 404 630 408 L 630 410 Q 630 416 616 422 Q 602 428 586 434 C 558 445 556 445 564 431 Z" fill="lightgray" />
    
      <path d="M 558 268 L 568 277 L 568 278 Q 568 280 567 284 Q 564 290 556 299 Q 548 307 532 320 Q 521 328 516 328 L 515 328 Q 510 327 508 325 Q 506 322 506 314 Q 506 305 500 288 Q 494 271 471 243 Q 448 215 422 188 Q 396 160 366 134 Q 338 107 316 91 L 243 42 L 224 30 Q 217 26 217 21 L 217 20 Q 218 17 221 17 Q 225 17 230 19 L 250 26 Q 280 38 314 54 Q 347 72 378 96 L 431 138 L 446 152 L 488 194 Q 498 204 539 250 L 558 268 Z" fill="lightgray" />
    
      <path d="M 539 250 L 594 212 Q 600 208 652 166 L 740 98 Q 775 72 792 64 Q 809 56 827 56 Q 838 56 854 59 Q 870 62 892 67 L 964 83 Q 973 85 973 89 L 973 90 Q 972 96 963 98 L 920 108 Q 886 116 859 123 Q 833 130 799 142 Q 764 155 729 172 Q 693 188 648 216 L 594 247 L 558 268 C 532 283 514 267 539 250 Z" fill="lightgray" />
    
      <path d="M 431 138 L 442 132 Q 446 128 458 124 Q 465 122 473 122 Q 478 122 483 123 L 513 128 L 558 136 L 615 146 Q 639 150 639 157 Q 638 164 631 168 Q 624 173 615 176 Q 605 178 597 180 Q 588 182 584 182 Q 577 182 562 177 Q 548 172 525 167 Q 502 162 486 159 L 446 152 C 416 147 415 147 431 138 Z" fill="lightgray" />
    
      <path d="M 514 71 L 405 60 Q 399 58 397 55 Q 396 54 396 53 Q 396 50 399 47 Q 404 42 414 37 Q 424 33 435 31 Q 442 29 449 29 Q 454 29 458 30 L 514 36 L 558 41 L 660 54 Q 674 56 680 59 Q 686 62 687 66 Q 687 68 683 73 Q 678 78 667 82 Q 656 87 647 89 Q 638 90 632 90 L 606 86 L 558 77 L 514 71 Z" fill="lightgray" />
    
      <path d="M 513 128 L 514 71 L 514 36 L 516 -94 C 516 -124 556 -122 556 -92 L 558 41 L 558 77 L 558 136 C 558 166 512 158 513 128 Z" fill="lightgray" />
    
      <path d="M 386 -30 Q 390 -40 402 -57 Q 415 -74 420 -80 Q 431 -92 440 -92 L 442 -92 Q 451 -91 457 -80 Q 463 -71 463 -59 L 463 -55 Q 462 -41 455 -31 Q 448 -21 435 -14 Q 422 -8 409 -4 L 386 2 L 382 2 Q 378 2 376 0 Q 375 -1 375 -3 Q 375 -7 378 -12 L 386 -30 Z" fill="lightgray" />
    
      <path d="M 619 -74 L 650 -48 L 674 -26 Q 684 -18 690 -14 L 698 -11 Q 705 -8 706 -4 Q 707 -3 707 -2 Q 707 2 702 8 Q 696 16 683 23 Q 670 31 662 35 Q 654 38 650 38 Q 647 38 646 37 Q 644 34 644 30 L 641 14 L 635 -7 Q 632 -17 626 -30 L 610 -64 Q 607 -69 607 -72 Q 607 -73 608 -74 Q 609 -75 612 -75 Q 615 -75 619 -74 Z" fill="lightgray" />
    
      <path d="M 516 -94 L 442 -100 Q 414 -103 364 -106 Q 314 -110 284 -110 L 260 -112 Q 250 -112 248 -116 L 248 -118 Q 248 -122 252 -127 Q 258 -134 274 -142 Q 290 -150 301 -152 Q 308 -155 318 -155 Q 323 -155 328 -154 Q 332 -153 347 -150 Q 362 -146 389 -142 Q 415 -138 440 -136 Q 464 -134 524 -130 Q 584 -126 602 -125 Q 620 -124 669 -123 Q 718 -122 733 -122 L 815 -123 L 822 -123 Q 829 -123 834 -122 Q 840 -120 843 -115 Q 844 -114 844 -112 Q 844 -108 839 -102 Q 832 -94 811 -84 Q 790 -74 783 -72 Q 777 -70 770 -68 Q 758 -68 736 -72 Q 713 -76 692 -79 Q 670 -82 650 -83 L 556 -92 L 516 -94 Z" fill="lightgray" />
    
    
      <clipPath id="make-me-a-hanzi-clip-0">
        <path d="M 559 671 L 564 690 Q 565 697 565 704 Q 564 716 556 728 Q 548 741 528 749 Q 509 758 493 762 L 476 766 Q 473 767 470 767 Q 465 767 464 764 Q 462 762 462 759 Q 462 757 464 753 L 478 725 Q 479 722 491 702 Q 504 682 507 678 Q 510 674 520 666 C 543 647 551 642 559 671 Z" />
      </clipPath>
      <path clip-path="url(#make-me-a-hanzi-clip-0)" d="M 471 759 L 520 717 L 551 678" fill="none" id="make-me-a-hanzi-animation-0" stroke-dasharray="242 484" stroke-linecap="round" />
    
      <clipPath id="make-me-a-hanzi-clip-1">
        <path d="M 576 639 L 586 640 Q 640 645 684 648 L 755 652 L 784 653 Q 792 653 794 659 Q 795 660 795 662 Q 795 666 790 672 Q 783 680 772 684 Q 761 690 748 694 Q 734 699 726 699 Q 720 698 705 694 Q 690 690 654 685 L 559 671 L 520 666 L 227 628 Q 219 628 218 622 Q 218 616 224 612 Q 232 606 234 605 Q 236 604 242 602 L 308 601 L 318 602 Q 320 602 342 606 Q 362 610 371 611 Q 380 612 400 616 L 426 620 L 436 622 L 486 628 Q 536 634 544 636 L 576 639 Z" />
      </clipPath>
      <path clip-path="url(#make-me-a-hanzi-clip-1)" d="M 226 620 L 311 620 L 727 675 L 786 664" fill="none" id="make-me-a-hanzi-animation-1" stroke-dasharray="693 1386" stroke-linecap="round" />
    
      <clipPath id="make-me-a-hanzi-clip-2">
        <path d="M 242 602 L 246 586 Q 248 582 248 568 Q 249 554 250 542 Q 250 521 247 489 Q 245 457 242 421 Q 238 386 232 345 Q 226 304 214 256 Q 202 209 186 160 Q 169 112 150 69 Q 130 26 113 -3 Q 96 -31 72 -66 L 60 -82 Q 58 -87 58 -90 Q 58 -92 59 -93 Q 61 -94 63 -94 Q 65 -94 66 -93 L 84 -78 Q 104 -61 132 -29 Q 160 4 185 48 Q 209 92 228 144 Q 247 196 259 244 Q 270 292 277 333 Q 284 374 289 407 L 292 434 L 300 502 L 304 526 L 306 549 Q 307 557 309 563 Q 312 568 315 574 Q 318 580 318 582 Q 319 584 319 585 Q 319 589 316 592 Q 312 596 308 601 C 294 628 235 631 242 602 Z" />
      </clipPath>
      <path clip-path="url(#make-me-a-hanzi-clip-2)" d="M 249 599 L 279 571 L 279 562 L 265 404 L 235 243 L 205 144 L 157 37 L 114 -28 L 62 -90" fill="none" id="make-me-a-hanzi-animation-2" stroke-dasharray="880 1760" stroke-linecap="round" />
    
      <clipPath id="make-me-a-hanzi-clip-3">
        <path d="M 668 442 L 674 433 Q 676 428 684 428 L 686 428 Q 692 428 699 434 Q 706 442 712 455 L 729 496 Q 730 498 737 510 Q 744 522 751 530 Q 758 538 759 540 L 759 542 Q 759 547 754 554 Q 747 563 736 569 Q 724 576 711 580 Q 700 585 694 585 L 692 585 Q 690 584 674 578 Q 660 572 642 572 L 600 568 L 552 557 L 456 542 L 416 536 L 304 526 C 274 523 271 510 300 502 L 318 497 Q 320 496 325 496 Q 333 496 350 498 L 418 506 L 456 512 L 551 527 L 596 536 L 662 544 Q 667 545 670 545 Q 681 545 684 540 Q 687 535 687 529 L 687 526 Q 686 518 684 510 L 672 472 C 664 447 664 447 668 442 Z" />
      </clipPath>
      <path clip-path="url(#make-me-a-hanzi-clip-3)" d="M 306 507 L 515 535 L 608 554 L 698 560 L 718 541 L 685 443" fill="none" id="make-me-a-hanzi-animation-3" stroke-dasharray="655 1310" stroke-linecap="round" />
    
      <clipPath id="make-me-a-hanzi-clip-4">
        <path d="M 400 616 L 400 609 L 406 599 Q 408 594 411 584 Q 414 573 414 567 L 416 536 L 418 506 L 422 446 C 424 416 453 420 454 450 L 456 512 L 456 542 L 457 569 Q 457 577 460 587 Q 463 594 463 599 L 463 601 Q 462 606 456 610 Q 449 614 442 616 L 426 620 C 400 627 400 627 400 616 Z" />
      </clipPath>
      <path clip-path="url(#make-me-a-hanzi-clip-4)" d="M 407 613 L 435 592 L 438 474 L 436 462 L 426 454" fill="none" id="make-me-a-hanzi-animation-4" stroke-dasharray="306 612" stroke-linecap="round" />
    
      <clipPath id="make-me-a-hanzi-clip-5">
        <path d="M 600 568 L 607 590 L 614 600 Q 616 606 616 610 Q 616 615 608 622 Q 600 630 589 634 Q 579 638 576 639 C 548 649 541 652 544 636 L 545 630 L 549 618 Q 552 607 552 592 L 552 557 L 551 527 L 545 462 C 542 432 579 439 584 469 L 596 536 L 600 568 Z" />
      </clipPath>
      <path clip-path="url(#make-me-a-hanzi-clip-5)" d="M 550 634 L 581 605 L 567 486 L 551 468" fill="none" id="make-me-a-hanzi-animation-5" stroke-dasharray="314 628" stroke-linecap="round" />
    
      <clipPath id="make-me-a-hanzi-clip-6">
        <path d="M 289 407 L 302 402 Q 307 400 311 400 L 314 400 L 322 401 L 332 401 L 357 405 L 564 431 L 586 434 L 668 442 C 698 445 701 464 672 472 L 662 475 Q 656 476 646 477 Q 639 477 623 474 Q 606 472 584 469 L 545 462 L 454 450 L 422 446 L 292 434 C 262 431 261 418 289 407 Z" />
      </clipPath>
      <path clip-path="url(#make-me-a-hanzi-clip-6)" d="M 300 426 L 307 418 L 335 419 L 648 458 L 665 465" fill="none" id="make-me-a-hanzi-animation-6" stroke-dasharray="500 1000" stroke-linecap="round" />
    
      <clipPath id="make-me-a-hanzi-clip-7">
        <path d="M 383 313 L 461 326 Q 475 328 479 330 Q 482 333 482 335 Q 482 336 481 338 Q 480 340 472 344 Q 466 349 457 352 Q 448 354 440 354 Q 431 353 419 349 L 385 338 C 356 329 353 308 383 313 Z" />
      </clipPath>
      <path clip-path="url(#make-me-a-hanzi-clip-7)" d="M 390 319 L 397 329 L 429 337 L 477 335" fill="none" id="make-me-a-hanzi-animation-7" stroke-dasharray="221 442" stroke-linecap="round" />
    
      <clipPath id="make-me-a-hanzi-clip-8">
        <path d="M 332 401 L 338 387 Q 342 379 344 362 Q 347 344 348 330 Q 348 314 346 294 Q 345 273 343 254 Q 341 234 338 227 L 332 218 Q 330 212 330 208 L 330 206 Q 330 199 336 188 Q 344 175 347 172 Q 351 170 354 170 L 355 170 Q 359 170 365 177 Q 372 186 386 198 Q 400 212 404 214 L 462 260 Q 465 263 465 265 Q 465 267 464 268 Q 463 271 460 271 Q 459 271 457 270 L 380 242 L 383 313 L 385 338 L 386 356 Q 386 357 389 366 Q 390 373 390 377 L 390 380 Q 389 385 383 389 Q 378 394 371 397 Q 365 400 357 405 C 331 420 321 426 332 401 Z" />
      </clipPath>
      <path clip-path="url(#make-me-a-hanzi-clip-8)" d="M 339 396 L 366 372 L 360 243 L 365 218 L 377 219 L 460 267" fill="none" id="make-me-a-hanzi-animation-8" stroke-dasharray="427 854" stroke-linecap="round" />
    
      <clipPath id="make-me-a-hanzi-clip-9">
        <path d="M 620 337 L 732 353 Q 756 356 760 359 Q 764 361 766 364 Q 767 366 767 369 Q 766 372 764 376 Q 761 379 750 385 Q 740 390 732 391 L 730 391 Q 721 391 687 382 L 622 366 C 593 359 590 333 620 337 Z" />
      </clipPath>
      <path clip-path="url(#make-me-a-hanzi-clip-9)" d="M 626 344 L 645 357 L 701 368 L 757 368" fill="none" id="make-me-a-hanzi-animation-9" stroke-dasharray="264 528" stroke-linecap="round" />
    
      <clipPath id="make-me-a-hanzi-clip-10">
        <path d="M 564 431 L 574 412 Q 574 410 577 394 Q 579 378 580 371 L 582 318 Q 582 300 588 288 Q 594 277 614 264 Q 634 252 674 248 Q 707 245 729 245 L 740 245 Q 768 245 788 250 Q 808 254 825 263 Q 842 271 846 278 Q 850 284 850 288 L 850 290 Q 850 294 844 304 Q 837 312 830 328 Q 824 343 822 354 L 817 382 Q 816 390 810 391 Q 806 391 804 384 L 798 346 Q 794 319 786 308 Q 778 298 763 292 Q 748 286 716 286 Q 692 286 674 288 Q 656 290 642 294 Q 628 298 625 302 Q 621 306 620 316 L 620 337 L 622 366 L 624 384 Q 624 388 627 396 Q 630 404 630 408 L 630 410 Q 630 416 616 422 Q 602 428 586 434 C 558 445 556 445 564 431 Z" />
      </clipPath>
      <path clip-path="url(#make-me-a-hanzi-clip-10)" d="M 570 428 L 602 401 L 600 325 L 606 296 L 619 283 L 667 268 L 758 267 L 807 287 L 814 293 L 811 384" fill="none" id="make-me-a-hanzi-animation-10" stroke-dasharray="588 1176" stroke-linecap="round" />
    
      <clipPath id="make-me-a-hanzi-clip-11">
        <path d="M 558 268 L 568 277 L 568 278 Q 568 280 567 284 Q 564 290 556 299 Q 548 307 532 320 Q 521 328 516 328 L 515 328 Q 510 327 508 325 Q 506 322 506 314 Q 506 305 500 288 Q 494 271 471 243 Q 448 215 422 188 Q 396 160 366 134 Q 338 107 316 91 L 243 42 L 224 30 Q 217 26 217 21 L 217 20 Q 218 17 221 17 Q 225 17 230 19 L 250 26 Q 280 38 314 54 Q 347 72 378 96 L 431 138 L 446 152 L 488 194 Q 498 204 539 250 L 558 268 Z" />
      </clipPath>
      <path clip-path="url(#make-me-a-hanzi-clip-11)" d="M 515 318 L 530 283 L 501 241 L 447 182 L 338 86 L 221 21" fill="none" id="make-me-a-hanzi-animation-11" stroke-dasharray="576 1152" stroke-linecap="round" />
    
      <clipPath id="make-me-a-hanzi-clip-12">
        <path d="M 539 250 L 594 212 Q 600 208 652 166 L 740 98 Q 775 72 792 64 Q 809 56 827 56 Q 838 56 854 59 Q 870 62 892 67 L 964 83 Q 973 85 973 89 L 973 90 Q 972 96 963 98 L 920 108 Q 886 116 859 123 Q 833 130 799 142 Q 764 155 729 172 Q 693 188 648 216 L 594 247 L 558 268 C 532 283 514 267 539 250 Z" />
      </clipPath>
      <path clip-path="url(#make-me-a-hanzi-clip-12)" d="M 547 251 L 560 252 L 739 135 L 818 95 L 966 90" fill="none" id="make-me-a-hanzi-animation-12" stroke-dasharray="592 1184" stroke-linecap="round" />
    
      <clipPath id="make-me-a-hanzi-clip-13">
        <path d="M 431 138 L 442 132 Q 446 128 458 124 Q 465 122 473 122 Q 478 122 483 123 L 513 128 L 558 136 L 615 146 Q 639 150 639 157 Q 638 164 631 168 Q 624 173 615 176 Q 605 178 597 180 Q 588 182 584 182 Q 577 182 562 177 Q 548 172 525 167 Q 502 162 486 159 L 446 152 C 416 147 415 147 431 138 Z" />
      </clipPath>
      <path clip-path="url(#make-me-a-hanzi-clip-13)" d="M 438 138 L 503 143 L 588 162 L 630 159" fill="none" id="make-me-a-hanzi-animation-13" stroke-dasharray="322 644" stroke-linecap="round" />
    
      <clipPath id="make-me-a-hanzi-clip-14">
        <path d="M 514 71 L 405 60 Q 399 58 397 55 Q 396 54 396 53 Q 396 50 399 47 Q 404 42 414 37 Q 424 33 435 31 Q 442 29 449 29 Q 454 29 458 30 L 514 36 L 558 41 L 660 54 Q 674 56 680 59 Q 686 62 687 66 Q 687 68 683 73 Q 678 78 667 82 Q 656 87 647 89 Q 638 90 632 90 L 606 86 L 558 77 L 514 71 Z" />
      </clipPath>
      <path clip-path="url(#make-me-a-hanzi-clip-14)" d="M 401 52 L 452 47 L 628 70 L 680 66" fill="none" id="make-me-a-hanzi-animation-14" stroke-dasharray="409 818" stroke-linecap="round" />
    
      <clipPath id="make-me-a-hanzi-clip-15">
        <path d="M 513 128 L 514 71 L 514 36 L 516 -94 C 516 -124 556 -122 556 -92 L 558 41 L 558 77 L 558 136 C 558 166 512 158 513 128 Z" />
      </clipPath>
      <path clip-path="url(#make-me-a-hanzi-clip-15)" d="M 552 129 L 535 107 L 536 -70 L 522 -87" fill="none" id="make-me-a-hanzi-animation-15" stroke-dasharray="355 710" stroke-linecap="round" />
    
      <clipPath id="make-me-a-hanzi-clip-16">
        <path d="M 386 -30 Q 390 -40 402 -57 Q 415 -74 420 -80 Q 431 -92 440 -92 L 442 -92 Q 451 -91 457 -80 Q 463 -71 463 -59 L 463 -55 Q 462 -41 455 -31 Q 448 -21 435 -14 Q 422 -8 409 -4 L 386 2 L 382 2 Q 378 2 376 0 Q 375 -1 375 -3 Q 375 -7 378 -12 L 386 -30 Z" />
      </clipPath>
      <path clip-path="url(#make-me-a-hanzi-clip-16)" d="M 380 -3 L 432 -49 L 441 -78" fill="none" id="make-me-a-hanzi-animation-16" stroke-dasharray="228 456" stroke-linecap="round" />
    
      <clipPath id="make-me-a-hanzi-clip-17">
        <path d="M 619 -74 L 650 -48 L 674 -26 Q 684 -18 690 -14 L 698 -11 Q 705 -8 706 -4 Q 707 -3 707 -2 Q 707 2 702 8 Q 696 16 683 23 Q 670 31 662 35 Q 654 38 650 38 Q 647 38 646 37 Q 644 34 644 30 L 641 14 L 635 -7 Q 632 -17 626 -30 L 610 -64 Q 607 -69 607 -72 Q 607 -73 608 -74 Q 609 -75 612 -75 Q 615 -75 619 -74 Z" />
      </clipPath>
      <path clip-path="url(#make-me-a-hanzi-clip-17)" d="M 649 32 L 665 1 L 611 -71" fill="none" id="make-me-a-hanzi-animation-17" stroke-dasharray="253 506" stroke-linecap="round" />
    
      <clipPath id="make-me-a-hanzi-clip-18">
        <path d="M 516 -94 L 442 -100 Q 414 -103 364 -106 Q 314 -110 284 -110 L 260 -112 Q 250 -112 248 -116 L 248 -118 Q 248 -122 252 -127 Q 258 -134 274 -142 Q 290 -150 301 -152 Q 308 -155 318 -155 Q 323 -155 328 -154 Q 332 -153 347 -150 Q 362 -146 389 -142 Q 415 -138 440 -136 Q 464 -134 524 -130 Q 584 -126 602 -125 Q 620 -124 669 -123 Q 718 -122 733 -122 L 815 -123 L 822 -123 Q 829 -123 834 -122 Q 840 -120 843 -115 Q 844 -114 844 -112 Q 844 -108 839 -102 Q 832 -94 811 -84 Q 790 -74 783 -72 Q 777 -70 770 -68 Q 758 -68 736 -72 Q 713 -76 692 -79 Q 670 -82 650 -83 L 556 -92 L 516 -94 Z" />
      </clipPath>
      <path clip-path="url(#make-me-a-hanzi-clip-18)" d="M 255 -117 L 274 -126 L 321 -132 L 410 -120 L 758 -95 L 835 -110" fill="none" id="make-me-a-hanzi-animation-18" stroke-dasharray="714 1428" stroke-linecap="round" />
    
  </g>
</svg>