<svg xmlns="http://www.w3.org/2000/svg" version="1.1" viewBox="0 0 1024 1024">
  <g stroke="lightgray" stroke-dasharray="1,1" stroke-width="1" transform="scale(4, 4)">
    <line x1="0" y1="0" x2="256" y2="256" />
    <line x1="256" y1="0" x2="0" y2="256" />
    <line x1="128" y1="0" x2="128" y2="256" />
    <line x1="0" y1="128" x2="256" y2="128" />
  </g>
  <g transform="scale(1.0, -1.0) translate(0.0, -788.50)">
    <style type="text/css">
      
        @keyframes keyframes0 {
          from {
            stroke: blue;
            stroke-dashoffset: 786;
            stroke-width: 128;
          }
          72% {
            animation-timing-function: step-end;
            stroke: blue;
            stroke-dashoffset: 0;
            stroke-width: 128;
          }
          to {
            stroke: black;
            stroke-width: 1024;
          }
        }
        #make-me-a-hanzi-animation-0 {
          animation: keyframes0 0.8896484375s both;
          animation-delay: 0s;
          animation-timing-function: linear;
        }
      
        @keyframes keyframes1 {
          from {
            stroke: blue;
            stroke-dashoffset: 378;
            stroke-width: 128;
          }
          55% {
            animation-timing-function: step-end;
            stroke: blue;
            stroke-dashoffset: 0;
            stroke-width: 128;
          }
          to {
            stroke: black;
            stroke-width: 1024;
          }
        }
        #make-me-a-hanzi-animation-1 {
          animation: keyframes1 0.5576171875s both;
          animation-delay: 0.8896484375s;
          animation-timing-function: linear;
        }
      
        @keyframes keyframes2 {
          from {
            stroke: blue;
            stroke-dashoffset: 446;
            stroke-width: 128;
          }
          59% {
            animation-timing-function: step-end;
            stroke: blue;
            stroke-dashoffset: 0;
            stroke-width: 128;
          }
          to {
            stroke: black;
            stroke-width: 1024;
          }
        }
        #make-me-a-hanzi-animation-2 {
          animation: keyframes2 0.6129557291666666s both;
          animation-delay: 1.447265625s;
          animation-timing-function: linear;
        }
      
        @keyframes keyframes3 {
          from {
            stroke: blue;
            stroke-dashoffset: 520;
            stroke-width: 128;
          }
          63% {
            animation-timing-function: step-end;
            stroke: blue;
            stroke-dashoffset: 0;
            stroke-width: 128;
          }
          to {
            stroke: black;
            stroke-width: 1024;
          }
        }
        #make-me-a-hanzi-animation-3 {
          animation: keyframes3 0.6731770833333334s both;
          animation-delay: 2.0602213541666665s;
          animation-timing-function: linear;
        }
      
        @keyframes keyframes4 {
          from {
            stroke: blue;
            stroke-dashoffset: 567;
            stroke-width: 128;
          }
          65% {
            animation-timing-function: step-end;
            stroke: blue;
            stroke-dashoffset: 0;
            stroke-width: 128;
          }
          to {
            stroke: black;
            stroke-width: 1024;
          }
        }
        #make-me-a-hanzi-animation-4 {
          animation: keyframes4 0.71142578125s both;
          animation-delay: 2.7333984375s;
          animation-timing-function: linear;
        }
      
        @keyframes keyframes5 {
          from {
            stroke: blue;
            stroke-dashoffset: 354;
            stroke-width: 128;
          }
          54% {
            animation-timing-function: step-end;
            stroke: blue;
            stroke-dashoffset: 0;
            stroke-width: 128;
          }
          to {
            stroke: black;
            stroke-width: 1024;
          }
        }
        #make-me-a-hanzi-animation-5 {
          animation: keyframes5 0.5380859375s both;
          animation-delay: 3.44482421875s;
          animation-timing-function: linear;
        }
      
        @keyframes keyframes6 {
          from {
            stroke: blue;
            stroke-dashoffset: 380;
            stroke-width: 128;
          }
          55% {
            animation-timing-function: step-end;
            stroke: blue;
            stroke-dashoffset: 0;
            stroke-width: 128;
          }
          to {
            stroke: black;
            stroke-width: 1024;
          }
        }
        #make-me-a-hanzi-animation-6 {
          animation: keyframes6 0.5592447916666666s both;
          animation-delay: 3.98291015625s;
          animation-timing-function: linear;
        }
      
        @keyframes keyframes7 {
          from {
            stroke: blue;
            stroke-dashoffset: 607;
            stroke-width: 128;
          }
          66% {
            animation-timing-function: step-end;
            stroke: blue;
            stroke-dashoffset: 0;
            stroke-width: 128;
          }
          to {
            stroke: black;
            stroke-width: 1024;
          }
        }
        #make-me-a-hanzi-animation-7 {
          animation: keyframes7 0.7439778645833334s both;
          animation-delay: 4.542154947916667s;
          animation-timing-function: linear;
        }
      
        @keyframes keyframes8 {
          from {
            stroke: blue;
            stroke-dashoffset: 743;
            stroke-width: 128;
          }
          71% {
            animation-timing-function: step-end;
            stroke: blue;
            stroke-dashoffset: 0;
            stroke-width: 128;
          }
          to {
            stroke: black;
            stroke-width: 1024;
          }
        }
        #make-me-a-hanzi-animation-8 {
          animation: keyframes8 0.8546549479166666s both;
          animation-delay: 5.2861328125s;
          animation-timing-function: linear;
        }
      
        @keyframes keyframes9 {
          from {
            stroke: blue;
            stroke-dashoffset: 800;
            stroke-width: 128;
          }
          72% {
            animation-timing-function: step-end;
            stroke: blue;
            stroke-dashoffset: 0;
            stroke-width: 128;
          }
          to {
            stroke: black;
            stroke-width: 1024;
          }
        }
        #make-me-a-hanzi-animation-9 {
          animation: keyframes9 0.9010416666666666s both;
          animation-delay: 6.140787760416667s;
          animation-timing-function: linear;
        }
      
        @keyframes keyframes10 {
          from {
            stroke: blue;
            stroke-dashoffset: 566;
            stroke-width: 128;
          }
          65% {
            animation-timing-function: step-end;
            stroke: blue;
            stroke-dashoffset: 0;
            stroke-width: 128;
          }
          to {
            stroke: black;
            stroke-width: 1024;
          }
        }
        #make-me-a-hanzi-animation-10 {
          animation: keyframes10 0.7106119791666666s both;
          animation-delay: 7.041829427083334s;
          animation-timing-function: linear;
        }
      
        @keyframes keyframes11 {
          from {
            stroke: blue;
            stroke-dashoffset: 534;
            stroke-width: 128;
          }
          63% {
            animation-timing-function: step-end;
            stroke: blue;
            stroke-dashoffset: 0;
            stroke-width: 128;
          }
          to {
            stroke: black;
            stroke-width: 1024;
          }
        }
        #make-me-a-hanzi-animation-11 {
          animation: keyframes11 0.6845703125s both;
          animation-delay: 7.752441406250001s;
          animation-timing-function: linear;
        }
      
        @keyframes keyframes12 {
          from {
            stroke: blue;
            stroke-dashoffset: 507;
            stroke-width: 128;
          }
          62% {
            animation-timing-function: step-end;
            stroke: blue;
            stroke-dashoffset: 0;
            stroke-width: 128;
          }
          to {
            stroke: black;
            stroke-width: 1024;
          }
        }
        #make-me-a-hanzi-animation-12 {
          animation: keyframes12 0.66259765625s both;
          animation-delay: 8.43701171875s;
          animation-timing-function: linear;
        }
      
        @keyframes keyframes13 {
          from {
            stroke: blue;
            stroke-dashoffset: 1087;
            stroke-width: 128;
          }
          78% {
            animation-timing-function: step-end;
            stroke: blue;
            stroke-dashoffset: 0;
            stroke-width: 128;
          }
          to {
            stroke: black;
            stroke-width: 1024;
          }
        }
        #make-me-a-hanzi-animation-13 {
          animation: keyframes13 1.1346028645833333s both;
          animation-delay: 9.099609375s;
          animation-timing-function: linear;
        }
      
        @keyframes keyframes14 {
          from {
            stroke: blue;
            stroke-dashoffset: 700;
            stroke-width: 128;
          }
          69% {
            animation-timing-function: step-end;
            stroke: blue;
            stroke-dashoffset: 0;
            stroke-width: 128;
          }
          to {
            stroke: black;
            stroke-width: 1024;
          }
        }
        #make-me-a-hanzi-animation-14 {
          animation: keyframes14 0.8196614583333334s both;
          animation-delay: 10.234212239583334s;
          animation-timing-function: linear;
        }
      
        @keyframes keyframes15 {
          from {
            stroke: blue;
            stroke-dashoffset: 350;
            stroke-width: 128;
          }
          53% {
            animation-timing-function: step-end;
            stroke: blue;
            stroke-dashoffset: 0;
            stroke-width: 128;
          }
          to {
            stroke: black;
            stroke-width: 1024;
          }
        }
        #make-me-a-hanzi-animation-15 {
          animation: keyframes15 0.5348307291666666s both;
          animation-delay: 11.053873697916668s;
          animation-timing-function: linear;
        }
      
        @keyframes keyframes16 {
          from {
            stroke: blue;
            stroke-dashoffset: 346;
            stroke-width: 128;
          }
          53% {
            animation-timing-function: step-end;
            stroke: blue;
            stroke-dashoffset: 0;
            stroke-width: 128;
          }
          to {
            stroke: black;
            stroke-width: 1024;
          }
        }
        #make-me-a-hanzi-animation-16 {
          animation: keyframes16 0.5315755208333334s both;
          animation-delay: 11.588704427083334s;
          animation-timing-function: linear;
        }
      
        @keyframes keyframes17 {
          from {
            stroke: blue;
            stroke-dashoffset: 488;
            stroke-width: 128;
          }
          61% {
            animation-timing-function: step-end;
            stroke: blue;
            stroke-dashoffset: 0;
            stroke-width: 128;
          }
          to {
            stroke: black;
            stroke-width: 1024;
          }
        }
        #make-me-a-hanzi-animation-17 {
          animation: keyframes17 0.6471354166666666s both;
          animation-delay: 12.120279947916668s;
          animation-timing-function: linear;
        }
      
        @keyframes keyframes18 {
          from {
            stroke: blue;
            stroke-dashoffset: 762;
            stroke-width: 128;
          }
          71% {
            animation-timing-function: step-end;
            stroke: blue;
            stroke-dashoffset: 0;
            stroke-width: 128;
          }
          to {
            stroke: black;
            stroke-width: 1024;
          }
        }
        #make-me-a-hanzi-animation-18 {
          animation: keyframes18 0.8701171875s both;
          animation-delay: 12.767415364583334s;
          animation-timing-function: linear;
        }
      
        @keyframes keyframes19 {
          from {
            stroke: blue;
            stroke-dashoffset: 436;
            stroke-width: 128;
          }
          59% {
            animation-timing-function: step-end;
            stroke: blue;
            stroke-dashoffset: 0;
            stroke-width: 128;
          }
          to {
            stroke: black;
            stroke-width: 1024;
          }
        }
        #make-me-a-hanzi-animation-19 {
          animation: keyframes19 0.6048177083333334s both;
          animation-delay: 13.637532552083334s;
          animation-timing-function: linear;
        }
      
        @keyframes keyframes20 {
          from {
            stroke: blue;
            stroke-dashoffset: 328;
            stroke-width: 128;
          }
          52% {
            animation-timing-function: step-end;
            stroke: blue;
            stroke-dashoffset: 0;
            stroke-width: 128;
          }
          to {
            stroke: black;
            stroke-width: 1024;
          }
        }
        #make-me-a-hanzi-animation-20 {
          animation: keyframes20 0.5169270833333334s both;
          animation-delay: 14.242350260416668s;
          animation-timing-function: linear;
        }
      
        @keyframes keyframes21 {
          from {
            stroke: blue;
            stroke-dashoffset: 418;
            stroke-width: 128;
          }
          58% {
            animation-timing-function: step-end;
            stroke: blue;
            stroke-dashoffset: 0;
            stroke-width: 128;
          }
          to {
            stroke: black;
            stroke-width: 1024;
          }
        }
        #make-me-a-hanzi-animation-21 {
          animation: keyframes21 0.5901692708333334s both;
          animation-delay: 14.759277343750002s;
          animation-timing-function: linear;
        }
      
    </style>
    
      <path d="M 196 376 L 205 388 Q 208 399 212 404 Q 216 409 228 428 L 258 480 L 285 538 Q 296 556 298 568 Q 301 572 304 580 L 313 602 L 322 618 Q 332 626 332 631 Q 332 651 304 669 Q 297 675 286 681 Q 275 686 272 686 Q 270 686 262 682 L 260 672 L 263 650 Q 265 639 260 621 Q 252 579 235 541 L 207 482 L 174 421 L 110 324 L 81 287 L 41 239 Q 33 229 36 225 Q 40 221 54 228 L 73 242 Q 79 244 106 270 Q 133 295 145 310 L 159 326 L 183 358 L 196 376 Z" fill="lightgray" />
    
      <path d="M 304 580 L 370 511 Q 386 492 397 492 Q 409 492 414 503 Q 420 514 420 526 Q 421 537 416 550 Q 411 562 397 569 Q 383 576 356 587 L 313 602 C 285 612 283 602 304 580 Z" fill="lightgray" />
    
      <path d="M 208 350 L 225 348 Q 230 348 240 350 L 296 362 L 365 378 Q 384 381 384 392 Q 382 399 365 407 Q 348 414 339 414 L 252 387 L 206 378 Q 204 376 196 376 C 166 374 156 370 183 358 L 192 354 L 208 350 Z" fill="lightgray" />
    
      <path d="M 253 268 L 208 258 L 162 252 Q 148 250 141 250 Q 135 249 132 246 Q 128 245 130 239 Q 130 232 140 228 Q 150 223 160 222 L 177 218 Q 185 216 207 221 L 254 230 L 305 239 L 393 256 Q 407 261 408 268 Q 408 277 387 284 L 369 290 Q 356 293 338 290 L 307 281 L 253 268 Z" fill="lightgray" />
    
      <path d="M 240 350 L 246 328 Q 253 302 253 283 L 253 268 L 254 230 L 256 49 C 256 19 299 30 300 60 L 305 239 L 307 281 L 308 301 Q 309 314 314 331 Q 320 347 313 352 Q 307 356 296 362 C 270 377 232 379 240 350 Z" fill="lightgray" />
    
      <path d="M 179 154 L 161 162 Q 141 172 132 168 Q 123 164 141 129 Q 144 122 159 101 L 176 79 Q 198 53 213 80 Q 224 113 209 134 Q 202 145 179 154 Z" fill="lightgray" />
    
      <path d="M 334 90 L 380 128 Q 389 134 388 135 L 416 158 Q 432 169 415 182 Q 406 187 399 194 Q 392 200 380 204 Q 369 208 367 206 L 364 200 Q 364 191 359 178 Q 355 164 354 157 Q 350 150 346 136 L 329 102 Q 325 95 327 91 Q 329 87 334 90 Z" fill="lightgray" />
    
      <path d="M 256 49 L 178 29 Q 168 26 150 24 L 124 22 Q 116 21 100 23 Q 85 24 80 26 Q 72 26 68 22 Q 66 9 88 -12 L 108 -29 Q 117 -36 130 -41 Q 143 -47 151 -44 L 164 -35 Q 178 -25 192 -19 L 221 -6 L 406 65 Q 420 69 417 79 Q 414 88 404 85 L 300 60 L 256 49 Z" fill="lightgray" />
    
      <path d="M 801 422 L 822 499 L 834 539 L 839 554 L 854 586 Q 858 589 856 595 Q 856 606 828 620 Q 815 628 810 629 L 799 632 Q 797 633 732 618 Q 717 618 713 614 L 688 610 L 645 604 L 631 602 Q 619 600 605 599 L 542 591 L 510 589 L 497 587 Q 493 587 490 580 Q 487 573 501 567 Q 514 562 522 562 L 550 563 L 599 570 L 646 575 L 687 579 L 726 585 Q 770 593 782 579 Q 785 574 782 554 L 778 531 L 771 496 L 761 434 C 756 404 793 393 801 422 Z" fill="lightgray" />
    
      <path d="M 822 499 L 859 502 L 967 505 Q 997 507 976 529 Q 966 541 947 547 Q 928 553 913 553 L 846 540 L 834 539 L 778 531 L 753 527 L 686 521 L 645 516 L 622 513 Q 608 509 537 501 L 471 494 Q 431 489 429 488 Q 428 486 431 478 Q 438 468 458 461 Q 478 454 485 456 L 609 479 L 644 483 L 686 487 L 753 493 L 771 496 L 822 499 Z" fill="lightgray" />
    
      <path d="M 683 390 L 795 400 Q 804 400 810 406 Q 811 412 801 422 C 788 438 788 438 761 434 L 715 427 L 684 423 L 643 416 L 548 404 L 514 402 L 500 400 Q 493 399 491 397 Q 490 395 497 386 Q 513 368 533 368 Q 538 368 563 374 L 643 385 L 683 390 Z" fill="lightgray" />
    
      <path d="M 683 310 L 726 314 L 787 322 Q 804 324 808 328 Q 812 336 810 340 L 804 347 Q 796 352 781 354 L 757 355 L 683 345 L 642 340 L 580 332 L 535 329 Q 529 329 520 327 Q 512 325 515 317 Q 521 301 561 301 Q 577 301 616 304 L 631 305 Q 636 304 642 306 L 683 310 Z" fill="lightgray" />
    
      <path d="M 738 106 L 790 112 Q 797 112 796 120 Q 796 123 775 136 L 762 142 Q 755 144 742 142 L 680 131 L 640 128 L 552 120 Q 549 119 535 119 Q 529 114 531 113 L 539 102 L 555 92 Q 560 89 581 89 L 607 95 L 639 100 L 680 103 L 738 106 Z" fill="lightgray" />
    
      <path d="M 680 131 L 683 310 L 683 345 L 683 390 L 684 423 L 686 487 L 686 521 L 687 579 L 688 610 L 690 623 Q 694 642 694 648 Q 694 654 703 667 Q 703 672 695 681 Q 687 690 679 693 Q 645 708 634 706 Q 616 702 626 685 L 632 672 Q 633 672 635 666 L 638 656 Q 640 644 640 634 Q 641 624 644 618 L 645 604 L 646 575 L 645 516 L 644 483 L 643 416 L 643 385 L 642 340 L 642 306 L 640 128 L 639 100 L 638 42 L 634 23 L 632 6 Q 629 -21 624 -37 Q 619 -54 619 -59 Q 618 -62 621 -80 Q 624 -98 635 -115 Q 646 -132 652 -132 Q 659 -134 668 -119 Q 677 -105 681 -68 L 679 7 L 680 103 L 680 131 Z" fill="lightgray" />
    
      <path d="M 471 43 L 471 61 L 474 74 L 481 143 L 480 170 L 481 229 Q 481 243 484 255 L 491 280 Q 493 286 493 292 Q 490 305 478 309 L 437 320 Q 428 320 426 316 Q 425 312 431 296 Q 437 279 437 188 L 437 131 Q 435 105 436 91 Q 437 77 426 36 Q 405 -23 391 -54 Q 382 -74 399 -116 Q 406 -130 418 -126 Q 429 -119 441 -88 L 458 -45 Q 461 -37 471 24 L 471 43 Z" fill="lightgray" />
    
      <path d="M 579 177 L 584 214 Q 585 225 589 233 Q 594 240 594 243 Q 595 246 586 255 Q 565 270 553 270 Q 542 270 540 268 Q 538 263 539 260 L 539 258 Q 541 254 541 244 Q 544 239 544 228 L 545 205 Q 547 184 543 181 C 528 155 575 147 579 177 Z" fill="lightgray" />
    
      <path d="M 481 143 L 546 148 Q 569 151 574 156 Q 579 161 579 177 C 580 207 565 201 543 181 Q 540 177 534 177 L 480 170 C 450 166 451 141 481 143 Z" fill="lightgray" />
    
      <path d="M 498 48 L 471 43 C 442 38 441 23 471 24 L 522 26 Q 535 26 539 24 Q 543 22 541 3 L 537 -27 Q 535 -39 530 -54 Q 525 -70 525 -79 Q 525 -89 537 -104 Q 543 -118 550 -118 Q 562 -118 566 -91 L 566 -77 Q 566 -70 568 -64 L 569 -12 Q 571 -10 571 3 Q 571 16 576 23 L 585 37 Q 586 38 586 43 Q 586 47 580 51 L 565 63 Q 556 70 537 61 L 498 48 Z" fill="lightgray" />
    
      <path d="M 852 58 L 850 13 Q 850 7 846 -28 L 839 -82 Q 839 -87 842 -103 Q 845 -119 850 -128 Q 855 -137 857 -143 Q 866 -151 869 -152 Q 879 -155 885 -141 Q 892 -127 893 -101 Q 895 -91 895 -76 L 897 238 Q 897 275 898 288 Q 899 300 904 314 Q 910 328 908 333 Q 906 337 894 344 L 878 353 Q 875 356 867 356 Q 839 368 834 358 Q 832 357 837 344 Q 852 318 852 254 L 853 218 L 854 198 L 852 83 L 852 58 Z" fill="lightgray" />
    
      <path d="M 853 218 L 791 212 Q 787 211 783 215 Q 779 218 782 228 L 784 240 Q 785 262 787 264 L 789 275 L 782 282 Q 778 286 764 290 Q 749 298 742 290 Q 740 288 743 273 L 748 253 Q 748 224 741 212 Q 734 200 734 192 Q 734 183 748 169 Q 754 164 757 165 Q 761 165 768 172 Q 800 190 823 192 L 854 198 C 883 204 883 221 853 218 Z" fill="lightgray" />
    
      <path d="M 780 47 L 840 57 Q 848 57 852 58 C 882 63 881 77 852 83 L 833 87 L 819 85 L 770 68 C 742 58 750 42 780 47 Z" fill="lightgray" />
    
      <path d="M 740 46 L 744 21 L 744 -23 L 740 -52 Q 740 -76 747 -86 Q 754 -96 757 -94 Q 772 -90 774 -62 L 778 -38 L 780 47 C 780 66 780 66 770 68 L 742 73 Q 726 75 726 64 Q 726 61 729 58 L 740 46 Z" fill="lightgray" />
    
    
      <clipPath id="make-me-a-hanzi-clip-0">
        <path d="M 196 376 L 205 388 Q 208 399 212 404 Q 216 409 228 428 L 258 480 L 285 538 Q 296 556 298 568 Q 301 572 304 580 L 313 602 L 322 618 Q 332 626 332 631 Q 332 651 304 669 Q 297 675 286 681 Q 275 686 272 686 Q 270 686 262 682 L 260 672 L 263 650 Q 265 639 260 621 Q 252 579 235 541 L 207 482 L 174 421 L 110 324 L 81 287 L 41 239 Q 33 229 36 225 Q 40 221 54 228 L 73 242 Q 79 244 106 270 Q 133 295 145 310 L 159 326 L 183 358 L 196 376 Z" />
      </clipPath>
      <path clip-path="url(#make-me-a-hanzi-clip-0)" d="M 271 675 L 295 636 L 271 564 L 228 471 L 135 326 L 70 254 L 41 231" fill="none" id="make-me-a-hanzi-animation-0" stroke-dasharray="658 1316" stroke-linecap="round" />
    
      <clipPath id="make-me-a-hanzi-clip-1">
        <path d="M 304 580 L 370 511 Q 386 492 397 492 Q 409 492 414 503 Q 420 514 420 526 Q 421 537 416 550 Q 411 562 397 569 Q 383 576 356 587 L 313 602 C 285 612 283 602 304 580 Z" />
      </clipPath>
      <path clip-path="url(#make-me-a-hanzi-clip-1)" d="M 318 594 L 322 583 L 389 536 L 398 509" fill="none" id="make-me-a-hanzi-animation-1" stroke-dasharray="250 500" stroke-linecap="round" />
    
      <clipPath id="make-me-a-hanzi-clip-2">
        <path d="M 208 350 L 225 348 Q 230 348 240 350 L 296 362 L 365 378 Q 384 381 384 392 Q 382 399 365 407 Q 348 414 339 414 L 252 387 L 206 378 Q 204 376 196 376 C 166 374 156 370 183 358 L 192 354 L 208 350 Z" />
      </clipPath>
      <path clip-path="url(#make-me-a-hanzi-clip-2)" d="M 189 360 L 258 370 L 338 393 L 375 391" fill="none" id="make-me-a-hanzi-animation-2" stroke-dasharray="318 636" stroke-linecap="round" />
    
      <clipPath id="make-me-a-hanzi-clip-3">
        <path d="M 253 268 L 208 258 L 162 252 Q 148 250 141 250 Q 135 249 132 246 Q 128 245 130 239 Q 130 232 140 228 Q 150 223 160 222 L 177 218 Q 185 216 207 221 L 254 230 L 305 239 L 393 256 Q 407 261 408 268 Q 408 277 387 284 L 369 290 Q 356 293 338 290 L 307 281 L 253 268 Z" />
      </clipPath>
      <path clip-path="url(#make-me-a-hanzi-clip-3)" d="M 140 240 L 195 236 L 348 270 L 400 269" fill="none" id="make-me-a-hanzi-animation-3" stroke-dasharray="392 784" stroke-linecap="round" />
    
      <clipPath id="make-me-a-hanzi-clip-4">
        <path d="M 240 350 L 246 328 Q 253 302 253 283 L 253 268 L 254 230 L 256 49 C 256 19 299 30 300 60 L 305 239 L 307 281 L 308 301 Q 309 314 314 331 Q 320 347 313 352 Q 307 356 296 362 C 270 377 232 379 240 350 Z" />
      </clipPath>
      <path clip-path="url(#make-me-a-hanzi-clip-4)" d="M 248 346 L 279 325 L 280 312 L 279 83 L 262 57" fill="none" id="make-me-a-hanzi-animation-4" stroke-dasharray="439 878" stroke-linecap="round" />
    
      <clipPath id="make-me-a-hanzi-clip-5">
        <path d="M 179 154 L 161 162 Q 141 172 132 168 Q 123 164 141 129 Q 144 122 159 101 L 176 79 Q 198 53 213 80 Q 224 113 209 134 Q 202 145 179 154 Z" />
      </clipPath>
      <path clip-path="url(#make-me-a-hanzi-clip-5)" d="M 138 161 L 186 115 L 196 85" fill="none" id="make-me-a-hanzi-animation-5" stroke-dasharray="226 452" stroke-linecap="round" />
    
      <clipPath id="make-me-a-hanzi-clip-6">
        <path d="M 334 90 L 380 128 Q 389 134 388 135 L 416 158 Q 432 169 415 182 Q 406 187 399 194 Q 392 200 380 204 Q 369 208 367 206 L 364 200 Q 364 191 359 178 Q 355 164 354 157 Q 350 150 346 136 L 329 102 Q 325 95 327 91 Q 329 87 334 90 Z" />
      </clipPath>
      <path clip-path="url(#make-me-a-hanzi-clip-6)" d="M 373 199 L 386 169 L 331 96" fill="none" id="make-me-a-hanzi-animation-6" stroke-dasharray="252 504" stroke-linecap="round" />
    
      <clipPath id="make-me-a-hanzi-clip-7">
        <path d="M 256 49 L 178 29 Q 168 26 150 24 L 124 22 Q 116 21 100 23 Q 85 24 80 26 Q 72 26 68 22 Q 66 9 88 -12 L 108 -29 Q 117 -36 130 -41 Q 143 -47 151 -44 L 164 -35 Q 178 -25 192 -19 L 221 -6 L 406 65 Q 420 69 417 79 Q 414 88 404 85 L 300 60 L 256 49 Z" />
      </clipPath>
      <path clip-path="url(#make-me-a-hanzi-clip-7)" d="M 76 18 L 142 -10 L 408 76" fill="none" id="make-me-a-hanzi-animation-7" stroke-dasharray="479 958" stroke-linecap="round" />
    
      <clipPath id="make-me-a-hanzi-clip-8">
        <path d="M 801 422 L 822 499 L 834 539 L 839 554 L 854 586 Q 858 589 856 595 Q 856 606 828 620 Q 815 628 810 629 L 799 632 Q 797 633 732 618 Q 717 618 713 614 L 688 610 L 645 604 L 631 602 Q 619 600 605 599 L 542 591 L 510 589 L 497 587 Q 493 587 490 580 Q 487 573 501 567 Q 514 562 522 562 L 550 563 L 599 570 L 646 575 L 687 579 L 726 585 Q 770 593 782 579 Q 785 574 782 554 L 778 531 L 771 496 L 761 434 C 756 404 793 393 801 422 Z" />
      </clipPath>
      <path clip-path="url(#make-me-a-hanzi-clip-8)" d="M 499 578 L 543 576 L 747 606 L 798 603 L 816 584 L 786 451 L 797 431" fill="none" id="make-me-a-hanzi-animation-8" stroke-dasharray="615 1230" stroke-linecap="round" />
    
      <clipPath id="make-me-a-hanzi-clip-9">
        <path d="M 822 499 L 859 502 L 967 505 Q 997 507 976 529 Q 966 541 947 547 Q 928 553 913 553 L 846 540 L 834 539 L 778 531 L 753 527 L 686 521 L 645 516 L 622 513 Q 608 509 537 501 L 471 494 Q 431 489 429 488 Q 428 486 431 478 Q 438 468 458 461 Q 478 454 485 456 L 609 479 L 644 483 L 686 487 L 753 493 L 771 496 L 822 499 Z" />
      </clipPath>
      <path clip-path="url(#make-me-a-hanzi-clip-9)" d="M 433 484 L 489 476 L 641 500 L 911 528 L 972 517" fill="none" id="make-me-a-hanzi-animation-9" stroke-dasharray="672 1344" stroke-linecap="round" />
    
      <clipPath id="make-me-a-hanzi-clip-10">
        <path d="M 683 390 L 795 400 Q 804 400 810 406 Q 811 412 801 422 C 788 438 788 438 761 434 L 715 427 L 684 423 L 643 416 L 548 404 L 514 402 L 500 400 Q 493 399 491 397 Q 490 395 497 386 Q 513 368 533 368 Q 538 368 563 374 L 643 385 L 683 390 Z" />
      </clipPath>
      <path clip-path="url(#make-me-a-hanzi-clip-10)" d="M 497 393 L 550 386 L 763 416 L 804 408" fill="none" id="make-me-a-hanzi-animation-10" stroke-dasharray="438 876" stroke-linecap="round" />
    
      <clipPath id="make-me-a-hanzi-clip-11">
        <path d="M 683 310 L 726 314 L 787 322 Q 804 324 808 328 Q 812 336 810 340 L 804 347 Q 796 352 781 354 L 757 355 L 683 345 L 642 340 L 580 332 L 535 329 Q 529 329 520 327 Q 512 325 515 317 Q 521 301 561 301 Q 577 301 616 304 L 631 305 Q 636 304 642 306 L 683 310 Z" />
      </clipPath>
      <path clip-path="url(#make-me-a-hanzi-clip-11)" d="M 524 319 L 553 314 L 752 337 L 800 336" fill="none" id="make-me-a-hanzi-animation-11" stroke-dasharray="406 812" stroke-linecap="round" />
    
      <clipPath id="make-me-a-hanzi-clip-12">
        <path d="M 738 106 L 790 112 Q 797 112 796 120 Q 796 123 775 136 L 762 142 Q 755 144 742 142 L 680 131 L 640 128 L 552 120 Q 549 119 535 119 Q 529 114 531 113 L 539 102 L 555 92 Q 560 89 581 89 L 607 95 L 639 100 L 680 103 L 738 106 Z" />
      </clipPath>
      <path clip-path="url(#make-me-a-hanzi-clip-12)" d="M 540 111 L 573 105 L 749 125 L 789 119" fill="none" id="make-me-a-hanzi-animation-12" stroke-dasharray="379 758" stroke-linecap="round" />
    
      <clipPath id="make-me-a-hanzi-clip-13">
        <path d="M 680 131 L 683 310 L 683 345 L 683 390 L 684 423 L 686 487 L 686 521 L 687 579 L 688 610 L 690 623 Q 694 642 694 648 Q 694 654 703 667 Q 703 672 695 681 Q 687 690 679 693 Q 645 708 634 706 Q 616 702 626 685 L 632 672 Q 633 672 635 666 L 638 656 Q 640 644 640 634 Q 641 624 644 618 L 645 604 L 646 575 L 645 516 L 644 483 L 643 416 L 643 385 L 642 340 L 642 306 L 640 128 L 639 100 L 638 42 L 634 23 L 632 6 Q 629 -21 624 -37 Q 619 -54 619 -59 Q 618 -62 621 -80 Q 624 -98 635 -115 Q 646 -132 652 -132 Q 659 -134 668 -119 Q 677 -105 681 -68 L 679 7 L 680 103 L 680 131 Z" />
      </clipPath>
      <path clip-path="url(#make-me-a-hanzi-clip-13)" d="M 634 694 L 667 665 L 660 69 L 650 -52 L 653 -122" fill="none" id="make-me-a-hanzi-animation-13" stroke-dasharray="959 1918" stroke-linecap="round" />
    
      <clipPath id="make-me-a-hanzi-clip-14">
        <path d="M 471 43 L 471 61 L 474 74 L 481 143 L 480 170 L 481 229 Q 481 243 484 255 L 491 280 Q 493 286 493 292 Q 490 305 478 309 L 437 320 Q 428 320 426 316 Q 425 312 431 296 Q 437 279 437 188 L 437 131 Q 435 105 436 91 Q 437 77 426 36 Q 405 -23 391 -54 Q 382 -74 399 -116 Q 406 -130 418 -126 Q 429 -119 441 -88 L 458 -45 Q 461 -37 471 24 L 471 43 Z" />
      </clipPath>
      <path clip-path="url(#make-me-a-hanzi-clip-14)" d="M 433 313 L 462 281 L 459 138 L 446 17 L 418 -67 L 413 -114" fill="none" id="make-me-a-hanzi-animation-14" stroke-dasharray="572 1144" stroke-linecap="round" />
    
      <clipPath id="make-me-a-hanzi-clip-15">
        <path d="M 579 177 L 584 214 Q 585 225 589 233 Q 594 240 594 243 Q 595 246 586 255 Q 565 270 553 270 Q 542 270 540 268 Q 538 263 539 260 L 539 258 Q 541 254 541 244 Q 544 239 544 228 L 545 205 Q 547 184 543 181 C 528 155 575 147 579 177 Z" />
      </clipPath>
      <path clip-path="url(#make-me-a-hanzi-clip-15)" d="M 547 263 L 567 241 L 563 197 L 549 183" fill="none" id="make-me-a-hanzi-animation-15" stroke-dasharray="222 444" stroke-linecap="round" />
    
      <clipPath id="make-me-a-hanzi-clip-16">
        <path d="M 481 143 L 546 148 Q 569 151 574 156 Q 579 161 579 177 C 580 207 565 201 543 181 Q 540 177 534 177 L 480 170 C 450 166 451 141 481 143 Z" />
      </clipPath>
      <path clip-path="url(#make-me-a-hanzi-clip-16)" d="M 487 150 L 494 158 L 553 163 L 572 171" fill="none" id="make-me-a-hanzi-animation-16" stroke-dasharray="218 436" stroke-linecap="round" />
    
      <clipPath id="make-me-a-hanzi-clip-17">
        <path d="M 498 48 L 471 43 C 442 38 441 23 471 24 L 522 26 Q 535 26 539 24 Q 543 22 541 3 L 537 -27 Q 535 -39 530 -54 Q 525 -70 525 -79 Q 525 -89 537 -104 Q 543 -118 550 -118 Q 562 -118 566 -91 L 566 -77 Q 566 -70 568 -64 L 569 -12 Q 571 -10 571 3 Q 571 16 576 23 L 585 37 Q 586 38 586 43 Q 586 47 580 51 L 565 63 Q 556 70 537 61 L 498 48 Z" />
      </clipPath>
      <path clip-path="url(#make-me-a-hanzi-clip-17)" d="M 477 29 L 482 35 L 540 43 L 558 38 L 545 -76 L 551 -108" fill="none" id="make-me-a-hanzi-animation-17" stroke-dasharray="360 720" stroke-linecap="round" />
    
      <clipPath id="make-me-a-hanzi-clip-18">
        <path d="M 852 58 L 850 13 Q 850 7 846 -28 L 839 -82 Q 839 -87 842 -103 Q 845 -119 850 -128 Q 855 -137 857 -143 Q 866 -151 869 -152 Q 879 -155 885 -141 Q 892 -127 893 -101 Q 895 -91 895 -76 L 897 238 Q 897 275 898 288 Q 899 300 904 314 Q 910 328 908 333 Q 906 337 894 344 L 878 353 Q 875 356 867 356 Q 839 368 834 358 Q 832 357 837 344 Q 852 318 852 254 L 853 218 L 854 198 L 852 83 L 852 58 Z" />
      </clipPath>
      <path clip-path="url(#make-me-a-hanzi-clip-18)" d="M 842 352 L 867 333 L 876 315 L 875 58 L 867 -83 L 872 -139" fill="none" id="make-me-a-hanzi-animation-18" stroke-dasharray="634 1268" stroke-linecap="round" />
    
      <clipPath id="make-me-a-hanzi-clip-19">
        <path d="M 853 218 L 791 212 Q 787 211 783 215 Q 779 218 782 228 L 784 240 Q 785 262 787 264 L 789 275 L 782 282 Q 778 286 764 290 Q 749 298 742 290 Q 740 288 743 273 L 748 253 Q 748 224 741 212 Q 734 200 734 192 Q 734 183 748 169 Q 754 164 757 165 Q 761 165 768 172 Q 800 190 823 192 L 854 198 C 883 204 883 221 853 218 Z" />
      </clipPath>
      <path clip-path="url(#make-me-a-hanzi-clip-19)" d="M 749 286 L 766 263 L 765 197 L 842 206 L 846 213" fill="none" id="make-me-a-hanzi-animation-19" stroke-dasharray="308 616" stroke-linecap="round" />
    
      <clipPath id="make-me-a-hanzi-clip-20">
        <path d="M 780 47 L 840 57 Q 848 57 852 58 C 882 63 881 77 852 83 L 833 87 L 819 85 L 770 68 C 742 58 750 42 780 47 Z" />
      </clipPath>
      <path clip-path="url(#make-me-a-hanzi-clip-20)" d="M 778 65 L 788 60 L 846 77" fill="none" id="make-me-a-hanzi-animation-20" stroke-dasharray="200 400" stroke-linecap="round" />
    
      <clipPath id="make-me-a-hanzi-clip-21">
        <path d="M 740 46 L 744 21 L 744 -23 L 740 -52 Q 740 -76 747 -86 Q 754 -96 757 -94 Q 772 -90 774 -62 L 778 -38 L 780 47 C 780 66 780 66 770 68 L 742 73 Q 726 75 726 64 Q 726 61 729 58 L 740 46 Z" />
      </clipPath>
      <path clip-path="url(#make-me-a-hanzi-clip-21)" d="M 735 65 L 757 52 L 761 40 L 757 -84" fill="none" id="make-me-a-hanzi-animation-21" stroke-dasharray="290 580" stroke-linecap="round" />
    
  </g>
</svg>