<svg xmlns="http://www.w3.org/2000/svg" version="1.1" viewBox="0 0 1024 1024">
  <g stroke="lightgray" stroke-dasharray="1,1" stroke-width="1" transform="scale(4, 4)">
    <line x1="0" y1="0" x2="256" y2="256" />
    <line x1="256" y1="0" x2="0" y2="256" />
    <line x1="128" y1="0" x2="128" y2="256" />
    <line x1="0" y1="128" x2="256" y2="128" />
  </g>
  <g transform="scale(1.0, -1.0) translate(0.0, -852.50)">
    <style type="text/css">
      
        @keyframes keyframes0 {
          from {
            stroke: blue;
            stroke-dashoffset: 797;
            stroke-width: 128;
          }
          72% {
            animation-timing-function: step-end;
            stroke: blue;
            stroke-dashoffset: 0;
            stroke-width: 128;
          }
          to {
            stroke: black;
            stroke-width: 1024;
          }
        }
        #make-me-a-hanzi-animation-0 {
          animation: keyframes0 0.8986002604166666s both;
          animation-delay: 0s;
          animation-timing-function: linear;
        }
      
        @keyframes keyframes1 {
          from {
            stroke: blue;
            stroke-dashoffset: 453;
            stroke-width: 128;
          }
          60% {
            animation-timing-function: step-end;
            stroke: blue;
            stroke-dashoffset: 0;
            stroke-width: 128;
          }
          to {
            stroke: black;
            stroke-width: 1024;
          }
        }
        #make-me-a-hanzi-animation-1 {
          animation: keyframes1 0.61865234375s both;
          animation-delay: 0.8986002604166666s;
          animation-timing-function: linear;
        }
      
        @keyframes keyframes2 {
          from {
            stroke: blue;
            stroke-dashoffset: 477;
            stroke-width: 128;
          }
          61% {
            animation-timing-function: step-end;
            stroke: blue;
            stroke-dashoffset: 0;
            stroke-width: 128;
          }
          to {
            stroke: black;
            stroke-width: 1024;
          }
        }
        #make-me-a-hanzi-animation-2 {
          animation: keyframes2 0.63818359375s both;
          animation-delay: 1.5172526041666665s;
          animation-timing-function: linear;
        }
      
        @keyframes keyframes3 {
          from {
            stroke: blue;
            stroke-dashoffset: 556;
            stroke-width: 128;
          }
          64% {
            animation-timing-function: step-end;
            stroke: blue;
            stroke-dashoffset: 0;
            stroke-width: 128;
          }
          to {
            stroke: black;
            stroke-width: 1024;
          }
        }
        #make-me-a-hanzi-animation-3 {
          animation: keyframes3 0.7024739583333334s both;
          animation-delay: 2.1554361979166665s;
          animation-timing-function: linear;
        }
      
        @keyframes keyframes4 {
          from {
            stroke: blue;
            stroke-dashoffset: 743;
            stroke-width: 128;
          }
          71% {
            animation-timing-function: step-end;
            stroke: blue;
            stroke-dashoffset: 0;
            stroke-width: 128;
          }
          to {
            stroke: black;
            stroke-width: 1024;
          }
        }
        #make-me-a-hanzi-animation-4 {
          animation: keyframes4 0.8546549479166666s both;
          animation-delay: 2.85791015625s;
          animation-timing-function: linear;
        }
      
        @keyframes keyframes5 {
          from {
            stroke: blue;
            stroke-dashoffset: 708;
            stroke-width: 128;
          }
          70% {
            animation-timing-function: step-end;
            stroke: blue;
            stroke-dashoffset: 0;
            stroke-width: 128;
          }
          to {
            stroke: black;
            stroke-width: 1024;
          }
        }
        #make-me-a-hanzi-animation-5 {
          animation: keyframes5 0.826171875s both;
          animation-delay: 3.7125651041666665s;
          animation-timing-function: linear;
        }
      
        @keyframes keyframes6 {
          from {
            stroke: blue;
            stroke-dashoffset: 664;
            stroke-width: 128;
          }
          68% {
            animation-timing-function: step-end;
            stroke: blue;
            stroke-dashoffset: 0;
            stroke-width: 128;
          }
          to {
            stroke: black;
            stroke-width: 1024;
          }
        }
        #make-me-a-hanzi-animation-6 {
          animation: keyframes6 0.7903645833333334s both;
          animation-delay: 4.538736979166666s;
          animation-timing-function: linear;
        }
      
        @keyframes keyframes7 {
          from {
            stroke: blue;
            stroke-dashoffset: 743;
            stroke-width: 128;
          }
          71% {
            animation-timing-function: step-end;
            stroke: blue;
            stroke-dashoffset: 0;
            stroke-width: 128;
          }
          to {
            stroke: black;
            stroke-width: 1024;
          }
        }
        #make-me-a-hanzi-animation-7 {
          animation: keyframes7 0.8546549479166666s both;
          animation-delay: 5.329101562499999s;
          animation-timing-function: linear;
        }
      
        @keyframes keyframes8 {
          from {
            stroke: blue;
            stroke-dashoffset: 703;
            stroke-width: 128;
          }
          70% {
            animation-timing-function: step-end;
            stroke: blue;
            stroke-dashoffset: 0;
            stroke-width: 128;
          }
          to {
            stroke: black;
            stroke-width: 1024;
          }
        }
        #make-me-a-hanzi-animation-8 {
          animation: keyframes8 0.8221028645833334s both;
          animation-delay: 6.183756510416666s;
          animation-timing-function: linear;
        }
      
    </style>
    
      <path d="M 287 527 Q 383 672 385 678 Q 384 681 384 683 Q 380 695 355 716 Q 331 732 314 733 Q 298 732 304 711 Q 317 678 304 650 Q 235 494 62 300 Q 53 290 51 285 Q 48 275 61 277 Q 110 286 269 500 L 287 527 Z" fill="lightgray" />
    
      <path d="M 269 500 Q 317 490 390 510 Q 418 519 450 527 Q 471 534 474 537 Q 481 544 476 553 Q 469 563 439 568 Q 418 571 337 540 Q 313 533 287 527 C 258 520 239 505 269 500 Z" fill="lightgray" />
    
      <path d="M 303 359 Q 349 375 402 390 Q 426 399 430 402 Q 437 411 432 418 Q 425 428 397 431 Q 376 434 306 404 Q 230 383 213 379 Q 180 370 205 357 Q 221 350 265 349 L 303 359 Z" fill="lightgray" />
    
      <path d="M 328 219 Q 443 256 449 262 Q 456 269 452 278 Q 445 288 417 292 Q 392 295 329 266 L 285 248 Q 278 247 272 244 Q 220 228 157 215 Q 124 206 150 193 Q 186 175 256 198 Q 269 202 284 205 L 328 219 Z" fill="lightgray" />
    
      <path d="M 284 205 Q 280 87 243 37 Q 210 7 255 -38 Q 267 -45 277 -30 Q 292 -2 424 114 Q 440 127 444 135 Q 448 144 439 143 Q 427 143 323 80 Q 319 76 316 81 Q 325 157 328 219 L 329 266 Q 329 267 330 268 Q 333 332 333 334 Q 318 349 303 359 C 279 377 254 377 265 349 Q 284 304 285 248 L 284 205 Z" fill="lightgray" />
    
      <path d="M 567 453 Q 603 517 638 609 Q 653 652 668 675 Q 675 687 668 698 Q 662 710 631 726 Q 603 738 584 734 Q 568 730 579 710 Q 595 686 591 662 Q 576 583 545 503 Q 514 428 469 342 Q 462 332 460 325 Q 459 313 472 319 Q 497 331 553 427 L 567 453 Z" fill="lightgray" />
    
      <path d="M 553 427 Q 574 409 597 418 Q 729 478 761 468 Q 777 459 773 449 Q 773 446 731 364 Q 724 354 729 349 Q 733 345 744 355 Q 837 431 880 451 Q 890 454 890 462 Q 891 475 862 489 Q 840 502 817 514 Q 790 527 776 520 Q 698 483 567 453 C 538 446 528 444 553 427 Z" fill="lightgray" />
    
      <path d="M 632 230 Q 644 303 650 315 Q 657 321 651 331 Q 647 338 619 348 Q 589 363 575 358 Q 565 352 573 337 Q 603 247 548 126 L 534 103 Q 495 40 376 -19 Q 354 -32 380 -31 Q 453 -34 541 36 Q 551 48 563 61 Q 599 106 624 195 L 632 230 Z" fill="lightgray" />
    
      <path d="M 624 195 Q 688 86 774 -32 Q 790 -53 821 -53 Q 924 -57 957 -53 Q 967 -52 968 -47 Q 969 -43 956 -34 Q 809 36 744 106 Q 690 161 632 230 C 613 253 609 221 624 195 Z" fill="lightgray" />
    
    
      <clipPath id="make-me-a-hanzi-clip-0">
        <path d="M 287 527 Q 383 672 385 678 Q 384 681 384 683 Q 380 695 355 716 Q 331 732 314 733 Q 298 732 304 711 Q 317 678 304 650 Q 235 494 62 300 Q 53 290 51 285 Q 48 275 61 277 Q 110 286 269 500 L 287 527 Z" />
      </clipPath>
      <path clip-path="url(#make-me-a-hanzi-clip-0)" d="M 315 719 L 335 699 L 345 678 L 292 572 L 190 425 L 112 332 L 59 285" fill="none" id="make-me-a-hanzi-animation-0" stroke-dasharray="669 1338" stroke-linecap="round" />
    
      <clipPath id="make-me-a-hanzi-clip-1">
        <path d="M 269 500 Q 317 490 390 510 Q 418 519 450 527 Q 471 534 474 537 Q 481 544 476 553 Q 469 563 439 568 Q 418 571 337 540 Q 313 533 287 527 C 258 520 239 505 269 500 Z" />
      </clipPath>
      <path clip-path="url(#make-me-a-hanzi-clip-1)" d="M 276 502 L 297 513 L 344 520 L 421 543 L 466 546" fill="none" id="make-me-a-hanzi-animation-1" stroke-dasharray="325 650" stroke-linecap="round" />
    
      <clipPath id="make-me-a-hanzi-clip-2">
        <path d="M 303 359 Q 349 375 402 390 Q 426 399 430 402 Q 437 411 432 418 Q 425 428 397 431 Q 376 434 306 404 Q 230 383 213 379 Q 180 370 205 357 Q 221 350 265 349 L 303 359 Z" />
      </clipPath>
      <path clip-path="url(#make-me-a-hanzi-clip-2)" d="M 207 369 L 256 368 L 373 405 L 422 411" fill="none" id="make-me-a-hanzi-animation-2" stroke-dasharray="349 698" stroke-linecap="round" />
    
      <clipPath id="make-me-a-hanzi-clip-3">
        <path d="M 328 219 Q 443 256 449 262 Q 456 269 452 278 Q 445 288 417 292 Q 392 295 329 266 L 285 248 Q 278 247 272 244 Q 220 228 157 215 Q 124 206 150 193 Q 186 175 256 198 Q 269 202 284 205 L 328 219 Z" />
      </clipPath>
      <path clip-path="url(#make-me-a-hanzi-clip-3)" d="M 151 205 L 208 205 L 405 269 L 441 271" fill="none" id="make-me-a-hanzi-animation-3" stroke-dasharray="428 856" stroke-linecap="round" />
    
      <clipPath id="make-me-a-hanzi-clip-4">
        <path d="M 284 205 Q 280 87 243 37 Q 210 7 255 -38 Q 267 -45 277 -30 Q 292 -2 424 114 Q 440 127 444 135 Q 448 144 439 143 Q 427 143 323 80 Q 319 76 316 81 Q 325 157 328 219 L 329 266 Q 329 267 330 268 Q 333 332 333 334 Q 318 349 303 359 C 279 377 254 377 265 349 Q 284 304 285 248 L 284 205 Z" />
      </clipPath>
      <path clip-path="url(#make-me-a-hanzi-clip-4)" d="M 273 345 L 298 332 L 304 322 L 308 278 L 305 185 L 290 66 L 294 48 L 333 59 L 438 137" fill="none" id="make-me-a-hanzi-animation-4" stroke-dasharray="615 1230" stroke-linecap="round" />
    
      <clipPath id="make-me-a-hanzi-clip-5">
        <path d="M 567 453 Q 603 517 638 609 Q 653 652 668 675 Q 675 687 668 698 Q 662 710 631 726 Q 603 738 584 734 Q 568 730 579 710 Q 595 686 591 662 Q 576 583 545 503 Q 514 428 469 342 Q 462 332 460 325 Q 459 313 472 319 Q 497 331 553 427 L 567 453 Z" />
      </clipPath>
      <path clip-path="url(#make-me-a-hanzi-clip-5)" d="M 587 721 L 624 692 L 629 683 L 624 660 L 565 493 L 512 388 L 468 326" fill="none" id="make-me-a-hanzi-animation-5" stroke-dasharray="580 1160" stroke-linecap="round" />
    
      <clipPath id="make-me-a-hanzi-clip-6">
        <path d="M 553 427 Q 574 409 597 418 Q 729 478 761 468 Q 777 459 773 449 Q 773 446 731 364 Q 724 354 729 349 Q 733 345 744 355 Q 837 431 880 451 Q 890 454 890 462 Q 891 475 862 489 Q 840 502 817 514 Q 790 527 776 520 Q 698 483 567 453 C 538 446 528 444 553 427 Z" />
      </clipPath>
      <path clip-path="url(#make-me-a-hanzi-clip-6)" d="M 564 429 L 727 483 L 768 491 L 796 485 L 816 465 L 806 443 L 733 356" fill="none" id="make-me-a-hanzi-animation-6" stroke-dasharray="536 1072" stroke-linecap="round" />
    
      <clipPath id="make-me-a-hanzi-clip-7">
        <path d="M 632 230 Q 644 303 650 315 Q 657 321 651 331 Q 647 338 619 348 Q 589 363 575 358 Q 565 352 573 337 Q 603 247 548 126 L 534 103 Q 495 40 376 -19 Q 354 -32 380 -31 Q 453 -34 541 36 Q 551 48 563 61 Q 599 106 624 195 L 632 230 Z" />
      </clipPath>
      <path clip-path="url(#make-me-a-hanzi-clip-7)" d="M 582 348 L 614 314 L 614 301 L 602 206 L 572 121 L 548 80 L 505 36 L 450 0 L 387 -22" fill="none" id="make-me-a-hanzi-animation-7" stroke-dasharray="615 1230" stroke-linecap="round" />
    
      <clipPath id="make-me-a-hanzi-clip-8">
        <path d="M 624 195 Q 688 86 774 -32 Q 790 -53 821 -53 Q 924 -57 957 -53 Q 967 -52 968 -47 Q 969 -43 956 -34 Q 809 36 744 106 Q 690 161 632 230 C 613 253 609 221 624 195 Z" />
      </clipPath>
      <path clip-path="url(#make-me-a-hanzi-clip-8)" d="M 636 223 L 640 196 L 657 173 L 739 68 L 804 0 L 873 -26 L 961 -47" fill="none" id="make-me-a-hanzi-animation-8" stroke-dasharray="575 1150" stroke-linecap="round" />
    
  </g>
</svg>