<svg xmlns="http://www.w3.org/2000/svg" version="1.1" viewBox="0 0 1024 1024">
  <g stroke="lightgray" stroke-dasharray="1,1" stroke-width="1" transform="scale(4, 4)">
    <line x1="0" y1="0" x2="256" y2="256" />
    <line x1="256" y1="0" x2="0" y2="256" />
    <line x1="128" y1="0" x2="128" y2="256" />
    <line x1="0" y1="128" x2="256" y2="128" />
  </g>
  <g transform="scale(1.0, -1.0) translate(0.0, -818.50)">
    <style type="text/css">
      
        @keyframes keyframes0 {
          from {
            stroke: blue;
            stroke-dashoffset: 763;
            stroke-width: 128;
          }
          71% {
            animation-timing-function: step-end;
            stroke: blue;
            stroke-dashoffset: 0;
            stroke-width: 128;
          }
          to {
            stroke: black;
            stroke-width: 1024;
          }
        }
        #make-me-a-hanzi-animation-0 {
          animation: keyframes0 0.8709309895833334s both;
          animation-delay: 0s;
          animation-timing-function: linear;
        }
      
        @keyframes keyframes1 {
          from {
            stroke: blue;
            stroke-dashoffset: 420;
            stroke-width: 128;
          }
          58% {
            animation-timing-function: step-end;
            stroke: blue;
            stroke-dashoffset: 0;
            stroke-width: 128;
          }
          to {
            stroke: black;
            stroke-width: 1024;
          }
        }
        #make-me-a-hanzi-animation-1 {
          animation: keyframes1 0.591796875s both;
          animation-delay: 0.8709309895833334s;
          animation-timing-function: linear;
        }
      
        @keyframes keyframes2 {
          from {
            stroke: blue;
            stroke-dashoffset: 495;
            stroke-width: 128;
          }
          62% {
            animation-timing-function: step-end;
            stroke: blue;
            stroke-dashoffset: 0;
            stroke-width: 128;
          }
          to {
            stroke: black;
            stroke-width: 1024;
          }
        }
        #make-me-a-hanzi-animation-2 {
          animation: keyframes2 0.65283203125s both;
          animation-delay: 1.4627278645833335s;
          animation-timing-function: linear;
        }
      
        @keyframes keyframes3 {
          from {
            stroke: blue;
            stroke-dashoffset: 548;
            stroke-width: 128;
          }
          64% {
            animation-timing-function: step-end;
            stroke: blue;
            stroke-dashoffset: 0;
            stroke-width: 128;
          }
          to {
            stroke: black;
            stroke-width: 1024;
          }
        }
        #make-me-a-hanzi-animation-3 {
          animation: keyframes3 0.6959635416666666s both;
          animation-delay: 2.1155598958333335s;
          animation-timing-function: linear;
        }
      
        @keyframes keyframes4 {
          from {
            stroke: blue;
            stroke-dashoffset: 770;
            stroke-width: 128;
          }
          71% {
            animation-timing-function: step-end;
            stroke: blue;
            stroke-dashoffset: 0;
            stroke-width: 128;
          }
          to {
            stroke: black;
            stroke-width: 1024;
          }
        }
        #make-me-a-hanzi-animation-4 {
          animation: keyframes4 0.8766276041666666s both;
          animation-delay: 2.8115234375s;
          animation-timing-function: linear;
        }
      
        @keyframes keyframes5 {
          from {
            stroke: blue;
            stroke-dashoffset: 582;
            stroke-width: 128;
          }
          65% {
            animation-timing-function: step-end;
            stroke: blue;
            stroke-dashoffset: 0;
            stroke-width: 128;
          }
          to {
            stroke: black;
            stroke-width: 1024;
          }
        }
        #make-me-a-hanzi-animation-5 {
          animation: keyframes5 0.7236328125s both;
          animation-delay: 3.6881510416666665s;
          animation-timing-function: linear;
        }
      
        @keyframes keyframes6 {
          from {
            stroke: blue;
            stroke-dashoffset: 700;
            stroke-width: 128;
          }
          69% {
            animation-timing-function: step-end;
            stroke: blue;
            stroke-dashoffset: 0;
            stroke-width: 128;
          }
          to {
            stroke: black;
            stroke-width: 1024;
          }
        }
        #make-me-a-hanzi-animation-6 {
          animation: keyframes6 0.8196614583333334s both;
          animation-delay: 4.411783854166666s;
          animation-timing-function: linear;
        }
      
        @keyframes keyframes7 {
          from {
            stroke: blue;
            stroke-dashoffset: 1352;
            stroke-width: 128;
          }
          81% {
            animation-timing-function: step-end;
            stroke: blue;
            stroke-dashoffset: 0;
            stroke-width: 128;
          }
          to {
            stroke: black;
            stroke-width: 1024;
          }
        }
        #make-me-a-hanzi-animation-7 {
          animation: keyframes7 1.3502604166666667s both;
          animation-delay: 5.231445312499999s;
          animation-timing-function: linear;
        }
      
        @keyframes keyframes8 {
          from {
            stroke: blue;
            stroke-dashoffset: 788;
            stroke-width: 128;
          }
          72% {
            animation-timing-function: step-end;
            stroke: blue;
            stroke-dashoffset: 0;
            stroke-width: 128;
          }
          to {
            stroke: black;
            stroke-width: 1024;
          }
        }
        #make-me-a-hanzi-animation-8 {
          animation: keyframes8 0.8912760416666666s both;
          animation-delay: 6.581705729166666s;
          animation-timing-function: linear;
        }
      
        @keyframes keyframes9 {
          from {
            stroke: blue;
            stroke-dashoffset: 410;
            stroke-width: 128;
          }
          57% {
            animation-timing-function: step-end;
            stroke: blue;
            stroke-dashoffset: 0;
            stroke-width: 128;
          }
          to {
            stroke: black;
            stroke-width: 1024;
          }
        }
        #make-me-a-hanzi-animation-9 {
          animation: keyframes9 0.5836588541666666s both;
          animation-delay: 7.472981770833333s;
          animation-timing-function: linear;
        }
      
    </style>
    
      <path d="M 252 746 Q 236 746 236 734 Q 236 732 238 724 Q 244 710 244 698 Q 236 639 193 532 Q 142 419 83 352 Q 51 314 51 310 Q 51 306 63 306 Q 87 306 132 352 L 147 367 Q 158 378 170 393 Q 207 438 241 504 L 258 538 Q 275 572 292 613 Q 310 658 323 681 Q 332 695 332 702 Q 332 715 297 732 Q 270 746 252 746 Z" fill="lightgray" />
    
      <path d="M 241 504 Q 260 499 280 499 Q 297 499 408 522 Q 424 528 424 547 Q 424 569 380 570 Q 369 570 353 565 Q 301 549 258 538 C 229 531 212 511 241 504 Z" fill="lightgray" />
    
      <path d="M 132 352 Q 136 348 150 346 Q 172 339 191 339 Q 200 339 226 343 L 266 351 Q 311 359 380 375 Q 391 380 391 394 Q 391 414 355 415 Q 341 415 321 408 Q 217 380 147 367 C 118 361 115 361 132 352 Z" fill="lightgray" />
    
      <path d="M 240 237 Q 188 226 108 215 Q 95 213 95 207 Q 95 200 118 191 Q 142 182 164 182 Q 176 182 199 188 Q 213 190 240 195 L 288 205 Q 310 209 340 215 Q 362 218 389 228 Q 403 234 403 247 Q 400 265 340 266 Q 330 266 308 258 Q 300 255 288 251 L 240 237 Z" fill="lightgray" />
    
      <path d="M 226 343 Q 226 341 228 335 Q 240 309 240 255 L 240 237 L 240 195 Q 238 48 226 22 Q 221 5 194 -18 Q 179 -32 179 -41 Q 179 -44 187 -63 Q 205 -102 219 -102 Q 229 -102 258 -56 Q 301 -7 360 57 Q 399 99 399 110 Q 399 119 391 119 Q 388 119 317 63 Q 299 47 275 27 Q 276 36 278 46 Q 286 104 288 205 L 288 251 L 288 255 Q 288 281 290 295 Q 292 310 292 314 Q 292 329 272 346 Q 269 348 266 351 C 244 371 217 372 226 343 Z" fill="lightgray" />
    
      <path d="M 743 543 Q 723 543 696 533 Q 664 523 632 514 L 578 499 Q 509 480 456 471 Q 439 468 439 463 Q 439 456 460 451 Q 485 442 508 442 Q 524 442 585 456 L 638 467 Q 690 479 768 499 Q 783 504 783 519 Q 783 542 743 543 Z" fill="lightgray" />
    
      <path d="M 607 343 Q 572 335 541 328 Q 498 318 452 314 Q 425 314 424 299 Q 425 294 440 288 Q 469 276 496 274 Q 510 274 542 286 Q 574 294 616 303 L 666 313 Q 689 318 716 323 Q 779 332 855 335 Q 884 335 884 354 Q 884 371 863 383 Q 842 394 815 394 Q 790 394 763 386 Q 708 369 656 356 L 607 343 Z" fill="lightgray" />
    
      <path d="M 632 514 Q 624 577 624 622 Q 624 648 627 675 Q 632 696 632 702 Q 632 717 601 735 Q 563 750 540 750 Q 515 750 515 738 Q 515 732 524 722 Q 549 674 567 561 Q 572 529 578 499 L 585 456 Q 595 396 607 343 L 616 303 Q 622 284 627 266 Q 650 184 678 122 L 696 83 Q 707 60 719 41 Q 771 -55 843 -110 Q 883 -137 907 -137 Q 928 -137 928 -114 Q 920 -102 920 -41 L 932 62 Q 932 87 924 87 Q 915 87 877 -9 Q 863 -34 840 -34 Q 826 -34 783 23 Q 757 58 732 110 L 713 158 Q 696 198 682 249 Q 674 280 666 313 L 656 356 Q 646 405 640 453 Q 639 461 638 467 L 632 514 Z" fill="lightgray" />
    
      <path d="M 678 122 Q 594 47 465 0 Q 424 -15 424 -18 Q 424 -22 431 -22 Q 459 -22 531 2 Q 608 24 675 68 Q 685 75 696 83 L 732 110 Q 780 150 826 211 Q 850 243 864 249 Q 867 253 867 255 Q 867 267 834 287 Q 806 303 792 303 Q 779 303 779 291 Q 779 251 759 219 Q 742 191 713 158 L 678 122 Z" fill="lightgray" />
    
      <path d="M 699 694 Q 668 694 668 690 Q 668 687 722 634 Q 774 582 787 582 Q 798 582 804 590 Q 811 600 811 610 Q 811 636 796 652 Q 777 676 744 686 Q 718 694 699 694 Z" fill="lightgray" />
    
    
      <clipPath id="make-me-a-hanzi-clip-0">
        <path d="M 252 746 Q 236 746 236 734 Q 236 732 238 724 Q 244 710 244 698 Q 236 639 193 532 Q 142 419 83 352 Q 51 314 51 310 Q 51 306 63 306 Q 87 306 132 352 L 147 367 Q 158 378 170 393 Q 207 438 241 504 L 258 538 Q 275 572 292 613 Q 310 658 323 681 Q 332 695 332 702 Q 332 715 297 732 Q 270 746 252 746 Z" />
      </clipPath>
      <path clip-path="url(#make-me-a-hanzi-clip-0)" d="M 249 734 L 284 694 L 235 557 L 185 457 L 142 393 L 100 345 L 57 309" fill="none" id="make-me-a-hanzi-animation-0" stroke-dasharray="635 1270" stroke-linecap="round" />
    
      <clipPath id="make-me-a-hanzi-clip-1">
        <path d="M 241 504 Q 260 499 280 499 Q 297 499 408 522 Q 424 528 424 547 Q 424 569 380 570 Q 369 570 353 565 Q 301 549 258 538 C 229 531 212 511 241 504 Z" />
      </clipPath>
      <path clip-path="url(#make-me-a-hanzi-clip-1)" d="M 248 507 L 273 520 L 406 547" fill="none" id="make-me-a-hanzi-animation-1" stroke-dasharray="292 584" stroke-linecap="round" />
    
      <clipPath id="make-me-a-hanzi-clip-2">
        <path d="M 132 352 Q 136 348 150 346 Q 172 339 191 339 Q 200 339 226 343 L 266 351 Q 311 359 380 375 Q 391 380 391 394 Q 391 414 355 415 Q 341 415 321 408 Q 217 380 147 367 C 118 361 115 361 132 352 Z" />
      </clipPath>
      <path clip-path="url(#make-me-a-hanzi-clip-2)" d="M 137 354 L 186 356 L 344 391 L 372 392" fill="none" id="make-me-a-hanzi-animation-2" stroke-dasharray="367 734" stroke-linecap="round" />
    
      <clipPath id="make-me-a-hanzi-clip-3">
        <path d="M 240 237 Q 188 226 108 215 Q 95 213 95 207 Q 95 200 118 191 Q 142 182 164 182 Q 176 182 199 188 Q 213 190 240 195 L 288 205 Q 310 209 340 215 Q 362 218 389 228 Q 403 234 403 247 Q 400 265 340 266 Q 330 266 308 258 Q 300 255 288 251 L 240 237 Z" />
      </clipPath>
      <path clip-path="url(#make-me-a-hanzi-clip-3)" d="M 104 208 L 145 201 L 176 204 L 333 240 L 391 245" fill="none" id="make-me-a-hanzi-animation-3" stroke-dasharray="420 840" stroke-linecap="round" />
    
      <clipPath id="make-me-a-hanzi-clip-4">
        <path d="M 226 343 Q 226 341 228 335 Q 240 309 240 255 L 240 237 L 240 195 Q 238 48 226 22 Q 221 5 194 -18 Q 179 -32 179 -41 Q 179 -44 187 -63 Q 205 -102 219 -102 Q 229 -102 258 -56 Q 301 -7 360 57 Q 399 99 399 110 Q 399 119 391 119 Q 388 119 317 63 Q 299 47 275 27 Q 276 36 278 46 Q 286 104 288 205 L 288 251 L 288 255 Q 288 281 290 295 Q 292 310 292 314 Q 292 329 272 346 Q 269 348 266 351 C 244 371 217 372 226 343 Z" />
      </clipPath>
      <path clip-path="url(#make-me-a-hanzi-clip-4)" d="M 233 341 L 260 323 L 264 304 L 263 141 L 253 35 L 282 31 L 294 16 L 284 6 L 253 -6 L 225 -39 L 218 -92" fill="none" id="make-me-a-hanzi-animation-4" stroke-dasharray="642 1284" stroke-linecap="round" />
    
      <clipPath id="make-me-a-hanzi-clip-5">
        <path d="M 743 543 Q 723 543 696 533 Q 664 523 632 514 L 578 499 Q 509 480 456 471 Q 439 468 439 463 Q 439 456 460 451 Q 485 442 508 442 Q 524 442 585 456 L 638 467 Q 690 479 768 499 Q 783 504 783 519 Q 783 542 743 543 Z" />
      </clipPath>
      <path clip-path="url(#make-me-a-hanzi-clip-5)" d="M 444 462 L 532 465 L 731 516 L 763 518" fill="none" id="make-me-a-hanzi-animation-5" stroke-dasharray="454 908" stroke-linecap="round" />
    
      <clipPath id="make-me-a-hanzi-clip-6">
        <path d="M 607 343 Q 572 335 541 328 Q 498 318 452 314 Q 425 314 424 299 Q 425 294 440 288 Q 469 276 496 274 Q 510 274 542 286 Q 574 294 616 303 L 666 313 Q 689 318 716 323 Q 779 332 855 335 Q 884 335 884 354 Q 884 371 863 383 Q 842 394 815 394 Q 790 394 763 386 Q 708 369 656 356 L 607 343 Z" />
      </clipPath>
      <path clip-path="url(#make-me-a-hanzi-clip-6)" d="M 432 302 L 499 297 L 788 362 L 838 363 L 867 353" fill="none" id="make-me-a-hanzi-animation-6" stroke-dasharray="572 1144" stroke-linecap="round" />
    
      <clipPath id="make-me-a-hanzi-clip-7">
        <path d="M 632 514 Q 624 577 624 622 Q 624 648 627 675 Q 632 696 632 702 Q 632 717 601 735 Q 563 750 540 750 Q 515 750 515 738 Q 515 732 524 722 Q 549 674 567 561 Q 572 529 578 499 L 585 456 Q 595 396 607 343 L 616 303 Q 622 284 627 266 Q 650 184 678 122 L 696 83 Q 707 60 719 41 Q 771 -55 843 -110 Q 883 -137 907 -137 Q 928 -137 928 -114 Q 920 -102 920 -41 L 932 62 Q 932 87 924 87 Q 915 87 877 -9 Q 863 -34 840 -34 Q 826 -34 783 23 Q 757 58 732 110 L 713 158 Q 696 198 682 249 Q 674 280 666 313 L 656 356 Q 646 405 640 453 Q 639 461 638 467 L 632 514 Z" />
      </clipPath>
      <path clip-path="url(#make-me-a-hanzi-clip-7)" d="M 525 737 L 554 722 L 585 692 L 601 527 L 636 329 L 680 176 L 719 85 L 750 30 L 817 -52 L 837 -65 L 874 -74 L 900 -16 L 925 82" fill="none" id="make-me-a-hanzi-animation-7" stroke-dasharray="1224 2448" stroke-linecap="round" />
    
      <clipPath id="make-me-a-hanzi-clip-8">
        <path d="M 678 122 Q 594 47 465 0 Q 424 -15 424 -18 Q 424 -22 431 -22 Q 459 -22 531 2 Q 608 24 675 68 Q 685 75 696 83 L 732 110 Q 780 150 826 211 Q 850 243 864 249 Q 867 253 867 255 Q 867 267 834 287 Q 806 303 792 303 Q 779 303 779 291 Q 779 251 759 219 Q 742 191 713 158 L 678 122 Z" />
      </clipPath>
      <path clip-path="url(#make-me-a-hanzi-clip-8)" d="M 857 256 L 813 255 L 760 173 L 713 123 L 658 79 L 606 47 L 519 7 L 428 -19" fill="none" id="make-me-a-hanzi-animation-8" stroke-dasharray="660 1320" stroke-linecap="round" />
    
      <clipPath id="make-me-a-hanzi-clip-9">
        <path d="M 699 694 Q 668 694 668 690 Q 668 687 722 634 Q 774 582 787 582 Q 798 582 804 590 Q 811 600 811 610 Q 811 636 796 652 Q 777 676 744 686 Q 718 694 699 694 Z" />
      </clipPath>
      <path clip-path="url(#make-me-a-hanzi-clip-9)" d="M 672 691 L 688 687 L 760 643 L 775 628 L 789 599" fill="none" id="make-me-a-hanzi-animation-9" stroke-dasharray="282 564" stroke-linecap="round" />
    
  </g>
</svg>