<svg version="1.1" viewBox="0 0 1024 1024" xmlns="http://www.w3.org/2000/svg">
  <g stroke="lightgray" stroke-dasharray="1,1" stroke-width="1" transform="scale(4, 4)">
    <line x1="0" y1="0" x2="256" y2="256"></line>
    <line x1="256" y1="0" x2="0" y2="256"></line>
    <line x1="128" y1="0" x2="128" y2="256"></line>
    <line x1="0" y1="128" x2="256" y2="128"></line>
  </g>
  <g transform="scale(0.92, -0.92) translate(60, -830)">
    <style type="text/css">
      
        @keyframes keyframes0 {
          from {
            stroke: blue;
            stroke-dashoffset: 768;
            stroke-width: 128;
          }
          71% {
            animation-timing-function: step-end;
            stroke: blue;
            stroke-dashoffset: 0;
            stroke-width: 128;
          }
          to {
            stroke: black;
            stroke-width: 1024;
          }
        }
        #make-me-a-hanzi-animation-0 {
          animation: keyframes0 0.875s both;
          animation-delay: 0s;
          animation-timing-function: linear;
        }
      
        @keyframes keyframes1 {
          from {
            stroke: blue;
            stroke-dashoffset: 418;
            stroke-width: 128;
          }
          58% {
            animation-timing-function: step-end;
            stroke: blue;
            stroke-dashoffset: 0;
            stroke-width: 128;
          }
          to {
            stroke: black;
            stroke-width: 1024;
          }
        }
        #make-me-a-hanzi-animation-1 {
          animation: keyframes1 0.5901692708333334s both;
          animation-delay: 0.875s;
          animation-timing-function: linear;
        }
      
        @keyframes keyframes2 {
          from {
            stroke: blue;
            stroke-dashoffset: 492;
            stroke-width: 128;
          }
          62% {
            animation-timing-function: step-end;
            stroke: blue;
            stroke-dashoffset: 0;
            stroke-width: 128;
          }
          to {
            stroke: black;
            stroke-width: 1024;
          }
        }
        #make-me-a-hanzi-animation-2 {
          animation: keyframes2 0.650390625s both;
          animation-delay: 1.4651692708333335s;
          animation-timing-function: linear;
        }
      
        @keyframes keyframes3 {
          from {
            stroke: blue;
            stroke-dashoffset: 551;
            stroke-width: 128;
          }
          64% {
            animation-timing-function: step-end;
            stroke: blue;
            stroke-dashoffset: 0;
            stroke-width: 128;
          }
          to {
            stroke: black;
            stroke-width: 1024;
          }
        }
        #make-me-a-hanzi-animation-3 {
          animation: keyframes3 0.6984049479166666s both;
          animation-delay: 2.1155598958333335s;
          animation-timing-function: linear;
        }
      
        @keyframes keyframes4 {
          from {
            stroke: blue;
            stroke-dashoffset: 747;
            stroke-width: 128;
          }
          71% {
            animation-timing-function: step-end;
            stroke: blue;
            stroke-dashoffset: 0;
            stroke-width: 128;
          }
          to {
            stroke: black;
            stroke-width: 1024;
          }
        }
        #make-me-a-hanzi-animation-4 {
          animation: keyframes4 0.85791015625s both;
          animation-delay: 2.81396484375s;
          animation-timing-function: linear;
        }
      
        @keyframes keyframes5 {
          from {
            stroke: blue;
            stroke-dashoffset: 532;
            stroke-width: 128;
          }
          63% {
            animation-timing-function: step-end;
            stroke: blue;
            stroke-dashoffset: 0;
            stroke-width: 128;
          }
          to {
            stroke: black;
            stroke-width: 1024;
          }
        }
        #make-me-a-hanzi-animation-5 {
          animation: keyframes5 0.6829427083333334s both;
          animation-delay: 3.671875s;
          animation-timing-function: linear;
        }
      
        @keyframes keyframes6 {
          from {
            stroke: blue;
            stroke-dashoffset: 685;
            stroke-width: 128;
          }
          69% {
            animation-timing-function: step-end;
            stroke: blue;
            stroke-dashoffset: 0;
            stroke-width: 128;
          }
          to {
            stroke: black;
            stroke-width: 1024;
          }
        }
        #make-me-a-hanzi-animation-6 {
          animation: keyframes6 0.8074544270833334s both;
          animation-delay: 4.354817708333333s;
          animation-timing-function: linear;
        }
      
        @keyframes keyframes7 {
          from {
            stroke: blue;
            stroke-dashoffset: 487;
            stroke-width: 128;
          }
          61% {
            animation-timing-function: step-end;
            stroke: blue;
            stroke-dashoffset: 0;
            stroke-width: 128;
          }
          to {
            stroke: black;
            stroke-width: 1024;
          }
        }
        #make-me-a-hanzi-animation-7 {
          animation: keyframes7 0.6463216145833334s both;
          animation-delay: 5.162272135416666s;
          animation-timing-function: linear;
        }
      
        @keyframes keyframes8 {
          from {
            stroke: blue;
            stroke-dashoffset: 581;
            stroke-width: 128;
          }
          65% {
            animation-timing-function: step-end;
            stroke: blue;
            stroke-dashoffset: 0;
            stroke-width: 128;
          }
          to {
            stroke: black;
            stroke-width: 1024;
          }
        }
        #make-me-a-hanzi-animation-8 {
          animation: keyframes8 0.7228190104166666s both;
          animation-delay: 5.808593749999999s;
          animation-timing-function: linear;
        }
      
        @keyframes keyframes9 {
          from {
            stroke: blue;
            stroke-dashoffset: 781;
            stroke-width: 128;
          }
          72% {
            animation-timing-function: step-end;
            stroke: blue;
            stroke-dashoffset: 0;
            stroke-width: 128;
          }
          to {
            stroke: black;
            stroke-width: 1024;
          }
        }
        #make-me-a-hanzi-animation-9 {
          animation: keyframes9 0.8855794270833334s both;
          animation-delay: 6.531412760416666s;
          animation-timing-function: linear;
        }
      
        @keyframes keyframes10 {
          from {
            stroke: blue;
            stroke-dashoffset: 561;
            stroke-width: 128;
          }
          65% {
            animation-timing-function: step-end;
            stroke: blue;
            stroke-dashoffset: 0;
            stroke-width: 128;
          }
          to {
            stroke: black;
            stroke-width: 1024;
          }
        }
        #make-me-a-hanzi-animation-10 {
          animation: keyframes10 0.70654296875s both;
          animation-delay: 7.416992187499999s;
          animation-timing-function: linear;
        }
      
    </style>
    
      <path d="M 257 748 Q 244 748 244 735 Q 244 732 246 725 Q 249 711 249 699 Q 246 634 201 530 Q 147 418 85 353 Q 52 315 52 312 Q 52 308 66 308 Q 91 308 139 355 L 153 368 Q 163 380 176 394 Q 214 439 251 506 L 268 540 Q 285 573 301 613 Q 319 657 333 680 Q 342 694 342 702 Q 342 714 306 733 Q 278 748 257 748 Z" fill="lightgray"></path>
    
      <path d="M 251 506 Q 272 501 290 501 Q 307 501 418 525 Q 436 531 436 548 Q 436 573 390 575 Q 379 575 365 569 Q 311 551 268 540 C 239 532 222 513 251 506 Z" fill="lightgray"></path>
    
      <path d="M 139 355 Q 143 351 155 348 Q 179 340 199 340 Q 204 340 213 341 L 275 353 Q 317 361 381 376 Q 396 381 396 396 Q 396 417 357 419 Q 343 419 324 412 Q 224 381 153 368 C 126 363 126 363 139 355 Z" fill="lightgray"></path>
    
      <path d="M 237 237 Q 188 228 117 218 Q 104 216 104 210 Q 104 202 128 193 Q 154 183 176 183 Q 189 183 211 188 Q 220 189 237 192 L 291 202 Q 315 207 349 213 Q 374 217 401 228 Q 415 235 416 248 Q 413 266 352 268 Q 343 268 321 259 Q 309 255 292 250 L 237 237 Z" fill="lightgray"></path>
    
      <path d="M 213 341 Q 214 340 217 337 Q 237 298 237 245 L 237 237 L 237 192 L 237 44 Q 237 19 208 -7 Q 188 -19 188 -26 Q 188 -41 205 -63 Q 225 -84 233 -84 Q 242 -84 259 -62 Q 281 -32 379 79 Q 396 100 396 104 Q 396 110 390 112 Q 387 112 291 50 L 291 202 L 292 250 L 294 323 Q 294 340 275 353 C 253 374 198 367 213 341 Z" fill="lightgray"></path>
    
      <path d="M 469 592 Q 455 592 455 582 Q 455 577 464 565 Q 480 547 488 515 Q 503 471 511 364 Q 514 321 539 320 Q 551 320 555 359 L 557 395 Q 556 444 543 542 L 535 573 Q 528 583 514 587 Q 497 592 469 592 Z" fill="lightgray"></path>
    
      <path d="M 780 416 Q 783 418 784 420 Q 803 511 836 554 Q 855 581 855 588 Q 855 597 821 619 Q 786 640 769 640 Q 757 640 724 622 Q 670 596 535 573 C 505 568 513 538 543 542 Q 580 546 645 560 Q 714 577 737 577 Q 753 577 753 563 L 734 425 C 730 395 767 389 780 416 Z" fill="lightgray"></path>
    
      <path d="M 555 359 Q 561 357 569 357 Q 673 369 783 381 Q 798 387 798 394 Q 798 404 780 416 C 762 429 762 429 734 425 Q 711 422 557 395 C 527 390 526 365 555 359 Z" fill="lightgray"></path>
    
      <path d="M 447 240 Q 433 240 433 230 Q 433 224 442 209 Q 459 188 467 149 Q 483 97 490 -31 Q 494 -83 520 -84 Q 534 -84 537 -33 L 538 2 Q 536 66 521 187 L 513 222 Q 507 231 492 235 Q 475 240 447 240 Z" fill="lightgray"></path>
    
      <path d="M 817 28 Q 855 146 887 172 Q 902 183 902 197 Q 902 220 863 247 Q 825 272 798 272 Q 790 272 771 265 Q 737 255 637 238 Q 553 225 513 222 C 483 219 491 188 521 187 Q 525 186 530 186 Q 547 186 634 202 Q 719 214 755 214 Q 783 214 783 191 Q 771 78 764 52 Q 761 38 760 26 C 756 -4 808 0 817 28 Z" fill="lightgray"></path>
    
      <path d="M 537 -33 Q 541 -35 548 -35 Q 690 -25 840 -15 Q 855 -9 855 -2 Q 855 10 835 22 Q 827 26 817 28 L 760 26 Q 700 20 538 2 C 508 -1 508 -27 537 -33 Z" fill="lightgray"></path>
    
    
      <clipPath id="make-me-a-hanzi-clip-0">
        <path d="M 257 748 Q 244 748 244 735 Q 244 732 246 725 Q 249 711 249 699 Q 246 634 201 530 Q 147 418 85 353 Q 52 315 52 312 Q 52 308 66 308 Q 91 308 139 355 L 153 368 Q 163 380 176 394 Q 214 439 251 506 L 268 540 Q 285 573 301 613 Q 319 657 333 680 Q 342 694 342 702 Q 342 714 306 733 Q 278 748 257 748 Z"></path>
      </clipPath>
      <path clip-path="url(#make-me-a-hanzi-clip-0)" d="M 255 737 L 276 716 L 290 690 L 264 606 L 229 524 L 156 404 L 106 348 L 59 310" fill="none" id="make-me-a-hanzi-animation-0" stroke-dasharray="640 1280" stroke-linecap="round"></path>
    
      <clipPath id="make-me-a-hanzi-clip-1">
        <path d="M 251 506 Q 272 501 290 501 Q 307 501 418 525 Q 436 531 436 548 Q 436 573 390 575 Q 379 575 365 569 Q 311 551 268 540 C 239 532 222 513 251 506 Z"></path>
      </clipPath>
      <path clip-path="url(#make-me-a-hanzi-clip-1)" d="M 259 509 L 283 522 L 388 547 L 415 548" fill="none" id="make-me-a-hanzi-animation-1" stroke-dasharray="290 580" stroke-linecap="round"></path>
    
      <clipPath id="make-me-a-hanzi-clip-2">
        <path d="M 139 355 Q 143 351 155 348 Q 179 340 199 340 Q 204 340 213 341 L 275 353 Q 317 361 381 376 Q 396 381 396 396 Q 396 417 357 419 Q 343 419 324 412 Q 224 381 153 368 C 126 363 126 363 139 355 Z"></path>
      </clipPath>
      <path clip-path="url(#make-me-a-hanzi-clip-2)" d="M 144 357 L 193 357 L 354 395 L 376 395" fill="none" id="make-me-a-hanzi-animation-2" stroke-dasharray="364 728" stroke-linecap="round"></path>
    
      <clipPath id="make-me-a-hanzi-clip-3">
        <path d="M 237 237 Q 188 228 117 218 Q 104 216 104 210 Q 104 202 128 193 Q 154 183 176 183 Q 189 183 211 188 Q 220 189 237 192 L 291 202 Q 315 207 349 213 Q 374 217 401 228 Q 415 235 416 248 Q 413 266 352 268 Q 343 268 321 259 Q 309 255 292 250 L 237 237 Z"></path>
      </clipPath>
      <path clip-path="url(#make-me-a-hanzi-clip-3)" d="M 113 210 L 172 204 L 361 243 L 404 246" fill="none" id="make-me-a-hanzi-animation-3" stroke-dasharray="423 846" stroke-linecap="round"></path>
    
      <clipPath id="make-me-a-hanzi-clip-4">
        <path d="M 213 341 Q 214 340 217 337 Q 237 298 237 245 L 237 237 L 237 192 L 237 44 Q 237 19 208 -7 Q 188 -19 188 -26 Q 188 -41 205 -63 Q 225 -84 233 -84 Q 242 -84 259 -62 Q 281 -32 379 79 Q 396 100 396 104 Q 396 110 390 112 Q 387 112 291 50 L 291 202 L 292 250 L 294 323 Q 294 340 275 353 C 253 374 198 367 213 341 Z"></path>
      </clipPath>
      <path clip-path="url(#make-me-a-hanzi-clip-4)" d="M 227 333 L 261 316 L 263 302 L 263 81 L 271 16 L 297 24 L 391 107" fill="none" id="make-me-a-hanzi-animation-4" stroke-dasharray="619 1238" stroke-linecap="round"></path>
    
      <clipPath id="make-me-a-hanzi-clip-5">
        <path d="M 469 592 Q 455 592 455 582 Q 455 577 464 565 Q 480 547 488 515 Q 503 471 511 364 Q 514 321 539 320 Q 551 320 555 359 L 557 395 Q 556 444 543 542 L 535 573 Q 528 583 514 587 Q 497 592 469 592 Z"></path>
      </clipPath>
      <path clip-path="url(#make-me-a-hanzi-clip-5)" d="M 465 582 L 502 561 L 513 540 L 529 447 L 536 332" fill="none" id="make-me-a-hanzi-animation-5" stroke-dasharray="404 808" stroke-linecap="round"></path>
    
      <clipPath id="make-me-a-hanzi-clip-6">
        <path d="M 780 416 Q 783 418 784 420 Q 803 511 836 554 Q 855 581 855 588 Q 855 597 821 619 Q 786 640 769 640 Q 757 640 724 622 Q 670 596 535 573 C 505 568 513 538 543 542 Q 580 546 645 560 Q 714 577 737 577 Q 753 577 753 563 L 734 425 C 730 395 767 389 780 416 Z"></path>
      </clipPath>
      <path clip-path="url(#make-me-a-hanzi-clip-6)" d="M 546 570 L 558 560 L 743 603 L 773 602 L 797 579 L 766 455 L 743 432" fill="none" id="make-me-a-hanzi-animation-6" stroke-dasharray="557 1114" stroke-linecap="round"></path>
    
      <clipPath id="make-me-a-hanzi-clip-7">
        <path d="M 555 359 Q 561 357 569 357 Q 673 369 783 381 Q 798 387 798 394 Q 798 404 780 416 C 762 429 762 429 734 425 Q 711 422 557 395 C 527 390 526 365 555 359 Z"></path>
      </clipPath>
      <path clip-path="url(#make-me-a-hanzi-clip-7)" d="M 563 365 L 577 379 L 596 383 L 730 400 L 787 396" fill="none" id="make-me-a-hanzi-animation-7" stroke-dasharray="359 718" stroke-linecap="round"></path>
    
      <clipPath id="make-me-a-hanzi-clip-8">
        <path d="M 447 240 Q 433 240 433 230 Q 433 224 442 209 Q 459 188 467 149 Q 483 97 490 -31 Q 494 -83 520 -84 Q 534 -84 537 -33 L 538 2 Q 536 66 521 187 L 513 222 Q 507 231 492 235 Q 475 240 447 240 Z"></path>
      </clipPath>
      <path clip-path="url(#make-me-a-hanzi-clip-8)" d="M 444 229 L 484 203 L 493 174 L 508 70 L 518 -71" fill="none" id="make-me-a-hanzi-animation-8" stroke-dasharray="453 906" stroke-linecap="round"></path>
    
      <clipPath id="make-me-a-hanzi-clip-9">
        <path d="M 817 28 Q 855 146 887 172 Q 902 183 902 197 Q 902 220 863 247 Q 825 272 798 272 Q 790 272 771 265 Q 737 255 637 238 Q 553 225 513 222 C 483 219 491 188 521 187 Q 525 186 530 186 Q 547 186 634 202 Q 719 214 755 214 Q 783 214 783 191 Q 771 78 764 52 Q 761 38 760 26 C 756 -4 808 0 817 28 Z"></path>
      </clipPath>
      <path clip-path="url(#make-me-a-hanzi-clip-9)" d="M 519 217 L 539 205 L 752 237 L 789 238 L 813 228 L 837 198 L 795 56 L 767 32" fill="none" id="make-me-a-hanzi-animation-9" stroke-dasharray="653 1306" stroke-linecap="round"></path>
    
      <clipPath id="make-me-a-hanzi-clip-10">
        <path d="M 537 -33 Q 541 -35 548 -35 Q 690 -25 840 -15 Q 855 -9 855 -2 Q 855 10 835 22 Q 827 26 817 28 L 760 26 Q 700 20 538 2 C 508 -1 508 -27 537 -33 Z"></path>
      </clipPath>
      <path clip-path="url(#make-me-a-hanzi-clip-10)" d="M 544 -27 L 557 -15 L 573 -12 L 811 6 L 843 0" fill="none" id="make-me-a-hanzi-animation-10" stroke-dasharray="433 866" stroke-linecap="round"></path>
    
  </g>
</svg>