<svg xmlns="http://www.w3.org/2000/svg" version="1.1" viewBox="0 0 1024 1024">
  <g stroke="lightgray" stroke-dasharray="1,1" stroke-width="1" transform="scale(4, 4)">
    <line x1="0" y1="0" x2="256" y2="256" />
    <line x1="256" y1="0" x2="0" y2="256" />
    <line x1="128" y1="0" x2="128" y2="256" />
    <line x1="0" y1="128" x2="256" y2="128" />
  </g>
  <g transform="scale(1.0, -1.0) translate(0.0, -834.00)">
    <style type="text/css">
      
        @keyframes keyframes0 {
          from {
            stroke: blue;
            stroke-dashoffset: 763;
            stroke-width: 128;
          }
          71% {
            animation-timing-function: step-end;
            stroke: blue;
            stroke-dashoffset: 0;
            stroke-width: 128;
          }
          to {
            stroke: black;
            stroke-width: 1024;
          }
        }
        #make-me-a-hanzi-animation-0 {
          animation: keyframes0 0.8709309895833334s both;
          animation-delay: 0s;
          animation-timing-function: linear;
        }
      
        @keyframes keyframes1 {
          from {
            stroke: blue;
            stroke-dashoffset: 420;
            stroke-width: 128;
          }
          58% {
            animation-timing-function: step-end;
            stroke: blue;
            stroke-dashoffset: 0;
            stroke-width: 128;
          }
          to {
            stroke: black;
            stroke-width: 1024;
          }
        }
        #make-me-a-hanzi-animation-1 {
          animation: keyframes1 0.591796875s both;
          animation-delay: 0.8709309895833334s;
          animation-timing-function: linear;
        }
      
        @keyframes keyframes2 {
          from {
            stroke: blue;
            stroke-dashoffset: 488;
            stroke-width: 128;
          }
          61% {
            animation-timing-function: step-end;
            stroke: blue;
            stroke-dashoffset: 0;
            stroke-width: 128;
          }
          to {
            stroke: black;
            stroke-width: 1024;
          }
        }
        #make-me-a-hanzi-animation-2 {
          animation: keyframes2 0.6471354166666666s both;
          animation-delay: 1.4627278645833335s;
          animation-timing-function: linear;
        }
      
        @keyframes keyframes3 {
          from {
            stroke: blue;
            stroke-dashoffset: 538;
            stroke-width: 128;
          }
          64% {
            animation-timing-function: step-end;
            stroke: blue;
            stroke-dashoffset: 0;
            stroke-width: 128;
          }
          to {
            stroke: black;
            stroke-width: 1024;
          }
        }
        #make-me-a-hanzi-animation-3 {
          animation: keyframes3 0.6878255208333334s both;
          animation-delay: 2.10986328125s;
          animation-timing-function: linear;
        }
      
        @keyframes keyframes4 {
          from {
            stroke: blue;
            stroke-dashoffset: 770;
            stroke-width: 128;
          }
          71% {
            animation-timing-function: step-end;
            stroke: blue;
            stroke-dashoffset: 0;
            stroke-width: 128;
          }
          to {
            stroke: black;
            stroke-width: 1024;
          }
        }
        #make-me-a-hanzi-animation-4 {
          animation: keyframes4 0.8766276041666666s both;
          animation-delay: 2.7976888020833335s;
          animation-timing-function: linear;
        }
      
        @keyframes keyframes5 {
          from {
            stroke: blue;
            stroke-dashoffset: 700;
            stroke-width: 128;
          }
          69% {
            animation-timing-function: step-end;
            stroke: blue;
            stroke-dashoffset: 0;
            stroke-width: 128;
          }
          to {
            stroke: black;
            stroke-width: 1024;
          }
        }
        #make-me-a-hanzi-animation-5 {
          animation: keyframes5 0.8196614583333334s both;
          animation-delay: 3.67431640625s;
          animation-timing-function: linear;
        }
      
        @keyframes keyframes6 {
          from {
            stroke: blue;
            stroke-dashoffset: 1084;
            stroke-width: 128;
          }
          78% {
            animation-timing-function: step-end;
            stroke: blue;
            stroke-dashoffset: 0;
            stroke-width: 128;
          }
          to {
            stroke: black;
            stroke-width: 1024;
          }
        }
        #make-me-a-hanzi-animation-6 {
          animation: keyframes6 1.1321614583333333s both;
          animation-delay: 4.493977864583333s;
          animation-timing-function: linear;
        }
      
        @keyframes keyframes7 {
          from {
            stroke: blue;
            stroke-dashoffset: 370;
            stroke-width: 128;
          }
          55% {
            animation-timing-function: step-end;
            stroke: blue;
            stroke-dashoffset: 0;
            stroke-width: 128;
          }
          to {
            stroke: black;
            stroke-width: 1024;
          }
        }
        #make-me-a-hanzi-animation-7 {
          animation: keyframes7 0.5511067708333334s both;
          animation-delay: 5.626139322916666s;
          animation-timing-function: linear;
        }
      
        @keyframes keyframes8 {
          from {
            stroke: blue;
            stroke-dashoffset: 530;
            stroke-width: 128;
          }
          63% {
            animation-timing-function: step-end;
            stroke: blue;
            stroke-dashoffset: 0;
            stroke-width: 128;
          }
          to {
            stroke: black;
            stroke-width: 1024;
          }
        }
        #make-me-a-hanzi-animation-8 {
          animation: keyframes8 0.6813151041666666s both;
          animation-delay: 6.177246093749999s;
          animation-timing-function: linear;
        }
      
        @keyframes keyframes9 {
          from {
            stroke: blue;
            stroke-dashoffset: 753;
            stroke-width: 128;
          }
          71% {
            animation-timing-function: step-end;
            stroke: blue;
            stroke-dashoffset: 0;
            stroke-width: 128;
          }
          to {
            stroke: black;
            stroke-width: 1024;
          }
        }
        #make-me-a-hanzi-animation-9 {
          animation: keyframes9 0.86279296875s both;
          animation-delay: 6.858561197916666s;
          animation-timing-function: linear;
        }
      
        @keyframes keyframes10 {
          from {
            stroke: blue;
            stroke-dashoffset: 507;
            stroke-width: 128;
          }
          62% {
            animation-timing-function: step-end;
            stroke: blue;
            stroke-dashoffset: 0;
            stroke-width: 128;
          }
          to {
            stroke: black;
            stroke-width: 1024;
          }
        }
        #make-me-a-hanzi-animation-10 {
          animation: keyframes10 0.66259765625s both;
          animation-delay: 7.721354166666666s;
          animation-timing-function: linear;
        }
      
    </style>
    
      <path d="M 252 746 Q 236 746 236 734 Q 236 732 238 724 Q 244 710 244 698 Q 236 639 193 532 Q 142 419 83 352 Q 51 314 51 310 Q 51 306 63 306 Q 87 306 132 352 L 147 367 Q 158 378 170 393 Q 207 438 241 504 L 258 538 Q 275 572 292 613 Q 310 658 323 681 Q 332 695 332 702 Q 332 715 297 732 Q 270 746 252 746 Z" fill="lightgray" />
    
      <path d="M 241 504 Q 260 499 280 499 Q 297 499 408 522 Q 424 528 424 547 Q 424 569 380 570 Q 369 570 353 565 Q 301 549 258 538 C 229 531 212 511 241 504 Z" fill="lightgray" />
    
      <path d="M 132 352 Q 136 348 150 346 Q 172 339 191 339 Q 199 339 218 342 L 259 350 Q 301 358 372 375 Q 384 380 384 394 Q 384 414 347 415 Q 333 415 314 408 Q 215 380 147 367 C 118 361 115 361 132 352 Z" fill="lightgray" />
    
      <path d="M 231 231 Q 184 221 116 211 Q 103 209 103 203 Q 103 195 126 187 Q 151 178 171 178 Q 183 178 205 184 Q 215 186 231 189 L 280 198 Q 305 204 340 211 Q 362 214 389 224 Q 403 230 403 243 Q 400 262 340 263 Q 331 263 309 254 Q 298 249 280 244 L 231 231 Z" fill="lightgray" />
    
      <path d="M 218 342 Q 219 339 220 335 Q 231 309 231 255 L 231 231 L 231 189 Q 229 47 218 22 Q 213 5 186 -18 Q 171 -32 171 -41 Q 171 -44 179 -63 Q 197 -102 212 -102 Q 221 -102 250 -56 Q 294 -7 352 57 Q 391 99 391 110 Q 391 119 384 119 Q 381 119 309 63 Q 291 47 268 27 Q 269 36 270 46 Q 278 101 280 198 L 280 244 L 280 255 Q 280 281 282 295 Q 284 310 284 314 Q 284 329 264 346 Q 263 347 259 350 C 237 370 209 371 218 342 Z" fill="lightgray" />
    
      <path d="M 580 731 Q 567 731 567 719 Q 571 698 571 679 Q 571 627 534 556 Q 485 463 418 388 Q 395 363 395 358 Q 395 354 403 354 Q 428 354 483 412 L 497 427 Q 529 459 559 503 L 580 532 L 592 552 Q 638 624 653 648 Q 668 666 668 671 Q 668 685 624 710 Q 588 731 580 731 Z" fill="lightgray" />
    
      <path d="M 559 503 Q 560 503 561 502 Q 579 490 596 490 Q 611 490 739 530 Q 748 530 748 522 Q 748 492 654 371 Q 544 235 376 131 Q 376 127 387 127 Q 420 127 493 166 L 538 193 Q 631 256 733 384 Q 815 495 837 511 Q 852 520 852 522 Q 852 535 818 567 Q 782 595 771 595 Q 766 595 739 576 Q 688 547 580 532 C 550 527 532 516 559 503 Z" fill="lightgray" />
    
      <path d="M 483 412 Q 493 402 521 375 Q 564 331 575 331 Q 586 331 592 337 Q 599 345 599 354 Q 599 376 586 391 Q 570 410 542 419 Q 519 427 504 427 L 497 427 C 468 427 468 427 483 412 Z" fill="lightgray" />
    
      <path d="M 493 166 Q 505 148 512 117 Q 527 69 536 -49 Q 539 -96 563 -97 Q 573 -97 578 -63 L 580 -32 L 580 -30 Q 580 30 563 155 L 551 185 Q 547 190 538 193 C 511 206 478 192 493 166 Z" fill="lightgray" />
    
      <path d="M 809 -3 Q 833 101 871 153 Q 896 186 896 194 Q 896 204 861 226 Q 825 247 808 247 Q 794 247 757 230 Q 697 207 551 185 C 521 180 533 151 563 155 Q 601 160 667 171 Q 746 186 771 186 Q 792 186 792 171 L 758 -5 C 752 -34 802 -32 809 -3 Z" fill="lightgray" />
    
      <path d="M 578 -63 Q 583 -66 592 -66 Q 709 -53 831 -41 Q 844 -36 844 -30 Q 844 -19 825 -8 Q 818 -5 809 -3 L 758 -5 Q 709 -12 580 -32 C 550 -37 549 -54 578 -63 Z" fill="lightgray" />
    
    
      <clipPath id="make-me-a-hanzi-clip-0">
        <path d="M 252 746 Q 236 746 236 734 Q 236 732 238 724 Q 244 710 244 698 Q 236 639 193 532 Q 142 419 83 352 Q 51 314 51 310 Q 51 306 63 306 Q 87 306 132 352 L 147 367 Q 158 378 170 393 Q 207 438 241 504 L 258 538 Q 275 572 292 613 Q 310 658 323 681 Q 332 695 332 702 Q 332 715 297 732 Q 270 746 252 746 Z" />
      </clipPath>
      <path clip-path="url(#make-me-a-hanzi-clip-0)" d="M 249 734 L 284 694 L 235 557 L 185 457 L 142 393 L 100 345 L 57 309" fill="none" id="make-me-a-hanzi-animation-0" stroke-dasharray="635 1270" stroke-linecap="round" />
    
      <clipPath id="make-me-a-hanzi-clip-1">
        <path d="M 241 504 Q 260 499 280 499 Q 297 499 408 522 Q 424 528 424 547 Q 424 569 380 570 Q 369 570 353 565 Q 301 549 258 538 C 229 531 212 511 241 504 Z" />
      </clipPath>
      <path clip-path="url(#make-me-a-hanzi-clip-1)" d="M 248 507 L 273 520 L 406 547" fill="none" id="make-me-a-hanzi-animation-1" stroke-dasharray="292 584" stroke-linecap="round" />
    
      <clipPath id="make-me-a-hanzi-clip-2">
        <path d="M 132 352 Q 136 348 150 346 Q 172 339 191 339 Q 199 339 218 342 L 259 350 Q 301 358 372 375 Q 384 380 384 394 Q 384 414 347 415 Q 333 415 314 408 Q 215 380 147 367 C 118 361 115 361 132 352 Z" />
      </clipPath>
      <path clip-path="url(#make-me-a-hanzi-clip-2)" d="M 137 354 L 207 359 L 336 391 L 365 393" fill="none" id="make-me-a-hanzi-animation-2" stroke-dasharray="360 720" stroke-linecap="round" />
    
      <clipPath id="make-me-a-hanzi-clip-3">
        <path d="M 231 231 Q 184 221 116 211 Q 103 209 103 203 Q 103 195 126 187 Q 151 178 171 178 Q 183 178 205 184 Q 215 186 231 189 L 280 198 Q 305 204 340 211 Q 362 214 389 224 Q 403 230 403 243 Q 400 262 340 263 Q 331 263 309 254 Q 298 249 280 244 L 231 231 Z" />
      </clipPath>
      <path clip-path="url(#make-me-a-hanzi-clip-3)" d="M 112 203 L 182 200 L 334 236 L 390 241" fill="none" id="make-me-a-hanzi-animation-3" stroke-dasharray="410 820" stroke-linecap="round" />
    
      <clipPath id="make-me-a-hanzi-clip-4">
        <path d="M 218 342 Q 219 339 220 335 Q 231 309 231 255 L 231 231 L 231 189 Q 229 47 218 22 Q 213 5 186 -18 Q 171 -32 171 -41 Q 171 -44 179 -63 Q 197 -102 212 -102 Q 221 -102 250 -56 Q 294 -7 352 57 Q 391 99 391 110 Q 391 119 384 119 Q 381 119 309 63 Q 291 47 268 27 Q 269 36 270 46 Q 278 101 280 198 L 280 244 L 280 255 Q 280 281 282 295 Q 284 310 284 314 Q 284 329 264 346 Q 263 347 259 350 C 237 370 209 371 218 342 Z" />
      </clipPath>
      <path clip-path="url(#make-me-a-hanzi-clip-4)" d="M 225 340 L 252 321 L 256 304 L 254 121 L 245 34 L 274 31 L 287 16 L 246 -6 L 217 -39 L 211 -92" fill="none" id="make-me-a-hanzi-animation-4" stroke-dasharray="642 1284" stroke-linecap="round" />
    
      <clipPath id="make-me-a-hanzi-clip-5">
        <path d="M 580 731 Q 567 731 567 719 Q 571 698 571 679 Q 571 627 534 556 Q 485 463 418 388 Q 395 363 395 358 Q 395 354 403 354 Q 428 354 483 412 L 497 427 Q 529 459 559 503 L 580 532 L 592 552 Q 638 624 653 648 Q 668 666 668 671 Q 668 685 624 710 Q 588 731 580 731 Z" />
      </clipPath>
      <path clip-path="url(#make-me-a-hanzi-clip-5)" d="M 578 720 L 614 667 L 584 593 L 520 486 L 465 415 L 400 359" fill="none" id="make-me-a-hanzi-animation-5" stroke-dasharray="572 1144" stroke-linecap="round" />
    
      <clipPath id="make-me-a-hanzi-clip-6">
        <path d="M 559 503 Q 560 503 561 502 Q 579 490 596 490 Q 611 490 739 530 Q 748 530 748 522 Q 748 492 654 371 Q 544 235 376 131 Q 376 127 387 127 Q 420 127 493 166 L 538 193 Q 631 256 733 384 Q 815 495 837 511 Q 852 520 852 522 Q 852 535 818 567 Q 782 595 771 595 Q 766 595 739 576 Q 688 547 580 532 C 550 527 532 516 559 503 Z" />
      </clipPath>
      <path clip-path="url(#make-me-a-hanzi-clip-6)" d="M 563 508 L 570 504 L 642 521 L 745 553 L 774 552 L 792 529 L 766 478 L 719 409 L 601 275 L 489 185 L 409 140 L 384 135" fill="none" id="make-me-a-hanzi-animation-6" stroke-dasharray="956 1912" stroke-linecap="round" />
    
      <clipPath id="make-me-a-hanzi-clip-7">
        <path d="M 483 412 Q 493 402 521 375 Q 564 331 575 331 Q 586 331 592 337 Q 599 345 599 354 Q 599 376 586 391 Q 570 410 542 419 Q 519 427 504 427 L 497 427 C 468 427 468 427 483 412 Z" />
      </clipPath>
      <path clip-path="url(#make-me-a-hanzi-clip-7)" d="M 490 413 L 508 411 L 540 393 L 567 370 L 577 348" fill="none" id="make-me-a-hanzi-animation-7" stroke-dasharray="242 484" stroke-linecap="round" />
    
      <clipPath id="make-me-a-hanzi-clip-8">
        <path d="M 493 166 Q 505 148 512 117 Q 527 69 536 -49 Q 539 -96 563 -97 Q 573 -97 578 -63 L 580 -32 L 580 -30 Q 580 30 563 155 L 551 185 Q 547 190 538 193 C 511 206 478 192 493 166 Z" />
      </clipPath>
      <path clip-path="url(#make-me-a-hanzi-clip-8)" d="M 502 164 L 531 155 L 537 141 L 551 52 L 561 -86" fill="none" id="make-me-a-hanzi-animation-8" stroke-dasharray="402 804" stroke-linecap="round" />
    
      <clipPath id="make-me-a-hanzi-clip-9">
        <path d="M 809 -3 Q 833 101 871 153 Q 896 186 896 194 Q 896 204 861 226 Q 825 247 808 247 Q 794 247 757 230 Q 697 207 551 185 C 521 180 533 151 563 155 Q 601 160 667 171 Q 746 186 771 186 Q 792 186 792 171 L 758 -5 C 752 -34 802 -32 809 -3 Z" />
      </clipPath>
      <path clip-path="url(#make-me-a-hanzi-clip-9)" d="M 562 183 L 573 172 L 675 188 L 775 212 L 803 212 L 821 203 L 837 186 L 834 171 L 789 21 L 764 1" fill="none" id="make-me-a-hanzi-animation-9" stroke-dasharray="625 1250" stroke-linecap="round" />
    
      <clipPath id="make-me-a-hanzi-clip-10">
        <path d="M 578 -63 Q 583 -66 592 -66 Q 709 -53 831 -41 Q 844 -36 844 -30 Q 844 -19 825 -8 Q 818 -5 809 -3 L 758 -5 Q 709 -12 580 -32 C 550 -37 549 -54 578 -63 Z" />
      </clipPath>
      <path clip-path="url(#make-me-a-hanzi-clip-10)" d="M 587 -56 L 612 -45 L 725 -30 L 803 -23 L 834 -28" fill="none" id="make-me-a-hanzi-animation-10" stroke-dasharray="379 758" stroke-linecap="round" />
    
  </g>
</svg>