<svg xmlns="http://www.w3.org/2000/svg" version="1.1" viewBox="0 0 1024 1024">
  <g stroke="lightgray" stroke-dasharray="1,1" stroke-width="1" transform="scale(4, 4)">
    <line x1="0" y1="0" x2="256" y2="256" />
    <line x1="256" y1="0" x2="0" y2="256" />
    <line x1="128" y1="0" x2="128" y2="256" />
    <line x1="0" y1="128" x2="256" y2="128" />
  </g>
  <g transform="scale(1.0, -1.0) translate(0.0, -811.00)">
    <style type="text/css">
      
        @keyframes keyframes0 {
          from {
            stroke: blue;
            stroke-dashoffset: 757;
            stroke-width: 128;
          }
          71% {
            animation-timing-function: step-end;
            stroke: blue;
            stroke-dashoffset: 0;
            stroke-width: 128;
          }
          to {
            stroke: black;
            stroke-width: 1024;
          }
        }
        #make-me-a-hanzi-animation-0 {
          animation: keyframes0 0.8660481770833334s both;
          animation-delay: 0s;
          animation-timing-function: linear;
        }
      
        @keyframes keyframes1 {
          from {
            stroke: blue;
            stroke-dashoffset: 417;
            stroke-width: 128;
          }
          58% {
            animation-timing-function: step-end;
            stroke: blue;
            stroke-dashoffset: 0;
            stroke-width: 128;
          }
          to {
            stroke: black;
            stroke-width: 1024;
          }
        }
        #make-me-a-hanzi-animation-1 {
          animation: keyframes1 0.58935546875s both;
          animation-delay: 0.8660481770833334s;
          animation-timing-function: linear;
        }
      
        @keyframes keyframes2 {
          from {
            stroke: blue;
            stroke-dashoffset: 488;
            stroke-width: 128;
          }
          61% {
            animation-timing-function: step-end;
            stroke: blue;
            stroke-dashoffset: 0;
            stroke-width: 128;
          }
          to {
            stroke: black;
            stroke-width: 1024;
          }
        }
        #make-me-a-hanzi-animation-2 {
          animation: keyframes2 0.6471354166666666s both;
          animation-delay: 1.4554036458333335s;
          animation-timing-function: linear;
        }
      
        @keyframes keyframes3 {
          from {
            stroke: blue;
            stroke-dashoffset: 540;
            stroke-width: 128;
          }
          64% {
            animation-timing-function: step-end;
            stroke: blue;
            stroke-dashoffset: 0;
            stroke-width: 128;
          }
          to {
            stroke: black;
            stroke-width: 1024;
          }
        }
        #make-me-a-hanzi-animation-3 {
          animation: keyframes3 0.689453125s both;
          animation-delay: 2.1025390625s;
          animation-timing-function: linear;
        }
      
        @keyframes keyframes4 {
          from {
            stroke: blue;
            stroke-dashoffset: 763;
            stroke-width: 128;
          }
          71% {
            animation-timing-function: step-end;
            stroke: blue;
            stroke-dashoffset: 0;
            stroke-width: 128;
          }
          to {
            stroke: black;
            stroke-width: 1024;
          }
        }
        #make-me-a-hanzi-animation-4 {
          animation: keyframes4 0.8709309895833334s both;
          animation-delay: 2.7919921875s;
          animation-timing-function: linear;
        }
      
        @keyframes keyframes5 {
          from {
            stroke: blue;
            stroke-dashoffset: 797;
            stroke-width: 128;
          }
          72% {
            animation-timing-function: step-end;
            stroke: blue;
            stroke-dashoffset: 0;
            stroke-width: 128;
          }
          to {
            stroke: black;
            stroke-width: 1024;
          }
        }
        #make-me-a-hanzi-animation-5 {
          animation: keyframes5 0.8986002604166666s both;
          animation-delay: 3.6629231770833335s;
          animation-timing-function: linear;
        }
      
        @keyframes keyframes6 {
          from {
            stroke: blue;
            stroke-dashoffset: 434;
            stroke-width: 128;
          }
          59% {
            animation-timing-function: step-end;
            stroke: blue;
            stroke-dashoffset: 0;
            stroke-width: 128;
          }
          to {
            stroke: black;
            stroke-width: 1024;
          }
        }
        #make-me-a-hanzi-animation-6 {
          animation: keyframes6 0.6031901041666666s both;
          animation-delay: 4.5615234375s;
          animation-timing-function: linear;
        }
      
        @keyframes keyframes7 {
          from {
            stroke: blue;
            stroke-dashoffset: 415;
            stroke-width: 128;
          }
          57% {
            animation-timing-function: step-end;
            stroke: blue;
            stroke-dashoffset: 0;
            stroke-width: 128;
          }
          to {
            stroke: black;
            stroke-width: 1024;
          }
        }
        #make-me-a-hanzi-animation-7 {
          animation: keyframes7 0.5877278645833334s both;
          animation-delay: 5.164713541666667s;
          animation-timing-function: linear;
        }
      
        @keyframes keyframes8 {
          from {
            stroke: blue;
            stroke-dashoffset: 1157;
            stroke-width: 128;
          }
          79% {
            animation-timing-function: step-end;
            stroke: blue;
            stroke-dashoffset: 0;
            stroke-width: 128;
          }
          to {
            stroke: black;
            stroke-width: 1024;
          }
        }
        #make-me-a-hanzi-animation-8 {
          animation: keyframes8 1.1915690104166667s both;
          animation-delay: 5.75244140625s;
          animation-timing-function: linear;
        }
      
        @keyframes keyframes9 {
          from {
            stroke: blue;
            stroke-dashoffset: 497;
            stroke-width: 128;
          }
          62% {
            animation-timing-function: step-end;
            stroke: blue;
            stroke-dashoffset: 0;
            stroke-width: 128;
          }
          to {
            stroke: black;
            stroke-width: 1024;
          }
        }
        #make-me-a-hanzi-animation-9 {
          animation: keyframes9 0.6544596354166666s both;
          animation-delay: 6.944010416666667s;
          animation-timing-function: linear;
        }
      
        @keyframes keyframes10 {
          from {
            stroke: blue;
            stroke-dashoffset: 858;
            stroke-width: 128;
          }
          74% {
            animation-timing-function: step-end;
            stroke: blue;
            stroke-dashoffset: 0;
            stroke-width: 128;
          }
          to {
            stroke: black;
            stroke-width: 1024;
          }
        }
        #make-me-a-hanzi-animation-10 {
          animation: keyframes10 0.9482421875s both;
          animation-delay: 7.598470052083334s;
          animation-timing-function: linear;
        }
      
    </style>
    
      <path d="M 252 731 Q 236 731 236 719 Q 236 716 238 708 Q 244 694 244 683 Q 236 624 193 520 Q 142 408 83 344 Q 51 306 51 303 Q 51 299 63 299 Q 87 299 133 344 L 147 359 Q 158 369 170 384 Q 207 427 242 492 L 259 526 Q 275 559 292 599 Q 310 643 323 665 Q 332 679 332 687 Q 332 698 297 716 Q 270 731 252 731 Z" fill="lightgray" />
    
      <path d="M 242 492 Q 264 486 284 486 Q 299 486 408 511 Q 424 517 424 534 Q 424 557 380 559 Q 369 559 354 554 Q 301 535 259 526 C 230 520 213 499 242 492 Z" fill="lightgray" />
    
      <path d="M 133 344 Q 136 341 150 338 Q 172 331 191 331 Q 199 331 218 334 L 259 342 Q 301 350 372 366 Q 384 372 384 387 Q 384 405 347 406 Q 333 406 314 400 Q 217 372 147 359 C 118 353 115 353 133 344 Z" fill="lightgray" />
    
      <path d="M 231 218 Q 184 208 116 198 Q 103 197 103 190 Q 103 183 126 176 Q 151 167 171 167 Q 183 167 205 172 Q 215 173 231 176 L 279 184 Q 305 188 340 194 Q 362 198 389 208 Q 403 215 403 226 Q 400 246 340 247 Q 331 247 309 238 Q 298 234 280 229 L 231 218 Z" fill="lightgray" />
    
      <path d="M 218 334 Q 219 332 220 328 Q 231 301 231 247 L 231 218 L 231 176 Q 229 45 218 20 Q 213 4 186 -19 Q 171 -33 171 -41 Q 171 -44 179 -63 Q 197 -102 212 -102 Q 221 -102 250 -58 Q 294 -8 352 54 Q 391 95 391 106 Q 391 115 384 115 Q 381 115 309 61 Q 291 46 268 27 Q 269 34 270 44 Q 276 96 279 184 L 280 229 L 280 247 Q 280 273 282 287 Q 284 302 284 306 Q 284 320 264 338 Q 263 339 259 342 C 237 362 209 362 218 334 Z" fill="lightgray" />
    
      <path d="M 727 683 Q 716 683 681 662 Q 602 619 504 602 C 475 596 494 570 523 576 Q 546 580 614 601 Q 677 618 687 618 Q 712 618 712 599 Q 712 577 702 519 L 696 485 Q 687 424 677 396 C 668 367 665 357 665 357 Q 667 354 673 346 Q 683 335 695 335 Q 712 335 725 378 Q 725 379 773 526 Q 788 573 814 599 Q 827 614 827 618 Q 827 632 788 655 Q 742 683 727 683 Z" fill="lightgray" />
    
      <path d="M 702 519 Q 695 522 680 522 Q 667 522 649 518 Q 574 496 520 486 C 491 480 490 468 519 462 Q 531 459 544 459 Q 563 459 696 485 C 725 491 731 511 702 519 Z" fill="lightgray" />
    
      <path d="M 520 332 Q 520 331 523 331 Q 591 344 665 357 C 695 362 706 390 677 396 Q 670 398 659 398 Q 652 398 519 363 C 490 355 490 335 520 332 Z" fill="lightgray" />
    
      <path d="M 504 602 Q 503 603 500 604 Q 468 610 452 610 Q 439 610 439 606 Q 439 601 453 586 Q 471 550 471 499 L 471 79 Q 471 24 447 -31 Q 431 -56 431 -74 Q 431 -88 447 -111 Q 467 -133 475 -133 Q 487 -133 508 -112 Q 535 -82 658 26 Q 680 47 680 50 Q 680 57 676 58 Q 671 58 519 -13 L 519 298 L 520 332 L 519 363 L 519 462 L 520 486 L 523 574 L 523 576 C 524 598 524 598 504 602 Z" fill="lightgray" />
    
      <path d="M 664 193 Q 689 208 757 251 Q 855 318 855 322 Q 855 341 816 353 Q 790 363 771 366 Q 756 366 756 354 Q 753 317 717 272 Q 692 244 651 209 L 649 207 C 627 187 638 177 664 193 Z" fill="lightgray" />
    
      <path d="M 519 298 Q 536 277 565 236 Q 717 30 768 -11 Q 788 -26 800 -26 Q 839 -26 912 -13 Q 995 -1 995 10 Q 995 17 947 30 Q 857 52 794 93 Q 738 128 664 193 L 649 207 Q 608 244 561 291 Q 535 318 520 332 C 498 353 501 322 519 298 Z" fill="lightgray" />
    
    
      <clipPath id="make-me-a-hanzi-clip-0">
        <path d="M 252 731 Q 236 731 236 719 Q 236 716 238 708 Q 244 694 244 683 Q 236 624 193 520 Q 142 408 83 344 Q 51 306 51 303 Q 51 299 63 299 Q 87 299 133 344 L 147 359 Q 158 369 170 384 Q 207 427 242 492 L 259 526 Q 275 559 292 599 Q 310 643 323 665 Q 332 679 332 687 Q 332 698 297 716 Q 270 731 252 731 Z" />
      </clipPath>
      <path clip-path="url(#make-me-a-hanzi-clip-0)" d="M 249 719 L 284 678 L 220 510 L 193 459 L 137 377 L 81 318 L 57 302" fill="none" id="make-me-a-hanzi-animation-0" stroke-dasharray="629 1258" stroke-linecap="round" />
    
      <clipPath id="make-me-a-hanzi-clip-1">
        <path d="M 242 492 Q 264 486 284 486 Q 299 486 408 511 Q 424 517 424 534 Q 424 557 380 559 Q 369 559 354 554 Q 301 535 259 526 C 230 520 213 499 242 492 Z" />
      </clipPath>
      <path clip-path="url(#make-me-a-hanzi-clip-1)" d="M 250 495 L 273 508 L 405 534" fill="none" id="make-me-a-hanzi-animation-1" stroke-dasharray="289 578" stroke-linecap="round" />
    
      <clipPath id="make-me-a-hanzi-clip-2">
        <path d="M 133 344 Q 136 341 150 338 Q 172 331 191 331 Q 199 331 218 334 L 259 342 Q 301 350 372 366 Q 384 372 384 387 Q 384 405 347 406 Q 333 406 314 400 Q 217 372 147 359 C 118 353 115 353 133 344 Z" />
      </clipPath>
      <path clip-path="url(#make-me-a-hanzi-clip-2)" d="M 138 346 L 207 351 L 366 386" fill="none" id="make-me-a-hanzi-animation-2" stroke-dasharray="360 720" stroke-linecap="round" />
    
      <clipPath id="make-me-a-hanzi-clip-3">
        <path d="M 231 218 Q 184 208 116 198 Q 103 197 103 190 Q 103 183 126 176 Q 151 167 171 167 Q 183 167 205 172 Q 215 173 231 176 L 279 184 Q 305 188 340 194 Q 362 198 389 208 Q 403 215 403 226 Q 400 246 340 247 Q 331 247 309 238 Q 298 234 280 229 L 231 218 Z" />
      </clipPath>
      <path clip-path="url(#make-me-a-hanzi-clip-3)" d="M 111 191 L 153 185 L 183 188 L 350 223 L 391 225" fill="none" id="make-me-a-hanzi-animation-3" stroke-dasharray="412 824" stroke-linecap="round" />
    
      <clipPath id="make-me-a-hanzi-clip-4">
        <path d="M 218 334 Q 219 332 220 328 Q 231 301 231 247 L 231 218 L 231 176 Q 229 45 218 20 Q 213 4 186 -19 Q 171 -33 171 -41 Q 171 -44 179 -63 Q 197 -102 212 -102 Q 221 -102 250 -58 Q 294 -8 352 54 Q 391 95 391 106 Q 391 115 384 115 Q 381 115 309 61 Q 291 46 268 27 Q 269 34 270 44 Q 276 96 279 184 L 280 229 L 280 247 Q 280 273 282 287 Q 284 302 284 306 Q 284 320 264 338 Q 263 339 259 342 C 237 362 209 362 218 334 Z" />
      </clipPath>
      <path clip-path="url(#make-me-a-hanzi-clip-4)" d="M 225 333 L 252 314 L 256 296 L 256 175 L 246 34 L 275 30 L 287 15 L 276 5 L 248 -4 L 217 -41 L 211 -57 L 211 -92" fill="none" id="make-me-a-hanzi-animation-4" stroke-dasharray="635 1270" stroke-linecap="round" />
    
      <clipPath id="make-me-a-hanzi-clip-5">
        <path d="M 727 683 Q 716 683 681 662 Q 602 619 504 602 C 475 596 494 570 523 576 Q 546 580 614 601 Q 677 618 687 618 Q 712 618 712 599 Q 712 577 702 519 L 696 485 Q 687 424 677 396 C 668 367 665 357 665 357 Q 667 354 673 346 Q 683 335 695 335 Q 712 335 725 378 Q 725 379 773 526 Q 788 573 814 599 Q 827 614 827 618 Q 827 632 788 655 Q 742 683 727 683 Z" />
      </clipPath>
      <path clip-path="url(#make-me-a-hanzi-clip-5)" d="M 512 602 L 534 593 L 600 609 L 684 640 L 718 645 L 734 641 L 756 619 L 757 597 L 699 377 L 692 362 L 680 360" fill="none" id="make-me-a-hanzi-animation-5" stroke-dasharray="669 1338" stroke-linecap="round" />
    
      <clipPath id="make-me-a-hanzi-clip-6">
        <path d="M 702 519 Q 695 522 680 522 Q 667 522 649 518 Q 574 496 520 486 C 491 480 490 468 519 462 Q 531 459 544 459 Q 563 459 696 485 C 725 491 731 511 702 519 Z" />
      </clipPath>
      <path clip-path="url(#make-me-a-hanzi-clip-6)" d="M 526 468 L 534 474 L 674 501 L 696 514" fill="none" id="make-me-a-hanzi-animation-6" stroke-dasharray="306 612" stroke-linecap="round" />
    
      <clipPath id="make-me-a-hanzi-clip-7">
        <path d="M 520 332 Q 520 331 523 331 Q 591 344 665 357 C 695 362 706 390 677 396 Q 670 398 659 398 Q 652 398 519 363 C 490 355 490 335 520 332 Z" />
      </clipPath>
      <path clip-path="url(#make-me-a-hanzi-clip-7)" d="M 524 340 L 538 352 L 640 372 L 672 390" fill="none" id="make-me-a-hanzi-animation-7" stroke-dasharray="287 574" stroke-linecap="round" />
    
      <clipPath id="make-me-a-hanzi-clip-8">
        <path d="M 504 602 Q 503 603 500 604 Q 468 610 452 610 Q 439 610 439 606 Q 439 601 453 586 Q 471 550 471 499 L 471 79 Q 471 24 447 -31 Q 431 -56 431 -74 Q 431 -88 447 -111 Q 467 -133 475 -133 Q 487 -133 508 -112 Q 535 -82 658 26 Q 680 47 680 50 Q 680 57 676 58 Q 671 58 519 -13 L 519 298 L 520 332 L 519 363 L 519 462 L 520 486 L 523 574 L 523 576 C 524 598 524 598 504 602 Z" />
      </clipPath>
      <path clip-path="url(#make-me-a-hanzi-clip-8)" d="M 446 605 L 490 572 L 496 524 L 495 56 L 486 -21 L 491 -56 L 525 -47 L 676 53" fill="none" id="make-me-a-hanzi-animation-8" stroke-dasharray="1029 2058" stroke-linecap="round" />
    
      <clipPath id="make-me-a-hanzi-clip-9">
        <path d="M 664 193 Q 689 208 757 251 Q 855 318 855 322 Q 855 341 816 353 Q 790 363 771 366 Q 756 366 756 354 Q 753 317 717 272 Q 692 244 651 209 L 649 207 C 627 187 638 177 664 193 Z" />
      </clipPath>
      <path clip-path="url(#make-me-a-hanzi-clip-9)" d="M 849 325 L 789 321 L 721 248 L 671 210 L 654 204" fill="none" id="make-me-a-hanzi-animation-9" stroke-dasharray="369 738" stroke-linecap="round" />
    
      <clipPath id="make-me-a-hanzi-clip-10">
        <path d="M 519 298 Q 536 277 565 236 Q 717 30 768 -11 Q 788 -26 800 -26 Q 839 -26 912 -13 Q 995 -1 995 10 Q 995 17 947 30 Q 857 52 794 93 Q 738 128 664 193 L 649 207 Q 608 244 561 291 Q 535 318 520 332 C 498 353 501 322 519 298 Z" />
      </clipPath>
      <path clip-path="url(#make-me-a-hanzi-clip-10)" d="M 522 326 L 531 303 L 603 218 L 715 101 L 788 38 L 806 26 L 850 18 L 991 10" fill="none" id="make-me-a-hanzi-animation-10" stroke-dasharray="730 1460" stroke-linecap="round" />
    
  </g>
</svg>