<svg version="1.1" viewBox="0 0 1024 1024" xmlns="http://www.w3.org/2000/svg">
  <g stroke="lightgray" stroke-dasharray="1,1" stroke-width="1" transform="scale(4, 4)">
    <line x1="0" y1="0" x2="256" y2="256"></line>
    <line x1="256" y1="0" x2="0" y2="256"></line>
    <line x1="128" y1="0" x2="128" y2="256"></line>
    <line x1="0" y1="128" x2="256" y2="128"></line>
  </g>
  <g transform="scale(0.92, -0.92) translate(60, -830)">
    <style type="text/css">
      
        @keyframes keyframes0 {
          from {
            stroke: blue;
            stroke-dashoffset: 738;
            stroke-width: 128;
          }
          71% {
            animation-timing-function: step-end;
            stroke: blue;
            stroke-dashoffset: 0;
            stroke-width: 128;
          }
          to {
            stroke: black;
            stroke-width: 1024;
          }
        }
        #make-me-a-hanzi-animation-0 {
          animation: keyframes0 0.8505859375s both;
          animation-delay: 0s;
          animation-timing-function: linear;
        }
      
        @keyframes keyframes1 {
          from {
            stroke: blue;
            stroke-dashoffset: 387;
            stroke-width: 128;
          }
          56% {
            animation-timing-function: step-end;
            stroke: blue;
            stroke-dashoffset: 0;
            stroke-width: 128;
          }
          to {
            stroke: black;
            stroke-width: 1024;
          }
        }
        #make-me-a-hanzi-animation-1 {
          animation: keyframes1 0.56494140625s both;
          animation-delay: 0.8505859375s;
          animation-timing-function: linear;
        }
      
        @keyframes keyframes2 {
          from {
            stroke: blue;
            stroke-dashoffset: 450;
            stroke-width: 128;
          }
          59% {
            animation-timing-function: step-end;
            stroke: blue;
            stroke-dashoffset: 0;
            stroke-width: 128;
          }
          to {
            stroke: black;
            stroke-width: 1024;
          }
        }
        #make-me-a-hanzi-animation-2 {
          animation: keyframes2 0.6162109375s both;
          animation-delay: 1.41552734375s;
          animation-timing-function: linear;
        }
      
        @keyframes keyframes3 {
          from {
            stroke: blue;
            stroke-dashoffset: 507;
            stroke-width: 128;
          }
          62% {
            animation-timing-function: step-end;
            stroke: blue;
            stroke-dashoffset: 0;
            stroke-width: 128;
          }
          to {
            stroke: black;
            stroke-width: 1024;
          }
        }
        #make-me-a-hanzi-animation-3 {
          animation: keyframes3 0.66259765625s both;
          animation-delay: 2.03173828125s;
          animation-timing-function: linear;
        }
      
        @keyframes keyframes4 {
          from {
            stroke: blue;
            stroke-dashoffset: 743;
            stroke-width: 128;
          }
          71% {
            animation-timing-function: step-end;
            stroke: blue;
            stroke-dashoffset: 0;
            stroke-width: 128;
          }
          to {
            stroke: black;
            stroke-width: 1024;
          }
        }
        #make-me-a-hanzi-animation-4 {
          animation: keyframes4 0.8546549479166666s both;
          animation-delay: 2.6943359375s;
          animation-timing-function: linear;
        }
      
        @keyframes keyframes5 {
          from {
            stroke: blue;
            stroke-dashoffset: 587;
            stroke-width: 128;
          }
          66% {
            animation-timing-function: step-end;
            stroke: blue;
            stroke-dashoffset: 0;
            stroke-width: 128;
          }
          to {
            stroke: black;
            stroke-width: 1024;
          }
        }
        #make-me-a-hanzi-animation-5 {
          animation: keyframes5 0.7277018229166666s both;
          animation-delay: 3.5489908854166665s;
          animation-timing-function: linear;
        }
      
        @keyframes keyframes6 {
          from {
            stroke: blue;
            stroke-dashoffset: 942;
            stroke-width: 128;
          }
          75% {
            animation-timing-function: step-end;
            stroke: blue;
            stroke-dashoffset: 0;
            stroke-width: 128;
          }
          to {
            stroke: black;
            stroke-width: 1024;
          }
        }
        #make-me-a-hanzi-animation-6 {
          animation: keyframes6 1.0166015625s both;
          animation-delay: 4.276692708333333s;
          animation-timing-function: linear;
        }
      
        @keyframes keyframes7 {
          from {
            stroke: blue;
            stroke-dashoffset: 670;
            stroke-width: 128;
          }
          69% {
            animation-timing-function: step-end;
            stroke: blue;
            stroke-dashoffset: 0;
            stroke-width: 128;
          }
          to {
            stroke: black;
            stroke-width: 1024;
          }
        }
        #make-me-a-hanzi-animation-7 {
          animation: keyframes7 0.7952473958333334s both;
          animation-delay: 5.293294270833333s;
          animation-timing-function: linear;
        }
      
        @keyframes keyframes8 {
          from {
            stroke: blue;
            stroke-dashoffset: 730;
            stroke-width: 128;
          }
          70% {
            animation-timing-function: step-end;
            stroke: blue;
            stroke-dashoffset: 0;
            stroke-width: 128;
          }
          to {
            stroke: black;
            stroke-width: 1024;
          }
        }
        #make-me-a-hanzi-animation-8 {
          animation: keyframes8 0.8440755208333334s both;
          animation-delay: 6.088541666666666s;
          animation-timing-function: linear;
        }
      
        @keyframes keyframes9 {
          from {
            stroke: blue;
            stroke-dashoffset: 380;
            stroke-width: 128;
          }
          55% {
            animation-timing-function: step-end;
            stroke: blue;
            stroke-dashoffset: 0;
            stroke-width: 128;
          }
          to {
            stroke: black;
            stroke-width: 1024;
          }
        }
        #make-me-a-hanzi-animation-9 {
          animation: keyframes9 0.5592447916666666s both;
          animation-delay: 6.932617187499999s;
          animation-timing-function: linear;
        }
      
        @keyframes keyframes10 {
          from {
            stroke: blue;
            stroke-dashoffset: 656;
            stroke-width: 128;
          }
          68% {
            animation-timing-function: step-end;
            stroke: blue;
            stroke-dashoffset: 0;
            stroke-width: 128;
          }
          to {
            stroke: black;
            stroke-width: 1024;
          }
        }
        #make-me-a-hanzi-animation-10 {
          animation: keyframes10 0.7838541666666666s both;
          animation-delay: 7.491861979166666s;
          animation-timing-function: linear;
        }
      
        @keyframes keyframes11 {
          from {
            stroke: blue;
            stroke-dashoffset: 900;
            stroke-width: 128;
          }
          75% {
            animation-timing-function: step-end;
            stroke: blue;
            stroke-dashoffset: 0;
            stroke-width: 128;
          }
          to {
            stroke: black;
            stroke-width: 1024;
          }
        }
        #make-me-a-hanzi-animation-11 {
          animation: keyframes11 0.982421875s both;
          animation-delay: 8.275716145833332s;
          animation-timing-function: linear;
        }
      
    </style>
    
      <path d="M 221 728 Q 208 728 208 715 Q 208 712 210 705 Q 213 691 213 679 Q 210 617 173 517 Q 128 410 76 347 Q 48 311 48 308 Q 48 304 62 304 Q 84 304 127 348 L 142 365 Q 151 376 160 387 Q 195 431 226 496 L 244 534 Q 257 563 270 597 Q 287 639 298 661 Q 306 675 306 682 Q 306 694 270 714 Q 241 728 221 728 Z" fill="lightgray"></path>
    
      <path d="M 226 496 Q 245 492 262 492 Q 275 492 362 509 Q 380 515 380 532 Q 380 557 334 559 Q 325 559 313 554 Q 275 541 244 534 C 215 527 197 502 226 496 Z" fill="lightgray"></path>
    
      <path d="M 127 348 Q 130 346 139 344 Q 159 337 177 337 L 239 346 Q 273 354 329 368 Q 344 373 344 388 Q 344 409 305 411 Q 293 411 278 405 Q 198 377 142 365 C 113 359 105 357 127 348 Z" fill="lightgray"></path>
    
      <path d="M 198 231 Q 161 223 105 214 Q 92 212 92 206 Q 92 198 116 189 Q 142 179 164 179 Q 174 179 190 183 Q 194 184 198 184 L 248 195 Q 266 199 293 205 Q 318 209 345 220 Q 359 227 360 240 Q 357 258 296 260 Q 288 260 271 252 Q 262 248 249 243 L 198 231 Z" fill="lightgray"></path>
    
      <path d="M 177 337 Q 177 336 179 334 Q 198 298 198 248 L 198 231 L 198 184 L 198 48 Q 198 24 168 0 Q 148 -11 148 -18 Q 148 -33 165 -54 Q 185 -76 193 -76 Q 202 -76 219 -54 Q 240 -23 336 90 Q 352 112 352 115 Q 352 122 346 124 Q 343 124 248 58 L 248 195 L 249 243 L 252 322 Q 252 336 239 346 C 220 370 163 364 177 337 Z" fill="lightgray"></path>
    
      <path d="M 648 558 Q 598 550 551 548 Q 544 548 544 541 Q 566 512 588 512 Q 602 512 637 515 L 683 520 Q 750 528 865 545 Q 892 550 892 562 Q 892 572 863 584 Q 831 594 815 594 Q 813 594 787 586 Q 744 574 701 567 L 648 558 Z" fill="lightgray"></path>
    
      <path d="M 675 712 Q 662 712 662 701 Q 664 701 665 686 Q 669 674 669 666 Q 669 638 648 558 L 637 515 Q 615 442 597 406 Q 579 374 563 363 Q 550 357 548 347 Q 550 336 556 323 Q 565 310 575 308 Q 629 322 682 328 Q 687 328 693 330 L 745 333 Q 794 335 850 335 Q 870 335 872 348 Q 872 360 852 373 Q 834 388 814 388 Q 800 388 748 380 L 746 380 L 693 371 Q 639 362 603 355 Q 654 446 683 520 L 701 567 Q 725 621 737 647 Q 745 660 745 670 Q 743 685 717 703 Q 695 712 675 712 Z" fill="lightgray"></path>
    
      <path d="M 693 243 Q 669 240 638 236 Q 566 226 526 222 Q 515 220 514 214 Q 515 210 536 195 Q 553 185 566 185 Q 572 185 591 189 Q 636 198 693 204 L 743 208 Q 779 211 811 211 L 847 209 Q 891 206 911 206 Q 941 207 943 222 Q 941 236 916 251 Q 891 265 871 265 Q 863 265 850 263 Q 827 260 802 258 Q 786 256 744 251 L 693 243 Z" fill="lightgray"></path>
    
      <path d="M 693 330 L 693 243 L 693 204 L 693 141 Q 693 81 696 46 Q 702 14 712 14 Q 720 14 730 59 Q 742 106 742 168 L 743 208 L 744 251 L 745 333 L 746 380 L 746 392 Q 748 418 754 443 Q 760 454 760 458 Q 760 472 733 484 Q 705 496 696 496 Q 683 494 683 484 Q 683 480 686 469 Q 693 444 693 406 L 693 371 L 693 330 Z" fill="lightgray"></path>
    
      <path d="M 418 560 Q 396 560 396 555 Q 396 551 426 504 Q 464 452 486 452 Q 508 452 508 474 Q 508 505 499 524 Q 486 544 466 553 Q 441 560 418 560 Z" fill="lightgray"></path>
    
      <path d="M 451 388 Q 447 388 437 379 Q 427 370 400 358 Q 377 348 360 347 Q 340 344 340 338 Q 340 335 361 321 Q 377 312 388 312 Q 392 312 398 316 Q 406 321 435 332 Q 441 332 441 321 Q 441 317 434 302 Q 418 262 418 224 Q 418 212 429 189 Q 450 148 453 92 C 455 62 482 54 484 84 Q 486 108 486 124 Q 486 147 476 185 Q 465 218 465 224 Q 465 238 472 260 Q 484 286 511 315 Q 524 330 524 332 Q 524 342 494 366 Q 460 388 451 388 Z" fill="lightgray"></path>
    
      <path d="M 453 92 Q 441 94 432 94 Q 401 94 378 93 Q 352 87 352 76 Q 352 69 368 57 Q 389 40 395 40 Q 399 40 420 45 Q 449 52 463 52 Q 489 52 621 -24 Q 756 -108 790 -108 Q 815 -108 899 -65 Q 979 -22 979 -4 Q 979 4 967 6 Q 961 6 936 -3 Q 888 -15 809 -16 Q 722 -13 594 40 Q 528 69 484 84 L 453 92 Z" fill="lightgray"></path>
    
    
      <clipPath id="make-me-a-hanzi-clip-0">
        <path d="M 221 728 Q 208 728 208 715 Q 208 712 210 705 Q 213 691 213 679 Q 210 617 173 517 Q 128 410 76 347 Q 48 311 48 308 Q 48 304 62 304 Q 84 304 127 348 L 142 365 Q 151 376 160 387 Q 195 431 226 496 L 244 534 Q 257 563 270 597 Q 287 639 298 661 Q 306 675 306 682 Q 306 694 270 714 Q 241 728 221 728 Z"></path>
      </clipPath>
      <path clip-path="url(#make-me-a-hanzi-clip-0)" d="M 219 717 L 241 696 L 255 670 L 209 528 L 176 456 L 130 384 L 93 338 L 55 307" fill="none" id="make-me-a-hanzi-animation-0" stroke-dasharray="610 1220" stroke-linecap="round"></path>
    
      <clipPath id="make-me-a-hanzi-clip-1">
        <path d="M 226 496 Q 245 492 262 492 Q 275 492 362 509 Q 380 515 380 532 Q 380 557 334 559 Q 325 559 313 554 Q 275 541 244 534 C 215 527 197 502 226 496 Z"></path>
      </clipPath>
      <path clip-path="url(#make-me-a-hanzi-clip-1)" d="M 233 500 L 260 515 L 359 532" fill="none" id="make-me-a-hanzi-animation-1" stroke-dasharray="259 518" stroke-linecap="round"></path>
    
      <clipPath id="make-me-a-hanzi-clip-2">
        <path d="M 127 348 Q 130 346 139 344 Q 159 337 177 337 L 239 346 Q 273 354 329 368 Q 344 373 344 388 Q 344 409 305 411 Q 293 411 278 405 Q 198 377 142 365 C 113 359 105 357 127 348 Z"></path>
      </clipPath>
      <path clip-path="url(#make-me-a-hanzi-clip-2)" d="M 134 349 L 324 387" fill="none" id="make-me-a-hanzi-animation-2" stroke-dasharray="322 644" stroke-linecap="round"></path>
    
      <clipPath id="make-me-a-hanzi-clip-3">
        <path d="M 198 231 Q 161 223 105 214 Q 92 212 92 206 Q 92 198 116 189 Q 142 179 164 179 Q 174 179 190 183 Q 194 184 198 184 L 248 195 Q 266 199 293 205 Q 318 209 345 220 Q 359 227 360 240 Q 357 258 296 260 Q 288 260 271 252 Q 262 248 249 243 L 198 231 Z"></path>
      </clipPath>
      <path clip-path="url(#make-me-a-hanzi-clip-3)" d="M 101 206 L 178 203 L 305 235 L 348 238" fill="none" id="make-me-a-hanzi-animation-3" stroke-dasharray="379 758" stroke-linecap="round"></path>
    
      <clipPath id="make-me-a-hanzi-clip-4">
        <path d="M 177 337 Q 177 336 179 334 Q 198 298 198 248 L 198 231 L 198 184 L 198 48 Q 198 24 168 0 Q 148 -11 148 -18 Q 148 -33 165 -54 Q 185 -76 193 -76 Q 202 -76 219 -54 Q 240 -23 336 90 Q 352 112 352 115 Q 352 122 346 124 Q 343 124 248 58 L 248 195 L 249 243 L 252 322 Q 252 336 239 346 C 220 370 163 364 177 337 Z"></path>
      </clipPath>
      <path clip-path="url(#make-me-a-hanzi-clip-4)" d="M 188 331 L 220 313 L 223 299 L 222 71 L 224 66 L 259 66 L 269 46 L 256 33 L 232 24 L 196 -23 L 193 -65" fill="none" id="make-me-a-hanzi-animation-4" stroke-dasharray="615 1230" stroke-linecap="round"></path>
    
      <clipPath id="make-me-a-hanzi-clip-5">
        <path d="M 648 558 Q 598 550 551 548 Q 544 548 544 541 Q 566 512 588 512 Q 602 512 637 515 L 683 520 Q 750 528 865 545 Q 892 550 892 562 Q 892 572 863 584 Q 831 594 815 594 Q 813 594 787 586 Q 744 574 701 567 L 648 558 Z"></path>
      </clipPath>
      <path clip-path="url(#make-me-a-hanzi-clip-5)" d="M 554 538 L 592 531 L 804 564 L 882 561" fill="none" id="make-me-a-hanzi-animation-5" stroke-dasharray="459 918" stroke-linecap="round"></path>
    
      <clipPath id="make-me-a-hanzi-clip-6">
        <path d="M 675 712 Q 662 712 662 701 Q 664 701 665 686 Q 669 674 669 666 Q 669 638 648 558 L 637 515 Q 615 442 597 406 Q 579 374 563 363 Q 550 357 548 347 Q 550 336 556 323 Q 565 310 575 308 Q 629 322 682 328 Q 687 328 693 330 L 745 333 Q 794 335 850 335 Q 870 335 872 348 Q 872 360 852 373 Q 834 388 814 388 Q 800 388 748 380 L 746 380 L 693 371 Q 639 362 603 355 Q 654 446 683 520 L 701 567 Q 725 621 737 647 Q 745 660 745 670 Q 743 685 717 703 Q 695 712 675 712 Z"></path>
      </clipPath>
      <path clip-path="url(#make-me-a-hanzi-clip-6)" d="M 673 702 L 706 666 L 637 456 L 581 350 L 580 338 L 593 334 L 687 351 L 817 362 L 860 349" fill="none" id="make-me-a-hanzi-animation-6" stroke-dasharray="814 1628" stroke-linecap="round"></path>
    
      <clipPath id="make-me-a-hanzi-clip-7">
        <path d="M 693 243 Q 669 240 638 236 Q 566 226 526 222 Q 515 220 514 214 Q 515 210 536 195 Q 553 185 566 185 Q 572 185 591 189 Q 636 198 693 204 L 743 208 Q 779 211 811 211 L 847 209 Q 891 206 911 206 Q 941 207 943 222 Q 941 236 916 251 Q 891 265 871 265 Q 863 265 850 263 Q 827 260 802 258 Q 786 256 744 251 L 693 243 Z"></path>
      </clipPath>
      <path clip-path="url(#make-me-a-hanzi-clip-7)" d="M 522 215 L 562 205 L 756 232 L 835 236 L 884 235 L 931 223" fill="none" id="make-me-a-hanzi-animation-7" stroke-dasharray="542 1084" stroke-linecap="round"></path>
    
      <clipPath id="make-me-a-hanzi-clip-8">
        <path d="M 693 330 L 693 243 L 693 204 L 693 141 Q 693 81 696 46 Q 702 14 712 14 Q 720 14 730 59 Q 742 106 742 168 L 743 208 L 744 251 L 745 333 L 746 380 L 746 392 Q 748 418 754 443 Q 760 454 760 458 Q 760 472 733 484 Q 705 496 696 496 Q 683 494 683 484 Q 683 480 686 469 Q 693 444 693 406 L 693 371 L 693 330 Z"></path>
      </clipPath>
      <path clip-path="url(#make-me-a-hanzi-clip-8)" d="M 695 484 L 722 453 L 723 443 L 711 20" fill="none" id="make-me-a-hanzi-animation-8" stroke-dasharray="602 1204" stroke-linecap="round"></path>
    
      <clipPath id="make-me-a-hanzi-clip-9">
        <path d="M 418 560 Q 396 560 396 555 Q 396 551 426 504 Q 464 452 486 452 Q 508 452 508 474 Q 508 505 499 524 Q 486 544 466 553 Q 441 560 418 560 Z"></path>
      </clipPath>
      <path clip-path="url(#make-me-a-hanzi-clip-9)" d="M 401 554 L 456 521 L 489 471" fill="none" id="make-me-a-hanzi-animation-9" stroke-dasharray="252 504" stroke-linecap="round"></path>
    
      <clipPath id="make-me-a-hanzi-clip-10">
        <path d="M 451 388 Q 447 388 437 379 Q 427 370 400 358 Q 377 348 360 347 Q 340 344 340 338 Q 340 335 361 321 Q 377 312 388 312 Q 392 312 398 316 Q 406 321 435 332 Q 441 332 441 321 Q 441 317 434 302 Q 418 262 418 224 Q 418 212 429 189 Q 450 148 453 92 C 455 62 482 54 484 84 Q 486 108 486 124 Q 486 147 476 185 Q 465 218 465 224 Q 465 238 472 260 Q 484 286 511 315 Q 524 330 524 332 Q 524 342 494 366 Q 460 388 451 388 Z"></path>
      </clipPath>
      <path clip-path="url(#make-me-a-hanzi-clip-10)" d="M 346 338 L 386 332 L 448 355 L 458 353 L 477 333 L 449 272 L 442 222 L 464 155 L 469 106 L 481 92" fill="none" id="make-me-a-hanzi-animation-10" stroke-dasharray="528 1056" stroke-linecap="round"></path>
    
      <clipPath id="make-me-a-hanzi-clip-11">
        <path d="M 453 92 Q 441 94 432 94 Q 401 94 378 93 Q 352 87 352 76 Q 352 69 368 57 Q 389 40 395 40 Q 399 40 420 45 Q 449 52 463 52 Q 489 52 621 -24 Q 756 -108 790 -108 Q 815 -108 899 -65 Q 979 -22 979 -4 Q 979 4 967 6 Q 961 6 936 -3 Q 888 -15 809 -16 Q 722 -13 594 40 Q 528 69 484 84 L 453 92 Z"></path>
      </clipPath>
      <path clip-path="url(#make-me-a-hanzi-clip-11)" d="M 363 76 L 398 67 L 436 72 L 477 68 L 688 -28 L 792 -61 L 898 -38 L 969 -4" fill="none" id="make-me-a-hanzi-animation-11" stroke-dasharray="772 1544" stroke-linecap="round"></path>
    
  </g>
</svg>