<svg xmlns="http://www.w3.org/2000/svg" version="1.1" viewBox="0 0 1024 1024">
  <g stroke="lightgray" stroke-dasharray="1,1" stroke-width="1" transform="scale(4, 4)">
    <line x1="0" y1="0" x2="256" y2="256" />
    <line x1="256" y1="0" x2="0" y2="256" />
    <line x1="128" y1="0" x2="128" y2="256" />
    <line x1="0" y1="128" x2="256" y2="128" />
  </g>
  <g transform="scale(1.0, -1.0) translate(0.0, -828.00)">
    <style type="text/css">
      
        @keyframes keyframes0 {
          from {
            stroke: blue;
            stroke-dashoffset: 768;
            stroke-width: 128;
          }
          71% {
            animation-timing-function: step-end;
            stroke: blue;
            stroke-dashoffset: 0;
            stroke-width: 128;
          }
          to {
            stroke: black;
            stroke-width: 1024;
          }
        }
        #make-me-a-hanzi-animation-0 {
          animation: keyframes0 0.875s both;
          animation-delay: 0s;
          animation-timing-function: linear;
        }
      
        @keyframes keyframes1 {
          from {
            stroke: blue;
            stroke-dashoffset: 426;
            stroke-width: 128;
          }
          58% {
            animation-timing-function: step-end;
            stroke: blue;
            stroke-dashoffset: 0;
            stroke-width: 128;
          }
          to {
            stroke: black;
            stroke-width: 1024;
          }
        }
        #make-me-a-hanzi-animation-1 {
          animation: keyframes1 0.5966796875s both;
          animation-delay: 0.875s;
          animation-timing-function: linear;
        }
      
        @keyframes keyframes2 {
          from {
            stroke: blue;
            stroke-dashoffset: 489;
            stroke-width: 128;
          }
          61% {
            animation-timing-function: step-end;
            stroke: blue;
            stroke-dashoffset: 0;
            stroke-width: 128;
          }
          to {
            stroke: black;
            stroke-width: 1024;
          }
        }
        #make-me-a-hanzi-animation-2 {
          animation: keyframes2 0.64794921875s both;
          animation-delay: 1.4716796875s;
          animation-timing-function: linear;
        }
      
        @keyframes keyframes3 {
          from {
            stroke: blue;
            stroke-dashoffset: 553;
            stroke-width: 128;
          }
          64% {
            animation-timing-function: step-end;
            stroke: blue;
            stroke-dashoffset: 0;
            stroke-width: 128;
          }
          to {
            stroke: black;
            stroke-width: 1024;
          }
        }
        #make-me-a-hanzi-animation-3 {
          animation: keyframes3 0.7000325520833334s both;
          animation-delay: 2.11962890625s;
          animation-timing-function: linear;
        }
      
        @keyframes keyframes4 {
          from {
            stroke: blue;
            stroke-dashoffset: 774;
            stroke-width: 128;
          }
          72% {
            animation-timing-function: step-end;
            stroke: blue;
            stroke-dashoffset: 0;
            stroke-width: 128;
          }
          to {
            stroke: black;
            stroke-width: 1024;
          }
        }
        #make-me-a-hanzi-animation-4 {
          animation: keyframes4 0.8798828125s both;
          animation-delay: 2.8196614583333335s;
          animation-timing-function: linear;
        }
      
        @keyframes keyframes5 {
          from {
            stroke: blue;
            stroke-dashoffset: 504;
            stroke-width: 128;
          }
          62% {
            animation-timing-function: step-end;
            stroke: blue;
            stroke-dashoffset: 0;
            stroke-width: 128;
          }
          to {
            stroke: black;
            stroke-width: 1024;
          }
        }
        #make-me-a-hanzi-animation-5 {
          animation: keyframes5 0.66015625s both;
          animation-delay: 3.6995442708333335s;
          animation-timing-function: linear;
        }
      
        @keyframes keyframes6 {
          from {
            stroke: blue;
            stroke-dashoffset: 839;
            stroke-width: 128;
          }
          73% {
            animation-timing-function: step-end;
            stroke: blue;
            stroke-dashoffset: 0;
            stroke-width: 128;
          }
          to {
            stroke: black;
            stroke-width: 1024;
          }
        }
        #make-me-a-hanzi-animation-6 {
          animation: keyframes6 0.9327799479166666s both;
          animation-delay: 4.359700520833334s;
          animation-timing-function: linear;
        }
      
        @keyframes keyframes7 {
          from {
            stroke: blue;
            stroke-dashoffset: 397;
            stroke-width: 128;
          }
          56% {
            animation-timing-function: step-end;
            stroke: blue;
            stroke-dashoffset: 0;
            stroke-width: 128;
          }
          to {
            stroke: black;
            stroke-width: 1024;
          }
        }
        #make-me-a-hanzi-animation-7 {
          animation: keyframes7 0.5730794270833334s both;
          animation-delay: 5.292480468750001s;
          animation-timing-function: linear;
        }
      
        @keyframes keyframes8 {
          from {
            stroke: blue;
            stroke-dashoffset: 416;
            stroke-width: 128;
          }
          58% {
            animation-timing-function: step-end;
            stroke: blue;
            stroke-dashoffset: 0;
            stroke-width: 128;
          }
          to {
            stroke: black;
            stroke-width: 1024;
          }
        }
        #make-me-a-hanzi-animation-8 {
          animation: keyframes8 0.5885416666666666s both;
          animation-delay: 5.865559895833334s;
          animation-timing-function: linear;
        }
      
        @keyframes keyframes9 {
          from {
            stroke: blue;
            stroke-dashoffset: 518;
            stroke-width: 128;
          }
          63% {
            animation-timing-function: step-end;
            stroke: blue;
            stroke-dashoffset: 0;
            stroke-width: 128;
          }
          to {
            stroke: black;
            stroke-width: 1024;
          }
        }
        #make-me-a-hanzi-animation-9 {
          animation: keyframes9 0.6715494791666666s both;
          animation-delay: 6.454101562500001s;
          animation-timing-function: linear;
        }
      
        @keyframes keyframes10 {
          from {
            stroke: blue;
            stroke-dashoffset: 592;
            stroke-width: 128;
          }
          66% {
            animation-timing-function: step-end;
            stroke: blue;
            stroke-dashoffset: 0;
            stroke-width: 128;
          }
          to {
            stroke: black;
            stroke-width: 1024;
          }
        }
        #make-me-a-hanzi-animation-10 {
          animation: keyframes10 0.7317708333333334s both;
          animation-delay: 7.125651041666668s;
          animation-timing-function: linear;
        }
      
        @keyframes keyframes11 {
          from {
            stroke: blue;
            stroke-dashoffset: 1094;
            stroke-width: 128;
          }
          78% {
            animation-timing-function: step-end;
            stroke: blue;
            stroke-dashoffset: 0;
            stroke-width: 128;
          }
          to {
            stroke: black;
            stroke-width: 1024;
          }
        }
        #make-me-a-hanzi-animation-11 {
          animation: keyframes11 1.1402994791666667s both;
          animation-delay: 7.857421875000001s;
          animation-timing-function: linear;
        }
      
        @keyframes keyframes12 {
          from {
            stroke: blue;
            stroke-dashoffset: 394;
            stroke-width: 128;
          }
          56% {
            animation-timing-function: step-end;
            stroke: blue;
            stroke-dashoffset: 0;
            stroke-width: 128;
          }
          to {
            stroke: black;
            stroke-width: 1024;
          }
        }
        #make-me-a-hanzi-animation-12 {
          animation: keyframes12 0.5706380208333334s both;
          animation-delay: 8.997721354166668s;
          animation-timing-function: linear;
        }
      
    </style>
    
      <path d="M 256 746 Q 240 746 240 734 Q 240 732 242 724 Q 248 710 248 698 Q 240 639 195 532 Q 142 419 81 352 Q 47 314 47 310 Q 47 306 59 306 Q 85 306 133 355 L 150 372 Q 159 381 169 393 Q 206 437 242 503 L 261 539 Q 278 572 295 613 Q 313 658 327 681 Q 336 695 336 702 Q 336 715 301 732 Q 274 746 256 746 Z" fill="lightgray" />
    
      <path d="M 242 503 Q 259 499 275 499 Q 294 499 416 522 Q 431 528 431 547 Q 431 569 387 570 Q 376 570 359 565 Q 304 549 261 539 C 232 532 213 509 242 503 Z" fill="lightgray" />
    
      <path d="M 133 355 Q 136 352 150 349 Q 172 343 191 343 Q 199 343 221 346 L 260 353 Q 304 360 376 375 Q 387 380 387 394 Q 387 414 351 415 Q 337 415 317 409 Q 218 383 150 372 C 120 367 111 366 133 355 Z" fill="lightgray" />
    
      <path d="M 236 239 Q 185 229 112 219 Q 99 217 99 211 Q 99 203 122 195 Q 146 186 168 186 Q 180 186 203 192 Q 214 194 236 198 L 284 208 Q 311 212 347 219 Q 371 222 397 232 Q 411 238 412 251 Q 409 269 347 270 Q 338 270 316 262 Q 303 257 284 251 L 236 239 Z" fill="lightgray" />
    
      <path d="M 221 346 Q 222 342 224 335 Q 236 309 236 255 L 236 239 L 236 198 Q 234 48 222 22 Q 217 5 190 -18 Q 175 -32 175 -41 Q 175 -44 183 -63 Q 201 -102 215 -102 Q 225 -102 255 -56 Q 299 -7 359 57 Q 399 99 399 110 Q 399 119 391 119 Q 388 119 315 63 Q 296 47 272 26 L 274 46 Q 282 104 284 208 L 284 251 L 284 255 Q 284 281 286 295 Q 288 310 288 314 Q 288 329 268 346 Q 265 348 260 353 C 238 373 212 375 221 346 Z" fill="lightgray" />
    
      <path d="M 431 622 Q 420 622 420 610 Q 421 608 431 597 Q 451 578 496 420 Q 508 383 523 383 Q 536 383 536 409 L 531 435 L 512 562 Q 510 573 506 582 C 497 605 497 605 482 611 Q 460 621 431 622 Z" fill="lightgray" />
    
      <path d="M 801 441 Q 806 434 815 434 Q 824 434 878 542 Q 898 584 916 595 Q 936 602 936 618 Q 936 631 902 657 Q 866 679 852 679 Q 849 679 827 674 Q 810 667 700 648 Q 552 620 482 611 C 452 607 476 578 506 582 Q 516 582 580 594 L 597 597 Q 629 602 679 611 Q 687 612 697 614 L 737 620 Q 780 627 804 627 Q 823 627 823 610 Q 813 533 802 493 Q 799 484 798 476 C 791 447 791 445 801 441 Z" fill="lightgray" />
    
      <path d="M 580 594 L 580 585 Q 580 546 594 488 Q 599 463 605 448 C 616 420 625 424 634 453 Q 640 472 640 482 Q 640 524 618 560 Q 607 582 597 597 C 581 622 580 623 580 594 Z" fill="lightgray" />
    
      <path d="M 697 614 Q 699 605 699 595 Q 699 584 694 507 Q 692 476 691 464 C 689 434 714 440 723 469 Q 725 475 727 482 Q 748 562 764 595 Q 764 601 746 614 Q 742 617 737 620 C 712 636 692 644 697 614 Z" fill="lightgray" />
    
      <path d="M 536 409 Q 542 406 552 406 Q 578 410 603 414 L 628 417 Q 712 430 801 441 C 831 445 828 471 798 476 Q 790 478 779 478 Q 774 478 723 469 L 691 464 Q 667 460 634 453 L 605 448 Q 572 442 531 435 C 501 430 507 417 536 409 Z" fill="lightgray" />
    
      <path d="M 603 414 L 603 410 Q 603 363 568 304 Q 524 227 478 186 Q 447 159 447 154 Q 447 150 456 150 Q 469 150 503 171 Q 518 180 535 193 L 552 207 Q 583 233 614 273 L 637 302 Q 665 340 672 345 Q 680 349 680 354 Q 680 366 654 395 Q 641 408 628 417 C 604 435 603 435 603 414 Z" fill="lightgray" />
    
      <path d="M 614 273 Q 615 271 618 270 Q 647 259 668 259 Q 675 259 718 273 Q 745 282 752 282 Q 773 282 775 266 Q 775 254 746 198 Q 703 112 638 51 Q 530 -47 406 -86 Q 368 -100 368 -106 Q 368 -114 380 -114 Q 446 -112 512 -86 Q 601 -50 678 15 Q 752 77 841 208 Q 869 247 887 257 Q 896 264 896 270 Q 896 290 860 316 Q 830 343 808 343 Q 804 343 778 332 Q 728 314 637 302 C 607 298 586 284 614 273 Z" fill="lightgray" />
    
      <path d="M 535 193 Q 544 183 581 148 Q 631 98 643 98 Q 655 98 663 106 Q 672 118 672 131 Q 672 153 656 169 Q 639 190 606 198 Q 581 207 563 207 L 552 207 C 522 207 522 207 535 193 Z" fill="lightgray" />
    
    
      <clipPath id="make-me-a-hanzi-clip-0">
        <path d="M 256 746 Q 240 746 240 734 Q 240 732 242 724 Q 248 710 248 698 Q 240 639 195 532 Q 142 419 81 352 Q 47 314 47 310 Q 47 306 59 306 Q 85 306 133 355 L 150 372 Q 159 381 169 393 Q 206 437 242 503 L 261 539 Q 278 572 295 613 Q 313 658 327 681 Q 336 695 336 702 Q 336 715 301 732 Q 274 746 256 746 Z" />
      </clipPath>
      <path clip-path="url(#make-me-a-hanzi-clip-0)" d="M 253 734 L 288 694 L 227 534 L 178 444 L 140 391 L 114 359 L 53 309" fill="none" id="make-me-a-hanzi-animation-0" stroke-dasharray="640 1280" stroke-linecap="round" />
    
      <clipPath id="make-me-a-hanzi-clip-1">
        <path d="M 242 503 Q 259 499 275 499 Q 294 499 416 522 Q 431 528 431 547 Q 431 569 387 570 Q 376 570 359 565 Q 304 549 261 539 C 232 532 213 509 242 503 Z" />
      </clipPath>
      <path clip-path="url(#make-me-a-hanzi-clip-1)" d="M 249 507 L 275 521 L 413 547" fill="none" id="make-me-a-hanzi-animation-1" stroke-dasharray="298 596" stroke-linecap="round" />
    
      <clipPath id="make-me-a-hanzi-clip-2">
        <path d="M 133 355 Q 136 352 150 349 Q 172 343 191 343 Q 199 343 221 346 L 260 353 Q 304 360 376 375 Q 387 380 387 394 Q 387 414 351 415 Q 337 415 317 409 Q 218 383 150 372 C 120 367 111 366 133 355 Z" />
      </clipPath>
      <path clip-path="url(#make-me-a-hanzi-clip-2)" d="M 138 358 L 210 363 L 339 391 L 368 392" fill="none" id="make-me-a-hanzi-animation-2" stroke-dasharray="361 722" stroke-linecap="round" />
    
      <clipPath id="make-me-a-hanzi-clip-3">
        <path d="M 236 239 Q 185 229 112 219 Q 99 217 99 211 Q 99 203 122 195 Q 146 186 168 186 Q 180 186 203 192 Q 214 194 236 198 L 284 208 Q 311 212 347 219 Q 371 222 397 232 Q 411 238 412 251 Q 409 269 347 270 Q 338 270 316 262 Q 303 257 284 251 L 236 239 Z" />
      </clipPath>
      <path clip-path="url(#make-me-a-hanzi-clip-3)" d="M 108 211 L 149 205 L 180 208 L 346 245 L 400 249" fill="none" id="make-me-a-hanzi-animation-3" stroke-dasharray="425 850" stroke-linecap="round" />
    
      <clipPath id="make-me-a-hanzi-clip-4">
        <path d="M 221 346 Q 222 342 224 335 Q 236 309 236 255 L 236 239 L 236 198 Q 234 48 222 22 Q 217 5 190 -18 Q 175 -32 175 -41 Q 175 -44 183 -63 Q 201 -102 215 -102 Q 225 -102 255 -56 Q 299 -7 359 57 Q 399 99 399 110 Q 399 119 391 119 Q 388 119 315 63 Q 296 47 272 26 L 274 46 Q 282 104 284 208 L 284 251 L 284 255 Q 284 281 286 295 Q 288 310 288 314 Q 288 329 268 346 Q 265 348 260 353 C 238 373 212 375 221 346 Z" />
      </clipPath>
      <path clip-path="url(#make-me-a-hanzi-clip-4)" d="M 228 342 L 256 323 L 260 304 L 259 132 L 249 33 L 278 30 L 291 16 L 268 -2 L 251 -6 L 221 -40 L 214 -92" fill="none" id="make-me-a-hanzi-animation-4" stroke-dasharray="646 1292" stroke-linecap="round" />
    
      <clipPath id="make-me-a-hanzi-clip-5">
        <path d="M 431 622 Q 420 622 420 610 Q 421 608 431 597 Q 451 578 496 420 Q 508 383 523 383 Q 536 383 536 409 L 531 435 L 512 562 Q 510 573 506 582 C 497 605 497 605 482 611 Q 460 621 431 622 Z" />
      </clipPath>
      <path clip-path="url(#make-me-a-hanzi-clip-5)" d="M 428 613 L 467 589 L 480 567 L 522 395" fill="none" id="make-me-a-hanzi-animation-5" stroke-dasharray="376 752" stroke-linecap="round" />
    
      <clipPath id="make-me-a-hanzi-clip-6">
        <path d="M 801 441 Q 806 434 815 434 Q 824 434 878 542 Q 898 584 916 595 Q 936 602 936 618 Q 936 631 902 657 Q 866 679 852 679 Q 849 679 827 674 Q 810 667 700 648 Q 552 620 482 611 C 452 607 476 578 506 582 Q 516 582 580 594 L 597 597 Q 629 602 679 611 Q 687 612 697 614 L 737 620 Q 780 627 804 627 Q 823 627 823 610 Q 813 533 802 493 Q 799 484 798 476 C 791 447 791 445 801 441 Z" />
      </clipPath>
      <path clip-path="url(#make-me-a-hanzi-clip-6)" d="M 488 608 L 515 599 L 544 602 L 804 648 L 853 640 L 870 617 L 811 444" fill="none" id="make-me-a-hanzi-animation-6" stroke-dasharray="711 1422" stroke-linecap="round" />
    
      <clipPath id="make-me-a-hanzi-clip-7">
        <path d="M 580 594 L 580 585 Q 580 546 594 488 Q 599 463 605 448 C 616 420 625 424 634 453 Q 640 472 640 482 Q 640 524 618 560 Q 607 582 597 597 C 581 622 580 623 580 594 Z" />
      </clipPath>
      <path clip-path="url(#make-me-a-hanzi-clip-7)" d="M 585 590 L 596 573 L 611 522 L 618 471 L 611 456" fill="none" id="make-me-a-hanzi-animation-7" stroke-dasharray="269 538" stroke-linecap="round" />
    
      <clipPath id="make-me-a-hanzi-clip-8">
        <path d="M 697 614 Q 699 605 699 595 Q 699 584 694 507 Q 692 476 691 464 C 689 434 714 440 723 469 Q 725 475 727 482 Q 748 562 764 595 Q 764 601 746 614 Q 742 617 737 620 C 712 636 692 644 697 614 Z" />
      </clipPath>
      <path clip-path="url(#make-me-a-hanzi-clip-8)" d="M 704 610 L 729 589 L 710 485 L 696 469" fill="none" id="make-me-a-hanzi-animation-8" stroke-dasharray="288 576" stroke-linecap="round" />
    
      <clipPath id="make-me-a-hanzi-clip-9">
        <path d="M 536 409 Q 542 406 552 406 Q 578 410 603 414 L 628 417 Q 712 430 801 441 C 831 445 828 471 798 476 Q 790 478 779 478 Q 774 478 723 469 L 691 464 Q 667 460 634 453 L 605 448 Q 572 442 531 435 C 501 430 507 417 536 409 Z" />
      </clipPath>
      <path clip-path="url(#make-me-a-hanzi-clip-9)" d="M 540 430 L 550 422 L 778 458 L 792 470" fill="none" id="make-me-a-hanzi-animation-9" stroke-dasharray="390 780" stroke-linecap="round" />
    
      <clipPath id="make-me-a-hanzi-clip-10">
        <path d="M 603 414 L 603 410 Q 603 363 568 304 Q 524 227 478 186 Q 447 159 447 154 Q 447 150 456 150 Q 469 150 503 171 Q 518 180 535 193 L 552 207 Q 583 233 614 273 L 637 302 Q 665 340 672 345 Q 680 349 680 354 Q 680 366 654 395 Q 641 408 628 417 C 604 435 603 435 603 414 Z" />
      </clipPath>
      <path clip-path="url(#make-me-a-hanzi-clip-10)" d="M 610 412 L 622 397 L 634 360 L 618 330 L 561 247 L 528 211 L 489 176 L 453 155" fill="none" id="make-me-a-hanzi-animation-10" stroke-dasharray="464 928" stroke-linecap="round" />
    
      <clipPath id="make-me-a-hanzi-clip-11">
        <path d="M 614 273 Q 615 271 618 270 Q 647 259 668 259 Q 675 259 718 273 Q 745 282 752 282 Q 773 282 775 266 Q 775 254 746 198 Q 703 112 638 51 Q 530 -47 406 -86 Q 368 -100 368 -106 Q 368 -114 380 -114 Q 446 -112 512 -86 Q 601 -50 678 15 Q 752 77 841 208 Q 869 247 887 257 Q 896 264 896 270 Q 896 290 860 316 Q 830 343 808 343 Q 804 343 778 332 Q 728 314 637 302 C 607 298 586 284 614 273 Z" />
      </clipPath>
      <path clip-path="url(#make-me-a-hanzi-clip-11)" d="M 620 276 L 756 303 L 782 303 L 810 296 L 827 275 L 813 240 L 756 146 L 710 85 L 655 30 L 586 -23 L 498 -71 L 375 -108" fill="none" id="make-me-a-hanzi-animation-11" stroke-dasharray="966 1932" stroke-linecap="round" />
    
      <clipPath id="make-me-a-hanzi-clip-12">
        <path d="M 535 193 Q 544 183 581 148 Q 631 98 643 98 Q 655 98 663 106 Q 672 118 672 131 Q 672 153 656 169 Q 639 190 606 198 Q 581 207 563 207 L 552 207 C 522 207 522 207 535 193 Z" />
      </clipPath>
      <path clip-path="url(#make-me-a-hanzi-clip-12)" d="M 541 194 L 568 188 L 622 156 L 644 129 L 645 116" fill="none" id="make-me-a-hanzi-animation-12" stroke-dasharray="266 532" stroke-linecap="round" />
    
  </g>
</svg>