<svg xmlns="http://www.w3.org/2000/svg" version="1.1" viewBox="0 0 1024 1024">
  <g stroke="lightgray" stroke-dasharray="1,1" stroke-width="1" transform="scale(4, 4)">
    <line x1="0" y1="0" x2="256" y2="256" />
    <line x1="256" y1="0" x2="0" y2="256" />
    <line x1="128" y1="0" x2="128" y2="256" />
    <line x1="0" y1="128" x2="256" y2="128" />
  </g>
  <g transform="scale(1.0, -1.0) translate(0.0, -854.00)">
    <style type="text/css">
      
        @keyframes keyframes0 {
          from {
            stroke: blue;
            stroke-dashoffset: 788;
            stroke-width: 128;
          }
          72% {
            animation-timing-function: step-end;
            stroke: blue;
            stroke-dashoffset: 0;
            stroke-width: 128;
          }
          to {
            stroke: black;
            stroke-width: 1024;
          }
        }
        #make-me-a-hanzi-animation-0 {
          animation: keyframes0 0.8912760416666666s both;
          animation-delay: 0s;
          animation-timing-function: linear;
        }
      
        @keyframes keyframes1 {
          from {
            stroke: blue;
            stroke-dashoffset: 421;
            stroke-width: 128;
          }
          58% {
            animation-timing-function: step-end;
            stroke: blue;
            stroke-dashoffset: 0;
            stroke-width: 128;
          }
          to {
            stroke: black;
            stroke-width: 1024;
          }
        }
        #make-me-a-hanzi-animation-1 {
          animation: keyframes1 0.5926106770833334s both;
          animation-delay: 0.8912760416666666s;
          animation-timing-function: linear;
        }
      
        @keyframes keyframes2 {
          from {
            stroke: blue;
            stroke-dashoffset: 474;
            stroke-width: 128;
          }
          61% {
            animation-timing-function: step-end;
            stroke: blue;
            stroke-dashoffset: 0;
            stroke-width: 128;
          }
          to {
            stroke: black;
            stroke-width: 1024;
          }
        }
        #make-me-a-hanzi-animation-2 {
          animation: keyframes2 0.6357421875s both;
          animation-delay: 1.48388671875s;
          animation-timing-function: linear;
        }
      
        @keyframes keyframes3 {
          from {
            stroke: blue;
            stroke-dashoffset: 518;
            stroke-width: 128;
          }
          63% {
            animation-timing-function: step-end;
            stroke: blue;
            stroke-dashoffset: 0;
            stroke-width: 128;
          }
          to {
            stroke: black;
            stroke-width: 1024;
          }
        }
        #make-me-a-hanzi-animation-3 {
          animation: keyframes3 0.6715494791666666s both;
          animation-delay: 2.11962890625s;
          animation-timing-function: linear;
        }
      
        @keyframes keyframes4 {
          from {
            stroke: blue;
            stroke-dashoffset: 766;
            stroke-width: 128;
          }
          71% {
            animation-timing-function: step-end;
            stroke: blue;
            stroke-dashoffset: 0;
            stroke-width: 128;
          }
          to {
            stroke: black;
            stroke-width: 1024;
          }
        }
        #make-me-a-hanzi-animation-4 {
          animation: keyframes4 0.8733723958333334s both;
          animation-delay: 2.7911783854166665s;
          animation-timing-function: linear;
        }
      
        @keyframes keyframes5 {
          from {
            stroke: blue;
            stroke-dashoffset: 823;
            stroke-width: 128;
          }
          73% {
            animation-timing-function: step-end;
            stroke: blue;
            stroke-dashoffset: 0;
            stroke-width: 128;
          }
          to {
            stroke: black;
            stroke-width: 1024;
          }
        }
        #make-me-a-hanzi-animation-5 {
          animation: keyframes5 0.9197591145833334s both;
          animation-delay: 3.66455078125s;
          animation-timing-function: linear;
        }
      
        @keyframes keyframes6 {
          from {
            stroke: blue;
            stroke-dashoffset: 1230;
            stroke-width: 128;
          }
          80% {
            animation-timing-function: step-end;
            stroke: blue;
            stroke-dashoffset: 0;
            stroke-width: 128;
          }
          to {
            stroke: black;
            stroke-width: 1024;
          }
        }
        #make-me-a-hanzi-animation-6 {
          animation: keyframes6 1.2509765625s both;
          animation-delay: 4.584309895833333s;
          animation-timing-function: linear;
        }
      
        @keyframes keyframes7 {
          from {
            stroke: blue;
            stroke-dashoffset: 475;
            stroke-width: 128;
          }
          61% {
            animation-timing-function: step-end;
            stroke: blue;
            stroke-dashoffset: 0;
            stroke-width: 128;
          }
          to {
            stroke: black;
            stroke-width: 1024;
          }
        }
        #make-me-a-hanzi-animation-7 {
          animation: keyframes7 0.6365559895833334s both;
          animation-delay: 5.835286458333333s;
          animation-timing-function: linear;
        }
      
        @keyframes keyframes8 {
          from {
            stroke: blue;
            stroke-dashoffset: 506;
            stroke-width: 128;
          }
          62% {
            animation-timing-function: step-end;
            stroke: blue;
            stroke-dashoffset: 0;
            stroke-width: 128;
          }
          to {
            stroke: black;
            stroke-width: 1024;
          }
        }
        #make-me-a-hanzi-animation-8 {
          animation: keyframes8 0.6617838541666666s both;
          animation-delay: 6.471842447916666s;
          animation-timing-function: linear;
        }
      
        @keyframes keyframes9 {
          from {
            stroke: blue;
            stroke-dashoffset: 416;
            stroke-width: 128;
          }
          58% {
            animation-timing-function: step-end;
            stroke: blue;
            stroke-dashoffset: 0;
            stroke-width: 128;
          }
          to {
            stroke: black;
            stroke-width: 1024;
          }
        }
        #make-me-a-hanzi-animation-9 {
          animation: keyframes9 0.5885416666666666s both;
          animation-delay: 7.133626302083333s;
          animation-timing-function: linear;
        }
      
        @keyframes keyframes10 {
          from {
            stroke: blue;
            stroke-dashoffset: 492;
            stroke-width: 128;
          }
          62% {
            animation-timing-function: step-end;
            stroke: blue;
            stroke-dashoffset: 0;
            stroke-width: 128;
          }
          to {
            stroke: black;
            stroke-width: 1024;
          }
        }
        #make-me-a-hanzi-animation-10 {
          animation: keyframes10 0.650390625s both;
          animation-delay: 7.72216796875s;
          animation-timing-function: linear;
        }
      
        @keyframes keyframes11 {
          from {
            stroke: blue;
            stroke-dashoffset: 404;
            stroke-width: 128;
          }
          57% {
            animation-timing-function: step-end;
            stroke: blue;
            stroke-dashoffset: 0;
            stroke-width: 128;
          }
          to {
            stroke: black;
            stroke-width: 1024;
          }
        }
        #make-me-a-hanzi-animation-11 {
          animation: keyframes11 0.5787760416666666s both;
          animation-delay: 8.37255859375s;
          animation-timing-function: linear;
        }
      
        @keyframes keyframes12 {
          from {
            stroke: blue;
            stroke-dashoffset: 531;
            stroke-width: 128;
          }
          63% {
            animation-timing-function: step-end;
            stroke: blue;
            stroke-dashoffset: 0;
            stroke-width: 128;
          }
          to {
            stroke: black;
            stroke-width: 1024;
          }
        }
        #make-me-a-hanzi-animation-12 {
          animation: keyframes12 0.68212890625s both;
          animation-delay: 8.951334635416666s;
          animation-timing-function: linear;
        }
      
    </style>
    
      <path d="M 297 558 Q 336 630 366 660 Q 375 670 370 684 Q 366 697 338 720 Q 311 738 293 737 Q 274 736 282 714 Q 297 683 285 655 Q 248 564 191 480 Q 137 399 63 310 Q 53 300 50 294 Q 47 284 61 286 Q 116 295 267 511 Q 271 520 278 528 L 297 558 Z" fill="lightgray" />
    
      <path d="M 278 528 Q 308 521 380 535 Q 441 550 449 554 Q 456 561 451 569 Q 444 579 417 585 Q 396 588 326 564 Q 311 563 297 558 C 268 549 249 534 278 528 Z" fill="lightgray" />
    
      <path d="M 291 379 Q 300 383 400 413 Q 422 420 426 425 Q 433 434 428 441 Q 421 451 391 455 Q 361 458 334 443 Q 309 431 281 422 Q 250 412 213 405 Q 179 395 205 382 Q 223 373 255 373 L 291 379 Z" fill="lightgray" />
    
      <path d="M 329 248 Q 410 272 417 278 Q 424 285 420 294 Q 413 304 385 308 Q 357 311 331 298 Q 330 298 329 297 L 282 278 Q 219 257 161 247 Q 128 238 154 225 Q 191 207 251 226 Q 266 232 284 234 L 329 248 Z" fill="lightgray" />
    
      <path d="M 284 234 Q 284 108 252 53 Q 210 5 257 -37 Q 270 -44 280 -29 Q 295 -1 431 117 Q 447 130 452 138 Q 456 148 446 148 Q 433 148 330 86 Q 323 80 320 89 Q 327 177 329 248 L 329 297 Q 330 313 334 328 Q 338 341 329 351 Q 310 370 291 379 C 265 394 243 401 255 373 Q 255 369 259 363 Q 277 324 282 278 L 284 234 Z" fill="lightgray" />
    
      <path d="M 515 553 Q 488 572 472 565 Q 465 559 471 547 Q 474 535 479 524 Q 509 461 491 184 Q 487 144 476 95 Q 463 40 497 -3 Q 507 -16 518 -3 Q 525 7 529 21 L 533 57 Q 534 84 535 123 Q 538 480 540 503 Q 541 513 541 520 C 542 537 541 538 515 553 Z" fill="lightgray" />
    
      <path d="M 789 48 Q 823 5 847 -35 Q 857 -54 868 -53 Q 886 -52 902 -16 Q 921 24 917 73 Q 907 221 901 493 Q 900 526 917 549 Q 927 562 917 573 Q 898 592 843 618 Q 824 628 808 618 Q 747 590 651 572 Q 557 556 515 553 C 485 550 511 515 541 520 Q 554 521 776 566 Q 810 573 829 560 Q 851 532 853 323 Q 853 214 841 75 Q 837 56 817 65 Q 814 66 811 68 C 781 68 774 68 789 48 Z" fill="lightgray" />
    
      <path d="M 693 380 Q 801 410 804 413 Q 811 420 807 427 Q 800 436 777 440 Q 753 444 700 421 L 658 408 Q 624 401 589 395 Q 561 388 582 376 Q 609 361 655 370 L 693 380 Z" fill="lightgray" />
    
      <path d="M 679 297 L 693 380 L 700 421 Q 703 452 720 494 Q 723 501 710 514 Q 686 530 669 534 Q 659 538 652 532 Q 646 528 651 516 Q 663 495 662 482 Q 661 448 658 408 L 655 370 Q 651 331 646 287 C 643 257 674 267 679 297 Z" fill="lightgray" />
    
      <path d="M 612 279 Q 603 283 581 288 Q 571 291 568 287 Q 564 283 568 271 L 569 269 Q 587 230 598 166 Q 599 147 611 134 Q 624 116 629 128 Q 632 135 632 147 L 631 173 Q 624 237 623 257 C 622 275 622 275 612 279 Z" fill="lightgray" />
    
      <path d="M 769 196 Q 781 248 796 264 Q 815 286 795 297 L 755 320 Q 739 329 724 319 Q 703 306 679 297 L 646 287 Q 630 284 612 279 C 583 271 595 247 623 257 Q 622 258 624 258 Q 666 268 700 277 Q 724 283 730 273 Q 736 269 732 246 Q 729 225 725 200 C 720 170 762 167 769 196 Z" fill="lightgray" />
    
      <path d="M 632 147 Q 635 147 637 146 Q 646 145 657 148 Q 696 158 779 169 Q 788 170 789 178 Q 789 185 769 196 L 725 200 Q 722 200 721 199 Q 672 183 631 173 C 602 166 603 153 632 147 Z" fill="lightgray" />
    
      <path d="M 529 21 Q 529 22 531 22 Q 613 38 789 48 C 819 50 827 50 811 68 Q 804 78 786 89 Q 770 98 739 92 Q 625 68 533 57 C 503 53 500 13 529 21 Z" fill="lightgray" />
    
    
      <clipPath id="make-me-a-hanzi-clip-0">
        <path d="M 297 558 Q 336 630 366 660 Q 375 670 370 684 Q 366 697 338 720 Q 311 738 293 737 Q 274 736 282 714 Q 297 683 285 655 Q 248 564 191 480 Q 137 399 63 310 Q 53 300 50 294 Q 47 284 61 286 Q 116 295 267 511 Q 271 520 278 528 L 297 558 Z" />
      </clipPath>
      <path clip-path="url(#make-me-a-hanzi-clip-0)" d="M 292 723 L 317 700 L 328 677 L 280 579 L 228 492 L 176 420 L 97 325 L 58 294" fill="none" id="make-me-a-hanzi-animation-0" stroke-dasharray="660 1320" stroke-linecap="round" />
    
      <clipPath id="make-me-a-hanzi-clip-1">
        <path d="M 278 528 Q 308 521 380 535 Q 441 550 449 554 Q 456 561 451 569 Q 444 579 417 585 Q 396 588 326 564 Q 311 563 297 558 C 268 549 249 534 278 528 Z" />
      </clipPath>
      <path clip-path="url(#make-me-a-hanzi-clip-1)" d="M 283 532 L 308 544 L 395 562 L 443 562" fill="none" id="make-me-a-hanzi-animation-1" stroke-dasharray="293 586" stroke-linecap="round" />
    
      <clipPath id="make-me-a-hanzi-clip-2">
        <path d="M 291 379 Q 300 383 400 413 Q 422 420 426 425 Q 433 434 428 441 Q 421 451 391 455 Q 361 458 334 443 Q 309 431 281 422 Q 250 412 213 405 Q 179 395 205 382 Q 223 373 255 373 L 291 379 Z" />
      </clipPath>
      <path clip-path="url(#make-me-a-hanzi-clip-2)" d="M 206 394 L 248 392 L 372 431 L 418 434" fill="none" id="make-me-a-hanzi-animation-2" stroke-dasharray="346 692" stroke-linecap="round" />
    
      <clipPath id="make-me-a-hanzi-clip-3">
        <path d="M 329 248 Q 410 272 417 278 Q 424 285 420 294 Q 413 304 385 308 Q 357 311 331 298 Q 330 298 329 297 L 282 278 Q 219 257 161 247 Q 128 238 154 225 Q 191 207 251 226 Q 266 232 284 234 L 329 248 Z" />
      </clipPath>
      <path clip-path="url(#make-me-a-hanzi-clip-3)" d="M 155 237 L 209 236 L 367 285 L 409 288" fill="none" id="make-me-a-hanzi-animation-3" stroke-dasharray="390 780" stroke-linecap="round" />
    
      <clipPath id="make-me-a-hanzi-clip-4">
        <path d="M 284 234 Q 284 108 252 53 Q 210 5 257 -37 Q 270 -44 280 -29 Q 295 -1 431 117 Q 447 130 452 138 Q 456 148 446 148 Q 433 148 330 86 Q 323 80 320 89 Q 327 177 329 248 L 329 297 Q 330 313 334 328 Q 338 341 329 351 Q 310 370 291 379 C 265 394 243 401 255 373 Q 255 369 259 363 Q 277 324 282 278 L 284 234 Z" />
      </clipPath>
      <path clip-path="url(#make-me-a-hanzi-clip-4)" d="M 262 370 L 287 355 L 304 326 L 306 197 L 293 84 L 298 53 L 342 66 L 445 141" fill="none" id="make-me-a-hanzi-animation-4" stroke-dasharray="638 1276" stroke-linecap="round" />
    
      <clipPath id="make-me-a-hanzi-clip-5">
        <path d="M 515 553 Q 488 572 472 565 Q 465 559 471 547 Q 474 535 479 524 Q 509 461 491 184 Q 487 144 476 95 Q 463 40 497 -3 Q 507 -16 518 -3 Q 525 7 529 21 L 533 57 Q 534 84 535 123 Q 538 480 540 503 Q 541 513 541 520 C 542 537 541 538 515 553 Z" />
      </clipPath>
      <path clip-path="url(#make-me-a-hanzi-clip-5)" d="M 479 557 L 513 510 L 516 475 L 514 166 L 503 82 L 508 2" fill="none" id="make-me-a-hanzi-animation-5" stroke-dasharray="695 1390" stroke-linecap="round" />
    
      <clipPath id="make-me-a-hanzi-clip-6">
        <path d="M 789 48 Q 823 5 847 -35 Q 857 -54 868 -53 Q 886 -52 902 -16 Q 921 24 917 73 Q 907 221 901 493 Q 900 526 917 549 Q 927 562 917 573 Q 898 592 843 618 Q 824 628 808 618 Q 747 590 651 572 Q 557 556 515 553 C 485 550 511 515 541 520 Q 554 521 776 566 Q 810 573 829 560 Q 851 532 853 323 Q 853 214 841 75 Q 837 56 817 65 Q 814 66 811 68 C 781 68 774 68 789 48 Z" />
      </clipPath>
      <path clip-path="url(#make-me-a-hanzi-clip-6)" d="M 520 548 L 548 539 L 565 541 L 705 565 L 812 593 L 839 588 L 874 556 L 879 63 L 866 27 L 800 47" fill="none" id="make-me-a-hanzi-animation-6" stroke-dasharray="1102 2204" stroke-linecap="round" />
    
      <clipPath id="make-me-a-hanzi-clip-7">
        <path d="M 693 380 Q 801 410 804 413 Q 811 420 807 427 Q 800 436 777 440 Q 753 444 700 421 L 658 408 Q 624 401 589 395 Q 561 388 582 376 Q 609 361 655 370 L 693 380 Z" />
      </clipPath>
      <path clip-path="url(#make-me-a-hanzi-clip-7)" d="M 584 386 L 641 386 L 750 418 L 798 422" fill="none" id="make-me-a-hanzi-animation-7" stroke-dasharray="347 694" stroke-linecap="round" />
    
      <clipPath id="make-me-a-hanzi-clip-8">
        <path d="M 679 297 L 693 380 L 700 421 Q 703 452 720 494 Q 723 501 710 514 Q 686 530 669 534 Q 659 538 652 532 Q 646 528 651 516 Q 663 495 662 482 Q 661 448 658 408 L 655 370 Q 651 331 646 287 C 643 257 674 267 679 297 Z" />
      </clipPath>
      <path clip-path="url(#make-me-a-hanzi-clip-8)" d="M 660 524 L 690 494 L 665 310 L 650 294" fill="none" id="make-me-a-hanzi-animation-8" stroke-dasharray="378 756" stroke-linecap="round" />
    
      <clipPath id="make-me-a-hanzi-clip-9">
        <path d="M 612 279 Q 603 283 581 288 Q 571 291 568 287 Q 564 283 568 271 L 569 269 Q 587 230 598 166 Q 599 147 611 134 Q 624 116 629 128 Q 632 135 632 147 L 631 173 Q 624 237 623 257 C 622 275 622 275 612 279 Z" />
      </clipPath>
      <path clip-path="url(#make-me-a-hanzi-clip-9)" d="M 575 281 L 601 252 L 621 133" fill="none" id="make-me-a-hanzi-animation-9" stroke-dasharray="288 576" stroke-linecap="round" />
    
      <clipPath id="make-me-a-hanzi-clip-10">
        <path d="M 769 196 Q 781 248 796 264 Q 815 286 795 297 L 755 320 Q 739 329 724 319 Q 703 306 679 297 L 646 287 Q 630 284 612 279 C 583 271 595 247 623 257 Q 622 258 624 258 Q 666 268 700 277 Q 724 283 730 273 Q 736 269 732 246 Q 729 225 725 200 C 720 170 762 167 769 196 Z" />
      </clipPath>
      <path clip-path="url(#make-me-a-hanzi-clip-10)" d="M 619 276 L 646 274 L 729 298 L 749 293 L 764 277 L 762 264 L 749 218 L 733 207" fill="none" id="make-me-a-hanzi-animation-10" stroke-dasharray="364 728" stroke-linecap="round" />
    
      <clipPath id="make-me-a-hanzi-clip-11">
        <path d="M 632 147 Q 635 147 637 146 Q 646 145 657 148 Q 696 158 779 169 Q 788 170 789 178 Q 789 185 769 196 L 725 200 Q 722 200 721 199 Q 672 183 631 173 C 602 166 603 153 632 147 Z" />
      </clipPath>
      <path clip-path="url(#make-me-a-hanzi-clip-11)" d="M 636 154 L 718 180 L 780 178" fill="none" id="make-me-a-hanzi-animation-11" stroke-dasharray="276 552" stroke-linecap="round" />
    
      <clipPath id="make-me-a-hanzi-clip-12">
        <path d="M 529 21 Q 529 22 531 22 Q 613 38 789 48 C 819 50 827 50 811 68 Q 804 78 786 89 Q 770 98 739 92 Q 625 68 533 57 C 503 53 500 13 529 21 Z" />
      </clipPath>
      <path clip-path="url(#make-me-a-hanzi-clip-12)" d="M 535 28 L 548 42 L 611 52 L 764 71 L 802 66" fill="none" id="make-me-a-hanzi-animation-12" stroke-dasharray="403 806" stroke-linecap="round" />
    
  </g>
</svg>