<svg xmlns="http://www.w3.org/2000/svg" version="1.1" viewBox="0 0 1024 1024">
  <g stroke="lightgray" stroke-dasharray="1,1" stroke-width="1" transform="scale(4, 4)">
    <line x1="0" y1="0" x2="256" y2="256" />
    <line x1="256" y1="0" x2="0" y2="256" />
    <line x1="128" y1="0" x2="128" y2="256" />
    <line x1="0" y1="128" x2="256" y2="128" />
  </g>
  <g transform="scale(1.0, -1.0) translate(0.0, -834.00)">
    <style type="text/css">
      
        @keyframes keyframes0 {
          from {
            stroke: blue;
            stroke-dashoffset: 763;
            stroke-width: 128;
          }
          71% {
            animation-timing-function: step-end;
            stroke: blue;
            stroke-dashoffset: 0;
            stroke-width: 128;
          }
          to {
            stroke: black;
            stroke-width: 1024;
          }
        }
        #make-me-a-hanzi-animation-0 {
          animation: keyframes0 0.8709309895833334s both;
          animation-delay: 0s;
          animation-timing-function: linear;
        }
      
        @keyframes keyframes1 {
          from {
            stroke: blue;
            stroke-dashoffset: 420;
            stroke-width: 128;
          }
          58% {
            animation-timing-function: step-end;
            stroke: blue;
            stroke-dashoffset: 0;
            stroke-width: 128;
          }
          to {
            stroke: black;
            stroke-width: 1024;
          }
        }
        #make-me-a-hanzi-animation-1 {
          animation: keyframes1 0.591796875s both;
          animation-delay: 0.8709309895833334s;
          animation-timing-function: linear;
        }
      
        @keyframes keyframes2 {
          from {
            stroke: blue;
            stroke-dashoffset: 477;
            stroke-width: 128;
          }
          61% {
            animation-timing-function: step-end;
            stroke: blue;
            stroke-dashoffset: 0;
            stroke-width: 128;
          }
          to {
            stroke: black;
            stroke-width: 1024;
          }
        }
        #make-me-a-hanzi-animation-2 {
          animation: keyframes2 0.63818359375s both;
          animation-delay: 1.4627278645833335s;
          animation-timing-function: linear;
        }
      
        @keyframes keyframes3 {
          from {
            stroke: blue;
            stroke-dashoffset: 540;
            stroke-width: 128;
          }
          64% {
            animation-timing-function: step-end;
            stroke: blue;
            stroke-dashoffset: 0;
            stroke-width: 128;
          }
          to {
            stroke: black;
            stroke-width: 1024;
          }
        }
        #make-me-a-hanzi-animation-3 {
          animation: keyframes3 0.689453125s both;
          animation-delay: 2.1009114583333335s;
          animation-timing-function: linear;
        }
      
        @keyframes keyframes4 {
          from {
            stroke: blue;
            stroke-dashoffset: 771;
            stroke-width: 128;
          }
          72% {
            animation-timing-function: step-end;
            stroke: blue;
            stroke-dashoffset: 0;
            stroke-width: 128;
          }
          to {
            stroke: black;
            stroke-width: 1024;
          }
        }
        #make-me-a-hanzi-animation-4 {
          animation: keyframes4 0.87744140625s both;
          animation-delay: 2.7903645833333335s;
          animation-timing-function: linear;
        }
      
        @keyframes keyframes5 {
          from {
            stroke: blue;
            stroke-dashoffset: 590;
            stroke-width: 128;
          }
          66% {
            animation-timing-function: step-end;
            stroke: blue;
            stroke-dashoffset: 0;
            stroke-width: 128;
          }
          to {
            stroke: black;
            stroke-width: 1024;
          }
        }
        #make-me-a-hanzi-animation-5 {
          animation: keyframes5 0.7301432291666666s both;
          animation-delay: 3.6678059895833335s;
          animation-timing-function: linear;
        }
      
        @keyframes keyframes6 {
          from {
            stroke: blue;
            stroke-dashoffset: 776;
            stroke-width: 128;
          }
          72% {
            animation-timing-function: step-end;
            stroke: blue;
            stroke-dashoffset: 0;
            stroke-width: 128;
          }
          to {
            stroke: black;
            stroke-width: 1024;
          }
        }
        #make-me-a-hanzi-animation-6 {
          animation: keyframes6 0.8815104166666666s both;
          animation-delay: 4.39794921875s;
          animation-timing-function: linear;
        }
      
        @keyframes keyframes7 {
          from {
            stroke: blue;
            stroke-dashoffset: 795;
            stroke-width: 128;
          }
          72% {
            animation-timing-function: step-end;
            stroke: blue;
            stroke-dashoffset: 0;
            stroke-width: 128;
          }
          to {
            stroke: black;
            stroke-width: 1024;
          }
        }
        #make-me-a-hanzi-animation-7 {
          animation: keyframes7 0.89697265625s both;
          animation-delay: 5.279459635416667s;
          animation-timing-function: linear;
        }
      
        @keyframes keyframes8 {
          from {
            stroke: blue;
            stroke-dashoffset: 473;
            stroke-width: 128;
          }
          61% {
            animation-timing-function: step-end;
            stroke: blue;
            stroke-dashoffset: 0;
            stroke-width: 128;
          }
          to {
            stroke: black;
            stroke-width: 1024;
          }
        }
        #make-me-a-hanzi-animation-8 {
          animation: keyframes8 0.6349283854166666s both;
          animation-delay: 6.176432291666667s;
          animation-timing-function: linear;
        }
      
        @keyframes keyframes9 {
          from {
            stroke: blue;
            stroke-dashoffset: 513;
            stroke-width: 128;
          }
          63% {
            animation-timing-function: step-end;
            stroke: blue;
            stroke-dashoffset: 0;
            stroke-width: 128;
          }
          to {
            stroke: black;
            stroke-width: 1024;
          }
        }
        #make-me-a-hanzi-animation-9 {
          animation: keyframes9 0.66748046875s both;
          animation-delay: 6.811360677083334s;
          animation-timing-function: linear;
        }
      
        @keyframes keyframes10 {
          from {
            stroke: blue;
            stroke-dashoffset: 712;
            stroke-width: 128;
          }
          70% {
            animation-timing-function: step-end;
            stroke: blue;
            stroke-dashoffset: 0;
            stroke-width: 128;
          }
          to {
            stroke: black;
            stroke-width: 1024;
          }
        }
        #make-me-a-hanzi-animation-10 {
          animation: keyframes10 0.8294270833333334s both;
          animation-delay: 7.478841145833334s;
          animation-timing-function: linear;
        }
      
        @keyframes keyframes11 {
          from {
            stroke: blue;
            stroke-dashoffset: 877;
            stroke-width: 128;
          }
          74% {
            animation-timing-function: step-end;
            stroke: blue;
            stroke-dashoffset: 0;
            stroke-width: 128;
          }
          to {
            stroke: black;
            stroke-width: 1024;
          }
        }
        #make-me-a-hanzi-animation-11 {
          animation: keyframes11 0.9637044270833334s both;
          animation-delay: 8.308268229166668s;
          animation-timing-function: linear;
        }
      
        @keyframes keyframes12 {
          from {
            stroke: blue;
            stroke-dashoffset: 649;
            stroke-width: 128;
          }
          68% {
            animation-timing-function: step-end;
            stroke: blue;
            stroke-dashoffset: 0;
            stroke-width: 128;
          }
          to {
            stroke: black;
            stroke-width: 1024;
          }
        }
        #make-me-a-hanzi-animation-12 {
          animation: keyframes12 0.7781575520833334s both;
          animation-delay: 9.271972656250002s;
          animation-timing-function: linear;
        }
      
    </style>
    
      <path d="M 248 746 Q 231 746 231 734 Q 231 732 233 724 Q 240 710 240 698 Q 231 639 189 532 Q 138 419 79 352 Q 47 314 47 310 Q 47 306 59 306 Q 84 306 131 354 L 147 373 Q 156 381 166 393 Q 203 437 237 503 L 255 539 Q 271 572 288 613 Q 306 658 319 681 Q 328 695 328 702 Q 328 715 293 732 Q 266 746 248 746 Z" fill="lightgray" />
    
      <path d="M 237 503 Q 254 499 271 499 Q 289 499 403 522 Q 420 528 420 547 Q 420 569 376 570 Q 364 570 349 565 Q 297 549 255 539 C 226 532 208 509 237 503 Z" fill="lightgray" />
    
      <path d="M 131 354 Q 134 351 145 349 Q 168 343 187 343 Q 195 343 214 346 L 252 352 Q 294 360 364 375 Q 376 380 376 394 Q 376 414 340 415 Q 325 415 306 409 Q 213 384 147 373 C 117 368 106 366 131 354 Z" fill="lightgray" />
    
      <path d="M 227 239 Q 180 229 112 219 Q 99 217 99 211 Q 99 203 122 195 Q 146 186 168 186 Q 179 186 201 192 Q 211 194 227 197 L 275 207 Q 301 212 336 219 Q 359 222 385 232 Q 399 238 399 251 Q 396 269 336 270 Q 327 270 305 262 Q 294 257 275 252 L 227 239 Z" fill="lightgray" />
    
      <path d="M 214 346 Q 215 342 216 335 Q 227 309 227 255 L 227 239 L 227 197 Q 225 48 214 22 Q 209 5 182 -18 Q 168 -32 168 -41 Q 168 -44 175 -63 Q 193 -102 208 -102 Q 217 -102 246 -56 Q 290 -7 348 57 Q 387 99 387 110 Q 387 119 380 119 Q 377 119 305 63 Q 287 47 264 27 Q 265 36 266 46 Q 273 104 275 207 L 275 252 L 275 255 Q 275 281 278 295 Q 280 310 280 314 Q 280 329 260 346 Q 257 348 252 352 C 229 371 207 375 214 346 Z" fill="lightgray" />
    
      <path d="M 724 715 Q 716 715 691 685 Q 659 650 618 625 Q 577 603 531 586 Q 487 575 487 566 Q 487 564 490 559 Q 494 555 504 555 Q 555 561 628 584 L 665 596 Q 671 598 680 601 Q 780 639 787 639 Q 797 639 807 641 Q 811 646 811 647 Q 811 659 774 687 Q 737 715 724 715 Z" fill="lightgray" />
    
      <path d="M 636 490 Q 603 485 562 477 Q 471 458 420 450 Q 408 447 408 438 Q 409 434 433 419 Q 453 406 468 406 Q 475 406 500 416 Q 561 436 636 447 L 697 457 Q 744 463 787 463 L 831 461 Q 884 454 907 454 Q 941 456 943 475 Q 940 492 911 510 Q 882 526 859 526 Q 849 526 831 523 Q 803 518 771 514 Q 752 511 698 502 L 636 490 Z" fill="lightgray" />
    
      <path d="M 638 301 Q 607 296 568 289 Q 561 287 553 286 L 504 276 Q 454 267 420 263 Q 408 260 408 255 Q 409 251 431 234 Q 450 222 464 222 Q 471 222 499 232 Q 506 234 514 236 L 554 246 Q 592 255 639 262 L 692 269 Q 739 275 782 277 L 829 278 L 856 277 Q 905 274 928 274 Q 958 275 959 291 Q 956 306 929 323 Q 901 339 880 339 Q 869 339 854 336 L 790 326 L 787 326 Q 764 322 693 310 L 638 301 Z" fill="lightgray" />
    
      <path d="M 553 286 L 552 322 Q 545 356 527 367 Q 507 378 479 379 Q 468 379 468 366 Q 468 364 476 354 Q 485 343 504 276 L 514 236 Q 518 219 523 196 Q 532 163 544 163 Q 555 163 555 186 L 554 246 L 553 286 Z" fill="lightgray" />
    
      <path d="M 782 277 Q 778 254 770 228 Q 764 201 764 194 Q 764 186 768 186 Q 788 186 815 243 Q 820 256 829 278 L 854 336 Q 876 373 876 379 Q 876 398 837 416 Q 804 431 787 431 Q 775 431 775 419 Q 786 394 792 366 Q 792 348 790 326 L 782 277 Z" fill="lightgray" />
    
      <path d="M 640 135 Q 601 129 565 124 Q 520 117 471 115 Q 445 115 443 98 Q 445 93 461 88 Q 488 76 515 75 Q 530 75 563 81 Q 598 86 641 91 L 687 97 Q 715 100 746 103 Q 812 109 892 110 Q 920 110 920 131 Q 920 146 899 159 Q 878 171 852 171 Q 824 171 797 164 Q 740 152 688 143 L 640 135 Z" fill="lightgray" />
    
      <path d="M 628 584 Q 636 560 636 538 L 636 490 L 636 447 Q 637 434 637 416 Q 637 366 638 301 L 639 262 Q 639 205 640 135 L 641 91 Q 642 37 643 -29 C 643 -59 683 -52 684 -22 Q 685 38 687 97 L 688 143 Q 690 207 692 269 L 693 310 Q 695 375 696 435 Q 696 445 697 457 L 698 502 Q 700 538 703 566 Q 703 576 671 593 Q 668 594 665 596 C 639 610 620 613 628 584 Z" fill="lightgray" />
    
      <path d="M 643 -29 Q 622 -32 594 -37 Q 528 -49 492 -53 Q 479 -56 479 -62 Q 480 -66 503 -81 Q 521 -93 536 -93 Q 540 -93 556 -88 Q 598 -78 651 -72 Q 702 -66 743 -66 L 784 -67 Q 834 -70 855 -70 Q 886 -69 888 -53 Q 885 -37 856 -21 Q 829 -5 808 -5 Q 800 -5 787 -7 Q 767 -11 744 -13 Q 729 -15 684 -22 L 643 -29 Z" fill="lightgray" />
    
    
      <clipPath id="make-me-a-hanzi-clip-0">
        <path d="M 248 746 Q 231 746 231 734 Q 231 732 233 724 Q 240 710 240 698 Q 231 639 189 532 Q 138 419 79 352 Q 47 314 47 310 Q 47 306 59 306 Q 84 306 131 354 L 147 373 Q 156 381 166 393 Q 203 437 237 503 L 255 539 Q 271 572 288 613 Q 306 658 319 681 Q 328 695 328 702 Q 328 715 293 732 Q 266 746 248 746 Z" />
      </clipPath>
      <path clip-path="url(#make-me-a-hanzi-clip-0)" d="M 244 733 L 280 694 L 215 521 L 181 456 L 137 392 L 97 345 L 53 309" fill="none" id="make-me-a-hanzi-animation-0" stroke-dasharray="635 1270" stroke-linecap="round" />
    
      <clipPath id="make-me-a-hanzi-clip-1">
        <path d="M 237 503 Q 254 499 271 499 Q 289 499 403 522 Q 420 528 420 547 Q 420 569 376 570 Q 364 570 349 565 Q 297 549 255 539 C 226 532 208 509 237 503 Z" />
      </clipPath>
      <path clip-path="url(#make-me-a-hanzi-clip-1)" d="M 244 507 L 270 521 L 402 547" fill="none" id="make-me-a-hanzi-animation-1" stroke-dasharray="292 584" stroke-linecap="round" />
    
      <clipPath id="make-me-a-hanzi-clip-2">
        <path d="M 131 354 Q 134 351 145 349 Q 168 343 187 343 Q 195 343 214 346 L 252 352 Q 294 360 364 375 Q 376 380 376 394 Q 376 414 340 415 Q 325 415 306 409 Q 213 384 147 373 C 117 368 106 366 131 354 Z" />
      </clipPath>
      <path clip-path="url(#make-me-a-hanzi-clip-2)" d="M 139 355 L 357 394" fill="none" id="make-me-a-hanzi-animation-2" stroke-dasharray="349 698" stroke-linecap="round" />
    
      <clipPath id="make-me-a-hanzi-clip-3">
        <path d="M 227 239 Q 180 229 112 219 Q 99 217 99 211 Q 99 203 122 195 Q 146 186 168 186 Q 179 186 201 192 Q 211 194 227 197 L 275 207 Q 301 212 336 219 Q 359 222 385 232 Q 399 238 399 251 Q 396 269 336 270 Q 327 270 305 262 Q 294 257 275 252 L 227 239 Z" />
      </clipPath>
      <path clip-path="url(#make-me-a-hanzi-clip-3)" d="M 108 211 L 149 205 L 178 208 L 335 245 L 387 249" fill="none" id="make-me-a-hanzi-animation-3" stroke-dasharray="412 824" stroke-linecap="round" />
    
      <clipPath id="make-me-a-hanzi-clip-4">
        <path d="M 214 346 Q 215 342 216 335 Q 227 309 227 255 L 227 239 L 227 197 Q 225 48 214 22 Q 209 5 182 -18 Q 168 -32 168 -41 Q 168 -44 175 -63 Q 193 -102 208 -102 Q 217 -102 246 -56 Q 290 -7 348 57 Q 387 99 387 110 Q 387 119 380 119 Q 377 119 305 63 Q 287 47 264 27 Q 265 36 266 46 Q 273 104 275 207 L 275 252 L 275 255 Q 275 281 278 295 Q 280 310 280 314 Q 280 329 260 346 Q 257 348 252 352 C 229 371 207 375 214 346 Z" />
      </clipPath>
      <path clip-path="url(#make-me-a-hanzi-clip-4)" d="M 221 342 L 248 322 L 252 304 L 250 147 L 241 34 L 270 31 L 283 16 L 242 -6 L 213 -39 L 207 -92" fill="none" id="make-me-a-hanzi-animation-4" stroke-dasharray="643 1286" stroke-linecap="round" />
    
      <clipPath id="make-me-a-hanzi-clip-5">
        <path d="M 724 715 Q 716 715 691 685 Q 659 650 618 625 Q 577 603 531 586 Q 487 575 487 566 Q 487 564 490 559 Q 494 555 504 555 Q 555 561 628 584 L 665 596 Q 671 598 680 601 Q 780 639 787 639 Q 797 639 807 641 Q 811 646 811 647 Q 811 659 774 687 Q 737 715 724 715 Z" />
      </clipPath>
      <path clip-path="url(#make-me-a-hanzi-clip-5)" d="M 803 648 L 730 666 L 681 633 L 614 599 L 494 565" fill="none" id="make-me-a-hanzi-animation-5" stroke-dasharray="462 924" stroke-linecap="round" />
    
      <clipPath id="make-me-a-hanzi-clip-6">
        <path d="M 636 490 Q 603 485 562 477 Q 471 458 420 450 Q 408 447 408 438 Q 409 434 433 419 Q 453 406 468 406 Q 475 406 500 416 Q 561 436 636 447 L 697 457 Q 744 463 787 463 L 831 461 Q 884 454 907 454 Q 941 456 943 475 Q 940 492 911 510 Q 882 526 859 526 Q 849 526 831 523 Q 803 518 771 514 Q 752 511 698 502 L 636 490 Z" />
      </clipPath>
      <path clip-path="url(#make-me-a-hanzi-clip-6)" d="M 416 439 L 465 432 L 632 469 L 779 489 L 869 491 L 928 475" fill="none" id="make-me-a-hanzi-animation-6" stroke-dasharray="648 1296" stroke-linecap="round" />
    
      <clipPath id="make-me-a-hanzi-clip-7">
        <path d="M 638 301 Q 607 296 568 289 Q 561 287 553 286 L 504 276 Q 454 267 420 263 Q 408 260 408 255 Q 409 251 431 234 Q 450 222 464 222 Q 471 222 499 232 Q 506 234 514 236 L 554 246 Q 592 255 639 262 L 692 269 Q 739 275 782 277 L 829 278 L 856 277 Q 905 274 928 274 Q 958 275 959 291 Q 956 306 929 323 Q 901 339 880 339 Q 869 339 854 336 L 790 326 L 787 326 Q 764 322 693 310 L 638 301 Z" />
      </clipPath>
      <path clip-path="url(#make-me-a-hanzi-clip-7)" d="M 416 256 L 462 245 L 594 275 L 826 305 L 889 307 L 946 291" fill="none" id="make-me-a-hanzi-animation-7" stroke-dasharray="667 1334" stroke-linecap="round" />
    
      <clipPath id="make-me-a-hanzi-clip-8">
        <path d="M 553 286 L 552 322 Q 545 356 527 367 Q 507 378 479 379 Q 468 379 468 366 Q 468 364 476 354 Q 485 343 504 276 L 514 236 Q 518 219 523 196 Q 532 163 544 163 Q 555 163 555 186 L 554 246 L 553 286 Z" />
      </clipPath>
      <path clip-path="url(#make-me-a-hanzi-clip-8)" d="M 478 368 L 504 352 L 522 322 L 544 172" fill="none" id="make-me-a-hanzi-animation-8" stroke-dasharray="345 690" stroke-linecap="round" />
    
      <clipPath id="make-me-a-hanzi-clip-9">
        <path d="M 782 277 Q 778 254 770 228 Q 764 201 764 194 Q 764 186 768 186 Q 788 186 815 243 Q 820 256 829 278 L 854 336 Q 876 373 876 379 Q 876 398 837 416 Q 804 431 787 431 Q 775 431 775 419 Q 786 394 792 366 Q 792 348 790 326 L 782 277 Z" />
      </clipPath>
      <path clip-path="url(#make-me-a-hanzi-clip-9)" d="M 786 421 L 831 375 L 794 241 L 771 192" fill="none" id="make-me-a-hanzi-animation-9" stroke-dasharray="385 770" stroke-linecap="round" />
    
      <clipPath id="make-me-a-hanzi-clip-10">
        <path d="M 640 135 Q 601 129 565 124 Q 520 117 471 115 Q 445 115 443 98 Q 445 93 461 88 Q 488 76 515 75 Q 530 75 563 81 Q 598 86 641 91 L 687 97 Q 715 100 746 103 Q 812 109 892 110 Q 920 110 920 131 Q 920 146 899 159 Q 878 171 852 171 Q 824 171 797 164 Q 740 152 688 143 L 640 135 Z" />
      </clipPath>
      <path clip-path="url(#make-me-a-hanzi-clip-10)" d="M 450 100 L 538 98 L 846 140 L 902 130" fill="none" id="make-me-a-hanzi-animation-10" stroke-dasharray="584 1168" stroke-linecap="round" />
    
      <clipPath id="make-me-a-hanzi-clip-11">
        <path d="M 628 584 Q 636 560 636 538 L 636 490 L 636 447 Q 637 434 637 416 Q 637 366 638 301 L 639 262 Q 639 205 640 135 L 641 91 Q 642 37 643 -29 C 643 -59 683 -52 684 -22 Q 685 38 687 97 L 688 143 Q 690 207 692 269 L 693 310 Q 695 375 696 435 Q 696 445 697 457 L 698 502 Q 700 538 703 566 Q 703 576 671 593 Q 668 594 665 596 C 639 610 620 613 628 584 Z" />
      </clipPath>
      <path clip-path="url(#make-me-a-hanzi-clip-11)" d="M 637 578 L 665 562 L 669 551 L 664 1 L 649 -21" fill="none" id="make-me-a-hanzi-animation-11" stroke-dasharray="749 1498" stroke-linecap="round" />
    
      <clipPath id="make-me-a-hanzi-clip-12">
        <path d="M 643 -29 Q 622 -32 594 -37 Q 528 -49 492 -53 Q 479 -56 479 -62 Q 480 -66 503 -81 Q 521 -93 536 -93 Q 540 -93 556 -88 Q 598 -78 651 -72 Q 702 -66 743 -66 L 784 -67 Q 834 -70 855 -70 Q 886 -69 888 -53 Q 885 -37 856 -21 Q 829 -5 808 -5 Q 800 -5 787 -7 Q 767 -11 744 -13 Q 729 -15 684 -22 L 643 -29 Z" />
      </clipPath>
      <path clip-path="url(#make-me-a-hanzi-clip-12)" d="M 487 -60 L 534 -70 L 681 -45 L 785 -37 L 817 -37 L 875 -52" fill="none" id="make-me-a-hanzi-animation-12" stroke-dasharray="521 1042" stroke-linecap="round" />
    
  </g>
</svg>