<svg version="1.1" viewBox="0 0 1024 1024" xmlns="http://www.w3.org/2000/svg">
  <g stroke="lightgray" stroke-dasharray="1,1" stroke-width="1" transform="scale(4, 4)">
    <line x1="0" y1="0" x2="256" y2="256"></line>
    <line x1="256" y1="0" x2="0" y2="256"></line>
    <line x1="128" y1="0" x2="128" y2="256"></line>
    <line x1="0" y1="128" x2="256" y2="128"></line>
  </g>
  <g transform="scale(0.92, -0.92) translate(60, -830)">
    <style type="text/css">
      
        @keyframes keyframes0 {
          from {
            stroke: blue;
            stroke-dashoffset: 763;
            stroke-width: 128;
          }
          71% {
            animation-timing-function: step-end;
            stroke: blue;
            stroke-dashoffset: 0;
            stroke-width: 128;
          }
          to {
            stroke: black;
            stroke-width: 1024;
          }
        }
        #make-me-a-hanzi-animation-0 {
          animation: keyframes0 0.8709309895833334s both;
          animation-delay: 0s;
          animation-timing-function: linear;
        }
      
        @keyframes keyframes1 {
          from {
            stroke: blue;
            stroke-dashoffset: 420;
            stroke-width: 128;
          }
          58% {
            animation-timing-function: step-end;
            stroke: blue;
            stroke-dashoffset: 0;
            stroke-width: 128;
          }
          to {
            stroke: black;
            stroke-width: 1024;
          }
        }
        #make-me-a-hanzi-animation-1 {
          animation: keyframes1 0.591796875s both;
          animation-delay: 0.8709309895833334s;
          animation-timing-function: linear;
        }
      
        @keyframes keyframes2 {
          from {
            stroke: blue;
            stroke-dashoffset: 488;
            stroke-width: 128;
          }
          61% {
            animation-timing-function: step-end;
            stroke: blue;
            stroke-dashoffset: 0;
            stroke-width: 128;
          }
          to {
            stroke: black;
            stroke-width: 1024;
          }
        }
        #make-me-a-hanzi-animation-2 {
          animation: keyframes2 0.6471354166666666s both;
          animation-delay: 1.4627278645833335s;
          animation-timing-function: linear;
        }
      
        @keyframes keyframes3 {
          from {
            stroke: blue;
            stroke-dashoffset: 541;
            stroke-width: 128;
          }
          64% {
            animation-timing-function: step-end;
            stroke: blue;
            stroke-dashoffset: 0;
            stroke-width: 128;
          }
          to {
            stroke: black;
            stroke-width: 1024;
          }
        }
        #make-me-a-hanzi-animation-3 {
          animation: keyframes3 0.6902669270833334s both;
          animation-delay: 2.10986328125s;
          animation-timing-function: linear;
        }
      
        @keyframes keyframes4 {
          from {
            stroke: blue;
            stroke-dashoffset: 769;
            stroke-width: 128;
          }
          71% {
            animation-timing-function: step-end;
            stroke: blue;
            stroke-dashoffset: 0;
            stroke-width: 128;
          }
          to {
            stroke: black;
            stroke-width: 1024;
          }
        }
        #make-me-a-hanzi-animation-4 {
          animation: keyframes4 0.8758138020833334s both;
          animation-delay: 2.8001302083333335s;
          animation-timing-function: linear;
        }
      
        @keyframes keyframes5 {
          from {
            stroke: blue;
            stroke-dashoffset: 613;
            stroke-width: 128;
          }
          67% {
            animation-timing-function: step-end;
            stroke: blue;
            stroke-dashoffset: 0;
            stroke-width: 128;
          }
          to {
            stroke: black;
            stroke-width: 1024;
          }
        }
        #make-me-a-hanzi-animation-5 {
          animation: keyframes5 0.7488606770833334s both;
          animation-delay: 3.675944010416667s;
          animation-timing-function: linear;
        }
      
        @keyframes keyframes6 {
          from {
            stroke: blue;
            stroke-dashoffset: 544;
            stroke-width: 128;
          }
          64% {
            animation-timing-function: step-end;
            stroke: blue;
            stroke-dashoffset: 0;
            stroke-width: 128;
          }
          to {
            stroke: black;
            stroke-width: 1024;
          }
        }
        #make-me-a-hanzi-animation-6 {
          animation: keyframes6 0.6927083333333334s both;
          animation-delay: 4.4248046875s;
          animation-timing-function: linear;
        }
      
        @keyframes keyframes7 {
          from {
            stroke: blue;
            stroke-dashoffset: 617;
            stroke-width: 128;
          }
          67% {
            animation-timing-function: step-end;
            stroke: blue;
            stroke-dashoffset: 0;
            stroke-width: 128;
          }
          to {
            stroke: black;
            stroke-width: 1024;
          }
        }
        #make-me-a-hanzi-animation-7 {
          animation: keyframes7 0.7521158854166666s both;
          animation-delay: 5.117513020833333s;
          animation-timing-function: linear;
        }
      
        @keyframes keyframes8 {
          from {
            stroke: blue;
            stroke-dashoffset: 828;
            stroke-width: 128;
          }
          73% {
            animation-timing-function: step-end;
            stroke: blue;
            stroke-dashoffset: 0;
            stroke-width: 128;
          }
          to {
            stroke: black;
            stroke-width: 1024;
          }
        }
        #make-me-a-hanzi-animation-8 {
          animation: keyframes8 0.923828125s both;
          animation-delay: 5.86962890625s;
          animation-timing-function: linear;
        }
      
        @keyframes keyframes9 {
          from {
            stroke: blue;
            stroke-dashoffset: 440;
            stroke-width: 128;
          }
          59% {
            animation-timing-function: step-end;
            stroke: blue;
            stroke-dashoffset: 0;
            stroke-width: 128;
          }
          to {
            stroke: black;
            stroke-width: 1024;
          }
        }
        #make-me-a-hanzi-animation-9 {
          animation: keyframes9 0.6080729166666666s both;
          animation-delay: 6.79345703125s;
          animation-timing-function: linear;
        }
      
        @keyframes keyframes10 {
          from {
            stroke: blue;
            stroke-dashoffset: 434;
            stroke-width: 128;
          }
          59% {
            animation-timing-function: step-end;
            stroke: blue;
            stroke-dashoffset: 0;
            stroke-width: 128;
          }
          to {
            stroke: black;
            stroke-width: 1024;
          }
        }
        #make-me-a-hanzi-animation-10 {
          animation: keyframes10 0.6031901041666666s both;
          animation-delay: 7.401529947916667s;
          animation-timing-function: linear;
        }
      
        @keyframes keyframes11 {
          from {
            stroke: blue;
            stroke-dashoffset: 430;
            stroke-width: 128;
          }
          58% {
            animation-timing-function: step-end;
            stroke: blue;
            stroke-dashoffset: 0;
            stroke-width: 128;
          }
          to {
            stroke: black;
            stroke-width: 1024;
          }
        }
        #make-me-a-hanzi-animation-11 {
          animation: keyframes11 0.5999348958333334s both;
          animation-delay: 8.004720052083334s;
          animation-timing-function: linear;
        }
      
        @keyframes keyframes12 {
          from {
            stroke: blue;
            stroke-dashoffset: 856;
            stroke-width: 128;
          }
          74% {
            animation-timing-function: step-end;
            stroke: blue;
            stroke-dashoffset: 0;
            stroke-width: 128;
          }
          to {
            stroke: black;
            stroke-width: 1024;
          }
        }
        #make-me-a-hanzi-animation-12 {
          animation: keyframes12 0.9466145833333334s both;
          animation-delay: 8.604654947916668s;
          animation-timing-function: linear;
        }
      
        @keyframes keyframes13 {
          from {
            stroke: blue;
            stroke-dashoffset: 521;
            stroke-width: 128;
          }
          63% {
            animation-timing-function: step-end;
            stroke: blue;
            stroke-dashoffset: 0;
            stroke-width: 128;
          }
          to {
            stroke: black;
            stroke-width: 1024;
          }
        }
        #make-me-a-hanzi-animation-13 {
          animation: keyframes13 0.6739908854166666s both;
          animation-delay: 9.551269531250002s;
          animation-timing-function: linear;
        }
      
        @keyframes keyframes14 {
          from {
            stroke: blue;
            stroke-dashoffset: 472;
            stroke-width: 128;
          }
          61% {
            animation-timing-function: step-end;
            stroke: blue;
            stroke-dashoffset: 0;
            stroke-width: 128;
          }
          to {
            stroke: black;
            stroke-width: 1024;
          }
        }
        #make-me-a-hanzi-animation-14 {
          animation: keyframes14 0.6341145833333334s both;
          animation-delay: 10.225260416666668s;
          animation-timing-function: linear;
        }
      
    </style>
    
      <path d="M 248 742 Q 231 742 231 731 Q 231 728 233 720 Q 240 706 240 694 Q 231 635 189 528 Q 138 415 79 348 Q 47 310 47 306 Q 47 303 59 303 Q 83 303 129 349 L 142 363 Q 154 375 166 390 Q 203 434 237 499 L 255 535 Q 272 569 288 609 Q 306 654 319 677 Q 328 691 328 698 Q 328 710 293 728 Q 266 742 248 742 Z" fill="lightgray"></path>
    
      <path d="M 237 499 Q 254 494 271 494 Q 289 494 403 519 Q 420 524 420 543 Q 420 565 376 566 Q 364 566 349 562 Q 297 546 255 535 C 226 527 208 507 237 499 Z" fill="lightgray"></path>
    
      <path d="M 129 349 Q 129 346 145 342 Q 168 335 187 335 Q 195 335 214 338 L 255 346 Q 297 354 368 371 Q 380 376 380 391 Q 380 409 343 410 Q 329 410 310 404 Q 211 376 142 363 C 115 358 115 358 129 349 Z" fill="lightgray"></path>
    
      <path d="M 227 219 Q 180 209 112 198 Q 99 197 99 190 Q 99 183 122 176 Q 146 167 168 167 Q 179 167 201 172 Q 211 174 227 177 L 274 186 Q 301 191 336 198 Q 359 202 385 212 Q 399 219 399 230 Q 396 250 336 251 Q 327 251 305 241 Q 294 236 275 231 L 227 219 Z" fill="lightgray"></path>
    
      <path d="M 214 338 Q 215 335 216 331 Q 227 305 227 251 L 227 219 L 227 177 Q 225 43 214 18 Q 209 1 182 -22 Q 168 -36 168 -45 Q 168 -48 175 -67 Q 193 -106 208 -106 Q 217 -106 245 -60 Q 288 -9 345 56 Q 358 69 368 83 L 372 88 Q 384 104 384 110 Q 384 119 376 119 Q 373 119 303 61 Q 285 44 264 25 Q 265 33 266 42 Q 272 95 274 186 L 275 231 L 275 251 Q 275 277 278 291 Q 280 306 280 310 Q 280 324 260 342 Q 259 343 255 346 C 233 366 205 367 214 338 Z" fill="lightgray"></path>
    
      <path d="M 646 569 Q 692 576 764 587 Q 790 591 819 602 Q 835 609 836 622 Q 831 645 768 647 Q 756 647 728 637 Q 705 629 667 621 L 609 610 Q 552 600 471 591 Q 460 589 460 578 Q 460 571 484 563 Q 512 555 536 555 Q 552 555 581 560 Q 589 561 602 563 L 646 569 Z" fill="lightgray"></path>
    
      <path d="M 610 477 Q 614 486 621 503 Q 635 539 646 569 L 667 621 Q 685 666 692 679 Q 703 699 703 702 Q 703 713 668 735 Q 636 755 628 755 Q 611 755 611 742 Q 620 728 620 706 Q 620 680 609 610 L 602 563 Q 597 523 588 471 C 583 441 598 449 610 477 Z" fill="lightgray"></path>
    
      <path d="M 536 459 Q 530 464 521 466 Q 506 471 479 471 Q 468 471 468 463 Q 468 456 474 438 Q 486 415 493 369 Q 504 309 510 160 Q 511 126 518 109 C 527 80 537 84 543 113 Q 547 128 548 159 L 548 194 L 548 213 L 548 274 L 548 293 L 548 352 L 548 374 L 548 435 C 548 452 548 452 536 459 Z" fill="lightgray"></path>
    
      <path d="M 769 144 Q 773 152 775 163 Q 786 268 796 364 Q 800 400 811 442 Q 815 453 815 467 Q 814 478 785 496 Q 756 515 739 515 Q 723 513 682 500 Q 644 487 610 477 L 588 471 Q 560 463 536 459 C 507 453 518 432 548 435 Q 598 439 727 467 Q 739 467 739 454 Q 739 440 738 416 Q 738 409 737 401 L 736 369 Q 735 342 734 314 L 733 288 Q 732 263 731 237 L 730 206 Q 729 198 729 191 Q 727 161 727 146 Q 727 143 728 139 C 729 109 760 115 769 144 Z" fill="lightgray"></path>
    
      <path d="M 548 352 Q 557 350 567 350 Q 590 350 736 369 C 766 373 767 397 737 401 Q 732 402 724 402 Q 710 402 691 398 Q 608 382 548 374 C 518 370 518 357 548 352 Z" fill="lightgray"></path>
    
      <path d="M 548 274 Q 561 270 575 270 Q 596 270 731 287 L 733 288 C 762 295 762 305 734 314 Q 728 317 712 318 Q 699 318 682 315 Q 604 300 548 293 C 518 289 519 282 548 274 Z" fill="lightgray"></path>
    
      <path d="M 548 194 Q 561 190 575 190 Q 596 190 730 206 C 760 210 761 233 731 237 Q 727 238 720 238 Q 707 238 689 235 Q 607 220 548 213 C 518 209 519 202 548 194 Z" fill="lightgray"></path>
    
      <path d="M 368 83 Q 369 79 391 62 Q 410 50 424 50 Q 433 50 465 59 Q 549 77 653 87 Q 753 98 836 98 L 877 97 Q 926 94 947 94 Q 978 95 980 110 Q 977 127 948 143 Q 921 159 899 159 Q 887 159 867 155 Q 831 151 796 147 Q 786 146 769 144 L 728 139 Q 664 131 548 115 Q 546 115 543 113 L 518 109 Q 432 96 380 91 Q 376 90 372 88 C 365 86 365 86 368 83 Z" fill="lightgray"></path>
    
      <path d="M 536 54 Q 530 54 526 50 Q 523 45 523 39 Q 523 21 498 -15 Q 461 -63 414 -100 Q 386 -120 380 -129 Q 384 -133 391 -133 Q 462 -109 517 -65 Q 558 -29 592 -3 Q 607 5 607 10 Q 607 23 571 42 Q 547 54 536 54 Z" fill="lightgray"></path>
    
      <path d="M 712 54 Q 695 54 695 43 Q 695 38 737 -10 Q 787 -66 812 -104 Q 831 -129 840 -129 Q 871 -129 871 -74 Q 871 -24 785 19 Q 720 54 712 54 Z" fill="lightgray"></path>
    
    
      <clipPath id="make-me-a-hanzi-clip-0">
        <path d="M 248 742 Q 231 742 231 731 Q 231 728 233 720 Q 240 706 240 694 Q 231 635 189 528 Q 138 415 79 348 Q 47 310 47 306 Q 47 303 59 303 Q 83 303 129 349 L 142 363 Q 154 375 166 390 Q 203 434 237 499 L 255 535 Q 272 569 288 609 Q 306 654 319 677 Q 328 691 328 698 Q 328 710 293 728 Q 266 742 248 742 Z"></path>
      </clipPath>
      <path clip-path="url(#make-me-a-hanzi-clip-0)" d="M 244 730 L 280 690 L 215 517 L 145 399 L 110 354 L 53 306" fill="none" id="make-me-a-hanzi-animation-0" stroke-dasharray="635 1270" stroke-linecap="round"></path>
    
      <clipPath id="make-me-a-hanzi-clip-1">
        <path d="M 237 499 Q 254 494 271 494 Q 289 494 403 519 Q 420 524 420 543 Q 420 565 376 566 Q 364 566 349 562 Q 297 546 255 535 C 226 527 208 507 237 499 Z"></path>
      </clipPath>
      <path clip-path="url(#make-me-a-hanzi-clip-1)" d="M 244 503 L 270 516 L 402 543" fill="none" id="make-me-a-hanzi-animation-1" stroke-dasharray="292 584" stroke-linecap="round"></path>
    
      <clipPath id="make-me-a-hanzi-clip-2">
        <path d="M 129 349 Q 129 346 145 342 Q 168 335 187 335 Q 195 335 214 338 L 255 346 Q 297 354 368 371 Q 380 376 380 391 Q 380 409 343 410 Q 329 410 310 404 Q 211 376 142 363 C 115 358 115 358 129 349 Z"></path>
      </clipPath>
      <path clip-path="url(#make-me-a-hanzi-clip-2)" d="M 134 351 L 203 355 L 362 390" fill="none" id="make-me-a-hanzi-animation-2" stroke-dasharray="360 720" stroke-linecap="round"></path>
    
      <clipPath id="make-me-a-hanzi-clip-3">
        <path d="M 227 219 Q 180 209 112 198 Q 99 197 99 190 Q 99 183 122 176 Q 146 167 168 167 Q 179 167 201 172 Q 211 174 227 177 L 274 186 Q 301 191 336 198 Q 359 202 385 212 Q 399 219 399 230 Q 396 250 336 251 Q 327 251 305 241 Q 294 236 275 231 L 227 219 Z"></path>
      </clipPath>
      <path clip-path="url(#make-me-a-hanzi-clip-3)" d="M 107 191 L 179 188 L 346 227 L 387 229" fill="none" id="make-me-a-hanzi-animation-3" stroke-dasharray="413 826" stroke-linecap="round"></path>
    
      <clipPath id="make-me-a-hanzi-clip-4">
        <path d="M 214 338 Q 215 335 216 331 Q 227 305 227 251 L 227 219 L 227 177 Q 225 43 214 18 Q 209 1 182 -22 Q 168 -36 168 -45 Q 168 -48 175 -67 Q 193 -106 208 -106 Q 217 -106 245 -60 Q 288 -9 345 56 Q 358 69 368 83 L 372 88 Q 384 104 384 110 Q 384 119 376 119 Q 373 119 303 61 Q 285 44 264 25 Q 265 33 266 42 Q 272 95 274 186 L 275 231 L 275 251 Q 275 277 278 291 Q 280 306 280 310 Q 280 324 260 342 Q 259 343 255 346 C 233 366 205 367 214 338 Z"></path>
      </clipPath>
      <path clip-path="url(#make-me-a-hanzi-clip-4)" d="M 221 336 L 248 317 L 252 300 L 250 128 L 242 32 L 270 28 L 282 13 L 244 -5 L 212 -43 L 206 -62 L 207 -97" fill="none" id="make-me-a-hanzi-animation-4" stroke-dasharray="641 1282" stroke-linecap="round"></path>
    
      <clipPath id="make-me-a-hanzi-clip-5">
        <path d="M 646 569 Q 692 576 764 587 Q 790 591 819 602 Q 835 609 836 622 Q 831 645 768 647 Q 756 647 728 637 Q 705 629 667 621 L 609 610 Q 552 600 471 591 Q 460 589 460 578 Q 460 571 484 563 Q 512 555 536 555 Q 552 555 581 560 Q 589 561 602 563 L 646 569 Z"></path>
      </clipPath>
      <path clip-path="url(#make-me-a-hanzi-clip-5)" d="M 470 580 L 553 578 L 777 619 L 823 621" fill="none" id="make-me-a-hanzi-animation-5" stroke-dasharray="485 970" stroke-linecap="round"></path>
    
      <clipPath id="make-me-a-hanzi-clip-6">
        <path d="M 610 477 Q 614 486 621 503 Q 635 539 646 569 L 667 621 Q 685 666 692 679 Q 703 699 703 702 Q 703 713 668 735 Q 636 755 628 755 Q 611 755 611 742 Q 620 728 620 706 Q 620 680 609 610 L 602 563 Q 597 523 588 471 C 583 441 598 449 610 477 Z"></path>
      </clipPath>
      <path clip-path="url(#make-me-a-hanzi-clip-6)" d="M 624 742 L 635 734 L 658 696 L 607 500 L 602 485 L 592 479" fill="none" id="make-me-a-hanzi-animation-6" stroke-dasharray="416 832" stroke-linecap="round"></path>
    
      <clipPath id="make-me-a-hanzi-clip-7">
        <path d="M 536 459 Q 530 464 521 466 Q 506 471 479 471 Q 468 471 468 463 Q 468 456 474 438 Q 486 415 493 369 Q 504 309 510 160 Q 511 126 518 109 C 527 80 537 84 543 113 Q 547 128 548 159 L 548 194 L 548 213 L 548 274 L 548 293 L 548 352 L 548 374 L 548 435 C 548 452 548 452 536 459 Z"></path>
      </clipPath>
      <path clip-path="url(#make-me-a-hanzi-clip-7)" d="M 479 460 L 512 433 L 519 397 L 530 150 L 523 116" fill="none" id="make-me-a-hanzi-animation-7" stroke-dasharray="489 978" stroke-linecap="round"></path>
    
      <clipPath id="make-me-a-hanzi-clip-8">
        <path d="M 769 144 Q 773 152 775 163 Q 786 268 796 364 Q 800 400 811 442 Q 815 453 815 467 Q 814 478 785 496 Q 756 515 739 515 Q 723 513 682 500 Q 644 487 610 477 L 588 471 Q 560 463 536 459 C 507 453 518 432 548 435 Q 598 439 727 467 Q 739 467 739 454 Q 739 440 738 416 Q 738 409 737 401 L 736 369 Q 735 342 734 314 L 733 288 Q 732 263 731 237 L 730 206 Q 729 198 729 191 Q 727 161 727 146 Q 727 143 728 139 C 729 109 760 115 769 144 Z"></path>
      </clipPath>
      <path clip-path="url(#make-me-a-hanzi-clip-8)" d="M 543 455 L 560 450 L 594 456 L 728 490 L 754 484 L 774 462 L 753 173 L 734 143" fill="none" id="make-me-a-hanzi-animation-8" stroke-dasharray="700 1400" stroke-linecap="round"></path>
    
      <clipPath id="make-me-a-hanzi-clip-9">
        <path d="M 548 352 Q 557 350 567 350 Q 590 350 736 369 C 766 373 767 397 737 401 Q 732 402 724 402 Q 710 402 691 398 Q 608 382 548 374 C 518 370 518 357 548 352 Z"></path>
      </clipPath>
      <path clip-path="url(#make-me-a-hanzi-clip-9)" d="M 554 358 L 718 383 L 730 396" fill="none" id="make-me-a-hanzi-animation-9" stroke-dasharray="312 624" stroke-linecap="round"></path>
    
      <clipPath id="make-me-a-hanzi-clip-10">
        <path d="M 548 274 Q 561 270 575 270 Q 596 270 731 287 L 733 288 C 762 295 762 305 734 314 Q 728 317 712 318 Q 699 318 682 315 Q 604 300 548 293 C 518 289 519 282 548 274 Z"></path>
      </clipPath>
      <path clip-path="url(#make-me-a-hanzi-clip-10)" d="M 555 288 L 560 283 L 616 287 L 715 300 L 728 308" fill="none" id="make-me-a-hanzi-animation-10" stroke-dasharray="306 612" stroke-linecap="round"></path>
    
      <clipPath id="make-me-a-hanzi-clip-11">
        <path d="M 548 194 Q 561 190 575 190 Q 596 190 730 206 C 760 210 761 233 731 237 Q 727 238 720 238 Q 707 238 689 235 Q 607 220 548 213 C 518 209 519 202 548 194 Z"></path>
      </clipPath>
      <path clip-path="url(#make-me-a-hanzi-clip-11)" d="M 555 208 L 577 203 L 691 216 L 725 229" fill="none" id="make-me-a-hanzi-animation-11" stroke-dasharray="302 604" stroke-linecap="round"></path>
    
      <clipPath id="make-me-a-hanzi-clip-12">
        <path d="M 368 83 Q 369 79 391 62 Q 410 50 424 50 Q 433 50 465 59 Q 549 77 653 87 Q 753 98 836 98 L 877 97 Q 926 94 947 94 Q 978 95 980 110 Q 977 127 948 143 Q 921 159 899 159 Q 887 159 867 155 Q 831 151 796 147 Q 786 146 769 144 L 728 139 Q 664 131 548 115 Q 546 115 543 113 L 518 109 Q 432 96 380 91 Q 376 90 372 88 C 365 86 365 86 368 83 Z"></path>
      </clipPath>
      <path clip-path="url(#make-me-a-hanzi-clip-12)" d="M 374 82 L 435 74 L 579 100 L 849 126 L 896 128 L 968 111" fill="none" id="make-me-a-hanzi-animation-12" stroke-dasharray="728 1456" stroke-linecap="round"></path>
    
      <clipPath id="make-me-a-hanzi-clip-13">
        <path d="M 536 54 Q 530 54 526 50 Q 523 45 523 39 Q 523 21 498 -15 Q 461 -63 414 -100 Q 386 -120 380 -129 Q 384 -133 391 -133 Q 462 -109 517 -65 Q 558 -29 592 -3 Q 607 5 607 10 Q 607 23 571 42 Q 547 54 536 54 Z"></path>
      </clipPath>
      <path clip-path="url(#make-me-a-hanzi-clip-13)" d="M 599 11 L 552 10 L 518 -31 L 463 -82 L 386 -128" fill="none" id="make-me-a-hanzi-animation-13" stroke-dasharray="393 786" stroke-linecap="round"></path>
    
      <clipPath id="make-me-a-hanzi-clip-14">
        <path d="M 712 54 Q 695 54 695 43 Q 695 38 737 -10 Q 787 -66 812 -104 Q 831 -129 840 -129 Q 871 -129 871 -74 Q 871 -24 785 19 Q 720 54 712 54 Z"></path>
      </clipPath>
      <path clip-path="url(#make-me-a-hanzi-clip-14)" d="M 703 44 L 818 -47 L 839 -84 L 843 -111" fill="none" id="make-me-a-hanzi-animation-14" stroke-dasharray="344 688" stroke-linecap="round"></path>
    
  </g>
</svg>