<svg version="1.1" viewBox="0 0 1024 1024" xmlns="http://www.w3.org/2000/svg">
  <g stroke="lightgray" stroke-dasharray="1,1" stroke-width="1" transform="scale(4, 4)">
    <line x1="0" y1="0" x2="256" y2="256"></line>
    <line x1="256" y1="0" x2="0" y2="256"></line>
    <line x1="128" y1="0" x2="128" y2="256"></line>
    <line x1="0" y1="128" x2="256" y2="128"></line>
  </g>
  <g transform="scale(0.92, -0.92) translate(60, -830)">
    <style type="text/css">
      
        @keyframes keyframes0 {
          from {
            stroke: blue;
            stroke-dashoffset: 763;
            stroke-width: 128;
          }
          71% {
            animation-timing-function: step-end;
            stroke: blue;
            stroke-dashoffset: 0;
            stroke-width: 128;
          }
          to {
            stroke: black;
            stroke-width: 1024;
          }
        }
        #make-me-a-hanzi-animation-0 {
          animation: keyframes0 0.8709309895833334s both;
          animation-delay: 0s;
          animation-timing-function: linear;
        }
      
        @keyframes keyframes1 {
          from {
            stroke: blue;
            stroke-dashoffset: 419;
            stroke-width: 128;
          }
          58% {
            animation-timing-function: step-end;
            stroke: blue;
            stroke-dashoffset: 0;
            stroke-width: 128;
          }
          to {
            stroke: black;
            stroke-width: 1024;
          }
        }
        #make-me-a-hanzi-animation-1 {
          animation: keyframes1 0.5909830729166666s both;
          animation-delay: 0.8709309895833334s;
          animation-timing-function: linear;
        }
      
        @keyframes keyframes2 {
          from {
            stroke: blue;
            stroke-dashoffset: 487;
            stroke-width: 128;
          }
          61% {
            animation-timing-function: step-end;
            stroke: blue;
            stroke-dashoffset: 0;
            stroke-width: 128;
          }
          to {
            stroke: black;
            stroke-width: 1024;
          }
        }
        #make-me-a-hanzi-animation-2 {
          animation: keyframes2 0.6463216145833334s both;
          animation-delay: 1.4619140625s;
          animation-timing-function: linear;
        }
      
        @keyframes keyframes3 {
          from {
            stroke: blue;
            stroke-dashoffset: 540;
            stroke-width: 128;
          }
          64% {
            animation-timing-function: step-end;
            stroke: blue;
            stroke-dashoffset: 0;
            stroke-width: 128;
          }
          to {
            stroke: black;
            stroke-width: 1024;
          }
        }
        #make-me-a-hanzi-animation-3 {
          animation: keyframes3 0.689453125s both;
          animation-delay: 2.1082356770833335s;
          animation-timing-function: linear;
        }
      
        @keyframes keyframes4 {
          from {
            stroke: blue;
            stroke-dashoffset: 768;
            stroke-width: 128;
          }
          71% {
            animation-timing-function: step-end;
            stroke: blue;
            stroke-dashoffset: 0;
            stroke-width: 128;
          }
          to {
            stroke: black;
            stroke-width: 1024;
          }
        }
        #make-me-a-hanzi-animation-4 {
          animation: keyframes4 0.875s both;
          animation-delay: 2.7976888020833335s;
          animation-timing-function: linear;
        }
      
        @keyframes keyframes5 {
          from {
            stroke: blue;
            stroke-dashoffset: 403;
            stroke-width: 128;
          }
          57% {
            animation-timing-function: step-end;
            stroke: blue;
            stroke-dashoffset: 0;
            stroke-width: 128;
          }
          to {
            stroke: black;
            stroke-width: 1024;
          }
        }
        #make-me-a-hanzi-animation-5 {
          animation: keyframes5 0.5779622395833334s both;
          animation-delay: 3.6726888020833335s;
          animation-timing-function: linear;
        }
      
        @keyframes keyframes6 {
          from {
            stroke: blue;
            stroke-dashoffset: 601;
            stroke-width: 128;
          }
          66% {
            animation-timing-function: step-end;
            stroke: blue;
            stroke-dashoffset: 0;
            stroke-width: 128;
          }
          to {
            stroke: black;
            stroke-width: 1024;
          }
        }
        #make-me-a-hanzi-animation-6 {
          animation: keyframes6 0.7390950520833334s both;
          animation-delay: 4.250651041666667s;
          animation-timing-function: linear;
        }
      
        @keyframes keyframes7 {
          from {
            stroke: blue;
            stroke-dashoffset: 359;
            stroke-width: 128;
          }
          54% {
            animation-timing-function: step-end;
            stroke: blue;
            stroke-dashoffset: 0;
            stroke-width: 128;
          }
          to {
            stroke: black;
            stroke-width: 1024;
          }
        }
        #make-me-a-hanzi-animation-7 {
          animation: keyframes7 0.5421549479166666s both;
          animation-delay: 4.98974609375s;
          animation-timing-function: linear;
        }
      
        @keyframes keyframes8 {
          from {
            stroke: blue;
            stroke-dashoffset: 407;
            stroke-width: 128;
          }
          57% {
            animation-timing-function: step-end;
            stroke: blue;
            stroke-dashoffset: 0;
            stroke-width: 128;
          }
          to {
            stroke: black;
            stroke-width: 1024;
          }
        }
        #make-me-a-hanzi-animation-8 {
          animation: keyframes8 0.5812174479166666s both;
          animation-delay: 5.531901041666667s;
          animation-timing-function: linear;
        }
      
        @keyframes keyframes9 {
          from {
            stroke: blue;
            stroke-dashoffset: 745;
            stroke-width: 128;
          }
          71% {
            animation-timing-function: step-end;
            stroke: blue;
            stroke-dashoffset: 0;
            stroke-width: 128;
          }
          to {
            stroke: black;
            stroke-width: 1024;
          }
        }
        #make-me-a-hanzi-animation-9 {
          animation: keyframes9 0.8562825520833334s both;
          animation-delay: 6.113118489583334s;
          animation-timing-function: linear;
        }
      
        @keyframes keyframes10 {
          from {
            stroke: blue;
            stroke-dashoffset: 497;
            stroke-width: 128;
          }
          62% {
            animation-timing-function: step-end;
            stroke: blue;
            stroke-dashoffset: 0;
            stroke-width: 128;
          }
          to {
            stroke: black;
            stroke-width: 1024;
          }
        }
        #make-me-a-hanzi-animation-10 {
          animation: keyframes10 0.6544596354166666s both;
          animation-delay: 6.969401041666667s;
          animation-timing-function: linear;
        }
      
        @keyframes keyframes11 {
          from {
            stroke: blue;
            stroke-dashoffset: 739;
            stroke-width: 128;
          }
          71% {
            animation-timing-function: step-end;
            stroke: blue;
            stroke-dashoffset: 0;
            stroke-width: 128;
          }
          to {
            stroke: black;
            stroke-width: 1024;
          }
        }
        #make-me-a-hanzi-animation-11 {
          animation: keyframes11 0.8513997395833334s both;
          animation-delay: 7.623860677083334s;
          animation-timing-function: linear;
        }
      
        @keyframes keyframes12 {
          from {
            stroke: blue;
            stroke-dashoffset: 461;
            stroke-width: 128;
          }
          60% {
            animation-timing-function: step-end;
            stroke: blue;
            stroke-dashoffset: 0;
            stroke-width: 128;
          }
          to {
            stroke: black;
            stroke-width: 1024;
          }
        }
        #make-me-a-hanzi-animation-12 {
          animation: keyframes12 0.6251627604166666s both;
          animation-delay: 8.475260416666668s;
          animation-timing-function: linear;
        }
      
        @keyframes keyframes13 {
          from {
            stroke: blue;
            stroke-dashoffset: 424;
            stroke-width: 128;
          }
          58% {
            animation-timing-function: step-end;
            stroke: blue;
            stroke-dashoffset: 0;
            stroke-width: 128;
          }
          to {
            stroke: black;
            stroke-width: 1024;
          }
        }
        #make-me-a-hanzi-animation-13 {
          animation: keyframes13 0.5950520833333334s both;
          animation-delay: 9.100423177083334s;
          animation-timing-function: linear;
        }
      
        @keyframes keyframes14 {
          from {
            stroke: blue;
            stroke-dashoffset: 644;
            stroke-width: 128;
          }
          68% {
            animation-timing-function: step-end;
            stroke: blue;
            stroke-dashoffset: 0;
            stroke-width: 128;
          }
          to {
            stroke: black;
            stroke-width: 1024;
          }
        }
        #make-me-a-hanzi-animation-14 {
          animation: keyframes14 0.7740885416666666s both;
          animation-delay: 9.695475260416668s;
          animation-timing-function: linear;
        }
      
        @keyframes keyframes15 {
          from {
            stroke: blue;
            stroke-dashoffset: 865;
            stroke-width: 128;
          }
          74% {
            animation-timing-function: step-end;
            stroke: blue;
            stroke-dashoffset: 0;
            stroke-width: 128;
          }
          to {
            stroke: black;
            stroke-width: 1024;
          }
        }
        #make-me-a-hanzi-animation-15 {
          animation: keyframes15 0.9539388020833334s both;
          animation-delay: 10.469563802083334s;
          animation-timing-function: linear;
        }
      
    </style>
    
      <path d="M 231 746 Q 215 746 215 734 Q 215 732 217 724 Q 223 710 223 698 Q 215 639 173 532 Q 122 419 63 352 Q 32 314 32 310 Q 32 306 43 306 Q 67 306 113 352 L 127 367 Q 137 378 150 393 Q 186 437 221 503 L 239 538 Q 255 572 271 613 Q 291 658 303 681 Q 311 695 311 702 Q 311 715 276 732 Q 250 746 231 746 Z" fill="lightgray"></path>
    
      <path d="M 221 503 Q 239 499 256 499 Q 273 499 387 522 Q 403 528 403 547 Q 403 569 359 570 Q 348 570 333 565 Q 281 549 239 538 C 210 530 192 509 221 503 Z" fill="lightgray"></path>
    
      <path d="M 113 352 Q 113 349 129 346 Q 152 339 171 339 Q 178 339 199 342 L 239 350 Q 281 358 351 375 Q 364 380 364 394 Q 364 414 328 415 Q 313 415 294 408 Q 195 380 127 367 C 98 361 97 361 113 352 Z" fill="lightgray"></path>
    
      <path d="M 212 223 Q 164 213 95 203 Q 84 201 84 194 Q 84 187 105 179 Q 130 171 152 171 Q 164 171 184 176 Q 195 178 212 181 L 258 190 Q 284 195 319 203 Q 343 206 370 216 Q 383 222 384 234 Q 381 254 319 255 Q 310 255 290 246 Q 278 240 259 235 L 212 223 Z" fill="lightgray"></path>
    
      <path d="M 199 342 Q 200 339 201 335 Q 212 309 212 255 L 212 223 L 212 181 Q 210 47 199 22 Q 193 5 166 -18 Q 152 -32 152 -41 Q 152 -44 160 -63 Q 176 -102 191 -102 Q 201 -102 230 -56 Q 273 -7 332 57 Q 372 99 372 110 Q 372 119 364 119 Q 360 119 289 63 Q 270 47 248 27 Q 249 36 250 46 Q 256 99 258 190 L 259 235 L 259 255 Q 259 281 261 295 Q 263 310 263 314 Q 263 329 244 346 Q 243 347 239 350 C 217 371 190 371 199 342 Z" fill="lightgray"></path>
    
      <path d="M 536 719 Q 515 719 515 715 Q 515 712 554 663 Q 588 623 614 613 C 640 602 640 602 645 619 Q 647 622 647 631 Q 647 662 636 682 Q 620 702 595 712 Q 564 719 536 719 Z" fill="lightgray"></path>
    
      <path d="M 614 613 Q 520 593 447 582 Q 435 579 435 570 Q 435 565 454 562 Q 476 555 496 555 Q 524 555 674 581 L 716 590 Q 749 596 787 603 Q 800 607 800 622 Q 800 642 764 643 Q 741 643 712 635 Q 679 627 645 619 L 614 613 Z" fill="lightgray"></path>
    
      <path d="M 475 543 Q 471 543 471 538 Q 471 535 486 513 Q 527 450 552 450 Q 571 450 571 490 Q 571 510 532 525 Q 486 543 475 543 Z" fill="lightgray"></path>
    
      <path d="M 674 581 Q 680 568 680 551 Q 680 532 647 459 C 635 432 663 442 683 465 Q 738 528 752 540 Q 764 549 764 551 Q 764 561 730 581 Q 723 586 716 590 C 690 605 663 609 674 581 Z" fill="lightgray"></path>
    
      <path d="M 647 459 Q 602 451 536 440 Q 451 425 403 419 Q 391 416 391 410 Q 392 406 415 391 Q 433 379 447 379 Q 455 379 477 386 Q 539 402 615 412 Q 687 423 748 423 L 788 422 Q 838 419 859 419 Q 890 420 892 434 Q 889 450 860 467 Q 833 482 811 482 Q 802 482 786 479 Q 759 475 730 472 Q 716 470 683 465 L 647 459 Z" fill="lightgray"></path>
    
      <path d="M 435 339 Q 424 339 424 326 Q 425 324 434 313 Q 454 295 497 143 Q 509 106 523 106 Q 535 106 536 129 L 532 156 L 523 222 L 520 240 L 515 278 Q 513 290 509 300 C 501 322 501 322 486 328 Q 464 338 435 339 Z" fill="lightgray"></path>
    
      <path d="M 711 145 Q 719 131 731 131 Q 748 131 788 243 Q 807 296 823 306 Q 840 316 840 322 Q 840 335 797 359 Q 761 379 735 379 Q 729 379 715 372 Q 690 361 664 358 L 486 328 C 456 323 479 296 509 300 Q 523 301 597 317 Q 677 331 708 331 Q 735 331 735 306 Q 735 291 731 270 L 725 243 Q 721 226 714 207 Q 708 190 706 180 C 700 157 700 157 711 145 Z" fill="lightgray"></path>
    
      <path d="M 523 222 Q 535 219 548 219 Q 571 219 725 243 C 755 248 760 261 731 270 Q 724 273 708 274 Q 693 274 675 270 Q 584 250 520 240 C 490 235 494 228 523 222 Z" fill="lightgray"></path>
    
      <path d="M 536 129 Q 539 127 544 127 L 573 130 Q 601 133 631 136 L 667 140 Q 688 142 711 145 C 741 149 736 175 706 180 Q 697 182 687 182 Q 680 182 532 156 C 502 151 507 138 536 129 Z" fill="lightgray"></path>
    
      <path d="M 544 127 L 544 123 Q 544 88 516 55 Q 490 16 428 -36 Q 377 -78 330 -96 Q 299 -110 299 -114 Q 299 -117 324 -118 Q 356 -116 409 -92 Q 473 -66 590 58 Q 611 82 611 87 Q 611 97 587 120 Q 580 126 573 130 C 548 147 545 149 544 127 Z" fill="lightgray"></path>
    
      <path d="M 631 136 Q 640 103 640 91 L 640 18 Q 640 -54 670 -82 Q 713 -125 793 -125 Q 883 -125 942 -91 Q 987 -68 987 -37 Q 987 -32 978 -18 Q 966 10 955 53 Q 945 87 939 87 Q 936 87 934 70 Q 925 3 909 -23 Q 902 -37 877 -47 Q 846 -62 793 -62 Q 739 -62 712 -43 Q 687 -22 687 18 Q 687 66 695 91 Q 699 100 699 102 Q 699 117 676 134 Q 672 137 667 140 C 643 158 624 165 631 136 Z" fill="lightgray"></path>
    
    
      <clipPath id="make-me-a-hanzi-clip-0">
        <path d="M 231 746 Q 215 746 215 734 Q 215 732 217 724 Q 223 710 223 698 Q 215 639 173 532 Q 122 419 63 352 Q 32 314 32 310 Q 32 306 43 306 Q 67 306 113 352 L 127 367 Q 137 378 150 393 Q 186 437 221 503 L 239 538 Q 255 572 271 613 Q 291 658 303 681 Q 311 695 311 702 Q 311 715 276 732 Q 250 746 231 746 Z"></path>
      </clipPath>
      <path clip-path="url(#make-me-a-hanzi-clip-0)" d="M 228 734 L 264 693 L 215 556 L 165 456 L 122 393 L 81 345 L 38 310" fill="none" id="make-me-a-hanzi-animation-0" stroke-dasharray="635 1270" stroke-linecap="round"></path>
    
      <clipPath id="make-me-a-hanzi-clip-1">
        <path d="M 221 503 Q 239 499 256 499 Q 273 499 387 522 Q 403 528 403 547 Q 403 569 359 570 Q 348 570 333 565 Q 281 549 239 538 C 210 530 192 509 221 503 Z"></path>
      </clipPath>
      <path clip-path="url(#make-me-a-hanzi-clip-1)" d="M 228 507 L 257 521 L 385 547" fill="none" id="make-me-a-hanzi-animation-1" stroke-dasharray="291 582" stroke-linecap="round"></path>
    
      <clipPath id="make-me-a-hanzi-clip-2">
        <path d="M 113 352 Q 113 349 129 346 Q 152 339 171 339 Q 178 339 199 342 L 239 350 Q 281 358 351 375 Q 364 380 364 394 Q 364 414 328 415 Q 313 415 294 408 Q 195 380 127 367 C 98 361 97 361 113 352 Z"></path>
      </clipPath>
      <path clip-path="url(#make-me-a-hanzi-clip-2)" d="M 118 354 L 188 359 L 345 394" fill="none" id="make-me-a-hanzi-animation-2" stroke-dasharray="359 718" stroke-linecap="round"></path>
    
      <clipPath id="make-me-a-hanzi-clip-3">
        <path d="M 212 223 Q 164 213 95 203 Q 84 201 84 194 Q 84 187 105 179 Q 130 171 152 171 Q 164 171 184 176 Q 195 178 212 181 L 258 190 Q 284 195 319 203 Q 343 206 370 216 Q 383 222 384 234 Q 381 254 319 255 Q 310 255 290 246 Q 278 240 259 235 L 212 223 Z"></path>
      </clipPath>
      <path clip-path="url(#make-me-a-hanzi-clip-3)" d="M 93 195 L 163 192 L 318 229 L 372 233" fill="none" id="make-me-a-hanzi-animation-3" stroke-dasharray="412 824" stroke-linecap="round"></path>
    
      <clipPath id="make-me-a-hanzi-clip-4">
        <path d="M 199 342 Q 200 339 201 335 Q 212 309 212 255 L 212 223 L 212 181 Q 210 47 199 22 Q 193 5 166 -18 Q 152 -32 152 -41 Q 152 -44 160 -63 Q 176 -102 191 -102 Q 201 -102 230 -56 Q 273 -7 332 57 Q 372 99 372 110 Q 372 119 364 119 Q 360 119 289 63 Q 270 47 248 27 Q 249 36 250 46 Q 256 99 258 190 L 259 235 L 259 255 Q 259 281 261 295 Q 263 310 263 314 Q 263 329 244 346 Q 243 347 239 350 C 217 371 190 371 199 342 Z"></path>
      </clipPath>
      <path clip-path="url(#make-me-a-hanzi-clip-4)" d="M 206 340 L 232 322 L 236 304 L 236 182 L 226 34 L 254 31 L 267 16 L 226 -7 L 197 -39 L 190 -92" fill="none" id="make-me-a-hanzi-animation-4" stroke-dasharray="640 1280" stroke-linecap="round"></path>
    
      <clipPath id="make-me-a-hanzi-clip-5">
        <path d="M 536 719 Q 515 719 515 715 Q 515 712 554 663 Q 588 623 614 613 C 640 602 640 602 645 619 Q 647 622 647 631 Q 647 662 636 682 Q 620 702 595 712 Q 564 719 536 719 Z"></path>
      </clipPath>
      <path clip-path="url(#make-me-a-hanzi-clip-5)" d="M 519 715 L 593 673 L 635 627" fill="none" id="make-me-a-hanzi-animation-5" stroke-dasharray="275 550" stroke-linecap="round"></path>
    
      <clipPath id="make-me-a-hanzi-clip-6">
        <path d="M 614 613 Q 520 593 447 582 Q 435 579 435 570 Q 435 565 454 562 Q 476 555 496 555 Q 524 555 674 581 L 716 590 Q 749 596 787 603 Q 800 607 800 622 Q 800 642 764 643 Q 741 643 712 635 Q 679 627 645 619 L 614 613 Z"></path>
      </clipPath>
      <path clip-path="url(#make-me-a-hanzi-clip-6)" d="M 441 572 L 521 575 L 737 618 L 782 620" fill="none" id="make-me-a-hanzi-animation-6" stroke-dasharray="473 946" stroke-linecap="round"></path>
    
      <clipPath id="make-me-a-hanzi-clip-7">
        <path d="M 475 543 Q 471 543 471 538 Q 471 535 486 513 Q 527 450 552 450 Q 571 450 571 490 Q 571 510 532 525 Q 486 543 475 543 Z"></path>
      </clipPath>
      <path clip-path="url(#make-me-a-hanzi-clip-7)" d="M 478 537 L 539 490 L 551 467" fill="none" id="make-me-a-hanzi-animation-7" stroke-dasharray="231 462" stroke-linecap="round"></path>
    
      <clipPath id="make-me-a-hanzi-clip-8">
        <path d="M 674 581 Q 680 568 680 551 Q 680 532 647 459 C 635 432 663 442 683 465 Q 738 528 752 540 Q 764 549 764 551 Q 764 561 730 581 Q 723 586 716 590 C 690 605 663 609 674 581 Z"></path>
      </clipPath>
      <path clip-path="url(#make-me-a-hanzi-clip-8)" d="M 758 553 L 714 551 L 678 484 L 664 471 L 652 469" fill="none" id="make-me-a-hanzi-animation-8" stroke-dasharray="279 558" stroke-linecap="round"></path>
    
      <clipPath id="make-me-a-hanzi-clip-9">
        <path d="M 647 459 Q 602 451 536 440 Q 451 425 403 419 Q 391 416 391 410 Q 392 406 415 391 Q 433 379 447 379 Q 455 379 477 386 Q 539 402 615 412 Q 687 423 748 423 L 788 422 Q 838 419 859 419 Q 890 420 892 434 Q 889 450 860 467 Q 833 482 811 482 Q 802 482 786 479 Q 759 475 730 472 Q 716 470 683 465 L 647 459 Z"></path>
      </clipPath>
      <path clip-path="url(#make-me-a-hanzi-clip-9)" d="M 399 411 L 445 402 L 645 438 L 808 452 L 881 435" fill="none" id="make-me-a-hanzi-animation-9" stroke-dasharray="617 1234" stroke-linecap="round"></path>
    
      <clipPath id="make-me-a-hanzi-clip-10">
        <path d="M 435 339 Q 424 339 424 326 Q 425 324 434 313 Q 454 295 497 143 Q 509 106 523 106 Q 535 106 536 129 L 532 156 L 523 222 L 520 240 L 515 278 Q 513 290 509 300 C 501 322 501 322 486 328 Q 464 338 435 339 Z"></path>
      </clipPath>
      <path clip-path="url(#make-me-a-hanzi-clip-10)" d="M 433 329 L 470 306 L 483 285 L 523 117" fill="none" id="make-me-a-hanzi-animation-10" stroke-dasharray="369 738" stroke-linecap="round"></path>
    
      <clipPath id="make-me-a-hanzi-clip-11">
        <path d="M 711 145 Q 719 131 731 131 Q 748 131 788 243 Q 807 296 823 306 Q 840 316 840 322 Q 840 335 797 359 Q 761 379 735 379 Q 729 379 715 372 Q 690 361 664 358 L 486 328 C 456 323 479 296 509 300 Q 523 301 597 317 Q 677 331 708 331 Q 735 331 735 306 Q 735 291 731 270 L 725 243 Q 721 226 714 207 Q 708 190 706 180 C 700 157 700 157 711 145 Z"></path>
      </clipPath>
      <path clip-path="url(#make-me-a-hanzi-clip-11)" d="M 494 327 L 518 317 L 731 352 L 763 337 L 777 320 L 757 240 L 734 178 L 729 143" fill="none" id="make-me-a-hanzi-animation-11" stroke-dasharray="611 1222" stroke-linecap="round"></path>
    
      <clipPath id="make-me-a-hanzi-clip-12">
        <path d="M 523 222 Q 535 219 548 219 Q 571 219 725 243 C 755 248 760 261 731 270 Q 724 273 708 274 Q 693 274 675 270 Q 584 250 520 240 C 490 235 494 228 523 222 Z"></path>
      </clipPath>
      <path clip-path="url(#make-me-a-hanzi-clip-12)" d="M 527 237 L 533 231 L 562 233 L 709 255 L 725 264" fill="none" id="make-me-a-hanzi-animation-12" stroke-dasharray="333 666" stroke-linecap="round"></path>
    
      <clipPath id="make-me-a-hanzi-clip-13">
        <path d="M 536 129 Q 539 127 544 127 L 573 130 Q 601 133 631 136 L 667 140 Q 688 142 711 145 C 741 149 736 175 706 180 Q 697 182 687 182 Q 680 182 532 156 C 502 151 507 138 536 129 Z"></path>
      </clipPath>
      <path clip-path="url(#make-me-a-hanzi-clip-13)" d="M 542 137 L 575 149 L 689 162 L 703 150" fill="none" id="make-me-a-hanzi-animation-13" stroke-dasharray="296 592" stroke-linecap="round"></path>
    
      <clipPath id="make-me-a-hanzi-clip-14">
        <path d="M 544 127 L 544 123 Q 544 88 516 55 Q 490 16 428 -36 Q 377 -78 330 -96 Q 299 -110 299 -114 Q 299 -117 324 -118 Q 356 -116 409 -92 Q 473 -66 590 58 Q 611 82 611 87 Q 611 97 587 120 Q 580 126 573 130 C 548 147 545 149 544 127 Z"></path>
      </clipPath>
      <path clip-path="url(#make-me-a-hanzi-clip-14)" d="M 552 125 L 568 103 L 571 86 L 549 52 L 497 -4 L 441 -52 L 393 -82 L 315 -114 L 303 -114" fill="none" id="make-me-a-hanzi-animation-14" stroke-dasharray="516 1032" stroke-linecap="round"></path>
    
      <clipPath id="make-me-a-hanzi-clip-15">
        <path d="M 631 136 Q 640 103 640 91 L 640 18 Q 640 -54 670 -82 Q 713 -125 793 -125 Q 883 -125 942 -91 Q 987 -68 987 -37 Q 987 -32 978 -18 Q 966 10 955 53 Q 945 87 939 87 Q 936 87 934 70 Q 925 3 909 -23 Q 902 -37 877 -47 Q 846 -62 793 -62 Q 739 -62 712 -43 Q 687 -22 687 18 Q 687 66 695 91 Q 699 100 699 102 Q 699 117 676 134 Q 672 137 667 140 C 643 158 624 165 631 136 Z"></path>
      </clipPath>
      <path clip-path="url(#make-me-a-hanzi-clip-15)" d="M 638 127 L 661 114 L 668 99 L 664 9 L 677 -45 L 694 -66 L 712 -77 L 770 -93 L 861 -87 L 910 -70 L 940 -47 L 945 -37 L 945 8 L 940 83" fill="none" id="make-me-a-hanzi-animation-15" stroke-dasharray="737 1474" stroke-linecap="round"></path>
    
  </g>
</svg>