<svg version="1.1" viewBox="0 0 1024 1024" xmlns="http://www.w3.org/2000/svg">
  <g stroke="lightgray" stroke-dasharray="1,1" stroke-width="1" transform="scale(4, 4)">
    <line x1="0" y1="0" x2="256" y2="256"></line>
    <line x1="256" y1="0" x2="0" y2="256"></line>
    <line x1="128" y1="0" x2="128" y2="256"></line>
    <line x1="0" y1="128" x2="256" y2="128"></line>
  </g>
  <g transform="scale(0.92, -0.92) translate(60, -830)">
    <style type="text/css">
      
        @keyframes keyframes0 {
          from {
            stroke: blue;
            stroke-dashoffset: 963;
            stroke-width: 128;
          }
          76% {
            animation-timing-function: step-end;
            stroke: blue;
            stroke-dashoffset: 0;
            stroke-width: 128;
          }
          to {
            stroke: black;
            stroke-width: 1024;
          }
        }
        #make-me-a-hanzi-animation-0 {
          animation: keyframes0 1.03369140625s both;
          animation-delay: 0s;
          animation-timing-function: linear;
        }
      
        @keyframes keyframes1 {
          from {
            stroke: blue;
            stroke-dashoffset: 709;
            stroke-width: 128;
          }
          70% {
            animation-timing-function: step-end;
            stroke: blue;
            stroke-dashoffset: 0;
            stroke-width: 128;
          }
          to {
            stroke: black;
            stroke-width: 1024;
          }
        }
        #make-me-a-hanzi-animation-1 {
          animation: keyframes1 0.8269856770833334s both;
          animation-delay: 1.03369140625s;
          animation-timing-function: linear;
        }
      
        @keyframes keyframes2 {
          from {
            stroke: blue;
            stroke-dashoffset: 384;
            stroke-width: 128;
          }
          56% {
            animation-timing-function: step-end;
            stroke: blue;
            stroke-dashoffset: 0;
            stroke-width: 128;
          }
          to {
            stroke: black;
            stroke-width: 1024;
          }
        }
        #make-me-a-hanzi-animation-2 {
          animation: keyframes2 0.5625s both;
          animation-delay: 1.8606770833333335s;
          animation-timing-function: linear;
        }
      
        @keyframes keyframes3 {
          from {
            stroke: blue;
            stroke-dashoffset: 377;
            stroke-width: 128;
          }
          55% {
            animation-timing-function: step-end;
            stroke: blue;
            stroke-dashoffset: 0;
            stroke-width: 128;
          }
          to {
            stroke: black;
            stroke-width: 1024;
          }
        }
        #make-me-a-hanzi-animation-3 {
          animation: keyframes3 0.5568033854166666s both;
          animation-delay: 2.4231770833333335s;
          animation-timing-function: linear;
        }
      
        @keyframes keyframes4 {
          from {
            stroke: blue;
            stroke-dashoffset: 544;
            stroke-width: 128;
          }
          64% {
            animation-timing-function: step-end;
            stroke: blue;
            stroke-dashoffset: 0;
            stroke-width: 128;
          }
          to {
            stroke: black;
            stroke-width: 1024;
          }
        }
        #make-me-a-hanzi-animation-4 {
          animation: keyframes4 0.6927083333333334s both;
          animation-delay: 2.97998046875s;
          animation-timing-function: linear;
        }
      
        @keyframes keyframes5 {
          from {
            stroke: blue;
            stroke-dashoffset: 1332;
            stroke-width: 128;
          }
          81% {
            animation-timing-function: step-end;
            stroke: blue;
            stroke-dashoffset: 0;
            stroke-width: 128;
          }
          to {
            stroke: black;
            stroke-width: 1024;
          }
        }
        #make-me-a-hanzi-animation-5 {
          animation: keyframes5 1.333984375s both;
          animation-delay: 3.6726888020833335s;
          animation-timing-function: linear;
        }
      
        @keyframes keyframes6 {
          from {
            stroke: blue;
            stroke-dashoffset: 402;
            stroke-width: 128;
          }
          57% {
            animation-timing-function: step-end;
            stroke: blue;
            stroke-dashoffset: 0;
            stroke-width: 128;
          }
          to {
            stroke: black;
            stroke-width: 1024;
          }
        }
        #make-me-a-hanzi-animation-6 {
          animation: keyframes6 0.5771484375s both;
          animation-delay: 5.006673177083334s;
          animation-timing-function: linear;
        }
      
        @keyframes keyframes7 {
          from {
            stroke: blue;
            stroke-dashoffset: 423;
            stroke-width: 128;
          }
          58% {
            animation-timing-function: step-end;
            stroke: blue;
            stroke-dashoffset: 0;
            stroke-width: 128;
          }
          to {
            stroke: black;
            stroke-width: 1024;
          }
        }
        #make-me-a-hanzi-animation-7 {
          animation: keyframes7 0.59423828125s both;
          animation-delay: 5.583821614583334s;
          animation-timing-function: linear;
        }
      
        @keyframes keyframes8 {
          from {
            stroke: blue;
            stroke-dashoffset: 588;
            stroke-width: 128;
          }
          66% {
            animation-timing-function: step-end;
            stroke: blue;
            stroke-dashoffset: 0;
            stroke-width: 128;
          }
          to {
            stroke: black;
            stroke-width: 1024;
          }
        }
        #make-me-a-hanzi-animation-8 {
          animation: keyframes8 0.728515625s both;
          animation-delay: 6.178059895833334s;
          animation-timing-function: linear;
        }
      
        @keyframes keyframes9 {
          from {
            stroke: blue;
            stroke-dashoffset: 693;
            stroke-width: 128;
          }
          69% {
            animation-timing-function: step-end;
            stroke: blue;
            stroke-dashoffset: 0;
            stroke-width: 128;
          }
          to {
            stroke: black;
            stroke-width: 1024;
          }
        }
        #make-me-a-hanzi-animation-9 {
          animation: keyframes9 0.81396484375s both;
          animation-delay: 6.906575520833334s;
          animation-timing-function: linear;
        }
      
        @keyframes keyframes10 {
          from {
            stroke: blue;
            stroke-dashoffset: 571;
            stroke-width: 128;
          }
          65% {
            animation-timing-function: step-end;
            stroke: blue;
            stroke-dashoffset: 0;
            stroke-width: 128;
          }
          to {
            stroke: black;
            stroke-width: 1024;
          }
        }
        #make-me-a-hanzi-animation-10 {
          animation: keyframes10 0.7146809895833334s both;
          animation-delay: 7.720540364583334s;
          animation-timing-function: linear;
        }
      
        @keyframes keyframes11 {
          from {
            stroke: blue;
            stroke-dashoffset: 621;
            stroke-width: 128;
          }
          67% {
            animation-timing-function: step-end;
            stroke: blue;
            stroke-dashoffset: 0;
            stroke-width: 128;
          }
          to {
            stroke: black;
            stroke-width: 1024;
          }
        }
        #make-me-a-hanzi-animation-11 {
          animation: keyframes11 0.75537109375s both;
          animation-delay: 8.435221354166668s;
          animation-timing-function: linear;
        }
      
    </style>
    
      <path d="M 230 635 L 214 640 L 200 642 Q 194 643 190 643 Q 185 643 182 642 Q 176 640 174 635 L 174 632 Q 174 628 178 621 Q 184 611 188 603 Q 192 596 196 576 Q 200 556 200 522 L 196 355 Q 194 292 190 241 Q 186 190 180 161 Q 176 132 166 101 Q 159 70 152 53 Q 146 37 144 32 Q 143 26 143 18 Q 143 11 144 3 Q 148 -13 154 -26 Q 158 -40 168 -53 Q 178 -66 185 -66 Q 192 -66 198 -60 Q 204 -52 208 -36 Q 214 -20 216 -9 Q 218 3 220 16 L 224 78 L 232 186 L 242 355 L 242 388 L 246 482 L 248 510 L 252 610 C 253 629 253 629 230 635 Z" fill="lightgray"></path>
    
      <path d="M 362 377 L 370 364 Q 372 357 380 356 L 382 356 Q 388 356 394 364 Q 402 373 406 388 Q 410 404 414 422 L 432 536 Q 435 558 442 581 Q 448 604 456 614 Q 462 624 462 628 Q 462 632 458 640 Q 452 648 434 658 Q 414 669 402 674 Q 392 678 385 678 L 382 678 Q 378 678 362 671 Q 348 664 320 657 Q 292 649 272 644 Q 252 640 230 635 C 201 628 223 605 252 610 L 354 629 Q 362 630 367 630 Q 374 630 376 628 Q 381 624 382 614 Q 383 609 383 603 Q 383 596 382 588 L 378 526 L 376 500 L 364 412 C 360 382 360 381 362 377 Z" fill="lightgray"></path>
    
      <path d="M 246 482 L 262 484 Q 277 484 302 488 L 376 500 C 406 505 407 518 378 526 L 360 531 Q 350 534 341 534 L 336 534 Q 326 534 308 527 Q 289 520 270 516 L 248 510 C 219 502 216 478 246 482 Z" fill="lightgray"></path>
    
      <path d="M 242 355 L 264 357 Q 272 358 300 364 L 362 377 C 391 383 393 406 364 412 L 350 415 Q 349 416 346 416 Q 343 416 338 415 Q 332 414 310 406 Q 290 399 272 396 L 242 388 C 213 380 212 352 242 355 Z" fill="lightgray"></path>
    
      <path d="M 634 664 L 620 669 L 598 675 Q 593 677 589 677 Q 586 677 584 676 Q 578 674 576 670 Q 576 666 582 656 Q 586 648 590 638 Q 594 630 598 615 Q 601 600 602 570 L 606 491 Q 606 482 604 465 Q 603 448 602 440 Q 600 431 600 429 Q 600 420 604 408 Q 608 396 616 388 Q 621 383 625 383 L 626 383 Q 632 383 636 392 L 642 403 L 646 438 L 648 524 L 648 555 L 646 637 C 645 660 645 660 634 664 Z" fill="lightgray"></path>
    
      <path d="M 808 425 L 800 43 L 798 1 Q 796 -18 796 -26 Q 794 -35 788 -40 Q 784 -44 776 -45 Q 770 -45 748 -38 L 694 -23 Q 691 -22 690 -22 Q 685 -22 684 -26 L 684 -29 Q 684 -33 688 -37 L 724 -70 Q 746 -91 764 -110 Q 780 -130 788 -136 Q 794 -142 800 -142 L 802 -142 Q 807 -142 818 -135 Q 829 -126 842 -102 Q 854 -77 860 -49 Q 864 -24 864 35 Q 862 94 862 126 L 860 536 L 860 551 Q 860 573 864 592 Q 868 617 872 627 L 882 644 Q 884 650 884 656 Q 884 661 874 670 Q 862 680 846 689 Q 830 698 820 702 Q 810 706 804 706 Q 800 706 788 700 Q 777 695 760 690 Q 742 685 722 680 Q 700 674 682 671 Q 663 668 634 664 C 604 660 616 633 646 637 L 752 652 Q 766 654 776 654 Q 783 654 788 653 Q 796 650 801 643 Q 806 636 806 624 L 806 564 L 806 548 L 808 463 L 808 425 Z" fill="lightgray"></path>
    
      <path d="M 648 524 L 660 522 L 664 522 Q 670 522 680 524 Q 695 526 714 529 L 772 538 Q 786 540 792 542 Q 798 544 806 548 C 824 556 824 556 806 564 L 792 570 Q 774 576 762 576 L 756 576 Q 750 576 740 574 Q 730 571 710 566 Q 688 562 670 559 L 648 555 C 618 550 618 529 648 524 Z" fill="lightgray"></path>
    
      <path d="M 642 403 L 674 405 Q 678 405 702 409 L 808 425 C 838 429 837 454 808 463 L 798 466 Q 793 467 786 467 L 780 467 Q 778 466 768 464 Q 759 460 736 456 L 678 444 L 646 438 C 617 432 612 401 642 403 Z" fill="lightgray"></path>
    
      <path d="M 586 288 L 608 291 L 642 296 L 660 298 Q 672 300 678 304 Q 682 308 682 312 Q 680 316 674 320 Q 666 324 660 327 Q 652 330 642 333 Q 631 336 624 336 Q 622 336 613 333 Q 604 330 590 328 Q 578 325 560 322 Q 542 318 528 317 Q 514 315 456 308 L 404 302 Q 380 300 366 299 L 352 298 Q 344 298 340 292 Q 339 291 339 290 Q 339 285 354 279 Q 372 272 380 271 Q 388 270 396 270 L 446 276 L 472 277 L 498 278 Q 511 279 518 280 Q 526 280 548 284 L 586 288 Z" fill="lightgray"></path>
    
      <path d="M 448 151 L 466 153 Q 537 160 540 161 Q 545 162 558 162 L 606 164 L 638 165 Q 643 165 680 164 L 704 162 L 713 162 Q 729 162 734 165 Q 740 170 742 174 Q 742 180 734 186 Q 728 192 720 198 Q 712 203 700 208 Q 686 213 678 213 Q 672 212 656 210 Q 641 206 632 205 Q 623 204 610 202 L 560 198 L 540 196 Q 533 195 508 192 Q 482 190 476 189 Q 470 188 452 186 L 404 180 L 362 176 L 320 172 L 302 171 Q 294 170 292 166 L 292 164 Q 292 161 296 156 Q 301 150 314 143 Q 326 137 334 134 Q 340 132 347 132 L 352 132 Q 356 132 366 135 L 384 140 Q 391 142 400 144 L 448 151 Z" fill="lightgray"></path>
    
      <path d="M 396 270 L 402 256 Q 404 248 406 232 L 406 205 Q 406 194 404 180 L 400 144 L 396 128 Q 394 112 384 86 Q 374 58 364 43 Q 354 28 346 19 L 334 5 Q 329 -1 329 -5 Q 329 -7 330 -8 Q 331 -10 333 -10 Q 336 -10 342 -6 L 362 7 Q 396 29 412 56 Q 426 82 432 98 Q 439 114 442 124 Q 444 134 448 151 L 452 186 L 454 205 Q 454 214 456 222 Q 456 232 458 236 Q 460 240 462 246 Q 465 251 466 254 Q 466 259 460 264 Q 454 270 446 276 C 423 295 384 298 396 270 Z" fill="lightgray"></path>
    
      <path d="M 558 162 L 554 4 Q 554 -22 556 -40 Q 558 -58 561 -69 Q 564 -80 570 -80 Q 574 -80 580 -74 Q 584 -66 588 -55 Q 590 -43 594 -26 Q 596 -8 598 14 L 606 164 L 610 202 L 610 224 Q 610 236 614 248 Q 618 259 618 264 Q 618 268 612 274 Q 606 279 600 282 Q 594 284 586 288 C 559 300 542 308 548 284 L 552 268 Q 555 262 556 240 Q 560 218 560 213 L 560 198 L 558 162 Z" fill="lightgray"></path>
    
    
      <clipPath id="make-me-a-hanzi-clip-0">
        <path d="M 230 635 L 214 640 L 200 642 Q 194 643 190 643 Q 185 643 182 642 Q 176 640 174 635 L 174 632 Q 174 628 178 621 Q 184 611 188 603 Q 192 596 196 576 Q 200 556 200 522 L 196 355 Q 194 292 190 241 Q 186 190 180 161 Q 176 132 166 101 Q 159 70 152 53 Q 146 37 144 32 Q 143 26 143 18 Q 143 11 144 3 Q 148 -13 154 -26 Q 158 -40 168 -53 Q 178 -66 185 -66 Q 192 -66 198 -60 Q 204 -52 208 -36 Q 214 -20 216 -9 Q 218 3 220 16 L 224 78 L 232 186 L 242 355 L 242 388 L 246 482 L 248 510 L 252 610 C 253 629 253 629 230 635 Z"></path>
      </clipPath>
      <path clip-path="url(#make-me-a-hanzi-clip-0)" d="M 182 634 L 211 615 L 221 599 L 225 518 L 210 195 L 181 13 L 186 -52" fill="none" id="make-me-a-hanzi-animation-0" stroke-dasharray="835 1670" stroke-linecap="round"></path>
    
      <clipPath id="make-me-a-hanzi-clip-1">
        <path d="M 362 377 L 370 364 Q 372 357 380 356 L 382 356 Q 388 356 394 364 Q 402 373 406 388 Q 410 404 414 422 L 432 536 Q 435 558 442 581 Q 448 604 456 614 Q 462 624 462 628 Q 462 632 458 640 Q 452 648 434 658 Q 414 669 402 674 Q 392 678 385 678 L 382 678 Q 378 678 362 671 Q 348 664 320 657 Q 292 649 272 644 Q 252 640 230 635 C 201 628 223 605 252 610 L 354 629 Q 362 630 367 630 Q 374 630 376 628 Q 381 624 382 614 Q 383 609 383 603 Q 383 596 382 588 L 378 526 L 376 500 L 364 412 C 360 382 360 381 362 377 Z"></path>
      </clipPath>
      <path clip-path="url(#make-me-a-hanzi-clip-1)" d="M 238 634 L 258 626 L 384 652 L 418 624 L 381 368" fill="none" id="make-me-a-hanzi-animation-1" stroke-dasharray="581 1162" stroke-linecap="round"></path>
    
      <clipPath id="make-me-a-hanzi-clip-2">
        <path d="M 246 482 L 262 484 Q 277 484 302 488 L 376 500 C 406 505 407 518 378 526 L 360 531 Q 350 534 341 534 L 336 534 Q 326 534 308 527 Q 289 520 270 516 L 248 510 C 219 502 216 478 246 482 Z"></path>
      </clipPath>
      <path clip-path="url(#make-me-a-hanzi-clip-2)" d="M 249 489 L 261 499 L 371 520" fill="none" id="make-me-a-hanzi-animation-2" stroke-dasharray="256 512" stroke-linecap="round"></path>
    
      <clipPath id="make-me-a-hanzi-clip-3">
        <path d="M 242 355 L 264 357 Q 272 358 300 364 L 362 377 C 391 383 393 406 364 412 L 350 415 Q 349 416 346 416 Q 343 416 338 415 Q 332 414 310 406 Q 290 399 272 396 L 242 388 C 213 380 212 352 242 355 Z"></path>
      </clipPath>
      <path clip-path="url(#make-me-a-hanzi-clip-3)" d="M 247 361 L 257 372 L 335 392 L 356 407" fill="none" id="make-me-a-hanzi-animation-3" stroke-dasharray="249 498" stroke-linecap="round"></path>
    
      <clipPath id="make-me-a-hanzi-clip-4">
        <path d="M 634 664 L 620 669 L 598 675 Q 593 677 589 677 Q 586 677 584 676 Q 578 674 576 670 Q 576 666 582 656 Q 586 648 590 638 Q 594 630 598 615 Q 601 600 602 570 L 606 491 Q 606 482 604 465 Q 603 448 602 440 Q 600 431 600 429 Q 600 420 604 408 Q 608 396 616 388 Q 621 383 625 383 L 626 383 Q 632 383 636 392 L 642 403 L 646 438 L 648 524 L 648 555 L 646 637 C 645 660 645 660 634 664 Z"></path>
      </clipPath>
      <path clip-path="url(#make-me-a-hanzi-clip-4)" d="M 585 666 L 609 650 L 620 629 L 626 394" fill="none" id="make-me-a-hanzi-animation-4" stroke-dasharray="416 832" stroke-linecap="round"></path>
    
      <clipPath id="make-me-a-hanzi-clip-5">
        <path d="M 808 425 L 800 43 L 798 1 Q 796 -18 796 -26 Q 794 -35 788 -40 Q 784 -44 776 -45 Q 770 -45 748 -38 L 694 -23 Q 691 -22 690 -22 Q 685 -22 684 -26 L 684 -29 Q 684 -33 688 -37 L 724 -70 Q 746 -91 764 -110 Q 780 -130 788 -136 Q 794 -142 800 -142 L 802 -142 Q 807 -142 818 -135 Q 829 -126 842 -102 Q 854 -77 860 -49 Q 864 -24 864 35 Q 862 94 862 126 L 860 536 L 860 551 Q 860 573 864 592 Q 868 617 872 627 L 882 644 Q 884 650 884 656 Q 884 661 874 670 Q 862 680 846 689 Q 830 698 820 702 Q 810 706 804 706 Q 800 706 788 700 Q 777 695 760 690 Q 742 685 722 680 Q 700 674 682 671 Q 663 668 634 664 C 604 660 616 633 646 637 L 752 652 Q 766 654 776 654 Q 783 654 788 653 Q 796 650 801 643 Q 806 636 806 624 L 806 564 L 806 548 L 808 463 L 808 425 Z"></path>
      </clipPath>
      <path clip-path="url(#make-me-a-hanzi-clip-5)" d="M 642 659 L 668 654 L 790 677 L 814 673 L 840 648 L 833 572 L 829 -31 L 819 -61 L 799 -83 L 757 -68 L 689 -27" fill="none" id="make-me-a-hanzi-animation-5" stroke-dasharray="1204 2408" stroke-linecap="round"></path>
    
      <clipPath id="make-me-a-hanzi-clip-6">
        <path d="M 648 524 L 660 522 L 664 522 Q 670 522 680 524 Q 695 526 714 529 L 772 538 Q 786 540 792 542 Q 798 544 806 548 C 824 556 824 556 806 564 L 792 570 Q 774 576 762 576 L 756 576 Q 750 576 740 574 Q 730 571 710 566 Q 688 562 670 559 L 648 555 C 618 550 618 529 648 524 Z"></path>
      </clipPath>
      <path clip-path="url(#make-me-a-hanzi-clip-6)" d="M 655 532 L 666 540 L 739 554 L 780 557 L 796 552" fill="none" id="make-me-a-hanzi-animation-6" stroke-dasharray="274 548" stroke-linecap="round"></path>
    
      <clipPath id="make-me-a-hanzi-clip-7">
        <path d="M 642 403 L 674 405 Q 678 405 702 409 L 808 425 C 838 429 837 454 808 463 L 798 466 Q 793 467 786 467 L 780 467 Q 778 466 768 464 Q 759 460 736 456 L 678 444 L 646 438 C 617 432 612 401 642 403 Z"></path>
      </clipPath>
      <path clip-path="url(#make-me-a-hanzi-clip-7)" d="M 647 408 L 663 423 L 786 444 L 801 457" fill="none" id="make-me-a-hanzi-animation-7" stroke-dasharray="295 590" stroke-linecap="round"></path>
    
      <clipPath id="make-me-a-hanzi-clip-8">
        <path d="M 586 288 L 608 291 L 642 296 L 660 298 Q 672 300 678 304 Q 682 308 682 312 Q 680 316 674 320 Q 666 324 660 327 Q 652 330 642 333 Q 631 336 624 336 Q 622 336 613 333 Q 604 330 590 328 Q 578 325 560 322 Q 542 318 528 317 Q 514 315 456 308 L 404 302 Q 380 300 366 299 L 352 298 Q 344 298 340 292 Q 339 291 339 290 Q 339 285 354 279 Q 372 272 380 271 Q 388 270 396 270 L 446 276 L 472 277 L 498 278 Q 511 279 518 280 Q 526 280 548 284 L 586 288 Z"></path>
      </clipPath>
      <path clip-path="url(#make-me-a-hanzi-clip-8)" d="M 343 289 L 392 285 L 535 299 L 626 315 L 673 311" fill="none" id="make-me-a-hanzi-animation-8" stroke-dasharray="460 920" stroke-linecap="round"></path>
    
      <clipPath id="make-me-a-hanzi-clip-9">
        <path d="M 448 151 L 466 153 Q 537 160 540 161 Q 545 162 558 162 L 606 164 L 638 165 Q 643 165 680 164 L 704 162 L 713 162 Q 729 162 734 165 Q 740 170 742 174 Q 742 180 734 186 Q 728 192 720 198 Q 712 203 700 208 Q 686 213 678 213 Q 672 212 656 210 Q 641 206 632 205 Q 623 204 610 202 L 560 198 L 540 196 Q 533 195 508 192 Q 482 190 476 189 Q 470 188 452 186 L 404 180 L 362 176 L 320 172 L 302 171 Q 294 170 292 166 L 292 164 Q 292 161 296 156 Q 301 150 314 143 Q 326 137 334 134 Q 340 132 347 132 L 352 132 Q 356 132 366 135 L 384 140 Q 391 142 400 144 L 448 151 Z"></path>
      </clipPath>
      <path clip-path="url(#make-me-a-hanzi-clip-9)" d="M 299 165 L 350 153 L 547 180 L 666 188 L 731 176" fill="none" id="make-me-a-hanzi-animation-9" stroke-dasharray="565 1130" stroke-linecap="round"></path>
    
      <clipPath id="make-me-a-hanzi-clip-10">
        <path d="M 396 270 L 402 256 Q 404 248 406 232 L 406 205 Q 406 194 404 180 L 400 144 L 396 128 Q 394 112 384 86 Q 374 58 364 43 Q 354 28 346 19 L 334 5 Q 329 -1 329 -5 Q 329 -7 330 -8 Q 331 -10 333 -10 Q 336 -10 342 -6 L 362 7 Q 396 29 412 56 Q 426 82 432 98 Q 439 114 442 124 Q 444 134 448 151 L 452 186 L 454 205 Q 454 214 456 222 Q 456 232 458 236 Q 460 240 462 246 Q 465 251 466 254 Q 466 259 460 264 Q 454 270 446 276 C 423 295 384 298 396 270 Z"></path>
      </clipPath>
      <path clip-path="url(#make-me-a-hanzi-clip-10)" d="M 403 265 L 432 247 L 427 171 L 416 113 L 388 51 L 334 -5" fill="none" id="make-me-a-hanzi-animation-10" stroke-dasharray="443 886" stroke-linecap="round"></path>
    
      <clipPath id="make-me-a-hanzi-clip-11">
        <path d="M 558 162 L 554 4 Q 554 -22 556 -40 Q 558 -58 561 -69 Q 564 -80 570 -80 Q 574 -80 580 -74 Q 584 -66 588 -55 Q 590 -43 594 -26 Q 596 -8 598 14 L 606 164 L 610 202 L 610 224 Q 610 236 614 248 Q 618 259 618 264 Q 618 268 612 274 Q 606 279 600 282 Q 594 284 586 288 C 559 300 542 308 548 284 L 552 268 Q 555 262 556 240 Q 560 218 560 213 L 560 198 L 558 162 Z"></path>
      </clipPath>
      <path clip-path="url(#make-me-a-hanzi-clip-11)" d="M 555 281 L 585 256 L 571 -70" fill="none" id="make-me-a-hanzi-animation-11" stroke-dasharray="493 986" stroke-linecap="round"></path>
    
  </g>
</svg>