<svg xmlns="http://www.w3.org/2000/svg" version="1.1" viewBox="0 0 1024 1024">
  <g stroke="lightgray" stroke-dasharray="1,1" stroke-width="1" transform="scale(4, 4)">
    <line x1="0" y1="0" x2="256" y2="256" />
    <line x1="256" y1="0" x2="0" y2="256" />
    <line x1="128" y1="0" x2="128" y2="256" />
    <line x1="0" y1="128" x2="256" y2="128" />
  </g>
  <g transform="scale(1.0, -1.0) translate(0.0, -797.00)">
    <style type="text/css">
      
        @keyframes keyframes0 {
          from {
            stroke: blue;
            stroke-dashoffset: 962;
            stroke-width: 128;
          }
          76% {
            animation-timing-function: step-end;
            stroke: blue;
            stroke-dashoffset: 0;
            stroke-width: 128;
          }
          to {
            stroke: black;
            stroke-width: 1024;
          }
        }
        #make-me-a-hanzi-animation-0 {
          animation: keyframes0 1.0328776041666667s both;
          animation-delay: 0s;
          animation-timing-function: linear;
        }
      
        @keyframes keyframes1 {
          from {
            stroke: blue;
            stroke-dashoffset: 684;
            stroke-width: 128;
          }
          69% {
            animation-timing-function: step-end;
            stroke: blue;
            stroke-dashoffset: 0;
            stroke-width: 128;
          }
          to {
            stroke: black;
            stroke-width: 1024;
          }
        }
        #make-me-a-hanzi-animation-1 {
          animation: keyframes1 0.806640625s both;
          animation-delay: 1.0328776041666667s;
          animation-timing-function: linear;
        }
      
        @keyframes keyframes2 {
          from {
            stroke: blue;
            stroke-dashoffset: 375;
            stroke-width: 128;
          }
          55% {
            animation-timing-function: step-end;
            stroke: blue;
            stroke-dashoffset: 0;
            stroke-width: 128;
          }
          to {
            stroke: black;
            stroke-width: 1024;
          }
        }
        #make-me-a-hanzi-animation-2 {
          animation: keyframes2 0.55517578125s both;
          animation-delay: 1.8395182291666667s;
          animation-timing-function: linear;
        }
      
        @keyframes keyframes3 {
          from {
            stroke: blue;
            stroke-dashoffset: 373;
            stroke-width: 128;
          }
          55% {
            animation-timing-function: step-end;
            stroke: blue;
            stroke-dashoffset: 0;
            stroke-width: 128;
          }
          to {
            stroke: black;
            stroke-width: 1024;
          }
        }
        #make-me-a-hanzi-animation-3 {
          animation: keyframes3 0.5535481770833334s both;
          animation-delay: 2.394694010416667s;
          animation-timing-function: linear;
        }
      
        @keyframes keyframes4 {
          from {
            stroke: blue;
            stroke-dashoffset: 548;
            stroke-width: 128;
          }
          64% {
            animation-timing-function: step-end;
            stroke: blue;
            stroke-dashoffset: 0;
            stroke-width: 128;
          }
          to {
            stroke: black;
            stroke-width: 1024;
          }
        }
        #make-me-a-hanzi-animation-4 {
          animation: keyframes4 0.6959635416666666s both;
          animation-delay: 2.9482421875000004s;
          animation-timing-function: linear;
        }
      
        @keyframes keyframes5 {
          from {
            stroke: blue;
            stroke-dashoffset: 1317;
            stroke-width: 128;
          }
          81% {
            animation-timing-function: step-end;
            stroke: blue;
            stroke-dashoffset: 0;
            stroke-width: 128;
          }
          to {
            stroke: black;
            stroke-width: 1024;
          }
        }
        #make-me-a-hanzi-animation-5 {
          animation: keyframes5 1.32177734375s both;
          animation-delay: 3.644205729166667s;
          animation-timing-function: linear;
        }
      
        @keyframes keyframes6 {
          from {
            stroke: blue;
            stroke-dashoffset: 401;
            stroke-width: 128;
          }
          57% {
            animation-timing-function: step-end;
            stroke: blue;
            stroke-dashoffset: 0;
            stroke-width: 128;
          }
          to {
            stroke: black;
            stroke-width: 1024;
          }
        }
        #make-me-a-hanzi-animation-6 {
          animation: keyframes6 0.5763346354166666s both;
          animation-delay: 4.965983072916667s;
          animation-timing-function: linear;
        }
      
        @keyframes keyframes7 {
          from {
            stroke: blue;
            stroke-dashoffset: 413;
            stroke-width: 128;
          }
          57% {
            animation-timing-function: step-end;
            stroke: blue;
            stroke-dashoffset: 0;
            stroke-width: 128;
          }
          to {
            stroke: black;
            stroke-width: 1024;
          }
        }
        #make-me-a-hanzi-animation-7 {
          animation: keyframes7 0.5861002604166666s both;
          animation-delay: 5.542317708333334s;
          animation-timing-function: linear;
        }
      
        @keyframes keyframes8 {
          from {
            stroke: blue;
            stroke-dashoffset: 670;
            stroke-width: 128;
          }
          69% {
            animation-timing-function: step-end;
            stroke: blue;
            stroke-dashoffset: 0;
            stroke-width: 128;
          }
          to {
            stroke: black;
            stroke-width: 1024;
          }
        }
        #make-me-a-hanzi-animation-8 {
          animation: keyframes8 0.7952473958333334s both;
          animation-delay: 6.128417968750001s;
          animation-timing-function: linear;
        }
      
        @keyframes keyframes9 {
          from {
            stroke: blue;
            stroke-dashoffset: 849;
            stroke-width: 128;
          }
          73% {
            animation-timing-function: step-end;
            stroke: blue;
            stroke-dashoffset: 0;
            stroke-width: 128;
          }
          to {
            stroke: black;
            stroke-width: 1024;
          }
        }
        #make-me-a-hanzi-animation-9 {
          animation: keyframes9 0.94091796875s both;
          animation-delay: 6.923665364583334s;
          animation-timing-function: linear;
        }
      
        @keyframes keyframes10 {
          from {
            stroke: blue;
            stroke-dashoffset: 378;
            stroke-width: 128;
          }
          55% {
            animation-timing-function: step-end;
            stroke: blue;
            stroke-dashoffset: 0;
            stroke-width: 128;
          }
          to {
            stroke: black;
            stroke-width: 1024;
          }
        }
        #make-me-a-hanzi-animation-10 {
          animation: keyframes10 0.5576171875s both;
          animation-delay: 7.864583333333334s;
          animation-timing-function: linear;
        }
      
        @keyframes keyframes11 {
          from {
            stroke: blue;
            stroke-dashoffset: 386;
            stroke-width: 128;
          }
          56% {
            animation-timing-function: step-end;
            stroke: blue;
            stroke-dashoffset: 0;
            stroke-width: 128;
          }
          to {
            stroke: black;
            stroke-width: 1024;
          }
        }
        #make-me-a-hanzi-animation-11 {
          animation: keyframes11 0.5641276041666666s both;
          animation-delay: 8.422200520833334s;
          animation-timing-function: linear;
        }
      
    </style>
    
      <path d="M 234 630 L 219 635 Q 217 635 205 638 L 198 638 Q 191 638 187 637 Q 181 635 180 630 L 180 628 Q 180 624 184 616 Q 190 606 193 598 Q 197 590 201 571 Q 205 552 205 509 L 201 346 Q 200 282 196 234 Q 191 186 186 152 Q 181 117 174 92 Q 167 68 160 50 Q 153 32 152 26 Q 151 20 151 13 Q 151 6 152 -2 Q 155 -18 160 -32 Q 165 -46 174 -59 Q 183 -71 191 -71 L 193 -71 Q 198 -71 203 -65 Q 209 -58 213 -44 L 219 -15 Q 223 0 224 12 Q 225 23 228 72 L 235 178 L 245 360 L 245 394 L 249 481 L 250 509 L 254 601 C 255 624 255 624 234 630 Z" fill="lightgray" />
    
      <path d="M 359 383 L 366 370 Q 369 363 376 362 L 379 362 Q 384 362 390 369 Q 397 378 401 394 Q 405 410 408 427 L 425 524 Q 429 547 432 560 Q 435 572 439 583 Q 443 593 449 601 Q 454 609 455 612 Q 455 618 447 627 Q 439 635 427 644 Q 414 652 400 659 Q 387 666 379 666 Q 374 666 363 661 Q 351 656 339 652 Q 327 648 305 643 Q 283 637 271 635 Q 258 632 234 630 C 204 627 225 596 254 601 L 351 619 Q 359 620 364 620 Q 371 620 373 618 Q 377 614 378 606 Q 379 596 379 582 L 373 524 L 371 499 L 361 417 C 357 387 357 386 359 383 Z" fill="lightgray" />
    
      <path d="M 249 481 L 265 482 Q 291 484 303 487 L 371 499 C 401 504 402 517 373 524 L 357 528 Q 347 531 338 531 L 333 531 Q 323 530 304 524 Q 285 517 271 514 L 250 509 C 221 502 219 479 249 481 Z" fill="lightgray" />
    
      <path d="M 245 360 L 266 363 Q 277 364 300 370 L 359 383 C 388 389 390 410 361 417 L 348 420 Q 347 421 344 421 Q 341 421 337 420 Q 329 420 306 411 Q 283 403 274 401 L 245 394 C 216 387 215 356 245 360 Z" fill="lightgray" />
    
      <path d="M 639 676 L 623 681 L 603 687 Q 597 689 593 689 Q 591 689 589 688 Q 583 686 582 682 L 582 681 Q 582 677 586 670 Q 591 663 595 651 Q 599 640 603 626 Q 605 612 607 581 L 610 502 Q 610 490 609 475 Q 609 461 607 451 Q 605 442 605 440 L 605 436 Q 605 428 608 418 Q 612 406 621 398 Q 625 394 631 394 Q 635 394 640 402 L 645 414 L 649 448 L 651 536 L 651 563 L 650 648 C 650 673 650 673 639 676 Z" fill="lightgray" />
    
      <path d="M 805 436 L 799 44 Q 798 29 797 6 Q 795 -17 791 -31 Q 787 -44 781 -47 L 779 -47 Q 773 -47 759 -42 L 742 -36 L 713 -25 Q 711 -24 709 -24 Q 706 -24 704 -27 Q 703 -29 703 -31 Q 703 -34 705 -36 L 731 -64 Q 739 -74 748 -84 L 764 -106 L 783 -134 Q 789 -144 794 -146 L 797 -146 Q 803 -146 812 -140 Q 823 -133 831 -122 Q 839 -110 846 -88 Q 853 -66 857 -42 Q 859 -24 859 -1 L 859 14 Q 859 46 857 97 Q 855 148 855 176 L 857 540 Q 857 570 858 590 Q 860 610 863 624 Q 866 638 873 649 Q 879 660 880 664 Q 880 670 873 679 Q 865 688 847 700 Q 828 712 820 714 Q 815 716 809 716 L 805 716 Q 799 716 785 710 Q 769 704 760 702 Q 751 698 724 692 Q 697 686 681 683 Q 665 680 639 676 C 609 671 620 643 650 648 L 751 664 Q 764 666 773 666 Q 782 666 786 664 Q 795 661 800 654 Q 804 648 805 636 L 805 576 L 805 559 L 805 473 L 805 436 Z" fill="lightgray" />
    
      <path d="M 651 536 L 663 534 Q 664 533 668 533 Q 675 533 690 536 L 715 540 L 771 548 Q 785 550 791 553 Q 797 555 805 559 C 824 568 824 568 805 576 L 790 582 Q 770 588 758 588 L 755 588 Q 750 588 738 584 Q 727 580 716 578 Q 706 575 676 568 L 651 563 C 622 557 621 541 651 536 Z" fill="lightgray" />
    
      <path d="M 645 414 L 676 416 Q 681 416 704 420 L 805 436 C 835 441 834 466 805 473 L 793 476 Q 788 479 782 479 Q 779 479 776 478 Q 773 478 765 474 Q 757 472 735 467 L 681 454 L 649 448 C 620 442 615 412 645 414 Z" fill="lightgray" />
    
      <path d="M 457 334 L 432 343 Q 422 346 411 347 L 408 347 Q 401 347 399 344 Q 398 342 398 340 Q 398 338 399 336 Q 401 331 409 319 Q 417 308 419 292 Q 421 280 421 268 L 421 260 L 419 186 Q 417 151 415 122 Q 412 94 407 72 Q 403 51 392 26 Q 381 2 375 -8 L 361 -30 Q 357 -35 357 -39 Q 357 -41 359 -42 Q 360 -43 362 -43 Q 366 -43 371 -38 L 387 -25 Q 397 -17 411 -2 Q 424 14 435 40 Q 445 66 449 84 Q 453 103 456 123 L 457 146 L 461 213 L 462 236 L 462 262 Q 462 284 463 292 Q 464 300 466 310 C 469 330 469 330 457 334 Z" fill="lightgray" />
    
      <path d="M 593 142 L 589 56 Q 589 48 586 32 Q 583 16 579 14 Q 575 11 565 11 Q 556 12 547 14 L 521 18 L 519 18 Q 515 18 513 15 L 513 14 Q 513 11 518 6 L 539 -14 Q 553 -27 563 -43 L 577 -63 Q 583 -72 588 -72 L 589 -72 Q 594 -72 600 -66 Q 608 -60 613 -54 Q 617 -48 623 -34 Q 629 -20 633 -6 Q 636 9 636 44 L 636 234 Q 636 252 637 270 Q 639 289 641 297 Q 644 306 649 314 Q 655 322 655 325 Q 655 331 648 339 Q 641 347 628 355 Q 615 364 606 366 Q 599 369 594 369 L 591 369 Q 585 368 576 364 Q 566 360 543 353 Q 521 346 505 342 Q 489 339 457 334 C 427 329 436 305 466 310 L 562 325 L 573 327 Q 582 327 585 324 Q 588 320 588 306 L 589 286 L 591 248 L 592 230 L 593 161 L 593 142 Z" fill="lightgray" />
    
      <path d="M 461 213 L 479 212 Q 481 212 497 214 L 592 230 C 622 235 620 239 591 248 L 575 253 Q 569 254 560 255 Q 551 255 503 244 L 462 236 C 433 230 431 215 461 213 Z" fill="lightgray" />
    
      <path d="M 456 123 L 475 122 Q 477 122 494 124 L 593 142 C 623 147 622 153 593 161 L 578 165 Q 569 167 559 167 Q 550 166 519 160 L 457 146 C 428 139 426 125 456 123 Z" fill="lightgray" />
    
    
      <clipPath id="make-me-a-hanzi-clip-0">
        <path d="M 234 630 L 219 635 Q 217 635 205 638 L 198 638 Q 191 638 187 637 Q 181 635 180 630 L 180 628 Q 180 624 184 616 Q 190 606 193 598 Q 197 590 201 571 Q 205 552 205 509 L 201 346 Q 200 282 196 234 Q 191 186 186 152 Q 181 117 174 92 Q 167 68 160 50 Q 153 32 152 26 Q 151 20 151 13 Q 151 6 152 -2 Q 155 -18 160 -32 Q 165 -46 174 -59 Q 183 -71 191 -71 L 193 -71 Q 198 -71 203 -65 Q 209 -58 213 -44 L 219 -15 Q 223 0 224 12 Q 225 23 228 72 L 235 178 L 245 360 L 245 394 L 249 481 L 250 509 L 254 601 C 255 624 255 624 234 630 Z" />
      </clipPath>
      <path clip-path="url(#make-me-a-hanzi-clip-0)" d="M 188 629 L 217 609 L 228 564 L 219 247 L 201 81 L 187 8 L 192 -58" fill="none" id="make-me-a-hanzi-animation-0" stroke-dasharray="834 1668" stroke-linecap="round" />
    
      <clipPath id="make-me-a-hanzi-clip-1">
        <path d="M 359 383 L 366 370 Q 369 363 376 362 L 379 362 Q 384 362 390 369 Q 397 378 401 394 Q 405 410 408 427 L 425 524 Q 429 547 432 560 Q 435 572 439 583 Q 443 593 449 601 Q 454 609 455 612 Q 455 618 447 627 Q 439 635 427 644 Q 414 652 400 659 Q 387 666 379 666 Q 374 666 363 661 Q 351 656 339 652 Q 327 648 305 643 Q 283 637 271 635 Q 258 632 234 630 C 204 627 225 596 254 601 L 351 619 Q 359 620 364 620 Q 371 620 373 618 Q 377 614 378 606 Q 379 596 379 582 L 373 524 L 371 499 L 361 417 C 357 387 357 386 359 383 Z" />
      </clipPath>
      <path clip-path="url(#make-me-a-hanzi-clip-1)" d="M 242 628 L 261 618 L 272 619 L 380 641 L 395 633 L 413 610 L 378 374" fill="none" id="make-me-a-hanzi-animation-1" stroke-dasharray="556 1112" stroke-linecap="round" />
    
      <clipPath id="make-me-a-hanzi-clip-2">
        <path d="M 249 481 L 265 482 Q 291 484 303 487 L 371 499 C 401 504 402 517 373 524 L 357 528 Q 347 531 338 531 L 333 531 Q 323 530 304 524 Q 285 517 271 514 L 250 509 C 221 502 219 479 249 481 Z" />
      </clipPath>
      <path clip-path="url(#make-me-a-hanzi-clip-2)" d="M 253 488 L 264 497 L 367 518" fill="none" id="make-me-a-hanzi-animation-2" stroke-dasharray="247 494" stroke-linecap="round" />
    
      <clipPath id="make-me-a-hanzi-clip-3">
        <path d="M 245 360 L 266 363 Q 277 364 300 370 L 359 383 C 388 389 390 410 361 417 L 348 420 Q 347 421 344 421 Q 341 421 337 420 Q 329 420 306 411 Q 283 403 274 401 L 245 394 C 216 387 215 356 245 360 Z" />
      </clipPath>
      <path clip-path="url(#make-me-a-hanzi-clip-3)" d="M 250 366 L 262 380 L 340 400 L 353 412" fill="none" id="make-me-a-hanzi-animation-3" stroke-dasharray="245 490" stroke-linecap="round" />
    
      <clipPath id="make-me-a-hanzi-clip-4">
        <path d="M 639 676 L 623 681 L 603 687 Q 597 689 593 689 Q 591 689 589 688 Q 583 686 582 682 L 582 681 Q 582 677 586 670 Q 591 663 595 651 Q 599 640 603 626 Q 605 612 607 581 L 610 502 Q 610 490 609 475 Q 609 461 607 451 Q 605 442 605 440 L 605 436 Q 605 428 608 418 Q 612 406 621 398 Q 625 394 631 394 Q 635 394 640 402 L 645 414 L 649 448 L 651 536 L 651 563 L 650 648 C 650 673 650 673 639 676 Z" />
      </clipPath>
      <path clip-path="url(#make-me-a-hanzi-clip-4)" d="M 589 682 L 621 653 L 625 640 L 630 405" fill="none" id="make-me-a-hanzi-animation-4" stroke-dasharray="420 840" stroke-linecap="round" />
    
      <clipPath id="make-me-a-hanzi-clip-5">
        <path d="M 805 436 L 799 44 Q 798 29 797 6 Q 795 -17 791 -31 Q 787 -44 781 -47 L 779 -47 Q 773 -47 759 -42 L 742 -36 L 713 -25 Q 711 -24 709 -24 Q 706 -24 704 -27 Q 703 -29 703 -31 Q 703 -34 705 -36 L 731 -64 Q 739 -74 748 -84 L 764 -106 L 783 -134 Q 789 -144 794 -146 L 797 -146 Q 803 -146 812 -140 Q 823 -133 831 -122 Q 839 -110 846 -88 Q 853 -66 857 -42 Q 859 -24 859 -1 L 859 14 Q 859 46 857 97 Q 855 148 855 176 L 857 540 Q 857 570 858 590 Q 860 610 863 624 Q 866 638 873 649 Q 879 660 880 664 Q 880 670 873 679 Q 865 688 847 700 Q 828 712 820 714 Q 815 716 809 716 L 805 716 Q 799 716 785 710 Q 769 704 760 702 Q 751 698 724 692 Q 697 686 681 683 Q 665 680 639 676 C 609 671 620 643 650 648 L 751 664 Q 764 666 773 666 Q 782 666 786 664 Q 795 661 800 654 Q 804 648 805 636 L 805 576 L 805 559 L 805 473 L 805 436 Z" />
      </clipPath>
      <path clip-path="url(#make-me-a-hanzi-clip-5)" d="M 648 671 L 669 665 L 802 687 L 823 678 L 838 660 L 831 584 L 829 19 L 823 -44 L 802 -85 L 771 -72 L 710 -30" fill="none" id="make-me-a-hanzi-animation-5" stroke-dasharray="1189 2378" stroke-linecap="round" />
    
      <clipPath id="make-me-a-hanzi-clip-6">
        <path d="M 651 536 L 663 534 Q 664 533 668 533 Q 675 533 690 536 L 715 540 L 771 548 Q 785 550 791 553 Q 797 555 805 559 C 824 568 824 568 805 576 L 790 582 Q 770 588 758 588 L 755 588 Q 750 588 738 584 Q 727 580 716 578 Q 706 575 676 568 L 651 563 C 622 557 621 541 651 536 Z" />
      </clipPath>
      <path clip-path="url(#make-me-a-hanzi-clip-6)" d="M 658 543 L 667 550 L 799 572" fill="none" id="make-me-a-hanzi-animation-6" stroke-dasharray="273 546" stroke-linecap="round" />
    
      <clipPath id="make-me-a-hanzi-clip-7">
        <path d="M 645 414 L 676 416 Q 681 416 704 420 L 805 436 C 835 441 834 466 805 473 L 793 476 Q 788 479 782 479 Q 779 479 776 478 Q 773 478 765 474 Q 757 472 735 467 L 681 454 L 649 448 C 620 442 615 412 645 414 Z" />
      </clipPath>
      <path clip-path="url(#make-me-a-hanzi-clip-7)" d="M 652 419 L 666 433 L 778 455 L 797 442" fill="none" id="make-me-a-hanzi-animation-7" stroke-dasharray="285 570" stroke-linecap="round" />
    
      <clipPath id="make-me-a-hanzi-clip-8">
        <path d="M 457 334 L 432 343 Q 422 346 411 347 L 408 347 Q 401 347 399 344 Q 398 342 398 340 Q 398 338 399 336 Q 401 331 409 319 Q 417 308 419 292 Q 421 280 421 268 L 421 260 L 419 186 Q 417 151 415 122 Q 412 94 407 72 Q 403 51 392 26 Q 381 2 375 -8 L 361 -30 Q 357 -35 357 -39 Q 357 -41 359 -42 Q 360 -43 362 -43 Q 366 -43 371 -38 L 387 -25 Q 397 -17 411 -2 Q 424 14 435 40 Q 445 66 449 84 Q 453 103 456 123 L 457 146 L 461 213 L 462 236 L 462 262 Q 462 284 463 292 Q 464 300 466 310 C 469 330 469 330 457 334 Z" />
      </clipPath>
      <path clip-path="url(#make-me-a-hanzi-clip-8)" d="M 405 340 L 438 315 L 441 300 L 436 119 L 412 30 L 362 -38" fill="none" id="make-me-a-hanzi-animation-8" stroke-dasharray="542 1084" stroke-linecap="round" />
    
      <clipPath id="make-me-a-hanzi-clip-9">
        <path d="M 593 142 L 589 56 Q 589 48 586 32 Q 583 16 579 14 Q 575 11 565 11 Q 556 12 547 14 L 521 18 L 519 18 Q 515 18 513 15 L 513 14 Q 513 11 518 6 L 539 -14 Q 553 -27 563 -43 L 577 -63 Q 583 -72 588 -72 L 589 -72 Q 594 -72 600 -66 Q 608 -60 613 -54 Q 617 -48 623 -34 Q 629 -20 633 -6 Q 636 9 636 44 L 636 234 Q 636 252 637 270 Q 639 289 641 297 Q 644 306 649 314 Q 655 322 655 325 Q 655 331 648 339 Q 641 347 628 355 Q 615 364 606 366 Q 599 369 594 369 L 591 369 Q 585 368 576 364 Q 566 360 543 353 Q 521 346 505 342 Q 489 339 457 334 C 427 329 436 305 466 310 L 562 325 L 573 327 Q 582 327 585 324 Q 588 320 588 306 L 589 286 L 591 248 L 592 230 L 593 161 L 593 142 Z" />
      </clipPath>
      <path clip-path="url(#make-me-a-hanzi-clip-9)" d="M 465 330 L 485 325 L 595 346 L 618 324 L 614 84 L 605 1 L 587 -19 L 517 15" fill="none" id="make-me-a-hanzi-animation-9" stroke-dasharray="721 1442" stroke-linecap="round" />
    
      <clipPath id="make-me-a-hanzi-clip-10">
        <path d="M 461 213 L 479 212 Q 481 212 497 214 L 592 230 C 622 235 620 239 591 248 L 575 253 Q 569 254 560 255 Q 551 255 503 244 L 462 236 C 433 230 431 215 461 213 Z" />
      </clipPath>
      <path clip-path="url(#make-me-a-hanzi-clip-10)" d="M 466 219 L 550 239 L 575 240 L 584 234" fill="none" id="make-me-a-hanzi-animation-10" stroke-dasharray="250 500" stroke-linecap="round" />
    
      <clipPath id="make-me-a-hanzi-clip-11">
        <path d="M 456 123 L 475 122 Q 477 122 494 124 L 593 142 C 623 147 622 153 593 161 L 578 165 Q 569 167 559 167 Q 550 166 519 160 L 457 146 C 428 139 426 125 456 123 Z" />
      </clipPath>
      <path clip-path="url(#make-me-a-hanzi-clip-11)" d="M 461 129 L 470 136 L 531 148 L 580 152 L 585 147" fill="none" id="make-me-a-hanzi-animation-11" stroke-dasharray="258 516" stroke-linecap="round" />
    
  </g>
</svg>