<svg version="1.1" viewBox="0 0 1024 1024" xmlns="http://www.w3.org/2000/svg">
  <g stroke="lightgray" stroke-dasharray="1,1" stroke-width="1" transform="scale(4, 4)">
    <line x1="0" y1="0" x2="256" y2="256"></line>
    <line x1="256" y1="0" x2="0" y2="256"></line>
    <line x1="128" y1="0" x2="128" y2="256"></line>
    <line x1="0" y1="128" x2="256" y2="128"></line>
  </g>
  <g transform="scale(0.92, -0.92) translate(60, -830)">
    <style type="text/css">
      
        @keyframes keyframes0 {
          from {
            stroke: blue;
            stroke-dashoffset: 966;
            stroke-width: 128;
          }
          76% {
            animation-timing-function: step-end;
            stroke: blue;
            stroke-dashoffset: 0;
            stroke-width: 128;
          }
          to {
            stroke: black;
            stroke-width: 1024;
          }
        }
        #make-me-a-hanzi-animation-0 {
          animation: keyframes0 1.0361328125s both;
          animation-delay: 0s;
          animation-timing-function: linear;
        }
      
        @keyframes keyframes1 {
          from {
            stroke: blue;
            stroke-dashoffset: 670;
            stroke-width: 128;
          }
          69% {
            animation-timing-function: step-end;
            stroke: blue;
            stroke-dashoffset: 0;
            stroke-width: 128;
          }
          to {
            stroke: black;
            stroke-width: 1024;
          }
        }
        #make-me-a-hanzi-animation-1 {
          animation: keyframes1 0.7952473958333334s both;
          animation-delay: 1.0361328125s;
          animation-timing-function: linear;
        }
      
        @keyframes keyframes2 {
          from {
            stroke: blue;
            stroke-dashoffset: 397;
            stroke-width: 128;
          }
          56% {
            animation-timing-function: step-end;
            stroke: blue;
            stroke-dashoffset: 0;
            stroke-width: 128;
          }
          to {
            stroke: black;
            stroke-width: 1024;
          }
        }
        #make-me-a-hanzi-animation-2 {
          animation: keyframes2 0.5730794270833334s both;
          animation-delay: 1.8313802083333335s;
          animation-timing-function: linear;
        }
      
        @keyframes keyframes3 {
          from {
            stroke: blue;
            stroke-dashoffset: 390;
            stroke-width: 128;
          }
          56% {
            animation-timing-function: step-end;
            stroke: blue;
            stroke-dashoffset: 0;
            stroke-width: 128;
          }
          to {
            stroke: black;
            stroke-width: 1024;
          }
        }
        #make-me-a-hanzi-animation-3 {
          animation: keyframes3 0.5673828125s both;
          animation-delay: 2.404459635416667s;
          animation-timing-function: linear;
        }
      
        @keyframes keyframes4 {
          from {
            stroke: blue;
            stroke-dashoffset: 526;
            stroke-width: 128;
          }
          63% {
            animation-timing-function: step-end;
            stroke: blue;
            stroke-dashoffset: 0;
            stroke-width: 128;
          }
          to {
            stroke: black;
            stroke-width: 1024;
          }
        }
        #make-me-a-hanzi-animation-4 {
          animation: keyframes4 0.6780598958333334s both;
          animation-delay: 2.971842447916667s;
          animation-timing-function: linear;
        }
      
        @keyframes keyframes5 {
          from {
            stroke: blue;
            stroke-dashoffset: 1335;
            stroke-width: 128;
          }
          81% {
            animation-timing-function: step-end;
            stroke: blue;
            stroke-dashoffset: 0;
            stroke-width: 128;
          }
          to {
            stroke: black;
            stroke-width: 1024;
          }
        }
        #make-me-a-hanzi-animation-5 {
          animation: keyframes5 1.33642578125s both;
          animation-delay: 3.6499023437500004s;
          animation-timing-function: linear;
        }
      
        @keyframes keyframes6 {
          from {
            stroke: blue;
            stroke-dashoffset: 414;
            stroke-width: 128;
          }
          57% {
            animation-timing-function: step-end;
            stroke: blue;
            stroke-dashoffset: 0;
            stroke-width: 128;
          }
          to {
            stroke: black;
            stroke-width: 1024;
          }
        }
        #make-me-a-hanzi-animation-6 {
          animation: keyframes6 0.5869140625s both;
          animation-delay: 4.986328125s;
          animation-timing-function: linear;
        }
      
        @keyframes keyframes7 {
          from {
            stroke: blue;
            stroke-dashoffset: 418;
            stroke-width: 128;
          }
          58% {
            animation-timing-function: step-end;
            stroke: blue;
            stroke-dashoffset: 0;
            stroke-width: 128;
          }
          to {
            stroke: black;
            stroke-width: 1024;
          }
        }
        #make-me-a-hanzi-animation-7 {
          animation: keyframes7 0.5901692708333334s both;
          animation-delay: 5.5732421875s;
          animation-timing-function: linear;
        }
      
        @keyframes keyframes8 {
          from {
            stroke: blue;
            stroke-dashoffset: 567;
            stroke-width: 128;
          }
          65% {
            animation-timing-function: step-end;
            stroke: blue;
            stroke-dashoffset: 0;
            stroke-width: 128;
          }
          to {
            stroke: black;
            stroke-width: 1024;
          }
        }
        #make-me-a-hanzi-animation-8 {
          animation: keyframes8 0.71142578125s both;
          animation-delay: 6.163411458333333s;
          animation-timing-function: linear;
        }
      
        @keyframes keyframes9 {
          from {
            stroke: blue;
            stroke-dashoffset: 549;
            stroke-width: 128;
          }
          64% {
            animation-timing-function: step-end;
            stroke: blue;
            stroke-dashoffset: 0;
            stroke-width: 128;
          }
          to {
            stroke: black;
            stroke-width: 1024;
          }
        }
        #make-me-a-hanzi-animation-9 {
          animation: keyframes9 0.69677734375s both;
          animation-delay: 6.874837239583333s;
          animation-timing-function: linear;
        }
      
        @keyframes keyframes10 {
          from {
            stroke: blue;
            stroke-dashoffset: 346;
            stroke-width: 128;
          }
          53% {
            animation-timing-function: step-end;
            stroke: blue;
            stroke-dashoffset: 0;
            stroke-width: 128;
          }
          to {
            stroke: black;
            stroke-width: 1024;
          }
        }
        #make-me-a-hanzi-animation-10 {
          animation: keyframes10 0.5315755208333334s both;
          animation-delay: 7.571614583333333s;
          animation-timing-function: linear;
        }
      
        @keyframes keyframes11 {
          from {
            stroke: blue;
            stroke-dashoffset: 579;
            stroke-width: 128;
          }
          65% {
            animation-timing-function: step-end;
            stroke: blue;
            stroke-dashoffset: 0;
            stroke-width: 128;
          }
          to {
            stroke: black;
            stroke-width: 1024;
          }
        }
        #make-me-a-hanzi-animation-11 {
          animation: keyframes11 0.72119140625s both;
          animation-delay: 8.103190104166666s;
          animation-timing-function: linear;
        }
      
        @keyframes keyframes12 {
          from {
            stroke: blue;
            stroke-dashoffset: 497;
            stroke-width: 128;
          }
          62% {
            animation-timing-function: step-end;
            stroke: blue;
            stroke-dashoffset: 0;
            stroke-width: 128;
          }
          to {
            stroke: black;
            stroke-width: 1024;
          }
        }
        #make-me-a-hanzi-animation-12 {
          animation: keyframes12 0.6544596354166666s both;
          animation-delay: 8.824381510416666s;
          animation-timing-function: linear;
        }
      
        @keyframes keyframes13 {
          from {
            stroke: blue;
            stroke-dashoffset: 505;
            stroke-width: 128;
          }
          62% {
            animation-timing-function: step-end;
            stroke: blue;
            stroke-dashoffset: 0;
            stroke-width: 128;
          }
          to {
            stroke: black;
            stroke-width: 1024;
          }
        }
        #make-me-a-hanzi-animation-13 {
          animation: keyframes13 0.6609700520833334s both;
          animation-delay: 9.478841145833332s;
          animation-timing-function: linear;
        }
      
        @keyframes keyframes14 {
          from {
            stroke: blue;
            stroke-dashoffset: 469;
            stroke-width: 128;
          }
          60% {
            animation-timing-function: step-end;
            stroke: blue;
            stroke-dashoffset: 0;
            stroke-width: 128;
          }
          to {
            stroke: black;
            stroke-width: 1024;
          }
        }
        #make-me-a-hanzi-animation-14 {
          animation: keyframes14 0.6316731770833334s both;
          animation-delay: 10.139811197916666s;
          animation-timing-function: linear;
        }
      
        @keyframes keyframes15 {
          from {
            stroke: blue;
            stroke-dashoffset: 561;
            stroke-width: 128;
          }
          65% {
            animation-timing-function: step-end;
            stroke: blue;
            stroke-dashoffset: 0;
            stroke-width: 128;
          }
          to {
            stroke: black;
            stroke-width: 1024;
          }
        }
        #make-me-a-hanzi-animation-15 {
          animation: keyframes15 0.70654296875s both;
          animation-delay: 10.771484375s;
          animation-timing-function: linear;
        }
      
    </style>
    
      <path d="M 236 618 L 218 625 L 194 630 Q 185 633 179 633 Q 176 633 174 632 Q 168 629 166 624 Q 166 620 172 609 L 182 587 Q 186 576 188 564 Q 189 552 190 528 Q 192 503 192 490 L 188 342 Q 187 321 184 269 Q 182 218 178 182 Q 176 148 170 110 Q 162 72 156 47 Q 148 22 146 14 Q 145 6 145 -1 Q 145 -8 146 -14 Q 150 -27 156 -42 Q 160 -57 168 -66 Q 176 -78 182 -78 Q 188 -78 198 -68 Q 206 -58 210 -38 Q 216 -18 218 9 Q 222 36 224 64 L 228 123 L 230 192 L 232 268 L 236 350 L 236 384 L 236 416 L 240 488 L 240 518 L 242 589 C 243 616 243 616 236 618 Z" fill="lightgray"></path>
    
      <path d="M 374 400 L 382 390 Q 386 383 396 382 L 399 382 Q 406 382 412 388 Q 419 396 424 410 Q 426 424 430 445 L 446 524 Q 447 534 450 547 Q 455 560 458 569 Q 462 578 466 588 L 474 599 Q 476 604 476 607 Q 476 614 462 626 Q 448 640 442 644 Q 434 649 418 655 Q 404 660 398 660 Q 395 660 384 654 Q 374 648 358 644 L 328 636 Q 312 632 304 630 L 236 618 C 206 613 212 584 242 589 L 318 602 Q 350 608 362 610 Q 374 614 380 614 Q 390 614 393 611 Q 396 608 396 596 L 396 578 L 390 533 L 388 505 L 382 464 Q 381 458 376 429 C 372 403 372 403 374 400 Z" fill="lightgray"></path>
    
      <path d="M 240 488 L 264 488 Q 272 488 304 493 L 352 500 Q 364 502 388 505 C 418 509 418 522 390 533 L 374 539 Q 364 542 352 542 Q 344 542 328 536 Q 310 532 298 528 L 270 524 L 240 518 C 211 512 210 488 240 488 Z" fill="lightgray"></path>
    
      <path d="M 236 384 L 262 384 Q 268 384 294 388 Q 320 392 336 395 L 374 400 C 404 404 404 420 376 429 L 364 433 Q 360 435 354 435 Q 350 435 344 434 Q 336 434 318 430 Q 300 426 286 424 L 236 416 C 206 411 206 384 236 384 Z" fill="lightgray"></path>
    
      <path d="M 626 663 L 606 669 L 588 675 Q 582 677 578 677 Q 576 677 574 676 Q 566 674 566 670 L 566 668 Q 566 664 570 656 Q 576 647 580 639 Q 582 631 586 612 Q 590 594 590 578 L 592 521 L 592 491 Q 590 485 588 470 Q 587 463 587 458 Q 587 452 588 448 Q 589 440 592 428 Q 596 416 604 408 Q 611 403 616 403 L 618 403 Q 624 404 628 411 L 634 428 L 636 462 L 634 530 L 634 559 L 634 628 C 634 658 634 661 626 663 Z" fill="lightgray"></path>
    
      <path d="M 800 447 L 798 113 L 796 67 Q 795 20 794 7 Q 794 -7 790 -26 Q 788 -44 784 -46 Q 782 -47 779 -47 Q 775 -47 770 -46 L 752 -42 Q 730 -38 730 -37 L 704 -30 Q 702 -29 700 -29 Q 697 -29 694 -32 L 694 -34 Q 694 -39 700 -44 L 718 -58 Q 728 -66 742 -83 Q 756 -100 762 -108 Q 769 -115 780 -131 Q 791 -146 796 -148 L 799 -148 Q 806 -148 816 -141 Q 828 -132 838 -115 Q 848 -98 854 -76 Q 860 -54 862 -21 L 862 76 Q 861 98 860 149 Q 857 183 857 203 Q 857 213 858 219 L 858 531 Q 858 558 860 584 Q 862 610 866 620 Q 870 632 876 641 Q 882 651 882 655 Q 882 662 876 670 Q 868 678 848 690 Q 829 700 818 704 Q 810 708 804 708 Q 800 707 788 702 Q 778 696 756 690 Q 734 683 720 680 Q 704 676 686 673 L 626 663 C 596 658 605 622 634 628 L 744 650 Q 758 653 772 654 Q 777 655 781 655 Q 789 655 792 652 Q 796 648 798 636 Q 800 624 800 617 L 800 578 L 800 553 L 800 484 L 800 447 Z" fill="lightgray"></path>
    
      <path d="M 634 530 L 662 531 Q 673 531 710 536 Q 748 542 763 545 Q 778 548 800 553 C 829 560 829 571 800 578 L 788 581 Q 787 581 770 583 Q 758 585 752 585 L 748 585 Q 744 584 732 581 Q 721 577 706 574 Q 693 570 678 567 L 634 559 C 604 554 604 529 634 530 Z" fill="lightgray"></path>
    
      <path d="M 634 428 L 664 429 Q 686 430 708 432 Q 728 435 752 439 Q 774 442 800 447 C 829 453 828 475 800 484 L 788 488 Q 785 489 781 489 Q 777 489 772 488 Q 764 486 748 482 L 720 475 Q 708 473 682 470 L 636 462 C 606 457 604 427 634 428 Z" fill="lightgray"></path>
    
      <path d="M 422 260 L 448 298 L 464 322 Q 474 336 480 340 Q 488 345 488 346 Q 489 348 489 350 Q 489 355 484 361 Q 476 370 464 380 Q 452 390 446 393 Q 438 396 434 396 Q 431 396 430 394 Q 426 392 426 379 Q 426 367 422 353 Q 417 340 408 322 Q 399 304 386 281 Q 372 258 358 238 Q 344 218 328 200 Q 314 182 300 168 L 278 146 Q 274 142 274 139 Q 274 137 275 136 Q 276 134 279 134 Q 282 134 288 138 L 314 154 L 346 178 Q 362 191 368 198 Q 377 206 386 215 L 422 260 Z" fill="lightgray"></path>
    
      <path d="M 386 215 L 390 188 Q 392 178 392 149 Q 390 123 390 102 Q 388 82 386 60 Q 382 37 380 18 Q 376 0 376 -6 Q 375 -12 375 -17 Q 375 -22 376 -26 Q 378 -34 386 -46 Q 392 -60 396 -63 Q 401 -66 404 -66 L 406 -66 Q 410 -65 414 -58 Q 416 -52 418 -42 Q 420 -32 422 -27 L 424 -8 L 426 20 L 428 80 L 430 104 L 432 156 L 432 178 L 434 236 C 435 266 382 245 386 215 Z" fill="lightgray"></path>
    
      <path d="M 588 282 L 590 292 Q 592 296 592 310 Q 590 321 588 327 Q 584 334 568 340 Q 552 347 542 350 L 520 354 Q 517 355 514 355 Q 509 355 508 352 Q 506 350 506 348 Q 506 345 510 341 L 520 323 Q 522 316 530 304 Q 538 292 542 287 L 552 277 C 573 256 582 253 588 282 Z" fill="lightgray"></path>
    
      <path d="M 590 246 L 628 252 Q 674 260 676 260 L 700 266 Q 708 268 710 273 L 710 275 Q 710 279 704 284 Q 694 290 682 294 Q 670 298 666 298 Q 658 298 646 295 Q 634 292 620 289 L 588 282 L 552 277 L 524 272 Q 519 270 498 268 L 460 264 Q 442 262 422 260 C 342 252 361 245 434 236 L 450 234 L 476 234 Q 495 235 508 236 Q 521 238 538 240 L 590 246 Z" fill="lightgray"></path>
    
      <path d="M 588 170 L 616 174 Q 618 174 648 180 L 670 184 Q 682 186 684 190 L 684 191 Q 684 196 678 200 Q 672 204 658 207 Q 642 210 640 210 Q 637 211 634 211 Q 630 211 626 210 Q 619 210 608 208 L 588 204 L 542 194 L 506 188 Q 474 184 464 182 Q 455 180 432 178 C 402 175 402 159 432 156 L 452 154 L 476 154 Q 493 155 508 158 Q 524 160 542 163 L 588 170 Z" fill="lightgray"></path>
    
      <path d="M 586 94 L 616 98 L 652 104 L 678 109 Q 686 110 686 116 L 686 118 Q 686 123 680 127 Q 671 131 656 134 Q 644 137 638 137 Q 633 136 620 134 L 602 130 L 586 126 L 542 118 L 492 112 Q 480 110 430 104 C 400 100 398 82 428 80 L 454 78 Q 462 78 484 80 L 514 84 L 542 87 L 586 94 Z" fill="lightgray"></path>
    
      <path d="M 584 38 L 586 94 L 586 126 L 588 170 L 588 204 L 590 246 C 591 276 535 270 538 240 L 542 194 L 542 163 L 542 118 L 542 87 L 540 34 C 539 4 583 8 584 38 Z" fill="lightgray"></path>
    
      <path d="M 424 -8 L 442 -10 L 462 -10 Q 476 -10 492 -8 L 540 -2 Q 560 0 592 2 Q 626 4 655 6 Q 684 8 696 9 L 720 12 Q 728 12 734 16 Q 737 19 738 23 Q 738 28 724 36 Q 710 44 698 48 Q 688 52 680 53 Q 674 53 658 50 Q 642 46 628 44 Q 612 42 610 42 L 584 38 L 540 34 L 478 26 Q 470 24 426 20 C 396 17 394 -5 424 -8 Z" fill="lightgray"></path>
    
    
      <clipPath id="make-me-a-hanzi-clip-0">
        <path d="M 236 618 L 218 625 L 194 630 Q 185 633 179 633 Q 176 633 174 632 Q 168 629 166 624 Q 166 620 172 609 L 182 587 Q 186 576 188 564 Q 189 552 190 528 Q 192 503 192 490 L 188 342 Q 187 321 184 269 Q 182 218 178 182 Q 176 148 170 110 Q 162 72 156 47 Q 148 22 146 14 Q 145 6 145 -1 Q 145 -8 146 -14 Q 150 -27 156 -42 Q 160 -57 168 -66 Q 176 -78 182 -78 Q 188 -78 198 -68 Q 206 -58 210 -38 Q 216 -18 218 9 Q 222 36 224 64 L 228 123 L 230 192 L 232 268 L 236 350 L 236 384 L 236 416 L 240 488 L 240 518 L 242 589 C 243 616 243 616 236 618 Z"></path>
      </clipPath>
      <path clip-path="url(#make-me-a-hanzi-clip-0)" d="M 175 623 L 210 596 L 216 526 L 204 172 L 181 4 L 183 -68" fill="none" id="make-me-a-hanzi-animation-0" stroke-dasharray="838 1676" stroke-linecap="round"></path>
    
      <clipPath id="make-me-a-hanzi-clip-1">
        <path d="M 374 400 L 382 390 Q 386 383 396 382 L 399 382 Q 406 382 412 388 Q 419 396 424 410 Q 426 424 430 445 L 446 524 Q 447 534 450 547 Q 455 560 458 569 Q 462 578 466 588 L 474 599 Q 476 604 476 607 Q 476 614 462 626 Q 448 640 442 644 Q 434 649 418 655 Q 404 660 398 660 Q 395 660 384 654 Q 374 648 358 644 L 328 636 Q 312 632 304 630 L 236 618 C 206 613 212 584 242 589 L 318 602 Q 350 608 362 610 Q 374 614 380 614 Q 390 614 393 611 Q 396 608 396 596 L 396 578 L 390 533 L 388 505 L 382 464 Q 381 458 376 429 C 372 403 372 403 374 400 Z"></path>
      </clipPath>
      <path clip-path="url(#make-me-a-hanzi-clip-1)" d="M 244 612 L 254 606 L 278 609 L 400 635 L 426 616 L 432 596 L 396 399" fill="none" id="make-me-a-hanzi-animation-1" stroke-dasharray="542 1084" stroke-linecap="round"></path>
    
      <clipPath id="make-me-a-hanzi-clip-2">
        <path d="M 240 488 L 264 488 Q 272 488 304 493 L 352 500 Q 364 502 388 505 C 418 509 418 522 390 533 L 374 539 Q 364 542 352 542 Q 344 542 328 536 Q 310 532 298 528 L 270 524 L 240 518 C 211 512 210 488 240 488 Z"></path>
      </clipPath>
      <path clip-path="url(#make-me-a-hanzi-clip-2)" d="M 246 496 L 266 506 L 383 526" fill="none" id="make-me-a-hanzi-animation-2" stroke-dasharray="269 538" stroke-linecap="round"></path>
    
      <clipPath id="make-me-a-hanzi-clip-3">
        <path d="M 236 384 L 262 384 Q 268 384 294 388 Q 320 392 336 395 L 374 400 C 404 404 404 420 376 429 L 364 433 Q 360 435 354 435 Q 350 435 344 434 Q 336 434 318 430 Q 300 426 286 424 L 236 416 C 206 411 206 384 236 384 Z"></path>
      </clipPath>
      <path clip-path="url(#make-me-a-hanzi-clip-3)" d="M 243 389 L 251 400 L 304 409 L 357 416 L 367 408" fill="none" id="make-me-a-hanzi-animation-3" stroke-dasharray="262 524" stroke-linecap="round"></path>
    
      <clipPath id="make-me-a-hanzi-clip-4">
        <path d="M 626 663 L 606 669 L 588 675 Q 582 677 578 677 Q 576 677 574 676 Q 566 674 566 670 L 566 668 Q 566 664 570 656 Q 576 647 580 639 Q 582 631 586 612 Q 590 594 590 578 L 592 521 L 592 491 Q 590 485 588 470 Q 587 463 587 458 Q 587 452 588 448 Q 589 440 592 428 Q 596 416 604 408 Q 611 403 616 403 L 618 403 Q 624 404 628 411 L 634 428 L 636 462 L 634 530 L 634 559 L 634 628 C 634 658 634 661 626 663 Z"></path>
      </clipPath>
      <path clip-path="url(#make-me-a-hanzi-clip-4)" d="M 573 669 L 605 643 L 610 621 L 611 455 L 617 415" fill="none" id="make-me-a-hanzi-animation-4" stroke-dasharray="398 796" stroke-linecap="round"></path>
    
      <clipPath id="make-me-a-hanzi-clip-5">
        <path d="M 800 447 L 798 113 L 796 67 Q 795 20 794 7 Q 794 -7 790 -26 Q 788 -44 784 -46 Q 782 -47 779 -47 Q 775 -47 770 -46 L 752 -42 Q 730 -38 730 -37 L 704 -30 Q 702 -29 700 -29 Q 697 -29 694 -32 L 694 -34 Q 694 -39 700 -44 L 718 -58 Q 728 -66 742 -83 Q 756 -100 762 -108 Q 769 -115 780 -131 Q 791 -146 796 -148 L 799 -148 Q 806 -148 816 -141 Q 828 -132 838 -115 Q 848 -98 854 -76 Q 860 -54 862 -21 L 862 76 Q 861 98 860 149 Q 857 183 857 203 Q 857 213 858 219 L 858 531 Q 858 558 860 584 Q 862 610 866 620 Q 870 632 876 641 Q 882 651 882 655 Q 882 662 876 670 Q 868 678 848 690 Q 829 700 818 704 Q 810 708 804 708 Q 800 707 788 702 Q 778 696 756 690 Q 734 683 720 680 Q 704 676 686 673 L 626 663 C 596 658 605 622 634 628 L 744 650 Q 758 653 772 654 Q 777 655 781 655 Q 789 655 792 652 Q 796 648 798 636 Q 800 624 800 617 L 800 578 L 800 553 L 800 484 L 800 447 Z"></path>
      </clipPath>
      <path clip-path="url(#make-me-a-hanzi-clip-5)" d="M 634 659 L 647 649 L 805 678 L 835 651 L 829 572 L 829 14 L 822 -52 L 803 -87 L 698 -33" fill="none" id="make-me-a-hanzi-animation-5" stroke-dasharray="1207 2414" stroke-linecap="round"></path>
    
      <clipPath id="make-me-a-hanzi-clip-6">
        <path d="M 634 530 L 662 531 Q 673 531 710 536 Q 748 542 763 545 Q 778 548 800 553 C 829 560 829 571 800 578 L 788 581 Q 787 581 770 583 Q 758 585 752 585 L 748 585 Q 744 584 732 581 Q 721 577 706 574 Q 693 570 678 567 L 634 559 C 604 554 604 529 634 530 Z"></path>
      </clipPath>
      <path clip-path="url(#make-me-a-hanzi-clip-6)" d="M 641 537 L 650 546 L 784 566 L 792 572" fill="none" id="make-me-a-hanzi-animation-6" stroke-dasharray="286 572" stroke-linecap="round"></path>
    
      <clipPath id="make-me-a-hanzi-clip-7">
        <path d="M 634 428 L 664 429 Q 686 430 708 432 Q 728 435 752 439 Q 774 442 800 447 C 829 453 828 475 800 484 L 788 488 Q 785 489 781 489 Q 777 489 772 488 Q 764 486 748 482 L 720 475 Q 708 473 682 470 L 636 462 C 606 457 604 427 634 428 Z"></path>
      </clipPath>
      <path clip-path="url(#make-me-a-hanzi-clip-7)" d="M 641 433 L 662 448 L 777 466 L 792 453" fill="none" id="make-me-a-hanzi-animation-7" stroke-dasharray="290 580" stroke-linecap="round"></path>
    
      <clipPath id="make-me-a-hanzi-clip-8">
        <path d="M 422 260 L 448 298 L 464 322 Q 474 336 480 340 Q 488 345 488 346 Q 489 348 489 350 Q 489 355 484 361 Q 476 370 464 380 Q 452 390 446 393 Q 438 396 434 396 Q 431 396 430 394 Q 426 392 426 379 Q 426 367 422 353 Q 417 340 408 322 Q 399 304 386 281 Q 372 258 358 238 Q 344 218 328 200 Q 314 182 300 168 L 278 146 Q 274 142 274 139 Q 274 137 275 136 Q 276 134 279 134 Q 282 134 288 138 L 314 154 L 346 178 Q 362 191 368 198 Q 377 206 386 215 L 422 260 Z"></path>
      </clipPath>
      <path clip-path="url(#make-me-a-hanzi-clip-8)" d="M 437 384 L 451 353 L 417 291 L 344 194 L 279 139" fill="none" id="make-me-a-hanzi-animation-8" stroke-dasharray="439 878" stroke-linecap="round"></path>
    
      <clipPath id="make-me-a-hanzi-clip-9">
        <path d="M 386 215 L 390 188 Q 392 178 392 149 Q 390 123 390 102 Q 388 82 386 60 Q 382 37 380 18 Q 376 0 376 -6 Q 375 -12 375 -17 Q 375 -22 376 -26 Q 378 -34 386 -46 Q 392 -60 396 -63 Q 401 -66 404 -66 L 406 -66 Q 410 -65 414 -58 Q 416 -52 418 -42 Q 420 -32 422 -27 L 424 -8 L 426 20 L 428 80 L 430 104 L 432 156 L 432 178 L 434 236 C 435 266 382 245 386 215 Z"></path>
      </clipPath>
      <path clip-path="url(#make-me-a-hanzi-clip-9)" d="M 430 229 L 410 198 L 410 100 L 399 -14 L 405 -57" fill="none" id="make-me-a-hanzi-animation-9" stroke-dasharray="421 842" stroke-linecap="round"></path>
    
      <clipPath id="make-me-a-hanzi-clip-10">
        <path d="M 588 282 L 590 292 Q 592 296 592 310 Q 590 321 588 327 Q 584 334 568 340 Q 552 347 542 350 L 520 354 Q 517 355 514 355 Q 509 355 508 352 Q 506 350 506 348 Q 506 345 510 341 L 520 323 Q 522 316 530 304 Q 538 292 542 287 L 552 277 C 573 256 582 253 588 282 Z"></path>
      </clipPath>
      <path clip-path="url(#make-me-a-hanzi-clip-10)" d="M 513 347 L 551 320 L 581 289" fill="none" id="make-me-a-hanzi-animation-10" stroke-dasharray="218 436" stroke-linecap="round"></path>
    
      <clipPath id="make-me-a-hanzi-clip-11">
        <path d="M 590 246 L 628 252 Q 674 260 676 260 L 700 266 Q 708 268 710 273 L 710 275 Q 710 279 704 284 Q 694 290 682 294 Q 670 298 666 298 Q 658 298 646 295 Q 634 292 620 289 L 588 282 L 552 277 L 524 272 Q 519 270 498 268 L 460 264 Q 442 262 422 260 C 342 252 361 245 434 236 L 450 234 L 476 234 Q 495 235 508 236 Q 521 238 538 240 L 590 246 Z"></path>
      </clipPath>
      <path clip-path="url(#make-me-a-hanzi-clip-11)" d="M 391 220 L 430 249 L 513 253 L 663 278 L 702 274" fill="none" id="make-me-a-hanzi-animation-11" stroke-dasharray="451 902" stroke-linecap="round"></path>
    
      <clipPath id="make-me-a-hanzi-clip-12">
        <path d="M 588 170 L 616 174 Q 618 174 648 180 L 670 184 Q 682 186 684 190 L 684 191 Q 684 196 678 200 Q 672 204 658 207 Q 642 210 640 210 Q 637 211 634 211 Q 630 211 626 210 Q 619 210 608 208 L 588 204 L 542 194 L 506 188 Q 474 184 464 182 Q 455 180 432 178 C 402 175 402 159 432 156 L 452 154 L 476 154 Q 493 155 508 158 Q 524 160 542 163 L 588 170 Z"></path>
      </clipPath>
      <path clip-path="url(#make-me-a-hanzi-clip-12)" d="M 438 162 L 632 194 L 676 191" fill="none" id="make-me-a-hanzi-animation-12" stroke-dasharray="369 738" stroke-linecap="round"></path>
    
      <clipPath id="make-me-a-hanzi-clip-13">
        <path d="M 586 94 L 616 98 L 652 104 L 678 109 Q 686 110 686 116 L 686 118 Q 686 123 680 127 Q 671 131 656 134 Q 644 137 638 137 Q 633 136 620 134 L 602 130 L 586 126 L 542 118 L 492 112 Q 480 110 430 104 C 400 100 398 82 428 80 L 454 78 Q 462 78 484 80 L 514 84 L 542 87 L 586 94 Z"></path>
      </clipPath>
      <path clip-path="url(#make-me-a-hanzi-clip-13)" d="M 435 85 L 444 94 L 490 95 L 647 120 L 678 117" fill="none" id="make-me-a-hanzi-animation-13" stroke-dasharray="377 754" stroke-linecap="round"></path>
    
      <clipPath id="make-me-a-hanzi-clip-14">
        <path d="M 584 38 L 586 94 L 586 126 L 588 170 L 588 204 L 590 246 C 591 276 535 270 538 240 L 542 194 L 542 163 L 542 118 L 542 87 L 540 34 C 539 4 583 8 584 38 Z"></path>
      </clipPath>
      <path clip-path="url(#make-me-a-hanzi-clip-14)" d="M 584 239 L 564 218 L 563 58 L 547 40" fill="none" id="make-me-a-hanzi-animation-14" stroke-dasharray="341 682" stroke-linecap="round"></path>
    
      <clipPath id="make-me-a-hanzi-clip-15">
        <path d="M 424 -8 L 442 -10 L 462 -10 Q 476 -10 492 -8 L 540 -2 Q 560 0 592 2 Q 626 4 655 6 Q 684 8 696 9 L 720 12 Q 728 12 734 16 Q 737 19 738 23 Q 738 28 724 36 Q 710 44 698 48 Q 688 52 680 53 Q 674 53 658 50 Q 642 46 628 44 Q 612 42 610 42 L 584 38 L 540 34 L 478 26 Q 470 24 426 20 C 396 17 394 -5 424 -8 Z"></path>
      </clipPath>
      <path clip-path="url(#make-me-a-hanzi-clip-15)" d="M 429 -1 L 447 6 L 668 30 L 731 23" fill="none" id="make-me-a-hanzi-animation-15" stroke-dasharray="433 866" stroke-linecap="round"></path>
    
  </g>
</svg>