<svg version="1.1" viewBox="0 0 1024 1024" xmlns="http://www.w3.org/2000/svg">
  <g stroke="lightgray" stroke-dasharray="1,1" stroke-width="1" transform="scale(4, 4)">
    <line x1="0" y1="0" x2="256" y2="256"></line>
    <line x1="256" y1="0" x2="0" y2="256"></line>
    <line x1="128" y1="0" x2="128" y2="256"></line>
    <line x1="0" y1="128" x2="256" y2="128"></line>
  </g>
  <g transform="scale(0.92, -0.92) translate(60, -830)">
    <style type="text/css">
      
        @keyframes keyframes0 {
          from {
            stroke: blue;
            stroke-dashoffset: 987;
            stroke-width: 128;
          }
          76% {
            animation-timing-function: step-end;
            stroke: blue;
            stroke-dashoffset: 0;
            stroke-width: 128;
          }
          to {
            stroke: black;
            stroke-width: 1024;
          }
        }
        #make-me-a-hanzi-animation-0 {
          animation: keyframes0 1.05322265625s both;
          animation-delay: 0s;
          animation-timing-function: linear;
        }
      
        @keyframes keyframes1 {
          from {
            stroke: blue;
            stroke-dashoffset: 646;
            stroke-width: 128;
          }
          68% {
            animation-timing-function: step-end;
            stroke: blue;
            stroke-dashoffset: 0;
            stroke-width: 128;
          }
          to {
            stroke: black;
            stroke-width: 1024;
          }
        }
        #make-me-a-hanzi-animation-1 {
          animation: keyframes1 0.7757161458333334s both;
          animation-delay: 1.05322265625s;
          animation-timing-function: linear;
        }
      
        @keyframes keyframes2 {
          from {
            stroke: blue;
            stroke-dashoffset: 371;
            stroke-width: 128;
          }
          55% {
            animation-timing-function: step-end;
            stroke: blue;
            stroke-dashoffset: 0;
            stroke-width: 128;
          }
          to {
            stroke: black;
            stroke-width: 1024;
          }
        }
        #make-me-a-hanzi-animation-2 {
          animation: keyframes2 0.5519205729166666s both;
          animation-delay: 1.8289388020833335s;
          animation-timing-function: linear;
        }
      
        @keyframes keyframes3 {
          from {
            stroke: blue;
            stroke-dashoffset: 367;
            stroke-width: 128;
          }
          54% {
            animation-timing-function: step-end;
            stroke: blue;
            stroke-dashoffset: 0;
            stroke-width: 128;
          }
          to {
            stroke: black;
            stroke-width: 1024;
          }
        }
        #make-me-a-hanzi-animation-3 {
          animation: keyframes3 0.5486653645833334s both;
          animation-delay: 2.380859375s;
          animation-timing-function: linear;
        }
      
        @keyframes keyframes4 {
          from {
            stroke: blue;
            stroke-dashoffset: 532;
            stroke-width: 128;
          }
          63% {
            animation-timing-function: step-end;
            stroke: blue;
            stroke-dashoffset: 0;
            stroke-width: 128;
          }
          to {
            stroke: black;
            stroke-width: 1024;
          }
        }
        #make-me-a-hanzi-animation-4 {
          animation: keyframes4 0.6829427083333334s both;
          animation-delay: 2.9295247395833335s;
          animation-timing-function: linear;
        }
      
        @keyframes keyframes5 {
          from {
            stroke: blue;
            stroke-dashoffset: 1346;
            stroke-width: 128;
          }
          81% {
            animation-timing-function: step-end;
            stroke: blue;
            stroke-dashoffset: 0;
            stroke-width: 128;
          }
          to {
            stroke: black;
            stroke-width: 1024;
          }
        }
        #make-me-a-hanzi-animation-5 {
          animation: keyframes5 1.3453776041666667s both;
          animation-delay: 3.612467447916667s;
          animation-timing-function: linear;
        }
      
        @keyframes keyframes6 {
          from {
            stroke: blue;
            stroke-dashoffset: 395;
            stroke-width: 128;
          }
          56% {
            animation-timing-function: step-end;
            stroke: blue;
            stroke-dashoffset: 0;
            stroke-width: 128;
          }
          to {
            stroke: black;
            stroke-width: 1024;
          }
        }
        #make-me-a-hanzi-animation-6 {
          animation: keyframes6 0.5714518229166666s both;
          animation-delay: 4.957845052083334s;
          animation-timing-function: linear;
        }
      
        @keyframes keyframes7 {
          from {
            stroke: blue;
            stroke-dashoffset: 406;
            stroke-width: 128;
          }
          57% {
            animation-timing-function: step-end;
            stroke: blue;
            stroke-dashoffset: 0;
            stroke-width: 128;
          }
          to {
            stroke: black;
            stroke-width: 1024;
          }
        }
        #make-me-a-hanzi-animation-7 {
          animation: keyframes7 0.5804036458333334s both;
          animation-delay: 5.529296875000001s;
          animation-timing-function: linear;
        }
      
        @keyframes keyframes8 {
          from {
            stroke: blue;
            stroke-dashoffset: 414;
            stroke-width: 128;
          }
          57% {
            animation-timing-function: step-end;
            stroke: blue;
            stroke-dashoffset: 0;
            stroke-width: 128;
          }
          to {
            stroke: black;
            stroke-width: 1024;
          }
        }
        #make-me-a-hanzi-animation-8 {
          animation: keyframes8 0.5869140625s both;
          animation-delay: 6.109700520833334s;
          animation-timing-function: linear;
        }
      
        @keyframes keyframes9 {
          from {
            stroke: blue;
            stroke-dashoffset: 523;
            stroke-width: 128;
          }
          63% {
            animation-timing-function: step-end;
            stroke: blue;
            stroke-dashoffset: 0;
            stroke-width: 128;
          }
          to {
            stroke: black;
            stroke-width: 1024;
          }
        }
        #make-me-a-hanzi-animation-9 {
          animation: keyframes9 0.6756184895833334s both;
          animation-delay: 6.696614583333334s;
          animation-timing-function: linear;
        }
      
        @keyframes keyframes10 {
          from {
            stroke: blue;
            stroke-dashoffset: 686;
            stroke-width: 128;
          }
          69% {
            animation-timing-function: step-end;
            stroke: blue;
            stroke-dashoffset: 0;
            stroke-width: 128;
          }
          to {
            stroke: black;
            stroke-width: 1024;
          }
        }
        #make-me-a-hanzi-animation-10 {
          animation: keyframes10 0.8082682291666666s both;
          animation-delay: 7.372233072916667s;
          animation-timing-function: linear;
        }
      
        @keyframes keyframes11 {
          from {
            stroke: blue;
            stroke-dashoffset: 379;
            stroke-width: 128;
          }
          55% {
            animation-timing-function: step-end;
            stroke: blue;
            stroke-dashoffset: 0;
            stroke-width: 128;
          }
          to {
            stroke: black;
            stroke-width: 1024;
          }
        }
        #make-me-a-hanzi-animation-11 {
          animation: keyframes11 0.5584309895833334s both;
          animation-delay: 8.180501302083334s;
          animation-timing-function: linear;
        }
      
        @keyframes keyframes12 {
          from {
            stroke: blue;
            stroke-dashoffset: 500;
            stroke-width: 128;
          }
          62% {
            animation-timing-function: step-end;
            stroke: blue;
            stroke-dashoffset: 0;
            stroke-width: 128;
          }
          to {
            stroke: black;
            stroke-width: 1024;
          }
        }
        #make-me-a-hanzi-animation-12 {
          animation: keyframes12 0.6569010416666666s both;
          animation-delay: 8.738932291666668s;
          animation-timing-function: linear;
        }
      
        @keyframes keyframes13 {
          from {
            stroke: blue;
            stroke-dashoffset: 421;
            stroke-width: 128;
          }
          58% {
            animation-timing-function: step-end;
            stroke: blue;
            stroke-dashoffset: 0;
            stroke-width: 128;
          }
          to {
            stroke: black;
            stroke-width: 1024;
          }
        }
        #make-me-a-hanzi-animation-13 {
          animation: keyframes13 0.5926106770833334s both;
          animation-delay: 9.395833333333334s;
          animation-timing-function: linear;
        }
      
        @keyframes keyframes14 {
          from {
            stroke: blue;
            stroke-dashoffset: 550;
            stroke-width: 128;
          }
          64% {
            animation-timing-function: step-end;
            stroke: blue;
            stroke-dashoffset: 0;
            stroke-width: 128;
          }
          to {
            stroke: black;
            stroke-width: 1024;
          }
        }
        #make-me-a-hanzi-animation-14 {
          animation: keyframes14 0.6975911458333334s both;
          animation-delay: 9.988444010416668s;
          animation-timing-function: linear;
        }
      
        @keyframes keyframes15 {
          from {
            stroke: blue;
            stroke-dashoffset: 644;
            stroke-width: 128;
          }
          68% {
            animation-timing-function: step-end;
            stroke: blue;
            stroke-dashoffset: 0;
            stroke-width: 128;
          }
          to {
            stroke: black;
            stroke-width: 1024;
          }
        }
        #make-me-a-hanzi-animation-15 {
          animation: keyframes15 0.7740885416666666s both;
          animation-delay: 10.686035156250002s;
          animation-timing-function: linear;
        }
      
        @keyframes keyframes16 {
          from {
            stroke: blue;
            stroke-dashoffset: 538;
            stroke-width: 128;
          }
          64% {
            animation-timing-function: step-end;
            stroke: blue;
            stroke-dashoffset: 0;
            stroke-width: 128;
          }
          to {
            stroke: black;
            stroke-width: 1024;
          }
        }
        #make-me-a-hanzi-animation-16 {
          animation: keyframes16 0.6878255208333334s both;
          animation-delay: 11.460123697916668s;
          animation-timing-function: linear;
        }
      
    </style>
    
      <path d="M 234 642 L 213 649 Q 212 649 198 652 Q 189 653 184 653 L 180 653 Q 172 650 171 645 L 171 643 Q 171 639 174 633 Q 180 625 182 621 Q 184 617 188 607 Q 192 597 194 572 Q 196 546 196 523 L 192 360 Q 190 278 187 228 Q 184 177 180 145 Q 175 113 169 86 L 157 42 Q 151 25 150 20 Q 149 13 149 6 Q 149 -1 150 -9 Q 153 -24 157 -39 Q 162 -54 168 -65 Q 176 -79 183 -79 Q 189 -78 196 -71 Q 202 -64 205 -47 L 210 -20 Q 212 -8 214 14 L 220 83 Q 224 128 226 171 L 238 409 L 240 440 L 242 516 L 244 542 L 247 620 C 248 638 248 638 234 642 Z" fill="lightgray"></path>
    
      <path d="M 348 429 L 352 412 Q 354 404 364 403 L 366 403 Q 374 403 380 411 Q 387 420 389 428 Q 391 435 398 468 L 418 570 Q 422 591 426 602 Q 429 614 434 621 Q 438 628 439 632 L 439 633 Q 439 639 431 646 Q 422 655 408 664 Q 394 673 382 678 Q 373 683 367 683 Q 366 683 364 682 Q 360 682 350 676 Q 340 671 315 663 Q 290 655 273 651 Q 257 647 234 642 C 205 636 218 614 247 620 L 342 638 Q 347 639 351 639 Q 359 639 362 636 Q 366 631 368 624 L 366 607 L 363 558 L 362 536 L 352 460 L 348 429 Z" fill="lightgray"></path>
    
      <path d="M 242 516 L 259 516 Q 262 516 280 520 L 302 524 L 362 536 C 391 542 392 550 363 558 L 348 562 Q 335 565 328 565 L 324 565 Q 320 564 314 562 L 292 556 Q 274 550 265 548 L 244 542 C 215 534 212 516 242 516 Z" fill="lightgray"></path>
    
      <path d="M 238 409 L 256 410 L 286 416 L 348 429 C 377 435 381 453 352 460 L 334 464 Q 330 464 320 461 L 270 448 L 240 440 C 211 432 208 407 238 409 Z" fill="lightgray"></path>
    
      <path d="M 644 688 L 626 696 Q 620 698 605 701 L 600 701 Q 593 701 591 699 Q 588 696 588 691 Q 588 686 596 675 Q 604 664 608 646 Q 612 626 613 602 L 615 520 Q 615 512 614 497 Q 612 482 612 476 Q 610 464 610 459 Q 610 454 615 442 Q 620 429 626 424 Q 630 420 636 420 Q 640 421 645 429 L 651 440 L 654 471 L 656 544 L 656 568 L 654 662 C 654 684 654 684 644 688 Z" fill="lightgray"></path>
    
      <path d="M 804 462 L 798 33 Q 798 20 796 -3 Q 794 -26 793 -36 Q 792 -45 787 -50 Q 783 -54 776 -55 Q 770 -55 748 -48 L 699 -33 Q 696 -32 694 -32 Q 690 -32 689 -36 L 689 -38 Q 689 -41 694 -46 L 727 -80 L 766 -123 Q 780 -141 786 -147 Q 792 -153 798 -153 L 799 -153 Q 803 -153 814 -144 Q 826 -134 838 -112 Q 849 -90 854 -57 Q 856 -42 856 -6 Q 856 21 855 59 Q 853 126 853 151 L 853 164 L 856 545 Q 856 599 857 613 Q 858 627 862 640 Q 866 652 870 659 L 876 668 Q 879 672 879 675 L 879 677 Q 878 681 868 691 Q 858 701 843 712 Q 828 722 820 726 Q 811 728 805 728 Q 802 728 793 724 Q 784 720 763 714 L 716 702 L 686 696 L 644 688 C 615 682 624 657 654 662 L 752 679 Q 766 682 776 682 Q 783 682 787 680 Q 795 677 799 669 Q 803 662 804 648 L 804 583 L 804 566 L 804 494 L 804 462 Z" fill="lightgray"></path>
    
      <path d="M 656 544 L 668 543 L 672 543 Q 678 543 694 545 L 718 548 L 771 556 Q 784 558 790 560 Q 796 562 804 566 C 824 576 824 576 804 583 L 790 588 Q 769 596 758 596 L 756 596 Q 752 595 744 592 Q 736 590 713 583 Q 691 576 680 574 L 656 568 C 627 561 626 546 656 544 Z" fill="lightgray"></path>
    
      <path d="M 651 440 L 680 442 Q 684 442 707 446 L 804 462 C 834 467 833 488 804 494 L 794 496 Q 791 497 785 497 L 780 497 Q 775 496 764 494 L 736 488 L 684 476 L 654 471 C 624 466 621 438 651 440 Z" fill="lightgray"></path>
    
      <path d="M 482 404 L 488 414 Q 491 421 495 427 Q 499 433 500 435 Q 500 442 495 449 Q 489 456 480 463 Q 470 470 463 474 Q 458 476 454 476 L 452 476 Q 448 476 446 472 Q 444 469 444 466 Q 444 464 445 457 Q 446 450 446 440 L 446 424 L 440 399 L 435 374 L 423 318 C 417 289 449 293 458 322 L 476 382 L 482 404 Z" fill="lightgray"></path>
    
      <path d="M 592 341 L 602 364 Q 605 372 612 380 Q 618 388 624 392 Q 628 396 630 399 Q 630 402 628 406 Q 625 410 619 413 Q 614 416 603 421 Q 593 427 585 430 Q 578 432 573 432 L 570 432 Q 566 432 558 428 Q 549 424 537 420 L 506 410 L 482 404 L 440 399 L 397 396 Q 392 395 392 390 L 392 389 Q 392 385 400 381 Q 408 376 414 375 Q 420 374 435 374 L 476 382 L 546 396 Q 549 397 552 397 Q 560 397 562 392 Q 564 389 564 384 Q 564 378 562 370 L 552 334 C 544 305 580 313 592 341 Z" fill="lightgray"></path>
    
      <path d="M 423 318 L 284 304 Q 278 303 278 300 L 278 299 Q 278 295 285 290 Q 292 284 302 280 Q 310 276 322 276 L 330 276 Q 336 276 355 280 Q 374 284 405 288 Q 436 292 481 296 Q 526 302 556 304 L 660 310 L 696 313 Q 710 314 713 316 Q 715 318 716 322 Q 716 324 712 328 Q 710 333 699 339 Q 689 345 679 348 Q 670 352 662 352 Q 654 352 634 348 L 592 341 L 552 334 L 458 322 L 423 318 Z" fill="lightgray"></path>
    
      <path d="M 420 254 L 410 258 Q 400 263 388 263 Q 378 262 376 259 Q 375 258 375 256 Q 375 253 378 250 L 384 244 Q 386 241 390 233 Q 394 226 396 218 L 406 155 Q 406 150 411 144 Q 415 138 420 138 Q 426 138 428 143 L 432 152 L 430 179 L 426 234 C 425 252 425 252 420 254 Z" fill="lightgray"></path>
    
      <path d="M 595 185 L 614 221 Q 615 224 620 230 Q 624 236 628 241 Q 633 245 634 247 Q 634 251 629 257 Q 623 263 612 270 Q 602 276 594 280 Q 586 284 580 284 Q 574 284 558 278 Q 542 272 511 268 L 472 262 L 420 254 C 390 249 396 230 426 234 L 546 251 L 552 251 Q 558 251 562 250 Q 567 247 569 243 Q 570 242 570 240 Q 570 235 566 226 L 554 192 C 544 164 581 158 595 185 Z" fill="lightgray"></path>
    
      <path d="M 504 159 L 595 164 Q 603 164 604 168 Q 605 169 605 171 Q 605 174 602 177 L 595 185 C 586 195 584 195 554 192 L 430 179 C 400 176 402 149 432 152 L 472 156 L 504 159 Z" fill="lightgray"></path>
    
      <path d="M 480 104 L 356 94 Q 350 94 349 90 L 349 89 Q 349 86 352 82 Q 356 78 362 73 C 368 68 372 68 402 70 L 480 75 L 517 78 L 614 88 Q 627 88 638 91 Q 649 94 652 99 L 652 105 Q 650 108 642 112 L 628 118 Q 614 124 606 124 Q 602 123 592 120 Q 582 117 558 114 L 520 108 L 480 104 Z" fill="lightgray"></path>
    
      <path d="M 362 73 L 362 61 Q 362 50 358 40 Q 354 28 351 24 Q 348 20 342 14 Q 337 9 336 6 L 336 5 Q 336 0 341 -12 Q 348 -26 353 -32 Q 358 -36 362 -37 L 363 -37 Q 367 -37 374 -33 L 384 -27 Q 390 -24 402 -20 Q 415 -16 443 -13 L 478 -10 L 514 -7 L 626 -4 L 670 -2 Q 675 -2 680 -1 Q 684 0 685 6 L 685 7 Q 685 11 680 16 Q 674 22 665 27 Q 656 32 648 36 Q 640 39 632 40 L 598 36 L 514 26 L 478 21 L 410 11 Q 406 10 403 10 Q 397 10 394 13 Q 393 14 393 16 Q 393 20 397 27 L 402 36 L 410 48 Q 412 50 413 52 L 413 53 Q 413 56 410 60 Q 408 64 402 70 C 383 93 362 103 362 73 Z" fill="lightgray"></path>
    
      <path d="M 478 -10 L 478 -67 Q 478 -79 479 -90 Q 481 -108 484 -117 Q 486 -126 490 -126 L 491 -126 Q 494 -126 499 -116 Q 504 -106 506 -86 Q 509 -66 511 -42 L 514 -7 L 514 26 L 517 78 L 520 108 L 524 121 L 527 128 Q 529 133 529 137 L 529 140 Q 528 146 521 150 Q 514 155 504 159 C 477 171 468 175 472 156 L 476 137 Q 476 134 478 123 Q 479 113 480 104 L 480 75 L 478 21 L 478 -10 Z" fill="lightgray"></path>
    
    
      <clipPath id="make-me-a-hanzi-clip-0">
        <path d="M 234 642 L 213 649 Q 212 649 198 652 Q 189 653 184 653 L 180 653 Q 172 650 171 645 L 171 643 Q 171 639 174 633 Q 180 625 182 621 Q 184 617 188 607 Q 192 597 194 572 Q 196 546 196 523 L 192 360 Q 190 278 187 228 Q 184 177 180 145 Q 175 113 169 86 L 157 42 Q 151 25 150 20 Q 149 13 149 6 Q 149 -1 150 -9 Q 153 -24 157 -39 Q 162 -54 168 -65 Q 176 -79 183 -79 Q 189 -78 196 -71 Q 202 -64 205 -47 L 210 -20 Q 212 -8 214 14 L 220 83 Q 224 128 226 171 L 238 409 L 240 440 L 242 516 L 244 542 L 247 620 C 248 638 248 638 234 642 Z"></path>
      </clipPath>
      <path clip-path="url(#make-me-a-hanzi-clip-0)" d="M 180 644 L 215 618 L 220 566 L 209 228 L 200 122 L 181 10 L 184 -67" fill="none" id="make-me-a-hanzi-animation-0" stroke-dasharray="859 1718" stroke-linecap="round"></path>
    
      <clipPath id="make-me-a-hanzi-clip-1">
        <path d="M 348 429 L 352 412 Q 354 404 364 403 L 366 403 Q 374 403 380 411 Q 387 420 389 428 Q 391 435 398 468 L 418 570 Q 422 591 426 602 Q 429 614 434 621 Q 438 628 439 632 L 439 633 Q 439 639 431 646 Q 422 655 408 664 Q 394 673 382 678 Q 373 683 367 683 Q 366 683 364 682 Q 360 682 350 676 Q 340 671 315 663 Q 290 655 273 651 Q 257 647 234 642 C 205 636 218 614 247 620 L 342 638 Q 347 639 351 639 Q 359 639 362 636 Q 366 631 368 624 L 366 607 L 363 558 L 362 536 L 352 460 L 348 429 Z"></path>
      </clipPath>
      <path clip-path="url(#make-me-a-hanzi-clip-1)" d="M 242 639 L 253 633 L 368 659 L 401 629 L 365 417" fill="none" id="make-me-a-hanzi-animation-1" stroke-dasharray="518 1036" stroke-linecap="round"></path>
    
      <clipPath id="make-me-a-hanzi-clip-2">
        <path d="M 242 516 L 259 516 Q 262 516 280 520 L 302 524 L 362 536 C 391 542 392 550 363 558 L 348 562 Q 335 565 328 565 L 324 565 Q 320 564 314 562 L 292 556 Q 274 550 265 548 L 244 542 C 215 534 212 516 242 516 Z"></path>
      </clipPath>
      <path clip-path="url(#make-me-a-hanzi-clip-2)" d="M 246 522 L 258 531 L 348 547 L 354 553" fill="none" id="make-me-a-hanzi-animation-2" stroke-dasharray="243 486" stroke-linecap="round"></path>
    
      <clipPath id="make-me-a-hanzi-clip-3">
        <path d="M 238 409 L 256 410 L 286 416 L 348 429 C 377 435 381 453 352 460 L 334 464 Q 330 464 320 461 L 270 448 L 240 440 C 211 432 208 407 238 409 Z"></path>
      </clipPath>
      <path clip-path="url(#make-me-a-hanzi-clip-3)" d="M 242 417 L 256 427 L 346 453" fill="none" id="make-me-a-hanzi-animation-3" stroke-dasharray="239 478" stroke-linecap="round"></path>
    
      <clipPath id="make-me-a-hanzi-clip-4">
        <path d="M 644 688 L 626 696 Q 620 698 605 701 L 600 701 Q 593 701 591 699 Q 588 696 588 691 Q 588 686 596 675 Q 604 664 608 646 Q 612 626 613 602 L 615 520 Q 615 512 614 497 Q 612 482 612 476 Q 610 464 610 459 Q 610 454 615 442 Q 620 429 626 424 Q 630 420 636 420 Q 640 421 645 429 L 651 440 L 654 471 L 656 544 L 656 568 L 654 662 C 654 684 654 684 644 688 Z"></path>
      </clipPath>
      <path clip-path="url(#make-me-a-hanzi-clip-4)" d="M 597 692 L 626 670 L 631 654 L 634 431" fill="none" id="make-me-a-hanzi-animation-4" stroke-dasharray="404 808" stroke-linecap="round"></path>
    
      <clipPath id="make-me-a-hanzi-clip-5">
        <path d="M 804 462 L 798 33 Q 798 20 796 -3 Q 794 -26 793 -36 Q 792 -45 787 -50 Q 783 -54 776 -55 Q 770 -55 748 -48 L 699 -33 Q 696 -32 694 -32 Q 690 -32 689 -36 L 689 -38 Q 689 -41 694 -46 L 727 -80 L 766 -123 Q 780 -141 786 -147 Q 792 -153 798 -153 L 799 -153 Q 803 -153 814 -144 Q 826 -134 838 -112 Q 849 -90 854 -57 Q 856 -42 856 -6 Q 856 21 855 59 Q 853 126 853 151 L 853 164 L 856 545 Q 856 599 857 613 Q 858 627 862 640 Q 866 652 870 659 L 876 668 Q 879 672 879 675 L 879 677 Q 878 681 868 691 Q 858 701 843 712 Q 828 722 820 726 Q 811 728 805 728 Q 802 728 793 724 Q 784 720 763 714 L 716 702 L 686 696 L 644 688 C 615 682 624 657 654 662 L 752 679 Q 766 682 776 682 Q 783 682 787 680 Q 795 677 799 669 Q 803 662 804 648 L 804 583 L 804 566 L 804 494 L 804 462 Z"></path>
      </clipPath>
      <path clip-path="url(#make-me-a-hanzi-clip-5)" d="M 652 684 L 673 678 L 795 701 L 811 699 L 836 670 L 830 616 L 824 -41 L 815 -72 L 798 -93 L 760 -79 L 694 -37" fill="none" id="make-me-a-hanzi-animation-5" stroke-dasharray="1218 2436" stroke-linecap="round"></path>
    
      <clipPath id="make-me-a-hanzi-clip-6">
        <path d="M 656 544 L 668 543 L 672 543 Q 678 543 694 545 L 718 548 L 771 556 Q 784 558 790 560 Q 796 562 804 566 C 824 576 824 576 804 583 L 790 588 Q 769 596 758 596 L 756 596 Q 752 595 744 592 Q 736 590 713 583 Q 691 576 680 574 L 656 568 C 627 561 626 546 656 544 Z"></path>
      </clipPath>
      <path clip-path="url(#make-me-a-hanzi-clip-6)" d="M 663 550 L 670 557 L 756 575 L 790 574 L 795 579" fill="none" id="make-me-a-hanzi-animation-6" stroke-dasharray="267 534" stroke-linecap="round"></path>
    
      <clipPath id="make-me-a-hanzi-clip-7">
        <path d="M 651 440 L 680 442 Q 684 442 707 446 L 804 462 C 834 467 833 488 804 494 L 794 496 Q 791 497 785 497 L 780 497 Q 775 496 764 494 L 736 488 L 684 476 L 654 471 C 624 466 621 438 651 440 Z"></path>
      </clipPath>
      <path clip-path="url(#make-me-a-hanzi-clip-7)" d="M 658 447 L 669 457 L 786 478 L 798 489" fill="none" id="make-me-a-hanzi-animation-7" stroke-dasharray="278 556" stroke-linecap="round"></path>
    
      <clipPath id="make-me-a-hanzi-clip-8">
        <path d="M 482 404 L 488 414 Q 491 421 495 427 Q 499 433 500 435 Q 500 442 495 449 Q 489 456 480 463 Q 470 470 463 474 Q 458 476 454 476 L 452 476 Q 448 476 446 472 Q 444 469 444 466 Q 444 464 445 457 Q 446 450 446 440 L 446 424 L 440 399 L 435 374 L 423 318 C 417 289 449 293 458 322 L 476 382 L 482 404 Z"></path>
      </clipPath>
      <path clip-path="url(#make-me-a-hanzi-clip-8)" d="M 453 468 L 471 432 L 448 349 L 428 324" fill="none" id="make-me-a-hanzi-animation-8" stroke-dasharray="286 572" stroke-linecap="round"></path>
    
      <clipPath id="make-me-a-hanzi-clip-9">
        <path d="M 592 341 L 602 364 Q 605 372 612 380 Q 618 388 624 392 Q 628 396 630 399 Q 630 402 628 406 Q 625 410 619 413 Q 614 416 603 421 Q 593 427 585 430 Q 578 432 573 432 L 570 432 Q 566 432 558 428 Q 549 424 537 420 L 506 410 L 482 404 L 440 399 L 397 396 Q 392 395 392 390 L 392 389 Q 392 385 400 381 Q 408 376 414 375 Q 420 374 435 374 L 476 382 L 546 396 Q 549 397 552 397 Q 560 397 562 392 Q 564 389 564 384 Q 564 378 562 370 L 552 334 C 544 305 580 313 592 341 Z"></path>
      </clipPath>
      <path clip-path="url(#make-me-a-hanzi-clip-9)" d="M 399 390 L 440 386 L 547 410 L 575 410 L 590 397 L 589 391 L 578 358 L 558 339" fill="none" id="make-me-a-hanzi-animation-9" stroke-dasharray="395 790" stroke-linecap="round"></path>
    
      <clipPath id="make-me-a-hanzi-clip-10">
        <path d="M 423 318 L 284 304 Q 278 303 278 300 L 278 299 Q 278 295 285 290 Q 292 284 302 280 Q 310 276 322 276 L 330 276 Q 336 276 355 280 Q 374 284 405 288 Q 436 292 481 296 Q 526 302 556 304 L 660 310 L 696 313 Q 710 314 713 316 Q 715 318 716 322 Q 716 324 712 328 Q 710 333 699 339 Q 689 345 679 348 Q 670 352 662 352 Q 654 352 634 348 L 592 341 L 552 334 L 458 322 L 423 318 Z"></path>
      </clipPath>
      <path clip-path="url(#make-me-a-hanzi-clip-10)" d="M 283 300 L 333 292 L 658 331 L 709 322" fill="none" id="make-me-a-hanzi-animation-10" stroke-dasharray="558 1116" stroke-linecap="round"></path>
    
      <clipPath id="make-me-a-hanzi-clip-11">
        <path d="M 420 254 L 410 258 Q 400 263 388 263 Q 378 262 376 259 Q 375 258 375 256 Q 375 253 378 250 L 384 244 Q 386 241 390 233 Q 394 226 396 218 L 406 155 Q 406 150 411 144 Q 415 138 420 138 Q 426 138 428 143 L 432 152 L 430 179 L 426 234 C 425 252 425 252 420 254 Z"></path>
      </clipPath>
      <path clip-path="url(#make-me-a-hanzi-clip-11)" d="M 382 256 L 409 234 L 420 147" fill="none" id="make-me-a-hanzi-animation-11" stroke-dasharray="251 502" stroke-linecap="round"></path>
    
      <clipPath id="make-me-a-hanzi-clip-12">
        <path d="M 595 185 L 614 221 Q 615 224 620 230 Q 624 236 628 241 Q 633 245 634 247 Q 634 251 629 257 Q 623 263 612 270 Q 602 276 594 280 Q 586 284 580 284 Q 574 284 558 278 Q 542 272 511 268 L 472 262 L 420 254 C 390 249 396 230 426 234 L 546 251 L 552 251 Q 558 251 562 250 Q 567 247 569 243 Q 570 242 570 240 Q 570 235 566 226 L 554 192 C 544 164 581 158 595 185 Z"></path>
      </clipPath>
      <path clip-path="url(#make-me-a-hanzi-clip-12)" d="M 427 251 L 434 245 L 549 263 L 581 262 L 595 250 L 596 240 L 583 209 L 562 196" fill="none" id="make-me-a-hanzi-animation-12" stroke-dasharray="372 744" stroke-linecap="round"></path>
    
      <clipPath id="make-me-a-hanzi-clip-13">
        <path d="M 504 159 L 595 164 Q 603 164 604 168 Q 605 169 605 171 Q 605 174 602 177 L 595 185 C 586 195 584 195 554 192 L 430 179 C 400 176 402 149 432 152 L 472 156 L 504 159 Z"></path>
      </clipPath>
      <path clip-path="url(#make-me-a-hanzi-clip-13)" d="M 438 159 L 445 167 L 501 174 L 599 172" fill="none" id="make-me-a-hanzi-animation-13" stroke-dasharray="293 586" stroke-linecap="round"></path>
    
      <clipPath id="make-me-a-hanzi-clip-14">
        <path d="M 480 104 L 356 94 Q 350 94 349 90 L 349 89 Q 349 86 352 82 Q 356 78 362 73 C 368 68 372 68 402 70 L 480 75 L 517 78 L 614 88 Q 627 88 638 91 Q 649 94 652 99 L 652 105 Q 650 108 642 112 L 628 118 Q 614 124 606 124 Q 602 123 592 120 Q 582 117 558 114 L 520 108 L 480 104 Z"></path>
      </clipPath>
      <path clip-path="url(#make-me-a-hanzi-clip-14)" d="M 354 90 L 369 83 L 409 84 L 536 94 L 608 106 L 645 102" fill="none" id="make-me-a-hanzi-animation-14" stroke-dasharray="422 844" stroke-linecap="round"></path>
    
      <clipPath id="make-me-a-hanzi-clip-15">
        <path d="M 362 73 L 362 61 Q 362 50 358 40 Q 354 28 351 24 Q 348 20 342 14 Q 337 9 336 6 L 336 5 Q 336 0 341 -12 Q 348 -26 353 -32 Q 358 -36 362 -37 L 363 -37 Q 367 -37 374 -33 L 384 -27 Q 390 -24 402 -20 Q 415 -16 443 -13 L 478 -10 L 514 -7 L 626 -4 L 670 -2 Q 675 -2 680 -1 Q 684 0 685 6 L 685 7 Q 685 11 680 16 Q 674 22 665 27 Q 656 32 648 36 Q 640 39 632 40 L 598 36 L 514 26 L 478 21 L 410 11 Q 406 10 403 10 Q 397 10 394 13 Q 393 14 393 16 Q 393 20 397 27 L 402 36 L 410 48 Q 412 50 413 52 L 413 53 Q 413 56 410 60 Q 408 64 402 70 C 383 93 362 103 362 73 Z"></path>
      </clipPath>
      <path clip-path="url(#make-me-a-hanzi-clip-15)" d="M 408 53 L 384 49 L 368 0 L 404 -5 L 629 18 L 677 7" fill="none" id="make-me-a-hanzi-animation-15" stroke-dasharray="516 1032" stroke-linecap="round"></path>
    
      <clipPath id="make-me-a-hanzi-clip-16">
        <path d="M 478 -10 L 478 -67 Q 478 -79 479 -90 Q 481 -108 484 -117 Q 486 -126 490 -126 L 491 -126 Q 494 -126 499 -116 Q 504 -106 506 -86 Q 509 -66 511 -42 L 514 -7 L 514 26 L 517 78 L 520 108 L 524 121 L 527 128 Q 529 133 529 137 L 529 140 Q 528 146 521 150 Q 514 155 504 159 C 477 171 468 175 472 156 L 476 137 Q 476 134 478 123 Q 479 113 480 104 L 480 75 L 478 21 L 478 -10 Z"></path>
      </clipPath>
      <path clip-path="url(#make-me-a-hanzi-clip-16)" d="M 478 152 L 501 132 L 491 -119" fill="none" id="make-me-a-hanzi-animation-16" stroke-dasharray="410 820" stroke-linecap="round"></path>
    
  </g>
</svg>