<svg version="1.1" viewBox="0 0 1024 1024" xmlns="http://www.w3.org/2000/svg">
  <g stroke="lightgray" stroke-dasharray="1,1" stroke-width="1" transform="scale(4, 4)">
    <line x1="0" y1="0" x2="256" y2="256"></line>
    <line x1="256" y1="0" x2="0" y2="256"></line>
    <line x1="128" y1="0" x2="128" y2="256"></line>
    <line x1="0" y1="128" x2="256" y2="128"></line>
  </g>
  <g transform="scale(0.92, -0.92) translate(60, -830)">
    <style type="text/css">
      
        @keyframes keyframes0 {
          from {
            stroke: blue;
            stroke-dashoffset: 380;
            stroke-width: 128;
          }
          55% {
            animation-timing-function: step-end;
            stroke: blue;
            stroke-dashoffset: 0;
            stroke-width: 128;
          }
          to {
            stroke: black;
            stroke-width: 1024;
          }
        }
        #make-me-a-hanzi-animation-0 {
          animation: keyframes0 0.5592447916666666s both;
          animation-delay: 0s;
          animation-timing-function: linear;
        }
      
        @keyframes keyframes1 {
          from {
            stroke: blue;
            stroke-dashoffset: 924;
            stroke-width: 128;
          }
          75% {
            animation-timing-function: step-end;
            stroke: blue;
            stroke-dashoffset: 0;
            stroke-width: 128;
          }
          to {
            stroke: black;
            stroke-width: 1024;
          }
        }
        #make-me-a-hanzi-animation-1 {
          animation: keyframes1 1.001953125s both;
          animation-delay: 0.5592447916666666s;
          animation-timing-function: linear;
        }
      
        @keyframes keyframes2 {
          from {
            stroke: blue;
            stroke-dashoffset: 1399;
            stroke-width: 128;
          }
          82% {
            animation-timing-function: step-end;
            stroke: blue;
            stroke-dashoffset: 0;
            stroke-width: 128;
          }
          to {
            stroke: black;
            stroke-width: 1024;
          }
        }
        #make-me-a-hanzi-animation-2 {
          animation: keyframes2 1.3885091145833333s both;
          animation-delay: 1.5611979166666665s;
          animation-timing-function: linear;
        }
      
        @keyframes keyframes3 {
          from {
            stroke: blue;
            stroke-dashoffset: 379;
            stroke-width: 128;
          }
          55% {
            animation-timing-function: step-end;
            stroke: blue;
            stroke-dashoffset: 0;
            stroke-width: 128;
          }
          to {
            stroke: black;
            stroke-width: 1024;
          }
        }
        #make-me-a-hanzi-animation-3 {
          animation: keyframes3 0.5584309895833334s both;
          animation-delay: 2.94970703125s;
          animation-timing-function: linear;
        }
      
        @keyframes keyframes4 {
          from {
            stroke: blue;
            stroke-dashoffset: 605;
            stroke-width: 128;
          }
          66% {
            animation-timing-function: step-end;
            stroke: blue;
            stroke-dashoffset: 0;
            stroke-width: 128;
          }
          to {
            stroke: black;
            stroke-width: 1024;
          }
        }
        #make-me-a-hanzi-animation-4 {
          animation: keyframes4 0.7423502604166666s both;
          animation-delay: 3.5081380208333335s;
          animation-timing-function: linear;
        }
      
        @keyframes keyframes5 {
          from {
            stroke: blue;
            stroke-dashoffset: 505;
            stroke-width: 128;
          }
          62% {
            animation-timing-function: step-end;
            stroke: blue;
            stroke-dashoffset: 0;
            stroke-width: 128;
          }
          to {
            stroke: black;
            stroke-width: 1024;
          }
        }
        #make-me-a-hanzi-animation-5 {
          animation: keyframes5 0.6609700520833334s both;
          animation-delay: 4.25048828125s;
          animation-timing-function: linear;
        }
      
        @keyframes keyframes6 {
          from {
            stroke: blue;
            stroke-dashoffset: 614;
            stroke-width: 128;
          }
          67% {
            animation-timing-function: step-end;
            stroke: blue;
            stroke-dashoffset: 0;
            stroke-width: 128;
          }
          to {
            stroke: black;
            stroke-width: 1024;
          }
        }
        #make-me-a-hanzi-animation-6 {
          animation: keyframes6 0.7496744791666666s both;
          animation-delay: 4.911458333333333s;
          animation-timing-function: linear;
        }
      
        @keyframes keyframes7 {
          from {
            stroke: blue;
            stroke-dashoffset: 551;
            stroke-width: 128;
          }
          64% {
            animation-timing-function: step-end;
            stroke: blue;
            stroke-dashoffset: 0;
            stroke-width: 128;
          }
          to {
            stroke: black;
            stroke-width: 1024;
          }
        }
        #make-me-a-hanzi-animation-7 {
          animation: keyframes7 0.6984049479166666s both;
          animation-delay: 5.6611328125s;
          animation-timing-function: linear;
        }
      
        @keyframes keyframes8 {
          from {
            stroke: blue;
            stroke-dashoffset: 379;
            stroke-width: 128;
          }
          55% {
            animation-timing-function: step-end;
            stroke: blue;
            stroke-dashoffset: 0;
            stroke-width: 128;
          }
          to {
            stroke: black;
            stroke-width: 1024;
          }
        }
        #make-me-a-hanzi-animation-8 {
          animation: keyframes8 0.5584309895833334s both;
          animation-delay: 6.359537760416667s;
          animation-timing-function: linear;
        }
      
    </style>
    
      <path d="M 301 677 Q 368 599 394 597 Q 410 596 417 616 Q 418 632 408 655 Q 396 674 368 685 Q 325 704 307 708 Q 295 711 295 697 Q 294 687 301 677 Z" fill="lightgray"></path>
    
      <path d="M 176 600 Q 203 534 201 466 Q 207 199 162 58 Q 144 1 177 -41 L 179 -43 Q 192 -58 202 -43 Q 238 -6 239 160 Q 239 464 256 557 Q 256 563 257 565 Q 258 584 242 595 Q 217 616 189 624 Q 179 627 172 618 Q 168 611 176 600 Z" fill="lightgray"></path>
    
      <path d="M 519 670 Q 503 671 507 660 Q 514 647 536 637 Q 548 628 611 642 Q 740 676 756 654 Q 772 645 778 571 Q 794 321 780 39 Q 779 -3 763 -14 Q 748 -23 683 0 Q 665 4 666 -5 Q 666 -12 679 -21 Q 737 -73 767 -111 Q 789 -133 802 -130 Q 815 -127 827 -98 Q 845 -52 846 18 Q 830 418 833 566 Q 834 606 847 631 Q 860 653 849 665 Q 839 681 791 706 Q 770 718 710 700 Q 590 678 519 670 Z" fill="lightgray"></path>
    
      <path d="M 468 524 Q 495 508 523 486 Q 536 476 549 479 Q 559 480 561 492 Q 564 505 552 530 Q 545 546 517 555 Q 450 570 440 563 Q 436 559 439 548 Q 443 539 468 524 Z" fill="lightgray"></path>
    
      <path d="M 476 400 Q 527 413 672 434 Q 682 433 689 444 Q 690 454 670 464 Q 645 483 554 456 Q 538 453 522 449 Q 482 440 339 418 Q 314 414 334 399 Q 367 375 392 384 Q 411 388 436 392 L 476 400 Z" fill="lightgray"></path>
    
      <path d="M 479 265 Q 448 268 423 268 Q 401 269 413 283 Q 450 323 484 351 Q 497 363 496 369 Q 495 379 476 400 C 456 423 443 421 436 392 Q 424 331 365 283 Q 347 283 344 262 Q 344 244 356 228 Q 363 219 375 224 Q 393 233 460 244 C 490 249 509 262 479 265 Z" fill="lightgray"></path>
    
      <path d="M 460 244 Q 453 238 448 231 Q 415 197 312 118 Q 296 106 317 109 Q 392 113 537 269 Q 543 282 593 332 Q 600 342 599 349 Q 598 359 576 366 Q 554 373 544 372 Q 538 371 536 360 Q 530 330 479 265 L 460 244 Z" fill="lightgray"></path>
    
      <path d="M 574 176 Q 587 191 640 244 Q 649 253 647 261 Q 646 271 624 278 Q 602 287 592 284 Q 586 283 584 273 Q 568 201 400 78 Q 384 66 405 68 Q 439 71 540 146 Q 546 152 554 157 L 574 176 Z" fill="lightgray"></path>
    
      <path d="M 554 157 Q 560 151 573 141 Q 603 116 634 87 Q 644 77 657 78 Q 666 78 669 89 Q 673 99 666 123 Q 662 142 632 157 Q 605 167 574 176 C 545 184 532 178 554 157 Z" fill="lightgray"></path>
    
    
      <clipPath id="make-me-a-hanzi-clip-0">
        <path d="M 301 677 Q 368 599 394 597 Q 410 596 417 616 Q 418 632 408 655 Q 396 674 368 685 Q 325 704 307 708 Q 295 711 295 697 Q 294 687 301 677 Z"></path>
      </clipPath>
      <path clip-path="url(#make-me-a-hanzi-clip-0)" d="M 304 700 L 376 645 L 395 618" fill="none" id="make-me-a-hanzi-animation-0" stroke-dasharray="252 504" stroke-linecap="round"></path>
    
      <clipPath id="make-me-a-hanzi-clip-1">
        <path d="M 176 600 Q 203 534 201 466 Q 207 199 162 58 Q 144 1 177 -41 L 179 -43 Q 192 -58 202 -43 Q 238 -6 239 160 Q 239 464 256 557 Q 256 563 257 565 Q 258 584 242 595 Q 217 616 189 624 Q 179 627 172 618 Q 168 611 176 600 Z"></path>
      </clipPath>
      <path clip-path="url(#make-me-a-hanzi-clip-1)" d="M 182 613 L 223 565 L 225 496 L 219 241 L 210 125 L 191 19 L 191 -38" fill="none" id="make-me-a-hanzi-animation-1" stroke-dasharray="796 1592" stroke-linecap="round"></path>
    
      <clipPath id="make-me-a-hanzi-clip-2">
        <path d="M 519 670 Q 503 671 507 660 Q 514 647 536 637 Q 548 628 611 642 Q 740 676 756 654 Q 772 645 778 571 Q 794 321 780 39 Q 779 -3 763 -14 Q 748 -23 683 0 Q 665 4 666 -5 Q 666 -12 679 -21 Q 737 -73 767 -111 Q 789 -133 802 -130 Q 815 -127 827 -98 Q 845 -52 846 18 Q 830 418 833 566 Q 834 606 847 631 Q 860 653 849 665 Q 839 681 791 706 Q 770 718 710 700 Q 590 678 519 670 Z"></path>
      </clipPath>
      <path clip-path="url(#make-me-a-hanzi-clip-2)" d="M 517 661 L 560 654 L 745 685 L 776 679 L 808 647 L 804 585 L 814 136 L 810 -5 L 787 -58 L 744 -45 L 674 -6" fill="none" id="make-me-a-hanzi-animation-2" stroke-dasharray="1271 2542" stroke-linecap="round"></path>
    
      <clipPath id="make-me-a-hanzi-clip-3">
        <path d="M 468 524 Q 495 508 523 486 Q 536 476 549 479 Q 559 480 561 492 Q 564 505 552 530 Q 545 546 517 555 Q 450 570 440 563 Q 436 559 439 548 Q 443 539 468 524 Z"></path>
      </clipPath>
      <path clip-path="url(#make-me-a-hanzi-clip-3)" d="M 446 555 L 515 527 L 548 492" fill="none" id="make-me-a-hanzi-animation-3" stroke-dasharray="251 502" stroke-linecap="round"></path>
    
      <clipPath id="make-me-a-hanzi-clip-4">
        <path d="M 476 400 Q 527 413 672 434 Q 682 433 689 444 Q 690 454 670 464 Q 645 483 554 456 Q 538 453 522 449 Q 482 440 339 418 Q 314 414 334 399 Q 367 375 392 384 Q 411 388 436 392 L 476 400 Z"></path>
      </clipPath>
      <path clip-path="url(#make-me-a-hanzi-clip-4)" d="M 335 409 L 382 403 L 590 445 L 646 451 L 679 446" fill="none" id="make-me-a-hanzi-animation-4" stroke-dasharray="477 954" stroke-linecap="round"></path>
    
      <clipPath id="make-me-a-hanzi-clip-5">
        <path d="M 479 265 Q 448 268 423 268 Q 401 269 413 283 Q 450 323 484 351 Q 497 363 496 369 Q 495 379 476 400 C 456 423 443 421 436 392 Q 424 331 365 283 Q 347 283 344 262 Q 344 244 356 228 Q 363 219 375 224 Q 393 233 460 244 C 490 249 509 262 479 265 Z"></path>
      </clipPath>
      <path clip-path="url(#make-me-a-hanzi-clip-5)" d="M 483 369 L 459 368 L 395 287 L 383 259 L 448 252 L 471 263" fill="none" id="make-me-a-hanzi-animation-5" stroke-dasharray="377 754" stroke-linecap="round"></path>
    
      <clipPath id="make-me-a-hanzi-clip-6">
        <path d="M 460 244 Q 453 238 448 231 Q 415 197 312 118 Q 296 106 317 109 Q 392 113 537 269 Q 543 282 593 332 Q 600 342 599 349 Q 598 359 576 366 Q 554 373 544 372 Q 538 371 536 360 Q 530 330 479 265 L 460 244 Z"></path>
      </clipPath>
      <path clip-path="url(#make-me-a-hanzi-clip-6)" d="M 586 347 L 556 335 L 500 257 L 431 189 L 354 132 L 320 117" fill="none" id="make-me-a-hanzi-animation-6" stroke-dasharray="486 972" stroke-linecap="round"></path>
    
      <clipPath id="make-me-a-hanzi-clip-7">
        <path d="M 574 176 Q 587 191 640 244 Q 649 253 647 261 Q 646 271 624 278 Q 602 287 592 284 Q 586 283 584 273 Q 568 201 400 78 Q 384 66 405 68 Q 439 71 540 146 Q 546 152 554 157 L 574 176 Z"></path>
      </clipPath>
      <path clip-path="url(#make-me-a-hanzi-clip-7)" d="M 633 258 L 609 253 L 562 193 L 503 138 L 408 76" fill="none" id="make-me-a-hanzi-animation-7" stroke-dasharray="423 846" stroke-linecap="round"></path>
    
      <clipPath id="make-me-a-hanzi-clip-8">
        <path d="M 554 157 Q 560 151 573 141 Q 603 116 634 87 Q 644 77 657 78 Q 666 78 669 89 Q 673 99 666 123 Q 662 142 632 157 Q 605 167 574 176 C 545 184 532 178 554 157 Z"></path>
      </clipPath>
      <path clip-path="url(#make-me-a-hanzi-clip-8)" d="M 562 158 L 579 157 L 617 137 L 640 118 L 657 90" fill="none" id="make-me-a-hanzi-animation-8" stroke-dasharray="251 502" stroke-linecap="round"></path>
    
  </g>
</svg>