<svg xmlns="http://www.w3.org/2000/svg" version="1.1" viewBox="0 0 1024 1024">
  <g stroke="lightgray" stroke-dasharray="1,1" stroke-width="1" transform="scale(4, 4)">
    <line x1="0" y1="0" x2="256" y2="256" />
    <line x1="256" y1="0" x2="0" y2="256" />
    <line x1="128" y1="0" x2="128" y2="256" />
    <line x1="0" y1="128" x2="256" y2="128" />
  </g>
  <g transform="scale(1.0, -1.0) translate(0.0, -803.50)">
    <style type="text/css">
      
        @keyframes keyframes0 {
          from {
            stroke: blue;
            stroke-dashoffset: 369;
            stroke-width: 128;
          }
          55% {
            animation-timing-function: step-end;
            stroke: blue;
            stroke-dashoffset: 0;
            stroke-width: 128;
          }
          to {
            stroke: black;
            stroke-width: 1024;
          }
        }
        #make-me-a-hanzi-animation-0 {
          animation: keyframes0 0.55029296875s both;
          animation-delay: 0s;
          animation-timing-function: linear;
        }
      
        @keyframes keyframes1 {
          from {
            stroke: blue;
            stroke-dashoffset: 924;
            stroke-width: 128;
          }
          75% {
            animation-timing-function: step-end;
            stroke: blue;
            stroke-dashoffset: 0;
            stroke-width: 128;
          }
          to {
            stroke: black;
            stroke-width: 1024;
          }
        }
        #make-me-a-hanzi-animation-1 {
          animation: keyframes1 1.001953125s both;
          animation-delay: 0.55029296875s;
          animation-timing-function: linear;
        }
      
        @keyframes keyframes2 {
          from {
            stroke: blue;
            stroke-dashoffset: 1398;
            stroke-width: 128;
          }
          82% {
            animation-timing-function: step-end;
            stroke: blue;
            stroke-dashoffset: 0;
            stroke-width: 128;
          }
          to {
            stroke: black;
            stroke-width: 1024;
          }
        }
        #make-me-a-hanzi-animation-2 {
          animation: keyframes2 1.3876953125s both;
          animation-delay: 1.55224609375s;
          animation-timing-function: linear;
        }
      
        @keyframes keyframes3 {
          from {
            stroke: blue;
            stroke-dashoffset: 353;
            stroke-width: 128;
          }
          53% {
            animation-timing-function: step-end;
            stroke: blue;
            stroke-dashoffset: 0;
            stroke-width: 128;
          }
          to {
            stroke: black;
            stroke-width: 1024;
          }
        }
        #make-me-a-hanzi-animation-3 {
          animation: keyframes3 0.5372721354166666s both;
          animation-delay: 2.93994140625s;
          animation-timing-function: linear;
        }
      
        @keyframes keyframes4 {
          from {
            stroke: blue;
            stroke-dashoffset: 328;
            stroke-width: 128;
          }
          52% {
            animation-timing-function: step-end;
            stroke: blue;
            stroke-dashoffset: 0;
            stroke-width: 128;
          }
          to {
            stroke: black;
            stroke-width: 1024;
          }
        }
        #make-me-a-hanzi-animation-4 {
          animation: keyframes4 0.5169270833333334s both;
          animation-delay: 3.4772135416666665s;
          animation-timing-function: linear;
        }
      
        @keyframes keyframes5 {
          from {
            stroke: blue;
            stroke-dashoffset: 458;
            stroke-width: 128;
          }
          60% {
            animation-timing-function: step-end;
            stroke: blue;
            stroke-dashoffset: 0;
            stroke-width: 128;
          }
          to {
            stroke: black;
            stroke-width: 1024;
          }
        }
        #make-me-a-hanzi-animation-5 {
          animation: keyframes5 0.6227213541666666s both;
          animation-delay: 3.994140625s;
          animation-timing-function: linear;
        }
      
        @keyframes keyframes6 {
          from {
            stroke: blue;
            stroke-dashoffset: 486;
            stroke-width: 128;
          }
          61% {
            animation-timing-function: step-end;
            stroke: blue;
            stroke-dashoffset: 0;
            stroke-width: 128;
          }
          to {
            stroke: black;
            stroke-width: 1024;
          }
        }
        #make-me-a-hanzi-animation-6 {
          animation: keyframes6 0.6455078125s both;
          animation-delay: 4.616861979166667s;
          animation-timing-function: linear;
        }
      
        @keyframes keyframes7 {
          from {
            stroke: blue;
            stroke-dashoffset: 581;
            stroke-width: 128;
          }
          65% {
            animation-timing-function: step-end;
            stroke: blue;
            stroke-dashoffset: 0;
            stroke-width: 128;
          }
          to {
            stroke: black;
            stroke-width: 1024;
          }
        }
        #make-me-a-hanzi-animation-7 {
          animation: keyframes7 0.7228190104166666s both;
          animation-delay: 5.262369791666667s;
          animation-timing-function: linear;
        }
      
        @keyframes keyframes8 {
          from {
            stroke: blue;
            stroke-dashoffset: 447;
            stroke-width: 128;
          }
          59% {
            animation-timing-function: step-end;
            stroke: blue;
            stroke-dashoffset: 0;
            stroke-width: 128;
          }
          to {
            stroke: black;
            stroke-width: 1024;
          }
        }
        #make-me-a-hanzi-animation-8 {
          animation: keyframes8 0.61376953125s both;
          animation-delay: 5.985188802083334s;
          animation-timing-function: linear;
        }
      
        @keyframes keyframes9 {
          from {
            stroke: blue;
            stroke-dashoffset: 418;
            stroke-width: 128;
          }
          58% {
            animation-timing-function: step-end;
            stroke: blue;
            stroke-dashoffset: 0;
            stroke-width: 128;
          }
          to {
            stroke: black;
            stroke-width: 1024;
          }
        }
        #make-me-a-hanzi-animation-9 {
          animation: keyframes9 0.5901692708333334s both;
          animation-delay: 6.598958333333334s;
          animation-timing-function: linear;
        }
      
        @keyframes keyframes10 {
          from {
            stroke: blue;
            stroke-dashoffset: 538;
            stroke-width: 128;
          }
          64% {
            animation-timing-function: step-end;
            stroke: blue;
            stroke-dashoffset: 0;
            stroke-width: 128;
          }
          to {
            stroke: black;
            stroke-width: 1024;
          }
        }
        #make-me-a-hanzi-animation-10 {
          animation: keyframes10 0.6878255208333334s both;
          animation-delay: 7.189127604166667s;
          animation-timing-function: linear;
        }
      
        @keyframes keyframes11 {
          from {
            stroke: blue;
            stroke-dashoffset: 428;
            stroke-width: 128;
          }
          58% {
            animation-timing-function: step-end;
            stroke: blue;
            stroke-dashoffset: 0;
            stroke-width: 128;
          }
          to {
            stroke: black;
            stroke-width: 1024;
          }
        }
        #make-me-a-hanzi-animation-11 {
          animation: keyframes11 0.5983072916666666s both;
          animation-delay: 7.876953125s;
          animation-timing-function: linear;
        }
      
    </style>
    
      <path d="M 307 661 Q 379 589 404 591 Q 419 591 424 611 Q 424 624 412 645 Q 399 664 371 671 Q 328 687 309 689 Q 299 690 299 678 Q 298 669 307 661 Z" fill="lightgray" />
    
      <path d="M 188 596 Q 215 530 213 462 Q 214 185 170 54 Q 152 0 185 -45 L 187 -47 Q 200 -62 210 -47 Q 249 -7 249 156 Q 249 450 268 561 Q 271 580 254 591 Q 229 612 201 621 Q 191 622 184 614 Q 180 607 188 596 Z" fill="lightgray" />
    
      <path d="M 519 666 Q 503 667 507 656 Q 514 643 536 633 Q 548 624 611 638 Q 740 672 756 650 Q 772 641 778 567 Q 797 320 785 39 Q 784 -3 769 -14 Q 753 -21 687 7 Q 671 13 670 3 Q 670 -6 682 -13 Q 740 -68 770 -110 Q 791 -131 804 -129 Q 817 -126 830 -97 Q 848 -51 849 18 Q 831 415 834 563 Q 835 603 847 627 Q 860 649 849 661 Q 839 677 791 702 Q 770 714 710 696 Q 590 674 519 666 Z" fill="lightgray" />
    
      <path d="M 351 442 Q 397 405 410 405 Q 417 406 421 416 Q 424 428 416 450 Q 407 471 345 479 Q 332 480 328 479 Q 324 475 326 465 Q 330 458 351 442 Z" fill="lightgray" />
    
      <path d="M 304 345 Q 344 297 367 296 Q 380 296 384 312 Q 384 324 375 341 Q 360 362 307 368 Q 298 369 298 359 Q 297 352 304 345 Z" fill="lightgray" />
    
      <path d="M 306 165 Q 297 164 297 151 Q 300 97 325 81 Q 329 77 337 77 Q 343 78 345 96 Q 349 121 408 249 Q 414 259 414 264 Q 414 271 407 267 Q 403 266 328 182 Q 321 173 306 165 Z" fill="lightgray" />
    
      <path d="M 567 455 Q 624 480 655 486 Q 668 486 671 492 Q 674 501 664 509 Q 618 542 592 539 Q 586 536 586 527 Q 586 500 452 433 Q 448 426 453 424 Q 472 424 523 442 Q 526 443 533 444 L 567 455 Z" fill="lightgray" />
    
      <path d="M 584 349 Q 639 359 737 359 Q 752 360 755 366 Q 759 376 746 385 Q 700 415 653 399 Q 625 395 589 384 L 546 376 Q 485 366 417 353 Q 401 352 413 339 Q 423 329 438 325 Q 454 322 466 326 Q 503 338 546 344 L 584 349 Z" fill="lightgray" />
    
      <path d="M 574 269 Q 578 311 584 349 L 589 384 Q 588 385 589 385 Q 595 404 600 425 Q 603 432 590 443 L 567 455 C 540 469 522 472 533 444 Q 540 431 546 381 Q 545 380 546 376 L 546 344 Q 545 305 543 262 C 542 232 571 239 574 269 Z" fill="lightgray" />
    
      <path d="M 472 251 Q 462 255 451 256 Q 441 257 438 254 Q 434 248 441 235 Q 460 198 475 133 Q 479 114 490 101 Q 506 83 510 97 Q 513 107 512 123 L 507 152 Q 498 210 498 227 C 498 242 498 242 472 251 Z" fill="lightgray" />
    
      <path d="M 670 168 Q 691 217 710 227 Q 723 242 712 256 Q 699 266 658 286 Q 649 292 574 269 L 543 262 Q 509 258 472 251 C 442 246 469 221 498 227 Q 544 236 617 247 Q 630 250 635 244 Q 641 240 640 228 Q 636 198 629 173 C 621 144 658 141 670 168 Z" fill="lightgray" />
    
      <path d="M 512 123 Q 519 122 529 124 Q 577 133 681 138 Q 690 139 691 146 Q 691 153 670 168 C 660 175 659 175 629 173 Q 628 174 625 173 Q 559 158 507 152 C 477 148 482 125 512 123 Z" fill="lightgray" />
    
    
      <clipPath id="make-me-a-hanzi-clip-0">
        <path d="M 307 661 Q 379 589 404 591 Q 419 591 424 611 Q 424 624 412 645 Q 399 664 371 671 Q 328 687 309 689 Q 299 690 299 678 Q 298 669 307 661 Z" />
      </clipPath>
      <path clip-path="url(#make-me-a-hanzi-clip-0)" d="M 311 677 L 382 634 L 403 612" fill="none" id="make-me-a-hanzi-animation-0" stroke-dasharray="241 482" stroke-linecap="round" />
    
      <clipPath id="make-me-a-hanzi-clip-1">
        <path d="M 188 596 Q 215 530 213 462 Q 214 185 170 54 Q 152 0 185 -45 L 187 -47 Q 200 -62 210 -47 Q 249 -7 249 156 Q 249 450 268 561 Q 271 580 254 591 Q 229 612 201 621 Q 191 622 184 614 Q 180 607 188 596 Z" />
      </clipPath>
      <path clip-path="url(#make-me-a-hanzi-clip-1)" d="M 194 609 L 229 572 L 236 542 L 228 232 L 217 100 L 200 17 L 199 -42" fill="none" id="make-me-a-hanzi-animation-1" stroke-dasharray="796 1592" stroke-linecap="round" />
    
      <clipPath id="make-me-a-hanzi-clip-2">
        <path d="M 519 666 Q 503 667 507 656 Q 514 643 536 633 Q 548 624 611 638 Q 740 672 756 650 Q 772 641 778 567 Q 797 320 785 39 Q 784 -3 769 -14 Q 753 -21 687 7 Q 671 13 670 3 Q 670 -6 682 -13 Q 740 -68 770 -110 Q 791 -131 804 -129 Q 817 -126 830 -97 Q 848 -51 849 18 Q 831 415 834 563 Q 835 603 847 627 Q 860 649 849 661 Q 839 677 791 702 Q 770 714 710 696 Q 590 674 519 666 Z" />
      </clipPath>
      <path clip-path="url(#make-me-a-hanzi-clip-2)" d="M 517 657 L 560 650 L 745 681 L 776 675 L 808 643 L 805 581 L 817 156 L 814 -5 L 791 -58 L 755 -45 L 678 1" fill="none" id="make-me-a-hanzi-animation-2" stroke-dasharray="1270 2540" stroke-linecap="round" />
    
      <clipPath id="make-me-a-hanzi-clip-3">
        <path d="M 351 442 Q 397 405 410 405 Q 417 406 421 416 Q 424 428 416 450 Q 407 471 345 479 Q 332 480 328 479 Q 324 475 326 465 Q 330 458 351 442 Z" />
      </clipPath>
      <path clip-path="url(#make-me-a-hanzi-clip-3)" d="M 332 471 L 394 440 L 409 417" fill="none" id="make-me-a-hanzi-animation-3" stroke-dasharray="225 450" stroke-linecap="round" />
    
      <clipPath id="make-me-a-hanzi-clip-4">
        <path d="M 304 345 Q 344 297 367 296 Q 380 296 384 312 Q 384 324 375 341 Q 360 362 307 368 Q 298 369 298 359 Q 297 352 304 345 Z" />
      </clipPath>
      <path clip-path="url(#make-me-a-hanzi-clip-4)" d="M 310 356 L 350 332 L 367 313" fill="none" id="make-me-a-hanzi-animation-4" stroke-dasharray="200 400" stroke-linecap="round" />
    
      <clipPath id="make-me-a-hanzi-clip-5">
        <path d="M 306 165 Q 297 164 297 151 Q 300 97 325 81 Q 329 77 337 77 Q 343 78 345 96 Q 349 121 408 249 Q 414 259 414 264 Q 414 271 407 267 Q 403 266 328 182 Q 321 173 306 165 Z" />
      </clipPath>
      <path clip-path="url(#make-me-a-hanzi-clip-5)" d="M 333 86 L 326 115 L 328 143 L 409 262" fill="none" id="make-me-a-hanzi-animation-5" stroke-dasharray="330 660" stroke-linecap="round" />
    
      <clipPath id="make-me-a-hanzi-clip-6">
        <path d="M 567 455 Q 624 480 655 486 Q 668 486 671 492 Q 674 501 664 509 Q 618 542 592 539 Q 586 536 586 527 Q 586 500 452 433 Q 448 426 453 424 Q 472 424 523 442 Q 526 443 533 444 L 567 455 Z" />
      </clipPath>
      <path clip-path="url(#make-me-a-hanzi-clip-6)" d="M 663 496 L 609 504 L 569 476 L 489 444 L 479 435 L 464 438 L 457 429" fill="none" id="make-me-a-hanzi-animation-6" stroke-dasharray="358 716" stroke-linecap="round" />
    
      <clipPath id="make-me-a-hanzi-clip-7">
        <path d="M 584 349 Q 639 359 737 359 Q 752 360 755 366 Q 759 376 746 385 Q 700 415 653 399 Q 625 395 589 384 L 546 376 Q 485 366 417 353 Q 401 352 413 339 Q 423 329 438 325 Q 454 322 466 326 Q 503 338 546 344 L 584 349 Z" />
      </clipPath>
      <path clip-path="url(#make-me-a-hanzi-clip-7)" d="M 425 343 L 456 342 L 679 382 L 746 371" fill="none" id="make-me-a-hanzi-animation-7" stroke-dasharray="453 906" stroke-linecap="round" />
    
      <clipPath id="make-me-a-hanzi-clip-8">
        <path d="M 574 269 Q 578 311 584 349 L 589 384 Q 588 385 589 385 Q 595 404 600 425 Q 603 432 590 443 L 567 455 C 540 469 522 472 533 444 Q 540 431 546 381 Q 545 380 546 376 L 546 344 Q 545 305 543 262 C 542 232 571 239 574 269 Z" />
      </clipPath>
      <path clip-path="url(#make-me-a-hanzi-clip-8)" d="M 540 443 L 569 421 L 561 291 L 550 269" fill="none" id="make-me-a-hanzi-animation-8" stroke-dasharray="319 638" stroke-linecap="round" />
    
      <clipPath id="make-me-a-hanzi-clip-9">
        <path d="M 472 251 Q 462 255 451 256 Q 441 257 438 254 Q 434 248 441 235 Q 460 198 475 133 Q 479 114 490 101 Q 506 83 510 97 Q 513 107 512 123 L 507 152 Q 498 210 498 227 C 498 242 498 242 472 251 Z" />
      </clipPath>
      <path clip-path="url(#make-me-a-hanzi-clip-9)" d="M 445 249 L 475 216 L 500 101" fill="none" id="make-me-a-hanzi-animation-9" stroke-dasharray="290 580" stroke-linecap="round" />
    
      <clipPath id="make-me-a-hanzi-clip-10">
        <path d="M 670 168 Q 691 217 710 227 Q 723 242 712 256 Q 699 266 658 286 Q 649 292 574 269 L 543 262 Q 509 258 472 251 C 442 246 469 221 498 227 Q 544 236 617 247 Q 630 250 635 244 Q 641 240 640 228 Q 636 198 629 173 C 621 144 658 141 670 168 Z" />
      </clipPath>
      <path clip-path="url(#make-me-a-hanzi-clip-10)" d="M 480 251 L 502 242 L 611 264 L 650 263 L 673 240 L 657 192 L 637 178" fill="none" id="make-me-a-hanzi-animation-10" stroke-dasharray="410 820" stroke-linecap="round" />
    
      <clipPath id="make-me-a-hanzi-clip-11">
        <path d="M 512 123 Q 519 122 529 124 Q 577 133 681 138 Q 690 139 691 146 Q 691 153 670 168 C 660 175 659 175 629 173 Q 628 174 625 173 Q 559 158 507 152 C 477 148 482 125 512 123 Z" />
      </clipPath>
      <path clip-path="url(#make-me-a-hanzi-clip-11)" d="M 514 146 L 525 139 L 621 154 L 661 154 L 682 147" fill="none" id="make-me-a-hanzi-animation-11" stroke-dasharray="300 600" stroke-linecap="round" />
    
  </g>
</svg>