<svg version="1.1" viewBox="0 0 1024 1024" xmlns="http://www.w3.org/2000/svg">
  <g stroke="lightgray" stroke-dasharray="1,1" stroke-width="1" transform="scale(4, 4)">
    <line x1="0" y1="0" x2="256" y2="256"></line>
    <line x1="256" y1="0" x2="0" y2="256"></line>
    <line x1="128" y1="0" x2="128" y2="256"></line>
    <line x1="0" y1="128" x2="256" y2="128"></line>
  </g>
  <g transform="scale(0.92, -0.92) translate(60, -830)">
    <style type="text/css">
      
        @keyframes keyframes0 {
          from {
            stroke: blue;
            stroke-dashoffset: 950;
            stroke-width: 128;
          }
          76% {
            animation-timing-function: step-end;
            stroke: blue;
            stroke-dashoffset: 0;
            stroke-width: 128;
          }
          to {
            stroke: black;
            stroke-width: 1024;
          }
        }
        #make-me-a-hanzi-animation-0 {
          animation: keyframes0 1.0231119791666667s both;
          animation-delay: 0s;
          animation-timing-function: linear;
        }
      
        @keyframes keyframes1 {
          from {
            stroke: blue;
            stroke-dashoffset: 1263;
            stroke-width: 128;
          }
          80% {
            animation-timing-function: step-end;
            stroke: blue;
            stroke-dashoffset: 0;
            stroke-width: 128;
          }
          to {
            stroke: black;
            stroke-width: 1024;
          }
        }
        #make-me-a-hanzi-animation-1 {
          animation: keyframes1 1.27783203125s both;
          animation-delay: 1.0231119791666667s;
          animation-timing-function: linear;
        }
      
        @keyframes keyframes2 {
          from {
            stroke: blue;
            stroke-dashoffset: 456;
            stroke-width: 128;
          }
          60% {
            animation-timing-function: step-end;
            stroke: blue;
            stroke-dashoffset: 0;
            stroke-width: 128;
          }
          to {
            stroke: black;
            stroke-width: 1024;
          }
        }
        #make-me-a-hanzi-animation-2 {
          animation: keyframes2 0.62109375s both;
          animation-delay: 2.300944010416667s;
          animation-timing-function: linear;
        }
      
        @keyframes keyframes3 {
          from {
            stroke: blue;
            stroke-dashoffset: 466;
            stroke-width: 128;
          }
          60% {
            animation-timing-function: step-end;
            stroke: blue;
            stroke-dashoffset: 0;
            stroke-width: 128;
          }
          to {
            stroke: black;
            stroke-width: 1024;
          }
        }
        #make-me-a-hanzi-animation-3 {
          animation: keyframes3 0.6292317708333334s both;
          animation-delay: 2.922037760416667s;
          animation-timing-function: linear;
        }
      
        @keyframes keyframes4 {
          from {
            stroke: blue;
            stroke-dashoffset: 584;
            stroke-width: 128;
          }
          66% {
            animation-timing-function: step-end;
            stroke: blue;
            stroke-dashoffset: 0;
            stroke-width: 128;
          }
          to {
            stroke: black;
            stroke-width: 1024;
          }
        }
        #make-me-a-hanzi-animation-4 {
          animation: keyframes4 0.7252604166666666s both;
          animation-delay: 3.5512695312500004s;
          animation-timing-function: linear;
        }
      
        @keyframes keyframes5 {
          from {
            stroke: blue;
            stroke-dashoffset: 413;
            stroke-width: 128;
          }
          57% {
            animation-timing-function: step-end;
            stroke: blue;
            stroke-dashoffset: 0;
            stroke-width: 128;
          }
          to {
            stroke: black;
            stroke-width: 1024;
          }
        }
        #make-me-a-hanzi-animation-5 {
          animation: keyframes5 0.5861002604166666s both;
          animation-delay: 4.276529947916667s;
          animation-timing-function: linear;
        }
      
        @keyframes keyframes6 {
          from {
            stroke: blue;
            stroke-dashoffset: 480;
            stroke-width: 128;
          }
          61% {
            animation-timing-function: step-end;
            stroke: blue;
            stroke-dashoffset: 0;
            stroke-width: 128;
          }
          to {
            stroke: black;
            stroke-width: 1024;
          }
        }
        #make-me-a-hanzi-animation-6 {
          animation: keyframes6 0.640625s both;
          animation-delay: 4.862630208333334s;
          animation-timing-function: linear;
        }
      
        @keyframes keyframes7 {
          from {
            stroke: blue;
            stroke-dashoffset: 359;
            stroke-width: 128;
          }
          54% {
            animation-timing-function: step-end;
            stroke: blue;
            stroke-dashoffset: 0;
            stroke-width: 128;
          }
          to {
            stroke: black;
            stroke-width: 1024;
          }
        }
        #make-me-a-hanzi-animation-7 {
          animation: keyframes7 0.5421549479166666s both;
          animation-delay: 5.503255208333334s;
          animation-timing-function: linear;
        }
      
        @keyframes keyframes8 {
          from {
            stroke: blue;
            stroke-dashoffset: 646;
            stroke-width: 128;
          }
          68% {
            animation-timing-function: step-end;
            stroke: blue;
            stroke-dashoffset: 0;
            stroke-width: 128;
          }
          to {
            stroke: black;
            stroke-width: 1024;
          }
        }
        #make-me-a-hanzi-animation-8 {
          animation: keyframes8 0.7757161458333334s both;
          animation-delay: 6.045410156250001s;
          animation-timing-function: linear;
        }
      
        @keyframes keyframes9 {
          from {
            stroke: blue;
            stroke-dashoffset: 792;
            stroke-width: 128;
          }
          72% {
            animation-timing-function: step-end;
            stroke: blue;
            stroke-dashoffset: 0;
            stroke-width: 128;
          }
          to {
            stroke: black;
            stroke-width: 1024;
          }
        }
        #make-me-a-hanzi-animation-9 {
          animation: keyframes9 0.89453125s both;
          animation-delay: 6.821126302083334s;
          animation-timing-function: linear;
        }
      
        @keyframes keyframes10 {
          from {
            stroke: blue;
            stroke-dashoffset: 371;
            stroke-width: 128;
          }
          55% {
            animation-timing-function: step-end;
            stroke: blue;
            stroke-dashoffset: 0;
            stroke-width: 128;
          }
          to {
            stroke: black;
            stroke-width: 1024;
          }
        }
        #make-me-a-hanzi-animation-10 {
          animation: keyframes10 0.5519205729166666s both;
          animation-delay: 7.715657552083334s;
          animation-timing-function: linear;
        }
      
        @keyframes keyframes11 {
          from {
            stroke: blue;
            stroke-dashoffset: 629;
            stroke-width: 128;
          }
          67% {
            animation-timing-function: step-end;
            stroke: blue;
            stroke-dashoffset: 0;
            stroke-width: 128;
          }
          to {
            stroke: black;
            stroke-width: 1024;
          }
        }
        #make-me-a-hanzi-animation-11 {
          animation: keyframes11 0.7618815104166666s both;
          animation-delay: 8.267578125s;
          animation-timing-function: linear;
        }
      
        @keyframes keyframes12 {
          from {
            stroke: blue;
            stroke-dashoffset: 547;
            stroke-width: 128;
          }
          64% {
            animation-timing-function: step-end;
            stroke: blue;
            stroke-dashoffset: 0;
            stroke-width: 128;
          }
          to {
            stroke: black;
            stroke-width: 1024;
          }
        }
        #make-me-a-hanzi-animation-12 {
          animation: keyframes12 0.6951497395833334s both;
          animation-delay: 9.029459635416666s;
          animation-timing-function: linear;
        }
      
        @keyframes keyframes13 {
          from {
            stroke: blue;
            stroke-dashoffset: 550;
            stroke-width: 128;
          }
          64% {
            animation-timing-function: step-end;
            stroke: blue;
            stroke-dashoffset: 0;
            stroke-width: 128;
          }
          to {
            stroke: black;
            stroke-width: 1024;
          }
        }
        #make-me-a-hanzi-animation-13 {
          animation: keyframes13 0.6975911458333334s both;
          animation-delay: 9.724609375s;
          animation-timing-function: linear;
        }
      
        @keyframes keyframes14 {
          from {
            stroke: blue;
            stroke-dashoffset: 618;
            stroke-width: 128;
          }
          67% {
            animation-timing-function: step-end;
            stroke: blue;
            stroke-dashoffset: 0;
            stroke-width: 128;
          }
          to {
            stroke: black;
            stroke-width: 1024;
          }
        }
        #make-me-a-hanzi-animation-14 {
          animation: keyframes14 0.7529296875s both;
          animation-delay: 10.422200520833334s;
          animation-timing-function: linear;
        }
      
        @keyframes keyframes15 {
          from {
            stroke: blue;
            stroke-dashoffset: 608;
            stroke-width: 128;
          }
          66% {
            animation-timing-function: step-end;
            stroke: blue;
            stroke-dashoffset: 0;
            stroke-width: 128;
          }
          to {
            stroke: black;
            stroke-width: 1024;
          }
        }
        #make-me-a-hanzi-animation-15 {
          animation: keyframes15 0.7447916666666666s both;
          animation-delay: 11.175130208333334s;
          animation-timing-function: linear;
        }
      
    </style>
    
      <path d="M 193 609 L 176 616 Q 164 622 146 624 Q 129 626 125 621 Q 121 616 127 602 L 135 585 Q 146 564 142 467 L 142 402 Q 141 368 128 261 Q 115 154 106 113 Q 98 71 83 40 L 65 -10 L 52 -39 Q 50 -44 55 -50 Q 61 -56 68 -44 L 78 -29 Q 116 20 139 88 Q 164 151 177 253 Q 181 291 190 350 Q 195 536 201 578 C 204 604 204 604 193 609 Z" fill="lightgray"></path>
    
      <path d="M 281 595 L 373 604 Q 403 611 409 606 Q 419 603 425 592 Q 429 559 429 347 L 424 76 Q 421 50 419 40 Q 418 30 410 26 Q 406 25 387 30 L 364 40 L 340 48 Q 328 52 323 48 Q 319 43 329 36 L 354 14 L 377 -13 Q 384 -20 390 -28 L 416 -60 Q 435 -79 456 -43 Q 467 -25 469 -17 Q 472 -9 479 24 Q 480 29 480 86 L 480 413 Q 480 490 484 526 L 487 557 Q 487 569 490 578 L 500 595 Q 505 601 498 620 Q 491 633 441 660 Q 427 665 424 665 L 407 656 Q 392 648 357 640 Q 322 631 319 631 L 193 609 C 163 604 172 571 201 578 L 236 586 Q 242 586 261 590 L 281 595 Z" fill="lightgray"></path>
    
      <path d="M 376 501 L 363 501 L 328 489 L 283 479 L 212 464 Q 198 461 204 452 Q 211 443 226 438 Q 242 432 262 437 L 283 440 L 329 449 L 389 462 Q 404 464 405 465 Q 407 466 412 471 Q 418 475 418 478 L 416 483 Q 413 489 402 491 L 376 501 Z" fill="lightgray"></path>
    
      <path d="M 285 378 L 209 362 Q 191 362 203 346 Q 216 333 247 335 L 286 341 L 324 347 L 400 361 Q 414 363 419 369 Q 424 375 423 379 Q 422 382 414 387 Q 406 392 387 394 L 365 399 Q 361 399 327 387 L 285 378 Z" fill="lightgray"></path>
    
      <path d="M 328 489 L 328 516 Q 328 532 333 544 Q 338 556 338 566 Q 336 573 327 579 Q 321 586 305 589 L 281 595 C 255 602 255 602 261 590 L 272 570 L 281 513 L 283 479 L 283 440 L 285 378 L 286 341 L 290 294 Q 290 280 298 272 C 300 269 300 269 304 274 Q 320 291 324 327 L 324 347 L 327 387 L 329 449 L 328 489 Z" fill="lightgray"></path>
    
      <path d="M 262 159 L 259 240 C 258 257 258 257 245 260 L 231 263 Q 228 266 214 266 L 202 266 Q 193 262 197 257 Q 209 246 212 241 Q 216 236 221 215 L 235 133 Q 235 126 238 121 Q 241 115 244 114 Q 249 108 253 108 Q 265 112 264 134 L 262 159 Z" fill="lightgray"></path>
    
      <path d="M 259 240 L 324 256 Q 339 259 342 256 Q 345 252 344 242 L 336 172 C 333 142 374 129 372 159 Q 370 164 373 174 L 379 194 Q 386 227 397 242 Q 408 256 408 265 Q 408 267 392 280 Q 362 296 353 296 Q 345 295 338 290 Q 332 285 313 278 L 304 274 L 298 272 L 286 269 Q 266 264 245 260 C 216 254 230 233 259 240 Z" fill="lightgray"></path>
    
      <path d="M 336 172 L 262 159 C 232 154 234 132 264 134 L 362 140 Q 375 140 376 141 Q 378 141 378 148 L 372 159 C 362 177 362 177 336 172 Z" fill="lightgray"></path>
    
      <path d="M 597 468 L 640 538 L 668 592 Q 676 611 682 619 L 703 646 Q 709 652 709 655 Q 710 658 705 668 Q 693 682 690 684 Q 641 725 626 709 L 625 676 L 613 615 Q 609 602 588 555 L 558 489 Q 545 460 532 438 L 502 396 L 490 375 Q 486 366 488 363 Q 491 360 499 366 L 526 388 L 539 402 Q 539 405 560 426 L 597 468 Z" fill="lightgray"></path>
    
      <path d="M 613 206 L 615 289 L 617 327 L 617 351 L 618 356 Q 619 358 619 366 Q 619 373 624 390 Q 630 406 628 412 Q 626 417 622 423 L 614 436 C 598 462 550 454 560 426 L 564 416 Q 574 377 570 331 L 558 120 Q 553 40 546 14 Q 539 -13 538 -19 Q 538 -25 541 -41 L 550 -69 Q 556 -85 564 -95 Q 573 -106 576 -107 Q 579 -108 586 -103 Q 591 -98 597 -88 L 602 -78 Q 611 -61 613 -38 L 611 10 Q 610 17 610 40 L 608 78 L 612 169 L 613 206 Z" fill="lightgray"></path>
    
      <path d="M 790 497 L 795 516 Q 796 519 796 534 Q 796 548 789 560 Q 773 582 745 590 L 726 596 Q 711 600 707 596 Q 703 592 709 580 L 714 570 L 725 540 Q 729 528 753 491 C 769 466 782 468 790 497 Z" fill="lightgray"></path>
    
      <path d="M 614 436 L 630 436 Q 646 436 668 439 L 717 445 L 776 452 L 884 471 Q 909 475 923 483 Q 938 490 938 494 Q 938 497 931 504 Q 902 520 878 520 Q 833 505 790 497 L 753 491 L 705 482 Q 645 471 597 468 C 519 462 537 436 614 436 Z" fill="lightgray"></path>
    
      <path d="M 615 289 L 631 289 Q 633 288 679 296 L 717 302 Q 722 302 734 305 L 782 313 L 902 332 Q 911 333 911 339 Q 914 343 904 351 Q 878 366 854 366 L 831 364 L 806 360 L 782 354 L 734 344 L 675 334 L 617 327 C 587 323 585 289 615 289 Z" fill="lightgray"></path>
    
      <path d="M 734 223 L 662 212 L 613 206 C 583 202 582 167 612 169 L 650 171 Q 655 171 676 174 L 734 182 L 781 188 L 844 197 Q 859 198 865 201 L 897 208 Q 912 212 912 216 Q 907 230 891 234 L 875 238 L 852 241 Q 848 241 829 238 L 794 232 Q 785 232 781 230 L 734 223 Z" fill="lightgray"></path>
    
      <path d="M 734 305 L 734 223 L 734 182 L 736 94 C 737 64 780 69 780 99 L 781 188 L 781 230 L 782 313 L 782 354 L 782 366 L 793 437 Q 795 439 776 452 C 752 469 710 474 717 445 L 719 436 L 727 414 Q 727 410 732 390 Q 732 360 734 344 L 734 305 Z" fill="lightgray"></path>
    
      <path d="M 736 94 L 698 88 Q 683 85 657 83 Q 640 80 608 78 C 578 76 580 37 610 40 L 650 44 L 716 48 L 801 57 Q 865 62 884 62 Q 904 61 916 64 L 949 68 Q 967 68 969 80 Q 969 86 955 93 Q 901 124 865 114 L 780 99 L 736 94 Z" fill="lightgray"></path>
    
    
      <clipPath id="make-me-a-hanzi-clip-0">
        <path d="M 193 609 L 176 616 Q 164 622 146 624 Q 129 626 125 621 Q 121 616 127 602 L 135 585 Q 146 564 142 467 L 142 402 Q 141 368 128 261 Q 115 154 106 113 Q 98 71 83 40 L 65 -10 L 52 -39 Q 50 -44 55 -50 Q 61 -56 68 -44 L 78 -29 Q 116 20 139 88 Q 164 151 177 253 Q 181 291 190 350 Q 195 536 201 578 C 204 604 204 604 193 609 Z"></path>
      </clipPath>
      <path clip-path="url(#make-me-a-hanzi-clip-0)" d="M 132 616 L 168 586 L 170 577 L 166 362 L 145 196 L 127 112 L 110 58 L 60 -43" fill="none" id="make-me-a-hanzi-animation-0" stroke-dasharray="822 1644" stroke-linecap="round"></path>
    
      <clipPath id="make-me-a-hanzi-clip-1">
        <path d="M 281 595 L 373 604 Q 403 611 409 606 Q 419 603 425 592 Q 429 559 429 347 L 424 76 Q 421 50 419 40 Q 418 30 410 26 Q 406 25 387 30 L 364 40 L 340 48 Q 328 52 323 48 Q 319 43 329 36 L 354 14 L 377 -13 Q 384 -20 390 -28 L 416 -60 Q 435 -79 456 -43 Q 467 -25 469 -17 Q 472 -9 479 24 Q 480 29 480 86 L 480 413 Q 480 490 484 526 L 487 557 Q 487 569 490 578 L 500 595 Q 505 601 498 620 Q 491 633 441 660 Q 427 665 424 665 L 407 656 Q 392 648 357 640 Q 322 631 319 631 L 193 609 C 163 604 172 571 201 578 L 236 586 Q 242 586 261 590 L 281 595 Z"></path>
      </clipPath>
      <path clip-path="url(#make-me-a-hanzi-clip-1)" d="M 202 606 L 215 597 L 425 632 L 449 617 L 461 601 L 453 431 L 453 73 L 447 21 L 435 -2 L 423 -10 L 328 43" fill="none" id="make-me-a-hanzi-animation-1" stroke-dasharray="1135 2270" stroke-linecap="round"></path>
    
      <clipPath id="make-me-a-hanzi-clip-2">
        <path d="M 376 501 L 363 501 L 328 489 L 283 479 L 212 464 Q 198 461 204 452 Q 211 443 226 438 Q 242 432 262 437 L 283 440 L 329 449 L 389 462 Q 404 464 405 465 Q 407 466 412 471 Q 418 475 418 478 L 416 483 Q 413 489 402 491 L 376 501 Z"></path>
      </clipPath>
      <path clip-path="url(#make-me-a-hanzi-clip-2)" d="M 214 454 L 244 452 L 370 480 L 411 478" fill="none" id="make-me-a-hanzi-animation-2" stroke-dasharray="328 656" stroke-linecap="round"></path>
    
      <clipPath id="make-me-a-hanzi-clip-3">
        <path d="M 285 378 L 209 362 Q 191 362 203 346 Q 216 333 247 335 L 286 341 L 324 347 L 400 361 Q 414 363 419 369 Q 424 375 423 379 Q 422 382 414 387 Q 406 392 387 394 L 365 399 Q 361 399 327 387 L 285 378 Z"></path>
      </clipPath>
      <path clip-path="url(#make-me-a-hanzi-clip-3)" d="M 206 354 L 235 351 L 366 377 L 413 377" fill="none" id="make-me-a-hanzi-animation-3" stroke-dasharray="338 676" stroke-linecap="round"></path>
    
      <clipPath id="make-me-a-hanzi-clip-4">
        <path d="M 328 489 L 328 516 Q 328 532 333 544 Q 338 556 338 566 Q 336 573 327 579 Q 321 586 305 589 L 281 595 C 255 602 255 602 261 590 L 272 570 L 281 513 L 283 479 L 283 440 L 285 378 L 286 341 L 290 294 Q 290 280 298 272 C 300 269 300 269 304 274 Q 320 291 324 327 L 324 347 L 327 387 L 329 449 L 328 489 Z"></path>
      </clipPath>
      <path clip-path="url(#make-me-a-hanzi-clip-4)" d="M 267 587 L 284 580 L 305 557 L 307 395 L 305 307 L 299 279" fill="none" id="make-me-a-hanzi-animation-4" stroke-dasharray="456 912" stroke-linecap="round"></path>
    
      <clipPath id="make-me-a-hanzi-clip-5">
        <path d="M 262 159 L 259 240 C 258 257 258 257 245 260 L 231 263 Q 228 266 214 266 L 202 266 Q 193 262 197 257 Q 209 246 212 241 Q 216 236 221 215 L 235 133 Q 235 126 238 121 Q 241 115 244 114 Q 249 108 253 108 Q 265 112 264 134 L 262 159 Z"></path>
      </clipPath>
      <path clip-path="url(#make-me-a-hanzi-clip-5)" d="M 207 257 L 233 243 L 238 229 L 253 117" fill="none" id="make-me-a-hanzi-animation-5" stroke-dasharray="285 570" stroke-linecap="round"></path>
    
      <clipPath id="make-me-a-hanzi-clip-6">
        <path d="M 259 240 L 324 256 Q 339 259 342 256 Q 345 252 344 242 L 336 172 C 333 142 374 129 372 159 Q 370 164 373 174 L 379 194 Q 386 227 397 242 Q 408 256 408 265 Q 408 267 392 280 Q 362 296 353 296 Q 345 295 338 290 Q 332 285 313 278 L 304 274 L 298 272 L 286 269 Q 266 264 245 260 C 216 254 230 233 259 240 Z"></path>
      </clipPath>
      <path clip-path="url(#make-me-a-hanzi-clip-6)" d="M 253 258 L 264 252 L 343 273 L 359 271 L 372 258 L 357 191 L 368 167" fill="none" id="make-me-a-hanzi-animation-6" stroke-dasharray="352 704" stroke-linecap="round"></path>
    
      <clipPath id="make-me-a-hanzi-clip-7">
        <path d="M 336 172 L 262 159 C 232 154 234 132 264 134 L 362 140 Q 375 140 376 141 Q 378 141 378 148 L 372 159 C 362 177 362 177 336 172 Z"></path>
      </clipPath>
      <path clip-path="url(#make-me-a-hanzi-clip-7)" d="M 271 141 L 276 148 L 331 155 L 369 147" fill="none" id="make-me-a-hanzi-animation-7" stroke-dasharray="231 462" stroke-linecap="round"></path>
    
      <clipPath id="make-me-a-hanzi-clip-8">
        <path d="M 597 468 L 640 538 L 668 592 Q 676 611 682 619 L 703 646 Q 709 652 709 655 Q 710 658 705 668 Q 693 682 690 684 Q 641 725 626 709 L 625 676 L 613 615 Q 609 602 588 555 L 558 489 Q 545 460 532 438 L 502 396 L 490 375 Q 486 366 488 363 Q 491 360 499 366 L 526 388 L 539 402 Q 539 405 560 426 L 597 468 Z"></path>
      </clipPath>
      <path clip-path="url(#make-me-a-hanzi-clip-8)" d="M 634 703 L 661 657 L 639 599 L 577 477 L 492 368" fill="none" id="make-me-a-hanzi-animation-8" stroke-dasharray="518 1036" stroke-linecap="round"></path>
    
      <clipPath id="make-me-a-hanzi-clip-9">
        <path d="M 613 206 L 615 289 L 617 327 L 617 351 L 618 356 Q 619 358 619 366 Q 619 373 624 390 Q 630 406 628 412 Q 626 417 622 423 L 614 436 C 598 462 550 454 560 426 L 564 416 Q 574 377 570 331 L 558 120 Q 553 40 546 14 Q 539 -13 538 -19 Q 538 -25 541 -41 L 550 -69 Q 556 -85 564 -95 Q 573 -106 576 -107 Q 579 -108 586 -103 Q 591 -98 597 -88 L 602 -78 Q 611 -61 613 -38 L 611 10 Q 610 17 610 40 L 608 78 L 612 169 L 613 206 Z"></path>
      </clipPath>
      <path clip-path="url(#make-me-a-hanzi-clip-9)" d="M 568 423 L 596 401 L 597 389 L 576 -16 L 579 -99" fill="none" id="make-me-a-hanzi-animation-9" stroke-dasharray="664 1328" stroke-linecap="round"></path>
    
      <clipPath id="make-me-a-hanzi-clip-10">
        <path d="M 790 497 L 795 516 Q 796 519 796 534 Q 796 548 789 560 Q 773 582 745 590 L 726 596 Q 711 600 707 596 Q 703 592 709 580 L 714 570 L 725 540 Q 729 528 753 491 C 769 466 782 468 790 497 Z"></path>
      </clipPath>
      <path clip-path="url(#make-me-a-hanzi-clip-10)" d="M 712 592 L 756 549 L 767 521 L 783 504" fill="none" id="make-me-a-hanzi-animation-10" stroke-dasharray="243 486" stroke-linecap="round"></path>
    
      <clipPath id="make-me-a-hanzi-clip-11">
        <path d="M 614 436 L 630 436 Q 646 436 668 439 L 717 445 L 776 452 L 884 471 Q 909 475 923 483 Q 938 490 938 494 Q 938 497 931 504 Q 902 520 878 520 Q 833 505 790 497 L 753 491 L 705 482 Q 645 471 597 468 C 519 462 537 436 614 436 Z"></path>
      </clipPath>
      <path clip-path="url(#make-me-a-hanzi-clip-11)" d="M 566 430 L 604 451 L 780 473 L 882 496 L 930 496" fill="none" id="make-me-a-hanzi-animation-11" stroke-dasharray="501 1002" stroke-linecap="round"></path>
    
      <clipPath id="make-me-a-hanzi-clip-12">
        <path d="M 615 289 L 631 289 Q 633 288 679 296 L 717 302 Q 722 302 734 305 L 782 313 L 902 332 Q 911 333 911 339 Q 914 343 904 351 Q 878 366 854 366 L 831 364 L 806 360 L 782 354 L 734 344 L 675 334 L 617 327 C 587 323 585 289 615 289 Z"></path>
      </clipPath>
      <path clip-path="url(#make-me-a-hanzi-clip-12)" d="M 619 295 L 641 311 L 839 344 L 902 342" fill="none" id="make-me-a-hanzi-animation-12" stroke-dasharray="419 838" stroke-linecap="round"></path>
    
      <clipPath id="make-me-a-hanzi-clip-13">
        <path d="M 734 223 L 662 212 L 613 206 C 583 202 582 167 612 169 L 650 171 Q 655 171 676 174 L 734 182 L 781 188 L 844 197 Q 859 198 865 201 L 897 208 Q 912 212 912 216 Q 907 230 891 234 L 875 238 L 852 241 Q 848 241 829 238 L 794 232 Q 785 232 781 230 L 734 223 Z"></path>
      </clipPath>
      <path clip-path="url(#make-me-a-hanzi-clip-13)" d="M 618 175 L 634 190 L 840 219 L 904 219" fill="none" id="make-me-a-hanzi-animation-13" stroke-dasharray="422 844" stroke-linecap="round"></path>
    
      <clipPath id="make-me-a-hanzi-clip-14">
        <path d="M 734 305 L 734 223 L 734 182 L 736 94 C 737 64 780 69 780 99 L 781 188 L 781 230 L 782 313 L 782 354 L 782 366 L 793 437 Q 795 439 776 452 C 752 469 710 474 717 445 L 719 436 L 727 414 Q 727 410 732 390 Q 732 360 734 344 L 734 305 Z"></path>
      </clipPath>
      <path clip-path="url(#make-me-a-hanzi-clip-14)" d="M 725 442 L 758 415 L 758 121 L 743 101" fill="none" id="make-me-a-hanzi-animation-14" stroke-dasharray="490 980" stroke-linecap="round"></path>
    
      <clipPath id="make-me-a-hanzi-clip-15">
        <path d="M 736 94 L 698 88 Q 683 85 657 83 Q 640 80 608 78 C 578 76 580 37 610 40 L 650 44 L 716 48 L 801 57 Q 865 62 884 62 Q 904 61 916 64 L 949 68 Q 967 68 969 80 Q 969 86 955 93 Q 901 124 865 114 L 780 99 L 736 94 Z"></path>
      </clipPath>
      <path clip-path="url(#make-me-a-hanzi-clip-15)" d="M 616 47 L 631 61 L 876 89 L 960 79" fill="none" id="make-me-a-hanzi-animation-15" stroke-dasharray="480 960" stroke-linecap="round"></path>
    
  </g>
</svg>