<svg xmlns="http://www.w3.org/2000/svg" version="1.1" viewBox="0 0 1024 1024">
  <g stroke="lightgray" stroke-dasharray="1,1" stroke-width="1" transform="scale(4, 4)">
    <line x1="0" y1="0" x2="256" y2="256" />
    <line x1="256" y1="0" x2="0" y2="256" />
    <line x1="128" y1="0" x2="128" y2="256" />
    <line x1="0" y1="128" x2="256" y2="128" />
  </g>
  <g transform="scale(1.0, -1.0) translate(0.0, -794.50)">
    <style type="text/css">
      
        @keyframes keyframes0 {
          from {
            stroke: blue;
            stroke-dashoffset: 714;
            stroke-width: 128;
          }
          70% {
            animation-timing-function: step-end;
            stroke: blue;
            stroke-dashoffset: 0;
            stroke-width: 128;
          }
          to {
            stroke: black;
            stroke-width: 1024;
          }
        }
        #make-me-a-hanzi-animation-0 {
          animation: keyframes0 0.8310546875s both;
          animation-delay: 0s;
          animation-timing-function: linear;
        }
      
        @keyframes keyframes1 {
          from {
            stroke: blue;
            stroke-dashoffset: 695;
            stroke-width: 128;
          }
          69% {
            animation-timing-function: step-end;
            stroke: blue;
            stroke-dashoffset: 0;
            stroke-width: 128;
          }
          to {
            stroke: black;
            stroke-width: 1024;
          }
        }
        #make-me-a-hanzi-animation-1 {
          animation: keyframes1 0.8155924479166666s both;
          animation-delay: 0.8310546875s;
          animation-timing-function: linear;
        }
      
        @keyframes keyframes2 {
          from {
            stroke: blue;
            stroke-dashoffset: 368;
            stroke-width: 128;
          }
          55% {
            animation-timing-function: step-end;
            stroke: blue;
            stroke-dashoffset: 0;
            stroke-width: 128;
          }
          to {
            stroke: black;
            stroke-width: 1024;
          }
        }
        #make-me-a-hanzi-animation-2 {
          animation: keyframes2 0.5494791666666666s both;
          animation-delay: 1.6466471354166665s;
          animation-timing-function: linear;
        }
      
        @keyframes keyframes3 {
          from {
            stroke: blue;
            stroke-dashoffset: 593;
            stroke-width: 128;
          }
          66% {
            animation-timing-function: step-end;
            stroke: blue;
            stroke-dashoffset: 0;
            stroke-width: 128;
          }
          to {
            stroke: black;
            stroke-width: 1024;
          }
        }
        #make-me-a-hanzi-animation-3 {
          animation: keyframes3 0.7325846354166666s both;
          animation-delay: 2.196126302083333s;
          animation-timing-function: linear;
        }
      
        @keyframes keyframes4 {
          from {
            stroke: blue;
            stroke-dashoffset: 508;
            stroke-width: 128;
          }
          62% {
            animation-timing-function: step-end;
            stroke: blue;
            stroke-dashoffset: 0;
            stroke-width: 128;
          }
          to {
            stroke: black;
            stroke-width: 1024;
          }
        }
        #make-me-a-hanzi-animation-4 {
          animation: keyframes4 0.6634114583333334s both;
          animation-delay: 2.9287109374999996s;
          animation-timing-function: linear;
        }
      
        @keyframes keyframes5 {
          from {
            stroke: blue;
            stroke-dashoffset: 513;
            stroke-width: 128;
          }
          63% {
            animation-timing-function: step-end;
            stroke: blue;
            stroke-dashoffset: 0;
            stroke-width: 128;
          }
          to {
            stroke: black;
            stroke-width: 1024;
          }
        }
        #make-me-a-hanzi-animation-5 {
          animation: keyframes5 0.66748046875s both;
          animation-delay: 3.592122395833333s;
          animation-timing-function: linear;
        }
      
        @keyframes keyframes6 {
          from {
            stroke: blue;
            stroke-dashoffset: 583;
            stroke-width: 128;
          }
          65% {
            animation-timing-function: step-end;
            stroke: blue;
            stroke-dashoffset: 0;
            stroke-width: 128;
          }
          to {
            stroke: black;
            stroke-width: 1024;
          }
        }
        #make-me-a-hanzi-animation-6 {
          animation: keyframes6 0.7244466145833334s both;
          animation-delay: 4.259602864583333s;
          animation-timing-function: linear;
        }
      
        @keyframes keyframes7 {
          from {
            stroke: blue;
            stroke-dashoffset: 548;
            stroke-width: 128;
          }
          64% {
            animation-timing-function: step-end;
            stroke: blue;
            stroke-dashoffset: 0;
            stroke-width: 128;
          }
          to {
            stroke: black;
            stroke-width: 1024;
          }
        }
        #make-me-a-hanzi-animation-7 {
          animation: keyframes7 0.6959635416666666s both;
          animation-delay: 4.984049479166666s;
          animation-timing-function: linear;
        }
      
        @keyframes keyframes8 {
          from {
            stroke: blue;
            stroke-dashoffset: 671;
            stroke-width: 128;
          }
          69% {
            animation-timing-function: step-end;
            stroke: blue;
            stroke-dashoffset: 0;
            stroke-width: 128;
          }
          to {
            stroke: black;
            stroke-width: 1024;
          }
        }
        #make-me-a-hanzi-animation-8 {
          animation: keyframes8 0.7960611979166666s both;
          animation-delay: 5.680013020833333s;
          animation-timing-function: linear;
        }
      
        @keyframes keyframes9 {
          from {
            stroke: blue;
            stroke-dashoffset: 770;
            stroke-width: 128;
          }
          71% {
            animation-timing-function: step-end;
            stroke: blue;
            stroke-dashoffset: 0;
            stroke-width: 128;
          }
          to {
            stroke: black;
            stroke-width: 1024;
          }
        }
        #make-me-a-hanzi-animation-9 {
          animation: keyframes9 0.8766276041666666s both;
          animation-delay: 6.47607421875s;
          animation-timing-function: linear;
        }
      
        @keyframes keyframes10 {
          from {
            stroke: blue;
            stroke-dashoffset: 388;
            stroke-width: 128;
          }
          56% {
            animation-timing-function: step-end;
            stroke: blue;
            stroke-dashoffset: 0;
            stroke-width: 128;
          }
          to {
            stroke: black;
            stroke-width: 1024;
          }
        }
        #make-me-a-hanzi-animation-10 {
          animation: keyframes10 0.5657552083333334s both;
          animation-delay: 7.352701822916667s;
          animation-timing-function: linear;
        }
      
        @keyframes keyframes11 {
          from {
            stroke: blue;
            stroke-dashoffset: 645;
            stroke-width: 128;
          }
          68% {
            animation-timing-function: step-end;
            stroke: blue;
            stroke-dashoffset: 0;
            stroke-width: 128;
          }
          to {
            stroke: black;
            stroke-width: 1024;
          }
        }
        #make-me-a-hanzi-animation-11 {
          animation: keyframes11 0.77490234375s both;
          animation-delay: 7.91845703125s;
          animation-timing-function: linear;
        }
      
        @keyframes keyframes12 {
          from {
            stroke: blue;
            stroke-dashoffset: 570;
            stroke-width: 128;
          }
          65% {
            animation-timing-function: step-end;
            stroke: blue;
            stroke-dashoffset: 0;
            stroke-width: 128;
          }
          to {
            stroke: black;
            stroke-width: 1024;
          }
        }
        #make-me-a-hanzi-animation-12 {
          animation: keyframes12 0.7138671875s both;
          animation-delay: 8.693359375s;
          animation-timing-function: linear;
        }
      
        @keyframes keyframes13 {
          from {
            stroke: blue;
            stroke-dashoffset: 579;
            stroke-width: 128;
          }
          65% {
            animation-timing-function: step-end;
            stroke: blue;
            stroke-dashoffset: 0;
            stroke-width: 128;
          }
          to {
            stroke: black;
            stroke-width: 1024;
          }
        }
        #make-me-a-hanzi-animation-13 {
          animation: keyframes13 0.72119140625s both;
          animation-delay: 9.4072265625s;
          animation-timing-function: linear;
        }
      
        @keyframes keyframes14 {
          from {
            stroke: blue;
            stroke-dashoffset: 617;
            stroke-width: 128;
          }
          67% {
            animation-timing-function: step-end;
            stroke: blue;
            stroke-dashoffset: 0;
            stroke-width: 128;
          }
          to {
            stroke: black;
            stroke-width: 1024;
          }
        }
        #make-me-a-hanzi-animation-14 {
          animation: keyframes14 0.7521158854166666s both;
          animation-delay: 10.12841796875s;
          animation-timing-function: linear;
        }
      
        @keyframes keyframes15 {
          from {
            stroke: blue;
            stroke-dashoffset: 637;
            stroke-width: 128;
          }
          67% {
            animation-timing-function: step-end;
            stroke: blue;
            stroke-dashoffset: 0;
            stroke-width: 128;
          }
          to {
            stroke: black;
            stroke-width: 1024;
          }
        }
        #make-me-a-hanzi-animation-15 {
          animation: keyframes15 0.7683919270833334s both;
          animation-delay: 10.880533854166666s;
          animation-timing-function: linear;
        }
      
    </style>
    
      <path d="M 211 400 L 231 431 Q 237 440 255 476 Q 274 510 281 524 L 297 561 Q 301 569 308 578 Q 315 586 317 590 Q 319 592 319 596 Q 319 603 305 618 Q 289 634 277 640 Q 264 646 258 647 L 254 647 Q 251 647 249 646 Q 247 644 245 639 Q 245 634 244 624 Q 244 612 241 595 Q 239 578 236 566 Q 233 554 223 529 Q 214 504 196 470 Q 178 435 154 396 L 115 338 Q 100 318 75 291 L 55 268 Q 51 263 51 259 Q 51 257 52 255 Q 53 253 56 253 Q 60 253 67 258 L 89 273 Q 116 291 134 308 L 171 344 L 211 400 Z" fill="lightgray" />
    
      <path d="M 171 344 L 173 230 Q 173 196 171 154 L 166 97 Q 165 88 160 64 Q 155 40 149 20 Q 143 0 143 -2 L 143 -6 Q 143 -16 147 -26 Q 151 -38 161 -53 Q 169 -68 175 -71 Q 178 -73 181 -73 L 183 -73 Q 188 -72 196 -61 Q 205 -50 207 -28 Q 209 -6 209 24 L 213 52 L 218 148 L 219 171 L 219 254 L 217 278 L 219 320 Q 219 330 223 374 C 226 404 170 374 171 344 Z" fill="lightgray" />
    
      <path d="M 398 431 L 404 447 Q 407 454 407 467 Q 406 482 399 491 Q 393 500 374 509 Q 355 517 341 520 L 320 524 L 315 524 Q 310 524 309 523 Q 308 521 308 519 L 308 518 Q 308 509 320 489 Q 333 468 339 460 Q 345 451 352 442 L 368 424 C 387 402 387 403 398 431 Z" fill="lightgray" />
    
      <path d="M 397 391 L 453 401 Q 492 410 496 413 Q 501 416 501 418 L 501 420 Q 501 424 496 430 Q 490 436 477 441 Q 466 444 457 444 L 453 444 Q 448 444 433 440 Q 419 435 398 431 L 368 424 L 211 400 C 116 385 139 379 223 374 L 256 372 Q 259 371 264 371 Q 273 371 290 374 Q 315 378 337 382 L 397 391 Z" fill="lightgray" />
    
      <path d="M 393 270 L 447 278 Q 468 280 474 284 Q 480 288 481 292 L 481 293 Q 481 295 476 300 Q 471 306 454 311 Q 437 316 430 316 Q 426 316 418 315 Q 410 314 393 311 L 337 299 L 279 288 Q 269 285 217 278 C 187 274 189 258 219 254 L 255 249 L 257 249 Q 262 249 277 251 L 339 260 L 393 270 Z" fill="lightgray" />
    
      <path d="M 392 158 L 443 164 Q 449 164 461 167 Q 475 170 480 173 Q 487 178 487 181 Q 487 185 481 188 Q 477 191 460 197 Q 443 204 441 204 L 437 204 Q 430 204 420 202 Q 407 199 392 197 L 339 189 L 284 180 Q 272 178 219 171 C 189 167 189 154 218 148 L 249 142 Q 251 141 256 141 Q 265 141 285 144 Q 314 148 339 150 L 392 158 Z" fill="lightgray" />
    
      <path d="M 391 78 L 392 158 L 392 197 L 393 270 L 393 311 L 397 391 C 398 421 337 412 337 382 L 337 299 L 339 260 L 339 189 L 339 150 L 336 68 C 335 38 391 48 391 78 Z" fill="lightgray" />
    
      <path d="M 209 24 L 235 16 Q 235 15 238 15 Q 244 15 265 19 L 335 29 L 405 35 Q 463 39 483 39 L 487 39 Q 502 39 509 46 Q 513 50 513 54 Q 513 57 500 66 Q 487 75 475 80 Q 463 86 455 87 Q 449 87 436 85 Q 423 84 391 78 L 336 68 L 213 52 C 183 48 180 33 209 24 Z" fill="lightgray" />
    
      <path d="M 591 438 L 602 452 Q 610 462 628 497 L 661 562 Q 675 592 678 598 Q 681 603 685 609 L 691 618 L 699 624 Q 703 628 704 632 L 704 634 Q 704 639 699 645 Q 693 652 683 660 Q 673 666 661 674 L 641 684 Q 634 686 627 687 Q 622 687 619 685 Q 617 683 617 674 Q 617 666 615 653 L 611 628 Q 609 617 604 598 Q 599 580 586 548 Q 573 515 557 478 Q 540 441 522 410 Q 505 380 487 354 L 468 329 Q 464 324 464 321 Q 464 317 467 315 Q 469 313 472 313 Q 476 313 481 317 L 503 336 Q 513 344 524 355 L 550 381 L 591 438 Z" fill="lightgray" />
    
      <path d="M 550 381 L 553 356 Q 554 353 554 346 Q 554 339 553 328 L 546 118 Q 545 92 541 66 Q 538 38 535 23 L 527 -7 Q 523 -21 522 -27 L 522 -31 Q 522 -41 526 -54 L 535 -81 Q 541 -98 545 -104 Q 555 -122 562 -122 L 563 -122 Q 571 -120 578 -102 Q 586 -83 589 -60 Q 591 -36 593 8 L 596 48 L 599 146 L 600 178 L 603 266 L 605 299 L 605 318 Q 605 320 607 340 L 609 367 Q 611 380 611 386 Q 611 390 603 405 C 590 432 546 411 550 381 Z" fill="lightgray" />
    
      <path d="M 783 458 L 798 479 Q 803 484 803 500 Q 802 516 793 530 Q 785 544 770 553 Q 755 561 745 565 Q 735 570 725 572 Q 715 574 708 574 Q 702 574 700 572 L 700 570 Q 700 567 701 563 L 707 547 Q 709 540 719 518 L 733 490 Q 738 482 746 471 Q 755 461 760 454 C 770 440 770 440 783 458 Z" fill="lightgray" />
    
      <path d="M 772 415 L 813 420 L 877 431 Q 901 435 912 438 Q 923 440 931 445 Q 939 450 939 455 L 939 456 Q 939 461 929 468 Q 919 476 900 481 Q 885 486 876 486 L 873 486 Q 868 485 853 478 Q 839 472 823 468 L 783 458 L 760 454 L 685 445 Q 657 441 632 440 Q 607 438 591 438 C 493 436 522 411 603 405 L 628 403 L 654 401 Q 659 401 685 404 L 717 408 L 772 415 Z" fill="lightgray" />
    
      <path d="M 786 281 L 821 288 L 891 300 L 913 305 Q 927 308 927 315 Q 927 321 919 325 Q 911 330 900 332 L 879 338 Q 867 340 860 340 Q 853 339 839 336 L 786 325 L 729 316 L 691 310 Q 685 308 661 306 L 605 299 C 575 295 576 278 603 266 L 611 262 Q 619 260 628 259 Q 637 259 669 264 L 731 272 L 786 281 Z" fill="lightgray" />
    
      <path d="M 783 160 L 908 180 Q 923 182 927 186 Q 931 188 931 193 Q 931 197 925 202 Q 917 206 912 208 Q 907 210 888 213 Q 869 216 865 216 Q 855 216 838 213 Q 821 210 815 208 L 785 204 L 730 195 L 650 184 L 614 180 Q 609 180 600 178 C 570 173 569 148 599 146 L 611 145 L 630 142 Q 641 142 665 145 L 729 154 L 783 160 Z" fill="lightgray" />
    
      <path d="M 783 66 L 783 160 L 785 204 L 786 281 L 786 325 L 789 357 Q 789 366 794 378 Q 797 388 797 393 L 797 395 Q 796 400 790 404 Q 783 410 772 415 C 746 429 709 437 717 408 L 721 393 Q 725 383 727 370 Q 729 357 729 338 L 729 316 L 731 272 L 730 195 L 729 154 L 728 60 C 728 30 783 36 783 66 Z" fill="lightgray" />
    
      <path d="M 593 8 L 599 6 Q 600 5 603 5 Q 607 5 612 6 L 653 10 L 754 20 L 823 25 Q 863 28 874 28 L 923 28 L 956 30 Q 970 30 976 34 Q 981 38 982 42 Q 982 46 976 52 Q 969 57 959 63 Q 949 70 940 73 L 920 80 Q 909 84 902 84 Q 895 84 881 82 Q 867 79 846 76 Q 825 72 783 66 L 728 60 L 596 48 C 566 45 564 15 593 8 Z" fill="lightgray" />
    
    
      <clipPath id="make-me-a-hanzi-clip-0">
        <path d="M 211 400 L 231 431 Q 237 440 255 476 Q 274 510 281 524 L 297 561 Q 301 569 308 578 Q 315 586 317 590 Q 319 592 319 596 Q 319 603 305 618 Q 289 634 277 640 Q 264 646 258 647 L 254 647 Q 251 647 249 646 Q 247 644 245 639 Q 245 634 244 624 Q 244 612 241 595 Q 239 578 236 566 Q 233 554 223 529 Q 214 504 196 470 Q 178 435 154 396 L 115 338 Q 100 318 75 291 L 55 268 Q 51 263 51 259 Q 51 257 52 255 Q 53 253 56 253 Q 60 253 67 258 L 89 273 Q 116 291 134 308 L 171 344 L 211 400 Z" />
      </clipPath>
      <path clip-path="url(#make-me-a-hanzi-clip-0)" d="M 253 639 L 276 594 L 229 478 L 158 362 L 119 315 L 56 258" fill="none" id="make-me-a-hanzi-animation-0" stroke-dasharray="586 1172" stroke-linecap="round" />
    
      <clipPath id="make-me-a-hanzi-clip-1">
        <path d="M 171 344 L 173 230 Q 173 196 171 154 L 166 97 Q 165 88 160 64 Q 155 40 149 20 Q 143 0 143 -2 L 143 -6 Q 143 -16 147 -26 Q 151 -38 161 -53 Q 169 -68 175 -71 Q 178 -73 181 -73 L 183 -73 Q 188 -72 196 -61 Q 205 -50 207 -28 Q 209 -6 209 24 L 213 52 L 218 148 L 219 171 L 219 254 L 217 278 L 219 320 Q 219 330 223 374 C 226 404 170 374 171 344 Z" />
      </clipPath>
      <path clip-path="url(#make-me-a-hanzi-clip-1)" d="M 220 364 L 195 330 L 195 155 L 176 -5 L 182 -65" fill="none" id="make-me-a-hanzi-animation-1" stroke-dasharray="567 1134" stroke-linecap="round" />
    
      <clipPath id="make-me-a-hanzi-clip-2">
        <path d="M 398 431 L 404 447 Q 407 454 407 467 Q 406 482 399 491 Q 393 500 374 509 Q 355 517 341 520 L 320 524 L 315 524 Q 310 524 309 523 Q 308 521 308 519 L 308 518 Q 308 509 320 489 Q 333 468 339 460 Q 345 451 352 442 L 368 424 C 387 402 387 403 398 431 Z" />
      </clipPath>
      <path clip-path="url(#make-me-a-hanzi-clip-2)" d="M 313 520 L 371 472 L 388 439" fill="none" id="make-me-a-hanzi-animation-2" stroke-dasharray="240 480" stroke-linecap="round" />
    
      <clipPath id="make-me-a-hanzi-clip-3">
        <path d="M 397 391 L 453 401 Q 492 410 496 413 Q 501 416 501 418 L 501 420 Q 501 424 496 430 Q 490 436 477 441 Q 466 444 457 444 L 453 444 Q 448 444 433 440 Q 419 435 398 431 L 368 424 L 211 400 C 116 385 139 379 223 374 L 256 372 Q 259 371 264 371 Q 273 371 290 374 Q 315 378 337 382 L 397 391 Z" />
      </clipPath>
      <path clip-path="url(#make-me-a-hanzi-clip-3)" d="M 177 348 L 221 389 L 295 393 L 452 423 L 495 419" fill="none" id="make-me-a-hanzi-animation-3" stroke-dasharray="465 930" stroke-linecap="round" />
    
      <clipPath id="make-me-a-hanzi-clip-4">
        <path d="M 393 270 L 447 278 Q 468 280 474 284 Q 480 288 481 292 L 481 293 Q 481 295 476 300 Q 471 306 454 311 Q 437 316 430 316 Q 426 316 418 315 Q 410 314 393 311 L 337 299 L 279 288 Q 269 285 217 278 C 187 274 189 258 219 254 L 255 249 L 257 249 Q 262 249 277 251 L 339 260 L 393 270 Z" />
      </clipPath>
      <path clip-path="url(#make-me-a-hanzi-clip-4)" d="M 226 261 L 233 268 L 260 266 L 404 293 L 473 293" fill="none" id="make-me-a-hanzi-animation-4" stroke-dasharray="380 760" stroke-linecap="round" />
    
      <clipPath id="make-me-a-hanzi-clip-5">
        <path d="M 392 158 L 443 164 Q 449 164 461 167 Q 475 170 480 173 Q 487 178 487 181 Q 487 185 481 188 Q 477 191 460 197 Q 443 204 441 204 L 437 204 Q 430 204 420 202 Q 407 199 392 197 L 339 189 L 284 180 Q 272 178 219 171 C 189 167 189 154 218 148 L 249 142 Q 251 141 256 141 Q 265 141 285 144 Q 314 148 339 150 L 392 158 Z" />
      </clipPath>
      <path clip-path="url(#make-me-a-hanzi-clip-5)" d="M 227 153 L 233 160 L 274 160 L 417 182 L 479 181" fill="none" id="make-me-a-hanzi-animation-5" stroke-dasharray="385 770" stroke-linecap="round" />
    
      <clipPath id="make-me-a-hanzi-clip-6">
        <path d="M 391 78 L 392 158 L 392 197 L 393 270 L 393 311 L 397 391 C 398 421 337 412 337 382 L 337 299 L 339 260 L 339 189 L 339 150 L 336 68 C 335 38 391 48 391 78 Z" />
      </clipPath>
      <path clip-path="url(#make-me-a-hanzi-clip-6)" d="M 390 385 L 366 357 L 365 112 L 364 101 L 342 75" fill="none" id="make-me-a-hanzi-animation-6" stroke-dasharray="455 910" stroke-linecap="round" />
    
      <clipPath id="make-me-a-hanzi-clip-7">
        <path d="M 209 24 L 235 16 Q 235 15 238 15 Q 244 15 265 19 L 335 29 L 405 35 Q 463 39 483 39 L 487 39 Q 502 39 509 46 Q 513 50 513 54 Q 513 57 500 66 Q 487 75 475 80 Q 463 86 455 87 Q 449 87 436 85 Q 423 84 391 78 L 336 68 L 213 52 C 183 48 180 33 209 24 Z" />
      </clipPath>
      <path clip-path="url(#make-me-a-hanzi-clip-7)" d="M 218 30 L 229 36 L 404 59 L 461 62 L 506 52" fill="none" id="make-me-a-hanzi-animation-7" stroke-dasharray="420 840" stroke-linecap="round" />
    
      <clipPath id="make-me-a-hanzi-clip-8">
        <path d="M 591 438 L 602 452 Q 610 462 628 497 L 661 562 Q 675 592 678 598 Q 681 603 685 609 L 691 618 L 699 624 Q 703 628 704 632 L 704 634 Q 704 639 699 645 Q 693 652 683 660 Q 673 666 661 674 L 641 684 Q 634 686 627 687 Q 622 687 619 685 Q 617 683 617 674 Q 617 666 615 653 L 611 628 Q 609 617 604 598 Q 599 580 586 548 Q 573 515 557 478 Q 540 441 522 410 Q 505 380 487 354 L 468 329 Q 464 324 464 321 Q 464 317 467 315 Q 469 313 472 313 Q 476 313 481 317 L 503 336 Q 513 344 524 355 L 550 381 L 591 438 Z" />
      </clipPath>
      <path clip-path="url(#make-me-a-hanzi-clip-8)" d="M 625 678 L 652 632 L 635 583 L 592 488 L 539 398 L 473 322" fill="none" id="make-me-a-hanzi-animation-8" stroke-dasharray="543 1086" stroke-linecap="round" />
    
      <clipPath id="make-me-a-hanzi-clip-9">
        <path d="M 550 381 L 553 356 Q 554 353 554 346 Q 554 339 553 328 L 546 118 Q 545 92 541 66 Q 538 38 535 23 L 527 -7 Q 523 -21 522 -27 L 522 -31 Q 522 -41 526 -54 L 535 -81 Q 541 -98 545 -104 Q 555 -122 562 -122 L 563 -122 Q 571 -120 578 -102 Q 586 -83 589 -60 Q 591 -36 593 8 L 596 48 L 599 146 L 600 178 L 603 266 L 605 299 L 605 318 Q 605 320 607 340 L 609 367 Q 611 380 611 386 Q 611 390 603 405 C 590 432 546 411 550 381 Z" />
      </clipPath>
      <path clip-path="url(#make-me-a-hanzi-clip-9)" d="M 599 396 L 580 354 L 572 110 L 556 -33 L 563 -113" fill="none" id="make-me-a-hanzi-animation-9" stroke-dasharray="642 1284" stroke-linecap="round" />
    
      <clipPath id="make-me-a-hanzi-clip-10">
        <path d="M 783 458 L 798 479 Q 803 484 803 500 Q 802 516 793 530 Q 785 544 770 553 Q 755 561 745 565 Q 735 570 725 572 Q 715 574 708 574 Q 702 574 700 572 L 700 570 Q 700 567 701 563 L 707 547 Q 709 540 719 518 L 733 490 Q 738 482 746 471 Q 755 461 760 454 C 770 440 770 440 783 458 Z" />
      </clipPath>
      <path clip-path="url(#make-me-a-hanzi-clip-10)" d="M 705 571 L 766 505 L 770 480 L 764 464" fill="none" id="make-me-a-hanzi-animation-10" stroke-dasharray="260 520" stroke-linecap="round" />
    
      <clipPath id="make-me-a-hanzi-clip-11">
        <path d="M 772 415 L 813 420 L 877 431 Q 901 435 912 438 Q 923 440 931 445 Q 939 450 939 455 L 939 456 Q 939 461 929 468 Q 919 476 900 481 Q 885 486 876 486 L 873 486 Q 868 485 853 478 Q 839 472 823 468 L 783 458 L 760 454 L 685 445 Q 657 441 632 440 Q 607 438 591 438 C 493 436 522 411 603 405 L 628 403 L 654 401 Q 659 401 685 404 L 717 408 L 772 415 Z" />
      </clipPath>
      <path clip-path="url(#make-me-a-hanzi-clip-11)" d="M 556 385 L 599 422 L 673 422 L 763 433 L 877 459 L 928 456" fill="none" id="make-me-a-hanzi-animation-11" stroke-dasharray="517 1034" stroke-linecap="round" />
    
      <clipPath id="make-me-a-hanzi-clip-12">
        <path d="M 786 281 L 821 288 L 891 300 L 913 305 Q 927 308 927 315 Q 927 321 919 325 Q 911 330 900 332 L 879 338 Q 867 340 860 340 Q 853 339 839 336 L 786 325 L 729 316 L 691 310 Q 685 308 661 306 L 605 299 C 575 295 576 278 603 266 L 611 262 Q 619 260 628 259 Q 637 259 669 264 L 731 272 L 786 281 Z" />
      </clipPath>
      <path clip-path="url(#make-me-a-hanzi-clip-12)" d="M 613 293 L 623 281 L 657 283 L 863 318 L 918 316" fill="none" id="make-me-a-hanzi-animation-12" stroke-dasharray="442 884" stroke-linecap="round" />
    
      <clipPath id="make-me-a-hanzi-clip-13">
        <path d="M 783 160 L 908 180 Q 923 182 927 186 Q 931 188 931 193 Q 931 197 925 202 Q 917 206 912 208 Q 907 210 888 213 Q 869 216 865 216 Q 855 216 838 213 Q 821 210 815 208 L 785 204 L 730 195 L 650 184 L 614 180 Q 609 180 600 178 C 570 173 569 148 599 146 L 611 145 L 630 142 Q 641 142 665 145 L 729 154 L 783 160 Z" />
      </clipPath>
      <path clip-path="url(#make-me-a-hanzi-clip-13)" d="M 605 151 L 622 163 L 849 193 L 922 194" fill="none" id="make-me-a-hanzi-animation-13" stroke-dasharray="451 902" stroke-linecap="round" />
    
      <clipPath id="make-me-a-hanzi-clip-14">
        <path d="M 783 66 L 783 160 L 785 204 L 786 281 L 786 325 L 789 357 Q 789 366 794 378 Q 797 388 797 393 L 797 395 Q 796 400 790 404 Q 783 410 772 415 C 746 429 709 437 717 408 L 721 393 Q 725 383 727 370 Q 729 357 729 338 L 729 316 L 731 272 L 730 195 L 729 154 L 728 60 C 728 30 783 36 783 66 Z" />
      </clipPath>
      <path clip-path="url(#make-me-a-hanzi-clip-14)" d="M 725 402 L 759 380 L 756 91 L 734 68" fill="none" id="make-me-a-hanzi-animation-14" stroke-dasharray="489 978" stroke-linecap="round" />
    
      <clipPath id="make-me-a-hanzi-clip-15">
        <path d="M 593 8 L 599 6 Q 600 5 603 5 Q 607 5 612 6 L 653 10 L 754 20 L 823 25 Q 863 28 874 28 L 923 28 L 956 30 Q 970 30 976 34 Q 981 38 982 42 Q 982 46 976 52 Q 969 57 959 63 Q 949 70 940 73 L 920 80 Q 909 84 902 84 Q 895 84 881 82 Q 867 79 846 76 Q 825 72 783 66 L 728 60 L 596 48 C 566 45 564 15 593 8 Z" />
      </clipPath>
      <path clip-path="url(#make-me-a-hanzi-clip-15)" d="M 598 14 L 620 29 L 890 56 L 972 43" fill="none" id="make-me-a-hanzi-animation-15" stroke-dasharray="509 1018" stroke-linecap="round" />
    
  </g>
</svg>