<svg xmlns="http://www.w3.org/2000/svg" version="1.1" viewBox="0 0 1024 1024">
  <g stroke="lightgray" stroke-dasharray="1,1" stroke-width="1" transform="scale(4, 4)">
    <line x1="0" y1="0" x2="256" y2="256" />
    <line x1="256" y1="0" x2="0" y2="256" />
    <line x1="128" y1="0" x2="128" y2="256" />
    <line x1="0" y1="128" x2="256" y2="128" />
  </g>
  <g transform="scale(1.0, -1.0) translate(0.0, -819.00)">
    <style type="text/css">
      
        @keyframes keyframes0 {
          from {
            stroke: blue;
            stroke-dashoffset: 441;
            stroke-width: 128;
          }
          59% {
            animation-timing-function: step-end;
            stroke: blue;
            stroke-dashoffset: 0;
            stroke-width: 128;
          }
          to {
            stroke: black;
            stroke-width: 1024;
          }
        }
        #make-me-a-hanzi-animation-0 {
          animation: keyframes0 0.60888671875s both;
          animation-delay: 0s;
          animation-timing-function: linear;
        }
      
        @keyframes keyframes1 {
          from {
            stroke: blue;
            stroke-dashoffset: 568;
            stroke-width: 128;
          }
          65% {
            animation-timing-function: step-end;
            stroke: blue;
            stroke-dashoffset: 0;
            stroke-width: 128;
          }
          to {
            stroke: black;
            stroke-width: 1024;
          }
        }
        #make-me-a-hanzi-animation-1 {
          animation: keyframes1 0.7122395833333334s both;
          animation-delay: 0.60888671875s;
          animation-timing-function: linear;
        }
      
        @keyframes keyframes2 {
          from {
            stroke: blue;
            stroke-dashoffset: 443;
            stroke-width: 128;
          }
          59% {
            animation-timing-function: step-end;
            stroke: blue;
            stroke-dashoffset: 0;
            stroke-width: 128;
          }
          to {
            stroke: black;
            stroke-width: 1024;
          }
        }
        #make-me-a-hanzi-animation-2 {
          animation: keyframes2 0.6105143229166666s both;
          animation-delay: 1.3211263020833335s;
          animation-timing-function: linear;
        }
      
        @keyframes keyframes3 {
          from {
            stroke: blue;
            stroke-dashoffset: 440;
            stroke-width: 128;
          }
          59% {
            animation-timing-function: step-end;
            stroke: blue;
            stroke-dashoffset: 0;
            stroke-width: 128;
          }
          to {
            stroke: black;
            stroke-width: 1024;
          }
        }
        #make-me-a-hanzi-animation-3 {
          animation: keyframes3 0.6080729166666666s both;
          animation-delay: 1.931640625s;
          animation-timing-function: linear;
        }
      
        @keyframes keyframes4 {
          from {
            stroke: blue;
            stroke-dashoffset: 617;
            stroke-width: 128;
          }
          67% {
            animation-timing-function: step-end;
            stroke: blue;
            stroke-dashoffset: 0;
            stroke-width: 128;
          }
          to {
            stroke: black;
            stroke-width: 1024;
          }
        }
        #make-me-a-hanzi-animation-4 {
          animation: keyframes4 0.7521158854166666s both;
          animation-delay: 2.5397135416666665s;
          animation-timing-function: linear;
        }
      
        @keyframes keyframes5 {
          from {
            stroke: blue;
            stroke-dashoffset: 478;
            stroke-width: 128;
          }
          61% {
            animation-timing-function: step-end;
            stroke: blue;
            stroke-dashoffset: 0;
            stroke-width: 128;
          }
          to {
            stroke: black;
            stroke-width: 1024;
          }
        }
        #make-me-a-hanzi-animation-5 {
          animation: keyframes5 0.6389973958333334s both;
          animation-delay: 3.291829427083333s;
          animation-timing-function: linear;
        }
      
        @keyframes keyframes6 {
          from {
            stroke: blue;
            stroke-dashoffset: 622;
            stroke-width: 128;
          }
          67% {
            animation-timing-function: step-end;
            stroke: blue;
            stroke-dashoffset: 0;
            stroke-width: 128;
          }
          to {
            stroke: black;
            stroke-width: 1024;
          }
        }
        #make-me-a-hanzi-animation-6 {
          animation: keyframes6 0.7561848958333334s both;
          animation-delay: 3.9308268229166665s;
          animation-timing-function: linear;
        }
      
        @keyframes keyframes7 {
          from {
            stroke: blue;
            stroke-dashoffset: 594;
            stroke-width: 128;
          }
          66% {
            animation-timing-function: step-end;
            stroke: blue;
            stroke-dashoffset: 0;
            stroke-width: 128;
          }
          to {
            stroke: black;
            stroke-width: 1024;
          }
        }
        #make-me-a-hanzi-animation-7 {
          animation: keyframes7 0.7333984375s both;
          animation-delay: 4.68701171875s;
          animation-timing-function: linear;
        }
      
        @keyframes keyframes8 {
          from {
            stroke: blue;
            stroke-dashoffset: 395;
            stroke-width: 128;
          }
          56% {
            animation-timing-function: step-end;
            stroke: blue;
            stroke-dashoffset: 0;
            stroke-width: 128;
          }
          to {
            stroke: black;
            stroke-width: 1024;
          }
        }
        #make-me-a-hanzi-animation-8 {
          animation: keyframes8 0.5714518229166666s both;
          animation-delay: 5.42041015625s;
          animation-timing-function: linear;
        }
      
        @keyframes keyframes9 {
          from {
            stroke: blue;
            stroke-dashoffset: 675;
            stroke-width: 128;
          }
          69% {
            animation-timing-function: step-end;
            stroke: blue;
            stroke-dashoffset: 0;
            stroke-width: 128;
          }
          to {
            stroke: black;
            stroke-width: 1024;
          }
        }
        #make-me-a-hanzi-animation-9 {
          animation: keyframes9 0.79931640625s both;
          animation-delay: 5.991861979166667s;
          animation-timing-function: linear;
        }
      
        @keyframes keyframes10 {
          from {
            stroke: blue;
            stroke-dashoffset: 785;
            stroke-width: 128;
          }
          72% {
            animation-timing-function: step-end;
            stroke: blue;
            stroke-dashoffset: 0;
            stroke-width: 128;
          }
          to {
            stroke: black;
            stroke-width: 1024;
          }
        }
        #make-me-a-hanzi-animation-10 {
          animation: keyframes10 0.8888346354166666s both;
          animation-delay: 6.791178385416667s;
          animation-timing-function: linear;
        }
      
        @keyframes keyframes11 {
          from {
            stroke: blue;
            stroke-dashoffset: 381;
            stroke-width: 128;
          }
          55% {
            animation-timing-function: step-end;
            stroke: blue;
            stroke-dashoffset: 0;
            stroke-width: 128;
          }
          to {
            stroke: black;
            stroke-width: 1024;
          }
        }
        #make-me-a-hanzi-animation-11 {
          animation: keyframes11 0.56005859375s both;
          animation-delay: 7.680013020833334s;
          animation-timing-function: linear;
        }
      
        @keyframes keyframes12 {
          from {
            stroke: blue;
            stroke-dashoffset: 643;
            stroke-width: 128;
          }
          68% {
            animation-timing-function: step-end;
            stroke: blue;
            stroke-dashoffset: 0;
            stroke-width: 128;
          }
          to {
            stroke: black;
            stroke-width: 1024;
          }
        }
        #make-me-a-hanzi-animation-12 {
          animation: keyframes12 0.7732747395833334s both;
          animation-delay: 8.240071614583334s;
          animation-timing-function: linear;
        }
      
        @keyframes keyframes13 {
          from {
            stroke: blue;
            stroke-dashoffset: 569;
            stroke-width: 128;
          }
          65% {
            animation-timing-function: step-end;
            stroke: blue;
            stroke-dashoffset: 0;
            stroke-width: 128;
          }
          to {
            stroke: black;
            stroke-width: 1024;
          }
        }
        #make-me-a-hanzi-animation-13 {
          animation: keyframes13 0.7130533854166666s both;
          animation-delay: 9.013346354166668s;
          animation-timing-function: linear;
        }
      
        @keyframes keyframes14 {
          from {
            stroke: blue;
            stroke-dashoffset: 568;
            stroke-width: 128;
          }
          65% {
            animation-timing-function: step-end;
            stroke: blue;
            stroke-dashoffset: 0;
            stroke-width: 128;
          }
          to {
            stroke: black;
            stroke-width: 1024;
          }
        }
        #make-me-a-hanzi-animation-14 {
          animation: keyframes14 0.7122395833333334s both;
          animation-delay: 9.726399739583334s;
          animation-timing-function: linear;
        }
      
        @keyframes keyframes15 {
          from {
            stroke: blue;
            stroke-dashoffset: 626;
            stroke-width: 128;
          }
          67% {
            animation-timing-function: step-end;
            stroke: blue;
            stroke-dashoffset: 0;
            stroke-width: 128;
          }
          to {
            stroke: black;
            stroke-width: 1024;
          }
        }
        #make-me-a-hanzi-animation-15 {
          animation: keyframes15 0.7594401041666666s both;
          animation-delay: 10.438639322916668s;
          animation-timing-function: linear;
        }
      
        @keyframes keyframes16 {
          from {
            stroke: blue;
            stroke-dashoffset: 638;
            stroke-width: 128;
          }
          67% {
            animation-timing-function: step-end;
            stroke: blue;
            stroke-dashoffset: 0;
            stroke-width: 128;
          }
          to {
            stroke: black;
            stroke-width: 1024;
          }
        }
        #make-me-a-hanzi-animation-16 {
          animation: keyframes16 0.7692057291666666s both;
          animation-delay: 11.198079427083334s;
          animation-timing-function: linear;
        }
      
    </style>
    
      <path d="M 183 585 L 170 590 Q 168 590 140 595 Q 135 596 131 596 Q 126 596 124 594 Q 120 590 120 587 Q 120 584 130 578 Q 140 572 145 562 Q 151 552 156 538 Q 160 525 162 512 L 170 462 Q 176 428 181 422 Q 186 416 192 416 Q 198 417 202 421 Q 206 426 210 434 L 211 466 L 194 560 C 190 582 190 582 183 585 Z" fill="lightgray" />
    
      <path d="M 388 484 L 407 539 Q 410 548 417 560 Q 424 572 432 580 Q 440 590 440 594 Q 440 600 433 607 Q 426 613 408 622 L 386 633 Q 376 637 369 637 L 366 637 Q 362 636 350 630 Q 340 624 319 617 Q 299 610 279 604 Q 259 599 234 594 Q 210 590 183 585 C 153 580 164 555 194 560 L 304 580 Q 315 582 332 584 Q 339 585 343 585 Q 351 585 353 583 Q 355 580 355 573 L 355 568 L 352 550 L 343 492 C 338 462 378 456 388 484 Z" fill="lightgray" />
    
      <path d="M 298 446 L 330 450 Q 348 452 372 454 L 389 456 Q 398 456 401 460 Q 403 462 403 465 Q 403 467 402 469 Q 402 476 388 484 C 367 497 367 497 343 492 L 286 480 Q 269 476 254 472 Q 238 470 211 466 C 181 462 180 434 210 434 L 226 434 Q 231 434 246 438 L 298 446 Z" fill="lightgray" />
    
      <path d="M 147 325 L 132 328 Q 128 328 112 329 Q 102 329 97 324 Q 94 320 94 318 Q 94 317 95 316 Q 98 314 102 313 Q 107 312 114 304 Q 120 296 127 280 Q 134 265 138 249 L 150 189 Q 154 168 160 164 Q 165 160 170 160 Q 171 160 173 161 Q 179 162 182 168 Q 185 172 186 180 L 186 210 L 179 245 Q 177 254 170 293 C 165 321 165 321 147 325 Z" fill="lightgray" />
    
      <path d="M 406 235 L 414 252 L 426 277 Q 436 296 442 303 L 450 310 Q 456 315 457 320 L 457 322 Q 457 325 454 330 Q 450 337 437 350 Q 423 363 412 370 Q 401 378 394 378 Q 390 378 379 373 Q 368 368 352 364 Q 336 360 302 353 L 250 343 L 220 338 Q 194 332 181 330 Q 169 328 147 325 C 117 321 141 286 170 293 L 192 298 Q 206 302 252 314 L 300 322 L 330 326 Q 352 329 359 329 L 362 329 Q 373 327 376 322 Q 378 320 378 315 Q 378 309 376 300 L 366 246 C 361 217 393 208 406 235 Z" fill="lightgray" />
    
      <path d="M 298 198 L 330 202 L 356 206 Q 367 208 382 208 L 404 208 Q 412 208 414 211 Q 416 213 416 217 L 416 220 Q 416 226 406 235 C 390 251 390 251 366 246 L 339 240 Q 330 238 298 232 L 252 220 L 186 210 C 156 206 156 175 186 180 L 252 192 L 298 198 Z" fill="lightgray" />
    
      <path d="M 292 85 L 298 198 L 298 232 L 300 322 L 302 353 L 302 381 Q 302 386 306 404 Q 308 414 308 421 Q 308 425 307 428 Q 306 434 298 446 C 283 472 245 468 246 438 L 250 343 L 252 314 L 252 220 L 252 192 L 254 72 C 254 42 290 55 292 85 Z" fill="lightgray" />
    
      <path d="M 254 72 L 166 50 Q 158 48 144 47 Q 130 46 122 46 Q 114 46 104 47 Q 94 48 85 49 Q 77 50 73 50 Q 64 49 62 45 Q 61 44 61 42 Q 61 39 64 34 Q 68 26 88 10 L 116 -14 Q 126 -20 134 -20 L 136 -20 Q 142 -20 148 -16 L 162 -6 L 186 6 Q 205 15 210 17 L 398 87 C 426 97 415 124 386 115 L 292 85 L 254 72 Z" fill="lightgray" />
    
      <path d="M 398 87 L 417 58 Q 429 38 442 38 Q 448 38 454 44 Q 460 49 462 68 Q 462 84 459 100 Q 456 116 444 129 Q 432 142 417 150 Q 402 158 393 164 L 372 174 Q 370 175 368 175 Q 364 175 361 172 Q 359 170 359 168 Q 359 165 362 161 L 370 148 Q 375 139 378 132 Q 382 125 386 115 L 398 87 Z" fill="lightgray" />
    
      <path d="M 546 450 L 554 458 Q 557 462 562 467 Q 566 472 580 492 Q 594 510 610 537 Q 626 564 641 592 Q 656 620 661 630 Q 666 639 670 644 Q 674 650 681 657 Q 687 664 688 667 Q 688 671 683 679 Q 678 688 667 696 Q 656 706 646 712 Q 636 718 625 723 Q 618 726 614 726 Q 611 726 609 725 Q 604 722 604 710 L 604 701 Q 604 695 603 687 Q 602 678 598 660 Q 594 641 588 622 Q 582 602 568 571 Q 554 540 540 514 Q 526 488 512 468 Q 498 447 480 423 Q 462 398 457 393 L 442 374 Q 435 367 435 363 Q 435 361 437 360 Q 439 358 442 358 Q 446 358 450 361 L 466 372 Q 477 380 488 391 L 515 417 L 546 450 Z" fill="lightgray" />
    
      <path d="M 515 417 L 522 398 Q 524 394 525 374 Q 526 354 527 339 Q 528 324 528 314 L 522 114 Q 522 100 520 72 Q 517 43 515 27 Q 512 10 508 -6 Q 503 -22 503 -27 L 503 -29 Q 503 -35 506 -47 Q 510 -61 512 -67 Q 514 -73 518 -84 Q 524 -96 529 -103 Q 535 -111 540 -112 Q 545 -112 550 -108 Q 556 -103 562 -92 Q 567 -81 571 -68 Q 575 -55 576 -43 Q 576 -38 575 -20 Q 574 -2 574 16 L 573 56 L 573 160 L 574 191 L 574 273 L 576 310 L 577 334 Q 577 338 578 349 Q 580 360 584 374 Q 587 385 587 392 L 587 395 Q 586 401 574 416 C 557 440 505 445 515 417 Z" fill="lightgray" />
    
      <path d="M 764 482 L 768 507 Q 769 511 769 515 Q 769 520 768 526 Q 767 538 762 547 Q 757 555 742 566 Q 726 578 717 582 L 696 590 Q 688 594 683 594 Q 680 594 678 592 Q 677 590 677 588 Q 677 584 680 577 L 688 551 L 700 524 Q 710 506 713 499 Q 716 493 727 476 C 743 451 759 452 764 482 Z" fill="lightgray" />
    
      <path d="M 753 434 L 772 436 Q 778 436 805 441 Q 832 446 856 451 Q 880 456 896 463 Q 912 470 912 475 Q 912 480 904 486 Q 896 492 878 498 Q 863 503 853 503 L 850 503 Q 844 502 829 497 Q 814 492 800 489 Q 786 486 764 482 L 727 476 L 677 465 Q 658 460 618 456 Q 578 452 570 452 Q 562 451 546 450 C 483 446 491 416 574 416 L 604 416 Q 615 416 643 419 Q 678 423 692 424 L 753 434 Z" fill="lightgray" />
    
      <path d="M 756 294 L 768 296 Q 776 296 808 302 Q 840 307 853 308 L 884 312 Q 892 312 892 319 Q 892 325 886 330 Q 880 336 869 339 Q 858 342 849 344 Q 839 346 830 346 Q 824 346 807 344 L 784 340 Q 774 338 756 335 L 707 327 L 688 324 Q 647 318 624 315 L 593 311 Q 584 310 576 310 C 546 309 544 270 574 273 L 594 275 Q 646 280 669 283 L 708 288 L 756 294 Z" fill="lightgray" />
    
      <path d="M 754 171 L 774 173 Q 775 173 808 177 Q 842 182 848 182 L 886 188 Q 895 190 895 196 L 895 197 Q 895 203 889 207 Q 882 212 873 216 Q 863 218 852 221 Q 840 223 833 223 Q 826 222 814 220 Q 800 218 788 216 Q 776 215 754 212 L 708 206 L 688 204 Q 647 198 615 195 Q 583 192 574 191 C 544 188 543 164 573 160 L 600 156 L 606 156 Q 614 156 631 157 Q 656 160 670 161 Q 684 162 708 165 L 754 171 Z" fill="lightgray" />
    
      <path d="M 753 73 L 754 171 L 754 212 L 756 294 L 756 335 L 756 348 L 759 370 Q 762 390 764 398 Q 768 412 768 418 Q 766 423 753 434 C 731 454 680 452 692 424 L 700 405 Q 704 396 705 383 Q 706 369 706 356 Q 706 343 707 327 L 708 288 L 708 206 L 708 165 L 709 68 C 709 38 753 43 753 73 Z" fill="lightgray" />
    
      <path d="M 574 16 L 594 17 L 684 23 L 784 31 Q 810 32 833 34 Q 856 34 879 36 L 914 36 Q 947 37 957 43 Q 966 49 966 55 Q 966 62 956 69 Q 946 77 931 83 Q 917 89 906 92 Q 894 96 888 96 Q 882 95 868 91 Q 853 87 824 83 L 766 74 Q 761 74 753 73 L 709 68 L 687 65 Q 667 62 626 60 Q 586 56 573 56 C 543 55 544 15 574 16 Z" fill="lightgray" />
    
    
      <clipPath id="make-me-a-hanzi-clip-0">
        <path d="M 183 585 L 170 590 Q 168 590 140 595 Q 135 596 131 596 Q 126 596 124 594 Q 120 590 120 587 Q 120 584 130 578 Q 140 572 145 562 Q 151 552 156 538 Q 160 525 162 512 L 170 462 Q 176 428 181 422 Q 186 416 192 416 Q 198 417 202 421 Q 206 426 210 434 L 211 466 L 194 560 C 190 582 190 582 183 585 Z" />
      </clipPath>
      <path clip-path="url(#make-me-a-hanzi-clip-0)" d="M 129 587 L 149 583 L 172 558 L 190 470 L 192 429" fill="none" id="make-me-a-hanzi-animation-0" stroke-dasharray="313 626" stroke-linecap="round" />
    
      <clipPath id="make-me-a-hanzi-clip-1">
        <path d="M 388 484 L 407 539 Q 410 548 417 560 Q 424 572 432 580 Q 440 590 440 594 Q 440 600 433 607 Q 426 613 408 622 L 386 633 Q 376 637 369 637 L 366 637 Q 362 636 350 630 Q 340 624 319 617 Q 299 610 279 604 Q 259 599 234 594 Q 210 590 183 585 C 153 580 164 555 194 560 L 304 580 Q 315 582 332 584 Q 339 585 343 585 Q 351 585 353 583 Q 355 580 355 573 L 355 568 L 352 550 L 343 492 C 338 462 378 456 388 484 Z" />
      </clipPath>
      <path clip-path="url(#make-me-a-hanzi-clip-1)" d="M 191 581 L 205 576 L 231 579 L 331 603 L 378 603 L 390 585 L 387 569 L 372 512 L 352 498" fill="none" id="make-me-a-hanzi-animation-1" stroke-dasharray="440 880" stroke-linecap="round" />
    
      <clipPath id="make-me-a-hanzi-clip-2">
        <path d="M 298 446 L 330 450 Q 348 452 372 454 L 389 456 Q 398 456 401 460 Q 403 462 403 465 Q 403 467 402 469 Q 402 476 388 484 C 367 497 367 497 343 492 L 286 480 Q 269 476 254 472 Q 238 470 211 466 C 181 462 180 434 210 434 L 226 434 Q 231 434 246 438 L 298 446 Z" />
      </clipPath>
      <path clip-path="url(#make-me-a-hanzi-clip-2)" d="M 214 439 L 236 453 L 340 472 L 395 465" fill="none" id="make-me-a-hanzi-animation-2" stroke-dasharray="315 630" stroke-linecap="round" />
    
      <clipPath id="make-me-a-hanzi-clip-3">
        <path d="M 147 325 L 132 328 Q 128 328 112 329 Q 102 329 97 324 Q 94 320 94 318 Q 94 317 95 316 Q 98 314 102 313 Q 107 312 114 304 Q 120 296 127 280 Q 134 265 138 249 L 150 189 Q 154 168 160 164 Q 165 160 170 160 Q 171 160 173 161 Q 179 162 182 168 Q 185 172 186 180 L 186 210 L 179 245 Q 177 254 170 293 C 165 321 165 321 147 325 Z" />
      </clipPath>
      <path clip-path="url(#make-me-a-hanzi-clip-3)" d="M 99 319 L 106 322 L 135 308 L 149 286 L 166 212 L 168 170" fill="none" id="make-me-a-hanzi-animation-3" stroke-dasharray="312 624" stroke-linecap="round" />
    
      <clipPath id="make-me-a-hanzi-clip-4">
        <path d="M 406 235 L 414 252 L 426 277 Q 436 296 442 303 L 450 310 Q 456 315 457 320 L 457 322 Q 457 325 454 330 Q 450 337 437 350 Q 423 363 412 370 Q 401 378 394 378 Q 390 378 379 373 Q 368 368 352 364 Q 336 360 302 353 L 250 343 L 220 338 Q 194 332 181 330 Q 169 328 147 325 C 117 321 141 286 170 293 L 192 298 Q 206 302 252 314 L 300 322 L 330 326 Q 352 329 359 329 L 362 329 Q 373 327 376 322 Q 378 320 378 315 Q 378 309 376 300 L 366 246 C 361 217 393 208 406 235 Z" />
      </clipPath>
      <path clip-path="url(#make-me-a-hanzi-clip-4)" d="M 154 322 L 177 312 L 364 349 L 393 347 L 413 324 L 393 263 L 401 243" fill="none" id="make-me-a-hanzi-animation-4" stroke-dasharray="489 978" stroke-linecap="round" />
    
      <clipPath id="make-me-a-hanzi-clip-5">
        <path d="M 298 198 L 330 202 L 356 206 Q 367 208 382 208 L 404 208 Q 412 208 414 211 Q 416 213 416 217 L 416 220 Q 416 226 406 235 C 390 251 390 251 366 246 L 339 240 Q 330 238 298 232 L 252 220 L 186 210 C 156 206 156 175 186 180 L 252 192 L 298 198 Z" />
      </clipPath>
      <path clip-path="url(#make-me-a-hanzi-clip-5)" d="M 191 188 L 221 202 L 368 227 L 407 217" fill="none" id="make-me-a-hanzi-animation-5" stroke-dasharray="350 700" stroke-linecap="round" />
    
      <clipPath id="make-me-a-hanzi-clip-6">
        <path d="M 292 85 L 298 198 L 298 232 L 300 322 L 302 353 L 302 381 Q 302 386 306 404 Q 308 414 308 421 Q 308 425 307 428 Q 306 434 298 446 C 283 472 245 468 246 438 L 250 343 L 252 314 L 252 220 L 252 192 L 254 72 C 254 42 290 55 292 85 Z" />
      </clipPath>
      <path clip-path="url(#make-me-a-hanzi-clip-6)" d="M 254 430 L 277 412 L 274 107 L 258 80" fill="none" id="make-me-a-hanzi-animation-6" stroke-dasharray="494 988" stroke-linecap="round" />
    
      <clipPath id="make-me-a-hanzi-clip-7">
        <path d="M 254 72 L 166 50 Q 158 48 144 47 Q 130 46 122 46 Q 114 46 104 47 Q 94 48 85 49 Q 77 50 73 50 Q 64 49 62 45 Q 61 44 61 42 Q 61 39 64 34 Q 68 26 88 10 L 116 -14 Q 126 -20 134 -20 L 136 -20 Q 142 -20 148 -16 L 162 -6 L 186 6 Q 205 15 210 17 L 398 87 C 426 97 415 124 386 115 L 292 85 L 254 72 Z" />
      </clipPath>
      <path clip-path="url(#make-me-a-hanzi-clip-7)" d="M 70 41 L 132 14 L 377 96 L 388 91" fill="none" id="make-me-a-hanzi-animation-7" stroke-dasharray="466 932" stroke-linecap="round" />
    
      <clipPath id="make-me-a-hanzi-clip-8">
        <path d="M 398 87 L 417 58 Q 429 38 442 38 Q 448 38 454 44 Q 460 49 462 68 Q 462 84 459 100 Q 456 116 444 129 Q 432 142 417 150 Q 402 158 393 164 L 372 174 Q 370 175 368 175 Q 364 175 361 172 Q 359 170 359 168 Q 359 165 362 161 L 370 148 Q 375 139 378 132 Q 382 125 386 115 L 398 87 Z" />
      </clipPath>
      <path clip-path="url(#make-me-a-hanzi-clip-8)" d="M 366 167 L 420 112 L 442 54" fill="none" id="make-me-a-hanzi-animation-8" stroke-dasharray="267 534" stroke-linecap="round" />
    
      <clipPath id="make-me-a-hanzi-clip-9">
        <path d="M 546 450 L 554 458 Q 557 462 562 467 Q 566 472 580 492 Q 594 510 610 537 Q 626 564 641 592 Q 656 620 661 630 Q 666 639 670 644 Q 674 650 681 657 Q 687 664 688 667 Q 688 671 683 679 Q 678 688 667 696 Q 656 706 646 712 Q 636 718 625 723 Q 618 726 614 726 Q 611 726 609 725 Q 604 722 604 710 L 604 701 Q 604 695 603 687 Q 602 678 598 660 Q 594 641 588 622 Q 582 602 568 571 Q 554 540 540 514 Q 526 488 512 468 Q 498 447 480 423 Q 462 398 457 393 L 442 374 Q 435 367 435 363 Q 435 361 437 360 Q 439 358 442 358 Q 446 358 450 361 L 466 372 Q 477 380 488 391 L 515 417 L 546 450 Z" />
      </clipPath>
      <path clip-path="url(#make-me-a-hanzi-clip-9)" d="M 614 715 L 640 668 L 612 599 L 543 476 L 475 394 L 442 366" fill="none" id="make-me-a-hanzi-animation-9" stroke-dasharray="547 1094" stroke-linecap="round" />
    
      <clipPath id="make-me-a-hanzi-clip-10">
        <path d="M 515 417 L 522 398 Q 524 394 525 374 Q 526 354 527 339 Q 528 324 528 314 L 522 114 Q 522 100 520 72 Q 517 43 515 27 Q 512 10 508 -6 Q 503 -22 503 -27 L 503 -29 Q 503 -35 506 -47 Q 510 -61 512 -67 Q 514 -73 518 -84 Q 524 -96 529 -103 Q 535 -111 540 -112 Q 545 -112 550 -108 Q 556 -103 562 -92 Q 567 -81 571 -68 Q 575 -55 576 -43 Q 576 -38 575 -20 Q 574 -2 574 16 L 573 56 L 573 160 L 574 191 L 574 273 L 576 310 L 577 334 Q 577 338 578 349 Q 580 360 584 374 Q 587 385 587 392 L 587 395 Q 586 401 574 416 C 557 440 505 445 515 417 Z" />
      </clipPath>
      <path clip-path="url(#make-me-a-hanzi-clip-10)" d="M 522 414 L 555 384 L 541 -100" fill="none" id="make-me-a-hanzi-animation-10" stroke-dasharray="657 1314" stroke-linecap="round" />
    
      <clipPath id="make-me-a-hanzi-clip-11">
        <path d="M 764 482 L 768 507 Q 769 511 769 515 Q 769 520 768 526 Q 767 538 762 547 Q 757 555 742 566 Q 726 578 717 582 L 696 590 Q 688 594 683 594 Q 680 594 678 592 Q 677 590 677 588 Q 677 584 680 577 L 688 551 L 700 524 Q 710 506 713 499 Q 716 493 727 476 C 743 451 759 452 764 482 Z" />
      </clipPath>
      <path clip-path="url(#make-me-a-hanzi-clip-11)" d="M 682 589 L 729 537 L 741 505 L 756 490" fill="none" id="make-me-a-hanzi-animation-11" stroke-dasharray="253 506" stroke-linecap="round" />
    
      <clipPath id="make-me-a-hanzi-clip-12">
        <path d="M 753 434 L 772 436 Q 778 436 805 441 Q 832 446 856 451 Q 880 456 896 463 Q 912 470 912 475 Q 912 480 904 486 Q 896 492 878 498 Q 863 503 853 503 L 850 503 Q 844 502 829 497 Q 814 492 800 489 Q 786 486 764 482 L 727 476 L 677 465 Q 658 460 618 456 Q 578 452 570 452 Q 562 451 546 450 C 483 446 491 416 574 416 L 604 416 Q 615 416 643 419 Q 678 423 692 424 L 753 434 Z" />
      </clipPath>
      <path clip-path="url(#make-me-a-hanzi-clip-12)" d="M 522 420 L 552 432 L 676 443 L 852 477 L 903 477" fill="none" id="make-me-a-hanzi-animation-12" stroke-dasharray="515 1030" stroke-linecap="round" />
    
      <clipPath id="make-me-a-hanzi-clip-13">
        <path d="M 756 294 L 768 296 Q 776 296 808 302 Q 840 307 853 308 L 884 312 Q 892 312 892 319 Q 892 325 886 330 Q 880 336 869 339 Q 858 342 849 344 Q 839 346 830 346 Q 824 346 807 344 L 784 340 Q 774 338 756 335 L 707 327 L 688 324 Q 647 318 624 315 L 593 311 Q 584 310 576 310 C 546 309 544 270 574 273 L 594 275 Q 646 280 669 283 L 708 288 L 756 294 Z" />
      </clipPath>
      <path clip-path="url(#make-me-a-hanzi-clip-13)" d="M 578 279 L 590 291 L 805 323 L 850 326 L 883 321" fill="none" id="make-me-a-hanzi-animation-13" stroke-dasharray="441 882" stroke-linecap="round" />
    
      <clipPath id="make-me-a-hanzi-clip-14">
        <path d="M 754 171 L 774 173 Q 775 173 808 177 Q 842 182 848 182 L 886 188 Q 895 190 895 196 L 895 197 Q 895 203 889 207 Q 882 212 873 216 Q 863 218 852 221 Q 840 223 833 223 Q 826 222 814 220 Q 800 218 788 216 Q 776 215 754 212 L 708 206 L 688 204 Q 647 198 615 195 Q 583 192 574 191 C 544 188 543 164 573 160 L 600 156 L 606 156 Q 614 156 631 157 Q 656 160 670 161 Q 684 162 708 165 L 754 171 Z" />
      </clipPath>
      <path clip-path="url(#make-me-a-hanzi-clip-14)" d="M 579 183 L 596 174 L 823 201 L 887 197" fill="none" id="make-me-a-hanzi-animation-14" stroke-dasharray="440 880" stroke-linecap="round" />
    
      <clipPath id="make-me-a-hanzi-clip-15">
        <path d="M 753 73 L 754 171 L 754 212 L 756 294 L 756 335 L 756 348 L 759 370 Q 762 390 764 398 Q 768 412 768 418 Q 766 423 753 434 C 731 454 680 452 692 424 L 700 405 Q 704 396 705 383 Q 706 369 706 356 Q 706 343 707 327 L 708 288 L 708 206 L 708 165 L 709 68 C 709 38 753 43 753 73 Z" />
      </clipPath>
      <path clip-path="url(#make-me-a-hanzi-clip-15)" d="M 700 422 L 734 399 L 731 93 L 716 75" fill="none" id="make-me-a-hanzi-animation-15" stroke-dasharray="498 996" stroke-linecap="round" />
    
      <clipPath id="make-me-a-hanzi-clip-16">
        <path d="M 574 16 L 594 17 L 684 23 L 784 31 Q 810 32 833 34 Q 856 34 879 36 L 914 36 Q 947 37 957 43 Q 966 49 966 55 Q 966 62 956 69 Q 946 77 931 83 Q 917 89 906 92 Q 894 96 888 96 Q 882 95 868 91 Q 853 87 824 83 L 766 74 Q 761 74 753 73 L 709 68 L 687 65 Q 667 62 626 60 Q 586 56 573 56 C 543 55 544 15 574 16 Z" />
      </clipPath>
      <path clip-path="url(#make-me-a-hanzi-clip-16)" d="M 577 49 L 600 37 L 889 66 L 954 55" fill="none" id="make-me-a-hanzi-animation-16" stroke-dasharray="510 1020" stroke-linecap="round" />
    
  </g>
</svg>