<svg xmlns="http://www.w3.org/2000/svg" version="1.1" viewBox="0 0 1024 1024">
  <g stroke="lightgray" stroke-dasharray="1,1" stroke-width="1" transform="scale(4, 4)">
    <line x1="0" y1="0" x2="256" y2="256" />
    <line x1="256" y1="0" x2="0" y2="256" />
    <line x1="128" y1="0" x2="128" y2="256" />
    <line x1="0" y1="128" x2="256" y2="128" />
  </g>
  <g transform="scale(1.0, -1.0) translate(0.0, -824.50)">
    <style type="text/css">
      
        @keyframes keyframes0 {
          from {
            stroke: blue;
            stroke-dashoffset: 656;
            stroke-width: 128;
          }
          68% {
            animation-timing-function: step-end;
            stroke: blue;
            stroke-dashoffset: 0;
            stroke-width: 128;
          }
          to {
            stroke: black;
            stroke-width: 1024;
          }
        }
        #make-me-a-hanzi-animation-0 {
          animation: keyframes0 0.7838541666666666s both;
          animation-delay: 0s;
          animation-timing-function: linear;
        }
      
        @keyframes keyframes1 {
          from {
            stroke: blue;
            stroke-dashoffset: 441;
            stroke-width: 128;
          }
          59% {
            animation-timing-function: step-end;
            stroke: blue;
            stroke-dashoffset: 0;
            stroke-width: 128;
          }
          to {
            stroke: black;
            stroke-width: 1024;
          }
        }
        #make-me-a-hanzi-animation-1 {
          animation: keyframes1 0.60888671875s both;
          animation-delay: 0.7838541666666666s;
          animation-timing-function: linear;
        }
      
        @keyframes keyframes2 {
          from {
            stroke: blue;
            stroke-dashoffset: 1023;
            stroke-width: 128;
          }
          77% {
            animation-timing-function: step-end;
            stroke: blue;
            stroke-dashoffset: 0;
            stroke-width: 128;
          }
          to {
            stroke: black;
            stroke-width: 1024;
          }
        }
        #make-me-a-hanzi-animation-2 {
          animation: keyframes2 1.08251953125s both;
          animation-delay: 1.3927408854166665s;
          animation-timing-function: linear;
        }
      
        @keyframes keyframes3 {
          from {
            stroke: blue;
            stroke-dashoffset: 654;
            stroke-width: 128;
          }
          68% {
            animation-timing-function: step-end;
            stroke: blue;
            stroke-dashoffset: 0;
            stroke-width: 128;
          }
          to {
            stroke: black;
            stroke-width: 1024;
          }
        }
        #make-me-a-hanzi-animation-3 {
          animation: keyframes3 0.7822265625s both;
          animation-delay: 2.4752604166666665s;
          animation-timing-function: linear;
        }
      
        @keyframes keyframes4 {
          from {
            stroke: blue;
            stroke-dashoffset: 358;
            stroke-width: 128;
          }
          54% {
            animation-timing-function: step-end;
            stroke: blue;
            stroke-dashoffset: 0;
            stroke-width: 128;
          }
          to {
            stroke: black;
            stroke-width: 1024;
          }
        }
        #make-me-a-hanzi-animation-4 {
          animation: keyframes4 0.5413411458333334s both;
          animation-delay: 3.2574869791666665s;
          animation-timing-function: linear;
        }
      
        @keyframes keyframes5 {
          from {
            stroke: blue;
            stroke-dashoffset: 449;
            stroke-width: 128;
          }
          59% {
            animation-timing-function: step-end;
            stroke: blue;
            stroke-dashoffset: 0;
            stroke-width: 128;
          }
          to {
            stroke: black;
            stroke-width: 1024;
          }
        }
        #make-me-a-hanzi-animation-5 {
          animation: keyframes5 0.6153971354166666s both;
          animation-delay: 3.798828125s;
          animation-timing-function: linear;
        }
      
        @keyframes keyframes6 {
          from {
            stroke: blue;
            stroke-dashoffset: 413;
            stroke-width: 128;
          }
          57% {
            animation-timing-function: step-end;
            stroke: blue;
            stroke-dashoffset: 0;
            stroke-width: 128;
          }
          to {
            stroke: black;
            stroke-width: 1024;
          }
        }
        #make-me-a-hanzi-animation-6 {
          animation: keyframes6 0.5861002604166666s both;
          animation-delay: 4.414225260416667s;
          animation-timing-function: linear;
        }
      
        @keyframes keyframes7 {
          from {
            stroke: blue;
            stroke-dashoffset: 401;
            stroke-width: 128;
          }
          57% {
            animation-timing-function: step-end;
            stroke: blue;
            stroke-dashoffset: 0;
            stroke-width: 128;
          }
          to {
            stroke: black;
            stroke-width: 1024;
          }
        }
        #make-me-a-hanzi-animation-7 {
          animation: keyframes7 0.5763346354166666s both;
          animation-delay: 5.000325520833334s;
          animation-timing-function: linear;
        }
      
        @keyframes keyframes8 {
          from {
            stroke: blue;
            stroke-dashoffset: 946;
            stroke-width: 128;
          }
          75% {
            animation-timing-function: step-end;
            stroke: blue;
            stroke-dashoffset: 0;
            stroke-width: 128;
          }
          to {
            stroke: black;
            stroke-width: 1024;
          }
        }
        #make-me-a-hanzi-animation-8 {
          animation: keyframes8 1.0198567708333333s both;
          animation-delay: 5.576660156250001s;
          animation-timing-function: linear;
        }
      
        @keyframes keyframes9 {
          from {
            stroke: blue;
            stroke-dashoffset: 1047;
            stroke-width: 128;
          }
          77% {
            animation-timing-function: step-end;
            stroke: blue;
            stroke-dashoffset: 0;
            stroke-width: 128;
          }
          to {
            stroke: black;
            stroke-width: 1024;
          }
        }
        #make-me-a-hanzi-animation-9 {
          animation: keyframes9 1.10205078125s both;
          animation-delay: 6.596516927083334s;
          animation-timing-function: linear;
        }
      
        @keyframes keyframes10 {
          from {
            stroke: blue;
            stroke-dashoffset: 753;
            stroke-width: 128;
          }
          71% {
            animation-timing-function: step-end;
            stroke: blue;
            stroke-dashoffset: 0;
            stroke-width: 128;
          }
          to {
            stroke: black;
            stroke-width: 1024;
          }
        }
        #make-me-a-hanzi-animation-10 {
          animation: keyframes10 0.86279296875s both;
          animation-delay: 7.698567708333334s;
          animation-timing-function: linear;
        }
      
    </style>
    
      <path d="M 509 656 L 562 662 L 641 672 L 668 676 Q 688 680 697 684 Q 704 689 704 694 L 704 695 Q 703 700 695 705 Q 687 710 677 714 Q 667 718 654 722 Q 641 725 635 725 Q 630 724 621 722 L 605 718 L 589 714 Q 571 708 542 704 Q 513 699 477 694 Q 439 690 388 686 Q 337 681 321 679 L 307 677 L 295 677 Q 289 676 288 672 Q 287 670 287 668 Q 287 664 291 659 Q 298 651 307 649 Q 317 646 331 644 Q 345 642 353 642 Q 361 642 386 644 L 464 651 L 509 656 Z" fill="lightgray" />
    
      <path d="M 225 545 L 219 560 Q 215 570 212 573 Q 208 577 204 577 Q 203 577 202 576 Q 198 574 195 570 Q 193 566 190 552 Q 187 538 182 524 Q 177 511 168 493 Q 159 475 144 460 Q 130 445 129 442 Q 126 437 126 429 Q 126 421 129 410 Q 135 390 141 385 Q 146 381 152 381 L 155 381 Q 163 382 177 394 Q 190 406 204 430 Q 218 454 223 472 Q 229 490 233 508 L 225 545 Z" fill="lightgray" />
    
      <path d="M 516 544 L 541 547 L 553 548 L 591 554 Q 609 556 678 560 Q 747 564 763 566 Q 769 567 774 567 Q 789 567 792 562 Q 794 558 794 553 Q 794 550 793 546 Q 789 535 775 516 Q 761 498 752 488 L 738 474 Q 732 468 732 464 Q 732 462 733 460 Q 735 456 738 456 Q 740 456 743 458 L 763 467 Q 791 480 813 487 Q 835 494 859 498 Q 883 502 891 503 Q 899 504 905 510 Q 911 516 911 524 Q 911 532 903 543 Q 895 554 885 563 Q 876 572 862 584 Q 847 596 836 602 Q 825 608 815 608 Q 807 608 793 606 Q 779 602 753 598 L 726 594 Q 680 586 627 581 L 555 573 Q 537 571 516 569 L 471 564 L 451 562 Q 449 561 417 557 Q 385 553 358 551 Q 330 550 291 548 Q 253 546 225 545 C 195 544 203 511 233 508 L 257 506 Q 259 505 262 505 Q 266 505 270 506 Q 279 507 327 516 Q 375 525 411 530 Q 447 534 471 538 L 516 544 Z" fill="lightgray" />
    
      <path d="M 516 569 L 516 581 Q 516 588 517 597 Q 519 605 521 612 Q 523 619 526 626 Q 529 634 529 638 Q 529 642 523 647 Q 517 652 509 656 C 483 672 461 681 464 651 L 466 633 L 468 612 Q 469 594 470 586 L 471 564 L 471 538 L 470 454 Q 469 444 467 422 Q 465 400 462 380 Q 459 361 455 346 Q 450 331 450 328 L 450 324 Q 450 317 453 305 Q 457 290 461 279 Q 465 268 472 259 Q 478 249 483 249 L 484 249 Q 489 249 496 258 Q 503 268 507 282 Q 511 297 512 316 Q 513 335 514 352 L 516 544 L 516 569 Z" fill="lightgray" />
    
      <path d="M 306 463 L 352 420 Q 365 408 373 408 L 375 408 Q 383 410 391 418 Q 396 425 396 434 Q 396 437 395 440 Q 393 452 389 458 Q 383 464 365 470 Q 345 476 331 479 Q 315 482 309 483 L 300 484 Q 293 484 290 481 Q 289 480 289 478 Q 289 475 295 472 L 306 463 Z" fill="lightgray" />
    
      <path d="M 373 372 L 345 362 L 324 354 Q 313 351 297 347 Q 280 343 272 342 Q 264 341 257 341 L 238 341 Q 234 341 233 340 Q 229 338 227 334 L 227 331 Q 227 327 229 322 Q 233 314 244 298 Q 255 282 263 276 Q 271 270 277 270 Q 282 271 293 280 Q 303 290 309 294 L 339 319 L 376 347 L 391 358 L 403 368 Q 409 374 409 378 L 409 380 Q 407 382 402 382 Q 399 382 395 381 L 373 372 Z" fill="lightgray" />
    
      <path d="M 587 416 Q 589 416 599 422 L 633 436 L 665 453 Q 677 458 689 460 Q 702 462 706 464 Q 709 465 712 470 Q 713 472 713 475 Q 713 480 708 488 Q 700 500 685 512 Q 669 526 663 529 Q 656 532 652 532 Q 650 532 648 531 Q 645 528 641 518 Q 638 508 634 500 Q 629 492 618 476 Q 607 461 599 452 Q 591 442 582 434 L 569 422 Q 567 420 567 416 L 567 414 Q 568 411 572 411 Q 574 411 577 412 L 587 416 Z" fill="lightgray" />
    
      <path d="M 579 365 L 595 352 Q 609 342 631 323 Q 653 304 665 296 Q 677 288 685 288 L 688 288 Q 697 290 703 302 Q 706 310 706 317 Q 706 322 705 327 Q 702 340 695 347 Q 689 354 669 362 Q 649 370 626 375 L 592 382 L 575 385 L 572 385 Q 567 385 565 382 L 565 380 Q 565 376 569 372 L 579 365 Z" fill="lightgray" />
    
      <path d="M 644 62 L 631 -22 C 626 -52 686 -55 694 -26 L 718 62 L 731 115 L 742 144 Q 746 157 757 172 Q 769 186 769 190 L 769 191 Q 769 197 760 208 Q 749 220 723 233 Q 697 246 688 250 Q 679 253 674 253 Q 669 252 656 246 Q 643 240 625 236 Q 607 233 572 228 L 516 221 Q 475 216 416 210 L 316 200 Q 289 198 276 198 L 259 197 Q 248 196 246 195 Q 245 194 245 189 Q 245 184 256 176 Q 267 168 275 163 Q 284 158 295 157 L 316 157 L 353 163 L 547 182 L 609 187 Q 631 190 641 190 Q 651 190 655 186 Q 659 182 659 174 Q 659 167 655 139 L 651 108 L 644 62 Z" fill="lightgray" />
    
      <path d="M 718 62 L 809 62 L 875 61 L 883 61 Q 897 61 904 64 Q 913 68 914 74 L 914 75 Q 914 81 906 89 Q 897 97 883 105 Q 869 114 856 119 Q 843 124 834 124 L 829 124 Q 819 124 800 122 L 765 118 L 752 116 Q 745 116 731 115 L 651 108 L 611 104 L 477 97 L 369 88 L 276 83 Q 209 78 203 78 L 147 76 L 130 76 Q 116 74 114 71 Q 113 69 113 67 Q 113 64 115 60 Q 119 52 131 45 L 152 34 Q 160 30 172 27 Q 184 24 191 24 Q 196 24 213 28 Q 229 32 260 38 Q 291 44 315 46 Q 339 50 376 52 Q 413 54 462 56 Q 511 58 540 59 Q 569 60 597 60 Q 626 61 644 62 L 718 62 Z" fill="lightgray" />
    
      <path d="M 631 -22 L 593 -26 L 492 -36 Q 401 -44 345 -50 Q 289 -57 267 -58 L 241 -60 Q 225 -60 224 -64 L 224 -65 Q 224 -69 231 -78 Q 239 -88 259 -94 Q 277 -100 291 -100 Q 299 -100 323 -96 Q 347 -92 403 -86 L 496 -77 Q 527 -74 583 -72 Q 638 -70 661 -70 L 699 -72 L 708 -72 Q 724 -72 727 -66 Q 729 -62 729 -59 Q 729 -55 727 -52 Q 725 -46 715 -40 L 694 -26 C 680 -17 661 -19 631 -22 Z" fill="lightgray" />
    
    
      <clipPath id="make-me-a-hanzi-clip-0">
        <path d="M 509 656 L 562 662 L 641 672 L 668 676 Q 688 680 697 684 Q 704 689 704 694 L 704 695 Q 703 700 695 705 Q 687 710 677 714 Q 667 718 654 722 Q 641 725 635 725 Q 630 724 621 722 L 605 718 L 589 714 Q 571 708 542 704 Q 513 699 477 694 Q 439 690 388 686 Q 337 681 321 679 L 307 677 L 295 677 Q 289 676 288 672 Q 287 670 287 668 Q 287 664 291 659 Q 298 651 307 649 Q 317 646 331 644 Q 345 642 353 642 Q 361 642 386 644 L 464 651 L 509 656 Z" />
      </clipPath>
      <path clip-path="url(#make-me-a-hanzi-clip-0)" d="M 296 668 L 356 662 L 526 679 L 636 698 L 693 695" fill="none" id="make-me-a-hanzi-animation-0" stroke-dasharray="528 1056" stroke-linecap="round" />
    
      <clipPath id="make-me-a-hanzi-clip-1">
        <path d="M 225 545 L 219 560 Q 215 570 212 573 Q 208 577 204 577 Q 203 577 202 576 Q 198 574 195 570 Q 193 566 190 552 Q 187 538 182 524 Q 177 511 168 493 Q 159 475 144 460 Q 130 445 129 442 Q 126 437 126 429 Q 126 421 129 410 Q 135 390 141 385 Q 146 381 152 381 L 155 381 Q 163 382 177 394 Q 190 406 204 430 Q 218 454 223 472 Q 229 490 233 508 L 225 545 Z" />
      </clipPath>
      <path clip-path="url(#make-me-a-hanzi-clip-1)" d="M 206 571 L 205 508 L 188 465 L 161 427 L 154 399" fill="none" id="make-me-a-hanzi-animation-1" stroke-dasharray="313 626" stroke-linecap="round" />
    
      <clipPath id="make-me-a-hanzi-clip-2">
        <path d="M 516 544 L 541 547 L 553 548 L 591 554 Q 609 556 678 560 Q 747 564 763 566 Q 769 567 774 567 Q 789 567 792 562 Q 794 558 794 553 Q 794 550 793 546 Q 789 535 775 516 Q 761 498 752 488 L 738 474 Q 732 468 732 464 Q 732 462 733 460 Q 735 456 738 456 Q 740 456 743 458 L 763 467 Q 791 480 813 487 Q 835 494 859 498 Q 883 502 891 503 Q 899 504 905 510 Q 911 516 911 524 Q 911 532 903 543 Q 895 554 885 563 Q 876 572 862 584 Q 847 596 836 602 Q 825 608 815 608 Q 807 608 793 606 Q 779 602 753 598 L 726 594 Q 680 586 627 581 L 555 573 Q 537 571 516 569 L 471 564 L 451 562 Q 449 561 417 557 Q 385 553 358 551 Q 330 550 291 548 Q 253 546 225 545 C 195 544 203 511 233 508 L 257 506 Q 259 505 262 505 Q 266 505 270 506 Q 279 507 327 516 Q 375 525 411 530 Q 447 534 471 538 L 516 544 Z" />
      </clipPath>
      <path clip-path="url(#make-me-a-hanzi-clip-2)" d="M 231 540 L 249 526 L 280 527 L 636 571 L 792 585 L 816 579 L 840 542 L 739 462" fill="none" id="make-me-a-hanzi-animation-2" stroke-dasharray="895 1790" stroke-linecap="round" />
    
      <clipPath id="make-me-a-hanzi-clip-3">
        <path d="M 516 569 L 516 581 Q 516 588 517 597 Q 519 605 521 612 Q 523 619 526 626 Q 529 634 529 638 Q 529 642 523 647 Q 517 652 509 656 C 483 672 461 681 464 651 L 466 633 L 468 612 Q 469 594 470 586 L 471 564 L 471 538 L 470 454 Q 469 444 467 422 Q 465 400 462 380 Q 459 361 455 346 Q 450 331 450 328 L 450 324 Q 450 317 453 305 Q 457 290 461 279 Q 465 268 472 259 Q 478 249 483 249 L 484 249 Q 489 249 496 258 Q 503 268 507 282 Q 511 297 512 316 Q 513 335 514 352 L 516 544 L 516 569 Z" />
      </clipPath>
      <path clip-path="url(#make-me-a-hanzi-clip-3)" d="M 472 647 L 496 626 L 493 448 L 481 323 L 484 261" fill="none" id="make-me-a-hanzi-animation-3" stroke-dasharray="526 1052" stroke-linecap="round" />
    
      <clipPath id="make-me-a-hanzi-clip-4">
        <path d="M 306 463 L 352 420 Q 365 408 373 408 L 375 408 Q 383 410 391 418 Q 396 425 396 434 Q 396 437 395 440 Q 393 452 389 458 Q 383 464 365 470 Q 345 476 331 479 Q 315 482 309 483 L 300 484 Q 293 484 290 481 Q 289 480 289 478 Q 289 475 295 472 L 306 463 Z" />
      </clipPath>
      <path clip-path="url(#make-me-a-hanzi-clip-4)" d="M 295 478 L 363 444 L 374 421" fill="none" id="make-me-a-hanzi-animation-4" stroke-dasharray="230 460" stroke-linecap="round" />
    
      <clipPath id="make-me-a-hanzi-clip-5">
        <path d="M 373 372 L 345 362 L 324 354 Q 313 351 297 347 Q 280 343 272 342 Q 264 341 257 341 L 238 341 Q 234 341 233 340 Q 229 338 227 334 L 227 331 Q 227 327 229 322 Q 233 314 244 298 Q 255 282 263 276 Q 271 270 277 270 Q 282 271 293 280 Q 303 290 309 294 L 339 319 L 376 347 L 391 358 L 403 368 Q 409 374 409 378 L 409 380 Q 407 382 402 382 Q 399 382 395 381 L 373 372 Z" />
      </clipPath>
      <path clip-path="url(#make-me-a-hanzi-clip-5)" d="M 235 333 L 274 310 L 405 379" fill="none" id="make-me-a-hanzi-animation-5" stroke-dasharray="321 642" stroke-linecap="round" />
    
      <clipPath id="make-me-a-hanzi-clip-6">
        <path d="M 587 416 Q 589 416 599 422 L 633 436 L 665 453 Q 677 458 689 460 Q 702 462 706 464 Q 709 465 712 470 Q 713 472 713 475 Q 713 480 708 488 Q 700 500 685 512 Q 669 526 663 529 Q 656 532 652 532 Q 650 532 648 531 Q 645 528 641 518 Q 638 508 634 500 Q 629 492 618 476 Q 607 461 599 452 Q 591 442 582 434 L 569 422 Q 567 420 567 416 L 567 414 Q 568 411 572 411 Q 574 411 577 412 L 587 416 Z" />
      </clipPath>
      <path clip-path="url(#make-me-a-hanzi-clip-6)" d="M 701 475 L 664 487 L 571 415" fill="none" id="make-me-a-hanzi-animation-6" stroke-dasharray="285 570" stroke-linecap="round" />
    
      <clipPath id="make-me-a-hanzi-clip-7">
        <path d="M 579 365 L 595 352 Q 609 342 631 323 Q 653 304 665 296 Q 677 288 685 288 L 688 288 Q 697 290 703 302 Q 706 310 706 317 Q 706 322 705 327 Q 702 340 695 347 Q 689 354 669 362 Q 649 370 626 375 L 592 382 L 575 385 L 572 385 Q 567 385 565 382 L 565 380 Q 565 376 569 372 L 579 365 Z" />
      </clipPath>
      <path clip-path="url(#make-me-a-hanzi-clip-7)" d="M 570 381 L 665 333 L 687 301" fill="none" id="make-me-a-hanzi-animation-7" stroke-dasharray="273 546" stroke-linecap="round" />
    
      <clipPath id="make-me-a-hanzi-clip-8">
        <path d="M 644 62 L 631 -22 C 626 -52 686 -55 694 -26 L 718 62 L 731 115 L 742 144 Q 746 157 757 172 Q 769 186 769 190 L 769 191 Q 769 197 760 208 Q 749 220 723 233 Q 697 246 688 250 Q 679 253 674 253 Q 669 252 656 246 Q 643 240 625 236 Q 607 233 572 228 L 516 221 Q 475 216 416 210 L 316 200 Q 289 198 276 198 L 259 197 Q 248 196 246 195 Q 245 194 245 189 Q 245 184 256 176 Q 267 168 275 163 Q 284 158 295 157 L 316 157 L 353 163 L 547 182 L 609 187 Q 631 190 641 190 Q 651 190 655 186 Q 659 182 659 174 Q 659 167 655 139 L 651 108 L 644 62 Z" />
      </clipPath>
      <path clip-path="url(#make-me-a-hanzi-clip-8)" d="M 253 191 L 281 180 L 319 179 L 677 215 L 707 186 L 672 19 L 668 8 L 639 -16" fill="none" id="make-me-a-hanzi-animation-8" stroke-dasharray="818 1636" stroke-linecap="round" />
    
      <clipPath id="make-me-a-hanzi-clip-9">
        <path d="M 718 62 L 809 62 L 875 61 L 883 61 Q 897 61 904 64 Q 913 68 914 74 L 914 75 Q 914 81 906 89 Q 897 97 883 105 Q 869 114 856 119 Q 843 124 834 124 L 829 124 Q 819 124 800 122 L 765 118 L 752 116 Q 745 116 731 115 L 651 108 L 611 104 L 477 97 L 369 88 L 276 83 Q 209 78 203 78 L 147 76 L 130 76 Q 116 74 114 71 Q 113 69 113 67 Q 113 64 115 60 Q 119 52 131 45 L 152 34 Q 160 30 172 27 Q 184 24 191 24 Q 196 24 213 28 Q 229 32 260 38 Q 291 44 315 46 Q 339 50 376 52 Q 413 54 462 56 Q 511 58 540 59 Q 569 60 597 60 Q 626 61 644 62 L 718 62 Z" />
      </clipPath>
      <path clip-path="url(#make-me-a-hanzi-clip-9)" d="M 119 68 L 189 51 L 331 68 L 811 93 L 841 92 L 904 75" fill="none" id="make-me-a-hanzi-animation-9" stroke-dasharray="919 1838" stroke-linecap="round" />
    
      <clipPath id="make-me-a-hanzi-clip-10">
        <path d="M 631 -22 L 593 -26 L 492 -36 Q 401 -44 345 -50 Q 289 -57 267 -58 L 241 -60 Q 225 -60 224 -64 L 224 -65 Q 224 -69 231 -78 Q 239 -88 259 -94 Q 277 -100 291 -100 Q 299 -100 323 -96 Q 347 -92 403 -86 L 496 -77 Q 527 -74 583 -72 Q 638 -70 661 -70 L 699 -72 L 708 -72 Q 724 -72 727 -66 Q 729 -62 729 -59 Q 729 -55 727 -52 Q 725 -46 715 -40 L 694 -26 C 680 -17 661 -19 631 -22 Z" />
      </clipPath>
      <path clip-path="url(#make-me-a-hanzi-clip-10)" d="M 228 -64 L 242 -73 L 293 -78 L 627 -46 L 687 -48 L 718 -60" fill="none" id="make-me-a-hanzi-animation-10" stroke-dasharray="625 1250" stroke-linecap="round" />
    
  </g>
</svg>