<svg xmlns="http://www.w3.org/2000/svg" version="1.1" viewBox="0 0 1024 1024">
  <g stroke="lightgray" stroke-dasharray="1,1" stroke-width="1" transform="scale(4, 4)">
    <line x1="0" y1="0" x2="256" y2="256" />
    <line x1="256" y1="0" x2="0" y2="256" />
    <line x1="128" y1="0" x2="128" y2="256" />
    <line x1="0" y1="128" x2="256" y2="128" />
  </g>
  <g transform="scale(1.0, -1.0) translate(0.0, -810.00)">
    <style type="text/css">
      
        @keyframes keyframes0 {
          from {
            stroke: blue;
            stroke-dashoffset: 565;
            stroke-width: 128;
          }
          65% {
            animation-timing-function: step-end;
            stroke: blue;
            stroke-dashoffset: 0;
            stroke-width: 128;
          }
          to {
            stroke: black;
            stroke-width: 1024;
          }
        }
        #make-me-a-hanzi-animation-0 {
          animation: keyframes0 0.7097981770833334s both;
          animation-delay: 0s;
          animation-timing-function: linear;
        }
      
        @keyframes keyframes1 {
          from {
            stroke: blue;
            stroke-dashoffset: 423;
            stroke-width: 128;
          }
          58% {
            animation-timing-function: step-end;
            stroke: blue;
            stroke-dashoffset: 0;
            stroke-width: 128;
          }
          to {
            stroke: black;
            stroke-width: 1024;
          }
        }
        #make-me-a-hanzi-animation-1 {
          animation: keyframes1 0.59423828125s both;
          animation-delay: 0.7097981770833334s;
          animation-timing-function: linear;
        }
      
        @keyframes keyframes2 {
          from {
            stroke: blue;
            stroke-dashoffset: 952;
            stroke-width: 128;
          }
          76% {
            animation-timing-function: step-end;
            stroke: blue;
            stroke-dashoffset: 0;
            stroke-width: 128;
          }
          to {
            stroke: black;
            stroke-width: 1024;
          }
        }
        #make-me-a-hanzi-animation-2 {
          animation: keyframes2 1.0247395833333333s both;
          animation-delay: 1.3040364583333335s;
          animation-timing-function: linear;
        }
      
        @keyframes keyframes3 {
          from {
            stroke: blue;
            stroke-dashoffset: 552;
            stroke-width: 128;
          }
          64% {
            animation-timing-function: step-end;
            stroke: blue;
            stroke-dashoffset: 0;
            stroke-width: 128;
          }
          to {
            stroke: black;
            stroke-width: 1024;
          }
        }
        #make-me-a-hanzi-animation-3 {
          animation: keyframes3 0.69921875s both;
          animation-delay: 2.328776041666667s;
          animation-timing-function: linear;
        }
      
        @keyframes keyframes4 {
          from {
            stroke: blue;
            stroke-dashoffset: 356;
            stroke-width: 128;
          }
          54% {
            animation-timing-function: step-end;
            stroke: blue;
            stroke-dashoffset: 0;
            stroke-width: 128;
          }
          to {
            stroke: black;
            stroke-width: 1024;
          }
        }
        #make-me-a-hanzi-animation-4 {
          animation: keyframes4 0.5397135416666666s both;
          animation-delay: 3.027994791666667s;
          animation-timing-function: linear;
        }
      
        @keyframes keyframes5 {
          from {
            stroke: blue;
            stroke-dashoffset: 375;
            stroke-width: 128;
          }
          55% {
            animation-timing-function: step-end;
            stroke: blue;
            stroke-dashoffset: 0;
            stroke-width: 128;
          }
          to {
            stroke: black;
            stroke-width: 1024;
          }
        }
        #make-me-a-hanzi-animation-5 {
          animation: keyframes5 0.55517578125s both;
          animation-delay: 3.5677083333333335s;
          animation-timing-function: linear;
        }
      
        @keyframes keyframes6 {
          from {
            stroke: blue;
            stroke-dashoffset: 379;
            stroke-width: 128;
          }
          55% {
            animation-timing-function: step-end;
            stroke: blue;
            stroke-dashoffset: 0;
            stroke-width: 128;
          }
          to {
            stroke: black;
            stroke-width: 1024;
          }
        }
        #make-me-a-hanzi-animation-6 {
          animation: keyframes6 0.5584309895833334s both;
          animation-delay: 4.122884114583334s;
          animation-timing-function: linear;
        }
      
        @keyframes keyframes7 {
          from {
            stroke: blue;
            stroke-dashoffset: 387;
            stroke-width: 128;
          }
          56% {
            animation-timing-function: step-end;
            stroke: blue;
            stroke-dashoffset: 0;
            stroke-width: 128;
          }
          to {
            stroke: black;
            stroke-width: 1024;
          }
        }
        #make-me-a-hanzi-animation-7 {
          animation: keyframes7 0.56494140625s both;
          animation-delay: 4.681315104166667s;
          animation-timing-function: linear;
        }
      
        @keyframes keyframes8 {
          from {
            stroke: blue;
            stroke-dashoffset: 758;
            stroke-width: 128;
          }
          71% {
            animation-timing-function: step-end;
            stroke: blue;
            stroke-dashoffset: 0;
            stroke-width: 128;
          }
          to {
            stroke: black;
            stroke-width: 1024;
          }
        }
        #make-me-a-hanzi-animation-8 {
          animation: keyframes8 0.8668619791666666s both;
          animation-delay: 5.246256510416667s;
          animation-timing-function: linear;
        }
      
        @keyframes keyframes9 {
          from {
            stroke: blue;
            stroke-dashoffset: 778;
            stroke-width: 128;
          }
          72% {
            animation-timing-function: step-end;
            stroke: blue;
            stroke-dashoffset: 0;
            stroke-width: 128;
          }
          to {
            stroke: black;
            stroke-width: 1024;
          }
        }
        #make-me-a-hanzi-animation-9 {
          animation: keyframes9 0.8831380208333334s both;
          animation-delay: 6.113118489583334s;
          animation-timing-function: linear;
        }
      
        @keyframes keyframes10 {
          from {
            stroke: blue;
            stroke-dashoffset: 1015;
            stroke-width: 128;
          }
          77% {
            animation-timing-function: step-end;
            stroke: blue;
            stroke-dashoffset: 0;
            stroke-width: 128;
          }
          to {
            stroke: black;
            stroke-width: 1024;
          }
        }
        #make-me-a-hanzi-animation-10 {
          animation: keyframes10 1.0760091145833333s both;
          animation-delay: 6.996256510416667s;
          animation-timing-function: linear;
        }
      
        @keyframes keyframes11 {
          from {
            stroke: blue;
            stroke-dashoffset: 764;
            stroke-width: 128;
          }
          71% {
            animation-timing-function: step-end;
            stroke: blue;
            stroke-dashoffset: 0;
            stroke-width: 128;
          }
          to {
            stroke: black;
            stroke-width: 1024;
          }
        }
        #make-me-a-hanzi-animation-11 {
          animation: keyframes11 0.8717447916666666s both;
          animation-delay: 8.072265625s;
          animation-timing-function: linear;
        }
      
    </style>
    
      <path d="M 584 750 Q 582 750 556 741 Q 432 700 328 694 Q 324 694 324 687 Q 343 662 364 662 Q 384 662 446 673 L 493 681 Q 548 690 628 706 Q 651 712 651 723 Q 651 732 626 742 Q 598 750 584 750 Z" fill="lightgray" />
    
      <path d="M 259 568 Q 258 581 249 594 Q 239 606 231 606 Q 226 606 219 584 Q 209 549 179 514 Q 152 481 152 454 Q 152 431 171 431 Q 207 431 236 496 Q 248 523 254 540 L 259 568 Z" fill="lightgray" />
    
      <path d="M 460 596 L 259 568 C 229 564 224 542 254 540 Q 268 538 284 538 Q 298 538 334 545 Q 381 554 460 564 L 512 570 Q 549 574 593 579 Q 729 591 764 591 Q 779 591 779 578 Q 779 568 743 499 Q 743 494 752 494 Q 755 494 769 506 Q 842 557 874 569 Q 899 580 899 595 Q 899 608 863 632 Q 827 658 804 658 Q 795 658 766 646 Q 705 628 624 618 L 512 603 L 460 596 Z" fill="lightgray" />
    
      <path d="M 446 673 Q 457 658 460 635 L 460 596 L 460 564 L 460 427 Q 464 383 475 383 Q 487 383 502 402 Q 512 428 512 474 L 512 570 L 512 603 L 512 610 Q 512 619 519 650 Q 519 660 493 681 C 470 700 430 699 446 673 Z" fill="lightgray" />
    
      <path d="M 299 515 Q 284 515 284 511 Q 284 508 319 482 Q 362 454 391 454 Q 412 454 412 478 Q 412 486 402 494 Q 387 505 355 510 Q 331 514 299 515 Z" fill="lightgray" />
    
      <path d="M 288 434 Q 271 434 271 431 Q 271 428 309 398 Q 353 366 384 366 Q 403 366 403 391 Q 403 400 394 409 Q 379 423 345 429 Q 319 434 288 434 Z" fill="lightgray" />
    
      <path d="M 592 543 Q 575 543 575 538 Q 575 536 614 509 Q 660 478 691 478 Q 712 478 712 503 Q 712 511 702 520 Q 686 532 651 537 Q 625 542 592 543 Z" fill="lightgray" />
    
      <path d="M 575 454 Q 559 454 559 450 Q 559 447 601 417 Q 650 383 683 383 Q 703 383 703 406 Q 703 417 693 427 Q 677 442 640 448 Q 611 454 575 454 Z" fill="lightgray" />
    
      <path d="M 752 366 Q 748 366 701 355 Q 495 310 316 301 C 286 299 295 262 325 263 Q 410 265 804 318 Q 827 323 827 335 Q 827 345 799 357 Q 768 366 752 366 Z" fill="lightgray" />
    
      <path d="M 316 301 Q 310 305 298 311 Q 259 326 248 326 Q 231 326 231 318 Q 231 313 239 302 Q 252 275 252 243 Q 250 165 236 96 Q 220 25 195 -23 Q 168 -70 133 -106 Q 112 -129 112 -133 Q 112 -137 120 -137 Q 159 -137 223 -53 Q 276 27 298 141 Q 311 223 325 262 L 325 263 C 334 291 334 291 316 301 Z" fill="lightgray" />
    
      <path d="M 699 190 Q 682 190 633 172 Q 611 163 562 151 L 499 140 Q 435 130 340 119 Q 324 117 324 106 Q 324 101 340 90 Q 365 79 376 79 Q 392 79 488 102 L 550 116 Q 644 135 672 135 Q 699 135 699 119 Q 699 60 678 -5 Q 660 -58 643 -58 Q 627 -58 584 -41 Q 571 -41 571 -53 Q 608 -94 638 -137 Q 649 -154 664 -154 Q 682 -154 706 -117 Q 729 -68 741 -13 Q 756 69 776 99 Q 787 118 787 123 Q 787 143 750 170 Q 713 190 699 190 Z" fill="lightgray" />
    
      <path d="M 562 151 Q 580 214 580 219 Q 580 234 550 250 Q 523 263 512 263 Q 496 261 496 251 Q 496 245 502 234 Q 508 220 508 194 Q 506 169 499 140 L 488 102 Q 476 63 454 22 Q 399 -74 321 -121 Q 292 -138 292 -146 Q 292 -150 311 -150 Q 361 -150 439 -76 Q 505 -13 550 116 L 562 151 Z" fill="lightgray" />
    
    
      <clipPath id="make-me-a-hanzi-clip-0">
        <path d="M 584 750 Q 582 750 556 741 Q 432 700 328 694 Q 324 694 324 687 Q 343 662 364 662 Q 384 662 446 673 L 493 681 Q 548 690 628 706 Q 651 712 651 723 Q 651 732 626 742 Q 598 750 584 750 Z" />
      </clipPath>
      <path clip-path="url(#make-me-a-hanzi-clip-0)" d="M 336 685 L 360 679 L 386 681 L 574 722 L 640 723" fill="none" id="make-me-a-hanzi-animation-0" stroke-dasharray="437 874" stroke-linecap="round" />
    
      <clipPath id="make-me-a-hanzi-clip-1">
        <path d="M 259 568 Q 258 581 249 594 Q 239 606 231 606 Q 226 606 219 584 Q 209 549 179 514 Q 152 481 152 454 Q 152 431 171 431 Q 207 431 236 496 Q 248 523 254 540 L 259 568 Z" />
      </clipPath>
      <path clip-path="url(#make-me-a-hanzi-clip-1)" d="M 233 598 L 237 565 L 229 542 L 170 450" fill="none" id="make-me-a-hanzi-animation-1" stroke-dasharray="295 590" stroke-linecap="round" />
    
      <clipPath id="make-me-a-hanzi-clip-2">
        <path d="M 460 596 L 259 568 C 229 564 224 542 254 540 Q 268 538 284 538 Q 298 538 334 545 Q 381 554 460 564 L 512 570 Q 549 574 593 579 Q 729 591 764 591 Q 779 591 779 578 Q 779 568 743 499 Q 743 494 752 494 Q 755 494 769 506 Q 842 557 874 569 Q 899 580 899 595 Q 899 608 863 632 Q 827 658 804 658 Q 795 658 766 646 Q 705 628 624 618 L 512 603 L 460 596 Z" />
      </clipPath>
      <path clip-path="url(#make-me-a-hanzi-clip-2)" d="M 262 546 L 273 554 L 423 576 L 754 617 L 801 618 L 823 599 L 818 585 L 798 554 L 751 503" fill="none" id="make-me-a-hanzi-animation-2" stroke-dasharray="824 1648" stroke-linecap="round" />
    
      <clipPath id="make-me-a-hanzi-clip-3">
        <path d="M 446 673 Q 457 658 460 635 L 460 596 L 460 564 L 460 427 Q 464 383 475 383 Q 487 383 502 402 Q 512 428 512 474 L 512 570 L 512 603 L 512 610 Q 512 619 519 650 Q 519 660 493 681 C 470 700 430 699 446 673 Z" />
      </clipPath>
      <path clip-path="url(#make-me-a-hanzi-clip-3)" d="M 454 671 L 488 645 L 486 450 L 477 393" fill="none" id="make-me-a-hanzi-animation-3" stroke-dasharray="424 848" stroke-linecap="round" />
    
      <clipPath id="make-me-a-hanzi-clip-4">
        <path d="M 299 515 Q 284 515 284 511 Q 284 508 319 482 Q 362 454 391 454 Q 412 454 412 478 Q 412 486 402 494 Q 387 505 355 510 Q 331 514 299 515 Z" />
      </clipPath>
      <path clip-path="url(#make-me-a-hanzi-clip-4)" d="M 297 506 L 392 474" fill="none" id="make-me-a-hanzi-animation-4" stroke-dasharray="228 456" stroke-linecap="round" />
    
      <clipPath id="make-me-a-hanzi-clip-5">
        <path d="M 288 434 Q 271 434 271 431 Q 271 428 309 398 Q 353 366 384 366 Q 403 366 403 391 Q 403 400 394 409 Q 379 423 345 429 Q 319 434 288 434 Z" />
      </clipPath>
      <path clip-path="url(#make-me-a-hanzi-clip-5)" d="M 274 431 L 384 386" fill="none" id="make-me-a-hanzi-animation-5" stroke-dasharray="247 494" stroke-linecap="round" />
    
      <clipPath id="make-me-a-hanzi-clip-6">
        <path d="M 592 543 Q 575 543 575 538 Q 575 536 614 509 Q 660 478 691 478 Q 712 478 712 503 Q 712 511 702 520 Q 686 532 651 537 Q 625 542 592 543 Z" />
      </clipPath>
      <path clip-path="url(#make-me-a-hanzi-clip-6)" d="M 578 539 L 693 496" fill="none" id="make-me-a-hanzi-animation-6" stroke-dasharray="251 502" stroke-linecap="round" />
    
      <clipPath id="make-me-a-hanzi-clip-7">
        <path d="M 575 454 Q 559 454 559 450 Q 559 447 601 417 Q 650 383 683 383 Q 703 383 703 406 Q 703 417 693 427 Q 677 442 640 448 Q 611 454 575 454 Z" />
      </clipPath>
      <path clip-path="url(#make-me-a-hanzi-clip-7)" d="M 562 450 L 684 402" fill="none" id="make-me-a-hanzi-animation-7" stroke-dasharray="259 518" stroke-linecap="round" />
    
      <clipPath id="make-me-a-hanzi-clip-8">
        <path d="M 752 366 Q 748 366 701 355 Q 495 310 316 301 C 286 299 295 262 325 263 Q 410 265 804 318 Q 827 323 827 335 Q 827 345 799 357 Q 768 366 752 366 Z" />
      </clipPath>
      <path clip-path="url(#make-me-a-hanzi-clip-8)" d="M 323 296 L 340 283 L 363 284 L 589 310 L 754 339 L 816 334" fill="none" id="make-me-a-hanzi-animation-8" stroke-dasharray="630 1260" stroke-linecap="round" />
    
      <clipPath id="make-me-a-hanzi-clip-9">
        <path d="M 316 301 Q 310 305 298 311 Q 259 326 248 326 Q 231 326 231 318 Q 231 313 239 302 Q 252 275 252 243 Q 250 165 236 96 Q 220 25 195 -23 Q 168 -70 133 -106 Q 112 -129 112 -133 Q 112 -137 120 -137 Q 159 -137 223 -53 Q 276 27 298 141 Q 311 223 325 262 L 325 263 C 334 291 334 291 316 301 Z" />
      </clipPath>
      <path clip-path="url(#make-me-a-hanzi-clip-9)" d="M 239 317 L 279 286 L 287 264 L 261 89 L 242 30 L 211 -36 L 167 -94 L 117 -133" fill="none" id="make-me-a-hanzi-animation-9" stroke-dasharray="650 1300" stroke-linecap="round" />
    
      <clipPath id="make-me-a-hanzi-clip-10">
        <path d="M 699 190 Q 682 190 633 172 Q 611 163 562 151 L 499 140 Q 435 130 340 119 Q 324 117 324 106 Q 324 101 340 90 Q 365 79 376 79 Q 392 79 488 102 L 550 116 Q 644 135 672 135 Q 699 135 699 119 Q 699 60 678 -5 Q 660 -58 643 -58 Q 627 -58 584 -41 Q 571 -41 571 -53 Q 608 -94 638 -137 Q 649 -154 664 -154 Q 682 -154 706 -117 Q 729 -68 741 -13 Q 756 69 776 99 Q 787 118 787 123 Q 787 143 750 170 Q 713 190 699 190 Z" />
      </clipPath>
      <path clip-path="url(#make-me-a-hanzi-clip-10)" d="M 333 107 L 377 101 L 580 137 L 667 159 L 699 160 L 714 154 L 741 123 L 709 -14 L 688 -69 L 663 -97 L 582 -52" fill="none" id="make-me-a-hanzi-animation-10" stroke-dasharray="887 1774" stroke-linecap="round" />
    
      <clipPath id="make-me-a-hanzi-clip-11">
        <path d="M 562 151 Q 580 214 580 219 Q 580 234 550 250 Q 523 263 512 263 Q 496 261 496 251 Q 496 245 502 234 Q 508 220 508 194 Q 506 169 499 140 L 488 102 Q 476 63 454 22 Q 399 -74 321 -121 Q 292 -138 292 -146 Q 292 -150 311 -150 Q 361 -150 439 -76 Q 505 -13 550 116 L 562 151 Z" />
      </clipPath>
      <path clip-path="url(#make-me-a-hanzi-clip-11)" d="M 508 250 L 541 217 L 541 191 L 516 99 L 483 22 L 436 -47 L 404 -82 L 343 -127 L 296 -144" fill="none" id="make-me-a-hanzi-animation-11" stroke-dasharray="636 1272" stroke-linecap="round" />
    
  </g>
</svg>