<svg xmlns="http://www.w3.org/2000/svg" version="1.1" viewBox="0 0 1024 1024">
  <g stroke="lightgray" stroke-dasharray="1,1" stroke-width="1" transform="scale(4, 4)">
    <line x1="0" y1="0" x2="256" y2="256" />
    <line x1="256" y1="0" x2="0" y2="256" />
    <line x1="128" y1="0" x2="128" y2="256" />
    <line x1="0" y1="128" x2="256" y2="128" />
  </g>
  <g transform="scale(1.0, -1.0) translate(0.0, -805.00)">
    <style type="text/css">
      
        @keyframes keyframes0 {
          from {
            stroke: blue;
            stroke-dashoffset: 627;
            stroke-width: 128;
          }
          67% {
            animation-timing-function: step-end;
            stroke: blue;
            stroke-dashoffset: 0;
            stroke-width: 128;
          }
          to {
            stroke: black;
            stroke-width: 1024;
          }
        }
        #make-me-a-hanzi-animation-0 {
          animation: keyframes0 0.76025390625s both;
          animation-delay: 0s;
          animation-timing-function: linear;
        }
      
        @keyframes keyframes1 {
          from {
            stroke: blue;
            stroke-dashoffset: 428;
            stroke-width: 128;
          }
          58% {
            animation-timing-function: step-end;
            stroke: blue;
            stroke-dashoffset: 0;
            stroke-width: 128;
          }
          to {
            stroke: black;
            stroke-width: 1024;
          }
        }
        #make-me-a-hanzi-animation-1 {
          animation: keyframes1 0.5983072916666666s both;
          animation-delay: 0.76025390625s;
          animation-timing-function: linear;
        }
      
        @keyframes keyframes2 {
          from {
            stroke: blue;
            stroke-dashoffset: 1006;
            stroke-width: 128;
          }
          77% {
            animation-timing-function: step-end;
            stroke: blue;
            stroke-dashoffset: 0;
            stroke-width: 128;
          }
          to {
            stroke: black;
            stroke-width: 1024;
          }
        }
        #make-me-a-hanzi-animation-2 {
          animation: keyframes2 1.0686848958333333s both;
          animation-delay: 1.3585611979166665s;
          animation-timing-function: linear;
        }
      
        @keyframes keyframes3 {
          from {
            stroke: blue;
            stroke-dashoffset: 548;
            stroke-width: 128;
          }
          64% {
            animation-timing-function: step-end;
            stroke: blue;
            stroke-dashoffset: 0;
            stroke-width: 128;
          }
          to {
            stroke: black;
            stroke-width: 1024;
          }
        }
        #make-me-a-hanzi-animation-3 {
          animation: keyframes3 0.6959635416666666s both;
          animation-delay: 2.42724609375s;
          animation-timing-function: linear;
        }
      
        @keyframes keyframes4 {
          from {
            stroke: blue;
            stroke-dashoffset: 351;
            stroke-width: 128;
          }
          53% {
            animation-timing-function: step-end;
            stroke: blue;
            stroke-dashoffset: 0;
            stroke-width: 128;
          }
          to {
            stroke: black;
            stroke-width: 1024;
          }
        }
        #make-me-a-hanzi-animation-4 {
          animation: keyframes4 0.53564453125s both;
          animation-delay: 3.1232096354166665s;
          animation-timing-function: linear;
        }
      
        @keyframes keyframes5 {
          from {
            stroke: blue;
            stroke-dashoffset: 436;
            stroke-width: 128;
          }
          59% {
            animation-timing-function: step-end;
            stroke: blue;
            stroke-dashoffset: 0;
            stroke-width: 128;
          }
          to {
            stroke: black;
            stroke-width: 1024;
          }
        }
        #make-me-a-hanzi-animation-5 {
          animation: keyframes5 0.6048177083333334s both;
          animation-delay: 3.6588541666666665s;
          animation-timing-function: linear;
        }
      
        @keyframes keyframes6 {
          from {
            stroke: blue;
            stroke-dashoffset: 404;
            stroke-width: 128;
          }
          57% {
            animation-timing-function: step-end;
            stroke: blue;
            stroke-dashoffset: 0;
            stroke-width: 128;
          }
          to {
            stroke: black;
            stroke-width: 1024;
          }
        }
        #make-me-a-hanzi-animation-6 {
          animation: keyframes6 0.5787760416666666s both;
          animation-delay: 4.263671875s;
          animation-timing-function: linear;
        }
      
        @keyframes keyframes7 {
          from {
            stroke: blue;
            stroke-dashoffset: 371;
            stroke-width: 128;
          }
          55% {
            animation-timing-function: step-end;
            stroke: blue;
            stroke-dashoffset: 0;
            stroke-width: 128;
          }
          to {
            stroke: black;
            stroke-width: 1024;
          }
        }
        #make-me-a-hanzi-animation-7 {
          animation: keyframes7 0.5519205729166666s both;
          animation-delay: 4.842447916666667s;
          animation-timing-function: linear;
        }
      
        @keyframes keyframes8 {
          from {
            stroke: blue;
            stroke-dashoffset: 739;
            stroke-width: 128;
          }
          71% {
            animation-timing-function: step-end;
            stroke: blue;
            stroke-dashoffset: 0;
            stroke-width: 128;
          }
          to {
            stroke: black;
            stroke-width: 1024;
          }
        }
        #make-me-a-hanzi-animation-8 {
          animation: keyframes8 0.8513997395833334s both;
          animation-delay: 5.394368489583334s;
          animation-timing-function: linear;
        }
      
        @keyframes keyframes9 {
          from {
            stroke: blue;
            stroke-dashoffset: 763;
            stroke-width: 128;
          }
          71% {
            animation-timing-function: step-end;
            stroke: blue;
            stroke-dashoffset: 0;
            stroke-width: 128;
          }
          to {
            stroke: black;
            stroke-width: 1024;
          }
        }
        #make-me-a-hanzi-animation-9 {
          animation: keyframes9 0.8709309895833334s both;
          animation-delay: 6.245768229166667s;
          animation-timing-function: linear;
        }
      
        @keyframes keyframes10 {
          from {
            stroke: blue;
            stroke-dashoffset: 595;
            stroke-width: 128;
          }
          66% {
            animation-timing-function: step-end;
            stroke: blue;
            stroke-dashoffset: 0;
            stroke-width: 128;
          }
          to {
            stroke: black;
            stroke-width: 1024;
          }
        }
        #make-me-a-hanzi-animation-10 {
          animation: keyframes10 0.7342122395833334s both;
          animation-delay: 7.11669921875s;
          animation-timing-function: linear;
        }
      
        @keyframes keyframes11 {
          from {
            stroke: blue;
            stroke-dashoffset: 739;
            stroke-width: 128;
          }
          71% {
            animation-timing-function: step-end;
            stroke: blue;
            stroke-dashoffset: 0;
            stroke-width: 128;
          }
          to {
            stroke: black;
            stroke-width: 1024;
          }
        }
        #make-me-a-hanzi-animation-11 {
          animation: keyframes11 0.8513997395833334s both;
          animation-delay: 7.850911458333333s;
          animation-timing-function: linear;
        }
      
        @keyframes keyframes12 {
          from {
            stroke: blue;
            stroke-dashoffset: 690;
            stroke-width: 128;
          }
          69% {
            animation-timing-function: step-end;
            stroke: blue;
            stroke-dashoffset: 0;
            stroke-width: 128;
          }
          to {
            stroke: black;
            stroke-width: 1024;
          }
        }
        #make-me-a-hanzi-animation-12 {
          animation: keyframes12 0.8115234375s both;
          animation-delay: 8.702311197916666s;
          animation-timing-function: linear;
        }
      
        @keyframes keyframes13 {
          from {
            stroke: blue;
            stroke-dashoffset: 416;
            stroke-width: 128;
          }
          58% {
            animation-timing-function: step-end;
            stroke: blue;
            stroke-dashoffset: 0;
            stroke-width: 128;
          }
          to {
            stroke: black;
            stroke-width: 1024;
          }
        }
        #make-me-a-hanzi-animation-13 {
          animation: keyframes13 0.5885416666666666s both;
          animation-delay: 9.513834635416666s;
          animation-timing-function: linear;
        }
      
        @keyframes keyframes14 {
          from {
            stroke: blue;
            stroke-dashoffset: 768;
            stroke-width: 128;
          }
          71% {
            animation-timing-function: step-end;
            stroke: blue;
            stroke-dashoffset: 0;
            stroke-width: 128;
          }
          to {
            stroke: black;
            stroke-width: 1024;
          }
        }
        #make-me-a-hanzi-animation-14 {
          animation: keyframes14 0.875s both;
          animation-delay: 10.102376302083332s;
          animation-timing-function: linear;
        }
      
    </style>
    
      <path d="M 529 684 L 644 696 L 671 701 Q 702 706 705 711 Q 707 715 707 718 L 707 720 Q 706 723 696 727 L 682 734 Q 676 736 659 741 Q 642 746 638 746 Q 632 745 619 741 Q 606 737 598 736 L 559 728 Q 554 728 512 722 L 414 709 L 359 706 L 343 705 L 334 704 Q 327 703 326 700 L 326 698 Q 326 694 331 687 Q 338 679 358 676 Q 377 673 386 673 Q 395 674 424 676 L 482 680 L 529 684 Z" fill="lightgray" />
    
      <path d="M 245 604 L 240 619 Q 236 628 232 632 Q 226 638 222 638 Q 218 637 216 630 Q 213 624 208 605 Q 204 586 195 566 Q 186 548 178 534 Q 170 520 165 512 Q 159 504 158 502 Q 157 499 157 495 Q 157 491 158 486 Q 160 476 163 469 Q 166 461 172 456 Q 177 450 184 450 L 185 450 Q 193 450 202 460 Q 212 470 220 485 Q 228 500 234 518 L 249 569 L 245 604 Z" fill="lightgray" />
    
      <path d="M 489 620 L 376 610 Q 354 608 314 607 Q 273 606 245 604 C 215 602 219 574 249 569 L 277 564 Q 280 564 304 567 Q 329 571 344 573 L 489 589 L 536 594 L 740 612 L 788 616 Q 794 617 798 617 Q 811 617 812 612 Q 814 608 814 605 Q 814 602 813 600 Q 811 592 800 580 Q 789 568 776 556 L 758 540 Q 750 534 750 529 Q 750 527 751 526 Q 753 523 757 523 Q 759 523 762 524 L 786 532 Q 810 542 835 547 Q 860 552 880 555 Q 901 558 912 559 Q 924 560 929 564 Q 934 568 935 574 L 935 575 Q 935 581 924 594 Q 913 608 906 614 Q 898 621 881 634 Q 864 647 852 653 Q 840 658 830 659 Q 822 659 804 655 L 769 649 Q 751 646 734 645 L 538 625 L 489 620 Z" fill="lightgray" />
    
      <path d="M 538 625 L 540 640 Q 541 645 545 653 Q 548 662 548 666 Q 548 670 542 675 Q 536 680 529 684 C 504 700 474 709 482 680 L 486 666 Q 488 660 488 648 Q 488 634 489 620 L 489 589 L 487 498 L 485 478 Q 484 468 482 456 Q 479 442 479 436 Q 480 430 484 417 Q 488 404 492 398 Q 499 386 505 386 L 507 386 Q 513 386 520 395 Q 527 404 531 416 Q 534 429 536 440 L 533 493 L 536 594 L 538 625 Z" fill="lightgray" />
    
      <path d="M 322 518 Q 326 514 345 501 Q 365 488 374 484 Q 386 479 394 479 Q 398 479 401 481 Q 408 486 410 498 Q 410 510 400 522 Q 390 534 374 539 Q 364 543 352 543 Q 348 543 343 542 L 316 540 Q 310 540 306 536 Q 305 535 305 534 Q 305 530 310 527 L 322 518 Z" fill="lightgray" />
    
      <path d="M 421 467 L 356 446 L 297 434 Q 285 431 278 431 L 274 431 Q 267 432 266 432 Q 262 430 260 427 Q 260 424 263 417 Q 267 410 274 402 Q 280 394 291 386 Q 301 378 308 378 L 310 378 Q 313 378 316 380 Q 320 382 336 392 L 367 412 L 430 456 Q 436 461 436 465 L 436 467 Q 435 470 431 470 Q 428 470 421 467 Z" fill="lightgray" />
    
      <path d="M 616 496 Q 618 497 636 505 L 677 520 Q 709 535 717 535 L 722 535 Q 726 535 727 536 Q 734 538 734 544 Q 734 551 728 560 Q 721 568 714 574 Q 706 581 694 588 Q 685 593 680 593 Q 678 593 677 592 Q 672 590 670 584 L 667 576 Q 664 568 652 553 Q 640 538 628 528 Q 616 517 606 510 L 598 505 Q 591 501 591 496 L 591 495 Q 592 491 596 491 Q 597 491 599 492 L 616 496 Z" fill="lightgray" />
    
      <path d="M 608 468 Q 596 468 594 462 L 594 460 Q 594 456 600 453 L 616 444 Q 630 434 652 426 L 684 412 Q 698 405 706 405 Q 710 405 712 406 Q 720 408 724 416 Q 725 419 725 422 Q 725 428 723 435 Q 718 448 704 456 Q 688 464 673 467 Q 658 470 636 470 L 608 468 Z" fill="lightgray" />
    
      <path d="M 350 312 L 396 317 Q 488 328 550 334 Q 612 340 671 341 L 723 342 Q 731 342 735 349 L 735 351 Q 735 358 721 369 Q 704 382 689 386 Q 674 389 666 389 L 641 385 L 606 380 Q 592 377 536 370 L 398 350 Q 339 342 293 338 L 262 335 Q 246 333 244 331 Q 243 330 243 328 Q 243 327 244 324 Q 246 318 254 315 Q 262 312 272 310 L 350 312 Z" fill="lightgray" />
    
      <path d="M 272 310 L 280 294 Q 284 285 284 256 Q 283 231 277 194 Q 272 157 250 106 Q 229 55 196 16 Q 164 -24 130 -50 L 100 -74 L 80 -90 Q 76 -93 76 -96 Q 76 -97 77 -98 Q 79 -101 82 -101 Q 84 -101 86 -100 L 118 -88 Q 130 -83 160 -64 Q 190 -44 226 -5 Q 262 35 279 70 Q 296 106 307 132 L 316 161 L 332 229 L 336 254 L 343 277 L 351 302 Q 351 304 350 312 C 352 342 259 337 272 310 Z" fill="lightgray" />
    
      <path d="M 332 229 L 354 225 Q 362 223 367 223 L 374 223 Q 383 223 396 224 L 470 232 Q 473 232 548 243 Q 624 254 636 256 L 663 261 Q 676 263 679 265 Q 682 268 682 272 Q 682 276 674 280 Q 665 284 648 288 Q 632 292 626 293 L 620 293 Q 615 293 608 292 Q 598 290 561 282 Q 523 274 466 266 Q 408 258 381 257 Q 354 255 336 254 C 306 252 302 234 332 229 Z" fill="lightgray" />
    
      <path d="M 307 132 L 322 128 Q 325 128 342 124 L 394 132 L 452 140 Q 516 150 572 155 Q 628 160 688 163 Q 748 166 770 166 L 788 166 Q 798 166 802 168 Q 804 170 805 175 Q 805 179 796 186 Q 788 193 771 202 Q 754 211 740 213 L 737 213 Q 722 213 693 206 Q 660 198 605 194 L 474 179 L 316 161 C 286 158 278 140 307 132 Z" fill="lightgray" />
    
      <path d="M 342 124 L 352 104 Q 355 100 357 82 Q 358 70 358 58 L 358 40 L 353 -32 Q 351 -62 348 -68 Q 345 -74 339 -85 Q 332 -95 332 -100 L 332 -104 Q 332 -112 336 -124 Q 342 -140 350 -149 Q 358 -159 366 -160 Q 372 -160 386 -148 L 416 -122 L 550 -16 Q 560 -9 560 -5 Q 561 -3 561 -1 Q 561 0 560 1 Q 558 4 555 4 Q 552 4 528 -6 L 435 -50 Q 413 -60 407 -60 Q 405 -60 404 -59 Q 399 -56 398 -50 Q 397 -48 397 -41 Q 397 -30 399 -10 L 403 56 Q 404 82 409 93 Q 413 104 413 108 Q 412 112 406 118 Q 400 124 394 132 C 375 155 329 151 342 124 Z" fill="lightgray" />
    
      <path d="M 646 28 L 730 72 Q 748 82 765 86 Q 782 91 786 93 Q 790 95 792 100 Q 793 102 793 103 Q 793 109 788 116 Q 781 128 771 137 Q 760 146 748 152 Q 741 154 737 154 Q 734 154 733 153 Q 730 151 728 147 L 723 133 Q 718 120 711 112 Q 704 102 691 90 L 636 38 C 614 17 619 14 646 28 Z" fill="lightgray" />
    
      <path d="M 636 38 L 570 96 Q 548 114 539 118 Q 530 121 514 122 L 510 122 Q 499 122 494 117 Q 490 113 490 109 L 490 107 Q 492 102 503 99 Q 514 96 528 87 Q 542 78 550 70 L 626 -8 Q 627 -10 681 -64 Q 734 -117 752 -124 Q 770 -131 782 -132 Q 790 -133 798 -133 Q 806 -133 814 -132 Q 832 -129 869 -121 Q 907 -114 920 -108 L 946 -100 Q 950 -98 951 -93 L 951 -92 Q 951 -87 940 -84 L 916 -80 Q 836 -67 789 -51 Q 742 -34 712 -16 Q 682 2 646 28 L 636 38 Z" fill="lightgray" />
    
    
      <clipPath id="make-me-a-hanzi-clip-0">
        <path d="M 529 684 L 644 696 L 671 701 Q 702 706 705 711 Q 707 715 707 718 L 707 720 Q 706 723 696 727 L 682 734 Q 676 736 659 741 Q 642 746 638 746 Q 632 745 619 741 Q 606 737 598 736 L 559 728 Q 554 728 512 722 L 414 709 L 359 706 L 343 705 L 334 704 Q 327 703 326 700 L 326 698 Q 326 694 331 687 Q 338 679 358 676 Q 377 673 386 673 Q 395 674 424 676 L 482 680 L 529 684 Z" />
      </clipPath>
      <path clip-path="url(#make-me-a-hanzi-clip-0)" d="M 332 699 L 353 690 L 414 691 L 639 721 L 699 719" fill="none" id="make-me-a-hanzi-animation-0" stroke-dasharray="499 998" stroke-linecap="round" />
    
      <clipPath id="make-me-a-hanzi-clip-1">
        <path d="M 245 604 L 240 619 Q 236 628 232 632 Q 226 638 222 638 Q 218 637 216 630 Q 213 624 208 605 Q 204 586 195 566 Q 186 548 178 534 Q 170 520 165 512 Q 159 504 158 502 Q 157 499 157 495 Q 157 491 158 486 Q 160 476 163 469 Q 166 461 172 456 Q 177 450 184 450 L 185 450 Q 193 450 202 460 Q 212 470 220 485 Q 228 500 234 518 L 249 569 L 245 604 Z" />
      </clipPath>
      <path clip-path="url(#make-me-a-hanzi-clip-1)" d="M 224 630 L 224 569 L 188 492 L 185 466" fill="none" id="make-me-a-hanzi-animation-1" stroke-dasharray="300 600" stroke-linecap="round" />
    
      <clipPath id="make-me-a-hanzi-clip-2">
        <path d="M 489 620 L 376 610 Q 354 608 314 607 Q 273 606 245 604 C 215 602 219 574 249 569 L 277 564 Q 280 564 304 567 Q 329 571 344 573 L 489 589 L 536 594 L 740 612 L 788 616 Q 794 617 798 617 Q 811 617 812 612 Q 814 608 814 605 Q 814 602 813 600 Q 811 592 800 580 Q 789 568 776 556 L 758 540 Q 750 534 750 529 Q 750 527 751 526 Q 753 523 757 523 Q 759 523 762 524 L 786 532 Q 810 542 835 547 Q 860 552 880 555 Q 901 558 912 559 Q 924 560 929 564 Q 934 568 935 574 L 935 575 Q 935 581 924 594 Q 913 608 906 614 Q 898 621 881 634 Q 864 647 852 653 Q 840 658 830 659 Q 822 659 804 655 L 769 649 Q 751 646 734 645 L 538 625 L 489 620 Z" />
      </clipPath>
      <path clip-path="url(#make-me-a-hanzi-clip-2)" d="M 251 599 L 267 586 L 292 585 L 801 636 L 837 628 L 853 607 L 852 590 L 757 530" fill="none" id="make-me-a-hanzi-animation-2" stroke-dasharray="878 1756" stroke-linecap="round" />
    
      <clipPath id="make-me-a-hanzi-clip-3">
        <path d="M 538 625 L 540 640 Q 541 645 545 653 Q 548 662 548 666 Q 548 670 542 675 Q 536 680 529 684 C 504 700 474 709 482 680 L 486 666 Q 488 660 488 648 Q 488 634 489 620 L 489 589 L 487 498 L 485 478 Q 484 468 482 456 Q 479 442 479 436 Q 480 430 484 417 Q 488 404 492 398 Q 499 386 505 386 L 507 386 Q 513 386 520 395 Q 527 404 531 416 Q 534 429 536 440 L 533 493 L 536 594 L 538 625 Z" />
      </clipPath>
      <path clip-path="url(#make-me-a-hanzi-clip-3)" d="M 490 675 L 516 654 L 506 396" fill="none" id="make-me-a-hanzi-animation-3" stroke-dasharray="420 840" stroke-linecap="round" />
    
      <clipPath id="make-me-a-hanzi-clip-4">
        <path d="M 322 518 Q 326 514 345 501 Q 365 488 374 484 Q 386 479 394 479 Q 398 479 401 481 Q 408 486 410 498 Q 410 510 400 522 Q 390 534 374 539 Q 364 543 352 543 Q 348 543 343 542 L 316 540 Q 310 540 306 536 Q 305 535 305 534 Q 305 530 310 527 L 322 518 Z" />
      </clipPath>
      <path clip-path="url(#make-me-a-hanzi-clip-4)" d="M 310 533 L 356 521 L 394 493" fill="none" id="make-me-a-hanzi-animation-4" stroke-dasharray="223 446" stroke-linecap="round" />
    
      <clipPath id="make-me-a-hanzi-clip-5">
        <path d="M 421 467 L 356 446 L 297 434 Q 285 431 278 431 L 274 431 Q 267 432 266 432 Q 262 430 260 427 Q 260 424 263 417 Q 267 410 274 402 Q 280 394 291 386 Q 301 378 308 378 L 310 378 Q 313 378 316 380 Q 320 382 336 392 L 367 412 L 430 456 Q 436 461 436 465 L 436 467 Q 435 470 431 470 Q 428 470 421 467 Z" />
      </clipPath>
      <path clip-path="url(#make-me-a-hanzi-clip-5)" d="M 268 424 L 302 409 L 316 410 L 432 466" fill="none" id="make-me-a-hanzi-animation-5" stroke-dasharray="308 616" stroke-linecap="round" />
    
      <clipPath id="make-me-a-hanzi-clip-6">
        <path d="M 616 496 Q 618 497 636 505 L 677 520 Q 709 535 717 535 L 722 535 Q 726 535 727 536 Q 734 538 734 544 Q 734 551 728 560 Q 721 568 714 574 Q 706 581 694 588 Q 685 593 680 593 Q 678 593 677 592 Q 672 590 670 584 L 667 576 Q 664 568 652 553 Q 640 538 628 528 Q 616 517 606 510 L 598 505 Q 591 501 591 496 L 591 495 Q 592 491 596 491 Q 597 491 599 492 L 616 496 Z" />
      </clipPath>
      <path clip-path="url(#make-me-a-hanzi-clip-6)" d="M 724 546 L 689 557 L 639 519 L 596 496" fill="none" id="make-me-a-hanzi-animation-6" stroke-dasharray="276 552" stroke-linecap="round" />
    
      <clipPath id="make-me-a-hanzi-clip-7">
        <path d="M 608 468 Q 596 468 594 462 L 594 460 Q 594 456 600 453 L 616 444 Q 630 434 652 426 L 684 412 Q 698 405 706 405 Q 710 405 712 406 Q 720 408 724 416 Q 725 419 725 422 Q 725 428 723 435 Q 718 448 704 456 Q 688 464 673 467 Q 658 470 636 470 L 608 468 Z" />
      </clipPath>
      <path clip-path="url(#make-me-a-hanzi-clip-7)" d="M 602 461 L 672 443 L 709 422" fill="none" id="make-me-a-hanzi-animation-7" stroke-dasharray="243 486" stroke-linecap="round" />
    
      <clipPath id="make-me-a-hanzi-clip-8">
        <path d="M 350 312 L 396 317 Q 488 328 550 334 Q 612 340 671 341 L 723 342 Q 731 342 735 349 L 735 351 Q 735 358 721 369 Q 704 382 689 386 Q 674 389 666 389 L 641 385 L 606 380 Q 592 377 536 370 L 398 350 Q 339 342 293 338 L 262 335 Q 246 333 244 331 Q 243 330 243 328 Q 243 327 244 324 Q 246 318 254 315 Q 262 312 272 310 L 350 312 Z" />
      </clipPath>
      <path clip-path="url(#make-me-a-hanzi-clip-8)" d="M 248 328 L 279 322 L 311 324 L 669 365 L 726 350" fill="none" id="make-me-a-hanzi-animation-8" stroke-dasharray="611 1222" stroke-linecap="round" />
    
      <clipPath id="make-me-a-hanzi-clip-9">
        <path d="M 272 310 L 280 294 Q 284 285 284 256 Q 283 231 277 194 Q 272 157 250 106 Q 229 55 196 16 Q 164 -24 130 -50 L 100 -74 L 80 -90 Q 76 -93 76 -96 Q 76 -97 77 -98 Q 79 -101 82 -101 Q 84 -101 86 -100 L 118 -88 Q 130 -83 160 -64 Q 190 -44 226 -5 Q 262 35 279 70 Q 296 106 307 132 L 316 161 L 332 229 L 336 254 L 343 277 L 351 302 Q 351 304 350 312 C 352 342 259 337 272 310 Z" />
      </clipPath>
      <path clip-path="url(#make-me-a-hanzi-clip-9)" d="M 280 309 L 313 280 L 293 160 L 264 85 L 229 26 L 176 -32 L 117 -76 L 81 -95" fill="none" id="make-me-a-hanzi-animation-9" stroke-dasharray="635 1270" stroke-linecap="round" />
    
      <clipPath id="make-me-a-hanzi-clip-10">
        <path d="M 332 229 L 354 225 Q 362 223 367 223 L 374 223 Q 383 223 396 224 L 470 232 Q 473 232 548 243 Q 624 254 636 256 L 663 261 Q 676 263 679 265 Q 682 268 682 272 Q 682 276 674 280 Q 665 284 648 288 Q 632 292 626 293 L 620 293 Q 615 293 608 292 Q 598 290 561 282 Q 523 274 466 266 Q 408 258 381 257 Q 354 255 336 254 C 306 252 302 234 332 229 Z" />
      </clipPath>
      <path clip-path="url(#make-me-a-hanzi-clip-10)" d="M 339 234 L 348 240 L 532 256 L 616 273 L 674 271" fill="none" id="make-me-a-hanzi-animation-10" stroke-dasharray="467 934" stroke-linecap="round" />
    
      <clipPath id="make-me-a-hanzi-clip-11">
        <path d="M 307 132 L 322 128 Q 325 128 342 124 L 394 132 L 452 140 Q 516 150 572 155 Q 628 160 688 163 Q 748 166 770 166 L 788 166 Q 798 166 802 168 Q 804 170 805 175 Q 805 179 796 186 Q 788 193 771 202 Q 754 211 740 213 L 737 213 Q 722 213 693 206 Q 660 198 605 194 L 474 179 L 316 161 C 286 158 278 140 307 132 Z" />
      </clipPath>
      <path clip-path="url(#make-me-a-hanzi-clip-11)" d="M 316 137 L 328 143 L 512 167 L 722 189 L 794 175" fill="none" id="make-me-a-hanzi-animation-11" stroke-dasharray="611 1222" stroke-linecap="round" />
    
      <clipPath id="make-me-a-hanzi-clip-12">
        <path d="M 342 124 L 352 104 Q 355 100 357 82 Q 358 70 358 58 L 358 40 L 353 -32 Q 351 -62 348 -68 Q 345 -74 339 -85 Q 332 -95 332 -100 L 332 -104 Q 332 -112 336 -124 Q 342 -140 350 -149 Q 358 -159 366 -160 Q 372 -160 386 -148 L 416 -122 L 550 -16 Q 560 -9 560 -5 Q 561 -3 561 -1 Q 561 0 560 1 Q 558 4 555 4 Q 552 4 528 -6 L 435 -50 Q 413 -60 407 -60 Q 405 -60 404 -59 Q 399 -56 398 -50 Q 397 -48 397 -41 Q 397 -30 399 -10 L 403 56 Q 404 82 409 93 Q 413 104 413 108 Q 412 112 406 118 Q 400 124 394 132 C 375 155 329 151 342 124 Z" />
      </clipPath>
      <path clip-path="url(#make-me-a-hanzi-clip-12)" d="M 349 121 L 382 102 L 374 -42 L 384 -95 L 431 -79 L 557 -2" fill="none" id="make-me-a-hanzi-animation-12" stroke-dasharray="562 1124" stroke-linecap="round" />
    
      <clipPath id="make-me-a-hanzi-clip-13">
        <path d="M 646 28 L 730 72 Q 748 82 765 86 Q 782 91 786 93 Q 790 95 792 100 Q 793 102 793 103 Q 793 109 788 116 Q 781 128 771 137 Q 760 146 748 152 Q 741 154 737 154 Q 734 154 733 153 Q 730 151 728 147 L 723 133 Q 718 120 711 112 Q 704 102 691 90 L 636 38 C 614 17 619 14 646 28 Z" />
      </clipPath>
      <path clip-path="url(#make-me-a-hanzi-clip-13)" d="M 780 106 L 748 114 L 646 38" fill="none" id="make-me-a-hanzi-animation-13" stroke-dasharray="288 576" stroke-linecap="round" />
    
      <clipPath id="make-me-a-hanzi-clip-14">
        <path d="M 636 38 L 570 96 Q 548 114 539 118 Q 530 121 514 122 L 510 122 Q 499 122 494 117 Q 490 113 490 109 L 490 107 Q 492 102 503 99 Q 514 96 528 87 Q 542 78 550 70 L 626 -8 Q 627 -10 681 -64 Q 734 -117 752 -124 Q 770 -131 782 -132 Q 790 -133 798 -133 Q 806 -133 814 -132 Q 832 -129 869 -121 Q 907 -114 920 -108 L 946 -100 Q 950 -98 951 -93 L 951 -92 Q 951 -87 940 -84 L 916 -80 Q 836 -67 789 -51 Q 742 -34 712 -16 Q 682 2 646 28 L 636 38 Z" />
      </clipPath>
      <path clip-path="url(#make-me-a-hanzi-clip-14)" d="M 500 108 L 535 102 L 671 -20 L 773 -89 L 855 -97 L 943 -92" fill="none" id="make-me-a-hanzi-animation-14" stroke-dasharray="640 1280" stroke-linecap="round" />
    
  </g>
</svg>