<svg version="1.1" viewBox="0 0 1024 1024" xmlns="http://www.w3.org/2000/svg">
  <g stroke="lightgray" stroke-dasharray="1,1" stroke-width="1" transform="scale(4, 4)">
    <line x1="0" y1="0" x2="256" y2="256"></line>
    <line x1="256" y1="0" x2="0" y2="256"></line>
    <line x1="128" y1="0" x2="128" y2="256"></line>
    <line x1="0" y1="128" x2="256" y2="128"></line>
  </g>
  <g transform="scale(0.92, -0.92) translate(60, -830)">
    <style type="text/css">
      
        @keyframes keyframes0 {
          from {
            stroke: blue;
            stroke-dashoffset: 596;
            stroke-width: 128;
          }
          66% {
            animation-timing-function: step-end;
            stroke: blue;
            stroke-dashoffset: 0;
            stroke-width: 128;
          }
          to {
            stroke: black;
            stroke-width: 1024;
          }
        }
        #make-me-a-hanzi-animation-0 {
          animation: keyframes0 0.7350260416666666s both;
          animation-delay: 0s;
          animation-timing-function: linear;
        }
      
        @keyframes keyframes1 {
          from {
            stroke: blue;
            stroke-dashoffset: 402;
            stroke-width: 128;
          }
          57% {
            animation-timing-function: step-end;
            stroke: blue;
            stroke-dashoffset: 0;
            stroke-width: 128;
          }
          to {
            stroke: black;
            stroke-width: 1024;
          }
        }
        #make-me-a-hanzi-animation-1 {
          animation: keyframes1 0.5771484375s both;
          animation-delay: 0.7350260416666666s;
          animation-timing-function: linear;
        }
      
        @keyframes keyframes2 {
          from {
            stroke: blue;
            stroke-dashoffset: 955;
            stroke-width: 128;
          }
          76% {
            animation-timing-function: step-end;
            stroke: blue;
            stroke-dashoffset: 0;
            stroke-width: 128;
          }
          to {
            stroke: black;
            stroke-width: 1024;
          }
        }
        #make-me-a-hanzi-animation-2 {
          animation: keyframes2 1.0271809895833333s both;
          animation-delay: 1.3121744791666665s;
          animation-timing-function: linear;
        }
      
        @keyframes keyframes3 {
          from {
            stroke: blue;
            stroke-dashoffset: 512;
            stroke-width: 128;
          }
          63% {
            animation-timing-function: step-end;
            stroke: blue;
            stroke-dashoffset: 0;
            stroke-width: 128;
          }
          to {
            stroke: black;
            stroke-width: 1024;
          }
        }
        #make-me-a-hanzi-animation-3 {
          animation: keyframes3 0.6666666666666666s both;
          animation-delay: 2.33935546875s;
          animation-timing-function: linear;
        }
      
        @keyframes keyframes4 {
          from {
            stroke: blue;
            stroke-dashoffset: 347;
            stroke-width: 128;
          }
          53% {
            animation-timing-function: step-end;
            stroke: blue;
            stroke-dashoffset: 0;
            stroke-width: 128;
          }
          to {
            stroke: black;
            stroke-width: 1024;
          }
        }
        #make-me-a-hanzi-animation-4 {
          animation: keyframes4 0.5323893229166666s both;
          animation-delay: 3.0060221354166665s;
          animation-timing-function: linear;
        }
      
        @keyframes keyframes5 {
          from {
            stroke: blue;
            stroke-dashoffset: 402;
            stroke-width: 128;
          }
          57% {
            animation-timing-function: step-end;
            stroke: blue;
            stroke-dashoffset: 0;
            stroke-width: 128;
          }
          to {
            stroke: black;
            stroke-width: 1024;
          }
        }
        #make-me-a-hanzi-animation-5 {
          animation: keyframes5 0.5771484375s both;
          animation-delay: 3.538411458333333s;
          animation-timing-function: linear;
        }
      
        @keyframes keyframes6 {
          from {
            stroke: blue;
            stroke-dashoffset: 385;
            stroke-width: 128;
          }
          56% {
            animation-timing-function: step-end;
            stroke: blue;
            stroke-dashoffset: 0;
            stroke-width: 128;
          }
          to {
            stroke: black;
            stroke-width: 1024;
          }
        }
        #make-me-a-hanzi-animation-6 {
          animation: keyframes6 0.5633138020833334s both;
          animation-delay: 4.115559895833333s;
          animation-timing-function: linear;
        }
      
        @keyframes keyframes7 {
          from {
            stroke: blue;
            stroke-dashoffset: 368;
            stroke-width: 128;
          }
          55% {
            animation-timing-function: step-end;
            stroke: blue;
            stroke-dashoffset: 0;
            stroke-width: 128;
          }
          to {
            stroke: black;
            stroke-width: 1024;
          }
        }
        #make-me-a-hanzi-animation-7 {
          animation: keyframes7 0.5494791666666666s both;
          animation-delay: 4.678873697916666s;
          animation-timing-function: linear;
        }
      
        @keyframes keyframes8 {
          from {
            stroke: blue;
            stroke-dashoffset: 593;
            stroke-width: 128;
          }
          66% {
            animation-timing-function: step-end;
            stroke: blue;
            stroke-dashoffset: 0;
            stroke-width: 128;
          }
          to {
            stroke: black;
            stroke-width: 1024;
          }
        }
        #make-me-a-hanzi-animation-8 {
          animation: keyframes8 0.7325846354166666s both;
          animation-delay: 5.228352864583333s;
          animation-timing-function: linear;
        }
      
        @keyframes keyframes9 {
          from {
            stroke: blue;
            stroke-dashoffset: 343;
            stroke-width: 128;
          }
          53% {
            animation-timing-function: step-end;
            stroke: blue;
            stroke-dashoffset: 0;
            stroke-width: 128;
          }
          to {
            stroke: black;
            stroke-width: 1024;
          }
        }
        #make-me-a-hanzi-animation-9 {
          animation: keyframes9 0.5291341145833334s both;
          animation-delay: 5.9609375s;
          animation-timing-function: linear;
        }
      
        @keyframes keyframes10 {
          from {
            stroke: blue;
            stroke-dashoffset: 694;
            stroke-width: 128;
          }
          69% {
            animation-timing-function: step-end;
            stroke: blue;
            stroke-dashoffset: 0;
            stroke-width: 128;
          }
          to {
            stroke: black;
            stroke-width: 1024;
          }
        }
        #make-me-a-hanzi-animation-10 {
          animation: keyframes10 0.8147786458333334s both;
          animation-delay: 6.490071614583333s;
          animation-timing-function: linear;
        }
      
        @keyframes keyframes11 {
          from {
            stroke: blue;
            stroke-dashoffset: 645;
            stroke-width: 128;
          }
          68% {
            animation-timing-function: step-end;
            stroke: blue;
            stroke-dashoffset: 0;
            stroke-width: 128;
          }
          to {
            stroke: black;
            stroke-width: 1024;
          }
        }
        #make-me-a-hanzi-animation-11 {
          animation: keyframes11 0.77490234375s both;
          animation-delay: 7.304850260416666s;
          animation-timing-function: linear;
        }
      
        @keyframes keyframes12 {
          from {
            stroke: blue;
            stroke-dashoffset: 619;
            stroke-width: 128;
          }
          67% {
            animation-timing-function: step-end;
            stroke: blue;
            stroke-dashoffset: 0;
            stroke-width: 128;
          }
          to {
            stroke: black;
            stroke-width: 1024;
          }
        }
        #make-me-a-hanzi-animation-12 {
          animation: keyframes12 0.7537434895833334s both;
          animation-delay: 8.079752604166666s;
          animation-timing-function: linear;
        }
      
        @keyframes keyframes13 {
          from {
            stroke: blue;
            stroke-dashoffset: 433;
            stroke-width: 128;
          }
          58% {
            animation-timing-function: step-end;
            stroke: blue;
            stroke-dashoffset: 0;
            stroke-width: 128;
          }
          to {
            stroke: black;
            stroke-width: 1024;
          }
        }
        #make-me-a-hanzi-animation-13 {
          animation: keyframes13 0.6023763020833334s both;
          animation-delay: 8.83349609375s;
          animation-timing-function: linear;
        }
      
        @keyframes keyframes14 {
          from {
            stroke: blue;
            stroke-dashoffset: 489;
            stroke-width: 128;
          }
          61% {
            animation-timing-function: step-end;
            stroke: blue;
            stroke-dashoffset: 0;
            stroke-width: 128;
          }
          to {
            stroke: black;
            stroke-width: 1024;
          }
        }
        #make-me-a-hanzi-animation-14 {
          animation: keyframes14 0.64794921875s both;
          animation-delay: 9.435872395833334s;
          animation-timing-function: linear;
        }
      
        @keyframes keyframes15 {
          from {
            stroke: blue;
            stroke-dashoffset: 626;
            stroke-width: 128;
          }
          67% {
            animation-timing-function: step-end;
            stroke: blue;
            stroke-dashoffset: 0;
            stroke-width: 128;
          }
          to {
            stroke: black;
            stroke-width: 1024;
          }
        }
        #make-me-a-hanzi-animation-15 {
          animation: keyframes15 0.7594401041666666s both;
          animation-delay: 10.083821614583334s;
          animation-timing-function: linear;
        }
      
        @keyframes keyframes16 {
          from {
            stroke: blue;
            stroke-dashoffset: 695;
            stroke-width: 128;
          }
          69% {
            animation-timing-function: step-end;
            stroke: blue;
            stroke-dashoffset: 0;
            stroke-width: 128;
          }
          to {
            stroke: black;
            stroke-width: 1024;
          }
        }
        #make-me-a-hanzi-animation-16 {
          animation: keyframes16 0.8155924479166666s both;
          animation-delay: 10.84326171875s;
          animation-timing-function: linear;
        }
      
        @keyframes keyframes17 {
          from {
            stroke: blue;
            stroke-dashoffset: 889;
            stroke-width: 128;
          }
          74% {
            animation-timing-function: step-end;
            stroke: blue;
            stroke-dashoffset: 0;
            stroke-width: 128;
          }
          to {
            stroke: black;
            stroke-width: 1024;
          }
        }
        #make-me-a-hanzi-animation-17 {
          animation: keyframes17 0.9734700520833334s both;
          animation-delay: 11.658854166666666s;
          animation-timing-function: linear;
        }
      
        @keyframes keyframes18 {
          from {
            stroke: blue;
            stroke-dashoffset: 645;
            stroke-width: 128;
          }
          68% {
            animation-timing-function: step-end;
            stroke: blue;
            stroke-dashoffset: 0;
            stroke-width: 128;
          }
          to {
            stroke: black;
            stroke-width: 1024;
          }
        }
        #make-me-a-hanzi-animation-18 {
          animation: keyframes18 0.77490234375s both;
          animation-delay: 12.63232421875s;
          animation-timing-function: linear;
        }
      
    </style>
    
      <path d="M 517 672 L 629 685 L 657 689 Q 675 692 684 697 Q 692 701 692 707 L 692 708 Q 691 714 683 718 Q 675 724 667 726 Q 660 730 644 734 Q 628 738 623 738 Q 617 738 605 734 Q 592 730 583 728 L 544 721 Q 523 717 487 712 Q 450 706 434 705 Q 419 703 372 699 L 356 698 L 347 697 Q 340 696 339 692 Q 338 691 338 690 Q 338 686 342 682 Q 346 676 357 672 Q 367 666 379 664 Q 390 662 405 662 Q 419 662 437 664 L 472 668 L 517 672 Z" fill="lightgray"></path>
    
      <path d="M 245 598 L 239 612 Q 235 622 231 626 Q 226 631 222 631 L 221 631 Q 217 630 215 624 L 209 606 Q 206 593 200 579 Q 195 566 187 554 Q 180 542 174 534 Q 167 525 167 522 Q 165 518 165 513 Q 165 510 166 506 Q 168 496 171 489 Q 175 482 181 476 Q 187 470 193 470 L 194 470 Q 201 470 210 479 Q 220 490 230 507 Q 239 525 243 537 Q 245 548 248 562 C 252 581 252 581 245 598 Z" fill="lightgray"></path>
    
      <path d="M 479 612 L 375 604 Q 351 602 311 600 Q 272 599 245 598 C 215 597 218 566 248 562 L 276 558 Q 279 558 297 560 L 343 566 L 478 580 L 523 584 L 709 602 Q 710 602 745 604 Q 758 605 766 605 Q 780 605 782 602 Q 784 598 784 595 Q 784 592 783 590 Q 781 585 772 572 L 757 551 L 743 534 Q 737 528 737 524 Q 737 523 738 522 Q 739 519 744 519 Q 746 519 749 520 L 772 529 Q 779 531 809 539 L 844 548 Q 849 548 864 551 Q 879 553 884 557 Q 889 562 889 569 Q 889 576 881 587 Q 873 598 865 606 Q 857 614 843 625 Q 829 637 819 642 Q 809 648 799 649 L 796 649 Q 788 649 773 645 Q 754 640 737 638 L 705 635 L 526 616 L 479 612 Z" fill="lightgray"></path>
    
      <path d="M 526 616 L 529 628 Q 529 630 533 639 Q 536 647 536 652 L 536 654 Q 535 659 530 664 Q 525 668 517 672 C 491 687 464 697 472 668 L 476 654 Q 477 649 478 636 Q 478 624 479 612 L 478 580 L 477 521 L 475 501 Q 473 492 471 480 Q 469 465 469 458 Q 469 452 473 440 Q 476 428 481 420 Q 488 409 494 409 L 495 409 Q 500 410 505 416 Q 511 422 514 428 Q 517 434 520 443 Q 523 451 523 463 L 521 516 L 523 584 L 526 616 Z" fill="lightgray"></path>
    
      <path d="M 308 540 L 308 539 Q 308 537 310 534 Q 313 528 321 525 Q 329 522 345 512 Q 362 502 378 495 Q 390 490 397 490 L 401 490 Q 418 494 419 508 L 419 511 Q 419 523 407 532 Q 392 540 381 543 Q 369 546 345 546 L 337 546 Q 325 546 318 544 Q 309 542 308 540 Z" fill="lightgray"></path>
    
      <path d="M 390 467 Q 383 465 361 462 Q 339 460 332 459 Q 325 458 317 458 L 307 459 Q 297 459 293 460 L 285 460 Q 281 458 280 456 L 280 454 Q 280 451 283 446 Q 286 440 295 430 Q 303 421 311 414 Q 321 406 327 406 Q 332 406 337 409 Q 343 412 353 418 Q 363 425 376 433 L 397 446 Q 405 450 407 452 L 419 460 Q 424 463 424 467 L 424 469 Q 423 473 417 473 Q 414 473 411 472 L 390 467 Z" fill="lightgray"></path>
    
      <path d="M 589 507 Q 599 509 620 514 Q 641 518 655 522 Q 669 526 678 527 Q 687 528 691 530 Q 695 533 695 538 Q 695 542 688 550 Q 681 558 672 565 Q 663 572 653 578 Q 646 583 641 583 Q 640 583 639 582 Q 636 580 631 572 Q 627 562 619 554 Q 611 546 597 535 Q 583 524 577 520 L 567 513 Q 561 509 561 506 L 561 505 Q 562 502 566 502 L 569 502 L 589 507 Z" fill="lightgray"></path>
    
      <path d="M 573 474 L 572 473 Q 572 471 576 468 Q 580 462 587 460 L 616 446 L 653 430 Q 665 426 675 426 L 678 426 Q 686 426 692 432 Q 698 436 698 444 Q 697 452 691 459 Q 685 466 676 471 Q 667 476 657 478 Q 647 479 615 481 L 605 481 Q 591 481 583 479 Q 573 476 573 474 Z" fill="lightgray"></path>
    
      <path d="M 351 272 L 403 305 Q 438 328 451 330 Q 464 333 468 335 Q 473 338 474 342 L 474 344 Q 474 348 471 354 Q 468 362 451 371 L 425 386 Q 416 392 410 395 Q 406 396 401 396 L 397 396 Q 391 396 387 394 L 364 384 Q 352 379 314 370 L 261 358 Q 244 354 231 354 L 205 352 Q 191 352 189 350 L 189 349 Q 189 346 192 338 Q 197 330 213 323 Q 225 318 232 318 L 235 318 Q 238 318 249 322 Q 259 327 274 332 L 343 351 Q 351 353 363 354 Q 367 355 370 355 Q 376 355 378 352 Q 380 350 380 347 Q 380 344 379 342 Q 377 336 369 326 L 335 284 C 316 261 326 256 351 272 Z" fill="lightgray"></path>
    
      <path d="M 357 230 L 361 250 L 361 256 Q 359 261 351 272 C 344 282 344 282 335 284 L 285 296 Q 282 297 280 297 Q 276 297 274 294 Q 273 293 273 291 Q 273 288 278 282 L 289 268 Q 298 256 307 246 Q 317 236 333 223 C 352 207 352 207 357 230 Z" fill="lightgray"></path>
    
      <path d="M 333 200 L 392 211 Q 397 212 401 212 Q 411 212 415 207 Q 416 205 416 202 Q 416 194 409 178 L 395 151 Q 393 147 393 143 Q 393 140 395 138 Q 397 136 399 136 Q 404 136 411 141 L 435 158 Q 453 171 460 175 Q 467 180 482 184 Q 497 188 501 190 Q 505 192 507 197 Q 508 198 508 200 Q 508 205 504 211 Q 500 219 476 232 Q 453 246 445 249 Q 439 252 429 252 Q 423 252 405 244 Q 387 236 357 230 L 333 223 L 299 215 Q 293 214 244 204 Q 195 196 179 194 Q 163 192 139 190 L 115 188 Q 102 188 101 185 L 101 183 Q 101 180 103 174 Q 107 166 122 160 Q 135 155 146 155 L 150 155 Q 155 156 167 160 Q 180 164 195 168 Q 209 172 227 176 L 285 189 L 333 200 Z" fill="lightgray"></path>
    
      <path d="M 321 151 L 327 113 Q 327 108 325 51 Q 324 -5 323 -15 Q 321 -24 317 -45 Q 313 -65 309 -68 Q 306 -69 302 -69 Q 298 -69 293 -68 Q 283 -66 275 -62 L 257 -54 Q 252 -52 249 -52 Q 245 -52 243 -54 Q 241 -56 241 -57 Q 241 -60 245 -63 L 260 -81 Q 271 -95 275 -99 Q 279 -104 286 -115 Q 294 -127 299 -138 Q 304 -149 309 -151 Q 312 -153 316 -153 Q 320 -153 327 -150 Q 339 -145 347 -133 Q 355 -120 359 -100 Q 365 -80 367 -60 Q 369 -39 369 -13 L 364 156 Q 363 170 361 178 Q 357 185 350 190 Q 342 195 333 200 C 311 213 316 181 321 151 Z" fill="lightgray"></path>
    
      <path d="M 285 189 L 260 140 Q 244 107 215 68 Q 185 30 165 12 L 108 -39 L 86 -58 Q 80 -64 80 -68 Q 80 -70 81 -71 Q 82 -73 85 -73 Q 88 -73 93 -71 L 121 -58 Q 139 -50 176 -20 Q 213 9 240 38 Q 267 66 283 91 Q 300 116 321 151 C 358 211 316 250 285 189 Z" fill="lightgray"></path>
    
      <path d="M 592 374 L 599 382 L 613 393 Q 617 396 619 400 Q 619 404 616 409 Q 613 414 604 419 Q 595 424 583 430 Q 574 435 567 435 Q 565 435 563 434 Q 559 434 557 432 Q 556 431 556 427 L 556 422 Q 556 414 552 403 Q 548 392 541 379 Q 533 366 523 352 Q 513 338 493 316 L 479 301 Q 475 297 475 294 Q 475 292 477 290 Q 478 288 481 288 Q 483 288 487 290 L 505 300 Q 515 305 531 318 L 570 348 L 592 374 Z" fill="lightgray"></path>
    
      <path d="M 722 358 L 751 364 L 785 370 Q 793 372 803 376 Q 812 380 813 384 L 813 386 Q 813 391 807 396 Q 799 403 784 409 Q 769 414 762 414 Q 756 414 736 406 Q 717 397 674 389 Q 632 380 625 379 Q 617 378 592 374 C 562 369 541 355 570 348 L 587 344 Q 591 343 598 343 L 607 343 Q 622 343 638 345 Q 653 347 679 351 L 722 358 Z" fill="lightgray"></path>
    
      <path d="M 606 182 L 626 198 Q 629 200 643 212 L 665 237 L 684 262 Q 692 272 702 288 L 715 309 Q 718 313 722 316 L 733 325 Q 735 328 735 332 Q 736 333 736 334 Q 736 338 732 342 Q 728 349 722 358 C 706 383 689 379 679 351 L 670 326 Q 664 308 652 290 Q 641 272 629 256 L 609 236 L 577 208 Q 559 192 523 168 Q 488 146 469 137 L 449 128 Q 441 125 441 121 L 441 119 Q 442 115 448 115 Q 450 115 453 116 L 473 120 Q 500 126 523 136 Q 547 146 559 153 L 588 169 L 606 182 Z" fill="lightgray"></path>
    
      <path d="M 643 212 L 662 199 L 754 136 Q 775 122 788 119 Q 797 118 805 118 L 813 118 Q 827 118 849 121 Q 871 124 897 130 L 935 138 Q 947 142 949 147 Q 949 152 936 155 L 891 162 Q 845 169 819 175 Q 793 181 768 191 Q 743 200 715 214 Q 687 226 665 237 L 629 256 L 589 275 Q 577 280 565 282 Q 560 283 555 283 Q 548 283 541 281 Q 529 279 527 274 Q 526 271 526 269 Q 526 267 527 265 Q 529 262 539 262 Q 549 262 558 258 Q 567 256 579 250 Q 591 244 609 236 L 643 212 Z" fill="lightgray"></path>
    
      <path d="M 579 84 L 551 80 L 520 76 L 493 73 L 471 72 Q 461 70 460 68 L 460 67 Q 460 64 467 56 Q 475 46 489 41 Q 503 36 513 36 Q 518 36 532 41 Q 547 46 567 50 L 626 62 L 705 73 Q 711 74 717 74 Q 722 74 727 73 Q 738 71 743 66 Q 746 63 746 55 Q 746 45 742 28 Q 735 -6 729 -27 Q 723 -48 714 -66 Q 705 -85 699 -88 Q 693 -90 687 -90 Q 681 -89 653 -80 L 623 -70 Q 620 -69 618 -69 Q 614 -69 613 -72 Q 612 -73 612 -75 Q 612 -77 615 -80 L 637 -103 Q 637 -104 653 -123 Q 668 -142 674 -152 Q 680 -162 684 -163 Q 687 -165 691 -165 Q 699 -165 711 -158 Q 731 -148 745 -128 Q 759 -108 771 -60 L 785 -1 L 793 34 Q 796 44 801 54 Q 807 63 808 64 Q 810 69 810 73 L 810 76 Q 809 81 797 93 Q 785 104 769 111 Q 753 117 749 118 Q 744 118 729 112 Q 714 106 699 104 L 669 99 Q 657 97 637 92 L 579 84 Z" fill="lightgray"></path>
    
      <path d="M 588 169 L 591 140 Q 591 134 588 121 L 583 100 Q 581 93 579 84 L 567 50 L 557 24 Q 549 2 525 -30 Q 500 -61 477 -80 Q 453 -100 439 -110 L 420 -126 Q 415 -129 415 -134 L 415 -135 Q 416 -137 420 -137 Q 423 -137 429 -135 L 449 -127 Q 459 -123 491 -102 Q 523 -81 548 -57 Q 573 -34 591 -3 Q 609 27 626 62 L 637 92 L 643 107 Q 648 120 655 128 Q 663 136 665 141 L 665 143 Q 665 147 654 157 Q 641 168 631 173 L 606 182 C 586 189 586 189 588 169 Z" fill="lightgray"></path>
    
    
      <clipPath id="make-me-a-hanzi-clip-0">
        <path d="M 517 672 L 629 685 L 657 689 Q 675 692 684 697 Q 692 701 692 707 L 692 708 Q 691 714 683 718 Q 675 724 667 726 Q 660 730 644 734 Q 628 738 623 738 Q 617 738 605 734 Q 592 730 583 728 L 544 721 Q 523 717 487 712 Q 450 706 434 705 Q 419 703 372 699 L 356 698 L 347 697 Q 340 696 339 692 Q 338 691 338 690 Q 338 686 342 682 Q 346 676 357 672 Q 367 666 379 664 Q 390 662 405 662 Q 419 662 437 664 L 472 668 L 517 672 Z"></path>
      </clipPath>
      <path clip-path="url(#make-me-a-hanzi-clip-0)" d="M 344 688 L 399 681 L 623 711 L 681 708" fill="none" id="make-me-a-hanzi-animation-0" stroke-dasharray="468 936" stroke-linecap="round"></path>
    
      <clipPath id="make-me-a-hanzi-clip-1">
        <path d="M 245 598 L 239 612 Q 235 622 231 626 Q 226 631 222 631 L 221 631 Q 217 630 215 624 L 209 606 Q 206 593 200 579 Q 195 566 187 554 Q 180 542 174 534 Q 167 525 167 522 Q 165 518 165 513 Q 165 510 166 506 Q 168 496 171 489 Q 175 482 181 476 Q 187 470 193 470 L 194 470 Q 201 470 210 479 Q 220 490 230 507 Q 239 525 243 537 Q 245 548 248 562 C 252 581 252 581 245 598 Z"></path>
      </clipPath>
      <path clip-path="url(#make-me-a-hanzi-clip-1)" d="M 222 625 L 226 590 L 221 561 L 197 512 L 194 485" fill="none" id="make-me-a-hanzi-animation-1" stroke-dasharray="274 548" stroke-linecap="round"></path>
    
      <clipPath id="make-me-a-hanzi-clip-2">
        <path d="M 479 612 L 375 604 Q 351 602 311 600 Q 272 599 245 598 C 215 597 218 566 248 562 L 276 558 Q 279 558 297 560 L 343 566 L 478 580 L 523 584 L 709 602 Q 710 602 745 604 Q 758 605 766 605 Q 780 605 782 602 Q 784 598 784 595 Q 784 592 783 590 Q 781 585 772 572 L 757 551 L 743 534 Q 737 528 737 524 Q 737 523 738 522 Q 739 519 744 519 Q 746 519 749 520 L 772 529 Q 779 531 809 539 L 844 548 Q 849 548 864 551 Q 879 553 884 557 Q 889 562 889 569 Q 889 576 881 587 Q 873 598 865 606 Q 857 614 843 625 Q 829 637 819 642 Q 809 648 799 649 L 796 649 Q 788 649 773 645 Q 754 640 737 638 L 705 635 L 526 616 L 479 612 Z"></path>
      </clipPath>
      <path clip-path="url(#make-me-a-hanzi-clip-2)" d="M 251 592 L 272 578 L 784 626 L 798 623 L 816 605 L 823 585 L 744 526" fill="none" id="make-me-a-hanzi-animation-2" stroke-dasharray="827 1654" stroke-linecap="round"></path>
    
      <clipPath id="make-me-a-hanzi-clip-3">
        <path d="M 526 616 L 529 628 Q 529 630 533 639 Q 536 647 536 652 L 536 654 Q 535 659 530 664 Q 525 668 517 672 C 491 687 464 697 472 668 L 476 654 Q 477 649 478 636 Q 478 624 479 612 L 478 580 L 477 521 L 475 501 Q 473 492 471 480 Q 469 465 469 458 Q 469 452 473 440 Q 476 428 481 420 Q 488 409 494 409 L 495 409 Q 500 410 505 416 Q 511 422 514 428 Q 517 434 520 443 Q 523 451 523 463 L 521 516 L 523 584 L 526 616 Z"></path>
      </clipPath>
      <path clip-path="url(#make-me-a-hanzi-clip-3)" d="M 480 663 L 505 643 L 495 419" fill="none" id="make-me-a-hanzi-animation-3" stroke-dasharray="384 768" stroke-linecap="round"></path>
    
      <clipPath id="make-me-a-hanzi-clip-4">
        <path d="M 308 540 L 308 539 Q 308 537 310 534 Q 313 528 321 525 Q 329 522 345 512 Q 362 502 378 495 Q 390 490 397 490 L 401 490 Q 418 494 419 508 L 419 511 Q 419 523 407 532 Q 392 540 381 543 Q 369 546 345 546 L 337 546 Q 325 546 318 544 Q 309 542 308 540 Z"></path>
      </clipPath>
      <path clip-path="url(#make-me-a-hanzi-clip-4)" d="M 314 540 L 400 510" fill="none" id="make-me-a-hanzi-animation-4" stroke-dasharray="219 438" stroke-linecap="round"></path>
    
      <clipPath id="make-me-a-hanzi-clip-5">
        <path d="M 390 467 Q 383 465 361 462 Q 339 460 332 459 Q 325 458 317 458 L 307 459 Q 297 459 293 460 L 285 460 Q 281 458 280 456 L 280 454 Q 280 451 283 446 Q 286 440 295 430 Q 303 421 311 414 Q 321 406 327 406 Q 332 406 337 409 Q 343 412 353 418 Q 363 425 376 433 L 397 446 Q 405 450 407 452 L 419 460 Q 424 463 424 467 L 424 469 Q 423 473 417 473 Q 414 473 411 472 L 390 467 Z"></path>
      </clipPath>
      <path clip-path="url(#make-me-a-hanzi-clip-5)" d="M 285 455 L 328 433 L 419 468" fill="none" id="make-me-a-hanzi-animation-5" stroke-dasharray="274 548" stroke-linecap="round"></path>
    
      <clipPath id="make-me-a-hanzi-clip-6">
        <path d="M 589 507 Q 599 509 620 514 Q 641 518 655 522 Q 669 526 678 527 Q 687 528 691 530 Q 695 533 695 538 Q 695 542 688 550 Q 681 558 672 565 Q 663 572 653 578 Q 646 583 641 583 Q 640 583 639 582 Q 636 580 631 572 Q 627 562 619 554 Q 611 546 597 535 Q 583 524 577 520 L 567 513 Q 561 509 561 506 L 561 505 Q 562 502 566 502 L 569 502 L 589 507 Z"></path>
      </clipPath>
      <path clip-path="url(#make-me-a-hanzi-clip-6)" d="M 683 539 L 649 548 L 565 506" fill="none" id="make-me-a-hanzi-animation-6" stroke-dasharray="257 514" stroke-linecap="round"></path>
    
      <clipPath id="make-me-a-hanzi-clip-7">
        <path d="M 573 474 L 572 473 Q 572 471 576 468 Q 580 462 587 460 L 616 446 L 653 430 Q 665 426 675 426 L 678 426 Q 686 426 692 432 Q 698 436 698 444 Q 697 452 691 459 Q 685 466 676 471 Q 667 476 657 478 Q 647 479 615 481 L 605 481 Q 591 481 583 479 Q 573 476 573 474 Z"></path>
      </clipPath>
      <path clip-path="url(#make-me-a-hanzi-clip-7)" d="M 575 471 L 623 464 L 683 444" fill="none" id="make-me-a-hanzi-animation-7" stroke-dasharray="240 480" stroke-linecap="round"></path>
    
      <clipPath id="make-me-a-hanzi-clip-8">
        <path d="M 351 272 L 403 305 Q 438 328 451 330 Q 464 333 468 335 Q 473 338 474 342 L 474 344 Q 474 348 471 354 Q 468 362 451 371 L 425 386 Q 416 392 410 395 Q 406 396 401 396 L 397 396 Q 391 396 387 394 L 364 384 Q 352 379 314 370 L 261 358 Q 244 354 231 354 L 205 352 Q 191 352 189 350 L 189 349 Q 189 346 192 338 Q 197 330 213 323 Q 225 318 232 318 L 235 318 Q 238 318 249 322 Q 259 327 274 332 L 343 351 Q 351 353 363 354 Q 367 355 370 355 Q 376 355 378 352 Q 380 350 380 347 Q 380 344 379 342 Q 377 336 369 326 L 335 284 C 316 261 326 256 351 272 Z"></path>
      </clipPath>
      <path clip-path="url(#make-me-a-hanzi-clip-8)" d="M 192 350 L 203 341 L 234 336 L 341 365 L 380 371 L 401 368 L 414 353 L 411 345 L 364 295 L 343 286" fill="none" id="make-me-a-hanzi-animation-8" stroke-dasharray="465 930" stroke-linecap="round"></path>
    
      <clipPath id="make-me-a-hanzi-clip-9">
        <path d="M 357 230 L 361 250 L 361 256 Q 359 261 351 272 C 344 282 344 282 335 284 L 285 296 Q 282 297 280 297 Q 276 297 274 294 Q 273 293 273 291 Q 273 288 278 282 L 289 268 Q 298 256 307 246 Q 317 236 333 223 C 352 207 352 207 357 230 Z"></path>
      </clipPath>
      <path clip-path="url(#make-me-a-hanzi-clip-9)" d="M 280 291 L 327 260 L 348 237" fill="none" id="make-me-a-hanzi-animation-9" stroke-dasharray="215 430" stroke-linecap="round"></path>
    
      <clipPath id="make-me-a-hanzi-clip-10">
        <path d="M 333 200 L 392 211 Q 397 212 401 212 Q 411 212 415 207 Q 416 205 416 202 Q 416 194 409 178 L 395 151 Q 393 147 393 143 Q 393 140 395 138 Q 397 136 399 136 Q 404 136 411 141 L 435 158 Q 453 171 460 175 Q 467 180 482 184 Q 497 188 501 190 Q 505 192 507 197 Q 508 198 508 200 Q 508 205 504 211 Q 500 219 476 232 Q 453 246 445 249 Q 439 252 429 252 Q 423 252 405 244 Q 387 236 357 230 L 333 223 L 299 215 Q 293 214 244 204 Q 195 196 179 194 Q 163 192 139 190 L 115 188 Q 102 188 101 185 L 101 183 Q 101 180 103 174 Q 107 166 122 160 Q 135 155 146 155 L 150 155 Q 155 156 167 160 Q 180 164 195 168 Q 209 172 227 176 L 285 189 L 333 200 Z"></path>
      </clipPath>
      <path clip-path="url(#make-me-a-hanzi-clip-10)" d="M 109 184 L 122 175 L 157 174 L 406 228 L 431 227 L 449 207 L 400 143" fill="none" id="make-me-a-hanzi-animation-10" stroke-dasharray="566 1132" stroke-linecap="round"></path>
    
      <clipPath id="make-me-a-hanzi-clip-11">
        <path d="M 321 151 L 327 113 Q 327 108 325 51 Q 324 -5 323 -15 Q 321 -24 317 -45 Q 313 -65 309 -68 Q 306 -69 302 -69 Q 298 -69 293 -68 Q 283 -66 275 -62 L 257 -54 Q 252 -52 249 -52 Q 245 -52 243 -54 Q 241 -56 241 -57 Q 241 -60 245 -63 L 260 -81 Q 271 -95 275 -99 Q 279 -104 286 -115 Q 294 -127 299 -138 Q 304 -149 309 -151 Q 312 -153 316 -153 Q 320 -153 327 -150 Q 339 -145 347 -133 Q 355 -120 359 -100 Q 365 -80 367 -60 Q 369 -39 369 -13 L 364 156 Q 363 170 361 178 Q 357 185 350 190 Q 342 195 333 200 C 311 213 316 181 321 151 Z"></path>
      </clipPath>
      <path clip-path="url(#make-me-a-hanzi-clip-11)" d="M 335 193 L 344 170 L 347 117 L 347 -6 L 336 -78 L 320 -102 L 246 -58" fill="none" id="make-me-a-hanzi-animation-11" stroke-dasharray="517 1034" stroke-linecap="round"></path>
    
      <clipPath id="make-me-a-hanzi-clip-12">
        <path d="M 285 189 L 260 140 Q 244 107 215 68 Q 185 30 165 12 L 108 -39 L 86 -58 Q 80 -64 80 -68 Q 80 -70 81 -71 Q 82 -73 85 -73 Q 88 -73 93 -71 L 121 -58 Q 139 -50 176 -20 Q 213 9 240 38 Q 267 66 283 91 Q 300 116 321 151 C 358 211 316 250 285 189 Z"></path>
      </clipPath>
      <path clip-path="url(#make-me-a-hanzi-clip-12)" d="M 328 195 L 301 168 L 262 98 L 204 26 L 127 -40 L 85 -68" fill="none" id="make-me-a-hanzi-animation-12" stroke-dasharray="491 982" stroke-linecap="round"></path>
    
      <clipPath id="make-me-a-hanzi-clip-13">
        <path d="M 592 374 L 599 382 L 613 393 Q 617 396 619 400 Q 619 404 616 409 Q 613 414 604 419 Q 595 424 583 430 Q 574 435 567 435 Q 565 435 563 434 Q 559 434 557 432 Q 556 431 556 427 L 556 422 Q 556 414 552 403 Q 548 392 541 379 Q 533 366 523 352 Q 513 338 493 316 L 479 301 Q 475 297 475 294 Q 475 292 477 290 Q 478 288 481 288 Q 483 288 487 290 L 505 300 Q 515 305 531 318 L 570 348 L 592 374 Z"></path>
      </clipPath>
      <path clip-path="url(#make-me-a-hanzi-clip-13)" d="M 562 429 L 578 406 L 576 395 L 517 321 L 482 295" fill="none" id="make-me-a-hanzi-animation-13" stroke-dasharray="305 610" stroke-linecap="round"></path>
    
      <clipPath id="make-me-a-hanzi-clip-14">
        <path d="M 722 358 L 751 364 L 785 370 Q 793 372 803 376 Q 812 380 813 384 L 813 386 Q 813 391 807 396 Q 799 403 784 409 Q 769 414 762 414 Q 756 414 736 406 Q 717 397 674 389 Q 632 380 625 379 Q 617 378 592 374 C 562 369 541 355 570 348 L 587 344 Q 591 343 598 343 L 607 343 Q 622 343 638 345 Q 653 347 679 351 L 722 358 Z"></path>
      </clipPath>
      <path clip-path="url(#make-me-a-hanzi-clip-14)" d="M 575 351 L 762 390 L 804 385" fill="none" id="make-me-a-hanzi-animation-14" stroke-dasharray="361 722" stroke-linecap="round"></path>
    
      <clipPath id="make-me-a-hanzi-clip-15">
        <path d="M 606 182 L 626 198 Q 629 200 643 212 L 665 237 L 684 262 Q 692 272 702 288 L 715 309 Q 718 313 722 316 L 733 325 Q 735 328 735 332 Q 736 333 736 334 Q 736 338 732 342 Q 728 349 722 358 C 706 383 689 379 679 351 L 670 326 Q 664 308 652 290 Q 641 272 629 256 L 609 236 L 577 208 Q 559 192 523 168 Q 488 146 469 137 L 449 128 Q 441 125 441 121 L 441 119 Q 442 115 448 115 Q 450 115 453 116 L 473 120 Q 500 126 523 136 Q 547 146 559 153 L 588 169 L 606 182 Z"></path>
      </clipPath>
      <path clip-path="url(#make-me-a-hanzi-clip-15)" d="M 730 336 L 698 328 L 647 246 L 582 187 L 512 145 L 446 120" fill="none" id="make-me-a-hanzi-animation-15" stroke-dasharray="498 996" stroke-linecap="round"></path>
    
      <clipPath id="make-me-a-hanzi-clip-16">
        <path d="M 643 212 L 662 199 L 754 136 Q 775 122 788 119 Q 797 118 805 118 L 813 118 Q 827 118 849 121 Q 871 124 897 130 L 935 138 Q 947 142 949 147 Q 949 152 936 155 L 891 162 Q 845 169 819 175 Q 793 181 768 191 Q 743 200 715 214 Q 687 226 665 237 L 629 256 L 589 275 Q 577 280 565 282 Q 560 283 555 283 Q 548 283 541 281 Q 529 279 527 274 Q 526 271 526 269 Q 526 267 527 265 Q 529 262 539 262 Q 549 262 558 258 Q 567 256 579 250 Q 591 244 609 236 L 643 212 Z"></path>
      </clipPath>
      <path clip-path="url(#make-me-a-hanzi-clip-16)" d="M 534 269 L 559 271 L 604 254 L 795 149 L 900 145 L 942 150" fill="none" id="make-me-a-hanzi-animation-16" stroke-dasharray="567 1134" stroke-linecap="round"></path>
    
      <clipPath id="make-me-a-hanzi-clip-17">
        <path d="M 579 84 L 551 80 L 520 76 L 493 73 L 471 72 Q 461 70 460 68 L 460 67 Q 460 64 467 56 Q 475 46 489 41 Q 503 36 513 36 Q 518 36 532 41 Q 547 46 567 50 L 626 62 L 705 73 Q 711 74 717 74 Q 722 74 727 73 Q 738 71 743 66 Q 746 63 746 55 Q 746 45 742 28 Q 735 -6 729 -27 Q 723 -48 714 -66 Q 705 -85 699 -88 Q 693 -90 687 -90 Q 681 -89 653 -80 L 623 -70 Q 620 -69 618 -69 Q 614 -69 613 -72 Q 612 -73 612 -75 Q 612 -77 615 -80 L 637 -103 Q 637 -104 653 -123 Q 668 -142 674 -152 Q 680 -162 684 -163 Q 687 -165 691 -165 Q 699 -165 711 -158 Q 731 -148 745 -128 Q 759 -108 771 -60 L 785 -1 L 793 34 Q 796 44 801 54 Q 807 63 808 64 Q 810 69 810 73 L 810 76 Q 809 81 797 93 Q 785 104 769 111 Q 753 117 749 118 Q 744 118 729 112 Q 714 106 699 104 L 669 99 Q 657 97 637 92 L 579 84 Z"></path>
      </clipPath>
      <path clip-path="url(#make-me-a-hanzi-clip-17)" d="M 466 68 L 489 57 L 510 55 L 727 93 L 754 90 L 769 79 L 774 60 L 745 -63 L 716 -115 L 699 -124 L 691 -121 L 617 -75" fill="none" id="make-me-a-hanzi-animation-17" stroke-dasharray="761 1522" stroke-linecap="round"></path>
    
      <clipPath id="make-me-a-hanzi-clip-18">
        <path d="M 588 169 L 591 140 Q 591 134 588 121 L 583 100 Q 581 93 579 84 L 567 50 L 557 24 Q 549 2 525 -30 Q 500 -61 477 -80 Q 453 -100 439 -110 L 420 -126 Q 415 -129 415 -134 L 415 -135 Q 416 -137 420 -137 Q 423 -137 429 -135 L 449 -127 Q 459 -123 491 -102 Q 523 -81 548 -57 Q 573 -34 591 -3 Q 609 27 626 62 L 637 92 L 643 107 Q 648 120 655 128 Q 663 136 665 141 L 665 143 Q 665 147 654 157 Q 641 168 631 173 L 606 182 C 586 189 586 189 588 169 Z"></path>
      </clipPath>
      <path clip-path="url(#make-me-a-hanzi-clip-18)" d="M 599 163 L 624 140 L 605 78 L 564 -10 L 501 -78 L 418 -134" fill="none" id="make-me-a-hanzi-animation-18" stroke-dasharray="517 1034" stroke-linecap="round"></path>
    
  </g>
</svg>