<svg version="1.1" viewBox="0 0 1024 1024" xmlns="http://www.w3.org/2000/svg">
  <g stroke="lightgray" stroke-dasharray="1,1" stroke-width="1" transform="scale(4, 4)">
    <line x1="0" y1="0" x2="256" y2="256"></line>
    <line x1="256" y1="0" x2="0" y2="256"></line>
    <line x1="128" y1="0" x2="128" y2="256"></line>
    <line x1="0" y1="128" x2="256" y2="128"></line>
  </g>
  <g transform="scale(0.92, -0.92) translate(60, -830)">
    <style type="text/css">
      
        @keyframes keyframes0 {
          from {
            stroke: blue;
            stroke-dashoffset: 596;
            stroke-width: 128;
          }
          66% {
            animation-timing-function: step-end;
            stroke: blue;
            stroke-dashoffset: 0;
            stroke-width: 128;
          }
          to {
            stroke: black;
            stroke-width: 1024;
          }
        }
        #make-me-a-hanzi-animation-0 {
          animation: keyframes0 0.7350260416666666s both;
          animation-delay: 0s;
          animation-timing-function: linear;
        }
      
        @keyframes keyframes1 {
          from {
            stroke: blue;
            stroke-dashoffset: 496;
            stroke-width: 128;
          }
          62% {
            animation-timing-function: step-end;
            stroke: blue;
            stroke-dashoffset: 0;
            stroke-width: 128;
          }
          to {
            stroke: black;
            stroke-width: 1024;
          }
        }
        #make-me-a-hanzi-animation-1 {
          animation: keyframes1 0.6536458333333334s both;
          animation-delay: 0.7350260416666666s;
          animation-timing-function: linear;
        }
      
        @keyframes keyframes2 {
          from {
            stroke: blue;
            stroke-dashoffset: 507;
            stroke-width: 128;
          }
          62% {
            animation-timing-function: step-end;
            stroke: blue;
            stroke-dashoffset: 0;
            stroke-width: 128;
          }
          to {
            stroke: black;
            stroke-width: 1024;
          }
        }
        #make-me-a-hanzi-animation-2 {
          animation: keyframes2 0.66259765625s both;
          animation-delay: 1.388671875s;
          animation-timing-function: linear;
        }
      
        @keyframes keyframes3 {
          from {
            stroke: blue;
            stroke-dashoffset: 373;
            stroke-width: 128;
          }
          55% {
            animation-timing-function: step-end;
            stroke: blue;
            stroke-dashoffset: 0;
            stroke-width: 128;
          }
          to {
            stroke: black;
            stroke-width: 1024;
          }
        }
        #make-me-a-hanzi-animation-3 {
          animation: keyframes3 0.5535481770833334s both;
          animation-delay: 2.05126953125s;
          animation-timing-function: linear;
        }
      
        @keyframes keyframes4 {
          from {
            stroke: blue;
            stroke-dashoffset: 419;
            stroke-width: 128;
          }
          58% {
            animation-timing-function: step-end;
            stroke: blue;
            stroke-dashoffset: 0;
            stroke-width: 128;
          }
          to {
            stroke: black;
            stroke-width: 1024;
          }
        }
        #make-me-a-hanzi-animation-4 {
          animation: keyframes4 0.5909830729166666s both;
          animation-delay: 2.6048177083333335s;
          animation-timing-function: linear;
        }
      
        @keyframes keyframes5 {
          from {
            stroke: blue;
            stroke-dashoffset: 577;
            stroke-width: 128;
          }
          65% {
            animation-timing-function: step-end;
            stroke: blue;
            stroke-dashoffset: 0;
            stroke-width: 128;
          }
          to {
            stroke: black;
            stroke-width: 1024;
          }
        }
        #make-me-a-hanzi-animation-5 {
          animation: keyframes5 0.7195638020833334s both;
          animation-delay: 3.19580078125s;
          animation-timing-function: linear;
        }
      
        @keyframes keyframes6 {
          from {
            stroke: blue;
            stroke-dashoffset: 472;
            stroke-width: 128;
          }
          61% {
            animation-timing-function: step-end;
            stroke: blue;
            stroke-dashoffset: 0;
            stroke-width: 128;
          }
          to {
            stroke: black;
            stroke-width: 1024;
          }
        }
        #make-me-a-hanzi-animation-6 {
          animation: keyframes6 0.6341145833333334s both;
          animation-delay: 3.9153645833333335s;
          animation-timing-function: linear;
        }
      
        @keyframes keyframes7 {
          from {
            stroke: blue;
            stroke-dashoffset: 621;
            stroke-width: 128;
          }
          67% {
            animation-timing-function: step-end;
            stroke: blue;
            stroke-dashoffset: 0;
            stroke-width: 128;
          }
          to {
            stroke: black;
            stroke-width: 1024;
          }
        }
        #make-me-a-hanzi-animation-7 {
          animation: keyframes7 0.75537109375s both;
          animation-delay: 4.549479166666667s;
          animation-timing-function: linear;
        }
      
        @keyframes keyframes8 {
          from {
            stroke: blue;
            stroke-dashoffset: 787;
            stroke-width: 128;
          }
          72% {
            animation-timing-function: step-end;
            stroke: blue;
            stroke-dashoffset: 0;
            stroke-width: 128;
          }
          to {
            stroke: black;
            stroke-width: 1024;
          }
        }
        #make-me-a-hanzi-animation-8 {
          animation: keyframes8 0.8904622395833334s both;
          animation-delay: 5.304850260416667s;
          animation-timing-function: linear;
        }
      
        @keyframes keyframes9 {
          from {
            stroke: blue;
            stroke-dashoffset: 536;
            stroke-width: 128;
          }
          64% {
            animation-timing-function: step-end;
            stroke: blue;
            stroke-dashoffset: 0;
            stroke-width: 128;
          }
          to {
            stroke: black;
            stroke-width: 1024;
          }
        }
        #make-me-a-hanzi-animation-9 {
          animation: keyframes9 0.6861979166666666s both;
          animation-delay: 6.1953125s;
          animation-timing-function: linear;
        }
      
        @keyframes keyframes10 {
          from {
            stroke: blue;
            stroke-dashoffset: 833;
            stroke-width: 128;
          }
          73% {
            animation-timing-function: step-end;
            stroke: blue;
            stroke-dashoffset: 0;
            stroke-width: 128;
          }
          to {
            stroke: black;
            stroke-width: 1024;
          }
        }
        #make-me-a-hanzi-animation-10 {
          animation: keyframes10 0.9278971354166666s both;
          animation-delay: 6.881510416666667s;
          animation-timing-function: linear;
        }
      
        @keyframes keyframes11 {
          from {
            stroke: blue;
            stroke-dashoffset: 483;
            stroke-width: 128;
          }
          61% {
            animation-timing-function: step-end;
            stroke: blue;
            stroke-dashoffset: 0;
            stroke-width: 128;
          }
          to {
            stroke: black;
            stroke-width: 1024;
          }
        }
        #make-me-a-hanzi-animation-11 {
          animation: keyframes11 0.64306640625s both;
          animation-delay: 7.809407552083334s;
          animation-timing-function: linear;
        }
      
        @keyframes keyframes12 {
          from {
            stroke: blue;
            stroke-dashoffset: 369;
            stroke-width: 128;
          }
          55% {
            animation-timing-function: step-end;
            stroke: blue;
            stroke-dashoffset: 0;
            stroke-width: 128;
          }
          to {
            stroke: black;
            stroke-width: 1024;
          }
        }
        #make-me-a-hanzi-animation-12 {
          animation: keyframes12 0.55029296875s both;
          animation-delay: 8.452473958333334s;
          animation-timing-function: linear;
        }
      
        @keyframes keyframes13 {
          from {
            stroke: blue;
            stroke-dashoffset: 634;
            stroke-width: 128;
          }
          67% {
            animation-timing-function: step-end;
            stroke: blue;
            stroke-dashoffset: 0;
            stroke-width: 128;
          }
          to {
            stroke: black;
            stroke-width: 1024;
          }
        }
        #make-me-a-hanzi-animation-13 {
          animation: keyframes13 0.7659505208333334s both;
          animation-delay: 9.002766927083334s;
          animation-timing-function: linear;
        }
      
        @keyframes keyframes14 {
          from {
            stroke: blue;
            stroke-dashoffset: 844;
            stroke-width: 128;
          }
          73% {
            animation-timing-function: step-end;
            stroke: blue;
            stroke-dashoffset: 0;
            stroke-width: 128;
          }
          to {
            stroke: black;
            stroke-width: 1024;
          }
        }
        #make-me-a-hanzi-animation-14 {
          animation: keyframes14 0.9368489583333334s both;
          animation-delay: 9.768717447916668s;
          animation-timing-function: linear;
        }
      
    </style>
    
      <path d="M 353 558 Q 387 565 419 569 Q 426 568 434 579 Q 435 588 416 596 Q 395 611 368 603 Q 364 602 363 601 L 310 586 Q 268 577 220 563 L 179 556 Q 163 556 95 543 Q 71 539 90 526 Q 117 508 143 514 Q 162 520 186 523 L 223 532 Q 260 542 306 550 L 353 558 Z" fill="lightgray"></path>
    
      <path d="M 220 563 L 220 573 Q 219 603 220 616 Q 224 632 213 639 Q 200 646 178 653 Q 160 657 145 648 Q 138 641 150 630 Q 166 614 179 556 L 186 523 Q 190 508 198 450 Q 202 429 210 416 Q 217 409 222 414 Q 225 418 227 427 L 228 450 Q 228 462 223 532 L 220 563 Z" fill="lightgray"></path>
    
      <path d="M 332 470 Q 342 516 353 558 L 363 601 Q 363 614 386 670 Q 390 679 375 694 Q 348 713 328 720 Q 315 724 308 718 Q 301 714 306 699 Q 318 672 310 586 L 306 550 Q 302 513 296 471 C 292 441 326 441 332 470 Z" fill="lightgray"></path>
    
      <path d="M 264 432 Q 292 439 344 445 Q 351 446 353 453 Q 353 459 332 470 L 296 471 L 295 471 L 228 450 C 199 441 199 436 227 427 L 233 425 C 234 425 235 425 264 432 Z" fill="lightgray"></path>
    
      <path d="M 159 348 Q 150 352 127 356 Q 117 357 114 354 Q 110 348 117 335 Q 136 298 151 233 Q 155 214 166 201 Q 182 183 186 197 Q 187 204 188 214 L 185 239 Q 175 303 174 324 C 173 343 173 343 159 348 Z" fill="lightgray"></path>
    
      <path d="M 412 333 Q 416 343 425 346 Q 437 361 425 374 Q 412 384 372 401 Q 359 407 342 400 Q 315 388 290 379 L 245 366 Q 202 356 159 348 C 130 342 145 317 174 324 Q 181 325 192 329 Q 219 336 246 341 L 288 351 Q 345 364 352 358 Q 359 352 358 340 Q 354 306 346 277 C 338 248 375 248 385 276 Q 397 313 407 325 Q 407 326 408 327 L 412 333 Z" fill="lightgray"></path>
    
      <path d="M 188 214 Q 191 214 246 224 L 285 231 Q 331 240 399 248 Q 406 249 408 256 Q 408 262 385 276 C 373 283 373 283 346 277 Q 315 270 286 261 L 247 251 Q 214 245 185 239 C 156 233 158 210 188 214 Z" fill="lightgray"></path>
    
      <path d="M 244 154 Q 129 124 59 115 Q 47 114 45 106 Q 42 96 56 87 Q 89 66 146 84 Q 198 105 242 115 L 285 127 Q 340 142 407 153 Q 422 156 422 163 Q 423 175 406 182 Q 379 194 285 165 L 244 154 Z" fill="lightgray"></path>
    
      <path d="M 290 379 Q 291 389 293 398 Q 294 408 289 414 Q 276 424 264 432 C 239 449 222 453 233 425 Q 243 407 245 366 L 246 341 Q 247 302 247 251 L 246 224 Q 246 182 244 154 L 242 115 Q 236 16 228 -7 Q 219 -38 250 -86 Q 260 -102 267 -106 Q 277 -107 282 -95 Q 292 -67 290 -40 Q 287 48 285 127 L 285 165 L 285 231 L 286 261 Q 286 315 288 351 L 290 379 Z" fill="lightgray"></path>
    
      <path d="M 735 357 L 881 381 Q 882 384 885 387 Q 886 397 864 408 Q 837 429 748 402 Q 744 402 739 400 Q 736 400 737 399 C 717 392 717 392 695 391 Q 665 390 604 379 Q 576 375 598 359 Q 631 338 667 345 Q 677 348 693 349 L 735 357 Z" fill="lightgray"></path>
    
      <path d="M 727 278 Q 731 314 735 357 L 737 399 Q 741 537 758 583 Q 764 596 754 605 Q 735 621 698 630 Q 676 636 668 629 Q 661 623 667 612 Q 689 581 692 538 Q 696 463 695 391 L 693 349 Q 693 210 600 123 Q 585 119 584 106 Q 585 102 596 103 Q 605 102 626 112 Q 699 148 722 249 Q 722 252 723 254 L 727 278 Z" fill="lightgray"></path>
    
      <path d="M 723 254 Q 722 254 723 253 Q 774 192 833 104 Q 843 86 855 81 Q 862 80 869 86 Q 881 95 876 131 Q 872 182 728 278 L 727 278 C 701 293 706 279 723 254 Z" fill="lightgray"></path>
    
      <path d="M 484 530 Q 535 479 548 478 Q 557 478 561 489 Q 565 501 559 525 Q 553 549 482 569 Q 469 573 464 571 Q 460 567 461 557 Q 462 547 484 530 Z" fill="lightgray"></path>
    
      <path d="M 524 90 Q 540 100 547 117 Q 559 151 522 209 Q 498 258 560 328 Q 576 344 561 356 Q 545 368 516 379 Q 498 389 483 374 Q 443 335 416 334 Q 412 334 412 333 C 401 331 401 331 408 327 Q 421 314 455 320 Q 465 323 478 330 Q 485 334 492 326 Q 508 310 493 287 Q 459 254 483 208 Q 514 151 513 124 Q 512 106 507 96 Q 506 96 506 95 C 495 67 500 72 524 90 Z" fill="lightgray"></path>
    
      <path d="M 506 95 Q 484 99 458 97 Q 436 93 416 98 Q 401 101 399 94 Q 395 84 408 73 Q 424 55 475 64 Q 511 68 536 54 L 764 -60 Q 797 -79 843 -60 L 959 -14 Q 978 -7 978 2 Q 978 11 930 10 Q 762 10 712 26 L 524 90 L 506 95 Z" fill="lightgray"></path>
    
    
      <clipPath id="make-me-a-hanzi-clip-0">
        <path d="M 353 558 Q 387 565 419 569 Q 426 568 434 579 Q 435 588 416 596 Q 395 611 368 603 Q 364 602 363 601 L 310 586 Q 268 577 220 563 L 179 556 Q 163 556 95 543 Q 71 539 90 526 Q 117 508 143 514 Q 162 520 186 523 L 223 532 Q 260 542 306 550 L 353 558 Z"></path>
      </clipPath>
      <path clip-path="url(#make-me-a-hanzi-clip-0)" d="M 91 535 L 115 530 L 176 538 L 378 584 L 425 580" fill="none" id="make-me-a-hanzi-animation-0" stroke-dasharray="468 936" stroke-linecap="round"></path>
    
      <clipPath id="make-me-a-hanzi-clip-1">
        <path d="M 220 563 L 220 573 Q 219 603 220 616 Q 224 632 213 639 Q 200 646 178 653 Q 160 657 145 648 Q 138 641 150 630 Q 166 614 179 556 L 186 523 Q 190 508 198 450 Q 202 429 210 416 Q 217 409 222 414 Q 225 418 227 427 L 228 450 Q 228 462 223 532 L 220 563 Z"></path>
      </clipPath>
      <path clip-path="url(#make-me-a-hanzi-clip-1)" d="M 154 641 L 191 617 L 217 423" fill="none" id="make-me-a-hanzi-animation-1" stroke-dasharray="368 736" stroke-linecap="round"></path>
    
      <clipPath id="make-me-a-hanzi-clip-2">
        <path d="M 332 470 Q 342 516 353 558 L 363 601 Q 363 614 386 670 Q 390 679 375 694 Q 348 713 328 720 Q 315 724 308 718 Q 301 714 306 699 Q 318 672 310 586 L 306 550 Q 302 513 296 471 C 292 441 326 441 332 470 Z"></path>
      </clipPath>
      <path clip-path="url(#make-me-a-hanzi-clip-2)" d="M 317 708 L 348 670 L 319 497 L 317 489 L 302 479" fill="none" id="make-me-a-hanzi-animation-2" stroke-dasharray="379 758" stroke-linecap="round"></path>
    
      <clipPath id="make-me-a-hanzi-clip-3">
        <path d="M 264 432 Q 292 439 344 445 Q 351 446 353 453 Q 353 459 332 470 L 296 471 L 295 471 L 228 450 C 199 441 199 436 227 427 L 233 425 C 234 425 235 425 264 432 Z"></path>
      </clipPath>
      <path clip-path="url(#make-me-a-hanzi-clip-3)" d="M 232 433 L 293 455 L 345 453" fill="none" id="make-me-a-hanzi-animation-3" stroke-dasharray="245 490" stroke-linecap="round"></path>
    
      <clipPath id="make-me-a-hanzi-clip-4">
        <path d="M 159 348 Q 150 352 127 356 Q 117 357 114 354 Q 110 348 117 335 Q 136 298 151 233 Q 155 214 166 201 Q 182 183 186 197 Q 187 204 188 214 L 185 239 Q 175 303 174 324 C 173 343 173 343 159 348 Z"></path>
      </clipPath>
      <path clip-path="url(#make-me-a-hanzi-clip-4)" d="M 121 349 L 151 318 L 176 201" fill="none" id="make-me-a-hanzi-animation-4" stroke-dasharray="291 582" stroke-linecap="round"></path>
    
      <clipPath id="make-me-a-hanzi-clip-5">
        <path d="M 412 333 Q 416 343 425 346 Q 437 361 425 374 Q 412 384 372 401 Q 359 407 342 400 Q 315 388 290 379 L 245 366 Q 202 356 159 348 C 130 342 145 317 174 324 Q 181 325 192 329 Q 219 336 246 341 L 288 351 Q 345 364 352 358 Q 359 352 358 340 Q 354 306 346 277 C 338 248 375 248 385 276 Q 397 313 407 325 Q 407 326 408 327 L 412 333 Z"></path>
      </clipPath>
      <path clip-path="url(#make-me-a-hanzi-clip-5)" d="M 167 345 L 183 340 L 361 380 L 385 363 L 388 354 L 371 296 L 353 282" fill="none" id="make-me-a-hanzi-animation-5" stroke-dasharray="449 898" stroke-linecap="round"></path>
    
      <clipPath id="make-me-a-hanzi-clip-6">
        <path d="M 188 214 Q 191 214 246 224 L 285 231 Q 331 240 399 248 Q 406 249 408 256 Q 408 262 385 276 C 373 283 373 283 346 277 Q 315 270 286 261 L 247 251 Q 214 245 185 239 C 156 233 158 210 188 214 Z"></path>
      </clipPath>
      <path clip-path="url(#make-me-a-hanzi-clip-6)" d="M 190 221 L 199 229 L 352 260 L 400 256" fill="none" id="make-me-a-hanzi-animation-6" stroke-dasharray="344 688" stroke-linecap="round"></path>
    
      <clipPath id="make-me-a-hanzi-clip-7">
        <path d="M 244 154 Q 129 124 59 115 Q 47 114 45 106 Q 42 96 56 87 Q 89 66 146 84 Q 198 105 242 115 L 285 127 Q 340 142 407 153 Q 422 156 422 163 Q 423 175 406 182 Q 379 194 285 165 L 244 154 Z"></path>
      </clipPath>
      <path clip-path="url(#make-me-a-hanzi-clip-7)" d="M 56 103 L 90 97 L 116 100 L 322 157 L 391 168 L 411 165" fill="none" id="make-me-a-hanzi-animation-7" stroke-dasharray="493 986" stroke-linecap="round"></path>
    
      <clipPath id="make-me-a-hanzi-clip-8">
        <path d="M 290 379 Q 291 389 293 398 Q 294 408 289 414 Q 276 424 264 432 C 239 449 222 453 233 425 Q 243 407 245 366 L 246 341 Q 247 302 247 251 L 246 224 Q 246 182 244 154 L 242 115 Q 236 16 228 -7 Q 219 -38 250 -86 Q 260 -102 267 -106 Q 277 -107 282 -95 Q 292 -67 290 -40 Q 287 48 285 127 L 285 165 L 285 231 L 286 261 Q 286 315 288 351 L 290 379 Z"></path>
      </clipPath>
      <path clip-path="url(#make-me-a-hanzi-clip-8)" d="M 242 423 L 260 411 L 267 397 L 258 -23 L 269 -96" fill="none" id="make-me-a-hanzi-animation-8" stroke-dasharray="659 1318" stroke-linecap="round"></path>
    
      <clipPath id="make-me-a-hanzi-clip-9">
        <path d="M 735 357 L 881 381 Q 882 384 885 387 Q 886 397 864 408 Q 837 429 748 402 Q 744 402 739 400 Q 736 400 737 399 C 717 392 717 392 695 391 Q 665 390 604 379 Q 576 375 598 359 Q 631 338 667 345 Q 677 348 693 349 L 735 357 Z"></path>
      </clipPath>
      <path clip-path="url(#make-me-a-hanzi-clip-9)" d="M 599 370 L 657 365 L 838 396 L 876 389" fill="none" id="make-me-a-hanzi-animation-9" stroke-dasharray="408 816" stroke-linecap="round"></path>
    
      <clipPath id="make-me-a-hanzi-clip-10">
        <path d="M 727 278 Q 731 314 735 357 L 737 399 Q 741 537 758 583 Q 764 596 754 605 Q 735 621 698 630 Q 676 636 668 629 Q 661 623 667 612 Q 689 581 692 538 Q 696 463 695 391 L 693 349 Q 693 210 600 123 Q 585 119 584 106 Q 585 102 596 103 Q 605 102 626 112 Q 699 148 722 249 Q 722 252 723 254 L 727 278 Z"></path>
      </clipPath>
      <path clip-path="url(#make-me-a-hanzi-clip-10)" d="M 677 620 L 712 594 L 721 579 L 716 379 L 701 245 L 684 200 L 646 145 L 613 118 L 591 109" fill="none" id="make-me-a-hanzi-animation-10" stroke-dasharray="705 1410" stroke-linecap="round"></path>
    
      <clipPath id="make-me-a-hanzi-clip-11">
        <path d="M 723 254 Q 722 254 723 253 Q 774 192 833 104 Q 843 86 855 81 Q 862 80 869 86 Q 881 95 876 131 Q 872 182 728 278 L 727 278 C 701 293 706 279 723 254 Z"></path>
      </clipPath>
      <path clip-path="url(#make-me-a-hanzi-clip-11)" d="M 728 272 L 737 269 L 737 256 L 830 160 L 854 119 L 857 96" fill="none" id="make-me-a-hanzi-animation-11" stroke-dasharray="355 710" stroke-linecap="round"></path>
    
      <clipPath id="make-me-a-hanzi-clip-12">
        <path d="M 484 530 Q 535 479 548 478 Q 557 478 561 489 Q 565 501 559 525 Q 553 549 482 569 Q 469 573 464 571 Q 460 567 461 557 Q 462 547 484 530 Z"></path>
      </clipPath>
      <path clip-path="url(#make-me-a-hanzi-clip-12)" d="M 468 563 L 534 518 L 549 489" fill="none" id="make-me-a-hanzi-animation-12" stroke-dasharray="241 482" stroke-linecap="round"></path>
    
      <clipPath id="make-me-a-hanzi-clip-13">
        <path d="M 524 90 Q 540 100 547 117 Q 559 151 522 209 Q 498 258 560 328 Q 576 344 561 356 Q 545 368 516 379 Q 498 389 483 374 Q 443 335 416 334 Q 412 334 412 333 C 401 331 401 331 408 327 Q 421 314 455 320 Q 465 323 478 330 Q 485 334 492 326 Q 508 310 493 287 Q 459 254 483 208 Q 514 151 513 124 Q 512 106 507 96 Q 506 96 506 95 C 495 67 500 72 524 90 Z"></path>
      </clipPath>
      <path clip-path="url(#make-me-a-hanzi-clip-13)" d="M 415 327 L 444 328 L 469 344 L 503 353 L 525 338 L 516 294 L 494 248 L 497 224 L 532 136 L 522 103 L 514 100" fill="none" id="make-me-a-hanzi-animation-13" stroke-dasharray="506 1012" stroke-linecap="round"></path>
    
      <clipPath id="make-me-a-hanzi-clip-14">
        <path d="M 506 95 Q 484 99 458 97 Q 436 93 416 98 Q 401 101 399 94 Q 395 84 408 73 Q 424 55 475 64 Q 511 68 536 54 L 764 -60 Q 797 -79 843 -60 L 959 -14 Q 978 -7 978 2 Q 978 11 930 10 Q 762 10 712 26 L 524 90 L 506 95 Z"></path>
      </clipPath>
      <path clip-path="url(#make-me-a-hanzi-clip-14)" d="M 408 89 L 427 79 L 488 81 L 527 75 L 712 -4 L 793 -28 L 971 0" fill="none" id="make-me-a-hanzi-animation-14" stroke-dasharray="716 1432" stroke-linecap="round"></path>
    
  </g>
</svg>