<svg xmlns="http://www.w3.org/2000/svg" version="1.1" viewBox="0 0 1024 1024">
  <g stroke="lightgray" stroke-dasharray="1,1" stroke-width="1" transform="scale(4, 4)">
    <line x1="0" y1="0" x2="256" y2="256" />
    <line x1="256" y1="0" x2="0" y2="256" />
    <line x1="128" y1="0" x2="128" y2="256" />
    <line x1="0" y1="128" x2="256" y2="128" />
  </g>
  <g transform="scale(1.0, -1.0) translate(0.0, -797.00)">
    <style type="text/css">
      
        @keyframes keyframes0 {
          from {
            stroke: blue;
            stroke-dashoffset: 618;
            stroke-width: 128;
          }
          67% {
            animation-timing-function: step-end;
            stroke: blue;
            stroke-dashoffset: 0;
            stroke-width: 128;
          }
          to {
            stroke: black;
            stroke-width: 1024;
          }
        }
        #make-me-a-hanzi-animation-0 {
          animation: keyframes0 0.7529296875s both;
          animation-delay: 0s;
          animation-timing-function: linear;
        }
      
        @keyframes keyframes1 {
          from {
            stroke: blue;
            stroke-dashoffset: 529;
            stroke-width: 128;
          }
          63% {
            animation-timing-function: step-end;
            stroke: blue;
            stroke-dashoffset: 0;
            stroke-width: 128;
          }
          to {
            stroke: black;
            stroke-width: 1024;
          }
        }
        #make-me-a-hanzi-animation-1 {
          animation: keyframes1 0.6805013020833334s both;
          animation-delay: 0.7529296875s;
          animation-timing-function: linear;
        }
      
        @keyframes keyframes2 {
          from {
            stroke: blue;
            stroke-dashoffset: 515;
            stroke-width: 128;
          }
          63% {
            animation-timing-function: step-end;
            stroke: blue;
            stroke-dashoffset: 0;
            stroke-width: 128;
          }
          to {
            stroke: black;
            stroke-width: 1024;
          }
        }
        #make-me-a-hanzi-animation-2 {
          animation: keyframes2 0.6691080729166666s both;
          animation-delay: 1.4334309895833335s;
          animation-timing-function: linear;
        }
      
        @keyframes keyframes3 {
          from {
            stroke: blue;
            stroke-dashoffset: 367;
            stroke-width: 128;
          }
          54% {
            animation-timing-function: step-end;
            stroke: blue;
            stroke-dashoffset: 0;
            stroke-width: 128;
          }
          to {
            stroke: black;
            stroke-width: 1024;
          }
        }
        #make-me-a-hanzi-animation-3 {
          animation: keyframes3 0.5486653645833334s both;
          animation-delay: 2.1025390625s;
          animation-timing-function: linear;
        }
      
        @keyframes keyframes4 {
          from {
            stroke: blue;
            stroke-dashoffset: 421;
            stroke-width: 128;
          }
          58% {
            animation-timing-function: step-end;
            stroke: blue;
            stroke-dashoffset: 0;
            stroke-width: 128;
          }
          to {
            stroke: black;
            stroke-width: 1024;
          }
        }
        #make-me-a-hanzi-animation-4 {
          animation: keyframes4 0.5926106770833334s both;
          animation-delay: 2.6512044270833335s;
          animation-timing-function: linear;
        }
      
        @keyframes keyframes5 {
          from {
            stroke: blue;
            stroke-dashoffset: 555;
            stroke-width: 128;
          }
          64% {
            animation-timing-function: step-end;
            stroke: blue;
            stroke-dashoffset: 0;
            stroke-width: 128;
          }
          to {
            stroke: black;
            stroke-width: 1024;
          }
        }
        #make-me-a-hanzi-animation-5 {
          animation: keyframes5 0.70166015625s both;
          animation-delay: 3.243815104166667s;
          animation-timing-function: linear;
        }
      
        @keyframes keyframes6 {
          from {
            stroke: blue;
            stroke-dashoffset: 439;
            stroke-width: 128;
          }
          59% {
            animation-timing-function: step-end;
            stroke: blue;
            stroke-dashoffset: 0;
            stroke-width: 128;
          }
          to {
            stroke: black;
            stroke-width: 1024;
          }
        }
        #make-me-a-hanzi-animation-6 {
          animation: keyframes6 0.6072591145833334s both;
          animation-delay: 3.945475260416667s;
          animation-timing-function: linear;
        }
      
        @keyframes keyframes7 {
          from {
            stroke: blue;
            stroke-dashoffset: 621;
            stroke-width: 128;
          }
          67% {
            animation-timing-function: step-end;
            stroke: blue;
            stroke-dashoffset: 0;
            stroke-width: 128;
          }
          to {
            stroke: black;
            stroke-width: 1024;
          }
        }
        #make-me-a-hanzi-animation-7 {
          animation: keyframes7 0.75537109375s both;
          animation-delay: 4.552734375s;
          animation-timing-function: linear;
        }
      
        @keyframes keyframes8 {
          from {
            stroke: blue;
            stroke-dashoffset: 817;
            stroke-width: 128;
          }
          73% {
            animation-timing-function: step-end;
            stroke: blue;
            stroke-dashoffset: 0;
            stroke-width: 128;
          }
          to {
            stroke: black;
            stroke-width: 1024;
          }
        }
        #make-me-a-hanzi-animation-8 {
          animation: keyframes8 0.9148763020833334s both;
          animation-delay: 5.30810546875s;
          animation-timing-function: linear;
        }
      
        @keyframes keyframes9 {
          from {
            stroke: blue;
            stroke-dashoffset: 541;
            stroke-width: 128;
          }
          64% {
            animation-timing-function: step-end;
            stroke: blue;
            stroke-dashoffset: 0;
            stroke-width: 128;
          }
          to {
            stroke: black;
            stroke-width: 1024;
          }
        }
        #make-me-a-hanzi-animation-9 {
          animation: keyframes9 0.6902669270833334s both;
          animation-delay: 6.222981770833333s;
          animation-timing-function: linear;
        }
      
        @keyframes keyframes10 {
          from {
            stroke: blue;
            stroke-dashoffset: 426;
            stroke-width: 128;
          }
          58% {
            animation-timing-function: step-end;
            stroke: blue;
            stroke-dashoffset: 0;
            stroke-width: 128;
          }
          to {
            stroke: black;
            stroke-width: 1024;
          }
        }
        #make-me-a-hanzi-animation-10 {
          animation: keyframes10 0.5966796875s both;
          animation-delay: 6.913248697916666s;
          animation-timing-function: linear;
        }
      
        @keyframes keyframes11 {
          from {
            stroke: blue;
            stroke-dashoffset: 688;
            stroke-width: 128;
          }
          69% {
            animation-timing-function: step-end;
            stroke: blue;
            stroke-dashoffset: 0;
            stroke-width: 128;
          }
          to {
            stroke: black;
            stroke-width: 1024;
          }
        }
        #make-me-a-hanzi-animation-11 {
          animation: keyframes11 0.8098958333333334s both;
          animation-delay: 7.509928385416666s;
          animation-timing-function: linear;
        }
      
        @keyframes keyframes12 {
          from {
            stroke: blue;
            stroke-dashoffset: 438;
            stroke-width: 128;
          }
          59% {
            animation-timing-function: step-end;
            stroke: blue;
            stroke-dashoffset: 0;
            stroke-width: 128;
          }
          to {
            stroke: black;
            stroke-width: 1024;
          }
        }
        #make-me-a-hanzi-animation-12 {
          animation: keyframes12 0.6064453125s both;
          animation-delay: 8.31982421875s;
          animation-timing-function: linear;
        }
      
        @keyframes keyframes13 {
          from {
            stroke: blue;
            stroke-dashoffset: 431;
            stroke-width: 128;
          }
          58% {
            animation-timing-function: step-end;
            stroke: blue;
            stroke-dashoffset: 0;
            stroke-width: 128;
          }
          to {
            stroke: black;
            stroke-width: 1024;
          }
        }
        #make-me-a-hanzi-animation-13 {
          animation: keyframes13 0.6007486979166666s both;
          animation-delay: 8.92626953125s;
          animation-timing-function: linear;
        }
      
        @keyframes keyframes14 {
          from {
            stroke: blue;
            stroke-dashoffset: 461;
            stroke-width: 128;
          }
          60% {
            animation-timing-function: step-end;
            stroke: blue;
            stroke-dashoffset: 0;
            stroke-width: 128;
          }
          to {
            stroke: black;
            stroke-width: 1024;
          }
        }
        #make-me-a-hanzi-animation-14 {
          animation: keyframes14 0.6251627604166666s both;
          animation-delay: 9.527018229166666s;
          animation-timing-function: linear;
        }
      
        @keyframes keyframes15 {
          from {
            stroke: blue;
            stroke-dashoffset: 632;
            stroke-width: 128;
          }
          67% {
            animation-timing-function: step-end;
            stroke: blue;
            stroke-dashoffset: 0;
            stroke-width: 128;
          }
          to {
            stroke: black;
            stroke-width: 1024;
          }
        }
        #make-me-a-hanzi-animation-15 {
          animation: keyframes15 0.7643229166666666s both;
          animation-delay: 10.152180989583332s;
          animation-timing-function: linear;
        }
      
        @keyframes keyframes16 {
          from {
            stroke: blue;
            stroke-dashoffset: 578;
            stroke-width: 128;
          }
          65% {
            animation-timing-function: step-end;
            stroke: blue;
            stroke-dashoffset: 0;
            stroke-width: 128;
          }
          to {
            stroke: black;
            stroke-width: 1024;
          }
        }
        #make-me-a-hanzi-animation-16 {
          animation: keyframes16 0.7203776041666666s both;
          animation-delay: 10.916503906249998s;
          animation-timing-function: linear;
        }
      
        @keyframes keyframes17 {
          from {
            stroke: blue;
            stroke-dashoffset: 500;
            stroke-width: 128;
          }
          62% {
            animation-timing-function: step-end;
            stroke: blue;
            stroke-dashoffset: 0;
            stroke-width: 128;
          }
          to {
            stroke: black;
            stroke-width: 1024;
          }
        }
        #make-me-a-hanzi-animation-17 {
          animation: keyframes17 0.6569010416666666s both;
          animation-delay: 11.636881510416664s;
          animation-timing-function: linear;
        }
      
        @keyframes keyframes18 {
          from {
            stroke: blue;
            stroke-dashoffset: 532;
            stroke-width: 128;
          }
          63% {
            animation-timing-function: step-end;
            stroke: blue;
            stroke-dashoffset: 0;
            stroke-width: 128;
          }
          to {
            stroke: black;
            stroke-width: 1024;
          }
        }
        #make-me-a-hanzi-animation-18 {
          animation: keyframes18 0.6829427083333334s both;
          animation-delay: 12.29378255208333s;
          animation-timing-function: linear;
        }
      
        @keyframes keyframes19 {
          from {
            stroke: blue;
            stroke-dashoffset: 714;
            stroke-width: 128;
          }
          70% {
            animation-timing-function: step-end;
            stroke: blue;
            stroke-dashoffset: 0;
            stroke-width: 128;
          }
          to {
            stroke: black;
            stroke-width: 1024;
          }
        }
        #make-me-a-hanzi-animation-19 {
          animation: keyframes19 0.8310546875s both;
          animation-delay: 12.976725260416664s;
          animation-timing-function: linear;
        }
      
        @keyframes keyframes20 {
          from {
            stroke: blue;
            stroke-dashoffset: 355;
            stroke-width: 128;
          }
          54% {
            animation-timing-function: step-end;
            stroke: blue;
            stroke-dashoffset: 0;
            stroke-width: 128;
          }
          to {
            stroke: black;
            stroke-width: 1024;
          }
        }
        #make-me-a-hanzi-animation-20 {
          animation: keyframes20 0.5388997395833334s both;
          animation-delay: 13.807779947916664s;
          animation-timing-function: linear;
        }
      
        @keyframes keyframes21 {
          from {
            stroke: blue;
            stroke-dashoffset: 462;
            stroke-width: 128;
          }
          60% {
            animation-timing-function: step-end;
            stroke: blue;
            stroke-dashoffset: 0;
            stroke-width: 128;
          }
          to {
            stroke: black;
            stroke-width: 1024;
          }
        }
        #make-me-a-hanzi-animation-21 {
          animation: keyframes21 0.6259765625s both;
          animation-delay: 14.346679687499998s;
          animation-timing-function: linear;
        }
      
        @keyframes keyframes22 {
          from {
            stroke: blue;
            stroke-dashoffset: 387;
            stroke-width: 128;
          }
          56% {
            animation-timing-function: step-end;
            stroke: blue;
            stroke-dashoffset: 0;
            stroke-width: 128;
          }
          to {
            stroke: black;
            stroke-width: 1024;
          }
        }
        #make-me-a-hanzi-animation-22 {
          animation: keyframes22 0.56494140625s both;
          animation-delay: 14.972656249999998s;
          animation-timing-function: linear;
        }
      
        @keyframes keyframes23 {
          from {
            stroke: blue;
            stroke-dashoffset: 936;
            stroke-width: 128;
          }
          75% {
            animation-timing-function: step-end;
            stroke: blue;
            stroke-dashoffset: 0;
            stroke-width: 128;
          }
          to {
            stroke: black;
            stroke-width: 1024;
          }
        }
        #make-me-a-hanzi-animation-23 {
          animation: keyframes23 1.01171875s both;
          animation-delay: 15.537597656249998s;
          animation-timing-function: linear;
        }
      
    </style>
    
      <path d="M 346 538 L 364 539 Q 366 539 374 540 L 406 540 Q 425 541 434 546 Q 441 550 441 553 L 441 554 Q 440 558 434 562 L 416 573 Q 403 580 393 584 Q 386 586 379 586 L 375 586 Q 368 586 355 582 L 304 572 L 275 567 L 220 558 L 172 550 L 142 544 Q 131 542 102 538 L 85 536 Q 75 535 73 534 Q 70 532 70 529 L 70 527 Q 70 524 72 522 Q 76 518 90 514 L 114 504 Q 119 501 125 501 Q 127 501 130 502 Q 132 502 138 503 Q 142 505 160 510 L 176 514 L 221 522 L 278 531 L 288 532 Q 291 532 300 534 L 346 538 Z" fill="lightgray" />
    
      <path d="M 220 558 L 218 602 L 220 639 Q 218 645 213 648 Q 209 651 197 655 Q 184 659 184 660 L 164 663 Q 155 664 152 664 Q 142 663 140 658 L 140 656 Q 140 651 145 644 L 152 633 Q 156 627 160 619 Q 163 612 166 601 Q 168 590 169 583 L 172 550 L 176 514 L 186 432 Q 187 416 194 404 Q 201 394 208 394 L 210 394 Q 218 396 220 406 L 224 420 L 224 450 L 221 522 L 220 558 Z" fill="lightgray" />
    
      <path d="M 330 453 L 346 538 L 355 582 L 360 608 Q 362 622 364 627 L 370 642 Q 374 653 379 659 Q 383 666 384 668 Q 384 672 377 680 Q 371 688 353 697 Q 334 706 328 708 Q 322 710 313 711 Q 304 711 302 708 Q 299 706 299 702 L 299 700 Q 299 696 303 688 Q 307 678 308 669 Q 310 660 310 648 L 310 626 L 304 572 L 300 534 L 292 458 C 289 428 324 424 330 453 Z" fill="lightgray" />
    
      <path d="M 267 424 L 309 426 Q 333 428 338 430 Q 344 431 345 436 L 345 437 Q 345 441 339 446 L 330 453 C 319 461 319 461 292 458 L 224 450 C 194 446 195 412 224 420 L 226 421 L 267 424 Z" fill="lightgray" />
    
      <path d="M 151 340 L 131 344 Q 121 346 118 346 Q 112 346 110 344 Q 109 343 109 341 L 109 338 Q 109 334 114 327 Q 120 320 123 315 Q 126 310 129 304 Q 132 297 134 286 L 144 222 Q 146 204 153 192 Q 158 182 166 182 L 168 182 Q 178 184 180 197 L 182 210 L 181 240 L 172 316 C 170 336 170 336 151 340 Z" fill="lightgray" />
    
      <path d="M 358 245 L 388 296 Q 394 308 398 313 Q 401 317 407 324 Q 414 330 414 333 Q 414 337 406 344 Q 399 351 392 356 Q 386 360 373 367 Q 363 372 357 372 L 354 372 L 342 368 Q 340 367 325 364 L 308 361 L 286 358 L 242 352 L 151 340 C 121 336 142 313 172 316 L 242 324 L 285 329 L 314 332 Q 319 333 323 333 Q 333 333 335 329 Q 337 327 337 322 Q 337 320 336 316 L 324 258 C 318 229 343 219 358 245 Z" fill="lightgray" />
    
      <path d="M 282 218 L 342 223 Q 360 224 364 226 Q 369 228 370 232 Q 371 233 371 235 Q 371 237 368 239 L 358 245 C 334 259 334 259 324 258 L 282 252 L 242 247 L 181 240 C 151 237 152 208 182 210 L 242 215 L 282 218 Z" fill="lightgray" />
    
      <path d="M 238 141 L 193 133 L 148 124 Q 104 116 74 114 L 48 111 Q 41 110 36 108 Q 31 107 30 104 L 30 103 Q 30 100 33 95 Q 37 88 51 83 Q 65 77 77 74 Q 89 70 96 70 Q 100 70 109 74 L 137 82 Q 154 86 158 88 L 212 97 L 236 101 L 278 108 L 302 110 Q 329 113 349 113 L 359 113 Q 382 113 394 118 Q 405 123 405 128 L 405 129 Q 405 134 397 140 Q 389 146 379 151 Q 369 156 360 159 Q 350 162 342 162 Q 336 161 320 157 Q 305 153 280 149 L 238 141 Z" fill="lightgray" />
    
      <path d="M 280 149 L 282 218 L 282 252 L 285 329 L 286 358 L 287 370 Q 288 384 290 392 Q 292 398 292 402 L 292 404 Q 292 408 284 413 Q 277 418 267 424 C 242 440 217 450 226 421 L 230 408 L 234 398 Q 236 392 238 383 Q 240 374 240 367 Q 241 360 242 352 L 242 324 L 243 286 Q 243 279 242 247 L 242 215 L 240 194 L 239 161 Q 238 154 238 141 L 236 101 L 234 82 L 231 26 Q 230 9 227 -11 Q 224 -32 220 -48 Q 216 -64 216 -70 Q 216 -78 221 -95 Q 226 -112 230 -121 Q 234 -130 240 -134 Q 245 -141 250 -141 L 251 -141 Q 256 -140 261 -134 Q 266 -128 268 -113 Q 270 -98 272 -80 Q 274 -62 274 -38 L 278 108 L 280 149 Z" fill="lightgray" />
    
      <path d="M 764 626 L 799 635 Q 828 642 829 643 L 836 646 Q 841 648 842 652 Q 842 656 834 664 Q 826 672 811 676 Q 796 680 793 680 Q 788 680 773 675 Q 758 670 744 666 Q 730 662 681 651 Q 631 640 605 638 Q 580 636 575 635 L 562 632 L 550 630 Q 548 629 547 626 L 547 625 Q 547 623 553 618 Q 560 612 573 609 Q 583 607 592 607 L 598 607 Q 610 607 622 608 L 664 613 L 691 616 Q 697 616 724 620 L 764 626 Z" fill="lightgray" />
    
      <path d="M 563 528 L 534 534 Q 532 535 529 535 Q 526 535 522 533 Q 516 531 516 529 L 516 526 Q 518 524 526 520 Q 534 516 538 508 Q 542 502 547 492 Q 551 483 554 470 L 568 410 Q 570 398 574 388 Q 580 378 581 377 Q 583 376 586 376 Q 587 376 591 378 Q 596 380 598 396 L 596 426 L 582 502 C 578 525 578 525 563 528 Z" fill="lightgray" />
    
      <path d="M 806 419 L 812 408 Q 813 403 820 402 Q 822 401 824 401 Q 830 401 838 411 Q 848 423 858 448 L 873 488 Q 878 502 882 511 Q 886 520 891 526 Q 896 533 897 535 Q 898 538 898 542 Q 898 546 891 552 Q 884 558 869 566 Q 853 576 846 578 Q 838 581 834 582 Q 829 582 816 575 Q 804 569 794 566 Q 784 564 768 560 L 726 552 L 676 543 L 635 537 L 563 528 C 533 524 552 499 582 502 L 636 508 L 676 514 L 726 522 L 764 530 L 786 533 Q 797 535 806 535 Q 811 535 815 534 Q 826 532 827 529 L 827 526 Q 827 523 826 516 L 820 486 Q 818 480 815 470 Q 812 459 810 448 C 805 422 805 422 806 419 Z" fill="lightgray" />
    
      <path d="M 622 608 L 622 602 L 626 595 Q 631 589 632 573 L 635 537 L 636 508 L 642 432 C 644 402 676 406 676 436 L 676 514 L 676 543 L 678 576 L 680 594 Q 680 598 679 602 Q 678 606 664 613 C 638 627 621 636 622 608 Z" fill="lightgray" />
    
      <path d="M 768 560 L 772 588 Q 772 595 776 602 L 778 607 Q 779 609 779 611 L 779 614 Q 778 616 774 620 Q 770 623 764 626 C 738 640 722 649 724 620 L 726 596 L 726 552 L 726 522 L 726 445 C 726 415 753 422 756 452 L 764 530 L 768 560 Z" fill="lightgray" />
    
      <path d="M 700 407 L 726 410 L 771 416 Q 782 418 806 419 C 836 420 837 435 810 448 L 800 453 Q 796 454 787 455 Q 782 455 775 454 Q 768 454 756 452 L 726 445 L 676 436 L 642 432 L 617 428 Q 614 428 596 426 C 566 423 568 393 598 396 L 620 398 Q 627 398 656 402 L 700 407 Z" fill="lightgray" />
    
      <path d="M 678 313 L 716 317 Q 718 317 736 318 L 776 324 L 878 328 Q 890 328 894 331 Q 898 334 899 338 L 899 339 Q 899 343 893 348 Q 886 354 874 360 Q 861 365 852 366 Q 844 366 798 359 L 697 343 L 634 334 L 610 330 L 558 324 Q 540 321 532 320 L 520 320 Q 514 318 513 315 L 513 314 Q 513 311 517 308 Q 522 305 529 303 Q 536 300 544 298 Q 553 296 561 295 L 568 295 Q 575 295 584 296 Q 598 298 616 301 L 678 313 Z" fill="lightgray" />
    
      <path d="M 616 301 L 590 261 Q 580 244 564 227 Q 549 209 534 194 Q 520 180 508 170 L 496 160 Q 494 159 494 157 Q 494 156 495 154 Q 497 151 499 151 Q 501 151 502 152 L 518 160 Q 536 168 548 176 Q 560 184 576 197 L 606 222 L 620 238 L 637 258 L 654 280 L 678 313 L 697 343 L 705 360 Q 710 370 714 374 Q 718 380 720 382 Q 721 384 721 388 Q 720 392 714 396 Q 708 401 700 407 C 676 425 657 432 656 402 L 656 394 Q 656 390 652 376 Q 648 363 644 354 Q 640 345 634 334 L 616 301 Z" fill="lightgray" />
    
      <path d="M 736 318 L 785 284 L 830 248 Q 870 216 889 204 Q 908 191 920 186 Q 932 180 940 179 L 944 179 Q 949 179 953 181 Q 956 183 956 191 Q 956 196 955 203 Q 952 222 941 236 Q 930 250 916 258 Q 904 268 892 274 Q 880 281 867 287 L 829 302 Q 805 311 796 315 Q 786 319 776 324 C 749 337 711 335 736 318 Z" fill="lightgray" />
    
      <path d="M 662 202 L 692 210 Q 702 212 710 213 L 736 217 L 741 217 Q 745 217 747 216 Q 750 214 751 208 Q 752 204 752 198 Q 752 191 751 182 Q 750 164 748 158 Q 746 152 743 150 L 741 150 Q 736 150 718 156 L 706 160 Q 702 160 700 158 Q 699 157 699 156 Q 699 154 702 151 L 708 144 L 716 137 Q 720 133 726 122 Q 732 112 737 108 Q 742 103 746 102 L 749 102 Q 756 102 765 111 Q 776 122 780 135 Q 784 149 788 168 Q 790 186 792 190 Q 792 195 796 204 Q 798 212 802 216 L 806 220 L 806 221 Q 806 225 800 232 Q 792 240 784 246 Q 776 252 769 255 Q 762 258 758 258 Q 754 258 752 257 L 740 249 Q 736 246 729 244 Q 722 242 705 238 Q 688 234 650 224 C 621 216 633 194 662 202 Z" fill="lightgray" />
    
      <path d="M 606 222 L 608 213 Q 610 200 610 181 L 608 108 L 608 99 Q 608 87 610 76 Q 613 62 627 46 Q 640 32 667 24 Q 694 18 726 17 L 739 17 Q 766 17 792 20 Q 824 24 840 32 Q 856 40 864 51 Q 872 62 872 67 Q 872 70 871 72 Q 870 74 864 82 Q 859 90 855 102 Q 851 115 850 130 L 848 144 Q 847 148 844 148 Q 841 148 840 146 L 838 133 Q 832 112 828 101 Q 824 90 818 84 Q 812 78 804 73 Q 796 69 776 65 Q 755 62 728 62 Q 710 63 693 66 Q 675 68 666 74 Q 656 78 652 89 Q 648 95 648 107 Q 648 115 650 126 L 654 168 Q 654 172 658 182 Q 661 192 661 194 Q 662 198 662 202 C 665 217 665 217 650 224 L 620 238 C 601 247 601 247 606 222 Z" fill="lightgray" />
    
      <path d="M 410 476 L 422 452 Q 442 416 459 408 Q 466 405 473 405 Q 480 405 486 408 Q 498 414 498 433 L 498 436 Q 498 458 486 469 Q 476 480 460 488 Q 446 495 434 498 L 416 502 Q 411 503 407 503 Q 402 503 400 501 Q 399 500 399 498 Q 399 495 401 491 L 410 476 Z" fill="lightgray" />
    
      <path d="M 454 192 Q 454 198 464 211 L 502 258 L 516 270 Q 520 274 520 278 L 520 279 Q 520 285 512 292 Q 504 299 498 303 Q 492 308 482 312 Q 472 317 470 317 Q 466 316 462 313 L 452 305 Q 446 300 434 293 Q 423 286 418 284 Q 413 282 398 277 L 383 272 Q 380 270 379 268 L 379 266 Q 379 264 380 260 Q 382 254 398 253 L 418 253 Q 422 254 430 258 Q 437 263 439 264 Q 443 265 445 265 Q 447 265 448 264 Q 450 261 450 256 Q 450 252 445 242 L 434 214 Q 429 201 429 196 L 429 194 Q 429 189 430 185 Q 432 181 442 168 C 445 164 445 164 454 192 Z" fill="lightgray" />
    
      <path d="M 490 50 L 498 73 Q 502 81 502 97 Q 502 112 498 127 Q 493 142 484 155 Q 474 168 464 178 Q 454 188 454 192 C 443 220 425 193 442 168 Q 452 154 457 140 Q 463 126 467 109 Q 471 93 472 79 L 472 51 C 472 21 480 22 490 50 Z" fill="lightgray" />
    
      <path d="M 472 51 L 432 52 L 388 47 L 336 46 Q 329 45 328 43 Q 326 41 326 38 Q 326 36 327 33 Q 330 26 339 18 Q 349 9 356 4 Q 363 0 373 0 Q 378 0 400 8 Q 422 18 452 18 L 460 18 Q 490 18 514 12 Q 541 4 590 -20 L 695 -73 Q 750 -102 777 -113 Q 804 -124 818 -124 Q 830 -124 867 -112 Q 903 -100 920 -92 L 986 -66 Q 997 -62 997 -57 Q 997 -56 996 -54 Q 992 -47 982 -46 L 912 -46 Q 846 -45 801 -40 Q 756 -35 705 -22 Q 653 -10 599 12 L 534 38 L 490 50 L 472 51 Z" fill="lightgray" />
    
    
      <clipPath id="make-me-a-hanzi-clip-0">
        <path d="M 346 538 L 364 539 Q 366 539 374 540 L 406 540 Q 425 541 434 546 Q 441 550 441 553 L 441 554 Q 440 558 434 562 L 416 573 Q 403 580 393 584 Q 386 586 379 586 L 375 586 Q 368 586 355 582 L 304 572 L 275 567 L 220 558 L 172 550 L 142 544 Q 131 542 102 538 L 85 536 Q 75 535 73 534 Q 70 532 70 529 L 70 527 Q 70 524 72 522 Q 76 518 90 514 L 114 504 Q 119 501 125 501 Q 127 501 130 502 Q 132 502 138 503 Q 142 505 160 510 L 176 514 L 221 522 L 278 531 L 288 532 Q 291 532 300 534 L 346 538 Z" />
      </clipPath>
      <path clip-path="url(#make-me-a-hanzi-clip-0)" d="M 77 528 L 124 521 L 373 563 L 434 554" fill="none" id="make-me-a-hanzi-animation-0" stroke-dasharray="490 980" stroke-linecap="round" />
    
      <clipPath id="make-me-a-hanzi-clip-1">
        <path d="M 220 558 L 218 602 L 220 639 Q 218 645 213 648 Q 209 651 197 655 Q 184 659 184 660 L 164 663 Q 155 664 152 664 Q 142 663 140 658 L 140 656 Q 140 651 145 644 L 152 633 Q 156 627 160 619 Q 163 612 166 601 Q 168 590 169 583 L 172 550 L 176 514 L 186 432 Q 187 416 194 404 Q 201 394 208 394 L 210 394 Q 218 396 220 406 L 224 420 L 224 450 L 221 522 L 220 558 Z" />
      </clipPath>
      <path clip-path="url(#make-me-a-hanzi-clip-1)" d="M 148 657 L 176 639 L 190 622 L 209 405" fill="none" id="make-me-a-hanzi-animation-1" stroke-dasharray="401 802" stroke-linecap="round" />
    
      <clipPath id="make-me-a-hanzi-clip-2">
        <path d="M 330 453 L 346 538 L 355 582 L 360 608 Q 362 622 364 627 L 370 642 Q 374 653 379 659 Q 383 666 384 668 Q 384 672 377 680 Q 371 688 353 697 Q 334 706 328 708 Q 322 710 313 711 Q 304 711 302 708 Q 299 706 299 702 L 299 700 Q 299 696 303 688 Q 307 678 308 669 Q 310 660 310 648 L 310 626 L 304 572 L 300 534 L 292 458 C 289 428 324 424 330 453 Z" />
      </clipPath>
      <path clip-path="url(#make-me-a-hanzi-clip-2)" d="M 309 701 L 343 665 L 314 478 L 299 465" fill="none" id="make-me-a-hanzi-animation-2" stroke-dasharray="387 774" stroke-linecap="round" />
    
      <clipPath id="make-me-a-hanzi-clip-3">
        <path d="M 267 424 L 309 426 Q 333 428 338 430 Q 344 431 345 436 L 345 437 Q 345 441 339 446 L 330 453 C 319 461 319 461 292 458 L 224 450 C 194 446 195 412 224 420 L 226 421 L 267 424 Z" />
      </clipPath>
      <path clip-path="url(#make-me-a-hanzi-clip-3)" d="M 232 429 L 239 437 L 296 442 L 339 437" fill="none" id="make-me-a-hanzi-animation-3" stroke-dasharray="239 478" stroke-linecap="round" />
    
      <clipPath id="make-me-a-hanzi-clip-4">
        <path d="M 151 340 L 131 344 Q 121 346 118 346 Q 112 346 110 344 Q 109 343 109 341 L 109 338 Q 109 334 114 327 Q 120 320 123 315 Q 126 310 129 304 Q 132 297 134 286 L 144 222 Q 146 204 153 192 Q 158 182 166 182 L 168 182 Q 178 184 180 197 L 182 210 L 181 240 L 172 316 C 170 336 170 336 151 340 Z" />
      </clipPath>
      <path clip-path="url(#make-me-a-hanzi-clip-4)" d="M 115 341 L 152 306 L 167 193" fill="none" id="make-me-a-hanzi-animation-4" stroke-dasharray="293 586" stroke-linecap="round" />
    
      <clipPath id="make-me-a-hanzi-clip-5">
        <path d="M 358 245 L 388 296 Q 394 308 398 313 Q 401 317 407 324 Q 414 330 414 333 Q 414 337 406 344 Q 399 351 392 356 Q 386 360 373 367 Q 363 372 357 372 L 354 372 L 342 368 Q 340 367 325 364 L 308 361 L 286 358 L 242 352 L 151 340 C 121 336 142 313 172 316 L 242 324 L 285 329 L 314 332 Q 319 333 323 333 Q 333 333 335 329 Q 337 327 337 322 Q 337 320 336 316 L 324 258 C 318 229 343 219 358 245 Z" />
      </clipPath>
      <path clip-path="url(#make-me-a-hanzi-clip-5)" d="M 159 337 L 178 330 L 323 349 L 358 344 L 369 327 L 348 271 L 355 255" fill="none" id="make-me-a-hanzi-animation-5" stroke-dasharray="427 854" stroke-linecap="round" />
    
      <clipPath id="make-me-a-hanzi-clip-6">
        <path d="M 282 218 L 342 223 Q 360 224 364 226 Q 369 228 370 232 Q 371 233 371 235 Q 371 237 368 239 L 358 245 C 334 259 334 259 324 258 L 282 252 L 242 247 L 181 240 C 151 237 152 208 182 210 L 242 215 L 282 218 Z" />
      </clipPath>
      <path clip-path="url(#make-me-a-hanzi-clip-6)" d="M 189 218 L 197 227 L 324 240 L 367 235" fill="none" id="make-me-a-hanzi-animation-6" stroke-dasharray="311 622" stroke-linecap="round" />
    
      <clipPath id="make-me-a-hanzi-clip-7">
        <path d="M 238 141 L 193 133 L 148 124 Q 104 116 74 114 L 48 111 Q 41 110 36 108 Q 31 107 30 104 L 30 103 Q 30 100 33 95 Q 37 88 51 83 Q 65 77 77 74 Q 89 70 96 70 Q 100 70 109 74 L 137 82 Q 154 86 158 88 L 212 97 L 236 101 L 278 108 L 302 110 Q 329 113 349 113 L 359 113 Q 382 113 394 118 Q 405 123 405 128 L 405 129 Q 405 134 397 140 Q 389 146 379 151 Q 369 156 360 159 Q 350 162 342 162 Q 336 161 320 157 Q 305 153 280 149 L 238 141 Z" />
      </clipPath>
      <path clip-path="url(#make-me-a-hanzi-clip-7)" d="M 35 104 L 95 93 L 332 136 L 395 129" fill="none" id="make-me-a-hanzi-animation-7" stroke-dasharray="493 986" stroke-linecap="round" />
    
      <clipPath id="make-me-a-hanzi-clip-8">
        <path d="M 280 149 L 282 218 L 282 252 L 285 329 L 286 358 L 287 370 Q 288 384 290 392 Q 292 398 292 402 L 292 404 Q 292 408 284 413 Q 277 418 267 424 C 242 440 217 450 226 421 L 230 408 L 234 398 Q 236 392 238 383 Q 240 374 240 367 Q 241 360 242 352 L 242 324 L 243 286 Q 243 279 242 247 L 242 215 L 240 194 L 239 161 Q 238 154 238 141 L 236 101 L 234 82 L 231 26 Q 230 9 227 -11 Q 224 -32 220 -48 Q 216 -64 216 -70 Q 216 -78 221 -95 Q 226 -112 230 -121 Q 234 -130 240 -134 Q 245 -141 250 -141 L 251 -141 Q 256 -140 261 -134 Q 266 -128 268 -113 Q 270 -98 272 -80 Q 274 -62 274 -38 L 278 108 L 280 149 Z" />
      </clipPath>
      <path clip-path="url(#make-me-a-hanzi-clip-8)" d="M 233 416 L 260 397 L 264 379 L 261 170 L 245 -61 L 251 -130" fill="none" id="make-me-a-hanzi-animation-8" stroke-dasharray="689 1378" stroke-linecap="round" />
    
      <clipPath id="make-me-a-hanzi-clip-9">
        <path d="M 764 626 L 799 635 Q 828 642 829 643 L 836 646 Q 841 648 842 652 Q 842 656 834 664 Q 826 672 811 676 Q 796 680 793 680 Q 788 680 773 675 Q 758 670 744 666 Q 730 662 681 651 Q 631 640 605 638 Q 580 636 575 635 L 562 632 L 550 630 Q 548 629 547 626 L 547 625 Q 547 623 553 618 Q 560 612 573 609 Q 583 607 592 607 L 598 607 Q 610 607 622 608 L 664 613 L 691 616 Q 697 616 724 620 L 764 626 Z" />
      </clipPath>
      <path clip-path="url(#make-me-a-hanzi-clip-9)" d="M 552 626 L 604 622 L 682 632 L 793 657 L 833 655" fill="none" id="make-me-a-hanzi-animation-9" stroke-dasharray="413 826" stroke-linecap="round" />
    
      <clipPath id="make-me-a-hanzi-clip-10">
        <path d="M 563 528 L 534 534 Q 532 535 529 535 Q 526 535 522 533 Q 516 531 516 529 L 516 526 Q 518 524 526 520 Q 534 516 538 508 Q 542 502 547 492 Q 551 483 554 470 L 568 410 Q 570 398 574 388 Q 580 378 581 377 Q 583 376 586 376 Q 587 376 591 378 Q 596 380 598 396 L 596 426 L 582 502 C 578 525 578 525 563 528 Z" />
      </clipPath>
      <path clip-path="url(#make-me-a-hanzi-clip-10)" d="M 521 528 L 540 524 L 565 496 L 585 385" fill="none" id="make-me-a-hanzi-animation-10" stroke-dasharray="298 596" stroke-linecap="round" />
    
      <clipPath id="make-me-a-hanzi-clip-11">
        <path d="M 806 419 L 812 408 Q 813 403 820 402 Q 822 401 824 401 Q 830 401 838 411 Q 848 423 858 448 L 873 488 Q 878 502 882 511 Q 886 520 891 526 Q 896 533 897 535 Q 898 538 898 542 Q 898 546 891 552 Q 884 558 869 566 Q 853 576 846 578 Q 838 581 834 582 Q 829 582 816 575 Q 804 569 794 566 Q 784 564 768 560 L 726 552 L 676 543 L 635 537 L 563 528 C 533 524 552 499 582 502 L 636 508 L 676 514 L 726 522 L 764 530 L 786 533 Q 797 535 806 535 Q 811 535 815 534 Q 826 532 827 529 L 827 526 Q 827 523 826 516 L 820 486 Q 818 480 815 470 Q 812 459 810 448 C 805 422 805 422 806 419 Z" />
      </clipPath>
      <path clip-path="url(#make-me-a-hanzi-clip-11)" d="M 570 527 L 589 517 L 834 555 L 859 536 L 824 410" fill="none" id="make-me-a-hanzi-animation-11" stroke-dasharray="560 1120" stroke-linecap="round" />
    
      <clipPath id="make-me-a-hanzi-clip-12">
        <path d="M 622 608 L 622 602 L 626 595 Q 631 589 632 573 L 635 537 L 636 508 L 642 432 C 644 402 676 406 676 436 L 676 514 L 676 543 L 678 576 L 680 594 Q 680 598 679 602 Q 678 606 664 613 C 638 627 621 636 622 608 Z" />
      </clipPath>
      <path clip-path="url(#make-me-a-hanzi-clip-12)" d="M 629 605 L 655 587 L 658 456 L 647 440" fill="none" id="make-me-a-hanzi-animation-12" stroke-dasharray="310 620" stroke-linecap="round" />
    
      <clipPath id="make-me-a-hanzi-clip-13">
        <path d="M 768 560 L 772 588 Q 772 595 776 602 L 778 607 Q 779 609 779 611 L 779 614 Q 778 616 774 620 Q 770 623 764 626 C 738 640 722 649 724 620 L 726 596 L 726 552 L 726 522 L 726 445 C 726 415 753 422 756 452 L 764 530 L 768 560 Z" />
      </clipPath>
      <path clip-path="url(#make-me-a-hanzi-clip-13)" d="M 771 613 L 750 599 L 742 465 L 732 453" fill="none" id="make-me-a-hanzi-animation-13" stroke-dasharray="303 606" stroke-linecap="round" />
    
      <clipPath id="make-me-a-hanzi-clip-14">
        <path d="M 700 407 L 726 410 L 771 416 Q 782 418 806 419 C 836 420 837 435 810 448 L 800 453 Q 796 454 787 455 Q 782 455 775 454 Q 768 454 756 452 L 726 445 L 676 436 L 642 432 L 617 428 Q 614 428 596 426 C 566 423 568 393 598 396 L 620 398 Q 627 398 656 402 L 700 407 Z" />
      </clipPath>
      <path clip-path="url(#make-me-a-hanzi-clip-14)" d="M 603 404 L 612 412 L 753 433 L 790 437 L 798 427" fill="none" id="make-me-a-hanzi-animation-14" stroke-dasharray="333 666" stroke-linecap="round" />
    
      <clipPath id="make-me-a-hanzi-clip-15">
        <path d="M 678 313 L 716 317 Q 718 317 736 318 L 776 324 L 878 328 Q 890 328 894 331 Q 898 334 899 338 L 899 339 Q 899 343 893 348 Q 886 354 874 360 Q 861 365 852 366 Q 844 366 798 359 L 697 343 L 634 334 L 610 330 L 558 324 Q 540 321 532 320 L 520 320 Q 514 318 513 315 L 513 314 Q 513 311 517 308 Q 522 305 529 303 Q 536 300 544 298 Q 553 296 561 295 L 568 295 Q 575 295 584 296 Q 598 298 616 301 L 678 313 Z" />
      </clipPath>
      <path clip-path="url(#make-me-a-hanzi-clip-15)" d="M 519 315 L 571 310 L 811 344 L 863 346 L 891 339" fill="none" id="make-me-a-hanzi-animation-15" stroke-dasharray="504 1008" stroke-linecap="round" />
    
      <clipPath id="make-me-a-hanzi-clip-16">
        <path d="M 616 301 L 590 261 Q 580 244 564 227 Q 549 209 534 194 Q 520 180 508 170 L 496 160 Q 494 159 494 157 Q 494 156 495 154 Q 497 151 499 151 Q 501 151 502 152 L 518 160 Q 536 168 548 176 Q 560 184 576 197 L 606 222 L 620 238 L 637 258 L 654 280 L 678 313 L 697 343 L 705 360 Q 710 370 714 374 Q 718 380 720 382 Q 721 384 721 388 Q 720 392 714 396 Q 708 401 700 407 C 676 425 657 432 656 402 L 656 394 Q 656 390 652 376 Q 648 363 644 354 Q 640 345 634 334 L 616 301 Z" />
      </clipPath>
      <path clip-path="url(#make-me-a-hanzi-clip-16)" d="M 711 387 L 681 375 L 655 321 L 590 231 L 554 195 L 498 157" fill="none" id="make-me-a-hanzi-animation-16" stroke-dasharray="450 900" stroke-linecap="round" />
    
      <clipPath id="make-me-a-hanzi-clip-17">
        <path d="M 736 318 L 785 284 L 830 248 Q 870 216 889 204 Q 908 191 920 186 Q 932 180 940 179 L 944 179 Q 949 179 953 181 Q 956 183 956 191 Q 956 196 955 203 Q 952 222 941 236 Q 930 250 916 258 Q 904 268 892 274 Q 880 281 867 287 L 829 302 Q 805 311 796 315 Q 786 319 776 324 C 749 337 711 335 736 318 Z" />
      </clipPath>
      <path clip-path="url(#make-me-a-hanzi-clip-17)" d="M 743 315 L 771 311 L 861 259 L 916 221 L 947 188" fill="none" id="make-me-a-hanzi-animation-17" stroke-dasharray="372 744" stroke-linecap="round" />
    
      <clipPath id="make-me-a-hanzi-clip-18">
        <path d="M 662 202 L 692 210 Q 702 212 710 213 L 736 217 L 741 217 Q 745 217 747 216 Q 750 214 751 208 Q 752 204 752 198 Q 752 191 751 182 Q 750 164 748 158 Q 746 152 743 150 L 741 150 Q 736 150 718 156 L 706 160 Q 702 160 700 158 Q 699 157 699 156 Q 699 154 702 151 L 708 144 L 716 137 Q 720 133 726 122 Q 732 112 737 108 Q 742 103 746 102 L 749 102 Q 756 102 765 111 Q 776 122 780 135 Q 784 149 788 168 Q 790 186 792 190 Q 792 195 796 204 Q 798 212 802 216 L 806 220 L 806 221 Q 806 225 800 232 Q 792 240 784 246 Q 776 252 769 255 Q 762 258 758 258 Q 754 258 752 257 L 740 249 Q 736 246 729 244 Q 722 242 705 238 Q 688 234 650 224 C 621 216 633 194 662 202 Z" />
      </clipPath>
      <path clip-path="url(#make-me-a-hanzi-clip-18)" d="M 660 222 L 669 216 L 758 235 L 775 220 L 767 155 L 750 128 L 703 155" fill="none" id="make-me-a-hanzi-animation-18" stroke-dasharray="404 808" stroke-linecap="round" />
    
      <clipPath id="make-me-a-hanzi-clip-19">
        <path d="M 606 222 L 608 213 Q 610 200 610 181 L 608 108 L 608 99 Q 608 87 610 76 Q 613 62 627 46 Q 640 32 667 24 Q 694 18 726 17 L 739 17 Q 766 17 792 20 Q 824 24 840 32 Q 856 40 864 51 Q 872 62 872 67 Q 872 70 871 72 Q 870 74 864 82 Q 859 90 855 102 Q 851 115 850 130 L 848 144 Q 847 148 844 148 Q 841 148 840 146 L 838 133 Q 832 112 828 101 Q 824 90 818 84 Q 812 78 804 73 Q 796 69 776 65 Q 755 62 728 62 Q 710 63 693 66 Q 675 68 666 74 Q 656 78 652 89 Q 648 95 648 107 Q 648 115 650 126 L 654 168 Q 654 172 658 182 Q 661 192 661 194 Q 662 198 662 202 C 665 217 665 217 650 224 L 620 238 C 601 247 601 247 606 222 Z" />
      </clipPath>
      <path clip-path="url(#make-me-a-hanzi-clip-19)" d="M 622 229 L 635 194 L 630 84 L 640 65 L 666 48 L 748 40 L 818 51 L 840 67 L 844 144" fill="none" id="make-me-a-hanzi-animation-19" stroke-dasharray="586 1172" stroke-linecap="round" />
    
      <clipPath id="make-me-a-hanzi-clip-20">
        <path d="M 410 476 L 422 452 Q 442 416 459 408 Q 466 405 473 405 Q 480 405 486 408 Q 498 414 498 433 L 498 436 Q 498 458 486 469 Q 476 480 460 488 Q 446 495 434 498 L 416 502 Q 411 503 407 503 Q 402 503 400 501 Q 399 500 399 498 Q 399 495 401 491 L 410 476 Z" />
      </clipPath>
      <path clip-path="url(#make-me-a-hanzi-clip-20)" d="M 405 498 L 456 455 L 474 428" fill="none" id="make-me-a-hanzi-animation-20" stroke-dasharray="227 454" stroke-linecap="round" />
    
      <clipPath id="make-me-a-hanzi-clip-21">
        <path d="M 454 192 Q 454 198 464 211 L 502 258 L 516 270 Q 520 274 520 278 L 520 279 Q 520 285 512 292 Q 504 299 498 303 Q 492 308 482 312 Q 472 317 470 317 Q 466 316 462 313 L 452 305 Q 446 300 434 293 Q 423 286 418 284 Q 413 282 398 277 L 383 272 Q 380 270 379 268 L 379 266 Q 379 264 380 260 Q 382 254 398 253 L 418 253 Q 422 254 430 258 Q 437 263 439 264 Q 443 265 445 265 Q 447 265 448 264 Q 450 261 450 256 Q 450 252 445 242 L 434 214 Q 429 201 429 196 L 429 194 Q 429 189 430 185 Q 432 181 442 168 C 445 164 445 164 454 192 Z" />
      </clipPath>
      <path clip-path="url(#make-me-a-hanzi-clip-21)" d="M 384 267 L 413 267 L 452 282 L 477 278 L 472 253 L 444 205 L 441 176" fill="none" id="make-me-a-hanzi-animation-21" stroke-dasharray="334 668" stroke-linecap="round" />
    
      <clipPath id="make-me-a-hanzi-clip-22">
        <path d="M 490 50 L 498 73 Q 502 81 502 97 Q 502 112 498 127 Q 493 142 484 155 Q 474 168 464 178 Q 454 188 454 192 C 443 220 425 193 442 168 Q 452 154 457 140 Q 463 126 467 109 Q 471 93 472 79 L 472 51 C 472 21 480 22 490 50 Z" />
      </clipPath>
      <path clip-path="url(#make-me-a-hanzi-clip-22)" d="M 456 178 L 456 167 L 475 140 L 483 116 L 486 82 L 483 62 L 477 58" fill="none" id="make-me-a-hanzi-animation-22" stroke-dasharray="259 518" stroke-linecap="round" />
    
      <clipPath id="make-me-a-hanzi-clip-23">
        <path d="M 472 51 L 432 52 L 388 47 L 336 46 Q 329 45 328 43 Q 326 41 326 38 Q 326 36 327 33 Q 330 26 339 18 Q 349 9 356 4 Q 363 0 373 0 Q 378 0 400 8 Q 422 18 452 18 L 460 18 Q 490 18 514 12 Q 541 4 590 -20 L 695 -73 Q 750 -102 777 -113 Q 804 -124 818 -124 Q 830 -124 867 -112 Q 903 -100 920 -92 L 986 -66 Q 997 -62 997 -57 Q 997 -56 996 -54 Q 992 -47 982 -46 L 912 -46 Q 846 -45 801 -40 Q 756 -35 705 -22 Q 653 -10 599 12 L 534 38 L 490 50 L 472 51 Z" />
      </clipPath>
      <path clip-path="url(#make-me-a-hanzi-clip-23)" d="M 335 37 L 373 23 L 438 35 L 493 33 L 734 -60 L 811 -82 L 989 -58" fill="none" id="make-me-a-hanzi-animation-23" stroke-dasharray="808 1616" stroke-linecap="round" />
    
  </g>
</svg>