<svg xmlns="http://www.w3.org/2000/svg" version="1.1" viewBox="0 0 1024 1024">
  <g stroke="lightgray" stroke-dasharray="1,1" stroke-width="1" transform="scale(4, 4)">
    <line x1="0" y1="0" x2="256" y2="256" />
    <line x1="256" y1="0" x2="0" y2="256" />
    <line x1="128" y1="0" x2="128" y2="256" />
    <line x1="0" y1="128" x2="256" y2="128" />
  </g>
  <g transform="scale(1.0, -1.0) translate(0.0, -804.50)">
    <style type="text/css">
      
        @keyframes keyframes0 {
          from {
            stroke: blue;
            stroke-dashoffset: 563;
            stroke-width: 128;
          }
          65% {
            animation-timing-function: step-end;
            stroke: blue;
            stroke-dashoffset: 0;
            stroke-width: 128;
          }
          to {
            stroke: black;
            stroke-width: 1024;
          }
        }
        #make-me-a-hanzi-animation-0 {
          animation: keyframes0 0.7081705729166666s both;
          animation-delay: 0s;
          animation-timing-function: linear;
        }
      
        @keyframes keyframes1 {
          from {
            stroke: blue;
            stroke-dashoffset: 572;
            stroke-width: 128;
          }
          65% {
            animation-timing-function: step-end;
            stroke: blue;
            stroke-dashoffset: 0;
            stroke-width: 128;
          }
          to {
            stroke: black;
            stroke-width: 1024;
          }
        }
        #make-me-a-hanzi-animation-1 {
          animation: keyframes1 0.7154947916666666s both;
          animation-delay: 0.7081705729166666s;
          animation-timing-function: linear;
        }
      
        @keyframes keyframes2 {
          from {
            stroke: blue;
            stroke-dashoffset: 494;
            stroke-width: 128;
          }
          62% {
            animation-timing-function: step-end;
            stroke: blue;
            stroke-dashoffset: 0;
            stroke-width: 128;
          }
          to {
            stroke: black;
            stroke-width: 1024;
          }
        }
        #make-me-a-hanzi-animation-2 {
          animation: keyframes2 0.6520182291666666s both;
          animation-delay: 1.4236653645833333s;
          animation-timing-function: linear;
        }
      
        @keyframes keyframes3 {
          from {
            stroke: blue;
            stroke-dashoffset: 718;
            stroke-width: 128;
          }
          70% {
            animation-timing-function: step-end;
            stroke: blue;
            stroke-dashoffset: 0;
            stroke-width: 128;
          }
          to {
            stroke: black;
            stroke-width: 1024;
          }
        }
        #make-me-a-hanzi-animation-3 {
          animation: keyframes3 0.8343098958333334s both;
          animation-delay: 2.07568359375s;
          animation-timing-function: linear;
        }
      
        @keyframes keyframes4 {
          from {
            stroke: blue;
            stroke-dashoffset: 428;
            stroke-width: 128;
          }
          58% {
            animation-timing-function: step-end;
            stroke: blue;
            stroke-dashoffset: 0;
            stroke-width: 128;
          }
          to {
            stroke: black;
            stroke-width: 1024;
          }
        }
        #make-me-a-hanzi-animation-4 {
          animation: keyframes4 0.5983072916666666s both;
          animation-delay: 2.9099934895833335s;
          animation-timing-function: linear;
        }
      
        @keyframes keyframes5 {
          from {
            stroke: blue;
            stroke-dashoffset: 411;
            stroke-width: 128;
          }
          57% {
            animation-timing-function: step-end;
            stroke: blue;
            stroke-dashoffset: 0;
            stroke-width: 128;
          }
          to {
            stroke: black;
            stroke-width: 1024;
          }
        }
        #make-me-a-hanzi-animation-5 {
          animation: keyframes5 0.58447265625s both;
          animation-delay: 3.50830078125s;
          animation-timing-function: linear;
        }
      
        @keyframes keyframes6 {
          from {
            stroke: blue;
            stroke-dashoffset: 681;
            stroke-width: 128;
          }
          69% {
            animation-timing-function: step-end;
            stroke: blue;
            stroke-dashoffset: 0;
            stroke-width: 128;
          }
          to {
            stroke: black;
            stroke-width: 1024;
          }
        }
        #make-me-a-hanzi-animation-6 {
          animation: keyframes6 0.80419921875s both;
          animation-delay: 4.0927734375s;
          animation-timing-function: linear;
        }
      
        @keyframes keyframes7 {
          from {
            stroke: blue;
            stroke-dashoffset: 605;
            stroke-width: 128;
          }
          66% {
            animation-timing-function: step-end;
            stroke: blue;
            stroke-dashoffset: 0;
            stroke-width: 128;
          }
          to {
            stroke: black;
            stroke-width: 1024;
          }
        }
        #make-me-a-hanzi-animation-7 {
          animation: keyframes7 0.7423502604166666s both;
          animation-delay: 4.89697265625s;
          animation-timing-function: linear;
        }
      
        @keyframes keyframes8 {
          from {
            stroke: blue;
            stroke-dashoffset: 524;
            stroke-width: 128;
          }
          63% {
            animation-timing-function: step-end;
            stroke: blue;
            stroke-dashoffset: 0;
            stroke-width: 128;
          }
          to {
            stroke: black;
            stroke-width: 1024;
          }
        }
        #make-me-a-hanzi-animation-8 {
          animation: keyframes8 0.6764322916666666s both;
          animation-delay: 5.639322916666667s;
          animation-timing-function: linear;
        }
      
        @keyframes keyframes9 {
          from {
            stroke: blue;
            stroke-dashoffset: 645;
            stroke-width: 128;
          }
          68% {
            animation-timing-function: step-end;
            stroke: blue;
            stroke-dashoffset: 0;
            stroke-width: 128;
          }
          to {
            stroke: black;
            stroke-width: 1024;
          }
        }
        #make-me-a-hanzi-animation-9 {
          animation: keyframes9 0.77490234375s both;
          animation-delay: 6.315755208333334s;
          animation-timing-function: linear;
        }
      
        @keyframes keyframes10 {
          from {
            stroke: blue;
            stroke-dashoffset: 767;
            stroke-width: 128;
          }
          71% {
            animation-timing-function: step-end;
            stroke: blue;
            stroke-dashoffset: 0;
            stroke-width: 128;
          }
          to {
            stroke: black;
            stroke-width: 1024;
          }
        }
        #make-me-a-hanzi-animation-10 {
          animation: keyframes10 0.8741861979166666s both;
          animation-delay: 7.090657552083334s;
          animation-timing-function: linear;
        }
      
        @keyframes keyframes11 {
          from {
            stroke: blue;
            stroke-dashoffset: 427;
            stroke-width: 128;
          }
          58% {
            animation-timing-function: step-end;
            stroke: blue;
            stroke-dashoffset: 0;
            stroke-width: 128;
          }
          to {
            stroke: black;
            stroke-width: 1024;
          }
        }
        #make-me-a-hanzi-animation-11 {
          animation: keyframes11 0.5974934895833334s both;
          animation-delay: 7.964843750000001s;
          animation-timing-function: linear;
        }
      
        @keyframes keyframes12 {
          from {
            stroke: blue;
            stroke-dashoffset: 584;
            stroke-width: 128;
          }
          66% {
            animation-timing-function: step-end;
            stroke: blue;
            stroke-dashoffset: 0;
            stroke-width: 128;
          }
          to {
            stroke: black;
            stroke-width: 1024;
          }
        }
        #make-me-a-hanzi-animation-12 {
          animation: keyframes12 0.7252604166666666s both;
          animation-delay: 8.562337239583334s;
          animation-timing-function: linear;
        }
      
        @keyframes keyframes13 {
          from {
            stroke: blue;
            stroke-dashoffset: 469;
            stroke-width: 128;
          }
          60% {
            animation-timing-function: step-end;
            stroke: blue;
            stroke-dashoffset: 0;
            stroke-width: 128;
          }
          to {
            stroke: black;
            stroke-width: 1024;
          }
        }
        #make-me-a-hanzi-animation-13 {
          animation: keyframes13 0.6316731770833334s both;
          animation-delay: 9.28759765625s;
          animation-timing-function: linear;
        }
      
        @keyframes keyframes14 {
          from {
            stroke: blue;
            stroke-dashoffset: 624;
            stroke-width: 128;
          }
          67% {
            animation-timing-function: step-end;
            stroke: blue;
            stroke-dashoffset: 0;
            stroke-width: 128;
          }
          to {
            stroke: black;
            stroke-width: 1024;
          }
        }
        #make-me-a-hanzi-animation-14 {
          animation: keyframes14 0.7578125s both;
          animation-delay: 9.919270833333334s;
          animation-timing-function: linear;
        }
      
        @keyframes keyframes15 {
          from {
            stroke: blue;
            stroke-dashoffset: 779;
            stroke-width: 128;
          }
          72% {
            animation-timing-function: step-end;
            stroke: blue;
            stroke-dashoffset: 0;
            stroke-width: 128;
          }
          to {
            stroke: black;
            stroke-width: 1024;
          }
        }
        #make-me-a-hanzi-animation-15 {
          animation: keyframes15 0.8839518229166666s both;
          animation-delay: 10.677083333333334s;
          animation-timing-function: linear;
        }
      
        @keyframes keyframes16 {
          from {
            stroke: blue;
            stroke-dashoffset: 683;
            stroke-width: 128;
          }
          69% {
            animation-timing-function: step-end;
            stroke: blue;
            stroke-dashoffset: 0;
            stroke-width: 128;
          }
          to {
            stroke: black;
            stroke-width: 1024;
          }
        }
        #make-me-a-hanzi-animation-16 {
          animation: keyframes16 0.8058268229166666s both;
          animation-delay: 11.56103515625s;
          animation-timing-function: linear;
        }
      
    </style>
    
      <path d="M 326 528 L 351 531 Q 355 532 371 534 L 413 539 Q 430 541 439 543 L 457 547 Q 465 548 467 554 L 467 556 Q 467 559 464 565 Q 461 571 447 577 Q 433 583 424 586 Q 415 588 406 588 Q 400 586 384 582 Q 368 576 357 574 Q 345 571 335 570 L 281 562 L 249 557 Q 247 556 213 554 Q 181 550 173 550 L 161 550 Q 151 550 149 548 Q 147 546 147 543 L 147 542 Q 147 538 152 534 Q 159 528 167 524 Q 175 520 185 517 Q 194 514 205 514 Q 209 514 223 516 Q 238 518 249 518 Q 260 520 275 521 L 326 528 Z" fill="lightgray" />
    
      <path d="M 306 436 L 326 528 L 335 570 L 341 596 Q 343 609 349 632 Q 355 656 359 664 Q 362 673 366 680 Q 371 686 371 689 L 371 691 Q 371 698 361 707 Q 349 717 338 722 Q 327 727 313 731 Q 303 733 295 733 L 291 733 Q 283 731 281 727 Q 280 725 280 723 Q 280 719 283 712 L 289 700 Q 292 691 292 678 Q 291 666 288 624 Q 285 583 283 574 L 281 562 L 275 521 L 259 428 C 254 398 300 407 306 436 Z" fill="lightgray" />
    
      <path d="M 175 414 L 161 416 Q 139 420 134 420 L 132 420 Q 125 419 123 416 L 123 415 Q 123 411 132 400 Q 143 386 147 374 Q 152 361 157 320 L 169 226 Q 173 200 180 193 Q 187 186 193 186 Q 199 187 203 191 Q 209 195 209 215 L 209 241 L 205 300 L 205 328 L 197 396 C 195 411 195 411 175 414 Z" fill="lightgray" />
    
      <path d="M 366 226 L 372 204 L 375 202 Q 377 201 380 201 L 383 201 Q 389 201 397 204 Q 405 208 415 243 L 447 365 Q 449 378 451 381 Q 453 384 463 405 Q 467 412 467 416 L 467 418 Q 467 423 447 438 Q 427 454 417 458 Q 409 461 404 461 L 402 461 Q 398 460 385 454 Q 371 448 353 444 Q 335 440 306 436 L 259 428 L 239 424 Q 223 421 175 414 C 145 410 167 392 197 396 L 257 404 L 345 416 Q 359 418 370 418 Q 385 418 390 413 Q 394 409 394 399 Q 394 394 393 389 L 387 346 L 385 326 L 373 253 C 368 223 364 232 366 226 Z" fill="lightgray" />
    
      <path d="M 387 346 L 367 354 Q 362 357 352 357 Q 347 357 341 356 Q 329 356 310 351 L 251 336 Q 235 332 205 328 C 175 324 175 301 205 300 L 247 298 Q 256 298 291 306 Q 327 314 347 318 Q 367 322 385 326 C 414 332 415 335 387 346 Z" fill="lightgray" />
    
      <path d="M 318 220 L 337 223 Q 343 224 366 226 C 396 229 402 246 373 253 L 352 258 Q 350 259 346 259 Q 339 259 325 256 Q 304 252 269 248 Q 233 244 209 241 C 179 237 179 218 209 215 L 235 212 L 238 212 Q 245 212 261 214 L 318 220 Z" fill="lightgray" />
    
      <path d="M 277 128 L 239 122 L 161 113 Q 120 108 105 106 Q 89 104 72 104 L 57 102 Q 47 102 46 95 L 46 94 Q 46 87 56 79 Q 67 70 73 66 Q 78 63 89 59 Q 99 55 106 55 L 109 55 Q 115 55 129 61 Q 144 66 158 70 Q 172 74 206 80 Q 240 86 249 88 Q 259 89 276 92 L 327 99 L 349 102 L 382 106 L 441 111 L 471 114 Q 479 114 480 121 L 480 123 Q 480 128 475 132 Q 469 138 457 142 Q 447 145 437 147 Q 428 150 419 150 Q 411 149 393 146 Q 375 144 363 141 Q 351 139 327 134 L 277 128 Z" fill="lightgray" />
    
      <path d="M 261 214 L 268 199 Q 269 195 273 175 Q 277 155 277 148 L 277 128 L 276 92 L 275 47 Q 275 37 271 8 Q 268 -22 266 -35 Q 265 -48 265 -54 L 265 -60 Q 265 -71 268 -84 Q 272 -100 281 -112 Q 291 -126 296 -126 Q 302 -125 310 -115 Q 317 -104 321 -92 Q 325 -80 325 -60 Q 326 -50 326 -38 Q 326 -26 325 -12 Q 324 7 324 16 L 324 23 L 327 99 L 327 134 L 329 154 Q 329 166 333 177 Q 339 192 339 198 L 339 199 Q 337 204 332 208 Q 327 214 318 220 C 294 238 248 241 261 214 Z" fill="lightgray" />
    
      <path d="M 683 628 L 689 649 Q 693 667 696 676 Q 700 686 705 692 Q 709 699 709 702 L 709 704 Q 709 710 699 719 Q 688 729 676 735 Q 665 740 653 744 Q 645 747 639 747 Q 636 747 633 746 Q 625 743 623 738 Q 622 737 622 735 Q 622 731 625 725 L 631 713 Q 633 707 633 694 L 633 684 Q 633 664 632 649 Q 631 634 629 618 L 625 585 L 609 485 C 604 455 646 461 652 490 L 675 595 L 683 628 Z" fill="lightgray" />
    
      <path d="M 795 508 L 811 552 Q 819 573 829 585 L 845 602 Q 848 607 848 613 L 848 616 Q 848 622 830 635 Q 811 647 799 651 Q 789 655 782 655 L 779 655 Q 773 654 755 647 Q 738 640 719 636 Q 699 632 683 628 L 629 618 L 601 614 L 589 612 Q 583 612 549 611 L 537 610 Q 529 610 527 606 Q 527 601 531 596 Q 535 591 542 588 Q 548 585 561 583 Q 575 580 587 580 Q 596 580 604 581 Q 612 582 625 585 L 675 595 L 711 598 L 743 602 Q 747 603 750 603 Q 757 603 760 600 Q 762 599 762 593 Q 762 584 757 562 L 743 501 C 736 472 785 480 795 508 Z" fill="lightgray" />
    
      <path d="M 609 485 L 586 482 Q 563 480 525 476 Q 487 473 477 473 L 467 472 Q 461 472 459 468 Q 458 467 458 465 Q 458 462 461 459 Q 465 454 476 447 L 495 436 Q 501 433 510 433 L 515 433 Q 521 433 537 437 L 574 444 Q 595 448 629 452 Q 663 457 695 460 Q 727 464 768 468 Q 809 471 831 472 L 897 474 L 932 476 Q 965 478 973 482 Q 981 486 981 490 Q 981 494 972 502 Q 963 510 954 514 Q 946 518 928 523 Q 913 528 903 528 L 900 528 Q 897 528 881 524 Q 865 519 836 514 L 815 511 Q 809 510 795 508 L 743 501 L 719 498 Q 687 495 675 494 L 652 490 L 609 485 Z" fill="lightgray" />
    
      <path d="M 565 393 L 547 398 Q 539 401 534 401 Q 531 401 529 400 Q 521 398 520 394 L 520 393 Q 520 389 526 382 Q 532 374 536 367 Q 539 359 544 334 L 553 282 L 559 252 Q 561 239 566 236 Q 570 232 573 232 Q 575 232 576 233 Q 581 234 584 240 Q 586 244 587 252 L 587 284 L 585 340 L 585 355 Q 584 360 581 369 C 574 390 574 390 565 393 Z" fill="lightgray" />
    
      <path d="M 790 294 L 819 341 Q 825 351 830 357 Q 835 363 841 368 Q 847 374 847 378 L 847 380 Q 847 385 841 391 Q 834 398 822 407 Q 810 415 798 422 Q 785 428 781 429 Q 775 429 764 424 Q 753 420 743 418 Q 734 416 708 412 L 641 402 Q 616 398 565 393 C 535 390 551 366 581 369 L 641 376 L 691 382 L 721 384 Q 743 386 747 387 Q 757 387 763 383 Q 766 382 766 374 Q 766 367 763 354 L 753 301 C 747 272 774 268 790 294 Z" fill="lightgray" />
    
      <path d="M 697 260 L 777 264 L 804 264 Q 810 267 810 272 L 810 274 Q 810 279 805 283 Q 799 288 790 294 C 776 303 776 303 753 301 L 587 284 C 557 281 557 250 587 252 L 649 257 L 697 260 Z" fill="lightgray" />
    
      <path d="M 664 189 L 626 186 Q 612 184 579 182 Q 563 181 551 181 Q 540 181 533 182 L 509 182 Q 499 182 495 176 Q 493 174 493 172 Q 493 168 500 163 Q 511 156 519 154 L 573 147 L 597 148 Q 598 148 619 151 Q 641 154 665 156 L 717 161 L 737 163 L 807 168 L 843 172 Q 855 172 863 174 Q 871 176 873 178 Q 874 180 874 182 Q 874 184 873 186 Q 871 192 863 197 Q 855 202 846 207 Q 837 211 829 212 Q 821 212 813 211 L 799 208 Q 797 208 772 203 Q 747 198 742 198 Q 737 197 720 195 L 664 189 Z" fill="lightgray" />
    
      <path d="M 519 154 L 515 132 Q 513 120 506 100 Q 499 81 494 74 L 479 58 Q 478 55 478 51 Q 478 47 479 42 Q 481 32 491 18 Q 501 4 507 4 Q 509 4 519 9 Q 529 14 554 18 Q 580 22 592 24 Q 604 25 621 26 Q 637 27 663 28 L 713 30 L 751 31 L 835 32 L 923 32 Q 929 32 933 36 Q 934 37 934 39 Q 934 43 930 50 Q 924 59 915 66 Q 905 72 896 76 Q 887 80 875 82 Q 865 82 843 80 Q 820 78 781 76 Q 742 74 734 73 Q 727 72 713 71 L 663 67 L 576 60 Q 566 59 560 59 Q 554 59 553 60 L 553 62 Q 553 67 557 83 L 573 147 C 580 176 524 184 519 154 Z" fill="lightgray" />
    
      <path d="M 649 257 L 656 236 Q 657 230 660 216 L 664 189 L 665 156 L 663 67 L 663 28 L 663 -80 Q 663 -90 666 -112 Q 669 -134 673 -148 Q 677 -162 683 -162 L 684 -162 Q 690 -162 694 -154 Q 700 -146 702 -129 L 706 -97 Q 708 -78 709 -63 Q 711 -48 711 -23 L 713 30 L 713 71 L 717 161 L 720 195 L 723 216 L 728 235 Q 727 244 717 250 Q 707 256 697 260 C 670 273 640 285 649 257 Z" fill="lightgray" />
    
    
      <clipPath id="make-me-a-hanzi-clip-0">
        <path d="M 326 528 L 351 531 Q 355 532 371 534 L 413 539 Q 430 541 439 543 L 457 547 Q 465 548 467 554 L 467 556 Q 467 559 464 565 Q 461 571 447 577 Q 433 583 424 586 Q 415 588 406 588 Q 400 586 384 582 Q 368 576 357 574 Q 345 571 335 570 L 281 562 L 249 557 Q 247 556 213 554 Q 181 550 173 550 L 161 550 Q 151 550 149 548 Q 147 546 147 543 L 147 542 Q 147 538 152 534 Q 159 528 167 524 Q 175 520 185 517 Q 194 514 205 514 Q 209 514 223 516 Q 238 518 249 518 Q 260 520 275 521 L 326 528 Z" />
      </clipPath>
      <path clip-path="url(#make-me-a-hanzi-clip-0)" d="M 156 543 L 201 533 L 409 563 L 459 555" fill="none" id="make-me-a-hanzi-animation-0" stroke-dasharray="435 870" stroke-linecap="round" />
    
      <clipPath id="make-me-a-hanzi-clip-1">
        <path d="M 306 436 L 326 528 L 335 570 L 341 596 Q 343 609 349 632 Q 355 656 359 664 Q 362 673 366 680 Q 371 686 371 689 L 371 691 Q 371 698 361 707 Q 349 717 338 722 Q 327 727 313 731 Q 303 733 295 733 L 291 733 Q 283 731 281 727 Q 280 725 280 723 Q 280 719 283 712 L 289 700 Q 292 691 292 678 Q 291 666 288 624 Q 285 583 283 574 L 281 562 L 275 521 L 259 428 C 254 398 300 407 306 436 Z" />
      </clipPath>
      <path clip-path="url(#make-me-a-hanzi-clip-1)" d="M 291 723 L 321 697 L 328 681 L 287 456 L 266 435" fill="none" id="make-me-a-hanzi-animation-1" stroke-dasharray="444 888" stroke-linecap="round" />
    
      <clipPath id="make-me-a-hanzi-clip-2">
        <path d="M 175 414 L 161 416 Q 139 420 134 420 L 132 420 Q 125 419 123 416 L 123 415 Q 123 411 132 400 Q 143 386 147 374 Q 152 361 157 320 L 169 226 Q 173 200 180 193 Q 187 186 193 186 Q 199 187 203 191 Q 209 195 209 215 L 209 241 L 205 300 L 205 328 L 197 396 C 195 411 195 411 175 414 Z" />
      </clipPath>
      <path clip-path="url(#make-me-a-hanzi-clip-2)" d="M 129 416 L 166 390 L 175 373 L 192 200" fill="none" id="make-me-a-hanzi-animation-2" stroke-dasharray="366 732" stroke-linecap="round" />
    
      <clipPath id="make-me-a-hanzi-clip-3">
        <path d="M 366 226 L 372 204 L 375 202 Q 377 201 380 201 L 383 201 Q 389 201 397 204 Q 405 208 415 243 L 447 365 Q 449 378 451 381 Q 453 384 463 405 Q 467 412 467 416 L 467 418 Q 467 423 447 438 Q 427 454 417 458 Q 409 461 404 461 L 402 461 Q 398 460 385 454 Q 371 448 353 444 Q 335 440 306 436 L 259 428 L 239 424 Q 223 421 175 414 C 145 410 167 392 197 396 L 257 404 L 345 416 Q 359 418 370 418 Q 385 418 390 413 Q 394 409 394 399 Q 394 394 393 389 L 387 346 L 385 326 L 373 253 C 368 223 364 232 366 226 Z" />
      </clipPath>
      <path clip-path="url(#make-me-a-hanzi-clip-3)" d="M 184 414 L 203 407 L 387 435 L 414 428 L 427 409 L 392 239 L 387 219 L 379 212" fill="none" id="make-me-a-hanzi-animation-3" stroke-dasharray="590 1180" stroke-linecap="round" />
    
      <clipPath id="make-me-a-hanzi-clip-4">
        <path d="M 387 346 L 367 354 Q 362 357 352 357 Q 347 357 341 356 Q 329 356 310 351 L 251 336 Q 235 332 205 328 C 175 324 175 301 205 300 L 247 298 Q 256 298 291 306 Q 327 314 347 318 Q 367 322 385 326 C 414 332 415 335 387 346 Z" />
      </clipPath>
      <path clip-path="url(#make-me-a-hanzi-clip-4)" d="M 212 307 L 221 315 L 379 342" fill="none" id="make-me-a-hanzi-animation-4" stroke-dasharray="300 600" stroke-linecap="round" />
    
      <clipPath id="make-me-a-hanzi-clip-5">
        <path d="M 318 220 L 337 223 Q 343 224 366 226 C 396 229 402 246 373 253 L 352 258 Q 350 259 346 259 Q 339 259 325 256 Q 304 252 269 248 Q 233 244 209 241 C 179 237 179 218 209 215 L 235 212 L 238 212 Q 245 212 261 214 L 318 220 Z" />
      </clipPath>
      <path clip-path="url(#make-me-a-hanzi-clip-5)" d="M 216 235 L 224 228 L 242 228 L 352 241 L 366 248" fill="none" id="make-me-a-hanzi-animation-5" stroke-dasharray="283 566" stroke-linecap="round" />
    
      <clipPath id="make-me-a-hanzi-clip-6">
        <path d="M 277 128 L 239 122 L 161 113 Q 120 108 105 106 Q 89 104 72 104 L 57 102 Q 47 102 46 95 L 46 94 Q 46 87 56 79 Q 67 70 73 66 Q 78 63 89 59 Q 99 55 106 55 L 109 55 Q 115 55 129 61 Q 144 66 158 70 Q 172 74 206 80 Q 240 86 249 88 Q 259 89 276 92 L 327 99 L 349 102 L 382 106 L 441 111 L 471 114 Q 479 114 480 121 L 480 123 Q 480 128 475 132 Q 469 138 457 142 Q 447 145 437 147 Q 428 150 419 150 Q 411 149 393 146 Q 375 144 363 141 Q 351 139 327 134 L 277 128 Z" />
      </clipPath>
      <path clip-path="url(#make-me-a-hanzi-clip-6)" d="M 54 95 L 105 80 L 171 95 L 387 126 L 422 130 L 472 122" fill="none" id="make-me-a-hanzi-animation-6" stroke-dasharray="553 1106" stroke-linecap="round" />
    
      <clipPath id="make-me-a-hanzi-clip-7">
        <path d="M 261 214 L 268 199 Q 269 195 273 175 Q 277 155 277 148 L 277 128 L 276 92 L 275 47 Q 275 37 271 8 Q 268 -22 266 -35 Q 265 -48 265 -54 L 265 -60 Q 265 -71 268 -84 Q 272 -100 281 -112 Q 291 -126 296 -126 Q 302 -125 310 -115 Q 317 -104 321 -92 Q 325 -80 325 -60 Q 326 -50 326 -38 Q 326 -26 325 -12 Q 324 7 324 16 L 324 23 L 327 99 L 327 134 L 329 154 Q 329 166 333 177 Q 339 192 339 198 L 339 199 Q 337 204 332 208 Q 327 214 318 220 C 294 238 248 241 261 214 Z" />
      </clipPath>
      <path clip-path="url(#make-me-a-hanzi-clip-7)" d="M 268 213 L 303 187 L 296 -118" fill="none" id="make-me-a-hanzi-animation-7" stroke-dasharray="477 954" stroke-linecap="round" />
    
      <clipPath id="make-me-a-hanzi-clip-8">
        <path d="M 683 628 L 689 649 Q 693 667 696 676 Q 700 686 705 692 Q 709 699 709 702 L 709 704 Q 709 710 699 719 Q 688 729 676 735 Q 665 740 653 744 Q 645 747 639 747 Q 636 747 633 746 Q 625 743 623 738 Q 622 737 622 735 Q 622 731 625 725 L 631 713 Q 633 707 633 694 L 633 684 Q 633 664 632 649 Q 631 634 629 618 L 625 585 L 609 485 C 604 455 646 461 652 490 L 675 595 L 683 628 Z" />
      </clipPath>
      <path clip-path="url(#make-me-a-hanzi-clip-8)" d="M 633 733 L 652 722 L 668 699 L 634 509 L 616 491" fill="none" id="make-me-a-hanzi-animation-8" stroke-dasharray="396 792" stroke-linecap="round" />
    
      <clipPath id="make-me-a-hanzi-clip-9">
        <path d="M 795 508 L 811 552 Q 819 573 829 585 L 845 602 Q 848 607 848 613 L 848 616 Q 848 622 830 635 Q 811 647 799 651 Q 789 655 782 655 L 779 655 Q 773 654 755 647 Q 738 640 719 636 Q 699 632 683 628 L 629 618 L 601 614 L 589 612 Q 583 612 549 611 L 537 610 Q 529 610 527 606 Q 527 601 531 596 Q 535 591 542 588 Q 548 585 561 583 Q 575 580 587 580 Q 596 580 604 581 Q 612 582 625 585 L 675 595 L 711 598 L 743 602 Q 747 603 750 603 Q 757 603 760 600 Q 762 599 762 593 Q 762 584 757 562 L 743 501 C 736 472 785 480 795 508 Z" />
      </clipPath>
      <path clip-path="url(#make-me-a-hanzi-clip-9)" d="M 534 603 L 582 595 L 757 625 L 784 622 L 798 607 L 779 539 L 773 527 L 749 508" fill="none" id="make-me-a-hanzi-animation-9" stroke-dasharray="517 1034" stroke-linecap="round" />
    
      <clipPath id="make-me-a-hanzi-clip-10">
        <path d="M 609 485 L 586 482 Q 563 480 525 476 Q 487 473 477 473 L 467 472 Q 461 472 459 468 Q 458 467 458 465 Q 458 462 461 459 Q 465 454 476 447 L 495 436 Q 501 433 510 433 L 515 433 Q 521 433 537 437 L 574 444 Q 595 448 629 452 Q 663 457 695 460 Q 727 464 768 468 Q 809 471 831 472 L 897 474 L 932 476 Q 965 478 973 482 Q 981 486 981 490 Q 981 494 972 502 Q 963 510 954 514 Q 946 518 928 523 Q 913 528 903 528 L 900 528 Q 897 528 881 524 Q 865 519 836 514 L 815 511 Q 809 510 795 508 L 743 501 L 719 498 Q 687 495 675 494 L 652 490 L 609 485 Z" />
      </clipPath>
      <path clip-path="url(#make-me-a-hanzi-clip-10)" d="M 465 465 L 513 454 L 901 501 L 971 492" fill="none" id="make-me-a-hanzi-animation-10" stroke-dasharray="639 1278" stroke-linecap="round" />
    
      <clipPath id="make-me-a-hanzi-clip-11">
        <path d="M 565 393 L 547 398 Q 539 401 534 401 Q 531 401 529 400 Q 521 398 520 394 L 520 393 Q 520 389 526 382 Q 532 374 536 367 Q 539 359 544 334 L 553 282 L 559 252 Q 561 239 566 236 Q 570 232 573 232 Q 575 232 576 233 Q 581 234 584 240 Q 586 244 587 252 L 587 284 L 585 340 L 585 355 Q 584 360 581 369 C 574 390 574 390 565 393 Z" />
      </clipPath>
      <path clip-path="url(#make-me-a-hanzi-clip-11)" d="M 527 394 L 554 376 L 560 364 L 572 239" fill="none" id="make-me-a-hanzi-animation-11" stroke-dasharray="299 598" stroke-linecap="round" />
    
      <clipPath id="make-me-a-hanzi-clip-12">
        <path d="M 790 294 L 819 341 Q 825 351 830 357 Q 835 363 841 368 Q 847 374 847 378 L 847 380 Q 847 385 841 391 Q 834 398 822 407 Q 810 415 798 422 Q 785 428 781 429 Q 775 429 764 424 Q 753 420 743 418 Q 734 416 708 412 L 641 402 Q 616 398 565 393 C 535 390 551 366 581 369 L 641 376 L 691 382 L 721 384 Q 743 386 747 387 Q 757 387 763 383 Q 766 382 766 374 Q 766 367 763 354 L 753 301 C 747 272 774 268 790 294 Z" />
      </clipPath>
      <path clip-path="url(#make-me-a-hanzi-clip-12)" d="M 575 391 L 587 381 L 778 403 L 801 378 L 779 319 L 760 306" fill="none" id="make-me-a-hanzi-animation-12" stroke-dasharray="456 912" stroke-linecap="round" />
    
      <clipPath id="make-me-a-hanzi-clip-13">
        <path d="M 697 260 L 777 264 L 804 264 Q 810 267 810 272 L 810 274 Q 810 279 805 283 Q 799 288 790 294 C 776 303 776 303 753 301 L 587 284 C 557 281 557 250 587 252 L 649 257 L 697 260 Z" />
      </clipPath>
      <path clip-path="url(#make-me-a-hanzi-clip-13)" d="M 594 257 L 601 268 L 747 282 L 800 273" fill="none" id="make-me-a-hanzi-animation-13" stroke-dasharray="341 682" stroke-linecap="round" />
    
      <clipPath id="make-me-a-hanzi-clip-14">
        <path d="M 664 189 L 626 186 Q 612 184 579 182 Q 563 181 551 181 Q 540 181 533 182 L 509 182 Q 499 182 495 176 Q 493 174 493 172 Q 493 168 500 163 Q 511 156 519 154 L 573 147 L 597 148 Q 598 148 619 151 Q 641 154 665 156 L 717 161 L 737 163 L 807 168 L 843 172 Q 855 172 863 174 Q 871 176 873 178 Q 874 180 874 182 Q 874 184 873 186 Q 871 192 863 197 Q 855 202 846 207 Q 837 211 829 212 Q 821 212 813 211 L 799 208 Q 797 208 772 203 Q 747 198 742 198 Q 737 197 720 195 L 664 189 Z" />
      </clipPath>
      <path clip-path="url(#make-me-a-hanzi-clip-14)" d="M 501 171 L 578 164 L 819 191 L 866 182" fill="none" id="make-me-a-hanzi-animation-14" stroke-dasharray="496 992" stroke-linecap="round" />
    
      <clipPath id="make-me-a-hanzi-clip-15">
        <path d="M 519 154 L 515 132 Q 513 120 506 100 Q 499 81 494 74 L 479 58 Q 478 55 478 51 Q 478 47 479 42 Q 481 32 491 18 Q 501 4 507 4 Q 509 4 519 9 Q 529 14 554 18 Q 580 22 592 24 Q 604 25 621 26 Q 637 27 663 28 L 713 30 L 751 31 L 835 32 L 923 32 Q 929 32 933 36 Q 934 37 934 39 Q 934 43 930 50 Q 924 59 915 66 Q 905 72 896 76 Q 887 80 875 82 Q 865 82 843 80 Q 820 78 781 76 Q 742 74 734 73 Q 727 72 713 71 L 663 67 L 576 60 Q 566 59 560 59 Q 554 59 553 60 L 553 62 Q 553 67 557 83 L 573 147 C 580 176 524 184 519 154 Z" />
      </clipPath>
      <path clip-path="url(#make-me-a-hanzi-clip-15)" d="M 565 142 L 540 125 L 519 48 L 525 44 L 559 38 L 872 57 L 908 50 L 926 40" fill="none" id="make-me-a-hanzi-animation-15" stroke-dasharray="651 1302" stroke-linecap="round" />
    
      <clipPath id="make-me-a-hanzi-clip-16">
        <path d="M 649 257 L 656 236 Q 657 230 660 216 L 664 189 L 665 156 L 663 67 L 663 28 L 663 -80 Q 663 -90 666 -112 Q 669 -134 673 -148 Q 677 -162 683 -162 L 684 -162 Q 690 -162 694 -154 Q 700 -146 702 -129 L 706 -97 Q 708 -78 709 -63 Q 711 -48 711 -23 L 713 30 L 713 71 L 717 161 L 720 195 L 723 216 L 728 235 Q 727 244 717 250 Q 707 256 697 260 C 670 273 640 285 649 257 Z" />
      </clipPath>
      <path clip-path="url(#make-me-a-hanzi-clip-16)" d="M 655 253 L 692 226 L 684 -155" fill="none" id="make-me-a-hanzi-animation-16" stroke-dasharray="555 1110" stroke-linecap="round" />
    
  </g>
</svg>