<svg xmlns="http://www.w3.org/2000/svg" version="1.1" viewBox="0 0 1024 1024">
  <g stroke="lightgray" stroke-dasharray="1,1" stroke-width="1" transform="scale(4, 4)">
    <line x1="0" y1="0" x2="256" y2="256" />
    <line x1="256" y1="0" x2="0" y2="256" />
    <line x1="128" y1="0" x2="128" y2="256" />
    <line x1="0" y1="128" x2="256" y2="128" />
  </g>
  <g transform="scale(1.0, -1.0) translate(0.0, -805.50)">
    <style type="text/css">
      
        @keyframes keyframes0 {
          from {
            stroke: blue;
            stroke-dashoffset: 530;
            stroke-width: 128;
          }
          63% {
            animation-timing-function: step-end;
            stroke: blue;
            stroke-dashoffset: 0;
            stroke-width: 128;
          }
          to {
            stroke: black;
            stroke-width: 1024;
          }
        }
        #make-me-a-hanzi-animation-0 {
          animation: keyframes0 0.6813151041666666s both;
          animation-delay: 0s;
          animation-timing-function: linear;
        }
      
        @keyframes keyframes1 {
          from {
            stroke: blue;
            stroke-dashoffset: 630;
            stroke-width: 128;
          }
          67% {
            animation-timing-function: step-end;
            stroke: blue;
            stroke-dashoffset: 0;
            stroke-width: 128;
          }
          to {
            stroke: black;
            stroke-width: 1024;
          }
        }
        #make-me-a-hanzi-animation-1 {
          animation: keyframes1 0.7626953125s both;
          animation-delay: 0.6813151041666666s;
          animation-timing-function: linear;
        }
      
        @keyframes keyframes2 {
          from {
            stroke: blue;
            stroke-dashoffset: 725;
            stroke-width: 128;
          }
          70% {
            animation-timing-function: step-end;
            stroke: blue;
            stroke-dashoffset: 0;
            stroke-width: 128;
          }
          to {
            stroke: black;
            stroke-width: 1024;
          }
        }
        #make-me-a-hanzi-animation-2 {
          animation: keyframes2 0.8400065104166666s both;
          animation-delay: 1.4440104166666665s;
          animation-timing-function: linear;
        }
      
        @keyframes keyframes3 {
          from {
            stroke: blue;
            stroke-dashoffset: 419;
            stroke-width: 128;
          }
          58% {
            animation-timing-function: step-end;
            stroke: blue;
            stroke-dashoffset: 0;
            stroke-width: 128;
          }
          to {
            stroke: black;
            stroke-width: 1024;
          }
        }
        #make-me-a-hanzi-animation-3 {
          animation: keyframes3 0.5909830729166666s both;
          animation-delay: 2.284016927083333s;
          animation-timing-function: linear;
        }
      
        @keyframes keyframes4 {
          from {
            stroke: blue;
            stroke-dashoffset: 587;
            stroke-width: 128;
          }
          66% {
            animation-timing-function: step-end;
            stroke: blue;
            stroke-dashoffset: 0;
            stroke-width: 128;
          }
          to {
            stroke: black;
            stroke-width: 1024;
          }
        }
        #make-me-a-hanzi-animation-4 {
          animation: keyframes4 0.7277018229166666s both;
          animation-delay: 2.8749999999999996s;
          animation-timing-function: linear;
        }
      
        @keyframes keyframes5 {
          from {
            stroke: blue;
            stroke-dashoffset: 471;
            stroke-width: 128;
          }
          61% {
            animation-timing-function: step-end;
            stroke: blue;
            stroke-dashoffset: 0;
            stroke-width: 128;
          }
          to {
            stroke: black;
            stroke-width: 1024;
          }
        }
        #make-me-a-hanzi-animation-5 {
          animation: keyframes5 0.63330078125s both;
          animation-delay: 3.602701822916666s;
          animation-timing-function: linear;
        }
      
        @keyframes keyframes6 {
          from {
            stroke: blue;
            stroke-dashoffset: 599;
            stroke-width: 128;
          }
          66% {
            animation-timing-function: step-end;
            stroke: blue;
            stroke-dashoffset: 0;
            stroke-width: 128;
          }
          to {
            stroke: black;
            stroke-width: 1024;
          }
        }
        #make-me-a-hanzi-animation-6 {
          animation: keyframes6 0.7374674479166666s both;
          animation-delay: 4.236002604166666s;
          animation-timing-function: linear;
        }
      
        @keyframes keyframes7 {
          from {
            stroke: blue;
            stroke-dashoffset: 737;
            stroke-width: 128;
          }
          71% {
            animation-timing-function: step-end;
            stroke: blue;
            stroke-dashoffset: 0;
            stroke-width: 128;
          }
          to {
            stroke: black;
            stroke-width: 1024;
          }
        }
        #make-me-a-hanzi-animation-7 {
          animation: keyframes7 0.8497721354166666s both;
          animation-delay: 4.973470052083333s;
          animation-timing-function: linear;
        }
      
        @keyframes keyframes8 {
          from {
            stroke: blue;
            stroke-dashoffset: 661;
            stroke-width: 128;
          }
          68% {
            animation-timing-function: step-end;
            stroke: blue;
            stroke-dashoffset: 0;
            stroke-width: 128;
          }
          to {
            stroke: black;
            stroke-width: 1024;
          }
        }
        #make-me-a-hanzi-animation-8 {
          animation: keyframes8 0.7879231770833334s both;
          animation-delay: 5.8232421875s;
          animation-timing-function: linear;
        }
      
        @keyframes keyframes9 {
          from {
            stroke: blue;
            stroke-dashoffset: 1242;
            stroke-width: 128;
          }
          80% {
            animation-timing-function: step-end;
            stroke: blue;
            stroke-dashoffset: 0;
            stroke-width: 128;
          }
          to {
            stroke: black;
            stroke-width: 1024;
          }
        }
        #make-me-a-hanzi-animation-9 {
          animation: keyframes9 1.2607421875s both;
          animation-delay: 6.611165364583333s;
          animation-timing-function: linear;
        }
      
        @keyframes keyframes10 {
          from {
            stroke: blue;
            stroke-dashoffset: 845;
            stroke-width: 128;
          }
          73% {
            animation-timing-function: step-end;
            stroke: blue;
            stroke-dashoffset: 0;
            stroke-width: 128;
          }
          to {
            stroke: black;
            stroke-width: 1024;
          }
        }
        #make-me-a-hanzi-animation-10 {
          animation: keyframes10 0.9376627604166666s both;
          animation-delay: 7.871907552083333s;
          animation-timing-function: linear;
        }
      
        @keyframes keyframes11 {
          from {
            stroke: blue;
            stroke-dashoffset: 391;
            stroke-width: 128;
          }
          56% {
            animation-timing-function: step-end;
            stroke: blue;
            stroke-dashoffset: 0;
            stroke-width: 128;
          }
          to {
            stroke: black;
            stroke-width: 1024;
          }
        }
        #make-me-a-hanzi-animation-11 {
          animation: keyframes11 0.5681966145833334s both;
          animation-delay: 8.8095703125s;
          animation-timing-function: linear;
        }
      
    </style>
    
      <path d="M 260 579 L 242 482 C 237 453 282 460 290 489 L 316 587 L 325 621 L 334 651 Q 338 668 344 678 L 352 689 Q 354 694 354 698 L 354 700 Q 353 705 343 714 Q 332 724 309 733 Q 286 742 276 742 Q 267 742 264 739 Q 262 737 262 734 L 262 732 Q 262 728 268 716 Q 273 706 273 690 L 273 684 Q 273 664 270 647 Q 268 630 265 611 L 260 579 Z" fill="lightgray" />
    
      <path d="M 442 511 L 454 542 Q 460 560 468 574 Q 476 588 482 595 Q 490 602 490 605 L 490 607 Q 490 614 478 624 Q 464 637 449 644 Q 434 650 426 650 Q 423 649 411 643 Q 398 637 379 632 Q 360 626 352 625 Q 344 624 325 621 L 265 611 L 242 607 Q 226 604 202 604 L 184 604 Q 176 604 172 597 Q 171 595 171 593 Q 171 588 181 583 Q 195 576 202 574 Q 208 574 220 573 Q 230 573 260 579 L 316 587 L 347 591 L 384 597 L 390 597 Q 397 597 400 595 Q 404 592 404 582 Q 404 572 402 561 L 398 539 Q 395 526 389 502 C 382 473 431 483 442 511 Z" fill="lightgray" />
    
      <path d="M 242 482 L 147 470 L 114 466 L 96 465 Q 91 462 90 459 L 90 457 Q 90 452 99 445 Q 109 438 121 434 Q 134 430 143 430 Q 153 430 185 436 L 212 441 Q 246 447 286 453 Q 327 458 352 460 Q 378 462 434 466 Q 490 470 513 472 L 549 474 Q 562 476 565 478 Q 569 480 570 486 Q 570 493 546 505 Q 522 518 516 519 Q 512 520 506 520 L 500 520 Q 495 520 482 517 Q 468 514 442 511 L 389 502 L 290 489 L 242 482 Z" fill="lightgray" />
    
      <path d="M 211 386 L 194 386 L 170 390 Q 158 388 158 382 L 158 381 Q 158 379 165 373 Q 172 366 177 354 Q 182 342 184 333 L 198 253 Q 200 239 205 232 Q 209 227 214 227 L 216 227 Q 222 228 225 233 Q 228 238 229 244 L 230 278 L 224 363 C 222 386 222 386 211 386 Z" fill="lightgray" />
    
      <path d="M 432 287 L 454 329 L 463 344 Q 473 360 476 362 L 489 373 Q 490 375 490 377 Q 490 383 485 389 Q 478 399 470 405 L 449 418 Q 436 426 430 427 Q 424 427 410 422 Q 396 416 378 412 L 317 402 Q 274 395 258 392 Q 241 390 211 386 C 181 382 194 358 224 363 L 266 370 Q 308 378 360 382 L 384 384 L 389 384 Q 401 384 406 380 Q 411 376 411 371 Q 410 366 408 355 L 393 295 C 386 266 418 260 432 287 Z" fill="lightgray" />
    
      <path d="M 334 253 L 364 256 Q 386 258 416 258 L 434 258 Q 446 258 448 260 Q 451 260 452 267 Q 452 272 446 276 Q 442 281 432 287 C 416 297 416 297 393 295 L 354 291 L 254 281 L 230 278 C 200 274 199 241 229 244 L 288 250 L 334 253 Z" fill="lightgray" />
    
      <path d="M 346 146 L 470 156 Q 480 156 483 160 Q 485 162 485 165 Q 485 168 482 174 Q 478 184 464 190 Q 450 196 443 196 Q 436 196 424 194 Q 412 192 394 188 Q 376 186 348 181 L 298 177 L 268 173 Q 254 171 224 170 L 176 170 L 156 171 L 147 171 Q 135 171 130 169 Q 127 167 127 163 L 127 161 Q 128 156 132 152 Q 136 148 144 139 C 153 129 168 130 198 132 L 229 134 Q 234 134 257 136 Q 281 139 300 141 L 346 146 Z" fill="lightgray" />
    
      <path d="M 342 26 L 360 27 L 379 28 Q 402 29 428 29 L 482 28 L 500 28 Q 514 28 515 34 L 515 35 Q 515 41 507 49 Q 498 58 488 63 Q 479 68 466 70 Q 455 70 422 67 L 370 64 Q 360 62 342 61 L 297 57 L 224 50 Q 205 48 191 46 Q 185 45 180 45 Q 176 45 174 46 Q 173 47 173 50 Q 173 55 177 66 Q 184 83 188 98 Q 192 114 198 132 C 207 161 149 169 144 139 L 140 116 L 128 75 Q 126 64 123 59 Q 120 55 114 50 Q 108 44 108 42 Q 107 41 107 39 Q 107 35 110 29 Q 115 20 122 12 Q 128 4 136 0 Q 142 -4 146 -4 Q 149 -4 157 1 Q 166 6 187 11 Q 209 16 220 17 L 298 24 L 342 26 Z" fill="lightgray" />
    
      <path d="M 298 24 L 298 -36 L 296 -60 Q 294 -68 292 -82 Q 290 -94 290 -95 L 290 -99 Q 290 -106 292 -112 Q 294 -120 300 -133 Q 306 -145 310 -150 Q 314 -155 318 -155 L 319 -155 Q 323 -155 328 -146 Q 336 -137 339 -130 Q 346 -115 346 -101 Q 346 -86 344 -66 Q 342 -46 342 -25 L 342 26 L 342 61 L 346 146 L 348 181 L 352 199 Q 353 210 356 222 Q 359 229 359 233 Q 359 235 358 236 Q 356 240 350 244 Q 344 248 334 253 C 308 267 280 279 288 250 L 294 227 Q 296 218 297 206 Q 298 193 298 177 L 300 141 L 297 57 L 298 24 Z" fill="lightgray" />
    
      <path d="M 727 433 L 776 440 L 816 444 L 824 444 Q 832 444 837 443 Q 846 442 850 435 Q 854 429 854 417 Q 854 408 852 380 L 848 317 L 832 173 L 820 99 L 806 29 Q 800 8 792 -8 Q 784 -23 776 -25 L 773 -25 Q 766 -25 754 -20 L 728 -8 L 704 2 Q 699 4 695 4 Q 692 4 689 2 Q 687 0 687 -3 Q 687 -6 690 -10 L 699 -20 L 712 -34 Q 712 -35 728 -61 L 741 -82 L 750 -105 Q 756 -116 764 -118 L 767 -118 Q 777 -118 790 -110 Q 807 -100 824 -74 Q 842 -48 852 -18 Q 862 12 866 34 Q 870 55 874 93 L 884 163 L 904 310 Q 905 324 911 356 Q 918 389 920 400 Q 924 412 930 423 Q 939 439 939 447 L 939 448 Q 938 455 919 468 Q 900 480 879 490 Q 860 498 852 498 L 850 498 Q 848 498 837 492 Q 826 487 804 483 L 741 470 Q 735 468 675 459 Q 615 450 604 449 L 565 446 Q 549 444 548 439 L 548 438 Q 548 433 556 427 Q 564 419 578 412 Q 590 405 600 405 L 602 405 Q 606 405 618 408 Q 630 412 641 414 Q 652 416 670 420 L 727 433 Z" fill="lightgray" />
    
      <path d="M 640 186 L 618 128 Q 604 88 572 46 Q 539 4 512 -18 L 484 -40 L 456 -62 Q 452 -66 452 -69 Q 452 -71 453 -72 Q 455 -75 459 -75 Q 462 -75 467 -73 L 490 -65 Q 506 -60 541 -38 Q 576 -16 606 16 Q 637 48 660 97 Q 682 145 697 192 Q 712 240 724 299 Q 736 358 740 369 Q 743 380 745 385 Q 746 390 749 396 Q 752 406 752 411 Q 751 416 744 422 Q 738 427 727 433 C 702 449 666 450 670 420 L 674 392 Q 675 388 675 380 Q 675 369 673 351 Q 670 322 667 300 Q 664 278 652 222 L 640 186 Z" fill="lightgray" />
    
      <path d="M 652 222 L 646 241 Q 644 249 634 260 Q 625 270 608 280 Q 592 289 572 297 L 552 305 Q 548 306 546 306 Q 541 306 540 303 Q 539 301 539 298 Q 539 295 540 292 L 558 264 L 576 232 Q 588 212 600 198 Q 612 185 620 184 L 625 184 Q 632 184 640 186 C 662 191 661 193 652 222 Z" fill="lightgray" />
    
    
      <clipPath id="make-me-a-hanzi-clip-0">
        <path d="M 260 579 L 242 482 C 237 453 282 460 290 489 L 316 587 L 325 621 L 334 651 Q 338 668 344 678 L 352 689 Q 354 694 354 698 L 354 700 Q 353 705 343 714 Q 332 724 309 733 Q 286 742 276 742 Q 267 742 264 739 Q 262 737 262 734 L 262 732 Q 262 728 268 716 Q 273 706 273 690 L 273 684 Q 273 664 270 647 Q 268 630 265 611 L 260 579 Z" />
      </clipPath>
      <path clip-path="url(#make-me-a-hanzi-clip-0)" d="M 272 733 L 310 692 L 273 516 L 247 488" fill="none" id="make-me-a-hanzi-animation-0" stroke-dasharray="402 804" stroke-linecap="round" />
    
      <clipPath id="make-me-a-hanzi-clip-1">
        <path d="M 442 511 L 454 542 Q 460 560 468 574 Q 476 588 482 595 Q 490 602 490 605 L 490 607 Q 490 614 478 624 Q 464 637 449 644 Q 434 650 426 650 Q 423 649 411 643 Q 398 637 379 632 Q 360 626 352 625 Q 344 624 325 621 L 265 611 L 242 607 Q 226 604 202 604 L 184 604 Q 176 604 172 597 Q 171 595 171 593 Q 171 588 181 583 Q 195 576 202 574 Q 208 574 220 573 Q 230 573 260 579 L 316 587 L 347 591 L 384 597 L 390 597 Q 397 597 400 595 Q 404 592 404 582 Q 404 572 402 561 L 398 539 Q 395 526 389 502 C 382 473 431 483 442 511 Z" />
      </clipPath>
      <path clip-path="url(#make-me-a-hanzi-clip-1)" d="M 181 593 L 233 589 L 390 616 L 431 613 L 439 600 L 423 534 L 395 508" fill="none" id="make-me-a-hanzi-animation-1" stroke-dasharray="502 1004" stroke-linecap="round" />
    
      <clipPath id="make-me-a-hanzi-clip-2">
        <path d="M 242 482 L 147 470 L 114 466 L 96 465 Q 91 462 90 459 L 90 457 Q 90 452 99 445 Q 109 438 121 434 Q 134 430 143 430 Q 153 430 185 436 L 212 441 Q 246 447 286 453 Q 327 458 352 460 Q 378 462 434 466 Q 490 470 513 472 L 549 474 Q 562 476 565 478 Q 569 480 570 486 Q 570 493 546 505 Q 522 518 516 519 Q 512 520 506 520 L 500 520 Q 495 520 482 517 Q 468 514 442 511 L 389 502 L 290 489 L 242 482 Z" />
      </clipPath>
      <path clip-path="url(#make-me-a-hanzi-clip-2)" d="M 97 458 L 140 449 L 503 496 L 561 486" fill="none" id="make-me-a-hanzi-animation-2" stroke-dasharray="597 1194" stroke-linecap="round" />
    
      <clipPath id="make-me-a-hanzi-clip-3">
        <path d="M 211 386 L 194 386 L 170 390 Q 158 388 158 382 L 158 381 Q 158 379 165 373 Q 172 366 177 354 Q 182 342 184 333 L 198 253 Q 200 239 205 232 Q 209 227 214 227 L 216 227 Q 222 228 225 233 Q 228 238 229 244 L 230 278 L 224 363 C 222 386 222 386 211 386 Z" />
      </clipPath>
      <path clip-path="url(#make-me-a-hanzi-clip-3)" d="M 167 382 L 198 364 L 202 354 L 215 238" fill="none" id="make-me-a-hanzi-animation-3" stroke-dasharray="291 582" stroke-linecap="round" />
    
      <clipPath id="make-me-a-hanzi-clip-4">
        <path d="M 432 287 L 454 329 L 463 344 Q 473 360 476 362 L 489 373 Q 490 375 490 377 Q 490 383 485 389 Q 478 399 470 405 L 449 418 Q 436 426 430 427 Q 424 427 410 422 Q 396 416 378 412 L 317 402 Q 274 395 258 392 Q 241 390 211 386 C 181 382 194 358 224 363 L 266 370 Q 308 378 360 382 L 384 384 L 389 384 Q 401 384 406 380 Q 411 376 411 371 Q 410 366 408 355 L 393 295 C 386 266 418 260 432 287 Z" />
      </clipPath>
      <path clip-path="url(#make-me-a-hanzi-clip-4)" d="M 221 384 L 230 376 L 243 377 L 309 391 L 424 400 L 445 380 L 442 367 L 423 318 L 401 301" fill="none" id="make-me-a-hanzi-animation-4" stroke-dasharray="459 918" stroke-linecap="round" />
    
      <clipPath id="make-me-a-hanzi-clip-5">
        <path d="M 334 253 L 364 256 Q 386 258 416 258 L 434 258 Q 446 258 448 260 Q 451 260 452 267 Q 452 272 446 276 Q 442 281 432 287 C 416 297 416 297 393 295 L 354 291 L 254 281 L 230 278 C 200 274 199 241 229 244 L 288 250 L 334 253 Z" />
      </clipPath>
      <path clip-path="url(#make-me-a-hanzi-clip-5)" d="M 236 249 L 247 263 L 375 276 L 443 268" fill="none" id="make-me-a-hanzi-animation-5" stroke-dasharray="343 686" stroke-linecap="round" />
    
      <clipPath id="make-me-a-hanzi-clip-6">
        <path d="M 346 146 L 470 156 Q 480 156 483 160 Q 485 162 485 165 Q 485 168 482 174 Q 478 184 464 190 Q 450 196 443 196 Q 436 196 424 194 Q 412 192 394 188 Q 376 186 348 181 L 298 177 L 268 173 Q 254 171 224 170 L 176 170 L 156 171 L 147 171 Q 135 171 130 169 Q 127 167 127 163 L 127 161 Q 128 156 132 152 Q 136 148 144 139 C 153 129 168 130 198 132 L 229 134 Q 234 134 257 136 Q 281 139 300 141 L 346 146 Z" />
      </clipPath>
      <path clip-path="url(#make-me-a-hanzi-clip-6)" d="M 135 163 L 152 155 L 205 151 L 440 175 L 474 166" fill="none" id="make-me-a-hanzi-animation-6" stroke-dasharray="471 942" stroke-linecap="round" />
    
      <clipPath id="make-me-a-hanzi-clip-7">
        <path d="M 342 26 L 360 27 L 379 28 Q 402 29 428 29 L 482 28 L 500 28 Q 514 28 515 34 L 515 35 Q 515 41 507 49 Q 498 58 488 63 Q 479 68 466 70 Q 455 70 422 67 L 370 64 Q 360 62 342 61 L 297 57 L 224 50 Q 205 48 191 46 Q 185 45 180 45 Q 176 45 174 46 Q 173 47 173 50 Q 173 55 177 66 Q 184 83 188 98 Q 192 114 198 132 C 207 161 149 169 144 139 L 140 116 L 128 75 Q 126 64 123 59 Q 120 55 114 50 Q 108 44 108 42 Q 107 41 107 39 Q 107 35 110 29 Q 115 20 122 12 Q 128 4 136 0 Q 142 -4 146 -4 Q 149 -4 157 1 Q 166 6 187 11 Q 209 16 220 17 L 298 24 L 342 26 Z" />
      </clipPath>
      <path clip-path="url(#make-me-a-hanzi-clip-7)" d="M 191 128 L 165 110 L 153 75 L 147 30 L 173 26 L 247 37 L 433 49 L 468 49 L 510 35" fill="none" id="make-me-a-hanzi-animation-7" stroke-dasharray="609 1218" stroke-linecap="round" />
    
      <clipPath id="make-me-a-hanzi-clip-8">
        <path d="M 298 24 L 298 -36 L 296 -60 Q 294 -68 292 -82 Q 290 -94 290 -95 L 290 -99 Q 290 -106 292 -112 Q 294 -120 300 -133 Q 306 -145 310 -150 Q 314 -155 318 -155 L 319 -155 Q 323 -155 328 -146 Q 336 -137 339 -130 Q 346 -115 346 -101 Q 346 -86 344 -66 Q 342 -46 342 -25 L 342 26 L 342 61 L 346 146 L 348 181 L 352 199 Q 353 210 356 222 Q 359 229 359 233 Q 359 235 358 236 Q 356 240 350 244 Q 344 248 334 253 C 308 267 280 279 288 250 L 294 227 Q 296 218 297 206 Q 298 193 298 177 L 300 141 L 297 57 L 298 24 Z" />
      </clipPath>
      <path clip-path="url(#make-me-a-hanzi-clip-8)" d="M 296 246 L 326 222 L 319 -145" fill="none" id="make-me-a-hanzi-animation-8" stroke-dasharray="533 1066" stroke-linecap="round" />
    
      <clipPath id="make-me-a-hanzi-clip-9">
        <path d="M 727 433 L 776 440 L 816 444 L 824 444 Q 832 444 837 443 Q 846 442 850 435 Q 854 429 854 417 Q 854 408 852 380 L 848 317 L 832 173 L 820 99 L 806 29 Q 800 8 792 -8 Q 784 -23 776 -25 L 773 -25 Q 766 -25 754 -20 L 728 -8 L 704 2 Q 699 4 695 4 Q 692 4 689 2 Q 687 0 687 -3 Q 687 -6 690 -10 L 699 -20 L 712 -34 Q 712 -35 728 -61 L 741 -82 L 750 -105 Q 756 -116 764 -118 L 767 -118 Q 777 -118 790 -110 Q 807 -100 824 -74 Q 842 -48 852 -18 Q 862 12 866 34 Q 870 55 874 93 L 884 163 L 904 310 Q 905 324 911 356 Q 918 389 920 400 Q 924 412 930 423 Q 939 439 939 447 L 939 448 Q 938 455 919 468 Q 900 480 879 490 Q 860 498 852 498 L 850 498 Q 848 498 837 492 Q 826 487 804 483 L 741 470 Q 735 468 675 459 Q 615 450 604 449 L 565 446 Q 549 444 548 439 L 548 438 Q 548 433 556 427 Q 564 419 578 412 Q 590 405 600 405 L 602 405 Q 606 405 618 408 Q 630 412 641 414 Q 652 416 670 420 L 727 433 Z" />
      </clipPath>
      <path clip-path="url(#make-me-a-hanzi-clip-9)" d="M 553 439 L 602 427 L 854 468 L 872 459 L 892 435 L 846 87 L 822 -15 L 799 -51 L 779 -66 L 694 -3" fill="none" id="make-me-a-hanzi-animation-9" stroke-dasharray="1114 2228" stroke-linecap="round" />
    
      <clipPath id="make-me-a-hanzi-clip-10">
        <path d="M 640 186 L 618 128 Q 604 88 572 46 Q 539 4 512 -18 L 484 -40 L 456 -62 Q 452 -66 452 -69 Q 452 -71 453 -72 Q 455 -75 459 -75 Q 462 -75 467 -73 L 490 -65 Q 506 -60 541 -38 Q 576 -16 606 16 Q 637 48 660 97 Q 682 145 697 192 Q 712 240 724 299 Q 736 358 740 369 Q 743 380 745 385 Q 746 390 749 396 Q 752 406 752 411 Q 751 416 744 422 Q 738 427 727 433 C 702 449 666 450 670 420 L 674 392 Q 675 388 675 380 Q 675 369 673 351 Q 670 322 667 300 Q 664 278 652 222 L 640 186 Z" />
      </clipPath>
      <path clip-path="url(#make-me-a-hanzi-clip-10)" d="M 679 414 L 710 393 L 709 383 L 679 220 L 635 101 L 601 45 L 567 6 L 525 -30 L 459 -68" fill="none" id="make-me-a-hanzi-animation-10" stroke-dasharray="717 1434" stroke-linecap="round" />
    
      <clipPath id="make-me-a-hanzi-clip-11">
        <path d="M 652 222 L 646 241 Q 644 249 634 260 Q 625 270 608 280 Q 592 289 572 297 L 552 305 Q 548 306 546 306 Q 541 306 540 303 Q 539 301 539 298 Q 539 295 540 292 L 558 264 L 576 232 Q 588 212 600 198 Q 612 185 620 184 L 625 184 Q 632 184 640 186 C 662 191 661 193 652 222 Z" />
      </clipPath>
      <path clip-path="url(#make-me-a-hanzi-clip-11)" d="M 546 299 L 604 246 L 631 196" fill="none" id="make-me-a-hanzi-animation-11" stroke-dasharray="263 526" stroke-linecap="round" />
    
  </g>
</svg>