<svg xmlns="http://www.w3.org/2000/svg" version="1.1" viewBox="0 0 1024 1024">
  <g stroke="lightgray" stroke-dasharray="1,1" stroke-width="1" transform="scale(4, 4)">
    <line x1="0" y1="0" x2="256" y2="256" />
    <line x1="256" y1="0" x2="0" y2="256" />
    <line x1="128" y1="0" x2="128" y2="256" />
    <line x1="0" y1="128" x2="256" y2="128" />
  </g>
  <g transform="scale(1.0, -1.0) translate(0.0, -778.50)">
    <style type="text/css">
      
        @keyframes keyframes0 {
          from {
            stroke: blue;
            stroke-dashoffset: 591;
            stroke-width: 128;
          }
          66% {
            animation-timing-function: step-end;
            stroke: blue;
            stroke-dashoffset: 0;
            stroke-width: 128;
          }
          to {
            stroke: black;
            stroke-width: 1024;
          }
        }
        #make-me-a-hanzi-animation-0 {
          animation: keyframes0 0.73095703125s both;
          animation-delay: 0s;
          animation-timing-function: linear;
        }
      
        @keyframes keyframes1 {
          from {
            stroke: blue;
            stroke-dashoffset: 438;
            stroke-width: 128;
          }
          59% {
            animation-timing-function: step-end;
            stroke: blue;
            stroke-dashoffset: 0;
            stroke-width: 128;
          }
          to {
            stroke: black;
            stroke-width: 1024;
          }
        }
        #make-me-a-hanzi-animation-1 {
          animation: keyframes1 0.6064453125s both;
          animation-delay: 0.73095703125s;
          animation-timing-function: linear;
        }
      
        @keyframes keyframes2 {
          from {
            stroke: blue;
            stroke-dashoffset: 821;
            stroke-width: 128;
          }
          73% {
            animation-timing-function: step-end;
            stroke: blue;
            stroke-dashoffset: 0;
            stroke-width: 128;
          }
          to {
            stroke: black;
            stroke-width: 1024;
          }
        }
        #make-me-a-hanzi-animation-2 {
          animation: keyframes2 0.9181315104166666s both;
          animation-delay: 1.33740234375s;
          animation-timing-function: linear;
        }
      
        @keyframes keyframes3 {
          from {
            stroke: blue;
            stroke-dashoffset: 449;
            stroke-width: 128;
          }
          59% {
            animation-timing-function: step-end;
            stroke: blue;
            stroke-dashoffset: 0;
            stroke-width: 128;
          }
          to {
            stroke: black;
            stroke-width: 1024;
          }
        }
        #make-me-a-hanzi-animation-3 {
          animation: keyframes3 0.6153971354166666s both;
          animation-delay: 2.2555338541666665s;
          animation-timing-function: linear;
        }
      
        @keyframes keyframes4 {
          from {
            stroke: blue;
            stroke-dashoffset: 668;
            stroke-width: 128;
          }
          68% {
            animation-timing-function: step-end;
            stroke: blue;
            stroke-dashoffset: 0;
            stroke-width: 128;
          }
          to {
            stroke: black;
            stroke-width: 1024;
          }
        }
        #make-me-a-hanzi-animation-4 {
          animation: keyframes4 0.7936197916666666s both;
          animation-delay: 2.870930989583333s;
          animation-timing-function: linear;
        }
      
        @keyframes keyframes5 {
          from {
            stroke: blue;
            stroke-dashoffset: 410;
            stroke-width: 128;
          }
          57% {
            animation-timing-function: step-end;
            stroke: blue;
            stroke-dashoffset: 0;
            stroke-width: 128;
          }
          to {
            stroke: black;
            stroke-width: 1024;
          }
        }
        #make-me-a-hanzi-animation-5 {
          animation: keyframes5 0.5836588541666666s both;
          animation-delay: 3.6645507812499996s;
          animation-timing-function: linear;
        }
      
        @keyframes keyframes6 {
          from {
            stroke: blue;
            stroke-dashoffset: 652;
            stroke-width: 128;
          }
          68% {
            animation-timing-function: step-end;
            stroke: blue;
            stroke-dashoffset: 0;
            stroke-width: 128;
          }
          to {
            stroke: black;
            stroke-width: 1024;
          }
        }
        #make-me-a-hanzi-animation-6 {
          animation: keyframes6 0.7805989583333334s both;
          animation-delay: 4.248209635416666s;
          animation-timing-function: linear;
        }
      
        @keyframes keyframes7 {
          from {
            stroke: blue;
            stroke-dashoffset: 899;
            stroke-width: 128;
          }
          75% {
            animation-timing-function: step-end;
            stroke: blue;
            stroke-dashoffset: 0;
            stroke-width: 128;
          }
          to {
            stroke: black;
            stroke-width: 1024;
          }
        }
        #make-me-a-hanzi-animation-7 {
          animation: keyframes7 0.9816080729166666s both;
          animation-delay: 5.028808593749999s;
          animation-timing-function: linear;
        }
      
        @keyframes keyframes8 {
          from {
            stroke: blue;
            stroke-dashoffset: 463;
            stroke-width: 128;
          }
          60% {
            animation-timing-function: step-end;
            stroke: blue;
            stroke-dashoffset: 0;
            stroke-width: 128;
          }
          to {
            stroke: black;
            stroke-width: 1024;
          }
        }
        #make-me-a-hanzi-animation-8 {
          animation: keyframes8 0.6267903645833334s both;
          animation-delay: 6.010416666666666s;
          animation-timing-function: linear;
        }
      
        @keyframes keyframes9 {
          from {
            stroke: blue;
            stroke-dashoffset: 472;
            stroke-width: 128;
          }
          61% {
            animation-timing-function: step-end;
            stroke: blue;
            stroke-dashoffset: 0;
            stroke-width: 128;
          }
          to {
            stroke: black;
            stroke-width: 1024;
          }
        }
        #make-me-a-hanzi-animation-9 {
          animation: keyframes9 0.6341145833333334s both;
          animation-delay: 6.637207031249999s;
          animation-timing-function: linear;
        }
      
        @keyframes keyframes10 {
          from {
            stroke: blue;
            stroke-dashoffset: 472;
            stroke-width: 128;
          }
          61% {
            animation-timing-function: step-end;
            stroke: blue;
            stroke-dashoffset: 0;
            stroke-width: 128;
          }
          to {
            stroke: black;
            stroke-width: 1024;
          }
        }
        #make-me-a-hanzi-animation-10 {
          animation: keyframes10 0.6341145833333334s both;
          animation-delay: 7.271321614583332s;
          animation-timing-function: linear;
        }
      
        @keyframes keyframes11 {
          from {
            stroke: blue;
            stroke-dashoffset: 565;
            stroke-width: 128;
          }
          65% {
            animation-timing-function: step-end;
            stroke: blue;
            stroke-dashoffset: 0;
            stroke-width: 128;
          }
          to {
            stroke: black;
            stroke-width: 1024;
          }
        }
        #make-me-a-hanzi-animation-11 {
          animation: keyframes11 0.7097981770833334s both;
          animation-delay: 7.905436197916665s;
          animation-timing-function: linear;
        }
      
        @keyframes keyframes12 {
          from {
            stroke: blue;
            stroke-dashoffset: 495;
            stroke-width: 128;
          }
          62% {
            animation-timing-function: step-end;
            stroke: blue;
            stroke-dashoffset: 0;
            stroke-width: 128;
          }
          to {
            stroke: black;
            stroke-width: 1024;
          }
        }
        #make-me-a-hanzi-animation-12 {
          animation: keyframes12 0.65283203125s both;
          animation-delay: 8.615234374999998s;
          animation-timing-function: linear;
        }
      
    </style>
    
      <path d="M 121 341 L 157 368 Q 175 382 191 399 Q 207 416 227 442 L 265 491 L 287 521 Q 293 528 301 534 Q 309 540 311 543 Q 312 545 312 546 Q 312 550 309 555 Q 306 562 294 572 Q 282 583 270 591 Q 257 600 244 600 Q 237 600 235 599 Q 233 597 231 586 Q 230 574 227 560 Q 224 546 216 525 Q 209 504 193 478 Q 179 453 161 428 Q 144 402 133 390 Q 123 378 104 358 L 88 342 Q 80 333 80 327 Q 80 324 81 322 Q 82 320 85 320 Q 91 320 105 330 L 121 341 Z" fill="lightgray" />
    
      <path d="M 451 500 Q 463 481 473 473 Q 481 465 488 465 L 490 465 Q 498 465 504 476 Q 509 487 510 500 Q 510 518 504 535 Q 499 552 482 570 Q 465 587 445 600 Q 424 613 411 619 L 391 627 Q 386 630 382 630 Q 379 630 378 627 Q 377 625 377 623 Q 377 620 379 618 L 451 500 Z" fill="lightgray" />
    
      <path d="M 440 198 L 283 157 Q 272 154 254 151 Q 248 150 243 150 Q 236 150 234 153 L 234 155 Q 234 161 241 172 Q 249 185 268 208 Q 287 232 309 264 Q 331 296 334 299 L 355 325 Q 367 342 374 346 Q 381 351 383 353 Q 384 354 384 356 Q 384 361 380 367 Q 375 375 364 384 Q 353 394 348 398 Q 342 402 332 407 Q 322 411 317 411 Q 314 411 312 410 Q 308 408 307 402 Q 305 398 302 378 Q 299 358 290 333 Q 281 309 270 288 Q 260 268 243 241 Q 227 215 213 199 Q 199 182 187 172 Q 175 162 162 156 Q 149 150 147 145 Q 146 143 146 139 Q 146 136 147 132 Q 149 124 156 106 Q 163 86 169 82 Q 175 77 181 76 Q 189 76 210 87 Q 231 99 242 103 Q 253 108 295 121 L 450 171 C 479 180 469 206 440 198 Z" fill="lightgray" />
    
      <path d="M 450 171 L 467 133 Q 477 113 483 107 Q 489 100 495 100 Q 505 100 512 114 Q 519 129 520 142 L 520 149 Q 520 165 516 179 Q 510 196 491 218 Q 472 239 463 246 Q 453 254 429 270 L 413 282 Q 408 286 404 286 Q 402 286 400 284 Q 398 282 398 279 Q 398 277 400 273 L 409 254 L 440 198 L 450 171 Z" fill="lightgray" />
    
      <path d="M 695 592 L 750 600 Q 779 604 810 607 Q 841 609 876 611 L 910 612 Q 931 613 938 619 Q 944 624 944 629 L 944 630 Q 944 634 937 640 Q 930 646 916 653 Q 903 660 893 664 Q 883 667 874 667 Q 869 666 860 664 L 844 660 Q 825 656 809 653 L 737 642 L 643 628 L 582 619 Q 559 616 554 615 L 531 612 Q 523 612 521 609 Q 519 607 518 604 L 518 603 Q 518 597 533 588 Q 551 579 564 575 Q 573 571 582 571 Q 586 571 589 572 Q 595 572 609 576 Q 624 581 632 583 Q 641 584 657 586 L 695 592 Z" fill="lightgray" />
    
      <path d="M 657 461 L 671 478 L 695 507 L 718 533 Q 726 543 731 548 Q 737 553 737 556 L 737 558 Q 737 561 734 565 Q 729 570 721 576 Q 713 582 709 584 Q 703 588 695 592 C 668 606 655 613 657 586 L 659 564 L 659 559 Q 659 547 653 528 Q 645 504 639 488 Q 633 472 625 456 C 612 429 638 438 657 461 Z" fill="lightgray" />
    
      <path d="M 615 454 L 600 459 Q 580 466 572 466 L 569 466 Q 562 465 559 461 Q 558 459 558 457 Q 558 455 559 452 Q 561 447 566 438 Q 571 430 574 421 Q 577 412 579 400 Q 580 388 580 372 L 577 252 Q 577 240 572 206 Q 567 172 564 158 Q 561 143 561 137 Q 561 127 564 114 Q 567 102 572 93 Q 576 85 583 76 Q 589 67 597 67 L 598 67 Q 607 67 609 82 L 611 100 L 614 128 L 617 208 L 617 232 L 619 312 L 621 336 L 623 426 C 624 451 624 451 615 454 Z" fill="lightgray" />
    
      <path d="M 834 110 L 839 90 Q 843 69 849 59 Q 856 49 865 49 L 866 49 Q 872 49 879 58 Q 887 66 893 84 Q 898 102 899 116 L 896 149 L 896 177 L 894 343 L 894 356 Q 894 369 895 384 Q 897 406 899 417 Q 902 428 907 438 Q 912 447 912 452 L 912 454 Q 912 459 899 470 Q 887 482 865 490 Q 844 499 837 499 Q 832 498 819 494 Q 806 489 791 486 Q 775 482 761 480 L 657 461 L 625 456 L 615 454 C 585 449 593 425 623 426 L 648 427 Q 653 427 678 432 Q 704 438 725 441 L 775 448 Q 796 452 809 452 L 814 452 Q 823 452 827 449 Q 831 446 832 434 Q 833 422 834 402 Q 835 382 835 370 L 835 355 L 836 340 L 838 248 L 838 232 L 839 204 L 837 134 L 834 110 Z" fill="lightgray" />
    
      <path d="M 835 355 L 819 362 Q 815 364 800 366 Q 789 368 782 368 L 778 368 Q 774 368 765 365 Q 755 362 748 361 Q 741 359 728 357 L 624 337 L 621 336 C 592 329 590 319 619 312 L 635 308 Q 641 306 649 306 Q 656 306 680 310 L 808 332 Q 817 332 821 334 Q 827 336 836 340 C 853 347 853 347 835 355 Z" fill="lightgray" />
    
      <path d="M 838 248 L 823 256 Q 821 258 809 260 Q 797 263 792 264 Q 787 264 777 262 Q 767 260 759 258 L 623 232 L 617 232 C 587 231 588 216 617 208 L 636 203 Q 639 202 650 202 Q 660 202 683 206 L 809 225 Q 820 226 825 228 Q 829 229 838 232 C 857 238 857 238 838 248 Z" fill="lightgray" />
    
      <path d="M 671 97 L 687 98 Q 709 100 715 100 L 834 110 C 864 113 864 120 837 134 L 816 145 Q 810 148 795 148 L 787 148 Q 781 148 767 146 L 740 142 L 614 128 C 584 125 582 106 611 100 L 631 96 L 671 97 Z" fill="lightgray" />
    
      <path d="M 631 96 L 630 90 Q 629 82 623 68 Q 617 54 608 37 Q 599 21 585 2 Q 571 -17 555 -34 L 520 -71 Q 500 -91 493 -97 L 483 -107 Q 471 -117 471 -121 Q 471 -125 474 -127 L 475 -127 Q 479 -127 486 -124 L 503 -116 Q 515 -110 538 -96 Q 561 -82 586 -61 Q 611 -40 638 -12 L 668 20 Q 683 36 695 43 Q 706 50 709 53 Q 711 56 713 58 Q 713 64 705 72 Q 697 80 691 85 Q 684 90 671 97 C 645 112 635 117 631 96 Z" fill="lightgray" />
    
      <path d="M 779 35 Q 791 20 799 11 Q 805 2 837 -40 L 879 -95 Q 889 -108 899 -118 Q 914 -134 925 -134 L 927 -134 Q 937 -132 945 -122 Q 952 -111 952 -94 L 952 -90 Q 951 -69 939 -49 Q 927 -28 909 -13 Q 891 3 870 16 L 827 40 Q 805 50 793 55 L 779 60 Q 775 61 772 61 L 769 61 Q 764 60 763 57 Q 763 54 769 47 L 779 35 Z" fill="lightgray" />
    
    
      <clipPath id="make-me-a-hanzi-clip-0">
        <path d="M 121 341 L 157 368 Q 175 382 191 399 Q 207 416 227 442 L 265 491 L 287 521 Q 293 528 301 534 Q 309 540 311 543 Q 312 545 312 546 Q 312 550 309 555 Q 306 562 294 572 Q 282 583 270 591 Q 257 600 244 600 Q 237 600 235 599 Q 233 597 231 586 Q 230 574 227 560 Q 224 546 216 525 Q 209 504 193 478 Q 179 453 161 428 Q 144 402 133 390 Q 123 378 104 358 L 88 342 Q 80 333 80 327 Q 80 324 81 322 Q 82 320 85 320 Q 91 320 105 330 L 121 341 Z" />
      </clipPath>
      <path clip-path="url(#make-me-a-hanzi-clip-0)" d="M 241 590 L 263 550 L 238 502 L 180 417 L 85 325" fill="none" id="make-me-a-hanzi-animation-0" stroke-dasharray="463 926" stroke-linecap="round" />
    
      <clipPath id="make-me-a-hanzi-clip-1">
        <path d="M 451 500 Q 463 481 473 473 Q 481 465 488 465 L 490 465 Q 498 465 504 476 Q 509 487 510 500 Q 510 518 504 535 Q 499 552 482 570 Q 465 587 445 600 Q 424 613 411 619 L 391 627 Q 386 630 382 630 Q 379 630 378 627 Q 377 625 377 623 Q 377 620 379 618 L 451 500 Z" />
      </clipPath>
      <path clip-path="url(#make-me-a-hanzi-clip-1)" d="M 384 623 L 463 544 L 489 479" fill="none" id="make-me-a-hanzi-animation-1" stroke-dasharray="310 620" stroke-linecap="round" />
    
      <clipPath id="make-me-a-hanzi-clip-2">
        <path d="M 440 198 L 283 157 Q 272 154 254 151 Q 248 150 243 150 Q 236 150 234 153 L 234 155 Q 234 161 241 172 Q 249 185 268 208 Q 287 232 309 264 Q 331 296 334 299 L 355 325 Q 367 342 374 346 Q 381 351 383 353 Q 384 354 384 356 Q 384 361 380 367 Q 375 375 364 384 Q 353 394 348 398 Q 342 402 332 407 Q 322 411 317 411 Q 314 411 312 410 Q 308 408 307 402 Q 305 398 302 378 Q 299 358 290 333 Q 281 309 270 288 Q 260 268 243 241 Q 227 215 213 199 Q 199 182 187 172 Q 175 162 162 156 Q 149 150 147 145 Q 146 143 146 139 Q 146 136 147 132 Q 149 124 156 106 Q 163 86 169 82 Q 175 77 181 76 Q 189 76 210 87 Q 231 99 242 103 Q 253 108 295 121 L 450 171 C 479 180 469 206 440 198 Z" />
      </clipPath>
      <path clip-path="url(#make-me-a-hanzi-clip-2)" d="M 316 402 L 332 372 L 333 353 L 287 270 L 215 169 L 199 129 L 262 131 L 431 180 L 441 175" fill="none" id="make-me-a-hanzi-animation-2" stroke-dasharray="693 1386" stroke-linecap="round" />
    
      <clipPath id="make-me-a-hanzi-clip-3">
        <path d="M 450 171 L 467 133 Q 477 113 483 107 Q 489 100 495 100 Q 505 100 512 114 Q 519 129 520 142 L 520 149 Q 520 165 516 179 Q 510 196 491 218 Q 472 239 463 246 Q 453 254 429 270 L 413 282 Q 408 286 404 286 Q 402 286 400 284 Q 398 282 398 279 Q 398 277 400 273 L 409 254 L 440 198 L 450 171 Z" />
      </clipPath>
      <path clip-path="url(#make-me-a-hanzi-clip-3)" d="M 405 279 L 474 193 L 487 165 L 495 114" fill="none" id="make-me-a-hanzi-animation-3" stroke-dasharray="321 642" stroke-linecap="round" />
    
      <clipPath id="make-me-a-hanzi-clip-4">
        <path d="M 695 592 L 750 600 Q 779 604 810 607 Q 841 609 876 611 L 910 612 Q 931 613 938 619 Q 944 624 944 629 L 944 630 Q 944 634 937 640 Q 930 646 916 653 Q 903 660 893 664 Q 883 667 874 667 Q 869 666 860 664 L 844 660 Q 825 656 809 653 L 737 642 L 643 628 L 582 619 Q 559 616 554 615 L 531 612 Q 523 612 521 609 Q 519 607 518 604 L 518 603 Q 518 597 533 588 Q 551 579 564 575 Q 573 571 582 571 Q 586 571 589 572 Q 595 572 609 576 Q 624 581 632 583 Q 641 584 657 586 L 695 592 Z" />
      </clipPath>
      <path clip-path="url(#make-me-a-hanzi-clip-4)" d="M 525 604 L 590 596 L 873 639 L 933 630" fill="none" id="make-me-a-hanzi-animation-4" stroke-dasharray="540 1080" stroke-linecap="round" />
    
      <clipPath id="make-me-a-hanzi-clip-5">
        <path d="M 657 461 L 671 478 L 695 507 L 718 533 Q 726 543 731 548 Q 737 553 737 556 L 737 558 Q 737 561 734 565 Q 729 570 721 576 Q 713 582 709 584 Q 703 588 695 592 C 668 606 655 613 657 586 L 659 564 L 659 559 Q 659 547 653 528 Q 645 504 639 488 Q 633 472 625 456 C 612 429 638 438 657 461 Z" />
      </clipPath>
      <path clip-path="url(#make-me-a-hanzi-clip-5)" d="M 664 581 L 692 555 L 649 474 L 630 460" fill="none" id="make-me-a-hanzi-animation-5" stroke-dasharray="282 564" stroke-linecap="round" />
    
      <clipPath id="make-me-a-hanzi-clip-6">
        <path d="M 615 454 L 600 459 Q 580 466 572 466 L 569 466 Q 562 465 559 461 Q 558 459 558 457 Q 558 455 559 452 Q 561 447 566 438 Q 571 430 574 421 Q 577 412 579 400 Q 580 388 580 372 L 577 252 Q 577 240 572 206 Q 567 172 564 158 Q 561 143 561 137 Q 561 127 564 114 Q 567 102 572 93 Q 576 85 583 76 Q 589 67 597 67 L 598 67 Q 607 67 609 82 L 611 100 L 614 128 L 617 208 L 617 232 L 619 312 L 621 336 L 623 426 C 624 451 624 451 615 454 Z" />
      </clipPath>
      <path clip-path="url(#make-me-a-hanzi-clip-6)" d="M 567 457 L 595 434 L 600 419 L 598 252 L 588 147 L 588 115 L 598 77" fill="none" id="make-me-a-hanzi-animation-6" stroke-dasharray="524 1048" stroke-linecap="round" />
    
      <clipPath id="make-me-a-hanzi-clip-7">
        <path d="M 834 110 L 839 90 Q 843 69 849 59 Q 856 49 865 49 L 866 49 Q 872 49 879 58 Q 887 66 893 84 Q 898 102 899 116 L 896 149 L 896 177 L 894 343 L 894 356 Q 894 369 895 384 Q 897 406 899 417 Q 902 428 907 438 Q 912 447 912 452 L 912 454 Q 912 459 899 470 Q 887 482 865 490 Q 844 499 837 499 Q 832 498 819 494 Q 806 489 791 486 Q 775 482 761 480 L 657 461 L 625 456 L 615 454 C 585 449 593 425 623 426 L 648 427 Q 653 427 678 432 Q 704 438 725 441 L 775 448 Q 796 452 809 452 L 814 452 Q 823 452 827 449 Q 831 446 832 434 Q 833 422 834 402 Q 835 382 835 370 L 835 355 L 836 340 L 838 248 L 838 232 L 839 204 L 837 134 L 834 110 Z" />
      </clipPath>
      <path clip-path="url(#make-me-a-hanzi-clip-7)" d="M 621 448 L 643 443 L 838 473 L 869 446 L 864 363 L 866 64" fill="none" id="make-me-a-hanzi-animation-7" stroke-dasharray="771 1542" stroke-linecap="round" />
    
      <clipPath id="make-me-a-hanzi-clip-8">
        <path d="M 835 355 L 819 362 Q 815 364 800 366 Q 789 368 782 368 L 778 368 Q 774 368 765 365 Q 755 362 748 361 Q 741 359 728 357 L 624 337 L 621 336 C 592 329 590 319 619 312 L 635 308 Q 641 306 649 306 Q 656 306 680 310 L 808 332 Q 817 332 821 334 Q 827 336 836 340 C 853 347 853 347 835 355 Z" />
      </clipPath>
      <path clip-path="url(#make-me-a-hanzi-clip-8)" d="M 625 330 L 644 323 L 780 348 L 828 347" fill="none" id="make-me-a-hanzi-animation-8" stroke-dasharray="335 670" stroke-linecap="round" />
    
      <clipPath id="make-me-a-hanzi-clip-9">
        <path d="M 838 248 L 823 256 Q 821 258 809 260 Q 797 263 792 264 Q 787 264 777 262 Q 767 260 759 258 L 623 232 L 617 232 C 587 231 588 216 617 208 L 636 203 Q 639 202 650 202 Q 660 202 683 206 L 809 225 Q 820 226 825 228 Q 829 229 838 232 C 857 238 857 238 838 248 Z" />
      </clipPath>
      <path clip-path="url(#make-me-a-hanzi-clip-9)" d="M 620 226 L 644 218 L 787 243 L 825 241 L 830 236" fill="none" id="make-me-a-hanzi-animation-9" stroke-dasharray="344 688" stroke-linecap="round" />
    
      <clipPath id="make-me-a-hanzi-clip-10">
        <path d="M 671 97 L 687 98 Q 709 100 715 100 L 834 110 C 864 113 864 120 837 134 L 816 145 Q 810 148 795 148 L 787 148 Q 781 148 767 146 L 740 142 L 614 128 C 584 125 582 106 611 100 L 631 96 L 671 97 Z" />
      </clipPath>
      <path clip-path="url(#make-me-a-hanzi-clip-10)" d="M 617 106 L 629 113 L 800 128 L 820 125 L 826 117" fill="none" id="make-me-a-hanzi-animation-10" stroke-dasharray="344 688" stroke-linecap="round" />
    
      <clipPath id="make-me-a-hanzi-clip-11">
        <path d="M 631 96 L 630 90 Q 629 82 623 68 Q 617 54 608 37 Q 599 21 585 2 Q 571 -17 555 -34 L 520 -71 Q 500 -91 493 -97 L 483 -107 Q 471 -117 471 -121 Q 471 -125 474 -127 L 475 -127 Q 479 -127 486 -124 L 503 -116 Q 515 -110 538 -96 Q 561 -82 586 -61 Q 611 -40 638 -12 L 668 20 Q 683 36 695 43 Q 706 50 709 53 Q 711 56 713 58 Q 713 64 705 72 Q 697 80 691 85 Q 684 90 671 97 C 645 112 635 117 631 96 Z" />
      </clipPath>
      <path clip-path="url(#make-me-a-hanzi-clip-11)" d="M 706 59 L 658 60 L 596 -22 L 546 -70 L 475 -123" fill="none" id="make-me-a-hanzi-animation-11" stroke-dasharray="437 874" stroke-linecap="round" />
    
      <clipPath id="make-me-a-hanzi-clip-12">
        <path d="M 779 35 Q 791 20 799 11 Q 805 2 837 -40 L 879 -95 Q 889 -108 899 -118 Q 914 -134 925 -134 L 927 -134 Q 937 -132 945 -122 Q 952 -111 952 -94 L 952 -90 Q 951 -69 939 -49 Q 927 -28 909 -13 Q 891 3 870 16 L 827 40 Q 805 50 793 55 L 779 60 Q 775 61 772 61 L 769 61 Q 764 60 763 57 Q 763 54 769 47 L 779 35 Z" />
      </clipPath>
      <path clip-path="url(#make-me-a-hanzi-clip-12)" d="M 769 54 L 813 26 L 881 -37 L 914 -80 L 926 -118" fill="none" id="make-me-a-hanzi-animation-12" stroke-dasharray="367 734" stroke-linecap="round" />
    
  </g>
</svg>