<svg version="1.1" viewBox="0 0 1024 1024" xmlns="http://www.w3.org/2000/svg">
  <g stroke="lightgray" stroke-dasharray="1,1" stroke-width="1" transform="scale(4, 4)">
    <line x1="0" y1="0" x2="256" y2="256"></line>
    <line x1="256" y1="0" x2="0" y2="256"></line>
    <line x1="128" y1="0" x2="128" y2="256"></line>
    <line x1="0" y1="128" x2="256" y2="128"></line>
  </g>
  <g transform="scale(0.92, -0.92) translate(60, -830)">
    <style type="text/css">
      
        @keyframes keyframes0 {
          from {
            stroke: blue;
            stroke-dashoffset: 791;
            stroke-width: 128;
          }
          72% {
            animation-timing-function: step-end;
            stroke: blue;
            stroke-dashoffset: 0;
            stroke-width: 128;
          }
          to {
            stroke: black;
            stroke-width: 1024;
          }
        }
        #make-me-a-hanzi-animation-0 {
          animation: keyframes0 0.8937174479166666s both;
          animation-delay: 0s;
          animation-timing-function: linear;
        }
      
        @keyframes keyframes1 {
          from {
            stroke: blue;
            stroke-dashoffset: 407;
            stroke-width: 128;
          }
          57% {
            animation-timing-function: step-end;
            stroke: blue;
            stroke-dashoffset: 0;
            stroke-width: 128;
          }
          to {
            stroke: black;
            stroke-width: 1024;
          }
        }
        #make-me-a-hanzi-animation-1 {
          animation: keyframes1 0.5812174479166666s both;
          animation-delay: 0.8937174479166666s;
          animation-timing-function: linear;
        }
      
        @keyframes keyframes2 {
          from {
            stroke: blue;
            stroke-dashoffset: 435;
            stroke-width: 128;
          }
          59% {
            animation-timing-function: step-end;
            stroke: blue;
            stroke-dashoffset: 0;
            stroke-width: 128;
          }
          to {
            stroke: black;
            stroke-width: 1024;
          }
        }
        #make-me-a-hanzi-animation-2 {
          animation: keyframes2 0.60400390625s both;
          animation-delay: 1.4749348958333333s;
          animation-timing-function: linear;
        }
      
        @keyframes keyframes3 {
          from {
            stroke: blue;
            stroke-dashoffset: 636;
            stroke-width: 128;
          }
          67% {
            animation-timing-function: step-end;
            stroke: blue;
            stroke-dashoffset: 0;
            stroke-width: 128;
          }
          to {
            stroke: black;
            stroke-width: 1024;
          }
        }
        #make-me-a-hanzi-animation-3 {
          animation: keyframes3 0.767578125s both;
          animation-delay: 2.078938802083333s;
          animation-timing-function: linear;
        }
      
        @keyframes keyframes4 {
          from {
            stroke: blue;
            stroke-dashoffset: 462;
            stroke-width: 128;
          }
          60% {
            animation-timing-function: step-end;
            stroke: blue;
            stroke-dashoffset: 0;
            stroke-width: 128;
          }
          to {
            stroke: black;
            stroke-width: 1024;
          }
        }
        #make-me-a-hanzi-animation-4 {
          animation: keyframes4 0.6259765625s both;
          animation-delay: 2.846516927083333s;
          animation-timing-function: linear;
        }
      
        @keyframes keyframes5 {
          from {
            stroke: blue;
            stroke-dashoffset: 581;
            stroke-width: 128;
          }
          65% {
            animation-timing-function: step-end;
            stroke: blue;
            stroke-dashoffset: 0;
            stroke-width: 128;
          }
          to {
            stroke: black;
            stroke-width: 1024;
          }
        }
        #make-me-a-hanzi-animation-5 {
          animation: keyframes5 0.7228190104166666s both;
          animation-delay: 3.472493489583333s;
          animation-timing-function: linear;
        }
      
        @keyframes keyframes6 {
          from {
            stroke: blue;
            stroke-dashoffset: 427;
            stroke-width: 128;
          }
          58% {
            animation-timing-function: step-end;
            stroke: blue;
            stroke-dashoffset: 0;
            stroke-width: 128;
          }
          to {
            stroke: black;
            stroke-width: 1024;
          }
        }
        #make-me-a-hanzi-animation-6 {
          animation: keyframes6 0.5974934895833334s both;
          animation-delay: 4.1953125s;
          animation-timing-function: linear;
        }
      
        @keyframes keyframes7 {
          from {
            stroke: blue;
            stroke-dashoffset: 684;
            stroke-width: 128;
          }
          69% {
            animation-timing-function: step-end;
            stroke: blue;
            stroke-dashoffset: 0;
            stroke-width: 128;
          }
          to {
            stroke: black;
            stroke-width: 1024;
          }
        }
        #make-me-a-hanzi-animation-7 {
          animation: keyframes7 0.806640625s both;
          animation-delay: 4.792805989583333s;
          animation-timing-function: linear;
        }
      
        @keyframes keyframes8 {
          from {
            stroke: blue;
            stroke-dashoffset: 411;
            stroke-width: 128;
          }
          57% {
            animation-timing-function: step-end;
            stroke: blue;
            stroke-dashoffset: 0;
            stroke-width: 128;
          }
          to {
            stroke: black;
            stroke-width: 1024;
          }
        }
        #make-me-a-hanzi-animation-8 {
          animation: keyframes8 0.58447265625s both;
          animation-delay: 5.599446614583333s;
          animation-timing-function: linear;
        }
      
        @keyframes keyframes9 {
          from {
            stroke: blue;
            stroke-dashoffset: 649;
            stroke-width: 128;
          }
          68% {
            animation-timing-function: step-end;
            stroke: blue;
            stroke-dashoffset: 0;
            stroke-width: 128;
          }
          to {
            stroke: black;
            stroke-width: 1024;
          }
        }
        #make-me-a-hanzi-animation-9 {
          animation: keyframes9 0.7781575520833334s both;
          animation-delay: 6.183919270833333s;
          animation-timing-function: linear;
        }
      
        @keyframes keyframes10 {
          from {
            stroke: blue;
            stroke-dashoffset: 907;
            stroke-width: 128;
          }
          75% {
            animation-timing-function: step-end;
            stroke: blue;
            stroke-dashoffset: 0;
            stroke-width: 128;
          }
          to {
            stroke: black;
            stroke-width: 1024;
          }
        }
        #make-me-a-hanzi-animation-10 {
          animation: keyframes10 0.9881184895833334s both;
          animation-delay: 6.962076822916666s;
          animation-timing-function: linear;
        }
      
        @keyframes keyframes11 {
          from {
            stroke: blue;
            stroke-dashoffset: 468;
            stroke-width: 128;
          }
          60% {
            animation-timing-function: step-end;
            stroke: blue;
            stroke-dashoffset: 0;
            stroke-width: 128;
          }
          to {
            stroke: black;
            stroke-width: 1024;
          }
        }
        #make-me-a-hanzi-animation-11 {
          animation: keyframes11 0.630859375s both;
          animation-delay: 7.950195312499999s;
          animation-timing-function: linear;
        }
      
        @keyframes keyframes12 {
          from {
            stroke: blue;
            stroke-dashoffset: 468;
            stroke-width: 128;
          }
          60% {
            animation-timing-function: step-end;
            stroke: blue;
            stroke-dashoffset: 0;
            stroke-width: 128;
          }
          to {
            stroke: black;
            stroke-width: 1024;
          }
        }
        #make-me-a-hanzi-animation-12 {
          animation: keyframes12 0.630859375s both;
          animation-delay: 8.5810546875s;
          animation-timing-function: linear;
        }
      
        @keyframes keyframes13 {
          from {
            stroke: blue;
            stroke-dashoffset: 473;
            stroke-width: 128;
          }
          61% {
            animation-timing-function: step-end;
            stroke: blue;
            stroke-dashoffset: 0;
            stroke-width: 128;
          }
          to {
            stroke: black;
            stroke-width: 1024;
          }
        }
        #make-me-a-hanzi-animation-13 {
          animation: keyframes13 0.6349283854166666s both;
          animation-delay: 9.2119140625s;
          animation-timing-function: linear;
        }
      
        @keyframes keyframes14 {
          from {
            stroke: blue;
            stroke-dashoffset: 560;
            stroke-width: 128;
          }
          65% {
            animation-timing-function: step-end;
            stroke: blue;
            stroke-dashoffset: 0;
            stroke-width: 128;
          }
          to {
            stroke: black;
            stroke-width: 1024;
          }
        }
        #make-me-a-hanzi-animation-14 {
          animation: keyframes14 0.7057291666666666s both;
          animation-delay: 9.846842447916666s;
          animation-timing-function: linear;
        }
      
        @keyframes keyframes15 {
          from {
            stroke: blue;
            stroke-dashoffset: 496;
            stroke-width: 128;
          }
          62% {
            animation-timing-function: step-end;
            stroke: blue;
            stroke-dashoffset: 0;
            stroke-width: 128;
          }
          to {
            stroke: black;
            stroke-width: 1024;
          }
        }
        #make-me-a-hanzi-animation-15 {
          animation: keyframes15 0.6536458333333334s both;
          animation-delay: 10.552571614583332s;
          animation-timing-function: linear;
        }
      
    </style>
    
      <path d="M 379 604 L 398 632 L 408 642 L 408 643 Q 408 648 403 656 Q 397 666 383 674 L 352 690 Q 340 695 330 695 Q 326 695 322 694 Q 318 694 317 692 Q 315 690 314 677 Q 314 664 312 649 Q 311 635 303 607 Q 295 579 269 528 Q 243 478 222 444 Q 201 410 178 378 Q 154 346 142 332 L 97 286 L 72 260 Q 68 256 68 254 Q 68 252 70 250 Q 72 248 75 248 Q 79 248 84 251 L 114 270 Q 132 280 161 304 Q 190 328 216 356 Q 243 384 251 395 Q 258 405 265 414 L 273 425 L 307 475 Q 318 490 334 522 L 366 582 L 379 604 Z" fill="lightgray"></path>
    
      <path d="M 366 582 L 386 566 Q 388 565 426 532 L 457 504 Q 474 488 486 486 Q 491 485 495 485 Q 505 485 508 490 Q 513 495 513 508 L 513 512 Q 512 528 506 540 Q 500 552 489 562 Q 479 572 468 576 Q 457 580 432 588 L 379 604 C 350 613 343 601 366 582 Z" fill="lightgray"></path>
    
      <path d="M 265 414 L 279 404 Q 286 398 303 398 Q 306 397 311 397 Q 321 397 336 401 L 366 407 L 440 422 Q 446 423 450 425 Q 454 428 456 431 Q 456 436 446 442 Q 436 448 419 452 Q 402 456 398 456 Q 392 455 379 450 L 343 440 Q 320 434 273 425 C 255 421 255 421 265 414 Z" fill="lightgray"></path>
    
      <path d="M 419 319 L 413 287 L 384 189 C 375 160 396 167 412 192 L 463 272 L 474 289 Q 478 296 482 300 L 494 310 Q 498 315 499 319 L 499 320 Q 499 325 493 331 Q 487 338 472 348 Q 456 358 448 362 Q 442 364 437 364 L 433 364 Q 428 363 418 356 Q 406 350 398 347 Q 388 344 356 336 Q 322 329 312 328 L 270 322 L 248 319 L 222 316 Q 221 315 221 311 L 221 307 Q 222 301 234 292 Q 248 283 254 281 Q 259 280 265 280 L 270 280 Q 280 281 327 294 L 419 319 Z" fill="lightgray"></path>
    
      <path d="M 272 169 L 251 172 L 226 176 Q 219 176 216 172 Q 215 171 215 169 Q 215 167 216 165 Q 218 162 224 155 Q 232 148 236 138 Q 240 128 243 118 L 267 -9 Q 275 -24 282 -24 L 284 -24 Q 291 -23 296 -11 L 302 2 C 304 6 304 6 300 35 L 285 147 C 282 168 282 168 272 169 Z" fill="lightgray"></path>
    
      <path d="M 384 189 L 272 169 C 242 164 255 144 285 147 L 417 162 Q 425 163 431 163 Q 439 163 440 161 Q 442 160 442 155 Q 442 150 440 142 L 426 52 C 421 22 450 15 462 42 L 490 104 Q 492 106 501 122 Q 510 136 518 143 Q 524 150 526 152 L 526 154 Q 526 159 520 168 Q 514 176 501 188 Q 488 198 478 202 Q 470 206 461 206 Q 456 206 442 201 Q 428 196 412 192 L 384 189 Z" fill="lightgray"></path>
    
      <path d="M 302 2 L 470 15 Q 478 16 479 21 L 479 23 Q 479 27 475 32 Q 470 37 462 42 C 443 54 443 54 426 52 L 300 35 C 270 31 272 0 302 2 Z" fill="lightgray"></path>
    
      <path d="M 700 592 L 790 600 L 859 606 Q 882 609 895 610 L 928 612 Q 950 613 957 618 Q 963 623 963 627 L 963 628 Q 963 633 954 640 Q 946 647 936 652 Q 926 657 913 662 Q 900 666 893 666 Q 889 666 881 664 L 863 660 L 834 653 Q 816 649 808 648 L 720 636 Q 660 628 633 624 Q 606 620 587 616 Q 568 613 559 612 L 535 610 Q 528 609 526 607 Q 524 605 523 602 L 523 601 Q 523 594 538 586 Q 556 576 569 572 Q 579 569 589 569 L 594 569 Q 600 569 614 574 Q 628 578 636 580 Q 645 582 661 585 L 700 592 Z" fill="lightgray"></path>
    
      <path d="M 662 460 L 676 476 Q 680 480 696 500 Q 712 520 721 530 Q 730 541 735 546 Q 741 552 742 556 Q 742 560 739 564 Q 735 570 725 576 L 712 585 Q 708 587 700 592 C 674 608 655 614 661 585 L 665 565 L 665 560 Q 665 551 660 532 Q 654 509 646 490 Q 638 472 636 466 Q 633 461 630 455 C 616 428 642 437 662 460 Z" fill="lightgray"></path>
    
      <path d="M 620 453 L 604 458 Q 580 466 574 466 Q 567 464 564 460 Q 563 458 563 456 Q 563 454 564 451 Q 566 446 570 437 Q 575 429 578 420 Q 582 410 583 399 Q 585 387 585 370 L 582 251 Q 582 238 577 207 Q 573 176 570 159 Q 566 142 566 136 Q 566 126 569 114 Q 572 102 577 92 Q 582 82 588 76 Q 594 66 603 66 Q 611 67 613 81 L 616 99 L 619 132 L 622 208 L 622 230 L 624 315 L 625 338 L 628 424 C 629 450 629 450 620 453 Z" fill="lightgray"></path>
    
      <path d="M 841 111 L 841 90 Q 841 80 847 66 Q 854 52 860 48 Q 866 44 872 44 Q 879 44 890 59 Q 902 74 905 90 Q 908 106 909 123 L 908 176 L 906 342 L 906 358 Q 906 373 907 383 Q 908 398 911 413 Q 914 428 918 436 Q 924 449 924 454 Q 924 458 913 468 Q 902 478 876 488 Q 850 498 845 498 Q 839 498 825 493 Q 811 488 801 485 Q 791 483 768 479 L 662 460 L 630 455 L 620 453 C 590 448 598 422 628 424 L 653 426 Q 660 426 687 432 Q 714 438 730 440 L 782 448 Q 799 450 814 451 L 820 451 Q 831 451 834 448 Q 838 444 840 433 Q 840 422 842 402 Q 843 381 843 369 L 843 358 L 844 341 L 846 246 L 846 231 L 846 203 Q 846 196 845 176 L 844 154 Q 843 148 842 137 L 841 111 Z" fill="lightgray"></path>
    
      <path d="M 843 358 L 828 364 Q 824 366 809 368 Q 799 370 792 370 L 788 370 Q 783 370 770 366 Q 756 362 737 359 L 633 339 L 625 338 C 595 334 595 322 624 315 L 644 310 Q 650 308 661 308 L 689 313 L 817 334 Q 822 334 828 336 Q 835 338 844 341 C 867 348 867 348 843 358 Z" fill="lightgray"></path>
    
      <path d="M 846 246 L 831 256 Q 829 257 816 260 Q 804 262 800 263 Q 794 263 780 260 Q 767 257 766 257 L 622 230 C 593 224 594 220 622 208 L 629 205 Q 631 204 643 202 Q 654 201 660 201 L 663 201 Q 671 201 690 204 L 817 224 L 833 227 Q 837 228 846 231 C 861 236 861 236 846 246 Z" fill="lightgray"></path>
    
      <path d="M 682 98 L 712 100 L 841 111 C 871 114 869 125 842 137 L 822 146 Q 810 150 791 151 Q 782 151 766 148 Q 750 146 745 146 L 619 132 C 589 129 587 107 616 99 L 627 96 Q 628 96 637 95 L 682 98 Z" fill="lightgray"></path>
    
      <path d="M 637 95 L 635 84 Q 634 80 628 67 Q 623 54 615 40 Q 606 26 587 2 Q 568 -22 556 -35 Q 546 -47 526 -68 Q 506 -88 499 -94 L 488 -104 Q 476 -114 476 -117 Q 476 -120 480 -123 Q 481 -124 482 -124 Q 486 -124 492 -120 L 508 -112 Q 522 -105 545 -92 Q 567 -78 594 -56 Q 621 -34 644 -10 L 674 22 Q 688 37 701 44 L 716 54 Q 718 56 720 60 L 720 63 Q 720 70 714 76 Q 706 84 699 88 L 682 98 C 656 113 642 122 637 95 Z" fill="lightgray"></path>
    
      <path d="M 784 34 L 806 8 Q 817 -4 844 -39 L 877 -82 Q 895 -106 906 -117 Q 923 -137 935 -137 L 936 -137 Q 948 -136 954 -129 Q 961 -122 962 -106 Q 963 -101 963 -95 Q 963 -85 960 -76 Q 957 -62 944 -42 Q 931 -23 914 -10 Q 898 4 875 17 Q 852 30 831 40 Q 810 50 798 54 L 784 59 Q 779 60 776 60 L 773 60 Q 769 60 768 56 Q 768 52 774 46 L 784 34 Z" fill="lightgray"></path>
    
    
      <clipPath id="make-me-a-hanzi-clip-0">
        <path d="M 379 604 L 398 632 L 408 642 L 408 643 Q 408 648 403 656 Q 397 666 383 674 L 352 690 Q 340 695 330 695 Q 326 695 322 694 Q 318 694 317 692 Q 315 690 314 677 Q 314 664 312 649 Q 311 635 303 607 Q 295 579 269 528 Q 243 478 222 444 Q 201 410 178 378 Q 154 346 142 332 L 97 286 L 72 260 Q 68 256 68 254 Q 68 252 70 250 Q 72 248 75 248 Q 79 248 84 251 L 114 270 Q 132 280 161 304 Q 190 328 216 356 Q 243 384 251 395 Q 258 405 265 414 L 273 425 L 307 475 Q 318 490 334 522 L 366 582 L 379 604 Z"></path>
      </clipPath>
      <path clip-path="url(#make-me-a-hanzi-clip-0)" d="M 324 683 L 344 661 L 352 638 L 291 504 L 196 365 L 145 310 L 74 254" fill="none" id="make-me-a-hanzi-animation-0" stroke-dasharray="663 1326" stroke-linecap="round"></path>
    
      <clipPath id="make-me-a-hanzi-clip-1">
        <path d="M 366 582 L 386 566 Q 388 565 426 532 L 457 504 Q 474 488 486 486 Q 491 485 495 485 Q 505 485 508 490 Q 513 495 513 508 L 513 512 Q 512 528 506 540 Q 500 552 489 562 Q 479 572 468 576 Q 457 580 432 588 L 379 604 C 350 613 343 601 366 582 Z"></path>
      </clipPath>
      <path clip-path="url(#make-me-a-hanzi-clip-1)" d="M 376 584 L 386 586 L 459 545 L 496 501" fill="none" id="make-me-a-hanzi-animation-1" stroke-dasharray="279 558" stroke-linecap="round"></path>
    
      <clipPath id="make-me-a-hanzi-clip-2">
        <path d="M 265 414 L 279 404 Q 286 398 303 398 Q 306 397 311 397 Q 321 397 336 401 L 366 407 L 440 422 Q 446 423 450 425 Q 454 428 456 431 Q 456 436 446 442 Q 436 448 419 452 Q 402 456 398 456 Q 392 455 379 450 L 343 440 Q 320 434 273 425 C 255 421 255 421 265 414 Z"></path>
      </clipPath>
      <path clip-path="url(#make-me-a-hanzi-clip-2)" d="M 272 417 L 309 414 L 408 436 L 448 433" fill="none" id="make-me-a-hanzi-animation-2" stroke-dasharray="307 614" stroke-linecap="round"></path>
    
      <clipPath id="make-me-a-hanzi-clip-3">
        <path d="M 419 319 L 413 287 L 384 189 C 375 160 396 167 412 192 L 463 272 L 474 289 Q 478 296 482 300 L 494 310 Q 498 315 499 319 L 499 320 Q 499 325 493 331 Q 487 338 472 348 Q 456 358 448 362 Q 442 364 437 364 L 433 364 Q 428 363 418 356 Q 406 350 398 347 Q 388 344 356 336 Q 322 329 312 328 L 270 322 L 248 319 L 222 316 Q 221 315 221 311 L 221 307 Q 222 301 234 292 Q 248 283 254 281 Q 259 280 265 280 L 270 280 Q 280 281 327 294 L 419 319 Z"></path>
      </clipPath>
      <path clip-path="url(#make-me-a-hanzi-clip-3)" d="M 229 312 L 248 302 L 270 301 L 361 319 L 420 338 L 440 336 L 452 314 L 404 205 L 390 195" fill="none" id="make-me-a-hanzi-animation-3" stroke-dasharray="508 1016" stroke-linecap="round"></path>
    
      <clipPath id="make-me-a-hanzi-clip-4">
        <path d="M 272 169 L 251 172 L 226 176 Q 219 176 216 172 Q 215 171 215 169 Q 215 167 216 165 Q 218 162 224 155 Q 232 148 236 138 Q 240 128 243 118 L 267 -9 Q 275 -24 282 -24 L 284 -24 Q 291 -23 296 -11 L 302 2 C 304 6 304 6 300 35 L 285 147 C 282 168 282 168 272 169 Z"></path>
      </clipPath>
      <path clip-path="url(#make-me-a-hanzi-clip-4)" d="M 222 169 L 253 151 L 263 137 L 283 -15" fill="none" id="make-me-a-hanzi-animation-4" stroke-dasharray="334 668" stroke-linecap="round"></path>
    
      <clipPath id="make-me-a-hanzi-clip-5">
        <path d="M 384 189 L 272 169 C 242 164 255 144 285 147 L 417 162 Q 425 163 431 163 Q 439 163 440 161 Q 442 160 442 155 Q 442 150 440 142 L 426 52 C 421 22 450 15 462 42 L 490 104 Q 492 106 501 122 Q 510 136 518 143 Q 524 150 526 152 L 526 154 Q 526 159 520 168 Q 514 176 501 188 Q 488 198 478 202 Q 470 206 461 206 Q 456 206 442 201 Q 428 196 412 192 L 384 189 Z"></path>
      </clipPath>
      <path clip-path="url(#make-me-a-hanzi-clip-5)" d="M 280 166 L 295 161 L 441 181 L 464 177 L 480 157 L 449 66 L 434 58" fill="none" id="make-me-a-hanzi-animation-5" stroke-dasharray="453 906" stroke-linecap="round"></path>
    
      <clipPath id="make-me-a-hanzi-clip-6">
        <path d="M 302 2 L 470 15 Q 478 16 479 21 L 479 23 Q 479 27 475 32 Q 470 37 462 42 C 443 54 443 54 426 52 L 300 35 C 270 31 272 0 302 2 Z"></path>
      </clipPath>
      <path clip-path="url(#make-me-a-hanzi-clip-6)" d="M 309 8 L 316 19 L 421 32 L 452 30 L 472 22" fill="none" id="make-me-a-hanzi-animation-6" stroke-dasharray="299 598" stroke-linecap="round"></path>
    
      <clipPath id="make-me-a-hanzi-clip-7">
        <path d="M 700 592 L 790 600 L 859 606 Q 882 609 895 610 L 928 612 Q 950 613 957 618 Q 963 623 963 627 L 963 628 Q 963 633 954 640 Q 946 647 936 652 Q 926 657 913 662 Q 900 666 893 666 Q 889 666 881 664 L 863 660 L 834 653 Q 816 649 808 648 L 720 636 Q 660 628 633 624 Q 606 620 587 616 Q 568 613 559 612 L 535 610 Q 528 609 526 607 Q 524 605 523 602 L 523 601 Q 523 594 538 586 Q 556 576 569 572 Q 579 569 589 569 L 594 569 Q 600 569 614 574 Q 628 578 636 580 Q 645 582 661 585 L 700 592 Z"></path>
      </clipPath>
      <path clip-path="url(#make-me-a-hanzi-clip-7)" d="M 530 602 L 586 592 L 695 613 L 892 638 L 953 628" fill="none" id="make-me-a-hanzi-animation-7" stroke-dasharray="556 1112" stroke-linecap="round"></path>
    
      <clipPath id="make-me-a-hanzi-clip-8">
        <path d="M 662 460 L 676 476 Q 680 480 696 500 Q 712 520 721 530 Q 730 541 735 546 Q 741 552 742 556 Q 742 560 739 564 Q 735 570 725 576 L 712 585 Q 708 587 700 592 C 674 608 655 614 661 585 L 665 565 L 665 560 Q 665 551 660 532 Q 654 509 646 490 Q 638 472 636 466 Q 633 461 630 455 C 616 428 642 437 662 460 Z"></path>
      </clipPath>
      <path clip-path="url(#make-me-a-hanzi-clip-8)" d="M 668 581 L 695 561 L 695 546 L 661 482 L 635 460" fill="none" id="make-me-a-hanzi-animation-8" stroke-dasharray="283 566" stroke-linecap="round"></path>
    
      <clipPath id="make-me-a-hanzi-clip-9">
        <path d="M 620 453 L 604 458 Q 580 466 574 466 Q 567 464 564 460 Q 563 458 563 456 Q 563 454 564 451 Q 566 446 570 437 Q 575 429 578 420 Q 582 410 583 399 Q 585 387 585 370 L 582 251 Q 582 238 577 207 Q 573 176 570 159 Q 566 142 566 136 Q 566 126 569 114 Q 572 102 577 92 Q 582 82 588 76 Q 594 66 603 66 Q 611 67 613 81 L 616 99 L 619 132 L 622 208 L 622 230 L 624 315 L 625 338 L 628 424 C 629 450 629 450 620 453 Z"></path>
      </clipPath>
      <path clip-path="url(#make-me-a-hanzi-clip-9)" d="M 574 456 L 599 433 L 606 403 L 603 252 L 592 133 L 601 76" fill="none" id="make-me-a-hanzi-animation-9" stroke-dasharray="521 1042" stroke-linecap="round"></path>
    
      <clipPath id="make-me-a-hanzi-clip-10">
        <path d="M 841 111 L 841 90 Q 841 80 847 66 Q 854 52 860 48 Q 866 44 872 44 Q 879 44 890 59 Q 902 74 905 90 Q 908 106 909 123 L 908 176 L 906 342 L 906 358 Q 906 373 907 383 Q 908 398 911 413 Q 914 428 918 436 Q 924 449 924 454 Q 924 458 913 468 Q 902 478 876 488 Q 850 498 845 498 Q 839 498 825 493 Q 811 488 801 485 Q 791 483 768 479 L 662 460 L 630 455 L 620 453 C 590 448 598 422 628 424 L 653 426 Q 660 426 687 432 Q 714 438 730 440 L 782 448 Q 799 450 814 451 L 820 451 Q 831 451 834 448 Q 838 444 840 433 Q 840 422 842 402 Q 843 381 843 369 L 843 358 L 844 341 L 846 246 L 846 231 L 846 203 Q 846 196 845 176 L 844 154 Q 843 148 842 137 L 841 111 Z"></path>
      </clipPath>
      <path clip-path="url(#make-me-a-hanzi-clip-10)" d="M 626 447 L 655 442 L 844 472 L 878 444 L 877 156 L 870 58" fill="none" id="make-me-a-hanzi-animation-10" stroke-dasharray="779 1558" stroke-linecap="round"></path>
    
      <clipPath id="make-me-a-hanzi-clip-11">
        <path d="M 843 358 L 828 364 Q 824 366 809 368 Q 799 370 792 370 L 788 370 Q 783 370 770 366 Q 756 362 737 359 L 633 339 L 625 338 C 595 334 595 322 624 315 L 644 310 Q 650 308 661 308 L 689 313 L 817 334 Q 822 334 828 336 Q 835 338 844 341 C 867 348 867 348 843 358 Z"></path>
      </clipPath>
      <path clip-path="url(#make-me-a-hanzi-clip-11)" d="M 630 332 L 651 325 L 787 350 L 838 345" fill="none" id="make-me-a-hanzi-animation-11" stroke-dasharray="340 680" stroke-linecap="round"></path>
    
      <clipPath id="make-me-a-hanzi-clip-12">
        <path d="M 846 246 L 831 256 Q 829 257 816 260 Q 804 262 800 263 Q 794 263 780 260 Q 767 257 766 257 L 622 230 C 593 224 594 220 622 208 L 629 205 Q 631 204 643 202 Q 654 201 660 201 L 663 201 Q 671 201 690 204 L 817 224 L 833 227 Q 837 228 846 231 C 861 236 861 236 846 246 Z"></path>
      </clipPath>
      <path clip-path="url(#make-me-a-hanzi-clip-12)" d="M 630 225 L 637 218 L 667 219 L 798 242 L 837 239" fill="none" id="make-me-a-hanzi-animation-12" stroke-dasharray="340 680" stroke-linecap="round"></path>
    
      <clipPath id="make-me-a-hanzi-clip-13">
        <path d="M 682 98 L 712 100 L 841 111 C 871 114 869 125 842 137 L 822 146 Q 810 150 791 151 Q 782 151 766 148 Q 750 146 745 146 L 619 132 C 589 129 587 107 616 99 L 627 96 Q 628 96 637 95 L 682 98 Z"></path>
      </clipPath>
      <path clip-path="url(#make-me-a-hanzi-clip-13)" d="M 623 104 L 643 115 L 798 130 L 825 126 L 833 118" fill="none" id="make-me-a-hanzi-animation-13" stroke-dasharray="345 690" stroke-linecap="round"></path>
    
      <clipPath id="make-me-a-hanzi-clip-14">
        <path d="M 637 95 L 635 84 Q 634 80 628 67 Q 623 54 615 40 Q 606 26 587 2 Q 568 -22 556 -35 Q 546 -47 526 -68 Q 506 -88 499 -94 L 488 -104 Q 476 -114 476 -117 Q 476 -120 480 -123 Q 481 -124 482 -124 Q 486 -124 492 -120 L 508 -112 Q 522 -105 545 -92 Q 567 -78 594 -56 Q 621 -34 644 -10 L 674 22 Q 688 37 701 44 L 716 54 Q 718 56 720 60 L 720 63 Q 720 70 714 76 Q 706 84 699 88 L 682 98 C 656 113 642 122 637 95 Z"></path>
      </clipPath>
      <path clip-path="url(#make-me-a-hanzi-clip-14)" d="M 711 62 L 674 65 L 662 59 L 630 13 L 564 -57 L 482 -117" fill="none" id="make-me-a-hanzi-animation-14" stroke-dasharray="432 864" stroke-linecap="round"></path>
    
      <clipPath id="make-me-a-hanzi-clip-15">
        <path d="M 784 34 L 806 8 Q 817 -4 844 -39 L 877 -82 Q 895 -106 906 -117 Q 923 -137 935 -137 L 936 -137 Q 948 -136 954 -129 Q 961 -122 962 -106 Q 963 -101 963 -95 Q 963 -85 960 -76 Q 957 -62 944 -42 Q 931 -23 914 -10 Q 898 4 875 17 Q 852 30 831 40 Q 810 50 798 54 L 784 59 Q 779 60 776 60 L 773 60 Q 769 60 768 56 Q 768 52 774 46 L 784 34 Z"></path>
      </clipPath>
      <path clip-path="url(#make-me-a-hanzi-clip-15)" d="M 774 53 L 877 -24 L 924 -82 L 936 -117" fill="none" id="make-me-a-hanzi-animation-15" stroke-dasharray="368 736" stroke-linecap="round"></path>
    
  </g>
</svg>