<svg xmlns="http://www.w3.org/2000/svg" version="1.1" viewBox="0 0 1024 1024">
  <g stroke="lightgray" stroke-dasharray="1,1" stroke-width="1" transform="scale(4, 4)">
    <line x1="0" y1="0" x2="256" y2="256" />
    <line x1="256" y1="0" x2="0" y2="256" />
    <line x1="128" y1="0" x2="128" y2="256" />
    <line x1="0" y1="128" x2="256" y2="128" />
  </g>
  <g transform="scale(1.0, -1.0) translate(0.0, -796.50)">
    <style type="text/css">
      
        @keyframes keyframes0 {
          from {
            stroke: blue;
            stroke-dashoffset: 570;
            stroke-width: 128;
          }
          65% {
            animation-timing-function: step-end;
            stroke: blue;
            stroke-dashoffset: 0;
            stroke-width: 128;
          }
          to {
            stroke: black;
            stroke-width: 1024;
          }
        }
        #make-me-a-hanzi-animation-0 {
          animation: keyframes0 0.7138671875s both;
          animation-delay: 0s;
          animation-timing-function: linear;
        }
      
        @keyframes keyframes1 {
          from {
            stroke: blue;
            stroke-dashoffset: 529;
            stroke-width: 128;
          }
          63% {
            animation-timing-function: step-end;
            stroke: blue;
            stroke-dashoffset: 0;
            stroke-width: 128;
          }
          to {
            stroke: black;
            stroke-width: 1024;
          }
        }
        #make-me-a-hanzi-animation-1 {
          animation: keyframes1 0.6805013020833334s both;
          animation-delay: 0.7138671875s;
          animation-timing-function: linear;
        }
      
        @keyframes keyframes2 {
          from {
            stroke: blue;
            stroke-dashoffset: 358;
            stroke-width: 128;
          }
          54% {
            animation-timing-function: step-end;
            stroke: blue;
            stroke-dashoffset: 0;
            stroke-width: 128;
          }
          to {
            stroke: black;
            stroke-width: 1024;
          }
        }
        #make-me-a-hanzi-animation-2 {
          animation: keyframes2 0.5413411458333334s both;
          animation-delay: 1.3943684895833335s;
          animation-timing-function: linear;
        }
      
        @keyframes keyframes3 {
          from {
            stroke: blue;
            stroke-dashoffset: 476;
            stroke-width: 128;
          }
          61% {
            animation-timing-function: step-end;
            stroke: blue;
            stroke-dashoffset: 0;
            stroke-width: 128;
          }
          to {
            stroke: black;
            stroke-width: 1024;
          }
        }
        #make-me-a-hanzi-animation-3 {
          animation: keyframes3 0.6373697916666666s both;
          animation-delay: 1.935709635416667s;
          animation-timing-function: linear;
        }
      
        @keyframes keyframes4 {
          from {
            stroke: blue;
            stroke-dashoffset: 347;
            stroke-width: 128;
          }
          53% {
            animation-timing-function: step-end;
            stroke: blue;
            stroke-dashoffset: 0;
            stroke-width: 128;
          }
          to {
            stroke: black;
            stroke-width: 1024;
          }
        }
        #make-me-a-hanzi-animation-4 {
          animation: keyframes4 0.5323893229166666s both;
          animation-delay: 2.5730794270833335s;
          animation-timing-function: linear;
        }
      
        @keyframes keyframes5 {
          from {
            stroke: blue;
            stroke-dashoffset: 1147;
            stroke-width: 128;
          }
          79% {
            animation-timing-function: step-end;
            stroke: blue;
            stroke-dashoffset: 0;
            stroke-width: 128;
          }
          to {
            stroke: black;
            stroke-width: 1024;
          }
        }
        #make-me-a-hanzi-animation-5 {
          animation: keyframes5 1.1834309895833333s both;
          animation-delay: 3.10546875s;
          animation-timing-function: linear;
        }
      
        @keyframes keyframes6 {
          from {
            stroke: blue;
            stroke-dashoffset: 447;
            stroke-width: 128;
          }
          59% {
            animation-timing-function: step-end;
            stroke: blue;
            stroke-dashoffset: 0;
            stroke-width: 128;
          }
          to {
            stroke: black;
            stroke-width: 1024;
          }
        }
        #make-me-a-hanzi-animation-6 {
          animation: keyframes6 0.61376953125s both;
          animation-delay: 4.288899739583333s;
          animation-timing-function: linear;
        }
      
        @keyframes keyframes7 {
          from {
            stroke: blue;
            stroke-dashoffset: 664;
            stroke-width: 128;
          }
          68% {
            animation-timing-function: step-end;
            stroke: blue;
            stroke-dashoffset: 0;
            stroke-width: 128;
          }
          to {
            stroke: black;
            stroke-width: 1024;
          }
        }
        #make-me-a-hanzi-animation-7 {
          animation: keyframes7 0.7903645833333334s both;
          animation-delay: 4.902669270833333s;
          animation-timing-function: linear;
        }
      
        @keyframes keyframes8 {
          from {
            stroke: blue;
            stroke-dashoffset: 410;
            stroke-width: 128;
          }
          57% {
            animation-timing-function: step-end;
            stroke: blue;
            stroke-dashoffset: 0;
            stroke-width: 128;
          }
          to {
            stroke: black;
            stroke-width: 1024;
          }
        }
        #make-me-a-hanzi-animation-8 {
          animation: keyframes8 0.5836588541666666s both;
          animation-delay: 5.693033854166666s;
          animation-timing-function: linear;
        }
      
        @keyframes keyframes9 {
          from {
            stroke: blue;
            stroke-dashoffset: 655;
            stroke-width: 128;
          }
          68% {
            animation-timing-function: step-end;
            stroke: blue;
            stroke-dashoffset: 0;
            stroke-width: 128;
          }
          to {
            stroke: black;
            stroke-width: 1024;
          }
        }
        #make-me-a-hanzi-animation-9 {
          animation: keyframes9 0.7830403645833334s both;
          animation-delay: 6.276692708333333s;
          animation-timing-function: linear;
        }
      
        @keyframes keyframes10 {
          from {
            stroke: blue;
            stroke-dashoffset: 907;
            stroke-width: 128;
          }
          75% {
            animation-timing-function: step-end;
            stroke: blue;
            stroke-dashoffset: 0;
            stroke-width: 128;
          }
          to {
            stroke: black;
            stroke-width: 1024;
          }
        }
        #make-me-a-hanzi-animation-10 {
          animation: keyframes10 0.9881184895833334s both;
          animation-delay: 7.059733072916666s;
          animation-timing-function: linear;
        }
      
        @keyframes keyframes11 {
          from {
            stroke: blue;
            stroke-dashoffset: 469;
            stroke-width: 128;
          }
          60% {
            animation-timing-function: step-end;
            stroke: blue;
            stroke-dashoffset: 0;
            stroke-width: 128;
          }
          to {
            stroke: black;
            stroke-width: 1024;
          }
        }
        #make-me-a-hanzi-animation-11 {
          animation: keyframes11 0.6316731770833334s both;
          animation-delay: 8.0478515625s;
          animation-timing-function: linear;
        }
      
        @keyframes keyframes12 {
          from {
            stroke: blue;
            stroke-dashoffset: 471;
            stroke-width: 128;
          }
          61% {
            animation-timing-function: step-end;
            stroke: blue;
            stroke-dashoffset: 0;
            stroke-width: 128;
          }
          to {
            stroke: black;
            stroke-width: 1024;
          }
        }
        #make-me-a-hanzi-animation-12 {
          animation: keyframes12 0.63330078125s both;
          animation-delay: 8.679524739583334s;
          animation-timing-function: linear;
        }
      
        @keyframes keyframes13 {
          from {
            stroke: blue;
            stroke-dashoffset: 477;
            stroke-width: 128;
          }
          61% {
            animation-timing-function: step-end;
            stroke: blue;
            stroke-dashoffset: 0;
            stroke-width: 128;
          }
          to {
            stroke: black;
            stroke-width: 1024;
          }
        }
        #make-me-a-hanzi-animation-13 {
          animation: keyframes13 0.63818359375s both;
          animation-delay: 9.312825520833334s;
          animation-timing-function: linear;
        }
      
        @keyframes keyframes14 {
          from {
            stroke: blue;
            stroke-dashoffset: 550;
            stroke-width: 128;
          }
          64% {
            animation-timing-function: step-end;
            stroke: blue;
            stroke-dashoffset: 0;
            stroke-width: 128;
          }
          to {
            stroke: black;
            stroke-width: 1024;
          }
        }
        #make-me-a-hanzi-animation-14 {
          animation: keyframes14 0.6975911458333334s both;
          animation-delay: 9.951009114583334s;
          animation-timing-function: linear;
        }
      
        @keyframes keyframes15 {
          from {
            stroke: blue;
            stroke-dashoffset: 499;
            stroke-width: 128;
          }
          62% {
            animation-timing-function: step-end;
            stroke: blue;
            stroke-dashoffset: 0;
            stroke-width: 128;
          }
          to {
            stroke: black;
            stroke-width: 1024;
          }
        }
        #make-me-a-hanzi-animation-15 {
          animation: keyframes15 0.6560872395833334s both;
          animation-delay: 10.648600260416668s;
          animation-timing-function: linear;
        }
      
    </style>
    
      <path d="M 370 500 L 404 506 L 448 512 Q 457 514 472 518 L 490 522 Q 498 523 500 528 Q 501 530 501 531 Q 501 536 496 540 Q 490 548 480 552 Q 470 556 458 559 Q 446 562 438 562 Q 432 560 419 556 Q 406 551 395 548 Q 384 546 372 543 L 317 532 L 281 527 Q 275 526 246 522 Q 217 518 206 517 L 195 516 Q 186 515 182 514 Q 178 512 178 510 Q 177 509 177 508 Q 177 504 181 500 Q 186 494 197 490 Q 208 485 217 482 Q 226 480 239 480 Q 248 480 266 484 Q 284 486 316 492 L 370 500 Z" fill="lightgray" />
    
      <path d="M 202 321 L 224 355 Q 233 368 241 375 Q 250 381 250 384 Q 251 385 251 387 Q 251 391 247 397 Q 242 406 224 420 Q 203 434 195 434 L 194 434 Q 185 434 183 432 Q 181 430 180 424 L 178 396 Q 175 380 168 358 Q 161 336 152 318 Q 143 300 124 271 Q 105 242 98 234 L 80 212 Q 75 205 75 200 Q 75 198 76 196 Q 77 194 79 194 Q 83 194 91 200 L 110 212 Q 120 220 138 239 Q 157 259 167 272 Q 177 284 180 289 Q 184 294 188 301 L 202 321 Z" fill="lightgray" />
    
      <path d="M 188 301 L 205 279 L 232 241 Q 247 220 255 220 L 256 220 Q 264 222 270 231 Q 277 240 280 254 L 280 261 Q 280 270 278 274 Q 274 280 256 292 L 235 306 Q 231 308 220 313 Q 210 317 202 321 C 175 334 170 325 188 301 Z" fill="lightgray" />
    
      <path d="M 459 342 L 466 352 L 482 374 Q 491 388 499 394 Q 507 400 508 404 Q 509 405 509 407 Q 509 410 505 416 Q 500 424 481 439 Q 458 454 451 454 Q 443 454 441 451 Q 438 448 438 443 L 435 416 Q 432 400 426 378 Q 420 357 410 338 Q 401 320 386 298 L 369 273 Q 363 265 363 260 Q 363 258 364 257 Q 365 255 367 255 Q 371 255 380 261 L 398 274 Q 402 276 419 292 Q 436 308 438 312 Q 442 316 448 327 L 459 342 Z" fill="lightgray" />
    
      <path d="M 448 327 L 462 310 L 475 290 Q 485 276 491 269 Q 496 262 504 256 Q 512 251 517 251 L 519 251 Q 525 252 531 260 Q 536 268 536 280 Q 536 293 531 302 Q 526 312 510 321 Q 493 330 482 334 L 459 342 C 431 352 429 350 448 327 Z" fill="lightgray" />
    
      <path d="M 316 492 L 315 449 Q 314 404 308 344 Q 303 283 295 242 Q 286 201 275 167 Q 263 133 242 94 Q 221 54 198 29 Q 175 3 150 -18 L 114 -48 L 88 -66 Q 83 -70 83 -73 Q 83 -75 84 -76 Q 86 -78 90 -78 Q 93 -78 98 -77 L 124 -68 Q 141 -63 172 -43 Q 202 -22 230 2 Q 256 26 278 62 Q 298 98 311 130 L 332 186 L 336 206 L 354 292 L 358 323 Q 359 333 363 392 L 367 451 L 370 500 L 372 543 L 372 562 Q 372 581 374 595 Q 375 610 378 627 Q 380 644 384 654 Q 389 666 389 673 Q 388 679 378 688 Q 368 698 356 703 Q 344 709 329 713 Q 320 715 312 715 Q 307 715 303 714 Q 293 712 291 708 Q 290 706 290 704 Q 290 699 294 692 L 302 678 Q 305 670 308 658 Q 312 647 314 628 Q 316 609 317 594 L 316 559 L 317 532 L 316 492 Z" fill="lightgray" />
    
      <path d="M 332 186 L 357 152 L 385 114 Q 395 99 411 78 Q 427 58 438 48 Q 447 39 455 39 L 457 39 Q 466 40 473 50 Q 478 59 478 75 L 478 81 Q 476 102 472 113 Q 468 124 457 136 Q 446 148 423 162 Q 400 176 382 186 L 336 206 C 309 218 314 210 332 186 Z" fill="lightgray" />
    
      <path d="M 697 587 L 770 594 L 826 600 Q 863 604 874 604 L 908 606 Q 930 608 936 613 Q 943 618 943 623 Q 942 628 934 634 Q 925 642 916 646 Q 906 652 893 656 Q 880 661 872 661 L 860 658 L 840 653 Q 826 650 805 646 Q 784 641 741 634 Q 699 628 662 624 L 584 614 Q 562 612 556 611 L 533 608 Q 525 608 523 606 Q 520 604 520 600 Q 520 594 537 584 Q 554 575 566 570 Q 575 567 582 567 Q 586 567 590 568 L 614 574 L 639 577 Q 646 578 659 581 L 697 587 Z" fill="lightgray" />
    
      <path d="M 660 457 L 674 472 L 698 502 L 720 528 Q 727 536 733 542 Q 738 547 739 551 L 739 553 Q 739 556 736 560 Q 732 565 722 572 Q 712 578 709 580 Q 706 582 697 587 C 671 602 655 611 659 581 L 662 561 Q 663 559 663 556 Q 663 546 658 528 Q 652 505 644 486 L 628 451 C 616 424 640 435 660 457 Z" fill="lightgray" />
    
      <path d="M 612 448 L 596 454 Q 576 461 568 461 L 566 461 Q 559 460 556 456 Q 555 454 555 452 Q 555 450 556 447 Q 558 442 563 433 Q 568 425 570 416 Q 573 406 575 394 Q 576 382 576 366 L 574 242 Q 574 231 568 196 Q 564 162 561 148 Q 558 134 558 128 Q 558 117 560 105 L 568 84 Q 573 74 580 67 Q 587 58 595 58 Q 603 58 605 72 L 607 90 L 611 123 L 613 202 L 614 225 L 616 306 L 617 331 L 620 420 C 621 445 621 445 612 448 Z" fill="lightgray" />
    
      <path d="M 830 104 L 838 76 Q 844 57 850 48 Q 855 42 861 42 L 865 42 Q 873 44 879 50 Q 885 56 891 68 Q 898 80 900 90 L 904 110 L 901 172 L 898 338 Q 898 358 900 378 Q 902 398 904 410 Q 906 424 910 431 Q 917 443 917 448 L 917 449 Q 917 454 908 462 Q 899 470 885 476 Q 871 483 858 488 Q 846 494 840 494 Q 834 494 821 489 Q 808 484 793 480 L 763 474 L 660 457 L 628 451 L 612 448 C 583 442 590 418 620 420 L 645 422 L 682 429 L 727 436 L 777 444 Q 790 446 807 447 L 813 447 Q 825 447 829 444 Q 833 440 834 426 L 836 403 L 838 364 L 838 346 L 838 339 L 841 194 Q 841 186 840 168 Q 838 151 838 145 Q 838 139 837 128 C 835 98 825 121 830 104 Z" fill="lightgray" />
    
      <path d="M 838 346 L 822 355 Q 816 359 801 362 Q 791 363 783 363 L 776 363 Q 770 362 763 360 L 746 356 Q 740 354 726 352 L 617 331 C 588 325 587 312 616 306 L 632 303 Q 639 301 643 301 L 646 301 Q 650 301 678 306 L 806 326 Q 826 330 830 332 Q 834 335 838 339 C 843 343 843 343 838 346 Z" fill="lightgray" />
    
      <path d="M 613 202 L 634 197 Q 638 196 647 195 Q 656 195 680 199 L 808 218 Q 829 222 834 225 Q 839 228 839 232 L 839 233 Q 839 238 834 242 Q 829 248 823 250 Q 818 252 806 254 Q 794 256 790 257 Q 785 257 778 256 Q 771 254 756 252 L 614 225 C 585 219 584 209 613 202 Z" fill="lightgray" />
    
      <path d="M 668 88 L 703 92 L 830 104 C 860 107 865 116 837 128 L 816 137 Q 804 142 789 142 Q 780 142 764 140 Q 748 138 742 137 L 611 123 C 581 120 577 94 607 90 L 627 87 L 668 88 Z" fill="lightgray" />
    
      <path d="M 627 87 L 626 72 Q 625 70 619 55 Q 614 41 606 26 Q 598 10 585 -6 Q 573 -22 552 -47 L 520 -84 L 500 -104 L 484 -122 Q 478 -126 478 -130 Q 478 -132 479 -133 Q 480 -135 483 -135 Q 487 -135 494 -131 L 510 -122 Q 522 -116 540 -104 Q 558 -92 592 -64 Q 625 -36 655 -5 Q 686 26 696 34 Q 707 40 710 43 Q 712 46 713 50 L 713 53 Q 713 58 707 64 Q 699 72 691 76 Q 683 81 668 88 C 641 101 628 107 627 87 Z" fill="lightgray" />
    
      <path d="M 782 21 Q 798 4 805 -6 Q 812 -14 840 -50 Q 868 -84 880 -102 Q 894 -120 903 -128 Q 919 -146 928 -146 L 930 -146 Q 940 -143 947 -133 Q 954 -123 955 -103 L 955 -97 Q 955 -72 948 -58 Q 940 -41 918 -24 Q 896 -8 874 5 Q 852 17 832 26 Q 812 36 796 42 L 782 46 Q 776 48 772 48 Q 768 46 767 43 L 767 42 Q 767 39 772 33 L 782 21 Z" fill="lightgray" />
    
    
      <clipPath id="make-me-a-hanzi-clip-0">
        <path d="M 370 500 L 404 506 L 448 512 Q 457 514 472 518 L 490 522 Q 498 523 500 528 Q 501 530 501 531 Q 501 536 496 540 Q 490 548 480 552 Q 470 556 458 559 Q 446 562 438 562 Q 432 560 419 556 Q 406 551 395 548 Q 384 546 372 543 L 317 532 L 281 527 Q 275 526 246 522 Q 217 518 206 517 L 195 516 Q 186 515 182 514 Q 178 512 178 510 Q 177 509 177 508 Q 177 504 181 500 Q 186 494 197 490 Q 208 485 217 482 Q 226 480 239 480 Q 248 480 266 484 Q 284 486 316 492 L 370 500 Z" />
      </clipPath>
      <path clip-path="url(#make-me-a-hanzi-clip-0)" d="M 183 506 L 234 500 L 448 537 L 493 532" fill="none" id="make-me-a-hanzi-animation-0" stroke-dasharray="442 884" stroke-linecap="round" />
    
      <clipPath id="make-me-a-hanzi-clip-1">
        <path d="M 202 321 L 224 355 Q 233 368 241 375 Q 250 381 250 384 Q 251 385 251 387 Q 251 391 247 397 Q 242 406 224 420 Q 203 434 195 434 L 194 434 Q 185 434 183 432 Q 181 430 180 424 L 178 396 Q 175 380 168 358 Q 161 336 152 318 Q 143 300 124 271 Q 105 242 98 234 L 80 212 Q 75 205 75 200 Q 75 198 76 196 Q 77 194 79 194 Q 83 194 91 200 L 110 212 Q 120 220 138 239 Q 157 259 167 272 Q 177 284 180 289 Q 184 294 188 301 L 202 321 Z" />
      </clipPath>
      <path clip-path="url(#make-me-a-hanzi-clip-1)" d="M 190 425 L 210 390 L 192 351 L 150 278 L 80 199" fill="none" id="make-me-a-hanzi-animation-1" stroke-dasharray="401 802" stroke-linecap="round" />
    
      <clipPath id="make-me-a-hanzi-clip-2">
        <path d="M 188 301 L 205 279 L 232 241 Q 247 220 255 220 L 256 220 Q 264 222 270 231 Q 277 240 280 254 L 280 261 Q 280 270 278 274 Q 274 280 256 292 L 235 306 Q 231 308 220 313 Q 210 317 202 321 C 175 334 170 325 188 301 Z" />
      </clipPath>
      <path clip-path="url(#make-me-a-hanzi-clip-2)" d="M 203 313 L 252 260 L 256 230" fill="none" id="make-me-a-hanzi-animation-2" stroke-dasharray="230 460" stroke-linecap="round" />
    
      <clipPath id="make-me-a-hanzi-clip-3">
        <path d="M 459 342 L 466 352 L 482 374 Q 491 388 499 394 Q 507 400 508 404 Q 509 405 509 407 Q 509 410 505 416 Q 500 424 481 439 Q 458 454 451 454 Q 443 454 441 451 Q 438 448 438 443 L 435 416 Q 432 400 426 378 Q 420 357 410 338 Q 401 320 386 298 L 369 273 Q 363 265 363 260 Q 363 258 364 257 Q 365 255 367 255 Q 371 255 380 261 L 398 274 Q 402 276 419 292 Q 436 308 438 312 Q 442 316 448 327 L 459 342 Z" />
      </clipPath>
      <path clip-path="url(#make-me-a-hanzi-clip-3)" d="M 449 444 L 467 409 L 462 397 L 421 320 L 368 260" fill="none" id="make-me-a-hanzi-animation-3" stroke-dasharray="348 696" stroke-linecap="round" />
    
      <clipPath id="make-me-a-hanzi-clip-4">
        <path d="M 448 327 L 462 310 L 475 290 Q 485 276 491 269 Q 496 262 504 256 Q 512 251 517 251 L 519 251 Q 525 252 531 260 Q 536 268 536 280 Q 536 293 531 302 Q 526 312 510 321 Q 493 330 482 334 L 459 342 C 431 352 429 350 448 327 Z" />
      </clipPath>
      <path clip-path="url(#make-me-a-hanzi-clip-4)" d="M 456 327 L 472 322 L 502 296 L 518 265" fill="none" id="make-me-a-hanzi-animation-4" stroke-dasharray="219 438" stroke-linecap="round" />
    
      <clipPath id="make-me-a-hanzi-clip-5">
        <path d="M 316 492 L 315 449 Q 314 404 308 344 Q 303 283 295 242 Q 286 201 275 167 Q 263 133 242 94 Q 221 54 198 29 Q 175 3 150 -18 L 114 -48 L 88 -66 Q 83 -70 83 -73 Q 83 -75 84 -76 Q 86 -78 90 -78 Q 93 -78 98 -77 L 124 -68 Q 141 -63 172 -43 Q 202 -22 230 2 Q 256 26 278 62 Q 298 98 311 130 L 332 186 L 336 206 L 354 292 L 358 323 Q 359 333 363 392 L 367 451 L 370 500 L 372 543 L 372 562 Q 372 581 374 595 Q 375 610 378 627 Q 380 644 384 654 Q 389 666 389 673 Q 388 679 378 688 Q 368 698 356 703 Q 344 709 329 713 Q 320 715 312 715 Q 307 715 303 714 Q 293 712 291 708 Q 290 706 290 704 Q 290 699 294 692 L 302 678 Q 305 670 308 658 Q 312 647 314 628 Q 316 609 317 594 L 316 559 L 317 532 L 316 492 Z" />
      </clipPath>
      <path clip-path="url(#make-me-a-hanzi-clip-5)" d="M 301 703 L 328 686 L 347 659 L 336 363 L 326 275 L 307 187 L 276 107 L 229 32 L 180 -16 L 125 -55 L 88 -73" fill="none" id="make-me-a-hanzi-animation-5" stroke-dasharray="1019 2038" stroke-linecap="round" />
    
      <clipPath id="make-me-a-hanzi-clip-6">
        <path d="M 332 186 L 357 152 L 385 114 Q 395 99 411 78 Q 427 58 438 48 Q 447 39 455 39 L 457 39 Q 466 40 473 50 Q 478 59 478 75 L 478 81 Q 476 102 472 113 Q 468 124 457 136 Q 446 148 423 162 Q 400 176 382 186 L 336 206 C 309 218 314 210 332 186 Z" />
      </clipPath>
      <path clip-path="url(#make-me-a-hanzi-clip-6)" d="M 340 200 L 344 189 L 435 106 L 456 54" fill="none" id="make-me-a-hanzi-animation-6" stroke-dasharray="319 638" stroke-linecap="round" />
    
      <clipPath id="make-me-a-hanzi-clip-7">
        <path d="M 697 587 L 770 594 L 826 600 Q 863 604 874 604 L 908 606 Q 930 608 936 613 Q 943 618 943 623 Q 942 628 934 634 Q 925 642 916 646 Q 906 652 893 656 Q 880 661 872 661 L 860 658 L 840 653 Q 826 650 805 646 Q 784 641 741 634 Q 699 628 662 624 L 584 614 Q 562 612 556 611 L 533 608 Q 525 608 523 606 Q 520 604 520 600 Q 520 594 537 584 Q 554 575 566 570 Q 575 567 582 567 Q 586 567 590 568 L 614 574 L 639 577 Q 646 578 659 581 L 697 587 Z" />
      </clipPath>
      <path clip-path="url(#make-me-a-hanzi-clip-7)" d="M 528 600 L 591 591 L 869 632 L 932 623" fill="none" id="make-me-a-hanzi-animation-7" stroke-dasharray="536 1072" stroke-linecap="round" />
    
      <clipPath id="make-me-a-hanzi-clip-8">
        <path d="M 660 457 L 674 472 L 698 502 L 720 528 Q 727 536 733 542 Q 738 547 739 551 L 739 553 Q 739 556 736 560 Q 732 565 722 572 Q 712 578 709 580 Q 706 582 697 587 C 671 602 655 611 659 581 L 662 561 Q 663 559 663 556 Q 663 546 658 528 Q 652 505 644 486 L 628 451 C 616 424 640 435 660 457 Z" />
      </clipPath>
      <path clip-path="url(#make-me-a-hanzi-clip-8)" d="M 666 577 L 692 557 L 693 543 L 659 479 L 633 456" fill="none" id="make-me-a-hanzi-animation-8" stroke-dasharray="282 564" stroke-linecap="round" />
    
      <clipPath id="make-me-a-hanzi-clip-9">
        <path d="M 612 448 L 596 454 Q 576 461 568 461 L 566 461 Q 559 460 556 456 Q 555 454 555 452 Q 555 450 556 447 Q 558 442 563 433 Q 568 425 570 416 Q 573 406 575 394 Q 576 382 576 366 L 574 242 Q 574 231 568 196 Q 564 162 561 148 Q 558 134 558 128 Q 558 117 560 105 L 568 84 Q 573 74 580 67 Q 587 58 595 58 Q 603 58 605 72 L 607 90 L 611 123 L 613 202 L 614 225 L 616 306 L 617 331 L 620 420 C 621 445 621 445 612 448 Z" />
      </clipPath>
      <path clip-path="url(#make-me-a-hanzi-clip-9)" d="M 564 452 L 592 428 L 598 398 L 595 246 L 584 114 L 594 68" fill="none" id="make-me-a-hanzi-animation-9" stroke-dasharray="527 1054" stroke-linecap="round" />
    
      <clipPath id="make-me-a-hanzi-clip-10">
        <path d="M 830 104 L 838 76 Q 844 57 850 48 Q 855 42 861 42 L 865 42 Q 873 44 879 50 Q 885 56 891 68 Q 898 80 900 90 L 904 110 L 901 172 L 898 338 Q 898 358 900 378 Q 902 398 904 410 Q 906 424 910 431 Q 917 443 917 448 L 917 449 Q 917 454 908 462 Q 899 470 885 476 Q 871 483 858 488 Q 846 494 840 494 Q 834 494 821 489 Q 808 484 793 480 L 763 474 L 660 457 L 628 451 L 612 448 C 583 442 590 418 620 420 L 645 422 L 682 429 L 727 436 L 777 444 Q 790 446 807 447 L 813 447 Q 825 447 829 444 Q 833 440 834 426 L 836 403 L 838 364 L 838 346 L 838 339 L 841 194 Q 841 186 840 168 Q 838 151 838 145 Q 838 139 837 128 C 835 98 825 121 830 104 Z" />
      </clipPath>
      <path clip-path="url(#make-me-a-hanzi-clip-10)" d="M 617 442 L 631 436 L 648 438 L 821 468 L 843 467 L 864 449 L 871 438 L 871 147 L 863 58" fill="none" id="make-me-a-hanzi-animation-10" stroke-dasharray="779 1558" stroke-linecap="round" />
    
      <clipPath id="make-me-a-hanzi-clip-11">
        <path d="M 838 346 L 822 355 Q 816 359 801 362 Q 791 363 783 363 L 776 363 Q 770 362 763 360 L 746 356 Q 740 354 726 352 L 617 331 C 588 325 587 312 616 306 L 632 303 Q 639 301 643 301 L 646 301 Q 650 301 678 306 L 806 326 Q 826 330 830 332 Q 834 335 838 339 C 843 343 843 343 838 346 Z" />
      </clipPath>
      <path clip-path="url(#make-me-a-hanzi-clip-11)" d="M 621 312 L 774 342 L 831 343" fill="none" id="make-me-a-hanzi-animation-11" stroke-dasharray="341 682" stroke-linecap="round" />
    
      <clipPath id="make-me-a-hanzi-clip-12">
        <path d="M 613 202 L 634 197 Q 638 196 647 195 Q 656 195 680 199 L 808 218 Q 829 222 834 225 Q 839 228 839 232 L 839 233 Q 839 238 834 242 Q 829 248 823 250 Q 818 252 806 254 Q 794 256 790 257 Q 785 257 778 256 Q 771 254 756 252 L 614 225 C 585 219 584 209 613 202 Z" />
      </clipPath>
      <path clip-path="url(#make-me-a-hanzi-clip-12)" d="M 620 207 L 628 213 L 778 235 L 831 233" fill="none" id="make-me-a-hanzi-animation-12" stroke-dasharray="343 686" stroke-linecap="round" />
    
      <clipPath id="make-me-a-hanzi-clip-13">
        <path d="M 668 88 L 703 92 L 830 104 C 860 107 865 116 837 128 L 816 137 Q 804 142 789 142 Q 780 142 764 140 Q 748 138 742 137 L 611 123 C 581 120 577 94 607 90 L 627 87 L 668 88 Z" />
      </clipPath>
      <path clip-path="url(#make-me-a-hanzi-clip-13)" d="M 613 95 L 627 106 L 829 124" fill="none" id="make-me-a-hanzi-animation-13" stroke-dasharray="349 698" stroke-linecap="round" />
    
      <clipPath id="make-me-a-hanzi-clip-14">
        <path d="M 627 87 L 626 72 Q 625 70 619 55 Q 614 41 606 26 Q 598 10 585 -6 Q 573 -22 552 -47 L 520 -84 L 500 -104 L 484 -122 Q 478 -126 478 -130 Q 478 -132 479 -133 Q 480 -135 483 -135 Q 487 -135 494 -131 L 510 -122 Q 522 -116 540 -104 Q 558 -92 592 -64 Q 625 -36 655 -5 Q 686 26 696 34 Q 707 40 710 43 Q 712 46 713 50 L 713 53 Q 713 58 707 64 Q 699 72 691 76 Q 683 81 668 88 C 641 101 628 107 627 87 Z" />
      </clipPath>
      <path clip-path="url(#make-me-a-hanzi-clip-14)" d="M 700 52 L 658 50 L 612 -12 L 562 -65 L 483 -130" fill="none" id="make-me-a-hanzi-animation-14" stroke-dasharray="422 844" stroke-linecap="round" />
    
      <clipPath id="make-me-a-hanzi-clip-15">
        <path d="M 782 21 Q 798 4 805 -6 Q 812 -14 840 -50 Q 868 -84 880 -102 Q 894 -120 903 -128 Q 919 -146 928 -146 L 930 -146 Q 940 -143 947 -133 Q 954 -123 955 -103 L 955 -97 Q 955 -72 948 -58 Q 940 -41 918 -24 Q 896 -8 874 5 Q 852 17 832 26 Q 812 36 796 42 L 782 46 Q 776 48 772 48 Q 768 46 767 43 L 767 42 Q 767 39 772 33 L 782 21 Z" />
      </clipPath>
      <path clip-path="url(#make-me-a-hanzi-clip-15)" d="M 773 43 L 899 -59 L 915 -83 L 929 -133" fill="none" id="make-me-a-hanzi-animation-15" stroke-dasharray="371 742" stroke-linecap="round" />
    
  </g>
</svg>