<svg version="1.1" viewBox="0 0 1024 1024" xmlns="http://www.w3.org/2000/svg">
  <g stroke="lightgray" stroke-dasharray="1,1" stroke-width="1" transform="scale(4, 4)">
    <line x1="0" y1="0" x2="256" y2="256"></line>
    <line x1="256" y1="0" x2="0" y2="256"></line>
    <line x1="128" y1="0" x2="128" y2="256"></line>
    <line x1="0" y1="128" x2="256" y2="128"></line>
  </g>
  <g transform="scale(0.92, -0.92) translate(60, -830)">
    <style type="text/css">
      
        @keyframes keyframes0 {
          from {
            stroke: blue;
            stroke-dashoffset: 643;
            stroke-width: 128;
          }
          68% {
            animation-timing-function: step-end;
            stroke: blue;
            stroke-dashoffset: 0;
            stroke-width: 128;
          }
          to {
            stroke: black;
            stroke-width: 1024;
          }
        }
        #make-me-a-hanzi-animation-0 {
          animation: keyframes0 0.7732747395833334s both;
          animation-delay: 0s;
          animation-timing-function: linear;
        }
      
        @keyframes keyframes1 {
          from {
            stroke: blue;
            stroke-dashoffset: 911;
            stroke-width: 128;
          }
          75% {
            animation-timing-function: step-end;
            stroke: blue;
            stroke-dashoffset: 0;
            stroke-width: 128;
          }
          to {
            stroke: black;
            stroke-width: 1024;
          }
        }
        #make-me-a-hanzi-animation-1 {
          animation: keyframes1 0.9913736979166666s both;
          animation-delay: 0.7732747395833334s;
          animation-timing-function: linear;
        }
      
        @keyframes keyframes2 {
          from {
            stroke: blue;
            stroke-dashoffset: 405;
            stroke-width: 128;
          }
          57% {
            animation-timing-function: step-end;
            stroke: blue;
            stroke-dashoffset: 0;
            stroke-width: 128;
          }
          to {
            stroke: black;
            stroke-width: 1024;
          }
        }
        #make-me-a-hanzi-animation-2 {
          animation: keyframes2 0.57958984375s both;
          animation-delay: 1.7646484375s;
          animation-timing-function: linear;
        }
      
        @keyframes keyframes3 {
          from {
            stroke: blue;
            stroke-dashoffset: 506;
            stroke-width: 128;
          }
          62% {
            animation-timing-function: step-end;
            stroke: blue;
            stroke-dashoffset: 0;
            stroke-width: 128;
          }
          to {
            stroke: black;
            stroke-width: 1024;
          }
        }
        #make-me-a-hanzi-animation-3 {
          animation: keyframes3 0.6617838541666666s both;
          animation-delay: 2.34423828125s;
          animation-timing-function: linear;
        }
      
        @keyframes keyframes4 {
          from {
            stroke: blue;
            stroke-dashoffset: 722;
            stroke-width: 128;
          }
          70% {
            animation-timing-function: step-end;
            stroke: blue;
            stroke-dashoffset: 0;
            stroke-width: 128;
          }
          to {
            stroke: black;
            stroke-width: 1024;
          }
        }
        #make-me-a-hanzi-animation-4 {
          animation: keyframes4 0.8375651041666666s both;
          animation-delay: 3.0060221354166665s;
          animation-timing-function: linear;
        }
      
        @keyframes keyframes5 {
          from {
            stroke: blue;
            stroke-dashoffset: 421;
            stroke-width: 128;
          }
          58% {
            animation-timing-function: step-end;
            stroke: blue;
            stroke-dashoffset: 0;
            stroke-width: 128;
          }
          to {
            stroke: black;
            stroke-width: 1024;
          }
        }
        #make-me-a-hanzi-animation-5 {
          animation: keyframes5 0.5926106770833334s both;
          animation-delay: 3.843587239583333s;
          animation-timing-function: linear;
        }
      
        @keyframes keyframes6 {
          from {
            stroke: blue;
            stroke-dashoffset: 396;
            stroke-width: 128;
          }
          56% {
            animation-timing-function: step-end;
            stroke: blue;
            stroke-dashoffset: 0;
            stroke-width: 128;
          }
          to {
            stroke: black;
            stroke-width: 1024;
          }
        }
        #make-me-a-hanzi-animation-6 {
          animation: keyframes6 0.572265625s both;
          animation-delay: 4.436197916666666s;
          animation-timing-function: linear;
        }
      
        @keyframes keyframes7 {
          from {
            stroke: blue;
            stroke-dashoffset: 637;
            stroke-width: 128;
          }
          67% {
            animation-timing-function: step-end;
            stroke: blue;
            stroke-dashoffset: 0;
            stroke-width: 128;
          }
          to {
            stroke: black;
            stroke-width: 1024;
          }
        }
        #make-me-a-hanzi-animation-7 {
          animation: keyframes7 0.7683919270833334s both;
          animation-delay: 5.008463541666666s;
          animation-timing-function: linear;
        }
      
        @keyframes keyframes8 {
          from {
            stroke: blue;
            stroke-dashoffset: 452;
            stroke-width: 128;
          }
          60% {
            animation-timing-function: step-end;
            stroke: blue;
            stroke-dashoffset: 0;
            stroke-width: 128;
          }
          to {
            stroke: black;
            stroke-width: 1024;
          }
        }
        #make-me-a-hanzi-animation-8 {
          animation: keyframes8 0.6178385416666666s both;
          animation-delay: 5.776855468749999s;
          animation-timing-function: linear;
        }
      
        @keyframes keyframes9 {
          from {
            stroke: blue;
            stroke-dashoffset: 416;
            stroke-width: 128;
          }
          58% {
            animation-timing-function: step-end;
            stroke: blue;
            stroke-dashoffset: 0;
            stroke-width: 128;
          }
          to {
            stroke: black;
            stroke-width: 1024;
          }
        }
        #make-me-a-hanzi-animation-9 {
          animation: keyframes9 0.5885416666666666s both;
          animation-delay: 6.394694010416666s;
          animation-timing-function: linear;
        }
      
        @keyframes keyframes10 {
          from {
            stroke: blue;
            stroke-dashoffset: 618;
            stroke-width: 128;
          }
          67% {
            animation-timing-function: step-end;
            stroke: blue;
            stroke-dashoffset: 0;
            stroke-width: 128;
          }
          to {
            stroke: black;
            stroke-width: 1024;
          }
        }
        #make-me-a-hanzi-animation-10 {
          animation: keyframes10 0.7529296875s both;
          animation-delay: 6.983235677083333s;
          animation-timing-function: linear;
        }
      
        @keyframes keyframes11 {
          from {
            stroke: blue;
            stroke-dashoffset: 395;
            stroke-width: 128;
          }
          56% {
            animation-timing-function: step-end;
            stroke: blue;
            stroke-dashoffset: 0;
            stroke-width: 128;
          }
          to {
            stroke: black;
            stroke-width: 1024;
          }
        }
        #make-me-a-hanzi-animation-11 {
          animation: keyframes11 0.5714518229166666s both;
          animation-delay: 7.736165364583333s;
          animation-timing-function: linear;
        }
      
        @keyframes keyframes12 {
          from {
            stroke: blue;
            stroke-dashoffset: 653;
            stroke-width: 128;
          }
          68% {
            animation-timing-function: step-end;
            stroke: blue;
            stroke-dashoffset: 0;
            stroke-width: 128;
          }
          to {
            stroke: black;
            stroke-width: 1024;
          }
        }
        #make-me-a-hanzi-animation-12 {
          animation: keyframes12 0.7814127604166666s both;
          animation-delay: 8.3076171875s;
          animation-timing-function: linear;
        }
      
        @keyframes keyframes13 {
          from {
            stroke: blue;
            stroke-dashoffset: 897;
            stroke-width: 128;
          }
          74% {
            animation-timing-function: step-end;
            stroke: blue;
            stroke-dashoffset: 0;
            stroke-width: 128;
          }
          to {
            stroke: black;
            stroke-width: 1024;
          }
        }
        #make-me-a-hanzi-animation-13 {
          animation: keyframes13 0.97998046875s both;
          animation-delay: 9.089029947916666s;
          animation-timing-function: linear;
        }
      
        @keyframes keyframes14 {
          from {
            stroke: blue;
            stroke-dashoffset: 457;
            stroke-width: 128;
          }
          60% {
            animation-timing-function: step-end;
            stroke: blue;
            stroke-dashoffset: 0;
            stroke-width: 128;
          }
          to {
            stroke: black;
            stroke-width: 1024;
          }
        }
        #make-me-a-hanzi-animation-14 {
          animation: keyframes14 0.6219075520833334s both;
          animation-delay: 10.069010416666666s;
          animation-timing-function: linear;
        }
      
        @keyframes keyframes15 {
          from {
            stroke: blue;
            stroke-dashoffset: 464;
            stroke-width: 128;
          }
          60% {
            animation-timing-function: step-end;
            stroke: blue;
            stroke-dashoffset: 0;
            stroke-width: 128;
          }
          to {
            stroke: black;
            stroke-width: 1024;
          }
        }
        #make-me-a-hanzi-animation-15 {
          animation: keyframes15 0.6276041666666666s both;
          animation-delay: 10.69091796875s;
          animation-timing-function: linear;
        }
      
        @keyframes keyframes16 {
          from {
            stroke: blue;
            stroke-dashoffset: 465;
            stroke-width: 128;
          }
          60% {
            animation-timing-function: step-end;
            stroke: blue;
            stroke-dashoffset: 0;
            stroke-width: 128;
          }
          to {
            stroke: black;
            stroke-width: 1024;
          }
        }
        #make-me-a-hanzi-animation-16 {
          animation: keyframes16 0.62841796875s both;
          animation-delay: 11.318522135416666s;
          animation-timing-function: linear;
        }
      
        @keyframes keyframes17 {
          from {
            stroke: blue;
            stroke-dashoffset: 537;
            stroke-width: 128;
          }
          64% {
            animation-timing-function: step-end;
            stroke: blue;
            stroke-dashoffset: 0;
            stroke-width: 128;
          }
          to {
            stroke: black;
            stroke-width: 1024;
          }
        }
        #make-me-a-hanzi-animation-17 {
          animation: keyframes17 0.68701171875s both;
          animation-delay: 11.946940104166666s;
          animation-timing-function: linear;
        }
      
        @keyframes keyframes18 {
          from {
            stroke: blue;
            stroke-dashoffset: 476;
            stroke-width: 128;
          }
          61% {
            animation-timing-function: step-end;
            stroke: blue;
            stroke-dashoffset: 0;
            stroke-width: 128;
          }
          to {
            stroke: black;
            stroke-width: 1024;
          }
        }
        #make-me-a-hanzi-animation-18 {
          animation: keyframes18 0.6373697916666666s both;
          animation-delay: 12.633951822916666s;
          animation-timing-function: linear;
        }
      
    </style>
    
      <path d="M 253 559 L 277 562 L 344 572 L 379 576 L 439 584 Q 487 590 493 591 L 525 597 Q 546 600 553 605 Q 560 609 560 613 L 560 614 Q 560 620 553 625 Q 546 631 538 636 Q 529 640 516 645 Q 507 649 501 649 Q 498 649 496 648 Q 493 648 484 643 Q 475 639 453 634 Q 431 628 408 623 Q 385 618 347 613 Q 309 607 271 602 L 207 595 L 183 592 Q 173 590 169 590 Q 167 589 165 587 Q 164 586 164 584 Q 164 582 166 580 Q 169 576 173 573 L 185 564 C 200 552 223 555 253 559 Z" fill="lightgray"></path>
    
      <path d="M 185 564 L 187 555 Q 189 551 189 533 Q 190 515 191 512 Q 191 506 189 480 L 188 431 Q 187 403 183 366 Q 179 330 173 282 Q 166 235 158 198 Q 150 160 133 105 Q 115 50 104 25 Q 93 0 79 -28 L 67 -50 Q 65 -54 65 -56 Q 65 -60 68 -62 Q 70 -63 71 -63 Q 75 -63 79 -58 L 88 -47 Q 105 -27 125 4 Q 147 36 167 83 Q 187 130 200 180 Q 213 231 218 260 Q 223 290 231 346 Q 239 403 241 420 L 245 470 L 249 491 L 250 505 Q 251 518 257 528 Q 261 538 262 540 Q 262 545 260 549 Q 257 554 253 559 C 240 586 180 593 185 564 Z" fill="lightgray"></path>
    
      <path d="M 359 432 L 393 490 Q 403 506 408 510 Q 413 516 417 518 L 425 523 Q 429 526 430 528 L 430 529 Q 430 534 425 541 Q 418 548 401 556 L 377 564 Q 371 566 364 566 Q 359 566 357 564 Q 356 563 356 559 L 355 531 Q 353 515 349 492 Q 345 468 340 448 L 335 428 C 328 399 344 406 359 432 Z" fill="lightgray"></path>
    
      <path d="M 289 424 L 273 427 Q 259 429 258 430 Q 249 430 247 426 L 247 425 Q 247 422 251 415 L 261 400 Q 265 394 269 380 Q 275 366 277 342 L 293 218 Q 293 206 299 199 Q 303 192 308 190 Q 312 188 319 187 L 325 202 L 327 231 L 320 306 L 317 328 L 307 400 C 304 421 304 421 289 424 Z" fill="lightgray"></path>
    
      <path d="M 335 428 L 313 425 Q 309 424 289 424 C 259 424 277 400 307 400 L 324 400 Q 337 400 357 404 L 401 412 Q 444 420 447 421 Q 464 425 474 425 Q 479 425 482 424 Q 489 420 492 415 Q 494 412 494 404 Q 494 399 493 392 L 489 353 L 487 326 L 471 244 C 466 221 466 221 473 214 L 487 200 Q 489 197 491 197 Q 496 197 505 205 Q 518 218 525 250 L 557 383 Q 559 392 566 402 Q 574 413 575 418 Q 575 425 565 432 Q 557 440 540 449 L 510 466 Q 497 472 491 472 Q 485 471 472 464 Q 459 456 444 452 Q 430 448 405 442 Q 381 436 375 434 Q 369 434 359 432 L 335 428 Z" fill="lightgray"></path>
    
      <path d="M 489 353 L 473 356 Q 455 358 447 358 Q 438 358 414 350 Q 389 344 382 342 L 317 328 C 288 322 290 310 320 306 L 336 304 Q 343 303 348 303 Q 354 303 359 304 Q 363 304 379 306 L 425 314 L 487 326 C 516 332 518 347 489 353 Z" fill="lightgray"></path>
    
      <path d="M 325 202 L 366 204 L 423 210 L 473 214 C 503 216 500 237 471 244 L 451 249 L 429 245 L 327 231 C 297 227 295 201 325 202 Z" fill="lightgray"></path>
    
      <path d="M 366 204 L 373 184 Q 376 176 379 161 Q 381 145 381 126 L 379 16 Q 379 -4 375 -15 Q 373 -26 365 -30 Q 363 -31 359 -31 Q 352 -31 339 -27 L 317 -20 L 299 -14 Q 295 -14 292 -17 Q 291 -18 291 -20 Q 291 -21 293 -23 L 307 -35 L 329 -57 Q 341 -71 348 -80 Q 355 -90 359 -102 Q 363 -114 367 -115 Q 369 -116 371 -116 Q 378 -116 389 -109 Q 404 -98 412 -86 Q 420 -74 423 -54 Q 426 -34 426 -13 L 425 127 Q 425 144 426 162 Q 427 179 431 185 Q 435 192 435 193 Q 435 196 432 200 Q 429 204 423 210 C 403 232 356 232 366 204 Z" fill="lightgray"></path>
    
      <path d="M 206 -4 Q 211 -2 233 18 Q 255 36 255 38 L 289 72 Q 301 82 310 87 Q 319 92 321 96 Q 322 98 322 101 Q 322 105 319 110 Q 313 118 301 127 Q 289 136 281 140 Q 272 145 259 147 L 253 147 Q 248 147 246 146 Q 243 143 243 132 Q 242 122 237 105 Q 231 89 225 76 Q 219 62 207 41 Q 195 20 191 12 L 179 -4 Q 174 -13 174 -18 L 174 -20 Q 175 -23 179 -23 L 181 -23 L 195 -12 L 206 -4 Z" fill="lightgray"></path>
    
      <path d="M 475 125 L 487 108 Q 493 96 507 70 Q 521 44 528 33 Q 535 21 543 13 Q 553 2 561 2 L 563 2 Q 570 4 574 12 Q 579 22 579 32 Q 579 46 575 60 Q 571 74 564 83 Q 557 93 543 105 Q 528 117 521 122 Q 513 126 495 137 L 477 147 Q 474 148 472 148 Q 469 148 467 146 Q 466 145 466 143 Q 466 140 469 136 L 475 125 Z" fill="lightgray"></path>
    
      <path d="M 733 577 L 789 584 L 843 590 Q 879 594 888 594 L 920 596 Q 941 598 947 603 Q 953 608 953 613 Q 953 618 945 624 Q 937 631 927 637 Q 916 642 905 646 Q 894 650 886 650 Q 881 650 872 648 Q 863 645 857 644 Q 852 642 832 638 Q 813 634 805 632 L 731 620 L 671 610 Q 645 606 635 604 Q 626 602 613 601 L 589 598 Q 583 598 581 595 Q 579 593 578 590 L 578 589 Q 578 583 592 574 Q 608 566 621 561 Q 631 557 639 557 Q 642 557 645 558 Q 650 558 663 562 Q 677 566 701 572 L 733 577 Z" fill="lightgray"></path>
    
      <path d="M 703 454 L 711 462 L 731 489 Q 747 508 754 517 Q 761 526 767 532 Q 772 537 773 541 Q 773 544 770 550 Q 766 556 758 561 Q 750 567 745 570 Q 741 572 733 577 C 707 593 703 596 701 572 L 699 544 Q 697 521 694 509 Q 691 497 685 481 L 670 448 C 658 421 682 433 703 454 Z" fill="lightgray"></path>
    
      <path d="M 649 444 L 633 450 Q 612 457 605 457 L 604 457 Q 597 456 595 451 Q 593 449 593 446 Q 593 445 594 443 Q 595 438 600 430 Q 605 422 608 411 Q 611 400 613 389 Q 615 378 615 362 L 611 242 Q 611 233 607 198 Q 603 164 599 148 Q 596 132 596 128 L 596 124 Q 596 115 599 105 Q 603 92 607 83 Q 611 75 617 66 Q 625 57 632 57 Q 640 58 642 72 L 644 90 L 647 123 L 650 204 L 651 228 L 653 308 L 654 334 L 657 416 C 658 441 658 441 649 444 Z" fill="lightgray"></path>
    
      <path d="M 670 448 L 649 444 C 620 438 627 414 657 416 L 681 418 Q 693 418 721 424 Q 749 432 757 433 L 805 439 Q 834 442 842 443 L 845 443 Q 852 443 855 440 Q 859 436 861 421 Q 862 406 862 399 Q 863 392 863 384 L 863 356 L 864 334 L 865 249 L 866 226 L 867 194 Q 867 192 865 166 L 865 145 Q 864 139 863 128 C 860 98 853 115 856 103 L 865 72 Q 869 56 874 47 Q 879 38 884 38 L 885 38 Q 891 38 898 45 Q 905 52 910 63 Q 915 74 918 85 Q 921 97 921 106 L 919 167 L 917 334 L 917 348 Q 917 362 918 375 Q 919 394 922 406 Q 924 418 929 427 Q 935 440 935 444 Q 935 449 926 457 Q 917 466 905 473 Q 894 480 883 485 Q 873 490 865 490 Q 859 489 847 484 Q 835 480 821 476 Q 807 472 791 470 L 703 454 L 670 448 Z" fill="lightgray"></path>
    
      <path d="M 863 356 L 853 359 Q 846 361 834 364 Q 822 366 813 366 Q 807 365 799 363 L 783 358 Q 777 357 763 354 L 654 334 C 624 329 624 314 653 308 L 669 305 Q 676 303 683 303 Q 690 304 715 308 L 864 334 C 894 339 892 347 863 356 Z" fill="lightgray"></path>
    
      <path d="M 865 249 L 859 253 Q 856 254 843 256 Q 829 259 827 260 Q 821 260 812 258 Q 803 256 793 254 L 651 228 C 621 223 621 211 650 204 L 671 199 Q 674 198 685 198 Q 695 198 717 202 L 845 221 L 866 226 C 891 232 890 232 865 249 Z" fill="lightgray"></path>
    
      <path d="M 644 90 L 663 86 L 699 88 L 856 103 C 886 106 890 116 863 128 L 843 137 Q 831 142 815 142 Q 811 142 799 140 Q 787 138 771 137 L 647 123 C 617 120 615 96 644 90 Z" fill="lightgray"></path>
    
      <path d="M 663 86 L 663 78 Q 663 71 657 56 L 644 27 Q 636 12 623 -7 Q 609 -26 596 -42 L 567 -76 Q 552 -94 545 -100 L 535 -109 Q 525 -119 525 -123 Q 525 -126 529 -128 Q 530 -129 531 -129 Q 534 -129 540 -125 L 555 -116 Q 567 -110 587 -96 Q 609 -80 633 -59 Q 657 -38 675 -18 L 701 14 Q 714 29 725 37 Q 736 45 738 47 Q 741 50 741 52 L 741 55 Q 741 60 735 66 Q 727 74 720 78 Q 713 82 699 88 C 672 100 663 104 663 86 Z" fill="lightgray"></path>
    
      <path d="M 807 38 L 827 12 L 858 -30 Q 881 -60 893 -78 Q 905 -96 913 -104 Q 928 -121 938 -121 L 939 -121 Q 950 -120 959 -108 Q 966 -97 966 -80 L 966 -76 Q 964 -56 953 -37 Q 943 -18 927 -5 Q 911 9 890 22 L 850 44 Q 831 54 820 58 L 807 62 Q 799 64 796 64 Q 792 64 791 60 Q 791 56 797 50 L 807 38 Z" fill="lightgray"></path>
    
    
      <clipPath id="make-me-a-hanzi-clip-0">
        <path d="M 253 559 L 277 562 L 344 572 L 379 576 L 439 584 Q 487 590 493 591 L 525 597 Q 546 600 553 605 Q 560 609 560 613 L 560 614 Q 560 620 553 625 Q 546 631 538 636 Q 529 640 516 645 Q 507 649 501 649 Q 498 649 496 648 Q 493 648 484 643 Q 475 639 453 634 Q 431 628 408 623 Q 385 618 347 613 Q 309 607 271 602 L 207 595 L 183 592 Q 173 590 169 590 Q 167 589 165 587 Q 164 586 164 584 Q 164 582 166 580 Q 169 576 173 573 L 185 564 C 200 552 223 555 253 559 Z"></path>
      </clipPath>
      <path clip-path="url(#make-me-a-hanzi-clip-0)" d="M 169 584 L 186 578 L 248 579 L 399 599 L 500 621 L 551 614" fill="none" id="make-me-a-hanzi-animation-0" stroke-dasharray="515 1030" stroke-linecap="round"></path>
    
      <clipPath id="make-me-a-hanzi-clip-1">
        <path d="M 185 564 L 187 555 Q 189 551 189 533 Q 190 515 191 512 Q 191 506 189 480 L 188 431 Q 187 403 183 366 Q 179 330 173 282 Q 166 235 158 198 Q 150 160 133 105 Q 115 50 104 25 Q 93 0 79 -28 L 67 -50 Q 65 -54 65 -56 Q 65 -60 68 -62 Q 70 -63 71 -63 Q 75 -63 79 -58 L 88 -47 Q 105 -27 125 4 Q 147 36 167 83 Q 187 130 200 180 Q 213 231 218 260 Q 223 290 231 346 Q 239 403 241 420 L 245 470 L 249 491 L 250 505 Q 251 518 257 528 Q 261 538 262 540 Q 262 545 260 549 Q 257 554 253 559 C 240 586 180 593 185 564 Z"></path>
      </clipPath>
      <path clip-path="url(#make-me-a-hanzi-clip-1)" d="M 192 561 L 221 528 L 221 517 L 211 380 L 190 237 L 169 150 L 141 68 L 72 -56" fill="none" id="make-me-a-hanzi-animation-1" stroke-dasharray="783 1566" stroke-linecap="round"></path>
    
      <clipPath id="make-me-a-hanzi-clip-2">
        <path d="M 359 432 L 393 490 Q 403 506 408 510 Q 413 516 417 518 L 425 523 Q 429 526 430 528 L 430 529 Q 430 534 425 541 Q 418 548 401 556 L 377 564 Q 371 566 364 566 Q 359 566 357 564 Q 356 563 356 559 L 355 531 Q 353 515 349 492 Q 345 468 340 448 L 335 428 C 328 399 344 406 359 432 Z"></path>
      </clipPath>
      <path clip-path="url(#make-me-a-hanzi-clip-2)" d="M 425 529 L 385 530 L 353 444 L 341 432" fill="none" id="make-me-a-hanzi-animation-2" stroke-dasharray="277 554" stroke-linecap="round"></path>
    
      <clipPath id="make-me-a-hanzi-clip-3">
        <path d="M 289 424 L 273 427 Q 259 429 258 430 Q 249 430 247 426 L 247 425 Q 247 422 251 415 L 261 400 Q 265 394 269 380 Q 275 366 277 342 L 293 218 Q 293 206 299 199 Q 303 192 308 190 Q 312 188 319 187 L 325 202 L 327 231 L 320 306 L 317 328 L 307 400 C 304 421 304 421 289 424 Z"></path>
      </clipPath>
      <path clip-path="url(#make-me-a-hanzi-clip-3)" d="M 253 426 L 280 404 L 292 376 L 315 193" fill="none" id="make-me-a-hanzi-animation-3" stroke-dasharray="378 756" stroke-linecap="round"></path>
    
      <clipPath id="make-me-a-hanzi-clip-4">
        <path d="M 335 428 L 313 425 Q 309 424 289 424 C 259 424 277 400 307 400 L 324 400 Q 337 400 357 404 L 401 412 Q 444 420 447 421 Q 464 425 474 425 Q 479 425 482 424 Q 489 420 492 415 Q 494 412 494 404 Q 494 399 493 392 L 489 353 L 487 326 L 471 244 C 466 221 466 221 473 214 L 487 200 Q 489 197 491 197 Q 496 197 505 205 Q 518 218 525 250 L 557 383 Q 559 392 566 402 Q 574 413 575 418 Q 575 425 565 432 Q 557 440 540 449 L 510 466 Q 497 472 491 472 Q 485 471 472 464 Q 459 456 444 452 Q 430 448 405 442 Q 381 436 375 434 Q 369 434 359 432 L 335 428 Z"></path>
      </clipPath>
      <path clip-path="url(#make-me-a-hanzi-clip-4)" d="M 297 421 L 311 412 L 337 414 L 398 428 L 411 426 L 487 447 L 520 426 L 530 413 L 492 203" fill="none" id="make-me-a-hanzi-animation-4" stroke-dasharray="594 1188" stroke-linecap="round"></path>
    
      <clipPath id="make-me-a-hanzi-clip-5">
        <path d="M 489 353 L 473 356 Q 455 358 447 358 Q 438 358 414 350 Q 389 344 382 342 L 317 328 C 288 322 290 310 320 306 L 336 304 Q 343 303 348 303 Q 354 303 359 304 Q 363 304 379 306 L 425 314 L 487 326 C 516 332 518 347 489 353 Z"></path>
      </clipPath>
      <path clip-path="url(#make-me-a-hanzi-clip-5)" d="M 325 312 L 332 318 L 471 340 L 484 347" fill="none" id="make-me-a-hanzi-animation-5" stroke-dasharray="293 586" stroke-linecap="round"></path>
    
      <clipPath id="make-me-a-hanzi-clip-6">
        <path d="M 325 202 L 366 204 L 423 210 L 473 214 C 503 216 500 237 471 244 L 451 249 L 429 245 L 327 231 C 297 227 295 201 325 202 Z"></path>
      </clipPath>
      <path clip-path="url(#make-me-a-hanzi-clip-6)" d="M 332 209 L 351 220 L 449 231 L 466 221" fill="none" id="make-me-a-hanzi-animation-6" stroke-dasharray="268 536" stroke-linecap="round"></path>
    
      <clipPath id="make-me-a-hanzi-clip-7">
        <path d="M 366 204 L 373 184 Q 376 176 379 161 Q 381 145 381 126 L 379 16 Q 379 -4 375 -15 Q 373 -26 365 -30 Q 363 -31 359 -31 Q 352 -31 339 -27 L 317 -20 L 299 -14 Q 295 -14 292 -17 Q 291 -18 291 -20 Q 291 -21 293 -23 L 307 -35 L 329 -57 Q 341 -71 348 -80 Q 355 -90 359 -102 Q 363 -114 367 -115 Q 369 -116 371 -116 Q 378 -116 389 -109 Q 404 -98 412 -86 Q 420 -74 423 -54 Q 426 -34 426 -13 L 425 127 Q 425 144 426 162 Q 427 179 431 185 Q 435 192 435 193 Q 435 196 432 200 Q 429 204 423 210 C 403 232 356 232 366 204 Z"></path>
      </clipPath>
      <path clip-path="url(#make-me-a-hanzi-clip-7)" d="M 374 201 L 402 181 L 403 10 L 395 -44 L 382 -64 L 295 -20" fill="none" id="make-me-a-hanzi-animation-7" stroke-dasharray="509 1018" stroke-linecap="round"></path>
    
      <clipPath id="make-me-a-hanzi-clip-8">
        <path d="M 206 -4 Q 211 -2 233 18 Q 255 36 255 38 L 289 72 Q 301 82 310 87 Q 319 92 321 96 Q 322 98 322 101 Q 322 105 319 110 Q 313 118 301 127 Q 289 136 281 140 Q 272 145 259 147 L 253 147 Q 248 147 246 146 Q 243 143 243 132 Q 242 122 237 105 Q 231 89 225 76 Q 219 62 207 41 Q 195 20 191 12 L 179 -4 Q 174 -13 174 -18 L 174 -20 Q 175 -23 179 -23 L 181 -23 L 195 -12 L 206 -4 Z"></path>
      </clipPath>
      <path clip-path="url(#make-me-a-hanzi-clip-8)" d="M 251 138 L 273 104 L 228 38 L 178 -19" fill="none" id="make-me-a-hanzi-animation-8" stroke-dasharray="324 648" stroke-linecap="round"></path>
    
      <clipPath id="make-me-a-hanzi-clip-9">
        <path d="M 475 125 L 487 108 Q 493 96 507 70 Q 521 44 528 33 Q 535 21 543 13 Q 553 2 561 2 L 563 2 Q 570 4 574 12 Q 579 22 579 32 Q 579 46 575 60 Q 571 74 564 83 Q 557 93 543 105 Q 528 117 521 122 Q 513 126 495 137 L 477 147 Q 474 148 472 148 Q 469 148 467 146 Q 466 145 466 143 Q 466 140 469 136 L 475 125 Z"></path>
      </clipPath>
      <path clip-path="url(#make-me-a-hanzi-clip-9)" d="M 471 143 L 532 81 L 562 14" fill="none" id="make-me-a-hanzi-animation-9" stroke-dasharray="288 576" stroke-linecap="round"></path>
    
      <clipPath id="make-me-a-hanzi-clip-10">
        <path d="M 733 577 L 789 584 L 843 590 Q 879 594 888 594 L 920 596 Q 941 598 947 603 Q 953 608 953 613 Q 953 618 945 624 Q 937 631 927 637 Q 916 642 905 646 Q 894 650 886 650 Q 881 650 872 648 Q 863 645 857 644 Q 852 642 832 638 Q 813 634 805 632 L 731 620 L 671 610 Q 645 606 635 604 Q 626 602 613 601 L 589 598 Q 583 598 581 595 Q 579 593 578 590 L 578 589 Q 578 583 592 574 Q 608 566 621 561 Q 631 557 639 557 Q 642 557 645 558 Q 650 558 663 562 Q 677 566 701 572 L 733 577 Z"></path>
      </clipPath>
      <path clip-path="url(#make-me-a-hanzi-clip-10)" d="M 585 590 L 637 581 L 882 622 L 942 613" fill="none" id="make-me-a-hanzi-animation-10" stroke-dasharray="490 980" stroke-linecap="round"></path>
    
      <clipPath id="make-me-a-hanzi-clip-11">
        <path d="M 703 454 L 711 462 L 731 489 Q 747 508 754 517 Q 761 526 767 532 Q 772 537 773 541 Q 773 544 770 550 Q 766 556 758 561 Q 750 567 745 570 Q 741 572 733 577 C 707 593 703 596 701 572 L 699 544 Q 697 521 694 509 Q 691 497 685 481 L 670 448 C 658 421 682 433 703 454 Z"></path>
      </clipPath>
      <path clip-path="url(#make-me-a-hanzi-clip-11)" d="M 708 564 L 731 540 L 701 476 L 675 452" fill="none" id="make-me-a-hanzi-animation-11" stroke-dasharray="267 534" stroke-linecap="round"></path>
    
      <clipPath id="make-me-a-hanzi-clip-12">
        <path d="M 649 444 L 633 450 Q 612 457 605 457 L 604 457 Q 597 456 595 451 Q 593 449 593 446 Q 593 445 594 443 Q 595 438 600 430 Q 605 422 608 411 Q 611 400 613 389 Q 615 378 615 362 L 611 242 Q 611 233 607 198 Q 603 164 599 148 Q 596 132 596 128 L 596 124 Q 596 115 599 105 Q 603 92 607 83 Q 611 75 617 66 Q 625 57 632 57 Q 640 58 642 72 L 644 90 L 647 123 L 650 204 L 651 228 L 653 308 L 654 334 L 657 416 C 658 441 658 441 649 444 Z"></path>
      </clipPath>
      <path clip-path="url(#make-me-a-hanzi-clip-12)" d="M 599 446 L 629 424 L 635 396 L 633 275 L 621 115 L 631 66" fill="none" id="make-me-a-hanzi-animation-12" stroke-dasharray="525 1050" stroke-linecap="round"></path>
    
      <clipPath id="make-me-a-hanzi-clip-13">
        <path d="M 670 448 L 649 444 C 620 438 627 414 657 416 L 681 418 Q 693 418 721 424 Q 749 432 757 433 L 805 439 Q 834 442 842 443 L 845 443 Q 852 443 855 440 Q 859 436 861 421 Q 862 406 862 399 Q 863 392 863 384 L 863 356 L 864 334 L 865 249 L 866 226 L 867 194 Q 867 192 865 166 L 865 145 Q 864 139 863 128 C 860 98 853 115 856 103 L 865 72 Q 869 56 874 47 Q 879 38 884 38 L 885 38 Q 891 38 898 45 Q 905 52 910 63 Q 915 74 918 85 Q 921 97 921 106 L 919 167 L 917 334 L 917 348 Q 917 362 918 375 Q 919 394 922 406 Q 924 418 929 427 Q 935 440 935 444 Q 935 449 926 457 Q 917 466 905 473 Q 894 480 883 485 Q 873 490 865 490 Q 859 489 847 484 Q 835 480 821 476 Q 807 472 791 470 L 703 454 L 670 448 Z"></path>
      </clipPath>
      <path clip-path="url(#make-me-a-hanzi-clip-13)" d="M 656 438 L 674 432 L 861 464 L 876 458 L 892 441 L 893 143 L 885 49" fill="none" id="make-me-a-hanzi-animation-13" stroke-dasharray="769 1538" stroke-linecap="round"></path>
    
      <clipPath id="make-me-a-hanzi-clip-14">
        <path d="M 863 356 L 853 359 Q 846 361 834 364 Q 822 366 813 366 Q 807 365 799 363 L 783 358 Q 777 357 763 354 L 654 334 C 624 329 624 314 653 308 L 669 305 Q 676 303 683 303 Q 690 304 715 308 L 864 334 C 894 339 892 347 863 356 Z"></path>
      </clipPath>
      <path clip-path="url(#make-me-a-hanzi-clip-14)" d="M 658 314 L 856 350" fill="none" id="make-me-a-hanzi-animation-14" stroke-dasharray="329 658" stroke-linecap="round"></path>
    
      <clipPath id="make-me-a-hanzi-clip-15">
        <path d="M 865 249 L 859 253 Q 856 254 843 256 Q 829 259 827 260 Q 821 260 812 258 Q 803 256 793 254 L 651 228 C 621 223 621 211 650 204 L 671 199 Q 674 198 685 198 Q 695 198 717 202 L 845 221 L 866 226 C 891 232 890 232 865 249 Z"></path>
      </clipPath>
      <path clip-path="url(#make-me-a-hanzi-clip-15)" d="M 657 210 L 665 216 L 821 238 L 845 239 L 859 231" fill="none" id="make-me-a-hanzi-animation-15" stroke-dasharray="336 672" stroke-linecap="round"></path>
    
      <clipPath id="make-me-a-hanzi-clip-16">
        <path d="M 644 90 L 663 86 L 699 88 L 856 103 C 886 106 890 116 863 128 L 843 137 Q 831 142 815 142 Q 811 142 799 140 Q 787 138 771 137 L 647 123 C 617 120 615 96 644 90 Z"></path>
      </clipPath>
      <path clip-path="url(#make-me-a-hanzi-clip-16)" d="M 650 95 L 672 107 L 855 124" fill="none" id="make-me-a-hanzi-animation-16" stroke-dasharray="337 674" stroke-linecap="round"></path>
    
      <clipPath id="make-me-a-hanzi-clip-17">
        <path d="M 663 86 L 663 78 Q 663 71 657 56 L 644 27 Q 636 12 623 -7 Q 609 -26 596 -42 L 567 -76 Q 552 -94 545 -100 L 535 -109 Q 525 -119 525 -123 Q 525 -126 529 -128 Q 530 -129 531 -129 Q 534 -129 540 -125 L 555 -116 Q 567 -110 587 -96 Q 609 -80 633 -59 Q 657 -38 675 -18 L 701 14 Q 714 29 725 37 Q 736 45 738 47 Q 741 50 741 52 L 741 55 Q 741 60 735 66 Q 727 74 720 78 Q 713 82 699 88 C 672 100 663 104 663 86 Z"></path>
      </clipPath>
      <path clip-path="url(#make-me-a-hanzi-clip-17)" d="M 733 54 L 693 54 L 653 -7 L 615 -50 L 531 -122" fill="none" id="make-me-a-hanzi-animation-17" stroke-dasharray="409 818" stroke-linecap="round"></path>
    
      <clipPath id="make-me-a-hanzi-clip-18">
        <path d="M 807 38 L 827 12 L 858 -30 Q 881 -60 893 -78 Q 905 -96 913 -104 Q 928 -121 938 -121 L 939 -121 Q 950 -120 959 -108 Q 966 -97 966 -80 L 966 -76 Q 964 -56 953 -37 Q 943 -18 927 -5 Q 911 9 890 22 L 850 44 Q 831 54 820 58 L 807 62 Q 799 64 796 64 Q 792 64 791 60 Q 791 56 797 50 L 807 38 Z"></path>
      </clipPath>
      <path clip-path="url(#make-me-a-hanzi-clip-18)" d="M 797 57 L 827 39 L 908 -36 L 929 -67 L 939 -103" fill="none" id="make-me-a-hanzi-animation-18" stroke-dasharray="348 696" stroke-linecap="round"></path>
    
  </g>
</svg>