<svg version="1.1" viewBox="0 0 1024 1024" xmlns="http://www.w3.org/2000/svg">
  <g stroke="lightgray" stroke-dasharray="1,1" stroke-width="1" transform="scale(4, 4)">
    <line x1="0" y1="0" x2="256" y2="256"></line>
    <line x1="256" y1="0" x2="0" y2="256"></line>
    <line x1="128" y1="0" x2="128" y2="256"></line>
    <line x1="0" y1="128" x2="256" y2="128"></line>
  </g>
  <g transform="scale(0.92, -0.92) translate(60, -830)">
    <style type="text/css">
      
        @keyframes keyframes0 {
          from {
            stroke: blue;
            stroke-dashoffset: 399;
            stroke-width: 128;
          }
          56% {
            animation-timing-function: step-end;
            stroke: blue;
            stroke-dashoffset: 0;
            stroke-width: 128;
          }
          to {
            stroke: black;
            stroke-width: 1024;
          }
        }
        #make-me-a-hanzi-animation-0 {
          animation: keyframes0 0.57470703125s both;
          animation-delay: 0s;
          animation-timing-function: linear;
        }
      
        @keyframes keyframes1 {
          from {
            stroke: blue;
            stroke-dashoffset: 407;
            stroke-width: 128;
          }
          57% {
            animation-timing-function: step-end;
            stroke: blue;
            stroke-dashoffset: 0;
            stroke-width: 128;
          }
          to {
            stroke: black;
            stroke-width: 1024;
          }
        }
        #make-me-a-hanzi-animation-1 {
          animation: keyframes1 0.5812174479166666s both;
          animation-delay: 0.57470703125s;
          animation-timing-function: linear;
        }
      
        @keyframes keyframes2 {
          from {
            stroke: blue;
            stroke-dashoffset: 667;
            stroke-width: 128;
          }
          68% {
            animation-timing-function: step-end;
            stroke: blue;
            stroke-dashoffset: 0;
            stroke-width: 128;
          }
          to {
            stroke: black;
            stroke-width: 1024;
          }
        }
        #make-me-a-hanzi-animation-2 {
          animation: keyframes2 0.7928059895833334s both;
          animation-delay: 1.1559244791666665s;
          animation-timing-function: linear;
        }
      
        @keyframes keyframes3 {
          from {
            stroke: blue;
            stroke-dashoffset: 510;
            stroke-width: 128;
          }
          62% {
            animation-timing-function: step-end;
            stroke: blue;
            stroke-dashoffset: 0;
            stroke-width: 128;
          }
          to {
            stroke: black;
            stroke-width: 1024;
          }
        }
        #make-me-a-hanzi-animation-3 {
          animation: keyframes3 0.6650390625s both;
          animation-delay: 1.94873046875s;
          animation-timing-function: linear;
        }
      
        @keyframes keyframes4 {
          from {
            stroke: blue;
            stroke-dashoffset: 843;
            stroke-width: 128;
          }
          73% {
            animation-timing-function: step-end;
            stroke: blue;
            stroke-dashoffset: 0;
            stroke-width: 128;
          }
          to {
            stroke: black;
            stroke-width: 1024;
          }
        }
        #make-me-a-hanzi-animation-4 {
          animation: keyframes4 0.93603515625s both;
          animation-delay: 2.61376953125s;
          animation-timing-function: linear;
        }
      
        @keyframes keyframes5 {
          from {
            stroke: blue;
            stroke-dashoffset: 547;
            stroke-width: 128;
          }
          64% {
            animation-timing-function: step-end;
            stroke: blue;
            stroke-dashoffset: 0;
            stroke-width: 128;
          }
          to {
            stroke: black;
            stroke-width: 1024;
          }
        }
        #make-me-a-hanzi-animation-5 {
          animation: keyframes5 0.6951497395833334s both;
          animation-delay: 3.5498046875s;
          animation-timing-function: linear;
        }
      
        @keyframes keyframes6 {
          from {
            stroke: blue;
            stroke-dashoffset: 473;
            stroke-width: 128;
          }
          61% {
            animation-timing-function: step-end;
            stroke: blue;
            stroke-dashoffset: 0;
            stroke-width: 128;
          }
          to {
            stroke: black;
            stroke-width: 1024;
          }
        }
        #make-me-a-hanzi-animation-6 {
          animation: keyframes6 0.6349283854166666s both;
          animation-delay: 4.244954427083333s;
          animation-timing-function: linear;
        }
      
        @keyframes keyframes7 {
          from {
            stroke: blue;
            stroke-dashoffset: 552;
            stroke-width: 128;
          }
          64% {
            animation-timing-function: step-end;
            stroke: blue;
            stroke-dashoffset: 0;
            stroke-width: 128;
          }
          to {
            stroke: black;
            stroke-width: 1024;
          }
        }
        #make-me-a-hanzi-animation-7 {
          animation: keyframes7 0.69921875s both;
          animation-delay: 4.8798828125s;
          animation-timing-function: linear;
        }
      
        @keyframes keyframes8 {
          from {
            stroke: blue;
            stroke-dashoffset: 426;
            stroke-width: 128;
          }
          58% {
            animation-timing-function: step-end;
            stroke: blue;
            stroke-dashoffset: 0;
            stroke-width: 128;
          }
          to {
            stroke: black;
            stroke-width: 1024;
          }
        }
        #make-me-a-hanzi-animation-8 {
          animation: keyframes8 0.5966796875s both;
          animation-delay: 5.5791015625s;
          animation-timing-function: linear;
        }
      
        @keyframes keyframes9 {
          from {
            stroke: blue;
            stroke-dashoffset: 662;
            stroke-width: 128;
          }
          68% {
            animation-timing-function: step-end;
            stroke: blue;
            stroke-dashoffset: 0;
            stroke-width: 128;
          }
          to {
            stroke: black;
            stroke-width: 1024;
          }
        }
        #make-me-a-hanzi-animation-9 {
          animation: keyframes9 0.7887369791666666s both;
          animation-delay: 6.17578125s;
          animation-timing-function: linear;
        }
      
        @keyframes keyframes10 {
          from {
            stroke: blue;
            stroke-dashoffset: 419;
            stroke-width: 128;
          }
          58% {
            animation-timing-function: step-end;
            stroke: blue;
            stroke-dashoffset: 0;
            stroke-width: 128;
          }
          to {
            stroke: black;
            stroke-width: 1024;
          }
        }
        #make-me-a-hanzi-animation-10 {
          animation: keyframes10 0.5909830729166666s both;
          animation-delay: 6.964518229166667s;
          animation-timing-function: linear;
        }
      
        @keyframes keyframes11 {
          from {
            stroke: blue;
            stroke-dashoffset: 651;
            stroke-width: 128;
          }
          68% {
            animation-timing-function: step-end;
            stroke: blue;
            stroke-dashoffset: 0;
            stroke-width: 128;
          }
          to {
            stroke: black;
            stroke-width: 1024;
          }
        }
        #make-me-a-hanzi-animation-11 {
          animation: keyframes11 0.77978515625s both;
          animation-delay: 7.555501302083334s;
          animation-timing-function: linear;
        }
      
        @keyframes keyframes12 {
          from {
            stroke: blue;
            stroke-dashoffset: 871;
            stroke-width: 128;
          }
          74% {
            animation-timing-function: step-end;
            stroke: blue;
            stroke-dashoffset: 0;
            stroke-width: 128;
          }
          to {
            stroke: black;
            stroke-width: 1024;
          }
        }
        #make-me-a-hanzi-animation-12 {
          animation: keyframes12 0.9588216145833334s both;
          animation-delay: 8.335286458333334s;
          animation-timing-function: linear;
        }
      
        @keyframes keyframes13 {
          from {
            stroke: blue;
            stroke-dashoffset: 832;
            stroke-width: 128;
          }
          73% {
            animation-timing-function: step-end;
            stroke: blue;
            stroke-dashoffset: 0;
            stroke-width: 128;
          }
          to {
            stroke: black;
            stroke-width: 1024;
          }
        }
        #make-me-a-hanzi-animation-13 {
          animation: keyframes13 0.9270833333333334s both;
          animation-delay: 9.294108072916668s;
          animation-timing-function: linear;
        }
      
        @keyframes keyframes14 {
          from {
            stroke: blue;
            stroke-dashoffset: 475;
            stroke-width: 128;
          }
          61% {
            animation-timing-function: step-end;
            stroke: blue;
            stroke-dashoffset: 0;
            stroke-width: 128;
          }
          to {
            stroke: black;
            stroke-width: 1024;
          }
        }
        #make-me-a-hanzi-animation-14 {
          animation: keyframes14 0.6365559895833334s both;
          animation-delay: 10.221191406250002s;
          animation-timing-function: linear;
        }
      
    </style>
    
      <path d="M 236 683 Q 219 683 219 679 Q 219 674 253 622 Q 280 586 300 572 C 324 554 334 549 339 579 Q 340 582 340 591 Q 340 610 331 630 Q 317 658 288 671 Q 264 681 236 683 Z" fill="lightgray"></path>
    
      <path d="M 178 550 Q 176 560 169 570 Q 159 582 152 582 Q 148 582 142 560 Q 135 528 115 494 Q 95 464 95 438 Q 95 415 116 415 Q 141 415 163 477 Q 173 506 177 523 L 178 550 Z" fill="lightgray"></path>
    
      <path d="M 300 572 L 178 550 C 148 545 147 525 177 523 Q 184 522 191 522 Q 198 522 214 526 Q 251 536 331 548 Q 392 555 408 555 Q 424 555 424 543 Q 424 533 384 471 Q 384 467 387 467 Q 390 467 404 477 Q 472 521 505 532 Q 527 542 527 555 Q 527 567 496 588 Q 465 610 443 610 Q 439 610 425 602 Q 393 589 352 582 L 339 579 L 300 572 Z" fill="lightgray"></path>
    
      <path d="M 244 494 Q 240 494 238 491 Q 236 487 236 482 Q 236 461 216 417 Q 188 357 154 311 Q 132 287 128 274 Q 130 270 135 270 Q 167 291 196 320 L 207 333 Q 219 346 230 362 Q 239 374 246 385 L 260 406 Q 274 426 288 444 Q 299 456 299 463 Q 299 472 271 485 Q 252 494 244 494 Z" fill="lightgray"></path>
    
      <path d="M 282 279 Q 252 244 212 210 Q 150 156 70 123 Q 59 121 59 119 Q 59 115 76 115 Q 101 116 143 131 Q 153 134 163 139 L 191 153 Q 240 180 287 222 Q 302 236 321 258 L 353 298 Q 369 316 386 342 Q 410 374 429 388 Q 439 399 439 402 Q 439 414 409 435 Q 381 450 368 450 Q 360 450 334 435 Q 299 415 260 406 C 231 398 216 387 246 385 Q 252 383 259 383 Q 266 383 340 402 Q 351 402 351 394 Q 351 381 313 321 Q 311 317 306 312 L 282 279 Z" fill="lightgray"></path>
    
      <path d="M 196 320 Q 210 312 240 300 Q 260 291 282 279 L 321 258 Q 359 236 399 208 Q 440 178 456 178 Q 471 178 471 194 Q 471 225 440 253 Q 415 277 353 298 L 306 312 Q 240 328 207 333 C 177 338 169 334 196 320 Z" fill="lightgray"></path>
    
      <path d="M 163 139 Q 164 136 167 133 Q 179 119 186 92 Q 199 57 205 -30 Q 207 -65 227 -66 Q 239 -66 242 -31 L 244 -4 Q 244 33 240 112 L 232 138 Q 227 147 213 150 Q 205 152 191 153 C 161 156 151 156 163 139 Z" fill="lightgray"></path>
    
      <path d="M 387 17 Q 417 89 442 104 Q 456 110 456 119 Q 456 137 424 159 Q 393 178 372 178 Q 368 178 358 174 Q 343 165 297 152 Q 253 140 236 138 L 232 138 C 202 135 210 117 240 112 Q 249 110 256 110 Q 261 110 294 122 Q 326 131 340 131 Q 359 131 359 110 Q 350 45 343 30 Q 341 19 340 12 C 335 -18 375 -11 387 17 Z" fill="lightgray"></path>
    
      <path d="M 242 -31 Q 252 -37 263 -37 Q 340 -30 420 -22 Q 431 -16 431 -9 Q 431 1 414 11 Q 403 16 387 17 L 340 12 Q 308 7 244 -4 C 214 -9 215 -17 242 -31 Z" fill="lightgray"></path>
    
      <path d="M 707 602 Q 763 610 855 622 Q 882 627 911 638 Q 927 645 928 658 Q 924 681 859 683 Q 846 683 813 672 Q 734 647 515 622 Q 504 620 504 610 Q 504 603 528 596 Q 556 587 580 587 Q 599 587 634 593 Q 642 594 654 596 L 707 602 Z" fill="lightgray"></path>
    
      <path d="M 654 596 Q 655 588 655 578 Q 655 554 624 454 C 615 425 632 436 650 460 Q 652 462 655 467 Q 709 552 721 565 Q 731 576 731 578 Q 731 587 707 602 C 682 618 651 626 654 596 Z" fill="lightgray"></path>
    
      <path d="M 608 451 Q 601 460 582 467 Q 557 478 544 478 Q 531 477 531 467 Q 531 463 546 435 Q 559 406 559 371 L 559 259 Q 559 213 549 172 Q 536 154 536 146 Q 536 132 548 108 Q 564 79 571 79 Q 591 79 598 98 Q 602 123 603 156 L 603 348 Q 603 380 612 423 C 616 444 616 444 608 451 Z" fill="lightgray"></path>
    
      <path d="M 624 454 Q 617 453 608 451 C 579 445 582 420 612 423 Q 629 424 713 438 Q 786 450 800 450 Q 827 450 827 402 L 827 267 Q 827 235 825 198 Q 819 156 819 127 Q 819 120 834 97 Q 847 83 863 83 Q 877 83 881 113 Q 882 136 882 328 Q 882 404 896 433 Q 903 450 903 454 Q 903 467 876 488 Q 845 511 823 511 Q 813 511 767 492 Q 718 473 650 460 L 624 454 Z" fill="lightgray"></path>
    
      <path d="M 683 379 Q 672 379 672 366 Q 672 363 678 348 Q 683 334 683 299 L 683 278 Q 683 170 650 97 Q 601 -10 506 -64 Q 464 -82 464 -89 Q 471 -93 479 -93 Q 540 -93 622 -25 Q 703 48 731 195 Q 750 294 755 310 Q 760 319 760 324 L 760 327 Q 760 340 725 360 Q 693 377 683 379 Z" fill="lightgray"></path>
    
      <path d="M 748 79 Q 743 79 743 75 Q 743 69 778 35 Q 811 1 854 -54 Q 885 -93 907 -93 Q 932 -93 932 -62 Q 932 -40 914 -13 Q 889 16 804 58 Q 762 79 748 79 Z" fill="lightgray"></path>
    
    
      <clipPath id="make-me-a-hanzi-clip-0">
        <path d="M 236 683 Q 219 683 219 679 Q 219 674 253 622 Q 280 586 300 572 C 324 554 334 549 339 579 Q 340 582 340 591 Q 340 610 331 630 Q 317 658 288 671 Q 264 681 236 683 Z"></path>
      </clipPath>
      <path clip-path="url(#make-me-a-hanzi-clip-0)" d="M 223 678 L 280 640 L 331 586" fill="none" id="make-me-a-hanzi-animation-0" stroke-dasharray="271 542" stroke-linecap="round"></path>
    
      <clipPath id="make-me-a-hanzi-clip-1">
        <path d="M 178 550 Q 176 560 169 570 Q 159 582 152 582 Q 148 582 142 560 Q 135 528 115 494 Q 95 464 95 438 Q 95 415 116 415 Q 141 415 163 477 Q 173 506 177 523 L 178 550 Z"></path>
      </clipPath>
      <path clip-path="url(#make-me-a-hanzi-clip-1)" d="M 154 576 L 156 531 L 114 434" fill="none" id="make-me-a-hanzi-animation-1" stroke-dasharray="279 558" stroke-linecap="round"></path>
    
      <clipPath id="make-me-a-hanzi-clip-2">
        <path d="M 300 572 L 178 550 C 148 545 147 525 177 523 Q 184 522 191 522 Q 198 522 214 526 Q 251 536 331 548 Q 392 555 408 555 Q 424 555 424 543 Q 424 533 384 471 Q 384 467 387 467 Q 390 467 404 477 Q 472 521 505 532 Q 527 542 527 555 Q 527 567 496 588 Q 465 610 443 610 Q 439 610 425 602 Q 393 589 352 582 L 339 579 L 300 572 Z"></path>
      </clipPath>
      <path clip-path="url(#make-me-a-hanzi-clip-2)" d="M 184 529 L 194 537 L 295 558 L 411 576 L 450 573 L 463 559 L 455 543 L 408 488 L 390 481 L 389 471" fill="none" id="make-me-a-hanzi-animation-2" stroke-dasharray="539 1078" stroke-linecap="round"></path>
    
      <clipPath id="make-me-a-hanzi-clip-3">
        <path d="M 244 494 Q 240 494 238 491 Q 236 487 236 482 Q 236 461 216 417 Q 188 357 154 311 Q 132 287 128 274 Q 130 270 135 270 Q 167 291 196 320 L 207 333 Q 219 346 230 362 Q 239 374 246 385 L 260 406 Q 274 426 288 444 Q 299 456 299 463 Q 299 472 271 485 Q 252 494 244 494 Z"></path>
      </clipPath>
      <path clip-path="url(#make-me-a-hanzi-clip-3)" d="M 245 485 L 261 455 L 254 440 L 193 340 L 134 277" fill="none" id="make-me-a-hanzi-animation-3" stroke-dasharray="382 764" stroke-linecap="round"></path>
    
      <clipPath id="make-me-a-hanzi-clip-4">
        <path d="M 282 279 Q 252 244 212 210 Q 150 156 70 123 Q 59 121 59 119 Q 59 115 76 115 Q 101 116 143 131 Q 153 134 163 139 L 191 153 Q 240 180 287 222 Q 302 236 321 258 L 353 298 Q 369 316 386 342 Q 410 374 429 388 Q 439 399 439 402 Q 439 414 409 435 Q 381 450 368 450 Q 360 450 334 435 Q 299 415 260 406 C 231 398 216 387 246 385 Q 252 383 259 383 Q 266 383 340 402 Q 351 402 351 394 Q 351 381 313 321 Q 311 317 306 312 L 282 279 Z"></path>
      </clipPath>
      <path clip-path="url(#make-me-a-hanzi-clip-4)" d="M 253 388 L 270 398 L 351 421 L 370 419 L 388 401 L 332 307 L 246 212 L 164 155 L 70 117" fill="none" id="make-me-a-hanzi-animation-4" stroke-dasharray="715 1430" stroke-linecap="round"></path>
    
      <clipPath id="make-me-a-hanzi-clip-5">
        <path d="M 196 320 Q 210 312 240 300 Q 260 291 282 279 L 321 258 Q 359 236 399 208 Q 440 178 456 178 Q 471 178 471 194 Q 471 225 440 253 Q 415 277 353 298 L 306 312 Q 240 328 207 333 C 177 338 169 334 196 320 Z"></path>
      </clipPath>
      <path clip-path="url(#make-me-a-hanzi-clip-5)" d="M 202 321 L 276 303 L 392 250 L 457 192" fill="none" id="make-me-a-hanzi-animation-5" stroke-dasharray="419 838" stroke-linecap="round"></path>
    
      <clipPath id="make-me-a-hanzi-clip-6">
        <path d="M 163 139 Q 164 136 167 133 Q 179 119 186 92 Q 199 57 205 -30 Q 207 -65 227 -66 Q 239 -66 242 -31 L 244 -4 Q 244 33 240 112 L 232 138 Q 227 147 213 150 Q 205 152 191 153 C 161 156 151 156 163 139 Z"></path>
      </clipPath>
      <path clip-path="url(#make-me-a-hanzi-clip-6)" d="M 171 140 L 207 121 L 213 101 L 225 -54" fill="none" id="make-me-a-hanzi-animation-6" stroke-dasharray="345 690" stroke-linecap="round"></path>
    
      <clipPath id="make-me-a-hanzi-clip-7">
        <path d="M 387 17 Q 417 89 442 104 Q 456 110 456 119 Q 456 137 424 159 Q 393 178 372 178 Q 368 178 358 174 Q 343 165 297 152 Q 253 140 236 138 L 232 138 C 202 135 210 117 240 112 Q 249 110 256 110 Q 261 110 294 122 Q 326 131 340 131 Q 359 131 359 110 Q 350 45 343 30 Q 341 19 340 12 C 335 -18 375 -11 387 17 Z"></path>
      </clipPath>
      <path clip-path="url(#make-me-a-hanzi-clip-7)" d="M 242 132 L 251 125 L 264 127 L 340 149 L 374 148 L 388 138 L 400 124 L 395 107 L 371 40 L 348 15" fill="none" id="make-me-a-hanzi-animation-7" stroke-dasharray="424 848" stroke-linecap="round"></path>
    
      <clipPath id="make-me-a-hanzi-clip-8">
        <path d="M 242 -31 Q 252 -37 263 -37 Q 340 -30 420 -22 Q 431 -16 431 -9 Q 431 1 414 11 Q 403 16 387 17 L 340 12 Q 308 7 244 -4 C 214 -9 215 -17 242 -31 Z"></path>
      </clipPath>
      <path clip-path="url(#make-me-a-hanzi-clip-8)" d="M 251 -25 L 273 -17 L 366 -6 L 419 -8" fill="none" id="make-me-a-hanzi-animation-8" stroke-dasharray="298 596" stroke-linecap="round"></path>
    
      <clipPath id="make-me-a-hanzi-clip-9">
        <path d="M 707 602 Q 763 610 855 622 Q 882 627 911 638 Q 927 645 928 658 Q 924 681 859 683 Q 846 683 813 672 Q 734 647 515 622 Q 504 620 504 610 Q 504 603 528 596 Q 556 587 580 587 Q 599 587 634 593 Q 642 594 654 596 L 707 602 Z"></path>
      </clipPath>
      <path clip-path="url(#make-me-a-hanzi-clip-9)" d="M 513 611 L 584 608 L 868 655 L 915 657" fill="none" id="make-me-a-hanzi-animation-9" stroke-dasharray="534 1068" stroke-linecap="round"></path>
    
      <clipPath id="make-me-a-hanzi-clip-10">
        <path d="M 654 596 Q 655 588 655 578 Q 655 554 624 454 C 615 425 632 436 650 460 Q 652 462 655 467 Q 709 552 721 565 Q 731 576 731 578 Q 731 587 707 602 C 682 618 651 626 654 596 Z"></path>
      </clipPath>
      <path clip-path="url(#make-me-a-hanzi-clip-10)" d="M 724 579 L 701 578 L 685 567 L 641 469 L 628 466" fill="none" id="make-me-a-hanzi-animation-10" stroke-dasharray="291 582" stroke-linecap="round"></path>
    
      <clipPath id="make-me-a-hanzi-clip-11">
        <path d="M 608 451 Q 601 460 582 467 Q 557 478 544 478 Q 531 477 531 467 Q 531 463 546 435 Q 559 406 559 371 L 559 259 Q 559 213 549 172 Q 536 154 536 146 Q 536 132 548 108 Q 564 79 571 79 Q 591 79 598 98 Q 602 123 603 156 L 603 348 Q 603 380 612 423 C 616 444 616 444 608 451 Z"></path>
      </clipPath>
      <path clip-path="url(#make-me-a-hanzi-clip-11)" d="M 541 467 L 579 435 L 583 420 L 580 208 L 569 143 L 575 92" fill="none" id="make-me-a-hanzi-animation-11" stroke-dasharray="523 1046" stroke-linecap="round"></path>
    
      <clipPath id="make-me-a-hanzi-clip-12">
        <path d="M 624 454 Q 617 453 608 451 C 579 445 582 420 612 423 Q 629 424 713 438 Q 786 450 800 450 Q 827 450 827 402 L 827 267 Q 827 235 825 198 Q 819 156 819 127 Q 819 120 834 97 Q 847 83 863 83 Q 877 83 881 113 Q 882 136 882 328 Q 882 404 896 433 Q 903 450 903 454 Q 903 467 876 488 Q 845 511 823 511 Q 813 511 767 492 Q 718 473 650 460 L 624 454 Z"></path>
      </clipPath>
      <path clip-path="url(#make-me-a-hanzi-clip-12)" d="M 614 430 L 625 439 L 805 478 L 830 476 L 859 450 L 850 132 L 861 99" fill="none" id="make-me-a-hanzi-animation-12" stroke-dasharray="743 1486" stroke-linecap="round"></path>
    
      <clipPath id="make-me-a-hanzi-clip-13">
        <path d="M 683 379 Q 672 379 672 366 Q 672 363 678 348 Q 683 334 683 299 L 683 278 Q 683 170 650 97 Q 601 -10 506 -64 Q 464 -82 464 -89 Q 471 -93 479 -93 Q 540 -93 622 -25 Q 703 48 731 195 Q 750 294 755 310 Q 760 319 760 324 L 760 327 Q 760 340 725 360 Q 693 377 683 379 Z"></path>
      </clipPath>
      <path clip-path="url(#make-me-a-hanzi-clip-13)" d="M 682 368 L 705 344 L 719 317 L 701 174 L 671 84 L 629 14 L 587 -29 L 545 -59 L 472 -91" fill="none" id="make-me-a-hanzi-animation-13" stroke-dasharray="704 1408" stroke-linecap="round"></path>
    
      <clipPath id="make-me-a-hanzi-clip-14">
        <path d="M 748 79 Q 743 79 743 75 Q 743 69 778 35 Q 811 1 854 -54 Q 885 -93 907 -93 Q 932 -93 932 -62 Q 932 -40 914 -13 Q 889 16 804 58 Q 762 79 748 79 Z"></path>
      </clipPath>
      <path clip-path="url(#make-me-a-hanzi-clip-14)" d="M 748 74 L 788 50 L 846 3 L 880 -29 L 909 -71" fill="none" id="make-me-a-hanzi-animation-14" stroke-dasharray="347 694" stroke-linecap="round"></path>
    
  </g>
</svg>