<svg xmlns="http://www.w3.org/2000/svg" version="1.1" viewBox="0 0 1024 1024">
  <g stroke="lightgray" stroke-dasharray="1,1" stroke-width="1" transform="scale(4, 4)">
    <line x1="0" y1="0" x2="256" y2="256" />
    <line x1="256" y1="0" x2="0" y2="256" />
    <line x1="128" y1="0" x2="128" y2="256" />
    <line x1="0" y1="128" x2="256" y2="128" />
  </g>
  <g transform="scale(1.0, -1.0) translate(0.0, -787.00)">
    <style type="text/css">
      
        @keyframes keyframes0 {
          from {
            stroke: blue;
            stroke-dashoffset: 914;
            stroke-width: 128;
          }
          75% {
            animation-timing-function: step-end;
            stroke: blue;
            stroke-dashoffset: 0;
            stroke-width: 128;
          }
          to {
            stroke: black;
            stroke-width: 1024;
          }
        }
        #make-me-a-hanzi-animation-0 {
          animation: keyframes0 0.9938151041666666s both;
          animation-delay: 0s;
          animation-timing-function: linear;
        }
      
        @keyframes keyframes1 {
          from {
            stroke: blue;
            stroke-dashoffset: 1732;
            stroke-width: 128;
          }
          85% {
            animation-timing-function: step-end;
            stroke: blue;
            stroke-dashoffset: 0;
            stroke-width: 128;
          }
          to {
            stroke: black;
            stroke-width: 1024;
          }
        }
        #make-me-a-hanzi-animation-1 {
          animation: keyframes1 1.6595052083333333s both;
          animation-delay: 0.9938151041666666s;
          animation-timing-function: linear;
        }
      
        @keyframes keyframes2 {
          from {
            stroke: blue;
            stroke-dashoffset: 483;
            stroke-width: 128;
          }
          61% {
            animation-timing-function: step-end;
            stroke: blue;
            stroke-dashoffset: 0;
            stroke-width: 128;
          }
          to {
            stroke: black;
            stroke-width: 1024;
          }
        }
        #make-me-a-hanzi-animation-2 {
          animation: keyframes2 0.64306640625s both;
          animation-delay: 2.6533203125s;
          animation-timing-function: linear;
        }
      
        @keyframes keyframes3 {
          from {
            stroke: blue;
            stroke-dashoffset: 419;
            stroke-width: 128;
          }
          58% {
            animation-timing-function: step-end;
            stroke: blue;
            stroke-dashoffset: 0;
            stroke-width: 128;
          }
          to {
            stroke: black;
            stroke-width: 1024;
          }
        }
        #make-me-a-hanzi-animation-3 {
          animation: keyframes3 0.5909830729166666s both;
          animation-delay: 3.29638671875s;
          animation-timing-function: linear;
        }
      
        @keyframes keyframes4 {
          from {
            stroke: blue;
            stroke-dashoffset: 533;
            stroke-width: 128;
          }
          63% {
            animation-timing-function: step-end;
            stroke: blue;
            stroke-dashoffset: 0;
            stroke-width: 128;
          }
          to {
            stroke: black;
            stroke-width: 1024;
          }
        }
        #make-me-a-hanzi-animation-4 {
          animation: keyframes4 0.6837565104166666s both;
          animation-delay: 3.8873697916666665s;
          animation-timing-function: linear;
        }
      
        @keyframes keyframes5 {
          from {
            stroke: blue;
            stroke-dashoffset: 427;
            stroke-width: 128;
          }
          58% {
            animation-timing-function: step-end;
            stroke: blue;
            stroke-dashoffset: 0;
            stroke-width: 128;
          }
          to {
            stroke: black;
            stroke-width: 1024;
          }
        }
        #make-me-a-hanzi-animation-5 {
          animation: keyframes5 0.5974934895833334s both;
          animation-delay: 4.571126302083333s;
          animation-timing-function: linear;
        }
      
        @keyframes keyframes6 {
          from {
            stroke: blue;
            stroke-dashoffset: 607;
            stroke-width: 128;
          }
          66% {
            animation-timing-function: step-end;
            stroke: blue;
            stroke-dashoffset: 0;
            stroke-width: 128;
          }
          to {
            stroke: black;
            stroke-width: 1024;
          }
        }
        #make-me-a-hanzi-animation-6 {
          animation: keyframes6 0.7439778645833334s both;
          animation-delay: 5.168619791666666s;
          animation-timing-function: linear;
        }
      
        @keyframes keyframes7 {
          from {
            stroke: blue;
            stroke-dashoffset: 502;
            stroke-width: 128;
          }
          62% {
            animation-timing-function: step-end;
            stroke: blue;
            stroke-dashoffset: 0;
            stroke-width: 128;
          }
          to {
            stroke: black;
            stroke-width: 1024;
          }
        }
        #make-me-a-hanzi-animation-7 {
          animation: keyframes7 0.6585286458333334s both;
          animation-delay: 5.912597656249999s;
          animation-timing-function: linear;
        }
      
        @keyframes keyframes8 {
          from {
            stroke: blue;
            stroke-dashoffset: 401;
            stroke-width: 128;
          }
          57% {
            animation-timing-function: step-end;
            stroke: blue;
            stroke-dashoffset: 0;
            stroke-width: 128;
          }
          to {
            stroke: black;
            stroke-width: 1024;
          }
        }
        #make-me-a-hanzi-animation-8 {
          animation: keyframes8 0.5763346354166666s both;
          animation-delay: 6.571126302083332s;
          animation-timing-function: linear;
        }
      
        @keyframes keyframes9 {
          from {
            stroke: blue;
            stroke-dashoffset: 534;
            stroke-width: 128;
          }
          63% {
            animation-timing-function: step-end;
            stroke: blue;
            stroke-dashoffset: 0;
            stroke-width: 128;
          }
          to {
            stroke: black;
            stroke-width: 1024;
          }
        }
        #make-me-a-hanzi-animation-9 {
          animation: keyframes9 0.6845703125s both;
          animation-delay: 7.147460937499999s;
          animation-timing-function: linear;
        }
      
        @keyframes keyframes10 {
          from {
            stroke: blue;
            stroke-dashoffset: 702;
            stroke-width: 128;
          }
          70% {
            animation-timing-function: step-end;
            stroke: blue;
            stroke-dashoffset: 0;
            stroke-width: 128;
          }
          to {
            stroke: black;
            stroke-width: 1024;
          }
        }
        #make-me-a-hanzi-animation-10 {
          animation: keyframes10 0.8212890625s both;
          animation-delay: 7.832031249999999s;
          animation-timing-function: linear;
        }
      
        @keyframes keyframes11 {
          from {
            stroke: blue;
            stroke-dashoffset: 520;
            stroke-width: 128;
          }
          63% {
            animation-timing-function: step-end;
            stroke: blue;
            stroke-dashoffset: 0;
            stroke-width: 128;
          }
          to {
            stroke: black;
            stroke-width: 1024;
          }
        }
        #make-me-a-hanzi-animation-11 {
          animation: keyframes11 0.6731770833333334s both;
          animation-delay: 8.6533203125s;
          animation-timing-function: linear;
        }
      
        @keyframes keyframes12 {
          from {
            stroke: blue;
            stroke-dashoffset: 468;
            stroke-width: 128;
          }
          60% {
            animation-timing-function: step-end;
            stroke: blue;
            stroke-dashoffset: 0;
            stroke-width: 128;
          }
          to {
            stroke: black;
            stroke-width: 1024;
          }
        }
        #make-me-a-hanzi-animation-12 {
          animation: keyframes12 0.630859375s both;
          animation-delay: 9.326497395833334s;
          animation-timing-function: linear;
        }
      
        @keyframes keyframes13 {
          from {
            stroke: blue;
            stroke-dashoffset: 612;
            stroke-width: 128;
          }
          67% {
            animation-timing-function: step-end;
            stroke: blue;
            stroke-dashoffset: 0;
            stroke-width: 128;
          }
          to {
            stroke: black;
            stroke-width: 1024;
          }
        }
        #make-me-a-hanzi-animation-13 {
          animation: keyframes13 0.748046875s both;
          animation-delay: 9.957356770833334s;
          animation-timing-function: linear;
        }
      
        @keyframes keyframes14 {
          from {
            stroke: blue;
            stroke-dashoffset: 454;
            stroke-width: 128;
          }
          60% {
            animation-timing-function: step-end;
            stroke: blue;
            stroke-dashoffset: 0;
            stroke-width: 128;
          }
          to {
            stroke: black;
            stroke-width: 1024;
          }
        }
        #make-me-a-hanzi-animation-14 {
          animation: keyframes14 0.6194661458333334s both;
          animation-delay: 10.705403645833334s;
          animation-timing-function: linear;
        }
      
    </style>
    
      <path d="M 187 584 L 159 592 Q 158 592 135 596 Q 130 597 127 597 Q 122 597 120 595 Q 117 592 116 588 Q 116 583 123 572 Q 129 561 133 549 Q 135 537 137 510 Q 139 482 139 458 L 139 431 Q 139 402 138 368 Q 137 317 133 268 Q 129 220 118 171 Q 108 122 95 95 Q 83 68 65 38 Q 48 8 41 0 L 31 -11 Q 29 -14 29 -17 Q 29 -19 30 -22 Q 32 -24 34 -24 Q 36 -24 39 -22 L 49 -16 Q 63 -8 83 10 Q 103 28 125 66 Q 147 102 160 154 Q 172 206 176 256 Q 181 308 183 376 Q 185 446 186 464 Q 187 484 189 505 Q 192 526 194 535 L 201 556 C 208 578 208 578 187 584 Z" fill="lightgray" />
    
      <path d="M 466 292 L 469 237 Q 469 219 475 181 Q 481 142 488 116 Q 495 90 513 56 Q 531 22 563 -12 Q 594 -47 634 -67 Q 675 -87 720 -96 Q 765 -106 823 -108 Q 846 -109 863 -109 Q 879 -109 889 -108 Q 909 -106 943 -102 Q 977 -98 989 -88 Q 1001 -78 1001 -70 Q 1001 -62 991 -46 Q 982 -30 974 2 Q 967 33 966 38 L 963 71 L 960 94 Q 959 102 953 102 Q 947 101 945 89 L 939 66 Q 935 46 930 27 Q 926 8 920 -6 Q 913 -19 904 -26 Q 894 -34 875 -39 Q 855 -44 827 -44 L 818 -44 Q 784 -44 742 -37 Q 695 -30 661 -14 Q 626 2 602 25 Q 578 47 557 85 Q 535 123 527 161 Q 519 198 517 238 Q 515 276 515 318 Q 515 404 519 452 Q 524 500 528 524 Q 533 546 537 560 Q 542 573 548 582 Q 553 592 555 595 L 555 596 Q 555 604 544 615 Q 533 626 519 636 Q 505 646 491 650 Q 481 655 475 655 Q 473 655 471 654 Q 467 654 458 650 Q 449 646 431 640 L 383 627 Q 381 626 289 606 L 235 594 Q 219 590 187 584 C 158 578 172 550 201 556 L 229 561 Q 232 562 303 576 L 386 594 Q 423 601 441 602 Q 446 603 450 603 Q 463 603 467 598 Q 473 592 473 581 L 473 558 L 471 497 L 468 415 L 465 305 L 466 292 Z" fill="lightgray" />
    
      <path d="M 337 411 L 429 430 Q 440 432 440 437 L 440 438 Q 440 443 435 446 Q 430 451 417 454 Q 405 458 392 460 Q 386 461 380 461 Q 375 461 371 460 Q 366 460 357 457 L 329 448 Q 317 444 286 436 Q 255 430 243 428 L 215 422 Q 205 420 203 417 L 203 416 Q 203 413 207 408 Q 212 401 226 398 Q 240 394 247 394 Q 255 394 265 395 L 289 400 L 337 411 Z" fill="lightgray" />
    
      <path d="M 236 306 L 222 309 L 208 310 Q 203 311 199 311 Q 193 311 191 309 Q 187 307 187 304 L 187 303 Q 187 301 191 296 Q 195 290 199 282 Q 203 274 204 268 L 221 182 Q 225 161 230 154 Q 234 148 240 148 L 242 148 Q 249 148 251 157 Q 252 163 252 169 L 252 175 L 252 198 L 245 286 C 244 304 244 304 236 306 Z" fill="lightgray" />
    
      <path d="M 419 212 L 441 260 Q 446 272 451 278 Q 457 284 466 292 C 473 299 473 299 465 305 L 451 316 Q 439 325 425 331 Q 415 337 409 337 L 408 337 Q 403 336 395 334 Q 387 331 377 329 Q 366 327 352 324 L 300 317 L 236 306 C 206 301 216 280 245 286 L 299 297 L 352 305 L 371 306 Q 376 307 381 307 Q 391 307 394 303 Q 397 300 397 293 Q 397 287 395 279 L 385 222 C 380 192 407 185 419 212 Z" fill="lightgray" />
    
      <path d="M 252 175 L 263 173 Q 272 171 278 171 L 282 171 Q 289 172 299 174 L 345 180 L 421 189 Q 433 190 434 194 L 434 195 Q 434 199 430 203 Q 425 208 419 212 C 401 225 401 225 385 222 L 365 218 Q 361 218 347 214 L 300 205 L 271 201 Q 269 200 252 198 C 222 194 222 180 252 175 Z" fill="lightgray" />
    
      <path d="M 299 174 L 300 62 C 300 32 340 46 341 76 L 345 180 L 347 214 L 352 305 L 352 324 L 354 356 Q 355 371 359 379 Q 362 386 362 390 L 362 392 Q 362 396 355 401 Q 347 406 337 411 C 310 425 277 427 289 400 L 293 391 Q 296 385 298 375 Q 301 366 301 350 L 300 317 L 299 297 L 300 205 L 299 174 Z" fill="lightgray" />
    
      <path d="M 300 62 L 271 56 Q 248 50 227 49 Q 212 48 201 48 L 191 48 Q 184 49 179 49 Q 175 49 173 48 Q 168 44 167 39 L 167 38 Q 167 33 175 26 Q 183 17 193 8 Q 204 -2 211 -6 Q 222 -12 227 -12 L 229 -12 Q 235 -11 248 -4 Q 260 4 268 8 Q 277 12 293 20 L 317 32 L 419 73 C 447 84 438 104 409 96 L 341 76 L 300 62 Z" fill="lightgray" />
    
      <path d="M 419 73 L 433 48 Q 439 34 445 26 Q 449 18 457 14 Q 462 11 467 11 Q 470 11 472 12 Q 479 15 483 26 Q 485 32 485 41 Q 485 48 484 57 Q 481 78 477 90 Q 473 102 463 111 Q 453 121 436 132 Q 418 144 409 146 L 396 151 L 394 151 Q 391 151 389 149 Q 388 148 388 146 Q 388 144 389 142 L 409 96 L 419 73 Z" fill="lightgray" />
    
      <path d="M 754 554 L 789 569 Q 814 580 822 582 L 849 587 Q 857 588 861 592 Q 863 594 863 598 Q 863 604 857 614 Q 847 631 832 640 Q 817 650 805 655 Q 794 659 789 659 Q 787 659 786 658 Q 783 655 779 644 Q 776 632 769 624 Q 763 616 740 595 Q 718 574 709 567 Q 700 560 672 542 Q 643 524 631 518 L 607 505 Q 602 502 602 499 Q 602 498 603 496 Q 604 492 609 492 Q 612 492 617 494 L 637 500 Q 645 502 666 512 Q 687 522 718 535 L 754 554 Z" fill="lightgray" />
    
      <path d="M 719 432 L 647 422 L 571 410 L 541 406 Q 531 405 530 399 L 530 398 Q 530 393 537 388 Q 546 382 558 377 Q 571 372 578 371 Q 582 370 586 370 Q 591 370 597 371 Q 605 372 626 378 Q 648 384 673 390 L 717 398 L 767 405 L 814 410 L 877 416 L 939 422 L 974 422 Q 985 422 986 430 L 986 432 Q 986 439 979 444 Q 970 450 955 457 Q 939 464 931 466 Q 925 469 920 469 L 917 469 L 905 466 L 887 462 Q 876 459 847 454 Q 819 450 771 441 L 719 432 Z" fill="lightgray" />
    
      <path d="M 717 398 L 706 280 C 703 250 742 256 747 286 L 767 405 L 771 441 L 777 479 Q 779 498 786 508 Q 793 518 793 521 Q 793 529 782 537 Q 771 546 754 554 C 727 567 712 564 718 535 L 721 520 Q 722 513 722 500 L 722 484 L 719 432 L 717 398 Z" fill="lightgray" />
    
      <path d="M 649 272 L 628 274 Q 613 276 607 276 Q 597 276 595 272 Q 593 270 593 267 Q 593 266 594 264 Q 596 260 604 254 Q 613 248 617 237 Q 623 226 626 206 L 641 113 Q 643 100 646 89 Q 650 78 656 74 Q 659 71 665 71 Q 667 71 670 72 Q 678 73 681 104 L 679 135 L 667 244 C 664 271 664 271 649 272 Z" fill="lightgray" />
    
      <path d="M 706 280 L 649 272 C 619 268 638 238 667 244 L 793 270 Q 808 272 821 272 Q 835 272 839 266 Q 841 263 841 257 Q 841 252 839 243 L 821 154 C 815 125 860 119 870 147 L 893 210 Q 901 230 906 237 Q 911 245 920 254 Q 929 263 929 268 Q 929 272 925 278 Q 921 284 895 297 Q 869 309 861 312 Q 856 313 851 313 L 846 313 Q 843 312 830 306 Q 817 300 797 296 L 747 286 L 706 280 Z" fill="lightgray" />
    
      <path d="M 681 104 L 875 118 Q 885 119 886 122 Q 887 123 887 124 Q 887 127 884 132 Q 879 139 870 147 C 857 159 851 158 821 154 L 679 135 C 649 131 651 102 681 104 Z" fill="lightgray" />
    
    
      <clipPath id="make-me-a-hanzi-clip-0">
        <path d="M 187 584 L 159 592 Q 158 592 135 596 Q 130 597 127 597 Q 122 597 120 595 Q 117 592 116 588 Q 116 583 123 572 Q 129 561 133 549 Q 135 537 137 510 Q 139 482 139 458 L 139 431 Q 139 402 138 368 Q 137 317 133 268 Q 129 220 118 171 Q 108 122 95 95 Q 83 68 65 38 Q 48 8 41 0 L 31 -11 Q 29 -14 29 -17 Q 29 -19 30 -22 Q 32 -24 34 -24 Q 36 -24 39 -22 L 49 -16 Q 63 -8 83 10 Q 103 28 125 66 Q 147 102 160 154 Q 172 206 176 256 Q 181 308 183 376 Q 185 446 186 464 Q 187 484 189 505 Q 192 526 194 535 L 201 556 C 208 578 208 578 187 584 Z" />
      </clipPath>
      <path clip-path="url(#make-me-a-hanzi-clip-0)" d="M 126 587 L 166 553 L 161 352 L 149 209 L 128 121 L 105 69 L 68 14 L 34 -19" fill="none" id="make-me-a-hanzi-animation-0" stroke-dasharray="786 1572" stroke-linecap="round" />
    
      <clipPath id="make-me-a-hanzi-clip-1">
        <path d="M 466 292 L 469 237 Q 469 219 475 181 Q 481 142 488 116 Q 495 90 513 56 Q 531 22 563 -12 Q 594 -47 634 -67 Q 675 -87 720 -96 Q 765 -106 823 -108 Q 846 -109 863 -109 Q 879 -109 889 -108 Q 909 -106 943 -102 Q 977 -98 989 -88 Q 1001 -78 1001 -70 Q 1001 -62 991 -46 Q 982 -30 974 2 Q 967 33 966 38 L 963 71 L 960 94 Q 959 102 953 102 Q 947 101 945 89 L 939 66 Q 935 46 930 27 Q 926 8 920 -6 Q 913 -19 904 -26 Q 894 -34 875 -39 Q 855 -44 827 -44 L 818 -44 Q 784 -44 742 -37 Q 695 -30 661 -14 Q 626 2 602 25 Q 578 47 557 85 Q 535 123 527 161 Q 519 198 517 238 Q 515 276 515 318 Q 515 404 519 452 Q 524 500 528 524 Q 533 546 537 560 Q 542 573 548 582 Q 553 592 555 595 L 555 596 Q 555 604 544 615 Q 533 626 519 636 Q 505 646 491 650 Q 481 655 475 655 Q 473 655 471 654 Q 467 654 458 650 Q 449 646 431 640 L 383 627 Q 381 626 289 606 L 235 594 Q 219 590 187 584 C 158 578 172 550 201 556 L 229 561 Q 232 562 303 576 L 386 594 Q 423 601 441 602 Q 446 603 450 603 Q 463 603 467 598 Q 473 592 473 581 L 473 558 L 471 497 L 468 415 L 465 305 L 466 292 Z" />
      </clipPath>
      <path clip-path="url(#make-me-a-hanzi-clip-1)" d="M 196 580 L 219 574 L 472 627 L 503 605 L 510 592 L 497 504 L 490 359 L 499 177 L 513 118 L 539 63 L 568 22 L 619 -25 L 692 -58 L 786 -75 L 881 -74 L 930 -61 L 942 -54 L 947 -30 L 952 94" fill="none" id="make-me-a-hanzi-animation-1" stroke-dasharray="1604 3208" stroke-linecap="round" />
    
      <clipPath id="make-me-a-hanzi-clip-2">
        <path d="M 337 411 L 429 430 Q 440 432 440 437 L 440 438 Q 440 443 435 446 Q 430 451 417 454 Q 405 458 392 460 Q 386 461 380 461 Q 375 461 371 460 Q 366 460 357 457 L 329 448 Q 317 444 286 436 Q 255 430 243 428 L 215 422 Q 205 420 203 417 L 203 416 Q 203 413 207 408 Q 212 401 226 398 Q 240 394 247 394 Q 255 394 265 395 L 289 400 L 337 411 Z" />
      </clipPath>
      <path clip-path="url(#make-me-a-hanzi-clip-2)" d="M 210 417 L 216 412 L 259 412 L 368 439 L 432 438" fill="none" id="make-me-a-hanzi-animation-2" stroke-dasharray="355 710" stroke-linecap="round" />
    
      <clipPath id="make-me-a-hanzi-clip-3">
        <path d="M 236 306 L 222 309 L 208 310 Q 203 311 199 311 Q 193 311 191 309 Q 187 307 187 304 L 187 303 Q 187 301 191 296 Q 195 290 199 282 Q 203 274 204 268 L 221 182 Q 225 161 230 154 Q 234 148 240 148 L 242 148 Q 249 148 251 157 Q 252 163 252 169 L 252 175 L 252 198 L 245 286 C 244 304 244 304 236 306 Z" />
      </clipPath>
      <path clip-path="url(#make-me-a-hanzi-clip-3)" d="M 193 304 L 214 293 L 225 277 L 241 158" fill="none" id="make-me-a-hanzi-animation-3" stroke-dasharray="291 582" stroke-linecap="round" />
    
      <clipPath id="make-me-a-hanzi-clip-4">
        <path d="M 419 212 L 441 260 Q 446 272 451 278 Q 457 284 466 292 C 473 299 473 299 465 305 L 451 316 Q 439 325 425 331 Q 415 337 409 337 L 408 337 Q 403 336 395 334 Q 387 331 377 329 Q 366 327 352 324 L 300 317 L 236 306 C 206 301 216 280 245 286 L 299 297 L 352 305 L 371 306 Q 376 307 381 307 Q 391 307 394 303 Q 397 300 397 293 Q 397 287 395 279 L 385 222 C 380 192 407 185 419 212 Z" />
      </clipPath>
      <path clip-path="url(#make-me-a-hanzi-clip-4)" d="M 243 303 L 252 297 L 360 317 L 406 318 L 427 296 L 407 235 L 393 228" fill="none" id="make-me-a-hanzi-animation-4" stroke-dasharray="405 810" stroke-linecap="round" />
    
      <clipPath id="make-me-a-hanzi-clip-5">
        <path d="M 252 175 L 263 173 Q 272 171 278 171 L 282 171 Q 289 172 299 174 L 345 180 L 421 189 Q 433 190 434 194 L 434 195 Q 434 199 430 203 Q 425 208 419 212 C 401 225 401 225 385 222 L 365 218 Q 361 218 347 214 L 300 205 L 271 201 Q 269 200 252 198 C 222 194 222 180 252 175 Z" />
      </clipPath>
      <path clip-path="url(#make-me-a-hanzi-clip-5)" d="M 259 181 L 373 202 L 419 200 L 426 195" fill="none" id="make-me-a-hanzi-animation-5" stroke-dasharray="299 598" stroke-linecap="round" />
    
      <clipPath id="make-me-a-hanzi-clip-6">
        <path d="M 299 174 L 300 62 C 300 32 340 46 341 76 L 345 180 L 347 214 L 352 305 L 352 324 L 354 356 Q 355 371 359 379 Q 362 386 362 390 L 362 392 Q 362 396 355 401 Q 347 406 337 411 C 310 425 277 427 289 400 L 293 391 Q 296 385 298 375 Q 301 366 301 350 L 300 317 L 299 297 L 300 205 L 299 174 Z" />
      </clipPath>
      <path clip-path="url(#make-me-a-hanzi-clip-6)" d="M 296 398 L 325 381 L 328 366 L 321 91 L 305 69" fill="none" id="make-me-a-hanzi-animation-6" stroke-dasharray="479 958" stroke-linecap="round" />
    
      <clipPath id="make-me-a-hanzi-clip-7">
        <path d="M 300 62 L 271 56 Q 248 50 227 49 Q 212 48 201 48 L 191 48 Q 184 49 179 49 Q 175 49 173 48 Q 168 44 167 39 L 167 38 Q 167 33 175 26 Q 183 17 193 8 Q 204 -2 211 -6 Q 222 -12 227 -12 L 229 -12 Q 235 -11 248 -4 Q 260 4 268 8 Q 277 12 293 20 L 317 32 L 419 73 C 447 84 438 104 409 96 L 341 76 L 300 62 Z" />
      </clipPath>
      <path clip-path="url(#make-me-a-hanzi-clip-7)" d="M 178 39 L 228 19 L 401 80 L 409 76" fill="none" id="make-me-a-hanzi-animation-7" stroke-dasharray="374 748" stroke-linecap="round" />
    
      <clipPath id="make-me-a-hanzi-clip-8">
        <path d="M 419 73 L 433 48 Q 439 34 445 26 Q 449 18 457 14 Q 462 11 467 11 Q 470 11 472 12 Q 479 15 483 26 Q 485 32 485 41 Q 485 48 484 57 Q 481 78 477 90 Q 473 102 463 111 Q 453 121 436 132 Q 418 144 409 146 L 396 151 L 394 151 Q 391 151 389 149 Q 388 148 388 146 Q 388 144 389 142 L 409 96 L 419 73 Z" />
      </clipPath>
      <path clip-path="url(#make-me-a-hanzi-clip-8)" d="M 393 146 L 448 83 L 467 25" fill="none" id="make-me-a-hanzi-animation-8" stroke-dasharray="273 546" stroke-linecap="round" />
    
      <clipPath id="make-me-a-hanzi-clip-9">
        <path d="M 754 554 L 789 569 Q 814 580 822 582 L 849 587 Q 857 588 861 592 Q 863 594 863 598 Q 863 604 857 614 Q 847 631 832 640 Q 817 650 805 655 Q 794 659 789 659 Q 787 659 786 658 Q 783 655 779 644 Q 776 632 769 624 Q 763 616 740 595 Q 718 574 709 567 Q 700 560 672 542 Q 643 524 631 518 L 607 505 Q 602 502 602 499 Q 602 498 603 496 Q 604 492 609 492 Q 612 492 617 494 L 637 500 Q 645 502 666 512 Q 687 522 718 535 L 754 554 Z" />
      </clipPath>
      <path clip-path="url(#make-me-a-hanzi-clip-9)" d="M 851 599 L 806 615 L 679 530 L 608 499" fill="none" id="make-me-a-hanzi-animation-9" stroke-dasharray="406 812" stroke-linecap="round" />
    
      <clipPath id="make-me-a-hanzi-clip-10">
        <path d="M 719 432 L 647 422 L 571 410 L 541 406 Q 531 405 530 399 L 530 398 Q 530 393 537 388 Q 546 382 558 377 Q 571 372 578 371 Q 582 370 586 370 Q 591 370 597 371 Q 605 372 626 378 Q 648 384 673 390 L 717 398 L 767 405 L 814 410 L 877 416 L 939 422 L 974 422 Q 985 422 986 430 L 986 432 Q 986 439 979 444 Q 970 450 955 457 Q 939 464 931 466 Q 925 469 920 469 L 917 469 L 905 466 L 887 462 Q 876 459 847 454 Q 819 450 771 441 L 719 432 Z" />
      </clipPath>
      <path clip-path="url(#make-me-a-hanzi-clip-10)" d="M 538 399 L 590 391 L 685 411 L 919 445 L 977 431" fill="none" id="make-me-a-hanzi-animation-10" stroke-dasharray="574 1148" stroke-linecap="round" />
    
      <clipPath id="make-me-a-hanzi-clip-11">
        <path d="M 717 398 L 706 280 C 703 250 742 256 747 286 L 767 405 L 771 441 L 777 479 Q 779 498 786 508 Q 793 518 793 521 Q 793 529 782 537 Q 771 546 754 554 C 727 567 712 564 718 535 L 721 520 Q 722 513 722 500 L 722 484 L 719 432 L 717 398 Z" />
      </clipPath>
      <path clip-path="url(#make-me-a-hanzi-clip-11)" d="M 729 529 L 754 515 L 731 312 L 712 287" fill="none" id="make-me-a-hanzi-animation-11" stroke-dasharray="392 784" stroke-linecap="round" />
    
      <clipPath id="make-me-a-hanzi-clip-12">
        <path d="M 649 272 L 628 274 Q 613 276 607 276 Q 597 276 595 272 Q 593 270 593 267 Q 593 266 594 264 Q 596 260 604 254 Q 613 248 617 237 Q 623 226 626 206 L 641 113 Q 643 100 646 89 Q 650 78 656 74 Q 659 71 665 71 Q 667 71 670 72 Q 678 73 681 104 L 679 135 L 667 244 C 664 271 664 271 649 272 Z" />
      </clipPath>
      <path clip-path="url(#make-me-a-hanzi-clip-12)" d="M 599 267 L 631 254 L 644 236 L 665 82" fill="none" id="make-me-a-hanzi-animation-12" stroke-dasharray="340 680" stroke-linecap="round" />
    
      <clipPath id="make-me-a-hanzi-clip-13">
        <path d="M 706 280 L 649 272 C 619 268 638 238 667 244 L 793 270 Q 808 272 821 272 Q 835 272 839 266 Q 841 263 841 257 Q 841 252 839 243 L 821 154 C 815 125 860 119 870 147 L 893 210 Q 901 230 906 237 Q 911 245 920 254 Q 929 263 929 268 Q 929 272 925 278 Q 921 284 895 297 Q 869 309 861 312 Q 856 313 851 313 L 846 313 Q 843 312 830 306 Q 817 300 797 296 L 747 286 L 706 280 Z" />
      </clipPath>
      <path clip-path="url(#make-me-a-hanzi-clip-13)" d="M 657 270 L 674 261 L 819 287 L 855 287 L 878 263 L 853 176 L 828 160" fill="none" id="make-me-a-hanzi-animation-13" stroke-dasharray="484 968" stroke-linecap="round" />
    
      <clipPath id="make-me-a-hanzi-clip-14">
        <path d="M 681 104 L 875 118 Q 885 119 886 122 Q 887 123 887 124 Q 887 127 884 132 Q 879 139 870 147 C 857 159 851 158 821 154 L 679 135 C 649 131 651 102 681 104 Z" />
      </clipPath>
      <path clip-path="url(#make-me-a-hanzi-clip-14)" d="M 688 112 L 696 121 L 800 133 L 862 133 L 880 126" fill="none" id="make-me-a-hanzi-animation-14" stroke-dasharray="326 652" stroke-linecap="round" />
    
  </g>
</svg>