<svg xmlns="http://www.w3.org/2000/svg" version="1.1" viewBox="0 0 1024 1024">
  <g stroke="lightgray" stroke-dasharray="1,1" stroke-width="1" transform="scale(4, 4)">
    <line x1="0" y1="0" x2="256" y2="256" />
    <line x1="256" y1="0" x2="0" y2="256" />
    <line x1="128" y1="0" x2="128" y2="256" />
    <line x1="0" y1="128" x2="256" y2="128" />
  </g>
  <g transform="scale(1.0, -1.0) translate(0.0, -820.50)">
    <style type="text/css">
      
        @keyframes keyframes0 {
          from {
            stroke: blue;
            stroke-dashoffset: 1016;
            stroke-width: 128;
          }
          77% {
            animation-timing-function: step-end;
            stroke: blue;
            stroke-dashoffset: 0;
            stroke-width: 128;
          }
          to {
            stroke: black;
            stroke-width: 1024;
          }
        }
        #make-me-a-hanzi-animation-0 {
          animation: keyframes0 1.0768229166666667s both;
          animation-delay: 0s;
          animation-timing-function: linear;
        }
      
        @keyframes keyframes1 {
          from {
            stroke: blue;
            stroke-dashoffset: 1692;
            stroke-width: 128;
          }
          85% {
            animation-timing-function: step-end;
            stroke: blue;
            stroke-dashoffset: 0;
            stroke-width: 128;
          }
          to {
            stroke: black;
            stroke-width: 1024;
          }
        }
        #make-me-a-hanzi-animation-1 {
          animation: keyframes1 1.626953125s both;
          animation-delay: 1.0768229166666667s;
          animation-timing-function: linear;
        }
      
        @keyframes keyframes2 {
          from {
            stroke: blue;
            stroke-dashoffset: 694;
            stroke-width: 128;
          }
          69% {
            animation-timing-function: step-end;
            stroke: blue;
            stroke-dashoffset: 0;
            stroke-width: 128;
          }
          to {
            stroke: black;
            stroke-width: 1024;
          }
        }
        #make-me-a-hanzi-animation-2 {
          animation: keyframes2 0.8147786458333334s both;
          animation-delay: 2.703776041666667s;
          animation-timing-function: linear;
        }
      
        @keyframes keyframes3 {
          from {
            stroke: blue;
            stroke-dashoffset: 589;
            stroke-width: 128;
          }
          66% {
            animation-timing-function: step-end;
            stroke: blue;
            stroke-dashoffset: 0;
            stroke-width: 128;
          }
          to {
            stroke: black;
            stroke-width: 1024;
          }
        }
        #make-me-a-hanzi-animation-3 {
          animation: keyframes3 0.7293294270833334s both;
          animation-delay: 3.5185546875000004s;
          animation-timing-function: linear;
        }
      
        @keyframes keyframes4 {
          from {
            stroke: blue;
            stroke-dashoffset: 639;
            stroke-width: 128;
          }
          68% {
            animation-timing-function: step-end;
            stroke: blue;
            stroke-dashoffset: 0;
            stroke-width: 128;
          }
          to {
            stroke: black;
            stroke-width: 1024;
          }
        }
        #make-me-a-hanzi-animation-4 {
          animation: keyframes4 0.77001953125s both;
          animation-delay: 4.247884114583334s;
          animation-timing-function: linear;
        }
      
        @keyframes keyframes5 {
          from {
            stroke: blue;
            stroke-dashoffset: 404;
            stroke-width: 128;
          }
          57% {
            animation-timing-function: step-end;
            stroke: blue;
            stroke-dashoffset: 0;
            stroke-width: 128;
          }
          to {
            stroke: black;
            stroke-width: 1024;
          }
        }
        #make-me-a-hanzi-animation-5 {
          animation: keyframes5 0.5787760416666666s both;
          animation-delay: 5.017903645833334s;
          animation-timing-function: linear;
        }
      
        @keyframes keyframes6 {
          from {
            stroke: blue;
            stroke-dashoffset: 543;
            stroke-width: 128;
          }
          64% {
            animation-timing-function: step-end;
            stroke: blue;
            stroke-dashoffset: 0;
            stroke-width: 128;
          }
          to {
            stroke: black;
            stroke-width: 1024;
          }
        }
        #make-me-a-hanzi-animation-6 {
          animation: keyframes6 0.69189453125s both;
          animation-delay: 5.596679687500001s;
          animation-timing-function: linear;
        }
      
        @keyframes keyframes7 {
          from {
            stroke: blue;
            stroke-dashoffset: 659;
            stroke-width: 128;
          }
          68% {
            animation-timing-function: step-end;
            stroke: blue;
            stroke-dashoffset: 0;
            stroke-width: 128;
          }
          to {
            stroke: black;
            stroke-width: 1024;
          }
        }
        #make-me-a-hanzi-animation-7 {
          animation: keyframes7 0.7862955729166666s both;
          animation-delay: 6.288574218750001s;
          animation-timing-function: linear;
        }
      
        @keyframes keyframes8 {
          from {
            stroke: blue;
            stroke-dashoffset: 455;
            stroke-width: 128;
          }
          60% {
            animation-timing-function: step-end;
            stroke: blue;
            stroke-dashoffset: 0;
            stroke-width: 128;
          }
          to {
            stroke: black;
            stroke-width: 1024;
          }
        }
        #make-me-a-hanzi-animation-8 {
          animation: keyframes8 0.6202799479166666s both;
          animation-delay: 7.074869791666668s;
          animation-timing-function: linear;
        }
      
    </style>
    
      <path d="M 168 643 Q 156 643 156 631 Q 156 623 163 606 Q 183 562 183 358 Q 183 177 147 81 Q 120 6 73 -42 Q 51 -64 51 -70 Q 51 -74 59 -74 Q 82 -74 134 -23 Q 183 32 209 122 Q 231 208 231 406 L 231 577 C 231 607 231 607 228 610 Q 225 616 207 628 Q 183 643 168 643 Z" fill="lightgray" />
    
      <path d="M 231 577 Q 460 627 468 627 Q 483 627 483 614 Q 468 482 468 371 Q 468 187 504 96 Q 548 -13 670 -61 Q 743 -85 843 -85 Q 911 -85 941 -71 Q 972 -55 972 -34 Q 972 -29 957 -15 Q 940 7 923 70 Q 904 131 888 131 Q 885 131 872 40 Q 868 4 857 -8 Q 845 -26 811 -26 Q 741 -26 682 -6 Q 585 24 554 106 Q 515 185 515 371 Q 515 479 523 531 Q 532 573 554 597 Q 571 615 571 622 Q 571 636 537 661 Q 507 683 492 683 Q 483 683 458 670 Q 438 658 378 646 L 228 610 C 199 603 202 571 231 577 Z" fill="lightgray" />
    
      <path d="M 372 519 Q 368 519 368 505 Q 365 450 349 387 Q 345 366 339 347 L 323 298 Q 313 271 302 246 Q 270 179 242 152 Q 223 134 223 131 Q 223 127 244 127 Q 280 127 327 195 Q 342 219 354 244 L 380 297 Q 394 330 404 364 Q 424 438 431 456 Q 435 466 435 471 L 435 472 Q 435 480 408 500 Q 383 519 372 519 Z" fill="lightgray" />
    
      <path d="M 339 347 Q 334 352 328 359 Q 265 427 252 427 Q 244 427 244 419 Q 244 414 296 340 Q 310 319 323 298 L 354 244 Q 370 217 381 192 Q 409 127 431 127 Q 452 127 452 175 Q 452 187 430 223 Q 412 257 380 297 L 339 347 Z" fill="lightgray" />
    
      <path d="M 659 702 Q 647 702 647 694 Q 647 690 655 680 Q 666 668 673 635 Q 688 572 691 329 C 691 299 727 307 727 337 Q 727 418 728 476 L 729 495 Q 731 537 733 560 Q 735 603 745 634 Q 748 645 748 650 Q 748 664 714 685 Q 682 702 659 702 Z" fill="lightgray" />
    
      <path d="M 728 476 Q 729 476 731 475 Q 757 467 779 467 Q 793 467 880 490 Q 896 495 896 511 Q 896 533 855 534 Q 847 534 835 529 Q 772 506 729 495 C 700 487 699 485 728 476 Z" fill="lightgray" />
    
      <path d="M 624 316 Q 618 328 604 331 Q 591 335 567 335 Q 555 335 555 326 Q 555 321 564 308 Q 579 290 587 256 Q 601 211 608 97 Q 611 52 636 50 Q 646 50 647 104 L 646 132 Q 644 190 630 291 L 624 316 Z" fill="lightgray" />
    
      <path d="M 691 329 Q 663 322 624 316 C 594 311 600 288 630 291 Q 658 293 717 303 Q 776 314 796 314 Q 811 314 811 303 L 791 155 C 787 125 833 124 839 153 Q 857 243 888 286 Q 907 315 907 322 Q 907 332 876 352 Q 844 371 827 371 Q 817 371 787 356 Q 766 346 727 337 L 691 329 Z" fill="lightgray" />
    
      <path d="M 647 104 Q 655 98 668 98 Q 757 108 852 119 Q 863 124 863 131 Q 863 141 846 151 Q 843 152 839 153 L 791 155 Q 754 150 646 132 C 616 127 621 119 647 104 Z" fill="lightgray" />
    
    
      <clipPath id="make-me-a-hanzi-clip-0">
        <path d="M 168 643 Q 156 643 156 631 Q 156 623 163 606 Q 183 562 183 358 Q 183 177 147 81 Q 120 6 73 -42 Q 51 -64 51 -70 Q 51 -74 59 -74 Q 82 -74 134 -23 Q 183 32 209 122 Q 231 208 231 406 L 231 577 C 231 607 231 607 228 610 Q 225 616 207 628 Q 183 643 168 643 Z" />
      </clipPath>
      <path clip-path="url(#make-me-a-hanzi-clip-0)" d="M 167 633 L 197 600 L 204 554 L 207 315 L 193 164 L 175 91 L 146 26 L 116 -20 L 57 -69" fill="none" id="make-me-a-hanzi-animation-0" stroke-dasharray="888 1776" stroke-linecap="round" />
    
      <clipPath id="make-me-a-hanzi-clip-1">
        <path d="M 231 577 Q 460 627 468 627 Q 483 627 483 614 Q 468 482 468 371 Q 468 187 504 96 Q 548 -13 670 -61 Q 743 -85 843 -85 Q 911 -85 941 -71 Q 972 -55 972 -34 Q 972 -29 957 -15 Q 940 7 923 70 Q 904 131 888 131 Q 885 131 872 40 Q 868 4 857 -8 Q 845 -26 811 -26 Q 741 -26 682 -6 Q 585 24 554 106 Q 515 185 515 371 Q 515 479 523 531 Q 532 573 554 597 Q 571 615 571 622 Q 571 636 537 661 Q 507 683 492 683 Q 483 683 458 670 Q 438 658 378 646 L 228 610 C 199 603 202 571 231 577 Z" />
      </clipPath>
      <path clip-path="url(#make-me-a-hanzi-clip-1)" d="M 237 605 L 247 596 L 476 652 L 501 647 L 522 622 L 499 539 L 493 464 L 497 236 L 511 153 L 529 99 L 556 50 L 594 10 L 658 -27 L 711 -44 L 817 -56 L 868 -48 L 905 -29 L 891 128" fill="none" id="make-me-a-hanzi-animation-1" stroke-dasharray="1564 3128" stroke-linecap="round" />
    
      <clipPath id="make-me-a-hanzi-clip-2">
        <path d="M 372 519 Q 368 519 368 505 Q 365 450 349 387 Q 345 366 339 347 L 323 298 Q 313 271 302 246 Q 270 179 242 152 Q 223 134 223 131 Q 223 127 244 127 Q 280 127 327 195 Q 342 219 354 244 L 380 297 Q 394 330 404 364 Q 424 438 431 456 Q 435 466 435 471 L 435 472 Q 435 480 408 500 Q 383 519 372 519 Z" />
      </clipPath>
      <path clip-path="url(#make-me-a-hanzi-clip-2)" d="M 375 511 L 398 464 L 380 383 L 348 288 L 304 198 L 282 168 L 263 149 L 228 133" fill="none" id="make-me-a-hanzi-animation-2" stroke-dasharray="566 1132" stroke-linecap="round" />
    
      <clipPath id="make-me-a-hanzi-clip-3">
        <path d="M 339 347 Q 334 352 328 359 Q 265 427 252 427 Q 244 427 244 419 Q 244 414 296 340 Q 310 319 323 298 L 354 244 Q 370 217 381 192 Q 409 127 431 127 Q 452 127 452 175 Q 452 187 430 223 Q 412 257 380 297 L 339 347 Z" />
      </clipPath>
      <path clip-path="url(#make-me-a-hanzi-clip-3)" d="M 251 420 L 308 357 L 366 275 L 417 186 L 431 143" fill="none" id="make-me-a-hanzi-animation-3" stroke-dasharray="461 922" stroke-linecap="round" />
    
      <clipPath id="make-me-a-hanzi-clip-4">
        <path d="M 659 702 Q 647 702 647 694 Q 647 690 655 680 Q 666 668 673 635 Q 688 572 691 329 C 691 299 727 307 727 337 Q 727 418 728 476 L 729 495 Q 731 537 733 560 Q 735 603 745 634 Q 748 645 748 650 Q 748 664 714 685 Q 682 702 659 702 Z" />
      </clipPath>
      <path clip-path="url(#make-me-a-hanzi-clip-4)" d="M 656 694 L 684 675 L 709 644 L 709 352 L 695 341" fill="none" id="make-me-a-hanzi-animation-4" stroke-dasharray="511 1022" stroke-linecap="round" />
    
      <clipPath id="make-me-a-hanzi-clip-5">
        <path d="M 728 476 Q 729 476 731 475 Q 757 467 779 467 Q 793 467 880 490 Q 896 495 896 511 Q 896 533 855 534 Q 847 534 835 529 Q 772 506 729 495 C 700 487 699 485 728 476 Z" />
      </clipPath>
      <path clip-path="url(#make-me-a-hanzi-clip-5)" d="M 731 481 L 876 510" fill="none" id="make-me-a-hanzi-animation-5" stroke-dasharray="276 552" stroke-linecap="round" />
    
      <clipPath id="make-me-a-hanzi-clip-6">
        <path d="M 624 316 Q 618 328 604 331 Q 591 335 567 335 Q 555 335 555 326 Q 555 321 564 308 Q 579 290 587 256 Q 601 211 608 97 Q 611 52 636 50 Q 646 50 647 104 L 646 132 Q 644 190 630 291 L 624 316 Z" />
      </clipPath>
      <path clip-path="url(#make-me-a-hanzi-clip-6)" d="M 565 325 L 599 303 L 608 278 L 633 59" fill="none" id="make-me-a-hanzi-animation-6" stroke-dasharray="415 830" stroke-linecap="round" />
    
      <clipPath id="make-me-a-hanzi-clip-7">
        <path d="M 691 329 Q 663 322 624 316 C 594 311 600 288 630 291 Q 658 293 717 303 Q 776 314 796 314 Q 811 314 811 303 L 791 155 C 787 125 833 124 839 153 Q 857 243 888 286 Q 907 315 907 322 Q 907 332 876 352 Q 844 371 827 371 Q 817 371 787 356 Q 766 346 727 337 L 691 329 Z" />
      </clipPath>
      <path clip-path="url(#make-me-a-hanzi-clip-7)" d="M 633 311 L 640 305 L 672 309 L 808 338 L 822 339 L 839 330 L 854 314 L 819 179 L 797 162" fill="none" id="make-me-a-hanzi-animation-7" stroke-dasharray="531 1062" stroke-linecap="round" />
    
      <clipPath id="make-me-a-hanzi-clip-8">
        <path d="M 647 104 Q 655 98 668 98 Q 757 108 852 119 Q 863 124 863 131 Q 863 141 846 151 Q 843 152 839 153 L 791 155 Q 754 150 646 132 C 616 127 621 119 647 104 Z" />
      </clipPath>
      <path clip-path="url(#make-me-a-hanzi-clip-8)" d="M 656 111 L 680 120 L 759 130 L 832 136 L 852 132" fill="none" id="make-me-a-hanzi-animation-8" stroke-dasharray="327 654" stroke-linecap="round" />
    
  </g>
</svg>