<svg xmlns="http://www.w3.org/2000/svg" version="1.1" viewBox="0 0 1024 1024">
  <g stroke="lightgray" stroke-dasharray="1,1" stroke-width="1" transform="scale(4, 4)">
    <line x1="0" y1="0" x2="256" y2="256" />
    <line x1="256" y1="0" x2="0" y2="256" />
    <line x1="128" y1="0" x2="128" y2="256" />
    <line x1="0" y1="128" x2="256" y2="128" />
  </g>
  <g transform="scale(1.0, -1.0) translate(0.0, -825.50)">
    <style type="text/css">
      
        @keyframes keyframes0 {
          from {
            stroke: blue;
            stroke-dashoffset: 515;
            stroke-width: 128;
          }
          63% {
            animation-timing-function: step-end;
            stroke: blue;
            stroke-dashoffset: 0;
            stroke-width: 128;
          }
          to {
            stroke: black;
            stroke-width: 1024;
          }
        }
        #make-me-a-hanzi-animation-0 {
          animation: keyframes0 0.6691080729166666s both;
          animation-delay: 0s;
          animation-timing-function: linear;
        }
      
        @keyframes keyframes1 {
          from {
            stroke: blue;
            stroke-dashoffset: 653;
            stroke-width: 128;
          }
          68% {
            animation-timing-function: step-end;
            stroke: blue;
            stroke-dashoffset: 0;
            stroke-width: 128;
          }
          to {
            stroke: black;
            stroke-width: 1024;
          }
        }
        #make-me-a-hanzi-animation-1 {
          animation: keyframes1 0.7814127604166666s both;
          animation-delay: 0.6691080729166666s;
          animation-timing-function: linear;
        }
      
        @keyframes keyframes2 {
          from {
            stroke: blue;
            stroke-dashoffset: 347;
            stroke-width: 128;
          }
          53% {
            animation-timing-function: step-end;
            stroke: blue;
            stroke-dashoffset: 0;
            stroke-width: 128;
          }
          to {
            stroke: black;
            stroke-width: 1024;
          }
        }
        #make-me-a-hanzi-animation-2 {
          animation: keyframes2 0.5323893229166666s both;
          animation-delay: 1.4505208333333333s;
          animation-timing-function: linear;
        }
      
        @keyframes keyframes3 {
          from {
            stroke: blue;
            stroke-dashoffset: 348;
            stroke-width: 128;
          }
          53% {
            animation-timing-function: step-end;
            stroke: blue;
            stroke-dashoffset: 0;
            stroke-width: 128;
          }
          to {
            stroke: black;
            stroke-width: 1024;
          }
        }
        #make-me-a-hanzi-animation-3 {
          animation: keyframes3 0.533203125s both;
          animation-delay: 1.98291015625s;
          animation-timing-function: linear;
        }
      
        @keyframes keyframes4 {
          from {
            stroke: blue;
            stroke-dashoffset: 456;
            stroke-width: 128;
          }
          60% {
            animation-timing-function: step-end;
            stroke: blue;
            stroke-dashoffset: 0;
            stroke-width: 128;
          }
          to {
            stroke: black;
            stroke-width: 1024;
          }
        }
        #make-me-a-hanzi-animation-4 {
          animation: keyframes4 0.62109375s both;
          animation-delay: 2.51611328125s;
          animation-timing-function: linear;
        }
      
        @keyframes keyframes5 {
          from {
            stroke: blue;
            stroke-dashoffset: 640;
            stroke-width: 128;
          }
          68% {
            animation-timing-function: step-end;
            stroke: blue;
            stroke-dashoffset: 0;
            stroke-width: 128;
          }
          to {
            stroke: black;
            stroke-width: 1024;
          }
        }
        #make-me-a-hanzi-animation-5 {
          animation: keyframes5 0.7708333333333334s both;
          animation-delay: 3.13720703125s;
          animation-timing-function: linear;
        }
      
        @keyframes keyframes6 {
          from {
            stroke: blue;
            stroke-dashoffset: 350;
            stroke-width: 128;
          }
          53% {
            animation-timing-function: step-end;
            stroke: blue;
            stroke-dashoffset: 0;
            stroke-width: 128;
          }
          to {
            stroke: black;
            stroke-width: 1024;
          }
        }
        #make-me-a-hanzi-animation-6 {
          animation: keyframes6 0.5348307291666666s both;
          animation-delay: 3.9080403645833335s;
          animation-timing-function: linear;
        }
      
        @keyframes keyframes7 {
          from {
            stroke: blue;
            stroke-dashoffset: 319;
            stroke-width: 128;
          }
          51% {
            animation-timing-function: step-end;
            stroke: blue;
            stroke-dashoffset: 0;
            stroke-width: 128;
          }
          to {
            stroke: black;
            stroke-width: 1024;
          }
        }
        #make-me-a-hanzi-animation-7 {
          animation: keyframes7 0.5096028645833334s both;
          animation-delay: 4.44287109375s;
          animation-timing-function: linear;
        }
      
        @keyframes keyframes8 {
          from {
            stroke: blue;
            stroke-dashoffset: 442;
            stroke-width: 128;
          }
          59% {
            animation-timing-function: step-end;
            stroke: blue;
            stroke-dashoffset: 0;
            stroke-width: 128;
          }
          to {
            stroke: black;
            stroke-width: 1024;
          }
        }
        #make-me-a-hanzi-animation-8 {
          animation: keyframes8 0.6097005208333334s both;
          animation-delay: 4.952473958333333s;
          animation-timing-function: linear;
        }
      
        @keyframes keyframes9 {
          from {
            stroke: blue;
            stroke-dashoffset: 639;
            stroke-width: 128;
          }
          68% {
            animation-timing-function: step-end;
            stroke: blue;
            stroke-dashoffset: 0;
            stroke-width: 128;
          }
          to {
            stroke: black;
            stroke-width: 1024;
          }
        }
        #make-me-a-hanzi-animation-9 {
          animation: keyframes9 0.77001953125s both;
          animation-delay: 5.562174479166666s;
          animation-timing-function: linear;
        }
      
        @keyframes keyframes10 {
          from {
            stroke: blue;
            stroke-dashoffset: 326;
            stroke-width: 128;
          }
          51% {
            animation-timing-function: step-end;
            stroke: blue;
            stroke-dashoffset: 0;
            stroke-width: 128;
          }
          to {
            stroke: black;
            stroke-width: 1024;
          }
        }
        #make-me-a-hanzi-animation-10 {
          animation: keyframes10 0.5152994791666666s both;
          animation-delay: 6.332194010416666s;
          animation-timing-function: linear;
        }
      
        @keyframes keyframes11 {
          from {
            stroke: blue;
            stroke-dashoffset: 313;
            stroke-width: 128;
          }
          50% {
            animation-timing-function: step-end;
            stroke: blue;
            stroke-dashoffset: 0;
            stroke-width: 128;
          }
          to {
            stroke: black;
            stroke-width: 1024;
          }
        }
        #make-me-a-hanzi-animation-11 {
          animation: keyframes11 0.5047200520833334s both;
          animation-delay: 6.847493489583333s;
          animation-timing-function: linear;
        }
      
        @keyframes keyframes12 {
          from {
            stroke: blue;
            stroke-dashoffset: 912;
            stroke-width: 128;
          }
          75% {
            animation-timing-function: step-end;
            stroke: blue;
            stroke-dashoffset: 0;
            stroke-width: 128;
          }
          to {
            stroke: black;
            stroke-width: 1024;
          }
        }
        #make-me-a-hanzi-animation-12 {
          animation: keyframes12 0.9921875s both;
          animation-delay: 7.352213541666666s;
          animation-timing-function: linear;
        }
      
        @keyframes keyframes13 {
          from {
            stroke: blue;
            stroke-dashoffset: 1336;
            stroke-width: 128;
          }
          81% {
            animation-timing-function: step-end;
            stroke: blue;
            stroke-dashoffset: 0;
            stroke-width: 128;
          }
          to {
            stroke: black;
            stroke-width: 1024;
          }
        }
        #make-me-a-hanzi-animation-13 {
          animation: keyframes13 1.3372395833333333s both;
          animation-delay: 8.344401041666666s;
          animation-timing-function: linear;
        }
      
        @keyframes keyframes14 {
          from {
            stroke: blue;
            stroke-dashoffset: 666;
            stroke-width: 128;
          }
          68% {
            animation-timing-function: step-end;
            stroke: blue;
            stroke-dashoffset: 0;
            stroke-width: 128;
          }
          to {
            stroke: black;
            stroke-width: 1024;
          }
        }
        #make-me-a-hanzi-animation-14 {
          animation: keyframes14 0.7919921875s both;
          animation-delay: 9.681640625s;
          animation-timing-function: linear;
        }
      
        @keyframes keyframes15 {
          from {
            stroke: blue;
            stroke-dashoffset: 542;
            stroke-width: 128;
          }
          64% {
            animation-timing-function: step-end;
            stroke: blue;
            stroke-dashoffset: 0;
            stroke-width: 128;
          }
          to {
            stroke: black;
            stroke-width: 1024;
          }
        }
        #make-me-a-hanzi-animation-15 {
          animation: keyframes15 0.6910807291666666s both;
          animation-delay: 10.4736328125s;
          animation-timing-function: linear;
        }
      
    </style>
    
      <path d="M 321 509 Q 429 537 432 540 Q 439 547 435 554 Q 428 564 403 569 Q 376 573 331 555 L 284 540 Q 227 527 179 520 Q 148 514 170 500 Q 203 482 272 498 L 274 498 L 321 509 Z" fill="lightgray" />
    
      <path d="M 274 498 Q 253 429 193 377 Q 181 367 170 356 Q 160 347 170 347 Q 212 347 266 407 Q 308 453 321 509 L 331 555 Q 338 637 346 655 Q 352 671 338 677 Q 293 701 276 692 Q 266 688 272 675 Q 297 641 284 540 L 274 498 Z" fill="lightgray" />
    
      <path d="M 350 441 Q 369 425 391 403 Q 400 396 411 395 Q 418 395 422 405 Q 425 415 419 435 Q 412 457 347 474 Q 337 475 332 474 Q 328 471 329 463 Q 332 456 350 441 Z" fill="lightgray" />
    
      <path d="M 403 643 Q 422 627 441 607 Q 451 598 462 599 Q 469 599 474 609 Q 477 619 470 641 Q 464 662 400 678 Q 388 679 384 678 Q 380 675 381 666 Q 384 659 403 643 Z" fill="lightgray" />
    
      <path d="M 193 184 L 269 209 Q 276 216 271 223 Q 264 232 241 236 Q 220 237 203 230 L 155 211 Q 148 210 140 206 Q 109 197 72 191 Q 44 184 65 172 Q 98 154 144 170 Q 145 171 148 170 C 152 171 165 175 193 184 Z" fill="lightgray" />
    
      <path d="M 187 162 Q 190 174 193 184 L 203 230 Q 203 233 204 234 Q 210 271 215 286 Q 222 296 218 307 Q 206 320 183 332 Q 170 341 159 338 Q 150 334 155 322 Q 170 298 155 211 L 148 170 Q 127 74 66 -8 Q 62 -12 60 -17 Q 59 -26 66 -24 Q 96 -18 147 63 Q 148 66 150 68 Q 168 101 182 144 L 187 162 Z" fill="lightgray" />
    
      <path d="M 182 144 Q 185 138 196 126 Q 214 105 231 81 Q 238 71 249 69 Q 256 69 262 77 Q 266 86 264 107 Q 261 129 199 159 Q 192 162 187 162 C 170 164 170 164 182 144 Z" fill="lightgray" />
    
      <path d="M 244 312 Q 275 267 295 263 Q 304 262 309 274 Q 310 283 305 297 Q 298 309 283 315 Q 259 328 249 330 Q 242 331 241 324 Q 240 318 244 312 Z" fill="lightgray" />
    
      <path d="M 402 228 Q 430 237 464 245 Q 486 252 489 255 Q 495 262 491 267 Q 485 276 463 280 Q 433 284 407 267 L 362 252 Q 334 246 304 241 Q 277 234 297 223 Q 324 211 359 216 L 402 228 Z" fill="lightgray" />
    
      <path d="M 393 180 L 402 228 L 407 267 Q 408 288 415 316 Q 421 332 405 340 Q 369 359 358 358 Q 343 357 354 339 Q 364 320 362 252 L 359 216 Q 359 135 290 57 Q 287 56 286 53 Q 255 26 253 22 Q 252 16 260 16 Q 284 16 331 57 Q 370 94 388 156 L 393 180 Z" fill="lightgray" />
    
      <path d="M 388 156 Q 427 114 443 110 Q 452 109 456 122 Q 457 131 451 145 Q 442 161 393 180 C 365 191 368 178 388 156 Z" fill="lightgray" />
    
      <path d="M 443 353 Q 459 326 478 316 Q 487 315 493 321 Q 497 328 496 338 Q 495 351 484 360 Q 456 384 437 377 Q 433 376 434 369 Q 434 362 443 353 Z" fill="lightgray" />
    
      <path d="M 558 567 Q 545 576 525 582 Q 507 589 497 584 Q 487 577 494 566 Q 509 548 516 491 Q 516 302 502 218 Q 498 203 495 187 Q 471 94 408 -28 Q 404 -34 403 -40 Q 402 -50 410 -47 Q 443 -35 506 92 L 521 130 Q 566 268 567 485 Q 567 512 572 537 C 575 558 575 558 558 567 Z" fill="lightgray" />
    
      <path d="M 572 537 Q 576 540 582 541 Q 672 563 761 589 Q 774 592 783 583 Q 790 573 788 557 Q 733 58 922 -53 Q 923 -53 927 -56 Q 963 -74 981 -64 Q 993 -58 989 -38 Q 980 40 984 122 Q 985 134 981 140 Q 974 149 970 132 Q 951 72 937 46 Q 921 18 901 40 Q 850 85 828 209 Q 809 326 831 497 Q 835 537 873 577 Q 886 590 870 603 Q 857 616 807 640 Q 791 649 748 622 Q 693 600 558 567 C 529 560 543 529 572 537 Z" fill="lightgray" />
    
      <path d="M 695 278 Q 707 311 733 400 Q 743 439 744 440 Q 734 455 711 469 Q 698 479 686 477 Q 676 473 680 462 Q 683 456 685 447 Q 694 438 662 309 L 649 271 Q 613 190 556 120 Q 552 116 549 111 Q 546 104 554 103 Q 584 103 648 188 Q 648 191 651 193 Q 664 212 676 236 L 695 278 Z" fill="lightgray" />
    
      <path d="M 676 236 Q 745 140 749 138 Q 755 137 761 142 Q 770 149 766 179 Q 763 210 695 278 L 662 309 Q 614 355 585 377 Q 581 381 577 374 Q 576 365 581 357 Q 614 318 649 271 L 676 236 Z" fill="lightgray" />
    
    
      <clipPath id="make-me-a-hanzi-clip-0">
        <path d="M 321 509 Q 429 537 432 540 Q 439 547 435 554 Q 428 564 403 569 Q 376 573 331 555 L 284 540 Q 227 527 179 520 Q 148 514 170 500 Q 203 482 272 498 L 274 498 L 321 509 Z" />
      </clipPath>
      <path clip-path="url(#make-me-a-hanzi-clip-0)" d="M 172 511 L 226 508 L 396 550 L 426 549" fill="none" id="make-me-a-hanzi-animation-0" stroke-dasharray="387 774" stroke-linecap="round" />
    
      <clipPath id="make-me-a-hanzi-clip-1">
        <path d="M 274 498 Q 253 429 193 377 Q 181 367 170 356 Q 160 347 170 347 Q 212 347 266 407 Q 308 453 321 509 L 331 555 Q 338 637 346 655 Q 352 671 338 677 Q 293 701 276 692 Q 266 688 272 675 Q 297 641 284 540 L 274 498 Z" />
      </clipPath>
      <path clip-path="url(#make-me-a-hanzi-clip-1)" d="M 280 682 L 314 656 L 310 568 L 296 495 L 281 459 L 249 410 L 214 376 L 175 352" fill="none" id="make-me-a-hanzi-animation-1" stroke-dasharray="525 1050" stroke-linecap="round" />
    
      <clipPath id="make-me-a-hanzi-clip-2">
        <path d="M 350 441 Q 369 425 391 403 Q 400 396 411 395 Q 418 395 422 405 Q 425 415 419 435 Q 412 457 347 474 Q 337 475 332 474 Q 328 471 329 463 Q 332 456 350 441 Z" />
      </clipPath>
      <path clip-path="url(#make-me-a-hanzi-clip-2)" d="M 340 466 L 391 434 L 409 409" fill="none" id="make-me-a-hanzi-animation-2" stroke-dasharray="219 438" stroke-linecap="round" />
    
      <clipPath id="make-me-a-hanzi-clip-3">
        <path d="M 403 643 Q 422 627 441 607 Q 451 598 462 599 Q 469 599 474 609 Q 477 619 470 641 Q 464 662 400 678 Q 388 679 384 678 Q 380 675 381 666 Q 384 659 403 643 Z" />
      </clipPath>
      <path clip-path="url(#make-me-a-hanzi-clip-3)" d="M 388 671 L 439 642 L 459 615" fill="none" id="make-me-a-hanzi-animation-3" stroke-dasharray="220 440" stroke-linecap="round" />
    
      <clipPath id="make-me-a-hanzi-clip-4">
        <path d="M 193 184 L 269 209 Q 276 216 271 223 Q 264 232 241 236 Q 220 237 203 230 L 155 211 Q 148 210 140 206 Q 109 197 72 191 Q 44 184 65 172 Q 98 154 144 170 Q 145 171 148 170 C 152 171 165 175 193 184 Z" />
      </clipPath>
      <path clip-path="url(#make-me-a-hanzi-clip-4)" d="M 67 182 L 115 180 L 224 216 L 261 217" fill="none" id="make-me-a-hanzi-animation-4" stroke-dasharray="328 656" stroke-linecap="round" />
    
      <clipPath id="make-me-a-hanzi-clip-5">
        <path d="M 187 162 Q 190 174 193 184 L 203 230 Q 203 233 204 234 Q 210 271 215 286 Q 222 296 218 307 Q 206 320 183 332 Q 170 341 159 338 Q 150 334 155 322 Q 170 298 155 211 L 148 170 Q 127 74 66 -8 Q 62 -12 60 -17 Q 59 -26 66 -24 Q 96 -18 147 63 Q 148 66 150 68 Q 168 101 182 144 L 187 162 Z" />
      </clipPath>
      <path clip-path="url(#make-me-a-hanzi-clip-5)" d="M 163 328 L 189 296 L 167 163 L 129 61 L 98 14 L 68 -16" fill="none" id="make-me-a-hanzi-animation-5" stroke-dasharray="512 1024" stroke-linecap="round" />
    
      <clipPath id="make-me-a-hanzi-clip-6">
        <path d="M 182 144 Q 185 138 196 126 Q 214 105 231 81 Q 238 71 249 69 Q 256 69 262 77 Q 266 86 264 107 Q 261 129 199 159 Q 192 162 187 162 C 170 164 170 164 182 144 Z" />
      </clipPath>
      <path clip-path="url(#make-me-a-hanzi-clip-6)" d="M 192 156 L 196 146 L 242 104 L 249 84" fill="none" id="make-me-a-hanzi-animation-6" stroke-dasharray="222 444" stroke-linecap="round" />
    
      <clipPath id="make-me-a-hanzi-clip-7">
        <path d="M 244 312 Q 275 267 295 263 Q 304 262 309 274 Q 310 283 305 297 Q 298 309 283 315 Q 259 328 249 330 Q 242 331 241 324 Q 240 318 244 312 Z" />
      </clipPath>
      <path clip-path="url(#make-me-a-hanzi-clip-7)" d="M 250 320 L 281 296 L 295 277" fill="none" id="make-me-a-hanzi-animation-7" stroke-dasharray="191 382" stroke-linecap="round" />
    
      <clipPath id="make-me-a-hanzi-clip-8">
        <path d="M 402 228 Q 430 237 464 245 Q 486 252 489 255 Q 495 262 491 267 Q 485 276 463 280 Q 433 284 407 267 L 362 252 Q 334 246 304 241 Q 277 234 297 223 Q 324 211 359 216 L 402 228 Z" />
      </clipPath>
      <path clip-path="url(#make-me-a-hanzi-clip-8)" d="M 299 233 L 349 231 L 444 261 L 480 263" fill="none" id="make-me-a-hanzi-animation-8" stroke-dasharray="314 628" stroke-linecap="round" />
    
      <clipPath id="make-me-a-hanzi-clip-9">
        <path d="M 393 180 L 402 228 L 407 267 Q 408 288 415 316 Q 421 332 405 340 Q 369 359 358 358 Q 343 357 354 339 Q 364 320 362 252 L 359 216 Q 359 135 290 57 Q 287 56 286 53 Q 255 26 253 22 Q 252 16 260 16 Q 284 16 331 57 Q 370 94 388 156 L 393 180 Z" />
      </clipPath>
      <path clip-path="url(#make-me-a-hanzi-clip-9)" d="M 358 348 L 375 335 L 387 315 L 384 250 L 369 154 L 346 103 L 315 61 L 259 22" fill="none" id="make-me-a-hanzi-animation-9" stroke-dasharray="511 1022" stroke-linecap="round" />
    
      <clipPath id="make-me-a-hanzi-clip-10">
        <path d="M 388 156 Q 427 114 443 110 Q 452 109 456 122 Q 457 131 451 145 Q 442 161 393 180 C 365 191 368 178 388 156 Z" />
      </clipPath>
      <path clip-path="url(#make-me-a-hanzi-clip-10)" d="M 400 172 L 405 157 L 430 141 L 444 121" fill="none" id="make-me-a-hanzi-animation-10" stroke-dasharray="198 396" stroke-linecap="round" />
    
      <clipPath id="make-me-a-hanzi-clip-11">
        <path d="M 443 353 Q 459 326 478 316 Q 487 315 493 321 Q 497 328 496 338 Q 495 351 484 360 Q 456 384 437 377 Q 433 376 434 369 Q 434 362 443 353 Z" />
      </clipPath>
      <path clip-path="url(#make-me-a-hanzi-clip-11)" d="M 443 370 L 467 351 L 482 329" fill="none" id="make-me-a-hanzi-animation-11" stroke-dasharray="185 370" stroke-linecap="round" />
    
      <clipPath id="make-me-a-hanzi-clip-12">
        <path d="M 558 567 Q 545 576 525 582 Q 507 589 497 584 Q 487 577 494 566 Q 509 548 516 491 Q 516 302 502 218 Q 498 203 495 187 Q 471 94 408 -28 Q 404 -34 403 -40 Q 402 -50 410 -47 Q 443 -35 506 92 L 521 130 Q 566 268 567 485 Q 567 512 572 537 C 575 558 575 558 558 567 Z" />
      </clipPath>
      <path clip-path="url(#make-me-a-hanzi-clip-12)" d="M 503 574 L 532 551 L 541 521 L 540 403 L 528 246 L 511 166 L 485 89 L 448 15 L 410 -40" fill="none" id="make-me-a-hanzi-animation-12" stroke-dasharray="784 1568" stroke-linecap="round" />
    
      <clipPath id="make-me-a-hanzi-clip-13">
        <path d="M 572 537 Q 576 540 582 541 Q 672 563 761 589 Q 774 592 783 583 Q 790 573 788 557 Q 733 58 922 -53 Q 923 -53 927 -56 Q 963 -74 981 -64 Q 993 -58 989 -38 Q 980 40 984 122 Q 985 134 981 140 Q 974 149 970 132 Q 951 72 937 46 Q 921 18 901 40 Q 850 85 828 209 Q 809 326 831 497 Q 835 537 873 577 Q 886 590 870 603 Q 857 616 807 640 Q 791 649 748 622 Q 693 600 558 567 C 529 560 543 529 572 537 Z" />
      </clipPath>
      <path clip-path="url(#make-me-a-hanzi-clip-13)" d="M 569 566 L 586 557 L 767 611 L 796 611 L 817 596 L 826 580 L 808 518 L 796 362 L 802 231 L 813 167 L 839 87 L 875 27 L 905 0 L 940 -11 L 944 -6 L 964 55 L 977 134" fill="none" id="make-me-a-hanzi-animation-13" stroke-dasharray="1208 2416" stroke-linecap="round" />
    
      <clipPath id="make-me-a-hanzi-clip-14">
        <path d="M 695 278 Q 707 311 733 400 Q 743 439 744 440 Q 734 455 711 469 Q 698 479 686 477 Q 676 473 680 462 Q 683 456 685 447 Q 694 438 662 309 L 649 271 Q 613 190 556 120 Q 552 116 549 111 Q 546 104 554 103 Q 584 103 648 188 Q 648 191 651 193 Q 664 212 676 236 L 695 278 Z" />
      </clipPath>
      <path clip-path="url(#make-me-a-hanzi-clip-14)" d="M 689 467 L 714 436 L 708 396 L 674 279 L 628 188 L 590 140 L 557 110" fill="none" id="make-me-a-hanzi-animation-14" stroke-dasharray="538 1076" stroke-linecap="round" />
    
      <clipPath id="make-me-a-hanzi-clip-15">
        <path d="M 676 236 Q 745 140 749 138 Q 755 137 761 142 Q 770 149 766 179 Q 763 210 695 278 L 662 309 Q 614 355 585 377 Q 581 381 577 374 Q 576 365 581 357 Q 614 318 649 271 L 676 236 Z" />
      </clipPath>
      <path clip-path="url(#make-me-a-hanzi-clip-15)" d="M 583 370 L 714 225 L 749 169 L 753 145" fill="none" id="make-me-a-hanzi-animation-15" stroke-dasharray="414 828" stroke-linecap="round" />
    
  </g>
</svg>