<svg version="1.1" viewBox="0 0 1024 1024" xmlns="http://www.w3.org/2000/svg">
  <g stroke="lightgray" stroke-dasharray="1,1" stroke-width="1" transform="scale(4, 4)">
    <line x1="0" y1="0" x2="256" y2="256"></line>
    <line x1="256" y1="0" x2="0" y2="256"></line>
    <line x1="128" y1="0" x2="128" y2="256"></line>
    <line x1="0" y1="128" x2="256" y2="128"></line>
  </g>
  <g transform="scale(0.92, -0.92) translate(60, -830)">
    <style type="text/css">
      
        @keyframes keyframes0 {
          from {
            stroke: blue;
            stroke-dashoffset: 563;
            stroke-width: 128;
          }
          65% {
            animation-timing-function: step-end;
            stroke: blue;
            stroke-dashoffset: 0;
            stroke-width: 128;
          }
          to {
            stroke: black;
            stroke-width: 1024;
          }
        }
        #make-me-a-hanzi-animation-0 {
          animation: keyframes0 0.7081705729166666s both;
          animation-delay: 0s;
          animation-timing-function: linear;
        }
      
        @keyframes keyframes1 {
          from {
            stroke: blue;
            stroke-dashoffset: 450;
            stroke-width: 128;
          }
          59% {
            animation-timing-function: step-end;
            stroke: blue;
            stroke-dashoffset: 0;
            stroke-width: 128;
          }
          to {
            stroke: black;
            stroke-width: 1024;
          }
        }
        #make-me-a-hanzi-animation-1 {
          animation: keyframes1 0.6162109375s both;
          animation-delay: 0.7081705729166666s;
          animation-timing-function: linear;
        }
      
        @keyframes keyframes2 {
          from {
            stroke: blue;
            stroke-dashoffset: 693;
            stroke-width: 128;
          }
          69% {
            animation-timing-function: step-end;
            stroke: blue;
            stroke-dashoffset: 0;
            stroke-width: 128;
          }
          to {
            stroke: black;
            stroke-width: 1024;
          }
        }
        #make-me-a-hanzi-animation-2 {
          animation: keyframes2 0.81396484375s both;
          animation-delay: 1.3243815104166665s;
          animation-timing-function: linear;
        }
      
        @keyframes keyframes3 {
          from {
            stroke: blue;
            stroke-dashoffset: 478;
            stroke-width: 128;
          }
          61% {
            animation-timing-function: step-end;
            stroke: blue;
            stroke-dashoffset: 0;
            stroke-width: 128;
          }
          to {
            stroke: black;
            stroke-width: 1024;
          }
        }
        #make-me-a-hanzi-animation-3 {
          animation: keyframes3 0.6389973958333334s both;
          animation-delay: 2.1383463541666665s;
          animation-timing-function: linear;
        }
      
        @keyframes keyframes4 {
          from {
            stroke: blue;
            stroke-dashoffset: 484;
            stroke-width: 128;
          }
          61% {
            animation-timing-function: step-end;
            stroke: blue;
            stroke-dashoffset: 0;
            stroke-width: 128;
          }
          to {
            stroke: black;
            stroke-width: 1024;
          }
        }
        #make-me-a-hanzi-animation-4 {
          animation: keyframes4 0.6438802083333334s both;
          animation-delay: 2.77734375s;
          animation-timing-function: linear;
        }
      
        @keyframes keyframes5 {
          from {
            stroke: blue;
            stroke-dashoffset: 442;
            stroke-width: 128;
          }
          59% {
            animation-timing-function: step-end;
            stroke: blue;
            stroke-dashoffset: 0;
            stroke-width: 128;
          }
          to {
            stroke: black;
            stroke-width: 1024;
          }
        }
        #make-me-a-hanzi-animation-5 {
          animation: keyframes5 0.6097005208333334s both;
          animation-delay: 3.4212239583333335s;
          animation-timing-function: linear;
        }
      
        @keyframes keyframes6 {
          from {
            stroke: blue;
            stroke-dashoffset: 479;
            stroke-width: 128;
          }
          61% {
            animation-timing-function: step-end;
            stroke: blue;
            stroke-dashoffset: 0;
            stroke-width: 128;
          }
          to {
            stroke: black;
            stroke-width: 1024;
          }
        }
        #make-me-a-hanzi-animation-6 {
          animation: keyframes6 0.6398111979166666s both;
          animation-delay: 4.030924479166667s;
          animation-timing-function: linear;
        }
      
        @keyframes keyframes7 {
          from {
            stroke: blue;
            stroke-dashoffset: 650;
            stroke-width: 128;
          }
          68% {
            animation-timing-function: step-end;
            stroke: blue;
            stroke-dashoffset: 0;
            stroke-width: 128;
          }
          to {
            stroke: black;
            stroke-width: 1024;
          }
        }
        #make-me-a-hanzi-animation-7 {
          animation: keyframes7 0.7789713541666666s both;
          animation-delay: 4.670735677083334s;
          animation-timing-function: linear;
        }
      
        @keyframes keyframes8 {
          from {
            stroke: blue;
            stroke-dashoffset: 587;
            stroke-width: 128;
          }
          66% {
            animation-timing-function: step-end;
            stroke: blue;
            stroke-dashoffset: 0;
            stroke-width: 128;
          }
          to {
            stroke: black;
            stroke-width: 1024;
          }
        }
        #make-me-a-hanzi-animation-8 {
          animation: keyframes8 0.7277018229166666s both;
          animation-delay: 5.449707031250001s;
          animation-timing-function: linear;
        }
      
        @keyframes keyframes9 {
          from {
            stroke: blue;
            stroke-dashoffset: 415;
            stroke-width: 128;
          }
          57% {
            animation-timing-function: step-end;
            stroke: blue;
            stroke-dashoffset: 0;
            stroke-width: 128;
          }
          to {
            stroke: black;
            stroke-width: 1024;
          }
        }
        #make-me-a-hanzi-animation-9 {
          animation: keyframes9 0.5877278645833334s both;
          animation-delay: 6.177408854166668s;
          animation-timing-function: linear;
        }
      
        @keyframes keyframes10 {
          from {
            stroke: blue;
            stroke-dashoffset: 371;
            stroke-width: 128;
          }
          55% {
            animation-timing-function: step-end;
            stroke: blue;
            stroke-dashoffset: 0;
            stroke-width: 128;
          }
          to {
            stroke: black;
            stroke-width: 1024;
          }
        }
        #make-me-a-hanzi-animation-10 {
          animation: keyframes10 0.5519205729166666s both;
          animation-delay: 6.765136718750001s;
          animation-timing-function: linear;
        }
      
        @keyframes keyframes11 {
          from {
            stroke: blue;
            stroke-dashoffset: 1007;
            stroke-width: 128;
          }
          77% {
            animation-timing-function: step-end;
            stroke: blue;
            stroke-dashoffset: 0;
            stroke-width: 128;
          }
          to {
            stroke: black;
            stroke-width: 1024;
          }
        }
        #make-me-a-hanzi-animation-11 {
          animation: keyframes11 1.0694986979166667s both;
          animation-delay: 7.317057291666668s;
          animation-timing-function: linear;
        }
      
        @keyframes keyframes12 {
          from {
            stroke: blue;
            stroke-dashoffset: 1468;
            stroke-width: 128;
          }
          83% {
            animation-timing-function: step-end;
            stroke: blue;
            stroke-dashoffset: 0;
            stroke-width: 128;
          }
          to {
            stroke: black;
            stroke-width: 1024;
          }
        }
        #make-me-a-hanzi-animation-12 {
          animation: keyframes12 1.4446614583333333s both;
          animation-delay: 8.386555989583334s;
          animation-timing-function: linear;
        }
      
        @keyframes keyframes13 {
          from {
            stroke: blue;
            stroke-dashoffset: 691;
            stroke-width: 128;
          }
          69% {
            animation-timing-function: step-end;
            stroke: blue;
            stroke-dashoffset: 0;
            stroke-width: 128;
          }
          to {
            stroke: black;
            stroke-width: 1024;
          }
        }
        #make-me-a-hanzi-animation-13 {
          animation: keyframes13 0.8123372395833334s both;
          animation-delay: 9.831217447916668s;
          animation-timing-function: linear;
        }
      
        @keyframes keyframes14 {
          from {
            stroke: blue;
            stroke-dashoffset: 556;
            stroke-width: 128;
          }
          64% {
            animation-timing-function: step-end;
            stroke: blue;
            stroke-dashoffset: 0;
            stroke-width: 128;
          }
          to {
            stroke: black;
            stroke-width: 1024;
          }
        }
        #make-me-a-hanzi-animation-14 {
          animation: keyframes14 0.7024739583333334s both;
          animation-delay: 10.643554687500002s;
          animation-timing-function: linear;
        }
      
    </style>
    
      <path d="M 368 687 Q 357 687 335 676 Q 276 651 120 627 Q 108 625 108 618 Q 108 611 129 604 Q 155 595 175 595 Q 179 595 184 596 L 232 605 Q 255 609 291 617 L 333 627 Q 348 631 368 635 Q 391 638 418 648 Q 431 654 431 666 Q 428 686 368 687 Z" fill="lightgray"></path>
    
      <path d="M 137 496 Q 137 497 135 499 Q 115 510 87 511 Q 76 511 76 499 Q 77 496 85 487 Q 102 474 140 351 Q 150 322 164 322 Q 174 322 175 345 L 172 368 L 160 454 Q 159 461 157 468 L 137 496 Z" fill="lightgray"></path>
    
      <path d="M 207 509 Q 166 501 137 496 C 107 491 127 463 157 468 Q 171 470 210 477 L 246 485 Q 258 487 271 490 Q 283 492 293 494 L 335 501 Q 349 503 359 503 Q 380 503 380 486 Q 374 430 367 399 L 365 368 Q 366 350 380 350 Q 386 350 429 438 Q 445 474 460 483 Q 475 489 475 503 Q 475 512 446 533 Q 416 551 403 551 Q 401 551 385 547 Q 376 544 338 535 L 294 526 Q 293 525 290 525 Q 267 520 244 516 L 207 509 Z" fill="lightgray"></path>
    
      <path d="M 184 596 Q 193 580 199 551 Q 203 535 207 509 L 210 477 Q 213 448 215 408 Q 216 390 221 379 C 231 351 241 353 245 383 Q 247 396 248 419 Q 248 444 246 485 L 244 516 Q 243 547 240 587 Q 239 598 232 605 C 214 629 171 623 184 596 Z" fill="lightgray"></path>
    
      <path d="M 338 535 Q 340 548 341 561 Q 343 592 351 610 Q 351 616 333 627 C 308 643 283 646 291 617 Q 296 602 296 587 Q 296 573 295 543 Q 295 534 294 526 L 293 494 Q 291 452 289 392 C 288 362 318 368 322 398 Q 329 451 335 501 L 338 535 Z" fill="lightgray"></path>
    
      <path d="M 175 345 Q 180 343 187 343 Q 272 355 365 368 C 395 372 396 391 367 399 Q 358 402 347 402 Q 345 402 322 398 L 289 392 Q 270 388 245 383 L 221 379 Q 200 374 172 368 C 143 362 146 352 175 345 Z" fill="lightgray"></path>
    
      <path d="M 328 318 Q 321 318 305 311 Q 266 295 160 278 Q 147 277 147 270 Q 147 263 169 256 Q 191 247 212 247 Q 219 247 233 251 Q 256 255 324 270 Q 345 274 370 284 Q 383 291 384 303 Q 381 317 328 318 Z" fill="lightgray"></path>
    
      <path d="M 408 226 Q 394 226 362 216 Q 284 191 68 167 Q 55 165 55 159 Q 55 151 77 143 Q 100 135 120 135 Q 140 135 176 142 Q 198 145 236 151 L 285 159 Q 334 167 403 178 Q 426 182 450 192 Q 463 198 464 211 Q 461 225 408 226 Z" fill="lightgray"></path>
    
      <path d="M 236 151 Q 256 122 256 98 L 256 -1 Q 256 -30 244 -30 Q 240 -30 210 -18 Q 185 -9 175 -9 Q 172 -10 171 -18 Q 197 -45 234 -96 Q 253 -121 259 -121 Q 274 -121 289 -88 Q 303 -52 303 -26 Q 303 -18 300 9 Q 299 58 299 106 Q 299 112 300 127 Q 303 134 303 138 Q 303 146 285 159 C 262 178 220 176 236 151 Z" fill="lightgray"></path>
    
      <path d="M 171 110 Q 166 110 158 89 Q 150 70 109 33 Q 72 0 72 -22 Q 72 -45 87 -45 Q 124 -45 160 3 Q 183 35 183 58 Q 183 73 181 89 Q 178 110 171 110 Z" fill="lightgray"></path>
    
      <path d="M 332 123 Q 328 123 328 119 Q 328 117 341 99 Q 361 72 373 51 Q 394 18 412 18 Q 435 18 435 54 Q 435 69 419 84 Q 403 100 371 112 Q 344 123 332 123 Z" fill="lightgray"></path>
    
      <path d="M 483 622 Q 471 622 471 610 Q 471 604 478 587 Q 500 544 500 343 Q 500 161 466 65 Q 439 -10 395 -59 Q 376 -80 376 -85 Q 376 -89 384 -89 Q 404 -89 455 -38 Q 501 15 525 105 Q 526 107 526 110 L 531 132 Q 548 220 548 391 L 548 561 C 548 591 548 591 540 596 Q 534 601 522 608 Q 499 622 483 622 Z" fill="lightgray"></path>
    
      <path d="M 548 561 Q 760 603 764 603 Q 775 603 775 587 Q 760 451 760 282 Q 760 156 799 54 Q 836 -42 899 -91 Q 940 -121 972 -121 Q 993 -121 995 -93 Q 995 -73 981 -38 Q 966 -2 951 79 Q 947 102 936 102 Q 934 102 933 76 L 927 -33 Q 926 -45 924 -45 Q 910 -45 886 -17 Q 860 8 840 75 Q 811 164 811 282 Q 811 439 819 500 Q 824 551 854 587 Q 871 605 871 610 Q 871 624 841 646 Q 804 666 787 666 Q 781 666 763 655 Q 738 638 711 632 L 540 596 C 511 590 519 555 548 561 Z" fill="lightgray"></path>
    
      <path d="M 526 110 L 531 110 Q 569 110 620 180 Q 640 210 656 244 L 684 301 Q 694 325 702 351 Q 724 426 731 444 Q 735 453 735 459 Q 735 467 711 485 Q 689 503 680 503 Q 676 503 676 489 Q 672 434 655 371 Q 653 361 649 350 L 631 296 Q 618 262 602 230 Q 568 163 536 136 Q 535 135 531 132 C 508 113 503 108 526 110 Z" fill="lightgray"></path>
    
      <path d="M 656 244 Q 665 226 672 208 Q 693 146 712 146 Q 735 146 735 198 Q 735 211 718 243 Q 705 270 684 301 L 649 350 Q 642 358 634 368 Q 583 431 571 431 Q 563 431 563 419 Q 563 415 604 346 Q 618 320 631 296 L 656 244 Z" fill="lightgray"></path>
    
    
      <clipPath id="make-me-a-hanzi-clip-0">
        <path d="M 368 687 Q 357 687 335 676 Q 276 651 120 627 Q 108 625 108 618 Q 108 611 129 604 Q 155 595 175 595 Q 179 595 184 596 L 232 605 Q 255 609 291 617 L 333 627 Q 348 631 368 635 Q 391 638 418 648 Q 431 654 431 666 Q 428 686 368 687 Z"></path>
      </clipPath>
      <path clip-path="url(#make-me-a-hanzi-clip-0)" d="M 117 619 L 141 614 L 186 617 L 278 635 L 362 660 L 418 664" fill="none" id="make-me-a-hanzi-animation-0" stroke-dasharray="435 870" stroke-linecap="round"></path>
    
      <clipPath id="make-me-a-hanzi-clip-1">
        <path d="M 137 496 Q 137 497 135 499 Q 115 510 87 511 Q 76 511 76 499 Q 77 496 85 487 Q 102 474 140 351 Q 150 322 164 322 Q 174 322 175 345 L 172 368 L 160 454 Q 159 461 157 468 L 137 496 Z"></path>
      </clipPath>
      <path clip-path="url(#make-me-a-hanzi-clip-1)" d="M 86 501 L 114 484 L 133 456 L 163 332" fill="none" id="make-me-a-hanzi-animation-1" stroke-dasharray="322 644" stroke-linecap="round"></path>
    
      <clipPath id="make-me-a-hanzi-clip-2">
        <path d="M 207 509 Q 166 501 137 496 C 107 491 127 463 157 468 Q 171 470 210 477 L 246 485 Q 258 487 271 490 Q 283 492 293 494 L 335 501 Q 349 503 359 503 Q 380 503 380 486 Q 374 430 367 399 L 365 368 Q 366 350 380 350 Q 386 350 429 438 Q 445 474 460 483 Q 475 489 475 503 Q 475 512 446 533 Q 416 551 403 551 Q 401 551 385 547 Q 376 544 338 535 L 294 526 Q 293 525 290 525 Q 267 520 244 516 L 207 509 Z"></path>
      </clipPath>
      <path clip-path="url(#make-me-a-hanzi-clip-2)" d="M 144 494 L 164 485 L 353 521 L 403 517 L 419 501 L 377 357" fill="none" id="make-me-a-hanzi-animation-2" stroke-dasharray="565 1130" stroke-linecap="round"></path>
    
      <clipPath id="make-me-a-hanzi-clip-3">
        <path d="M 184 596 Q 193 580 199 551 Q 203 535 207 509 L 210 477 Q 213 448 215 408 Q 216 390 221 379 C 231 351 241 353 245 383 Q 247 396 248 419 Q 248 444 246 485 L 244 516 Q 243 547 240 587 Q 239 598 232 605 C 214 629 171 623 184 596 Z"></path>
      </clipPath>
      <path clip-path="url(#make-me-a-hanzi-clip-3)" d="M 191 592 L 217 578 L 232 413 L 226 387" fill="none" id="make-me-a-hanzi-animation-3" stroke-dasharray="350 700" stroke-linecap="round"></path>
    
      <clipPath id="make-me-a-hanzi-clip-4">
        <path d="M 338 535 Q 340 548 341 561 Q 343 592 351 610 Q 351 616 333 627 C 308 643 283 646 291 617 Q 296 602 296 587 Q 296 573 295 543 Q 295 534 294 526 L 293 494 Q 291 452 289 392 C 288 362 318 368 322 398 Q 329 451 335 501 L 338 535 Z"></path>
      </clipPath>
      <path clip-path="url(#make-me-a-hanzi-clip-4)" d="M 340 608 L 330 608 L 320 597 L 307 413 L 293 400" fill="none" id="make-me-a-hanzi-animation-4" stroke-dasharray="356 712" stroke-linecap="round"></path>
    
      <clipPath id="make-me-a-hanzi-clip-5">
        <path d="M 175 345 Q 180 343 187 343 Q 272 355 365 368 C 395 372 396 391 367 399 Q 358 402 347 402 Q 345 402 322 398 L 289 392 Q 270 388 245 383 L 221 379 Q 200 374 172 368 C 143 362 146 352 175 345 Z"></path>
      </clipPath>
      <path clip-path="url(#make-me-a-hanzi-clip-5)" d="M 180 363 L 188 357 L 264 369 L 339 382 L 360 392" fill="none" id="make-me-a-hanzi-animation-5" stroke-dasharray="314 628" stroke-linecap="round"></path>
    
      <clipPath id="make-me-a-hanzi-clip-6">
        <path d="M 328 318 Q 321 318 305 311 Q 266 295 160 278 Q 147 277 147 270 Q 147 263 169 256 Q 191 247 212 247 Q 219 247 233 251 Q 256 255 324 270 Q 345 274 370 284 Q 383 291 384 303 Q 381 317 328 318 Z"></path>
      </clipPath>
      <path clip-path="url(#make-me-a-hanzi-clip-6)" d="M 155 271 L 222 268 L 374 301" fill="none" id="make-me-a-hanzi-animation-6" stroke-dasharray="351 702" stroke-linecap="round"></path>
    
      <clipPath id="make-me-a-hanzi-clip-7">
        <path d="M 408 226 Q 394 226 362 216 Q 284 191 68 167 Q 55 165 55 159 Q 55 151 77 143 Q 100 135 120 135 Q 140 135 176 142 Q 198 145 236 151 L 285 159 Q 334 167 403 178 Q 426 182 450 192 Q 463 198 464 211 Q 461 225 408 226 Z"></path>
      </clipPath>
      <path clip-path="url(#make-me-a-hanzi-clip-7)" d="M 64 159 L 136 155 L 454 208" fill="none" id="make-me-a-hanzi-animation-7" stroke-dasharray="522 1044" stroke-linecap="round"></path>
    
      <clipPath id="make-me-a-hanzi-clip-8">
        <path d="M 236 151 Q 256 122 256 98 L 256 -1 Q 256 -30 244 -30 Q 240 -30 210 -18 Q 185 -9 175 -9 Q 172 -10 171 -18 Q 197 -45 234 -96 Q 253 -121 259 -121 Q 274 -121 289 -88 Q 303 -52 303 -26 Q 303 -18 300 9 Q 299 58 299 106 Q 299 112 300 127 Q 303 134 303 138 Q 303 146 285 159 C 262 178 220 176 236 151 Z"></path>
      </clipPath>
      <path clip-path="url(#make-me-a-hanzi-clip-8)" d="M 243 146 L 275 132 L 279 -1 L 274 -42 L 258 -65 L 178 -16" fill="none" id="make-me-a-hanzi-animation-8" stroke-dasharray="459 918" stroke-linecap="round"></path>
    
      <clipPath id="make-me-a-hanzi-clip-9">
        <path d="M 171 110 Q 166 110 158 89 Q 150 70 109 33 Q 72 0 72 -22 Q 72 -45 87 -45 Q 124 -45 160 3 Q 183 35 183 58 Q 183 73 181 89 Q 178 110 171 110 Z"></path>
      </clipPath>
      <path clip-path="url(#make-me-a-hanzi-clip-9)" d="M 171 104 L 157 47 L 89 -27" fill="none" id="make-me-a-hanzi-animation-9" stroke-dasharray="287 574" stroke-linecap="round"></path>
    
      <clipPath id="make-me-a-hanzi-clip-10">
        <path d="M 332 123 Q 328 123 328 119 Q 328 117 341 99 Q 361 72 373 51 Q 394 18 412 18 Q 435 18 435 54 Q 435 69 419 84 Q 403 100 371 112 Q 344 123 332 123 Z"></path>
      </clipPath>
      <path clip-path="url(#make-me-a-hanzi-clip-10)" d="M 333 118 L 390 74 L 413 38" fill="none" id="make-me-a-hanzi-animation-10" stroke-dasharray="243 486" stroke-linecap="round"></path>
    
      <clipPath id="make-me-a-hanzi-clip-11">
        <path d="M 483 622 Q 471 622 471 610 Q 471 604 478 587 Q 500 544 500 343 Q 500 161 466 65 Q 439 -10 395 -59 Q 376 -80 376 -85 Q 376 -89 384 -89 Q 404 -89 455 -38 Q 501 15 525 105 Q 526 107 526 110 L 531 132 Q 548 220 548 391 L 548 561 C 548 591 548 591 540 596 Q 534 601 522 608 Q 499 622 483 622 Z"></path>
      </clipPath>
      <path clip-path="url(#make-me-a-hanzi-clip-11)" d="M 482 612 L 513 577 L 519 553 L 525 343 L 513 163 L 497 86 L 474 27 L 437 -35 L 381 -84" fill="none" id="make-me-a-hanzi-animation-11" stroke-dasharray="879 1758" stroke-linecap="round"></path>
    
      <clipPath id="make-me-a-hanzi-clip-12">
        <path d="M 548 561 Q 760 603 764 603 Q 775 603 775 587 Q 760 451 760 282 Q 760 156 799 54 Q 836 -42 899 -91 Q 940 -121 972 -121 Q 993 -121 995 -93 Q 995 -73 981 -38 Q 966 -2 951 79 Q 947 102 936 102 Q 934 102 933 76 L 927 -33 Q 926 -45 924 -45 Q 910 -45 886 -17 Q 860 8 840 75 Q 811 164 811 282 Q 811 439 819 500 Q 824 551 854 587 Q 871 605 871 610 Q 871 624 841 646 Q 804 666 787 666 Q 781 666 763 655 Q 738 638 711 632 L 540 596 C 511 590 519 555 548 561 Z"></path>
      </clipPath>
      <path clip-path="url(#make-me-a-hanzi-clip-12)" d="M 549 592 L 563 581 L 588 585 L 770 629 L 792 629 L 813 613 L 793 508 L 787 419 L 786 256 L 796 152 L 822 54 L 855 -13 L 899 -61 L 922 -74 L 939 -76 L 952 -73 L 954 -57 L 940 98" fill="none" id="make-me-a-hanzi-animation-12" stroke-dasharray="1340 2680" stroke-linecap="round"></path>
    
      <clipPath id="make-me-a-hanzi-clip-13">
        <path d="M 526 110 L 531 110 Q 569 110 620 180 Q 640 210 656 244 L 684 301 Q 694 325 702 351 Q 724 426 731 444 Q 735 453 735 459 Q 735 467 711 485 Q 689 503 680 503 Q 676 503 676 489 Q 672 434 655 371 Q 653 361 649 350 L 631 296 Q 618 262 602 230 Q 568 163 536 136 Q 535 135 531 132 C 508 113 503 108 526 110 Z"></path>
      </clipPath>
      <path clip-path="url(#make-me-a-hanzi-clip-13)" d="M 682 495 L 701 450 L 682 368 L 654 289 L 588 168 L 568 144 L 529 115" fill="none" id="make-me-a-hanzi-animation-13" stroke-dasharray="563 1126" stroke-linecap="round"></path>
    
      <clipPath id="make-me-a-hanzi-clip-14">
        <path d="M 656 244 Q 665 226 672 208 Q 693 146 712 146 Q 735 146 735 198 Q 735 211 718 243 Q 705 270 684 301 L 649 350 Q 642 358 634 368 Q 583 431 571 431 Q 563 431 563 419 Q 563 415 604 346 Q 618 320 631 296 L 656 244 Z"></path>
      </clipPath>
      <path clip-path="url(#make-me-a-hanzi-clip-14)" d="M 571 422 L 637 332 L 686 247 L 705 202 L 713 161" fill="none" id="make-me-a-hanzi-animation-14" stroke-dasharray="428 856" stroke-linecap="round"></path>
    
  </g>
</svg>