<svg version="1.1" viewBox="0 0 1024 1024" xmlns="http://www.w3.org/2000/svg">
  <g stroke="lightgray" stroke-dasharray="1,1" stroke-width="1" transform="scale(4, 4)">
    <line x1="0" y1="0" x2="256" y2="256"></line>
    <line x1="256" y1="0" x2="0" y2="256"></line>
    <line x1="128" y1="0" x2="128" y2="256"></line>
    <line x1="0" y1="128" x2="256" y2="128"></line>
  </g>
  <g transform="scale(0.92, -0.92) translate(60, -830)">
    <style type="text/css">
      
        @keyframes keyframes0 {
          from {
            stroke: blue;
            stroke-dashoffset: 820;
            stroke-width: 128;
          }
          73% {
            animation-timing-function: step-end;
            stroke: blue;
            stroke-dashoffset: 0;
            stroke-width: 128;
          }
          to {
            stroke: black;
            stroke-width: 1024;
          }
        }
        #make-me-a-hanzi-animation-0 {
          animation: keyframes0 0.9173177083333334s both;
          animation-delay: 0s;
          animation-timing-function: linear;
        }
      
        @keyframes keyframes1 {
          from {
            stroke: blue;
            stroke-dashoffset: 398;
            stroke-width: 128;
          }
          56% {
            animation-timing-function: step-end;
            stroke: blue;
            stroke-dashoffset: 0;
            stroke-width: 128;
          }
          to {
            stroke: black;
            stroke-width: 1024;
          }
        }
        #make-me-a-hanzi-animation-1 {
          animation: keyframes1 0.5738932291666666s both;
          animation-delay: 0.9173177083333334s;
          animation-timing-function: linear;
        }
      
        @keyframes keyframes2 {
          from {
            stroke: blue;
            stroke-dashoffset: 415;
            stroke-width: 128;
          }
          57% {
            animation-timing-function: step-end;
            stroke: blue;
            stroke-dashoffset: 0;
            stroke-width: 128;
          }
          to {
            stroke: black;
            stroke-width: 1024;
          }
        }
        #make-me-a-hanzi-animation-2 {
          animation: keyframes2 0.5877278645833334s both;
          animation-delay: 1.4912109375s;
          animation-timing-function: linear;
        }
      
        @keyframes keyframes3 {
          from {
            stroke: blue;
            stroke-dashoffset: 644;
            stroke-width: 128;
          }
          68% {
            animation-timing-function: step-end;
            stroke: blue;
            stroke-dashoffset: 0;
            stroke-width: 128;
          }
          to {
            stroke: black;
            stroke-width: 1024;
          }
        }
        #make-me-a-hanzi-animation-3 {
          animation: keyframes3 0.7740885416666666s both;
          animation-delay: 2.0789388020833335s;
          animation-timing-function: linear;
        }
      
        @keyframes keyframes4 {
          from {
            stroke: blue;
            stroke-dashoffset: 389;
            stroke-width: 128;
          }
          56% {
            animation-timing-function: step-end;
            stroke: blue;
            stroke-dashoffset: 0;
            stroke-width: 128;
          }
          to {
            stroke: black;
            stroke-width: 1024;
          }
        }
        #make-me-a-hanzi-animation-4 {
          animation: keyframes4 0.5665690104166666s both;
          animation-delay: 2.85302734375s;
          animation-timing-function: linear;
        }
      
        @keyframes keyframes5 {
          from {
            stroke: blue;
            stroke-dashoffset: 384;
            stroke-width: 128;
          }
          56% {
            animation-timing-function: step-end;
            stroke: blue;
            stroke-dashoffset: 0;
            stroke-width: 128;
          }
          to {
            stroke: black;
            stroke-width: 1024;
          }
        }
        #make-me-a-hanzi-animation-5 {
          animation: keyframes5 0.5625s both;
          animation-delay: 3.4195963541666665s;
          animation-timing-function: linear;
        }
      
        @keyframes keyframes6 {
          from {
            stroke: blue;
            stroke-dashoffset: 846;
            stroke-width: 128;
          }
          73% {
            animation-timing-function: step-end;
            stroke: blue;
            stroke-dashoffset: 0;
            stroke-width: 128;
          }
          to {
            stroke: black;
            stroke-width: 1024;
          }
        }
        #make-me-a-hanzi-animation-6 {
          animation: keyframes6 0.9384765625s both;
          animation-delay: 3.9820963541666665s;
          animation-timing-function: linear;
        }
      
        @keyframes keyframes7 {
          from {
            stroke: blue;
            stroke-dashoffset: 393;
            stroke-width: 128;
          }
          56% {
            animation-timing-function: step-end;
            stroke: blue;
            stroke-dashoffset: 0;
            stroke-width: 128;
          }
          to {
            stroke: black;
            stroke-width: 1024;
          }
        }
        #make-me-a-hanzi-animation-7 {
          animation: keyframes7 0.56982421875s both;
          animation-delay: 4.920572916666666s;
          animation-timing-function: linear;
        }
      
        @keyframes keyframes8 {
          from {
            stroke: blue;
            stroke-dashoffset: 611;
            stroke-width: 128;
          }
          67% {
            animation-timing-function: step-end;
            stroke: blue;
            stroke-dashoffset: 0;
            stroke-width: 128;
          }
          to {
            stroke: black;
            stroke-width: 1024;
          }
        }
        #make-me-a-hanzi-animation-8 {
          animation: keyframes8 0.7472330729166666s both;
          animation-delay: 5.490397135416666s;
          animation-timing-function: linear;
        }
      
        @keyframes keyframes9 {
          from {
            stroke: blue;
            stroke-dashoffset: 695;
            stroke-width: 128;
          }
          69% {
            animation-timing-function: step-end;
            stroke: blue;
            stroke-dashoffset: 0;
            stroke-width: 128;
          }
          to {
            stroke: black;
            stroke-width: 1024;
          }
        }
        #make-me-a-hanzi-animation-9 {
          animation: keyframes9 0.8155924479166666s both;
          animation-delay: 6.237630208333333s;
          animation-timing-function: linear;
        }
      
        @keyframes keyframes10 {
          from {
            stroke: blue;
            stroke-dashoffset: 863;
            stroke-width: 128;
          }
          74% {
            animation-timing-function: step-end;
            stroke: blue;
            stroke-dashoffset: 0;
            stroke-width: 128;
          }
          to {
            stroke: black;
            stroke-width: 1024;
          }
        }
        #make-me-a-hanzi-animation-10 {
          animation: keyframes10 0.9523111979166666s both;
          animation-delay: 7.05322265625s;
          animation-timing-function: linear;
        }
      
        @keyframes keyframes11 {
          from {
            stroke: blue;
            stroke-dashoffset: 721;
            stroke-width: 128;
          }
          70% {
            animation-timing-function: step-end;
            stroke: blue;
            stroke-dashoffset: 0;
            stroke-width: 128;
          }
          to {
            stroke: black;
            stroke-width: 1024;
          }
        }
        #make-me-a-hanzi-animation-11 {
          animation: keyframes11 0.8367513020833334s both;
          animation-delay: 8.005533854166666s;
          animation-timing-function: linear;
        }
      
    </style>
    
      <path d="M 230 404 L 238 415 Q 242 420 251 435 L 270 466 L 284 491 L 302 528 Q 308 538 323 570 Q 338 602 340 607 Q 342 612 350 626 L 360 644 L 370 660 Q 371 661 371 662 Q 371 665 366 672 Q 359 682 351 689 Q 344 696 335 701 Q 326 707 317 711 Q 310 715 304 715 L 302 715 Q 296 714 292 710 Q 290 706 290 695 Q 291 684 291 680 Q 290 670 287 650 Q 284 632 278 612 Q 272 594 258 558 L 229 496 Q 216 468 198 440 Q 182 412 164 388 L 126 338 Q 106 312 91 296 L 62 268 L 45 251 Q 36 241 36 237 Q 36 233 40 231 Q 41 230 43 230 Q 47 230 55 236 L 77 250 Q 92 258 108 272 Q 125 284 146 305 Q 168 326 179 339 L 200 364 L 230 404 Z" fill="lightgray"></path>
    
      <path d="M 350 626 L 364 613 L 404 579 L 434 551 Q 446 540 454 535 Q 460 531 465 531 Q 468 531 470 532 Q 480 533 484 544 Q 489 552 489 562 Q 489 566 488 569 Q 486 583 478 594 Q 470 604 452 612 Q 433 621 408 629 Q 382 638 375 640 Q 368 642 360 644 C 331 651 328 646 350 626 Z" fill="lightgray"></path>
    
      <path d="M 270 466 L 294 461 L 297 461 Q 303 461 324 464 Q 352 469 360 472 L 396 480 Q 414 484 418 486 L 433 492 Q 441 494 441 499 Q 440 504 434 510 Q 428 515 415 519 Q 403 522 394 522 Q 388 521 376 516 Q 364 511 351 507 L 329 500 Q 320 498 306 496 L 284 491 C 255 484 241 472 270 466 Z" fill="lightgray"></path>
    
      <path d="M 370 184 L 376 170 Q 380 158 389 157 L 391 157 Q 399 157 404 164 Q 410 172 414 182 Q 416 190 420 208 L 440 308 Q 443 322 446 333 Q 450 344 454 352 Q 457 360 462 368 Q 467 374 468 378 Q 468 384 458 393 Q 448 402 436 410 Q 424 418 411 424 Q 398 430 392 430 Q 389 430 382 426 L 362 419 L 334 409 L 305 401 Q 288 396 280 394 Q 273 393 256 390 C 226 385 237 356 266 362 L 350 378 L 374 382 Q 379 383 383 383 Q 386 383 388 382 Q 392 379 393 373 Q 394 368 394 362 L 393 337 L 390 310 L 388 288 L 382 250 Q 380 244 376 212 C 372 182 368 188 370 184 Z" fill="lightgray"></path>
    
      <path d="M 390 310 L 376 316 Q 373 317 361 320 Q 349 322 345 322 Q 341 322 332 318 L 312 310 Q 302 307 286 304 Q 270 300 266 300 Q 262 298 252 296 C 223 290 220 263 250 266 L 272 268 Q 274 268 304 272 L 362 282 L 388 288 C 417 295 418 298 390 310 Z" fill="lightgray"></path>
    
      <path d="M 243 160 L 258 162 L 276 166 L 370 184 C 399 190 405 203 376 212 L 363 216 Q 358 217 353 217 L 348 217 Q 346 216 335 214 L 318 210 L 290 202 L 244 192 C 215 186 213 156 243 160 Z" fill="lightgray"></path>
    
      <path d="M 200 364 L 206 318 L 206 287 L 200 103 Q 199 76 198 62 Q 196 48 192 26 Q 188 4 184 -7 Q 179 -17 179 -20 L 179 -25 Q 179 -30 180 -35 Q 184 -42 191 -56 Q 198 -71 204 -76 Q 211 -84 216 -84 Q 222 -84 231 -74 L 258 -45 Q 276 -26 290 -16 L 392 58 C 416 76 409 87 381 76 L 278 34 L 260 28 Q 249 23 244 23 Q 243 23 242 24 Q 238 27 238 36 L 240 52 L 243 160 L 244 192 L 250 266 L 252 296 L 253 300 L 256 315 Q 256 322 259 334 L 266 362 C 271 382 271 382 256 390 L 248 395 L 230 404 C 203 417 196 394 200 364 Z" fill="lightgray"></path>
    
      <path d="M 392 58 L 398 48 Q 406 35 416 24 Q 428 10 436 10 L 438 10 Q 446 12 452 20 Q 458 28 458 45 Q 457 62 450 78 Q 442 92 428 104 Q 414 114 403 120 Q 392 125 382 128 L 368 133 Q 363 134 359 134 Q 355 134 353 132 Q 352 130 352 128 Q 352 125 354 122 L 381 76 L 392 58 Z" fill="lightgray"></path>
    
      <path d="M 648 458 L 664 466 Q 683 476 688 479 L 736 507 Q 742 510 756 518 Q 770 526 777 529 Q 783 532 795 536 Q 807 539 808 544 L 808 546 Q 808 550 805 556 Q 801 564 785 574 Q 769 584 757 590 Q 744 596 732 598 Q 727 599 724 599 Q 718 599 716 597 Q 712 594 708 580 Q 704 566 690 550 Q 676 534 654 516 Q 633 498 595 476 L 536 442 Q 512 428 504 424 L 485 415 Q 478 411 478 406 Q 478 405 479 403 Q 482 399 488 399 Q 491 399 496 400 L 520 408 Q 532 411 557 420 Q 582 430 588 432 Q 594 435 601 438 L 648 458 Z" fill="lightgray"></path>
    
      <path d="M 666 286 L 696 290 Q 739 296 768 299 L 824 305 L 850 308 Q 892 312 898 314 Q 902 316 904 321 L 904 322 Q 904 326 892 335 Q 880 346 871 350 Q 862 354 847 358 Q 832 363 826 363 Q 822 362 808 358 Q 794 354 756 346 L 701 334 Q 691 332 672 330 L 616 320 L 595 316 Q 582 313 558 309 Q 534 304 510 302 Q 486 300 480 299 L 463 296 Q 459 295 459 291 L 459 289 Q 460 284 475 273 Q 491 262 497 260 Q 503 257 515 255 Q 522 253 526 253 Q 530 253 532 254 Q 535 254 544 257 Q 554 261 574 266 L 592 272 Q 598 273 613 276 L 666 286 Z" fill="lightgray"></path>
    
      <path d="M 664 262 L 666 286 L 672 330 L 675 353 L 678 386 Q 680 396 682 403 Q 684 410 688 417 Q 690 424 691 427 Q 691 436 681 442 Q 671 449 665 452 Q 660 454 648 458 C 620 468 586 464 601 438 L 610 422 Q 618 410 619 392 L 619 381 Q 619 370 618 360 Q 618 344 616 320 L 613 276 L 610 253 Q 608 248 602 221 Q 596 194 583 160 Q 570 126 555 98 Q 539 70 506 34 Q 474 -2 453 -18 L 425 -41 L 416 -49 Q 409 -54 409 -58 Q 409 -60 411 -62 Q 414 -65 418 -65 Q 420 -65 422 -64 L 435 -59 Q 446 -55 466 -45 Q 486 -35 514 -14 Q 542 6 560 27 Q 580 48 596 73 Q 612 98 625 128 Q 638 158 644 178 Q 650 198 654 218 L 664 262 Z" fill="lightgray"></path>
    
      <path d="M 654 218 L 663 200 L 682 158 Q 694 131 721 84 Q 748 38 757 21 Q 766 4 776 -12 Q 786 -30 800 -47 Q 814 -64 826 -71 Q 836 -76 863 -76 L 872 -76 L 921 -73 Q 938 -72 953 -68 L 977 -64 Q 988 -62 988 -57 Q 988 -52 987 -49 Q 985 -46 980 -44 L 949 -30 Q 926 -21 903 -8 Q 880 4 859 20 Q 838 36 818 54 Q 798 73 778 96 Q 758 119 730 157 Q 702 195 690 214 Q 678 234 674 242 L 664 262 C 651 289 641 245 654 218 Z" fill="lightgray"></path>
    
    
      <clipPath id="make-me-a-hanzi-clip-0">
        <path d="M 230 404 L 238 415 Q 242 420 251 435 L 270 466 L 284 491 L 302 528 Q 308 538 323 570 Q 338 602 340 607 Q 342 612 350 626 L 360 644 L 370 660 Q 371 661 371 662 Q 371 665 366 672 Q 359 682 351 689 Q 344 696 335 701 Q 326 707 317 711 Q 310 715 304 715 L 302 715 Q 296 714 292 710 Q 290 706 290 695 Q 291 684 291 680 Q 290 670 287 650 Q 284 632 278 612 Q 272 594 258 558 L 229 496 Q 216 468 198 440 Q 182 412 164 388 L 126 338 Q 106 312 91 296 L 62 268 L 45 251 Q 36 241 36 237 Q 36 233 40 231 Q 41 230 43 230 Q 47 230 55 236 L 77 250 Q 92 258 108 272 Q 125 284 146 305 Q 168 326 179 339 L 200 364 L 230 404 Z"></path>
      </clipPath>
      <path clip-path="url(#make-me-a-hanzi-clip-0)" d="M 303 701 L 326 661 L 302 591 L 252 484 L 194 392 L 140 324 L 43 237" fill="none" id="make-me-a-hanzi-animation-0" stroke-dasharray="692 1384" stroke-linecap="round"></path>
    
      <clipPath id="make-me-a-hanzi-clip-1">
        <path d="M 350 626 L 364 613 L 404 579 L 434 551 Q 446 540 454 535 Q 460 531 465 531 Q 468 531 470 532 Q 480 533 484 544 Q 489 552 489 562 Q 489 566 488 569 Q 486 583 478 594 Q 470 604 452 612 Q 433 621 408 629 Q 382 638 375 640 Q 368 642 360 644 C 331 651 328 646 350 626 Z"></path>
      </clipPath>
      <path clip-path="url(#make-me-a-hanzi-clip-1)" d="M 358 627 L 367 629 L 446 582 L 462 562 L 464 547" fill="none" id="make-me-a-hanzi-animation-1" stroke-dasharray="270 540" stroke-linecap="round"></path>
    
      <clipPath id="make-me-a-hanzi-clip-2">
        <path d="M 270 466 L 294 461 L 297 461 Q 303 461 324 464 Q 352 469 360 472 L 396 480 Q 414 484 418 486 L 433 492 Q 441 494 441 499 Q 440 504 434 510 Q 428 515 415 519 Q 403 522 394 522 Q 388 521 376 516 Q 364 511 351 507 L 329 500 Q 320 498 306 496 L 284 491 C 255 484 241 472 270 466 Z"></path>
      </clipPath>
      <path clip-path="url(#make-me-a-hanzi-clip-2)" d="M 277 470 L 396 501 L 432 501" fill="none" id="make-me-a-hanzi-animation-2" stroke-dasharray="287 574" stroke-linecap="round"></path>
    
      <clipPath id="make-me-a-hanzi-clip-3">
        <path d="M 370 184 L 376 170 Q 380 158 389 157 L 391 157 Q 399 157 404 164 Q 410 172 414 182 Q 416 190 420 208 L 440 308 Q 443 322 446 333 Q 450 344 454 352 Q 457 360 462 368 Q 467 374 468 378 Q 468 384 458 393 Q 448 402 436 410 Q 424 418 411 424 Q 398 430 392 430 Q 389 430 382 426 L 362 419 L 334 409 L 305 401 Q 288 396 280 394 Q 273 393 256 390 C 226 385 237 356 266 362 L 350 378 L 374 382 Q 379 383 383 383 Q 386 383 388 382 Q 392 379 393 373 Q 394 368 394 362 L 393 337 L 390 310 L 388 288 L 382 250 Q 380 244 376 212 C 372 182 368 188 370 184 Z"></path>
      </clipPath>
      <path clip-path="url(#make-me-a-hanzi-clip-3)" d="M 264 385 L 284 379 L 397 405 L 424 381 L 425 360 L 390 169" fill="none" id="make-me-a-hanzi-animation-3" stroke-dasharray="516 1032" stroke-linecap="round"></path>
    
      <clipPath id="make-me-a-hanzi-clip-4">
        <path d="M 390 310 L 376 316 Q 373 317 361 320 Q 349 322 345 322 Q 341 322 332 318 L 312 310 Q 302 307 286 304 Q 270 300 266 300 Q 262 298 252 296 C 223 290 220 263 250 266 L 272 268 Q 274 268 304 272 L 362 282 L 388 288 C 417 295 418 298 390 310 Z"></path>
      </clipPath>
      <path clip-path="url(#make-me-a-hanzi-clip-4)" d="M 255 273 L 272 285 L 344 301 L 373 301 L 380 294" fill="none" id="make-me-a-hanzi-animation-4" stroke-dasharray="261 522" stroke-linecap="round"></path>
    
      <clipPath id="make-me-a-hanzi-clip-5">
        <path d="M 243 160 L 258 162 L 276 166 L 370 184 C 399 190 405 203 376 212 L 363 216 Q 358 217 353 217 L 348 217 Q 346 216 335 214 L 318 210 L 290 202 L 244 192 C 215 186 213 156 243 160 Z"></path>
      </clipPath>
      <path clip-path="url(#make-me-a-hanzi-clip-5)" d="M 250 165 L 260 179 L 367 207" fill="none" id="make-me-a-hanzi-animation-5" stroke-dasharray="256 512" stroke-linecap="round"></path>
    
      <clipPath id="make-me-a-hanzi-clip-6">
        <path d="M 200 364 L 206 318 L 206 287 L 200 103 Q 199 76 198 62 Q 196 48 192 26 Q 188 4 184 -7 Q 179 -17 179 -20 L 179 -25 Q 179 -30 180 -35 Q 184 -42 191 -56 Q 198 -71 204 -76 Q 211 -84 216 -84 Q 222 -84 231 -74 L 258 -45 Q 276 -26 290 -16 L 392 58 C 416 76 409 87 381 76 L 278 34 L 260 28 Q 249 23 244 23 Q 243 23 242 24 Q 238 27 238 36 L 240 52 L 243 160 L 244 192 L 250 266 L 252 296 L 253 300 L 256 315 Q 256 322 259 334 L 266 362 C 271 382 271 382 256 390 L 248 395 L 230 404 C 203 417 196 394 200 364 Z"></path>
      </clipPath>
      <path clip-path="url(#make-me-a-hanzi-clip-6)" d="M 231 395 L 237 373 L 231 345 L 215 29 L 226 -16 L 255 -6 L 375 61 L 382 58" fill="none" id="make-me-a-hanzi-animation-6" stroke-dasharray="718 1436" stroke-linecap="round"></path>
    
      <clipPath id="make-me-a-hanzi-clip-7">
        <path d="M 392 58 L 398 48 Q 406 35 416 24 Q 428 10 436 10 L 438 10 Q 446 12 452 20 Q 458 28 458 45 Q 457 62 450 78 Q 442 92 428 104 Q 414 114 403 120 Q 392 125 382 128 L 368 133 Q 363 134 359 134 Q 355 134 353 132 Q 352 130 352 128 Q 352 125 354 122 L 381 76 L 392 58 Z"></path>
      </clipPath>
      <path clip-path="url(#make-me-a-hanzi-clip-7)" d="M 357 129 L 418 73 L 437 22" fill="none" id="make-me-a-hanzi-animation-7" stroke-dasharray="265 530" stroke-linecap="round"></path>
    
      <clipPath id="make-me-a-hanzi-clip-8">
        <path d="M 648 458 L 664 466 Q 683 476 688 479 L 736 507 Q 742 510 756 518 Q 770 526 777 529 Q 783 532 795 536 Q 807 539 808 544 L 808 546 Q 808 550 805 556 Q 801 564 785 574 Q 769 584 757 590 Q 744 596 732 598 Q 727 599 724 599 Q 718 599 716 597 Q 712 594 708 580 Q 704 566 690 550 Q 676 534 654 516 Q 633 498 595 476 L 536 442 Q 512 428 504 424 L 485 415 Q 478 411 478 406 Q 478 405 479 403 Q 482 399 488 399 Q 491 399 496 400 L 520 408 Q 532 411 557 420 Q 582 430 588 432 Q 594 435 601 438 L 648 458 Z"></path>
      </clipPath>
      <path clip-path="url(#make-me-a-hanzi-clip-8)" d="M 798 545 L 780 553 L 740 554 L 661 490 L 559 436 L 486 407" fill="none" id="make-me-a-hanzi-animation-8" stroke-dasharray="483 966" stroke-linecap="round"></path>
    
      <clipPath id="make-me-a-hanzi-clip-9">
        <path d="M 666 286 L 696 290 Q 739 296 768 299 L 824 305 L 850 308 Q 892 312 898 314 Q 902 316 904 321 L 904 322 Q 904 326 892 335 Q 880 346 871 350 Q 862 354 847 358 Q 832 363 826 363 Q 822 362 808 358 Q 794 354 756 346 L 701 334 Q 691 332 672 330 L 616 320 L 595 316 Q 582 313 558 309 Q 534 304 510 302 Q 486 300 480 299 L 463 296 Q 459 295 459 291 L 459 289 Q 460 284 475 273 Q 491 262 497 260 Q 503 257 515 255 Q 522 253 526 253 Q 530 253 532 254 Q 535 254 544 257 Q 554 261 574 266 L 592 272 Q 598 273 613 276 L 666 286 Z"></path>
      </clipPath>
      <path clip-path="url(#make-me-a-hanzi-clip-9)" d="M 465 290 L 525 278 L 627 301 L 827 334 L 897 322" fill="none" id="make-me-a-hanzi-animation-9" stroke-dasharray="567 1134" stroke-linecap="round"></path>
    
      <clipPath id="make-me-a-hanzi-clip-10">
        <path d="M 664 262 L 666 286 L 672 330 L 675 353 L 678 386 Q 680 396 682 403 Q 684 410 688 417 Q 690 424 691 427 Q 691 436 681 442 Q 671 449 665 452 Q 660 454 648 458 C 620 468 586 464 601 438 L 610 422 Q 618 410 619 392 L 619 381 Q 619 370 618 360 Q 618 344 616 320 L 613 276 L 610 253 Q 608 248 602 221 Q 596 194 583 160 Q 570 126 555 98 Q 539 70 506 34 Q 474 -2 453 -18 L 425 -41 L 416 -49 Q 409 -54 409 -58 Q 409 -60 411 -62 Q 414 -65 418 -65 Q 420 -65 422 -64 L 435 -59 Q 446 -55 466 -45 Q 486 -35 514 -14 Q 542 6 560 27 Q 580 48 596 73 Q 612 98 625 128 Q 638 158 644 178 Q 650 198 654 218 L 664 262 Z"></path>
      </clipPath>
      <path clip-path="url(#make-me-a-hanzi-clip-10)" d="M 608 437 L 650 419 L 638 260 L 610 158 L 586 104 L 557 58 L 497 -5 L 417 -57" fill="none" id="make-me-a-hanzi-animation-10" stroke-dasharray="735 1470" stroke-linecap="round"></path>
    
      <clipPath id="make-me-a-hanzi-clip-11">
        <path d="M 654 218 L 663 200 L 682 158 Q 694 131 721 84 Q 748 38 757 21 Q 766 4 776 -12 Q 786 -30 800 -47 Q 814 -64 826 -71 Q 836 -76 863 -76 L 872 -76 L 921 -73 Q 938 -72 953 -68 L 977 -64 Q 988 -62 988 -57 Q 988 -52 987 -49 Q 985 -46 980 -44 L 949 -30 Q 926 -21 903 -8 Q 880 4 859 20 Q 838 36 818 54 Q 798 73 778 96 Q 758 119 730 157 Q 702 195 690 214 Q 678 234 674 242 L 664 262 C 651 289 641 245 654 218 Z"></path>
      </clipPath>
      <path clip-path="url(#make-me-a-hanzi-clip-11)" d="M 667 245 L 669 220 L 729 117 L 830 -14 L 856 -32 L 978 -54" fill="none" id="make-me-a-hanzi-animation-11" stroke-dasharray="593 1186" stroke-linecap="round"></path>
    
  </g>
</svg>