<svg version="1.1" viewBox="0 0 1024 1024" xmlns="http://www.w3.org/2000/svg">
  <g stroke="lightgray" stroke-dasharray="1,1" stroke-width="1" transform="scale(4, 4)">
    <line x1="0" y1="0" x2="256" y2="256"></line>
    <line x1="256" y1="0" x2="0" y2="256"></line>
    <line x1="128" y1="0" x2="128" y2="256"></line>
    <line x1="0" y1="128" x2="256" y2="128"></line>
  </g>
  <g transform="scale(0.92, -0.92) translate(60, -830)">
    <style type="text/css">
      
        @keyframes keyframes0 {
          from {
            stroke: blue;
            stroke-dashoffset: 752;
            stroke-width: 128;
          }
          71% {
            animation-timing-function: step-end;
            stroke: blue;
            stroke-dashoffset: 0;
            stroke-width: 128;
          }
          to {
            stroke: black;
            stroke-width: 1024;
          }
        }
        #make-me-a-hanzi-animation-0 {
          animation: keyframes0 0.8619791666666666s both;
          animation-delay: 0s;
          animation-timing-function: linear;
        }
      
        @keyframes keyframes1 {
          from {
            stroke: blue;
            stroke-dashoffset: 526;
            stroke-width: 128;
          }
          63% {
            animation-timing-function: step-end;
            stroke: blue;
            stroke-dashoffset: 0;
            stroke-width: 128;
          }
          to {
            stroke: black;
            stroke-width: 1024;
          }
        }
        #make-me-a-hanzi-animation-1 {
          animation: keyframes1 0.6780598958333334s both;
          animation-delay: 0.8619791666666666s;
          animation-timing-function: linear;
        }
      
        @keyframes keyframes2 {
          from {
            stroke: blue;
            stroke-dashoffset: 739;
            stroke-width: 128;
          }
          71% {
            animation-timing-function: step-end;
            stroke: blue;
            stroke-dashoffset: 0;
            stroke-width: 128;
          }
          to {
            stroke: black;
            stroke-width: 1024;
          }
        }
        #make-me-a-hanzi-animation-2 {
          animation: keyframes2 0.8513997395833334s both;
          animation-delay: 1.5400390625s;
          animation-timing-function: linear;
        }
      
        @keyframes keyframes3 {
          from {
            stroke: blue;
            stroke-dashoffset: 914;
            stroke-width: 128;
          }
          75% {
            animation-timing-function: step-end;
            stroke: blue;
            stroke-dashoffset: 0;
            stroke-width: 128;
          }
          to {
            stroke: black;
            stroke-width: 1024;
          }
        }
        #make-me-a-hanzi-animation-3 {
          animation: keyframes3 0.9938151041666666s both;
          animation-delay: 2.3914388020833335s;
          animation-timing-function: linear;
        }
      
        @keyframes keyframes4 {
          from {
            stroke: blue;
            stroke-dashoffset: 1373;
            stroke-width: 128;
          }
          82% {
            animation-timing-function: step-end;
            stroke: blue;
            stroke-dashoffset: 0;
            stroke-width: 128;
          }
          to {
            stroke: black;
            stroke-width: 1024;
          }
        }
        #make-me-a-hanzi-animation-4 {
          animation: keyframes4 1.3673502604166667s both;
          animation-delay: 3.38525390625s;
          animation-timing-function: linear;
        }
      
    </style>
    
      <path d="M 248 698 Q 236 698 236 687 Q 240 671 240 650 Q 240 604 208 521 Q 162 407 79 301 Q 55 271 55 266 Q 55 263 59 263 Q 82 263 146 333 Q 199 392 236 459 L 251 486 Q 262 508 271 531 Q 304 611 313 624 Q 319 635 319 639 Q 319 650 288 679 Q 255 698 248 698 Z" fill="lightgray"></path>
    
      <path d="M 236 459 Q 251 450 259 450 Q 262 450 324 475 Q 336 475 336 463 Q 296 376 296 371 Q 296 366 299 366 Q 370 439 418 467 Q 439 477 439 482 Q 439 494 412 520 Q 386 543 372 543 Q 368 543 360 537 Q 331 514 304 503 Q 281 491 252 486 L 251 486 C 221 481 210 473 236 459 Z" fill="lightgray"></path>
    
      <path d="M 215 339 Q 204 339 204 331 Q 204 325 209 307 Q 219 281 219 226 Q 219 68 207 45 Q 201 31 174 13 Q 160 2 160 -5 Q 160 -8 168 -27 Q 184 -66 200 -66 Q 209 -66 237 -26 Q 280 18 337 76 Q 376 112 376 123 Q 376 131 368 131 Q 365 131 289 78 Q 273 64 256 51 Q 257 57 258 66 Q 267 122 267 226 Q 267 254 269 267 Q 271 282 271 287 Q 271 301 252 318 Q 229 339 215 339 Z" fill="lightgray"></path>
    
      <path d="M 460 559 Q 447 559 447 547 Q 447 546 458 526 Q 479 476 479 379 Q 479 215 437 117 Q 404 38 349 -13 Q 328 -34 328 -37 Q 328 -41 336 -41 Q 392 -39 461 60 Q 529 164 529 398 Q 531 478 536 493 Q 538 499 539 503 C 543 518 543 518 525 529 Q 517 535 503 542 Q 472 559 460 559 Z" fill="lightgray"></path>
    
      <path d="M 539 503 Q 662 526 668 526 Q 672 526 672 519 Q 651 293 651 131 Q 651 21 692 -13 Q 734 -53 817 -53 Q 887 -53 933 -23 Q 959 -3 959 18 Q 959 23 944 36 Q 920 69 911 161 Q 909 194 899 194 Q 897 194 885 69 Q 881 40 865 26 Q 850 14 809 14 Q 749 14 730 35 Q 708 57 708 131 Q 708 266 722 400 Q 733 493 770 519 Q 783 530 783 534 Q 783 543 743 566 Q 706 591 691 591 Q 683 591 670 578 Q 647 561 611 550 L 525 529 C 496 522 510 498 539 503 Z" fill="lightgray"></path>
    
    
      <clipPath id="make-me-a-hanzi-clip-0">
        <path d="M 248 698 Q 236 698 236 687 Q 240 671 240 650 Q 240 604 208 521 Q 162 407 79 301 Q 55 271 55 266 Q 55 263 59 263 Q 82 263 146 333 Q 199 392 236 459 L 251 486 Q 262 508 271 531 Q 304 611 313 624 Q 319 635 319 639 Q 319 650 288 679 Q 255 698 248 698 Z"></path>
      </clipPath>
      <path clip-path="url(#make-me-a-hanzi-clip-0)" d="M 246 688 L 267 663 L 277 637 L 235 514 L 182 413 L 127 334 L 59 268" fill="none" id="make-me-a-hanzi-animation-0" stroke-dasharray="624 1248" stroke-linecap="round"></path>
    
      <clipPath id="make-me-a-hanzi-clip-1">
        <path d="M 236 459 Q 251 450 259 450 Q 262 450 324 475 Q 336 475 336 463 Q 296 376 296 371 Q 296 366 299 366 Q 370 439 418 467 Q 439 477 439 482 Q 439 494 412 520 Q 386 543 372 543 Q 368 543 360 537 Q 331 514 304 503 Q 281 491 252 486 L 251 486 C 221 481 210 473 236 459 Z"></path>
      </clipPath>
      <path clip-path="url(#make-me-a-hanzi-clip-1)" d="M 246 462 L 329 494 L 373 491 L 365 464 L 306 383 L 306 374" fill="none" id="make-me-a-hanzi-animation-1" stroke-dasharray="398 796" stroke-linecap="round"></path>
    
      <clipPath id="make-me-a-hanzi-clip-2">
        <path d="M 215 339 Q 204 339 204 331 Q 204 325 209 307 Q 219 281 219 226 Q 219 68 207 45 Q 201 31 174 13 Q 160 2 160 -5 Q 160 -8 168 -27 Q 184 -66 200 -66 Q 209 -66 237 -26 Q 280 18 337 76 Q 376 112 376 123 Q 376 131 368 131 Q 365 131 289 78 Q 273 64 256 51 Q 257 57 258 66 Q 267 122 267 226 Q 267 254 269 267 Q 271 282 271 287 Q 271 301 252 318 Q 229 339 215 339 Z"></path>
      </clipPath>
      <path clip-path="url(#make-me-a-hanzi-clip-2)" d="M 215 328 L 232 308 L 244 276 L 242 135 L 233 47 L 239 22 L 270 35 L 308 75 L 338 92 L 369 124" fill="none" id="make-me-a-hanzi-animation-2" stroke-dasharray="611 1222" stroke-linecap="round"></path>
    
      <clipPath id="make-me-a-hanzi-clip-3">
        <path d="M 460 559 Q 447 559 447 547 Q 447 546 458 526 Q 479 476 479 379 Q 479 215 437 117 Q 404 38 349 -13 Q 328 -34 328 -37 Q 328 -41 336 -41 Q 392 -39 461 60 Q 529 164 529 398 Q 531 478 536 493 Q 538 499 539 503 C 543 518 543 518 525 529 Q 517 535 503 542 Q 472 559 460 559 Z"></path>
      </clipPath>
      <path clip-path="url(#make-me-a-hanzi-clip-3)" d="M 457 548 L 484 527 L 502 497 L 504 347 L 487 194 L 459 106 L 427 47 L 385 -2 L 334 -35" fill="none" id="make-me-a-hanzi-animation-3" stroke-dasharray="786 1572" stroke-linecap="round"></path>
    
      <clipPath id="make-me-a-hanzi-clip-4">
        <path d="M 539 503 Q 662 526 668 526 Q 672 526 672 519 Q 651 293 651 131 Q 651 21 692 -13 Q 734 -53 817 -53 Q 887 -53 933 -23 Q 959 -3 959 18 Q 959 23 944 36 Q 920 69 911 161 Q 909 194 899 194 Q 897 194 885 69 Q 881 40 865 26 Q 850 14 809 14 Q 749 14 730 35 Q 708 57 708 131 Q 708 266 722 400 Q 733 493 770 519 Q 783 530 783 534 Q 783 543 743 566 Q 706 591 691 591 Q 683 591 670 578 Q 647 561 611 550 L 525 529 C 496 522 510 498 539 503 Z"></path>
      </clipPath>
      <path clip-path="url(#make-me-a-hanzi-clip-4)" d="M 534 525 L 550 518 L 681 552 L 696 551 L 717 529 L 705 489 L 690 387 L 679 164 L 684 68 L 691 42 L 709 12 L 754 -13 L 809 -20 L 866 -13 L 906 9 L 902 192" fill="none" id="make-me-a-hanzi-animation-4" stroke-dasharray="1245 2490" stroke-linecap="round"></path>
    
  </g>
</svg>