<svg xmlns="http://www.w3.org/2000/svg" version="1.1" viewBox="0 0 1024 1024">
  <g stroke="lightgray" stroke-dasharray="1,1" stroke-width="1" transform="scale(4, 4)">
    <line x1="0" y1="0" x2="256" y2="256" />
    <line x1="256" y1="0" x2="0" y2="256" />
    <line x1="128" y1="0" x2="128" y2="256" />
    <line x1="0" y1="128" x2="256" y2="128" />
  </g>
  <g transform="scale(1.0, -1.0) translate(0.0, -814.50)">
    <style type="text/css">
      
        @keyframes keyframes0 {
          from {
            stroke: blue;
            stroke-dashoffset: 753;
            stroke-width: 128;
          }
          71% {
            animation-timing-function: step-end;
            stroke: blue;
            stroke-dashoffset: 0;
            stroke-width: 128;
          }
          to {
            stroke: black;
            stroke-width: 1024;
          }
        }
        #make-me-a-hanzi-animation-0 {
          animation: keyframes0 0.86279296875s both;
          animation-delay: 0s;
          animation-timing-function: linear;
        }
      
        @keyframes keyframes1 {
          from {
            stroke: blue;
            stroke-dashoffset: 524;
            stroke-width: 128;
          }
          63% {
            animation-timing-function: step-end;
            stroke: blue;
            stroke-dashoffset: 0;
            stroke-width: 128;
          }
          to {
            stroke: black;
            stroke-width: 1024;
          }
        }
        #make-me-a-hanzi-animation-1 {
          animation: keyframes1 0.6764322916666666s both;
          animation-delay: 0.86279296875s;
          animation-timing-function: linear;
        }
      
        @keyframes keyframes2 {
          from {
            stroke: blue;
            stroke-dashoffset: 737;
            stroke-width: 128;
          }
          71% {
            animation-timing-function: step-end;
            stroke: blue;
            stroke-dashoffset: 0;
            stroke-width: 128;
          }
          to {
            stroke: black;
            stroke-width: 1024;
          }
        }
        #make-me-a-hanzi-animation-2 {
          animation: keyframes2 0.8497721354166666s both;
          animation-delay: 1.5392252604166665s;
          animation-timing-function: linear;
        }
      
        @keyframes keyframes3 {
          from {
            stroke: blue;
            stroke-dashoffset: 629;
            stroke-width: 128;
          }
          67% {
            animation-timing-function: step-end;
            stroke: blue;
            stroke-dashoffset: 0;
            stroke-width: 128;
          }
          to {
            stroke: black;
            stroke-width: 1024;
          }
        }
        #make-me-a-hanzi-animation-3 {
          animation: keyframes3 0.7618815104166666s both;
          animation-delay: 2.388997395833333s;
          animation-timing-function: linear;
        }
      
        @keyframes keyframes4 {
          from {
            stroke: blue;
            stroke-dashoffset: 708;
            stroke-width: 128;
          }
          70% {
            animation-timing-function: step-end;
            stroke: blue;
            stroke-dashoffset: 0;
            stroke-width: 128;
          }
          to {
            stroke: black;
            stroke-width: 1024;
          }
        }
        #make-me-a-hanzi-animation-4 {
          animation: keyframes4 0.826171875s both;
          animation-delay: 3.1508789062499996s;
          animation-timing-function: linear;
        }
      
        @keyframes keyframes5 {
          from {
            stroke: blue;
            stroke-dashoffset: 964;
            stroke-width: 128;
          }
          76% {
            animation-timing-function: step-end;
            stroke: blue;
            stroke-dashoffset: 0;
            stroke-width: 128;
          }
          to {
            stroke: black;
            stroke-width: 1024;
          }
        }
        #make-me-a-hanzi-animation-5 {
          animation: keyframes5 1.0345052083333333s both;
          animation-delay: 3.9770507812499996s;
          animation-timing-function: linear;
        }
      
        @keyframes keyframes6 {
          from {
            stroke: blue;
            stroke-dashoffset: 776;
            stroke-width: 128;
          }
          72% {
            animation-timing-function: step-end;
            stroke: blue;
            stroke-dashoffset: 0;
            stroke-width: 128;
          }
          to {
            stroke: black;
            stroke-width: 1024;
          }
        }
        #make-me-a-hanzi-animation-6 {
          animation: keyframes6 0.8815104166666666s both;
          animation-delay: 5.011555989583333s;
          animation-timing-function: linear;
        }
      
    </style>
    
      <path d="M 248 694 Q 236 694 236 683 Q 240 666 240 647 Q 240 600 209 515 Q 165 398 86 290 Q 63 260 63 255 Q 63 251 68 251 Q 89 251 152 322 Q 204 384 240 453 L 254 481 Q 264 503 273 525 Q 304 606 313 619 Q 319 630 319 635 Q 319 647 288 675 Q 255 694 248 694 Z" fill="lightgray" />
    
      <path d="M 240 453 Q 257 446 267 446 Q 270 446 324 459 Q 340 459 340 446 Q 303 367 303 362 Q 303 358 311 358 Q 380 426 426 452 Q 447 462 447 467 Q 447 478 418 507 Q 390 530 376 530 Q 372 530 365 526 Q 337 506 310 496 Q 288 487 259 482 Q 258 482 254 481 C 225 475 212 464 240 453 Z" fill="lightgray" />
    
      <path d="M 219 318 Q 208 318 208 310 Q 208 306 213 287 Q 223 261 223 207 Q 223 56 211 34 Q 205 21 178 4 Q 164 -6 164 -13 Q 164 -17 171 -35 Q 188 -74 204 -74 Q 213 -74 243 -33 Q 288 12 347 70 Q 387 108 387 119 Q 387 127 380 127 Q 376 127 297 72 Q 281 58 260 43 Q 261 47 262 55 Q 271 107 271 207 Q 271 233 273 247 Q 275 262 275 266 Q 275 280 256 298 Q 233 318 219 318 Z" fill="lightgray" />
    
      <path d="M 699 671 Q 694 671 690 664 Q 687 658 687 650 Q 687 633 645 597 Q 587 548 512 509 Q 467 489 456 478 Q 461 471 471 471 Q 518 481 564 495 L 611 512 Q 638 522 665 535 Q 728 569 780 594 Q 804 602 804 606 Q 804 625 752 652 Q 716 671 699 671 Z" fill="lightgray" />
    
      <path d="M 579 315 Q 548 310 520 306 Q 475 301 427 299 Q 401 299 399 282 Q 401 277 417 271 Q 444 260 471 259 Q 486 259 519 264 Q 544 267 575 271 L 638 277 Q 667 281 699 284 Q 765 289 844 291 Q 871 291 871 310 Q 871 326 851 339 Q 829 350 804 350 Q 777 350 749 345 Q 685 333 630 323 L 579 315 Z" fill="lightgray" />
    
      <path d="M 564 495 Q 580 461 580 362 Q 580 338 579 315 L 575 271 Q 565 171 528 103 Q 478 8 375 -48 Q 328 -74 328 -78 Q 328 -81 340 -81 Q 371 -81 435 -46 Q 521 -2 571 82 Q 604 134 621 248 L 630 323 L 632 349 Q 639 441 644 457 Q 651 474 651 482 Q 651 499 621 509 Q 616 511 611 512 C 583 522 555 523 564 495 Z" fill="lightgray" />
    
      <path d="M 621 248 Q 636 216 673 122 Q 729 -26 751 -59 Q 768 -89 800 -89 Q 877 -89 928 -79 Q 972 -75 972 -66 Q 972 -60 920 -41 Q 841 -9 796 30 Q 753 68 698 176 Q 654 256 638 277 C 621 302 605 284 621 248 Z" fill="lightgray" />
    
    
      <clipPath id="make-me-a-hanzi-clip-0">
        <path d="M 248 694 Q 236 694 236 683 Q 240 666 240 647 Q 240 600 209 515 Q 165 398 86 290 Q 63 260 63 255 Q 63 251 68 251 Q 89 251 152 322 Q 204 384 240 453 L 254 481 Q 264 503 273 525 Q 304 606 313 619 Q 319 630 319 635 Q 319 647 288 675 Q 255 694 248 694 Z" />
      </clipPath>
      <path clip-path="url(#make-me-a-hanzi-clip-0)" d="M 246 684 L 267 659 L 277 633 L 232 498 L 199 430 L 132 323 L 68 256" fill="none" id="make-me-a-hanzi-animation-0" stroke-dasharray="625 1250" stroke-linecap="round" />
    
      <clipPath id="make-me-a-hanzi-clip-1">
        <path d="M 240 453 Q 257 446 267 446 Q 270 446 324 459 Q 340 459 340 446 Q 303 367 303 362 Q 303 358 311 358 Q 380 426 426 452 Q 447 462 447 467 Q 447 478 418 507 Q 390 530 376 530 Q 372 530 365 526 Q 337 506 310 496 Q 288 487 259 482 Q 258 482 254 481 C 225 475 212 464 240 453 Z" />
      </clipPath>
      <path clip-path="url(#make-me-a-hanzi-clip-1)" d="M 250 457 L 324 480 L 378 478 L 365 439 L 308 363" fill="none" id="make-me-a-hanzi-animation-1" stroke-dasharray="396 792" stroke-linecap="round" />
    
      <clipPath id="make-me-a-hanzi-clip-2">
        <path d="M 219 318 Q 208 318 208 310 Q 208 306 213 287 Q 223 261 223 207 Q 223 56 211 34 Q 205 21 178 4 Q 164 -6 164 -13 Q 164 -17 171 -35 Q 188 -74 204 -74 Q 213 -74 243 -33 Q 288 12 347 70 Q 387 108 387 119 Q 387 127 380 127 Q 376 127 297 72 Q 281 58 260 43 Q 261 47 262 55 Q 271 107 271 207 Q 271 233 273 247 Q 275 262 275 266 Q 275 280 256 298 Q 233 318 219 318 Z" />
      </clipPath>
      <path clip-path="url(#make-me-a-hanzi-clip-2)" d="M 218 308 L 243 275 L 248 256 L 246 128 L 237 37 L 243 14 L 272 25 L 381 121" fill="none" id="make-me-a-hanzi-animation-2" stroke-dasharray="609 1218" stroke-linecap="round" />
    
      <clipPath id="make-me-a-hanzi-clip-3">
        <path d="M 699 671 Q 694 671 690 664 Q 687 658 687 650 Q 687 633 645 597 Q 587 548 512 509 Q 467 489 456 478 Q 461 471 471 471 Q 518 481 564 495 L 611 512 Q 638 522 665 535 Q 728 569 780 594 Q 804 602 804 606 Q 804 625 752 652 Q 716 671 699 671 Z" />
      </clipPath>
      <path clip-path="url(#make-me-a-hanzi-clip-3)" d="M 797 608 L 722 616 L 609 537 L 515 495 L 461 478" fill="none" id="make-me-a-hanzi-animation-3" stroke-dasharray="501 1002" stroke-linecap="round" />
    
      <clipPath id="make-me-a-hanzi-clip-4">
        <path d="M 579 315 Q 548 310 520 306 Q 475 301 427 299 Q 401 299 399 282 Q 401 277 417 271 Q 444 260 471 259 Q 486 259 519 264 Q 544 267 575 271 L 638 277 Q 667 281 699 284 Q 765 289 844 291 Q 871 291 871 310 Q 871 326 851 339 Q 829 350 804 350 Q 777 350 749 345 Q 685 333 630 323 L 579 315 Z" />
      </clipPath>
      <path clip-path="url(#make-me-a-hanzi-clip-4)" d="M 407 284 L 508 283 L 798 320 L 826 319 L 855 309" fill="none" id="make-me-a-hanzi-animation-4" stroke-dasharray="580 1160" stroke-linecap="round" />
    
      <clipPath id="make-me-a-hanzi-clip-5">
        <path d="M 564 495 Q 580 461 580 362 Q 580 338 579 315 L 575 271 Q 565 171 528 103 Q 478 8 375 -48 Q 328 -74 328 -78 Q 328 -81 340 -81 Q 371 -81 435 -46 Q 521 -2 571 82 Q 604 134 621 248 L 630 323 L 632 349 Q 639 441 644 457 Q 651 474 651 482 Q 651 499 621 509 Q 616 511 611 512 C 583 522 555 523 564 495 Z" />
      </clipPath>
      <path clip-path="url(#make-me-a-hanzi-clip-5)" d="M 571 493 L 610 472 L 609 407 L 593 222 L 563 119 L 531 62 L 482 7 L 404 -47 L 338 -75" fill="none" id="make-me-a-hanzi-animation-5" stroke-dasharray="836 1672" stroke-linecap="round" />
    
      <clipPath id="make-me-a-hanzi-clip-6">
        <path d="M 621 248 Q 636 216 673 122 Q 729 -26 751 -59 Q 768 -89 800 -89 Q 877 -89 928 -79 Q 972 -75 972 -66 Q 972 -60 920 -41 Q 841 -9 796 30 Q 753 68 698 176 Q 654 256 638 277 C 621 302 605 284 621 248 Z" />
      </clipPath>
      <path clip-path="url(#make-me-a-hanzi-clip-6)" d="M 632 268 L 728 62 L 764 4 L 799 -37 L 894 -59 L 967 -67" fill="none" id="make-me-a-hanzi-animation-6" stroke-dasharray="648 1296" stroke-linecap="round" />
    
  </g>
</svg>