<svg xmlns="http://www.w3.org/2000/svg" version="1.1" viewBox="0 0 1024 1024">
  <g stroke="lightgray" stroke-dasharray="1,1" stroke-width="1" transform="scale(4, 4)">
    <line x1="0" y1="0" x2="256" y2="256" />
    <line x1="256" y1="0" x2="0" y2="256" />
    <line x1="128" y1="0" x2="128" y2="256" />
    <line x1="0" y1="128" x2="256" y2="128" />
  </g>
  <g transform="scale(1.0, -1.0) translate(0.0, -825.50)">
    <style type="text/css">
      
        @keyframes keyframes0 {
          from {
            stroke: blue;
            stroke-dashoffset: 796;
            stroke-width: 128;
          }
          72% {
            animation-timing-function: step-end;
            stroke: blue;
            stroke-dashoffset: 0;
            stroke-width: 128;
          }
          to {
            stroke: black;
            stroke-width: 1024;
          }
        }
        #make-me-a-hanzi-animation-0 {
          animation: keyframes0 0.8977864583333334s both;
          animation-delay: 0s;
          animation-timing-function: linear;
        }
      
        @keyframes keyframes1 {
          from {
            stroke: blue;
            stroke-dashoffset: 589;
            stroke-width: 128;
          }
          66% {
            animation-timing-function: step-end;
            stroke: blue;
            stroke-dashoffset: 0;
            stroke-width: 128;
          }
          to {
            stroke: black;
            stroke-width: 1024;
          }
        }
        #make-me-a-hanzi-animation-1 {
          animation: keyframes1 0.7293294270833334s both;
          animation-delay: 0.8977864583333334s;
          animation-timing-function: linear;
        }
      
        @keyframes keyframes2 {
          from {
            stroke: blue;
            stroke-dashoffset: 786;
            stroke-width: 128;
          }
          72% {
            animation-timing-function: step-end;
            stroke: blue;
            stroke-dashoffset: 0;
            stroke-width: 128;
          }
          to {
            stroke: black;
            stroke-width: 1024;
          }
        }
        #make-me-a-hanzi-animation-2 {
          animation: keyframes2 0.8896484375s both;
          animation-delay: 1.6271158854166667s;
          animation-timing-function: linear;
        }
      
        @keyframes keyframes3 {
          from {
            stroke: blue;
            stroke-dashoffset: 1702;
            stroke-width: 128;
          }
          85% {
            animation-timing-function: step-end;
            stroke: blue;
            stroke-dashoffset: 0;
            stroke-width: 128;
          }
          to {
            stroke: black;
            stroke-width: 1024;
          }
        }
        #make-me-a-hanzi-animation-3 {
          animation: keyframes3 1.6350911458333333s both;
          animation-delay: 2.516764322916667s;
          animation-timing-function: linear;
        }
      
        @keyframes keyframes4 {
          from {
            stroke: blue;
            stroke-dashoffset: 543;
            stroke-width: 128;
          }
          64% {
            animation-timing-function: step-end;
            stroke: blue;
            stroke-dashoffset: 0;
            stroke-width: 128;
          }
          to {
            stroke: black;
            stroke-width: 1024;
          }
        }
        #make-me-a-hanzi-animation-4 {
          animation: keyframes4 0.69189453125s both;
          animation-delay: 4.15185546875s;
          animation-timing-function: linear;
        }
      
        @keyframes keyframes5 {
          from {
            stroke: blue;
            stroke-dashoffset: 756;
            stroke-width: 128;
          }
          71% {
            animation-timing-function: step-end;
            stroke: blue;
            stroke-dashoffset: 0;
            stroke-width: 128;
          }
          to {
            stroke: black;
            stroke-width: 1024;
          }
        }
        #make-me-a-hanzi-animation-5 {
          animation: keyframes5 0.865234375s both;
          animation-delay: 4.84375s;
          animation-timing-function: linear;
        }
      
    </style>
    
      <path d="M 269 503 Q 299 561 338 650 Q 354 689 355 691 Q 343 718 300 725 Q 278 728 267 724 Q 258 720 263 708 Q 293 635 186 450 L 172 429 Q 139 377 51 272 Q 44 265 55 265 Q 100 271 207 403 L 260 487 L 269 503 Z" fill="lightgray" />
    
      <path d="M 260 487 Q 276 475 358 493 Q 385 502 391 497 Q 394 496 391 486 Q 369 419 352 387 Q 348 374 346 368 Q 345 358 357 364 Q 369 371 420 434 Q 453 476 485 498 Q 503 510 490 522 Q 477 532 439 552 Q 423 556 408 546 Q 398 542 320 515 Q 298 508 269 503 C 239 498 234 497 260 487 Z" fill="lightgray" />
    
      <path d="M 310 333 Q 316 346 306 358 Q 284 380 262 391 Q 244 398 235 393 Q 225 387 233 372 Q 269 291 247 132 Q 247 83 210 32 Q 200 16 207 -5 Q 219 -32 232 -42 Q 245 -49 257 -32 Q 267 -1 394 141 Q 410 157 413 166 Q 416 176 406 175 Q 391 172 292 94 Q 293 91 291 91 Q 304 200 305 286 Q 305 311 310 333 Z" fill="lightgray" />
    
      <path d="M 748 19 Q 732 -6 712 -2 Q 682 4 640 11 Q 624 14 623 10 Q 624 6 642 -8 Q 682 -39 707 -80 Q 717 -96 727 -100 Q 736 -101 754 -86 Q 809 -37 845 40 Q 881 116 917 331 Q 921 359 936 371 Q 949 383 935 399 Q 875 453 811 429 Q 646 398 612 393 Q 599 383 592 397 Q 592 415 677 540 Q 722 601 742 608 Q 755 615 755 622 Q 756 629 749 635 Q 727 657 697 668 Q 678 678 644 663 Q 547 630 487 633 Q 471 633 469 628 Q 465 624 472 614 Q 479 602 495 593 Q 510 581 565 596 Q 664 623 665 612 Q 665 587 581 453 Q 578 452 578 449 Q 559 419 530 391 Q 509 373 526 340 Q 527 333 547 337 L 578 347 Q 618 359 683 372 L 732 381 Q 792 391 824 392 Q 849 392 851 381 Q 875 303 804 115 L 796 97 Q 783 57 748 19 Z" fill="lightgray" />
    
      <path d="M 547 337 Q 547 336 549 332 Q 567 275 446 128 Q 431 115 432 107 Q 432 103 437 103 Q 500 118 587 259 Q 587 263 609 294 Q 615 303 608 315 Q 596 336 578 347 C 553 364 537 365 547 337 Z" fill="lightgray" />
    
      <path d="M 683 372 Q 689 356 688 328 Q 658 193 532 36 L 472 -33 Q 465 -39 475 -40 Q 511 -34 611 72 Q 678 162 751 315 Q 758 331 763 338 Q 770 344 767 353 Q 761 372 732 381 C 704 392 676 401 683 372 Z" fill="lightgray" />
    
    
      <clipPath id="make-me-a-hanzi-clip-0">
        <path d="M 269 503 Q 299 561 338 650 Q 354 689 355 691 Q 343 718 300 725 Q 278 728 267 724 Q 258 720 263 708 Q 293 635 186 450 L 172 429 Q 139 377 51 272 Q 44 265 55 265 Q 100 271 207 403 L 260 487 L 269 503 Z" />
      </clipPath>
      <path clip-path="url(#make-me-a-hanzi-clip-0)" d="M 271 714 L 309 682 L 289 608 L 251 519 L 193 420 L 155 369 L 87 294 L 57 271" fill="none" id="make-me-a-hanzi-animation-0" stroke-dasharray="668 1336" stroke-linecap="round" />
    
      <clipPath id="make-me-a-hanzi-clip-1">
        <path d="M 260 487 Q 276 475 358 493 Q 385 502 391 497 Q 394 496 391 486 Q 369 419 352 387 Q 348 374 346 368 Q 345 358 357 364 Q 369 371 420 434 Q 453 476 485 498 Q 503 510 490 522 Q 477 532 439 552 Q 423 556 408 546 Q 398 542 320 515 Q 298 508 269 503 C 239 498 234 497 260 487 Z" />
      </clipPath>
      <path clip-path="url(#make-me-a-hanzi-clip-1)" d="M 265 490 L 324 499 L 336 507 L 394 519 L 432 509 L 386 416 L 353 370" fill="none" id="make-me-a-hanzi-animation-1" stroke-dasharray="461 922" stroke-linecap="round" />
    
      <clipPath id="make-me-a-hanzi-clip-2">
        <path d="M 310 333 Q 316 346 306 358 Q 284 380 262 391 Q 244 398 235 393 Q 225 387 233 372 Q 269 291 247 132 Q 247 83 210 32 Q 200 16 207 -5 Q 219 -32 232 -42 Q 245 -49 257 -32 Q 267 -1 394 141 Q 410 157 413 166 Q 416 176 406 175 Q 391 172 292 94 Q 293 91 291 91 Q 304 200 305 286 Q 305 311 310 333 Z" />
      </clipPath>
      <path clip-path="url(#make-me-a-hanzi-clip-2)" d="M 243 382 L 265 361 L 279 331 L 280 225 L 269 102 L 304 100 L 314 85 L 268 100 L 270 57 L 239 9 L 240 -26" fill="none" id="make-me-a-hanzi-animation-2" stroke-dasharray="658 1316" stroke-linecap="round" />
    
      <clipPath id="make-me-a-hanzi-clip-3">
        <path d="M 748 19 Q 732 -6 712 -2 Q 682 4 640 11 Q 624 14 623 10 Q 624 6 642 -8 Q 682 -39 707 -80 Q 717 -96 727 -100 Q 736 -101 754 -86 Q 809 -37 845 40 Q 881 116 917 331 Q 921 359 936 371 Q 949 383 935 399 Q 875 453 811 429 Q 646 398 612 393 Q 599 383 592 397 Q 592 415 677 540 Q 722 601 742 608 Q 755 615 755 622 Q 756 629 749 635 Q 727 657 697 668 Q 678 678 644 663 Q 547 630 487 633 Q 471 633 469 628 Q 465 624 472 614 Q 479 602 495 593 Q 510 581 565 596 Q 664 623 665 612 Q 665 587 581 453 Q 578 452 578 449 Q 559 419 530 391 Q 509 373 526 340 Q 527 333 547 337 L 578 347 Q 618 359 683 372 L 732 381 Q 792 391 824 392 Q 849 392 851 381 Q 875 303 804 115 L 796 97 Q 783 57 748 19 Z" />
      </clipPath>
      <path clip-path="url(#make-me-a-hanzi-clip-3)" d="M 477 622 L 511 610 L 533 612 L 663 642 L 682 640 L 700 625 L 656 538 L 572 407 L 564 378 L 606 372 L 824 413 L 862 409 L 892 382 L 878 262 L 848 144 L 811 47 L 779 -3 L 735 -44 L 627 8" fill="none" id="make-me-a-hanzi-animation-3" stroke-dasharray="1574 3148" stroke-linecap="round" />
    
      <clipPath id="make-me-a-hanzi-clip-4">
        <path d="M 547 337 Q 547 336 549 332 Q 567 275 446 128 Q 431 115 432 107 Q 432 103 437 103 Q 500 118 587 259 Q 587 263 609 294 Q 615 303 608 315 Q 596 336 578 347 C 553 364 537 365 547 337 Z" />
      </clipPath>
      <path clip-path="url(#make-me-a-hanzi-clip-4)" d="M 553 336 L 574 321 L 580 306 L 563 261 L 490 155 L 439 110" fill="none" id="make-me-a-hanzi-animation-4" stroke-dasharray="415 830" stroke-linecap="round" />
    
      <clipPath id="make-me-a-hanzi-clip-5">
        <path d="M 683 372 Q 689 356 688 328 Q 658 193 532 36 L 472 -33 Q 465 -39 475 -40 Q 511 -34 611 72 Q 678 162 751 315 Q 758 331 763 338 Q 770 344 767 353 Q 761 372 732 381 C 704 392 676 401 683 372 Z" />
      </clipPath>
      <path clip-path="url(#make-me-a-hanzi-clip-5)" d="M 690 367 L 724 343 L 700 270 L 672 209 L 635 144 L 575 59 L 477 -35" fill="none" id="make-me-a-hanzi-animation-5" stroke-dasharray="628 1256" stroke-linecap="round" />
    
  </g>
</svg>