<svg xmlns="http://www.w3.org/2000/svg" version="1.1" viewBox="0 0 1024 1024">
  <g stroke="lightgray" stroke-dasharray="1,1" stroke-width="1" transform="scale(4, 4)">
    <line x1="0" y1="0" x2="256" y2="256" />
    <line x1="256" y1="0" x2="0" y2="256" />
    <line x1="128" y1="0" x2="128" y2="256" />
    <line x1="0" y1="128" x2="256" y2="128" />
  </g>
  <g transform="scale(1.0, -1.0) translate(0.0, -823.00)">
    <style type="text/css">
      
        @keyframes keyframes0 {
          from {
            stroke: blue;
            stroke-dashoffset: 749;
            stroke-width: 128;
          }
          71% {
            animation-timing-function: step-end;
            stroke: blue;
            stroke-dashoffset: 0;
            stroke-width: 128;
          }
          to {
            stroke: black;
            stroke-width: 1024;
          }
        }
        #make-me-a-hanzi-animation-0 {
          animation: keyframes0 0.8595377604166666s both;
          animation-delay: 0s;
          animation-timing-function: linear;
        }
      
        @keyframes keyframes1 {
          from {
            stroke: blue;
            stroke-dashoffset: 525;
            stroke-width: 128;
          }
          63% {
            animation-timing-function: step-end;
            stroke: blue;
            stroke-dashoffset: 0;
            stroke-width: 128;
          }
          to {
            stroke: black;
            stroke-width: 1024;
          }
        }
        #make-me-a-hanzi-animation-1 {
          animation: keyframes1 0.67724609375s both;
          animation-delay: 0.8595377604166666s;
          animation-timing-function: linear;
        }
      
        @keyframes keyframes2 {
          from {
            stroke: blue;
            stroke-dashoffset: 749;
            stroke-width: 128;
          }
          71% {
            animation-timing-function: step-end;
            stroke: blue;
            stroke-dashoffset: 0;
            stroke-width: 128;
          }
          to {
            stroke: black;
            stroke-width: 1024;
          }
        }
        #make-me-a-hanzi-animation-2 {
          animation: keyframes2 0.8595377604166666s both;
          animation-delay: 1.5367838541666665s;
          animation-timing-function: linear;
        }
      
        @keyframes keyframes3 {
          from {
            stroke: blue;
            stroke-dashoffset: 726;
            stroke-width: 128;
          }
          70% {
            animation-timing-function: step-end;
            stroke: blue;
            stroke-dashoffset: 0;
            stroke-width: 128;
          }
          to {
            stroke: black;
            stroke-width: 1024;
          }
        }
        #make-me-a-hanzi-animation-3 {
          animation: keyframes3 0.8408203125s both;
          animation-delay: 2.396321614583333s;
          animation-timing-function: linear;
        }
      
        @keyframes keyframes4 {
          from {
            stroke: blue;
            stroke-dashoffset: 690;
            stroke-width: 128;
          }
          69% {
            animation-timing-function: step-end;
            stroke: blue;
            stroke-dashoffset: 0;
            stroke-width: 128;
          }
          to {
            stroke: black;
            stroke-width: 1024;
          }
        }
        #make-me-a-hanzi-animation-4 {
          animation: keyframes4 0.8115234375s both;
          animation-delay: 3.237141927083333s;
          animation-timing-function: linear;
        }
      
        @keyframes keyframes5 {
          from {
            stroke: blue;
            stroke-dashoffset: 861;
            stroke-width: 128;
          }
          74% {
            animation-timing-function: step-end;
            stroke: blue;
            stroke-dashoffset: 0;
            stroke-width: 128;
          }
          to {
            stroke: black;
            stroke-width: 1024;
          }
        }
        #make-me-a-hanzi-animation-5 {
          animation: keyframes5 0.95068359375s both;
          animation-delay: 4.048665364583333s;
          animation-timing-function: linear;
        }
      
        @keyframes keyframes6 {
          from {
            stroke: blue;
            stroke-dashoffset: 746;
            stroke-width: 128;
          }
          71% {
            animation-timing-function: step-end;
            stroke: blue;
            stroke-dashoffset: 0;
            stroke-width: 128;
          }
          to {
            stroke: black;
            stroke-width: 1024;
          }
        }
        #make-me-a-hanzi-animation-6 {
          animation: keyframes6 0.8570963541666666s both;
          animation-delay: 4.999348958333333s;
          animation-timing-function: linear;
        }
      
    </style>
    
      <path d="M 244 698 Q 231 698 231 687 Q 236 671 236 650 Q 236 604 205 520 Q 161 405 82 298 Q 59 267 59 263 Q 59 259 63 259 Q 85 259 148 330 Q 200 391 237 460 L 252 490 Q 261 510 269 530 Q 300 610 309 624 Q 315 635 315 639 Q 315 650 284 679 Q 251 698 244 698 Z" fill="lightgray" />
    
      <path d="M 237 460 Q 251 454 259 454 Q 262 454 324 471 Q 336 471 336 459 Q 303 376 303 371 Q 303 366 307 366 Q 374 439 419 467 Q 439 477 439 482 Q 439 494 412 520 Q 386 543 372 543 Q 368 543 360 537 Q 331 516 304 505 Q 281 495 252 490 C 223 484 209 471 237 460 Z" fill="lightgray" />
    
      <path d="M 223 339 Q 212 339 212 331 Q 212 325 216 307 Q 227 281 227 226 Q 227 65 214 42 Q 209 27 182 9 Q 168 -2 168 -9 Q 168 -12 175 -31 Q 193 -70 208 -70 Q 217 -70 245 -29 Q 288 16 345 75 Q 384 112 384 123 Q 384 131 376 131 Q 373 131 297 76 Q 283 63 264 48 Q 265 55 266 63 Q 275 120 275 226 Q 275 254 278 267 Q 280 282 280 287 Q 280 301 260 318 Q 238 339 223 339 Z" fill="lightgray" />
    
      <path d="M 552 719 Q 540 719 540 706 Q 544 686 544 666 Q 544 605 514 523 Q 477 412 425 324 Q 408 297 408 291 Q 408 287 416 287 Q 438 287 492 366 Q 515 399 537 440 L 554 473 Q 564 494 575 519 Q 614 604 627 633 Q 640 653 640 658 Q 640 673 596 698 Q 560 719 552 719 Z" fill="lightgray" />
    
      <path d="M 537 440 Q 548 438 559 438 Q 565 438 578 442 Q 609 450 676 461 Q 726 467 739 467 Q 756 467 756 454 Q 756 440 695 343 Q 695 339 703 339 Q 707 339 723 353 Q 803 420 841 437 Q 867 451 867 471 Q 867 484 835 506 Q 802 530 779 530 Q 775 530 763 522 Q 734 509 697 503 L 554 473 C 525 467 507 444 537 440 Z" fill="lightgray" />
    
      <path d="M 563 366 Q 552 366 552 354 Q 552 351 558 337 Q 571 308 571 274 Q 571 209 551 142 Q 524 69 473 16 Q 428 -30 350 -68 Q 307 -90 307 -93 Q 307 -97 328 -97 Q 388 -97 471 -43 Q 527 -6 562 52 Q 590 100 611 179 L 622 222 Q 636 291 642 303 Q 647 314 647 318 Q 647 329 606 350 Q 577 366 563 366 Z" fill="lightgray" />
    
      <path d="M 611 179 Q 617 166 627 144 Q 658 66 707 -23 Q 734 -78 757 -84 Q 775 -89 792 -89 Q 850 -89 909 -78 Q 968 -69 968 -62 Q 968 -54 930 -46 Q 837 -29 780 21 Q 709 84 648 179 Q 634 208 622 222 C 604 246 598 206 611 179 Z" fill="lightgray" />
    
    
      <clipPath id="make-me-a-hanzi-clip-0">
        <path d="M 244 698 Q 231 698 231 687 Q 236 671 236 650 Q 236 604 205 520 Q 161 405 82 298 Q 59 267 59 263 Q 59 259 63 259 Q 85 259 148 330 Q 200 391 237 460 L 252 490 Q 261 510 269 530 Q 300 610 309 624 Q 315 635 315 639 Q 315 650 284 679 Q 251 698 244 698 Z" />
      </clipPath>
      <path clip-path="url(#make-me-a-hanzi-clip-0)" d="M 242 688 L 262 663 L 273 637 L 230 508 L 166 386 L 113 313 L 64 264" fill="none" id="make-me-a-hanzi-animation-0" stroke-dasharray="621 1242" stroke-linecap="round" />
    
      <clipPath id="make-me-a-hanzi-clip-1">
        <path d="M 237 460 Q 251 454 259 454 Q 262 454 324 471 Q 336 471 336 459 Q 303 376 303 371 Q 303 366 307 366 Q 374 439 419 467 Q 439 477 439 482 Q 439 494 412 520 Q 386 543 372 543 Q 368 543 360 537 Q 331 516 304 505 Q 281 495 252 490 C 223 484 209 471 237 460 Z" />
      </clipPath>
      <path clip-path="url(#make-me-a-hanzi-clip-1)" d="M 245 462 L 265 474 L 330 493 L 373 490 L 359 450 L 309 372" fill="none" id="make-me-a-hanzi-animation-1" stroke-dasharray="397 794" stroke-linecap="round" />
    
      <clipPath id="make-me-a-hanzi-clip-2">
        <path d="M 223 339 Q 212 339 212 331 Q 212 325 216 307 Q 227 281 227 226 Q 227 65 214 42 Q 209 27 182 9 Q 168 -2 168 -9 Q 168 -12 175 -31 Q 193 -70 208 -70 Q 217 -70 245 -29 Q 288 16 345 75 Q 384 112 384 123 Q 384 131 376 131 Q 373 131 297 76 Q 283 63 264 48 Q 265 55 266 63 Q 275 120 275 226 Q 275 254 278 267 Q 280 282 280 287 Q 280 301 260 318 Q 238 339 223 339 Z" />
      </clipPath>
      <path clip-path="url(#make-me-a-hanzi-clip-2)" d="M 223 328 L 248 294 L 252 276 L 242 19 L 272 28 L 378 125" fill="none" id="make-me-a-hanzi-animation-2" stroke-dasharray="621 1242" stroke-linecap="round" />
    
      <clipPath id="make-me-a-hanzi-clip-3">
        <path d="M 552 719 Q 540 719 540 706 Q 544 686 544 666 Q 544 605 514 523 Q 477 412 425 324 Q 408 297 408 291 Q 408 287 416 287 Q 438 287 492 366 Q 515 399 537 440 L 554 473 Q 564 494 575 519 Q 614 604 627 633 Q 640 653 640 658 Q 640 673 596 698 Q 560 719 552 719 Z" />
      </clipPath>
      <path clip-path="url(#make-me-a-hanzi-clip-3)" d="M 551 708 L 588 652 L 567 580 L 493 406 L 447 329 L 414 293" fill="none" id="make-me-a-hanzi-animation-3" stroke-dasharray="598 1196" stroke-linecap="round" />
    
      <clipPath id="make-me-a-hanzi-clip-4">
        <path d="M 537 440 Q 548 438 559 438 Q 565 438 578 442 Q 609 450 676 461 Q 726 467 739 467 Q 756 467 756 454 Q 756 440 695 343 Q 695 339 703 339 Q 707 339 723 353 Q 803 420 841 437 Q 867 451 867 471 Q 867 484 835 506 Q 802 530 779 530 Q 775 530 763 522 Q 734 509 697 503 L 554 473 C 525 467 507 444 537 440 Z" />
      </clipPath>
      <path clip-path="url(#make-me-a-hanzi-clip-4)" d="M 543 444 L 579 461 L 679 481 L 738 490 L 785 487 L 801 471 L 798 461 L 738 382 L 711 354 L 703 354 L 703 348" fill="none" id="make-me-a-hanzi-animation-4" stroke-dasharray="562 1124" stroke-linecap="round" />
    
      <clipPath id="make-me-a-hanzi-clip-5">
        <path d="M 563 366 Q 552 366 552 354 Q 552 351 558 337 Q 571 308 571 274 Q 571 209 551 142 Q 524 69 473 16 Q 428 -30 350 -68 Q 307 -90 307 -93 Q 307 -97 328 -97 Q 388 -97 471 -43 Q 527 -6 562 52 Q 590 100 611 179 L 622 222 Q 636 291 642 303 Q 647 314 647 318 Q 647 329 606 350 Q 577 366 563 366 Z" />
      </clipPath>
      <path clip-path="url(#make-me-a-hanzi-clip-5)" d="M 562 356 L 587 334 L 605 303 L 588 189 L 572 130 L 550 80 L 514 26 L 450 -32 L 394 -65 L 310 -94" fill="none" id="make-me-a-hanzi-animation-5" stroke-dasharray="733 1466" stroke-linecap="round" />
    
      <clipPath id="make-me-a-hanzi-clip-6">
        <path d="M 611 179 Q 617 166 627 144 Q 658 66 707 -23 Q 734 -78 757 -84 Q 775 -89 792 -89 Q 850 -89 909 -78 Q 968 -69 968 -62 Q 968 -54 930 -46 Q 837 -29 780 21 Q 709 84 648 179 Q 634 208 622 222 C 604 246 598 206 611 179 Z" />
      </clipPath>
      <path clip-path="url(#make-me-a-hanzi-clip-6)" d="M 621 215 L 633 170 L 668 107 L 728 17 L 774 -37 L 855 -57 L 964 -61" fill="none" id="make-me-a-hanzi-animation-6" stroke-dasharray="618 1236" stroke-linecap="round" />
    
  </g>
</svg>