<svg xmlns="http://www.w3.org/2000/svg" version="1.1" viewBox="0 0 1024 1024">
  <g stroke="lightgray" stroke-dasharray="1,1" stroke-width="1" transform="scale(4, 4)">
    <line x1="0" y1="0" x2="256" y2="256" />
    <line x1="256" y1="0" x2="0" y2="256" />
    <line x1="128" y1="0" x2="128" y2="256" />
    <line x1="0" y1="128" x2="256" y2="128" />
  </g>
  <g transform="scale(1.0, -1.0) translate(0.0, -817.00)">
    <style type="text/css">
      
        @keyframes keyframes0 {
          from {
            stroke: blue;
            stroke-dashoffset: 741;
            stroke-width: 128;
          }
          71% {
            animation-timing-function: step-end;
            stroke: blue;
            stroke-dashoffset: 0;
            stroke-width: 128;
          }
          to {
            stroke: black;
            stroke-width: 1024;
          }
        }
        #make-me-a-hanzi-animation-0 {
          animation: keyframes0 0.85302734375s both;
          animation-delay: 0s;
          animation-timing-function: linear;
        }
      
        @keyframes keyframes1 {
          from {
            stroke: blue;
            stroke-dashoffset: 519;
            stroke-width: 128;
          }
          63% {
            animation-timing-function: step-end;
            stroke: blue;
            stroke-dashoffset: 0;
            stroke-width: 128;
          }
          to {
            stroke: black;
            stroke-width: 1024;
          }
        }
        #make-me-a-hanzi-animation-1 {
          animation: keyframes1 0.67236328125s both;
          animation-delay: 0.85302734375s;
          animation-timing-function: linear;
        }
      
        @keyframes keyframes2 {
          from {
            stroke: blue;
            stroke-dashoffset: 735;
            stroke-width: 128;
          }
          71% {
            animation-timing-function: step-end;
            stroke: blue;
            stroke-dashoffset: 0;
            stroke-width: 128;
          }
          to {
            stroke: black;
            stroke-width: 1024;
          }
        }
        #make-me-a-hanzi-animation-2 {
          animation: keyframes2 0.84814453125s both;
          animation-delay: 1.525390625s;
          animation-timing-function: linear;
        }
      
        @keyframes keyframes3 {
          from {
            stroke: blue;
            stroke-dashoffset: 621;
            stroke-width: 128;
          }
          67% {
            animation-timing-function: step-end;
            stroke: blue;
            stroke-dashoffset: 0;
            stroke-width: 128;
          }
          to {
            stroke: black;
            stroke-width: 1024;
          }
        }
        #make-me-a-hanzi-animation-3 {
          animation: keyframes3 0.75537109375s both;
          animation-delay: 2.37353515625s;
          animation-timing-function: linear;
        }
      
        @keyframes keyframes4 {
          from {
            stroke: blue;
            stroke-dashoffset: 403;
            stroke-width: 128;
          }
          57% {
            animation-timing-function: step-end;
            stroke: blue;
            stroke-dashoffset: 0;
            stroke-width: 128;
          }
          to {
            stroke: black;
            stroke-width: 1024;
          }
        }
        #make-me-a-hanzi-animation-4 {
          animation: keyframes4 0.5779622395833334s both;
          animation-delay: 3.12890625s;
          animation-timing-function: linear;
        }
      
        @keyframes keyframes5 {
          from {
            stroke: blue;
            stroke-dashoffset: 388;
            stroke-width: 128;
          }
          56% {
            animation-timing-function: step-end;
            stroke: blue;
            stroke-dashoffset: 0;
            stroke-width: 128;
          }
          to {
            stroke: black;
            stroke-width: 1024;
          }
        }
        #make-me-a-hanzi-animation-5 {
          animation: keyframes5 0.5657552083333334s both;
          animation-delay: 3.7068684895833335s;
          animation-timing-function: linear;
        }
      
        @keyframes keyframes6 {
          from {
            stroke: blue;
            stroke-dashoffset: 494;
            stroke-width: 128;
          }
          62% {
            animation-timing-function: step-end;
            stroke: blue;
            stroke-dashoffset: 0;
            stroke-width: 128;
          }
          to {
            stroke: black;
            stroke-width: 1024;
          }
        }
        #make-me-a-hanzi-animation-6 {
          animation: keyframes6 0.6520182291666666s both;
          animation-delay: 4.272623697916667s;
          animation-timing-function: linear;
        }
      
        @keyframes keyframes7 {
          from {
            stroke: blue;
            stroke-dashoffset: 971;
            stroke-width: 128;
          }
          76% {
            animation-timing-function: step-end;
            stroke: blue;
            stroke-dashoffset: 0;
            stroke-width: 128;
          }
          to {
            stroke: black;
            stroke-width: 1024;
          }
        }
        #make-me-a-hanzi-animation-7 {
          animation: keyframes7 1.0402018229166667s both;
          animation-delay: 4.924641927083334s;
          animation-timing-function: linear;
        }
      
        @keyframes keyframes8 {
          from {
            stroke: blue;
            stroke-dashoffset: 787;
            stroke-width: 128;
          }
          72% {
            animation-timing-function: step-end;
            stroke: blue;
            stroke-dashoffset: 0;
            stroke-width: 128;
          }
          to {
            stroke: black;
            stroke-width: 1024;
          }
        }
        #make-me-a-hanzi-animation-8 {
          animation: keyframes8 0.8904622395833334s both;
          animation-delay: 5.964843750000001s;
          animation-timing-function: linear;
        }
      
        @keyframes keyframes9 {
          from {
            stroke: blue;
            stroke-dashoffset: 859;
            stroke-width: 128;
          }
          74% {
            animation-timing-function: step-end;
            stroke: blue;
            stroke-dashoffset: 0;
            stroke-width: 128;
          }
          to {
            stroke: black;
            stroke-width: 1024;
          }
        }
        #make-me-a-hanzi-animation-9 {
          animation: keyframes9 0.9490559895833334s both;
          animation-delay: 6.855305989583334s;
          animation-timing-function: linear;
        }
      
    </style>
    
      <path d="M 244 698 Q 231 698 231 687 Q 236 671 236 650 Q 236 605 206 523 Q 163 410 85 305 Q 63 275 63 270 Q 63 266 68 266 Q 88 266 151 337 Q 199 393 233 457 L 249 486 Q 260 509 269 532 Q 300 611 309 624 Q 315 635 315 639 Q 315 650 284 679 Q 251 698 244 698 Z" fill="lightgray" />
    
      <path d="M 233 457 Q 250 450 259 450 Q 262 450 311 467 Q 328 467 328 454 Q 288 376 288 371 Q 288 366 296 366 Q 366 434 414 460 Q 435 470 435 475 Q 435 486 406 515 Q 379 538 364 538 Q 360 538 353 533 Q 326 512 300 501 Q 279 491 252 486 L 249 486 C 219 482 205 468 233 457 Z" fill="lightgray" />
    
      <path d="M 215 331 Q 204 331 204 322 Q 204 317 209 299 Q 219 273 219 219 Q 219 60 207 37 Q 201 23 174 5 Q 160 -6 160 -13 Q 160 -17 168 -35 Q 184 -74 200 -74 Q 209 -74 236 -34 Q 278 10 334 67 Q 372 104 372 115 Q 372 123 364 123 Q 360 123 287 69 Q 272 58 256 44 Q 257 50 258 58 Q 267 113 267 219 Q 267 246 269 259 Q 271 274 271 278 Q 271 293 252 310 Q 229 331 215 331 Z" fill="lightgray" />
    
      <path d="M 731 731 Q 723 731 694 699 Q 658 663 610 637 Q 562 612 511 595 Q 460 584 460 574 Q 460 572 462 566 Q 466 562 475 562 Q 553 572 672 615 Q 784 658 792 658 Q 801 658 810 661 Q 815 665 815 666 Q 815 678 780 704 Q 744 731 731 731 Z" fill="lightgray" />
    
      <path d="M 447 515 L 435 515 Q 435 508 459 466 Q 500 383 531 383 Q 552 383 552 410 Q 552 435 538 461 Q 526 485 486 505 L 447 515 Z" fill="lightgray" />
    
      <path d="M 580 555 Q 575 555 575 547 Q 575 542 591 510 Q 631 423 655 423 Q 683 423 683 475 Q 683 504 641 528 Q 591 555 580 555 Z" fill="lightgray" />
    
      <path d="M 815 599 Q 810 599 807 594 Q 804 589 804 582 Q 804 563 786 523 Q 762 470 730 428 Q 712 406 708 394 Q 712 387 720 387 Q 775 415 819 465 Q 853 506 879 534 Q 892 545 892 551 Q 892 565 853 585 Q 827 599 815 599 Z" fill="lightgray" />
    
      <path d="M 609 270 Q 629 308 634 320 Q 640 333 640 343 Q 640 358 614 375 Q 583 391 575 391 Q 563 391 563 362 Q 563 307 549 263 L 532 215 Q 521 188 505 159 Q 479 115 479 106 Q 479 105 519 91 Q 570 69 630 35 L 675 7 Q 733 -30 801 -82 Q 853 -121 871 -121 Q 886 -121 888 -102 Q 888 -55 847 -24 Q 808 10 716 53 L 664 76 Q 616 95 560 117 Q 531 125 531 127 Q 561 181 584 222 L 609 270 Z" fill="lightgray" />
    
      <path d="M 630 35 Q 604 7 572 -12 Q 526 -39 451 -60 Q 395 -74 395 -78 Q 395 -85 431 -85 Q 495 -85 551 -67 Q 609 -47 652 -12 Q 664 -4 675 7 L 716 53 Q 729 72 740 94 Q 773 158 788 183 Q 800 196 800 198 Q 800 211 768 237 C 745 257 701 263 708 234 Q 712 224 712 211 Q 712 152 670 85 Q 667 81 664 76 L 630 35 Z" fill="lightgray" />
    
      <path d="M 815 238 L 859 236 Q 912 230 936 230 Q 970 231 972 251 Q 969 268 939 286 Q 910 303 888 303 Q 874 303 855 300 Q 820 295 783 292 Q 746 288 609 270 L 549 263 Q 544 262 536 261 Q 428 245 368 238 Q 355 235 355 226 Q 356 222 381 207 Q 400 194 416 194 Q 425 194 456 202 Q 492 209 532 215 L 584 222 Q 609 225 639 228 Q 674 232 708 234 L 768 237 Q 792 238 815 238 Z" fill="lightgray" />
    
    
      <clipPath id="make-me-a-hanzi-clip-0">
        <path d="M 244 698 Q 231 698 231 687 Q 236 671 236 650 Q 236 605 206 523 Q 163 410 85 305 Q 63 275 63 270 Q 63 266 68 266 Q 88 266 151 337 Q 199 393 233 457 L 249 486 Q 260 509 269 532 Q 300 611 309 624 Q 315 635 315 639 Q 315 650 284 679 Q 251 698 244 698 Z" />
      </clipPath>
      <path clip-path="url(#make-me-a-hanzi-clip-0)" d="M 242 688 L 262 663 L 273 637 L 232 514 L 166 389 L 117 319 L 68 271" fill="none" id="make-me-a-hanzi-animation-0" stroke-dasharray="613 1226" stroke-linecap="round" />
    
      <clipPath id="make-me-a-hanzi-clip-1">
        <path d="M 233 457 Q 250 450 259 450 Q 262 450 311 467 Q 328 467 328 454 Q 288 376 288 371 Q 288 366 296 366 Q 366 434 414 460 Q 435 470 435 475 Q 435 486 406 515 Q 379 538 364 538 Q 360 538 353 533 Q 326 512 300 501 Q 279 491 252 486 L 249 486 C 219 482 205 468 233 457 Z" />
      </clipPath>
      <path clip-path="url(#make-me-a-hanzi-clip-1)" d="M 242 458 L 315 487 L 365 484 L 352 447 L 294 371" fill="none" id="make-me-a-hanzi-animation-1" stroke-dasharray="391 782" stroke-linecap="round" />
    
      <clipPath id="make-me-a-hanzi-clip-2">
        <path d="M 215 331 Q 204 331 204 322 Q 204 317 209 299 Q 219 273 219 219 Q 219 60 207 37 Q 201 23 174 5 Q 160 -6 160 -13 Q 160 -17 168 -35 Q 184 -74 200 -74 Q 209 -74 236 -34 Q 278 10 334 67 Q 372 104 372 115 Q 372 123 364 123 Q 360 123 287 69 Q 272 58 256 44 Q 257 50 258 58 Q 267 113 267 219 Q 267 246 269 259 Q 271 274 271 278 Q 271 293 252 310 Q 229 331 215 331 Z" />
      </clipPath>
      <path clip-path="url(#make-me-a-hanzi-clip-2)" d="M 215 319 L 232 300 L 244 268 L 236 15 L 268 27 L 365 116" fill="none" id="make-me-a-hanzi-animation-2" stroke-dasharray="607 1214" stroke-linecap="round" />
    
      <clipPath id="make-me-a-hanzi-clip-3">
        <path d="M 731 731 Q 723 731 694 699 Q 658 663 610 637 Q 562 612 511 595 Q 460 584 460 574 Q 460 572 462 566 Q 466 562 475 562 Q 553 572 672 615 Q 784 658 792 658 Q 801 658 810 661 Q 815 665 815 666 Q 815 678 780 704 Q 744 731 731 731 Z" />
      </clipPath>
      <path clip-path="url(#make-me-a-hanzi-clip-3)" d="M 808 668 L 736 683 L 676 644 L 622 619 L 545 590 L 469 572" fill="none" id="make-me-a-hanzi-animation-3" stroke-dasharray="493 986" stroke-linecap="round" />
    
      <clipPath id="make-me-a-hanzi-clip-4">
        <path d="M 447 515 L 435 515 Q 435 508 459 466 Q 500 383 531 383 Q 552 383 552 410 Q 552 435 538 461 Q 526 485 486 505 L 447 515 Z" />
      </clipPath>
      <path clip-path="url(#make-me-a-hanzi-clip-4)" d="M 441 514 L 498 460 L 533 401" fill="none" id="make-me-a-hanzi-animation-4" stroke-dasharray="275 550" stroke-linecap="round" />
    
      <clipPath id="make-me-a-hanzi-clip-5">
        <path d="M 580 555 Q 575 555 575 547 Q 575 542 591 510 Q 631 423 655 423 Q 683 423 683 475 Q 683 504 641 528 Q 591 555 580 555 Z" />
      </clipPath>
      <path clip-path="url(#make-me-a-hanzi-clip-5)" d="M 582 548 L 645 481 L 656 443" fill="none" id="make-me-a-hanzi-animation-5" stroke-dasharray="260 520" stroke-linecap="round" />
    
      <clipPath id="make-me-a-hanzi-clip-6">
        <path d="M 815 599 Q 810 599 807 594 Q 804 589 804 582 Q 804 563 786 523 Q 762 470 730 428 Q 712 406 708 394 Q 712 387 720 387 Q 775 415 819 465 Q 853 506 879 534 Q 892 545 892 551 Q 892 565 853 585 Q 827 599 815 599 Z" />
      </clipPath>
      <path clip-path="url(#make-me-a-hanzi-clip-6)" d="M 881 552 L 837 545 L 785 464 L 717 395" fill="none" id="make-me-a-hanzi-animation-6" stroke-dasharray="366 732" stroke-linecap="round" />
    
      <clipPath id="make-me-a-hanzi-clip-7">
        <path d="M 609 270 Q 629 308 634 320 Q 640 333 640 343 Q 640 358 614 375 Q 583 391 575 391 Q 563 391 563 362 Q 563 307 549 263 L 532 215 Q 521 188 505 159 Q 479 115 479 106 Q 479 105 519 91 Q 570 69 630 35 L 675 7 Q 733 -30 801 -82 Q 853 -121 871 -121 Q 886 -121 888 -102 Q 888 -55 847 -24 Q 808 10 716 53 L 664 76 Q 616 95 560 117 Q 531 125 531 127 Q 561 181 584 222 L 609 270 Z" />
      </clipPath>
      <path clip-path="url(#make-me-a-hanzi-clip-7)" d="M 577 380 L 599 341 L 599 331 L 576 262 L 509 119 L 743 3 L 838 -64 L 871 -104" fill="none" id="make-me-a-hanzi-animation-7" stroke-dasharray="843 1686" stroke-linecap="round" />
    
      <clipPath id="make-me-a-hanzi-clip-8">
        <path d="M 630 35 Q 604 7 572 -12 Q 526 -39 451 -60 Q 395 -74 395 -78 Q 395 -85 431 -85 Q 495 -85 551 -67 Q 609 -47 652 -12 Q 664 -4 675 7 L 716 53 Q 729 72 740 94 Q 773 158 788 183 Q 800 196 800 198 Q 800 211 768 237 C 745 257 701 263 708 234 Q 712 224 712 211 Q 712 152 670 85 Q 667 81 664 76 L 630 35 Z" />
      </clipPath>
      <path clip-path="url(#make-me-a-hanzi-clip-8)" d="M 716 230 L 751 197 L 705 87 L 652 21 L 601 -21 L 551 -46 L 484 -67 L 398 -79" fill="none" id="make-me-a-hanzi-animation-8" stroke-dasharray="659 1318" stroke-linecap="round" />
    
      <clipPath id="make-me-a-hanzi-clip-9">
        <path d="M 815 238 L 859 236 Q 912 230 936 230 Q 970 231 972 251 Q 969 268 939 286 Q 910 303 888 303 Q 874 303 855 300 Q 820 295 783 292 Q 746 288 609 270 L 549 263 Q 544 262 536 261 Q 428 245 368 238 Q 355 235 355 226 Q 356 222 381 207 Q 400 194 416 194 Q 425 194 456 202 Q 492 209 532 215 L 584 222 Q 609 225 639 228 Q 674 232 708 234 L 768 237 Q 792 238 815 238 Z" />
      </clipPath>
      <path clip-path="url(#make-me-a-hanzi-clip-9)" d="M 361 228 L 414 219 L 624 251 L 866 269 L 958 251" fill="none" id="make-me-a-hanzi-animation-9" stroke-dasharray="731 1462" stroke-linecap="round" />
    
  </g>
</svg>