<svg xmlns="http://www.w3.org/2000/svg" version="1.1" viewBox="0 0 1024 1024">
  <g stroke="lightgray" stroke-dasharray="1,1" stroke-width="1" transform="scale(4, 4)">
    <line x1="0" y1="0" x2="256" y2="256" />
    <line x1="256" y1="0" x2="0" y2="256" />
    <line x1="128" y1="0" x2="128" y2="256" />
    <line x1="0" y1="128" x2="256" y2="128" />
  </g>
  <g transform="scale(1.0, -1.0) translate(0.0, -824.00)">
    <style type="text/css">
      
        @keyframes keyframes0 {
          from {
            stroke: blue;
            stroke-dashoffset: 659;
            stroke-width: 128;
          }
          68% {
            animation-timing-function: step-end;
            stroke: blue;
            stroke-dashoffset: 0;
            stroke-width: 128;
          }
          to {
            stroke: black;
            stroke-width: 1024;
          }
        }
        #make-me-a-hanzi-animation-0 {
          animation: keyframes0 0.7862955729166666s both;
          animation-delay: 0s;
          animation-timing-function: linear;
        }
      
        @keyframes keyframes1 {
          from {
            stroke: blue;
            stroke-dashoffset: 947;
            stroke-width: 128;
          }
          76% {
            animation-timing-function: step-end;
            stroke: blue;
            stroke-dashoffset: 0;
            stroke-width: 128;
          }
          to {
            stroke: black;
            stroke-width: 1024;
          }
        }
        #make-me-a-hanzi-animation-1 {
          animation: keyframes1 1.0206705729166667s both;
          animation-delay: 0.7862955729166666s;
          animation-timing-function: linear;
        }
      
        @keyframes keyframes2 {
          from {
            stroke: blue;
            stroke-dashoffset: 660;
            stroke-width: 128;
          }
          68% {
            animation-timing-function: step-end;
            stroke: blue;
            stroke-dashoffset: 0;
            stroke-width: 128;
          }
          to {
            stroke: black;
            stroke-width: 1024;
          }
        }
        #make-me-a-hanzi-animation-2 {
          animation: keyframes2 0.787109375s both;
          animation-delay: 1.8069661458333335s;
          animation-timing-function: linear;
        }
      
        @keyframes keyframes3 {
          from {
            stroke: blue;
            stroke-dashoffset: 739;
            stroke-width: 128;
          }
          71% {
            animation-timing-function: step-end;
            stroke: blue;
            stroke-dashoffset: 0;
            stroke-width: 128;
          }
          to {
            stroke: black;
            stroke-width: 1024;
          }
        }
        #make-me-a-hanzi-animation-3 {
          animation: keyframes3 0.8513997395833334s both;
          animation-delay: 2.5940755208333335s;
          animation-timing-function: linear;
        }
      
        @keyframes keyframes4 {
          from {
            stroke: blue;
            stroke-dashoffset: 660;
            stroke-width: 128;
          }
          68% {
            animation-timing-function: step-end;
            stroke: blue;
            stroke-dashoffset: 0;
            stroke-width: 128;
          }
          to {
            stroke: black;
            stroke-width: 1024;
          }
        }
        #make-me-a-hanzi-animation-4 {
          animation: keyframes4 0.787109375s both;
          animation-delay: 3.445475260416667s;
          animation-timing-function: linear;
        }
      
        @keyframes keyframes5 {
          from {
            stroke: blue;
            stroke-dashoffset: 620;
            stroke-width: 128;
          }
          67% {
            animation-timing-function: step-end;
            stroke: blue;
            stroke-dashoffset: 0;
            stroke-width: 128;
          }
          to {
            stroke: black;
            stroke-width: 1024;
          }
        }
        #make-me-a-hanzi-animation-5 {
          animation: keyframes5 0.7545572916666666s both;
          animation-delay: 4.232584635416667s;
          animation-timing-function: linear;
        }
      
        @keyframes keyframes6 {
          from {
            stroke: blue;
            stroke-dashoffset: 876;
            stroke-width: 128;
          }
          74% {
            animation-timing-function: step-end;
            stroke: blue;
            stroke-dashoffset: 0;
            stroke-width: 128;
          }
          to {
            stroke: black;
            stroke-width: 1024;
          }
        }
        #make-me-a-hanzi-animation-6 {
          animation: keyframes6 0.962890625s both;
          animation-delay: 4.987141927083334s;
          animation-timing-function: linear;
        }
      
        @keyframes keyframes7 {
          from {
            stroke: blue;
            stroke-dashoffset: 478;
            stroke-width: 128;
          }
          61% {
            animation-timing-function: step-end;
            stroke: blue;
            stroke-dashoffset: 0;
            stroke-width: 128;
          }
          to {
            stroke: black;
            stroke-width: 1024;
          }
        }
        #make-me-a-hanzi-animation-7 {
          animation: keyframes7 0.6389973958333334s both;
          animation-delay: 5.950032552083334s;
          animation-timing-function: linear;
        }
      
        @keyframes keyframes8 {
          from {
            stroke: blue;
            stroke-dashoffset: 465;
            stroke-width: 128;
          }
          60% {
            animation-timing-function: step-end;
            stroke: blue;
            stroke-dashoffset: 0;
            stroke-width: 128;
          }
          to {
            stroke: black;
            stroke-width: 1024;
          }
        }
        #make-me-a-hanzi-animation-8 {
          animation: keyframes8 0.62841796875s both;
          animation-delay: 6.589029947916667s;
          animation-timing-function: linear;
        }
      
    </style>
    
      <path d="M 562 660 L 655 692 Q 680 700 697.5 702.5 Q 715 705 719 711 Q 721 715 713 729.5 Q 705 744 693 750 Q 684 760 666 768 Q 648 776 643 774 Q 638 772 631 761 Q 623 750 598 734 L 561 711 Q 540 698 484 678 Q 428 658 393 650 L 330 635 Q 322 633 322 627 Q 323 621 331 621 L 353 623 Q 423 623 509 647 L 562 660 Z" fill="lightgray" />
    
      <path d="M 838 577 Q 828 582 811 580 L 798 579 L 771 572 L 677 557 Q 620 546 570 541 L 521 535 L 466 527 L 364 514 Q 331 511 261 501 L 212 496 Q 199 495 197 489.5 Q 195 484 201 477.5 Q 207 471 231 459.5 Q 255 448 264 449 L 353 467 L 485 487 L 571 499 L 832 518 L 882 520 Q 911 522 897 542 Q 890 552 869 563 L 838 577 Z" fill="lightgray" />
    
      <path d="M 570 541 L 576 586 Q 578 611 583 624 Q 587 636 586 640 Q 584 651 562 660 C 535 673 498 675 509 647 L 517 627 Q 521 611 521 577 L 521 535 L 519 441 L 511 340 L 507 308 Q 507 298 511 287 L 518 265 Q 521 259 529 249 C 542 231 542 231 555 254 L 559 262 Q 572 279 572 321 L 571 451 L 571 478 L 571 499 L 570 541 Z" fill="lightgray" />
    
      <path d="M 485 487 L 461 454 Q 453 440 415 401 Q 376 362 341 331 Q 298 295 211 242 L 157 213 L 136 204 Q 130 200 131 193 Q 132 186 141 187 L 166 193 Q 189 199 224 213 Q 312 248 371 294 Q 391 310 428 345 L 477 395 L 519 441 C 567 494 514 527 485 487 Z" fill="lightgray" />
    
      <path d="M 571 451 L 613 427 L 756 334 L 880 249 Q 917 225 933 245 Q 948 265 931 300 Q 923 314 887 338 Q 850 361 821 375 Q 757 409 638 454 L 571 478 C 543 488 545 466 571 451 Z" fill="lightgray" />
    
      <path d="M 438 232 L 425 239 L 422 240 L 399 246 Q 385 250 380 246 Q 375 242 375 237 L 391 194 Q 393 183 391 144 L 388 82 Q 387 51 385 38 L 378 -2 Q 377 -4 376 -10 L 368 -43 Q 366 -51 366 -65 Q 366 -79 385 -106 Q 393 -123 398 -123 Q 413 -119 416 -99 Q 416 -98 421 -75 L 427 -40 L 437 70 L 437 96 L 443 202 C 445 228 445 228 438 232 Z" fill="lightgray" />
    
      <path d="M 529 249 L 438 232 C 409 226 413 197 443 202 L 556 220 L 611 223 Q 630 224 647 222 Q 657 218 659 214 Q 664 209 664 189 L 667 113 L 666 87 L 662 -2 Q 661 -30 655 -32 Q 649 -34 637 -26 C 610 -19 615 -32 626 -60 L 655 -134 Q 663 -152 686 -138 Q 698 -131 707 -117 Q 715 -103 727 -77 Q 735 -54 729 -2 L 727 50 L 727 68 L 725 128 L 725 169 Q 729 198 740 215 Q 750 232 737 240 L 715 257 L 685 276 Q 669 282 653 281 L 648 279 Q 647 278 617 268 Q 587 258 555 254 L 529 249 Z" fill="lightgray" />
    
      <path d="M 437 70 L 461 68 Q 502 64 540 72 L 579 77 L 666 87 C 696 90 695 102 667 113 L 636 125 Q 627 128 611 128 L 539 114 Q 537 114 517 109 Q 497 104 437 96 C 407 92 407 72 437 70 Z" fill="lightgray" />
    
      <path d="M 421 -75 L 445 -75 Q 468 -79 550 -69 L 626 -60 C 656 -56 664 -38 637 -26 Q 617 -17 616 -17 Q 615 -16 595 -18 L 557 -25 Q 532 -29 427 -40 C 397 -43 391 -75 421 -75 Z" fill="lightgray" />
    
    
      <clipPath id="make-me-a-hanzi-clip-0">
        <path d="M 562 660 L 655 692 Q 680 700 697.5 702.5 Q 715 705 719 711 Q 721 715 713 729.5 Q 705 744 693 750 Q 684 760 666 768 Q 648 776 643 774 Q 638 772 631 761 Q 623 750 598 734 L 561 711 Q 540 698 484 678 Q 428 658 393 650 L 330 635 Q 322 633 322 627 Q 323 621 331 621 L 353 623 Q 423 623 509 647 L 562 660 Z" />
      </clipPath>
      <path clip-path="url(#make-me-a-hanzi-clip-0)" d="M 712 714 L 692 724 L 653 729 L 558 683 L 496 662 L 374 633 L 329 628" fill="none" id="make-me-a-hanzi-animation-0" stroke-dasharray="531 1062" stroke-linecap="round" />
    
      <clipPath id="make-me-a-hanzi-clip-1">
        <path d="M 838 577 Q 828 582 811 580 L 798 579 L 771 572 L 677 557 Q 620 546 570 541 L 521 535 L 466 527 L 364 514 Q 331 511 261 501 L 212 496 Q 199 495 197 489.5 Q 195 484 201 477.5 Q 207 471 231 459.5 Q 255 448 264 449 L 353 467 L 485 487 L 571 499 L 832 518 L 882 520 Q 911 522 897 542 Q 890 552 869 563 L 838 577 Z" />
      </clipPath>
      <path clip-path="url(#make-me-a-hanzi-clip-1)" d="M 205 486 L 263 475 L 542 517 L 819 549 L 888 532" fill="none" id="make-me-a-hanzi-animation-1" stroke-dasharray="819 1638" stroke-linecap="round" />
    
      <clipPath id="make-me-a-hanzi-clip-2">
        <path d="M 570 541 L 576 586 Q 578 611 583 624 Q 587 636 586 640 Q 584 651 562 660 C 535 673 498 675 509 647 L 517 627 Q 521 611 521 577 L 521 535 L 519 441 L 511 340 L 507 308 Q 507 298 511 287 L 518 265 Q 521 259 529 249 C 542 231 542 231 555 254 L 559 262 Q 572 279 572 321 L 571 451 L 571 478 L 571 499 L 570 541 Z" />
      </clipPath>
      <path clip-path="url(#make-me-a-hanzi-clip-2)" d="M 517 644 L 550 625 L 541 287 L 534 260" fill="none" id="make-me-a-hanzi-animation-2" stroke-dasharray="532 1064" stroke-linecap="round" />
    
      <clipPath id="make-me-a-hanzi-clip-3">
        <path d="M 485 487 L 461 454 Q 453 440 415 401 Q 376 362 341 331 Q 298 295 211 242 L 157 213 L 136 204 Q 130 200 131 193 Q 132 186 141 187 L 166 193 Q 189 199 224 213 Q 312 248 371 294 Q 391 310 428 345 L 477 395 L 519 441 C 567 494 514 527 485 487 Z" />
      </clipPath>
      <path clip-path="url(#make-me-a-hanzi-clip-3)" d="M 515 486 L 464 417 L 341 301 L 241 238 L 139 196" fill="none" id="make-me-a-hanzi-animation-3" stroke-dasharray="611 1222" stroke-linecap="round" />
    
      <clipPath id="make-me-a-hanzi-clip-4">
        <path d="M 571 451 L 613 427 L 756 334 L 880 249 Q 917 225 933 245 Q 948 265 931 300 Q 923 314 887 338 Q 850 361 821 375 Q 757 409 638 454 L 571 478 C 543 488 545 466 571 451 Z" />
      </clipPath>
      <path clip-path="url(#make-me-a-hanzi-clip-4)" d="M 576 471 L 594 454 L 718 393 L 874 301 L 901 279 L 914 258" fill="none" id="make-me-a-hanzi-animation-4" stroke-dasharray="532 1064" stroke-linecap="round" />
    
      <clipPath id="make-me-a-hanzi-clip-5">
        <path d="M 438 232 L 425 239 L 422 240 L 399 246 Q 385 250 380 246 Q 375 242 375 237 L 391 194 Q 393 183 391 144 L 388 82 Q 387 51 385 38 L 378 -2 Q 377 -4 376 -10 L 368 -43 Q 366 -51 366 -65 Q 366 -79 385 -106 Q 393 -123 398 -123 Q 413 -119 416 -99 Q 416 -98 421 -75 L 427 -40 L 437 70 L 437 96 L 443 202 C 445 228 445 228 438 232 Z" />
      </clipPath>
      <path clip-path="url(#make-me-a-hanzi-clip-5)" d="M 387 236 L 410 217 L 417 193 L 410 33 L 394 -60 L 400 -114" fill="none" id="make-me-a-hanzi-animation-5" stroke-dasharray="492 984" stroke-linecap="round" />
    
      <clipPath id="make-me-a-hanzi-clip-6">
        <path d="M 529 249 L 438 232 C 409 226 413 197 443 202 L 556 220 L 611 223 Q 630 224 647 222 Q 657 218 659 214 Q 664 209 664 189 L 667 113 L 666 87 L 662 -2 Q 661 -30 655 -32 Q 649 -34 637 -26 C 610 -19 615 -32 626 -60 L 655 -134 Q 663 -152 686 -138 Q 698 -131 707 -117 Q 715 -103 727 -77 Q 735 -54 729 -2 L 727 50 L 727 68 L 725 128 L 725 169 Q 729 198 740 215 Q 750 232 737 240 L 715 257 L 685 276 Q 669 282 653 281 L 648 279 Q 647 278 617 268 Q 587 258 555 254 L 529 249 Z" />
      </clipPath>
      <path clip-path="url(#make-me-a-hanzi-clip-6)" d="M 449 211 L 456 220 L 648 250 L 672 245 L 699 221 L 694 167 L 696 -32 L 684 -66 L 679 -71 L 655 -60 L 640 -33" fill="none" id="make-me-a-hanzi-animation-6" stroke-dasharray="748 1496" stroke-linecap="round" />
    
      <clipPath id="make-me-a-hanzi-clip-7">
        <path d="M 437 70 L 461 68 Q 502 64 540 72 L 579 77 L 666 87 C 696 90 695 102 667 113 L 636 125 Q 627 128 611 128 L 539 114 Q 537 114 517 109 Q 497 104 437 96 C 407 92 407 72 437 70 Z" />
      </clipPath>
      <path clip-path="url(#make-me-a-hanzi-clip-7)" d="M 444 77 L 452 84 L 500 85 L 617 105 L 650 102 L 658 94" fill="none" id="make-me-a-hanzi-animation-7" stroke-dasharray="350 700" stroke-linecap="round" />
    
      <clipPath id="make-me-a-hanzi-clip-8">
        <path d="M 421 -75 L 445 -75 Q 468 -79 550 -69 L 626 -60 C 656 -56 664 -38 637 -26 Q 617 -17 616 -17 Q 615 -16 595 -18 L 557 -25 Q 532 -29 427 -40 C 397 -43 391 -75 421 -75 Z" />
      </clipPath>
      <path clip-path="url(#make-me-a-hanzi-clip-8)" d="M 427 -70 L 444 -56 L 537 -51 L 601 -41 L 627 -29" fill="none" id="make-me-a-hanzi-animation-8" stroke-dasharray="337 674" stroke-linecap="round" />
    
  </g>
</svg>