<svg xmlns="http://www.w3.org/2000/svg" version="1.1" viewBox="0 0 1024 1024">
  <g stroke="lightgray" stroke-dasharray="1,1" stroke-width="1" transform="scale(4, 4)">
    <line x1="0" y1="0" x2="256" y2="256" />
    <line x1="256" y1="0" x2="0" y2="256" />
    <line x1="128" y1="0" x2="128" y2="256" />
    <line x1="0" y1="128" x2="256" y2="128" />
  </g>
  <g transform="scale(1.0, -1.0) translate(0.0, -776.00)">
    <style type="text/css">
      
        @keyframes keyframes0 {
          from {
            stroke: blue;
            stroke-dashoffset: 506;
            stroke-width: 128;
          }
          62% {
            animation-timing-function: step-end;
            stroke: blue;
            stroke-dashoffset: 0;
            stroke-width: 128;
          }
          to {
            stroke: black;
            stroke-width: 1024;
          }
        }
        #make-me-a-hanzi-animation-0 {
          animation: keyframes0 0.6617838541666666s both;
          animation-delay: 0s;
          animation-timing-function: linear;
        }
      
        @keyframes keyframes1 {
          from {
            stroke: blue;
            stroke-dashoffset: 653;
            stroke-width: 128;
          }
          68% {
            animation-timing-function: step-end;
            stroke: blue;
            stroke-dashoffset: 0;
            stroke-width: 128;
          }
          to {
            stroke: black;
            stroke-width: 1024;
          }
        }
        #make-me-a-hanzi-animation-1 {
          animation: keyframes1 0.7814127604166666s both;
          animation-delay: 0.6617838541666666s;
          animation-timing-function: linear;
        }
      
        @keyframes keyframes2 {
          from {
            stroke: blue;
            stroke-dashoffset: 480;
            stroke-width: 128;
          }
          61% {
            animation-timing-function: step-end;
            stroke: blue;
            stroke-dashoffset: 0;
            stroke-width: 128;
          }
          to {
            stroke: black;
            stroke-width: 1024;
          }
        }
        #make-me-a-hanzi-animation-2 {
          animation: keyframes2 0.640625s both;
          animation-delay: 1.4431966145833333s;
          animation-timing-function: linear;
        }
      
        @keyframes keyframes3 {
          from {
            stroke: blue;
            stroke-dashoffset: 487;
            stroke-width: 128;
          }
          61% {
            animation-timing-function: step-end;
            stroke: blue;
            stroke-dashoffset: 0;
            stroke-width: 128;
          }
          to {
            stroke: black;
            stroke-width: 1024;
          }
        }
        #make-me-a-hanzi-animation-3 {
          animation: keyframes3 0.6463216145833334s both;
          animation-delay: 2.083821614583333s;
          animation-timing-function: linear;
        }
      
        @keyframes keyframes4 {
          from {
            stroke: blue;
            stroke-dashoffset: 564;
            stroke-width: 128;
          }
          65% {
            animation-timing-function: step-end;
            stroke: blue;
            stroke-dashoffset: 0;
            stroke-width: 128;
          }
          to {
            stroke: black;
            stroke-width: 1024;
          }
        }
        #make-me-a-hanzi-animation-4 {
          animation: keyframes4 0.708984375s both;
          animation-delay: 2.7301432291666665s;
          animation-timing-function: linear;
        }
      
        @keyframes keyframes5 {
          from {
            stroke: blue;
            stroke-dashoffset: 948;
            stroke-width: 128;
          }
          76% {
            animation-timing-function: step-end;
            stroke: blue;
            stroke-dashoffset: 0;
            stroke-width: 128;
          }
          to {
            stroke: black;
            stroke-width: 1024;
          }
        }
        #make-me-a-hanzi-animation-5 {
          animation: keyframes5 1.021484375s both;
          animation-delay: 3.4391276041666665s;
          animation-timing-function: linear;
        }
      
        @keyframes keyframes6 {
          from {
            stroke: blue;
            stroke-dashoffset: 409;
            stroke-width: 128;
          }
          57% {
            animation-timing-function: step-end;
            stroke: blue;
            stroke-dashoffset: 0;
            stroke-width: 128;
          }
          to {
            stroke: black;
            stroke-width: 1024;
          }
        }
        #make-me-a-hanzi-animation-6 {
          animation: keyframes6 0.5828450520833334s both;
          animation-delay: 4.460611979166666s;
          animation-timing-function: linear;
        }
      
        @keyframes keyframes7 {
          from {
            stroke: blue;
            stroke-dashoffset: 359;
            stroke-width: 128;
          }
          54% {
            animation-timing-function: step-end;
            stroke: blue;
            stroke-dashoffset: 0;
            stroke-width: 128;
          }
          to {
            stroke: black;
            stroke-width: 1024;
          }
        }
        #make-me-a-hanzi-animation-7 {
          animation: keyframes7 0.5421549479166666s both;
          animation-delay: 5.043457031249999s;
          animation-timing-function: linear;
        }
      
        @keyframes keyframes8 {
          from {
            stroke: blue;
            stroke-dashoffset: 353;
            stroke-width: 128;
          }
          53% {
            animation-timing-function: step-end;
            stroke: blue;
            stroke-dashoffset: 0;
            stroke-width: 128;
          }
          to {
            stroke: black;
            stroke-width: 1024;
          }
        }
        #make-me-a-hanzi-animation-8 {
          animation: keyframes8 0.5372721354166666s both;
          animation-delay: 5.585611979166666s;
          animation-timing-function: linear;
        }
      
        @keyframes keyframes9 {
          from {
            stroke: blue;
            stroke-dashoffset: 355;
            stroke-width: 128;
          }
          54% {
            animation-timing-function: step-end;
            stroke: blue;
            stroke-dashoffset: 0;
            stroke-width: 128;
          }
          to {
            stroke: black;
            stroke-width: 1024;
          }
        }
        #make-me-a-hanzi-animation-9 {
          animation: keyframes9 0.5388997395833334s both;
          animation-delay: 6.122884114583333s;
          animation-timing-function: linear;
        }
      
        @keyframes keyframes10 {
          from {
            stroke: blue;
            stroke-dashoffset: 772;
            stroke-width: 128;
          }
          72% {
            animation-timing-function: step-end;
            stroke: blue;
            stroke-dashoffset: 0;
            stroke-width: 128;
          }
          to {
            stroke: black;
            stroke-width: 1024;
          }
        }
        #make-me-a-hanzi-animation-10 {
          animation: keyframes10 0.8782552083333334s both;
          animation-delay: 6.661783854166666s;
          animation-timing-function: linear;
        }
      
        @keyframes keyframes11 {
          from {
            stroke: blue;
            stroke-dashoffset: 708;
            stroke-width: 128;
          }
          70% {
            animation-timing-function: step-end;
            stroke: blue;
            stroke-dashoffset: 0;
            stroke-width: 128;
          }
          to {
            stroke: black;
            stroke-width: 1024;
          }
        }
        #make-me-a-hanzi-animation-11 {
          animation: keyframes11 0.826171875s both;
          animation-delay: 7.540039062499999s;
          animation-timing-function: linear;
        }
      
        @keyframes keyframes12 {
          from {
            stroke: blue;
            stroke-dashoffset: 1061;
            stroke-width: 128;
          }
          78% {
            animation-timing-function: step-end;
            stroke: blue;
            stroke-dashoffset: 0;
            stroke-width: 128;
          }
          to {
            stroke: black;
            stroke-width: 1024;
          }
        }
        #make-me-a-hanzi-animation-12 {
          animation: keyframes12 1.1134440104166667s both;
          animation-delay: 8.3662109375s;
          animation-timing-function: linear;
        }
      
    </style>
    
      <path d="M 380 586 L 394 588 L 450 598 L 488 604 Q 505 606 514 611 Q 522 615 522 619 L 522 620 Q 522 625 512 632 Q 502 638 488 642 Q 474 646 468 646 Q 462 646 450 640 Q 436 636 406 629 Q 378 623 350 618 Q 321 612 302 610 Q 283 608 262 606 C 232 603 238 585 268 580 L 286 577 L 303 577 Q 316 578 334 581 L 380 586 Z" fill="lightgray" />
    
      <path d="M 262 606 L 232 618 Q 220 623 210 624 Q 201 624 200 621 Q 197 618 196 614 Q 196 608 200 600 Q 205 591 208 584 Q 212 578 214 567 Q 218 557 220 535 Q 222 512 222 502 L 218 396 Q 216 374 214 354 Q 213 334 210 314 Q 205 294 200 284 Q 192 266 192 262 Q 192 258 196 250 Q 198 242 204 233 Q 210 224 216 221 Q 224 218 228 218 Q 231 218 238 223 Q 246 228 254 232 C 265 238 262 250 256 279 Q 253 281 253 287 Q 253 291 254 295 Q 254 308 256 327 Q 258 346 258 353 L 258 364 L 260 381 L 262 457 L 264 476 L 266 500 L 266 544 Q 268 560 268 580 C 268 603 268 603 262 606 Z" fill="lightgray" />
    
      <path d="M 396 465 L 478 478 Q 492 480 498 484 Q 502 488 502 494 Q 502 499 492 503 Q 482 508 466 511 Q 455 514 447 514 L 444 514 L 424 509 L 398 502 L 350 490 L 310 483 Q 306 482 292 480 L 264 476 C 234 472 234 467 262 457 L 276 452 Q 283 448 294 448 L 298 448 Q 310 449 322 451 Q 332 452 348 456 L 396 465 Z" fill="lightgray" />
    
      <path d="M 392 364 L 472 374 Q 492 377 498 382 Q 504 388 504 392 Q 502 397 492 401 Q 484 405 470 408 Q 456 412 448 412 L 432 408 L 418 406 L 394 401 L 346 393 L 310 388 Q 294 384 282 384 Q 269 382 268 382 Q 264 382 260 381 C 231 377 231 377 258 364 L 266 360 Q 272 356 280 354 Q 286 353 292 353 L 298 353 Q 306 353 324 356 L 348 359 L 392 364 Z" fill="lightgray" />
    
      <path d="M 388 291 L 392 364 L 394 401 L 396 465 L 398 502 L 400 521 L 402 536 Q 402 541 406 549 Q 408 558 408 563 Q 408 568 405 572 Q 402 576 396 578 Q 390 582 380 586 C 353 598 320 607 334 581 L 340 570 Q 342 566 344 559 Q 346 552 348 542 Q 350 533 350 522 L 350 490 L 348 456 L 346 393 L 348 359 L 346 286 C 345 256 386 261 388 291 Z" fill="lightgray" />
    
      <path d="M 254 232 Q 261 236 280 240 Q 296 244 322 249 Q 348 254 372 257 L 426 262 Q 433 263 438 263 Q 452 263 456 259 Q 462 253 462 238 L 462 198 Q 459 174 458 141 Q 453 108 450 90 Q 446 70 438 38 Q 427 5 424 -4 Q 420 -12 414 -18 Q 408 -24 398 -24 L 395 -24 Q 385 -24 370 -19 Q 352 -13 348 -10 L 336 -6 Q 330 -4 326 -4 Q 322 -4 320 -6 L 320 -8 Q 320 -12 326 -18 L 340 -32 L 362 -60 Q 376 -78 384 -91 Q 392 -104 398 -106 Q 400 -107 402 -107 Q 411 -107 426 -96 Q 446 -84 458 -62 Q 470 -40 481 8 Q 492 56 498 88 L 506 160 Q 508 186 512 203 Q 514 219 518 230 Q 522 242 526 250 Q 532 257 532 260 Q 532 266 524 273 Q 518 280 506 287 Q 496 294 484 299 Q 473 304 466 304 Q 462 304 450 301 Q 438 298 424 296 L 410 294 L 388 291 L 346 286 L 300 280 Q 274 277 266 276 Q 260 276 256 279 C 226 281 226 223 254 232 Z" fill="lightgray" />
    
      <path d="M 140 183 Q 137 189 132 189 L 130 189 Q 125 188 124 180 L 122 164 Q 120 161 116 148 Q 114 134 112 128 L 102 108 L 94 92 L 86 83 Q 84 79 84 68 Q 84 56 86 44 Q 90 31 96 24 Q 102 18 108 17 L 109 17 Q 118 17 128 29 Q 139 43 144 56 Q 147 70 152 90 Q 154 110 154 120 Q 154 130 150 148 Q 148 165 144 172 L 140 183 Z" fill="lightgray" />
    
      <path d="M 184 164 L 186 151 Q 190 138 194 126 L 204 98 Q 210 78 216 69 Q 222 60 230 60 L 233 60 Q 238 60 244 65 Q 250 72 252 82 Q 253 87 253 93 Q 253 99 252 106 Q 251 120 242 133 Q 231 146 222 154 Q 212 162 208 166 L 196 172 Q 191 174 188 174 Q 184 173 184 172 Q 183 171 183 169 Q 183 167 184 164 Z" fill="lightgray" />
    
      <path d="M 270 164 Q 272 161 278 147 L 290 118 Q 298 103 304 97 Q 312 88 318 88 Q 326 89 332 99 Q 336 110 336 122 Q 336 134 330 144 Q 324 154 316 162 Q 308 168 300 172 Q 294 176 288 178 L 276 182 Q 269 184 268 184 Q 266 184 266 181 Q 265 180 265 179 Q 265 176 268 172 L 270 164 Z" fill="lightgray" />
    
      <path d="M 362 175 Q 366 166 372 156 L 384 129 Q 390 114 398 106 Q 406 99 412 99 L 414 99 Q 420 100 426 109 Q 432 118 432 130 L 432 136 Q 432 147 426 156 Q 419 167 412 173 Q 404 179 394 185 Q 383 190 378 192 L 366 196 Q 359 198 358 198 Q 354 197 354 194 Q 353 193 353 192 Q 353 190 356 186 L 362 175 Z" fill="lightgray" />
    
      <path d="M 520 40 Q 516 36 516 33 Q 516 31 518 29 Q 520 27 522 27 Q 526 27 530 30 L 544 42 Q 574 67 592 94 Q 610 120 622 161 Q 633 202 638 252 Q 644 303 646 344 L 648 401 L 648 456 Q 650 464 654 472 Q 657 480 657 484 L 657 486 Q 656 490 648 496 Q 638 503 628 507 Q 620 510 602 517 Q 593 520 587 520 Q 582 520 580 518 Q 576 514 576 510 Q 576 506 582 498 Q 586 490 590 478 Q 592 467 594 450 Q 596 433 596 412 Q 596 394 594 341 Q 592 288 588 247 Q 586 206 578 170 Q 570 135 558 109 Q 548 83 530 57 L 520 40 Z" fill="lightgray" />
    
      <path d="M 724 291 Q 722 262 722 247 L 716 210 Q 714 186 710 174 Q 706 161 706 158 Q 705 154 705 150 Q 705 146 706 142 Q 707 135 710 123 L 718 100 Q 720 88 728 79 Q 736 69 740 69 L 741 69 Q 747 69 752 76 Q 758 84 760 96 Q 764 107 768 131 Q 772 154 772 166 L 776 398 Q 776 421 778 436 Q 780 452 782 460 Q 786 469 788 476 Q 792 482 792 486 Q 792 491 788 497 Q 784 504 776 508 Q 768 512 758 516 Q 746 519 738 521 Q 728 524 720 524 Q 709 523 708 519 Q 705 517 705 514 Q 705 512 706 510 Q 708 506 712 495 Q 718 484 720 471 Q 721 457 722 434 Q 724 411 724 388 L 724 291 Z" fill="lightgray" />
    
      <path d="M 852 45 Q 852 42 854 -16 L 854 -62 Q 854 -76 856 -94 Q 858 -112 860 -126 Q 864 -140 868 -140 L 869 -140 Q 873 -140 880 -127 Q 888 -114 890 -96 L 898 -60 Q 899 -42 902 -26 Q 904 -11 906 28 Q 908 66 910 96 L 920 476 Q 920 502 922 526 Q 924 551 924 560 Q 926 570 929 584 Q 932 598 936 608 Q 939 617 940 620 Q 940 626 936 633 Q 932 640 920 646 L 900 656 Q 894 660 880 664 Q 866 668 858 668 Q 852 668 848 664 Q 844 661 844 656 Q 844 650 848 644 Q 850 638 852 631 Q 854 624 856 610 Q 860 597 860 574 Q 862 552 862 528 L 852 45 Z" fill="lightgray" />
    
    
      <clipPath id="make-me-a-hanzi-clip-0">
        <path d="M 380 586 L 394 588 L 450 598 L 488 604 Q 505 606 514 611 Q 522 615 522 619 L 522 620 Q 522 625 512 632 Q 502 638 488 642 Q 474 646 468 646 Q 462 646 450 640 Q 436 636 406 629 Q 378 623 350 618 Q 321 612 302 610 Q 283 608 262 606 C 232 603 238 585 268 580 L 286 577 L 303 577 Q 316 578 334 581 L 380 586 Z" />
      </clipPath>
      <path clip-path="url(#make-me-a-hanzi-clip-0)" d="M 269 601 L 280 593 L 308 594 L 469 623 L 514 620" fill="none" id="make-me-a-hanzi-animation-0" stroke-dasharray="378 756" stroke-linecap="round" />
    
      <clipPath id="make-me-a-hanzi-clip-1">
        <path d="M 262 606 L 232 618 Q 220 623 210 624 Q 201 624 200 621 Q 197 618 196 614 Q 196 608 200 600 Q 205 591 208 584 Q 212 578 214 567 Q 218 557 220 535 Q 222 512 222 502 L 218 396 Q 216 374 214 354 Q 213 334 210 314 Q 205 294 200 284 Q 192 266 192 262 Q 192 258 196 250 Q 198 242 204 233 Q 210 224 216 221 Q 224 218 228 218 Q 231 218 238 223 Q 246 228 254 232 C 265 238 262 250 256 279 Q 253 281 253 287 Q 253 291 254 295 Q 254 308 256 327 Q 258 346 258 353 L 258 364 L 260 381 L 262 457 L 264 476 L 266 500 L 266 544 Q 268 560 268 580 C 268 603 268 603 262 606 Z" />
      </clipPath>
      <path clip-path="url(#make-me-a-hanzi-clip-1)" d="M 208 612 L 238 586 L 242 563 L 236 337 L 224 263 L 229 247 L 244 240" fill="none" id="make-me-a-hanzi-animation-1" stroke-dasharray="525 1050" stroke-linecap="round" />
    
      <clipPath id="make-me-a-hanzi-clip-2">
        <path d="M 396 465 L 478 478 Q 492 480 498 484 Q 502 488 502 494 Q 502 499 492 503 Q 482 508 466 511 Q 455 514 447 514 L 444 514 L 424 509 L 398 502 L 350 490 L 310 483 Q 306 482 292 480 L 264 476 C 234 472 234 467 262 457 L 276 452 Q 283 448 294 448 L 298 448 Q 310 449 322 451 Q 332 452 348 456 L 396 465 Z" />
      </clipPath>
      <path clip-path="url(#make-me-a-hanzi-clip-2)" d="M 271 461 L 446 494 L 492 492" fill="none" id="make-me-a-hanzi-animation-2" stroke-dasharray="352 704" stroke-linecap="round" />
    
      <clipPath id="make-me-a-hanzi-clip-3">
        <path d="M 392 364 L 472 374 Q 492 377 498 382 Q 504 388 504 392 Q 502 397 492 401 Q 484 405 470 408 Q 456 412 448 412 L 432 408 L 418 406 L 394 401 L 346 393 L 310 388 Q 294 384 282 384 Q 269 382 268 382 Q 264 382 260 381 C 231 377 231 377 258 364 L 266 360 Q 272 356 280 354 Q 286 353 292 353 L 298 353 Q 306 353 324 356 L 348 359 L 392 364 Z" />
      </clipPath>
      <path clip-path="url(#make-me-a-hanzi-clip-3)" d="M 265 376 L 295 369 L 428 389 L 494 391" fill="none" id="make-me-a-hanzi-animation-3" stroke-dasharray="359 718" stroke-linecap="round" />
    
      <clipPath id="make-me-a-hanzi-clip-4">
        <path d="M 388 291 L 392 364 L 394 401 L 396 465 L 398 502 L 400 521 L 402 536 Q 402 541 406 549 Q 408 558 408 563 Q 408 568 405 572 Q 402 576 396 578 Q 390 582 380 586 C 353 598 320 607 334 581 L 340 570 Q 342 566 344 559 Q 346 552 348 542 Q 350 533 350 522 L 350 490 L 348 456 L 346 393 L 348 359 L 346 286 C 345 256 386 261 388 291 Z" />
      </clipPath>
      <path clip-path="url(#make-me-a-hanzi-clip-4)" d="M 342 578 L 376 551 L 369 314 L 352 293" fill="none" id="make-me-a-hanzi-animation-4" stroke-dasharray="436 872" stroke-linecap="round" />
    
      <clipPath id="make-me-a-hanzi-clip-5">
        <path d="M 254 232 Q 261 236 280 240 Q 296 244 322 249 Q 348 254 372 257 L 426 262 Q 433 263 438 263 Q 452 263 456 259 Q 462 253 462 238 L 462 198 Q 459 174 458 141 Q 453 108 450 90 Q 446 70 438 38 Q 427 5 424 -4 Q 420 -12 414 -18 Q 408 -24 398 -24 L 395 -24 Q 385 -24 370 -19 Q 352 -13 348 -10 L 336 -6 Q 330 -4 326 -4 Q 322 -4 320 -6 L 320 -8 Q 320 -12 326 -18 L 340 -32 L 362 -60 Q 376 -78 384 -91 Q 392 -104 398 -106 Q 400 -107 402 -107 Q 411 -107 426 -96 Q 446 -84 458 -62 Q 470 -40 481 8 Q 492 56 498 88 L 506 160 Q 508 186 512 203 Q 514 219 518 230 Q 522 242 526 250 Q 532 257 532 260 Q 532 266 524 273 Q 518 280 506 287 Q 496 294 484 299 Q 473 304 466 304 Q 462 304 450 301 Q 438 298 424 296 L 410 294 L 388 291 L 346 286 L 300 280 Q 274 277 266 276 Q 260 276 256 279 C 226 281 226 223 254 232 Z" />
      </clipPath>
      <path clip-path="url(#make-me-a-hanzi-clip-5)" d="M 257 240 L 274 258 L 434 281 L 471 279 L 493 257 L 472 76 L 450 -11 L 438 -36 L 409 -60 L 324 -7" fill="none" id="make-me-a-hanzi-animation-5" stroke-dasharray="820 1640" stroke-linecap="round" />
    
      <clipPath id="make-me-a-hanzi-clip-6">
        <path d="M 140 183 Q 137 189 132 189 L 130 189 Q 125 188 124 180 L 122 164 Q 120 161 116 148 Q 114 134 112 128 L 102 108 L 94 92 L 86 83 Q 84 79 84 68 Q 84 56 86 44 Q 90 31 96 24 Q 102 18 108 17 L 109 17 Q 118 17 128 29 Q 139 43 144 56 Q 147 70 152 90 Q 154 110 154 120 Q 154 130 150 148 Q 148 165 144 172 L 140 183 Z" />
      </clipPath>
      <path clip-path="url(#make-me-a-hanzi-clip-6)" d="M 131 182 L 133 124 L 109 32" fill="none" id="make-me-a-hanzi-animation-6" stroke-dasharray="281 562" stroke-linecap="round" />
    
      <clipPath id="make-me-a-hanzi-clip-7">
        <path d="M 184 164 L 186 151 Q 190 138 194 126 L 204 98 Q 210 78 216 69 Q 222 60 230 60 L 233 60 Q 238 60 244 65 Q 250 72 252 82 Q 253 87 253 93 Q 253 99 252 106 Q 251 120 242 133 Q 231 146 222 154 Q 212 162 208 166 L 196 172 Q 191 174 188 174 Q 184 173 184 172 Q 183 171 183 169 Q 183 167 184 164 Z" />
      </clipPath>
      <path clip-path="url(#make-me-a-hanzi-clip-7)" d="M 188 169 L 220 124 L 231 77" fill="none" id="make-me-a-hanzi-animation-7" stroke-dasharray="231 462" stroke-linecap="round" />
    
      <clipPath id="make-me-a-hanzi-clip-8">
        <path d="M 270 164 Q 272 161 278 147 L 290 118 Q 298 103 304 97 Q 312 88 318 88 Q 326 89 332 99 Q 336 110 336 122 Q 336 134 330 144 Q 324 154 316 162 Q 308 168 300 172 Q 294 176 288 178 L 276 182 Q 269 184 268 184 Q 266 184 266 181 Q 265 180 265 179 Q 265 176 268 172 L 270 164 Z" />
      </clipPath>
      <path clip-path="url(#make-me-a-hanzi-clip-8)" d="M 271 180 L 304 143 L 318 98" fill="none" id="make-me-a-hanzi-animation-8" stroke-dasharray="225 450" stroke-linecap="round" />
    
      <clipPath id="make-me-a-hanzi-clip-9">
        <path d="M 362 175 Q 366 166 372 156 L 384 129 Q 390 114 398 106 Q 406 99 412 99 L 414 99 Q 420 100 426 109 Q 432 118 432 130 L 432 136 Q 432 147 426 156 Q 419 167 412 173 Q 404 179 394 185 Q 383 190 378 192 L 366 196 Q 359 198 358 198 Q 354 197 354 194 Q 353 193 353 192 Q 353 190 356 186 L 362 175 Z" />
      </clipPath>
      <path clip-path="url(#make-me-a-hanzi-clip-9)" d="M 358 191 L 399 153 L 413 112" fill="none" id="make-me-a-hanzi-animation-9" stroke-dasharray="227 454" stroke-linecap="round" />
    
      <clipPath id="make-me-a-hanzi-clip-10">
        <path d="M 520 40 Q 516 36 516 33 Q 516 31 518 29 Q 520 27 522 27 Q 526 27 530 30 L 544 42 Q 574 67 592 94 Q 610 120 622 161 Q 633 202 638 252 Q 644 303 646 344 L 648 401 L 648 456 Q 650 464 654 472 Q 657 480 657 484 L 657 486 Q 656 490 648 496 Q 638 503 628 507 Q 620 510 602 517 Q 593 520 587 520 Q 582 520 580 518 Q 576 514 576 510 Q 576 506 582 498 Q 586 490 590 478 Q 592 467 594 450 Q 596 433 596 412 Q 596 394 594 341 Q 592 288 588 247 Q 586 206 578 170 Q 570 135 558 109 Q 548 83 530 57 L 520 40 Z" />
      </clipPath>
      <path clip-path="url(#make-me-a-hanzi-clip-10)" d="M 586 510 L 622 476 L 620 325 L 612 231 L 602 173 L 580 110 L 561 77 L 523 34" fill="none" id="make-me-a-hanzi-animation-10" stroke-dasharray="644 1288" stroke-linecap="round" />
    
      <clipPath id="make-me-a-hanzi-clip-11">
        <path d="M 724 291 Q 722 262 722 247 L 716 210 Q 714 186 710 174 Q 706 161 706 158 Q 705 154 705 150 Q 705 146 706 142 Q 707 135 710 123 L 718 100 Q 720 88 728 79 Q 736 69 740 69 L 741 69 Q 747 69 752 76 Q 758 84 760 96 Q 764 107 768 131 Q 772 154 772 166 L 776 398 Q 776 421 778 436 Q 780 452 782 460 Q 786 469 788 476 Q 792 482 792 486 Q 792 491 788 497 Q 784 504 776 508 Q 768 512 758 516 Q 746 519 738 521 Q 728 524 720 524 Q 709 523 708 519 Q 705 517 705 514 Q 705 512 706 510 Q 708 506 712 495 Q 718 484 720 471 Q 721 457 722 434 Q 724 411 724 388 L 724 291 Z" />
      </clipPath>
      <path clip-path="url(#make-me-a-hanzi-clip-11)" d="M 712 514 L 746 490 L 753 477 L 748 252 L 738 150 L 741 82" fill="none" id="make-me-a-hanzi-animation-11" stroke-dasharray="580 1160" stroke-linecap="round" />
    
      <clipPath id="make-me-a-hanzi-clip-12">
        <path d="M 852 45 Q 852 42 854 -16 L 854 -62 Q 854 -76 856 -94 Q 858 -112 860 -126 Q 864 -140 868 -140 L 869 -140 Q 873 -140 880 -127 Q 888 -114 890 -96 L 898 -60 Q 899 -42 902 -26 Q 904 -11 906 28 Q 908 66 910 96 L 920 476 Q 920 502 922 526 Q 924 551 924 560 Q 926 570 929 584 Q 932 598 936 608 Q 939 617 940 620 Q 940 626 936 633 Q 932 640 920 646 L 900 656 Q 894 660 880 664 Q 866 668 858 668 Q 852 668 848 664 Q 844 661 844 656 Q 844 650 848 644 Q 850 638 852 631 Q 854 624 856 610 Q 860 597 860 574 Q 862 552 862 528 L 852 45 Z" />
      </clipPath>
      <path clip-path="url(#make-me-a-hanzi-clip-12)" d="M 858 654 L 896 614 L 879 -9 L 869 -135" fill="none" id="make-me-a-hanzi-animation-12" stroke-dasharray="933 1866" stroke-linecap="round" />
    
  </g>
</svg>