<svg xmlns="http://www.w3.org/2000/svg" version="1.1" viewBox="0 0 1024 1024">
  <g stroke="lightgray" stroke-dasharray="1,1" stroke-width="1" transform="scale(4, 4)">
    <line x1="0" y1="0" x2="256" y2="256" />
    <line x1="256" y1="0" x2="0" y2="256" />
    <line x1="128" y1="0" x2="128" y2="256" />
    <line x1="0" y1="128" x2="256" y2="128" />
  </g>
  <g transform="scale(1.0, -1.0) translate(0.0, -808.00)">
    <style type="text/css">
      
        @keyframes keyframes0 {
          from {
            stroke: blue;
            stroke-dashoffset: 526;
            stroke-width: 128;
          }
          63% {
            animation-timing-function: step-end;
            stroke: blue;
            stroke-dashoffset: 0;
            stroke-width: 128;
          }
          to {
            stroke: black;
            stroke-width: 1024;
          }
        }
        #make-me-a-hanzi-animation-0 {
          animation: keyframes0 0.6780598958333334s both;
          animation-delay: 0s;
          animation-timing-function: linear;
        }
      
        @keyframes keyframes1 {
          from {
            stroke: blue;
            stroke-dashoffset: 662;
            stroke-width: 128;
          }
          68% {
            animation-timing-function: step-end;
            stroke: blue;
            stroke-dashoffset: 0;
            stroke-width: 128;
          }
          to {
            stroke: black;
            stroke-width: 1024;
          }
        }
        #make-me-a-hanzi-animation-1 {
          animation: keyframes1 0.7887369791666666s both;
          animation-delay: 0.6780598958333334s;
          animation-timing-function: linear;
        }
      
        @keyframes keyframes2 {
          from {
            stroke: blue;
            stroke-dashoffset: 497;
            stroke-width: 128;
          }
          62% {
            animation-timing-function: step-end;
            stroke: blue;
            stroke-dashoffset: 0;
            stroke-width: 128;
          }
          to {
            stroke: black;
            stroke-width: 1024;
          }
        }
        #make-me-a-hanzi-animation-2 {
          animation: keyframes2 0.6544596354166666s both;
          animation-delay: 1.466796875s;
          animation-timing-function: linear;
        }
      
        @keyframes keyframes3 {
          from {
            stroke: blue;
            stroke-dashoffset: 509;
            stroke-width: 128;
          }
          62% {
            animation-timing-function: step-end;
            stroke: blue;
            stroke-dashoffset: 0;
            stroke-width: 128;
          }
          to {
            stroke: black;
            stroke-width: 1024;
          }
        }
        #make-me-a-hanzi-animation-3 {
          animation: keyframes3 0.6642252604166666s both;
          animation-delay: 2.1212565104166665s;
          animation-timing-function: linear;
        }
      
        @keyframes keyframes4 {
          from {
            stroke: blue;
            stroke-dashoffset: 581;
            stroke-width: 128;
          }
          65% {
            animation-timing-function: step-end;
            stroke: blue;
            stroke-dashoffset: 0;
            stroke-width: 128;
          }
          to {
            stroke: black;
            stroke-width: 1024;
          }
        }
        #make-me-a-hanzi-animation-4 {
          animation: keyframes4 0.7228190104166666s both;
          animation-delay: 2.785481770833333s;
          animation-timing-function: linear;
        }
      
        @keyframes keyframes5 {
          from {
            stroke: blue;
            stroke-dashoffset: 1018;
            stroke-width: 128;
          }
          77% {
            animation-timing-function: step-end;
            stroke: blue;
            stroke-dashoffset: 0;
            stroke-width: 128;
          }
          to {
            stroke: black;
            stroke-width: 1024;
          }
        }
        #make-me-a-hanzi-animation-5 {
          animation: keyframes5 1.0784505208333333s both;
          animation-delay: 3.5083007812499996s;
          animation-timing-function: linear;
        }
      
        @keyframes keyframes6 {
          from {
            stroke: blue;
            stroke-dashoffset: 413;
            stroke-width: 128;
          }
          57% {
            animation-timing-function: step-end;
            stroke: blue;
            stroke-dashoffset: 0;
            stroke-width: 128;
          }
          to {
            stroke: black;
            stroke-width: 1024;
          }
        }
        #make-me-a-hanzi-animation-6 {
          animation: keyframes6 0.5861002604166666s both;
          animation-delay: 4.586751302083333s;
          animation-timing-function: linear;
        }
      
        @keyframes keyframes7 {
          from {
            stroke: blue;
            stroke-dashoffset: 369;
            stroke-width: 128;
          }
          55% {
            animation-timing-function: step-end;
            stroke: blue;
            stroke-dashoffset: 0;
            stroke-width: 128;
          }
          to {
            stroke: black;
            stroke-width: 1024;
          }
        }
        #make-me-a-hanzi-animation-7 {
          animation: keyframes7 0.55029296875s both;
          animation-delay: 5.1728515625s;
          animation-timing-function: linear;
        }
      
        @keyframes keyframes8 {
          from {
            stroke: blue;
            stroke-dashoffset: 356;
            stroke-width: 128;
          }
          54% {
            animation-timing-function: step-end;
            stroke: blue;
            stroke-dashoffset: 0;
            stroke-width: 128;
          }
          to {
            stroke: black;
            stroke-width: 1024;
          }
        }
        #make-me-a-hanzi-animation-8 {
          animation: keyframes8 0.5397135416666666s both;
          animation-delay: 5.72314453125s;
          animation-timing-function: linear;
        }
      
        @keyframes keyframes9 {
          from {
            stroke: blue;
            stroke-dashoffset: 363;
            stroke-width: 128;
          }
          54% {
            animation-timing-function: step-end;
            stroke: blue;
            stroke-dashoffset: 0;
            stroke-width: 128;
          }
          to {
            stroke: black;
            stroke-width: 1024;
          }
        }
        #make-me-a-hanzi-animation-9 {
          animation: keyframes9 0.54541015625s both;
          animation-delay: 6.262858072916667s;
          animation-timing-function: linear;
        }
      
        @keyframes keyframes10 {
          from {
            stroke: blue;
            stroke-dashoffset: 421;
            stroke-width: 128;
          }
          58% {
            animation-timing-function: step-end;
            stroke: blue;
            stroke-dashoffset: 0;
            stroke-width: 128;
          }
          to {
            stroke: black;
            stroke-width: 1024;
          }
        }
        #make-me-a-hanzi-animation-10 {
          animation: keyframes10 0.5926106770833334s both;
          animation-delay: 6.808268229166667s;
          animation-timing-function: linear;
        }
      
        @keyframes keyframes11 {
          from {
            stroke: blue;
            stroke-dashoffset: 656;
            stroke-width: 128;
          }
          68% {
            animation-timing-function: step-end;
            stroke: blue;
            stroke-dashoffset: 0;
            stroke-width: 128;
          }
          to {
            stroke: black;
            stroke-width: 1024;
          }
        }
        #make-me-a-hanzi-animation-11 {
          animation: keyframes11 0.7838541666666666s both;
          animation-delay: 7.40087890625s;
          animation-timing-function: linear;
        }
      
        @keyframes keyframes12 {
          from {
            stroke: blue;
            stroke-dashoffset: 593;
            stroke-width: 128;
          }
          66% {
            animation-timing-function: step-end;
            stroke: blue;
            stroke-dashoffset: 0;
            stroke-width: 128;
          }
          to {
            stroke: black;
            stroke-width: 1024;
          }
        }
        #make-me-a-hanzi-animation-12 {
          animation: keyframes12 0.7325846354166666s both;
          animation-delay: 8.184733072916666s;
          animation-timing-function: linear;
        }
      
        @keyframes keyframes13 {
          from {
            stroke: blue;
            stroke-dashoffset: 617;
            stroke-width: 128;
          }
          67% {
            animation-timing-function: step-end;
            stroke: blue;
            stroke-dashoffset: 0;
            stroke-width: 128;
          }
          to {
            stroke: black;
            stroke-width: 1024;
          }
        }
        #make-me-a-hanzi-animation-13 {
          animation: keyframes13 0.7521158854166666s both;
          animation-delay: 8.917317708333332s;
          animation-timing-function: linear;
        }
      
        @keyframes keyframes14 {
          from {
            stroke: blue;
            stroke-dashoffset: 746;
            stroke-width: 128;
          }
          71% {
            animation-timing-function: step-end;
            stroke: blue;
            stroke-dashoffset: 0;
            stroke-width: 128;
          }
          to {
            stroke: black;
            stroke-width: 1024;
          }
        }
        #make-me-a-hanzi-animation-14 {
          animation: keyframes14 0.8570963541666666s both;
          animation-delay: 9.669433593749998s;
          animation-timing-function: linear;
        }
      
    </style>
    
      <path d="M 360 628 L 398 633 L 473 646 Q 514 653 510 664 Q 508 669 496 677 Q 483 684 469 688 Q 454 692 451 692 Q 447 691 428 684 Q 409 677 398 675 L 267 649 L 232 646 C 202 643 208 622 238 618 L 259 615 Q 262 613 278 615 L 298 617 L 313 621 L 360 628 Z" fill="lightgray" />
    
      <path d="M 165 654 Q 163 646 169 639 L 175 627 L 183 605 Q 185 600 187 569 Q 189 538 189 537 L 185 427 L 185 411 L 184 398 Q 184 390 182 384 L 180 370 Q 180 325 163 291 Q 163 277 165 274 Q 167 270 176 256 Q 190 234 209 248 C 236 260 233 276 226 305 Q 223 308 223 319 L 227 382 L 229 398 L 229 414 L 233 494 L 235 512 L 236 535 L 236 557 L 237 574 L 238 585 L 238 618 C 238 644 238 644 232 646 L 201 658 Q 187 665 176 664 Q 165 663 165 654 Z" fill="lightgray" />
    
      <path d="M 377 501 L 463 514 Q 477 516 482 521 Q 495 534 476 541 L 450 550 Q 435 555 430 553 L 429 552 L 421 551 L 406 548 L 379 539 L 329 527 L 251 514 Q 239 514 235 512 C 206 506 206 506 233 494 L 251 486 Q 259 482 272 482 L 326 492 L 377 501 Z" fill="lightgray" />
    
      <path d="M 372 396 L 456 407 Q 472 408 483 416 Q 492 425 491 428 Q 490 430 469 440 Q 448 449 415 443 L 399 440 L 375 436 L 324 428 L 287 422 Q 271 418 257 418 L 242 416 L 240 416 Q 236 414 229 414 C 203 411 203 411 229 398 L 241 392 Q 244 389 258 387 Q 271 385 272 385 L 300 388 L 326 392 L 372 396 Z" fill="lightgray" />
    
      <path d="M 368 315 L 372 396 L 375 436 L 377 501 L 379 539 L 381 560 L 381 572 Q 381 575 383 577 L 386 589 Q 389 601 389 606 Q 389 610 377 620 Q 361 628 360 628 C 333 640 302 649 313 621 L 322 599 Q 324 597 324 591 L 329 561 L 329 527 L 326 492 L 324 428 L 326 392 L 324 311 C 323 281 367 285 368 315 Z" fill="lightgray" />
    
      <path d="M 209 248 Q 229 258 254 264 L 297 273 Q 312 274 345 280 L 428 286 Q 457 288 461 282 Q 465 275 467 260 Q 467 237 463 210 Q 446 77 428 36 Q 414 -2 378 -5 Q 366 -6 351 1 L 317 14 Q 306 18 302 14 Q 297 9 307 0 L 321 -12 L 364 -75 Q 375 -95 381 -96 Q 390 -100 406 -88 Q 467 -51 481 14 Q 489 40 493 72 Q 497 103 503 130 L 524 254 L 538 283 Q 543 294 501 320 Q 481 332 471 332 L 429 323 Q 413 321 410 321 L 368 315 L 324 311 L 251 304 Q 229 302 226 305 C 196 306 181 236 209 248 Z" fill="lightgray" />
    
      <path d="M 110 209 Q 107 217 98 215 Q 92 213 91 206 L 88 188 L 84 172 Q 79 154 77 151 L 67 130 Q 63 121 57 115 L 49 104 Q 43 82 51 62 Q 53 49 59 43 Q 74 25 96 48 Q 109 62 113 77 Q 125 130 124 140 Q 123 150 121 172 Q 116 188 115 198 L 110 209 Z" fill="lightgray" />
    
      <path d="M 163 199 L 167 182 Q 169 171 175 157 L 183 126 Q 197 84 211 84 Q 217 82 223 89 Q 229 96 232 108 Q 235 142 223 164 Q 212 179 203 186 L 187 200 L 175 206 Q 170 209 167 208 Q 159 208 163 199 Z" fill="lightgray" />
    
      <path d="M 259 214 L 258 214 Q 251 210 257 201 L 276 155 Q 281 145 283.5 137 Q 286 129 295 120 Q 302 109 310.5 111 Q 319 113 325 124 Q 331 135 330 154 Q 329 173 293 201 Q 281 207 280 208 L 267 212 Q 263 212 259 214 Z" fill="lightgray" />
    
      <path d="M 344 232 Q 343 229 347 223 L 352 212 L 360 191 L 375 160 Q 384 142 391 135 Q 405 117 421 137 Q 427 148 427.5 163.5 Q 428 179 421 190 Q 411 211 391.5 220 Q 372 229 370 230 L 357 236 Q 348 238 347 237 Q 347 232 344 232 Z" fill="lightgray" />
    
      <path d="M 790 568 Q 786 612 744 630 L 698 650 Q 671 662 661 663 L 636 667 Q 621 667 621 658 Q 621 654 625 650 L 635 636 Q 644 621 666 596 L 701 554 Q 725 521 756 521 Q 790 523 790 568 Z" fill="lightgray" />
    
      <path d="M 750 430 L 813 440 L 907 457 L 934 466 Q 942 468 947 471 Q 949 474 951 478 Q 951 484 939 490 Q 923 500 911 506 Q 884 515 880 511 L 866 507 L 842 499 Q 833 497 787 486 Q 741 475 663.5 465.5 Q 586 456 578 454 L 555 452 Q 547 450 543.5 449 Q 540 448 540 444 Q 540 435 559 424 Q 565 418 582.5 415.5 Q 600 413 614.5 414.5 Q 629 416 635 416 L 683 422 L 750 430 Z" fill="lightgray" />
    
      <path d="M 766 257 L 876 272 Q 920 278 920 292 Q 920 297 912 302 Q 902 306 892 310 L 868 315 Q 850 318 844 318 Q 841 315 827 315 L 767 302 L 699 290 L 662 286 Q 620 278 607 276 L 584 274 Q 569 272 568 268 Q 567 264 574 254 Q 589 231 653 242 L 700 247 L 766 257 Z" fill="lightgray" />
    
      <path d="M 756 88 L 766 257 L 767 302 L 768 347 Q 768 380 774 395 Q 779 409 777 413 Q 775 416 771 419 L 750 430 C 723 444 672 450 683 422 L 691 402 Q 699 386 699 340 L 699 290 L 700 247 L 701 82 C 701 52 754 58 756 88 Z" fill="lightgray" />
    
      <path d="M 805 45 Q 848 45 901 47.5 Q 954 50 979 44 L 983 44 L 1012 46 Q 1020 46 1023 51 Q 1030 66 1009 78 L 980 94 Q 948 109 936 109 L 934 108 L 920 106 L 889 102 Q 887 102 880 100 L 854 96 L 756 88 L 701 82 L 655 77 L 601 72 Q 565 68 542 68 L 525 68 Q 520 68 517 57.5 Q 514 47 537 38 L 564 24 Q 589 14 594 14 Q 599 14 611 18 Q 679 39 775 44 L 805 45 Z" fill="lightgray" />
    
    
      <clipPath id="make-me-a-hanzi-clip-0">
        <path d="M 360 628 L 398 633 L 473 646 Q 514 653 510 664 Q 508 669 496 677 Q 483 684 469 688 Q 454 692 451 692 Q 447 691 428 684 Q 409 677 398 675 L 267 649 L 232 646 C 202 643 208 622 238 618 L 259 615 Q 262 613 278 615 L 298 617 L 313 621 L 360 628 Z" />
      </clipPath>
      <path clip-path="url(#make-me-a-hanzi-clip-0)" d="M 238 640 L 270 631 L 452 667 L 503 663" fill="none" id="make-me-a-hanzi-animation-0" stroke-dasharray="398 796" stroke-linecap="round" />
    
      <clipPath id="make-me-a-hanzi-clip-1">
        <path d="M 165 654 Q 163 646 169 639 L 175 627 L 183 605 Q 185 600 187 569 Q 189 538 189 537 L 185 427 L 185 411 L 184 398 Q 184 390 182 384 L 180 370 Q 180 325 163 291 Q 163 277 165 274 Q 167 270 176 256 Q 190 234 209 248 C 236 260 233 276 226 305 Q 223 308 223 319 L 227 382 L 229 398 L 229 414 L 233 494 L 235 512 L 236 535 L 236 557 L 237 574 L 238 585 L 238 618 C 238 644 238 644 232 646 L 201 658 Q 187 665 176 664 Q 165 663 165 654 Z" />
      </clipPath>
      <path clip-path="url(#make-me-a-hanzi-clip-1)" d="M 179 650 L 207 625 L 212 591 L 207 397 L 191 284 L 197 259" fill="none" id="make-me-a-hanzi-animation-1" stroke-dasharray="534 1068" stroke-linecap="round" />
    
      <clipPath id="make-me-a-hanzi-clip-2">
        <path d="M 377 501 L 463 514 Q 477 516 482 521 Q 495 534 476 541 L 450 550 Q 435 555 430 553 L 429 552 L 421 551 L 406 548 L 379 539 L 329 527 L 251 514 Q 239 514 235 512 C 206 506 206 506 233 494 L 251 486 Q 259 482 272 482 L 326 492 L 377 501 Z" />
      </clipPath>
      <path clip-path="url(#make-me-a-hanzi-clip-2)" d="M 239 507 L 268 499 L 418 529 L 476 530" fill="none" id="make-me-a-hanzi-animation-2" stroke-dasharray="369 738" stroke-linecap="round" />
    
      <clipPath id="make-me-a-hanzi-clip-3">
        <path d="M 372 396 L 456 407 Q 472 408 483 416 Q 492 425 491 428 Q 490 430 469 440 Q 448 449 415 443 L 399 440 L 375 436 L 324 428 L 287 422 Q 271 418 257 418 L 242 416 L 240 416 Q 236 414 229 414 C 203 411 203 411 229 398 L 241 392 Q 244 389 258 387 Q 271 385 272 385 L 300 388 L 326 392 L 372 396 Z" />
      </clipPath>
      <path clip-path="url(#make-me-a-hanzi-clip-3)" d="M 235 410 L 241 404 L 277 402 L 438 426 L 484 424" fill="none" id="make-me-a-hanzi-animation-3" stroke-dasharray="381 762" stroke-linecap="round" />
    
      <clipPath id="make-me-a-hanzi-clip-4">
        <path d="M 368 315 L 372 396 L 375 436 L 377 501 L 379 539 L 381 560 L 381 572 Q 381 575 383 577 L 386 589 Q 389 601 389 606 Q 389 610 377 620 Q 361 628 360 628 C 333 640 302 649 313 621 L 322 599 Q 324 597 324 591 L 329 561 L 329 527 L 326 492 L 324 428 L 326 392 L 324 311 C 323 281 367 285 368 315 Z" />
      </clipPath>
      <path clip-path="url(#make-me-a-hanzi-clip-4)" d="M 321 618 L 355 596 L 347 335 L 331 318" fill="none" id="make-me-a-hanzi-animation-4" stroke-dasharray="453 906" stroke-linecap="round" />
    
      <clipPath id="make-me-a-hanzi-clip-5">
        <path d="M 209 248 Q 229 258 254 264 L 297 273 Q 312 274 345 280 L 428 286 Q 457 288 461 282 Q 465 275 467 260 Q 467 237 463 210 Q 446 77 428 36 Q 414 -2 378 -5 Q 366 -6 351 1 L 317 14 Q 306 18 302 14 Q 297 9 307 0 L 321 -12 L 364 -75 Q 375 -95 381 -96 Q 390 -100 406 -88 Q 467 -51 481 14 Q 489 40 493 72 Q 497 103 503 130 L 524 254 L 538 283 Q 543 294 501 320 Q 481 332 471 332 L 429 323 Q 413 321 410 321 L 368 315 L 324 311 L 251 304 Q 229 302 226 305 C 196 306 181 236 209 248 Z" />
      </clipPath>
      <path clip-path="url(#make-me-a-hanzi-clip-5)" d="M 215 254 L 243 283 L 425 305 L 469 307 L 498 280 L 466 68 L 439 -9 L 423 -28 L 392 -44 L 309 9" fill="none" id="make-me-a-hanzi-animation-5" stroke-dasharray="890 1780" stroke-linecap="round" />
    
      <clipPath id="make-me-a-hanzi-clip-6">
        <path d="M 110 209 Q 107 217 98 215 Q 92 213 91 206 L 88 188 L 84 172 Q 79 154 77 151 L 67 130 Q 63 121 57 115 L 49 104 Q 43 82 51 62 Q 53 49 59 43 Q 74 25 96 48 Q 109 62 113 77 Q 125 130 124 140 Q 123 150 121 172 Q 116 188 115 198 L 110 209 Z" />
      </clipPath>
      <path clip-path="url(#make-me-a-hanzi-clip-6)" d="M 101 206 L 100 142 L 74 53" fill="none" id="make-me-a-hanzi-animation-6" stroke-dasharray="285 570" stroke-linecap="round" />
    
      <clipPath id="make-me-a-hanzi-clip-7">
        <path d="M 163 199 L 167 182 Q 169 171 175 157 L 183 126 Q 197 84 211 84 Q 217 82 223 89 Q 229 96 232 108 Q 235 142 223 164 Q 212 179 203 186 L 187 200 L 175 206 Q 170 209 167 208 Q 159 208 163 199 Z" />
      </clipPath>
      <path clip-path="url(#make-me-a-hanzi-clip-7)" d="M 170 201 L 200 156 L 212 98" fill="none" id="make-me-a-hanzi-animation-7" stroke-dasharray="241 482" stroke-linecap="round" />
    
      <clipPath id="make-me-a-hanzi-clip-8">
        <path d="M 259 214 L 258 214 Q 251 210 257 201 L 276 155 Q 281 145 283.5 137 Q 286 129 295 120 Q 302 109 310.5 111 Q 319 113 325 124 Q 331 135 330 154 Q 329 173 293 201 Q 281 207 280 208 L 267 212 Q 263 212 259 214 Z" />
      </clipPath>
      <path clip-path="url(#make-me-a-hanzi-clip-8)" d="M 259 207 L 298 166 L 308 124" fill="none" id="make-me-a-hanzi-animation-8" stroke-dasharray="228 456" stroke-linecap="round" />
    
      <clipPath id="make-me-a-hanzi-clip-9">
        <path d="M 344 232 Q 343 229 347 223 L 352 212 L 360 191 L 375 160 Q 384 142 391 135 Q 405 117 421 137 Q 427 148 427.5 163.5 Q 428 179 421 190 Q 411 211 391.5 220 Q 372 229 370 230 L 357 236 Q 348 238 347 237 Q 347 232 344 232 Z" />
      </clipPath>
      <path clip-path="url(#make-me-a-hanzi-clip-9)" d="M 351 231 L 395 183 L 406 143" fill="none" id="make-me-a-hanzi-animation-9" stroke-dasharray="235 470" stroke-linecap="round" />
    
      <clipPath id="make-me-a-hanzi-clip-10">
        <path d="M 790 568 Q 786 612 744 630 L 698 650 Q 671 662 661 663 L 636 667 Q 621 667 621 658 Q 621 654 625 650 L 635 636 Q 644 621 666 596 L 701 554 Q 725 521 756 521 Q 790 523 790 568 Z" />
      </clipPath>
      <path clip-path="url(#make-me-a-hanzi-clip-10)" d="M 630 657 L 731 587 L 756 553" fill="none" id="make-me-a-hanzi-animation-10" stroke-dasharray="293 586" stroke-linecap="round" />
    
      <clipPath id="make-me-a-hanzi-clip-11">
        <path d="M 750 430 L 813 440 L 907 457 L 934 466 Q 942 468 947 471 Q 949 474 951 478 Q 951 484 939 490 Q 923 500 911 506 Q 884 515 880 511 L 866 507 L 842 499 Q 833 497 787 486 Q 741 475 663.5 465.5 Q 586 456 578 454 L 555 452 Q 547 450 543.5 449 Q 540 448 540 444 Q 540 435 559 424 Q 565 418 582.5 415.5 Q 600 413 614.5 414.5 Q 629 416 635 416 L 683 422 L 750 430 Z" />
      </clipPath>
      <path clip-path="url(#make-me-a-hanzi-clip-11)" d="M 548 442 L 579 435 L 619 437 L 754 454 L 887 483 L 943 478" fill="none" id="make-me-a-hanzi-animation-11" stroke-dasharray="528 1056" stroke-linecap="round" />
    
      <clipPath id="make-me-a-hanzi-clip-12">
        <path d="M 766 257 L 876 272 Q 920 278 920 292 Q 920 297 912 302 Q 902 306 892 310 L 868 315 Q 850 318 844 318 Q 841 315 827 315 L 767 302 L 699 290 L 662 286 Q 620 278 607 276 L 584 274 Q 569 272 568 268 Q 567 264 574 254 Q 589 231 653 242 L 700 247 L 766 257 Z" />
      </clipPath>
      <path clip-path="url(#make-me-a-hanzi-clip-12)" d="M 576 263 L 619 257 L 848 293 L 910 292" fill="none" id="make-me-a-hanzi-animation-12" stroke-dasharray="465 930" stroke-linecap="round" />
    
      <clipPath id="make-me-a-hanzi-clip-13">
        <path d="M 756 88 L 766 257 L 767 302 L 768 347 Q 768 380 774 395 Q 779 409 777 413 Q 775 416 771 419 L 750 430 C 723 444 672 450 683 422 L 691 402 Q 699 386 699 340 L 699 290 L 700 247 L 701 82 C 701 52 754 58 756 88 Z" />
      </clipPath>
      <path clip-path="url(#make-me-a-hanzi-clip-13)" d="M 690 419 L 733 390 L 734 379 L 730 114 L 707 90" fill="none" id="make-me-a-hanzi-animation-13" stroke-dasharray="489 978" stroke-linecap="round" />
    
      <clipPath id="make-me-a-hanzi-clip-14">
        <path d="M 805 45 Q 848 45 901 47.5 Q 954 50 979 44 L 983 44 L 1012 46 Q 1020 46 1023 51 Q 1030 66 1009 78 L 980 94 Q 948 109 936 109 L 934 108 L 920 106 L 889 102 Q 887 102 880 100 L 854 96 L 756 88 L 701 82 L 655 77 L 601 72 Q 565 68 542 68 L 525 68 Q 520 68 517 57.5 Q 514 47 537 38 L 564 24 Q 589 14 594 14 Q 599 14 611 18 Q 679 39 775 44 L 805 45 Z" />
      </clipPath>
      <path clip-path="url(#make-me-a-hanzi-clip-14)" d="M 529 56 L 595 43 L 724 63 L 939 78 L 1013 58" fill="none" id="make-me-a-hanzi-animation-14" stroke-dasharray="618 1236" stroke-linecap="round" />
    
  </g>
</svg>