<svg xmlns="http://www.w3.org/2000/svg" version="1.1" viewBox="0 0 1024 1024">
  <g stroke="lightgray" stroke-dasharray="1,1" stroke-width="1" transform="scale(4, 4)">
    <line x1="0" y1="0" x2="256" y2="256" />
    <line x1="256" y1="0" x2="0" y2="256" />
    <line x1="128" y1="0" x2="128" y2="256" />
    <line x1="0" y1="128" x2="256" y2="128" />
  </g>
  <g transform="scale(1.0, -1.0) translate(0.0, -804.00)">
    <style type="text/css">
      
        @keyframes keyframes0 {
          from {
            stroke: blue;
            stroke-dashoffset: 990;
            stroke-width: 128;
          }
          76% {
            animation-timing-function: step-end;
            stroke: blue;
            stroke-dashoffset: 0;
            stroke-width: 128;
          }
          to {
            stroke: black;
            stroke-width: 1024;
          }
        }
        #make-me-a-hanzi-animation-0 {
          animation: keyframes0 1.0556640625s both;
          animation-delay: 0s;
          animation-timing-function: linear;
        }
      
        @keyframes keyframes1 {
          from {
            stroke: blue;
            stroke-dashoffset: 1152;
            stroke-width: 128;
          }
          79% {
            animation-timing-function: step-end;
            stroke: blue;
            stroke-dashoffset: 0;
            stroke-width: 128;
          }
          to {
            stroke: black;
            stroke-width: 1024;
          }
        }
        #make-me-a-hanzi-animation-1 {
          animation: keyframes1 1.1875s both;
          animation-delay: 1.0556640625s;
          animation-timing-function: linear;
        }
      
        @keyframes keyframes2 {
          from {
            stroke: blue;
            stroke-dashoffset: 354;
            stroke-width: 128;
          }
          54% {
            animation-timing-function: step-end;
            stroke: blue;
            stroke-dashoffset: 0;
            stroke-width: 128;
          }
          to {
            stroke: black;
            stroke-width: 1024;
          }
        }
        #make-me-a-hanzi-animation-2 {
          animation: keyframes2 0.5380859375s both;
          animation-delay: 2.2431640625s;
          animation-timing-function: linear;
        }
      
        @keyframes keyframes3 {
          from {
            stroke: blue;
            stroke-dashoffset: 370;
            stroke-width: 128;
          }
          55% {
            animation-timing-function: step-end;
            stroke: blue;
            stroke-dashoffset: 0;
            stroke-width: 128;
          }
          to {
            stroke: black;
            stroke-width: 1024;
          }
        }
        #make-me-a-hanzi-animation-3 {
          animation: keyframes3 0.5511067708333334s both;
          animation-delay: 2.78125s;
          animation-timing-function: linear;
        }
      
        @keyframes keyframes4 {
          from {
            stroke: blue;
            stroke-dashoffset: 343;
            stroke-width: 128;
          }
          53% {
            animation-timing-function: step-end;
            stroke: blue;
            stroke-dashoffset: 0;
            stroke-width: 128;
          }
          to {
            stroke: black;
            stroke-width: 1024;
          }
        }
        #make-me-a-hanzi-animation-4 {
          animation: keyframes4 0.5291341145833334s both;
          animation-delay: 3.3323567708333335s;
          animation-timing-function: linear;
        }
      
        @keyframes keyframes5 {
          from {
            stroke: blue;
            stroke-dashoffset: 404;
            stroke-width: 128;
          }
          57% {
            animation-timing-function: step-end;
            stroke: blue;
            stroke-dashoffset: 0;
            stroke-width: 128;
          }
          to {
            stroke: black;
            stroke-width: 1024;
          }
        }
        #make-me-a-hanzi-animation-5 {
          animation: keyframes5 0.5787760416666666s both;
          animation-delay: 3.861490885416667s;
          animation-timing-function: linear;
        }
      
        @keyframes keyframes6 {
          from {
            stroke: blue;
            stroke-dashoffset: 580;
            stroke-width: 128;
          }
          65% {
            animation-timing-function: step-end;
            stroke: blue;
            stroke-dashoffset: 0;
            stroke-width: 128;
          }
          to {
            stroke: black;
            stroke-width: 1024;
          }
        }
        #make-me-a-hanzi-animation-6 {
          animation: keyframes6 0.7220052083333334s both;
          animation-delay: 4.440266927083334s;
          animation-timing-function: linear;
        }
      
        @keyframes keyframes7 {
          from {
            stroke: blue;
            stroke-dashoffset: 763;
            stroke-width: 128;
          }
          71% {
            animation-timing-function: step-end;
            stroke: blue;
            stroke-dashoffset: 0;
            stroke-width: 128;
          }
          to {
            stroke: black;
            stroke-width: 1024;
          }
        }
        #make-me-a-hanzi-animation-7 {
          animation: keyframes7 0.8709309895833334s both;
          animation-delay: 5.162272135416667s;
          animation-timing-function: linear;
        }
      
        @keyframes keyframes8 {
          from {
            stroke: blue;
            stroke-dashoffset: 849;
            stroke-width: 128;
          }
          73% {
            animation-timing-function: step-end;
            stroke: blue;
            stroke-dashoffset: 0;
            stroke-width: 128;
          }
          to {
            stroke: black;
            stroke-width: 1024;
          }
        }
        #make-me-a-hanzi-animation-8 {
          animation: keyframes8 0.94091796875s both;
          animation-delay: 6.033203125s;
          animation-timing-function: linear;
        }
      
        @keyframes keyframes9 {
          from {
            stroke: blue;
            stroke-dashoffset: 628;
            stroke-width: 128;
          }
          67% {
            animation-timing-function: step-end;
            stroke: blue;
            stroke-dashoffset: 0;
            stroke-width: 128;
          }
          to {
            stroke: black;
            stroke-width: 1024;
          }
        }
        #make-me-a-hanzi-animation-9 {
          animation: keyframes9 0.7610677083333334s both;
          animation-delay: 6.97412109375s;
          animation-timing-function: linear;
        }
      
        @keyframes keyframes10 {
          from {
            stroke: blue;
            stroke-dashoffset: 490;
            stroke-width: 128;
          }
          61% {
            animation-timing-function: step-end;
            stroke: blue;
            stroke-dashoffset: 0;
            stroke-width: 128;
          }
          to {
            stroke: black;
            stroke-width: 1024;
          }
        }
        #make-me-a-hanzi-animation-10 {
          animation: keyframes10 0.6487630208333334s both;
          animation-delay: 7.735188802083333s;
          animation-timing-function: linear;
        }
      
        @keyframes keyframes11 {
          from {
            stroke: blue;
            stroke-dashoffset: 493;
            stroke-width: 128;
          }
          62% {
            animation-timing-function: step-end;
            stroke: blue;
            stroke-dashoffset: 0;
            stroke-width: 128;
          }
          to {
            stroke: black;
            stroke-width: 1024;
          }
        }
        #make-me-a-hanzi-animation-11 {
          animation: keyframes11 0.6512044270833334s both;
          animation-delay: 8.383951822916666s;
          animation-timing-function: linear;
        }
      
        @keyframes keyframes12 {
          from {
            stroke: blue;
            stroke-dashoffset: 468;
            stroke-width: 128;
          }
          60% {
            animation-timing-function: step-end;
            stroke: blue;
            stroke-dashoffset: 0;
            stroke-width: 128;
          }
          to {
            stroke: black;
            stroke-width: 1024;
          }
        }
        #make-me-a-hanzi-animation-12 {
          animation: keyframes12 0.630859375s both;
          animation-delay: 9.03515625s;
          animation-timing-function: linear;
        }
      
        @keyframes keyframes13 {
          from {
            stroke: blue;
            stroke-dashoffset: 480;
            stroke-width: 128;
          }
          61% {
            animation-timing-function: step-end;
            stroke: blue;
            stroke-dashoffset: 0;
            stroke-width: 128;
          }
          to {
            stroke: black;
            stroke-width: 1024;
          }
        }
        #make-me-a-hanzi-animation-13 {
          animation: keyframes13 0.640625s both;
          animation-delay: 9.666015625s;
          animation-timing-function: linear;
        }
      
        @keyframes keyframes14 {
          from {
            stroke: blue;
            stroke-dashoffset: 442;
            stroke-width: 128;
          }
          59% {
            animation-timing-function: step-end;
            stroke: blue;
            stroke-dashoffset: 0;
            stroke-width: 128;
          }
          to {
            stroke: black;
            stroke-width: 1024;
          }
        }
        #make-me-a-hanzi-animation-14 {
          animation: keyframes14 0.6097005208333334s both;
          animation-delay: 10.306640625s;
          animation-timing-function: linear;
        }
      
        @keyframes keyframes15 {
          from {
            stroke: blue;
            stroke-dashoffset: 915;
            stroke-width: 128;
          }
          75% {
            animation-timing-function: step-end;
            stroke: blue;
            stroke-dashoffset: 0;
            stroke-width: 128;
          }
          to {
            stroke: black;
            stroke-width: 1024;
          }
        }
        #make-me-a-hanzi-animation-15 {
          animation: keyframes15 0.99462890625s both;
          animation-delay: 10.916341145833334s;
          animation-timing-function: linear;
        }
      
        @keyframes keyframes16 {
          from {
            stroke: blue;
            stroke-dashoffset: 389;
            stroke-width: 128;
          }
          56% {
            animation-timing-function: step-end;
            stroke: blue;
            stroke-dashoffset: 0;
            stroke-width: 128;
          }
          to {
            stroke: black;
            stroke-width: 1024;
          }
        }
        #make-me-a-hanzi-animation-16 {
          animation: keyframes16 0.5665690104166666s both;
          animation-delay: 11.910970052083334s;
          animation-timing-function: linear;
        }
      
        @keyframes keyframes17 {
          from {
            stroke: blue;
            stroke-dashoffset: 338;
            stroke-width: 128;
          }
          52% {
            animation-timing-function: step-end;
            stroke: blue;
            stroke-dashoffset: 0;
            stroke-width: 128;
          }
          to {
            stroke: black;
            stroke-width: 1024;
          }
        }
        #make-me-a-hanzi-animation-17 {
          animation: keyframes17 0.5250651041666666s both;
          animation-delay: 12.4775390625s;
          animation-timing-function: linear;
        }
      
        @keyframes keyframes18 {
          from {
            stroke: blue;
            stroke-dashoffset: 337;
            stroke-width: 128;
          }
          52% {
            animation-timing-function: step-end;
            stroke: blue;
            stroke-dashoffset: 0;
            stroke-width: 128;
          }
          to {
            stroke: black;
            stroke-width: 1024;
          }
        }
        #make-me-a-hanzi-animation-18 {
          animation: keyframes18 0.5242513020833334s both;
          animation-delay: 13.002604166666666s;
          animation-timing-function: linear;
        }
      
        @keyframes keyframes19 {
          from {
            stroke: blue;
            stroke-dashoffset: 348;
            stroke-width: 128;
          }
          53% {
            animation-timing-function: step-end;
            stroke: blue;
            stroke-dashoffset: 0;
            stroke-width: 128;
          }
          to {
            stroke: black;
            stroke-width: 1024;
          }
        }
        #make-me-a-hanzi-animation-19 {
          animation: keyframes19 0.533203125s both;
          animation-delay: 13.52685546875s;
          animation-timing-function: linear;
        }
      
    </style>
    
      <path d="M 152 371 L 149 292 Q 147 248 138 193 Q 130 138 117 95 Q 104 52 89 21 Q 73 -10 58 -34 L 50 -47 Q 49 -49 49 -52 Q 49 -54 50 -57 Q 52 -60 54 -60 Q 56 -60 58 -58 L 69 -49 Q 92 -32 118 5 Q 146 42 159 82 Q 173 123 180 168 L 192 258 L 194 279 L 202 415 L 202 434 L 207 563 Q 207 573 209 581 Q 211 590 214 598 C 220 620 220 620 201 628 L 165 644 Q 153 650 145 650 Q 137 650 134 644 Q 133 641 133 637 L 133 634 Q 134 630 141 613 Q 148 596 150 560 Q 153 523 153 492 L 152 371 Z" fill="lightgray" />
    
      <path d="M 311 271 L 304 38 Q 303 26 300 15 Q 298 4 293 0 Q 291 -1 287 -1 Q 280 -1 266 3 Q 246 9 242 11 L 228 16 Q 225 17 223 17 Q 219 17 218 14 Q 217 13 217 11 Q 217 8 221 4 L 233 -7 L 256 -33 Q 270 -48 281 -68 Q 292 -87 300 -88 L 304 -88 Q 311 -88 322 -83 Q 336 -75 346 -50 Q 356 -26 360 -8 Q 364 10 364 38 L 364 235 L 364 258 L 367 543 Q 367 553 368 570 Q 370 586 377 597 Q 384 608 385 610 L 385 613 Q 385 618 383 622 Q 380 628 359 642 Q 339 656 330 660 Q 324 663 316 663 L 312 663 Q 308 662 298 657 Q 288 652 272 646 Q 258 642 238 637 L 201 628 C 172 621 185 590 214 598 L 250 608 Q 264 612 277 613 Q 282 614 286 614 Q 292 614 296 612 Q 303 609 306 602 Q 310 595 310 574 L 312 453 L 313 429 L 312 299 L 311 271 Z" fill="lightgray" />
    
      <path d="M 202 415 L 216 412 Q 224 410 238 410 Q 251 411 271 417 Q 291 422 313 429 C 342 438 341 445 312 453 L 282 461 Q 279 462 276 462 Q 273 462 270 461 Q 263 460 252 454 Q 240 447 230 443 Q 220 439 202 434 C 173 426 173 421 202 415 Z" fill="lightgray" />
    
      <path d="M 192 258 L 205 254 Q 210 253 217 253 L 224 253 Q 236 254 252 256 Q 267 259 281 263 Q 295 266 311 271 C 340 280 341 293 312 299 L 296 302 Q 283 304 277 304 L 274 304 Q 270 304 260 298 Q 249 293 236 288 Q 222 284 213 282 Q 203 280 194 279 C 164 275 163 267 192 258 Z" fill="lightgray" />
    
      <path d="M 444 653 L 442 653 Q 438 653 437 650 L 437 649 Q 437 646 439 644 L 444 637 Q 449 630 458 616 Q 467 603 471 598 Q 475 592 483 584 Q 491 576 497 574 Q 501 573 505 573 Q 511 573 515 577 Q 521 583 524 591 Q 526 598 526 604 Q 526 608 525 612 Q 524 622 516 629 Q 508 636 495 641 Q 482 646 472 648 Q 463 650 456 652 L 444 653 Z" fill="lightgray" />
    
      <path d="M 670 599 Q 667 596 667 594 Q 667 593 668 592 Q 669 590 671 590 Q 674 590 677 592 L 688 597 L 735 619 L 767 635 Q 780 642 790 644 Q 800 646 802 648 Q 804 650 804 653 Q 804 657 801 663 Q 796 672 784 683 Q 772 694 764 699 Q 756 704 752 706 Q 748 707 745 707 Q 742 707 740 706 Q 737 704 734 692 Q 732 680 726 669 L 713 648 L 697 627 Q 687 616 679 608 L 670 599 Z" fill="lightgray" />
    
      <path d="M 601 516 L 732 532 Q 746 534 754 538 Q 761 541 762 546 Q 762 550 756 554 Q 750 558 740 561 Q 730 564 720 566 Q 712 568 705 568 L 701 568 L 678 564 L 610 551 L 559 542 L 503 535 L 450 528 L 436 526 Q 430 526 428 522 L 428 521 Q 428 518 433 513 Q 440 506 449 504 Q 458 501 472 501 L 479 501 Q 487 501 498 502 Q 515 504 550 509 L 601 516 Z" fill="lightgray" />
    
      <path d="M 565 421 L 654 430 L 690 432 L 769 434 L 841 433 L 861 433 Q 884 433 888 437 Q 891 441 892 446 L 892 447 Q 892 451 883 459 Q 874 467 857 475 Q 840 483 832 485 Q 826 487 822 487 L 820 487 Q 815 487 802 485 L 776 480 Q 753 476 719 472 L 654 464 Q 622 460 582 456 L 530 450 L 492 444 Q 476 442 418 438 L 394 437 Q 374 436 372 432 Q 371 431 371 428 Q 371 426 372 423 Q 374 417 388 411 L 411 400 Q 427 393 441 393 L 444 393 Q 450 393 466 398 Q 482 402 509 408 L 565 421 Z" fill="lightgray" />
    
      <path d="M 364 235 L 397 247 Q 414 252 434 267 Q 454 282 473 300 L 494 321 L 512 343 Q 530 365 542 383 L 565 421 L 582 456 L 590 483 Q 592 488 601 516 L 610 551 L 626 612 L 633 645 Q 638 669 641 680 Q 644 690 650 697 Q 654 704 655 706 L 655 707 Q 655 713 648 719 Q 640 726 626 733 Q 612 740 601 744 Q 592 748 586 748 L 584 748 Q 579 747 576 744 Q 575 743 575 739 Q 575 735 576 729 Q 579 717 580 710 Q 582 702 583 692 L 583 686 Q 583 675 581 655 Q 578 628 576 616 L 559 542 L 550 509 L 540 477 Q 538 472 530 450 L 509 408 L 484 370 Q 469 348 443 322 Q 417 296 400 283 L 364 258 C 339 241 336 225 364 235 Z" fill="lightgray" />
    
      <path d="M 654 430 L 681 405 Q 706 382 719 368 L 753 332 L 800 280 Q 828 250 839 243 Q 850 236 860 235 Q 865 234 871 234 Q 879 234 889 236 Q 906 239 931 244 Q 955 250 966 252 L 977 254 Q 982 256 982 260 Q 982 264 980 266 L 971 269 L 940 279 Q 924 284 895 295 Q 865 306 843 318 Q 820 329 796 347 L 740 390 L 690 432 C 667 451 632 450 654 430 Z" fill="lightgray" />
    
      <path d="M 634 308 L 720 322 Q 735 325 736 329 Q 737 330 737 331 Q 737 335 732 339 Q 727 346 714 351 Q 700 356 695 356 Q 690 356 681 354 L 666 349 Q 651 344 608 337 Q 565 330 550 328 L 494 321 C 464 317 492 295 522 296 L 544 297 Q 552 297 586 301 L 634 308 Z" fill="lightgray" />
    
      <path d="M 473 300 L 477 278 Q 478 272 478 245 Q 476 193 475 184 Q 474 175 472 153 Q 469 132 464 122 Q 460 112 460 111 L 460 104 Q 461 102 466 90 Q 472 78 476 72 Q 480 66 488 65 L 489 65 Q 494 65 506 72 C 513 76 512 86 508 116 Q 507 117 507 125 L 507 134 L 510 161 L 512 180 L 514 225 L 515 246 L 519 273 Q 520 276 522 296 C 527 348 466 341 473 300 Z" fill="lightgray" />
    
      <path d="M 631 236 L 719 249 Q 728 250 731 253 Q 734 256 734 258 Q 734 262 727 266 Q 720 270 706 273 Q 693 276 687 276 L 666 272 L 633 265 L 587 256 L 515 246 C 485 242 484 228 514 225 L 532 223 L 537 223 Q 542 223 551 224 Q 564 225 586 228 L 631 236 Z" fill="lightgray" />
    
      <path d="M 628 167 L 717 177 Q 732 178 737 182 Q 742 185 742 188 Q 742 192 735 195 Q 728 199 722 201 Q 716 204 707 206 Q 698 208 695 208 Q 692 208 672 204 L 628 196 L 586 190 L 512 180 C 482 176 480 165 510 161 L 526 159 Q 534 158 550 158 Q 564 159 584 161 L 628 167 Z" fill="lightgray" />
    
      <path d="M 626 128 L 628 167 L 628 196 L 631 236 L 633 265 L 634 308 C 635 338 585 331 586 301 L 587 256 L 586 228 L 586 190 L 584 161 L 584 122 C 584 92 624 98 626 128 Z" fill="lightgray" />
    
      <path d="M 506 72 Q 520 80 551 85 Q 581 90 614 94 Q 648 97 678 98 Q 708 100 748 100 Q 778 100 782 93 Q 786 87 786 76 L 786 72 Q 786 59 784 41 Q 782 23 778 -3 Q 774 -28 767 -51 Q 760 -73 748 -79 Q 739 -83 731 -83 L 726 -83 Q 715 -82 684 -68 L 668 -61 Q 665 -60 663 -60 Q 661 -60 659 -62 Q 658 -64 658 -65 Q 658 -68 660 -70 L 670 -80 Q 682 -94 696 -115 Q 712 -136 718 -148 Q 724 -161 728 -162 Q 730 -164 734 -164 Q 738 -164 744 -162 Q 754 -158 769 -148 Q 784 -137 797 -121 Q 810 -105 817 -81 Q 825 -58 828 -40 L 837 36 Q 838 45 841 58 Q 844 72 849 78 Q 859 94 859 98 L 859 99 Q 859 103 851 110 Q 844 118 826 126 Q 810 136 797 140 Q 784 144 778 145 Q 772 145 760 142 Q 746 138 728 136 Q 709 134 690 133 L 626 128 L 584 122 L 540 116 Q 522 113 517 113 L 515 113 Q 511 113 508 116 C 478 119 478 61 506 72 Z" fill="lightgray" />
    
      <path d="M 414 37 Q 410 24 407 19 L 396 -2 Q 387 -16 382 -26 Q 378 -36 378 -42 L 378 -60 Q 379 -72 382 -79 Q 386 -86 393 -86 Q 395 -87 396 -87 Q 400 -87 405 -84 Q 412 -80 420 -68 Q 428 -56 432 -36 Q 436 -18 437 -6 Q 438 2 438 9 Q 438 16 437 21 Q 436 32 434 40 L 430 50 Q 428 58 425 58 Q 422 58 420 50 L 414 37 Z" fill="lightgray" />
    
      <path d="M 485 32 L 489 19 Q 489 18 498 -2 L 508 -31 Q 510 -38 514 -43 Q 518 -48 522 -48 L 525 -48 Q 531 -48 536 -40 Q 540 -28 540 -16 Q 538 -2 534 6 Q 530 15 520 24 Q 509 32 502 36 L 494 39 Q 491 41 488 41 Q 486 41 485 39 L 485 32 Z" fill="lightgray" />
    
      <path d="M 564 43 L 572 30 L 575 22 Q 578 14 587 -3 Q 596 -20 604 -24 Q 609 -28 614 -28 Q 616 -28 618 -27 Q 624 -24 626 -20 Q 629 -14 630 -8 L 630 -4 Q 630 3 628 12 Q 626 23 618 30 Q 612 36 601 41 Q 591 46 582 49 L 571 52 Q 569 53 567 53 Q 565 53 564 51 Q 563 50 563 48 Q 563 46 564 43 Z" fill="lightgray" />
    
      <path d="M 655 72 Q 652 73 650 73 Q 647 73 645 71 Q 644 70 644 68 Q 644 66 645 64 L 649 57 L 665 30 L 681 6 Q 690 -8 695 -12 Q 701 -16 709 -16 Q 716 -16 720 -12 Q 725 -9 728 4 Q 729 12 729 19 L 729 26 Q 728 36 722 42 Q 717 50 708 54 Q 698 59 686 64 Q 674 68 666 70 L 655 72 Z" fill="lightgray" />
    
    
      <clipPath id="make-me-a-hanzi-clip-0">
        <path d="M 152 371 L 149 292 Q 147 248 138 193 Q 130 138 117 95 Q 104 52 89 21 Q 73 -10 58 -34 L 50 -47 Q 49 -49 49 -52 Q 49 -54 50 -57 Q 52 -60 54 -60 Q 56 -60 58 -58 L 69 -49 Q 92 -32 118 5 Q 146 42 159 82 Q 173 123 180 168 L 192 258 L 194 279 L 202 415 L 202 434 L 207 563 Q 207 573 209 581 Q 211 590 214 598 C 220 620 220 620 201 628 L 165 644 Q 153 650 145 650 Q 137 650 134 644 Q 133 641 133 637 L 133 634 Q 134 630 141 613 Q 148 596 150 560 Q 153 523 153 492 L 152 371 Z" />
      </clipPath>
      <path clip-path="url(#make-me-a-hanzi-clip-0)" d="M 144 639 L 172 611 L 179 593 L 176 378 L 166 223 L 148 122 L 132 70 L 108 20 L 54 -55" fill="none" id="make-me-a-hanzi-animation-0" stroke-dasharray="862 1724" stroke-linecap="round" />
    
      <clipPath id="make-me-a-hanzi-clip-1">
        <path d="M 311 271 L 304 38 Q 303 26 300 15 Q 298 4 293 0 Q 291 -1 287 -1 Q 280 -1 266 3 Q 246 9 242 11 L 228 16 Q 225 17 223 17 Q 219 17 218 14 Q 217 13 217 11 Q 217 8 221 4 L 233 -7 L 256 -33 Q 270 -48 281 -68 Q 292 -87 300 -88 L 304 -88 Q 311 -88 322 -83 Q 336 -75 346 -50 Q 356 -26 360 -8 Q 364 10 364 38 L 364 235 L 364 258 L 367 543 Q 367 553 368 570 Q 370 586 377 597 Q 384 608 385 610 L 385 613 Q 385 618 383 622 Q 380 628 359 642 Q 339 656 330 660 Q 324 663 316 663 L 312 663 Q 308 662 298 657 Q 288 652 272 646 Q 258 642 238 637 L 201 628 C 172 621 185 590 214 598 L 250 608 Q 264 612 277 613 Q 282 614 286 614 Q 292 614 296 612 Q 303 609 306 602 Q 310 595 310 574 L 312 453 L 313 429 L 312 299 L 311 271 Z" />
      </clipPath>
      <path clip-path="url(#make-me-a-hanzi-clip-1)" d="M 208 625 L 228 618 L 286 633 L 316 634 L 342 606 L 332 14 L 328 -6 L 309 -37 L 224 11" fill="none" id="make-me-a-hanzi-animation-1" stroke-dasharray="1024 2048" stroke-linecap="round" />
    
      <clipPath id="make-me-a-hanzi-clip-2">
        <path d="M 202 415 L 216 412 Q 224 410 238 410 Q 251 411 271 417 Q 291 422 313 429 C 342 438 341 445 312 453 L 282 461 Q 279 462 276 462 Q 273 462 270 461 Q 263 460 252 454 Q 240 447 230 443 Q 220 439 202 434 C 173 426 173 421 202 415 Z" />
      </clipPath>
      <path clip-path="url(#make-me-a-hanzi-clip-2)" d="M 210 420 L 276 440 L 296 441 L 303 435" fill="none" id="make-me-a-hanzi-animation-2" stroke-dasharray="226 452" stroke-linecap="round" />
    
      <clipPath id="make-me-a-hanzi-clip-3">
        <path d="M 192 258 L 205 254 Q 210 253 217 253 L 224 253 Q 236 254 252 256 Q 267 259 281 263 Q 295 266 311 271 C 340 280 341 293 312 299 L 296 302 Q 283 304 277 304 L 274 304 Q 270 304 260 298 Q 249 293 236 288 Q 222 284 213 282 Q 203 280 194 279 C 164 275 163 267 192 258 Z" />
      </clipPath>
      <path clip-path="url(#make-me-a-hanzi-clip-3)" d="M 199 273 L 206 267 L 243 271 L 307 292" fill="none" id="make-me-a-hanzi-animation-3" stroke-dasharray="242 484" stroke-linecap="round" />
    
      <clipPath id="make-me-a-hanzi-clip-4">
        <path d="M 444 653 L 442 653 Q 438 653 437 650 L 437 649 Q 437 646 439 644 L 444 637 Q 449 630 458 616 Q 467 603 471 598 Q 475 592 483 584 Q 491 576 497 574 Q 501 573 505 573 Q 511 573 515 577 Q 521 583 524 591 Q 526 598 526 604 Q 526 608 525 612 Q 524 622 516 629 Q 508 636 495 641 Q 482 646 472 648 Q 463 650 456 652 L 444 653 Z" />
      </clipPath>
      <path clip-path="url(#make-me-a-hanzi-clip-4)" d="M 441 650 L 496 610 L 503 592" fill="none" id="make-me-a-hanzi-animation-4" stroke-dasharray="215 430" stroke-linecap="round" />
    
      <clipPath id="make-me-a-hanzi-clip-5">
        <path d="M 670 599 Q 667 596 667 594 Q 667 593 668 592 Q 669 590 671 590 Q 674 590 677 592 L 688 597 L 735 619 L 767 635 Q 780 642 790 644 Q 800 646 802 648 Q 804 650 804 653 Q 804 657 801 663 Q 796 672 784 683 Q 772 694 764 699 Q 756 704 752 706 Q 748 707 745 707 Q 742 707 740 706 Q 737 704 734 692 Q 732 680 726 669 L 713 648 L 697 627 Q 687 616 679 608 L 670 599 Z" />
      </clipPath>
      <path clip-path="url(#make-me-a-hanzi-clip-5)" d="M 793 654 L 759 665 L 671 595" fill="none" id="make-me-a-hanzi-animation-5" stroke-dasharray="276 552" stroke-linecap="round" />
    
      <clipPath id="make-me-a-hanzi-clip-6">
        <path d="M 601 516 L 732 532 Q 746 534 754 538 Q 761 541 762 546 Q 762 550 756 554 Q 750 558 740 561 Q 730 564 720 566 Q 712 568 705 568 L 701 568 L 678 564 L 610 551 L 559 542 L 503 535 L 450 528 L 436 526 Q 430 526 428 522 L 428 521 Q 428 518 433 513 Q 440 506 449 504 Q 458 501 472 501 L 479 501 Q 487 501 498 502 Q 515 504 550 509 L 601 516 Z" />
      </clipPath>
      <path clip-path="url(#make-me-a-hanzi-clip-6)" d="M 433 522 L 466 515 L 699 548 L 754 546" fill="none" id="make-me-a-hanzi-animation-6" stroke-dasharray="452 904" stroke-linecap="round" />
    
      <clipPath id="make-me-a-hanzi-clip-7">
        <path d="M 565 421 L 654 430 L 690 432 L 769 434 L 841 433 L 861 433 Q 884 433 888 437 Q 891 441 892 446 L 892 447 Q 892 451 883 459 Q 874 467 857 475 Q 840 483 832 485 Q 826 487 822 487 L 820 487 Q 815 487 802 485 L 776 480 Q 753 476 719 472 L 654 464 Q 622 460 582 456 L 530 450 L 492 444 Q 476 442 418 438 L 394 437 Q 374 436 372 432 Q 371 431 371 428 Q 371 426 372 423 Q 374 417 388 411 L 411 400 Q 427 393 441 393 L 444 393 Q 450 393 466 398 Q 482 402 509 408 L 565 421 Z" />
      </clipPath>
      <path clip-path="url(#make-me-a-hanzi-clip-7)" d="M 378 428 L 443 416 L 564 438 L 811 460 L 880 446" fill="none" id="make-me-a-hanzi-animation-7" stroke-dasharray="635 1270" stroke-linecap="round" />
    
      <clipPath id="make-me-a-hanzi-clip-8">
        <path d="M 364 235 L 397 247 Q 414 252 434 267 Q 454 282 473 300 L 494 321 L 512 343 Q 530 365 542 383 L 565 421 L 582 456 L 590 483 Q 592 488 601 516 L 610 551 L 626 612 L 633 645 Q 638 669 641 680 Q 644 690 650 697 Q 654 704 655 706 L 655 707 Q 655 713 648 719 Q 640 726 626 733 Q 612 740 601 744 Q 592 748 586 748 L 584 748 Q 579 747 576 744 Q 575 743 575 739 Q 575 735 576 729 Q 579 717 580 710 Q 582 702 583 692 L 583 686 Q 583 675 581 655 Q 578 628 576 616 L 559 542 L 550 509 L 540 477 Q 538 472 530 450 L 509 408 L 484 370 Q 469 348 443 322 Q 417 296 400 283 L 364 258 C 339 241 336 225 364 235 Z" />
      </clipPath>
      <path clip-path="url(#make-me-a-hanzi-clip-8)" d="M 583 740 L 614 696 L 601 610 L 559 460 L 529 400 L 484 338 L 429 284 L 376 252 L 368 241" fill="none" id="make-me-a-hanzi-animation-8" stroke-dasharray="721 1442" stroke-linecap="round" />
    
      <clipPath id="make-me-a-hanzi-clip-9">
        <path d="M 654 430 L 681 405 Q 706 382 719 368 L 753 332 L 800 280 Q 828 250 839 243 Q 850 236 860 235 Q 865 234 871 234 Q 879 234 889 236 Q 906 239 931 244 Q 955 250 966 252 L 977 254 Q 982 256 982 260 Q 982 264 980 266 L 971 269 L 940 279 Q 924 284 895 295 Q 865 306 843 318 Q 820 329 796 347 L 740 390 L 690 432 C 667 451 632 450 654 430 Z" />
      </clipPath>
      <path clip-path="url(#make-me-a-hanzi-clip-9)" d="M 660 428 L 687 418 L 782 330 L 856 273 L 904 264 L 975 261" fill="none" id="make-me-a-hanzi-animation-9" stroke-dasharray="500 1000" stroke-linecap="round" />
    
      <clipPath id="make-me-a-hanzi-clip-10">
        <path d="M 634 308 L 720 322 Q 735 325 736 329 Q 737 330 737 331 Q 737 335 732 339 Q 727 346 714 351 Q 700 356 695 356 Q 690 356 681 354 L 666 349 Q 651 344 608 337 Q 565 330 550 328 L 494 321 C 464 317 492 295 522 296 L 544 297 Q 552 297 586 301 L 634 308 Z" />
      </clipPath>
      <path clip-path="url(#make-me-a-hanzi-clip-10)" d="M 501 320 L 526 310 L 691 337 L 731 333" fill="none" id="make-me-a-hanzi-animation-10" stroke-dasharray="362 724" stroke-linecap="round" />
    
      <clipPath id="make-me-a-hanzi-clip-11">
        <path d="M 473 300 L 477 278 Q 478 272 478 245 Q 476 193 475 184 Q 474 175 472 153 Q 469 132 464 122 Q 460 112 460 111 L 460 104 Q 461 102 466 90 Q 472 78 476 72 Q 480 66 488 65 L 489 65 Q 494 65 506 72 C 513 76 512 86 508 116 Q 507 117 507 125 L 507 134 L 510 161 L 512 180 L 514 225 L 515 246 L 519 273 Q 520 276 522 296 C 527 348 466 341 473 300 Z" />
      </clipPath>
      <path clip-path="url(#make-me-a-hanzi-clip-11)" d="M 493 311 L 498 287 L 496 218 L 484 106 L 490 83 L 496 80" fill="none" id="make-me-a-hanzi-animation-11" stroke-dasharray="365 730" stroke-linecap="round" />
    
      <clipPath id="make-me-a-hanzi-clip-12">
        <path d="M 631 236 L 719 249 Q 728 250 731 253 Q 734 256 734 258 Q 734 262 727 266 Q 720 270 706 273 Q 693 276 687 276 L 666 272 L 633 265 L 587 256 L 515 246 C 485 242 484 228 514 225 L 532 223 L 537 223 Q 542 223 551 224 Q 564 225 586 228 L 631 236 Z" />
      </clipPath>
      <path clip-path="url(#make-me-a-hanzi-clip-12)" d="M 519 230 L 527 236 L 685 260 L 727 259" fill="none" id="make-me-a-hanzi-animation-12" stroke-dasharray="340 680" stroke-linecap="round" />
    
      <clipPath id="make-me-a-hanzi-clip-13">
        <path d="M 628 167 L 717 177 Q 732 178 737 182 Q 742 185 742 188 Q 742 192 735 195 Q 728 199 722 201 Q 716 204 707 206 Q 698 208 695 208 Q 692 208 672 204 L 628 196 L 586 190 L 512 180 C 482 176 480 165 510 161 L 526 159 Q 534 158 550 158 Q 564 159 584 161 L 628 167 Z" />
      </clipPath>
      <path clip-path="url(#make-me-a-hanzi-clip-13)" d="M 515 165 L 523 171 L 590 175 L 698 192 L 735 188" fill="none" id="make-me-a-hanzi-animation-13" stroke-dasharray="352 704" stroke-linecap="round" />
    
      <clipPath id="make-me-a-hanzi-clip-14">
        <path d="M 626 128 L 628 167 L 628 196 L 631 236 L 633 265 L 634 308 C 635 338 585 331 586 301 L 587 256 L 586 228 L 586 190 L 584 161 L 584 122 C 584 92 624 98 626 128 Z" />
      </clipPath>
      <path clip-path="url(#make-me-a-hanzi-clip-14)" d="M 629 301 L 609 279 L 606 147 L 590 129" fill="none" id="make-me-a-hanzi-animation-14" stroke-dasharray="314 628" stroke-linecap="round" />
    
      <clipPath id="make-me-a-hanzi-clip-15">
        <path d="M 506 72 Q 520 80 551 85 Q 581 90 614 94 Q 648 97 678 98 Q 708 100 748 100 Q 778 100 782 93 Q 786 87 786 76 L 786 72 Q 786 59 784 41 Q 782 23 778 -3 Q 774 -28 767 -51 Q 760 -73 748 -79 Q 739 -83 731 -83 L 726 -83 Q 715 -82 684 -68 L 668 -61 Q 665 -60 663 -60 Q 661 -60 659 -62 Q 658 -64 658 -65 Q 658 -68 660 -70 L 670 -80 Q 682 -94 696 -115 Q 712 -136 718 -148 Q 724 -161 728 -162 Q 730 -164 734 -164 Q 738 -164 744 -162 Q 754 -158 769 -148 Q 784 -137 797 -121 Q 810 -105 817 -81 Q 825 -58 828 -40 L 837 36 Q 838 45 841 58 Q 844 72 849 78 Q 859 94 859 98 L 859 99 Q 859 103 851 110 Q 844 118 826 126 Q 810 136 797 140 Q 784 144 778 145 Q 772 145 760 142 Q 746 138 728 136 Q 709 134 690 133 L 626 128 L 584 122 L 540 116 Q 522 113 517 113 L 515 113 Q 511 113 508 116 C 478 119 478 61 506 72 Z" />
      </clipPath>
      <path clip-path="url(#make-me-a-hanzi-clip-15)" d="M 510 79 L 524 97 L 607 110 L 770 121 L 800 112 L 818 90 L 802 -29 L 776 -98 L 745 -119 L 663 -65" fill="none" id="make-me-a-hanzi-animation-15" stroke-dasharray="787 1574" stroke-linecap="round" />
    
      <clipPath id="make-me-a-hanzi-clip-16">
        <path d="M 414 37 Q 410 24 407 19 L 396 -2 Q 387 -16 382 -26 Q 378 -36 378 -42 L 378 -60 Q 379 -72 382 -79 Q 386 -86 393 -86 Q 395 -87 396 -87 Q 400 -87 405 -84 Q 412 -80 420 -68 Q 428 -56 432 -36 Q 436 -18 437 -6 Q 438 2 438 9 Q 438 16 437 21 Q 436 32 434 40 L 430 50 Q 428 58 425 58 Q 422 58 420 50 L 414 37 Z" />
      </clipPath>
      <path clip-path="url(#make-me-a-hanzi-clip-16)" d="M 425 52 L 420 3 L 396 -69 L 398 -77" fill="none" id="make-me-a-hanzi-animation-16" stroke-dasharray="261 522" stroke-linecap="round" />
    
      <clipPath id="make-me-a-hanzi-clip-17">
        <path d="M 485 32 L 489 19 Q 489 18 498 -2 L 508 -31 Q 510 -38 514 -43 Q 518 -48 522 -48 L 525 -48 Q 531 -48 536 -40 Q 540 -28 540 -16 Q 538 -2 534 6 Q 530 15 520 24 Q 509 32 502 36 L 494 39 Q 491 41 488 41 Q 486 41 485 39 L 485 32 Z" />
      </clipPath>
      <path clip-path="url(#make-me-a-hanzi-clip-17)" d="M 490 36 L 516 1 L 524 -37" fill="none" id="make-me-a-hanzi-animation-17" stroke-dasharray="210 420" stroke-linecap="round" />
    
      <clipPath id="make-me-a-hanzi-clip-18">
        <path d="M 564 43 L 572 30 L 575 22 Q 578 14 587 -3 Q 596 -20 604 -24 Q 609 -28 614 -28 Q 616 -28 618 -27 Q 624 -24 626 -20 Q 629 -14 630 -8 L 630 -4 Q 630 3 628 12 Q 626 23 618 30 Q 612 36 601 41 Q 591 46 582 49 L 571 52 Q 569 53 567 53 Q 565 53 564 51 Q 563 50 563 48 Q 563 46 564 43 Z" />
      </clipPath>
      <path clip-path="url(#make-me-a-hanzi-clip-18)" d="M 568 48 L 606 10 L 613 -16" fill="none" id="make-me-a-hanzi-animation-18" stroke-dasharray="209 418" stroke-linecap="round" />
    
      <clipPath id="make-me-a-hanzi-clip-19">
        <path d="M 655 72 Q 652 73 650 73 Q 647 73 645 71 Q 644 70 644 68 Q 644 66 645 64 L 649 57 L 665 30 L 681 6 Q 690 -8 695 -12 Q 701 -16 709 -16 Q 716 -16 720 -12 Q 725 -9 728 4 Q 729 12 729 19 L 729 26 Q 728 36 722 42 Q 717 50 708 54 Q 698 59 686 64 Q 674 68 666 70 L 655 72 Z" />
      </clipPath>
      <path clip-path="url(#make-me-a-hanzi-clip-19)" d="M 649 68 L 699 27 L 709 2" fill="none" id="make-me-a-hanzi-animation-19" stroke-dasharray="220 440" stroke-linecap="round" />
    
  </g>
</svg>