<svg xmlns="http://www.w3.org/2000/svg" version="1.1" viewBox="0 0 1024 1024">
  <g stroke="lightgray" stroke-dasharray="1,1" stroke-width="1" transform="scale(4, 4)">
    <line x1="0" y1="0" x2="256" y2="256" />
    <line x1="256" y1="0" x2="0" y2="256" />
    <line x1="128" y1="0" x2="128" y2="256" />
    <line x1="0" y1="128" x2="256" y2="128" />
  </g>
  <g transform="scale(1.0, -1.0) translate(0.0, -790.00)">
    <style type="text/css">
      
        @keyframes keyframes0 {
          from {
            stroke: blue;
            stroke-dashoffset: 484;
            stroke-width: 128;
          }
          61% {
            animation-timing-function: step-end;
            stroke: blue;
            stroke-dashoffset: 0;
            stroke-width: 128;
          }
          to {
            stroke: black;
            stroke-width: 1024;
          }
        }
        #make-me-a-hanzi-animation-0 {
          animation: keyframes0 0.6438802083333334s both;
          animation-delay: 0s;
          animation-timing-function: linear;
        }
      
        @keyframes keyframes1 {
          from {
            stroke: blue;
            stroke-dashoffset: 645;
            stroke-width: 128;
          }
          68% {
            animation-timing-function: step-end;
            stroke: blue;
            stroke-dashoffset: 0;
            stroke-width: 128;
          }
          to {
            stroke: black;
            stroke-width: 1024;
          }
        }
        #make-me-a-hanzi-animation-1 {
          animation: keyframes1 0.77490234375s both;
          animation-delay: 0.6438802083333334s;
          animation-timing-function: linear;
        }
      
        @keyframes keyframes2 {
          from {
            stroke: blue;
            stroke-dashoffset: 455;
            stroke-width: 128;
          }
          60% {
            animation-timing-function: step-end;
            stroke: blue;
            stroke-dashoffset: 0;
            stroke-width: 128;
          }
          to {
            stroke: black;
            stroke-width: 1024;
          }
        }
        #make-me-a-hanzi-animation-2 {
          animation: keyframes2 0.6202799479166666s both;
          animation-delay: 1.4187825520833335s;
          animation-timing-function: linear;
        }
      
        @keyframes keyframes3 {
          from {
            stroke: blue;
            stroke-dashoffset: 460;
            stroke-width: 128;
          }
          60% {
            animation-timing-function: step-end;
            stroke: blue;
            stroke-dashoffset: 0;
            stroke-width: 128;
          }
          to {
            stroke: black;
            stroke-width: 1024;
          }
        }
        #make-me-a-hanzi-animation-3 {
          animation: keyframes3 0.6243489583333334s both;
          animation-delay: 2.0390625s;
          animation-timing-function: linear;
        }
      
        @keyframes keyframes4 {
          from {
            stroke: blue;
            stroke-dashoffset: 551;
            stroke-width: 128;
          }
          64% {
            animation-timing-function: step-end;
            stroke: blue;
            stroke-dashoffset: 0;
            stroke-width: 128;
          }
          to {
            stroke: black;
            stroke-width: 1024;
          }
        }
        #make-me-a-hanzi-animation-4 {
          animation: keyframes4 0.6984049479166666s both;
          animation-delay: 2.6634114583333335s;
          animation-timing-function: linear;
        }
      
        @keyframes keyframes5 {
          from {
            stroke: blue;
            stroke-dashoffset: 941;
            stroke-width: 128;
          }
          75% {
            animation-timing-function: step-end;
            stroke: blue;
            stroke-dashoffset: 0;
            stroke-width: 128;
          }
          to {
            stroke: black;
            stroke-width: 1024;
          }
        }
        #make-me-a-hanzi-animation-5 {
          animation: keyframes5 1.0157877604166667s both;
          animation-delay: 3.36181640625s;
          animation-timing-function: linear;
        }
      
        @keyframes keyframes6 {
          from {
            stroke: blue;
            stroke-dashoffset: 408;
            stroke-width: 128;
          }
          57% {
            animation-timing-function: step-end;
            stroke: blue;
            stroke-dashoffset: 0;
            stroke-width: 128;
          }
          to {
            stroke: black;
            stroke-width: 1024;
          }
        }
        #make-me-a-hanzi-animation-6 {
          animation: keyframes6 0.58203125s both;
          animation-delay: 4.377604166666667s;
          animation-timing-function: linear;
        }
      
        @keyframes keyframes7 {
          from {
            stroke: blue;
            stroke-dashoffset: 351;
            stroke-width: 128;
          }
          53% {
            animation-timing-function: step-end;
            stroke: blue;
            stroke-dashoffset: 0;
            stroke-width: 128;
          }
          to {
            stroke: black;
            stroke-width: 1024;
          }
        }
        #make-me-a-hanzi-animation-7 {
          animation: keyframes7 0.53564453125s both;
          animation-delay: 4.959635416666667s;
          animation-timing-function: linear;
        }
      
        @keyframes keyframes8 {
          from {
            stroke: blue;
            stroke-dashoffset: 341;
            stroke-width: 128;
          }
          53% {
            animation-timing-function: step-end;
            stroke: blue;
            stroke-dashoffset: 0;
            stroke-width: 128;
          }
          to {
            stroke: black;
            stroke-width: 1024;
          }
        }
        #make-me-a-hanzi-animation-8 {
          animation: keyframes8 0.5275065104166666s both;
          animation-delay: 5.495279947916667s;
          animation-timing-function: linear;
        }
      
        @keyframes keyframes9 {
          from {
            stroke: blue;
            stroke-dashoffset: 341;
            stroke-width: 128;
          }
          53% {
            animation-timing-function: step-end;
            stroke: blue;
            stroke-dashoffset: 0;
            stroke-width: 128;
          }
          to {
            stroke: black;
            stroke-width: 1024;
          }
        }
        #make-me-a-hanzi-animation-9 {
          animation: keyframes9 0.5275065104166666s both;
          animation-delay: 6.022786458333334s;
          animation-timing-function: linear;
        }
      
        @keyframes keyframes10 {
          from {
            stroke: blue;
            stroke-dashoffset: 1012;
            stroke-width: 128;
          }
          77% {
            animation-timing-function: step-end;
            stroke: blue;
            stroke-dashoffset: 0;
            stroke-width: 128;
          }
          to {
            stroke: black;
            stroke-width: 1024;
          }
        }
        #make-me-a-hanzi-animation-10 {
          animation: keyframes10 1.0735677083333333s both;
          animation-delay: 6.550292968750001s;
          animation-timing-function: linear;
        }
      
        @keyframes keyframes11 {
          from {
            stroke: blue;
            stroke-dashoffset: 878;
            stroke-width: 128;
          }
          74% {
            animation-timing-function: step-end;
            stroke: blue;
            stroke-dashoffset: 0;
            stroke-width: 128;
          }
          to {
            stroke: black;
            stroke-width: 1024;
          }
        }
        #make-me-a-hanzi-animation-11 {
          animation: keyframes11 0.9645182291666666s both;
          animation-delay: 7.623860677083334s;
          animation-timing-function: linear;
        }
      
        @keyframes keyframes12 {
          from {
            stroke: blue;
            stroke-dashoffset: 333;
            stroke-width: 128;
          }
          52% {
            animation-timing-function: step-end;
            stroke: blue;
            stroke-dashoffset: 0;
            stroke-width: 128;
          }
          to {
            stroke: black;
            stroke-width: 1024;
          }
        }
        #make-me-a-hanzi-animation-12 {
          animation: keyframes12 0.52099609375s both;
          animation-delay: 8.58837890625s;
          animation-timing-function: linear;
        }
      
        @keyframes keyframes13 {
          from {
            stroke: blue;
            stroke-dashoffset: 342;
            stroke-width: 128;
          }
          53% {
            animation-timing-function: step-end;
            stroke: blue;
            stroke-dashoffset: 0;
            stroke-width: 128;
          }
          to {
            stroke: black;
            stroke-width: 1024;
          }
        }
        #make-me-a-hanzi-animation-13 {
          animation: keyframes13 0.5283203125s both;
          animation-delay: 9.109375s;
          animation-timing-function: linear;
        }
      
        @keyframes keyframes14 {
          from {
            stroke: blue;
            stroke-dashoffset: 436;
            stroke-width: 128;
          }
          59% {
            animation-timing-function: step-end;
            stroke: blue;
            stroke-dashoffset: 0;
            stroke-width: 128;
          }
          to {
            stroke: black;
            stroke-width: 1024;
          }
        }
        #make-me-a-hanzi-animation-14 {
          animation: keyframes14 0.6048177083333334s both;
          animation-delay: 9.6376953125s;
          animation-timing-function: linear;
        }
      
        @keyframes keyframes15 {
          from {
            stroke: blue;
            stroke-dashoffset: 640;
            stroke-width: 128;
          }
          68% {
            animation-timing-function: step-end;
            stroke: blue;
            stroke-dashoffset: 0;
            stroke-width: 128;
          }
          to {
            stroke: black;
            stroke-width: 1024;
          }
        }
        #make-me-a-hanzi-animation-15 {
          animation: keyframes15 0.7708333333333334s both;
          animation-delay: 10.242513020833334s;
          animation-timing-function: linear;
        }
      
        @keyframes keyframes16 {
          from {
            stroke: blue;
            stroke-dashoffset: 505;
            stroke-width: 128;
          }
          62% {
            animation-timing-function: step-end;
            stroke: blue;
            stroke-dashoffset: 0;
            stroke-width: 128;
          }
          to {
            stroke: black;
            stroke-width: 1024;
          }
        }
        #make-me-a-hanzi-animation-16 {
          animation: keyframes16 0.6609700520833334s both;
          animation-delay: 11.013346354166668s;
          animation-timing-function: linear;
        }
      
        @keyframes keyframes17 {
          from {
            stroke: blue;
            stroke-dashoffset: 609;
            stroke-width: 128;
          }
          66% {
            animation-timing-function: step-end;
            stroke: blue;
            stroke-dashoffset: 0;
            stroke-width: 128;
          }
          to {
            stroke: black;
            stroke-width: 1024;
          }
        }
        #make-me-a-hanzi-animation-17 {
          animation: keyframes17 0.74560546875s both;
          animation-delay: 11.674316406250002s;
          animation-timing-function: linear;
        }
      
        @keyframes keyframes18 {
          from {
            stroke: blue;
            stroke-dashoffset: 622;
            stroke-width: 128;
          }
          67% {
            animation-timing-function: step-end;
            stroke: blue;
            stroke-dashoffset: 0;
            stroke-width: 128;
          }
          to {
            stroke: black;
            stroke-width: 1024;
          }
        }
        #make-me-a-hanzi-animation-18 {
          animation: keyframes18 0.7561848958333334s both;
          animation-delay: 12.419921875000002s;
          animation-timing-function: linear;
        }
      
        @keyframes keyframes19 {
          from {
            stroke: blue;
            stroke-dashoffset: 480;
            stroke-width: 128;
          }
          61% {
            animation-timing-function: step-end;
            stroke: blue;
            stroke-dashoffset: 0;
            stroke-width: 128;
          }
          to {
            stroke: black;
            stroke-width: 1024;
          }
        }
        #make-me-a-hanzi-animation-19 {
          animation: keyframes19 0.640625s both;
          animation-delay: 13.176106770833336s;
          animation-timing-function: linear;
        }
      
    </style>
    
      <path d="M 319 587 L 393 598 Q 413 602 421 606 Q 428 610 428 615 L 428 616 Q 427 620 416 627 Q 405 634 392 638 Q 382 640 376 640 L 373 640 Q 367 640 354 635 Q 341 630 315 625 Q 290 620 272 617 Q 254 614 233 610 Q 211 606 191 604 C 161 601 166 582 196 577 L 215 574 Q 219 574 232 575 Q 245 576 263 578 L 319 587 Z" fill="lightgray" />
    
      <path d="M 191 604 L 159 616 Q 148 620 137 621 Q 131 621 128 618 Q 125 616 124 611 L 124 609 Q 124 605 127 599 Q 131 592 136 582 Q 141 573 143 564 Q 146 554 148 532 Q 150 516 150 506 L 150 499 L 145 403 Q 144 374 143 364 L 137 327 Q 134 303 131 294 Q 122 274 122 270 Q 123 265 125 258 Q 128 252 135 242 Q 141 234 147 230 Q 152 226 156 226 Q 160 226 167 231 C 195 242 194 255 185 284 Q 181 286 181 296 Q 181 306 183 320 Q 184 333 185 344 Q 185 354 187 368 L 187 389 L 191 466 L 193 488 L 193 502 L 195 548 Q 195 558 196 577 C 197 602 197 602 191 604 Z" fill="lightgray" />
    
      <path d="M 316 476 L 381 485 Q 395 486 399 491 Q 404 495 404 499 L 404 500 Q 404 506 393 510 Q 383 516 370 519 Q 357 522 352 522 Q 348 521 330 516 L 317 513 L 271 502 L 231 494 L 208 491 L 193 488 C 164 482 164 479 191 466 L 199 462 Q 207 459 216 459 L 221 459 Q 233 460 243 462 L 269 467 L 316 476 Z" fill="lightgray" />
    
      <path d="M 313 371 L 375 382 Q 395 384 401 390 Q 406 393 406 398 L 406 399 Q 405 404 395 409 Q 385 414 373 416 Q 361 419 355 419 Q 349 418 339 416 L 313 410 L 267 400 L 233 394 L 201 391 Q 197 390 187 389 C 157 386 159 377 187 368 L 205 362 Q 207 360 219 360 Q 231 360 245 363 L 269 366 L 313 371 Z" fill="lightgray" />
    
      <path d="M 310 294 L 313 371 L 313 410 L 316 476 L 317 513 L 319 532 L 321 548 Q 322 558 325 564 Q 328 570 328 574 L 328 575 Q 328 578 325 582 Q 321 584 319 587 C 297 608 256 607 263 578 L 265 570 Q 266 567 268 554 Q 271 541 271 534 L 271 502 L 269 467 L 267 400 L 269 366 L 267 290 C 266 260 309 264 310 294 Z" fill="lightgray" />
    
      <path d="M 167 231 L 182 240 Q 189 243 208 247 Q 227 252 251 256 Q 276 261 291 262 Q 307 264 333 264 L 339 264 Q 356 264 360 259 Q 365 254 365 241 L 365 232 Q 365 216 363 184 Q 359 142 357 118 Q 354 93 349 69 Q 345 46 339 18 Q 333 -10 324 -20 Q 316 -30 307 -31 L 305 -31 Q 297 -31 282 -25 L 255 -14 L 243 -9 Q 236 -7 232 -7 Q 229 -7 228 -8 Q 227 -9 227 -11 Q 227 -14 232 -18 L 243 -30 Q 243 -31 264 -57 Q 285 -83 293 -97 Q 301 -110 305 -112 Q 308 -113 311 -113 Q 319 -113 330 -106 Q 345 -96 359 -75 Q 372 -54 379 -38 Q 385 -21 390 17 Q 395 55 396 62 L 404 121 L 411 181 L 415 206 Q 418 218 422 232 Q 425 245 430 252 Q 435 258 435 261 L 435 263 Q 435 268 429 274 Q 421 280 409 288 Q 395 296 387 300 Q 377 304 369 304 Q 364 304 349 301 Q 333 297 327 296 L 310 294 L 267 290 L 228 285 Q 223 284 205 282 Q 199 281 195 281 Q 187 281 185 284 C 155 287 141 217 167 231 Z" fill="lightgray" />
    
      <path d="M 92 191 Q 90 197 85 197 L 82 197 Q 76 196 75 188 L 72 173 Q 71 168 68 157 Q 65 145 61 137 L 51 116 Q 46 104 43 102 L 35 92 Q 33 88 33 76 Q 33 64 37 52 Q 39 40 45 34 Q 51 27 57 26 L 60 26 Q 69 26 79 38 Q 90 51 95 66 Q 100 80 103 99 Q 106 114 106 125 L 106 130 Q 105 141 103 156 L 97 180 L 92 191 Z" fill="lightgray" />
    
      <path d="M 127 178 L 131 166 Q 133 158 137 144 Q 143 129 147 116 Q 151 103 157 94 Q 163 86 169 85 L 171 85 Q 176 85 180 90 Q 186 96 189 105 Q 190 110 190 115 Q 190 120 189 126 Q 189 139 179 151 Q 170 164 162 170 Q 154 176 149 179 L 139 185 Q 136 186 134 186 L 132 186 Q 129 186 128 185 Q 127 184 127 178 Z" fill="lightgray" />
    
      <path d="M 205 177 Q 205 176 211 163 Q 218 151 225 136 Q 231 122 237 116 Q 244 109 251 109 L 253 109 Q 260 110 265 119 Q 270 127 270 136 L 270 139 Q 270 150 264 159 Q 259 168 250 174 Q 242 180 236 183 Q 230 186 223 189 L 211 194 Q 209 195 207 195 Q 205 195 203 194 Q 200 193 199 191 Q 199 188 201 184 L 205 177 Z" fill="lightgray" />
    
      <path d="M 283 198 Q 285 195 289 185 Q 293 175 302 159 Q 310 144 317 138 Q 324 132 330 132 Q 337 133 343 141 Q 349 148 349 160 L 349 163 Q 349 173 343 182 Q 337 192 330 196 Q 323 201 313 206 Q 303 212 299 213 L 287 216 Q 280 218 278 218 Q 275 217 275 214 L 275 213 Q 275 211 277 207 L 283 198 Z" fill="lightgray" />
    
      <path d="M 603 430 L 575 407 Q 564 398 538 382 Q 512 367 487 355 L 439 335 Q 417 326 405 323 L 389 318 Q 382 316 382 311 L 382 310 Q 383 304 393 304 L 409 306 Q 421 306 447 312 Q 474 318 497 324 Q 519 332 548 344 Q 576 356 595 369 Q 615 381 641 400 L 673 432 L 689 457 Q 702 476 723 510 Q 743 544 755 567 Q 767 590 773 598 Q 779 606 790 615 Q 801 624 801 628 Q 801 633 793 640 Q 785 646 769 654 Q 753 662 740 666 Q 731 669 724 669 Q 721 669 718 668 Q 713 668 699 661 Q 686 654 667 648 Q 647 642 615 638 Q 584 632 554 628 Q 524 624 510 624 L 494 622 Q 487 622 485 619 Q 484 618 484 617 Q 484 614 487 610 Q 491 604 507 596 Q 522 587 528 586 Q 531 585 538 585 L 545 585 Q 553 586 570 590 L 609 599 Q 629 604 648 610 Q 667 616 679 617 L 683 617 Q 694 617 698 612 Q 699 610 699 606 Q 699 599 695 584 Q 687 560 680 543 Q 673 526 658 502 L 629 458 L 603 430 Z" fill="lightgray" />
    
      <path d="M 641 400 L 683 369 L 733 330 Q 773 301 792 297 Q 811 294 839 294 Q 876 296 900 298 Q 923 300 943 303 Q 963 306 975 310 L 987 314 Q 991 315 991 318 L 991 319 Q 991 324 987 325 L 976 328 Q 973 328 952 333 Q 931 337 893 348 L 835 364 Q 787 377 752 393 Q 717 408 673 432 L 629 458 L 519 528 Q 497 542 485 546 Q 473 550 461 551 L 453 551 Q 444 551 434 550 Q 418 549 417 543 Q 416 541 416 540 Q 416 537 419 534 Q 424 530 437 528 Q 449 528 465 520 Q 481 512 488 508 L 515 490 L 603 430 L 641 400 Z" fill="lightgray" />
    
      <path d="M 561 562 L 569 553 L 579 540 Q 584 532 593 523 Q 602 514 609 508 Q 617 502 621 502 L 625 502 Q 631 502 637 506 Q 645 513 645 527 Q 645 540 639 547 Q 633 553 623 556 Q 613 560 598 564 Q 583 567 579 568 L 567 570 Q 562 570 561 569 Q 560 569 560 567 Q 560 565 561 562 Z" fill="lightgray" />
    
      <path d="M 443 470 Q 440 471 437 471 Q 435 471 433 470 Q 431 469 431 466 L 431 464 L 435 456 Q 436 454 450 428 Q 463 402 470 395 Q 477 388 485 386 L 487 386 Q 492 386 497 389 Q 503 392 505 411 L 505 418 Q 505 432 499 440 Q 491 451 475 458 L 456 465 L 443 470 Z" fill="lightgray" />
    
      <path d="M 491 244 L 471 249 Q 459 252 453 252 Q 444 251 442 248 L 442 246 Q 442 243 445 237 L 457 220 Q 463 209 467 191 L 484 120 Q 487 104 495 90 Q 501 76 508 76 L 509 76 Q 515 77 520 83 Q 524 88 527 94 C 530 99 530 99 525 126 L 515 183 Q 514 186 509 215 C 505 241 505 241 491 244 Z" fill="lightgray" />
    
      <path d="M 757 143 L 785 187 Q 789 196 797 203 Q 805 211 813 218 Q 822 224 823 229 Q 823 233 817 241 Q 811 250 801 257 Q 790 265 771 276 Q 753 287 745 287 L 744 287 Q 741 286 731 282 Q 722 278 710 276 Q 699 272 685 271 L 653 266 L 595 259 L 529 250 Q 523 248 491 244 C 461 240 479 217 509 215 L 519 214 Q 522 214 537 218 Q 552 224 565 226 Q 579 228 595 232 L 653 240 L 697 243 L 707 243 Q 716 243 721 242 Q 731 240 733 233 Q 734 232 734 229 Q 734 221 729 204 L 715 148 C 708 119 741 118 757 143 Z" fill="lightgray" />
    
      <path d="M 651 104 L 769 115 Q 779 116 781 118 L 781 119 Q 781 123 776 129 Q 771 136 757 143 L 715 148 L 649 140 L 599 133 L 525 126 C 495 123 497 92 527 94 L 565 97 Q 571 97 601 99 L 651 104 Z" fill="lightgray" />
    
      <path d="M 601 99 L 603 -6 C 604 -36 647 -28 648 2 L 651 104 L 649 140 L 653 240 L 653 266 L 654 282 Q 654 294 658 304 Q 661 313 661 317 L 661 319 Q 660 324 649 330 Q 639 336 622 340 Q 605 343 593 343 Q 583 342 581 339 Q 579 336 579 331 Q 580 326 586 311 Q 592 296 593 282 L 595 259 L 595 232 L 599 133 L 601 99 Z" fill="lightgray" />
    
      <path d="M 603 -6 L 521 -23 Q 499 -28 485 -29 Q 476 -30 460 -30 L 443 -30 Q 421 -29 413 -29 L 410 -29 Q 404 -29 402 -32 Q 401 -34 401 -36 Q 401 -39 403 -44 Q 406 -53 423 -66 L 445 -84 Q 453 -90 461 -90 L 463 -90 Q 469 -90 486 -81 Q 503 -72 535 -61 Q 568 -51 570 -50 L 766 7 C 795 15 780 33 751 26 L 648 2 L 603 -6 Z" fill="lightgray" />
    
      <path d="M 766 7 L 811 -60 Q 825 -81 838 -90 Q 850 -98 857 -98 L 860 -98 Q 867 -97 873 -90 Q 878 -82 878 -59 Q 877 -36 871 -20 Q 864 -4 847 14 Q 830 32 810 45 Q 790 59 768 70 Q 746 80 732 85 L 721 88 Q 717 89 714 89 Q 711 89 709 87 Q 708 86 708 84 Q 708 81 713 76 L 751 26 L 766 7 Z" fill="lightgray" />
    
    
      <clipPath id="make-me-a-hanzi-clip-0">
        <path d="M 319 587 L 393 598 Q 413 602 421 606 Q 428 610 428 615 L 428 616 Q 427 620 416 627 Q 405 634 392 638 Q 382 640 376 640 L 373 640 Q 367 640 354 635 Q 341 630 315 625 Q 290 620 272 617 Q 254 614 233 610 Q 211 606 191 604 C 161 601 166 582 196 577 L 215 574 Q 219 574 232 575 Q 245 576 263 578 L 319 587 Z" />
      </clipPath>
      <path clip-path="url(#make-me-a-hanzi-clip-0)" d="M 199 598 L 209 591 L 238 592 L 373 618 L 422 616" fill="none" id="make-me-a-hanzi-animation-0" stroke-dasharray="356 712" stroke-linecap="round" />
    
      <clipPath id="make-me-a-hanzi-clip-1">
        <path d="M 191 604 L 159 616 Q 148 620 137 621 Q 131 621 128 618 Q 125 616 124 611 L 124 609 Q 124 605 127 599 Q 131 592 136 582 Q 141 573 143 564 Q 146 554 148 532 Q 150 516 150 506 L 150 499 L 145 403 Q 144 374 143 364 L 137 327 Q 134 303 131 294 Q 122 274 122 270 Q 123 265 125 258 Q 128 252 135 242 Q 141 234 147 230 Q 152 226 156 226 Q 160 226 167 231 C 195 242 194 255 185 284 Q 181 286 181 296 Q 181 306 183 320 Q 184 333 185 344 Q 185 354 187 368 L 187 389 L 191 466 L 193 488 L 193 502 L 195 548 Q 195 558 196 577 C 197 602 197 602 191 604 Z" />
      </clipPath>
      <path clip-path="url(#make-me-a-hanzi-clip-1)" d="M 134 610 L 166 584 L 170 570 L 166 373 L 151 268 L 157 239" fill="none" id="make-me-a-hanzi-animation-1" stroke-dasharray="517 1034" stroke-linecap="round" />
    
      <clipPath id="make-me-a-hanzi-clip-2">
        <path d="M 316 476 L 381 485 Q 395 486 399 491 Q 404 495 404 499 L 404 500 Q 404 506 393 510 Q 383 516 370 519 Q 357 522 352 522 Q 348 521 330 516 L 317 513 L 271 502 L 231 494 L 208 491 L 193 488 C 164 482 164 479 191 466 L 199 462 Q 207 459 216 459 L 221 459 Q 233 460 243 462 L 269 467 L 316 476 Z" />
      </clipPath>
      <path clip-path="url(#make-me-a-hanzi-clip-2)" d="M 198 471 L 353 502 L 394 500" fill="none" id="make-me-a-hanzi-animation-2" stroke-dasharray="327 654" stroke-linecap="round" />
    
      <clipPath id="make-me-a-hanzi-clip-3">
        <path d="M 313 371 L 375 382 Q 395 384 401 390 Q 406 393 406 398 L 406 399 Q 405 404 395 409 Q 385 414 373 416 Q 361 419 355 419 Q 349 418 339 416 L 313 410 L 267 400 L 233 394 L 201 391 Q 197 390 187 389 C 157 386 159 377 187 368 L 205 362 Q 207 360 219 360 Q 231 360 245 363 L 269 366 L 313 371 Z" />
      </clipPath>
      <path clip-path="url(#make-me-a-hanzi-clip-3)" d="M 194 373 L 355 399 L 396 399" fill="none" id="make-me-a-hanzi-animation-3" stroke-dasharray="332 664" stroke-linecap="round" />
    
      <clipPath id="make-me-a-hanzi-clip-4">
        <path d="M 310 294 L 313 371 L 313 410 L 316 476 L 317 513 L 319 532 L 321 548 Q 322 558 325 564 Q 328 570 328 574 L 328 575 Q 328 578 325 582 Q 321 584 319 587 C 297 608 256 607 263 578 L 265 570 Q 266 567 268 554 Q 271 541 271 534 L 271 502 L 269 467 L 267 400 L 269 366 L 267 290 C 266 260 309 264 310 294 Z" />
      </clipPath>
      <path clip-path="url(#make-me-a-hanzi-clip-4)" d="M 271 576 L 295 553 L 290 318 L 274 297" fill="none" id="make-me-a-hanzi-animation-4" stroke-dasharray="423 846" stroke-linecap="round" />
    
      <clipPath id="make-me-a-hanzi-clip-5">
        <path d="M 167 231 L 182 240 Q 189 243 208 247 Q 227 252 251 256 Q 276 261 291 262 Q 307 264 333 264 L 339 264 Q 356 264 360 259 Q 365 254 365 241 L 365 232 Q 365 216 363 184 Q 359 142 357 118 Q 354 93 349 69 Q 345 46 339 18 Q 333 -10 324 -20 Q 316 -30 307 -31 L 305 -31 Q 297 -31 282 -25 L 255 -14 L 243 -9 Q 236 -7 232 -7 Q 229 -7 228 -8 Q 227 -9 227 -11 Q 227 -14 232 -18 L 243 -30 Q 243 -31 264 -57 Q 285 -83 293 -97 Q 301 -110 305 -112 Q 308 -113 311 -113 Q 319 -113 330 -106 Q 345 -96 359 -75 Q 372 -54 379 -38 Q 385 -21 390 17 Q 395 55 396 62 L 404 121 L 411 181 L 415 206 Q 418 218 422 232 Q 425 245 430 252 Q 435 258 435 261 L 435 263 Q 435 268 429 274 Q 421 280 409 288 Q 395 296 387 300 Q 377 304 369 304 Q 364 304 349 301 Q 333 297 327 296 L 310 294 L 267 290 L 228 285 Q 223 284 205 282 Q 199 281 195 281 Q 187 281 185 284 C 155 287 141 217 167 231 Z" />
      </clipPath>
      <path clip-path="url(#make-me-a-hanzi-clip-5)" d="M 176 241 L 202 264 L 290 278 L 359 283 L 375 279 L 396 258 L 368 31 L 345 -42 L 318 -67 L 231 -11" fill="none" id="make-me-a-hanzi-animation-5" stroke-dasharray="813 1626" stroke-linecap="round" />
    
      <clipPath id="make-me-a-hanzi-clip-6">
        <path d="M 92 191 Q 90 197 85 197 L 82 197 Q 76 196 75 188 L 72 173 Q 71 168 68 157 Q 65 145 61 137 L 51 116 Q 46 104 43 102 L 35 92 Q 33 88 33 76 Q 33 64 37 52 Q 39 40 45 34 Q 51 27 57 26 L 60 26 Q 69 26 79 38 Q 90 51 95 66 Q 100 80 103 99 Q 106 114 106 125 L 106 130 Q 105 141 103 156 L 97 180 L 92 191 Z" />
      </clipPath>
      <path clip-path="url(#make-me-a-hanzi-clip-6)" d="M 84 189 L 83 128 L 65 79 L 59 41" fill="none" id="make-me-a-hanzi-animation-6" stroke-dasharray="280 560" stroke-linecap="round" />
    
      <clipPath id="make-me-a-hanzi-clip-7">
        <path d="M 127 178 L 131 166 Q 133 158 137 144 Q 143 129 147 116 Q 151 103 157 94 Q 163 86 169 85 L 171 85 Q 176 85 180 90 Q 186 96 189 105 Q 190 110 190 115 Q 190 120 189 126 Q 189 139 179 151 Q 170 164 162 170 Q 154 176 149 179 L 139 185 Q 136 186 134 186 L 132 186 Q 129 186 128 185 Q 127 184 127 178 Z" />
      </clipPath>
      <path clip-path="url(#make-me-a-hanzi-clip-7)" d="M 131 181 L 165 134 L 170 97" fill="none" id="make-me-a-hanzi-animation-7" stroke-dasharray="223 446" stroke-linecap="round" />
    
      <clipPath id="make-me-a-hanzi-clip-8">
        <path d="M 205 177 Q 205 176 211 163 Q 218 151 225 136 Q 231 122 237 116 Q 244 109 251 109 L 253 109 Q 260 110 265 119 Q 270 127 270 136 L 270 139 Q 270 150 264 159 Q 259 168 250 174 Q 242 180 236 183 Q 230 186 223 189 L 211 194 Q 209 195 207 195 Q 205 195 203 194 Q 200 193 199 191 Q 199 188 201 184 L 205 177 Z" />
      </clipPath>
      <path clip-path="url(#make-me-a-hanzi-clip-8)" d="M 204 189 L 243 150 L 252 122" fill="none" id="make-me-a-hanzi-animation-8" stroke-dasharray="213 426" stroke-linecap="round" />
    
      <clipPath id="make-me-a-hanzi-clip-9">
        <path d="M 283 198 Q 285 195 289 185 Q 293 175 302 159 Q 310 144 317 138 Q 324 132 330 132 Q 337 133 343 141 Q 349 148 349 160 L 349 163 Q 349 173 343 182 Q 337 192 330 196 Q 323 201 313 206 Q 303 212 299 213 L 287 216 Q 280 218 278 218 Q 275 217 275 214 L 275 213 Q 275 211 277 207 L 283 198 Z" />
      </clipPath>
      <path clip-path="url(#make-me-a-hanzi-clip-9)" d="M 280 214 L 321 173 L 329 147" fill="none" id="make-me-a-hanzi-animation-9" stroke-dasharray="213 426" stroke-linecap="round" />
    
      <clipPath id="make-me-a-hanzi-clip-10">
        <path d="M 603 430 L 575 407 Q 564 398 538 382 Q 512 367 487 355 L 439 335 Q 417 326 405 323 L 389 318 Q 382 316 382 311 L 382 310 Q 383 304 393 304 L 409 306 Q 421 306 447 312 Q 474 318 497 324 Q 519 332 548 344 Q 576 356 595 369 Q 615 381 641 400 L 673 432 L 689 457 Q 702 476 723 510 Q 743 544 755 567 Q 767 590 773 598 Q 779 606 790 615 Q 801 624 801 628 Q 801 633 793 640 Q 785 646 769 654 Q 753 662 740 666 Q 731 669 724 669 Q 721 669 718 668 Q 713 668 699 661 Q 686 654 667 648 Q 647 642 615 638 Q 584 632 554 628 Q 524 624 510 624 L 494 622 Q 487 622 485 619 Q 484 618 484 617 Q 484 614 487 610 Q 491 604 507 596 Q 522 587 528 586 Q 531 585 538 585 L 545 585 Q 553 586 570 590 L 609 599 Q 629 604 648 610 Q 667 616 679 617 L 683 617 Q 694 617 698 612 Q 699 610 699 606 Q 699 599 695 584 Q 687 560 680 543 Q 673 526 658 502 L 629 458 L 603 430 Z" />
      </clipPath>
      <path clip-path="url(#make-me-a-hanzi-clip-10)" d="M 490 615 L 535 605 L 558 607 L 692 636 L 722 635 L 739 622 L 697 515 L 650 444 L 621 414 L 521 351 L 437 321 L 389 311" fill="none" id="make-me-a-hanzi-animation-10" stroke-dasharray="884 1768" stroke-linecap="round" />
    
      <clipPath id="make-me-a-hanzi-clip-11">
        <path d="M 641 400 L 683 369 L 733 330 Q 773 301 792 297 Q 811 294 839 294 Q 876 296 900 298 Q 923 300 943 303 Q 963 306 975 310 L 987 314 Q 991 315 991 318 L 991 319 Q 991 324 987 325 L 976 328 Q 973 328 952 333 Q 931 337 893 348 L 835 364 Q 787 377 752 393 Q 717 408 673 432 L 629 458 L 519 528 Q 497 542 485 546 Q 473 550 461 551 L 453 551 Q 444 551 434 550 Q 418 549 417 543 Q 416 541 416 540 Q 416 537 419 534 Q 424 530 437 528 Q 449 528 465 520 Q 481 512 488 508 L 515 490 L 603 430 L 641 400 Z" />
      </clipPath>
      <path clip-path="url(#make-me-a-hanzi-clip-11)" d="M 423 540 L 457 538 L 492 525 L 649 420 L 794 336 L 905 320 L 987 319" fill="none" id="make-me-a-hanzi-animation-11" stroke-dasharray="750 1500" stroke-linecap="round" />
    
      <clipPath id="make-me-a-hanzi-clip-12">
        <path d="M 561 562 L 569 553 L 579 540 Q 584 532 593 523 Q 602 514 609 508 Q 617 502 621 502 L 625 502 Q 631 502 637 506 Q 645 513 645 527 Q 645 540 639 547 Q 633 553 623 556 Q 613 560 598 564 Q 583 567 579 568 L 567 570 Q 562 570 561 569 Q 560 569 560 567 Q 560 565 561 562 Z" />
      </clipPath>
      <path clip-path="url(#make-me-a-hanzi-clip-12)" d="M 565 566 L 618 532 L 626 520" fill="none" id="make-me-a-hanzi-animation-12" stroke-dasharray="205 410" stroke-linecap="round" />
    
      <clipPath id="make-me-a-hanzi-clip-13">
        <path d="M 443 470 Q 440 471 437 471 Q 435 471 433 470 Q 431 469 431 466 L 431 464 L 435 456 Q 436 454 450 428 Q 463 402 470 395 Q 477 388 485 386 L 487 386 Q 492 386 497 389 Q 503 392 505 411 L 505 418 Q 505 432 499 440 Q 491 451 475 458 L 456 465 L 443 470 Z" />
      </clipPath>
      <path clip-path="url(#make-me-a-hanzi-clip-13)" d="M 436 466 L 471 436 L 486 399" fill="none" id="make-me-a-hanzi-animation-13" stroke-dasharray="214 428" stroke-linecap="round" />
    
      <clipPath id="make-me-a-hanzi-clip-14">
        <path d="M 491 244 L 471 249 Q 459 252 453 252 Q 444 251 442 248 L 442 246 Q 442 243 445 237 L 457 220 Q 463 209 467 191 L 484 120 Q 487 104 495 90 Q 501 76 508 76 L 509 76 Q 515 77 520 83 Q 524 88 527 94 C 530 99 530 99 525 126 L 515 183 Q 514 186 509 215 C 505 241 505 241 491 244 Z" />
      </clipPath>
      <path clip-path="url(#make-me-a-hanzi-clip-14)" d="M 449 247 L 472 231 L 488 203 L 509 85" fill="none" id="make-me-a-hanzi-animation-14" stroke-dasharray="308 616" stroke-linecap="round" />
    
      <clipPath id="make-me-a-hanzi-clip-15">
        <path d="M 757 143 L 785 187 Q 789 196 797 203 Q 805 211 813 218 Q 822 224 823 229 Q 823 233 817 241 Q 811 250 801 257 Q 790 265 771 276 Q 753 287 745 287 L 744 287 Q 741 286 731 282 Q 722 278 710 276 Q 699 272 685 271 L 653 266 L 595 259 L 529 250 Q 523 248 491 244 C 461 240 479 217 509 215 L 519 214 Q 522 214 537 218 Q 552 224 565 226 Q 579 228 595 232 L 653 240 L 697 243 L 707 243 Q 716 243 721 242 Q 731 240 733 233 Q 734 232 734 229 Q 734 221 729 204 L 715 148 C 708 119 741 118 757 143 Z" />
      </clipPath>
      <path clip-path="url(#make-me-a-hanzi-clip-15)" d="M 500 243 L 519 231 L 647 253 L 746 258 L 772 231 L 745 169 L 723 153" fill="none" id="make-me-a-hanzi-animation-15" stroke-dasharray="512 1024" stroke-linecap="round" />
    
      <clipPath id="make-me-a-hanzi-clip-16">
        <path d="M 651 104 L 769 115 Q 779 116 781 118 L 781 119 Q 781 123 776 129 Q 771 136 757 143 L 715 148 L 649 140 L 599 133 L 525 126 C 495 123 497 92 527 94 L 565 97 Q 571 97 601 99 L 651 104 Z" />
      </clipPath>
      <path clip-path="url(#make-me-a-hanzi-clip-16)" d="M 533 100 L 549 113 L 711 129 L 756 128 L 775 119" fill="none" id="make-me-a-hanzi-animation-16" stroke-dasharray="377 754" stroke-linecap="round" />
    
      <clipPath id="make-me-a-hanzi-clip-17">
        <path d="M 601 99 L 603 -6 C 604 -36 647 -28 648 2 L 651 104 L 649 140 L 653 240 L 653 266 L 654 282 Q 654 294 658 304 Q 661 313 661 317 L 661 319 Q 660 324 649 330 Q 639 336 622 340 Q 605 343 593 343 Q 583 342 581 339 Q 579 336 579 331 Q 580 326 586 311 Q 592 296 593 282 L 595 259 L 595 232 L 599 133 L 601 99 Z" />
      </clipPath>
      <path clip-path="url(#make-me-a-hanzi-clip-17)" d="M 590 333 L 623 305 L 624 290 L 626 21 L 609 2" fill="none" id="make-me-a-hanzi-animation-17" stroke-dasharray="481 962" stroke-linecap="round" />
    
      <clipPath id="make-me-a-hanzi-clip-18">
        <path d="M 603 -6 L 521 -23 Q 499 -28 485 -29 Q 476 -30 460 -30 L 443 -30 Q 421 -29 413 -29 L 410 -29 Q 404 -29 402 -32 Q 401 -34 401 -36 Q 401 -39 403 -44 Q 406 -53 423 -66 L 445 -84 Q 453 -90 461 -90 L 463 -90 Q 469 -90 486 -81 Q 503 -72 535 -61 Q 568 -51 570 -50 L 766 7 C 795 15 780 33 751 26 L 648 2 L 603 -6 Z" />
      </clipPath>
      <path clip-path="url(#make-me-a-hanzi-clip-18)" d="M 408 -36 L 462 -60 L 746 14 L 758 8" fill="none" id="make-me-a-hanzi-animation-18" stroke-dasharray="494 988" stroke-linecap="round" />
    
      <clipPath id="make-me-a-hanzi-clip-19">
        <path d="M 766 7 L 811 -60 Q 825 -81 838 -90 Q 850 -98 857 -98 L 860 -98 Q 867 -97 873 -90 Q 878 -82 878 -59 Q 877 -36 871 -20 Q 864 -4 847 14 Q 830 32 810 45 Q 790 59 768 70 Q 746 80 732 85 L 721 88 Q 717 89 714 89 Q 711 89 709 87 Q 708 86 708 84 Q 708 81 713 76 L 751 26 L 766 7 Z" />
      </clipPath>
      <path clip-path="url(#make-me-a-hanzi-clip-19)" d="M 713 84 L 772 40 L 818 -6 L 859 -81" fill="none" id="make-me-a-hanzi-animation-19" stroke-dasharray="352 704" stroke-linecap="round" />
    
  </g>
</svg>