<svg xmlns="http://www.w3.org/2000/svg" version="1.1" viewBox="0 0 1024 1024">
  <g stroke="lightgray" stroke-dasharray="1,1" stroke-width="1" transform="scale(4, 4)">
    <line x1="0" y1="0" x2="256" y2="256" />
    <line x1="256" y1="0" x2="0" y2="256" />
    <line x1="128" y1="0" x2="128" y2="256" />
    <line x1="0" y1="128" x2="256" y2="128" />
  </g>
  <g transform="scale(1.0, -1.0) translate(0.0, -834.50)">
    <style type="text/css">
      
        @keyframes keyframes0 {
          from {
            stroke: blue;
            stroke-dashoffset: 480;
            stroke-width: 128;
          }
          61% {
            animation-timing-function: step-end;
            stroke: blue;
            stroke-dashoffset: 0;
            stroke-width: 128;
          }
          to {
            stroke: black;
            stroke-width: 1024;
          }
        }
        #make-me-a-hanzi-animation-0 {
          animation: keyframes0 0.640625s both;
          animation-delay: 0s;
          animation-timing-function: linear;
        }
      
        @keyframes keyframes1 {
          from {
            stroke: blue;
            stroke-dashoffset: 637;
            stroke-width: 128;
          }
          67% {
            animation-timing-function: step-end;
            stroke: blue;
            stroke-dashoffset: 0;
            stroke-width: 128;
          }
          to {
            stroke: black;
            stroke-width: 1024;
          }
        }
        #make-me-a-hanzi-animation-1 {
          animation: keyframes1 0.7683919270833334s both;
          animation-delay: 0.640625s;
          animation-timing-function: linear;
        }
      
        @keyframes keyframes2 {
          from {
            stroke: blue;
            stroke-dashoffset: 462;
            stroke-width: 128;
          }
          60% {
            animation-timing-function: step-end;
            stroke: blue;
            stroke-dashoffset: 0;
            stroke-width: 128;
          }
          to {
            stroke: black;
            stroke-width: 1024;
          }
        }
        #make-me-a-hanzi-animation-2 {
          animation: keyframes2 0.6259765625s both;
          animation-delay: 1.4090169270833335s;
          animation-timing-function: linear;
        }
      
        @keyframes keyframes3 {
          from {
            stroke: blue;
            stroke-dashoffset: 467;
            stroke-width: 128;
          }
          60% {
            animation-timing-function: step-end;
            stroke: blue;
            stroke-dashoffset: 0;
            stroke-width: 128;
          }
          to {
            stroke: black;
            stroke-width: 1024;
          }
        }
        #make-me-a-hanzi-animation-3 {
          animation: keyframes3 0.6300455729166666s both;
          animation-delay: 2.0349934895833335s;
          animation-timing-function: linear;
        }
      
        @keyframes keyframes4 {
          from {
            stroke: blue;
            stroke-dashoffset: 548;
            stroke-width: 128;
          }
          64% {
            animation-timing-function: step-end;
            stroke: blue;
            stroke-dashoffset: 0;
            stroke-width: 128;
          }
          to {
            stroke: black;
            stroke-width: 1024;
          }
        }
        #make-me-a-hanzi-animation-4 {
          animation: keyframes4 0.6959635416666666s both;
          animation-delay: 2.6650390625s;
          animation-timing-function: linear;
        }
      
        @keyframes keyframes5 {
          from {
            stroke: blue;
            stroke-dashoffset: 936;
            stroke-width: 128;
          }
          75% {
            animation-timing-function: step-end;
            stroke: blue;
            stroke-dashoffset: 0;
            stroke-width: 128;
          }
          to {
            stroke: black;
            stroke-width: 1024;
          }
        }
        #make-me-a-hanzi-animation-5 {
          animation: keyframes5 1.01171875s both;
          animation-delay: 3.3610026041666665s;
          animation-timing-function: linear;
        }
      
        @keyframes keyframes6 {
          from {
            stroke: blue;
            stroke-dashoffset: 404;
            stroke-width: 128;
          }
          57% {
            animation-timing-function: step-end;
            stroke: blue;
            stroke-dashoffset: 0;
            stroke-width: 128;
          }
          to {
            stroke: black;
            stroke-width: 1024;
          }
        }
        #make-me-a-hanzi-animation-6 {
          animation: keyframes6 0.5787760416666666s both;
          animation-delay: 4.372721354166666s;
          animation-timing-function: linear;
        }
      
        @keyframes keyframes7 {
          from {
            stroke: blue;
            stroke-dashoffset: 354;
            stroke-width: 128;
          }
          54% {
            animation-timing-function: step-end;
            stroke: blue;
            stroke-dashoffset: 0;
            stroke-width: 128;
          }
          to {
            stroke: black;
            stroke-width: 1024;
          }
        }
        #make-me-a-hanzi-animation-7 {
          animation: keyframes7 0.5380859375s both;
          animation-delay: 4.951497395833333s;
          animation-timing-function: linear;
        }
      
        @keyframes keyframes8 {
          from {
            stroke: blue;
            stroke-dashoffset: 351;
            stroke-width: 128;
          }
          53% {
            animation-timing-function: step-end;
            stroke: blue;
            stroke-dashoffset: 0;
            stroke-width: 128;
          }
          to {
            stroke: black;
            stroke-width: 1024;
          }
        }
        #make-me-a-hanzi-animation-8 {
          animation: keyframes8 0.53564453125s both;
          animation-delay: 5.489583333333333s;
          animation-timing-function: linear;
        }
      
        @keyframes keyframes9 {
          from {
            stroke: blue;
            stroke-dashoffset: 348;
            stroke-width: 128;
          }
          53% {
            animation-timing-function: step-end;
            stroke: blue;
            stroke-dashoffset: 0;
            stroke-width: 128;
          }
          to {
            stroke: black;
            stroke-width: 1024;
          }
        }
        #make-me-a-hanzi-animation-9 {
          animation: keyframes9 0.533203125s both;
          animation-delay: 6.025227864583333s;
          animation-timing-function: linear;
        }
      
        @keyframes keyframes10 {
          from {
            stroke: blue;
            stroke-dashoffset: 449;
            stroke-width: 128;
          }
          59% {
            animation-timing-function: step-end;
            stroke: blue;
            stroke-dashoffset: 0;
            stroke-width: 128;
          }
          to {
            stroke: black;
            stroke-width: 1024;
          }
        }
        #make-me-a-hanzi-animation-10 {
          animation: keyframes10 0.6153971354166666s both;
          animation-delay: 6.558430989583333s;
          animation-timing-function: linear;
        }
      
        @keyframes keyframes11 {
          from {
            stroke: blue;
            stroke-dashoffset: 363;
            stroke-width: 128;
          }
          54% {
            animation-timing-function: step-end;
            stroke: blue;
            stroke-dashoffset: 0;
            stroke-width: 128;
          }
          to {
            stroke: black;
            stroke-width: 1024;
          }
        }
        #make-me-a-hanzi-animation-11 {
          animation: keyframes11 0.54541015625s both;
          animation-delay: 7.173828125s;
          animation-timing-function: linear;
        }
      
        @keyframes keyframes12 {
          from {
            stroke: blue;
            stroke-dashoffset: 472;
            stroke-width: 128;
          }
          61% {
            animation-timing-function: step-end;
            stroke: blue;
            stroke-dashoffset: 0;
            stroke-width: 128;
          }
          to {
            stroke: black;
            stroke-width: 1024;
          }
        }
        #make-me-a-hanzi-animation-12 {
          animation: keyframes12 0.6341145833333334s both;
          animation-delay: 7.71923828125s;
          animation-timing-function: linear;
        }
      
        @keyframes keyframes13 {
          from {
            stroke: blue;
            stroke-dashoffset: 402;
            stroke-width: 128;
          }
          57% {
            animation-timing-function: step-end;
            stroke: blue;
            stroke-dashoffset: 0;
            stroke-width: 128;
          }
          to {
            stroke: black;
            stroke-width: 1024;
          }
        }
        #make-me-a-hanzi-animation-13 {
          animation: keyframes13 0.5771484375s both;
          animation-delay: 8.353352864583334s;
          animation-timing-function: linear;
        }
      
        @keyframes keyframes14 {
          from {
            stroke: blue;
            stroke-dashoffset: 756;
            stroke-width: 128;
          }
          71% {
            animation-timing-function: step-end;
            stroke: blue;
            stroke-dashoffset: 0;
            stroke-width: 128;
          }
          to {
            stroke: black;
            stroke-width: 1024;
          }
        }
        #make-me-a-hanzi-animation-14 {
          animation: keyframes14 0.865234375s both;
          animation-delay: 8.930501302083334s;
          animation-timing-function: linear;
        }
      
        @keyframes keyframes15 {
          from {
            stroke: blue;
            stroke-dashoffset: 465;
            stroke-width: 128;
          }
          60% {
            animation-timing-function: step-end;
            stroke: blue;
            stroke-dashoffset: 0;
            stroke-width: 128;
          }
          to {
            stroke: black;
            stroke-width: 1024;
          }
        }
        #make-me-a-hanzi-animation-15 {
          animation: keyframes15 0.62841796875s both;
          animation-delay: 9.795735677083334s;
          animation-timing-function: linear;
        }
      
        @keyframes keyframes16 {
          from {
            stroke: blue;
            stroke-dashoffset: 720;
            stroke-width: 128;
          }
          70% {
            animation-timing-function: step-end;
            stroke: blue;
            stroke-dashoffset: 0;
            stroke-width: 128;
          }
          to {
            stroke: black;
            stroke-width: 1024;
          }
        }
        #make-me-a-hanzi-animation-16 {
          animation: keyframes16 0.8359375s both;
          animation-delay: 10.424153645833334s;
          animation-timing-function: linear;
        }
      
        @keyframes keyframes17 {
          from {
            stroke: blue;
            stroke-dashoffset: 469;
            stroke-width: 128;
          }
          60% {
            animation-timing-function: step-end;
            stroke: blue;
            stroke-dashoffset: 0;
            stroke-width: 128;
          }
          to {
            stroke: black;
            stroke-width: 1024;
          }
        }
        #make-me-a-hanzi-animation-17 {
          animation: keyframes17 0.6316731770833334s both;
          animation-delay: 11.260091145833334s;
          animation-timing-function: linear;
        }
      
        @keyframes keyframes18 {
          from {
            stroke: blue;
            stroke-dashoffset: 392;
            stroke-width: 128;
          }
          56% {
            animation-timing-function: step-end;
            stroke: blue;
            stroke-dashoffset: 0;
            stroke-width: 128;
          }
          to {
            stroke: black;
            stroke-width: 1024;
          }
        }
        #make-me-a-hanzi-animation-18 {
          animation: keyframes18 0.5690104166666666s both;
          animation-delay: 11.891764322916668s;
          animation-timing-function: linear;
        }
      
        @keyframes keyframes19 {
          from {
            stroke: blue;
            stroke-dashoffset: 448;
            stroke-width: 128;
          }
          59% {
            animation-timing-function: step-end;
            stroke: blue;
            stroke-dashoffset: 0;
            stroke-width: 128;
          }
          to {
            stroke: black;
            stroke-width: 1024;
          }
        }
        #make-me-a-hanzi-animation-19 {
          animation: keyframes19 0.6145833333333334s both;
          animation-delay: 12.460774739583334s;
          animation-timing-function: linear;
        }
      
        @keyframes keyframes20 {
          from {
            stroke: blue;
            stroke-dashoffset: 626;
            stroke-width: 128;
          }
          67% {
            animation-timing-function: step-end;
            stroke: blue;
            stroke-dashoffset: 0;
            stroke-width: 128;
          }
          to {
            stroke: black;
            stroke-width: 1024;
          }
        }
        #make-me-a-hanzi-animation-20 {
          animation: keyframes20 0.7594401041666666s both;
          animation-delay: 13.075358072916668s;
          animation-timing-function: linear;
        }
      
        @keyframes keyframes21 {
          from {
            stroke: blue;
            stroke-dashoffset: 407;
            stroke-width: 128;
          }
          57% {
            animation-timing-function: step-end;
            stroke: blue;
            stroke-dashoffset: 0;
            stroke-width: 128;
          }
          to {
            stroke: black;
            stroke-width: 1024;
          }
        }
        #make-me-a-hanzi-animation-21 {
          animation: keyframes21 0.5812174479166666s both;
          animation-delay: 13.834798177083334s;
          animation-timing-function: linear;
        }
      
        @keyframes keyframes22 {
          from {
            stroke: blue;
            stroke-dashoffset: 423;
            stroke-width: 128;
          }
          58% {
            animation-timing-function: step-end;
            stroke: blue;
            stroke-dashoffset: 0;
            stroke-width: 128;
          }
          to {
            stroke: black;
            stroke-width: 1024;
          }
        }
        #make-me-a-hanzi-animation-22 {
          animation: keyframes22 0.59423828125s both;
          animation-delay: 14.416015625s;
          animation-timing-function: linear;
        }
      
        @keyframes keyframes23 {
          from {
            stroke: blue;
            stroke-dashoffset: 784;
            stroke-width: 128;
          }
          72% {
            animation-timing-function: step-end;
            stroke: blue;
            stroke-dashoffset: 0;
            stroke-width: 128;
          }
          to {
            stroke: black;
            stroke-width: 1024;
          }
        }
        #make-me-a-hanzi-animation-23 {
          animation: keyframes23 0.8880208333333334s both;
          animation-delay: 15.01025390625s;
          animation-timing-function: linear;
        }
      
        @keyframes keyframes24 {
          from {
            stroke: blue;
            stroke-dashoffset: 492;
            stroke-width: 128;
          }
          62% {
            animation-timing-function: step-end;
            stroke: blue;
            stroke-dashoffset: 0;
            stroke-width: 128;
          }
          to {
            stroke: black;
            stroke-width: 1024;
          }
        }
        #make-me-a-hanzi-animation-24 {
          animation: keyframes24 0.650390625s both;
          animation-delay: 15.898274739583334s;
          animation-timing-function: linear;
        }
      
        @keyframes keyframes25 {
          from {
            stroke: blue;
            stroke-dashoffset: 469;
            stroke-width: 128;
          }
          60% {
            animation-timing-function: step-end;
            stroke: blue;
            stroke-dashoffset: 0;
            stroke-width: 128;
          }
          to {
            stroke: black;
            stroke-width: 1024;
          }
        }
        #make-me-a-hanzi-animation-25 {
          animation: keyframes25 0.6316731770833334s both;
          animation-delay: 16.548665364583336s;
          animation-timing-function: linear;
        }
      
    </style>
    
      <path d="M 329 621 L 409 633 Q 427 636 436 640 Q 444 645 444 649 L 444 650 Q 444 654 434 662 Q 424 668 410 672 Q 395 676 389 676 Q 385 675 372 670 Q 359 666 337 661 L 284 649 Q 269 646 249 644 L 207 638 C 177 634 183 615 213 612 L 231 610 Q 233 609 238 609 Q 242 609 249 610 Q 265 611 269 612 Q 273 612 282 614 L 329 621 Z" fill="lightgray" />
    
      <path d="M 207 638 L 177 650 Q 163 656 155 656 Q 148 656 145 654 Q 142 651 141 646 Q 141 641 145 632 Q 150 624 153 617 Q 157 610 159 599 Q 163 588 165 568 Q 167 546 167 534 L 163 443 L 159 406 Q 157 388 154 367 Q 151 346 147 334 Q 139 315 139 310 Q 139 304 142 299 Q 144 294 151 284 Q 159 274 163 270 Q 169 266 173 266 Q 177 266 185 272 C 211 286 208 297 201 326 Q 198 329 198 336 L 198 340 Q 198 350 200 366 Q 201 382 203 394 L 203 410 L 205 426 L 209 504 L 209 522 L 210 536 L 213 584 L 213 612 C 213 636 213 636 207 638 Z" fill="lightgray" />
    
      <path d="M 339 511 L 405 520 Q 419 522 423 526 Q 427 529 427 534 L 427 536 Q 427 541 418 545 Q 409 550 394 553 Q 382 556 376 556 L 373 556 L 353 551 L 341 548 L 294 536 L 255 529 Q 250 528 237 526 Q 224 524 209 522 C 179 518 182 517 209 504 L 222 498 Q 229 494 239 494 L 243 494 Q 257 495 267 497 Q 277 498 293 502 L 339 511 Z" fill="lightgray" />
    
      <path d="M 337 408 L 399 419 Q 419 422 425 427 Q 430 431 430 436 L 430 437 Q 429 442 420 446 Q 411 450 397 454 Q 386 457 380 457 L 377 457 L 363 454 L 337 448 L 291 438 L 257 432 Q 252 432 235 430 Q 218 428 205 426 C 179 422 179 422 203 410 L 213 405 Q 219 400 227 399 Q 235 398 244 398 Q 254 398 269 400 L 293 404 L 337 408 Z" fill="lightgray" />
    
      <path d="M 333 338 L 337 408 L 337 448 L 339 511 L 341 548 L 342 567 Q 343 586 347 594 Q 350 602 350 604 Q 349 607 344 612 Q 338 616 329 621 C 303 636 269 641 282 614 L 288 602 Q 289 598 291 585 Q 294 572 294 568 L 294 536 L 293 502 L 291 438 L 293 404 L 291 333 C 290 303 331 308 333 338 Z" fill="lightgray" />
    
      <path d="M 185 272 Q 193 277 199 280 Q 205 283 227 288 Q 249 294 270 297 Q 291 301 314 303 L 351 304 L 362 304 Q 378 304 383 299 Q 389 293 390 276 Q 391 269 391 258 Q 391 243 389 220 Q 387 182 384 151 Q 381 120 377 94 Q 373 68 362 43 Q 351 18 336 14 Q 331 12 324 12 Q 317 12 309 14 Q 293 18 277 24 L 264 28 Q 260 30 257 30 Q 254 30 253 27 Q 252 25 252 24 Q 252 21 255 19 L 267 8 Q 276 0 293 -19 Q 311 -38 320 -53 Q 329 -68 333 -70 Q 335 -71 337 -71 Q 347 -71 362 -57 Q 379 -40 390 -18 Q 401 4 409 34 Q 417 63 422 99 Q 427 136 429 158 L 435 224 Q 437 244 441 262 Q 445 282 451 290 Q 458 301 458 305 L 458 306 Q 458 310 450 317 Q 442 324 431 332 Q 421 339 411 343 Q 401 346 392 347 Q 385 347 369 344 Q 354 340 349 340 L 333 338 L 291 333 L 245 328 L 217 325 L 210 325 Q 204 325 201 326 C 171 327 158 258 185 272 Z" fill="lightgray" />
    
      <path d="M 106 224 Q 104 230 99 230 L 97 230 Q 92 228 91 222 L 88 206 Q 87 200 84 190 Q 82 180 79 170 L 69 150 Q 63 139 61 136 L 54 126 Q 53 122 53 111 Q 53 99 55 88 Q 58 76 63 69 Q 69 62 75 62 L 77 62 Q 85 62 94 73 Q 105 86 109 100 Q 114 115 117 133 Q 119 147 119 157 L 119 163 Q 119 174 116 190 Q 113 206 111 213 L 106 224 Z" fill="lightgray" />
    
      <path d="M 151 226 Q 148 228 145 228 Q 141 227 140 226 L 140 224 Q 140 222 141 219 L 143 206 Q 145 200 147 192 Q 151 183 157 162 Q 163 142 169 132 Q 175 124 181 123 L 183 123 Q 188 123 193 128 Q 199 134 201 144 Q 202 149 202 157 L 202 166 Q 201 178 192 191 Q 183 203 175 210 Q 166 216 161 220 L 151 226 Z" fill="lightgray" />
    
      <path d="M 219 220 L 228 198 Q 233 188 239 173 Q 245 159 251 153 Q 260 144 267 144 Q 275 146 280 155 Q 285 165 285 178 Q 285 190 279 200 Q 273 210 265 216 Q 257 222 249 226 L 237 232 L 225 238 Q 222 239 220 239 Q 218 239 216 238 Q 213 238 213 234 L 213 233 Q 213 231 215 226 L 219 220 Z" fill="lightgray" />
    
      <path d="M 305 232 Q 307 226 312 215 Q 317 203 325 189 Q 331 176 339 170 Q 346 163 352 163 L 353 163 Q 359 164 365 172 Q 371 180 372 191 L 372 194 Q 372 205 366 214 Q 359 224 353 229 Q 346 234 335 240 Q 325 246 321 248 L 309 251 Q 304 252 301 252 L 299 252 Q 297 252 296 249 L 296 248 Q 296 245 299 241 L 305 232 Z" fill="lightgray" />
    
      <path d="M 572 619 L 572 545 C 572 515 612 526 613 556 L 618 666 Q 619 686 623 697 Q 626 706 626 711 L 626 714 Q 625 720 611 726 Q 597 732 577 736 Q 572 737 569 737 Q 562 737 560 734 Q 557 731 557 727 L 557 725 Q 557 721 562 712 Q 567 702 568 685 L 570 650 L 572 619 Z" fill="lightgray" />
    
      <path d="M 570 650 L 543 652 Q 541 652 534 650 L 507 643 Q 489 638 483 638 L 463 635 Q 457 634 456 631 L 456 630 Q 456 627 459 623 Q 463 618 471 614 Q 480 611 495 611 L 501 611 Q 509 611 520 612 Q 537 614 572 619 C 602 623 600 648 570 650 Z" fill="lightgray" />
    
      <path d="M 572 545 L 511 533 Q 495 530 486 528 Q 477 528 463 530 Q 457 531 452 531 Q 448 531 446 530 Q 441 528 440 524 L 440 522 Q 440 519 443 514 Q 448 508 460 498 Q 473 488 475 487 Q 487 478 492 478 Q 497 480 505 484 L 526 496 L 549 508 L 640 544 Q 656 550 656 555 Q 656 557 655 558 Q 652 563 645 563 Q 642 563 637 562 L 613 556 L 572 545 Z" fill="lightgray" />
    
      <path d="M 716 645 L 731 642 Q 735 642 753 643 Q 772 644 787 647 L 831 654 Q 857 657 867 662 Q 877 668 877 673 Q 877 678 869 683 Q 860 688 845 693 Q 833 697 828 697 L 826 697 Q 823 697 813 694 L 793 688 Q 773 680 758 677 Q 743 673 718 668 C 689 662 687 651 716 645 Z" fill="lightgray" />
    
      <path d="M 718 668 L 723 716 Q 725 727 729 735 Q 733 743 733 747 Q 733 750 726 756 Q 719 760 703 766 Q 687 772 681 772 Q 671 772 669 769 Q 667 765 667 761 Q 669 758 671 750 Q 675 744 677 732 Q 679 720 679 708 L 678 596 L 678 591 Q 678 566 688 549 Q 699 530 714 520 Q 729 511 751 507 Q 774 504 797 503 L 809 503 Q 833 503 850 506 Q 871 510 889 516 Q 907 522 915 528 Q 925 534 930 542 Q 935 550 935 554 L 935 556 Q 934 562 928 568 Q 923 574 917 582 Q 913 590 909 599 Q 905 609 903 618 L 899 633 Q 897 642 893 642 Q 888 642 887 635 L 885 622 L 877 591 Q 871 577 863 569 Q 855 562 840 558 Q 825 554 795 554 Q 759 554 741 561 Q 723 569 718 582 Q 714 592 714 604 L 714 609 L 716 645 L 718 668 Z" fill="lightgray" />
    
      <path d="M 527 441 L 505 446 Q 497 448 491 448 Q 485 448 481 446 Q 477 444 476 441 Q 475 438 475 435 Q 477 432 485 426 Q 493 420 498 410 Q 503 400 506 385 L 521 291 Q 523 278 525 270 Q 527 262 529 256 Q 533 250 537 248 Q 542 244 545 244 L 546 244 Q 549 245 553 251 Q 555 257 559 263 C 562 267 562 267 560 289 L 556 344 L 554 367 L 549 418 C 547 436 547 436 527 441 Z" fill="lightgray" />
    
      <path d="M 757 282 L 767 270 Q 770 265 774 265 Q 779 265 786 270 Q 800 280 805 293 L 842 398 Q 849 420 857 430 Q 863 440 864 443 Q 864 452 844 462 Q 825 472 809 479 Q 793 485 785 485 Q 779 484 765 480 Q 751 474 729 471 L 689 464 Q 653 458 652 458 L 527 441 C 497 437 519 414 549 418 L 636 430 L 680 435 L 757 443 L 763 443 Q 770 443 775 442 Q 783 440 785 436 Q 786 434 786 430 Q 786 425 785 418 L 780 384 L 778 373 L 760 305 C 755 285 755 285 757 282 Z" fill="lightgray" />
    
      <path d="M 638 378 L 611 374 Q 597 372 554 367 C 524 364 526 344 556 344 L 585 344 Q 594 344 605 345 Q 621 348 639 350 L 679 356 L 711 360 Q 733 363 748 366 Q 762 369 778 373 C 800 378 800 378 780 384 L 751 392 Q 736 396 729 396 Q 721 395 706 392 L 681 386 L 638 378 Z" fill="lightgray" />
    
      <path d="M 636 430 L 638 378 L 639 350 L 639 296 C 639 266 679 273 679 303 L 679 356 L 681 386 L 680 435 C 679 465 635 460 636 430 Z" fill="lightgray" />
    
      <path d="M 559 263 L 607 268 L 701 278 Q 719 280 757 282 C 787 284 788 296 760 305 L 745 310 Q 739 312 731 312 Q 724 311 706 308 L 679 303 L 639 296 L 560 289 C 530 286 529 260 559 263 Z" fill="lightgray" />
    
      <path d="M 753 172 L 843 185 Q 850 186 855 189 Q 859 192 861 194 Q 861 198 855 204 Q 849 211 835 216 Q 821 220 818 220 Q 815 220 799 216 L 768 209 L 707 200 L 611 188 L 567 182 L 491 176 Q 484 176 483 173 Q 482 172 482 171 Q 482 168 485 165 Q 488 160 495 156 Q 502 152 511 152 Q 518 151 525 151 L 532 151 Q 543 151 569 154 L 609 157 L 703 166 L 753 172 Z" fill="lightgray" />
    
      <path d="M 611 188 L 613 204 Q 614 212 616 217 Q 617 223 617 226 Q 617 229 607 233 Q 598 236 590 238 Q 582 240 571 242 Q 566 243 563 243 Q 558 243 556 241 Q 553 238 553 234 Q 553 230 558 222 Q 563 214 565 200 L 567 182 L 569 154 L 574 92 C 576 62 612 66 611 96 L 609 157 L 611 188 Z" fill="lightgray" />
    
      <path d="M 732 106 L 753 172 L 768 209 L 774 225 L 774 226 Q 774 227 772 230 Q 769 234 764 240 Q 759 245 743 255 Q 729 266 721 266 L 717 266 Q 712 266 710 264 Q 708 262 708 258 L 708 256 Q 708 252 709 241 Q 711 230 711 222 Q 711 214 707 200 L 703 166 L 693 104 C 688 74 723 77 732 106 Z" fill="lightgray" />
    
      <path d="M 574 92 L 515 87 L 469 83 L 447 83 Q 437 83 434 78 Q 433 77 433 75 Q 433 72 438 67 Q 444 60 459 53 L 478 42 Q 481 41 485 41 L 489 41 Q 490 41 497 44 Q 504 46 516 49 L 537 54 Q 553 56 595 62 Q 637 66 661 68 Q 687 70 744 72 Q 802 74 825 74 L 895 74 L 945 75 Q 957 75 963 78 Q 969 80 971 84 L 971 86 Q 971 91 962 98 Q 951 106 935 114 L 909 124 Q 902 126 896 126 L 893 126 L 880 124 L 845 118 Q 819 114 794 112 Q 768 109 732 106 L 693 104 L 611 96 L 574 92 Z" fill="lightgray" />
    
      <path d="M 433 -107 Q 423 -114 423 -118 Q 423 -120 426 -122 Q 429 -122 435 -120 L 457 -114 Q 472 -110 488 -102 Q 504 -94 530 -79 Q 555 -64 567 -54 L 601 -26 L 613 -20 Q 622 -14 624 -10 Q 625 -8 625 -6 Q 625 -1 622 4 Q 617 12 611 20 Q 604 28 597 35 Q 591 42 585 45 Q 577 49 572 49 Q 570 49 569 48 Q 564 46 559 26 Q 555 8 536 -14 Q 518 -36 509 -46 Q 499 -56 478 -74 Q 457 -91 447 -98 L 433 -107 Z" fill="lightgray" />
    
      <path d="M 717 21 Q 730 7 736 0 Q 743 -6 756 -24 L 786 -65 Q 803 -88 812 -99 Q 822 -111 832 -118 Q 842 -127 850 -127 L 852 -127 Q 861 -126 865 -120 Q 870 -114 871 -101 Q 871 -88 868 -72 Q 865 -57 857 -46 Q 850 -34 835 -20 Q 821 -7 803 4 Q 785 16 763 26 Q 741 36 729 40 L 713 46 Q 710 47 707 47 Q 702 47 700 44 Q 699 43 699 41 Q 699 38 704 34 L 717 21 Z" fill="lightgray" />
    
    
      <clipPath id="make-me-a-hanzi-clip-0">
        <path d="M 329 621 L 409 633 Q 427 636 436 640 Q 444 645 444 649 L 444 650 Q 444 654 434 662 Q 424 668 410 672 Q 395 676 389 676 Q 385 675 372 670 Q 359 666 337 661 L 284 649 Q 269 646 249 644 L 207 638 C 177 634 183 615 213 612 L 231 610 Q 233 609 238 609 Q 242 609 249 610 Q 265 611 269 612 Q 273 612 282 614 L 329 621 Z" />
      </clipPath>
      <path clip-path="url(#make-me-a-hanzi-clip-0)" d="M 215 633 L 225 626 L 242 626 L 391 653 L 434 650" fill="none" id="make-me-a-hanzi-animation-0" stroke-dasharray="352 704" stroke-linecap="round" />
    
      <clipPath id="make-me-a-hanzi-clip-1">
        <path d="M 207 638 L 177 650 Q 163 656 155 656 Q 148 656 145 654 Q 142 651 141 646 Q 141 641 145 632 Q 150 624 153 617 Q 157 610 159 599 Q 163 588 165 568 Q 167 546 167 534 L 163 443 L 159 406 Q 157 388 154 367 Q 151 346 147 334 Q 139 315 139 310 Q 139 304 142 299 Q 144 294 151 284 Q 159 274 163 270 Q 169 266 173 266 Q 177 266 185 272 C 211 286 208 297 201 326 Q 198 329 198 336 L 198 340 Q 198 350 200 366 Q 201 382 203 394 L 203 410 L 205 426 L 209 504 L 209 522 L 210 536 L 213 584 L 213 612 C 213 636 213 636 207 638 Z" />
      </clipPath>
      <path clip-path="url(#make-me-a-hanzi-clip-1)" d="M 152 646 L 183 618 L 188 591 L 184 434 L 168 308 L 173 281" fill="none" id="make-me-a-hanzi-animation-1" stroke-dasharray="509 1018" stroke-linecap="round" />
    
      <clipPath id="make-me-a-hanzi-clip-2">
        <path d="M 339 511 L 405 520 Q 419 522 423 526 Q 427 529 427 534 L 427 536 Q 427 541 418 545 Q 409 550 394 553 Q 382 556 376 556 L 373 556 L 353 551 L 341 548 L 294 536 L 255 529 Q 250 528 237 526 Q 224 524 209 522 C 179 518 182 517 209 504 L 222 498 Q 229 494 239 494 L 243 494 Q 257 495 267 497 Q 277 498 293 502 L 339 511 Z" />
      </clipPath>
      <path clip-path="url(#make-me-a-hanzi-clip-2)" d="M 217 518 L 222 511 L 241 510 L 373 536 L 417 535" fill="none" id="make-me-a-hanzi-animation-2" stroke-dasharray="334 668" stroke-linecap="round" />
    
      <clipPath id="make-me-a-hanzi-clip-3">
        <path d="M 337 408 L 399 419 Q 419 422 425 427 Q 430 431 430 436 L 430 437 Q 429 442 420 446 Q 411 450 397 454 Q 386 457 380 457 L 377 457 L 363 454 L 337 448 L 291 438 L 257 432 Q 252 432 235 430 Q 218 428 205 426 C 179 422 179 422 203 410 L 213 405 Q 219 400 227 399 Q 235 398 244 398 Q 254 398 269 400 L 293 404 L 337 408 Z" />
      </clipPath>
      <path clip-path="url(#make-me-a-hanzi-clip-3)" d="M 211 413 L 421 437" fill="none" id="make-me-a-hanzi-animation-3" stroke-dasharray="339 678" stroke-linecap="round" />
    
      <clipPath id="make-me-a-hanzi-clip-4">
        <path d="M 333 338 L 337 408 L 337 448 L 339 511 L 341 548 L 342 567 Q 343 586 347 594 Q 350 602 350 604 Q 349 607 344 612 Q 338 616 329 621 C 303 636 269 641 282 614 L 288 602 Q 289 598 291 585 Q 294 572 294 568 L 294 536 L 293 502 L 291 438 L 293 404 L 291 333 C 290 303 331 308 333 338 Z" />
      </clipPath>
      <path clip-path="url(#make-me-a-hanzi-clip-4)" d="M 290 611 L 318 592 L 319 578 L 313 357 L 297 340" fill="none" id="make-me-a-hanzi-animation-4" stroke-dasharray="420 840" stroke-linecap="round" />
    
      <clipPath id="make-me-a-hanzi-clip-5">
        <path d="M 185 272 Q 193 277 199 280 Q 205 283 227 288 Q 249 294 270 297 Q 291 301 314 303 L 351 304 L 362 304 Q 378 304 383 299 Q 389 293 390 276 Q 391 269 391 258 Q 391 243 389 220 Q 387 182 384 151 Q 381 120 377 94 Q 373 68 362 43 Q 351 18 336 14 Q 331 12 324 12 Q 317 12 309 14 Q 293 18 277 24 L 264 28 Q 260 30 257 30 Q 254 30 253 27 Q 252 25 252 24 Q 252 21 255 19 L 267 8 Q 276 0 293 -19 Q 311 -38 320 -53 Q 329 -68 333 -70 Q 335 -71 337 -71 Q 347 -71 362 -57 Q 379 -40 390 -18 Q 401 4 409 34 Q 417 63 422 99 Q 427 136 429 158 L 435 224 Q 437 244 441 262 Q 445 282 451 290 Q 458 301 458 305 L 458 306 Q 458 310 450 317 Q 442 324 431 332 Q 421 339 411 343 Q 401 346 392 347 Q 385 347 369 344 Q 354 340 349 340 L 333 338 L 291 333 L 245 328 L 217 325 L 210 325 Q 204 325 201 326 C 171 327 158 258 185 272 Z" />
      </clipPath>
      <path clip-path="url(#make-me-a-hanzi-clip-5)" d="M 194 282 L 216 305 L 314 320 L 389 323 L 419 299 L 400 95 L 373 9 L 344 -22 L 257 24" fill="none" id="make-me-a-hanzi-animation-5" stroke-dasharray="808 1616" stroke-linecap="round" />
    
      <clipPath id="make-me-a-hanzi-clip-6">
        <path d="M 106 224 Q 104 230 99 230 L 97 230 Q 92 228 91 222 L 88 206 Q 87 200 84 190 Q 82 180 79 170 L 69 150 Q 63 139 61 136 L 54 126 Q 53 122 53 111 Q 53 99 55 88 Q 58 76 63 69 Q 69 62 75 62 L 77 62 Q 85 62 94 73 Q 105 86 109 100 Q 114 115 117 133 Q 119 147 119 157 L 119 163 Q 119 174 116 190 Q 113 206 111 213 L 106 224 Z" />
      </clipPath>
      <path clip-path="url(#make-me-a-hanzi-clip-6)" d="M 98 223 L 98 160 L 76 78" fill="none" id="make-me-a-hanzi-animation-6" stroke-dasharray="276 552" stroke-linecap="round" />
    
      <clipPath id="make-me-a-hanzi-clip-7">
        <path d="M 151 226 Q 148 228 145 228 Q 141 227 140 226 L 140 224 Q 140 222 141 219 L 143 206 Q 145 200 147 192 Q 151 183 157 162 Q 163 142 169 132 Q 175 124 181 123 L 183 123 Q 188 123 193 128 Q 199 134 201 144 Q 202 149 202 157 L 202 166 Q 201 178 192 191 Q 183 203 175 210 Q 166 216 161 220 L 151 226 Z" />
      </clipPath>
      <path clip-path="url(#make-me-a-hanzi-clip-7)" d="M 143 225 L 172 184 L 182 137" fill="none" id="make-me-a-hanzi-animation-7" stroke-dasharray="226 452" stroke-linecap="round" />
    
      <clipPath id="make-me-a-hanzi-clip-8">
        <path d="M 219 220 L 228 198 Q 233 188 239 173 Q 245 159 251 153 Q 260 144 267 144 Q 275 146 280 155 Q 285 165 285 178 Q 285 190 279 200 Q 273 210 265 216 Q 257 222 249 226 L 237 232 L 225 238 Q 222 239 220 239 Q 218 239 216 238 Q 213 238 213 234 L 213 233 Q 213 231 215 226 L 219 220 Z" />
      </clipPath>
      <path clip-path="url(#make-me-a-hanzi-clip-8)" d="M 218 234 L 254 196 L 266 155" fill="none" id="make-me-a-hanzi-animation-8" stroke-dasharray="223 446" stroke-linecap="round" />
    
      <clipPath id="make-me-a-hanzi-clip-9">
        <path d="M 305 232 Q 307 226 312 215 Q 317 203 325 189 Q 331 176 339 170 Q 346 163 352 163 L 353 163 Q 359 164 365 172 Q 371 180 372 191 L 372 194 Q 372 205 366 214 Q 359 224 353 229 Q 346 234 335 240 Q 325 246 321 248 L 309 251 Q 304 252 301 252 L 299 252 Q 297 252 296 249 L 296 248 Q 296 245 299 241 L 305 232 Z" />
      </clipPath>
      <path clip-path="url(#make-me-a-hanzi-clip-9)" d="M 300 249 L 344 204 L 353 176" fill="none" id="make-me-a-hanzi-animation-9" stroke-dasharray="220 440" stroke-linecap="round" />
    
      <clipPath id="make-me-a-hanzi-clip-10">
        <path d="M 572 619 L 572 545 C 572 515 612 526 613 556 L 618 666 Q 619 686 623 697 Q 626 706 626 711 L 626 714 Q 625 720 611 726 Q 597 732 577 736 Q 572 737 569 737 Q 562 737 560 734 Q 557 731 557 727 L 557 725 Q 557 721 562 712 Q 567 702 568 685 L 570 650 L 572 619 Z" />
      </clipPath>
      <path clip-path="url(#make-me-a-hanzi-clip-10)" d="M 567 727 L 595 702 L 593 572 L 577 552" fill="none" id="make-me-a-hanzi-animation-10" stroke-dasharray="321 642" stroke-linecap="round" />
    
      <clipPath id="make-me-a-hanzi-clip-11">
        <path d="M 570 650 L 543 652 Q 541 652 534 650 L 507 643 Q 489 638 483 638 L 463 635 Q 457 634 456 631 L 456 630 Q 456 627 459 623 Q 463 618 471 614 Q 480 611 495 611 L 501 611 Q 509 611 520 612 Q 537 614 572 619 C 602 623 600 648 570 650 Z" />
      </clipPath>
      <path clip-path="url(#make-me-a-hanzi-clip-11)" d="M 461 631 L 489 624 L 554 634 L 563 626" fill="none" id="make-me-a-hanzi-animation-11" stroke-dasharray="235 470" stroke-linecap="round" />
    
      <clipPath id="make-me-a-hanzi-clip-12">
        <path d="M 572 545 L 511 533 Q 495 530 486 528 Q 477 528 463 530 Q 457 531 452 531 Q 448 531 446 530 Q 441 528 440 524 L 440 522 Q 440 519 443 514 Q 448 508 460 498 Q 473 488 475 487 Q 487 478 492 478 Q 497 480 505 484 L 526 496 L 549 508 L 640 544 Q 656 550 656 555 Q 656 557 655 558 Q 652 563 645 563 Q 642 563 637 562 L 613 556 L 572 545 Z" />
      </clipPath>
      <path clip-path="url(#make-me-a-hanzi-clip-12)" d="M 447 523 L 492 504 L 651 555" fill="none" id="make-me-a-hanzi-animation-12" stroke-dasharray="344 688" stroke-linecap="round" />
    
      <clipPath id="make-me-a-hanzi-clip-13">
        <path d="M 716 645 L 731 642 Q 735 642 753 643 Q 772 644 787 647 L 831 654 Q 857 657 867 662 Q 877 668 877 673 Q 877 678 869 683 Q 860 688 845 693 Q 833 697 828 697 L 826 697 Q 823 697 813 694 L 793 688 Q 773 680 758 677 Q 743 673 718 668 C 689 662 687 651 716 645 Z" />
      </clipPath>
      <path clip-path="url(#make-me-a-hanzi-clip-13)" d="M 725 650 L 732 657 L 824 675 L 866 673" fill="none" id="make-me-a-hanzi-animation-13" stroke-dasharray="274 548" stroke-linecap="round" />
    
      <clipPath id="make-me-a-hanzi-clip-14">
        <path d="M 718 668 L 723 716 Q 725 727 729 735 Q 733 743 733 747 Q 733 750 726 756 Q 719 760 703 766 Q 687 772 681 772 Q 671 772 669 769 Q 667 765 667 761 Q 669 758 671 750 Q 675 744 677 732 Q 679 720 679 708 L 678 596 L 678 591 Q 678 566 688 549 Q 699 530 714 520 Q 729 511 751 507 Q 774 504 797 503 L 809 503 Q 833 503 850 506 Q 871 510 889 516 Q 907 522 915 528 Q 925 534 930 542 Q 935 550 935 554 L 935 556 Q 934 562 928 568 Q 923 574 917 582 Q 913 590 909 599 Q 905 609 903 618 L 899 633 Q 897 642 893 642 Q 888 642 887 635 L 885 622 L 877 591 Q 871 577 863 569 Q 855 562 840 558 Q 825 554 795 554 Q 759 554 741 561 Q 723 569 718 582 Q 714 592 714 604 L 714 609 L 716 645 L 718 668 Z" />
      </clipPath>
      <path clip-path="url(#make-me-a-hanzi-clip-14)" d="M 677 763 L 702 739 L 695 603 L 700 573 L 710 555 L 730 539 L 761 530 L 816 528 L 851 533 L 886 547 L 895 559 L 893 636" fill="none" id="make-me-a-hanzi-animation-14" stroke-dasharray="628 1256" stroke-linecap="round" />
    
      <clipPath id="make-me-a-hanzi-clip-15">
        <path d="M 527 441 L 505 446 Q 497 448 491 448 Q 485 448 481 446 Q 477 444 476 441 Q 475 438 475 435 Q 477 432 485 426 Q 493 420 498 410 Q 503 400 506 385 L 521 291 Q 523 278 525 270 Q 527 262 529 256 Q 533 250 537 248 Q 542 244 545 244 L 546 244 Q 549 245 553 251 Q 555 257 559 263 C 562 267 562 267 560 289 L 556 344 L 554 367 L 549 418 C 547 436 547 436 527 441 Z" />
      </clipPath>
      <path clip-path="url(#make-me-a-hanzi-clip-15)" d="M 485 436 L 507 429 L 526 408 L 546 252" fill="none" id="make-me-a-hanzi-animation-15" stroke-dasharray="337 674" stroke-linecap="round" />
    
      <clipPath id="make-me-a-hanzi-clip-16">
        <path d="M 757 282 L 767 270 Q 770 265 774 265 Q 779 265 786 270 Q 800 280 805 293 L 842 398 Q 849 420 857 430 Q 863 440 864 443 Q 864 452 844 462 Q 825 472 809 479 Q 793 485 785 485 Q 779 484 765 480 Q 751 474 729 471 L 689 464 Q 653 458 652 458 L 527 441 C 497 437 519 414 549 418 L 636 430 L 680 435 L 757 443 L 763 443 Q 770 443 775 442 Q 783 440 785 436 Q 786 434 786 430 Q 786 425 785 418 L 780 384 L 778 373 L 760 305 C 755 285 755 285 757 282 Z" />
      </clipPath>
      <path clip-path="url(#make-me-a-hanzi-clip-16)" d="M 535 438 L 555 431 L 776 463 L 804 454 L 820 436 L 777 276" fill="none" id="make-me-a-hanzi-animation-16" stroke-dasharray="592 1184" stroke-linecap="round" />
    
      <clipPath id="make-me-a-hanzi-clip-17">
        <path d="M 638 378 L 611 374 Q 597 372 554 367 C 524 364 526 344 556 344 L 585 344 Q 594 344 605 345 Q 621 348 639 350 L 679 356 L 711 360 Q 733 363 748 366 Q 762 369 778 373 C 800 378 800 378 780 384 L 751 392 Q 736 396 729 396 Q 721 395 706 392 L 681 386 L 638 378 Z" />
      </clipPath>
      <path clip-path="url(#make-me-a-hanzi-clip-17)" d="M 563 350 L 568 357 L 732 380 L 771 380" fill="none" id="make-me-a-hanzi-animation-17" stroke-dasharray="341 682" stroke-linecap="round" />
    
      <clipPath id="make-me-a-hanzi-clip-18">
        <path d="M 636 430 L 638 378 L 639 350 L 639 296 C 639 266 679 273 679 303 L 679 356 L 681 386 L 680 435 C 679 465 635 460 636 430 Z" />
      </clipPath>
      <path clip-path="url(#make-me-a-hanzi-clip-18)" d="M 673 429 L 658 411 L 659 320 L 645 303" fill="none" id="make-me-a-hanzi-animation-18" stroke-dasharray="264 528" stroke-linecap="round" />
    
      <clipPath id="make-me-a-hanzi-clip-19">
        <path d="M 559 263 L 607 268 L 701 278 Q 719 280 757 282 C 787 284 788 296 760 305 L 745 310 Q 739 312 731 312 Q 724 311 706 308 L 679 303 L 639 296 L 560 289 C 530 286 529 260 559 263 Z" />
      </clipPath>
      <path clip-path="url(#make-me-a-hanzi-clip-19)" d="M 564 269 L 573 277 L 744 295 L 750 300" fill="none" id="make-me-a-hanzi-animation-19" stroke-dasharray="320 640" stroke-linecap="round" />
    
      <clipPath id="make-me-a-hanzi-clip-20">
        <path d="M 753 172 L 843 185 Q 850 186 855 189 Q 859 192 861 194 Q 861 198 855 204 Q 849 211 835 216 Q 821 220 818 220 Q 815 220 799 216 L 768 209 L 707 200 L 611 188 L 567 182 L 491 176 Q 484 176 483 173 Q 482 172 482 171 Q 482 168 485 165 Q 488 160 495 156 Q 502 152 511 152 Q 518 151 525 151 L 532 151 Q 543 151 569 154 L 609 157 L 703 166 L 753 172 Z" />
      </clipPath>
      <path clip-path="url(#make-me-a-hanzi-clip-20)" d="M 487 170 L 536 165 L 758 189 L 810 200 L 854 197" fill="none" id="make-me-a-hanzi-animation-20" stroke-dasharray="498 996" stroke-linecap="round" />
    
      <clipPath id="make-me-a-hanzi-clip-21">
        <path d="M 611 188 L 613 204 Q 614 212 616 217 Q 617 223 617 226 Q 617 229 607 233 Q 598 236 590 238 Q 582 240 571 242 Q 566 243 563 243 Q 558 243 556 241 Q 553 238 553 234 Q 553 230 558 222 Q 563 214 565 200 L 567 182 L 569 154 L 574 92 C 576 62 612 66 611 96 L 609 157 L 611 188 Z" />
      </clipPath>
      <path clip-path="url(#make-me-a-hanzi-clip-21)" d="M 562 234 L 588 212 L 591 111 L 579 100" fill="none" id="make-me-a-hanzi-animation-21" stroke-dasharray="279 558" stroke-linecap="round" />
    
      <clipPath id="make-me-a-hanzi-clip-22">
        <path d="M 732 106 L 753 172 L 768 209 L 774 225 L 774 226 Q 774 227 772 230 Q 769 234 764 240 Q 759 245 743 255 Q 729 266 721 266 L 717 266 Q 712 266 710 264 Q 708 262 708 258 L 708 256 Q 708 252 709 241 Q 711 230 711 222 Q 711 214 707 200 L 703 166 L 693 104 C 688 74 723 77 732 106 Z" />
      </clipPath>
      <path clip-path="url(#make-me-a-hanzi-clip-22)" d="M 715 259 L 741 221 L 719 132 L 699 111" fill="none" id="make-me-a-hanzi-animation-22" stroke-dasharray="295 590" stroke-linecap="round" />
    
      <clipPath id="make-me-a-hanzi-clip-23">
        <path d="M 574 92 L 515 87 L 469 83 L 447 83 Q 437 83 434 78 Q 433 77 433 75 Q 433 72 438 67 Q 444 60 459 53 L 478 42 Q 481 41 485 41 L 489 41 Q 490 41 497 44 Q 504 46 516 49 L 537 54 Q 553 56 595 62 Q 637 66 661 68 Q 687 70 744 72 Q 802 74 825 74 L 895 74 L 945 75 Q 957 75 963 78 Q 969 80 971 84 L 971 86 Q 971 91 962 98 Q 951 106 935 114 L 909 124 Q 902 126 896 126 L 893 126 L 880 124 L 845 118 Q 819 114 794 112 Q 768 109 732 106 L 693 104 L 611 96 L 574 92 Z" />
      </clipPath>
      <path clip-path="url(#make-me-a-hanzi-clip-23)" d="M 441 74 L 484 63 L 647 84 L 895 100 L 964 85" fill="none" id="make-me-a-hanzi-animation-23" stroke-dasharray="656 1312" stroke-linecap="round" />
    
      <clipPath id="make-me-a-hanzi-clip-24">
        <path d="M 433 -107 Q 423 -114 423 -118 Q 423 -120 426 -122 Q 429 -122 435 -120 L 457 -114 Q 472 -110 488 -102 Q 504 -94 530 -79 Q 555 -64 567 -54 L 601 -26 L 613 -20 Q 622 -14 624 -10 Q 625 -8 625 -6 Q 625 -1 622 4 Q 617 12 611 20 Q 604 28 597 35 Q 591 42 585 45 Q 577 49 572 49 Q 570 49 569 48 Q 564 46 559 26 Q 555 8 536 -14 Q 518 -36 509 -46 Q 499 -56 478 -74 Q 457 -91 447 -98 L 433 -107 Z" />
      </clipPath>
      <path clip-path="url(#make-me-a-hanzi-clip-24)" d="M 574 39 L 585 2 L 557 -30 L 513 -69 L 429 -116" fill="none" id="make-me-a-hanzi-animation-24" stroke-dasharray="364 728" stroke-linecap="round" />
    
      <clipPath id="make-me-a-hanzi-clip-25">
        <path d="M 717 21 Q 730 7 736 0 Q 743 -6 756 -24 L 786 -65 Q 803 -88 812 -99 Q 822 -111 832 -118 Q 842 -127 850 -127 L 852 -127 Q 861 -126 865 -120 Q 870 -114 871 -101 Q 871 -88 868 -72 Q 865 -57 857 -46 Q 850 -34 835 -20 Q 821 -7 803 4 Q 785 16 763 26 Q 741 36 729 40 L 713 46 Q 710 47 707 47 Q 702 47 700 44 Q 699 43 699 41 Q 699 38 704 34 L 717 21 Z" />
      </clipPath>
      <path clip-path="url(#make-me-a-hanzi-clip-25)" d="M 706 40 L 761 4 L 801 -32 L 835 -74 L 851 -110" fill="none" id="make-me-a-hanzi-animation-25" stroke-dasharray="341 682" stroke-linecap="round" />
    
  </g>
</svg>