<svg xmlns="http://www.w3.org/2000/svg" version="1.1" viewBox="0 0 1024 1024">
  <g stroke="lightgray" stroke-dasharray="1,1" stroke-width="1" transform="scale(4, 4)">
    <line x1="0" y1="0" x2="256" y2="256" />
    <line x1="256" y1="0" x2="0" y2="256" />
    <line x1="128" y1="0" x2="128" y2="256" />
    <line x1="0" y1="128" x2="256" y2="128" />
  </g>
  <g transform="scale(1.0, -1.0) translate(0.0, -825.50)">
    <style type="text/css">
      
        @keyframes keyframes0 {
          from {
            stroke: blue;
            stroke-dashoffset: 822;
            stroke-width: 128;
          }
          73% {
            animation-timing-function: step-end;
            stroke: blue;
            stroke-dashoffset: 0;
            stroke-width: 128;
          }
          to {
            stroke: black;
            stroke-width: 1024;
          }
        }
        #make-me-a-hanzi-animation-0 {
          animation: keyframes0 0.9189453125s both;
          animation-delay: 0s;
          animation-timing-function: linear;
        }
      
        @keyframes keyframes1 {
          from {
            stroke: blue;
            stroke-dashoffset: 1226;
            stroke-width: 128;
          }
          80% {
            animation-timing-function: step-end;
            stroke: blue;
            stroke-dashoffset: 0;
            stroke-width: 128;
          }
          to {
            stroke: black;
            stroke-width: 1024;
          }
        }
        #make-me-a-hanzi-animation-1 {
          animation: keyframes1 1.2477213541666667s both;
          animation-delay: 0.9189453125s;
          animation-timing-function: linear;
        }
      
        @keyframes keyframes2 {
          from {
            stroke: blue;
            stroke-dashoffset: 566;
            stroke-width: 128;
          }
          65% {
            animation-timing-function: step-end;
            stroke: blue;
            stroke-dashoffset: 0;
            stroke-width: 128;
          }
          to {
            stroke: black;
            stroke-width: 1024;
          }
        }
        #make-me-a-hanzi-animation-2 {
          animation: keyframes2 0.7106119791666666s both;
          animation-delay: 2.166666666666667s;
          animation-timing-function: linear;
        }
      
        @keyframes keyframes3 {
          from {
            stroke: blue;
            stroke-dashoffset: 773;
            stroke-width: 128;
          }
          72% {
            animation-timing-function: step-end;
            stroke: blue;
            stroke-dashoffset: 0;
            stroke-width: 128;
          }
          to {
            stroke: black;
            stroke-width: 1024;
          }
        }
        #make-me-a-hanzi-animation-3 {
          animation: keyframes3 0.8790690104166666s both;
          animation-delay: 2.8772786458333335s;
          animation-timing-function: linear;
        }
      
        @keyframes keyframes4 {
          from {
            stroke: blue;
            stroke-dashoffset: 646;
            stroke-width: 128;
          }
          68% {
            animation-timing-function: step-end;
            stroke: blue;
            stroke-dashoffset: 0;
            stroke-width: 128;
          }
          to {
            stroke: black;
            stroke-width: 1024;
          }
        }
        #make-me-a-hanzi-animation-4 {
          animation: keyframes4 0.7757161458333334s both;
          animation-delay: 3.75634765625s;
          animation-timing-function: linear;
        }
      
        @keyframes keyframes5 {
          from {
            stroke: blue;
            stroke-dashoffset: 1085;
            stroke-width: 128;
          }
          78% {
            animation-timing-function: step-end;
            stroke: blue;
            stroke-dashoffset: 0;
            stroke-width: 128;
          }
          to {
            stroke: black;
            stroke-width: 1024;
          }
        }
        #make-me-a-hanzi-animation-5 {
          animation: keyframes5 1.1329752604166667s both;
          animation-delay: 4.532063802083333s;
          animation-timing-function: linear;
        }
      
    </style>
    
      <path d="M 384 345 Q 400 381 417 520 Q 427 572 461 605 Q 479 623 461 637 Q 442 652 390 673 Q 374 682 319 663 Q 271 653 229 639 Q 189 627 162 623 Q 146 622 143 616 Q 139 612 157 600 Q 191 584 212 593 Q 251 608 341 624 Q 357 625 363 623 Q 378 616 374 572 Q 355 404 344 371 Q 338 353 348 332 C 357 303 374 317 384 345 Z" fill="lightgray" />
    
      <path d="M 348 332 Q 339 335 246 315 Q 221 311 220 331 Q 223 460 239 499 Q 245 514 238 525 Q 223 541 200 551 Q 184 557 176 550 Q 170 546 177 534 Q 187 510 180 392 Q 180 347 168 305 Q 161 286 174 272 Q 189 259 214 269 Q 244 291 360 301 Q 391 302 405 290 Q 417 280 404 235 Q 397 171 387 103 Q 380 51 357 16 Q 350 7 333 9 Q 299 24 268 36 Q 255 42 255 35 Q 254 31 261 23 Q 313 -32 331 -69 Q 338 -88 355 -80 Q 416 -53 428 17 Q 446 108 457 210 Q 464 247 483 276 Q 496 292 484 304 Q 468 323 432 345 Q 411 357 384 345 L 348 332 Z" fill="lightgray" />
    
      <path d="M 66 123 Q 53 120 52 110 Q 51 97 61 90 Q 85 75 119 59 Q 129 56 141 66 Q 163 87 311 171 Q 330 181 345 195 Q 358 202 357 212 Q 353 218 340 214 Q 111 124 66 123 Z" fill="lightgray" />
    
      <path d="M 520 520 Q 559 481 539 263 L 533 226 Q 517 154 471 57 Q 467 50 466 45 Q 465 35 475 38 Q 487 41 513 81 Q 597 199 598 448 Q 598 463 601 489 Q 608 502 599 514 Q 583 527 553 538 Q 534 545 523 540 Q 513 533 520 520 Z" fill="lightgray" />
    
      <path d="M 670 514 Q 703 430 672 215 Q 662 179 691 140 L 692 138 Q 701 128 710 138 Q 731 168 731 263 Q 731 425 740 484 Q 747 506 727 517 Q 711 527 695 536 Q 683 540 674 535 Q 667 529 670 514 Z" fill="lightgray" />
    
      <path d="M 812 12 Q 803 -31 828 -87 Q 835 -103 843 -107 Q 849 -114 856 -106 Q 883 -84 881 -26 Q 878 76 878 518 Q 879 599 895 655 Q 902 670 900 683 Q 893 692 839 725 Q 815 741 796 725 Q 790 721 797 705 Q 831 657 832 590 Q 839 167 825 70 L 812 12 Z" fill="lightgray" />
    
    
      <clipPath id="make-me-a-hanzi-clip-0">
        <path d="M 384 345 Q 400 381 417 520 Q 427 572 461 605 Q 479 623 461 637 Q 442 652 390 673 Q 374 682 319 663 Q 271 653 229 639 Q 189 627 162 623 Q 146 622 143 616 Q 139 612 157 600 Q 191 584 212 593 Q 251 608 341 624 Q 357 625 363 623 Q 378 616 374 572 Q 355 404 344 371 Q 338 353 348 332 C 357 303 374 317 384 345 Z" />
      </clipPath>
      <path clip-path="url(#make-me-a-hanzi-clip-0)" d="M 149 614 L 201 610 L 354 649 L 388 642 L 415 616 L 393 532 L 369 371 L 352 341" fill="none" id="make-me-a-hanzi-animation-0" stroke-dasharray="694 1388" stroke-linecap="round" />
    
      <clipPath id="make-me-a-hanzi-clip-1">
        <path d="M 348 332 Q 339 335 246 315 Q 221 311 220 331 Q 223 460 239 499 Q 245 514 238 525 Q 223 541 200 551 Q 184 557 176 550 Q 170 546 177 534 Q 187 510 180 392 Q 180 347 168 305 Q 161 286 174 272 Q 189 259 214 269 Q 244 291 360 301 Q 391 302 405 290 Q 417 280 404 235 Q 397 171 387 103 Q 380 51 357 16 Q 350 7 333 9 Q 299 24 268 36 Q 255 42 255 35 Q 254 31 261 23 Q 313 -32 331 -69 Q 338 -88 355 -80 Q 416 -53 428 17 Q 446 108 457 210 Q 464 247 483 276 Q 496 292 484 304 Q 468 323 432 345 Q 411 357 384 345 L 348 332 Z" />
      </clipPath>
      <path clip-path="url(#make-me-a-hanzi-clip-1)" d="M 184 542 L 199 531 L 211 510 L 202 428 L 200 298 L 241 298 L 399 323 L 423 315 L 447 288 L 431 223 L 404 43 L 384 -7 L 357 -31 L 262 31" fill="none" id="make-me-a-hanzi-animation-1" stroke-dasharray="1098 2196" stroke-linecap="round" />
    
      <clipPath id="make-me-a-hanzi-clip-2">
        <path d="M 66 123 Q 53 120 52 110 Q 51 97 61 90 Q 85 75 119 59 Q 129 56 141 66 Q 163 87 311 171 Q 330 181 345 195 Q 358 202 357 212 Q 353 218 340 214 Q 111 124 66 123 Z" />
      </clipPath>
      <path clip-path="url(#make-me-a-hanzi-clip-2)" d="M 67 108 L 122 98 L 351 209" fill="none" id="make-me-a-hanzi-animation-2" stroke-dasharray="438 876" stroke-linecap="round" />
    
      <clipPath id="make-me-a-hanzi-clip-3">
        <path d="M 520 520 Q 559 481 539 263 L 533 226 Q 517 154 471 57 Q 467 50 466 45 Q 465 35 475 38 Q 487 41 513 81 Q 597 199 598 448 Q 598 463 601 489 Q 608 502 599 514 Q 583 527 553 538 Q 534 545 523 540 Q 513 533 520 520 Z" />
      </clipPath>
      <path clip-path="url(#make-me-a-hanzi-clip-3)" d="M 531 529 L 568 495 L 572 380 L 567 308 L 544 187 L 498 79 L 475 47" fill="none" id="make-me-a-hanzi-animation-3" stroke-dasharray="645 1290" stroke-linecap="round" />
    
      <clipPath id="make-me-a-hanzi-clip-4">
        <path d="M 670 514 Q 703 430 672 215 Q 662 179 691 140 L 692 138 Q 701 128 710 138 Q 731 168 731 263 Q 731 425 740 484 Q 747 506 727 517 Q 711 527 695 536 Q 683 540 674 535 Q 667 529 670 514 Z" />
      </clipPath>
      <path clip-path="url(#make-me-a-hanzi-clip-4)" d="M 682 525 L 710 484 L 709 318 L 698 194 L 701 144" fill="none" id="make-me-a-hanzi-animation-4" stroke-dasharray="518 1036" stroke-linecap="round" />
    
      <clipPath id="make-me-a-hanzi-clip-5">
        <path d="M 812 12 Q 803 -31 828 -87 Q 835 -103 843 -107 Q 849 -114 856 -106 Q 883 -84 881 -26 Q 878 76 878 518 Q 879 599 895 655 Q 902 670 900 683 Q 893 692 839 725 Q 815 741 796 725 Q 790 721 797 705 Q 831 657 832 590 Q 839 167 825 70 L 812 12 Z" />
      </clipPath>
      <path clip-path="url(#make-me-a-hanzi-clip-5)" d="M 810 716 L 835 697 L 859 658 L 854 553 L 857 210 L 845 -3 L 848 -93" fill="none" id="make-me-a-hanzi-animation-5" stroke-dasharray="957 1914" stroke-linecap="round" />
    
  </g>
</svg>