<svg xmlns="http://www.w3.org/2000/svg" version="1.1" viewBox="0 0 1024 1024">
  <g stroke="lightgray" stroke-dasharray="1,1" stroke-width="1" transform="scale(4, 4)">
    <line x1="0" y1="0" x2="256" y2="256" />
    <line x1="256" y1="0" x2="0" y2="256" />
    <line x1="128" y1="0" x2="128" y2="256" />
    <line x1="0" y1="128" x2="256" y2="128" />
  </g>
  <g transform="scale(1.0, -1.0) translate(0.0, -801.00)">
    <style type="text/css">
      
        @keyframes keyframes0 {
          from {
            stroke: blue;
            stroke-dashoffset: 812;
            stroke-width: 128;
          }
          73% {
            animation-timing-function: step-end;
            stroke: blue;
            stroke-dashoffset: 0;
            stroke-width: 128;
          }
          to {
            stroke: black;
            stroke-width: 1024;
          }
        }
        #make-me-a-hanzi-animation-0 {
          animation: keyframes0 0.9108072916666666s both;
          animation-delay: 0s;
          animation-timing-function: linear;
        }
      
        @keyframes keyframes1 {
          from {
            stroke: blue;
            stroke-dashoffset: 1232;
            stroke-width: 128;
          }
          80% {
            animation-timing-function: step-end;
            stroke: blue;
            stroke-dashoffset: 0;
            stroke-width: 128;
          }
          to {
            stroke: black;
            stroke-width: 1024;
          }
        }
        #make-me-a-hanzi-animation-1 {
          animation: keyframes1 1.2526041666666667s both;
          animation-delay: 0.9108072916666666s;
          animation-timing-function: linear;
        }
      
        @keyframes keyframes2 {
          from {
            stroke: blue;
            stroke-dashoffset: 570;
            stroke-width: 128;
          }
          65% {
            animation-timing-function: step-end;
            stroke: blue;
            stroke-dashoffset: 0;
            stroke-width: 128;
          }
          to {
            stroke: black;
            stroke-width: 1024;
          }
        }
        #make-me-a-hanzi-animation-2 {
          animation: keyframes2 0.7138671875s both;
          animation-delay: 2.1634114583333335s;
          animation-timing-function: linear;
        }
      
        @keyframes keyframes3 {
          from {
            stroke: blue;
            stroke-dashoffset: 543;
            stroke-width: 128;
          }
          64% {
            animation-timing-function: step-end;
            stroke: blue;
            stroke-dashoffset: 0;
            stroke-width: 128;
          }
          to {
            stroke: black;
            stroke-width: 1024;
          }
        }
        #make-me-a-hanzi-animation-3 {
          animation: keyframes3 0.69189453125s both;
          animation-delay: 2.8772786458333335s;
          animation-timing-function: linear;
        }
      
        @keyframes keyframes4 {
          from {
            stroke: blue;
            stroke-dashoffset: 702;
            stroke-width: 128;
          }
          70% {
            animation-timing-function: step-end;
            stroke: blue;
            stroke-dashoffset: 0;
            stroke-width: 128;
          }
          to {
            stroke: black;
            stroke-width: 1024;
          }
        }
        #make-me-a-hanzi-animation-4 {
          animation: keyframes4 0.8212890625s both;
          animation-delay: 3.5691731770833335s;
          animation-timing-function: linear;
        }
      
        @keyframes keyframes5 {
          from {
            stroke: blue;
            stroke-dashoffset: 601;
            stroke-width: 128;
          }
          66% {
            animation-timing-function: step-end;
            stroke: blue;
            stroke-dashoffset: 0;
            stroke-width: 128;
          }
          to {
            stroke: black;
            stroke-width: 1024;
          }
        }
        #make-me-a-hanzi-animation-5 {
          animation: keyframes5 0.7390950520833334s both;
          animation-delay: 4.390462239583334s;
          animation-timing-function: linear;
        }
      
        @keyframes keyframes6 {
          from {
            stroke: blue;
            stroke-dashoffset: 1254;
            stroke-width: 128;
          }
          80% {
            animation-timing-function: step-end;
            stroke: blue;
            stroke-dashoffset: 0;
            stroke-width: 128;
          }
          to {
            stroke: black;
            stroke-width: 1024;
          }
        }
        #make-me-a-hanzi-animation-6 {
          animation: keyframes6 1.2705078125s both;
          animation-delay: 5.129557291666667s;
          animation-timing-function: linear;
        }
      
    </style>
    
      <path d="M 370 339 Q 386 373 400 521 Q 410 573 442 605 Q 458 623 441 636 Q 422 651 370 671 Q 355 677 302 658 Q 257 646 219 632 Q 182 619 157 613 Q 141 612 139 606 Q 136 602 153 592 Q 187 579 205 587 Q 241 603 324 623 Q 339 626 344 623 Q 359 616 356 571 Q 341 402 331 366 Q 325 351 337 326 C 348 298 360 311 370 339 Z" fill="lightgray" />
    
      <path d="M 337 326 Q 334 327 333 326 Q 306 320 249 303 Q 227 297 223 316 Q 226 463 239 496 Q 245 511 238 521 Q 223 537 200 546 Q 184 553 176 545 Q 170 541 177 530 Q 195 485 178 315 Q 175 303 172 289 Q 166 270 180 255 Q 195 243 220 254 Q 241 276 352 295 Q 382 299 395 287 Q 407 277 395 235 Q 388 168 377 98 Q 370 43 345 8 Q 338 -2 317 -2 Q 280 11 248 21 Q 235 25 235 19 Q 235 15 242 7 Q 300 -45 321 -80 Q 328 -99 345 -90 Q 396 -63 413 -10 Q 425 38 449 210 Q 455 246 472 276 Q 485 292 473 304 Q 457 323 420 342 Q 401 354 373 341 Q 372 340 370 339 L 337 326 Z" fill="lightgray" />
    
      <path d="M 56 119 Q 43 118 42 107 Q 41 94 50 86 Q 72 70 106 53 Q 116 52 128 60 Q 147 76 302 160 Q 323 170 337 183 Q 350 190 350 200 Q 344 206 332 202 Q 103 121 56 119 Z" fill="lightgray" />
    
      <path d="M 573 559 Q 609 544 659 555 L 813 586 Q 850 593 855 599 Q 864 606 859 616 Q 852 628 822 635 Q 801 641 699 611 Q 636 596 570 590 Q 563 589 560 587 C 531 578 545 569 573 559 Z" fill="lightgray" />
    
      <path d="M 768 291 Q 768 292 769 292 Q 797 340 821 421 Q 828 445 840 468 Q 847 477 840 486 Q 834 495 805 508 Q 784 517 776 514 Q 764 510 767 496 Q 783 415 733 322 Q 732 322 732 321 L 711 281 Q 654 203 590 140 Q 584 133 590 131 Q 621 125 702 204 Q 724 225 741 247 L 768 291 Z" fill="lightgray" />
    
      <path d="M 741 247 L 824 149 Q 834 133 847 128 Q 854 127 861 134 Q 871 144 864 180 Q 858 220 768 291 L 732 321 Q 660 379 619 407 Q 612 411 610 401 Q 609 391 617 382 Q 662 337 711 281 L 741 247 Z" fill="lightgray" />
    
      <path d="M 560 587 Q 550 596 527 607 Q 508 619 499 611 Q 492 604 500 590 Q 516 556 518 494 Q 524 280 505 82 Q 501 43 478 8 Q 468 -8 477 -28 Q 484 -50 494 -58 Q 504 -65 522 -54 Q 618 10 892 8 Q 917 7 918 20 Q 918 35 889 56 Q 873 69 765 51 Q 626 38 578 28 Q 556 22 555 47 Q 562 237 566 476 Q 566 527 573 559 C 576 577 576 577 560 587 Z" fill="lightgray" />
    
    
      <clipPath id="make-me-a-hanzi-clip-0">
        <path d="M 370 339 Q 386 373 400 521 Q 410 573 442 605 Q 458 623 441 636 Q 422 651 370 671 Q 355 677 302 658 Q 257 646 219 632 Q 182 619 157 613 Q 141 612 139 606 Q 136 602 153 592 Q 187 579 205 587 Q 241 603 324 623 Q 339 626 344 623 Q 359 616 356 571 Q 341 402 331 366 Q 325 351 337 326 C 348 298 360 311 370 339 Z" />
      </clipPath>
      <path clip-path="url(#make-me-a-hanzi-clip-0)" d="M 145 605 L 191 603 L 336 647 L 369 641 L 396 615 L 376 532 L 362 398 L 352 357 L 339 336" fill="none" id="make-me-a-hanzi-animation-0" stroke-dasharray="684 1368" stroke-linecap="round" />
    
      <clipPath id="make-me-a-hanzi-clip-1">
        <path d="M 337 326 Q 334 327 333 326 Q 306 320 249 303 Q 227 297 223 316 Q 226 463 239 496 Q 245 511 238 521 Q 223 537 200 546 Q 184 553 176 545 Q 170 541 177 530 Q 195 485 178 315 Q 175 303 172 289 Q 166 270 180 255 Q 195 243 220 254 Q 241 276 352 295 Q 382 299 395 287 Q 407 277 395 235 Q 388 168 377 98 Q 370 43 345 8 Q 338 -2 317 -2 Q 280 11 248 21 Q 235 25 235 19 Q 235 15 242 7 Q 300 -45 321 -80 Q 328 -99 345 -90 Q 396 -63 413 -10 Q 425 38 449 210 Q 455 246 472 276 Q 485 292 473 304 Q 457 323 420 342 Q 401 354 373 341 Q 372 340 370 339 L 337 326 Z" />
      </clipPath>
      <path clip-path="url(#make-me-a-hanzi-clip-1)" d="M 185 538 L 212 506 L 200 325 L 205 284 L 231 283 L 390 320 L 413 312 L 436 287 L 397 52 L 373 -15 L 344 -40 L 315 -29 L 242 15" fill="none" id="make-me-a-hanzi-animation-1" stroke-dasharray="1104 2208" stroke-linecap="round" />
    
      <clipPath id="make-me-a-hanzi-clip-2">
        <path d="M 56 119 Q 43 118 42 107 Q 41 94 50 86 Q 72 70 106 53 Q 116 52 128 60 Q 147 76 302 160 Q 323 170 337 183 Q 350 190 350 200 Q 344 206 332 202 Q 103 121 56 119 Z" />
      </clipPath>
      <path clip-path="url(#make-me-a-hanzi-clip-2)" d="M 55 106 L 66 99 L 110 92 L 344 197" fill="none" id="make-me-a-hanzi-animation-2" stroke-dasharray="442 884" stroke-linecap="round" />
    
      <clipPath id="make-me-a-hanzi-clip-3">
        <path d="M 573 559 Q 609 544 659 555 L 813 586 Q 850 593 855 599 Q 864 606 859 616 Q 852 628 822 635 Q 801 641 699 611 Q 636 596 570 590 Q 563 589 560 587 C 531 578 545 569 573 559 Z" />
      </clipPath>
      <path clip-path="url(#make-me-a-hanzi-clip-3)" d="M 567 582 L 585 573 L 633 574 L 778 606 L 848 610" fill="none" id="make-me-a-hanzi-animation-3" stroke-dasharray="415 830" stroke-linecap="round" />
    
      <clipPath id="make-me-a-hanzi-clip-4">
        <path d="M 768 291 Q 768 292 769 292 Q 797 340 821 421 Q 828 445 840 468 Q 847 477 840 486 Q 834 495 805 508 Q 784 517 776 514 Q 764 510 767 496 Q 783 415 733 322 Q 732 322 732 321 L 711 281 Q 654 203 590 140 Q 584 133 590 131 Q 621 125 702 204 Q 724 225 741 247 L 768 291 Z" />
      </clipPath>
      <path clip-path="url(#make-me-a-hanzi-clip-4)" d="M 780 501 L 804 471 L 784 384 L 764 331 L 720 255 L 681 209 L 594 136" fill="none" id="make-me-a-hanzi-animation-4" stroke-dasharray="574 1148" stroke-linecap="round" />
    
      <clipPath id="make-me-a-hanzi-clip-5">
        <path d="M 741 247 L 824 149 Q 834 133 847 128 Q 854 127 861 134 Q 871 144 864 180 Q 858 220 768 291 L 732 321 Q 660 379 619 407 Q 612 411 610 401 Q 609 391 617 382 Q 662 337 711 281 L 741 247 Z" />
      </clipPath>
      <path clip-path="url(#make-me-a-hanzi-clip-5)" d="M 619 397 L 810 213 L 843 166 L 848 144" fill="none" id="make-me-a-hanzi-animation-5" stroke-dasharray="473 946" stroke-linecap="round" />
    
      <clipPath id="make-me-a-hanzi-clip-6">
        <path d="M 560 587 Q 550 596 527 607 Q 508 619 499 611 Q 492 604 500 590 Q 516 556 518 494 Q 524 280 505 82 Q 501 43 478 8 Q 468 -8 477 -28 Q 484 -50 494 -58 Q 504 -65 522 -54 Q 618 10 892 8 Q 917 7 918 20 Q 918 35 889 56 Q 873 69 765 51 Q 626 38 578 28 Q 556 22 555 47 Q 562 237 566 476 Q 566 527 573 559 C 576 577 576 577 560 587 Z" />
      </clipPath>
      <path clip-path="url(#make-me-a-hanzi-clip-6)" d="M 507 603 L 538 568 L 542 546 L 541 282 L 526 1 L 579 1 L 676 20 L 805 33 L 868 35 L 905 22" fill="none" id="make-me-a-hanzi-animation-6" stroke-dasharray="1126 2252" stroke-linecap="round" />
    
  </g>
</svg>