<svg xmlns="http://www.w3.org/2000/svg" version="1.1" viewBox="0 0 1024 1024">
  <g stroke="lightgray" stroke-dasharray="1,1" stroke-width="1" transform="scale(4, 4)">
    <line x1="0" y1="0" x2="256" y2="256" />
    <line x1="256" y1="0" x2="0" y2="256" />
    <line x1="128" y1="0" x2="128" y2="256" />
    <line x1="0" y1="128" x2="256" y2="128" />
  </g>
  <g transform="scale(1.0, -1.0) translate(0.0, -817.00)">
    <style type="text/css">
      
        @keyframes keyframes0 {
          from {
            stroke: blue;
            stroke-dashoffset: 804;
            stroke-width: 128;
          }
          72% {
            animation-timing-function: step-end;
            stroke: blue;
            stroke-dashoffset: 0;
            stroke-width: 128;
          }
          to {
            stroke: black;
            stroke-width: 1024;
          }
        }
        #make-me-a-hanzi-animation-0 {
          animation: keyframes0 0.904296875s both;
          animation-delay: 0s;
          animation-timing-function: linear;
        }
      
        @keyframes keyframes1 {
          from {
            stroke: blue;
            stroke-dashoffset: 1203;
            stroke-width: 128;
          }
          80% {
            animation-timing-function: step-end;
            stroke: blue;
            stroke-dashoffset: 0;
            stroke-width: 128;
          }
          to {
            stroke: black;
            stroke-width: 1024;
          }
        }
        #make-me-a-hanzi-animation-1 {
          animation: keyframes1 1.22900390625s both;
          animation-delay: 0.904296875s;
          animation-timing-function: linear;
        }
      
        @keyframes keyframes2 {
          from {
            stroke: blue;
            stroke-dashoffset: 551;
            stroke-width: 128;
          }
          64% {
            animation-timing-function: step-end;
            stroke: blue;
            stroke-dashoffset: 0;
            stroke-width: 128;
          }
          to {
            stroke: black;
            stroke-width: 1024;
          }
        }
        #make-me-a-hanzi-animation-2 {
          animation: keyframes2 0.6984049479166666s both;
          animation-delay: 2.13330078125s;
          animation-timing-function: linear;
        }
      
        @keyframes keyframes3 {
          from {
            stroke: blue;
            stroke-dashoffset: 615;
            stroke-width: 128;
          }
          67% {
            animation-timing-function: step-end;
            stroke: blue;
            stroke-dashoffset: 0;
            stroke-width: 128;
          }
          to {
            stroke: black;
            stroke-width: 1024;
          }
        }
        #make-me-a-hanzi-animation-3 {
          animation: keyframes3 0.75048828125s both;
          animation-delay: 2.8317057291666665s;
          animation-timing-function: linear;
        }
      
        @keyframes keyframes4 {
          from {
            stroke: blue;
            stroke-dashoffset: 1108;
            stroke-width: 128;
          }
          78% {
            animation-timing-function: step-end;
            stroke: blue;
            stroke-dashoffset: 0;
            stroke-width: 128;
          }
          to {
            stroke: black;
            stroke-width: 1024;
          }
        }
        #make-me-a-hanzi-animation-4 {
          animation: keyframes4 1.1516927083333333s both;
          animation-delay: 3.5821940104166665s;
          animation-timing-function: linear;
        }
      
        @keyframes keyframes5 {
          from {
            stroke: blue;
            stroke-dashoffset: 723;
            stroke-width: 128;
          }
          70% {
            animation-timing-function: step-end;
            stroke: blue;
            stroke-dashoffset: 0;
            stroke-width: 128;
          }
          to {
            stroke: black;
            stroke-width: 1024;
          }
        }
        #make-me-a-hanzi-animation-5 {
          animation: keyframes5 0.83837890625s both;
          animation-delay: 4.73388671875s;
          animation-timing-function: linear;
        }
      
    </style>
    
      <path d="M 404 359 Q 419 395 434 524 Q 444 576 478 610 Q 494 628 477 641 Q 458 657 406 677 Q 394 683 338 667 Q 326 667 250 643 Q 210 631 186 627 Q 170 626 167 620 Q 163 614 181 604 Q 215 589 236 597 Q 273 610 358 627 Q 374 630 379 627 Q 394 620 390 577 Q 374 415 363 382 Q 357 358 367 346 C 378 318 394 331 404 359 Z" fill="lightgray" />
    
      <path d="M 367 346 Q 354 342 344 340 Q 319 334 265 318 Q 241 312 239 332 Q 242 474 252 496 Q 256 511 250 521 Q 235 537 212 546 Q 196 552 187 544 Q 183 540 189 529 Q 195 514 197 390 Q 197 345 187 305 Q 183 286 196 271 Q 209 259 235 270 Q 256 292 360 308 Q 388 311 401 299 Q 413 289 401 249 Q 373 57 339 13 Q 332 3 313 5 L 256 24 Q 243 30 243 23 Q 242 19 250 11 Q 296 -40 311 -73 Q 318 -92 335 -84 Q 399 -56 413 16 Q 435 113 453 222 Q 460 256 479 286 Q 491 302 480 314 Q 438 362 404 359 L 367 346 Z" fill="lightgray" />
    
      <path d="M 66 139 Q 53 138 51 127 Q 50 114 58 106 Q 80 90 114 72 Q 124 68 136 77 Q 166 101 300 166 Q 319 176 333 187 Q 346 194 346 204 Q 340 210 328 207 Q 109 138 66 139 Z" fill="lightgray" />
    
      <path d="M 680 345 Q 702 351 850 379 Q 862 378 870 392 Q 871 405 846 414 Q 813 433 747 411 Q 693 398 685 393 L 633 379 Q 608 375 586 371 L 511 358 Q 481 354 505 336 Q 541 314 581 322 Q 602 328 628 334 L 680 345 Z" fill="lightgray" />
    
      <path d="M 671 278 Q 675 312 680 345 L 685 393 Q 694 580 715 643 Q 721 653 712 662 Q 693 678 659 692 Q 637 702 621 696 Q 602 689 617 672 Q 645 642 645 613 Q 644 484 633 379 L 628 334 Q 600 115 525 37 Q 497 4 437 -40 Q 424 -46 422 -50 Q 418 -57 433 -57 Q 496 -57 587 34 Q 597 49 608 63 Q 638 112 663 235 L 671 278 Z" fill="lightgray" />
    
      <path d="M 663 235 Q 739 66 797 -17 Q 815 -47 837 -49 Q 901 -52 956 -55 Q 978 -56 980 -51 Q 983 -44 958 -28 Q 826 53 788 106 Q 712 206 671 278 C 656 304 651 262 663 235 Z" fill="lightgray" />
    
    
      <clipPath id="make-me-a-hanzi-clip-0">
        <path d="M 404 359 Q 419 395 434 524 Q 444 576 478 610 Q 494 628 477 641 Q 458 657 406 677 Q 394 683 338 667 Q 326 667 250 643 Q 210 631 186 627 Q 170 626 167 620 Q 163 614 181 604 Q 215 589 236 597 Q 273 610 358 627 Q 374 630 379 627 Q 394 620 390 577 Q 374 415 363 382 Q 357 358 367 346 C 378 318 394 331 404 359 Z" />
      </clipPath>
      <path clip-path="url(#make-me-a-hanzi-clip-0)" d="M 174 618 L 226 615 L 372 653 L 405 646 L 431 620 L 415 562 L 394 409 L 386 377 L 371 354" fill="none" id="make-me-a-hanzi-animation-0" stroke-dasharray="676 1352" stroke-linecap="round" />
    
      <clipPath id="make-me-a-hanzi-clip-1">
        <path d="M 367 346 Q 354 342 344 340 Q 319 334 265 318 Q 241 312 239 332 Q 242 474 252 496 Q 256 511 250 521 Q 235 537 212 546 Q 196 552 187 544 Q 183 540 189 529 Q 195 514 197 390 Q 197 345 187 305 Q 183 286 196 271 Q 209 259 235 270 Q 256 292 360 308 Q 388 311 401 299 Q 413 289 401 249 Q 373 57 339 13 Q 332 3 313 5 L 256 24 Q 243 30 243 23 Q 242 19 250 11 Q 296 -40 311 -73 Q 318 -92 335 -84 Q 399 -56 413 16 Q 435 113 453 222 Q 460 256 479 286 Q 491 302 480 314 Q 438 362 404 359 L 367 346 Z" />
      </clipPath>
      <path clip-path="url(#make-me-a-hanzi-clip-1)" d="M 196 538 L 212 524 L 222 503 L 219 300 L 245 299 L 393 330 L 420 324 L 443 299 L 396 71 L 368 -9 L 338 -35 L 250 19" fill="none" id="make-me-a-hanzi-animation-1" stroke-dasharray="1075 2150" stroke-linecap="round" />
    
      <clipPath id="make-me-a-hanzi-clip-2">
        <path d="M 66 139 Q 53 138 51 127 Q 50 114 58 106 Q 80 90 114 72 Q 124 68 136 77 Q 166 101 300 166 Q 319 176 333 187 Q 346 194 346 204 Q 340 210 328 207 Q 109 138 66 139 Z" />
      </clipPath>
      <path clip-path="url(#make-me-a-hanzi-clip-2)" d="M 65 125 L 120 110 L 340 201" fill="none" id="make-me-a-hanzi-animation-2" stroke-dasharray="423 846" stroke-linecap="round" />
    
      <clipPath id="make-me-a-hanzi-clip-3">
        <path d="M 680 345 Q 702 351 850 379 Q 862 378 870 392 Q 871 405 846 414 Q 813 433 747 411 Q 693 398 685 393 L 633 379 Q 608 375 586 371 L 511 358 Q 481 354 505 336 Q 541 314 581 322 Q 602 328 628 334 L 680 345 Z" />
      </clipPath>
      <path clip-path="url(#make-me-a-hanzi-clip-3)" d="M 506 348 L 558 342 L 793 396 L 858 393" fill="none" id="make-me-a-hanzi-animation-3" stroke-dasharray="487 974" stroke-linecap="round" />
    
      <clipPath id="make-me-a-hanzi-clip-4">
        <path d="M 671 278 Q 675 312 680 345 L 685 393 Q 694 580 715 643 Q 721 653 712 662 Q 693 678 659 692 Q 637 702 621 696 Q 602 689 617 672 Q 645 642 645 613 Q 644 484 633 379 L 628 334 Q 600 115 525 37 Q 497 4 437 -40 Q 424 -46 422 -50 Q 418 -57 433 -57 Q 496 -57 587 34 Q 597 49 608 63 Q 638 112 663 235 L 671 278 Z" />
      </clipPath>
      <path clip-path="url(#make-me-a-hanzi-clip-4)" d="M 623 683 L 657 665 L 677 639 L 662 406 L 645 275 L 624 176 L 592 88 L 563 44 L 489 -23 L 428 -52" fill="none" id="make-me-a-hanzi-animation-4" stroke-dasharray="980 1960" stroke-linecap="round" />
    
      <clipPath id="make-me-a-hanzi-clip-5">
        <path d="M 663 235 Q 739 66 797 -17 Q 815 -47 837 -49 Q 901 -52 956 -55 Q 978 -56 980 -51 Q 983 -44 958 -28 Q 826 53 788 106 Q 712 206 671 278 C 656 304 651 262 663 235 Z" />
      </clipPath>
      <path clip-path="url(#make-me-a-hanzi-clip-5)" d="M 670 271 L 680 232 L 727 149 L 787 58 L 837 1 L 847 -7 L 974 -48" fill="none" id="make-me-a-hanzi-animation-5" stroke-dasharray="595 1190" stroke-linecap="round" />
    
  </g>
</svg>