<svg xmlns="http://www.w3.org/2000/svg" version="1.1" viewBox="0 0 1024 1024">
  <g stroke="lightgray" stroke-dasharray="1,1" stroke-width="1" transform="scale(4, 4)">
    <line x1="0" y1="0" x2="256" y2="256" />
    <line x1="256" y1="0" x2="0" y2="256" />
    <line x1="128" y1="0" x2="128" y2="256" />
    <line x1="0" y1="128" x2="256" y2="128" />
  </g>
  <g transform="scale(1.0, -1.0) translate(0.0, -825.00)">
    <style type="text/css">
      
        @keyframes keyframes0 {
          from {
            stroke: blue;
            stroke-dashoffset: 783;
            stroke-width: 128;
          }
          72% {
            animation-timing-function: step-end;
            stroke: blue;
            stroke-dashoffset: 0;
            stroke-width: 128;
          }
          to {
            stroke: black;
            stroke-width: 1024;
          }
        }
        #make-me-a-hanzi-animation-0 {
          animation: keyframes0 0.88720703125s both;
          animation-delay: 0s;
          animation-timing-function: linear;
        }
      
        @keyframes keyframes1 {
          from {
            stroke: blue;
            stroke-dashoffset: 715;
            stroke-width: 128;
          }
          70% {
            animation-timing-function: step-end;
            stroke: blue;
            stroke-dashoffset: 0;
            stroke-width: 128;
          }
          to {
            stroke: black;
            stroke-width: 1024;
          }
        }
        #make-me-a-hanzi-animation-1 {
          animation: keyframes1 0.8318684895833334s both;
          animation-delay: 0.88720703125s;
          animation-timing-function: linear;
        }
      
        @keyframes keyframes2 {
          from {
            stroke: blue;
            stroke-dashoffset: 565;
            stroke-width: 128;
          }
          65% {
            animation-timing-function: step-end;
            stroke: blue;
            stroke-dashoffset: 0;
            stroke-width: 128;
          }
          to {
            stroke: black;
            stroke-width: 1024;
          }
        }
        #make-me-a-hanzi-animation-2 {
          animation: keyframes2 0.7097981770833334s both;
          animation-delay: 1.7190755208333335s;
          animation-timing-function: linear;
        }
      
        @keyframes keyframes3 {
          from {
            stroke: blue;
            stroke-dashoffset: 852;
            stroke-width: 128;
          }
          73% {
            animation-timing-function: step-end;
            stroke: blue;
            stroke-dashoffset: 0;
            stroke-width: 128;
          }
          to {
            stroke: black;
            stroke-width: 1024;
          }
        }
        #make-me-a-hanzi-animation-3 {
          animation: keyframes3 0.943359375s both;
          animation-delay: 2.428873697916667s;
          animation-timing-function: linear;
        }
      
        @keyframes keyframes4 {
          from {
            stroke: blue;
            stroke-dashoffset: 744;
            stroke-width: 128;
          }
          71% {
            animation-timing-function: step-end;
            stroke: blue;
            stroke-dashoffset: 0;
            stroke-width: 128;
          }
          to {
            stroke: black;
            stroke-width: 1024;
          }
        }
        #make-me-a-hanzi-animation-4 {
          animation: keyframes4 0.85546875s both;
          animation-delay: 3.372233072916667s;
          animation-timing-function: linear;
        }
      
        @keyframes keyframes5 {
          from {
            stroke: blue;
            stroke-dashoffset: 680;
            stroke-width: 128;
          }
          69% {
            animation-timing-function: step-end;
            stroke: blue;
            stroke-dashoffset: 0;
            stroke-width: 128;
          }
          to {
            stroke: black;
            stroke-width: 1024;
          }
        }
        #make-me-a-hanzi-animation-5 {
          animation: keyframes5 0.8033854166666666s both;
          animation-delay: 4.227701822916667s;
          animation-timing-function: linear;
        }
      
        @keyframes keyframes6 {
          from {
            stroke: blue;
            stroke-dashoffset: 1172;
            stroke-width: 128;
          }
          79% {
            animation-timing-function: step-end;
            stroke: blue;
            stroke-dashoffset: 0;
            stroke-width: 128;
          }
          to {
            stroke: black;
            stroke-width: 1024;
          }
        }
        #make-me-a-hanzi-animation-6 {
          animation: keyframes6 1.2037760416666667s both;
          animation-delay: 5.031087239583334s;
          animation-timing-function: linear;
        }
      
        @keyframes keyframes7 {
          from {
            stroke: blue;
            stroke-dashoffset: 734;
            stroke-width: 128;
          }
          70% {
            animation-timing-function: step-end;
            stroke: blue;
            stroke-dashoffset: 0;
            stroke-width: 128;
          }
          to {
            stroke: black;
            stroke-width: 1024;
          }
        }
        #make-me-a-hanzi-animation-7 {
          animation: keyframes7 0.8473307291666666s both;
          animation-delay: 6.234863281250001s;
          animation-timing-function: linear;
        }
      
    </style>
    
      <path d="M 350 607 Q 383 685 393 694 Q 406 712 401 724 Q 391 740 352 769 Q 336 781 321 775 Q 309 771 316 755 Q 334 725 299 599 L 286 556 Q 282 549 280 539 Q 273 517 259 499 Q 252 477 271 462 Q 313 449 347 426 L 383 406 Q 453 364 457 363 Q 464 364 468 375 Q 472 385 463 411 Q 448 444 416 448 L 373 462 L 314 478 Q 299 482 297 495 Q 316 531 333 568 L 350 607 Z" fill="lightgray" />
    
      <path d="M 347 426 Q 290 363 198 325 Q 186 319 196 315 Q 244 303 318 351 Q 358 373 382 403 Q 383 404 383 406 L 416 448 Q 435 478 448 512 Q 475 584 491 603 Q 501 616 489 627 Q 453 663 432 661 Q 419 660 423 646 Q 427 633 426 619 L 422 591 Q 404 506 373 462 L 347 426 Z" fill="lightgray" />
    
      <path d="M 426 619 Q 389 615 350 607 L 299 599 Q 241 592 180 583 Q 161 579 128 585 Q 116 585 113 576 Q 109 566 117 556 Q 135 538 162 517 Q 171 513 183 519 Q 237 546 286 556 L 333 568 Q 373 580 420 591 L 422 591 C 451 597 456 622 426 619 Z" fill="lightgray" />
    
      <path d="M 676 476 Q 727 543 747 583 Q 763 608 786 626 Q 801 633 801 642 Q 801 654 774 669 Q 740 691 727 691 Q 717 690 706 682 Q 603 649 552 643 Q 518 643 515 634 Q 514 631 520 627 Q 533 615 563 611 Q 600 610 669 637 Q 688 644 697 638 Q 704 634 685 585 Q 676 558 638 504 L 611 473 Q 554 422 498 396 Q 489 392 490 388 Q 491 384 498 384 Q 570 384 641 442 L 676 476 Z" fill="lightgray" />
    
      <path d="M 641 442 Q 740 348 770 346 Q 834 346 909 363 Q 940 369 937 377 Q 937 380 787 423 Q 747 435 676 476 L 638 504 Q 613 523 588 546 Q 552 577 521 576 Q 505 575 502 570 Q 501 564 516 556 Q 549 538 611 473 L 641 442 Z" fill="lightgray" />
    
      <path d="M 600 183 Q 607 199 623 244 Q 635 290 666 317 Q 682 332 667 345 Q 651 358 606 380 Q 594 386 540 373 Q 489 363 449 351 Q 409 341 383 336 Q 368 335 366 330 Q 362 326 378 316 Q 408 301 427 309 Q 467 324 559 340 Q 575 341 582 339 Q 589 335 586 311 Q 571 224 564 206 Q 558 191 564 177 C 570 148 589 155 600 183 Z" fill="lightgray" />
    
      <path d="M 564 177 Q 500 167 457 154 Q 430 144 423 161 Q 423 206 436 220 Q 448 241 422 260 Q 398 281 384 284 Q 374 284 370 276 Q 367 269 374 261 Q 396 215 370 143 Q 367 136 368 129 Q 369 122 380 111 Q 395 98 438 112 Q 486 131 601 150 Q 724 171 734 140 L 734 132 Q 735 122 717 37 Q 704 -12 692 -31 Q 679 -58 650 -54 Q 619 -47 588 -43 Q 572 -39 568 -43 Q 567 -47 581 -58 Q 654 -121 662 -142 Q 666 -151 675 -152 Q 691 -155 721 -124 Q 749 -93 756 -55 Q 798 128 814 139 Q 821 146 822 153 Q 822 160 792 182 Q 753 207 725 199 Q 707 195 683 194 Q 649 193 600 183 L 564 177 Z" fill="lightgray" />
    
      <path d="M 428 12 Q 572 33 641 30 Q 662 30 667 38 Q 671 50 661 59 Q 633 81 593 94 Q 581 97 487 70 Q 484 70 482 69 Q 200 18 188 17 Q 176 16 176 6 Q 176 -4 194 -16 Q 209 -25 237 -33 Q 247 -36 262 -27 Q 271 -23 311 -14 Q 363 2 428 12 Z" fill="lightgray" />
    
    
      <clipPath id="make-me-a-hanzi-clip-0">
        <path d="M 350 607 Q 383 685 393 694 Q 406 712 401 724 Q 391 740 352 769 Q 336 781 321 775 Q 309 771 316 755 Q 334 725 299 599 L 286 556 Q 282 549 280 539 Q 273 517 259 499 Q 252 477 271 462 Q 313 449 347 426 L 383 406 Q 453 364 457 363 Q 464 364 468 375 Q 472 385 463 411 Q 448 444 416 448 L 373 462 L 314 478 Q 299 482 297 495 Q 316 531 333 568 L 350 607 Z" />
      </clipPath>
      <path clip-path="url(#make-me-a-hanzi-clip-0)" d="M 325 763 L 337 757 L 360 714 L 322 596 L 278 485 L 310 462 L 423 416 L 444 397 L 458 369" fill="none" id="make-me-a-hanzi-animation-0" stroke-dasharray="655 1310" stroke-linecap="round" />
    
      <clipPath id="make-me-a-hanzi-clip-1">
        <path d="M 347 426 Q 290 363 198 325 Q 186 319 196 315 Q 244 303 318 351 Q 358 373 382 403 Q 383 404 383 406 L 416 448 Q 435 478 448 512 Q 475 584 491 603 Q 501 616 489 627 Q 453 663 432 661 Q 419 660 423 646 Q 427 633 426 619 L 422 591 Q 404 506 373 462 L 347 426 Z" />
      </clipPath>
      <path clip-path="url(#make-me-a-hanzi-clip-1)" d="M 431 651 L 447 636 L 458 612 L 420 501 L 401 465 L 362 411 L 315 370 L 254 334 L 203 319" fill="none" id="make-me-a-hanzi-animation-1" stroke-dasharray="587 1174" stroke-linecap="round" />
    
      <clipPath id="make-me-a-hanzi-clip-2">
        <path d="M 426 619 Q 389 615 350 607 L 299 599 Q 241 592 180 583 Q 161 579 128 585 Q 116 585 113 576 Q 109 566 117 556 Q 135 538 162 517 Q 171 513 183 519 Q 237 546 286 556 L 333 568 Q 373 580 420 591 L 422 591 C 451 597 456 622 426 619 Z" />
      </clipPath>
      <path clip-path="url(#make-me-a-hanzi-clip-2)" d="M 126 571 L 172 549 L 236 568 L 409 602 L 419 613" fill="none" id="make-me-a-hanzi-animation-2" stroke-dasharray="437 874" stroke-linecap="round" />
    
      <clipPath id="make-me-a-hanzi-clip-3">
        <path d="M 676 476 Q 727 543 747 583 Q 763 608 786 626 Q 801 633 801 642 Q 801 654 774 669 Q 740 691 727 691 Q 717 690 706 682 Q 603 649 552 643 Q 518 643 515 634 Q 514 631 520 627 Q 533 615 563 611 Q 600 610 669 637 Q 688 644 697 638 Q 704 634 685 585 Q 676 558 638 504 L 611 473 Q 554 422 498 396 Q 489 392 490 388 Q 491 384 498 384 Q 570 384 641 442 L 676 476 Z" />
      </clipPath>
      <path clip-path="url(#make-me-a-hanzi-clip-3)" d="M 521 633 L 579 629 L 702 660 L 728 655 L 740 641 L 691 538 L 639 470 L 570 417 L 519 394 L 496 390" fill="none" id="make-me-a-hanzi-animation-3" stroke-dasharray="724 1448" stroke-linecap="round" />
    
      <clipPath id="make-me-a-hanzi-clip-4">
        <path d="M 641 442 Q 740 348 770 346 Q 834 346 909 363 Q 940 369 937 377 Q 937 380 787 423 Q 747 435 676 476 L 638 504 Q 613 523 588 546 Q 552 577 521 576 Q 505 575 502 570 Q 501 564 516 556 Q 549 538 611 473 L 641 442 Z" />
      </clipPath>
      <path clip-path="url(#make-me-a-hanzi-clip-4)" d="M 507 569 L 558 548 L 666 451 L 770 387 L 919 371 L 934 374" fill="none" id="make-me-a-hanzi-animation-4" stroke-dasharray="616 1232" stroke-linecap="round" />
    
      <clipPath id="make-me-a-hanzi-clip-5">
        <path d="M 600 183 Q 607 199 623 244 Q 635 290 666 317 Q 682 332 667 345 Q 651 358 606 380 Q 594 386 540 373 Q 489 363 449 351 Q 409 341 383 336 Q 368 335 366 330 Q 362 326 378 316 Q 408 301 427 309 Q 467 324 559 340 Q 575 341 582 339 Q 589 335 586 311 Q 571 224 564 206 Q 558 191 564 177 C 570 148 589 155 600 183 Z" />
      </clipPath>
      <path clip-path="url(#make-me-a-hanzi-clip-5)" d="M 372 328 L 418 325 L 571 361 L 603 354 L 624 326 L 585 202 L 569 185" fill="none" id="make-me-a-hanzi-animation-5" stroke-dasharray="552 1104" stroke-linecap="round" />
    
      <clipPath id="make-me-a-hanzi-clip-6">
        <path d="M 564 177 Q 500 167 457 154 Q 430 144 423 161 Q 423 206 436 220 Q 448 241 422 260 Q 398 281 384 284 Q 374 284 370 276 Q 367 269 374 261 Q 396 215 370 143 Q 367 136 368 129 Q 369 122 380 111 Q 395 98 438 112 Q 486 131 601 150 Q 724 171 734 140 L 734 132 Q 735 122 717 37 Q 704 -12 692 -31 Q 679 -58 650 -54 Q 619 -47 588 -43 Q 572 -39 568 -43 Q 567 -47 581 -58 Q 654 -121 662 -142 Q 666 -151 675 -152 Q 691 -155 721 -124 Q 749 -93 756 -55 Q 798 128 814 139 Q 821 146 822 153 Q 822 160 792 182 Q 753 207 725 199 Q 707 195 683 194 Q 649 193 600 183 L 564 177 Z" />
      </clipPath>
      <path clip-path="url(#make-me-a-hanzi-clip-6)" d="M 381 271 L 410 235 L 399 164 L 400 143 L 407 134 L 436 131 L 524 154 L 666 176 L 735 175 L 767 156 L 770 134 L 737 -8 L 709 -74 L 685 -95 L 572 -45" fill="none" id="make-me-a-hanzi-animation-6" stroke-dasharray="1044 2088" stroke-linecap="round" />
    
      <clipPath id="make-me-a-hanzi-clip-7">
        <path d="M 428 12 Q 572 33 641 30 Q 662 30 667 38 Q 671 50 661 59 Q 633 81 593 94 Q 581 97 487 70 Q 484 70 482 69 Q 200 18 188 17 Q 176 16 176 6 Q 176 -4 194 -16 Q 209 -25 237 -33 Q 247 -36 262 -27 Q 271 -23 311 -14 Q 363 2 428 12 Z" />
      </clipPath>
      <path clip-path="url(#make-me-a-hanzi-clip-7)" d="M 187 6 L 243 -4 L 391 31 L 579 61 L 656 44" fill="none" id="make-me-a-hanzi-animation-7" stroke-dasharray="606 1212" stroke-linecap="round" />
    
  </g>
</svg>