<svg xmlns="http://www.w3.org/2000/svg" version="1.1" viewBox="0 0 1024 1024">
  <g stroke="lightgray" stroke-dasharray="1,1" stroke-width="1" transform="scale(4, 4)">
    <line x1="0" y1="0" x2="256" y2="256" />
    <line x1="256" y1="0" x2="0" y2="256" />
    <line x1="128" y1="0" x2="128" y2="256" />
    <line x1="0" y1="128" x2="256" y2="128" />
  </g>
  <g transform="scale(1.0, -1.0) translate(0.0, -820.00)">
    <style type="text/css">
      
        @keyframes keyframes0 {
          from {
            stroke: blue;
            stroke-dashoffset: 788;
            stroke-width: 128;
          }
          72% {
            animation-timing-function: step-end;
            stroke: blue;
            stroke-dashoffset: 0;
            stroke-width: 128;
          }
          to {
            stroke: black;
            stroke-width: 1024;
          }
        }
        #make-me-a-hanzi-animation-0 {
          animation: keyframes0 0.8912760416666666s both;
          animation-delay: 0s;
          animation-timing-function: linear;
        }
      
        @keyframes keyframes1 {
          from {
            stroke: blue;
            stroke-dashoffset: 1195;
            stroke-width: 128;
          }
          80% {
            animation-timing-function: step-end;
            stroke: blue;
            stroke-dashoffset: 0;
            stroke-width: 128;
          }
          to {
            stroke: black;
            stroke-width: 1024;
          }
        }
        #make-me-a-hanzi-animation-1 {
          animation: keyframes1 1.2224934895833333s both;
          animation-delay: 0.8912760416666666s;
          animation-timing-function: linear;
        }
      
        @keyframes keyframes2 {
          from {
            stroke: blue;
            stroke-dashoffset: 565;
            stroke-width: 128;
          }
          65% {
            animation-timing-function: step-end;
            stroke: blue;
            stroke-dashoffset: 0;
            stroke-width: 128;
          }
          to {
            stroke: black;
            stroke-width: 1024;
          }
        }
        #make-me-a-hanzi-animation-2 {
          animation: keyframes2 0.7097981770833334s both;
          animation-delay: 2.11376953125s;
          animation-timing-function: linear;
        }
      
        @keyframes keyframes3 {
          from {
            stroke: blue;
            stroke-dashoffset: 466;
            stroke-width: 128;
          }
          60% {
            animation-timing-function: step-end;
            stroke: blue;
            stroke-dashoffset: 0;
            stroke-width: 128;
          }
          to {
            stroke: black;
            stroke-width: 1024;
          }
        }
        #make-me-a-hanzi-animation-3 {
          animation: keyframes3 0.6292317708333334s both;
          animation-delay: 2.8235677083333335s;
          animation-timing-function: linear;
        }
      
        @keyframes keyframes4 {
          from {
            stroke: blue;
            stroke-dashoffset: 697;
            stroke-width: 128;
          }
          69% {
            animation-timing-function: step-end;
            stroke: blue;
            stroke-dashoffset: 0;
            stroke-width: 128;
          }
          to {
            stroke: black;
            stroke-width: 1024;
          }
        }
        #make-me-a-hanzi-animation-4 {
          animation: keyframes4 0.8172200520833334s both;
          animation-delay: 3.452799479166667s;
          animation-timing-function: linear;
        }
      
        @keyframes keyframes5 {
          from {
            stroke: blue;
            stroke-dashoffset: 527;
            stroke-width: 128;
          }
          63% {
            animation-timing-function: step-end;
            stroke: blue;
            stroke-dashoffset: 0;
            stroke-width: 128;
          }
          to {
            stroke: black;
            stroke-width: 1024;
          }
        }
        #make-me-a-hanzi-animation-5 {
          animation: keyframes5 0.6788736979166666s both;
          animation-delay: 4.27001953125s;
          animation-timing-function: linear;
        }
      
        @keyframes keyframes6 {
          from {
            stroke: blue;
            stroke-dashoffset: 1080;
            stroke-width: 128;
          }
          78% {
            animation-timing-function: step-end;
            stroke: blue;
            stroke-dashoffset: 0;
            stroke-width: 128;
          }
          to {
            stroke: black;
            stroke-width: 1024;
          }
        }
        #make-me-a-hanzi-animation-6 {
          animation: keyframes6 1.12890625s both;
          animation-delay: 4.948893229166667s;
          animation-timing-function: linear;
        }
      
        @keyframes keyframes7 {
          from {
            stroke: blue;
            stroke-dashoffset: 796;
            stroke-width: 128;
          }
          72% {
            animation-timing-function: step-end;
            stroke: blue;
            stroke-dashoffset: 0;
            stroke-width: 128;
          }
          to {
            stroke: black;
            stroke-width: 1024;
          }
        }
        #make-me-a-hanzi-animation-7 {
          animation: keyframes7 0.8977864583333334s both;
          animation-delay: 6.077799479166667s;
          animation-timing-function: linear;
        }
      
    </style>
    
      <path d="M 380 348 Q 398 381 415 527 Q 425 576 458 607 Q 474 623 458 637 Q 439 650 391 672 Q 378 678 325 663 Q 282 654 245 643 Q 209 633 187 629 Q 171 629 168 623 Q 165 619 181 608 Q 214 593 233 600 Q 267 613 345 625 Q 360 626 365 625 Q 378 618 375 573 Q 356 410 345 376 Q 339 360 346 345 Q 347 341 352 337 C 366 313 369 320 380 348 Z" fill="lightgray" />
    
      <path d="M 352 337 Q 342 333 331 331 Q 306 327 254 312 Q 230 308 228 327 Q 231 459 247 499 Q 253 514 246 525 Q 231 541 208 551 Q 192 557 184 550 Q 178 546 185 534 Q 195 510 188 389 Q 188 344 176 301 Q 169 282 183 268 Q 198 255 224 266 Q 245 284 344 299 Q 374 303 387 291 Q 400 281 389 239 Q 368 62 338 17 Q 331 8 312 12 Q 281 24 252 33 Q 239 37 239 31 Q 238 27 246 19 Q 295 -32 311 -66 Q 318 -85 336 -76 Q 396 -48 408 21 Q 426 112 439 214 Q 446 248 463 279 Q 476 294 465 305 Q 449 324 414 344 Q 398 354 380 348 L 352 337 Z" fill="lightgray" />
    
      <path d="M 71 125 Q 58 122 57 113 Q 56 100 65 93 Q 87 80 120 63 Q 130 60 141 69 Q 174 99 315 172 Q 334 182 350 195 Q 362 202 361 212 Q 357 216 344 214 Q 119 127 71 125 Z" fill="lightgray" />
    
      <path d="M 518 457 Q 506 461 485 464 Q 475 467 471 462 Q 465 456 473 441 Q 498 390 515 305 Q 518 280 533 263 Q 549 242 554 257 Q 557 266 558 279 L 555 310 Q 543 398 537 426 C 532 453 532 453 518 457 Z" fill="lightgray" />
    
      <path d="M 815 346 Q 843 427 873 442 Q 889 460 875 477 Q 806 534 752 508 L 680 485 L 637 475 Q 576 465 518 457 C 488 453 508 421 537 426 Q 547 427 559 431 L 637 445 L 679 453 Q 770 474 782 463 Q 789 456 788 438 Q 778 392 767 352 C 759 323 805 318 815 346 Z" fill="lightgray" />
    
      <path d="M 675 297 Q 736 307 825 316 Q 835 317 836 325 Q 836 332 815 346 L 767 352 Q 766 353 764 352 Q 718 342 676 331 L 634 323 L 555 310 C 525 305 528 280 558 279 Q 565 278 576 280 Q 598 286 632 291 L 675 297 Z" fill="lightgray" />
    
      <path d="M 650 104 Q 672 162 674 282 Q 674 289 675 297 L 676 331 Q 677 394 679 453 L 680 485 Q 680 570 706 642 Q 713 655 701 666 Q 679 684 640 694 Q 615 701 607 694 Q 598 687 606 674 Q 628 640 633 593 Q 636 535 637 475 L 637 445 Q 637 384 634 323 L 632 291 Q 629 194 614 140 L 600 104 Q 572 44 459 -7 Q 446 -13 445 -17 Q 446 -21 457 -22 Q 472 -25 506 -14 Q 564 2 605 41 Q 618 54 629 68 L 650 104 Z" fill="lightgray" />
    
      <path d="M 629 68 Q 675 13 757 -61 Q 784 -83 825 -77 Q 879 -70 918 -64 Q 931 -63 943 -57 Q 950 -50 938 -43 Q 925 -36 811 -1 Q 747 15 650 104 L 614 140 L 557 203 Q 538 225 506 232 Q 496 233 488 228 Q 484 222 492 215 Q 531 191 600 104 L 629 68 Z" fill="lightgray" />
    
    
      <clipPath id="make-me-a-hanzi-clip-0">
        <path d="M 380 348 Q 398 381 415 527 Q 425 576 458 607 Q 474 623 458 637 Q 439 650 391 672 Q 378 678 325 663 Q 282 654 245 643 Q 209 633 187 629 Q 171 629 168 623 Q 165 619 181 608 Q 214 593 233 600 Q 267 613 345 625 Q 360 626 365 625 Q 378 618 375 573 Q 356 410 345 376 Q 339 360 346 345 Q 347 341 352 337 C 366 313 369 320 380 348 Z" />
      </clipPath>
      <path clip-path="url(#make-me-a-hanzi-clip-0)" d="M 174 622 L 217 616 L 357 649 L 382 647 L 406 625 L 413 614 L 392 535 L 378 421 L 356 347" fill="none" id="make-me-a-hanzi-animation-0" stroke-dasharray="660 1320" stroke-linecap="round" />
    
      <clipPath id="make-me-a-hanzi-clip-1">
        <path d="M 352 337 Q 342 333 331 331 Q 306 327 254 312 Q 230 308 228 327 Q 231 459 247 499 Q 253 514 246 525 Q 231 541 208 551 Q 192 557 184 550 Q 178 546 185 534 Q 195 510 188 389 Q 188 344 176 301 Q 169 282 183 268 Q 198 255 224 266 Q 245 284 344 299 Q 374 303 387 291 Q 400 281 389 239 Q 368 62 338 17 Q 331 8 312 12 Q 281 24 252 33 Q 239 37 239 31 Q 238 27 246 19 Q 295 -32 311 -66 Q 318 -85 336 -76 Q 396 -48 408 21 Q 426 112 439 214 Q 446 248 463 279 Q 476 294 465 305 Q 449 324 414 344 Q 398 354 380 348 L 352 337 Z" />
      </clipPath>
      <path clip-path="url(#make-me-a-hanzi-clip-1)" d="M 192 542 L 199 540 L 219 510 L 205 318 L 209 295 L 253 295 L 317 312 L 391 322 L 406 315 L 428 289 L 396 104 L 366 -3 L 336 -29 L 246 27" fill="none" id="make-me-a-hanzi-animation-1" stroke-dasharray="1067 2134" stroke-linecap="round" />
    
      <clipPath id="make-me-a-hanzi-clip-2">
        <path d="M 71 125 Q 58 122 57 113 Q 56 100 65 93 Q 87 80 120 63 Q 130 60 141 69 Q 174 99 315 172 Q 334 182 350 195 Q 362 202 361 212 Q 357 216 344 214 Q 119 127 71 125 Z" />
      </clipPath>
      <path clip-path="url(#make-me-a-hanzi-clip-2)" d="M 72 110 L 124 100 L 356 208" fill="none" id="make-me-a-hanzi-animation-2" stroke-dasharray="437 874" stroke-linecap="round" />
    
      <clipPath id="make-me-a-hanzi-clip-3">
        <path d="M 518 457 Q 506 461 485 464 Q 475 467 471 462 Q 465 456 473 441 Q 498 390 515 305 Q 518 280 533 263 Q 549 242 554 257 Q 557 266 558 279 L 555 310 Q 543 398 537 426 C 532 453 532 453 518 457 Z" />
      </clipPath>
      <path clip-path="url(#make-me-a-hanzi-clip-3)" d="M 479 455 L 502 436 L 512 417 L 544 262" fill="none" id="make-me-a-hanzi-animation-3" stroke-dasharray="338 676" stroke-linecap="round" />
    
      <clipPath id="make-me-a-hanzi-clip-4">
        <path d="M 815 346 Q 843 427 873 442 Q 889 460 875 477 Q 806 534 752 508 L 680 485 L 637 475 Q 576 465 518 457 C 488 453 508 421 537 426 Q 547 427 559 431 L 637 445 L 679 453 Q 770 474 782 463 Q 789 456 788 438 Q 778 392 767 352 C 759 323 805 318 815 346 Z" />
      </clipPath>
      <path clip-path="url(#make-me-a-hanzi-clip-4)" d="M 526 455 L 549 444 L 688 469 L 767 490 L 798 487 L 828 460 L 798 373 L 774 357" fill="none" id="make-me-a-hanzi-animation-4" stroke-dasharray="569 1138" stroke-linecap="round" />
    
      <clipPath id="make-me-a-hanzi-clip-5">
        <path d="M 675 297 Q 736 307 825 316 Q 835 317 836 325 Q 836 332 815 346 L 767 352 Q 766 353 764 352 Q 718 342 676 331 L 634 323 L 555 310 C 525 305 528 280 558 279 Q 565 278 576 280 Q 598 286 632 291 L 675 297 Z" />
      </clipPath>
      <path clip-path="url(#make-me-a-hanzi-clip-5)" d="M 562 287 L 590 300 L 746 328 L 807 331 L 827 325" fill="none" id="make-me-a-hanzi-animation-5" stroke-dasharray="399 798" stroke-linecap="round" />
    
      <clipPath id="make-me-a-hanzi-clip-6">
        <path d="M 650 104 Q 672 162 674 282 Q 674 289 675 297 L 676 331 Q 677 394 679 453 L 680 485 Q 680 570 706 642 Q 713 655 701 666 Q 679 684 640 694 Q 615 701 607 694 Q 598 687 606 674 Q 628 640 633 593 Q 636 535 637 475 L 637 445 Q 637 384 634 323 L 632 291 Q 629 194 614 140 L 600 104 Q 572 44 459 -7 Q 446 -13 445 -17 Q 446 -21 457 -22 Q 472 -25 506 -14 Q 564 2 605 41 Q 618 54 629 68 L 650 104 Z" />
      </clipPath>
      <path clip-path="url(#make-me-a-hanzi-clip-6)" d="M 616 684 L 659 648 L 664 630 L 654 273 L 640 148 L 615 84 L 577 42 L 522 7 L 451 -19" fill="none" id="make-me-a-hanzi-animation-6" stroke-dasharray="952 1904" stroke-linecap="round" />
    
      <clipPath id="make-me-a-hanzi-clip-7">
        <path d="M 629 68 Q 675 13 757 -61 Q 784 -83 825 -77 Q 879 -70 918 -64 Q 931 -63 943 -57 Q 950 -50 938 -43 Q 925 -36 811 -1 Q 747 15 650 104 L 614 140 L 557 203 Q 538 225 506 232 Q 496 233 488 228 Q 484 222 492 215 Q 531 191 600 104 L 629 68 Z" />
      </clipPath>
      <path clip-path="url(#make-me-a-hanzi-clip-7)" d="M 495 223 L 541 197 L 666 59 L 775 -28 L 804 -40 L 934 -52" fill="none" id="make-me-a-hanzi-animation-7" stroke-dasharray="668 1336" stroke-linecap="round" />
    
  </g>
</svg>