<svg xmlns="http://www.w3.org/2000/svg" version="1.1" viewBox="0 0 1024 1024">
  <g stroke="lightgray" stroke-dasharray="1,1" stroke-width="1" transform="scale(4, 4)">
    <line x1="0" y1="0" x2="256" y2="256" />
    <line x1="256" y1="0" x2="0" y2="256" />
    <line x1="128" y1="0" x2="128" y2="256" />
    <line x1="0" y1="128" x2="256" y2="128" />
  </g>
  <g transform="scale(1.0, -1.0) translate(0.0, -822.00)">
    <style type="text/css">
      
        @keyframes keyframes0 {
          from {
            stroke: blue;
            stroke-dashoffset: 819;
            stroke-width: 128;
          }
          73% {
            animation-timing-function: step-end;
            stroke: blue;
            stroke-dashoffset: 0;
            stroke-width: 128;
          }
          to {
            stroke: black;
            stroke-width: 1024;
          }
        }
        #make-me-a-hanzi-animation-0 {
          animation: keyframes0 0.91650390625s both;
          animation-delay: 0s;
          animation-timing-function: linear;
        }
      
        @keyframes keyframes1 {
          from {
            stroke: blue;
            stroke-dashoffset: 1199;
            stroke-width: 128;
          }
          80% {
            animation-timing-function: step-end;
            stroke: blue;
            stroke-dashoffset: 0;
            stroke-width: 128;
          }
          to {
            stroke: black;
            stroke-width: 1024;
          }
        }
        #make-me-a-hanzi-animation-1 {
          animation: keyframes1 1.2257486979166667s both;
          animation-delay: 0.91650390625s;
          animation-timing-function: linear;
        }
      
        @keyframes keyframes2 {
          from {
            stroke: blue;
            stroke-dashoffset: 574;
            stroke-width: 128;
          }
          65% {
            animation-timing-function: step-end;
            stroke: blue;
            stroke-dashoffset: 0;
            stroke-width: 128;
          }
          to {
            stroke: black;
            stroke-width: 1024;
          }
        }
        #make-me-a-hanzi-animation-2 {
          animation: keyframes2 0.7171223958333334s both;
          animation-delay: 2.142252604166667s;
          animation-timing-function: linear;
        }
      
        @keyframes keyframes3 {
          from {
            stroke: blue;
            stroke-dashoffset: 426;
            stroke-width: 128;
          }
          58% {
            animation-timing-function: step-end;
            stroke: blue;
            stroke-dashoffset: 0;
            stroke-width: 128;
          }
          to {
            stroke: black;
            stroke-width: 1024;
          }
        }
        #make-me-a-hanzi-animation-3 {
          animation: keyframes3 0.5966796875s both;
          animation-delay: 2.8593750000000004s;
          animation-timing-function: linear;
        }
      
        @keyframes keyframes4 {
          from {
            stroke: blue;
            stroke-dashoffset: 561;
            stroke-width: 128;
          }
          65% {
            animation-timing-function: step-end;
            stroke: blue;
            stroke-dashoffset: 0;
            stroke-width: 128;
          }
          to {
            stroke: black;
            stroke-width: 1024;
          }
        }
        #make-me-a-hanzi-animation-4 {
          animation: keyframes4 0.70654296875s both;
          animation-delay: 3.4560546875000004s;
          animation-timing-function: linear;
        }
      
        @keyframes keyframes5 {
          from {
            stroke: blue;
            stroke-dashoffset: 537;
            stroke-width: 128;
          }
          64% {
            animation-timing-function: step-end;
            stroke: blue;
            stroke-dashoffset: 0;
            stroke-width: 128;
          }
          to {
            stroke: black;
            stroke-width: 1024;
          }
        }
        #make-me-a-hanzi-animation-5 {
          animation: keyframes5 0.68701171875s both;
          animation-delay: 4.16259765625s;
          animation-timing-function: linear;
        }
      
        @keyframes keyframes6 {
          from {
            stroke: blue;
            stroke-dashoffset: 584;
            stroke-width: 128;
          }
          66% {
            animation-timing-function: step-end;
            stroke: blue;
            stroke-dashoffset: 0;
            stroke-width: 128;
          }
          to {
            stroke: black;
            stroke-width: 1024;
          }
        }
        #make-me-a-hanzi-animation-6 {
          animation: keyframes6 0.7252604166666666s both;
          animation-delay: 4.849609375s;
          animation-timing-function: linear;
        }
      
        @keyframes keyframes7 {
          from {
            stroke: blue;
            stroke-dashoffset: 718;
            stroke-width: 128;
          }
          70% {
            animation-timing-function: step-end;
            stroke: blue;
            stroke-dashoffset: 0;
            stroke-width: 128;
          }
          to {
            stroke: black;
            stroke-width: 1024;
          }
        }
        #make-me-a-hanzi-animation-7 {
          animation: keyframes7 0.8343098958333334s both;
          animation-delay: 5.574869791666667s;
          animation-timing-function: linear;
        }
      
    </style>
    
      <path d="M 388 341 Q 404 378 423 516 Q 435 568 468 600 Q 484 618 468 632 Q 449 647 397 668 Q 382 675 329 658 Q 314 658 239 632 Q 199 620 174 615 Q 158 614 155 607 Q 151 603 169 592 Q 203 577 224 586 Q 261 601 350 620 Q 366 621 371 620 Q 386 613 381 568 Q 360 400 348 367 Q 342 346 351 329 C 360 300 378 313 388 341 Z" fill="lightgray" />
    
      <path d="M 351 329 Q 323 326 267 312 Q 242 308 241 329 Q 250 461 260 485 Q 266 501 259 512 Q 243 528 219 539 Q 203 546 194 538 Q 187 534 195 522 Q 207 489 195 341 Q 191 322 186 302 Q 180 283 193 268 Q 209 255 239 268 Q 285 298 376 297 Q 397 298 407 288 Q 420 278 408 235 Q 389 61 355 14 Q 348 5 328 8 L 264 33 Q 251 37 251 31 Q 250 27 258 19 Q 310 -35 327 -70 Q 334 -89 351 -80 Q 411 -53 425 17 Q 444 108 458 210 Q 465 244 484 274 Q 496 289 485 301 Q 469 320 434 341 Q 415 353 388 341 L 351 329 Z" fill="lightgray" />
    
      <path d="M 57 124 Q 45 123 43 113 Q 42 100 50 93 Q 72 78 104 60 Q 114 57 125 66 Q 158 93 308 161 Q 330 171 345 184 Q 358 191 358 200 Q 352 204 341 202 Q 110 124 57 124 Z" fill="lightgray" />
    
      <path d="M 631 652 Q 665 621 703 581 Q 716 566 734 566 Q 746 566 753 581 Q 759 597 750 630 Q 741 669 628 705 Q 612 709 604 707 Q 598 703 599 689 Q 603 676 631 652 Z" fill="lightgray" />
    
      <path d="M 697 419 Q 842 452 847 455 Q 856 462 851 472 Q 844 484 814 491 Q 789 497 687 465 Q 615 447 550 442 Q 513 435 539 418 Q 579 397 651 410 L 697 419 Z" fill="lightgray" />
    
      <path d="M 708 236 Q 825 264 827 265 Q 836 272 831 281 Q 824 291 796 299 Q 769 305 710 285 L 662 272 Q 658 272 656 271 Q 608 261 553 256 Q 519 250 543 234 Q 582 210 640 224 Q 650 227 662 227 L 708 236 Z" fill="lightgray" />
    
      <path d="M 701 95 Q 704 171 708 236 L 710 285 Q 713 403 714 404 Q 707 411 697 419 C 674 438 643 439 651 410 Q 663 371 662 272 L 662 227 Q 661 172 660 88 C 660 58 700 65 701 95 Z" fill="lightgray" />
    
      <path d="M 660 88 L 472 62 Q 451 59 467 43 Q 480 30 498 25 Q 519 21 534 24 Q 666 61 916 61 Q 935 61 939 70 Q 945 80 928 94 Q 876 133 818 118 L 701 95 L 660 88 Z" fill="lightgray" />
    
    
      <clipPath id="make-me-a-hanzi-clip-0">
        <path d="M 388 341 Q 404 378 423 516 Q 435 568 468 600 Q 484 618 468 632 Q 449 647 397 668 Q 382 675 329 658 Q 314 658 239 632 Q 199 620 174 615 Q 158 614 155 607 Q 151 603 169 592 Q 203 577 224 586 Q 261 601 350 620 Q 366 621 371 620 Q 386 613 381 568 Q 360 400 348 367 Q 342 346 351 329 C 360 300 378 313 388 341 Z" />
      </clipPath>
      <path clip-path="url(#make-me-a-hanzi-clip-0)" d="M 162 606 L 213 603 L 278 625 L 376 645 L 396 638 L 422 611 L 400 528 L 373 367 L 355 337" fill="none" id="make-me-a-hanzi-animation-0" stroke-dasharray="691 1382" stroke-linecap="round" />
    
      <clipPath id="make-me-a-hanzi-clip-1">
        <path d="M 351 329 Q 323 326 267 312 Q 242 308 241 329 Q 250 461 260 485 Q 266 501 259 512 Q 243 528 219 539 Q 203 546 194 538 Q 187 534 195 522 Q 207 489 195 341 Q 191 322 186 302 Q 180 283 193 268 Q 209 255 239 268 Q 285 298 376 297 Q 397 298 407 288 Q 420 278 408 235 Q 389 61 355 14 Q 348 5 328 8 L 264 33 Q 251 37 251 31 Q 250 27 258 19 Q 310 -35 327 -70 Q 334 -89 351 -80 Q 411 -53 425 17 Q 444 108 458 210 Q 465 244 484 274 Q 496 289 485 301 Q 469 320 434 341 Q 415 353 388 341 L 351 329 Z" />
      </clipPath>
      <path clip-path="url(#make-me-a-hanzi-clip-1)" d="M 201 530 L 209 528 L 231 496 L 218 351 L 220 296 L 248 294 L 404 320 L 425 312 L 449 286 L 432 221 L 405 58 L 382 -7 L 352 -32 L 258 27" fill="none" id="make-me-a-hanzi-animation-1" stroke-dasharray="1071 2142" stroke-linecap="round" />
    
      <clipPath id="make-me-a-hanzi-clip-2">
        <path d="M 57 124 Q 45 123 43 113 Q 42 100 50 93 Q 72 78 104 60 Q 114 57 125 66 Q 158 93 308 161 Q 330 171 345 184 Q 358 191 358 200 Q 352 204 341 202 Q 110 124 57 124 Z" />
      </clipPath>
      <path clip-path="url(#make-me-a-hanzi-clip-2)" d="M 56 110 L 109 97 L 353 197" fill="none" id="make-me-a-hanzi-animation-2" stroke-dasharray="446 892" stroke-linecap="round" />
    
      <clipPath id="make-me-a-hanzi-clip-3">
        <path d="M 631 652 Q 665 621 703 581 Q 716 566 734 566 Q 746 566 753 581 Q 759 597 750 630 Q 741 669 628 705 Q 612 709 604 707 Q 598 703 599 689 Q 603 676 631 652 Z" />
      </clipPath>
      <path clip-path="url(#make-me-a-hanzi-clip-3)" d="M 609 699 L 711 626 L 733 587" fill="none" id="make-me-a-hanzi-animation-3" stroke-dasharray="298 596" stroke-linecap="round" />
    
      <clipPath id="make-me-a-hanzi-clip-4">
        <path d="M 697 419 Q 842 452 847 455 Q 856 462 851 472 Q 844 484 814 491 Q 789 497 687 465 Q 615 447 550 442 Q 513 435 539 418 Q 579 397 651 410 L 697 419 Z" />
      </clipPath>
      <path clip-path="url(#make-me-a-hanzi-clip-4)" d="M 542 431 L 595 425 L 787 466 L 817 469 L 842 464" fill="none" id="make-me-a-hanzi-animation-4" stroke-dasharray="433 866" stroke-linecap="round" />
    
      <clipPath id="make-me-a-hanzi-clip-5">
        <path d="M 708 236 Q 825 264 827 265 Q 836 272 831 281 Q 824 291 796 299 Q 769 305 710 285 L 662 272 Q 658 272 656 271 Q 608 261 553 256 Q 519 250 543 234 Q 582 210 640 224 Q 650 227 662 227 L 708 236 Z" />
      </clipPath>
      <path clip-path="url(#make-me-a-hanzi-clip-5)" d="M 546 246 L 614 241 L 771 276 L 823 274" fill="none" id="make-me-a-hanzi-animation-5" stroke-dasharray="409 818" stroke-linecap="round" />
    
      <clipPath id="make-me-a-hanzi-clip-6">
        <path d="M 701 95 Q 704 171 708 236 L 710 285 Q 713 403 714 404 Q 707 411 697 419 C 674 438 643 439 651 410 Q 663 371 662 272 L 662 227 Q 661 172 660 88 C 660 58 700 65 701 95 Z" />
      </clipPath>
      <path clip-path="url(#make-me-a-hanzi-clip-6)" d="M 660 407 L 684 387 L 688 299 L 682 121 L 678 107 L 665 97" fill="none" id="make-me-a-hanzi-animation-6" stroke-dasharray="456 912" stroke-linecap="round" />
    
      <clipPath id="make-me-a-hanzi-clip-7">
        <path d="M 660 88 L 472 62 Q 451 59 467 43 Q 480 30 498 25 Q 519 21 534 24 Q 666 61 916 61 Q 935 61 939 70 Q 945 80 928 94 Q 876 133 818 118 L 701 95 L 660 88 Z" />
      </clipPath>
      <path clip-path="url(#make-me-a-hanzi-clip-7)" d="M 470 52 L 518 45 L 853 92 L 927 76" fill="none" id="make-me-a-hanzi-animation-7" stroke-dasharray="590 1180" stroke-linecap="round" />
    
  </g>
</svg>