<svg xmlns="http://www.w3.org/2000/svg" version="1.1" viewBox="0 0 1024 1024">
  <g stroke="lightgray" stroke-dasharray="1,1" stroke-width="1" transform="scale(4, 4)">
    <line x1="0" y1="0" x2="256" y2="256" />
    <line x1="256" y1="0" x2="0" y2="256" />
    <line x1="128" y1="0" x2="128" y2="256" />
    <line x1="0" y1="128" x2="256" y2="128" />
  </g>
  <g transform="scale(1.0, -1.0) translate(0.0, -828.00)">
    <style type="text/css">
      
        @keyframes keyframes0 {
          from {
            stroke: blue;
            stroke-dashoffset: 827;
            stroke-width: 128;
          }
          73% {
            animation-timing-function: step-end;
            stroke: blue;
            stroke-dashoffset: 0;
            stroke-width: 128;
          }
          to {
            stroke: black;
            stroke-width: 1024;
          }
        }
        #make-me-a-hanzi-animation-0 {
          animation: keyframes0 0.9230143229166666s both;
          animation-delay: 0s;
          animation-timing-function: linear;
        }
      
        @keyframes keyframes1 {
          from {
            stroke: blue;
            stroke-dashoffset: 713;
            stroke-width: 128;
          }
          70% {
            animation-timing-function: step-end;
            stroke: blue;
            stroke-dashoffset: 0;
            stroke-width: 128;
          }
          to {
            stroke: black;
            stroke-width: 1024;
          }
        }
        #make-me-a-hanzi-animation-1 {
          animation: keyframes1 0.8302408854166666s both;
          animation-delay: 0.9230143229166666s;
          animation-timing-function: linear;
        }
      
        @keyframes keyframes2 {
          from {
            stroke: blue;
            stroke-dashoffset: 451;
            stroke-width: 128;
          }
          59% {
            animation-timing-function: step-end;
            stroke: blue;
            stroke-dashoffset: 0;
            stroke-width: 128;
          }
          to {
            stroke: black;
            stroke-width: 1024;
          }
        }
        #make-me-a-hanzi-animation-2 {
          animation: keyframes2 0.6170247395833334s both;
          animation-delay: 1.7532552083333333s;
          animation-timing-function: linear;
        }
      
        @keyframes keyframes3 {
          from {
            stroke: blue;
            stroke-dashoffset: 549;
            stroke-width: 128;
          }
          64% {
            animation-timing-function: step-end;
            stroke: blue;
            stroke-dashoffset: 0;
            stroke-width: 128;
          }
          to {
            stroke: black;
            stroke-width: 1024;
          }
        }
        #make-me-a-hanzi-animation-3 {
          animation: keyframes3 0.69677734375s both;
          animation-delay: 2.3702799479166665s;
          animation-timing-function: linear;
        }
      
        @keyframes keyframes4 {
          from {
            stroke: blue;
            stroke-dashoffset: 427;
            stroke-width: 128;
          }
          58% {
            animation-timing-function: step-end;
            stroke: blue;
            stroke-dashoffset: 0;
            stroke-width: 128;
          }
          to {
            stroke: black;
            stroke-width: 1024;
          }
        }
        #make-me-a-hanzi-animation-4 {
          animation: keyframes4 0.5974934895833334s both;
          animation-delay: 3.0670572916666665s;
          animation-timing-function: linear;
        }
      
        @keyframes keyframes5 {
          from {
            stroke: blue;
            stroke-dashoffset: 717;
            stroke-width: 128;
          }
          70% {
            animation-timing-function: step-end;
            stroke: blue;
            stroke-dashoffset: 0;
            stroke-width: 128;
          }
          to {
            stroke: black;
            stroke-width: 1024;
          }
        }
        #make-me-a-hanzi-animation-5 {
          animation: keyframes5 0.83349609375s both;
          animation-delay: 3.66455078125s;
          animation-timing-function: linear;
        }
      
        @keyframes keyframes6 {
          from {
            stroke: blue;
            stroke-dashoffset: 1199;
            stroke-width: 128;
          }
          80% {
            animation-timing-function: step-end;
            stroke: blue;
            stroke-dashoffset: 0;
            stroke-width: 128;
          }
          to {
            stroke: black;
            stroke-width: 1024;
          }
        }
        #make-me-a-hanzi-animation-6 {
          animation: keyframes6 1.2257486979166667s both;
          animation-delay: 4.498046875s;
          animation-timing-function: linear;
        }
      
        @keyframes keyframes7 {
          from {
            stroke: blue;
            stroke-dashoffset: 748;
            stroke-width: 128;
          }
          71% {
            animation-timing-function: step-end;
            stroke: blue;
            stroke-dashoffset: 0;
            stroke-width: 128;
          }
          to {
            stroke: black;
            stroke-width: 1024;
          }
        }
        #make-me-a-hanzi-animation-7 {
          animation: keyframes7 0.8587239583333334s both;
          animation-delay: 5.723795572916667s;
          animation-timing-function: linear;
        }
      
    </style>
    
      <path d="M 378 624 Q 403 630 428 633 Q 446 634 449 629 Q 455 622 452 599 Q 446 538 432 510 Q 416 483 392 488 Q 370 495 349 504 Q 328 511 342 491 Q 379 452 396 422 Q 409 406 422 418 Q 473 445 501 578 Q 508 611 522 627 Q 534 637 528 647 Q 521 657 475 679 Q 456 688 439 676 Q 426 669 389 658 L 334 646 Q 264 630 206 627 Q 190 626 188 618 Q 187 611 208 600 Q 230 585 248 592 Q 287 604 323 611 L 378 624 Z" fill="lightgray" />
    
      <path d="M 323 611 Q 278 500 154 380 Q 148 373 154 371 Q 161 370 171 374 Q 225 402 269 446 Q 332 503 378 624 L 389 658 Q 395 680 412 716 Q 419 725 412 734 Q 405 743 377 756 Q 356 765 348 762 Q 336 758 339 744 Q 348 699 335 648 Q 334 648 334 646 L 323 611 Z" fill="lightgray" />
    
      <path d="M 586 656 Q 576 660 555 665 Q 545 668 541 663 Q 535 657 542 643 Q 564 594 578 515 Q 579 490 594 475 Q 609 454 614 469 Q 617 479 618 492 L 615 524 Q 603 605 603 629 C 602 650 602 650 586 656 Z" fill="lightgray" />
    
      <path d="M 772 547 Q 788 610 808 628 Q 830 653 808 667 L 763 696 Q 744 706 726 696 Q 683 669 586 656 C 556 652 573 625 603 629 Q 612 630 624 632 Q 666 641 701 647 Q 726 651 731 642 Q 737 638 732 611 Q 726 583 721 549 C 717 519 764 518 772 547 Z" fill="lightgray" />
    
      <path d="M 618 492 Q 624 492 632 493 Q 681 505 785 515 Q 795 516 796 525 Q 796 532 772 547 C 755 558 750 557 721 549 Q 661 533 615 524 C 586 518 588 491 618 492 Z" fill="lightgray" />
    
      <path d="M 574 202 Q 593 244 605 282 Q 618 331 651 360 Q 667 376 652 389 Q 634 404 587 427 Q 575 433 515 419 Q 461 409 418 397 Q 375 385 347 381 Q 331 381 329 375 Q 325 371 341 360 Q 374 344 393 352 Q 436 367 536 383 Q 554 384 560 382 Q 569 378 565 352 Q 552 256 543 237 Q 536 216 547 198 C 558 170 562 175 574 202 Z" fill="lightgray" />
    
      <path d="M 413 130 Q 438 146 488 156 Q 594 180 704 184 Q 735 185 748 173 Q 758 161 745 119 Q 738 79 729 36 Q 722 3 706 -18 Q 699 -28 678 -25 Q 650 -15 626 -8 Q 611 -2 610 -9 Q 610 -15 618 -23 Q 661 -77 674 -111 Q 681 -133 700 -124 Q 752 -103 775 -38 Q 811 128 825 149 Q 826 155 830 158 Q 843 174 832 188 Q 814 209 777 231 Q 756 244 727 232 Q 681 213 636 210 Q 611 209 574 202 L 547 198 Q 504 194 448 183 Q 429 176 425 191 Q 437 255 448 272 Q 455 285 451 298 Q 439 316 418 329 Q 402 338 393 331 Q 387 327 393 316 Q 399 298 377 195 Q 373 185 369 173 Q 362 154 375 137 Q 393 119 413 130 Z" fill="lightgray" />
    
      <path d="M 438 43 Q 469 46 500 50 Q 573 60 663 56 Q 682 55 687 62 Q 693 74 682 83 Q 622 131 570 111 Q 540 105 401 80 Q 223 55 194 52 Q 182 51 182 42 Q 182 32 198 21 Q 213 11 239 3 Q 249 0 263 7 Q 305 25 438 43 Z" fill="lightgray" />
    
    
      <clipPath id="make-me-a-hanzi-clip-0">
        <path d="M 378 624 Q 403 630 428 633 Q 446 634 449 629 Q 455 622 452 599 Q 446 538 432 510 Q 416 483 392 488 Q 370 495 349 504 Q 328 511 342 491 Q 379 452 396 422 Q 409 406 422 418 Q 473 445 501 578 Q 508 611 522 627 Q 534 637 528 647 Q 521 657 475 679 Q 456 688 439 676 Q 426 669 389 658 L 334 646 Q 264 630 206 627 Q 190 626 188 618 Q 187 611 208 600 Q 230 585 248 592 Q 287 604 323 611 L 378 624 Z" />
      </clipPath>
      <path clip-path="url(#make-me-a-hanzi-clip-0)" d="M 195 617 L 251 611 L 444 655 L 473 648 L 484 635 L 475 573 L 461 517 L 441 478 L 413 456 L 353 493" fill="none" id="make-me-a-hanzi-animation-0" stroke-dasharray="699 1398" stroke-linecap="round" />
    
      <clipPath id="make-me-a-hanzi-clip-1">
        <path d="M 323 611 Q 278 500 154 380 Q 148 373 154 371 Q 161 370 171 374 Q 225 402 269 446 Q 332 503 378 624 L 389 658 Q 395 680 412 716 Q 419 725 412 734 Q 405 743 377 756 Q 356 765 348 762 Q 336 758 339 744 Q 348 699 335 648 Q 334 648 334 646 L 323 611 Z" />
      </clipPath>
      <path clip-path="url(#make-me-a-hanzi-clip-1)" d="M 352 749 L 376 718 L 374 703 L 357 637 L 327 563 L 267 473 L 208 413 L 158 376" fill="none" id="make-me-a-hanzi-animation-1" stroke-dasharray="585 1170" stroke-linecap="round" />
    
      <clipPath id="make-me-a-hanzi-clip-2">
        <path d="M 586 656 Q 576 660 555 665 Q 545 668 541 663 Q 535 657 542 643 Q 564 594 578 515 Q 579 490 594 475 Q 609 454 614 469 Q 617 479 618 492 L 615 524 Q 603 605 603 629 C 602 650 602 650 586 656 Z" />
      </clipPath>
      <path clip-path="url(#make-me-a-hanzi-clip-2)" d="M 549 656 L 577 622 L 604 473" fill="none" id="make-me-a-hanzi-animation-2" stroke-dasharray="323 646" stroke-linecap="round" />
    
      <clipPath id="make-me-a-hanzi-clip-3">
        <path d="M 772 547 Q 788 610 808 628 Q 830 653 808 667 L 763 696 Q 744 706 726 696 Q 683 669 586 656 C 556 652 573 625 603 629 Q 612 630 624 632 Q 666 641 701 647 Q 726 651 731 642 Q 737 638 732 611 Q 726 583 721 549 C 717 519 764 518 772 547 Z" />
      </clipPath>
      <path clip-path="url(#make-me-a-hanzi-clip-3)" d="M 596 653 L 609 645 L 734 671 L 752 666 L 771 645 L 769 635 L 752 574 L 728 556" fill="none" id="make-me-a-hanzi-animation-3" stroke-dasharray="421 842" stroke-linecap="round" />
    
      <clipPath id="make-me-a-hanzi-clip-4">
        <path d="M 618 492 Q 624 492 632 493 Q 681 505 785 515 Q 795 516 796 525 Q 796 532 772 547 C 755 558 750 557 721 549 Q 661 533 615 524 C 586 518 588 491 618 492 Z" />
      </clipPath>
      <path clip-path="url(#make-me-a-hanzi-clip-4)" d="M 625 498 L 639 513 L 727 529 L 765 531 L 787 524" fill="none" id="make-me-a-hanzi-animation-4" stroke-dasharray="299 598" stroke-linecap="round" />
    
      <clipPath id="make-me-a-hanzi-clip-5">
        <path d="M 574 202 Q 593 244 605 282 Q 618 331 651 360 Q 667 376 652 389 Q 634 404 587 427 Q 575 433 515 419 Q 461 409 418 397 Q 375 385 347 381 Q 331 381 329 375 Q 325 371 341 360 Q 374 344 393 352 Q 436 367 536 383 Q 554 384 560 382 Q 569 378 565 352 Q 552 256 543 237 Q 536 216 547 198 C 558 170 562 175 574 202 Z" />
      </clipPath>
      <path clip-path="url(#make-me-a-hanzi-clip-5)" d="M 335 373 L 377 368 L 530 404 L 565 405 L 584 398 L 606 369 L 573 257 L 552 208" fill="none" id="make-me-a-hanzi-animation-5" stroke-dasharray="589 1178" stroke-linecap="round" />
    
      <clipPath id="make-me-a-hanzi-clip-6">
        <path d="M 413 130 Q 438 146 488 156 Q 594 180 704 184 Q 735 185 748 173 Q 758 161 745 119 Q 738 79 729 36 Q 722 3 706 -18 Q 699 -28 678 -25 Q 650 -15 626 -8 Q 611 -2 610 -9 Q 610 -15 618 -23 Q 661 -77 674 -111 Q 681 -133 700 -124 Q 752 -103 775 -38 Q 811 128 825 149 Q 826 155 830 158 Q 843 174 832 188 Q 814 209 777 231 Q 756 244 727 232 Q 681 213 636 210 Q 611 209 574 202 L 547 198 Q 504 194 448 183 Q 429 176 425 191 Q 437 255 448 272 Q 455 285 451 298 Q 439 316 418 329 Q 402 338 393 331 Q 387 327 393 316 Q 399 298 377 195 Q 373 185 369 173 Q 362 154 375 137 Q 393 119 413 130 Z" />
      </clipPath>
      <path clip-path="url(#make-me-a-hanzi-clip-6)" d="M 401 324 L 414 310 L 423 287 L 402 203 L 403 164 L 438 162 L 542 183 L 742 208 L 767 200 L 786 180 L 790 166 L 764 48 L 746 -19 L 733 -44 L 704 -69 L 615 -11" fill="none" id="make-me-a-hanzi-animation-6" stroke-dasharray="1071 2142" stroke-linecap="round" />
    
      <clipPath id="make-me-a-hanzi-clip-7">
        <path d="M 438 43 Q 469 46 500 50 Q 573 60 663 56 Q 682 55 687 62 Q 693 74 682 83 Q 622 131 570 111 Q 540 105 401 80 Q 223 55 194 52 Q 182 51 182 42 Q 182 32 198 21 Q 213 11 239 3 Q 249 0 263 7 Q 305 25 438 43 Z" />
      </clipPath>
      <path clip-path="url(#make-me-a-hanzi-clip-7)" d="M 193 41 L 239 30 L 391 59 L 585 86 L 635 83 L 677 69" fill="none" id="make-me-a-hanzi-animation-7" stroke-dasharray="620 1240" stroke-linecap="round" />
    
  </g>
</svg>