<svg xmlns="http://www.w3.org/2000/svg" version="1.1" viewBox="0 0 1024 1024">
  <g stroke="lightgray" stroke-dasharray="1,1" stroke-width="1" transform="scale(4, 4)">
    <line x1="0" y1="0" x2="256" y2="256" />
    <line x1="256" y1="0" x2="0" y2="256" />
    <line x1="128" y1="0" x2="128" y2="256" />
    <line x1="0" y1="128" x2="256" y2="128" />
  </g>
  <g transform="scale(1.0, -1.0) translate(0.0, -806.50)">
    <style type="text/css">
      
        @keyframes keyframes0 {
          from {
            stroke: blue;
            stroke-dashoffset: 840;
            stroke-width: 128;
          }
          73% {
            animation-timing-function: step-end;
            stroke: blue;
            stroke-dashoffset: 0;
            stroke-width: 128;
          }
          to {
            stroke: black;
            stroke-width: 1024;
          }
        }
        #make-me-a-hanzi-animation-0 {
          animation: keyframes0 0.93359375s both;
          animation-delay: 0s;
          animation-timing-function: linear;
        }
      
        @keyframes keyframes1 {
          from {
            stroke: blue;
            stroke-dashoffset: 1200;
            stroke-width: 128;
          }
          80% {
            animation-timing-function: step-end;
            stroke: blue;
            stroke-dashoffset: 0;
            stroke-width: 128;
          }
          to {
            stroke: black;
            stroke-width: 1024;
          }
        }
        #make-me-a-hanzi-animation-1 {
          animation: keyframes1 1.2265625s both;
          animation-delay: 0.93359375s;
          animation-timing-function: linear;
        }
      
        @keyframes keyframes2 {
          from {
            stroke: blue;
            stroke-dashoffset: 564;
            stroke-width: 128;
          }
          65% {
            animation-timing-function: step-end;
            stroke: blue;
            stroke-dashoffset: 0;
            stroke-width: 128;
          }
          to {
            stroke: black;
            stroke-width: 1024;
          }
        }
        #make-me-a-hanzi-animation-2 {
          animation: keyframes2 0.708984375s both;
          animation-delay: 2.16015625s;
          animation-timing-function: linear;
        }
      
        @keyframes keyframes3 {
          from {
            stroke: blue;
            stroke-dashoffset: 998;
            stroke-width: 128;
          }
          76% {
            animation-timing-function: step-end;
            stroke: blue;
            stroke-dashoffset: 0;
            stroke-width: 128;
          }
          to {
            stroke: black;
            stroke-width: 1024;
          }
        }
        #make-me-a-hanzi-animation-3 {
          animation: keyframes3 1.0621744791666667s both;
          animation-delay: 2.869140625s;
          animation-timing-function: linear;
        }
      
        @keyframes keyframes4 {
          from {
            stroke: blue;
            stroke-dashoffset: 788;
            stroke-width: 128;
          }
          72% {
            animation-timing-function: step-end;
            stroke: blue;
            stroke-dashoffset: 0;
            stroke-width: 128;
          }
          to {
            stroke: black;
            stroke-width: 1024;
          }
        }
        #make-me-a-hanzi-animation-4 {
          animation: keyframes4 0.8912760416666666s both;
          animation-delay: 3.931315104166667s;
          animation-timing-function: linear;
        }
      
        @keyframes keyframes5 {
          from {
            stroke: blue;
            stroke-dashoffset: 530;
            stroke-width: 128;
          }
          63% {
            animation-timing-function: step-end;
            stroke: blue;
            stroke-dashoffset: 0;
            stroke-width: 128;
          }
          to {
            stroke: black;
            stroke-width: 1024;
          }
        }
        #make-me-a-hanzi-animation-5 {
          animation: keyframes5 0.6813151041666666s both;
          animation-delay: 4.822591145833334s;
          animation-timing-function: linear;
        }
      
        @keyframes keyframes6 {
          from {
            stroke: blue;
            stroke-dashoffset: 681;
            stroke-width: 128;
          }
          69% {
            animation-timing-function: step-end;
            stroke: blue;
            stroke-dashoffset: 0;
            stroke-width: 128;
          }
          to {
            stroke: black;
            stroke-width: 1024;
          }
        }
        #make-me-a-hanzi-animation-6 {
          animation: keyframes6 0.80419921875s both;
          animation-delay: 5.503906250000001s;
          animation-timing-function: linear;
        }
      
        @keyframes keyframes7 {
          from {
            stroke: blue;
            stroke-dashoffset: 756;
            stroke-width: 128;
          }
          71% {
            animation-timing-function: step-end;
            stroke: blue;
            stroke-dashoffset: 0;
            stroke-width: 128;
          }
          to {
            stroke: black;
            stroke-width: 1024;
          }
        }
        #make-me-a-hanzi-animation-7 {
          animation: keyframes7 0.865234375s both;
          animation-delay: 6.308105468750001s;
          animation-timing-function: linear;
        }
      
    </style>
    
      <path d="M 384 328 Q 403 364 419 525 Q 431 580 466 614 Q 484 633 465 647 Q 446 663 391 685 Q 379 691 321 675 Q 276 665 236 651 Q 199 639 174 635 Q 158 634 155 628 Q 151 622 169 612 Q 200 600 240 611 Q 348 644 362 635 Q 378 628 374 578 Q 355 394 343 357 Q 334 330 350 313 C 365 287 373 300 384 328 Z" fill="lightgray" />
    
      <path d="M 350 313 Q 317 306 259 287 Q 240 286 239 302 Q 252 465 264 490 Q 271 506 264 518 Q 248 537 223 548 Q 204 555 196 547 Q 189 543 197 531 Q 212 492 190 314 Q 186 295 181 275 Q 175 256 190 240 Q 208 225 231 239 Q 255 263 360 282 Q 388 283 400 273 Q 410 264 384 105 Q 377 59 357 28 Q 350 19 330 23 L 269 45 Q 256 49 255 43 Q 254 39 262 30 Q 313 -24 329 -59 Q 336 -78 354 -70 Q 414 -45 426 23 Q 442 105 453 198 Q 460 232 476 263 Q 488 278 477 289 Q 461 308 425 327 Q 406 337 384 328 L 350 313 Z" fill="lightgray" />
    
      <path d="M 47 115 Q 34 114 33 102 Q 32 89 41 82 Q 65 67 99 50 Q 109 47 120 57 Q 144 78 288 156 Q 307 166 321 179 Q 334 186 334 196 Q 328 202 316 198 Q 94 117 47 115 Z" fill="lightgray" />
    
      <path d="M 689 475 Q 729 524 771 603 Q 787 631 812 648 Q 827 655 827 665 Q 827 678 798 694 Q 764 716 749 717 Q 739 716 727 708 Q 613 666 538 660 Q 501 659 498 650 Q 497 646 504 642 Q 549 606 689 659 Q 710 665 718 659 Q 724 655 705 605 Q 693 575 648 506 L 625 477 Q 553 399 447 349 Q 437 345 438 340 Q 439 336 446 336 Q 534 333 655 439 Q 656 442 659 443 L 689 475 Z" fill="lightgray" />
    
      <path d="M 659 443 Q 663 440 667 435 Q 779 326 819 325 Q 900 328 961 345 Q 994 352 990 360 Q 987 366 902 385 Q 772 415 689 475 L 648 506 L 600 546 Q 564 577 533 576 Q 517 575 514 570 Q 513 564 528 556 Q 552 543 568 527 Q 595 506 625 477 L 659 443 Z" fill="lightgray" />
    
      <path d="M 679 243 Q 784 267 786 267 Q 796 274 791 284 Q 784 296 754 304 Q 727 310 682 294 L 626 280 Q 584 271 522 266 Q 485 260 511 242 Q 556 218 613 230 Q 619 231 626 232 L 679 243 Z" fill="lightgray" />
    
      <path d="M 676 123 Q 739 133 876 133 Q 895 133 900 142 Q 904 152 889 166 Q 832 206 766 185 Q 727 179 677 167 L 625 158 Q 552 148 472 134 Q 451 131 467 115 Q 480 102 498 97 Q 519 93 534 97 Q 577 110 625 116 L 676 123 Z" fill="lightgray" />
    
      <path d="M 628 -89 Q 632 -113 639 -121 Q 643 -128 651 -126 Q 675 -107 676 109 L 676 123 L 677 167 Q 677 201 679 243 L 682 294 Q 685 306 689 331 Q 692 347 679 356 Q 649 375 636 378 Q 624 382 610 375 Q 603 368 608 358 Q 626 328 626 280 L 626 232 Q 626 198 625 158 L 625 116 Q 625 -65 628 -89 Z" fill="lightgray" />
    
    
      <clipPath id="make-me-a-hanzi-clip-0">
        <path d="M 384 328 Q 403 364 419 525 Q 431 580 466 614 Q 484 633 465 647 Q 446 663 391 685 Q 379 691 321 675 Q 276 665 236 651 Q 199 639 174 635 Q 158 634 155 628 Q 151 622 169 612 Q 200 600 240 611 Q 348 644 362 635 Q 378 628 374 578 Q 355 394 343 357 Q 334 330 350 313 C 365 287 373 300 384 328 Z" />
      </clipPath>
      <path clip-path="url(#make-me-a-hanzi-clip-0)" d="M 162 626 L 215 624 L 356 661 L 388 654 L 417 625 L 399 562 L 376 386 L 368 353 L 352 323" fill="none" id="make-me-a-hanzi-animation-0" stroke-dasharray="712 1424" stroke-linecap="round" />
    
      <clipPath id="make-me-a-hanzi-clip-1">
        <path d="M 350 313 Q 317 306 259 287 Q 240 286 239 302 Q 252 465 264 490 Q 271 506 264 518 Q 248 537 223 548 Q 204 555 196 547 Q 189 543 197 531 Q 212 492 190 314 Q 186 295 181 275 Q 175 256 190 240 Q 208 225 231 239 Q 255 263 360 282 Q 388 283 400 273 Q 410 264 384 105 Q 377 59 357 28 Q 350 19 330 23 L 269 45 Q 256 49 255 43 Q 254 39 262 30 Q 313 -24 329 -59 Q 336 -78 354 -70 Q 414 -45 426 23 Q 442 105 453 198 Q 460 232 476 263 Q 488 278 477 289 Q 461 308 425 327 Q 406 337 384 328 L 350 313 Z" />
      </clipPath>
      <path clip-path="url(#make-me-a-hanzi-clip-1)" d="M 203 539 L 221 525 L 234 499 L 213 302 L 215 271 L 257 271 L 335 294 L 398 305 L 418 298 L 439 273 L 407 76 L 382 1 L 356 -20 L 263 39" fill="none" id="make-me-a-hanzi-animation-1" stroke-dasharray="1072 2144" stroke-linecap="round" />
    
      <clipPath id="make-me-a-hanzi-clip-2">
        <path d="M 47 115 Q 34 114 33 102 Q 32 89 41 82 Q 65 67 99 50 Q 109 47 120 57 Q 144 78 288 156 Q 307 166 321 179 Q 334 186 334 196 Q 328 202 316 198 Q 94 117 47 115 Z" />
      </clipPath>
      <path clip-path="url(#make-me-a-hanzi-clip-2)" d="M 46 102 L 101 89 L 263 163 L 271 162 L 328 193" fill="none" id="make-me-a-hanzi-animation-2" stroke-dasharray="436 872" stroke-linecap="round" />
    
      <clipPath id="make-me-a-hanzi-clip-3">
        <path d="M 689 475 Q 729 524 771 603 Q 787 631 812 648 Q 827 655 827 665 Q 827 678 798 694 Q 764 716 749 717 Q 739 716 727 708 Q 613 666 538 660 Q 501 659 498 650 Q 497 646 504 642 Q 549 606 689 659 Q 710 665 718 659 Q 724 655 705 605 Q 693 575 648 506 L 625 477 Q 553 399 447 349 Q 437 345 438 340 Q 439 336 446 336 Q 534 333 655 439 Q 656 442 659 443 L 689 475 Z" />
      </clipPath>
      <path clip-path="url(#make-me-a-hanzi-clip-3)" d="M 504 649 L 579 646 L 651 662 L 707 682 L 750 678 L 763 664 L 703 540 L 633 449 L 574 402 L 510 363 L 444 343" fill="none" id="make-me-a-hanzi-animation-3" stroke-dasharray="870 1740" stroke-linecap="round" />
    
      <clipPath id="make-me-a-hanzi-clip-4">
        <path d="M 659 443 Q 663 440 667 435 Q 779 326 819 325 Q 900 328 961 345 Q 994 352 990 360 Q 987 366 902 385 Q 772 415 689 475 L 648 506 L 600 546 Q 564 577 533 576 Q 517 575 514 570 Q 513 564 528 556 Q 552 543 568 527 Q 595 506 625 477 L 659 443 Z" />
      </clipPath>
      <path clip-path="url(#make-me-a-hanzi-clip-4)" d="M 519 569 L 571 548 L 711 428 L 808 370 L 875 359 L 986 358" fill="none" id="make-me-a-hanzi-animation-4" stroke-dasharray="660 1320" stroke-linecap="round" />
    
      <clipPath id="make-me-a-hanzi-clip-5">
        <path d="M 679 243 Q 784 267 786 267 Q 796 274 791 284 Q 784 296 754 304 Q 727 310 682 294 L 626 280 Q 584 271 522 266 Q 485 260 511 242 Q 556 218 613 230 Q 619 231 626 232 L 679 243 Z" />
      </clipPath>
      <path clip-path="url(#make-me-a-hanzi-clip-5)" d="M 514 255 L 536 249 L 587 249 L 726 280 L 757 282 L 783 276" fill="none" id="make-me-a-hanzi-animation-5" stroke-dasharray="402 804" stroke-linecap="round" />
    
      <clipPath id="make-me-a-hanzi-clip-6">
        <path d="M 676 123 Q 739 133 876 133 Q 895 133 900 142 Q 904 152 889 166 Q 832 206 766 185 Q 727 179 677 167 L 625 158 Q 552 148 472 134 Q 451 131 467 115 Q 480 102 498 97 Q 519 93 534 97 Q 577 110 625 116 L 676 123 Z" />
      </clipPath>
      <path clip-path="url(#make-me-a-hanzi-clip-6)" d="M 470 124 L 525 119 L 795 162 L 857 158 L 889 147" fill="none" id="make-me-a-hanzi-animation-6" stroke-dasharray="553 1106" stroke-linecap="round" />
    
      <clipPath id="make-me-a-hanzi-clip-7">
        <path d="M 628 -89 Q 632 -113 639 -121 Q 643 -128 651 -126 Q 675 -107 676 109 L 676 123 L 677 167 Q 677 201 679 243 L 682 294 Q 685 306 689 331 Q 692 347 679 356 Q 649 375 636 378 Q 624 382 610 375 Q 603 368 608 358 Q 626 328 626 280 L 626 232 Q 626 198 625 158 L 625 116 Q 625 -65 628 -89 Z" />
      </clipPath>
      <path clip-path="url(#make-me-a-hanzi-clip-7)" d="M 619 365 L 633 357 L 655 329 L 647 -119" fill="none" id="make-me-a-hanzi-animation-7" stroke-dasharray="628 1256" stroke-linecap="round" />
    
  </g>
</svg>