<svg xmlns="http://www.w3.org/2000/svg" version="1.1" viewBox="0 0 1024 1024">
  <g stroke="lightgray" stroke-dasharray="1,1" stroke-width="1" transform="scale(4, 4)">
    <line x1="0" y1="0" x2="256" y2="256" />
    <line x1="256" y1="0" x2="0" y2="256" />
    <line x1="128" y1="0" x2="128" y2="256" />
    <line x1="0" y1="128" x2="256" y2="128" />
  </g>
  <g transform="scale(1.0, -1.0) translate(0.0, -814.50)">
    <style type="text/css">
      
        @keyframes keyframes0 {
          from {
            stroke: blue;
            stroke-dashoffset: 798;
            stroke-width: 128;
          }
          72% {
            animation-timing-function: step-end;
            stroke: blue;
            stroke-dashoffset: 0;
            stroke-width: 128;
          }
          to {
            stroke: black;
            stroke-width: 1024;
          }
        }
        #make-me-a-hanzi-animation-0 {
          animation: keyframes0 0.8994140625s both;
          animation-delay: 0s;
          animation-timing-function: linear;
        }
      
        @keyframes keyframes1 {
          from {
            stroke: blue;
            stroke-dashoffset: 1227;
            stroke-width: 128;
          }
          80% {
            animation-timing-function: step-end;
            stroke: blue;
            stroke-dashoffset: 0;
            stroke-width: 128;
          }
          to {
            stroke: black;
            stroke-width: 1024;
          }
        }
        #make-me-a-hanzi-animation-1 {
          animation: keyframes1 1.24853515625s both;
          animation-delay: 0.8994140625s;
          animation-timing-function: linear;
        }
      
        @keyframes keyframes2 {
          from {
            stroke: blue;
            stroke-dashoffset: 556;
            stroke-width: 128;
          }
          64% {
            animation-timing-function: step-end;
            stroke: blue;
            stroke-dashoffset: 0;
            stroke-width: 128;
          }
          to {
            stroke: black;
            stroke-width: 1024;
          }
        }
        #make-me-a-hanzi-animation-2 {
          animation: keyframes2 0.7024739583333334s both;
          animation-delay: 2.14794921875s;
          animation-timing-function: linear;
        }
      
        @keyframes keyframes3 {
          from {
            stroke: blue;
            stroke-dashoffset: 513;
            stroke-width: 128;
          }
          63% {
            animation-timing-function: step-end;
            stroke: blue;
            stroke-dashoffset: 0;
            stroke-width: 128;
          }
          to {
            stroke: black;
            stroke-width: 1024;
          }
        }
        #make-me-a-hanzi-animation-3 {
          animation: keyframes3 0.66748046875s both;
          animation-delay: 2.8504231770833335s;
          animation-timing-function: linear;
        }
      
        @keyframes keyframes4 {
          from {
            stroke: blue;
            stroke-dashoffset: 782;
            stroke-width: 128;
          }
          72% {
            animation-timing-function: step-end;
            stroke: blue;
            stroke-dashoffset: 0;
            stroke-width: 128;
          }
          to {
            stroke: black;
            stroke-width: 1024;
          }
        }
        #make-me-a-hanzi-animation-4 {
          animation: keyframes4 0.8863932291666666s both;
          animation-delay: 3.5179036458333335s;
          animation-timing-function: linear;
        }
      
        @keyframes keyframes5 {
          from {
            stroke: blue;
            stroke-dashoffset: 433;
            stroke-width: 128;
          }
          58% {
            animation-timing-function: step-end;
            stroke: blue;
            stroke-dashoffset: 0;
            stroke-width: 128;
          }
          to {
            stroke: black;
            stroke-width: 1024;
          }
        }
        #make-me-a-hanzi-animation-5 {
          animation: keyframes5 0.6023763020833334s both;
          animation-delay: 4.404296875s;
          animation-timing-function: linear;
        }
      
        @keyframes keyframes6 {
          from {
            stroke: blue;
            stroke-dashoffset: 625;
            stroke-width: 128;
          }
          67% {
            animation-timing-function: step-end;
            stroke: blue;
            stroke-dashoffset: 0;
            stroke-width: 128;
          }
          to {
            stroke: black;
            stroke-width: 1024;
          }
        }
        #make-me-a-hanzi-animation-6 {
          animation: keyframes6 0.7586263020833334s both;
          animation-delay: 5.006673177083333s;
          animation-timing-function: linear;
        }
      
        @keyframes keyframes7 {
          from {
            stroke: blue;
            stroke-dashoffset: 450;
            stroke-width: 128;
          }
          59% {
            animation-timing-function: step-end;
            stroke: blue;
            stroke-dashoffset: 0;
            stroke-width: 128;
          }
          to {
            stroke: black;
            stroke-width: 1024;
          }
        }
        #make-me-a-hanzi-animation-7 {
          animation: keyframes7 0.6162109375s both;
          animation-delay: 5.765299479166666s;
          animation-timing-function: linear;
        }
      
        @keyframes keyframes8 {
          from {
            stroke: blue;
            stroke-dashoffset: 674;
            stroke-width: 128;
          }
          69% {
            animation-timing-function: step-end;
            stroke: blue;
            stroke-dashoffset: 0;
            stroke-width: 128;
          }
          to {
            stroke: black;
            stroke-width: 1024;
          }
        }
        #make-me-a-hanzi-animation-8 {
          animation: keyframes8 0.7985026041666666s both;
          animation-delay: 6.381510416666666s;
          animation-timing-function: linear;
        }
      
        @keyframes keyframes9 {
          from {
            stroke: blue;
            stroke-dashoffset: 968;
            stroke-width: 128;
          }
          76% {
            animation-timing-function: step-end;
            stroke: blue;
            stroke-dashoffset: 0;
            stroke-width: 128;
          }
          to {
            stroke: black;
            stroke-width: 1024;
          }
        }
        #make-me-a-hanzi-animation-9 {
          animation: keyframes9 1.0377604166666667s both;
          animation-delay: 7.180013020833333s;
          animation-timing-function: linear;
        }
      
    </style>
    
      <path d="M 141 603 Q 125 602 122 595 Q 119 591 137 580 Q 171 565 192 574 Q 231 590 321 611 Q 337 614 344 611 Q 357 604 353 564 Q 335 410 324 379 Q 318 361 325 346 Q 332 331 344 333 Q 356 336 363 350 Q 379 378 396 508 Q 406 560 440 593 Q 456 609 440 624 Q 421 639 369 660 Q 354 667 298 648 Q 250 636 208 622 Q 168 609 141 603 Z" fill="lightgray" />
    
      <path d="M 225 232 Q 255 259 364 280 Q 392 284 405 273 Q 417 263 406 224 Q 399 160 386 93 Q 377 41 354 8 Q 347 1 330 2 Q 297 15 268 28 Q 255 34 255 27 Q 254 23 261 14 Q 310 -41 326 -76 Q 333 -95 350 -88 Q 375 -78 394 -63 Q 419 -32 425 7 Q 444 98 459 198 Q 466 234 482 263 Q 494 279 483 290 Q 467 309 430 328 Q 412 338 362 317 Q 242 284 241 284 Q 234 287 232 295 Q 241 452 254 487 Q 260 502 254 512 Q 239 528 216 539 Q 200 546 192 538 Q 186 534 193 523 Q 202 499 197 408 Q 190 303 180 270 Q 174 251 188 236 Q 207 220 225 232 Z" fill="lightgray" />
    
      <path d="M 83 111 Q 70 108 69 98 Q 68 85 77 78 Q 101 63 135 47 Q 145 44 157 54 Q 178 75 320 155 Q 339 165 353 179 Q 366 186 365 196 Q 359 202 348 198 Q 128 111 83 111 Z" fill="lightgray" />
    
      <path d="M 531 574 Q 521 580 495 585 Q 485 588 481 583 Q 475 579 482 564 Q 510 497 523 389 Q 524 358 542 335 Q 557 314 562 329 Q 565 338 566 350 L 567 372 Q 566 385 564 399 Q 548 505 543 541 C 539 570 539 570 531 574 Z" fill="lightgray" />
    
      <path d="M 646 596 Q 624 593 606 588 Q 563 579 531 574 C 501 569 515 529 543 541 Q 552 550 646 564 L 693 572 Q 777 587 795 579 Q 805 573 799 542 Q 778 428 766 401 C 759 382 759 382 764 375 Q 765 374 766 371 Q 772 356 784 357 Q 797 358 804 373 Q 817 389 839 470 Q 854 519 889 548 Q 907 564 892 579 Q 874 595 827 620 Q 815 627 748 614 Q 735 614 695 605 L 646 596 Z" fill="lightgray" />
    
      <path d="M 688 467 Q 719 474 748 478 Q 769 482 761 493 Q 751 506 729 509 Q 713 512 690 506 L 647 493 L 578 471 Q 563 468 582 455 Q 586 452 647 460 L 688 467 Z" fill="lightgray" />
    
      <path d="M 695 605 Q 701 672 704 682 L 711 711 Q 715 721 696 735 Q 665 751 642 755 Q 627 758 620 750 Q 613 743 621 730 Q 642 700 642 680 Q 643 640 646 596 L 646 564 Q 647 530 647 493 L 647 460 L 645 389 C 644 359 682 368 683 398 Q 684 434 688 467 L 690 506 Q 691 540 693 572 L 695 605 Z" fill="lightgray" />
    
      <path d="M 566 350 Q 576 349 589 350 Q 689 366 764 375 C 794 379 792 387 766 401 Q 750 413 697 402 Q 690 401 683 398 L 645 389 Q 603 382 567 372 C 538 364 536 352 566 350 Z" fill="lightgray" />
    
      <path d="M 644 259 Q 723 280 869 281 Q 914 281 920 290 Q 924 300 910 312 Q 856 348 800 327 Q 752 318 684 303 L 502 271 Q 484 270 498 255 Q 511 243 526 239 Q 535 238 599 250 L 644 259 Z" fill="lightgray" />
    
      <path d="M 574 97 Q 613 127 696 146 Q 729 155 748 149 Q 769 143 771 109 Q 761 27 721 -38 Q 705 -62 691 -68 Q 678 -71 607 -54 Q 591 -47 590 -54 Q 590 -60 602 -71 Q 639 -108 663 -142 Q 672 -152 682 -152 Q 697 -153 714 -141 Q 777 -84 810 41 Q 825 120 834 133 Q 846 145 836 157 Q 820 172 784 187 Q 766 194 710 178 Q 673 172 634 163 Q 619 160 627 175 Q 651 211 659 219 Q 672 231 663 246 Q 656 253 644 259 C 620 277 598 280 599 250 Q 608 226 576 177 Q 569 167 547 154 Q 531 139 534 125 Q 535 112 550 97 Q 560 87 574 97 Z" fill="lightgray" />
    
    
      <clipPath id="make-me-a-hanzi-clip-0">
        <path d="M 141 603 Q 125 602 122 595 Q 119 591 137 580 Q 171 565 192 574 Q 231 590 321 611 Q 337 614 344 611 Q 357 604 353 564 Q 335 410 324 379 Q 318 361 325 346 Q 332 331 344 333 Q 356 336 363 350 Q 379 378 396 508 Q 406 560 440 593 Q 456 609 440 624 Q 421 639 369 660 Q 354 667 298 648 Q 250 636 208 622 Q 168 609 141 603 Z" />
      </clipPath>
      <path clip-path="url(#make-me-a-hanzi-clip-0)" d="M 128 594 L 181 592 L 333 636 L 359 634 L 383 617 L 393 599 L 377 549 L 362 440 L 342 350" fill="none" id="make-me-a-hanzi-animation-0" stroke-dasharray="670 1340" stroke-linecap="round" />
    
      <clipPath id="make-me-a-hanzi-clip-1">
        <path d="M 225 232 Q 255 259 364 280 Q 392 284 405 273 Q 417 263 406 224 Q 399 160 386 93 Q 377 41 354 8 Q 347 1 330 2 Q 297 15 268 28 Q 255 34 255 27 Q 254 23 261 14 Q 310 -41 326 -76 Q 333 -95 350 -88 Q 375 -78 394 -63 Q 419 -32 425 7 Q 444 98 459 198 Q 466 234 482 263 Q 494 279 483 290 Q 467 309 430 328 Q 412 338 362 317 Q 242 284 241 284 Q 234 287 232 295 Q 241 452 254 487 Q 260 502 254 512 Q 239 528 216 539 Q 200 546 192 538 Q 186 534 193 523 Q 202 499 197 408 Q 190 303 180 270 Q 174 251 188 236 Q 207 220 225 232 Z" />
      </clipPath>
      <path clip-path="url(#make-me-a-hanzi-clip-1)" d="M 201 531 L 227 498 L 208 290 L 213 265 L 236 263 L 352 298 L 395 304 L 423 298 L 446 274 L 405 48 L 382 -16 L 354 -39 L 321 -22 L 262 22" fill="none" id="make-me-a-hanzi-animation-1" stroke-dasharray="1099 2198" stroke-linecap="round" />
    
      <clipPath id="make-me-a-hanzi-clip-2">
        <path d="M 83 111 Q 70 108 69 98 Q 68 85 77 78 Q 101 63 135 47 Q 145 44 157 54 Q 178 75 320 155 Q 339 165 353 179 Q 366 186 365 196 Q 359 202 348 198 Q 128 111 83 111 Z" />
      </clipPath>
      <path clip-path="url(#make-me-a-hanzi-clip-2)" d="M 84 96 L 143 87 L 359 193" fill="none" id="make-me-a-hanzi-animation-2" stroke-dasharray="428 856" stroke-linecap="round" />
    
      <clipPath id="make-me-a-hanzi-clip-3">
        <path d="M 531 574 Q 521 580 495 585 Q 485 588 481 583 Q 475 579 482 564 Q 510 497 523 389 Q 524 358 542 335 Q 557 314 562 329 Q 565 338 566 350 L 567 372 Q 566 385 564 399 Q 548 505 543 541 C 539 570 539 570 531 574 Z" />
      </clipPath>
      <path clip-path="url(#make-me-a-hanzi-clip-3)" d="M 489 576 L 511 555 L 522 523 L 552 333" fill="none" id="make-me-a-hanzi-animation-3" stroke-dasharray="385 770" stroke-linecap="round" />
    
      <clipPath id="make-me-a-hanzi-clip-4">
        <path d="M 646 596 Q 624 593 606 588 Q 563 579 531 574 C 501 569 515 529 543 541 Q 552 550 646 564 L 693 572 Q 777 587 795 579 Q 805 573 799 542 Q 778 428 766 401 C 759 382 759 382 764 375 Q 765 374 766 371 Q 772 356 784 357 Q 797 358 804 373 Q 817 389 839 470 Q 854 519 889 548 Q 907 564 892 579 Q 874 595 827 620 Q 815 627 748 614 Q 735 614 695 605 L 646 596 Z" />
      </clipPath>
      <path clip-path="url(#make-me-a-hanzi-clip-4)" d="M 542 547 L 551 562 L 763 601 L 802 601 L 823 591 L 842 559 L 783 375" fill="none" id="make-me-a-hanzi-animation-4" stroke-dasharray="654 1308" stroke-linecap="round" />
    
      <clipPath id="make-me-a-hanzi-clip-5">
        <path d="M 688 467 Q 719 474 748 478 Q 769 482 761 493 Q 751 506 729 509 Q 713 512 690 506 L 647 493 L 578 471 Q 563 468 582 455 Q 586 452 647 460 L 688 467 Z" />
      </clipPath>
      <path clip-path="url(#make-me-a-hanzi-clip-5)" d="M 579 463 L 701 490 L 732 493 L 752 488" fill="none" id="make-me-a-hanzi-animation-5" stroke-dasharray="305 610" stroke-linecap="round" />
    
      <clipPath id="make-me-a-hanzi-clip-6">
        <path d="M 695 605 Q 701 672 704 682 L 711 711 Q 715 721 696 735 Q 665 751 642 755 Q 627 758 620 750 Q 613 743 621 730 Q 642 700 642 680 Q 643 640 646 596 L 646 564 Q 647 530 647 493 L 647 460 L 645 389 C 644 359 682 368 683 398 Q 684 434 688 467 L 690 506 Q 691 540 693 572 L 695 605 Z" />
      </clipPath>
      <path clip-path="url(#make-me-a-hanzi-clip-6)" d="M 631 741 L 663 718 L 674 697 L 665 420 L 650 396" fill="none" id="make-me-a-hanzi-animation-6" stroke-dasharray="497 994" stroke-linecap="round" />
    
      <clipPath id="make-me-a-hanzi-clip-7">
        <path d="M 566 350 Q 576 349 589 350 Q 689 366 764 375 C 794 379 792 387 766 401 Q 750 413 697 402 Q 690 401 683 398 L 645 389 Q 603 382 567 372 C 538 364 536 352 566 350 Z" />
      </clipPath>
      <path clip-path="url(#make-me-a-hanzi-clip-7)" d="M 572 355 L 580 363 L 710 387 L 748 390 L 757 382" fill="none" id="make-me-a-hanzi-animation-7" stroke-dasharray="322 644" stroke-linecap="round" />
    
      <clipPath id="make-me-a-hanzi-clip-8">
        <path d="M 644 259 Q 723 280 869 281 Q 914 281 920 290 Q 924 300 910 312 Q 856 348 800 327 Q 752 318 684 303 L 502 271 Q 484 270 498 255 Q 511 243 526 239 Q 535 238 599 250 L 644 259 Z" />
      </clipPath>
      <path clip-path="url(#make-me-a-hanzi-clip-8)" d="M 500 263 L 547 259 L 815 306 L 852 308 L 912 295" fill="none" id="make-me-a-hanzi-animation-8" stroke-dasharray="546 1092" stroke-linecap="round" />
    
      <clipPath id="make-me-a-hanzi-clip-9">
        <path d="M 574 97 Q 613 127 696 146 Q 729 155 748 149 Q 769 143 771 109 Q 761 27 721 -38 Q 705 -62 691 -68 Q 678 -71 607 -54 Q 591 -47 590 -54 Q 590 -60 602 -71 Q 639 -108 663 -142 Q 672 -152 682 -152 Q 697 -153 714 -141 Q 777 -84 810 41 Q 825 120 834 133 Q 846 145 836 157 Q 820 172 784 187 Q 766 194 710 178 Q 673 172 634 163 Q 619 160 627 175 Q 651 211 659 219 Q 672 231 663 246 Q 656 253 644 259 C 620 277 598 280 599 250 Q 608 226 576 177 Q 569 167 547 154 Q 531 139 534 125 Q 535 112 550 97 Q 560 87 574 97 Z" />
      </clipPath>
      <path clip-path="url(#make-me-a-hanzi-clip-9)" d="M 608 246 L 628 226 L 601 174 L 601 152 L 633 145 L 724 168 L 759 168 L 782 159 L 800 141 L 784 38 L 752 -41 L 721 -87 L 689 -109 L 595 -56" fill="none" id="make-me-a-hanzi-animation-9" stroke-dasharray="840 1680" stroke-linecap="round" />
    
  </g>
</svg>