<svg xmlns="http://www.w3.org/2000/svg" version="1.1" viewBox="0 0 1024 1024">
  <g stroke="lightgray" stroke-dasharray="1,1" stroke-width="1" transform="scale(4, 4)">
    <line x1="0" y1="0" x2="256" y2="256" />
    <line x1="256" y1="0" x2="0" y2="256" />
    <line x1="128" y1="0" x2="128" y2="256" />
    <line x1="0" y1="128" x2="256" y2="128" />
  </g>
  <g transform="scale(1.0, -1.0) translate(0.0, -829.50)">
    <style type="text/css">
      
        @keyframes keyframes0 {
          from {
            stroke: blue;
            stroke-dashoffset: 835;
            stroke-width: 128;
          }
          73% {
            animation-timing-function: step-end;
            stroke: blue;
            stroke-dashoffset: 0;
            stroke-width: 128;
          }
          to {
            stroke: black;
            stroke-width: 1024;
          }
        }
        #make-me-a-hanzi-animation-0 {
          animation: keyframes0 0.9295247395833334s both;
          animation-delay: 0s;
          animation-timing-function: linear;
        }
      
        @keyframes keyframes1 {
          from {
            stroke: blue;
            stroke-dashoffset: 1204;
            stroke-width: 128;
          }
          80% {
            animation-timing-function: step-end;
            stroke: blue;
            stroke-dashoffset: 0;
            stroke-width: 128;
          }
          to {
            stroke: black;
            stroke-width: 1024;
          }
        }
        #make-me-a-hanzi-animation-1 {
          animation: keyframes1 1.2298177083333333s both;
          animation-delay: 0.9295247395833334s;
          animation-timing-function: linear;
        }
      
        @keyframes keyframes2 {
          from {
            stroke: blue;
            stroke-dashoffset: 565;
            stroke-width: 128;
          }
          65% {
            animation-timing-function: step-end;
            stroke: blue;
            stroke-dashoffset: 0;
            stroke-width: 128;
          }
          to {
            stroke: black;
            stroke-width: 1024;
          }
        }
        #make-me-a-hanzi-animation-2 {
          animation: keyframes2 0.7097981770833334s both;
          animation-delay: 2.1593424479166665s;
          animation-timing-function: linear;
        }
      
        @keyframes keyframes3 {
          from {
            stroke: blue;
            stroke-dashoffset: 710;
            stroke-width: 128;
          }
          70% {
            animation-timing-function: step-end;
            stroke: blue;
            stroke-dashoffset: 0;
            stroke-width: 128;
          }
          to {
            stroke: black;
            stroke-width: 1024;
          }
        }
        #make-me-a-hanzi-animation-3 {
          animation: keyframes3 0.8277994791666666s both;
          animation-delay: 2.869140625s;
          animation-timing-function: linear;
        }
      
        @keyframes keyframes4 {
          from {
            stroke: blue;
            stroke-dashoffset: 692;
            stroke-width: 128;
          }
          69% {
            animation-timing-function: step-end;
            stroke: blue;
            stroke-dashoffset: 0;
            stroke-width: 128;
          }
          to {
            stroke: black;
            stroke-width: 1024;
          }
        }
        #make-me-a-hanzi-animation-4 {
          animation: keyframes4 0.8131510416666666s both;
          animation-delay: 3.6969401041666665s;
          animation-timing-function: linear;
        }
      
        @keyframes keyframes5 {
          from {
            stroke: blue;
            stroke-dashoffset: 459;
            stroke-width: 128;
          }
          60% {
            animation-timing-function: step-end;
            stroke: blue;
            stroke-dashoffset: 0;
            stroke-width: 128;
          }
          to {
            stroke: black;
            stroke-width: 1024;
          }
        }
        #make-me-a-hanzi-animation-5 {
          animation: keyframes5 0.62353515625s both;
          animation-delay: 4.510091145833333s;
          animation-timing-function: linear;
        }
      
        @keyframes keyframes6 {
          from {
            stroke: blue;
            stroke-dashoffset: 376;
            stroke-width: 128;
          }
          55% {
            animation-timing-function: step-end;
            stroke: blue;
            stroke-dashoffset: 0;
            stroke-width: 128;
          }
          to {
            stroke: black;
            stroke-width: 1024;
          }
        }
        #make-me-a-hanzi-animation-6 {
          animation: keyframes6 0.5559895833333334s both;
          animation-delay: 5.133626302083333s;
          animation-timing-function: linear;
        }
      
        @keyframes keyframes7 {
          from {
            stroke: blue;
            stroke-dashoffset: 351;
            stroke-width: 128;
          }
          53% {
            animation-timing-function: step-end;
            stroke: blue;
            stroke-dashoffset: 0;
            stroke-width: 128;
          }
          to {
            stroke: black;
            stroke-width: 1024;
          }
        }
        #make-me-a-hanzi-animation-7 {
          animation: keyframes7 0.53564453125s both;
          animation-delay: 5.689615885416666s;
          animation-timing-function: linear;
        }
      
        @keyframes keyframes8 {
          from {
            stroke: blue;
            stroke-dashoffset: 551;
            stroke-width: 128;
          }
          64% {
            animation-timing-function: step-end;
            stroke: blue;
            stroke-dashoffset: 0;
            stroke-width: 128;
          }
          to {
            stroke: black;
            stroke-width: 1024;
          }
        }
        #make-me-a-hanzi-animation-8 {
          animation: keyframes8 0.6984049479166666s both;
          animation-delay: 6.225260416666666s;
          animation-timing-function: linear;
        }
      
        @keyframes keyframes9 {
          from {
            stroke: blue;
            stroke-dashoffset: 673;
            stroke-width: 128;
          }
          69% {
            animation-timing-function: step-end;
            stroke: blue;
            stroke-dashoffset: 0;
            stroke-width: 128;
          }
          to {
            stroke: black;
            stroke-width: 1024;
          }
        }
        #make-me-a-hanzi-animation-9 {
          animation: keyframes9 0.7976888020833334s both;
          animation-delay: 6.923665364583333s;
          animation-timing-function: linear;
        }
      
    </style>
    
      <path d="M 360 342 Q 378 382 396 532 Q 406 584 439 615 Q 455 631 439 646 Q 420 661 370 681 Q 355 688 302 670 Q 295 670 211 641 Q 171 628 145 621 Q 129 620 127 614 Q 124 610 141 600 Q 175 587 193 595 Q 232 613 322 635 Q 338 639 344 636 Q 360 629 354 581 Q 333 403 320 367 Q 314 349 324 328 C 333 299 350 314 360 342 Z" fill="lightgray" />
    
      <path d="M 324 328 Q 290 322 230 305 Q 205 301 203 320 Q 206 461 219 492 Q 225 507 218 517 Q 203 533 180 543 Q 164 549 156 541 Q 150 537 157 526 Q 169 501 159 329 Q 156 311 152 293 Q 145 274 159 259 Q 177 244 199 257 Q 220 278 328 294 Q 359 297 372 285 Q 384 275 372 231 Q 365 165 355 96 Q 348 42 324 8 Q 317 -2 297 -2 Q 267 7 240 13 Q 227 17 227 11 Q 227 7 235 -1 Q 284 -47 301 -80 Q 308 -99 325 -90 Q 386 -57 397 10 Q 413 104 426 206 Q 433 243 450 273 Q 462 288 451 300 Q 435 319 398 340 Q 380 350 360 342 L 324 328 Z" fill="lightgray" />
    
      <path d="M 52 127 Q 39 126 37 115 Q 36 102 46 94 Q 68 78 103 62 Q 113 59 124 68 Q 155 93 189 113 L 295 168 Q 314 178 329 191 Q 342 198 342 208 Q 336 214 324 210 Q 99 129 52 127 Z" fill="lightgray" />
    
      <path d="M 644 601 Q 663 643 682 664 Q 689 674 685 687 Q 679 700 650 719 Q 623 734 605 733 Q 587 729 597 709 Q 612 684 603 660 Q 561 524 444 354 Q 435 344 434 337 Q 431 327 444 330 Q 454 333 477 356 Q 513 390 554 451 Q 591 503 631 576 L 644 601 Z" fill="lightgray" />
    
      <path d="M 631 576 Q 701 467 793 349 Q 809 330 839 330 Q 938 330 969 334 Q 979 337 980 341 Q 981 345 968 353 Q 827 413 749 491 Q 698 540 644 601 C 624 623 615 601 631 576 Z" fill="lightgray" />
    
      <path d="M 525 329 Q 491 319 518 306 Q 560 288 613 305 L 702 331 Q 723 338 726 341 Q 733 348 728 357 Q 721 367 691 372 Q 670 375 589 344 Q 559 335 525 329 Z" fill="lightgray" />
    
      <path d="M 477 146 L 517 88 Q 526 75 538 73 Q 547 72 553 81 Q 560 91 558 117 Q 555 144 482 186 Q 470 192 464 190 Q 460 189 458 178 Q 459 168 477 146 Z" fill="lightgray" />
    
      <path d="M 558 224 Q 597 148 616 141 Q 626 137 635 151 Q 639 161 635 179 Q 628 212 567 245 Q 560 248 556 239 Q 553 232 558 224 Z" fill="lightgray" />
    
      <path d="M 675 17 Q 708 74 743 152 Q 756 182 780 219 Q 795 232 785 242 Q 775 258 744 277 Q 731 287 713 280 Q 703 276 710 264 Q 722 222 668 85 Q 643 28 640 10 C 633 -19 660 -9 675 17 Z" fill="lightgray" />
    
      <path d="M 640 10 Q 631 10 623 8 L 448 -18 Q 427 -19 443 -37 Q 474 -65 513 -56 Q 622 -29 843 -29 Q 862 -28 867 -20 Q 873 -8 856 6 Q 801 48 734 29 Q 707 25 675 17 L 640 10 Z" fill="lightgray" />
    
    
      <clipPath id="make-me-a-hanzi-clip-0">
        <path d="M 360 342 Q 378 382 396 532 Q 406 584 439 615 Q 455 631 439 646 Q 420 661 370 681 Q 355 688 302 670 Q 295 670 211 641 Q 171 628 145 621 Q 129 620 127 614 Q 124 610 141 600 Q 175 587 193 595 Q 232 613 322 635 Q 338 639 344 636 Q 360 629 354 581 Q 333 403 320 367 Q 314 349 324 328 C 333 299 350 314 360 342 Z" />
      </clipPath>
      <path clip-path="url(#make-me-a-hanzi-clip-0)" d="M 133 613 L 183 612 L 229 631 L 335 659 L 369 652 L 394 626 L 372 542 L 350 388 L 342 360 L 327 337" fill="none" id="make-me-a-hanzi-animation-0" stroke-dasharray="707 1414" stroke-linecap="round" />
    
      <clipPath id="make-me-a-hanzi-clip-1">
        <path d="M 324 328 Q 290 322 230 305 Q 205 301 203 320 Q 206 461 219 492 Q 225 507 218 517 Q 203 533 180 543 Q 164 549 156 541 Q 150 537 157 526 Q 169 501 159 329 Q 156 311 152 293 Q 145 274 159 259 Q 177 244 199 257 Q 220 278 328 294 Q 359 297 372 285 Q 384 275 372 231 Q 365 165 355 96 Q 348 42 324 8 Q 317 -2 297 -2 Q 267 7 240 13 Q 227 17 227 11 Q 227 7 235 -1 Q 284 -47 301 -80 Q 308 -99 325 -90 Q 386 -57 397 10 Q 413 104 426 206 Q 433 243 450 273 Q 462 288 451 300 Q 435 319 398 340 Q 380 350 360 342 L 324 328 Z" />
      </clipPath>
      <path clip-path="url(#make-me-a-hanzi-clip-1)" d="M 165 534 L 187 511 L 191 498 L 180 341 L 184 287 L 223 288 L 300 307 L 373 317 L 390 310 L 414 284 L 397 206 L 381 80 L 368 22 L 353 -13 L 325 -40 L 234 7" fill="none" id="make-me-a-hanzi-animation-1" stroke-dasharray="1076 2152" stroke-linecap="round" />
    
      <clipPath id="make-me-a-hanzi-clip-2">
        <path d="M 52 127 Q 39 126 37 115 Q 36 102 46 94 Q 68 78 103 62 Q 113 59 124 68 Q 155 93 189 113 L 295 168 Q 314 178 329 191 Q 342 198 342 208 Q 336 214 324 210 Q 99 129 52 127 Z" />
      </clipPath>
      <path clip-path="url(#make-me-a-hanzi-clip-2)" d="M 51 113 L 106 101 L 336 205" fill="none" id="make-me-a-hanzi-animation-2" stroke-dasharray="437 874" stroke-linecap="round" />
    
      <clipPath id="make-me-a-hanzi-clip-3">
        <path d="M 644 601 Q 663 643 682 664 Q 689 674 685 687 Q 679 700 650 719 Q 623 734 605 733 Q 587 729 597 709 Q 612 684 603 660 Q 561 524 444 354 Q 435 344 434 337 Q 431 327 444 330 Q 454 333 477 356 Q 513 390 554 451 Q 591 503 631 576 L 644 601 Z" />
      </clipPath>
      <path clip-path="url(#make-me-a-hanzi-clip-3)" d="M 607 719 L 632 697 L 644 677 L 629 638 L 555 490 L 497 402 L 442 338" fill="none" id="make-me-a-hanzi-animation-3" stroke-dasharray="582 1164" stroke-linecap="round" />
    
      <clipPath id="make-me-a-hanzi-clip-4">
        <path d="M 631 576 Q 701 467 793 349 Q 809 330 839 330 Q 938 330 969 334 Q 979 337 980 341 Q 981 345 968 353 Q 827 413 749 491 Q 698 540 644 601 C 624 623 615 601 631 576 Z" />
      </clipPath>
      <path clip-path="url(#make-me-a-hanzi-clip-4)" d="M 646 592 L 646 577 L 721 484 L 827 376 L 973 340" fill="none" id="make-me-a-hanzi-animation-4" stroke-dasharray="564 1128" stroke-linecap="round" />
    
      <clipPath id="make-me-a-hanzi-clip-5">
        <path d="M 525 329 Q 491 319 518 306 Q 560 288 613 305 L 702 331 Q 723 338 726 341 Q 733 348 728 357 Q 721 367 691 372 Q 670 375 589 344 Q 559 335 525 329 Z" />
      </clipPath>
      <path clip-path="url(#make-me-a-hanzi-clip-5)" d="M 519 318 L 584 319 L 673 347 L 718 350" fill="none" id="make-me-a-hanzi-animation-5" stroke-dasharray="331 662" stroke-linecap="round" />
    
      <clipPath id="make-me-a-hanzi-clip-6">
        <path d="M 477 146 L 517 88 Q 526 75 538 73 Q 547 72 553 81 Q 560 91 558 117 Q 555 144 482 186 Q 470 192 464 190 Q 460 189 458 178 Q 459 168 477 146 Z" />
      </clipPath>
      <path clip-path="url(#make-me-a-hanzi-clip-6)" d="M 468 181 L 532 114 L 539 88" fill="none" id="make-me-a-hanzi-animation-6" stroke-dasharray="248 496" stroke-linecap="round" />
    
      <clipPath id="make-me-a-hanzi-clip-7">
        <path d="M 558 224 Q 597 148 616 141 Q 626 137 635 151 Q 639 161 635 179 Q 628 212 567 245 Q 560 248 556 239 Q 553 232 558 224 Z" />
      </clipPath>
      <path clip-path="url(#make-me-a-hanzi-clip-7)" d="M 567 233 L 608 183 L 620 155" fill="none" id="make-me-a-hanzi-animation-7" stroke-dasharray="223 446" stroke-linecap="round" />
    
      <clipPath id="make-me-a-hanzi-clip-8">
        <path d="M 675 17 Q 708 74 743 152 Q 756 182 780 219 Q 795 232 785 242 Q 775 258 744 277 Q 731 287 713 280 Q 703 276 710 264 Q 722 222 668 85 Q 643 28 640 10 C 633 -19 660 -9 675 17 Z" />
      </clipPath>
      <path clip-path="url(#make-me-a-hanzi-clip-8)" d="M 716 271 L 730 263 L 747 232 L 688 81 L 665 32 L 646 12" fill="none" id="make-me-a-hanzi-animation-8" stroke-dasharray="423 846" stroke-linecap="round" />
    
      <clipPath id="make-me-a-hanzi-clip-9">
        <path d="M 640 10 Q 631 10 623 8 L 448 -18 Q 427 -19 443 -37 Q 474 -65 513 -56 Q 622 -29 843 -29 Q 862 -28 867 -20 Q 873 -8 856 6 Q 801 48 734 29 Q 707 25 675 17 L 640 10 Z" />
      </clipPath>
      <path clip-path="url(#make-me-a-hanzi-clip-9)" d="M 445 -27 L 492 -35 L 762 3 L 798 2 L 856 -14" fill="none" id="make-me-a-hanzi-animation-9" stroke-dasharray="545 1090" stroke-linecap="round" />
    
  </g>
</svg>