<svg xmlns="http://www.w3.org/2000/svg" version="1.1" viewBox="0 0 1024 1024">
  <g stroke="lightgray" stroke-dasharray="1,1" stroke-width="1" transform="scale(4, 4)">
    <line x1="0" y1="0" x2="256" y2="256" />
    <line x1="256" y1="0" x2="0" y2="256" />
    <line x1="128" y1="0" x2="128" y2="256" />
    <line x1="0" y1="128" x2="256" y2="128" />
  </g>
  <g transform="scale(1.0, -1.0) translate(0.0, -858.00)">
    <style type="text/css">
      
        @keyframes keyframes0 {
          from {
            stroke: blue;
            stroke-dashoffset: 787;
            stroke-width: 128;
          }
          72% {
            animation-timing-function: step-end;
            stroke: blue;
            stroke-dashoffset: 0;
            stroke-width: 128;
          }
          to {
            stroke: black;
            stroke-width: 1024;
          }
        }
        #make-me-a-hanzi-animation-0 {
          animation: keyframes0 0.8904622395833334s both;
          animation-delay: 0s;
          animation-timing-function: linear;
        }
      
        @keyframes keyframes1 {
          from {
            stroke: blue;
            stroke-dashoffset: 1133;
            stroke-width: 128;
          }
          79% {
            animation-timing-function: step-end;
            stroke: blue;
            stroke-dashoffset: 0;
            stroke-width: 128;
          }
          to {
            stroke: black;
            stroke-width: 1024;
          }
        }
        #make-me-a-hanzi-animation-1 {
          animation: keyframes1 1.1720377604166667s both;
          animation-delay: 0.8904622395833334s;
          animation-timing-function: linear;
        }
      
        @keyframes keyframes2 {
          from {
            stroke: blue;
            stroke-dashoffset: 527;
            stroke-width: 128;
          }
          63% {
            animation-timing-function: step-end;
            stroke: blue;
            stroke-dashoffset: 0;
            stroke-width: 128;
          }
          to {
            stroke: black;
            stroke-width: 1024;
          }
        }
        #make-me-a-hanzi-animation-2 {
          animation: keyframes2 0.6788736979166666s both;
          animation-delay: 2.0625s;
          animation-timing-function: linear;
        }
      
        @keyframes keyframes3 {
          from {
            stroke: blue;
            stroke-dashoffset: 390;
            stroke-width: 128;
          }
          56% {
            animation-timing-function: step-end;
            stroke: blue;
            stroke-dashoffset: 0;
            stroke-width: 128;
          }
          to {
            stroke: black;
            stroke-width: 1024;
          }
        }
        #make-me-a-hanzi-animation-3 {
          animation: keyframes3 0.5673828125s both;
          animation-delay: 2.7413736979166665s;
          animation-timing-function: linear;
        }
      
        @keyframes keyframes4 {
          from {
            stroke: blue;
            stroke-dashoffset: 602;
            stroke-width: 128;
          }
          66% {
            animation-timing-function: step-end;
            stroke: blue;
            stroke-dashoffset: 0;
            stroke-width: 128;
          }
          to {
            stroke: black;
            stroke-width: 1024;
          }
        }
        #make-me-a-hanzi-animation-4 {
          animation: keyframes4 0.7399088541666666s both;
          animation-delay: 3.3087565104166665s;
          animation-timing-function: linear;
        }
      
        @keyframes keyframes5 {
          from {
            stroke: blue;
            stroke-dashoffset: 499;
            stroke-width: 128;
          }
          62% {
            animation-timing-function: step-end;
            stroke: blue;
            stroke-dashoffset: 0;
            stroke-width: 128;
          }
          to {
            stroke: black;
            stroke-width: 1024;
          }
        }
        #make-me-a-hanzi-animation-5 {
          animation: keyframes5 0.6560872395833334s both;
          animation-delay: 4.048665364583333s;
          animation-timing-function: linear;
        }
      
        @keyframes keyframes6 {
          from {
            stroke: blue;
            stroke-dashoffset: 777;
            stroke-width: 128;
          }
          72% {
            animation-timing-function: step-end;
            stroke: blue;
            stroke-dashoffset: 0;
            stroke-width: 128;
          }
          to {
            stroke: black;
            stroke-width: 1024;
          }
        }
        #make-me-a-hanzi-animation-6 {
          animation: keyframes6 0.88232421875s both;
          animation-delay: 4.704752604166666s;
          animation-timing-function: linear;
        }
      
        @keyframes keyframes7 {
          from {
            stroke: blue;
            stroke-dashoffset: 523;
            stroke-width: 128;
          }
          63% {
            animation-timing-function: step-end;
            stroke: blue;
            stroke-dashoffset: 0;
            stroke-width: 128;
          }
          to {
            stroke: black;
            stroke-width: 1024;
          }
        }
        #make-me-a-hanzi-animation-7 {
          animation: keyframes7 0.6756184895833334s both;
          animation-delay: 5.587076822916666s;
          animation-timing-function: linear;
        }
      
        @keyframes keyframes8 {
          from {
            stroke: blue;
            stroke-dashoffset: 975;
            stroke-width: 128;
          }
          76% {
            animation-timing-function: step-end;
            stroke: blue;
            stroke-dashoffset: 0;
            stroke-width: 128;
          }
          to {
            stroke: black;
            stroke-width: 1024;
          }
        }
        #make-me-a-hanzi-animation-8 {
          animation: keyframes8 1.04345703125s both;
          animation-delay: 6.262695312499999s;
          animation-timing-function: linear;
        }
      
        @keyframes keyframes9 {
          from {
            stroke: blue;
            stroke-dashoffset: 490;
            stroke-width: 128;
          }
          61% {
            animation-timing-function: step-end;
            stroke: blue;
            stroke-dashoffset: 0;
            stroke-width: 128;
          }
          to {
            stroke: black;
            stroke-width: 1024;
          }
        }
        #make-me-a-hanzi-animation-9 {
          animation: keyframes9 0.6487630208333334s both;
          animation-delay: 7.306152343749999s;
          animation-timing-function: linear;
        }
      
        @keyframes keyframes10 {
          from {
            stroke: blue;
            stroke-dashoffset: 462;
            stroke-width: 128;
          }
          60% {
            animation-timing-function: step-end;
            stroke: blue;
            stroke-dashoffset: 0;
            stroke-width: 128;
          }
          to {
            stroke: black;
            stroke-width: 1024;
          }
        }
        #make-me-a-hanzi-animation-10 {
          animation: keyframes10 0.6259765625s both;
          animation-delay: 7.954915364583332s;
          animation-timing-function: linear;
        }
      
        @keyframes keyframes11 {
          from {
            stroke: blue;
            stroke-dashoffset: 538;
            stroke-width: 128;
          }
          64% {
            animation-timing-function: step-end;
            stroke: blue;
            stroke-dashoffset: 0;
            stroke-width: 128;
          }
          to {
            stroke: black;
            stroke-width: 1024;
          }
        }
        #make-me-a-hanzi-animation-11 {
          animation: keyframes11 0.6878255208333334s both;
          animation-delay: 8.580891927083332s;
          animation-timing-function: linear;
        }
      
    </style>
    
      <path d="M 349 368 Q 365 407 381 538 Q 391 587 423 618 Q 439 634 423 648 Q 405 661 357 682 Q 345 686 292 671 Q 250 661 214 647 Q 180 634 157 629 Q 141 628 139 622 Q 136 618 153 608 Q 187 595 205 603 Q 238 618 314 636 Q 327 639 333 637 Q 348 630 342 585 Q 321 422 309 388 Q 303 364 312 353 C 322 325 339 340 349 368 Z" fill="lightgray" />
    
      <path d="M 312 353 Q 290 350 246 335 Q 221 331 220 352 Q 223 481 235 507 Q 241 523 234 533 Q 219 549 196 559 Q 180 565 172 557 Q 166 553 173 542 Q 185 517 175 359 Q 172 341 168 325 Q 161 306 175 292 Q 193 276 211 286 Q 232 307 316 320 Q 347 324 360 312 Q 373 302 361 258 Q 346 101 317 57 Q 310 48 291 52 L 236 69 Q 223 73 223 67 Q 222 63 230 55 Q 276 6 292 -26 Q 299 -45 316 -36 Q 338 -26 357 -10 Q 379 18 385 56 Q 401 141 412 234 Q 419 270 437 299 Q 449 314 438 326 Q 422 345 386 365 Q 368 375 349 368 L 312 353 Z" fill="lightgray" />
    
      <path d="M 72 155 Q 59 152 59 142 Q 58 129 68 121 Q 93 108 128 94 Q 138 93 149 102 Q 156 111 283 200 Q 299 210 310 223 Q 322 232 321 241 Q 315 245 303 241 Q 218 204 109 162 Q 96 156 72 155 Z" fill="lightgray" />
    
      <path d="M 628 689 Q 655 670 684 646 Q 699 634 714 637 Q 724 638 729 652 Q 732 668 720 696 Q 713 715 682 725 Q 604 743 596 735 Q 592 731 594 718 Q 598 708 628 689 Z" fill="lightgray" />
    
      <path d="M 783 450 Q 804 517 833 538 Q 846 554 833 570 Q 769 622 714 591 Q 666 573 574 548 C 545 540 551 514 580 520 Q 589 521 726 556 Q 742 560 748 555 Q 755 548 754 534 Q 747 486 735 448 C 726 419 774 421 783 450 Z" fill="lightgray" />
    
      <path d="M 562 382 Q 563 382 566 381 Q 576 378 588 381 Q 655 399 801 415 Q 811 416 812 425 Q 813 432 784 450 L 783 450 L 735 448 Q 639 424 566 411 C 536 406 533 389 562 382 Z" fill="lightgray" />
    
      <path d="M 536 275 Q 552 326 562 382 L 566 411 Q 567 429 570 446 Q 576 507 580 520 C 584 541 584 541 574 548 Q 561 558 542 567 Q 526 576 516 572 Q 506 566 512 555 Q 540 509 504 307 L 490 257 Q 465 179 409 94 Q 405 88 404 84 Q 401 74 410 77 Q 444 84 505 194 Q 511 209 518 223 L 536 275 Z" fill="lightgray" />
    
      <path d="M 518 223 Q 531 180 515 50 Q 506 14 541 -11 Q 551 -18 554 -10 Q 560 -7 562 10 Q 566 26 563 85 Q 559 187 563 223 Q 564 232 563 240 C 560 302 500 298 518 223 Z" fill="lightgray" />
    
      <path d="M 563 240 Q 572 247 616 259 L 645 268 Q 678 280 715 283 L 759 290 Q 840 305 857 290 Q 864 283 861 270 Q 865 74 852 44 Q 849 35 838 38 Q 819 38 797 39 Q 773 40 791 26 Q 842 -11 864 -38 Q 876 -51 888 -40 Q 904 -22 910 5 Q 919 33 911 187 Q 907 244 922 273 Q 935 292 929 298 Q 922 308 877 335 Q 861 347 848 341 Q 823 331 779 321 Q 646 302 595 288 Q 561 281 536 275 C 507 268 536 228 563 240 Z" fill="lightgray" />
    
      <path d="M 764 155 Q 794 161 824 164 Q 843 167 837 178 Q 828 190 807 194 Q 791 198 765 191 L 723 182 Q 690 176 663 169 L 629 161 Q 610 158 590 154 Q 577 151 593 139 Q 602 130 629 134 L 663 139 Q 693 145 723 149 L 764 155 Z" fill="lightgray" />
    
      <path d="M 616 259 L 617 258 Q 627 218 629 161 L 629 134 Q 629 74 638 59 Q 648 40 653 51 Q 662 69 663 139 L 663 169 Q 663 229 665 243 Q 666 253 663 258 Q 659 262 645 268 C 618 280 607 285 616 259 Z" fill="lightgray" />
    
      <path d="M 725 35 Q 728 17 733 10 Q 737 6 742 7 Q 755 20 764 155 L 765 191 Q 766 231 774 266 Q 775 279 766 285 Q 762 288 759 290 C 735 307 705 311 715 283 Q 715 282 716 280 Q 722 271 723 182 L 723 149 Q 723 62 725 35 Z" fill="lightgray" />
    
    
      <clipPath id="make-me-a-hanzi-clip-0">
        <path d="M 349 368 Q 365 407 381 538 Q 391 587 423 618 Q 439 634 423 648 Q 405 661 357 682 Q 345 686 292 671 Q 250 661 214 647 Q 180 634 157 629 Q 141 628 139 622 Q 136 618 153 608 Q 187 595 205 603 Q 238 618 314 636 Q 327 639 333 637 Q 348 630 342 585 Q 321 422 309 388 Q 303 364 312 353 C 322 325 339 340 349 368 Z" />
      </clipPath>
      <path clip-path="url(#make-me-a-hanzi-clip-0)" d="M 145 621 L 189 618 L 324 659 L 350 657 L 381 629 L 358 546 L 338 407 L 316 361" fill="none" id="make-me-a-hanzi-animation-0" stroke-dasharray="659 1318" stroke-linecap="round" />
    
      <clipPath id="make-me-a-hanzi-clip-1">
        <path d="M 312 353 Q 290 350 246 335 Q 221 331 220 352 Q 223 481 235 507 Q 241 523 234 533 Q 219 549 196 559 Q 180 565 172 557 Q 166 553 173 542 Q 185 517 175 359 Q 172 341 168 325 Q 161 306 175 292 Q 193 276 211 286 Q 232 307 316 320 Q 347 324 360 312 Q 373 302 361 258 Q 346 101 317 57 Q 310 48 291 52 L 236 69 Q 223 73 223 67 Q 222 63 230 55 Q 276 6 292 -26 Q 299 -45 316 -36 Q 338 -26 357 -10 Q 379 18 385 56 Q 401 141 412 234 Q 419 270 437 299 Q 449 314 438 326 Q 422 345 386 365 Q 368 375 349 368 L 312 353 Z" />
      </clipPath>
      <path clip-path="url(#make-me-a-hanzi-clip-1)" d="M 181 550 L 203 527 L 207 514 L 196 349 L 200 319 L 244 319 L 361 343 L 378 336 L 402 311 L 385 244 L 364 97 L 337 25 L 317 12 L 230 63" fill="none" id="make-me-a-hanzi-animation-1" stroke-dasharray="1005 2010" stroke-linecap="round" />
    
      <clipPath id="make-me-a-hanzi-clip-2">
        <path d="M 72 155 Q 59 152 59 142 Q 58 129 68 121 Q 93 108 128 94 Q 138 93 149 102 Q 156 111 283 200 Q 299 210 310 223 Q 322 232 321 241 Q 315 245 303 241 Q 218 204 109 162 Q 96 156 72 155 Z" />
      </clipPath>
      <path clip-path="url(#make-me-a-hanzi-clip-2)" d="M 73 141 L 129 132 L 316 237" fill="none" id="make-me-a-hanzi-animation-2" stroke-dasharray="399 798" stroke-linecap="round" />
    
      <clipPath id="make-me-a-hanzi-clip-3">
        <path d="M 628 689 Q 655 670 684 646 Q 699 634 714 637 Q 724 638 729 652 Q 732 668 720 696 Q 713 715 682 725 Q 604 743 596 735 Q 592 731 594 718 Q 598 708 628 689 Z" />
      </clipPath>
      <path clip-path="url(#make-me-a-hanzi-clip-3)" d="M 601 729 L 679 692 L 710 656" fill="none" id="make-me-a-hanzi-animation-3" stroke-dasharray="262 524" stroke-linecap="round" />
    
      <clipPath id="make-me-a-hanzi-clip-4">
        <path d="M 783 450 Q 804 517 833 538 Q 846 554 833 570 Q 769 622 714 591 Q 666 573 574 548 C 545 540 551 514 580 520 Q 589 521 726 556 Q 742 560 748 555 Q 755 548 754 534 Q 747 486 735 448 C 726 419 774 421 783 450 Z" />
      </clipPath>
      <path clip-path="url(#make-me-a-hanzi-clip-4)" d="M 580 527 L 604 542 L 740 580 L 762 577 L 792 552 L 764 470 L 741 453" fill="none" id="make-me-a-hanzi-animation-4" stroke-dasharray="474 948" stroke-linecap="round" />
    
      <clipPath id="make-me-a-hanzi-clip-5">
        <path d="M 562 382 Q 563 382 566 381 Q 576 378 588 381 Q 655 399 801 415 Q 811 416 812 425 Q 813 432 784 450 L 783 450 L 735 448 Q 639 424 566 411 C 536 406 533 389 562 382 Z" />
      </clipPath>
      <path clip-path="url(#make-me-a-hanzi-clip-5)" d="M 566 389 L 589 399 L 742 429 L 778 432 L 803 424" fill="none" id="make-me-a-hanzi-animation-5" stroke-dasharray="371 742" stroke-linecap="round" />
    
      <clipPath id="make-me-a-hanzi-clip-6">
        <path d="M 536 275 Q 552 326 562 382 L 566 411 Q 567 429 570 446 Q 576 507 580 520 C 584 541 584 541 574 548 Q 561 558 542 567 Q 526 576 516 572 Q 506 566 512 555 Q 540 509 504 307 L 490 257 Q 465 179 409 94 Q 405 88 404 84 Q 401 74 410 77 Q 444 84 505 194 Q 511 209 518 223 L 536 275 Z" />
      </clipPath>
      <path clip-path="url(#make-me-a-hanzi-clip-6)" d="M 521 562 L 539 546 L 551 520 L 541 392 L 524 302 L 499 223 L 475 171 L 437 112 L 411 84" fill="none" id="make-me-a-hanzi-animation-6" stroke-dasharray="649 1298" stroke-linecap="round" />
    
      <clipPath id="make-me-a-hanzi-clip-7">
        <path d="M 518 223 Q 531 180 515 50 Q 506 14 541 -11 Q 551 -18 554 -10 Q 560 -7 562 10 Q 566 26 563 85 Q 559 187 563 223 Q 564 232 563 240 C 560 302 500 298 518 223 Z" />
      </clipPath>
      <path clip-path="url(#make-me-a-hanzi-clip-7)" d="M 538 267 L 543 234 L 539 33 L 547 1" fill="none" id="make-me-a-hanzi-animation-7" stroke-dasharray="395 790" stroke-linecap="round" />
    
      <clipPath id="make-me-a-hanzi-clip-8">
        <path d="M 563 240 Q 572 247 616 259 L 645 268 Q 678 280 715 283 L 759 290 Q 840 305 857 290 Q 864 283 861 270 Q 865 74 852 44 Q 849 35 838 38 Q 819 38 797 39 Q 773 40 791 26 Q 842 -11 864 -38 Q 876 -51 888 -40 Q 904 -22 910 5 Q 919 33 911 187 Q 907 244 922 273 Q 935 292 929 298 Q 922 308 877 335 Q 861 347 848 341 Q 823 331 779 321 Q 646 302 595 288 Q 561 281 536 275 C 507 268 536 228 563 240 Z" />
      </clipPath>
      <path clip-path="url(#make-me-a-hanzi-clip-8)" d="M 544 272 L 569 263 L 729 301 L 853 318 L 875 309 L 893 287 L 885 210 L 887 72 L 880 26 L 871 10 L 803 28" fill="none" id="make-me-a-hanzi-animation-8" stroke-dasharray="847 1694" stroke-linecap="round" />
    
      <clipPath id="make-me-a-hanzi-clip-9">
        <path d="M 764 155 Q 794 161 824 164 Q 843 167 837 178 Q 828 190 807 194 Q 791 198 765 191 L 723 182 Q 690 176 663 169 L 629 161 Q 610 158 590 154 Q 577 151 593 139 Q 602 130 629 134 L 663 139 Q 693 145 723 149 L 764 155 Z" />
      </clipPath>
      <path clip-path="url(#make-me-a-hanzi-clip-9)" d="M 598 148 L 620 145 L 789 178 L 828 174" fill="none" id="make-me-a-hanzi-animation-9" stroke-dasharray="362 724" stroke-linecap="round" />
    
      <clipPath id="make-me-a-hanzi-clip-10">
        <path d="M 616 259 L 617 258 Q 627 218 629 161 L 629 134 Q 629 74 638 59 Q 648 40 653 51 Q 662 69 663 139 L 663 169 Q 663 229 665 243 Q 666 253 663 258 Q 659 262 645 268 C 618 280 607 285 616 259 Z" />
      </clipPath>
      <path clip-path="url(#make-me-a-hanzi-clip-10)" d="M 627 254 L 643 241 L 646 56" fill="none" id="make-me-a-hanzi-animation-10" stroke-dasharray="334 668" stroke-linecap="round" />
    
      <clipPath id="make-me-a-hanzi-clip-11">
        <path d="M 725 35 Q 728 17 733 10 Q 737 6 742 7 Q 755 20 764 155 L 765 191 Q 766 231 774 266 Q 775 279 766 285 Q 762 288 759 290 C 735 307 705 311 715 283 Q 715 282 716 280 Q 722 271 723 182 L 723 149 Q 723 62 725 35 Z" />
      </clipPath>
      <path clip-path="url(#make-me-a-hanzi-clip-11)" d="M 722 284 L 746 261 L 739 12" fill="none" id="make-me-a-hanzi-animation-11" stroke-dasharray="410 820" stroke-linecap="round" />
    
  </g>
</svg>