<svg xmlns="http://www.w3.org/2000/svg" version="1.1" viewBox="0 0 1024 1024">
  <g stroke="lightgray" stroke-dasharray="1,1" stroke-width="1" transform="scale(4, 4)">
    <line x1="0" y1="0" x2="256" y2="256" />
    <line x1="256" y1="0" x2="0" y2="256" />
    <line x1="128" y1="0" x2="128" y2="256" />
    <line x1="0" y1="128" x2="256" y2="128" />
  </g>
  <g transform="scale(1.0, -1.0) translate(0.0, -817.00)">
    <style type="text/css">
      
        @keyframes keyframes0 {
          from {
            stroke: blue;
            stroke-dashoffset: 595;
            stroke-width: 128;
          }
          66% {
            animation-timing-function: step-end;
            stroke: blue;
            stroke-dashoffset: 0;
            stroke-width: 128;
          }
          to {
            stroke: black;
            stroke-width: 1024;
          }
        }
        #make-me-a-hanzi-animation-0 {
          animation: keyframes0 0.7342122395833334s both;
          animation-delay: 0s;
          animation-timing-function: linear;
        }
      
        @keyframes keyframes1 {
          from {
            stroke: blue;
            stroke-dashoffset: 325;
            stroke-width: 128;
          }
          51% {
            animation-timing-function: step-end;
            stroke: blue;
            stroke-dashoffset: 0;
            stroke-width: 128;
          }
          to {
            stroke: black;
            stroke-width: 1024;
          }
        }
        #make-me-a-hanzi-animation-1 {
          animation: keyframes1 0.5144856770833334s both;
          animation-delay: 0.7342122395833334s;
          animation-timing-function: linear;
        }
      
        @keyframes keyframes2 {
          from {
            stroke: blue;
            stroke-dashoffset: 666;
            stroke-width: 128;
          }
          68% {
            animation-timing-function: step-end;
            stroke: blue;
            stroke-dashoffset: 0;
            stroke-width: 128;
          }
          to {
            stroke: black;
            stroke-width: 1024;
          }
        }
        #make-me-a-hanzi-animation-2 {
          animation: keyframes2 0.7919921875s both;
          animation-delay: 1.2486979166666667s;
          animation-timing-function: linear;
        }
      
        @keyframes keyframes3 {
          from {
            stroke: blue;
            stroke-dashoffset: 496;
            stroke-width: 128;
          }
          62% {
            animation-timing-function: step-end;
            stroke: blue;
            stroke-dashoffset: 0;
            stroke-width: 128;
          }
          to {
            stroke: black;
            stroke-width: 1024;
          }
        }
        #make-me-a-hanzi-animation-3 {
          animation: keyframes3 0.6536458333333334s both;
          animation-delay: 2.040690104166667s;
          animation-timing-function: linear;
        }
      
        @keyframes keyframes4 {
          from {
            stroke: blue;
            stroke-dashoffset: 541;
            stroke-width: 128;
          }
          64% {
            animation-timing-function: step-end;
            stroke: blue;
            stroke-dashoffset: 0;
            stroke-width: 128;
          }
          to {
            stroke: black;
            stroke-width: 1024;
          }
        }
        #make-me-a-hanzi-animation-4 {
          animation: keyframes4 0.6902669270833334s both;
          animation-delay: 2.6943359375000004s;
          animation-timing-function: linear;
        }
      
        @keyframes keyframes5 {
          from {
            stroke: blue;
            stroke-dashoffset: 476;
            stroke-width: 128;
          }
          61% {
            animation-timing-function: step-end;
            stroke: blue;
            stroke-dashoffset: 0;
            stroke-width: 128;
          }
          to {
            stroke: black;
            stroke-width: 1024;
          }
        }
        #make-me-a-hanzi-animation-5 {
          animation: keyframes5 0.6373697916666666s both;
          animation-delay: 3.384602864583334s;
          animation-timing-function: linear;
        }
      
        @keyframes keyframes6 {
          from {
            stroke: blue;
            stroke-dashoffset: 500;
            stroke-width: 128;
          }
          62% {
            animation-timing-function: step-end;
            stroke: blue;
            stroke-dashoffset: 0;
            stroke-width: 128;
          }
          to {
            stroke: black;
            stroke-width: 1024;
          }
        }
        #make-me-a-hanzi-animation-6 {
          animation: keyframes6 0.6569010416666666s both;
          animation-delay: 4.021972656250001s;
          animation-timing-function: linear;
        }
      
        @keyframes keyframes7 {
          from {
            stroke: blue;
            stroke-dashoffset: 581;
            stroke-width: 128;
          }
          65% {
            animation-timing-function: step-end;
            stroke: blue;
            stroke-dashoffset: 0;
            stroke-width: 128;
          }
          to {
            stroke: black;
            stroke-width: 1024;
          }
        }
        #make-me-a-hanzi-animation-7 {
          animation: keyframes7 0.7228190104166666s both;
          animation-delay: 4.678873697916668s;
          animation-timing-function: linear;
        }
      
        @keyframes keyframes8 {
          from {
            stroke: blue;
            stroke-dashoffset: 674;
            stroke-width: 128;
          }
          69% {
            animation-timing-function: step-end;
            stroke: blue;
            stroke-dashoffset: 0;
            stroke-width: 128;
          }
          to {
            stroke: black;
            stroke-width: 1024;
          }
        }
        #make-me-a-hanzi-animation-8 {
          animation: keyframes8 0.7985026041666666s both;
          animation-delay: 5.401692708333335s;
          animation-timing-function: linear;
        }
      
        @keyframes keyframes9 {
          from {
            stroke: blue;
            stroke-dashoffset: 651;
            stroke-width: 128;
          }
          68% {
            animation-timing-function: step-end;
            stroke: blue;
            stroke-dashoffset: 0;
            stroke-width: 128;
          }
          to {
            stroke: black;
            stroke-width: 1024;
          }
        }
        #make-me-a-hanzi-animation-9 {
          animation: keyframes9 0.77978515625s both;
          animation-delay: 6.200195312500002s;
          animation-timing-function: linear;
        }
      
        @keyframes keyframes10 {
          from {
            stroke: blue;
            stroke-dashoffset: 1144;
            stroke-width: 128;
          }
          79% {
            animation-timing-function: step-end;
            stroke: blue;
            stroke-dashoffset: 0;
            stroke-width: 128;
          }
          to {
            stroke: black;
            stroke-width: 1024;
          }
        }
        #make-me-a-hanzi-animation-10 {
          animation: keyframes10 1.1809895833333333s both;
          animation-delay: 6.979980468750002s;
          animation-timing-function: linear;
        }
      
        @keyframes keyframes11 {
          from {
            stroke: blue;
            stroke-dashoffset: 748;
            stroke-width: 128;
          }
          71% {
            animation-timing-function: step-end;
            stroke: blue;
            stroke-dashoffset: 0;
            stroke-width: 128;
          }
          to {
            stroke: black;
            stroke-width: 1024;
          }
        }
        #make-me-a-hanzi-animation-11 {
          animation: keyframes11 0.8587239583333334s both;
          animation-delay: 8.160970052083336s;
          animation-timing-function: linear;
        }
      
    </style>
    
      <path d="M 390 595 Q 471 658 496 665 Q 511 669 506 682 Q 505 695 453 724 Q 438 731 366 707 Q 288 686 247 687 Q 229 688 235 672 Q 241 662 256 653 Q 278 640 305 655 L 401 690 Q 411 694 421 688 Q 430 682 425 672 Q 403 641 379 602 C 363 577 366 577 390 595 Z" fill="lightgray" />
    
      <path d="M 400 569 Q 397 587 390 595 L 379 602 Q 367 614 333 619 Q 326 620 326 612 Q 323 605 361 566 Q 365 562 369 559 C 393 540 405 539 400 569 Z" fill="lightgray" />
    
      <path d="M 504 569 Q 464 591 403 570 Q 402 570 400 569 L 369 559 Q 327 552 325 548 Q 324 549 322 548 Q 258 535 167 520 Q 145 517 162 500 Q 175 485 211 496 Q 263 511 317 522 L 374 534 Q 396 543 423 546 Q 448 550 450 539 Q 451 529 432 488 Q 425 476 431 473 Q 437 470 446 479 Q 501 519 525 528 Q 541 532 541 542 Q 540 549 516 562 L 504 569 Z" fill="lightgray" />
    
      <path d="M 361 514 Q 373 471 362 418 Q 358 399 353 396 Q 347 393 297 397 Q 290 398 285 396 Q 281 395 293 387 Q 327 356 345 330 Q 358 317 370 323 Q 386 332 398 370 Q 408 398 407 449 Q 408 483 401 499 Q 391 518 375 530 Q 375 533 374 534 C 358 559 354 543 361 514 Z" fill="lightgray" />
    
      <path d="M 317 522 Q 269 444 145 361 Q 132 352 144 350 Q 172 347 246 390 L 309 446 Q 312 452 361 514 C 382 540 361 591 317 522 Z" fill="lightgray" />
    
      <path d="M 573 620 Q 595 645 618 683 Q 627 701 636 709 Q 643 716 638 727 Q 634 736 613 751 Q 592 764 578 762 Q 565 761 572 744 Q 579 734 576 722 Q 561 664 511 579 Q 505 575 504 569 C 491 543 492 544 516 562 Q 540 580 563 608 L 573 620 Z" fill="lightgray" />
    
      <path d="M 709 602 Q 746 612 786 619 Q 814 626 819 630 Q 826 637 823 645 Q 816 655 790 662 Q 762 668 735 656 Q 663 632 580 622 Q 574 622 573 620 C 556 615 556 615 563 608 Q 567 599 605 589 Q 632 585 660 592 Q 664 593 672 594 L 709 602 Z" fill="lightgray" />
    
      <path d="M 676 470 Q 710 539 729 558 Q 739 570 730 580 Q 721 592 709 602 C 687 622 672 624 672 594 Q 675 561 642 498 L 625 470 Q 574 412 492 383 Q 480 379 489 374 Q 528 364 587 391 Q 603 398 653 439 L 676 470 Z" fill="lightgray" />
    
      <path d="M 653 439 Q 752 340 775 336 Q 839 336 900 348 Q 928 352 925 360 L 735 430 Q 705 448 676 470 L 642 498 Q 600 540 569 539 Q 556 539 552 535 Q 551 529 564 522 Q 582 513 625 470 L 653 439 Z" fill="lightgray" />
    
      <path d="M 591 154 Q 598 169 609 205 Q 619 251 649 281 Q 665 296 650 309 Q 632 322 587 342 Q 569 351 442 314 Q 406 304 383 300 Q 367 299 366 294 Q 362 290 378 280 Q 408 265 427 273 Q 461 285 542 298 Q 557 299 562 298 Q 569 294 567 272 Q 560 190 554 174 Q 550 161 553 148 C 556 118 579 126 591 154 Z" fill="lightgray" />
    
      <path d="M 409 76 Q 434 92 484 104 Q 589 131 700 138 Q 728 139 739 128 Q 749 118 737 79 Q 718 -18 697 -44 Q 690 -54 669 -51 L 617 -32 Q 604 -26 602 -33 Q 602 -37 609 -46 Q 651 -98 664 -133 Q 670 -154 688 -146 Q 745 -122 759 -76 Q 775 -18 790 49 Q 799 85 817 114 Q 830 129 819 142 Q 803 161 768 183 Q 749 195 721 184 Q 673 165 630 160 Q 611 159 591 154 L 553 148 Q 502 141 441 127 Q 425 120 419 134 Q 426 182 436 195 Q 443 208 439 219 Q 427 235 406 248 Q 391 255 383 250 Q 377 246 383 235 Q 392 211 369 121 Q 368 120 367 116 Q 360 97 373 82 Q 389 66 409 76 Z" fill="lightgray" />
    
      <path d="M 422 1 Q 453 2 483 6 Q 537 13 645 8 Q 664 7 670 13 Q 676 25 666 34 Q 641 56 604 72 Q 591 76 570 69 Q 393 29 187 16 Q 183 17 179 16 Q 167 16 167 7 Q 166 -3 182 -15 Q 197 -25 223 -34 Q 232 -37 247 -30 Q 298 -12 422 1 Z" fill="lightgray" />
    
    
      <clipPath id="make-me-a-hanzi-clip-0">
        <path d="M 390 595 Q 471 658 496 665 Q 511 669 506 682 Q 505 695 453 724 Q 438 731 366 707 Q 288 686 247 687 Q 229 688 235 672 Q 241 662 256 653 Q 278 640 305 655 L 401 690 Q 411 694 421 688 Q 430 682 425 672 Q 403 641 379 602 C 363 577 366 577 390 595 Z" />
      </clipPath>
      <path clip-path="url(#make-me-a-hanzi-clip-0)" d="M 243 678 L 282 668 L 404 705 L 444 700 L 459 682 L 399 616 L 397 606 L 389 605" fill="none" id="make-me-a-hanzi-animation-0" stroke-dasharray="467 934" stroke-linecap="round" />
    
      <clipPath id="make-me-a-hanzi-clip-1">
        <path d="M 400 569 Q 397 587 390 595 L 379 602 Q 367 614 333 619 Q 326 620 326 612 Q 323 605 361 566 Q 365 562 369 559 C 393 540 405 539 400 569 Z" />
      </clipPath>
      <path clip-path="url(#make-me-a-hanzi-clip-1)" d="M 334 611 L 365 586 L 392 575" fill="none" id="make-me-a-hanzi-animation-1" stroke-dasharray="197 394" stroke-linecap="round" />
    
      <clipPath id="make-me-a-hanzi-clip-2">
        <path d="M 504 569 Q 464 591 403 570 Q 402 570 400 569 L 369 559 Q 327 552 325 548 Q 324 549 322 548 Q 258 535 167 520 Q 145 517 162 500 Q 175 485 211 496 Q 263 511 317 522 L 374 534 Q 396 543 423 546 Q 448 550 450 539 Q 451 529 432 488 Q 425 476 431 473 Q 437 470 446 479 Q 501 519 525 528 Q 541 532 541 542 Q 540 549 516 562 L 504 569 Z" />
      </clipPath>
      <path clip-path="url(#make-me-a-hanzi-clip-2)" d="M 164 510 L 199 509 L 445 564 L 483 543 L 434 480" fill="none" id="make-me-a-hanzi-animation-2" stroke-dasharray="538 1076" stroke-linecap="round" />
    
      <clipPath id="make-me-a-hanzi-clip-3">
        <path d="M 361 514 Q 373 471 362 418 Q 358 399 353 396 Q 347 393 297 397 Q 290 398 285 396 Q 281 395 293 387 Q 327 356 345 330 Q 358 317 370 323 Q 386 332 398 370 Q 408 398 407 449 Q 408 483 401 499 Q 391 518 375 530 Q 375 533 374 534 C 358 559 354 543 361 514 Z" />
      </clipPath>
      <path clip-path="url(#make-me-a-hanzi-clip-3)" d="M 376 521 L 388 457 L 380 393 L 369 371 L 356 365 L 291 394" fill="none" id="make-me-a-hanzi-animation-3" stroke-dasharray="368 736" stroke-linecap="round" />
    
      <clipPath id="make-me-a-hanzi-clip-4">
        <path d="M 317 522 Q 269 444 145 361 Q 132 352 144 350 Q 172 347 246 390 L 309 446 Q 312 452 361 514 C 382 540 361 591 317 522 Z" />
      </clipPath>
      <path clip-path="url(#make-me-a-hanzi-clip-4)" d="M 367 531 L 329 505 L 291 455 L 228 398 L 148 355" fill="none" id="make-me-a-hanzi-animation-4" stroke-dasharray="413 826" stroke-linecap="round" />
    
      <clipPath id="make-me-a-hanzi-clip-5">
        <path d="M 573 620 Q 595 645 618 683 Q 627 701 636 709 Q 643 716 638 727 Q 634 736 613 751 Q 592 764 578 762 Q 565 761 572 744 Q 579 734 576 722 Q 561 664 511 579 Q 505 575 504 569 C 491 543 492 544 516 562 Q 540 580 563 608 L 573 620 Z" />
      </clipPath>
      <path clip-path="url(#make-me-a-hanzi-clip-5)" d="M 579 752 L 597 737 L 606 719 L 571 648 L 513 570" fill="none" id="make-me-a-hanzi-animation-5" stroke-dasharray="348 696" stroke-linecap="round" />
    
      <clipPath id="make-me-a-hanzi-clip-6">
        <path d="M 709 602 Q 746 612 786 619 Q 814 626 819 630 Q 826 637 823 645 Q 816 655 790 662 Q 762 668 735 656 Q 663 632 580 622 Q 574 622 573 620 C 556 615 556 615 563 608 Q 567 599 605 589 Q 632 585 660 592 Q 664 593 672 594 L 709 602 Z" />
      </clipPath>
      <path clip-path="url(#make-me-a-hanzi-clip-6)" d="M 572 611 L 598 606 L 637 609 L 750 637 L 812 640" fill="none" id="make-me-a-hanzi-animation-6" stroke-dasharray="372 744" stroke-linecap="round" />
    
      <clipPath id="make-me-a-hanzi-clip-7">
        <path d="M 676 470 Q 710 539 729 558 Q 739 570 730 580 Q 721 592 709 602 C 687 622 672 624 672 594 Q 675 561 642 498 L 625 470 Q 574 412 492 383 Q 480 379 489 374 Q 528 364 587 391 Q 603 398 653 439 L 676 470 Z" />
      </clipPath>
      <path clip-path="url(#make-me-a-hanzi-clip-7)" d="M 680 589 L 700 570 L 663 488 L 641 456 L 573 402 L 495 377" fill="none" id="make-me-a-hanzi-animation-7" stroke-dasharray="453 906" stroke-linecap="round" />
    
      <clipPath id="make-me-a-hanzi-clip-8">
        <path d="M 653 439 Q 752 340 775 336 Q 839 336 900 348 Q 928 352 925 360 L 735 430 Q 705 448 676 470 L 642 498 Q 600 540 569 539 Q 556 539 552 535 Q 551 529 564 522 Q 582 513 625 470 L 653 439 Z" />
      </clipPath>
      <path clip-path="url(#make-me-a-hanzi-clip-8)" d="M 557 533 L 582 525 L 613 505 L 675 442 L 783 373 L 900 360 L 909 354 L 917 360" fill="none" id="make-me-a-hanzi-animation-8" stroke-dasharray="546 1092" stroke-linecap="round" />
    
      <clipPath id="make-me-a-hanzi-clip-9">
        <path d="M 591 154 Q 598 169 609 205 Q 619 251 649 281 Q 665 296 650 309 Q 632 322 587 342 Q 569 351 442 314 Q 406 304 383 300 Q 367 299 366 294 Q 362 290 378 280 Q 408 265 427 273 Q 461 285 542 298 Q 557 299 562 298 Q 569 294 567 272 Q 560 190 554 174 Q 550 161 553 148 C 556 118 579 126 591 154 Z" />
      </clipPath>
      <path clip-path="url(#make-me-a-hanzi-clip-9)" d="M 372 292 L 411 288 L 538 319 L 564 321 L 585 314 L 605 287 L 577 176 L 558 155" fill="none" id="make-me-a-hanzi-animation-9" stroke-dasharray="523 1046" stroke-linecap="round" />
    
      <clipPath id="make-me-a-hanzi-clip-10">
        <path d="M 409 76 Q 434 92 484 104 Q 589 131 700 138 Q 728 139 739 128 Q 749 118 737 79 Q 718 -18 697 -44 Q 690 -54 669 -51 L 617 -32 Q 604 -26 602 -33 Q 602 -37 609 -46 Q 651 -98 664 -133 Q 670 -154 688 -146 Q 745 -122 759 -76 Q 775 -18 790 49 Q 799 85 817 114 Q 830 129 819 142 Q 803 161 768 183 Q 749 195 721 184 Q 673 165 630 160 Q 611 159 591 154 L 553 148 Q 502 141 441 127 Q 425 120 419 134 Q 426 182 436 195 Q 443 208 439 219 Q 427 235 406 248 Q 391 255 383 250 Q 377 246 383 235 Q 392 211 369 121 Q 368 120 367 116 Q 360 97 373 82 Q 389 66 409 76 Z" />
      </clipPath>
      <path clip-path="url(#make-me-a-hanzi-clip-10)" d="M 390 243 L 412 209 L 394 126 L 401 108 L 427 106 L 522 129 L 721 160 L 751 157 L 776 134 L 781 127 L 754 19 L 733 -49 L 718 -76 L 694 -94 L 610 -37" fill="none" id="make-me-a-hanzi-animation-10" stroke-dasharray="1016 2032" stroke-linecap="round" />
    
      <clipPath id="make-me-a-hanzi-clip-11">
        <path d="M 422 1 Q 453 2 483 6 Q 537 13 645 8 Q 664 7 670 13 Q 676 25 666 34 Q 641 56 604 72 Q 591 76 570 69 Q 393 29 187 16 Q 183 17 179 16 Q 167 16 167 7 Q 166 -3 182 -15 Q 197 -25 223 -34 Q 232 -37 247 -30 Q 298 -12 422 1 Z" />
      </clipPath>
      <path clip-path="url(#make-me-a-hanzi-clip-11)" d="M 178 5 L 224 -8 L 592 42 L 661 20" fill="none" id="make-me-a-hanzi-animation-11" stroke-dasharray="620 1240" stroke-linecap="round" />
    
  </g>
</svg>