<svg xmlns="http://www.w3.org/2000/svg" version="1.1" viewBox="0 0 1024 1024">
  <g stroke="lightgray" stroke-dasharray="1,1" stroke-width="1" transform="scale(4, 4)">
    <line x1="0" y1="0" x2="256" y2="256" />
    <line x1="256" y1="0" x2="0" y2="256" />
    <line x1="128" y1="0" x2="128" y2="256" />
    <line x1="0" y1="128" x2="256" y2="128" />
  </g>
  <g transform="scale(1.0, -1.0) translate(0.0, -819.00)">
    <style type="text/css">
      
        @keyframes keyframes0 {
          from {
            stroke: blue;
            stroke-dashoffset: 802;
            stroke-width: 128;
          }
          72% {
            animation-timing-function: step-end;
            stroke: blue;
            stroke-dashoffset: 0;
            stroke-width: 128;
          }
          to {
            stroke: black;
            stroke-width: 1024;
          }
        }
        #make-me-a-hanzi-animation-0 {
          animation: keyframes0 0.9026692708333334s both;
          animation-delay: 0s;
          animation-timing-function: linear;
        }
      
        @keyframes keyframes1 {
          from {
            stroke: blue;
            stroke-dashoffset: 1196;
            stroke-width: 128;
          }
          80% {
            animation-timing-function: step-end;
            stroke: blue;
            stroke-dashoffset: 0;
            stroke-width: 128;
          }
          to {
            stroke: black;
            stroke-width: 1024;
          }
        }
        #make-me-a-hanzi-animation-1 {
          animation: keyframes1 1.2233072916666667s both;
          animation-delay: 0.9026692708333334s;
          animation-timing-function: linear;
        }
      
        @keyframes keyframes2 {
          from {
            stroke: blue;
            stroke-dashoffset: 558;
            stroke-width: 128;
          }
          64% {
            animation-timing-function: step-end;
            stroke: blue;
            stroke-dashoffset: 0;
            stroke-width: 128;
          }
          to {
            stroke: black;
            stroke-width: 1024;
          }
        }
        #make-me-a-hanzi-animation-2 {
          animation: keyframes2 0.7041015625s both;
          animation-delay: 2.1259765625s;
          animation-timing-function: linear;
        }
      
        @keyframes keyframes3 {
          from {
            stroke: blue;
            stroke-dashoffset: 970;
            stroke-width: 128;
          }
          76% {
            animation-timing-function: step-end;
            stroke: blue;
            stroke-dashoffset: 0;
            stroke-width: 128;
          }
          to {
            stroke: black;
            stroke-width: 1024;
          }
        }
        #make-me-a-hanzi-animation-3 {
          animation: keyframes3 1.0393880208333333s both;
          animation-delay: 2.830078125s;
          animation-timing-function: linear;
        }
      
        @keyframes keyframes4 {
          from {
            stroke: blue;
            stroke-dashoffset: 796;
            stroke-width: 128;
          }
          72% {
            animation-timing-function: step-end;
            stroke: blue;
            stroke-dashoffset: 0;
            stroke-width: 128;
          }
          to {
            stroke: black;
            stroke-width: 1024;
          }
        }
        #make-me-a-hanzi-animation-4 {
          animation: keyframes4 0.8977864583333334s both;
          animation-delay: 3.869466145833333s;
          animation-timing-function: linear;
        }
      
        @keyframes keyframes5 {
          from {
            stroke: blue;
            stroke-dashoffset: 329;
            stroke-width: 128;
          }
          52% {
            animation-timing-function: step-end;
            stroke: blue;
            stroke-dashoffset: 0;
            stroke-width: 128;
          }
          to {
            stroke: black;
            stroke-width: 1024;
          }
        }
        #make-me-a-hanzi-animation-5 {
          animation: keyframes5 0.5177408854166666s both;
          animation-delay: 4.767252604166666s;
          animation-timing-function: linear;
        }
      
        @keyframes keyframes6 {
          from {
            stroke: blue;
            stroke-dashoffset: 425;
            stroke-width: 128;
          }
          58% {
            animation-timing-function: step-end;
            stroke: blue;
            stroke-dashoffset: 0;
            stroke-width: 128;
          }
          to {
            stroke: black;
            stroke-width: 1024;
          }
        }
        #make-me-a-hanzi-animation-6 {
          animation: keyframes6 0.5958658854166666s both;
          animation-delay: 5.284993489583333s;
          animation-timing-function: linear;
        }
      
        @keyframes keyframes7 {
          from {
            stroke: blue;
            stroke-dashoffset: 618;
            stroke-width: 128;
          }
          67% {
            animation-timing-function: step-end;
            stroke: blue;
            stroke-dashoffset: 0;
            stroke-width: 128;
          }
          to {
            stroke: black;
            stroke-width: 1024;
          }
        }
        #make-me-a-hanzi-animation-7 {
          animation: keyframes7 0.7529296875s both;
          animation-delay: 5.880859375s;
          animation-timing-function: linear;
        }
      
        @keyframes keyframes8 {
          from {
            stroke: blue;
            stroke-dashoffset: 491;
            stroke-width: 128;
          }
          62% {
            animation-timing-function: step-end;
            stroke: blue;
            stroke-dashoffset: 0;
            stroke-width: 128;
          }
          to {
            stroke: black;
            stroke-width: 1024;
          }
        }
        #make-me-a-hanzi-animation-8 {
          animation: keyframes8 0.6495768229166666s both;
          animation-delay: 6.6337890625s;
          animation-timing-function: linear;
        }
      
        @keyframes keyframes9 {
          from {
            stroke: blue;
            stroke-dashoffset: 615;
            stroke-width: 128;
          }
          67% {
            animation-timing-function: step-end;
            stroke: blue;
            stroke-dashoffset: 0;
            stroke-width: 128;
          }
          to {
            stroke: black;
            stroke-width: 1024;
          }
        }
        #make-me-a-hanzi-animation-9 {
          animation: keyframes9 0.75048828125s both;
          animation-delay: 7.283365885416667s;
          animation-timing-function: linear;
        }
      
        @keyframes keyframes10 {
          from {
            stroke: blue;
            stroke-dashoffset: 571;
            stroke-width: 128;
          }
          65% {
            animation-timing-function: step-end;
            stroke: blue;
            stroke-dashoffset: 0;
            stroke-width: 128;
          }
          to {
            stroke: black;
            stroke-width: 1024;
          }
        }
        #make-me-a-hanzi-animation-10 {
          animation: keyframes10 0.7146809895833334s both;
          animation-delay: 8.033854166666668s;
          animation-timing-function: linear;
        }
      
        @keyframes keyframes11 {
          from {
            stroke: blue;
            stroke-dashoffset: 470;
            stroke-width: 128;
          }
          60% {
            animation-timing-function: step-end;
            stroke: blue;
            stroke-dashoffset: 0;
            stroke-width: 128;
          }
          to {
            stroke: black;
            stroke-width: 1024;
          }
        }
        #make-me-a-hanzi-animation-11 {
          animation: keyframes11 0.6324869791666666s both;
          animation-delay: 8.748535156250002s;
          animation-timing-function: linear;
        }
      
    </style>
    
      <path d="M 365 345 Q 365 346 366 347 Q 382 378 398 516 Q 408 568 442 602 Q 460 620 442 633 Q 423 649 371 670 Q 359 676 303 660 Q 296 660 217 638 Q 178 628 154 623 Q 138 622 135 616 Q 131 612 149 600 Q 179 585 220 598 Q 326 629 343 619 Q 358 612 354 569 Q 338 407 327 374 Q 320 350 335 333 C 350 307 354 317 365 345 Z" fill="lightgray" />
    
      <path d="M 335 333 Q 314 329 246 308 Q 221 304 219 324 Q 222 475 235 508 Q 241 523 234 533 Q 219 549 196 558 Q 180 565 172 557 Q 166 553 173 542 Q 191 496 174 323 Q 171 311 168 297 Q 161 278 175 263 Q 193 248 214 260 Q 232 279 324 295 Q 354 299 367 287 Q 379 277 368 235 Q 349 61 315 14 Q 306 4 286 6 L 224 25 Q 211 29 211 23 Q 211 19 218 11 Q 270 -38 289 -72 Q 296 -90 313 -81 Q 370 -54 385 17 Q 404 108 418 210 Q 425 244 443 274 Q 455 289 444 301 Q 428 320 393 340 Q 380 347 365 345 L 335 333 Z" fill="lightgray" />
    
      <path d="M 62 129 Q 50 126 49 117 Q 48 104 57 97 Q 79 84 112 68 Q 122 65 133 74 Q 157 96 300 176 Q 319 186 334 199 Q 346 206 345 216 Q 339 220 328 218 Q 111 131 62 129 Z" fill="lightgray" />
    
      <path d="M 678 471 Q 717 529 753 617 Q 763 642 782 658 Q 798 671 787 683 Q 777 693 749 705 Q 734 711 651 681 Q 555 663 531 659 Q 518 658 514 652 Q 511 646 527 639 Q 558 627 602 640 Q 675 664 688 663 Q 707 660 702 640 Q 677 532 643 498 L 622 471 Q 552 395 412 354 Q 399 350 410 343 Q 416 339 460 341 Q 565 350 654 441 L 678 471 Z" fill="lightgray" />
    
      <path d="M 654 441 Q 708 395 795 336 Q 825 317 863 329 L 953 352 Q 966 356 976 362 Q 982 369 970 376 Q 955 380 841 397 Q 768 406 678 471 L 643 498 Q 603 529 561 567 Q 539 588 506 589 Q 496 589 489 583 Q 485 576 494 571 Q 501 567 509 563 Q 531 559 622 471 L 654 441 Z" fill="lightgray" />
    
      <path d="M 574 606 Q 623 560 640 561 Q 649 561 651 573 Q 651 582 644 594 Q 626 618 576 624 Q 569 624 570 617 Q 569 611 574 606 Z" fill="lightgray" />
    
      <path d="M 520 258 Q 510 262 480 267 Q 470 268 468 265 Q 464 259 471 247 Q 493 207 510 141 Q 514 122 527 108 Q 542 92 545 105 Q 546 112 546 125 L 542 152 Q 530 207 527 231 C 523 257 523 257 520 258 Z" fill="lightgray" />
    
      <path d="M 772 178 Q 799 232 824 246 Q 840 262 827 277 Q 814 290 770 313 Q 754 320 736 314 Q 700 299 667 288 L 614 275 Q 566 265 520 258 C 490 253 498 224 527 231 Q 534 232 547 236 L 616 251 L 664 261 Q 689 268 715 273 Q 737 279 746 270 Q 752 261 727 188 C 717 160 758 151 772 178 Z" fill="lightgray" />
    
      <path d="M 660 141 Q 709 148 777 154 Q 787 155 788 162 Q 788 168 772 178 L 727 188 Q 723 188 721 187 Q 688 180 661 173 L 619 164 Q 577 157 542 152 C 512 148 516 130 546 125 Q 558 122 569 125 Q 590 131 619 134 L 660 141 Z" fill="lightgray" />
    
      <path d="M 655 37 Q 656 91 660 141 L 661 173 Q 662 218 664 261 L 667 288 Q 668 304 671 317 L 678 345 Q 681 355 664 368 Q 633 384 611 387 Q 598 390 590 382 Q 583 375 591 362 Q 612 334 612 314 L 614 275 L 616 251 Q 617 209 619 164 L 619 134 Q 619 83 618 29 C 617 -1 654 7 655 37 Z" fill="lightgray" />
    
      <path d="M 758 61 Q 707 51 655 37 L 618 29 Q 566 22 511 9 Q 492 5 462 8 Q 449 7 447 -2 Q 443 -15 452 -23 Q 471 -39 502 -60 Q 512 -64 523 -57 Q 560 -33 740 28 Q 756 34 770 40 C 798 52 787 67 758 61 Z" fill="lightgray" />
    
      <path d="M 770 40 Q 795 -6 823 -66 Q 830 -85 842 -93 Q 849 -97 857 -90 Q 870 -83 871 -45 Q 872 -8 820 46 Q 768 98 752 112 Q 746 118 741 109 Q 737 100 758 61 L 770 40 Z" fill="lightgray" />
    
    
      <clipPath id="make-me-a-hanzi-clip-0">
        <path d="M 365 345 Q 365 346 366 347 Q 382 378 398 516 Q 408 568 442 602 Q 460 620 442 633 Q 423 649 371 670 Q 359 676 303 660 Q 296 660 217 638 Q 178 628 154 623 Q 138 622 135 616 Q 131 612 149 600 Q 179 585 220 598 Q 326 629 343 619 Q 358 612 354 569 Q 338 407 327 374 Q 320 350 335 333 C 350 307 354 317 365 345 Z" />
      </clipPath>
      <path clip-path="url(#make-me-a-hanzi-clip-0)" d="M 141 614 L 182 610 L 337 645 L 368 639 L 391 618 L 395 612 L 379 554 L 354 383 L 337 343" fill="none" id="make-me-a-hanzi-animation-0" stroke-dasharray="674 1348" stroke-linecap="round" />
    
      <clipPath id="make-me-a-hanzi-clip-1">
        <path d="M 335 333 Q 314 329 246 308 Q 221 304 219 324 Q 222 475 235 508 Q 241 523 234 533 Q 219 549 196 558 Q 180 565 172 557 Q 166 553 173 542 Q 191 496 174 323 Q 171 311 168 297 Q 161 278 175 263 Q 193 248 214 260 Q 232 279 324 295 Q 354 299 367 287 Q 379 277 368 235 Q 349 61 315 14 Q 306 4 286 6 L 224 25 Q 211 29 211 23 Q 211 19 218 11 Q 270 -38 289 -72 Q 296 -90 313 -81 Q 370 -54 385 17 Q 404 108 418 210 Q 425 244 443 274 Q 455 289 444 301 Q 428 320 393 340 Q 380 347 365 345 L 335 333 Z" />
      </clipPath>
      <path clip-path="url(#make-me-a-hanzi-clip-1)" d="M 181 550 L 208 518 L 196 333 L 200 291 L 254 294 L 298 308 L 372 317 L 408 286 L 365 58 L 341 -8 L 312 -33 L 218 19" fill="none" id="make-me-a-hanzi-animation-1" stroke-dasharray="1068 2136" stroke-linecap="round" />
    
      <clipPath id="make-me-a-hanzi-clip-2">
        <path d="M 62 129 Q 50 126 49 117 Q 48 104 57 97 Q 79 84 112 68 Q 122 65 133 74 Q 157 96 300 176 Q 319 186 334 199 Q 346 206 345 216 Q 339 220 328 218 Q 111 131 62 129 Z" />
      </clipPath>
      <path clip-path="url(#make-me-a-hanzi-clip-2)" d="M 63 115 L 115 105 L 340 212" fill="none" id="make-me-a-hanzi-animation-2" stroke-dasharray="430 860" stroke-linecap="round" />
    
      <clipPath id="make-me-a-hanzi-clip-3">
        <path d="M 678 471 Q 717 529 753 617 Q 763 642 782 658 Q 798 671 787 683 Q 777 693 749 705 Q 734 711 651 681 Q 555 663 531 659 Q 518 658 514 652 Q 511 646 527 639 Q 558 627 602 640 Q 675 664 688 663 Q 707 660 702 640 Q 677 532 643 498 L 622 471 Q 552 395 412 354 Q 399 350 410 343 Q 416 339 460 341 Q 565 350 654 441 L 678 471 Z" />
      </clipPath>
      <path clip-path="url(#make-me-a-hanzi-clip-3)" d="M 520 650 L 590 652 L 687 680 L 738 667 L 691 534 L 663 487 L 621 438 L 571 400 L 519 373 L 450 351 L 414 348" fill="none" id="make-me-a-hanzi-animation-3" stroke-dasharray="842 1684" stroke-linecap="round" />
    
      <clipPath id="make-me-a-hanzi-clip-4">
        <path d="M 654 441 Q 708 395 795 336 Q 825 317 863 329 L 953 352 Q 966 356 976 362 Q 982 369 970 376 Q 955 380 841 397 Q 768 406 678 471 L 643 498 Q 603 529 561 567 Q 539 588 506 589 Q 496 589 489 583 Q 485 576 494 571 Q 501 567 509 563 Q 531 559 622 471 L 654 441 Z" />
      </clipPath>
      <path clip-path="url(#make-me-a-hanzi-clip-4)" d="M 496 579 L 536 567 L 693 435 L 817 364 L 967 366" fill="none" id="make-me-a-hanzi-animation-4" stroke-dasharray="668 1336" stroke-linecap="round" />
    
      <clipPath id="make-me-a-hanzi-clip-5">
        <path d="M 574 606 Q 623 560 640 561 Q 649 561 651 573 Q 651 582 644 594 Q 626 618 576 624 Q 569 624 570 617 Q 569 611 574 606 Z" />
      </clipPath>
      <path clip-path="url(#make-me-a-hanzi-clip-5)" d="M 580 614 L 620 592 L 639 573" fill="none" id="make-me-a-hanzi-animation-5" stroke-dasharray="201 402" stroke-linecap="round" />
    
      <clipPath id="make-me-a-hanzi-clip-6">
        <path d="M 520 258 Q 510 262 480 267 Q 470 268 468 265 Q 464 259 471 247 Q 493 207 510 141 Q 514 122 527 108 Q 542 92 545 105 Q 546 112 546 125 L 542 152 Q 530 207 527 231 C 523 257 523 257 520 258 Z" />
      </clipPath>
      <path clip-path="url(#make-me-a-hanzi-clip-6)" d="M 475 260 L 500 240 L 536 108" fill="none" id="make-me-a-hanzi-animation-6" stroke-dasharray="297 594" stroke-linecap="round" />
    
      <clipPath id="make-me-a-hanzi-clip-7">
        <path d="M 772 178 Q 799 232 824 246 Q 840 262 827 277 Q 814 290 770 313 Q 754 320 736 314 Q 700 299 667 288 L 614 275 Q 566 265 520 258 C 490 253 498 224 527 231 Q 534 232 547 236 L 616 251 L 664 261 Q 689 268 715 273 Q 737 279 746 270 Q 752 261 727 188 C 717 160 758 151 772 178 Z" />
      </clipPath>
      <path clip-path="url(#make-me-a-hanzi-clip-7)" d="M 530 239 L 545 250 L 656 271 L 736 295 L 758 292 L 778 273 L 783 259 L 759 206 L 737 197" fill="none" id="make-me-a-hanzi-animation-7" stroke-dasharray="490 980" stroke-linecap="round" />
    
      <clipPath id="make-me-a-hanzi-clip-8">
        <path d="M 660 141 Q 709 148 777 154 Q 787 155 788 162 Q 788 168 772 178 L 727 188 Q 723 188 721 187 Q 688 180 661 173 L 619 164 Q 577 157 542 152 C 512 148 516 130 546 125 Q 558 122 569 125 Q 590 131 619 134 L 660 141 Z" />
      </clipPath>
      <path clip-path="url(#make-me-a-hanzi-clip-8)" d="M 550 146 L 560 139 L 727 169 L 780 162" fill="none" id="make-me-a-hanzi-animation-8" stroke-dasharray="363 726" stroke-linecap="round" />
    
      <clipPath id="make-me-a-hanzi-clip-9">
        <path d="M 655 37 Q 656 91 660 141 L 661 173 Q 662 218 664 261 L 667 288 Q 668 304 671 317 L 678 345 Q 681 355 664 368 Q 633 384 611 387 Q 598 390 590 382 Q 583 375 591 362 Q 612 334 612 314 L 614 275 L 616 251 Q 617 209 619 164 L 619 134 Q 619 83 618 29 C 617 -1 654 7 655 37 Z" />
      </clipPath>
      <path clip-path="url(#make-me-a-hanzi-clip-9)" d="M 601 373 L 632 352 L 642 332 L 638 60 L 623 37" fill="none" id="make-me-a-hanzi-animation-9" stroke-dasharray="487 974" stroke-linecap="round" />
    
      <clipPath id="make-me-a-hanzi-clip-10">
        <path d="M 758 61 Q 707 51 655 37 L 618 29 Q 566 22 511 9 Q 492 5 462 8 Q 449 7 447 -2 Q 443 -15 452 -23 Q 471 -39 502 -60 Q 512 -64 523 -57 Q 560 -33 740 28 Q 756 34 770 40 C 798 52 787 67 758 61 Z" />
      </clipPath>
      <path clip-path="url(#make-me-a-hanzi-clip-10)" d="M 461 -6 L 510 -25 L 739 43 L 763 43" fill="none" id="make-me-a-hanzi-animation-10" stroke-dasharray="443 886" stroke-linecap="round" />
    
      <clipPath id="make-me-a-hanzi-clip-11">
        <path d="M 770 40 Q 795 -6 823 -66 Q 830 -85 842 -93 Q 849 -97 857 -90 Q 870 -83 871 -45 Q 872 -8 820 46 Q 768 98 752 112 Q 746 118 741 109 Q 737 100 758 61 L 770 40 Z" />
      </clipPath>
      <path clip-path="url(#make-me-a-hanzi-clip-11)" d="M 748 105 L 827 -6 L 843 -42 L 847 -80" fill="none" id="make-me-a-hanzi-animation-11" stroke-dasharray="342 684" stroke-linecap="round" />
    
  </g>
</svg>