<svg xmlns="http://www.w3.org/2000/svg" version="1.1" viewBox="0 0 1024 1024">
  <g stroke="lightgray" stroke-dasharray="1,1" stroke-width="1" transform="scale(4, 4)">
    <line x1="0" y1="0" x2="256" y2="256" />
    <line x1="256" y1="0" x2="0" y2="256" />
    <line x1="128" y1="0" x2="128" y2="256" />
    <line x1="0" y1="128" x2="256" y2="128" />
  </g>
  <g transform="scale(1.0, -1.0) translate(0.0, -823.00)">
    <style type="text/css">
      
        @keyframes keyframes0 {
          from {
            stroke: blue;
            stroke-dashoffset: 375;
            stroke-width: 128;
          }
          55% {
            animation-timing-function: step-end;
            stroke: blue;
            stroke-dashoffset: 0;
            stroke-width: 128;
          }
          to {
            stroke: black;
            stroke-width: 1024;
          }
        }
        #make-me-a-hanzi-animation-0 {
          animation: keyframes0 0.55517578125s both;
          animation-delay: 0s;
          animation-timing-function: linear;
        }
      
        @keyframes keyframes1 {
          from {
            stroke: blue;
            stroke-dashoffset: 434;
            stroke-width: 128;
          }
          59% {
            animation-timing-function: step-end;
            stroke: blue;
            stroke-dashoffset: 0;
            stroke-width: 128;
          }
          to {
            stroke: black;
            stroke-width: 1024;
          }
        }
        #make-me-a-hanzi-animation-1 {
          animation: keyframes1 0.6031901041666666s both;
          animation-delay: 0.55517578125s;
          animation-timing-function: linear;
        }
      
        @keyframes keyframes2 {
          from {
            stroke: blue;
            stroke-dashoffset: 868;
            stroke-width: 128;
          }
          74% {
            animation-timing-function: step-end;
            stroke: blue;
            stroke-dashoffset: 0;
            stroke-width: 128;
          }
          to {
            stroke: black;
            stroke-width: 1024;
          }
        }
        #make-me-a-hanzi-animation-2 {
          animation: keyframes2 0.9563802083333334s both;
          animation-delay: 1.1583658854166665s;
          animation-timing-function: linear;
        }
      
        @keyframes keyframes3 {
          from {
            stroke: blue;
            stroke-dashoffset: 618;
            stroke-width: 128;
          }
          67% {
            animation-timing-function: step-end;
            stroke: blue;
            stroke-dashoffset: 0;
            stroke-width: 128;
          }
          to {
            stroke: black;
            stroke-width: 1024;
          }
        }
        #make-me-a-hanzi-animation-3 {
          animation: keyframes3 0.7529296875s both;
          animation-delay: 2.11474609375s;
          animation-timing-function: linear;
        }
      
        @keyframes keyframes4 {
          from {
            stroke: blue;
            stroke-dashoffset: 579;
            stroke-width: 128;
          }
          65% {
            animation-timing-function: step-end;
            stroke: blue;
            stroke-dashoffset: 0;
            stroke-width: 128;
          }
          to {
            stroke: black;
            stroke-width: 1024;
          }
        }
        #make-me-a-hanzi-animation-4 {
          animation: keyframes4 0.72119140625s both;
          animation-delay: 2.86767578125s;
          animation-timing-function: linear;
        }
      
        @keyframes keyframes5 {
          from {
            stroke: blue;
            stroke-dashoffset: 482;
            stroke-width: 128;
          }
          61% {
            animation-timing-function: step-end;
            stroke: blue;
            stroke-dashoffset: 0;
            stroke-width: 128;
          }
          to {
            stroke: black;
            stroke-width: 1024;
          }
        }
        #make-me-a-hanzi-animation-5 {
          animation: keyframes5 0.6422526041666666s both;
          animation-delay: 3.5888671875s;
          animation-timing-function: linear;
        }
      
        @keyframes keyframes6 {
          from {
            stroke: blue;
            stroke-dashoffset: 502;
            stroke-width: 128;
          }
          62% {
            animation-timing-function: step-end;
            stroke: blue;
            stroke-dashoffset: 0;
            stroke-width: 128;
          }
          to {
            stroke: black;
            stroke-width: 1024;
          }
        }
        #make-me-a-hanzi-animation-6 {
          animation: keyframes6 0.6585286458333334s both;
          animation-delay: 4.231119791666667s;
          animation-timing-function: linear;
        }
      
        @keyframes keyframes7 {
          from {
            stroke: blue;
            stroke-dashoffset: 905;
            stroke-width: 128;
          }
          75% {
            animation-timing-function: step-end;
            stroke: blue;
            stroke-dashoffset: 0;
            stroke-width: 128;
          }
          to {
            stroke: black;
            stroke-width: 1024;
          }
        }
        #make-me-a-hanzi-animation-7 {
          animation: keyframes7 0.9864908854166666s both;
          animation-delay: 4.8896484375s;
          animation-timing-function: linear;
        }
      
        @keyframes keyframes8 {
          from {
            stroke: blue;
            stroke-dashoffset: 603;
            stroke-width: 128;
          }
          66% {
            animation-timing-function: step-end;
            stroke: blue;
            stroke-dashoffset: 0;
            stroke-width: 128;
          }
          to {
            stroke: black;
            stroke-width: 1024;
          }
        }
        #make-me-a-hanzi-animation-8 {
          animation: keyframes8 0.74072265625s both;
          animation-delay: 5.876139322916667s;
          animation-timing-function: linear;
        }
      
        @keyframes keyframes9 {
          from {
            stroke: blue;
            stroke-dashoffset: 691;
            stroke-width: 128;
          }
          69% {
            animation-timing-function: step-end;
            stroke: blue;
            stroke-dashoffset: 0;
            stroke-width: 128;
          }
          to {
            stroke: black;
            stroke-width: 1024;
          }
        }
        #make-me-a-hanzi-animation-9 {
          animation: keyframes9 0.8123372395833334s both;
          animation-delay: 6.616861979166667s;
          animation-timing-function: linear;
        }
      
        @keyframes keyframes10 {
          from {
            stroke: blue;
            stroke-dashoffset: 629;
            stroke-width: 128;
          }
          67% {
            animation-timing-function: step-end;
            stroke: blue;
            stroke-dashoffset: 0;
            stroke-width: 128;
          }
          to {
            stroke: black;
            stroke-width: 1024;
          }
        }
        #make-me-a-hanzi-animation-10 {
          animation: keyframes10 0.7618815104166666s both;
          animation-delay: 7.42919921875s;
          animation-timing-function: linear;
        }
      
        @keyframes keyframes11 {
          from {
            stroke: blue;
            stroke-dashoffset: 1090;
            stroke-width: 128;
          }
          78% {
            animation-timing-function: step-end;
            stroke: blue;
            stroke-dashoffset: 0;
            stroke-width: 128;
          }
          to {
            stroke: black;
            stroke-width: 1024;
          }
        }
        #make-me-a-hanzi-animation-11 {
          animation: keyframes11 1.1370442708333333s both;
          animation-delay: 8.191080729166666s;
          animation-timing-function: linear;
        }
      
        @keyframes keyframes12 {
          from {
            stroke: blue;
            stroke-dashoffset: 703;
            stroke-width: 128;
          }
          70% {
            animation-timing-function: step-end;
            stroke: blue;
            stroke-dashoffset: 0;
            stroke-width: 128;
          }
          to {
            stroke: black;
            stroke-width: 1024;
          }
        }
        #make-me-a-hanzi-animation-12 {
          animation: keyframes12 0.8221028645833334s both;
          animation-delay: 9.328125s;
          animation-timing-function: linear;
        }
      
    </style>
    
      <path d="M 462 744 L 521 711 Q 534 704 547 706 Q 556 709 557 720 Q 558 733 546 755 Q 534 777 449 782 Q 436 782 431 779 Q 428 775 432 765 Q 436 756 462 744 Z" fill="lightgray" />
    
      <path d="M 276 659 Q 267 683 256 692 Q 240 705 237 682 Q 237 643 186 594 Q 173 594 175 567 Q 175 543 187 519 Q 200 494 219 518 L 275 637 C 280 648 280 648 276 659 Z" fill="lightgray" />
    
      <path d="M 275 637 Q 300 618 328 625 Q 478 665 691 681 Q 713 682 724 680 Q 739 670 736 663 Q 737 660 713 601 Q 707 588 713 585 Q 720 581 735 592 Q 784 623 823 633 Q 854 642 855 650 Q 854 659 788 707 Q 766 725 662 707 Q 608 703 382 671 Q 331 664 280 660 Q 277 660 276 659 C 246 656 249 652 275 637 Z" fill="lightgray" />
    
      <path d="M 601 552 Q 607 555 615 555 Q 669 564 678 571 Q 685 577 682 583 Q 678 593 655 599 Q 633 605 612 598 L 555 583 Q 461 565 450 561 L 399 556 Q 360 553 320 551 Q 292 548 311 534 Q 335 516 404 525 L 448 531 Q 499 540 554 546 L 601 552 Z" fill="lightgray" />
    
      <path d="M 588 469 L 647 477 Q 666 478 660 490 Q 653 503 632 507 Q 616 511 593 506 L 552 499 Q 497 490 448 480 L 409 474 Q 369 470 331 462 Q 316 461 333 446 Q 348 434 380 439 Q 396 442 412 443 L 448 449 Q 500 458 550 464 L 588 469 Z" fill="lightgray" />
    
      <path d="M 450 561 Q 450 565 451 568 Q 454 587 442 597 Q 423 612 401 620 Q 389 624 382 619 Q 375 615 381 601 Q 393 579 399 556 L 404 525 Q 405 506 409 474 L 412 443 Q 413 422 416 394 C 419 364 451 369 450 399 Q 449 427 448 449 L 448 480 L 448 531 L 450 561 Z" fill="lightgray" />
    
      <path d="M 579 417 Q 583 444 588 469 L 593 506 Q 596 530 601 552 L 612 598 L 619 615 Q 622 624 607 636 Q 582 652 563 658 Q 550 662 544 655 Q 537 651 543 638 Q 555 620 555 583 L 554 546 Q 553 524 552 499 L 550 464 Q 547 439 545 412 C 543 382 574 387 579 417 Z" fill="lightgray" />
    
      <path d="M 397 358 Q 475 374 583 379 L 618 381 Q 675 384 815 385 Q 834 385 839 394 Q 845 404 828 418 Q 774 460 714 441 Q 657 432 579 417 L 545 412 Q 520 411 493 405 Q 471 404 450 399 L 416 394 Q 307 381 188 365 Q 167 364 183 347 Q 196 334 214 328 Q 233 324 250 328 Q 293 340 341 348 L 397 358 Z" fill="lightgray" />
    
      <path d="M 381 297 Q 397 316 407 325 Q 417 335 414 343 Q 411 353 397 358 C 371 372 353 376 341 348 Q 308 264 165 148 Q 147 135 128 119 Q 109 106 134 109 Q 213 115 351 263 Q 351 267 373 288 L 381 297 Z" fill="lightgray" />
    
      <path d="M 583 379 Q 665 283 753 196 Q 775 174 813 173 Q 880 169 952 184 Q 970 185 972 191 Q 973 198 959 203 Q 914 219 861 235 Q 741 274 618 381 C 595 401 563 402 583 379 Z" fill="lightgray" />
    
      <path d="M 570 138 Q 570 139 571 139 Q 578 151 591 204 Q 601 247 630 275 Q 645 288 630 301 Q 614 314 572 332 Q 557 338 513 325 Q 474 319 441 310 Q 408 301 387 298 Q 383 298 381 297 C 366 295 366 295 373 288 Q 374 285 382 280 Q 406 268 437 275 Q 519 299 547 291 Q 554 287 553 265 Q 546 180 539 163 Q 535 148 540 136 Q 540 135 541 133 C 549 104 557 111 570 138 Z" fill="lightgray" />
    
      <path d="M 417 63 Q 498 102 667 112 Q 686 113 695 106 Q 713 88 682 -46 Q 678 -61 667 -69 Q 655 -72 590 -43 Q 577 -36 575 -42 Q 574 -51 588 -64 Q 622 -106 636 -138 Q 646 -160 664 -149 Q 718 -119 735 -41 Q 769 85 778 91 Q 778 92 780 92 Q 795 107 788 116 Q 778 128 734 151 Q 712 163 627 146 Q 609 146 570 138 L 541 133 Q 495 126 454 116 Q 429 107 430 125 Q 440 182 450 206 Q 456 219 448 228 Q 435 240 421 246 Q 402 253 396 249 Q 389 245 394 233 Q 409 206 395 142 Q 389 130 368 106 Q 359 93 366 83 Q 375 73 393 60 Q 403 53 417 63 Z" fill="lightgray" />
    
      <path d="M 425 -10 Q 545 3 632 -1 Q 648 -2 652 4 Q 656 14 648 22 Q 627 40 596 53 Q 586 57 568 51 Q 364 9 212 -1 Q 208 0 205 -1 Q 195 -1 194 -9 Q 194 -18 208 -28 Q 220 -35 242 -44 Q 249 -47 262 -40 Q 311 -24 425 -10 Z" fill="lightgray" />
    
    
      <clipPath id="make-me-a-hanzi-clip-0">
        <path d="M 462 744 L 521 711 Q 534 704 547 706 Q 556 709 557 720 Q 558 733 546 755 Q 534 777 449 782 Q 436 782 431 779 Q 428 775 432 765 Q 436 756 462 744 Z" />
      </clipPath>
      <path clip-path="url(#make-me-a-hanzi-clip-0)" d="M 437 772 L 509 748 L 542 720" fill="none" id="make-me-a-hanzi-animation-0" stroke-dasharray="247 494" stroke-linecap="round" />
    
      <clipPath id="make-me-a-hanzi-clip-1">
        <path d="M 276 659 Q 267 683 256 692 Q 240 705 237 682 Q 237 643 186 594 Q 173 594 175 567 Q 175 543 187 519 Q 200 494 219 518 L 275 637 C 280 648 280 648 276 659 Z" />
      </clipPath>
      <path clip-path="url(#make-me-a-hanzi-clip-1)" d="M 247 686 L 254 660 L 251 640 L 207 570 L 202 522" fill="none" id="make-me-a-hanzi-animation-1" stroke-dasharray="306 612" stroke-linecap="round" />
    
      <clipPath id="make-me-a-hanzi-clip-2">
        <path d="M 275 637 Q 300 618 328 625 Q 478 665 691 681 Q 713 682 724 680 Q 739 670 736 663 Q 737 660 713 601 Q 707 588 713 585 Q 720 581 735 592 Q 784 623 823 633 Q 854 642 855 650 Q 854 659 788 707 Q 766 725 662 707 Q 608 703 382 671 Q 331 664 280 660 Q 277 660 276 659 C 246 656 249 652 275 637 Z" />
      </clipPath>
      <path clip-path="url(#make-me-a-hanzi-clip-2)" d="M 280 653 L 309 643 L 420 664 L 662 691 L 676 697 L 738 696 L 768 680 L 778 661 L 718 591" fill="none" id="make-me-a-hanzi-animation-2" stroke-dasharray="740 1480" stroke-linecap="round" />
    
      <clipPath id="make-me-a-hanzi-clip-3">
        <path d="M 601 552 Q 607 555 615 555 Q 669 564 678 571 Q 685 577 682 583 Q 678 593 655 599 Q 633 605 612 598 L 555 583 Q 461 565 450 561 L 399 556 Q 360 553 320 551 Q 292 548 311 534 Q 335 516 404 525 L 448 531 Q 499 540 554 546 L 601 552 Z" />
      </clipPath>
      <path clip-path="url(#make-me-a-hanzi-clip-3)" d="M 313 544 L 341 537 L 392 538 L 634 581 L 670 580" fill="none" id="make-me-a-hanzi-animation-3" stroke-dasharray="490 980" stroke-linecap="round" />
    
      <clipPath id="make-me-a-hanzi-clip-4">
        <path d="M 588 469 L 647 477 Q 666 478 660 490 Q 653 503 632 507 Q 616 511 593 506 L 552 499 Q 497 490 448 480 L 409 474 Q 369 470 331 462 Q 316 461 333 446 Q 348 434 380 439 Q 396 442 412 443 L 448 449 Q 500 458 550 464 L 588 469 Z" />
      </clipPath>
      <path clip-path="url(#make-me-a-hanzi-clip-4)" d="M 331 454 L 369 452 L 603 490 L 651 486" fill="none" id="make-me-a-hanzi-animation-4" stroke-dasharray="451 902" stroke-linecap="round" />
    
      <clipPath id="make-me-a-hanzi-clip-5">
        <path d="M 450 561 Q 450 565 451 568 Q 454 587 442 597 Q 423 612 401 620 Q 389 624 382 619 Q 375 615 381 601 Q 393 579 399 556 L 404 525 Q 405 506 409 474 L 412 443 Q 413 422 416 394 C 419 364 451 369 450 399 Q 449 427 448 449 L 448 480 L 448 531 L 450 561 Z" />
      </clipPath>
      <path clip-path="url(#make-me-a-hanzi-clip-5)" d="M 389 610 L 423 575 L 432 418 L 421 401" fill="none" id="make-me-a-hanzi-animation-5" stroke-dasharray="354 708" stroke-linecap="round" />
    
      <clipPath id="make-me-a-hanzi-clip-6">
        <path d="M 579 417 Q 583 444 588 469 L 593 506 Q 596 530 601 552 L 612 598 L 619 615 Q 622 624 607 636 Q 582 652 563 658 Q 550 662 544 655 Q 537 651 543 638 Q 555 620 555 583 L 554 546 Q 553 524 552 499 L 550 464 Q 547 439 545 412 C 543 382 574 387 579 417 Z" />
      </clipPath>
      <path clip-path="url(#make-me-a-hanzi-clip-6)" d="M 552 646 L 584 612 L 565 440 L 550 418" fill="none" id="make-me-a-hanzi-animation-6" stroke-dasharray="374 748" stroke-linecap="round" />
    
      <clipPath id="make-me-a-hanzi-clip-7">
        <path d="M 397 358 Q 475 374 583 379 L 618 381 Q 675 384 815 385 Q 834 385 839 394 Q 845 404 828 418 Q 774 460 714 441 Q 657 432 579 417 L 545 412 Q 520 411 493 405 Q 471 404 450 399 L 416 394 Q 307 381 188 365 Q 167 364 183 347 Q 196 334 214 328 Q 233 324 250 328 Q 293 340 341 348 L 397 358 Z" />
      </clipPath>
      <path clip-path="url(#make-me-a-hanzi-clip-7)" d="M 185 356 L 241 349 L 528 394 L 751 416 L 827 400" fill="none" id="make-me-a-hanzi-animation-7" stroke-dasharray="777 1554" stroke-linecap="round" />
    
      <clipPath id="make-me-a-hanzi-clip-8">
        <path d="M 381 297 Q 397 316 407 325 Q 417 335 414 343 Q 411 353 397 358 C 371 372 353 376 341 348 Q 308 264 165 148 Q 147 135 128 119 Q 109 106 134 109 Q 213 115 351 263 Q 351 267 373 288 L 381 297 Z" />
      </clipPath>
      <path clip-path="url(#make-me-a-hanzi-clip-8)" d="M 399 339 L 361 320 L 326 271 L 255 197 L 195 149 L 138 118" fill="none" id="make-me-a-hanzi-animation-8" stroke-dasharray="475 950" stroke-linecap="round" />
    
      <clipPath id="make-me-a-hanzi-clip-9">
        <path d="M 583 379 Q 665 283 753 196 Q 775 174 813 173 Q 880 169 952 184 Q 970 185 972 191 Q 973 198 959 203 Q 914 219 861 235 Q 741 274 618 381 C 595 401 563 402 583 379 Z" />
      </clipPath>
      <path clip-path="url(#make-me-a-hanzi-clip-9)" d="M 589 374 L 616 365 L 713 275 L 794 217 L 850 204 L 966 192" fill="none" id="make-me-a-hanzi-animation-9" stroke-dasharray="563 1126" stroke-linecap="round" />
    
      <clipPath id="make-me-a-hanzi-clip-10">
        <path d="M 570 138 Q 570 139 571 139 Q 578 151 591 204 Q 601 247 630 275 Q 645 288 630 301 Q 614 314 572 332 Q 557 338 513 325 Q 474 319 441 310 Q 408 301 387 298 Q 383 298 381 297 C 366 295 366 295 373 288 Q 374 285 382 280 Q 406 268 437 275 Q 519 299 547 291 Q 554 287 553 265 Q 546 180 539 163 Q 535 148 540 136 Q 540 135 541 133 C 549 104 557 111 570 138 Z" />
      </clipPath>
      <path clip-path="url(#make-me-a-hanzi-clip-10)" d="M 382 289 L 415 287 L 527 312 L 557 312 L 570 305 L 588 282 L 561 167 L 548 137" fill="none" id="make-me-a-hanzi-animation-10" stroke-dasharray="501 1002" stroke-linecap="round" />
    
      <clipPath id="make-me-a-hanzi-clip-11">
        <path d="M 417 63 Q 498 102 667 112 Q 686 113 695 106 Q 713 88 682 -46 Q 678 -61 667 -69 Q 655 -72 590 -43 Q 577 -36 575 -42 Q 574 -51 588 -64 Q 622 -106 636 -138 Q 646 -160 664 -149 Q 718 -119 735 -41 Q 769 85 778 91 Q 778 92 780 92 Q 795 107 788 116 Q 778 128 734 151 Q 712 163 627 146 Q 609 146 570 138 L 541 133 Q 495 126 454 116 Q 429 107 430 125 Q 440 182 450 206 Q 456 219 448 228 Q 435 240 421 246 Q 402 253 396 249 Q 389 245 394 233 Q 409 206 395 142 Q 389 130 368 106 Q 359 93 366 83 Q 375 73 393 60 Q 403 53 417 63 Z" />
      </clipPath>
      <path clip-path="url(#make-me-a-hanzi-clip-11)" d="M 402 241 L 426 210 L 405 96 L 438 93 L 536 116 L 682 134 L 720 124 L 739 103 L 705 -58 L 677 -99 L 658 -104 L 582 -45" fill="none" id="make-me-a-hanzi-animation-11" stroke-dasharray="962 1924" stroke-linecap="round" />
    
      <clipPath id="make-me-a-hanzi-clip-12">
        <path d="M 425 -10 Q 545 3 632 -1 Q 648 -2 652 4 Q 656 14 648 22 Q 627 40 596 53 Q 586 57 568 51 Q 364 9 212 -1 Q 208 0 205 -1 Q 195 -1 194 -9 Q 194 -18 208 -28 Q 220 -35 242 -44 Q 249 -47 262 -40 Q 311 -24 425 -10 Z" />
      </clipPath>
      <path clip-path="url(#make-me-a-hanzi-clip-12)" d="M 204 -11 L 244 -21 L 582 27 L 644 10" fill="none" id="make-me-a-hanzi-animation-12" stroke-dasharray="575 1150" stroke-linecap="round" />
    
  </g>
</svg>