<svg xmlns="http://www.w3.org/2000/svg" version="1.1" viewBox="0 0 1024 1024">
  <g stroke="lightgray" stroke-dasharray="1,1" stroke-width="1" transform="scale(4, 4)">
    <line x1="0" y1="0" x2="256" y2="256" />
    <line x1="256" y1="0" x2="0" y2="256" />
    <line x1="128" y1="0" x2="128" y2="256" />
    <line x1="0" y1="128" x2="256" y2="128" />
  </g>
  <g transform="scale(1.0, -1.0) translate(0.0, -819.00)">
    <style type="text/css">
      
        @keyframes keyframes0 {
          from {
            stroke: blue;
            stroke-dashoffset: 513;
            stroke-width: 128;
          }
          63% {
            animation-timing-function: step-end;
            stroke: blue;
            stroke-dashoffset: 0;
            stroke-width: 128;
          }
          to {
            stroke: black;
            stroke-width: 1024;
          }
        }
        #make-me-a-hanzi-animation-0 {
          animation: keyframes0 0.66748046875s both;
          animation-delay: 0s;
          animation-timing-function: linear;
        }
      
        @keyframes keyframes1 {
          from {
            stroke: blue;
            stroke-dashoffset: 691;
            stroke-width: 128;
          }
          69% {
            animation-timing-function: step-end;
            stroke: blue;
            stroke-dashoffset: 0;
            stroke-width: 128;
          }
          to {
            stroke: black;
            stroke-width: 1024;
          }
        }
        #make-me-a-hanzi-animation-1 {
          animation: keyframes1 0.8123372395833334s both;
          animation-delay: 0.66748046875s;
          animation-timing-function: linear;
        }
      
        @keyframes keyframes2 {
          from {
            stroke: blue;
            stroke-dashoffset: 315;
            stroke-width: 128;
          }
          51% {
            animation-timing-function: step-end;
            stroke: blue;
            stroke-dashoffset: 0;
            stroke-width: 128;
          }
          to {
            stroke: black;
            stroke-width: 1024;
          }
        }
        #make-me-a-hanzi-animation-2 {
          animation: keyframes2 0.50634765625s both;
          animation-delay: 1.4798177083333335s;
          animation-timing-function: linear;
        }
      
        @keyframes keyframes3 {
          from {
            stroke: blue;
            stroke-dashoffset: 415;
            stroke-width: 128;
          }
          57% {
            animation-timing-function: step-end;
            stroke: blue;
            stroke-dashoffset: 0;
            stroke-width: 128;
          }
          to {
            stroke: black;
            stroke-width: 1024;
          }
        }
        #make-me-a-hanzi-animation-3 {
          animation: keyframes3 0.5877278645833334s both;
          animation-delay: 1.9861653645833335s;
          animation-timing-function: linear;
        }
      
        @keyframes keyframes4 {
          from {
            stroke: blue;
            stroke-dashoffset: 391;
            stroke-width: 128;
          }
          56% {
            animation-timing-function: step-end;
            stroke: blue;
            stroke-dashoffset: 0;
            stroke-width: 128;
          }
          to {
            stroke: black;
            stroke-width: 1024;
          }
        }
        #make-me-a-hanzi-animation-4 {
          animation: keyframes4 0.5681966145833334s both;
          animation-delay: 2.573893229166667s;
          animation-timing-function: linear;
        }
      
        @keyframes keyframes5 {
          from {
            stroke: blue;
            stroke-dashoffset: 715;
            stroke-width: 128;
          }
          70% {
            animation-timing-function: step-end;
            stroke: blue;
            stroke-dashoffset: 0;
            stroke-width: 128;
          }
          to {
            stroke: black;
            stroke-width: 1024;
          }
        }
        #make-me-a-hanzi-animation-5 {
          animation: keyframes5 0.8318684895833334s both;
          animation-delay: 3.1420898437500004s;
          animation-timing-function: linear;
        }
      
        @keyframes keyframes6 {
          from {
            stroke: blue;
            stroke-dashoffset: 683;
            stroke-width: 128;
          }
          69% {
            animation-timing-function: step-end;
            stroke: blue;
            stroke-dashoffset: 0;
            stroke-width: 128;
          }
          to {
            stroke: black;
            stroke-width: 1024;
          }
        }
        #make-me-a-hanzi-animation-6 {
          animation: keyframes6 0.8058268229166666s both;
          animation-delay: 3.973958333333334s;
          animation-timing-function: linear;
        }
      
        @keyframes keyframes7 {
          from {
            stroke: blue;
            stroke-dashoffset: 922;
            stroke-width: 128;
          }
          75% {
            animation-timing-function: step-end;
            stroke: blue;
            stroke-dashoffset: 0;
            stroke-width: 128;
          }
          to {
            stroke: black;
            stroke-width: 1024;
          }
        }
        #make-me-a-hanzi-animation-7 {
          animation: keyframes7 1.0003255208333333s both;
          animation-delay: 4.779785156250001s;
          animation-timing-function: linear;
        }
      
        @keyframes keyframes8 {
          from {
            stroke: blue;
            stroke-dashoffset: 395;
            stroke-width: 128;
          }
          56% {
            animation-timing-function: step-end;
            stroke: blue;
            stroke-dashoffset: 0;
            stroke-width: 128;
          }
          to {
            stroke: black;
            stroke-width: 1024;
          }
        }
        #make-me-a-hanzi-animation-8 {
          animation: keyframes8 0.5714518229166666s both;
          animation-delay: 5.780110677083334s;
          animation-timing-function: linear;
        }
      
        @keyframes keyframes9 {
          from {
            stroke: blue;
            stroke-dashoffset: 400;
            stroke-width: 128;
          }
          57% {
            animation-timing-function: step-end;
            stroke: blue;
            stroke-dashoffset: 0;
            stroke-width: 128;
          }
          to {
            stroke: black;
            stroke-width: 1024;
          }
        }
        #make-me-a-hanzi-animation-9 {
          animation: keyframes9 0.5755208333333334s both;
          animation-delay: 6.351562500000001s;
          animation-timing-function: linear;
        }
      
        @keyframes keyframes10 {
          from {
            stroke: blue;
            stroke-dashoffset: 431;
            stroke-width: 128;
          }
          58% {
            animation-timing-function: step-end;
            stroke: blue;
            stroke-dashoffset: 0;
            stroke-width: 128;
          }
          to {
            stroke: black;
            stroke-width: 1024;
          }
        }
        #make-me-a-hanzi-animation-10 {
          animation: keyframes10 0.6007486979166666s both;
          animation-delay: 6.927083333333334s;
          animation-timing-function: linear;
        }
      
        @keyframes keyframes11 {
          from {
            stroke: blue;
            stroke-dashoffset: 641;
            stroke-width: 128;
          }
          68% {
            animation-timing-function: step-end;
            stroke: blue;
            stroke-dashoffset: 0;
            stroke-width: 128;
          }
          to {
            stroke: black;
            stroke-width: 1024;
          }
        }
        #make-me-a-hanzi-animation-11 {
          animation: keyframes11 0.7716471354166666s both;
          animation-delay: 7.527832031250001s;
          animation-timing-function: linear;
        }
      
        @keyframes keyframes12 {
          from {
            stroke: blue;
            stroke-dashoffset: 715;
            stroke-width: 128;
          }
          70% {
            animation-timing-function: step-end;
            stroke: blue;
            stroke-dashoffset: 0;
            stroke-width: 128;
          }
          to {
            stroke: black;
            stroke-width: 1024;
          }
        }
        #make-me-a-hanzi-animation-12 {
          animation: keyframes12 0.8318684895833334s both;
          animation-delay: 8.299479166666668s;
          animation-timing-function: linear;
        }
      
        @keyframes keyframes13 {
          from {
            stroke: blue;
            stroke-dashoffset: 1161;
            stroke-width: 128;
          }
          79% {
            animation-timing-function: step-end;
            stroke: blue;
            stroke-dashoffset: 0;
            stroke-width: 128;
          }
          to {
            stroke: black;
            stroke-width: 1024;
          }
        }
        #make-me-a-hanzi-animation-13 {
          animation: keyframes13 1.19482421875s both;
          animation-delay: 9.131347656250002s;
          animation-timing-function: linear;
        }
      
    </style>
    
      <path d="M 232 680 L 213 688 Q 189 699 178 698 Q 159 695 168 676 Q 173 654 174 650 L 178 621 L 201 434 C 205 404 246 410 244 440 L 232 646 C 230 676 234 679 232 680 Z" fill="lightgray" />
    
      <path d="M 426 727 Q 414 732 409 731 Q 404 730 389 723 Q 360 707 302 695 L 232 680 C 203 674 203 638 232 646 L 352 678 Q 387 689 396 680 Q 401 675 399 653 L 396 606 L 394 585 L 386 463 C 384 433 418 443 424 472 L 458 636 Q 461 655 480 683 Q 480 697 450 713 L 426 727 Z" fill="lightgray" />
    
      <path d="M 396 606 L 384 608 L 366 610 Q 364 609 346 602 L 327 595 C 299 585 301 575 330 568 L 338 566 Q 339 565 348 567 L 370 574 L 394 585 C 421 597 426 601 396 606 Z" fill="lightgray" />
    
      <path d="M 327 595 L 311 600 Q 277 613 273 606 Q 268 604 274 590 Q 279 576 280 573 L 282 549 L 288 447 C 290 417 320 423 322 453 L 330 568 C 332 594 332 594 327 595 Z" fill="lightgray" />
    
      <path d="M 121 423 L 109 438 Q 107 445 101.5 439.5 Q 96 434 96 431 Q 92 425 88 407 L 80 382 Q 78 380 70 360 Q 57 339 56 336 Q 55 333 55 311.5 Q 55 290 72 286 Q 83 280 92 286 Q 112 298 123 346 Q 128 367 128 374 L 128 394 L 121 423 Z" fill="lightgray" />
    
      <path d="M 201 434 L 165 429 Q 159 428 121 423 C 91 419 98 390 128 394 L 200 404 L 300 420 Q 338 424 391 433 Q 443 442 450 434 Q 453 431 450 417 Q 446 403 431 380 L 424 367 Q 423 364 425 358 Q 428 356 432 359 L 447 371 Q 481 394 507 403 L 526 411 Q 539 414 541 419 Q 542 423 541 430 Q 537 439 525 446 L 502 462 Q 493 467 476 474 Q 455 485 449 481 Q 443 477 424 472 L 386 463 L 322 453 L 288 447 L 244 440 L 201 434 Z" fill="lightgray" />
    
      <path d="M 225 324 L 193 333 Q 185 333 180 334 Q 174 335 169 330 Q 164 322 170 313 Q 176 304 179 297 Q 181 289 186 229 Q 190 168 177 79 Q 147 -29 147 -45 Q 147 -61 157 -81 Q 166 -101 176 -101 Q 186 -101 194 -84 Q 201 -67 212 -8 L 222 88 L 225 114 L 230 184 L 232 213 L 233 255 L 233 279 L 232 282 L 231 298 C 229 323 229 323 225 324 Z" fill="lightgray" />
    
      <path d="M 426 33 L 424 164 Q 422 176 424 204 Q 424 237 430 269 Q 434 279 436 290 Q 445 311 444 313 Q 444 323 399 350 Q 381 358 377 358 Q 373 358 356 350 Q 338 342 306 338 L 225 324 C 195 319 201 293 231 298 L 310 311 Q 354 317 369 308 Q 378 304 378 276 L 376 225 L 376 202 L 376 127 L 376 105 L 374 11 Q 373 -1 368 -15 Q 362 -29 357 -31 Q 352 -32 341 -27 Q 330 -22 318 -18 L 296 -10 Q 285 -7 282 -10 Q 279 -12 283 -16 L 316 -57 L 335 -84 L 350 -109 Q 355 -117 361 -118 Q 367 -118 379 -112 Q 388 -109 404 -83 Q 420 -57 424 -10 L 426 33 Z" fill="lightgray" />
    
      <path d="M 230 184 L 269 185 L 346 191 Q 350 193 360 196 Q 370 198 376 202 C 402 217 404 218 376 225 L 360 229 Q 344 231 314 226 Q 284 221 282 221 L 232 213 C 202 208 200 183 230 184 Z" fill="lightgray" />
    
      <path d="M 222 88 L 252 88 L 306 91 Q 351 93 360 99 Q 370 101 376 105 C 402 119 402 119 376 127 L 362 131 Q 349 136 302 128 L 225 114 C 195 109 192 88 222 88 Z" fill="lightgray" />
    
      <path d="M 726 528 L 738 549 Q 748 567 749 583 Q 749 620 714 642 Q 696 654 681 659 L 642 673 L 625 676 Q 613 677 611 674 Q 609 670 615 662 L 623 650 L 643 626 L 659 597 Q 660 596 664 588 L 682 560 L 697 539 Q 699 536 709 526 C 719 516 719 516 726 528 Z" fill="lightgray" />
    
      <path d="M 709 526 L 657 518 L 598 510 Q 574 506 556 506 L 530 504 Q 523 502 520 499 Q 518 493 522 489 Q 524 484 544.5 474.5 Q 565 465 611 471 L 655 476 Q 677 480 719 485 Q 761 490 795 497 L 854 508 Q 881 513 886 514 L 907 520 Q 919 524 920 533 Q 921 542 909.5 547.5 Q 898 553 879.5 558.5 Q 861 564 860 563 L 844 559 L 822 552 Q 812 545 785 541 L 726 528 L 709 526 Z" fill="lightgray" />
    
      <path d="M 640 346 L 605 357 Q 575 367 569 362 Q 562 356 564 351 Q 564 346 572 334 Q 580 322 583 303 Q 585 284 581 230 Q 577 176 568 130 Q 548 45 496 -24 L 475 -46 Q 470 -50 473 -53 Q 476 -56 482 -54 L 493 -50 Q 500 -49 512 -38 L 541 -14 Q 565 7 585 47 Q 618 111 629 193 L 636 253 L 638 281 L 638 289 L 640 314 C 642 344 642 345 640 346 Z" fill="lightgray" />
    
      <path d="M 732 124 Q 729 90 731 36 Q 734 -42 788 -74 Q 810 -87 849 -92 Q 887 -96 925 -91 Q 958 -84 977 -72 Q 1002 -59 1012 -41 Q 1022 -22 1007 -7 Q 991 9 987 25 Q 983 40 973 72 L 967 102 L 964 121 Q 962 127 958 126 Q 954 124 953 120 L 951 100 Q 938 10 924 -14 Q 910 -37 860 -35 Q 833 -34 815 -26 Q 800 -18 791 1 Q 780 18 780 55 Q 777 128 795 214 Q 799 233 801 246 Q 814 310 839 335 Q 848 342 849 346 Q 849 359 826 374 Q 802 389 788 394 Q 779 401 757 388 L 722 371 Q 696 360 680 356 L 640 346 C 611 339 611 307 640 314 L 734 337 Q 754 342 757 339 Q 759 336 759 328 L 740 196 L 732 124 Z" fill="lightgray" />
    
    
      <clipPath id="make-me-a-hanzi-clip-0">
        <path d="M 232 680 L 213 688 Q 189 699 178 698 Q 159 695 168 676 Q 173 654 174 650 L 178 621 L 201 434 C 205 404 246 410 244 440 L 232 646 C 230 676 234 679 232 680 Z" />
      </clipPath>
      <path clip-path="url(#make-me-a-hanzi-clip-0)" d="M 178 685 L 202 660 L 205 636 L 221 462 L 207 443" fill="none" id="make-me-a-hanzi-animation-0" stroke-dasharray="385 770" stroke-linecap="round" />
    
      <clipPath id="make-me-a-hanzi-clip-1">
        <path d="M 426 727 Q 414 732 409 731 Q 404 730 389 723 Q 360 707 302 695 L 232 680 C 203 674 203 638 232 646 L 352 678 Q 387 689 396 680 Q 401 675 399 653 L 396 606 L 394 585 L 386 463 C 384 433 418 443 424 472 L 458 636 Q 461 655 480 683 Q 480 697 450 713 L 426 727 Z" />
      </clipPath>
      <path clip-path="url(#make-me-a-hanzi-clip-1)" d="M 239 652 L 256 670 L 392 703 L 412 703 L 435 679 L 407 488 L 391 470" fill="none" id="make-me-a-hanzi-animation-1" stroke-dasharray="563 1126" stroke-linecap="round" />
    
      <clipPath id="make-me-a-hanzi-clip-2">
        <path d="M 396 606 L 384 608 L 366 610 Q 364 609 346 602 L 327 595 C 299 585 301 575 330 568 L 338 566 Q 339 565 348 567 L 370 574 L 394 585 C 421 597 426 601 396 606 Z" />
      </clipPath>
      <path clip-path="url(#make-me-a-hanzi-clip-2)" d="M 336 576 L 389 601" fill="none" id="make-me-a-hanzi-animation-2" stroke-dasharray="187 374" stroke-linecap="round" />
    
      <clipPath id="make-me-a-hanzi-clip-3">
        <path d="M 327 595 L 311 600 Q 277 613 273 606 Q 268 604 274 590 Q 279 576 280 573 L 282 549 L 288 447 C 290 417 320 423 322 453 L 330 568 C 332 594 332 594 327 595 Z" />
      </clipPath>
      <path clip-path="url(#make-me-a-hanzi-clip-3)" d="M 279 600 L 304 576 L 306 562 L 306 476 L 293 455" fill="none" id="make-me-a-hanzi-animation-3" stroke-dasharray="287 574" stroke-linecap="round" />
    
      <clipPath id="make-me-a-hanzi-clip-4">
        <path d="M 121 423 L 109 438 Q 107 445 101.5 439.5 Q 96 434 96 431 Q 92 425 88 407 L 80 382 Q 78 380 70 360 Q 57 339 56 336 Q 55 333 55 311.5 Q 55 290 72 286 Q 83 280 92 286 Q 112 298 123 346 Q 128 367 128 374 L 128 394 L 121 423 Z" />
      </clipPath>
      <path clip-path="url(#make-me-a-hanzi-clip-4)" d="M 104 432 L 106 389 L 83 320 L 82 301" fill="none" id="make-me-a-hanzi-animation-4" stroke-dasharray="263 526" stroke-linecap="round" />
    
      <clipPath id="make-me-a-hanzi-clip-5">
        <path d="M 201 434 L 165 429 Q 159 428 121 423 C 91 419 98 390 128 394 L 200 404 L 300 420 Q 338 424 391 433 Q 443 442 450 434 Q 453 431 450 417 Q 446 403 431 380 L 424 367 Q 423 364 425 358 Q 428 356 432 359 L 447 371 Q 481 394 507 403 L 526 411 Q 539 414 541 419 Q 542 423 541 430 Q 537 439 525 446 L 502 462 Q 493 467 476 474 Q 455 485 449 481 Q 443 477 424 472 L 386 463 L 322 453 L 288 447 L 244 440 L 201 434 Z" />
      </clipPath>
      <path clip-path="url(#make-me-a-hanzi-clip-5)" d="M 134 403 L 140 411 L 152 413 L 459 457 L 486 432 L 428 363" fill="none" id="make-me-a-hanzi-animation-5" stroke-dasharray="587 1174" stroke-linecap="round" />
    
      <clipPath id="make-me-a-hanzi-clip-6">
        <path d="M 225 324 L 193 333 Q 185 333 180 334 Q 174 335 169 330 Q 164 322 170 313 Q 176 304 179 297 Q 181 289 186 229 Q 190 168 177 79 Q 147 -29 147 -45 Q 147 -61 157 -81 Q 166 -101 176 -101 Q 186 -101 194 -84 Q 201 -67 212 -8 L 222 88 L 225 114 L 230 184 L 232 213 L 233 255 L 233 279 L 232 282 L 231 298 C 229 323 229 323 225 324 Z" />
      </clipPath>
      <path clip-path="url(#make-me-a-hanzi-clip-6)" d="M 178 323 L 205 299 L 210 221 L 202 97 L 176 -40 L 176 -89" fill="none" id="make-me-a-hanzi-animation-6" stroke-dasharray="555 1110" stroke-linecap="round" />
    
      <clipPath id="make-me-a-hanzi-clip-7">
        <path d="M 426 33 L 424 164 Q 422 176 424 204 Q 424 237 430 269 Q 434 279 436 290 Q 445 311 444 313 Q 444 323 399 350 Q 381 358 377 358 Q 373 358 356 350 Q 338 342 306 338 L 225 324 C 195 319 201 293 231 298 L 310 311 Q 354 317 369 308 Q 378 304 378 276 L 376 225 L 376 202 L 376 127 L 376 105 L 374 11 Q 373 -1 368 -15 Q 362 -29 357 -31 Q 352 -32 341 -27 Q 330 -22 318 -18 L 296 -10 Q 285 -7 282 -10 Q 279 -12 283 -16 L 316 -57 L 335 -84 L 350 -109 Q 355 -117 361 -118 Q 367 -118 379 -112 Q 388 -109 404 -83 Q 420 -57 424 -10 L 426 33 Z" />
      </clipPath>
      <path clip-path="url(#make-me-a-hanzi-clip-7)" d="M 233 319 L 241 313 L 377 332 L 395 322 L 407 306 L 400 230 L 401 27 L 388 -44 L 369 -67 L 289 -12" fill="none" id="make-me-a-hanzi-animation-7" stroke-dasharray="794 1588" stroke-linecap="round" />
    
      <clipPath id="make-me-a-hanzi-clip-8">
        <path d="M 230 184 L 269 185 L 346 191 Q 350 193 360 196 Q 370 198 376 202 C 402 217 404 218 376 225 L 360 229 Q 344 231 314 226 Q 284 221 282 221 L 232 213 C 202 208 200 183 230 184 Z" />
      </clipPath>
      <path clip-path="url(#make-me-a-hanzi-clip-8)" d="M 236 191 L 247 200 L 348 210 L 370 219" fill="none" id="make-me-a-hanzi-animation-8" stroke-dasharray="267 534" stroke-linecap="round" />
    
      <clipPath id="make-me-a-hanzi-clip-9">
        <path d="M 222 88 L 252 88 L 306 91 Q 351 93 360 99 Q 370 101 376 105 C 402 119 402 119 376 127 L 362 131 Q 349 136 302 128 L 225 114 C 195 109 192 88 222 88 Z" />
      </clipPath>
      <path clip-path="url(#make-me-a-hanzi-clip-9)" d="M 230 94 L 238 102 L 282 108 L 354 115 L 369 111" fill="none" id="make-me-a-hanzi-animation-9" stroke-dasharray="272 544" stroke-linecap="round" />
    
      <clipPath id="make-me-a-hanzi-clip-10">
        <path d="M 726 528 L 738 549 Q 748 567 749 583 Q 749 620 714 642 Q 696 654 681 659 L 642 673 L 625 676 Q 613 677 611 674 Q 609 670 615 662 L 623 650 L 643 626 L 659 597 Q 660 596 664 588 L 682 560 L 697 539 Q 699 536 709 526 C 719 516 719 516 726 528 Z" />
      </clipPath>
      <path clip-path="url(#make-me-a-hanzi-clip-10)" d="M 619 670 L 666 638 L 703 601 L 721 538" fill="none" id="make-me-a-hanzi-animation-10" stroke-dasharray="303 606" stroke-linecap="round" />
    
      <clipPath id="make-me-a-hanzi-clip-11">
        <path d="M 709 526 L 657 518 L 598 510 Q 574 506 556 506 L 530 504 Q 523 502 520 499 Q 518 493 522 489 Q 524 484 544.5 474.5 Q 565 465 611 471 L 655 476 Q 677 480 719 485 Q 761 490 795 497 L 854 508 Q 881 513 886 514 L 907 520 Q 919 524 920 533 Q 921 542 909.5 547.5 Q 898 553 879.5 558.5 Q 861 564 860 563 L 844 559 L 822 552 Q 812 545 785 541 L 726 528 L 709 526 Z" />
      </clipPath>
      <path clip-path="url(#make-me-a-hanzi-clip-11)" d="M 528 495 L 573 487 L 600 489 L 724 506 L 866 537 L 908 534" fill="none" id="make-me-a-hanzi-animation-11" stroke-dasharray="513 1026" stroke-linecap="round" />
    
      <clipPath id="make-me-a-hanzi-clip-12">
        <path d="M 640 346 L 605 357 Q 575 367 569 362 Q 562 356 564 351 Q 564 346 572 334 Q 580 322 583 303 Q 585 284 581 230 Q 577 176 568 130 Q 548 45 496 -24 L 475 -46 Q 470 -50 473 -53 Q 476 -56 482 -54 L 493 -50 Q 500 -49 512 -38 L 541 -14 Q 565 7 585 47 Q 618 111 629 193 L 636 253 L 638 281 L 638 289 L 640 314 C 642 344 642 345 640 346 Z" />
      </clipPath>
      <path clip-path="url(#make-me-a-hanzi-clip-12)" d="M 575 353 L 609 324 L 611 310 L 605 203 L 592 129 L 575 75 L 549 23 L 501 -35 L 478 -51" fill="none" id="make-me-a-hanzi-animation-12" stroke-dasharray="587 1174" stroke-linecap="round" />
    
      <clipPath id="make-me-a-hanzi-clip-13">
        <path d="M 732 124 Q 729 90 731 36 Q 734 -42 788 -74 Q 810 -87 849 -92 Q 887 -96 925 -91 Q 958 -84 977 -72 Q 1002 -59 1012 -41 Q 1022 -22 1007 -7 Q 991 9 987 25 Q 983 40 973 72 L 967 102 L 964 121 Q 962 127 958 126 Q 954 124 953 120 L 951 100 Q 938 10 924 -14 Q 910 -37 860 -35 Q 833 -34 815 -26 Q 800 -18 791 1 Q 780 18 780 55 Q 777 128 795 214 Q 799 233 801 246 Q 814 310 839 335 Q 848 342 849 346 Q 849 359 826 374 Q 802 389 788 394 Q 779 401 757 388 L 722 371 Q 696 360 680 356 L 640 346 C 611 339 611 307 640 314 L 734 337 Q 754 342 757 339 Q 759 336 759 328 L 740 196 L 732 124 Z" />
      </clipPath>
      <path clip-path="url(#make-me-a-hanzi-clip-13)" d="M 646 319 L 664 337 L 748 361 L 780 362 L 795 342 L 762 172 L 755 62 L 767 -13 L 788 -41 L 806 -53 L 844 -63 L 900 -63 L 937 -52 L 963 -32 L 959 120" fill="none" id="make-me-a-hanzi-animation-13" stroke-dasharray="1033 2066" stroke-linecap="round" />
    
  </g>
</svg>