<svg xmlns="http://www.w3.org/2000/svg" version="1.1" viewBox="0 0 1024 1024">
  <g stroke="lightgray" stroke-dasharray="1,1" stroke-width="1" transform="scale(4, 4)">
    <line x1="0" y1="0" x2="256" y2="256" />
    <line x1="256" y1="0" x2="0" y2="256" />
    <line x1="128" y1="0" x2="128" y2="256" />
    <line x1="0" y1="128" x2="256" y2="128" />
  </g>
  <g transform="scale(1.0, -1.0) translate(0.0, -816.00)">
    <style type="text/css">
      
        @keyframes keyframes0 {
          from {
            stroke: blue;
            stroke-dashoffset: 515;
            stroke-width: 128;
          }
          63% {
            animation-timing-function: step-end;
            stroke: blue;
            stroke-dashoffset: 0;
            stroke-width: 128;
          }
          to {
            stroke: black;
            stroke-width: 1024;
          }
        }
        #make-me-a-hanzi-animation-0 {
          animation: keyframes0 0.6691080729166666s both;
          animation-delay: 0s;
          animation-timing-function: linear;
        }
      
        @keyframes keyframes1 {
          from {
            stroke: blue;
            stroke-dashoffset: 681;
            stroke-width: 128;
          }
          69% {
            animation-timing-function: step-end;
            stroke: blue;
            stroke-dashoffset: 0;
            stroke-width: 128;
          }
          to {
            stroke: black;
            stroke-width: 1024;
          }
        }
        #make-me-a-hanzi-animation-1 {
          animation: keyframes1 0.80419921875s both;
          animation-delay: 0.6691080729166666s;
          animation-timing-function: linear;
        }
      
        @keyframes keyframes2 {
          from {
            stroke: blue;
            stroke-dashoffset: 312;
            stroke-width: 128;
          }
          50% {
            animation-timing-function: step-end;
            stroke: blue;
            stroke-dashoffset: 0;
            stroke-width: 128;
          }
          to {
            stroke: black;
            stroke-width: 1024;
          }
        }
        #make-me-a-hanzi-animation-2 {
          animation: keyframes2 0.50390625s both;
          animation-delay: 1.4733072916666665s;
          animation-timing-function: linear;
        }
      
        @keyframes keyframes3 {
          from {
            stroke: blue;
            stroke-dashoffset: 414;
            stroke-width: 128;
          }
          57% {
            animation-timing-function: step-end;
            stroke: blue;
            stroke-dashoffset: 0;
            stroke-width: 128;
          }
          to {
            stroke: black;
            stroke-width: 1024;
          }
        }
        #make-me-a-hanzi-animation-3 {
          animation: keyframes3 0.5869140625s both;
          animation-delay: 1.9772135416666665s;
          animation-timing-function: linear;
        }
      
        @keyframes keyframes4 {
          from {
            stroke: blue;
            stroke-dashoffset: 391;
            stroke-width: 128;
          }
          56% {
            animation-timing-function: step-end;
            stroke: blue;
            stroke-dashoffset: 0;
            stroke-width: 128;
          }
          to {
            stroke: black;
            stroke-width: 1024;
          }
        }
        #make-me-a-hanzi-animation-4 {
          animation: keyframes4 0.5681966145833334s both;
          animation-delay: 2.5641276041666665s;
          animation-timing-function: linear;
        }
      
        @keyframes keyframes5 {
          from {
            stroke: blue;
            stroke-dashoffset: 698;
            stroke-width: 128;
          }
          69% {
            animation-timing-function: step-end;
            stroke: blue;
            stroke-dashoffset: 0;
            stroke-width: 128;
          }
          to {
            stroke: black;
            stroke-width: 1024;
          }
        }
        #make-me-a-hanzi-animation-5 {
          animation: keyframes5 0.8180338541666666s both;
          animation-delay: 3.13232421875s;
          animation-timing-function: linear;
        }
      
        @keyframes keyframes6 {
          from {
            stroke: blue;
            stroke-dashoffset: 677;
            stroke-width: 128;
          }
          69% {
            animation-timing-function: step-end;
            stroke: blue;
            stroke-dashoffset: 0;
            stroke-width: 128;
          }
          to {
            stroke: black;
            stroke-width: 1024;
          }
        }
        #make-me-a-hanzi-animation-6 {
          animation: keyframes6 0.8009440104166666s both;
          animation-delay: 3.9503580729166665s;
          animation-timing-function: linear;
        }
      
        @keyframes keyframes7 {
          from {
            stroke: blue;
            stroke-dashoffset: 903;
            stroke-width: 128;
          }
          75% {
            animation-timing-function: step-end;
            stroke: blue;
            stroke-dashoffset: 0;
            stroke-width: 128;
          }
          to {
            stroke: black;
            stroke-width: 1024;
          }
        }
        #make-me-a-hanzi-animation-7 {
          animation: keyframes7 0.98486328125s both;
          animation-delay: 4.751302083333333s;
          animation-timing-function: linear;
        }
      
        @keyframes keyframes8 {
          from {
            stroke: blue;
            stroke-dashoffset: 388;
            stroke-width: 128;
          }
          56% {
            animation-timing-function: step-end;
            stroke: blue;
            stroke-dashoffset: 0;
            stroke-width: 128;
          }
          to {
            stroke: black;
            stroke-width: 1024;
          }
        }
        #make-me-a-hanzi-animation-8 {
          animation: keyframes8 0.5657552083333334s both;
          animation-delay: 5.736165364583333s;
          animation-timing-function: linear;
        }
      
        @keyframes keyframes9 {
          from {
            stroke: blue;
            stroke-dashoffset: 395;
            stroke-width: 128;
          }
          56% {
            animation-timing-function: step-end;
            stroke: blue;
            stroke-dashoffset: 0;
            stroke-width: 128;
          }
          to {
            stroke: black;
            stroke-width: 1024;
          }
        }
        #make-me-a-hanzi-animation-9 {
          animation: keyframes9 0.5714518229166666s both;
          animation-delay: 6.301920572916666s;
          animation-timing-function: linear;
        }
      
        @keyframes keyframes10 {
          from {
            stroke: blue;
            stroke-dashoffset: 471;
            stroke-width: 128;
          }
          61% {
            animation-timing-function: step-end;
            stroke: blue;
            stroke-dashoffset: 0;
            stroke-width: 128;
          }
          to {
            stroke: black;
            stroke-width: 1024;
          }
        }
        #make-me-a-hanzi-animation-10 {
          animation: keyframes10 0.63330078125s both;
          animation-delay: 6.873372395833333s;
          animation-timing-function: linear;
        }
      
        @keyframes keyframes11 {
          from {
            stroke: blue;
            stroke-dashoffset: 437;
            stroke-width: 128;
          }
          59% {
            animation-timing-function: step-end;
            stroke: blue;
            stroke-dashoffset: 0;
            stroke-width: 128;
          }
          to {
            stroke: black;
            stroke-width: 1024;
          }
        }
        #make-me-a-hanzi-animation-11 {
          animation: keyframes11 0.6056315104166666s both;
          animation-delay: 7.506673177083333s;
          animation-timing-function: linear;
        }
      
        @keyframes keyframes12 {
          from {
            stroke: blue;
            stroke-dashoffset: 481;
            stroke-width: 128;
          }
          61% {
            animation-timing-function: step-end;
            stroke: blue;
            stroke-dashoffset: 0;
            stroke-width: 128;
          }
          to {
            stroke: black;
            stroke-width: 1024;
          }
        }
        #make-me-a-hanzi-animation-12 {
          animation: keyframes12 0.6414388020833334s both;
          animation-delay: 8.1123046875s;
          animation-timing-function: linear;
        }
      
        @keyframes keyframes13 {
          from {
            stroke: blue;
            stroke-dashoffset: 490;
            stroke-width: 128;
          }
          61% {
            animation-timing-function: step-end;
            stroke: blue;
            stroke-dashoffset: 0;
            stroke-width: 128;
          }
          to {
            stroke: black;
            stroke-width: 1024;
          }
        }
        #make-me-a-hanzi-animation-13 {
          animation: keyframes13 0.6487630208333334s both;
          animation-delay: 8.753743489583334s;
          animation-timing-function: linear;
        }
      
        @keyframes keyframes14 {
          from {
            stroke: blue;
            stroke-dashoffset: 597;
            stroke-width: 128;
          }
          66% {
            animation-timing-function: step-end;
            stroke: blue;
            stroke-dashoffset: 0;
            stroke-width: 128;
          }
          to {
            stroke: black;
            stroke-width: 1024;
          }
        }
        #make-me-a-hanzi-animation-14 {
          animation: keyframes14 0.73583984375s both;
          animation-delay: 9.402506510416668s;
          animation-timing-function: linear;
        }
      
        @keyframes keyframes15 {
          from {
            stroke: blue;
            stroke-dashoffset: 461;
            stroke-width: 128;
          }
          60% {
            animation-timing-function: step-end;
            stroke: blue;
            stroke-dashoffset: 0;
            stroke-width: 128;
          }
          to {
            stroke: black;
            stroke-width: 1024;
          }
        }
        #make-me-a-hanzi-animation-15 {
          animation: keyframes15 0.6251627604166666s both;
          animation-delay: 10.138346354166668s;
          animation-timing-function: linear;
        }
      
        @keyframes keyframes16 {
          from {
            stroke: blue;
            stroke-dashoffset: 668;
            stroke-width: 128;
          }
          68% {
            animation-timing-function: step-end;
            stroke: blue;
            stroke-dashoffset: 0;
            stroke-width: 128;
          }
          to {
            stroke: black;
            stroke-width: 1024;
          }
        }
        #make-me-a-hanzi-animation-16 {
          animation: keyframes16 0.7936197916666666s both;
          animation-delay: 10.763509114583334s;
          animation-timing-function: linear;
        }
      
        @keyframes keyframes17 {
          from {
            stroke: blue;
            stroke-dashoffset: 329;
            stroke-width: 128;
          }
          52% {
            animation-timing-function: step-end;
            stroke: blue;
            stroke-dashoffset: 0;
            stroke-width: 128;
          }
          to {
            stroke: black;
            stroke-width: 1024;
          }
        }
        #make-me-a-hanzi-animation-17 {
          animation: keyframes17 0.5177408854166666s both;
          animation-delay: 11.55712890625s;
          animation-timing-function: linear;
        }
      
        @keyframes keyframes18 {
          from {
            stroke: blue;
            stroke-dashoffset: 442;
            stroke-width: 128;
          }
          59% {
            animation-timing-function: step-end;
            stroke: blue;
            stroke-dashoffset: 0;
            stroke-width: 128;
          }
          to {
            stroke: black;
            stroke-width: 1024;
          }
        }
        #make-me-a-hanzi-animation-18 {
          animation: keyframes18 0.6097005208333334s both;
          animation-delay: 12.074869791666666s;
          animation-timing-function: linear;
        }
      
        @keyframes keyframes19 {
          from {
            stroke: blue;
            stroke-dashoffset: 728;
            stroke-width: 128;
          }
          70% {
            animation-timing-function: step-end;
            stroke: blue;
            stroke-dashoffset: 0;
            stroke-width: 128;
          }
          to {
            stroke: black;
            stroke-width: 1024;
          }
        }
        #make-me-a-hanzi-animation-19 {
          animation: keyframes19 0.8424479166666666s both;
          animation-delay: 12.6845703125s;
          animation-timing-function: linear;
        }
      
        @keyframes keyframes20 {
          from {
            stroke: blue;
            stroke-dashoffset: 789;
            stroke-width: 128;
          }
          72% {
            animation-timing-function: step-end;
            stroke: blue;
            stroke-dashoffset: 0;
            stroke-width: 128;
          }
          to {
            stroke: black;
            stroke-width: 1024;
          }
        }
        #make-me-a-hanzi-animation-20 {
          animation: keyframes20 0.89208984375s both;
          animation-delay: 13.527018229166666s;
          animation-timing-function: linear;
        }
      
        @keyframes keyframes21 {
          from {
            stroke: blue;
            stroke-dashoffset: 654;
            stroke-width: 128;
          }
          68% {
            animation-timing-function: step-end;
            stroke: blue;
            stroke-dashoffset: 0;
            stroke-width: 128;
          }
          to {
            stroke: black;
            stroke-width: 1024;
          }
        }
        #make-me-a-hanzi-animation-21 {
          animation: keyframes21 0.7822265625s both;
          animation-delay: 14.419108072916666s;
          animation-timing-function: linear;
        }
      
        @keyframes keyframes22 {
          from {
            stroke: blue;
            stroke-dashoffset: 681;
            stroke-width: 128;
          }
          69% {
            animation-timing-function: step-end;
            stroke: blue;
            stroke-dashoffset: 0;
            stroke-width: 128;
          }
          to {
            stroke: black;
            stroke-width: 1024;
          }
        }
        #make-me-a-hanzi-animation-22 {
          animation: keyframes22 0.80419921875s both;
          animation-delay: 15.201334635416666s;
          animation-timing-function: linear;
        }
      
    </style>
    
      <path d="M 221 665 L 203 673 Q 150 696 157 666 L 165 639 Q 167 628 169 606 L 190 418 C 193 388 231 394 230 424 L 221 631 C 220 661 223 664 221 665 Z" fill="lightgray" />
    
      <path d="M 403 457 L 437 621 Q 438 637 449 651 L 459 668 Q 459 674 450 684 Q 440 693 431 699 Q 421 704 405 710 Q 389 716 384 714 Q 379 712 368 708 L 340 696 Q 305 686 295 683 L 221 665 C 192 658 192 623 221 631 L 335 663 Q 351 667 361 669 Q 374 669 379 665 Q 383 660 382 639 L 379 592 L 377 570 L 368 450 C 366 420 397 428 403 457 Z" fill="lightgray" />
    
      <path d="M 315 554 L 324 552 Q 325 551 334 553 L 353 560 L 377 570 C 405 582 409 588 379 592 L 365 594 Q 360 594 355 594 L 352 595 Q 351 595 350 596 L 349 596 L 347 595 Q 342 590 331 587 L 313 580 C 285 569 286 561 315 554 Z" fill="lightgray" />
    
      <path d="M 308 438 L 315 554 C 316 579 316 579 313 580 L 299 585 Q 291 590 280 592 Q 266 597 263 592 Q 261 586 266 572 Q 271 557 271 534 L 277 432 C 279 402 306 408 308 438 Z" fill="lightgray" />
    
      <path d="M 127 354 L 128 356 Q 128 372 127 377 L 121 406 L 111 422 Q 109 428 104 423.5 Q 99 419 97 410 Q 95 401 91 390 Q 90 380 75 347.5 Q 60 315 60 304 Q 60 293 64.5 280 Q 69 267 77 266 Q 85 261 96 267 Q 119 280 127 354 Z" fill="lightgray" />
    
      <path d="M 127 377 L 193 388 L 291 406 Q 375 421 387 424 Q 398 426 413 426 Q 427 425 430 422 Q 435 413 430 402 Q 425 390 423 384 L 412 365 L 406 352 Q 403 348 407 345 Q 411 342 415 345 L 428 356 L 456 376 L 488 392 Q 499 396 507 398 Q 514 400 515 404 Q 520 419 500 432 Q 455 468 431 468 L 419 464 Q 412 459 403 457 L 368 450 L 339 444 Q 337 443 308 438 L 277 432 L 257 429 L 254 429 L 252 428 L 249 428 L 233 424 L 230 424 L 190 418 L 173 413 L 121 406 C 91 402 97 372 127 377 Z" fill="lightgray" />
    
      <path d="M 221 208 L 222 250 L 222 272 L 221 274 L 220 292 C 219 315 219 315 217 316 L 186 326 Q 179 326 173 328 Q 167 329 164 324 Q 160 319 162 315 Q 163 310 171 299 Q 178 288 178 245 L 178 211 Q 181 165 168 77 Q 143 -21 143 -41 Q 143 -60 148 -70 Q 153 -80 155 -85 L 161 -97 Q 165 -101 169 -101 Q 191 -101 199 -30 Q 201 -13 202 -9 L 212 86 L 215 111 L 219 180 L 221 208 Z" fill="lightgray" />
    
      <path d="M 220 292 L 298 304 Q 340 310 355 301 Q 363 296 363 270 L 360 220 L 360 198 L 360 124 L 360 102 L 358 10 Q 357 -5 352 -17 Q 345 -37 331 -30 Q 316 -23 306 -19 L 285 -11 Q 274 -8 271 -11 Q 268 -13 272 -17 L 304 -57 L 322 -83 L 327 -93 L 332 -102 Q 339 -116 349 -116 Q 353 -117 363 -111 Q 385 -103 399 -52 Q 405 -30 406 -11 L 408 31 L 406 160 Q 404 172 406 200 Q 406 231 412 263 Q 416 273 418 284 Q 427 302 426 306 Q 426 321 385 342 Q 369 350 362 350 Q 354 350 340 343 Q 325 335 294 331 L 217 316 C 188 310 190 287 220 292 Z" fill="lightgray" />
    
      <path d="M 360 220 L 346 224 Q 328 227 312 224 Q 295 220 290 220 L 271 216 L 221 208 C 191 203 189 179 219 180 L 259 181 L 305 182 L 332 186 L 348 190 L 349 191 Q 351 192 360 198 C 383 213 383 213 360 220 Z" fill="lightgray" />
    
      <path d="M 360 124 L 348 128 Q 334 132 290 125 L 249 117 Q 225 113 215 111 C 186 105 182 85 212 86 L 294 88 Q 339 91 346 96 Q 352 97 360 102 C 384 116 384 116 360 124 Z" fill="lightgray" />
    
      <path d="M 574 624 L 536 616 Q 532 615 509 612 L 465 615 Q 442 611 480 580 Q 495 568 502 567.5 Q 509 567 539 579 Q 569 591 583 598 L 623 610 L 668 624 Q 678 627 680 630 Q 681 634 678 638 Q 673 642 666 641 L 621 633 L 574 624 Z" fill="lightgray" />
    
      <path d="M 583 598 L 599 552 Q 604 534 617 535 Q 629 538 628 562 L 623 610 L 621 633 L 619 657 L 617 672 Q 615 676 617 683 Q 619 690 619 694 Q 617 705 582.5 710 Q 548 715 544 710 Q 540 705 541 702.5 Q 542 700 548 690 L 558 672 L 567 649 L 574 624 L 583 598 Z" fill="lightgray" />
    
      <path d="M 780 654 L 755 650 L 730 645 L 713 643 Q 704 641 707 633 Q 711 629 716 626 Q 731 621 771 621 L 815 630 L 933 646 Q 945 648 947 655 Q 949 662 937 666 Q 919 673 907.5 679 Q 896 685 881 682 L 865 678 L 833 668 L 780 654 Z" fill="lightgray" />
    
      <path d="M 789 700 Q 788 690 787 688 L 787 686 L 780 654 L 771 621 L 765 596 L 750 554 Q 748 546 752 544.5 Q 756 543 760 550 L 771 560 L 784 575 Q 790 583 815 630 L 833 668 L 845 697 L 846 698 Q 848 701 854.5 712 Q 861 723 861.5 729.5 Q 862 736 850 743 L 826 759 Q 796 771 790 767 Q 787 758 787 757 L 790 741 Q 791 737 790 713 L 789 700 Z" fill="lightgray" />
    
      <path d="M 779 499 L 846 512 Q 853 512 860 516 Q 867 520 869 524 Q 869 536 830 544 Q 815 547 809 547 L 791 543 L 771 539 L 760 536 Q 746 532 739 531 L 689 521 Q 664 516 626 510 L 527 496 Q 506 494 521 478 Q 529 470 556 470 L 584 472 L 644 478 L 675 484 Q 731 492 733 492 L 779 499 Z" fill="lightgray" />
    
      <path d="M 534 367 L 547 376 Q 555 380 561 386 L 578 400 L 603 424 L 624 449 Q 634 459 646 468 Q 647 469 644 478 C 636 507 600 498 584 472 L 571 451 Q 566 436 525 390 L 492 356 L 479 346 Q 476 341 477 338 Q 479 336 486 339 L 498 344 Q 504 349 511 350 Q 515 354 524 359 L 534 367 Z" fill="lightgray" />
    
      <path d="M 578 400 L 590 400 Q 597 400 617 404 Q 635 415 645 401 Q 650 395 622 357 L 590 315 L 567 292 L 507 242 L 452 209 Q 448 206 448 203 Q 450 200 454 201 L 471 206 Q 483 208 503 218 Q 523 228 537 234 L 569 255 Q 577 262 597 277 Q 617 291 642 318 L 687 377 Q 695 389 708 397 Q 721 404 723 408 Q 725 411 719 422 Q 715 427 695 440 Q 674 452 669 451 Q 663 449 652 443 Q 641 436 630 433 Q 618 430 603 424 C 575 413 548 400 578 400 Z" fill="lightgray" />
    
      <path d="M 590 315 L 582 338 Q 582 343 563 354 Q 544 365 534 367 C 515 372 515 372 524 359 L 537 340 L 556 306 Q 558 304 567 292 C 585 268 600 287 590 315 Z" fill="lightgray" />
    
      <path d="M 881 492 Q 877 476 872 468 Q 866 460 865 458 L 861 454 L 848 434 Q 842 426 835 421 L 814 403 L 773 377 C 749 361 749 361 772 365 L 774 365 Q 775 366 781 366 L 783 367 L 814 375 Q 830 379 849 390 Q 876 409 877 410 L 900 430 Q 901 431 925 449 Q 938 455 938 458 Q 939 464 934 469 Q 929 474 908 486 Q 887 497 881 492 Z" fill="lightgray" />
    
      <path d="M 773 377 L 774 399 L 781 445 Q 785 465 793 481 Q 795 485 779 499 C 758 520 729 522 733 492 L 735 478 Q 737 464 737 444 L 736 371 Q 735 337 747 318 Q 759 302 783 286 Q 827 259 926 280 Q 963 288 984 300 Q 1004 311 1008 322 Q 1011 332 1010 336 Q 1009 339 1000 348 Q 991 357 987 366 L 970 398 L 966 411 Q 965 416 961 419 Q 953 425 951 412 L 951 398 Q 949 380 947 371 Q 945 361 936 347 Q 914 319 851 322 Q 810 323 795 332 Q 772 341 772 356 L 772 365 L 773 377 Z" fill="lightgray" />
    
      <path d="M 572 159 L 514 154 L 479 148 L 463 148 Q 454 147 451.5 142.5 Q 449 138 452 133 Q 461 124 498 112 Q 524 110 569 120 L 616 128 L 769 143 L 821 148 L 875 151 Q 908 151 934 155 L 972 156 L 986 156 Q 998 156 999 163 Q 1001 169 995.5 174.5 Q 990 180 972 189 L 947 203 Q 937 206 927 206 L 823 189 L 767 183 L 620 164 L 572 159 Z" fill="lightgray" />
    
      <path d="M 566 244 Q 556 244 556 236 Q 555 233 560 222 L 566 210 Q 571 200 571 184 L 572 159 L 569 120 L 566 98 Q 546 9 479 -58 Q 461 -76 453 -81 L 439 -90 Q 435 -91 437 -97 Q 438 -99 445 -98 L 457 -93 Q 556 -52 595 46 Q 607 76 609.5 89 Q 612 102 616 128 L 620 164 L 620 183 Q 620 201 624 208 L 626 220 Q 625 224 615 229.5 Q 605 235 597 237 L 577 242 L 566 244 Z" fill="lightgray" />
    
      <path d="M 769 143 L 765 -36 Q 765 -73 766 -81 L 766 -98 Q 766 -109 770.5 -135 Q 775 -161 782 -161 Q 784 -163 787 -158 Q 801 -137 806 -101 L 812 -68 Q 815 -45 817 -2 L 821 148 L 823 189 L 829 214 L 835 227 Q 831 245 804.5 255.5 Q 778 266 771.5 266 Q 765 266 759 264 Q 755 258 758 244 L 761 228 Q 762 224 763 220 L 765 208 L 765 195 Q 765 187 767 183 L 769 143 Z" fill="lightgray" />
    
    
      <clipPath id="make-me-a-hanzi-clip-0">
        <path d="M 221 665 L 203 673 Q 150 696 157 666 L 165 639 Q 167 628 169 606 L 190 418 C 193 388 231 394 230 424 L 221 631 C 220 661 223 664 221 665 Z" />
      </clipPath>
      <path clip-path="url(#make-me-a-hanzi-clip-0)" d="M 168 672 L 193 646 L 208 444 L 196 427" fill="none" id="make-me-a-hanzi-animation-0" stroke-dasharray="387 774" stroke-linecap="round" />
    
      <clipPath id="make-me-a-hanzi-clip-1">
        <path d="M 403 457 L 437 621 Q 438 637 449 651 L 459 668 Q 459 674 450 684 Q 440 693 431 699 Q 421 704 405 710 Q 389 716 384 714 Q 379 712 368 708 L 340 696 Q 305 686 295 683 L 221 665 C 192 658 192 623 221 631 L 335 663 Q 351 667 361 669 Q 374 669 379 665 Q 383 660 382 639 L 379 592 L 377 570 L 368 450 C 366 420 397 428 403 457 Z" />
      </clipPath>
      <path clip-path="url(#make-me-a-hanzi-clip-1)" d="M 227 637 L 247 656 L 368 688 L 391 688 L 416 665 L 390 483 L 373 457" fill="none" id="make-me-a-hanzi-animation-1" stroke-dasharray="553 1106" stroke-linecap="round" />
    
      <clipPath id="make-me-a-hanzi-clip-2">
        <path d="M 315 554 L 324 552 Q 325 551 334 553 L 353 560 L 377 570 C 405 582 409 588 379 592 L 365 594 Q 360 594 355 594 L 352 595 Q 351 595 350 596 L 349 596 L 347 595 Q 342 590 331 587 L 313 580 C 285 569 286 561 315 554 Z" />
      </clipPath>
      <path clip-path="url(#make-me-a-hanzi-clip-2)" d="M 321 561 L 371 587" fill="none" id="make-me-a-hanzi-animation-2" stroke-dasharray="184 368" stroke-linecap="round" />
    
      <clipPath id="make-me-a-hanzi-clip-3">
        <path d="M 308 438 L 315 554 C 316 579 316 579 313 580 L 299 585 Q 291 590 280 592 Q 266 597 263 592 Q 261 586 266 572 Q 271 557 271 534 L 277 432 C 279 402 306 408 308 438 Z" />
      </clipPath>
      <path clip-path="url(#make-me-a-hanzi-clip-3)" d="M 268 588 L 292 558 L 293 461 L 284 440" fill="none" id="make-me-a-hanzi-animation-3" stroke-dasharray="286 572" stroke-linecap="round" />
    
      <clipPath id="make-me-a-hanzi-clip-4">
        <path d="M 127 354 L 128 356 Q 128 372 127 377 L 121 406 L 111 422 Q 109 428 104 423.5 Q 99 419 97 410 Q 95 401 91 390 Q 90 380 75 347.5 Q 60 315 60 304 Q 60 293 64.5 280 Q 69 267 77 266 Q 85 261 96 267 Q 119 280 127 354 Z" />
      </clipPath>
      <path clip-path="url(#make-me-a-hanzi-clip-4)" d="M 106 414 L 106 363 L 82 283" fill="none" id="make-me-a-hanzi-animation-4" stroke-dasharray="263 526" stroke-linecap="round" />
    
      <clipPath id="make-me-a-hanzi-clip-5">
        <path d="M 127 377 L 193 388 L 291 406 Q 375 421 387 424 Q 398 426 413 426 Q 427 425 430 422 Q 435 413 430 402 Q 425 390 423 384 L 412 365 L 406 352 Q 403 348 407 345 Q 411 342 415 345 L 428 356 L 456 376 L 488 392 Q 499 396 507 398 Q 514 400 515 404 Q 520 419 500 432 Q 455 468 431 468 L 419 464 Q 412 459 403 457 L 368 450 L 339 444 Q 337 443 308 438 L 277 432 L 257 429 L 254 429 L 252 428 L 249 428 L 233 424 L 230 424 L 190 418 L 173 413 L 121 406 C 91 402 97 372 127 377 Z" />
      </clipPath>
      <path clip-path="url(#make-me-a-hanzi-clip-5)" d="M 128 400 L 138 394 L 158 396 L 432 446 L 449 438 L 465 417 L 411 349" fill="none" id="make-me-a-hanzi-animation-5" stroke-dasharray="570 1140" stroke-linecap="round" />
    
      <clipPath id="make-me-a-hanzi-clip-6">
        <path d="M 221 208 L 222 250 L 222 272 L 221 274 L 220 292 C 219 315 219 315 217 316 L 186 326 Q 179 326 173 328 Q 167 329 164 324 Q 160 319 162 315 Q 163 310 171 299 Q 178 288 178 245 L 178 211 Q 181 165 168 77 Q 143 -21 143 -41 Q 143 -60 148 -70 Q 153 -80 155 -85 L 161 -97 Q 165 -101 169 -101 Q 191 -101 199 -30 Q 201 -13 202 -9 L 212 86 L 215 111 L 219 180 L 221 208 Z" />
      </clipPath>
      <path clip-path="url(#make-me-a-hanzi-clip-6)" d="M 171 317 L 197 295 L 200 188 L 194 107 L 169 -47 L 170 -90" fill="none" id="make-me-a-hanzi-animation-6" stroke-dasharray="549 1098" stroke-linecap="round" />
    
      <clipPath id="make-me-a-hanzi-clip-7">
        <path d="M 220 292 L 298 304 Q 340 310 355 301 Q 363 296 363 270 L 360 220 L 360 198 L 360 124 L 360 102 L 358 10 Q 357 -5 352 -17 Q 345 -37 331 -30 Q 316 -23 306 -19 L 285 -11 Q 274 -8 271 -11 Q 268 -13 272 -17 L 304 -57 L 322 -83 L 327 -93 L 332 -102 Q 339 -116 349 -116 Q 353 -117 363 -111 Q 385 -103 399 -52 Q 405 -30 406 -11 L 408 31 L 406 160 Q 404 172 406 200 Q 406 231 412 263 Q 416 273 418 284 Q 427 302 426 306 Q 426 321 385 342 Q 369 350 362 350 Q 354 350 340 343 Q 325 335 294 331 L 217 316 C 188 310 190 287 220 292 Z" />
      </clipPath>
      <path clip-path="url(#make-me-a-hanzi-clip-7)" d="M 227 299 L 231 306 L 355 326 L 368 323 L 391 302 L 383 215 L 384 25 L 378 -26 L 355 -66 L 326 -52 L 278 -13" fill="none" id="make-me-a-hanzi-animation-7" stroke-dasharray="775 1550" stroke-linecap="round" />
    
      <clipPath id="make-me-a-hanzi-clip-8">
        <path d="M 360 220 L 346 224 Q 328 227 312 224 Q 295 220 290 220 L 271 216 L 221 208 C 191 203 189 179 219 180 L 259 181 L 305 182 L 332 186 L 348 190 L 349 191 Q 351 192 360 198 C 383 213 383 213 360 220 Z" />
      </clipPath>
      <path clip-path="url(#make-me-a-hanzi-clip-8)" d="M 226 187 L 235 195 L 343 207 L 351 215" fill="none" id="make-me-a-hanzi-animation-8" stroke-dasharray="260 520" stroke-linecap="round" />
    
      <clipPath id="make-me-a-hanzi-clip-9">
        <path d="M 360 124 L 348 128 Q 334 132 290 125 L 249 117 Q 225 113 215 111 C 186 105 182 85 212 86 L 294 88 Q 339 91 346 96 Q 352 97 360 102 C 384 116 384 116 360 124 Z" />
      </clipPath>
      <path clip-path="url(#make-me-a-hanzi-clip-9)" d="M 219 92 L 227 100 L 336 111 L 352 119" fill="none" id="make-me-a-hanzi-animation-9" stroke-dasharray="267 534" stroke-linecap="round" />
    
      <clipPath id="make-me-a-hanzi-clip-10">
        <path d="M 574 624 L 536 616 Q 532 615 509 612 L 465 615 Q 442 611 480 580 Q 495 568 502 567.5 Q 509 567 539 579 Q 569 591 583 598 L 623 610 L 668 624 Q 678 627 680 630 Q 681 634 678 638 Q 673 642 666 641 L 621 633 L 574 624 Z" />
      </clipPath>
      <path clip-path="url(#make-me-a-hanzi-clip-10)" d="M 465 606 L 478 597 L 509 590 L 671 632" fill="none" id="make-me-a-hanzi-animation-10" stroke-dasharray="343 686" stroke-linecap="round" />
    
      <clipPath id="make-me-a-hanzi-clip-11">
        <path d="M 583 598 L 599 552 Q 604 534 617 535 Q 629 538 628 562 L 623 610 L 621 633 L 619 657 L 617 672 Q 615 676 617 683 Q 619 690 619 694 Q 617 705 582.5 710 Q 548 715 544 710 Q 540 705 541 702.5 Q 542 700 548 690 L 558 672 L 567 649 L 574 624 L 583 598 Z" />
      </clipPath>
      <path clip-path="url(#make-me-a-hanzi-clip-11)" d="M 550 703 L 587 681 L 615 546" fill="none" id="make-me-a-hanzi-animation-11" stroke-dasharray="309 618" stroke-linecap="round" />
    
      <clipPath id="make-me-a-hanzi-clip-12">
        <path d="M 780 654 L 755 650 L 730 645 L 713 643 Q 704 641 707 633 Q 711 629 716 626 Q 731 621 771 621 L 815 630 L 933 646 Q 945 648 947 655 Q 949 662 937 666 Q 919 673 907.5 679 Q 896 685 881 682 L 865 678 L 833 668 L 780 654 Z" />
      </clipPath>
      <path clip-path="url(#make-me-a-hanzi-clip-12)" d="M 716 635 L 775 637 L 889 662 L 938 657" fill="none" id="make-me-a-hanzi-animation-12" stroke-dasharray="353 706" stroke-linecap="round" />
    
      <clipPath id="make-me-a-hanzi-clip-13">
        <path d="M 789 700 Q 788 690 787 688 L 787 686 L 780 654 L 771 621 L 765 596 L 750 554 Q 748 546 752 544.5 Q 756 543 760 550 L 771 560 L 784 575 Q 790 583 815 630 L 833 668 L 845 697 L 846 698 Q 848 701 854.5 712 Q 861 723 861.5 729.5 Q 862 736 850 743 L 826 759 Q 796 771 790 767 Q 787 758 787 757 L 790 741 Q 791 737 790 713 L 789 700 Z" />
      </clipPath>
      <path clip-path="url(#make-me-a-hanzi-clip-13)" d="M 794 760 L 811 744 L 822 722 L 794 628 L 754 550" fill="none" id="make-me-a-hanzi-animation-13" stroke-dasharray="362 724" stroke-linecap="round" />
    
      <clipPath id="make-me-a-hanzi-clip-14">
        <path d="M 779 499 L 846 512 Q 853 512 860 516 Q 867 520 869 524 Q 869 536 830 544 Q 815 547 809 547 L 791 543 L 771 539 L 760 536 Q 746 532 739 531 L 689 521 Q 664 516 626 510 L 527 496 Q 506 494 521 478 Q 529 470 556 470 L 584 472 L 644 478 L 675 484 Q 731 492 733 492 L 779 499 Z" />
      </clipPath>
      <path clip-path="url(#make-me-a-hanzi-clip-14)" d="M 524 487 L 549 484 L 649 495 L 820 527 L 861 524" fill="none" id="make-me-a-hanzi-animation-14" stroke-dasharray="469 938" stroke-linecap="round" />
    
      <clipPath id="make-me-a-hanzi-clip-15">
        <path d="M 534 367 L 547 376 Q 555 380 561 386 L 578 400 L 603 424 L 624 449 Q 634 459 646 468 Q 647 469 644 478 C 636 507 600 498 584 472 L 571 451 Q 566 436 525 390 L 492 356 L 479 346 Q 476 341 477 338 Q 479 336 486 339 L 498 344 Q 504 349 511 350 Q 515 354 524 359 L 534 367 Z" />
      </clipPath>
      <path clip-path="url(#make-me-a-hanzi-clip-15)" d="M 637 471 L 597 450 L 534 380 L 481 341" fill="none" id="make-me-a-hanzi-animation-15" stroke-dasharray="333 666" stroke-linecap="round" />
    
      <clipPath id="make-me-a-hanzi-clip-16">
        <path d="M 578 400 L 590 400 Q 597 400 617 404 Q 635 415 645 401 Q 650 395 622 357 L 590 315 L 567 292 L 507 242 L 452 209 Q 448 206 448 203 Q 450 200 454 201 L 471 206 Q 483 208 503 218 Q 523 228 537 234 L 569 255 Q 577 262 597 277 Q 617 291 642 318 L 687 377 Q 695 389 708 397 Q 721 404 723 408 Q 725 411 719 422 Q 715 427 695 440 Q 674 452 669 451 Q 663 449 652 443 Q 641 436 630 433 Q 618 430 603 424 C 575 413 548 400 578 400 Z" />
      </clipPath>
      <path clip-path="url(#make-me-a-hanzi-clip-16)" d="M 584 402 L 614 417 L 640 422 L 672 418 L 675 413 L 649 359 L 602 302 L 527 242 L 452 205" fill="none" id="make-me-a-hanzi-animation-16" stroke-dasharray="540 1080" stroke-linecap="round" />
    
      <clipPath id="make-me-a-hanzi-clip-17">
        <path d="M 590 315 L 582 338 Q 582 343 563 354 Q 544 365 534 367 C 515 372 515 372 524 359 L 537 340 L 556 306 Q 558 304 567 292 C 585 268 600 287 590 315 Z" />
      </clipPath>
      <path clip-path="url(#make-me-a-hanzi-clip-17)" d="M 533 358 L 567 326 L 567 300" fill="none" id="make-me-a-hanzi-animation-17" stroke-dasharray="201 402" stroke-linecap="round" />
    
      <clipPath id="make-me-a-hanzi-clip-18">
        <path d="M 881 492 Q 877 476 872 468 Q 866 460 865 458 L 861 454 L 848 434 Q 842 426 835 421 L 814 403 L 773 377 C 749 361 749 361 772 365 L 774 365 Q 775 366 781 366 L 783 367 L 814 375 Q 830 379 849 390 Q 876 409 877 410 L 900 430 Q 901 431 925 449 Q 938 455 938 458 Q 939 464 934 469 Q 929 474 908 486 Q 887 497 881 492 Z" />
      </clipPath>
      <path clip-path="url(#make-me-a-hanzi-clip-18)" d="M 927 460 L 897 461 L 848 408 L 773 371" fill="none" id="make-me-a-hanzi-animation-18" stroke-dasharray="314 628" stroke-linecap="round" />
    
      <clipPath id="make-me-a-hanzi-clip-19">
        <path d="M 773 377 L 774 399 L 781 445 Q 785 465 793 481 Q 795 485 779 499 C 758 520 729 522 733 492 L 735 478 Q 737 464 737 444 L 736 371 Q 735 337 747 318 Q 759 302 783 286 Q 827 259 926 280 Q 963 288 984 300 Q 1004 311 1008 322 Q 1011 332 1010 336 Q 1009 339 1000 348 Q 991 357 987 366 L 970 398 L 966 411 Q 965 416 961 419 Q 953 425 951 412 L 951 398 Q 949 380 947 371 Q 945 361 936 347 Q 914 319 851 322 Q 810 323 795 332 Q 772 341 772 356 L 772 365 L 773 377 Z" />
      </clipPath>
      <path clip-path="url(#make-me-a-hanzi-clip-19)" d="M 742 486 L 762 471 L 754 393 L 757 340 L 772 320 L 799 304 L 829 297 L 891 298 L 929 307 L 963 327 L 968 331 L 959 412" fill="none" id="make-me-a-hanzi-animation-19" stroke-dasharray="600 1200" stroke-linecap="round" />
    
      <clipPath id="make-me-a-hanzi-clip-20">
        <path d="M 572 159 L 514 154 L 479 148 L 463 148 Q 454 147 451.5 142.5 Q 449 138 452 133 Q 461 124 498 112 Q 524 110 569 120 L 616 128 L 769 143 L 821 148 L 875 151 Q 908 151 934 155 L 972 156 L 986 156 Q 998 156 999 163 Q 1001 169 995.5 174.5 Q 990 180 972 189 L 947 203 Q 937 206 927 206 L 823 189 L 767 183 L 620 164 L 572 159 Z" />
      </clipPath>
      <path clip-path="url(#make-me-a-hanzi-clip-20)" d="M 461 138 L 495 131 L 924 180 L 989 166" fill="none" id="make-me-a-hanzi-animation-20" stroke-dasharray="661 1322" stroke-linecap="round" />
    
      <clipPath id="make-me-a-hanzi-clip-21">
        <path d="M 566 244 Q 556 244 556 236 Q 555 233 560 222 L 566 210 Q 571 200 571 184 L 572 159 L 569 120 L 566 98 Q 546 9 479 -58 Q 461 -76 453 -81 L 439 -90 Q 435 -91 437 -97 Q 438 -99 445 -98 L 457 -93 Q 556 -52 595 46 Q 607 76 609.5 89 Q 612 102 616 128 L 620 164 L 620 183 Q 620 201 624 208 L 626 220 Q 625 224 615 229.5 Q 605 235 597 237 L 577 242 L 566 244 Z" />
      </clipPath>
      <path clip-path="url(#make-me-a-hanzi-clip-21)" d="M 568 232 L 595 208 L 593 124 L 580 62 L 554 8 L 520 -37 L 476 -76 L 441 -94" fill="none" id="make-me-a-hanzi-animation-21" stroke-dasharray="526 1052" stroke-linecap="round" />
    
      <clipPath id="make-me-a-hanzi-clip-22">
        <path d="M 769 143 L 765 -36 Q 765 -73 766 -81 L 766 -98 Q 766 -109 770.5 -135 Q 775 -161 782 -161 Q 784 -163 787 -158 Q 801 -137 806 -101 L 812 -68 Q 815 -45 817 -2 L 821 148 L 823 189 L 829 214 L 835 227 Q 831 245 804.5 255.5 Q 778 266 771.5 266 Q 765 266 759 264 Q 755 258 758 244 L 761 228 Q 762 224 763 220 L 765 208 L 765 195 Q 765 187 767 183 L 769 143 Z" />
      </clipPath>
      <path clip-path="url(#make-me-a-hanzi-clip-22)" d="M 766 258 L 797 223 L 792 -9 L 782 -155" fill="none" id="make-me-a-hanzi-animation-22" stroke-dasharray="553 1106" stroke-linecap="round" />
    
  </g>
</svg>