<svg xmlns="http://www.w3.org/2000/svg" version="1.1" viewBox="0 0 1024 1024">
  <g stroke="lightgray" stroke-dasharray="1,1" stroke-width="1" transform="scale(4, 4)">
    <line x1="0" y1="0" x2="256" y2="256" />
    <line x1="256" y1="0" x2="0" y2="256" />
    <line x1="128" y1="0" x2="128" y2="256" />
    <line x1="0" y1="128" x2="256" y2="128" />
  </g>
  <g transform="scale(1.0, -1.0) translate(0.0, -825.50)">
    <style type="text/css">
      
        @keyframes keyframes0 {
          from {
            stroke: blue;
            stroke-dashoffset: 433;
            stroke-width: 128;
          }
          58% {
            animation-timing-function: step-end;
            stroke: blue;
            stroke-dashoffset: 0;
            stroke-width: 128;
          }
          to {
            stroke: black;
            stroke-width: 1024;
          }
        }
        #make-me-a-hanzi-animation-0 {
          animation: keyframes0 0.6023763020833334s both;
          animation-delay: 0s;
          animation-timing-function: linear;
        }
      
        @keyframes keyframes1 {
          from {
            stroke: blue;
            stroke-dashoffset: 505;
            stroke-width: 128;
          }
          62% {
            animation-timing-function: step-end;
            stroke: blue;
            stroke-dashoffset: 0;
            stroke-width: 128;
          }
          to {
            stroke: black;
            stroke-width: 1024;
          }
        }
        #make-me-a-hanzi-animation-1 {
          animation: keyframes1 0.6609700520833334s both;
          animation-delay: 0.6023763020833334s;
          animation-timing-function: linear;
        }
      
        @keyframes keyframes2 {
          from {
            stroke: blue;
            stroke-dashoffset: 409;
            stroke-width: 128;
          }
          57% {
            animation-timing-function: step-end;
            stroke: blue;
            stroke-dashoffset: 0;
            stroke-width: 128;
          }
          to {
            stroke: black;
            stroke-width: 1024;
          }
        }
        #make-me-a-hanzi-animation-2 {
          animation: keyframes2 0.5828450520833334s both;
          animation-delay: 1.2633463541666667s;
          animation-timing-function: linear;
        }
      
        @keyframes keyframes3 {
          from {
            stroke: blue;
            stroke-dashoffset: 406;
            stroke-width: 128;
          }
          57% {
            animation-timing-function: step-end;
            stroke: blue;
            stroke-dashoffset: 0;
            stroke-width: 128;
          }
          to {
            stroke: black;
            stroke-width: 1024;
          }
        }
        #make-me-a-hanzi-animation-3 {
          animation: keyframes3 0.5804036458333334s both;
          animation-delay: 1.84619140625s;
          animation-timing-function: linear;
        }
      
        @keyframes keyframes4 {
          from {
            stroke: blue;
            stroke-dashoffset: 656;
            stroke-width: 128;
          }
          68% {
            animation-timing-function: step-end;
            stroke: blue;
            stroke-dashoffset: 0;
            stroke-width: 128;
          }
          to {
            stroke: black;
            stroke-width: 1024;
          }
        }
        #make-me-a-hanzi-animation-4 {
          animation: keyframes4 0.7838541666666666s both;
          animation-delay: 2.4265950520833335s;
          animation-timing-function: linear;
        }
      
        @keyframes keyframes5 {
          from {
            stroke: blue;
            stroke-dashoffset: 552;
            stroke-width: 128;
          }
          64% {
            animation-timing-function: step-end;
            stroke: blue;
            stroke-dashoffset: 0;
            stroke-width: 128;
          }
          to {
            stroke: black;
            stroke-width: 1024;
          }
        }
        #make-me-a-hanzi-animation-5 {
          animation: keyframes5 0.69921875s both;
          animation-delay: 3.21044921875s;
          animation-timing-function: linear;
        }
      
        @keyframes keyframes6 {
          from {
            stroke: blue;
            stroke-dashoffset: 338;
            stroke-width: 128;
          }
          52% {
            animation-timing-function: step-end;
            stroke: blue;
            stroke-dashoffset: 0;
            stroke-width: 128;
          }
          to {
            stroke: black;
            stroke-width: 1024;
          }
        }
        #make-me-a-hanzi-animation-6 {
          animation: keyframes6 0.5250651041666666s both;
          animation-delay: 3.90966796875s;
          animation-timing-function: linear;
        }
      
        @keyframes keyframes7 {
          from {
            stroke: blue;
            stroke-dashoffset: 494;
            stroke-width: 128;
          }
          62% {
            animation-timing-function: step-end;
            stroke: blue;
            stroke-dashoffset: 0;
            stroke-width: 128;
          }
          to {
            stroke: black;
            stroke-width: 1024;
          }
        }
        #make-me-a-hanzi-animation-7 {
          animation: keyframes7 0.6520182291666666s both;
          animation-delay: 4.434733072916667s;
          animation-timing-function: linear;
        }
      
        @keyframes keyframes8 {
          from {
            stroke: blue;
            stroke-dashoffset: 493;
            stroke-width: 128;
          }
          62% {
            animation-timing-function: step-end;
            stroke: blue;
            stroke-dashoffset: 0;
            stroke-width: 128;
          }
          to {
            stroke: black;
            stroke-width: 1024;
          }
        }
        #make-me-a-hanzi-animation-8 {
          animation: keyframes8 0.6512044270833334s both;
          animation-delay: 5.086751302083334s;
          animation-timing-function: linear;
        }
      
        @keyframes keyframes9 {
          from {
            stroke: blue;
            stroke-dashoffset: 515;
            stroke-width: 128;
          }
          63% {
            animation-timing-function: step-end;
            stroke: blue;
            stroke-dashoffset: 0;
            stroke-width: 128;
          }
          to {
            stroke: black;
            stroke-width: 1024;
          }
        }
        #make-me-a-hanzi-animation-9 {
          animation: keyframes9 0.6691080729166666s both;
          animation-delay: 5.737955729166667s;
          animation-timing-function: linear;
        }
      
        @keyframes keyframes10 {
          from {
            stroke: blue;
            stroke-dashoffset: 340;
            stroke-width: 128;
          }
          53% {
            animation-timing-function: step-end;
            stroke: blue;
            stroke-dashoffset: 0;
            stroke-width: 128;
          }
          to {
            stroke: black;
            stroke-width: 1024;
          }
        }
        #make-me-a-hanzi-animation-10 {
          animation: keyframes10 0.5266927083333334s both;
          animation-delay: 6.407063802083334s;
          animation-timing-function: linear;
        }
      
        @keyframes keyframes11 {
          from {
            stroke: blue;
            stroke-dashoffset: 416;
            stroke-width: 128;
          }
          58% {
            animation-timing-function: step-end;
            stroke: blue;
            stroke-dashoffset: 0;
            stroke-width: 128;
          }
          to {
            stroke: black;
            stroke-width: 1024;
          }
        }
        #make-me-a-hanzi-animation-11 {
          animation: keyframes11 0.5885416666666666s both;
          animation-delay: 6.933756510416667s;
          animation-timing-function: linear;
        }
      
        @keyframes keyframes12 {
          from {
            stroke: blue;
            stroke-dashoffset: 981;
            stroke-width: 128;
          }
          76% {
            animation-timing-function: step-end;
            stroke: blue;
            stroke-dashoffset: 0;
            stroke-width: 128;
          }
          to {
            stroke: black;
            stroke-width: 1024;
          }
        }
        #make-me-a-hanzi-animation-12 {
          animation: keyframes12 1.04833984375s both;
          animation-delay: 7.522298177083334s;
          animation-timing-function: linear;
        }
      
        @keyframes keyframes13 {
          from {
            stroke: blue;
            stroke-dashoffset: 497;
            stroke-width: 128;
          }
          62% {
            animation-timing-function: step-end;
            stroke: blue;
            stroke-dashoffset: 0;
            stroke-width: 128;
          }
          to {
            stroke: black;
            stroke-width: 1024;
          }
        }
        #make-me-a-hanzi-animation-13 {
          animation: keyframes13 0.6544596354166666s both;
          animation-delay: 8.570638020833334s;
          animation-timing-function: linear;
        }
      
        @keyframes keyframes14 {
          from {
            stroke: blue;
            stroke-dashoffset: 775;
            stroke-width: 128;
          }
          72% {
            animation-timing-function: step-end;
            stroke: blue;
            stroke-dashoffset: 0;
            stroke-width: 128;
          }
          to {
            stroke: black;
            stroke-width: 1024;
          }
        }
        #make-me-a-hanzi-animation-14 {
          animation: keyframes14 0.8806966145833334s both;
          animation-delay: 9.22509765625s;
          animation-timing-function: linear;
        }
      
        @keyframes keyframes15 {
          from {
            stroke: blue;
            stroke-dashoffset: 558;
            stroke-width: 128;
          }
          64% {
            animation-timing-function: step-end;
            stroke: blue;
            stroke-dashoffset: 0;
            stroke-width: 128;
          }
          to {
            stroke: black;
            stroke-width: 1024;
          }
        }
        #make-me-a-hanzi-animation-15 {
          animation: keyframes15 0.7041015625s both;
          animation-delay: 10.105794270833334s;
          animation-timing-function: linear;
        }
      
        @keyframes keyframes16 {
          from {
            stroke: blue;
            stroke-dashoffset: 401;
            stroke-width: 128;
          }
          57% {
            animation-timing-function: step-end;
            stroke: blue;
            stroke-dashoffset: 0;
            stroke-width: 128;
          }
          to {
            stroke: black;
            stroke-width: 1024;
          }
        }
        #make-me-a-hanzi-animation-16 {
          animation: keyframes16 0.5763346354166666s both;
          animation-delay: 10.809895833333334s;
          animation-timing-function: linear;
        }
      
        @keyframes keyframes17 {
          from {
            stroke: blue;
            stroke-dashoffset: 456;
            stroke-width: 128;
          }
          60% {
            animation-timing-function: step-end;
            stroke: blue;
            stroke-dashoffset: 0;
            stroke-width: 128;
          }
          to {
            stroke: black;
            stroke-width: 1024;
          }
        }
        #make-me-a-hanzi-animation-17 {
          animation: keyframes17 0.62109375s both;
          animation-delay: 11.38623046875s;
          animation-timing-function: linear;
        }
      
    </style>
    
      <path d="M 330 715 Q 366 709 505 736 Q 508 737 511 739 Q 518 745 514 751 Q 510 760 487 766 Q 465 770 442 762 Q 417 755 389 748 Q 358 742 322 740 C 292 738 300 718 330 715 Z" fill="lightgray" />
    
      <path d="M 340 520 Q 337 551 335 578 L 334 595 Q 331 623 331 645 L 330 664 L 330 715 C 330 734 330 734 322 740 L 320 742 Q 301 755 278 762 Q 265 766 259 761 Q 252 755 258 743 Q 276 712 285 680 Q 292 646 307 514 C 310 484 343 490 340 520 Z" fill="lightgray" />
    
      <path d="M 331 645 Q 355 642 429 654 Q 448 658 469 662 Q 488 666 491 670 Q 497 674 494 681 Q 490 688 470 692 Q 464 693 386 674 Q 359 667 330 664 C 300 661 301 648 331 645 Z" fill="lightgray" />
    
      <path d="M 335 578 Q 377 572 460 589 Q 464 590 470 591 Q 489 595 491 598 Q 497 602 494 609 Q 490 616 470 621 Q 451 624 432 616 Q 393 603 336 596 Q 333 596 334 595 C 305 586 305 582 335 578 Z" fill="lightgray" />
    
      <path d="M 348 492 Q 348 493 349 493 Q 427 506 526 517 Q 539 518 540 524 Q 541 534 528 543 Q 506 553 488 549 Q 400 533 340 520 L 307 514 Q 190 498 140 495 Q 130 494 127 488 Q 124 479 136 470 Q 167 446 201 456 Q 261 474 309 484 L 348 492 Z" fill="lightgray" />
    
      <path d="M 462 450 Q 390 434 317 414 Q 311 413 310 414 Q 309 415 312 417 Q 348 456 362 466 Q 372 475 366 482 Q 362 488 348 492 C 320 503 310 506 309 484 Q 309 445 276 418 Q 267 411 251 404 Q 232 395 231 388 Q 230 375 238 361 Q 245 348 255 344 Q 261 341 269 346 Q 326 388 472 437 C 500 447 491 457 462 450 Z" fill="lightgray" />
    
      <path d="M 472 437 Q 490 407 508 404 Q 518 401 526 415 Q 529 425 523 444 Q 511 471 459 490 Q 452 491 449 483 Q 449 479 462 450 L 472 437 Z" fill="lightgray" />
    
      <path d="M 691 766 Q 694 750 646 694 Q 621 666 565 624 Q 558 617 572 616 Q 648 637 748 724 Q 758 734 772 741 Q 782 750 779 757 Q 775 764 757 771 Q 720 783 698 778 Q 689 777 691 766 Z" fill="lightgray" />
    
      <path d="M 715 649 Q 718 631 666 578 Q 638 551 581 511 Q 575 504 587 503 Q 674 530 764 607 Q 774 617 789 624 Q 799 631 796 638 Q 792 645 776 651 Q 742 664 722 660 Q 713 659 715 649 Z" fill="lightgray" />
    
      <path d="M 746 519 Q 746 495 682 449 Q 648 422 578 387 Q 571 380 583 378 Q 673 393 787 470 Q 800 480 816 486 Q 826 492 825 499 Q 822 506 807 514 Q 774 530 754 529 Q 747 529 746 519 Z" fill="lightgray" />
    
      <path d="M 520 327 Q 527 339 520 361 Q 507 385 454 399 Q 447 400 445 391 Q 444 385 483 337 Q 490 330 497 325 C 513 313 513 313 520 327 Z" fill="lightgray" />
    
      <path d="M 232 297 Q 225 313 217 320 Q 202 335 198 312 Q 198 273 148 233 Q 130 214 149 166 Q 162 144 178 165 L 232 265 Q 232 266 233 268 C 239 282 239 282 232 297 Z" fill="lightgray" />
    
      <path d="M 233 268 Q 255 256 292 263 Q 440 300 731 319 Q 774 322 790 318 Q 806 315 805 306 Q 805 305 772 248 Q 762 236 767 232 Q 774 228 791 236 Q 843 260 883 264 Q 916 268 916 276 Q 915 286 855 342 Q 839 358 814 359 L 629 338 Q 580 334 520 327 L 497 325 Q 434 321 360 310 Q 296 300 232 297 C 202 295 204 277 233 268 Z" fill="lightgray" />
    
      <path d="M 380 227 Q 349 223 371 208 Q 407 190 471 199 L 583 218 Q 614 224 618 228 Q 625 235 622 242 Q 616 252 592 259 Q 567 265 540 256 Q 506 246 469 238 Q 429 231 380 227 Z" fill="lightgray" />
    
      <path d="M 514 111 Q 571 117 732 117 Q 750 117 755 125 Q 759 135 745 147 Q 697 183 665 175 Q 535 148 235 112 Q 216 111 230 95 Q 243 82 259 77 Q 278 73 292 77 Q 406 107 471 107 L 514 111 Z" fill="lightgray" />
    
      <path d="M 471 107 Q 483 76 482 -20 Q 481 -47 478 -53 Q 474 -65 453 -61 Q 432 -57 411 -54 Q 401 -54 399 -60 Q 398 -64 407 -73 Q 459 -118 477 -144 Q 490 -156 499 -154 Q 509 -150 520 -121 Q 535 -91 532 -36 Q 531 27 531 49 Q 537 86 514 111 C 495 134 462 136 471 107 Z" fill="lightgray" />
    
      <path d="M 319 46 Q 288 9 252 -21 Q 243 -28 237 -43 Q 230 -65 233 -81 Q 234 -100 258 -94 Q 312 -72 328 -14 Q 341 14 341 40 Q 340 49 334 51 Q 325 52 319 46 Z" fill="lightgray" />
    
      <path d="M 628 40 Q 677 -6 737 -71 Q 752 -90 766 -94 Q 773 -95 781 -86 Q 791 -73 781 -34 Q 771 18 629 68 Q 620 72 619 61 Q 618 49 628 40 Z" fill="lightgray" />
    
    
      <clipPath id="make-me-a-hanzi-clip-0">
        <path d="M 330 715 Q 366 709 505 736 Q 508 737 511 739 Q 518 745 514 751 Q 510 760 487 766 Q 465 770 442 762 Q 417 755 389 748 Q 358 742 322 740 C 292 738 300 718 330 715 Z" />
      </clipPath>
      <path clip-path="url(#make-me-a-hanzi-clip-0)" d="M 329 735 L 349 728 L 478 750 L 503 747" fill="none" id="make-me-a-hanzi-animation-0" stroke-dasharray="305 610" stroke-linecap="round" />
    
      <clipPath id="make-me-a-hanzi-clip-1">
        <path d="M 340 520 Q 337 551 335 578 L 334 595 Q 331 623 331 645 L 330 664 L 330 715 C 330 734 330 734 322 740 L 320 742 Q 301 755 278 762 Q 265 766 259 761 Q 252 755 258 743 Q 276 712 285 680 Q 292 646 307 514 C 310 484 343 490 340 520 Z" />
      </clipPath>
      <path clip-path="url(#make-me-a-hanzi-clip-1)" d="M 266 753 L 290 733 L 303 713 L 322 541 L 321 533 L 310 526" fill="none" id="make-me-a-hanzi-animation-1" stroke-dasharray="377 754" stroke-linecap="round" />
    
      <clipPath id="make-me-a-hanzi-clip-2">
        <path d="M 331 645 Q 355 642 429 654 Q 448 658 469 662 Q 488 666 491 670 Q 497 674 494 681 Q 490 688 470 692 Q 464 693 386 674 Q 359 667 330 664 C 300 661 301 648 331 645 Z" />
      </clipPath>
      <path clip-path="url(#make-me-a-hanzi-clip-2)" d="M 335 650 L 485 678" fill="none" id="make-me-a-hanzi-animation-2" stroke-dasharray="281 562" stroke-linecap="round" />
    
      <clipPath id="make-me-a-hanzi-clip-3">
        <path d="M 335 578 Q 377 572 460 589 Q 464 590 470 591 Q 489 595 491 598 Q 497 602 494 609 Q 490 616 470 621 Q 451 624 432 616 Q 393 603 336 596 Q 333 596 334 595 C 305 586 305 582 335 578 Z" />
      </clipPath>
      <path clip-path="url(#make-me-a-hanzi-clip-3)" d="M 337 591 L 353 586 L 485 606" fill="none" id="make-me-a-hanzi-animation-3" stroke-dasharray="278 556" stroke-linecap="round" />
    
      <clipPath id="make-me-a-hanzi-clip-4">
        <path d="M 348 492 Q 348 493 349 493 Q 427 506 526 517 Q 539 518 540 524 Q 541 534 528 543 Q 506 553 488 549 Q 400 533 340 520 L 307 514 Q 190 498 140 495 Q 130 494 127 488 Q 124 479 136 470 Q 167 446 201 456 Q 261 474 309 484 L 348 492 Z" />
      </clipPath>
      <path clip-path="url(#make-me-a-hanzi-clip-4)" d="M 137 484 L 162 476 L 190 476 L 465 528 L 505 533 L 530 527" fill="none" id="make-me-a-hanzi-animation-4" stroke-dasharray="528 1056" stroke-linecap="round" />
    
      <clipPath id="make-me-a-hanzi-clip-5">
        <path d="M 462 450 Q 390 434 317 414 Q 311 413 310 414 Q 309 415 312 417 Q 348 456 362 466 Q 372 475 366 482 Q 362 488 348 492 C 320 503 310 506 309 484 Q 309 445 276 418 Q 267 411 251 404 Q 232 395 231 388 Q 230 375 238 361 Q 245 348 255 344 Q 261 341 269 346 Q 326 388 472 437 C 500 447 491 457 462 450 Z" />
      </clipPath>
      <path clip-path="url(#make-me-a-hanzi-clip-5)" d="M 357 476 L 329 466 L 293 412 L 290 393 L 320 396 L 428 434 L 456 440 L 462 434" fill="none" id="make-me-a-hanzi-animation-5" stroke-dasharray="424 848" stroke-linecap="round" />
    
      <clipPath id="make-me-a-hanzi-clip-6">
        <path d="M 472 437 Q 490 407 508 404 Q 518 401 526 415 Q 529 425 523 444 Q 511 471 459 490 Q 452 491 449 483 Q 449 479 462 450 L 472 437 Z" />
      </clipPath>
      <path clip-path="url(#make-me-a-hanzi-clip-6)" d="M 457 482 L 511 420" fill="none" id="make-me-a-hanzi-animation-6" stroke-dasharray="210 420" stroke-linecap="round" />
    
      <clipPath id="make-me-a-hanzi-clip-7">
        <path d="M 691 766 Q 694 750 646 694 Q 621 666 565 624 Q 558 617 572 616 Q 648 637 748 724 Q 758 734 772 741 Q 782 750 779 757 Q 775 764 757 771 Q 720 783 698 778 Q 689 777 691 766 Z" />
      </clipPath>
      <path clip-path="url(#make-me-a-hanzi-clip-7)" d="M 769 754 L 726 747 L 645 668 L 575 626" fill="none" id="make-me-a-hanzi-animation-7" stroke-dasharray="366 732" stroke-linecap="round" />
    
      <clipPath id="make-me-a-hanzi-clip-8">
        <path d="M 715 649 Q 718 631 666 578 Q 638 551 581 511 Q 575 504 587 503 Q 674 530 764 607 Q 774 617 789 624 Q 799 631 796 638 Q 792 645 776 651 Q 742 664 722 660 Q 713 659 715 649 Z" />
      </clipPath>
      <path clip-path="url(#make-me-a-hanzi-clip-8)" d="M 786 634 L 742 629 L 679 565 L 591 512" fill="none" id="make-me-a-hanzi-animation-8" stroke-dasharray="365 730" stroke-linecap="round" />
    
      <clipPath id="make-me-a-hanzi-clip-9">
        <path d="M 746 519 Q 746 495 682 449 Q 648 422 578 387 Q 571 380 583 378 Q 673 393 787 470 Q 800 480 816 486 Q 826 492 825 499 Q 822 506 807 514 Q 774 530 754 529 Q 747 529 746 519 Z" />
      </clipPath>
      <path clip-path="url(#make-me-a-hanzi-clip-9)" d="M 815 497 L 771 496 L 694 434 L 614 393 L 588 387" fill="none" id="make-me-a-hanzi-animation-9" stroke-dasharray="387 774" stroke-linecap="round" />
    
      <clipPath id="make-me-a-hanzi-clip-10">
        <path d="M 520 327 Q 527 339 520 361 Q 507 385 454 399 Q 447 400 445 391 Q 444 385 483 337 Q 490 330 497 325 C 513 313 513 313 520 327 Z" />
      </clipPath>
      <path clip-path="url(#make-me-a-hanzi-clip-10)" d="M 453 391 L 487 365 L 514 334" fill="none" id="make-me-a-hanzi-animation-10" stroke-dasharray="212 424" stroke-linecap="round" />
    
      <clipPath id="make-me-a-hanzi-clip-11">
        <path d="M 232 297 Q 225 313 217 320 Q 202 335 198 312 Q 198 273 148 233 Q 130 214 149 166 Q 162 144 178 165 L 232 265 Q 232 266 233 268 C 239 282 239 282 232 297 Z" />
      </clipPath>
      <path clip-path="url(#make-me-a-hanzi-clip-11)" d="M 208 316 L 214 296 L 211 274 L 170 212 L 164 170" fill="none" id="make-me-a-hanzi-animation-11" stroke-dasharray="288 576" stroke-linecap="round" />
    
      <clipPath id="make-me-a-hanzi-clip-12">
        <path d="M 233 268 Q 255 256 292 263 Q 440 300 731 319 Q 774 322 790 318 Q 806 315 805 306 Q 805 305 772 248 Q 762 236 767 232 Q 774 228 791 236 Q 843 260 883 264 Q 916 268 916 276 Q 915 286 855 342 Q 839 358 814 359 L 629 338 Q 580 334 520 327 L 497 325 Q 434 321 360 310 Q 296 300 232 297 C 202 295 204 277 233 268 Z" />
      </clipPath>
      <path clip-path="url(#make-me-a-hanzi-clip-12)" d="M 240 290 L 250 280 L 283 281 L 370 297 L 594 323 L 777 338 L 818 333 L 841 309 L 843 296 L 772 236" fill="none" id="make-me-a-hanzi-animation-12" stroke-dasharray="853 1706" stroke-linecap="round" />
    
      <clipPath id="make-me-a-hanzi-clip-13">
        <path d="M 380 227 Q 349 223 371 208 Q 407 190 471 199 L 583 218 Q 614 224 618 228 Q 625 235 622 242 Q 616 252 592 259 Q 567 265 540 256 Q 506 246 469 238 Q 429 231 380 227 Z" />
      </clipPath>
      <path clip-path="url(#make-me-a-hanzi-clip-13)" d="M 373 219 L 444 214 L 563 238 L 611 238" fill="none" id="make-me-a-hanzi-animation-13" stroke-dasharray="369 738" stroke-linecap="round" />
    
      <clipPath id="make-me-a-hanzi-clip-14">
        <path d="M 514 111 Q 571 117 732 117 Q 750 117 755 125 Q 759 135 745 147 Q 697 183 665 175 Q 535 148 235 112 Q 216 111 230 95 Q 243 82 259 77 Q 278 73 292 77 Q 406 107 471 107 L 514 111 Z" />
      </clipPath>
      <path clip-path="url(#make-me-a-hanzi-clip-14)" d="M 232 104 L 277 96 L 421 121 L 666 146 L 711 142 L 745 130" fill="none" id="make-me-a-hanzi-animation-14" stroke-dasharray="647 1294" stroke-linecap="round" />
    
      <clipPath id="make-me-a-hanzi-clip-15">
        <path d="M 471 107 Q 483 76 482 -20 Q 481 -47 478 -53 Q 474 -65 453 -61 Q 432 -57 411 -54 Q 401 -54 399 -60 Q 398 -64 407 -73 Q 459 -118 477 -144 Q 490 -156 499 -154 Q 509 -150 520 -121 Q 535 -91 532 -36 Q 531 27 531 49 Q 537 86 514 111 C 495 134 462 136 471 107 Z" />
      </clipPath>
      <path clip-path="url(#make-me-a-hanzi-clip-15)" d="M 478 105 L 505 76 L 507 -46 L 501 -74 L 488 -96 L 408 -63" fill="none" id="make-me-a-hanzi-animation-15" stroke-dasharray="430 860" stroke-linecap="round" />
    
      <clipPath id="make-me-a-hanzi-clip-16">
        <path d="M 319 46 Q 288 9 252 -21 Q 243 -28 237 -43 Q 230 -65 233 -81 Q 234 -100 258 -94 Q 312 -72 328 -14 Q 341 14 341 40 Q 340 49 334 51 Q 325 52 319 46 Z" />
      </clipPath>
      <path clip-path="url(#make-me-a-hanzi-clip-16)" d="M 329 40 L 300 -14 L 249 -81" fill="none" id="make-me-a-hanzi-animation-16" stroke-dasharray="273 546" stroke-linecap="round" />
    
      <clipPath id="make-me-a-hanzi-clip-17">
        <path d="M 628 40 Q 677 -6 737 -71 Q 752 -90 766 -94 Q 773 -95 781 -86 Q 791 -73 781 -34 Q 771 18 629 68 Q 620 72 619 61 Q 618 49 628 40 Z" />
      </clipPath>
      <path clip-path="url(#make-me-a-hanzi-clip-17)" d="M 629 57 L 726 -12 L 750 -39 L 767 -80" fill="none" id="make-me-a-hanzi-animation-17" stroke-dasharray="328 656" stroke-linecap="round" />
    
  </g>
</svg>