<svg xmlns="http://www.w3.org/2000/svg" version="1.1" viewBox="0 0 1024 1024">
  <g stroke="lightgray" stroke-dasharray="1,1" stroke-width="1" transform="scale(4, 4)">
    <line x1="0" y1="0" x2="256" y2="256" />
    <line x1="256" y1="0" x2="0" y2="256" />
    <line x1="128" y1="0" x2="128" y2="256" />
    <line x1="0" y1="128" x2="256" y2="128" />
  </g>
  <g transform="scale(1.0, -1.0) translate(0.0, -816.00)">
    <style type="text/css">
      
        @keyframes keyframes0 {
          from {
            stroke: blue;
            stroke-dashoffset: 466;
            stroke-width: 128;
          }
          60% {
            animation-timing-function: step-end;
            stroke: blue;
            stroke-dashoffset: 0;
            stroke-width: 128;
          }
          to {
            stroke: black;
            stroke-width: 1024;
          }
        }
        #make-me-a-hanzi-animation-0 {
          animation: keyframes0 0.6292317708333334s both;
          animation-delay: 0s;
          animation-timing-function: linear;
        }
      
        @keyframes keyframes1 {
          from {
            stroke: blue;
            stroke-dashoffset: 456;
            stroke-width: 128;
          }
          60% {
            animation-timing-function: step-end;
            stroke: blue;
            stroke-dashoffset: 0;
            stroke-width: 128;
          }
          to {
            stroke: black;
            stroke-width: 1024;
          }
        }
        #make-me-a-hanzi-animation-1 {
          animation: keyframes1 0.62109375s both;
          animation-delay: 0.6292317708333334s;
          animation-timing-function: linear;
        }
      
        @keyframes keyframes2 {
          from {
            stroke: blue;
            stroke-dashoffset: 445;
            stroke-width: 128;
          }
          59% {
            animation-timing-function: step-end;
            stroke: blue;
            stroke-dashoffset: 0;
            stroke-width: 128;
          }
          to {
            stroke: black;
            stroke-width: 1024;
          }
        }
        #make-me-a-hanzi-animation-2 {
          animation: keyframes2 0.6121419270833334s both;
          animation-delay: 1.2503255208333335s;
          animation-timing-function: linear;
        }
      
        @keyframes keyframes3 {
          from {
            stroke: blue;
            stroke-dashoffset: 440;
            stroke-width: 128;
          }
          59% {
            animation-timing-function: step-end;
            stroke: blue;
            stroke-dashoffset: 0;
            stroke-width: 128;
          }
          to {
            stroke: black;
            stroke-width: 1024;
          }
        }
        #make-me-a-hanzi-animation-3 {
          animation: keyframes3 0.6080729166666666s both;
          animation-delay: 1.862467447916667s;
          animation-timing-function: linear;
        }
      
        @keyframes keyframes4 {
          from {
            stroke: blue;
            stroke-dashoffset: 693;
            stroke-width: 128;
          }
          69% {
            animation-timing-function: step-end;
            stroke: blue;
            stroke-dashoffset: 0;
            stroke-width: 128;
          }
          to {
            stroke: black;
            stroke-width: 1024;
          }
        }
        #make-me-a-hanzi-animation-4 {
          animation: keyframes4 0.81396484375s both;
          animation-delay: 2.4705403645833335s;
          animation-timing-function: linear;
        }
      
        @keyframes keyframes5 {
          from {
            stroke: blue;
            stroke-dashoffset: 563;
            stroke-width: 128;
          }
          65% {
            animation-timing-function: step-end;
            stroke: blue;
            stroke-dashoffset: 0;
            stroke-width: 128;
          }
          to {
            stroke: black;
            stroke-width: 1024;
          }
        }
        #make-me-a-hanzi-animation-5 {
          animation: keyframes5 0.7081705729166666s both;
          animation-delay: 3.2845052083333335s;
          animation-timing-function: linear;
        }
      
        @keyframes keyframes6 {
          from {
            stroke: blue;
            stroke-dashoffset: 375;
            stroke-width: 128;
          }
          55% {
            animation-timing-function: step-end;
            stroke: blue;
            stroke-dashoffset: 0;
            stroke-width: 128;
          }
          to {
            stroke: black;
            stroke-width: 1024;
          }
        }
        #make-me-a-hanzi-animation-6 {
          animation: keyframes6 0.55517578125s both;
          animation-delay: 3.99267578125s;
          animation-timing-function: linear;
        }
      
        @keyframes keyframes7 {
          from {
            stroke: blue;
            stroke-dashoffset: 522;
            stroke-width: 128;
          }
          63% {
            animation-timing-function: step-end;
            stroke: blue;
            stroke-dashoffset: 0;
            stroke-width: 128;
          }
          to {
            stroke: black;
            stroke-width: 1024;
          }
        }
        #make-me-a-hanzi-animation-7 {
          animation: keyframes7 0.6748046875s both;
          animation-delay: 4.5478515625s;
          animation-timing-function: linear;
        }
      
        @keyframes keyframes8 {
          from {
            stroke: blue;
            stroke-dashoffset: 544;
            stroke-width: 128;
          }
          64% {
            animation-timing-function: step-end;
            stroke: blue;
            stroke-dashoffset: 0;
            stroke-width: 128;
          }
          to {
            stroke: black;
            stroke-width: 1024;
          }
        }
        #make-me-a-hanzi-animation-8 {
          animation: keyframes8 0.6927083333333334s both;
          animation-delay: 5.22265625s;
          animation-timing-function: linear;
        }
      
        @keyframes keyframes9 {
          from {
            stroke: blue;
            stroke-dashoffset: 583;
            stroke-width: 128;
          }
          65% {
            animation-timing-function: step-end;
            stroke: blue;
            stroke-dashoffset: 0;
            stroke-width: 128;
          }
          to {
            stroke: black;
            stroke-width: 1024;
          }
        }
        #make-me-a-hanzi-animation-9 {
          animation: keyframes9 0.7244466145833334s both;
          animation-delay: 5.915364583333333s;
          animation-timing-function: linear;
        }
      
        @keyframes keyframes10 {
          from {
            stroke: blue;
            stroke-dashoffset: 400;
            stroke-width: 128;
          }
          57% {
            animation-timing-function: step-end;
            stroke: blue;
            stroke-dashoffset: 0;
            stroke-width: 128;
          }
          to {
            stroke: black;
            stroke-width: 1024;
          }
        }
        #make-me-a-hanzi-animation-10 {
          animation: keyframes10 0.5755208333333334s both;
          animation-delay: 6.639811197916666s;
          animation-timing-function: linear;
        }
      
        @keyframes keyframes11 {
          from {
            stroke: blue;
            stroke-dashoffset: 751;
            stroke-width: 128;
          }
          71% {
            animation-timing-function: step-end;
            stroke: blue;
            stroke-dashoffset: 0;
            stroke-width: 128;
          }
          to {
            stroke: black;
            stroke-width: 1024;
          }
        }
        #make-me-a-hanzi-animation-11 {
          animation: keyframes11 0.8611653645833334s both;
          animation-delay: 7.215332031249999s;
          animation-timing-function: linear;
        }
      
        @keyframes keyframes12 {
          from {
            stroke: blue;
            stroke-dashoffset: 317;
            stroke-width: 128;
          }
          51% {
            animation-timing-function: step-end;
            stroke: blue;
            stroke-dashoffset: 0;
            stroke-width: 128;
          }
          to {
            stroke: black;
            stroke-width: 1024;
          }
        }
        #make-me-a-hanzi-animation-12 {
          animation: keyframes12 0.5079752604166666s both;
          animation-delay: 8.076497395833332s;
          animation-timing-function: linear;
        }
      
        @keyframes keyframes13 {
          from {
            stroke: blue;
            stroke-dashoffset: 332;
            stroke-width: 128;
          }
          52% {
            animation-timing-function: step-end;
            stroke: blue;
            stroke-dashoffset: 0;
            stroke-width: 128;
          }
          to {
            stroke: black;
            stroke-width: 1024;
          }
        }
        #make-me-a-hanzi-animation-13 {
          animation: keyframes13 0.5201822916666666s both;
          animation-delay: 8.584472656249998s;
          animation-timing-function: linear;
        }
      
        @keyframes keyframes14 {
          from {
            stroke: blue;
            stroke-dashoffset: 545;
            stroke-width: 128;
          }
          64% {
            animation-timing-function: step-end;
            stroke: blue;
            stroke-dashoffset: 0;
            stroke-width: 128;
          }
          to {
            stroke: black;
            stroke-width: 1024;
          }
        }
        #make-me-a-hanzi-animation-14 {
          animation: keyframes14 0.6935221354166666s both;
          animation-delay: 9.104654947916664s;
          animation-timing-function: linear;
        }
      
        @keyframes keyframes15 {
          from {
            stroke: blue;
            stroke-dashoffset: 949;
            stroke-width: 128;
          }
          76% {
            animation-timing-function: step-end;
            stroke: blue;
            stroke-dashoffset: 0;
            stroke-width: 128;
          }
          to {
            stroke: black;
            stroke-width: 1024;
          }
        }
        #make-me-a-hanzi-animation-15 {
          animation: keyframes15 1.0222981770833333s both;
          animation-delay: 9.79817708333333s;
          animation-timing-function: linear;
        }
      
        @keyframes keyframes16 {
          from {
            stroke: blue;
            stroke-dashoffset: 389;
            stroke-width: 128;
          }
          56% {
            animation-timing-function: step-end;
            stroke: blue;
            stroke-dashoffset: 0;
            stroke-width: 128;
          }
          to {
            stroke: black;
            stroke-width: 1024;
          }
        }
        #make-me-a-hanzi-animation-16 {
          animation: keyframes16 0.5665690104166666s both;
          animation-delay: 10.820475260416664s;
          animation-timing-function: linear;
        }
      
        @keyframes keyframes17 {
          from {
            stroke: blue;
            stroke-dashoffset: 563;
            stroke-width: 128;
          }
          65% {
            animation-timing-function: step-end;
            stroke: blue;
            stroke-dashoffset: 0;
            stroke-width: 128;
          }
          to {
            stroke: black;
            stroke-width: 1024;
          }
        }
        #make-me-a-hanzi-animation-17 {
          animation: keyframes17 0.7081705729166666s both;
          animation-delay: 11.38704427083333s;
          animation-timing-function: linear;
        }
      
        @keyframes keyframes18 {
          from {
            stroke: blue;
            stroke-dashoffset: 503;
            stroke-width: 128;
          }
          62% {
            animation-timing-function: step-end;
            stroke: blue;
            stroke-dashoffset: 0;
            stroke-width: 128;
          }
          to {
            stroke: black;
            stroke-width: 1024;
          }
        }
        #make-me-a-hanzi-animation-18 {
          animation: keyframes18 0.6593424479166666s both;
          animation-delay: 12.095214843749996s;
          animation-timing-function: linear;
        }
      
        @keyframes keyframes19 {
          from {
            stroke: blue;
            stroke-dashoffset: 636;
            stroke-width: 128;
          }
          67% {
            animation-timing-function: step-end;
            stroke: blue;
            stroke-dashoffset: 0;
            stroke-width: 128;
          }
          to {
            stroke: black;
            stroke-width: 1024;
          }
        }
        #make-me-a-hanzi-animation-19 {
          animation: keyframes19 0.767578125s both;
          animation-delay: 12.754557291666663s;
          animation-timing-function: linear;
        }
      
        @keyframes keyframes20 {
          from {
            stroke: blue;
            stroke-dashoffset: 556;
            stroke-width: 128;
          }
          64% {
            animation-timing-function: step-end;
            stroke: blue;
            stroke-dashoffset: 0;
            stroke-width: 128;
          }
          to {
            stroke: black;
            stroke-width: 1024;
          }
        }
        #make-me-a-hanzi-animation-20 {
          animation: keyframes20 0.7024739583333334s both;
          animation-delay: 13.522135416666663s;
          animation-timing-function: linear;
        }
      
        @keyframes keyframes21 {
          from {
            stroke: blue;
            stroke-dashoffset: 397;
            stroke-width: 128;
          }
          56% {
            animation-timing-function: step-end;
            stroke: blue;
            stroke-dashoffset: 0;
            stroke-width: 128;
          }
          to {
            stroke: black;
            stroke-width: 1024;
          }
        }
        #make-me-a-hanzi-animation-21 {
          animation: keyframes21 0.5730794270833334s both;
          animation-delay: 14.224609374999996s;
          animation-timing-function: linear;
        }
      
        @keyframes keyframes22 {
          from {
            stroke: blue;
            stroke-dashoffset: 709;
            stroke-width: 128;
          }
          70% {
            animation-timing-function: step-end;
            stroke: blue;
            stroke-dashoffset: 0;
            stroke-width: 128;
          }
          to {
            stroke: black;
            stroke-width: 1024;
          }
        }
        #make-me-a-hanzi-animation-22 {
          animation: keyframes22 0.8269856770833334s both;
          animation-delay: 14.79768880208333s;
          animation-timing-function: linear;
        }
      
    </style>
    
      <path d="M 317 724 L 349 723 L 354 723 Q 367 723 393 726 Q 426 729 474 735 L 506 739 Q 530 742 535 746 Q 539 750 539 755 L 539 756 Q 539 761 529 766 Q 518 772 506 775 Q 498 777 491 777 L 487 777 L 471 773 Q 459 769 433 766 L 365 755 L 321 750 C 291 747 287 725 317 724 Z" fill="lightgray" />
    
      <path d="M 313 566 L 314 610 L 315 628 L 315 664 L 317 684 L 317 724 C 317 751 325 749 321 750 L 291 758 Q 276 762 268 762 Q 264 762 261 761 Q 255 759 252 755 Q 251 754 251 752 Q 251 747 256 737 Q 263 724 265 716 Q 266 708 267 686 L 272 561 C 273 531 312 536 313 566 Z" fill="lightgray" />
    
      <path d="M 315 664 L 339 663 L 343 663 Q 349 663 368 664 L 425 668 Q 454 670 475 674 L 501 677 Q 510 678 512 680 Q 513 681 513 683 Q 513 685 512 688 Q 511 694 501 699 Q 491 704 484 706 Q 477 707 469 707 L 467 707 Q 457 707 409 699 L 317 684 C 287 679 285 665 315 664 Z" fill="lightgray" />
    
      <path d="M 314 610 L 328 606 Q 332 604 351 604 L 394 607 L 439 611 Q 470 613 473 614 L 499 616 Q 509 618 511 621 Q 512 622 512 623 Q 512 626 508 632 Q 504 640 489 644 L 469 649 Q 463 649 450 646 L 394 637 Q 351 631 346 631 L 315 628 C 285 625 285 618 314 610 Z" fill="lightgray" />
    
      <path d="M 335 533 L 348 536 Q 349 536 385 540 Q 421 546 431 547 L 515 554 L 539 558 Q 547 558 549 564 Q 550 566 550 567 Q 550 571 545 575 Q 539 580 523 584 Q 509 587 499 588 Q 493 588 484 587 Q 475 586 447 582 L 376 574 Q 372 574 353 571 Q 333 568 313 566 L 272 561 L 244 557 Q 217 553 215 553 L 146 546 L 109 543 Q 104 542 102 540 Q 100 539 100 534 L 100 531 Q 100 524 126 514 Q 151 504 155 504 L 159 504 Q 168 504 189 508 L 233 515 L 295 526 L 335 533 Z" fill="lightgray" />
    
      <path d="M 295 526 L 280 498 Q 273 484 255 466 Q 236 448 223 440 Q 209 432 207 428 Q 205 424 205 420 Q 205 414 208 408 Q 213 398 219 390 Q 225 383 229 382 Q 232 382 239 385 Q 245 389 259 395 L 288 408 L 314 415 L 452 456 C 481 465 464 485 435 478 L 306 446 Q 299 444 295 444 Q 290 444 289 445 Q 289 447 290 449 L 298 457 L 318 476 Q 331 487 339 492 Q 348 496 349 498 Q 350 499 350 501 Q 350 506 346 512 L 335 533 C 321 560 309 552 295 526 Z" fill="lightgray" />
    
      <path d="M 452 456 L 463 443 Q 467 438 473 433 Q 483 423 489 423 Q 497 424 503 430 Q 511 437 513 450 Q 514 456 514 461 Q 514 473 509 481 Q 502 492 493 499 Q 483 506 467 513 Q 451 520 435 524 L 421 528 Q 417 529 414 529 Q 408 529 406 526 Q 405 524 405 522 Q 405 519 407 516 L 415 504 Q 416 502 423 492 Q 431 482 435 478 L 452 456 Z" fill="lightgray" />
    
      <path d="M 571 637 Q 581 638 619 652 Q 657 666 667 670 L 700 687 L 741 709 Q 758 719 765 722 Q 771 725 783 730 Q 795 734 797 737 Q 799 739 799 742 Q 799 747 795 752 Q 789 760 775 767 Q 760 774 750 778 Q 741 782 733 784 Q 727 785 724 785 Q 718 785 717 783 Q 714 780 711 770 Q 709 760 699 750 Q 690 738 679 728 L 645 701 Q 623 684 604 674 Q 586 662 568 652 L 551 644 Q 548 641 548 638 L 548 637 Q 549 634 554 634 L 557 634 L 571 637 Z" fill="lightgray" />
    
      <path d="M 580 526 Q 592 528 624 540 Q 656 552 679 562 Q 701 572 736 591 Q 771 610 781 616 Q 793 622 806 626 Q 819 630 821 635 Q 822 637 822 639 Q 822 643 819 648 Q 814 656 790 665 Q 766 674 763 676 Q 751 680 745 680 Q 741 680 739 678 Q 735 674 733 666 Q 729 658 724 649 Q 719 640 702 625 Q 685 610 661 594 Q 636 578 610 563 Q 583 548 569 542 L 555 534 Q 550 531 550 528 Q 550 527 551 526 Q 553 522 558 522 L 561 522 L 580 526 Z" fill="lightgray" />
    
      <path d="M 575 434 Q 590 436 633 448 Q 677 458 697 465 Q 717 472 749 485 Q 781 498 799 504 Q 817 510 832 512 Q 847 514 851 518 Q 855 520 857 524 L 857 526 Q 857 533 848 542 Q 837 554 825 561 Q 813 568 793 574 Q 782 578 777 578 Q 774 578 773 577 Q 770 574 765 567 Q 761 559 745 545 Q 729 531 717 522 Q 705 514 677 499 L 621 473 L 571 453 L 548 444 Q 541 441 541 436 L 541 435 Q 541 431 548 431 L 553 431 L 575 434 Z" fill="lightgray" />
    
      <path d="M 335 382 L 315 386 Q 297 389 289 389 Q 285 389 283 388 Q 277 386 277 382 L 277 381 Q 277 377 283 371 Q 291 364 293 360 Q 297 356 300 346 L 305 329 L 315 280 Q 317 264 324 254 Q 330 246 336 246 L 338 246 Q 345 248 348 254 Q 351 260 351 270 L 349 299 L 340 360 C 337 382 337 382 335 382 Z" fill="lightgray" />
    
      <path d="M 637 290 L 651 268 Q 652 265 655 265 Q 659 265 666 269 Q 679 276 685 286 L 717 344 Q 728 362 738 372 Q 749 381 749 382 Q 750 384 750 386 Q 750 396 726 409 Q 699 425 685 431 Q 672 436 663 436 Q 657 436 643 432 Q 628 427 602 422 L 539 408 Q 489 398 455 394 L 335 382 C 305 379 310 358 340 360 L 401 364 L 443 367 L 529 377 L 569 384 L 625 390 Q 636 390 648 391 Q 661 391 664 388 Q 668 386 670 379 Q 671 377 671 375 Q 671 368 665 354 L 649 312 C 639 286 635 294 637 290 Z" fill="lightgray" />
    
      <path d="M 401 364 L 407 358 Q 414 348 419 330 L 424 306 C 430 277 457 278 457 308 L 457 325 Q 457 332 459 341 Q 460 346 460 349 Q 460 352 459 354 Q 459 359 443 367 C 416 381 380 385 401 364 Z" fill="lightgray" />
    
      <path d="M 558 320 L 571 341 Q 577 350 582 354 Q 587 359 587 361 Q 588 362 588 364 Q 588 367 585 371 Q 581 376 569 384 C 544 401 529 407 529 377 L 529 364 Q 529 352 525 337 L 519 314 C 511 285 542 294 558 320 Z" fill="lightgray" />
    
      <path d="M 351 270 L 405 272 Q 427 274 469 276 L 555 284 L 637 290 C 667 292 676 299 649 312 L 633 320 Q 625 326 613 327 L 608 327 Q 597 327 581 324 L 558 320 L 519 314 L 457 308 L 424 306 L 349 299 C 319 296 321 269 351 270 Z" fill="lightgray" />
    
      <path d="M 174 216 Q 163 216 161 212 Q 158 209 158 206 Q 158 204 159 202 Q 161 196 177 186 Q 193 177 208 172 Q 223 166 236 166 Q 248 166 275 173 Q 303 180 321 183 L 383 192 Q 426 198 442 199 Q 457 201 536 206 Q 615 212 633 212 L 720 211 Q 801 210 814 210 L 833 210 Q 861 210 863 218 Q 864 221 864 223 Q 864 229 860 234 Q 855 242 838 251 Q 822 260 810 266 Q 799 270 784 272 Q 775 272 753 268 Q 730 264 666 259 Q 602 254 529 246 L 437 237 L 361 230 Q 305 224 283 222 L 210 218 L 174 216 Z" fill="lightgray" />
    
      <path d="M 373 158 L 355 164 Q 341 169 331 170 L 326 170 Q 318 170 316 167 Q 315 164 315 161 L 315 158 Q 317 154 327 145 Q 336 136 339 126 L 351 64 Q 353 54 360 46 Q 366 39 371 39 L 372 39 Q 377 41 380 46 Q 383 52 385 58 L 386 88 L 381 130 C 378 156 378 156 373 158 Z" fill="lightgray" />
    
      <path d="M 625 100 L 647 120 Q 649 122 662 130 Q 675 138 677 142 L 677 143 Q 677 150 655 168 Q 629 188 624 191 Q 619 194 610 194 Q 603 194 581 189 Q 559 184 552 182 Q 544 180 499 175 L 373 158 C 343 154 351 126 381 130 L 495 144 Q 509 146 548 149 Q 561 150 569 150 Q 587 150 589 146 Q 590 144 590 142 Q 590 137 587 130 L 581 110 C 572 81 603 80 625 100 Z" fill="lightgray" />
    
      <path d="M 457 60 L 627 76 Q 635 77 637 80 Q 638 81 638 82 Q 638 84 636 86 L 625 100 C 613 115 611 115 581 110 L 533 102 Q 523 100 475 96 Q 427 92 386 88 C 356 85 355 58 385 58 L 411 58 L 457 60 Z" fill="lightgray" />
    
      <path d="M 411 58 L 369 17 Q 359 6 325 -13 Q 292 -33 253 -52 Q 215 -72 200 -77 Q 185 -83 145 -96 L 127 -103 Q 119 -106 119 -111 L 119 -112 Q 121 -117 127 -117 L 129 -117 L 149 -114 Q 171 -111 202 -103 Q 233 -95 269 -82 Q 304 -68 325 -58 L 363 -38 L 405 -11 L 436 8 Q 449 17 462 20 Q 475 22 477 25 Q 478 27 478 29 Q 478 33 474 40 Q 468 50 457 60 C 436 81 432 79 411 58 Z" fill="lightgray" />
    
      <path d="M 363 -38 L 364 -50 Q 365 -63 365 -67 L 362 -97 Q 361 -109 356 -118 Q 352 -128 352 -129 L 352 -132 Q 352 -138 355 -144 Q 359 -154 362 -160 Q 366 -167 371 -172 Q 375 -176 381 -177 L 382 -177 Q 389 -177 410 -159 Q 431 -139 451 -126 L 563 -50 Q 571 -45 571 -41 Q 571 -38 567 -36 Q 566 -35 564 -35 Q 560 -35 551 -39 L 429 -85 Q 413 -90 408 -90 L 406 -90 Q 404 -89 404 -84 Q 404 -80 405 -74 L 407 -58 Q 409 -48 413 -40 Q 419 -32 419 -28 L 419 -27 Q 419 -23 405 -11 C 383 9 361 -8 363 -38 Z" fill="lightgray" />
    
      <path d="M 627 -14 L 689 13 Q 717 26 733 29 Q 749 32 751 36 Q 752 38 752 40 Q 752 48 743 58 Q 730 71 718 79 Q 699 91 693 91 Q 691 91 690 90 Q 687 86 683 76 Q 680 66 668 51 Q 655 36 645 26 L 613 -2 C 590 -22 599 -26 627 -14 Z" fill="lightgray" />
    
      <path d="M 613 -2 L 583 14 L 556 28 Q 543 35 538 37 Q 533 38 518 39 Q 504 39 499 35 Q 493 31 493 27 Q 493 24 500 19 Q 507 15 519 10 Q 531 6 541 0 Q 551 -4 568 -17 Q 585 -29 609 -49 Q 635 -68 656 -85 Q 678 -102 711 -124 Q 745 -146 769 -149 Q 777 -150 786 -150 Q 795 -150 804 -149 Q 823 -146 859 -137 Q 894 -127 905 -122 L 918 -118 Q 925 -115 925 -111 L 925 -110 Q 922 -104 917 -103 L 902 -100 L 863 -93 Q 835 -88 808 -82 Q 781 -76 750 -66 Q 718 -56 694 -46 Q 669 -36 627 -14 L 613 -2 Z" fill="lightgray" />
    
    
      <clipPath id="make-me-a-hanzi-clip-0">
        <path d="M 317 724 L 349 723 L 354 723 Q 367 723 393 726 Q 426 729 474 735 L 506 739 Q 530 742 535 746 Q 539 750 539 755 L 539 756 Q 539 761 529 766 Q 518 772 506 775 Q 498 777 491 777 L 487 777 L 471 773 Q 459 769 433 766 L 365 755 L 321 750 C 291 747 287 725 317 724 Z" />
      </clipPath>
      <path clip-path="url(#make-me-a-hanzi-clip-0)" d="M 323 730 L 333 737 L 488 757 L 529 756" fill="none" id="make-me-a-hanzi-animation-0" stroke-dasharray="338 676" stroke-linecap="round" />
    
      <clipPath id="make-me-a-hanzi-clip-1">
        <path d="M 313 566 L 314 610 L 315 628 L 315 664 L 317 684 L 317 724 C 317 751 325 749 321 750 L 291 758 Q 276 762 268 762 Q 264 762 261 761 Q 255 759 252 755 Q 251 754 251 752 Q 251 747 256 737 Q 263 724 265 716 Q 266 708 267 686 L 272 561 C 273 531 312 536 313 566 Z" />
      </clipPath>
      <path clip-path="url(#make-me-a-hanzi-clip-1)" d="M 262 750 L 289 730 L 291 717 L 293 588 L 278 569" fill="none" id="make-me-a-hanzi-animation-1" stroke-dasharray="328 656" stroke-linecap="round" />
    
      <clipPath id="make-me-a-hanzi-clip-2">
        <path d="M 315 664 L 339 663 L 343 663 Q 349 663 368 664 L 425 668 Q 454 670 475 674 L 501 677 Q 510 678 512 680 Q 513 681 513 683 Q 513 685 512 688 Q 511 694 501 699 Q 491 704 484 706 Q 477 707 469 707 L 467 707 Q 457 707 409 699 L 317 684 C 287 679 285 665 315 664 Z" />
      </clipPath>
      <path clip-path="url(#make-me-a-hanzi-clip-2)" d="M 321 668 L 328 675 L 475 691 L 505 684" fill="none" id="make-me-a-hanzi-animation-2" stroke-dasharray="317 634" stroke-linecap="round" />
    
      <clipPath id="make-me-a-hanzi-clip-3">
        <path d="M 314 610 L 328 606 Q 332 604 351 604 L 394 607 L 439 611 Q 470 613 473 614 L 499 616 Q 509 618 511 621 Q 512 622 512 623 Q 512 626 508 632 Q 504 640 489 644 L 469 649 Q 463 649 450 646 L 394 637 Q 351 631 346 631 L 315 628 C 285 625 285 618 314 610 Z" />
      </clipPath>
      <path clip-path="url(#make-me-a-hanzi-clip-3)" d="M 323 623 L 344 617 L 467 631 L 505 625" fill="none" id="make-me-a-hanzi-animation-3" stroke-dasharray="312 624" stroke-linecap="round" />
    
      <clipPath id="make-me-a-hanzi-clip-4">
        <path d="M 335 533 L 348 536 Q 349 536 385 540 Q 421 546 431 547 L 515 554 L 539 558 Q 547 558 549 564 Q 550 566 550 567 Q 550 571 545 575 Q 539 580 523 584 Q 509 587 499 588 Q 493 588 484 587 Q 475 586 447 582 L 376 574 Q 372 574 353 571 Q 333 568 313 566 L 272 561 L 244 557 Q 217 553 215 553 L 146 546 L 109 543 Q 104 542 102 540 Q 100 539 100 534 L 100 531 Q 100 524 126 514 Q 151 504 155 504 L 159 504 Q 168 504 189 508 L 233 515 L 295 526 L 335 533 Z" />
      </clipPath>
      <path clip-path="url(#make-me-a-hanzi-clip-4)" d="M 109 535 L 121 529 L 177 527 L 458 567 L 542 568" fill="none" id="make-me-a-hanzi-animation-4" stroke-dasharray="565 1130" stroke-linecap="round" />
    
      <clipPath id="make-me-a-hanzi-clip-5">
        <path d="M 295 526 L 280 498 Q 273 484 255 466 Q 236 448 223 440 Q 209 432 207 428 Q 205 424 205 420 Q 205 414 208 408 Q 213 398 219 390 Q 225 383 229 382 Q 232 382 239 385 Q 245 389 259 395 L 288 408 L 314 415 L 452 456 C 481 465 464 485 435 478 L 306 446 Q 299 444 295 444 Q 290 444 289 445 Q 289 447 290 449 L 298 457 L 318 476 Q 331 487 339 492 Q 348 496 349 498 Q 350 499 350 501 Q 350 506 346 512 L 335 533 C 321 560 309 552 295 526 Z" />
      </clipPath>
      <path clip-path="url(#make-me-a-hanzi-clip-5)" d="M 330 524 L 323 508 L 311 503 L 273 460 L 262 430 L 289 426 L 430 464 L 443 458" fill="none" id="make-me-a-hanzi-animation-5" stroke-dasharray="435 870" stroke-linecap="round" />
    
      <clipPath id="make-me-a-hanzi-clip-6">
        <path d="M 452 456 L 463 443 Q 467 438 473 433 Q 483 423 489 423 Q 497 424 503 430 Q 511 437 513 450 Q 514 456 514 461 Q 514 473 509 481 Q 502 492 493 499 Q 483 506 467 513 Q 451 520 435 524 L 421 528 Q 417 529 414 529 Q 408 529 406 526 Q 405 524 405 522 Q 405 519 407 516 L 415 504 Q 416 502 423 492 Q 431 482 435 478 L 452 456 Z" />
      </clipPath>
      <path clip-path="url(#make-me-a-hanzi-clip-6)" d="M 412 522 L 478 472 L 490 438" fill="none" id="make-me-a-hanzi-animation-6" stroke-dasharray="247 494" stroke-linecap="round" />
    
      <clipPath id="make-me-a-hanzi-clip-7">
        <path d="M 571 637 Q 581 638 619 652 Q 657 666 667 670 L 700 687 L 741 709 Q 758 719 765 722 Q 771 725 783 730 Q 795 734 797 737 Q 799 739 799 742 Q 799 747 795 752 Q 789 760 775 767 Q 760 774 750 778 Q 741 782 733 784 Q 727 785 724 785 Q 718 785 717 783 Q 714 780 711 770 Q 709 760 699 750 Q 690 738 679 728 L 645 701 Q 623 684 604 674 Q 586 662 568 652 L 551 644 Q 548 641 548 638 L 548 637 Q 549 634 554 634 L 557 634 L 571 637 Z" />
      </clipPath>
      <path clip-path="url(#make-me-a-hanzi-clip-7)" d="M 788 743 L 738 746 L 657 686 L 552 638" fill="none" id="make-me-a-hanzi-animation-7" stroke-dasharray="394 788" stroke-linecap="round" />
    
      <clipPath id="make-me-a-hanzi-clip-8">
        <path d="M 580 526 Q 592 528 624 540 Q 656 552 679 562 Q 701 572 736 591 Q 771 610 781 616 Q 793 622 806 626 Q 819 630 821 635 Q 822 637 822 639 Q 822 643 819 648 Q 814 656 790 665 Q 766 674 763 676 Q 751 680 745 680 Q 741 680 739 678 Q 735 674 733 666 Q 729 658 724 649 Q 719 640 702 625 Q 685 610 661 594 Q 636 578 610 563 Q 583 548 569 542 L 555 534 Q 550 531 550 528 Q 550 527 551 526 Q 553 522 558 522 L 561 522 L 580 526 Z" />
      </clipPath>
      <path clip-path="url(#make-me-a-hanzi-clip-8)" d="M 812 639 L 758 641 L 717 606 L 677 582 L 555 529" fill="none" id="make-me-a-hanzi-animation-8" stroke-dasharray="416 832" stroke-linecap="round" />
    
      <clipPath id="make-me-a-hanzi-clip-9">
        <path d="M 575 434 Q 590 436 633 448 Q 677 458 697 465 Q 717 472 749 485 Q 781 498 799 504 Q 817 510 832 512 Q 847 514 851 518 Q 855 520 857 524 L 857 526 Q 857 533 848 542 Q 837 554 825 561 Q 813 568 793 574 Q 782 578 777 578 Q 774 578 773 577 Q 770 574 765 567 Q 761 559 745 545 Q 729 531 717 522 Q 705 514 677 499 L 621 473 L 571 453 L 548 444 Q 541 441 541 436 L 541 435 Q 541 431 548 431 L 553 431 L 575 434 Z" />
      </clipPath>
      <path clip-path="url(#make-me-a-hanzi-clip-9)" d="M 850 525 L 788 538 L 687 482 L 546 436" fill="none" id="make-me-a-hanzi-animation-9" stroke-dasharray="455 910" stroke-linecap="round" />
    
      <clipPath id="make-me-a-hanzi-clip-10">
        <path d="M 335 382 L 315 386 Q 297 389 289 389 Q 285 389 283 388 Q 277 386 277 382 L 277 381 Q 277 377 283 371 Q 291 364 293 360 Q 297 356 300 346 L 305 329 L 315 280 Q 317 264 324 254 Q 330 246 336 246 L 338 246 Q 345 248 348 254 Q 351 260 351 270 L 349 299 L 340 360 C 337 382 337 382 335 382 Z" />
      </clipPath>
      <path clip-path="url(#make-me-a-hanzi-clip-10)" d="M 284 382 L 317 361 L 337 258" fill="none" id="make-me-a-hanzi-animation-10" stroke-dasharray="272 544" stroke-linecap="round" />
    
      <clipPath id="make-me-a-hanzi-clip-11">
        <path d="M 637 290 L 651 268 Q 652 265 655 265 Q 659 265 666 269 Q 679 276 685 286 L 717 344 Q 728 362 738 372 Q 749 381 749 382 Q 750 384 750 386 Q 750 396 726 409 Q 699 425 685 431 Q 672 436 663 436 Q 657 436 643 432 Q 628 427 602 422 L 539 408 Q 489 398 455 394 L 335 382 C 305 379 310 358 340 360 L 401 364 L 443 367 L 529 377 L 569 384 L 625 390 Q 636 390 648 391 Q 661 391 664 388 Q 668 386 670 379 Q 671 377 671 375 Q 671 368 665 354 L 649 312 C 639 286 635 294 637 290 Z" />
      </clipPath>
      <path clip-path="url(#make-me-a-hanzi-clip-11)" d="M 343 378 L 362 372 L 477 383 L 643 411 L 672 411 L 704 384 L 658 273" fill="none" id="make-me-a-hanzi-animation-11" stroke-dasharray="623 1246" stroke-linecap="round" />
    
      <clipPath id="make-me-a-hanzi-clip-12">
        <path d="M 401 364 L 407 358 Q 414 348 419 330 L 424 306 C 430 277 457 278 457 308 L 457 325 Q 457 332 459 341 Q 460 346 460 349 Q 460 352 459 354 Q 459 359 443 367 C 416 381 380 385 401 364 Z" />
      </clipPath>
      <path clip-path="url(#make-me-a-hanzi-clip-12)" d="M 416 355 L 437 345 L 439 324 L 451 312" fill="none" id="make-me-a-hanzi-animation-12" stroke-dasharray="189 378" stroke-linecap="round" />
    
      <clipPath id="make-me-a-hanzi-clip-13">
        <path d="M 558 320 L 571 341 Q 577 350 582 354 Q 587 359 587 361 Q 588 362 588 364 Q 588 367 585 371 Q 581 376 569 384 C 544 401 529 407 529 377 L 529 364 Q 529 352 525 337 L 519 314 C 511 285 542 294 558 320 Z" />
      </clipPath>
      <path clip-path="url(#make-me-a-hanzi-clip-13)" d="M 580 365 L 552 356 L 546 339 L 525 319" fill="none" id="make-me-a-hanzi-animation-13" stroke-dasharray="204 408" stroke-linecap="round" />
    
      <clipPath id="make-me-a-hanzi-clip-14">
        <path d="M 351 270 L 405 272 Q 427 274 469 276 L 555 284 L 637 290 C 667 292 676 299 649 312 L 633 320 Q 625 326 613 327 L 608 327 Q 597 327 581 324 L 558 320 L 519 314 L 457 308 L 424 306 L 349 299 C 319 296 321 269 351 270 Z" />
      </clipPath>
      <path clip-path="url(#make-me-a-hanzi-clip-14)" d="M 357 278 L 365 285 L 388 288 L 642 309" fill="none" id="make-me-a-hanzi-animation-14" stroke-dasharray="417 834" stroke-linecap="round" />
    
      <clipPath id="make-me-a-hanzi-clip-15">
        <path d="M 174 216 Q 163 216 161 212 Q 158 209 158 206 Q 158 204 159 202 Q 161 196 177 186 Q 193 177 208 172 Q 223 166 236 166 Q 248 166 275 173 Q 303 180 321 183 L 383 192 Q 426 198 442 199 Q 457 201 536 206 Q 615 212 633 212 L 720 211 Q 801 210 814 210 L 833 210 Q 861 210 863 218 Q 864 221 864 223 Q 864 229 860 234 Q 855 242 838 251 Q 822 260 810 266 Q 799 270 784 272 Q 775 272 753 268 Q 730 264 666 259 Q 602 254 529 246 L 437 237 L 361 230 Q 305 224 283 222 L 210 218 L 174 216 Z" />
      </clipPath>
      <path clip-path="url(#make-me-a-hanzi-clip-15)" d="M 166 206 L 239 193 L 462 221 L 767 241 L 796 240 L 853 223" fill="none" id="make-me-a-hanzi-animation-15" stroke-dasharray="821 1642" stroke-linecap="round" />
    
      <clipPath id="make-me-a-hanzi-clip-16">
        <path d="M 373 158 L 355 164 Q 341 169 331 170 L 326 170 Q 318 170 316 167 Q 315 164 315 161 L 315 158 Q 317 154 327 145 Q 336 136 339 126 L 351 64 Q 353 54 360 46 Q 366 39 371 39 L 372 39 Q 377 41 380 46 Q 383 52 385 58 L 386 88 L 381 130 C 378 156 378 156 373 158 Z" />
      </clipPath>
      <path clip-path="url(#make-me-a-hanzi-clip-16)" d="M 322 160 L 356 140 L 372 48" fill="none" id="make-me-a-hanzi-animation-16" stroke-dasharray="261 522" stroke-linecap="round" />
    
      <clipPath id="make-me-a-hanzi-clip-17">
        <path d="M 625 100 L 647 120 Q 649 122 662 130 Q 675 138 677 142 L 677 143 Q 677 150 655 168 Q 629 188 624 191 Q 619 194 610 194 Q 603 194 581 189 Q 559 184 552 182 Q 544 180 499 175 L 373 158 C 343 154 351 126 381 130 L 495 144 Q 509 146 548 149 Q 561 150 569 150 Q 587 150 589 146 Q 590 144 590 142 Q 590 137 587 130 L 581 110 C 572 81 603 80 625 100 Z" />
      </clipPath>
      <path clip-path="url(#make-me-a-hanzi-clip-17)" d="M 382 153 L 391 146 L 597 169 L 611 165 L 625 148 L 614 130 L 589 113" fill="none" id="make-me-a-hanzi-animation-17" stroke-dasharray="435 870" stroke-linecap="round" />
    
      <clipPath id="make-me-a-hanzi-clip-18">
        <path d="M 457 60 L 627 76 Q 635 77 637 80 Q 638 81 638 82 Q 638 84 636 86 L 625 100 C 613 115 611 115 581 110 L 533 102 Q 523 100 475 96 Q 427 92 386 88 C 356 85 355 58 385 58 L 411 58 L 457 60 Z" />
      </clipPath>
      <path clip-path="url(#make-me-a-hanzi-clip-18)" d="M 392 65 L 401 74 L 578 91 L 634 83" fill="none" id="make-me-a-hanzi-animation-18" stroke-dasharray="375 750" stroke-linecap="round" />
    
      <clipPath id="make-me-a-hanzi-clip-19">
        <path d="M 411 58 L 369 17 Q 359 6 325 -13 Q 292 -33 253 -52 Q 215 -72 200 -77 Q 185 -83 145 -96 L 127 -103 Q 119 -106 119 -111 L 119 -112 Q 121 -117 127 -117 L 129 -117 L 149 -114 Q 171 -111 202 -103 Q 233 -95 269 -82 Q 304 -68 325 -58 L 363 -38 L 405 -11 L 436 8 Q 449 17 462 20 Q 475 22 477 25 Q 478 27 478 29 Q 478 33 474 40 Q 468 50 457 60 C 436 81 432 79 411 58 Z" />
      </clipPath>
      <path clip-path="url(#make-me-a-hanzi-clip-19)" d="M 467 30 L 448 38 L 423 32 L 368 -11 L 300 -50 L 205 -90 L 125 -111" fill="none" id="make-me-a-hanzi-animation-19" stroke-dasharray="508 1016" stroke-linecap="round" />
    
      <clipPath id="make-me-a-hanzi-clip-20">
        <path d="M 363 -38 L 364 -50 Q 365 -63 365 -67 L 362 -97 Q 361 -109 356 -118 Q 352 -128 352 -129 L 352 -132 Q 352 -138 355 -144 Q 359 -154 362 -160 Q 366 -167 371 -172 Q 375 -176 381 -177 L 382 -177 Q 389 -177 410 -159 Q 431 -139 451 -126 L 563 -50 Q 571 -45 571 -41 Q 571 -38 567 -36 Q 566 -35 564 -35 Q 560 -35 551 -39 L 429 -85 Q 413 -90 408 -90 L 406 -90 Q 404 -89 404 -84 Q 404 -80 405 -74 L 407 -58 Q 409 -48 413 -40 Q 419 -32 419 -28 L 419 -27 Q 419 -23 405 -11 C 383 9 361 -8 363 -38 Z" />
      </clipPath>
      <path clip-path="url(#make-me-a-hanzi-clip-20)" d="M 411 -27 L 398 -34 L 386 -54 L 383 -92 L 393 -125 L 564 -43" fill="none" id="make-me-a-hanzi-animation-20" stroke-dasharray="428 856" stroke-linecap="round" />
    
      <clipPath id="make-me-a-hanzi-clip-21">
        <path d="M 627 -14 L 689 13 Q 717 26 733 29 Q 749 32 751 36 Q 752 38 752 40 Q 752 48 743 58 Q 730 71 718 79 Q 699 91 693 91 Q 691 91 690 90 Q 687 86 683 76 Q 680 66 668 51 Q 655 36 645 26 L 613 -2 C 590 -22 599 -26 627 -14 Z" />
      </clipPath>
      <path clip-path="url(#make-me-a-hanzi-clip-21)" d="M 744 40 L 704 50 L 630 -2 L 621 0" fill="none" id="make-me-a-hanzi-animation-21" stroke-dasharray="269 538" stroke-linecap="round" />
    
      <clipPath id="make-me-a-hanzi-clip-22">
        <path d="M 613 -2 L 583 14 L 556 28 Q 543 35 538 37 Q 533 38 518 39 Q 504 39 499 35 Q 493 31 493 27 Q 493 24 500 19 Q 507 15 519 10 Q 531 6 541 0 Q 551 -4 568 -17 Q 585 -29 609 -49 Q 635 -68 656 -85 Q 678 -102 711 -124 Q 745 -146 769 -149 Q 777 -150 786 -150 Q 795 -150 804 -149 Q 823 -146 859 -137 Q 894 -127 905 -122 L 918 -118 Q 925 -115 925 -111 L 925 -110 Q 922 -104 917 -103 L 902 -100 L 863 -93 Q 835 -88 808 -82 Q 781 -76 750 -66 Q 718 -56 694 -46 Q 669 -36 627 -14 L 613 -2 Z" />
      </clipPath>
      <path clip-path="url(#make-me-a-hanzi-clip-22)" d="M 501 27 L 523 25 L 556 11 L 667 -62 L 762 -109 L 815 -116 L 918 -110" fill="none" id="make-me-a-hanzi-animation-22" stroke-dasharray="581 1162" stroke-linecap="round" />
    
  </g>
</svg>