<svg xmlns="http://www.w3.org/2000/svg" version="1.1" viewBox="0 0 1024 1024">
  <g stroke="lightgray" stroke-dasharray="1,1" stroke-width="1" transform="scale(4, 4)">
    <line x1="0" y1="0" x2="256" y2="256" />
    <line x1="256" y1="0" x2="0" y2="256" />
    <line x1="128" y1="0" x2="128" y2="256" />
    <line x1="0" y1="128" x2="256" y2="128" />
  </g>
  <g transform="scale(1.0, -1.0) translate(0.0, -794.50)">
    <style type="text/css">
      
        @keyframes keyframes0 {
          from {
            stroke: blue;
            stroke-dashoffset: 1000;
            stroke-width: 128;
          }
          76% {
            animation-timing-function: step-end;
            stroke: blue;
            stroke-dashoffset: 0;
            stroke-width: 128;
          }
          to {
            stroke: black;
            stroke-width: 1024;
          }
        }
        #make-me-a-hanzi-animation-0 {
          animation: keyframes0 1.0638020833333333s both;
          animation-delay: 0s;
          animation-timing-function: linear;
        }
      
        @keyframes keyframes1 {
          from {
            stroke: blue;
            stroke-dashoffset: 489;
            stroke-width: 128;
          }
          61% {
            animation-timing-function: step-end;
            stroke: blue;
            stroke-dashoffset: 0;
            stroke-width: 128;
          }
          to {
            stroke: black;
            stroke-width: 1024;
          }
        }
        #make-me-a-hanzi-animation-1 {
          animation: keyframes1 0.64794921875s both;
          animation-delay: 1.0638020833333333s;
          animation-timing-function: linear;
        }
      
        @keyframes keyframes2 {
          from {
            stroke: blue;
            stroke-dashoffset: 476;
            stroke-width: 128;
          }
          61% {
            animation-timing-function: step-end;
            stroke: blue;
            stroke-dashoffset: 0;
            stroke-width: 128;
          }
          to {
            stroke: black;
            stroke-width: 1024;
          }
        }
        #make-me-a-hanzi-animation-2 {
          animation: keyframes2 0.6373697916666666s both;
          animation-delay: 1.7117513020833333s;
          animation-timing-function: linear;
        }
      
        @keyframes keyframes3 {
          from {
            stroke: blue;
            stroke-dashoffset: 466;
            stroke-width: 128;
          }
          60% {
            animation-timing-function: step-end;
            stroke: blue;
            stroke-dashoffset: 0;
            stroke-width: 128;
          }
          to {
            stroke: black;
            stroke-width: 1024;
          }
        }
        #make-me-a-hanzi-animation-3 {
          animation: keyframes3 0.6292317708333334s both;
          animation-delay: 2.34912109375s;
          animation-timing-function: linear;
        }
      
        @keyframes keyframes4 {
          from {
            stroke: blue;
            stroke-dashoffset: 498;
            stroke-width: 128;
          }
          62% {
            animation-timing-function: step-end;
            stroke: blue;
            stroke-dashoffset: 0;
            stroke-width: 128;
          }
          to {
            stroke: black;
            stroke-width: 1024;
          }
        }
        #make-me-a-hanzi-animation-4 {
          animation: keyframes4 0.6552734375s both;
          animation-delay: 2.9783528645833335s;
          animation-timing-function: linear;
        }
      
        @keyframes keyframes5 {
          from {
            stroke: blue;
            stroke-dashoffset: 488;
            stroke-width: 128;
          }
          61% {
            animation-timing-function: step-end;
            stroke: blue;
            stroke-dashoffset: 0;
            stroke-width: 128;
          }
          to {
            stroke: black;
            stroke-width: 1024;
          }
        }
        #make-me-a-hanzi-animation-5 {
          animation: keyframes5 0.6471354166666666s both;
          animation-delay: 3.6336263020833335s;
          animation-timing-function: linear;
        }
      
        @keyframes keyframes6 {
          from {
            stroke: blue;
            stroke-dashoffset: 481;
            stroke-width: 128;
          }
          61% {
            animation-timing-function: step-end;
            stroke: blue;
            stroke-dashoffset: 0;
            stroke-width: 128;
          }
          to {
            stroke: black;
            stroke-width: 1024;
          }
        }
        #make-me-a-hanzi-animation-6 {
          animation: keyframes6 0.6414388020833334s both;
          animation-delay: 4.28076171875s;
          animation-timing-function: linear;
        }
      
        @keyframes keyframes7 {
          from {
            stroke: blue;
            stroke-dashoffset: 463;
            stroke-width: 128;
          }
          60% {
            animation-timing-function: step-end;
            stroke: blue;
            stroke-dashoffset: 0;
            stroke-width: 128;
          }
          to {
            stroke: black;
            stroke-width: 1024;
          }
        }
        #make-me-a-hanzi-animation-7 {
          animation: keyframes7 0.6267903645833334s both;
          animation-delay: 4.922200520833333s;
          animation-timing-function: linear;
        }
      
        @keyframes keyframes8 {
          from {
            stroke: blue;
            stroke-dashoffset: 508;
            stroke-width: 128;
          }
          62% {
            animation-timing-function: step-end;
            stroke: blue;
            stroke-dashoffset: 0;
            stroke-width: 128;
          }
          to {
            stroke: black;
            stroke-width: 1024;
          }
        }
        #make-me-a-hanzi-animation-8 {
          animation: keyframes8 0.6634114583333334s both;
          animation-delay: 5.548990885416666s;
          animation-timing-function: linear;
        }
      
        @keyframes keyframes9 {
          from {
            stroke: blue;
            stroke-dashoffset: 1165;
            stroke-width: 128;
          }
          79% {
            animation-timing-function: step-end;
            stroke: blue;
            stroke-dashoffset: 0;
            stroke-width: 128;
          }
          to {
            stroke: black;
            stroke-width: 1024;
          }
        }
        #make-me-a-hanzi-animation-9 {
          animation: keyframes9 1.1980794270833333s both;
          animation-delay: 6.212402343749999s;
          animation-timing-function: linear;
        }
      
        @keyframes keyframes10 {
          from {
            stroke: blue;
            stroke-dashoffset: 608;
            stroke-width: 128;
          }
          66% {
            animation-timing-function: step-end;
            stroke: blue;
            stroke-dashoffset: 0;
            stroke-width: 128;
          }
          to {
            stroke: black;
            stroke-width: 1024;
          }
        }
        #make-me-a-hanzi-animation-10 {
          animation: keyframes10 0.7447916666666666s both;
          animation-delay: 7.410481770833332s;
          animation-timing-function: linear;
        }
      
        @keyframes keyframes11 {
          from {
            stroke: blue;
            stroke-dashoffset: 454;
            stroke-width: 128;
          }
          60% {
            animation-timing-function: step-end;
            stroke: blue;
            stroke-dashoffset: 0;
            stroke-width: 128;
          }
          to {
            stroke: black;
            stroke-width: 1024;
          }
        }
        #make-me-a-hanzi-animation-11 {
          animation: keyframes11 0.6194661458333334s both;
          animation-delay: 8.155273437499998s;
          animation-timing-function: linear;
        }
      
        @keyframes keyframes12 {
          from {
            stroke: blue;
            stroke-dashoffset: 469;
            stroke-width: 128;
          }
          60% {
            animation-timing-function: step-end;
            stroke: blue;
            stroke-dashoffset: 0;
            stroke-width: 128;
          }
          to {
            stroke: black;
            stroke-width: 1024;
          }
        }
        #make-me-a-hanzi-animation-12 {
          animation: keyframes12 0.6316731770833334s both;
          animation-delay: 8.774739583333332s;
          animation-timing-function: linear;
        }
      
        @keyframes keyframes13 {
          from {
            stroke: blue;
            stroke-dashoffset: 772;
            stroke-width: 128;
          }
          72% {
            animation-timing-function: step-end;
            stroke: blue;
            stroke-dashoffset: 0;
            stroke-width: 128;
          }
          to {
            stroke: black;
            stroke-width: 1024;
          }
        }
        #make-me-a-hanzi-animation-13 {
          animation: keyframes13 0.8782552083333334s both;
          animation-delay: 9.406412760416666s;
          animation-timing-function: linear;
        }
      
        @keyframes keyframes14 {
          from {
            stroke: blue;
            stroke-dashoffset: 468;
            stroke-width: 128;
          }
          60% {
            animation-timing-function: step-end;
            stroke: blue;
            stroke-dashoffset: 0;
            stroke-width: 128;
          }
          to {
            stroke: black;
            stroke-width: 1024;
          }
        }
        #make-me-a-hanzi-animation-14 {
          animation: keyframes14 0.630859375s both;
          animation-delay: 10.28466796875s;
          animation-timing-function: linear;
        }
      
        @keyframes keyframes15 {
          from {
            stroke: blue;
            stroke-dashoffset: 432;
            stroke-width: 128;
          }
          58% {
            animation-timing-function: step-end;
            stroke: blue;
            stroke-dashoffset: 0;
            stroke-width: 128;
          }
          to {
            stroke: black;
            stroke-width: 1024;
          }
        }
        #make-me-a-hanzi-animation-15 {
          animation: keyframes15 0.6015625s both;
          animation-delay: 10.91552734375s;
          animation-timing-function: linear;
        }
      
    </style>
    
      <path d="M 231 638 L 206 651 Q 193 658 178 658 Q 171 657 168 654 Q 165 652 165 645 Q 165 638 170 618 Q 175 598 177 582 Q 179 565 181 516 Q 184 467 184 447 L 181 244 Q 181 216 175 164 Q 169 112 165 88 Q 161 64 152 38 Q 143 12 143 6 L 143 -12 Q 145 -20 153 -44 Q 160 -68 166 -78 Q 176 -95 183 -95 L 184 -95 Q 192 -94 201 -77 Q 209 -60 212 -25 L 220 78 L 227 243 L 233 383 L 233 405 L 235 455 L 236 506 L 237 526 L 237 562 L 239 597 L 239 619 C 239 634 239 634 231 638 Z" fill="lightgray" />
    
      <path d="M 364 630 L 377 633 Q 378 633 396 636 Q 415 639 428 643 L 458 652 Q 471 655 472 658 L 472 661 Q 472 663 471 666 Q 469 669 461 671 Q 454 674 443 676 Q 431 679 425 680 Q 419 681 413 681 Q 403 680 383 674 Q 364 668 335 660 L 307 652 Q 292 648 271 646 L 249 642 L 233 639 L 231 638 C 203 630 210 628 239 619 L 255 614 Q 257 614 266 613 Q 274 613 283 614 Q 293 614 301 616 Q 308 618 319 620 L 364 630 Z" fill="lightgray" />
    
      <path d="M 373 510 L 420 518 L 450 525 Q 463 528 465 532 Q 466 534 466 535 Q 466 538 464 540 Q 462 543 455 545 L 434 552 Q 427 554 419 555 Q 411 556 405 556 Q 400 556 393 554 Q 385 553 373 550 L 329 538 L 314 536 Q 309 535 283 531 Q 257 528 249 527 L 237 526 C 207 524 207 515 236 506 L 255 500 Q 257 499 265 498 L 281 498 Q 289 498 300 500 Q 311 501 329 504 L 373 510 Z" fill="lightgray" />
    
      <path d="M 372 430 L 373 510 L 373 550 L 375 570 Q 375 573 377 583 Q 379 593 382 601 Q 385 608 385 612 Q 385 616 380 620 Q 375 625 364 630 C 337 643 308 648 319 620 L 325 604 Q 326 602 327 585 Q 329 568 329 550 L 329 538 L 329 504 L 331 420 C 332 390 372 400 372 430 Z" fill="lightgray" />
    
      <path d="M 233 383 L 248 376 Q 253 372 261 370 Q 267 368 272 368 L 275 368 Q 281 368 295 372 Q 309 378 322 381 Q 335 385 349 388 Q 363 390 396 398 Q 430 404 443 406 L 474 410 Q 482 412 482 416 L 482 417 Q 482 422 475 427 Q 467 432 457 434 Q 446 438 437 438 Q 433 439 429 439 Q 424 439 419 438 Q 409 437 399 435 Q 388 432 372 430 L 331 420 L 317 418 Q 289 412 272 409 Q 255 407 233 405 C 203 402 206 396 233 383 Z" fill="lightgray" />
    
      <path d="M 795 692 L 770 700 L 756 704 Q 749 705 741 705 Q 731 704 711 699 Q 690 693 665 687 Q 639 682 630 680 Q 621 678 607 676 L 577 672 L 561 670 Q 555 668 553 665 Q 552 664 552 662 Q 552 660 554 656 Q 557 651 573 647 Q 590 643 595 642 L 611 642 L 629 645 L 645 647 L 657 650 L 706 658 L 745 665 Q 751 666 756 667 L 786 674 L 797 678 C 817 685 817 685 795 692 Z" fill="lightgray" />
    
      <path d="M 665 570 L 627 564 Q 613 562 597 560 L 581 558 Q 575 558 573 554 Q 572 553 572 551 Q 572 548 575 545 Q 577 540 593 536 Q 608 532 615 531 L 631 531 Q 637 531 646 532 Q 655 534 667 535 L 709 542 L 727 544 L 768 552 L 798 558 L 811 564 C 820 568 820 568 810 574 L 803 578 Q 799 580 785 584 Q 771 588 766 588 Q 763 589 758 589 L 754 589 Q 747 589 739 587 Q 729 585 710 580 L 665 570 Z" fill="lightgray" />
    
      <path d="M 657 650 L 662 635 Q 663 632 664 616 Q 665 600 665 580 L 665 570 L 667 535 L 667 450 C 667 420 709 428 709 458 L 709 542 L 710 580 L 713 600 Q 713 606 714 614 Q 715 621 719 630 Q 722 639 722 643 Q 721 647 717 651 Q 713 654 706 658 C 680 673 648 678 657 650 Z" fill="lightgray" />
    
      <path d="M 667 450 L 646 446 Q 645 446 608 442 L 580 438 L 559 436 Q 553 435 552 430 L 552 428 Q 552 424 555 422 Q 560 418 572 414 L 585 410 Q 591 407 596 407 L 599 407 Q 604 407 613 409 L 638 415 Q 655 418 661 420 Q 667 420 698 424 L 739 430 Q 757 431 773 432 L 796 433 L 812 436 C 837 441 837 441 812 454 L 799 461 Q 796 462 783 466 Q 771 470 765 471 Q 760 471 746 467 Q 732 462 709 458 L 667 450 Z" fill="lightgray" />
    
      <path d="M 812 436 L 811 110 Q 810 84 808 46 Q 807 6 805 -9 Q 803 -25 798 -32 Q 793 -39 787 -41 Q 784 -42 780 -42 Q 775 -42 769 -40 Q 759 -38 735 -30 L 719 -26 Q 716 -25 714 -25 Q 710 -25 709 -28 L 709 -30 Q 709 -33 714 -38 L 727 -52 L 748 -74 Q 771 -98 776 -105 L 801 -137 Q 807 -144 813 -145 L 814 -145 Q 820 -145 831 -136 Q 844 -125 851 -110 Q 857 -94 860 -80 Q 862 -68 862 -43 L 861 13 Q 861 58 862 113 L 867 510 Q 868 554 869 577 Q 871 600 873 616 Q 875 633 879 644 Q 884 659 884 666 L 884 668 Q 883 676 869 685 Q 855 694 836 702 Q 817 710 807 710 Q 799 710 796 707 Q 794 705 794 700 Q 794 697 795 692 L 797 678 L 800 666 Q 803 650 805 636 Q 807 622 807 609 Q 809 596 810 574 L 811 564 L 812 542 Q 813 526 813 500 L 812 454 L 812 436 Z" fill="lightgray" />
    
      <path d="M 595 254 L 621 258 L 641 260 L 667 264 Q 676 265 679 268 Q 682 270 682 274 L 682 276 Q 682 280 677 284 Q 673 288 663 292 L 650 297 Q 639 301 633 301 L 631 301 Q 627 300 620 298 L 603 293 L 551 284 L 440 269 L 395 263 L 375 261 L 345 260 L 329 258 Q 322 258 320 255 L 320 253 Q 320 251 322 246 Q 325 240 338 237 Q 351 233 359 232 Q 367 230 375 230 L 399 230 L 441 235 L 547 249 L 595 254 Z" fill="lightgray" />
    
      <path d="M 440 269 L 440 282 Q 440 286 441 293 Q 443 304 445 313 Q 446 318 446 321 L 446 323 Q 445 326 441 330 Q 436 334 429 338 Q 422 340 414 342 Q 406 344 397 344 Q 393 345 390 345 Q 386 345 383 344 Q 377 342 376 339 L 376 337 Q 376 334 378 329 L 383 318 Q 387 310 389 298 Q 391 285 393 278 Q 393 272 395 263 L 399 230 L 407 152 C 410 122 449 126 447 156 L 441 235 L 440 269 Z" fill="lightgray" />
    
      <path d="M 579 168 L 595 254 L 603 293 L 607 309 Q 609 318 615 326 Q 620 333 621 334 Q 622 337 622 339 Q 622 343 620 346 Q 617 352 605 359 L 587 368 Q 583 370 574 373 Q 565 376 560 376 Q 553 375 551 372 Q 548 370 548 365 Q 548 363 549 360 L 554 346 Q 555 341 555 334 L 555 328 Q 555 319 554 309 Q 553 298 551 284 L 547 249 L 539 165 C 536 135 574 139 579 168 Z" fill="lightgray" />
    
      <path d="M 407 152 L 374 148 L 295 142 Q 273 140 268 140 L 257 140 Q 252 139 250 136 L 250 134 Q 250 131 252 127 Q 255 122 268 116 L 285 108 Q 296 103 306 101 Q 314 99 319 99 L 322 99 Q 325 99 335 102 Q 344 104 359 108 L 386 114 L 424 120 Q 437 122 450 123 L 475 126 L 502 128 Q 531 132 566 134 Q 601 136 635 137 Q 652 138 666 138 Q 680 138 691 137 L 730 135 L 739 135 Q 760 135 767 139 Q 775 144 776 149 Q 776 154 769 159 Q 761 164 745 172 Q 728 180 722 182 Q 716 184 709 184 Q 703 184 687 182 Q 671 178 660 176 Q 649 174 627 173 L 603 171 L 579 168 L 539 165 L 516 163 Q 513 162 491 160 Q 471 158 447 156 L 407 152 Z" fill="lightgray" />
    
      <path d="M 317 -48 Q 334 -42 355 -30 L 393 -8 L 427 14 Q 445 27 456 31 Q 467 34 469 38 Q 471 41 471 44 Q 471 48 469 52 Q 465 60 453 68 L 435 81 Q 428 85 414 90 Q 408 92 404 92 Q 400 92 398 90 Q 395 88 392 77 Q 389 66 383 50 Q 375 36 366 24 Q 356 12 336 -6 Q 316 -25 305 -32 L 289 -44 Q 280 -51 280 -55 L 280 -56 Q 281 -59 285 -59 Q 288 -59 293 -57 L 317 -48 Z" fill="lightgray" />
    
      <path d="M 557 92 Q 555 93 553 93 Q 550 93 547 90 Q 546 89 546 87 Q 546 83 551 78 L 559 70 L 575 52 Q 581 44 594 28 L 625 -13 Q 644 -37 653 -44 Q 662 -52 669 -52 L 670 -52 Q 677 -52 682 -44 Q 687 -36 689 -26 Q 690 -21 690 -15 Q 690 -8 689 -1 Q 686 14 676 26 Q 666 38 653 48 Q 640 57 623 66 L 589 82 Q 574 88 567 90 L 557 92 Z" fill="lightgray" />
    
    
      <clipPath id="make-me-a-hanzi-clip-0">
        <path d="M 231 638 L 206 651 Q 193 658 178 658 Q 171 657 168 654 Q 165 652 165 645 Q 165 638 170 618 Q 175 598 177 582 Q 179 565 181 516 Q 184 467 184 447 L 181 244 Q 181 216 175 164 Q 169 112 165 88 Q 161 64 152 38 Q 143 12 143 6 L 143 -12 Q 145 -20 153 -44 Q 160 -68 166 -78 Q 176 -95 183 -95 L 184 -95 Q 192 -94 201 -77 Q 209 -60 212 -25 L 220 78 L 227 243 L 233 383 L 233 405 L 235 455 L 236 506 L 237 526 L 237 562 L 239 597 L 239 619 C 239 634 239 634 231 638 Z" />
      </clipPath>
      <path clip-path="url(#make-me-a-hanzi-clip-0)" d="M 177 646 L 206 612 L 210 462 L 201 176 L 178 -7 L 184 -85" fill="none" id="make-me-a-hanzi-animation-0" stroke-dasharray="872 1744" stroke-linecap="round" />
    
      <clipPath id="make-me-a-hanzi-clip-1">
        <path d="M 364 630 L 377 633 Q 378 633 396 636 Q 415 639 428 643 L 458 652 Q 471 655 472 658 L 472 661 Q 472 663 471 666 Q 469 669 461 671 Q 454 674 443 676 Q 431 679 425 680 Q 419 681 413 681 Q 403 680 383 674 Q 364 668 335 660 L 307 652 Q 292 648 271 646 L 249 642 L 233 639 L 231 638 C 203 630 210 628 239 619 L 255 614 Q 257 614 266 613 Q 274 613 283 614 Q 293 614 301 616 Q 308 618 319 620 L 364 630 Z" />
      </clipPath>
      <path clip-path="url(#make-me-a-hanzi-clip-1)" d="M 234 634 L 262 628 L 397 658 L 463 660" fill="none" id="make-me-a-hanzi-animation-1" stroke-dasharray="361 722" stroke-linecap="round" />
    
      <clipPath id="make-me-a-hanzi-clip-2">
        <path d="M 373 510 L 420 518 L 450 525 Q 463 528 465 532 Q 466 534 466 535 Q 466 538 464 540 Q 462 543 455 545 L 434 552 Q 427 554 419 555 Q 411 556 405 556 Q 400 556 393 554 Q 385 553 373 550 L 329 538 L 314 536 Q 309 535 283 531 Q 257 528 249 527 L 237 526 C 207 524 207 515 236 506 L 255 500 Q 257 499 265 498 L 281 498 Q 289 498 300 500 Q 311 501 329 504 L 373 510 Z" />
      </clipPath>
      <path clip-path="url(#make-me-a-hanzi-clip-2)" d="M 243 521 L 269 513 L 402 536 L 460 535" fill="none" id="make-me-a-hanzi-animation-2" stroke-dasharray="348 696" stroke-linecap="round" />
    
      <clipPath id="make-me-a-hanzi-clip-3">
        <path d="M 372 430 L 373 510 L 373 550 L 375 570 Q 375 573 377 583 Q 379 593 382 601 Q 385 608 385 612 Q 385 616 380 620 Q 375 625 364 630 C 337 643 308 648 319 620 L 325 604 Q 326 602 327 585 Q 329 568 329 550 L 329 538 L 329 504 L 331 420 C 332 390 372 400 372 430 Z" />
      </clipPath>
      <path clip-path="url(#make-me-a-hanzi-clip-3)" d="M 327 619 L 353 600 L 351 447 L 336 427" fill="none" id="make-me-a-hanzi-animation-3" stroke-dasharray="338 676" stroke-linecap="round" />
    
      <clipPath id="make-me-a-hanzi-clip-4">
        <path d="M 233 383 L 248 376 Q 253 372 261 370 Q 267 368 272 368 L 275 368 Q 281 368 295 372 Q 309 378 322 381 Q 335 385 349 388 Q 363 390 396 398 Q 430 404 443 406 L 474 410 Q 482 412 482 416 L 482 417 Q 482 422 475 427 Q 467 432 457 434 Q 446 438 437 438 Q 433 439 429 439 Q 424 439 419 438 Q 409 437 399 435 Q 388 432 372 430 L 331 420 L 317 418 Q 289 412 272 409 Q 255 407 233 405 C 203 402 206 396 233 383 Z" />
      </clipPath>
      <path clip-path="url(#make-me-a-hanzi-clip-4)" d="M 241 400 L 247 392 L 274 389 L 416 420 L 475 417" fill="none" id="make-me-a-hanzi-animation-4" stroke-dasharray="370 740" stroke-linecap="round" />
    
      <clipPath id="make-me-a-hanzi-clip-5">
        <path d="M 795 692 L 770 700 L 756 704 Q 749 705 741 705 Q 731 704 711 699 Q 690 693 665 687 Q 639 682 630 680 Q 621 678 607 676 L 577 672 L 561 670 Q 555 668 553 665 Q 552 664 552 662 Q 552 660 554 656 Q 557 651 573 647 Q 590 643 595 642 L 611 642 L 629 645 L 645 647 L 657 650 L 706 658 L 745 665 Q 751 666 756 667 L 786 674 L 797 678 C 817 685 817 685 795 692 Z" />
      </clipPath>
      <path clip-path="url(#make-me-a-hanzi-clip-5)" d="M 560 661 L 613 659 L 747 685 L 789 684" fill="none" id="make-me-a-hanzi-animation-5" stroke-dasharray="360 720" stroke-linecap="round" />
    
      <clipPath id="make-me-a-hanzi-clip-6">
        <path d="M 665 570 L 627 564 Q 613 562 597 560 L 581 558 Q 575 558 573 554 Q 572 553 572 551 Q 572 548 575 545 Q 577 540 593 536 Q 608 532 615 531 L 631 531 Q 637 531 646 532 Q 655 534 667 535 L 709 542 L 727 544 L 768 552 L 798 558 L 811 564 C 820 568 820 568 810 574 L 803 578 Q 799 580 785 584 Q 771 588 766 588 Q 763 589 758 589 L 754 589 Q 747 589 739 587 Q 729 585 710 580 L 665 570 Z" />
      </clipPath>
      <path clip-path="url(#make-me-a-hanzi-clip-6)" d="M 579 551 L 627 547 L 749 569 L 802 568" fill="none" id="make-me-a-hanzi-animation-6" stroke-dasharray="353 706" stroke-linecap="round" />
    
      <clipPath id="make-me-a-hanzi-clip-7">
        <path d="M 657 650 L 662 635 Q 663 632 664 616 Q 665 600 665 580 L 665 570 L 667 535 L 667 450 C 667 420 709 428 709 458 L 709 542 L 710 580 L 713 600 Q 713 606 714 614 Q 715 621 719 630 Q 722 639 722 643 Q 721 647 717 651 Q 713 654 706 658 C 680 673 648 678 657 650 Z" />
      </clipPath>
      <path clip-path="url(#make-me-a-hanzi-clip-7)" d="M 664 644 L 690 628 L 689 479 L 673 457" fill="none" id="make-me-a-hanzi-animation-7" stroke-dasharray="335 670" stroke-linecap="round" />
    
      <clipPath id="make-me-a-hanzi-clip-8">
        <path d="M 667 450 L 646 446 Q 645 446 608 442 L 580 438 L 559 436 Q 553 435 552 430 L 552 428 Q 552 424 555 422 Q 560 418 572 414 L 585 410 Q 591 407 596 407 L 599 407 Q 604 407 613 409 L 638 415 Q 655 418 661 420 Q 667 420 698 424 L 739 430 Q 757 431 773 432 L 796 433 L 812 436 C 837 441 837 441 812 454 L 799 461 Q 796 462 783 466 Q 771 470 765 471 Q 760 471 746 467 Q 732 462 709 458 L 667 450 Z" />
      </clipPath>
      <path clip-path="url(#make-me-a-hanzi-clip-8)" d="M 559 429 L 595 423 L 764 451 L 807 441" fill="none" id="make-me-a-hanzi-animation-8" stroke-dasharray="380 760" stroke-linecap="round" />
    
      <clipPath id="make-me-a-hanzi-clip-9">
        <path d="M 812 436 L 811 110 Q 810 84 808 46 Q 807 6 805 -9 Q 803 -25 798 -32 Q 793 -39 787 -41 Q 784 -42 780 -42 Q 775 -42 769 -40 Q 759 -38 735 -30 L 719 -26 Q 716 -25 714 -25 Q 710 -25 709 -28 L 709 -30 Q 709 -33 714 -38 L 727 -52 L 748 -74 Q 771 -98 776 -105 L 801 -137 Q 807 -144 813 -145 L 814 -145 Q 820 -145 831 -136 Q 844 -125 851 -110 Q 857 -94 860 -80 Q 862 -68 862 -43 L 861 13 Q 861 58 862 113 L 867 510 Q 868 554 869 577 Q 871 600 873 616 Q 875 633 879 644 Q 884 659 884 666 L 884 668 Q 883 676 869 685 Q 855 694 836 702 Q 817 710 807 710 Q 799 710 796 707 Q 794 705 794 700 Q 794 697 795 692 L 797 678 L 800 666 Q 803 650 805 636 Q 807 622 807 609 Q 809 596 810 574 L 811 564 L 812 542 Q 813 526 813 500 L 812 454 L 812 436 Z" />
      </clipPath>
      <path clip-path="url(#make-me-a-hanzi-clip-9)" d="M 804 701 L 842 656 L 831 -37 L 813 -78 L 770 -64 L 713 -29" fill="none" id="make-me-a-hanzi-animation-9" stroke-dasharray="1037 2074" stroke-linecap="round" />
    
      <clipPath id="make-me-a-hanzi-clip-10">
        <path d="M 595 254 L 621 258 L 641 260 L 667 264 Q 676 265 679 268 Q 682 270 682 274 L 682 276 Q 682 280 677 284 Q 673 288 663 292 L 650 297 Q 639 301 633 301 L 631 301 Q 627 300 620 298 L 603 293 L 551 284 L 440 269 L 395 263 L 375 261 L 345 260 L 329 258 Q 322 258 320 255 L 320 253 Q 320 251 322 246 Q 325 240 338 237 Q 351 233 359 232 Q 367 230 375 230 L 399 230 L 441 235 L 547 249 L 595 254 Z" />
      </clipPath>
      <path clip-path="url(#make-me-a-hanzi-clip-10)" d="M 325 254 L 336 248 L 392 246 L 631 280 L 673 275" fill="none" id="make-me-a-hanzi-animation-10" stroke-dasharray="480 960" stroke-linecap="round" />
    
      <clipPath id="make-me-a-hanzi-clip-11">
        <path d="M 440 269 L 440 282 Q 440 286 441 293 Q 443 304 445 313 Q 446 318 446 321 L 446 323 Q 445 326 441 330 Q 436 334 429 338 Q 422 340 414 342 Q 406 344 397 344 Q 393 345 390 345 Q 386 345 383 344 Q 377 342 376 339 L 376 337 Q 376 334 378 329 L 383 318 Q 387 310 389 298 Q 391 285 393 278 Q 393 272 395 263 L 399 230 L 407 152 C 410 122 449 126 447 156 L 441 235 L 440 269 Z" />
      </clipPath>
      <path clip-path="url(#make-me-a-hanzi-clip-11)" d="M 382 338 L 415 310 L 425 173 L 413 160" fill="none" id="make-me-a-hanzi-animation-11" stroke-dasharray="326 652" stroke-linecap="round" />
    
      <clipPath id="make-me-a-hanzi-clip-12">
        <path d="M 579 168 L 595 254 L 603 293 L 607 309 Q 609 318 615 326 Q 620 333 621 334 Q 622 337 622 339 Q 622 343 620 346 Q 617 352 605 359 L 587 368 Q 583 370 574 373 Q 565 376 560 376 Q 553 375 551 372 Q 548 370 548 365 Q 548 363 549 360 L 554 346 Q 555 341 555 334 L 555 328 Q 555 319 554 309 Q 553 298 551 284 L 547 249 L 539 165 C 536 135 574 139 579 168 Z" />
      </clipPath>
      <path clip-path="url(#make-me-a-hanzi-clip-12)" d="M 559 365 L 585 335 L 562 187 L 545 171" fill="none" id="make-me-a-hanzi-animation-12" stroke-dasharray="341 682" stroke-linecap="round" />
    
      <clipPath id="make-me-a-hanzi-clip-13">
        <path d="M 407 152 L 374 148 L 295 142 Q 273 140 268 140 L 257 140 Q 252 139 250 136 L 250 134 Q 250 131 252 127 Q 255 122 268 116 L 285 108 Q 296 103 306 101 Q 314 99 319 99 L 322 99 Q 325 99 335 102 Q 344 104 359 108 L 386 114 L 424 120 Q 437 122 450 123 L 475 126 L 502 128 Q 531 132 566 134 Q 601 136 635 137 Q 652 138 666 138 Q 680 138 691 137 L 730 135 L 739 135 Q 760 135 767 139 Q 775 144 776 149 Q 776 154 769 159 Q 761 164 745 172 Q 728 180 722 182 Q 716 184 709 184 Q 703 184 687 182 Q 671 178 660 176 Q 649 174 627 173 L 603 171 L 579 168 L 539 165 L 516 163 Q 513 162 491 160 Q 471 158 447 156 L 407 152 Z" />
      </clipPath>
      <path clip-path="url(#make-me-a-hanzi-clip-13)" d="M 255 135 L 316 121 L 471 143 L 685 160 L 766 149" fill="none" id="make-me-a-hanzi-animation-13" stroke-dasharray="644 1288" stroke-linecap="round" />
    
      <clipPath id="make-me-a-hanzi-clip-14">
        <path d="M 317 -48 Q 334 -42 355 -30 L 393 -8 L 427 14 Q 445 27 456 31 Q 467 34 469 38 Q 471 41 471 44 Q 471 48 469 52 Q 465 60 453 68 L 435 81 Q 428 85 414 90 Q 408 92 404 92 Q 400 92 398 90 Q 395 88 392 77 Q 389 66 383 50 Q 375 36 366 24 Q 356 12 336 -6 Q 316 -25 305 -32 L 289 -44 Q 280 -51 280 -55 L 280 -56 Q 281 -59 285 -59 Q 288 -59 293 -57 L 317 -48 Z" />
      </clipPath>
      <path clip-path="url(#make-me-a-hanzi-clip-14)" d="M 458 45 L 419 50 L 377 5 L 284 -55" fill="none" id="make-me-a-hanzi-animation-14" stroke-dasharray="340 680" stroke-linecap="round" />
    
      <clipPath id="make-me-a-hanzi-clip-15">
        <path d="M 557 92 Q 555 93 553 93 Q 550 93 547 90 Q 546 89 546 87 Q 546 83 551 78 L 559 70 L 575 52 Q 581 44 594 28 L 625 -13 Q 644 -37 653 -44 Q 662 -52 669 -52 L 670 -52 Q 677 -52 682 -44 Q 687 -36 689 -26 Q 690 -21 690 -15 Q 690 -8 689 -1 Q 686 14 676 26 Q 666 38 653 48 Q 640 57 623 66 L 589 82 Q 574 88 567 90 L 557 92 Z" />
      </clipPath>
      <path clip-path="url(#make-me-a-hanzi-clip-15)" d="M 553 87 L 639 20 L 658 -4 L 670 -38" fill="none" id="make-me-a-hanzi-animation-15" stroke-dasharray="304 608" stroke-linecap="round" />
    
  </g>
</svg>