<svg xmlns="http://www.w3.org/2000/svg" version="1.1" viewBox="0 0 1024 1024">
  <g stroke="lightgray" stroke-dasharray="1,1" stroke-width="1" transform="scale(4, 4)">
    <line x1="0" y1="0" x2="256" y2="256" />
    <line x1="256" y1="0" x2="0" y2="256" />
    <line x1="128" y1="0" x2="128" y2="256" />
    <line x1="0" y1="128" x2="256" y2="128" />
  </g>
  <g transform="scale(1.0, -1.0) translate(0.0, -819.00)">
    <style type="text/css">
      
        @keyframes keyframes0 {
          from {
            stroke: blue;
            stroke-dashoffset: 513;
            stroke-width: 128;
          }
          63% {
            animation-timing-function: step-end;
            stroke: blue;
            stroke-dashoffset: 0;
            stroke-width: 128;
          }
          to {
            stroke: black;
            stroke-width: 1024;
          }
        }
        #make-me-a-hanzi-animation-0 {
          animation: keyframes0 0.66748046875s both;
          animation-delay: 0s;
          animation-timing-function: linear;
        }
      
        @keyframes keyframes1 {
          from {
            stroke: blue;
            stroke-dashoffset: 525;
            stroke-width: 128;
          }
          63% {
            animation-timing-function: step-end;
            stroke: blue;
            stroke-dashoffset: 0;
            stroke-width: 128;
          }
          to {
            stroke: black;
            stroke-width: 1024;
          }
        }
        #make-me-a-hanzi-animation-1 {
          animation: keyframes1 0.67724609375s both;
          animation-delay: 0.66748046875s;
          animation-timing-function: linear;
        }
      
        @keyframes keyframes2 {
          from {
            stroke: blue;
            stroke-dashoffset: 777;
            stroke-width: 128;
          }
          72% {
            animation-timing-function: step-end;
            stroke: blue;
            stroke-dashoffset: 0;
            stroke-width: 128;
          }
          to {
            stroke: black;
            stroke-width: 1024;
          }
        }
        #make-me-a-hanzi-animation-2 {
          animation: keyframes2 0.88232421875s both;
          animation-delay: 1.3447265625s;
          animation-timing-function: linear;
        }
      
        @keyframes keyframes3 {
          from {
            stroke: blue;
            stroke-dashoffset: 475;
            stroke-width: 128;
          }
          61% {
            animation-timing-function: step-end;
            stroke: blue;
            stroke-dashoffset: 0;
            stroke-width: 128;
          }
          to {
            stroke: black;
            stroke-width: 1024;
          }
        }
        #make-me-a-hanzi-animation-3 {
          animation: keyframes3 0.6365559895833334s both;
          animation-delay: 2.22705078125s;
          animation-timing-function: linear;
        }
      
        @keyframes keyframes4 {
          from {
            stroke: blue;
            stroke-dashoffset: 448;
            stroke-width: 128;
          }
          59% {
            animation-timing-function: step-end;
            stroke: blue;
            stroke-dashoffset: 0;
            stroke-width: 128;
          }
          to {
            stroke: black;
            stroke-width: 1024;
          }
        }
        #make-me-a-hanzi-animation-4 {
          animation: keyframes4 0.6145833333333334s both;
          animation-delay: 2.8636067708333335s;
          animation-timing-function: linear;
        }
      
        @keyframes keyframes5 {
          from {
            stroke: blue;
            stroke-dashoffset: 452;
            stroke-width: 128;
          }
          60% {
            animation-timing-function: step-end;
            stroke: blue;
            stroke-dashoffset: 0;
            stroke-width: 128;
          }
          to {
            stroke: black;
            stroke-width: 1024;
          }
        }
        #make-me-a-hanzi-animation-5 {
          animation: keyframes5 0.6178385416666666s both;
          animation-delay: 3.478190104166667s;
          animation-timing-function: linear;
        }
      
        @keyframes keyframes6 {
          from {
            stroke: blue;
            stroke-dashoffset: 630;
            stroke-width: 128;
          }
          67% {
            animation-timing-function: step-end;
            stroke: blue;
            stroke-dashoffset: 0;
            stroke-width: 128;
          }
          to {
            stroke: black;
            stroke-width: 1024;
          }
        }
        #make-me-a-hanzi-animation-6 {
          animation: keyframes6 0.7626953125s both;
          animation-delay: 4.096028645833334s;
          animation-timing-function: linear;
        }
      
        @keyframes keyframes7 {
          from {
            stroke: blue;
            stroke-dashoffset: 1314;
            stroke-width: 128;
          }
          81% {
            animation-timing-function: step-end;
            stroke: blue;
            stroke-dashoffset: 0;
            stroke-width: 128;
          }
          to {
            stroke: black;
            stroke-width: 1024;
          }
        }
        #make-me-a-hanzi-animation-7 {
          animation: keyframes7 1.3193359375s both;
          animation-delay: 4.858723958333334s;
          animation-timing-function: linear;
        }
      
        @keyframes keyframes8 {
          from {
            stroke: blue;
            stroke-dashoffset: 530;
            stroke-width: 128;
          }
          63% {
            animation-timing-function: step-end;
            stroke: blue;
            stroke-dashoffset: 0;
            stroke-width: 128;
          }
          to {
            stroke: black;
            stroke-width: 1024;
          }
        }
        #make-me-a-hanzi-animation-8 {
          animation: keyframes8 0.6813151041666666s both;
          animation-delay: 6.178059895833334s;
          animation-timing-function: linear;
        }
      
        @keyframes keyframes9 {
          from {
            stroke: blue;
            stroke-dashoffset: 366;
            stroke-width: 128;
          }
          54% {
            animation-timing-function: step-end;
            stroke: blue;
            stroke-dashoffset: 0;
            stroke-width: 128;
          }
          to {
            stroke: black;
            stroke-width: 1024;
          }
        }
        #make-me-a-hanzi-animation-9 {
          animation: keyframes9 0.5478515625s both;
          animation-delay: 6.859375000000001s;
          animation-timing-function: linear;
        }
      
        @keyframes keyframes10 {
          from {
            stroke: blue;
            stroke-dashoffset: 512;
            stroke-width: 128;
          }
          63% {
            animation-timing-function: step-end;
            stroke: blue;
            stroke-dashoffset: 0;
            stroke-width: 128;
          }
          to {
            stroke: black;
            stroke-width: 1024;
          }
        }
        #make-me-a-hanzi-animation-10 {
          animation: keyframes10 0.6666666666666666s both;
          animation-delay: 7.407226562500001s;
          animation-timing-function: linear;
        }
      
        @keyframes keyframes11 {
          from {
            stroke: blue;
            stroke-dashoffset: 644;
            stroke-width: 128;
          }
          68% {
            animation-timing-function: step-end;
            stroke: blue;
            stroke-dashoffset: 0;
            stroke-width: 128;
          }
          to {
            stroke: black;
            stroke-width: 1024;
          }
        }
        #make-me-a-hanzi-animation-11 {
          animation: keyframes11 0.7740885416666666s both;
          animation-delay: 8.073893229166668s;
          animation-timing-function: linear;
        }
      
        @keyframes keyframes12 {
          from {
            stroke: blue;
            stroke-dashoffset: 957;
            stroke-width: 128;
          }
          76% {
            animation-timing-function: step-end;
            stroke: blue;
            stroke-dashoffset: 0;
            stroke-width: 128;
          }
          to {
            stroke: black;
            stroke-width: 1024;
          }
        }
        #make-me-a-hanzi-animation-12 {
          animation: keyframes12 1.02880859375s both;
          animation-delay: 8.847981770833334s;
          animation-timing-function: linear;
        }
      
        @keyframes keyframes13 {
          from {
            stroke: blue;
            stroke-dashoffset: 496;
            stroke-width: 128;
          }
          62% {
            animation-timing-function: step-end;
            stroke: blue;
            stroke-dashoffset: 0;
            stroke-width: 128;
          }
          to {
            stroke: black;
            stroke-width: 1024;
          }
        }
        #make-me-a-hanzi-animation-13 {
          animation: keyframes13 0.6536458333333334s both;
          animation-delay: 9.876790364583334s;
          animation-timing-function: linear;
        }
      
        @keyframes keyframes14 {
          from {
            stroke: blue;
            stroke-dashoffset: 482;
            stroke-width: 128;
          }
          61% {
            animation-timing-function: step-end;
            stroke: blue;
            stroke-dashoffset: 0;
            stroke-width: 128;
          }
          to {
            stroke: black;
            stroke-width: 1024;
          }
        }
        #make-me-a-hanzi-animation-14 {
          animation: keyframes14 0.6422526041666666s both;
          animation-delay: 10.530436197916668s;
          animation-timing-function: linear;
        }
      
    </style>
    
      <path d="M 217 514 L 251 546 Q 270 565 295 593 L 338 644 Q 349 658 355 664 Q 362 670 370 676 Q 377 682 379 684 Q 379 690 370 699 Q 361 709 347 714 L 318 726 Q 309 729 304 729 Q 302 729 301 728 Q 299 725 297 713 Q 295 702 293 693 Q 291 684 282 663 Q 273 642 254 608 Q 235 574 222 554 Q 209 534 193 512 C 175 488 195 493 217 514 Z" fill="lightgray" />
    
      <path d="M 167 510 L 145 516 Q 127 519 123 520 Q 111 520 109 517 Q 107 515 107 512 Q 107 510 108 508 Q 109 504 118 494 Q 126 484 131 472 Q 136 459 137 452 Q 139 446 142 426 L 153 352 L 156 325 Q 157 315 160 296 Q 163 278 165 270 Q 167 262 170 258 Q 174 253 179 253 L 181 253 Q 186 254 189 258 Q 192 262 194 267 L 197 298 L 189 379 L 187 406 L 181 452 Q 180 456 177 485 C 175 508 175 508 167 510 Z" fill="lightgray" />
    
      <path d="M 389 289 L 397 278 Q 403 270 412 270 L 414 270 Q 422 270 427 278 Q 434 286 436 297 Q 439 308 445 333 Q 452 358 459 390 Q 466 422 471 439 Q 475 456 480 471 Q 485 486 490 494 Q 498 505 498 510 L 498 511 Q 498 516 489 524 Q 481 532 467 540 Q 453 548 442 552 Q 431 557 425 557 Q 421 556 411 553 Q 401 550 376 544 L 343 536 Q 325 532 311 530 L 217 514 L 193 512 L 167 510 C 137 508 147 480 177 485 L 195 488 Q 196 488 214 489 Q 231 490 259 494 L 301 500 L 335 506 L 372 512 Q 393 514 401 516 Q 415 516 418 512 Q 421 509 422 497 Q 422 485 421 472 L 415 429 L 413 408 L 405 356 Q 403 341 400 330 Q 397 320 393 318 C 383 298 383 298 389 289 Z" fill="lightgray" />
    
      <path d="M 270 419 L 233 412 Q 224 410 187 406 C 157 403 159 379 189 379 L 212 379 Q 222 379 235 381 Q 253 384 271 386 L 314 393 L 348 398 L 388 405 L 413 408 C 443 412 444 420 415 429 L 393 436 Q 387 439 378 439 L 373 439 Q 361 438 346 434 Q 331 430 314 427 L 270 419 Z" fill="lightgray" />
    
      <path d="M 259 494 L 265 472 Q 267 464 268 450 Q 269 436 270 419 L 271 386 L 274 307 C 275 277 310 283 311 313 L 314 393 L 314 427 L 315 448 Q 315 455 317 463 L 322 476 Q 323 480 323 484 Q 322 488 317 492 Q 311 496 301 500 C 273 512 252 521 259 494 Z" fill="lightgray" />
    
      <path d="M 245 271 L 294 277 L 326 282 L 369 287 Q 371 287 389 289 C 419 292 423 322 393 318 Q 391 317 387 317 Q 383 317 377 318 Q 364 321 359 321 Q 355 320 344 318 Q 333 316 325 315 L 311 313 L 274 307 L 233 302 Q 227 300 197 298 C 167 296 164 267 194 267 L 206 267 Q 207 267 211 266 L 245 271 Z" fill="lightgray" />
    
      <path d="M 211 266 L 212 248 L 212 244 Q 212 235 209 217 Q 205 196 195 165 Q 185 134 171 106 Q 157 78 143 55 Q 128 33 111 13 L 85 -16 L 67 -34 Q 62 -40 62 -43 Q 62 -44 63 -45 Q 65 -46 66 -46 Q 69 -46 71 -44 L 98 -32 Q 113 -24 136 -6 Q 159 13 177 36 Q 195 59 210 86 Q 224 112 237 143 L 259 193 Q 267 212 272 220 Q 278 228 279 230 Q 279 234 275 241 Q 271 247 264 254 L 245 271 C 223 291 209 296 211 266 Z" fill="lightgray" />
    
      <path d="M 294 277 L 299 261 Q 303 252 305 236 Q 307 222 307 208 Q 306 194 303 168 L 295 92 Q 293 68 293 45 L 293 30 Q 295 2 309 -24 Q 323 -48 357 -69 Q 390 -90 433 -100 Q 475 -111 522 -113 Q 569 -115 632 -115 L 657 -115 Q 706 -115 737 -112 Q 775 -110 825 -100 Q 876 -90 907 -79 Q 939 -68 951 -58 Q 963 -48 966 -40 Q 968 -35 968 -31 Q 968 -28 967 -26 Q 965 -20 959 -9 Q 953 2 948 18 L 939 47 Q 935 60 933 79 L 927 110 Q 925 119 920 119 Q 915 118 913 108 L 907 83 Q 905 72 899 52 Q 893 33 887 21 Q 881 8 871 -2 Q 861 -12 839 -23 Q 818 -34 781 -42 Q 743 -50 702 -52 Q 661 -55 619 -55 L 591 -55 Q 561 -55 528 -54 Q 477 -52 439 -44 Q 401 -36 378 -22 Q 355 -7 347 6 Q 337 24 337 48 Q 337 72 341 103 Q 345 134 348 150 L 355 187 Q 360 208 363 215 L 373 233 Q 378 241 378 246 L 378 247 Q 378 252 367 260 Q 356 268 348 272 Q 341 276 326 282 C 299 295 287 301 294 277 Z" fill="lightgray" />
    
      <path d="M 404 110 L 421 133 Q 423 136 435 157 Q 447 178 453 185 Q 459 192 466 199 Q 473 206 474 209 L 474 211 Q 474 213 472 217 Q 470 222 465 230 Q 461 236 453 245 Q 446 253 440 256 Q 435 258 432 258 Q 430 258 429 257 Q 426 255 426 244 Q 425 234 423 222 Q 421 212 415 194 Q 409 178 403 168 Q 399 158 390 142 Q 381 127 376 122 L 362 111 Q 359 108 359 105 Q 358 102 358 99 Q 358 94 361 86 Q 365 73 369 66 Q 373 60 379 60 L 380 60 Q 382 60 388 64 Q 395 68 402 71 L 423 80 Q 439 86 445 88 L 490 102 C 519 111 513 125 483 121 L 404 110 Z" fill="lightgray" />
    
      <path d="M 490 102 L 501 82 Q 507 70 512 65 Q 517 60 523 60 L 524 60 Q 528 60 531 64 Q 536 68 539 79 Q 540 84 540 88 Q 540 93 539 98 Q 539 106 534 118 Q 529 129 522 137 Q 515 146 502 153 Q 490 161 480 166 Q 474 168 471 168 Q 469 168 468 167 Q 466 165 466 162 Q 466 160 467 158 Q 469 150 473 142 L 483 121 L 490 102 Z" fill="lightgray" />
    
      <path d="M 727 460 L 767 467 L 799 474 Q 825 480 831 484 Q 839 489 839 492 Q 839 496 834 501 Q 829 506 822 509 L 803 516 Q 791 520 786 520 Q 781 520 771 516 L 753 509 Q 745 506 728 502 L 683 492 L 646 485 L 617 481 L 585 476 Q 573 474 572 472 L 572 471 Q 572 468 575 462 Q 580 454 595 452 Q 609 449 622 449 L 630 449 Q 638 449 649 450 Q 665 451 683 453 L 727 460 Z" fill="lightgray" />
    
      <path d="M 721 346 L 755 348 L 801 349 Q 811 348 835 347 Q 859 345 873 344 L 899 344 Q 906 344 908 349 L 908 351 Q 908 355 904 362 Q 899 368 887 376 Q 875 384 863 388 Q 851 394 843 394 L 839 394 Q 832 394 821 392 Q 807 390 790 388 Q 774 386 762 385 Q 751 384 724 381 L 682 376 L 641 370 L 593 364 L 551 358 L 523 356 Q 516 355 515 352 L 515 350 Q 515 347 519 342 Q 523 336 538 329 Q 552 322 560 319 Q 566 317 571 317 L 575 317 Q 581 317 595 322 Q 610 326 627 329 L 665 336 L 721 346 Z" fill="lightgray" />
    
      <path d="M 677 266 L 673 213 L 669 174 Q 668 161 663 127 L 655 82 Q 651 60 651 52 Q 652 44 657 31 Q 661 18 666 6 Q 671 -6 677 -12 Q 682 -19 686 -19 L 687 -19 Q 693 -19 699 -10 Q 705 0 708 19 Q 712 38 713 56 Q 715 73 715 98 Q 715 122 717 160 L 719 276 L 719 304 L 721 346 L 724 381 L 727 460 L 728 502 L 732 563 Q 733 584 735 592 Q 736 600 739 612 L 746 630 Q 748 636 748 639 L 748 641 Q 747 644 740 652 Q 733 660 718 668 Q 703 677 694 681 L 677 686 Q 667 686 663 682 Q 662 681 662 679 Q 662 675 665 666 L 673 647 Q 675 636 678 622 Q 680 608 682 586 Q 683 564 683 552 L 683 492 L 683 453 L 682 376 L 677 266 Z" fill="lightgray" />
    
      <path d="M 665 336 L 649 304 Q 638 284 614 252 Q 591 220 575 205 Q 560 190 547 179 L 525 160 Q 519 156 519 152 Q 519 151 520 150 Q 522 147 525 147 Q 528 147 532 149 L 561 161 Q 573 166 596 183 Q 618 200 631 214 Q 645 227 655 240 Q 666 252 677 266 C 741 346 678 363 665 336 Z" fill="lightgray" />
    
      <path d="M 719 276 L 759 236 Q 771 224 789 203 L 827 158 L 845 136 Q 853 124 860 120 Q 866 116 871 116 Q 878 116 883 122 Q 887 128 891 140 Q 893 154 893 162 Q 893 170 887 179 Q 882 189 863 205 Q 845 221 830 232 L 791 259 L 752 285 Q 738 294 719 304 C 693 318 698 297 719 276 Z" fill="lightgray" />
    
    
      <clipPath id="make-me-a-hanzi-clip-0">
        <path d="M 217 514 L 251 546 Q 270 565 295 593 L 338 644 Q 349 658 355 664 Q 362 670 370 676 Q 377 682 379 684 Q 379 690 370 699 Q 361 709 347 714 L 318 726 Q 309 729 304 729 Q 302 729 301 728 Q 299 725 297 713 Q 295 702 293 693 Q 291 684 282 663 Q 273 642 254 608 Q 235 574 222 554 Q 209 534 193 512 C 175 488 195 493 217 514 Z" />
      </clipPath>
      <path clip-path="url(#make-me-a-hanzi-clip-0)" d="M 370 685 L 342 688 L 326 683 L 237 550 L 217 526 L 199 516" fill="none" id="make-me-a-hanzi-animation-0" stroke-dasharray="385 770" stroke-linecap="round" />
    
      <clipPath id="make-me-a-hanzi-clip-1">
        <path d="M 167 510 L 145 516 Q 127 519 123 520 Q 111 520 109 517 Q 107 515 107 512 Q 107 510 108 508 Q 109 504 118 494 Q 126 484 131 472 Q 136 459 137 452 Q 139 446 142 426 L 153 352 L 156 325 Q 157 315 160 296 Q 163 278 165 270 Q 167 262 170 258 Q 174 253 179 253 L 181 253 Q 186 254 189 258 Q 192 262 194 267 L 197 298 L 189 379 L 187 406 L 181 452 Q 180 456 177 485 C 175 508 175 508 167 510 Z" />
      </clipPath>
      <path clip-path="url(#make-me-a-hanzi-clip-1)" d="M 115 512 L 153 483 L 168 398 L 180 264" fill="none" id="make-me-a-hanzi-animation-1" stroke-dasharray="397 794" stroke-linecap="round" />
    
      <clipPath id="make-me-a-hanzi-clip-2">
        <path d="M 389 289 L 397 278 Q 403 270 412 270 L 414 270 Q 422 270 427 278 Q 434 286 436 297 Q 439 308 445 333 Q 452 358 459 390 Q 466 422 471 439 Q 475 456 480 471 Q 485 486 490 494 Q 498 505 498 510 L 498 511 Q 498 516 489 524 Q 481 532 467 540 Q 453 548 442 552 Q 431 557 425 557 Q 421 556 411 553 Q 401 550 376 544 L 343 536 Q 325 532 311 530 L 217 514 L 193 512 L 167 510 C 137 508 147 480 177 485 L 195 488 Q 196 488 214 489 Q 231 490 259 494 L 301 500 L 335 506 L 372 512 Q 393 514 401 516 Q 415 516 418 512 Q 421 509 422 497 Q 422 485 421 472 L 415 429 L 413 408 L 405 356 Q 403 341 400 330 Q 397 320 393 318 C 383 298 383 298 389 289 Z" />
      </clipPath>
      <path clip-path="url(#make-me-a-hanzi-clip-2)" d="M 174 506 L 188 500 L 219 501 L 412 534 L 438 527 L 456 505 L 413 286" fill="none" id="make-me-a-hanzi-animation-2" stroke-dasharray="649 1298" stroke-linecap="round" />
    
      <clipPath id="make-me-a-hanzi-clip-3">
        <path d="M 270 419 L 233 412 Q 224 410 187 406 C 157 403 159 379 189 379 L 212 379 Q 222 379 235 381 Q 253 384 271 386 L 314 393 L 348 398 L 388 405 L 413 408 C 443 412 444 420 415 429 L 393 436 Q 387 439 378 439 L 373 439 Q 361 438 346 434 Q 331 430 314 427 L 270 419 Z" />
      </clipPath>
      <path clip-path="url(#make-me-a-hanzi-clip-3)" d="M 195 386 L 203 394 L 369 421 L 401 420 L 406 414" fill="none" id="make-me-a-hanzi-animation-3" stroke-dasharray="347 694" stroke-linecap="round" />
    
      <clipPath id="make-me-a-hanzi-clip-4">
        <path d="M 259 494 L 265 472 Q 267 464 268 450 Q 269 436 270 419 L 271 386 L 274 307 C 275 277 310 283 311 313 L 314 393 L 314 427 L 315 448 Q 315 455 317 463 L 322 476 Q 323 480 323 484 Q 322 488 317 492 Q 311 496 301 500 C 273 512 252 521 259 494 Z" />
      </clipPath>
      <path clip-path="url(#make-me-a-hanzi-clip-4)" d="M 267 490 L 292 472 L 293 334 L 279 315" fill="none" id="make-me-a-hanzi-animation-4" stroke-dasharray="320 640" stroke-linecap="round" />
    
      <clipPath id="make-me-a-hanzi-clip-5">
        <path d="M 245 271 L 294 277 L 326 282 L 369 287 Q 371 287 389 289 C 419 292 423 322 393 318 Q 391 317 387 317 Q 383 317 377 318 Q 364 321 359 321 Q 355 320 344 318 Q 333 316 325 315 L 311 313 L 274 307 L 233 302 Q 227 300 197 298 C 167 296 164 267 194 267 L 206 267 Q 207 267 211 266 L 245 271 Z" />
      </clipPath>
      <path clip-path="url(#make-me-a-hanzi-clip-5)" d="M 200 274 L 242 288 L 376 303 L 391 311" fill="none" id="make-me-a-hanzi-animation-5" stroke-dasharray="324 648" stroke-linecap="round" />
    
      <clipPath id="make-me-a-hanzi-clip-6">
        <path d="M 211 266 L 212 248 L 212 244 Q 212 235 209 217 Q 205 196 195 165 Q 185 134 171 106 Q 157 78 143 55 Q 128 33 111 13 L 85 -16 L 67 -34 Q 62 -40 62 -43 Q 62 -44 63 -45 Q 65 -46 66 -46 Q 69 -46 71 -44 L 98 -32 Q 113 -24 136 -6 Q 159 13 177 36 Q 195 59 210 86 Q 224 112 237 143 L 259 193 Q 267 212 272 220 Q 278 228 279 230 Q 279 234 275 241 Q 271 247 264 254 L 245 271 C 223 291 209 296 211 266 Z" />
      </clipPath>
      <path clip-path="url(#make-me-a-hanzi-clip-6)" d="M 217 262 L 237 245 L 242 229 L 201 116 L 150 31 L 108 -11 L 66 -42" fill="none" id="make-me-a-hanzi-animation-6" stroke-dasharray="502 1004" stroke-linecap="round" />
    
      <clipPath id="make-me-a-hanzi-clip-7">
        <path d="M 294 277 L 299 261 Q 303 252 305 236 Q 307 222 307 208 Q 306 194 303 168 L 295 92 Q 293 68 293 45 L 293 30 Q 295 2 309 -24 Q 323 -48 357 -69 Q 390 -90 433 -100 Q 475 -111 522 -113 Q 569 -115 632 -115 L 657 -115 Q 706 -115 737 -112 Q 775 -110 825 -100 Q 876 -90 907 -79 Q 939 -68 951 -58 Q 963 -48 966 -40 Q 968 -35 968 -31 Q 968 -28 967 -26 Q 965 -20 959 -9 Q 953 2 948 18 L 939 47 Q 935 60 933 79 L 927 110 Q 925 119 920 119 Q 915 118 913 108 L 907 83 Q 905 72 899 52 Q 893 33 887 21 Q 881 8 871 -2 Q 861 -12 839 -23 Q 818 -34 781 -42 Q 743 -50 702 -52 Q 661 -55 619 -55 L 591 -55 Q 561 -55 528 -54 Q 477 -52 439 -44 Q 401 -36 378 -22 Q 355 -7 347 6 Q 337 24 337 48 Q 337 72 341 103 Q 345 134 348 150 L 355 187 Q 360 208 363 215 L 373 233 Q 378 241 378 246 L 378 247 Q 378 252 367 260 Q 356 268 348 272 Q 341 276 326 282 C 299 295 287 301 294 277 Z" />
      </clipPath>
      <path clip-path="url(#make-me-a-hanzi-clip-7)" d="M 300 274 L 324 259 L 338 239 L 316 83 L 318 15 L 332 -15 L 364 -44 L 433 -72 L 544 -85 L 665 -85 L 754 -79 L 842 -61 L 888 -42 L 914 -22 L 920 112" fill="none" id="make-me-a-hanzi-animation-7" stroke-dasharray="1186 2372" stroke-linecap="round" />
    
      <clipPath id="make-me-a-hanzi-clip-8">
        <path d="M 404 110 L 421 133 Q 423 136 435 157 Q 447 178 453 185 Q 459 192 466 199 Q 473 206 474 209 L 474 211 Q 474 213 472 217 Q 470 222 465 230 Q 461 236 453 245 Q 446 253 440 256 Q 435 258 432 258 Q 430 258 429 257 Q 426 255 426 244 Q 425 234 423 222 Q 421 212 415 194 Q 409 178 403 168 Q 399 158 390 142 Q 381 127 376 122 L 362 111 Q 359 108 359 105 Q 358 102 358 99 Q 358 94 361 86 Q 365 73 369 66 Q 373 60 379 60 L 380 60 Q 382 60 388 64 Q 395 68 402 71 L 423 80 Q 439 86 445 88 L 490 102 C 519 111 513 125 483 121 L 404 110 Z" />
      </clipPath>
      <path clip-path="url(#make-me-a-hanzi-clip-8)" d="M 433 249 L 446 214 L 383 96 L 400 91 L 475 109 L 481 104" fill="none" id="make-me-a-hanzi-animation-8" stroke-dasharray="402 804" stroke-linecap="round" />
    
      <clipPath id="make-me-a-hanzi-clip-9">
        <path d="M 490 102 L 501 82 Q 507 70 512 65 Q 517 60 523 60 L 524 60 Q 528 60 531 64 Q 536 68 539 79 Q 540 84 540 88 Q 540 93 539 98 Q 539 106 534 118 Q 529 129 522 137 Q 515 146 502 153 Q 490 161 480 166 Q 474 168 471 168 Q 469 168 468 167 Q 466 165 466 162 Q 466 160 467 158 Q 469 150 473 142 L 483 121 L 490 102 Z" />
      </clipPath>
      <path clip-path="url(#make-me-a-hanzi-clip-9)" d="M 471 163 L 508 120 L 524 69" fill="none" id="make-me-a-hanzi-animation-9" stroke-dasharray="238 476" stroke-linecap="round" />
    
      <clipPath id="make-me-a-hanzi-clip-10">
        <path d="M 727 460 L 767 467 L 799 474 Q 825 480 831 484 Q 839 489 839 492 Q 839 496 834 501 Q 829 506 822 509 L 803 516 Q 791 520 786 520 Q 781 520 771 516 L 753 509 Q 745 506 728 502 L 683 492 L 646 485 L 617 481 L 585 476 Q 573 474 572 472 L 572 471 Q 572 468 575 462 Q 580 454 595 452 Q 609 449 622 449 L 630 449 Q 638 449 649 450 Q 665 451 683 453 L 727 460 Z" />
      </clipPath>
      <path clip-path="url(#make-me-a-hanzi-clip-10)" d="M 579 472 L 592 465 L 634 466 L 702 475 L 784 496 L 830 493" fill="none" id="make-me-a-hanzi-animation-10" stroke-dasharray="384 768" stroke-linecap="round" />
    
      <clipPath id="make-me-a-hanzi-clip-11">
        <path d="M 721 346 L 755 348 L 801 349 Q 811 348 835 347 Q 859 345 873 344 L 899 344 Q 906 344 908 349 L 908 351 Q 908 355 904 362 Q 899 368 887 376 Q 875 384 863 388 Q 851 394 843 394 L 839 394 Q 832 394 821 392 Q 807 390 790 388 Q 774 386 762 385 Q 751 384 724 381 L 682 376 L 641 370 L 593 364 L 551 358 L 523 356 Q 516 355 515 352 L 515 350 Q 515 347 519 342 Q 523 336 538 329 Q 552 322 560 319 Q 566 317 571 317 L 575 317 Q 581 317 595 322 Q 610 326 627 329 L 665 336 L 721 346 Z" />
      </clipPath>
      <path clip-path="url(#make-me-a-hanzi-clip-11)" d="M 521 351 L 569 339 L 719 364 L 836 371 L 902 350" fill="none" id="make-me-a-hanzi-animation-11" stroke-dasharray="516 1032" stroke-linecap="round" />
    
      <clipPath id="make-me-a-hanzi-clip-12">
        <path d="M 677 266 L 673 213 L 669 174 Q 668 161 663 127 L 655 82 Q 651 60 651 52 Q 652 44 657 31 Q 661 18 666 6 Q 671 -6 677 -12 Q 682 -19 686 -19 L 687 -19 Q 693 -19 699 -10 Q 705 0 708 19 Q 712 38 713 56 Q 715 73 715 98 Q 715 122 717 160 L 719 276 L 719 304 L 721 346 L 724 381 L 727 460 L 728 502 L 732 563 Q 733 584 735 592 Q 736 600 739 612 L 746 630 Q 748 636 748 639 L 748 641 Q 747 644 740 652 Q 733 660 718 668 Q 703 677 694 681 L 677 686 Q 667 686 663 682 Q 662 681 662 679 Q 662 675 665 666 L 673 647 Q 675 636 678 622 Q 680 608 682 586 Q 683 564 683 552 L 683 492 L 683 453 L 682 376 L 677 266 Z" />
      </clipPath>
      <path clip-path="url(#make-me-a-hanzi-clip-12)" d="M 672 677 L 710 633 L 697 226 L 682 52 L 687 -9" fill="none" id="make-me-a-hanzi-animation-12" stroke-dasharray="829 1658" stroke-linecap="round" />
    
      <clipPath id="make-me-a-hanzi-clip-13">
        <path d="M 665 336 L 649 304 Q 638 284 614 252 Q 591 220 575 205 Q 560 190 547 179 L 525 160 Q 519 156 519 152 Q 519 151 520 150 Q 522 147 525 147 Q 528 147 532 149 L 561 161 Q 573 166 596 183 Q 618 200 631 214 Q 645 227 655 240 Q 666 252 677 266 C 741 346 678 363 665 336 Z" />
      </clipPath>
      <path clip-path="url(#make-me-a-hanzi-clip-13)" d="M 674 332 L 656 275 L 630 240 L 581 189 L 525 154" fill="none" id="make-me-a-hanzi-animation-13" stroke-dasharray="368 736" stroke-linecap="round" />
    
      <clipPath id="make-me-a-hanzi-clip-14">
        <path d="M 719 276 L 759 236 Q 771 224 789 203 L 827 158 L 845 136 Q 853 124 860 120 Q 866 116 871 116 Q 878 116 883 122 Q 887 128 891 140 Q 893 154 893 162 Q 893 170 887 179 Q 882 189 863 205 Q 845 221 830 232 L 791 259 L 752 285 Q 738 294 719 304 C 693 318 698 297 719 276 Z" />
      </clipPath>
      <path clip-path="url(#make-me-a-hanzi-clip-14)" d="M 723 297 L 733 280 L 810 217 L 860 166 L 871 132" fill="none" id="make-me-a-hanzi-animation-14" stroke-dasharray="354 708" stroke-linecap="round" />
    
  </g>
</svg>