<svg xmlns="http://www.w3.org/2000/svg" version="1.1" viewBox="0 0 1024 1024">
  <g stroke="lightgray" stroke-dasharray="1,1" stroke-width="1" transform="scale(4, 4)">
    <line x1="0" y1="0" x2="256" y2="256" />
    <line x1="256" y1="0" x2="0" y2="256" />
    <line x1="128" y1="0" x2="128" y2="256" />
    <line x1="0" y1="128" x2="256" y2="128" />
  </g>
  <g transform="scale(1.0, -1.0) translate(0.0, -821.50)">
    <style type="text/css">
      
        @keyframes keyframes0 {
          from {
            stroke: blue;
            stroke-dashoffset: 494;
            stroke-width: 128;
          }
          62% {
            animation-timing-function: step-end;
            stroke: blue;
            stroke-dashoffset: 0;
            stroke-width: 128;
          }
          to {
            stroke: black;
            stroke-width: 1024;
          }
        }
        #make-me-a-hanzi-animation-0 {
          animation: keyframes0 0.6520182291666666s both;
          animation-delay: 0s;
          animation-timing-function: linear;
        }
      
        @keyframes keyframes1 {
          from {
            stroke: blue;
            stroke-dashoffset: 537;
            stroke-width: 128;
          }
          64% {
            animation-timing-function: step-end;
            stroke: blue;
            stroke-dashoffset: 0;
            stroke-width: 128;
          }
          to {
            stroke: black;
            stroke-width: 1024;
          }
        }
        #make-me-a-hanzi-animation-1 {
          animation: keyframes1 0.68701171875s both;
          animation-delay: 0.6520182291666666s;
          animation-timing-function: linear;
        }
      
        @keyframes keyframes2 {
          from {
            stroke: blue;
            stroke-dashoffset: 805;
            stroke-width: 128;
          }
          72% {
            animation-timing-function: step-end;
            stroke: blue;
            stroke-dashoffset: 0;
            stroke-width: 128;
          }
          to {
            stroke: black;
            stroke-width: 1024;
          }
        }
        #make-me-a-hanzi-animation-2 {
          animation: keyframes2 0.9051106770833334s both;
          animation-delay: 1.3390299479166665s;
          animation-timing-function: linear;
        }
      
        @keyframes keyframes3 {
          from {
            stroke: blue;
            stroke-dashoffset: 484;
            stroke-width: 128;
          }
          61% {
            animation-timing-function: step-end;
            stroke: blue;
            stroke-dashoffset: 0;
            stroke-width: 128;
          }
          to {
            stroke: black;
            stroke-width: 1024;
          }
        }
        #make-me-a-hanzi-animation-3 {
          animation: keyframes3 0.6438802083333334s both;
          animation-delay: 2.244140625s;
          animation-timing-function: linear;
        }
      
        @keyframes keyframes4 {
          from {
            stroke: blue;
            stroke-dashoffset: 459;
            stroke-width: 128;
          }
          60% {
            animation-timing-function: step-end;
            stroke: blue;
            stroke-dashoffset: 0;
            stroke-width: 128;
          }
          to {
            stroke: black;
            stroke-width: 1024;
          }
        }
        #make-me-a-hanzi-animation-4 {
          animation: keyframes4 0.62353515625s both;
          animation-delay: 2.8880208333333335s;
          animation-timing-function: linear;
        }
      
        @keyframes keyframes5 {
          from {
            stroke: blue;
            stroke-dashoffset: 456;
            stroke-width: 128;
          }
          60% {
            animation-timing-function: step-end;
            stroke: blue;
            stroke-dashoffset: 0;
            stroke-width: 128;
          }
          to {
            stroke: black;
            stroke-width: 1024;
          }
        }
        #make-me-a-hanzi-animation-5 {
          animation: keyframes5 0.62109375s both;
          animation-delay: 3.5115559895833335s;
          animation-timing-function: linear;
        }
      
        @keyframes keyframes6 {
          from {
            stroke: blue;
            stroke-dashoffset: 664;
            stroke-width: 128;
          }
          68% {
            animation-timing-function: step-end;
            stroke: blue;
            stroke-dashoffset: 0;
            stroke-width: 128;
          }
          to {
            stroke: black;
            stroke-width: 1024;
          }
        }
        #make-me-a-hanzi-animation-6 {
          animation: keyframes6 0.7903645833333334s both;
          animation-delay: 4.132649739583334s;
          animation-timing-function: linear;
        }
      
        @keyframes keyframes7 {
          from {
            stroke: blue;
            stroke-dashoffset: 1318;
            stroke-width: 128;
          }
          81% {
            animation-timing-function: step-end;
            stroke: blue;
            stroke-dashoffset: 0;
            stroke-width: 128;
          }
          to {
            stroke: black;
            stroke-width: 1024;
          }
        }
        #make-me-a-hanzi-animation-7 {
          animation: keyframes7 1.3225911458333333s both;
          animation-delay: 4.923014322916667s;
          animation-timing-function: linear;
        }
      
        @keyframes keyframes8 {
          from {
            stroke: blue;
            stroke-dashoffset: 579;
            stroke-width: 128;
          }
          65% {
            animation-timing-function: step-end;
            stroke: blue;
            stroke-dashoffset: 0;
            stroke-width: 128;
          }
          to {
            stroke: black;
            stroke-width: 1024;
          }
        }
        #make-me-a-hanzi-animation-8 {
          animation: keyframes8 0.72119140625s both;
          animation-delay: 6.24560546875s;
          animation-timing-function: linear;
        }
      
        @keyframes keyframes9 {
          from {
            stroke: blue;
            stroke-dashoffset: 373;
            stroke-width: 128;
          }
          55% {
            animation-timing-function: step-end;
            stroke: blue;
            stroke-dashoffset: 0;
            stroke-width: 128;
          }
          to {
            stroke: black;
            stroke-width: 1024;
          }
        }
        #make-me-a-hanzi-animation-9 {
          animation: keyframes9 0.5535481770833334s both;
          animation-delay: 6.966796875s;
          animation-timing-function: linear;
        }
      
        @keyframes keyframes10 {
          from {
            stroke: blue;
            stroke-dashoffset: 356;
            stroke-width: 128;
          }
          54% {
            animation-timing-function: step-end;
            stroke: blue;
            stroke-dashoffset: 0;
            stroke-width: 128;
          }
          to {
            stroke: black;
            stroke-width: 1024;
          }
        }
        #make-me-a-hanzi-animation-10 {
          animation: keyframes10 0.5397135416666666s both;
          animation-delay: 7.520345052083333s;
          animation-timing-function: linear;
        }
      
        @keyframes keyframes11 {
          from {
            stroke: blue;
            stroke-dashoffset: 356;
            stroke-width: 128;
          }
          54% {
            animation-timing-function: step-end;
            stroke: blue;
            stroke-dashoffset: 0;
            stroke-width: 128;
          }
          to {
            stroke: black;
            stroke-width: 1024;
          }
        }
        #make-me-a-hanzi-animation-11 {
          animation: keyframes11 0.5397135416666666s both;
          animation-delay: 8.06005859375s;
          animation-timing-function: linear;
        }
      
        @keyframes keyframes12 {
          from {
            stroke: blue;
            stroke-dashoffset: 659;
            stroke-width: 128;
          }
          68% {
            animation-timing-function: step-end;
            stroke: blue;
            stroke-dashoffset: 0;
            stroke-width: 128;
          }
          to {
            stroke: black;
            stroke-width: 1024;
          }
        }
        #make-me-a-hanzi-animation-12 {
          animation: keyframes12 0.7862955729166666s both;
          animation-delay: 8.599772135416666s;
          animation-timing-function: linear;
        }
      
        @keyframes keyframes13 {
          from {
            stroke: blue;
            stroke-dashoffset: 965;
            stroke-width: 128;
          }
          76% {
            animation-timing-function: step-end;
            stroke: blue;
            stroke-dashoffset: 0;
            stroke-width: 128;
          }
          to {
            stroke: black;
            stroke-width: 1024;
          }
        }
        #make-me-a-hanzi-animation-13 {
          animation: keyframes13 1.0353190104166667s both;
          animation-delay: 9.386067708333332s;
          animation-timing-function: linear;
        }
      
    </style>
    
      <path d="M 229 526 L 262 562 Q 293 594 305 609 L 336 647 L 353 667 Q 360 674 367 680 Q 375 686 376 688 L 376 690 Q 376 696 365 705 Q 352 716 341 720 L 315 730 Q 306 733 302 733 Q 300 733 299 732 Q 297 730 295 717 L 291 693 Q 289 682 283 665 Q 276 648 257 610 Q 237 571 230 559 L 209 524 C 194 498 209 504 229 526 Z" fill="lightgray" />
    
      <path d="M 171 522 L 147 527 Q 133 530 124 531 L 119 531 Q 111 531 109 528 Q 107 526 107 523 Q 107 522 108 520 Q 109 515 118 505 Q 127 496 132 481 Q 137 466 139 458 Q 141 450 144 434 L 155 357 L 162 307 Q 165 284 170 270 Q 175 256 183 256 Q 185 256 189 258 Q 193 260 198 268 L 201 300 L 193 385 L 190 413 L 187 427 Q 187 431 184 454 Q 181 476 179 496 C 176 521 176 521 171 522 Z" fill="lightgray" />
    
      <path d="M 403 291 L 411 280 Q 415 273 425 272 Q 435 272 442 280 Q 449 288 452 300 Q 455 312 461 338 Q 468 363 475 396 Q 483 430 488 448 Q 493 468 497 482 Q 501 496 508 505 Q 516 517 516 521 L 516 522 Q 516 527 507 535 Q 499 544 481 554 Q 463 564 451 568 Q 439 572 430 572 Q 422 571 406 566 Q 391 561 363 554 Q 335 547 323 545 L 229 526 L 209 524 L 171 522 C 141 520 149 493 179 496 L 199 498 Q 209 498 223 500 Q 237 501 267 505 L 311 512 L 345 517 L 385 522 L 415 527 L 420 527 Q 430 527 433 524 Q 435 522 435 512 L 435 478 L 429 436 L 428 416 L 418 364 L 413 338 Q 409 322 405 321 L 403 321 C 392 305 392 305 403 291 Z" fill="lightgray" />
    
      <path d="M 277 427 L 239 420 Q 229 418 190 413 C 160 409 163 385 193 385 L 216 385 Q 224 385 237 387 Q 257 389 279 392 L 323 399 L 359 405 Q 373 407 391 410 Q 409 412 428 416 C 457 422 457 425 429 436 L 407 445 Q 399 448 386 448 Q 374 447 357 443 Q 341 438 323 435 L 277 427 Z" fill="lightgray" />
    
      <path d="M 267 505 L 272 482 Q 274 474 275 459 Q 277 444 277 427 L 279 392 L 281 346 L 281 310 C 281 280 320 286 321 316 L 323 399 L 323 435 L 325 458 Q 325 469 329 480 Q 333 490 333 494 Q 332 498 327 503 Q 321 507 311 512 C 284 526 261 534 267 505 Z" fill="lightgray" />
    
      <path d="M 260 272 L 289 277 Q 295 278 323 280 L 351 285 L 382 289 Q 385 289 403 291 C 433 294 433 319 403 321 Q 399 321 391 322 Q 383 325 376 325 Q 372 325 368 324 L 353 321 L 336 318 L 321 316 L 281 310 L 239 304 Q 233 304 201 300 C 171 296 168 268 198 268 L 223 268 L 260 272 Z" fill="lightgray" />
    
      <path d="M 223 268 L 223 248 Q 223 238 216 210 Q 209 182 199 154 Q 188 128 173 101 Q 158 74 137 45 Q 116 16 99 -2 Q 83 -20 67 -33 L 48 -50 Q 43 -55 43 -59 L 43 -61 Q 44 -63 47 -63 Q 50 -63 55 -61 L 81 -50 Q 94 -45 115 -30 Q 137 -14 163 12 Q 189 38 208 66 Q 227 94 243 132 L 264 180 Q 269 192 276 205 Q 283 218 288 224 Q 293 230 293 232 L 293 233 Q 293 237 289 244 Q 283 252 277 258 Q 271 264 260 272 C 236 290 223 298 223 268 Z" fill="lightgray" />
    
      <path d="M 323 280 L 328 261 Q 331 252 331 233 Q 331 226 329 200 Q 327 172 327 171 L 319 97 Q 316 74 316 53 Q 316 42 317 32 Q 319 1 334 -24 Q 349 -50 381 -69 Q 414 -88 459 -99 Q 505 -110 563 -112 Q 590 -114 624 -114 Q 648 -114 676 -113 Q 741 -110 785 -106 Q 829 -100 868 -91 Q 907 -82 931 -72 Q 955 -62 969 -52 Q 982 -42 985 -34 Q 986 -32 986 -30 Q 986 -23 981 -14 L 973 1 Q 969 8 963 24 L 955 54 Q 951 68 948 85 L 939 136 Q 937 146 932 146 Q 927 146 925 135 L 914 91 L 907 61 Q 901 40 894 26 Q 887 12 875 2 Q 865 -8 842 -19 Q 819 -30 777 -40 Q 735 -48 679 -51 Q 654 -52 625 -52 Q 596 -52 564 -51 Q 500 -48 462 -40 Q 424 -32 403 -19 Q 382 -6 373 8 Q 365 23 364 48 L 364 55 Q 364 73 368 106 Q 373 146 376 163 Q 379 179 386 202 Q 393 226 398 235 Q 403 245 403 249 Q 403 253 395 260 Q 387 268 377 273 L 351 285 C 324 298 318 301 323 280 Z" fill="lightgray" />
    
      <path d="M 453 92 L 475 118 L 492 142 Q 503 156 515 169 L 534 190 L 545 201 Q 549 204 551 207 Q 551 210 548 217 Q 545 224 541 230 Q 537 235 527 246 Q 517 258 511 260 Q 507 261 504 261 Q 502 261 500 260 Q 497 258 496 246 Q 495 234 491 222 Q 487 210 478 192 Q 469 174 460 159 Q 451 143 442 130 Q 433 116 426 108 L 416 98 L 407 92 Q 401 87 401 83 L 401 82 Q 401 77 407 67 L 418 50 Q 422 44 428 40 Q 434 35 437 35 Q 441 36 448 41 Q 455 46 463 51 L 489 64 Q 511 75 515 76 L 580 100 C 608 110 602 126 573 119 L 453 92 Z" fill="lightgray" />
    
      <path d="M 580 100 L 593 74 Q 599 61 605 57 Q 608 54 613 54 L 616 54 Q 623 54 628 62 Q 633 70 634 87 L 634 94 Q 634 107 631 115 Q 627 126 618 136 Q 609 146 595 156 Q 583 166 569 171 Q 563 173 559 173 Q 556 173 555 172 Q 554 171 554 167 L 554 163 Q 555 157 561 147 L 573 119 L 580 100 Z" fill="lightgray" />
    
      <path d="M 585 616 L 582 616 Q 576 616 574 613 Q 573 612 573 611 Q 573 608 577 604 L 587 590 L 605 569 Q 618 554 627 547 Q 635 540 646 536 Q 653 532 659 532 Q 662 532 665 533 Q 672 535 676 542 Q 680 548 680 558 L 680 562 Q 680 576 676 583 Q 672 590 663 596 Q 653 602 633 607 Q 612 612 606 613 L 585 616 Z" fill="lightgray" />
    
      <path d="M 575 436 Q 579 429 588 420 L 607 399 Q 617 388 626 384 Q 633 380 639 380 Q 643 380 647 382 Q 655 386 660 395 Q 664 401 664 410 Q 664 413 663 417 Q 661 430 656 436 Q 651 442 641 448 Q 631 453 619 457 Q 607 461 596 463 L 572 467 L 567 467 Q 561 467 559 465 L 559 463 Q 559 460 563 455 L 575 436 Z" fill="lightgray" />
    
      <path d="M 781 297 L 811 300 Q 831 302 849 304 Q 867 305 892 306 L 919 307 Q 927 307 929 312 Q 930 313 930 315 Q 930 319 925 325 Q 917 332 905 339 L 881 349 Q 869 352 862 353 Q 856 353 846 350 Q 835 348 815 344 Q 795 340 779 336 L 725 327 L 675 318 L 614 308 Q 577 302 563 300 L 529 296 Q 521 294 519 292 L 519 290 Q 519 287 523 282 Q 528 276 543 270 Q 557 264 563 262 Q 569 260 579 260 Q 585 260 599 264 Q 612 268 646 275 L 686 284 Q 699 286 725 291 L 781 297 Z" fill="lightgray" />
    
      <path d="M 725 291 L 723 182 L 723 97 L 724 48 L 724 40 Q 724 18 729 7 Q 733 -6 737 -7 Q 741 -7 749 6 Q 757 19 761 48 L 768 100 Q 771 122 773 149 L 774 182 L 781 297 L 779 336 L 783 546 L 784 588 Q 785 610 785 618 Q 785 626 788 637 Q 790 647 793 654 Q 798 662 798 665 Q 797 668 793 674 Q 787 679 769 687 Q 750 694 741 698 Q 732 700 723 701 Q 713 701 710 698 Q 708 695 708 691 L 708 689 Q 709 684 715 669 Q 721 655 723 644 Q 725 633 726 613 Q 728 594 728 587 Q 729 581 729 556 L 725 327 L 725 291 Z" fill="lightgray" />
    
    
      <clipPath id="make-me-a-hanzi-clip-0">
        <path d="M 229 526 L 262 562 Q 293 594 305 609 L 336 647 L 353 667 Q 360 674 367 680 Q 375 686 376 688 L 376 690 Q 376 696 365 705 Q 352 716 341 720 L 315 730 Q 306 733 302 733 Q 300 733 299 732 Q 297 730 295 717 L 291 693 Q 289 682 283 665 Q 276 648 257 610 Q 237 571 230 559 L 209 524 C 194 498 209 504 229 526 Z" />
      </clipPath>
      <path clip-path="url(#make-me-a-hanzi-clip-0)" d="M 367 689 L 326 689 L 242 556 L 223 532 L 214 529" fill="none" id="make-me-a-hanzi-animation-0" stroke-dasharray="366 732" stroke-linecap="round" />
    
      <clipPath id="make-me-a-hanzi-clip-1">
        <path d="M 171 522 L 147 527 Q 133 530 124 531 L 119 531 Q 111 531 109 528 Q 107 526 107 523 Q 107 522 108 520 Q 109 515 118 505 Q 127 496 132 481 Q 137 466 139 458 Q 141 450 144 434 L 155 357 L 162 307 Q 165 284 170 270 Q 175 256 183 256 Q 185 256 189 258 Q 193 260 198 268 L 201 300 L 193 385 L 190 413 L 187 427 Q 187 431 184 454 Q 181 476 179 496 C 176 521 176 521 171 522 Z" />
      </clipPath>
      <path clip-path="url(#make-me-a-hanzi-clip-1)" d="M 113 523 L 148 503 L 156 487 L 174 376 L 183 266" fill="none" id="make-me-a-hanzi-animation-1" stroke-dasharray="409 818" stroke-linecap="round" />
    
      <clipPath id="make-me-a-hanzi-clip-2">
        <path d="M 403 291 L 411 280 Q 415 273 425 272 Q 435 272 442 280 Q 449 288 452 300 Q 455 312 461 338 Q 468 363 475 396 Q 483 430 488 448 Q 493 468 497 482 Q 501 496 508 505 Q 516 517 516 521 L 516 522 Q 516 527 507 535 Q 499 544 481 554 Q 463 564 451 568 Q 439 572 430 572 Q 422 571 406 566 Q 391 561 363 554 Q 335 547 323 545 L 229 526 L 209 524 L 171 522 C 141 520 149 493 179 496 L 199 498 Q 209 498 223 500 Q 237 501 267 505 L 311 512 L 345 517 L 385 522 L 415 527 L 420 527 Q 430 527 433 524 Q 435 522 435 512 L 435 478 L 429 436 L 428 416 L 418 364 L 413 338 Q 409 322 405 321 L 403 321 C 392 305 392 305 403 291 Z" />
      </clipPath>
      <path clip-path="url(#make-me-a-hanzi-clip-2)" d="M 178 517 L 188 510 L 227 513 L 419 549 L 454 539 L 472 516 L 437 335 L 428 309 L 404 314" fill="none" id="make-me-a-hanzi-animation-2" stroke-dasharray="677 1354" stroke-linecap="round" />
    
      <clipPath id="make-me-a-hanzi-clip-3">
        <path d="M 277 427 L 239 420 Q 229 418 190 413 C 160 409 163 385 193 385 L 216 385 Q 224 385 237 387 Q 257 389 279 392 L 323 399 L 359 405 Q 373 407 391 410 Q 409 412 428 416 C 457 422 457 425 429 436 L 407 445 Q 399 448 386 448 Q 374 447 357 443 Q 341 438 323 435 L 277 427 Z" />
      </clipPath>
      <path clip-path="url(#make-me-a-hanzi-clip-3)" d="M 199 393 L 207 400 L 369 427 L 407 428 L 420 421" fill="none" id="make-me-a-hanzi-animation-3" stroke-dasharray="356 712" stroke-linecap="round" />
    
      <clipPath id="make-me-a-hanzi-clip-4">
        <path d="M 267 505 L 272 482 Q 274 474 275 459 Q 277 444 277 427 L 279 392 L 281 346 L 281 310 C 281 280 320 286 321 316 L 323 399 L 323 435 L 325 458 Q 325 469 329 480 Q 333 490 333 494 Q 332 498 327 503 Q 321 507 311 512 C 284 526 261 534 267 505 Z" />
      </clipPath>
      <path clip-path="url(#make-me-a-hanzi-clip-4)" d="M 275 501 L 301 482 L 302 337 L 287 316" fill="none" id="make-me-a-hanzi-animation-4" stroke-dasharray="331 662" stroke-linecap="round" />
    
      <clipPath id="make-me-a-hanzi-clip-5">
        <path d="M 260 272 L 289 277 Q 295 278 323 280 L 351 285 L 382 289 Q 385 289 403 291 C 433 294 433 319 403 321 Q 399 321 391 322 Q 383 325 376 325 Q 372 325 368 324 L 353 321 L 336 318 L 321 316 L 281 310 L 239 304 Q 233 304 201 300 C 171 296 168 268 198 268 L 223 268 L 260 272 Z" />
      </clipPath>
      <path clip-path="url(#make-me-a-hanzi-clip-5)" d="M 204 273 L 217 284 L 384 306 L 396 314" fill="none" id="make-me-a-hanzi-animation-5" stroke-dasharray="328 656" stroke-linecap="round" />
    
      <clipPath id="make-me-a-hanzi-clip-6">
        <path d="M 223 268 L 223 248 Q 223 238 216 210 Q 209 182 199 154 Q 188 128 173 101 Q 158 74 137 45 Q 116 16 99 -2 Q 83 -20 67 -33 L 48 -50 Q 43 -55 43 -59 L 43 -61 Q 44 -63 47 -63 Q 50 -63 55 -61 L 81 -50 Q 94 -45 115 -30 Q 137 -14 163 12 Q 189 38 208 66 Q 227 94 243 132 L 264 180 Q 269 192 276 205 Q 283 218 288 224 Q 293 230 293 232 L 293 233 Q 293 237 289 244 Q 283 252 277 258 Q 271 264 260 272 C 236 290 223 298 223 268 Z" />
      </clipPath>
      <path clip-path="url(#make-me-a-hanzi-clip-6)" d="M 230 263 L 255 234 L 205 108 L 144 19 L 101 -23 L 46 -60" fill="none" id="make-me-a-hanzi-animation-6" stroke-dasharray="536 1072" stroke-linecap="round" />
    
      <clipPath id="make-me-a-hanzi-clip-7">
        <path d="M 323 280 L 328 261 Q 331 252 331 233 Q 331 226 329 200 Q 327 172 327 171 L 319 97 Q 316 74 316 53 Q 316 42 317 32 Q 319 1 334 -24 Q 349 -50 381 -69 Q 414 -88 459 -99 Q 505 -110 563 -112 Q 590 -114 624 -114 Q 648 -114 676 -113 Q 741 -110 785 -106 Q 829 -100 868 -91 Q 907 -82 931 -72 Q 955 -62 969 -52 Q 982 -42 985 -34 Q 986 -32 986 -30 Q 986 -23 981 -14 L 973 1 Q 969 8 963 24 L 955 54 Q 951 68 948 85 L 939 136 Q 937 146 932 146 Q 927 146 925 135 L 914 91 L 907 61 Q 901 40 894 26 Q 887 12 875 2 Q 865 -8 842 -19 Q 819 -30 777 -40 Q 735 -48 679 -51 Q 654 -52 625 -52 Q 596 -52 564 -51 Q 500 -48 462 -40 Q 424 -32 403 -19 Q 382 -6 373 8 Q 365 23 364 48 L 364 55 Q 364 73 368 106 Q 373 146 376 163 Q 379 179 386 202 Q 393 226 398 235 Q 403 245 403 249 Q 403 253 395 260 Q 387 268 377 273 L 351 285 C 324 298 318 301 323 280 Z" />
      </clipPath>
      <path clip-path="url(#make-me-a-hanzi-clip-7)" d="M 331 277 L 349 264 L 364 242 L 340 60 L 348 4 L 364 -22 L 389 -43 L 462 -70 L 541 -81 L 701 -81 L 788 -72 L 891 -41 L 926 -16 L 932 138" fill="none" id="make-me-a-hanzi-animation-7" stroke-dasharray="1190 2380" stroke-linecap="round" />
    
      <clipPath id="make-me-a-hanzi-clip-8">
        <path d="M 453 92 L 475 118 L 492 142 Q 503 156 515 169 L 534 190 L 545 201 Q 549 204 551 207 Q 551 210 548 217 Q 545 224 541 230 Q 537 235 527 246 Q 517 258 511 260 Q 507 261 504 261 Q 502 261 500 260 Q 497 258 496 246 Q 495 234 491 222 Q 487 210 478 192 Q 469 174 460 159 Q 451 143 442 130 Q 433 116 426 108 L 416 98 L 407 92 Q 401 87 401 83 L 401 82 Q 401 77 407 67 L 418 50 Q 422 44 428 40 Q 434 35 437 35 Q 441 36 448 41 Q 455 46 463 51 L 489 64 Q 511 75 515 76 L 580 100 C 608 110 602 126 573 119 L 453 92 Z" />
      </clipPath>
      <path clip-path="url(#make-me-a-hanzi-clip-8)" d="M 504 251 L 518 213 L 445 106 L 461 93 L 465 75 L 553 104 L 565 107 L 572 102" fill="none" id="make-me-a-hanzi-animation-8" stroke-dasharray="451 902" stroke-linecap="round" />
    
      <clipPath id="make-me-a-hanzi-clip-9">
        <path d="M 580 100 L 593 74 Q 599 61 605 57 Q 608 54 613 54 L 616 54 Q 623 54 628 62 Q 633 70 634 87 L 634 94 Q 634 107 631 115 Q 627 126 618 136 Q 609 146 595 156 Q 583 166 569 171 Q 563 173 559 173 Q 556 173 555 172 Q 554 171 554 167 L 554 163 Q 555 157 561 147 L 573 119 L 580 100 Z" />
      </clipPath>
      <path clip-path="url(#make-me-a-hanzi-clip-9)" d="M 558 169 L 605 109 L 615 69" fill="none" id="make-me-a-hanzi-animation-9" stroke-dasharray="245 490" stroke-linecap="round" />
    
      <clipPath id="make-me-a-hanzi-clip-10">
        <path d="M 585 616 L 582 616 Q 576 616 574 613 Q 573 612 573 611 Q 573 608 577 604 L 587 590 L 605 569 Q 618 554 627 547 Q 635 540 646 536 Q 653 532 659 532 Q 662 532 665 533 Q 672 535 676 542 Q 680 548 680 558 L 680 562 Q 680 576 676 583 Q 672 590 663 596 Q 653 602 633 607 Q 612 612 606 613 L 585 616 Z" />
      </clipPath>
      <path clip-path="url(#make-me-a-hanzi-clip-10)" d="M 579 610 L 644 572 L 659 552" fill="none" id="make-me-a-hanzi-animation-10" stroke-dasharray="228 456" stroke-linecap="round" />
    
      <clipPath id="make-me-a-hanzi-clip-11">
        <path d="M 575 436 Q 579 429 588 420 L 607 399 Q 617 388 626 384 Q 633 380 639 380 Q 643 380 647 382 Q 655 386 660 395 Q 664 401 664 410 Q 664 413 663 417 Q 661 430 656 436 Q 651 442 641 448 Q 631 453 619 457 Q 607 461 596 463 L 572 467 L 567 467 Q 561 467 559 465 L 559 463 Q 559 460 563 455 L 575 436 Z" />
      </clipPath>
      <path clip-path="url(#make-me-a-hanzi-clip-11)" d="M 564 464 L 624 424 L 638 400" fill="none" id="make-me-a-hanzi-animation-11" stroke-dasharray="228 456" stroke-linecap="round" />
    
      <clipPath id="make-me-a-hanzi-clip-12">
        <path d="M 781 297 L 811 300 Q 831 302 849 304 Q 867 305 892 306 L 919 307 Q 927 307 929 312 Q 930 313 930 315 Q 930 319 925 325 Q 917 332 905 339 L 881 349 Q 869 352 862 353 Q 856 353 846 350 Q 835 348 815 344 Q 795 340 779 336 L 725 327 L 675 318 L 614 308 Q 577 302 563 300 L 529 296 Q 521 294 519 292 L 519 290 Q 519 287 523 282 Q 528 276 543 270 Q 557 264 563 262 Q 569 260 579 260 Q 585 260 599 264 Q 612 268 646 275 L 686 284 Q 699 286 725 291 L 781 297 Z" />
      </clipPath>
      <path clip-path="url(#make-me-a-hanzi-clip-12)" d="M 525 291 L 555 282 L 588 282 L 709 307 L 861 329 L 921 317" fill="none" id="make-me-a-hanzi-animation-12" stroke-dasharray="531 1062" stroke-linecap="round" />
    
      <clipPath id="make-me-a-hanzi-clip-13">
        <path d="M 725 291 L 723 182 L 723 97 L 724 48 L 724 40 Q 724 18 729 7 Q 733 -6 737 -7 Q 741 -7 749 6 Q 757 19 761 48 L 768 100 Q 771 122 773 149 L 774 182 L 781 297 L 779 336 L 783 546 L 784 588 Q 785 610 785 618 Q 785 626 788 637 Q 790 647 793 654 Q 798 662 798 665 Q 797 668 793 674 Q 787 679 769 687 Q 750 694 741 698 Q 732 700 723 701 Q 713 701 710 698 Q 708 695 708 691 L 708 689 Q 709 684 715 669 Q 721 655 723 644 Q 725 633 726 613 Q 728 594 728 587 Q 729 581 729 556 L 725 327 L 725 291 Z" />
      </clipPath>
      <path clip-path="url(#make-me-a-hanzi-clip-13)" d="M 718 692 L 756 650 L 753 277 L 738 -2" fill="none" id="make-me-a-hanzi-animation-13" stroke-dasharray="837 1674" stroke-linecap="round" />
    
  </g>
</svg>