<svg xmlns="http://www.w3.org/2000/svg" version="1.1" viewBox="0 0 1024 1024">
  <g stroke="lightgray" stroke-dasharray="1,1" stroke-width="1" transform="scale(4, 4)">
    <line x1="0" y1="0" x2="256" y2="256" />
    <line x1="256" y1="0" x2="0" y2="256" />
    <line x1="128" y1="0" x2="128" y2="256" />
    <line x1="0" y1="128" x2="256" y2="128" />
  </g>
  <g transform="scale(1.0, -1.0) translate(0.0, -818.50)">
    <style type="text/css">
      
        @keyframes keyframes0 {
          from {
            stroke: blue;
            stroke-dashoffset: 669;
            stroke-width: 128;
          }
          69% {
            animation-timing-function: step-end;
            stroke: blue;
            stroke-dashoffset: 0;
            stroke-width: 128;
          }
          to {
            stroke: black;
            stroke-width: 1024;
          }
        }
        #make-me-a-hanzi-animation-0 {
          animation: keyframes0 0.79443359375s both;
          animation-delay: 0s;
          animation-timing-function: linear;
        }
      
        @keyframes keyframes1 {
          from {
            stroke: blue;
            stroke-dashoffset: 538;
            stroke-width: 128;
          }
          64% {
            animation-timing-function: step-end;
            stroke: blue;
            stroke-dashoffset: 0;
            stroke-width: 128;
          }
          to {
            stroke: black;
            stroke-width: 1024;
          }
        }
        #make-me-a-hanzi-animation-1 {
          animation: keyframes1 0.6878255208333334s both;
          animation-delay: 0.79443359375s;
          animation-timing-function: linear;
        }
      
        @keyframes keyframes2 {
          from {
            stroke: blue;
            stroke-dashoffset: 550;
            stroke-width: 128;
          }
          64% {
            animation-timing-function: step-end;
            stroke: blue;
            stroke-dashoffset: 0;
            stroke-width: 128;
          }
          to {
            stroke: black;
            stroke-width: 1024;
          }
        }
        #make-me-a-hanzi-animation-2 {
          animation: keyframes2 0.6975911458333334s both;
          animation-delay: 1.4822591145833335s;
          animation-timing-function: linear;
        }
      
        @keyframes keyframes3 {
          from {
            stroke: blue;
            stroke-dashoffset: 780;
            stroke-width: 128;
          }
          72% {
            animation-timing-function: step-end;
            stroke: blue;
            stroke-dashoffset: 0;
            stroke-width: 128;
          }
          to {
            stroke: black;
            stroke-width: 1024;
          }
        }
        #make-me-a-hanzi-animation-3 {
          animation: keyframes3 0.884765625s both;
          animation-delay: 2.179850260416667s;
          animation-timing-function: linear;
        }
      
        @keyframes keyframes4 {
          from {
            stroke: blue;
            stroke-dashoffset: 422;
            stroke-width: 128;
          }
          58% {
            animation-timing-function: step-end;
            stroke: blue;
            stroke-dashoffset: 0;
            stroke-width: 128;
          }
          to {
            stroke: black;
            stroke-width: 1024;
          }
        }
        #make-me-a-hanzi-animation-4 {
          animation: keyframes4 0.5934244791666666s both;
          animation-delay: 3.064615885416667s;
          animation-timing-function: linear;
        }
      
        @keyframes keyframes5 {
          from {
            stroke: blue;
            stroke-dashoffset: 461;
            stroke-width: 128;
          }
          60% {
            animation-timing-function: step-end;
            stroke: blue;
            stroke-dashoffset: 0;
            stroke-width: 128;
          }
          to {
            stroke: black;
            stroke-width: 1024;
          }
        }
        #make-me-a-hanzi-animation-5 {
          animation: keyframes5 0.6251627604166666s both;
          animation-delay: 3.6580403645833335s;
          animation-timing-function: linear;
        }
      
        @keyframes keyframes6 {
          from {
            stroke: blue;
            stroke-dashoffset: 402;
            stroke-width: 128;
          }
          57% {
            animation-timing-function: step-end;
            stroke: blue;
            stroke-dashoffset: 0;
            stroke-width: 128;
          }
          to {
            stroke: black;
            stroke-width: 1024;
          }
        }
        #make-me-a-hanzi-animation-6 {
          animation: keyframes6 0.5771484375s both;
          animation-delay: 4.283203125s;
          animation-timing-function: linear;
        }
      
        @keyframes keyframes7 {
          from {
            stroke: blue;
            stroke-dashoffset: 635;
            stroke-width: 128;
          }
          67% {
            animation-timing-function: step-end;
            stroke: blue;
            stroke-dashoffset: 0;
            stroke-width: 128;
          }
          to {
            stroke: black;
            stroke-width: 1024;
          }
        }
        #make-me-a-hanzi-animation-7 {
          animation: keyframes7 0.7667643229166666s both;
          animation-delay: 4.8603515625s;
          animation-timing-function: linear;
        }
      
        @keyframes keyframes8 {
          from {
            stroke: blue;
            stroke-dashoffset: 739;
            stroke-width: 128;
          }
          71% {
            animation-timing-function: step-end;
            stroke: blue;
            stroke-dashoffset: 0;
            stroke-width: 128;
          }
          to {
            stroke: black;
            stroke-width: 1024;
          }
        }
        #make-me-a-hanzi-animation-8 {
          animation: keyframes8 0.8513997395833334s both;
          animation-delay: 5.627115885416667s;
          animation-timing-function: linear;
        }
      
        @keyframes keyframes9 {
          from {
            stroke: blue;
            stroke-dashoffset: 688;
            stroke-width: 128;
          }
          69% {
            animation-timing-function: step-end;
            stroke: blue;
            stroke-dashoffset: 0;
            stroke-width: 128;
          }
          to {
            stroke: black;
            stroke-width: 1024;
          }
        }
        #make-me-a-hanzi-animation-9 {
          animation: keyframes9 0.8098958333333334s both;
          animation-delay: 6.478515625s;
          animation-timing-function: linear;
        }
      
        @keyframes keyframes10 {
          from {
            stroke: blue;
            stroke-dashoffset: 449;
            stroke-width: 128;
          }
          59% {
            animation-timing-function: step-end;
            stroke: blue;
            stroke-dashoffset: 0;
            stroke-width: 128;
          }
          to {
            stroke: black;
            stroke-width: 1024;
          }
        }
        #make-me-a-hanzi-animation-10 {
          animation: keyframes10 0.6153971354166666s both;
          animation-delay: 7.288411458333333s;
          animation-timing-function: linear;
        }
      
        @keyframes keyframes11 {
          from {
            stroke: blue;
            stroke-dashoffset: 653;
            stroke-width: 128;
          }
          68% {
            animation-timing-function: step-end;
            stroke: blue;
            stroke-dashoffset: 0;
            stroke-width: 128;
          }
          to {
            stroke: black;
            stroke-width: 1024;
          }
        }
        #make-me-a-hanzi-animation-11 {
          animation: keyframes11 0.7814127604166666s both;
          animation-delay: 7.90380859375s;
          animation-timing-function: linear;
        }
      
        @keyframes keyframes12 {
          from {
            stroke: blue;
            stroke-dashoffset: 740;
            stroke-width: 128;
          }
          71% {
            animation-timing-function: step-end;
            stroke: blue;
            stroke-dashoffset: 0;
            stroke-width: 128;
          }
          to {
            stroke: black;
            stroke-width: 1024;
          }
        }
        #make-me-a-hanzi-animation-12 {
          animation: keyframes12 0.8522135416666666s both;
          animation-delay: 8.685221354166666s;
          animation-timing-function: linear;
        }
      
        @keyframes keyframes13 {
          from {
            stroke: blue;
            stroke-dashoffset: 459;
            stroke-width: 128;
          }
          60% {
            animation-timing-function: step-end;
            stroke: blue;
            stroke-dashoffset: 0;
            stroke-width: 128;
          }
          to {
            stroke: black;
            stroke-width: 1024;
          }
        }
        #make-me-a-hanzi-animation-13 {
          animation: keyframes13 0.62353515625s both;
          animation-delay: 9.537434895833332s;
          animation-timing-function: linear;
        }
      
    </style>
    
      <path d="M 212 719 Q 200 719 200 706 Q 200 704 201 697 Q 204 686 204 675 Q 200 629 165 543 Q 124 450 77 396 Q 51 365 51 362 Q 51 358 63 358 Q 76 358 95 373 L 123 397 Q 136 410 153 429 Q 187 470 219 532 L 237 567 Q 246 586 254 606 Q 270 643 281 661 Q 288 673 288 679 Q 288 690 255 705 Q 229 719 212 719 Z" fill="lightgray" />
    
      <path d="M 290 424 Q 304 440 327 473 Q 364 522 400 549 Q 416 559 416 566 Q 416 578 384 601 Q 350 618 340 618 Q 336 618 317 605 Q 302 592 270 578 Q 254 571 237 567 C 208 559 189 537 219 532 Q 227 530 240 530 Q 251 530 269 536 Q 286 543 288 543 Q 299 543 299 534 Q 282 481 258 417 C 248 389 271 401 290 424 Z" fill="lightgray" />
    
      <path d="M 95 373 L 96 372 Q 111 352 119 315 Q 133 267 140 148 Q 143 100 168 98 Q 177 98 181 132 L 183 163 Q 183 196 178 254 L 176 281 Q 173 317 168 362 C 165 386 165 386 147 392 Q 146 393 141 394 Q 134 396 123 397 C 93 401 78 397 95 373 Z" fill="lightgray" />
    
      <path d="M 332 149 Q 332 144 338 130 Q 344 119 355 119 Q 369 119 404 279 Q 420 356 433 371 Q 447 386 447 394 Q 447 406 410 429 Q 378 446 355 446 Q 350 446 338 439 Q 318 428 296 425 L 290 424 L 258 417 L 147 392 C 118 385 139 355 168 362 Q 174 362 225 379 L 261 388 Q 310 398 332 398 Q 355 398 355 375 Q 355 344 351 301 L 347 266 Q 344 240 339 210 Q 337 192 335 180 L 332 149 Z" fill="lightgray" />
    
      <path d="M 178 254 Q 191 251 204 251 Q 211 251 237 254 L 272 257 Q 302 261 347 266 C 377 269 378 288 351 301 Q 344 306 324 306 Q 311 306 296 303 Q 285 301 273 299 L 234 291 Q 204 286 176 281 C 146 276 149 260 178 254 Z" fill="lightgray" />
    
      <path d="M 237 254 Q 239 218 240 174 C 241 144 271 150 271 180 Q 271 224 272 257 L 273 299 Q 274 330 278 339 Q 284 353 284 358 Q 284 372 261 388 C 237 406 220 409 225 379 Q 231 346 234 291 L 237 254 Z" fill="lightgray" />
    
      <path d="M 181 132 Q 184 131 187 131 Q 257 139 332 149 C 362 153 362 167 335 180 Q 324 186 307 186 Q 304 186 271 180 L 240 174 Q 216 169 183 163 C 153 158 151 137 181 132 Z" fill="lightgray" />
    
      <path d="M 403 98 Q 398 98 338 77 Q 142 16 79 9 Q 51 8 51 -1 Q 51 -12 78 -40 Q 112 -70 135 -70 Q 139 -70 170 -45 Q 222 -12 374 58 Q 420 79 420 91 Q 420 98 403 98 Z" fill="lightgray" />
    
      <path d="M 620 710 Q 607 710 607 698 Q 607 696 608 690 Q 611 678 611 666 Q 607 606 566 505 Q 518 394 462 331 Q 431 294 431 291 Q 431 287 443 287 Q 475 287 544 371 Q 604 447 658 584 L 659 586 L 670 610 Q 679 634 687 649 Q 695 663 695 671 Q 695 682 663 697 Q 637 710 620 710 Z" fill="lightgray" />
    
      <path d="M 659 586 Q 668 569 681 543 Q 768 365 797 331 Q 809 318 815 318 Q 848 318 907 328 Q 976 338 976 347 Q 976 352 943 362 Q 883 383 841 419 Q 779 467 685 590 Q 677 601 670 610 C 652 634 645 613 659 586 Z" fill="lightgray" />
    
      <path d="M 683 379 Q 678 379 666 372 Q 636 355 552 339 Q 540 337 540 331 Q 540 323 561 315 Q 587 306 607 306 Q 613 306 623 310 Q 638 313 683 326 Q 707 330 733 340 Q 746 347 748 358 Q 744 378 683 379 Z" fill="lightgray" />
    
      <path d="M 641 173 Q 673 178 713 185 Q 770 192 840 194 Q 863 194 863 211 Q 863 224 845 235 Q 824 247 800 247 Q 776 247 752 239 Q 636 209 552 192 Q 513 185 471 182 Q 449 182 447 171 Q 449 166 463 160 Q 487 148 512 146 Q 524 146 554 155 Q 573 160 598 165 L 641 173 Z" fill="lightgray" />
    
      <path d="M 763 7 Q 713 0 561 -23 Q 641 91 662 116 Q 670 124 672 131 Q 670 146 648 166 Q 645 169 641 173 C 620 194 601 195 598 165 Q 597 137 585 111 Q 560 59 522 -1 Q 503 -31 479 -41 Q 465 -46 464 -62 Q 464 -74 473 -85 Q 487 -106 504 -106 Q 517 -106 541 -93 Q 606 -61 775 -16 C 804 -8 793 11 763 7 Z" fill="lightgray" />
    
      <path d="M 724 91 Q 720 91 720 87 Q 720 84 738 51 Q 752 27 763 7 L 775 -16 Q 780 -27 785 -37 Q 815 -97 840 -97 Q 863 -97 863 -62 Q 863 -29 842 3 Q 820 42 776 68 Q 741 91 724 91 Z" fill="lightgray" />
    
    
      <clipPath id="make-me-a-hanzi-clip-0">
        <path d="M 212 719 Q 200 719 200 706 Q 200 704 201 697 Q 204 686 204 675 Q 200 629 165 543 Q 124 450 77 396 Q 51 365 51 362 Q 51 358 63 358 Q 76 358 95 373 L 123 397 Q 136 410 153 429 Q 187 470 219 532 L 237 567 Q 246 586 254 606 Q 270 643 281 661 Q 288 673 288 679 Q 288 690 255 705 Q 229 719 212 719 Z" />
      </clipPath>
      <path clip-path="url(#make-me-a-hanzi-clip-0)" d="M 211 708 L 242 669 L 198 550 L 132 436 L 90 388 L 58 362" fill="none" id="make-me-a-hanzi-animation-0" stroke-dasharray="541 1082" stroke-linecap="round" />
    
      <clipPath id="make-me-a-hanzi-clip-1">
        <path d="M 290 424 Q 304 440 327 473 Q 364 522 400 549 Q 416 559 416 566 Q 416 578 384 601 Q 350 618 340 618 Q 336 618 317 605 Q 302 592 270 578 Q 254 571 237 567 C 208 559 189 537 219 532 Q 227 530 240 530 Q 251 530 269 536 Q 286 543 288 543 Q 299 543 299 534 Q 282 481 258 417 C 248 389 271 401 290 424 Z" />
      </clipPath>
      <path clip-path="url(#make-me-a-hanzi-clip-1)" d="M 224 537 L 286 564 L 340 561 L 330 526 L 296 462 L 282 438 L 262 425" fill="none" id="make-me-a-hanzi-animation-1" stroke-dasharray="410 820" stroke-linecap="round" />
    
      <clipPath id="make-me-a-hanzi-clip-2">
        <path d="M 95 373 L 96 372 Q 111 352 119 315 Q 133 267 140 148 Q 143 100 168 98 Q 177 98 181 132 L 183 163 Q 183 196 178 254 L 176 281 Q 173 317 168 362 C 165 386 165 386 147 392 Q 146 393 141 394 Q 134 396 123 397 C 93 401 78 397 95 373 Z" />
      </clipPath>
      <path clip-path="url(#make-me-a-hanzi-clip-2)" d="M 100 377 L 131 366 L 143 337 L 158 225 L 165 108" fill="none" id="make-me-a-hanzi-animation-2" stroke-dasharray="422 844" stroke-linecap="round" />
    
      <clipPath id="make-me-a-hanzi-clip-3">
        <path d="M 332 149 Q 332 144 338 130 Q 344 119 355 119 Q 369 119 404 279 Q 420 356 433 371 Q 447 386 447 394 Q 447 406 410 429 Q 378 446 355 446 Q 350 446 338 439 Q 318 428 296 425 L 290 424 L 258 417 L 147 392 C 118 385 139 355 168 362 Q 174 362 225 379 L 261 388 Q 310 398 332 398 Q 355 398 355 375 Q 355 344 351 301 L 347 266 Q 344 240 339 210 Q 337 192 335 180 L 332 149 Z" />
      </clipPath>
      <path clip-path="url(#make-me-a-hanzi-clip-3)" d="M 155 390 L 176 381 L 277 407 L 359 419 L 387 401 L 395 390 L 351 149 L 353 127" fill="none" id="make-me-a-hanzi-animation-3" stroke-dasharray="652 1304" stroke-linecap="round" />
    
      <clipPath id="make-me-a-hanzi-clip-4">
        <path d="M 178 254 Q 191 251 204 251 Q 211 251 237 254 L 272 257 Q 302 261 347 266 C 377 269 378 288 351 301 Q 344 306 324 306 Q 311 306 296 303 Q 285 301 273 299 L 234 291 Q 204 286 176 281 C 146 276 149 260 178 254 Z" />
      </clipPath>
      <path clip-path="url(#make-me-a-hanzi-clip-4)" d="M 184 275 L 193 268 L 207 268 L 328 285 L 343 296" fill="none" id="make-me-a-hanzi-animation-4" stroke-dasharray="294 588" stroke-linecap="round" />
    
      <clipPath id="make-me-a-hanzi-clip-5">
        <path d="M 237 254 Q 239 218 240 174 C 241 144 271 150 271 180 Q 271 224 272 257 L 273 299 Q 274 330 278 339 Q 284 353 284 358 Q 284 372 261 388 C 237 406 220 409 225 379 Q 231 346 234 291 L 237 254 Z" />
      </clipPath>
      <path clip-path="url(#make-me-a-hanzi-clip-5)" d="M 233 374 L 256 354 L 256 205 L 247 181" fill="none" id="make-me-a-hanzi-animation-5" stroke-dasharray="333 666" stroke-linecap="round" />
    
      <clipPath id="make-me-a-hanzi-clip-6">
        <path d="M 181 132 Q 184 131 187 131 Q 257 139 332 149 C 362 153 362 167 335 180 Q 324 186 307 186 Q 304 186 271 180 L 240 174 Q 216 169 183 163 C 153 158 151 137 181 132 Z" />
      </clipPath>
      <path clip-path="url(#make-me-a-hanzi-clip-6)" d="M 185 140 L 199 149 L 284 164 L 313 167 L 323 158" fill="none" id="make-me-a-hanzi-animation-6" stroke-dasharray="274 548" stroke-linecap="round" />
    
      <clipPath id="make-me-a-hanzi-clip-7">
        <path d="M 403 98 Q 398 98 338 77 Q 142 16 79 9 Q 51 8 51 -1 Q 51 -12 78 -40 Q 112 -70 135 -70 Q 139 -70 170 -45 Q 222 -12 374 58 Q 420 79 420 91 Q 420 98 403 98 Z" />
      </clipPath>
      <path clip-path="url(#make-me-a-hanzi-clip-7)" d="M 60 -3 L 128 -25 L 413 90" fill="none" id="make-me-a-hanzi-animation-7" stroke-dasharray="507 1014" stroke-linecap="round" />
    
      <clipPath id="make-me-a-hanzi-clip-8">
        <path d="M 620 710 Q 607 710 607 698 Q 607 696 608 690 Q 611 678 611 666 Q 607 606 566 505 Q 518 394 462 331 Q 431 294 431 291 Q 431 287 443 287 Q 475 287 544 371 Q 604 447 658 584 L 659 586 L 670 610 Q 679 634 687 649 Q 695 663 695 671 Q 695 682 663 697 Q 637 710 620 710 Z" />
      </clipPath>
      <path clip-path="url(#make-me-a-hanzi-clip-8)" d="M 618 699 L 633 685 L 648 657 L 590 494 L 522 374 L 475 320 L 437 290" fill="none" id="make-me-a-hanzi-animation-8" stroke-dasharray="611 1222" stroke-linecap="round" />
    
      <clipPath id="make-me-a-hanzi-clip-9">
        <path d="M 659 586 Q 668 569 681 543 Q 768 365 797 331 Q 809 318 815 318 Q 848 318 907 328 Q 976 338 976 347 Q 976 352 943 362 Q 883 383 841 419 Q 779 467 685 590 Q 677 601 670 610 C 652 634 645 613 659 586 Z" />
      </clipPath>
      <path clip-path="url(#make-me-a-hanzi-clip-9)" d="M 670 603 L 672 587 L 726 501 L 830 366 L 916 348 L 972 347" fill="none" id="make-me-a-hanzi-animation-9" stroke-dasharray="560 1120" stroke-linecap="round" />
    
      <clipPath id="make-me-a-hanzi-clip-10">
        <path d="M 683 379 Q 678 379 666 372 Q 636 355 552 339 Q 540 337 540 331 Q 540 323 561 315 Q 587 306 607 306 Q 613 306 623 310 Q 638 313 683 326 Q 707 330 733 340 Q 746 347 748 358 Q 744 378 683 379 Z" />
      </clipPath>
      <path clip-path="url(#make-me-a-hanzi-clip-10)" d="M 549 331 L 573 326 L 612 329 L 693 355 L 737 357" fill="none" id="make-me-a-hanzi-animation-10" stroke-dasharray="321 642" stroke-linecap="round" />
    
      <clipPath id="make-me-a-hanzi-clip-11">
        <path d="M 641 173 Q 673 178 713 185 Q 770 192 840 194 Q 863 194 863 211 Q 863 224 845 235 Q 824 247 800 247 Q 776 247 752 239 Q 636 209 552 192 Q 513 185 471 182 Q 449 182 447 171 Q 449 166 463 160 Q 487 148 512 146 Q 524 146 554 155 Q 573 160 598 165 L 641 173 Z" />
      </clipPath>
      <path clip-path="url(#make-me-a-hanzi-clip-11)" d="M 454 172 L 515 166 L 775 218 L 806 220 L 845 212" fill="none" id="make-me-a-hanzi-animation-11" stroke-dasharray="525 1050" stroke-linecap="round" />
    
      <clipPath id="make-me-a-hanzi-clip-12">
        <path d="M 763 7 Q 713 0 561 -23 Q 641 91 662 116 Q 670 124 672 131 Q 670 146 648 166 Q 645 169 641 173 C 620 194 601 195 598 165 Q 597 137 585 111 Q 560 59 522 -1 Q 503 -31 479 -41 Q 465 -46 464 -62 Q 464 -74 473 -85 Q 487 -106 504 -106 Q 517 -106 541 -93 Q 606 -61 775 -16 C 804 -8 793 11 763 7 Z" />
      </clipPath>
      <path clip-path="url(#make-me-a-hanzi-clip-12)" d="M 607 157 L 630 134 L 536 -21 L 533 -52 L 564 -52 L 731 -12 L 756 -8 L 764 -15" fill="none" id="make-me-a-hanzi-animation-12" stroke-dasharray="612 1224" stroke-linecap="round" />
    
      <clipPath id="make-me-a-hanzi-clip-13">
        <path d="M 724 91 Q 720 91 720 87 Q 720 84 738 51 Q 752 27 763 7 L 775 -16 Q 780 -27 785 -37 Q 815 -97 840 -97 Q 863 -97 863 -62 Q 863 -29 842 3 Q 820 42 776 68 Q 741 91 724 91 Z" />
      </clipPath>
      <path clip-path="url(#make-me-a-hanzi-clip-13)" d="M 725 86 L 797 12 L 841 -77" fill="none" id="make-me-a-hanzi-animation-13" stroke-dasharray="331 662" stroke-linecap="round" />
    
  </g>
</svg>