<svg version="1.1" viewBox="0 0 1024 1024" xmlns="http://www.w3.org/2000/svg">
  <g stroke="lightgray" stroke-dasharray="1,1" stroke-width="1" transform="scale(4, 4)">
    <line x1="0" y1="0" x2="256" y2="256"></line>
    <line x1="256" y1="0" x2="0" y2="256"></line>
    <line x1="128" y1="0" x2="128" y2="256"></line>
    <line x1="0" y1="128" x2="256" y2="128"></line>
  </g>
  <g transform="scale(1, -1) translate(0, -860)">
    <style type="text/css">
      
        @keyframes keyframes0 {
          from {
            stroke: blue;
            stroke-dashoffset: 604;
            stroke-width: 128;
          }
          66% {
            animation-timing-function: step-end;
            stroke: blue;
            stroke-dashoffset: 0;
            stroke-width: 128;
          }
          to {
            stroke: black;
            stroke-width: 1024;
          }
        }
        #make-me-a-hanzi-animation-0 {
          animation: keyframes0 0.7415364583333334s both;
          animation-delay: 0s;
          animation-timing-function: linear;
        }
      
        @keyframes keyframes1 {
          from {
            stroke: blue;
            stroke-dashoffset: 587;
            stroke-width: 128;
          }
          66% {
            animation-timing-function: step-end;
            stroke: blue;
            stroke-dashoffset: 0;
            stroke-width: 128;
          }
          to {
            stroke: black;
            stroke-width: 1024;
          }
        }
        #make-me-a-hanzi-animation-1 {
          animation: keyframes1 0.7277018229166666s both;
          animation-delay: 0.7415364583333334s;
          animation-timing-function: linear;
        }
      
        @keyframes keyframes2 {
          from {
            stroke: blue;
            stroke-dashoffset: 515;
            stroke-width: 128;
          }
          63% {
            animation-timing-function: step-end;
            stroke: blue;
            stroke-dashoffset: 0;
            stroke-width: 128;
          }
          to {
            stroke: black;
            stroke-width: 1024;
          }
        }
        #make-me-a-hanzi-animation-2 {
          animation: keyframes2 0.6691080729166666s both;
          animation-delay: 1.46923828125s;
          animation-timing-function: linear;
        }
      
        @keyframes keyframes3 {
          from {
            stroke: blue;
            stroke-dashoffset: 754;
            stroke-width: 128;
          }
          71% {
            animation-timing-function: step-end;
            stroke: blue;
            stroke-dashoffset: 0;
            stroke-width: 128;
          }
          to {
            stroke: black;
            stroke-width: 1024;
          }
        }
        #make-me-a-hanzi-animation-3 {
          animation: keyframes3 0.8636067708333334s both;
          animation-delay: 2.1383463541666665s;
          animation-timing-function: linear;
        }
      
        @keyframes keyframes4 {
          from {
            stroke: blue;
            stroke-dashoffset: 397;
            stroke-width: 128;
          }
          56% {
            animation-timing-function: step-end;
            stroke: blue;
            stroke-dashoffset: 0;
            stroke-width: 128;
          }
          to {
            stroke: black;
            stroke-width: 1024;
          }
        }
        #make-me-a-hanzi-animation-4 {
          animation: keyframes4 0.5730794270833334s both;
          animation-delay: 3.001953125s;
          animation-timing-function: linear;
        }
      
        @keyframes keyframes5 {
          from {
            stroke: blue;
            stroke-dashoffset: 441;
            stroke-width: 128;
          }
          59% {
            animation-timing-function: step-end;
            stroke: blue;
            stroke-dashoffset: 0;
            stroke-width: 128;
          }
          to {
            stroke: black;
            stroke-width: 1024;
          }
        }
        #make-me-a-hanzi-animation-5 {
          animation: keyframes5 0.60888671875s both;
          animation-delay: 3.5750325520833335s;
          animation-timing-function: linear;
        }
      
        @keyframes keyframes6 {
          from {
            stroke: blue;
            stroke-dashoffset: 420;
            stroke-width: 128;
          }
          58% {
            animation-timing-function: step-end;
            stroke: blue;
            stroke-dashoffset: 0;
            stroke-width: 128;
          }
          to {
            stroke: black;
            stroke-width: 1024;
          }
        }
        #make-me-a-hanzi-animation-6 {
          animation: keyframes6 0.591796875s both;
          animation-delay: 4.183919270833334s;
          animation-timing-function: linear;
        }
      
        @keyframes keyframes7 {
          from {
            stroke: blue;
            stroke-dashoffset: 617;
            stroke-width: 128;
          }
          67% {
            animation-timing-function: step-end;
            stroke: blue;
            stroke-dashoffset: 0;
            stroke-width: 128;
          }
          to {
            stroke: black;
            stroke-width: 1024;
          }
        }
        #make-me-a-hanzi-animation-7 {
          animation: keyframes7 0.7521158854166666s both;
          animation-delay: 4.775716145833334s;
          animation-timing-function: linear;
        }
      
        @keyframes keyframes8 {
          from {
            stroke: blue;
            stroke-dashoffset: 380;
            stroke-width: 128;
          }
          55% {
            animation-timing-function: step-end;
            stroke: blue;
            stroke-dashoffset: 0;
            stroke-width: 128;
          }
          to {
            stroke: black;
            stroke-width: 1024;
          }
        }
        #make-me-a-hanzi-animation-8 {
          animation: keyframes8 0.5592447916666666s both;
          animation-delay: 5.527832031250001s;
          animation-timing-function: linear;
        }
      
        @keyframes keyframes9 {
          from {
            stroke: blue;
            stroke-dashoffset: 481;
            stroke-width: 128;
          }
          61% {
            animation-timing-function: step-end;
            stroke: blue;
            stroke-dashoffset: 0;
            stroke-width: 128;
          }
          to {
            stroke: black;
            stroke-width: 1024;
          }
        }
        #make-me-a-hanzi-animation-9 {
          animation: keyframes9 0.6414388020833334s both;
          animation-delay: 6.087076822916668s;
          animation-timing-function: linear;
        }
      
        @keyframes keyframes10 {
          from {
            stroke: blue;
            stroke-dashoffset: 556;
            stroke-width: 128;
          }
          64% {
            animation-timing-function: step-end;
            stroke: blue;
            stroke-dashoffset: 0;
            stroke-width: 128;
          }
          to {
            stroke: black;
            stroke-width: 1024;
          }
        }
        #make-me-a-hanzi-animation-10 {
          animation: keyframes10 0.7024739583333334s both;
          animation-delay: 6.728515625000001s;
          animation-timing-function: linear;
        }
      
        @keyframes keyframes11 {
          from {
            stroke: blue;
            stroke-dashoffset: 521;
            stroke-width: 128;
          }
          63% {
            animation-timing-function: step-end;
            stroke: blue;
            stroke-dashoffset: 0;
            stroke-width: 128;
          }
          to {
            stroke: black;
            stroke-width: 1024;
          }
        }
        #make-me-a-hanzi-animation-11 {
          animation: keyframes11 0.6739908854166666s both;
          animation-delay: 7.430989583333334s;
          animation-timing-function: linear;
        }
      
        @keyframes keyframes12 {
          from {
            stroke: blue;
            stroke-dashoffset: 729;
            stroke-width: 128;
          }
          70% {
            animation-timing-function: step-end;
            stroke: blue;
            stroke-dashoffset: 0;
            stroke-width: 128;
          }
          to {
            stroke: black;
            stroke-width: 1024;
          }
        }
        #make-me-a-hanzi-animation-12 {
          animation: keyframes12 0.84326171875s both;
          animation-delay: 8.10498046875s;
          animation-timing-function: linear;
        }
      
        @keyframes keyframes13 {
          from {
            stroke: blue;
            stroke-dashoffset: 882;
            stroke-width: 128;
          }
          74% {
            animation-timing-function: step-end;
            stroke: blue;
            stroke-dashoffset: 0;
            stroke-width: 128;
          }
          to {
            stroke: black;
            stroke-width: 1024;
          }
        }
        #make-me-a-hanzi-animation-13 {
          animation: keyframes13 0.9677734375s both;
          animation-delay: 8.9482421875s;
          animation-timing-function: linear;
        }
      
    </style>
    
      <path d="M 282 615 Q 333 685 352 702 Q 361 711 358 723 Q 355 735 331 756 Q 309 774 292 774 Q 276 774 282 754 Q 295 717 220 608 Q 184 557 135 503 Q 126 494 124 489 Q 120 479 133 481 Q 161 485 272 603 L 282 615 Z" fill="lightgray"></path>
    
      <path d="M 338 463 Q 456 592 470 600 Q 486 610 476 622 Q 463 634 428 653 Q 419 656 334 627 Q 307 620 282 615 C 262 611 262 611 272 603 Q 281 593 302 591 Q 311 590 371 604 Q 378 605 381 603 Q 385 600 380 590 Q 343 511 320 474 Q 314 464 311 457 C 298 430 318 441 338 463 Z" fill="lightgray"></path>
    
      <path d="M 180 428 Q 170 432 145 436 Q 135 440 131 435 Q 125 429 133 414 Q 163 347 180 241 Q 183 208 201 187 Q 217 166 222 181 Q 225 191 226 203 L 225 227 Q 224 239 222 251 Q 200 372 197 402 C 194 423 194 423 180 428 Z" fill="lightgray"></path>
    
      <path d="M 386 230 Q 399 211 413 206 Q 423 199 435 219 Q 448 243 469 373 Q 476 401 495 423 Q 505 433 495 445 Q 482 460 444 480 Q 431 486 361 468 Q 358 468 338 463 L 311 457 Q 265 450 180 428 C 151 421 169 393 197 402 Q 231 414 280 424 L 312 430 Q 340 437 376 443 Q 403 447 411 439 Q 424 426 422 411 Q 404 272 389 259 C 378 239 378 239 386 230 Z" fill="lightgray"></path>
    
      <path d="M 332 325 Q 353 329 373 332 Q 392 335 385 346 Q 376 358 355 361 Q 345 362 333 360 L 292 350 Q 259 340 230 330 Q 217 327 233 315 Q 240 311 254 312 Q 273 316 293 318 L 332 325 Z" fill="lightgray"></path>
    
      <path d="M 329 254 Q 330 293 332 325 L 333 360 Q 333 375 335 392 Q 339 405 333 413 Q 323 423 312 430 C 287 447 266 450 280 424 Q 281 420 286 415 Q 289 406 292 350 L 293 318 Q 293 288 295 245 C 296 215 328 224 329 254 Z" fill="lightgray"></path>
    
      <path d="M 226 203 Q 251 212 386 230 C 416 234 418 252 389 259 L 381 261 Q 362 262 331 255 Q 330 255 329 254 L 295 245 Q 256 236 225 227 C 196 219 197 194 226 203 Z" fill="lightgray"></path>
    
      <path d="M 124 80 Q 111 79 108 69 Q 105 56 115 46 Q 137 30 172 9 Q 182 5 195 14 Q 235 42 278 60 L 412 115 Q 437 125 456 139 Q 469 146 470 156 Q 466 162 452 160 Q 181 79 124 80 Z" fill="lightgray"></path>
    
      <path d="M 546 668 Q 564 646 582 619 Q 592 604 608 602 Q 618 601 625 613 Q 632 626 628 656 Q 627 672 602 689 Q 539 722 528 719 Q 524 716 522 704 Q 523 692 546 668 Z" fill="lightgray"></path>
    
      <path d="M 743 727 Q 731 693 672 590 Q 665 572 681 579 Q 727 621 753 650 Q 804 710 828 725 Q 847 738 833 754 Q 817 767 789 777 Q 764 786 752 780 Q 740 776 746 764 Q 753 748 743 727 Z" fill="lightgray"></path>
    
      <path d="M 687 502 Q 738 515 794 527 Q 834 537 839 542 Q 848 549 843 557 Q 836 567 809 574 Q 784 578 674 542 Q 569 521 544 518 Q 510 512 535 497 Q 572 476 624 489 Q 625 490 628 489 L 687 502 Z" fill="lightgray"></path>
    
      <path d="M 700 363 Q 707 366 794 379 Q 803 378 810 390 Q 811 400 791 408 Q 758 424 701 403 L 647 390 Q 581 381 543 373 Q 518 369 538 355 Q 566 336 601 343 Q 622 349 647 352 L 700 363 Z" fill="lightgray"></path>
    
      <path d="M 697 230 Q 773 240 890 242 Q 941 242 948 251 Q 952 263 937 275 Q 883 314 819 293 Q 768 284 698 268 L 646 260 L 475 233 Q 456 230 470 215 Q 483 202 501 198 Q 520 194 535 198 Q 586 213 646 222 L 697 230 Z" fill="lightgray"></path>
    
      <path d="M 646 -87 Q 652 -112 658 -121 Q 664 -128 671 -126 Q 689 -114 692 -59 Q 696 -11 697 230 L 698 268 Q 698 311 700 363 L 701 403 Q 704 439 712 467 Q 715 485 701 494 Q 694 500 687 502 C 661 517 615 516 628 489 Q 646 462 647 390 L 647 352 Q 647 310 646 260 L 646 222 Q 640 -28 646 -87 Z" fill="lightgray"></path>
    
    
      <clipPath id="make-me-a-hanzi-clip-0">
        <path d="M 282 615 Q 333 685 352 702 Q 361 711 358 723 Q 355 735 331 756 Q 309 774 292 774 Q 276 774 282 754 Q 295 717 220 608 Q 184 557 135 503 Q 126 494 124 489 Q 120 479 133 481 Q 161 485 272 603 L 282 615 Z"></path>
      </clipPath>
      <path clip-path="url(#make-me-a-hanzi-clip-0)" d="M 291 762 L 303 752 L 316 725 L 293 674 L 218 571 L 132 488" fill="none" id="make-me-a-hanzi-animation-0" stroke-dasharray="476 952" stroke-linecap="round"></path>
    
      <clipPath id="make-me-a-hanzi-clip-1">
        <path d="M 338 463 Q 456 592 470 600 Q 486 610 476 622 Q 463 634 428 653 Q 419 656 334 627 Q 307 620 282 615 C 262 611 262 611 272 603 Q 281 593 302 591 Q 311 590 371 604 Q 378 605 381 603 Q 385 600 380 590 Q 343 511 320 474 Q 314 464 311 457 C 298 430 318 441 338 463 Z"></path>
      </clipPath>
      <path clip-path="url(#make-me-a-hanzi-clip-1)" d="M 280 606 L 322 608 L 371 623 L 408 619 L 421 611 L 404 575 L 341 479 L 318 459" fill="none" id="make-me-a-hanzi-animation-1" stroke-dasharray="459 918" stroke-linecap="round"></path>
    
      <clipPath id="make-me-a-hanzi-clip-2">
        <path d="M 180 428 Q 170 432 145 436 Q 135 440 131 435 Q 125 429 133 414 Q 163 347 180 241 Q 183 208 201 187 Q 217 166 222 181 Q 225 191 226 203 L 225 227 Q 224 239 222 251 Q 200 372 197 402 C 194 423 194 423 180 428 Z"></path>
      </clipPath>
      <path clip-path="url(#make-me-a-hanzi-clip-2)" d="M 139 428 L 161 410 L 172 387 L 212 186" fill="none" id="make-me-a-hanzi-animation-2" stroke-dasharray="387 774" stroke-linecap="round"></path>
    
      <clipPath id="make-me-a-hanzi-clip-3">
        <path d="M 386 230 Q 399 211 413 206 Q 423 199 435 219 Q 448 243 469 373 Q 476 401 495 423 Q 505 433 495 445 Q 482 460 444 480 Q 431 486 361 468 Q 358 468 338 463 L 311 457 Q 265 450 180 428 C 151 421 169 393 197 402 Q 231 414 280 424 L 312 430 Q 340 437 376 443 Q 403 447 411 439 Q 424 426 422 411 Q 404 272 389 259 C 378 239 378 239 386 230 Z"></path>
      </clipPath>
      <path clip-path="url(#make-me-a-hanzi-clip-3)" d="M 190 426 L 202 419 L 375 459 L 412 461 L 435 454 L 456 431 L 414 238 L 419 222" fill="none" id="make-me-a-hanzi-animation-3" stroke-dasharray="626 1252" stroke-linecap="round"></path>
    
      <clipPath id="make-me-a-hanzi-clip-4">
        <path d="M 332 325 Q 353 329 373 332 Q 392 335 385 346 Q 376 358 355 361 Q 345 362 333 360 L 292 350 Q 259 340 230 330 Q 217 327 233 315 Q 240 311 254 312 Q 273 316 293 318 L 332 325 Z"></path>
      </clipPath>
      <path clip-path="url(#make-me-a-hanzi-clip-4)" d="M 239 324 L 330 343 L 358 346 L 377 341" fill="none" id="make-me-a-hanzi-animation-4" stroke-dasharray="269 538" stroke-linecap="round"></path>
    
      <clipPath id="make-me-a-hanzi-clip-5">
        <path d="M 329 254 Q 330 293 332 325 L 333 360 Q 333 375 335 392 Q 339 405 333 413 Q 323 423 312 430 C 287 447 266 450 280 424 Q 281 420 286 415 Q 289 406 292 350 L 293 318 Q 293 288 295 245 C 296 215 328 224 329 254 Z"></path>
      </clipPath>
      <path clip-path="url(#make-me-a-hanzi-clip-5)" d="M 286 421 L 312 401 L 312 277 L 309 262 L 299 254" fill="none" id="make-me-a-hanzi-animation-5" stroke-dasharray="313 626" stroke-linecap="round"></path>
    
      <clipPath id="make-me-a-hanzi-clip-6">
        <path d="M 226 203 Q 251 212 386 230 C 416 234 418 252 389 259 L 381 261 Q 362 262 331 255 Q 330 255 329 254 L 295 245 Q 256 236 225 227 C 196 219 197 194 226 203 Z"></path>
      </clipPath>
      <path clip-path="url(#make-me-a-hanzi-clip-6)" d="M 227 209 L 247 222 L 370 243 L 383 252" fill="none" id="make-me-a-hanzi-animation-6" stroke-dasharray="292 584" stroke-linecap="round"></path>
    
      <clipPath id="make-me-a-hanzi-clip-7">
        <path d="M 124 80 Q 111 79 108 69 Q 105 56 115 46 Q 137 30 172 9 Q 182 5 195 14 Q 235 42 278 60 L 412 115 Q 437 125 456 139 Q 469 146 470 156 Q 466 162 452 160 Q 181 79 124 80 Z"></path>
      </clipPath>
      <path clip-path="url(#make-me-a-hanzi-clip-7)" d="M 123 64 L 180 49 L 464 153" fill="none" id="make-me-a-hanzi-animation-7" stroke-dasharray="489 978" stroke-linecap="round"></path>
    
      <clipPath id="make-me-a-hanzi-clip-8">
        <path d="M 546 668 Q 564 646 582 619 Q 592 604 608 602 Q 618 601 625 613 Q 632 626 628 656 Q 627 672 602 689 Q 539 722 528 719 Q 524 716 522 704 Q 523 692 546 668 Z"></path>
      </clipPath>
      <path clip-path="url(#make-me-a-hanzi-clip-8)" d="M 531 713 L 591 660 L 609 620" fill="none" id="make-me-a-hanzi-animation-8" stroke-dasharray="252 504" stroke-linecap="round"></path>
    
      <clipPath id="make-me-a-hanzi-clip-9">
        <path d="M 743 727 Q 731 693 672 590 Q 665 572 681 579 Q 727 621 753 650 Q 804 710 828 725 Q 847 738 833 754 Q 817 767 789 777 Q 764 786 752 780 Q 740 776 746 764 Q 753 748 743 727 Z"></path>
      </clipPath>
      <path clip-path="url(#make-me-a-hanzi-clip-9)" d="M 754 770 L 775 755 L 785 739 L 683 590" fill="none" id="make-me-a-hanzi-animation-9" stroke-dasharray="353 706" stroke-linecap="round"></path>
    
      <clipPath id="make-me-a-hanzi-clip-10">
        <path d="M 687 502 Q 738 515 794 527 Q 834 537 839 542 Q 848 549 843 557 Q 836 567 809 574 Q 784 578 674 542 Q 569 521 544 518 Q 510 512 535 497 Q 572 476 624 489 Q 625 490 628 489 L 687 502 Z"></path>
      </clipPath>
      <path clip-path="url(#make-me-a-hanzi-clip-10)" d="M 537 509 L 597 505 L 781 548 L 832 552" fill="none" id="make-me-a-hanzi-animation-10" stroke-dasharray="428 856" stroke-linecap="round"></path>
    
      <clipPath id="make-me-a-hanzi-clip-11">
        <path d="M 700 363 Q 707 366 794 379 Q 803 378 810 390 Q 811 400 791 408 Q 758 424 701 403 L 647 390 Q 581 381 543 373 Q 518 369 538 355 Q 566 336 601 343 Q 622 349 647 352 L 700 363 Z"></path>
      </clipPath>
      <path clip-path="url(#make-me-a-hanzi-clip-11)" d="M 539 365 L 581 360 L 759 395 L 800 391" fill="none" id="make-me-a-hanzi-animation-11" stroke-dasharray="393 786" stroke-linecap="round"></path>
    
      <clipPath id="make-me-a-hanzi-clip-12">
        <path d="M 697 230 Q 773 240 890 242 Q 941 242 948 251 Q 952 263 937 275 Q 883 314 819 293 Q 768 284 698 268 L 646 260 L 475 233 Q 456 230 470 215 Q 483 202 501 198 Q 520 194 535 198 Q 586 213 646 222 L 697 230 Z"></path>
      </clipPath>
      <path clip-path="url(#make-me-a-hanzi-clip-12)" d="M 473 224 L 526 218 L 625 239 L 859 271 L 940 257" fill="none" id="make-me-a-hanzi-animation-12" stroke-dasharray="601 1202" stroke-linecap="round"></path>
    
      <clipPath id="make-me-a-hanzi-clip-13">
        <path d="M 646 -87 Q 652 -112 658 -121 Q 664 -128 671 -126 Q 689 -114 692 -59 Q 696 -11 697 230 L 698 268 Q 698 311 700 363 L 701 403 Q 704 439 712 467 Q 715 485 701 494 Q 694 500 687 502 C 661 517 615 516 628 489 Q 646 462 647 390 L 647 352 Q 647 310 646 260 L 646 222 Q 640 -28 646 -87 Z"></path>
      </clipPath>
      <path clip-path="url(#make-me-a-hanzi-clip-13)" d="M 636 488 L 675 464 L 667 -116" fill="none" id="make-me-a-hanzi-animation-13" stroke-dasharray="754 1508" stroke-linecap="round"></path>
    
  </g>
</svg>