<svg xmlns="http://www.w3.org/2000/svg" version="1.1" viewBox="0 0 1024 1024">
  <g stroke="lightgray" stroke-dasharray="1,1" stroke-width="1" transform="scale(4, 4)">
    <line x1="0" y1="0" x2="256" y2="256" />
    <line x1="256" y1="0" x2="0" y2="256" />
    <line x1="128" y1="0" x2="128" y2="256" />
    <line x1="0" y1="128" x2="256" y2="128" />
  </g>
  <g transform="scale(1.0, -1.0) translate(0.0, -821.50)">
    <style type="text/css">
      
        @keyframes keyframes0 {
          from {
            stroke: blue;
            stroke-dashoffset: 544;
            stroke-width: 128;
          }
          64% {
            animation-timing-function: step-end;
            stroke: blue;
            stroke-dashoffset: 0;
            stroke-width: 128;
          }
          to {
            stroke: black;
            stroke-width: 1024;
          }
        }
        #make-me-a-hanzi-animation-0 {
          animation: keyframes0 0.6927083333333334s both;
          animation-delay: 0s;
          animation-timing-function: linear;
        }
      
        @keyframes keyframes1 {
          from {
            stroke: blue;
            stroke-dashoffset: 549;
            stroke-width: 128;
          }
          64% {
            animation-timing-function: step-end;
            stroke: blue;
            stroke-dashoffset: 0;
            stroke-width: 128;
          }
          to {
            stroke: black;
            stroke-width: 1024;
          }
        }
        #make-me-a-hanzi-animation-1 {
          animation: keyframes1 0.69677734375s both;
          animation-delay: 0.6927083333333334s;
          animation-timing-function: linear;
        }
      
        @keyframes keyframes2 {
          from {
            stroke: blue;
            stroke-dashoffset: 488;
            stroke-width: 128;
          }
          61% {
            animation-timing-function: step-end;
            stroke: blue;
            stroke-dashoffset: 0;
            stroke-width: 128;
          }
          to {
            stroke: black;
            stroke-width: 1024;
          }
        }
        #make-me-a-hanzi-animation-2 {
          animation: keyframes2 0.6471354166666666s both;
          animation-delay: 1.3894856770833335s;
          animation-timing-function: linear;
        }
      
        @keyframes keyframes3 {
          from {
            stroke: blue;
            stroke-dashoffset: 692;
            stroke-width: 128;
          }
          69% {
            animation-timing-function: step-end;
            stroke: blue;
            stroke-dashoffset: 0;
            stroke-width: 128;
          }
          to {
            stroke: black;
            stroke-width: 1024;
          }
        }
        #make-me-a-hanzi-animation-3 {
          animation: keyframes3 0.8131510416666666s both;
          animation-delay: 2.03662109375s;
          animation-timing-function: linear;
        }
      
        @keyframes keyframes4 {
          from {
            stroke: blue;
            stroke-dashoffset: 372;
            stroke-width: 128;
          }
          55% {
            animation-timing-function: step-end;
            stroke: blue;
            stroke-dashoffset: 0;
            stroke-width: 128;
          }
          to {
            stroke: black;
            stroke-width: 1024;
          }
        }
        #make-me-a-hanzi-animation-4 {
          animation: keyframes4 0.552734375s both;
          animation-delay: 2.8497721354166665s;
          animation-timing-function: linear;
        }
      
        @keyframes keyframes5 {
          from {
            stroke: blue;
            stroke-dashoffset: 409;
            stroke-width: 128;
          }
          57% {
            animation-timing-function: step-end;
            stroke: blue;
            stroke-dashoffset: 0;
            stroke-width: 128;
          }
          to {
            stroke: black;
            stroke-width: 1024;
          }
        }
        #make-me-a-hanzi-animation-5 {
          animation: keyframes5 0.5828450520833334s both;
          animation-delay: 3.4025065104166665s;
          animation-timing-function: linear;
        }
      
        @keyframes keyframes6 {
          from {
            stroke: blue;
            stroke-dashoffset: 389;
            stroke-width: 128;
          }
          56% {
            animation-timing-function: step-end;
            stroke: blue;
            stroke-dashoffset: 0;
            stroke-width: 128;
          }
          to {
            stroke: black;
            stroke-width: 1024;
          }
        }
        #make-me-a-hanzi-animation-6 {
          animation: keyframes6 0.5665690104166666s both;
          animation-delay: 3.9853515625s;
          animation-timing-function: linear;
        }
      
        @keyframes keyframes7 {
          from {
            stroke: blue;
            stroke-dashoffset: 597;
            stroke-width: 128;
          }
          66% {
            animation-timing-function: step-end;
            stroke: blue;
            stroke-dashoffset: 0;
            stroke-width: 128;
          }
          to {
            stroke: black;
            stroke-width: 1024;
          }
        }
        #make-me-a-hanzi-animation-7 {
          animation: keyframes7 0.73583984375s both;
          animation-delay: 4.551920572916667s;
          animation-timing-function: linear;
        }
      
        @keyframes keyframes8 {
          from {
            stroke: blue;
            stroke-dashoffset: 645;
            stroke-width: 128;
          }
          68% {
            animation-timing-function: step-end;
            stroke: blue;
            stroke-dashoffset: 0;
            stroke-width: 128;
          }
          to {
            stroke: black;
            stroke-width: 1024;
          }
        }
        #make-me-a-hanzi-animation-8 {
          animation: keyframes8 0.77490234375s both;
          animation-delay: 5.287760416666667s;
          animation-timing-function: linear;
        }
      
        @keyframes keyframes9 {
          from {
            stroke: blue;
            stroke-dashoffset: 338;
            stroke-width: 128;
          }
          52% {
            animation-timing-function: step-end;
            stroke: blue;
            stroke-dashoffset: 0;
            stroke-width: 128;
          }
          to {
            stroke: black;
            stroke-width: 1024;
          }
        }
        #make-me-a-hanzi-animation-9 {
          animation: keyframes9 0.5250651041666666s both;
          animation-delay: 6.062662760416667s;
          animation-timing-function: linear;
        }
      
        @keyframes keyframes10 {
          from {
            stroke: blue;
            stroke-dashoffset: 341;
            stroke-width: 128;
          }
          53% {
            animation-timing-function: step-end;
            stroke: blue;
            stroke-dashoffset: 0;
            stroke-width: 128;
          }
          to {
            stroke: black;
            stroke-width: 1024;
          }
        }
        #make-me-a-hanzi-animation-10 {
          animation: keyframes10 0.5275065104166666s both;
          animation-delay: 6.587727864583334s;
          animation-timing-function: linear;
        }
      
        @keyframes keyframes11 {
          from {
            stroke: blue;
            stroke-dashoffset: 863;
            stroke-width: 128;
          }
          74% {
            animation-timing-function: step-end;
            stroke: blue;
            stroke-dashoffset: 0;
            stroke-width: 128;
          }
          to {
            stroke: black;
            stroke-width: 1024;
          }
        }
        #make-me-a-hanzi-animation-11 {
          animation: keyframes11 0.9523111979166666s both;
          animation-delay: 7.115234375000001s;
          animation-timing-function: linear;
        }
      
        @keyframes keyframes12 {
          from {
            stroke: blue;
            stroke-dashoffset: 383;
            stroke-width: 128;
          }
          55% {
            animation-timing-function: step-end;
            stroke: blue;
            stroke-dashoffset: 0;
            stroke-width: 128;
          }
          to {
            stroke: black;
            stroke-width: 1024;
          }
        }
        #make-me-a-hanzi-animation-12 {
          animation: keyframes12 0.5616861979166666s both;
          animation-delay: 8.067545572916668s;
          animation-timing-function: linear;
        }
      
        @keyframes keyframes13 {
          from {
            stroke: blue;
            stroke-dashoffset: 754;
            stroke-width: 128;
          }
          71% {
            animation-timing-function: step-end;
            stroke: blue;
            stroke-dashoffset: 0;
            stroke-width: 128;
          }
          to {
            stroke: black;
            stroke-width: 1024;
          }
        }
        #make-me-a-hanzi-animation-13 {
          animation: keyframes13 0.8636067708333334s both;
          animation-delay: 8.629231770833334s;
          animation-timing-function: linear;
        }
      
        @keyframes keyframes14 {
          from {
            stroke: blue;
            stroke-dashoffset: 911;
            stroke-width: 128;
          }
          75% {
            animation-timing-function: step-end;
            stroke: blue;
            stroke-dashoffset: 0;
            stroke-width: 128;
          }
          to {
            stroke: black;
            stroke-width: 1024;
          }
        }
        #make-me-a-hanzi-animation-14 {
          animation: keyframes14 0.9913736979166666s both;
          animation-delay: 9.492838541666668s;
          animation-timing-function: linear;
        }
      
    </style>
    
      <path d="M 249 609 Q 321 712 321 713 Q 320 715 320 716 Q 317 726 296 744 Q 277 759 262 759 Q 247 758 253 741 Q 266 711 207 618 Q 180 575 141 527 Q 134 520 132 515 Q 129 506 140 508 Q 164 512 222 578 Q 229 588 240 598 L 249 609 Z" fill="lightgray" />
    
      <path d="M 281 458 Q 299 477 333 525 Q 367 571 401 599 Q 416 609 405 619 Q 395 629 363 644 Q 354 647 282 618 L 249 609 C 228 603 228 603 240 598 Q 255 586 315 600 Q 319 601 322 600 Q 326 596 321 586 Q 288 507 267 469 Q 261 459 259 452 C 248 424 261 436 281 458 Z" fill="lightgray" />
    
      <path d="M 150 423 Q 140 427 115 432 Q 105 435 102 430 Q 98 426 104 412 Q 132 354 147 258 Q 150 230 166 210 Q 182 191 186 205 Q 189 215 189 232 L 187 250 Q 186 259 185 267 Q 166 364 162 395 C 158 420 158 420 150 423 Z" fill="lightgray" />
    
      <path d="M 324 252 Q 337 236 350 230 Q 359 224 370 243 Q 380 262 400 374 Q 406 399 424 422 Q 434 432 424 444 Q 411 457 374 476 Q 362 482 298 463 Q 289 463 281 458 L 259 452 Q 235 449 150 423 C 121 414 134 385 162 395 Q 162 396 164 396 Q 192 406 233 416 L 260 424 Q 285 431 316 437 Q 338 441 345 435 Q 355 423 355 411 Q 340 290 326 279 C 316 261 316 261 324 252 Z" fill="lightgray" />
    
      <path d="M 278 330 Q 296 334 314 337 Q 332 341 325 350 Q 310 368 279 363 L 242 354 Q 217 347 197 338 Q 184 334 200 323 Q 203 322 243 325 L 278 330 Z" fill="lightgray" />
    
      <path d="M 275 274 Q 276 304 278 330 L 279 363 Q 279 375 281 389 Q 285 407 260 424 C 236 442 220 443 233 416 Q 239 410 242 354 L 243 325 Q 243 301 245 266 C 247 236 274 244 275 274 Z" fill="lightgray" />
    
      <path d="M 189 232 Q 193 231 204 232 Q 271 245 324 252 C 354 256 355 271 326 279 Q 325 280 323 280 Q 307 283 276 275 Q 275 275 275 274 C 269 272 269 272 245 266 Q 214 259 187 250 C 158 241 159 235 189 232 Z" fill="lightgray" />
    
      <path d="M 74 118 Q 62 117 60 108 Q 59 96 67 88 Q 88 73 117 56 Q 127 53 137 60 Q 174 90 343 157 Q 368 167 385 180 Q 397 187 398 195 Q 394 199 381 198 Q 126 117 74 118 Z" fill="lightgray" />
    
      <path d="M 573 373 Q 574 372 577 367 Q 596 339 615 362 Q 625 374 636 434 Q 639 524 665 563 Q 677 579 665 592 Q 649 605 622 620 Q 609 626 594 620 Q 539 595 473 578 C 444 570 460 547 489 556 Q 490 556 551 577 Q 584 587 596 582 Q 603 578 601 551 Q 594 476 586 413 Q 586 395 570 391 C 563 387 563 387 573 373 Z" fill="lightgray" />
    
      <path d="M 484 451 Q 484 452 487 452 Q 530 464 564 472 Q 582 478 574 486 Q 564 496 544 497 Q 505 497 484 476 C 462 455 456 442 484 451 Z" fill="lightgray" />
    
      <path d="M 485 356 Q 509 365 573 373 C 589 375 589 375 570 391 Q 566 395 557 399 Q 547 405 485 382 C 457 372 457 346 485 356 Z" fill="lightgray" />
    
      <path d="M 583 248 Q 577 247 486 183 Q 482 179 479 184 Q 483 277 485 356 L 485 382 Q 484 418 484 451 L 484 476 Q 485 515 489 556 C 490 567 490 567 473 578 Q 457 590 444 596 Q 428 602 420 597 Q 411 591 419 579 Q 464 494 440 218 Q 440 176 408 132 Q 399 119 407 100 Q 417 78 428 68 Q 440 62 449 77 Q 458 99 592 232 C 613 253 609 263 583 248 Z" fill="lightgray" />
    
      <path d="M 592 232 Q 616 184 628 180 Q 635 179 642 185 Q 648 194 649 215 Q 650 234 629 259 Q 578 307 564 306 Q 560 305 558 296 Q 558 284 583 248 L 592 232 Z" fill="lightgray" />
    
      <path d="M 755 465 Q 755 466 757 466 Q 817 491 859 502 Q 869 503 871 501 Q 881 488 878 451 Q 874 349 853 304 Q 841 277 818 279 L 789 285 Q 767 292 783 271 Q 814 238 829 212 Q 848 194 863 212 Q 912 257 926 378 Q 930 486 945 508 Q 954 518 948 527 Q 939 534 896 549 Q 880 555 864 542 Q 846 527 752 497 C 723 488 727 453 755 465 Z" fill="lightgray" />
    
      <path d="M 696 -102 Q 700 -124 707 -133 Q 711 -140 719 -138 Q 731 -129 738 -76 Q 738 -67 744 188 Q 744 416 755 465 C 759 491 759 491 752 497 Q 730 519 704 522 Q 692 526 678 518 Q 671 511 676 502 Q 698 450 700 428 Q 701 292 694 77 Q 691 -56 696 -102 Z" fill="lightgray" />
    
    
      <clipPath id="make-me-a-hanzi-clip-0">
        <path d="M 249 609 Q 321 712 321 713 Q 320 715 320 716 Q 317 726 296 744 Q 277 759 262 759 Q 247 758 253 741 Q 266 711 207 618 Q 180 575 141 527 Q 134 520 132 515 Q 129 506 140 508 Q 164 512 222 578 Q 229 588 240 598 L 249 609 Z" />
      </clipPath>
      <path clip-path="url(#make-me-a-hanzi-clip-0)" d="M 261 748 L 278 730 L 284 713 L 268 676 L 203 579 L 141 517" fill="none" id="make-me-a-hanzi-animation-0" stroke-dasharray="416 832" stroke-linecap="round" />
    
      <clipPath id="make-me-a-hanzi-clip-1">
        <path d="M 281 458 Q 299 477 333 525 Q 367 571 401 599 Q 416 609 405 619 Q 395 629 363 644 Q 354 647 282 618 L 249 609 C 228 603 228 603 240 598 Q 255 586 315 600 Q 319 601 322 600 Q 326 596 321 586 Q 288 507 267 469 Q 261 459 259 452 C 248 424 261 436 281 458 Z" />
      </clipPath>
      <path clip-path="url(#make-me-a-hanzi-clip-1)" d="M 247 602 L 282 604 L 319 617 L 357 607 L 315 527 L 264 454" fill="none" id="make-me-a-hanzi-animation-1" stroke-dasharray="421 842" stroke-linecap="round" />
    
      <clipPath id="make-me-a-hanzi-clip-2">
        <path d="M 150 423 Q 140 427 115 432 Q 105 435 102 430 Q 98 426 104 412 Q 132 354 147 258 Q 150 230 166 210 Q 182 191 186 205 Q 189 215 189 232 L 187 250 Q 186 259 185 267 Q 166 364 162 395 C 158 420 158 420 150 423 Z" />
      </clipPath>
      <path clip-path="url(#make-me-a-hanzi-clip-2)" d="M 109 425 L 131 407 L 138 393 L 176 209" fill="none" id="make-me-a-hanzi-animation-2" stroke-dasharray="360 720" stroke-linecap="round" />
    
      <clipPath id="make-me-a-hanzi-clip-3">
        <path d="M 324 252 Q 337 236 350 230 Q 359 224 370 243 Q 380 262 400 374 Q 406 399 424 422 Q 434 432 424 444 Q 411 457 374 476 Q 362 482 298 463 Q 289 463 281 458 L 259 452 Q 235 449 150 423 C 121 414 134 385 162 395 Q 162 396 164 396 Q 192 406 233 416 L 260 424 Q 285 431 316 437 Q 338 441 345 435 Q 355 423 355 411 Q 340 290 326 279 C 316 261 316 261 324 252 Z" />
      </clipPath>
      <path clip-path="url(#make-me-a-hanzi-clip-3)" d="M 160 402 L 183 419 L 313 454 L 352 456 L 370 448 L 387 429 L 351 268 L 354 245" fill="none" id="make-me-a-hanzi-animation-3" stroke-dasharray="564 1128" stroke-linecap="round" />
    
      <clipPath id="make-me-a-hanzi-clip-4">
        <path d="M 278 330 Q 296 334 314 337 Q 332 341 325 350 Q 310 368 279 363 L 242 354 Q 217 347 197 338 Q 184 334 200 323 Q 203 322 243 325 L 278 330 Z" />
      </clipPath>
      <path clip-path="url(#make-me-a-hanzi-clip-4)" d="M 203 331 L 289 349 L 317 345" fill="none" id="make-me-a-hanzi-animation-4" stroke-dasharray="244 488" stroke-linecap="round" />
    
      <clipPath id="make-me-a-hanzi-clip-5">
        <path d="M 275 274 Q 276 304 278 330 L 279 363 Q 279 375 281 389 Q 285 407 260 424 C 236 442 220 443 233 416 Q 239 410 242 354 L 243 325 Q 243 301 245 266 C 247 236 274 244 275 274 Z" />
      </clipPath>
      <path clip-path="url(#make-me-a-hanzi-clip-5)" d="M 240 416 L 256 404 L 261 384 L 260 286 L 251 275" fill="none" id="make-me-a-hanzi-animation-5" stroke-dasharray="281 562" stroke-linecap="round" />
    
      <clipPath id="make-me-a-hanzi-clip-6">
        <path d="M 189 232 Q 193 231 204 232 Q 271 245 324 252 C 354 256 355 271 326 279 Q 325 280 323 280 Q 307 283 276 275 Q 275 275 275 274 C 269 272 269 272 245 266 Q 214 259 187 250 C 158 241 159 235 189 232 Z" />
      </clipPath>
      <path clip-path="url(#make-me-a-hanzi-clip-6)" d="M 197 237 L 200 243 L 310 265 L 322 272" fill="none" id="make-me-a-hanzi-animation-6" stroke-dasharray="261 522" stroke-linecap="round" />
    
      <clipPath id="make-me-a-hanzi-clip-7">
        <path d="M 74 118 Q 62 117 60 108 Q 59 96 67 88 Q 88 73 117 56 Q 127 53 137 60 Q 174 90 343 157 Q 368 167 385 180 Q 397 187 398 195 Q 394 199 381 198 Q 126 117 74 118 Z" />
      </clipPath>
      <path clip-path="url(#make-me-a-hanzi-clip-7)" d="M 73 105 L 123 91 L 393 193" fill="none" id="make-me-a-hanzi-animation-7" stroke-dasharray="469 938" stroke-linecap="round" />
    
      <clipPath id="make-me-a-hanzi-clip-8">
        <path d="M 573 373 Q 574 372 577 367 Q 596 339 615 362 Q 625 374 636 434 Q 639 524 665 563 Q 677 579 665 592 Q 649 605 622 620 Q 609 626 594 620 Q 539 595 473 578 C 444 570 460 547 489 556 Q 490 556 551 577 Q 584 587 596 582 Q 603 578 601 551 Q 594 476 586 413 Q 586 395 570 391 C 563 387 563 387 573 373 Z" />
      </clipPath>
      <path clip-path="url(#make-me-a-hanzi-clip-8)" d="M 481 576 L 493 570 L 605 602 L 617 596 L 634 574 L 617 492 L 609 408 L 598 380 L 580 388" fill="none" id="make-me-a-hanzi-animation-8" stroke-dasharray="517 1034" stroke-linecap="round" />
    
      <clipPath id="make-me-a-hanzi-clip-9">
        <path d="M 484 451 Q 484 452 487 452 Q 530 464 564 472 Q 582 478 574 486 Q 564 496 544 497 Q 505 497 484 476 C 462 455 456 442 484 451 Z" />
      </clipPath>
      <path clip-path="url(#make-me-a-hanzi-clip-9)" d="M 494 460 L 497 470 L 521 479 L 567 481" fill="none" id="make-me-a-hanzi-animation-9" stroke-dasharray="210 420" stroke-linecap="round" />
    
      <clipPath id="make-me-a-hanzi-clip-10">
        <path d="M 485 356 Q 509 365 573 373 C 589 375 589 375 570 391 Q 566 395 557 399 Q 547 405 485 382 C 457 372 457 346 485 356 Z" />
      </clipPath>
      <path clip-path="url(#make-me-a-hanzi-clip-10)" d="M 488 363 L 499 376 L 537 384 L 557 384 L 562 376" fill="none" id="make-me-a-hanzi-animation-10" stroke-dasharray="213 426" stroke-linecap="round" />
    
      <clipPath id="make-me-a-hanzi-clip-11">
        <path d="M 583 248 Q 577 247 486 183 Q 482 179 479 184 Q 483 277 485 356 L 485 382 Q 484 418 484 451 L 484 476 Q 485 515 489 556 C 490 567 490 567 473 578 Q 457 590 444 596 Q 428 602 420 597 Q 411 591 419 579 Q 464 494 440 218 Q 440 176 408 132 Q 399 119 407 100 Q 417 78 428 68 Q 440 62 449 77 Q 458 99 592 232 C 613 253 609 263 583 248 Z" />
      </clipPath>
      <path clip-path="url(#make-me-a-hanzi-clip-11)" d="M 427 588 L 454 562 L 462 538 L 467 349 L 456 176 L 462 151 L 490 160 L 578 230 L 583 243" fill="none" id="make-me-a-hanzi-animation-11" stroke-dasharray="735 1470" stroke-linecap="round" />
    
      <clipPath id="make-me-a-hanzi-clip-12">
        <path d="M 592 232 Q 616 184 628 180 Q 635 179 642 185 Q 648 194 649 215 Q 650 234 629 259 Q 578 307 564 306 Q 560 305 558 296 Q 558 284 583 248 L 592 232 Z" />
      </clipPath>
      <path clip-path="url(#make-me-a-hanzi-clip-12)" d="M 566 298 L 615 239 L 632 192" fill="none" id="make-me-a-hanzi-animation-12" stroke-dasharray="255 510" stroke-linecap="round" />
    
      <clipPath id="make-me-a-hanzi-clip-13">
        <path d="M 755 465 Q 755 466 757 466 Q 817 491 859 502 Q 869 503 871 501 Q 881 488 878 451 Q 874 349 853 304 Q 841 277 818 279 L 789 285 Q 767 292 783 271 Q 814 238 829 212 Q 848 194 863 212 Q 912 257 926 378 Q 930 486 945 508 Q 954 518 948 527 Q 939 534 896 549 Q 880 555 864 542 Q 846 527 752 497 C 723 488 727 453 755 465 Z" />
      </clipPath>
      <path clip-path="url(#make-me-a-hanzi-clip-13)" d="M 764 473 L 769 489 L 873 523 L 886 524 L 907 508 L 899 372 L 879 292 L 868 270 L 847 248 L 794 274" fill="none" id="make-me-a-hanzi-animation-13" stroke-dasharray="626 1252" stroke-linecap="round" />
    
      <clipPath id="make-me-a-hanzi-clip-14">
        <path d="M 696 -102 Q 700 -124 707 -133 Q 711 -140 719 -138 Q 731 -129 738 -76 Q 738 -67 744 188 Q 744 416 755 465 C 759 491 759 491 752 497 Q 730 519 704 522 Q 692 526 678 518 Q 671 511 676 502 Q 698 450 700 428 Q 701 292 694 77 Q 691 -56 696 -102 Z" />
      </clipPath>
      <path clip-path="url(#make-me-a-hanzi-clip-14)" d="M 686 509 L 721 478 L 725 442 L 715 -130" fill="none" id="make-me-a-hanzi-animation-14" stroke-dasharray="783 1566" stroke-linecap="round" />
    
  </g>
</svg>