<svg xmlns="http://www.w3.org/2000/svg" version="1.1" viewBox="0 0 1024 1024">
  <g stroke="lightgray" stroke-dasharray="1,1" stroke-width="1" transform="scale(4, 4)">
    <line x1="0" y1="0" x2="256" y2="256" />
    <line x1="256" y1="0" x2="0" y2="256" />
    <line x1="128" y1="0" x2="128" y2="256" />
    <line x1="0" y1="128" x2="256" y2="128" />
  </g>
  <g transform="scale(1.0, -1.0) translate(0.0, -834.50)">
    <style type="text/css">
      
        @keyframes keyframes0 {
          from {
            stroke: blue;
            stroke-dashoffset: 577;
            stroke-width: 128;
          }
          65% {
            animation-timing-function: step-end;
            stroke: blue;
            stroke-dashoffset: 0;
            stroke-width: 128;
          }
          to {
            stroke: black;
            stroke-width: 1024;
          }
        }
        #make-me-a-hanzi-animation-0 {
          animation: keyframes0 0.7195638020833334s both;
          animation-delay: 0s;
          animation-timing-function: linear;
        }
      
        @keyframes keyframes1 {
          from {
            stroke: blue;
            stroke-dashoffset: 578;
            stroke-width: 128;
          }
          65% {
            animation-timing-function: step-end;
            stroke: blue;
            stroke-dashoffset: 0;
            stroke-width: 128;
          }
          to {
            stroke: black;
            stroke-width: 1024;
          }
        }
        #make-me-a-hanzi-animation-1 {
          animation: keyframes1 0.7203776041666666s both;
          animation-delay: 0.7195638020833334s;
          animation-timing-function: linear;
        }
      
        @keyframes keyframes2 {
          from {
            stroke: blue;
            stroke-dashoffset: 505;
            stroke-width: 128;
          }
          62% {
            animation-timing-function: step-end;
            stroke: blue;
            stroke-dashoffset: 0;
            stroke-width: 128;
          }
          to {
            stroke: black;
            stroke-width: 1024;
          }
        }
        #make-me-a-hanzi-animation-2 {
          animation: keyframes2 0.6609700520833334s both;
          animation-delay: 1.43994140625s;
          animation-timing-function: linear;
        }
      
        @keyframes keyframes3 {
          from {
            stroke: blue;
            stroke-dashoffset: 768;
            stroke-width: 128;
          }
          71% {
            animation-timing-function: step-end;
            stroke: blue;
            stroke-dashoffset: 0;
            stroke-width: 128;
          }
          to {
            stroke: black;
            stroke-width: 1024;
          }
        }
        #make-me-a-hanzi-animation-3 {
          animation: keyframes3 0.875s both;
          animation-delay: 2.1009114583333335s;
          animation-timing-function: linear;
        }
      
        @keyframes keyframes4 {
          from {
            stroke: blue;
            stroke-dashoffset: 400;
            stroke-width: 128;
          }
          57% {
            animation-timing-function: step-end;
            stroke: blue;
            stroke-dashoffset: 0;
            stroke-width: 128;
          }
          to {
            stroke: black;
            stroke-width: 1024;
          }
        }
        #make-me-a-hanzi-animation-4 {
          animation: keyframes4 0.5755208333333334s both;
          animation-delay: 2.9759114583333335s;
          animation-timing-function: linear;
        }
      
        @keyframes keyframes5 {
          from {
            stroke: blue;
            stroke-dashoffset: 433;
            stroke-width: 128;
          }
          58% {
            animation-timing-function: step-end;
            stroke: blue;
            stroke-dashoffset: 0;
            stroke-width: 128;
          }
          to {
            stroke: black;
            stroke-width: 1024;
          }
        }
        #make-me-a-hanzi-animation-5 {
          animation: keyframes5 0.6023763020833334s both;
          animation-delay: 3.551432291666667s;
          animation-timing-function: linear;
        }
      
        @keyframes keyframes6 {
          from {
            stroke: blue;
            stroke-dashoffset: 405;
            stroke-width: 128;
          }
          57% {
            animation-timing-function: step-end;
            stroke: blue;
            stroke-dashoffset: 0;
            stroke-width: 128;
          }
          to {
            stroke: black;
            stroke-width: 1024;
          }
        }
        #make-me-a-hanzi-animation-6 {
          animation: keyframes6 0.57958984375s both;
          animation-delay: 4.15380859375s;
          animation-timing-function: linear;
        }
      
        @keyframes keyframes7 {
          from {
            stroke: blue;
            stroke-dashoffset: 559;
            stroke-width: 128;
          }
          65% {
            animation-timing-function: step-end;
            stroke: blue;
            stroke-dashoffset: 0;
            stroke-width: 128;
          }
          to {
            stroke: black;
            stroke-width: 1024;
          }
        }
        #make-me-a-hanzi-animation-7 {
          animation: keyframes7 0.7049153645833334s both;
          animation-delay: 4.7333984375s;
          animation-timing-function: linear;
        }
      
        @keyframes keyframes8 {
          from {
            stroke: blue;
            stroke-dashoffset: 463;
            stroke-width: 128;
          }
          60% {
            animation-timing-function: step-end;
            stroke: blue;
            stroke-dashoffset: 0;
            stroke-width: 128;
          }
          to {
            stroke: black;
            stroke-width: 1024;
          }
        }
        #make-me-a-hanzi-animation-8 {
          animation: keyframes8 0.6267903645833334s both;
          animation-delay: 5.438313802083333s;
          animation-timing-function: linear;
        }
      
        @keyframes keyframes9 {
          from {
            stroke: blue;
            stroke-dashoffset: 814;
            stroke-width: 128;
          }
          73% {
            animation-timing-function: step-end;
            stroke: blue;
            stroke-dashoffset: 0;
            stroke-width: 128;
          }
          to {
            stroke: black;
            stroke-width: 1024;
          }
        }
        #make-me-a-hanzi-animation-9 {
          animation: keyframes9 0.9124348958333334s both;
          animation-delay: 6.065104166666666s;
          animation-timing-function: linear;
        }
      
        @keyframes keyframes10 {
          from {
            stroke: blue;
            stroke-dashoffset: 391;
            stroke-width: 128;
          }
          56% {
            animation-timing-function: step-end;
            stroke: blue;
            stroke-dashoffset: 0;
            stroke-width: 128;
          }
          to {
            stroke: black;
            stroke-width: 1024;
          }
        }
        #make-me-a-hanzi-animation-10 {
          animation: keyframes10 0.5681966145833334s both;
          animation-delay: 6.977539062499999s;
          animation-timing-function: linear;
        }
      
        @keyframes keyframes11 {
          from {
            stroke: blue;
            stroke-dashoffset: 413;
            stroke-width: 128;
          }
          57% {
            animation-timing-function: step-end;
            stroke: blue;
            stroke-dashoffset: 0;
            stroke-width: 128;
          }
          to {
            stroke: black;
            stroke-width: 1024;
          }
        }
        #make-me-a-hanzi-animation-11 {
          animation: keyframes11 0.5861002604166666s both;
          animation-delay: 7.545735677083332s;
          animation-timing-function: linear;
        }
      
        @keyframes keyframes12 {
          from {
            stroke: blue;
            stroke-dashoffset: 461;
            stroke-width: 128;
          }
          60% {
            animation-timing-function: step-end;
            stroke: blue;
            stroke-dashoffset: 0;
            stroke-width: 128;
          }
          to {
            stroke: black;
            stroke-width: 1024;
          }
        }
        #make-me-a-hanzi-animation-12 {
          animation: keyframes12 0.6251627604166666s both;
          animation-delay: 8.131835937499998s;
          animation-timing-function: linear;
        }
      
        @keyframes keyframes13 {
          from {
            stroke: blue;
            stroke-dashoffset: 786;
            stroke-width: 128;
          }
          72% {
            animation-timing-function: step-end;
            stroke: blue;
            stroke-dashoffset: 0;
            stroke-width: 128;
          }
          to {
            stroke: black;
            stroke-width: 1024;
          }
        }
        #make-me-a-hanzi-animation-13 {
          animation: keyframes13 0.8896484375s both;
          animation-delay: 8.756998697916664s;
          animation-timing-function: linear;
        }
      
        @keyframes keyframes14 {
          from {
            stroke: blue;
            stroke-dashoffset: 431;
            stroke-width: 128;
          }
          58% {
            animation-timing-function: step-end;
            stroke: blue;
            stroke-dashoffset: 0;
            stroke-width: 128;
          }
          to {
            stroke: black;
            stroke-width: 1024;
          }
        }
        #make-me-a-hanzi-animation-14 {
          animation: keyframes14 0.6007486979166666s both;
          animation-delay: 9.646647135416664s;
          animation-timing-function: linear;
        }
      
        @keyframes keyframes15 {
          from {
            stroke: blue;
            stroke-dashoffset: 561;
            stroke-width: 128;
          }
          65% {
            animation-timing-function: step-end;
            stroke: blue;
            stroke-dashoffset: 0;
            stroke-width: 128;
          }
          to {
            stroke: black;
            stroke-width: 1024;
          }
        }
        #make-me-a-hanzi-animation-15 {
          animation: keyframes15 0.70654296875s both;
          animation-delay: 10.24739583333333s;
          animation-timing-function: linear;
        }
      
        @keyframes keyframes16 {
          from {
            stroke: blue;
            stroke-dashoffset: 399;
            stroke-width: 128;
          }
          56% {
            animation-timing-function: step-end;
            stroke: blue;
            stroke-dashoffset: 0;
            stroke-width: 128;
          }
          to {
            stroke: black;
            stroke-width: 1024;
          }
        }
        #make-me-a-hanzi-animation-16 {
          animation: keyframes16 0.57470703125s both;
          animation-delay: 10.95393880208333s;
          animation-timing-function: linear;
        }
      
        @keyframes keyframes17 {
          from {
            stroke: blue;
            stroke-dashoffset: 463;
            stroke-width: 128;
          }
          60% {
            animation-timing-function: step-end;
            stroke: blue;
            stroke-dashoffset: 0;
            stroke-width: 128;
          }
          to {
            stroke: black;
            stroke-width: 1024;
          }
        }
        #make-me-a-hanzi-animation-17 {
          animation: keyframes17 0.6267903645833334s both;
          animation-delay: 11.52864583333333s;
          animation-timing-function: linear;
        }
      
    </style>
    
      <path d="M 281 604 Q 333 677 349 690 Q 356 699 353 710 Q 350 720 328 740 Q 306 756 291 756 Q 275 755 281 737 Q 290 719 283 703 Q 261 651 229 603 Q 198 557 154 505 Q 147 498 144 492 Q 140 483 152 485 Q 191 491 265 585 L 281 604 Z" fill="lightgray" />
    
      <path d="M 310 440 Q 412 551 449 574 Q 467 583 456 596 Q 443 609 408 631 Q 392 638 378 629 Q 371 626 310 609 Q 297 606 281 604 C 251 600 238 598 265 585 Q 278 573 346 583 Q 353 584 354 583 Q 358 579 352 568 Q 307 481 276 433 C 260 408 290 418 310 440 Z" fill="lightgray" />
    
      <path d="M 163 407 Q 153 411 126 416 Q 116 419 112 414 Q 108 408 115 394 Q 146 331 164 229 Q 168 198 185 178 Q 201 159 206 173 L 208 185 L 208 215 Q 207 227 204 240 Q 180 349 176 381 C 173 404 173 404 163 407 Z" fill="lightgray" />
    
      <path d="M 354 207 Q 367 185 381 178 Q 390 172 402 189 Q 418 216 447 357 Q 454 382 473 403 Q 483 413 474 425 Q 461 438 426 460 Q 408 469 310 440 L 276 433 Q 260 430 243 426 Q 198 416 163 407 C 134 400 147 375 176 381 Q 180 381 188 383 Q 216 393 261 402 L 295 410 Q 382 432 397 421 Q 410 405 407 389 Q 379 245 365 231 C 353 208 353 208 354 207 Z" fill="lightgray" />
    
      <path d="M 307 310 Q 331 316 354 319 Q 373 323 365 334 Q 355 346 334 348 Q 324 349 308 346 L 269 334 L 213 315 Q 200 311 217 299 L 270 303 L 307 310 Z" fill="lightgray" />
    
      <path d="M 304 239 Q 305 278 307 310 L 308 346 Q 308 362 310 379 Q 314 394 295 410 C 273 430 253 431 261 402 Q 265 393 269 334 L 270 303 Q 270 275 272 230 C 273 200 303 209 304 239 Z" fill="lightgray" />
    
      <path d="M 208 185 Q 214 185 221 186 Q 264 198 354 207 C 384 210 388 212 365 231 Q 361 235 350 242 Q 335 249 309 241 Q 305 240 304 239 L 272 230 Q 236 223 208 215 C 179 207 178 184 208 185 Z" fill="lightgray" />
    
      <path d="M 111 82 Q 99 81 97 72 Q 96 60 103 52 Q 124 37 152 19 Q 162 15 173 23 Q 200 42 352 105 Q 374 112 389 124 Q 401 131 402 139 Q 398 143 386 142 Q 158 81 111 82 Z" fill="lightgray" />
    
      <path d="M 505 641 Q 499 642 494 643 Q 484 646 480 641 Q 476 635 483 621 Q 511 572 530 487 Q 534 462 549 446 Q 565 427 570 441 Q 571 445 572 452 L 571 478 Q 570 487 568 496 Q 547 593 544 615 C 541 635 535 636 505 641 Z" fill="lightgray" />
    
      <path d="M 777 478 Q 789 459 800 450 Q 809 443 824 460 Q 837 476 872 574 Q 882 601 904 621 Q 917 631 908 643 Q 895 659 860 685 Q 847 694 772 679 Q 757 679 630 660 Q 566 648 515 644 Q 508 644 505 641 C 476 635 515 607 544 615 Q 547 618 610 629 L 631 632 Q 665 639 711 645 L 753 650 Q 766 653 783 654 Q 816 658 826 647 Q 835 634 831 623 Q 800 514 784 506 C 770 488 770 488 777 478 Z" fill="lightgray" />
    
      <path d="M 656 492 Q 656 493 657 495 Q 660 544 634 627 Q 633 630 631 632 C 615 657 608 659 610 629 Q 620 506 639 488 C 652 473 652 473 656 492 Z" fill="lightgray" />
    
      <path d="M 728 508 Q 750 577 771 617 Q 780 627 772 635 Q 766 642 753 650 C 728 666 699 673 711 645 Q 726 617 701 511 Q 700 507 699 501 C 694 471 719 479 728 508 Z" fill="lightgray" />
    
      <path d="M 572 452 Q 579 452 589 453 Q 649 468 777 478 C 807 480 807 486 784 506 L 780 510 Q 767 517 728 508 L 699 501 Q 677 497 656 492 L 639 488 Q 602 484 571 478 C 542 472 542 451 572 452 Z" fill="lightgray" />
    
      <path d="M 639 415 Q 667 372 641 85 Q 626 -23 634 -47 Q 646 -95 672 -110 Q 684 -111 689 -99 Q 702 -66 698 -35 Q 695 305 707 383 Q 710 396 703 402 Q 679 423 660 432 Q 647 436 638 429 Q 632 425 639 415 Z" fill="lightgray" />
    
      <path d="M 521 347 Q 521 310 443 218 Q 427 205 448 210 Q 490 214 557 297 Q 573 318 581 327 Q 588 337 585 344 Q 581 354 560 358 Q 538 362 528 360 Q 522 357 521 347 Z" fill="lightgray" />
    
      <path d="M 539 222 Q 533 150 383 -5 Q 367 -20 389 -14 Q 468 8 564 148 Q 589 185 602 201 Q 609 211 607 220 Q 603 230 580 234 Q 555 240 546 236 Q 539 235 539 222 Z" fill="lightgray" />
    
      <path d="M 785 325 L 854 270 Q 867 260 880 260 Q 889 261 893 272 Q 897 285 888 311 Q 876 342 779 367 Q 766 368 760 367 Q 756 363 757 352 Q 761 342 785 325 Z" fill="lightgray" />
    
      <path d="M 766 187 Q 815 136 875 63 Q 888 44 902 39 Q 909 38 917 46 Q 929 58 920 98 Q 911 149 769 215 Q 762 221 759 209 Q 758 197 766 187 Z" fill="lightgray" />
    
    
      <clipPath id="make-me-a-hanzi-clip-0">
        <path d="M 281 604 Q 333 677 349 690 Q 356 699 353 710 Q 350 720 328 740 Q 306 756 291 756 Q 275 755 281 737 Q 290 719 283 703 Q 261 651 229 603 Q 198 557 154 505 Q 147 498 144 492 Q 140 483 152 485 Q 191 491 265 585 L 281 604 Z" />
      </clipPath>
      <path clip-path="url(#make-me-a-hanzi-clip-0)" d="M 290 744 L 309 726 L 317 705 L 303 678 L 231 570 L 176 510 L 151 492" fill="none" id="make-me-a-hanzi-animation-0" stroke-dasharray="449 898" stroke-linecap="round" />
    
      <clipPath id="make-me-a-hanzi-clip-1">
        <path d="M 310 440 Q 412 551 449 574 Q 467 583 456 596 Q 443 609 408 631 Q 392 638 378 629 Q 371 626 310 609 Q 297 606 281 604 C 251 600 238 598 265 585 Q 278 573 346 583 Q 353 584 354 583 Q 358 579 352 568 Q 307 481 276 433 C 260 408 290 418 310 440 Z" />
      </clipPath>
      <path clip-path="url(#make-me-a-hanzi-clip-1)" d="M 271 588 L 363 603 L 397 587 L 309 456 L 281 437" fill="none" id="make-me-a-hanzi-animation-1" stroke-dasharray="450 900" stroke-linecap="round" />
    
      <clipPath id="make-me-a-hanzi-clip-2">
        <path d="M 163 407 Q 153 411 126 416 Q 116 419 112 414 Q 108 408 115 394 Q 146 331 164 229 Q 168 198 185 178 Q 201 159 206 173 L 208 185 L 208 215 Q 207 227 204 240 Q 180 349 176 381 C 173 404 173 404 163 407 Z" />
      </clipPath>
      <path clip-path="url(#make-me-a-hanzi-clip-2)" d="M 120 409 L 146 386 L 154 364 L 196 178" fill="none" id="make-me-a-hanzi-animation-2" stroke-dasharray="377 754" stroke-linecap="round" />
    
      <clipPath id="make-me-a-hanzi-clip-3">
        <path d="M 354 207 Q 367 185 381 178 Q 390 172 402 189 Q 418 216 447 357 Q 454 382 473 403 Q 483 413 474 425 Q 461 438 426 460 Q 408 469 310 440 L 276 433 Q 260 430 243 426 Q 198 416 163 407 C 134 400 147 375 176 381 Q 180 381 188 383 Q 216 393 261 402 L 295 410 Q 382 432 397 421 Q 410 405 407 389 Q 379 245 365 231 C 353 208 353 208 354 207 Z" />
      </clipPath>
      <path clip-path="url(#make-me-a-hanzi-clip-3)" d="M 170 403 L 190 398 L 366 441 L 397 442 L 420 434 L 438 412 L 437 402 L 400 251 L 385 215 L 386 193" fill="none" id="make-me-a-hanzi-animation-3" stroke-dasharray="640 1280" stroke-linecap="round" />
    
      <clipPath id="make-me-a-hanzi-clip-4">
        <path d="M 307 310 Q 331 316 354 319 Q 373 323 365 334 Q 355 346 334 348 Q 324 349 308 346 L 269 334 L 213 315 Q 200 311 217 299 L 270 303 L 307 310 Z" />
      </clipPath>
      <path clip-path="url(#make-me-a-hanzi-clip-4)" d="M 216 307 L 317 331 L 357 328" fill="none" id="make-me-a-hanzi-animation-4" stroke-dasharray="272 544" stroke-linecap="round" />
    
      <clipPath id="make-me-a-hanzi-clip-5">
        <path d="M 304 239 Q 305 278 307 310 L 308 346 Q 308 362 310 379 Q 314 394 295 410 C 273 430 253 431 261 402 Q 265 393 269 334 L 270 303 Q 270 275 272 230 C 273 200 303 209 304 239 Z" />
      </clipPath>
      <path clip-path="url(#make-me-a-hanzi-clip-5)" d="M 267 401 L 282 390 L 288 376 L 289 262 L 285 246 L 275 239" fill="none" id="make-me-a-hanzi-animation-5" stroke-dasharray="305 610" stroke-linecap="round" />
    
      <clipPath id="make-me-a-hanzi-clip-6">
        <path d="M 208 185 Q 214 185 221 186 Q 264 198 354 207 C 384 210 388 212 365 231 Q 361 235 350 242 Q 335 249 309 241 Q 305 240 304 239 L 272 230 Q 236 223 208 215 C 179 207 178 184 208 185 Z" />
      </clipPath>
      <path clip-path="url(#make-me-a-hanzi-clip-6)" d="M 214 193 L 229 205 L 254 211 L 357 227" fill="none" id="make-me-a-hanzi-animation-6" stroke-dasharray="277 554" stroke-linecap="round" />
    
      <clipPath id="make-me-a-hanzi-clip-7">
        <path d="M 111 82 Q 99 81 97 72 Q 96 60 103 52 Q 124 37 152 19 Q 162 15 173 23 Q 200 42 352 105 Q 374 112 389 124 Q 401 131 402 139 Q 398 143 386 142 Q 158 81 111 82 Z" />
      </clipPath>
      <path clip-path="url(#make-me-a-hanzi-clip-7)" d="M 110 69 L 159 54 L 397 137" fill="none" id="make-me-a-hanzi-animation-7" stroke-dasharray="431 862" stroke-linecap="round" />
    
      <clipPath id="make-me-a-hanzi-clip-8">
        <path d="M 505 641 Q 499 642 494 643 Q 484 646 480 641 Q 476 635 483 621 Q 511 572 530 487 Q 534 462 549 446 Q 565 427 570 441 Q 571 445 572 452 L 571 478 Q 570 487 568 496 Q 547 593 544 615 C 541 635 535 636 505 641 Z" />
      </clipPath>
      <path clip-path="url(#make-me-a-hanzi-clip-8)" d="M 488 636 L 521 599 L 560 446" fill="none" id="make-me-a-hanzi-animation-8" stroke-dasharray="335 670" stroke-linecap="round" />
    
      <clipPath id="make-me-a-hanzi-clip-9">
        <path d="M 777 478 Q 789 459 800 450 Q 809 443 824 460 Q 837 476 872 574 Q 882 601 904 621 Q 917 631 908 643 Q 895 659 860 685 Q 847 694 772 679 Q 757 679 630 660 Q 566 648 515 644 Q 508 644 505 641 C 476 635 515 607 544 615 Q 547 618 610 629 L 631 632 Q 665 639 711 645 L 753 650 Q 766 653 783 654 Q 816 658 826 647 Q 835 634 831 623 Q 800 514 784 506 C 770 488 770 488 777 478 Z" />
      </clipPath>
      <path clip-path="url(#make-me-a-hanzi-clip-9)" d="M 512 637 L 522 640 L 544 631 L 786 670 L 825 670 L 848 662 L 867 634 L 809 490 L 807 464" fill="none" id="make-me-a-hanzi-animation-9" stroke-dasharray="686 1372" stroke-linecap="round" />
    
      <clipPath id="make-me-a-hanzi-clip-10">
        <path d="M 656 492 Q 656 493 657 495 Q 660 544 634 627 Q 633 630 631 632 C 615 657 608 659 610 629 Q 620 506 639 488 C 652 473 652 473 656 492 Z" />
      </clipPath>
      <path clip-path="url(#make-me-a-hanzi-clip-10)" d="M 627 626 L 631 571 L 644 503 L 651 495" fill="none" id="make-me-a-hanzi-animation-10" stroke-dasharray="263 526" stroke-linecap="round" />
    
      <clipPath id="make-me-a-hanzi-clip-11">
        <path d="M 728 508 Q 750 577 771 617 Q 780 627 772 635 Q 766 642 753 650 C 728 666 699 673 711 645 Q 726 617 701 511 Q 700 507 699 501 C 694 471 719 479 728 508 Z" />
      </clipPath>
      <path clip-path="url(#make-me-a-hanzi-clip-11)" d="M 718 644 L 743 622 L 722 537 L 706 505" fill="none" id="make-me-a-hanzi-animation-11" stroke-dasharray="285 570" stroke-linecap="round" />
    
      <clipPath id="make-me-a-hanzi-clip-12">
        <path d="M 572 452 Q 579 452 589 453 Q 649 468 777 478 C 807 480 807 486 784 506 L 780 510 Q 767 517 728 508 L 699 501 Q 677 497 656 492 L 639 488 Q 602 484 571 478 C 542 472 542 451 572 452 Z" />
      </clipPath>
      <path clip-path="url(#make-me-a-hanzi-clip-12)" d="M 576 459 L 591 468 L 762 494 L 775 501" fill="none" id="make-me-a-hanzi-animation-12" stroke-dasharray="333 666" stroke-linecap="round" />
    
      <clipPath id="make-me-a-hanzi-clip-13">
        <path d="M 639 415 Q 667 372 641 85 Q 626 -23 634 -47 Q 646 -95 672 -110 Q 684 -111 689 -99 Q 702 -66 698 -35 Q 695 305 707 383 Q 710 396 703 402 Q 679 423 660 432 Q 647 436 638 429 Q 632 425 639 415 Z" />
      </clipPath>
      <path clip-path="url(#make-me-a-hanzi-clip-13)" d="M 647 423 L 678 384 L 665 11 L 674 -96" fill="none" id="make-me-a-hanzi-animation-13" stroke-dasharray="658 1316" stroke-linecap="round" />
    
      <clipPath id="make-me-a-hanzi-clip-14">
        <path d="M 521 347 Q 521 310 443 218 Q 427 205 448 210 Q 490 214 557 297 Q 573 318 581 327 Q 588 337 585 344 Q 581 354 560 358 Q 538 362 528 360 Q 522 357 521 347 Z" />
      </clipPath>
      <path clip-path="url(#make-me-a-hanzi-clip-14)" d="M 572 339 L 549 332 L 498 257 L 452 218" fill="none" id="make-me-a-hanzi-animation-14" stroke-dasharray="303 606" stroke-linecap="round" />
    
      <clipPath id="make-me-a-hanzi-clip-15">
        <path d="M 539 222 Q 533 150 383 -5 Q 367 -20 389 -14 Q 468 8 564 148 Q 589 185 602 201 Q 609 211 607 220 Q 603 230 580 234 Q 555 240 546 236 Q 539 235 539 222 Z" />
      </clipPath>
      <path clip-path="url(#make-me-a-hanzi-clip-15)" d="M 594 216 L 566 203 L 540 152 L 482 74 L 430 22 L 392 -5" fill="none" id="make-me-a-hanzi-animation-15" stroke-dasharray="433 866" stroke-linecap="round" />
    
      <clipPath id="make-me-a-hanzi-clip-16">
        <path d="M 785 325 L 854 270 Q 867 260 880 260 Q 889 261 893 272 Q 897 285 888 311 Q 876 342 779 367 Q 766 368 760 367 Q 756 363 757 352 Q 761 342 785 325 Z" />
      </clipPath>
      <path clip-path="url(#make-me-a-hanzi-clip-16)" d="M 764 358 L 847 313 L 878 276" fill="none" id="make-me-a-hanzi-animation-16" stroke-dasharray="271 542" stroke-linecap="round" />
    
      <clipPath id="make-me-a-hanzi-clip-17">
        <path d="M 766 187 Q 815 136 875 63 Q 888 44 902 39 Q 909 38 917 46 Q 929 58 920 98 Q 911 149 769 215 Q 762 221 759 209 Q 758 197 766 187 Z" />
      </clipPath>
      <path clip-path="url(#make-me-a-hanzi-clip-17)" d="M 769 204 L 879 108 L 895 84 L 903 53" fill="none" id="make-me-a-hanzi-animation-17" stroke-dasharray="335 670" stroke-linecap="round" />
    
  </g>
</svg>