<svg xmlns="http://www.w3.org/2000/svg" version="1.1" viewBox="0 0 1024 1024">
  <g stroke="lightgray" stroke-dasharray="1,1" stroke-width="1" transform="scale(4, 4)">
    <line x1="0" y1="0" x2="256" y2="256" />
    <line x1="256" y1="0" x2="0" y2="256" />
    <line x1="128" y1="0" x2="128" y2="256" />
    <line x1="0" y1="128" x2="256" y2="128" />
  </g>
  <g transform="scale(1.0, -1.0) translate(0.0, -815.00)">
    <style type="text/css">
      
        @keyframes keyframes0 {
          from {
            stroke: blue;
            stroke-dashoffset: 567;
            stroke-width: 128;
          }
          65% {
            animation-timing-function: step-end;
            stroke: blue;
            stroke-dashoffset: 0;
            stroke-width: 128;
          }
          to {
            stroke: black;
            stroke-width: 1024;
          }
        }
        #make-me-a-hanzi-animation-0 {
          animation: keyframes0 0.71142578125s both;
          animation-delay: 0s;
          animation-timing-function: linear;
        }
      
        @keyframes keyframes1 {
          from {
            stroke: blue;
            stroke-dashoffset: 524;
            stroke-width: 128;
          }
          63% {
            animation-timing-function: step-end;
            stroke: blue;
            stroke-dashoffset: 0;
            stroke-width: 128;
          }
          to {
            stroke: black;
            stroke-width: 1024;
          }
        }
        #make-me-a-hanzi-animation-1 {
          animation: keyframes1 0.6764322916666666s both;
          animation-delay: 0.71142578125s;
          animation-timing-function: linear;
        }
      
        @keyframes keyframes2 {
          from {
            stroke: blue;
            stroke-dashoffset: 513;
            stroke-width: 128;
          }
          63% {
            animation-timing-function: step-end;
            stroke: blue;
            stroke-dashoffset: 0;
            stroke-width: 128;
          }
          to {
            stroke: black;
            stroke-width: 1024;
          }
        }
        #make-me-a-hanzi-animation-2 {
          animation: keyframes2 0.66748046875s both;
          animation-delay: 1.3878580729166665s;
          animation-timing-function: linear;
        }
      
        @keyframes keyframes3 {
          from {
            stroke: blue;
            stroke-dashoffset: 762;
            stroke-width: 128;
          }
          71% {
            animation-timing-function: step-end;
            stroke: blue;
            stroke-dashoffset: 0;
            stroke-width: 128;
          }
          to {
            stroke: black;
            stroke-width: 1024;
          }
        }
        #make-me-a-hanzi-animation-3 {
          animation: keyframes3 0.8701171875s both;
          animation-delay: 2.0553385416666665s;
          animation-timing-function: linear;
        }
      
        @keyframes keyframes4 {
          from {
            stroke: blue;
            stroke-dashoffset: 385;
            stroke-width: 128;
          }
          56% {
            animation-timing-function: step-end;
            stroke: blue;
            stroke-dashoffset: 0;
            stroke-width: 128;
          }
          to {
            stroke: black;
            stroke-width: 1024;
          }
        }
        #make-me-a-hanzi-animation-4 {
          animation: keyframes4 0.5633138020833334s both;
          animation-delay: 2.9254557291666665s;
          animation-timing-function: linear;
        }
      
        @keyframes keyframes5 {
          from {
            stroke: blue;
            stroke-dashoffset: 455;
            stroke-width: 128;
          }
          60% {
            animation-timing-function: step-end;
            stroke: blue;
            stroke-dashoffset: 0;
            stroke-width: 128;
          }
          to {
            stroke: black;
            stroke-width: 1024;
          }
        }
        #make-me-a-hanzi-animation-5 {
          animation: keyframes5 0.6202799479166666s both;
          animation-delay: 3.48876953125s;
          animation-timing-function: linear;
        }
      
        @keyframes keyframes6 {
          from {
            stroke: blue;
            stroke-dashoffset: 400;
            stroke-width: 128;
          }
          57% {
            animation-timing-function: step-end;
            stroke: blue;
            stroke-dashoffset: 0;
            stroke-width: 128;
          }
          to {
            stroke: black;
            stroke-width: 1024;
          }
        }
        #make-me-a-hanzi-animation-6 {
          animation: keyframes6 0.5755208333333334s both;
          animation-delay: 4.109049479166667s;
          animation-timing-function: linear;
        }
      
        @keyframes keyframes7 {
          from {
            stroke: blue;
            stroke-dashoffset: 614;
            stroke-width: 128;
          }
          67% {
            animation-timing-function: step-end;
            stroke: blue;
            stroke-dashoffset: 0;
            stroke-width: 128;
          }
          to {
            stroke: black;
            stroke-width: 1024;
          }
        }
        #make-me-a-hanzi-animation-7 {
          animation: keyframes7 0.7496744791666666s both;
          animation-delay: 4.6845703125s;
          animation-timing-function: linear;
        }
      
        @keyframes keyframes8 {
          from {
            stroke: blue;
            stroke-dashoffset: 461;
            stroke-width: 128;
          }
          60% {
            animation-timing-function: step-end;
            stroke: blue;
            stroke-dashoffset: 0;
            stroke-width: 128;
          }
          to {
            stroke: black;
            stroke-width: 1024;
          }
        }
        #make-me-a-hanzi-animation-8 {
          animation: keyframes8 0.6251627604166666s both;
          animation-delay: 5.434244791666667s;
          animation-timing-function: linear;
        }
      
        @keyframes keyframes9 {
          from {
            stroke: blue;
            stroke-dashoffset: 526;
            stroke-width: 128;
          }
          63% {
            animation-timing-function: step-end;
            stroke: blue;
            stroke-dashoffset: 0;
            stroke-width: 128;
          }
          to {
            stroke: black;
            stroke-width: 1024;
          }
        }
        #make-me-a-hanzi-animation-9 {
          animation: keyframes9 0.6780598958333334s both;
          animation-delay: 6.059407552083334s;
          animation-timing-function: linear;
        }
      
        @keyframes keyframes10 {
          from {
            stroke: blue;
            stroke-dashoffset: 706;
            stroke-width: 128;
          }
          70% {
            animation-timing-function: step-end;
            stroke: blue;
            stroke-dashoffset: 0;
            stroke-width: 128;
          }
          to {
            stroke: black;
            stroke-width: 1024;
          }
        }
        #make-me-a-hanzi-animation-10 {
          animation: keyframes10 0.8245442708333334s both;
          animation-delay: 6.737467447916667s;
          animation-timing-function: linear;
        }
      
        @keyframes keyframes11 {
          from {
            stroke: blue;
            stroke-dashoffset: 865;
            stroke-width: 128;
          }
          74% {
            animation-timing-function: step-end;
            stroke: blue;
            stroke-dashoffset: 0;
            stroke-width: 128;
          }
          to {
            stroke: black;
            stroke-width: 1024;
          }
        }
        #make-me-a-hanzi-animation-11 {
          animation: keyframes11 0.9539388020833334s both;
          animation-delay: 7.56201171875s;
          animation-timing-function: linear;
        }
      
        @keyframes keyframes12 {
          from {
            stroke: blue;
            stroke-dashoffset: 431;
            stroke-width: 128;
          }
          58% {
            animation-timing-function: step-end;
            stroke: blue;
            stroke-dashoffset: 0;
            stroke-width: 128;
          }
          to {
            stroke: black;
            stroke-width: 1024;
          }
        }
        #make-me-a-hanzi-animation-12 {
          animation: keyframes12 0.6007486979166666s both;
          animation-delay: 8.515950520833334s;
          animation-timing-function: linear;
        }
      
        @keyframes keyframes13 {
          from {
            stroke: blue;
            stroke-dashoffset: 693;
            stroke-width: 128;
          }
          69% {
            animation-timing-function: step-end;
            stroke: blue;
            stroke-dashoffset: 0;
            stroke-width: 128;
          }
          to {
            stroke: black;
            stroke-width: 1024;
          }
        }
        #make-me-a-hanzi-animation-13 {
          animation: keyframes13 0.81396484375s both;
          animation-delay: 9.11669921875s;
          animation-timing-function: linear;
        }
      
        @keyframes keyframes14 {
          from {
            stroke: blue;
            stroke-dashoffset: 526;
            stroke-width: 128;
          }
          63% {
            animation-timing-function: step-end;
            stroke: blue;
            stroke-dashoffset: 0;
            stroke-width: 128;
          }
          to {
            stroke: black;
            stroke-width: 1024;
          }
        }
        #make-me-a-hanzi-animation-14 {
          animation: keyframes14 0.6780598958333334s both;
          animation-delay: 9.9306640625s;
          animation-timing-function: linear;
        }
      
        @keyframes keyframes15 {
          from {
            stroke: blue;
            stroke-dashoffset: 760;
            stroke-width: 128;
          }
          71% {
            animation-timing-function: step-end;
            stroke: blue;
            stroke-dashoffset: 0;
            stroke-width: 128;
          }
          to {
            stroke: black;
            stroke-width: 1024;
          }
        }
        #make-me-a-hanzi-animation-15 {
          animation: keyframes15 0.8684895833333334s both;
          animation-delay: 10.608723958333334s;
          animation-timing-function: linear;
        }
      
        @keyframes keyframes16 {
          from {
            stroke: blue;
            stroke-dashoffset: 382;
            stroke-width: 128;
          }
          55% {
            animation-timing-function: step-end;
            stroke: blue;
            stroke-dashoffset: 0;
            stroke-width: 128;
          }
          to {
            stroke: black;
            stroke-width: 1024;
          }
        }
        #make-me-a-hanzi-animation-16 {
          animation: keyframes16 0.5608723958333334s both;
          animation-delay: 11.477213541666668s;
          animation-timing-function: linear;
        }
      
        @keyframes keyframes17 {
          from {
            stroke: blue;
            stroke-dashoffset: 418;
            stroke-width: 128;
          }
          58% {
            animation-timing-function: step-end;
            stroke: blue;
            stroke-dashoffset: 0;
            stroke-width: 128;
          }
          to {
            stroke: black;
            stroke-width: 1024;
          }
        }
        #make-me-a-hanzi-animation-17 {
          animation: keyframes17 0.5901692708333334s both;
          animation-delay: 12.038085937500002s;
          animation-timing-function: linear;
        }
      
    </style>
    
      <path d="M 284 586 Q 330 655 341 662 Q 348 671 346 682 Q 342 692 320 712 Q 298 728 283 728 Q 267 727 274 708 Q 295 657 154 481 Q 145 474 144 468 Q 140 459 152 461 Q 179 464 258 555 L 284 586 Z" fill="lightgray" />
    
      <path d="M 316 453 Q 332 471 362 511 Q 390 553 421 576 Q 436 586 425 596 Q 412 606 381 620 Q 366 624 355 615 Q 348 611 284 586 C 256 575 228 551 258 555 Q 268 555 332 573 Q 339 574 342 573 Q 346 570 342 562 Q 317 495 301 462 Q 297 455 295 448 C 284 420 296 430 316 453 Z" fill="lightgray" />
    
      <path d="M 158 414 Q 148 418 135 420 Q 123 424 121 419 Q 115 413 122 399 Q 150 332 166 225 Q 167 192 186 171 Q 201 150 206 165 Q 207 172 209 180 L 210 200 Q 209 216 207 235 Q 185 361 183 389 C 181 406 181 406 158 414 Z" fill="lightgray" />
    
      <path d="M 346 203 Q 362 181 378 174 Q 387 168 398 187 Q 411 215 429 367 Q 435 392 453 415 Q 463 425 453 437 Q 440 450 402 469 Q 386 476 373 470 Q 352 463 322 455 Q 318 455 316 453 L 295 448 Q 265 442 236 434 Q 193 421 158 415 Q 157 415 158 414 C 129 407 154 381 183 389 Q 186 389 192 391 Q 217 400 254 409 L 282 415 Q 363 436 373 427 Q 388 411 386 394 Q 373 258 359 229 C 349 201 343 206 346 203 Z" fill="lightgray" />
    
      <path d="M 303 309 Q 325 315 346 317 Q 364 321 357 330 Q 348 340 329 344 Q 317 345 304 342 L 265 331 L 213 314 Q 200 310 216 299 L 266 303 L 303 309 Z" fill="lightgray" />
    
      <path d="M 300 225 Q 301 271 303 309 L 304 342 Q 304 360 306 379 Q 310 392 304 399 Q 294 409 282 415 C 256 430 241 436 254 409 Q 255 405 260 399 Q 261 393 265 331 L 266 303 Q 266 269 268 215 C 269 185 299 195 300 225 Z" fill="lightgray" />
    
      <path d="M 209 180 Q 213 179 221 180 Q 291 195 346 203 C 376 207 387 217 359 229 Q 358 230 351 232 Q 335 235 304 226 Q 303 226 300 225 L 268 215 Q 237 208 210 200 C 181 192 179 183 209 180 Z" fill="lightgray" />
    
      <path d="M 85 68 Q 72 67 70 58 Q 67 45 76 37 Q 95 21 126 0 Q 136 -4 148 4 L 416 116 Q 429 123 430 131 Q 426 137 413 135 Q 143 63 85 68 Z" fill="lightgray" />
    
      <path d="M 651 568 Q 673 575 700 580 Q 724 586 728 589 Q 735 596 731 603 Q 724 612 701 617 Q 677 621 655 612 L 608 596 L 526 582 Q 496 576 518 564 Q 548 549 608 559 L 651 568 Z" fill="lightgray" />
    
      <path d="M 643 490 L 651 568 L 655 612 Q 656 651 666 689 Q 675 716 658 732 Q 630 748 608 752 Q 595 755 588 748 Q 581 741 588 729 Q 604 707 604 692 Q 607 646 608 596 L 608 559 Q 608 522 607 482 C 606 452 640 460 643 490 Z" fill="lightgray" />
    
      <path d="M 702 468 Q 715 471 901 487 Q 917 488 921 496 Q 925 506 910 516 Q 865 546 806 528 Q 775 521 737 510 L 676 496 Q 673 497 671 496 Q 658 495 643 490 L 607 482 L 469 455 Q 453 452 465 439 Q 493 418 530 429 Q 581 447 643 457 L 702 468 Z" fill="lightgray" />
    
      <path d="M 600 358 Q 666 425 702 468 L 737 510 L 782 572 Q 813 618 831 640 Q 838 649 833 663 Q 821 690 807 702 Q 795 714 780 715 Q 765 716 769 697 Q 781 639 703 533 Q 690 517 676 496 L 643 457 Q 598 414 586 395 L 563 373 Q 502 315 432 258 Q 425 254 425 248 Q 424 244 429 243 Q 459 243 551 316 Q 551 319 565 327 L 600 358 Z" fill="lightgray" />
    
      <path d="M 594 309 Q 642 322 671 334 Q 731 359 752 361 Q 768 362 765 377 Q 761 390 746 405 Q 733 418 724 420 Q 715 421 715 412 Q 712 391 595 323 C 569 308 565 301 594 309 Z" fill="lightgray" />
    
      <path d="M 595 323 Q 596 339 600 358 C 605 385 605 385 586 395 Q 582 399 575 401 Q 566 404 561 400 Q 557 399 560 386 Q 561 380 563 373 L 565 327 Q 562 267 587 246 Q 638 201 761 224 Q 765 225 770 226 Q 798 233 824 254 Q 837 263 830 281 Q 823 300 813 354 Q 814 366 808 369 Q 804 372 800 360 Q 775 302 761 285 Q 751 276 726 269 Q 669 254 621 271 Q 603 278 599 289 Q 595 296 594 309 L 595 323 Z" fill="lightgray" />
    
      <path d="M 562 161 Q 544 179 517 176 Q 507 172 512 162 Q 551 84 517 -27 Q 501 -43 521 -86 Q 524 -92 530 -98 Q 537 -108 545 -104 Q 551 -98 556 -85 L 565 -53 Q 568 -35 569 32 L 569 58 Q 569 116 570 134 C 571 154 571 154 562 161 Z" fill="lightgray" />
    
      <path d="M 705 -71 Q 730 -104 748 -134 Q 755 -149 765 -148 Q 778 -147 792 -120 Q 808 -87 805 -48 Q 801 4 795 102 Q 794 127 808 146 Q 815 156 808 166 Q 792 182 749 202 Q 734 209 721 203 Q 679 185 562 161 C 533 155 540 130 570 134 Q 606 138 708 160 Q 727 164 737 156 Q 744 150 745 -39 Q 744 -42 744 -45 Q 740 -61 724 -54 C 694 -55 693 -55 705 -71 Z" fill="lightgray" />
    
      <path d="M 569 32 L 574 32 Q 640 44 688 50 Q 709 54 701 65 Q 691 78 669 82 Q 638 85 569 58 C 541 47 539 32 569 32 Z" fill="lightgray" />
    
      <path d="M 556 -85 Q 559 -85 565 -84 Q 610 -75 705 -71 C 735 -70 744 -69 724 -54 Q 717 -48 706 -43 Q 700 -39 698 -37 Q 685 -30 657 -35 Q 605 -47 565 -53 C 535 -58 526 -88 556 -85 Z" fill="lightgray" />
    
    
      <clipPath id="make-me-a-hanzi-clip-0">
        <path d="M 284 586 Q 330 655 341 662 Q 348 671 346 682 Q 342 692 320 712 Q 298 728 283 728 Q 267 727 274 708 Q 295 657 154 481 Q 145 474 144 468 Q 140 459 152 461 Q 179 464 258 555 L 284 586 Z" />
      </clipPath>
      <path clip-path="url(#make-me-a-hanzi-clip-0)" d="M 283 716 L 301 697 L 308 676 L 295 648 L 237 557 L 184 496 L 151 468" fill="none" id="make-me-a-hanzi-animation-0" stroke-dasharray="439 878" stroke-linecap="round" />
    
      <clipPath id="make-me-a-hanzi-clip-1">
        <path d="M 316 453 Q 332 471 362 511 Q 390 553 421 576 Q 436 586 425 596 Q 412 606 381 620 Q 366 624 355 615 Q 348 611 284 586 C 256 575 228 551 258 555 Q 268 555 332 573 Q 339 574 342 573 Q 346 570 342 562 Q 317 495 301 462 Q 297 455 295 448 C 284 420 296 430 316 453 Z" />
      </clipPath>
      <path clip-path="url(#make-me-a-hanzi-clip-1)" d="M 269 560 L 300 580 L 339 591 L 376 584 L 326 485 L 309 459 L 299 455" fill="none" id="make-me-a-hanzi-animation-1" stroke-dasharray="396 792" stroke-linecap="round" />
    
      <clipPath id="make-me-a-hanzi-clip-2">
        <path d="M 158 414 Q 148 418 135 420 Q 123 424 121 419 Q 115 413 122 399 Q 150 332 166 225 Q 167 192 186 171 Q 201 150 206 165 Q 207 172 209 180 L 210 200 Q 209 216 207 235 Q 185 361 183 389 C 181 406 181 406 158 414 Z" />
      </clipPath>
      <path clip-path="url(#make-me-a-hanzi-clip-2)" d="M 129 412 L 158 375 L 182 267 L 196 169" fill="none" id="make-me-a-hanzi-animation-2" stroke-dasharray="385 770" stroke-linecap="round" />
    
      <clipPath id="make-me-a-hanzi-clip-3">
        <path d="M 346 203 Q 362 181 378 174 Q 387 168 398 187 Q 411 215 429 367 Q 435 392 453 415 Q 463 425 453 437 Q 440 450 402 469 Q 386 476 373 470 Q 352 463 322 455 Q 318 455 316 453 L 295 448 Q 265 442 236 434 Q 193 421 158 415 Q 157 415 158 414 C 129 407 154 381 183 389 Q 186 389 192 391 Q 217 400 254 409 L 282 415 Q 363 436 373 427 Q 388 411 386 394 Q 373 258 359 229 C 349 201 343 206 346 203 Z" />
      </clipPath>
      <path clip-path="url(#make-me-a-hanzi-clip-3)" d="M 164 415 L 187 406 L 374 449 L 389 447 L 411 429 L 416 422 L 398 292 L 377 207 L 382 189" fill="none" id="make-me-a-hanzi-animation-3" stroke-dasharray="634 1268" stroke-linecap="round" />
    
      <clipPath id="make-me-a-hanzi-clip-4">
        <path d="M 303 309 Q 325 315 346 317 Q 364 321 357 330 Q 348 340 329 344 Q 317 345 304 342 L 265 331 L 213 314 Q 200 310 216 299 L 266 303 L 303 309 Z" />
      </clipPath>
      <path clip-path="url(#make-me-a-hanzi-clip-4)" d="M 222 308 L 313 328 L 349 325" fill="none" id="make-me-a-hanzi-animation-4" stroke-dasharray="257 514" stroke-linecap="round" />
    
      <clipPath id="make-me-a-hanzi-clip-5">
        <path d="M 300 225 Q 301 271 303 309 L 304 342 Q 304 360 306 379 Q 310 392 304 399 Q 294 409 282 415 C 256 430 241 436 254 409 Q 255 405 260 399 Q 261 393 265 331 L 266 303 Q 266 269 268 215 C 269 185 299 195 300 225 Z" />
      </clipPath>
      <path clip-path="url(#make-me-a-hanzi-clip-5)" d="M 262 407 L 279 397 L 284 387 L 285 248 L 280 231 L 271 224" fill="none" id="make-me-a-hanzi-animation-5" stroke-dasharray="327 654" stroke-linecap="round" />
    
      <clipPath id="make-me-a-hanzi-clip-6">
        <path d="M 209 180 Q 213 179 221 180 Q 291 195 346 203 C 376 207 387 217 359 229 Q 358 230 351 232 Q 335 235 304 226 Q 303 226 300 225 L 268 215 Q 237 208 210 200 C 181 192 179 183 209 180 Z" />
      </clipPath>
      <path clip-path="url(#make-me-a-hanzi-clip-6)" d="M 215 185 L 234 196 L 353 224" fill="none" id="make-me-a-hanzi-animation-6" stroke-dasharray="272 544" stroke-linecap="round" />
    
      <clipPath id="make-me-a-hanzi-clip-7">
        <path d="M 85 68 Q 72 67 70 58 Q 67 45 76 37 Q 95 21 126 0 Q 136 -4 148 4 L 416 116 Q 429 123 430 131 Q 426 137 413 135 Q 143 63 85 68 Z" />
      </clipPath>
      <path clip-path="url(#make-me-a-hanzi-clip-7)" d="M 84 54 L 135 36 L 424 129" fill="none" id="make-me-a-hanzi-animation-7" stroke-dasharray="486 972" stroke-linecap="round" />
    
      <clipPath id="make-me-a-hanzi-clip-8">
        <path d="M 651 568 Q 673 575 700 580 Q 724 586 728 589 Q 735 596 731 603 Q 724 612 701 617 Q 677 621 655 612 L 608 596 L 526 582 Q 496 576 518 564 Q 548 549 608 559 L 651 568 Z" />
      </clipPath>
      <path clip-path="url(#make-me-a-hanzi-clip-8)" d="M 519 574 L 596 574 L 680 598 L 721 598" fill="none" id="make-me-a-hanzi-animation-8" stroke-dasharray="333 666" stroke-linecap="round" />
    
      <clipPath id="make-me-a-hanzi-clip-9">
        <path d="M 643 490 L 651 568 L 655 612 Q 656 651 666 689 Q 675 716 658 732 Q 630 748 608 752 Q 595 755 588 748 Q 581 741 588 729 Q 604 707 604 692 Q 607 646 608 596 L 608 559 Q 608 522 607 482 C 606 452 640 460 643 490 Z" />
      </clipPath>
      <path clip-path="url(#make-me-a-hanzi-clip-9)" d="M 598 739 L 618 726 L 636 703 L 627 515 L 612 490" fill="none" id="make-me-a-hanzi-animation-9" stroke-dasharray="398 796" stroke-linecap="round" />
    
      <clipPath id="make-me-a-hanzi-clip-10">
        <path d="M 702 468 Q 715 471 901 487 Q 917 488 921 496 Q 925 506 910 516 Q 865 546 806 528 Q 775 521 737 510 L 676 496 Q 673 497 671 496 Q 658 495 643 490 L 607 482 L 469 455 Q 453 452 465 439 Q 493 418 530 429 Q 581 447 643 457 L 702 468 Z" />
      </clipPath>
      <path clip-path="url(#make-me-a-hanzi-clip-10)" d="M 468 447 L 519 445 L 654 477 L 820 506 L 870 509 L 911 500" fill="none" id="make-me-a-hanzi-animation-10" stroke-dasharray="578 1156" stroke-linecap="round" />
    
      <clipPath id="make-me-a-hanzi-clip-11">
        <path d="M 600 358 Q 666 425 702 468 L 737 510 L 782 572 Q 813 618 831 640 Q 838 649 833 663 Q 821 690 807 702 Q 795 714 780 715 Q 765 716 769 697 Q 781 639 703 533 Q 690 517 676 496 L 643 457 Q 598 414 586 395 L 563 373 Q 502 315 432 258 Q 425 254 425 248 Q 424 244 429 243 Q 459 243 551 316 Q 551 319 565 327 L 600 358 Z" />
      </clipPath>
      <path clip-path="url(#make-me-a-hanzi-clip-11)" d="M 779 704 L 790 692 L 800 653 L 760 579 L 709 507 L 593 376 L 514 305 L 432 249" fill="none" id="make-me-a-hanzi-animation-11" stroke-dasharray="737 1474" stroke-linecap="round" />
    
      <clipPath id="make-me-a-hanzi-clip-12">
        <path d="M 594 309 Q 642 322 671 334 Q 731 359 752 361 Q 768 362 765 377 Q 761 390 746 405 Q 733 418 724 420 Q 715 421 715 412 Q 712 391 595 323 C 569 308 565 301 594 309 Z" />
      </clipPath>
      <path clip-path="url(#make-me-a-hanzi-clip-12)" d="M 754 373 L 729 384 L 628 329 L 608 327 L 601 316" fill="none" id="make-me-a-hanzi-animation-12" stroke-dasharray="303 606" stroke-linecap="round" />
    
      <clipPath id="make-me-a-hanzi-clip-13">
        <path d="M 595 323 Q 596 339 600 358 C 605 385 605 385 586 395 Q 582 399 575 401 Q 566 404 561 400 Q 557 399 560 386 Q 561 380 563 373 L 565 327 Q 562 267 587 246 Q 638 201 761 224 Q 765 225 770 226 Q 798 233 824 254 Q 837 263 830 281 Q 823 300 813 354 Q 814 366 808 369 Q 804 372 800 360 Q 775 302 761 285 Q 751 276 726 269 Q 669 254 621 271 Q 603 278 599 289 Q 595 296 594 309 L 595 323 Z" />
      </clipPath>
      <path clip-path="url(#make-me-a-hanzi-clip-13)" d="M 569 392 L 582 358 L 579 317 L 587 276 L 612 252 L 659 240 L 723 243 L 779 260 L 796 275 L 806 342 L 802 348 L 808 361" fill="none" id="make-me-a-hanzi-animation-13" stroke-dasharray="565 1130" stroke-linecap="round" />
    
      <clipPath id="make-me-a-hanzi-clip-14">
        <path d="M 562 161 Q 544 179 517 176 Q 507 172 512 162 Q 551 84 517 -27 Q 501 -43 521 -86 Q 524 -92 530 -98 Q 537 -108 545 -104 Q 551 -98 556 -85 L 565 -53 Q 568 -35 569 32 L 569 58 Q 569 116 570 134 C 571 154 571 154 562 161 Z" />
      </clipPath>
      <path clip-path="url(#make-me-a-hanzi-clip-14)" d="M 525 165 L 543 148 L 552 89 L 548 2 L 536 -69 L 541 -95" fill="none" id="make-me-a-hanzi-animation-14" stroke-dasharray="398 796" stroke-linecap="round" />
    
      <clipPath id="make-me-a-hanzi-clip-15">
        <path d="M 705 -71 Q 730 -104 748 -134 Q 755 -149 765 -148 Q 778 -147 792 -120 Q 808 -87 805 -48 Q 801 4 795 102 Q 794 127 808 146 Q 815 156 808 166 Q 792 182 749 202 Q 734 209 721 203 Q 679 185 562 161 C 533 155 540 130 570 134 Q 606 138 708 160 Q 727 164 737 156 Q 744 150 745 -39 Q 744 -42 744 -45 Q 740 -61 724 -54 C 694 -55 693 -55 705 -71 Z" />
      </clipPath>
      <path clip-path="url(#make-me-a-hanzi-clip-15)" d="M 573 142 L 595 154 L 732 183 L 747 178 L 769 157 L 774 -57 L 763 -85 L 764 -134" fill="none" id="make-me-a-hanzi-animation-15" stroke-dasharray="632 1264" stroke-linecap="round" />
    
      <clipPath id="make-me-a-hanzi-clip-16">
        <path d="M 569 32 L 574 32 Q 640 44 688 50 Q 709 54 701 65 Q 691 78 669 82 Q 638 85 569 58 C 541 47 539 32 569 32 Z" />
      </clipPath>
      <path clip-path="url(#make-me-a-hanzi-clip-16)" d="M 572 39 L 584 50 L 632 61 L 672 65 L 692 60" fill="none" id="make-me-a-hanzi-animation-16" stroke-dasharray="254 508" stroke-linecap="round" />
    
      <clipPath id="make-me-a-hanzi-clip-17">
        <path d="M 556 -85 Q 559 -85 565 -84 Q 610 -75 705 -71 C 735 -70 744 -69 724 -54 Q 717 -48 706 -43 Q 700 -39 698 -37 Q 685 -30 657 -35 Q 605 -47 565 -53 C 535 -58 526 -88 556 -85 Z" />
      </clipPath>
      <path clip-path="url(#make-me-a-hanzi-clip-17)" d="M 560 -80 L 588 -64 L 680 -52 L 717 -56" fill="none" id="make-me-a-hanzi-animation-17" stroke-dasharray="290 580" stroke-linecap="round" />
    
  </g>
</svg>