<svg xmlns="http://www.w3.org/2000/svg" version="1.1" viewBox="0 0 1024 1024">
  <g stroke="lightgray" stroke-dasharray="1,1" stroke-width="1" transform="scale(4, 4)">
    <line x1="0" y1="0" x2="256" y2="256" />
    <line x1="256" y1="0" x2="0" y2="256" />
    <line x1="128" y1="0" x2="128" y2="256" />
    <line x1="0" y1="128" x2="256" y2="128" />
  </g>
  <g transform="scale(1.0, -1.0) translate(0.0, -837.00)">
    <style type="text/css">
      
        @keyframes keyframes0 {
          from {
            stroke: blue;
            stroke-dashoffset: 565;
            stroke-width: 128;
          }
          65% {
            animation-timing-function: step-end;
            stroke: blue;
            stroke-dashoffset: 0;
            stroke-width: 128;
          }
          to {
            stroke: black;
            stroke-width: 1024;
          }
        }
        #make-me-a-hanzi-animation-0 {
          animation: keyframes0 0.7097981770833334s both;
          animation-delay: 0s;
          animation-timing-function: linear;
        }
      
        @keyframes keyframes1 {
          from {
            stroke: blue;
            stroke-dashoffset: 561;
            stroke-width: 128;
          }
          65% {
            animation-timing-function: step-end;
            stroke: blue;
            stroke-dashoffset: 0;
            stroke-width: 128;
          }
          to {
            stroke: black;
            stroke-width: 1024;
          }
        }
        #make-me-a-hanzi-animation-1 {
          animation: keyframes1 0.70654296875s both;
          animation-delay: 0.7097981770833334s;
          animation-timing-function: linear;
        }
      
        @keyframes keyframes2 {
          from {
            stroke: blue;
            stroke-dashoffset: 499;
            stroke-width: 128;
          }
          62% {
            animation-timing-function: step-end;
            stroke: blue;
            stroke-dashoffset: 0;
            stroke-width: 128;
          }
          to {
            stroke: black;
            stroke-width: 1024;
          }
        }
        #make-me-a-hanzi-animation-2 {
          animation: keyframes2 0.6560872395833334s both;
          animation-delay: 1.4163411458333335s;
          animation-timing-function: linear;
        }
      
        @keyframes keyframes3 {
          from {
            stroke: blue;
            stroke-dashoffset: 765;
            stroke-width: 128;
          }
          71% {
            animation-timing-function: step-end;
            stroke: blue;
            stroke-dashoffset: 0;
            stroke-width: 128;
          }
          to {
            stroke: black;
            stroke-width: 1024;
          }
        }
        #make-me-a-hanzi-animation-3 {
          animation: keyframes3 0.87255859375s both;
          animation-delay: 2.072428385416667s;
          animation-timing-function: linear;
        }
      
        @keyframes keyframes4 {
          from {
            stroke: blue;
            stroke-dashoffset: 389;
            stroke-width: 128;
          }
          56% {
            animation-timing-function: step-end;
            stroke: blue;
            stroke-dashoffset: 0;
            stroke-width: 128;
          }
          to {
            stroke: black;
            stroke-width: 1024;
          }
        }
        #make-me-a-hanzi-animation-4 {
          animation: keyframes4 0.5665690104166666s both;
          animation-delay: 2.944986979166667s;
          animation-timing-function: linear;
        }
      
        @keyframes keyframes5 {
          from {
            stroke: blue;
            stroke-dashoffset: 437;
            stroke-width: 128;
          }
          59% {
            animation-timing-function: step-end;
            stroke: blue;
            stroke-dashoffset: 0;
            stroke-width: 128;
          }
          to {
            stroke: black;
            stroke-width: 1024;
          }
        }
        #make-me-a-hanzi-animation-5 {
          animation: keyframes5 0.6056315104166666s both;
          animation-delay: 3.5115559895833335s;
          animation-timing-function: linear;
        }
      
        @keyframes keyframes6 {
          from {
            stroke: blue;
            stroke-dashoffset: 409;
            stroke-width: 128;
          }
          57% {
            animation-timing-function: step-end;
            stroke: blue;
            stroke-dashoffset: 0;
            stroke-width: 128;
          }
          to {
            stroke: black;
            stroke-width: 1024;
          }
        }
        #make-me-a-hanzi-animation-6 {
          animation: keyframes6 0.5828450520833334s both;
          animation-delay: 4.1171875s;
          animation-timing-function: linear;
        }
      
        @keyframes keyframes7 {
          from {
            stroke: blue;
            stroke-dashoffset: 597;
            stroke-width: 128;
          }
          66% {
            animation-timing-function: step-end;
            stroke: blue;
            stroke-dashoffset: 0;
            stroke-width: 128;
          }
          to {
            stroke: black;
            stroke-width: 1024;
          }
        }
        #make-me-a-hanzi-animation-7 {
          animation: keyframes7 0.73583984375s both;
          animation-delay: 4.700032552083333s;
          animation-timing-function: linear;
        }
      
        @keyframes keyframes8 {
          from {
            stroke: blue;
            stroke-dashoffset: 358;
            stroke-width: 128;
          }
          54% {
            animation-timing-function: step-end;
            stroke: blue;
            stroke-dashoffset: 0;
            stroke-width: 128;
          }
          to {
            stroke: black;
            stroke-width: 1024;
          }
        }
        #make-me-a-hanzi-animation-8 {
          animation: keyframes8 0.5413411458333334s both;
          animation-delay: 5.435872395833333s;
          animation-timing-function: linear;
        }
      
        @keyframes keyframes9 {
          from {
            stroke: blue;
            stroke-dashoffset: 425;
            stroke-width: 128;
          }
          58% {
            animation-timing-function: step-end;
            stroke: blue;
            stroke-dashoffset: 0;
            stroke-width: 128;
          }
          to {
            stroke: black;
            stroke-width: 1024;
          }
        }
        #make-me-a-hanzi-animation-9 {
          animation: keyframes9 0.5958658854166666s both;
          animation-delay: 5.977213541666666s;
          animation-timing-function: linear;
        }
      
        @keyframes keyframes10 {
          from {
            stroke: blue;
            stroke-dashoffset: 592;
            stroke-width: 128;
          }
          66% {
            animation-timing-function: step-end;
            stroke: blue;
            stroke-dashoffset: 0;
            stroke-width: 128;
          }
          to {
            stroke: black;
            stroke-width: 1024;
          }
        }
        #make-me-a-hanzi-animation-10 {
          animation: keyframes10 0.7317708333333334s both;
          animation-delay: 6.573079427083333s;
          animation-timing-function: linear;
        }
      
        @keyframes keyframes11 {
          from {
            stroke: blue;
            stroke-dashoffset: 509;
            stroke-width: 128;
          }
          62% {
            animation-timing-function: step-end;
            stroke: blue;
            stroke-dashoffset: 0;
            stroke-width: 128;
          }
          to {
            stroke: black;
            stroke-width: 1024;
          }
        }
        #make-me-a-hanzi-animation-11 {
          animation: keyframes11 0.6642252604166666s both;
          animation-delay: 7.304850260416666s;
          animation-timing-function: linear;
        }
      
        @keyframes keyframes12 {
          from {
            stroke: blue;
            stroke-dashoffset: 598;
            stroke-width: 128;
          }
          66% {
            animation-timing-function: step-end;
            stroke: blue;
            stroke-dashoffset: 0;
            stroke-width: 128;
          }
          to {
            stroke: black;
            stroke-width: 1024;
          }
        }
        #make-me-a-hanzi-animation-12 {
          animation: keyframes12 0.7366536458333334s both;
          animation-delay: 7.969075520833333s;
          animation-timing-function: linear;
        }
      
        @keyframes keyframes13 {
          from {
            stroke: blue;
            stroke-dashoffset: 611;
            stroke-width: 128;
          }
          67% {
            animation-timing-function: step-end;
            stroke: blue;
            stroke-dashoffset: 0;
            stroke-width: 128;
          }
          to {
            stroke: black;
            stroke-width: 1024;
          }
        }
        #make-me-a-hanzi-animation-13 {
          animation: keyframes13 0.7472330729166666s both;
          animation-delay: 8.705729166666666s;
          animation-timing-function: linear;
        }
      
        @keyframes keyframes14 {
          from {
            stroke: blue;
            stroke-dashoffset: 332;
            stroke-width: 128;
          }
          52% {
            animation-timing-function: step-end;
            stroke: blue;
            stroke-dashoffset: 0;
            stroke-width: 128;
          }
          to {
            stroke: black;
            stroke-width: 1024;
          }
        }
        #make-me-a-hanzi-animation-14 {
          animation: keyframes14 0.5201822916666666s both;
          animation-delay: 9.452962239583332s;
          animation-timing-function: linear;
        }
      
        @keyframes keyframes15 {
          from {
            stroke: blue;
            stroke-dashoffset: 407;
            stroke-width: 128;
          }
          57% {
            animation-timing-function: step-end;
            stroke: blue;
            stroke-dashoffset: 0;
            stroke-width: 128;
          }
          to {
            stroke: black;
            stroke-width: 1024;
          }
        }
        #make-me-a-hanzi-animation-15 {
          animation: keyframes15 0.5812174479166666s both;
          animation-delay: 9.973144531249998s;
          animation-timing-function: linear;
        }
      
        @keyframes keyframes16 {
          from {
            stroke: blue;
            stroke-dashoffset: 779;
            stroke-width: 128;
          }
          72% {
            animation-timing-function: step-end;
            stroke: blue;
            stroke-dashoffset: 0;
            stroke-width: 128;
          }
          to {
            stroke: black;
            stroke-width: 1024;
          }
        }
        #make-me-a-hanzi-animation-16 {
          animation: keyframes16 0.8839518229166666s both;
          animation-delay: 10.554361979166664s;
          animation-timing-function: linear;
        }
      
        @keyframes keyframes17 {
          from {
            stroke: blue;
            stroke-dashoffset: 471;
            stroke-width: 128;
          }
          61% {
            animation-timing-function: step-end;
            stroke: blue;
            stroke-dashoffset: 0;
            stroke-width: 128;
          }
          to {
            stroke: black;
            stroke-width: 1024;
          }
        }
        #make-me-a-hanzi-animation-17 {
          animation: keyframes17 0.63330078125s both;
          animation-delay: 11.43831380208333s;
          animation-timing-function: linear;
        }
      
        @keyframes keyframes18 {
          from {
            stroke: blue;
            stroke-dashoffset: 647;
            stroke-width: 128;
          }
          68% {
            animation-timing-function: step-end;
            stroke: blue;
            stroke-dashoffset: 0;
            stroke-width: 128;
          }
          to {
            stroke: black;
            stroke-width: 1024;
          }
        }
        #make-me-a-hanzi-animation-18 {
          animation: keyframes18 0.7765299479166666s both;
          animation-delay: 12.07161458333333s;
          animation-timing-function: linear;
        }
      
        @keyframes keyframes19 {
          from {
            stroke: blue;
            stroke-dashoffset: 501;
            stroke-width: 128;
          }
          62% {
            animation-timing-function: step-end;
            stroke: blue;
            stroke-dashoffset: 0;
            stroke-width: 128;
          }
          to {
            stroke: black;
            stroke-width: 1024;
          }
        }
        #make-me-a-hanzi-animation-19 {
          animation: keyframes19 0.65771484375s both;
          animation-delay: 12.848144531249996s;
          animation-timing-function: linear;
        }
      
    </style>
    
      <path d="M 268 596 Q 334 690 335 693 Q 334 696 334 698 Q 331 708 308 728 Q 286 743 270 743 Q 255 742 262 724 Q 269 706 264 691 Q 245 640 215 593 Q 185 547 146 497 Q 137 490 135 484 Q 132 475 144 477 Q 165 480 256 580 L 268 596 Z" fill="lightgray" />
    
      <path d="M 322 455 Q 416 576 436 591 Q 451 601 440 612 Q 427 622 393 639 Q 378 643 366 633 Q 359 629 300 606 Q 285 600 268 596 C 239 589 234 587 256 580 Q 268 570 343 589 Q 350 590 352 589 Q 356 586 351 576 Q 320 497 299 458 Q 296 454 294 449 C 280 423 304 431 322 455 Z" fill="lightgray" />
    
      <path d="M 149 411 Q 142 414 126 416 Q 116 419 112 414 Q 108 408 115 394 Q 143 333 161 232 Q 164 202 181 182 Q 197 163 202 177 Q 203 184 205 193 L 205 213 Q 204 226 201 243 Q 179 363 176 388 C 174 403 174 403 149 411 Z" fill="lightgray" />
    
      <path d="M 352 223 Q 367 201 381 194 Q 390 188 402 206 Q 415 231 438 370 Q 445 395 463 417 Q 473 427 463 439 Q 450 452 414 472 Q 398 479 385 474 Q 361 465 327 457 Q 324 457 322 455 L 294 449 Q 263 443 230 433 Q 185 420 149 411 C 120 404 148 378 176 388 Q 207 400 255 411 L 282 418 Q 312 427 352 434 Q 377 440 385 432 Q 398 416 396 401 Q 378 269 363 247 C 352 223 352 223 352 223 Z" fill="lightgray" />
    
      <path d="M 308 318 Q 327 322 350 325 Q 368 329 361 338 Q 352 348 333 352 Q 323 353 309 350 L 268 339 L 213 322 Q 200 318 216 307 L 269 311 L 308 318 Z" fill="lightgray" />
    
      <path d="M 305 244 Q 306 284 308 318 L 309 350 Q 309 362 311 376 Q 315 389 309 397 Q 296 410 282 418 C 256 434 246 440 255 411 Q 264 383 268 339 L 269 311 Q 269 280 271 233 C 272 203 304 214 305 244 Z" fill="lightgray" />
    
      <path d="M 205 193 Q 209 193 218 194 Q 293 212 352 223 C 381 229 390 234 363 247 Q 359 250 350 251 Q 334 252 305 244 L 271 233 Q 234 223 205 213 C 177 203 175 192 205 193 Z" fill="lightgray" />
    
      <path d="M 89 70 Q 76 69 74 59 Q 71 46 79 38 Q 101 20 132 0 Q 142 -4 155 4 L 404 112 Q 417 119 418 127 Q 414 133 401 132 Q 149 66 89 70 Z" fill="lightgray" />
    
      <path d="M 554 668 Q 570 652 586 633 Q 598 621 611 621 Q 621 621 625 633 Q 629 646 623 671 Q 619 684 597 696 Q 543 714 532 711 Q 528 707 528 696 Q 531 686 554 668 Z" fill="lightgray" />
    
      <path d="M 749 736 Q 734 705 689 645 Q 682 629 696 633 Q 735 658 756 674 Q 807 716 824 725 Q 842 735 832 749 Q 819 764 796 774 Q 774 784 763 782 Q 753 781 757 769 Q 761 753 749 736 Z" fill="lightgray" />
    
      <path d="M 665 549 Q 839 583 846 588 Q 853 595 850 602 Q 844 612 820 619 Q 799 625 694 595 Q 604 576 517 567 Q 486 563 507 548 Q 537 532 611 540 Q 615 541 622 541 L 665 549 Z" fill="lightgray" />
    
      <path d="M 689 442 Q 725 449 764 455 Q 797 461 802 465 Q 809 472 806 478 Q 800 488 777 495 Q 752 501 691 481 L 638 470 Q 598 464 552 461 Q 522 458 543 443 Q 576 422 623 432 Q 629 433 639 434 L 689 442 Z" fill="lightgray" />
    
      <path d="M 686 342 Q 734 351 832 358 Q 841 357 848 367 Q 849 376 832 385 Q 805 404 715 381 Q 702 380 689 376 Q 688 376 687 375 L 639 367 Q 608 364 580 361 Q 544 360 504 355 Q 482 354 498 338 Q 525 319 564 324 Q 597 330 639 336 L 686 342 Z" fill="lightgray" />
    
      <path d="M 682 203 Q 683 278 686 342 L 687 375 Q 687 409 689 442 L 691 481 Q 695 523 690 528 Q 677 541 665 549 C 641 567 610 568 622 541 Q 637 511 638 470 L 639 434 L 639 367 L 639 336 L 639 197 C 639 167 682 173 682 203 Z" fill="lightgray" />
    
      <path d="M 499 270 Q 526 212 550 205 Q 562 201 571 216 Q 575 228 570 248 Q 558 275 508 293 Q 499 297 497 286 Q 494 279 499 270 Z" fill="lightgray" />
    
      <path d="M 759 217 Q 819 262 850 277 Q 866 281 862 292 Q 838 335 800 338 Q 787 337 788 320 Q 792 299 735 220 Q 732 216 732 212 C 727 193 735 199 759 217 Z" fill="lightgray" />
    
      <path d="M 732 212 Q 707 209 682 203 L 639 197 L 431 169 Q 412 166 426 151 Q 439 138 456 133 Q 475 129 491 133 Q 653 179 932 179 Q 951 179 955 187 Q 959 197 945 211 Q 894 250 830 232 Q 797 226 759 217 L 732 212 Z" fill="lightgray" />
    
      <path d="M 542 87 Q 530 91 505 97 Q 492 101 489 95 Q 482 89 491 73 Q 516 19 530 -68 Q 533 -95 548 -112 Q 566 -134 571 -119 Q 577 -104 575 -79 L 570 -46 Q 560 36 559 59 C 558 82 558 82 542 87 Z" fill="lightgray" />
    
      <path d="M 802 -27 Q 827 51 854 67 Q 870 85 856 101 Q 840 114 791 137 Q 773 144 753 136 Q 665 105 542 87 C 512 83 530 53 559 59 Q 565 60 734 93 Q 755 97 763 89 Q 770 82 770 65 Q 763 19 753 -19 C 746 -48 793 -55 802 -27 Z" fill="lightgray" />
    
      <path d="M 575 -79 Q 582 -80 591 -79 Q 661 -67 814 -62 Q 824 -61 826 -52 Q 827 -45 802 -27 L 753 -19 L 751 -19 Q 651 -38 570 -46 C 540 -49 545 -77 575 -79 Z" fill="lightgray" />
    
    
      <clipPath id="make-me-a-hanzi-clip-0">
        <path d="M 268 596 Q 334 690 335 693 Q 334 696 334 698 Q 331 708 308 728 Q 286 743 270 743 Q 255 742 262 724 Q 269 706 264 691 Q 245 640 215 593 Q 185 547 146 497 Q 137 490 135 484 Q 132 475 144 477 Q 165 480 256 580 L 268 596 Z" />
      </clipPath>
      <path clip-path="url(#make-me-a-hanzi-clip-0)" d="M 270 732 L 295 701 L 290 677 L 234 582 L 142 484" fill="none" id="make-me-a-hanzi-animation-0" stroke-dasharray="437 874" stroke-linecap="round" />
    
      <clipPath id="make-me-a-hanzi-clip-1">
        <path d="M 322 455 Q 416 576 436 591 Q 451 601 440 612 Q 427 622 393 639 Q 378 643 366 633 Q 359 629 300 606 Q 285 600 268 596 C 239 589 234 587 256 580 Q 268 570 343 589 Q 350 590 352 589 Q 356 586 351 576 Q 320 497 299 458 Q 296 454 294 449 C 280 423 304 431 322 455 Z" />
      </clipPath>
      <path clip-path="url(#make-me-a-hanzi-clip-1)" d="M 261 583 L 352 608 L 389 598 L 322 470 L 301 451" fill="none" id="make-me-a-hanzi-animation-1" stroke-dasharray="433 866" stroke-linecap="round" />
    
      <clipPath id="make-me-a-hanzi-clip-2">
        <path d="M 149 411 Q 142 414 126 416 Q 116 419 112 414 Q 108 408 115 394 Q 143 333 161 232 Q 164 202 181 182 Q 197 163 202 177 Q 203 184 205 193 L 205 213 Q 204 226 201 243 Q 179 363 176 388 C 174 403 174 403 149 411 Z" />
      </clipPath>
      <path clip-path="url(#make-me-a-hanzi-clip-2)" d="M 120 409 L 140 391 L 154 365 L 192 182" fill="none" id="make-me-a-hanzi-animation-2" stroke-dasharray="371 742" stroke-linecap="round" />
    
      <clipPath id="make-me-a-hanzi-clip-3">
        <path d="M 352 223 Q 367 201 381 194 Q 390 188 402 206 Q 415 231 438 370 Q 445 395 463 417 Q 473 427 463 439 Q 450 452 414 472 Q 398 479 385 474 Q 361 465 327 457 Q 324 457 322 455 L 294 449 Q 263 443 230 433 Q 185 420 149 411 C 120 404 148 378 176 388 Q 207 400 255 411 L 282 418 Q 312 427 352 434 Q 377 440 385 432 Q 398 416 396 401 Q 378 269 363 247 C 352 223 352 223 352 223 Z" />
      </clipPath>
      <path clip-path="url(#make-me-a-hanzi-clip-3)" d="M 156 410 L 179 404 L 304 439 L 385 454 L 411 442 L 427 425 L 426 415 L 403 297 L 382 226 L 386 210" fill="none" id="make-me-a-hanzi-animation-3" stroke-dasharray="637 1274" stroke-linecap="round" />
    
      <clipPath id="make-me-a-hanzi-clip-4">
        <path d="M 308 318 Q 327 322 350 325 Q 368 329 361 338 Q 352 348 333 352 Q 323 353 309 350 L 268 339 L 213 322 Q 200 318 216 307 L 269 311 L 308 318 Z" />
      </clipPath>
      <path clip-path="url(#make-me-a-hanzi-clip-4)" d="M 222 316 L 318 336 L 353 333" fill="none" id="make-me-a-hanzi-animation-4" stroke-dasharray="261 522" stroke-linecap="round" />
    
      <clipPath id="make-me-a-hanzi-clip-5">
        <path d="M 305 244 Q 306 284 308 318 L 309 350 Q 309 362 311 376 Q 315 389 309 397 Q 296 410 282 418 C 256 434 246 440 255 411 Q 264 383 268 339 L 269 311 Q 269 280 271 233 C 272 203 304 214 305 244 Z" />
      </clipPath>
      <path clip-path="url(#make-me-a-hanzi-clip-5)" d="M 263 407 L 283 392 L 288 372 L 289 268 L 284 250 L 274 242" fill="none" id="make-me-a-hanzi-animation-5" stroke-dasharray="309 618" stroke-linecap="round" />
    
      <clipPath id="make-me-a-hanzi-clip-6">
        <path d="M 205 193 Q 209 193 218 194 Q 293 212 352 223 C 381 229 390 234 363 247 Q 359 250 350 251 Q 334 252 305 244 L 271 233 Q 234 223 205 213 C 177 203 175 192 205 193 Z" />
      </clipPath>
      <path clip-path="url(#make-me-a-hanzi-clip-6)" d="M 211 198 L 216 205 L 355 243" fill="none" id="make-me-a-hanzi-animation-6" stroke-dasharray="281 562" stroke-linecap="round" />
    
      <clipPath id="make-me-a-hanzi-clip-7">
        <path d="M 89 70 Q 76 69 74 59 Q 71 46 79 38 Q 101 20 132 0 Q 142 -4 155 4 L 404 112 Q 417 119 418 127 Q 414 133 401 132 Q 149 66 89 70 Z" />
      </clipPath>
      <path clip-path="url(#make-me-a-hanzi-clip-7)" d="M 88 56 L 141 37 L 412 125" fill="none" id="make-me-a-hanzi-animation-7" stroke-dasharray="469 938" stroke-linecap="round" />
    
      <clipPath id="make-me-a-hanzi-clip-8">
        <path d="M 554 668 Q 570 652 586 633 Q 598 621 611 621 Q 621 621 625 633 Q 629 646 623 671 Q 619 684 597 696 Q 543 714 532 711 Q 528 707 528 696 Q 531 686 554 668 Z" />
      </clipPath>
      <path clip-path="url(#make-me-a-hanzi-clip-8)" d="M 536 702 L 590 669 L 611 636" fill="none" id="make-me-a-hanzi-animation-8" stroke-dasharray="230 460" stroke-linecap="round" />
    
      <clipPath id="make-me-a-hanzi-clip-9">
        <path d="M 749 736 Q 734 705 689 645 Q 682 629 696 633 Q 735 658 756 674 Q 807 716 824 725 Q 842 735 832 749 Q 819 764 796 774 Q 774 784 763 782 Q 753 781 757 769 Q 761 753 749 736 Z" />
      </clipPath>
      <path clip-path="url(#make-me-a-hanzi-clip-9)" d="M 767 772 L 788 742 L 700 643" fill="none" id="make-me-a-hanzi-animation-9" stroke-dasharray="297 594" stroke-linecap="round" />
    
      <clipPath id="make-me-a-hanzi-clip-10">
        <path d="M 665 549 Q 839 583 846 588 Q 853 595 850 602 Q 844 612 820 619 Q 799 625 694 595 Q 604 576 517 567 Q 486 563 507 548 Q 537 532 611 540 Q 615 541 622 541 L 665 549 Z" />
      </clipPath>
      <path clip-path="url(#make-me-a-hanzi-clip-10)" d="M 510 559 L 549 553 L 599 557 L 810 600 L 841 597" fill="none" id="make-me-a-hanzi-animation-10" stroke-dasharray="464 928" stroke-linecap="round" />
    
      <clipPath id="make-me-a-hanzi-clip-11">
        <path d="M 689 442 Q 725 449 764 455 Q 797 461 802 465 Q 809 472 806 478 Q 800 488 777 495 Q 752 501 691 481 L 638 470 Q 598 464 552 461 Q 522 458 543 443 Q 576 422 623 432 Q 629 433 639 434 L 689 442 Z" />
      </clipPath>
      <path clip-path="url(#make-me-a-hanzi-clip-11)" d="M 545 453 L 600 446 L 762 476 L 795 474" fill="none" id="make-me-a-hanzi-animation-11" stroke-dasharray="381 762" stroke-linecap="round" />
    
      <clipPath id="make-me-a-hanzi-clip-12">
        <path d="M 686 342 Q 734 351 832 358 Q 841 357 848 367 Q 849 376 832 385 Q 805 404 715 381 Q 702 380 689 376 Q 688 376 687 375 L 639 367 Q 608 364 580 361 Q 544 360 504 355 Q 482 354 498 338 Q 525 319 564 324 Q 597 330 639 336 L 686 342 Z" />
      </clipPath>
      <path clip-path="url(#make-me-a-hanzi-clip-12)" d="M 500 347 L 555 341 L 750 371 L 806 375 L 839 369" fill="none" id="make-me-a-hanzi-animation-12" stroke-dasharray="470 940" stroke-linecap="round" />
    
      <clipPath id="make-me-a-hanzi-clip-13">
        <path d="M 682 203 Q 683 278 686 342 L 687 375 Q 687 409 689 442 L 691 481 Q 695 523 690 528 Q 677 541 665 549 C 641 567 610 568 622 541 Q 637 511 638 470 L 639 434 L 639 367 L 639 336 L 639 197 C 639 167 682 173 682 203 Z" />
      </clipPath>
      <path clip-path="url(#make-me-a-hanzi-clip-13)" d="M 630 537 L 660 519 L 665 495 L 661 228 L 645 205" fill="none" id="make-me-a-hanzi-animation-13" stroke-dasharray="483 966" stroke-linecap="round" />
    
      <clipPath id="make-me-a-hanzi-clip-14">
        <path d="M 499 270 Q 526 212 550 205 Q 562 201 571 216 Q 575 228 570 248 Q 558 275 508 293 Q 499 297 497 286 Q 494 279 499 270 Z" />
      </clipPath>
      <path clip-path="url(#make-me-a-hanzi-clip-14)" d="M 508 281 L 546 240 L 555 222" fill="none" id="make-me-a-hanzi-animation-14" stroke-dasharray="204 408" stroke-linecap="round" />
    
      <clipPath id="make-me-a-hanzi-clip-15">
        <path d="M 759 217 Q 819 262 850 277 Q 866 281 862 292 Q 838 335 800 338 Q 787 337 788 320 Q 792 299 735 220 Q 732 216 732 212 C 727 193 735 199 759 217 Z" />
      </clipPath>
      <path clip-path="url(#make-me-a-hanzi-clip-15)" d="M 851 289 L 818 296 L 761 232 L 745 227 L 739 214" fill="none" id="make-me-a-hanzi-animation-15" stroke-dasharray="279 558" stroke-linecap="round" />
    
      <clipPath id="make-me-a-hanzi-clip-16">
        <path d="M 732 212 Q 707 209 682 203 L 639 197 L 431 169 Q 412 166 426 151 Q 439 138 456 133 Q 475 129 491 133 Q 653 179 932 179 Q 951 179 955 187 Q 959 197 945 211 Q 894 250 830 232 Q 797 226 759 217 L 732 212 Z" />
      </clipPath>
      <path clip-path="url(#make-me-a-hanzi-clip-16)" d="M 429 160 L 465 152 L 604 176 L 857 208 L 915 203 L 945 192" fill="none" id="make-me-a-hanzi-animation-16" stroke-dasharray="651 1302" stroke-linecap="round" />
    
      <clipPath id="make-me-a-hanzi-clip-17">
        <path d="M 542 87 Q 530 91 505 97 Q 492 101 489 95 Q 482 89 491 73 Q 516 19 530 -68 Q 533 -95 548 -112 Q 566 -134 571 -119 Q 577 -104 575 -79 L 570 -46 Q 560 36 559 59 C 558 82 558 82 542 87 Z" />
      </clipPath>
      <path clip-path="url(#make-me-a-hanzi-clip-17)" d="M 498 87 L 531 51 L 560 -113" fill="none" id="make-me-a-hanzi-animation-17" stroke-dasharray="343 686" stroke-linecap="round" />
    
      <clipPath id="make-me-a-hanzi-clip-18">
        <path d="M 802 -27 Q 827 51 854 67 Q 870 85 856 101 Q 840 114 791 137 Q 773 144 753 136 Q 665 105 542 87 C 512 83 530 53 559 59 Q 565 60 734 93 Q 755 97 763 89 Q 770 82 770 65 Q 763 19 753 -19 C 746 -48 793 -55 802 -27 Z" />
      </clipPath>
      <path clip-path="url(#make-me-a-hanzi-clip-18)" d="M 551 86 L 559 78 L 574 77 L 753 115 L 778 112 L 809 82 L 785 2 L 760 -14" fill="none" id="make-me-a-hanzi-animation-18" stroke-dasharray="519 1038" stroke-linecap="round" />
    
      <clipPath id="make-me-a-hanzi-clip-19">
        <path d="M 575 -79 Q 582 -80 591 -79 Q 661 -67 814 -62 Q 824 -61 826 -52 Q 827 -45 802 -27 L 753 -19 L 751 -19 Q 651 -38 570 -46 C 540 -49 545 -77 575 -79 Z" />
      </clipPath>
      <path clip-path="url(#make-me-a-hanzi-clip-19)" d="M 577 -51 L 592 -61 L 747 -42 L 793 -44 L 816 -52" fill="none" id="make-me-a-hanzi-animation-19" stroke-dasharray="373 746" stroke-linecap="round" />
    
  </g>
</svg>