<svg xmlns="http://www.w3.org/2000/svg" version="1.1" viewBox="0 0 1024 1024">
  <g stroke="lightgray" stroke-dasharray="1,1" stroke-width="1" transform="scale(4, 4)">
    <line x1="0" y1="0" x2="256" y2="256" />
    <line x1="256" y1="0" x2="0" y2="256" />
    <line x1="128" y1="0" x2="128" y2="256" />
    <line x1="0" y1="128" x2="256" y2="128" />
  </g>
  <g transform="scale(1.0, -1.0) translate(0.0, -826.00)">
    <style type="text/css">
      
        @keyframes keyframes0 {
          from {
            stroke: blue;
            stroke-dashoffset: 389;
            stroke-width: 128;
          }
          56% {
            animation-timing-function: step-end;
            stroke: blue;
            stroke-dashoffset: 0;
            stroke-width: 128;
          }
          to {
            stroke: black;
            stroke-width: 1024;
          }
        }
        #make-me-a-hanzi-animation-0 {
          animation: keyframes0 0.5665690104166666s both;
          animation-delay: 0s;
          animation-timing-function: linear;
        }
      
        @keyframes keyframes1 {
          from {
            stroke: blue;
            stroke-dashoffset: 695;
            stroke-width: 128;
          }
          69% {
            animation-timing-function: step-end;
            stroke: blue;
            stroke-dashoffset: 0;
            stroke-width: 128;
          }
          to {
            stroke: black;
            stroke-width: 1024;
          }
        }
        #make-me-a-hanzi-animation-1 {
          animation: keyframes1 0.8155924479166666s both;
          animation-delay: 0.5665690104166666s;
          animation-timing-function: linear;
        }
      
        @keyframes keyframes2 {
          from {
            stroke: blue;
            stroke-dashoffset: 1077;
            stroke-width: 128;
          }
          78% {
            animation-timing-function: step-end;
            stroke: blue;
            stroke-dashoffset: 0;
            stroke-width: 128;
          }
          to {
            stroke: black;
            stroke-width: 1024;
          }
        }
        #make-me-a-hanzi-animation-2 {
          animation: keyframes2 1.12646484375s both;
          animation-delay: 1.3821614583333333s;
          animation-timing-function: linear;
        }
      
        @keyframes keyframes3 {
          from {
            stroke: blue;
            stroke-dashoffset: 921;
            stroke-width: 128;
          }
          75% {
            animation-timing-function: step-end;
            stroke: blue;
            stroke-dashoffset: 0;
            stroke-width: 128;
          }
          to {
            stroke: black;
            stroke-width: 1024;
          }
        }
        #make-me-a-hanzi-animation-3 {
          animation: keyframes3 0.99951171875s both;
          animation-delay: 2.508626302083333s;
          animation-timing-function: linear;
        }
      
        @keyframes keyframes4 {
          from {
            stroke: blue;
            stroke-dashoffset: 670;
            stroke-width: 128;
          }
          69% {
            animation-timing-function: step-end;
            stroke: blue;
            stroke-dashoffset: 0;
            stroke-width: 128;
          }
          to {
            stroke: black;
            stroke-width: 1024;
          }
        }
        #make-me-a-hanzi-animation-4 {
          animation: keyframes4 0.7952473958333334s both;
          animation-delay: 3.508138020833333s;
          animation-timing-function: linear;
        }
      
        @keyframes keyframes5 {
          from {
            stroke: blue;
            stroke-dashoffset: 419;
            stroke-width: 128;
          }
          58% {
            animation-timing-function: step-end;
            stroke: blue;
            stroke-dashoffset: 0;
            stroke-width: 128;
          }
          to {
            stroke: black;
            stroke-width: 1024;
          }
        }
        #make-me-a-hanzi-animation-5 {
          animation: keyframes5 0.5909830729166666s both;
          animation-delay: 4.303385416666666s;
          animation-timing-function: linear;
        }
      
        @keyframes keyframes6 {
          from {
            stroke: blue;
            stroke-dashoffset: 621;
            stroke-width: 128;
          }
          67% {
            animation-timing-function: step-end;
            stroke: blue;
            stroke-dashoffset: 0;
            stroke-width: 128;
          }
          to {
            stroke: black;
            stroke-width: 1024;
          }
        }
        #make-me-a-hanzi-animation-6 {
          animation: keyframes6 0.75537109375s both;
          animation-delay: 4.894368489583333s;
          animation-timing-function: linear;
        }
      
        @keyframes keyframes7 {
          from {
            stroke: blue;
            stroke-dashoffset: 672;
            stroke-width: 128;
          }
          69% {
            animation-timing-function: step-end;
            stroke: blue;
            stroke-dashoffset: 0;
            stroke-width: 128;
          }
          to {
            stroke: black;
            stroke-width: 1024;
          }
        }
        #make-me-a-hanzi-animation-7 {
          animation: keyframes7 0.796875s both;
          animation-delay: 5.649739583333333s;
          animation-timing-function: linear;
        }
      
        @keyframes keyframes8 {
          from {
            stroke: blue;
            stroke-dashoffset: 415;
            stroke-width: 128;
          }
          57% {
            animation-timing-function: step-end;
            stroke: blue;
            stroke-dashoffset: 0;
            stroke-width: 128;
          }
          to {
            stroke: black;
            stroke-width: 1024;
          }
        }
        #make-me-a-hanzi-animation-8 {
          animation: keyframes8 0.5877278645833334s both;
          animation-delay: 6.446614583333333s;
          animation-timing-function: linear;
        }
      
        @keyframes keyframes9 {
          from {
            stroke: blue;
            stroke-dashoffset: 441;
            stroke-width: 128;
          }
          59% {
            animation-timing-function: step-end;
            stroke: blue;
            stroke-dashoffset: 0;
            stroke-width: 128;
          }
          to {
            stroke: black;
            stroke-width: 1024;
          }
        }
        #make-me-a-hanzi-animation-9 {
          animation: keyframes9 0.60888671875s both;
          animation-delay: 7.034342447916666s;
          animation-timing-function: linear;
        }
      
        @keyframes keyframes10 {
          from {
            stroke: blue;
            stroke-dashoffset: 493;
            stroke-width: 128;
          }
          62% {
            animation-timing-function: step-end;
            stroke: blue;
            stroke-dashoffset: 0;
            stroke-width: 128;
          }
          to {
            stroke: black;
            stroke-width: 1024;
          }
        }
        #make-me-a-hanzi-animation-10 {
          animation: keyframes10 0.6512044270833334s both;
          animation-delay: 7.643229166666666s;
          animation-timing-function: linear;
        }
      
        @keyframes keyframes11 {
          from {
            stroke: blue;
            stroke-dashoffset: 1094;
            stroke-width: 128;
          }
          78% {
            animation-timing-function: step-end;
            stroke: blue;
            stroke-dashoffset: 0;
            stroke-width: 128;
          }
          to {
            stroke: black;
            stroke-width: 1024;
          }
        }
        #make-me-a-hanzi-animation-11 {
          animation: keyframes11 1.1402994791666667s both;
          animation-delay: 8.29443359375s;
          animation-timing-function: linear;
        }
      
        @keyframes keyframes12 {
          from {
            stroke: blue;
            stroke-dashoffset: 419;
            stroke-width: 128;
          }
          58% {
            animation-timing-function: step-end;
            stroke: blue;
            stroke-dashoffset: 0;
            stroke-width: 128;
          }
          to {
            stroke: black;
            stroke-width: 1024;
          }
        }
        #make-me-a-hanzi-animation-12 {
          animation: keyframes12 0.5909830729166666s both;
          animation-delay: 9.434733072916666s;
          animation-timing-function: linear;
        }
      
        @keyframes keyframes13 {
          from {
            stroke: blue;
            stroke-dashoffset: 367;
            stroke-width: 128;
          }
          54% {
            animation-timing-function: step-end;
            stroke: blue;
            stroke-dashoffset: 0;
            stroke-width: 128;
          }
          to {
            stroke: black;
            stroke-width: 1024;
          }
        }
        #make-me-a-hanzi-animation-13 {
          animation: keyframes13 0.5486653645833334s both;
          animation-delay: 10.025716145833332s;
          animation-timing-function: linear;
        }
      
        @keyframes keyframes14 {
          from {
            stroke: blue;
            stroke-dashoffset: 359;
            stroke-width: 128;
          }
          54% {
            animation-timing-function: step-end;
            stroke: blue;
            stroke-dashoffset: 0;
            stroke-width: 128;
          }
          to {
            stroke: black;
            stroke-width: 1024;
          }
        }
        #make-me-a-hanzi-animation-14 {
          animation: keyframes14 0.5421549479166666s both;
          animation-delay: 10.574381510416666s;
          animation-timing-function: linear;
        }
      
        @keyframes keyframes15 {
          from {
            stroke: blue;
            stroke-dashoffset: 374;
            stroke-width: 128;
          }
          55% {
            animation-timing-function: step-end;
            stroke: blue;
            stroke-dashoffset: 0;
            stroke-width: 128;
          }
          to {
            stroke: black;
            stroke-width: 1024;
          }
        }
        #make-me-a-hanzi-animation-15 {
          animation: keyframes15 0.5543619791666666s both;
          animation-delay: 11.116536458333332s;
          animation-timing-function: linear;
        }
      
    </style>
    
      <path d="M 362 686 L 348 690 Q 330 695 323 695 Q 309 693 308 690 Q 306 685 310 679 L 324 663 Q 330 653 334 644 Q 335 640 337 637 Q 338 633 339 630 Q 340 627 340 626 Q 340 621 343 607 L 348 569 C 352 539 388 543 386 573 L 382 651 C 380 681 380 681 362 686 Z" fill="lightgray" />
    
      <path d="M 689 602 L 708 626 Q 728 650 730 652 Q 736 660 744 667 Q 753 672 755 678 Q 755 683 748 690 Q 736 701 727 708 Q 707 720 702 722 Q 691 727 686 728 Q 680 728 670 725 Q 649 720 631 717 Q 621 715 610 714 Q 598 712 596 712 L 562 710 L 497 700 L 362 686 C 332 683 352 647 382 651 L 492 666 L 550 673 L 607 678 Q 617 678 639 679 Q 660 680 665 674 Q 669 667 663 651 L 642 599 C 631 571 670 578 689 602 Z" fill="lightgray" />
    
      <path d="M 593 563 Q 607 564 625 565 Q 645 566 667 567 Q 740 570 780 570 L 931 570 Q 940 570 946 572 Q 952 574 953 579 Q 954 581 948 589 Q 938 599 927 605 Q 919 610 902 618 Q 890 623 879 625 Q 876 625 857 623 L 824 616 Q 798 612 784 611 Q 778 611 760.5 609 Q 743 607 732 606 L 689 602 L 642 599 L 516 587 L 462 583 L 386 573 L 348 569 L 291 562 Q 271 559 222 556 Q 208 556 195.5 555.5 Q 183 555 178 555 L 172 554 L 136 550 Q 124 549 122 547 Q 120 544 122 536.5 Q 124 529 140 522 Q 161 513 166 512 Q 174 509 184 509 Q 193 507 212 512 L 252 521 Q 266 524 306 531 L 368 541 Q 378 542 390 544 Q 402 546 418 548.5 Q 434 551 443 552 L 501 558 L 529 560 L 593 563 Z" fill="lightgray" />
    
      <path d="M 562 710 L 566 723 L 573 737 Q 577 745 583 753 Q 589 759 589 760 Q 591 765 584 773 Q 578 779 558 791 Q 550 795 539 800 L 528 805 Q 520 810 510 810 Q 498 810 495 805 Q 492 800 493 796 Q 493 790 497 777 Q 500 769 502 749 Q 502 733 501 726 Q 501 722 499.5 714 Q 498 706 497 700 L 492 666 L 480 626 Q 479 618 462 583 L 443 552 L 420 522 Q 411 511 376 481 Q 342 459 300 437 Q 257 415 227 406 Q 193 392 167 383 L 135 374 Q 129 372 127 370 Q 125 368 126 366 Q 129 360 135 362 L 169 369 Q 194 374 234 383 Q 272 392 310 407 Q 353 426 388 444 Q 418 466 440 487 Q 462 507 475 524 Q 480 529 489 541.5 Q 498 554 501 558 L 516 587 L 535 629 Q 538 636 550 673 L 562 710 Z" fill="lightgray" />
    
      <path d="M 529 560 Q 543 557 566 546 Q 586 535 604 520 L 669 477 L 729 436 Q 749 423 771 413 Q 785 404 804 401 Q 813 400 853 409 Q 882 413 897 417 Q 901 417 904 418 Q 907 419 910 420 Q 912 421 913 421 L 935 427 Q 944 431 940 437 Q 938 441 928 444 L 897 449 Q 878 450 843 460 Q 826 464 771 481 Q 741 493 701 509 Q 657 529 631 543 Q 605 556 593 563 C 567 578 500 568 529 560 Z" fill="lightgray" />
    
      <path d="M 455 411 L 482 430 L 530 469 Q 544 478 552 482 Q 559 485 561 487 Q 563 488 565 489 Q 567 489 570 495 Q 572 501 549 516 Q 521 528 509 528 Q 505 526 504 516 Q 500 504 476 466 L 457 441 Q 441 421 428 406 C 408 383 430 394 455 411 Z" fill="lightgray" />
    
      <path d="M 410 266 L 413 308 L 418 332 L 420 359 L 422 383 C 424 402 424 402 421 404 L 410 412 Q 374 435 358 420 Q 358 415 367 401 Q 375 386 376 365 L 376 335 L 371 222 Q 366 146 350 124 Q 344 115 342 111 Q 335 95 370 60 Q 377 54 395 63 C 421 73 416 88 405 116 Q 400 120 401 129 Q 402 137 402 157 L 404 178 L 409 236 L 410 266 Z" fill="lightgray" />
    
      <path d="M 422 383 L 457 386 Q 472 386 493 390 L 544 400 L 607 412 Q 625 415 629 412 Q 632 409 631 397 Q 631 356 618 321 Q 604 285 602 283 C 594 265 594 265 598 257 L 602 249 Q 604 243 611 240 Q 618 236 631 244 Q 643 251 646 260 L 655 283 L 675 336 L 682 348 Q 696 383 706 393 Q 716 402 717 406 Q 717 410 700 425 Q 682 439 650 449 Q 632 457 620 451 Q 607 445 581 438 L 548 430 Q 523 424 510 421 L 455 411 L 428 406 L 421 404 C 392 397 392 380 422 383 Z" fill="lightgray" />
    
      <path d="M 413 308 L 443 308 Q 469 308 496 313 Q 522 318 550 323 Q 577 328 582 335 Q 587 341 585 346 Q 574 361 548 356 L 418 332 C 388 327 383 308 413 308 Z" fill="lightgray" />
    
      <path d="M 602 283 L 588 286 Q 580 290 575 291 Q 570 291 543 288 L 514 282 L 410 266 C 380 261 379 233 409 236 L 598 257 C 628 260 631 277 602 283 Z" fill="lightgray" />
    
      <path d="M 402 157 L 425 156 Q 434 155 454 157 L 640 186 Q 651 188 649 194 Q 649 205 623 210 Q 596 215 574 211 L 507 196 L 404 178 C 374 173 372 158 402 157 Z" fill="lightgray" />
    
      <path d="M 395 63 Q 446 91 567 106 L 637 116 Q 740 124 768 124 Q 796 124 805 115 Q 809 104 806 72 L 803 28 Q 801 0 788 -41 Q 775 -81 760 -87 Q 752 -90 732 -85 L 707 -80 L 684 -74 Q 674 -72 673 -76 Q 671 -79 675 -84 L 707 -122 Q 710 -125 723 -149 Q 735 -173 740 -178 Q 745 -182 762 -178 Q 778 -173 798 -156 Q 848 -111 861 -14 Q 873 84 883 98 Q 893 112 895 116 Q 895 123 885 130 Q 877 138 858 147 L 828 163 Q 818 168 813 169 Q 807 169 787 166 Q 769 161 719 159 Q 669 157 574 142 L 504 130 Q 453 123 431 118 Q 409 112 405 116 C 375 115 368 51 395 63 Z" fill="lightgray" />
    
      <path d="M 281 58 Q 279 63 276.5 66 Q 274 69 272 68 Q 266 68 264 58 L 260 42 Q 237 -5 233 -11 Q 197 -74 226 -103 Q 236 -113 243.5 -112.5 Q 251 -112 263.5 -97 Q 276 -82 292 -28 Q 299 7 288 42 L 281 58 Z" fill="lightgray" />
    
      <path d="M 369 36 Q 364 38 360 36.5 Q 356 35 358 30 L 361 16 L 374 -14 L 387 -52 Q 395 -79 410 -81 Q 418 -82 424 -74 Q 430 -66 430 -52 Q 435 -15 402 13 Q 388 26 384 28 L 369 36 Z" fill="lightgray" />
    
      <path d="M 501 53 Q 489 57 486 52 Q 485 47 486 43 L 490 32 L 501 10 Q 504 3 514 -18 Q 538 -62 559 -50 Q 575 -34 566 2 Q 560 22 531 38 Q 518 45 514 48 L 501 53 Z" fill="lightgray" />
    
      <path d="M 625 74 Q 615 76 614 75 Q 603 71 614 58 L 623 44 L 652 0 Q 683 -51 702 -32 Q 714 -15 712 3 Q 706 46 658 61 L 625 74 Z" fill="lightgray" />
    
    
      <clipPath id="make-me-a-hanzi-clip-0">
        <path d="M 362 686 L 348 690 Q 330 695 323 695 Q 309 693 308 690 Q 306 685 310 679 L 324 663 Q 330 653 334 644 Q 335 640 337 637 Q 338 633 339 630 Q 340 627 340 626 Q 340 621 343 607 L 348 569 C 352 539 388 543 386 573 L 382 651 C 380 681 380 681 362 686 Z" />
      </clipPath>
      <path clip-path="url(#make-me-a-hanzi-clip-0)" d="M 318 686 L 347 667 L 360 642 L 365 590 L 354 576" fill="none" id="make-me-a-hanzi-animation-0" stroke-dasharray="261 522" stroke-linecap="round" />
    
      <clipPath id="make-me-a-hanzi-clip-1">
        <path d="M 689 602 L 708 626 Q 728 650 730 652 Q 736 660 744 667 Q 753 672 755 678 Q 755 683 748 690 Q 736 701 727 708 Q 707 720 702 722 Q 691 727 686 728 Q 680 728 670 725 Q 649 720 631 717 Q 621 715 610 714 Q 598 712 596 712 L 562 710 L 497 700 L 362 686 C 332 683 352 647 382 651 L 492 666 L 550 673 L 607 678 Q 617 678 639 679 Q 660 680 665 674 Q 669 667 663 651 L 642 599 C 631 571 670 578 689 602 Z" />
      </clipPath>
      <path clip-path="url(#make-me-a-hanzi-clip-1)" d="M 370 683 L 392 671 L 591 695 L 654 700 L 685 696 L 702 679 L 699 664 L 675 623 L 650 603" fill="none" id="make-me-a-hanzi-animation-1" stroke-dasharray="567 1134" stroke-linecap="round" />
    
      <clipPath id="make-me-a-hanzi-clip-2">
        <path d="M 593 563 Q 607 564 625 565 Q 645 566 667 567 Q 740 570 780 570 L 931 570 Q 940 570 946 572 Q 952 574 953 579 Q 954 581 948 589 Q 938 599 927 605 Q 919 610 902 618 Q 890 623 879 625 Q 876 625 857 623 L 824 616 Q 798 612 784 611 Q 778 611 760.5 609 Q 743 607 732 606 L 689 602 L 642 599 L 516 587 L 462 583 L 386 573 L 348 569 L 291 562 Q 271 559 222 556 Q 208 556 195.5 555.5 Q 183 555 178 555 L 172 554 L 136 550 Q 124 549 122 547 Q 120 544 122 536.5 Q 124 529 140 522 Q 161 513 166 512 Q 174 509 184 509 Q 193 507 212 512 L 252 521 Q 266 524 306 531 L 368 541 Q 378 542 390 544 Q 402 546 418 548.5 Q 434 551 443 552 L 501 558 L 529 560 L 593 563 Z" />
      </clipPath>
      <path clip-path="url(#make-me-a-hanzi-clip-2)" d="M 130 542 L 140 536 L 199 532 L 456 569 L 867 597 L 944 581" fill="none" id="make-me-a-hanzi-animation-2" stroke-dasharray="949 1898" stroke-linecap="round" />
    
      <clipPath id="make-me-a-hanzi-clip-3">
        <path d="M 562 710 L 566 723 L 573 737 Q 577 745 583 753 Q 589 759 589 760 Q 591 765 584 773 Q 578 779 558 791 Q 550 795 539 800 L 528 805 Q 520 810 510 810 Q 498 810 495 805 Q 492 800 493 796 Q 493 790 497 777 Q 500 769 502 749 Q 502 733 501 726 Q 501 722 499.5 714 Q 498 706 497 700 L 492 666 L 480 626 Q 479 618 462 583 L 443 552 L 420 522 Q 411 511 376 481 Q 342 459 300 437 Q 257 415 227 406 Q 193 392 167 383 L 135 374 Q 129 372 127 370 Q 125 368 126 366 Q 129 360 135 362 L 169 369 Q 194 374 234 383 Q 272 392 310 407 Q 353 426 388 444 Q 418 466 440 487 Q 462 507 475 524 Q 480 529 489 541.5 Q 498 554 501 558 L 516 587 L 535 629 Q 538 636 550 673 L 562 710 Z" />
      </clipPath>
      <path clip-path="url(#make-me-a-hanzi-clip-3)" d="M 506 798 L 540 757 L 534 726 L 493 593 L 448 524 L 394 472 L 338 437 L 237 396 L 132 367" fill="none" id="make-me-a-hanzi-animation-3" stroke-dasharray="793 1586" stroke-linecap="round" />
    
      <clipPath id="make-me-a-hanzi-clip-4">
        <path d="M 529 560 Q 543 557 566 546 Q 586 535 604 520 L 669 477 L 729 436 Q 749 423 771 413 Q 785 404 804 401 Q 813 400 853 409 Q 882 413 897 417 Q 901 417 904 418 Q 907 419 910 420 Q 912 421 913 421 L 935 427 Q 944 431 940 437 Q 938 441 928 444 L 897 449 Q 878 450 843 460 Q 826 464 771 481 Q 741 493 701 509 Q 657 529 631 543 Q 605 556 593 563 C 567 578 500 568 529 560 Z" />
      </clipPath>
      <path clip-path="url(#make-me-a-hanzi-clip-4)" d="M 546 555 L 587 550 L 741 462 L 798 437 L 931 435" fill="none" id="make-me-a-hanzi-animation-4" stroke-dasharray="542 1084" stroke-linecap="round" />
    
      <clipPath id="make-me-a-hanzi-clip-5">
        <path d="M 455 411 L 482 430 L 530 469 Q 544 478 552 482 Q 559 485 561 487 Q 563 488 565 489 Q 567 489 570 495 Q 572 501 549 516 Q 521 528 509 528 Q 505 526 504 516 Q 500 504 476 466 L 457 441 Q 441 421 428 406 C 408 383 430 394 455 411 Z" />
      </clipPath>
      <path clip-path="url(#make-me-a-hanzi-clip-5)" d="M 561 496 L 532 499 L 519 492 L 480 445 L 434 410" fill="none" id="make-me-a-hanzi-animation-5" stroke-dasharray="291 582" stroke-linecap="round" />
    
      <clipPath id="make-me-a-hanzi-clip-6">
        <path d="M 410 266 L 413 308 L 418 332 L 420 359 L 422 383 C 424 402 424 402 421 404 L 410 412 Q 374 435 358 420 Q 358 415 367 401 Q 375 386 376 365 L 376 335 L 371 222 Q 366 146 350 124 Q 344 115 342 111 Q 335 95 370 60 Q 377 54 395 63 C 421 73 416 88 405 116 Q 400 120 401 129 Q 402 137 402 157 L 404 178 L 409 236 L 410 266 Z" />
      </clipPath>
      <path clip-path="url(#make-me-a-hanzi-clip-6)" d="M 365 418 L 382 409 L 398 387 L 388 201 L 372 104 L 383 72" fill="none" id="make-me-a-hanzi-animation-6" stroke-dasharray="493 986" stroke-linecap="round" />
    
      <clipPath id="make-me-a-hanzi-clip-7">
        <path d="M 422 383 L 457 386 Q 472 386 493 390 L 544 400 L 607 412 Q 625 415 629 412 Q 632 409 631 397 Q 631 356 618 321 Q 604 285 602 283 C 594 265 594 265 598 257 L 602 249 Q 604 243 611 240 Q 618 236 631 244 Q 643 251 646 260 L 655 283 L 675 336 L 682 348 Q 696 383 706 393 Q 716 402 717 406 Q 717 410 700 425 Q 682 439 650 449 Q 632 457 620 451 Q 607 445 581 438 L 548 430 Q 523 424 510 421 L 455 411 L 428 406 L 421 404 C 392 397 392 380 422 383 Z" />
      </clipPath>
      <path clip-path="url(#make-me-a-hanzi-clip-7)" d="M 427 389 L 433 396 L 510 406 L 622 432 L 637 432 L 650 424 L 667 400 L 616 254" fill="none" id="make-me-a-hanzi-animation-7" stroke-dasharray="544 1088" stroke-linecap="round" />
    
      <clipPath id="make-me-a-hanzi-clip-8">
        <path d="M 413 308 L 443 308 Q 469 308 496 313 Q 522 318 550 323 Q 577 328 582 335 Q 587 341 585 346 Q 574 361 548 356 L 418 332 C 388 327 383 308 413 308 Z" />
      </clipPath>
      <path clip-path="url(#make-me-a-hanzi-clip-8)" d="M 421 313 L 429 322 L 574 343" fill="none" id="make-me-a-hanzi-animation-8" stroke-dasharray="287 574" stroke-linecap="round" />
    
      <clipPath id="make-me-a-hanzi-clip-9">
        <path d="M 602 283 L 588 286 Q 580 290 575 291 Q 570 291 543 288 L 514 282 L 410 266 C 380 261 379 233 409 236 L 598 257 C 628 260 631 277 602 283 Z" />
      </clipPath>
      <path clip-path="url(#make-me-a-hanzi-clip-9)" d="M 416 243 L 435 255 L 584 271 L 594 278" fill="none" id="make-me-a-hanzi-animation-9" stroke-dasharray="313 626" stroke-linecap="round" />
    
      <clipPath id="make-me-a-hanzi-clip-10">
        <path d="M 402 157 L 425 156 Q 434 155 454 157 L 640 186 Q 651 188 649 194 Q 649 205 623 210 Q 596 215 574 211 L 507 196 L 404 178 C 374 173 372 158 402 157 Z" />
      </clipPath>
      <path clip-path="url(#make-me-a-hanzi-clip-10)" d="M 408 162 L 415 169 L 592 196 L 640 195" fill="none" id="make-me-a-hanzi-animation-10" stroke-dasharray="365 730" stroke-linecap="round" />
    
      <clipPath id="make-me-a-hanzi-clip-11">
        <path d="M 395 63 Q 446 91 567 106 L 637 116 Q 740 124 768 124 Q 796 124 805 115 Q 809 104 806 72 L 803 28 Q 801 0 788 -41 Q 775 -81 760 -87 Q 752 -90 732 -85 L 707 -80 L 684 -74 Q 674 -72 673 -76 Q 671 -79 675 -84 L 707 -122 Q 710 -125 723 -149 Q 735 -173 740 -178 Q 745 -182 762 -178 Q 778 -173 798 -156 Q 848 -111 861 -14 Q 873 84 883 98 Q 893 112 895 116 Q 895 123 885 130 Q 877 138 858 147 L 828 163 Q 818 168 813 169 Q 807 169 787 166 Q 769 161 719 159 Q 669 157 574 142 L 504 130 Q 453 123 431 118 Q 409 112 405 116 C 375 115 368 51 395 63 Z" />
      </clipPath>
      <path clip-path="url(#make-me-a-hanzi-clip-11)" d="M 397 69 L 425 98 L 528 118 L 729 142 L 798 144 L 821 137 L 845 110 L 828 -18 L 805 -90 L 775 -124 L 758 -128 L 679 -78" fill="none" id="make-me-a-hanzi-animation-11" stroke-dasharray="966 1932" stroke-linecap="round" />
    
      <clipPath id="make-me-a-hanzi-clip-12">
        <path d="M 281 58 Q 279 63 276.5 66 Q 274 69 272 68 Q 266 68 264 58 L 260 42 Q 237 -5 233 -11 Q 197 -74 226 -103 Q 236 -113 243.5 -112.5 Q 251 -112 263.5 -97 Q 276 -82 292 -28 Q 299 7 288 42 L 281 58 Z" />
      </clipPath>
      <path clip-path="url(#make-me-a-hanzi-clip-12)" d="M 271 60 L 270 6 L 249 -51 L 243 -99" fill="none" id="make-me-a-hanzi-animation-12" stroke-dasharray="291 582" stroke-linecap="round" />
    
      <clipPath id="make-me-a-hanzi-clip-13">
        <path d="M 369 36 Q 364 38 360 36.5 Q 356 35 358 30 L 361 16 L 374 -14 L 387 -52 Q 395 -79 410 -81 Q 418 -82 424 -74 Q 430 -66 430 -52 Q 435 -15 402 13 Q 388 26 384 28 L 369 36 Z" />
      </clipPath>
      <path clip-path="url(#make-me-a-hanzi-clip-13)" d="M 364 32 L 400 -17 L 411 -66" fill="none" id="make-me-a-hanzi-animation-13" stroke-dasharray="239 478" stroke-linecap="round" />
    
      <clipPath id="make-me-a-hanzi-clip-14">
        <path d="M 501 53 Q 489 57 486 52 Q 485 47 486 43 L 490 32 L 501 10 Q 504 3 514 -18 Q 538 -62 559 -50 Q 575 -34 566 2 Q 560 22 531 38 Q 518 45 514 48 L 501 53 Z" />
      </clipPath>
      <path clip-path="url(#make-me-a-hanzi-clip-14)" d="M 494 48 L 532 6 L 550 -37" fill="none" id="make-me-a-hanzi-animation-14" stroke-dasharray="231 462" stroke-linecap="round" />
    
      <clipPath id="make-me-a-hanzi-clip-15">
        <path d="M 625 74 Q 615 76 614 75 Q 603 71 614 58 L 623 44 L 652 0 Q 683 -51 702 -32 Q 714 -15 712 3 Q 706 46 658 61 L 625 74 Z" />
      </clipPath>
      <path clip-path="url(#make-me-a-hanzi-clip-15)" d="M 617 67 L 668 27 L 686 -2 L 690 -21" fill="none" id="make-me-a-hanzi-animation-15" stroke-dasharray="246 492" stroke-linecap="round" />
    
  </g>
</svg>