<svg xmlns="http://www.w3.org/2000/svg" version="1.1" viewBox="0 0 1024 1024">
  <g stroke="lightgray" stroke-dasharray="1,1" stroke-width="1" transform="scale(4, 4)">
    <line x1="0" y1="0" x2="256" y2="256" />
    <line x1="256" y1="0" x2="0" y2="256" />
    <line x1="128" y1="0" x2="128" y2="256" />
    <line x1="0" y1="128" x2="256" y2="128" />
  </g>
  <g transform="scale(1.0, -1.0) translate(0.0, -800.00)">
    <style type="text/css">
      
        @keyframes keyframes0 {
          from {
            stroke: blue;
            stroke-dashoffset: 393;
            stroke-width: 128;
          }
          56% {
            animation-timing-function: step-end;
            stroke: blue;
            stroke-dashoffset: 0;
            stroke-width: 128;
          }
          to {
            stroke: black;
            stroke-width: 1024;
          }
        }
        #make-me-a-hanzi-animation-0 {
          animation: keyframes0 0.56982421875s both;
          animation-delay: 0s;
          animation-timing-function: linear;
        }
      
        @keyframes keyframes1 {
          from {
            stroke: blue;
            stroke-dashoffset: 662;
            stroke-width: 128;
          }
          68% {
            animation-timing-function: step-end;
            stroke: blue;
            stroke-dashoffset: 0;
            stroke-width: 128;
          }
          to {
            stroke: black;
            stroke-width: 1024;
          }
        }
        #make-me-a-hanzi-animation-1 {
          animation: keyframes1 0.7887369791666666s both;
          animation-delay: 0.56982421875s;
          animation-timing-function: linear;
        }
      
        @keyframes keyframes2 {
          from {
            stroke: blue;
            stroke-dashoffset: 509;
            stroke-width: 128;
          }
          62% {
            animation-timing-function: step-end;
            stroke: blue;
            stroke-dashoffset: 0;
            stroke-width: 128;
          }
          to {
            stroke: black;
            stroke-width: 1024;
          }
        }
        #make-me-a-hanzi-animation-2 {
          animation: keyframes2 0.6642252604166666s both;
          animation-delay: 1.3585611979166665s;
          animation-timing-function: linear;
        }
      
        @keyframes keyframes3 {
          from {
            stroke: blue;
            stroke-dashoffset: 319;
            stroke-width: 128;
          }
          51% {
            animation-timing-function: step-end;
            stroke: blue;
            stroke-dashoffset: 0;
            stroke-width: 128;
          }
          to {
            stroke: black;
            stroke-width: 1024;
          }
        }
        #make-me-a-hanzi-animation-3 {
          animation: keyframes3 0.5096028645833334s both;
          animation-delay: 2.022786458333333s;
          animation-timing-function: linear;
        }
      
        @keyframes keyframes4 {
          from {
            stroke: blue;
            stroke-dashoffset: 454;
            stroke-width: 128;
          }
          60% {
            animation-timing-function: step-end;
            stroke: blue;
            stroke-dashoffset: 0;
            stroke-width: 128;
          }
          to {
            stroke: black;
            stroke-width: 1024;
          }
        }
        #make-me-a-hanzi-animation-4 {
          animation: keyframes4 0.6194661458333334s both;
          animation-delay: 2.5323893229166665s;
          animation-timing-function: linear;
        }
      
        @keyframes keyframes5 {
          from {
            stroke: blue;
            stroke-dashoffset: 552;
            stroke-width: 128;
          }
          64% {
            animation-timing-function: step-end;
            stroke: blue;
            stroke-dashoffset: 0;
            stroke-width: 128;
          }
          to {
            stroke: black;
            stroke-width: 1024;
          }
        }
        #make-me-a-hanzi-animation-5 {
          animation: keyframes5 0.69921875s both;
          animation-delay: 3.15185546875s;
          animation-timing-function: linear;
        }
      
        @keyframes keyframes6 {
          from {
            stroke: blue;
            stroke-dashoffset: 1010;
            stroke-width: 128;
          }
          77% {
            animation-timing-function: step-end;
            stroke: blue;
            stroke-dashoffset: 0;
            stroke-width: 128;
          }
          to {
            stroke: black;
            stroke-width: 1024;
          }
        }
        #make-me-a-hanzi-animation-6 {
          animation: keyframes6 1.0719401041666667s both;
          animation-delay: 3.85107421875s;
          animation-timing-function: linear;
        }
      
        @keyframes keyframes7 {
          from {
            stroke: blue;
            stroke-dashoffset: 355;
            stroke-width: 128;
          }
          54% {
            animation-timing-function: step-end;
            stroke: blue;
            stroke-dashoffset: 0;
            stroke-width: 128;
          }
          to {
            stroke: black;
            stroke-width: 1024;
          }
        }
        #make-me-a-hanzi-animation-7 {
          animation: keyframes7 0.5388997395833334s both;
          animation-delay: 4.923014322916667s;
          animation-timing-function: linear;
        }
      
        @keyframes keyframes8 {
          from {
            stroke: blue;
            stroke-dashoffset: 460;
            stroke-width: 128;
          }
          60% {
            animation-timing-function: step-end;
            stroke: blue;
            stroke-dashoffset: 0;
            stroke-width: 128;
          }
          to {
            stroke: black;
            stroke-width: 1024;
          }
        }
        #make-me-a-hanzi-animation-8 {
          animation: keyframes8 0.6243489583333334s both;
          animation-delay: 5.4619140625s;
          animation-timing-function: linear;
        }
      
        @keyframes keyframes9 {
          from {
            stroke: blue;
            stroke-dashoffset: 642;
            stroke-width: 128;
          }
          68% {
            animation-timing-function: step-end;
            stroke: blue;
            stroke-dashoffset: 0;
            stroke-width: 128;
          }
          to {
            stroke: black;
            stroke-width: 1024;
          }
        }
        #make-me-a-hanzi-animation-9 {
          animation: keyframes9 0.7724609375s both;
          animation-delay: 6.086263020833333s;
          animation-timing-function: linear;
        }
      
        @keyframes keyframes10 {
          from {
            stroke: blue;
            stroke-dashoffset: 668;
            stroke-width: 128;
          }
          68% {
            animation-timing-function: step-end;
            stroke: blue;
            stroke-dashoffset: 0;
            stroke-width: 128;
          }
          to {
            stroke: black;
            stroke-width: 1024;
          }
        }
        #make-me-a-hanzi-animation-10 {
          animation: keyframes10 0.7936197916666666s both;
          animation-delay: 6.858723958333333s;
          animation-timing-function: linear;
        }
      
        @keyframes keyframes11 {
          from {
            stroke: blue;
            stroke-dashoffset: 399;
            stroke-width: 128;
          }
          56% {
            animation-timing-function: step-end;
            stroke: blue;
            stroke-dashoffset: 0;
            stroke-width: 128;
          }
          to {
            stroke: black;
            stroke-width: 1024;
          }
        }
        #make-me-a-hanzi-animation-11 {
          animation: keyframes11 0.57470703125s both;
          animation-delay: 7.65234375s;
          animation-timing-function: linear;
        }
      
        @keyframes keyframes12 {
          from {
            stroke: blue;
            stroke-dashoffset: 416;
            stroke-width: 128;
          }
          58% {
            animation-timing-function: step-end;
            stroke: blue;
            stroke-dashoffset: 0;
            stroke-width: 128;
          }
          to {
            stroke: black;
            stroke-width: 1024;
          }
        }
        #make-me-a-hanzi-animation-12 {
          animation: keyframes12 0.5885416666666666s both;
          animation-delay: 8.22705078125s;
          animation-timing-function: linear;
        }
      
        @keyframes keyframes13 {
          from {
            stroke: blue;
            stroke-dashoffset: 486;
            stroke-width: 128;
          }
          61% {
            animation-timing-function: step-end;
            stroke: blue;
            stroke-dashoffset: 0;
            stroke-width: 128;
          }
          to {
            stroke: black;
            stroke-width: 1024;
          }
        }
        #make-me-a-hanzi-animation-13 {
          animation: keyframes13 0.6455078125s both;
          animation-delay: 8.815592447916666s;
          animation-timing-function: linear;
        }
      
        @keyframes keyframes14 {
          from {
            stroke: blue;
            stroke-dashoffset: 1062;
            stroke-width: 128;
          }
          78% {
            animation-timing-function: step-end;
            stroke: blue;
            stroke-dashoffset: 0;
            stroke-width: 128;
          }
          to {
            stroke: black;
            stroke-width: 1024;
          }
        }
        #make-me-a-hanzi-animation-14 {
          animation: keyframes14 1.1142578125s both;
          animation-delay: 9.461100260416666s;
          animation-timing-function: linear;
        }
      
        @keyframes keyframes15 {
          from {
            stroke: blue;
            stroke-dashoffset: 393;
            stroke-width: 128;
          }
          56% {
            animation-timing-function: step-end;
            stroke: blue;
            stroke-dashoffset: 0;
            stroke-width: 128;
          }
          to {
            stroke: black;
            stroke-width: 1024;
          }
        }
        #make-me-a-hanzi-animation-15 {
          animation: keyframes15 0.56982421875s both;
          animation-delay: 10.575358072916666s;
          animation-timing-function: linear;
        }
      
        @keyframes keyframes16 {
          from {
            stroke: blue;
            stroke-dashoffset: 352;
            stroke-width: 128;
          }
          53% {
            animation-timing-function: step-end;
            stroke: blue;
            stroke-dashoffset: 0;
            stroke-width: 128;
          }
          to {
            stroke: black;
            stroke-width: 1024;
          }
        }
        #make-me-a-hanzi-animation-16 {
          animation: keyframes16 0.5364583333333334s both;
          animation-delay: 11.145182291666666s;
          animation-timing-function: linear;
        }
      
        @keyframes keyframes17 {
          from {
            stroke: blue;
            stroke-dashoffset: 342;
            stroke-width: 128;
          }
          53% {
            animation-timing-function: step-end;
            stroke: blue;
            stroke-dashoffset: 0;
            stroke-width: 128;
          }
          to {
            stroke: black;
            stroke-width: 1024;
          }
        }
        #make-me-a-hanzi-animation-17 {
          animation: keyframes17 0.5283203125s both;
          animation-delay: 11.681640625s;
          animation-timing-function: linear;
        }
      
        @keyframes keyframes18 {
          from {
            stroke: blue;
            stroke-dashoffset: 362;
            stroke-width: 128;
          }
          54% {
            animation-timing-function: step-end;
            stroke: blue;
            stroke-dashoffset: 0;
            stroke-width: 128;
          }
          to {
            stroke: black;
            stroke-width: 1024;
          }
        }
        #make-me-a-hanzi-animation-18 {
          animation: keyframes18 0.5445963541666666s both;
          animation-delay: 12.2099609375s;
          animation-timing-function: linear;
        }
      
    </style>
    
      <path d="M 124 495 Q 124 491 133 483 Q 147 469 200 482 L 234 488 Q 258 492 268 498 Q 281 503 277 512 Q 273 521 249.5 525 Q 226 529 192 518 Q 158 507 141 503 Q 124 499 124 495 Z" fill="lightgray" />
    
      <path d="M 242 383 L 286 392 Q 290 392 318 400 L 366 412 L 412 424 L 450 431 L 478 438 Q 488 441 490 446 Q 492 451 485 455 Q 478 459 468 462 L 450 465 Q 423 471 396.5 461.5 Q 370 452 362 450 L 312 438 L 244 423 Q 240 422 188.5 411.5 Q 137 401 120 399 L 86 394 Q 61 392 83 376 Q 101 358 196 374 L 242 383 Z" fill="lightgray" />
    
      <path d="M 196 374 L 203 349 L 206 331 Q 206 319 208 288 L 210 255 Q 211 240 212 222 L 216 126 C 217 96 252 109 252 139 L 252 253 L 253 280 L 254 326 Q 254 341 258 353 Q 265 373 242 383 C 216 397 188 403 196 374 Z" fill="lightgray" />
    
      <path d="M 252 253 L 302 263 Q 320 266 326 274 Q 331 282 322 287 Q 301 299 268 286 L 253 280 C 225 269 223 247 252 253 Z" fill="lightgray" />
    
      <path d="M 166 108 L 164 212 Q 164 246 169 256 Q 173 265 172 271 Q 171 276 147 286 Q 123 295 113 295 Q 102 294 100 292 Q 98 289 101 281 L 109 263 L 118 217 L 128 98 C 131 68 167 78 166 108 Z" fill="lightgray" />
    
      <path d="M 216 126 L 166 108 L 128 98 L 114 94 Q 111 94 88 96 L 72 98 Q 52 98 59 80 Q 63 71 78.5 58.5 Q 94 46 104.5 41 Q 115 36 121 36 Q 127 36 147 50.5 Q 167 65 244 99 L 283 117 Q 310 129 316 132 L 346 148 Q 355 153 350.5 160 Q 346 167 326 167 Q 299 163 279 150 L 252 139 L 216 126 Z" fill="lightgray" />
    
      <path d="M 318 400 L 326 362 L 336 292 Q 362 149 404 86 Q 433 36 468 25 Q 483 20 492 24 Q 504 33 500 55.5 Q 496 78 496 127 L 498 162 L 498 196 Q 498 201 491.5 204.5 Q 485 208 483 197 L 476 170 Q 470 149 459 127 Q 452 110 435 132 Q 409 167 384 294 L 374 349 Q 370 384 366 412 L 362 450 L 358 498 Q 357 506 355.5 540 Q 354 574 356 583 L 357 601 Q 359 619 362.5 628 Q 366 637 365 640 Q 362 650 323.5 667.5 Q 285 685 276 673 Q 270 669 279.5 647 Q 289 625 297 558 L 312 438 L 318 400 Z" fill="lightgray" />
    
      <path d="M 396 584 Q 386 586 384 582.5 Q 382 579 388 572 L 402 556 Q 408 548 418 540 L 438 522 Q 480 483 490 521 Q 493 544 472 563 Q 463 572 412 582 L 396 584 Z" fill="lightgray" />
    
      <path d="M 622 554 L 676 611 Q 702 638 711 650 Q 721 660 728 666 L 744 678 Q 751 682 751 687 Q 751 701 697 721 Q 676 730 669 722 Q 667 719 668 709 Q 668 698 664 682 Q 659 665 658 659 Q 656 653 636 623 L 612 580 L 594 555 C 576 531 601 532 622 554 Z" fill="lightgray" />
    
      <path d="M 594 555 L 572 562 Q 542 571 537 563 Q 532 554 544 538 Q 556 521 556 491 L 556 470 L 550 343 Q 547 264 538 245 Q 529 225 532 213 L 538 200 Q 550 173 562 174 Q 568 175 583 184 C 589 186 589 197 590 227 L 592 284 L 593 304 L 596 370 L 597 396 L 599 433 Q 599 434 600 447 L 602 470 L 604 485 Q 607 510 610 527 C 614 549 614 549 594 555 Z" fill="lightgray" />
    
      <path d="M 762 388 L 766 378 Q 768 371 780 370 Q 800 365 812 398 L 822 423 L 844 483 Q 859 523 872 534 Q 880 543 881 546 Q 881 549 873 560 Q 864 568 843 580 Q 821 591 810 593 Q 798 595 774 589 L 746 580 Q 731 576 718 574 L 682 566 L 622 554 C 584 546 565 520 610 527 L 748 550 Q 769 552 778 552 Q 792 550 792 538 L 790 514 L 780 474 L 778 465 L 772 434 Q 770 430 764 409 C 760 394 760 394 762 388 Z" fill="lightgray" />
    
      <path d="M 600 447 L 628 445 Q 634 444 660 448 L 690 452 L 722 457 L 743 460 L 751 465 L 754 471 L 750 477 Q 751 479 746 480 Q 741 481 720 486 L 701 486 L 685 483 L 662 478 L 602 470 C 572 466 570 449 600 447 Z" fill="lightgray" />
    
      <path d="M 596 370 L 618 370 Q 628 371 643 372 Q 657 372 676 376 L 712 381 L 740 384 Q 747 384 762 388 C 791 395 793 400 764 409 L 748 414 Q 740 418 728 418 L 704 414 Q 686 412 678 410 L 597 396 C 567 391 566 370 596 370 Z" fill="lightgray" />
    
      <path d="M 592 284 L 609 280 Q 621 274 704 288 L 796 304 Q 832 308 832 318 Q 832 327 810 332 Q 787 336 784 339 Q 776 340 760 336 Q 744 332 739 332 L 714 327 Q 708 326 673 318 L 628 309 Q 618 308 593 304 C 563 299 563 291 592 284 Z" fill="lightgray" />
    
      <path d="M 583 184 Q 598 192 619 196 L 660 204 L 705 211 Q 718 212 745 216 L 804 221 Q 863 226 874 218 Q 889 206 883 134 L 878 78 Q 870 20 859 -16 Q 847 -51 837 -60 Q 827 -68 818 -65 Q 809 -62 795 -55 L 750 -36 Q 742 -32 739 -35 Q 735 -38 741 -45 L 770 -84 Q 788 -110 789 -110 L 805 -139 Q 812 -150 818 -151 Q 824 -154 845 -141 Q 888 -117 906 -67 Q 924 -26 934 52 L 942 128 Q 945 178 964 210 Q 968 222 966 227 Q 963 232 936 252 Q 893 269 888 270 L 818 259 Q 789 255 760 251 L 680 241 Q 650 237 590 227 C 560 222 555 172 583 184 Z" fill="lightgray" />
    
      <path d="M 550 106 L 515 38 Q 509 26 508.5 6 Q 508 -14 520 -26 Q 534 -45 551 -22 Q 577 10 584 58 Q 584 91 576 107 L 570 122 Q 561 137 556 121 L 550 106 Z" fill="lightgray" />
    
      <path d="M 618 132 Q 604 141 604 128 L 608 116 L 616 88 Q 618 84 627 60.5 Q 636 37 644 30 Q 660 21 667.5 30 Q 675 39 676.5 64 Q 678 89 658 106 Q 651 112 637 121 L 618 132 Z" fill="lightgray" />
    
      <path d="M 760 84 Q 760 101 750.5 113.5 Q 741 126 733.5 130.5 Q 726 135 708 144 L 692 149 Q 682 151 686 140 L 690 130 Q 694 117 698 110 L 710 86 L 718 74 Q 719 72 721.5 68 Q 724 64 726 63 Q 728 62 731.5 59 Q 735 56 743 56 Q 760 56 760 84 Z" fill="lightgray" />
    
      <path d="M 776 167 Q 767 170 764 166.5 Q 761 163 766 156 L 775 140 L 803 99 Q 816 80 822 74 Q 830 68 840 68 Q 866 68 860 108 Q 859 123 847 134 Q 835 145 790 163 L 776 167 Z" fill="lightgray" />
    
    
      <clipPath id="make-me-a-hanzi-clip-0">
        <path d="M 124 495 Q 124 491 133 483 Q 147 469 200 482 L 234 488 Q 258 492 268 498 Q 281 503 277 512 Q 273 521 249.5 525 Q 226 529 192 518 Q 158 507 141 503 Q 124 499 124 495 Z" />
      </clipPath>
      <path clip-path="url(#make-me-a-hanzi-clip-0)" d="M 132 491 L 170 493 L 219 506 L 267 508" fill="none" id="make-me-a-hanzi-animation-0" stroke-dasharray="265 530" stroke-linecap="round" />
    
      <clipPath id="make-me-a-hanzi-clip-1">
        <path d="M 242 383 L 286 392 Q 290 392 318 400 L 366 412 L 412 424 L 450 431 L 478 438 Q 488 441 490 446 Q 492 451 485 455 Q 478 459 468 462 L 450 465 Q 423 471 396.5 461.5 Q 370 452 362 450 L 312 438 L 244 423 Q 240 422 188.5 411.5 Q 137 401 120 399 L 86 394 Q 61 392 83 376 Q 101 358 196 374 L 242 383 Z" />
      </clipPath>
      <path clip-path="url(#make-me-a-hanzi-clip-1)" d="M 82 385 L 161 386 L 419 447 L 481 447" fill="none" id="make-me-a-hanzi-animation-1" stroke-dasharray="534 1068" stroke-linecap="round" />
    
      <clipPath id="make-me-a-hanzi-clip-2">
        <path d="M 196 374 L 203 349 L 206 331 Q 206 319 208 288 L 210 255 Q 211 240 212 222 L 216 126 C 217 96 252 109 252 139 L 252 253 L 253 280 L 254 326 Q 254 341 258 353 Q 265 373 242 383 C 216 397 188 403 196 374 Z" />
      </clipPath>
      <path clip-path="url(#make-me-a-hanzi-clip-2)" d="M 205 370 L 230 349 L 231 335 L 233 152 L 220 133" fill="none" id="make-me-a-hanzi-animation-2" stroke-dasharray="381 762" stroke-linecap="round" />
    
      <clipPath id="make-me-a-hanzi-clip-3">
        <path d="M 252 253 L 302 263 Q 320 266 326 274 Q 331 282 322 287 Q 301 299 268 286 L 253 280 C 225 269 223 247 252 253 Z" />
      </clipPath>
      <path clip-path="url(#make-me-a-hanzi-clip-3)" d="M 257 260 L 267 270 L 315 278" fill="none" id="make-me-a-hanzi-animation-3" stroke-dasharray="191 382" stroke-linecap="round" />
    
      <clipPath id="make-me-a-hanzi-clip-4">
        <path d="M 166 108 L 164 212 Q 164 246 169 256 Q 173 265 172 271 Q 171 276 147 286 Q 123 295 113 295 Q 102 294 100 292 Q 98 289 101 281 L 109 263 L 118 217 L 128 98 C 131 68 167 78 166 108 Z" />
      </clipPath>
      <path clip-path="url(#make-me-a-hanzi-clip-4)" d="M 108 287 L 139 258 L 146 130 L 133 106" fill="none" id="make-me-a-hanzi-animation-4" stroke-dasharray="326 652" stroke-linecap="round" />
    
      <clipPath id="make-me-a-hanzi-clip-5">
        <path d="M 216 126 L 166 108 L 128 98 L 114 94 Q 111 94 88 96 L 72 98 Q 52 98 59 80 Q 63 71 78.5 58.5 Q 94 46 104.5 41 Q 115 36 121 36 Q 127 36 147 50.5 Q 167 65 244 99 L 283 117 Q 310 129 316 132 L 346 148 Q 355 153 350.5 160 Q 346 167 326 167 Q 299 163 279 150 L 252 139 L 216 126 Z" />
      </clipPath>
      <path clip-path="url(#make-me-a-hanzi-clip-5)" d="M 68 87 L 99 71 L 124 67 L 301 144 L 342 156" fill="none" id="make-me-a-hanzi-animation-5" stroke-dasharray="424 848" stroke-linecap="round" />
    
      <clipPath id="make-me-a-hanzi-clip-6">
        <path d="M 318 400 L 326 362 L 336 292 Q 362 149 404 86 Q 433 36 468 25 Q 483 20 492 24 Q 504 33 500 55.5 Q 496 78 496 127 L 498 162 L 498 196 Q 498 201 491.5 204.5 Q 485 208 483 197 L 476 170 Q 470 149 459 127 Q 452 110 435 132 Q 409 167 384 294 L 374 349 Q 370 384 366 412 L 362 450 L 358 498 Q 357 506 355.5 540 Q 354 574 356 583 L 357 601 Q 359 619 362.5 628 Q 366 637 365 640 Q 362 650 323.5 667.5 Q 285 685 276 673 Q 270 669 279.5 647 Q 289 625 297 558 L 312 438 L 318 400 Z" />
      </clipPath>
      <path clip-path="url(#make-me-a-hanzi-clip-6)" d="M 285 666 L 324 626 L 339 423 L 377 214 L 412 122 L 446 84 L 459 83 L 478 118 L 491 197" fill="none" id="make-me-a-hanzi-animation-6" stroke-dasharray="882 1764" stroke-linecap="round" />
    
      <clipPath id="make-me-a-hanzi-clip-7">
        <path d="M 396 584 Q 386 586 384 582.5 Q 382 579 388 572 L 402 556 Q 408 548 418 540 L 438 522 Q 480 483 490 521 Q 493 544 472 563 Q 463 572 412 582 L 396 584 Z" />
      </clipPath>
      <path clip-path="url(#make-me-a-hanzi-clip-7)" d="M 391 579 L 450 546 L 470 522" fill="none" id="make-me-a-hanzi-animation-7" stroke-dasharray="227 454" stroke-linecap="round" />
    
      <clipPath id="make-me-a-hanzi-clip-8">
        <path d="M 622 554 L 676 611 Q 702 638 711 650 Q 721 660 728 666 L 744 678 Q 751 682 751 687 Q 751 701 697 721 Q 676 730 669 722 Q 667 719 668 709 Q 668 698 664 682 Q 659 665 658 659 Q 656 653 636 623 L 612 580 L 594 555 C 576 531 601 532 622 554 Z" />
      </clipPath>
      <path clip-path="url(#make-me-a-hanzi-clip-8)" d="M 742 687 L 697 682 L 676 644 L 619 568 L 601 559" fill="none" id="make-me-a-hanzi-animation-8" stroke-dasharray="332 664" stroke-linecap="round" />
    
      <clipPath id="make-me-a-hanzi-clip-9">
        <path d="M 594 555 L 572 562 Q 542 571 537 563 Q 532 554 544 538 Q 556 521 556 491 L 556 470 L 550 343 Q 547 264 538 245 Q 529 225 532 213 L 538 200 Q 550 173 562 174 Q 568 175 583 184 C 589 186 589 197 590 227 L 592 284 L 593 304 L 596 370 L 597 396 L 599 433 Q 599 434 600 447 L 602 470 L 604 485 Q 607 510 610 527 C 614 549 614 549 594 555 Z" />
      </clipPath>
      <path clip-path="url(#make-me-a-hanzi-clip-9)" d="M 545 557 L 571 538 L 581 522 L 562 188" fill="none" id="make-me-a-hanzi-animation-9" stroke-dasharray="514 1028" stroke-linecap="round" />
    
      <clipPath id="make-me-a-hanzi-clip-10">
        <path d="M 762 388 L 766 378 Q 768 371 780 370 Q 800 365 812 398 L 822 423 L 844 483 Q 859 523 872 534 Q 880 543 881 546 Q 881 549 873 560 Q 864 568 843 580 Q 821 591 810 593 Q 798 595 774 589 L 746 580 Q 731 576 718 574 L 682 566 L 622 554 C 584 546 565 520 610 527 L 748 550 Q 769 552 778 552 Q 792 550 792 538 L 790 514 L 780 474 L 778 465 L 772 434 Q 770 430 764 409 C 760 394 760 394 762 388 Z" />
      </clipPath>
      <path clip-path="url(#make-me-a-hanzi-clip-10)" d="M 601 553 L 618 541 L 785 572 L 813 562 L 830 541 L 779 384" fill="none" id="make-me-a-hanzi-animation-10" stroke-dasharray="540 1080" stroke-linecap="round" />
    
      <clipPath id="make-me-a-hanzi-clip-11">
        <path d="M 600 447 L 628 445 Q 634 444 660 448 L 690 452 L 722 457 L 743 460 L 751 465 L 754 471 L 750 477 Q 751 479 746 480 Q 741 481 720 486 L 701 486 L 685 483 L 662 478 L 602 470 C 572 466 570 449 600 447 Z" />
      </clipPath>
      <path clip-path="url(#make-me-a-hanzi-clip-11)" d="M 607 452 L 614 459 L 747 471" fill="none" id="make-me-a-hanzi-animation-11" stroke-dasharray="271 542" stroke-linecap="round" />
    
      <clipPath id="make-me-a-hanzi-clip-12">
        <path d="M 596 370 L 618 370 Q 628 371 643 372 Q 657 372 676 376 L 712 381 L 740 384 Q 747 384 762 388 C 791 395 793 400 764 409 L 748 414 Q 740 418 728 418 L 704 414 Q 686 412 678 410 L 597 396 C 567 391 566 370 596 370 Z" />
      </clipPath>
      <path clip-path="url(#make-me-a-hanzi-clip-12)" d="M 602 376 L 620 386 L 758 404" fill="none" id="make-me-a-hanzi-animation-12" stroke-dasharray="288 576" stroke-linecap="round" />
    
      <clipPath id="make-me-a-hanzi-clip-13">
        <path d="M 592 284 L 609 280 Q 621 274 704 288 L 796 304 Q 832 308 832 318 Q 832 327 810 332 Q 787 336 784 339 Q 776 340 760 336 Q 744 332 739 332 L 714 327 Q 708 326 673 318 L 628 309 Q 618 308 593 304 C 563 299 563 291 592 284 Z" />
      </clipPath>
      <path clip-path="url(#make-me-a-hanzi-clip-13)" d="M 598 289 L 779 320 L 825 318" fill="none" id="make-me-a-hanzi-animation-13" stroke-dasharray="358 716" stroke-linecap="round" />
    
      <clipPath id="make-me-a-hanzi-clip-14">
        <path d="M 583 184 Q 598 192 619 196 L 660 204 L 705 211 Q 718 212 745 216 L 804 221 Q 863 226 874 218 Q 889 206 883 134 L 878 78 Q 870 20 859 -16 Q 847 -51 837 -60 Q 827 -68 818 -65 Q 809 -62 795 -55 L 750 -36 Q 742 -32 739 -35 Q 735 -38 741 -45 L 770 -84 Q 788 -110 789 -110 L 805 -139 Q 812 -150 818 -151 Q 824 -154 845 -141 Q 888 -117 906 -67 Q 924 -26 934 52 L 942 128 Q 945 178 964 210 Q 968 222 966 227 Q 963 232 936 252 Q 893 269 888 270 L 818 259 Q 789 255 760 251 L 680 241 Q 650 237 590 227 C 560 222 555 172 583 184 Z" />
      </clipPath>
      <path clip-path="url(#make-me-a-hanzi-clip-14)" d="M 586 190 L 608 211 L 622 215 L 828 242 L 884 243 L 921 214 L 900 28 L 887 -29 L 867 -75 L 831 -104 L 744 -39" fill="none" id="make-me-a-hanzi-animation-14" stroke-dasharray="934 1868" stroke-linecap="round" />
    
      <clipPath id="make-me-a-hanzi-clip-15">
        <path d="M 550 106 L 515 38 Q 509 26 508.5 6 Q 508 -14 520 -26 Q 534 -45 551 -22 Q 577 10 584 58 Q 584 91 576 107 L 570 122 Q 561 137 556 121 L 550 106 Z" />
      </clipPath>
      <path clip-path="url(#make-me-a-hanzi-clip-15)" d="M 563 115 L 556 55 L 535 2 L 535 -18" fill="none" id="make-me-a-hanzi-animation-15" stroke-dasharray="265 530" stroke-linecap="round" />
    
      <clipPath id="make-me-a-hanzi-clip-16">
        <path d="M 618 132 Q 604 141 604 128 L 608 116 L 616 88 Q 618 84 627 60.5 Q 636 37 644 30 Q 660 21 667.5 30 Q 675 39 676.5 64 Q 678 89 658 106 Q 651 112 637 121 L 618 132 Z" />
      </clipPath>
      <path clip-path="url(#make-me-a-hanzi-clip-16)" d="M 613 124 L 645 84 L 656 41" fill="none" id="make-me-a-hanzi-animation-16" stroke-dasharray="224 448" stroke-linecap="round" />
    
      <clipPath id="make-me-a-hanzi-clip-17">
        <path d="M 760 84 Q 760 101 750.5 113.5 Q 741 126 733.5 130.5 Q 726 135 708 144 L 692 149 Q 682 151 686 140 L 690 130 Q 694 117 698 110 L 710 86 L 718 74 Q 719 72 721.5 68 Q 724 64 726 63 Q 728 62 731.5 59 Q 735 56 743 56 Q 760 56 760 84 Z" />
      </clipPath>
      <path clip-path="url(#make-me-a-hanzi-clip-17)" d="M 694 141 L 728 103 L 743 71" fill="none" id="make-me-a-hanzi-animation-17" stroke-dasharray="214 428" stroke-linecap="round" />
    
      <clipPath id="make-me-a-hanzi-clip-18">
        <path d="M 776 167 Q 767 170 764 166.5 Q 761 163 766 156 L 775 140 L 803 99 Q 816 80 822 74 Q 830 68 840 68 Q 866 68 860 108 Q 859 123 847 134 Q 835 145 790 163 L 776 167 Z" />
      </clipPath>
      <path clip-path="url(#make-me-a-hanzi-clip-18)" d="M 770 162 L 827 115 L 842 87" fill="none" id="make-me-a-hanzi-animation-18" stroke-dasharray="234 468" stroke-linecap="round" />
    
  </g>
</svg>