<svg xmlns="http://www.w3.org/2000/svg" version="1.1" viewBox="0 0 1024 1024">
  <g stroke="lightgray" stroke-dasharray="1,1" stroke-width="1" transform="scale(4, 4)">
    <line x1="0" y1="0" x2="256" y2="256" />
    <line x1="256" y1="0" x2="0" y2="256" />
    <line x1="128" y1="0" x2="128" y2="256" />
    <line x1="0" y1="128" x2="256" y2="128" />
  </g>
  <g transform="scale(1.0, -1.0) translate(0.0, -827.50)">
    <style type="text/css">
      
        @keyframes keyframes0 {
          from {
            stroke: blue;
            stroke-dashoffset: 615;
            stroke-width: 128;
          }
          67% {
            animation-timing-function: step-end;
            stroke: blue;
            stroke-dashoffset: 0;
            stroke-width: 128;
          }
          to {
            stroke: black;
            stroke-width: 1024;
          }
        }
        #make-me-a-hanzi-animation-0 {
          animation: keyframes0 0.75048828125s both;
          animation-delay: 0s;
          animation-timing-function: linear;
        }
      
        @keyframes keyframes1 {
          from {
            stroke: blue;
            stroke-dashoffset: 856;
            stroke-width: 128;
          }
          74% {
            animation-timing-function: step-end;
            stroke: blue;
            stroke-dashoffset: 0;
            stroke-width: 128;
          }
          to {
            stroke: black;
            stroke-width: 1024;
          }
        }
        #make-me-a-hanzi-animation-1 {
          animation: keyframes1 0.9466145833333334s both;
          animation-delay: 0.75048828125s;
          animation-timing-function: linear;
        }
      
        @keyframes keyframes2 {
          from {
            stroke: blue;
            stroke-dashoffset: 466;
            stroke-width: 128;
          }
          60% {
            animation-timing-function: step-end;
            stroke: blue;
            stroke-dashoffset: 0;
            stroke-width: 128;
          }
          to {
            stroke: black;
            stroke-width: 1024;
          }
        }
        #make-me-a-hanzi-animation-2 {
          animation: keyframes2 0.6292317708333334s both;
          animation-delay: 1.6971028645833335s;
          animation-timing-function: linear;
        }
      
        @keyframes keyframes3 {
          from {
            stroke: blue;
            stroke-dashoffset: 469;
            stroke-width: 128;
          }
          60% {
            animation-timing-function: step-end;
            stroke: blue;
            stroke-dashoffset: 0;
            stroke-width: 128;
          }
          to {
            stroke: black;
            stroke-width: 1024;
          }
        }
        #make-me-a-hanzi-animation-3 {
          animation: keyframes3 0.6316731770833334s both;
          animation-delay: 2.326334635416667s;
          animation-timing-function: linear;
        }
      
        @keyframes keyframes4 {
          from {
            stroke: blue;
            stroke-dashoffset: 688;
            stroke-width: 128;
          }
          69% {
            animation-timing-function: step-end;
            stroke: blue;
            stroke-dashoffset: 0;
            stroke-width: 128;
          }
          to {
            stroke: black;
            stroke-width: 1024;
          }
        }
        #make-me-a-hanzi-animation-4 {
          animation: keyframes4 0.8098958333333334s both;
          animation-delay: 2.9580078125000004s;
          animation-timing-function: linear;
        }
      
        @keyframes keyframes5 {
          from {
            stroke: blue;
            stroke-dashoffset: 407;
            stroke-width: 128;
          }
          57% {
            animation-timing-function: step-end;
            stroke: blue;
            stroke-dashoffset: 0;
            stroke-width: 128;
          }
          to {
            stroke: black;
            stroke-width: 1024;
          }
        }
        #make-me-a-hanzi-animation-5 {
          animation: keyframes5 0.5812174479166666s both;
          animation-delay: 3.767903645833334s;
          animation-timing-function: linear;
        }
      
        @keyframes keyframes6 {
          from {
            stroke: blue;
            stroke-dashoffset: 409;
            stroke-width: 128;
          }
          57% {
            animation-timing-function: step-end;
            stroke: blue;
            stroke-dashoffset: 0;
            stroke-width: 128;
          }
          to {
            stroke: black;
            stroke-width: 1024;
          }
        }
        #make-me-a-hanzi-animation-6 {
          animation: keyframes6 0.5828450520833334s both;
          animation-delay: 4.349121093750001s;
          animation-timing-function: linear;
        }
      
        @keyframes keyframes7 {
          from {
            stroke: blue;
            stroke-dashoffset: 867;
            stroke-width: 128;
          }
          74% {
            animation-timing-function: step-end;
            stroke: blue;
            stroke-dashoffset: 0;
            stroke-width: 128;
          }
          to {
            stroke: black;
            stroke-width: 1024;
          }
        }
        #make-me-a-hanzi-animation-7 {
          animation: keyframes7 0.95556640625s both;
          animation-delay: 4.931966145833334s;
          animation-timing-function: linear;
        }
      
        @keyframes keyframes8 {
          from {
            stroke: blue;
            stroke-dashoffset: 459;
            stroke-width: 128;
          }
          60% {
            animation-timing-function: step-end;
            stroke: blue;
            stroke-dashoffset: 0;
            stroke-width: 128;
          }
          to {
            stroke: black;
            stroke-width: 1024;
          }
        }
        #make-me-a-hanzi-animation-8 {
          animation: keyframes8 0.62353515625s both;
          animation-delay: 5.887532552083334s;
          animation-timing-function: linear;
        }
      
        @keyframes keyframes9 {
          from {
            stroke: blue;
            stroke-dashoffset: 651;
            stroke-width: 128;
          }
          68% {
            animation-timing-function: step-end;
            stroke: blue;
            stroke-dashoffset: 0;
            stroke-width: 128;
          }
          to {
            stroke: black;
            stroke-width: 1024;
          }
        }
        #make-me-a-hanzi-animation-9 {
          animation: keyframes9 0.77978515625s both;
          animation-delay: 6.511067708333334s;
          animation-timing-function: linear;
        }
      
        @keyframes keyframes10 {
          from {
            stroke: blue;
            stroke-dashoffset: 657;
            stroke-width: 128;
          }
          68% {
            animation-timing-function: step-end;
            stroke: blue;
            stroke-dashoffset: 0;
            stroke-width: 128;
          }
          to {
            stroke: black;
            stroke-width: 1024;
          }
        }
        #make-me-a-hanzi-animation-10 {
          animation: keyframes10 0.78466796875s both;
          animation-delay: 7.290852864583334s;
          animation-timing-function: linear;
        }
      
        @keyframes keyframes11 {
          from {
            stroke: blue;
            stroke-dashoffset: 389;
            stroke-width: 128;
          }
          56% {
            animation-timing-function: step-end;
            stroke: blue;
            stroke-dashoffset: 0;
            stroke-width: 128;
          }
          to {
            stroke: black;
            stroke-width: 1024;
          }
        }
        #make-me-a-hanzi-animation-11 {
          animation: keyframes11 0.5665690104166666s both;
          animation-delay: 8.075520833333334s;
          animation-timing-function: linear;
        }
      
        @keyframes keyframes12 {
          from {
            stroke: blue;
            stroke-dashoffset: 399;
            stroke-width: 128;
          }
          56% {
            animation-timing-function: step-end;
            stroke: blue;
            stroke-dashoffset: 0;
            stroke-width: 128;
          }
          to {
            stroke: black;
            stroke-width: 1024;
          }
        }
        #make-me-a-hanzi-animation-12 {
          animation: keyframes12 0.57470703125s both;
          animation-delay: 8.64208984375s;
          animation-timing-function: linear;
        }
      
        @keyframes keyframes13 {
          from {
            stroke: blue;
            stroke-dashoffset: 461;
            stroke-width: 128;
          }
          60% {
            animation-timing-function: step-end;
            stroke: blue;
            stroke-dashoffset: 0;
            stroke-width: 128;
          }
          to {
            stroke: black;
            stroke-width: 1024;
          }
        }
        #make-me-a-hanzi-animation-13 {
          animation: keyframes13 0.6251627604166666s both;
          animation-delay: 9.216796875s;
          animation-timing-function: linear;
        }
      
        @keyframes keyframes14 {
          from {
            stroke: blue;
            stroke-dashoffset: 1069;
            stroke-width: 128;
          }
          78% {
            animation-timing-function: step-end;
            stroke: blue;
            stroke-dashoffset: 0;
            stroke-width: 128;
          }
          to {
            stroke: black;
            stroke-width: 1024;
          }
        }
        #make-me-a-hanzi-animation-14 {
          animation: keyframes14 1.1199544270833333s both;
          animation-delay: 9.841959635416666s;
          animation-timing-function: linear;
        }
      
        @keyframes keyframes15 {
          from {
            stroke: blue;
            stroke-dashoffset: 402;
            stroke-width: 128;
          }
          57% {
            animation-timing-function: step-end;
            stroke: blue;
            stroke-dashoffset: 0;
            stroke-width: 128;
          }
          to {
            stroke: black;
            stroke-width: 1024;
          }
        }
        #make-me-a-hanzi-animation-15 {
          animation: keyframes15 0.5771484375s both;
          animation-delay: 10.9619140625s;
          animation-timing-function: linear;
        }
      
        @keyframes keyframes16 {
          from {
            stroke: blue;
            stroke-dashoffset: 355;
            stroke-width: 128;
          }
          54% {
            animation-timing-function: step-end;
            stroke: blue;
            stroke-dashoffset: 0;
            stroke-width: 128;
          }
          to {
            stroke: black;
            stroke-width: 1024;
          }
        }
        #make-me-a-hanzi-animation-16 {
          animation: keyframes16 0.5388997395833334s both;
          animation-delay: 11.5390625s;
          animation-timing-function: linear;
        }
      
        @keyframes keyframes17 {
          from {
            stroke: blue;
            stroke-dashoffset: 342;
            stroke-width: 128;
          }
          53% {
            animation-timing-function: step-end;
            stroke: blue;
            stroke-dashoffset: 0;
            stroke-width: 128;
          }
          to {
            stroke: black;
            stroke-width: 1024;
          }
        }
        #make-me-a-hanzi-animation-17 {
          animation: keyframes17 0.5283203125s both;
          animation-delay: 12.077962239583334s;
          animation-timing-function: linear;
        }
      
        @keyframes keyframes18 {
          from {
            stroke: blue;
            stroke-dashoffset: 378;
            stroke-width: 128;
          }
          55% {
            animation-timing-function: step-end;
            stroke: blue;
            stroke-dashoffset: 0;
            stroke-width: 128;
          }
          to {
            stroke: black;
            stroke-width: 1024;
          }
        }
        #make-me-a-hanzi-animation-18 {
          animation: keyframes18 0.5576171875s both;
          animation-delay: 12.606282552083334s;
          animation-timing-function: linear;
        }
      
    </style>
    
      <path d="M 323 502 L 424 520 L 461 528 Q 499 538 500 545 Q 501 552 492 559 Q 465 577 445 574 Q 415 564 385 557 L 340 547 L 285 536 L 231 526 Q 226 526 175 518 L 140 514 Q 134 513 132.5 508.5 Q 131 504 143 494.5 Q 155 485 186 485 Q 217 485 232 488 Q 244 488 262 494 L 323 502 Z" fill="lightgray" />
    
      <path d="M 175 306 L 199 331 Q 254 388 286 441 L 323 502 L 340 547 L 352 574 Q 356 580 370.5 621 Q 385 662 395.5 673.5 Q 406 685 395 696 Q 384 707 372 713 Q 331 737 314 730 Q 311 728 311 718 L 315 699 Q 322 650 285 536 L 262 494 L 244 461 Q 201 382 109 290 L 80 264 L 55 246 Q 49 240 52 236 Q 55 232 62 236 L 92 250 Q 105 256 117 264 L 158 292 L 175 306 Z" fill="lightgray" />
    
      <path d="M 475 377 Q 488 366 499 362 Q 534 347 538 383 Q 544 414 504 439 Q 454 473 370 488 L 343 494 Q 333 495 331 490 Q 329 485 336 481 L 475 377 Z" fill="lightgray" />
    
      <path d="M 208 301 L 195 303 Q 191 304 175 306 C 145 310 145 310 158 292 L 170 276 Q 179 267 186 232 L 201 143 Q 202 133 207 117 Q 216 84 229 88 Q 241 92 246 109 L 246 135 L 242 163 Q 239 190 237 213 Q 234 236 231 256 Q 227 275 227 276 C 223 299 223 299 208 301 Z" fill="lightgray" />
    
      <path d="M 404 131 L 413 121 Q 414 119 424 117 Q 445 117 453 138 Q 457 147 461 160 L 483 237 Q 487 256 492 262 L 498 274 Q 501 284 512 298 Q 513 301 506 311 Q 499 320 491 324 Q 482 328 475 333 Q 467 337 459 341 Q 451 344 446 344 Q 440 344 428 341 L 398 334 Q 380 331 379 330 L 352 325 L 301 315 L 252 306 L 208 301 C 178 298 198 270 227 276 L 264 283 Q 268 283 301 288 L 352 297 L 408 305 Q 432 307 429 283 Q 428 272 425 249 Q 422 226 419 211 Q 416 196 415 190 Q 414 183 407 158 C 401 135 401 135 404 131 Z" fill="lightgray" />
    
      <path d="M 301 233 Q 289 230 269.5 226.5 Q 250 223 246 218.5 Q 242 214 250 209 Q 271 195 301 203 L 348 213 L 369 218 Q 370 218 374 219 Q 378 220 381 220.5 Q 384 221 393.5 223.5 Q 403 226 407 227.5 Q 411 229 412 235 Q 412 241 409 245 Q 400 250 389 253 Q 378 256 375 255 L 361 250 Q 354 248 348 247 L 301 233 Z" fill="lightgray" />
    
      <path d="M 246 109 L 272 112 Q 276 114 299 115 L 344 123 L 404 131 C 434 135 436 152 407 158 Q 373 166 344 156 L 301 143 L 246 135 C 216 131 216 106 246 109 Z" fill="lightgray" />
    
      <path d="M 299 115 L 296 47 L 292 12 Q 289 -10 286 -23 L 283 -35 Q 282 -39 287.5 -56.5 Q 293 -74 301 -82 Q 308 -94 314 -93 Q 320 -92 328 -83 L 348 -59 L 450 37 Q 459 46 455 50 Q 453 56 444 50 L 360 8 Q 341 0 340 3 Q 339 6 340 17 L 340 41 L 344 123 L 344 156 L 348 213 L 348 247 L 352 297 L 352 325 L 355 348 Q 357 364 361 373.5 Q 365 383 364 386 Q 360 400 323.5 413 Q 287 426 278 416 Q 275 412 281 399 L 290 379 Q 294 366 301 315 L 301 288 L 301 233 L 301 203 L 301 143 L 299 115 Z" fill="lightgray" />
    
      <path d="M 659 590 L 685 618 Q 697 630 709 644 Q 718 652 742 679 Q 759 696 764 700 L 782 713 L 786 717 Q 792 730 764 743 Q 753 748 744 753 Q 735 757 729 760 Q 723 762 715 761 Q 706 759 704 757 Q 702 755 702 739 Q 702 723 690 692 Q 678 660 659 633 Q 640 605 631 592 C 614 567 639 568 659 590 Z" fill="lightgray" />
    
      <path d="M 633 429 L 635 472 L 635 475 L 637 485 L 639 508 L 641 520 L 643 547 Q 645 554 646 563 C 650 587 650 587 631 592 L 608 598 Q 597 602 587 602 Q 576 602 570 599 Q 563 595 576 577 Q 589 558 591 551 Q 592 543 592 524 L 592 504 L 586 375 Q 582 342 582 327 Q 581 311 575 292 Q 574 278 569 270 Q 564 261 564 258 Q 563 254 570 238 Q 576 221 586 212 Q 595 202 613 211 C 622 214 623 230 625 260 L 628 314 L 629 334 L 632 401 L 633 429 Z" fill="lightgray" />
    
      <path d="M 646 563 L 774 588 Q 805 591 809 586 Q 812 580 811 569 L 809 554 Q 803 522 791 474 L 784 446 C 778 422 778 422 782 418 L 799 401 Q 802 396 812 404 Q 822 411 829 422 Q 837 442 842 457 L 870 534 Q 876 544 877 547 L 887 563 Q 897 577 903 583 Q 905 588 895 595 Q 885 602 856 617 Q 826 631 815 631 Q 803 631 785 624 Q 767 617 760 615 L 729 606 Q 714 601 708 601 L 659 590 C 621 581 601 554 646 563 Z" fill="lightgray" />
    
      <path d="M 637 485 L 658 483 Q 667 481 698 487 L 755 498 Q 768 501 772 503 Q 790 508 775 520 Q 768 526 754 527 L 740 527 L 705 520 L 639 508 C 609 503 607 488 637 485 Z" fill="lightgray" />
    
      <path d="M 709 442 L 633 429 C 603 424 602 399 632 401 L 647 402 L 667 403 Q 669 403 683 405 Q 697 407 707 408 L 745 412 L 782 418 C 812 423 812 436 784 446 Q 770 451 763 451 Q 756 451 709 442 Z" fill="lightgray" />
    
      <path d="M 628 314 L 641 309 Q 648 307 699 313 Q 750 319 776 328 L 809 333 Q 840 338 843 347 Q 845 355 819 364 Q 792 372 787 370 Q 781 368 772 367 L 758 362 L 734 356 L 723 354 Q 712 351 702 349 L 662 340 Q 652 338 629 334 C 599 329 600 325 628 314 Z" fill="lightgray" />
    
      <path d="M 613 211 Q 631 219 651 225 L 688 232 Q 734 240 739 242 Q 743 243 748 244 Q 753 245 764 246 Q 774 247 784 248 L 829 252 Q 892 256 900 250 Q 908 243 911 219 Q 914 194 911 162 L 905 105 Q 902 38 870 -23 Q 857 -45 843 -40 Q 839 -38 821 -31 L 795 -18 L 774 -10 Q 767 -9 764 -10 Q 760 -13 766 -20 L 780 -39 Q 784 -46 791 -54 Q 798 -62 798 -63 Q 798 -64 801 -69 Q 804 -74 807 -78 Q 809 -82 811 -86 L 830 -116 Q 837 -127 845 -129 Q 852 -131 872 -119 Q 892 -106 908 -91 Q 923 -75 936 -42 Q 949 -8 965 80 L 971 157 Q 972 185 984 219 L 993 241 Q 998 251 998 255 Q 997 258 987 267 Q 976 275 956 284 Q 936 293 934 294 L 913 301 L 625 260 C 595 256 585 199 613 211 Z" fill="lightgray" />
    
      <path d="M 547 168 Q 544 174 538.5 174 Q 533 174 532 167 L 527 152 Q 526 145 518 130 L 510 110 Q 507 105 498 86 Q 489 67 488 60.5 Q 487 54 490 38.5 Q 493 23 502 14 Q 522 -7 544 41 Q 572 103 552 154 L 547 168 Z" fill="lightgray" />
    
      <path d="M 604 162 Q 599 164 597.5 161.5 Q 596 159 598 152 L 602 141 L 609 120 L 623 94 Q 635 74 639 70 Q 655 53 667 70 Q 674 79 676 92 Q 676 116 666.5 125.5 Q 657 135 641 145 L 620 156 L 604 162 Z" fill="lightgray" />
    
      <path d="M 692 177 Q 682 179 686 168 L 699 137 L 713 111 Q 737 65 761 89 Q 780 116 749 148 Q 738 158 709 171 L 692 177 Z" fill="lightgray" />
    
      <path d="M 783 197 Q 775 199 772 196 Q 770 191 774 184 L 784 168 L 799 146 Q 802 142 806 136.5 Q 810 131 813 127 Q 816 123 818 119 Q 835 90 854 88 Q 864 86 868 90 Q 879 98 879 132 Q 879 141 871 152 Q 861 170 825 182 Q 819 184 811 188 Q 803 192 799 193 L 783 197 Z" fill="lightgray" />
    
    
      <clipPath id="make-me-a-hanzi-clip-0">
        <path d="M 323 502 L 424 520 L 461 528 Q 499 538 500 545 Q 501 552 492 559 Q 465 577 445 574 Q 415 564 385 557 L 340 547 L 285 536 L 231 526 Q 226 526 175 518 L 140 514 Q 134 513 132.5 508.5 Q 131 504 143 494.5 Q 155 485 186 485 Q 217 485 232 488 Q 244 488 262 494 L 323 502 Z" />
      </clipPath>
      <path clip-path="url(#make-me-a-hanzi-clip-0)" d="M 139 507 L 195 502 L 313 520 L 456 551 L 493 547" fill="none" id="make-me-a-hanzi-animation-0" stroke-dasharray="487 974" stroke-linecap="round" />
    
      <clipPath id="make-me-a-hanzi-clip-1">
        <path d="M 175 306 L 199 331 Q 254 388 286 441 L 323 502 L 340 547 L 352 574 Q 356 580 370.5 621 Q 385 662 395.5 673.5 Q 406 685 395 696 Q 384 707 372 713 Q 331 737 314 730 Q 311 728 311 718 L 315 699 Q 322 650 285 536 L 262 494 L 244 461 Q 201 382 109 290 L 80 264 L 55 246 Q 49 240 52 236 Q 55 232 62 236 L 92 250 Q 105 256 117 264 L 158 292 L 175 306 Z" />
      </clipPath>
      <path clip-path="url(#make-me-a-hanzi-clip-1)" d="M 320 722 L 354 678 L 335 606 L 299 508 L 241 412 L 174 331 L 134 293 L 57 240" fill="none" id="make-me-a-hanzi-animation-1" stroke-dasharray="728 1456" stroke-linecap="round" />
    
      <clipPath id="make-me-a-hanzi-clip-2">
        <path d="M 475 377 Q 488 366 499 362 Q 534 347 538 383 Q 544 414 504 439 Q 454 473 370 488 L 343 494 Q 333 495 331 490 Q 329 485 336 481 L 475 377 Z" />
      </clipPath>
      <path clip-path="url(#make-me-a-hanzi-clip-2)" d="M 338 488 L 471 422 L 505 396 L 515 380" fill="none" id="make-me-a-hanzi-animation-2" stroke-dasharray="338 676" stroke-linecap="round" />
    
      <clipPath id="make-me-a-hanzi-clip-3">
        <path d="M 208 301 L 195 303 Q 191 304 175 306 C 145 310 145 310 158 292 L 170 276 Q 179 267 186 232 L 201 143 Q 202 133 207 117 Q 216 84 229 88 Q 241 92 246 109 L 246 135 L 242 163 Q 239 190 237 213 Q 234 236 231 256 Q 227 275 227 276 C 223 299 223 299 208 301 Z" />
      </clipPath>
      <path clip-path="url(#make-me-a-hanzi-clip-3)" d="M 166 291 L 196 279 L 206 259 L 227 102" fill="none" id="make-me-a-hanzi-animation-3" stroke-dasharray="341 682" stroke-linecap="round" />
    
      <clipPath id="make-me-a-hanzi-clip-4">
        <path d="M 404 131 L 413 121 Q 414 119 424 117 Q 445 117 453 138 Q 457 147 461 160 L 483 237 Q 487 256 492 262 L 498 274 Q 501 284 512 298 Q 513 301 506 311 Q 499 320 491 324 Q 482 328 475 333 Q 467 337 459 341 Q 451 344 446 344 Q 440 344 428 341 L 398 334 Q 380 331 379 330 L 352 325 L 301 315 L 252 306 L 208 301 C 178 298 198 270 227 276 L 264 283 Q 268 283 301 288 L 352 297 L 408 305 Q 432 307 429 283 Q 428 272 425 249 Q 422 226 419 211 Q 416 196 415 190 Q 414 183 407 158 C 401 135 401 135 404 131 Z" />
      </clipPath>
      <path clip-path="url(#make-me-a-hanzi-clip-4)" d="M 216 297 L 232 291 L 256 293 L 409 322 L 446 317 L 466 294 L 442 186 L 428 141 L 420 136" fill="none" id="make-me-a-hanzi-animation-4" stroke-dasharray="560 1120" stroke-linecap="round" />
    
      <clipPath id="make-me-a-hanzi-clip-5">
        <path d="M 301 233 Q 289 230 269.5 226.5 Q 250 223 246 218.5 Q 242 214 250 209 Q 271 195 301 203 L 348 213 L 369 218 Q 370 218 374 219 Q 378 220 381 220.5 Q 384 221 393.5 223.5 Q 403 226 407 227.5 Q 411 229 412 235 Q 412 241 409 245 Q 400 250 389 253 Q 378 256 375 255 L 361 250 Q 354 248 348 247 L 301 233 Z" />
      </clipPath>
      <path clip-path="url(#make-me-a-hanzi-clip-5)" d="M 253 216 L 278 214 L 374 237 L 401 237" fill="none" id="make-me-a-hanzi-animation-5" stroke-dasharray="279 558" stroke-linecap="round" />
    
      <clipPath id="make-me-a-hanzi-clip-6">
        <path d="M 246 109 L 272 112 Q 276 114 299 115 L 344 123 L 404 131 C 434 135 436 152 407 158 Q 373 166 344 156 L 301 143 L 246 135 C 216 131 216 106 246 109 Z" />
      </clipPath>
      <path clip-path="url(#make-me-a-hanzi-clip-6)" d="M 252 116 L 259 124 L 390 145 L 397 152" fill="none" id="make-me-a-hanzi-animation-6" stroke-dasharray="281 562" stroke-linecap="round" />
    
      <clipPath id="make-me-a-hanzi-clip-7">
        <path d="M 299 115 L 296 47 L 292 12 Q 289 -10 286 -23 L 283 -35 Q 282 -39 287.5 -56.5 Q 293 -74 301 -82 Q 308 -94 314 -93 Q 320 -92 328 -83 L 348 -59 L 450 37 Q 459 46 455 50 Q 453 56 444 50 L 360 8 Q 341 0 340 3 Q 339 6 340 17 L 340 41 L 344 123 L 344 156 L 348 213 L 348 247 L 352 297 L 352 325 L 355 348 Q 357 364 361 373.5 Q 365 383 364 386 Q 360 400 323.5 413 Q 287 426 278 416 Q 275 412 281 399 L 290 379 Q 294 366 301 315 L 301 288 L 301 233 L 301 203 L 301 143 L 299 115 Z" />
      </clipPath>
      <path clip-path="url(#make-me-a-hanzi-clip-7)" d="M 285 412 L 326 374 L 315 2 L 323 -31 L 361 -16 L 450 45" fill="none" id="make-me-a-hanzi-animation-7" stroke-dasharray="739 1478" stroke-linecap="round" />
    
      <clipPath id="make-me-a-hanzi-clip-8">
        <path d="M 659 590 L 685 618 Q 697 630 709 644 Q 718 652 742 679 Q 759 696 764 700 L 782 713 L 786 717 Q 792 730 764 743 Q 753 748 744 753 Q 735 757 729 760 Q 723 762 715 761 Q 706 759 704 757 Q 702 755 702 739 Q 702 723 690 692 Q 678 660 659 633 Q 640 605 631 592 C 614 567 639 568 659 590 Z" />
      </clipPath>
      <path clip-path="url(#make-me-a-hanzi-clip-8)" d="M 777 722 L 733 718 L 671 623 L 653 601 L 638 593" fill="none" id="make-me-a-hanzi-animation-8" stroke-dasharray="331 662" stroke-linecap="round" />
    
      <clipPath id="make-me-a-hanzi-clip-9">
        <path d="M 633 429 L 635 472 L 635 475 L 637 485 L 639 508 L 641 520 L 643 547 Q 645 554 646 563 C 650 587 650 587 631 592 L 608 598 Q 597 602 587 602 Q 576 602 570 599 Q 563 595 576 577 Q 589 558 591 551 Q 592 543 592 524 L 592 504 L 586 375 Q 582 342 582 327 Q 581 311 575 292 Q 574 278 569 270 Q 564 261 564 258 Q 563 254 570 238 Q 576 221 586 212 Q 595 202 613 211 C 622 214 623 230 625 260 L 628 314 L 629 334 L 632 401 L 633 429 Z" />
      </clipPath>
      <path clip-path="url(#make-me-a-hanzi-clip-9)" d="M 576 593 L 608 573 L 617 557 L 606 339 L 594 254 L 602 220" fill="none" id="make-me-a-hanzi-animation-9" stroke-dasharray="523 1046" stroke-linecap="round" />
    
      <clipPath id="make-me-a-hanzi-clip-10">
        <path d="M 646 563 L 774 588 Q 805 591 809 586 Q 812 580 811 569 L 809 554 Q 803 522 791 474 L 784 446 C 778 422 778 422 782 418 L 799 401 Q 802 396 812 404 Q 822 411 829 422 Q 837 442 842 457 L 870 534 Q 876 544 877 547 L 887 563 Q 897 577 903 583 Q 905 588 895 595 Q 885 602 856 617 Q 826 631 815 631 Q 803 631 785 624 Q 767 617 760 615 L 729 606 Q 714 601 708 601 L 659 590 C 621 581 601 554 646 563 Z" />
      </clipPath>
      <path clip-path="url(#make-me-a-hanzi-clip-10)" d="M 638 589 L 654 578 L 799 609 L 823 605 L 835 596 L 850 577 L 803 414" fill="none" id="make-me-a-hanzi-animation-10" stroke-dasharray="529 1058" stroke-linecap="round" />
    
      <clipPath id="make-me-a-hanzi-clip-11">
        <path d="M 637 485 L 658 483 Q 667 481 698 487 L 755 498 Q 768 501 772 503 Q 790 508 775 520 Q 768 526 754 527 L 740 527 L 705 520 L 639 508 C 609 503 607 488 637 485 Z" />
      </clipPath>
      <path clip-path="url(#make-me-a-hanzi-clip-11)" d="M 643 490 L 652 497 L 773 512" fill="none" id="make-me-a-hanzi-animation-11" stroke-dasharray="261 522" stroke-linecap="round" />
    
      <clipPath id="make-me-a-hanzi-clip-12">
        <path d="M 709 442 L 633 429 C 603 424 602 399 632 401 L 647 402 L 667 403 Q 669 403 683 405 Q 697 407 707 408 L 745 412 L 782 418 C 812 423 812 436 784 446 Q 770 451 763 451 Q 756 451 709 442 Z" />
      </clipPath>
      <path clip-path="url(#make-me-a-hanzi-clip-12)" d="M 639 408 L 647 417 L 761 432 L 775 440" fill="none" id="make-me-a-hanzi-animation-12" stroke-dasharray="271 542" stroke-linecap="round" />
    
      <clipPath id="make-me-a-hanzi-clip-13">
        <path d="M 628 314 L 641 309 Q 648 307 699 313 Q 750 319 776 328 L 809 333 Q 840 338 843 347 Q 845 355 819 364 Q 792 372 787 370 Q 781 368 772 367 L 758 362 L 734 356 L 723 354 Q 712 351 702 349 L 662 340 Q 652 338 629 334 C 599 329 600 325 628 314 Z" />
      </clipPath>
      <path clip-path="url(#make-me-a-hanzi-clip-13)" d="M 637 329 L 642 323 L 666 324 L 783 350 L 836 348" fill="none" id="make-me-a-hanzi-animation-13" stroke-dasharray="333 666" stroke-linecap="round" />
    
      <clipPath id="make-me-a-hanzi-clip-14">
        <path d="M 613 211 Q 631 219 651 225 L 688 232 Q 734 240 739 242 Q 743 243 748 244 Q 753 245 764 246 Q 774 247 784 248 L 829 252 Q 892 256 900 250 Q 908 243 911 219 Q 914 194 911 162 L 905 105 Q 902 38 870 -23 Q 857 -45 843 -40 Q 839 -38 821 -31 L 795 -18 L 774 -10 Q 767 -9 764 -10 Q 760 -13 766 -20 L 780 -39 Q 784 -46 791 -54 Q 798 -62 798 -63 Q 798 -64 801 -69 Q 804 -74 807 -78 Q 809 -82 811 -86 L 830 -116 Q 837 -127 845 -129 Q 852 -131 872 -119 Q 892 -106 908 -91 Q 923 -75 936 -42 Q 949 -8 965 80 L 971 157 Q 972 185 984 219 L 993 241 Q 998 251 998 255 Q 997 258 987 267 Q 976 275 956 284 Q 936 293 934 294 L 913 301 L 625 260 C 595 256 585 199 613 211 Z" />
      </clipPath>
      <path clip-path="url(#make-me-a-hanzi-clip-14)" d="M 618 216 L 641 242 L 847 273 L 910 274 L 935 258 L 949 240 L 934 75 L 914 -7 L 895 -48 L 877 -69 L 855 -79 L 769 -14" fill="none" id="make-me-a-hanzi-animation-14" stroke-dasharray="941 1882" stroke-linecap="round" />
    
      <clipPath id="make-me-a-hanzi-clip-15">
        <path d="M 547 168 Q 544 174 538.5 174 Q 533 174 532 167 L 527 152 Q 526 145 518 130 L 510 110 Q 507 105 498 86 Q 489 67 488 60.5 Q 487 54 490 38.5 Q 493 23 502 14 Q 522 -7 544 41 Q 572 103 552 154 L 547 168 Z" />
      </clipPath>
      <path clip-path="url(#make-me-a-hanzi-clip-15)" d="M 540 166 L 535 106 L 518 56 L 514 23" fill="none" id="make-me-a-hanzi-animation-15" stroke-dasharray="274 548" stroke-linecap="round" />
    
      <clipPath id="make-me-a-hanzi-clip-16">
        <path d="M 604 162 Q 599 164 597.5 161.5 Q 596 159 598 152 L 602 141 L 609 120 L 623 94 Q 635 74 639 70 Q 655 53 667 70 Q 674 79 676 92 Q 676 116 666.5 125.5 Q 657 135 641 145 L 620 156 L 604 162 Z" />
      </clipPath>
      <path clip-path="url(#make-me-a-hanzi-clip-16)" d="M 601 157 L 648 105 L 653 77" fill="none" id="make-me-a-hanzi-animation-16" stroke-dasharray="227 454" stroke-linecap="round" />
    
      <clipPath id="make-me-a-hanzi-clip-17">
        <path d="M 692 177 Q 682 179 686 168 L 699 137 L 713 111 Q 737 65 761 89 Q 780 116 749 148 Q 738 158 709 171 L 692 177 Z" />
      </clipPath>
      <path clip-path="url(#make-me-a-hanzi-clip-17)" d="M 694 169 L 736 125 L 745 101" fill="none" id="make-me-a-hanzi-animation-17" stroke-dasharray="214 428" stroke-linecap="round" />
    
      <clipPath id="make-me-a-hanzi-clip-18">
        <path d="M 783 197 Q 775 199 772 196 Q 770 191 774 184 L 784 168 L 799 146 Q 802 142 806 136.5 Q 810 131 813 127 Q 816 123 818 119 Q 835 90 854 88 Q 864 86 868 90 Q 879 98 879 132 Q 879 141 871 152 Q 861 170 825 182 Q 819 184 811 188 Q 803 192 799 193 L 783 197 Z" />
      </clipPath>
      <path clip-path="url(#make-me-a-hanzi-clip-18)" d="M 778 191 L 843 138 L 859 103" fill="none" id="make-me-a-hanzi-animation-18" stroke-dasharray="250 500" stroke-linecap="round" />
    
  </g>
</svg>