<svg xmlns="http://www.w3.org/2000/svg" version="1.1" viewBox="0 0 1024 1024">
  <g stroke="lightgray" stroke-dasharray="1,1" stroke-width="1" transform="scale(4, 4)">
    <line x1="0" y1="0" x2="256" y2="256" />
    <line x1="256" y1="0" x2="0" y2="256" />
    <line x1="128" y1="0" x2="128" y2="256" />
    <line x1="0" y1="128" x2="256" y2="128" />
  </g>
  <g transform="scale(1.0, -1.0) translate(0.0, -808.50)">
    <style type="text/css">
      
        @keyframes keyframes0 {
          from {
            stroke: blue;
            stroke-dashoffset: 602;
            stroke-width: 128;
          }
          66% {
            animation-timing-function: step-end;
            stroke: blue;
            stroke-dashoffset: 0;
            stroke-width: 128;
          }
          to {
            stroke: black;
            stroke-width: 1024;
          }
        }
        #make-me-a-hanzi-animation-0 {
          animation: keyframes0 0.7399088541666666s both;
          animation-delay: 0s;
          animation-timing-function: linear;
        }
      
        @keyframes keyframes1 {
          from {
            stroke: blue;
            stroke-dashoffset: 341;
            stroke-width: 128;
          }
          53% {
            animation-timing-function: step-end;
            stroke: blue;
            stroke-dashoffset: 0;
            stroke-width: 128;
          }
          to {
            stroke: black;
            stroke-width: 1024;
          }
        }
        #make-me-a-hanzi-animation-1 {
          animation: keyframes1 0.5275065104166666s both;
          animation-delay: 0.7399088541666666s;
          animation-timing-function: linear;
        }
      
        @keyframes keyframes2 {
          from {
            stroke: blue;
            stroke-dashoffset: 728;
            stroke-width: 128;
          }
          70% {
            animation-timing-function: step-end;
            stroke: blue;
            stroke-dashoffset: 0;
            stroke-width: 128;
          }
          to {
            stroke: black;
            stroke-width: 1024;
          }
        }
        #make-me-a-hanzi-animation-2 {
          animation: keyframes2 0.8424479166666666s both;
          animation-delay: 1.2674153645833333s;
          animation-timing-function: linear;
        }
      
        @keyframes keyframes3 {
          from {
            stroke: blue;
            stroke-dashoffset: 483;
            stroke-width: 128;
          }
          61% {
            animation-timing-function: step-end;
            stroke: blue;
            stroke-dashoffset: 0;
            stroke-width: 128;
          }
          to {
            stroke: black;
            stroke-width: 1024;
          }
        }
        #make-me-a-hanzi-animation-3 {
          animation: keyframes3 0.64306640625s both;
          animation-delay: 2.10986328125s;
          animation-timing-function: linear;
        }
      
        @keyframes keyframes4 {
          from {
            stroke: blue;
            stroke-dashoffset: 574;
            stroke-width: 128;
          }
          65% {
            animation-timing-function: step-end;
            stroke: blue;
            stroke-dashoffset: 0;
            stroke-width: 128;
          }
          to {
            stroke: black;
            stroke-width: 1024;
          }
        }
        #make-me-a-hanzi-animation-4 {
          animation: keyframes4 0.7171223958333334s both;
          animation-delay: 2.7529296875s;
          animation-timing-function: linear;
        }
      
        @keyframes keyframes5 {
          from {
            stroke: blue;
            stroke-dashoffset: 495;
            stroke-width: 128;
          }
          62% {
            animation-timing-function: step-end;
            stroke: blue;
            stroke-dashoffset: 0;
            stroke-width: 128;
          }
          to {
            stroke: black;
            stroke-width: 1024;
          }
        }
        #make-me-a-hanzi-animation-5 {
          animation: keyframes5 0.65283203125s both;
          animation-delay: 3.4700520833333335s;
          animation-timing-function: linear;
        }
      
        @keyframes keyframes6 {
          from {
            stroke: blue;
            stroke-dashoffset: 507;
            stroke-width: 128;
          }
          62% {
            animation-timing-function: step-end;
            stroke: blue;
            stroke-dashoffset: 0;
            stroke-width: 128;
          }
          to {
            stroke: black;
            stroke-width: 1024;
          }
        }
        #make-me-a-hanzi-animation-6 {
          animation: keyframes6 0.66259765625s both;
          animation-delay: 4.122884114583334s;
          animation-timing-function: linear;
        }
      
        @keyframes keyframes7 {
          from {
            stroke: blue;
            stroke-dashoffset: 572;
            stroke-width: 128;
          }
          65% {
            animation-timing-function: step-end;
            stroke: blue;
            stroke-dashoffset: 0;
            stroke-width: 128;
          }
          to {
            stroke: black;
            stroke-width: 1024;
          }
        }
        #make-me-a-hanzi-animation-7 {
          animation: keyframes7 0.7154947916666666s both;
          animation-delay: 4.785481770833334s;
          animation-timing-function: linear;
        }
      
        @keyframes keyframes8 {
          from {
            stroke: blue;
            stroke-dashoffset: 631;
            stroke-width: 128;
          }
          67% {
            animation-timing-function: step-end;
            stroke: blue;
            stroke-dashoffset: 0;
            stroke-width: 128;
          }
          to {
            stroke: black;
            stroke-width: 1024;
          }
        }
        #make-me-a-hanzi-animation-8 {
          animation: keyframes8 0.7635091145833334s both;
          animation-delay: 5.500976562500001s;
          animation-timing-function: linear;
        }
      
        @keyframes keyframes9 {
          from {
            stroke: blue;
            stroke-dashoffset: 399;
            stroke-width: 128;
          }
          56% {
            animation-timing-function: step-end;
            stroke: blue;
            stroke-dashoffset: 0;
            stroke-width: 128;
          }
          to {
            stroke: black;
            stroke-width: 1024;
          }
        }
        #make-me-a-hanzi-animation-9 {
          animation: keyframes9 0.57470703125s both;
          animation-delay: 6.264485677083334s;
          animation-timing-function: linear;
        }
      
        @keyframes keyframes10 {
          from {
            stroke: blue;
            stroke-dashoffset: 577;
            stroke-width: 128;
          }
          65% {
            animation-timing-function: step-end;
            stroke: blue;
            stroke-dashoffset: 0;
            stroke-width: 128;
          }
          to {
            stroke: black;
            stroke-width: 1024;
          }
        }
        #make-me-a-hanzi-animation-10 {
          animation: keyframes10 0.7195638020833334s both;
          animation-delay: 6.839192708333334s;
          animation-timing-function: linear;
        }
      
        @keyframes keyframes11 {
          from {
            stroke: blue;
            stroke-dashoffset: 632;
            stroke-width: 128;
          }
          67% {
            animation-timing-function: step-end;
            stroke: blue;
            stroke-dashoffset: 0;
            stroke-width: 128;
          }
          to {
            stroke: black;
            stroke-width: 1024;
          }
        }
        #make-me-a-hanzi-animation-11 {
          animation: keyframes11 0.7643229166666666s both;
          animation-delay: 7.558756510416667s;
          animation-timing-function: linear;
        }
      
        @keyframes keyframes12 {
          from {
            stroke: blue;
            stroke-dashoffset: 445;
            stroke-width: 128;
          }
          59% {
            animation-timing-function: step-end;
            stroke: blue;
            stroke-dashoffset: 0;
            stroke-width: 128;
          }
          to {
            stroke: black;
            stroke-width: 1024;
          }
        }
        #make-me-a-hanzi-animation-12 {
          animation: keyframes12 0.6121419270833334s both;
          animation-delay: 8.323079427083334s;
          animation-timing-function: linear;
        }
      
        @keyframes keyframes13 {
          from {
            stroke: blue;
            stroke-dashoffset: 431;
            stroke-width: 128;
          }
          58% {
            animation-timing-function: step-end;
            stroke: blue;
            stroke-dashoffset: 0;
            stroke-width: 128;
          }
          to {
            stroke: black;
            stroke-width: 1024;
          }
        }
        #make-me-a-hanzi-animation-13 {
          animation: keyframes13 0.6007486979166666s both;
          animation-delay: 8.935221354166668s;
          animation-timing-function: linear;
        }
      
        @keyframes keyframes14 {
          from {
            stroke: blue;
            stroke-dashoffset: 471;
            stroke-width: 128;
          }
          61% {
            animation-timing-function: step-end;
            stroke: blue;
            stroke-dashoffset: 0;
            stroke-width: 128;
          }
          to {
            stroke: black;
            stroke-width: 1024;
          }
        }
        #make-me-a-hanzi-animation-14 {
          animation: keyframes14 0.63330078125s both;
          animation-delay: 9.535970052083334s;
          animation-timing-function: linear;
        }
      
        @keyframes keyframes15 {
          from {
            stroke: blue;
            stroke-dashoffset: 1011;
            stroke-width: 128;
          }
          77% {
            animation-timing-function: step-end;
            stroke: blue;
            stroke-dashoffset: 0;
            stroke-width: 128;
          }
          to {
            stroke: black;
            stroke-width: 1024;
          }
        }
        #make-me-a-hanzi-animation-15 {
          animation: keyframes15 1.07275390625s both;
          animation-delay: 10.169270833333334s;
          animation-timing-function: linear;
        }
      
        @keyframes keyframes16 {
          from {
            stroke: blue;
            stroke-dashoffset: 397;
            stroke-width: 128;
          }
          56% {
            animation-timing-function: step-end;
            stroke: blue;
            stroke-dashoffset: 0;
            stroke-width: 128;
          }
          to {
            stroke: black;
            stroke-width: 1024;
          }
        }
        #make-me-a-hanzi-animation-16 {
          animation: keyframes16 0.5730794270833334s both;
          animation-delay: 11.242024739583334s;
          animation-timing-function: linear;
        }
      
        @keyframes keyframes17 {
          from {
            stroke: blue;
            stroke-dashoffset: 355;
            stroke-width: 128;
          }
          54% {
            animation-timing-function: step-end;
            stroke: blue;
            stroke-dashoffset: 0;
            stroke-width: 128;
          }
          to {
            stroke: black;
            stroke-width: 1024;
          }
        }
        #make-me-a-hanzi-animation-17 {
          animation: keyframes17 0.5388997395833334s both;
          animation-delay: 11.815104166666668s;
          animation-timing-function: linear;
        }
      
        @keyframes keyframes18 {
          from {
            stroke: blue;
            stroke-dashoffset: 353;
            stroke-width: 128;
          }
          53% {
            animation-timing-function: step-end;
            stroke: blue;
            stroke-dashoffset: 0;
            stroke-width: 128;
          }
          to {
            stroke: black;
            stroke-width: 1024;
          }
        }
        #make-me-a-hanzi-animation-18 {
          animation: keyframes18 0.5372721354166666s both;
          animation-delay: 12.354003906250002s;
          animation-timing-function: linear;
        }
      
        @keyframes keyframes19 {
          from {
            stroke: blue;
            stroke-dashoffset: 352;
            stroke-width: 128;
          }
          53% {
            animation-timing-function: step-end;
            stroke: blue;
            stroke-dashoffset: 0;
            stroke-width: 128;
          }
          to {
            stroke: black;
            stroke-width: 1024;
          }
        }
        #make-me-a-hanzi-animation-19 {
          animation: keyframes19 0.5364583333333334s both;
          animation-delay: 12.891276041666668s;
          animation-timing-function: linear;
        }
      
    </style>
    
      <path d="M 372 629 L 386 636 Q 387 637 410 648 Q 434 658 450 667 Q 466 676 472 678 Q 478 682 486 684 Q 495 686 497 688 Q 499 690 499 693 Q 499 697 495 702 Q 488 711 468 722 L 446 735 Q 433 742 424 742 Q 418 741 404 735 Q 390 729 371 723 Q 352 717 323 710 Q 294 704 282 702 Q 271 700 234 697 L 215 695 Q 206 694 204 691 Q 204 688 206 682 Q 209 676 224 668 Q 239 660 246 660 L 248 660 Q 254 660 265 664 Q 278 670 302 677 L 346 690 L 372 697 Q 386 700 396 701 Q 408 701 410 698 Q 411 697 411 696 Q 411 692 406 687 Q 399 680 384 667 Q 370 654 357 640 C 336 618 345 616 372 629 Z" fill="lightgray" />
    
      <path d="M 382 612 L 379 622 Q 378 624 372 629 L 357 640 L 334 646 L 311 652 Q 304 653 300 653 L 296 653 Q 292 651 291 648 L 291 647 Q 291 645 295 641 Q 300 636 304 630 L 316 616 Q 322 608 330 599 C 350 576 391 583 382 612 Z" fill="lightgray" />
    
      <path d="M 330 599 L 318 597 L 255 584 Q 224 578 193 574 Q 161 570 140 570 L 116 570 Q 102 570 101 566 Q 100 564 100 563 Q 100 560 102 557 Q 106 552 117 546 L 130 536 Q 137 530 145 530 L 148 530 Q 155 530 168 534 Q 184 540 207 546 Q 230 552 246 555 Q 262 558 274 560 Q 286 562 312 566 L 368 580 L 405 586 Q 417 588 423 588 Q 429 588 430 586 Q 432 584 432 581 Q 432 579 431 576 Q 429 570 423 563 Q 416 557 405 543 L 396 532 Q 391 525 391 522 L 391 521 Q 392 520 394 520 Q 397 520 402 522 L 420 530 Q 442 540 443 540 L 474 554 Q 490 561 509 566 Q 528 570 529 576 L 529 577 Q 529 582 522 591 Q 514 601 495 612 Q 476 624 467 629 Q 458 634 454 634 L 452 634 Q 446 634 436 630 Q 423 624 409 620 L 382 612 L 330 599 Z" fill="lightgray" />
    
      <path d="M 350 548 L 346 483 Q 345 467 341 457 Q 337 448 332 446 Q 330 445 326 445 Q 319 445 306 448 L 288 450 Q 285 451 284 451 Q 280 451 279 448 L 279 447 Q 279 443 282 441 L 294 433 Q 298 430 311 414 Q 324 399 332 387 Q 339 374 343 374 Q 348 374 359 382 Q 370 390 376 401 Q 380 412 382 426 Q 384 440 384 460 L 384 522 L 382 541 Q 382 562 381 566 Q 380 570 368 580 C 353 593 352 578 350 548 Z" fill="lightgray" />
    
      <path d="M 312 566 L 300 551 L 261 505 Q 248 490 221 469 L 166 428 Q 138 410 124 402 L 112 395 Q 103 390 103 387 Q 103 386 104 385 Q 107 382 111 382 L 113 382 L 128 386 Q 144 390 172 403 Q 200 416 220 428 Q 240 440 262 458 L 292 484 Q 328 515 335 524 Q 342 534 350 548 C 376 592 362 629 312 566 Z" fill="lightgray" />
    
      <path d="M 638 652 L 656 679 Q 667 695 672 701 Q 676 708 684 713 Q 692 718 693 721 L 693 724 Q 693 727 692 730 Q 690 736 682 741 L 667 752 Q 660 757 648 762 Q 637 766 630 766 Q 624 766 621 764 Q 618 761 618 751 Q 618 740 616 732 Q 615 723 611 707 Q 607 691 600 675 L 578 633 Q 563 606 556 597 L 538 575 L 532 564 Q 530 562 530 560 Q 530 558 532 556 Q 534 555 535 555 Q 538 555 542 558 L 553 564 Q 564 572 579 584 Q 594 596 601 604 L 616 622 L 638 652 Z" fill="lightgray" />
    
      <path d="M 616 622 L 628 616 Q 630 615 639 615 Q 648 616 663 620 Q 678 626 682 627 Q 686 628 692 630 L 738 638 L 777 642 L 817 644 L 841 647 Q 857 648 866 651 Q 874 654 876 658 Q 876 662 865 670 Q 854 678 839 684 Q 823 688 816 689 Q 808 689 794 686 L 770 680 L 731 670 Q 700 662 679 659 Q 658 655 638 652 C 608 647 589 635 616 622 Z" fill="lightgray" />
    
      <path d="M 692 630 L 694 616 Q 696 606 696 597 L 696 591 Q 695 579 691 563 Q 686 546 683 539 Q 680 531 676 522 L 656 493 L 648 480 Q 641 471 623 459 Q 606 447 589 437 Q 573 427 563 424 L 547 419 Q 540 416 540 413 Q 542 409 549 409 L 565 409 Q 575 409 595 415 Q 615 421 631 428 Q 648 434 660 443 Q 674 452 689 465 L 714 495 L 719 506 L 727 522 Q 732 533 740 558 L 751 590 Q 754 597 760 605 Q 765 613 765 616 L 765 617 Q 765 620 757 626 Q 749 632 738 638 C 712 653 688 660 692 630 Z" fill="lightgray" />
    
      <path d="M 676 522 L 660 533 Q 648 541 634 545 Q 621 549 608 551 L 603 551 Q 592 551 586 548 Q 578 543 578 539 Q 579 535 587 532 L 611 524 Q 625 520 636 510 Q 648 501 656 493 L 689 465 L 698 456 L 734 420 Q 760 395 777 386 Q 793 377 810 374 Q 819 373 827 373 Q 835 373 842 374 Q 858 376 882 384 L 916 394 Q 928 397 928 402 Q 928 408 920 410 L 885 419 L 831 433 Q 813 439 788 450 Q 763 462 748 471 L 729 483 L 714 495 L 676 522 Z" fill="lightgray" />
    
      <path d="M 438 351 L 460 368 L 491 390 Q 502 400 507 402 Q 512 406 523 411 Q 534 416 536 420 L 536 422 Q 536 427 530 433 Q 522 440 512 445 Q 502 451 492 456 Q 484 461 476 462 Q 467 462 465 459 Q 462 456 462 447 Q 462 438 458 428 Q 454 418 444 402 Q 435 386 427 375 Q 418 364 407 348 C 390 323 414 333 438 351 Z" fill="lightgray" />
    
      <path d="M 407 348 L 388 352 L 358 362 Q 351 364 346 364 Q 341 364 338 362 Q 333 358 332 352 Q 332 346 339 334 Q 346 321 347 319 Q 348 316 349 298 L 350 278 L 348 175 Q 347 163 344 152 Q 342 140 338 124 Q 334 108 331 102 Q 323 88 323 83 L 323 82 Q 323 79 329 69 L 336 54 Q 340 46 346 40 Q 352 32 358 32 L 359 32 Q 363 32 373 38 C 390 47 389 62 386 92 Q 385 93 385 101 L 385 110 L 386 125 L 386 149 L 388 196 L 391 227 L 394 254 L 397 282 L 399 302 Q 399 304 402 318 C 408 347 408 348 407 348 Z" fill="lightgray" />
    
      <path d="M 566 215 L 576 200 Q 579 193 586 193 Q 591 193 598 196 Q 605 198 610 204 Q 614 212 620 226 Q 625 240 634 259 L 647 290 Q 652 300 657 308 Q 662 315 668 322 Q 676 330 676 334 L 676 336 Q 676 343 668 350 Q 658 358 638 370 Q 618 382 608 386 Q 600 390 591 390 L 588 390 Q 584 389 571 383 Q 558 378 540 372 Q 522 366 509 364 Q 496 361 472 357 L 438 351 C 395 343 360 311 402 318 L 414 320 L 465 325 Q 466 325 494 330 Q 521 336 540 338 Q 558 340 565 342 Q 571 343 576 343 Q 586 343 590 340 Q 595 336 595 325 Q 595 322 594 317 L 593 301 L 588 281 L 582 258 Q 581 254 574 238 C 565 217 565 217 566 215 Z" fill="lightgray" />
    
      <path d="M 593 301 L 564 310 L 562 310 Q 554 310 536 306 Q 514 301 485 296 L 397 282 C 367 277 364 256 394 254 L 408 253 L 412 253 Q 417 253 427 254 L 454 258 L 501 266 Q 522 269 541 271 Q 560 274 568 275 Q 574 276 588 281 C 616 291 621 292 593 301 Z" fill="lightgray" />
    
      <path d="M 388 196 L 410 198 Q 446 200 466 201 Q 486 203 510 207 L 548 213 Q 554 214 566 215 C 596 218 599 221 574 238 L 564 245 Q 558 249 540 249 Q 522 248 504 245 L 466 237 L 391 227 C 361 223 358 193 388 196 Z" fill="lightgray" />
    
      <path d="M 386 125 L 420 124 L 423 124 Q 434 124 466 129 Q 502 135 529 139 Q 556 143 569 146 L 590 150 L 604 153 Q 608 155 610 158 Q 610 162 602 167 Q 593 172 580 175 Q 568 177 558 178 Q 544 178 521 172 L 468 161 Q 438 154 421 153 L 386 149 C 356 146 356 126 386 125 Z" fill="lightgray" />
    
      <path d="M 373 38 Q 384 45 395 50 Q 406 54 424 59 Q 441 63 464 67 Q 486 72 517 76 Q 548 80 567 82 Q 587 84 628 86 Q 670 89 683 90 Q 704 90 720 87 Q 736 85 742 79 Q 748 73 750 60 L 750 52 Q 750 40 748 26 Q 746 7 739 -20 Q 732 -48 725 -60 Q 718 -72 711 -75 Q 704 -78 695 -78 Q 687 -78 678 -75 L 656 -68 L 638 -62 Q 635 -61 632 -61 Q 627 -61 625 -64 Q 624 -65 624 -66 Q 624 -70 630 -77 L 642 -91 Q 642 -93 658 -114 L 676 -140 L 688 -162 Q 693 -170 698 -172 Q 700 -173 703 -173 Q 710 -173 722 -165 Q 738 -154 754 -140 Q 769 -126 780 -108 Q 791 -90 796 -67 Q 802 -44 805 -25 L 810 14 Q 812 23 814 34 Q 816 44 818 50 Q 820 56 823 64 Q 827 71 832 77 Q 836 83 837 86 L 837 88 Q 837 93 832 97 Q 828 103 816 111 L 794 126 Q 784 132 771 138 Q 760 143 752 143 L 750 143 Q 746 142 730 137 Q 715 132 692 129 Q 670 126 638 124 Q 606 121 600 120 Q 594 120 536 111 L 443 98 L 406 91 Q 399 90 395 90 L 392 90 Q 388 90 386 92 C 356 93 347 24 373 38 Z" fill="lightgray" />
    
      <path d="M 272 30 Q 268 39 263 39 L 262 39 Q 256 38 253 28 L 247 10 Q 244 2 238 -8 Q 232 -18 224 -30 Q 216 -41 208 -50 Q 200 -58 197 -62 Q 194 -66 194 -75 L 194 -80 Q 194 -86 195 -91 Q 196 -99 202 -108 Q 208 -118 218 -119 L 220 -119 Q 229 -119 241 -108 Q 254 -96 262 -81 Q 270 -66 274 -49 Q 278 -32 279 -16 Q 279 -8 278 5 Q 276 18 274 24 L 272 30 Z" fill="lightgray" />
    
      <path d="M 344 -13 Q 345 -14 353 -28 L 364 -50 Q 372 -66 380 -75 Q 388 -84 396 -86 L 398 -86 Q 403 -86 411 -81 Q 420 -74 423 -59 Q 424 -52 424 -46 Q 424 -39 422 -33 Q 418 -24 409 -16 Q 400 -10 382 -2 Q 365 6 358 8 L 348 12 L 345 12 Q 341 12 339 10 Q 337 8 337 5 Q 337 3 338 0 L 344 -13 Z" fill="lightgray" />
    
      <path d="M 456 5 L 464 -9 L 476 -30 Q 484 -44 492 -54 Q 500 -64 506 -64 L 508 -64 Q 514 -64 521 -58 Q 530 -52 532 -38 Q 533 -33 533 -28 Q 533 -20 530 -13 Q 525 -3 516 4 Q 508 10 492 17 Q 476 24 468 26 L 458 28 Q 456 29 455 29 Q 452 29 450 26 Q 448 25 448 23 Q 448 21 450 17 L 456 5 Z" fill="lightgray" />
    
      <path d="M 564 23 Q 564 22 573 9 L 587 -13 Q 596 -28 605 -37 Q 614 -46 621 -46 L 624 -46 Q 631 -46 638 -40 Q 646 -34 649 -18 Q 650 -14 650 -10 Q 650 -1 646 6 Q 641 15 630 23 Q 618 30 604 36 Q 588 42 576 46 L 566 48 Q 564 49 562 49 Q 559 49 556 46 Q 554 44 554 42 Q 554 39 556 36 L 564 23 Z" fill="lightgray" />
    
    
      <clipPath id="make-me-a-hanzi-clip-0">
        <path d="M 372 629 L 386 636 Q 387 637 410 648 Q 434 658 450 667 Q 466 676 472 678 Q 478 682 486 684 Q 495 686 497 688 Q 499 690 499 693 Q 499 697 495 702 Q 488 711 468 722 L 446 735 Q 433 742 424 742 Q 418 741 404 735 Q 390 729 371 723 Q 352 717 323 710 Q 294 704 282 702 Q 271 700 234 697 L 215 695 Q 206 694 204 691 Q 204 688 206 682 Q 209 676 224 668 Q 239 660 246 660 L 248 660 Q 254 660 265 664 Q 278 670 302 677 L 346 690 L 372 697 Q 386 700 396 701 Q 408 701 410 698 Q 411 697 411 696 Q 411 692 406 687 Q 399 680 384 667 Q 370 654 357 640 C 336 618 345 616 372 629 Z" />
      </clipPath>
      <path clip-path="url(#make-me-a-hanzi-clip-0)" d="M 211 688 L 249 679 L 393 716 L 426 717 L 437 708 L 442 697 L 423 675 L 375 641 L 364 642" fill="none" id="make-me-a-hanzi-animation-0" stroke-dasharray="474 948" stroke-linecap="round" />
    
      <clipPath id="make-me-a-hanzi-clip-1">
        <path d="M 382 612 L 379 622 Q 378 624 372 629 L 357 640 L 334 646 L 311 652 Q 304 653 300 653 L 296 653 Q 292 651 291 648 L 291 647 Q 291 645 295 641 Q 300 636 304 630 L 316 616 Q 322 608 330 599 C 350 576 391 583 382 612 Z" />
      </clipPath>
      <path clip-path="url(#make-me-a-hanzi-clip-1)" d="M 297 648 L 338 623 L 374 615" fill="none" id="make-me-a-hanzi-animation-1" stroke-dasharray="213 426" stroke-linecap="round" />
    
      <clipPath id="make-me-a-hanzi-clip-2">
        <path d="M 330 599 L 318 597 L 255 584 Q 224 578 193 574 Q 161 570 140 570 L 116 570 Q 102 570 101 566 Q 100 564 100 563 Q 100 560 102 557 Q 106 552 117 546 L 130 536 Q 137 530 145 530 L 148 530 Q 155 530 168 534 Q 184 540 207 546 Q 230 552 246 555 Q 262 558 274 560 Q 286 562 312 566 L 368 580 L 405 586 Q 417 588 423 588 Q 429 588 430 586 Q 432 584 432 581 Q 432 579 431 576 Q 429 570 423 563 Q 416 557 405 543 L 396 532 Q 391 525 391 522 L 391 521 Q 392 520 394 520 Q 397 520 402 522 L 420 530 Q 442 540 443 540 L 474 554 Q 490 561 509 566 Q 528 570 529 576 L 529 577 Q 529 582 522 591 Q 514 601 495 612 Q 476 624 467 629 Q 458 634 454 634 L 452 634 Q 446 634 436 630 Q 423 624 409 620 L 382 612 L 330 599 Z" />
      </clipPath>
      <path clip-path="url(#make-me-a-hanzi-clip-2)" d="M 108 562 L 150 550 L 421 606 L 451 605 L 466 588 L 450 566 L 393 522" fill="none" id="make-me-a-hanzi-animation-2" stroke-dasharray="600 1200" stroke-linecap="round" />
    
      <clipPath id="make-me-a-hanzi-clip-3">
        <path d="M 350 548 L 346 483 Q 345 467 341 457 Q 337 448 332 446 Q 330 445 326 445 Q 319 445 306 448 L 288 450 Q 285 451 284 451 Q 280 451 279 448 L 279 447 Q 279 443 282 441 L 294 433 Q 298 430 311 414 Q 324 399 332 387 Q 339 374 343 374 Q 348 374 359 382 Q 370 390 376 401 Q 380 412 382 426 Q 384 440 384 460 L 384 522 L 382 541 Q 382 562 381 566 Q 380 570 368 580 C 353 593 352 578 350 548 Z" />
      </clipPath>
      <path clip-path="url(#make-me-a-hanzi-clip-3)" d="M 369 572 L 365 468 L 352 425 L 347 419 L 332 423 L 283 448" fill="none" id="make-me-a-hanzi-animation-3" stroke-dasharray="355 710" stroke-linecap="round" />
    
      <clipPath id="make-me-a-hanzi-clip-4">
        <path d="M 312 566 L 300 551 L 261 505 Q 248 490 221 469 L 166 428 Q 138 410 124 402 L 112 395 Q 103 390 103 387 Q 103 386 104 385 Q 107 382 111 382 L 113 382 L 128 386 Q 144 390 172 403 Q 200 416 220 428 Q 240 440 262 458 L 292 484 Q 328 515 335 524 Q 342 534 350 548 C 376 592 362 629 312 566 Z" />
      </clipPath>
      <path clip-path="url(#make-me-a-hanzi-clip-4)" d="M 361 577 L 236 459 L 159 408 L 109 389" fill="none" id="make-me-a-hanzi-animation-4" stroke-dasharray="446 892" stroke-linecap="round" />
    
      <clipPath id="make-me-a-hanzi-clip-5">
        <path d="M 638 652 L 656 679 Q 667 695 672 701 Q 676 708 684 713 Q 692 718 693 721 L 693 724 Q 693 727 692 730 Q 690 736 682 741 L 667 752 Q 660 757 648 762 Q 637 766 630 766 Q 624 766 621 764 Q 618 761 618 751 Q 618 740 616 732 Q 615 723 611 707 Q 607 691 600 675 L 578 633 Q 563 606 556 597 L 538 575 L 532 564 Q 530 562 530 560 Q 530 558 532 556 Q 534 555 535 555 Q 538 555 542 558 L 553 564 Q 564 572 579 584 Q 594 596 601 604 L 616 622 L 638 652 Z" />
      </clipPath>
      <path clip-path="url(#make-me-a-hanzi-clip-5)" d="M 628 756 L 647 728 L 639 701 L 577 600 L 535 560" fill="none" id="make-me-a-hanzi-animation-5" stroke-dasharray="367 734" stroke-linecap="round" />
    
      <clipPath id="make-me-a-hanzi-clip-6">
        <path d="M 616 622 L 628 616 Q 630 615 639 615 Q 648 616 663 620 Q 678 626 682 627 Q 686 628 692 630 L 738 638 L 777 642 L 817 644 L 841 647 Q 857 648 866 651 Q 874 654 876 658 Q 876 662 865 670 Q 854 678 839 684 Q 823 688 816 689 Q 808 689 794 686 L 770 680 L 731 670 Q 700 662 679 659 Q 658 655 638 652 C 608 647 589 635 616 622 Z" />
      </clipPath>
      <path clip-path="url(#make-me-a-hanzi-clip-6)" d="M 624 624 L 673 642 L 804 666 L 869 657" fill="none" id="make-me-a-hanzi-animation-6" stroke-dasharray="379 758" stroke-linecap="round" />
    
      <clipPath id="make-me-a-hanzi-clip-7">
        <path d="M 692 630 L 694 616 Q 696 606 696 597 L 696 591 Q 695 579 691 563 Q 686 546 683 539 Q 680 531 676 522 L 656 493 L 648 480 Q 641 471 623 459 Q 606 447 589 437 Q 573 427 563 424 L 547 419 Q 540 416 540 413 Q 542 409 549 409 L 565 409 Q 575 409 595 415 Q 615 421 631 428 Q 648 434 660 443 Q 674 452 689 465 L 714 495 L 719 506 L 727 522 Q 732 533 740 558 L 751 590 Q 754 597 760 605 Q 765 613 765 616 L 765 617 Q 765 620 757 626 Q 749 632 738 638 C 712 653 688 660 692 630 Z" />
      </clipPath>
      <path clip-path="url(#make-me-a-hanzi-clip-7)" d="M 755 617 L 727 607 L 696 510 L 663 468 L 631 444 L 584 421 L 546 414" fill="none" id="make-me-a-hanzi-animation-7" stroke-dasharray="444 888" stroke-linecap="round" />
    
      <clipPath id="make-me-a-hanzi-clip-8">
        <path d="M 676 522 L 660 533 Q 648 541 634 545 Q 621 549 608 551 L 603 551 Q 592 551 586 548 Q 578 543 578 539 Q 579 535 587 532 L 611 524 Q 625 520 636 510 Q 648 501 656 493 L 689 465 L 698 456 L 734 420 Q 760 395 777 386 Q 793 377 810 374 Q 819 373 827 373 Q 835 373 842 374 Q 858 376 882 384 L 916 394 Q 928 397 928 402 Q 928 408 920 410 L 885 419 L 831 433 Q 813 439 788 450 Q 763 462 748 471 L 729 483 L 714 495 L 676 522 Z" />
      </clipPath>
      <path clip-path="url(#make-me-a-hanzi-clip-8)" d="M 586 540 L 612 538 L 646 523 L 789 415 L 833 402 L 920 402" fill="none" id="make-me-a-hanzi-animation-8" stroke-dasharray="503 1006" stroke-linecap="round" />
    
      <clipPath id="make-me-a-hanzi-clip-9">
        <path d="M 438 351 L 460 368 L 491 390 Q 502 400 507 402 Q 512 406 523 411 Q 534 416 536 420 L 536 422 Q 536 427 530 433 Q 522 440 512 445 Q 502 451 492 456 Q 484 461 476 462 Q 467 462 465 459 Q 462 456 462 447 Q 462 438 458 428 Q 454 418 444 402 Q 435 386 427 375 Q 418 364 407 348 C 390 323 414 333 438 351 Z" />
      </clipPath>
      <path clip-path="url(#make-me-a-hanzi-clip-9)" d="M 526 421 L 487 424 L 446 375 L 415 350" fill="none" id="make-me-a-hanzi-animation-9" stroke-dasharray="271 542" stroke-linecap="round" />
    
      <clipPath id="make-me-a-hanzi-clip-10">
        <path d="M 407 348 L 388 352 L 358 362 Q 351 364 346 364 Q 341 364 338 362 Q 333 358 332 352 Q 332 346 339 334 Q 346 321 347 319 Q 348 316 349 298 L 350 278 L 348 175 Q 347 163 344 152 Q 342 140 338 124 Q 334 108 331 102 Q 323 88 323 83 L 323 82 Q 323 79 329 69 L 336 54 Q 340 46 346 40 Q 352 32 358 32 L 359 32 Q 363 32 373 38 C 390 47 389 62 386 92 Q 385 93 385 101 L 385 110 L 386 125 L 386 149 L 388 196 L 391 227 L 394 254 L 397 282 L 399 302 Q 399 304 402 318 C 408 347 408 348 407 348 Z" />
      </clipPath>
      <path clip-path="url(#make-me-a-hanzi-clip-10)" d="M 345 351 L 375 327 L 367 158 L 354 84 L 359 46" fill="none" id="make-me-a-hanzi-animation-10" stroke-dasharray="449 898" stroke-linecap="round" />
    
      <clipPath id="make-me-a-hanzi-clip-11">
        <path d="M 566 215 L 576 200 Q 579 193 586 193 Q 591 193 598 196 Q 605 198 610 204 Q 614 212 620 226 Q 625 240 634 259 L 647 290 Q 652 300 657 308 Q 662 315 668 322 Q 676 330 676 334 L 676 336 Q 676 343 668 350 Q 658 358 638 370 Q 618 382 608 386 Q 600 390 591 390 L 588 390 Q 584 389 571 383 Q 558 378 540 372 Q 522 366 509 364 Q 496 361 472 357 L 438 351 C 395 343 360 311 402 318 L 414 320 L 465 325 Q 466 325 494 330 Q 521 336 540 338 Q 558 340 565 342 Q 571 343 576 343 Q 586 343 590 340 Q 595 336 595 325 Q 595 322 594 317 L 593 301 L 588 281 L 582 258 Q 581 254 574 238 C 565 217 565 217 566 215 Z" />
      </clipPath>
      <path clip-path="url(#make-me-a-hanzi-clip-11)" d="M 407 325 L 420 335 L 500 345 L 573 363 L 595 364 L 609 358 L 630 332 L 596 229 L 591 218 L 578 217" fill="none" id="make-me-a-hanzi-animation-11" stroke-dasharray="504 1008" stroke-linecap="round" />
    
      <clipPath id="make-me-a-hanzi-clip-12">
        <path d="M 593 301 L 564 310 L 562 310 Q 554 310 536 306 Q 514 301 485 296 L 397 282 C 367 277 364 256 394 254 L 408 253 L 412 253 Q 417 253 427 254 L 454 258 L 501 266 Q 522 269 541 271 Q 560 274 568 275 Q 574 276 588 281 C 616 291 621 292 593 301 Z" />
      </clipPath>
      <path clip-path="url(#make-me-a-hanzi-clip-12)" d="M 401 260 L 436 273 L 576 291 L 584 298" fill="none" id="make-me-a-hanzi-animation-12" stroke-dasharray="317 634" stroke-linecap="round" />
    
      <clipPath id="make-me-a-hanzi-clip-13">
        <path d="M 388 196 L 410 198 Q 446 200 466 201 Q 486 203 510 207 L 548 213 Q 554 214 566 215 C 596 218 599 221 574 238 L 564 245 Q 558 249 540 249 Q 522 248 504 245 L 466 237 L 391 227 C 361 223 358 193 388 196 Z" />
      </clipPath>
      <path clip-path="url(#make-me-a-hanzi-clip-13)" d="M 393 203 L 416 214 L 564 235" fill="none" id="make-me-a-hanzi-animation-13" stroke-dasharray="303 606" stroke-linecap="round" />
    
      <clipPath id="make-me-a-hanzi-clip-14">
        <path d="M 386 125 L 420 124 L 423 124 Q 434 124 466 129 Q 502 135 529 139 Q 556 143 569 146 L 590 150 L 604 153 Q 608 155 610 158 Q 610 162 602 167 Q 593 172 580 175 Q 568 177 558 178 Q 544 178 521 172 L 468 161 Q 438 154 421 153 L 386 149 C 356 146 356 126 386 125 Z" />
      </clipPath>
      <path clip-path="url(#make-me-a-hanzi-clip-14)" d="M 392 131 L 399 137 L 455 141 L 544 160 L 603 160" fill="none" id="make-me-a-hanzi-animation-14" stroke-dasharray="343 686" stroke-linecap="round" />
    
      <clipPath id="make-me-a-hanzi-clip-15">
        <path d="M 373 38 Q 384 45 395 50 Q 406 54 424 59 Q 441 63 464 67 Q 486 72 517 76 Q 548 80 567 82 Q 587 84 628 86 Q 670 89 683 90 Q 704 90 720 87 Q 736 85 742 79 Q 748 73 750 60 L 750 52 Q 750 40 748 26 Q 746 7 739 -20 Q 732 -48 725 -60 Q 718 -72 711 -75 Q 704 -78 695 -78 Q 687 -78 678 -75 L 656 -68 L 638 -62 Q 635 -61 632 -61 Q 627 -61 625 -64 Q 624 -65 624 -66 Q 624 -70 630 -77 L 642 -91 Q 642 -93 658 -114 L 676 -140 L 688 -162 Q 693 -170 698 -172 Q 700 -173 703 -173 Q 710 -173 722 -165 Q 738 -154 754 -140 Q 769 -126 780 -108 Q 791 -90 796 -67 Q 802 -44 805 -25 L 810 14 Q 812 23 814 34 Q 816 44 818 50 Q 820 56 823 64 Q 827 71 832 77 Q 836 83 837 86 L 837 88 Q 837 93 832 97 Q 828 103 816 111 L 794 126 Q 784 132 771 138 Q 760 143 752 143 L 750 143 Q 746 142 730 137 Q 715 132 692 129 Q 670 126 638 124 Q 606 121 600 120 Q 594 120 536 111 L 443 98 L 406 91 Q 399 90 395 90 L 392 90 Q 388 90 386 92 C 356 93 347 24 373 38 Z" />
      </clipPath>
      <path clip-path="url(#make-me-a-hanzi-clip-15)" d="M 377 44 L 402 72 L 549 98 L 732 111 L 755 109 L 772 99 L 786 82 L 782 35 L 764 -55 L 746 -94 L 713 -119 L 631 -68" fill="none" id="make-me-a-hanzi-animation-15" stroke-dasharray="883 1766" stroke-linecap="round" />
    
      <clipPath id="make-me-a-hanzi-clip-16">
        <path d="M 272 30 Q 268 39 263 39 L 262 39 Q 256 38 253 28 L 247 10 Q 244 2 238 -8 Q 232 -18 224 -30 Q 216 -41 208 -50 Q 200 -58 197 -62 Q 194 -66 194 -75 L 194 -80 Q 194 -86 195 -91 Q 196 -99 202 -108 Q 208 -118 218 -119 L 220 -119 Q 229 -119 241 -108 Q 254 -96 262 -81 Q 270 -66 274 -49 Q 278 -32 279 -16 Q 279 -8 278 5 Q 276 18 274 24 L 272 30 Z" />
      </clipPath>
      <path clip-path="url(#make-me-a-hanzi-clip-16)" d="M 263 30 L 254 -29 L 226 -77 L 219 -102" fill="none" id="make-me-a-hanzi-animation-16" stroke-dasharray="269 538" stroke-linecap="round" />
    
      <clipPath id="make-me-a-hanzi-clip-17">
        <path d="M 344 -13 Q 345 -14 353 -28 L 364 -50 Q 372 -66 380 -75 Q 388 -84 396 -86 L 398 -86 Q 403 -86 411 -81 Q 420 -74 423 -59 Q 424 -52 424 -46 Q 424 -39 422 -33 Q 418 -24 409 -16 Q 400 -10 382 -2 Q 365 6 358 8 L 348 12 L 345 12 Q 341 12 339 10 Q 337 8 337 5 Q 337 3 338 0 L 344 -13 Z" />
      </clipPath>
      <path clip-path="url(#make-me-a-hanzi-clip-17)" d="M 344 5 L 392 -40 L 397 -73" fill="none" id="make-me-a-hanzi-animation-17" stroke-dasharray="227 454" stroke-linecap="round" />
    
      <clipPath id="make-me-a-hanzi-clip-18">
        <path d="M 456 5 L 464 -9 L 476 -30 Q 484 -44 492 -54 Q 500 -64 506 -64 L 508 -64 Q 514 -64 521 -58 Q 530 -52 532 -38 Q 533 -33 533 -28 Q 533 -20 530 -13 Q 525 -3 516 4 Q 508 10 492 17 Q 476 24 468 26 L 458 28 Q 456 29 455 29 Q 452 29 450 26 Q 448 25 448 23 Q 448 21 450 17 L 456 5 Z" />
      </clipPath>
      <path clip-path="url(#make-me-a-hanzi-clip-18)" d="M 455 24 L 506 -26 L 507 -52" fill="none" id="make-me-a-hanzi-animation-18" stroke-dasharray="225 450" stroke-linecap="round" />
    
      <clipPath id="make-me-a-hanzi-clip-19">
        <path d="M 564 23 Q 564 22 573 9 L 587 -13 Q 596 -28 605 -37 Q 614 -46 621 -46 L 624 -46 Q 631 -46 638 -40 Q 646 -34 649 -18 Q 650 -14 650 -10 Q 650 -1 646 6 Q 641 15 630 23 Q 618 30 604 36 Q 588 42 576 46 L 566 48 Q 564 49 562 49 Q 559 49 556 46 Q 554 44 554 42 Q 554 39 556 36 L 564 23 Z" />
      </clipPath>
      <path clip-path="url(#make-me-a-hanzi-clip-19)" d="M 561 41 L 611 2 L 621 -10 L 623 -27" fill="none" id="make-me-a-hanzi-animation-19" stroke-dasharray="224 448" stroke-linecap="round" />
    
  </g>
</svg>