<svg xmlns="http://www.w3.org/2000/svg" version="1.1" viewBox="0 0 1024 1024">
  <g stroke="lightgray" stroke-dasharray="1,1" stroke-width="1" transform="scale(4, 4)">
    <line x1="0" y1="0" x2="256" y2="256" />
    <line x1="256" y1="0" x2="0" y2="256" />
    <line x1="128" y1="0" x2="128" y2="256" />
    <line x1="0" y1="128" x2="256" y2="128" />
  </g>
  <g transform="scale(1.0, -1.0) translate(0.0, -826.50)">
    <style type="text/css">
      
        @keyframes keyframes0 {
          from {
            stroke: blue;
            stroke-dashoffset: 369;
            stroke-width: 128;
          }
          55% {
            animation-timing-function: step-end;
            stroke: blue;
            stroke-dashoffset: 0;
            stroke-width: 128;
          }
          to {
            stroke: black;
            stroke-width: 1024;
          }
        }
        #make-me-a-hanzi-animation-0 {
          animation: keyframes0 0.55029296875s both;
          animation-delay: 0s;
          animation-timing-function: linear;
        }
      
        @keyframes keyframes1 {
          from {
            stroke: blue;
            stroke-dashoffset: 631;
            stroke-width: 128;
          }
          67% {
            animation-timing-function: step-end;
            stroke: blue;
            stroke-dashoffset: 0;
            stroke-width: 128;
          }
          to {
            stroke: black;
            stroke-width: 1024;
          }
        }
        #make-me-a-hanzi-animation-1 {
          animation: keyframes1 0.7635091145833334s both;
          animation-delay: 0.55029296875s;
          animation-timing-function: linear;
        }
      
        @keyframes keyframes2 {
          from {
            stroke: blue;
            stroke-dashoffset: 371;
            stroke-width: 128;
          }
          55% {
            animation-timing-function: step-end;
            stroke: blue;
            stroke-dashoffset: 0;
            stroke-width: 128;
          }
          to {
            stroke: black;
            stroke-width: 1024;
          }
        }
        #make-me-a-hanzi-animation-2 {
          animation: keyframes2 0.5519205729166666s both;
          animation-delay: 1.3138020833333335s;
          animation-timing-function: linear;
        }
      
        @keyframes keyframes3 {
          from {
            stroke: blue;
            stroke-dashoffset: 490;
            stroke-width: 128;
          }
          61% {
            animation-timing-function: step-end;
            stroke: blue;
            stroke-dashoffset: 0;
            stroke-width: 128;
          }
          to {
            stroke: black;
            stroke-width: 1024;
          }
        }
        #make-me-a-hanzi-animation-3 {
          animation: keyframes3 0.6487630208333334s both;
          animation-delay: 1.86572265625s;
          animation-timing-function: linear;
        }
      
        @keyframes keyframes4 {
          from {
            stroke: blue;
            stroke-dashoffset: 376;
            stroke-width: 128;
          }
          55% {
            animation-timing-function: step-end;
            stroke: blue;
            stroke-dashoffset: 0;
            stroke-width: 128;
          }
          to {
            stroke: black;
            stroke-width: 1024;
          }
        }
        #make-me-a-hanzi-animation-4 {
          animation: keyframes4 0.5559895833333334s both;
          animation-delay: 2.5144856770833335s;
          animation-timing-function: linear;
        }
      
        @keyframes keyframes5 {
          from {
            stroke: blue;
            stroke-dashoffset: 472;
            stroke-width: 128;
          }
          61% {
            animation-timing-function: step-end;
            stroke: blue;
            stroke-dashoffset: 0;
            stroke-width: 128;
          }
          to {
            stroke: black;
            stroke-width: 1024;
          }
        }
        #make-me-a-hanzi-animation-5 {
          animation: keyframes5 0.6341145833333334s both;
          animation-delay: 3.070475260416667s;
          animation-timing-function: linear;
        }
      
        @keyframes keyframes6 {
          from {
            stroke: blue;
            stroke-dashoffset: 400;
            stroke-width: 128;
          }
          57% {
            animation-timing-function: step-end;
            stroke: blue;
            stroke-dashoffset: 0;
            stroke-width: 128;
          }
          to {
            stroke: black;
            stroke-width: 1024;
          }
        }
        #make-me-a-hanzi-animation-6 {
          animation: keyframes6 0.5755208333333334s both;
          animation-delay: 3.7045898437500004s;
          animation-timing-function: linear;
        }
      
        @keyframes keyframes7 {
          from {
            stroke: blue;
            stroke-dashoffset: 310;
            stroke-width: 128;
          }
          50% {
            animation-timing-function: step-end;
            stroke: blue;
            stroke-dashoffset: 0;
            stroke-width: 128;
          }
          to {
            stroke: black;
            stroke-width: 1024;
          }
        }
        #make-me-a-hanzi-animation-7 {
          animation: keyframes7 0.5022786458333334s both;
          animation-delay: 4.280110677083334s;
          animation-timing-function: linear;
        }
      
        @keyframes keyframes8 {
          from {
            stroke: blue;
            stroke-dashoffset: 499;
            stroke-width: 128;
          }
          62% {
            animation-timing-function: step-end;
            stroke: blue;
            stroke-dashoffset: 0;
            stroke-width: 128;
          }
          to {
            stroke: black;
            stroke-width: 1024;
          }
        }
        #make-me-a-hanzi-animation-8 {
          animation: keyframes8 0.6560872395833334s both;
          animation-delay: 4.782389322916667s;
          animation-timing-function: linear;
        }
      
        @keyframes keyframes9 {
          from {
            stroke: blue;
            stroke-dashoffset: 594;
            stroke-width: 128;
          }
          66% {
            animation-timing-function: step-end;
            stroke: blue;
            stroke-dashoffset: 0;
            stroke-width: 128;
          }
          to {
            stroke: black;
            stroke-width: 1024;
          }
        }
        #make-me-a-hanzi-animation-9 {
          animation: keyframes9 0.7333984375s both;
          animation-delay: 5.4384765625s;
          animation-timing-function: linear;
        }
      
        @keyframes keyframes10 {
          from {
            stroke: blue;
            stroke-dashoffset: 656;
            stroke-width: 128;
          }
          68% {
            animation-timing-function: step-end;
            stroke: blue;
            stroke-dashoffset: 0;
            stroke-width: 128;
          }
          to {
            stroke: black;
            stroke-width: 1024;
          }
        }
        #make-me-a-hanzi-animation-10 {
          animation: keyframes10 0.7838541666666666s both;
          animation-delay: 6.171875s;
          animation-timing-function: linear;
        }
      
        @keyframes keyframes11 {
          from {
            stroke: blue;
            stroke-dashoffset: 362;
            stroke-width: 128;
          }
          54% {
            animation-timing-function: step-end;
            stroke: blue;
            stroke-dashoffset: 0;
            stroke-width: 128;
          }
          to {
            stroke: black;
            stroke-width: 1024;
          }
        }
        #make-me-a-hanzi-animation-11 {
          animation: keyframes11 0.5445963541666666s both;
          animation-delay: 6.955729166666667s;
          animation-timing-function: linear;
        }
      
        @keyframes keyframes12 {
          from {
            stroke: blue;
            stroke-dashoffset: 352;
            stroke-width: 128;
          }
          53% {
            animation-timing-function: step-end;
            stroke: blue;
            stroke-dashoffset: 0;
            stroke-width: 128;
          }
          to {
            stroke: black;
            stroke-width: 1024;
          }
        }
        #make-me-a-hanzi-animation-12 {
          animation: keyframes12 0.5364583333333334s both;
          animation-delay: 7.500325520833334s;
          animation-timing-function: linear;
        }
      
        @keyframes keyframes13 {
          from {
            stroke: blue;
            stroke-dashoffset: 553;
            stroke-width: 128;
          }
          64% {
            animation-timing-function: step-end;
            stroke: blue;
            stroke-dashoffset: 0;
            stroke-width: 128;
          }
          to {
            stroke: black;
            stroke-width: 1024;
          }
        }
        #make-me-a-hanzi-animation-13 {
          animation: keyframes13 0.7000325520833334s both;
          animation-delay: 8.036783854166668s;
          animation-timing-function: linear;
        }
      
        @keyframes keyframes14 {
          from {
            stroke: blue;
            stroke-dashoffset: 643;
            stroke-width: 128;
          }
          68% {
            animation-timing-function: step-end;
            stroke: blue;
            stroke-dashoffset: 0;
            stroke-width: 128;
          }
          to {
            stroke: black;
            stroke-width: 1024;
          }
        }
        #make-me-a-hanzi-animation-14 {
          animation: keyframes14 0.7732747395833334s both;
          animation-delay: 8.736816406250002s;
          animation-timing-function: linear;
        }
      
        @keyframes keyframes15 {
          from {
            stroke: blue;
            stroke-dashoffset: 384;
            stroke-width: 128;
          }
          56% {
            animation-timing-function: step-end;
            stroke: blue;
            stroke-dashoffset: 0;
            stroke-width: 128;
          }
          to {
            stroke: black;
            stroke-width: 1024;
          }
        }
        #make-me-a-hanzi-animation-15 {
          animation: keyframes15 0.5625s both;
          animation-delay: 9.510091145833336s;
          animation-timing-function: linear;
        }
      
        @keyframes keyframes16 {
          from {
            stroke: blue;
            stroke-dashoffset: 412;
            stroke-width: 128;
          }
          57% {
            animation-timing-function: step-end;
            stroke: blue;
            stroke-dashoffset: 0;
            stroke-width: 128;
          }
          to {
            stroke: black;
            stroke-width: 1024;
          }
        }
        #make-me-a-hanzi-animation-16 {
          animation: keyframes16 0.5852864583333334s both;
          animation-delay: 10.072591145833336s;
          animation-timing-function: linear;
        }
      
        @keyframes keyframes17 {
          from {
            stroke: blue;
            stroke-dashoffset: 441;
            stroke-width: 128;
          }
          59% {
            animation-timing-function: step-end;
            stroke: blue;
            stroke-dashoffset: 0;
            stroke-width: 128;
          }
          to {
            stroke: black;
            stroke-width: 1024;
          }
        }
        #make-me-a-hanzi-animation-17 {
          animation: keyframes17 0.60888671875s both;
          animation-delay: 10.65787760416667s;
          animation-timing-function: linear;
        }
      
        @keyframes keyframes18 {
          from {
            stroke: blue;
            stroke-dashoffset: 1040;
            stroke-width: 128;
          }
          77% {
            animation-timing-function: step-end;
            stroke: blue;
            stroke-dashoffset: 0;
            stroke-width: 128;
          }
          to {
            stroke: black;
            stroke-width: 1024;
          }
        }
        #make-me-a-hanzi-animation-18 {
          animation: keyframes18 1.0963541666666667s both;
          animation-delay: 11.26676432291667s;
          animation-timing-function: linear;
        }
      
        @keyframes keyframes19 {
          from {
            stroke: blue;
            stroke-dashoffset: 397;
            stroke-width: 128;
          }
          56% {
            animation-timing-function: step-end;
            stroke: blue;
            stroke-dashoffset: 0;
            stroke-width: 128;
          }
          to {
            stroke: black;
            stroke-width: 1024;
          }
        }
        #make-me-a-hanzi-animation-19 {
          animation: keyframes19 0.5730794270833334s both;
          animation-delay: 12.363118489583336s;
          animation-timing-function: linear;
        }
      
        @keyframes keyframes20 {
          from {
            stroke: blue;
            stroke-dashoffset: 355;
            stroke-width: 128;
          }
          54% {
            animation-timing-function: step-end;
            stroke: blue;
            stroke-dashoffset: 0;
            stroke-width: 128;
          }
          to {
            stroke: black;
            stroke-width: 1024;
          }
        }
        #make-me-a-hanzi-animation-20 {
          animation: keyframes20 0.5388997395833334s both;
          animation-delay: 12.93619791666667s;
          animation-timing-function: linear;
        }
      
        @keyframes keyframes21 {
          from {
            stroke: blue;
            stroke-dashoffset: 352;
            stroke-width: 128;
          }
          53% {
            animation-timing-function: step-end;
            stroke: blue;
            stroke-dashoffset: 0;
            stroke-width: 128;
          }
          to {
            stroke: black;
            stroke-width: 1024;
          }
        }
        #make-me-a-hanzi-animation-21 {
          animation: keyframes21 0.5364583333333334s both;
          animation-delay: 13.475097656250004s;
          animation-timing-function: linear;
        }
      
        @keyframes keyframes22 {
          from {
            stroke: blue;
            stroke-dashoffset: 368;
            stroke-width: 128;
          }
          55% {
            animation-timing-function: step-end;
            stroke: blue;
            stroke-dashoffset: 0;
            stroke-width: 128;
          }
          to {
            stroke: black;
            stroke-width: 1024;
          }
        }
        #make-me-a-hanzi-animation-22 {
          animation: keyframes22 0.5494791666666666s both;
          animation-delay: 14.011555989583337s;
          animation-timing-function: linear;
        }
      
    </style>
    
      <path d="M 329 749 L 375 717 Q 388 707 402 710 Q 411 711 413 724 Q 414 737 403 762 Q 391 786 318 789 Q 305 790 299 787 Q 296 783 299 772 Q 303 763 329 749 Z" fill="lightgray" />
    
      <path d="M 160 641 Q 150 640 146 633 Q 145 624 156 614 Q 189 593 246 608 Q 375 647 518 664 Q 533 665 533 671 Q 534 683 519 690 Q 497 700 477 697 Q 258 651 160 641 Z" fill="lightgray" />
    
      <path d="M 253 573 Q 250 574 248 574 Q 238 575 236 571 Q 232 567 240 554 Q 258 530 273 488 Q 277 475 286 468 Q 302 452 305 465 Q 306 469 306 477 L 303 496 Q 294 544 294 554 L 293 555 L 253 573 Z" fill="lightgray" />
    
      <path d="M 423 518 Q 439 552 452 560 Q 471 581 452 593 L 414 618 Q 398 627 360 604 Q 315 586 257 574 Q 256 574 253 573 C 224 566 265 546 293 555 Q 293 556 366 575 Q 385 579 391 572 Q 394 571 390 556 Q 386 540 379 522 C 368 494 410 491 423 518 Z" fill="lightgray" />
    
      <path d="M 351 483 Q 388 493 422 497 Q 440 501 433 510 Q 429 514 423 518 L 379 522 Q 367 521 355 516 Q 327 506 303 496 C 275 485 276 476 306 477 Q 315 477 326 479 L 351 483 Z" fill="lightgray" />
    
      <path d="M 326 479 Q 335 455 334 385 Q 333 378 332 377 Q 331 367 313 369 L 271 377 Q 264 377 263 373 Q 262 369 269 363 Q 315 332 331 311 Q 341 302 349 304 Q 356 307 363 328 Q 373 350 371 389 Q 370 422 369 434 Q 372 461 351 483 C 331 506 317 508 326 479 Z" fill="lightgray" />
    
      <path d="M 222 461 Q 200 418 172 378 Q 151 350 167 320 Q 173 304 191 314 Q 237 347 242 409 Q 248 437 242 460 Q 238 467 233 468 Q 226 468 222 461 Z" fill="lightgray" />
    
      <path d="M 393 455 Q 426 419 441 418 Q 448 417 452 429 Q 452 436 446 448 Q 436 464 395 471 Q 389 472 389 465 Q 389 461 393 455 Z" fill="lightgray" />
    
      <path d="M 679 622 Q 707 631 741 637 Q 771 644 776 649 Q 783 656 779 663 Q 772 672 749 677 Q 728 680 666 658 L 618 644 Q 581 637 538 630 Q 508 624 530 612 Q 560 596 607 605 L 652 616 Q 653 617 657 617 L 679 622 Z" fill="lightgray" />
    
      <path d="M 666 658 Q 688 761 689 762 Q 677 775 655 788 Q 642 798 632 795 Q 622 791 626 779 Q 648 740 618 644 L 607 605 Q 595 562 546 492 Q 542 488 540 483 Q 539 474 546 476 Q 565 476 619 545 Q 620 551 624 554 Q 640 582 652 616 L 666 658 Z" fill="lightgray" />
    
      <path d="M 657 617 Q 657 614 659 609 Q 669 582 667 557 Q 667 503 689 480 Q 746 435 847 464 Q 848 465 851 465 Q 875 472 897 491 Q 909 503 899 519 Q 889 535 874 589 Q 873 599 868 601 Q 864 602 862 592 Q 850 534 840 515 Q 822 494 763 497 Q 741 498 723 505 Q 707 512 703 523 Q 696 535 705 591 Q 708 610 679 622 C 652 635 652 636 657 617 Z" fill="lightgray" />
    
      <path d="M 769 739 Q 817 693 844 683 Q 857 682 864 692 Q 868 702 865 717 Q 856 748 778 771 Q 765 775 757 771 Q 751 770 754 759 Q 755 750 769 739 Z" fill="lightgray" />
    
      <path d="M 481 373 L 499 389 Q 527 419 544 429 Q 557 438 548 448 Q 538 458 519 464 Q 503 470 495 467 Q 486 464 491 456 Q 495 444 456 367 C 442 340 459 353 481 373 Z" fill="lightgray" />
    
      <path d="M 428 176 Q 428 197 430 224 L 431 243 Q 432 262 434 277 L 436 298 Q 436 305 446 333 C 450 344 450 344 426 361 Q 402 379 388 379 Q 378 379 376 371 Q 375 364 381 357 Q 409 308 385 115 Q 379 97 380 91 Q 381 82 393 74 C 416 55 450 90 436 117 Q 429 124 428 154 L 428 176 Z" fill="lightgray" />
    
      <path d="M 581 245 Q 593 223 604 215 Q 611 208 627 223 Q 637 235 666 303 Q 675 328 695 346 Q 707 356 698 368 Q 686 381 653 405 Q 640 414 587 399 Q 581 399 576 397 Q 483 375 481 373 L 456 367 Q 440 364 426 361 C 397 355 420 318 446 333 Q 456 345 597 374 Q 616 377 625 372 Q 632 365 628 354 Q 604 275 591 267 C 578 251 578 251 581 245 Z" fill="lightgray" />
    
      <path d="M 434 277 Q 438 277 444 278 Q 510 293 559 302 Q 575 306 569 315 Q 560 325 542 327 Q 521 328 436 298 C 408 288 404 275 434 277 Z" fill="lightgray" />
    
      <path d="M 430 224 Q 434 223 442 224 Q 521 237 581 245 C 611 249 618 254 591 267 Q 584 271 575 273 Q 559 276 431 243 C 402 236 400 227 430 224 Z" fill="lightgray" />
    
      <path d="M 428 154 Q 434 153 442 154 Q 538 169 609 178 Q 627 179 620 190 Q 613 202 593 206 Q 574 209 428 176 C 399 169 398 156 428 154 Z" fill="lightgray" />
    
      <path d="M 393 74 Q 403 64 445 74 Q 500 98 647 117 Q 782 136 797 109 Q 800 97 785 3 Q 775 -46 763 -66 Q 756 -81 740 -80 L 701 -66 Q 688 -59 684 -63 Q 681 -67 692 -78 Q 732 -139 734 -156 Q 737 -163 745 -165 Q 758 -169 787 -143 Q 811 -118 827 -60 Q 855 97 873 109 Q 880 116 880 122 Q 880 129 851 149 Q 814 173 763 159 Q 645 159 484 120 Q 441 114 436 117 C 406 117 364 80 393 74 Z" fill="lightgray" />
    
      <path d="M 277 35 Q 265 -8 246 -50 Q 233 -84 255 -114 Q 265 -129 283 -114 Q 322 -71 311 -15 Q 311 16 300 39 Q 293 46 288 46 Q 281 45 277 35 Z" fill="lightgray" />
    
      <path d="M 378 13 Q 397 -41 420 -63 Q 430 -69 440 -62 Q 447 -55 451 -42 Q 451 -6 398 37 L 397 38 Q 387 45 379 46 Q 375 46 372 37 Q 371 28 378 13 Z" fill="lightgray" />
    
      <path d="M 495 37 Q 517 -14 540 -32 Q 550 -38 560 -30 Q 567 -23 570 -9 Q 570 28 513 63 Q 503 70 494 70 Q 490 70 489 61 Q 488 51 495 37 Z" fill="lightgray" />
    
      <path d="M 628 30 Q 646 11 666 -13 Q 676 -26 690 -26 Q 700 -26 705 -15 Q 709 -3 705 23 Q 696 53 627 72 Q 614 76 608 75 Q 604 71 604 60 Q 605 50 628 30 Z" fill="lightgray" />
    
    
      <clipPath id="make-me-a-hanzi-clip-0">
        <path d="M 329 749 L 375 717 Q 388 707 402 710 Q 411 711 413 724 Q 414 737 403 762 Q 391 786 318 789 Q 305 790 299 787 Q 296 783 299 772 Q 303 763 329 749 Z" />
      </clipPath>
      <path clip-path="url(#make-me-a-hanzi-clip-0)" d="M 305 780 L 378 749 L 399 723" fill="none" id="make-me-a-hanzi-animation-0" stroke-dasharray="241 482" stroke-linecap="round" />
    
      <clipPath id="make-me-a-hanzi-clip-1">
        <path d="M 160 641 Q 150 640 146 633 Q 145 624 156 614 Q 189 593 246 608 Q 375 647 518 664 Q 533 665 533 671 Q 534 683 519 690 Q 497 700 477 697 Q 258 651 160 641 Z" />
      </clipPath>
      <path clip-path="url(#make-me-a-hanzi-clip-1)" d="M 155 630 L 203 623 L 470 678 L 524 674" fill="none" id="make-me-a-hanzi-animation-1" stroke-dasharray="503 1006" stroke-linecap="round" />
    
      <clipPath id="make-me-a-hanzi-clip-2">
        <path d="M 253 573 Q 250 574 248 574 Q 238 575 236 571 Q 232 567 240 554 Q 258 530 273 488 Q 277 475 286 468 Q 302 452 305 465 Q 306 469 306 477 L 303 496 Q 294 544 294 554 L 293 555 L 253 573 Z" />
      </clipPath>
      <path clip-path="url(#make-me-a-hanzi-clip-2)" d="M 243 567 L 274 540 L 296 469" fill="none" id="make-me-a-hanzi-animation-2" stroke-dasharray="243 486" stroke-linecap="round" />
    
      <clipPath id="make-me-a-hanzi-clip-3">
        <path d="M 423 518 Q 439 552 452 560 Q 471 581 452 593 L 414 618 Q 398 627 360 604 Q 315 586 257 574 Q 256 574 253 573 C 224 566 265 546 293 555 Q 293 556 366 575 Q 385 579 391 572 Q 394 571 390 556 Q 386 540 379 522 C 368 494 410 491 423 518 Z" />
      </clipPath>
      <path clip-path="url(#make-me-a-hanzi-clip-3)" d="M 265 575 L 291 568 L 350 582 L 376 595 L 403 595 L 422 575 L 410 542 L 387 526" fill="none" id="make-me-a-hanzi-animation-3" stroke-dasharray="362 724" stroke-linecap="round" />
    
      <clipPath id="make-me-a-hanzi-clip-4">
        <path d="M 351 483 Q 388 493 422 497 Q 440 501 433 510 Q 429 514 423 518 L 379 522 Q 367 521 355 516 Q 327 506 303 496 C 275 485 276 476 306 477 Q 315 477 326 479 L 351 483 Z" />
      </clipPath>
      <path clip-path="url(#make-me-a-hanzi-clip-4)" d="M 310 483 L 326 493 L 376 506 L 425 505" fill="none" id="make-me-a-hanzi-animation-4" stroke-dasharray="248 496" stroke-linecap="round" />
    
      <clipPath id="make-me-a-hanzi-clip-5">
        <path d="M 326 479 Q 335 455 334 385 Q 333 378 332 377 Q 331 367 313 369 L 271 377 Q 264 377 263 373 Q 262 369 269 363 Q 315 332 331 311 Q 341 302 349 304 Q 356 307 363 328 Q 373 350 371 389 Q 370 422 369 434 Q 372 461 351 483 C 331 506 317 508 326 479 Z" />
      </clipPath>
      <path clip-path="url(#make-me-a-hanzi-clip-5)" d="M 333 476 L 345 466 L 351 441 L 353 380 L 345 352 L 339 344 L 269 370" fill="none" id="make-me-a-hanzi-animation-5" stroke-dasharray="344 688" stroke-linecap="round" />
    
      <clipPath id="make-me-a-hanzi-clip-6">
        <path d="M 222 461 Q 200 418 172 378 Q 151 350 167 320 Q 173 304 191 314 Q 237 347 242 409 Q 248 437 242 460 Q 238 467 233 468 Q 226 468 222 461 Z" />
      </clipPath>
      <path clip-path="url(#make-me-a-hanzi-clip-6)" d="M 232 458 L 218 403 L 181 324" fill="none" id="make-me-a-hanzi-animation-6" stroke-dasharray="272 544" stroke-linecap="round" />
    
      <clipPath id="make-me-a-hanzi-clip-7">
        <path d="M 393 455 Q 426 419 441 418 Q 448 417 452 429 Q 452 436 446 448 Q 436 464 395 471 Q 389 472 389 465 Q 389 461 393 455 Z" />
      </clipPath>
      <path clip-path="url(#make-me-a-hanzi-clip-7)" d="M 397 463 L 440 430" fill="none" id="make-me-a-hanzi-animation-7" stroke-dasharray="182 364" stroke-linecap="round" />
    
      <clipPath id="make-me-a-hanzi-clip-8">
        <path d="M 679 622 Q 707 631 741 637 Q 771 644 776 649 Q 783 656 779 663 Q 772 672 749 677 Q 728 680 666 658 L 618 644 Q 581 637 538 630 Q 508 624 530 612 Q 560 596 607 605 L 652 616 Q 653 617 657 617 L 679 622 Z" />
      </clipPath>
      <path clip-path="url(#make-me-a-hanzi-clip-8)" d="M 531 622 L 596 620 L 700 649 L 769 658" fill="none" id="make-me-a-hanzi-animation-8" stroke-dasharray="371 742" stroke-linecap="round" />
    
      <clipPath id="make-me-a-hanzi-clip-9">
        <path d="M 666 658 Q 688 761 689 762 Q 677 775 655 788 Q 642 798 632 795 Q 622 791 626 779 Q 648 740 618 644 L 607 605 Q 595 562 546 492 Q 542 488 540 483 Q 539 474 546 476 Q 565 476 619 545 Q 620 551 624 554 Q 640 582 652 616 L 666 658 Z" />
      </clipPath>
      <path clip-path="url(#make-me-a-hanzi-clip-9)" d="M 636 784 L 660 753 L 651 676 L 607 558 L 577 513 L 548 483" fill="none" id="make-me-a-hanzi-animation-9" stroke-dasharray="466 932" stroke-linecap="round" />
    
      <clipPath id="make-me-a-hanzi-clip-10">
        <path d="M 657 617 Q 657 614 659 609 Q 669 582 667 557 Q 667 503 689 480 Q 746 435 847 464 Q 848 465 851 465 Q 875 472 897 491 Q 909 503 899 519 Q 889 535 874 589 Q 873 599 868 601 Q 864 602 862 592 Q 850 534 840 515 Q 822 494 763 497 Q 741 498 723 505 Q 707 512 703 523 Q 696 535 705 591 Q 708 610 679 622 C 652 635 652 636 657 617 Z" />
      </clipPath>
      <path clip-path="url(#make-me-a-hanzi-clip-10)" d="M 663 614 L 679 604 L 684 593 L 684 533 L 695 502 L 716 485 L 766 474 L 835 484 L 865 502 L 870 509 L 869 594" fill="none" id="make-me-a-hanzi-animation-10" stroke-dasharray="528 1056" stroke-linecap="round" />
    
      <clipPath id="make-me-a-hanzi-clip-11">
        <path d="M 769 739 Q 817 693 844 683 Q 857 682 864 692 Q 868 702 865 717 Q 856 748 778 771 Q 765 775 757 771 Q 751 770 754 759 Q 755 750 769 739 Z" />
      </clipPath>
      <path clip-path="url(#make-me-a-hanzi-clip-11)" d="M 764 763 L 825 725 L 849 701" fill="none" id="make-me-a-hanzi-animation-11" stroke-dasharray="234 468" stroke-linecap="round" />
    
      <clipPath id="make-me-a-hanzi-clip-12">
        <path d="M 481 373 L 499 389 Q 527 419 544 429 Q 557 438 548 448 Q 538 458 519 464 Q 503 470 495 467 Q 486 464 491 456 Q 495 444 456 367 C 442 340 459 353 481 373 Z" />
      </clipPath>
      <path clip-path="url(#make-me-a-hanzi-clip-12)" d="M 540 440 L 514 437 L 473 381" fill="none" id="make-me-a-hanzi-animation-12" stroke-dasharray="224 448" stroke-linecap="round" />
    
      <clipPath id="make-me-a-hanzi-clip-13">
        <path d="M 428 176 Q 428 197 430 224 L 431 243 Q 432 262 434 277 L 436 298 Q 436 305 446 333 C 450 344 450 344 426 361 Q 402 379 388 379 Q 378 379 376 371 Q 375 364 381 357 Q 409 308 385 115 Q 379 97 380 91 Q 381 82 393 74 C 416 55 450 90 436 117 Q 429 124 428 154 L 428 176 Z" />
      </clipPath>
      <path clip-path="url(#make-me-a-hanzi-clip-13)" d="M 387 367 L 408 350 L 417 329 L 408 123 L 394 84" fill="none" id="make-me-a-hanzi-animation-13" stroke-dasharray="425 850" stroke-linecap="round" />
    
      <clipPath id="make-me-a-hanzi-clip-14">
        <path d="M 581 245 Q 593 223 604 215 Q 611 208 627 223 Q 637 235 666 303 Q 675 328 695 346 Q 707 356 698 368 Q 686 381 653 405 Q 640 414 587 399 Q 581 399 576 397 Q 483 375 481 373 L 456 367 Q 440 364 426 361 C 397 355 420 318 446 333 Q 456 345 597 374 Q 616 377 625 372 Q 632 365 628 354 Q 604 275 591 267 C 578 251 578 251 581 245 Z" />
      </clipPath>
      <path clip-path="url(#make-me-a-hanzi-clip-14)" d="M 434 360 L 455 353 L 600 390 L 642 386 L 658 367 L 660 355 L 612 251 L 611 230" fill="none" id="make-me-a-hanzi-animation-14" stroke-dasharray="515 1030" stroke-linecap="round" />
    
      <clipPath id="make-me-a-hanzi-clip-15">
        <path d="M 434 277 Q 438 277 444 278 Q 510 293 559 302 Q 575 306 569 315 Q 560 325 542 327 Q 521 328 436 298 C 408 288 404 275 434 277 Z" />
      </clipPath>
      <path clip-path="url(#make-me-a-hanzi-clip-15)" d="M 439 282 L 472 300 L 547 314 L 561 311" fill="none" id="make-me-a-hanzi-animation-15" stroke-dasharray="256 512" stroke-linecap="round" />
    
      <clipPath id="make-me-a-hanzi-clip-16">
        <path d="M 430 224 Q 434 223 442 224 Q 521 237 581 245 C 611 249 618 254 591 267 Q 584 271 575 273 Q 559 276 431 243 C 402 236 400 227 430 224 Z" />
      </clipPath>
      <path clip-path="url(#make-me-a-hanzi-clip-16)" d="M 436 228 L 444 238 L 585 263" fill="none" id="make-me-a-hanzi-animation-16" stroke-dasharray="284 568" stroke-linecap="round" />
    
      <clipPath id="make-me-a-hanzi-clip-17">
        <path d="M 428 154 Q 434 153 442 154 Q 538 169 609 178 Q 627 179 620 190 Q 613 202 593 206 Q 574 209 428 176 C 399 169 398 156 428 154 Z" />
      </clipPath>
      <path clip-path="url(#make-me-a-hanzi-clip-17)" d="M 435 160 L 443 170 L 490 178 L 590 191 L 613 185" fill="none" id="make-me-a-hanzi-animation-17" stroke-dasharray="313 626" stroke-linecap="round" />
    
      <clipPath id="make-me-a-hanzi-clip-18">
        <path d="M 393 74 Q 403 64 445 74 Q 500 98 647 117 Q 782 136 797 109 Q 800 97 785 3 Q 775 -46 763 -66 Q 756 -81 740 -80 L 701 -66 Q 688 -59 684 -63 Q 681 -67 692 -78 Q 732 -139 734 -156 Q 737 -163 745 -165 Q 758 -169 787 -143 Q 811 -118 827 -60 Q 855 97 873 109 Q 880 116 880 122 Q 880 129 851 149 Q 814 173 763 159 Q 645 159 484 120 Q 441 114 436 117 C 406 117 364 80 393 74 Z" />
      </clipPath>
      <path clip-path="url(#make-me-a-hanzi-clip-18)" d="M 400 78 L 459 100 L 597 128 L 716 142 L 790 141 L 812 135 L 829 123 L 832 110 L 804 -42 L 777 -101 L 759 -116 L 688 -66" fill="none" id="make-me-a-hanzi-animation-18" stroke-dasharray="912 1824" stroke-linecap="round" />
    
      <clipPath id="make-me-a-hanzi-clip-19">
        <path d="M 277 35 Q 265 -8 246 -50 Q 233 -84 255 -114 Q 265 -129 283 -114 Q 322 -71 311 -15 Q 311 16 300 39 Q 293 46 288 46 Q 281 45 277 35 Z" />
      </clipPath>
      <path clip-path="url(#make-me-a-hanzi-clip-19)" d="M 289 34 L 288 -9 L 269 -105" fill="none" id="make-me-a-hanzi-animation-19" stroke-dasharray="269 538" stroke-linecap="round" />
    
      <clipPath id="make-me-a-hanzi-clip-20">
        <path d="M 378 13 Q 397 -41 420 -63 Q 430 -69 440 -62 Q 447 -55 451 -42 Q 451 -6 398 37 L 397 38 Q 387 45 379 46 Q 375 46 372 37 Q 371 28 378 13 Z" />
      </clipPath>
      <path clip-path="url(#make-me-a-hanzi-clip-20)" d="M 381 37 L 421 -23 L 429 -49" fill="none" id="make-me-a-hanzi-animation-20" stroke-dasharray="227 454" stroke-linecap="round" />
    
      <clipPath id="make-me-a-hanzi-clip-21">
        <path d="M 495 37 Q 517 -14 540 -32 Q 550 -38 560 -30 Q 567 -23 570 -9 Q 570 28 513 63 Q 503 70 494 70 Q 490 70 489 61 Q 488 51 495 37 Z" />
      </clipPath>
      <path clip-path="url(#make-me-a-hanzi-clip-21)" d="M 497 62 L 539 8 L 549 -18" fill="none" id="make-me-a-hanzi-animation-21" stroke-dasharray="224 448" stroke-linecap="round" />
    
      <clipPath id="make-me-a-hanzi-clip-22">
        <path d="M 628 30 Q 646 11 666 -13 Q 676 -26 690 -26 Q 700 -26 705 -15 Q 709 -3 705 23 Q 696 53 627 72 Q 614 76 608 75 Q 604 71 604 60 Q 605 50 628 30 Z" />
      </clipPath>
      <path clip-path="url(#make-me-a-hanzi-clip-22)" d="M 612 66 L 662 32 L 678 16 L 690 -10" fill="none" id="make-me-a-hanzi-animation-22" stroke-dasharray="240 480" stroke-linecap="round" />
    
  </g>
</svg>