<svg xmlns="http://www.w3.org/2000/svg" version="1.1" viewBox="0 0 1024 1024">
  <g stroke="lightgray" stroke-dasharray="1,1" stroke-width="1" transform="scale(4, 4)">
    <line x1="0" y1="0" x2="256" y2="256" />
    <line x1="256" y1="0" x2="0" y2="256" />
    <line x1="128" y1="0" x2="128" y2="256" />
    <line x1="0" y1="128" x2="256" y2="128" />
  </g>
  <g transform="scale(1.0, -1.0) translate(0.0, -803.00)">
    <style type="text/css">
      
        @keyframes keyframes0 {
          from {
            stroke: blue;
            stroke-dashoffset: 525;
            stroke-width: 128;
          }
          63% {
            animation-timing-function: step-end;
            stroke: blue;
            stroke-dashoffset: 0;
            stroke-width: 128;
          }
          to {
            stroke: black;
            stroke-width: 1024;
          }
        }
        #make-me-a-hanzi-animation-0 {
          animation: keyframes0 0.67724609375s both;
          animation-delay: 0s;
          animation-timing-function: linear;
        }
      
        @keyframes keyframes1 {
          from {
            stroke: blue;
            stroke-dashoffset: 697;
            stroke-width: 128;
          }
          69% {
            animation-timing-function: step-end;
            stroke: blue;
            stroke-dashoffset: 0;
            stroke-width: 128;
          }
          to {
            stroke: black;
            stroke-width: 1024;
          }
        }
        #make-me-a-hanzi-animation-1 {
          animation: keyframes1 0.8172200520833334s both;
          animation-delay: 0.67724609375s;
          animation-timing-function: linear;
        }
      
        @keyframes keyframes2 {
          from {
            stroke: blue;
            stroke-dashoffset: 561;
            stroke-width: 128;
          }
          65% {
            animation-timing-function: step-end;
            stroke: blue;
            stroke-dashoffset: 0;
            stroke-width: 128;
          }
          to {
            stroke: black;
            stroke-width: 1024;
          }
        }
        #make-me-a-hanzi-animation-2 {
          animation: keyframes2 0.70654296875s both;
          animation-delay: 1.4944661458333335s;
          animation-timing-function: linear;
        }
      
        @keyframes keyframes3 {
          from {
            stroke: blue;
            stroke-dashoffset: 1139;
            stroke-width: 128;
          }
          79% {
            animation-timing-function: step-end;
            stroke: blue;
            stroke-dashoffset: 0;
            stroke-width: 128;
          }
          to {
            stroke: black;
            stroke-width: 1024;
          }
        }
        #make-me-a-hanzi-animation-3 {
          animation: keyframes3 1.1769205729166667s both;
          animation-delay: 2.2010091145833335s;
          animation-timing-function: linear;
        }
      
        @keyframes keyframes4 {
          from {
            stroke: blue;
            stroke-dashoffset: 441;
            stroke-width: 128;
          }
          59% {
            animation-timing-function: step-end;
            stroke: blue;
            stroke-dashoffset: 0;
            stroke-width: 128;
          }
          to {
            stroke: black;
            stroke-width: 1024;
          }
        }
        #make-me-a-hanzi-animation-4 {
          animation: keyframes4 0.60888671875s both;
          animation-delay: 3.3779296875s;
          animation-timing-function: linear;
        }
      
        @keyframes keyframes5 {
          from {
            stroke: blue;
            stroke-dashoffset: 775;
            stroke-width: 128;
          }
          72% {
            animation-timing-function: step-end;
            stroke: blue;
            stroke-dashoffset: 0;
            stroke-width: 128;
          }
          to {
            stroke: black;
            stroke-width: 1024;
          }
        }
        #make-me-a-hanzi-animation-5 {
          animation: keyframes5 0.8806966145833334s both;
          animation-delay: 3.98681640625s;
          animation-timing-function: linear;
        }
      
        @keyframes keyframes6 {
          from {
            stroke: blue;
            stroke-dashoffset: 320;
            stroke-width: 128;
          }
          51% {
            animation-timing-function: step-end;
            stroke: blue;
            stroke-dashoffset: 0;
            stroke-width: 128;
          }
          to {
            stroke: black;
            stroke-width: 1024;
          }
        }
        #make-me-a-hanzi-animation-6 {
          animation: keyframes6 0.5104166666666666s both;
          animation-delay: 4.867513020833333s;
          animation-timing-function: linear;
        }
      
        @keyframes keyframes7 {
          from {
            stroke: blue;
            stroke-dashoffset: 1442;
            stroke-width: 128;
          }
          82% {
            animation-timing-function: step-end;
            stroke: blue;
            stroke-dashoffset: 0;
            stroke-width: 128;
          }
          to {
            stroke: black;
            stroke-width: 1024;
          }
        }
        #make-me-a-hanzi-animation-7 {
          animation: keyframes7 1.4235026041666667s both;
          animation-delay: 5.3779296875s;
          animation-timing-function: linear;
        }
      
        @keyframes keyframes8 {
          from {
            stroke: blue;
            stroke-dashoffset: 607;
            stroke-width: 128;
          }
          66% {
            animation-timing-function: step-end;
            stroke: blue;
            stroke-dashoffset: 0;
            stroke-width: 128;
          }
          to {
            stroke: black;
            stroke-width: 1024;
          }
        }
        #make-me-a-hanzi-animation-8 {
          animation: keyframes8 0.7439778645833334s both;
          animation-delay: 6.801432291666667s;
          animation-timing-function: linear;
        }
      
    </style>
    
      <path d="M 197 581 Q 242 566 280 578 L 428 612 Q 462 621 468 626 Q 475 633 471 641 Q 464 651 437 658 Q 410 662 383 651 Q 302 621 199 606 Q 195 606 192 604 C 163 597 168 590 197 581 Z" fill="lightgray" />
    
      <path d="M 388 333 Q 410 379 427 447 Q 434 471 444 494 Q 450 504 444 512 Q 437 519 409 531 Q 390 538 381 536 Q 371 532 373 519 Q 388 453 353 363 L 336 325 Q 303 258 210 159 Q 204 152 210 150 Q 238 146 317 227 Q 345 255 366 289 L 388 333 Z" fill="lightgray" />
    
      <path d="M 366 289 Q 439 199 445 197 Q 451 196 457 202 Q 466 209 460 241 Q 457 271 388 333 L 353 363 Q 290 415 254 442 Q 248 446 246 438 Q 245 428 251 421 L 336 325 L 366 289 Z" fill="lightgray" />
    
      <path d="M 192 604 Q 180 616 151 631 Q 132 641 123 635 Q 116 628 124 613 Q 164 526 134 151 Q 125 79 110 52 Q 101 37 111 17 Q 120 -2 130 -11 Q 140 -18 156 -5 Q 225 53 425 78 Q 449 79 448 92 Q 447 105 417 121 Q 402 130 300 101 Q 257 95 198 73 Q 191 70 187 73 Q 180 74 180 90 Q 187 273 191 504 Q 191 552 197 581 C 200 598 200 598 192 604 Z" fill="lightgray" />
    
      <path d="M 598 565 Q 707 683 712 686 Q 728 699 716 712 Q 700 725 674 732 Q 650 739 640 734 Q 630 730 635 719 Q 645 695 613 631 L 583 573 C 569 546 578 543 598 565 Z" fill="lightgray" />
    
      <path d="M 607 531 Q 647 547 748 572 Q 757 573 763 570 Q 776 564 776 545 Q 776 496 760 409 Q 759 390 740 391 Q 712 397 689 403 Q 676 406 679 398 Q 680 389 703 371 Q 734 343 753 312 Q 762 303 772 307 Q 799 325 814 394 Q 814 499 826 548 Q 827 557 833 562 Q 843 571 838 580 Q 831 590 798 609 Q 786 615 729 600 Q 723 600 641 576 Q 616 570 598 565 C 569 557 579 521 607 531 Z" fill="lightgray" />
    
      <path d="M 616 478 Q 647 430 665 427 Q 675 426 681 439 Q 684 449 678 465 Q 671 477 656 483 Q 632 496 622 498 Q 615 499 613 491 Q 612 485 616 478 Z" fill="lightgray" />
    
      <path d="M 582 182 Q 642 224 812 238 Q 843 242 856 230 Q 869 220 858 176 Q 837 4 808 -41 Q 799 -54 775 -51 Q 736 -39 702 -30 Q 686 -26 687 -33 Q 687 -39 696 -46 Q 759 -98 782 -136 Q 791 -157 808 -146 Q 871 -113 882 -44 Q 901 49 913 150 Q 920 187 938 219 Q 950 235 938 248 Q 920 267 883 288 Q 862 300 834 286 Q 797 270 763 265 Q 714 258 615 236 Q 590 232 589 252 Q 592 492 607 531 C 617 579 611 563 583 573 Q 573 579 562 583 Q 543 590 535 581 Q 529 575 537 564 Q 547 542 549 434 Q 543 266 532 221 Q 528 200 542 185 Q 563 169 582 182 Z" fill="lightgray" />
    
      <path d="M 459 69 Q 447 68 444 60 Q 443 50 457 39 Q 494 15 533 29 Q 674 80 790 100 Q 806 103 806 110 Q 807 122 789 130 Q 764 140 742 134 Q 550 83 459 69 Z" fill="lightgray" />
    
    
      <clipPath id="make-me-a-hanzi-clip-0">
        <path d="M 197 581 Q 242 566 280 578 L 428 612 Q 462 621 468 626 Q 475 633 471 641 Q 464 651 437 658 Q 410 662 383 651 Q 302 621 199 606 Q 195 606 192 604 C 163 597 168 590 197 581 Z" />
      </clipPath>
      <path clip-path="url(#make-me-a-hanzi-clip-0)" d="M 197 599 L 222 592 L 258 594 L 408 633 L 460 635" fill="none" id="make-me-a-hanzi-animation-0" stroke-dasharray="397 794" stroke-linecap="round" />
    
      <clipPath id="make-me-a-hanzi-clip-1">
        <path d="M 388 333 Q 410 379 427 447 Q 434 471 444 494 Q 450 504 444 512 Q 437 519 409 531 Q 390 538 381 536 Q 371 532 373 519 Q 388 453 353 363 L 336 325 Q 303 258 210 159 Q 204 152 210 150 Q 238 146 317 227 Q 345 255 366 289 L 388 333 Z" />
      </clipPath>
      <path clip-path="url(#make-me-a-hanzi-clip-1)" d="M 386 523 L 409 495 L 394 413 L 361 326 L 336 281 L 297 230 L 244 177 L 213 155" fill="none" id="make-me-a-hanzi-animation-1" stroke-dasharray="569 1138" stroke-linecap="round" />
    
      <clipPath id="make-me-a-hanzi-clip-2">
        <path d="M 366 289 Q 439 199 445 197 Q 451 196 457 202 Q 466 209 460 241 Q 457 271 388 333 L 353 363 Q 290 415 254 442 Q 248 446 246 438 Q 245 428 251 421 L 336 325 L 366 289 Z" />
      </clipPath>
      <path clip-path="url(#make-me-a-hanzi-clip-2)" d="M 253 434 L 406 281 L 434 244 L 449 205" fill="none" id="make-me-a-hanzi-animation-2" stroke-dasharray="433 866" stroke-linecap="round" />
    
      <clipPath id="make-me-a-hanzi-clip-3">
        <path d="M 192 604 Q 180 616 151 631 Q 132 641 123 635 Q 116 628 124 613 Q 164 526 134 151 Q 125 79 110 52 Q 101 37 111 17 Q 120 -2 130 -11 Q 140 -18 156 -5 Q 225 53 425 78 Q 449 79 448 92 Q 447 105 417 121 Q 402 130 300 101 Q 257 95 198 73 Q 191 70 187 73 Q 180 74 180 90 Q 187 273 191 504 Q 191 552 197 581 C 200 598 200 598 192 604 Z" />
      </clipPath>
      <path clip-path="url(#make-me-a-hanzi-clip-3)" d="M 130 627 L 164 586 L 168 532 L 166 294 L 152 52 L 157 45 L 187 46 L 318 85 L 377 96 L 407 99 L 436 92" fill="none" id="make-me-a-hanzi-animation-3" stroke-dasharray="1011 2022" stroke-linecap="round" />
    
      <clipPath id="make-me-a-hanzi-clip-4">
        <path d="M 598 565 Q 707 683 712 686 Q 728 699 716 712 Q 700 725 674 732 Q 650 739 640 734 Q 630 730 635 719 Q 645 695 613 631 L 583 573 C 569 546 578 543 598 565 Z" />
      </clipPath>
      <path clip-path="url(#make-me-a-hanzi-clip-4)" d="M 647 723 L 672 696 L 600 578 L 590 577" fill="none" id="make-me-a-hanzi-animation-4" stroke-dasharray="313 626" stroke-linecap="round" />
    
      <clipPath id="make-me-a-hanzi-clip-5">
        <path d="M 607 531 Q 647 547 748 572 Q 757 573 763 570 Q 776 564 776 545 Q 776 496 760 409 Q 759 390 740 391 Q 712 397 689 403 Q 676 406 679 398 Q 680 389 703 371 Q 734 343 753 312 Q 762 303 772 307 Q 799 325 814 394 Q 814 499 826 548 Q 827 557 833 562 Q 843 571 838 580 Q 831 590 798 609 Q 786 615 729 600 Q 723 600 641 576 Q 616 570 598 565 C 569 557 579 521 607 531 Z" />
      </clipPath>
      <path clip-path="url(#make-me-a-hanzi-clip-5)" d="M 609 538 L 618 553 L 743 589 L 777 588 L 792 582 L 803 568 L 788 404 L 779 376 L 765 359 L 686 397" fill="none" id="make-me-a-hanzi-animation-5" stroke-dasharray="647 1294" stroke-linecap="round" />
    
      <clipPath id="make-me-a-hanzi-clip-6">
        <path d="M 616 478 Q 647 430 665 427 Q 675 426 681 439 Q 684 449 678 465 Q 671 477 656 483 Q 632 496 622 498 Q 615 499 613 491 Q 612 485 616 478 Z" />
      </clipPath>
      <path clip-path="url(#make-me-a-hanzi-clip-6)" d="M 623 487 L 653 462 L 666 441" fill="none" id="make-me-a-hanzi-animation-6" stroke-dasharray="192 384" stroke-linecap="round" />
    
      <clipPath id="make-me-a-hanzi-clip-7">
        <path d="M 582 182 Q 642 224 812 238 Q 843 242 856 230 Q 869 220 858 176 Q 837 4 808 -41 Q 799 -54 775 -51 Q 736 -39 702 -30 Q 686 -26 687 -33 Q 687 -39 696 -46 Q 759 -98 782 -136 Q 791 -157 808 -146 Q 871 -113 882 -44 Q 901 49 913 150 Q 920 187 938 219 Q 950 235 938 248 Q 920 267 883 288 Q 862 300 834 286 Q 797 270 763 265 Q 714 258 615 236 Q 590 232 589 252 Q 592 492 607 531 C 617 579 611 563 583 573 Q 573 579 562 583 Q 543 590 535 581 Q 529 575 537 564 Q 547 542 549 434 Q 543 266 532 221 Q 528 200 542 185 Q 563 169 582 182 Z" />
      </clipPath>
      <path clip-path="url(#make-me-a-hanzi-clip-7)" d="M 545 574 L 566 554 L 575 530 L 563 248 L 568 216 L 609 217 L 711 242 L 851 264 L 874 257 L 900 230 L 862 12 L 836 -67 L 807 -93 L 696 -37" fill="none" id="make-me-a-hanzi-animation-7" stroke-dasharray="1314 2628" stroke-linecap="round" />
    
      <clipPath id="make-me-a-hanzi-clip-8">
        <path d="M 459 69 Q 447 68 444 60 Q 443 50 457 39 Q 494 15 533 29 Q 674 80 790 100 Q 806 103 806 110 Q 807 122 789 130 Q 764 140 742 134 Q 550 83 459 69 Z" />
      </clipPath>
      <path clip-path="url(#make-me-a-hanzi-clip-8)" d="M 454 57 L 508 50 L 698 103 L 763 116 L 796 113" fill="none" id="make-me-a-hanzi-animation-8" stroke-dasharray="479 958" stroke-linecap="round" />
    
  </g>
</svg>