<svg xmlns="http://www.w3.org/2000/svg" version="1.1" viewBox="0 0 1024 1024">
  <g stroke="lightgray" stroke-dasharray="1,1" stroke-width="1" transform="scale(4, 4)">
    <line x1="0" y1="0" x2="256" y2="256" />
    <line x1="256" y1="0" x2="0" y2="256" />
    <line x1="128" y1="0" x2="128" y2="256" />
    <line x1="0" y1="128" x2="256" y2="128" />
  </g>
  <g transform="scale(1.0, -1.0) translate(0.0, -824.00)">
    <style type="text/css">
      
        @keyframes keyframes0 {
          from {
            stroke: blue;
            stroke-dashoffset: 424;
            stroke-width: 128;
          }
          58% {
            animation-timing-function: step-end;
            stroke: blue;
            stroke-dashoffset: 0;
            stroke-width: 128;
          }
          to {
            stroke: black;
            stroke-width: 1024;
          }
        }
        #make-me-a-hanzi-animation-0 {
          animation: keyframes0 0.5950520833333334s both;
          animation-delay: 0s;
          animation-timing-function: linear;
        }
      
        @keyframes keyframes1 {
          from {
            stroke: blue;
            stroke-dashoffset: 649;
            stroke-width: 128;
          }
          68% {
            animation-timing-function: step-end;
            stroke: blue;
            stroke-dashoffset: 0;
            stroke-width: 128;
          }
          to {
            stroke: black;
            stroke-width: 1024;
          }
        }
        #make-me-a-hanzi-animation-1 {
          animation: keyframes1 0.7781575520833334s both;
          animation-delay: 0.5950520833333334s;
          animation-timing-function: linear;
        }
      
        @keyframes keyframes2 {
          from {
            stroke: blue;
            stroke-dashoffset: 1020;
            stroke-width: 128;
          }
          77% {
            animation-timing-function: step-end;
            stroke: blue;
            stroke-dashoffset: 0;
            stroke-width: 128;
          }
          to {
            stroke: black;
            stroke-width: 1024;
          }
        }
        #make-me-a-hanzi-animation-2 {
          animation: keyframes2 1.080078125s both;
          animation-delay: 1.3732096354166667s;
          animation-timing-function: linear;
        }
      
        @keyframes keyframes3 {
          from {
            stroke: blue;
            stroke-dashoffset: 688;
            stroke-width: 128;
          }
          69% {
            animation-timing-function: step-end;
            stroke: blue;
            stroke-dashoffset: 0;
            stroke-width: 128;
          }
          to {
            stroke: black;
            stroke-width: 1024;
          }
        }
        #make-me-a-hanzi-animation-3 {
          animation: keyframes3 0.8098958333333334s both;
          animation-delay: 2.453287760416667s;
          animation-timing-function: linear;
        }
      
        @keyframes keyframes4 {
          from {
            stroke: blue;
            stroke-dashoffset: 436;
            stroke-width: 128;
          }
          59% {
            animation-timing-function: step-end;
            stroke: blue;
            stroke-dashoffset: 0;
            stroke-width: 128;
          }
          to {
            stroke: black;
            stroke-width: 1024;
          }
        }
        #make-me-a-hanzi-animation-4 {
          animation: keyframes4 0.6048177083333334s both;
          animation-delay: 3.2631835937500004s;
          animation-timing-function: linear;
        }
      
        @keyframes keyframes5 {
          from {
            stroke: blue;
            stroke-dashoffset: 759;
            stroke-width: 128;
          }
          71% {
            animation-timing-function: step-end;
            stroke: blue;
            stroke-dashoffset: 0;
            stroke-width: 128;
          }
          to {
            stroke: black;
            stroke-width: 1024;
          }
        }
        #make-me-a-hanzi-animation-5 {
          animation: keyframes5 0.86767578125s both;
          animation-delay: 3.868001302083334s;
          animation-timing-function: linear;
        }
      
        @keyframes keyframes6 {
          from {
            stroke: blue;
            stroke-dashoffset: 325;
            stroke-width: 128;
          }
          51% {
            animation-timing-function: step-end;
            stroke: blue;
            stroke-dashoffset: 0;
            stroke-width: 128;
          }
          to {
            stroke: black;
            stroke-width: 1024;
          }
        }
        #make-me-a-hanzi-animation-6 {
          animation: keyframes6 0.5144856770833334s both;
          animation-delay: 4.735677083333334s;
          animation-timing-function: linear;
        }
      
        @keyframes keyframes7 {
          from {
            stroke: blue;
            stroke-dashoffset: 1356;
            stroke-width: 128;
          }
          82% {
            animation-timing-function: step-end;
            stroke: blue;
            stroke-dashoffset: 0;
            stroke-width: 128;
          }
          to {
            stroke: black;
            stroke-width: 1024;
          }
        }
        #make-me-a-hanzi-animation-7 {
          animation: keyframes7 1.353515625s both;
          animation-delay: 5.250162760416667s;
          animation-timing-function: linear;
        }
      
        @keyframes keyframes8 {
          from {
            stroke: blue;
            stroke-dashoffset: 631;
            stroke-width: 128;
          }
          67% {
            animation-timing-function: step-end;
            stroke: blue;
            stroke-dashoffset: 0;
            stroke-width: 128;
          }
          to {
            stroke: black;
            stroke-width: 1024;
          }
        }
        #make-me-a-hanzi-animation-8 {
          animation: keyframes8 0.7635091145833334s both;
          animation-delay: 6.603678385416667s;
          animation-timing-function: linear;
        }
      
    </style>
    
      <path d="M 185 520 Q 173 539 164 545 Q 148 557 147 534 Q 153 501 110 446 Q 86 446 114 383 Q 115 379 119 374 Q 134 352 149 378 Q 149 381 188 495 Q 188 496 189 497 C 193 508 193 508 185 520 Z" fill="lightgray" />
    
      <path d="M 337 522 Q 397 540 412 537 Q 428 528 427 521 Q 427 520 400 451 Q 396 441 401 437 Q 407 434 419 444 Q 462 481 501 496 Q 532 509 530 517 Q 529 524 469 565 Q 451 580 342 553 L 295 544 Q 241 534 187 521 Q 186 521 185 520 C 156 512 160 506 189 497 Q 205 488 243 496 Q 264 505 290 511 L 337 522 Z" fill="lightgray" />
    
      <path d="M 309 373 Q 309 374 310 377 Q 326 440 337 522 L 342 553 Q 351 634 359 659 Q 366 677 347 688 Q 305 713 291 712 Q 272 711 285 689 Q 306 644 295 544 L 290 511 Q 248 213 72 80 Q 45 61 36 48 Q 33 41 44 41 Q 59 40 79 52 Q 137 85 173 118 Q 225 169 259 228 Q 284 280 303 349 L 309 373 Z" fill="lightgray" />
    
      <path d="M 303 349 Q 318 318 317 287 Q 317 193 309 162 Q 305 134 294 117 Q 281 96 290 76 Q 302 45 318 34 Q 328 27 340 46 Q 368 86 463 192 Q 478 207 479 214 Q 479 227 461 215 Q 368 152 360 153 Q 354 157 353 171 Q 360 286 367 315 Q 371 333 359 344 Q 337 369 318 372 Q 312 373 309 373 C 292 376 292 376 303 349 Z" fill="lightgray" />
    
      <path d="M 583 566 L 638 617 Q 684 668 703 681 Q 719 694 707 708 Q 692 721 666 728 Q 642 735 632 731 Q 622 728 627 717 Q 634 696 572 574 C 558 547 561 546 583 566 Z" fill="lightgray" />
    
      <path d="M 596 524 Q 603 523 612 526 Q 649 542 748 568 Q 757 569 763 566 Q 773 562 773 544 Q 772 501 755 425 Q 752 404 733 407 L 685 419 Q 672 422 675 414 Q 676 405 698 386 Q 726 358 743 328 Q 750 319 760 323 Q 767 326 781 347 Q 797 372 811 456 Q 818 541 832 556 Q 842 565 837 574 Q 830 584 797 604 Q 784 611 730 595 Q 724 595 594 558 C 565 550 566 520 596 524 Z" fill="lightgray" />
    
      <path d="M 618 477 Q 657 431 675 430 Q 684 429 688 442 Q 689 451 682 465 Q 666 489 620 495 Q 614 496 613 488 Q 612 482 618 477 Z" fill="lightgray" />
    
      <path d="M 580 205 Q 634 241 792 250 Q 823 253 837 240 Q 849 228 836 185 Q 829 131 818 75 Q 811 32 790 3 Q 780 -7 758 -3 Q 724 7 694 17 Q 678 21 679 15 Q 678 9 687 1 Q 742 -53 760 -90 Q 767 -111 786 -101 Q 846 -73 860 -10 Q 878 69 891 158 Q 898 195 918 226 Q 931 242 919 255 Q 903 274 865 297 Q 844 309 816 297 Q 782 284 751 280 Q 708 276 616 258 Q 589 252 587 274 Q 583 472 596 524 C 601 554 601 554 594 558 Q 590 564 583 566 L 572 574 Q 565 578 555 582 Q 537 588 529 580 Q 523 574 531 564 Q 543 540 545 405 Q 545 291 534 244 Q 528 225 542 210 Q 561 194 580 205 Z" fill="lightgray" />
    
      <path d="M 615 78 L 658 84 Q 712 94 771 91 Q 792 91 796 99 Q 800 111 789 120 Q 726 168 664 141 Q 648 138 631 133 Q 462 99 419 93 Q 407 92 407 82 Q 408 72 426 60 Q 442 51 470 44 Q 480 41 494 50 Q 528 65 615 78 Z" fill="lightgray" />
    
    
      <clipPath id="make-me-a-hanzi-clip-0">
        <path d="M 185 520 Q 173 539 164 545 Q 148 557 147 534 Q 153 501 110 446 Q 86 446 114 383 Q 115 379 119 374 Q 134 352 149 378 Q 149 381 188 495 Q 188 496 189 497 C 193 508 193 508 185 520 Z" />
      </clipPath>
      <path clip-path="url(#make-me-a-hanzi-clip-0)" d="M 156 539 L 166 500 L 131 424 L 134 380" fill="none" id="make-me-a-hanzi-animation-0" stroke-dasharray="296 592" stroke-linecap="round" />
    
      <clipPath id="make-me-a-hanzi-clip-1">
        <path d="M 337 522 Q 397 540 412 537 Q 428 528 427 521 Q 427 520 400 451 Q 396 441 401 437 Q 407 434 419 444 Q 462 481 501 496 Q 532 509 530 517 Q 529 524 469 565 Q 451 580 342 553 L 295 544 Q 241 534 187 521 Q 186 521 185 520 C 156 512 160 506 189 497 Q 205 488 243 496 Q 264 505 290 511 L 337 522 Z" />
      </clipPath>
      <path clip-path="url(#make-me-a-hanzi-clip-1)" d="M 189 515 L 206 508 L 231 512 L 345 537 L 357 545 L 422 553 L 447 543 L 465 521 L 405 444" fill="none" id="make-me-a-hanzi-animation-1" stroke-dasharray="521 1042" stroke-linecap="round" />
    
      <clipPath id="make-me-a-hanzi-clip-2">
        <path d="M 309 373 Q 309 374 310 377 Q 326 440 337 522 L 342 553 Q 351 634 359 659 Q 366 677 347 688 Q 305 713 291 712 Q 272 711 285 689 Q 306 644 295 544 L 290 511 Q 248 213 72 80 Q 45 61 36 48 Q 33 41 44 41 Q 59 40 79 52 Q 137 85 173 118 Q 225 169 259 228 Q 284 280 303 349 L 309 373 Z" />
      </clipPath>
      <path clip-path="url(#make-me-a-hanzi-clip-2)" d="M 291 700 L 327 663 L 323 588 L 299 428 L 260 293 L 234 234 L 164 138 L 93 76 L 43 48" fill="none" id="make-me-a-hanzi-animation-2" stroke-dasharray="892 1784" stroke-linecap="round" />
    
      <clipPath id="make-me-a-hanzi-clip-3">
        <path d="M 303 349 Q 318 318 317 287 Q 317 193 309 162 Q 305 134 294 117 Q 281 96 290 76 Q 302 45 318 34 Q 328 27 340 46 Q 368 86 463 192 Q 478 207 479 214 Q 479 227 461 215 Q 368 152 360 153 Q 354 157 353 171 Q 360 286 367 315 Q 371 333 359 344 Q 337 369 318 372 Q 312 373 309 373 C 292 376 292 376 303 349 Z" />
      </clipPath>
      <path clip-path="url(#make-me-a-hanzi-clip-3)" d="M 313 366 L 341 323 L 331 149 L 340 115 L 370 126 L 431 175 L 435 185 L 449 189 L 453 203 L 463 204 L 470 213" fill="none" id="make-me-a-hanzi-animation-3" stroke-dasharray="560 1120" stroke-linecap="round" />
    
      <clipPath id="make-me-a-hanzi-clip-4">
        <path d="M 583 566 L 638 617 Q 684 668 703 681 Q 719 694 707 708 Q 692 721 666 728 Q 642 735 632 731 Q 622 728 627 717 Q 634 696 572 574 C 558 547 561 546 583 566 Z" />
      </clipPath>
      <path clip-path="url(#make-me-a-hanzi-clip-4)" d="M 638 721 L 661 692 L 611 613 L 593 589 L 582 584 L 583 577" fill="none" id="make-me-a-hanzi-animation-4" stroke-dasharray="308 616" stroke-linecap="round" />
    
      <clipPath id="make-me-a-hanzi-clip-5">
        <path d="M 596 524 Q 603 523 612 526 Q 649 542 748 568 Q 757 569 763 566 Q 773 562 773 544 Q 772 501 755 425 Q 752 404 733 407 L 685 419 Q 672 422 675 414 Q 676 405 698 386 Q 726 358 743 328 Q 750 319 760 323 Q 767 326 781 347 Q 797 372 811 456 Q 818 541 832 556 Q 842 565 837 574 Q 830 584 797 604 Q 784 611 730 595 Q 724 595 594 558 C 565 550 566 520 596 524 Z" />
      </clipPath>
      <path clip-path="url(#make-me-a-hanzi-clip-5)" d="M 600 530 L 614 548 L 744 585 L 776 584 L 801 565 L 790 470 L 768 388 L 755 375 L 682 413" fill="none" id="make-me-a-hanzi-animation-5" stroke-dasharray="631 1262" stroke-linecap="round" />
    
      <clipPath id="make-me-a-hanzi-clip-6">
        <path d="M 618 477 Q 657 431 675 430 Q 684 429 688 442 Q 689 451 682 465 Q 666 489 620 495 Q 614 496 613 488 Q 612 482 618 477 Z" />
      </clipPath>
      <path clip-path="url(#make-me-a-hanzi-clip-6)" d="M 622 486 L 658 463 L 675 443" fill="none" id="make-me-a-hanzi-animation-6" stroke-dasharray="197 394" stroke-linecap="round" />
    
      <clipPath id="make-me-a-hanzi-clip-7">
        <path d="M 580 205 Q 634 241 792 250 Q 823 253 837 240 Q 849 228 836 185 Q 829 131 818 75 Q 811 32 790 3 Q 780 -7 758 -3 Q 724 7 694 17 Q 678 21 679 15 Q 678 9 687 1 Q 742 -53 760 -90 Q 767 -111 786 -101 Q 846 -73 860 -10 Q 878 69 891 158 Q 898 195 918 226 Q 931 242 919 255 Q 903 274 865 297 Q 844 309 816 297 Q 782 284 751 280 Q 708 276 616 258 Q 589 252 587 274 Q 583 472 596 524 C 601 554 601 554 594 558 Q 590 564 583 566 L 572 574 Q 565 578 555 582 Q 537 588 529 580 Q 523 574 531 564 Q 543 540 545 405 Q 545 291 534 244 Q 528 225 542 210 Q 561 194 580 205 Z" />
      </clipPath>
      <path clip-path="url(#make-me-a-hanzi-clip-7)" d="M 538 573 L 558 556 L 568 527 L 563 266 L 568 237 L 594 236 L 683 255 L 831 274 L 856 266 L 880 239 L 839 32 L 813 -28 L 785 -46 L 687 13" fill="none" id="make-me-a-hanzi-animation-7" stroke-dasharray="1228 2456" stroke-linecap="round" />
    
      <clipPath id="make-me-a-hanzi-clip-8">
        <path d="M 615 78 L 658 84 Q 712 94 771 91 Q 792 91 796 99 Q 800 111 789 120 Q 726 168 664 141 Q 648 138 631 133 Q 462 99 419 93 Q 407 92 407 82 Q 408 72 426 60 Q 442 51 470 44 Q 480 41 494 50 Q 528 65 615 78 Z" />
      </clipPath>
      <path clip-path="url(#make-me-a-hanzi-clip-8)" d="M 418 82 L 469 72 L 522 87 L 716 121 L 785 105" fill="none" id="make-me-a-hanzi-animation-8" stroke-dasharray="503 1006" stroke-linecap="round" />
    
  </g>
</svg>