<svg xmlns="http://www.w3.org/2000/svg" version="1.1" viewBox="0 0 1024 1024">
  <g stroke="lightgray" stroke-dasharray="1,1" stroke-width="1" transform="scale(4, 4)">
    <line x1="0" y1="0" x2="256" y2="256" />
    <line x1="256" y1="0" x2="0" y2="256" />
    <line x1="128" y1="0" x2="128" y2="256" />
    <line x1="0" y1="128" x2="256" y2="128" />
  </g>
  <g transform="scale(1.0, -1.0) translate(0.0, -820.00)">
    <style type="text/css">
      
        @keyframes keyframes0 {
          from {
            stroke: blue;
            stroke-dashoffset: 532;
            stroke-width: 128;
          }
          63% {
            animation-timing-function: step-end;
            stroke: blue;
            stroke-dashoffset: 0;
            stroke-width: 128;
          }
          to {
            stroke: black;
            stroke-width: 1024;
          }
        }
        #make-me-a-hanzi-animation-0 {
          animation: keyframes0 0.6829427083333334s both;
          animation-delay: 0s;
          animation-timing-function: linear;
        }
      
        @keyframes keyframes1 {
          from {
            stroke: blue;
            stroke-dashoffset: 587;
            stroke-width: 128;
          }
          66% {
            animation-timing-function: step-end;
            stroke: blue;
            stroke-dashoffset: 0;
            stroke-width: 128;
          }
          to {
            stroke: black;
            stroke-width: 1024;
          }
        }
        #make-me-a-hanzi-animation-1 {
          animation: keyframes1 0.7277018229166666s both;
          animation-delay: 0.6829427083333334s;
          animation-timing-function: linear;
        }
      
        @keyframes keyframes2 {
          from {
            stroke: blue;
            stroke-dashoffset: 418;
            stroke-width: 128;
          }
          58% {
            animation-timing-function: step-end;
            stroke: blue;
            stroke-dashoffset: 0;
            stroke-width: 128;
          }
          to {
            stroke: black;
            stroke-width: 1024;
          }
        }
        #make-me-a-hanzi-animation-2 {
          animation: keyframes2 0.5901692708333334s both;
          animation-delay: 1.41064453125s;
          animation-timing-function: linear;
        }
      
        @keyframes keyframes3 {
          from {
            stroke: blue;
            stroke-dashoffset: 455;
            stroke-width: 128;
          }
          60% {
            animation-timing-function: step-end;
            stroke: blue;
            stroke-dashoffset: 0;
            stroke-width: 128;
          }
          to {
            stroke: black;
            stroke-width: 1024;
          }
        }
        #make-me-a-hanzi-animation-3 {
          animation: keyframes3 0.6202799479166666s both;
          animation-delay: 2.0008138020833335s;
          animation-timing-function: linear;
        }
      
        @keyframes keyframes4 {
          from {
            stroke: blue;
            stroke-dashoffset: 795;
            stroke-width: 128;
          }
          72% {
            animation-timing-function: step-end;
            stroke: blue;
            stroke-dashoffset: 0;
            stroke-width: 128;
          }
          to {
            stroke: black;
            stroke-width: 1024;
          }
        }
        #make-me-a-hanzi-animation-4 {
          animation: keyframes4 0.89697265625s both;
          animation-delay: 2.62109375s;
          animation-timing-function: linear;
        }
      
        @keyframes keyframes5 {
          from {
            stroke: blue;
            stroke-dashoffset: 336;
            stroke-width: 128;
          }
          52% {
            animation-timing-function: step-end;
            stroke: blue;
            stroke-dashoffset: 0;
            stroke-width: 128;
          }
          to {
            stroke: black;
            stroke-width: 1024;
          }
        }
        #make-me-a-hanzi-animation-5 {
          animation: keyframes5 0.5234375s both;
          animation-delay: 3.51806640625s;
          animation-timing-function: linear;
        }
      
        @keyframes keyframes6 {
          from {
            stroke: blue;
            stroke-dashoffset: 1550;
            stroke-width: 128;
          }
          83% {
            animation-timing-function: step-end;
            stroke: blue;
            stroke-dashoffset: 0;
            stroke-width: 128;
          }
          to {
            stroke: black;
            stroke-width: 1024;
          }
        }
        #make-me-a-hanzi-animation-6 {
          animation: keyframes6 1.5113932291666667s both;
          animation-delay: 4.04150390625s;
          animation-timing-function: linear;
        }
      
        @keyframes keyframes7 {
          from {
            stroke: blue;
            stroke-dashoffset: 763;
            stroke-width: 128;
          }
          71% {
            animation-timing-function: step-end;
            stroke: blue;
            stroke-dashoffset: 0;
            stroke-width: 128;
          }
          to {
            stroke: black;
            stroke-width: 1024;
          }
        }
        #make-me-a-hanzi-animation-7 {
          animation: keyframes7 0.8709309895833334s both;
          animation-delay: 5.552897135416667s;
          animation-timing-function: linear;
        }
      
    </style>
    
      <path d="M 150 477 Q 138 484 109 489 Q 96 493 93 488 Q 86 482 94 466 Q 124 394 136 279 Q 137 245 156 220 Q 172 198 179 213 Q 188 235 183 274 L 179 306 Q 163 417 162 449 C 161 472 161 472 150 477 Z" fill="lightgray" />
    
      <path d="M 319 337 Q 334 431 359 462 Q 380 487 356 501 L 309 527 Q 290 537 272 525 Q 239 500 150 477 C 121 469 135 436 162 449 Q 166 455 249 474 Q 274 481 281 471 Q 290 464 284 426 L 269 332 C 264 302 314 307 319 337 Z" fill="lightgray" />
    
      <path d="M 183 274 Q 189 274 196 276 Q 241 289 339 303 Q 349 304 349 313 Q 349 320 319 337 C 307 344 298 341 269 332 Q 218 316 179 306 C 150 298 153 272 183 274 Z" fill="lightgray" />
    
      <path d="M 499 602 Q 602 695 635 714 Q 654 724 642 741 Q 629 756 602 766 Q 578 776 567 773 Q 555 770 560 758 Q 566 733 498 632 L 485 612 C 469 587 477 582 499 602 Z" fill="lightgray" />
    
      <path d="M 516 559 Q 526 571 682 597 Q 692 598 699 593 Q 711 587 710 569 Q 709 524 688 445 Q 684 421 662 426 Q 632 430 609 435 Q 596 438 599 430 Q 600 421 624 404 Q 655 377 674 349 Q 681 339 691 343 Q 698 344 713 368 Q 731 395 746 473 Q 756 569 771 583 Q 781 592 776 602 Q 769 614 734 634 Q 721 643 659 628 Q 656 628 506 598 C 477 592 489 546 516 559 Z" fill="lightgray" />
    
      <path d="M 534 513 Q 574 458 596 454 Q 606 453 613 468 Q 614 478 608 495 Q 593 522 538 535 Q 531 536 529 527 Q 528 520 534 513 Z" fill="lightgray" />
    
      <path d="M 493 214 Q 517 229 566 240 Q 669 264 776 268 Q 809 271 822 257 Q 831 248 801 56 Q 794 -2 767 -38 Q 757 -51 731 -50 L 642 -26 Q 626 -22 627 -29 Q 627 -35 637 -43 Q 713 -98 741 -139 Q 751 -160 769 -149 Q 832 -112 846 -37 Q 865 63 879 174 Q 886 213 905 244 Q 918 260 906 274 Q 888 295 850 316 Q 828 329 799 316 Q 753 298 711 294 Q 651 288 529 268 Q 502 264 502 286 Q 502 518 516 559 C 521 589 521 589 506 598 Q 503 601 499 602 L 485 612 Q 478 616 469 620 Q 450 626 441 617 Q 434 611 443 599 Q 459 566 458 498 Q 457 443 456 375 Q 456 308 443 253 Q 437 232 453 217 Q 474 201 493 214 Z" fill="lightgray" />
    
      <path d="M 517 97 Q 550 100 581 104 Q 647 113 750 108 Q 769 107 774 114 Q 781 124 770 134 Q 745 156 707 171 Q 695 175 674 168 Q 671 168 370 119 Q 330 112 266 108 Q 256 108 254 98 Q 254 88 270 77 Q 285 67 311 58 Q 320 55 335 62 Q 345 66 389 75 Q 446 88 517 97 Z" fill="lightgray" />
    
    
      <clipPath id="make-me-a-hanzi-clip-0">
        <path d="M 150 477 Q 138 484 109 489 Q 96 493 93 488 Q 86 482 94 466 Q 124 394 136 279 Q 137 245 156 220 Q 172 198 179 213 Q 188 235 183 274 L 179 306 Q 163 417 162 449 C 161 472 161 472 150 477 Z" />
      </clipPath>
      <path clip-path="url(#make-me-a-hanzi-clip-0)" d="M 100 480 L 128 455 L 133 443 L 168 220" fill="none" id="make-me-a-hanzi-animation-0" stroke-dasharray="404 808" stroke-linecap="round" />
    
      <clipPath id="make-me-a-hanzi-clip-1">
        <path d="M 319 337 Q 334 431 359 462 Q 380 487 356 501 L 309 527 Q 290 537 272 525 Q 239 500 150 477 C 121 469 135 436 162 449 Q 166 455 249 474 Q 274 481 281 471 Q 290 464 284 426 L 269 332 C 264 302 314 307 319 337 Z" />
      </clipPath>
      <path clip-path="url(#make-me-a-hanzi-clip-1)" d="M 160 456 L 181 473 L 283 501 L 300 497 L 322 476 L 298 359 L 275 339" fill="none" id="make-me-a-hanzi-animation-1" stroke-dasharray="459 918" stroke-linecap="round" />
    
      <clipPath id="make-me-a-hanzi-clip-2">
        <path d="M 183 274 Q 189 274 196 276 Q 241 289 339 303 Q 349 304 349 313 Q 349 320 319 337 C 307 344 298 341 269 332 Q 218 316 179 306 C 150 298 153 272 183 274 Z" />
      </clipPath>
      <path clip-path="url(#make-me-a-hanzi-clip-2)" d="M 189 280 L 204 296 L 266 312 L 319 319 L 340 312" fill="none" id="make-me-a-hanzi-animation-2" stroke-dasharray="290 580" stroke-linecap="round" />
    
      <clipPath id="make-me-a-hanzi-clip-3">
        <path d="M 499 602 Q 602 695 635 714 Q 654 724 642 741 Q 629 756 602 766 Q 578 776 567 773 Q 555 770 560 758 Q 566 733 498 632 L 485 612 C 469 587 477 582 499 602 Z" />
      </clipPath>
      <path clip-path="url(#make-me-a-hanzi-clip-3)" d="M 568 764 L 593 730 L 503 615 L 492 615" fill="none" id="make-me-a-hanzi-animation-3" stroke-dasharray="327 654" stroke-linecap="round" />
    
      <clipPath id="make-me-a-hanzi-clip-4">
        <path d="M 516 559 Q 526 571 682 597 Q 692 598 699 593 Q 711 587 710 569 Q 709 524 688 445 Q 684 421 662 426 Q 632 430 609 435 Q 596 438 599 430 Q 600 421 624 404 Q 655 377 674 349 Q 681 339 691 343 Q 698 344 713 368 Q 731 395 746 473 Q 756 569 771 583 Q 781 592 776 602 Q 769 614 734 634 Q 721 643 659 628 Q 656 628 506 598 C 477 592 489 546 516 559 Z" />
      </clipPath>
      <path clip-path="url(#make-me-a-hanzi-clip-4)" d="M 519 569 L 526 582 L 550 592 L 666 609 L 674 615 L 720 611 L 739 593 L 720 467 L 697 404 L 686 392 L 606 429" fill="none" id="make-me-a-hanzi-animation-4" stroke-dasharray="667 1334" stroke-linecap="round" />
    
      <clipPath id="make-me-a-hanzi-clip-5">
        <path d="M 534 513 Q 574 458 596 454 Q 606 453 613 468 Q 614 478 608 495 Q 593 522 538 535 Q 531 536 529 527 Q 528 520 534 513 Z" />
      </clipPath>
      <path clip-path="url(#make-me-a-hanzi-clip-5)" d="M 540 523 L 576 497 L 597 468" fill="none" id="make-me-a-hanzi-animation-5" stroke-dasharray="208 416" stroke-linecap="round" />
    
      <clipPath id="make-me-a-hanzi-clip-6">
        <path d="M 493 214 Q 517 229 566 240 Q 669 264 776 268 Q 809 271 822 257 Q 831 248 801 56 Q 794 -2 767 -38 Q 757 -51 731 -50 L 642 -26 Q 626 -22 627 -29 Q 627 -35 637 -43 Q 713 -98 741 -139 Q 751 -160 769 -149 Q 832 -112 846 -37 Q 865 63 879 174 Q 886 213 905 244 Q 918 260 906 274 Q 888 295 850 316 Q 828 329 799 316 Q 753 298 711 294 Q 651 288 529 268 Q 502 264 502 286 Q 502 518 516 559 C 521 589 521 589 506 598 Q 503 601 499 602 L 485 612 Q 478 616 469 620 Q 450 626 441 617 Q 434 611 443 599 Q 459 566 458 498 Q 457 443 456 375 Q 456 308 443 253 Q 437 232 453 217 Q 474 201 493 214 Z" />
      </clipPath>
      <path clip-path="url(#make-me-a-hanzi-clip-6)" d="M 450 609 L 474 589 L 485 557 L 475 285 L 481 248 L 534 249 L 579 261 L 815 293 L 841 284 L 865 257 L 826 19 L 805 -50 L 785 -79 L 765 -93 L 750 -89 L 635 -30" fill="none" id="make-me-a-hanzi-animation-6" stroke-dasharray="1422 2844" stroke-linecap="round" />
    
      <clipPath id="make-me-a-hanzi-clip-7">
        <path d="M 517 97 Q 550 100 581 104 Q 647 113 750 108 Q 769 107 774 114 Q 781 124 770 134 Q 745 156 707 171 Q 695 175 674 168 Q 671 168 370 119 Q 330 112 266 108 Q 256 108 254 98 Q 254 88 270 77 Q 285 67 311 58 Q 320 55 335 62 Q 345 66 389 75 Q 446 88 517 97 Z" />
      </clipPath>
      <path clip-path="url(#make-me-a-hanzi-clip-7)" d="M 265 97 L 318 85 L 516 121 L 695 141 L 764 122" fill="none" id="make-me-a-hanzi-animation-7" stroke-dasharray="635 1270" stroke-linecap="round" />
    
  </g>
</svg>