<svg xmlns="http://www.w3.org/2000/svg" version="1.1" viewBox="0 0 1024 1024">
  <g stroke="lightgray" stroke-dasharray="1,1" stroke-width="1" transform="scale(4, 4)">
    <line x1="0" y1="0" x2="256" y2="256" />
    <line x1="256" y1="0" x2="0" y2="256" />
    <line x1="128" y1="0" x2="128" y2="256" />
    <line x1="0" y1="128" x2="256" y2="128" />
  </g>
  <g transform="scale(1.0, -1.0) translate(0.0, -816.50)">
    <style type="text/css">
      
        @keyframes keyframes0 {
          from {
            stroke: blue;
            stroke-dashoffset: 653;
            stroke-width: 128;
          }
          68% {
            animation-timing-function: step-end;
            stroke: blue;
            stroke-dashoffset: 0;
            stroke-width: 128;
          }
          to {
            stroke: black;
            stroke-width: 1024;
          }
        }
        #make-me-a-hanzi-animation-0 {
          animation: keyframes0 0.7814127604166666s both;
          animation-delay: 0s;
          animation-timing-function: linear;
        }
      
        @keyframes keyframes1 {
          from {
            stroke: blue;
            stroke-dashoffset: 945;
            stroke-width: 128;
          }
          75% {
            animation-timing-function: step-end;
            stroke: blue;
            stroke-dashoffset: 0;
            stroke-width: 128;
          }
          to {
            stroke: black;
            stroke-width: 1024;
          }
        }
        #make-me-a-hanzi-animation-1 {
          animation: keyframes1 1.01904296875s both;
          animation-delay: 0.7814127604166666s;
          animation-timing-function: linear;
        }
      
        @keyframes keyframes2 {
          from {
            stroke: blue;
            stroke-dashoffset: 380;
            stroke-width: 128;
          }
          55% {
            animation-timing-function: step-end;
            stroke: blue;
            stroke-dashoffset: 0;
            stroke-width: 128;
          }
          to {
            stroke: black;
            stroke-width: 1024;
          }
        }
        #make-me-a-hanzi-animation-2 {
          animation: keyframes2 0.5592447916666666s both;
          animation-delay: 1.8004557291666665s;
          animation-timing-function: linear;
        }
      
        @keyframes keyframes3 {
          from {
            stroke: blue;
            stroke-dashoffset: 423;
            stroke-width: 128;
          }
          58% {
            animation-timing-function: step-end;
            stroke: blue;
            stroke-dashoffset: 0;
            stroke-width: 128;
          }
          to {
            stroke: black;
            stroke-width: 1024;
          }
        }
        #make-me-a-hanzi-animation-3 {
          animation: keyframes3 0.59423828125s both;
          animation-delay: 2.359700520833333s;
          animation-timing-function: linear;
        }
      
        @keyframes keyframes4 {
          from {
            stroke: blue;
            stroke-dashoffset: 748;
            stroke-width: 128;
          }
          71% {
            animation-timing-function: step-end;
            stroke: blue;
            stroke-dashoffset: 0;
            stroke-width: 128;
          }
          to {
            stroke: black;
            stroke-width: 1024;
          }
        }
        #make-me-a-hanzi-animation-4 {
          animation: keyframes4 0.8587239583333334s both;
          animation-delay: 2.953938802083333s;
          animation-timing-function: linear;
        }
      
        @keyframes keyframes5 {
          from {
            stroke: blue;
            stroke-dashoffset: 320;
            stroke-width: 128;
          }
          51% {
            animation-timing-function: step-end;
            stroke: blue;
            stroke-dashoffset: 0;
            stroke-width: 128;
          }
          to {
            stroke: black;
            stroke-width: 1024;
          }
        }
        #make-me-a-hanzi-animation-5 {
          animation: keyframes5 0.5104166666666666s both;
          animation-delay: 3.8126627604166665s;
          animation-timing-function: linear;
        }
      
        @keyframes keyframes6 {
          from {
            stroke: blue;
            stroke-dashoffset: 1352;
            stroke-width: 128;
          }
          81% {
            animation-timing-function: step-end;
            stroke: blue;
            stroke-dashoffset: 0;
            stroke-width: 128;
          }
          to {
            stroke: black;
            stroke-width: 1024;
          }
        }
        #make-me-a-hanzi-animation-6 {
          animation: keyframes6 1.3502604166666667s both;
          animation-delay: 4.323079427083333s;
          animation-timing-function: linear;
        }
      
        @keyframes keyframes7 {
          from {
            stroke: blue;
            stroke-dashoffset: 769;
            stroke-width: 128;
          }
          71% {
            animation-timing-function: step-end;
            stroke: blue;
            stroke-dashoffset: 0;
            stroke-width: 128;
          }
          to {
            stroke: black;
            stroke-width: 1024;
          }
        }
        #make-me-a-hanzi-animation-7 {
          animation: keyframes7 0.8758138020833334s both;
          animation-delay: 5.67333984375s;
          animation-timing-function: linear;
        }
      
    </style>
    
      <path d="M 531 598 Q 550 605 573 609 Q 628 624 635 631 Q 645 640 639 648 Q 632 660 602 667 Q 563 673 500 643 L 459 630 Q 314 594 249 586 Q 212 579 239 563 Q 284 539 339 554 Q 412 572 489 589 L 531 598 Z" fill="lightgray" />
    
      <path d="M 489 589 Q 631 412 776 378 Q 843 363 856 380 Q 869 392 854 419 Q 844 443 825 534 Q 824 552 818 554 Q 814 554 812 538 Q 788 442 762 441 Q 651 462 531 598 L 500 643 Q 470 691 466 724 Q 463 746 423 749 Q 390 752 378 743 Q 365 734 382 718 Q 403 706 459 630 L 489 589 Z" fill="lightgray" />
    
      <path d="M 627 699 Q 654 681 682 659 Q 695 649 709 651 Q 718 652 721 664 Q 724 677 713 702 Q 701 729 618 740 Q 605 741 600 739 Q 596 735 598 724 Q 602 714 627 699 Z" fill="lightgray" />
    
      <path d="M 366 387 Q 426 427 458 452 Q 474 465 493 474 Q 511 483 502 497 Q 490 510 469 523 Q 448 533 438 531 Q 428 530 431 519 Q 434 492 393 445 L 353 396 C 334 373 341 370 366 387 Z" fill="lightgray" />
    
      <path d="M 382 346 Q 424 367 567 395 Q 576 396 583 392 Q 590 388 590 376 Q 589 346 577 294 Q 573 269 550 274 Q 522 277 500 280 Q 487 281 491 274 Q 492 267 516 251 Q 544 229 562 204 Q 568 197 576 198 Q 582 199 594 218 Q 610 240 628 318 Q 637 378 649 388 Q 656 398 651 407 Q 642 417 607 432 Q 598 436 549 423 Q 528 423 378 377 C 349 368 354 334 382 346 Z" fill="lightgray" />
    
      <path d="M 418 319 Q 454 276 470 274 Q 480 273 484 286 Q 485 296 479 311 Q 464 332 421 339 Q 414 340 413 332 Q 412 326 418 319 Z" fill="lightgray" />
    
      <path d="M 365 116 Q 396 135 453 145 Q 576 170 704 172 Q 737 176 751 163 Q 764 151 751 106 Q 745 69 737 28 Q 731 -3 717 -22 Q 707 -35 681 -31 L 614 -14 Q 598 -10 599 -17 Q 599 -23 608 -31 Q 666 -85 687 -122 Q 697 -143 715 -132 Q 773 -101 783 -53 Q 822 125 823 127 Q 827 139 835 149 Q 848 165 837 179 Q 818 201 780 222 Q 758 235 729 222 Q 674 203 622 199 Q 550 195 401 170 Q 376 166 373 188 Q 373 315 382 346 C 386 371 386 371 378 377 Q 374 384 366 387 L 353 396 Q 346 400 338 403 Q 319 409 311 400 Q 305 396 313 384 Q 329 341 322 187 L 316 157 Q 310 136 325 120 Q 346 104 365 116 Z" fill="lightgray" />
    
      <path d="M 425 36 Q 456 37 488 41 Q 558 50 658 41 Q 679 40 683 47 Q 690 59 679 69 Q 616 123 562 102 Q 271 57 171 54 Q 158 54 158 44 Q 157 34 174 21 Q 189 11 216 1 Q 226 -3 241 5 Q 277 20 425 36 Z" fill="lightgray" />
    
    
      <clipPath id="make-me-a-hanzi-clip-0">
        <path d="M 531 598 Q 550 605 573 609 Q 628 624 635 631 Q 645 640 639 648 Q 632 660 602 667 Q 563 673 500 643 L 459 630 Q 314 594 249 586 Q 212 579 239 563 Q 284 539 339 554 Q 412 572 489 589 L 531 598 Z" />
      </clipPath>
      <path clip-path="url(#make-me-a-hanzi-clip-0)" d="M 241 576 L 264 570 L 313 572 L 585 641 L 629 641" fill="none" id="make-me-a-hanzi-animation-0" stroke-dasharray="525 1050" stroke-linecap="round" />
    
      <clipPath id="make-me-a-hanzi-clip-1">
        <path d="M 489 589 Q 631 412 776 378 Q 843 363 856 380 Q 869 392 854 419 Q 844 443 825 534 Q 824 552 818 554 Q 814 554 812 538 Q 788 442 762 441 Q 651 462 531 598 L 500 643 Q 470 691 466 724 Q 463 746 423 749 Q 390 752 378 743 Q 365 734 382 718 Q 403 706 459 630 L 489 589 Z" />
      </clipPath>
      <path clip-path="url(#make-me-a-hanzi-clip-1)" d="M 387 732 L 435 713 L 469 651 L 511 592 L 571 526 L 633 474 L 718 426 L 765 411 L 808 417 L 819 550" fill="none" id="make-me-a-hanzi-animation-1" stroke-dasharray="817 1634" stroke-linecap="round" />
    
      <clipPath id="make-me-a-hanzi-clip-2">
        <path d="M 627 699 Q 654 681 682 659 Q 695 649 709 651 Q 718 652 721 664 Q 724 677 713 702 Q 701 729 618 740 Q 605 741 600 739 Q 596 735 598 724 Q 602 714 627 699 Z" />
      </clipPath>
      <path clip-path="url(#make-me-a-hanzi-clip-2)" d="M 605 731 L 673 700 L 707 665" fill="none" id="make-me-a-hanzi-animation-2" stroke-dasharray="252 504" stroke-linecap="round" />
    
      <clipPath id="make-me-a-hanzi-clip-3">
        <path d="M 366 387 Q 426 427 458 452 Q 474 465 493 474 Q 511 483 502 497 Q 490 510 469 523 Q 448 533 438 531 Q 428 530 431 519 Q 434 492 393 445 L 353 396 C 334 373 341 370 366 387 Z" />
      </clipPath>
      <path clip-path="url(#make-me-a-hanzi-clip-3)" d="M 442 521 L 458 490 L 424 451 L 364 398" fill="none" id="make-me-a-hanzi-animation-3" stroke-dasharray="295 590" stroke-linecap="round" />
    
      <clipPath id="make-me-a-hanzi-clip-4">
        <path d="M 382 346 Q 424 367 567 395 Q 576 396 583 392 Q 590 388 590 376 Q 589 346 577 294 Q 573 269 550 274 Q 522 277 500 280 Q 487 281 491 274 Q 492 267 516 251 Q 544 229 562 204 Q 568 197 576 198 Q 582 199 594 218 Q 610 240 628 318 Q 637 378 649 388 Q 656 398 651 407 Q 642 417 607 432 Q 598 436 549 423 Q 528 423 378 377 C 349 368 354 334 382 346 Z" />
      </clipPath>
      <path clip-path="url(#make-me-a-hanzi-clip-4)" d="M 383 354 L 417 377 L 476 392 L 563 412 L 605 406 L 617 395 L 612 354 L 595 276 L 580 251 L 572 243 L 498 274" fill="none" id="make-me-a-hanzi-animation-4" stroke-dasharray="620 1240" stroke-linecap="round" />
    
      <clipPath id="make-me-a-hanzi-clip-5">
        <path d="M 418 319 Q 454 276 470 274 Q 480 273 484 286 Q 485 296 479 311 Q 464 332 421 339 Q 414 340 413 332 Q 412 326 418 319 Z" />
      </clipPath>
      <path clip-path="url(#make-me-a-hanzi-clip-5)" d="M 423 328 L 456 307 L 471 287" fill="none" id="make-me-a-hanzi-animation-5" stroke-dasharray="192 384" stroke-linecap="round" />
    
      <clipPath id="make-me-a-hanzi-clip-6">
        <path d="M 365 116 Q 396 135 453 145 Q 576 170 704 172 Q 737 176 751 163 Q 764 151 751 106 Q 745 69 737 28 Q 731 -3 717 -22 Q 707 -35 681 -31 L 614 -14 Q 598 -10 599 -17 Q 599 -23 608 -31 Q 666 -85 687 -122 Q 697 -143 715 -132 Q 773 -101 783 -53 Q 822 125 823 127 Q 827 139 835 149 Q 848 165 837 179 Q 818 201 780 222 Q 758 235 729 222 Q 674 203 622 199 Q 550 195 401 170 Q 376 166 373 188 Q 373 315 382 346 C 386 371 386 371 378 377 Q 374 384 366 387 L 353 396 Q 346 400 338 403 Q 319 409 311 400 Q 305 396 313 384 Q 329 341 322 187 L 316 157 Q 310 136 325 120 Q 346 104 365 116 Z" />
      </clipPath>
      <path clip-path="url(#make-me-a-hanzi-clip-6)" d="M 320 393 L 339 377 L 351 350 L 347 198 L 354 150 L 389 149 L 508 172 L 745 198 L 771 190 L 791 171 L 796 163 L 762 -5 L 754 -32 L 734 -62 L 714 -76 L 702 -72 L 607 -18" fill="none" id="make-me-a-hanzi-animation-6" stroke-dasharray="1224 2448" stroke-linecap="round" />
    
      <clipPath id="make-me-a-hanzi-clip-7">
        <path d="M 425 36 Q 456 37 488 41 Q 558 50 658 41 Q 679 40 683 47 Q 690 59 679 69 Q 616 123 562 102 Q 271 57 171 54 Q 158 54 158 44 Q 157 34 174 21 Q 189 11 216 1 Q 226 -3 241 5 Q 277 20 425 36 Z" />
      </clipPath>
      <path clip-path="url(#make-me-a-hanzi-clip-7)" d="M 168 44 L 189 34 L 224 29 L 354 51 L 586 77 L 628 71 L 672 55" fill="none" id="make-me-a-hanzi-animation-7" stroke-dasharray="641 1282" stroke-linecap="round" />
    
  </g>
</svg>