<svg xmlns="http://www.w3.org/2000/svg" version="1.1" viewBox="0 0 1024 1024">
  <g stroke="lightgray" stroke-dasharray="1,1" stroke-width="1" transform="scale(4, 4)">
    <line x1="0" y1="0" x2="256" y2="256" />
    <line x1="256" y1="0" x2="0" y2="256" />
    <line x1="128" y1="0" x2="128" y2="256" />
    <line x1="0" y1="128" x2="256" y2="128" />
  </g>
  <g transform="scale(1.0, -1.0) translate(0.0, -836.00)">
    <style type="text/css">
      
        @keyframes keyframes0 {
          from {
            stroke: blue;
            stroke-dashoffset: 543;
            stroke-width: 128;
          }
          64% {
            animation-timing-function: step-end;
            stroke: blue;
            stroke-dashoffset: 0;
            stroke-width: 128;
          }
          to {
            stroke: black;
            stroke-width: 1024;
          }
        }
        #make-me-a-hanzi-animation-0 {
          animation: keyframes0 0.69189453125s both;
          animation-delay: 0s;
          animation-timing-function: linear;
        }
      
        @keyframes keyframes1 {
          from {
            stroke: blue;
            stroke-dashoffset: 810;
            stroke-width: 128;
          }
          73% {
            animation-timing-function: step-end;
            stroke: blue;
            stroke-dashoffset: 0;
            stroke-width: 128;
          }
          to {
            stroke: black;
            stroke-width: 1024;
          }
        }
        #make-me-a-hanzi-animation-1 {
          animation: keyframes1 0.9091796875s both;
          animation-delay: 0.69189453125s;
          animation-timing-function: linear;
        }
      
        @keyframes keyframes2 {
          from {
            stroke: blue;
            stroke-dashoffset: 396;
            stroke-width: 128;
          }
          56% {
            animation-timing-function: step-end;
            stroke: blue;
            stroke-dashoffset: 0;
            stroke-width: 128;
          }
          to {
            stroke: black;
            stroke-width: 1024;
          }
        }
        #make-me-a-hanzi-animation-2 {
          animation: keyframes2 0.572265625s both;
          animation-delay: 1.60107421875s;
          animation-timing-function: linear;
        }
      
        @keyframes keyframes3 {
          from {
            stroke: blue;
            stroke-dashoffset: 425;
            stroke-width: 128;
          }
          58% {
            animation-timing-function: step-end;
            stroke: blue;
            stroke-dashoffset: 0;
            stroke-width: 128;
          }
          to {
            stroke: black;
            stroke-width: 1024;
          }
        }
        #make-me-a-hanzi-animation-3 {
          animation: keyframes3 0.5958658854166666s both;
          animation-delay: 2.17333984375s;
          animation-timing-function: linear;
        }
      
        @keyframes keyframes4 {
          from {
            stroke: blue;
            stroke-dashoffset: 859;
            stroke-width: 128;
          }
          74% {
            animation-timing-function: step-end;
            stroke: blue;
            stroke-dashoffset: 0;
            stroke-width: 128;
          }
          to {
            stroke: black;
            stroke-width: 1024;
          }
        }
        #make-me-a-hanzi-animation-4 {
          animation: keyframes4 0.9490559895833334s both;
          animation-delay: 2.7692057291666665s;
          animation-timing-function: linear;
        }
      
        @keyframes keyframes5 {
          from {
            stroke: blue;
            stroke-dashoffset: 470;
            stroke-width: 128;
          }
          60% {
            animation-timing-function: step-end;
            stroke: blue;
            stroke-dashoffset: 0;
            stroke-width: 128;
          }
          to {
            stroke: black;
            stroke-width: 1024;
          }
        }
        #make-me-a-hanzi-animation-5 {
          animation: keyframes5 0.6324869791666666s both;
          animation-delay: 3.71826171875s;
          animation-timing-function: linear;
        }
      
        @keyframes keyframes6 {
          from {
            stroke: blue;
            stroke-dashoffset: 769;
            stroke-width: 128;
          }
          71% {
            animation-timing-function: step-end;
            stroke: blue;
            stroke-dashoffset: 0;
            stroke-width: 128;
          }
          to {
            stroke: black;
            stroke-width: 1024;
          }
        }
        #make-me-a-hanzi-animation-6 {
          animation: keyframes6 0.8758138020833334s both;
          animation-delay: 4.350748697916667s;
          animation-timing-function: linear;
        }
      
        @keyframes keyframes7 {
          from {
            stroke: blue;
            stroke-dashoffset: 326;
            stroke-width: 128;
          }
          51% {
            animation-timing-function: step-end;
            stroke: blue;
            stroke-dashoffset: 0;
            stroke-width: 128;
          }
          to {
            stroke: black;
            stroke-width: 1024;
          }
        }
        #make-me-a-hanzi-animation-7 {
          animation: keyframes7 0.5152994791666666s both;
          animation-delay: 5.2265625s;
          animation-timing-function: linear;
        }
      
        @keyframes keyframes8 {
          from {
            stroke: blue;
            stroke-dashoffset: 1418;
            stroke-width: 128;
          }
          82% {
            animation-timing-function: step-end;
            stroke: blue;
            stroke-dashoffset: 0;
            stroke-width: 128;
          }
          to {
            stroke: black;
            stroke-width: 1024;
          }
        }
        #make-me-a-hanzi-animation-8 {
          animation: keyframes8 1.4039713541666667s both;
          animation-delay: 5.741861979166667s;
          animation-timing-function: linear;
        }
      
        @keyframes keyframes9 {
          from {
            stroke: blue;
            stroke-dashoffset: 677;
            stroke-width: 128;
          }
          69% {
            animation-timing-function: step-end;
            stroke: blue;
            stroke-dashoffset: 0;
            stroke-width: 128;
          }
          to {
            stroke: black;
            stroke-width: 1024;
          }
        }
        #make-me-a-hanzi-animation-9 {
          animation: keyframes9 0.8009440104166666s both;
          animation-delay: 7.145833333333334s;
          animation-timing-function: linear;
        }
      
    </style>
    
      <path d="M 136 544 Q 129 548 118 549 Q 106 552 103 547 Q 96 541 104 526 Q 135 450 151 329 Q 152 292 173 267 Q 189 246 195 261 Q 199 271 199 287 L 199 312 Q 198 325 195 341 Q 170 486 169 517 Q 168 518 168 519 L 136 544 Z" fill="lightgray" />
    
      <path d="M 359 317 Q 375 296 389 290 Q 399 283 411 303 Q 426 334 446 494 Q 453 522 472 544 Q 482 556 472 568 Q 457 581 419 603 Q 409 607 332 589 Q 326 589 224 565 Q 176 553 136 544 C 107 537 139 510 168 519 Q 199 529 245 539 L 281 547 Q 374 569 387 558 Q 403 542 401 524 Q 383 370 368 345 C 358 319 358 319 359 317 Z" fill="lightgray" />
    
      <path d="M 298 418 Q 326 427 351 431 Q 370 435 361 446 Q 351 456 330 459 Q 317 460 299 454 L 259 439 Q 231 429 209 419 Q 196 415 213 404 L 259 409 L 298 418 Z" fill="lightgray" />
    
      <path d="M 296 306 Q 327 313 359 317 C 389 321 395 331 368 345 Q 350 357 301 342 Q 297 342 296 340 C 283 335 283 335 258 329 Q 227 322 199 312 C 171 302 170 281 199 287 Q 202 288 257 298 L 296 306 Z" fill="lightgray" />
    
      <path d="M 257 298 Q 257 124 235 42 Q 226 6 258 -41 Q 268 -59 275 -62 Q 285 -63 291 -51 Q 303 -21 299 7 Q 295 169 296 306 L 296 340 Q 296 344 297 348 Q 297 387 298 418 L 299 454 Q 300 494 306 515 Q 307 527 301 532 Q 291 541 281 547 C 257 565 234 567 245 539 Q 255 521 257 489 Q 258 467 259 439 L 259 409 Q 259 373 258 329 L 257 298 Z" fill="lightgray" />
    
      <path d="M 561 567 Q 597 606 618 631 Q 678 701 690 710 Q 708 725 694 739 Q 678 752 649 760 Q 624 767 612 762 Q 599 758 607 745 Q 616 724 556 601 Q 550 591 545 578 C 534 550 541 545 561 567 Z" fill="lightgray" />
    
      <path d="M 572 532 Q 615 550 728 575 Q 738 576 745 572 Q 755 568 755 550 Q 754 507 735 433 Q 732 409 710 413 Q 685 416 666 419 Q 651 422 655 413 Q 656 404 681 385 Q 706 358 722 330 Q 729 320 739 324 Q 746 325 760 348 Q 778 375 793 453 Q 805 549 818 561 Q 828 571 823 581 Q 814 591 780 612 Q 768 619 719 606 Q 713 606 609 578 Q 581 571 561 567 C 532 561 544 521 572 532 Z" fill="lightgray" />
    
      <path d="M 599 488 Q 638 442 658 441 Q 668 441 672 454 Q 673 464 665 479 Q 658 489 640 495 Q 612 505 601 508 Q 594 509 594 500 Q 593 494 599 488 Z" fill="lightgray" />
    
      <path d="M 553 207 Q 572 222 616 232 Q 706 256 800 262 Q 831 266 844 253 Q 856 243 843 199 Q 839 141 829 78 Q 823 30 803 -2 Q 793 -15 766 -10 L 698 3 Q 682 6 683 -1 Q 683 -7 693 -14 Q 754 -65 777 -100 Q 787 -119 805 -108 Q 866 -72 875 -7 Q 890 78 900 175 Q 906 212 923 242 Q 936 258 924 271 Q 906 290 869 310 Q 848 322 821 309 Q 781 291 744 287 Q 692 281 586 260 Q 561 256 560 276 Q 556 481 572 532 C 581 582 573 568 545 578 Q 536 584 526 587 Q 507 593 499 584 Q 493 578 501 567 Q 525 525 513 303 Q 510 273 504 245 Q 500 224 514 210 Q 535 194 553 207 Z" fill="lightgray" />
    
      <path d="M 567 99 Q 687 120 756 115 Q 775 114 778 122 Q 784 132 773 141 Q 713 186 658 162 Q 636 158 613 151 Q 474 127 437 118 Q 404 111 353 106 Q 343 105 342 96 Q 343 86 359 76 Q 372 67 398 60 Q 407 59 420 66 Q 427 69 464 77 Q 510 90 567 99 Z" fill="lightgray" />
    
    
      <clipPath id="make-me-a-hanzi-clip-0">
        <path d="M 136 544 Q 129 548 118 549 Q 106 552 103 547 Q 96 541 104 526 Q 135 450 151 329 Q 152 292 173 267 Q 189 246 195 261 Q 199 271 199 287 L 199 312 Q 198 325 195 341 Q 170 486 169 517 Q 168 518 168 519 L 136 544 Z" />
      </clipPath>
      <path clip-path="url(#make-me-a-hanzi-clip-0)" d="M 112 539 L 142 504 L 185 267" fill="none" id="make-me-a-hanzi-animation-0" stroke-dasharray="415 830" stroke-linecap="round" />
    
      <clipPath id="make-me-a-hanzi-clip-1">
        <path d="M 359 317 Q 375 296 389 290 Q 399 283 411 303 Q 426 334 446 494 Q 453 522 472 544 Q 482 556 472 568 Q 457 581 419 603 Q 409 607 332 589 Q 326 589 224 565 Q 176 553 136 544 C 107 537 139 510 168 519 Q 199 529 245 539 L 281 547 Q 374 569 387 558 Q 403 542 401 524 Q 383 370 368 345 C 358 319 358 319 359 317 Z" />
      </clipPath>
      <path clip-path="url(#make-me-a-hanzi-clip-1)" d="M 143 543 L 184 539 L 240 557 L 369 580 L 402 578 L 427 560 L 432 543 L 390 323 L 395 306" fill="none" id="make-me-a-hanzi-animation-1" stroke-dasharray="682 1364" stroke-linecap="round" />
    
      <clipPath id="make-me-a-hanzi-clip-2">
        <path d="M 298 418 Q 326 427 351 431 Q 370 435 361 446 Q 351 456 330 459 Q 317 460 299 454 L 259 439 Q 231 429 209 419 Q 196 415 213 404 L 259 409 L 298 418 Z" />
      </clipPath>
      <path clip-path="url(#make-me-a-hanzi-clip-2)" d="M 218 413 L 324 443 L 354 440" fill="none" id="make-me-a-hanzi-animation-2" stroke-dasharray="268 536" stroke-linecap="round" />
    
      <clipPath id="make-me-a-hanzi-clip-3">
        <path d="M 296 306 Q 327 313 359 317 C 389 321 395 331 368 345 Q 350 357 301 342 Q 297 342 296 340 C 283 335 283 335 258 329 Q 227 322 199 312 C 171 302 170 281 199 287 Q 202 288 257 298 L 296 306 Z" />
      </clipPath>
      <path clip-path="url(#make-me-a-hanzi-clip-3)" d="M 200 293 L 212 303 L 361 340" fill="none" id="make-me-a-hanzi-animation-3" stroke-dasharray="297 594" stroke-linecap="round" />
    
      <clipPath id="make-me-a-hanzi-clip-4">
        <path d="M 257 298 Q 257 124 235 42 Q 226 6 258 -41 Q 268 -59 275 -62 Q 285 -63 291 -51 Q 303 -21 299 7 Q 295 169 296 306 L 296 340 Q 296 344 297 348 Q 297 387 298 418 L 299 454 Q 300 494 306 515 Q 307 527 301 532 Q 291 541 281 547 C 257 565 234 567 245 539 Q 255 521 257 489 Q 258 467 259 439 L 259 409 Q 259 373 258 329 L 257 298 Z" />
      </clipPath>
      <path clip-path="url(#make-me-a-hanzi-clip-4)" d="M 252 536 L 280 515 L 277 240 L 266 31 L 277 -52" fill="none" id="make-me-a-hanzi-animation-4" stroke-dasharray="731 1462" stroke-linecap="round" />
    
      <clipPath id="make-me-a-hanzi-clip-5">
        <path d="M 561 567 Q 597 606 618 631 Q 678 701 690 710 Q 708 725 694 739 Q 678 752 649 760 Q 624 767 612 762 Q 599 758 607 745 Q 616 724 556 601 Q 550 591 545 578 C 534 550 541 545 561 567 Z" />
      </clipPath>
      <path clip-path="url(#make-me-a-hanzi-clip-5)" d="M 613 752 L 627 745 L 645 721 L 569 594 L 553 582" fill="none" id="make-me-a-hanzi-animation-5" stroke-dasharray="342 684" stroke-linecap="round" />
    
      <clipPath id="make-me-a-hanzi-clip-6">
        <path d="M 572 532 Q 615 550 728 575 Q 738 576 745 572 Q 755 568 755 550 Q 754 507 735 433 Q 732 409 710 413 Q 685 416 666 419 Q 651 422 655 413 Q 656 404 681 385 Q 706 358 722 330 Q 729 320 739 324 Q 746 325 760 348 Q 778 375 793 453 Q 805 549 818 561 Q 828 571 823 581 Q 814 591 780 612 Q 768 619 719 606 Q 713 606 609 578 Q 581 571 561 567 C 532 561 544 521 572 532 Z" />
      </clipPath>
      <path clip-path="url(#make-me-a-hanzi-clip-6)" d="M 567 563 L 582 554 L 734 594 L 769 587 L 785 570 L 762 428 L 742 386 L 732 379 L 663 412" fill="none" id="make-me-a-hanzi-animation-6" stroke-dasharray="641 1282" stroke-linecap="round" />
    
      <clipPath id="make-me-a-hanzi-clip-7">
        <path d="M 599 488 Q 638 442 658 441 Q 668 441 672 454 Q 673 464 665 479 Q 658 489 640 495 Q 612 505 601 508 Q 594 509 594 500 Q 593 494 599 488 Z" />
      </clipPath>
      <path clip-path="url(#make-me-a-hanzi-clip-7)" d="M 603 499 L 640 475 L 657 456" fill="none" id="make-me-a-hanzi-animation-7" stroke-dasharray="198 396" stroke-linecap="round" />
    
      <clipPath id="make-me-a-hanzi-clip-8">
        <path d="M 553 207 Q 572 222 616 232 Q 706 256 800 262 Q 831 266 844 253 Q 856 243 843 199 Q 839 141 829 78 Q 823 30 803 -2 Q 793 -15 766 -10 L 698 3 Q 682 6 683 -1 Q 683 -7 693 -14 Q 754 -65 777 -100 Q 787 -119 805 -108 Q 866 -72 875 -7 Q 890 78 900 175 Q 906 212 923 242 Q 936 258 924 271 Q 906 290 869 310 Q 848 322 821 309 Q 781 291 744 287 Q 692 281 586 260 Q 561 256 560 276 Q 556 481 572 532 C 581 582 573 568 545 578 Q 536 584 526 587 Q 507 593 499 584 Q 493 578 501 567 Q 525 525 513 303 Q 510 273 504 245 Q 500 224 514 210 Q 535 194 553 207 Z" />
      </clipPath>
      <path clip-path="url(#make-me-a-hanzi-clip-8)" d="M 509 577 L 534 554 L 541 532 L 534 277 L 539 240 L 587 242 L 837 287 L 861 280 L 886 253 L 874 202 L 857 63 L 830 -29 L 807 -52 L 788 -51 L 691 -1" fill="none" id="make-me-a-hanzi-animation-8" stroke-dasharray="1290 2580" stroke-linecap="round" />
    
      <clipPath id="make-me-a-hanzi-clip-9">
        <path d="M 567 99 Q 687 120 756 115 Q 775 114 778 122 Q 784 132 773 141 Q 713 186 658 162 Q 636 158 613 151 Q 474 127 437 118 Q 404 111 353 106 Q 343 105 342 96 Q 343 86 359 76 Q 372 67 398 60 Q 407 59 420 66 Q 427 69 464 77 Q 510 90 567 99 Z" />
      </clipPath>
      <path clip-path="url(#make-me-a-hanzi-clip-9)" d="M 353 95 L 400 86 L 544 118 L 694 143 L 766 129" fill="none" id="make-me-a-hanzi-animation-9" stroke-dasharray="549 1098" stroke-linecap="round" />
    
  </g>
</svg>