<svg xmlns="http://www.w3.org/2000/svg" version="1.1" viewBox="0 0 1024 1024">
  <g stroke="lightgray" stroke-dasharray="1,1" stroke-width="1" transform="scale(4, 4)">
    <line x1="0" y1="0" x2="256" y2="256" />
    <line x1="256" y1="0" x2="0" y2="256" />
    <line x1="128" y1="0" x2="128" y2="256" />
    <line x1="0" y1="128" x2="256" y2="128" />
  </g>
  <g transform="scale(1.0, -1.0) translate(0.0, -835.50)">
    <style type="text/css">
      
        @keyframes keyframes0 {
          from {
            stroke: blue;
            stroke-dashoffset: 825;
            stroke-width: 128;
          }
          73% {
            animation-timing-function: step-end;
            stroke: blue;
            stroke-dashoffset: 0;
            stroke-width: 128;
          }
          to {
            stroke: black;
            stroke-width: 1024;
          }
        }
        #make-me-a-hanzi-animation-0 {
          animation: keyframes0 0.92138671875s both;
          animation-delay: 0s;
          animation-timing-function: linear;
        }
      
        @keyframes keyframes1 {
          from {
            stroke: blue;
            stroke-dashoffset: 392;
            stroke-width: 128;
          }
          56% {
            animation-timing-function: step-end;
            stroke: blue;
            stroke-dashoffset: 0;
            stroke-width: 128;
          }
          to {
            stroke: black;
            stroke-width: 1024;
          }
        }
        #make-me-a-hanzi-animation-1 {
          animation: keyframes1 0.5690104166666666s both;
          animation-delay: 0.92138671875s;
          animation-timing-function: linear;
        }
      
        @keyframes keyframes2 {
          from {
            stroke: blue;
            stroke-dashoffset: 455;
            stroke-width: 128;
          }
          60% {
            animation-timing-function: step-end;
            stroke: blue;
            stroke-dashoffset: 0;
            stroke-width: 128;
          }
          to {
            stroke: black;
            stroke-width: 1024;
          }
        }
        #make-me-a-hanzi-animation-2 {
          animation: keyframes2 0.6202799479166666s both;
          animation-delay: 1.4903971354166665s;
          animation-timing-function: linear;
        }
      
        @keyframes keyframes3 {
          from {
            stroke: blue;
            stroke-dashoffset: 487;
            stroke-width: 128;
          }
          61% {
            animation-timing-function: step-end;
            stroke: blue;
            stroke-dashoffset: 0;
            stroke-width: 128;
          }
          to {
            stroke: black;
            stroke-width: 1024;
          }
        }
        #make-me-a-hanzi-animation-3 {
          animation: keyframes3 0.6463216145833334s both;
          animation-delay: 2.110677083333333s;
          animation-timing-function: linear;
        }
      
        @keyframes keyframes4 {
          from {
            stroke: blue;
            stroke-dashoffset: 554;
            stroke-width: 128;
          }
          64% {
            animation-timing-function: step-end;
            stroke: blue;
            stroke-dashoffset: 0;
            stroke-width: 128;
          }
          to {
            stroke: black;
            stroke-width: 1024;
          }
        }
        #make-me-a-hanzi-animation-4 {
          animation: keyframes4 0.7008463541666666s both;
          animation-delay: 2.7569986979166665s;
          animation-timing-function: linear;
        }
      
        @keyframes keyframes5 {
          from {
            stroke: blue;
            stroke-dashoffset: 426;
            stroke-width: 128;
          }
          58% {
            animation-timing-function: step-end;
            stroke: blue;
            stroke-dashoffset: 0;
            stroke-width: 128;
          }
          to {
            stroke: black;
            stroke-width: 1024;
          }
        }
        #make-me-a-hanzi-animation-5 {
          animation: keyframes5 0.5966796875s both;
          animation-delay: 3.457845052083333s;
          animation-timing-function: linear;
        }
      
        @keyframes keyframes6 {
          from {
            stroke: blue;
            stroke-dashoffset: 491;
            stroke-width: 128;
          }
          62% {
            animation-timing-function: step-end;
            stroke: blue;
            stroke-dashoffset: 0;
            stroke-width: 128;
          }
          to {
            stroke: black;
            stroke-width: 1024;
          }
        }
        #make-me-a-hanzi-animation-6 {
          animation: keyframes6 0.6495768229166666s both;
          animation-delay: 4.054524739583333s;
          animation-timing-function: linear;
        }
      
        @keyframes keyframes7 {
          from {
            stroke: blue;
            stroke-dashoffset: 751;
            stroke-width: 128;
          }
          71% {
            animation-timing-function: step-end;
            stroke: blue;
            stroke-dashoffset: 0;
            stroke-width: 128;
          }
          to {
            stroke: black;
            stroke-width: 1024;
          }
        }
        #make-me-a-hanzi-animation-7 {
          animation: keyframes7 0.8611653645833334s both;
          animation-delay: 4.7041015625s;
          animation-timing-function: linear;
        }
      
        @keyframes keyframes8 {
          from {
            stroke: blue;
            stroke-dashoffset: 320;
            stroke-width: 128;
          }
          51% {
            animation-timing-function: step-end;
            stroke: blue;
            stroke-dashoffset: 0;
            stroke-width: 128;
          }
          to {
            stroke: black;
            stroke-width: 1024;
          }
        }
        #make-me-a-hanzi-animation-8 {
          animation: keyframes8 0.5104166666666666s both;
          animation-delay: 5.565266927083333s;
          animation-timing-function: linear;
        }
      
        @keyframes keyframes9 {
          from {
            stroke: blue;
            stroke-dashoffset: 1389;
            stroke-width: 128;
          }
          82% {
            animation-timing-function: step-end;
            stroke: blue;
            stroke-dashoffset: 0;
            stroke-width: 128;
          }
          to {
            stroke: black;
            stroke-width: 1024;
          }
        }
        #make-me-a-hanzi-animation-9 {
          animation: keyframes9 1.38037109375s both;
          animation-delay: 6.07568359375s;
          animation-timing-function: linear;
        }
      
        @keyframes keyframes10 {
          from {
            stroke: blue;
            stroke-dashoffset: 620;
            stroke-width: 128;
          }
          67% {
            animation-timing-function: step-end;
            stroke: blue;
            stroke-dashoffset: 0;
            stroke-width: 128;
          }
          to {
            stroke: black;
            stroke-width: 1024;
          }
        }
        #make-me-a-hanzi-animation-10 {
          animation: keyframes10 0.7545572916666666s both;
          animation-delay: 7.4560546875s;
          animation-timing-function: linear;
        }
      
    </style>
    
      <path d="M 362 618 Q 377 654 392 668 Q 399 674 396 684 Q 395 694 380 705 Q 344 735 311 725 Q 302 722 306 709 Q 325 616 191 430 Q 188 427 186 423 Q 146 371 44 268 Q 37 262 47 260 Q 71 263 161 335 Q 162 338 166 340 Q 251 416 350 596 L 362 618 Z" fill="lightgray" />
    
      <path d="M 350 596 Q 356 592 368 583 Q 459 520 470 521 Q 479 522 481 532 Q 484 544 475 566 Q 468 588 433 602 Q 399 612 362 618 C 332 623 325 613 350 596 Z" fill="lightgray" />
    
      <path d="M 245 393 Q 211 383 238 370 Q 280 352 333 370 L 419 395 Q 438 402 442 405 Q 449 412 444 421 Q 437 431 407 436 Q 379 437 307 407 L 245 393 Z" fill="lightgray" />
    
      <path d="M 239 270 Q 229 276 202 281 Q 190 284 187 279 Q 180 273 188 258 Q 216 200 230 103 Q 233 75 249 55 Q 265 34 271 49 Q 277 67 273 98 L 268 130 Q 255 217 253 243 C 251 264 251 264 239 270 Z" fill="lightgray" />
    
      <path d="M 421 164 Q 437 231 457 252 Q 479 277 456 292 Q 395 325 387 323 Q 380 323 372 318 Q 333 293 239 270 C 210 263 225 232 253 243 Q 263 249 348 268 Q 373 275 380 264 Q 387 260 382 228 Q 376 200 370 165 C 365 135 414 135 421 164 Z" fill="lightgray" />
    
      <path d="M 273 98 Q 283 97 296 101 Q 339 116 435 132 Q 445 135 446 144 Q 446 151 421 164 L 370 165 Q 367 165 366 164 Q 312 143 268 130 C 239 121 243 99 273 98 Z" fill="lightgray" />
    
      <path d="M 570 559 Q 633 623 680 676 Q 695 695 716 709 Q 735 724 721 738 Q 705 751 677 761 Q 652 770 640 764 Q 627 760 634 748 Q 643 726 573 599 Q 564 584 555 567 C 541 541 549 538 570 559 Z" fill="lightgray" />
    
      <path d="M 585 523 Q 585 524 587 524 Q 627 540 733 562 Q 742 563 749 559 Q 759 555 760 538 Q 761 496 749 421 Q 748 400 727 402 Q 703 405 685 407 Q 672 410 675 402 Q 676 393 700 376 Q 725 351 741 324 Q 748 315 758 319 Q 765 322 777 344 Q 793 371 802 441 Q 808 540 821 553 Q 831 563 825 573 Q 816 583 781 602 Q 769 609 714 594 Q 704 594 618 570 Q 590 564 570 559 C 541 552 557 512 585 523 Z" fill="lightgray" />
    
      <path d="M 606 470 Q 642 427 661 425 Q 671 425 676 439 Q 677 449 669 465 Q 656 484 610 491 Q 603 492 602 484 Q 601 477 606 470 Z" fill="lightgray" />
    
      <path d="M 555 567 Q 546 573 537 576 Q 518 582 509 573 Q 502 567 511 555 Q 521 534 523 381 Q 523 300 511 249 Q 507 228 521 214 Q 542 199 564 213 Q 594 240 715 255 Q 829 277 852 255 Q 858 246 832 78 Q 825 29 803 -3 Q 793 -15 731 -5 Q 697 7 699 -5 Q 699 -11 708 -19 Q 759 -68 776 -102 Q 786 -123 804 -112 Q 867 -79 878 -11 Q 894 77 907 174 Q 914 211 932 243 Q 945 259 934 272 Q 915 291 878 313 Q 857 326 829 313 Q 789 295 752 291 Q 700 285 594 264 Q 569 261 570 282 Q 570 508 585 523 C 598 576 583 557 555 567 Z" fill="lightgray" />
    
      <path d="M 436 92 Q 423 91 420 82 Q 417 72 433 60 Q 473 33 517 48 Q 649 96 781 117 Q 797 121 798 128 Q 799 141 780 150 Q 752 162 729 155 Q 534 107 436 92 Z" fill="lightgray" />
    
    
      <clipPath id="make-me-a-hanzi-clip-0">
        <path d="M 362 618 Q 377 654 392 668 Q 399 674 396 684 Q 395 694 380 705 Q 344 735 311 725 Q 302 722 306 709 Q 325 616 191 430 Q 188 427 186 423 Q 146 371 44 268 Q 37 262 47 260 Q 71 263 161 335 Q 162 338 166 340 Q 251 416 350 596 L 362 618 Z" />
      </clipPath>
      <path clip-path="url(#make-me-a-hanzi-clip-0)" d="M 315 715 L 338 696 L 348 676 L 321 601 L 286 533 L 190 393 L 109 311 L 49 265" fill="none" id="make-me-a-hanzi-animation-0" stroke-dasharray="697 1394" stroke-linecap="round" />
    
      <clipPath id="make-me-a-hanzi-clip-1">
        <path d="M 350 596 Q 356 592 368 583 Q 459 520 470 521 Q 479 522 481 532 Q 484 544 475 566 Q 468 588 433 602 Q 399 612 362 618 C 332 623 325 613 350 596 Z" />
      </clipPath>
      <path clip-path="url(#make-me-a-hanzi-clip-1)" d="M 358 599 L 381 597 L 440 568 L 470 532" fill="none" id="make-me-a-hanzi-animation-1" stroke-dasharray="264 528" stroke-linecap="round" />
    
      <clipPath id="make-me-a-hanzi-clip-2">
        <path d="M 245 393 Q 211 383 238 370 Q 280 352 333 370 L 419 395 Q 438 402 442 405 Q 449 412 444 421 Q 437 431 407 436 Q 379 437 307 407 L 245 393 Z" />
      </clipPath>
      <path clip-path="url(#make-me-a-hanzi-clip-2)" d="M 239 382 L 304 384 L 403 414 L 434 414" fill="none" id="make-me-a-hanzi-animation-2" stroke-dasharray="327 654" stroke-linecap="round" />
    
      <clipPath id="make-me-a-hanzi-clip-3">
        <path d="M 239 270 Q 229 276 202 281 Q 190 284 187 279 Q 180 273 188 258 Q 216 200 230 103 Q 233 75 249 55 Q 265 34 271 49 Q 277 67 273 98 L 268 130 Q 255 217 253 243 C 251 264 251 264 239 270 Z" />
      </clipPath>
      <path clip-path="url(#make-me-a-hanzi-clip-3)" d="M 196 271 L 226 237 L 261 55" fill="none" id="make-me-a-hanzi-animation-3" stroke-dasharray="359 718" stroke-linecap="round" />
    
      <clipPath id="make-me-a-hanzi-clip-4">
        <path d="M 421 164 Q 437 231 457 252 Q 479 277 456 292 Q 395 325 387 323 Q 380 323 372 318 Q 333 293 239 270 C 210 263 225 232 253 243 Q 263 249 348 268 Q 373 275 380 264 Q 387 260 382 228 Q 376 200 370 165 C 365 135 414 135 421 164 Z" />
      </clipPath>
      <path clip-path="url(#make-me-a-hanzi-clip-4)" d="M 252 251 L 272 266 L 353 288 L 380 294 L 397 289 L 421 268 L 401 190 L 376 171" fill="none" id="make-me-a-hanzi-animation-4" stroke-dasharray="426 852" stroke-linecap="round" />
    
      <clipPath id="make-me-a-hanzi-clip-5">
        <path d="M 273 98 Q 283 97 296 101 Q 339 116 435 132 Q 445 135 446 144 Q 446 151 421 164 L 370 165 Q 367 165 366 164 Q 312 143 268 130 C 239 121 243 99 273 98 Z" />
      </clipPath>
      <path clip-path="url(#make-me-a-hanzi-clip-5)" d="M 278 104 L 293 119 L 373 143 L 438 143" fill="none" id="make-me-a-hanzi-animation-5" stroke-dasharray="298 596" stroke-linecap="round" />
    
      <clipPath id="make-me-a-hanzi-clip-6">
        <path d="M 570 559 Q 633 623 680 676 Q 695 695 716 709 Q 735 724 721 738 Q 705 751 677 761 Q 652 770 640 764 Q 627 760 634 748 Q 643 726 573 599 Q 564 584 555 567 C 541 541 549 538 570 559 Z" />
      </clipPath>
      <path clip-path="url(#make-me-a-hanzi-clip-6)" d="M 641 755 L 654 747 L 671 723 L 615 633 L 570 571 L 562 571" fill="none" id="make-me-a-hanzi-animation-6" stroke-dasharray="363 726" stroke-linecap="round" />
    
      <clipPath id="make-me-a-hanzi-clip-7">
        <path d="M 585 523 Q 585 524 587 524 Q 627 540 733 562 Q 742 563 749 559 Q 759 555 760 538 Q 761 496 749 421 Q 748 400 727 402 Q 703 405 685 407 Q 672 410 675 402 Q 676 393 700 376 Q 725 351 741 324 Q 748 315 758 319 Q 765 322 777 344 Q 793 371 802 441 Q 808 540 821 553 Q 831 563 825 573 Q 816 583 781 602 Q 769 609 714 594 Q 704 594 618 570 Q 590 564 570 559 C 541 552 557 512 585 523 Z" />
      </clipPath>
      <path clip-path="url(#make-me-a-hanzi-clip-7)" d="M 583 529 L 595 546 L 728 581 L 761 580 L 788 561 L 777 435 L 758 378 L 749 372 L 682 401" fill="none" id="make-me-a-hanzi-animation-7" stroke-dasharray="623 1246" stroke-linecap="round" />
    
      <clipPath id="make-me-a-hanzi-clip-8">
        <path d="M 606 470 Q 642 427 661 425 Q 671 425 676 439 Q 677 449 669 465 Q 656 484 610 491 Q 603 492 602 484 Q 601 477 606 470 Z" />
      </clipPath>
      <path clip-path="url(#make-me-a-hanzi-clip-8)" d="M 613 480 L 651 454 L 661 439" fill="none" id="make-me-a-hanzi-animation-8" stroke-dasharray="192 384" stroke-linecap="round" />
    
      <clipPath id="make-me-a-hanzi-clip-9">
        <path d="M 555 567 Q 546 573 537 576 Q 518 582 509 573 Q 502 567 511 555 Q 521 534 523 381 Q 523 300 511 249 Q 507 228 521 214 Q 542 199 564 213 Q 594 240 715 255 Q 829 277 852 255 Q 858 246 832 78 Q 825 29 803 -3 Q 793 -15 731 -5 Q 697 7 699 -5 Q 699 -11 708 -19 Q 759 -68 776 -102 Q 786 -123 804 -112 Q 867 -79 878 -11 Q 894 77 907 174 Q 914 211 932 243 Q 945 259 934 272 Q 915 291 878 313 Q 857 326 829 313 Q 789 295 752 291 Q 700 285 594 264 Q 569 261 570 282 Q 570 508 585 523 C 598 576 583 557 555 567 Z" />
      </clipPath>
      <path clip-path="url(#make-me-a-hanzi-clip-9)" d="M 518 565 L 534 555 L 550 523 L 543 276 L 547 245 L 591 246 L 624 256 L 845 290 L 869 282 L 893 253 L 857 46 L 830 -33 L 801 -54 L 707 -6" fill="none" id="make-me-a-hanzi-animation-9" stroke-dasharray="1261 2522" stroke-linecap="round" />
    
      <clipPath id="make-me-a-hanzi-clip-10">
        <path d="M 436 92 Q 423 91 420 82 Q 417 72 433 60 Q 473 33 517 48 Q 649 96 781 117 Q 797 121 798 128 Q 799 141 780 150 Q 752 162 729 155 Q 534 107 436 92 Z" />
      </clipPath>
      <path clip-path="url(#make-me-a-hanzi-clip-10)" d="M 432 79 L 462 71 L 492 72 L 704 127 L 747 135 L 787 131" fill="none" id="make-me-a-hanzi-animation-10" stroke-dasharray="492 984" stroke-linecap="round" />
    
  </g>
</svg>