<svg xmlns="http://www.w3.org/2000/svg" version="1.1" viewBox="0 0 1024 1024">
  <g stroke="lightgray" stroke-dasharray="1,1" stroke-width="1" transform="scale(4, 4)">
    <line x1="0" y1="0" x2="256" y2="256" />
    <line x1="256" y1="0" x2="0" y2="256" />
    <line x1="128" y1="0" x2="128" y2="256" />
    <line x1="0" y1="128" x2="256" y2="128" />
  </g>
  <g transform="scale(1.0, -1.0) translate(0.0, -829.50)">
    <style type="text/css">
      
        @keyframes keyframes0 {
          from {
            stroke: blue;
            stroke-dashoffset: 529;
            stroke-width: 128;
          }
          63% {
            animation-timing-function: step-end;
            stroke: blue;
            stroke-dashoffset: 0;
            stroke-width: 128;
          }
          to {
            stroke: black;
            stroke-width: 1024;
          }
        }
        #make-me-a-hanzi-animation-0 {
          animation: keyframes0 0.6805013020833334s both;
          animation-delay: 0s;
          animation-timing-function: linear;
        }
      
        @keyframes keyframes1 {
          from {
            stroke: blue;
            stroke-dashoffset: 676;
            stroke-width: 128;
          }
          69% {
            animation-timing-function: step-end;
            stroke: blue;
            stroke-dashoffset: 0;
            stroke-width: 128;
          }
          to {
            stroke: black;
            stroke-width: 1024;
          }
        }
        #make-me-a-hanzi-animation-1 {
          animation: keyframes1 0.8001302083333334s both;
          animation-delay: 0.6805013020833334s;
          animation-timing-function: linear;
        }
      
        @keyframes keyframes2 {
          from {
            stroke: blue;
            stroke-dashoffset: 848;
            stroke-width: 128;
          }
          73% {
            animation-timing-function: step-end;
            stroke: blue;
            stroke-dashoffset: 0;
            stroke-width: 128;
          }
          to {
            stroke: black;
            stroke-width: 1024;
          }
        }
        #make-me-a-hanzi-animation-2 {
          animation: keyframes2 0.9401041666666666s both;
          animation-delay: 1.4806315104166667s;
          animation-timing-function: linear;
        }
      
        @keyframes keyframes3 {
          from {
            stroke: blue;
            stroke-dashoffset: 339;
            stroke-width: 128;
          }
          52% {
            animation-timing-function: step-end;
            stroke: blue;
            stroke-dashoffset: 0;
            stroke-width: 128;
          }
          to {
            stroke: black;
            stroke-width: 1024;
          }
        }
        #make-me-a-hanzi-animation-3 {
          animation: keyframes3 0.52587890625s both;
          animation-delay: 2.4207356770833335s;
          animation-timing-function: linear;
        }
      
        @keyframes keyframes4 {
          from {
            stroke: blue;
            stroke-dashoffset: 713;
            stroke-width: 128;
          }
          70% {
            animation-timing-function: step-end;
            stroke: blue;
            stroke-dashoffset: 0;
            stroke-width: 128;
          }
          to {
            stroke: black;
            stroke-width: 1024;
          }
        }
        #make-me-a-hanzi-animation-4 {
          animation: keyframes4 0.8302408854166666s both;
          animation-delay: 2.9466145833333335s;
          animation-timing-function: linear;
        }
      
        @keyframes keyframes5 {
          from {
            stroke: blue;
            stroke-dashoffset: 874;
            stroke-width: 128;
          }
          74% {
            animation-timing-function: step-end;
            stroke: blue;
            stroke-dashoffset: 0;
            stroke-width: 128;
          }
          to {
            stroke: black;
            stroke-width: 1024;
          }
        }
        #make-me-a-hanzi-animation-5 {
          animation: keyframes5 0.9612630208333334s both;
          animation-delay: 3.77685546875s;
          animation-timing-function: linear;
        }
      
        @keyframes keyframes6 {
          from {
            stroke: blue;
            stroke-dashoffset: 343;
            stroke-width: 128;
          }
          53% {
            animation-timing-function: step-end;
            stroke: blue;
            stroke-dashoffset: 0;
            stroke-width: 128;
          }
          to {
            stroke: black;
            stroke-width: 1024;
          }
        }
        #make-me-a-hanzi-animation-6 {
          animation: keyframes6 0.5291341145833334s both;
          animation-delay: 4.738118489583333s;
          animation-timing-function: linear;
        }
      
        @keyframes keyframes7 {
          from {
            stroke: blue;
            stroke-dashoffset: 435;
            stroke-width: 128;
          }
          59% {
            animation-timing-function: step-end;
            stroke: blue;
            stroke-dashoffset: 0;
            stroke-width: 128;
          }
          to {
            stroke: black;
            stroke-width: 1024;
          }
        }
        #make-me-a-hanzi-animation-7 {
          animation: keyframes7 0.60400390625s both;
          animation-delay: 5.267252604166666s;
          animation-timing-function: linear;
        }
      
        @keyframes keyframes8 {
          from {
            stroke: blue;
            stroke-dashoffset: 744;
            stroke-width: 128;
          }
          71% {
            animation-timing-function: step-end;
            stroke: blue;
            stroke-dashoffset: 0;
            stroke-width: 128;
          }
          to {
            stroke: black;
            stroke-width: 1024;
          }
        }
        #make-me-a-hanzi-animation-8 {
          animation: keyframes8 0.85546875s both;
          animation-delay: 5.871256510416666s;
          animation-timing-function: linear;
        }
      
        @keyframes keyframes9 {
          from {
            stroke: blue;
            stroke-dashoffset: 319;
            stroke-width: 128;
          }
          51% {
            animation-timing-function: step-end;
            stroke: blue;
            stroke-dashoffset: 0;
            stroke-width: 128;
          }
          to {
            stroke: black;
            stroke-width: 1024;
          }
        }
        #make-me-a-hanzi-animation-9 {
          animation: keyframes9 0.5096028645833334s both;
          animation-delay: 6.726725260416666s;
          animation-timing-function: linear;
        }
      
        @keyframes keyframes10 {
          from {
            stroke: blue;
            stroke-dashoffset: 1369;
            stroke-width: 128;
          }
          82% {
            animation-timing-function: step-end;
            stroke: blue;
            stroke-dashoffset: 0;
            stroke-width: 128;
          }
          to {
            stroke: black;
            stroke-width: 1024;
          }
        }
        #make-me-a-hanzi-animation-10 {
          animation: keyframes10 1.3640950520833333s both;
          animation-delay: 7.236328124999999s;
          animation-timing-function: linear;
        }
      
        @keyframes keyframes11 {
          from {
            stroke: blue;
            stroke-dashoffset: 576;
            stroke-width: 128;
          }
          65% {
            animation-timing-function: step-end;
            stroke: blue;
            stroke-dashoffset: 0;
            stroke-width: 128;
          }
          to {
            stroke: black;
            stroke-width: 1024;
          }
        }
        #make-me-a-hanzi-animation-11 {
          animation: keyframes11 0.71875s both;
          animation-delay: 8.600423177083332s;
          animation-timing-function: linear;
        }
      
    </style>
    
      <path d="M 165 578 Q 128 571 155 555 Q 200 531 255 546 L 394 578 Q 427 587 432 591 Q 441 600 436 608 Q 429 620 398 626 Q 367 632 337 619 Q 300 606 260 595 Q 217 585 165 578 Z" fill="lightgray" />
    
      <path d="M 139 317 Q 142 402 149 427 C 152 440 152 440 139 451 Q 123 467 101 474 Q 94 475 88 469 Q 85 465 91 456 Q 124 356 92 179 Q 71 94 72 91 Q 71 91 72 89 Q 79 62 88 51 Q 97 41 105 51 Q 135 84 137 295 Q 137 299 138 303 L 139 317 Z" fill="lightgray" />
    
      <path d="M 149 427 Q 150 428 156 430 L 187 444 Q 199 451 204 445 Q 211 421 219 236 Q 219 86 211 71 Q 208 68 155 79 Q 140 83 141 77 Q 181 40 204 13 Q 214 -2 225 -5 Q 232 -8 238 -1 Q 271 35 265 108 Q 241 399 260 436 Q 267 451 259 458 Q 243 471 215 480 Q 202 484 190 479 Q 174 466 162 461 L 139 451 C 111 439 122 415 149 427 Z" fill="lightgray" />
    
      <path d="M 138 303 L 149 289 Q 182 241 192 239 Q 198 238 202 245 Q 206 252 205 269 Q 204 287 151 315 Q 144 319 140 318 Q 139 318 139 317 C 130 313 130 313 138 303 Z" fill="lightgray" />
    
      <path d="M 330 480 Q 321 489 301 498 Q 292 502 283 498 Q 277 494 282 484 Q 283 474 288 465 Q 310 420 295 187 Q 279 87 279 85 Q 279 66 300 41 Q 309 29 317 40 Q 332 61 332 167 Q 332 248 335 303 L 335 321 Q 338 436 340 445 Q 341 452 341 457 C 342 471 342 471 330 480 Z" fill="lightgray" />
    
      <path d="M 463 124 Q 442 439 456 468 Q 463 483 455 490 Q 439 503 411 512 Q 396 518 361 494 Q 349 488 330 480 C 302 468 313 446 341 457 Q 353 460 383 476 Q 395 483 400 477 Q 409 456 417 250 Q 418 90 410 71 Q 407 68 359 72 Q 344 76 345 68 Q 384 38 406 14 Q 416 1 428 -3 Q 435 -4 441 2 Q 471 44 465 106 L 463 124 Z" fill="lightgray" />
    
      <path d="M 335 303 L 345 290 Q 381 241 387 239 Q 393 238 398 245 Q 402 252 402 271 Q 399 290 348 318 Q 341 322 336 322 Q 335 322 335 321 C 324 318 324 318 335 303 Z" fill="lightgray" />
    
      <path d="M 565 577 Q 586 595 648 658 Q 661 676 682 689 Q 700 701 687 715 Q 672 728 647 737 Q 623 744 612 741 Q 602 737 607 726 Q 616 702 580 640 L 549 587 C 534 561 542 557 565 577 Z" fill="lightgray" />
    
      <path d="M 576 533 Q 613 548 711 568 Q 720 569 725 566 Q 735 562 737 544 Q 736 501 722 425 Q 721 406 701 408 Q 673 415 649 423 Q 636 426 639 418 Q 640 409 661 390 Q 694 359 712 328 Q 719 319 729 323 Q 736 326 749 348 Q 764 373 775 437 Q 781 542 797 556 Q 807 566 801 576 Q 794 586 760 606 Q 747 613 692 599 Q 658 599 573 571 C 544 562 548 523 576 533 Z" fill="lightgray" />
    
      <path d="M 588 488 Q 619 443 639 439 Q 648 438 653 450 Q 654 459 649 473 Q 642 485 627 491 Q 603 504 593 506 Q 586 507 585 500 Q 584 494 588 488 Z" fill="lightgray" />
    
      <path d="M 563 225 Q 582 237 621 244 Q 700 262 784 264 Q 817 267 831 254 Q 844 241 830 196 Q 824 141 815 82 Q 808 36 788 7 Q 778 -6 753 -4 Q 717 3 685 10 Q 670 14 671 7 Q 671 1 680 -6 Q 741 -55 763 -90 Q 773 -109 790 -99 Q 847 -66 859 -3 Q 875 79 886 170 Q 893 207 913 239 Q 926 255 914 268 Q 896 289 859 311 Q 838 323 809 311 Q 775 298 741 295 Q 695 292 601 276 Q 573 270 571 295 Q 567 497 576 533 C 580 563 580 567 573 571 Q 569 575 565 577 L 549 587 Q 542 591 534 594 Q 518 600 509 591 Q 503 587 512 575 Q 534 533 525 312 Q 522 288 518 264 Q 512 245 526 229 Q 545 213 563 225 Z" fill="lightgray" />
    
      <path d="M 643 106 Q 659 107 677 110 Q 722 117 769 113 Q 788 113 793 121 Q 799 131 787 141 Q 724 186 666 161 L 472 127 Q 466 127 463 124 C 448 119 448 119 465 106 Q 478 93 520 80 Q 529 79 543 86 Q 604 101 643 106 Z" fill="lightgray" />
    
    
      <clipPath id="make-me-a-hanzi-clip-0">
        <path d="M 165 578 Q 128 571 155 555 Q 200 531 255 546 L 394 578 Q 427 587 432 591 Q 441 600 436 608 Q 429 620 398 626 Q 367 632 337 619 Q 300 606 260 595 Q 217 585 165 578 Z" />
      </clipPath>
      <path clip-path="url(#make-me-a-hanzi-clip-0)" d="M 157 568 L 180 562 L 229 564 L 365 599 L 425 602" fill="none" id="make-me-a-hanzi-animation-0" stroke-dasharray="401 802" stroke-linecap="round" />
    
      <clipPath id="make-me-a-hanzi-clip-1">
        <path d="M 139 317 Q 142 402 149 427 C 152 440 152 440 139 451 Q 123 467 101 474 Q 94 475 88 469 Q 85 465 91 456 Q 124 356 92 179 Q 71 94 72 91 Q 71 91 72 89 Q 79 62 88 51 Q 97 41 105 51 Q 135 84 137 295 Q 137 299 138 303 L 139 317 Z" />
      </clipPath>
      <path clip-path="url(#make-me-a-hanzi-clip-1)" d="M 97 464 L 112 450 L 124 426 L 126 351 L 118 212 L 96 87 L 97 56" fill="none" id="make-me-a-hanzi-animation-1" stroke-dasharray="548 1096" stroke-linecap="round" />
    
      <clipPath id="make-me-a-hanzi-clip-2">
        <path d="M 149 427 Q 150 428 156 430 L 187 444 Q 199 451 204 445 Q 211 421 219 236 Q 219 86 211 71 Q 208 68 155 79 Q 140 83 141 77 Q 181 40 204 13 Q 214 -2 225 -5 Q 232 -8 238 -1 Q 271 35 265 108 Q 241 399 260 436 Q 267 451 259 458 Q 243 471 215 480 Q 202 484 190 479 Q 174 466 162 461 L 139 451 C 111 439 122 415 149 427 Z" />
      </clipPath>
      <path clip-path="url(#make-me-a-hanzi-clip-2)" d="M 150 434 L 161 447 L 200 465 L 216 461 L 233 442 L 231 357 L 242 119 L 239 69 L 225 40 L 182 58 L 166 71 L 149 72" fill="none" id="make-me-a-hanzi-animation-2" stroke-dasharray="720 1440" stroke-linecap="round" />
    
      <clipPath id="make-me-a-hanzi-clip-3">
        <path d="M 138 303 L 149 289 Q 182 241 192 239 Q 198 238 202 245 Q 206 252 205 269 Q 204 287 151 315 Q 144 319 140 318 Q 139 318 139 317 C 130 313 130 313 138 303 Z" />
      </clipPath>
      <path clip-path="url(#make-me-a-hanzi-clip-3)" d="M 144 313 L 187 267 L 194 248" fill="none" id="make-me-a-hanzi-animation-3" stroke-dasharray="211 422" stroke-linecap="round" />
    
      <clipPath id="make-me-a-hanzi-clip-4">
        <path d="M 330 480 Q 321 489 301 498 Q 292 502 283 498 Q 277 494 282 484 Q 283 474 288 465 Q 310 420 295 187 Q 279 87 279 85 Q 279 66 300 41 Q 309 29 317 40 Q 332 61 332 167 Q 332 248 335 303 L 335 321 Q 338 436 340 445 Q 341 452 341 457 C 342 471 342 471 330 480 Z" />
      </clipPath>
      <path clip-path="url(#make-me-a-hanzi-clip-4)" d="M 289 491 L 313 463 L 319 417 L 313 155 L 304 83 L 309 44" fill="none" id="make-me-a-hanzi-animation-4" stroke-dasharray="585 1170" stroke-linecap="round" />
    
      <clipPath id="make-me-a-hanzi-clip-5">
        <path d="M 463 124 Q 442 439 456 468 Q 463 483 455 490 Q 439 503 411 512 Q 396 518 361 494 Q 349 488 330 480 C 302 468 313 446 341 457 Q 353 460 383 476 Q 395 483 400 477 Q 409 456 417 250 Q 418 90 410 71 Q 407 68 359 72 Q 344 76 345 68 Q 384 38 406 14 Q 416 1 428 -3 Q 435 -4 441 2 Q 471 44 465 106 L 463 124 Z" />
      </clipPath>
      <path clip-path="url(#make-me-a-hanzi-clip-5)" d="M 338 477 L 348 473 L 400 496 L 412 493 L 429 475 L 436 284 L 441 96 L 435 55 L 425 42 L 353 66" fill="none" id="make-me-a-hanzi-animation-5" stroke-dasharray="746 1492" stroke-linecap="round" />
    
      <clipPath id="make-me-a-hanzi-clip-6">
        <path d="M 335 303 L 345 290 Q 381 241 387 239 Q 393 238 398 245 Q 402 252 402 271 Q 399 290 348 318 Q 341 322 336 322 Q 335 322 335 321 C 324 318 324 318 335 303 Z" />
      </clipPath>
      <path clip-path="url(#make-me-a-hanzi-clip-6)" d="M 341 317 L 384 269 L 390 247" fill="none" id="make-me-a-hanzi-animation-6" stroke-dasharray="215 430" stroke-linecap="round" />
    
      <clipPath id="make-me-a-hanzi-clip-7">
        <path d="M 565 577 Q 586 595 648 658 Q 661 676 682 689 Q 700 701 687 715 Q 672 728 647 737 Q 623 744 612 741 Q 602 737 607 726 Q 616 702 580 640 L 549 587 C 534 561 542 557 565 577 Z" />
      </clipPath>
      <path clip-path="url(#make-me-a-hanzi-clip-7)" d="M 617 731 L 634 715 L 641 699 L 564 584" fill="none" id="make-me-a-hanzi-animation-7" stroke-dasharray="307 614" stroke-linecap="round" />
    
      <clipPath id="make-me-a-hanzi-clip-8">
        <path d="M 576 533 Q 613 548 711 568 Q 720 569 725 566 Q 735 562 737 544 Q 736 501 722 425 Q 721 406 701 408 Q 673 415 649 423 Q 636 426 639 418 Q 640 409 661 390 Q 694 359 712 328 Q 719 319 729 323 Q 736 326 749 348 Q 764 373 775 437 Q 781 542 797 556 Q 807 566 801 576 Q 794 586 760 606 Q 747 613 692 599 Q 658 599 573 571 C 544 562 548 523 576 533 Z" />
      </clipPath>
      <path clip-path="url(#make-me-a-hanzi-clip-8)" d="M 579 540 L 596 559 L 706 586 L 738 585 L 764 566 L 745 413 L 732 385 L 722 376 L 706 381 L 646 417" fill="none" id="make-me-a-hanzi-animation-8" stroke-dasharray="616 1232" stroke-linecap="round" />
    
      <clipPath id="make-me-a-hanzi-clip-9">
        <path d="M 588 488 Q 619 443 639 439 Q 648 438 653 450 Q 654 459 649 473 Q 642 485 627 491 Q 603 504 593 506 Q 586 507 585 500 Q 584 494 588 488 Z" />
      </clipPath>
      <path clip-path="url(#make-me-a-hanzi-clip-9)" d="M 594 496 L 625 472 L 639 453" fill="none" id="make-me-a-hanzi-animation-9" stroke-dasharray="191 382" stroke-linecap="round" />
    
      <clipPath id="make-me-a-hanzi-clip-10">
        <path d="M 563 225 Q 582 237 621 244 Q 700 262 784 264 Q 817 267 831 254 Q 844 241 830 196 Q 824 141 815 82 Q 808 36 788 7 Q 778 -6 753 -4 Q 717 3 685 10 Q 670 14 671 7 Q 671 1 680 -6 Q 741 -55 763 -90 Q 773 -109 790 -99 Q 847 -66 859 -3 Q 875 79 886 170 Q 893 207 913 239 Q 926 255 914 268 Q 896 289 859 311 Q 838 323 809 311 Q 775 298 741 295 Q 695 292 601 276 Q 573 270 571 295 Q 567 497 576 533 C 580 563 580 567 573 571 Q 569 575 565 577 L 549 587 Q 542 591 534 594 Q 518 600 509 591 Q 503 587 512 575 Q 534 533 525 312 Q 522 288 518 264 Q 512 245 526 229 Q 545 213 563 225 Z" />
      </clipPath>
      <path clip-path="url(#make-me-a-hanzi-clip-10)" d="M 518 584 L 536 571 L 548 550 L 546 291 L 553 257 L 590 256 L 685 273 L 833 287 L 850 280 L 875 252 L 856 172 L 837 40 L 813 -23 L 787 -45 L 679 3" fill="none" id="make-me-a-hanzi-animation-10" stroke-dasharray="1241 2482" stroke-linecap="round" />
    
      <clipPath id="make-me-a-hanzi-clip-11">
        <path d="M 643 106 Q 659 107 677 110 Q 722 117 769 113 Q 788 113 793 121 Q 799 131 787 141 Q 724 186 666 161 L 472 127 Q 466 127 463 124 C 448 119 448 119 465 106 Q 478 93 520 80 Q 529 79 543 86 Q 604 101 643 106 Z" />
      </clipPath>
      <path clip-path="url(#make-me-a-hanzi-clip-11)" d="M 469 120 L 487 111 L 519 107 L 704 142 L 740 140 L 782 128" fill="none" id="make-me-a-hanzi-animation-11" stroke-dasharray="448 896" stroke-linecap="round" />
    
  </g>
</svg>