<svg xmlns="http://www.w3.org/2000/svg" version="1.1" viewBox="0 0 1024 1024">
  <g stroke="lightgray" stroke-dasharray="1,1" stroke-width="1" transform="scale(4, 4)">
    <line x1="0" y1="0" x2="256" y2="256" />
    <line x1="256" y1="0" x2="0" y2="256" />
    <line x1="128" y1="0" x2="128" y2="256" />
    <line x1="0" y1="128" x2="256" y2="128" />
  </g>
  <g transform="scale(1.0, -1.0) translate(0.0, -837.00)">
    <style type="text/css">
      
        @keyframes keyframes0 {
          from {
            stroke: blue;
            stroke-dashoffset: 386;
            stroke-width: 128;
          }
          56% {
            animation-timing-function: step-end;
            stroke: blue;
            stroke-dashoffset: 0;
            stroke-width: 128;
          }
          to {
            stroke: black;
            stroke-width: 1024;
          }
        }
        #make-me-a-hanzi-animation-0 {
          animation: keyframes0 0.5641276041666666s both;
          animation-delay: 0s;
          animation-timing-function: linear;
        }
      
        @keyframes keyframes1 {
          from {
            stroke: blue;
            stroke-dashoffset: 614;
            stroke-width: 128;
          }
          67% {
            animation-timing-function: step-end;
            stroke: blue;
            stroke-dashoffset: 0;
            stroke-width: 128;
          }
          to {
            stroke: black;
            stroke-width: 1024;
          }
        }
        #make-me-a-hanzi-animation-1 {
          animation: keyframes1 0.7496744791666666s both;
          animation-delay: 0.5641276041666666s;
          animation-timing-function: linear;
        }
      
        @keyframes keyframes2 {
          from {
            stroke: blue;
            stroke-dashoffset: 411;
            stroke-width: 128;
          }
          57% {
            animation-timing-function: step-end;
            stroke: blue;
            stroke-dashoffset: 0;
            stroke-width: 128;
          }
          to {
            stroke: black;
            stroke-width: 1024;
          }
        }
        #make-me-a-hanzi-animation-2 {
          animation: keyframes2 0.58447265625s both;
          animation-delay: 1.3138020833333333s;
          animation-timing-function: linear;
        }
      
        @keyframes keyframes3 {
          from {
            stroke: blue;
            stroke-dashoffset: 511;
            stroke-width: 128;
          }
          62% {
            animation-timing-function: step-end;
            stroke: blue;
            stroke-dashoffset: 0;
            stroke-width: 128;
          }
          to {
            stroke: black;
            stroke-width: 1024;
          }
        }
        #make-me-a-hanzi-animation-3 {
          animation: keyframes3 0.6658528645833334s both;
          animation-delay: 1.8982747395833333s;
          animation-timing-function: linear;
        }
      
        @keyframes keyframes4 {
          from {
            stroke: blue;
            stroke-dashoffset: 405;
            stroke-width: 128;
          }
          57% {
            animation-timing-function: step-end;
            stroke: blue;
            stroke-dashoffset: 0;
            stroke-width: 128;
          }
          to {
            stroke: black;
            stroke-width: 1024;
          }
        }
        #make-me-a-hanzi-animation-4 {
          animation: keyframes4 0.57958984375s both;
          animation-delay: 2.5641276041666665s;
          animation-timing-function: linear;
        }
      
        @keyframes keyframes5 {
          from {
            stroke: blue;
            stroke-dashoffset: 607;
            stroke-width: 128;
          }
          66% {
            animation-timing-function: step-end;
            stroke: blue;
            stroke-dashoffset: 0;
            stroke-width: 128;
          }
          to {
            stroke: black;
            stroke-width: 1024;
          }
        }
        #make-me-a-hanzi-animation-5 {
          animation: keyframes5 0.7439778645833334s both;
          animation-delay: 3.1437174479166665s;
          animation-timing-function: linear;
        }
      
        @keyframes keyframes6 {
          from {
            stroke: blue;
            stroke-dashoffset: 660;
            stroke-width: 128;
          }
          68% {
            animation-timing-function: step-end;
            stroke: blue;
            stroke-dashoffset: 0;
            stroke-width: 128;
          }
          to {
            stroke: black;
            stroke-width: 1024;
          }
        }
        #make-me-a-hanzi-animation-6 {
          animation: keyframes6 0.787109375s both;
          animation-delay: 3.8876953125s;
          animation-timing-function: linear;
        }
      
        @keyframes keyframes7 {
          from {
            stroke: blue;
            stroke-dashoffset: 631;
            stroke-width: 128;
          }
          67% {
            animation-timing-function: step-end;
            stroke: blue;
            stroke-dashoffset: 0;
            stroke-width: 128;
          }
          to {
            stroke: black;
            stroke-width: 1024;
          }
        }
        #make-me-a-hanzi-animation-7 {
          animation: keyframes7 0.7635091145833334s both;
          animation-delay: 4.6748046875s;
          animation-timing-function: linear;
        }
      
        @keyframes keyframes8 {
          from {
            stroke: blue;
            stroke-dashoffset: 439;
            stroke-width: 128;
          }
          59% {
            animation-timing-function: step-end;
            stroke: blue;
            stroke-dashoffset: 0;
            stroke-width: 128;
          }
          to {
            stroke: black;
            stroke-width: 1024;
          }
        }
        #make-me-a-hanzi-animation-8 {
          animation: keyframes8 0.6072591145833334s both;
          animation-delay: 5.438313802083333s;
          animation-timing-function: linear;
        }
      
        @keyframes keyframes9 {
          from {
            stroke: blue;
            stroke-dashoffset: 742;
            stroke-width: 128;
          }
          71% {
            animation-timing-function: step-end;
            stroke: blue;
            stroke-dashoffset: 0;
            stroke-width: 128;
          }
          to {
            stroke: black;
            stroke-width: 1024;
          }
        }
        #make-me-a-hanzi-animation-9 {
          animation: keyframes9 0.8538411458333334s both;
          animation-delay: 6.045572916666666s;
          animation-timing-function: linear;
        }
      
        @keyframes keyframes10 {
          from {
            stroke: blue;
            stroke-dashoffset: 326;
            stroke-width: 128;
          }
          51% {
            animation-timing-function: step-end;
            stroke: blue;
            stroke-dashoffset: 0;
            stroke-width: 128;
          }
          to {
            stroke: black;
            stroke-width: 1024;
          }
        }
        #make-me-a-hanzi-animation-10 {
          animation: keyframes10 0.5152994791666666s both;
          animation-delay: 6.899414062499999s;
          animation-timing-function: linear;
        }
      
        @keyframes keyframes11 {
          from {
            stroke: blue;
            stroke-dashoffset: 1357;
            stroke-width: 128;
          }
          82% {
            animation-timing-function: step-end;
            stroke: blue;
            stroke-dashoffset: 0;
            stroke-width: 128;
          }
          to {
            stroke: black;
            stroke-width: 1024;
          }
        }
        #make-me-a-hanzi-animation-11 {
          animation: keyframes11 1.3543294270833333s both;
          animation-delay: 7.414713541666666s;
          animation-timing-function: linear;
        }
      
        @keyframes keyframes12 {
          from {
            stroke: blue;
            stroke-dashoffset: 643;
            stroke-width: 128;
          }
          68% {
            animation-timing-function: step-end;
            stroke: blue;
            stroke-dashoffset: 0;
            stroke-width: 128;
          }
          to {
            stroke: black;
            stroke-width: 1024;
          }
        }
        #make-me-a-hanzi-animation-12 {
          animation: keyframes12 0.7732747395833334s both;
          animation-delay: 8.76904296875s;
          animation-timing-function: linear;
        }
      
    </style>
    
      <path d="M 324 708 Q 351 689 380 664 Q 393 654 408 655 Q 417 656 421 668 Q 424 681 414 709 Q 402 736 316 752 Q 301 753 296 751 Q 292 747 294 735 Q 298 725 324 708 Z" fill="lightgray" />
    
      <path d="M 140 569 Q 128 568 126 561 Q 123 552 136 542 Q 172 521 205 530 Q 338 575 483 595 Q 496 596 497 604 Q 498 614 483 622 Q 461 632 440 628 Q 227 577 140 569 Z" fill="lightgray" />
    
      <path d="M 240 498 Q 231 501 212 503 Q 202 504 200 500 Q 196 496 203 483 Q 225 447 243 386 Q 247 367 259 356 Q 274 340 277 353 Q 278 363 277 379 L 272 404 Q 260 459 257 476 C 254 494 254 494 240 498 Z" fill="lightgray" />
    
      <path d="M 415 431 Q 431 477 446 490 Q 465 511 445 523 Q 391 553 384 550 Q 378 549 375 546 Q 335 519 240 498 C 211 491 229 466 257 476 Q 266 480 349 503 Q 376 510 383 501 L 372 434 C 367 404 405 403 415 431 Z" fill="lightgray" />
    
      <path d="M 277 379 Q 283 378 290 380 Q 332 393 424 407 Q 433 408 433 416 Q 433 420 415 431 C 401 440 401 440 372 434 L 370 434 Q 316 416 272 404 C 243 396 247 381 277 379 Z" fill="lightgray" />
    
      <path d="M 335 228 Q 426 291 447 295 Q 462 301 457 313 Q 454 326 403 353 Q 388 360 371 354 Q 325 335 253 311 Q 235 304 189 303 Q 171 303 178 288 Q 185 278 200 270 Q 225 258 250 275 Q 359 324 370 319 Q 379 315 377 305 Q 352 274 324 235 C 306 211 310 211 335 228 Z" fill="lightgray" />
    
      <path d="M 361 189 Q 351 216 335 228 L 324 235 Q 317 239 309 242 Q 291 249 283 243 Q 273 239 284 227 Q 309 208 318 176 L 325 142 Q 337 54 312 2 Q 300 -17 275 -10 L 231 1 Q 221 5 225 -5 Q 228 -12 241 -23 Q 269 -51 278 -73 Q 285 -89 300 -87 Q 310 -86 334 -66 Q 397 -5 368 160 L 361 189 Z" fill="lightgray" />
    
      <path d="M 368 160 Q 380 166 394 171 Q 421 181 441 196 Q 453 203 453 211 Q 449 215 437 214 L 361 189 L 318 176 Q 239 154 151 127 Q 132 121 98 122 Q 86 121 84 112 Q 83 99 91 92 Q 112 77 141 60 Q 151 57 161 65 Q 215 102 325 142 L 368 160 Z" fill="lightgray" />
    
      <path d="M 578 557 L 662 653 Q 675 672 693 686 Q 709 699 696 713 Q 680 725 654 731 Q 630 738 620 732 Q 610 728 616 717 Q 626 693 565 566 C 552 539 558 534 578 557 Z" fill="lightgray" />
    
      <path d="M 588 520 Q 588 521 591 522 Q 631 537 735 557 Q 744 558 750 554 Q 760 550 761 532 Q 760 489 743 414 Q 742 396 724 398 L 681 410 Q 668 414 671 406 Q 671 399 691 379 Q 718 351 732 323 Q 739 314 748 318 Q 755 321 768 342 Q 789 373 793 408 Q 797 460 806 505 Q 807 533 818 545 Q 828 554 822 564 Q 815 574 783 593 Q 770 600 713 586 Q 710 586 579 556 C 550 549 560 509 588 520 Z" fill="lightgray" />
    
      <path d="M 601 476 Q 643 427 659 426 Q 668 425 672 438 Q 673 447 667 461 Q 660 473 643 480 Q 616 493 604 495 Q 598 496 597 488 Q 596 482 601 476 Z" fill="lightgray" />
    
      <path d="M 579 556 L 578 557 C 577 562 577 562 565 566 Q 556 572 547 575 Q 529 581 521 573 Q 515 567 523 557 Q 535 530 532 360 Q 532 294 518 241 Q 512 222 527 207 Q 545 192 567 205 Q 621 241 776 250 Q 827 256 843 242 Q 852 233 824 81 Q 817 38 797 11 Q 788 -1 764 2 L 702 18 Q 686 22 687 15 Q 687 9 696 2 Q 750 -49 769 -84 Q 779 -103 796 -94 Q 856 -60 867 -3 Q 883 75 896 162 Q 903 199 922 229 Q 935 245 923 257 Q 907 276 870 298 Q 849 310 822 298 Q 785 282 749 279 Q 700 273 597 254 Q 573 250 572 270 Q 575 486 588 520 C 593 547 593 547 579 556 Z" fill="lightgray" />
    
      <path d="M 612 97 Q 726 112 777 109 Q 796 108 801 116 Q 805 128 795 136 Q 768 157 731 170 Q 718 174 698 165 Q 554 126 413 111 Q 401 110 401 101 Q 401 91 418 80 Q 433 71 460 64 Q 469 61 483 69 Q 516 82 612 97 Z" fill="lightgray" />
    
    
      <clipPath id="make-me-a-hanzi-clip-0">
        <path d="M 324 708 Q 351 689 380 664 Q 393 654 408 655 Q 417 656 421 668 Q 424 681 414 709 Q 402 736 316 752 Q 301 753 296 751 Q 292 747 294 735 Q 298 725 324 708 Z" />
      </clipPath>
      <path clip-path="url(#make-me-a-hanzi-clip-0)" d="M 301 745 L 372 708 L 405 671" fill="none" id="make-me-a-hanzi-animation-0" stroke-dasharray="258 516" stroke-linecap="round" />
    
      <clipPath id="make-me-a-hanzi-clip-1">
        <path d="M 140 569 Q 128 568 126 561 Q 123 552 136 542 Q 172 521 205 530 Q 338 575 483 595 Q 496 596 497 604 Q 498 614 483 622 Q 461 632 440 628 Q 227 577 140 569 Z" />
      </clipPath>
      <path clip-path="url(#make-me-a-hanzi-clip-1)" d="M 136 557 L 194 552 L 434 608 L 487 606" fill="none" id="make-me-a-hanzi-animation-1" stroke-dasharray="486 972" stroke-linecap="round" />
    
      <clipPath id="make-me-a-hanzi-clip-2">
        <path d="M 240 498 Q 231 501 212 503 Q 202 504 200 500 Q 196 496 203 483 Q 225 447 243 386 Q 247 367 259 356 Q 274 340 277 353 Q 278 363 277 379 L 272 404 Q 260 459 257 476 C 254 494 254 494 240 498 Z" />
      </clipPath>
      <path clip-path="url(#make-me-a-hanzi-clip-2)" d="M 208 495 L 236 468 L 268 356" fill="none" id="make-me-a-hanzi-animation-2" stroke-dasharray="283 566" stroke-linecap="round" />
    
      <clipPath id="make-me-a-hanzi-clip-3">
        <path d="M 415 431 Q 431 477 446 490 Q 465 511 445 523 Q 391 553 384 550 Q 378 549 375 546 Q 335 519 240 498 C 211 491 229 466 257 476 Q 266 480 349 503 Q 376 510 383 501 L 372 434 C 367 404 405 403 415 431 Z" />
      </clipPath>
      <path clip-path="url(#make-me-a-hanzi-clip-3)" d="M 251 498 L 263 490 L 381 526 L 394 523 L 415 503 L 399 455 L 380 440" fill="none" id="make-me-a-hanzi-animation-3" stroke-dasharray="383 766" stroke-linecap="round" />
    
      <clipPath id="make-me-a-hanzi-clip-4">
        <path d="M 277 379 Q 283 378 290 380 Q 332 393 424 407 Q 433 408 433 416 Q 433 420 415 431 C 401 440 401 440 372 434 L 370 434 Q 316 416 272 404 C 243 396 247 381 277 379 Z" />
      </clipPath>
      <path clip-path="url(#make-me-a-hanzi-clip-4)" d="M 280 399 L 288 394 L 368 416 L 425 415" fill="none" id="make-me-a-hanzi-animation-4" stroke-dasharray="277 554" stroke-linecap="round" />
    
      <clipPath id="make-me-a-hanzi-clip-5">
        <path d="M 335 228 Q 426 291 447 295 Q 462 301 457 313 Q 454 326 403 353 Q 388 360 371 354 Q 325 335 253 311 Q 235 304 189 303 Q 171 303 178 288 Q 185 278 200 270 Q 225 258 250 275 Q 359 324 370 319 Q 379 315 377 305 Q 352 274 324 235 C 306 211 310 211 335 228 Z" />
      </clipPath>
      <path clip-path="url(#make-me-a-hanzi-clip-5)" d="M 185 294 L 202 287 L 235 287 L 344 330 L 371 336 L 391 332 L 408 313 L 406 308 L 345 249 L 342 239 L 334 238" fill="none" id="make-me-a-hanzi-animation-5" stroke-dasharray="479 958" stroke-linecap="round" />
    
      <clipPath id="make-me-a-hanzi-clip-6">
        <path d="M 361 189 Q 351 216 335 228 L 324 235 Q 317 239 309 242 Q 291 249 283 243 Q 273 239 284 227 Q 309 208 318 176 L 325 142 Q 337 54 312 2 Q 300 -17 275 -10 L 231 1 Q 221 5 225 -5 Q 228 -12 241 -23 Q 269 -51 278 -73 Q 285 -89 300 -87 Q 310 -86 334 -66 Q 397 -5 368 160 L 361 189 Z" />
      </clipPath>
      <path clip-path="url(#make-me-a-hanzi-clip-6)" d="M 287 235 L 320 216 L 338 188 L 353 106 L 348 25 L 338 -10 L 321 -34 L 304 -45 L 232 -6" fill="none" id="make-me-a-hanzi-animation-6" stroke-dasharray="532 1064" stroke-linecap="round" />
    
      <clipPath id="make-me-a-hanzi-clip-7">
        <path d="M 368 160 Q 380 166 394 171 Q 421 181 441 196 Q 453 203 453 211 Q 449 215 437 214 L 361 189 L 318 176 Q 239 154 151 127 Q 132 121 98 122 Q 86 121 84 112 Q 83 99 91 92 Q 112 77 141 60 Q 151 57 161 65 Q 215 102 325 142 L 368 160 Z" />
      </clipPath>
      <path clip-path="url(#make-me-a-hanzi-clip-7)" d="M 97 109 L 147 93 L 448 208" fill="none" id="make-me-a-hanzi-animation-7" stroke-dasharray="503 1006" stroke-linecap="round" />
    
      <clipPath id="make-me-a-hanzi-clip-8">
        <path d="M 578 557 L 662 653 Q 675 672 693 686 Q 709 699 696 713 Q 680 725 654 731 Q 630 738 620 732 Q 610 728 616 717 Q 626 693 565 566 C 552 539 558 534 578 557 Z" />
      </clipPath>
      <path clip-path="url(#make-me-a-hanzi-clip-8)" d="M 628 722 L 650 693 L 612 623 L 586 582 L 576 576 L 577 569" fill="none" id="make-me-a-hanzi-animation-8" stroke-dasharray="311 622" stroke-linecap="round" />
    
      <clipPath id="make-me-a-hanzi-clip-9">
        <path d="M 588 520 Q 588 521 591 522 Q 631 537 735 557 Q 744 558 750 554 Q 760 550 761 532 Q 760 489 743 414 Q 742 396 724 398 L 681 410 Q 668 414 671 406 Q 671 399 691 379 Q 718 351 732 323 Q 739 314 748 318 Q 755 321 768 342 Q 789 373 793 408 Q 797 460 806 505 Q 807 533 818 545 Q 828 554 822 564 Q 815 574 783 593 Q 770 600 713 586 Q 710 586 579 556 C 550 549 560 509 588 520 Z" />
      </clipPath>
      <path clip-path="url(#make-me-a-hanzi-clip-9)" d="M 593 530 L 601 545 L 727 574 L 761 574 L 788 554 L 767 405 L 752 374 L 744 368 L 722 376 L 677 405" fill="none" id="make-me-a-hanzi-animation-9" stroke-dasharray="614 1228" stroke-linecap="round" />
    
      <clipPath id="make-me-a-hanzi-clip-10">
        <path d="M 601 476 Q 643 427 659 426 Q 668 425 672 438 Q 673 447 667 461 Q 660 473 643 480 Q 616 493 604 495 Q 598 496 597 488 Q 596 482 601 476 Z" />
      </clipPath>
      <path clip-path="url(#make-me-a-hanzi-clip-10)" d="M 607 485 L 642 461 L 659 439" fill="none" id="make-me-a-hanzi-animation-10" stroke-dasharray="198 396" stroke-linecap="round" />
    
      <clipPath id="make-me-a-hanzi-clip-11">
        <path d="M 579 556 L 578 557 C 577 562 577 562 565 566 Q 556 572 547 575 Q 529 581 521 573 Q 515 567 523 557 Q 535 530 532 360 Q 532 294 518 241 Q 512 222 527 207 Q 545 192 567 205 Q 621 241 776 250 Q 827 256 843 242 Q 852 233 824 81 Q 817 38 797 11 Q 788 -1 764 2 L 702 18 Q 686 22 687 15 Q 687 9 696 2 Q 750 -49 769 -84 Q 779 -103 796 -94 Q 856 -60 867 -3 Q 883 75 896 162 Q 903 199 922 229 Q 935 245 923 257 Q 907 276 870 298 Q 849 310 822 298 Q 785 282 749 279 Q 700 273 597 254 Q 573 250 572 270 Q 575 486 588 520 C 593 547 593 547 579 556 Z" />
      </clipPath>
      <path clip-path="url(#make-me-a-hanzi-clip-11)" d="M 530 566 L 555 541 L 558 523 L 548 272 L 555 235 L 838 275 L 861 268 L 884 241 L 845 39 L 822 -19 L 795 -40 L 696 11" fill="none" id="make-me-a-hanzi-animation-11" stroke-dasharray="1229 2458" stroke-linecap="round" />
    
      <clipPath id="make-me-a-hanzi-clip-12">
        <path d="M 612 97 Q 726 112 777 109 Q 796 108 801 116 Q 805 128 795 136 Q 768 157 731 170 Q 718 174 698 165 Q 554 126 413 111 Q 401 110 401 101 Q 401 91 418 80 Q 433 71 460 64 Q 469 61 483 69 Q 516 82 612 97 Z" />
      </clipPath>
      <path clip-path="url(#make-me-a-hanzi-clip-12)" d="M 412 100 L 466 90 L 721 140 L 791 122" fill="none" id="make-me-a-hanzi-animation-12" stroke-dasharray="515 1030" stroke-linecap="round" />
    
  </g>
</svg>