<svg xmlns="http://www.w3.org/2000/svg" version="1.1" viewBox="0 0 1024 1024">
  <g stroke="lightgray" stroke-dasharray="1,1" stroke-width="1" transform="scale(4, 4)">
    <line x1="0" y1="0" x2="256" y2="256" />
    <line x1="256" y1="0" x2="0" y2="256" />
    <line x1="128" y1="0" x2="128" y2="256" />
    <line x1="0" y1="128" x2="256" y2="128" />
  </g>
  <g transform="scale(1.0, -1.0) translate(0.0, -816.50)">
    <style type="text/css">
      
        @keyframes keyframes0 {
          from {
            stroke: blue;
            stroke-dashoffset: 511;
            stroke-width: 128;
          }
          62% {
            animation-timing-function: step-end;
            stroke: blue;
            stroke-dashoffset: 0;
            stroke-width: 128;
          }
          to {
            stroke: black;
            stroke-width: 1024;
          }
        }
        #make-me-a-hanzi-animation-0 {
          animation: keyframes0 0.6658528645833334s both;
          animation-delay: 0s;
          animation-timing-function: linear;
        }
      
        @keyframes keyframes1 {
          from {
            stroke: blue;
            stroke-dashoffset: 359;
            stroke-width: 128;
          }
          54% {
            animation-timing-function: step-end;
            stroke: blue;
            stroke-dashoffset: 0;
            stroke-width: 128;
          }
          to {
            stroke: black;
            stroke-width: 1024;
          }
        }
        #make-me-a-hanzi-animation-1 {
          animation: keyframes1 0.5421549479166666s both;
          animation-delay: 0.6658528645833334s;
          animation-timing-function: linear;
        }
      
        @keyframes keyframes2 {
          from {
            stroke: blue;
            stroke-dashoffset: 332;
            stroke-width: 128;
          }
          52% {
            animation-timing-function: step-end;
            stroke: blue;
            stroke-dashoffset: 0;
            stroke-width: 128;
          }
          to {
            stroke: black;
            stroke-width: 1024;
          }
        }
        #make-me-a-hanzi-animation-2 {
          animation: keyframes2 0.5201822916666666s both;
          animation-delay: 1.2080078125s;
          animation-timing-function: linear;
        }
      
        @keyframes keyframes3 {
          from {
            stroke: blue;
            stroke-dashoffset: 430;
            stroke-width: 128;
          }
          58% {
            animation-timing-function: step-end;
            stroke: blue;
            stroke-dashoffset: 0;
            stroke-width: 128;
          }
          to {
            stroke: black;
            stroke-width: 1024;
          }
        }
        #make-me-a-hanzi-animation-3 {
          animation: keyframes3 0.5999348958333334s both;
          animation-delay: 1.7281901041666665s;
          animation-timing-function: linear;
        }
      
        @keyframes keyframes4 {
          from {
            stroke: blue;
            stroke-dashoffset: 462;
            stroke-width: 128;
          }
          60% {
            animation-timing-function: step-end;
            stroke: blue;
            stroke-dashoffset: 0;
            stroke-width: 128;
          }
          to {
            stroke: black;
            stroke-width: 1024;
          }
        }
        #make-me-a-hanzi-animation-4 {
          animation: keyframes4 0.6259765625s both;
          animation-delay: 2.328125s;
          animation-timing-function: linear;
        }
      
        @keyframes keyframes5 {
          from {
            stroke: blue;
            stroke-dashoffset: 485;
            stroke-width: 128;
          }
          61% {
            animation-timing-function: step-end;
            stroke: blue;
            stroke-dashoffset: 0;
            stroke-width: 128;
          }
          to {
            stroke: black;
            stroke-width: 1024;
          }
        }
        #make-me-a-hanzi-animation-5 {
          animation: keyframes5 0.6446940104166666s both;
          animation-delay: 2.9541015625s;
          animation-timing-function: linear;
        }
      
        @keyframes keyframes6 {
          from {
            stroke: blue;
            stroke-dashoffset: 674;
            stroke-width: 128;
          }
          69% {
            animation-timing-function: step-end;
            stroke: blue;
            stroke-dashoffset: 0;
            stroke-width: 128;
          }
          to {
            stroke: black;
            stroke-width: 1024;
          }
        }
        #make-me-a-hanzi-animation-6 {
          animation: keyframes6 0.7985026041666666s both;
          animation-delay: 3.5987955729166665s;
          animation-timing-function: linear;
        }
      
        @keyframes keyframes7 {
          from {
            stroke: blue;
            stroke-dashoffset: 546;
            stroke-width: 128;
          }
          64% {
            animation-timing-function: step-end;
            stroke: blue;
            stroke-dashoffset: 0;
            stroke-width: 128;
          }
          to {
            stroke: black;
            stroke-width: 1024;
          }
        }
        #make-me-a-hanzi-animation-7 {
          animation: keyframes7 0.6943359375s both;
          animation-delay: 4.397298177083333s;
          animation-timing-function: linear;
        }
      
        @keyframes keyframes8 {
          from {
            stroke: blue;
            stroke-dashoffset: 653;
            stroke-width: 128;
          }
          68% {
            animation-timing-function: step-end;
            stroke: blue;
            stroke-dashoffset: 0;
            stroke-width: 128;
          }
          to {
            stroke: black;
            stroke-width: 1024;
          }
        }
        #make-me-a-hanzi-animation-8 {
          animation: keyframes8 0.7814127604166666s both;
          animation-delay: 5.091634114583333s;
          animation-timing-function: linear;
        }
      
        @keyframes keyframes9 {
          from {
            stroke: blue;
            stroke-dashoffset: 441;
            stroke-width: 128;
          }
          59% {
            animation-timing-function: step-end;
            stroke: blue;
            stroke-dashoffset: 0;
            stroke-width: 128;
          }
          to {
            stroke: black;
            stroke-width: 1024;
          }
        }
        #make-me-a-hanzi-animation-9 {
          animation: keyframes9 0.60888671875s both;
          animation-delay: 5.873046875s;
          animation-timing-function: linear;
        }
      
        @keyframes keyframes10 {
          from {
            stroke: blue;
            stroke-dashoffset: 434;
            stroke-width: 128;
          }
          59% {
            animation-timing-function: step-end;
            stroke: blue;
            stroke-dashoffset: 0;
            stroke-width: 128;
          }
          to {
            stroke: black;
            stroke-width: 1024;
          }
        }
        #make-me-a-hanzi-animation-10 {
          animation: keyframes10 0.6031901041666666s both;
          animation-delay: 6.48193359375s;
          animation-timing-function: linear;
        }
      
        @keyframes keyframes11 {
          from {
            stroke: blue;
            stroke-dashoffset: 738;
            stroke-width: 128;
          }
          71% {
            animation-timing-function: step-end;
            stroke: blue;
            stroke-dashoffset: 0;
            stroke-width: 128;
          }
          to {
            stroke: black;
            stroke-width: 1024;
          }
        }
        #make-me-a-hanzi-animation-11 {
          animation: keyframes11 0.8505859375s both;
          animation-delay: 7.085123697916667s;
          animation-timing-function: linear;
        }
      
        @keyframes keyframes12 {
          from {
            stroke: blue;
            stroke-dashoffset: 324;
            stroke-width: 128;
          }
          51% {
            animation-timing-function: step-end;
            stroke: blue;
            stroke-dashoffset: 0;
            stroke-width: 128;
          }
          to {
            stroke: black;
            stroke-width: 1024;
          }
        }
        #make-me-a-hanzi-animation-12 {
          animation: keyframes12 0.513671875s both;
          animation-delay: 7.935709635416667s;
          animation-timing-function: linear;
        }
      
        @keyframes keyframes13 {
          from {
            stroke: blue;
            stroke-dashoffset: 1325;
            stroke-width: 128;
          }
          81% {
            animation-timing-function: step-end;
            stroke: blue;
            stroke-dashoffset: 0;
            stroke-width: 128;
          }
          to {
            stroke: black;
            stroke-width: 1024;
          }
        }
        #make-me-a-hanzi-animation-13 {
          animation: keyframes13 1.3282877604166667s both;
          animation-delay: 8.449381510416668s;
          animation-timing-function: linear;
        }
      
        @keyframes keyframes14 {
          from {
            stroke: blue;
            stroke-dashoffset: 546;
            stroke-width: 128;
          }
          64% {
            animation-timing-function: step-end;
            stroke: blue;
            stroke-dashoffset: 0;
            stroke-width: 128;
          }
          to {
            stroke: black;
            stroke-width: 1024;
          }
        }
        #make-me-a-hanzi-animation-14 {
          animation: keyframes14 0.6943359375s both;
          animation-delay: 9.777669270833334s;
          animation-timing-function: linear;
        }
      
    </style>
    
      <path d="M 304 662 Q 265 623 172 575 Q 168 566 173 564 Q 212 564 315 607 Q 330 623 399 638 Q 415 639 418 647 Q 421 657 410 667 Q 358 703 322 699 Q 315 695 315 685 Q 316 672 304 662 Z" fill="lightgray" />
    
      <path d="M 178 487 Q 196 468 214 446 Q 224 436 236 435 Q 245 435 249 445 Q 253 455 249 479 Q 242 506 177 524 Q 165 528 160 527 Q 156 524 156 514 Q 157 505 178 487 Z" fill="lightgray" />
    
      <path d="M 276 526 Q 297 493 320 480 Q 330 476 337 485 Q 341 492 341 505 Q 337 532 300 546 Q 276 555 269 553 Q 265 553 266 545 Q 266 536 276 526 Z" fill="lightgray" />
    
      <path d="M 420 552 Q 399 515 355 456 Q 351 449 355 443 Q 362 442 369 447 Q 448 511 487 537 Q 503 543 498 552 Q 492 565 474 581 Q 456 597 436 597 Q 423 596 424 579 Q 427 566 420 552 Z" fill="lightgray" />
    
      <path d="M 232 370 Q 236 377 242 384 Q 249 394 239 405 Q 202 432 185 429 Q 176 428 178 415 Q 187 361 127 284 Q 120 281 101 254 Q 94 241 106 245 Q 148 251 200 325 Q 206 338 216 348 L 232 370 Z" fill="lightgray" />
    
      <path d="M 338 350 Q 380 362 424 371 Q 452 378 456 382 Q 463 389 459 397 Q 452 407 425 414 Q 398 418 371 406 Q 340 394 305 385 L 232 370 C 203 364 189 361 216 348 Q 243 333 291 339 L 338 350 Z" fill="lightgray" />
    
      <path d="M 341 217 Q 402 230 477 243 Q 493 246 494 253 Q 495 266 477 274 Q 450 286 428 280 Q 379 268 342 258 L 298 248 Q 154 215 80 206 Q 67 205 65 197 Q 62 187 77 175 Q 113 151 154 162 L 173 168 Q 245 195 298 207 L 341 217 Z" fill="lightgray" />
    
      <path d="M 336 65 Q 337 147 341 217 L 342 258 L 344 295 Q 347 340 344 345 Q 341 348 338 350 C 317 371 286 369 291 339 Q 294 330 298 248 L 298 207 L 298 54 C 298 24 336 35 336 65 Z" fill="lightgray" />
    
      <path d="M 414 82 Q 371 76 336 65 L 298 54 Q 255 44 219 30 Q 206 26 208 43 Q 220 127 212 140 Q 199 155 178 167 Q 175 168 173 168 C 150 178 150 178 154 162 Q 153 158 157 150 Q 190 72 148 14 Q 132 -4 138 -16 Q 148 -29 163 -37 Q 176 -44 184 -36 Q 209 -6 346 35 Q 391 48 410 48 C 440 50 444 86 414 82 Z" fill="lightgray" />
    
      <path d="M 410 48 Q 411 45 413 41 Q 417 25 426 14 Q 433 7 441 14 Q 453 35 458 94 Q 458 131 466 166 Q 472 184 456 193 Q 443 202 430 209 Q 420 213 413 209 Q 406 205 409 192 Q 419 164 414 82 L 410 48 Z" fill="lightgray" />
    
      <path d="M 578 556 Q 600 574 664 638 Q 679 656 698 669 Q 714 682 703 695 Q 688 708 662 717 Q 640 724 628 720 Q 618 717 623 705 Q 629 684 580 591 L 565 563 C 551 537 555 537 578 556 Z" fill="lightgray" />
    
      <path d="M 591 510 Q 600 519 727 550 Q 736 551 742 547 Q 752 543 753 524 Q 752 481 735 402 Q 732 383 713 385 Q 688 389 669 395 Q 656 396 659 390 Q 660 383 681 365 Q 709 338 724 311 Q 731 302 741 306 Q 748 309 761 330 Q 779 357 788 419 Q 794 522 810 537 Q 820 546 815 556 Q 808 566 776 586 Q 757 596 586 550 C 557 542 564 497 591 510 Z" fill="lightgray" />
    
      <path d="M 612 476 Q 646 427 663 423 Q 672 422 677 434 Q 678 443 674 457 Q 662 481 617 494 Q 610 495 609 488 Q 608 482 612 476 Z" fill="lightgray" />
    
      <path d="M 586 550 Q 582 554 578 556 L 565 563 Q 559 567 551 570 Q 533 576 525 568 Q 519 562 527 552 Q 539 525 541 382 Q 541 292 530 240 Q 524 221 538 207 Q 556 192 577 204 Q 628 234 773 240 Q 818 240 830 228 Q 842 216 827 171 Q 823 120 814 67 Q 810 25 791 -1 Q 782 -13 760 -10 L 698 6 Q 682 10 683 3 Q 683 -3 692 -10 Q 746 -61 765 -96 Q 775 -115 792 -105 Q 852 -74 860 -15 Q 873 61 883 146 Q 890 183 909 214 Q 922 230 911 243 Q 893 264 857 284 Q 836 297 808 284 Q 705 269 601 251 Q 579 252 583 297 Q 582 352 583 408 Q 582 472 591 510 C 596 540 596 544 586 550 Z" fill="lightgray" />
    
      <path d="M 642 92 Q 658 93 674 96 Q 726 100 759 98 Q 777 97 781 104 Q 785 114 775 123 Q 721 163 671 144 Q 527 114 486 112 Q 476 111 476 102 Q 476 93 491 84 Q 521 68 562 78 Q 580 84 642 92 Z" fill="lightgray" />
    
    
      <clipPath id="make-me-a-hanzi-clip-0">
        <path d="M 304 662 Q 265 623 172 575 Q 168 566 173 564 Q 212 564 315 607 Q 330 623 399 638 Q 415 639 418 647 Q 421 657 410 667 Q 358 703 322 699 Q 315 695 315 685 Q 316 672 304 662 Z" />
      </clipPath>
      <path clip-path="url(#make-me-a-hanzi-clip-0)" d="M 407 651 L 346 661 L 279 613 L 177 570" fill="none" id="make-me-a-hanzi-animation-0" stroke-dasharray="383 766" stroke-linecap="round" />
    
      <clipPath id="make-me-a-hanzi-clip-1">
        <path d="M 178 487 Q 196 468 214 446 Q 224 436 236 435 Q 245 435 249 445 Q 253 455 249 479 Q 242 506 177 524 Q 165 528 160 527 Q 156 524 156 514 Q 157 505 178 487 Z" />
      </clipPath>
      <path clip-path="url(#make-me-a-hanzi-clip-1)" d="M 163 519 L 210 487 L 236 449" fill="none" id="make-me-a-hanzi-animation-1" stroke-dasharray="231 462" stroke-linecap="round" />
    
      <clipPath id="make-me-a-hanzi-clip-2">
        <path d="M 276 526 Q 297 493 320 480 Q 330 476 337 485 Q 341 492 341 505 Q 337 532 300 546 Q 276 555 269 553 Q 265 553 266 545 Q 266 536 276 526 Z" />
      </clipPath>
      <path clip-path="url(#make-me-a-hanzi-clip-2)" d="M 274 546 L 310 517 L 326 492" fill="none" id="make-me-a-hanzi-animation-2" stroke-dasharray="204 408" stroke-linecap="round" />
    
      <clipPath id="make-me-a-hanzi-clip-3">
        <path d="M 420 552 Q 399 515 355 456 Q 351 449 355 443 Q 362 442 369 447 Q 448 511 487 537 Q 503 543 498 552 Q 492 565 474 581 Q 456 597 436 597 Q 423 596 424 579 Q 427 566 420 552 Z" />
      </clipPath>
      <path clip-path="url(#make-me-a-hanzi-clip-3)" d="M 437 583 L 455 554 L 361 450" fill="none" id="make-me-a-hanzi-animation-3" stroke-dasharray="302 604" stroke-linecap="round" />
    
      <clipPath id="make-me-a-hanzi-clip-4">
        <path d="M 232 370 Q 236 377 242 384 Q 249 394 239 405 Q 202 432 185 429 Q 176 428 178 415 Q 187 361 127 284 Q 120 281 101 254 Q 94 241 106 245 Q 148 251 200 325 Q 206 338 216 348 L 232 370 Z" />
      </clipPath>
      <path clip-path="url(#make-me-a-hanzi-clip-4)" d="M 189 418 L 209 389 L 195 357 L 157 296 L 110 253" fill="none" id="make-me-a-hanzi-animation-4" stroke-dasharray="334 668" stroke-linecap="round" />
    
      <clipPath id="make-me-a-hanzi-clip-5">
        <path d="M 338 350 Q 380 362 424 371 Q 452 378 456 382 Q 463 389 459 397 Q 452 407 425 414 Q 398 418 371 406 Q 340 394 305 385 L 232 370 C 203 364 189 361 216 348 Q 243 333 291 339 L 338 350 Z" />
      </clipPath>
      <path clip-path="url(#make-me-a-hanzi-clip-5)" d="M 224 351 L 316 366 L 406 392 L 448 391" fill="none" id="make-me-a-hanzi-animation-5" stroke-dasharray="357 714" stroke-linecap="round" />
    
      <clipPath id="make-me-a-hanzi-clip-6">
        <path d="M 341 217 Q 402 230 477 243 Q 493 246 494 253 Q 495 266 477 274 Q 450 286 428 280 Q 379 268 342 258 L 298 248 Q 154 215 80 206 Q 67 205 65 197 Q 62 187 77 175 Q 113 151 154 162 L 173 168 Q 245 195 298 207 L 341 217 Z" />
      </clipPath>
      <path clip-path="url(#make-me-a-hanzi-clip-6)" d="M 76 193 L 130 185 L 409 254 L 445 260 L 484 256" fill="none" id="make-me-a-hanzi-animation-6" stroke-dasharray="546 1092" stroke-linecap="round" />
    
      <clipPath id="make-me-a-hanzi-clip-7">
        <path d="M 336 65 Q 337 147 341 217 L 342 258 L 344 295 Q 347 340 344 345 Q 341 348 338 350 C 317 371 286 369 291 339 Q 294 330 298 248 L 298 207 L 298 54 C 298 24 336 35 336 65 Z" />
      </clipPath>
      <path clip-path="url(#make-me-a-hanzi-clip-7)" d="M 297 338 L 319 319 L 320 305 L 318 90 L 303 62" fill="none" id="make-me-a-hanzi-animation-7" stroke-dasharray="418 836" stroke-linecap="round" />
    
      <clipPath id="make-me-a-hanzi-clip-8">
        <path d="M 414 82 Q 371 76 336 65 L 298 54 Q 255 44 219 30 Q 206 26 208 43 Q 220 127 212 140 Q 199 155 178 167 Q 175 168 173 168 C 150 178 150 178 154 162 Q 153 158 157 150 Q 190 72 148 14 Q 132 -4 138 -16 Q 148 -29 163 -37 Q 176 -44 184 -36 Q 209 -6 346 35 Q 391 48 410 48 C 440 50 444 86 414 82 Z" />
      </clipPath>
      <path clip-path="url(#make-me-a-hanzi-clip-8)" d="M 161 157 L 176 149 L 192 121 L 185 8 L 223 11 L 392 63 L 406 77" fill="none" id="make-me-a-hanzi-animation-8" stroke-dasharray="525 1050" stroke-linecap="round" />
    
      <clipPath id="make-me-a-hanzi-clip-9">
        <path d="M 410 48 Q 411 45 413 41 Q 417 25 426 14 Q 433 7 441 14 Q 453 35 458 94 Q 458 131 466 166 Q 472 184 456 193 Q 443 202 430 209 Q 420 213 413 209 Q 406 205 409 192 Q 419 164 414 82 L 410 48 Z" />
      </clipPath>
      <path clip-path="url(#make-me-a-hanzi-clip-9)" d="M 420 200 L 440 172 L 431 52 L 434 22" fill="none" id="make-me-a-hanzi-animation-9" stroke-dasharray="313 626" stroke-linecap="round" />
    
      <clipPath id="make-me-a-hanzi-clip-10">
        <path d="M 578 556 Q 600 574 664 638 Q 679 656 698 669 Q 714 682 703 695 Q 688 708 662 717 Q 640 724 628 720 Q 618 717 623 705 Q 629 684 580 591 L 565 563 C 551 537 555 537 578 556 Z" />
      </clipPath>
      <path clip-path="url(#make-me-a-hanzi-clip-10)" d="M 634 710 L 657 680 L 575 566" fill="none" id="make-me-a-hanzi-animation-10" stroke-dasharray="306 612" stroke-linecap="round" />
    
      <clipPath id="make-me-a-hanzi-clip-11">
        <path d="M 591 510 Q 600 519 727 550 Q 736 551 742 547 Q 752 543 753 524 Q 752 481 735 402 Q 732 383 713 385 Q 688 389 669 395 Q 656 396 659 390 Q 660 383 681 365 Q 709 338 724 311 Q 731 302 741 306 Q 748 309 761 330 Q 779 357 788 419 Q 794 522 810 537 Q 820 546 815 556 Q 808 566 776 586 Q 757 596 586 550 C 557 542 564 497 591 510 Z" />
      </clipPath>
      <path clip-path="url(#make-me-a-hanzi-clip-11)" d="M 595 519 L 611 538 L 722 567 L 756 565 L 779 547 L 767 433 L 748 368 L 736 355 L 665 390" fill="none" id="make-me-a-hanzi-animation-11" stroke-dasharray="610 1220" stroke-linecap="round" />
    
      <clipPath id="make-me-a-hanzi-clip-12">
        <path d="M 612 476 Q 646 427 663 423 Q 672 422 677 434 Q 678 443 674 457 Q 662 481 617 494 Q 610 495 609 488 Q 608 482 612 476 Z" />
      </clipPath>
      <path clip-path="url(#make-me-a-hanzi-clip-12)" d="M 618 484 L 651 457 L 664 435" fill="none" id="make-me-a-hanzi-animation-12" stroke-dasharray="196 392" stroke-linecap="round" />
    
      <clipPath id="make-me-a-hanzi-clip-13">
        <path d="M 586 550 Q 582 554 578 556 L 565 563 Q 559 567 551 570 Q 533 576 525 568 Q 519 562 527 552 Q 539 525 541 382 Q 541 292 530 240 Q 524 221 538 207 Q 556 192 577 204 Q 628 234 773 240 Q 818 240 830 228 Q 842 216 827 171 Q 823 120 814 67 Q 810 25 791 -1 Q 782 -13 760 -10 L 698 6 Q 682 10 683 3 Q 683 -3 692 -10 Q 746 -61 765 -96 Q 775 -115 792 -105 Q 852 -74 860 -15 Q 873 61 883 146 Q 890 183 909 214 Q 922 230 911 243 Q 893 264 857 284 Q 836 297 808 284 Q 705 269 601 251 Q 579 252 583 297 Q 582 352 583 408 Q 582 472 591 510 C 596 540 596 544 586 550 Z" />
      </clipPath>
      <path clip-path="url(#make-me-a-hanzi-clip-13)" d="M 534 561 L 560 535 L 563 510 L 559 269 L 566 234 L 607 234 L 729 256 L 832 261 L 859 245 L 872 226 L 853 146 L 837 25 L 813 -34 L 791 -52 L 692 -1" fill="none" id="make-me-a-hanzi-animation-13" stroke-dasharray="1197 2394" stroke-linecap="round" />
    
      <clipPath id="make-me-a-hanzi-clip-14">
        <path d="M 642 92 Q 658 93 674 96 Q 726 100 759 98 Q 777 97 781 104 Q 785 114 775 123 Q 721 163 671 144 Q 527 114 486 112 Q 476 111 476 102 Q 476 93 491 84 Q 521 68 562 78 Q 580 84 642 92 Z" />
      </clipPath>
      <path clip-path="url(#make-me-a-hanzi-clip-14)" d="M 487 101 L 526 95 L 696 124 L 759 116 L 772 109" fill="none" id="make-me-a-hanzi-animation-14" stroke-dasharray="418 836" stroke-linecap="round" />
    
  </g>
</svg>