<svg xmlns="http://www.w3.org/2000/svg" version="1.1" viewBox="0 0 1024 1024">
  <g stroke="lightgray" stroke-dasharray="1,1" stroke-width="1" transform="scale(4, 4)">
    <line x1="0" y1="0" x2="256" y2="256" />
    <line x1="256" y1="0" x2="0" y2="256" />
    <line x1="128" y1="0" x2="128" y2="256" />
    <line x1="0" y1="128" x2="256" y2="128" />
  </g>
  <g transform="scale(1.0, -1.0) translate(0.0, -832.50)">
    <style type="text/css">
      
        @keyframes keyframes0 {
          from {
            stroke: blue;
            stroke-dashoffset: 383;
            stroke-width: 128;
          }
          55% {
            animation-timing-function: step-end;
            stroke: blue;
            stroke-dashoffset: 0;
            stroke-width: 128;
          }
          to {
            stroke: black;
            stroke-width: 1024;
          }
        }
        #make-me-a-hanzi-animation-0 {
          animation: keyframes0 0.5616861979166666s both;
          animation-delay: 0s;
          animation-timing-function: linear;
        }
      
        @keyframes keyframes1 {
          from {
            stroke: blue;
            stroke-dashoffset: 614;
            stroke-width: 128;
          }
          67% {
            animation-timing-function: step-end;
            stroke: blue;
            stroke-dashoffset: 0;
            stroke-width: 128;
          }
          to {
            stroke: black;
            stroke-width: 1024;
          }
        }
        #make-me-a-hanzi-animation-1 {
          animation: keyframes1 0.7496744791666666s both;
          animation-delay: 0.5616861979166666s;
          animation-timing-function: linear;
        }
      
        @keyframes keyframes2 {
          from {
            stroke: blue;
            stroke-dashoffset: 889;
            stroke-width: 128;
          }
          74% {
            animation-timing-function: step-end;
            stroke: blue;
            stroke-dashoffset: 0;
            stroke-width: 128;
          }
          to {
            stroke: black;
            stroke-width: 1024;
          }
        }
        #make-me-a-hanzi-animation-2 {
          animation: keyframes2 0.9734700520833334s both;
          animation-delay: 1.3113606770833333s;
          animation-timing-function: linear;
        }
      
        @keyframes keyframes3 {
          from {
            stroke: blue;
            stroke-dashoffset: 687;
            stroke-width: 128;
          }
          69% {
            animation-timing-function: step-end;
            stroke: blue;
            stroke-dashoffset: 0;
            stroke-width: 128;
          }
          to {
            stroke: black;
            stroke-width: 1024;
          }
        }
        #make-me-a-hanzi-animation-3 {
          animation: keyframes3 0.80908203125s both;
          animation-delay: 2.2848307291666665s;
          animation-timing-function: linear;
        }
      
        @keyframes keyframes4 {
          from {
            stroke: blue;
            stroke-dashoffset: 343;
            stroke-width: 128;
          }
          53% {
            animation-timing-function: step-end;
            stroke: blue;
            stroke-dashoffset: 0;
            stroke-width: 128;
          }
          to {
            stroke: black;
            stroke-width: 1024;
          }
        }
        #make-me-a-hanzi-animation-4 {
          animation: keyframes4 0.5291341145833334s both;
          animation-delay: 3.0939127604166665s;
          animation-timing-function: linear;
        }
      
        @keyframes keyframes5 {
          from {
            stroke: blue;
            stroke-dashoffset: 445;
            stroke-width: 128;
          }
          59% {
            animation-timing-function: step-end;
            stroke: blue;
            stroke-dashoffset: 0;
            stroke-width: 128;
          }
          to {
            stroke: black;
            stroke-width: 1024;
          }
        }
        #make-me-a-hanzi-animation-5 {
          animation: keyframes5 0.6121419270833334s both;
          animation-delay: 3.623046875s;
          animation-timing-function: linear;
        }
      
        @keyframes keyframes6 {
          from {
            stroke: blue;
            stroke-dashoffset: 416;
            stroke-width: 128;
          }
          58% {
            animation-timing-function: step-end;
            stroke: blue;
            stroke-dashoffset: 0;
            stroke-width: 128;
          }
          to {
            stroke: black;
            stroke-width: 1024;
          }
        }
        #make-me-a-hanzi-animation-6 {
          animation: keyframes6 0.5885416666666666s both;
          animation-delay: 4.235188802083333s;
          animation-timing-function: linear;
        }
      
        @keyframes keyframes7 {
          from {
            stroke: blue;
            stroke-dashoffset: 429;
            stroke-width: 128;
          }
          58% {
            animation-timing-function: step-end;
            stroke: blue;
            stroke-dashoffset: 0;
            stroke-width: 128;
          }
          to {
            stroke: black;
            stroke-width: 1024;
          }
        }
        #make-me-a-hanzi-animation-7 {
          animation: keyframes7 0.59912109375s both;
          animation-delay: 4.82373046875s;
          animation-timing-function: linear;
        }
      
        @keyframes keyframes8 {
          from {
            stroke: blue;
            stroke-dashoffset: 490;
            stroke-width: 128;
          }
          61% {
            animation-timing-function: step-end;
            stroke: blue;
            stroke-dashoffset: 0;
            stroke-width: 128;
          }
          to {
            stroke: black;
            stroke-width: 1024;
          }
        }
        #make-me-a-hanzi-animation-8 {
          animation: keyframes8 0.6487630208333334s both;
          animation-delay: 5.4228515625s;
          animation-timing-function: linear;
        }
      
        @keyframes keyframes9 {
          from {
            stroke: blue;
            stroke-dashoffset: 468;
            stroke-width: 128;
          }
          60% {
            animation-timing-function: step-end;
            stroke: blue;
            stroke-dashoffset: 0;
            stroke-width: 128;
          }
          to {
            stroke: black;
            stroke-width: 1024;
          }
        }
        #make-me-a-hanzi-animation-9 {
          animation: keyframes9 0.630859375s both;
          animation-delay: 6.071614583333333s;
          animation-timing-function: linear;
        }
      
        @keyframes keyframes10 {
          from {
            stroke: blue;
            stroke-dashoffset: 449;
            stroke-width: 128;
          }
          59% {
            animation-timing-function: step-end;
            stroke: blue;
            stroke-dashoffset: 0;
            stroke-width: 128;
          }
          to {
            stroke: black;
            stroke-width: 1024;
          }
        }
        #make-me-a-hanzi-animation-10 {
          animation: keyframes10 0.6153971354166666s both;
          animation-delay: 6.702473958333333s;
          animation-timing-function: linear;
        }
      
        @keyframes keyframes11 {
          from {
            stroke: blue;
            stroke-dashoffset: 743;
            stroke-width: 128;
          }
          71% {
            animation-timing-function: step-end;
            stroke: blue;
            stroke-dashoffset: 0;
            stroke-width: 128;
          }
          to {
            stroke: black;
            stroke-width: 1024;
          }
        }
        #make-me-a-hanzi-animation-11 {
          animation: keyframes11 0.8546549479166666s both;
          animation-delay: 7.31787109375s;
          animation-timing-function: linear;
        }
      
        @keyframes keyframes12 {
          from {
            stroke: blue;
            stroke-dashoffset: 322;
            stroke-width: 128;
          }
          51% {
            animation-timing-function: step-end;
            stroke: blue;
            stroke-dashoffset: 0;
            stroke-width: 128;
          }
          to {
            stroke: black;
            stroke-width: 1024;
          }
        }
        #make-me-a-hanzi-animation-12 {
          animation: keyframes12 0.5120442708333334s both;
          animation-delay: 8.172526041666666s;
          animation-timing-function: linear;
        }
      
        @keyframes keyframes13 {
          from {
            stroke: blue;
            stroke-dashoffset: 1351;
            stroke-width: 128;
          }
          81% {
            animation-timing-function: step-end;
            stroke: blue;
            stroke-dashoffset: 0;
            stroke-width: 128;
          }
          to {
            stroke: black;
            stroke-width: 1024;
          }
        }
        #make-me-a-hanzi-animation-13 {
          animation: keyframes13 1.3494466145833333s both;
          animation-delay: 8.6845703125s;
          animation-timing-function: linear;
        }
      
        @keyframes keyframes14 {
          from {
            stroke: blue;
            stroke-dashoffset: 536;
            stroke-width: 128;
          }
          64% {
            animation-timing-function: step-end;
            stroke: blue;
            stroke-dashoffset: 0;
            stroke-width: 128;
          }
          to {
            stroke: black;
            stroke-width: 1024;
          }
        }
        #make-me-a-hanzi-animation-14 {
          animation: keyframes14 0.6861979166666666s both;
          animation-delay: 10.034016927083334s;
          animation-timing-function: linear;
        }
      
    </style>
    
      <path d="M 202 534 Q 190 552 177 562 Q 174 566 169 562 Q 165 559 164 549 Q 168 527 149 482 Q 140 467 142 451 Q 145 435 153 421 Q 160 411 165 419 Q 175 422 187 457 Q 196 482 208 509 C 212 519 212 519 202 534 Z" fill="lightgray" />
    
      <path d="M 341 545 Q 413 569 435 566 Q 448 565 449 559 Q 449 555 425 509 Q 421 499 425 497 Q 429 494 441 501 Q 478 526 510 533 Q 535 540 535 546 Q 534 553 483 590 Q 465 605 405 586 Q 380 583 350 572 L 300 560 Q 270 554 202 534 C 173 526 178 513 208 509 Q 224 505 239 510 Q 261 520 290 529 L 341 545 Z" fill="lightgray" />
    
      <path d="M 259 353 Q 311 459 332 515 Q 335 527 341 545 L 350 572 Q 372 639 390 662 Q 400 675 395 685 Q 380 710 337 723 Q 324 727 308 721 Q 298 712 307 702 Q 322 686 324 667 Q 327 645 300 560 L 290 529 Q 263 448 230 384 L 208 346 Q 168 283 81 187 Q 71 174 82 172 Q 86 171 98 178 Q 170 224 223 296 L 259 353 Z" fill="lightgray" />
    
      <path d="M 263 107 Q 263 269 270 310 Q 277 340 259 353 L 230 384 Q 223 391 213 395 Q 203 396 200 390 Q 193 374 208 346 L 223 296 Q 223 295 224 292 Q 224 142 200 40 Q 190 -2 219 -44 Q 220 -47 223 -49 Q 239 -64 250 -39 Q 262 -3 263 78 L 263 107 Z" fill="lightgray" />
    
      <path d="M 364 458 Q 409 422 420 422 Q 427 423 430 432 Q 431 442 425 462 Q 419 477 359 491 Q 349 492 344 490 Q 340 487 342 479 Q 345 472 364 458 Z" fill="lightgray" />
    
      <path d="M 389 365 Q 423 375 463 385 Q 485 392 488 395 Q 495 401 491 407 Q 485 416 463 420 Q 441 423 418 413 Q 393 403 366 394 Q 336 387 300 381 Q 273 374 294 363 Q 321 350 359 357 L 389 365 Z" fill="lightgray" />
    
      <path d="M 415 274 Q 439 280 462 283 Q 481 287 473 298 Q 463 310 443 312 Q 431 313 417 310 L 369 296 Q 335 286 305 275 Q 292 271 309 259 Q 316 255 332 257 L 369 265 L 415 274 Z" fill="lightgray" />
    
      <path d="M 408 191 Q 436 198 466 203 Q 485 207 477 218 Q 467 230 446 232 Q 433 233 411 228 L 368 214 L 297 191 Q 284 187 301 175 Q 308 172 368 183 L 408 191 Z" fill="lightgray" />
    
      <path d="M 404 137 Q 405 165 408 191 L 411 228 Q 412 253 415 274 L 417 310 Q 418 314 418 318 Q 425 333 417 341 Q 404 357 389 365 C 363 381 349 385 359 357 Q 368 336 369 296 L 369 265 Q 369 244 368 214 L 368 183 Q 367 159 367 127 C 367 97 403 107 404 137 Z" fill="lightgray" />
    
      <path d="M 367 127 Q 316 118 263 107 C 234 101 235 88 263 78 Q 275 72 293 77 Q 353 92 472 111 Q 479 110 486 120 Q 487 129 469 136 Q 448 151 404 137 L 367 127 Z" fill="lightgray" />
    
      <path d="M 596 566 Q 702 698 710 703 Q 726 716 712 730 Q 696 740 670 747 Q 646 753 636 747 Q 626 743 632 732 Q 642 711 593 601 Q 587 591 581 576 C 569 548 577 543 596 566 Z" fill="lightgray" />
    
      <path d="M 605 520 L 613 522 Q 647 538 734 565 Q 741 566 747 563 Q 759 559 758 539 Q 757 494 739 413 Q 736 392 717 395 Q 695 399 677 403 Q 664 406 667 398 Q 668 389 690 370 Q 714 343 727 316 Q 734 307 744 311 Q 751 314 765 336 Q 783 363 797 449 Q 809 539 820 551 Q 830 560 825 571 Q 818 581 785 604 Q 772 613 719 597 Q 695 597 601 563 C 573 553 577 510 605 520 Z" fill="lightgray" />
    
      <path d="M 629 475 Q 663 430 682 426 Q 692 425 697 438 Q 698 448 692 463 Q 676 488 633 495 Q 626 496 625 488 Q 624 482 629 475 Z" fill="lightgray" />
    
      <path d="M 585 198 Q 636 235 792 247 Q 823 251 836 239 Q 846 230 818 75 Q 811 32 790 3 Q 780 -10 754 -7 L 694 6 Q 678 10 679 3 Q 679 -3 688 -10 Q 743 -59 762 -93 Q 772 -112 789 -102 Q 846 -69 860 -10 Q 878 69 891 158 Q 898 195 917 226 Q 930 242 918 255 Q 900 274 864 296 Q 843 308 815 295 Q 605 244 596 255 Q 593 259 592 266 Q 592 470 605 520 C 610 550 611 557 601 563 Q 598 564 596 566 L 581 576 Q 574 580 567 583 Q 549 589 541 581 Q 535 575 543 565 Q 555 538 552 369 Q 552 291 538 237 Q 532 216 547 202 Q 566 186 585 198 Z" fill="lightgray" />
    
      <path d="M 504 112 Q 491 111 488 102 Q 485 92 501 80 Q 540 55 592 71 Q 661 101 769 117 Q 785 121 786 128 Q 787 141 768 150 Q 740 162 717 155 Q 570 122 504 112 Z" fill="lightgray" />
    
    
      <clipPath id="make-me-a-hanzi-clip-0">
        <path d="M 202 534 Q 190 552 177 562 Q 174 566 169 562 Q 165 559 164 549 Q 168 527 149 482 Q 140 467 142 451 Q 145 435 153 421 Q 160 411 165 419 Q 175 422 187 457 Q 196 482 208 509 C 212 519 212 519 202 534 Z" />
      </clipPath>
      <path clip-path="url(#make-me-a-hanzi-clip-0)" d="M 173 553 L 184 511 L 166 466 L 161 431" fill="none" id="make-me-a-hanzi-animation-0" stroke-dasharray="255 510" stroke-linecap="round" />
    
      <clipPath id="make-me-a-hanzi-clip-1">
        <path d="M 341 545 Q 413 569 435 566 Q 448 565 449 559 Q 449 555 425 509 Q 421 499 425 497 Q 429 494 441 501 Q 478 526 510 533 Q 535 540 535 546 Q 534 553 483 590 Q 465 605 405 586 Q 380 583 350 572 L 300 560 Q 270 554 202 534 C 173 526 178 513 208 509 Q 224 505 239 510 Q 261 520 290 529 L 341 545 Z" />
      </clipPath>
      <path clip-path="url(#make-me-a-hanzi-clip-1)" d="M 213 530 L 229 524 L 422 579 L 465 575 L 479 555 L 429 503" fill="none" id="make-me-a-hanzi-animation-1" stroke-dasharray="486 972" stroke-linecap="round" />
    
      <clipPath id="make-me-a-hanzi-clip-2">
        <path d="M 259 353 Q 311 459 332 515 Q 335 527 341 545 L 350 572 Q 372 639 390 662 Q 400 675 395 685 Q 380 710 337 723 Q 324 727 308 721 Q 298 712 307 702 Q 322 686 324 667 Q 327 645 300 560 L 290 529 Q 263 448 230 384 L 208 346 Q 168 283 81 187 Q 71 174 82 172 Q 86 171 98 178 Q 170 224 223 296 L 259 353 Z" />
      </clipPath>
      <path clip-path="url(#make-me-a-hanzi-clip-2)" d="M 315 711 L 340 696 L 357 676 L 288 461 L 255 387 L 203 301 L 133 221 L 84 180" fill="none" id="make-me-a-hanzi-animation-2" stroke-dasharray="761 1522" stroke-linecap="round" />
    
      <clipPath id="make-me-a-hanzi-clip-3">
        <path d="M 263 107 Q 263 269 270 310 Q 277 340 259 353 L 230 384 Q 223 391 213 395 Q 203 396 200 390 Q 193 374 208 346 L 223 296 Q 223 295 224 292 Q 224 142 200 40 Q 190 -2 219 -44 Q 220 -47 223 -49 Q 239 -64 250 -39 Q 262 -3 263 78 L 263 107 Z" />
      </clipPath>
      <path clip-path="url(#make-me-a-hanzi-clip-3)" d="M 211 382 L 243 328 L 246 300 L 240 119 L 228 9 L 235 -39" fill="none" id="make-me-a-hanzi-animation-3" stroke-dasharray="559 1118" stroke-linecap="round" />
    
      <clipPath id="make-me-a-hanzi-clip-4">
        <path d="M 364 458 Q 409 422 420 422 Q 427 423 430 432 Q 431 442 425 462 Q 419 477 359 491 Q 349 492 344 490 Q 340 487 342 479 Q 345 472 364 458 Z" />
      </clipPath>
      <path clip-path="url(#make-me-a-hanzi-clip-4)" d="M 352 483 L 406 452 L 420 432" fill="none" id="make-me-a-hanzi-animation-4" stroke-dasharray="215 430" stroke-linecap="round" />
    
      <clipPath id="make-me-a-hanzi-clip-5">
        <path d="M 389 365 Q 423 375 463 385 Q 485 392 488 395 Q 495 401 491 407 Q 485 416 463 420 Q 441 423 418 413 Q 393 403 366 394 Q 336 387 300 381 Q 273 374 294 363 Q 321 350 359 357 L 389 365 Z" />
      </clipPath>
      <path clip-path="url(#make-me-a-hanzi-clip-5)" d="M 295 373 L 349 372 L 444 401 L 480 403" fill="none" id="make-me-a-hanzi-animation-5" stroke-dasharray="317 634" stroke-linecap="round" />
    
      <clipPath id="make-me-a-hanzi-clip-6">
        <path d="M 415 274 Q 439 280 462 283 Q 481 287 473 298 Q 463 310 443 312 Q 431 313 417 310 L 369 296 Q 335 286 305 275 Q 292 271 309 259 Q 316 255 332 257 L 369 265 L 415 274 Z" />
      </clipPath>
      <path clip-path="url(#make-me-a-hanzi-clip-6)" d="M 308 267 L 426 295 L 465 292" fill="none" id="make-me-a-hanzi-animation-6" stroke-dasharray="288 576" stroke-linecap="round" />
    
      <clipPath id="make-me-a-hanzi-clip-7">
        <path d="M 408 191 Q 436 198 466 203 Q 485 207 477 218 Q 467 230 446 232 Q 433 233 411 228 L 368 214 L 297 191 Q 284 187 301 175 Q 308 172 368 183 L 408 191 Z" />
      </clipPath>
      <path clip-path="url(#make-me-a-hanzi-clip-7)" d="M 300 183 L 432 215 L 469 212" fill="none" id="make-me-a-hanzi-animation-7" stroke-dasharray="301 602" stroke-linecap="round" />
    
      <clipPath id="make-me-a-hanzi-clip-8">
        <path d="M 404 137 Q 405 165 408 191 L 411 228 Q 412 253 415 274 L 417 310 Q 418 314 418 318 Q 425 333 417 341 Q 404 357 389 365 C 363 381 349 385 359 357 Q 368 336 369 296 L 369 265 Q 369 244 368 214 L 368 183 Q 367 159 367 127 C 367 97 403 107 404 137 Z" />
      </clipPath>
      <path clip-path="url(#make-me-a-hanzi-clip-8)" d="M 368 354 L 389 338 L 393 317 L 387 159 L 372 135" fill="none" id="make-me-a-hanzi-animation-8" stroke-dasharray="362 724" stroke-linecap="round" />
    
      <clipPath id="make-me-a-hanzi-clip-9">
        <path d="M 367 127 Q 316 118 263 107 C 234 101 235 88 263 78 Q 275 72 293 77 Q 353 92 472 111 Q 479 110 486 120 Q 487 129 469 136 Q 448 151 404 137 L 367 127 Z" />
      </clipPath>
      <path clip-path="url(#make-me-a-hanzi-clip-9)" d="M 272 100 L 281 92 L 417 122 L 450 126 L 477 121" fill="none" id="make-me-a-hanzi-animation-9" stroke-dasharray="340 680" stroke-linecap="round" />
    
      <clipPath id="make-me-a-hanzi-clip-10">
        <path d="M 596 566 Q 702 698 710 703 Q 726 716 712 730 Q 696 740 670 747 Q 646 753 636 747 Q 626 743 632 732 Q 642 711 593 601 Q 587 591 581 576 C 569 548 577 543 596 566 Z" />
      </clipPath>
      <path clip-path="url(#make-me-a-hanzi-clip-10)" d="M 644 737 L 668 712 L 665 702 L 599 581 L 589 581" fill="none" id="make-me-a-hanzi-animation-10" stroke-dasharray="321 642" stroke-linecap="round" />
    
      <clipPath id="make-me-a-hanzi-clip-11">
        <path d="M 605 520 L 613 522 Q 647 538 734 565 Q 741 566 747 563 Q 759 559 758 539 Q 757 494 739 413 Q 736 392 717 395 Q 695 399 677 403 Q 664 406 667 398 Q 668 389 690 370 Q 714 343 727 316 Q 734 307 744 311 Q 751 314 765 336 Q 783 363 797 449 Q 809 539 820 551 Q 830 560 825 571 Q 818 581 785 604 Q 772 613 719 597 Q 695 597 601 563 C 573 553 577 510 605 520 Z" />
      </clipPath>
      <path clip-path="url(#make-me-a-hanzi-clip-11)" d="M 607 527 L 624 550 L 733 584 L 772 579 L 788 561 L 776 464 L 754 379 L 740 363 L 674 397" fill="none" id="make-me-a-hanzi-animation-11" stroke-dasharray="615 1230" stroke-linecap="round" />
    
      <clipPath id="make-me-a-hanzi-clip-12">
        <path d="M 629 475 Q 663 430 682 426 Q 692 425 697 438 Q 698 448 692 463 Q 676 488 633 495 Q 626 496 625 488 Q 624 482 629 475 Z" />
      </clipPath>
      <path clip-path="url(#make-me-a-hanzi-clip-12)" d="M 635 484 L 667 461 L 683 440" fill="none" id="make-me-a-hanzi-animation-12" stroke-dasharray="194 388" stroke-linecap="round" />
    
      <clipPath id="make-me-a-hanzi-clip-13">
        <path d="M 585 198 Q 636 235 792 247 Q 823 251 836 239 Q 846 230 818 75 Q 811 32 790 3 Q 780 -10 754 -7 L 694 6 Q 678 10 679 3 Q 679 -3 688 -10 Q 743 -59 762 -93 Q 772 -112 789 -102 Q 846 -69 860 -10 Q 878 69 891 158 Q 898 195 917 226 Q 930 242 918 255 Q 900 274 864 296 Q 843 308 815 295 Q 605 244 596 255 Q 593 259 592 266 Q 592 470 605 520 C 610 550 611 557 601 563 Q 598 564 596 566 L 581 576 Q 574 580 567 583 Q 549 589 541 581 Q 535 575 543 565 Q 555 538 552 369 Q 552 291 538 237 Q 532 216 547 202 Q 566 186 585 198 Z" />
      </clipPath>
      <path clip-path="url(#make-me-a-hanzi-clip-13)" d="M 550 574 L 571 553 L 578 523 L 568 265 L 572 230 L 805 272 L 847 269 L 878 238 L 839 32 L 814 -27 L 787 -49 L 688 -1" fill="none" id="make-me-a-hanzi-animation-13" stroke-dasharray="1223 2446" stroke-linecap="round" />
    
      <clipPath id="make-me-a-hanzi-clip-14">
        <path d="M 504 112 Q 491 111 488 102 Q 485 92 501 80 Q 540 55 592 71 Q 661 101 769 117 Q 785 121 786 128 Q 787 141 768 150 Q 740 162 717 155 Q 570 122 504 112 Z" />
      </clipPath>
      <path clip-path="url(#make-me-a-hanzi-clip-14)" d="M 500 99 L 552 92 L 711 132 L 775 131" fill="none" id="make-me-a-hanzi-animation-14" stroke-dasharray="408 816" stroke-linecap="round" />
    
  </g>
</svg>