<svg xmlns="http://www.w3.org/2000/svg" version="1.1" viewBox="0 0 1024 1024">
  <g stroke="lightgray" stroke-dasharray="1,1" stroke-width="1" transform="scale(4, 4)">
    <line x1="0" y1="0" x2="256" y2="256" />
    <line x1="256" y1="0" x2="0" y2="256" />
    <line x1="128" y1="0" x2="128" y2="256" />
    <line x1="0" y1="128" x2="256" y2="128" />
  </g>
  <g transform="scale(1.0, -1.0) translate(0.0, -812.00)">
    <style type="text/css">
      
        @keyframes keyframes0 {
          from {
            stroke: blue;
            stroke-dashoffset: 391;
            stroke-width: 128;
          }
          56% {
            animation-timing-function: step-end;
            stroke: blue;
            stroke-dashoffset: 0;
            stroke-width: 128;
          }
          to {
            stroke: black;
            stroke-width: 1024;
          }
        }
        #make-me-a-hanzi-animation-0 {
          animation: keyframes0 0.5681966145833334s both;
          animation-delay: 0s;
          animation-timing-function: linear;
        }
      
        @keyframes keyframes1 {
          from {
            stroke: blue;
            stroke-dashoffset: 484;
            stroke-width: 128;
          }
          61% {
            animation-timing-function: step-end;
            stroke: blue;
            stroke-dashoffset: 0;
            stroke-width: 128;
          }
          to {
            stroke: black;
            stroke-width: 1024;
          }
        }
        #make-me-a-hanzi-animation-1 {
          animation: keyframes1 0.6438802083333334s both;
          animation-delay: 0.5681966145833334s;
          animation-timing-function: linear;
        }
      
        @keyframes keyframes2 {
          from {
            stroke: blue;
            stroke-dashoffset: 588;
            stroke-width: 128;
          }
          66% {
            animation-timing-function: step-end;
            stroke: blue;
            stroke-dashoffset: 0;
            stroke-width: 128;
          }
          to {
            stroke: black;
            stroke-width: 1024;
          }
        }
        #make-me-a-hanzi-animation-2 {
          animation: keyframes2 0.728515625s both;
          animation-delay: 1.2120768229166667s;
          animation-timing-function: linear;
        }
      
        @keyframes keyframes3 {
          from {
            stroke: blue;
            stroke-dashoffset: 462;
            stroke-width: 128;
          }
          60% {
            animation-timing-function: step-end;
            stroke: blue;
            stroke-dashoffset: 0;
            stroke-width: 128;
          }
          to {
            stroke: black;
            stroke-width: 1024;
          }
        }
        #make-me-a-hanzi-animation-3 {
          animation: keyframes3 0.6259765625s both;
          animation-delay: 1.9405924479166667s;
          animation-timing-function: linear;
        }
      
        @keyframes keyframes4 {
          from {
            stroke: blue;
            stroke-dashoffset: 429;
            stroke-width: 128;
          }
          58% {
            animation-timing-function: step-end;
            stroke: blue;
            stroke-dashoffset: 0;
            stroke-width: 128;
          }
          to {
            stroke: black;
            stroke-width: 1024;
          }
        }
        #make-me-a-hanzi-animation-4 {
          animation: keyframes4 0.59912109375s both;
          animation-delay: 2.566569010416667s;
          animation-timing-function: linear;
        }
      
        @keyframes keyframes5 {
          from {
            stroke: blue;
            stroke-dashoffset: 475;
            stroke-width: 128;
          }
          61% {
            animation-timing-function: step-end;
            stroke: blue;
            stroke-dashoffset: 0;
            stroke-width: 128;
          }
          to {
            stroke: black;
            stroke-width: 1024;
          }
        }
        #make-me-a-hanzi-animation-5 {
          animation: keyframes5 0.6365559895833334s both;
          animation-delay: 3.165690104166667s;
          animation-timing-function: linear;
        }
      
        @keyframes keyframes6 {
          from {
            stroke: blue;
            stroke-dashoffset: 683;
            stroke-width: 128;
          }
          69% {
            animation-timing-function: step-end;
            stroke: blue;
            stroke-dashoffset: 0;
            stroke-width: 128;
          }
          to {
            stroke: black;
            stroke-width: 1024;
          }
        }
        #make-me-a-hanzi-animation-6 {
          animation: keyframes6 0.8058268229166666s both;
          animation-delay: 3.8022460937500004s;
          animation-timing-function: linear;
        }
      
        @keyframes keyframes7 {
          from {
            stroke: blue;
            stroke-dashoffset: 412;
            stroke-width: 128;
          }
          57% {
            animation-timing-function: step-end;
            stroke: blue;
            stroke-dashoffset: 0;
            stroke-width: 128;
          }
          to {
            stroke: black;
            stroke-width: 1024;
          }
        }
        #make-me-a-hanzi-animation-7 {
          animation: keyframes7 0.5852864583333334s both;
          animation-delay: 4.608072916666667s;
          animation-timing-function: linear;
        }
      
        @keyframes keyframes8 {
          from {
            stroke: blue;
            stroke-dashoffset: 422;
            stroke-width: 128;
          }
          58% {
            animation-timing-function: step-end;
            stroke: blue;
            stroke-dashoffset: 0;
            stroke-width: 128;
          }
          to {
            stroke: black;
            stroke-width: 1024;
          }
        }
        #make-me-a-hanzi-animation-8 {
          animation: keyframes8 0.5934244791666666s both;
          animation-delay: 5.193359375s;
          animation-timing-function: linear;
        }
      
        @keyframes keyframes9 {
          from {
            stroke: blue;
            stroke-dashoffset: 673;
            stroke-width: 128;
          }
          69% {
            animation-timing-function: step-end;
            stroke: blue;
            stroke-dashoffset: 0;
            stroke-width: 128;
          }
          to {
            stroke: black;
            stroke-width: 1024;
          }
        }
        #make-me-a-hanzi-animation-9 {
          animation: keyframes9 0.7976888020833334s both;
          animation-delay: 5.786783854166667s;
          animation-timing-function: linear;
        }
      
        @keyframes keyframes10 {
          from {
            stroke: blue;
            stroke-dashoffset: 443;
            stroke-width: 128;
          }
          59% {
            animation-timing-function: step-end;
            stroke: blue;
            stroke-dashoffset: 0;
            stroke-width: 128;
          }
          to {
            stroke: black;
            stroke-width: 1024;
          }
        }
        #make-me-a-hanzi-animation-10 {
          animation: keyframes10 0.6105143229166666s both;
          animation-delay: 6.58447265625s;
          animation-timing-function: linear;
        }
      
        @keyframes keyframes11 {
          from {
            stroke: blue;
            stroke-dashoffset: 772;
            stroke-width: 128;
          }
          72% {
            animation-timing-function: step-end;
            stroke: blue;
            stroke-dashoffset: 0;
            stroke-width: 128;
          }
          to {
            stroke: black;
            stroke-width: 1024;
          }
        }
        #make-me-a-hanzi-animation-11 {
          animation: keyframes11 0.8782552083333334s both;
          animation-delay: 7.194986979166667s;
          animation-timing-function: linear;
        }
      
        @keyframes keyframes12 {
          from {
            stroke: blue;
            stroke-dashoffset: 360;
            stroke-width: 128;
          }
          54% {
            animation-timing-function: step-end;
            stroke: blue;
            stroke-dashoffset: 0;
            stroke-width: 128;
          }
          to {
            stroke: black;
            stroke-width: 1024;
          }
        }
        #make-me-a-hanzi-animation-12 {
          animation: keyframes12 0.54296875s both;
          animation-delay: 8.0732421875s;
          animation-timing-function: linear;
        }
      
        @keyframes keyframes13 {
          from {
            stroke: blue;
            stroke-dashoffset: 1427;
            stroke-width: 128;
          }
          82% {
            animation-timing-function: step-end;
            stroke: blue;
            stroke-dashoffset: 0;
            stroke-width: 128;
          }
          to {
            stroke: black;
            stroke-width: 1024;
          }
        }
        #make-me-a-hanzi-animation-13 {
          animation: keyframes13 1.4112955729166667s both;
          animation-delay: 8.6162109375s;
          animation-timing-function: linear;
        }
      
        @keyframes keyframes14 {
          from {
            stroke: blue;
            stroke-dashoffset: 548;
            stroke-width: 128;
          }
          64% {
            animation-timing-function: step-end;
            stroke: blue;
            stroke-dashoffset: 0;
            stroke-width: 128;
          }
          to {
            stroke: black;
            stroke-width: 1024;
          }
        }
        #make-me-a-hanzi-animation-14 {
          animation: keyframes14 0.6959635416666666s both;
          animation-delay: 10.027506510416666s;
          animation-timing-function: linear;
        }
      
    </style>
    
      <path d="M 160 614 Q 156 614 156 610 Q 156 606 172 575 Q 219 490 248 490 Q 267 490 267 530 Q 267 562 223 587 Q 171 614 160 614 Z" fill="lightgray" />
    
      <path d="M 403 675 Q 398 675 394 670 Q 391 664 391 658 Q 391 637 379 592 Q 362 531 340 484 Q 334 471 329 461 C 316 434 350 451 371 473 Q 394 496 417 532 Q 443 579 466 612 Q 475 623 475 631 Q 475 644 439 662 Q 415 675 403 675 Z" fill="lightgray" />
    
      <path d="M 329 461 Q 268 443 220 432 Q 189 425 156 423 Q 132 423 131 410 Q 133 405 146 399 Q 171 388 196 387 Q 206 387 229 394 Q 281 407 357 422 Q 403 429 460 431 Q 483 431 483 446 Q 483 461 465 472 Q 444 482 420 482 Q 400 482 381 476 Q 376 474 371 473 L 329 461 Z" fill="lightgray" />
    
      <path d="M 212 362 Q 208 362 206 359 Q 204 355 204 350 Q 204 335 186 303 Q 164 260 133 225 Q 116 208 112 198 Q 114 194 120 194 Q 172 217 213 256 Q 243 288 268 310 Q 280 317 280 322 Q 280 335 246 351 Q 222 362 212 362 Z" fill="lightgray" />
    
      <path d="M 355 375 Q 343 375 343 371 Q 343 368 366 350 Q 397 324 434 278 Q 461 243 471 243 Q 492 244 492 271 L 492 274 Q 492 304 464 331 Q 439 352 398 366 Q 366 375 355 375 Z" fill="lightgray" />
    
      <path d="M 147 194 Q 135 194 135 186 Q 135 182 142 172 Q 153 156 159 127 Q 170 89 175 -6 Q 175 -15 177 -22 C 183 -51 204 -47 206 -17 Q 207 -5 208 10 L 208 155 C 208 181 208 181 195 186 Q 191 188 184 190 Q 170 194 147 194 Z" fill="lightgray" />
    
      <path d="M 439 49 Q 469 141 492 163 Q 504 172 504 182 Q 504 200 475 220 Q 447 238 427 238 Q 421 238 406 231 Q 379 221 300 205 Q 224 188 196 186 L 195 186 C 165 183 178 157 208 155 Q 213 154 219 154 Q 226 154 248 160 L 264 163 Q 279 166 300 172 Q 311 174 323 177 L 365 184 Q 383 186 395 186 Q 416 186 416 167 Q 406 78 399 56 Q 396 42 395 35 C 390 5 430 21 439 49 Z" fill="lightgray" />
    
      <path d="M 248 160 Q 248 111 255 39 Q 257 12 260 -3 C 265 -33 277 -26 286 3 Q 292 22 292 35 Q 292 84 276 127 Q 270 149 264 163 C 253 191 248 190 248 160 Z" fill="lightgray" />
    
      <path d="M 323 177 Q 324 172 324 167 L 324 13 C 324 -17 334 -9 344 19 Q 347 26 350 43 Q 367 130 380 167 Q 380 173 365 184 C 341 202 319 207 323 177 Z" fill="lightgray" />
    
      <path d="M 177 -22 Q 135 -28 91 -30 Q 76 -31 76 -41 Q 76 -54 101 -70 Q 124 -85 139 -85 Q 156 -85 183 -75 Q 316 -21 483 22 Q 502 26 504 43 Q 504 57 479 58 Q 470 58 439 49 L 395 35 Q 372 26 344 19 L 324 13 Q 306 8 286 3 L 260 -3 Q 243 -8 221 -13 Q 214 -15 206 -17 L 177 -22 Z" fill="lightgray" />
    
      <path d="M 651 568 Q 654 571 658 578 Q 726 673 742 688 Q 756 700 756 702 Q 756 713 722 733 Q 691 750 683 750 Q 664 750 664 738 Q 672 724 672 702 Q 672 677 627 576 C 615 549 633 544 651 568 Z" fill="lightgray" />
    
      <path d="M 639 530 L 640 530 Q 647 530 693 545 Q 760 562 775 562 Q 800 562 800 551 Q 800 487 790 415 Q 782 358 775 358 Q 766 358 739 371 Q 731 371 731 362 Q 756 326 774 289 Q 782 274 792 274 Q 804 274 820 311 Q 836 360 844 415 Q 853 497 867 527 Q 876 546 876 551 Q 876 568 843 590 Q 811 606 800 606 Q 791 606 765 596 Q 739 582 651 568 C 616 562 574 516 639 530 Z" fill="lightgray" />
    
      <path d="M 668 482 Q 651 482 651 478 Q 651 475 680 438 Q 713 398 735 398 Q 756 398 756 423 Q 756 435 749 448 Q 736 467 712 475 Q 691 481 668 482 Z" fill="lightgray" />
    
      <path d="M 588 591 Q 575 591 575 582 Q 592 521 592 463 Q 592 322 559 222 Q 555 214 555 203 Q 555 201 566 186 Q 580 171 588 171 Q 596 171 618 184 Q 658 203 738 216 Q 831 230 852 230 Q 871 230 871 211 Q 871 159 866 106 Q 857 23 835 -24 Q 822 -49 808 -49 Q 793 -49 757 -38 Q 721 -22 712 -22 Q 703 -22 703 -26 Q 703 -28 758 -98 Q 796 -150 808 -150 Q 843 -150 879 -81 Q 910 -13 923 112 Q 929 183 947 206 Q 955 217 955 222 Q 955 236 921 256 Q 885 274 876 274 Q 867 274 841 267 Q 768 254 628 230 Q 620 230 620 238 Q 637 457 639 530 C 640 560 641 570 627 576 Q 624 579 618 582 Q 599 591 588 591 Z" fill="lightgray" />
    
      <path d="M 768 138 Q 760 138 672 113 Q 590 92 523 87 Q 505 84 504 70 Q 504 61 536 50 Q 560 40 584 39 Q 589 39 607 47 Q 666 70 787 94 Q 814 102 815 115 Q 814 128 799 134 Q 785 137 768 138 Z" fill="lightgray" />
    
    
      <clipPath id="make-me-a-hanzi-clip-0">
        <path d="M 160 614 Q 156 614 156 610 Q 156 606 172 575 Q 219 490 248 490 Q 267 490 267 530 Q 267 562 223 587 Q 171 614 160 614 Z" />
      </clipPath>
      <path clip-path="url(#make-me-a-hanzi-clip-0)" d="M 161 609 L 231 541 L 247 507" fill="none" id="make-me-a-hanzi-animation-0" stroke-dasharray="263 526" stroke-linecap="round" />
    
      <clipPath id="make-me-a-hanzi-clip-1">
        <path d="M 403 675 Q 398 675 394 670 Q 391 664 391 658 Q 391 637 379 592 Q 362 531 340 484 Q 334 471 329 461 C 316 434 350 451 371 473 Q 394 496 417 532 Q 443 579 466 612 Q 475 623 475 631 Q 475 644 439 662 Q 415 675 403 675 Z" />
      </clipPath>
      <path clip-path="url(#make-me-a-hanzi-clip-1)" d="M 405 661 L 426 624 L 423 615 L 384 525 L 360 486 L 336 464" fill="none" id="make-me-a-hanzi-animation-1" stroke-dasharray="356 712" stroke-linecap="round" />
    
      <clipPath id="make-me-a-hanzi-clip-2">
        <path d="M 329 461 Q 268 443 220 432 Q 189 425 156 423 Q 132 423 131 410 Q 133 405 146 399 Q 171 388 196 387 Q 206 387 229 394 Q 281 407 357 422 Q 403 429 460 431 Q 483 431 483 446 Q 483 461 465 472 Q 444 482 420 482 Q 400 482 381 476 Q 376 474 371 473 L 329 461 Z" />
      </clipPath>
      <path clip-path="url(#make-me-a-hanzi-clip-2)" d="M 139 412 L 198 407 L 394 453 L 426 456 L 465 448" fill="none" id="make-me-a-hanzi-animation-2" stroke-dasharray="460 920" stroke-linecap="round" />
    
      <clipPath id="make-me-a-hanzi-clip-3">
        <path d="M 212 362 Q 208 362 206 359 Q 204 355 204 350 Q 204 335 186 303 Q 164 260 133 225 Q 116 208 112 198 Q 114 194 120 194 Q 172 217 213 256 Q 243 288 268 310 Q 280 317 280 322 Q 280 335 246 351 Q 222 362 212 362 Z" />
      </clipPath>
      <path clip-path="url(#make-me-a-hanzi-clip-3)" d="M 271 323 L 230 319 L 172 245 L 118 200" fill="none" id="make-me-a-hanzi-animation-3" stroke-dasharray="334 668" stroke-linecap="round" />
    
      <clipPath id="make-me-a-hanzi-clip-4">
        <path d="M 355 375 Q 343 375 343 371 Q 343 368 366 350 Q 397 324 434 278 Q 461 243 471 243 Q 492 244 492 271 L 492 274 Q 492 304 464 331 Q 439 352 398 366 Q 366 375 355 375 Z" />
      </clipPath>
      <path clip-path="url(#make-me-a-hanzi-clip-4)" d="M 350 371 L 400 346 L 442 313 L 467 279 L 473 258" fill="none" id="make-me-a-hanzi-animation-4" stroke-dasharray="301 602" stroke-linecap="round" />
    
      <clipPath id="make-me-a-hanzi-clip-5">
        <path d="M 147 194 Q 135 194 135 186 Q 135 182 142 172 Q 153 156 159 127 Q 170 89 175 -6 Q 175 -15 177 -22 C 183 -51 204 -47 206 -17 Q 207 -5 208 10 L 208 155 C 208 181 208 181 195 186 Q 191 188 184 190 Q 170 194 147 194 Z" />
      </clipPath>
      <path clip-path="url(#make-me-a-hanzi-clip-5)" d="M 146 183 L 172 168 L 182 148 L 192 17 L 184 -17" fill="none" id="make-me-a-hanzi-animation-5" stroke-dasharray="347 694" stroke-linecap="round" />
    
      <clipPath id="make-me-a-hanzi-clip-6">
        <path d="M 439 49 Q 469 141 492 163 Q 504 172 504 182 Q 504 200 475 220 Q 447 238 427 238 Q 421 238 406 231 Q 379 221 300 205 Q 224 188 196 186 L 195 186 C 165 183 178 157 208 155 Q 213 154 219 154 Q 226 154 248 160 L 264 163 Q 279 166 300 172 Q 311 174 323 177 L 365 184 Q 383 186 395 186 Q 416 186 416 167 Q 406 78 399 56 Q 396 42 395 35 C 390 5 430 21 439 49 Z" />
      </clipPath>
      <path clip-path="url(#make-me-a-hanzi-clip-6)" d="M 201 182 L 220 171 L 398 207 L 429 207 L 441 199 L 454 184 L 453 173 L 425 67 L 402 38" fill="none" id="make-me-a-hanzi-animation-6" stroke-dasharray="555 1110" stroke-linecap="round" />
    
      <clipPath id="make-me-a-hanzi-clip-7">
        <path d="M 248 160 Q 248 111 255 39 Q 257 12 260 -3 C 265 -33 277 -26 286 3 Q 292 22 292 35 Q 292 84 276 127 Q 270 149 264 163 C 253 191 248 190 248 160 Z" />
      </clipPath>
      <path clip-path="url(#make-me-a-hanzi-clip-7)" d="M 253 154 L 258 151 L 273 58 L 274 23 L 265 4" fill="none" id="make-me-a-hanzi-animation-7" stroke-dasharray="284 568" stroke-linecap="round" />
    
      <clipPath id="make-me-a-hanzi-clip-8">
        <path d="M 323 177 Q 324 172 324 167 L 324 13 C 324 -17 334 -9 344 19 Q 347 26 350 43 Q 367 130 380 167 Q 380 173 365 184 C 341 202 319 207 323 177 Z" />
      </clipPath>
      <path clip-path="url(#make-me-a-hanzi-clip-8)" d="M 331 173 L 350 156 L 336 27 L 327 21" fill="none" id="make-me-a-hanzi-animation-8" stroke-dasharray="294 588" stroke-linecap="round" />
    
      <clipPath id="make-me-a-hanzi-clip-9">
        <path d="M 177 -22 Q 135 -28 91 -30 Q 76 -31 76 -41 Q 76 -54 101 -70 Q 124 -85 139 -85 Q 156 -85 183 -75 Q 316 -21 483 22 Q 502 26 504 43 Q 504 57 479 58 Q 470 58 439 49 L 395 35 Q 372 26 344 19 L 324 13 Q 306 8 286 3 L 260 -3 Q 243 -8 221 -13 Q 214 -15 206 -17 L 177 -22 Z" />
      </clipPath>
      <path clip-path="url(#make-me-a-hanzi-clip-9)" d="M 88 -42 L 105 -50 L 153 -55 L 489 42" fill="none" id="make-me-a-hanzi-animation-9" stroke-dasharray="545 1090" stroke-linecap="round" />
    
      <clipPath id="make-me-a-hanzi-clip-10">
        <path d="M 651 568 Q 654 571 658 578 Q 726 673 742 688 Q 756 700 756 702 Q 756 713 722 733 Q 691 750 683 750 Q 664 750 664 738 Q 672 724 672 702 Q 672 677 627 576 C 615 549 633 544 651 568 Z" />
      </clipPath>
      <path clip-path="url(#make-me-a-hanzi-clip-10)" d="M 676 737 L 707 701 L 645 586 L 648 578" fill="none" id="make-me-a-hanzi-animation-10" stroke-dasharray="315 630" stroke-linecap="round" />
    
      <clipPath id="make-me-a-hanzi-clip-11">
        <path d="M 639 530 L 640 530 Q 647 530 693 545 Q 760 562 775 562 Q 800 562 800 551 Q 800 487 790 415 Q 782 358 775 358 Q 766 358 739 371 Q 731 371 731 362 Q 756 326 774 289 Q 782 274 792 274 Q 804 274 820 311 Q 836 360 844 415 Q 853 497 867 527 Q 876 546 876 551 Q 876 568 843 590 Q 811 606 800 606 Q 791 606 765 596 Q 739 582 651 568 C 616 562 574 516 639 530 Z" />
      </clipPath>
      <path clip-path="url(#make-me-a-hanzi-clip-11)" d="M 631 569 L 652 551 L 779 582 L 801 582 L 832 559 L 837 549 L 805 353 L 791 329 L 765 341 L 742 361" fill="none" id="make-me-a-hanzi-animation-11" stroke-dasharray="644 1288" stroke-linecap="round" />
    
      <clipPath id="make-me-a-hanzi-clip-12">
        <path d="M 668 482 Q 651 482 651 478 Q 651 475 680 438 Q 713 398 735 398 Q 756 398 756 423 Q 756 435 749 448 Q 736 467 712 475 Q 691 481 668 482 Z" />
      </clipPath>
      <path clip-path="url(#make-me-a-hanzi-clip-12)" d="M 655 478 L 699 454 L 737 416" fill="none" id="make-me-a-hanzi-animation-12" stroke-dasharray="232 464" stroke-linecap="round" />
    
      <clipPath id="make-me-a-hanzi-clip-13">
        <path d="M 588 591 Q 575 591 575 582 Q 592 521 592 463 Q 592 322 559 222 Q 555 214 555 203 Q 555 201 566 186 Q 580 171 588 171 Q 596 171 618 184 Q 658 203 738 216 Q 831 230 852 230 Q 871 230 871 211 Q 871 159 866 106 Q 857 23 835 -24 Q 822 -49 808 -49 Q 793 -49 757 -38 Q 721 -22 712 -22 Q 703 -22 703 -26 Q 703 -28 758 -98 Q 796 -150 808 -150 Q 843 -150 879 -81 Q 910 -13 923 112 Q 929 183 947 206 Q 955 217 955 222 Q 955 236 921 256 Q 885 274 876 274 Q 867 274 841 267 Q 768 254 628 230 Q 620 230 620 238 Q 637 457 639 530 C 640 560 641 570 627 576 Q 624 579 618 582 Q 599 591 588 591 Z" />
      </clipPath>
      <path clip-path="url(#make-me-a-hanzi-clip-13)" d="M 588 577 L 606 560 L 615 477 L 594 212 L 628 209 L 678 223 L 853 251 L 879 248 L 909 219 L 878 8 L 861 -42 L 843 -73 L 813 -95 L 770 -72 L 708 -25" fill="none" id="make-me-a-hanzi-animation-13" stroke-dasharray="1299 2598" stroke-linecap="round" />
    
      <clipPath id="make-me-a-hanzi-clip-14">
        <path d="M 768 138 Q 760 138 672 113 Q 590 92 523 87 Q 505 84 504 70 Q 504 61 536 50 Q 560 40 584 39 Q 589 39 607 47 Q 666 70 787 94 Q 814 102 815 115 Q 814 128 799 134 Q 785 137 768 138 Z" />
      </clipPath>
      <path clip-path="url(#make-me-a-hanzi-clip-14)" d="M 515 72 L 580 66 L 745 110 L 801 116" fill="none" id="make-me-a-hanzi-animation-14" stroke-dasharray="420 840" stroke-linecap="round" />
    
  </g>
</svg>