<svg xmlns="http://www.w3.org/2000/svg" version="1.1" viewBox="0 0 1024 1024">
  <g stroke="lightgray" stroke-dasharray="1,1" stroke-width="1" transform="scale(4, 4)">
    <line x1="0" y1="0" x2="256" y2="256" />
    <line x1="256" y1="0" x2="0" y2="256" />
    <line x1="128" y1="0" x2="128" y2="256" />
    <line x1="0" y1="128" x2="256" y2="128" />
  </g>
  <g transform="scale(1.0, -1.0) translate(0.0, -820.00)">
    <style type="text/css">
      
        @keyframes keyframes0 {
          from {
            stroke: blue;
            stroke-dashoffset: 344;
            stroke-width: 128;
          }
          53% {
            animation-timing-function: step-end;
            stroke: blue;
            stroke-dashoffset: 0;
            stroke-width: 128;
          }
          to {
            stroke: black;
            stroke-width: 1024;
          }
        }
        #make-me-a-hanzi-animation-0 {
          animation: keyframes0 0.5299479166666666s both;
          animation-delay: 0s;
          animation-timing-function: linear;
        }
      
        @keyframes keyframes1 {
          from {
            stroke: blue;
            stroke-dashoffset: 576;
            stroke-width: 128;
          }
          65% {
            animation-timing-function: step-end;
            stroke: blue;
            stroke-dashoffset: 0;
            stroke-width: 128;
          }
          to {
            stroke: black;
            stroke-width: 1024;
          }
        }
        #make-me-a-hanzi-animation-1 {
          animation: keyframes1 0.71875s both;
          animation-delay: 0.5299479166666666s;
          animation-timing-function: linear;
        }
      
        @keyframes keyframes2 {
          from {
            stroke: blue;
            stroke-dashoffset: 382;
            stroke-width: 128;
          }
          55% {
            animation-timing-function: step-end;
            stroke: blue;
            stroke-dashoffset: 0;
            stroke-width: 128;
          }
          to {
            stroke: black;
            stroke-width: 1024;
          }
        }
        #make-me-a-hanzi-animation-2 {
          animation: keyframes2 0.5608723958333334s both;
          animation-delay: 1.2486979166666665s;
          animation-timing-function: linear;
        }
      
        @keyframes keyframes3 {
          from {
            stroke: blue;
            stroke-dashoffset: 459;
            stroke-width: 128;
          }
          60% {
            animation-timing-function: step-end;
            stroke: blue;
            stroke-dashoffset: 0;
            stroke-width: 128;
          }
          to {
            stroke: black;
            stroke-width: 1024;
          }
        }
        #make-me-a-hanzi-animation-3 {
          animation: keyframes3 0.62353515625s both;
          animation-delay: 1.8095703125s;
          animation-timing-function: linear;
        }
      
        @keyframes keyframes4 {
          from {
            stroke: blue;
            stroke-dashoffset: 395;
            stroke-width: 128;
          }
          56% {
            animation-timing-function: step-end;
            stroke: blue;
            stroke-dashoffset: 0;
            stroke-width: 128;
          }
          to {
            stroke: black;
            stroke-width: 1024;
          }
        }
        #make-me-a-hanzi-animation-4 {
          animation: keyframes4 0.5714518229166666s both;
          animation-delay: 2.43310546875s;
          animation-timing-function: linear;
        }
      
        @keyframes keyframes5 {
          from {
            stroke: blue;
            stroke-dashoffset: 489;
            stroke-width: 128;
          }
          61% {
            animation-timing-function: step-end;
            stroke: blue;
            stroke-dashoffset: 0;
            stroke-width: 128;
          }
          to {
            stroke: black;
            stroke-width: 1024;
          }
        }
        #make-me-a-hanzi-animation-5 {
          animation: keyframes5 0.64794921875s both;
          animation-delay: 3.0045572916666665s;
          animation-timing-function: linear;
        }
      
        @keyframes keyframes6 {
          from {
            stroke: blue;
            stroke-dashoffset: 372;
            stroke-width: 128;
          }
          55% {
            animation-timing-function: step-end;
            stroke: blue;
            stroke-dashoffset: 0;
            stroke-width: 128;
          }
          to {
            stroke: black;
            stroke-width: 1024;
          }
        }
        #make-me-a-hanzi-animation-6 {
          animation: keyframes6 0.552734375s both;
          animation-delay: 3.6525065104166665s;
          animation-timing-function: linear;
        }
      
        @keyframes keyframes7 {
          from {
            stroke: blue;
            stroke-dashoffset: 305;
            stroke-width: 128;
          }
          50% {
            animation-timing-function: step-end;
            stroke: blue;
            stroke-dashoffset: 0;
            stroke-width: 128;
          }
          to {
            stroke: black;
            stroke-width: 1024;
          }
        }
        #make-me-a-hanzi-animation-7 {
          animation: keyframes7 0.4982096354166667s both;
          animation-delay: 4.205240885416666s;
          animation-timing-function: linear;
        }
      
        @keyframes keyframes8 {
          from {
            stroke: blue;
            stroke-dashoffset: 521;
            stroke-width: 128;
          }
          63% {
            animation-timing-function: step-end;
            stroke: blue;
            stroke-dashoffset: 0;
            stroke-width: 128;
          }
          to {
            stroke: black;
            stroke-width: 1024;
          }
        }
        #make-me-a-hanzi-animation-8 {
          animation: keyframes8 0.6739908854166666s both;
          animation-delay: 4.703450520833333s;
          animation-timing-function: linear;
        }
      
        @keyframes keyframes9 {
          from {
            stroke: blue;
            stroke-dashoffset: 644;
            stroke-width: 128;
          }
          68% {
            animation-timing-function: step-end;
            stroke: blue;
            stroke-dashoffset: 0;
            stroke-width: 128;
          }
          to {
            stroke: black;
            stroke-width: 1024;
          }
        }
        #make-me-a-hanzi-animation-9 {
          animation: keyframes9 0.7740885416666666s both;
          animation-delay: 5.37744140625s;
          animation-timing-function: linear;
        }
      
        @keyframes keyframes10 {
          from {
            stroke: blue;
            stroke-dashoffset: 739;
            stroke-width: 128;
          }
          71% {
            animation-timing-function: step-end;
            stroke: blue;
            stroke-dashoffset: 0;
            stroke-width: 128;
          }
          to {
            stroke: black;
            stroke-width: 1024;
          }
        }
        #make-me-a-hanzi-animation-10 {
          animation: keyframes10 0.8513997395833334s both;
          animation-delay: 6.151529947916667s;
          animation-timing-function: linear;
        }
      
        @keyframes keyframes11 {
          from {
            stroke: blue;
            stroke-dashoffset: 361;
            stroke-width: 128;
          }
          54% {
            animation-timing-function: step-end;
            stroke: blue;
            stroke-dashoffset: 0;
            stroke-width: 128;
          }
          to {
            stroke: black;
            stroke-width: 1024;
          }
        }
        #make-me-a-hanzi-animation-11 {
          animation: keyframes11 0.5437825520833334s both;
          animation-delay: 7.0029296875s;
          animation-timing-function: linear;
        }
      
        @keyframes keyframes12 {
          from {
            stroke: blue;
            stroke-dashoffset: 354;
            stroke-width: 128;
          }
          54% {
            animation-timing-function: step-end;
            stroke: blue;
            stroke-dashoffset: 0;
            stroke-width: 128;
          }
          to {
            stroke: black;
            stroke-width: 1024;
          }
        }
        #make-me-a-hanzi-animation-12 {
          animation: keyframes12 0.5380859375s both;
          animation-delay: 7.546712239583333s;
          animation-timing-function: linear;
        }
      
        @keyframes keyframes13 {
          from {
            stroke: blue;
            stroke-dashoffset: 726;
            stroke-width: 128;
          }
          70% {
            animation-timing-function: step-end;
            stroke: blue;
            stroke-dashoffset: 0;
            stroke-width: 128;
          }
          to {
            stroke: black;
            stroke-width: 1024;
          }
        }
        #make-me-a-hanzi-animation-13 {
          animation: keyframes13 0.8408203125s both;
          animation-delay: 8.084798177083332s;
          animation-timing-function: linear;
        }
      
        @keyframes keyframes14 {
          from {
            stroke: blue;
            stroke-dashoffset: 322;
            stroke-width: 128;
          }
          51% {
            animation-timing-function: step-end;
            stroke: blue;
            stroke-dashoffset: 0;
            stroke-width: 128;
          }
          to {
            stroke: black;
            stroke-width: 1024;
          }
        }
        #make-me-a-hanzi-animation-14 {
          animation: keyframes14 0.5120442708333334s both;
          animation-delay: 8.925618489583332s;
          animation-timing-function: linear;
        }
      
        @keyframes keyframes15 {
          from {
            stroke: blue;
            stroke-dashoffset: 1284;
            stroke-width: 128;
          }
          81% {
            animation-timing-function: step-end;
            stroke: blue;
            stroke-dashoffset: 0;
            stroke-width: 128;
          }
          to {
            stroke: black;
            stroke-width: 1024;
          }
        }
        #make-me-a-hanzi-animation-15 {
          animation: keyframes15 1.294921875s both;
          animation-delay: 9.437662760416666s;
          animation-timing-function: linear;
        }
      
        @keyframes keyframes16 {
          from {
            stroke: blue;
            stroke-dashoffset: 732;
            stroke-width: 128;
          }
          70% {
            animation-timing-function: step-end;
            stroke: blue;
            stroke-dashoffset: 0;
            stroke-width: 128;
          }
          to {
            stroke: black;
            stroke-width: 1024;
          }
        }
        #make-me-a-hanzi-animation-16 {
          animation: keyframes16 0.845703125s both;
          animation-delay: 10.732584635416666s;
          animation-timing-function: linear;
        }
      
    </style>
    
      <path d="M 385 706 Q 386 716 381 733 Q 375 751 312 763 Q 300 764 296 762 Q 292 759 294 750 Q 297 743 317 728 Q 333 715 350 699 C 372 678 384 676 385 706 Z" fill="lightgray" />
    
      <path d="M 350 699 Q 343 699 339 697 Q 338 697 172 676 Q 148 675 166 659 Q 196 638 215 640 Q 365 667 476 676 Q 485 675 493 686 Q 494 696 475 705 Q 448 726 385 706 L 350 699 Z" fill="lightgray" />
    
      <path d="M 258 617 Q 251 621 229 623 Q 220 624 218 621 Q 214 617 220 605 Q 238 577 251 528 Q 254 513 264 504 Q 277 488 281 500 Q 282 507 282 518 L 279 543 Q 272 586 271 598 C 270 612 270 612 258 617 Z" fill="lightgray" />
    
      <path d="M 409 559 Q 421 589 433 597 Q 451 615 434 626 Q 421 636 401 649 Q 389 656 346 637 Q 298 624 258 617 C 228 612 242 591 271 598 Q 283 601 351 614 Q 373 618 377 610 Q 381 607 376 591 Q 373 581 370 567 C 363 538 397 531 409 559 Z" fill="lightgray" />
    
      <path d="M 348 527 Q 376 533 415 536 Q 424 537 424 544 Q 424 548 409 559 L 370 567 Q 366 567 362 565 Q 316 552 279 543 C 250 536 252 515 282 518 Q 283 518 316 522 L 348 527 Z" fill="lightgray" />
    
      <path d="M 350 359 Q 362 371 361 430 Q 358 478 362 481 C 365 492 365 492 362 503 Q 361 515 348 527 C 327 549 310 551 316 522 Q 323 495 318 422 Q 317 419 316 418 Q 315 405 290 406 Q 269 407 248 410 Q 239 409 239 405 Q 238 401 247 394 Q 298 363 316 342 Q 328 333 336 336 Q 339 337 342 342 L 350 359 Z" fill="lightgray" />
    
      <path d="M 213 493 Q 189 465 160 439 Q 139 420 146 391 Q 147 378 166 382 Q 206 398 220 447 Q 230 469 230 489 Q 229 496 224 498 Q 217 498 213 493 Z" fill="lightgray" />
    
      <path d="M 362 481 Q 390 448 407 449 Q 416 449 420 462 Q 420 471 412 484 Q 397 502 362 503 C 343 504 343 504 362 481 Z" fill="lightgray" />
    
      <path d="M 549 652 L 472 644 Q 441 640 463 624 Q 493 609 535 610 L 585 620 Q 726 650 730 652 Q 737 659 734 666 Q 728 676 704 683 Q 679 689 652 679 Q 625 672 600 663 L 549 652 Z" fill="lightgray" />
    
      <path d="M 600 663 Q 609 690 616 704 Q 625 713 621 724 Q 612 739 591 754 Q 579 764 569 763 Q 559 760 561 749 Q 568 730 549 652 L 535 610 Q 534 609 534 605 Q 504 523 421 431 Q 417 427 414 422 Q 410 415 418 415 Q 425 415 436 422 L 458 437 Q 533 489 585 620 L 600 663 Z" fill="lightgray" />
    
      <path d="M 866 457 Q 856 478 839 537 Q 838 550 833 554 Q 829 555 825 542 Q 806 476 792 456 Q 773 435 703 437 Q 678 438 657 446 Q 639 455 635 466 Q 626 488 640 561 Q 646 585 605 602 Q 595 605 587 601 Q 581 598 586 584 Q 596 551 594 521 Q 588 428 636 406 L 661 396 Q 775 365 862 425 Q 875 438 866 457 Z" fill="lightgray" />
    
      <path d="M 718 706 L 761 674 Q 773 665 786 667 Q 795 668 797 680 Q 800 693 789 716 Q 783 729 759 737 Q 699 749 692 743 Q 688 739 690 729 Q 694 720 718 706 Z" fill="lightgray" />
    
      <path d="M 426 345 Q 465 375 488 388 Q 501 392 498 400 Q 488 428 458 437 C 439 443 439 443 436 422 Q 437 409 392 342 C 375 317 402 327 426 345 Z" fill="lightgray" />
    
      <path d="M 601 164 Q 634 197 655 298 Q 661 328 673 341 Q 683 351 678 360 Q 671 369 631 387 Q 615 394 600 384 Q 569 368 426 345 C 379 337 359 305 403 312 Q 407 312 413 313 Q 513 338 584 345 Q 600 346 603 341 Q 609 335 608 317 Q 607 266 597 243 Q 584 218 560 222 Q 545 225 532 229 Q 513 236 526 216 Q 554 183 567 160 C 580 139 582 141 601 164 Z" fill="lightgray" />
    
      <path d="M 433 275 Q 467 230 486 226 Q 496 225 501 238 Q 502 248 496 263 Q 480 288 437 295 Q 430 296 429 288 Q 428 282 433 275 Z" fill="lightgray" />
    
      <path d="M 392 342 Q 380 352 364 358 Q 354 362 350 359 C 336 363 336 363 342 342 Q 364 299 349 146 Q 337 110 352 95 Q 371 79 388 91 Q 440 124 598 138 Q 745 156 764 135 Q 774 125 763 86 Q 756 50 747 12 Q 740 -16 725 -35 Q 713 -47 662 -40 Q 613 -27 615 -37 Q 615 -43 624 -50 Q 676 -96 695 -129 Q 704 -148 720 -138 Q 771 -108 791 -41 Q 824 97 841 121 Q 854 136 843 148 Q 827 167 793 189 Q 774 201 746 190 Q 691 171 640 168 Q 622 167 601 164 L 567 160 Q 507 156 420 140 Q 398 133 393 154 Q 393 280 403 312 C 407 334 407 334 392 342 Z" fill="lightgray" />
    
      <path d="M 421 9 Q 451 10 480 14 Q 531 21 638 16 Q 657 15 662 22 Q 668 32 658 42 Q 633 64 595 79 Q 583 83 562 76 Q 321 28 183 24 Q 171 24 171 14 Q 170 4 186 -7 Q 201 -17 227 -26 Q 236 -29 251 -22 Q 260 -18 301 -11 Q 355 2 421 9 Z" fill="lightgray" />
    
    
      <clipPath id="make-me-a-hanzi-clip-0">
        <path d="M 385 706 Q 386 716 381 733 Q 375 751 312 763 Q 300 764 296 762 Q 292 759 294 750 Q 297 743 317 728 Q 333 715 350 699 C 372 678 384 676 385 706 Z" />
      </clipPath>
      <path clip-path="url(#make-me-a-hanzi-clip-0)" d="M 301 755 L 378 712" fill="none" id="make-me-a-hanzi-animation-0" stroke-dasharray="216 432" stroke-linecap="round" />
    
      <clipPath id="make-me-a-hanzi-clip-1">
        <path d="M 350 699 Q 343 699 339 697 Q 338 697 172 676 Q 148 675 166 659 Q 196 638 215 640 Q 365 667 476 676 Q 485 675 493 686 Q 494 696 475 705 Q 448 726 385 706 L 350 699 Z" />
      </clipPath>
      <path clip-path="url(#make-me-a-hanzi-clip-1)" d="M 167 668 L 204 660 L 418 693 L 483 688" fill="none" id="make-me-a-hanzi-animation-1" stroke-dasharray="448 896" stroke-linecap="round" />
    
      <clipPath id="make-me-a-hanzi-clip-2">
        <path d="M 258 617 Q 251 621 229 623 Q 220 624 218 621 Q 214 617 220 605 Q 238 577 251 528 Q 254 513 264 504 Q 277 488 281 500 Q 282 507 282 518 L 279 543 Q 272 586 271 598 C 270 612 270 612 258 617 Z" />
      </clipPath>
      <path clip-path="url(#make-me-a-hanzi-clip-2)" d="M 225 616 L 251 592 L 273 504" fill="none" id="make-me-a-hanzi-animation-2" stroke-dasharray="254 508" stroke-linecap="round" />
    
      <clipPath id="make-me-a-hanzi-clip-3">
        <path d="M 409 559 Q 421 589 433 597 Q 451 615 434 626 Q 421 636 401 649 Q 389 656 346 637 Q 298 624 258 617 C 228 612 242 591 271 598 Q 283 601 351 614 Q 373 618 377 610 Q 381 607 376 591 Q 373 581 370 567 C 363 538 397 531 409 559 Z" />
      </clipPath>
      <path clip-path="url(#make-me-a-hanzi-clip-3)" d="M 265 615 L 275 610 L 360 629 L 390 629 L 406 611 L 396 583 L 378 572" fill="none" id="make-me-a-hanzi-animation-3" stroke-dasharray="331 662" stroke-linecap="round" />
    
      <clipPath id="make-me-a-hanzi-clip-4">
        <path d="M 348 527 Q 376 533 415 536 Q 424 537 424 544 Q 424 548 409 559 L 370 567 Q 366 567 362 565 Q 316 552 279 543 C 250 536 252 515 282 518 Q 283 518 316 522 L 348 527 Z" />
      </clipPath>
      <path clip-path="url(#make-me-a-hanzi-clip-4)" d="M 283 525 L 294 533 L 370 549 L 417 543" fill="none" id="make-me-a-hanzi-animation-4" stroke-dasharray="267 534" stroke-linecap="round" />
    
      <clipPath id="make-me-a-hanzi-clip-5">
        <path d="M 350 359 Q 362 371 361 430 Q 358 478 362 481 C 365 492 365 492 362 503 Q 361 515 348 527 C 327 549 310 551 316 522 Q 323 495 318 422 Q 317 419 316 418 Q 315 405 290 406 Q 269 407 248 410 Q 239 409 239 405 Q 238 401 247 394 Q 298 363 316 342 Q 328 333 336 336 Q 339 337 342 342 L 350 359 Z" />
      </clipPath>
      <path clip-path="url(#make-me-a-hanzi-clip-5)" d="M 322 519 L 341 503 L 341 419 L 330 388 L 324 379 L 247 402" fill="none" id="make-me-a-hanzi-animation-5" stroke-dasharray="361 722" stroke-linecap="round" />
    
      <clipPath id="make-me-a-hanzi-clip-6">
        <path d="M 213 493 Q 189 465 160 439 Q 139 420 146 391 Q 147 378 166 382 Q 206 398 220 447 Q 230 469 230 489 Q 229 496 224 498 Q 217 498 213 493 Z" />
      </clipPath>
      <path clip-path="url(#make-me-a-hanzi-clip-6)" d="M 221 490 L 208 460 L 159 393" fill="none" id="make-me-a-hanzi-animation-6" stroke-dasharray="244 488" stroke-linecap="round" />
    
      <clipPath id="make-me-a-hanzi-clip-7">
        <path d="M 362 481 Q 390 448 407 449 Q 416 449 420 462 Q 420 471 412 484 Q 397 502 362 503 C 343 504 343 504 362 481 Z" />
      </clipPath>
      <path clip-path="url(#make-me-a-hanzi-clip-7)" d="M 370 498 L 405 464" fill="none" id="make-me-a-hanzi-animation-7" stroke-dasharray="177 354" stroke-linecap="round" />
    
      <clipPath id="make-me-a-hanzi-clip-8">
        <path d="M 549 652 L 472 644 Q 441 640 463 624 Q 493 609 535 610 L 585 620 Q 726 650 730 652 Q 737 659 734 666 Q 728 676 704 683 Q 679 689 652 679 Q 625 672 600 663 L 549 652 Z" />
      </clipPath>
      <path clip-path="url(#make-me-a-hanzi-clip-8)" d="M 465 635 L 537 630 L 685 664 L 726 661" fill="none" id="make-me-a-hanzi-animation-8" stroke-dasharray="393 786" stroke-linecap="round" />
    
      <clipPath id="make-me-a-hanzi-clip-9">
        <path d="M 600 663 Q 609 690 616 704 Q 625 713 621 724 Q 612 739 591 754 Q 579 764 569 763 Q 559 760 561 749 Q 568 730 549 652 L 535 610 Q 534 609 534 605 Q 504 523 421 431 Q 417 427 414 422 Q 410 415 418 415 Q 425 415 436 422 L 458 437 Q 533 489 585 620 L 600 663 Z" />
      </clipPath>
      <path clip-path="url(#make-me-a-hanzi-clip-9)" d="M 571 752 L 590 717 L 549 584 L 483 479 L 421 421" fill="none" id="make-me-a-hanzi-animation-9" stroke-dasharray="516 1032" stroke-linecap="round" />
    
      <clipPath id="make-me-a-hanzi-clip-10">
        <path d="M 866 457 Q 856 478 839 537 Q 838 550 833 554 Q 829 555 825 542 Q 806 476 792 456 Q 773 435 703 437 Q 678 438 657 446 Q 639 455 635 466 Q 626 488 640 561 Q 646 585 605 602 Q 595 605 587 601 Q 581 598 586 584 Q 596 551 594 521 Q 588 428 636 406 L 661 396 Q 775 365 862 425 Q 875 438 866 457 Z" />
      </clipPath>
      <path clip-path="url(#make-me-a-hanzi-clip-10)" d="M 594 594 L 614 571 L 612 490 L 617 458 L 642 428 L 675 416 L 751 412 L 815 433 L 830 448 L 830 548" fill="none" id="make-me-a-hanzi-animation-10" stroke-dasharray="611 1222" stroke-linecap="round" />
    
      <clipPath id="make-me-a-hanzi-clip-11">
        <path d="M 718 706 L 761 674 Q 773 665 786 667 Q 795 668 797 680 Q 800 693 789 716 Q 783 729 759 737 Q 699 749 692 743 Q 688 739 690 729 Q 694 720 718 706 Z" />
      </clipPath>
      <path clip-path="url(#make-me-a-hanzi-clip-11)" d="M 697 735 L 756 711 L 784 680" fill="none" id="make-me-a-hanzi-animation-11" stroke-dasharray="233 466" stroke-linecap="round" />
    
      <clipPath id="make-me-a-hanzi-clip-12">
        <path d="M 426 345 Q 465 375 488 388 Q 501 392 498 400 Q 488 428 458 437 C 439 443 439 443 436 422 Q 437 409 392 342 C 375 317 402 327 426 345 Z" />
      </clipPath>
      <path clip-path="url(#make-me-a-hanzi-clip-12)" d="M 484 401 L 461 405 L 408 352" fill="none" id="make-me-a-hanzi-animation-12" stroke-dasharray="226 452" stroke-linecap="round" />
    
      <clipPath id="make-me-a-hanzi-clip-13">
        <path d="M 601 164 Q 634 197 655 298 Q 661 328 673 341 Q 683 351 678 360 Q 671 369 631 387 Q 615 394 600 384 Q 569 368 426 345 C 379 337 359 305 403 312 Q 407 312 413 313 Q 513 338 584 345 Q 600 346 603 341 Q 609 335 608 317 Q 607 266 597 243 Q 584 218 560 222 Q 545 225 532 229 Q 513 236 526 216 Q 554 183 567 160 C 580 139 582 141 601 164 Z" />
      </clipPath>
      <path clip-path="url(#make-me-a-hanzi-clip-13)" d="M 398 336 L 422 330 L 606 364 L 628 357 L 637 347 L 631 293 L 619 241 L 607 217 L 582 193 L 537 219" fill="none" id="make-me-a-hanzi-animation-13" stroke-dasharray="598 1196" stroke-linecap="round" />
    
      <clipPath id="make-me-a-hanzi-clip-14">
        <path d="M 433 275 Q 467 230 486 226 Q 496 225 501 238 Q 502 248 496 263 Q 480 288 437 295 Q 430 296 429 288 Q 428 282 433 275 Z" />
      </clipPath>
      <path clip-path="url(#make-me-a-hanzi-clip-14)" d="M 439 284 L 471 261 L 487 240" fill="none" id="make-me-a-hanzi-animation-14" stroke-dasharray="194 388" stroke-linecap="round" />
    
      <clipPath id="make-me-a-hanzi-clip-15">
        <path d="M 392 342 Q 380 352 364 358 Q 354 362 350 359 C 336 363 336 363 342 342 Q 364 299 349 146 Q 337 110 352 95 Q 371 79 388 91 Q 440 124 598 138 Q 745 156 764 135 Q 774 125 763 86 Q 756 50 747 12 Q 740 -16 725 -35 Q 713 -47 662 -40 Q 613 -27 615 -37 Q 615 -43 624 -50 Q 676 -96 695 -129 Q 704 -148 720 -138 Q 771 -108 791 -41 Q 824 97 841 121 Q 854 136 843 148 Q 827 167 793 189 Q 774 201 746 190 Q 691 171 640 168 Q 622 167 601 164 L 567 160 Q 507 156 420 140 Q 398 133 393 154 Q 393 280 403 312 C 407 334 407 334 392 342 Z" />
      </clipPath>
      <path clip-path="url(#make-me-a-hanzi-clip-15)" d="M 356 351 L 377 312 L 370 156 L 376 121 L 403 120 L 495 140 L 745 167 L 783 160 L 805 134 L 767 -22 L 737 -72 L 718 -84 L 656 -57 L 646 -47 L 623 -41" fill="none" id="make-me-a-hanzi-animation-15" stroke-dasharray="1156 2312" stroke-linecap="round" />
    
      <clipPath id="make-me-a-hanzi-clip-16">
        <path d="M 421 9 Q 451 10 480 14 Q 531 21 638 16 Q 657 15 662 22 Q 668 32 658 42 Q 633 64 595 79 Q 583 83 562 76 Q 321 28 183 24 Q 171 24 171 14 Q 170 4 186 -7 Q 201 -17 227 -26 Q 236 -29 251 -22 Q 260 -18 301 -11 Q 355 2 421 9 Z" />
      </clipPath>
      <path clip-path="url(#make-me-a-hanzi-clip-16)" d="M 183 12 L 233 0 L 576 49 L 652 29" fill="none" id="make-me-a-hanzi-animation-16" stroke-dasharray="604 1208" stroke-linecap="round" />
    
  </g>
</svg>