<svg xmlns="http://www.w3.org/2000/svg" version="1.1" viewBox="0 0 1024 1024">
  <g stroke="lightgray" stroke-dasharray="1,1" stroke-width="1" transform="scale(4, 4)">
    <line x1="0" y1="0" x2="256" y2="256" />
    <line x1="256" y1="0" x2="0" y2="256" />
    <line x1="128" y1="0" x2="128" y2="256" />
    <line x1="0" y1="128" x2="256" y2="128" />
  </g>
  <g transform="scale(1.0, -1.0) translate(0.0, -830.00)">
    <style type="text/css">
      
        @keyframes keyframes0 {
          from {
            stroke: blue;
            stroke-dashoffset: 385;
            stroke-width: 128;
          }
          56% {
            animation-timing-function: step-end;
            stroke: blue;
            stroke-dashoffset: 0;
            stroke-width: 128;
          }
          to {
            stroke: black;
            stroke-width: 1024;
          }
        }
        #make-me-a-hanzi-animation-0 {
          animation: keyframes0 0.5633138020833334s both;
          animation-delay: 0s;
          animation-timing-function: linear;
        }
      
        @keyframes keyframes1 {
          from {
            stroke: blue;
            stroke-dashoffset: 546;
            stroke-width: 128;
          }
          64% {
            animation-timing-function: step-end;
            stroke: blue;
            stroke-dashoffset: 0;
            stroke-width: 128;
          }
          to {
            stroke: black;
            stroke-width: 1024;
          }
        }
        #make-me-a-hanzi-animation-1 {
          animation: keyframes1 0.6943359375s both;
          animation-delay: 0.5633138020833334s;
          animation-timing-function: linear;
        }
      
        @keyframes keyframes2 {
          from {
            stroke: blue;
            stroke-dashoffset: 869;
            stroke-width: 128;
          }
          74% {
            animation-timing-function: step-end;
            stroke: blue;
            stroke-dashoffset: 0;
            stroke-width: 128;
          }
          to {
            stroke: black;
            stroke-width: 1024;
          }
        }
        #make-me-a-hanzi-animation-2 {
          animation: keyframes2 0.9571940104166666s both;
          animation-delay: 1.2576497395833335s;
          animation-timing-function: linear;
        }
      
        @keyframes keyframes3 {
          from {
            stroke: blue;
            stroke-dashoffset: 566;
            stroke-width: 128;
          }
          65% {
            animation-timing-function: step-end;
            stroke: blue;
            stroke-dashoffset: 0;
            stroke-width: 128;
          }
          to {
            stroke: black;
            stroke-width: 1024;
          }
        }
        #make-me-a-hanzi-animation-3 {
          animation: keyframes3 0.7106119791666666s both;
          animation-delay: 2.21484375s;
          animation-timing-function: linear;
        }
      
        @keyframes keyframes4 {
          from {
            stroke: blue;
            stroke-dashoffset: 484;
            stroke-width: 128;
          }
          61% {
            animation-timing-function: step-end;
            stroke: blue;
            stroke-dashoffset: 0;
            stroke-width: 128;
          }
          to {
            stroke: black;
            stroke-width: 1024;
          }
        }
        #make-me-a-hanzi-animation-4 {
          animation: keyframes4 0.6438802083333334s both;
          animation-delay: 2.9254557291666665s;
          animation-timing-function: linear;
        }
      
        @keyframes keyframes5 {
          from {
            stroke: blue;
            stroke-dashoffset: 490;
            stroke-width: 128;
          }
          61% {
            animation-timing-function: step-end;
            stroke: blue;
            stroke-dashoffset: 0;
            stroke-width: 128;
          }
          to {
            stroke: black;
            stroke-width: 1024;
          }
        }
        #make-me-a-hanzi-animation-5 {
          animation: keyframes5 0.6487630208333334s both;
          animation-delay: 3.5693359375s;
          animation-timing-function: linear;
        }
      
        @keyframes keyframes6 {
          from {
            stroke: blue;
            stroke-dashoffset: 376;
            stroke-width: 128;
          }
          55% {
            animation-timing-function: step-end;
            stroke: blue;
            stroke-dashoffset: 0;
            stroke-width: 128;
          }
          to {
            stroke: black;
            stroke-width: 1024;
          }
        }
        #make-me-a-hanzi-animation-6 {
          animation: keyframes6 0.5559895833333334s both;
          animation-delay: 4.218098958333333s;
          animation-timing-function: linear;
        }
      
        @keyframes keyframes7 {
          from {
            stroke: blue;
            stroke-dashoffset: 385;
            stroke-width: 128;
          }
          56% {
            animation-timing-function: step-end;
            stroke: blue;
            stroke-dashoffset: 0;
            stroke-width: 128;
          }
          to {
            stroke: black;
            stroke-width: 1024;
          }
        }
        #make-me-a-hanzi-animation-7 {
          animation: keyframes7 0.5633138020833334s both;
          animation-delay: 4.774088541666666s;
          animation-timing-function: linear;
        }
      
        @keyframes keyframes8 {
          from {
            stroke: blue;
            stroke-dashoffset: 340;
            stroke-width: 128;
          }
          53% {
            animation-timing-function: step-end;
            stroke: blue;
            stroke-dashoffset: 0;
            stroke-width: 128;
          }
          to {
            stroke: black;
            stroke-width: 1024;
          }
        }
        #make-me-a-hanzi-animation-8 {
          animation: keyframes8 0.5266927083333334s both;
          animation-delay: 5.337402343749999s;
          animation-timing-function: linear;
        }
      
        @keyframes keyframes9 {
          from {
            stroke: blue;
            stroke-dashoffset: 316;
            stroke-width: 128;
          }
          51% {
            animation-timing-function: step-end;
            stroke: blue;
            stroke-dashoffset: 0;
            stroke-width: 128;
          }
          to {
            stroke: black;
            stroke-width: 1024;
          }
        }
        #make-me-a-hanzi-animation-9 {
          animation: keyframes9 0.5071614583333334s both;
          animation-delay: 5.864095052083332s;
          animation-timing-function: linear;
        }
      
        @keyframes keyframes10 {
          from {
            stroke: blue;
            stroke-dashoffset: 322;
            stroke-width: 128;
          }
          51% {
            animation-timing-function: step-end;
            stroke: blue;
            stroke-dashoffset: 0;
            stroke-width: 128;
          }
          to {
            stroke: black;
            stroke-width: 1024;
          }
        }
        #make-me-a-hanzi-animation-10 {
          animation: keyframes10 0.5120442708333334s both;
          animation-delay: 6.371256510416665s;
          animation-timing-function: linear;
        }
      
        @keyframes keyframes11 {
          from {
            stroke: blue;
            stroke-dashoffset: 444;
            stroke-width: 128;
          }
          59% {
            animation-timing-function: step-end;
            stroke: blue;
            stroke-dashoffset: 0;
            stroke-width: 128;
          }
          to {
            stroke: black;
            stroke-width: 1024;
          }
        }
        #make-me-a-hanzi-animation-11 {
          animation: keyframes11 0.611328125s both;
          animation-delay: 6.883300781249998s;
          animation-timing-function: linear;
        }
      
        @keyframes keyframes12 {
          from {
            stroke: blue;
            stroke-dashoffset: 719;
            stroke-width: 128;
          }
          70% {
            animation-timing-function: step-end;
            stroke: blue;
            stroke-dashoffset: 0;
            stroke-width: 128;
          }
          to {
            stroke: black;
            stroke-width: 1024;
          }
        }
        #make-me-a-hanzi-animation-12 {
          animation: keyframes12 0.8351236979166666s both;
          animation-delay: 7.494628906249998s;
          animation-timing-function: linear;
        }
      
        @keyframes keyframes13 {
          from {
            stroke: blue;
            stroke-dashoffset: 325;
            stroke-width: 128;
          }
          51% {
            animation-timing-function: step-end;
            stroke: blue;
            stroke-dashoffset: 0;
            stroke-width: 128;
          }
          to {
            stroke: black;
            stroke-width: 1024;
          }
        }
        #make-me-a-hanzi-animation-13 {
          animation: keyframes13 0.5144856770833334s both;
          animation-delay: 8.329752604166664s;
          animation-timing-function: linear;
        }
      
        @keyframes keyframes14 {
          from {
            stroke: blue;
            stroke-dashoffset: 1360;
            stroke-width: 128;
          }
          82% {
            animation-timing-function: step-end;
            stroke: blue;
            stroke-dashoffset: 0;
            stroke-width: 128;
          }
          to {
            stroke: black;
            stroke-width: 1024;
          }
        }
        #make-me-a-hanzi-animation-14 {
          animation: keyframes14 1.3567708333333333s both;
          animation-delay: 8.844238281249998s;
          animation-timing-function: linear;
        }
      
        @keyframes keyframes15 {
          from {
            stroke: blue;
            stroke-dashoffset: 643;
            stroke-width: 128;
          }
          68% {
            animation-timing-function: step-end;
            stroke: blue;
            stroke-dashoffset: 0;
            stroke-width: 128;
          }
          to {
            stroke: black;
            stroke-width: 1024;
          }
        }
        #make-me-a-hanzi-animation-15 {
          animation: keyframes15 0.7732747395833334s both;
          animation-delay: 10.201009114583332s;
          animation-timing-function: linear;
        }
      
    </style>
    
      <path d="M 324 680 L 369 635 Q 384 622 400 622 Q 410 623 417 637 Q 421 652 412 683 Q 403 710 319 730 Q 303 734 296 731 Q 290 727 292 714 Q 296 702 324 680 Z" fill="lightgray" />
    
      <path d="M 225 515 Q 280 515 360 532 Q 502 566 507 570 Q 516 577 511 585 Q 504 595 477 602 Q 452 606 342 570 Q 234 549 214 546 C 184 541 195 515 225 515 Z" fill="lightgray" />
    
      <path d="M 215 371 Q 221 494 225 515 C 228 538 228 538 214 546 Q 172 574 153 566 Q 143 559 149 547 Q 167 525 168 451 Q 168 294 140 194 Q 113 104 52 -4 Q 48 -10 47 -16 Q 46 -26 55 -23 Q 82 -17 145 95 L 164 139 Q 200 235 214 365 L 215 371 Z" fill="lightgray" />
    
      <path d="M 453 382 Q 487 389 518 393 Q 527 392 534 403 Q 535 412 516 420 Q 494 435 468 428 Q 464 427 461 426 L 418 413 Q 367 401 332 392 L 291 384 Q 219 378 215 371 C 210 369 210 369 214 365 Q 221 358 243 345 Q 246 345 296 349 L 331 358 Q 370 368 416 376 L 453 382 Z" fill="lightgray" />
    
      <path d="M 332 392 Q 332 411 334 421 Q 338 434 330 442 Q 318 451 299 458 Q 283 462 269 455 Q 262 449 271 439 Q 286 424 291 384 L 296 349 Q 299 328 303 265 Q 306 246 312 232 Q 316 225 323 230 Q 329 236 329 251 L 331 276 L 331 358 L 332 392 Z" fill="lightgray" />
    
      <path d="M 437 293 Q 444 339 453 382 L 461 426 Q 462 448 480 490 Q 483 497 470 510 Q 446 526 429 530 Q 419 534 412 528 Q 406 524 411 512 Q 421 493 421 479 Q 420 448 418 413 L 416 376 Q 412 339 407 298 C 403 268 432 263 437 293 Z" fill="lightgray" />
    
      <path d="M 329 251 Q 339 251 350 252 Q 381 259 448 267 Q 455 268 457 276 Q 457 282 437 293 C 423 301 423 301 407 298 Q 400 297 394 295 L 331 276 C 302 267 299 251 329 251 Z" fill="lightgray" />
    
      <path d="M 210 152 Q 203 109 187 68 Q 175 43 197 16 Q 206 4 220 17 Q 250 56 240 112 Q 239 139 228 156 Q 222 162 218 161 Q 211 160 210 152 Z" fill="lightgray" />
    
      <path d="M 282 153 Q 300 83 317 72 Q 326 68 337 78 Q 341 87 342 104 Q 341 120 326 136 Q 305 163 294 171 Q 288 175 283 167 Q 279 163 282 153 Z" fill="lightgray" />
    
      <path d="M 356 169 Q 375 118 393 110 Q 403 106 412 118 Q 416 128 413 145 Q 404 169 366 188 Q 359 192 356 183 Q 353 177 356 169 Z" fill="lightgray" />
    
      <path d="M 433 205 Q 454 153 471 146 Q 480 142 487 153 Q 490 160 488 175 Q 478 205 440 220 Q 434 223 432 216 Q 431 212 433 205 Z" fill="lightgray" />
    
      <path d="M 600 563 L 652 617 Q 701 677 716 686 Q 732 699 720 712 Q 704 725 678 732 Q 654 739 644 734 Q 634 730 639 719 Q 648 698 600 599 L 585 570 C 571 543 579 541 600 563 Z" fill="lightgray" />
    
      <path d="M 611 527 Q 648 543 744 568 Q 753 569 759 566 Q 769 562 770 544 Q 770 501 757 426 Q 756 410 740 410 Q 721 414 705 418 Q 692 422 694 414 Q 695 407 715 387 Q 737 362 749 335 Q 756 326 766 330 Q 773 333 785 355 Q 800 382 809 455 Q 812 542 827 559 Q 836 568 831 577 Q 824 587 790 606 Q 778 612 724 596 Q 715 596 640 573 Q 618 569 600 563 C 571 554 583 516 611 527 Z" fill="lightgray" />
    
      <path d="M 626 477 Q 665 431 683 430 Q 692 429 696 442 Q 697 451 690 465 Q 674 489 628 495 Q 622 496 621 488 Q 620 482 626 477 Z" fill="lightgray" />
    
      <path d="M 610 526 Q 609 527 611 527 C 625 578 613 560 585 570 Q 576 576 567 579 Q 549 585 541 576 Q 535 572 543 560 Q 558 530 556 468 Q 555 419 554 356 Q 554 295 542 245 Q 536 226 551 211 Q 569 196 591 209 Q 640 242 808 252 Q 844 261 863 242 Q 875 232 861 189 Q 854 137 844 81 Q 837 38 817 11 Q 808 -1 784 2 L 722 18 Q 706 22 707 15 Q 707 9 716 2 Q 770 -49 789 -84 Q 799 -103 816 -94 Q 876 -60 887 -3 Q 903 75 916 162 Q 923 199 942 229 Q 955 245 944 257 Q 928 276 891 298 Q 870 311 842 298 Q 805 283 771 280 Q 722 276 621 257 Q 596 253 596 274 Q 595 343 597 414 Q 596 484 610 526 Z" fill="lightgray" />
    
      <path d="M 636 93 Q 750 108 801 105 Q 820 104 825 112 Q 829 124 819 132 Q 792 153 755 166 Q 742 170 722 161 Q 578 122 437 107 Q 425 106 425 97 Q 425 87 442 76 Q 457 67 484 60 Q 493 57 507 65 Q 540 78 636 93 Z" fill="lightgray" />
    
    
      <clipPath id="make-me-a-hanzi-clip-0">
        <path d="M 324 680 L 369 635 Q 384 622 400 622 Q 410 623 417 637 Q 421 652 412 683 Q 403 710 319 730 Q 303 734 296 731 Q 290 727 292 714 Q 296 702 324 680 Z" />
      </clipPath>
      <path clip-path="url(#make-me-a-hanzi-clip-0)" d="M 302 723 L 381 671 L 397 640" fill="none" id="make-me-a-hanzi-animation-0" stroke-dasharray="257 514" stroke-linecap="round" />
    
      <clipPath id="make-me-a-hanzi-clip-1">
        <path d="M 225 515 Q 280 515 360 532 Q 502 566 507 570 Q 516 577 511 585 Q 504 595 477 602 Q 452 606 342 570 Q 234 549 214 546 C 184 541 195 515 225 515 Z" />
      </clipPath>
      <path clip-path="url(#make-me-a-hanzi-clip-1)" d="M 218 541 L 237 533 L 256 534 L 347 549 L 468 581 L 501 580" fill="none" id="make-me-a-hanzi-animation-1" stroke-dasharray="418 836" stroke-linecap="round" />
    
      <clipPath id="make-me-a-hanzi-clip-2">
        <path d="M 215 371 Q 221 494 225 515 C 228 538 228 538 214 546 Q 172 574 153 566 Q 143 559 149 547 Q 167 525 168 451 Q 168 294 140 194 Q 113 104 52 -4 Q 48 -10 47 -16 Q 46 -26 55 -23 Q 82 -17 145 95 L 164 139 Q 200 235 214 365 L 215 371 Z" />
      </clipPath>
      <path clip-path="url(#make-me-a-hanzi-clip-2)" d="M 160 555 L 189 528 L 194 510 L 192 384 L 174 247 L 157 178 L 124 93 L 85 24 L 55 -15" fill="none" id="make-me-a-hanzi-animation-2" stroke-dasharray="741 1482" stroke-linecap="round" />
    
      <clipPath id="make-me-a-hanzi-clip-3">
        <path d="M 453 382 Q 487 389 518 393 Q 527 392 534 403 Q 535 412 516 420 Q 494 435 468 428 Q 464 427 461 426 L 418 413 Q 367 401 332 392 L 291 384 Q 219 378 215 371 C 210 369 210 369 214 365 Q 221 358 243 345 Q 246 345 296 349 L 331 358 Q 370 368 416 376 L 453 382 Z" />
      </clipPath>
      <path clip-path="url(#make-me-a-hanzi-clip-3)" d="M 221 367 L 244 362 L 298 367 L 478 409 L 525 404" fill="none" id="make-me-a-hanzi-animation-3" stroke-dasharray="438 876" stroke-linecap="round" />
    
      <clipPath id="make-me-a-hanzi-clip-4">
        <path d="M 332 392 Q 332 411 334 421 Q 338 434 330 442 Q 318 451 299 458 Q 283 462 269 455 Q 262 449 271 439 Q 286 424 291 384 L 296 349 Q 299 328 303 265 Q 306 246 312 232 Q 316 225 323 230 Q 329 236 329 251 L 331 276 L 331 358 L 332 392 Z" />
      </clipPath>
      <path clip-path="url(#make-me-a-hanzi-clip-4)" d="M 276 448 L 290 443 L 308 425 L 319 238" fill="none" id="make-me-a-hanzi-animation-4" stroke-dasharray="356 712" stroke-linecap="round" />
    
      <clipPath id="make-me-a-hanzi-clip-5">
        <path d="M 437 293 Q 444 339 453 382 L 461 426 Q 462 448 480 490 Q 483 497 470 510 Q 446 526 429 530 Q 419 534 412 528 Q 406 524 411 512 Q 421 493 421 479 Q 420 448 418 413 L 416 376 Q 412 339 407 298 C 403 268 432 263 437 293 Z" />
      </clipPath>
      <path clip-path="url(#make-me-a-hanzi-clip-5)" d="M 420 520 L 448 492 L 424 311 L 431 302" fill="none" id="make-me-a-hanzi-animation-5" stroke-dasharray="362 724" stroke-linecap="round" />
    
      <clipPath id="make-me-a-hanzi-clip-6">
        <path d="M 329 251 Q 339 251 350 252 Q 381 259 448 267 Q 455 268 457 276 Q 457 282 437 293 C 423 301 423 301 407 298 Q 400 297 394 295 L 331 276 C 302 267 299 251 329 251 Z" />
      </clipPath>
      <path clip-path="url(#make-me-a-hanzi-clip-6)" d="M 334 257 L 367 272 L 412 281 L 449 275" fill="none" id="make-me-a-hanzi-animation-6" stroke-dasharray="248 496" stroke-linecap="round" />
    
      <clipPath id="make-me-a-hanzi-clip-7">
        <path d="M 210 152 Q 203 109 187 68 Q 175 43 197 16 Q 206 4 220 17 Q 250 56 240 112 Q 239 139 228 156 Q 222 162 218 161 Q 211 160 210 152 Z" />
      </clipPath>
      <path clip-path="url(#make-me-a-hanzi-clip-7)" d="M 220 152 L 221 102 L 208 24" fill="none" id="make-me-a-hanzi-animation-7" stroke-dasharray="257 514" stroke-linecap="round" />
    
      <clipPath id="make-me-a-hanzi-clip-8">
        <path d="M 282 153 Q 300 83 317 72 Q 326 68 337 78 Q 341 87 342 104 Q 341 120 326 136 Q 305 163 294 171 Q 288 175 283 167 Q 279 163 282 153 Z" />
      </clipPath>
      <path clip-path="url(#make-me-a-hanzi-clip-8)" d="M 292 160 L 320 105 L 322 83" fill="none" id="make-me-a-hanzi-animation-8" stroke-dasharray="212 424" stroke-linecap="round" />
    
      <clipPath id="make-me-a-hanzi-clip-9">
        <path d="M 356 169 Q 375 118 393 110 Q 403 106 412 118 Q 416 128 413 145 Q 404 169 366 188 Q 359 192 356 183 Q 353 177 356 169 Z" />
      </clipPath>
      <path clip-path="url(#make-me-a-hanzi-clip-9)" d="M 366 176 L 398 125" fill="none" id="make-me-a-hanzi-animation-9" stroke-dasharray="188 376" stroke-linecap="round" />
    
      <clipPath id="make-me-a-hanzi-clip-10">
        <path d="M 433 205 Q 454 153 471 146 Q 480 142 487 153 Q 490 160 488 175 Q 478 205 440 220 Q 434 223 432 216 Q 431 212 433 205 Z" />
      </clipPath>
      <path clip-path="url(#make-me-a-hanzi-clip-10)" d="M 439 211 L 465 181 L 476 157" fill="none" id="make-me-a-hanzi-animation-10" stroke-dasharray="194 388" stroke-linecap="round" />
    
      <clipPath id="make-me-a-hanzi-clip-11">
        <path d="M 600 563 L 652 617 Q 701 677 716 686 Q 732 699 720 712 Q 704 725 678 732 Q 654 739 644 734 Q 634 730 639 719 Q 648 698 600 599 L 585 570 C 571 543 579 541 600 563 Z" />
      </clipPath>
      <path clip-path="url(#make-me-a-hanzi-clip-11)" d="M 651 723 L 675 697 L 644 639 L 600 575 L 591 573" fill="none" id="make-me-a-hanzi-animation-11" stroke-dasharray="316 632" stroke-linecap="round" />
    
      <clipPath id="make-me-a-hanzi-clip-12">
        <path d="M 611 527 Q 648 543 744 568 Q 753 569 759 566 Q 769 562 770 544 Q 770 501 757 426 Q 756 410 740 410 Q 721 414 705 418 Q 692 422 694 414 Q 695 407 715 387 Q 737 362 749 335 Q 756 326 766 330 Q 773 333 785 355 Q 800 382 809 455 Q 812 542 827 559 Q 836 568 831 577 Q 824 587 790 606 Q 778 612 724 596 Q 715 596 640 573 Q 618 569 600 563 C 571 554 583 516 611 527 Z" />
      </clipPath>
      <path clip-path="url(#make-me-a-hanzi-clip-12)" d="M 613 534 L 623 552 L 738 585 L 770 585 L 796 567 L 785 448 L 774 400 L 761 382 L 700 413" fill="none" id="make-me-a-hanzi-animation-12" stroke-dasharray="591 1182" stroke-linecap="round" />
    
      <clipPath id="make-me-a-hanzi-clip-13">
        <path d="M 626 477 Q 665 431 683 430 Q 692 429 696 442 Q 697 451 690 465 Q 674 489 628 495 Q 622 496 621 488 Q 620 482 626 477 Z" />
      </clipPath>
      <path clip-path="url(#make-me-a-hanzi-clip-13)" d="M 630 486 L 666 463 L 683 443" fill="none" id="make-me-a-hanzi-animation-13" stroke-dasharray="197 394" stroke-linecap="round" />
    
      <clipPath id="make-me-a-hanzi-clip-14">
        <path d="M 610 526 Q 609 527 611 527 C 625 578 613 560 585 570 Q 576 576 567 579 Q 549 585 541 576 Q 535 572 543 560 Q 558 530 556 468 Q 555 419 554 356 Q 554 295 542 245 Q 536 226 551 211 Q 569 196 591 209 Q 640 242 808 252 Q 844 261 863 242 Q 875 232 861 189 Q 854 137 844 81 Q 837 38 817 11 Q 808 -1 784 2 L 722 18 Q 706 22 707 15 Q 707 9 716 2 Q 770 -49 789 -84 Q 799 -103 816 -94 Q 876 -60 887 -3 Q 903 75 916 162 Q 923 199 942 229 Q 955 245 944 257 Q 928 276 891 298 Q 870 311 842 298 Q 805 283 771 280 Q 722 276 621 257 Q 596 253 596 274 Q 595 343 597 414 Q 596 484 610 526 Z" />
      </clipPath>
      <path clip-path="url(#make-me-a-hanzi-clip-14)" d="M 550 569 L 577 544 L 581 528 L 575 239 L 618 240 L 703 258 L 842 276 L 865 276 L 882 268 L 905 241 L 865 39 L 842 -19 L 815 -40 L 716 11" fill="none" id="make-me-a-hanzi-animation-14" stroke-dasharray="1232 2464" stroke-linecap="round" />
    
      <clipPath id="make-me-a-hanzi-clip-15">
        <path d="M 636 93 Q 750 108 801 105 Q 820 104 825 112 Q 829 124 819 132 Q 792 153 755 166 Q 742 170 722 161 Q 578 122 437 107 Q 425 106 425 97 Q 425 87 442 76 Q 457 67 484 60 Q 493 57 507 65 Q 540 78 636 93 Z" />
      </clipPath>
      <path clip-path="url(#make-me-a-hanzi-clip-15)" d="M 436 96 L 490 86 L 745 136 L 815 118" fill="none" id="make-me-a-hanzi-animation-15" stroke-dasharray="515 1030" stroke-linecap="round" />
    
  </g>
</svg>