<svg xmlns="http://www.w3.org/2000/svg" version="1.1" viewBox="0 0 1024 1024">
  <g stroke="lightgray" stroke-dasharray="1,1" stroke-width="1" transform="scale(4, 4)">
    <line x1="0" y1="0" x2="256" y2="256" />
    <line x1="256" y1="0" x2="0" y2="256" />
    <line x1="128" y1="0" x2="128" y2="256" />
    <line x1="0" y1="128" x2="256" y2="128" />
  </g>
  <g transform="scale(1.0, -1.0) translate(0.0, -820.00)">
    <style type="text/css">
      
        @keyframes keyframes0 {
          from {
            stroke: blue;
            stroke-dashoffset: 409;
            stroke-width: 128;
          }
          57% {
            animation-timing-function: step-end;
            stroke: blue;
            stroke-dashoffset: 0;
            stroke-width: 128;
          }
          to {
            stroke: black;
            stroke-width: 1024;
          }
        }
        #make-me-a-hanzi-animation-0 {
          animation: keyframes0 0.5828450520833334s both;
          animation-delay: 0s;
          animation-timing-function: linear;
        }
      
        @keyframes keyframes1 {
          from {
            stroke: blue;
            stroke-dashoffset: 469;
            stroke-width: 128;
          }
          60% {
            animation-timing-function: step-end;
            stroke: blue;
            stroke-dashoffset: 0;
            stroke-width: 128;
          }
          to {
            stroke: black;
            stroke-width: 1024;
          }
        }
        #make-me-a-hanzi-animation-1 {
          animation: keyframes1 0.6316731770833334s both;
          animation-delay: 0.5828450520833334s;
          animation-timing-function: linear;
        }
      
        @keyframes keyframes2 {
          from {
            stroke: blue;
            stroke-dashoffset: 394;
            stroke-width: 128;
          }
          56% {
            animation-timing-function: step-end;
            stroke: blue;
            stroke-dashoffset: 0;
            stroke-width: 128;
          }
          to {
            stroke: black;
            stroke-width: 1024;
          }
        }
        #make-me-a-hanzi-animation-2 {
          animation: keyframes2 0.5706380208333334s both;
          animation-delay: 1.2145182291666667s;
          animation-timing-function: linear;
        }
      
        @keyframes keyframes3 {
          from {
            stroke: blue;
            stroke-dashoffset: 398;
            stroke-width: 128;
          }
          56% {
            animation-timing-function: step-end;
            stroke: blue;
            stroke-dashoffset: 0;
            stroke-width: 128;
          }
          to {
            stroke: black;
            stroke-width: 1024;
          }
        }
        #make-me-a-hanzi-animation-3 {
          animation: keyframes3 0.5738932291666666s both;
          animation-delay: 1.78515625s;
          animation-timing-function: linear;
        }
      
        @keyframes keyframes4 {
          from {
            stroke: blue;
            stroke-dashoffset: 348;
            stroke-width: 128;
          }
          53% {
            animation-timing-function: step-end;
            stroke: blue;
            stroke-dashoffset: 0;
            stroke-width: 128;
          }
          to {
            stroke: black;
            stroke-width: 1024;
          }
        }
        #make-me-a-hanzi-animation-4 {
          animation: keyframes4 0.533203125s both;
          animation-delay: 2.3590494791666665s;
          animation-timing-function: linear;
        }
      
        @keyframes keyframes5 {
          from {
            stroke: blue;
            stroke-dashoffset: 379;
            stroke-width: 128;
          }
          55% {
            animation-timing-function: step-end;
            stroke: blue;
            stroke-dashoffset: 0;
            stroke-width: 128;
          }
          to {
            stroke: black;
            stroke-width: 1024;
          }
        }
        #make-me-a-hanzi-animation-5 {
          animation: keyframes5 0.5584309895833334s both;
          animation-delay: 2.8922526041666665s;
          animation-timing-function: linear;
        }
      
        @keyframes keyframes6 {
          from {
            stroke: blue;
            stroke-dashoffset: 551;
            stroke-width: 128;
          }
          64% {
            animation-timing-function: step-end;
            stroke: blue;
            stroke-dashoffset: 0;
            stroke-width: 128;
          }
          to {
            stroke: black;
            stroke-width: 1024;
          }
        }
        #make-me-a-hanzi-animation-6 {
          animation: keyframes6 0.6984049479166666s both;
          animation-delay: 3.45068359375s;
          animation-timing-function: linear;
        }
      
        @keyframes keyframes7 {
          from {
            stroke: blue;
            stroke-dashoffset: 450;
            stroke-width: 128;
          }
          59% {
            animation-timing-function: step-end;
            stroke: blue;
            stroke-dashoffset: 0;
            stroke-width: 128;
          }
          to {
            stroke: black;
            stroke-width: 1024;
          }
        }
        #make-me-a-hanzi-animation-7 {
          animation: keyframes7 0.6162109375s both;
          animation-delay: 4.149088541666667s;
          animation-timing-function: linear;
        }
      
        @keyframes keyframes8 {
          from {
            stroke: blue;
            stroke-dashoffset: 693;
            stroke-width: 128;
          }
          69% {
            animation-timing-function: step-end;
            stroke: blue;
            stroke-dashoffset: 0;
            stroke-width: 128;
          }
          to {
            stroke: black;
            stroke-width: 1024;
          }
        }
        #make-me-a-hanzi-animation-8 {
          animation: keyframes8 0.81396484375s both;
          animation-delay: 4.765299479166667s;
          animation-timing-function: linear;
        }
      
        @keyframes keyframes9 {
          from {
            stroke: blue;
            stroke-dashoffset: 639;
            stroke-width: 128;
          }
          68% {
            animation-timing-function: step-end;
            stroke: blue;
            stroke-dashoffset: 0;
            stroke-width: 128;
          }
          to {
            stroke: black;
            stroke-width: 1024;
          }
        }
        #make-me-a-hanzi-animation-9 {
          animation: keyframes9 0.77001953125s both;
          animation-delay: 5.579264322916667s;
          animation-timing-function: linear;
        }
      
        @keyframes keyframes10 {
          from {
            stroke: blue;
            stroke-dashoffset: 395;
            stroke-width: 128;
          }
          56% {
            animation-timing-function: step-end;
            stroke: blue;
            stroke-dashoffset: 0;
            stroke-width: 128;
          }
          to {
            stroke: black;
            stroke-width: 1024;
          }
        }
        #make-me-a-hanzi-animation-10 {
          animation: keyframes10 0.5714518229166666s both;
          animation-delay: 6.349283854166667s;
          animation-timing-function: linear;
        }
      
        @keyframes keyframes11 {
          from {
            stroke: blue;
            stroke-dashoffset: 456;
            stroke-width: 128;
          }
          60% {
            animation-timing-function: step-end;
            stroke: blue;
            stroke-dashoffset: 0;
            stroke-width: 128;
          }
          to {
            stroke: black;
            stroke-width: 1024;
          }
        }
        #make-me-a-hanzi-animation-11 {
          animation: keyframes11 0.62109375s both;
          animation-delay: 6.920735677083334s;
          animation-timing-function: linear;
        }
      
        @keyframes keyframes12 {
          from {
            stroke: blue;
            stroke-dashoffset: 387;
            stroke-width: 128;
          }
          56% {
            animation-timing-function: step-end;
            stroke: blue;
            stroke-dashoffset: 0;
            stroke-width: 128;
          }
          to {
            stroke: black;
            stroke-width: 1024;
          }
        }
        #make-me-a-hanzi-animation-12 {
          animation: keyframes12 0.56494140625s both;
          animation-delay: 7.541829427083334s;
          animation-timing-function: linear;
        }
      
        @keyframes keyframes13 {
          from {
            stroke: blue;
            stroke-dashoffset: 371;
            stroke-width: 128;
          }
          55% {
            animation-timing-function: step-end;
            stroke: blue;
            stroke-dashoffset: 0;
            stroke-width: 128;
          }
          to {
            stroke: black;
            stroke-width: 1024;
          }
        }
        #make-me-a-hanzi-animation-13 {
          animation: keyframes13 0.5519205729166666s both;
          animation-delay: 8.106770833333334s;
          animation-timing-function: linear;
        }
      
        @keyframes keyframes14 {
          from {
            stroke: blue;
            stroke-dashoffset: 714;
            stroke-width: 128;
          }
          70% {
            animation-timing-function: step-end;
            stroke: blue;
            stroke-dashoffset: 0;
            stroke-width: 128;
          }
          to {
            stroke: black;
            stroke-width: 1024;
          }
        }
        #make-me-a-hanzi-animation-14 {
          animation: keyframes14 0.8310546875s both;
          animation-delay: 8.65869140625s;
          animation-timing-function: linear;
        }
      
        @keyframes keyframes15 {
          from {
            stroke: blue;
            stroke-dashoffset: 312;
            stroke-width: 128;
          }
          50% {
            animation-timing-function: step-end;
            stroke: blue;
            stroke-dashoffset: 0;
            stroke-width: 128;
          }
          to {
            stroke: black;
            stroke-width: 1024;
          }
        }
        #make-me-a-hanzi-animation-15 {
          animation: keyframes15 0.50390625s both;
          animation-delay: 9.48974609375s;
          animation-timing-function: linear;
        }
      
        @keyframes keyframes16 {
          from {
            stroke: blue;
            stroke-dashoffset: 1248;
            stroke-width: 128;
          }
          80% {
            animation-timing-function: step-end;
            stroke: blue;
            stroke-dashoffset: 0;
            stroke-width: 128;
          }
          to {
            stroke: black;
            stroke-width: 1024;
          }
        }
        #make-me-a-hanzi-animation-16 {
          animation: keyframes16 1.265625s both;
          animation-delay: 9.99365234375s;
          animation-timing-function: linear;
        }
      
        @keyframes keyframes17 {
          from {
            stroke: blue;
            stroke-dashoffset: 736;
            stroke-width: 128;
          }
          71% {
            animation-timing-function: step-end;
            stroke: blue;
            stroke-dashoffset: 0;
            stroke-width: 128;
          }
          to {
            stroke: black;
            stroke-width: 1024;
          }
        }
        #make-me-a-hanzi-animation-17 {
          animation: keyframes17 0.8489583333333334s both;
          animation-delay: 11.25927734375s;
          animation-timing-function: linear;
        }
      
    </style>
    
      <path d="M 279 700 Q 269 704 245 706 Q 236 707 234 704 Q 230 700 237 688 Q 259 652 276 593 Q 280 574 291 564 Q 306 548 309 560 Q 310 570 309 583 L 303 609 Q 291 660 288 678 C 284 698 284 698 279 700 Z" fill="lightgray" />
    
      <path d="M 428 634 Q 441 668 455 679 Q 473 698 456 710 Q 408 740 399 738 Q 395 738 391 735 Q 354 714 279 700 C 250 694 259 669 288 678 Q 306 684 368 696 Q 390 700 395 692 Q 396 691 384 631 C 378 602 417 606 428 634 Z" fill="lightgray" />
    
      <path d="M 353 594 Q 384 601 441 609 Q 448 610 449 617 Q 449 623 428 634 C 416 640 413 639 384 631 Q 339 618 303 609 C 274 602 281 572 309 583 Q 309 584 327 588 L 353 594 Z" fill="lightgray" />
    
      <path d="M 368 455 Q 369 494 373 525 L 375 548 Q 375 575 374 576 Q 364 588 353 594 C 327 610 319 614 327 588 Q 334 570 337 446 C 338 416 367 425 368 455 Z" fill="lightgray" />
    
      <path d="M 373 525 Q 424 531 462 537 Q 480 541 473 550 Q 464 560 445 564 Q 406 567 375 548 C 349 533 343 521 373 525 Z" fill="lightgray" />
    
      <path d="M 281 430 Q 268 526 266 528 Q 263 531 262 531 Q 246 541 225 546 Q 215 547 209 543 Q 205 539 210 528 Q 222 515 229 499 Q 233 484 252 421 C 261 392 285 400 281 430 Z" fill="lightgray" />
    
      <path d="M 252 421 Q 180 409 177 408 Q 167 407 165 399 Q 164 389 171 382 Q 189 369 214 354 Q 223 353 232 359 Q 257 378 413 445 Q 435 454 450 465 Q 460 471 461 478 Q 457 482 447 481 Q 408 469 368 455 L 337 446 Q 309 439 281 430 L 252 421 Z" fill="lightgray" />
    
      <path d="M 583 691 Q 593 704 603 710 Q 609 716 607 724 Q 606 733 590 749 Q 574 762 563 763 Q 551 763 555 749 Q 561 731 520 671 Q 501 644 474 615 Q 467 609 465 605 Q 462 599 471 599 Q 504 606 571 677 L 583 691 Z" fill="lightgray" />
    
      <path d="M 528 514 Q 588 547 629 577 L 648 592 Q 675 614 704 642 Q 720 660 746 677 Q 758 684 754 691 Q 754 697 713 719 Q 703 725 651 705 Q 615 698 583 691 C 554 685 551 684 571 677 Q 590 664 656 680 Q 665 681 668 678 Q 669 674 663 665 Q 644 637 613 609 L 598 596 Q 538 550 461 503 Q 449 496 460 493 Q 467 493 502 504 Q 503 505 510 506 L 528 514 Z" fill="lightgray" />
    
      <path d="M 629 577 Q 696 534 769 495 Q 787 485 811 489 Q 854 496 899 517 Q 909 521 910 525 Q 911 529 901 531 Q 861 537 815 541 Q 763 548 721 563 Q 685 576 648 592 L 613 609 Q 570 634 558 639 Q 551 642 552 633 Q 552 630 598 596 L 629 577 Z" fill="lightgray" />
    
      <path d="M 557 503 Q 548 509 528 514 C 506 520 506 520 510 506 Q 510 503 513 499 Q 529 465 541 408 Q 542 392 553 380 Q 565 365 569 376 Q 570 380 571 388 L 569 414 Q 562 463 560 482 C 558 503 558 503 557 503 Z" fill="lightgray" />
    
      <path d="M 690 428 Q 700 471 715 483 Q 731 502 715 513 Q 667 540 660 537 Q 657 537 653 534 Q 631 519 557 503 C 528 497 531 473 560 482 Q 578 488 633 497 Q 652 501 657 494 Q 663 488 651 432 C 645 403 683 399 690 428 Z" fill="lightgray" />
    
      <path d="M 571 388 Q 577 388 585 389 Q 622 396 702 400 Q 709 401 711 408 Q 711 414 690 428 C 676 438 676 438 651 432 L 569 414 C 540 408 541 387 571 388 Z" fill="lightgray" />
    
      <path d="M 386 328 Q 425 368 464 395 Q 476 401 472 408 Q 466 418 450 429 Q 434 439 419 439 Q 409 438 411 423 Q 417 408 377 335 C 363 309 365 307 386 328 Z" fill="lightgray" />
    
      <path d="M 596 160 Q 620 191 635 287 Q 639 317 650 331 Q 659 341 654 350 Q 647 359 606 375 Q 590 382 575 371 Q 535 347 387 327 C 357 323 364 293 394 297 Q 398 296 405 298 Q 573 346 580 328 Q 586 321 586 303 Q 587 252 578 228 Q 566 203 544 206 Q 525 210 508 217 Q 489 224 502 204 Q 529 177 545 154 C 563 130 580 135 596 160 Z" fill="lightgray" />
    
      <path d="M 422 267 Q 449 228 470 226 Q 480 225 484 238 Q 485 248 478 263 Q 469 279 425 287 Q 418 288 418 280 Q 417 274 422 267 Z" fill="lightgray" />
    
      <path d="M 380 83 Q 408 101 461 111 Q 573 136 692 140 Q 722 143 735 131 Q 744 124 725 12 Q 721 -15 709 -32 Q 699 -44 645 -39 Q 602 -35 603 -41 Q 603 -47 613 -53 Q 665 -96 684 -128 Q 694 -147 711 -135 Q 759 -105 769 -60 Q 797 93 807 108 Q 808 115 813 120 Q 825 136 814 148 Q 796 167 761 186 Q 740 198 714 185 Q 690 176 596 160 L 545 154 Q 490 148 412 133 Q 390 126 385 146 Q 385 270 394 297 C 398 320 398 320 387 327 L 386 328 C 385 332 385 332 377 335 Q 367 342 356 346 Q 340 350 334 343 Q 328 339 335 329 Q 351 302 342 147 Q 339 134 337 120 Q 331 101 345 87 Q 363 71 380 83 Z" fill="lightgray" />
    
      <path d="M 429 -1 Q 460 0 488 5 Q 546 14 646 8 Q 665 7 671 14 Q 677 24 666 35 Q 606 84 554 64 Q 458 46 391 37 Q 205 13 190 12 Q 180 12 178 2 Q 178 -8 194 -19 Q 209 -29 235 -38 Q 244 -41 259 -33 Q 316 -14 429 -1 Z" fill="lightgray" />
    
    
      <clipPath id="make-me-a-hanzi-clip-0">
        <path d="M 279 700 Q 269 704 245 706 Q 236 707 234 704 Q 230 700 237 688 Q 259 652 276 593 Q 280 574 291 564 Q 306 548 309 560 Q 310 570 309 583 L 303 609 Q 291 660 288 678 C 284 698 284 698 279 700 Z" />
      </clipPath>
      <path clip-path="url(#make-me-a-hanzi-clip-0)" d="M 240 700 L 267 676 L 300 564" fill="none" id="make-me-a-hanzi-animation-0" stroke-dasharray="281 562" stroke-linecap="round" />
    
      <clipPath id="make-me-a-hanzi-clip-1">
        <path d="M 428 634 Q 441 668 455 679 Q 473 698 456 710 Q 408 740 399 738 Q 395 738 391 735 Q 354 714 279 700 C 250 694 259 669 288 678 Q 306 684 368 696 Q 390 700 395 692 Q 396 691 384 631 C 378 602 417 606 428 634 Z" />
      </clipPath>
      <path clip-path="url(#make-me-a-hanzi-clip-1)" d="M 290 685 L 308 696 L 403 714 L 426 693 L 412 656 L 391 643" fill="none" id="make-me-a-hanzi-animation-1" stroke-dasharray="341 682" stroke-linecap="round" />
    
      <clipPath id="make-me-a-hanzi-clip-2">
        <path d="M 353 594 Q 384 601 441 609 Q 448 610 449 617 Q 449 623 428 634 C 416 640 413 639 384 631 Q 339 618 303 609 C 274 602 281 572 309 583 Q 309 584 327 588 L 353 594 Z" />
      </clipPath>
      <path clip-path="url(#make-me-a-hanzi-clip-2)" d="M 309 590 L 325 602 L 366 612 L 422 621 L 441 617" fill="none" id="make-me-a-hanzi-animation-2" stroke-dasharray="266 532" stroke-linecap="round" />
    
      <clipPath id="make-me-a-hanzi-clip-3">
        <path d="M 368 455 Q 369 494 373 525 L 375 548 Q 375 575 374 576 Q 364 588 353 594 C 327 610 319 614 327 588 Q 334 570 337 446 C 338 416 367 425 368 455 Z" />
      </clipPath>
      <path clip-path="url(#make-me-a-hanzi-clip-3)" d="M 334 587 L 350 572 L 354 558 L 352 468 L 339 459" fill="none" id="make-me-a-hanzi-animation-3" stroke-dasharray="270 540" stroke-linecap="round" />
    
      <clipPath id="make-me-a-hanzi-clip-4">
        <path d="M 373 525 Q 424 531 462 537 Q 480 541 473 550 Q 464 560 445 564 Q 406 567 375 548 C 349 533 343 521 373 525 Z" />
      </clipPath>
      <path clip-path="url(#make-me-a-hanzi-clip-4)" d="M 381 530 L 387 541 L 399 544 L 449 550 L 465 545" fill="none" id="make-me-a-hanzi-animation-4" stroke-dasharray="220 440" stroke-linecap="round" />
    
      <clipPath id="make-me-a-hanzi-clip-5">
        <path d="M 281 430 Q 268 526 266 528 Q 263 531 262 531 Q 246 541 225 546 Q 215 547 209 543 Q 205 539 210 528 Q 222 515 229 499 Q 233 484 252 421 C 261 392 285 400 281 430 Z" />
      </clipPath>
      <path clip-path="url(#make-me-a-hanzi-clip-5)" d="M 216 536 L 248 511 L 264 443 L 256 433" fill="none" id="make-me-a-hanzi-animation-5" stroke-dasharray="251 502" stroke-linecap="round" />
    
      <clipPath id="make-me-a-hanzi-clip-6">
        <path d="M 252 421 Q 180 409 177 408 Q 167 407 165 399 Q 164 389 171 382 Q 189 369 214 354 Q 223 353 232 359 Q 257 378 413 445 Q 435 454 450 465 Q 460 471 461 478 Q 457 482 447 481 Q 408 469 368 455 L 337 446 Q 309 439 281 430 L 252 421 Z" />
      </clipPath>
      <path clip-path="url(#make-me-a-hanzi-clip-6)" d="M 177 396 L 219 386 L 375 440 L 454 477" fill="none" id="make-me-a-hanzi-animation-6" stroke-dasharray="423 846" stroke-linecap="round" />
    
      <clipPath id="make-me-a-hanzi-clip-7">
        <path d="M 583 691 Q 593 704 603 710 Q 609 716 607 724 Q 606 733 590 749 Q 574 762 563 763 Q 551 763 555 749 Q 561 731 520 671 Q 501 644 474 615 Q 467 609 465 605 Q 462 599 471 599 Q 504 606 571 677 L 583 691 Z" />
      </clipPath>
      <path clip-path="url(#make-me-a-hanzi-clip-7)" d="M 562 754 L 574 741 L 578 724 L 571 712 L 524 649 L 473 607" fill="none" id="make-me-a-hanzi-animation-7" stroke-dasharray="322 644" stroke-linecap="round" />
    
      <clipPath id="make-me-a-hanzi-clip-8">
        <path d="M 528 514 Q 588 547 629 577 L 648 592 Q 675 614 704 642 Q 720 660 746 677 Q 758 684 754 691 Q 754 697 713 719 Q 703 725 651 705 Q 615 698 583 691 C 554 685 551 684 571 677 Q 590 664 656 680 Q 665 681 668 678 Q 669 674 663 665 Q 644 637 613 609 L 598 596 Q 538 550 461 503 Q 449 496 460 493 Q 467 493 502 504 Q 503 505 510 506 L 528 514 Z" />
      </clipPath>
      <path clip-path="url(#make-me-a-hanzi-clip-8)" d="M 576 679 L 667 696 L 701 686 L 673 641 L 613 586 L 529 530 L 463 498" fill="none" id="make-me-a-hanzi-animation-8" stroke-dasharray="565 1130" stroke-linecap="round" />
    
      <clipPath id="make-me-a-hanzi-clip-9">
        <path d="M 629 577 Q 696 534 769 495 Q 787 485 811 489 Q 854 496 899 517 Q 909 521 910 525 Q 911 529 901 531 Q 861 537 815 541 Q 763 548 721 563 Q 685 576 648 592 L 613 609 Q 570 634 558 639 Q 551 642 552 633 Q 552 630 598 596 L 629 577 Z" />
      </clipPath>
      <path clip-path="url(#make-me-a-hanzi-clip-9)" d="M 557 634 L 570 628 L 573 620 L 583 620 L 591 607 L 600 609 L 654 575 L 775 521 L 814 515 L 903 524" fill="none" id="make-me-a-hanzi-animation-9" stroke-dasharray="511 1022" stroke-linecap="round" />
    
      <clipPath id="make-me-a-hanzi-clip-10">
        <path d="M 557 503 Q 548 509 528 514 C 506 520 506 520 510 506 Q 510 503 513 499 Q 529 465 541 408 Q 542 392 553 380 Q 565 365 569 376 Q 570 380 571 388 L 569 414 Q 562 463 560 482 C 558 503 558 503 557 503 Z" />
      </clipPath>
      <path clip-path="url(#make-me-a-hanzi-clip-10)" d="M 516 504 L 532 497 L 540 485 L 561 380" fill="none" id="make-me-a-hanzi-animation-10" stroke-dasharray="267 534" stroke-linecap="round" />
    
      <clipPath id="make-me-a-hanzi-clip-11">
        <path d="M 690 428 Q 700 471 715 483 Q 731 502 715 513 Q 667 540 660 537 Q 657 537 653 534 Q 631 519 557 503 C 528 497 531 473 560 482 Q 578 488 633 497 Q 652 501 657 494 Q 663 488 651 432 C 645 403 683 399 690 428 Z" />
      </clipPath>
      <path clip-path="url(#make-me-a-hanzi-clip-11)" d="M 563 488 L 588 501 L 664 515 L 687 496 L 672 448 L 659 443" fill="none" id="make-me-a-hanzi-animation-11" stroke-dasharray="328 656" stroke-linecap="round" />
    
      <clipPath id="make-me-a-hanzi-clip-12">
        <path d="M 571 388 Q 577 388 585 389 Q 622 396 702 400 Q 709 401 711 408 Q 711 414 690 428 C 676 438 676 438 651 432 L 569 414 C 540 408 541 387 571 388 Z" />
      </clipPath>
      <path clip-path="url(#make-me-a-hanzi-clip-12)" d="M 578 395 L 592 406 L 648 414 L 682 415 L 703 408" fill="none" id="make-me-a-hanzi-animation-12" stroke-dasharray="259 518" stroke-linecap="round" />
    
      <clipPath id="make-me-a-hanzi-clip-13">
        <path d="M 386 328 Q 425 368 464 395 Q 476 401 472 408 Q 466 418 450 429 Q 434 439 419 439 Q 409 438 411 423 Q 417 408 377 335 C 363 309 365 307 386 328 Z" />
      </clipPath>
      <path clip-path="url(#make-me-a-hanzi-clip-13)" d="M 421 428 L 436 407 L 397 350 L 385 345 L 387 338" fill="none" id="make-me-a-hanzi-animation-13" stroke-dasharray="243 486" stroke-linecap="round" />
    
      <clipPath id="make-me-a-hanzi-clip-14">
        <path d="M 596 160 Q 620 191 635 287 Q 639 317 650 331 Q 659 341 654 350 Q 647 359 606 375 Q 590 382 575 371 Q 535 347 387 327 C 357 323 364 293 394 297 Q 398 296 405 298 Q 573 346 580 328 Q 586 321 586 303 Q 587 252 578 228 Q 566 203 544 206 Q 525 210 508 217 Q 489 224 502 204 Q 529 177 545 154 C 563 130 580 135 596 160 Z" />
      </clipPath>
      <path clip-path="url(#make-me-a-hanzi-clip-14)" d="M 399 306 L 422 319 L 550 346 L 594 351 L 604 345 L 614 335 L 611 281 L 601 227 L 585 193 L 557 181 L 511 208" fill="none" id="make-me-a-hanzi-animation-14" stroke-dasharray="586 1172" stroke-linecap="round" />
    
      <clipPath id="make-me-a-hanzi-clip-15">
        <path d="M 422 267 Q 449 228 470 226 Q 480 225 484 238 Q 485 248 478 263 Q 469 279 425 287 Q 418 288 418 280 Q 417 274 422 267 Z" />
      </clipPath>
      <path clip-path="url(#make-me-a-hanzi-clip-15)" d="M 429 276 L 471 239" fill="none" id="make-me-a-hanzi-animation-15" stroke-dasharray="184 368" stroke-linecap="round" />
    
      <clipPath id="make-me-a-hanzi-clip-16">
        <path d="M 380 83 Q 408 101 461 111 Q 573 136 692 140 Q 722 143 735 131 Q 744 124 725 12 Q 721 -15 709 -32 Q 699 -44 645 -39 Q 602 -35 603 -41 Q 603 -47 613 -53 Q 665 -96 684 -128 Q 694 -147 711 -135 Q 759 -105 769 -60 Q 797 93 807 108 Q 808 115 813 120 Q 825 136 814 148 Q 796 167 761 186 Q 740 198 714 185 Q 690 176 596 160 L 545 154 Q 490 148 412 133 Q 390 126 385 146 Q 385 270 394 297 C 398 320 398 320 387 327 L 386 328 C 385 332 385 332 377 335 Q 367 342 356 346 Q 340 350 334 343 Q 328 339 335 329 Q 351 302 342 147 Q 339 134 337 120 Q 331 101 345 87 Q 363 71 380 83 Z" />
      </clipPath>
      <path clip-path="url(#make-me-a-hanzi-clip-16)" d="M 343 337 L 366 313 L 368 299 L 363 136 L 369 113 L 386 111 L 501 135 L 731 164 L 753 156 L 771 138 L 774 122 L 749 -16 L 734 -57 L 721 -73 L 707 -82 L 632 -49 L 609 -46" fill="none" id="make-me-a-hanzi-animation-16" stroke-dasharray="1120 2240" stroke-linecap="round" />
    
      <clipPath id="make-me-a-hanzi-clip-17">
        <path d="M 429 -1 Q 460 0 488 5 Q 546 14 646 8 Q 665 7 671 14 Q 677 24 666 35 Q 606 84 554 64 Q 458 46 391 37 Q 205 13 190 12 Q 180 12 178 2 Q 178 -8 194 -19 Q 209 -29 235 -38 Q 244 -41 259 -33 Q 316 -14 429 -1 Z" />
      </clipPath>
      <path clip-path="url(#make-me-a-hanzi-clip-17)" d="M 189 1 L 241 -10 L 353 12 L 578 40 L 606 38 L 661 21" fill="none" id="make-me-a-hanzi-animation-17" stroke-dasharray="608 1216" stroke-linecap="round" />
    
  </g>
</svg>