<svg xmlns="http://www.w3.org/2000/svg" version="1.1" viewBox="0 0 1024 1024">
  <g stroke="lightgray" stroke-dasharray="1,1" stroke-width="1" transform="scale(4, 4)">
    <line x1="0" y1="0" x2="256" y2="256" />
    <line x1="256" y1="0" x2="0" y2="256" />
    <line x1="128" y1="0" x2="128" y2="256" />
    <line x1="0" y1="128" x2="256" y2="128" />
  </g>
  <g transform="scale(1.0, -1.0) translate(0.0, -822.00)">
    <style type="text/css">
      
        @keyframes keyframes0 {
          from {
            stroke: blue;
            stroke-dashoffset: 513;
            stroke-width: 128;
          }
          63% {
            animation-timing-function: step-end;
            stroke: blue;
            stroke-dashoffset: 0;
            stroke-width: 128;
          }
          to {
            stroke: black;
            stroke-width: 1024;
          }
        }
        #make-me-a-hanzi-animation-0 {
          animation: keyframes0 0.66748046875s both;
          animation-delay: 0s;
          animation-timing-function: linear;
        }
      
        @keyframes keyframes1 {
          from {
            stroke: blue;
            stroke-dashoffset: 631;
            stroke-width: 128;
          }
          67% {
            animation-timing-function: step-end;
            stroke: blue;
            stroke-dashoffset: 0;
            stroke-width: 128;
          }
          to {
            stroke: black;
            stroke-width: 1024;
          }
        }
        #make-me-a-hanzi-animation-1 {
          animation: keyframes1 0.7635091145833334s both;
          animation-delay: 0.66748046875s;
          animation-timing-function: linear;
        }
      
        @keyframes keyframes2 {
          from {
            stroke: blue;
            stroke-dashoffset: 604;
            stroke-width: 128;
          }
          66% {
            animation-timing-function: step-end;
            stroke: blue;
            stroke-dashoffset: 0;
            stroke-width: 128;
          }
          to {
            stroke: black;
            stroke-width: 1024;
          }
        }
        #make-me-a-hanzi-animation-2 {
          animation: keyframes2 0.7415364583333334s both;
          animation-delay: 1.4309895833333335s;
          animation-timing-function: linear;
        }
      
        @keyframes keyframes3 {
          from {
            stroke: blue;
            stroke-dashoffset: 322;
            stroke-width: 128;
          }
          51% {
            animation-timing-function: step-end;
            stroke: blue;
            stroke-dashoffset: 0;
            stroke-width: 128;
          }
          to {
            stroke: black;
            stroke-width: 1024;
          }
        }
        #make-me-a-hanzi-animation-3 {
          animation: keyframes3 0.5120442708333334s both;
          animation-delay: 2.172526041666667s;
          animation-timing-function: linear;
        }
      
        @keyframes keyframes4 {
          from {
            stroke: blue;
            stroke-dashoffset: 525;
            stroke-width: 128;
          }
          63% {
            animation-timing-function: step-end;
            stroke: blue;
            stroke-dashoffset: 0;
            stroke-width: 128;
          }
          to {
            stroke: black;
            stroke-width: 1024;
          }
        }
        #make-me-a-hanzi-animation-4 {
          animation: keyframes4 0.67724609375s both;
          animation-delay: 2.6845703125000004s;
          animation-timing-function: linear;
        }
      
        @keyframes keyframes5 {
          from {
            stroke: blue;
            stroke-dashoffset: 650;
            stroke-width: 128;
          }
          68% {
            animation-timing-function: step-end;
            stroke: blue;
            stroke-dashoffset: 0;
            stroke-width: 128;
          }
          to {
            stroke: black;
            stroke-width: 1024;
          }
        }
        #make-me-a-hanzi-animation-5 {
          animation: keyframes5 0.7789713541666666s both;
          animation-delay: 3.3618164062500004s;
          animation-timing-function: linear;
        }
      
        @keyframes keyframes6 {
          from {
            stroke: blue;
            stroke-dashoffset: 596;
            stroke-width: 128;
          }
          66% {
            animation-timing-function: step-end;
            stroke: blue;
            stroke-dashoffset: 0;
            stroke-width: 128;
          }
          to {
            stroke: black;
            stroke-width: 1024;
          }
        }
        #make-me-a-hanzi-animation-6 {
          animation: keyframes6 0.7350260416666666s both;
          animation-delay: 4.140787760416667s;
          animation-timing-function: linear;
        }
      
        @keyframes keyframes7 {
          from {
            stroke: blue;
            stroke-dashoffset: 350;
            stroke-width: 128;
          }
          53% {
            animation-timing-function: step-end;
            stroke: blue;
            stroke-dashoffset: 0;
            stroke-width: 128;
          }
          to {
            stroke: black;
            stroke-width: 1024;
          }
        }
        #make-me-a-hanzi-animation-7 {
          animation: keyframes7 0.5348307291666666s both;
          animation-delay: 4.875813802083334s;
          animation-timing-function: linear;
        }
      
        @keyframes keyframes8 {
          from {
            stroke: blue;
            stroke-dashoffset: 756;
            stroke-width: 128;
          }
          71% {
            animation-timing-function: step-end;
            stroke: blue;
            stroke-dashoffset: 0;
            stroke-width: 128;
          }
          to {
            stroke: black;
            stroke-width: 1024;
          }
        }
        #make-me-a-hanzi-animation-8 {
          animation: keyframes8 0.865234375s both;
          animation-delay: 5.410644531250001s;
          animation-timing-function: linear;
        }
      
        @keyframes keyframes9 {
          from {
            stroke: blue;
            stroke-dashoffset: 665;
            stroke-width: 128;
          }
          68% {
            animation-timing-function: step-end;
            stroke: blue;
            stroke-dashoffset: 0;
            stroke-width: 128;
          }
          to {
            stroke: black;
            stroke-width: 1024;
          }
        }
        #make-me-a-hanzi-animation-9 {
          animation: keyframes9 0.7911783854166666s both;
          animation-delay: 6.275878906250001s;
          animation-timing-function: linear;
        }
      
        @keyframes keyframes10 {
          from {
            stroke: blue;
            stroke-dashoffset: 684;
            stroke-width: 128;
          }
          69% {
            animation-timing-function: step-end;
            stroke: blue;
            stroke-dashoffset: 0;
            stroke-width: 128;
          }
          to {
            stroke: black;
            stroke-width: 1024;
          }
        }
        #make-me-a-hanzi-animation-10 {
          animation: keyframes10 0.806640625s both;
          animation-delay: 7.067057291666668s;
          animation-timing-function: linear;
        }
      
        @keyframes keyframes11 {
          from {
            stroke: blue;
            stroke-dashoffset: 456;
            stroke-width: 128;
          }
          60% {
            animation-timing-function: step-end;
            stroke: blue;
            stroke-dashoffset: 0;
            stroke-width: 128;
          }
          to {
            stroke: black;
            stroke-width: 1024;
          }
        }
        #make-me-a-hanzi-animation-11 {
          animation: keyframes11 0.62109375s both;
          animation-delay: 7.873697916666668s;
          animation-timing-function: linear;
        }
      
        @keyframes keyframes12 {
          from {
            stroke: blue;
            stroke-dashoffset: 760;
            stroke-width: 128;
          }
          71% {
            animation-timing-function: step-end;
            stroke: blue;
            stroke-dashoffset: 0;
            stroke-width: 128;
          }
          to {
            stroke: black;
            stroke-width: 1024;
          }
        }
        #make-me-a-hanzi-animation-12 {
          animation: keyframes12 0.8684895833333334s both;
          animation-delay: 8.494791666666668s;
          animation-timing-function: linear;
        }
      
        @keyframes keyframes13 {
          from {
            stroke: blue;
            stroke-dashoffset: 325;
            stroke-width: 128;
          }
          51% {
            animation-timing-function: step-end;
            stroke: blue;
            stroke-dashoffset: 0;
            stroke-width: 128;
          }
          to {
            stroke: black;
            stroke-width: 1024;
          }
        }
        #make-me-a-hanzi-animation-13 {
          animation: keyframes13 0.5144856770833334s both;
          animation-delay: 9.363281250000002s;
          animation-timing-function: linear;
        }
      
        @keyframes keyframes14 {
          from {
            stroke: blue;
            stroke-dashoffset: 1361;
            stroke-width: 128;
          }
          82% {
            animation-timing-function: step-end;
            stroke: blue;
            stroke-dashoffset: 0;
            stroke-width: 128;
          }
          to {
            stroke: black;
            stroke-width: 1024;
          }
        }
        #make-me-a-hanzi-animation-14 {
          animation: keyframes14 1.3575846354166667s both;
          animation-delay: 9.877766927083336s;
          animation-timing-function: linear;
        }
      
        @keyframes keyframes15 {
          from {
            stroke: blue;
            stroke-dashoffset: 623;
            stroke-width: 128;
          }
          67% {
            animation-timing-function: step-end;
            stroke: blue;
            stroke-dashoffset: 0;
            stroke-width: 128;
          }
          to {
            stroke: black;
            stroke-width: 1024;
          }
        }
        #make-me-a-hanzi-animation-15 {
          animation: keyframes15 0.7569986979166666s both;
          animation-delay: 11.235351562500002s;
          animation-timing-function: linear;
        }
      
    </style>
    
      <path d="M 159 643 Q 143 655 124 662 Q 118 663 114 657 Q 111 653 117 646 Q 142 571 119 468 Q 110 452 115 429 Q 121 407 129 398 Q 136 388 144 398 Q 156 417 163 530 Q 156 545 166 617 Q 166 621 167 623 C 169 636 169 636 159 643 Z" fill="lightgray" />
    
      <path d="M 264 443 Q 260 428 268 414 Q 277 395 282 395 Q 292 396 302 417 Q 312 433 312 447 Q 293 588 322 630 Q 334 651 275 675 Q 272 676 271 677 Q 261 681 203 655 Q 179 648 159 643 C 130 636 138 617 167 623 Q 170 623 219 635 Q 253 647 261 643 Q 268 627 270 587 Q 271 466 264 443 Z" fill="lightgray" />
    
      <path d="M 200 546 Q 206 393 158 342 Q 143 326 110 305 Q 103 302 101 300 Q 98 296 107 295 Q 149 295 198 343 Q 199 347 202 349 Q 230 397 232 515 Q 232 539 239 565 Q 242 572 237 576 Q 227 585 206 593 Q 193 597 184 594 Q 174 590 182 580 Q 198 564 200 546 Z" fill="lightgray" />
    
      <path d="M 244 373 Q 280 327 295 323 Q 304 322 309 333 Q 310 342 305 355 Q 299 367 283 374 Q 258 387 248 390 Q 242 391 241 384 Q 240 380 244 373 Z" fill="lightgray" />
    
      <path d="M 367 670 Q 364 676 344 682 Q 337 686 330 682 Q 326 679 329 671 Q 330 665 333 660 Q 355 620 340 491 Q 328 434 354 408 Q 361 398 368 407 Q 378 422 377 473 Q 376 644 378 649 C 379 660 379 660 367 670 Z" fill="lightgray" />
    
      <path d="M 484 459 Q 480 444 488 430 Q 497 411 502 411 Q 512 412 522 433 Q 532 449 532 463 Q 513 613 542 654 Q 549 666 543 673 Q 524 689 490 704 Q 480 708 462 701 Q 441 691 413 681 L 367 670 C 338 663 348 644 378 649 Q 385 649 434 661 Q 471 671 480 667 Q 487 651 490 609 Q 491 483 484 459 Z" fill="lightgray" />
    
      <path d="M 429 383 Q 450 425 450 544 Q 450 563 456 586 Q 459 593 453 597 Q 443 606 421 612 Q 409 616 400 613 Q 388 609 398 599 Q 428 569 417 456 Q 411 378 341 322 Q 334 318 333 316 Q 330 312 339 312 Q 378 312 421 367 Q 421 368 422 369 L 429 383 Z" fill="lightgray" />
    
      <path d="M 422 369 Q 426 363 443 349 Q 464 333 487 311 Q 497 302 507 303 Q 514 303 518 313 Q 521 323 514 343 Q 510 358 487 368 Q 442 383 429 383 C 410 384 410 384 422 369 Z" fill="lightgray" />
    
      <path d="M 303 242 Q 306 251 311 255 Q 318 262 316 270 Q 312 282 280 305 Q 270 312 261 309 Q 251 306 257 293 Q 264 274 258 253 Q 255 244 252 234 L 239 193 Q 223 148 206 121 Q 197 106 200 95 Q 201 88 216 84 Q 255 72 298 43 L 335 17 Q 371 -8 417 -51 Q 439 -69 453 -69 Q 471 -69 472 -53 Q 473 -35 450 4 Q 440 23 415 35 Q 390 47 366 57 L 324 75 Q 282 91 255 100 Q 236 104 246 123 L 283 201 L 303 242 Z" fill="lightgray" />
    
      <path d="M 298 43 Q 247 -8 123 -36 Q 107 -43 126 -47 Q 256 -59 335 17 L 366 57 Q 390 93 403 134 Q 416 174 426 185 Q 435 195 427 205 Q 421 212 411 219 C 388 238 348 241 354 212 Q 370 155 324 75 L 298 43 Z" fill="lightgray" />
    
      <path d="M 411 219 Q 448 223 491 226 Q 507 227 508 234 Q 509 246 494 255 Q 469 268 447 265 Q 362 252 303 242 L 252 234 Q 161 224 83 220 Q 71 219 67 212 Q 64 202 77 191 Q 113 161 152 172 Q 198 185 239 193 L 283 201 Q 295 205 306 206 Q 328 210 354 212 L 411 219 Z" fill="lightgray" />
    
      <path d="M 626 554 Q 668 597 712 650 Q 725 668 744 682 Q 760 695 748 708 Q 732 721 706 728 Q 682 735 672 730 Q 662 726 667 715 Q 674 694 629 600 Q 617 578 605 553 C 592 526 605 532 626 554 Z" fill="lightgray" />
    
      <path d="M 622 515 Q 659 528 756 547 Q 763 548 770 544 Q 782 538 782 520 Q 782 474 766 390 Q 763 369 744 372 L 692 383 Q 680 384 683 378 Q 684 371 706 353 Q 737 328 757 299 Q 764 290 774 294 Q 781 297 794 320 Q 812 350 820 425 Q 823 518 838 534 Q 848 543 843 553 Q 836 563 805 583 Q 798 587 738 578 Q 711 578 626 554 C 597 546 566 497 622 515 Z" fill="lightgray" />
    
      <path d="M 638 465 Q 677 419 695 418 Q 704 417 708 430 Q 709 439 702 453 Q 686 477 640 483 Q 634 484 633 476 Q 632 470 638 465 Z" fill="lightgray" />
    
      <path d="M 605 553 Q 592 562 579 567 Q 561 573 553 564 Q 547 560 555 548 Q 570 518 568 456 Q 567 407 566 344 Q 566 283 554 233 Q 548 214 563 199 Q 581 184 603 197 Q 652 230 824 240 Q 860 249 879 230 Q 891 220 877 177 Q 870 125 860 69 Q 853 26 833 -1 Q 824 -13 800 -10 L 738 6 Q 722 10 723 3 Q 723 -3 732 -10 Q 786 -61 805 -96 Q 815 -115 832 -106 Q 892 -72 903 -15 Q 919 63 932 150 Q 939 187 958 217 Q 971 233 960 245 Q 944 264 907 286 Q 886 299 858 286 Q 821 271 785 268 Q 736 264 633 245 Q 608 241 608 262 Q 607 331 609 402 Q 609 471 622 515 C 628 542 628 542 605 553 Z" fill="lightgray" />
    
      <path d="M 649 86 Q 670 87 691 91 Q 755 95 803 92 Q 822 91 828 99 Q 832 111 822 119 Q 797 141 759 154 Q 747 158 726 150 Q 698 143 670 138 L 599 127 Q 484 109 457 108 Q 447 107 446 98 Q 446 88 462 76 Q 477 67 503 59 Q 513 56 527 64 Q 560 77 649 86 Z" fill="lightgray" />
    
    
      <clipPath id="make-me-a-hanzi-clip-0">
        <path d="M 159 643 Q 143 655 124 662 Q 118 663 114 657 Q 111 653 117 646 Q 142 571 119 468 Q 110 452 115 429 Q 121 407 129 398 Q 136 388 144 398 Q 156 417 163 530 Q 156 545 166 617 Q 166 621 167 623 C 169 636 169 636 159 643 Z" />
      </clipPath>
      <path clip-path="url(#make-me-a-hanzi-clip-0)" d="M 122 653 L 142 630 L 147 608 L 147 519 L 133 439 L 137 405" fill="none" id="make-me-a-hanzi-animation-0" stroke-dasharray="385 770" stroke-linecap="round" />
    
      <clipPath id="make-me-a-hanzi-clip-1">
        <path d="M 264 443 Q 260 428 268 414 Q 277 395 282 395 Q 292 396 302 417 Q 312 433 312 447 Q 293 588 322 630 Q 334 651 275 675 Q 272 676 271 677 Q 261 681 203 655 Q 179 648 159 643 C 130 636 138 617 167 623 Q 170 623 219 635 Q 253 647 261 643 Q 268 627 270 587 Q 271 466 264 443 Z" />
      </clipPath>
      <path clip-path="url(#make-me-a-hanzi-clip-1)" d="M 167 640 L 174 635 L 206 641 L 218 650 L 266 660 L 278 655 L 290 639 L 290 456 L 284 403" fill="none" id="make-me-a-hanzi-animation-1" stroke-dasharray="503 1006" stroke-linecap="round" />
    
      <clipPath id="make-me-a-hanzi-clip-2">
        <path d="M 200 546 Q 206 393 158 342 Q 143 326 110 305 Q 103 302 101 300 Q 98 296 107 295 Q 149 295 198 343 Q 199 347 202 349 Q 230 397 232 515 Q 232 539 239 565 Q 242 572 237 576 Q 227 585 206 593 Q 193 597 184 594 Q 174 590 182 580 Q 198 564 200 546 Z" />
      </clipPath>
      <path clip-path="url(#make-me-a-hanzi-clip-2)" d="M 190 586 L 218 563 L 216 466 L 206 403 L 191 361 L 170 334 L 135 309 L 107 301" fill="none" id="make-me-a-hanzi-animation-2" stroke-dasharray="476 952" stroke-linecap="round" />
    
      <clipPath id="make-me-a-hanzi-clip-3">
        <path d="M 244 373 Q 280 327 295 323 Q 304 322 309 333 Q 310 342 305 355 Q 299 367 283 374 Q 258 387 248 390 Q 242 391 241 384 Q 240 380 244 373 Z" />
      </clipPath>
      <path clip-path="url(#make-me-a-hanzi-clip-3)" d="M 249 381 L 281 356 L 296 335" fill="none" id="make-me-a-hanzi-animation-3" stroke-dasharray="194 388" stroke-linecap="round" />
    
      <clipPath id="make-me-a-hanzi-clip-4">
        <path d="M 367 670 Q 364 676 344 682 Q 337 686 330 682 Q 326 679 329 671 Q 330 665 333 660 Q 355 620 340 491 Q 328 434 354 408 Q 361 398 368 407 Q 378 422 377 473 Q 376 644 378 649 C 379 660 379 660 367 670 Z" />
      </clipPath>
      <path clip-path="url(#make-me-a-hanzi-clip-4)" d="M 337 676 L 359 646 L 363 558 L 356 451 L 362 415" fill="none" id="make-me-a-hanzi-animation-4" stroke-dasharray="397 794" stroke-linecap="round" />
    
      <clipPath id="make-me-a-hanzi-clip-5">
        <path d="M 484 459 Q 480 444 488 430 Q 497 411 502 411 Q 512 412 522 433 Q 532 449 532 463 Q 513 613 542 654 Q 549 666 543 673 Q 524 689 490 704 Q 480 708 462 701 Q 441 691 413 681 L 367 670 C 338 663 348 644 378 649 Q 385 649 434 661 Q 471 671 480 667 Q 487 651 490 609 Q 491 483 484 459 Z" />
      </clipPath>
      <path clip-path="url(#make-me-a-hanzi-clip-5)" d="M 376 668 L 388 662 L 401 664 L 474 687 L 490 684 L 512 661 L 506 574 L 510 473 L 504 419" fill="none" id="make-me-a-hanzi-animation-5" stroke-dasharray="522 1044" stroke-linecap="round" />
    
      <clipPath id="make-me-a-hanzi-clip-6">
        <path d="M 429 383 Q 450 425 450 544 Q 450 563 456 586 Q 459 593 453 597 Q 443 606 421 612 Q 409 616 400 613 Q 388 609 398 599 Q 428 569 417 456 Q 411 378 341 322 Q 334 318 333 316 Q 330 312 339 312 Q 378 312 421 367 Q 421 368 422 369 L 429 383 Z" />
      </clipPath>
      <path clip-path="url(#make-me-a-hanzi-clip-6)" d="M 406 605 L 433 583 L 436 495 L 426 421 L 408 375 L 393 356 L 363 327 L 338 317" fill="none" id="make-me-a-hanzi-animation-6" stroke-dasharray="468 936" stroke-linecap="round" />
    
      <clipPath id="make-me-a-hanzi-clip-7">
        <path d="M 422 369 Q 426 363 443 349 Q 464 333 487 311 Q 497 302 507 303 Q 514 303 518 313 Q 521 323 514 343 Q 510 358 487 368 Q 442 383 429 383 C 410 384 410 384 422 369 Z" />
      </clipPath>
      <path clip-path="url(#make-me-a-hanzi-clip-7)" d="M 432 373 L 492 338 L 504 317" fill="none" id="make-me-a-hanzi-animation-7" stroke-dasharray="222 444" stroke-linecap="round" />
    
      <clipPath id="make-me-a-hanzi-clip-8">
        <path d="M 303 242 Q 306 251 311 255 Q 318 262 316 270 Q 312 282 280 305 Q 270 312 261 309 Q 251 306 257 293 Q 264 274 258 253 Q 255 244 252 234 L 239 193 Q 223 148 206 121 Q 197 106 200 95 Q 201 88 216 84 Q 255 72 298 43 L 335 17 Q 371 -8 417 -51 Q 439 -69 453 -69 Q 471 -69 472 -53 Q 473 -35 450 4 Q 440 23 415 35 Q 390 47 366 57 L 324 75 Q 282 91 255 100 Q 236 104 246 123 L 283 201 L 303 242 Z" />
      </clipPath>
      <path clip-path="url(#make-me-a-hanzi-clip-8)" d="M 264 300 L 277 287 L 286 261 L 222 105 L 396 10 L 414 -3 L 456 -53" fill="none" id="make-me-a-hanzi-animation-8" stroke-dasharray="628 1256" stroke-linecap="round" />
    
      <clipPath id="make-me-a-hanzi-clip-9">
        <path d="M 298 43 Q 247 -8 123 -36 Q 107 -43 126 -47 Q 256 -59 335 17 L 366 57 Q 390 93 403 134 Q 416 174 426 185 Q 435 195 427 205 Q 421 212 411 219 C 388 238 348 241 354 212 Q 370 155 324 75 L 298 43 Z" />
      </clipPath>
      <path clip-path="url(#make-me-a-hanzi-clip-9)" d="M 362 207 L 390 185 L 387 170 L 357 87 L 315 28 L 282 2 L 245 -17 L 187 -34 L 134 -39" fill="none" id="make-me-a-hanzi-animation-9" stroke-dasharray="537 1074" stroke-linecap="round" />
    
      <clipPath id="make-me-a-hanzi-clip-10">
        <path d="M 411 219 Q 448 223 491 226 Q 507 227 508 234 Q 509 246 494 255 Q 469 268 447 265 Q 362 252 303 242 L 252 234 Q 161 224 83 220 Q 71 219 67 212 Q 64 202 77 191 Q 113 161 152 172 Q 198 185 239 193 L 283 201 Q 295 205 306 206 Q 328 210 354 212 L 411 219 Z" />
      </clipPath>
      <path clip-path="url(#make-me-a-hanzi-clip-10)" d="M 76 208 L 140 196 L 425 242 L 461 245 L 498 237" fill="none" id="make-me-a-hanzi-animation-10" stroke-dasharray="556 1112" stroke-linecap="round" />
    
      <clipPath id="make-me-a-hanzi-clip-11">
        <path d="M 626 554 Q 668 597 712 650 Q 725 668 744 682 Q 760 695 748 708 Q 732 721 706 728 Q 682 735 672 730 Q 662 726 667 715 Q 674 694 629 600 Q 617 578 605 553 C 592 526 605 532 626 554 Z" />
      </clipPath>
      <path clip-path="url(#make-me-a-hanzi-clip-11)" d="M 679 719 L 702 692 L 655 611 L 620 562 L 610 558" fill="none" id="make-me-a-hanzi-animation-11" stroke-dasharray="328 656" stroke-linecap="round" />
    
      <clipPath id="make-me-a-hanzi-clip-12">
        <path d="M 622 515 Q 659 528 756 547 Q 763 548 770 544 Q 782 538 782 520 Q 782 474 766 390 Q 763 369 744 372 L 692 383 Q 680 384 683 378 Q 684 371 706 353 Q 737 328 757 299 Q 764 290 774 294 Q 781 297 794 320 Q 812 350 820 425 Q 823 518 838 534 Q 848 543 843 553 Q 836 563 805 583 Q 798 587 738 578 Q 711 578 626 554 C 597 546 566 497 622 515 Z" />
      </clipPath>
      <path clip-path="url(#make-me-a-hanzi-clip-12)" d="M 611 548 L 632 537 L 751 565 L 786 561 L 808 544 L 790 382 L 773 347 L 767 342 L 737 352 L 689 377" fill="none" id="make-me-a-hanzi-animation-12" stroke-dasharray="632 1264" stroke-linecap="round" />
    
      <clipPath id="make-me-a-hanzi-clip-13">
        <path d="M 638 465 Q 677 419 695 418 Q 704 417 708 430 Q 709 439 702 453 Q 686 477 640 483 Q 634 484 633 476 Q 632 470 638 465 Z" />
      </clipPath>
      <path clip-path="url(#make-me-a-hanzi-clip-13)" d="M 642 474 L 678 451 L 695 431" fill="none" id="make-me-a-hanzi-animation-13" stroke-dasharray="197 394" stroke-linecap="round" />
    
      <clipPath id="make-me-a-hanzi-clip-14">
        <path d="M 605 553 Q 592 562 579 567 Q 561 573 553 564 Q 547 560 555 548 Q 570 518 568 456 Q 567 407 566 344 Q 566 283 554 233 Q 548 214 563 199 Q 581 184 603 197 Q 652 230 824 240 Q 860 249 879 230 Q 891 220 877 177 Q 870 125 860 69 Q 853 26 833 -1 Q 824 -13 800 -10 L 738 6 Q 722 10 723 3 Q 723 -3 732 -10 Q 786 -61 805 -96 Q 815 -115 832 -106 Q 892 -72 903 -15 Q 919 63 932 150 Q 939 187 958 217 Q 971 233 960 245 Q 944 264 907 286 Q 886 299 858 286 Q 821 271 785 268 Q 736 264 633 245 Q 608 241 608 262 Q 607 331 609 402 Q 609 471 622 515 C 628 542 628 542 605 553 Z" />
      </clipPath>
      <path clip-path="url(#make-me-a-hanzi-clip-14)" d="M 562 557 L 586 536 L 593 513 L 584 267 L 590 226 L 858 264 L 881 264 L 898 256 L 921 229 L 881 27 L 858 -31 L 831 -52 L 732 -1" fill="none" id="make-me-a-hanzi-animation-14" stroke-dasharray="1233 2466" stroke-linecap="round" />
    
      <clipPath id="make-me-a-hanzi-clip-15">
        <path d="M 649 86 Q 670 87 691 91 Q 755 95 803 92 Q 822 91 828 99 Q 832 111 822 119 Q 797 141 759 154 Q 747 158 726 150 Q 698 143 670 138 L 599 127 Q 484 109 457 108 Q 447 107 446 98 Q 446 88 462 76 Q 477 67 503 59 Q 513 56 527 64 Q 560 77 649 86 Z" />
      </clipPath>
      <path clip-path="url(#make-me-a-hanzi-clip-15)" d="M 458 96 L 509 86 L 590 104 L 748 124 L 818 105" fill="none" id="make-me-a-hanzi-animation-15" stroke-dasharray="495 990" stroke-linecap="round" />
    
  </g>
</svg>