<svg xmlns="http://www.w3.org/2000/svg" version="1.1" viewBox="0 0 1024 1024">
  <g stroke="lightgray" stroke-dasharray="1,1" stroke-width="1" transform="scale(4, 4)">
    <line x1="0" y1="0" x2="256" y2="256" />
    <line x1="256" y1="0" x2="0" y2="256" />
    <line x1="128" y1="0" x2="128" y2="256" />
    <line x1="0" y1="128" x2="256" y2="128" />
  </g>
  <g transform="scale(1.0, -1.0) translate(0.0, -815.50)">
    <style type="text/css">
      
        @keyframes keyframes0 {
          from {
            stroke: blue;
            stroke-dashoffset: 384;
            stroke-width: 128;
          }
          56% {
            animation-timing-function: step-end;
            stroke: blue;
            stroke-dashoffset: 0;
            stroke-width: 128;
          }
          to {
            stroke: black;
            stroke-width: 1024;
          }
        }
        #make-me-a-hanzi-animation-0 {
          animation: keyframes0 0.5625s both;
          animation-delay: 0s;
          animation-timing-function: linear;
        }
      
        @keyframes keyframes1 {
          from {
            stroke: blue;
            stroke-dashoffset: 677;
            stroke-width: 128;
          }
          69% {
            animation-timing-function: step-end;
            stroke: blue;
            stroke-dashoffset: 0;
            stroke-width: 128;
          }
          to {
            stroke: black;
            stroke-width: 1024;
          }
        }
        #make-me-a-hanzi-animation-1 {
          animation: keyframes1 0.8009440104166666s both;
          animation-delay: 0.5625s;
          animation-timing-function: linear;
        }
      
        @keyframes keyframes2 {
          from {
            stroke: blue;
            stroke-dashoffset: 895;
            stroke-width: 128;
          }
          74% {
            animation-timing-function: step-end;
            stroke: blue;
            stroke-dashoffset: 0;
            stroke-width: 128;
          }
          to {
            stroke: black;
            stroke-width: 1024;
          }
        }
        #make-me-a-hanzi-animation-2 {
          animation: keyframes2 0.9783528645833334s both;
          animation-delay: 1.3634440104166665s;
          animation-timing-function: linear;
        }
      
        @keyframes keyframes3 {
          from {
            stroke: blue;
            stroke-dashoffset: 729;
            stroke-width: 128;
          }
          70% {
            animation-timing-function: step-end;
            stroke: blue;
            stroke-dashoffset: 0;
            stroke-width: 128;
          }
          to {
            stroke: black;
            stroke-width: 1024;
          }
        }
        #make-me-a-hanzi-animation-3 {
          animation: keyframes3 0.84326171875s both;
          animation-delay: 2.341796875s;
          animation-timing-function: linear;
        }
      
        @keyframes keyframes4 {
          from {
            stroke: blue;
            stroke-dashoffset: 492;
            stroke-width: 128;
          }
          62% {
            animation-timing-function: step-end;
            stroke: blue;
            stroke-dashoffset: 0;
            stroke-width: 128;
          }
          to {
            stroke: black;
            stroke-width: 1024;
          }
        }
        #make-me-a-hanzi-animation-4 {
          animation: keyframes4 0.650390625s both;
          animation-delay: 3.18505859375s;
          animation-timing-function: linear;
        }
      
        @keyframes keyframes5 {
          from {
            stroke: blue;
            stroke-dashoffset: 489;
            stroke-width: 128;
          }
          61% {
            animation-timing-function: step-end;
            stroke: blue;
            stroke-dashoffset: 0;
            stroke-width: 128;
          }
          to {
            stroke: black;
            stroke-width: 1024;
          }
        }
        #make-me-a-hanzi-animation-5 {
          animation: keyframes5 0.64794921875s both;
          animation-delay: 3.83544921875s;
          animation-timing-function: linear;
        }
      
        @keyframes keyframes6 {
          from {
            stroke: blue;
            stroke-dashoffset: 534;
            stroke-width: 128;
          }
          63% {
            animation-timing-function: step-end;
            stroke: blue;
            stroke-dashoffset: 0;
            stroke-width: 128;
          }
          to {
            stroke: black;
            stroke-width: 1024;
          }
        }
        #make-me-a-hanzi-animation-6 {
          animation: keyframes6 0.6845703125s both;
          animation-delay: 4.4833984375s;
          animation-timing-function: linear;
        }
      
        @keyframes keyframes7 {
          from {
            stroke: blue;
            stroke-dashoffset: 362;
            stroke-width: 128;
          }
          54% {
            animation-timing-function: step-end;
            stroke: blue;
            stroke-dashoffset: 0;
            stroke-width: 128;
          }
          to {
            stroke: black;
            stroke-width: 1024;
          }
        }
        #make-me-a-hanzi-animation-7 {
          animation: keyframes7 0.5445963541666666s both;
          animation-delay: 5.16796875s;
          animation-timing-function: linear;
        }
      
        @keyframes keyframes8 {
          from {
            stroke: blue;
            stroke-dashoffset: 646;
            stroke-width: 128;
          }
          68% {
            animation-timing-function: step-end;
            stroke: blue;
            stroke-dashoffset: 0;
            stroke-width: 128;
          }
          to {
            stroke: black;
            stroke-width: 1024;
          }
        }
        #make-me-a-hanzi-animation-8 {
          animation: keyframes8 0.7757161458333334s both;
          animation-delay: 5.712565104166667s;
          animation-timing-function: linear;
        }
      
        @keyframes keyframes9 {
          from {
            stroke: blue;
            stroke-dashoffset: 360;
            stroke-width: 128;
          }
          54% {
            animation-timing-function: step-end;
            stroke: blue;
            stroke-dashoffset: 0;
            stroke-width: 128;
          }
          to {
            stroke: black;
            stroke-width: 1024;
          }
        }
        #make-me-a-hanzi-animation-9 {
          animation: keyframes9 0.54296875s both;
          animation-delay: 6.48828125s;
          animation-timing-function: linear;
        }
      
        @keyframes keyframes10 {
          from {
            stroke: blue;
            stroke-dashoffset: 672;
            stroke-width: 128;
          }
          69% {
            animation-timing-function: step-end;
            stroke: blue;
            stroke-dashoffset: 0;
            stroke-width: 128;
          }
          to {
            stroke: black;
            stroke-width: 1024;
          }
        }
        #make-me-a-hanzi-animation-10 {
          animation: keyframes10 0.796875s both;
          animation-delay: 7.03125s;
          animation-timing-function: linear;
        }
      
        @keyframes keyframes11 {
          from {
            stroke: blue;
            stroke-dashoffset: 679;
            stroke-width: 128;
          }
          69% {
            animation-timing-function: step-end;
            stroke: blue;
            stroke-dashoffset: 0;
            stroke-width: 128;
          }
          to {
            stroke: black;
            stroke-width: 1024;
          }
        }
        #make-me-a-hanzi-animation-11 {
          animation: keyframes11 0.8025716145833334s both;
          animation-delay: 7.828125s;
          animation-timing-function: linear;
        }
      
        @keyframes keyframes12 {
          from {
            stroke: blue;
            stroke-dashoffset: 763;
            stroke-width: 128;
          }
          71% {
            animation-timing-function: step-end;
            stroke: blue;
            stroke-dashoffset: 0;
            stroke-width: 128;
          }
          to {
            stroke: black;
            stroke-width: 1024;
          }
        }
        #make-me-a-hanzi-animation-12 {
          animation: keyframes12 0.8709309895833334s both;
          animation-delay: 8.630696614583334s;
          animation-timing-function: linear;
        }
      
        @keyframes keyframes13 {
          from {
            stroke: blue;
            stroke-dashoffset: 823;
            stroke-width: 128;
          }
          73% {
            animation-timing-function: step-end;
            stroke: blue;
            stroke-dashoffset: 0;
            stroke-width: 128;
          }
          to {
            stroke: black;
            stroke-width: 1024;
          }
        }
        #make-me-a-hanzi-animation-13 {
          animation: keyframes13 0.9197591145833334s both;
          animation-delay: 9.501627604166668s;
          animation-timing-function: linear;
        }
      
        @keyframes keyframes14 {
          from {
            stroke: blue;
            stroke-dashoffset: 380;
            stroke-width: 128;
          }
          55% {
            animation-timing-function: step-end;
            stroke: blue;
            stroke-dashoffset: 0;
            stroke-width: 128;
          }
          to {
            stroke: black;
            stroke-width: 1024;
          }
        }
        #make-me-a-hanzi-animation-14 {
          animation: keyframes14 0.5592447916666666s both;
          animation-delay: 10.421386718750002s;
          animation-timing-function: linear;
        }
      
        @keyframes keyframes15 {
          from {
            stroke: blue;
            stroke-dashoffset: 379;
            stroke-width: 128;
          }
          55% {
            animation-timing-function: step-end;
            stroke: blue;
            stroke-dashoffset: 0;
            stroke-width: 128;
          }
          to {
            stroke: black;
            stroke-width: 1024;
          }
        }
        #make-me-a-hanzi-animation-15 {
          animation: keyframes15 0.5584309895833334s both;
          animation-delay: 10.980631510416668s;
          animation-timing-function: linear;
        }
      
        @keyframes keyframes16 {
          from {
            stroke: blue;
            stroke-dashoffset: 786;
            stroke-width: 128;
          }
          72% {
            animation-timing-function: step-end;
            stroke: blue;
            stroke-dashoffset: 0;
            stroke-width: 128;
          }
          to {
            stroke: black;
            stroke-width: 1024;
          }
        }
        #make-me-a-hanzi-animation-16 {
          animation: keyframes16 0.8896484375s both;
          animation-delay: 11.539062500000002s;
          animation-timing-function: linear;
        }
      
        @keyframes keyframes17 {
          from {
            stroke: blue;
            stroke-dashoffset: 520;
            stroke-width: 128;
          }
          63% {
            animation-timing-function: step-end;
            stroke: blue;
            stroke-dashoffset: 0;
            stroke-width: 128;
          }
          to {
            stroke: black;
            stroke-width: 1024;
          }
        }
        #make-me-a-hanzi-animation-17 {
          animation: keyframes17 0.6731770833333334s both;
          animation-delay: 12.428710937500002s;
          animation-timing-function: linear;
        }
      
        @keyframes keyframes18 {
          from {
            stroke: blue;
            stroke-dashoffset: 490;
            stroke-width: 128;
          }
          61% {
            animation-timing-function: step-end;
            stroke: blue;
            stroke-dashoffset: 0;
            stroke-width: 128;
          }
          to {
            stroke: black;
            stroke-width: 1024;
          }
        }
        #make-me-a-hanzi-animation-18 {
          animation: keyframes18 0.6487630208333334s both;
          animation-delay: 13.101888020833336s;
          animation-timing-function: linear;
        }
      
    </style>
    
      <path d="M 398 588 L 402 602 Q 408 614 408 628 L 409 629 Q 409 637 407 643 Q 404 648 387 662 Q 369 675 361 678 L 331 689 L 311 695 Q 303 695 303 691 Q 303 687 304 686 L 331 644 Q 336 633 344 621 L 367 581 C 382 555 390 559 398 588 Z" fill="lightgray" />
    
      <path d="M 193 521 L 257 530 C 287 534 258 526 286 532 L 288 534 L 381 540 L 401 542 L 472 551 L 508 552 L 530 554 Q 543 554 546 562 Q 546 563 537 572 Q 528 580 516 587 Q 504 594 490 598 Q 475 602 474 602 L 463 600 Q 461 600 454 598 Q 446 595 427 593 L 398 588 L 367 581 L 296 570 Q 291 570 222 561 L 126 548 Q 116 546 113 543 L 112 543 Q 112 540 119 534 Q 125 527 134 524 L 193 521 Z" fill="lightgray" />
    
      <path d="M 202 480 L 202 482 L 207 497 Q 208 499 208 506 Q 203 516 193 521 C 171 542 129 554 134 524 L 138 502 L 139 494 L 140 482 L 140 409 Q 138 382 134 323 L 124 222 Q 117 150 74 21 Q 67 0 65 -7 Q 63 -14 44 -51 L 34 -77 Q 30 -84 33 -88 Q 38 -88 42 -82 L 88 -24 Q 101 -3 126 51 Q 150 105 160 163 L 180 276 L 182 289 L 187 340 Q 189 344 192 391 L 193 407 L 197 434 L 200 458 L 200 469 Q 201 479 202 480 Z" fill="lightgray" />
    
      <path d="M 273 418 L 230 412 Q 227 412 224 411 L 210 409 Q 199 409 193 407 C 163 403 164 401 192 391 L 206 386 Q 224 379 274 387 L 319 396 L 348 399 L 386 406 L 431 416 L 447 418 Q 452 420 466 421 Q 480 422 484 418 Q 488 413 484 387 L 479 355 L 474 332 Q 472 320 468 319 C 458 297 458 297 465 290 L 475 279 Q 483 271 491 271 Q 505 271 518 318 Q 530 365 554 414 L 556 416 Q 558 420 559 420 L 561 423 Q 561 428 551 437 Q 541 445 536 450 Q 530 455 516 460 Q 502 465 498 465 Q 493 465 490 462 Q 487 459 434 444 L 388 436 L 319 425 L 273 418 Z" fill="lightgray" />
    
      <path d="M 257 530 L 259 521 Q 256 520 259 516 L 264 504 L 264 501 L 265 499 L 265 497 L 271 442 L 273 418 L 274 387 L 279 300 C 281 270 319 277 319 307 L 319 396 L 319 425 L 319 446 L 321 460 L 325 508 Q 325 514 310 522 L 286 532 C 258 544 254 546 257 530 Z" fill="lightgray" />
    
      <path d="M 387 501 Q 388 493 388 471 L 388 436 L 386 406 L 379 316 C 377 286 411 295 416 325 L 431 416 L 434 444 L 439 476 Q 440 488 446 498 Q 451 507 451 508 Q 447 517 442 520 L 425 530 L 401 542 C 384 550 384 550 381 540 L 382 536 Q 381 536 381 535 L 380 535 Q 378 534 380 529 L 387 501 Z" fill="lightgray" />
    
      <path d="M 279 300 L 235 295 Q 227 294 182 289 C 167 287 167 287 180 276 L 193 265 Q 194 260 214 256 L 220 257 L 239 259 L 393 282 L 438 288 L 465 290 C 495 292 497 313 468 319 Q 464 318 453 324 Q 441 330 438 330 L 428 327 Q 426 325 416 325 L 379 316 L 319 307 L 279 300 Z" fill="lightgray" />
    
      <path d="M 266 118 L 284 117 Q 288 114 334 124 L 363 132 Q 387 138 385 147 Q 385 159 364 166 Q 351 169 343 169 Q 335 166 300 151 L 266 140 C 237 131 236 120 266 118 Z" fill="lightgray" />
    
      <path d="M 220 257 Q 212 241 223 150 L 223 111 Q 222 102 222 73 Q 219 35 213 19 L 208 6 Q 208 -10 214 -21 Q 219 -32 220 -35 Q 220 -38 226 -44 Q 239 -62 253 -44 L 266 -31 L 288 -14 L 372 42 Q 380 48 379 53 Q 377 58 362 54 L 300 40 L 284 35 Q 271 33 268 36 Q 267 40 265 46 Q 265 56 266 59 L 266 118 L 266 140 L 268 168 Q 268 190 275 208 Q 281 226 280 230 Q 263 247 239 259 C 222 268 222 268 220 257 Z" fill="lightgray" />
    
      <path d="M 498 199 L 482 190 L 462 185 Q 453 183 444 181 C 415 174 412 159 442 158 L 474 157 Q 479 155 500 160 L 519 165 Q 531 166 538 170 L 553 175 L 555 179 Q 556 180 551 188 Q 541 204 515 204 L 498 199 Z" fill="lightgray" />
    
      <path d="M 444 181 Q 447 205 448 213 Q 448 238 452 244 L 450 269 Q 452 276 438 288 C 417 310 391 312 393 282 L 400 183 Q 402 175 401 153 Q 399 130 399 115 L 398 30 L 398 11 Q 405 -33 433 -44 L 454 -49 Q 475 -52 484 -52 L 516 -49 Q 562 -39 554 -10 Q 549 5 537 6 Q 533 7 503 -2 Q 472 -11 451 1 Q 438 7 440 9 Q 441 10 438 25 Q 435 39 439 59 L 439 86 L 442 158 L 444 181 Z" fill="lightgray" />
    
      <path d="M 977 536 Q 977 543 962 553.5 Q 947 564 917 564 L 906 562 L 870 554 L 810 541 L 676 524 L 613 517 L 596 516 L 577 514 L 552 512 Q 530 512 545 494 Q 552 484 591 480 L 614 480 L 676 484 L 810 499 L 870 507 L 906 512 Q 920 514 935 518 L 961 524 Q 962 525 967.5 526 Q 973 527 977 536 Z" fill="lightgray" />
    
      <path d="M 676 524 L 676 550 Q 675 556 677 575 Q 679 594 684 606 Q 687 619 686 621 Q 684 630 642 644 Q 580 661 594 636 L 602 617 Q 607 605 608 590 Q 608 575 612 548 L 613 517 L 614 480 L 629 155 C 630 125 678 132 678 162 L 678 258 L 678 287 L 678 362 L 676 392 L 676 484 L 676 524 Z" fill="lightgray" />
    
      <path d="M 870 554 L 872 584 Q 872 603 876 624 Q 879 645 880 654 Q 880 662 885 670 L 891 684 Q 895 703 877 709 Q 832 730 813 730 Q 793 730 790 727 Q 787 723 791 705 L 801 674 Q 810 640 810 592 L 810 541 L 810 499 L 810 400 L 810 373 L 810 292 L 810 271 L 810 176 C 810 146 863 152 864 182 L 870 507 L 870 554 Z" fill="lightgray" />
    
      <path d="M 790 406 Q 789 406 788 406 L 781 407 L 769 408 L 767 409 Q 761 409 746 404 L 717 398 L 676 392 C 646 388 648 365 678 362 L 698 360 Q 711 356 759 366 L 810 373 C 840 377 839 392 810 400 L 795 404 Q 794 404 793 404 L 790 406 Z" fill="lightgray" />
    
      <path d="M 678 258 L 709 258 Q 711 257 755 262 Q 799 266 810 271 C 838 281 839 283 810 292 L 791 298 Q 769 306 751 301 Q 733 296 715 294 L 678 287 C 649 281 648 258 678 258 Z" fill="lightgray" />
    
      <path d="M 629 155 L 590 147 Q 589 146 547 143 L 513 140 Q 504 139 501.5 135.5 Q 499 132 510 120.5 Q 521 109 528 106 L 550 95 Q 557 91 563.5 90.5 Q 570 90 591 96 Q 627 109 650 112 L 711 123 Q 739 127 812.5 133.5 Q 886 140 929 138 L 992 136 L 1017 136 Q 1022 136 1032 138 Q 1038 142 1039 145 Q 1040 148 1035 158 Q 1026 170 1002 182 Q 978 194 971 194.5 Q 964 195 942 190 L 906 187 L 864 182 L 810 176 L 747 170 Q 692 163 678 162 L 629 155 Z" fill="lightgray" />
    
      <path d="M 487 -105 Q 481 -111 483 -117 Q 485 -123 498 -118 L 525 -103 Q 551 -93 624 -35 L 667 1 Q 680 12 693 20 Q 706 28 706 33 Q 707 35 698 45.5 Q 689 56 671 63 L 636 75 Q 621 78 620 75 Q 615 73 613.5 59 Q 612 45 591 8 Q 573 -19 565 -29 L 536 -61 Q 513 -84 509 -87 L 487 -105 Z" fill="lightgray" />
    
      <path d="M 824 40 L 877 -28 L 914 -72 Q 930 -94 945 -101.5 Q 960 -109 965.5 -108 Q 971 -107 979 -96 Q 987 -85 990 -75 Q 992 -54 988 -40.5 Q 984 -27 970 -10 Q 956 7 942.5 15.5 Q 929 24 894.5 42.5 Q 860 61 843 65 L 815 74 Q 802 77 801 73 Q 796 68 805 60 L 824 40 Z" fill="lightgray" />
    
    
      <clipPath id="make-me-a-hanzi-clip-0">
        <path d="M 398 588 L 402 602 Q 408 614 408 628 L 409 629 Q 409 637 407 643 Q 404 648 387 662 Q 369 675 361 678 L 331 689 L 311 695 Q 303 695 303 691 Q 303 687 304 686 L 331 644 Q 336 633 344 621 L 367 581 C 382 555 390 559 398 588 Z" />
      </clipPath>
      <path clip-path="url(#make-me-a-hanzi-clip-0)" d="M 309 690 L 376 629 L 379 608 L 372 593" fill="none" id="make-me-a-hanzi-animation-0" stroke-dasharray="256 512" stroke-linecap="round" />
    
      <clipPath id="make-me-a-hanzi-clip-1">
        <path d="M 193 521 L 257 530 C 287 534 258 526 286 532 L 288 534 L 381 540 L 401 542 L 472 551 L 508 552 L 530 554 Q 543 554 546 562 Q 546 563 537 572 Q 528 580 516 587 Q 504 594 490 598 Q 475 602 474 602 L 463 600 Q 461 600 454 598 Q 446 595 427 593 L 398 588 L 367 581 L 296 570 Q 291 570 222 561 L 126 548 Q 116 546 113 543 L 112 543 Q 112 540 119 534 Q 125 527 134 524 L 193 521 Z" />
      </clipPath>
      <path clip-path="url(#make-me-a-hanzi-clip-1)" d="M 121 541 L 142 536 L 197 539 L 472 576 L 538 564" fill="none" id="make-me-a-hanzi-animation-1" stroke-dasharray="549 1098" stroke-linecap="round" />
    
      <clipPath id="make-me-a-hanzi-clip-2">
        <path d="M 202 480 L 202 482 L 207 497 Q 208 499 208 506 Q 203 516 193 521 C 171 542 129 554 134 524 L 138 502 L 139 494 L 140 482 L 140 409 Q 138 382 134 323 L 124 222 Q 117 150 74 21 Q 67 0 65 -7 Q 63 -14 44 -51 L 34 -77 Q 30 -84 33 -88 Q 38 -88 42 -82 L 88 -24 Q 101 -3 126 51 Q 150 105 160 163 L 180 276 L 182 289 L 187 340 Q 189 344 192 391 L 193 407 L 197 434 L 200 458 L 200 469 Q 201 479 202 480 Z" />
      </clipPath>
      <path clip-path="url(#make-me-a-hanzi-clip-2)" d="M 141 520 L 171 490 L 159 311 L 142 188 L 105 50 L 73 -23 L 36 -83" fill="none" id="make-me-a-hanzi-animation-2" stroke-dasharray="767 1534" stroke-linecap="round" />
    
      <clipPath id="make-me-a-hanzi-clip-3">
        <path d="M 273 418 L 230 412 Q 227 412 224 411 L 210 409 Q 199 409 193 407 C 163 403 164 401 192 391 L 206 386 Q 224 379 274 387 L 319 396 L 348 399 L 386 406 L 431 416 L 447 418 Q 452 420 466 421 Q 480 422 484 418 Q 488 413 484 387 L 479 355 L 474 332 Q 472 320 468 319 C 458 297 458 297 465 290 L 475 279 Q 483 271 491 271 Q 505 271 518 318 Q 530 365 554 414 L 556 416 Q 558 420 559 420 L 561 423 Q 561 428 551 437 Q 541 445 536 450 Q 530 455 516 460 Q 502 465 498 465 Q 493 465 490 462 Q 487 459 434 444 L 388 436 L 319 425 L 273 418 Z" />
      </clipPath>
      <path clip-path="url(#make-me-a-hanzi-clip-3)" d="M 198 403 L 213 397 L 246 398 L 391 421 L 449 436 L 502 437 L 519 419 L 490 309 L 490 283" fill="none" id="make-me-a-hanzi-animation-3" stroke-dasharray="601 1202" stroke-linecap="round" />
    
      <clipPath id="make-me-a-hanzi-clip-4">
        <path d="M 257 530 L 259 521 Q 256 520 259 516 L 264 504 L 264 501 L 265 499 L 265 497 L 271 442 L 273 418 L 274 387 L 279 300 C 281 270 319 277 319 307 L 319 396 L 319 425 L 319 446 L 321 460 L 325 508 Q 325 514 310 522 L 286 532 C 258 544 254 546 257 530 Z" />
      </clipPath>
      <path clip-path="url(#make-me-a-hanzi-clip-4)" d="M 264 527 L 295 497 L 299 329 L 285 308" fill="none" id="make-me-a-hanzi-animation-4" stroke-dasharray="364 728" stroke-linecap="round" />
    
      <clipPath id="make-me-a-hanzi-clip-5">
        <path d="M 387 501 Q 388 493 388 471 L 388 436 L 386 406 L 379 316 C 377 286 411 295 416 325 L 431 416 L 434 444 L 439 476 Q 440 488 446 498 Q 451 507 451 508 Q 447 517 442 520 L 425 530 L 401 542 C 384 550 384 550 381 540 L 382 536 Q 381 536 381 535 L 380 535 Q 378 534 380 529 L 387 501 Z" />
      </clipPath>
      <path clip-path="url(#make-me-a-hanzi-clip-5)" d="M 381 532 L 399 524 L 416 502 L 400 341 L 384 323" fill="none" id="make-me-a-hanzi-animation-5" stroke-dasharray="361 722" stroke-linecap="round" />
    
      <clipPath id="make-me-a-hanzi-clip-6">
        <path d="M 279 300 L 235 295 Q 227 294 182 289 C 167 287 167 287 180 276 L 193 265 Q 194 260 214 256 L 220 257 L 239 259 L 393 282 L 438 288 L 465 290 C 495 292 497 313 468 319 Q 464 318 453 324 Q 441 330 438 330 L 428 327 Q 426 325 416 325 L 379 316 L 319 307 L 279 300 Z" />
      </clipPath>
      <path clip-path="url(#make-me-a-hanzi-clip-6)" d="M 190 281 L 206 275 L 232 276 L 464 312" fill="none" id="make-me-a-hanzi-animation-6" stroke-dasharray="406 812" stroke-linecap="round" />
    
      <clipPath id="make-me-a-hanzi-clip-7">
        <path d="M 266 118 L 284 117 Q 288 114 334 124 L 363 132 Q 387 138 385 147 Q 385 159 364 166 Q 351 169 343 169 Q 335 166 300 151 L 266 140 C 237 131 236 120 266 118 Z" />
      </clipPath>
      <path clip-path="url(#make-me-a-hanzi-clip-7)" d="M 271 124 L 346 149 L 373 148" fill="none" id="make-me-a-hanzi-animation-7" stroke-dasharray="234 468" stroke-linecap="round" />
    
      <clipPath id="make-me-a-hanzi-clip-8">
        <path d="M 220 257 Q 212 241 223 150 L 223 111 Q 222 102 222 73 Q 219 35 213 19 L 208 6 Q 208 -10 214 -21 Q 219 -32 220 -35 Q 220 -38 226 -44 Q 239 -62 253 -44 L 266 -31 L 288 -14 L 372 42 Q 380 48 379 53 Q 377 58 362 54 L 300 40 L 284 35 Q 271 33 268 36 Q 267 40 265 46 Q 265 56 266 59 L 266 118 L 266 140 L 268 168 Q 268 190 275 208 Q 281 226 280 230 Q 263 247 239 259 C 222 268 222 268 220 257 Z" />
      </clipPath>
      <path clip-path="url(#make-me-a-hanzi-clip-8)" d="M 225 252 L 247 219 L 241 45 L 248 3 L 281 10 L 373 49" fill="none" id="make-me-a-hanzi-animation-8" stroke-dasharray="518 1036" stroke-linecap="round" />
    
      <clipPath id="make-me-a-hanzi-clip-9">
        <path d="M 498 199 L 482 190 L 462 185 Q 453 183 444 181 C 415 174 412 159 442 158 L 474 157 Q 479 155 500 160 L 519 165 Q 531 166 538 170 L 553 175 L 555 179 Q 556 180 551 188 Q 541 204 515 204 L 498 199 Z" />
      </clipPath>
      <path clip-path="url(#make-me-a-hanzi-clip-9)" d="M 448 163 L 456 170 L 521 185 L 547 181" fill="none" id="make-me-a-hanzi-animation-9" stroke-dasharray="232 464" stroke-linecap="round" />
    
      <clipPath id="make-me-a-hanzi-clip-10">
        <path d="M 444 181 Q 447 205 448 213 Q 448 238 452 244 L 450 269 Q 452 276 438 288 C 417 310 391 312 393 282 L 400 183 Q 402 175 401 153 Q 399 130 399 115 L 398 30 L 398 11 Q 405 -33 433 -44 L 454 -49 Q 475 -52 484 -52 L 516 -49 Q 562 -39 554 -10 Q 549 5 537 6 Q 533 7 503 -2 Q 472 -11 451 1 Q 438 7 440 9 Q 441 10 438 25 Q 435 39 439 59 L 439 86 L 442 158 L 444 181 Z" />
      </clipPath>
      <path clip-path="url(#make-me-a-hanzi-clip-10)" d="M 402 275 L 423 258 L 424 246 L 417 51 L 423 -5 L 439 -20 L 466 -28 L 508 -26 L 532 -18 L 536 -11" fill="none" id="make-me-a-hanzi-animation-10" stroke-dasharray="544 1088" stroke-linecap="round" />
    
      <clipPath id="make-me-a-hanzi-clip-11">
        <path d="M 977 536 Q 977 543 962 553.5 Q 947 564 917 564 L 906 562 L 870 554 L 810 541 L 676 524 L 613 517 L 596 516 L 577 514 L 552 512 Q 530 512 545 494 Q 552 484 591 480 L 614 480 L 676 484 L 810 499 L 870 507 L 906 512 Q 920 514 935 518 L 961 524 Q 962 525 967.5 526 Q 973 527 977 536 Z" />
      </clipPath>
      <path clip-path="url(#make-me-a-hanzi-clip-11)" d="M 548 503 L 584 497 L 652 501 L 815 520 L 916 539 L 967 536" fill="none" id="make-me-a-hanzi-animation-11" stroke-dasharray="551 1102" stroke-linecap="round" />
    
      <clipPath id="make-me-a-hanzi-clip-12">
        <path d="M 676 524 L 676 550 Q 675 556 677 575 Q 679 594 684 606 Q 687 619 686 621 Q 684 630 642 644 Q 580 661 594 636 L 602 617 Q 607 605 608 590 Q 608 575 612 548 L 613 517 L 614 480 L 629 155 C 630 125 678 132 678 162 L 678 258 L 678 287 L 678 362 L 676 392 L 676 484 L 676 524 Z" />
      </clipPath>
      <path clip-path="url(#make-me-a-hanzi-clip-12)" d="M 599 642 L 624 627 L 643 601 L 653 184 L 634 163" fill="none" id="make-me-a-hanzi-animation-12" stroke-dasharray="635 1270" stroke-linecap="round" />
    
      <clipPath id="make-me-a-hanzi-clip-13">
        <path d="M 870 554 L 872 584 Q 872 603 876 624 Q 879 645 880 654 Q 880 662 885 670 L 891 684 Q 895 703 877 709 Q 832 730 813 730 Q 793 730 790 727 Q 787 723 791 705 L 801 674 Q 810 640 810 592 L 810 541 L 810 499 L 810 400 L 810 373 L 810 292 L 810 271 L 810 176 C 810 146 863 152 864 182 L 870 507 L 870 554 Z" />
      </clipPath>
      <path clip-path="url(#make-me-a-hanzi-clip-13)" d="M 796 722 L 843 678 L 838 207 L 816 184" fill="none" id="make-me-a-hanzi-animation-13" stroke-dasharray="695 1390" stroke-linecap="round" />
    
      <clipPath id="make-me-a-hanzi-clip-14">
        <path d="M 790 406 Q 789 406 788 406 L 781 407 L 769 408 L 767 409 Q 761 409 746 404 L 717 398 L 676 392 C 646 388 648 365 678 362 L 698 360 Q 711 356 759 366 L 810 373 C 840 377 839 392 810 400 L 795 404 Q 794 404 793 404 L 790 406 Z" />
      </clipPath>
      <path clip-path="url(#make-me-a-hanzi-clip-14)" d="M 684 385 L 694 377 L 773 388 L 803 380" fill="none" id="make-me-a-hanzi-animation-14" stroke-dasharray="252 504" stroke-linecap="round" />
    
      <clipPath id="make-me-a-hanzi-clip-15">
        <path d="M 678 258 L 709 258 Q 711 257 755 262 Q 799 266 810 271 C 838 281 839 283 810 292 L 791 298 Q 769 306 751 301 Q 733 296 715 294 L 678 287 C 649 281 648 258 678 258 Z" />
      </clipPath>
      <path clip-path="url(#make-me-a-hanzi-clip-15)" d="M 686 265 L 694 274 L 769 283 L 804 276" fill="none" id="make-me-a-hanzi-animation-15" stroke-dasharray="251 502" stroke-linecap="round" />
    
      <clipPath id="make-me-a-hanzi-clip-16">
        <path d="M 629 155 L 590 147 Q 589 146 547 143 L 513 140 Q 504 139 501.5 135.5 Q 499 132 510 120.5 Q 521 109 528 106 L 550 95 Q 557 91 563.5 90.5 Q 570 90 591 96 Q 627 109 650 112 L 711 123 Q 739 127 812.5 133.5 Q 886 140 929 138 L 992 136 L 1017 136 Q 1022 136 1032 138 Q 1038 142 1039 145 Q 1040 148 1035 158 Q 1026 170 1002 182 Q 978 194 971 194.5 Q 964 195 942 190 L 906 187 L 864 182 L 810 176 L 747 170 Q 692 163 678 162 L 629 155 Z" />
      </clipPath>
      <path clip-path="url(#make-me-a-hanzi-clip-16)" d="M 509 134 L 524 126 L 576 118 L 739 149 L 956 165 L 1020 152 L 1024 141" fill="none" id="make-me-a-hanzi-animation-16" stroke-dasharray="658 1316" stroke-linecap="round" />
    
      <clipPath id="make-me-a-hanzi-clip-17">
        <path d="M 487 -105 Q 481 -111 483 -117 Q 485 -123 498 -118 L 525 -103 Q 551 -93 624 -35 L 667 1 Q 680 12 693 20 Q 706 28 706 33 Q 707 35 698 45.5 Q 689 56 671 63 L 636 75 Q 621 78 620 75 Q 615 73 613.5 59 Q 612 45 591 8 Q 573 -19 565 -29 L 536 -61 Q 513 -84 509 -87 L 487 -105 Z" />
      </clipPath>
      <path clip-path="url(#make-me-a-hanzi-clip-17)" d="M 696 35 L 644 31 L 601 -24 L 560 -63 L 491 -113" fill="none" id="make-me-a-hanzi-animation-17" stroke-dasharray="392 784" stroke-linecap="round" />
    
      <clipPath id="make-me-a-hanzi-clip-18">
        <path d="M 824 40 L 877 -28 L 914 -72 Q 930 -94 945 -101.5 Q 960 -109 965.5 -108 Q 971 -107 979 -96 Q 987 -85 990 -75 Q 992 -54 988 -40.5 Q 984 -27 970 -10 Q 956 7 942.5 15.5 Q 929 24 894.5 42.5 Q 860 61 843 65 L 815 74 Q 802 77 801 73 Q 796 68 805 60 L 824 40 Z" />
      </clipPath>
      <path clip-path="url(#make-me-a-hanzi-clip-18)" d="M 808 68 L 874 23 L 935 -32 L 956 -67 L 963 -97" fill="none" id="make-me-a-hanzi-animation-18" stroke-dasharray="362 724" stroke-linecap="round" />
    
  </g>
</svg>