<svg xmlns="http://www.w3.org/2000/svg" version="1.1" viewBox="0 0 1024 1024">
  <g stroke="lightgray" stroke-dasharray="1,1" stroke-width="1" transform="scale(4, 4)">
    <line x1="0" y1="0" x2="256" y2="256" />
    <line x1="256" y1="0" x2="0" y2="256" />
    <line x1="128" y1="0" x2="128" y2="256" />
    <line x1="0" y1="128" x2="256" y2="128" />
  </g>
  <g transform="scale(1.0, -1.0) translate(0.0, -821.00)">
    <style type="text/css">
      
        @keyframes keyframes0 {
          from {
            stroke: blue;
            stroke-dashoffset: 384;
            stroke-width: 128;
          }
          56% {
            animation-timing-function: step-end;
            stroke: blue;
            stroke-dashoffset: 0;
            stroke-width: 128;
          }
          to {
            stroke: black;
            stroke-width: 1024;
          }
        }
        #make-me-a-hanzi-animation-0 {
          animation: keyframes0 0.5625s both;
          animation-delay: 0s;
          animation-timing-function: linear;
        }
      
        @keyframes keyframes1 {
          from {
            stroke: blue;
            stroke-dashoffset: 447;
            stroke-width: 128;
          }
          59% {
            animation-timing-function: step-end;
            stroke: blue;
            stroke-dashoffset: 0;
            stroke-width: 128;
          }
          to {
            stroke: black;
            stroke-width: 1024;
          }
        }
        #make-me-a-hanzi-animation-1 {
          animation: keyframes1 0.61376953125s both;
          animation-delay: 0.5625s;
          animation-timing-function: linear;
        }
      
        @keyframes keyframes2 {
          from {
            stroke: blue;
            stroke-dashoffset: 368;
            stroke-width: 128;
          }
          55% {
            animation-timing-function: step-end;
            stroke: blue;
            stroke-dashoffset: 0;
            stroke-width: 128;
          }
          to {
            stroke: black;
            stroke-width: 1024;
          }
        }
        #make-me-a-hanzi-animation-2 {
          animation: keyframes2 0.5494791666666666s both;
          animation-delay: 1.17626953125s;
          animation-timing-function: linear;
        }
      
        @keyframes keyframes3 {
          from {
            stroke: blue;
            stroke-dashoffset: 385;
            stroke-width: 128;
          }
          56% {
            animation-timing-function: step-end;
            stroke: blue;
            stroke-dashoffset: 0;
            stroke-width: 128;
          }
          to {
            stroke: black;
            stroke-width: 1024;
          }
        }
        #make-me-a-hanzi-animation-3 {
          animation: keyframes3 0.5633138020833334s both;
          animation-delay: 1.7257486979166665s;
          animation-timing-function: linear;
        }
      
        @keyframes keyframes4 {
          from {
            stroke: blue;
            stroke-dashoffset: 449;
            stroke-width: 128;
          }
          59% {
            animation-timing-function: step-end;
            stroke: blue;
            stroke-dashoffset: 0;
            stroke-width: 128;
          }
          to {
            stroke: black;
            stroke-width: 1024;
          }
        }
        #make-me-a-hanzi-animation-4 {
          animation: keyframes4 0.6153971354166666s both;
          animation-delay: 2.2890625s;
          animation-timing-function: linear;
        }
      
        @keyframes keyframes5 {
          from {
            stroke: blue;
            stroke-dashoffset: 373;
            stroke-width: 128;
          }
          55% {
            animation-timing-function: step-end;
            stroke: blue;
            stroke-dashoffset: 0;
            stroke-width: 128;
          }
          to {
            stroke: black;
            stroke-width: 1024;
          }
        }
        #make-me-a-hanzi-animation-5 {
          animation: keyframes5 0.5535481770833334s both;
          animation-delay: 2.9044596354166665s;
          animation-timing-function: linear;
        }
      
        @keyframes keyframes6 {
          from {
            stroke: blue;
            stroke-dashoffset: 432;
            stroke-width: 128;
          }
          58% {
            animation-timing-function: step-end;
            stroke: blue;
            stroke-dashoffset: 0;
            stroke-width: 128;
          }
          to {
            stroke: black;
            stroke-width: 1024;
          }
        }
        #make-me-a-hanzi-animation-6 {
          animation: keyframes6 0.6015625s both;
          animation-delay: 3.4580078125s;
          animation-timing-function: linear;
        }
      
        @keyframes keyframes7 {
          from {
            stroke: blue;
            stroke-dashoffset: 753;
            stroke-width: 128;
          }
          71% {
            animation-timing-function: step-end;
            stroke: blue;
            stroke-dashoffset: 0;
            stroke-width: 128;
          }
          to {
            stroke: black;
            stroke-width: 1024;
          }
        }
        #make-me-a-hanzi-animation-7 {
          animation: keyframes7 0.86279296875s both;
          animation-delay: 4.0595703125s;
          animation-timing-function: linear;
        }
      
        @keyframes keyframes8 {
          from {
            stroke: blue;
            stroke-dashoffset: 427;
            stroke-width: 128;
          }
          58% {
            animation-timing-function: step-end;
            stroke: blue;
            stroke-dashoffset: 0;
            stroke-width: 128;
          }
          to {
            stroke: black;
            stroke-width: 1024;
          }
        }
        #make-me-a-hanzi-animation-8 {
          animation: keyframes8 0.5974934895833334s both;
          animation-delay: 4.92236328125s;
          animation-timing-function: linear;
        }
      
        @keyframes keyframes9 {
          from {
            stroke: blue;
            stroke-dashoffset: 358;
            stroke-width: 128;
          }
          54% {
            animation-timing-function: step-end;
            stroke: blue;
            stroke-dashoffset: 0;
            stroke-width: 128;
          }
          to {
            stroke: black;
            stroke-width: 1024;
          }
        }
        #make-me-a-hanzi-animation-9 {
          animation: keyframes9 0.5413411458333334s both;
          animation-delay: 5.519856770833333s;
          animation-timing-function: linear;
        }
      
        @keyframes keyframes10 {
          from {
            stroke: blue;
            stroke-dashoffset: 479;
            stroke-width: 128;
          }
          61% {
            animation-timing-function: step-end;
            stroke: blue;
            stroke-dashoffset: 0;
            stroke-width: 128;
          }
          to {
            stroke: black;
            stroke-width: 1024;
          }
        }
        #make-me-a-hanzi-animation-10 {
          animation: keyframes10 0.6398111979166666s both;
          animation-delay: 6.061197916666666s;
          animation-timing-function: linear;
        }
      
        @keyframes keyframes11 {
          from {
            stroke: blue;
            stroke-dashoffset: 889;
            stroke-width: 128;
          }
          74% {
            animation-timing-function: step-end;
            stroke: blue;
            stroke-dashoffset: 0;
            stroke-width: 128;
          }
          to {
            stroke: black;
            stroke-width: 1024;
          }
        }
        #make-me-a-hanzi-animation-11 {
          animation: keyframes11 0.9734700520833334s both;
          animation-delay: 6.701009114583333s;
          animation-timing-function: linear;
        }
      
        @keyframes keyframes12 {
          from {
            stroke: blue;
            stroke-dashoffset: 380;
            stroke-width: 128;
          }
          55% {
            animation-timing-function: step-end;
            stroke: blue;
            stroke-dashoffset: 0;
            stroke-width: 128;
          }
          to {
            stroke: black;
            stroke-width: 1024;
          }
        }
        #make-me-a-hanzi-animation-12 {
          animation: keyframes12 0.5592447916666666s both;
          animation-delay: 7.674479166666666s;
          animation-timing-function: linear;
        }
      
        @keyframes keyframes13 {
          from {
            stroke: blue;
            stroke-dashoffset: 610;
            stroke-width: 128;
          }
          67% {
            animation-timing-function: step-end;
            stroke: blue;
            stroke-dashoffset: 0;
            stroke-width: 128;
          }
          to {
            stroke: black;
            stroke-width: 1024;
          }
        }
        #make-me-a-hanzi-animation-13 {
          animation: keyframes13 0.7464192708333334s both;
          animation-delay: 8.233723958333332s;
          animation-timing-function: linear;
        }
      
        @keyframes keyframes14 {
          from {
            stroke: blue;
            stroke-dashoffset: 506;
            stroke-width: 128;
          }
          62% {
            animation-timing-function: step-end;
            stroke: blue;
            stroke-dashoffset: 0;
            stroke-width: 128;
          }
          to {
            stroke: black;
            stroke-width: 1024;
          }
        }
        #make-me-a-hanzi-animation-14 {
          animation: keyframes14 0.6617838541666666s both;
          animation-delay: 8.980143229166666s;
          animation-timing-function: linear;
        }
      
        @keyframes keyframes15 {
          from {
            stroke: blue;
            stroke-dashoffset: 452;
            stroke-width: 128;
          }
          60% {
            animation-timing-function: step-end;
            stroke: blue;
            stroke-dashoffset: 0;
            stroke-width: 128;
          }
          to {
            stroke: black;
            stroke-width: 1024;
          }
        }
        #make-me-a-hanzi-animation-15 {
          animation: keyframes15 0.6178385416666666s both;
          animation-delay: 9.641927083333332s;
          animation-timing-function: linear;
        }
      
        @keyframes keyframes16 {
          from {
            stroke: blue;
            stroke-dashoffset: 838;
            stroke-width: 128;
          }
          73% {
            animation-timing-function: step-end;
            stroke: blue;
            stroke-dashoffset: 0;
            stroke-width: 128;
          }
          to {
            stroke: black;
            stroke-width: 1024;
          }
        }
        #make-me-a-hanzi-animation-16 {
          animation: keyframes16 0.9319661458333334s both;
          animation-delay: 10.259765624999998s;
          animation-timing-function: linear;
        }
      
        @keyframes keyframes17 {
          from {
            stroke: blue;
            stroke-dashoffset: 483;
            stroke-width: 128;
          }
          61% {
            animation-timing-function: step-end;
            stroke: blue;
            stroke-dashoffset: 0;
            stroke-width: 128;
          }
          to {
            stroke: black;
            stroke-width: 1024;
          }
        }
        #make-me-a-hanzi-animation-17 {
          animation: keyframes17 0.64306640625s both;
          animation-delay: 11.191731770833332s;
          animation-timing-function: linear;
        }
      
        @keyframes keyframes18 {
          from {
            stroke: blue;
            stroke-dashoffset: 570;
            stroke-width: 128;
          }
          65% {
            animation-timing-function: step-end;
            stroke: blue;
            stroke-dashoffset: 0;
            stroke-width: 128;
          }
          to {
            stroke: black;
            stroke-width: 1024;
          }
        }
        #make-me-a-hanzi-animation-18 {
          animation: keyframes18 0.7138671875s both;
          animation-delay: 11.834798177083332s;
          animation-timing-function: linear;
        }
      
        @keyframes keyframes19 {
          from {
            stroke: blue;
            stroke-dashoffset: 1049;
            stroke-width: 128;
          }
          77% {
            animation-timing-function: step-end;
            stroke: blue;
            stroke-dashoffset: 0;
            stroke-width: 128;
          }
          to {
            stroke: black;
            stroke-width: 1024;
          }
        }
        #make-me-a-hanzi-animation-19 {
          animation: keyframes19 1.1036783854166667s both;
          animation-delay: 12.548665364583332s;
          animation-timing-function: linear;
        }
      
    </style>
    
      <path d="M 337 701 Q 328 705 308 708 Q 299 709 296 706 Q 292 702 298 688 Q 314 660 327 609 Q 330 594 339 585 Q 352 569 357 580 Q 358 584 359 591 L 358 615 Q 352 670 352 682 C 352 695 352 695 337 701 Z" fill="lightgray" />
    
      <path d="M 459 632 Q 469 675 484 687 Q 500 706 482 716 Q 467 723 447 736 Q 435 742 395 721 L 337 701 C 309 691 323 675 352 682 Q 382 689 407 697 Q 423 701 427 695 Q 431 692 428 672 Q 424 654 420 634 C 414 605 452 603 459 632 Z" fill="lightgray" />
    
      <path d="M 359 591 Q 366 590 375 593 Q 403 600 469 609 Q 476 610 477 617 Q 477 623 459 632 L 420 634 L 419 634 Q 386 622 358 615 C 329 608 329 593 359 591 Z" fill="lightgray" />
    
      <path d="M 552 731 Q 545 735 522 739 Q 515 742 512 738 Q 508 734 513 723 Q 529 692 541 638 Q 542 622 553 612 Q 565 597 568 608 Q 569 615 571 624 L 569 644 Q 560 693 560 711 C 560 728 560 728 552 731 Z" fill="lightgray" />
    
      <path d="M 676 663 Q 689 702 702 714 Q 718 733 702 743 Q 687 752 668 765 Q 655 772 640 764 Q 624 752 601 745 Q 580 738 552 731 C 523 724 530 706 560 711 Q 567 712 575 714 L 627 727 Q 643 731 647 724 Q 650 721 637 663 C 630 634 666 635 676 663 Z" fill="lightgray" />
    
      <path d="M 571 624 L 579 624 Q 640 633 685 637 Q 703 640 697 650 Q 690 660 676 663 L 637 663 Q 628 663 619 660 L 569 644 C 540 635 541 624 571 624 Z" fill="lightgray" />
    
      <path d="M 342 558 Q 330 562 314 563 Q 304 566 300 561 Q 296 555 303 541 Q 327 501 344 431 Q 348 412 361 398 Q 377 379 382 393 Q 383 400 384 408 L 382 430 Q 376 448 365 530 C 362 552 362 552 342 558 Z" fill="lightgray" />
    
      <path d="M 612 437 Q 625 418 637 410 Q 646 403 660 421 Q 669 431 693 495 Q 702 522 723 543 Q 735 553 725 566 Q 712 581 676 605 Q 663 614 591 598 Q 585 598 440 574 Q 388 564 342 558 C 312 554 336 522 365 530 Q 411 543 479 553 L 510 559 Q 627 580 642 566 Q 649 557 647 550 Q 634 486 628 475 Q 624 465 611 463 C 598 456 598 456 612 437 Z" fill="lightgray" />
    
      <path d="M 522 492 Q 555 498 585 501 Q 603 504 597 514 Q 588 526 569 530 Q 553 531 524 524 L 484 515 Q 444 506 410 497 Q 397 494 412 483 Q 421 476 438 479 Q 462 483 486 486 L 522 492 Z" fill="lightgray" />
    
      <path d="M 519 456 Q 520 475 522 492 L 524 524 Q 524 528 525 529 Q 529 542 523 548 Q 516 555 510 559 C 486 577 475 583 479 553 Q 480 546 484 515 L 486 486 Q 486 471 488 450 C 491 420 517 426 519 456 Z" fill="lightgray" />
    
      <path d="M 384 408 Q 394 407 409 409 Q 526 428 612 437 C 642 440 640 455 611 463 Q 607 464 601 466 Q 571 473 519 456 L 488 450 Q 431 441 382 430 C 353 424 354 409 384 408 Z" fill="lightgray" />
    
      <path d="M 212 352 Q 193 351 206 335 Q 219 322 236 316 Q 255 312 270 315 Q 448 361 784 361 Q 803 361 823 359 Q 842 359 846 367 Q 852 377 836 391 Q 787 428 753 421 Q 593 393 212 352 Z" fill="lightgray" />
    
      <path d="M 341 303 L 336 303 Q 326 304 324 301 Q 320 297 327 283 Q 343 255 358 208 Q 361 193 371 185 Q 386 169 389 181 Q 390 185 391 192 L 389 215 Q 382 254 381 270 C 379 300 371 303 341 303 Z" fill="lightgray" />
    
      <path d="M 632 246 Q 647 270 667 282 Q 682 295 671 311 Q 611 359 572 340 Q 431 295 341 303 C 311 305 351 266 381 270 Q 484 285 589 302 Q 590 301 594 298 Q 598 294 597 285 L 589 250 C 582 221 615 221 632 246 Z" fill="lightgray" />
    
      <path d="M 493 203 Q 572 215 636 222 Q 655 223 648 234 Q 644 243 632 246 L 589 250 Q 579 249 571 247 L 389 215 C 359 210 361 189 391 192 L 448 197 L 493 203 Z" fill="lightgray" />
    
      <path d="M 304 138 Q 295 142 262 147 Q 252 150 248 145 Q 244 139 251 125 Q 276 79 295 0 Q 299 -22 313 -38 Q 329 -57 334 -43 Q 335 -37 336 -30 L 335 -5 Q 317 82 314 105 C 310 135 309 136 304 138 Z" fill="lightgray" />
    
      <path d="M 652 0 Q 656 -10 667 -11 Q 683 -8 713 56 Q 728 102 760 128 Q 776 141 763 156 Q 747 171 703 195 Q 688 202 614 187 Q 608 187 525 175 L 461 165 Q 436 162 415 157 Q 351 145 304 138 C 274 133 284 100 314 105 Q 318 105 325 106 Q 377 122 466 135 L 523 143 Q 653 164 677 152 Q 684 148 679 126 Q 664 48 653 28 C 644 6 644 6 652 0 Z" fill="lightgray" />
    
      <path d="M 510 65 Q 556 72 599 76 Q 618 79 612 90 Q 605 102 583 107 Q 552 114 514 99 L 466 90 Q 420 83 379 74 Q 364 73 381 58 Q 390 52 467 60 L 510 65 Z" fill="lightgray" />
    
      <path d="M 512 -14 Q 585 -4 652 0 C 682 2 681 18 653 28 Q 641 40 509 18 L 468 12 Q 398 5 335 -5 C 305 -10 306 -32 336 -30 Q 339 -30 470 -19 L 512 -14 Z" fill="lightgray" />
    
      <path d="M 896 -69 Q 881 -26 873 47 Q 872 60 865 66 Q 858 70 854 52 Q 836 -36 823 -53 Q 795 -86 660 -97 Q 587 -97 556 -86 Q 519 -68 512 -14 L 509 18 L 509 37 Q 509 52 510 65 L 514 99 Q 515 127 523 143 C 531 169 531 169 525 175 Q 519 187 493 203 C 469 220 436 225 448 197 Q 455 182 461 165 L 466 135 L 466 90 L 467 60 Q 467 35 468 12 L 470 -19 Q 476 -88 516 -115 Q 571 -154 761 -138 Q 848 -131 880 -110 Q 907 -97 896 -69 Z" fill="lightgray" />
    
    
      <clipPath id="make-me-a-hanzi-clip-0">
        <path d="M 337 701 Q 328 705 308 708 Q 299 709 296 706 Q 292 702 298 688 Q 314 660 327 609 Q 330 594 339 585 Q 352 569 357 580 Q 358 584 359 591 L 358 615 Q 352 670 352 682 C 352 695 352 695 337 701 Z" />
      </clipPath>
      <path clip-path="url(#make-me-a-hanzi-clip-0)" d="M 303 701 L 330 674 L 349 586" fill="none" id="make-me-a-hanzi-animation-0" stroke-dasharray="256 512" stroke-linecap="round" />
    
      <clipPath id="make-me-a-hanzi-clip-1">
        <path d="M 459 632 Q 469 675 484 687 Q 500 706 482 716 Q 467 723 447 736 Q 435 742 395 721 L 337 701 C 309 691 323 675 352 682 Q 382 689 407 697 Q 423 701 427 695 Q 431 692 428 672 Q 424 654 420 634 C 414 605 452 603 459 632 Z" />
      </clipPath>
      <path clip-path="url(#make-me-a-hanzi-clip-1)" d="M 345 700 L 357 694 L 412 713 L 442 713 L 456 698 L 444 653 L 427 639" fill="none" id="make-me-a-hanzi-animation-1" stroke-dasharray="319 638" stroke-linecap="round" />
    
      <clipPath id="make-me-a-hanzi-clip-2">
        <path d="M 359 591 Q 366 590 375 593 Q 403 600 469 609 Q 476 610 477 617 Q 477 623 459 632 L 420 634 L 419 634 Q 386 622 358 615 C 329 608 329 593 359 591 Z" />
      </clipPath>
      <path clip-path="url(#make-me-a-hanzi-clip-2)" d="M 363 597 L 371 606 L 426 619 L 469 617" fill="none" id="make-me-a-hanzi-animation-2" stroke-dasharray="240 480" stroke-linecap="round" />
    
      <clipPath id="make-me-a-hanzi-clip-3">
        <path d="M 552 731 Q 545 735 522 739 Q 515 742 512 738 Q 508 734 513 723 Q 529 692 541 638 Q 542 622 553 612 Q 565 597 568 608 Q 569 615 571 624 L 569 644 Q 560 693 560 711 C 560 728 560 728 552 731 Z" />
      </clipPath>
      <path clip-path="url(#make-me-a-hanzi-clip-3)" d="M 518 731 L 541 706 L 561 613" fill="none" id="make-me-a-hanzi-animation-3" stroke-dasharray="257 514" stroke-linecap="round" />
    
      <clipPath id="make-me-a-hanzi-clip-4">
        <path d="M 676 663 Q 689 702 702 714 Q 718 733 702 743 Q 687 752 668 765 Q 655 772 640 764 Q 624 752 601 745 Q 580 738 552 731 C 523 724 530 706 560 711 Q 567 712 575 714 L 627 727 Q 643 731 647 724 Q 650 721 637 663 C 630 634 666 635 676 663 Z" />
      </clipPath>
      <path clip-path="url(#make-me-a-hanzi-clip-4)" d="M 560 728 L 568 723 L 643 746 L 662 742 L 675 724 L 662 683 L 643 675" fill="none" id="make-me-a-hanzi-animation-4" stroke-dasharray="321 642" stroke-linecap="round" />
    
      <clipPath id="make-me-a-hanzi-clip-5">
        <path d="M 571 624 L 579 624 Q 640 633 685 637 Q 703 640 697 650 Q 690 660 676 663 L 637 663 Q 628 663 619 660 L 569 644 C 540 635 541 624 571 624 Z" />
      </clipPath>
      <path clip-path="url(#make-me-a-hanzi-clip-5)" d="M 575 629 L 582 636 L 627 647 L 688 646" fill="none" id="make-me-a-hanzi-animation-5" stroke-dasharray="245 490" stroke-linecap="round" />
    
      <clipPath id="make-me-a-hanzi-clip-6">
        <path d="M 342 558 Q 330 562 314 563 Q 304 566 300 561 Q 296 555 303 541 Q 327 501 344 431 Q 348 412 361 398 Q 377 379 382 393 Q 383 400 384 408 L 382 430 Q 376 448 365 530 C 362 552 362 552 342 558 Z" />
      </clipPath>
      <path clip-path="url(#make-me-a-hanzi-clip-6)" d="M 308 556 L 330 539 L 344 516 L 372 398" fill="none" id="make-me-a-hanzi-animation-6" stroke-dasharray="304 608" stroke-linecap="round" />
    
      <clipPath id="make-me-a-hanzi-clip-7">
        <path d="M 612 437 Q 625 418 637 410 Q 646 403 660 421 Q 669 431 693 495 Q 702 522 723 543 Q 735 553 725 566 Q 712 581 676 605 Q 663 614 591 598 Q 585 598 440 574 Q 388 564 342 558 C 312 554 336 522 365 530 Q 411 543 479 553 L 510 559 Q 627 580 642 566 Q 649 557 647 550 Q 634 486 628 475 Q 624 465 611 463 C 598 456 598 456 612 437 Z" />
      </clipPath>
      <path clip-path="url(#make-me-a-hanzi-clip-7)" d="M 349 556 L 370 547 L 455 566 L 469 564 L 505 574 L 521 571 L 605 588 L 664 582 L 684 554 L 658 476 L 638 446 L 619 457" fill="none" id="make-me-a-hanzi-animation-7" stroke-dasharray="625 1250" stroke-linecap="round" />
    
      <clipPath id="make-me-a-hanzi-clip-8">
        <path d="M 522 492 Q 555 498 585 501 Q 603 504 597 514 Q 588 526 569 530 Q 553 531 524 524 L 484 515 Q 444 506 410 497 Q 397 494 412 483 Q 421 476 438 479 Q 462 483 486 486 L 522 492 Z" />
      </clipPath>
      <path clip-path="url(#make-me-a-hanzi-clip-8)" d="M 419 491 L 551 514 L 588 510" fill="none" id="make-me-a-hanzi-animation-8" stroke-dasharray="299 598" stroke-linecap="round" />
    
      <clipPath id="make-me-a-hanzi-clip-9">
        <path d="M 519 456 Q 520 475 522 492 L 524 524 Q 524 528 525 529 Q 529 542 523 548 Q 516 555 510 559 C 486 577 475 583 479 553 Q 480 546 484 515 L 486 486 Q 486 471 488 450 C 491 420 517 426 519 456 Z" />
      </clipPath>
      <path clip-path="url(#make-me-a-hanzi-clip-9)" d="M 488 550 L 504 536 L 504 476 L 495 457" fill="none" id="make-me-a-hanzi-animation-9" stroke-dasharray="230 460" stroke-linecap="round" />
    
      <clipPath id="make-me-a-hanzi-clip-10">
        <path d="M 384 408 Q 394 407 409 409 Q 526 428 612 437 C 642 440 640 455 611 463 Q 607 464 601 466 Q 571 473 519 456 L 488 450 Q 431 441 382 430 C 353 424 354 409 384 408 Z" />
      </clipPath>
      <path clip-path="url(#make-me-a-hanzi-clip-10)" d="M 390 414 L 406 423 L 561 449 L 596 451 L 605 443" fill="none" id="make-me-a-hanzi-animation-10" stroke-dasharray="351 702" stroke-linecap="round" />
    
      <clipPath id="make-me-a-hanzi-clip-11">
        <path d="M 212 352 Q 193 351 206 335 Q 219 322 236 316 Q 255 312 270 315 Q 448 361 784 361 Q 803 361 823 359 Q 842 359 846 367 Q 852 377 836 391 Q 787 428 753 421 Q 593 393 212 352 Z" />
      </clipPath>
      <path clip-path="url(#make-me-a-hanzi-clip-11)" d="M 209 343 L 255 335 L 508 370 L 762 392 L 801 386 L 835 373" fill="none" id="make-me-a-hanzi-animation-11" stroke-dasharray="761 1522" stroke-linecap="round" />
    
      <clipPath id="make-me-a-hanzi-clip-12">
        <path d="M 341 303 L 336 303 Q 326 304 324 301 Q 320 297 327 283 Q 343 255 358 208 Q 361 193 371 185 Q 386 169 389 181 Q 390 185 391 192 L 389 215 Q 382 254 381 270 C 379 300 371 303 341 303 Z" />
      </clipPath>
      <path clip-path="url(#make-me-a-hanzi-clip-12)" d="M 331 296 L 361 260 L 380 185" fill="none" id="make-me-a-hanzi-animation-12" stroke-dasharray="252 504" stroke-linecap="round" />
    
      <clipPath id="make-me-a-hanzi-clip-13">
        <path d="M 632 246 Q 647 270 667 282 Q 682 295 671 311 Q 611 359 572 340 Q 431 295 341 303 C 311 305 351 266 381 270 Q 484 285 589 302 Q 590 301 594 298 Q 598 294 597 285 L 589 250 C 582 221 615 221 632 246 Z" />
      </clipPath>
      <path clip-path="url(#make-me-a-hanzi-clip-13)" d="M 347 300 L 387 287 L 401 288 L 592 324 L 619 311 L 630 296 L 620 273 L 597 254" fill="none" id="make-me-a-hanzi-animation-13" stroke-dasharray="482 964" stroke-linecap="round" />
    
      <clipPath id="make-me-a-hanzi-clip-14">
        <path d="M 493 203 Q 572 215 636 222 Q 655 223 648 234 Q 644 243 632 246 L 589 250 Q 579 249 571 247 L 389 215 C 359 210 361 189 391 192 L 448 197 L 493 203 Z" />
      </clipPath>
      <path clip-path="url(#make-me-a-hanzi-clip-14)" d="M 398 198 L 402 205 L 566 231 L 624 235 L 641 229" fill="none" id="make-me-a-hanzi-animation-14" stroke-dasharray="378 756" stroke-linecap="round" />
    
      <clipPath id="make-me-a-hanzi-clip-15">
        <path d="M 304 138 Q 295 142 262 147 Q 252 150 248 145 Q 244 139 251 125 Q 276 79 295 0 Q 299 -22 313 -38 Q 329 -57 334 -43 Q 335 -37 336 -30 L 335 -5 Q 317 82 314 105 C 310 135 309 136 304 138 Z" />
      </clipPath>
      <path clip-path="url(#make-me-a-hanzi-clip-15)" d="M 256 140 L 285 114 L 324 -38" fill="none" id="make-me-a-hanzi-animation-15" stroke-dasharray="324 648" stroke-linecap="round" />
    
      <clipPath id="make-me-a-hanzi-clip-16">
        <path d="M 652 0 Q 656 -10 667 -11 Q 683 -8 713 56 Q 728 102 760 128 Q 776 141 763 156 Q 747 171 703 195 Q 688 202 614 187 Q 608 187 525 175 L 461 165 Q 436 162 415 157 Q 351 145 304 138 C 274 133 284 100 314 105 Q 318 105 325 106 Q 377 122 466 135 L 523 143 Q 653 164 677 152 Q 684 148 679 126 Q 664 48 653 28 C 644 6 644 6 652 0 Z" />
      </clipPath>
      <path clip-path="url(#make-me-a-hanzi-clip-16)" d="M 311 134 L 327 124 L 425 145 L 533 158 L 540 164 L 557 162 L 628 175 L 693 171 L 719 142 L 666 0" fill="none" id="make-me-a-hanzi-animation-16" stroke-dasharray="710 1420" stroke-linecap="round" />
    
      <clipPath id="make-me-a-hanzi-clip-17">
        <path d="M 510 65 Q 556 72 599 76 Q 618 79 612 90 Q 605 102 583 107 Q 552 114 514 99 L 466 90 Q 420 83 379 74 Q 364 73 381 58 Q 390 52 467 60 L 510 65 Z" />
      </clipPath>
      <path clip-path="url(#make-me-a-hanzi-clip-17)" d="M 379 66 L 454 71 L 540 89 L 585 91 L 603 86" fill="none" id="make-me-a-hanzi-animation-17" stroke-dasharray="355 710" stroke-linecap="round" />
    
      <clipPath id="make-me-a-hanzi-clip-18">
        <path d="M 512 -14 Q 585 -4 652 0 C 682 2 681 18 653 28 Q 641 40 509 18 L 468 12 Q 398 5 335 -5 C 305 -10 306 -32 336 -30 Q 339 -30 470 -19 L 512 -14 Z" />
      </clipPath>
      <path clip-path="url(#make-me-a-hanzi-clip-18)" d="M 337 -24 L 357 -15 L 455 -8 L 647 21" fill="none" id="make-me-a-hanzi-animation-18" stroke-dasharray="442 884" stroke-linecap="round" />
    
      <clipPath id="make-me-a-hanzi-clip-19">
        <path d="M 896 -69 Q 881 -26 873 47 Q 872 60 865 66 Q 858 70 854 52 Q 836 -36 823 -53 Q 795 -86 660 -97 Q 587 -97 556 -86 Q 519 -68 512 -14 L 509 18 L 509 37 Q 509 52 510 65 L 514 99 Q 515 127 523 143 C 531 169 531 169 525 175 Q 519 187 493 203 C 469 220 436 225 448 197 Q 455 182 461 165 L 466 135 L 466 90 L 467 60 Q 467 35 468 12 L 470 -19 Q 476 -88 516 -115 Q 571 -154 761 -138 Q 848 -131 880 -110 Q 907 -97 896 -69 Z" />
      </clipPath>
      <path clip-path="url(#make-me-a-hanzi-clip-19)" d="M 456 194 L 487 175 L 493 161 L 488 19 L 499 -56 L 517 -86 L 555 -109 L 600 -118 L 684 -120 L 769 -110 L 843 -87 L 857 -69 L 863 59" fill="none" id="make-me-a-hanzi-animation-19" stroke-dasharray="921 1842" stroke-linecap="round" />
    
  </g>
</svg>