<svg xmlns="http://www.w3.org/2000/svg" version="1.1" viewBox="0 0 1024 1024">
  <g stroke="lightgray" stroke-dasharray="1,1" stroke-width="1" transform="scale(4, 4)">
    <line x1="0" y1="0" x2="256" y2="256" />
    <line x1="256" y1="0" x2="0" y2="256" />
    <line x1="128" y1="0" x2="128" y2="256" />
    <line x1="0" y1="128" x2="256" y2="128" />
  </g>
  <g transform="scale(1.0, -1.0) translate(0.0, -801.50)">
    <style type="text/css">
      
        @keyframes keyframes0 {
          from {
            stroke: blue;
            stroke-dashoffset: 524;
            stroke-width: 128;
          }
          63% {
            animation-timing-function: step-end;
            stroke: blue;
            stroke-dashoffset: 0;
            stroke-width: 128;
          }
          to {
            stroke: black;
            stroke-width: 1024;
          }
        }
        #make-me-a-hanzi-animation-0 {
          animation: keyframes0 0.6764322916666666s both;
          animation-delay: 0s;
          animation-timing-function: linear;
        }
      
        @keyframes keyframes1 {
          from {
            stroke: blue;
            stroke-dashoffset: 383;
            stroke-width: 128;
          }
          55% {
            animation-timing-function: step-end;
            stroke: blue;
            stroke-dashoffset: 0;
            stroke-width: 128;
          }
          to {
            stroke: black;
            stroke-width: 1024;
          }
        }
        #make-me-a-hanzi-animation-1 {
          animation: keyframes1 0.5616861979166666s both;
          animation-delay: 0.6764322916666666s;
          animation-timing-function: linear;
        }
      
        @keyframes keyframes2 {
          from {
            stroke: blue;
            stroke-dashoffset: 444;
            stroke-width: 128;
          }
          59% {
            animation-timing-function: step-end;
            stroke: blue;
            stroke-dashoffset: 0;
            stroke-width: 128;
          }
          to {
            stroke: black;
            stroke-width: 1024;
          }
        }
        #make-me-a-hanzi-animation-2 {
          animation: keyframes2 0.611328125s both;
          animation-delay: 1.2381184895833333s;
          animation-timing-function: linear;
        }
      
        @keyframes keyframes3 {
          from {
            stroke: blue;
            stroke-dashoffset: 743;
            stroke-width: 128;
          }
          71% {
            animation-timing-function: step-end;
            stroke: blue;
            stroke-dashoffset: 0;
            stroke-width: 128;
          }
          to {
            stroke: black;
            stroke-width: 1024;
          }
        }
        #make-me-a-hanzi-animation-3 {
          animation: keyframes3 0.8546549479166666s both;
          animation-delay: 1.8494466145833333s;
          animation-timing-function: linear;
        }
      
        @keyframes keyframes4 {
          from {
            stroke: blue;
            stroke-dashoffset: 413;
            stroke-width: 128;
          }
          57% {
            animation-timing-function: step-end;
            stroke: blue;
            stroke-dashoffset: 0;
            stroke-width: 128;
          }
          to {
            stroke: black;
            stroke-width: 1024;
          }
        }
        #make-me-a-hanzi-animation-4 {
          animation: keyframes4 0.5861002604166666s both;
          animation-delay: 2.7041015625s;
          animation-timing-function: linear;
        }
      
        @keyframes keyframes5 {
          from {
            stroke: blue;
            stroke-dashoffset: 299;
            stroke-width: 128;
          }
          49% {
            animation-timing-function: step-end;
            stroke: blue;
            stroke-dashoffset: 0;
            stroke-width: 128;
          }
          to {
            stroke: black;
            stroke-width: 1024;
          }
        }
        #make-me-a-hanzi-animation-5 {
          animation: keyframes5 0.4933268229166667s both;
          animation-delay: 3.2902018229166665s;
          animation-timing-function: linear;
        }
      
        @keyframes keyframes6 {
          from {
            stroke: blue;
            stroke-dashoffset: 412;
            stroke-width: 128;
          }
          57% {
            animation-timing-function: step-end;
            stroke: blue;
            stroke-dashoffset: 0;
            stroke-width: 128;
          }
          to {
            stroke: black;
            stroke-width: 1024;
          }
        }
        #make-me-a-hanzi-animation-6 {
          animation: keyframes6 0.5852864583333334s both;
          animation-delay: 3.783528645833333s;
          animation-timing-function: linear;
        }
      
        @keyframes keyframes7 {
          from {
            stroke: blue;
            stroke-dashoffset: 319;
            stroke-width: 128;
          }
          51% {
            animation-timing-function: step-end;
            stroke: blue;
            stroke-dashoffset: 0;
            stroke-width: 128;
          }
          to {
            stroke: black;
            stroke-width: 1024;
          }
        }
        #make-me-a-hanzi-animation-7 {
          animation: keyframes7 0.5096028645833334s both;
          animation-delay: 4.368815104166666s;
          animation-timing-function: linear;
        }
      
        @keyframes keyframes8 {
          from {
            stroke: blue;
            stroke-dashoffset: 536;
            stroke-width: 128;
          }
          64% {
            animation-timing-function: step-end;
            stroke: blue;
            stroke-dashoffset: 0;
            stroke-width: 128;
          }
          to {
            stroke: black;
            stroke-width: 1024;
          }
        }
        #make-me-a-hanzi-animation-8 {
          animation: keyframes8 0.6861979166666666s both;
          animation-delay: 4.878417968749999s;
          animation-timing-function: linear;
        }
      
        @keyframes keyframes9 {
          from {
            stroke: blue;
            stroke-dashoffset: 400;
            stroke-width: 128;
          }
          57% {
            animation-timing-function: step-end;
            stroke: blue;
            stroke-dashoffset: 0;
            stroke-width: 128;
          }
          to {
            stroke: black;
            stroke-width: 1024;
          }
        }
        #make-me-a-hanzi-animation-9 {
          animation: keyframes9 0.5755208333333334s both;
          animation-delay: 5.564615885416666s;
          animation-timing-function: linear;
        }
      
        @keyframes keyframes10 {
          from {
            stroke: blue;
            stroke-dashoffset: 309;
            stroke-width: 128;
          }
          50% {
            animation-timing-function: step-end;
            stroke: blue;
            stroke-dashoffset: 0;
            stroke-width: 128;
          }
          to {
            stroke: black;
            stroke-width: 1024;
          }
        }
        #make-me-a-hanzi-animation-10 {
          animation: keyframes10 0.50146484375s both;
          animation-delay: 6.140136718749999s;
          animation-timing-function: linear;
        }
      
        @keyframes keyframes11 {
          from {
            stroke: blue;
            stroke-dashoffset: 398;
            stroke-width: 128;
          }
          56% {
            animation-timing-function: step-end;
            stroke: blue;
            stroke-dashoffset: 0;
            stroke-width: 128;
          }
          to {
            stroke: black;
            stroke-width: 1024;
          }
        }
        #make-me-a-hanzi-animation-11 {
          animation: keyframes11 0.5738932291666666s both;
          animation-delay: 6.641601562499999s;
          animation-timing-function: linear;
        }
      
        @keyframes keyframes12 {
          from {
            stroke: blue;
            stroke-dashoffset: 319;
            stroke-width: 128;
          }
          51% {
            animation-timing-function: step-end;
            stroke: blue;
            stroke-dashoffset: 0;
            stroke-width: 128;
          }
          to {
            stroke: black;
            stroke-width: 1024;
          }
        }
        #make-me-a-hanzi-animation-12 {
          animation: keyframes12 0.5096028645833334s both;
          animation-delay: 7.215494791666666s;
          animation-timing-function: linear;
        }
      
        @keyframes keyframes13 {
          from {
            stroke: blue;
            stroke-dashoffset: 890;
            stroke-width: 128;
          }
          74% {
            animation-timing-function: step-end;
            stroke: blue;
            stroke-dashoffset: 0;
            stroke-width: 128;
          }
          to {
            stroke: black;
            stroke-width: 1024;
          }
        }
        #make-me-a-hanzi-animation-13 {
          animation: keyframes13 0.9742838541666666s both;
          animation-delay: 7.725097656249999s;
          animation-timing-function: linear;
        }
      
        @keyframes keyframes14 {
          from {
            stroke: blue;
            stroke-dashoffset: 618;
            stroke-width: 128;
          }
          67% {
            animation-timing-function: step-end;
            stroke: blue;
            stroke-dashoffset: 0;
            stroke-width: 128;
          }
          to {
            stroke: black;
            stroke-width: 1024;
          }
        }
        #make-me-a-hanzi-animation-14 {
          animation: keyframes14 0.7529296875s both;
          animation-delay: 8.699381510416666s;
          animation-timing-function: linear;
        }
      
        @keyframes keyframes15 {
          from {
            stroke: blue;
            stroke-dashoffset: 688;
            stroke-width: 128;
          }
          69% {
            animation-timing-function: step-end;
            stroke: blue;
            stroke-dashoffset: 0;
            stroke-width: 128;
          }
          to {
            stroke: black;
            stroke-width: 1024;
          }
        }
        #make-me-a-hanzi-animation-15 {
          animation: keyframes15 0.8098958333333334s both;
          animation-delay: 9.452311197916666s;
          animation-timing-function: linear;
        }
      
        @keyframes keyframes16 {
          from {
            stroke: blue;
            stroke-dashoffset: 629;
            stroke-width: 128;
          }
          67% {
            animation-timing-function: step-end;
            stroke: blue;
            stroke-dashoffset: 0;
            stroke-width: 128;
          }
          to {
            stroke: black;
            stroke-width: 1024;
          }
        }
        #make-me-a-hanzi-animation-16 {
          animation: keyframes16 0.7618815104166666s both;
          animation-delay: 10.26220703125s;
          animation-timing-function: linear;
        }
      
        @keyframes keyframes17 {
          from {
            stroke: blue;
            stroke-dashoffset: 425;
            stroke-width: 128;
          }
          58% {
            animation-timing-function: step-end;
            stroke: blue;
            stroke-dashoffset: 0;
            stroke-width: 128;
          }
          to {
            stroke: black;
            stroke-width: 1024;
          }
        }
        #make-me-a-hanzi-animation-17 {
          animation: keyframes17 0.5958658854166666s both;
          animation-delay: 11.024088541666666s;
          animation-timing-function: linear;
        }
      
        @keyframes keyframes18 {
          from {
            stroke: blue;
            stroke-dashoffset: 701;
            stroke-width: 128;
          }
          70% {
            animation-timing-function: step-end;
            stroke: blue;
            stroke-dashoffset: 0;
            stroke-width: 128;
          }
          to {
            stroke: black;
            stroke-width: 1024;
          }
        }
        #make-me-a-hanzi-animation-18 {
          animation: keyframes18 0.8204752604166666s both;
          animation-delay: 11.619954427083332s;
          animation-timing-function: linear;
        }
      
        @keyframes keyframes19 {
          from {
            stroke: blue;
            stroke-dashoffset: 463;
            stroke-width: 128;
          }
          60% {
            animation-timing-function: step-end;
            stroke: blue;
            stroke-dashoffset: 0;
            stroke-width: 128;
          }
          to {
            stroke: black;
            stroke-width: 1024;
          }
        }
        #make-me-a-hanzi-animation-19 {
          animation: keyframes19 0.6267903645833334s both;
          animation-delay: 12.440429687499998s;
          animation-timing-function: linear;
        }
      
    </style>
    
      <path d="M 360 434 L 364 531 L 365 554 L 366 586 Q 366 588 367 606 Q 368 624 370 632 Q 371 639 376 650 Q 378 658 378 662 Q 377 666 366 672 Q 356 678 338 684 Q 320 689 308 690 Q 296 690 293 686 Q 292 685 292 683 Q 292 679 295 673 L 302 659 Q 305 650 308 634 Q 310 618 310 610 Q 311 601 312 576 L 316 427 C 317 397 359 404 360 434 Z" fill="lightgray" />
    
      <path d="M 364 531 L 382 530 Q 384 529 388 529 Q 397 529 414 532 Q 441 536 448 536 Q 454 538 466 540 L 492 546 Q 500 548 501 553 L 501 555 Q 501 559 492 566 Q 482 574 472 578 Q 465 581 460 581 L 458 581 Q 456 580 448 578 Q 441 574 434 573 Q 426 571 406 565 Q 386 559 365 554 C 336 547 334 533 364 531 Z" fill="lightgray" />
    
      <path d="M 246 417 L 242 507 Q 242 520 244 534 Q 245 548 248 556 Q 250 563 250 567 L 250 569 Q 249 574 242 578 Q 236 582 215 587 Q 194 592 190 592 L 185 592 Q 179 592 177 590 Q 176 588 176 585 Q 176 582 177 578 L 185 562 Q 188 555 192 538 Q 194 521 196 512 L 204 411 C 206 381 247 387 246 417 Z" fill="lightgray" />
    
      <path d="M 204 411 L 156 406 L 99 398 L 60 394 Q 50 393 48 389 Q 47 388 47 386 Q 47 383 50 379 Q 54 372 66 367 L 86 356 Q 94 353 102 353 L 106 353 Q 113 353 130 357 Q 146 362 164 365 L 196 370 Q 201 372 213 374 L 229 378 L 352 398 L 372 400 L 438 407 L 498 411 L 532 414 Q 540 414 542 420 L 542 422 Q 542 427 538 430 Q 533 434 524 439 L 511 447 Q 506 449 498 450 Q 491 450 476 448 L 446 445 L 406 439 L 360 434 L 316 427 L 246 417 L 204 411 Z" fill="lightgray" />
    
      <path d="M 213 374 L 212 354 Q 212 344 204 325 Q 198 307 191 296 Q 184 286 176 272 L 162 253 Q 158 246 158 242 L 158 240 Q 159 239 160 239 Q 164 239 170 243 L 192 260 Q 204 268 212 277 Q 219 285 229 299 L 242 318 L 250 328 L 260 338 Q 266 343 267 346 Q 267 349 260 356 Q 254 364 247 368 Q 241 372 229 378 C 214 386 214 386 213 374 Z" fill="lightgray" />
    
      <path d="M 229 299 L 242 284 L 257 265 Q 263 261 267 261 L 269 261 Q 275 262 280 270 Q 284 278 284 286 Q 283 295 278 300 Q 272 306 264 310 Q 255 314 242 318 C 213 327 209 322 229 299 Z" fill="lightgray" />
    
      <path d="M 352 398 L 352 378 Q 351 369 345 351 Q 339 333 333 320 Q 327 306 320 294 L 307 270 Q 305 266 305 263 Q 305 261 306 260 L 307 260 Q 310 260 316 264 L 334 279 Q 342 286 349 294 L 368 317 L 377 334 L 388 347 L 396 356 Q 403 363 404 366 Q 405 367 405 368 Q 405 372 401 376 Q 396 383 389 388 Q 382 392 372 400 C 352 416 352 416 352 398 Z" fill="lightgray" />
    
      <path d="M 368 317 L 380 303 Q 399 283 404 279 Q 413 270 418 270 L 419 270 Q 424 271 428 277 Q 432 283 434 292 L 434 297 Q 434 302 433 307 Q 430 314 420 319 Q 410 325 400 328 Q 390 330 377 334 C 348 343 348 340 368 317 Z" fill="lightgray" />
    
      <path d="M 166 215 Q 156 214 154 211 L 154 209 Q 154 207 158 202 Q 163 196 177 194 Q 191 192 198 192 Q 210 192 236 196 L 292 202 L 354 211 L 406 218 L 434 222 Q 446 224 446 228 Q 446 232 441 236 Q 436 240 430 242 Q 424 244 410 246 Q 396 249 392 249 Q 386 248 369 244 Q 352 239 296 232 L 238 224 L 189 218 L 166 215 Z" fill="lightgray" />
    
      <path d="M 238 118 L 246 126 L 256 137 Q 262 142 262 144 Q 263 145 263 146 Q 263 150 259 155 Q 254 161 244 168 Q 234 174 228 178 Q 220 181 216 181 Q 214 181 213 180 Q 210 177 210 168 Q 210 158 208 148 Q 207 139 203 128 Q 200 118 193 106 Q 187 96 180 86 L 166 65 Q 163 61 163 57 Q 163 56 164 54 L 166 54 Q 169 54 176 58 L 197 73 Q 206 79 214 88 Q 222 96 229 105 L 238 118 Z" fill="lightgray" />
    
      <path d="M 229 105 L 238 96 Q 247 87 255 76 L 266 62 Q 269 60 274 60 L 276 60 Q 279 60 282 63 Q 286 68 288 76 Q 288 86 286 92 Q 284 98 278 103 Q 272 108 261 111 Q 250 114 238 118 C 210 127 208 126 229 105 Z" fill="lightgray" />
    
      <path d="M 378 132 L 386 140 Q 390 145 396 150 Q 402 154 404 156 L 404 157 Q 404 161 400 167 Q 396 174 383 182 Q 370 190 366 192 Q 359 194 355 194 Q 353 194 352 193 Q 348 190 348 182 Q 348 173 346 160 Q 345 148 342 140 Q 340 132 332 117 Q 326 102 322 96 L 308 74 Q 305 70 305 67 Q 305 65 306 64 Q 307 63 308 63 Q 311 63 318 68 L 338 84 Q 346 91 353 98 Q 360 106 369 118 L 378 132 Z" fill="lightgray" />
    
      <path d="M 369 118 L 380 107 Q 381 105 392 92 Q 402 80 409 74 Q 416 69 420 69 Q 424 70 428 77 Q 433 84 434 92 Q 434 102 430 108 Q 427 114 417 119 Q 407 124 398 126 Q 390 129 378 132 C 349 139 348 139 369 118 Z" fill="lightgray" />
    
      <path d="M 456 52 L 386 47 Q 356 44 330 42 Q 303 40 238 33 Q 173 26 165 25 Q 156 24 148 24 Q 138 24 136 27 Q 134 30 134 41 L 134 69 L 135 210 Q 135 218 136 228 Q 136 240 139 246 Q 141 252 141 255 L 141 257 Q 141 261 129 267 Q 117 273 102 279 Q 87 284 78 284 Q 70 284 67 281 Q 66 280 66 277 Q 66 274 69 266 L 79 243 Q 83 231 87 205 L 92 161 Q 93 146 93 126 L 93 106 Q 93 73 92 55 Q 90 36 88 31 Q 86 26 80 12 Q 76 4 76 0 Q 76 -5 82 -15 L 94 -38 Q 101 -51 108 -52 L 109 -52 Q 115 -52 128 -44 Q 143 -36 150 -33 Q 156 -30 188 -21 Q 220 -12 246 -7 Q 270 -2 326 6 Q 381 14 400 16 Q 419 18 454 23 C 484 27 486 54 456 52 Z" fill="lightgray" />
    
      <path d="M 528 298 L 528 304 Q 528 308 520 315 Q 511 322 496 330 Q 481 338 470 339 L 466 339 Q 460 339 458 336 Q 457 335 457 332 Q 457 328 460 319 Q 466 306 467 299 Q 468 293 469 275 L 469 237 Q 468 218 466 192 L 456 52 L 454 23 L 452 10 Q 451 7 451 3 Q 451 -2 453 -8 Q 456 -18 460 -24 Q 464 -29 470 -29 L 471 -29 Q 477 -29 482 -21 Q 489 -12 492 12 L 498 56 L 510 192 L 514 237 Q 514 250 516 257 Q 518 265 520 278 L 528 298 Z" fill="lightgray" />
    
      <path d="M 520 278 L 530 282 L 548 296 Q 566 310 586 330 Q 606 350 623 374 Q 640 398 664 438 Q 686 478 694 495 Q 702 512 710 533 L 722 564 L 730 582 Q 735 596 741 602 Q 748 610 748 612 L 748 614 Q 748 620 740 628 Q 730 639 720 646 Q 709 654 698 660 Q 690 664 685 664 Q 683 664 682 663 Q 678 660 678 656 L 678 631 Q 678 623 677 612 Q 675 594 670 575 Q 666 556 652 521 Q 639 486 626 457 Q 612 428 594 396 Q 575 362 566 350 Q 558 338 535 308 L 528 298 C 511 274 511 274 520 278 Z" fill="lightgray" />
    
      <path d="M 710 533 L 728 508 Q 735 498 757 463 L 798 394 Q 818 360 825 349 Q 832 338 843 323 Q 854 308 861 301 Q 868 294 874 292 Q 878 291 884 291 Q 889 291 896 292 Q 911 294 930 298 Q 950 302 959 305 L 976 310 Q 984 313 984 317 Q 984 321 977 325 L 958 336 Q 952 338 935 347 Q 918 356 902 366 Q 886 376 864 396 Q 840 416 825 434 Q 809 452 782 488 Q 756 524 746 536 Q 736 549 722 564 C 702 586 692 557 710 533 Z" fill="lightgray" />
    
      <path d="M 612 296 Q 604 294 603 290 L 603 289 Q 603 285 611 279 Q 620 273 629 270 Q 635 267 643 267 Q 647 267 652 268 Q 658 268 678 272 Q 698 276 700 278 L 730 286 L 758 292 L 776 298 Q 783 301 784 306 Q 784 311 776 315 Q 768 319 751 322 Q 734 326 730 326 Q 726 326 718 323 Q 710 320 692 315 L 658 305 Q 644 301 635 300 L 612 296 Z" fill="lightgray" />
    
      <path d="M 730 -3 L 756 27 Q 766 40 786 62 L 820 97 Q 834 110 848 120 L 868 136 Q 874 140 876 144 L 876 146 Q 876 152 868 161 Q 858 172 840 184 Q 821 196 811 201 Q 800 206 794 206 Q 789 206 778 201 Q 766 196 736 188 L 686 174 Q 660 167 636 162 Q 612 157 594 155 L 574 152 Q 565 152 563 149 L 563 147 Q 563 145 565 140 Q 569 135 580 130 L 596 120 Q 604 116 611 116 L 614 116 Q 618 116 626 120 Q 635 124 652 130 Q 668 136 694 144 Q 720 152 734 157 Q 748 162 760 164 L 765 164 Q 772 164 774 162 Q 776 160 776 157 Q 776 154 774 150 Q 772 142 764 126 L 745 81 Q 738 66 728 49 L 704 10 C 688 -16 710 -26 730 -3 Z" fill="lightgray" />
    
      <path d="M 704 10 L 678 20 L 649 30 L 626 36 Q 620 38 617 38 Q 613 38 612 36 L 612 35 Q 612 33 618 27 L 630 14 Q 634 11 654 -10 L 686 -44 L 716 -76 Q 732 -93 746 -103 Q 758 -111 764 -111 L 766 -111 Q 772 -109 777 -102 Q 782 -94 782 -80 Q 782 -66 779 -54 Q 776 -42 770 -34 Q 763 -26 754 -19 L 730 -3 L 704 10 Z" fill="lightgray" />
    
    
      <clipPath id="make-me-a-hanzi-clip-0">
        <path d="M 360 434 L 364 531 L 365 554 L 366 586 Q 366 588 367 606 Q 368 624 370 632 Q 371 639 376 650 Q 378 658 378 662 Q 377 666 366 672 Q 356 678 338 684 Q 320 689 308 690 Q 296 690 293 686 Q 292 685 292 683 Q 292 679 295 673 L 302 659 Q 305 650 308 634 Q 310 618 310 610 Q 311 601 312 576 L 316 427 C 317 397 359 404 360 434 Z" />
      </clipPath>
      <path clip-path="url(#make-me-a-hanzi-clip-0)" d="M 302 681 L 325 665 L 339 644 L 338 454 L 322 435" fill="none" id="make-me-a-hanzi-animation-0" stroke-dasharray="396 792" stroke-linecap="round" />
    
      <clipPath id="make-me-a-hanzi-clip-1">
        <path d="M 364 531 L 382 530 Q 384 529 388 529 Q 397 529 414 532 Q 441 536 448 536 Q 454 538 466 540 L 492 546 Q 500 548 501 553 L 501 555 Q 501 559 492 566 Q 482 574 472 578 Q 465 581 460 581 L 458 581 Q 456 580 448 578 Q 441 574 434 573 Q 426 571 406 565 Q 386 559 365 554 C 336 547 334 533 364 531 Z" />
      </clipPath>
      <path clip-path="url(#make-me-a-hanzi-clip-1)" d="M 369 537 L 461 560 L 493 554" fill="none" id="make-me-a-hanzi-animation-1" stroke-dasharray="255 510" stroke-linecap="round" />
    
      <clipPath id="make-me-a-hanzi-clip-2">
        <path d="M 246 417 L 242 507 Q 242 520 244 534 Q 245 548 248 556 Q 250 563 250 567 L 250 569 Q 249 574 242 578 Q 236 582 215 587 Q 194 592 190 592 L 185 592 Q 179 592 177 590 Q 176 588 176 585 Q 176 582 177 578 L 185 562 Q 188 555 192 538 Q 194 521 196 512 L 204 411 C 206 381 247 387 246 417 Z" />
      </clipPath>
      <path clip-path="url(#make-me-a-hanzi-clip-2)" d="M 182 586 L 218 556 L 224 439 L 210 419" fill="none" id="make-me-a-hanzi-animation-2" stroke-dasharray="316 632" stroke-linecap="round" />
    
      <clipPath id="make-me-a-hanzi-clip-3">
        <path d="M 204 411 L 156 406 L 99 398 L 60 394 Q 50 393 48 389 Q 47 388 47 386 Q 47 383 50 379 Q 54 372 66 367 L 86 356 Q 94 353 102 353 L 106 353 Q 113 353 130 357 Q 146 362 164 365 L 196 370 Q 201 372 213 374 L 229 378 L 352 398 L 372 400 L 438 407 L 498 411 L 532 414 Q 540 414 542 420 L 542 422 Q 542 427 538 430 Q 533 434 524 439 L 511 447 Q 506 449 498 450 Q 491 450 476 448 L 446 445 L 406 439 L 360 434 L 316 427 L 246 417 L 204 411 Z" />
      </clipPath>
      <path clip-path="url(#make-me-a-hanzi-clip-3)" d="M 55 385 L 100 375 L 455 428 L 500 431 L 535 421" fill="none" id="make-me-a-hanzi-animation-3" stroke-dasharray="615 1230" stroke-linecap="round" />
    
      <clipPath id="make-me-a-hanzi-clip-4">
        <path d="M 213 374 L 212 354 Q 212 344 204 325 Q 198 307 191 296 Q 184 286 176 272 L 162 253 Q 158 246 158 242 L 158 240 Q 159 239 160 239 Q 164 239 170 243 L 192 260 Q 204 268 212 277 Q 219 285 229 299 L 242 318 L 250 328 L 260 338 Q 266 343 267 346 Q 267 349 260 356 Q 254 364 247 368 Q 241 372 229 378 C 214 386 214 386 213 374 Z" />
      </clipPath>
      <path clip-path="url(#make-me-a-hanzi-clip-4)" d="M 219 369 L 233 353 L 230 336 L 213 301 L 160 241" fill="none" id="make-me-a-hanzi-animation-4" stroke-dasharray="285 570" stroke-linecap="round" />
    
      <clipPath id="make-me-a-hanzi-clip-5">
        <path d="M 229 299 L 242 284 L 257 265 Q 263 261 267 261 L 269 261 Q 275 262 280 270 Q 284 278 284 286 Q 283 295 278 300 Q 272 306 264 310 Q 255 314 242 318 C 213 327 209 322 229 299 Z" />
      </clipPath>
      <path clip-path="url(#make-me-a-hanzi-clip-5)" d="M 238 300 L 259 292 L 268 273" fill="none" id="make-me-a-hanzi-animation-5" stroke-dasharray="171 342" stroke-linecap="round" />
    
      <clipPath id="make-me-a-hanzi-clip-6">
        <path d="M 352 398 L 352 378 Q 351 369 345 351 Q 339 333 333 320 Q 327 306 320 294 L 307 270 Q 305 266 305 263 Q 305 261 306 260 L 307 260 Q 310 260 316 264 L 334 279 Q 342 286 349 294 L 368 317 L 377 334 L 388 347 L 396 356 Q 403 363 404 366 Q 405 367 405 368 Q 405 372 401 376 Q 396 383 389 388 Q 382 392 372 400 C 352 416 352 416 352 398 Z" />
      </clipPath>
      <path clip-path="url(#make-me-a-hanzi-clip-6)" d="M 358 393 L 374 367 L 337 298 L 307 262" fill="none" id="make-me-a-hanzi-animation-6" stroke-dasharray="284 568" stroke-linecap="round" />
    
      <clipPath id="make-me-a-hanzi-clip-7">
        <path d="M 368 317 L 380 303 Q 399 283 404 279 Q 413 270 418 270 L 419 270 Q 424 271 428 277 Q 432 283 434 292 L 434 297 Q 434 302 433 307 Q 430 314 420 319 Q 410 325 400 328 Q 390 330 377 334 C 348 343 348 340 368 317 Z" />
      </clipPath>
      <path clip-path="url(#make-me-a-hanzi-clip-7)" d="M 376 318 L 384 319 L 413 299 L 419 280" fill="none" id="make-me-a-hanzi-animation-7" stroke-dasharray="191 382" stroke-linecap="round" />
    
      <clipPath id="make-me-a-hanzi-clip-8">
        <path d="M 166 215 Q 156 214 154 211 L 154 209 Q 154 207 158 202 Q 163 196 177 194 Q 191 192 198 192 Q 210 192 236 196 L 292 202 L 354 211 L 406 218 L 434 222 Q 446 224 446 228 Q 446 232 441 236 Q 436 240 430 242 Q 424 244 410 246 Q 396 249 392 249 Q 386 248 369 244 Q 352 239 296 232 L 238 224 L 189 218 L 166 215 Z" />
      </clipPath>
      <path clip-path="url(#make-me-a-hanzi-clip-8)" d="M 161 210 L 202 205 L 391 233 L 438 229" fill="none" id="make-me-a-hanzi-animation-8" stroke-dasharray="408 816" stroke-linecap="round" />
    
      <clipPath id="make-me-a-hanzi-clip-9">
        <path d="M 238 118 L 246 126 L 256 137 Q 262 142 262 144 Q 263 145 263 146 Q 263 150 259 155 Q 254 161 244 168 Q 234 174 228 178 Q 220 181 216 181 Q 214 181 213 180 Q 210 177 210 168 Q 210 158 208 148 Q 207 139 203 128 Q 200 118 193 106 Q 187 96 180 86 L 166 65 Q 163 61 163 57 Q 163 56 164 54 L 166 54 Q 169 54 176 58 L 197 73 Q 206 79 214 88 Q 222 96 229 105 L 238 118 Z" />
      </clipPath>
      <path clip-path="url(#make-me-a-hanzi-clip-9)" d="M 217 173 L 232 146 L 214 110 L 165 56" fill="none" id="make-me-a-hanzi-animation-9" stroke-dasharray="272 544" stroke-linecap="round" />
    
      <clipPath id="make-me-a-hanzi-clip-10">
        <path d="M 229 105 L 238 96 Q 247 87 255 76 L 266 62 Q 269 60 274 60 L 276 60 Q 279 60 282 63 Q 286 68 288 76 Q 288 86 286 92 Q 284 98 278 103 Q 272 108 261 111 Q 250 114 238 118 C 210 127 208 126 229 105 Z" />
      </clipPath>
      <path clip-path="url(#make-me-a-hanzi-clip-10)" d="M 240 107 L 265 91 L 275 70" fill="none" id="make-me-a-hanzi-animation-10" stroke-dasharray="181 362" stroke-linecap="round" />
    
      <clipPath id="make-me-a-hanzi-clip-11">
        <path d="M 378 132 L 386 140 Q 390 145 396 150 Q 402 154 404 156 L 404 157 Q 404 161 400 167 Q 396 174 383 182 Q 370 190 366 192 Q 359 194 355 194 Q 353 194 352 193 Q 348 190 348 182 Q 348 173 346 160 Q 345 148 342 140 Q 340 132 332 117 Q 326 102 322 96 L 308 74 Q 305 70 305 67 Q 305 65 306 64 Q 307 63 308 63 Q 311 63 318 68 L 338 84 Q 346 91 353 98 Q 360 106 369 118 L 378 132 Z" />
      </clipPath>
      <path clip-path="url(#make-me-a-hanzi-clip-11)" d="M 356 185 L 371 160 L 346 111 L 309 67" fill="none" id="make-me-a-hanzi-animation-11" stroke-dasharray="270 540" stroke-linecap="round" />
    
      <clipPath id="make-me-a-hanzi-clip-12">
        <path d="M 369 118 L 380 107 Q 381 105 392 92 Q 402 80 409 74 Q 416 69 420 69 Q 424 70 428 77 Q 433 84 434 92 Q 434 102 430 108 Q 427 114 417 119 Q 407 124 398 126 Q 390 129 378 132 C 349 139 348 139 369 118 Z" />
      </clipPath>
      <path clip-path="url(#make-me-a-hanzi-clip-12)" d="M 382 125 L 383 118 L 414 97 L 418 79" fill="none" id="make-me-a-hanzi-animation-12" stroke-dasharray="191 382" stroke-linecap="round" />
    
      <clipPath id="make-me-a-hanzi-clip-13">
        <path d="M 456 52 L 386 47 Q 356 44 330 42 Q 303 40 238 33 Q 173 26 165 25 Q 156 24 148 24 Q 138 24 136 27 Q 134 30 134 41 L 134 69 L 135 210 Q 135 218 136 228 Q 136 240 139 246 Q 141 252 141 255 L 141 257 Q 141 261 129 267 Q 117 273 102 279 Q 87 284 78 284 Q 70 284 67 281 Q 66 280 66 277 Q 66 274 69 266 L 79 243 Q 83 231 87 205 L 92 161 Q 93 146 93 126 L 93 106 Q 93 73 92 55 Q 90 36 88 31 Q 86 26 80 12 Q 76 4 76 0 Q 76 -5 82 -15 L 94 -38 Q 101 -51 108 -52 L 109 -52 Q 115 -52 128 -44 Q 143 -36 150 -33 Q 156 -30 188 -21 Q 220 -12 246 -7 Q 270 -2 326 6 Q 381 14 400 16 Q 419 18 454 23 C 484 27 486 54 456 52 Z" />
      </clipPath>
      <path clip-path="url(#make-me-a-hanzi-clip-13)" d="M 74 277 L 100 255 L 109 235 L 114 157 L 111 17 L 120 -7 L 228 13 L 428 34 L 449 45" fill="none" id="make-me-a-hanzi-animation-13" stroke-dasharray="762 1524" stroke-linecap="round" />
    
      <clipPath id="make-me-a-hanzi-clip-14">
        <path d="M 528 298 L 528 304 Q 528 308 520 315 Q 511 322 496 330 Q 481 338 470 339 L 466 339 Q 460 339 458 336 Q 457 335 457 332 Q 457 328 460 319 Q 466 306 467 299 Q 468 293 469 275 L 469 237 Q 468 218 466 192 L 456 52 L 454 23 L 452 10 Q 451 7 451 3 Q 451 -2 453 -8 Q 456 -18 460 -24 Q 464 -29 470 -29 L 471 -29 Q 477 -29 482 -21 Q 489 -12 492 12 L 498 56 L 510 192 L 514 237 Q 514 250 516 257 Q 518 265 520 278 L 528 298 Z" />
      </clipPath>
      <path clip-path="url(#make-me-a-hanzi-clip-14)" d="M 464 332 L 482 317 L 496 293 L 471 -17" fill="none" id="make-me-a-hanzi-animation-14" stroke-dasharray="490 980" stroke-linecap="round" />
    
      <clipPath id="make-me-a-hanzi-clip-15">
        <path d="M 520 278 L 530 282 L 548 296 Q 566 310 586 330 Q 606 350 623 374 Q 640 398 664 438 Q 686 478 694 495 Q 702 512 710 533 L 722 564 L 730 582 Q 735 596 741 602 Q 748 610 748 612 L 748 614 Q 748 620 740 628 Q 730 639 720 646 Q 709 654 698 660 Q 690 664 685 664 Q 683 664 682 663 Q 678 660 678 656 L 678 631 Q 678 623 677 612 Q 675 594 670 575 Q 666 556 652 521 Q 639 486 626 457 Q 612 428 594 396 Q 575 362 566 350 Q 558 338 535 308 L 528 298 C 511 274 511 274 520 278 Z" />
      </clipPath>
      <path clip-path="url(#make-me-a-hanzi-clip-15)" d="M 686 656 L 709 613 L 675 511 L 612 389 L 564 324 L 524 282" fill="none" id="make-me-a-hanzi-animation-15" stroke-dasharray="560 1120" stroke-linecap="round" />
    
      <clipPath id="make-me-a-hanzi-clip-16">
        <path d="M 710 533 L 728 508 Q 735 498 757 463 L 798 394 Q 818 360 825 349 Q 832 338 843 323 Q 854 308 861 301 Q 868 294 874 292 Q 878 291 884 291 Q 889 291 896 292 Q 911 294 930 298 Q 950 302 959 305 L 976 310 Q 984 313 984 317 Q 984 321 977 325 L 958 336 Q 952 338 935 347 Q 918 356 902 366 Q 886 376 864 396 Q 840 416 825 434 Q 809 452 782 488 Q 756 524 746 536 Q 736 549 722 564 C 702 586 692 557 710 533 Z" />
      </clipPath>
      <path clip-path="url(#make-me-a-hanzi-clip-16)" d="M 724 557 L 727 534 L 823 398 L 877 338 L 896 328 L 977 318" fill="none" id="make-me-a-hanzi-animation-16" stroke-dasharray="501 1002" stroke-linecap="round" />
    
      <clipPath id="make-me-a-hanzi-clip-17">
        <path d="M 612 296 Q 604 294 603 290 L 603 289 Q 603 285 611 279 Q 620 273 629 270 Q 635 267 643 267 Q 647 267 652 268 Q 658 268 678 272 Q 698 276 700 278 L 730 286 L 758 292 L 776 298 Q 783 301 784 306 Q 784 311 776 315 Q 768 319 751 322 Q 734 326 730 326 Q 726 326 718 323 Q 710 320 692 315 L 658 305 Q 644 301 635 300 L 612 296 Z" />
      </clipPath>
      <path clip-path="url(#make-me-a-hanzi-clip-17)" d="M 610 290 L 646 284 L 729 306 L 776 307" fill="none" id="make-me-a-hanzi-animation-17" stroke-dasharray="297 594" stroke-linecap="round" />
    
      <clipPath id="make-me-a-hanzi-clip-18">
        <path d="M 730 -3 L 756 27 Q 766 40 786 62 L 820 97 Q 834 110 848 120 L 868 136 Q 874 140 876 144 L 876 146 Q 876 152 868 161 Q 858 172 840 184 Q 821 196 811 201 Q 800 206 794 206 Q 789 206 778 201 Q 766 196 736 188 L 686 174 Q 660 167 636 162 Q 612 157 594 155 L 574 152 Q 565 152 563 149 L 563 147 Q 563 145 565 140 Q 569 135 580 130 L 596 120 Q 604 116 611 116 L 614 116 Q 618 116 626 120 Q 635 124 652 130 Q 668 136 694 144 Q 720 152 734 157 Q 748 162 760 164 L 765 164 Q 772 164 774 162 Q 776 160 776 157 Q 776 154 774 150 Q 772 142 764 126 L 745 81 Q 738 66 728 49 L 704 10 C 688 -16 710 -26 730 -3 Z" />
      </clipPath>
      <path clip-path="url(#make-me-a-hanzi-clip-18)" d="M 569 148 L 608 136 L 765 181 L 796 178 L 817 149 L 726 16 L 714 13" fill="none" id="make-me-a-hanzi-animation-18" stroke-dasharray="573 1146" stroke-linecap="round" />
    
      <clipPath id="make-me-a-hanzi-clip-19">
        <path d="M 704 10 L 678 20 L 649 30 L 626 36 Q 620 38 617 38 Q 613 38 612 36 L 612 35 Q 612 33 618 27 L 630 14 Q 634 11 654 -10 L 686 -44 L 716 -76 Q 732 -93 746 -103 Q 758 -111 764 -111 L 766 -111 Q 772 -109 777 -102 Q 782 -94 782 -80 Q 782 -66 779 -54 Q 776 -42 770 -34 Q 763 -26 754 -19 L 730 -3 L 704 10 Z" />
      </clipPath>
      <path clip-path="url(#make-me-a-hanzi-clip-19)" d="M 615 36 L 730 -42 L 746 -59 L 765 -99" fill="none" id="make-me-a-hanzi-animation-19" stroke-dasharray="335 670" stroke-linecap="round" />
    
  </g>
</svg>