<svg xmlns="http://www.w3.org/2000/svg" version="1.1" viewBox="0 0 1024 1024">
  <g stroke="lightgray" stroke-dasharray="1,1" stroke-width="1" transform="scale(4, 4)">
    <line x1="0" y1="0" x2="256" y2="256" />
    <line x1="256" y1="0" x2="0" y2="256" />
    <line x1="128" y1="0" x2="128" y2="256" />
    <line x1="0" y1="128" x2="256" y2="128" />
  </g>
  <g transform="scale(1.0, -1.0) translate(0.0, -817.00)">
    <style type="text/css">
      
        @keyframes keyframes0 {
          from {
            stroke: blue;
            stroke-dashoffset: 505;
            stroke-width: 128;
          }
          62% {
            animation-timing-function: step-end;
            stroke: blue;
            stroke-dashoffset: 0;
            stroke-width: 128;
          }
          to {
            stroke: black;
            stroke-width: 1024;
          }
        }
        #make-me-a-hanzi-animation-0 {
          animation: keyframes0 0.6609700520833334s both;
          animation-delay: 0s;
          animation-timing-function: linear;
        }
      
        @keyframes keyframes1 {
          from {
            stroke: blue;
            stroke-dashoffset: 360;
            stroke-width: 128;
          }
          54% {
            animation-timing-function: step-end;
            stroke: blue;
            stroke-dashoffset: 0;
            stroke-width: 128;
          }
          to {
            stroke: black;
            stroke-width: 1024;
          }
        }
        #make-me-a-hanzi-animation-1 {
          animation: keyframes1 0.54296875s both;
          animation-delay: 0.6609700520833334s;
          animation-timing-function: linear;
        }
      
        @keyframes keyframes2 {
          from {
            stroke: blue;
            stroke-dashoffset: 417;
            stroke-width: 128;
          }
          58% {
            animation-timing-function: step-end;
            stroke: blue;
            stroke-dashoffset: 0;
            stroke-width: 128;
          }
          to {
            stroke: black;
            stroke-width: 1024;
          }
        }
        #make-me-a-hanzi-animation-2 {
          animation: keyframes2 0.58935546875s both;
          animation-delay: 1.2039388020833335s;
          animation-timing-function: linear;
        }
      
        @keyframes keyframes3 {
          from {
            stroke: blue;
            stroke-dashoffset: 716;
            stroke-width: 128;
          }
          70% {
            animation-timing-function: step-end;
            stroke: blue;
            stroke-dashoffset: 0;
            stroke-width: 128;
          }
          to {
            stroke: black;
            stroke-width: 1024;
          }
        }
        #make-me-a-hanzi-animation-3 {
          animation: keyframes3 0.8326822916666666s both;
          animation-delay: 1.7932942708333335s;
          animation-timing-function: linear;
        }
      
        @keyframes keyframes4 {
          from {
            stroke: blue;
            stroke-dashoffset: 415;
            stroke-width: 128;
          }
          57% {
            animation-timing-function: step-end;
            stroke: blue;
            stroke-dashoffset: 0;
            stroke-width: 128;
          }
          to {
            stroke: black;
            stroke-width: 1024;
          }
        }
        #make-me-a-hanzi-animation-4 {
          animation: keyframes4 0.5877278645833334s both;
          animation-delay: 2.6259765625s;
          animation-timing-function: linear;
        }
      
        @keyframes keyframes5 {
          from {
            stroke: blue;
            stroke-dashoffset: 308;
            stroke-width: 128;
          }
          50% {
            animation-timing-function: step-end;
            stroke: blue;
            stroke-dashoffset: 0;
            stroke-width: 128;
          }
          to {
            stroke: black;
            stroke-width: 1024;
          }
        }
        #make-me-a-hanzi-animation-5 {
          animation: keyframes5 0.5006510416666666s both;
          animation-delay: 3.2137044270833335s;
          animation-timing-function: linear;
        }
      
        @keyframes keyframes6 {
          from {
            stroke: blue;
            stroke-dashoffset: 424;
            stroke-width: 128;
          }
          58% {
            animation-timing-function: step-end;
            stroke: blue;
            stroke-dashoffset: 0;
            stroke-width: 128;
          }
          to {
            stroke: black;
            stroke-width: 1024;
          }
        }
        #make-me-a-hanzi-animation-6 {
          animation: keyframes6 0.5950520833333334s both;
          animation-delay: 3.71435546875s;
          animation-timing-function: linear;
        }
      
        @keyframes keyframes7 {
          from {
            stroke: blue;
            stroke-dashoffset: 315;
            stroke-width: 128;
          }
          51% {
            animation-timing-function: step-end;
            stroke: blue;
            stroke-dashoffset: 0;
            stroke-width: 128;
          }
          to {
            stroke: black;
            stroke-width: 1024;
          }
        }
        #make-me-a-hanzi-animation-7 {
          animation: keyframes7 0.50634765625s both;
          animation-delay: 4.309407552083333s;
          animation-timing-function: linear;
        }
      
        @keyframes keyframes8 {
          from {
            stroke: blue;
            stroke-dashoffset: 534;
            stroke-width: 128;
          }
          63% {
            animation-timing-function: step-end;
            stroke: blue;
            stroke-dashoffset: 0;
            stroke-width: 128;
          }
          to {
            stroke: black;
            stroke-width: 1024;
          }
        }
        #make-me-a-hanzi-animation-8 {
          animation: keyframes8 0.6845703125s both;
          animation-delay: 4.815755208333333s;
          animation-timing-function: linear;
        }
      
        @keyframes keyframes9 {
          from {
            stroke: blue;
            stroke-dashoffset: 400;
            stroke-width: 128;
          }
          57% {
            animation-timing-function: step-end;
            stroke: blue;
            stroke-dashoffset: 0;
            stroke-width: 128;
          }
          to {
            stroke: black;
            stroke-width: 1024;
          }
        }
        #make-me-a-hanzi-animation-9 {
          animation: keyframes9 0.5755208333333334s both;
          animation-delay: 5.500325520833333s;
          animation-timing-function: linear;
        }
      
        @keyframes keyframes10 {
          from {
            stroke: blue;
            stroke-dashoffset: 303;
            stroke-width: 128;
          }
          50% {
            animation-timing-function: step-end;
            stroke: blue;
            stroke-dashoffset: 0;
            stroke-width: 128;
          }
          to {
            stroke: black;
            stroke-width: 1024;
          }
        }
        #make-me-a-hanzi-animation-10 {
          animation: keyframes10 0.49658203125s both;
          animation-delay: 6.075846354166666s;
          animation-timing-function: linear;
        }
      
        @keyframes keyframes11 {
          from {
            stroke: blue;
            stroke-dashoffset: 398;
            stroke-width: 128;
          }
          56% {
            animation-timing-function: step-end;
            stroke: blue;
            stroke-dashoffset: 0;
            stroke-width: 128;
          }
          to {
            stroke: black;
            stroke-width: 1024;
          }
        }
        #make-me-a-hanzi-animation-11 {
          animation: keyframes11 0.5738932291666666s both;
          animation-delay: 6.572428385416666s;
          animation-timing-function: linear;
        }
      
        @keyframes keyframes12 {
          from {
            stroke: blue;
            stroke-dashoffset: 312;
            stroke-width: 128;
          }
          50% {
            animation-timing-function: step-end;
            stroke: blue;
            stroke-dashoffset: 0;
            stroke-width: 128;
          }
          to {
            stroke: black;
            stroke-width: 1024;
          }
        }
        #make-me-a-hanzi-animation-12 {
          animation: keyframes12 0.50390625s both;
          animation-delay: 7.146321614583333s;
          animation-timing-function: linear;
        }
      
        @keyframes keyframes13 {
          from {
            stroke: blue;
            stroke-dashoffset: 899;
            stroke-width: 128;
          }
          75% {
            animation-timing-function: step-end;
            stroke: blue;
            stroke-dashoffset: 0;
            stroke-width: 128;
          }
          to {
            stroke: black;
            stroke-width: 1024;
          }
        }
        #make-me-a-hanzi-animation-13 {
          animation: keyframes13 0.9816080729166666s both;
          animation-delay: 7.650227864583333s;
          animation-timing-function: linear;
        }
      
        @keyframes keyframes14 {
          from {
            stroke: blue;
            stroke-dashoffset: 602;
            stroke-width: 128;
          }
          66% {
            animation-timing-function: step-end;
            stroke: blue;
            stroke-dashoffset: 0;
            stroke-width: 128;
          }
          to {
            stroke: black;
            stroke-width: 1024;
          }
        }
        #make-me-a-hanzi-animation-14 {
          animation: keyframes14 0.7399088541666666s both;
          animation-delay: 8.6318359375s;
          animation-timing-function: linear;
        }
      
        @keyframes keyframes15 {
          from {
            stroke: blue;
            stroke-dashoffset: 751;
            stroke-width: 128;
          }
          71% {
            animation-timing-function: step-end;
            stroke: blue;
            stroke-dashoffset: 0;
            stroke-width: 128;
          }
          to {
            stroke: black;
            stroke-width: 1024;
          }
        }
        #make-me-a-hanzi-animation-15 {
          animation: keyframes15 0.8611653645833334s both;
          animation-delay: 9.371744791666666s;
          animation-timing-function: linear;
        }
      
        @keyframes keyframes16 {
          from {
            stroke: blue;
            stroke-dashoffset: 403;
            stroke-width: 128;
          }
          57% {
            animation-timing-function: step-end;
            stroke: blue;
            stroke-dashoffset: 0;
            stroke-width: 128;
          }
          to {
            stroke: black;
            stroke-width: 1024;
          }
        }
        #make-me-a-hanzi-animation-16 {
          animation: keyframes16 0.5779622395833334s both;
          animation-delay: 10.23291015625s;
          animation-timing-function: linear;
        }
      
        @keyframes keyframes17 {
          from {
            stroke: blue;
            stroke-dashoffset: 392;
            stroke-width: 128;
          }
          56% {
            animation-timing-function: step-end;
            stroke: blue;
            stroke-dashoffset: 0;
            stroke-width: 128;
          }
          to {
            stroke: black;
            stroke-width: 1024;
          }
        }
        #make-me-a-hanzi-animation-17 {
          animation: keyframes17 0.5690104166666666s both;
          animation-delay: 10.810872395833334s;
          animation-timing-function: linear;
        }
      
        @keyframes keyframes18 {
          from {
            stroke: blue;
            stroke-dashoffset: 1045;
            stroke-width: 128;
          }
          77% {
            animation-timing-function: step-end;
            stroke: blue;
            stroke-dashoffset: 0;
            stroke-width: 128;
          }
          to {
            stroke: black;
            stroke-width: 1024;
          }
        }
        #make-me-a-hanzi-animation-18 {
          animation: keyframes18 1.1004231770833333s both;
          animation-delay: 11.3798828125s;
          animation-timing-function: linear;
        }
      
        @keyframes keyframes19 {
          from {
            stroke: blue;
            stroke-dashoffset: 430;
            stroke-width: 128;
          }
          58% {
            animation-timing-function: step-end;
            stroke: blue;
            stroke-dashoffset: 0;
            stroke-width: 128;
          }
          to {
            stroke: black;
            stroke-width: 1024;
          }
        }
        #make-me-a-hanzi-animation-19 {
          animation: keyframes19 0.5999348958333334s both;
          animation-delay: 12.480305989583334s;
          animation-timing-function: linear;
        }
      
        @keyframes keyframes20 {
          from {
            stroke: blue;
            stroke-dashoffset: 745;
            stroke-width: 128;
          }
          71% {
            animation-timing-function: step-end;
            stroke: blue;
            stroke-dashoffset: 0;
            stroke-width: 128;
          }
          to {
            stroke: black;
            stroke-width: 1024;
          }
        }
        #make-me-a-hanzi-animation-20 {
          animation: keyframes20 0.8562825520833334s both;
          animation-delay: 13.080240885416668s;
          animation-timing-function: linear;
        }
      
    </style>
    
      <path d="M 366 451 L 368 540 L 370 556 L 370 589 Q 370 604 371 611 L 371 620 L 372 628 L 372 632 Q 379 646 379 653 Q 379 659 381 663 L 381 665 Q 378 678 346 686 L 330 691 Q 306 698 303 684 Q 302 678 305 673 L 313 658 Q 315 650 315 639 L 320 604 L 320 443 C 320 413 365 421 366 451 Z" fill="lightgray" />
    
      <path d="M 368 540 L 390 539 Q 394 536 448 545 L 470 550 Q 481 552 483 559 Q 485 566 473 574 L 459 582 Q 451 584 450 584 L 435 579 Q 426 573 411 570 L 370 556 C 342 546 338 541 368 540 Z" fill="lightgray" />
    
      <path d="M 257 433 L 254 504 Q 252 514 255 535 Q 258 555 259 557 L 259 561 Q 259 570 244 575 L 228 581 L 221 582 L 209 585 Q 197 586 192 582 Q 186 578 192 568 L 197 558 Q 207 533 208 508 L 215 426 C 218 396 258 403 257 433 Z" fill="lightgray" />
    
      <path d="M 233 391 L 261 397 Q 271 399 282 401.5 Q 293 404 317.5 407.5 Q 342 411 351 413 L 364 414 L 418 420 L 479 426 L 496 430 Q 509 431 509 438 Q 507 446 501 451 Q 495 453 481 460 L 461 465 Q 451 465 439 461 L 407 457 L 366 451 L 320 443 L 257 433 L 215 426 L 150 416 Q 92 405 65 404 L 43 403 Q 23 399 47 380 L 70 370 Q 86 362 92.5 362 Q 99 362 109 366.5 Q 119 371 130 372 L 152 376 L 213 388 L 233 391 Z" fill="lightgray" />
    
      <path d="M 241 336 L 251 348 Q 259 356 261 362 Q 272 373 253 380 Q 238 388 233 391 C 215 402 215 402 213 388 L 211 370 Q 211 361 205 348 Q 199 334 199 327 L 187 300 Q 182 288 174 275 L 163 259 Q 156 250 158 249 Q 159 248 161 244 Q 165 244 169 248 L 179 254 L 181 256 Q 191 263 208 287 Q 225 311 231 317 L 241 336 Z" fill="lightgray" />
    
      <path d="M 283 318 Q 279 322 269 326 L 241 336 C 213 346 213 341 231 317 L 251 291 Q 255 284 262 280 Q 275 268 282 279 Q 289 290 289 298 L 283 318 Z" fill="lightgray" />
    
      <path d="M 351 413 L 349 396 Q 349 385 345 374 L 336 350 L 318 310 Q 310 298 310 296 L 298 276 Q 291 268 291 263 Q 291 258 297 258 Q 302 260 313 270 L 333 290 Q 342 299 345 304 L 364 330 L 374 348 L 389 369 Q 391 372 403 384 Q 406 387 401 394 Q 396 400 364 414 C 352 419 352 419 351 413 Z" fill="lightgray" />
    
      <path d="M 364 330 Q 389 299 394 292 Q 399 285 410 283 Q 421 281 426 289 Q 431 296 431 305 L 431 314 Q 422 332 405 337 L 374 348 C 346 358 345 353 364 330 Z" fill="lightgray" />
    
      <path d="M 383 256 Q 364 250 345 248 L 267 237 Q 204 226 179 223 L 162 220 Q 156 219 153 216 L 154 211 Q 164 201 175 201 L 191 199 L 194 199 Q 201 198 208 199 L 223 201 Q 228 201 253 206 L 331 216 L 406 229 L 417 230 Q 441 231 441 243 Q 441 245 437 248 L 412 258 Q 405 261 399 261 L 383 256 Z" fill="lightgray" />
    
      <path d="M 238 128 Q 261 151 261 153 Q 265 160 249 169 L 240 176 Q 239 176 224 183 L 215 184 L 213 185 L 208 183 Q 207 182 207 176 Q 209 171 207 162 L 203 144 Q 198 126 196 122 L 185 101 Q 180 93 177 84 L 165 66 Q 160 60 162 58 Q 165 51 171 58 L 181 65 Q 190 67 207 89 Q 216 97 219 102 Q 227 110 229 115 L 238 128 Z" fill="lightgray" />
    
      <path d="M 256 124 Q 250 124 238 128 C 213 136 213 136 229 115 Q 239 102 248 90 Q 257 78 265 74 Q 273 69 280 74 Q 287 79 287 93 Q 287 115 256 124 Z" fill="lightgray" />
    
      <path d="M 312 74 L 324 82 L 334 92 Q 337 94 346 103 L 357 116 Q 365 122 371 132 L 378 144 Q 389 157 391 158 Q 409 167 399 177 L 390 186 L 377 195 Q 373 198 364 200 L 353 202 L 349 200 Q 347 198 349 190 Q 351 182 341 158 Q 341 155 334 137 L 330 127 Q 329 125 328.5 123 Q 328 121 326 117 L 320 105 L 311 92 Q 296 72 306 72 L 312 74 Z" fill="lightgray" />
    
      <path d="M 371 132 Q 372 131 375 125 Q 378 119 380 117 Q 381 115 383 113 Q 384 110 399 96 Q 414 81 418 83 Q 431 86 431 109 Q 429 117 425 123 Q 423 123 416 131 Q 408 139 378 144 C 361 147 361 147 371 132 Z" fill="lightgray" />
    
      <path d="M 131 261 Q 131 265 116 272 Q 95 287 75 288 Q 55 289 54 286 Q 51 285 56 271 L 66 247 Q 83 198 82 132 Q 81 109 81 78 Q 81 46 77 36 L 76 35 Q 75 33 75 31 Q 74 28 69 18 Q 63 7 62 4 Q 61 1 71 -16 Q 80 -33 83 -37 Q 93 -55 112 -43 L 134 -32 Q 166 -16 176 -14 L 218 -6 Q 229 -4 317 4 Q 404 11 418 11 L 447 11 C 477 11 477 58 447 56 L 384 51 Q 314 46 266 41 Q 217 35 205 35 Q 192 34 178 32 Q 164 30 154 30 L 138 29 Q 129 27 126 31 Q 122 34 123 45 L 123 73 L 124 213 Q 124 228 125 233 L 131 261 Z" fill="lightgray" />
    
      <path d="M 447 11 Q 448 10 449.5 1 Q 451 -8 455 -13 Q 471 -27 480 -18.5 Q 489 -10 490.5 -1 Q 492 8 494.5 32 Q 497 56 499 69 L 511 189 Q 512 214 517.5 246.5 Q 523 279 528 289 L 530 300 L 530 301 Q 530 304 520.5 312.5 Q 511 321 490 331.5 Q 469 342 458 333 Q 457 328 462 312.5 Q 467 297 467 295 L 467 292 Q 470 284 469 272 L 466 222 Q 465 216 463 196 Q 461 176 460 169 L 447 56 L 447 11 Z" fill="lightgray" />
    
      <path d="M 723 314 L 729 298 Q 729 293 738 292 Q 746 291 750 294 Q 768 299 775 327 L 820 511 Q 829 544 840 561 Q 850 577 852 583 Q 853 588 845 596 L 823 613 Q 796 628 784 636 Q 772 643 750 631 Q 672 605 667 605 L 603 593 C 574 587 588 560 617 567 L 731 593 Q 761 598 767 589 Q 769 578 769 576 Q 768 573 766 559 Q 766 541 754 472 L 755 458 L 729 352 C 722 323 721 319 723 314 Z" fill="lightgray" />
    
      <path d="M 600 440 L 621 436 Q 634 435 637 433 Q 646 433 682 442 L 723 451 Q 726 451 738 454 L 748 456 Q 754 458 755 458 C 777 464 777 464 754 472 L 737 478 Q 720 492 676 478 Q 632 464 603 460 C 573 456 571 446 600 440 Z" fill="lightgray" />
    
      <path d="M 593 293 L 622 294 L 723 314 C 752 320 759 352 729 352 L 706 352 Q 703 352 682 345 Q 660 338 644 335 L 593 325 C 564 319 563 292 593 293 Z" fill="lightgray" />
    
      <path d="M 584 -72 Q 584 -69 601 -48 L 626 -20 L 699 50 Q 707 58 703 62 Q 699 66 691 61 L 611 14 Q 594 2 591 6 Q 588 10 588 20 L 589 45 L 593 293 L 593 325 L 600 440 L 603 460 L 608 503 L 611 524 Q 612 533 612 538 L 617 567 C 620 586 620 586 603 593 L 567 608 Q 560 612 548 607 Q 535 602 544 593 L 549 581 Q 549 574 554 554 Q 559 534 559 495 L 559 415 Q 559 384 555 312 L 549 138 L 545 45 L 541 18 Q 539 11 531 -8 Q 523 -26 528 -42 Q 545 -88 563 -88 Q 572 -88 584 -72 Z" fill="lightgray" />
    
      <path d="M 731 162 L 782 190 L 828 218 Q 840 226 856 231 Q 872 236 882 246 Q 882 253 874 263 Q 865 272 860 276 Q 855 279 840 287 Q 824 295 818 295 Q 811 295 809 297 Q 806 298 805 295 Q 803 291 803 290 Q 803 289 802 281 Q 801 272 781 243 Q 760 213 752 205 L 721 176 C 699 156 705 148 731 162 Z" fill="lightgray" />
    
      <path d="M 721 176 Q 704 203 680 241 L 667 256 Q 639 284 626 276 Q 616 268 633 251 Q 645 243 649 238 Q 653 233 671 207 L 688 179 Q 694 172 710 140 L 735 92 L 769 36 Q 780 17 800.5 -12.5 Q 821 -42 830 -50 Q 847 -65 892.5 -56.5 Q 938 -48 957 -41 L 982 -34 Q 989 -32 987 -27 Q 985 -22 980 -19 L 941 -6 Q 893 11 871 24 Q 805 64 760 124 Q 738 154 731 162 L 721 176 Z" fill="lightgray" />
    
    
      <clipPath id="make-me-a-hanzi-clip-0">
        <path d="M 366 451 L 368 540 L 370 556 L 370 589 Q 370 604 371 611 L 371 620 L 372 628 L 372 632 Q 379 646 379 653 Q 379 659 381 663 L 381 665 Q 378 678 346 686 L 330 691 Q 306 698 303 684 Q 302 678 305 673 L 313 658 Q 315 650 315 639 L 320 604 L 320 443 C 320 413 365 421 366 451 Z" />
      </clipPath>
      <path clip-path="url(#make-me-a-hanzi-clip-0)" d="M 315 681 L 346 650 L 343 471 L 327 450" fill="none" id="make-me-a-hanzi-animation-0" stroke-dasharray="377 754" stroke-linecap="round" />
    
      <clipPath id="make-me-a-hanzi-clip-1">
        <path d="M 368 540 L 390 539 Q 394 536 448 545 L 470 550 Q 481 552 483 559 Q 485 566 473 574 L 459 582 Q 451 584 450 584 L 435 579 Q 426 573 411 570 L 370 556 C 342 546 338 541 368 540 Z" />
      </clipPath>
      <path clip-path="url(#make-me-a-hanzi-clip-1)" d="M 374 543 L 380 550 L 434 557 L 448 565 L 472 561" fill="none" id="make-me-a-hanzi-animation-1" stroke-dasharray="232 464" stroke-linecap="round" />
    
      <clipPath id="make-me-a-hanzi-clip-2">
        <path d="M 257 433 L 254 504 Q 252 514 255 535 Q 258 555 259 557 L 259 561 Q 259 570 244 575 L 228 581 L 221 582 L 209 585 Q 197 586 192 582 Q 186 578 192 568 L 197 558 Q 207 533 208 508 L 215 426 C 218 396 258 403 257 433 Z" />
      </clipPath>
      <path clip-path="url(#make-me-a-hanzi-clip-2)" d="M 198 575 L 230 546 L 235 451 L 221 433" fill="none" id="make-me-a-hanzi-animation-2" stroke-dasharray="289 578" stroke-linecap="round" />
    
      <clipPath id="make-me-a-hanzi-clip-3">
        <path d="M 233 391 L 261 397 Q 271 399 282 401.5 Q 293 404 317.5 407.5 Q 342 411 351 413 L 364 414 L 418 420 L 479 426 L 496 430 Q 509 431 509 438 Q 507 446 501 451 Q 495 453 481 460 L 461 465 Q 451 465 439 461 L 407 457 L 366 451 L 320 443 L 257 433 L 215 426 L 150 416 Q 92 405 65 404 L 43 403 Q 23 399 47 380 L 70 370 Q 86 362 92.5 362 Q 99 362 109 366.5 Q 119 371 130 372 L 152 376 L 213 388 L 233 391 Z" />
      </clipPath>
      <path clip-path="url(#make-me-a-hanzi-clip-3)" d="M 45 392 L 93 384 L 361 433 L 458 444 L 499 441" fill="none" id="make-me-a-hanzi-animation-3" stroke-dasharray="588 1176" stroke-linecap="round" />
    
      <clipPath id="make-me-a-hanzi-clip-4">
        <path d="M 241 336 L 251 348 Q 259 356 261 362 Q 272 373 253 380 Q 238 388 233 391 C 215 402 215 402 213 388 L 211 370 Q 211 361 205 348 Q 199 334 199 327 L 187 300 Q 182 288 174 275 L 163 259 Q 156 250 158 249 Q 159 248 161 244 Q 165 244 169 248 L 179 254 L 181 256 Q 191 263 208 287 Q 225 311 231 317 L 241 336 Z" />
      </clipPath>
      <path clip-path="url(#make-me-a-hanzi-clip-4)" d="M 219 383 L 229 372 L 231 355 L 195 286 L 163 249" fill="none" id="make-me-a-hanzi-animation-4" stroke-dasharray="287 574" stroke-linecap="round" />
    
      <clipPath id="make-me-a-hanzi-clip-5">
        <path d="M 283 318 Q 279 322 269 326 L 241 336 C 213 346 213 341 231 317 L 251 291 Q 255 284 262 280 Q 275 268 282 279 Q 289 290 289 298 L 283 318 Z" />
      </clipPath>
      <path clip-path="url(#make-me-a-hanzi-clip-5)" d="M 246 327 L 248 318 L 266 305 L 272 285" fill="none" id="make-me-a-hanzi-animation-5" stroke-dasharray="180 360" stroke-linecap="round" />
    
      <clipPath id="make-me-a-hanzi-clip-6">
        <path d="M 351 413 L 349 396 Q 349 385 345 374 L 336 350 L 318 310 Q 310 298 310 296 L 298 276 Q 291 268 291 263 Q 291 258 297 258 Q 302 260 313 270 L 333 290 Q 342 299 345 304 L 364 330 L 374 348 L 389 369 Q 391 372 403 384 Q 406 387 401 394 Q 396 400 364 414 C 352 419 352 419 351 413 Z" />
      </clipPath>
      <path clip-path="url(#make-me-a-hanzi-clip-6)" d="M 358 408 L 371 385 L 367 374 L 337 316 L 297 265" fill="none" id="make-me-a-hanzi-animation-6" stroke-dasharray="296 592" stroke-linecap="round" />
    
      <clipPath id="make-me-a-hanzi-clip-7">
        <path d="M 364 330 Q 389 299 394 292 Q 399 285 410 283 Q 421 281 426 289 Q 431 296 431 305 L 431 314 Q 422 332 405 337 L 374 348 C 346 358 345 353 364 330 Z" />
      </clipPath>
      <path clip-path="url(#make-me-a-hanzi-clip-7)" d="M 377 340 L 381 330 L 406 313 L 414 297" fill="none" id="make-me-a-hanzi-animation-7" stroke-dasharray="187 374" stroke-linecap="round" />
    
      <clipPath id="make-me-a-hanzi-clip-8">
        <path d="M 383 256 Q 364 250 345 248 L 267 237 Q 204 226 179 223 L 162 220 Q 156 219 153 216 L 154 211 Q 164 201 175 201 L 191 199 L 194 199 Q 201 198 208 199 L 223 201 Q 228 201 253 206 L 331 216 L 406 229 L 417 230 Q 441 231 441 243 Q 441 245 437 248 L 412 258 Q 405 261 399 261 L 383 256 Z" />
      </clipPath>
      <path clip-path="url(#make-me-a-hanzi-clip-8)" d="M 159 215 L 214 213 L 400 244 L 434 241" fill="none" id="make-me-a-hanzi-animation-8" stroke-dasharray="406 812" stroke-linecap="round" />
    
      <clipPath id="make-me-a-hanzi-clip-9">
        <path d="M 238 128 Q 261 151 261 153 Q 265 160 249 169 L 240 176 Q 239 176 224 183 L 215 184 L 213 185 L 208 183 Q 207 182 207 176 Q 209 171 207 162 L 203 144 Q 198 126 196 122 L 185 101 Q 180 93 177 84 L 165 66 Q 160 60 162 58 Q 165 51 171 58 L 181 65 Q 190 67 207 89 Q 216 97 219 102 Q 227 110 229 115 L 238 128 Z" />
      </clipPath>
      <path clip-path="url(#make-me-a-hanzi-clip-9)" d="M 212 180 L 229 150 L 194 90 L 167 61" fill="none" id="make-me-a-hanzi-animation-9" stroke-dasharray="272 544" stroke-linecap="round" />
    
      <clipPath id="make-me-a-hanzi-clip-10">
        <path d="M 256 124 Q 250 124 238 128 C 213 136 213 136 229 115 Q 239 102 248 90 Q 257 78 265 74 Q 273 69 280 74 Q 287 79 287 93 Q 287 115 256 124 Z" />
      </clipPath>
      <path clip-path="url(#make-me-a-hanzi-clip-10)" d="M 240 117 L 266 99 L 272 85" fill="none" id="make-me-a-hanzi-animation-10" stroke-dasharray="175 350" stroke-linecap="round" />
    
      <clipPath id="make-me-a-hanzi-clip-11">
        <path d="M 312 74 L 324 82 L 334 92 Q 337 94 346 103 L 357 116 Q 365 122 371 132 L 378 144 Q 389 157 391 158 Q 409 167 399 177 L 390 186 L 377 195 Q 373 198 364 200 L 353 202 L 349 200 Q 347 198 349 190 Q 351 182 341 158 Q 341 155 334 137 L 330 127 Q 329 125 328.5 123 Q 328 121 326 117 L 320 105 L 311 92 Q 296 72 306 72 L 312 74 Z" />
      </clipPath>
      <path clip-path="url(#make-me-a-hanzi-clip-11)" d="M 354 195 L 370 172 L 339 114 L 308 77" fill="none" id="make-me-a-hanzi-animation-11" stroke-dasharray="270 540" stroke-linecap="round" />
    
      <clipPath id="make-me-a-hanzi-clip-12">
        <path d="M 371 132 Q 372 131 375 125 Q 378 119 380 117 Q 381 115 383 113 Q 384 110 399 96 Q 414 81 418 83 Q 431 86 431 109 Q 429 117 425 123 Q 423 123 416 131 Q 408 139 378 144 C 361 147 361 147 371 132 Z" />
      </clipPath>
      <path clip-path="url(#make-me-a-hanzi-clip-12)" d="M 382 134 L 412 109 L 418 93" fill="none" id="make-me-a-hanzi-animation-12" stroke-dasharray="184 368" stroke-linecap="round" />
    
      <clipPath id="make-me-a-hanzi-clip-13">
        <path d="M 131 261 Q 131 265 116 272 Q 95 287 75 288 Q 55 289 54 286 Q 51 285 56 271 L 66 247 Q 83 198 82 132 Q 81 109 81 78 Q 81 46 77 36 L 76 35 Q 75 33 75 31 Q 74 28 69 18 Q 63 7 62 4 Q 61 1 71 -16 Q 80 -33 83 -37 Q 93 -55 112 -43 L 134 -32 Q 166 -16 176 -14 L 218 -6 Q 229 -4 317 4 Q 404 11 418 11 L 447 11 C 477 11 477 58 447 56 L 384 51 Q 314 46 266 41 Q 217 35 205 35 Q 192 34 178 32 Q 164 30 154 30 L 138 29 Q 129 27 126 31 Q 122 34 123 45 L 123 73 L 124 213 Q 124 228 125 233 L 131 261 Z" />
      </clipPath>
      <path clip-path="url(#make-me-a-hanzi-clip-13)" d="M 60 279 L 97 248 L 103 159 L 100 11 L 107 -3 L 221 16 L 425 33 L 440 49" fill="none" id="make-me-a-hanzi-animation-13" stroke-dasharray="771 1542" stroke-linecap="round" />
    
      <clipPath id="make-me-a-hanzi-clip-14">
        <path d="M 447 11 Q 448 10 449.5 1 Q 451 -8 455 -13 Q 471 -27 480 -18.5 Q 489 -10 490.5 -1 Q 492 8 494.5 32 Q 497 56 499 69 L 511 189 Q 512 214 517.5 246.5 Q 523 279 528 289 L 530 300 L 530 301 Q 530 304 520.5 312.5 Q 511 321 490 331.5 Q 469 342 458 333 Q 457 328 462 312.5 Q 467 297 467 295 L 467 292 Q 470 284 469 272 L 466 222 Q 465 216 463 196 Q 461 176 460 169 L 447 56 L 447 11 Z" />
      </clipPath>
      <path clip-path="url(#make-me-a-hanzi-clip-14)" d="M 465 330 L 497 293 L 470 -3" fill="none" id="make-me-a-hanzi-animation-14" stroke-dasharray="474 948" stroke-linecap="round" />
    
      <clipPath id="make-me-a-hanzi-clip-15">
        <path d="M 723 314 L 729 298 Q 729 293 738 292 Q 746 291 750 294 Q 768 299 775 327 L 820 511 Q 829 544 840 561 Q 850 577 852 583 Q 853 588 845 596 L 823 613 Q 796 628 784 636 Q 772 643 750 631 Q 672 605 667 605 L 603 593 C 574 587 588 560 617 567 L 731 593 Q 761 598 767 589 Q 769 578 769 576 Q 768 573 766 559 Q 766 541 754 472 L 755 458 L 729 352 C 722 323 721 319 723 314 Z" />
      </clipPath>
      <path clip-path="url(#make-me-a-hanzi-clip-15)" d="M 610 589 L 625 584 L 650 588 L 765 615 L 788 604 L 806 579 L 742 307" fill="none" id="make-me-a-hanzi-animation-15" stroke-dasharray="623 1246" stroke-linecap="round" />
    
      <clipPath id="make-me-a-hanzi-clip-16">
        <path d="M 600 440 L 621 436 Q 634 435 637 433 Q 646 433 682 442 L 723 451 Q 726 451 738 454 L 748 456 Q 754 458 755 458 C 777 464 777 464 754 472 L 737 478 Q 720 492 676 478 Q 632 464 603 460 C 573 456 571 446 600 440 Z" />
      </clipPath>
      <path clip-path="url(#make-me-a-hanzi-clip-16)" d="M 606 444 L 614 450 L 668 455 L 707 467 L 749 465" fill="none" id="make-me-a-hanzi-animation-16" stroke-dasharray="275 550" stroke-linecap="round" />
    
      <clipPath id="make-me-a-hanzi-clip-17">
        <path d="M 593 293 L 622 294 L 723 314 C 752 320 759 352 729 352 L 706 352 Q 703 352 682 345 Q 660 338 644 335 L 593 325 C 564 319 563 292 593 293 Z" />
      </clipPath>
      <path clip-path="url(#make-me-a-hanzi-clip-17)" d="M 600 298 L 614 311 L 705 331 L 723 346" fill="none" id="make-me-a-hanzi-animation-17" stroke-dasharray="264 528" stroke-linecap="round" />
    
      <clipPath id="make-me-a-hanzi-clip-18">
        <path d="M 584 -72 Q 584 -69 601 -48 L 626 -20 L 699 50 Q 707 58 703 62 Q 699 66 691 61 L 611 14 Q 594 2 591 6 Q 588 10 588 20 L 589 45 L 593 293 L 593 325 L 600 440 L 603 460 L 608 503 L 611 524 Q 612 533 612 538 L 617 567 C 620 586 620 586 603 593 L 567 608 Q 560 612 548 607 Q 535 602 544 593 L 549 581 Q 549 574 554 554 Q 559 534 559 495 L 559 415 Q 559 384 555 312 L 549 138 L 545 45 L 541 18 Q 539 11 531 -8 Q 523 -26 528 -42 Q 545 -88 563 -88 Q 572 -88 584 -72 Z" />
      </clipPath>
      <path clip-path="url(#make-me-a-hanzi-clip-18)" d="M 556 597 L 581 569 L 585 550 L 564 21 L 567 -26 L 607 -12 L 697 57" fill="none" id="make-me-a-hanzi-animation-18" stroke-dasharray="917 1834" stroke-linecap="round" />
    
      <clipPath id="make-me-a-hanzi-clip-19">
        <path d="M 731 162 L 782 190 L 828 218 Q 840 226 856 231 Q 872 236 882 246 Q 882 253 874 263 Q 865 272 860 276 Q 855 279 840 287 Q 824 295 818 295 Q 811 295 809 297 Q 806 298 805 295 Q 803 291 803 290 Q 803 289 802 281 Q 801 272 781 243 Q 760 213 752 205 L 721 176 C 699 156 705 148 731 162 Z" />
      </clipPath>
      <path clip-path="url(#make-me-a-hanzi-clip-19)" d="M 872 247 L 828 256 L 767 199 L 735 175 L 730 177" fill="none" id="make-me-a-hanzi-animation-19" stroke-dasharray="302 604" stroke-linecap="round" />
    
      <clipPath id="make-me-a-hanzi-clip-20">
        <path d="M 721 176 Q 704 203 680 241 L 667 256 Q 639 284 626 276 Q 616 268 633 251 Q 645 243 649 238 Q 653 233 671 207 L 688 179 Q 694 172 710 140 L 735 92 L 769 36 Q 780 17 800.5 -12.5 Q 821 -42 830 -50 Q 847 -65 892.5 -56.5 Q 938 -48 957 -41 L 982 -34 Q 989 -32 987 -27 Q 985 -22 980 -19 L 941 -6 Q 893 11 871 24 Q 805 64 760 124 Q 738 154 731 162 L 721 176 Z" />
      </clipPath>
      <path clip-path="url(#make-me-a-hanzi-clip-20)" d="M 632 268 L 652 256 L 755 97 L 837 0 L 857 -17 L 877 -22 L 979 -27" fill="none" id="make-me-a-hanzi-animation-20" stroke-dasharray="617 1234" stroke-linecap="round" />
    
  </g>
</svg>