<svg xmlns="http://www.w3.org/2000/svg" version="1.1" viewBox="0 0 1024 1024">
  <g stroke="lightgray" stroke-dasharray="1,1" stroke-width="1" transform="scale(4, 4)">
    <line x1="0" y1="0" x2="256" y2="256" />
    <line x1="256" y1="0" x2="0" y2="256" />
    <line x1="128" y1="0" x2="128" y2="256" />
    <line x1="0" y1="128" x2="256" y2="128" />
  </g>
  <g transform="scale(1.0, -1.0) translate(0.0, -825.50)">
    <style type="text/css">
      
        @keyframes keyframes0 {
          from {
            stroke: blue;
            stroke-dashoffset: 505;
            stroke-width: 128;
          }
          62% {
            animation-timing-function: step-end;
            stroke: blue;
            stroke-dashoffset: 0;
            stroke-width: 128;
          }
          to {
            stroke: black;
            stroke-width: 1024;
          }
        }
        #make-me-a-hanzi-animation-0 {
          animation: keyframes0 0.6609700520833334s both;
          animation-delay: 0s;
          animation-timing-function: linear;
        }
      
        @keyframes keyframes1 {
          from {
            stroke: blue;
            stroke-dashoffset: 378;
            stroke-width: 128;
          }
          55% {
            animation-timing-function: step-end;
            stroke: blue;
            stroke-dashoffset: 0;
            stroke-width: 128;
          }
          to {
            stroke: black;
            stroke-width: 1024;
          }
        }
        #make-me-a-hanzi-animation-1 {
          animation: keyframes1 0.5576171875s both;
          animation-delay: 0.6609700520833334s;
          animation-timing-function: linear;
        }
      
        @keyframes keyframes2 {
          from {
            stroke: blue;
            stroke-dashoffset: 430;
            stroke-width: 128;
          }
          58% {
            animation-timing-function: step-end;
            stroke: blue;
            stroke-dashoffset: 0;
            stroke-width: 128;
          }
          to {
            stroke: black;
            stroke-width: 1024;
          }
        }
        #make-me-a-hanzi-animation-2 {
          animation: keyframes2 0.5999348958333334s both;
          animation-delay: 1.2185872395833335s;
          animation-timing-function: linear;
        }
      
        @keyframes keyframes3 {
          from {
            stroke: blue;
            stroke-dashoffset: 695;
            stroke-width: 128;
          }
          69% {
            animation-timing-function: step-end;
            stroke: blue;
            stroke-dashoffset: 0;
            stroke-width: 128;
          }
          to {
            stroke: black;
            stroke-width: 1024;
          }
        }
        #make-me-a-hanzi-animation-3 {
          animation: keyframes3 0.8155924479166666s both;
          animation-delay: 1.818522135416667s;
          animation-timing-function: linear;
        }
      
        @keyframes keyframes4 {
          from {
            stroke: blue;
            stroke-dashoffset: 542;
            stroke-width: 128;
          }
          64% {
            animation-timing-function: step-end;
            stroke: blue;
            stroke-dashoffset: 0;
            stroke-width: 128;
          }
          to {
            stroke: black;
            stroke-width: 1024;
          }
        }
        #make-me-a-hanzi-animation-4 {
          animation: keyframes4 0.6910807291666666s both;
          animation-delay: 2.6341145833333335s;
          animation-timing-function: linear;
        }
      
        @keyframes keyframes5 {
          from {
            stroke: blue;
            stroke-dashoffset: 372;
            stroke-width: 128;
          }
          55% {
            animation-timing-function: step-end;
            stroke: blue;
            stroke-dashoffset: 0;
            stroke-width: 128;
          }
          to {
            stroke: black;
            stroke-width: 1024;
          }
        }
        #make-me-a-hanzi-animation-5 {
          animation: keyframes5 0.552734375s both;
          animation-delay: 3.3251953125s;
          animation-timing-function: linear;
        }
      
        @keyframes keyframes6 {
          from {
            stroke: blue;
            stroke-dashoffset: 820;
            stroke-width: 128;
          }
          73% {
            animation-timing-function: step-end;
            stroke: blue;
            stroke-dashoffset: 0;
            stroke-width: 128;
          }
          to {
            stroke: black;
            stroke-width: 1024;
          }
        }
        #make-me-a-hanzi-animation-6 {
          animation: keyframes6 0.9173177083333334s both;
          animation-delay: 3.8779296875s;
          animation-timing-function: linear;
        }
      
        @keyframes keyframes7 {
          from {
            stroke: blue;
            stroke-dashoffset: 558;
            stroke-width: 128;
          }
          64% {
            animation-timing-function: step-end;
            stroke: blue;
            stroke-dashoffset: 0;
            stroke-width: 128;
          }
          to {
            stroke: black;
            stroke-width: 1024;
          }
        }
        #make-me-a-hanzi-animation-7 {
          animation: keyframes7 0.7041015625s both;
          animation-delay: 4.795247395833333s;
          animation-timing-function: linear;
        }
      
        @keyframes keyframes8 {
          from {
            stroke: blue;
            stroke-dashoffset: 468;
            stroke-width: 128;
          }
          60% {
            animation-timing-function: step-end;
            stroke: blue;
            stroke-dashoffset: 0;
            stroke-width: 128;
          }
          to {
            stroke: black;
            stroke-width: 1024;
          }
        }
        #make-me-a-hanzi-animation-8 {
          animation: keyframes8 0.630859375s both;
          animation-delay: 5.499348958333333s;
          animation-timing-function: linear;
        }
      
        @keyframes keyframes9 {
          from {
            stroke: blue;
            stroke-dashoffset: 615;
            stroke-width: 128;
          }
          67% {
            animation-timing-function: step-end;
            stroke: blue;
            stroke-dashoffset: 0;
            stroke-width: 128;
          }
          to {
            stroke: black;
            stroke-width: 1024;
          }
        }
        #make-me-a-hanzi-animation-9 {
          animation: keyframes9 0.75048828125s both;
          animation-delay: 6.130208333333333s;
          animation-timing-function: linear;
        }
      
        @keyframes keyframes10 {
          from {
            stroke: blue;
            stroke-dashoffset: 454;
            stroke-width: 128;
          }
          60% {
            animation-timing-function: step-end;
            stroke: blue;
            stroke-dashoffset: 0;
            stroke-width: 128;
          }
          to {
            stroke: black;
            stroke-width: 1024;
          }
        }
        #make-me-a-hanzi-animation-10 {
          animation: keyframes10 0.6194661458333334s both;
          animation-delay: 6.880696614583333s;
          animation-timing-function: linear;
        }
      
        @keyframes keyframes11 {
          from {
            stroke: blue;
            stroke-dashoffset: 575;
            stroke-width: 128;
          }
          65% {
            animation-timing-function: step-end;
            stroke: blue;
            stroke-dashoffset: 0;
            stroke-width: 128;
          }
          to {
            stroke: black;
            stroke-width: 1024;
          }
        }
        #make-me-a-hanzi-animation-11 {
          animation: keyframes11 0.7179361979166666s both;
          animation-delay: 7.500162760416666s;
          animation-timing-function: linear;
        }
      
        @keyframes keyframes12 {
          from {
            stroke: blue;
            stroke-dashoffset: 385;
            stroke-width: 128;
          }
          56% {
            animation-timing-function: step-end;
            stroke: blue;
            stroke-dashoffset: 0;
            stroke-width: 128;
          }
          to {
            stroke: black;
            stroke-width: 1024;
          }
        }
        #make-me-a-hanzi-animation-12 {
          animation: keyframes12 0.5633138020833334s both;
          animation-delay: 8.218098958333332s;
          animation-timing-function: linear;
        }
      
        @keyframes keyframes13 {
          from {
            stroke: blue;
            stroke-dashoffset: 503;
            stroke-width: 128;
          }
          62% {
            animation-timing-function: step-end;
            stroke: blue;
            stroke-dashoffset: 0;
            stroke-width: 128;
          }
          to {
            stroke: black;
            stroke-width: 1024;
          }
        }
        #make-me-a-hanzi-animation-13 {
          animation: keyframes13 0.6593424479166666s both;
          animation-delay: 8.781412760416666s;
          animation-timing-function: linear;
        }
      
        @keyframes keyframes14 {
          from {
            stroke: blue;
            stroke-dashoffset: 700;
            stroke-width: 128;
          }
          69% {
            animation-timing-function: step-end;
            stroke: blue;
            stroke-dashoffset: 0;
            stroke-width: 128;
          }
          to {
            stroke: black;
            stroke-width: 1024;
          }
        }
        #make-me-a-hanzi-animation-14 {
          animation: keyframes14 0.8196614583333334s both;
          animation-delay: 9.440755208333332s;
          animation-timing-function: linear;
        }
      
    </style>
    
      <path d="M 367 446 Q 371 500 374 549 L 375 578 Q 376 588 377 597 L 382 627 Q 385 637 387 645 Q 390 655 372 668 Q 341 684 319 686 Q 306 689 298 681 Q 291 674 299 662 Q 326 628 329 436 C 330 406 365 416 367 446 Z" fill="lightgray" />
    
      <path d="M 374 549 Q 411 545 495 571 L 496 571 Q 502 577 498 583 Q 494 592 471 597 Q 447 603 375 578 C 347 568 344 551 374 549 Z" fill="lightgray" />
    
      <path d="M 254 417 Q 239 508 244 533 Q 244 552 231 562 Q 209 575 185 581 Q 172 584 165 578 Q 159 571 166 559 Q 179 541 189 521 Q 196 499 219 409 C 226 380 259 387 254 417 Z" fill="lightgray" />
    
      <path d="M 219 409 Q 138 393 79 383 Q 67 382 65 374 Q 62 365 76 355 Q 112 333 149 345 Q 309 403 499 438 Q 514 439 514 447 Q 515 459 498 466 Q 473 476 453 470 Q 404 457 367 446 L 329 436 Q 284 426 254 417 L 219 409 Z" fill="lightgray" />
    
      <path d="M 317 228 Q 333 280 357 330 Q 364 343 349 352 Q 306 371 290 365 Q 281 361 286 350 Q 310 272 241 153 Q 229 149 211 106 Q 207 93 218 99 Q 251 109 306 205 L 317 228 Z" fill="lightgray" />
    
      <path d="M 306 205 Q 334 177 370 137 Q 380 124 390 120 Q 396 119 400 126 Q 409 135 401 163 Q 395 191 345 215 L 317 228 C 290 241 285 226 306 205 Z" fill="lightgray" />
    
      <path d="M 431 87 Q 292 62 190 23 Q 174 19 177 39 Q 187 115 196 195 Q 200 219 191 233 Q 175 251 152 265 Q 140 272 130 269 Q 120 265 127 246 Q 157 173 144 101 Q 134 31 105 2 Q 87 -17 95 -30 Q 107 -46 124 -56 Q 139 -62 150 -52 Q 180 -18 345 30 Q 415 51 432 46 C 462 46 460 92 431 87 Z" fill="lightgray" />
    
      <path d="M 432 46 Q 438 30 445 18 Q 452 5 463 15 Q 472 27 479 58 L 480 79 Q 480 235 494 270 Q 500 283 490 294 Q 474 307 445 321 Q 433 325 424 320 Q 417 316 420 305 Q 448 271 435 105 Q 432 96 431 87 L 432 46 Z" fill="lightgray" />
    
      <path d="M 595 580 Q 585 586 550 592 Q 540 595 536 590 Q 532 584 539 570 Q 566 518 583 433 Q 586 408 601 390 Q 617 371 622 385 L 624 397 L 623 426 Q 613 477 602 549 C 597 579 597 579 595 580 Z" fill="lightgray" />
    
      <path d="M 805 456 Q 827 535 852 560 Q 877 587 852 603 Q 831 615 803 634 Q 782 646 735 619 Q 681 598 595 580 C 566 574 572 545 602 549 Q 612 550 627 553 Q 682 568 730 578 Q 761 585 770 572 Q 777 566 769 531 Q 762 497 750 455 C 742 426 797 427 805 456 Z" fill="lightgray" />
    
      <path d="M 703 411 Q 749 418 818 426 Q 827 427 828 434 Q 828 441 805 456 C 792 465 779 462 750 455 L 623 426 C 594 419 594 394 624 397 Q 628 397 633 398 Q 645 401 663 404 L 703 411 Z" fill="lightgray" />
    
      <path d="M 721 97 Q 724 190 727 267 L 728 299 Q 728 335 732 363 Q 739 387 703 411 C 679 429 648 430 663 404 Q 678 380 678 349 Q 679 324 679 121 C 679 91 720 67 721 97 Z" fill="lightgray" />
    
      <path d="M 727 267 Q 766 267 855 296 Q 856 297 857 297 Q 864 304 859 311 Q 852 320 829 324 Q 814 325 748 304 Q 736 303 728 299 C 700 287 697 266 727 267 Z" fill="lightgray" />
    
      <path d="M 479 58 Q 522 74 574 161 L 584 182 Q 584 183 585 183 Q 601 217 617 246 Q 624 256 612 267 Q 575 289 556 284 Q 549 281 551 270 Q 569 195 484 85 Q 481 82 480 79 C 463 54 460 50 479 58 Z" fill="lightgray" />
    
      <path d="M 574 161 Q 664 71 793 -30 Q 815 -45 842 -37 Q 938 -12 967 0 Q 976 4 976 9 Q 975 12 875 36 Q 865 39 855 41 Q 810 45 721 97 L 679 121 L 588 180 Q 587 181 584 182 C 558 197 553 182 574 161 Z" fill="lightgray" />
    
    
      <clipPath id="make-me-a-hanzi-clip-0">
        <path d="M 367 446 Q 371 500 374 549 L 375 578 Q 376 588 377 597 L 382 627 Q 385 637 387 645 Q 390 655 372 668 Q 341 684 319 686 Q 306 689 298 681 Q 291 674 299 662 Q 326 628 329 436 C 330 406 365 416 367 446 Z" />
      </clipPath>
      <path clip-path="url(#make-me-a-hanzi-clip-0)" d="M 309 672 L 348 640 L 348 462 L 332 449" fill="none" id="make-me-a-hanzi-animation-0" stroke-dasharray="377 754" stroke-linecap="round" />
    
      <clipPath id="make-me-a-hanzi-clip-1">
        <path d="M 374 549 Q 411 545 495 571 L 496 571 Q 502 577 498 583 Q 494 592 471 597 Q 447 603 375 578 C 347 568 344 551 374 549 Z" />
      </clipPath>
      <path clip-path="url(#make-me-a-hanzi-clip-1)" d="M 379 556 L 392 567 L 450 579 L 496 577" fill="none" id="make-me-a-hanzi-animation-1" stroke-dasharray="250 500" stroke-linecap="round" />
    
      <clipPath id="make-me-a-hanzi-clip-2">
        <path d="M 254 417 Q 239 508 244 533 Q 244 552 231 562 Q 209 575 185 581 Q 172 584 165 578 Q 159 571 166 559 Q 179 541 189 521 Q 196 499 219 409 C 226 380 259 387 254 417 Z" />
      </clipPath>
      <path clip-path="url(#make-me-a-hanzi-clip-2)" d="M 173 571 L 215 533 L 232 431 L 222 421" fill="none" id="make-me-a-hanzi-animation-2" stroke-dasharray="302 604" stroke-linecap="round" />
    
      <clipPath id="make-me-a-hanzi-clip-3">
        <path d="M 219 409 Q 138 393 79 383 Q 67 382 65 374 Q 62 365 76 355 Q 112 333 149 345 Q 309 403 499 438 Q 514 439 514 447 Q 515 459 498 466 Q 473 476 453 470 Q 404 457 367 446 L 329 436 Q 284 426 254 417 L 219 409 Z" />
      </clipPath>
      <path clip-path="url(#make-me-a-hanzi-clip-3)" d="M 76 371 L 126 365 L 434 446 L 485 453 L 503 449" fill="none" id="make-me-a-hanzi-animation-3" stroke-dasharray="567 1134" stroke-linecap="round" />
    
      <clipPath id="make-me-a-hanzi-clip-4">
        <path d="M 317 228 Q 333 280 357 330 Q 364 343 349 352 Q 306 371 290 365 Q 281 361 286 350 Q 310 272 241 153 Q 229 149 211 106 Q 207 93 218 99 Q 251 109 306 205 L 317 228 Z" />
      </clipPath>
      <path clip-path="url(#make-me-a-hanzi-clip-4)" d="M 296 355 L 322 329 L 298 230 L 277 183 L 219 107" fill="none" id="make-me-a-hanzi-animation-4" stroke-dasharray="414 828" stroke-linecap="round" />
    
      <clipPath id="make-me-a-hanzi-clip-5">
        <path d="M 306 205 Q 334 177 370 137 Q 380 124 390 120 Q 396 119 400 126 Q 409 135 401 163 Q 395 191 345 215 L 317 228 C 290 241 285 226 306 205 Z" />
      </clipPath>
      <path clip-path="url(#make-me-a-hanzi-clip-5)" d="M 321 219 L 324 208 L 375 166 L 390 131" fill="none" id="make-me-a-hanzi-animation-5" stroke-dasharray="244 488" stroke-linecap="round" />
    
      <clipPath id="make-me-a-hanzi-clip-6">
        <path d="M 431 87 Q 292 62 190 23 Q 174 19 177 39 Q 187 115 196 195 Q 200 219 191 233 Q 175 251 152 265 Q 140 272 130 269 Q 120 265 127 246 Q 157 173 144 101 Q 134 31 105 2 Q 87 -17 95 -30 Q 107 -46 124 -56 Q 139 -62 150 -52 Q 180 -18 345 30 Q 415 51 432 46 C 462 46 460 92 431 87 Z" />
      </clipPath>
      <path clip-path="url(#make-me-a-hanzi-clip-6)" d="M 136 259 L 166 218 L 171 174 L 151 -2 L 199 2 L 256 25 L 376 58 L 414 65 L 429 53" fill="none" id="make-me-a-hanzi-animation-6" stroke-dasharray="692 1384" stroke-linecap="round" />
    
      <clipPath id="make-me-a-hanzi-clip-7">
        <path d="M 432 46 Q 438 30 445 18 Q 452 5 463 15 Q 472 27 479 58 L 480 79 Q 480 235 494 270 Q 500 283 490 294 Q 474 307 445 321 Q 433 325 424 320 Q 417 316 420 305 Q 448 271 435 105 Q 432 96 431 87 L 432 46 Z" />
      </clipPath>
      <path clip-path="url(#make-me-a-hanzi-clip-7)" d="M 432 310 L 464 275 L 455 21" fill="none" id="make-me-a-hanzi-animation-7" stroke-dasharray="430 860" stroke-linecap="round" />
    
      <clipPath id="make-me-a-hanzi-clip-8">
        <path d="M 595 580 Q 585 586 550 592 Q 540 595 536 590 Q 532 584 539 570 Q 566 518 583 433 Q 586 408 601 390 Q 617 371 622 385 L 624 397 L 623 426 Q 613 477 602 549 C 597 579 597 579 595 580 Z" />
      </clipPath>
      <path clip-path="url(#make-me-a-hanzi-clip-8)" d="M 544 585 L 572 561 L 612 390" fill="none" id="make-me-a-hanzi-animation-8" stroke-dasharray="340 680" stroke-linecap="round" />
    
      <clipPath id="make-me-a-hanzi-clip-9">
        <path d="M 805 456 Q 827 535 852 560 Q 877 587 852 603 Q 831 615 803 634 Q 782 646 735 619 Q 681 598 595 580 C 566 574 572 545 602 549 Q 612 550 627 553 Q 682 568 730 578 Q 761 585 770 572 Q 777 566 769 531 Q 762 497 750 455 C 742 426 797 427 805 456 Z" />
      </clipPath>
      <path clip-path="url(#make-me-a-hanzi-clip-9)" d="M 605 574 L 617 567 L 754 604 L 791 601 L 813 578 L 784 481 L 757 462" fill="none" id="make-me-a-hanzi-animation-9" stroke-dasharray="487 974" stroke-linecap="round" />
    
      <clipPath id="make-me-a-hanzi-clip-10">
        <path d="M 703 411 Q 749 418 818 426 Q 827 427 828 434 Q 828 441 805 456 C 792 465 779 462 750 455 L 623 426 C 594 419 594 394 624 397 Q 628 397 633 398 Q 645 401 663 404 L 703 411 Z" />
      </clipPath>
      <path clip-path="url(#make-me-a-hanzi-clip-10)" d="M 628 404 L 647 417 L 718 431 L 798 441 L 819 435" fill="none" id="make-me-a-hanzi-animation-10" stroke-dasharray="326 652" stroke-linecap="round" />
    
      <clipPath id="make-me-a-hanzi-clip-11">
        <path d="M 721 97 Q 724 190 727 267 L 728 299 Q 728 335 732 363 Q 739 387 703 411 C 679 429 648 430 663 404 Q 678 380 678 349 Q 679 324 679 121 C 679 91 720 67 721 97 Z" />
      </clipPath>
      <path clip-path="url(#make-me-a-hanzi-clip-11)" d="M 671 400 L 698 385 L 705 371 L 699 136 L 719 105" fill="none" id="make-me-a-hanzi-animation-11" stroke-dasharray="447 894" stroke-linecap="round" />
    
      <clipPath id="make-me-a-hanzi-clip-12">
        <path d="M 727 267 Q 766 267 855 296 Q 856 297 857 297 Q 864 304 859 311 Q 852 320 829 324 Q 814 325 748 304 Q 736 303 728 299 C 700 287 697 266 727 267 Z" />
      </clipPath>
      <path clip-path="url(#make-me-a-hanzi-clip-12)" d="M 731 272 L 745 286 L 832 307 L 852 305" fill="none" id="make-me-a-hanzi-animation-12" stroke-dasharray="257 514" stroke-linecap="round" />
    
      <clipPath id="make-me-a-hanzi-clip-13">
        <path d="M 479 58 Q 522 74 574 161 L 584 182 Q 584 183 585 183 Q 601 217 617 246 Q 624 256 612 267 Q 575 289 556 284 Q 549 281 551 270 Q 569 195 484 85 Q 481 82 480 79 C 463 54 460 50 479 58 Z" />
      </clipPath>
      <path clip-path="url(#make-me-a-hanzi-clip-13)" d="M 562 274 L 584 248 L 570 199 L 534 127 L 483 63" fill="none" id="make-me-a-hanzi-animation-13" stroke-dasharray="375 750" stroke-linecap="round" />
    
      <clipPath id="make-me-a-hanzi-clip-14">
        <path d="M 574 161 Q 664 71 793 -30 Q 815 -45 842 -37 Q 938 -12 967 0 Q 976 4 976 9 Q 975 12 875 36 Q 865 39 855 41 Q 810 45 721 97 L 679 121 L 588 180 Q 587 181 584 182 C 558 197 553 182 574 161 Z" />
      </clipPath>
      <path clip-path="url(#make-me-a-hanzi-clip-14)" d="M 583 176 L 590 163 L 689 86 L 821 4 L 969 6" fill="none" id="make-me-a-hanzi-animation-14" stroke-dasharray="572 1144" stroke-linecap="round" />
    
  </g>
</svg>