<svg xmlns="http://www.w3.org/2000/svg" version="1.1" viewBox="0 0 1024 1024">
  <g stroke="lightgray" stroke-dasharray="1,1" stroke-width="1" transform="scale(4, 4)">
    <line x1="0" y1="0" x2="256" y2="256" />
    <line x1="256" y1="0" x2="0" y2="256" />
    <line x1="128" y1="0" x2="128" y2="256" />
    <line x1="0" y1="128" x2="256" y2="128" />
  </g>
  <g transform="scale(1.0, -1.0) translate(0.0, -836.50)">
    <style type="text/css">
      
        @keyframes keyframes0 {
          from {
            stroke: blue;
            stroke-dashoffset: 501;
            stroke-width: 128;
          }
          62% {
            animation-timing-function: step-end;
            stroke: blue;
            stroke-dashoffset: 0;
            stroke-width: 128;
          }
          to {
            stroke: black;
            stroke-width: 1024;
          }
        }
        #make-me-a-hanzi-animation-0 {
          animation: keyframes0 0.65771484375s both;
          animation-delay: 0s;
          animation-timing-function: linear;
        }
      
        @keyframes keyframes1 {
          from {
            stroke: blue;
            stroke-dashoffset: 382;
            stroke-width: 128;
          }
          55% {
            animation-timing-function: step-end;
            stroke: blue;
            stroke-dashoffset: 0;
            stroke-width: 128;
          }
          to {
            stroke: black;
            stroke-width: 1024;
          }
        }
        #make-me-a-hanzi-animation-1 {
          animation: keyframes1 0.5608723958333334s both;
          animation-delay: 0.65771484375s;
          animation-timing-function: linear;
        }
      
        @keyframes keyframes2 {
          from {
            stroke: blue;
            stroke-dashoffset: 424;
            stroke-width: 128;
          }
          58% {
            animation-timing-function: step-end;
            stroke: blue;
            stroke-dashoffset: 0;
            stroke-width: 128;
          }
          to {
            stroke: black;
            stroke-width: 1024;
          }
        }
        #make-me-a-hanzi-animation-2 {
          animation: keyframes2 0.5950520833333334s both;
          animation-delay: 1.2185872395833335s;
          animation-timing-function: linear;
        }
      
        @keyframes keyframes3 {
          from {
            stroke: blue;
            stroke-dashoffset: 674;
            stroke-width: 128;
          }
          69% {
            animation-timing-function: step-end;
            stroke: blue;
            stroke-dashoffset: 0;
            stroke-width: 128;
          }
          to {
            stroke: black;
            stroke-width: 1024;
          }
        }
        #make-me-a-hanzi-animation-3 {
          animation: keyframes3 0.7985026041666666s both;
          animation-delay: 1.813639322916667s;
          animation-timing-function: linear;
        }
      
        @keyframes keyframes4 {
          from {
            stroke: blue;
            stroke-dashoffset: 523;
            stroke-width: 128;
          }
          63% {
            animation-timing-function: step-end;
            stroke: blue;
            stroke-dashoffset: 0;
            stroke-width: 128;
          }
          to {
            stroke: black;
            stroke-width: 1024;
          }
        }
        #make-me-a-hanzi-animation-4 {
          animation: keyframes4 0.6756184895833334s both;
          animation-delay: 2.6121419270833335s;
          animation-timing-function: linear;
        }
      
        @keyframes keyframes5 {
          from {
            stroke: blue;
            stroke-dashoffset: 359;
            stroke-width: 128;
          }
          54% {
            animation-timing-function: step-end;
            stroke: blue;
            stroke-dashoffset: 0;
            stroke-width: 128;
          }
          to {
            stroke: black;
            stroke-width: 1024;
          }
        }
        #make-me-a-hanzi-animation-5 {
          animation: keyframes5 0.5421549479166666s both;
          animation-delay: 3.287760416666667s;
          animation-timing-function: linear;
        }
      
        @keyframes keyframes6 {
          from {
            stroke: blue;
            stroke-dashoffset: 791;
            stroke-width: 128;
          }
          72% {
            animation-timing-function: step-end;
            stroke: blue;
            stroke-dashoffset: 0;
            stroke-width: 128;
          }
          to {
            stroke: black;
            stroke-width: 1024;
          }
        }
        #make-me-a-hanzi-animation-6 {
          animation: keyframes6 0.8937174479166666s both;
          animation-delay: 3.8299153645833335s;
          animation-timing-function: linear;
        }
      
        @keyframes keyframes7 {
          from {
            stroke: blue;
            stroke-dashoffset: 540;
            stroke-width: 128;
          }
          64% {
            animation-timing-function: step-end;
            stroke: blue;
            stroke-dashoffset: 0;
            stroke-width: 128;
          }
          to {
            stroke: black;
            stroke-width: 1024;
          }
        }
        #make-me-a-hanzi-animation-7 {
          animation: keyframes7 0.689453125s both;
          animation-delay: 4.7236328125s;
          animation-timing-function: linear;
        }
      
        @keyframes keyframes8 {
          from {
            stroke: blue;
            stroke-dashoffset: 745;
            stroke-width: 128;
          }
          71% {
            animation-timing-function: step-end;
            stroke: blue;
            stroke-dashoffset: 0;
            stroke-width: 128;
          }
          to {
            stroke: black;
            stroke-width: 1024;
          }
        }
        #make-me-a-hanzi-animation-8 {
          animation: keyframes8 0.8562825520833334s both;
          animation-delay: 5.4130859375s;
          animation-timing-function: linear;
        }
      
        @keyframes keyframes9 {
          from {
            stroke: blue;
            stroke-dashoffset: 369;
            stroke-width: 128;
          }
          55% {
            animation-timing-function: step-end;
            stroke: blue;
            stroke-dashoffset: 0;
            stroke-width: 128;
          }
          to {
            stroke: black;
            stroke-width: 1024;
          }
        }
        #make-me-a-hanzi-animation-9 {
          animation: keyframes9 0.55029296875s both;
          animation-delay: 6.269368489583333s;
          animation-timing-function: linear;
        }
      
        @keyframes keyframes10 {
          from {
            stroke: blue;
            stroke-dashoffset: 372;
            stroke-width: 128;
          }
          55% {
            animation-timing-function: step-end;
            stroke: blue;
            stroke-dashoffset: 0;
            stroke-width: 128;
          }
          to {
            stroke: black;
            stroke-width: 1024;
          }
        }
        #make-me-a-hanzi-animation-10 {
          animation: keyframes10 0.552734375s both;
          animation-delay: 6.819661458333333s;
          animation-timing-function: linear;
        }
      
        @keyframes keyframes11 {
          from {
            stroke: blue;
            stroke-dashoffset: 1171;
            stroke-width: 128;
          }
          79% {
            animation-timing-function: step-end;
            stroke: blue;
            stroke-dashoffset: 0;
            stroke-width: 128;
          }
          to {
            stroke: black;
            stroke-width: 1024;
          }
        }
        #make-me-a-hanzi-animation-11 {
          animation: keyframes11 1.2029622395833333s both;
          animation-delay: 7.372395833333333s;
          animation-timing-function: linear;
        }
      
        @keyframes keyframes12 {
          from {
            stroke: blue;
            stroke-dashoffset: 453;
            stroke-width: 128;
          }
          60% {
            animation-timing-function: step-end;
            stroke: blue;
            stroke-dashoffset: 0;
            stroke-width: 128;
          }
          to {
            stroke: black;
            stroke-width: 1024;
          }
        }
        #make-me-a-hanzi-animation-12 {
          animation: keyframes12 0.61865234375s both;
          animation-delay: 8.575358072916666s;
          animation-timing-function: linear;
        }
      
        @keyframes keyframes13 {
          from {
            stroke: blue;
            stroke-dashoffset: 726;
            stroke-width: 128;
          }
          70% {
            animation-timing-function: step-end;
            stroke: blue;
            stroke-dashoffset: 0;
            stroke-width: 128;
          }
          to {
            stroke: black;
            stroke-width: 1024;
          }
        }
        #make-me-a-hanzi-animation-13 {
          animation: keyframes13 0.8408203125s both;
          animation-delay: 9.194010416666666s;
          animation-timing-function: linear;
        }
      
    </style>
    
      <path d="M 362 484 Q 365 536 368 582 L 369 611 Q 370 621 371 630 Q 371 636 380 678 Q 381 688 364 700 Q 333 715 311 718 Q 298 719 291 712 Q 284 705 292 693 Q 307 675 308 662 Q 321 577 325 474 C 326 444 360 454 362 484 Z" fill="lightgray" />
    
      <path d="M 368 582 Q 369 583 371 582 Q 404 579 491 607 L 492 607 Q 499 613 495 619 Q 489 628 467 632 Q 458 633 389 615 Q 379 614 369 611 C 340 603 338 583 368 582 Z" fill="lightgray" />
    
      <path d="M 249 455 Q 237 546 240 565 Q 240 584 227 594 Q 205 607 181 613 Q 168 616 161 610 Q 155 603 162 591 Q 183 564 214 446 C 222 417 253 425 249 455 Z" fill="lightgray" />
    
      <path d="M 214 446 Q 174 439 158 434 Q 112 424 71 419 Q 59 418 57 410 Q 54 400 68 391 Q 104 369 141 381 Q 297 439 471 470 Q 486 471 486 479 Q 487 491 470 498 Q 440 510 362 484 L 325 474 Q 282 464 249 455 L 214 446 Z" fill="lightgray" />
    
      <path d="M 328 281 Q 350 342 365 375 Q 372 387 357 396 Q 314 415 298 409 Q 289 405 294 394 Q 318 322 255 211 Q 248 208 227 166 Q 223 153 234 159 Q 270 171 317 258 L 328 281 Z" fill="lightgray" />
    
      <path d="M 317 258 Q 342 233 374 197 Q 384 184 394 180 Q 398 179 404 186 Q 413 195 405 223 Q 399 250 328 281 C 301 293 296 279 317 258 Z" fill="lightgray" />
    
      <path d="M 435 151 Q 303 129 206 91 Q 190 87 194 106 L 212 246 Q 216 271 207 285 Q 170 325 146 322 Q 136 318 143 298 Q 171 229 158 162 Q 148 98 121 70 Q 103 52 111 38 Q 123 22 140 12 Q 155 6 166 16 Q 200 58 375 102 Q 420 114 433 110 Q 434 111 436 111 C 466 112 465 156 435 151 Z" fill="lightgray" />
    
      <path d="M 436 111 Q 442 95 449 82 Q 456 69 467 79 Q 485 101 484 173 Q 490 300 498 318 Q 504 331 494 342 Q 478 355 449 368 Q 437 374 428 368 Q 421 364 424 353 Q 451 314 439 168 Q 436 161 435 151 L 436 111 Z" fill="lightgray" />
    
      <path d="M 708 411 Q 709 408 713 403 Q 735 369 759 397 Q 778 418 780 439 Q 787 499 796 564 Q 800 616 824 651 Q 837 670 823 686 Q 804 702 771 720 Q 755 727 738 720 Q 665 686 582 665 C 553 657 574 622 600 636 Q 648 663 695 673 Q 725 682 740 676 Q 750 669 747 635 Q 726 445 713 435 C 705 416 705 416 708 411 Z" fill="lightgray" />
    
      <path d="M 594 507 Q 595 510 696 539 Q 717 546 706 557 Q 694 569 670 568 Q 628 567 593 537 C 570 518 567 493 594 507 Z" fill="lightgray" />
    
      <path d="M 597 387 Q 618 397 708 411 C 738 416 739 421 713 435 Q 683 453 616 425 Q 606 424 597 419 C 570 406 569 375 597 387 Z" fill="lightgray" />
    
      <path d="M 597 355 L 597 387 L 597 419 Q 596 465 594 507 L 593 537 Q 593 588 600 636 C 602 652 602 652 582 665 Q 566 678 550 685 Q 532 692 524 686 Q 514 680 523 666 Q 583 548 544 63 Q 538 33 517 -2 Q 498 -32 541 -71 L 543 -72 Q 556 -78 566 -61 Q 573 -30 685 117 Q 700 133 701 143 Q 702 153 694 150 Q 682 147 590 62 Q 593 61 590 58 Q 597 203 597 328 L 597 355 Z" fill="lightgray" />
    
      <path d="M 725 235 Q 729 234 737 238 Q 828 311 874 339 Q 890 343 886 354 Q 880 369 862 386 Q 843 402 822 404 Q 809 403 810 385 Q 814 361 723 248 Q 720 244 720 240 C 718 234 718 234 725 235 Z" fill="lightgray" />
    
      <path d="M 720 240 Q 675 283 623 340 Q 613 355 598 356 Q 597 356 597 355 C 568 361 575 348 597 328 Q 615 313 628 293 Q 793 64 821 55 Q 891 55 951 69 Q 964 70 970 78 Q 974 84 964 88 Q 811 154 725 235 L 720 240 Z" fill="lightgray" />
    
    
      <clipPath id="make-me-a-hanzi-clip-0">
        <path d="M 362 484 Q 365 536 368 582 L 369 611 Q 370 621 371 630 Q 371 636 380 678 Q 381 688 364 700 Q 333 715 311 718 Q 298 719 291 712 Q 284 705 292 693 Q 307 675 308 662 Q 321 577 325 474 C 326 444 360 454 362 484 Z" />
      </clipPath>
      <path clip-path="url(#make-me-a-hanzi-clip-0)" d="M 302 703 L 342 671 L 344 507 L 340 493 L 329 483" fill="none" id="make-me-a-hanzi-animation-0" stroke-dasharray="373 746" stroke-linecap="round" />
    
      <clipPath id="make-me-a-hanzi-clip-1">
        <path d="M 368 582 Q 369 583 371 582 Q 404 579 491 607 L 492 607 Q 499 613 495 619 Q 489 628 467 632 Q 458 633 389 615 Q 379 614 369 611 C 340 603 338 583 368 582 Z" />
      </clipPath>
      <path clip-path="url(#make-me-a-hanzi-clip-1)" d="M 370 589 L 428 609 L 472 617 L 492 614" fill="none" id="make-me-a-hanzi-animation-1" stroke-dasharray="254 508" stroke-linecap="round" />
    
      <clipPath id="make-me-a-hanzi-clip-2">
        <path d="M 249 455 Q 237 546 240 565 Q 240 584 227 594 Q 205 607 181 613 Q 168 616 161 610 Q 155 603 162 591 Q 183 564 214 446 C 222 417 253 425 249 455 Z" />
      </clipPath>
      <path clip-path="url(#make-me-a-hanzi-clip-2)" d="M 169 603 L 209 568 L 227 468 L 217 459" fill="none" id="make-me-a-hanzi-animation-2" stroke-dasharray="296 592" stroke-linecap="round" />
    
      <clipPath id="make-me-a-hanzi-clip-3">
        <path d="M 214 446 Q 174 439 158 434 Q 112 424 71 419 Q 59 418 57 410 Q 54 400 68 391 Q 104 369 141 381 Q 297 439 471 470 Q 486 471 486 479 Q 487 491 470 498 Q 440 510 362 484 L 325 474 Q 282 464 249 455 L 214 446 Z" />
      </clipPath>
      <path clip-path="url(#make-me-a-hanzi-clip-3)" d="M 68 407 L 118 401 L 378 471 L 453 485 L 475 481" fill="none" id="make-me-a-hanzi-animation-3" stroke-dasharray="546 1092" stroke-linecap="round" />
    
      <clipPath id="make-me-a-hanzi-clip-4">
        <path d="M 328 281 Q 350 342 365 375 Q 372 387 357 396 Q 314 415 298 409 Q 289 405 294 394 Q 318 322 255 211 Q 248 208 227 166 Q 223 153 234 159 Q 270 171 317 258 L 328 281 Z" />
      </clipPath>
      <path clip-path="url(#make-me-a-hanzi-clip-4)" d="M 304 399 L 330 371 L 313 296 L 280 223 L 235 167" fill="none" id="make-me-a-hanzi-animation-4" stroke-dasharray="395 790" stroke-linecap="round" />
    
      <clipPath id="make-me-a-hanzi-clip-5">
        <path d="M 317 258 Q 342 233 374 197 Q 384 184 394 180 Q 398 179 404 186 Q 413 195 405 223 Q 399 250 328 281 C 301 293 296 279 317 258 Z" />
      </clipPath>
      <path clip-path="url(#make-me-a-hanzi-clip-5)" d="M 335 271 L 336 261 L 381 222 L 394 191" fill="none" id="make-me-a-hanzi-animation-5" stroke-dasharray="231 462" stroke-linecap="round" />
    
      <clipPath id="make-me-a-hanzi-clip-6">
        <path d="M 435 151 Q 303 129 206 91 Q 190 87 194 106 L 212 246 Q 216 271 207 285 Q 170 325 146 322 Q 136 318 143 298 Q 171 229 158 162 Q 148 98 121 70 Q 103 52 111 38 Q 123 22 140 12 Q 155 6 166 16 Q 200 58 375 102 Q 420 114 433 110 Q 434 111 436 111 C 466 112 465 156 435 151 Z" />
      </clipPath>
      <path clip-path="url(#make-me-a-hanzi-clip-6)" d="M 151 313 L 181 273 L 186 241 L 167 67 L 214 71 L 287 99 L 395 126 L 417 129 L 432 118" fill="none" id="make-me-a-hanzi-animation-6" stroke-dasharray="663 1326" stroke-linecap="round" />
    
      <clipPath id="make-me-a-hanzi-clip-7">
        <path d="M 436 111 Q 442 95 449 82 Q 456 69 467 79 Q 485 101 484 173 Q 490 300 498 318 Q 504 331 494 342 Q 478 355 449 368 Q 437 374 428 368 Q 421 364 424 353 Q 451 314 439 168 Q 436 161 435 151 L 436 111 Z" />
      </clipPath>
      <path clip-path="url(#make-me-a-hanzi-clip-7)" d="M 437 358 L 467 323 L 459 85" fill="none" id="make-me-a-hanzi-animation-7" stroke-dasharray="412 824" stroke-linecap="round" />
    
      <clipPath id="make-me-a-hanzi-clip-8">
        <path d="M 708 411 Q 709 408 713 403 Q 735 369 759 397 Q 778 418 780 439 Q 787 499 796 564 Q 800 616 824 651 Q 837 670 823 686 Q 804 702 771 720 Q 755 727 738 720 Q 665 686 582 665 C 553 657 574 622 600 636 Q 648 663 695 673 Q 725 682 740 676 Q 750 669 747 635 Q 726 445 713 435 C 705 416 705 416 708 411 Z" />
      </clipPath>
      <path clip-path="url(#make-me-a-hanzi-clip-8)" d="M 590 664 L 601 657 L 615 658 L 710 693 L 750 699 L 767 689 L 784 668 L 748 436 L 738 416 L 722 414" fill="none" id="make-me-a-hanzi-animation-8" stroke-dasharray="617 1234" stroke-linecap="round" />
    
      <clipPath id="make-me-a-hanzi-clip-9">
        <path d="M 594 507 Q 595 510 696 539 Q 717 546 706 557 Q 694 569 670 568 Q 628 567 593 537 C 570 518 567 493 594 507 Z" />
      </clipPath>
      <path clip-path="url(#make-me-a-hanzi-clip-9)" d="M 597 516 L 608 530 L 642 544 L 686 552 L 699 549" fill="none" id="make-me-a-hanzi-animation-9" stroke-dasharray="241 482" stroke-linecap="round" />
    
      <clipPath id="make-me-a-hanzi-clip-10">
        <path d="M 597 387 Q 618 397 708 411 C 738 416 739 421 713 435 Q 683 453 616 425 Q 606 424 597 419 C 570 406 569 375 597 387 Z" />
      </clipPath>
      <path clip-path="url(#make-me-a-hanzi-clip-10)" d="M 599 392 L 613 408 L 630 415 L 705 430" fill="none" id="make-me-a-hanzi-animation-10" stroke-dasharray="244 488" stroke-linecap="round" />
    
      <clipPath id="make-me-a-hanzi-clip-11">
        <path d="M 597 355 L 597 387 L 597 419 Q 596 465 594 507 L 593 537 Q 593 588 600 636 C 602 652 602 652 582 665 Q 566 678 550 685 Q 532 692 524 686 Q 514 680 523 666 Q 583 548 544 63 Q 538 33 517 -2 Q 498 -32 541 -71 L 543 -72 Q 556 -78 566 -61 Q 573 -30 685 117 Q 700 133 701 143 Q 702 153 694 150 Q 682 147 590 62 Q 593 61 590 58 Q 597 203 597 328 L 597 355 Z" />
      </clipPath>
      <path clip-path="url(#make-me-a-hanzi-clip-11)" d="M 531 676 L 554 656 L 566 635 L 573 559 L 578 291 L 566 74 L 603 68 L 610 60 L 567 60 L 568 35 L 575 25 L 608 46 L 695 144" fill="none" id="make-me-a-hanzi-animation-11" stroke-dasharray="1043 2086" stroke-linecap="round" />
    
      <clipPath id="make-me-a-hanzi-clip-12">
        <path d="M 725 235 Q 729 234 737 238 Q 828 311 874 339 Q 890 343 886 354 Q 880 369 862 386 Q 843 402 822 404 Q 809 403 810 385 Q 814 361 723 248 Q 720 244 720 240 C 718 234 718 234 725 235 Z" />
      </clipPath>
      <path clip-path="url(#make-me-a-hanzi-clip-12)" d="M 875 351 L 838 357 L 727 242" fill="none" id="make-me-a-hanzi-animation-12" stroke-dasharray="325 650" stroke-linecap="round" />
    
      <clipPath id="make-me-a-hanzi-clip-13">
        <path d="M 720 240 Q 675 283 623 340 Q 613 355 598 356 Q 597 356 597 355 C 568 361 575 348 597 328 Q 615 313 628 293 Q 793 64 821 55 Q 891 55 951 69 Q 964 70 970 78 Q 974 84 964 88 Q 811 154 725 235 L 720 240 Z" />
      </clipPath>
      <path clip-path="url(#make-me-a-hanzi-clip-13)" d="M 603 350 L 646 289 L 727 198 L 827 107 L 885 89 L 962 80" fill="none" id="make-me-a-hanzi-animation-13" stroke-dasharray="598 1196" stroke-linecap="round" />
    
  </g>
</svg>