<svg xmlns="http://www.w3.org/2000/svg" version="1.1" viewBox="0 0 1024 1024">
  <g stroke="lightgray" stroke-dasharray="1,1" stroke-width="1" transform="scale(4, 4)">
    <line x1="0" y1="0" x2="256" y2="256" />
    <line x1="256" y1="0" x2="0" y2="256" />
    <line x1="128" y1="0" x2="128" y2="256" />
    <line x1="0" y1="128" x2="256" y2="128" />
  </g>
  <g transform="scale(1.0, -1.0) translate(0.0, -838.00)">
    <style type="text/css">
      
        @keyframes keyframes0 {
          from {
            stroke: blue;
            stroke-dashoffset: 537;
            stroke-width: 128;
          }
          64% {
            animation-timing-function: step-end;
            stroke: blue;
            stroke-dashoffset: 0;
            stroke-width: 128;
          }
          to {
            stroke: black;
            stroke-width: 1024;
          }
        }
        #make-me-a-hanzi-animation-0 {
          animation: keyframes0 0.68701171875s both;
          animation-delay: 0s;
          animation-timing-function: linear;
        }
      
        @keyframes keyframes1 {
          from {
            stroke: blue;
            stroke-dashoffset: 393;
            stroke-width: 128;
          }
          56% {
            animation-timing-function: step-end;
            stroke: blue;
            stroke-dashoffset: 0;
            stroke-width: 128;
          }
          to {
            stroke: black;
            stroke-width: 1024;
          }
        }
        #make-me-a-hanzi-animation-1 {
          animation: keyframes1 0.56982421875s both;
          animation-delay: 0.68701171875s;
          animation-timing-function: linear;
        }
      
        @keyframes keyframes2 {
          from {
            stroke: blue;
            stroke-dashoffset: 423;
            stroke-width: 128;
          }
          58% {
            animation-timing-function: step-end;
            stroke: blue;
            stroke-dashoffset: 0;
            stroke-width: 128;
          }
          to {
            stroke: black;
            stroke-width: 1024;
          }
        }
        #make-me-a-hanzi-animation-2 {
          animation: keyframes2 0.59423828125s both;
          animation-delay: 1.2568359375s;
          animation-timing-function: linear;
        }
      
        @keyframes keyframes3 {
          from {
            stroke: blue;
            stroke-dashoffset: 679;
            stroke-width: 128;
          }
          69% {
            animation-timing-function: step-end;
            stroke: blue;
            stroke-dashoffset: 0;
            stroke-width: 128;
          }
          to {
            stroke: black;
            stroke-width: 1024;
          }
        }
        #make-me-a-hanzi-animation-3 {
          animation: keyframes3 0.8025716145833334s both;
          animation-delay: 1.85107421875s;
          animation-timing-function: linear;
        }
      
        @keyframes keyframes4 {
          from {
            stroke: blue;
            stroke-dashoffset: 581;
            stroke-width: 128;
          }
          65% {
            animation-timing-function: step-end;
            stroke: blue;
            stroke-dashoffset: 0;
            stroke-width: 128;
          }
          to {
            stroke: black;
            stroke-width: 1024;
          }
        }
        #make-me-a-hanzi-animation-4 {
          animation: keyframes4 0.7228190104166666s both;
          animation-delay: 2.6536458333333335s;
          animation-timing-function: linear;
        }
      
        @keyframes keyframes5 {
          from {
            stroke: blue;
            stroke-dashoffset: 348;
            stroke-width: 128;
          }
          53% {
            animation-timing-function: step-end;
            stroke: blue;
            stroke-dashoffset: 0;
            stroke-width: 128;
          }
          to {
            stroke: black;
            stroke-width: 1024;
          }
        }
        #make-me-a-hanzi-animation-5 {
          animation: keyframes5 0.533203125s both;
          animation-delay: 3.37646484375s;
          animation-timing-function: linear;
        }
      
        @keyframes keyframes6 {
          from {
            stroke: blue;
            stroke-dashoffset: 795;
            stroke-width: 128;
          }
          72% {
            animation-timing-function: step-end;
            stroke: blue;
            stroke-dashoffset: 0;
            stroke-width: 128;
          }
          to {
            stroke: black;
            stroke-width: 1024;
          }
        }
        #make-me-a-hanzi-animation-6 {
          animation: keyframes6 0.89697265625s both;
          animation-delay: 3.90966796875s;
          animation-timing-function: linear;
        }
      
        @keyframes keyframes7 {
          from {
            stroke: blue;
            stroke-dashoffset: 517;
            stroke-width: 128;
          }
          63% {
            animation-timing-function: step-end;
            stroke: blue;
            stroke-dashoffset: 0;
            stroke-width: 128;
          }
          to {
            stroke: black;
            stroke-width: 1024;
          }
        }
        #make-me-a-hanzi-animation-7 {
          animation: keyframes7 0.6707356770833334s both;
          animation-delay: 4.806640625s;
          animation-timing-function: linear;
        }
      
        @keyframes keyframes8 {
          from {
            stroke: blue;
            stroke-dashoffset: 554;
            stroke-width: 128;
          }
          64% {
            animation-timing-function: step-end;
            stroke: blue;
            stroke-dashoffset: 0;
            stroke-width: 128;
          }
          to {
            stroke: black;
            stroke-width: 1024;
          }
        }
        #make-me-a-hanzi-animation-8 {
          animation: keyframes8 0.7008463541666666s both;
          animation-delay: 5.477376302083333s;
          animation-timing-function: linear;
        }
      
        @keyframes keyframes9 {
          from {
            stroke: blue;
            stroke-dashoffset: 437;
            stroke-width: 128;
          }
          59% {
            animation-timing-function: step-end;
            stroke: blue;
            stroke-dashoffset: 0;
            stroke-width: 128;
          }
          to {
            stroke: black;
            stroke-width: 1024;
          }
        }
        #make-me-a-hanzi-animation-9 {
          animation: keyframes9 0.6056315104166666s both;
          animation-delay: 6.17822265625s;
          animation-timing-function: linear;
        }
      
        @keyframes keyframes10 {
          from {
            stroke: blue;
            stroke-dashoffset: 624;
            stroke-width: 128;
          }
          67% {
            animation-timing-function: step-end;
            stroke: blue;
            stroke-dashoffset: 0;
            stroke-width: 128;
          }
          to {
            stroke: black;
            stroke-width: 1024;
          }
        }
        #make-me-a-hanzi-animation-10 {
          animation: keyframes10 0.7578125s both;
          animation-delay: 6.783854166666667s;
          animation-timing-function: linear;
        }
      
        @keyframes keyframes11 {
          from {
            stroke: blue;
            stroke-dashoffset: 501;
            stroke-width: 128;
          }
          62% {
            animation-timing-function: step-end;
            stroke: blue;
            stroke-dashoffset: 0;
            stroke-width: 128;
          }
          to {
            stroke: black;
            stroke-width: 1024;
          }
        }
        #make-me-a-hanzi-animation-11 {
          animation: keyframes11 0.65771484375s both;
          animation-delay: 7.541666666666667s;
          animation-timing-function: linear;
        }
      
        @keyframes keyframes12 {
          from {
            stroke: blue;
            stroke-dashoffset: 503;
            stroke-width: 128;
          }
          62% {
            animation-timing-function: step-end;
            stroke: blue;
            stroke-dashoffset: 0;
            stroke-width: 128;
          }
          to {
            stroke: black;
            stroke-width: 1024;
          }
        }
        #make-me-a-hanzi-animation-12 {
          animation: keyframes12 0.6593424479166666s both;
          animation-delay: 8.199381510416668s;
          animation-timing-function: linear;
        }
      
        @keyframes keyframes13 {
          from {
            stroke: blue;
            stroke-dashoffset: 963;
            stroke-width: 128;
          }
          76% {
            animation-timing-function: step-end;
            stroke: blue;
            stroke-dashoffset: 0;
            stroke-width: 128;
          }
          to {
            stroke: black;
            stroke-width: 1024;
          }
        }
        #make-me-a-hanzi-animation-13 {
          animation: keyframes13 1.03369140625s both;
          animation-delay: 8.858723958333334s;
          animation-timing-function: linear;
        }
      
        @keyframes keyframes14 {
          from {
            stroke: blue;
            stroke-dashoffset: 730;
            stroke-width: 128;
          }
          70% {
            animation-timing-function: step-end;
            stroke: blue;
            stroke-dashoffset: 0;
            stroke-width: 128;
          }
          to {
            stroke: black;
            stroke-width: 1024;
          }
        }
        #make-me-a-hanzi-animation-14 {
          animation: keyframes14 0.8440755208333334s both;
          animation-delay: 9.892415364583334s;
          animation-timing-function: linear;
        }
      
        @keyframes keyframes15 {
          from {
            stroke: blue;
            stroke-dashoffset: 449;
            stroke-width: 128;
          }
          59% {
            animation-timing-function: step-end;
            stroke: blue;
            stroke-dashoffset: 0;
            stroke-width: 128;
          }
          to {
            stroke: black;
            stroke-width: 1024;
          }
        }
        #make-me-a-hanzi-animation-15 {
          animation: keyframes15 0.6153971354166666s both;
          animation-delay: 10.736490885416668s;
          animation-timing-function: linear;
        }
      
        @keyframes keyframes16 {
          from {
            stroke: blue;
            stroke-dashoffset: 369;
            stroke-width: 128;
          }
          55% {
            animation-timing-function: step-end;
            stroke: blue;
            stroke-dashoffset: 0;
            stroke-width: 128;
          }
          to {
            stroke: black;
            stroke-width: 1024;
          }
        }
        #make-me-a-hanzi-animation-16 {
          animation: keyframes16 0.55029296875s both;
          animation-delay: 11.351888020833334s;
          animation-timing-function: linear;
        }
      
    </style>
    
      <path d="M 349 457 L 355 568 L 356 597 Q 356 616 368 689 Q 371 698 354 709 Q 326 724 306 727 Q 293 728 286 722 Q 280 715 287 704 Q 303 682 305 667 Q 315 567 315 449 C 315 419 347 427 349 457 Z" fill="lightgray" />
    
      <path d="M 355 568 Q 410 568 495 596 Q 496 597 497 597 Q 504 604 499 611 Q 492 620 469 624 Q 454 625 388 604 Q 373 601 356 597 C 327 590 325 568 355 568 Z" fill="lightgray" />
    
      <path d="M 244 431 Q 231 527 234 543 Q 234 562 221 571 Q 202 584 178 589 Q 166 592 159 586 Q 153 580 160 569 Q 184 535 210 423 C 217 394 248 401 244 431 Z" fill="lightgray" />
    
      <path d="M 210 423 Q 182 419 170 416 Q 124 406 83 401 Q 73 400 69 393 Q 68 384 80 375 Q 116 351 149 364 Q 314 424 483 451 Q 498 454 498 460 Q 499 470 483 478 Q 458 490 349 457 L 315 449 L 244 431 L 210 423 Z" fill="lightgray" />
    
      <path d="M 308 244 Q 323 289 352 355 Q 358 367 345 376 Q 303 395 288 389 Q 279 386 283 375 Q 313 272 211 134 Q 195 113 187 98 Q 183 85 194 90 Q 249 115 302 230 L 308 244 Z" fill="lightgray" />
    
      <path d="M 302 230 Q 305 223 357 177 Q 370 165 382 165 Q 392 165 396 178 Q 397 188 389 203 Q 370 230 309 244 Q 308 245 308 244 C 291 247 291 247 302 230 Z" fill="lightgray" />
    
      <path d="M 418 121 Q 277 94 173 55 Q 155 51 159 72 Q 162 141 166 214 Q 167 236 158 248 Q 143 263 121 274 Q 111 278 101 276 Q 91 272 99 255 Q 130 191 124 125 Q 120 62 96 34 Q 80 18 88 5 Q 98 -8 115 -18 Q 124 -21 144 -9 Q 183 33 361 77 Q 392 86 412 86 C 442 89 447 127 418 121 Z" fill="lightgray" />
    
      <path d="M 412 86 Q 416 64 425 47 Q 432 34 443 43 Q 462 61 466 116 Q 467 123 467 127 Q 467 133 468 135 Q 481 240 490 256 Q 497 269 488 280 Q 472 293 444 310 Q 434 316 423 310 Q 416 307 419 296 Q 447 254 419 124 Q 418 123 418 121 L 412 86 Z" fill="lightgray" />
    
      <path d="M 678 587 Q 810 639 815 640 Q 830 641 833 648 Q 836 658 825 667 Q 771 704 742 700 Q 735 696 735 686 Q 735 647 556 563 Q 552 554 557 552 Q 572 552 647 577 L 678 587 Z" fill="lightgray" />
    
      <path d="M 556 462 Q 546 466 531 467 Q 521 470 518 465 Q 514 459 521 447 Q 545 404 561 332 Q 565 311 578 297 Q 594 279 597 293 Q 600 302 599 317 L 596 344 Q 581 414 578 436 C 575 456 575 456 556 462 Z" fill="lightgray" />
    
      <path d="M 823 389 Q 842 446 865 458 Q 878 474 866 489 Q 797 537 750 510 Q 728 503 708 494 L 668 483 Q 613 471 556 462 C 526 457 548 431 578 436 Q 588 437 602 441 Q 633 448 668 455 L 708 464 Q 772 482 783 472 Q 790 468 789 454 Q 785 418 779 388 C 773 359 813 361 823 389 Z" fill="lightgray" />
    
      <path d="M 706 337 Q 760 347 838 357 Q 848 358 848 366 Q 848 373 823 389 C 812 397 808 396 779 388 L 707 369 L 668 359 Q 628 352 596 344 C 567 337 569 318 599 317 Q 606 316 617 318 Q 638 325 668 330 L 706 337 Z" fill="lightgray" />
    
      <path d="M 531 227 Q 518 233 507 232 Q 497 228 501 220 Q 534 160 505 51 Q 487 24 509 -14 Q 510 -18 515 -22 Q 521 -32 529 -28 Q 553 -9 553 59 Q 554 171 557 194 L 557 198 C 558 217 558 217 531 227 Z" fill="lightgray" />
    
      <path d="M 705 239 Q 759 249 824 254 Q 840 254 848 245 Q 854 239 850 228 Q 857 41 845 14 Q 842 7 833 9 Q 808 13 780 19 Q 758 20 774 6 Q 832 -34 856 -63 Q 868 -76 880 -65 Q 893 -49 900 -23 Q 907 4 898 149 Q 894 203 908 231 Q 920 247 914 253 Q 908 263 868 287 Q 853 297 808 280 Q 762 276 705 262 L 667 256 Q 618 249 594 241 Q 560 234 531 227 C 502 220 528 189 557 198 Q 633 223 667 231 L 705 239 Z" fill="lightgray" />
    
      <path d="M 704 120 Q 704 183 705 239 L 705 262 Q 705 301 706 337 L 707 369 Q 707 418 708 464 L 708 494 Q 708 498 709 500 Q 712 560 708 565 Q 692 580 678 587 C 652 603 636 605 647 577 Q 668 526 668 483 L 668 455 L 668 359 L 668 330 Q 667 297 667 256 L 667 231 Q 666 177 666 110 C 666 80 704 90 704 120 Z" fill="lightgray" />
    
      <path d="M 759 138 Q 732 131 704 120 L 666 110 Q 591 95 580 94 Q 571 93 570 86 Q 569 77 575 72 L 611 49 Q 618 46 626 52 Q 636 61 763 119 Q 766 120 769 122 C 796 135 788 146 759 138 Z" fill="lightgray" />
    
      <path d="M 769 122 Q 796 71 805 68 Q 812 67 818 73 Q 824 80 825 101 Q 826 131 761 177 Q 752 181 748 182 Q 744 181 742 173 Q 742 164 759 138 L 769 122 Z" fill="lightgray" />
    
    
      <clipPath id="make-me-a-hanzi-clip-0">
        <path d="M 349 457 L 355 568 L 356 597 Q 356 616 368 689 Q 371 698 354 709 Q 326 724 306 727 Q 293 728 286 722 Q 280 715 287 704 Q 303 682 305 667 Q 315 567 315 449 C 315 419 347 427 349 457 Z" />
      </clipPath>
      <path clip-path="url(#make-me-a-hanzi-clip-0)" d="M 295 714 L 335 681 L 333 482 L 332 471 L 319 457" fill="none" id="make-me-a-hanzi-animation-0" stroke-dasharray="409 818" stroke-linecap="round" />
    
      <clipPath id="make-me-a-hanzi-clip-1">
        <path d="M 355 568 Q 410 568 495 596 Q 496 597 497 597 Q 504 604 499 611 Q 492 620 469 624 Q 454 625 388 604 Q 373 601 356 597 C 327 590 325 568 355 568 Z" />
      </clipPath>
      <path clip-path="url(#make-me-a-hanzi-clip-1)" d="M 361 575 L 372 584 L 451 603 L 492 605" fill="none" id="make-me-a-hanzi-animation-1" stroke-dasharray="265 530" stroke-linecap="round" />
    
      <clipPath id="make-me-a-hanzi-clip-2">
        <path d="M 244 431 Q 231 527 234 543 Q 234 562 221 571 Q 202 584 178 589 Q 166 592 159 586 Q 153 580 160 569 Q 184 535 210 423 C 217 394 248 401 244 431 Z" />
      </clipPath>
      <path clip-path="url(#make-me-a-hanzi-clip-2)" d="M 167 579 L 204 547 L 223 444 L 213 435" fill="none" id="make-me-a-hanzi-animation-2" stroke-dasharray="295 590" stroke-linecap="round" />
    
      <clipPath id="make-me-a-hanzi-clip-3">
        <path d="M 210 423 Q 182 419 170 416 Q 124 406 83 401 Q 73 400 69 393 Q 68 384 80 375 Q 116 351 149 364 Q 314 424 483 451 Q 498 454 498 460 Q 499 470 483 478 Q 458 490 349 457 L 315 449 L 244 431 L 210 423 Z" />
      </clipPath>
      <path clip-path="url(#make-me-a-hanzi-clip-3)" d="M 77 390 L 128 383 L 387 452 L 452 464 L 489 462" fill="none" id="make-me-a-hanzi-animation-3" stroke-dasharray="551 1102" stroke-linecap="round" />
    
      <clipPath id="make-me-a-hanzi-clip-4">
        <path d="M 308 244 Q 323 289 352 355 Q 358 367 345 376 Q 303 395 288 389 Q 279 386 283 375 Q 313 272 211 134 Q 195 113 187 98 Q 183 85 194 90 Q 249 115 302 230 L 308 244 Z" />
      </clipPath>
      <path clip-path="url(#make-me-a-hanzi-clip-4)" d="M 294 379 L 319 354 L 291 243 L 250 164 L 195 98" fill="none" id="make-me-a-hanzi-animation-4" stroke-dasharray="453 906" stroke-linecap="round" />
    
      <clipPath id="make-me-a-hanzi-clip-5">
        <path d="M 302 230 Q 305 223 357 177 Q 370 165 382 165 Q 392 165 396 178 Q 397 188 389 203 Q 370 230 309 244 Q 308 245 308 244 C 291 247 291 247 302 230 Z" />
      </clipPath>
      <path clip-path="url(#make-me-a-hanzi-clip-5)" d="M 309 236 L 355 206 L 381 180" fill="none" id="make-me-a-hanzi-animation-5" stroke-dasharray="220 440" stroke-linecap="round" />
    
      <clipPath id="make-me-a-hanzi-clip-6">
        <path d="M 418 121 Q 277 94 173 55 Q 155 51 159 72 Q 162 141 166 214 Q 167 236 158 248 Q 143 263 121 274 Q 111 278 101 276 Q 91 272 99 255 Q 130 191 124 125 Q 120 62 96 34 Q 80 18 88 5 Q 98 -8 115 -18 Q 124 -21 144 -9 Q 183 33 361 77 Q 392 86 412 86 C 442 89 447 127 418 121 Z" />
      </clipPath>
      <path clip-path="url(#make-me-a-hanzi-clip-6)" d="M 107 266 L 136 234 L 141 220 L 145 159 L 136 31 L 171 34 L 253 65 L 398 101 L 410 116" fill="none" id="make-me-a-hanzi-animation-6" stroke-dasharray="667 1334" stroke-linecap="round" />
    
      <clipPath id="make-me-a-hanzi-clip-7">
        <path d="M 412 86 Q 416 64 425 47 Q 432 34 443 43 Q 462 61 466 116 Q 467 123 467 127 Q 467 133 468 135 Q 481 240 490 256 Q 497 269 488 280 Q 472 293 444 310 Q 434 316 423 310 Q 416 307 419 296 Q 447 254 419 124 Q 418 123 418 121 L 412 86 Z" />
      </clipPath>
      <path clip-path="url(#make-me-a-hanzi-clip-7)" d="M 432 300 L 460 263 L 435 50" fill="none" id="make-me-a-hanzi-animation-7" stroke-dasharray="389 778" stroke-linecap="round" />
    
      <clipPath id="make-me-a-hanzi-clip-8">
        <path d="M 678 587 Q 810 639 815 640 Q 830 641 833 648 Q 836 658 825 667 Q 771 704 742 700 Q 735 696 735 686 Q 735 647 556 563 Q 552 554 557 552 Q 572 552 647 577 L 678 587 Z" />
      </clipPath>
      <path clip-path="url(#make-me-a-hanzi-clip-8)" d="M 823 652 L 765 660 L 685 607 L 640 592 L 632 583 L 618 583 L 611 575 L 595 575 L 578 564 L 569 568 L 560 558" fill="none" id="make-me-a-hanzi-animation-8" stroke-dasharray="426 852" stroke-linecap="round" />
    
      <clipPath id="make-me-a-hanzi-clip-9">
        <path d="M 556 462 Q 546 466 531 467 Q 521 470 518 465 Q 514 459 521 447 Q 545 404 561 332 Q 565 311 578 297 Q 594 279 597 293 Q 600 302 599 317 L 596 344 Q 581 414 578 436 C 575 456 575 456 556 462 Z" />
      </clipPath>
      <path clip-path="url(#make-me-a-hanzi-clip-9)" d="M 525 460 L 545 445 L 556 426 L 588 296" fill="none" id="make-me-a-hanzi-animation-9" stroke-dasharray="309 618" stroke-linecap="round" />
    
      <clipPath id="make-me-a-hanzi-clip-10">
        <path d="M 823 389 Q 842 446 865 458 Q 878 474 866 489 Q 797 537 750 510 Q 728 503 708 494 L 668 483 Q 613 471 556 462 C 526 457 548 431 578 436 Q 588 437 602 441 Q 633 448 668 455 L 708 464 Q 772 482 783 472 Q 790 468 789 454 Q 785 418 779 388 C 773 359 813 361 823 389 Z" />
      </clipPath>
      <path clip-path="url(#make-me-a-hanzi-clip-10)" d="M 563 461 L 584 452 L 717 479 L 764 496 L 793 495 L 825 472 L 807 412 L 786 393" fill="none" id="make-me-a-hanzi-animation-10" stroke-dasharray="496 992" stroke-linecap="round" />
    
      <clipPath id="make-me-a-hanzi-clip-11">
        <path d="M 706 337 Q 760 347 838 357 Q 848 358 848 366 Q 848 373 823 389 C 812 397 808 396 779 388 L 707 369 L 668 359 Q 628 352 596 344 C 567 337 569 318 599 317 Q 606 316 617 318 Q 638 325 668 330 L 706 337 Z" />
      </clipPath>
      <path clip-path="url(#make-me-a-hanzi-clip-11)" d="M 603 324 L 647 342 L 787 370 L 821 372 L 840 365" fill="none" id="make-me-a-hanzi-animation-11" stroke-dasharray="373 746" stroke-linecap="round" />
    
      <clipPath id="make-me-a-hanzi-clip-12">
        <path d="M 531 227 Q 518 233 507 232 Q 497 228 501 220 Q 534 160 505 51 Q 487 24 509 -14 Q 510 -18 515 -22 Q 521 -32 529 -28 Q 553 -9 553 59 Q 554 171 557 194 L 557 198 C 558 217 558 217 531 227 Z" />
      </clipPath>
      <path clip-path="url(#make-me-a-hanzi-clip-12)" d="M 512 222 L 535 191 L 536 175 L 525 -17" fill="none" id="make-me-a-hanzi-animation-12" stroke-dasharray="375 750" stroke-linecap="round" />
    
      <clipPath id="make-me-a-hanzi-clip-13">
        <path d="M 705 239 Q 759 249 824 254 Q 840 254 848 245 Q 854 239 850 228 Q 857 41 845 14 Q 842 7 833 9 Q 808 13 780 19 Q 758 20 774 6 Q 832 -34 856 -63 Q 868 -76 880 -65 Q 893 -49 900 -23 Q 907 4 898 149 Q 894 203 908 231 Q 920 247 914 253 Q 908 263 868 287 Q 853 297 808 280 Q 762 276 705 262 L 667 256 Q 618 249 594 241 Q 560 234 531 227 C 502 220 528 189 557 198 Q 633 223 667 231 L 705 239 Z" />
      </clipPath>
      <path clip-path="url(#make-me-a-hanzi-clip-13)" d="M 538 224 L 565 218 L 659 244 L 822 271 L 865 263 L 881 243 L 873 191 L 878 50 L 872 -2 L 864 -18 L 856 -17 L 785 9" fill="none" id="make-me-a-hanzi-animation-13" stroke-dasharray="835 1670" stroke-linecap="round" />
    
      <clipPath id="make-me-a-hanzi-clip-14">
        <path d="M 704 120 Q 704 183 705 239 L 705 262 Q 705 301 706 337 L 707 369 Q 707 418 708 464 L 708 494 Q 708 498 709 500 Q 712 560 708 565 Q 692 580 678 587 C 652 603 636 605 647 577 Q 668 526 668 483 L 668 455 L 668 359 L 668 330 Q 667 297 667 256 L 667 231 Q 666 177 666 110 C 666 80 704 90 704 120 Z" />
      </clipPath>
      <path clip-path="url(#make-me-a-hanzi-clip-14)" d="M 654 572 L 679 559 L 689 512 L 686 143 L 671 118" fill="none" id="make-me-a-hanzi-animation-14" stroke-dasharray="602 1204" stroke-linecap="round" />
    
      <clipPath id="make-me-a-hanzi-clip-15">
        <path d="M 759 138 Q 732 131 704 120 L 666 110 Q 591 95 580 94 Q 571 93 570 86 Q 569 77 575 72 L 611 49 Q 618 46 626 52 Q 636 61 763 119 Q 766 120 769 122 C 796 135 788 146 759 138 Z" />
      </clipPath>
      <path clip-path="url(#make-me-a-hanzi-clip-15)" d="M 581 82 L 616 75 L 753 125 L 764 124" fill="none" id="make-me-a-hanzi-animation-15" stroke-dasharray="321 642" stroke-linecap="round" />
    
      <clipPath id="make-me-a-hanzi-clip-16">
        <path d="M 769 122 Q 796 71 805 68 Q 812 67 818 73 Q 824 80 825 101 Q 826 131 761 177 Q 752 181 748 182 Q 744 181 742 173 Q 742 164 759 138 L 769 122 Z" />
      </clipPath>
      <path clip-path="url(#make-me-a-hanzi-clip-16)" d="M 752 173 L 799 113 L 809 78" fill="none" id="make-me-a-hanzi-animation-16" stroke-dasharray="241 482" stroke-linecap="round" />
    
  </g>
</svg>