<svg xmlns="http://www.w3.org/2000/svg" version="1.1" viewBox="0 0 1024 1024">
  <g stroke="lightgray" stroke-dasharray="1,1" stroke-width="1" transform="scale(4, 4)">
    <line x1="0" y1="0" x2="256" y2="256" />
    <line x1="256" y1="0" x2="0" y2="256" />
    <line x1="128" y1="0" x2="128" y2="256" />
    <line x1="0" y1="128" x2="256" y2="128" />
  </g>
  <g transform="scale(1.0, -1.0) translate(0.0, -813.00)">
    <style type="text/css">
      
        @keyframes keyframes0 {
          from {
            stroke: blue;
            stroke-dashoffset: 325;
            stroke-width: 128;
          }
          51% {
            animation-timing-function: step-end;
            stroke: blue;
            stroke-dashoffset: 0;
            stroke-width: 128;
          }
          to {
            stroke: black;
            stroke-width: 1024;
          }
        }
        #make-me-a-hanzi-animation-0 {
          animation: keyframes0 0.5144856770833334s both;
          animation-delay: 0s;
          animation-timing-function: linear;
        }
      
        @keyframes keyframes1 {
          from {
            stroke: blue;
            stroke-dashoffset: 531;
            stroke-width: 128;
          }
          63% {
            animation-timing-function: step-end;
            stroke: blue;
            stroke-dashoffset: 0;
            stroke-width: 128;
          }
          to {
            stroke: black;
            stroke-width: 1024;
          }
        }
        #make-me-a-hanzi-animation-1 {
          animation: keyframes1 0.68212890625s both;
          animation-delay: 0.5144856770833334s;
          animation-timing-function: linear;
        }
      
        @keyframes keyframes2 {
          from {
            stroke: blue;
            stroke-dashoffset: 323;
            stroke-width: 128;
          }
          51% {
            animation-timing-function: step-end;
            stroke: blue;
            stroke-dashoffset: 0;
            stroke-width: 128;
          }
          to {
            stroke: black;
            stroke-width: 1024;
          }
        }
        #make-me-a-hanzi-animation-2 {
          animation: keyframes2 0.5128580729166666s both;
          animation-delay: 1.1966145833333335s;
          animation-timing-function: linear;
        }
      
        @keyframes keyframes3 {
          from {
            stroke: blue;
            stroke-dashoffset: 363;
            stroke-width: 128;
          }
          54% {
            animation-timing-function: step-end;
            stroke: blue;
            stroke-dashoffset: 0;
            stroke-width: 128;
          }
          to {
            stroke: black;
            stroke-width: 1024;
          }
        }
        #make-me-a-hanzi-animation-3 {
          animation: keyframes3 0.54541015625s both;
          animation-delay: 1.70947265625s;
          animation-timing-function: linear;
        }
      
        @keyframes keyframes4 {
          from {
            stroke: blue;
            stroke-dashoffset: 665;
            stroke-width: 128;
          }
          68% {
            animation-timing-function: step-end;
            stroke: blue;
            stroke-dashoffset: 0;
            stroke-width: 128;
          }
          to {
            stroke: black;
            stroke-width: 1024;
          }
        }
        #make-me-a-hanzi-animation-4 {
          animation: keyframes4 0.7911783854166666s both;
          animation-delay: 2.2548828125s;
          animation-timing-function: linear;
        }
      
        @keyframes keyframes5 {
          from {
            stroke: blue;
            stroke-dashoffset: 486;
            stroke-width: 128;
          }
          61% {
            animation-timing-function: step-end;
            stroke: blue;
            stroke-dashoffset: 0;
            stroke-width: 128;
          }
          to {
            stroke: black;
            stroke-width: 1024;
          }
        }
        #make-me-a-hanzi-animation-5 {
          animation: keyframes5 0.6455078125s both;
          animation-delay: 3.0460611979166665s;
          animation-timing-function: linear;
        }
      
        @keyframes keyframes6 {
          from {
            stroke: blue;
            stroke-dashoffset: 694;
            stroke-width: 128;
          }
          69% {
            animation-timing-function: step-end;
            stroke: blue;
            stroke-dashoffset: 0;
            stroke-width: 128;
          }
          to {
            stroke: black;
            stroke-width: 1024;
          }
        }
        #make-me-a-hanzi-animation-6 {
          animation: keyframes6 0.8147786458333334s both;
          animation-delay: 3.6915690104166665s;
          animation-timing-function: linear;
        }
      
        @keyframes keyframes7 {
          from {
            stroke: blue;
            stroke-dashoffset: 364;
            stroke-width: 128;
          }
          54% {
            animation-timing-function: step-end;
            stroke: blue;
            stroke-dashoffset: 0;
            stroke-width: 128;
          }
          to {
            stroke: black;
            stroke-width: 1024;
          }
        }
        #make-me-a-hanzi-animation-7 {
          animation: keyframes7 0.5462239583333334s both;
          animation-delay: 4.50634765625s;
          animation-timing-function: linear;
        }
      
        @keyframes keyframes8 {
          from {
            stroke: blue;
            stroke-dashoffset: 371;
            stroke-width: 128;
          }
          55% {
            animation-timing-function: step-end;
            stroke: blue;
            stroke-dashoffset: 0;
            stroke-width: 128;
          }
          to {
            stroke: black;
            stroke-width: 1024;
          }
        }
        #make-me-a-hanzi-animation-8 {
          animation: keyframes8 0.5519205729166666s both;
          animation-delay: 5.052571614583333s;
          animation-timing-function: linear;
        }
      
        @keyframes keyframes9 {
          from {
            stroke: blue;
            stroke-dashoffset: 393;
            stroke-width: 128;
          }
          56% {
            animation-timing-function: step-end;
            stroke: blue;
            stroke-dashoffset: 0;
            stroke-width: 128;
          }
          to {
            stroke: black;
            stroke-width: 1024;
          }
        }
        #make-me-a-hanzi-animation-9 {
          animation: keyframes9 0.56982421875s both;
          animation-delay: 5.6044921875s;
          animation-timing-function: linear;
        }
      
        @keyframes keyframes10 {
          from {
            stroke: blue;
            stroke-dashoffset: 626;
            stroke-width: 128;
          }
          67% {
            animation-timing-function: step-end;
            stroke: blue;
            stroke-dashoffset: 0;
            stroke-width: 128;
          }
          to {
            stroke: black;
            stroke-width: 1024;
          }
        }
        #make-me-a-hanzi-animation-10 {
          animation: keyframes10 0.7594401041666666s both;
          animation-delay: 6.17431640625s;
          animation-timing-function: linear;
        }
      
        @keyframes keyframes11 {
          from {
            stroke: blue;
            stroke-dashoffset: 419;
            stroke-width: 128;
          }
          58% {
            animation-timing-function: step-end;
            stroke: blue;
            stroke-dashoffset: 0;
            stroke-width: 128;
          }
          to {
            stroke: black;
            stroke-width: 1024;
          }
        }
        #make-me-a-hanzi-animation-11 {
          animation: keyframes11 0.5909830729166666s both;
          animation-delay: 6.933756510416667s;
          animation-timing-function: linear;
        }
      
        @keyframes keyframes12 {
          from {
            stroke: blue;
            stroke-dashoffset: 918;
            stroke-width: 128;
          }
          75% {
            animation-timing-function: step-end;
            stroke: blue;
            stroke-dashoffset: 0;
            stroke-width: 128;
          }
          to {
            stroke: black;
            stroke-width: 1024;
          }
        }
        #make-me-a-hanzi-animation-12 {
          animation: keyframes12 0.9970703125s both;
          animation-delay: 7.524739583333334s;
          animation-timing-function: linear;
        }
      
        @keyframes keyframes13 {
          from {
            stroke: blue;
            stroke-dashoffset: 415;
            stroke-width: 128;
          }
          57% {
            animation-timing-function: step-end;
            stroke: blue;
            stroke-dashoffset: 0;
            stroke-width: 128;
          }
          to {
            stroke: black;
            stroke-width: 1024;
          }
        }
        #make-me-a-hanzi-animation-13 {
          animation: keyframes13 0.5877278645833334s both;
          animation-delay: 8.521809895833334s;
          animation-timing-function: linear;
        }
      
        @keyframes keyframes14 {
          from {
            stroke: blue;
            stroke-dashoffset: 416;
            stroke-width: 128;
          }
          58% {
            animation-timing-function: step-end;
            stroke: blue;
            stroke-dashoffset: 0;
            stroke-width: 128;
          }
          to {
            stroke: black;
            stroke-width: 1024;
          }
        }
        #make-me-a-hanzi-animation-14 {
          animation: keyframes14 0.5885416666666666s both;
          animation-delay: 9.109537760416668s;
          animation-timing-function: linear;
        }
      
        @keyframes keyframes15 {
          from {
            stroke: blue;
            stroke-dashoffset: 423;
            stroke-width: 128;
          }
          58% {
            animation-timing-function: step-end;
            stroke: blue;
            stroke-dashoffset: 0;
            stroke-width: 128;
          }
          to {
            stroke: black;
            stroke-width: 1024;
          }
        }
        #make-me-a-hanzi-animation-15 {
          animation: keyframes15 0.59423828125s both;
          animation-delay: 9.698079427083334s;
          animation-timing-function: linear;
        }
      
        @keyframes keyframes16 {
          from {
            stroke: blue;
            stroke-dashoffset: 723;
            stroke-width: 128;
          }
          70% {
            animation-timing-function: step-end;
            stroke: blue;
            stroke-dashoffset: 0;
            stroke-width: 128;
          }
          to {
            stroke: black;
            stroke-width: 1024;
          }
        }
        #make-me-a-hanzi-animation-16 {
          animation: keyframes16 0.83837890625s both;
          animation-delay: 10.292317708333334s;
          animation-timing-function: linear;
        }
      
        @keyframes keyframes17 {
          from {
            stroke: blue;
            stroke-dashoffset: 441;
            stroke-width: 128;
          }
          59% {
            animation-timing-function: step-end;
            stroke: blue;
            stroke-dashoffset: 0;
            stroke-width: 128;
          }
          to {
            stroke: black;
            stroke-width: 1024;
          }
        }
        #make-me-a-hanzi-animation-17 {
          animation: keyframes17 0.60888671875s both;
          animation-delay: 11.130696614583334s;
          animation-timing-function: linear;
        }
      
        @keyframes keyframes18 {
          from {
            stroke: blue;
            stroke-dashoffset: 457;
            stroke-width: 128;
          }
          60% {
            animation-timing-function: step-end;
            stroke: blue;
            stroke-dashoffset: 0;
            stroke-width: 128;
          }
          to {
            stroke: black;
            stroke-width: 1024;
          }
        }
        #make-me-a-hanzi-animation-18 {
          animation: keyframes18 0.6219075520833334s both;
          animation-delay: 11.739583333333334s;
          animation-timing-function: linear;
        }
      
        @keyframes keyframes19 {
          from {
            stroke: blue;
            stroke-dashoffset: 1092;
            stroke-width: 128;
          }
          78% {
            animation-timing-function: step-end;
            stroke: blue;
            stroke-dashoffset: 0;
            stroke-width: 128;
          }
          to {
            stroke: black;
            stroke-width: 1024;
          }
        }
        #make-me-a-hanzi-animation-19 {
          animation: keyframes19 1.138671875s both;
          animation-delay: 12.361490885416668s;
          animation-timing-function: linear;
        }
      
        @keyframes keyframes20 {
          from {
            stroke: blue;
            stroke-dashoffset: 537;
            stroke-width: 128;
          }
          64% {
            animation-timing-function: step-end;
            stroke: blue;
            stroke-dashoffset: 0;
            stroke-width: 128;
          }
          to {
            stroke: black;
            stroke-width: 1024;
          }
        }
        #make-me-a-hanzi-animation-20 {
          animation: keyframes20 0.68701171875s both;
          animation-delay: 13.500162760416668s;
          animation-timing-function: linear;
        }
      
        @keyframes keyframes21 {
          from {
            stroke: blue;
            stroke-dashoffset: 484;
            stroke-width: 128;
          }
          61% {
            animation-timing-function: step-end;
            stroke: blue;
            stroke-dashoffset: 0;
            stroke-width: 128;
          }
          to {
            stroke: black;
            stroke-width: 1024;
          }
        }
        #make-me-a-hanzi-animation-21 {
          animation: keyframes21 0.6438802083333334s both;
          animation-delay: 14.187174479166668s;
          animation-timing-function: linear;
        }
      
    </style>
    
      <path d="M 400 698 L 405 708 Q 413 721 410 731 Q 402 750 365 756 Q 354 760 347 760 L 334 762 Q 318 762 327 751 L 348 722 Q 355 712 372 694 C 389 676 389 676 400 698 Z" fill="lightgray" />
    
      <path d="M 372 694 L 337 687 Q 249 671 232 669.5 Q 215 668 213 665 Q 211 662 214 657 Q 220 646 242 646 Q 252 644 271 644 L 404 662 L 445 668 L 476 676 Q 479 676 488 680 Q 497 684 499 686 Q 504 696 487 704 Q 467 714 453 714 L 400 698 L 372 694 Z" fill="lightgray" />
    
      <path d="M 295 576 Q 302 563 311 562 Q 331 561 333 584 Q 338 595 316 618 Q 309 624 293 632.5 Q 277 641 274.5 637.5 Q 272 634 279 618.5 Q 286 603 295 576 Z" fill="lightgray" />
    
      <path d="M 404 662 L 405 646 Q 406 628 386 570 C 376 542 389 551 408 574 L 419 587 Q 422 590 437 611 Q 452 631 465 640 Q 478 648 460 659 L 445 668 C 419 683 402 692 404 662 Z" fill="lightgray" />
    
      <path d="M 386 570 L 343 563 Q 335 562 327 561 L 227 544 Q 183 537 139 534 L 118 532 Q 107 531 105 528 Q 100 519 126 506 L 147 494 Q 160 489 183.5 497 Q 207 505 284 520 Q 361 535 381 538 L 453 547 L 495 553 L 513 556 Q 520 556 521 559 Q 521 562 515.5 569.5 Q 510 577 496 583 Q 485 588 479 588 Q 473 588 454.5 582.5 Q 436 577 408 574 L 386 570 Z" fill="lightgray" />
    
      <path d="M 302 424 Q 303 460 306 465 C 308 475 308 475 291 481 Q 271 489 255 487 Q 249 487 249 479 Q 249 478 257 462 Q 265 445 265 418 Q 263 336 249 308 Q 241 289 241 281 Q 241 272 247 260 Q 267 226 284 261 Q 295 293 298 350 L 299 368 Q 300 388 302 413 L 302 424 Z" fill="lightgray" />
    
      <path d="M 306 465 Q 314 464 326 466 L 338 468 L 402 481 Q 417 484 419 474 Q 421 463 424 427 L 424 422 Q 427 404 427 371 L 427 365 Q 426 341 426 338 Q 424 317 414 312 Q 401 309 379 319 Q 357 328 356 325 Q 355 322 377 298 Q 399 274 404 266 Q 425 234 436 242 Q 444 246 455 260 Q 465 274 466 321 Q 466 367 466 403 Q 465 439 475 464 Q 485 476 457 501 L 446 509 Q 435 517 385 502 Q 335 487 291 481 C 261 477 276 465 306 465 Z" fill="lightgray" />
    
      <path d="M 424 427 Q 413 439 395 441 L 302 424 C 277 419 277 419 302 413 Q 326 407 328 407 L 359 412 Q 391 417 404 418 Q 416 418 424 422 C 428 423 428 423 424 427 Z" fill="lightgray" />
    
      <path d="M 427 371 Q 419 379 404 381 L 299 368 C 269 364 269 355 298 350 Q 313 347 326 348 Q 338 348 416 358 Q 423 360 427 365 C 430 368 430 368 427 371 Z" fill="lightgray" />
    
      <path d="M 623 688 L 639 685 Q 655 682 659 682 L 737 698 Q 750 702 756 702 Q 770 707 770 712 Q 769 714 760 719 Q 742 729 735 728 Q 727 727 697 721 L 627 706 C 598 700 594 694 623 688 Z" fill="lightgray" />
    
      <path d="M 753 573 L 767 598 Q 778 618 791 629 Q 800 637 793 644 Q 771 666 749 666 L 711 656 L 661 647 Q 630 642 626 643 Q 622 644 620 647 Q 618 650 620 666 L 623 688 L 627 706 L 630 727 Q 631 732 635 740 Q 643 758 624 763 Q 613 766 601 770 Q 579 774 575 768 Q 573 765 577 756 L 583 744 Q 588 731 588 706 L 587 669 Q 587 655 582 645 Q 577 634 577 632 Q 574 620 592 603 Q 599 598 604 597 Q 609 596 623 604 Q 636 612 649 615 Q 661 618 678 622 Q 727 635 727 618 Q 727 613 723 599 L 716 574 C 708 545 738 547 753 573 Z" fill="lightgray" />
    
      <path d="M 601 527 L 671 537 L 736 543 L 759 546 Q 772 546 772 552 Q 770 561 753 573 C 745 579 745 579 716 574 L 603 554 C 573 549 571 523 601 527 Z" fill="lightgray" />
    
      <path d="M 563 368 Q 563 336 569 322 Q 582 291 634 275 Q 662 266 757 266 Q 852 266 902 306 Q 935 332 925 347 Q 923 350 911 362 Q 892 381 885 408 L 877 434 Q 872 448 867 445 Q 861 443 861 435 L 859 402 Q 857 388 854 378 Q 846 349 818 331 Q 789 312 711 310 Q 615 310 600 335 Q 597 341 595 350 L 595 372 L 595 410 L 597 429 L 597 464 L 597 482 L 601 527 C 603 554 603 554 603 554 L 575 570 Q 569 574 562 572 Q 555 570 560 560 Q 565 550 565 541 L 565 510 L 563 368 Z" fill="lightgray" />
    
      <path d="M 597 464 L 615 462 L 635 462 Q 641 462 661 466 L 745 478 Q 765 482 765 489 Q 762 500 723 507 L 691 500 L 597 482 C 568 476 567 467 597 464 Z" fill="lightgray" />
    
      <path d="M 595 410 L 613 407 Q 625 405 691 412 L 745 421 Q 759 423 763 427 Q 767 430 758 439 Q 749 448 733 448 Q 717 448 696 443 Q 674 437 637 434 L 597 429 C 567 425 565 415 595 410 Z" fill="lightgray" />
    
      <path d="M 595 350 L 674 354 Q 688 354 745 360 L 764 362 Q 787 366 767 382 Q 756 391 741 391 L 725 387 Q 707 382 669 378 L 595 372 C 565 370 565 348 595 350 Z" fill="lightgray" />
    
      <path d="M 427 148 L 465 151 Q 546 157 581 162 L 637 166 L 693 174 Q 733 181 735 186 Q 735 195 719 205.5 Q 703 216 694.5 216.5 Q 686 217 671 213 L 649 208 L 581 196 L 429 180 L 371 176 L 323 170 Q 321 170 281 168 L 263 167 Q 259 166 258 162 Q 257 158 264 153 Q 281 141 302.5 139 Q 324 137 376 144 L 427 148 Z" fill="lightgray" />
    
      <path d="M 427 66 L 427 148 L 429 180 L 433 198 L 437 213 Q 437 218 434 222 Q 431 226 414 232 Q 372 247 358 243 Q 348 240 355 225 L 363 210 Q 365 206 367 196 L 371 176 L 376 144 L 387 62 C 391 32 427 36 427 66 Z" fill="lightgray" />
    
      <path d="M 581 162 L 575 77 C 573 47 605 49 613 78 L 637 166 L 649 208 L 658 232 Q 659 236 657 240 Q 652 250 623 260 Q 594 270 581 270 Q 564 270 574 251 Q 579 241 583 227 L 583 212 L 581 196 L 581 162 Z" fill="lightgray" />
    
      <path d="M 575 77 L 427 66 L 387 62 L 337 56 L 334 56 L 240 47 Q 182 41 146 43 L 111 44 Q 93 44 91 40 Q 83 29 97 20 L 117 9 Q 155 -10 164 -9.5 Q 173 -9 186.5 -4.5 Q 200 0 228 4 L 278 14 Q 298 18 357 24 Q 590 47 781 45 Q 865 44 881 44 L 899 45 Q 939 45 936 58 Q 934 67 904 87.5 Q 874 108 860.5 108.5 Q 847 109 816.5 101 Q 786 93 691 84 L 613 78 L 575 77 Z" fill="lightgray" />
    
      <path d="M 199 -156 Q 193 -160 195 -166 Q 197 -172 204 -170 L 219 -165 Q 237 -160 261 -148 Q 326 -117 393 -65 L 421 -43 L 446 -27 Q 451 -23 447 -14 Q 444 -5 409 7 L 389 14 Q 367 20 363 12 Q 363 0 354 -20 Q 314 -89 211 -149 L 199 -156 Z" fill="lightgray" />
    
      <path d="M 643 -62 L 716 -144 Q 725 -154 736.5 -159 Q 748 -164 756 -160 Q 774 -149 775 -120.5 Q 776 -92 755 -68 Q 718 -34 650 -10 L 589 13 Q 580 16 577 14 Q 567 9 579 0 L 643 -62 Z" fill="lightgray" />
    
    
      <clipPath id="make-me-a-hanzi-clip-0">
        <path d="M 400 698 L 405 708 Q 413 721 410 731 Q 402 750 365 756 Q 354 760 347 760 L 334 762 Q 318 762 327 751 L 348 722 Q 355 712 372 694 C 389 676 389 676 400 698 Z" />
      </clipPath>
      <path clip-path="url(#make-me-a-hanzi-clip-0)" d="M 338 752 L 382 723 L 391 709" fill="none" id="make-me-a-hanzi-animation-0" stroke-dasharray="197 394" stroke-linecap="round" />
    
      <clipPath id="make-me-a-hanzi-clip-1">
        <path d="M 372 694 L 337 687 Q 249 671 232 669.5 Q 215 668 213 665 Q 211 662 214 657 Q 220 646 242 646 Q 252 644 271 644 L 404 662 L 445 668 L 476 676 Q 479 676 488 680 Q 497 684 499 686 Q 504 696 487 704 Q 467 714 453 714 L 400 698 L 372 694 Z" />
      </clipPath>
      <path clip-path="url(#make-me-a-hanzi-clip-1)" d="M 218 662 L 263 658 L 456 693 L 490 690" fill="none" id="make-me-a-hanzi-animation-1" stroke-dasharray="403 806" stroke-linecap="round" />
    
      <clipPath id="make-me-a-hanzi-clip-2">
        <path d="M 295 576 Q 302 563 311 562 Q 331 561 333 584 Q 338 595 316 618 Q 309 624 293 632.5 Q 277 641 274.5 637.5 Q 272 634 279 618.5 Q 286 603 295 576 Z" />
      </clipPath>
      <path clip-path="url(#make-me-a-hanzi-clip-2)" d="M 278 634 L 308 600 L 314 579" fill="none" id="make-me-a-hanzi-animation-2" stroke-dasharray="195 390" stroke-linecap="round" />
    
      <clipPath id="make-me-a-hanzi-clip-3">
        <path d="M 404 662 L 405 646 Q 406 628 386 570 C 376 542 389 551 408 574 L 419 587 Q 422 590 437 611 Q 452 631 465 640 Q 478 648 460 659 L 445 668 C 419 683 402 692 404 662 Z" />
      </clipPath>
      <path clip-path="url(#make-me-a-hanzi-clip-3)" d="M 460 649 L 429 640 L 407 592 L 401 583 L 390 581" fill="none" id="make-me-a-hanzi-animation-3" stroke-dasharray="235 470" stroke-linecap="round" />
    
      <clipPath id="make-me-a-hanzi-clip-4">
        <path d="M 386 570 L 343 563 Q 335 562 327 561 L 227 544 Q 183 537 139 534 L 118 532 Q 107 531 105 528 Q 100 519 126 506 L 147 494 Q 160 489 183.5 497 Q 207 505 284 520 Q 361 535 381 538 L 453 547 L 495 553 L 513 556 Q 520 556 521 559 Q 521 562 515.5 569.5 Q 510 577 496 583 Q 485 588 479 588 Q 473 588 454.5 582.5 Q 436 577 408 574 L 386 570 Z" />
      </clipPath>
      <path clip-path="url(#make-me-a-hanzi-clip-4)" d="M 113 525 L 121 519 L 161 514 L 467 568 L 515 563" fill="none" id="make-me-a-hanzi-animation-4" stroke-dasharray="537 1074" stroke-linecap="round" />
    
      <clipPath id="make-me-a-hanzi-clip-5">
        <path d="M 302 424 Q 303 460 306 465 C 308 475 308 475 291 481 Q 271 489 255 487 Q 249 487 249 479 Q 249 478 257 462 Q 265 445 265 418 Q 263 336 249 308 Q 241 289 241 281 Q 241 272 247 260 Q 267 226 284 261 Q 295 293 298 350 L 299 368 Q 300 388 302 413 L 302 424 Z" />
      </clipPath>
      <path clip-path="url(#make-me-a-hanzi-clip-5)" d="M 257 479 L 282 458 L 285 435 L 279 342 L 266 262" fill="none" id="make-me-a-hanzi-animation-5" stroke-dasharray="358 716" stroke-linecap="round" />
    
      <clipPath id="make-me-a-hanzi-clip-6">
        <path d="M 306 465 Q 314 464 326 466 L 338 468 L 402 481 Q 417 484 419 474 Q 421 463 424 427 L 424 422 Q 427 404 427 371 L 427 365 Q 426 341 426 338 Q 424 317 414 312 Q 401 309 379 319 Q 357 328 356 325 Q 355 322 377 298 Q 399 274 404 266 Q 425 234 436 242 Q 444 246 455 260 Q 465 274 466 321 Q 466 367 466 403 Q 465 439 475 464 Q 485 476 457 501 L 446 509 Q 435 517 385 502 Q 335 487 291 481 C 261 477 276 465 306 465 Z" />
      </clipPath>
      <path clip-path="url(#make-me-a-hanzi-clip-6)" d="M 298 480 L 308 474 L 330 476 L 399 496 L 419 496 L 438 487 L 448 471 L 444 311 L 430 284 L 392 299 L 359 324" fill="none" id="make-me-a-hanzi-animation-6" stroke-dasharray="566 1132" stroke-linecap="round" />
    
      <clipPath id="make-me-a-hanzi-clip-7">
        <path d="M 424 427 Q 413 439 395 441 L 302 424 C 277 419 277 419 302 413 Q 326 407 328 407 L 359 412 Q 391 417 404 418 Q 416 418 424 422 C 428 423 428 423 424 427 Z" />
      </clipPath>
      <path clip-path="url(#make-me-a-hanzi-clip-7)" d="M 311 419 L 367 422 L 389 429 L 418 425" fill="none" id="make-me-a-hanzi-animation-7" stroke-dasharray="236 472" stroke-linecap="round" />
    
      <clipPath id="make-me-a-hanzi-clip-8">
        <path d="M 427 371 Q 419 379 404 381 L 299 368 C 269 364 269 355 298 350 Q 313 347 326 348 Q 338 348 416 358 Q 423 360 427 365 C 430 368 430 368 427 371 Z" />
      </clipPath>
      <path clip-path="url(#make-me-a-hanzi-clip-8)" d="M 306 354 L 310 359 L 418 368" fill="none" id="make-me-a-hanzi-animation-8" stroke-dasharray="243 486" stroke-linecap="round" />
    
      <clipPath id="make-me-a-hanzi-clip-9">
        <path d="M 623 688 L 639 685 Q 655 682 659 682 L 737 698 Q 750 702 756 702 Q 770 707 770 712 Q 769 714 760 719 Q 742 729 735 728 Q 727 727 697 721 L 627 706 C 598 700 594 694 623 688 Z" />
      </clipPath>
      <path clip-path="url(#make-me-a-hanzi-clip-9)" d="M 628 692 L 733 713 L 763 713" fill="none" id="make-me-a-hanzi-animation-9" stroke-dasharray="265 530" stroke-linecap="round" />
    
      <clipPath id="make-me-a-hanzi-clip-10">
        <path d="M 753 573 L 767 598 Q 778 618 791 629 Q 800 637 793 644 Q 771 666 749 666 L 711 656 L 661 647 Q 630 642 626 643 Q 622 644 620 647 Q 618 650 620 666 L 623 688 L 627 706 L 630 727 Q 631 732 635 740 Q 643 758 624 763 Q 613 766 601 770 Q 579 774 575 768 Q 573 765 577 756 L 583 744 Q 588 731 588 706 L 587 669 Q 587 655 582 645 Q 577 634 577 632 Q 574 620 592 603 Q 599 598 604 597 Q 609 596 623 604 Q 636 612 649 615 Q 661 618 678 622 Q 727 635 727 618 Q 727 613 723 599 L 716 574 C 708 545 738 547 753 573 Z" />
      </clipPath>
      <path clip-path="url(#make-me-a-hanzi-clip-10)" d="M 582 763 L 610 741 L 602 629 L 621 624 L 724 642 L 751 637 L 751 616 L 742 593 L 722 579" fill="none" id="make-me-a-hanzi-animation-10" stroke-dasharray="498 996" stroke-linecap="round" />
    
      <clipPath id="make-me-a-hanzi-clip-11">
        <path d="M 601 527 L 671 537 L 736 543 L 759 546 Q 772 546 772 552 Q 770 561 753 573 C 745 579 745 579 716 574 L 603 554 C 573 549 571 523 601 527 Z" />
      </clipPath>
      <path clip-path="url(#make-me-a-hanzi-clip-11)" d="M 607 533 L 616 543 L 697 556 L 752 559 L 763 554" fill="none" id="make-me-a-hanzi-animation-11" stroke-dasharray="291 582" stroke-linecap="round" />
    
      <clipPath id="make-me-a-hanzi-clip-12">
        <path d="M 563 368 Q 563 336 569 322 Q 582 291 634 275 Q 662 266 757 266 Q 852 266 902 306 Q 935 332 925 347 Q 923 350 911 362 Q 892 381 885 408 L 877 434 Q 872 448 867 445 Q 861 443 861 435 L 859 402 Q 857 388 854 378 Q 846 349 818 331 Q 789 312 711 310 Q 615 310 600 335 Q 597 341 595 350 L 595 372 L 595 410 L 597 429 L 597 464 L 597 482 L 601 527 C 603 554 603 554 603 554 L 575 570 Q 569 574 562 572 Q 555 570 560 560 Q 565 550 565 541 L 565 510 L 563 368 Z" />
      </clipPath>
      <path clip-path="url(#make-me-a-hanzi-clip-12)" d="M 568 565 L 584 544 L 580 343 L 591 318 L 618 300 L 688 288 L 746 288 L 799 294 L 839 307 L 879 338 L 869 437" fill="none" id="make-me-a-hanzi-animation-12" stroke-dasharray="790 1580" stroke-linecap="round" />
    
      <clipPath id="make-me-a-hanzi-clip-13">
        <path d="M 597 464 L 615 462 L 635 462 Q 641 462 661 466 L 745 478 Q 765 482 765 489 Q 762 500 723 507 L 691 500 L 597 482 C 568 476 567 467 597 464 Z" />
      </clipPath>
      <path clip-path="url(#make-me-a-hanzi-clip-13)" d="M 602 469 L 731 493 L 758 489" fill="none" id="make-me-a-hanzi-animation-13" stroke-dasharray="287 574" stroke-linecap="round" />
    
      <clipPath id="make-me-a-hanzi-clip-14">
        <path d="M 595 410 L 613 407 Q 625 405 691 412 L 745 421 Q 759 423 763 427 Q 767 430 758 439 Q 749 448 733 448 Q 717 448 696 443 Q 674 437 637 434 L 597 429 C 567 425 565 415 595 410 Z" />
      </clipPath>
      <path clip-path="url(#make-me-a-hanzi-clip-14)" d="M 600 414 L 608 419 L 678 422 L 728 434 L 757 431" fill="none" id="make-me-a-hanzi-animation-14" stroke-dasharray="288 576" stroke-linecap="round" />
    
      <clipPath id="make-me-a-hanzi-clip-15">
        <path d="M 595 350 L 674 354 Q 688 354 745 360 L 764 362 Q 787 366 767 382 Q 756 391 741 391 L 725 387 Q 707 382 669 378 L 595 372 C 565 370 565 348 595 350 Z" />
      </clipPath>
      <path clip-path="url(#make-me-a-hanzi-clip-15)" d="M 603 356 L 607 362 L 746 376 L 766 372" fill="none" id="make-me-a-hanzi-animation-15" stroke-dasharray="295 590" stroke-linecap="round" />
    
      <clipPath id="make-me-a-hanzi-clip-16">
        <path d="M 427 148 L 465 151 Q 546 157 581 162 L 637 166 L 693 174 Q 733 181 735 186 Q 735 195 719 205.5 Q 703 216 694.5 216.5 Q 686 217 671 213 L 649 208 L 581 196 L 429 180 L 371 176 L 323 170 Q 321 170 281 168 L 263 167 Q 259 166 258 162 Q 257 158 264 153 Q 281 141 302.5 139 Q 324 137 376 144 L 427 148 Z" />
      </clipPath>
      <path clip-path="url(#make-me-a-hanzi-clip-16)" d="M 265 160 L 318 154 L 553 175 L 691 195 L 729 189" fill="none" id="make-me-a-hanzi-animation-16" stroke-dasharray="595 1190" stroke-linecap="round" />
    
      <clipPath id="make-me-a-hanzi-clip-17">
        <path d="M 427 66 L 427 148 L 429 180 L 433 198 L 437 213 Q 437 218 434 222 Q 431 226 414 232 Q 372 247 358 243 Q 348 240 355 225 L 363 210 Q 365 206 367 196 L 371 176 L 376 144 L 387 62 C 391 32 427 36 427 66 Z" />
      </clipPath>
      <path clip-path="url(#make-me-a-hanzi-clip-17)" d="M 362 233 L 400 202 L 405 85 L 420 73" fill="none" id="make-me-a-hanzi-animation-17" stroke-dasharray="313 626" stroke-linecap="round" />
    
      <clipPath id="make-me-a-hanzi-clip-18">
        <path d="M 581 162 L 575 77 C 573 47 605 49 613 78 L 637 166 L 649 208 L 658 232 Q 659 236 657 240 Q 652 250 623 260 Q 594 270 581 270 Q 564 270 574 251 Q 579 241 583 227 L 583 212 L 581 196 L 581 162 Z" />
      </clipPath>
      <path clip-path="url(#make-me-a-hanzi-clip-18)" d="M 580 260 L 618 225 L 599 105 L 581 84" fill="none" id="make-me-a-hanzi-animation-18" stroke-dasharray="329 658" stroke-linecap="round" />
    
      <clipPath id="make-me-a-hanzi-clip-19">
        <path d="M 575 77 L 427 66 L 387 62 L 337 56 L 334 56 L 240 47 Q 182 41 146 43 L 111 44 Q 93 44 91 40 Q 83 29 97 20 L 117 9 Q 155 -10 164 -9.5 Q 173 -9 186.5 -4.5 Q 200 0 228 4 L 278 14 Q 298 18 357 24 Q 590 47 781 45 Q 865 44 881 44 L 899 45 Q 939 45 936 58 Q 934 67 904 87.5 Q 874 108 860.5 108.5 Q 847 109 816.5 101 Q 786 93 691 84 L 613 78 L 575 77 Z" />
      </clipPath>
      <path clip-path="url(#make-me-a-hanzi-clip-19)" d="M 98 33 L 174 17 L 409 47 L 848 76 L 927 57" fill="none" id="make-me-a-hanzi-animation-19" stroke-dasharray="964 1928" stroke-linecap="round" />
    
      <clipPath id="make-me-a-hanzi-clip-20">
        <path d="M 199 -156 Q 193 -160 195 -166 Q 197 -172 204 -170 L 219 -165 Q 237 -160 261 -148 Q 326 -117 393 -65 L 421 -43 L 446 -27 Q 451 -23 447 -14 Q 444 -5 409 7 L 389 14 Q 367 20 363 12 Q 363 0 354 -20 Q 314 -89 211 -149 L 199 -156 Z" />
      </clipPath>
      <path clip-path="url(#make-me-a-hanzi-clip-20)" d="M 434 -20 L 390 -23 L 323 -91 L 249 -142 L 202 -163" fill="none" id="make-me-a-hanzi-animation-20" stroke-dasharray="409 818" stroke-linecap="round" />
    
      <clipPath id="make-me-a-hanzi-clip-21">
        <path d="M 643 -62 L 716 -144 Q 725 -154 736.5 -159 Q 748 -164 756 -160 Q 774 -149 775 -120.5 Q 776 -92 755 -68 Q 718 -34 650 -10 L 589 13 Q 580 16 577 14 Q 567 9 579 0 L 643 -62 Z" />
      </clipPath>
      <path clip-path="url(#make-me-a-hanzi-clip-21)" d="M 583 8 L 677 -53 L 725 -94 L 748 -141" fill="none" id="make-me-a-hanzi-animation-21" stroke-dasharray="356 712" stroke-linecap="round" />
    
  </g>
</svg>