<svg xmlns="http://www.w3.org/2000/svg" version="1.1" viewBox="0 0 1024 1024">
  <g stroke="lightgray" stroke-dasharray="1,1" stroke-width="1" transform="scale(4, 4)">
    <line x1="0" y1="0" x2="256" y2="256" />
    <line x1="256" y1="0" x2="0" y2="256" />
    <line x1="128" y1="0" x2="128" y2="256" />
    <line x1="0" y1="128" x2="256" y2="128" />
  </g>
  <g transform="scale(1.0, -1.0) translate(0.0, -845.50)">
    <style type="text/css">
      
        @keyframes keyframes0 {
          from {
            stroke: blue;
            stroke-dashoffset: 943;
            stroke-width: 128;
          }
          75% {
            animation-timing-function: step-end;
            stroke: blue;
            stroke-dashoffset: 0;
            stroke-width: 128;
          }
          to {
            stroke: black;
            stroke-width: 1024;
          }
        }
        #make-me-a-hanzi-animation-0 {
          animation: keyframes0 1.0174153645833333s both;
          animation-delay: 0s;
          animation-timing-function: linear;
        }
      
        @keyframes keyframes1 {
          from {
            stroke: blue;
            stroke-dashoffset: 859;
            stroke-width: 128;
          }
          74% {
            animation-timing-function: step-end;
            stroke: blue;
            stroke-dashoffset: 0;
            stroke-width: 128;
          }
          to {
            stroke: black;
            stroke-width: 1024;
          }
        }
        #make-me-a-hanzi-animation-1 {
          animation: keyframes1 0.9490559895833334s both;
          animation-delay: 1.0174153645833333s;
          animation-timing-function: linear;
        }
      
        @keyframes keyframes2 {
          from {
            stroke: blue;
            stroke-dashoffset: 371;
            stroke-width: 128;
          }
          55% {
            animation-timing-function: step-end;
            stroke: blue;
            stroke-dashoffset: 0;
            stroke-width: 128;
          }
          to {
            stroke: black;
            stroke-width: 1024;
          }
        }
        #make-me-a-hanzi-animation-2 {
          animation: keyframes2 0.5519205729166666s both;
          animation-delay: 1.9664713541666665s;
          animation-timing-function: linear;
        }
      
        @keyframes keyframes3 {
          from {
            stroke: blue;
            stroke-dashoffset: 888;
            stroke-width: 128;
          }
          74% {
            animation-timing-function: step-end;
            stroke: blue;
            stroke-dashoffset: 0;
            stroke-width: 128;
          }
          to {
            stroke: black;
            stroke-width: 1024;
          }
        }
        #make-me-a-hanzi-animation-3 {
          animation: keyframes3 0.97265625s both;
          animation-delay: 2.518391927083333s;
          animation-timing-function: linear;
        }
      
        @keyframes keyframes4 {
          from {
            stroke: blue;
            stroke-dashoffset: 486;
            stroke-width: 128;
          }
          61% {
            animation-timing-function: step-end;
            stroke: blue;
            stroke-dashoffset: 0;
            stroke-width: 128;
          }
          to {
            stroke: black;
            stroke-width: 1024;
          }
        }
        #make-me-a-hanzi-animation-4 {
          animation: keyframes4 0.6455078125s both;
          animation-delay: 3.491048177083333s;
          animation-timing-function: linear;
        }
      
    </style>
    
      <path d="M 511 649 Q 554 712 555 716 L 555 718 Q 554 731 537 746 Q 495 785 456 776 Q 446 775 448 758 Q 466 653 294 449 Q 284 439 273 426 Q 219 368 86 255 Q 76 248 89 245 Q 161 252 309 387 Q 396 474 496 625 L 511 649 Z" fill="lightgray" />
    
      <path d="M 496 625 Q 605 478 745 325 Q 769 300 807 302 Q 937 308 978 316 Q 991 319 993 325 Q 992 334 862 379 Q 768 421 736 444 Q 631 529 511 649 C 490 670 478 649 496 625 Z" fill="lightgray" />
    
      <path d="M 427 382 Q 469 337 504 322 Q 519 319 527 333 Q 533 345 529 361 Q 522 383 504 396 Q 492 405 438 420 Q 422 424 413 420 Q 407 419 410 407 Q 411 395 427 382 Z" fill="lightgray" />
    
      <path d="M 505 29 Q 640 165 685 184 Q 707 191 700 211 Q 696 229 621 270 Q 599 282 574 272 Q 489 244 361 215 Q 327 205 248 212 Q 220 213 230 190 Q 237 175 259 162 Q 293 141 333 163 Q 367 173 543 220 Q 561 226 575 215 Q 590 205 581 188 L 487 41 C 471 16 484 8 505 29 Z" fill="lightgray" />
    
      <path d="M 487 41 Q 436 72 407 87 Q 398 94 395 80 Q 392 67 403 54 Q 454 -4 513 -87 Q 528 -111 543 -117 Q 552 -118 561 -109 Q 576 -97 568 -50 Q 564 -8 505 29 L 487 41 Z" fill="lightgray" />
    
    
      <clipPath id="make-me-a-hanzi-clip-0">
        <path d="M 511 649 Q 554 712 555 716 L 555 718 Q 554 731 537 746 Q 495 785 456 776 Q 446 775 448 758 Q 466 653 294 449 Q 284 439 273 426 Q 219 368 86 255 Q 76 248 89 245 Q 161 252 309 387 Q 396 474 496 625 L 511 649 Z" />
      </clipPath>
      <path clip-path="url(#make-me-a-hanzi-clip-0)" d="M 460 764 L 481 745 L 497 716 L 452 620 L 387 520 L 268 382 L 158 292 L 93 252" fill="none" id="make-me-a-hanzi-animation-0" stroke-dasharray="815 1630" stroke-linecap="round" />
    
      <clipPath id="make-me-a-hanzi-clip-1">
        <path d="M 496 625 Q 605 478 745 325 Q 769 300 807 302 Q 937 308 978 316 Q 991 319 993 325 Q 992 334 862 379 Q 768 421 736 444 Q 631 529 511 649 C 490 670 478 649 496 625 Z" />
      </clipPath>
      <path clip-path="url(#make-me-a-hanzi-clip-1)" d="M 513 639 L 513 626 L 521 616 L 612 516 L 712 416 L 776 364 L 816 348 L 989 324" fill="none" id="make-me-a-hanzi-animation-1" stroke-dasharray="731 1462" stroke-linecap="round" />
    
      <clipPath id="make-me-a-hanzi-clip-2">
        <path d="M 427 382 Q 469 337 504 322 Q 519 319 527 333 Q 533 345 529 361 Q 522 383 504 396 Q 492 405 438 420 Q 422 424 413 420 Q 407 419 410 407 Q 411 395 427 382 Z" />
      </clipPath>
      <path clip-path="url(#make-me-a-hanzi-clip-2)" d="M 420 412 L 489 368 L 509 341" fill="none" id="make-me-a-hanzi-animation-2" stroke-dasharray="243 486" stroke-linecap="round" />
    
      <clipPath id="make-me-a-hanzi-clip-3">
        <path d="M 505 29 Q 640 165 685 184 Q 707 191 700 211 Q 696 229 621 270 Q 599 282 574 272 Q 489 244 361 215 Q 327 205 248 212 Q 220 213 230 190 Q 237 175 259 162 Q 293 141 333 163 Q 367 173 543 220 Q 561 226 575 215 Q 590 205 581 188 L 487 41 C 471 16 484 8 505 29 Z" />
      </clipPath>
      <path clip-path="url(#make-me-a-hanzi-clip-3)" d="M 242 199 L 266 186 L 303 181 L 548 243 L 601 240 L 632 208 L 625 195 L 507 45 L 496 45" fill="none" id="make-me-a-hanzi-animation-3" stroke-dasharray="760 1520" stroke-linecap="round" />
    
      <clipPath id="make-me-a-hanzi-clip-4">
        <path d="M 487 41 Q 436 72 407 87 Q 398 94 395 80 Q 392 67 403 54 Q 454 -4 513 -87 Q 528 -111 543 -117 Q 552 -118 561 -109 Q 576 -97 568 -50 Q 564 -8 505 29 L 487 41 Z" />
      </clipPath>
      <path clip-path="url(#make-me-a-hanzi-clip-4)" d="M 407 74 L 514 -24 L 538 -64 L 545 -102" fill="none" id="make-me-a-hanzi-animation-4" stroke-dasharray="358 716" stroke-linecap="round" />
    
  </g>
</svg>