<svg version="1.1" viewBox="0 0 1024 1024" xmlns="http://www.w3.org/2000/svg">
  <g stroke="lightgray" stroke-dasharray="1,1" stroke-width="1" transform="scale(4, 4)">
    <line x1="0" y1="0" x2="256" y2="256"></line>
    <line x1="256" y1="0" x2="0" y2="256"></line>
    <line x1="128" y1="0" x2="128" y2="256"></line>
    <line x1="0" y1="128" x2="256" y2="128"></line>
  </g>
  <g transform="scale(0.92, -0.92) translate(60, -830)">
    <style type="text/css">
      
        @keyframes keyframes0 {
          from {
            stroke: blue;
            stroke-dashoffset: 445;
            stroke-width: 128;
          }
          59% {
            animation-timing-function: step-end;
            stroke: blue;
            stroke-dashoffset: 0;
            stroke-width: 128;
          }
          to {
            stroke: black;
            stroke-width: 1024;
          }
        }
        #make-me-a-hanzi-animation-0 {
          animation: keyframes0 0.6121419270833334s both;
          animation-delay: 0s;
          animation-timing-function: linear;
        }
      
        @keyframes keyframes1 {
          from {
            stroke: blue;
            stroke-dashoffset: 835;
            stroke-width: 128;
          }
          73% {
            animation-timing-function: step-end;
            stroke: blue;
            stroke-dashoffset: 0;
            stroke-width: 128;
          }
          to {
            stroke: black;
            stroke-width: 1024;
          }
        }
        #make-me-a-hanzi-animation-1 {
          animation: keyframes1 0.9295247395833334s both;
          animation-delay: 0.6121419270833334s;
          animation-timing-function: linear;
        }
      
        @keyframes keyframes2 {
          from {
            stroke: blue;
            stroke-dashoffset: 357;
            stroke-width: 128;
          }
          54% {
            animation-timing-function: step-end;
            stroke: blue;
            stroke-dashoffset: 0;
            stroke-width: 128;
          }
          to {
            stroke: black;
            stroke-width: 1024;
          }
        }
        #make-me-a-hanzi-animation-2 {
          animation: keyframes2 0.54052734375s both;
          animation-delay: 1.5416666666666667s;
          animation-timing-function: linear;
        }
      
        @keyframes keyframes3 {
          from {
            stroke: blue;
            stroke-dashoffset: 390;
            stroke-width: 128;
          }
          56% {
            animation-timing-function: step-end;
            stroke: blue;
            stroke-dashoffset: 0;
            stroke-width: 128;
          }
          to {
            stroke: black;
            stroke-width: 1024;
          }
        }
        #make-me-a-hanzi-animation-3 {
          animation: keyframes3 0.5673828125s both;
          animation-delay: 2.082194010416667s;
          animation-timing-function: linear;
        }
      
        @keyframes keyframes4 {
          from {
            stroke: blue;
            stroke-dashoffset: 553;
            stroke-width: 128;
          }
          64% {
            animation-timing-function: step-end;
            stroke: blue;
            stroke-dashoffset: 0;
            stroke-width: 128;
          }
          to {
            stroke: black;
            stroke-width: 1024;
          }
        }
        #make-me-a-hanzi-animation-4 {
          animation: keyframes4 0.7000325520833334s both;
          animation-delay: 2.649576822916667s;
          animation-timing-function: linear;
        }
      
        @keyframes keyframes5 {
          from {
            stroke: blue;
            stroke-dashoffset: 527;
            stroke-width: 128;
          }
          63% {
            animation-timing-function: step-end;
            stroke: blue;
            stroke-dashoffset: 0;
            stroke-width: 128;
          }
          to {
            stroke: black;
            stroke-width: 1024;
          }
        }
        #make-me-a-hanzi-animation-5 {
          animation: keyframes5 0.6788736979166666s both;
          animation-delay: 3.3496093750000004s;
          animation-timing-function: linear;
        }
      
        @keyframes keyframes6 {
          from {
            stroke: blue;
            stroke-dashoffset: 405;
            stroke-width: 128;
          }
          57% {
            animation-timing-function: step-end;
            stroke: blue;
            stroke-dashoffset: 0;
            stroke-width: 128;
          }
          to {
            stroke: black;
            stroke-width: 1024;
          }
        }
        #make-me-a-hanzi-animation-6 {
          animation: keyframes6 0.57958984375s both;
          animation-delay: 4.028483072916667s;
          animation-timing-function: linear;
        }
      
        @keyframes keyframes7 {
          from {
            stroke: blue;
            stroke-dashoffset: 1037;
            stroke-width: 128;
          }
          77% {
            animation-timing-function: step-end;
            stroke: blue;
            stroke-dashoffset: 0;
            stroke-width: 128;
          }
          to {
            stroke: black;
            stroke-width: 1024;
          }
        }
        #make-me-a-hanzi-animation-7 {
          animation: keyframes7 1.0939127604166667s both;
          animation-delay: 4.608072916666667s;
          animation-timing-function: linear;
        }
      
        @keyframes keyframes8 {
          from {
            stroke: blue;
            stroke-dashoffset: 327;
            stroke-width: 128;
          }
          52% {
            animation-timing-function: step-end;
            stroke: blue;
            stroke-dashoffset: 0;
            stroke-width: 128;
          }
          to {
            stroke: black;
            stroke-width: 1024;
          }
        }
        #make-me-a-hanzi-animation-8 {
          animation: keyframes8 0.51611328125s both;
          animation-delay: 5.701985677083334s;
          animation-timing-function: linear;
        }
      
        @keyframes keyframes9 {
          from {
            stroke: blue;
            stroke-dashoffset: 397;
            stroke-width: 128;
          }
          56% {
            animation-timing-function: step-end;
            stroke: blue;
            stroke-dashoffset: 0;
            stroke-width: 128;
          }
          to {
            stroke: black;
            stroke-width: 1024;
          }
        }
        #make-me-a-hanzi-animation-9 {
          animation: keyframes9 0.5730794270833334s both;
          animation-delay: 6.218098958333334s;
          animation-timing-function: linear;
        }
      
        @keyframes keyframes10 {
          from {
            stroke: blue;
            stroke-dashoffset: 636;
            stroke-width: 128;
          }
          67% {
            animation-timing-function: step-end;
            stroke: blue;
            stroke-dashoffset: 0;
            stroke-width: 128;
          }
          to {
            stroke: black;
            stroke-width: 1024;
          }
        }
        #make-me-a-hanzi-animation-10 {
          animation: keyframes10 0.767578125s both;
          animation-delay: 6.791178385416667s;
          animation-timing-function: linear;
        }
      
        @keyframes keyframes11 {
          from {
            stroke: blue;
            stroke-dashoffset: 876;
            stroke-width: 128;
          }
          74% {
            animation-timing-function: step-end;
            stroke: blue;
            stroke-dashoffset: 0;
            stroke-width: 128;
          }
          to {
            stroke: black;
            stroke-width: 1024;
          }
        }
        #make-me-a-hanzi-animation-11 {
          animation: keyframes11 0.962890625s both;
          animation-delay: 7.558756510416667s;
          animation-timing-function: linear;
        }
      
        @keyframes keyframes12 {
          from {
            stroke: blue;
            stroke-dashoffset: 625;
            stroke-width: 128;
          }
          67% {
            animation-timing-function: step-end;
            stroke: blue;
            stroke-dashoffset: 0;
            stroke-width: 128;
          }
          to {
            stroke: black;
            stroke-width: 1024;
          }
        }
        #make-me-a-hanzi-animation-12 {
          animation: keyframes12 0.7586263020833334s both;
          animation-delay: 8.521647135416668s;
          animation-timing-function: linear;
        }
      
    </style>
    
      <path d="M 302 713 Q 290 717 259 718 Q 246 719 243 714 Q 237 707 248 692 Q 276 650 301 580 Q 307 558 322 546 Q 343 525 347 542 Q 347 543 348 546 L 347 572 Q 346 579 343 589 L 321 682 C 314 710 314 710 302 713 Z" fill="lightgray"></path>
    
      <path d="M 647 584 Q 647 583 648 579 Q 652 564 663 564 Q 681 567 712 620 Q 730 666 764 691 Q 783 704 769 720 Q 753 736 710 763 Q 694 773 636 760 Q 543 754 415 730 L 302 713 C 272 709 292 674 321 682 Q 352 692 398 700 L 418 703 Q 467 713 531 720 L 568 725 Q 653 740 680 725 Q 686 721 681 701 Q 660 625 652 610 Q 651 610 651 609 C 643 592 643 592 647 584 Z" fill="lightgray"></path>
    
      <path d="M 450 589 Q 457 625 429 684 Q 426 696 418 703 C 397 724 389 729 398 700 L 399 698 Q 409 607 435 586 C 448 575 448 575 450 589 Z" fill="lightgray"></path>
    
      <path d="M 538 604 Q 559 638 571 663 Q 575 673 586 687 Q 596 697 590 705 Q 583 715 568 725 C 543 742 522 749 531 720 Q 540 699 517 619 Q 513 609 511 599 C 504 570 522 578 538 604 Z" fill="lightgray"></path>
    
      <path d="M 503 565 Q 581 577 647 584 C 677 587 678 596 651 609 Q 645 613 636 615 Q 611 621 538 604 L 511 599 Q 478 595 450 589 L 435 586 Q 389 582 347 572 C 318 565 318 543 348 546 L 460 558 L 503 565 Z" fill="lightgray"></path>
    
      <path d="M 515 476 Q 635 498 638 501 Q 645 508 642 514 Q 636 524 613 531 Q 595 535 519 515 L 465 503 Q 422 497 372 493 Q 342 490 363 475 Q 396 454 444 465 Q 454 468 467 467 L 515 476 Z" fill="lightgray"></path>
    
      <path d="M 509 419 Q 512 450 515 476 L 519 515 Q 525 542 519 550 Q 512 559 503 565 C 479 583 456 588 460 558 Q 461 555 465 503 L 467 467 Q 467 446 468 415 C 469 385 506 389 509 419 Z" fill="lightgray"></path>
    
      <path d="M 606 396 Q 655 400 881 400 Q 902 400 906 408 Q 912 420 896 434 Q 836 479 775 460 Q 672 442 509 419 L 468 415 L 125 378 Q 103 377 119 359 Q 132 346 151 339 Q 172 333 188 338 Q 365 386 561 394 L 606 396 Z" fill="lightgray"></path>
    
      <path d="M 366 344 Q 393 287 412 281 Q 422 277 431 291 Q 435 301 431 319 Q 422 344 375 365 Q 368 368 364 359 Q 363 352 366 344 Z" fill="lightgray"></path>
    
      <path d="M 553 279 Q 598 334 625 360 Q 638 367 632 375 Q 625 387 606 396 C 579 410 554 422 561 394 Q 561 391 563 387 Q 570 368 522 272 C 509 245 534 256 553 279 Z" fill="lightgray"></path>
    
      <path d="M 526 238 Q 554 244 676 256 Q 685 255 693 266 Q 694 276 675 285 Q 648 306 558 280 Q 555 280 553 279 L 522 272 Q 519 273 518 272 Q 451 259 312 244 Q 287 243 306 227 Q 337 206 385 215 Q 422 222 469 228 L 526 238 Z" fill="lightgray"></path>
    
      <path d="M 525 116 Q 616 125 747 124 Q 810 121 819 132 Q 825 144 808 158 Q 756 197 718 189 Q 645 173 525 155 L 466 147 L 201 114 Q 179 113 195 95 Q 208 82 227 76 Q 248 70 264 75 Q 355 99 457 109 Q 460 110 465 109 L 525 116 Z" fill="lightgray"></path>
    
      <path d="M 465 109 Q 462 -116 483 -138 Q 495 -150 506 -125 Q 524 -83 525 116 L 525 155 Q 525 197 526 238 C 527 268 470 258 469 228 Q 468 188 466 147 L 465 109 Z" fill="lightgray"></path>
    
    
      <clipPath id="make-me-a-hanzi-clip-0">
        <path d="M 302 713 Q 290 717 259 718 Q 246 719 243 714 Q 237 707 248 692 Q 276 650 301 580 Q 307 558 322 546 Q 343 525 347 542 Q 347 543 348 546 L 347 572 Q 346 579 343 589 L 321 682 C 314 710 314 710 302 713 Z"></path>
      </clipPath>
      <path clip-path="url(#make-me-a-hanzi-clip-0)" d="M 251 708 L 284 688 L 296 668 L 335 547" fill="none" id="make-me-a-hanzi-animation-0" stroke-dasharray="317 634" stroke-linecap="round"></path>
    
      <clipPath id="make-me-a-hanzi-clip-1">
        <path d="M 647 584 Q 647 583 648 579 Q 652 564 663 564 Q 681 567 712 620 Q 730 666 764 691 Q 783 704 769 720 Q 753 736 710 763 Q 694 773 636 760 Q 543 754 415 730 L 302 713 C 272 709 292 674 321 682 Q 352 692 398 700 L 418 703 Q 467 713 531 720 L 568 725 Q 653 740 680 725 Q 686 721 681 701 Q 660 625 652 610 Q 651 610 651 609 C 643 592 643 592 647 584 Z"></path>
      </clipPath>
      <path clip-path="url(#make-me-a-hanzi-clip-1)" d="M 310 711 L 328 701 L 603 745 L 649 749 L 697 742 L 715 722 L 720 704 L 663 576" fill="none" id="make-me-a-hanzi-animation-1" stroke-dasharray="707 1414" stroke-linecap="round"></path>
    
      <clipPath id="make-me-a-hanzi-clip-2">
        <path d="M 450 589 Q 457 625 429 684 Q 426 696 418 703 C 397 724 389 729 398 700 L 399 698 Q 409 607 435 586 C 448 575 448 575 450 589 Z"></path>
      </clipPath>
      <path clip-path="url(#make-me-a-hanzi-clip-2)" d="M 414 693 L 441 596" fill="none" id="make-me-a-hanzi-animation-2" stroke-dasharray="229 458" stroke-linecap="round"></path>
    
      <clipPath id="make-me-a-hanzi-clip-3">
        <path d="M 538 604 Q 559 638 571 663 Q 575 673 586 687 Q 596 697 590 705 Q 583 715 568 725 C 543 742 522 749 531 720 Q 540 699 517 619 Q 513 609 511 599 C 504 570 522 578 538 604 Z"></path>
      </clipPath>
      <path clip-path="url(#make-me-a-hanzi-clip-3)" d="M 538 718 L 560 696 L 537 631 L 517 603" fill="none" id="make-me-a-hanzi-animation-3" stroke-dasharray="262 524" stroke-linecap="round"></path>
    
      <clipPath id="make-me-a-hanzi-clip-4">
        <path d="M 503 565 Q 581 577 647 584 C 677 587 678 596 651 609 Q 645 613 636 615 Q 611 621 538 604 L 511 599 Q 478 595 450 589 L 435 586 Q 389 582 347 572 C 318 565 318 543 348 546 L 460 558 L 503 565 Z"></path>
      </clipPath>
      <path clip-path="url(#make-me-a-hanzi-clip-4)" d="M 354 553 L 361 561 L 644 604" fill="none" id="make-me-a-hanzi-animation-4" stroke-dasharray="425 850" stroke-linecap="round"></path>
    
      <clipPath id="make-me-a-hanzi-clip-5">
        <path d="M 515 476 Q 635 498 638 501 Q 645 508 642 514 Q 636 524 613 531 Q 595 535 519 515 L 465 503 Q 422 497 372 493 Q 342 490 363 475 Q 396 454 444 465 Q 454 468 467 467 L 515 476 Z"></path>
      </clipPath>
      <path clip-path="url(#make-me-a-hanzi-clip-5)" d="M 365 485 L 420 479 L 590 511 L 633 510" fill="none" id="make-me-a-hanzi-animation-5" stroke-dasharray="399 798" stroke-linecap="round"></path>
    
      <clipPath id="make-me-a-hanzi-clip-6">
        <path d="M 509 419 Q 512 450 515 476 L 519 515 Q 525 542 519 550 Q 512 559 503 565 C 479 583 456 588 460 558 Q 461 555 465 503 L 467 467 Q 467 446 468 415 C 469 385 506 389 509 419 Z"></path>
      </clipPath>
      <path clip-path="url(#make-me-a-hanzi-clip-6)" d="M 468 557 L 492 533 L 490 444 L 474 423" fill="none" id="make-me-a-hanzi-animation-6" stroke-dasharray="277 554" stroke-linecap="round"></path>
    
      <clipPath id="make-me-a-hanzi-clip-7">
        <path d="M 606 396 Q 655 400 881 400 Q 902 400 906 408 Q 912 420 896 434 Q 836 479 775 460 Q 672 442 509 419 L 468 415 L 125 378 Q 103 377 119 359 Q 132 346 151 339 Q 172 333 188 338 Q 365 386 561 394 L 606 396 Z"></path>
      </clipPath>
      <path clip-path="url(#make-me-a-hanzi-clip-7)" d="M 122 369 L 171 359 L 430 399 L 790 432 L 835 431 L 895 415" fill="none" id="make-me-a-hanzi-animation-7" stroke-dasharray="909 1818" stroke-linecap="round"></path>
    
      <clipPath id="make-me-a-hanzi-clip-8">
        <path d="M 366 344 Q 393 287 412 281 Q 422 277 431 291 Q 435 301 431 319 Q 422 344 375 365 Q 368 368 364 359 Q 363 352 366 344 Z"></path>
      </clipPath>
      <path clip-path="url(#make-me-a-hanzi-clip-8)" d="M 375 353 L 405 319 L 416 296" fill="none" id="make-me-a-hanzi-animation-8" stroke-dasharray="199 398" stroke-linecap="round"></path>
    
      <clipPath id="make-me-a-hanzi-clip-9">
        <path d="M 553 279 Q 598 334 625 360 Q 638 367 632 375 Q 625 387 606 396 C 579 410 554 422 561 394 Q 561 391 563 387 Q 570 368 522 272 C 509 245 534 256 553 279 Z"></path>
      </clipPath>
      <path clip-path="url(#make-me-a-hanzi-clip-9)" d="M 624 370 L 591 366 L 543 287 L 528 283" fill="none" id="make-me-a-hanzi-animation-9" stroke-dasharray="269 538" stroke-linecap="round"></path>
    
      <clipPath id="make-me-a-hanzi-clip-10">
        <path d="M 526 238 Q 554 244 676 256 Q 685 255 693 266 Q 694 276 675 285 Q 648 306 558 280 Q 555 280 553 279 L 522 272 Q 519 273 518 272 Q 451 259 312 244 Q 287 243 306 227 Q 337 206 385 215 Q 422 222 469 228 L 526 238 Z"></path>
      </clipPath>
      <path clip-path="url(#make-me-a-hanzi-clip-10)" d="M 307 236 L 374 231 L 626 273 L 683 268" fill="none" id="make-me-a-hanzi-animation-10" stroke-dasharray="508 1016" stroke-linecap="round"></path>
    
      <clipPath id="make-me-a-hanzi-clip-11">
        <path d="M 525 116 Q 616 125 747 124 Q 810 121 819 132 Q 825 144 808 158 Q 756 197 718 189 Q 645 173 525 155 L 466 147 L 201 114 Q 179 113 195 95 Q 208 82 227 76 Q 248 70 264 75 Q 355 99 457 109 Q 460 110 465 109 L 525 116 Z"></path>
      </clipPath>
      <path clip-path="url(#make-me-a-hanzi-clip-11)" d="M 198 105 L 247 96 L 429 125 L 728 157 L 811 138" fill="none" id="make-me-a-hanzi-animation-11" stroke-dasharray="748 1496" stroke-linecap="round"></path>
    
      <clipPath id="make-me-a-hanzi-clip-12">
        <path d="M 465 109 Q 462 -116 483 -138 Q 495 -150 506 -125 Q 524 -83 525 116 L 525 155 Q 525 197 526 238 C 527 268 470 258 469 228 Q 468 188 466 147 L 465 109 Z"></path>
      </clipPath>
      <path clip-path="url(#make-me-a-hanzi-clip-12)" d="M 520 231 L 497 204 L 491 -129" fill="none" id="make-me-a-hanzi-animation-12" stroke-dasharray="497 994" stroke-linecap="round"></path>
    
  </g>
</svg>